<?xml version="1.0" encoding="UTF-8" standalone="no"?>
<!DOCTYPE svg PUBLIC "-//W3C//DTD SVG 1.1//EN"
 "http://www.w3.org/Graphics/SVG/1.1/DTD/svg11.dtd">
<!-- Generated by graphviz version 2.47.1 (20210515.0534)
 -->
<!-- Title: twoDegreesRelationshipsDiagram Pages: 1 -->
<svg width="627pt" height="295pt"
 viewBox="0.00 0.00 627.00 295.00" xmlns="http://www.w3.org/2000/svg" xmlns:xlink="http://www.w3.org/1999/xlink">
<g id="graph0" class="graph" transform="scale(1 1) rotate(0) translate(4 291)">
<title>twoDegreesRelationshipsDiagram</title>
<polygon fill="#ffffff" stroke="transparent" points="-4,4 -4,-291 623,-291 623,4 -4,4"/>
<text text-anchor="middle" x="73.5" y="-7.2" font-family="Helvetica,sans-Serif" font-size="11.00">Generated by SchemaSpy</text>
<!-- activities -->
<g id="node1" class="node">
<title>activities</title>
<g id="a_node1"><a xlink:href="../../tables/activities.html" xlink:title="activities" target="_top">
<polygon fill="#ffffff" stroke="transparent" points="258,-143 258,-201 356,-201 356,-143 258,-143"/>
<polygon fill="#f5f5f5" stroke="transparent" points="258,-179 258,-201 356,-201 356,-179 258,-179"/>
<polygon fill="none" stroke="black" points="258,-179 258,-201 356,-201 356,-179 258,-179"/>
<text text-anchor="start" x="263" y="-188.2" font-family="Helvetica,sans-Serif" font-weight="bold" font-size="11.00">activities</text>
<text text-anchor="start" x="317" y="-187.2" font-family="Helvetica,sans-Serif" font-size="11.00">[table]</text>
<polygon fill="none" stroke="black" points="258,-161 258,-179 356,-179 356,-161 258,-161"/>
<text text-anchor="start" x="261" y="-167.2" font-family="Helvetica,sans-Serif" font-size="11.00">...</text>
<polygon fill="#ffffff" stroke="transparent" points="258,-143 258,-161 300,-161 300,-143 258,-143"/>
<polygon fill="none" stroke="black" points="258,-143 258,-161 300,-161 300,-143 258,-143"/>
<text text-anchor="start" x="261" y="-149.2" font-family="Helvetica,sans-Serif" font-size="11.00">&lt; 3</text>
<polygon fill="#ffffff" stroke="transparent" points="300,-143 300,-161 323,-161 323,-143 300,-143"/>
<polygon fill="none" stroke="black" points="300,-143 300,-161 323,-161 323,-143 300,-143"/>
<text text-anchor="start" x="313" y="-149.2" font-family="Helvetica,sans-Serif" font-size="11.00"> &#160;</text>
<polygon fill="#ffffff" stroke="transparent" points="323,-143 323,-161 356,-161 356,-143 323,-143"/>
<polygon fill="none" stroke="black" points="323,-143 323,-161 356,-161 356,-143 323,-143"/>
<text text-anchor="start" x="337" y="-149.2" font-family="Helvetica,sans-Serif" font-size="11.00">3 &gt;</text>
</a>
</g>
</g>
<!-- activity_statuses -->
<g id="node2" class="node">
<title>activity_statuses</title>
<g id="a_node2"><a xlink:href="../../tables/activity_statuses.html" xlink:title="activity_statuses" target="_top">
<polygon fill="#ffffff" stroke="transparent" points="36.5,-225 36.5,-283 180.5,-283 180.5,-225 36.5,-225"/>
<polygon fill="#f5f5f5" stroke="transparent" points="36.5,-261 36.5,-283 180.5,-283 180.5,-261 36.5,-261"/>
<polygon fill="none" stroke="black" points="36.5,-261 36.5,-283 180.5,-283 180.5,-261 36.5,-261"/>
<text text-anchor="start" x="41.5" y="-270.2" font-family="Helvetica,sans-Serif" font-weight="bold" font-size="11.00">activity_statuses</text>
<text text-anchor="start" x="141.5" y="-269.2" font-family="Helvetica,sans-Serif" font-size="11.00">[table]</text>
<polygon fill="none" stroke="black" points="36.5,-243 36.5,-261 180.5,-261 180.5,-243 36.5,-243"/>
<text text-anchor="start" x="39.5" y="-249.2" font-family="Helvetica,sans-Serif" font-size="11.00">...</text>
<polygon fill="#ffffff" stroke="transparent" points="36.5,-225 36.5,-243 97.5,-243 97.5,-225 36.5,-225"/>
<polygon fill="none" stroke="black" points="36.5,-225 36.5,-243 97.5,-243 97.5,-225 36.5,-225"/>
<text text-anchor="start" x="39.5" y="-231.2" font-family="Helvetica,sans-Serif" font-size="11.00"> &#160;</text>
<polygon fill="#ffffff" stroke="transparent" points="97.5,-225 97.5,-243 134.5,-243 134.5,-225 97.5,-225"/>
<polygon fill="none" stroke="black" points="97.5,-225 97.5,-243 134.5,-243 134.5,-225 97.5,-225"/>
<text text-anchor="start" x="124.5" y="-231.2" font-family="Helvetica,sans-Serif" font-size="11.00"> &#160;</text>
<polygon fill="#ffffff" stroke="transparent" points="134.5,-225 134.5,-243 180.5,-243 180.5,-225 134.5,-225"/>
<polygon fill="none" stroke="black" points="134.5,-225 134.5,-243 180.5,-243 180.5,-225 134.5,-225"/>
<text text-anchor="start" x="161.5" y="-231.2" font-family="Helvetica,sans-Serif" font-size="11.00">1 &gt;</text>
</a>
</g>
</g>
<!-- activities&#45;&gt;activity_statuses -->
<g id="edge1" class="edge">
<title>activities:w&#45;&gt;activity_statuses:e</title>
<path fill="none" stroke="black" d="M265.32,-214.66C242.75,-233.73 212.93,-252 181.5,-252"/>
<polygon fill="black" stroke="black" points="270.15,-210.33 278.52,-207.68 273.14,-207.67 276.12,-205 276.12,-205 276.12,-205 273.14,-207.67 273.72,-202.32 270.15,-210.33 270.15,-210.33"/>
<ellipse fill="none" stroke="black" cx="267.77" cy="-212.47" rx="3.2" ry="3.2"/>
</g>
<!-- activity_types -->
<g id="node3" class="node">
<title>activity_types</title>
<g id="a_node3"><a xlink:href="../../tables/activity_types.html" xlink:title="activity_types" target="_top">
<polygon fill="#ffffff" stroke="transparent" points="8,-37 8,-125 209,-125 209,-37 8,-37"/>
<polygon fill="#f5f5f5" stroke="transparent" points="10.5,-101 10.5,-123 207.5,-123 207.5,-101 10.5,-101"/>
<polygon fill="none" stroke="black" points="10.5,-101 10.5,-123 207.5,-123 207.5,-101 10.5,-101"/>
<text text-anchor="start" x="15.5" y="-110.2" font-family="Helvetica,sans-Serif" font-weight="bold" font-size="11.00">activity_types</text>
<text text-anchor="start" x="168.5" y="-109.2" font-family="Helvetica,sans-Serif" font-size="11.00">[table]</text>
<polygon fill="none" stroke="black" points="10.5,-79 10.5,-101 113.5,-101 113.5,-79 10.5,-79"/>
<image xlink:href="../../images/primaryKeys.png" width="11px" height="12px" preserveAspectRatio="xMinYMin meet" x="15.5" y="-96"/>
<text text-anchor="start" x="30.5" y="-87.2" font-family="Helvetica,sans-Serif" font-size="11.00">id</text>
<polygon fill="none" stroke="black" points="113.5,-79 113.5,-101 207.5,-101 207.5,-79 113.5,-79"/>
<text text-anchor="start" x="116.5" y="-87.2" font-family="Helvetica,sans-Serif" font-size="11.00">int4[10]</text>
<polygon fill="#ffffff" stroke="transparent" points="10.5,-57 10.5,-79 113.5,-79 113.5,-57 10.5,-57"/>
<polygon fill="none" stroke="black" points="10.5,-57 10.5,-79 113.5,-79 113.5,-57 10.5,-57"/>
<text text-anchor="start" x="30.5" y="-65.2" font-family="Helvetica,sans-Serif" font-size="11.00">name</text>
<polygon fill="none" stroke="black" points="113.5,-57 113.5,-79 207.5,-79 207.5,-57 113.5,-57"/>
<text text-anchor="start" x="116.5" y="-65.2" font-family="Helvetica,sans-Serif" font-size="11.00">text[2147483647]</text>
<polygon fill="#ffffff" stroke="transparent" points="10.5,-39 10.5,-57 66.5,-57 66.5,-39 10.5,-39"/>
<polygon fill="none" stroke="black" points="10.5,-39 10.5,-57 66.5,-57 66.5,-39 10.5,-39"/>
<text text-anchor="start" x="13.5" y="-45.2" font-family="Helvetica,sans-Serif" font-size="11.00">&lt; 0</text>
<polygon fill="#ffffff" stroke="transparent" points="66.5,-39 66.5,-57 113.5,-57 113.5,-39 66.5,-39"/>
<polygon fill="none" stroke="black" points="66.5,-39 66.5,-57 113.5,-57 113.5,-39 66.5,-39"/>
<text text-anchor="start" x="103.5" y="-45.2" font-family="Helvetica,sans-Serif" font-size="11.00"> &#160;</text>
<polygon fill="#ffffff" stroke="transparent" points="113.5,-39 113.5,-57 207.5,-57 207.5,-39 113.5,-39"/>
<polygon fill="none" stroke="black" points="113.5,-39 113.5,-57 207.5,-57 207.5,-39 113.5,-39"/>
<text text-anchor="start" x="188.5" y="-45.2" font-family="Helvetica,sans-Serif" font-size="11.00">2 &gt;</text>
<polygon fill="none" stroke="black" stroke-width="2" points="9,-38 9,-124 208,-124 208,-38 9,-38"/>
</a>
</g>
</g>
<!-- activities&#45;&gt;activity_types -->
<g id="edge2" class="edge">
<title>activities:w&#45;&gt;activity_types:e</title>
<path fill="none" stroke="black" d="M275.32,-127.34C258.27,-108.13 235.12,-90 208.5,-90"/>
<polygon fill="black" stroke="black" points="279.54,-132.47 281.85,-140.94 282.09,-135.56 284.63,-138.65 284.63,-138.65 284.63,-138.65 282.09,-135.56 287.41,-136.36 279.54,-132.47 279.54,-132.47"/>
<ellipse fill="none" stroke="black" cx="277.51" cy="-130" rx="3.2" ry="3.2"/>
</g>
<!-- public.projects -->
<g id="node4" class="node">
<title>public.projects</title>
<g id="a_node4"><a xlink:href="../../../public/tables/projects.html" xlink:title="public.projects" target="_top">
<polygon fill="#ffffff" stroke="transparent" points="42.5,-146 42.5,-204 174.5,-204 174.5,-146 42.5,-146"/>
<polygon fill="#f5f5f5" stroke="transparent" points="42.5,-182 42.5,-204 174.5,-204 174.5,-182 42.5,-182"/>
<polygon fill="none" stroke="black" points="42.5,-182 42.5,-204 174.5,-204 174.5,-182 42.5,-182"/>
<text text-anchor="start" x="47.5" y="-191.2" font-family="Helvetica,sans-Serif" font-weight="bold" font-size="11.00">public.projects</text>
<text text-anchor="start" x="135.5" y="-190.2" font-family="Helvetica,sans-Serif" font-size="11.00">[table]</text>
<polygon fill="none" stroke="black" points="42.5,-164 42.5,-182 174.5,-182 174.5,-164 42.5,-164"/>
<text text-anchor="start" x="45.5" y="-170.2" font-family="Helvetica,sans-Serif" font-size="11.00">...</text>
<polygon fill="#ffffff" stroke="transparent" points="42.5,-146 42.5,-164 85.5,-164 85.5,-146 42.5,-146"/>
<polygon fill="none" stroke="black" points="42.5,-146 42.5,-164 85.5,-164 85.5,-146 42.5,-146"/>
<text text-anchor="start" x="45.5" y="-152.2" font-family="Helvetica,sans-Serif" font-size="11.00">&lt; 1</text>
<polygon fill="#ffffff" stroke="transparent" points="85.5,-146 85.5,-164 135.5,-164 135.5,-146 85.5,-146"/>
<polygon fill="none" stroke="black" points="85.5,-146 85.5,-164 135.5,-164 135.5,-146 85.5,-146"/>
<text text-anchor="start" x="98.5" y="-152.2" font-family="Helvetica,sans-Serif" font-size="11.00">0 rows</text>
<polygon fill="#ffffff" stroke="transparent" points="135.5,-146 135.5,-164 174.5,-164 174.5,-146 135.5,-146"/>
<polygon fill="none" stroke="black" points="135.5,-146 135.5,-164 174.5,-164 174.5,-146 135.5,-146"/>
<text text-anchor="start" x="149.5" y="-152.2" font-family="Helvetica,sans-Serif" font-size="11.00">22 &gt;</text>
</a>
</g>
</g>
<!-- activities&#45;&gt;public.projects -->
<g id="edge3" class="edge">
<title>activities:w&#45;&gt;public.projects:e</title>
<path fill="none" stroke="black" d="M235.34,-172.74C215.94,-172.89 194.91,-173 175.5,-173"/>
<polygon fill="black" stroke="black" points="241.8,-172.69 249.83,-176.22 245.8,-172.65 249.8,-172.62 249.8,-172.62 249.8,-172.62 245.8,-172.65 249.77,-169.02 241.8,-172.69 241.8,-172.69"/>
<ellipse fill="none" stroke="black" cx="238.6" cy="-172.71" rx="3.2" ry="3.2"/>
</g>
<!-- activity_media_files -->
<g id="node5" class="node">
<title>activity_media_files</title>
<g id="a_node5"><a xlink:href="../../tables/activity_media_files.html" xlink:title="activity_media_files" target="_top">
<polygon fill="#ffffff" stroke="transparent" points="427.5,-221 427.5,-279 588.5,-279 588.5,-221 427.5,-221"/>
<polygon fill="#f5f5f5" stroke="transparent" points="428,-257 428,-279 589,-279 589,-257 428,-257"/>
<polygon fill="none" stroke="black" points="428,-257 428,-279 589,-279 589,-257 428,-257"/>
<text text-anchor="start" x="433" y="-266.2" font-family="Helvetica,sans-Serif" font-weight="bold" font-size="11.00">activity_media_files</text>
<text text-anchor="start" x="550" y="-265.2" font-family="Helvetica,sans-Serif" font-size="11.00">[table]</text>
<polygon fill="none" stroke="black" points="428,-239 428,-257 589,-257 589,-239 428,-239"/>
<text text-anchor="start" x="431" y="-245.2" font-family="Helvetica,sans-Serif" font-size="11.00">...</text>
<polygon fill="#ffffff" stroke="transparent" points="428,-221 428,-239 506,-239 506,-221 428,-221"/>
<polygon fill="none" stroke="black" points="428,-221 428,-239 506,-239 506,-221 428,-221"/>
<text text-anchor="start" x="431" y="-227.2" font-family="Helvetica,sans-Serif" font-size="11.00">&lt; 3</text>
<polygon fill="#ffffff" stroke="transparent" points="506,-221 506,-239 547,-239 547,-221 506,-221"/>
<polygon fill="none" stroke="black" points="506,-221 506,-239 547,-239 547,-221 506,-221"/>
<text text-anchor="start" x="537" y="-227.2" font-family="Helvetica,sans-Serif" font-size="11.00"> &#160;</text>
<polygon fill="#ffffff" stroke="transparent" points="547,-221 547,-239 589,-239 589,-221 547,-221"/>
<polygon fill="none" stroke="black" points="547,-221 547,-239 589,-239 589,-221 547,-221"/>
<text text-anchor="start" x="579" y="-227.2" font-family="Helvetica,sans-Serif" font-size="11.00"> &#160;</text>
</a>
</g>
</g>
<!-- activity_media_files&#45;&gt;activities -->
<g id="edge4" class="edge">
<title>activity_media_files:w&#45;&gt;activities:e</title>
<path fill="none" stroke="black" d="M416.29,-247.28C386.25,-243.3 358.42,-223.43 338.5,-205.11"/>
<polygon fill="black" stroke="black" points="426.47,-243.96 425.93,-251.94 424.34,-251.83 424.87,-243.85 426.47,-243.96"/>
<polyline fill="none" stroke="black" points="427,-248 423.01,-247.73 "/>
<ellipse fill="none" stroke="black" cx="419.82" cy="-247.52" rx="3.2" ry="3.2"/>
</g>
<!-- activity_observations -->
<g id="node6" class="node">
<title>activity_observations</title>
<g id="a_node6"><a xlink:href="../../tables/activity_observations.html" xlink:title="activity_observations" target="_top">
<polygon fill="#ffffff" stroke="transparent" points="422.5,-142 422.5,-200 593.5,-200 593.5,-142 422.5,-142"/>
<polygon fill="#f5f5f5" stroke="transparent" points="423,-178 423,-200 594,-200 594,-178 423,-178"/>
<polygon fill="none" stroke="black" points="423,-178 423,-200 594,-200 594,-178 423,-178"/>
<text text-anchor="start" x="428" y="-187.2" font-family="Helvetica,sans-Serif" font-weight="bold" font-size="11.00">activity_observations</text>
<text text-anchor="start" x="555" y="-186.2" font-family="Helvetica,sans-Serif" font-size="11.00">[table]</text>
<polygon fill="none" stroke="black" points="423,-160 423,-178 594,-178 594,-160 423,-160"/>
<text text-anchor="start" x="426" y="-166.2" font-family="Helvetica,sans-Serif" font-size="11.00">...</text>
<polygon fill="#ffffff" stroke="transparent" points="423,-142 423,-160 506,-160 506,-142 423,-142"/>
<polygon fill="none" stroke="black" points="423,-142 423,-160 506,-160 506,-142 423,-142"/>
<text text-anchor="start" x="426" y="-148.2" font-family="Helvetica,sans-Serif" font-size="11.00">&lt; 1</text>
<polygon fill="#ffffff" stroke="transparent" points="506,-142 506,-160 550,-160 550,-142 506,-142"/>
<polygon fill="none" stroke="black" points="506,-142 506,-160 550,-160 550,-142 506,-142"/>
<text text-anchor="start" x="540" y="-148.2" font-family="Helvetica,sans-Serif" font-size="11.00"> &#160;</text>
<polygon fill="#ffffff" stroke="transparent" points="550,-142 550,-160 594,-160 594,-142 550,-142"/>
<polygon fill="none" stroke="black" points="550,-142 550,-160 594,-160 594,-142 550,-142"/>
<text text-anchor="start" x="584" y="-148.2" font-family="Helvetica,sans-Serif" font-size="11.00"> &#160;</text>
</a>
</g>
</g>
<!-- activity_observations&#45;&gt;activities -->
<g id="edge5" class="edge">
<title>activity_observations:w&#45;&gt;activities:e</title>
<path fill="none" stroke="black" d="M411.26,-169.04C395.56,-169.16 379.19,-169.51 364.24,-169.93"/>
<polygon fill="black" stroke="black" points="421.18,-165 421.22,-173 419.62,-173.01 419.58,-165.01 421.18,-165"/>
<polyline fill="none" stroke="black" points="422,-169 418,-169.02 "/>
<ellipse fill="none" stroke="black" cx="414.8" cy="-169.03" rx="3.2" ry="3.2"/>
</g>
<!-- funder.published_activities -->
<g id="node7" class="node">
<title>funder.published_activities</title>
<g id="a_node7"><a xlink:href="../../../funder/tables/published_activities.html" xlink:title="funder.published_activities" target="_top">
<polygon fill="#ffffff" stroke="transparent" points="405,-63 405,-121 611,-121 611,-63 405,-63"/>
<polygon fill="#f5f5f5" stroke="transparent" points="405,-99 405,-121 611,-121 611,-99 405,-99"/>
<polygon fill="none" stroke="black" points="405,-99 405,-121 611,-121 611,-99 405,-99"/>
<text text-anchor="start" x="410" y="-108.2" font-family="Helvetica,sans-Serif" font-weight="bold" font-size="11.00">funder.published_activities</text>
<text text-anchor="start" x="572" y="-107.2" font-family="Helvetica,sans-Serif" font-size="11.00">[table]</text>
<polygon fill="none" stroke="black" points="405,-81 405,-99 611,-99 611,-81 405,-81"/>
<text text-anchor="start" x="408" y="-87.2" font-family="Helvetica,sans-Serif" font-size="11.00">...</text>
<polygon fill="#ffffff" stroke="transparent" points="405,-63 405,-81 492,-81 492,-63 405,-63"/>
<polygon fill="none" stroke="black" points="405,-63 405,-81 492,-81 492,-63 405,-63"/>
<text text-anchor="start" x="408" y="-69.2" font-family="Helvetica,sans-Serif" font-size="11.00">&lt; 2</text>
<polygon fill="#ffffff" stroke="transparent" points="492,-63 492,-81 565,-81 565,-63 492,-63"/>
<polygon fill="none" stroke="black" points="492,-63 492,-81 565,-81 565,-63 492,-63"/>
<text text-anchor="start" x="528" y="-69.2" font-family="Helvetica,sans-Serif" font-size="11.00">0 rows</text>
<polygon fill="#ffffff" stroke="transparent" points="565,-63 565,-81 611,-81 611,-63 565,-63"/>
<polygon fill="none" stroke="black" points="565,-63 565,-81 611,-81 611,-63 565,-63"/>
<text text-anchor="start" x="601" y="-69.2" font-family="Helvetica,sans-Serif" font-size="11.00"> &#160;</text>
</a>
</g>
</g>
<!-- funder.published_activities&#45;&gt;activities -->
<g id="edge6" class="edge">
<title>funder.published_activities:w&#45;&gt;activities:e</title>
<path fill="none" stroke="black" d="M401.07,-130.36C399.7,-130.91 398.35,-131.45 397,-132 386.33,-136.33 375.04,-141.19 364.23,-145.98"/>
<polygon fill="black" stroke="black" points="407.23,-127.93 416,-128.36 410.96,-126.47 414.68,-125.01 414.68,-125.01 414.68,-125.01 410.96,-126.47 413.36,-121.66 407.23,-127.93 407.23,-127.93"/>
<ellipse fill="none" stroke="black" cx="404.26" cy="-129.11" rx="3.2" ry="3.2"/>
</g>
<!-- funder.published_activities&#45;&gt;activity_types -->
<g id="edge7" class="edge">
<title>funder.published_activities:w&#45;&gt;activity_types:e</title>
<path fill="none" stroke="black" d="M382.32,-90.79C328.81,-90.37 265.58,-90 208.5,-90"/>
<polygon fill="black" stroke="black" points="388.78,-90.84 396.75,-94.51 392.78,-90.88 396.78,-90.91 396.78,-90.91 396.78,-90.91 392.78,-90.88 396.81,-87.31 388.78,-90.84 388.78,-90.84"/>
<ellipse fill="none" stroke="black" cx="385.58" cy="-90.82" rx="3.2" ry="3.2"/>
</g>
</g>
</svg>
