<?xml version="1.0" encoding="UTF-8" standalone="no"?>
<!DOCTYPE svg PUBLIC "-//W3C//DTD SVG 1.1//EN"
 "http://www.w3.org/Graphics/SVG/1.1/DTD/svg11.dtd">
<!-- Generated by graphviz version 2.47.1 (20210515.0534)
 -->
<!-- Title: oneDegreeRelationshipsDiagram Pages: 1 -->
<svg width="395pt" height="197pt"
 viewBox="0.00 0.00 395.00 197.00" xmlns="http://www.w3.org/2000/svg" xmlns:xlink="http://www.w3.org/1999/xlink">
<g id="graph0" class="graph" transform="scale(1 1) rotate(0) translate(4 193)">
<title>oneDegreeRelationshipsDiagram</title>
<polygon fill="#ffffff" stroke="transparent" points="-4,4 -4,-193 391,-193 391,4 -4,4"/>
<text text-anchor="middle" x="73.5" y="-7.2" font-family="Helvetica,sans-Serif" font-size="11.00">Generated by SchemaSpy</text>
<!-- activity_observations -->
<g id="node1" class="node">
<title>activity_observations</title>
<g id="a_node1"><a xlink:href="../../tables/activity_observations.html" xlink:title="activity_observations" target="_top">
<polygon fill="#ffffff" stroke="transparent" points="181,-97 181,-185 379,-185 379,-97 181,-97"/>
<polygon fill="#f5f5f5" stroke="transparent" points="183,-161 183,-183 377,-183 377,-161 183,-161"/>
<polygon fill="none" stroke="black" points="183,-161 183,-183 377,-183 377,-161 183,-161"/>
<text text-anchor="start" x="188" y="-170.2" font-family="Helvetica,sans-Serif" font-weight="bold" font-size="11.00">activity_observations</text>
<text text-anchor="start" x="338" y="-169.2" font-family="Helvetica,sans-Serif" font-size="11.00">[table]</text>
<polygon fill="none" stroke="black" points="183,-139 183,-161 331,-161 331,-139 183,-139"/>
<image xlink:href="../../images/primaryKeys.png" width="11px" height="12px" preserveAspectRatio="xMinYMin meet" x="188" y="-156"/>
<text text-anchor="start" x="203" y="-147.2" font-family="Helvetica,sans-Serif" font-size="11.00">activity_id</text>
<polygon fill="none" stroke="black" points="331,-139 331,-161 377,-161 377,-139 331,-139"/>
<text text-anchor="start" x="334" y="-147.2" font-family="Helvetica,sans-Serif" font-size="11.00">int8[19]</text>
<polygon fill="#ffffff" stroke="transparent" points="183,-117 183,-139 331,-139 331,-117 183,-117"/>
<polygon fill="none" stroke="black" points="183,-117 183,-139 331,-139 331,-117 183,-117"/>
<text text-anchor="start" x="203" y="-125.2" font-family="Helvetica,sans-Serif" font-size="11.00">observation_id</text>
<polygon fill="none" stroke="black" points="331,-117 331,-139 377,-139 377,-117 331,-117"/>
<text text-anchor="start" x="334" y="-125.2" font-family="Helvetica,sans-Serif" font-size="11.00">int8[19]</text>
<polygon fill="#ffffff" stroke="transparent" points="183,-99 183,-117 261,-117 261,-99 183,-99"/>
<polygon fill="none" stroke="black" points="183,-99 183,-117 261,-117 261,-99 183,-99"/>
<text text-anchor="start" x="186" y="-105.2" font-family="Helvetica,sans-Serif" font-size="11.00">&lt; 1</text>
<polygon fill="#ffffff" stroke="transparent" points="261,-99 261,-117 331,-117 331,-99 261,-99"/>
<polygon fill="none" stroke="black" points="261,-99 261,-117 331,-117 331,-99 261,-99"/>
<text text-anchor="start" x="321" y="-105.2" font-family="Helvetica,sans-Serif" font-size="11.00"> &#160;</text>
<polygon fill="#ffffff" stroke="transparent" points="331,-99 331,-117 377,-117 377,-99 331,-99"/>
<polygon fill="none" stroke="black" points="331,-99 331,-117 377,-117 377,-99 331,-99"/>
<text text-anchor="start" x="358" y="-105.2" font-family="Helvetica,sans-Serif" font-size="11.00">0 &gt;</text>
<polygon fill="none" stroke="black" stroke-width="2" points="182,-98 182,-184 378,-184 378,-98 182,-98"/>
</a>
</g>
</g>
<!-- activities -->
<g id="node2" class="node">
<title>activities</title>
<g id="a_node2"><a xlink:href="../../tables/activities.html" xlink:title="activities" target="_top">
<polygon fill="#ffffff" stroke="transparent" points="8,-37 8,-183 132,-183 132,-37 8,-37"/>
<polygon fill="#f5f5f5" stroke="transparent" points="8,-161 8,-183 132,-183 132,-161 8,-161"/>
<polygon fill="none" stroke="black" points="8,-161 8,-183 132,-183 132,-161 8,-161"/>
<text text-anchor="start" x="13" y="-170.2" font-family="Helvetica,sans-Serif" font-weight="bold" font-size="11.00">activities</text>
<text text-anchor="start" x="93" y="-169.2" font-family="Helvetica,sans-Serif" font-size="11.00">[table]</text>
<polygon fill="none" stroke="black" points="8,-139 8,-161 132,-161 132,-139 8,-139"/>
<image xlink:href="../../images/primaryKeys.png" width="11px" height="12px" preserveAspectRatio="xMinYMin meet" x="13" y="-156"/>
<text text-anchor="start" x="28" y="-147.2" font-family="Helvetica,sans-Serif" font-size="11.00">id</text>
<polygon fill="#ffffff" stroke="transparent" points="8,-117 8,-139 132,-139 132,-117 8,-117"/>
<polygon fill="none" stroke="black" points="8,-117 8,-139 132,-139 132,-117 8,-117"/>
<image xlink:href="../../images/foreignKeys.png" width="11px" height="12px" preserveAspectRatio="xMinYMin meet" x="13" y="-134"/>
<text text-anchor="start" x="28" y="-125.2" font-family="Helvetica,sans-Serif" font-size="11.00">project_id</text>
<polygon fill="none" stroke="black" points="8,-95 8,-117 132,-117 132,-95 8,-95"/>
<image xlink:href="../../images/foreignKeys.png" width="11px" height="12px" preserveAspectRatio="xMinYMin meet" x="13" y="-112"/>
<text text-anchor="start" x="28" y="-103.2" font-family="Helvetica,sans-Serif" font-size="11.00">activity_type_id</text>
<polygon fill="none" stroke="black" points="8,-73 8,-95 132,-95 132,-73 8,-73"/>
<image xlink:href="../../images/foreignKeys.png" width="11px" height="12px" preserveAspectRatio="xMinYMin meet" x="13" y="-90"/>
<text text-anchor="start" x="28" y="-81.2" font-family="Helvetica,sans-Serif" font-size="11.00">activity_status_id</text>
<polygon fill="none" stroke="black" points="8,-55 8,-73 132,-73 132,-55 8,-55"/>
<text text-anchor="start" x="11" y="-61.2" font-family="Helvetica,sans-Serif" font-size="11.00">...</text>
<polygon fill="#ffffff" stroke="transparent" points="8,-37 8,-55 63,-55 63,-37 8,-37"/>
<polygon fill="none" stroke="black" points="8,-37 8,-55 63,-55 63,-37 8,-37"/>
<text text-anchor="start" x="11" y="-43.2" font-family="Helvetica,sans-Serif" font-size="11.00">&lt; 3</text>
<polygon fill="#ffffff" stroke="transparent" points="63,-37 63,-55 93,-55 93,-37 63,-37"/>
<polygon fill="none" stroke="black" points="63,-37 63,-55 93,-55 93,-37 63,-37"/>
<text text-anchor="start" x="83" y="-43.2" font-family="Helvetica,sans-Serif" font-size="11.00"> &#160;</text>
<polygon fill="#ffffff" stroke="transparent" points="93,-37 93,-55 132,-55 132,-37 93,-37"/>
<polygon fill="none" stroke="black" points="93,-37 93,-55 132,-55 132,-37 93,-37"/>
<text text-anchor="start" x="113" y="-43.2" font-family="Helvetica,sans-Serif" font-size="11.00">3 &gt;</text>
</a>
</g>
</g>
<!-- activity_observations&#45;&gt;activities -->
<g id="edge1" class="edge">
<title>activity_observations:w&#45;&gt;activities:e</title>
<path fill="none" stroke="black" d="M171.26,-150C157.61,-150 150.69,-150 133,-150"/>
<polygon fill="black" stroke="black" points="181.2,-146 181.2,-154 179.6,-154 179.6,-146 181.2,-146"/>
<polyline fill="none" stroke="black" points="182,-150 178,-150 "/>
<ellipse fill="none" stroke="black" cx="174.8" cy="-150" rx="3.2" ry="3.2"/>
</g>
</g>
</svg>
