<?xml version="1.0" encoding="UTF-8" standalone="no"?>
<!DOCTYPE svg PUBLIC "-//W3C//DTD SVG 1.1//EN"
 "http://www.w3.org/Graphics/SVG/1.1/DTD/svg11.dtd">
<!-- Generated by graphviz version 2.38.0 (20140413.2041)
 -->
<!-- Title: oneDegreeRelationshipsDiagram Pages: 1 -->
<svg width="684pt" height="259pt"
 viewBox="0.00 0.00 684.00 259.00" xmlns="http://www.w3.org/2000/svg" xmlns:xlink="http://www.w3.org/1999/xlink">
<g id="graph0" class="graph" transform="scale(1 1) rotate(0) translate(4 255)">
<title>oneDegreeRelationshipsDiagram</title>
<polygon fill="#ffffff" stroke="none" points="-4,4 -4,-255 680,-255 680,4 -4,4"/>
<text text-anchor="middle" x="74.5" y="-7.2" font-family="Helvetica,sans-Serif" font-size="11.00">Generated by SchemaSpy</text>
<!-- application_histories -->
<g id="node1" class="node"><title>application_histories</title>
<g id="a_node1"><a xlink:href="../../tables/application_histories.html" xlink:title="application_histories" target="_top">
<polygon fill="#ffffff" stroke="none" points="500,-65 500,-211 668,-211 668,-65 500,-65"/>
<polygon fill="#f5f5f5" stroke="none" points="500,-189 500,-211 668,-211 668,-189 500,-189"/>
<polygon fill="none" stroke="black" points="500,-189 500,-211 668,-211 668,-189 500,-189"/>
<text text-anchor="start" x="505" y="-198.2" font-family="Helvetica,sans-Serif" font-weight="bold" font-size="11.00">application_histories</text>
<text text-anchor="start" x="629" y="-197.2" font-family="Helvetica,sans-Serif" font-size="11.00">[table]</text>
<polygon fill="none" stroke="black" points="500,-167 500,-189 668,-189 668,-167 500,-167"/>
<image xlink:href="../../images/primaryKeys.png" width="11px" height="12px" preserveAspectRatio="xMinYMin meet" x="505" y="-184"/>
<text text-anchor="start" x="531" y="-175.2" font-family="Helvetica,sans-Serif" font-size="11.00">id</text>
<polygon fill="#ffffff" stroke="none" points="500,-145 500,-167 668,-167 668,-145 500,-145"/>
<polygon fill="none" stroke="black" points="500,-145 500,-167 668,-167 668,-145 500,-145"/>
<image xlink:href="../../images/foreignKeys.png" width="11px" height="12px" preserveAspectRatio="xMinYMin meet" x="505" y="-162"/>
<text text-anchor="start" x="531" y="-153.2" font-family="Helvetica,sans-Serif" font-size="11.00">application_id</text>
<polygon fill="#ffffff" stroke="none" points="500,-123 500,-145 668,-145 668,-123 500,-123"/>
<polygon fill="none" stroke="black" points="500,-123 500,-145 668,-145 668,-123 500,-123"/>
<text text-anchor="start" x="531" y="-131.2" font-family="Helvetica,sans-Serif" font-size="11.00">modified_by</text>
<polygon fill="none" stroke="black" points="500,-101 500,-123 668,-123 668,-101 500,-101"/>
<image xlink:href="../../images/foreignKeys.png" width="11px" height="12px" preserveAspectRatio="xMinYMin meet" x="505" y="-118"/>
<text text-anchor="start" x="531" y="-109.2" font-family="Helvetica,sans-Serif" font-size="11.00">application_status_id</text>
<polygon fill="none" stroke="black" points="500,-83 500,-101 668,-101 668,-83 500,-83"/>
<text text-anchor="start" x="503" y="-89.2" font-family="Helvetica,sans-Serif" font-size="11.00">...</text>
<polygon fill="#ffffff" stroke="none" points="500,-65 500,-83 568,-83 568,-65 500,-65"/>
<polygon fill="none" stroke="black" points="500,-65 500,-83 568,-83 568,-65 500,-65"/>
<text text-anchor="start" x="503" y="-71.2" font-family="Helvetica,sans-Serif" font-size="11.00">&lt; 2</text>
<polygon fill="#ffffff" stroke="none" points="568,-65 568,-83 632,-83 632,-65 568,-65"/>
<polygon fill="none" stroke="black" points="568,-65 568,-83 632,-83 632,-65 568,-65"/>
<text text-anchor="start" x="593" y="-71.2" font-family="Helvetica,sans-Serif" font-size="11.00">0 rows</text>
<polygon fill="#ffffff" stroke="none" points="632,-65 632,-83 668,-83 668,-65 632,-65"/>
<polygon fill="none" stroke="black" points="632,-65 632,-83 668,-83 668,-65 632,-65"/>
<text text-anchor="start" x="658" y="-71.2" font-family="Helvetica,sans-Serif" font-size="11.00"> &#160;</text>
</a>
</g>
</g>
<!-- applications -->
<g id="node2" class="node"><title>applications</title>
<g id="a_node2"><a xlink:href="../../tables/applications.html" xlink:title="applications" target="_top">
<polygon fill="#ffffff" stroke="none" points="305,-79 305,-247 451,-247 451,-79 305,-79"/>
<polygon fill="#f5f5f5" stroke="none" points="305,-225 305,-247 451,-247 451,-225 305,-225"/>
<polygon fill="none" stroke="black" points="305,-225 305,-247 451,-247 451,-225 305,-225"/>
<text text-anchor="start" x="310" y="-234.2" font-family="Helvetica,sans-Serif" font-weight="bold" font-size="11.00">applications</text>
<text text-anchor="start" x="412" y="-233.2" font-family="Helvetica,sans-Serif" font-size="11.00">[table]</text>
<polygon fill="none" stroke="black" points="305,-203 305,-225 451,-225 451,-203 305,-203"/>
<image xlink:href="../../images/primaryKeys.png" width="11px" height="12px" preserveAspectRatio="xMinYMin meet" x="310" y="-220"/>
<text text-anchor="start" x="325" y="-211.2" font-family="Helvetica,sans-Serif" font-size="11.00">id</text>
<polygon fill="#ffffff" stroke="none" points="305,-181 305,-203 451,-203 451,-181 305,-181"/>
<polygon fill="none" stroke="black" points="305,-181 305,-203 451,-203 451,-181 305,-181"/>
<image xlink:href="../../images/foreignKeys.png" width="11px" height="12px" preserveAspectRatio="xMinYMin meet" x="310" y="-198"/>
<text text-anchor="start" x="325" y="-189.2" font-family="Helvetica,sans-Serif" font-size="11.00">project_id</text>
<polygon fill="#ffffff" stroke="none" points="305,-159 305,-181 451,-181 451,-159 305,-159"/>
<polygon fill="none" stroke="black" points="305,-159 305,-181 451,-181 451,-159 305,-159"/>
<text text-anchor="start" x="325" y="-167.2" font-family="Helvetica,sans-Serif" font-size="11.00">created_by</text>
<polygon fill="#ffffff" stroke="none" points="305,-137 305,-159 451,-159 451,-137 305,-137"/>
<polygon fill="none" stroke="black" points="305,-137 305,-159 451,-159 451,-137 305,-137"/>
<text text-anchor="start" x="325" y="-145.2" font-family="Helvetica,sans-Serif" font-size="11.00">modified_by</text>
<polygon fill="none" stroke="black" points="305,-115 305,-137 451,-137 451,-115 305,-115"/>
<image xlink:href="../../images/foreignKeys.png" width="11px" height="12px" preserveAspectRatio="xMinYMin meet" x="310" y="-132"/>
<text text-anchor="start" x="325" y="-123.2" font-family="Helvetica,sans-Serif" font-size="11.00">application_status_id</text>
<polygon fill="none" stroke="black" points="305,-97 305,-115 451,-115 451,-97 305,-97"/>
<text text-anchor="start" x="308" y="-103.2" font-family="Helvetica,sans-Serif" font-size="11.00">...</text>
<polygon fill="#ffffff" stroke="none" points="305,-79 305,-97 357,-97 357,-79 305,-79"/>
<polygon fill="none" stroke="black" points="305,-79 305,-97 357,-97 357,-79 305,-79"/>
<text text-anchor="start" x="308" y="-85.2" font-family="Helvetica,sans-Serif" font-size="11.00">&lt; 2</text>
<polygon fill="#ffffff" stroke="none" points="357,-79 357,-97 413,-97 413,-79 357,-79"/>
<polygon fill="none" stroke="black" points="357,-79 357,-97 413,-97 413,-79 357,-79"/>
<text text-anchor="start" x="374" y="-85.2" font-family="Helvetica,sans-Serif" font-size="11.00">0 rows</text>
<polygon fill="#ffffff" stroke="none" points="413,-79 413,-97 451,-97 451,-79 413,-79"/>
<polygon fill="none" stroke="black" points="413,-79 413,-97 451,-97 451,-79 413,-79"/>
<text text-anchor="start" x="431" y="-85.2" font-family="Helvetica,sans-Serif" font-size="11.00">2 &gt;</text>
</a>
</g>
</g>
<!-- application_histories&#45;&gt;applications -->
<g id="edge1" class="edge"><title>application_histories:application_id:w&#45;&gt;applications:id:e</title>
<path fill="none" stroke="black" d="M485.185,-161.353C471.233,-175.711 478.958,-214 452,-214"/>
<polygon fill="black" stroke="black" points="491.54,-158.89 500.301,-159.357 495.27,-157.445 499,-156 499,-156 499,-156 495.27,-157.445 497.699,-152.643 491.54,-158.89 491.54,-158.89"/>
<ellipse fill="none" stroke="black" cx="488.556" cy="-160.046" rx="3.20001" ry="3.20001"/>
</g>
<!-- application_statuses -->
<g id="node3" class="node"><title>application_statuses</title>
<g id="a_node3"><a xlink:href="../../tables/application_statuses.html" xlink:title="application_statuses" target="_top">
<polygon fill="#ffffff" stroke="none" points="8,-37 8,-125 256,-125 256,-37 8,-37"/>
<polygon fill="#f5f5f5" stroke="none" points="10,-101 10,-123 254,-123 254,-101 10,-101"/>
<polygon fill="none" stroke="black" points="10,-101 10,-123 254,-123 254,-101 10,-101"/>
<text text-anchor="start" x="15" y="-110.2" font-family="Helvetica,sans-Serif" font-weight="bold" font-size="11.00">application_statuses</text>
<text text-anchor="start" x="215" y="-109.2" font-family="Helvetica,sans-Serif" font-size="11.00">[table]</text>
<polygon fill="none" stroke="black" points="10,-79 10,-101 153,-101 153,-79 10,-79"/>
<image xlink:href="../../images/primaryKeys.png" width="11px" height="12px" preserveAspectRatio="xMinYMin meet" x="15" y="-96"/>
<text text-anchor="start" x="30" y="-87.2" font-family="Helvetica,sans-Serif" font-size="11.00">id</text>
<polygon fill="none" stroke="black" points="153,-79 153,-101 254,-101 254,-79 153,-79"/>
<text text-anchor="start" x="156" y="-87.2" font-family="Helvetica,sans-Serif" font-size="11.00">int4[10]</text>
<polygon fill="#ffffff" stroke="none" points="10,-57 10,-79 153,-79 153,-57 10,-57"/>
<polygon fill="none" stroke="black" points="10,-57 10,-79 153,-79 153,-57 10,-57"/>
<text text-anchor="start" x="30" y="-65.2" font-family="Helvetica,sans-Serif" font-size="11.00">name</text>
<polygon fill="none" stroke="black" points="153,-57 153,-79 254,-79 254,-57 153,-57"/>
<text text-anchor="start" x="156" y="-65.2" font-family="Helvetica,sans-Serif" font-size="11.00">text[2147483647]</text>
<polygon fill="#ffffff" stroke="none" points="10,-39 10,-57 68,-57 68,-39 10,-39"/>
<polygon fill="none" stroke="black" points="10,-39 10,-57 68,-57 68,-39 10,-39"/>
<text text-anchor="start" x="13" y="-45.2" font-family="Helvetica,sans-Serif" font-size="11.00">&lt; 0</text>
<polygon fill="#ffffff" stroke="none" points="68,-39 68,-57 153,-57 153,-39 68,-39"/>
<polygon fill="none" stroke="black" points="68,-39 68,-57 153,-57 153,-39 68,-39"/>
<text text-anchor="start" x="107" y="-45.2" font-family="Helvetica,sans-Serif" font-size="11.00">12 rows</text>
<polygon fill="#ffffff" stroke="none" points="153,-39 153,-57 254,-57 254,-39 153,-39"/>
<polygon fill="none" stroke="black" points="153,-39 153,-57 254,-57 254,-39 153,-39"/>
<text text-anchor="start" x="234" y="-45.2" font-family="Helvetica,sans-Serif" font-size="11.00">2 &gt;</text>
<polygon fill="none" stroke="black" stroke-width="2" points="9,-38 9,-124 255,-124 255,-38 9,-38"/>
</a>
</g>
</g>
<!-- application_histories&#45;&gt;application_statuses -->
<g id="edge2" class="edge"><title>application_histories:application_status_id:w&#45;&gt;application_statuses:id.type:e</title>
<path fill="none" stroke="black" d="M485.398,-107.045C475.766,-97.5198 477.135,-76.8983 459,-69 392.989,-40.2497 367.074,-52.4578 297,-69 276.688,-73.7949 275.87,-90 255,-90"/>
<polygon fill="black" stroke="black" points="491.483,-109.262 497.768,-115.383 495.242,-110.631 499,-112 499,-112 499,-112 495.242,-110.631 500.232,-108.617 491.483,-109.262 491.483,-109.262"/>
<ellipse fill="none" stroke="black" cx="488.477" cy="-108.166" rx="3.20001" ry="3.20001"/>
</g>
<!-- applications&#45;&gt;application_statuses -->
<g id="edge3" class="edge"><title>applications:application_status_id:w&#45;&gt;application_statuses:id.type:e</title>
<path fill="none" stroke="black" d="M290.198,-121.586C277.65,-111.973 276.112,-90 255,-90"/>
<polygon fill="black" stroke="black" points="296.38,-123.563 302.903,-129.429 300.19,-124.781 304,-126 304,-126 304,-126 300.19,-124.781 305.097,-122.571 296.38,-123.563 296.38,-123.563"/>
<ellipse fill="none" stroke="black" cx="293.332" cy="-122.588" rx="3.20001" ry="3.20001"/>
</g>
</g>
</svg>
