<?xml version="1.0" encoding="UTF-8" standalone="no"?>
<!DOCTYPE svg PUBLIC "-//W3C//DTD SVG 1.1//EN"
 "http://www.w3.org/Graphics/SVG/1.1/DTD/svg11.dtd">
<!-- Generated by graphviz version 2.47.1 (20210515.0534)
 -->
<!-- Title: oneDegreeRelationshipsDiagram Pages: 1 -->
<svg width="927pt" height="691pt"
 viewBox="0.00 0.00 927.00 691.00" xmlns="http://www.w3.org/2000/svg" xmlns:xlink="http://www.w3.org/1999/xlink">
<g id="graph0" class="graph" transform="scale(1 1) rotate(0) translate(4 687)">
<title>oneDegreeRelationshipsDiagram</title>
<polygon fill="#ffffff" stroke="transparent" points="-4,4 -4,-687 923,-687 923,4 -4,4"/>
<text text-anchor="middle" x="73.5" y="-7.2" font-family="Helvetica,sans-Serif" font-size="11.00">Generated by SchemaSpy</text>
<!-- auto_calculated_indicators -->
<g id="node1" class="node">
<title>auto_calculated_indicators</title>
<g id="a_node1"><a xlink:href="../../tables/auto_calculated_indicators.html" xlink:title="auto_calculated_indicators" target="_top">
<polygon fill="#ffffff" stroke="transparent" points="230,-122 230,-452 508,-452 508,-122 230,-122"/>
<polygon fill="#f5f5f5" stroke="transparent" points="232,-428 232,-450 506,-450 506,-428 232,-428"/>
<polygon fill="none" stroke="black" points="232,-428 232,-450 506,-450 506,-428 232,-428"/>
<text text-anchor="start" x="237" y="-437.2" font-family="Helvetica,sans-Serif" font-weight="bold" font-size="11.00">auto_calculated_indicators</text>
<text text-anchor="start" x="467" y="-436.2" font-family="Helvetica,sans-Serif" font-size="11.00">[table]</text>
<polygon fill="none" stroke="black" points="232,-406 232,-428 412,-428 412,-406 232,-406"/>
<image xlink:href="../../images/primaryKeys.png" width="11px" height="12px" preserveAspectRatio="xMinYMin meet" x="237" y="-423"/>
<text text-anchor="start" x="252" y="-414.2" font-family="Helvetica,sans-Serif" font-size="11.00">id</text>
<polygon fill="none" stroke="black" points="412,-406 412,-428 506,-428 506,-406 412,-406"/>
<text text-anchor="start" x="415" y="-414.2" font-family="Helvetica,sans-Serif" font-size="11.00">int4[10]</text>
<polygon fill="none" stroke="black" points="232,-384 232,-406 412,-406 412,-384 232,-384"/>
<text text-anchor="start" x="252" y="-392.2" font-family="Helvetica,sans-Serif" font-size="11.00">name</text>
<polygon fill="none" stroke="black" points="412,-384 412,-406 506,-406 506,-384 412,-384"/>
<text text-anchor="start" x="415" y="-392.2" font-family="Helvetica,sans-Serif" font-size="11.00">text[2147483647]</text>
<polygon fill="none" stroke="black" points="232,-362 232,-384 412,-384 412,-362 232,-362"/>
<image xlink:href="../../images/foreignKeys.png" width="11px" height="12px" preserveAspectRatio="xMinYMin meet" x="237" y="-379"/>
<text text-anchor="start" x="252" y="-370.2" font-family="Helvetica,sans-Serif" font-size="11.00">level_id</text>
<polygon fill="none" stroke="black" points="412,-362 412,-384 506,-384 506,-362 412,-362"/>
<text text-anchor="start" x="415" y="-370.2" font-family="Helvetica,sans-Serif" font-size="11.00">int4[10]</text>
<polygon fill="none" stroke="black" points="232,-340 232,-362 412,-362 412,-340 232,-340"/>
<image xlink:href="../../images/foreignKeys.png" width="11px" height="12px" preserveAspectRatio="xMinYMin meet" x="237" y="-357"/>
<text text-anchor="start" x="252" y="-348.2" font-family="Helvetica,sans-Serif" font-size="11.00">category_id</text>
<polygon fill="none" stroke="black" points="412,-340 412,-362 506,-362 506,-340 412,-340"/>
<text text-anchor="start" x="415" y="-348.2" font-family="Helvetica,sans-Serif" font-size="11.00">int4[10]</text>
<polygon fill="none" stroke="black" points="232,-318 232,-340 412,-340 412,-318 232,-318"/>
<text text-anchor="start" x="252" y="-326.2" font-family="Helvetica,sans-Serif" font-size="11.00">description</text>
<polygon fill="none" stroke="black" points="412,-318 412,-340 506,-340 506,-318 412,-318"/>
<text text-anchor="start" x="415" y="-326.2" font-family="Helvetica,sans-Serif" font-size="11.00">text[2147483647]</text>
<polygon fill="none" stroke="black" points="232,-296 232,-318 412,-318 412,-296 232,-296"/>
<text text-anchor="start" x="252" y="-304.2" font-family="Helvetica,sans-Serif" font-size="11.00">ref_id</text>
<polygon fill="none" stroke="black" points="412,-296 412,-318 506,-318 506,-296 412,-296"/>
<text text-anchor="start" x="415" y="-304.2" font-family="Helvetica,sans-Serif" font-size="11.00">text[2147483647]</text>
<polygon fill="none" stroke="black" points="232,-274 232,-296 412,-296 412,-274 232,-274"/>
<text text-anchor="start" x="252" y="-282.2" font-family="Helvetica,sans-Serif" font-size="11.00">is_publishable</text>
<polygon fill="none" stroke="black" points="412,-274 412,-296 506,-296 506,-274 412,-274"/>
<text text-anchor="start" x="415" y="-282.2" font-family="Helvetica,sans-Serif" font-size="11.00">bool[1]</text>
<polygon fill="none" stroke="black" points="232,-252 232,-274 412,-274 412,-252 232,-252"/>
<text text-anchor="start" x="252" y="-260.2" font-family="Helvetica,sans-Serif" font-size="11.00">unit</text>
<polygon fill="none" stroke="black" points="412,-252 412,-274 506,-274 506,-252 412,-252"/>
<text text-anchor="start" x="415" y="-260.2" font-family="Helvetica,sans-Serif" font-size="11.00">text[2147483647]</text>
<polygon fill="none" stroke="black" points="232,-230 232,-252 412,-252 412,-230 232,-230"/>
<text text-anchor="start" x="252" y="-238.2" font-family="Helvetica,sans-Serif" font-size="11.00">primary_data_source</text>
<polygon fill="none" stroke="black" points="412,-230 412,-252 506,-252 506,-230 412,-230"/>
<text text-anchor="start" x="415" y="-238.2" font-family="Helvetica,sans-Serif" font-size="11.00">text[2147483647]</text>
<polygon fill="none" stroke="black" points="232,-208 232,-230 412,-230 412,-208 232,-208"/>
<text text-anchor="start" x="252" y="-216.2" font-family="Helvetica,sans-Serif" font-size="11.00">notes</text>
<polygon fill="none" stroke="black" points="412,-208 412,-230 506,-230 506,-208 412,-208"/>
<text text-anchor="start" x="415" y="-216.2" font-family="Helvetica,sans-Serif" font-size="11.00">text[2147483647]</text>
<polygon fill="none" stroke="black" points="232,-186 232,-208 412,-208 412,-186 232,-186"/>
<text text-anchor="start" x="252" y="-194.2" font-family="Helvetica,sans-Serif" font-size="11.00">active</text>
<polygon fill="none" stroke="black" points="412,-186 412,-208 506,-208 506,-186 412,-186"/>
<text text-anchor="start" x="415" y="-194.2" font-family="Helvetica,sans-Serif" font-size="11.00">bool[1]</text>
<polygon fill="none" stroke="black" points="232,-164 232,-186 412,-186 412,-164 232,-164"/>
<image xlink:href="../../images/foreignKeys.png" width="11px" height="12px" preserveAspectRatio="xMinYMin meet" x="237" y="-181"/>
<text text-anchor="start" x="252" y="-172.2" font-family="Helvetica,sans-Serif" font-size="11.00">class_id</text>
<polygon fill="none" stroke="black" points="412,-164 412,-186 506,-186 506,-164 412,-164"/>
<text text-anchor="start" x="415" y="-172.2" font-family="Helvetica,sans-Serif" font-size="11.00">int4[10]</text>
<polygon fill="none" stroke="black" points="232,-142 232,-164 412,-164 412,-142 232,-142"/>
<image xlink:href="../../images/foreignKeys.png" width="11px" height="12px" preserveAspectRatio="xMinYMin meet" x="237" y="-159"/>
<text text-anchor="start" x="252" y="-150.2" font-family="Helvetica,sans-Serif" font-size="11.00">frequency_id</text>
<polygon fill="none" stroke="black" points="412,-142 412,-164 506,-164 506,-142 412,-142"/>
<text text-anchor="start" x="415" y="-150.2" font-family="Helvetica,sans-Serif" font-size="11.00">int4[10]</text>
<polygon fill="#ffffff" stroke="transparent" points="232,-124 232,-142 326,-142 326,-124 232,-124"/>
<polygon fill="none" stroke="black" points="232,-124 232,-142 326,-142 326,-124 232,-124"/>
<text text-anchor="start" x="235" y="-130.2" font-family="Helvetica,sans-Serif" font-size="11.00">&lt; 4</text>
<polygon fill="#ffffff" stroke="transparent" points="326,-124 326,-142 412,-142 412,-124 326,-124"/>
<polygon fill="none" stroke="black" points="326,-124 326,-142 412,-142 412,-124 326,-124"/>
<text text-anchor="start" x="402" y="-130.2" font-family="Helvetica,sans-Serif" font-size="11.00"> &#160;</text>
<polygon fill="#ffffff" stroke="transparent" points="412,-124 412,-142 506,-142 506,-124 412,-124"/>
<polygon fill="none" stroke="black" points="412,-124 412,-142 506,-142 506,-124 412,-124"/>
<text text-anchor="start" x="487" y="-130.2" font-family="Helvetica,sans-Serif" font-size="11.00">4 &gt;</text>
<polygon fill="none" stroke="black" stroke-width="2" points="231,-123 231,-451 507,-451 507,-123 231,-123"/>
</a>
</g>
</g>
<!-- indicator_categories -->
<g id="node2" class="node">
<title>indicator_categories</title>
<g id="a_node2"><a xlink:href="../../tables/indicator_categories.html" xlink:title="indicator_categories" target="_top">
<polygon fill="#ffffff" stroke="transparent" points="12,-265 12,-349 177,-349 177,-265 12,-265"/>
<polygon fill="#f5f5f5" stroke="transparent" points="12.5,-327 12.5,-349 177.5,-349 177.5,-327 12.5,-327"/>
<polygon fill="none" stroke="black" points="12.5,-327 12.5,-349 177.5,-349 177.5,-327 12.5,-327"/>
<text text-anchor="start" x="17.5" y="-336.2" font-family="Helvetica,sans-Serif" font-weight="bold" font-size="11.00">indicator_categories</text>
<text text-anchor="start" x="138.5" y="-335.2" font-family="Helvetica,sans-Serif" font-size="11.00">[table]</text>
<polygon fill="none" stroke="black" points="12.5,-305 12.5,-327 177.5,-327 177.5,-305 12.5,-305"/>
<image xlink:href="../../images/primaryKeys.png" width="11px" height="12px" preserveAspectRatio="xMinYMin meet" x="17.5" y="-322"/>
<text text-anchor="start" x="44.5" y="-313.2" font-family="Helvetica,sans-Serif" font-size="11.00">id</text>
<polygon fill="#ffffff" stroke="transparent" points="12.5,-283 12.5,-305 177.5,-305 177.5,-283 12.5,-283"/>
<polygon fill="none" stroke="black" points="12.5,-283 12.5,-305 177.5,-305 177.5,-283 12.5,-283"/>
<text text-anchor="start" x="44.5" y="-291.2" font-family="Helvetica,sans-Serif" font-size="11.00">name</text>
<polygon fill="#ffffff" stroke="transparent" points="12.5,-265 12.5,-283 83.5,-283 83.5,-265 12.5,-265"/>
<polygon fill="none" stroke="black" points="12.5,-265 12.5,-283 83.5,-283 83.5,-265 12.5,-265"/>
<text text-anchor="start" x="15.5" y="-271.2" font-family="Helvetica,sans-Serif" font-size="11.00"> &#160;</text>
<polygon fill="#ffffff" stroke="transparent" points="83.5,-265 83.5,-283 125.5,-283 125.5,-265 83.5,-265"/>
<polygon fill="none" stroke="black" points="83.5,-265 83.5,-283 125.5,-283 125.5,-265 83.5,-265"/>
<text text-anchor="start" x="115.5" y="-271.2" font-family="Helvetica,sans-Serif" font-size="11.00"> &#160;</text>
<polygon fill="#ffffff" stroke="transparent" points="125.5,-265 125.5,-283 177.5,-283 177.5,-265 125.5,-265"/>
<polygon fill="none" stroke="black" points="125.5,-265 125.5,-283 177.5,-283 177.5,-265 125.5,-265"/>
<text text-anchor="start" x="158.5" y="-271.2" font-family="Helvetica,sans-Serif" font-size="11.00">3 &gt;</text>
</a>
</g>
</g>
<!-- auto_calculated_indicators&#45;&gt;indicator_categories -->
<g id="edge1" class="edge">
<title>auto_calculated_indicators:w&#45;&gt;indicator_categories:e</title>
<path fill="none" stroke="black" d="M216.88,-346.99C203.06,-337.79 200.63,-316 178.5,-316"/>
<polygon fill="black" stroke="black" points="223.31,-348.81 230.02,-354.46 227.15,-349.91 231,-351 231,-351 231,-351 227.15,-349.91 231.98,-347.54 223.31,-348.81 223.31,-348.81"/>
<ellipse fill="none" stroke="black" cx="220.23" cy="-347.94" rx="3.2" ry="3.2"/>
</g>
<!-- indicator_classes -->
<g id="node3" class="node">
<title>indicator_classes</title>
<g id="a_node3"><a xlink:href="../../tables/indicator_classes.html" xlink:title="indicator_classes" target="_top">
<polygon fill="#ffffff" stroke="transparent" points="22,-142 22,-226 167,-226 167,-142 22,-142"/>
<polygon fill="#f5f5f5" stroke="transparent" points="22.5,-204 22.5,-226 167.5,-226 167.5,-204 22.5,-204"/>
<polygon fill="none" stroke="black" points="22.5,-204 22.5,-226 167.5,-226 167.5,-204 22.5,-204"/>
<text text-anchor="start" x="27.5" y="-213.2" font-family="Helvetica,sans-Serif" font-weight="bold" font-size="11.00">indicator_classes</text>
<text text-anchor="start" x="128.5" y="-212.2" font-family="Helvetica,sans-Serif" font-size="11.00">[table]</text>
<polygon fill="none" stroke="black" points="22.5,-182 22.5,-204 167.5,-204 167.5,-182 22.5,-182"/>
<image xlink:href="../../images/primaryKeys.png" width="11px" height="12px" preserveAspectRatio="xMinYMin meet" x="27.5" y="-199"/>
<text text-anchor="start" x="54.5" y="-190.2" font-family="Helvetica,sans-Serif" font-size="11.00">id</text>
<polygon fill="#ffffff" stroke="transparent" points="22.5,-160 22.5,-182 167.5,-182 167.5,-160 22.5,-160"/>
<polygon fill="none" stroke="black" points="22.5,-160 22.5,-182 167.5,-182 167.5,-160 22.5,-160"/>
<text text-anchor="start" x="54.5" y="-168.2" font-family="Helvetica,sans-Serif" font-size="11.00">name</text>
<polygon fill="#ffffff" stroke="transparent" points="22.5,-142 22.5,-160 83.5,-160 83.5,-142 22.5,-142"/>
<polygon fill="none" stroke="black" points="22.5,-142 22.5,-160 83.5,-160 83.5,-142 22.5,-142"/>
<text text-anchor="start" x="25.5" y="-148.2" font-family="Helvetica,sans-Serif" font-size="11.00"> &#160;</text>
<polygon fill="#ffffff" stroke="transparent" points="83.5,-142 83.5,-160 120.5,-160 120.5,-142 83.5,-142"/>
<polygon fill="none" stroke="black" points="83.5,-142 83.5,-160 120.5,-160 120.5,-142 83.5,-142"/>
<text text-anchor="start" x="110.5" y="-148.2" font-family="Helvetica,sans-Serif" font-size="11.00"> &#160;</text>
<polygon fill="#ffffff" stroke="transparent" points="120.5,-142 120.5,-160 167.5,-160 167.5,-142 120.5,-142"/>
<polygon fill="none" stroke="black" points="120.5,-142 120.5,-160 167.5,-160 167.5,-142 120.5,-142"/>
<text text-anchor="start" x="148.5" y="-148.2" font-family="Helvetica,sans-Serif" font-size="11.00">3 &gt;</text>
</a>
</g>
</g>
<!-- auto_calculated_indicators&#45;&gt;indicator_classes -->
<g id="edge2" class="edge">
<title>auto_calculated_indicators:w&#45;&gt;indicator_classes:e</title>
<path fill="none" stroke="black" d="M216.47,-176.79C199.34,-181.34 191.76,-193 168.5,-193"/>
<polygon fill="black" stroke="black" points="223.06,-175.98 231.44,-178.57 227.03,-175.49 231,-175 231,-175 231,-175 227.03,-175.49 230.56,-171.43 223.06,-175.98 223.06,-175.98"/>
<ellipse fill="none" stroke="black" cx="219.88" cy="-176.37" rx="3.2" ry="3.2"/>
</g>
<!-- indicator_frequencies -->
<g id="node4" class="node">
<title>indicator_frequencies</title>
<g id="a_node4"><a xlink:href="../../tables/indicator_frequencies.html" xlink:title="indicator_frequencies" target="_top">
<polygon fill="#ffffff" stroke="transparent" points="8,-37 8,-121 181,-121 181,-37 8,-37"/>
<polygon fill="#f5f5f5" stroke="transparent" points="8.5,-99 8.5,-121 181.5,-121 181.5,-99 8.5,-99"/>
<polygon fill="none" stroke="black" points="8.5,-99 8.5,-121 181.5,-121 181.5,-99 8.5,-99"/>
<text text-anchor="start" x="13.5" y="-108.2" font-family="Helvetica,sans-Serif" font-weight="bold" font-size="11.00">indicator_frequencies</text>
<text text-anchor="start" x="142.5" y="-107.2" font-family="Helvetica,sans-Serif" font-size="11.00">[table]</text>
<polygon fill="none" stroke="black" points="8.5,-77 8.5,-99 181.5,-99 181.5,-77 8.5,-77"/>
<image xlink:href="../../images/primaryKeys.png" width="11px" height="12px" preserveAspectRatio="xMinYMin meet" x="13.5" y="-94"/>
<text text-anchor="start" x="40.5" y="-85.2" font-family="Helvetica,sans-Serif" font-size="11.00">id</text>
<polygon fill="#ffffff" stroke="transparent" points="8.5,-55 8.5,-77 181.5,-77 181.5,-55 8.5,-55"/>
<polygon fill="none" stroke="black" points="8.5,-55 8.5,-77 181.5,-77 181.5,-55 8.5,-55"/>
<text text-anchor="start" x="40.5" y="-63.2" font-family="Helvetica,sans-Serif" font-size="11.00">name</text>
<polygon fill="#ffffff" stroke="transparent" points="8.5,-37 8.5,-55 83.5,-55 83.5,-37 8.5,-37"/>
<polygon fill="none" stroke="black" points="8.5,-37 8.5,-55 83.5,-55 83.5,-37 8.5,-37"/>
<text text-anchor="start" x="11.5" y="-43.2" font-family="Helvetica,sans-Serif" font-size="11.00"> &#160;</text>
<polygon fill="#ffffff" stroke="transparent" points="83.5,-37 83.5,-55 127.5,-55 127.5,-37 83.5,-37"/>
<polygon fill="none" stroke="black" points="83.5,-37 83.5,-55 127.5,-55 127.5,-37 83.5,-37"/>
<text text-anchor="start" x="117.5" y="-43.2" font-family="Helvetica,sans-Serif" font-size="11.00"> &#160;</text>
<polygon fill="#ffffff" stroke="transparent" points="127.5,-37 127.5,-55 181.5,-55 181.5,-37 127.5,-37"/>
<polygon fill="none" stroke="black" points="127.5,-37 127.5,-55 181.5,-55 181.5,-37 127.5,-37"/>
<text text-anchor="start" x="162.5" y="-43.2" font-family="Helvetica,sans-Serif" font-size="11.00">3 &gt;</text>
</a>
</g>
</g>
<!-- auto_calculated_indicators&#45;&gt;indicator_frequencies -->
<g id="edge3" class="edge">
<title>auto_calculated_indicators:w&#45;&gt;indicator_frequencies:e</title>
<path fill="none" stroke="black" d="M217.09,-147.9C201.3,-132.58 212.35,-88 182.5,-88"/>
<polygon fill="black" stroke="black" points="223.49,-150.25 229.76,-156.38 227.24,-151.62 231,-153 231,-153 231,-153 227.24,-151.62 232.24,-149.62 223.49,-150.25 223.49,-150.25"/>
<ellipse fill="none" stroke="black" cx="220.48" cy="-149.14" rx="3.2" ry="3.2"/>
</g>
<!-- indicator_levels -->
<g id="node5" class="node">
<title>indicator_levels</title>
<g id="a_node5"><a xlink:href="../../tables/indicator_levels.html" xlink:title="indicator_levels" target="_top">
<polygon fill="#ffffff" stroke="transparent" points="26,-370 26,-454 163,-454 163,-370 26,-370"/>
<polygon fill="#f5f5f5" stroke="transparent" points="26.5,-432 26.5,-454 163.5,-454 163.5,-432 26.5,-432"/>
<polygon fill="none" stroke="black" points="26.5,-432 26.5,-454 163.5,-454 163.5,-432 26.5,-432"/>
<text text-anchor="start" x="31.5" y="-441.2" font-family="Helvetica,sans-Serif" font-weight="bold" font-size="11.00">indicator_levels</text>
<text text-anchor="start" x="124.5" y="-440.2" font-family="Helvetica,sans-Serif" font-size="11.00">[table]</text>
<polygon fill="none" stroke="black" points="26.5,-410 26.5,-432 163.5,-432 163.5,-410 26.5,-410"/>
<image xlink:href="../../images/primaryKeys.png" width="11px" height="12px" preserveAspectRatio="xMinYMin meet" x="31.5" y="-427"/>
<text text-anchor="start" x="58.5" y="-418.2" font-family="Helvetica,sans-Serif" font-size="11.00">id</text>
<polygon fill="#ffffff" stroke="transparent" points="26.5,-388 26.5,-410 163.5,-410 163.5,-388 26.5,-388"/>
<polygon fill="none" stroke="black" points="26.5,-388 26.5,-410 163.5,-410 163.5,-388 26.5,-388"/>
<text text-anchor="start" x="58.5" y="-396.2" font-family="Helvetica,sans-Serif" font-size="11.00">name</text>
<polygon fill="#ffffff" stroke="transparent" points="26.5,-370 26.5,-388 83.5,-388 83.5,-370 26.5,-370"/>
<polygon fill="none" stroke="black" points="26.5,-370 26.5,-388 83.5,-388 83.5,-370 26.5,-370"/>
<text text-anchor="start" x="29.5" y="-376.2" font-family="Helvetica,sans-Serif" font-size="11.00"> &#160;</text>
<polygon fill="#ffffff" stroke="transparent" points="83.5,-370 83.5,-388 118.5,-388 118.5,-370 83.5,-370"/>
<polygon fill="none" stroke="black" points="83.5,-370 83.5,-388 118.5,-388 118.5,-370 83.5,-370"/>
<text text-anchor="start" x="108.5" y="-376.2" font-family="Helvetica,sans-Serif" font-size="11.00"> &#160;</text>
<polygon fill="#ffffff" stroke="transparent" points="118.5,-370 118.5,-388 163.5,-388 163.5,-370 118.5,-370"/>
<polygon fill="none" stroke="black" points="118.5,-370 118.5,-388 163.5,-388 163.5,-370 118.5,-370"/>
<text text-anchor="start" x="144.5" y="-376.2" font-family="Helvetica,sans-Serif" font-size="11.00">3 &gt;</text>
</a>
</g>
</g>
<!-- auto_calculated_indicators&#45;&gt;indicator_levels -->
<g id="edge4" class="edge">
<title>auto_calculated_indicators:w&#45;&gt;indicator_levels:e</title>
<path fill="none" stroke="black" d="M216.73,-376.15C195.5,-386.83 195.26,-421 164.5,-421"/>
<polygon fill="black" stroke="black" points="223.19,-374.72 231.78,-376.52 227.09,-373.86 231,-373 231,-373 231,-373 227.09,-373.86 230.22,-369.48 223.19,-374.72 223.19,-374.72"/>
<ellipse fill="none" stroke="black" cx="220.06" cy="-375.41" rx="3.2" ry="3.2"/>
</g>
<!-- report_auto_calculated_indicator_targets -->
<g id="node6" class="node">
<title>report_auto_calculated_indicator_targets</title>
<g id="a_node6"><a xlink:href="../../tables/report_auto_calculated_indicator_targets.html" xlink:title="report_auto_calculated_indicator_targets" target="_top">
<polygon fill="#ffffff" stroke="transparent" points="590,-555 590,-679 878,-679 878,-555 590,-555"/>
<polygon fill="#f5f5f5" stroke="transparent" points="590,-657 590,-679 878,-679 878,-657 590,-657"/>
<polygon fill="none" stroke="black" points="590,-657 590,-679 878,-679 878,-657 590,-657"/>
<text text-anchor="start" x="595" y="-666.2" font-family="Helvetica,sans-Serif" font-weight="bold" font-size="11.00">report_auto_calculated_indicator_targets</text>
<text text-anchor="start" x="839" y="-665.2" font-family="Helvetica,sans-Serif" font-size="11.00">[table]</text>
<polygon fill="none" stroke="black" points="590,-635 590,-657 878,-657 878,-635 590,-635"/>
<image xlink:href="../../images/primaryKeys.png" width="11px" height="12px" preserveAspectRatio="xMinYMin meet" x="595" y="-652"/>
<text text-anchor="start" x="622" y="-643.2" font-family="Helvetica,sans-Serif" font-size="11.00">project_id</text>
<polygon fill="none" stroke="black" points="590,-613 590,-635 878,-635 878,-613 590,-613"/>
<image xlink:href="../../images/primaryKeys.png" width="11px" height="12px" preserveAspectRatio="xMinYMin meet" x="595" y="-630"/>
<text text-anchor="start" x="622" y="-621.2" font-family="Helvetica,sans-Serif" font-size="11.00">auto_calculated_indicator_id</text>
<polygon fill="none" stroke="black" points="590,-591 590,-613 878,-613 878,-591 590,-591"/>
<image xlink:href="../../images/primaryKeys.png" width="11px" height="12px" preserveAspectRatio="xMinYMin meet" x="595" y="-608"/>
<text text-anchor="start" x="622" y="-599.2" font-family="Helvetica,sans-Serif" font-size="11.00">year</text>
<polygon fill="none" stroke="black" points="590,-573 590,-591 878,-591 878,-573 590,-573"/>
<text text-anchor="start" x="593" y="-579.2" font-family="Helvetica,sans-Serif" font-size="11.00">...</text>
<polygon fill="#ffffff" stroke="transparent" points="590,-555 590,-573 732,-573 732,-555 590,-555"/>
<polygon fill="none" stroke="black" points="590,-555 590,-573 732,-573 732,-555 590,-555"/>
<text text-anchor="start" x="593" y="-561.2" font-family="Helvetica,sans-Serif" font-size="11.00">&lt; 2</text>
<polygon fill="#ffffff" stroke="transparent" points="732,-555 732,-573 805,-573 805,-555 732,-555"/>
<polygon fill="none" stroke="black" points="732,-555 732,-573 805,-573 805,-555 732,-555"/>
<text text-anchor="start" x="795" y="-561.2" font-family="Helvetica,sans-Serif" font-size="11.00"> &#160;</text>
<polygon fill="#ffffff" stroke="transparent" points="805,-555 805,-573 878,-573 878,-555 805,-555"/>
<polygon fill="none" stroke="black" points="805,-555 805,-573 878,-573 878,-555 805,-555"/>
<text text-anchor="start" x="868" y="-561.2" font-family="Helvetica,sans-Serif" font-size="11.00"> &#160;</text>
</a>
</g>
</g>
<!-- report_auto_calculated_indicator_targets&#45;&gt;auto_calculated_indicators -->
<g id="edge5" class="edge">
<title>report_auto_calculated_indicator_targets:w&#45;&gt;auto_calculated_indicators:e</title>
<path fill="none" stroke="black" d="M574.76,-621.34C553.28,-611.48 561.83,-575.96 549,-545 526.08,-489.69 566.87,-417 507,-417"/>
<polygon fill="black" stroke="black" points="581.14,-622.53 588.34,-627.54 585.07,-623.27 589,-624 589,-624 589,-624 585.07,-623.27 589.66,-620.46 581.14,-622.53 581.14,-622.53"/>
<ellipse fill="none" stroke="black" cx="577.99" cy="-621.94" rx="3.2" ry="3.2"/>
</g>
<!-- report_auto_calculated_indicators -->
<g id="node7" class="node">
<title>report_auto_calculated_indicators</title>
<g id="a_node7"><a xlink:href="../../tables/report_auto_calculated_indicators.html" xlink:title="report_auto_calculated_indicators" target="_top">
<polygon fill="#ffffff" stroke="transparent" points="610.5,-410 610.5,-534 857.5,-534 857.5,-410 610.5,-410"/>
<polygon fill="#f5f5f5" stroke="transparent" points="611,-512 611,-534 858,-534 858,-512 611,-512"/>
<polygon fill="none" stroke="black" points="611,-512 611,-534 858,-534 858,-512 611,-512"/>
<text text-anchor="start" x="616" y="-521.2" font-family="Helvetica,sans-Serif" font-weight="bold" font-size="11.00">report_auto_calculated_indicators</text>
<text text-anchor="start" x="819" y="-520.2" font-family="Helvetica,sans-Serif" font-size="11.00">[table]</text>
<polygon fill="none" stroke="black" points="611,-490 611,-512 858,-512 858,-490 611,-490"/>
<image xlink:href="../../images/primaryKeys.png" width="11px" height="12px" preserveAspectRatio="xMinYMin meet" x="616" y="-507"/>
<text text-anchor="start" x="643" y="-498.2" font-family="Helvetica,sans-Serif" font-size="11.00">report_id</text>
<polygon fill="none" stroke="black" points="611,-468 611,-490 858,-490 858,-468 611,-468"/>
<image xlink:href="../../images/primaryKeys.png" width="11px" height="12px" preserveAspectRatio="xMinYMin meet" x="616" y="-485"/>
<text text-anchor="start" x="643" y="-476.2" font-family="Helvetica,sans-Serif" font-size="11.00">auto_calculated_indicator_id</text>
<polygon fill="none" stroke="black" points="611,-446 611,-468 858,-468 858,-446 611,-446"/>
<image xlink:href="../../images/foreignKeys.png" width="11px" height="12px" preserveAspectRatio="xMinYMin meet" x="616" y="-463"/>
<text text-anchor="start" x="643" y="-454.2" font-family="Helvetica,sans-Serif" font-size="11.00">status_id</text>
<polygon fill="none" stroke="black" points="611,-428 611,-446 858,-446 858,-428 611,-428"/>
<text text-anchor="start" x="614" y="-434.2" font-family="Helvetica,sans-Serif" font-size="11.00">...</text>
<polygon fill="#ffffff" stroke="transparent" points="611,-410 611,-428 732,-428 732,-410 611,-410"/>
<polygon fill="none" stroke="black" points="611,-410 611,-428 732,-428 732,-410 611,-410"/>
<text text-anchor="start" x="614" y="-416.2" font-family="Helvetica,sans-Serif" font-size="11.00">&lt; 3</text>
<polygon fill="#ffffff" stroke="transparent" points="732,-410 732,-428 795,-428 795,-410 732,-410"/>
<polygon fill="none" stroke="black" points="732,-410 732,-428 795,-428 795,-410 732,-410"/>
<text text-anchor="start" x="785" y="-416.2" font-family="Helvetica,sans-Serif" font-size="11.00"> &#160;</text>
<polygon fill="#ffffff" stroke="transparent" points="795,-410 795,-428 858,-428 858,-410 795,-410"/>
<polygon fill="none" stroke="black" points="795,-410 795,-428 858,-428 858,-410 795,-410"/>
<text text-anchor="start" x="848" y="-416.2" font-family="Helvetica,sans-Serif" font-size="11.00"> &#160;</text>
</a>
</g>
</g>
<!-- report_auto_calculated_indicators&#45;&gt;auto_calculated_indicators -->
<g id="edge6" class="edge">
<title>report_auto_calculated_indicators:w&#45;&gt;auto_calculated_indicators:e</title>
<path fill="none" stroke="black" d="M595.63,-477.28C556.77,-467.26 555.11,-417 507,-417"/>
<polygon fill="black" stroke="black" points="602.06,-478.05 609.57,-482.57 606.03,-478.52 610,-479 610,-479 610,-479 606.03,-478.52 610.43,-475.43 602.06,-478.05 602.06,-478.05"/>
<ellipse fill="none" stroke="black" cx="598.88" cy="-477.67" rx="3.2" ry="3.2"/>
</g>
<!-- funder.published_auto_calculated_indicator_targets -->
<g id="node8" class="node">
<title>funder.published_auto_calculated_indicator_targets</title>
<g id="a_node8"><a xlink:href="../../../funder/tables/published_auto_calculated_indic_3b9a1510.html" xlink:title="funder.published_auto_calculated_indicator_targets" target="_top">
<polygon fill="#ffffff" stroke="transparent" points="557.5,-309 557.5,-389 910.5,-389 910.5,-309 557.5,-309"/>
<polygon fill="#f5f5f5" stroke="transparent" points="558,-367 558,-389 911,-389 911,-367 558,-367"/>
<polygon fill="none" stroke="black" points="558,-367 558,-389 911,-389 911,-367 558,-367"/>
<text text-anchor="start" x="563" y="-376.2" font-family="Helvetica,sans-Serif" font-weight="bold" font-size="11.00">funder.published_auto_calculated_indicator_targets</text>
<text text-anchor="start" x="872" y="-375.2" font-family="Helvetica,sans-Serif" font-size="11.00">[table]</text>
<polygon fill="none" stroke="black" points="558,-345 558,-367 911,-367 911,-345 558,-345"/>
<image xlink:href="../../images/foreignKeys.png" width="11px" height="12px" preserveAspectRatio="xMinYMin meet" x="563" y="-362"/>
<text text-anchor="start" x="612" y="-353.2" font-family="Helvetica,sans-Serif" font-size="11.00">auto_calculated_indicator_id</text>
<polygon fill="none" stroke="black" points="558,-327 558,-345 911,-345 911,-327 558,-327"/>
<text text-anchor="start" x="561" y="-333.2" font-family="Helvetica,sans-Serif" font-size="11.00">...</text>
<polygon fill="#ffffff" stroke="transparent" points="558,-309 558,-327 719,-327 719,-309 558,-309"/>
<polygon fill="none" stroke="black" points="558,-309 558,-327 719,-327 719,-309 558,-309"/>
<text text-anchor="start" x="561" y="-315.2" font-family="Helvetica,sans-Serif" font-size="11.00">&lt; 1</text>
<polygon fill="#ffffff" stroke="transparent" points="719,-309 719,-327 828,-327 828,-309 719,-309"/>
<polygon fill="none" stroke="black" points="719,-309 719,-327 828,-327 828,-309 719,-309"/>
<text text-anchor="start" x="791" y="-315.2" font-family="Helvetica,sans-Serif" font-size="11.00">0 rows</text>
<polygon fill="#ffffff" stroke="transparent" points="828,-309 828,-327 911,-327 911,-309 828,-309"/>
<polygon fill="none" stroke="black" points="828,-309 828,-327 911,-327 911,-309 828,-309"/>
<text text-anchor="start" x="901" y="-315.2" font-family="Helvetica,sans-Serif" font-size="11.00"> &#160;</text>
</a>
</g>
</g>
<!-- funder.published_auto_calculated_indicator_targets&#45;&gt;auto_calculated_indicators -->
<g id="edge7" class="edge">
<title>funder.published_auto_calculated_indicator_targets:w&#45;&gt;auto_calculated_indicators:e</title>
<path fill="none" stroke="black" d="M543.25,-360.79C527.23,-375.17 536.03,-417 507,-417"/>
<polygon fill="black" stroke="black" points="549.44,-358.63 558.18,-359.4 553.22,-357.32 557,-356 557,-356 557,-356 553.22,-357.32 555.82,-352.6 549.44,-358.63 549.44,-358.63"/>
<ellipse fill="none" stroke="black" cx="546.42" cy="-359.68" rx="3.2" ry="3.2"/>
</g>
<!-- funder.published_report_auto_calculated_indicators -->
<g id="node9" class="node">
<title>funder.published_report_auto_calculated_indicators</title>
<g id="a_node9"><a xlink:href="../../../funder/tables/published_report_auto_calculate_964cdeaf.html" xlink:title="funder.published_report_auto_calculated_indicators" target="_top">
<polygon fill="#ffffff" stroke="transparent" points="557,-186 557,-288 911,-288 911,-186 557,-186"/>
<polygon fill="#f5f5f5" stroke="transparent" points="557,-266 557,-288 911,-288 911,-266 557,-266"/>
<polygon fill="none" stroke="black" points="557,-266 557,-288 911,-288 911,-266 557,-266"/>
<text text-anchor="start" x="562" y="-275.2" font-family="Helvetica,sans-Serif" font-weight="bold" font-size="11.00">funder.published_report_auto_calculated_indicators</text>
<text text-anchor="start" x="872" y="-274.2" font-family="Helvetica,sans-Serif" font-size="11.00">[table]</text>
<polygon fill="none" stroke="black" points="557,-244 557,-266 911,-266 911,-244 557,-244"/>
<image xlink:href="../../images/foreignKeys.png" width="11px" height="12px" preserveAspectRatio="xMinYMin meet" x="562" y="-261"/>
<text text-anchor="start" x="611" y="-252.2" font-family="Helvetica,sans-Serif" font-size="11.00">auto_calculated_indicator_id</text>
<polygon fill="none" stroke="black" points="557,-222 557,-244 911,-244 911,-222 557,-222"/>
<image xlink:href="../../images/foreignKeys.png" width="11px" height="12px" preserveAspectRatio="xMinYMin meet" x="562" y="-239"/>
<text text-anchor="start" x="611" y="-230.2" font-family="Helvetica,sans-Serif" font-size="11.00">status_id</text>
<polygon fill="none" stroke="black" points="557,-204 557,-222 911,-222 911,-204 557,-204"/>
<text text-anchor="start" x="560" y="-210.2" font-family="Helvetica,sans-Serif" font-size="11.00">...</text>
<polygon fill="#ffffff" stroke="transparent" points="557,-186 557,-204 718,-204 718,-186 557,-186"/>
<polygon fill="none" stroke="black" points="557,-186 557,-204 718,-204 718,-186 557,-186"/>
<text text-anchor="start" x="560" y="-192.2" font-family="Helvetica,sans-Serif" font-size="11.00">&lt; 2</text>
<polygon fill="#ffffff" stroke="transparent" points="718,-186 718,-204 828,-204 828,-186 718,-186"/>
<polygon fill="none" stroke="black" points="718,-186 718,-204 828,-204 828,-186 718,-186"/>
<text text-anchor="start" x="791" y="-192.2" font-family="Helvetica,sans-Serif" font-size="11.00">0 rows</text>
<polygon fill="#ffffff" stroke="transparent" points="828,-186 828,-204 911,-204 911,-186 828,-186"/>
<polygon fill="none" stroke="black" points="828,-186 828,-204 911,-204 911,-186 828,-186"/>
<text text-anchor="start" x="901" y="-192.2" font-family="Helvetica,sans-Serif" font-size="11.00"> &#160;</text>
</a>
</g>
</g>
<!-- funder.published_report_auto_calculated_indicators&#45;&gt;auto_calculated_indicators -->
<g id="edge8" class="edge">
<title>funder.published_report_auto_calculated_indicators:w&#45;&gt;auto_calculated_indicators:e</title>
<path fill="none" stroke="black" d="M541.73,-257.68C495.21,-278.74 576.49,-417 507,-417"/>
<polygon fill="black" stroke="black" points="548.14,-256.47 556.66,-258.54 552.07,-255.74 556,-255 556,-255 556,-255 552.07,-255.74 555.34,-251.46 548.14,-256.47 548.14,-256.47"/>
<ellipse fill="none" stroke="black" cx="544.99" cy="-257.06" rx="3.2" ry="3.2"/>
</g>
</g>
</svg>
