<?xml version="1.0" encoding="UTF-8" standalone="no"?>
<!DOCTYPE svg PUBLIC "-//W3C//DTD SVG 1.1//EN"
 "http://www.w3.org/Graphics/SVG/1.1/DTD/svg11.dtd">
<!-- Generated by graphviz version 2.47.1 (20210515.0534)
 -->
<!-- Title: oneDegreeRelationshipsDiagram Pages: 1 -->
<svg width="488pt" height="318pt"
 viewBox="0.00 0.00 488.00 318.00" xmlns="http://www.w3.org/2000/svg" xmlns:xlink="http://www.w3.org/1999/xlink">
<g id="graph0" class="graph" transform="scale(1 1) rotate(0) translate(4 314)">
<title>oneDegreeRelationshipsDiagram</title>
<polygon fill="#ffffff" stroke="transparent" points="-4,4 -4,-314 484,-314 484,4 -4,4"/>
<text text-anchor="middle" x="73.5" y="-7.2" font-family="Helvetica,sans-Serif" font-size="11.00">Generated by SchemaSpy</text>
<!-- deliverable_project_due_dates -->
<g id="node1" class="node">
<title>deliverable_project_due_dates</title>
<g id="a_node1"><a xlink:href="../../tables/deliverable_project_due_dates.html" xlink:title="deliverable_project_due_dates" target="_top">
<polygon fill="#ffffff" stroke="transparent" points="218,-111 218,-221 472,-221 472,-111 218,-111"/>
<polygon fill="#f5f5f5" stroke="transparent" points="220,-197 220,-219 470,-219 470,-197 220,-197"/>
<polygon fill="none" stroke="black" points="220,-197 220,-219 470,-219 470,-197 220,-197"/>
<text text-anchor="start" x="225" y="-206.2" font-family="Helvetica,sans-Serif" font-weight="bold" font-size="11.00">deliverable_project_due_dates</text>
<text text-anchor="start" x="431" y="-205.2" font-family="Helvetica,sans-Serif" font-size="11.00">[table]</text>
<polygon fill="none" stroke="black" points="220,-175 220,-197 421,-197 421,-175 220,-175"/>
<image xlink:href="../../images/primaryKeys.png" width="11px" height="12px" preserveAspectRatio="xMinYMin meet" x="225" y="-192"/>
<text text-anchor="start" x="240" y="-183.2" font-family="Helvetica,sans-Serif" font-size="11.00">deliverable_id</text>
<polygon fill="none" stroke="black" points="421,-175 421,-197 470,-197 470,-175 421,-175"/>
<text text-anchor="start" x="424" y="-183.2" font-family="Helvetica,sans-Serif" font-size="11.00">int8[19]</text>
<polygon fill="none" stroke="black" points="220,-153 220,-175 421,-175 421,-153 220,-153"/>
<image xlink:href="../../images/primaryKeys.png" width="11px" height="12px" preserveAspectRatio="xMinYMin meet" x="225" y="-170"/>
<text text-anchor="start" x="240" y="-161.2" font-family="Helvetica,sans-Serif" font-size="11.00">project_id</text>
<polygon fill="none" stroke="black" points="421,-153 421,-175 470,-175 470,-153 421,-153"/>
<text text-anchor="start" x="424" y="-161.2" font-family="Helvetica,sans-Serif" font-size="11.00">int8[19]</text>
<polygon fill="none" stroke="black" points="220,-131 220,-153 421,-153 421,-131 220,-131"/>
<text text-anchor="start" x="240" y="-139.2" font-family="Helvetica,sans-Serif" font-size="11.00">due_date</text>
<polygon fill="none" stroke="black" points="421,-131 421,-153 470,-153 470,-131 421,-131"/>
<text text-anchor="start" x="424" y="-139.2" font-family="Helvetica,sans-Serif" font-size="11.00">date[13]</text>
<polygon fill="#ffffff" stroke="transparent" points="220,-113 220,-131 325,-131 325,-113 220,-113"/>
<polygon fill="none" stroke="black" points="220,-113 220,-131 325,-131 325,-113 220,-113"/>
<text text-anchor="start" x="223" y="-119.2" font-family="Helvetica,sans-Serif" font-size="11.00">&lt; 2</text>
<polygon fill="#ffffff" stroke="transparent" points="325,-113 325,-131 421,-131 421,-113 325,-113"/>
<polygon fill="none" stroke="black" points="325,-113 325,-131 421,-131 421,-113 325,-113"/>
<text text-anchor="start" x="411" y="-119.2" font-family="Helvetica,sans-Serif" font-size="11.00"> &#160;</text>
<polygon fill="#ffffff" stroke="transparent" points="421,-113 421,-131 470,-131 470,-113 421,-113"/>
<polygon fill="none" stroke="black" points="421,-113 421,-131 470,-131 470,-113 421,-113"/>
<text text-anchor="start" x="451" y="-119.2" font-family="Helvetica,sans-Serif" font-size="11.00">0 &gt;</text>
<polygon fill="none" stroke="black" stroke-width="2" points="219,-112 219,-220 471,-220 471,-112 219,-112"/>
</a>
</g>
</g>
<!-- deliverables -->
<g id="node2" class="node">
<title>deliverables</title>
<g id="a_node2"><a xlink:href="../../tables/deliverables.html" xlink:title="deliverables" target="_top">
<polygon fill="#ffffff" stroke="transparent" points="8,-138 8,-306 169,-306 169,-138 8,-138"/>
<polygon fill="#f5f5f5" stroke="transparent" points="8.5,-284 8.5,-306 169.5,-306 169.5,-284 8.5,-284"/>
<polygon fill="none" stroke="black" points="8.5,-284 8.5,-306 169.5,-306 169.5,-284 8.5,-284"/>
<text text-anchor="start" x="13.5" y="-293.2" font-family="Helvetica,sans-Serif" font-weight="bold" font-size="11.00">deliverables</text>
<text text-anchor="start" x="130.5" y="-292.2" font-family="Helvetica,sans-Serif" font-size="11.00">[table]</text>
<polygon fill="none" stroke="black" points="8.5,-262 8.5,-284 169.5,-284 169.5,-262 8.5,-262"/>
<image xlink:href="../../images/primaryKeys.png" width="11px" height="12px" preserveAspectRatio="xMinYMin meet" x="13.5" y="-279"/>
<text text-anchor="start" x="28.5" y="-270.2" font-family="Helvetica,sans-Serif" font-size="11.00">id</text>
<polygon fill="none" stroke="black" points="8.5,-240 8.5,-262 169.5,-262 169.5,-240 8.5,-240"/>
<image xlink:href="../../images/foreignKeys.png" width="11px" height="12px" preserveAspectRatio="xMinYMin meet" x="13.5" y="-257"/>
<text text-anchor="start" x="28.5" y="-248.2" font-family="Helvetica,sans-Serif" font-size="11.00">deliverable_category_id</text>
<polygon fill="#ffffff" stroke="transparent" points="8.5,-218 8.5,-240 169.5,-240 169.5,-218 8.5,-218"/>
<polygon fill="none" stroke="black" points="8.5,-218 8.5,-240 169.5,-240 169.5,-218 8.5,-218"/>
<image xlink:href="../../images/foreignKeys.png" width="11px" height="12px" preserveAspectRatio="xMinYMin meet" x="13.5" y="-235"/>
<text text-anchor="start" x="28.5" y="-226.2" font-family="Helvetica,sans-Serif" font-size="11.00">deliverable_type_id</text>
<polygon fill="#ffffff" stroke="transparent" points="8.5,-196 8.5,-218 169.5,-218 169.5,-196 8.5,-196"/>
<polygon fill="none" stroke="black" points="8.5,-196 8.5,-218 169.5,-218 169.5,-196 8.5,-196"/>
<image xlink:href="../../images/foreignKeys.png" width="11px" height="12px" preserveAspectRatio="xMinYMin meet" x="13.5" y="-213"/>
<text text-anchor="start" x="28.5" y="-204.2" font-family="Helvetica,sans-Serif" font-size="11.00">module_id</text>
<polygon fill="#ffffff" stroke="transparent" points="8.5,-174 8.5,-196 169.5,-196 169.5,-174 8.5,-174"/>
<polygon fill="none" stroke="black" points="8.5,-174 8.5,-196 169.5,-196 169.5,-174 8.5,-174"/>
<text text-anchor="start" x="28.5" y="-182.2" font-family="Helvetica,sans-Serif" font-size="11.00">position</text>
<polygon fill="none" stroke="black" points="8.5,-156 8.5,-174 169.5,-174 169.5,-156 8.5,-156"/>
<text text-anchor="start" x="11.5" y="-162.2" font-family="Helvetica,sans-Serif" font-size="11.00">...</text>
<polygon fill="#ffffff" stroke="transparent" points="8.5,-138 8.5,-156 82.5,-156 82.5,-138 8.5,-138"/>
<polygon fill="none" stroke="black" points="8.5,-138 8.5,-156 82.5,-156 82.5,-138 8.5,-138"/>
<text text-anchor="start" x="11.5" y="-144.2" font-family="Helvetica,sans-Serif" font-size="11.00">&lt; 3</text>
<polygon fill="#ffffff" stroke="transparent" points="82.5,-138 82.5,-156 121.5,-156 121.5,-138 82.5,-138"/>
<polygon fill="none" stroke="black" points="82.5,-138 82.5,-156 121.5,-156 121.5,-138 82.5,-138"/>
<text text-anchor="start" x="111.5" y="-144.2" font-family="Helvetica,sans-Serif" font-size="11.00"> &#160;</text>
<polygon fill="#ffffff" stroke="transparent" points="121.5,-138 121.5,-156 169.5,-156 169.5,-138 121.5,-138"/>
<polygon fill="none" stroke="black" points="121.5,-138 121.5,-156 169.5,-156 169.5,-138 121.5,-138"/>
<text text-anchor="start" x="150.5" y="-144.2" font-family="Helvetica,sans-Serif" font-size="11.00">6 &gt;</text>
</a>
</g>
</g>
<!-- deliverable_project_due_dates&#45;&gt;deliverables -->
<g id="edge1" class="edge">
<title>deliverable_project_due_dates:w&#45;&gt;deliverables:e</title>
<path fill="none" stroke="black" d="M205.14,-190.43C184.1,-208.16 208.72,-273 170.5,-273"/>
<polygon fill="black" stroke="black" points="211.38,-188.44 220.1,-189.43 215.19,-187.22 219,-186 219,-186 219,-186 215.19,-187.22 217.9,-182.57 211.38,-188.44 211.38,-188.44"/>
<ellipse fill="none" stroke="black" cx="208.33" cy="-189.41" rx="3.2" ry="3.2"/>
</g>
<!-- public.projects -->
<g id="node3" class="node">
<title>public.projects</title>
<g id="a_node3"><a xlink:href="../../../public/tables/projects.html" xlink:title="public.projects" target="_top">
<polygon fill="#ffffff" stroke="transparent" points="22.5,-37 22.5,-117 154.5,-117 154.5,-37 22.5,-37"/>
<polygon fill="#f5f5f5" stroke="transparent" points="22.5,-95 22.5,-117 154.5,-117 154.5,-95 22.5,-95"/>
<polygon fill="none" stroke="black" points="22.5,-95 22.5,-117 154.5,-117 154.5,-95 22.5,-95"/>
<text text-anchor="start" x="27.5" y="-104.2" font-family="Helvetica,sans-Serif" font-weight="bold" font-size="11.00">public.projects</text>
<text text-anchor="start" x="115.5" y="-103.2" font-family="Helvetica,sans-Serif" font-size="11.00">[table]</text>
<polygon fill="none" stroke="black" points="22.5,-73 22.5,-95 154.5,-95 154.5,-73 22.5,-73"/>
<image xlink:href="../../images/foreignKeys.png" width="11px" height="12px" preserveAspectRatio="xMinYMin meet" x="27.5" y="-90"/>
<text text-anchor="start" x="52.5" y="-81.2" font-family="Helvetica,sans-Serif" font-size="11.00">participant_id</text>
<polygon fill="none" stroke="black" points="22.5,-55 22.5,-73 154.5,-73 154.5,-55 22.5,-55"/>
<text text-anchor="start" x="25.5" y="-61.2" font-family="Helvetica,sans-Serif" font-size="11.00">...</text>
<polygon fill="#ffffff" stroke="transparent" points="22.5,-37 22.5,-55 65.5,-55 65.5,-37 22.5,-37"/>
<polygon fill="none" stroke="black" points="22.5,-37 22.5,-55 65.5,-55 65.5,-37 22.5,-37"/>
<text text-anchor="start" x="25.5" y="-43.2" font-family="Helvetica,sans-Serif" font-size="11.00">&lt; 1</text>
<polygon fill="#ffffff" stroke="transparent" points="65.5,-37 65.5,-55 115.5,-55 115.5,-37 65.5,-37"/>
<polygon fill="none" stroke="black" points="65.5,-37 65.5,-55 115.5,-55 115.5,-37 65.5,-37"/>
<text text-anchor="start" x="78.5" y="-43.2" font-family="Helvetica,sans-Serif" font-size="11.00">0 rows</text>
<polygon fill="#ffffff" stroke="transparent" points="115.5,-37 115.5,-55 154.5,-55 154.5,-37 115.5,-37"/>
<polygon fill="none" stroke="black" points="115.5,-37 115.5,-55 154.5,-55 154.5,-37 115.5,-37"/>
<text text-anchor="start" x="129.5" y="-43.2" font-family="Helvetica,sans-Serif" font-size="11.00">15 &gt;</text>
</a>
</g>
</g>
<!-- deliverable_project_due_dates&#45;&gt;public.projects -->
<g id="edge2" class="edge">
<title>deliverable_project_due_dates:w&#45;&gt;public.projects:e</title>
<path fill="none" stroke="black" d="M204.88,-160.38C194.31,-153.59 192.03,-138.69 177,-128 172.41,-124.74 167.61,-121.5 162.71,-118.32"/>
<polygon fill="black" stroke="black" points="211.25,-162.01 218.11,-167.49 215.13,-163.01 219,-164 219,-164 219,-164 215.13,-163.01 219.89,-160.51 211.25,-162.01 211.25,-162.01"/>
<ellipse fill="none" stroke="black" cx="208.15" cy="-161.22" rx="3.2" ry="3.2"/>
</g>
</g>
</svg>
