<?xml version="1.0" encoding="UTF-8" standalone="no"?>
<!DOCTYPE svg PUBLIC "-//W3C//DTD SVG 1.1//EN"
 "http://www.w3.org/Graphics/SVG/1.1/DTD/svg11.dtd">
<!-- Generated by graphviz version 2.47.1 (20210515.0534)
 -->
<!-- Title: twoDegreesRelationshipsDiagram Pages: 1 -->
<svg width="659pt" height="254pt"
 viewBox="0.00 0.00 659.00 254.00" xmlns="http://www.w3.org/2000/svg" xmlns:xlink="http://www.w3.org/1999/xlink">
<g id="graph0" class="graph" transform="scale(1 1) rotate(0) translate(4 250)">
<title>twoDegreesRelationshipsDiagram</title>
<polygon fill="#ffffff" stroke="transparent" points="-4,4 -4,-250 655,-250 655,4 -4,4"/>
<text text-anchor="middle" x="73.5" y="-7.2" font-family="Helvetica,sans-Serif" font-size="11.00">Generated by SchemaSpy</text>
<!-- submission_documents -->
<g id="node1" class="node">
<title>submission_documents</title>
<g id="a_node1"><a xlink:href="../../tables/submission_documents.html" xlink:title="submission_documents" target="_top">
<polygon fill="#ffffff" stroke="transparent" points="460,-37 460,-205 643,-205 643,-37 460,-37"/>
<polygon fill="#f5f5f5" stroke="transparent" points="460.5,-183 460.5,-205 643.5,-205 643.5,-183 460.5,-183"/>
<polygon fill="none" stroke="black" points="460.5,-183 460.5,-205 643.5,-205 643.5,-183 460.5,-183"/>
<text text-anchor="start" x="465.5" y="-192.2" font-family="Helvetica,sans-Serif" font-weight="bold" font-size="11.00">submission_documents</text>
<text text-anchor="start" x="604.5" y="-191.2" font-family="Helvetica,sans-Serif" font-size="11.00">[table]</text>
<polygon fill="none" stroke="black" points="460.5,-161 460.5,-183 643.5,-183 643.5,-161 460.5,-161"/>
<image xlink:href="../../images/primaryKeys.png" width="11px" height="12px" preserveAspectRatio="xMinYMin meet" x="465.5" y="-178"/>
<text text-anchor="start" x="492.5" y="-169.2" font-family="Helvetica,sans-Serif" font-size="11.00">id</text>
<polygon fill="#ffffff" stroke="transparent" points="460.5,-139 460.5,-161 643.5,-161 643.5,-139 460.5,-139"/>
<polygon fill="none" stroke="black" points="460.5,-139 460.5,-161 643.5,-161 643.5,-139 460.5,-139"/>
<image xlink:href="../../images/foreignKeys.png" width="11px" height="12px" preserveAspectRatio="xMinYMin meet" x="465.5" y="-156"/>
<text text-anchor="start" x="492.5" y="-147.2" font-family="Helvetica,sans-Serif" font-size="11.00">submission_id</text>
<polygon fill="none" stroke="black" points="460.5,-117 460.5,-139 643.5,-139 643.5,-117 460.5,-117"/>
<image xlink:href="../../images/foreignKeys.png" width="11px" height="12px" preserveAspectRatio="xMinYMin meet" x="465.5" y="-134"/>
<text text-anchor="start" x="492.5" y="-125.2" font-family="Helvetica,sans-Serif" font-size="11.00">document_store_id</text>
<polygon fill="#ffffff" stroke="transparent" points="460.5,-95 460.5,-117 643.5,-117 643.5,-95 460.5,-95"/>
<polygon fill="none" stroke="black" points="460.5,-95 460.5,-117 643.5,-117 643.5,-95 460.5,-95"/>
<text text-anchor="start" x="492.5" y="-103.2" font-family="Helvetica,sans-Serif" font-size="11.00">name</text>
<polygon fill="#ffffff" stroke="transparent" points="460.5,-73 460.5,-95 643.5,-95 643.5,-73 460.5,-73"/>
<polygon fill="none" stroke="black" points="460.5,-73 460.5,-95 643.5,-95 643.5,-73 460.5,-73"/>
<image xlink:href="../../images/foreignKeys.png" width="11px" height="12px" preserveAspectRatio="xMinYMin meet" x="465.5" y="-90"/>
<text text-anchor="start" x="492.5" y="-81.2" font-family="Helvetica,sans-Serif" font-size="11.00">project_id</text>
<polygon fill="none" stroke="black" points="460.5,-55 460.5,-73 643.5,-73 643.5,-55 460.5,-55"/>
<text text-anchor="start" x="463.5" y="-61.2" font-family="Helvetica,sans-Serif" font-size="11.00">...</text>
<polygon fill="#ffffff" stroke="transparent" points="460.5,-37 460.5,-55 549.5,-55 549.5,-37 460.5,-37"/>
<polygon fill="none" stroke="black" points="460.5,-37 460.5,-55 549.5,-55 549.5,-37 460.5,-37"/>
<text text-anchor="start" x="463.5" y="-43.2" font-family="Helvetica,sans-Serif" font-size="11.00">&lt; 3</text>
<polygon fill="#ffffff" stroke="transparent" points="549.5,-37 549.5,-55 596.5,-55 596.5,-37 549.5,-37"/>
<polygon fill="none" stroke="black" points="549.5,-37 549.5,-55 596.5,-55 596.5,-37 549.5,-37"/>
<text text-anchor="start" x="586.5" y="-43.2" font-family="Helvetica,sans-Serif" font-size="11.00"> &#160;</text>
<polygon fill="#ffffff" stroke="transparent" points="596.5,-37 596.5,-55 643.5,-55 643.5,-37 596.5,-37"/>
<polygon fill="none" stroke="black" points="596.5,-37 596.5,-55 643.5,-55 643.5,-37 596.5,-37"/>
<text text-anchor="start" x="633.5" y="-43.2" font-family="Helvetica,sans-Serif" font-size="11.00"> &#160;</text>
</a>
</g>
</g>
<!-- document_stores -->
<g id="node2" class="node">
<title>document_stores</title>
<g id="a_node2"><a xlink:href="../../tables/document_stores.html" xlink:title="document_stores" target="_top">
<polygon fill="#ffffff" stroke="transparent" points="189,-75 189,-163 411,-163 411,-75 189,-75"/>
<polygon fill="#f5f5f5" stroke="transparent" points="191,-139 191,-161 409,-161 409,-139 191,-139"/>
<polygon fill="none" stroke="black" points="191,-139 191,-161 409,-161 409,-139 191,-139"/>
<text text-anchor="start" x="196" y="-148.2" font-family="Helvetica,sans-Serif" font-weight="bold" font-size="11.00">document_stores</text>
<text text-anchor="start" x="370" y="-147.2" font-family="Helvetica,sans-Serif" font-size="11.00">[table]</text>
<polygon fill="none" stroke="black" points="191,-117 191,-139 315,-139 315,-117 191,-117"/>
<image xlink:href="../../images/primaryKeys.png" width="11px" height="12px" preserveAspectRatio="xMinYMin meet" x="196" y="-134"/>
<text text-anchor="start" x="211" y="-125.2" font-family="Helvetica,sans-Serif" font-size="11.00">id</text>
<polygon fill="none" stroke="black" points="315,-117 315,-139 409,-139 409,-117 315,-117"/>
<text text-anchor="start" x="318" y="-125.2" font-family="Helvetica,sans-Serif" font-size="11.00">int4[10]</text>
<polygon fill="#ffffff" stroke="transparent" points="191,-95 191,-117 315,-117 315,-95 191,-95"/>
<polygon fill="none" stroke="black" points="191,-95 191,-117 315,-117 315,-95 191,-95"/>
<text text-anchor="start" x="211" y="-103.2" font-family="Helvetica,sans-Serif" font-size="11.00">name</text>
<polygon fill="none" stroke="black" points="315,-95 315,-117 409,-117 409,-95 315,-95"/>
<text text-anchor="start" x="318" y="-103.2" font-family="Helvetica,sans-Serif" font-size="11.00">text[2147483647]</text>
<polygon fill="#ffffff" stroke="transparent" points="191,-77 191,-95 257,-95 257,-77 191,-77"/>
<polygon fill="none" stroke="black" points="191,-77 191,-95 257,-95 257,-77 191,-77"/>
<text text-anchor="start" x="194" y="-83.2" font-family="Helvetica,sans-Serif" font-size="11.00">&lt; 0</text>
<polygon fill="#ffffff" stroke="transparent" points="257,-77 257,-95 315,-95 315,-77 257,-77"/>
<polygon fill="none" stroke="black" points="257,-77 257,-95 315,-95 315,-77 257,-77"/>
<text text-anchor="start" x="305" y="-83.2" font-family="Helvetica,sans-Serif" font-size="11.00"> &#160;</text>
<polygon fill="#ffffff" stroke="transparent" points="315,-77 315,-95 409,-95 409,-77 315,-77"/>
<polygon fill="none" stroke="black" points="315,-77 315,-95 409,-95 409,-77 315,-77"/>
<text text-anchor="start" x="390" y="-83.2" font-family="Helvetica,sans-Serif" font-size="11.00">1 &gt;</text>
<polygon fill="none" stroke="black" stroke-width="2" points="190,-76 190,-162 410,-162 410,-76 190,-76"/>
</a>
</g>
</g>
<!-- submission_documents&#45;&gt;document_stores -->
<g id="edge1" class="edge">
<title>submission_documents:w&#45;&gt;document_stores:e</title>
<path fill="none" stroke="black" d="M444.84,-128C433.41,-128 426.16,-128 410,-128"/>
<polygon fill="black" stroke="black" points="451.5,-128 459.5,-131.6 455.5,-128 459.5,-128 459.5,-128 459.5,-128 455.5,-128 459.5,-124.4 451.5,-128 451.5,-128"/>
<ellipse fill="none" stroke="black" cx="448.3" cy="-128" rx="3.2" ry="3.2"/>
</g>
<!-- public.projects -->
<g id="node3" class="node">
<title>public.projects</title>
<g id="a_node3"><a xlink:href="../../../public/tables/projects.html" xlink:title="public.projects" target="_top">
<polygon fill="#ffffff" stroke="transparent" points="8,-104 8,-162 140,-162 140,-104 8,-104"/>
<polygon fill="#f5f5f5" stroke="transparent" points="8,-140 8,-162 140,-162 140,-140 8,-140"/>
<polygon fill="none" stroke="black" points="8,-140 8,-162 140,-162 140,-140 8,-140"/>
<text text-anchor="start" x="13" y="-149.2" font-family="Helvetica,sans-Serif" font-weight="bold" font-size="11.00">public.projects</text>
<text text-anchor="start" x="101" y="-148.2" font-family="Helvetica,sans-Serif" font-size="11.00">[table]</text>
<polygon fill="none" stroke="black" points="8,-122 8,-140 140,-140 140,-122 8,-122"/>
<text text-anchor="start" x="11" y="-128.2" font-family="Helvetica,sans-Serif" font-size="11.00">...</text>
<polygon fill="#ffffff" stroke="transparent" points="8,-104 8,-122 51,-122 51,-104 8,-104"/>
<polygon fill="none" stroke="black" points="8,-104 8,-122 51,-122 51,-104 8,-104"/>
<text text-anchor="start" x="11" y="-110.2" font-family="Helvetica,sans-Serif" font-size="11.00">&lt; 2</text>
<polygon fill="#ffffff" stroke="transparent" points="51,-104 51,-122 101,-122 101,-104 51,-104"/>
<polygon fill="none" stroke="black" points="51,-104 51,-122 101,-122 101,-104 51,-104"/>
<text text-anchor="start" x="64" y="-110.2" font-family="Helvetica,sans-Serif" font-size="11.00">0 rows</text>
<polygon fill="#ffffff" stroke="transparent" points="101,-104 101,-122 140,-122 140,-104 101,-104"/>
<polygon fill="none" stroke="black" points="101,-104 101,-122 140,-122 140,-104 101,-104"/>
<text text-anchor="start" x="115" y="-110.2" font-family="Helvetica,sans-Serif" font-size="11.00">19 &gt;</text>
</a>
</g>
</g>
<!-- submission_documents&#45;&gt;public.projects -->
<g id="edge2" class="edge">
<title>submission_documents:w&#45;&gt;public.projects:e</title>
<path fill="none" stroke="black" d="M445.43,-80.45C437.16,-75.6 432.59,-67.17 419,-64 315.99,-39.95 272.99,-11.78 181,-64 150.84,-81.12 175.68,-131 141,-131"/>
<polygon fill="black" stroke="black" points="451.74,-82.04 458.62,-87.49 455.62,-83.02 459.5,-84 459.5,-84 459.5,-84 455.62,-83.02 460.38,-80.51 451.74,-82.04 451.74,-82.04"/>
<ellipse fill="none" stroke="black" cx="448.64" cy="-81.26" rx="3.2" ry="3.2"/>
</g>
<!-- submissions -->
<g id="node4" class="node">
<title>submissions</title>
<g id="a_node4"><a xlink:href="../../tables/submissions.html" xlink:title="submissions" target="_top">
<polygon fill="#ffffff" stroke="transparent" points="241.5,-184 241.5,-242 358.5,-242 358.5,-184 241.5,-184"/>
<polygon fill="#f5f5f5" stroke="transparent" points="242,-220 242,-242 359,-242 359,-220 242,-220"/>
<polygon fill="none" stroke="black" points="242,-220 242,-242 359,-242 359,-220 242,-220"/>
<text text-anchor="start" x="247" y="-229.2" font-family="Helvetica,sans-Serif" font-weight="bold" font-size="11.00">submissions</text>
<text text-anchor="start" x="320" y="-228.2" font-family="Helvetica,sans-Serif" font-size="11.00">[table]</text>
<polygon fill="none" stroke="black" points="242,-202 242,-220 359,-220 359,-202 242,-202"/>
<text text-anchor="start" x="245" y="-208.2" font-family="Helvetica,sans-Serif" font-size="11.00">...</text>
<polygon fill="#ffffff" stroke="transparent" points="242,-184 242,-202 294,-202 294,-184 242,-184"/>
<polygon fill="none" stroke="black" points="242,-184 242,-202 294,-202 294,-184 242,-184"/>
<text text-anchor="start" x="245" y="-190.2" font-family="Helvetica,sans-Serif" font-size="11.00">&lt; 3</text>
<polygon fill="#ffffff" stroke="transparent" points="294,-184 294,-202 322,-202 322,-184 294,-184"/>
<polygon fill="none" stroke="black" points="294,-184 294,-202 322,-202 322,-184 294,-184"/>
<text text-anchor="start" x="312" y="-190.2" font-family="Helvetica,sans-Serif" font-size="11.00"> &#160;</text>
<polygon fill="#ffffff" stroke="transparent" points="322,-184 322,-202 359,-202 359,-184 322,-184"/>
<polygon fill="none" stroke="black" points="322,-184 322,-202 359,-202 359,-184 322,-184"/>
<text text-anchor="start" x="340" y="-190.2" font-family="Helvetica,sans-Serif" font-size="11.00">2 &gt;</text>
</a>
</g>
</g>
<!-- submission_documents&#45;&gt;submissions -->
<g id="edge3" class="edge">
<title>submission_documents:w&#45;&gt;submissions:e</title>
<path fill="none" stroke="black" d="M446.24,-155.85C420.59,-171.12 370.49,-211 360,-211"/>
<polygon fill="black" stroke="black" points="452.18,-153.23 460.95,-153.29 455.84,-151.61 459.5,-150 459.5,-150 459.5,-150 455.84,-151.61 458.05,-146.71 452.18,-153.23 452.18,-153.23"/>
<ellipse fill="none" stroke="black" cx="449.25" cy="-154.52" rx="3.2" ry="3.2"/>
</g>
<!-- submissions&#45;&gt;public.projects -->
<g id="edge4" class="edge">
<title>submissions:w&#45;&gt;public.projects:e</title>
<path fill="none" stroke="black" d="M226.44,-209.42C207.43,-204.76 200.87,-190.3 181,-174 160.82,-157.44 167.1,-131 141,-131"/>
<polygon fill="black" stroke="black" points="233.05,-210.14 240.61,-214.58 237.02,-210.57 241,-211 241,-211 241,-211 237.02,-210.57 241.39,-207.42 233.05,-210.14 233.05,-210.14"/>
<ellipse fill="none" stroke="black" cx="229.87" cy="-209.79" rx="3.2" ry="3.2"/>
</g>
</g>
</svg>
