<?xml version="1.0" encoding="UTF-8" standalone="no"?>
<!DOCTYPE svg PUBLIC "-//W3C//DTD SVG 1.1//EN"
 "http://www.w3.org/Graphics/SVG/1.1/DTD/svg11.dtd">
<!-- Generated by graphviz version 2.38.0 (20140413.2041)
 -->
<!-- Title: oneDegreeRelationshipsDiagram Pages: 1 -->
<svg width="767pt" height="665pt"
 viewBox="0.00 0.00 767.00 665.00" xmlns="http://www.w3.org/2000/svg" xmlns:xlink="http://www.w3.org/1999/xlink">
<g id="graph0" class="graph" transform="scale(1 1) rotate(0) translate(4 661)">
<title>oneDegreeRelationshipsDiagram</title>
<polygon fill="#ffffff" stroke="none" points="-4,4 -4,-661 763,-661 763,4 -4,4"/>
<text text-anchor="middle" x="74.5" y="-7.2" font-family="Helvetica,sans-Serif" font-size="11.00">Generated by SchemaSpy</text>
<!-- application_modules -->
<g id="node1" class="node"><title>application_modules</title>
<g id="a_node1"><a xlink:href="../../tables/application_modules.html" xlink:title="application_modules" target="_top">
<polygon fill="#ffffff" stroke="none" points="554,-547 554,-653 751,-653 751,-547 554,-547"/>
<polygon fill="#f5f5f5" stroke="none" points="554.5,-631 554.5,-653 751.5,-653 751.5,-631 554.5,-631"/>
<polygon fill="none" stroke="black" points="554.5,-631 554.5,-653 751.5,-653 751.5,-631 554.5,-631"/>
<text text-anchor="start" x="559.5" y="-640.2" font-family="Helvetica,sans-Serif" font-weight="bold" font-size="11.00">application_modules</text>
<text text-anchor="start" x="712.5" y="-639.2" font-family="Helvetica,sans-Serif" font-size="11.00">[table]</text>
<polygon fill="none" stroke="black" points="554.5,-609 554.5,-631 751.5,-631 751.5,-609 554.5,-609"/>
<image xlink:href="../../images/primaryKeys.png" width="11px" height="12px" preserveAspectRatio="xMinYMin meet" x="559.5" y="-626"/>
<text text-anchor="start" x="574.5" y="-617.2" font-family="Helvetica,sans-Serif" font-size="11.00">application_id</text>
<polygon fill="none" stroke="black" points="554.5,-587 554.5,-609 751.5,-609 751.5,-587 554.5,-587"/>
<image xlink:href="../../images/primaryKeys.png" width="11px" height="12px" preserveAspectRatio="xMinYMin meet" x="559.5" y="-604"/>
<text text-anchor="start" x="574.5" y="-595.2" font-family="Helvetica,sans-Serif" font-size="11.00">module_id</text>
<polygon fill="none" stroke="black" points="554.5,-565 554.5,-587 751.5,-587 751.5,-565 554.5,-565"/>
<image xlink:href="../../images/foreignKeys.png" width="11px" height="12px" preserveAspectRatio="xMinYMin meet" x="559.5" y="-582"/>
<text text-anchor="start" x="574.5" y="-573.2" font-family="Helvetica,sans-Serif" font-size="11.00">application_module_status_id</text>
<polygon fill="#ffffff" stroke="none" points="554.5,-547 554.5,-565 636.5,-565 636.5,-547 554.5,-547"/>
<polygon fill="none" stroke="black" points="554.5,-547 554.5,-565 636.5,-565 636.5,-547 554.5,-547"/>
<text text-anchor="start" x="557.5" y="-553.2" font-family="Helvetica,sans-Serif" font-size="11.00">&lt; 3</text>
<polygon fill="#ffffff" stroke="none" points="636.5,-547 636.5,-565 708.5,-565 708.5,-547 636.5,-547"/>
<polygon fill="none" stroke="black" points="636.5,-547 636.5,-565 708.5,-565 708.5,-547 636.5,-547"/>
<text text-anchor="start" x="669.5" y="-553.2" font-family="Helvetica,sans-Serif" font-size="11.00">0 rows</text>
<polygon fill="#ffffff" stroke="none" points="708.5,-547 708.5,-565 751.5,-565 751.5,-547 708.5,-547"/>
<polygon fill="none" stroke="black" points="708.5,-547 708.5,-565 751.5,-565 751.5,-547 708.5,-547"/>
<text text-anchor="start" x="741.5" y="-553.2" font-family="Helvetica,sans-Serif" font-size="11.00"> &#160;</text>
</a>
</g>
</g>
<!-- modules -->
<g id="node2" class="node"><title>modules</title>
<g id="a_node2"><a xlink:href="../../tables/modules.html" xlink:title="modules" target="_top">
<polygon fill="#ffffff" stroke="none" points="187,-37 187,-411 505,-411 505,-37 187,-37"/>
<polygon fill="#f5f5f5" stroke="none" points="189,-387 189,-409 503,-409 503,-387 189,-387"/>
<polygon fill="none" stroke="black" points="189,-387 189,-409 503,-409 503,-387 189,-387"/>
<text text-anchor="start" x="194" y="-396.2" font-family="Helvetica,sans-Serif" font-weight="bold" font-size="11.00">modules</text>
<text text-anchor="start" x="464" y="-395.2" font-family="Helvetica,sans-Serif" font-size="11.00">[table]</text>
<polygon fill="none" stroke="black" points="189,-365 189,-387 401,-387 401,-365 189,-365"/>
<image xlink:href="../../images/primaryKeys.png" width="11px" height="12px" preserveAspectRatio="xMinYMin meet" x="194" y="-382"/>
<text text-anchor="start" x="209" y="-373.2" font-family="Helvetica,sans-Serif" font-size="11.00">id</text>
<polygon fill="none" stroke="black" points="401,-365 401,-387 503,-387 503,-365 401,-365"/>
<text text-anchor="start" x="404" y="-373.2" font-family="Helvetica,sans-Serif" font-size="11.00">int8[19]</text>
<polygon fill="none" stroke="black" points="189,-343 189,-365 401,-365 401,-343 189,-343"/>
<text text-anchor="start" x="209" y="-351.2" font-family="Helvetica,sans-Serif" font-size="11.00">name</text>
<polygon fill="none" stroke="black" points="401,-343 401,-365 503,-365 503,-343 401,-343"/>
<text text-anchor="start" x="404" y="-351.2" font-family="Helvetica,sans-Serif" font-size="11.00">text[2147483647]</text>
<polygon fill="none" stroke="black" points="189,-321 189,-343 401,-343 401,-321 189,-321"/>
<text text-anchor="start" x="209" y="-329.2" font-family="Helvetica,sans-Serif" font-size="11.00">created_by</text>
<polygon fill="none" stroke="black" points="401,-321 401,-343 503,-343 503,-321 401,-321"/>
<text text-anchor="start" x="404" y="-329.2" font-family="Helvetica,sans-Serif" font-size="11.00">int8[19]</text>
<polygon fill="none" stroke="black" points="189,-299 189,-321 401,-321 401,-299 189,-299"/>
<text text-anchor="start" x="209" y="-307.2" font-family="Helvetica,sans-Serif" font-size="11.00">created_time</text>
<polygon fill="none" stroke="black" points="401,-299 401,-321 503,-321 503,-299 401,-299"/>
<text text-anchor="start" x="404" y="-307.2" font-family="Helvetica,sans-Serif" font-size="11.00">timestamptz[35,6]</text>
<polygon fill="none" stroke="black" points="189,-277 189,-299 401,-299 401,-277 189,-277"/>
<text text-anchor="start" x="209" y="-285.2" font-family="Helvetica,sans-Serif" font-size="11.00">modified_by</text>
<polygon fill="none" stroke="black" points="401,-277 401,-299 503,-299 503,-277 401,-277"/>
<text text-anchor="start" x="404" y="-285.2" font-family="Helvetica,sans-Serif" font-size="11.00">int8[19]</text>
<polygon fill="none" stroke="black" points="189,-255 189,-277 401,-277 401,-255 189,-255"/>
<text text-anchor="start" x="209" y="-263.2" font-family="Helvetica,sans-Serif" font-size="11.00">modified_time</text>
<polygon fill="none" stroke="black" points="401,-255 401,-277 503,-277 503,-255 401,-255"/>
<text text-anchor="start" x="404" y="-263.2" font-family="Helvetica,sans-Serif" font-size="11.00">timestamptz[35,6]</text>
<polygon fill="none" stroke="black" points="189,-233 189,-255 401,-255 401,-233 189,-233"/>
<text text-anchor="start" x="209" y="-241.2" font-family="Helvetica,sans-Serif" font-size="11.00">overview</text>
<polygon fill="none" stroke="black" points="401,-233 401,-255 503,-255 503,-233 401,-233"/>
<text text-anchor="start" x="404" y="-241.2" font-family="Helvetica,sans-Serif" font-size="11.00">text[2147483647]</text>
<polygon fill="none" stroke="black" points="189,-211 189,-233 401,-233 401,-211 189,-211"/>
<text text-anchor="start" x="209" y="-219.2" font-family="Helvetica,sans-Serif" font-size="11.00">preparation_materials</text>
<polygon fill="none" stroke="black" points="401,-211 401,-233 503,-233 503,-211 401,-211"/>
<text text-anchor="start" x="404" y="-219.2" font-family="Helvetica,sans-Serif" font-size="11.00">text[2147483647]</text>
<polygon fill="none" stroke="black" points="189,-189 189,-211 401,-211 401,-189 189,-189"/>
<text text-anchor="start" x="209" y="-197.2" font-family="Helvetica,sans-Serif" font-size="11.00">live_session_description</text>
<polygon fill="none" stroke="black" points="401,-189 401,-211 503,-211 503,-189 401,-189"/>
<text text-anchor="start" x="404" y="-197.2" font-family="Helvetica,sans-Serif" font-size="11.00">text[2147483647]</text>
<polygon fill="none" stroke="black" points="189,-167 189,-189 401,-189 401,-167 189,-167"/>
<text text-anchor="start" x="209" y="-175.2" font-family="Helvetica,sans-Serif" font-size="11.00">workshop_description</text>
<polygon fill="none" stroke="black" points="401,-167 401,-189 503,-189 503,-167 401,-167"/>
<text text-anchor="start" x="404" y="-175.2" font-family="Helvetica,sans-Serif" font-size="11.00">text[2147483647]</text>
<polygon fill="none" stroke="black" points="189,-145 189,-167 401,-167 401,-145 189,-145"/>
<text text-anchor="start" x="209" y="-153.2" font-family="Helvetica,sans-Serif" font-size="11.00">one_on_one_session_description</text>
<polygon fill="none" stroke="black" points="401,-145 401,-167 503,-167 503,-145 401,-145"/>
<text text-anchor="start" x="404" y="-153.2" font-family="Helvetica,sans-Serif" font-size="11.00">text[2147483647]</text>
<polygon fill="none" stroke="black" points="189,-123 189,-145 401,-145 401,-123 189,-123"/>
<text text-anchor="start" x="209" y="-131.2" font-family="Helvetica,sans-Serif" font-size="11.00">additional_resources</text>
<polygon fill="none" stroke="black" points="401,-123 401,-145 503,-145 503,-123 401,-123"/>
<text text-anchor="start" x="404" y="-131.2" font-family="Helvetica,sans-Serif" font-size="11.00">text[2147483647]</text>
<polygon fill="none" stroke="black" points="189,-101 189,-123 401,-123 401,-101 189,-101"/>
<image xlink:href="../../images/foreignKeys.png" width="11px" height="12px" preserveAspectRatio="xMinYMin meet" x="194" y="-118"/>
<text text-anchor="start" x="209" y="-109.2" font-family="Helvetica,sans-Serif" font-size="11.00">phase_id</text>
<polygon fill="none" stroke="black" points="401,-101 401,-123 503,-123 503,-101 401,-101"/>
<text text-anchor="start" x="404" y="-109.2" font-family="Helvetica,sans-Serif" font-size="11.00">int4[10]</text>
<polygon fill="none" stroke="black" points="189,-79 189,-101 401,-101 401,-79 189,-79"/>
<text text-anchor="start" x="209" y="-87.2" font-family="Helvetica,sans-Serif" font-size="11.00">position</text>
<polygon fill="none" stroke="black" points="401,-79 401,-101 503,-101 503,-79 401,-79"/>
<text text-anchor="start" x="404" y="-87.2" font-family="Helvetica,sans-Serif" font-size="11.00">int4[10]</text>
<polygon fill="none" stroke="black" points="189,-57 189,-79 401,-79 401,-57 189,-57"/>
<text text-anchor="start" x="209" y="-65.2" font-family="Helvetica,sans-Serif" font-size="11.00">recorded_session_description</text>
<polygon fill="none" stroke="black" points="401,-57 401,-79 503,-79 503,-57 401,-57"/>
<text text-anchor="start" x="404" y="-65.2" font-family="Helvetica,sans-Serif" font-size="11.00">text[2147483647]</text>
<polygon fill="#ffffff" stroke="none" points="189,-39 189,-57 285,-57 285,-39 189,-39"/>
<polygon fill="none" stroke="black" points="189,-39 189,-57 285,-57 285,-39 189,-39"/>
<text text-anchor="start" x="192" y="-45.2" font-family="Helvetica,sans-Serif" font-size="11.00">&lt; 1</text>
<polygon fill="#ffffff" stroke="none" points="285,-39 285,-57 401,-57 401,-39 285,-39"/>
<polygon fill="none" stroke="black" points="285,-39 285,-57 401,-57 401,-39 285,-39"/>
<text text-anchor="start" x="362" y="-45.2" font-family="Helvetica,sans-Serif" font-size="11.00">0 rows</text>
<polygon fill="#ffffff" stroke="none" points="401,-39 401,-57 503,-57 503,-39 401,-39"/>
<polygon fill="none" stroke="black" points="401,-39 401,-57 503,-57 503,-39 401,-39"/>
<text text-anchor="start" x="483" y="-45.2" font-family="Helvetica,sans-Serif" font-size="11.00">4 &gt;</text>
<polygon fill="none" stroke="black" stroke-width="2" points="188,-38 188,-410 504,-410 504,-38 188,-38"/>
</a>
</g>
</g>
<!-- application_modules&#45;&gt;modules -->
<g id="edge1" class="edge"><title>application_modules:module_id:w&#45;&gt;modules:id.type:e</title>
<path fill="none" stroke="black" d="M539.109,-596.081C468.351,-574.383 599.561,-376 504,-376"/>
<polygon fill="black" stroke="black" points="545.57,-596.942 553.024,-601.568 549.535,-597.471 553.5,-598 553.5,-598 553.5,-598 549.535,-597.471 553.976,-594.432 545.57,-596.942 545.57,-596.942"/>
<ellipse fill="none" stroke="black" cx="542.398" cy="-596.519" rx="3.2" ry="3.2"/>
</g>
<!-- cohort_phases -->
<g id="node6" class="node"><title>cohort_phases</title>
<g id="a_node6"><a xlink:href="../../tables/cohort_phases.html" xlink:title="cohort_phases" target="_top">
<polygon fill="#ffffff" stroke="none" points="8,-61 8,-145 138,-145 138,-61 8,-61"/>
<polygon fill="#f5f5f5" stroke="none" points="8,-123 8,-145 138,-145 138,-123 8,-123"/>
<polygon fill="none" stroke="black" points="8,-123 8,-145 138,-145 138,-123 8,-123"/>
<text text-anchor="start" x="13" y="-132.2" font-family="Helvetica,sans-Serif" font-weight="bold" font-size="11.00">cohort_phases</text>
<text text-anchor="start" x="99" y="-131.2" font-family="Helvetica,sans-Serif" font-size="11.00">[table]</text>
<polygon fill="none" stroke="black" points="8,-101 8,-123 138,-123 138,-101 8,-101"/>
<image xlink:href="../../images/primaryKeys.png" width="11px" height="12px" preserveAspectRatio="xMinYMin meet" x="13" y="-118"/>
<text text-anchor="start" x="40" y="-109.2" font-family="Helvetica,sans-Serif" font-size="11.00">id</text>
<polygon fill="#ffffff" stroke="none" points="8,-79 8,-101 138,-101 138,-79 8,-79"/>
<polygon fill="none" stroke="black" points="8,-79 8,-101 138,-101 138,-79 8,-79"/>
<text text-anchor="start" x="40" y="-87.2" font-family="Helvetica,sans-Serif" font-size="11.00">name</text>
<polygon fill="#ffffff" stroke="none" points="8,-61 8,-79 47,-79 47,-61 8,-61"/>
<polygon fill="none" stroke="black" points="8,-61 8,-79 47,-79 47,-61 8,-61"/>
<text text-anchor="start" x="11" y="-67.2" font-family="Helvetica,sans-Serif" font-size="11.00"> &#160;</text>
<polygon fill="#ffffff" stroke="none" points="47,-61 47,-79 102,-79 102,-61 47,-61"/>
<polygon fill="none" stroke="black" points="47,-61 47,-79 102,-79 102,-61 47,-61"/>
<text text-anchor="start" x="63" y="-67.2" font-family="Helvetica,sans-Serif" font-size="11.00">6 rows</text>
<polygon fill="#ffffff" stroke="none" points="102,-61 102,-79 138,-79 138,-61 102,-61"/>
<polygon fill="none" stroke="black" points="102,-61 102,-79 138,-79 138,-61 102,-61"/>
<text text-anchor="start" x="118" y="-67.2" font-family="Helvetica,sans-Serif" font-size="11.00">5 &gt;</text>
</a>
</g>
</g>
<!-- modules&#45;&gt;cohort_phases -->
<g id="edge5" class="edge"><title>modules:phase_id:w&#45;&gt;cohort_phases:id:e</title>
<path fill="none" stroke="black" d="M173.491,-112C162.177,-112 154.993,-112 139,-112"/>
<polygon fill="black" stroke="black" points="180,-112 188,-115.6 184,-112 188,-112 188,-112 188,-112 184,-112 188,-108.4 180,-112 180,-112"/>
<ellipse fill="none" stroke="black" cx="176.8" cy="-112" rx="3.2" ry="3.2"/>
</g>
<!-- cohort_modules -->
<g id="node3" class="node"><title>cohort_modules</title>
<g id="a_node3"><a xlink:href="../../tables/cohort_modules.html" xlink:title="cohort_modules" target="_top">
<polygon fill="#ffffff" stroke="none" points="583,-402 583,-526 722,-526 722,-402 583,-402"/>
<polygon fill="#f5f5f5" stroke="none" points="583.5,-504 583.5,-526 722.5,-526 722.5,-504 583.5,-504"/>
<polygon fill="none" stroke="black" points="583.5,-504 583.5,-526 722.5,-526 722.5,-504 583.5,-504"/>
<text text-anchor="start" x="588.5" y="-513.2" font-family="Helvetica,sans-Serif" font-weight="bold" font-size="11.00">cohort_modules</text>
<text text-anchor="start" x="683.5" y="-512.2" font-family="Helvetica,sans-Serif" font-size="11.00">[table]</text>
<polygon fill="none" stroke="black" points="583.5,-482 583.5,-504 722.5,-504 722.5,-482 583.5,-482"/>
<image xlink:href="../../images/primaryKeys.png" width="11px" height="12px" preserveAspectRatio="xMinYMin meet" x="588.5" y="-499"/>
<text text-anchor="start" x="615.5" y="-490.2" font-family="Helvetica,sans-Serif" font-size="11.00">cohort_id</text>
<polygon fill="none" stroke="black" points="583.5,-460 583.5,-482 722.5,-482 722.5,-460 583.5,-460"/>
<image xlink:href="../../images/primaryKeys.png" width="11px" height="12px" preserveAspectRatio="xMinYMin meet" x="588.5" y="-477"/>
<text text-anchor="start" x="615.5" y="-468.2" font-family="Helvetica,sans-Serif" font-size="11.00">module_id</text>
<polygon fill="#ffffff" stroke="none" points="583.5,-438 583.5,-460 722.5,-460 722.5,-438 583.5,-438"/>
<polygon fill="none" stroke="black" points="583.5,-438 583.5,-460 722.5,-460 722.5,-438 583.5,-438"/>
<text text-anchor="start" x="615.5" y="-446.2" font-family="Helvetica,sans-Serif" font-size="11.00">start_date</text>
<polygon fill="none" stroke="black" points="583.5,-420 583.5,-438 722.5,-438 722.5,-420 583.5,-420"/>
<text text-anchor="start" x="586.5" y="-426.2" font-family="Helvetica,sans-Serif" font-size="11.00">...</text>
<polygon fill="#ffffff" stroke="none" points="583.5,-402 583.5,-420 636.5,-420 636.5,-402 583.5,-402"/>
<polygon fill="none" stroke="black" points="583.5,-402 583.5,-420 636.5,-420 636.5,-402 583.5,-402"/>
<text text-anchor="start" x="586.5" y="-408.2" font-family="Helvetica,sans-Serif" font-size="11.00">&lt; 2</text>
<polygon fill="#ffffff" stroke="none" points="636.5,-402 636.5,-420 693.5,-420 693.5,-402 636.5,-402"/>
<polygon fill="none" stroke="black" points="636.5,-402 636.5,-420 693.5,-420 693.5,-402 636.5,-402"/>
<text text-anchor="start" x="654.5" y="-408.2" font-family="Helvetica,sans-Serif" font-size="11.00">0 rows</text>
<polygon fill="#ffffff" stroke="none" points="693.5,-402 693.5,-420 722.5,-420 722.5,-402 693.5,-402"/>
<polygon fill="none" stroke="black" points="693.5,-402 693.5,-420 722.5,-420 722.5,-402 693.5,-402"/>
<text text-anchor="start" x="712.5" y="-408.2" font-family="Helvetica,sans-Serif" font-size="11.00"> &#160;</text>
</a>
</g>
</g>
<!-- cohort_modules&#45;&gt;modules -->
<g id="edge2" class="edge"><title>cohort_modules:module_id:w&#45;&gt;modules:id.type:e</title>
<path fill="none" stroke="black" d="M568.287,-468.259C533.149,-452.683 553.209,-376 504,-376"/>
<polygon fill="black" stroke="black" points="574.645,-469.485 581.818,-474.535 578.572,-470.243 582.5,-471 582.5,-471 582.5,-471 578.572,-470.243 583.182,-467.465 574.645,-469.485 574.645,-469.485"/>
<ellipse fill="none" stroke="black" cx="571.503" cy="-468.879" rx="3.2" ry="3.2"/>
</g>
<!-- deliverables -->
<g id="node4" class="node"><title>deliverables</title>
<g id="a_node4"><a xlink:href="../../tables/deliverables.html" xlink:title="deliverables" target="_top">
<polygon fill="#ffffff" stroke="none" points="572,-213 572,-381 733,-381 733,-213 572,-213"/>
<polygon fill="#f5f5f5" stroke="none" points="572.5,-359 572.5,-381 733.5,-381 733.5,-359 572.5,-359"/>
<polygon fill="none" stroke="black" points="572.5,-359 572.5,-381 733.5,-381 733.5,-359 572.5,-359"/>
<text text-anchor="start" x="577.5" y="-368.2" font-family="Helvetica,sans-Serif" font-weight="bold" font-size="11.00">deliverables</text>
<text text-anchor="start" x="694.5" y="-367.2" font-family="Helvetica,sans-Serif" font-size="11.00">[table]</text>
<polygon fill="none" stroke="black" points="572.5,-337 572.5,-359 733.5,-359 733.5,-337 572.5,-337"/>
<image xlink:href="../../images/primaryKeys.png" width="11px" height="12px" preserveAspectRatio="xMinYMin meet" x="577.5" y="-354"/>
<text text-anchor="start" x="592.5" y="-345.2" font-family="Helvetica,sans-Serif" font-size="11.00">id</text>
<polygon fill="none" stroke="black" points="572.5,-315 572.5,-337 733.5,-337 733.5,-315 572.5,-315"/>
<image xlink:href="../../images/foreignKeys.png" width="11px" height="12px" preserveAspectRatio="xMinYMin meet" x="577.5" y="-332"/>
<text text-anchor="start" x="592.5" y="-323.2" font-family="Helvetica,sans-Serif" font-size="11.00">deliverable_category_id</text>
<polygon fill="#ffffff" stroke="none" points="572.5,-293 572.5,-315 733.5,-315 733.5,-293 572.5,-293"/>
<polygon fill="none" stroke="black" points="572.5,-293 572.5,-315 733.5,-315 733.5,-293 572.5,-293"/>
<image xlink:href="../../images/foreignKeys.png" width="11px" height="12px" preserveAspectRatio="xMinYMin meet" x="577.5" y="-310"/>
<text text-anchor="start" x="592.5" y="-301.2" font-family="Helvetica,sans-Serif" font-size="11.00">deliverable_type_id</text>
<polygon fill="#ffffff" stroke="none" points="572.5,-271 572.5,-293 733.5,-293 733.5,-271 572.5,-271"/>
<polygon fill="none" stroke="black" points="572.5,-271 572.5,-293 733.5,-293 733.5,-271 572.5,-271"/>
<image xlink:href="../../images/foreignKeys.png" width="11px" height="12px" preserveAspectRatio="xMinYMin meet" x="577.5" y="-288"/>
<text text-anchor="start" x="592.5" y="-279.2" font-family="Helvetica,sans-Serif" font-size="11.00">module_id</text>
<polygon fill="#ffffff" stroke="none" points="572.5,-249 572.5,-271 733.5,-271 733.5,-249 572.5,-249"/>
<polygon fill="none" stroke="black" points="572.5,-249 572.5,-271 733.5,-271 733.5,-249 572.5,-249"/>
<text text-anchor="start" x="592.5" y="-257.2" font-family="Helvetica,sans-Serif" font-size="11.00">position</text>
<polygon fill="none" stroke="black" points="572.5,-231 572.5,-249 733.5,-249 733.5,-231 572.5,-231"/>
<text text-anchor="start" x="575.5" y="-237.2" font-family="Helvetica,sans-Serif" font-size="11.00">...</text>
<polygon fill="#ffffff" stroke="none" points="572.5,-213 572.5,-231 631.5,-231 631.5,-213 572.5,-213"/>
<polygon fill="none" stroke="black" points="572.5,-213 572.5,-231 631.5,-231 631.5,-213 572.5,-213"/>
<text text-anchor="start" x="575.5" y="-219.2" font-family="Helvetica,sans-Serif" font-size="11.00">&lt; 3</text>
<polygon fill="#ffffff" stroke="none" points="631.5,-213 631.5,-231 691.5,-231 691.5,-213 631.5,-213"/>
<polygon fill="none" stroke="black" points="631.5,-213 631.5,-231 691.5,-231 691.5,-213 631.5,-213"/>
<text text-anchor="start" x="652.5" y="-219.2" font-family="Helvetica,sans-Serif" font-size="11.00">0 rows</text>
<polygon fill="#ffffff" stroke="none" points="691.5,-213 691.5,-231 733.5,-231 733.5,-213 691.5,-213"/>
<polygon fill="none" stroke="black" points="691.5,-213 691.5,-231 733.5,-231 733.5,-213 691.5,-213"/>
<text text-anchor="start" x="713.5" y="-219.2" font-family="Helvetica,sans-Serif" font-size="11.00">6 &gt;</text>
</a>
</g>
</g>
<!-- deliverables&#45;&gt;modules -->
<g id="edge3" class="edge"><title>deliverables:module_id:w&#45;&gt;modules:id.type:e</title>
<path fill="none" stroke="black" d="M557.11,-285.346C526.966,-302.091 549.607,-376 504,-376"/>
<polygon fill="black" stroke="black" points="563.708,-283.812 572.315,-285.506 567.604,-282.906 571.5,-282 571.5,-282 571.5,-282 567.604,-282.906 570.685,-278.494 563.708,-283.812 563.708,-283.812"/>
<ellipse fill="none" stroke="black" cx="560.591" cy="-284.536" rx="3.2" ry="3.2"/>
</g>
<!-- events -->
<g id="node5" class="node"><title>events</title>
<g id="a_node5"><a xlink:href="../../tables/events.html" xlink:title="events" target="_top">
<polygon fill="#ffffff" stroke="none" points="596,-46 596,-192 709,-192 709,-46 596,-46"/>
<polygon fill="#f5f5f5" stroke="none" points="596.5,-170 596.5,-192 709.5,-192 709.5,-170 596.5,-170"/>
<polygon fill="none" stroke="black" points="596.5,-170 596.5,-192 709.5,-192 709.5,-170 596.5,-170"/>
<text text-anchor="start" x="601.5" y="-179.2" font-family="Helvetica,sans-Serif" font-weight="bold" font-size="11.00">events</text>
<text text-anchor="start" x="670.5" y="-178.2" font-family="Helvetica,sans-Serif" font-size="11.00">[table]</text>
<polygon fill="none" stroke="black" points="596.5,-148 596.5,-170 709.5,-170 709.5,-148 596.5,-148"/>
<image xlink:href="../../images/primaryKeys.png" width="11px" height="12px" preserveAspectRatio="xMinYMin meet" x="601.5" y="-165"/>
<text text-anchor="start" x="616.5" y="-156.2" font-family="Helvetica,sans-Serif" font-size="11.00">id</text>
<polygon fill="none" stroke="black" points="596.5,-126 596.5,-148 709.5,-148 709.5,-126 596.5,-126"/>
<image xlink:href="../../images/foreignKeys.png" width="11px" height="12px" preserveAspectRatio="xMinYMin meet" x="601.5" y="-143"/>
<text text-anchor="start" x="616.5" y="-134.2" font-family="Helvetica,sans-Serif" font-size="11.00">module_id</text>
<polygon fill="none" stroke="black" points="596.5,-104 596.5,-126 709.5,-126 709.5,-104 596.5,-104"/>
<image xlink:href="../../images/foreignKeys.png" width="11px" height="12px" preserveAspectRatio="xMinYMin meet" x="601.5" y="-121"/>
<text text-anchor="start" x="616.5" y="-112.2" font-family="Helvetica,sans-Serif" font-size="11.00">event_type_id</text>
<polygon fill="none" stroke="black" points="596.5,-82 596.5,-104 709.5,-104 709.5,-82 596.5,-82"/>
<image xlink:href="../../images/foreignKeys.png" width="11px" height="12px" preserveAspectRatio="xMinYMin meet" x="601.5" y="-99"/>
<text text-anchor="start" x="616.5" y="-90.2" font-family="Helvetica,sans-Serif" font-size="11.00">event_status_id</text>
<polygon fill="none" stroke="black" points="596.5,-64 596.5,-82 709.5,-82 709.5,-64 596.5,-64"/>
<text text-anchor="start" x="599.5" y="-70.2" font-family="Helvetica,sans-Serif" font-size="11.00">...</text>
<polygon fill="#ffffff" stroke="none" points="596.5,-46 596.5,-64 631.5,-64 631.5,-46 596.5,-46"/>
<polygon fill="none" stroke="black" points="596.5,-46 596.5,-64 631.5,-64 631.5,-46 596.5,-46"/>
<text text-anchor="start" x="599.5" y="-52.2" font-family="Helvetica,sans-Serif" font-size="11.00">&lt; 3</text>
<polygon fill="#ffffff" stroke="none" points="631.5,-46 631.5,-64 679.5,-64 679.5,-46 631.5,-46"/>
<polygon fill="none" stroke="black" points="631.5,-46 631.5,-64 679.5,-64 679.5,-46 631.5,-46"/>
<text text-anchor="start" x="640.5" y="-52.2" font-family="Helvetica,sans-Serif" font-size="11.00">0 rows</text>
<polygon fill="#ffffff" stroke="none" points="679.5,-46 679.5,-64 709.5,-64 709.5,-46 679.5,-46"/>
<polygon fill="none" stroke="black" points="679.5,-46 679.5,-64 709.5,-64 709.5,-46 679.5,-46"/>
<text text-anchor="start" x="689.5" y="-52.2" font-family="Helvetica,sans-Serif" font-size="11.00">1 &gt;</text>
</a>
</g>
</g>
<!-- events&#45;&gt;modules -->
<g id="edge4" class="edge"><title>events:module_id:w&#45;&gt;modules:id.type:e</title>
<path fill="none" stroke="black" d="M580.983,-139.281C559.261,-147.27 559.201,-175.02 546,-203 512.239,-274.558 583.122,-376 504,-376"/>
<polygon fill="black" stroke="black" points="587.597,-138.242 596.059,-140.556 591.548,-137.621 595.5,-137 595.5,-137 595.5,-137 591.548,-137.621 594.941,-133.444 587.597,-138.242 587.597,-138.242"/>
<ellipse fill="none" stroke="black" cx="584.436" cy="-138.739" rx="3.2" ry="3.2"/>
</g>
</g>
</svg>
