<?xml version="1.0" encoding="UTF-8" standalone="no"?>
<!DOCTYPE svg PUBLIC "-//W3C//DTD SVG 1.1//EN"
 "http://www.w3.org/Graphics/SVG/1.1/DTD/svg11.dtd">
<!-- Generated by graphviz version 2.38.0 (20140413.2041)
 -->
<!-- Title: oneDegreeRelationshipsDiagram Pages: 1 -->
<svg width="526pt" height="321pt"
 viewBox="0.00 0.00 526.00 321.00" xmlns="http://www.w3.org/2000/svg" xmlns:xlink="http://www.w3.org/1999/xlink">
<g id="graph0" class="graph" transform="scale(1 1) rotate(0) translate(4 317)">
<title>oneDegreeRelationshipsDiagram</title>
<polygon fill="#ffffff" stroke="none" points="-4,4 -4,-317 522,-317 522,4 -4,4"/>
<text text-anchor="middle" x="74.5" y="-7.2" font-family="Helvetica,sans-Serif" font-size="11.00">Generated by SchemaSpy</text>
<!-- participant_project_species -->
<g id="node1" class="node"><title>participant_project_species</title>
<g id="a_node1"><a xlink:href="../../tables/participant_project_species.html" xlink:title="participant_project_species" target="_top">
<polygon fill="#ffffff" stroke="none" points="221,-37 221,-301 510,-301 510,-37 221,-37"/>
<polygon fill="#f5f5f5" stroke="none" points="223.5,-277 223.5,-299 508.5,-299 508.5,-277 223.5,-277"/>
<polygon fill="none" stroke="black" points="223.5,-277 223.5,-299 508.5,-299 508.5,-277 223.5,-277"/>
<text text-anchor="start" x="228.5" y="-286.2" font-family="Helvetica,sans-Serif" font-weight="bold" font-size="11.00">participant_project_species</text>
<text text-anchor="start" x="469.5" y="-285.2" font-family="Helvetica,sans-Serif" font-size="11.00">[table]</text>
<polygon fill="none" stroke="black" points="223.5,-255 223.5,-277 406.5,-277 406.5,-255 223.5,-255"/>
<image xlink:href="../../images/primaryKeys.png" width="11px" height="12px" preserveAspectRatio="xMinYMin meet" x="228.5" y="-272"/>
<text text-anchor="start" x="243.5" y="-263.2" font-family="Helvetica,sans-Serif" font-size="11.00">id</text>
<polygon fill="none" stroke="black" points="406.5,-255 406.5,-277 508.5,-277 508.5,-255 406.5,-255"/>
<text text-anchor="start" x="409.5" y="-263.2" font-family="Helvetica,sans-Serif" font-size="11.00">int8[19]</text>
<polygon fill="#ffffff" stroke="none" points="223.5,-233 223.5,-255 406.5,-255 406.5,-233 223.5,-233"/>
<polygon fill="none" stroke="black" points="223.5,-233 223.5,-255 406.5,-255 406.5,-233 223.5,-233"/>
<image xlink:href="../../images/foreignKeys.png" width="11px" height="12px" preserveAspectRatio="xMinYMin meet" x="228.5" y="-250"/>
<text text-anchor="start" x="243.5" y="-241.2" font-family="Helvetica,sans-Serif" font-size="11.00">project_id</text>
<polygon fill="none" stroke="black" points="406.5,-233 406.5,-255 508.5,-255 508.5,-233 406.5,-233"/>
<text text-anchor="start" x="409.5" y="-241.2" font-family="Helvetica,sans-Serif" font-size="11.00">int8[19]</text>
<polygon fill="#ffffff" stroke="none" points="223.5,-211 223.5,-233 406.5,-233 406.5,-211 223.5,-211"/>
<polygon fill="none" stroke="black" points="223.5,-211 223.5,-233 406.5,-233 406.5,-211 223.5,-211"/>
<text text-anchor="start" x="243.5" y="-219.2" font-family="Helvetica,sans-Serif" font-size="11.00">species_id</text>
<polygon fill="none" stroke="black" points="406.5,-211 406.5,-233 508.5,-233 508.5,-211 406.5,-211"/>
<text text-anchor="start" x="409.5" y="-219.2" font-family="Helvetica,sans-Serif" font-size="11.00">int8[19]</text>
<polygon fill="none" stroke="black" points="223.5,-189 223.5,-211 406.5,-211 406.5,-189 223.5,-189"/>
<image xlink:href="../../images/foreignKeys.png" width="11px" height="12px" preserveAspectRatio="xMinYMin meet" x="228.5" y="-206"/>
<text text-anchor="start" x="243.5" y="-197.2" font-family="Helvetica,sans-Serif" font-size="11.00">submission_status_id</text>
<polygon fill="none" stroke="black" points="406.5,-189 406.5,-211 508.5,-211 508.5,-189 406.5,-189"/>
<text text-anchor="start" x="409.5" y="-197.2" font-family="Helvetica,sans-Serif" font-size="11.00">int4[10]</text>
<polygon fill="none" stroke="black" points="223.5,-167 223.5,-189 406.5,-189 406.5,-167 223.5,-167"/>
<text text-anchor="start" x="243.5" y="-175.2" font-family="Helvetica,sans-Serif" font-size="11.00">feedback</text>
<polygon fill="none" stroke="black" points="406.5,-167 406.5,-189 508.5,-189 508.5,-167 406.5,-167"/>
<text text-anchor="start" x="409.5" y="-175.2" font-family="Helvetica,sans-Serif" font-size="11.00">text[2147483647]</text>
<polygon fill="none" stroke="black" points="223.5,-145 223.5,-167 406.5,-167 406.5,-145 223.5,-145"/>
<text text-anchor="start" x="243.5" y="-153.2" font-family="Helvetica,sans-Serif" font-size="11.00">rationale</text>
<polygon fill="none" stroke="black" points="406.5,-145 406.5,-167 508.5,-167 508.5,-145 406.5,-145"/>
<text text-anchor="start" x="409.5" y="-153.2" font-family="Helvetica,sans-Serif" font-size="11.00">text[2147483647]</text>
<polygon fill="none" stroke="black" points="223.5,-123 223.5,-145 406.5,-145 406.5,-123 223.5,-123"/>
<text text-anchor="start" x="243.5" y="-131.2" font-family="Helvetica,sans-Serif" font-size="11.00">created_by</text>
<polygon fill="none" stroke="black" points="406.5,-123 406.5,-145 508.5,-145 508.5,-123 406.5,-123"/>
<text text-anchor="start" x="409.5" y="-131.2" font-family="Helvetica,sans-Serif" font-size="11.00">int8[19]</text>
<polygon fill="none" stroke="black" points="223.5,-101 223.5,-123 406.5,-123 406.5,-101 223.5,-101"/>
<text text-anchor="start" x="243.5" y="-109.2" font-family="Helvetica,sans-Serif" font-size="11.00">modified_by</text>
<polygon fill="none" stroke="black" points="406.5,-101 406.5,-123 508.5,-123 508.5,-101 406.5,-101"/>
<text text-anchor="start" x="409.5" y="-109.2" font-family="Helvetica,sans-Serif" font-size="11.00">int8[19]</text>
<polygon fill="none" stroke="black" points="223.5,-79 223.5,-101 406.5,-101 406.5,-79 223.5,-79"/>
<text text-anchor="start" x="243.5" y="-87.2" font-family="Helvetica,sans-Serif" font-size="11.00">created_time</text>
<polygon fill="none" stroke="black" points="406.5,-79 406.5,-101 508.5,-101 508.5,-79 406.5,-79"/>
<text text-anchor="start" x="409.5" y="-87.2" font-family="Helvetica,sans-Serif" font-size="11.00">timestamptz[35,6]</text>
<polygon fill="none" stroke="black" points="223.5,-57 223.5,-79 406.5,-79 406.5,-57 223.5,-57"/>
<text text-anchor="start" x="243.5" y="-65.2" font-family="Helvetica,sans-Serif" font-size="11.00">modified_time</text>
<polygon fill="none" stroke="black" points="406.5,-57 406.5,-79 508.5,-79 508.5,-57 406.5,-57"/>
<text text-anchor="start" x="409.5" y="-65.2" font-family="Helvetica,sans-Serif" font-size="11.00">timestamptz[35,6]</text>
<polygon fill="#ffffff" stroke="none" points="223.5,-39 223.5,-57 305.5,-57 305.5,-39 223.5,-39"/>
<polygon fill="none" stroke="black" points="223.5,-39 223.5,-57 305.5,-57 305.5,-39 223.5,-39"/>
<text text-anchor="start" x="226.5" y="-45.2" font-family="Helvetica,sans-Serif" font-size="11.00">&lt; 2</text>
<polygon fill="#ffffff" stroke="none" points="305.5,-39 305.5,-57 406.5,-57 406.5,-39 305.5,-39"/>
<polygon fill="none" stroke="black" points="305.5,-39 305.5,-57 406.5,-57 406.5,-39 305.5,-39"/>
<text text-anchor="start" x="367.5" y="-45.2" font-family="Helvetica,sans-Serif" font-size="11.00">0 rows</text>
<polygon fill="#ffffff" stroke="none" points="406.5,-39 406.5,-57 508.5,-57 508.5,-39 406.5,-39"/>
<polygon fill="none" stroke="black" points="406.5,-39 406.5,-57 508.5,-57 508.5,-39 406.5,-39"/>
<text text-anchor="start" x="488.5" y="-45.2" font-family="Helvetica,sans-Serif" font-size="11.00">0 &gt;</text>
<polygon fill="none" stroke="black" stroke-width="2" points="222,-38 222,-300 509,-300 509,-38 222,-38"/>
</a>
</g>
</g>
<!-- public.projects -->
<g id="node2" class="node"><title>public.projects</title>
<g id="a_node2"><a xlink:href="../../../public/tables/projects.html" xlink:title="public.projects" target="_top">
<polygon fill="#ffffff" stroke="none" points="23,-229 23,-309 157,-309 157,-229 23,-229"/>
<polygon fill="#f5f5f5" stroke="none" points="23,-287 23,-309 157,-309 157,-287 23,-287"/>
<polygon fill="none" stroke="black" points="23,-287 23,-309 157,-309 157,-287 23,-287"/>
<text text-anchor="start" x="28" y="-296.2" font-family="Helvetica,sans-Serif" font-weight="bold" font-size="11.00">public.projects</text>
<text text-anchor="start" x="118" y="-295.2" font-family="Helvetica,sans-Serif" font-size="11.00">[table]</text>
<polygon fill="none" stroke="black" points="23,-265 23,-287 157,-287 157,-265 23,-265"/>
<image xlink:href="../../images/foreignKeys.png" width="11px" height="12px" preserveAspectRatio="xMinYMin meet" x="28" y="-282"/>
<text text-anchor="start" x="54" y="-273.2" font-family="Helvetica,sans-Serif" font-size="11.00">participant_id</text>
<polygon fill="none" stroke="black" points="23,-247 23,-265 157,-265 157,-247 23,-247"/>
<text text-anchor="start" x="26" y="-253.2" font-family="Helvetica,sans-Serif" font-size="11.00">...</text>
<polygon fill="#ffffff" stroke="none" points="23,-229 23,-247 69,-247 69,-229 23,-229"/>
<polygon fill="none" stroke="black" points="23,-229 23,-247 69,-247 69,-229 23,-229"/>
<text text-anchor="start" x="26" y="-235.2" font-family="Helvetica,sans-Serif" font-size="11.00">&lt; 1</text>
<polygon fill="#ffffff" stroke="none" points="69,-229 69,-247 122,-247 122,-229 69,-229"/>
<polygon fill="none" stroke="black" points="69,-229 69,-247 122,-247 122,-229 69,-229"/>
<text text-anchor="start" x="83" y="-235.2" font-family="Helvetica,sans-Serif" font-size="11.00">0 rows</text>
<polygon fill="#ffffff" stroke="none" points="122,-229 122,-247 157,-247 157,-229 122,-229"/>
<polygon fill="none" stroke="black" points="122,-229 122,-247 157,-247 157,-229 122,-229"/>
<text text-anchor="start" x="137" y="-235.2" font-family="Helvetica,sans-Serif" font-size="11.00">8 &gt;</text>
</a>
</g>
</g>
<!-- participant_project_species&#45;&gt;public.projects -->
<g id="edge1" class="edge"><title>participant_project_species:project_id:w&#45;&gt;public.projects:id:e</title>
<path fill="none" stroke="black" d="M207.829,-244.466C193.601,-245.336 179.064,-247.346 165.293,-249.861"/>
<polygon fill="black" stroke="black" points="214.504,-244.254 222.614,-247.598 218.502,-244.127 222.5,-244 222.5,-244 222.5,-244 218.502,-244.127 222.386,-240.402 214.504,-244.254 214.504,-244.254"/>
<ellipse fill="none" stroke="black" cx="211.306" cy="-244.356" rx="3.2" ry="3.2"/>
</g>
<!-- submission_statuses -->
<g id="node3" class="node"><title>submission_statuses</title>
<g id="a_node3"><a xlink:href="../../tables/submission_statuses.html" xlink:title="submission_statuses" target="_top">
<polygon fill="#ffffff" stroke="none" points="8,-124 8,-208 172,-208 172,-124 8,-124"/>
<polygon fill="#f5f5f5" stroke="none" points="8,-186 8,-208 172,-208 172,-186 8,-186"/>
<polygon fill="none" stroke="black" points="8,-186 8,-208 172,-208 172,-186 8,-186"/>
<text text-anchor="start" x="13" y="-195.2" font-family="Helvetica,sans-Serif" font-weight="bold" font-size="11.00">submission_statuses</text>
<text text-anchor="start" x="133" y="-194.2" font-family="Helvetica,sans-Serif" font-size="11.00">[table]</text>
<polygon fill="none" stroke="black" points="8,-164 8,-186 172,-186 172,-164 8,-164"/>
<image xlink:href="../../images/primaryKeys.png" width="11px" height="12px" preserveAspectRatio="xMinYMin meet" x="13" y="-181"/>
<text text-anchor="start" x="38" y="-172.2" font-family="Helvetica,sans-Serif" font-size="11.00">id</text>
<polygon fill="#ffffff" stroke="none" points="8,-142 8,-164 172,-164 172,-142 8,-142"/>
<polygon fill="none" stroke="black" points="8,-142 8,-164 172,-164 172,-142 8,-142"/>
<text text-anchor="start" x="38" y="-150.2" font-family="Helvetica,sans-Serif" font-size="11.00">name</text>
<polygon fill="#ffffff" stroke="none" points="8,-124 8,-142 64,-142 64,-124 8,-124"/>
<polygon fill="none" stroke="black" points="8,-124 8,-142 64,-142 64,-124 8,-124"/>
<text text-anchor="start" x="11" y="-130.2" font-family="Helvetica,sans-Serif" font-size="11.00"> &#160;</text>
<polygon fill="#ffffff" stroke="none" points="64,-124 64,-142 127,-142 127,-124 64,-124"/>
<polygon fill="none" stroke="black" points="64,-124 64,-142 127,-142 127,-124 64,-124"/>
<text text-anchor="start" x="88" y="-130.2" font-family="Helvetica,sans-Serif" font-size="11.00">6 rows</text>
<polygon fill="#ffffff" stroke="none" points="127,-124 127,-142 172,-142 172,-124 127,-124"/>
<polygon fill="none" stroke="black" points="127,-124 127,-142 172,-142 172,-124 127,-124"/>
<text text-anchor="start" x="152" y="-130.2" font-family="Helvetica,sans-Serif" font-size="11.00">2 &gt;</text>
</a>
</g>
</g>
<!-- participant_project_species&#45;&gt;submission_statuses -->
<g id="edge2" class="edge"><title>participant_project_species:submission_status_id:w&#45;&gt;submission_statuses:id:e</title>
<path fill="none" stroke="black" d="M208.199,-196.311C196.32,-189.357 191.678,-175 173,-175"/>
<polygon fill="black" stroke="black" points="214.754,-198.002 221.601,-203.486 218.627,-199.001 222.5,-200 222.5,-200 222.5,-200 218.627,-199.001 223.399,-196.514 214.754,-198.002 214.754,-198.002"/>
<ellipse fill="none" stroke="black" cx="211.655" cy="-197.203" rx="3.2" ry="3.2"/>
</g>
</g>
</svg>
