<?xml version="1.0" encoding="UTF-8" standalone="no"?>
<!DOCTYPE svg PUBLIC "-//W3C//DTD SVG 1.1//EN"
 "http://www.w3.org/Graphics/SVG/1.1/DTD/svg11.dtd">
<!-- Generated by graphviz version 2.47.1 (20210515.0534)
 -->
<!-- Title: oneDegreeRelationshipsDiagram Pages: 1 -->
<svg width="841pt" height="639pt"
 viewBox="0.00 0.00 841.00 639.00" xmlns="http://www.w3.org/2000/svg" xmlns:xlink="http://www.w3.org/1999/xlink">
<g id="graph0" class="graph" transform="scale(1 1) rotate(0) translate(4 635)">
<title>oneDegreeRelationshipsDiagram</title>
<polygon fill="#ffffff" stroke="transparent" points="-4,4 -4,-635 837,-635 837,4 -4,4"/>
<text text-anchor="middle" x="73.5" y="-7.2" font-family="Helvetica,sans-Serif" font-size="11.00">Generated by SchemaSpy</text>
<!-- project_indicators -->
<g id="node1" class="node">
<title>project_indicators</title>
<g id="a_node1"><a xlink:href="../../tables/project_indicators.html" xlink:title="project_indicators" target="_top">
<polygon fill="#ffffff" stroke="transparent" points="230,-132 230,-484 474,-484 474,-132 230,-132"/>
<polygon fill="#f5f5f5" stroke="transparent" points="232,-460 232,-482 472,-482 472,-460 232,-460"/>
<polygon fill="none" stroke="black" points="232,-460 232,-482 472,-482 472,-460 232,-460"/>
<text text-anchor="start" x="237" y="-469.2" font-family="Helvetica,sans-Serif" font-weight="bold" font-size="11.00">project_indicators</text>
<text text-anchor="start" x="433" y="-468.2" font-family="Helvetica,sans-Serif" font-size="11.00">[table]</text>
<polygon fill="none" stroke="black" points="232,-438 232,-460 378,-460 378,-438 232,-438"/>
<image xlink:href="../../images/primaryKeys.png" width="11px" height="12px" preserveAspectRatio="xMinYMin meet" x="237" y="-455"/>
<text text-anchor="start" x="252" y="-446.2" font-family="Helvetica,sans-Serif" font-size="11.00">id</text>
<polygon fill="none" stroke="black" points="378,-438 378,-460 472,-460 472,-438 378,-438"/>
<text text-anchor="start" x="381" y="-446.2" font-family="Helvetica,sans-Serif" font-size="11.00">int8[19]</text>
<polygon fill="#ffffff" stroke="transparent" points="232,-416 232,-438 378,-438 378,-416 232,-416"/>
<polygon fill="none" stroke="black" points="232,-416 232,-438 378,-438 378,-416 232,-416"/>
<image xlink:href="../../images/foreignKeys.png" width="11px" height="12px" preserveAspectRatio="xMinYMin meet" x="237" y="-433"/>
<text text-anchor="start" x="252" y="-424.2" font-family="Helvetica,sans-Serif" font-size="11.00">project_id</text>
<polygon fill="none" stroke="black" points="378,-416 378,-438 472,-438 472,-416 378,-416"/>
<text text-anchor="start" x="381" y="-424.2" font-family="Helvetica,sans-Serif" font-size="11.00">int8[19]</text>
<polygon fill="none" stroke="black" points="232,-394 232,-416 378,-416 378,-394 232,-394"/>
<image xlink:href="../../images/foreignKeys.png" width="11px" height="12px" preserveAspectRatio="xMinYMin meet" x="237" y="-411"/>
<text text-anchor="start" x="252" y="-402.2" font-family="Helvetica,sans-Serif" font-size="11.00">level_id</text>
<polygon fill="none" stroke="black" points="378,-394 378,-416 472,-416 472,-394 378,-394"/>
<text text-anchor="start" x="381" y="-402.2" font-family="Helvetica,sans-Serif" font-size="11.00">int4[10]</text>
<polygon fill="none" stroke="black" points="232,-372 232,-394 378,-394 378,-372 232,-372"/>
<image xlink:href="../../images/foreignKeys.png" width="11px" height="12px" preserveAspectRatio="xMinYMin meet" x="237" y="-389"/>
<text text-anchor="start" x="252" y="-380.2" font-family="Helvetica,sans-Serif" font-size="11.00">category_id</text>
<polygon fill="none" stroke="black" points="378,-372 378,-394 472,-394 472,-372 378,-372"/>
<text text-anchor="start" x="381" y="-380.2" font-family="Helvetica,sans-Serif" font-size="11.00">int4[10]</text>
<polygon fill="none" stroke="black" points="232,-350 232,-372 378,-372 378,-350 232,-350"/>
<text text-anchor="start" x="252" y="-358.2" font-family="Helvetica,sans-Serif" font-size="11.00">name</text>
<polygon fill="none" stroke="black" points="378,-350 378,-372 472,-372 472,-350 378,-350"/>
<text text-anchor="start" x="381" y="-358.2" font-family="Helvetica,sans-Serif" font-size="11.00">text[2147483647]</text>
<polygon fill="none" stroke="black" points="232,-328 232,-350 378,-350 378,-328 232,-328"/>
<text text-anchor="start" x="252" y="-336.2" font-family="Helvetica,sans-Serif" font-size="11.00">description</text>
<polygon fill="none" stroke="black" points="378,-328 378,-350 472,-350 472,-328 378,-328"/>
<text text-anchor="start" x="381" y="-336.2" font-family="Helvetica,sans-Serif" font-size="11.00">text[2147483647]</text>
<polygon fill="none" stroke="black" points="232,-306 232,-328 378,-328 378,-306 232,-306"/>
<text text-anchor="start" x="252" y="-314.2" font-family="Helvetica,sans-Serif" font-size="11.00">ref_id</text>
<polygon fill="none" stroke="black" points="378,-306 378,-328 472,-328 472,-306 378,-306"/>
<text text-anchor="start" x="381" y="-314.2" font-family="Helvetica,sans-Serif" font-size="11.00">text[2147483647]</text>
<polygon fill="none" stroke="black" points="232,-284 232,-306 378,-306 378,-284 232,-284"/>
<text text-anchor="start" x="252" y="-292.2" font-family="Helvetica,sans-Serif" font-size="11.00">is_publishable</text>
<polygon fill="none" stroke="black" points="378,-284 378,-306 472,-306 472,-284 378,-284"/>
<text text-anchor="start" x="381" y="-292.2" font-family="Helvetica,sans-Serif" font-size="11.00">bool[1]</text>
<polygon fill="none" stroke="black" points="232,-262 232,-284 378,-284 378,-262 232,-262"/>
<text text-anchor="start" x="252" y="-270.2" font-family="Helvetica,sans-Serif" font-size="11.00">unit</text>
<polygon fill="none" stroke="black" points="378,-262 378,-284 472,-284 472,-262 378,-262"/>
<text text-anchor="start" x="381" y="-270.2" font-family="Helvetica,sans-Serif" font-size="11.00">text[2147483647]</text>
<polygon fill="none" stroke="black" points="232,-240 232,-262 378,-262 378,-240 232,-240"/>
<text text-anchor="start" x="252" y="-248.2" font-family="Helvetica,sans-Serif" font-size="11.00">primary_data_source</text>
<polygon fill="none" stroke="black" points="378,-240 378,-262 472,-262 472,-240 378,-240"/>
<text text-anchor="start" x="381" y="-248.2" font-family="Helvetica,sans-Serif" font-size="11.00">text[2147483647]</text>
<polygon fill="none" stroke="black" points="232,-218 232,-240 378,-240 378,-218 232,-218"/>
<text text-anchor="start" x="252" y="-226.2" font-family="Helvetica,sans-Serif" font-size="11.00">notes</text>
<polygon fill="none" stroke="black" points="378,-218 378,-240 472,-240 472,-218 378,-218"/>
<text text-anchor="start" x="381" y="-226.2" font-family="Helvetica,sans-Serif" font-size="11.00">text[2147483647]</text>
<polygon fill="none" stroke="black" points="232,-196 232,-218 378,-218 378,-196 232,-196"/>
<text text-anchor="start" x="252" y="-204.2" font-family="Helvetica,sans-Serif" font-size="11.00">active</text>
<polygon fill="none" stroke="black" points="378,-196 378,-218 472,-218 472,-196 378,-196"/>
<text text-anchor="start" x="381" y="-204.2" font-family="Helvetica,sans-Serif" font-size="11.00">bool[1]</text>
<polygon fill="none" stroke="black" points="232,-174 232,-196 378,-196 378,-174 232,-174"/>
<image xlink:href="../../images/foreignKeys.png" width="11px" height="12px" preserveAspectRatio="xMinYMin meet" x="237" y="-191"/>
<text text-anchor="start" x="252" y="-182.2" font-family="Helvetica,sans-Serif" font-size="11.00">class_id</text>
<polygon fill="none" stroke="black" points="378,-174 378,-196 472,-196 472,-174 378,-174"/>
<text text-anchor="start" x="381" y="-182.2" font-family="Helvetica,sans-Serif" font-size="11.00">int4[10]</text>
<polygon fill="none" stroke="black" points="232,-152 232,-174 378,-174 378,-152 232,-152"/>
<image xlink:href="../../images/foreignKeys.png" width="11px" height="12px" preserveAspectRatio="xMinYMin meet" x="237" y="-169"/>
<text text-anchor="start" x="252" y="-160.2" font-family="Helvetica,sans-Serif" font-size="11.00">frequency_id</text>
<polygon fill="none" stroke="black" points="378,-152 378,-174 472,-174 472,-152 378,-152"/>
<text text-anchor="start" x="381" y="-160.2" font-family="Helvetica,sans-Serif" font-size="11.00">int4[10]</text>
<polygon fill="#ffffff" stroke="transparent" points="232,-134 232,-152 309,-152 309,-134 232,-134"/>
<polygon fill="none" stroke="black" points="232,-134 232,-152 309,-152 309,-134 232,-134"/>
<text text-anchor="start" x="235" y="-140.2" font-family="Helvetica,sans-Serif" font-size="11.00">&lt; 5</text>
<polygon fill="#ffffff" stroke="transparent" points="309,-134 309,-152 378,-152 378,-134 309,-134"/>
<polygon fill="none" stroke="black" points="309,-134 309,-152 378,-152 378,-134 309,-134"/>
<text text-anchor="start" x="368" y="-140.2" font-family="Helvetica,sans-Serif" font-size="11.00"> &#160;</text>
<polygon fill="#ffffff" stroke="transparent" points="378,-134 378,-152 472,-152 472,-134 378,-134"/>
<polygon fill="none" stroke="black" points="378,-134 378,-152 472,-152 472,-134 378,-134"/>
<text text-anchor="start" x="453" y="-140.2" font-family="Helvetica,sans-Serif" font-size="11.00">4 &gt;</text>
<polygon fill="none" stroke="black" stroke-width="2" points="231,-133 231,-483 473,-483 473,-133 231,-133"/>
</a>
</g>
</g>
<!-- indicator_categories -->
<g id="node2" class="node">
<title>indicator_categories</title>
<g id="a_node2"><a xlink:href="../../tables/indicator_categories.html" xlink:title="indicator_categories" target="_top">
<polygon fill="#ffffff" stroke="transparent" points="12,-262 12,-346 177,-346 177,-262 12,-262"/>
<polygon fill="#f5f5f5" stroke="transparent" points="12.5,-324 12.5,-346 177.5,-346 177.5,-324 12.5,-324"/>
<polygon fill="none" stroke="black" points="12.5,-324 12.5,-346 177.5,-346 177.5,-324 12.5,-324"/>
<text text-anchor="start" x="17.5" y="-333.2" font-family="Helvetica,sans-Serif" font-weight="bold" font-size="11.00">indicator_categories</text>
<text text-anchor="start" x="138.5" y="-332.2" font-family="Helvetica,sans-Serif" font-size="11.00">[table]</text>
<polygon fill="none" stroke="black" points="12.5,-302 12.5,-324 177.5,-324 177.5,-302 12.5,-302"/>
<image xlink:href="../../images/primaryKeys.png" width="11px" height="12px" preserveAspectRatio="xMinYMin meet" x="17.5" y="-319"/>
<text text-anchor="start" x="44.5" y="-310.2" font-family="Helvetica,sans-Serif" font-size="11.00">id</text>
<polygon fill="#ffffff" stroke="transparent" points="12.5,-280 12.5,-302 177.5,-302 177.5,-280 12.5,-280"/>
<polygon fill="none" stroke="black" points="12.5,-280 12.5,-302 177.5,-302 177.5,-280 12.5,-280"/>
<text text-anchor="start" x="44.5" y="-288.2" font-family="Helvetica,sans-Serif" font-size="11.00">name</text>
<polygon fill="#ffffff" stroke="transparent" points="12.5,-262 12.5,-280 83.5,-280 83.5,-262 12.5,-262"/>
<polygon fill="none" stroke="black" points="12.5,-262 12.5,-280 83.5,-280 83.5,-262 12.5,-262"/>
<text text-anchor="start" x="15.5" y="-268.2" font-family="Helvetica,sans-Serif" font-size="11.00"> &#160;</text>
<polygon fill="#ffffff" stroke="transparent" points="83.5,-262 83.5,-280 125.5,-280 125.5,-262 83.5,-262"/>
<polygon fill="none" stroke="black" points="83.5,-262 83.5,-280 125.5,-280 125.5,-262 83.5,-262"/>
<text text-anchor="start" x="115.5" y="-268.2" font-family="Helvetica,sans-Serif" font-size="11.00"> &#160;</text>
<polygon fill="#ffffff" stroke="transparent" points="125.5,-262 125.5,-280 177.5,-280 177.5,-262 125.5,-262"/>
<polygon fill="none" stroke="black" points="125.5,-262 125.5,-280 177.5,-280 177.5,-262 125.5,-262"/>
<text text-anchor="start" x="158.5" y="-268.2" font-family="Helvetica,sans-Serif" font-size="11.00">3 &gt;</text>
</a>
</g>
</g>
<!-- project_indicators&#45;&gt;indicator_categories -->
<g id="edge1" class="edge">
<title>project_indicators:w&#45;&gt;indicator_categories:e</title>
<path fill="none" stroke="black" d="M217.24,-378.62C198.32,-363.3 211.46,-313 178.5,-313"/>
<polygon fill="black" stroke="black" points="223.38,-380.57 229.91,-386.43 227.19,-381.79 231,-383 231,-383 231,-383 227.19,-381.79 232.09,-379.57 223.38,-380.57 223.38,-380.57"/>
<ellipse fill="none" stroke="black" cx="220.33" cy="-379.6" rx="3.2" ry="3.2"/>
</g>
<!-- indicator_classes -->
<g id="node3" class="node">
<title>indicator_classes</title>
<g id="a_node3"><a xlink:href="../../tables/indicator_classes.html" xlink:title="indicator_classes" target="_top">
<polygon fill="#ffffff" stroke="transparent" points="22,-142 22,-226 167,-226 167,-142 22,-142"/>
<polygon fill="#f5f5f5" stroke="transparent" points="22.5,-204 22.5,-226 167.5,-226 167.5,-204 22.5,-204"/>
<polygon fill="none" stroke="black" points="22.5,-204 22.5,-226 167.5,-226 167.5,-204 22.5,-204"/>
<text text-anchor="start" x="27.5" y="-213.2" font-family="Helvetica,sans-Serif" font-weight="bold" font-size="11.00">indicator_classes</text>
<text text-anchor="start" x="128.5" y="-212.2" font-family="Helvetica,sans-Serif" font-size="11.00">[table]</text>
<polygon fill="none" stroke="black" points="22.5,-182 22.5,-204 167.5,-204 167.5,-182 22.5,-182"/>
<image xlink:href="../../images/primaryKeys.png" width="11px" height="12px" preserveAspectRatio="xMinYMin meet" x="27.5" y="-199"/>
<text text-anchor="start" x="54.5" y="-190.2" font-family="Helvetica,sans-Serif" font-size="11.00">id</text>
<polygon fill="#ffffff" stroke="transparent" points="22.5,-160 22.5,-182 167.5,-182 167.5,-160 22.5,-160"/>
<polygon fill="none" stroke="black" points="22.5,-160 22.5,-182 167.5,-182 167.5,-160 22.5,-160"/>
<text text-anchor="start" x="54.5" y="-168.2" font-family="Helvetica,sans-Serif" font-size="11.00">name</text>
<polygon fill="#ffffff" stroke="transparent" points="22.5,-142 22.5,-160 83.5,-160 83.5,-142 22.5,-142"/>
<polygon fill="none" stroke="black" points="22.5,-142 22.5,-160 83.5,-160 83.5,-142 22.5,-142"/>
<text text-anchor="start" x="25.5" y="-148.2" font-family="Helvetica,sans-Serif" font-size="11.00"> &#160;</text>
<polygon fill="#ffffff" stroke="transparent" points="83.5,-142 83.5,-160 120.5,-160 120.5,-142 83.5,-142"/>
<polygon fill="none" stroke="black" points="83.5,-142 83.5,-160 120.5,-160 120.5,-142 83.5,-142"/>
<text text-anchor="start" x="110.5" y="-148.2" font-family="Helvetica,sans-Serif" font-size="11.00"> &#160;</text>
<polygon fill="#ffffff" stroke="transparent" points="120.5,-142 120.5,-160 167.5,-160 167.5,-142 120.5,-142"/>
<polygon fill="none" stroke="black" points="120.5,-142 120.5,-160 167.5,-160 167.5,-142 120.5,-142"/>
<text text-anchor="start" x="148.5" y="-148.2" font-family="Helvetica,sans-Serif" font-size="11.00">3 &gt;</text>
</a>
</g>
</g>
<!-- project_indicators&#45;&gt;indicator_classes -->
<g id="edge2" class="edge">
<title>project_indicators:w&#45;&gt;indicator_classes:e</title>
<path fill="none" stroke="black" d="M216.24,-185.86C199.47,-187.92 190.82,-193 168.5,-193"/>
<polygon fill="black" stroke="black" points="223.01,-185.46 231.21,-188.59 227.01,-185.23 231,-185 231,-185 231,-185 227.01,-185.23 230.79,-181.41 223.01,-185.46 223.01,-185.46"/>
<ellipse fill="none" stroke="black" cx="219.82" cy="-185.65" rx="3.2" ry="3.2"/>
</g>
<!-- indicator_frequencies -->
<g id="node4" class="node">
<title>indicator_frequencies</title>
<g id="a_node4"><a xlink:href="../../tables/indicator_frequencies.html" xlink:title="indicator_frequencies" target="_top">
<polygon fill="#ffffff" stroke="transparent" points="8,-37 8,-121 181,-121 181,-37 8,-37"/>
<polygon fill="#f5f5f5" stroke="transparent" points="8.5,-99 8.5,-121 181.5,-121 181.5,-99 8.5,-99"/>
<polygon fill="none" stroke="black" points="8.5,-99 8.5,-121 181.5,-121 181.5,-99 8.5,-99"/>
<text text-anchor="start" x="13.5" y="-108.2" font-family="Helvetica,sans-Serif" font-weight="bold" font-size="11.00">indicator_frequencies</text>
<text text-anchor="start" x="142.5" y="-107.2" font-family="Helvetica,sans-Serif" font-size="11.00">[table]</text>
<polygon fill="none" stroke="black" points="8.5,-77 8.5,-99 181.5,-99 181.5,-77 8.5,-77"/>
<image xlink:href="../../images/primaryKeys.png" width="11px" height="12px" preserveAspectRatio="xMinYMin meet" x="13.5" y="-94"/>
<text text-anchor="start" x="40.5" y="-85.2" font-family="Helvetica,sans-Serif" font-size="11.00">id</text>
<polygon fill="#ffffff" stroke="transparent" points="8.5,-55 8.5,-77 181.5,-77 181.5,-55 8.5,-55"/>
<polygon fill="none" stroke="black" points="8.5,-55 8.5,-77 181.5,-77 181.5,-55 8.5,-55"/>
<text text-anchor="start" x="40.5" y="-63.2" font-family="Helvetica,sans-Serif" font-size="11.00">name</text>
<polygon fill="#ffffff" stroke="transparent" points="8.5,-37 8.5,-55 83.5,-55 83.5,-37 8.5,-37"/>
<polygon fill="none" stroke="black" points="8.5,-37 8.5,-55 83.5,-55 83.5,-37 8.5,-37"/>
<text text-anchor="start" x="11.5" y="-43.2" font-family="Helvetica,sans-Serif" font-size="11.00"> &#160;</text>
<polygon fill="#ffffff" stroke="transparent" points="83.5,-37 83.5,-55 127.5,-55 127.5,-37 83.5,-37"/>
<polygon fill="none" stroke="black" points="83.5,-37 83.5,-55 127.5,-55 127.5,-37 83.5,-37"/>
<text text-anchor="start" x="117.5" y="-43.2" font-family="Helvetica,sans-Serif" font-size="11.00"> &#160;</text>
<polygon fill="#ffffff" stroke="transparent" points="127.5,-37 127.5,-55 181.5,-55 181.5,-37 127.5,-37"/>
<polygon fill="none" stroke="black" points="127.5,-37 127.5,-55 181.5,-55 181.5,-37 127.5,-37"/>
<text text-anchor="start" x="162.5" y="-43.2" font-family="Helvetica,sans-Serif" font-size="11.00">3 &gt;</text>
</a>
</g>
</g>
<!-- project_indicators&#45;&gt;indicator_frequencies -->
<g id="edge3" class="edge">
<title>project_indicators:w&#45;&gt;indicator_frequencies:e</title>
<path fill="none" stroke="black" d="M217.27,-158.31C199.08,-141.89 216.15,-88 182.5,-88"/>
<polygon fill="black" stroke="black" points="223.43,-160.41 229.84,-166.41 227.21,-161.71 231,-163 231,-163 231,-163 227.21,-161.71 232.16,-159.59 223.43,-160.41 223.43,-160.41"/>
<ellipse fill="none" stroke="black" cx="220.4" cy="-159.38" rx="3.2" ry="3.2"/>
</g>
<!-- indicator_levels -->
<g id="node5" class="node">
<title>indicator_levels</title>
<g id="a_node5"><a xlink:href="../../tables/indicator_levels.html" xlink:title="indicator_levels" target="_top">
<polygon fill="#ffffff" stroke="transparent" points="26,-367 26,-451 163,-451 163,-367 26,-367"/>
<polygon fill="#f5f5f5" stroke="transparent" points="26.5,-429 26.5,-451 163.5,-451 163.5,-429 26.5,-429"/>
<polygon fill="none" stroke="black" points="26.5,-429 26.5,-451 163.5,-451 163.5,-429 26.5,-429"/>
<text text-anchor="start" x="31.5" y="-438.2" font-family="Helvetica,sans-Serif" font-weight="bold" font-size="11.00">indicator_levels</text>
<text text-anchor="start" x="124.5" y="-437.2" font-family="Helvetica,sans-Serif" font-size="11.00">[table]</text>
<polygon fill="none" stroke="black" points="26.5,-407 26.5,-429 163.5,-429 163.5,-407 26.5,-407"/>
<image xlink:href="../../images/primaryKeys.png" width="11px" height="12px" preserveAspectRatio="xMinYMin meet" x="31.5" y="-424"/>
<text text-anchor="start" x="58.5" y="-415.2" font-family="Helvetica,sans-Serif" font-size="11.00">id</text>
<polygon fill="#ffffff" stroke="transparent" points="26.5,-385 26.5,-407 163.5,-407 163.5,-385 26.5,-385"/>
<polygon fill="none" stroke="black" points="26.5,-385 26.5,-407 163.5,-407 163.5,-385 26.5,-385"/>
<text text-anchor="start" x="58.5" y="-393.2" font-family="Helvetica,sans-Serif" font-size="11.00">name</text>
<polygon fill="#ffffff" stroke="transparent" points="26.5,-367 26.5,-385 83.5,-385 83.5,-367 26.5,-367"/>
<polygon fill="none" stroke="black" points="26.5,-367 26.5,-385 83.5,-385 83.5,-367 26.5,-367"/>
<text text-anchor="start" x="29.5" y="-373.2" font-family="Helvetica,sans-Serif" font-size="11.00"> &#160;</text>
<polygon fill="#ffffff" stroke="transparent" points="83.5,-367 83.5,-385 118.5,-385 118.5,-367 83.5,-367"/>
<polygon fill="none" stroke="black" points="83.5,-367 83.5,-385 118.5,-385 118.5,-367 83.5,-367"/>
<text text-anchor="start" x="108.5" y="-373.2" font-family="Helvetica,sans-Serif" font-size="11.00"> &#160;</text>
<polygon fill="#ffffff" stroke="transparent" points="118.5,-367 118.5,-385 163.5,-385 163.5,-367 118.5,-367"/>
<polygon fill="none" stroke="black" points="118.5,-367 118.5,-385 163.5,-385 163.5,-367 118.5,-367"/>
<text text-anchor="start" x="144.5" y="-373.2" font-family="Helvetica,sans-Serif" font-size="11.00">3 &gt;</text>
</a>
</g>
</g>
<!-- project_indicators&#45;&gt;indicator_levels -->
<g id="edge4" class="edge">
<title>project_indicators:w&#45;&gt;indicator_levels:e</title>
<path fill="none" stroke="black" d="M216.53,-406.15C197.78,-409.34 189.09,-418 164.5,-418"/>
<polygon fill="black" stroke="black" points="223.03,-405.64 231.29,-408.59 227.01,-405.32 231,-405 231,-405 231,-405 227.01,-405.32 230.71,-401.41 223.03,-405.64 223.03,-405.64"/>
<ellipse fill="none" stroke="black" cx="219.84" cy="-405.89" rx="3.2" ry="3.2"/>
</g>
<!-- public.projects -->
<g id="node6" class="node">
<title>public.projects</title>
<g id="a_node6"><a xlink:href="../../../public/tables/projects.html" xlink:title="public.projects" target="_top">
<polygon fill="#ffffff" stroke="transparent" points="28.5,-480 28.5,-560 160.5,-560 160.5,-480 28.5,-480"/>
<polygon fill="#f5f5f5" stroke="transparent" points="28.5,-538 28.5,-560 160.5,-560 160.5,-538 28.5,-538"/>
<polygon fill="none" stroke="black" points="28.5,-538 28.5,-560 160.5,-560 160.5,-538 28.5,-538"/>
<text text-anchor="start" x="33.5" y="-547.2" font-family="Helvetica,sans-Serif" font-weight="bold" font-size="11.00">public.projects</text>
<text text-anchor="start" x="121.5" y="-546.2" font-family="Helvetica,sans-Serif" font-size="11.00">[table]</text>
<polygon fill="none" stroke="black" points="28.5,-516 28.5,-538 160.5,-538 160.5,-516 28.5,-516"/>
<image xlink:href="../../images/foreignKeys.png" width="11px" height="12px" preserveAspectRatio="xMinYMin meet" x="33.5" y="-533"/>
<text text-anchor="start" x="58.5" y="-524.2" font-family="Helvetica,sans-Serif" font-size="11.00">phase_id</text>
<polygon fill="none" stroke="black" points="28.5,-498 28.5,-516 160.5,-516 160.5,-498 28.5,-498"/>
<text text-anchor="start" x="31.5" y="-504.2" font-family="Helvetica,sans-Serif" font-size="11.00">...</text>
<polygon fill="#ffffff" stroke="transparent" points="28.5,-480 28.5,-498 71.5,-498 71.5,-480 28.5,-480"/>
<polygon fill="none" stroke="black" points="28.5,-480 28.5,-498 71.5,-498 71.5,-480 28.5,-480"/>
<text text-anchor="start" x="31.5" y="-486.2" font-family="Helvetica,sans-Serif" font-size="11.00">&lt; 1</text>
<polygon fill="#ffffff" stroke="transparent" points="71.5,-480 71.5,-498 121.5,-498 121.5,-480 71.5,-480"/>
<polygon fill="none" stroke="black" points="71.5,-480 71.5,-498 121.5,-498 121.5,-480 71.5,-480"/>
<text text-anchor="start" x="84.5" y="-486.2" font-family="Helvetica,sans-Serif" font-size="11.00">0 rows</text>
<polygon fill="#ffffff" stroke="transparent" points="121.5,-480 121.5,-498 160.5,-498 160.5,-480 121.5,-480"/>
<polygon fill="none" stroke="black" points="121.5,-480 121.5,-498 160.5,-498 160.5,-480 121.5,-480"/>
<text text-anchor="start" x="135.5" y="-486.2" font-family="Helvetica,sans-Serif" font-size="11.00">19 &gt;</text>
</a>
</g>
</g>
<!-- project_indicators&#45;&gt;public.projects -->
<g id="edge5" class="edge">
<title>project_indicators:w&#45;&gt;public.projects:e</title>
<path fill="none" stroke="black" d="M216.96,-430.47C206.35,-436.98 203.78,-451.34 189,-462 182.49,-466.69 175.61,-471.41 168.64,-476.01"/>
<polygon fill="black" stroke="black" points="223.23,-428.92 231.86,-430.49 227.12,-427.96 231,-427 231,-427 231,-427 227.12,-427.96 230.14,-423.51 223.23,-428.92 223.23,-428.92"/>
<ellipse fill="none" stroke="black" cx="220.13" cy="-429.69" rx="3.2" ry="3.2"/>
</g>
<!-- report_project_indicator_targets -->
<g id="node7" class="node">
<title>report_project_indicator_targets</title>
<g id="a_node7"><a xlink:href="../../tables/report_project_indicator_targets.html" xlink:title="report_project_indicator_targets" target="_top">
<polygon fill="#ffffff" stroke="transparent" points="556,-503 556,-627 792,-627 792,-503 556,-503"/>
<polygon fill="#f5f5f5" stroke="transparent" points="556,-605 556,-627 792,-627 792,-605 556,-605"/>
<polygon fill="none" stroke="black" points="556,-605 556,-627 792,-627 792,-605 556,-605"/>
<text text-anchor="start" x="561" y="-614.2" font-family="Helvetica,sans-Serif" font-weight="bold" font-size="11.00">report_project_indicator_targets</text>
<text text-anchor="start" x="753" y="-613.2" font-family="Helvetica,sans-Serif" font-size="11.00">[table]</text>
<polygon fill="none" stroke="black" points="556,-583 556,-605 792,-605 792,-583 556,-583"/>
<image xlink:href="../../images/primaryKeys.png" width="11px" height="12px" preserveAspectRatio="xMinYMin meet" x="561" y="-600"/>
<text text-anchor="start" x="588" y="-591.2" font-family="Helvetica,sans-Serif" font-size="11.00">project_id</text>
<polygon fill="none" stroke="black" points="556,-561 556,-583 792,-583 792,-561 556,-561"/>
<image xlink:href="../../images/primaryKeys.png" width="11px" height="12px" preserveAspectRatio="xMinYMin meet" x="561" y="-578"/>
<text text-anchor="start" x="588" y="-569.2" font-family="Helvetica,sans-Serif" font-size="11.00">project_indicator_id</text>
<polygon fill="none" stroke="black" points="556,-539 556,-561 792,-561 792,-539 556,-539"/>
<image xlink:href="../../images/primaryKeys.png" width="11px" height="12px" preserveAspectRatio="xMinYMin meet" x="561" y="-556"/>
<text text-anchor="start" x="588" y="-547.2" font-family="Helvetica,sans-Serif" font-size="11.00">year</text>
<polygon fill="none" stroke="black" points="556,-521 556,-539 792,-539 792,-521 556,-521"/>
<text text-anchor="start" x="559" y="-527.2" font-family="Helvetica,sans-Serif" font-size="11.00">...</text>
<polygon fill="#ffffff" stroke="transparent" points="556,-503 556,-521 672,-521 672,-503 556,-503"/>
<polygon fill="none" stroke="black" points="556,-503 556,-521 672,-521 672,-503 556,-503"/>
<text text-anchor="start" x="559" y="-509.2" font-family="Helvetica,sans-Serif" font-size="11.00">&lt; 2</text>
<polygon fill="#ffffff" stroke="transparent" points="672,-503 672,-521 732,-521 732,-503 672,-503"/>
<polygon fill="none" stroke="black" points="672,-503 672,-521 732,-521 732,-503 672,-503"/>
<text text-anchor="start" x="722" y="-509.2" font-family="Helvetica,sans-Serif" font-size="11.00"> &#160;</text>
<polygon fill="#ffffff" stroke="transparent" points="732,-503 732,-521 792,-521 792,-503 732,-503"/>
<polygon fill="none" stroke="black" points="732,-503 732,-521 792,-521 792,-503 732,-503"/>
<text text-anchor="start" x="782" y="-509.2" font-family="Helvetica,sans-Serif" font-size="11.00"> &#160;</text>
</a>
</g>
</g>
<!-- report_project_indicator_targets&#45;&gt;project_indicators -->
<g id="edge7" class="edge">
<title>report_project_indicator_targets:w&#45;&gt;project_indicators:e</title>
<path fill="none" stroke="black" d="M540.75,-569.54C496.79,-552.21 533.18,-449 473,-449"/>
<polygon fill="black" stroke="black" points="547.12,-570.64 554.39,-575.55 551.06,-571.32 555,-572 555,-572 555,-572 551.06,-571.32 555.61,-568.45 547.12,-570.64 547.12,-570.64"/>
<ellipse fill="none" stroke="black" cx="543.96" cy="-570.1" rx="3.2" ry="3.2"/>
</g>
<!-- report_project_indicator_targets&#45;&gt;public.projects -->
<g id="edge6" class="edge">
<title>report_project_indicator_targets:w&#45;&gt;public.projects:e</title>
<path fill="none" stroke="black" d="M540.38,-593.88C405.98,-591.7 255.52,-560.31 168.53,-539.15"/>
<polygon fill="black" stroke="black" points="547,-593.93 554.97,-597.6 551,-593.97 555,-594 555,-594 555,-594 551,-593.97 555.03,-590.4 547,-593.93 547,-593.93"/>
<ellipse fill="none" stroke="black" cx="543.8" cy="-593.91" rx="3.2" ry="3.2"/>
</g>
<!-- report_project_indicators -->
<g id="node8" class="node">
<title>report_project_indicators</title>
<g id="a_node8"><a xlink:href="../../tables/report_project_indicators.html" xlink:title="report_project_indicators" target="_top">
<polygon fill="#ffffff" stroke="transparent" points="577,-235 577,-359 771,-359 771,-235 577,-235"/>
<polygon fill="#f5f5f5" stroke="transparent" points="577,-337 577,-359 771,-359 771,-337 577,-337"/>
<polygon fill="none" stroke="black" points="577,-337 577,-359 771,-359 771,-337 577,-337"/>
<text text-anchor="start" x="582" y="-346.2" font-family="Helvetica,sans-Serif" font-weight="bold" font-size="11.00">report_project_indicators</text>
<text text-anchor="start" x="732" y="-345.2" font-family="Helvetica,sans-Serif" font-size="11.00">[table]</text>
<polygon fill="none" stroke="black" points="577,-315 577,-337 771,-337 771,-315 577,-315"/>
<image xlink:href="../../images/primaryKeys.png" width="11px" height="12px" preserveAspectRatio="xMinYMin meet" x="582" y="-332"/>
<text text-anchor="start" x="609" y="-323.2" font-family="Helvetica,sans-Serif" font-size="11.00">report_id</text>
<polygon fill="none" stroke="black" points="577,-293 577,-315 771,-315 771,-293 577,-293"/>
<image xlink:href="../../images/primaryKeys.png" width="11px" height="12px" preserveAspectRatio="xMinYMin meet" x="582" y="-310"/>
<text text-anchor="start" x="609" y="-301.2" font-family="Helvetica,sans-Serif" font-size="11.00">project_indicator_id</text>
<polygon fill="none" stroke="black" points="577,-271 577,-293 771,-293 771,-271 577,-271"/>
<image xlink:href="../../images/foreignKeys.png" width="11px" height="12px" preserveAspectRatio="xMinYMin meet" x="582" y="-288"/>
<text text-anchor="start" x="609" y="-279.2" font-family="Helvetica,sans-Serif" font-size="11.00">status_id</text>
<polygon fill="none" stroke="black" points="577,-253 577,-271 771,-271 771,-253 577,-253"/>
<text text-anchor="start" x="580" y="-259.2" font-family="Helvetica,sans-Serif" font-size="11.00">...</text>
<polygon fill="#ffffff" stroke="transparent" points="577,-235 577,-253 672,-253 672,-235 577,-235"/>
<polygon fill="none" stroke="black" points="577,-235 577,-253 672,-253 672,-235 577,-235"/>
<text text-anchor="start" x="580" y="-241.2" font-family="Helvetica,sans-Serif" font-size="11.00">&lt; 3</text>
<polygon fill="#ffffff" stroke="transparent" points="672,-235 672,-253 721,-253 721,-235 672,-235"/>
<polygon fill="none" stroke="black" points="672,-235 672,-253 721,-253 721,-235 672,-235"/>
<text text-anchor="start" x="711" y="-241.2" font-family="Helvetica,sans-Serif" font-size="11.00"> &#160;</text>
<polygon fill="#ffffff" stroke="transparent" points="721,-235 721,-253 771,-253 771,-235 721,-235"/>
<polygon fill="none" stroke="black" points="721,-235 721,-253 771,-253 771,-235 721,-235"/>
<text text-anchor="start" x="761" y="-241.2" font-family="Helvetica,sans-Serif" font-size="11.00"> &#160;</text>
</a>
</g>
</g>
<!-- report_project_indicators&#45;&gt;project_indicators -->
<g id="edge8" class="edge">
<title>report_project_indicators:w&#45;&gt;project_indicators:e</title>
<path fill="none" stroke="black" d="M561.45,-305.89C536.14,-313.39 534.87,-342.01 515,-370 491.98,-402.42 512.76,-449 473,-449"/>
<polygon fill="black" stroke="black" points="568.07,-305.03 576.46,-307.57 572.03,-304.51 576,-304 576,-304 576,-304 572.03,-304.51 575.54,-300.43 568.07,-305.03 568.07,-305.03"/>
<ellipse fill="none" stroke="black" cx="564.89" cy="-305.44" rx="3.2" ry="3.2"/>
</g>
<!-- funder.published_project_indicator_targets -->
<g id="node9" class="node">
<title>funder.published_project_indicator_targets</title>
<g id="a_node9"><a xlink:href="../../../funder/tables/published_project_indicator_targets.html" xlink:title="funder.published_project_indicator_targets" target="_top">
<polygon fill="#ffffff" stroke="transparent" points="523.5,-134 523.5,-214 824.5,-214 824.5,-134 523.5,-134"/>
<polygon fill="#f5f5f5" stroke="transparent" points="524,-192 524,-214 825,-214 825,-192 524,-192"/>
<polygon fill="none" stroke="black" points="524,-192 524,-214 825,-214 825,-192 524,-192"/>
<text text-anchor="start" x="529" y="-201.2" font-family="Helvetica,sans-Serif" font-weight="bold" font-size="11.00">funder.published_project_indicator_targets</text>
<text text-anchor="start" x="786" y="-200.2" font-family="Helvetica,sans-Serif" font-size="11.00">[table]</text>
<polygon fill="none" stroke="black" points="524,-170 524,-192 825,-192 825,-170 524,-170"/>
<image xlink:href="../../images/foreignKeys.png" width="11px" height="12px" preserveAspectRatio="xMinYMin meet" x="529" y="-187"/>
<text text-anchor="start" x="578" y="-178.2" font-family="Helvetica,sans-Serif" font-size="11.00">project_indicator_id</text>
<polygon fill="none" stroke="black" points="524,-152 524,-170 825,-170 825,-152 524,-152"/>
<text text-anchor="start" x="527" y="-158.2" font-family="Helvetica,sans-Serif" font-size="11.00">...</text>
<polygon fill="#ffffff" stroke="transparent" points="524,-134 524,-152 659,-152 659,-134 524,-134"/>
<polygon fill="none" stroke="black" points="524,-134 524,-152 659,-152 659,-134 524,-134"/>
<text text-anchor="start" x="527" y="-140.2" font-family="Helvetica,sans-Serif" font-size="11.00">&lt; 1</text>
<polygon fill="#ffffff" stroke="transparent" points="659,-134 659,-152 755,-152 755,-134 659,-134"/>
<polygon fill="none" stroke="black" points="659,-134 659,-152 755,-152 755,-134 659,-134"/>
<text text-anchor="start" x="718" y="-140.2" font-family="Helvetica,sans-Serif" font-size="11.00">0 rows</text>
<polygon fill="#ffffff" stroke="transparent" points="755,-134 755,-152 825,-152 825,-134 755,-134"/>
<polygon fill="none" stroke="black" points="755,-134 755,-152 825,-152 825,-134 755,-134"/>
<text text-anchor="start" x="815" y="-140.2" font-family="Helvetica,sans-Serif" font-size="11.00"> &#160;</text>
</a>
</g>
</g>
<!-- funder.published_project_indicator_targets&#45;&gt;project_indicators -->
<g id="edge9" class="edge">
<title>funder.published_project_indicator_targets:w&#45;&gt;project_indicators:e</title>
<path fill="none" stroke="black" d="M508.51,-182.57C418.48,-204.54 588.72,-449 473,-449"/>
<polygon fill="black" stroke="black" points="515.05,-181.86 523.39,-184.58 519.02,-181.43 523,-181 523,-181 523,-181 519.02,-181.43 522.61,-177.42 515.05,-181.86 515.05,-181.86"/>
<ellipse fill="none" stroke="black" cx="511.87" cy="-182.21" rx="3.2" ry="3.2"/>
</g>
<!-- funder.published_report_project_indicators -->
<g id="node10" class="node">
<title>funder.published_report_project_indicators</title>
<g id="a_node10"><a xlink:href="../../../funder/tables/published_report_project_indicators.html" xlink:title="funder.published_report_project_indicators" target="_top">
<polygon fill="#ffffff" stroke="transparent" points="523,-380 523,-482 825,-482 825,-380 523,-380"/>
<polygon fill="#f5f5f5" stroke="transparent" points="523,-460 523,-482 825,-482 825,-460 523,-460"/>
<polygon fill="none" stroke="black" points="523,-460 523,-482 825,-482 825,-460 523,-460"/>
<text text-anchor="start" x="528" y="-469.2" font-family="Helvetica,sans-Serif" font-weight="bold" font-size="11.00">funder.published_report_project_indicators</text>
<text text-anchor="start" x="786" y="-468.2" font-family="Helvetica,sans-Serif" font-size="11.00">[table]</text>
<polygon fill="none" stroke="black" points="523,-438 523,-460 825,-460 825,-438 523,-438"/>
<image xlink:href="../../images/foreignKeys.png" width="11px" height="12px" preserveAspectRatio="xMinYMin meet" x="528" y="-455"/>
<text text-anchor="start" x="577" y="-446.2" font-family="Helvetica,sans-Serif" font-size="11.00">project_indicator_id</text>
<polygon fill="none" stroke="black" points="523,-416 523,-438 825,-438 825,-416 523,-416"/>
<image xlink:href="../../images/foreignKeys.png" width="11px" height="12px" preserveAspectRatio="xMinYMin meet" x="528" y="-433"/>
<text text-anchor="start" x="577" y="-424.2" font-family="Helvetica,sans-Serif" font-size="11.00">status_id</text>
<polygon fill="none" stroke="black" points="523,-398 523,-416 825,-416 825,-398 523,-398"/>
<text text-anchor="start" x="526" y="-404.2" font-family="Helvetica,sans-Serif" font-size="11.00">...</text>
<polygon fill="#ffffff" stroke="transparent" points="523,-380 523,-398 658,-398 658,-380 523,-380"/>
<polygon fill="none" stroke="black" points="523,-380 523,-398 658,-398 658,-380 523,-380"/>
<text text-anchor="start" x="526" y="-386.2" font-family="Helvetica,sans-Serif" font-size="11.00">&lt; 2</text>
<polygon fill="#ffffff" stroke="transparent" points="658,-380 658,-398 755,-398 755,-380 658,-380"/>
<polygon fill="none" stroke="black" points="658,-380 658,-398 755,-398 755,-380 658,-380"/>
<text text-anchor="start" x="718" y="-386.2" font-family="Helvetica,sans-Serif" font-size="11.00">0 rows</text>
<polygon fill="#ffffff" stroke="transparent" points="755,-380 755,-398 825,-398 825,-380 755,-380"/>
<polygon fill="none" stroke="black" points="755,-380 755,-398 825,-398 825,-380 755,-380"/>
<text text-anchor="start" x="815" y="-386.2" font-family="Helvetica,sans-Serif" font-size="11.00"> &#160;</text>
</a>
</g>
</g>
<!-- funder.published_report_project_indicators&#45;&gt;project_indicators -->
<g id="edge10" class="edge">
<title>funder.published_report_project_indicators:w&#45;&gt;project_indicators:e</title>
<path fill="none" stroke="black" d="M507.49,-449C496.18,-449 488.99,-449 473,-449"/>
<polygon fill="black" stroke="black" points="514,-449 522,-452.6 518,-449 522,-449 522,-449 522,-449 518,-449 522,-445.4 514,-449 514,-449"/>
<ellipse fill="none" stroke="black" cx="510.8" cy="-449" rx="3.2" ry="3.2"/>
</g>
</g>
</svg>
