<?xml version="1.0" encoding="UTF-8" standalone="no"?>
<!DOCTYPE svg PUBLIC "-//W3C//DTD SVG 1.1//EN"
 "http://www.w3.org/Graphics/SVG/1.1/DTD/svg11.dtd">
<!-- Generated by graphviz version 2.47.1 (20210515.0534)
 -->
<!-- Title: oneDegreeRelationshipsDiagram Pages: 1 -->
<svg width="701pt" height="261pt"
 viewBox="0.00 0.00 701.00 261.00" xmlns="http://www.w3.org/2000/svg" xmlns:xlink="http://www.w3.org/1999/xlink">
<g id="graph0" class="graph" transform="scale(1 1) rotate(0) translate(4 257)">
<title>oneDegreeRelationshipsDiagram</title>
<polygon fill="#ffffff" stroke="transparent" points="-4,4 -4,-257 697,-257 697,4 -4,4"/>
<text text-anchor="middle" x="73.5" y="-7.2" font-family="Helvetica,sans-Serif" font-size="11.00">Generated by SchemaSpy</text>
<!-- project_vote_decisions -->
<g id="node1" class="node">
<title>project_vote_decisions</title>
<g id="a_node1"><a xlink:href="../../tables/project_vote_decisions.html" xlink:title="project_vote_decisions" target="_top">
<polygon fill="#ffffff" stroke="transparent" points="426,-70 426,-202 685,-202 685,-70 426,-70"/>
<polygon fill="#f5f5f5" stroke="transparent" points="428.5,-178 428.5,-200 683.5,-200 683.5,-178 428.5,-178"/>
<polygon fill="none" stroke="black" points="428.5,-178 428.5,-200 683.5,-200 683.5,-178 428.5,-178"/>
<text text-anchor="start" x="433.5" y="-187.2" font-family="Helvetica,sans-Serif" font-weight="bold" font-size="11.00">project_vote_decisions</text>
<text text-anchor="start" x="644.5" y="-186.2" font-family="Helvetica,sans-Serif" font-size="11.00">[table]</text>
<polygon fill="none" stroke="black" points="428.5,-156 428.5,-178 583.5,-178 583.5,-156 428.5,-156"/>
<image xlink:href="../../images/primaryKeys.png" width="11px" height="12px" preserveAspectRatio="xMinYMin meet" x="433.5" y="-173"/>
<text text-anchor="start" x="448.5" y="-164.2" font-family="Helvetica,sans-Serif" font-size="11.00">project_id</text>
<polygon fill="none" stroke="black" points="583.5,-156 583.5,-178 683.5,-178 683.5,-156 583.5,-156"/>
<text text-anchor="start" x="586.5" y="-164.2" font-family="Helvetica,sans-Serif" font-size="11.00">int8[19]</text>
<polygon fill="none" stroke="black" points="428.5,-134 428.5,-156 583.5,-156 583.5,-134 428.5,-134"/>
<image xlink:href="../../images/primaryKeys.png" width="11px" height="12px" preserveAspectRatio="xMinYMin meet" x="433.5" y="-151"/>
<text text-anchor="start" x="448.5" y="-142.2" font-family="Helvetica,sans-Serif" font-size="11.00">phase_id</text>
<polygon fill="none" stroke="black" points="583.5,-134 583.5,-156 683.5,-156 683.5,-134 583.5,-134"/>
<text text-anchor="start" x="586.5" y="-142.2" font-family="Helvetica,sans-Serif" font-size="11.00">int4[10]</text>
<polygon fill="none" stroke="black" points="428.5,-112 428.5,-134 583.5,-134 583.5,-112 428.5,-112"/>
<image xlink:href="../../images/foreignKeys.png" width="11px" height="12px" preserveAspectRatio="xMinYMin meet" x="433.5" y="-129"/>
<text text-anchor="start" x="448.5" y="-120.2" font-family="Helvetica,sans-Serif" font-size="11.00">vote_option_id</text>
<polygon fill="none" stroke="black" points="583.5,-112 583.5,-134 683.5,-134 683.5,-112 583.5,-112"/>
<text text-anchor="start" x="586.5" y="-120.2" font-family="Helvetica,sans-Serif" font-size="11.00">int4[10]</text>
<polygon fill="none" stroke="black" points="428.5,-90 428.5,-112 583.5,-112 583.5,-90 428.5,-90"/>
<text text-anchor="start" x="448.5" y="-98.2" font-family="Helvetica,sans-Serif" font-size="11.00">modified_time</text>
<polygon fill="none" stroke="black" points="583.5,-90 583.5,-112 683.5,-112 683.5,-90 583.5,-90"/>
<text text-anchor="start" x="586.5" y="-98.2" font-family="Helvetica,sans-Serif" font-size="11.00">timestamptz[35,6]</text>
<polygon fill="#ffffff" stroke="transparent" points="428.5,-72 428.5,-90 510.5,-90 510.5,-72 428.5,-72"/>
<polygon fill="none" stroke="black" points="428.5,-72 428.5,-90 510.5,-90 510.5,-72 428.5,-72"/>
<text text-anchor="start" x="431.5" y="-78.2" font-family="Helvetica,sans-Serif" font-size="11.00">&lt; 3</text>
<polygon fill="#ffffff" stroke="transparent" points="510.5,-72 510.5,-90 583.5,-90 583.5,-72 510.5,-72"/>
<polygon fill="none" stroke="black" points="510.5,-72 510.5,-90 583.5,-90 583.5,-72 510.5,-72"/>
<text text-anchor="start" x="573.5" y="-78.2" font-family="Helvetica,sans-Serif" font-size="11.00"> &#160;</text>
<polygon fill="#ffffff" stroke="transparent" points="583.5,-72 583.5,-90 683.5,-90 683.5,-72 583.5,-72"/>
<polygon fill="none" stroke="black" points="583.5,-72 583.5,-90 683.5,-90 683.5,-72 583.5,-72"/>
<text text-anchor="start" x="664.5" y="-78.2" font-family="Helvetica,sans-Serif" font-size="11.00">0 &gt;</text>
<polygon fill="none" stroke="black" stroke-width="2" points="427,-71 427,-201 684,-201 684,-71 427,-71"/>
</a>
</g>
</g>
<!-- accelerator_phases -->
<g id="node2" class="node">
<title>accelerator_phases</title>
<g id="a_node2"><a xlink:href="../../tables/accelerator_phases.html" xlink:title="accelerator_phases" target="_top">
<polygon fill="#ffffff" stroke="transparent" points="8,-129 8,-213 166,-213 166,-129 8,-129"/>
<polygon fill="#f5f5f5" stroke="transparent" points="8,-191 8,-213 166,-213 166,-191 8,-191"/>
<polygon fill="none" stroke="black" points="8,-191 8,-213 166,-213 166,-191 8,-191"/>
<text text-anchor="start" x="13" y="-200.2" font-family="Helvetica,sans-Serif" font-weight="bold" font-size="11.00">accelerator_phases</text>
<text text-anchor="start" x="127" y="-199.2" font-family="Helvetica,sans-Serif" font-size="11.00">[table]</text>
<polygon fill="none" stroke="black" points="8,-169 8,-191 166,-191 166,-169 8,-169"/>
<image xlink:href="../../images/primaryKeys.png" width="11px" height="12px" preserveAspectRatio="xMinYMin meet" x="13" y="-186"/>
<text text-anchor="start" x="40" y="-177.2" font-family="Helvetica,sans-Serif" font-size="11.00">id</text>
<polygon fill="#ffffff" stroke="transparent" points="8,-147 8,-169 166,-169 166,-147 8,-147"/>
<polygon fill="none" stroke="black" points="8,-147 8,-169 166,-169 166,-147 8,-147"/>
<text text-anchor="start" x="40" y="-155.2" font-family="Helvetica,sans-Serif" font-size="11.00">name</text>
<polygon fill="#ffffff" stroke="transparent" points="8,-129 8,-147 76,-147 76,-129 8,-129"/>
<polygon fill="none" stroke="black" points="8,-129 8,-147 76,-147 76,-129 8,-129"/>
<text text-anchor="start" x="11" y="-135.2" font-family="Helvetica,sans-Serif" font-size="11.00"> &#160;</text>
<polygon fill="#ffffff" stroke="transparent" points="76,-129 76,-147 116,-147 116,-129 76,-129"/>
<polygon fill="none" stroke="black" points="76,-129 76,-147 116,-147 116,-129 76,-129"/>
<text text-anchor="start" x="106" y="-135.2" font-family="Helvetica,sans-Serif" font-size="11.00"> &#160;</text>
<polygon fill="#ffffff" stroke="transparent" points="116,-129 116,-147 166,-147 166,-129 116,-129"/>
<polygon fill="none" stroke="black" points="116,-129 116,-147 166,-147 166,-129 116,-129"/>
<text text-anchor="start" x="147" y="-135.2" font-family="Helvetica,sans-Serif" font-size="11.00">5 &gt;</text>
</a>
</g>
</g>
<!-- project_vote_decisions&#45;&gt;accelerator_phases -->
<g id="edge1" class="edge">
<title>project_vote_decisions:w&#45;&gt;accelerator_phases:e</title>
<path fill="none" stroke="black" d="M413.07,-144.91C326.31,-143.83 296.75,-133.83 207,-159 187.67,-164.42 187.08,-180 167,-180"/>
<polygon fill="black" stroke="black" points="419.5,-144.95 427.48,-148.6 423.5,-144.98 427.5,-145 427.5,-145 427.5,-145 423.5,-144.98 427.52,-141.4 419.5,-144.95 419.5,-144.95"/>
<ellipse fill="none" stroke="black" cx="416.3" cy="-144.93" rx="3.2" ry="3.2"/>
</g>
<!-- public.projects -->
<g id="node3" class="node">
<title>public.projects</title>
<g id="a_node3"><a xlink:href="../../../public/tables/projects.html" xlink:title="public.projects" target="_top">
<polygon fill="#ffffff" stroke="transparent" points="215,-169 215,-249 377,-249 377,-169 215,-169"/>
<polygon fill="#f5f5f5" stroke="transparent" points="215,-227 215,-249 377,-249 377,-227 215,-227"/>
<polygon fill="none" stroke="black" points="215,-227 215,-249 377,-249 377,-227 215,-227"/>
<text text-anchor="start" x="220" y="-236.2" font-family="Helvetica,sans-Serif" font-weight="bold" font-size="11.00">public.projects</text>
<text text-anchor="start" x="338" y="-235.2" font-family="Helvetica,sans-Serif" font-size="11.00">[table]</text>
<polygon fill="none" stroke="black" points="215,-205 215,-227 377,-227 377,-205 215,-205"/>
<image xlink:href="../../images/foreignKeys.png" width="11px" height="12px" preserveAspectRatio="xMinYMin meet" x="220" y="-222"/>
<text text-anchor="start" x="235" y="-213.2" font-family="Helvetica,sans-Serif" font-size="11.00">phase_id</text>
<polygon fill="none" stroke="black" points="215,-187 215,-205 377,-205 377,-187 215,-187"/>
<text text-anchor="start" x="218" y="-193.2" font-family="Helvetica,sans-Serif" font-size="11.00">...</text>
<polygon fill="#ffffff" stroke="transparent" points="215,-169 215,-187 273,-187 273,-169 215,-169"/>
<polygon fill="none" stroke="black" points="215,-169 215,-187 273,-187 273,-169 215,-169"/>
<text text-anchor="start" x="218" y="-175.2" font-family="Helvetica,sans-Serif" font-size="11.00">&lt; 1</text>
<polygon fill="#ffffff" stroke="transparent" points="273,-169 273,-187 331,-187 331,-169 273,-169"/>
<polygon fill="none" stroke="black" points="273,-169 273,-187 331,-187 331,-169 273,-169"/>
<text text-anchor="start" x="294" y="-175.2" font-family="Helvetica,sans-Serif" font-size="11.00">0 rows</text>
<polygon fill="#ffffff" stroke="transparent" points="331,-169 331,-187 377,-187 377,-169 331,-169"/>
<polygon fill="none" stroke="black" points="331,-169 331,-187 377,-187 377,-169 331,-169"/>
<text text-anchor="start" x="352" y="-175.2" font-family="Helvetica,sans-Serif" font-size="11.00">22 &gt;</text>
</a>
</g>
</g>
<!-- project_vote_decisions&#45;&gt;public.projects -->
<g id="edge2" class="edge">
<title>project_vote_decisions:w&#45;&gt;public.projects:e</title>
<path fill="none" stroke="black" d="M413.02,-167.74C403.75,-168.65 394.43,-170.36 385.31,-172.58"/>
<polygon fill="black" stroke="black" points="419.51,-167.41 427.68,-170.6 423.51,-167.2 427.5,-167 427.5,-167 427.5,-167 423.51,-167.2 427.32,-163.4 419.51,-167.41 419.51,-167.41"/>
<ellipse fill="none" stroke="black" cx="416.31" cy="-167.57" rx="3.2" ry="3.2"/>
</g>
<!-- vote_options -->
<g id="node4" class="node">
<title>vote_options</title>
<g id="a_node4"><a xlink:href="../../tables/vote_options.html" xlink:title="vote_options" target="_top">
<polygon fill="#ffffff" stroke="transparent" points="236,-37 236,-121 356,-121 356,-37 236,-37"/>
<polygon fill="#f5f5f5" stroke="transparent" points="236,-99 236,-121 356,-121 356,-99 236,-99"/>
<polygon fill="none" stroke="black" points="236,-99 236,-121 356,-121 356,-99 236,-99"/>
<text text-anchor="start" x="241" y="-108.2" font-family="Helvetica,sans-Serif" font-weight="bold" font-size="11.00">vote_options</text>
<text text-anchor="start" x="317" y="-107.2" font-family="Helvetica,sans-Serif" font-size="11.00">[table]</text>
<polygon fill="none" stroke="black" points="236,-77 236,-99 356,-99 356,-77 236,-77"/>
<image xlink:href="../../images/primaryKeys.png" width="11px" height="12px" preserveAspectRatio="xMinYMin meet" x="241" y="-94"/>
<text text-anchor="start" x="268" y="-85.2" font-family="Helvetica,sans-Serif" font-size="11.00">id</text>
<polygon fill="#ffffff" stroke="transparent" points="236,-55 236,-77 356,-77 356,-55 236,-55"/>
<polygon fill="none" stroke="black" points="236,-55 236,-77 356,-77 356,-55 236,-55"/>
<text text-anchor="start" x="268" y="-63.2" font-family="Helvetica,sans-Serif" font-size="11.00">name</text>
<polygon fill="#ffffff" stroke="transparent" points="236,-37 236,-55 285,-55 285,-37 236,-37"/>
<polygon fill="none" stroke="black" points="236,-37 236,-55 285,-55 285,-37 236,-37"/>
<text text-anchor="start" x="239" y="-43.2" font-family="Helvetica,sans-Serif" font-size="11.00"> &#160;</text>
<polygon fill="#ffffff" stroke="transparent" points="285,-37 285,-55 316,-55 316,-37 285,-37"/>
<polygon fill="none" stroke="black" points="285,-37 285,-55 316,-55 316,-37 285,-37"/>
<text text-anchor="start" x="306" y="-43.2" font-family="Helvetica,sans-Serif" font-size="11.00"> &#160;</text>
<polygon fill="#ffffff" stroke="transparent" points="316,-37 316,-55 356,-55 356,-37 316,-37"/>
<polygon fill="none" stroke="black" points="316,-37 316,-55 356,-55 356,-37 316,-37"/>
<text text-anchor="start" x="337" y="-43.2" font-family="Helvetica,sans-Serif" font-size="11.00">2 &gt;</text>
</a>
</g>
</g>
<!-- project_vote_decisions&#45;&gt;vote_options -->
<g id="edge3" class="edge">
<title>project_vote_decisions:w&#45;&gt;vote_options:e</title>
<path fill="none" stroke="black" d="M413.06,-120.59C391.46,-112.69 386.38,-88 357,-88"/>
<polygon fill="black" stroke="black" points="419.61,-121.69 426.91,-126.55 423.55,-122.34 427.5,-123 427.5,-123 427.5,-123 423.55,-122.34 428.09,-119.45 419.61,-121.69 419.61,-121.69"/>
<ellipse fill="none" stroke="black" cx="416.45" cy="-121.16" rx="3.2" ry="3.2"/>
</g>
<!-- public.projects&#45;&gt;accelerator_phases -->
<g id="edge4" class="edge">
<title>public.projects:w&#45;&gt;accelerator_phases:e</title>
<path fill="none" stroke="black" d="M200.29,-211.29C188.6,-201.54 187.35,-180 167,-180"/>
<polygon fill="black" stroke="black" points="206.43,-213.4 212.83,-219.4 210.22,-214.7 214,-216 214,-216 214,-216 210.22,-214.7 215.17,-212.6 206.43,-213.4 206.43,-213.4"/>
<ellipse fill="none" stroke="black" cx="203.41" cy="-212.36" rx="3.2" ry="3.2"/>
</g>
</g>
</svg>
