<?xml version="1.0" encoding="UTF-8" standalone="no"?>
<!DOCTYPE svg PUBLIC "-//W3C//DTD SVG 1.1//EN"
 "http://www.w3.org/Graphics/SVG/1.1/DTD/svg11.dtd">
<!-- Generated by graphviz version 2.47.1 (20210515.0534)
 -->
<!-- Title: twoDegreesRelationshipsDiagram Pages: 1 -->
<svg width="859pt" height="452pt"
 viewBox="0.00 0.00 859.00 452.00" xmlns="http://www.w3.org/2000/svg" xmlns:xlink="http://www.w3.org/1999/xlink">
<g id="graph0" class="graph" transform="scale(1 1) rotate(0) translate(4 448)">
<title>twoDegreesRelationshipsDiagram</title>
<polygon fill="#ffffff" stroke="transparent" points="-4,4 -4,-448 855,-448 855,4 -4,4"/>
<text text-anchor="middle" x="73.5" y="-7.2" font-family="Helvetica,sans-Serif" font-size="11.00">Generated by SchemaSpy</text>
<!-- project_report_configs -->
<g id="node1" class="node">
<title>project_report_configs</title>
<g id="a_node1"><a xlink:href="../../tables/project_report_configs.html" xlink:title="project_report_configs" target="_top">
<polygon fill="#ffffff" stroke="transparent" points="289,-222 289,-280 466,-280 466,-222 289,-222"/>
<polygon fill="#f5f5f5" stroke="transparent" points="289.5,-258 289.5,-280 466.5,-280 466.5,-258 289.5,-258"/>
<polygon fill="none" stroke="black" points="289.5,-258 289.5,-280 466.5,-280 466.5,-258 289.5,-258"/>
<text text-anchor="start" x="294.5" y="-267.2" font-family="Helvetica,sans-Serif" font-weight="bold" font-size="11.00">project_report_configs</text>
<text text-anchor="start" x="427.5" y="-266.2" font-family="Helvetica,sans-Serif" font-size="11.00">[table]</text>
<polygon fill="none" stroke="black" points="289.5,-240 289.5,-258 466.5,-258 466.5,-240 289.5,-240"/>
<text text-anchor="start" x="292.5" y="-246.2" font-family="Helvetica,sans-Serif" font-size="11.00">...</text>
<polygon fill="#ffffff" stroke="transparent" points="289.5,-222 289.5,-240 371.5,-240 371.5,-222 289.5,-222"/>
<polygon fill="none" stroke="black" points="289.5,-222 289.5,-240 371.5,-240 371.5,-222 289.5,-222"/>
<text text-anchor="start" x="292.5" y="-228.2" font-family="Helvetica,sans-Serif" font-size="11.00">&lt; 2</text>
<polygon fill="#ffffff" stroke="transparent" points="371.5,-222 371.5,-240 414.5,-240 414.5,-222 371.5,-222"/>
<polygon fill="none" stroke="black" points="371.5,-222 371.5,-240 414.5,-240 414.5,-222 371.5,-222"/>
<text text-anchor="start" x="404.5" y="-228.2" font-family="Helvetica,sans-Serif" font-size="11.00"> &#160;</text>
<polygon fill="#ffffff" stroke="transparent" points="414.5,-222 414.5,-240 466.5,-240 466.5,-222 414.5,-222"/>
<polygon fill="none" stroke="black" points="414.5,-222 414.5,-240 466.5,-240 466.5,-222 414.5,-222"/>
<text text-anchor="start" x="447.5" y="-228.2" font-family="Helvetica,sans-Serif" font-size="11.00">3 &gt;</text>
</a>
</g>
</g>
<!-- public.projects -->
<g id="node2" class="node">
<title>public.projects</title>
<g id="a_node2"><a xlink:href="../../../public/tables/projects.html" xlink:title="public.projects" target="_top">
<polygon fill="#ffffff" stroke="transparent" points="58,-271 58,-329 190,-329 190,-271 58,-271"/>
<polygon fill="#f5f5f5" stroke="transparent" points="58,-307 58,-329 190,-329 190,-307 58,-307"/>
<polygon fill="none" stroke="black" points="58,-307 58,-329 190,-329 190,-307 58,-307"/>
<text text-anchor="start" x="63" y="-316.2" font-family="Helvetica,sans-Serif" font-weight="bold" font-size="11.00">public.projects</text>
<text text-anchor="start" x="151" y="-315.2" font-family="Helvetica,sans-Serif" font-size="11.00">[table]</text>
<polygon fill="none" stroke="black" points="58,-289 58,-307 190,-307 190,-289 58,-289"/>
<text text-anchor="start" x="61" y="-295.2" font-family="Helvetica,sans-Serif" font-size="11.00">...</text>
<polygon fill="#ffffff" stroke="transparent" points="58,-271 58,-289 101,-289 101,-271 58,-271"/>
<polygon fill="none" stroke="black" points="58,-271 58,-289 101,-289 101,-271 58,-271"/>
<text text-anchor="start" x="61" y="-277.2" font-family="Helvetica,sans-Serif" font-size="11.00">&lt; 1</text>
<polygon fill="#ffffff" stroke="transparent" points="101,-271 101,-289 151,-289 151,-271 101,-271"/>
<polygon fill="none" stroke="black" points="101,-271 101,-289 151,-289 151,-271 101,-271"/>
<text text-anchor="start" x="114" y="-277.2" font-family="Helvetica,sans-Serif" font-size="11.00">0 rows</text>
<polygon fill="#ffffff" stroke="transparent" points="151,-271 151,-289 190,-289 190,-271 151,-271"/>
<polygon fill="none" stroke="black" points="151,-271 151,-289 190,-289 190,-271 151,-271"/>
<text text-anchor="start" x="165" y="-277.2" font-family="Helvetica,sans-Serif" font-size="11.00">14 &gt;</text>
</a>
</g>
</g>
<!-- project_report_configs&#45;&gt;public.projects -->
<g id="edge1" class="edge">
<title>project_report_configs:w&#45;&gt;public.projects:e</title>
<path fill="none" stroke="black" d="M269.8,-287.56C244.29,-293.63 216.93,-298 191,-298"/>
<polygon fill="black" stroke="black" points="276,-285.99 284.64,-287.52 279.88,-285.01 283.76,-284.03 283.76,-284.03 283.76,-284.03 279.88,-285.01 282.88,-280.54 276,-285.99 276,-285.99"/>
<ellipse fill="none" stroke="black" cx="272.9" cy="-286.77" rx="3.2" ry="3.2"/>
</g>
<!-- report_frequencies -->
<g id="node3" class="node">
<title>report_frequencies</title>
<g id="a_node3"><a xlink:href="../../tables/report_frequencies.html" xlink:title="report_frequencies" target="_top">
<polygon fill="#ffffff" stroke="transparent" points="8,-156 8,-244 240,-244 240,-156 8,-156"/>
<polygon fill="#f5f5f5" stroke="transparent" points="10,-220 10,-242 238,-242 238,-220 10,-220"/>
<polygon fill="none" stroke="black" points="10,-220 10,-242 238,-242 238,-220 10,-220"/>
<text text-anchor="start" x="15" y="-229.2" font-family="Helvetica,sans-Serif" font-weight="bold" font-size="11.00">report_frequencies</text>
<text text-anchor="start" x="199" y="-228.2" font-family="Helvetica,sans-Serif" font-size="11.00">[table]</text>
<polygon fill="none" stroke="black" points="10,-198 10,-220 144,-220 144,-198 10,-198"/>
<image xlink:href="../../images/primaryKeys.png" width="11px" height="12px" preserveAspectRatio="xMinYMin meet" x="15" y="-215"/>
<text text-anchor="start" x="30" y="-206.2" font-family="Helvetica,sans-Serif" font-size="11.00">id</text>
<polygon fill="none" stroke="black" points="144,-198 144,-220 238,-220 238,-198 144,-198"/>
<text text-anchor="start" x="147" y="-206.2" font-family="Helvetica,sans-Serif" font-size="11.00">int4[10]</text>
<polygon fill="#ffffff" stroke="transparent" points="10,-176 10,-198 144,-198 144,-176 10,-176"/>
<polygon fill="none" stroke="black" points="10,-176 10,-198 144,-198 144,-176 10,-176"/>
<text text-anchor="start" x="30" y="-184.2" font-family="Helvetica,sans-Serif" font-size="11.00">name</text>
<polygon fill="none" stroke="black" points="144,-176 144,-198 238,-198 238,-176 144,-176"/>
<text text-anchor="start" x="147" y="-184.2" font-family="Helvetica,sans-Serif" font-size="11.00">text[2147483647]</text>
<polygon fill="#ffffff" stroke="transparent" points="10,-158 10,-176 81,-176 81,-158 10,-158"/>
<polygon fill="none" stroke="black" points="10,-158 10,-176 81,-176 81,-158 10,-158"/>
<text text-anchor="start" x="13" y="-164.2" font-family="Helvetica,sans-Serif" font-size="11.00">&lt; 0</text>
<polygon fill="#ffffff" stroke="transparent" points="81,-158 81,-176 144,-176 144,-158 81,-158"/>
<polygon fill="none" stroke="black" points="81,-158 81,-176 144,-176 144,-158 81,-158"/>
<text text-anchor="start" x="134" y="-164.2" font-family="Helvetica,sans-Serif" font-size="11.00"> &#160;</text>
<polygon fill="#ffffff" stroke="transparent" points="144,-158 144,-176 238,-176 238,-158 144,-158"/>
<polygon fill="none" stroke="black" points="144,-158 144,-176 238,-176 238,-158 144,-158"/>
<text text-anchor="start" x="219" y="-164.2" font-family="Helvetica,sans-Serif" font-size="11.00">2 &gt;</text>
<polygon fill="none" stroke="black" stroke-width="2" points="9,-157 9,-243 239,-243 239,-157 9,-157"/>
</a>
</g>
</g>
<!-- project_report_configs&#45;&gt;report_frequencies -->
<g id="edge2" class="edge">
<title>project_report_configs:w&#45;&gt;report_frequencies:e</title>
<path fill="none" stroke="black" d="M282.21,-214.32C267.94,-211.08 253.23,-209 239,-209"/>
<polygon fill="black" stroke="black" points="288.54,-215.93 295.41,-221.4 292.42,-216.92 296.3,-217.91 296.3,-217.91 296.3,-217.91 292.42,-216.92 297.18,-214.42 288.54,-215.93 288.54,-215.93"/>
<ellipse fill="none" stroke="black" cx="285.44" cy="-215.14" rx="3.2" ry="3.2"/>
</g>
<!-- report_achievements -->
<g id="node4" class="node">
<title>report_achievements</title>
<g id="a_node4"><a xlink:href="../../tables/report_achievements.html" xlink:title="report_achievements" target="_top">
<polygon fill="#ffffff" stroke="transparent" points="662,-382 662,-440 833,-440 833,-382 662,-382"/>
<polygon fill="#f5f5f5" stroke="transparent" points="662.5,-418 662.5,-440 833.5,-440 833.5,-418 662.5,-418"/>
<polygon fill="none" stroke="black" points="662.5,-418 662.5,-440 833.5,-440 833.5,-418 662.5,-418"/>
<text text-anchor="start" x="667.5" y="-427.2" font-family="Helvetica,sans-Serif" font-weight="bold" font-size="11.00">report_achievements</text>
<text text-anchor="start" x="794.5" y="-426.2" font-family="Helvetica,sans-Serif" font-size="11.00">[table]</text>
<polygon fill="none" stroke="black" points="662.5,-400 662.5,-418 833.5,-418 833.5,-400 662.5,-400"/>
<text text-anchor="start" x="665.5" y="-406.2" font-family="Helvetica,sans-Serif" font-size="11.00">...</text>
<polygon fill="#ffffff" stroke="transparent" points="662.5,-382 662.5,-400 745.5,-400 745.5,-382 662.5,-382"/>
<polygon fill="none" stroke="black" points="662.5,-382 662.5,-400 745.5,-400 745.5,-382 662.5,-382"/>
<text text-anchor="start" x="665.5" y="-388.2" font-family="Helvetica,sans-Serif" font-size="11.00">&lt; 1</text>
<polygon fill="#ffffff" stroke="transparent" points="745.5,-382 745.5,-400 789.5,-400 789.5,-382 745.5,-382"/>
<polygon fill="none" stroke="black" points="745.5,-382 745.5,-400 789.5,-400 789.5,-382 745.5,-382"/>
<text text-anchor="start" x="779.5" y="-388.2" font-family="Helvetica,sans-Serif" font-size="11.00"> &#160;</text>
<polygon fill="#ffffff" stroke="transparent" points="789.5,-382 789.5,-400 833.5,-400 833.5,-382 789.5,-382"/>
<polygon fill="none" stroke="black" points="789.5,-382 789.5,-400 833.5,-400 833.5,-382 789.5,-382"/>
<text text-anchor="start" x="823.5" y="-388.2" font-family="Helvetica,sans-Serif" font-size="11.00"> &#160;</text>
</a>
</g>
</g>
<!-- reports -->
<g id="node5" class="node">
<title>reports</title>
<g id="a_node5"><a xlink:href="../../tables/reports.html" xlink:title="reports" target="_top">
<polygon fill="#ffffff" stroke="transparent" points="515,-222 515,-280 603,-280 603,-222 515,-222"/>
<polygon fill="#f5f5f5" stroke="transparent" points="515,-258 515,-280 603,-280 603,-258 515,-258"/>
<polygon fill="none" stroke="black" points="515,-258 515,-280 603,-280 603,-258 515,-258"/>
<text text-anchor="start" x="519.5" y="-267.2" font-family="Helvetica,sans-Serif" font-weight="bold" font-size="11.00">reports</text>
<text text-anchor="start" x="564" y="-266.2" font-family="Helvetica,sans-Serif" font-size="11.00">[table]</text>
<polygon fill="none" stroke="black" points="515,-240 515,-258 603,-258 603,-240 515,-240"/>
<text text-anchor="start" x="518" y="-246.2" font-family="Helvetica,sans-Serif" font-size="11.00">...</text>
<polygon fill="#ffffff" stroke="transparent" points="515,-222 515,-240 552,-240 552,-222 515,-222"/>
<polygon fill="none" stroke="black" points="515,-222 515,-240 552,-240 552,-222 515,-222"/>
<text text-anchor="start" x="518" y="-228.2" font-family="Helvetica,sans-Serif" font-size="11.00">&lt; 7</text>
<polygon fill="#ffffff" stroke="transparent" points="552,-222 552,-240 573,-240 573,-222 552,-222"/>
<polygon fill="none" stroke="black" points="552,-222 552,-240 573,-240 573,-222 552,-222"/>
<text text-anchor="start" x="563" y="-228.2" font-family="Helvetica,sans-Serif" font-size="11.00"> &#160;</text>
<polygon fill="#ffffff" stroke="transparent" points="573,-222 573,-240 603,-240 603,-222 573,-222"/>
<polygon fill="none" stroke="black" points="573,-222 573,-240 603,-240 603,-222 573,-222"/>
<text text-anchor="start" x="584" y="-228.2" font-family="Helvetica,sans-Serif" font-size="11.00">5 &gt;</text>
</a>
</g>
</g>
<!-- report_achievements&#45;&gt;reports -->
<g id="edge3" class="edge">
<title>report_achievements:w&#45;&gt;reports:e</title>
<path fill="none" stroke="black" d="M647.04,-407.33C598.25,-395.74 575.44,-326.47 565.92,-284.12"/>
<polygon fill="black" stroke="black" points="653.55,-408.08 661.09,-412.58 657.53,-408.54 661.5,-409 661.5,-409 661.5,-409 657.53,-408.54 661.91,-405.42 653.55,-408.08 653.55,-408.08"/>
<ellipse fill="none" stroke="black" cx="650.37" cy="-407.72" rx="3.2" ry="3.2"/>
</g>
<!-- reports&#45;&gt;project_report_configs -->
<g id="edge8" class="edge">
<title>reports:w&#45;&gt;project_report_configs:e</title>
<path fill="none" stroke="black" d="M491.93,-241.56C486.07,-241.4 480.07,-241.31 474.03,-241.27"/>
<polygon fill="black" stroke="black" points="498.57,-241.8 506.43,-245.68 502.57,-241.94 506.56,-242.09 506.56,-242.09 506.56,-242.09 502.57,-241.94 506.69,-238.49 498.57,-241.8 498.57,-241.8"/>
<ellipse fill="none" stroke="black" cx="495.37" cy="-241.68" rx="3.2" ry="3.2"/>
</g>
<!-- reports&#45;&gt;project_report_configs -->
<g id="edge9" class="edge">
<title>reports:w&#45;&gt;project_report_configs:e</title>
<path fill="none" stroke="black" d="M491.93,-251C486.07,-251 480.07,-251 474.03,-251"/>
<polygon fill="black" stroke="black" points="498.56,-251 506.56,-254.6 502.56,-251 506.56,-251 506.56,-251 506.56,-251 502.56,-251 506.56,-247.4 498.56,-251 498.56,-251"/>
<ellipse fill="none" stroke="black" cx="495.36" cy="-251" rx="3.2" ry="3.2"/>
</g>
<!-- reports&#45;&gt;project_report_configs -->
<g id="edge11" class="edge">
<title>reports:w&#45;&gt;project_report_configs:e</title>
<path fill="none" stroke="black" d="M491.93,-260.44C486.07,-260.6 480.07,-260.69 474.03,-260.73"/>
<polygon fill="black" stroke="black" points="498.57,-260.2 506.69,-263.51 502.57,-260.06 506.56,-259.91 506.56,-259.91 506.56,-259.91 502.57,-260.06 506.43,-256.32 498.57,-260.2 498.57,-260.2"/>
<ellipse fill="none" stroke="black" cx="495.37" cy="-260.32" rx="3.2" ry="3.2"/>
</g>
<!-- reports&#45;&gt;public.projects -->
<g id="edge10" class="edge">
<title>reports:w&#45;&gt;public.projects:e</title>
<path fill="none" stroke="black" d="M493.41,-284.99C486.98,-287.39 480.44,-289.46 474,-291 351.63,-320.24 316.82,-298 191,-298"/>
<polygon fill="black" stroke="black" points="499.42,-282.53 508.19,-282.83 503.12,-281.02 506.82,-279.5 506.82,-279.5 506.82,-279.5 503.12,-281.02 505.46,-276.17 499.42,-282.53 499.42,-282.53"/>
<ellipse fill="none" stroke="black" cx="496.46" cy="-283.74" rx="3.2" ry="3.2"/>
</g>
<!-- reports&#45;&gt;report_frequencies -->
<g id="edge12" class="edge">
<title>reports:w&#45;&gt;report_frequencies:e</title>
<path fill="none" stroke="black" d="M493.38,-217.78C486.96,-215.46 480.43,-213.46 474,-212 372.15,-188.83 343.45,-209 239,-209"/>
<polygon fill="black" stroke="black" points="499.35,-220.15 505.46,-226.45 503.07,-221.63 506.79,-223.11 506.79,-223.11 506.79,-223.11 503.07,-221.63 508.12,-219.76 499.35,-220.15 499.35,-220.15"/>
<ellipse fill="none" stroke="black" cx="496.38" cy="-218.97" rx="3.2" ry="3.2"/>
</g>
<!-- report_quarters -->
<g id="node10" class="node">
<title>report_quarters</title>
<g id="a_node10"><a xlink:href="../../tables/report_quarters.html" xlink:title="report_quarters" target="_top">
<polygon fill="#ffffff" stroke="transparent" points="308,-116 308,-174 447,-174 447,-116 308,-116"/>
<polygon fill="#f5f5f5" stroke="transparent" points="308.5,-152 308.5,-174 447.5,-174 447.5,-152 308.5,-152"/>
<polygon fill="none" stroke="black" points="308.5,-152 308.5,-174 447.5,-174 447.5,-152 308.5,-152"/>
<text text-anchor="start" x="313.5" y="-161.2" font-family="Helvetica,sans-Serif" font-weight="bold" font-size="11.00">report_quarters</text>
<text text-anchor="start" x="408.5" y="-160.2" font-family="Helvetica,sans-Serif" font-size="11.00">[table]</text>
<polygon fill="none" stroke="black" points="308.5,-134 308.5,-152 447.5,-152 447.5,-134 308.5,-134"/>
<text text-anchor="start" x="311.5" y="-140.2" font-family="Helvetica,sans-Serif" font-size="11.00">...</text>
<polygon fill="#ffffff" stroke="transparent" points="308.5,-116 308.5,-134 366.5,-134 366.5,-116 308.5,-116"/>
<polygon fill="none" stroke="black" points="308.5,-116 308.5,-134 366.5,-134 366.5,-116 308.5,-116"/>
<text text-anchor="start" x="311.5" y="-122.2" font-family="Helvetica,sans-Serif" font-size="11.00"> &#160;</text>
<polygon fill="#ffffff" stroke="transparent" points="366.5,-116 366.5,-134 402.5,-134 402.5,-116 366.5,-116"/>
<polygon fill="none" stroke="black" points="366.5,-116 366.5,-134 402.5,-134 402.5,-116 366.5,-116"/>
<text text-anchor="start" x="392.5" y="-122.2" font-family="Helvetica,sans-Serif" font-size="11.00"> &#160;</text>
<polygon fill="#ffffff" stroke="transparent" points="402.5,-116 402.5,-134 447.5,-134 447.5,-116 402.5,-116"/>
<polygon fill="none" stroke="black" points="402.5,-116 402.5,-134 447.5,-134 447.5,-116 402.5,-116"/>
<text text-anchor="start" x="428.5" y="-122.2" font-family="Helvetica,sans-Serif" font-size="11.00">1 &gt;</text>
</a>
</g>
</g>
<!-- reports&#45;&gt;report_quarters -->
<g id="edge13" class="edge">
<title>reports:w&#45;&gt;report_quarters:e</title>
<path fill="none" stroke="black" d="M534.23,-205C515.41,-175.62 486.06,-143 448.5,-143"/>
<polygon fill="black" stroke="black" points="537.76,-210.86 538.8,-219.57 539.82,-214.29 541.88,-217.72 541.88,-217.72 541.88,-217.72 539.82,-214.29 544.97,-215.86 537.76,-210.86 537.76,-210.86"/>
<ellipse fill="none" stroke="black" cx="536.11" cy="-208.12" rx="3.2" ry="3.2"/>
</g>
<!-- report_statuses -->
<g id="node11" class="node">
<title>report_statuses</title>
<g id="a_node11"><a xlink:href="../../tables/report_statuses.html" xlink:title="report_statuses" target="_top">
<polygon fill="#ffffff" stroke="transparent" points="309,-37 309,-95 446,-95 446,-37 309,-37"/>
<polygon fill="#f5f5f5" stroke="transparent" points="309.5,-73 309.5,-95 446.5,-95 446.5,-73 309.5,-73"/>
<polygon fill="none" stroke="black" points="309.5,-73 309.5,-95 446.5,-95 446.5,-73 309.5,-73"/>
<text text-anchor="start" x="314.5" y="-82.2" font-family="Helvetica,sans-Serif" font-weight="bold" font-size="11.00">report_statuses</text>
<text text-anchor="start" x="407.5" y="-81.2" font-family="Helvetica,sans-Serif" font-size="11.00">[table]</text>
<polygon fill="none" stroke="black" points="309.5,-55 309.5,-73 446.5,-73 446.5,-55 309.5,-55"/>
<text text-anchor="start" x="312.5" y="-61.2" font-family="Helvetica,sans-Serif" font-size="11.00">...</text>
<polygon fill="#ffffff" stroke="transparent" points="309.5,-37 309.5,-55 366.5,-55 366.5,-37 309.5,-37"/>
<polygon fill="none" stroke="black" points="309.5,-37 309.5,-55 366.5,-55 366.5,-37 309.5,-37"/>
<text text-anchor="start" x="312.5" y="-43.2" font-family="Helvetica,sans-Serif" font-size="11.00"> &#160;</text>
<polygon fill="#ffffff" stroke="transparent" points="366.5,-37 366.5,-55 401.5,-55 401.5,-37 366.5,-37"/>
<polygon fill="none" stroke="black" points="366.5,-37 366.5,-55 401.5,-55 401.5,-37 366.5,-37"/>
<text text-anchor="start" x="391.5" y="-43.2" font-family="Helvetica,sans-Serif" font-size="11.00"> &#160;</text>
<polygon fill="#ffffff" stroke="transparent" points="401.5,-37 401.5,-55 446.5,-55 446.5,-37 401.5,-37"/>
<polygon fill="none" stroke="black" points="401.5,-37 401.5,-55 446.5,-55 446.5,-37 401.5,-37"/>
<text text-anchor="start" x="427.5" y="-43.2" font-family="Helvetica,sans-Serif" font-size="11.00">1 &gt;</text>
</a>
</g>
</g>
<!-- reports&#45;&gt;report_statuses -->
<g id="edge14" class="edge">
<title>reports:w&#45;&gt;report_statuses:e</title>
<path fill="none" stroke="black" d="M551.02,-203.57C539.87,-148.17 512.27,-64 447.5,-64"/>
<polygon fill="black" stroke="black" points="552.23,-210.13 550.15,-218.65 552.96,-214.07 553.69,-218 553.69,-218 553.69,-218 552.96,-214.07 557.23,-217.34 552.23,-210.13 552.23,-210.13"/>
<ellipse fill="none" stroke="black" cx="551.65" cy="-206.99" rx="3.2" ry="3.2"/>
</g>
<!-- report_challenges -->
<g id="node6" class="node">
<title>report_challenges</title>
<g id="a_node6"><a xlink:href="../../tables/report_challenges.html" xlink:title="report_challenges" target="_top">
<polygon fill="#ffffff" stroke="transparent" points="672.5,-303 672.5,-361 822.5,-361 822.5,-303 672.5,-303"/>
<polygon fill="#f5f5f5" stroke="transparent" points="672.5,-339 672.5,-361 822.5,-361 822.5,-339 672.5,-339"/>
<polygon fill="none" stroke="black" points="672.5,-339 672.5,-361 822.5,-361 822.5,-339 672.5,-339"/>
<text text-anchor="start" x="677.5" y="-348.2" font-family="Helvetica,sans-Serif" font-weight="bold" font-size="11.00">report_challenges</text>
<text text-anchor="start" x="783.5" y="-347.2" font-family="Helvetica,sans-Serif" font-size="11.00">[table]</text>
<polygon fill="none" stroke="black" points="672.5,-321 672.5,-339 822.5,-339 822.5,-321 672.5,-321"/>
<text text-anchor="start" x="675.5" y="-327.2" font-family="Helvetica,sans-Serif" font-size="11.00">...</text>
<polygon fill="#ffffff" stroke="transparent" points="672.5,-303 672.5,-321 745.5,-321 745.5,-303 672.5,-303"/>
<polygon fill="none" stroke="black" points="672.5,-303 672.5,-321 745.5,-321 745.5,-303 672.5,-303"/>
<text text-anchor="start" x="675.5" y="-309.2" font-family="Helvetica,sans-Serif" font-size="11.00">&lt; 1</text>
<polygon fill="#ffffff" stroke="transparent" points="745.5,-303 745.5,-321 783.5,-321 783.5,-303 745.5,-303"/>
<polygon fill="none" stroke="black" points="745.5,-303 745.5,-321 783.5,-321 783.5,-303 745.5,-303"/>
<text text-anchor="start" x="773.5" y="-309.2" font-family="Helvetica,sans-Serif" font-size="11.00"> &#160;</text>
<polygon fill="#ffffff" stroke="transparent" points="783.5,-303 783.5,-321 822.5,-321 822.5,-303 783.5,-303"/>
<polygon fill="none" stroke="black" points="783.5,-303 783.5,-321 822.5,-321 822.5,-303 783.5,-303"/>
<text text-anchor="start" x="812.5" y="-309.2" font-family="Helvetica,sans-Serif" font-size="11.00"> &#160;</text>
</a>
</g>
</g>
<!-- report_challenges&#45;&gt;reports -->
<g id="edge4" class="edge">
<title>report_challenges:w&#45;&gt;reports:e</title>
<path fill="none" stroke="black" d="M657.11,-328.56C629.17,-323.03 604.21,-302.56 586.6,-284.05"/>
<polygon fill="black" stroke="black" points="663.54,-329.2 671.14,-333.58 667.52,-329.6 671.5,-330 671.5,-330 671.5,-330 667.52,-329.6 671.86,-326.42 663.54,-329.2 663.54,-329.2"/>
<ellipse fill="none" stroke="black" cx="660.36" cy="-328.88" rx="3.2" ry="3.2"/>
</g>
<!-- report_project_metrics -->
<g id="node7" class="node">
<title>report_project_metrics</title>
<g id="a_node7"><a xlink:href="../../tables/report_project_metrics.html" xlink:title="report_project_metrics" target="_top">
<polygon fill="#ffffff" stroke="transparent" points="657.5,-224 657.5,-282 837.5,-282 837.5,-224 657.5,-224"/>
<polygon fill="#f5f5f5" stroke="transparent" points="657.5,-260 657.5,-282 837.5,-282 837.5,-260 657.5,-260"/>
<polygon fill="none" stroke="black" points="657.5,-260 657.5,-282 837.5,-282 837.5,-260 657.5,-260"/>
<text text-anchor="start" x="662.5" y="-269.2" font-family="Helvetica,sans-Serif" font-weight="bold" font-size="11.00">report_project_metrics</text>
<text text-anchor="start" x="798.5" y="-268.2" font-family="Helvetica,sans-Serif" font-size="11.00">[table]</text>
<polygon fill="none" stroke="black" points="657.5,-242 657.5,-260 837.5,-260 837.5,-242 657.5,-242"/>
<text text-anchor="start" x="660.5" y="-248.2" font-family="Helvetica,sans-Serif" font-size="11.00">...</text>
<polygon fill="#ffffff" stroke="transparent" points="657.5,-224 657.5,-242 745.5,-242 745.5,-224 657.5,-224"/>
<polygon fill="none" stroke="black" points="657.5,-224 657.5,-242 745.5,-242 745.5,-224 657.5,-224"/>
<text text-anchor="start" x="660.5" y="-230.2" font-family="Helvetica,sans-Serif" font-size="11.00">&lt; 3</text>
<polygon fill="#ffffff" stroke="transparent" points="745.5,-224 745.5,-242 791.5,-242 791.5,-224 745.5,-224"/>
<polygon fill="none" stroke="black" points="745.5,-224 745.5,-242 791.5,-242 791.5,-224 745.5,-224"/>
<text text-anchor="start" x="781.5" y="-230.2" font-family="Helvetica,sans-Serif" font-size="11.00"> &#160;</text>
<polygon fill="#ffffff" stroke="transparent" points="791.5,-224 791.5,-242 837.5,-242 837.5,-224 791.5,-224"/>
<polygon fill="none" stroke="black" points="791.5,-224 791.5,-242 837.5,-242 837.5,-224 791.5,-224"/>
<text text-anchor="start" x="827.5" y="-230.2" font-family="Helvetica,sans-Serif" font-size="11.00"> &#160;</text>
</a>
</g>
</g>
<!-- report_project_metrics&#45;&gt;reports -->
<g id="edge5" class="edge">
<title>report_project_metrics:w&#45;&gt;reports:e</title>
<path fill="none" stroke="black" d="M642.03,-251C631.64,-251 621.05,-251 611.08,-251"/>
<polygon fill="black" stroke="black" points="648.5,-251 656.5,-254.6 652.5,-251 656.5,-251 656.5,-251 656.5,-251 652.5,-251 656.5,-247.4 648.5,-251 648.5,-251"/>
<ellipse fill="none" stroke="black" cx="645.3" cy="-251" rx="3.2" ry="3.2"/>
</g>
<!-- report_standard_metrics -->
<g id="node8" class="node">
<title>report_standard_metrics</title>
<g id="a_node8"><a xlink:href="../../tables/report_standard_metrics.html" xlink:title="report_standard_metrics" target="_top">
<polygon fill="#ffffff" stroke="transparent" points="652,-145 652,-203 843,-203 843,-145 652,-145"/>
<polygon fill="#f5f5f5" stroke="transparent" points="652.5,-181 652.5,-203 843.5,-203 843.5,-181 652.5,-181"/>
<polygon fill="none" stroke="black" points="652.5,-181 652.5,-203 843.5,-203 843.5,-181 652.5,-181"/>
<text text-anchor="start" x="657.5" y="-190.2" font-family="Helvetica,sans-Serif" font-weight="bold" font-size="11.00">report_standard_metrics</text>
<text text-anchor="start" x="804.5" y="-189.2" font-family="Helvetica,sans-Serif" font-size="11.00">[table]</text>
<polygon fill="none" stroke="black" points="652.5,-163 652.5,-181 843.5,-181 843.5,-163 652.5,-163"/>
<text text-anchor="start" x="655.5" y="-169.2" font-family="Helvetica,sans-Serif" font-size="11.00">...</text>
<polygon fill="#ffffff" stroke="transparent" points="652.5,-145 652.5,-163 745.5,-163 745.5,-145 652.5,-145"/>
<polygon fill="none" stroke="black" points="652.5,-145 652.5,-163 745.5,-163 745.5,-145 652.5,-145"/>
<text text-anchor="start" x="655.5" y="-151.2" font-family="Helvetica,sans-Serif" font-size="11.00">&lt; 3</text>
<polygon fill="#ffffff" stroke="transparent" points="745.5,-145 745.5,-163 794.5,-163 794.5,-145 745.5,-145"/>
<polygon fill="none" stroke="black" points="745.5,-145 745.5,-163 794.5,-163 794.5,-145 745.5,-145"/>
<text text-anchor="start" x="784.5" y="-151.2" font-family="Helvetica,sans-Serif" font-size="11.00"> &#160;</text>
<polygon fill="#ffffff" stroke="transparent" points="794.5,-145 794.5,-163 843.5,-163 843.5,-145 794.5,-145"/>
<polygon fill="none" stroke="black" points="794.5,-145 794.5,-163 843.5,-163 843.5,-145 794.5,-145"/>
<text text-anchor="start" x="833.5" y="-151.2" font-family="Helvetica,sans-Serif" font-size="11.00"> &#160;</text>
</a>
</g>
</g>
<!-- report_standard_metrics&#45;&gt;reports -->
<g id="edge6" class="edge">
<title>report_standard_metrics:w&#45;&gt;reports:e</title>
<path fill="none" stroke="black" d="M636.92,-173.93C613.58,-180.09 594.07,-199.94 580.54,-217.95"/>
<polygon fill="black" stroke="black" points="643.57,-173.05 651.97,-175.57 647.53,-172.52 651.5,-172 651.5,-172 651.5,-172 647.53,-172.52 651.03,-168.43 643.57,-173.05 643.57,-173.05"/>
<ellipse fill="none" stroke="black" cx="640.4" cy="-173.47" rx="3.2" ry="3.2"/>
</g>
<!-- report_system_metrics -->
<g id="node9" class="node">
<title>report_system_metrics</title>
<g id="a_node9"><a xlink:href="../../tables/report_system_metrics.html" xlink:title="report_system_metrics" target="_top">
<polygon fill="#ffffff" stroke="transparent" points="657.5,-66 657.5,-124 837.5,-124 837.5,-66 657.5,-66"/>
<polygon fill="#f5f5f5" stroke="transparent" points="657.5,-102 657.5,-124 837.5,-124 837.5,-102 657.5,-102"/>
<polygon fill="none" stroke="black" points="657.5,-102 657.5,-124 837.5,-124 837.5,-102 657.5,-102"/>
<text text-anchor="start" x="662.5" y="-111.2" font-family="Helvetica,sans-Serif" font-weight="bold" font-size="11.00">report_system_metrics</text>
<text text-anchor="start" x="798.5" y="-110.2" font-family="Helvetica,sans-Serif" font-size="11.00">[table]</text>
<polygon fill="none" stroke="black" points="657.5,-84 657.5,-102 837.5,-102 837.5,-84 657.5,-84"/>
<text text-anchor="start" x="660.5" y="-90.2" font-family="Helvetica,sans-Serif" font-size="11.00">...</text>
<polygon fill="#ffffff" stroke="transparent" points="657.5,-66 657.5,-84 745.5,-84 745.5,-66 657.5,-66"/>
<polygon fill="none" stroke="black" points="657.5,-66 657.5,-84 745.5,-84 745.5,-66 657.5,-66"/>
<text text-anchor="start" x="660.5" y="-72.2" font-family="Helvetica,sans-Serif" font-size="11.00">&lt; 3</text>
<polygon fill="#ffffff" stroke="transparent" points="745.5,-66 745.5,-84 791.5,-84 791.5,-66 745.5,-66"/>
<polygon fill="none" stroke="black" points="745.5,-66 745.5,-84 791.5,-84 791.5,-66 745.5,-66"/>
<text text-anchor="start" x="781.5" y="-72.2" font-family="Helvetica,sans-Serif" font-size="11.00"> &#160;</text>
<polygon fill="#ffffff" stroke="transparent" points="791.5,-66 791.5,-84 837.5,-84 837.5,-66 791.5,-66"/>
<polygon fill="none" stroke="black" points="791.5,-66 791.5,-84 837.5,-84 837.5,-66 791.5,-66"/>
<text text-anchor="start" x="827.5" y="-72.2" font-family="Helvetica,sans-Serif" font-size="11.00"> &#160;</text>
</a>
</g>
</g>
<!-- report_system_metrics&#45;&gt;reports -->
<g id="edge7" class="edge">
<title>report_system_metrics:w&#45;&gt;reports:e</title>
<path fill="none" stroke="black" d="M641.97,-94.75C594.35,-106.56 573.5,-175.62 565.09,-217.88"/>
<polygon fill="black" stroke="black" points="648.56,-93.95 656.93,-96.57 652.53,-93.48 656.5,-93 656.5,-93 656.5,-93 652.53,-93.48 656.07,-89.43 648.56,-93.95 648.56,-93.95"/>
<ellipse fill="none" stroke="black" cx="645.38" cy="-94.34" rx="3.2" ry="3.2"/>
</g>
</g>
</svg>
