<?xml version="1.0" encoding="UTF-8" standalone="no"?>
<!DOCTYPE svg PUBLIC "-//W3C//DTD SVG 1.1//EN"
 "http://www.w3.org/Graphics/SVG/1.1/DTD/svg11.dtd">
<!-- Generated by graphviz version 2.47.1 (20210515.0534)
 -->
<!-- Title: twoDegreesRelationshipsDiagram Pages: 1 -->
<svg width="915pt" height="592pt"
 viewBox="0.00 0.00 915.00 592.10" xmlns="http://www.w3.org/2000/svg" xmlns:xlink="http://www.w3.org/1999/xlink">
<g id="graph0" class="graph" transform="scale(1 1) rotate(0) translate(4 588.1)">
<title>twoDegreesRelationshipsDiagram</title>
<polygon fill="#ffffff" stroke="transparent" points="-4,4 -4,-588.1 911,-588.1 911,4 -4,4"/>
<text text-anchor="middle" x="73.5" y="-7.2" font-family="Helvetica,sans-Serif" font-size="11.00">Generated by SchemaSpy</text>
<!-- project_report_configs -->
<g id="node1" class="node">
<title>project_report_configs</title>
<g id="a_node1"><a xlink:href="../../tables/project_report_configs.html" xlink:title="project_report_configs" target="_top">
<polygon fill="#ffffff" stroke="transparent" points="289,-351 289,-409 466,-409 466,-351 289,-351"/>
<polygon fill="#f5f5f5" stroke="transparent" points="289.5,-387 289.5,-409 466.5,-409 466.5,-387 289.5,-387"/>
<polygon fill="none" stroke="black" points="289.5,-387 289.5,-409 466.5,-409 466.5,-387 289.5,-387"/>
<text text-anchor="start" x="294.5" y="-396.2" font-family="Helvetica,sans-Serif" font-weight="bold" font-size="11.00">project_report_configs</text>
<text text-anchor="start" x="427.5" y="-395.2" font-family="Helvetica,sans-Serif" font-size="11.00">[table]</text>
<polygon fill="none" stroke="black" points="289.5,-369 289.5,-387 466.5,-387 466.5,-369 289.5,-369"/>
<text text-anchor="start" x="292.5" y="-375.2" font-family="Helvetica,sans-Serif" font-size="11.00">...</text>
<polygon fill="#ffffff" stroke="transparent" points="289.5,-351 289.5,-369 371.5,-369 371.5,-351 289.5,-351"/>
<polygon fill="none" stroke="black" points="289.5,-351 289.5,-369 371.5,-369 371.5,-351 289.5,-351"/>
<text text-anchor="start" x="292.5" y="-357.2" font-family="Helvetica,sans-Serif" font-size="11.00">&lt; 2</text>
<polygon fill="#ffffff" stroke="transparent" points="371.5,-351 371.5,-369 414.5,-369 414.5,-351 371.5,-351"/>
<polygon fill="none" stroke="black" points="371.5,-351 371.5,-369 414.5,-369 414.5,-351 371.5,-351"/>
<text text-anchor="start" x="404.5" y="-357.2" font-family="Helvetica,sans-Serif" font-size="11.00"> &#160;</text>
<polygon fill="#ffffff" stroke="transparent" points="414.5,-351 414.5,-369 466.5,-369 466.5,-351 414.5,-351"/>
<polygon fill="none" stroke="black" points="414.5,-351 414.5,-369 466.5,-369 466.5,-351 414.5,-351"/>
<text text-anchor="start" x="447.5" y="-357.2" font-family="Helvetica,sans-Serif" font-size="11.00">3 &gt;</text>
</a>
</g>
</g>
<!-- public.projects -->
<g id="node2" class="node">
<title>public.projects</title>
<g id="a_node2"><a xlink:href="../../../public/tables/projects.html" xlink:title="public.projects" target="_top">
<polygon fill="#ffffff" stroke="transparent" points="58,-300 58,-358 190,-358 190,-300 58,-300"/>
<polygon fill="#f5f5f5" stroke="transparent" points="58,-336 58,-358 190,-358 190,-336 58,-336"/>
<polygon fill="none" stroke="black" points="58,-336 58,-358 190,-358 190,-336 58,-336"/>
<text text-anchor="start" x="63" y="-345.2" font-family="Helvetica,sans-Serif" font-weight="bold" font-size="11.00">public.projects</text>
<text text-anchor="start" x="151" y="-344.2" font-family="Helvetica,sans-Serif" font-size="11.00">[table]</text>
<polygon fill="none" stroke="black" points="58,-318 58,-336 190,-336 190,-318 58,-318"/>
<text text-anchor="start" x="61" y="-324.2" font-family="Helvetica,sans-Serif" font-size="11.00">...</text>
<polygon fill="#ffffff" stroke="transparent" points="58,-300 58,-318 101,-318 101,-300 58,-300"/>
<polygon fill="none" stroke="black" points="58,-300 58,-318 101,-318 101,-300 58,-300"/>
<text text-anchor="start" x="61" y="-306.2" font-family="Helvetica,sans-Serif" font-size="11.00">&lt; 1</text>
<polygon fill="#ffffff" stroke="transparent" points="101,-300 101,-318 151,-318 151,-300 101,-300"/>
<polygon fill="none" stroke="black" points="101,-300 101,-318 151,-318 151,-300 101,-300"/>
<text text-anchor="start" x="114" y="-306.2" font-family="Helvetica,sans-Serif" font-size="11.00">0 rows</text>
<polygon fill="#ffffff" stroke="transparent" points="151,-300 151,-318 190,-318 190,-300 151,-300"/>
<polygon fill="none" stroke="black" points="151,-300 151,-318 190,-318 190,-300 151,-300"/>
<text text-anchor="start" x="165" y="-306.2" font-family="Helvetica,sans-Serif" font-size="11.00">19 &gt;</text>
</a>
</g>
</g>
<!-- project_report_configs&#45;&gt;public.projects -->
<g id="edge1" class="edge">
<title>project_report_configs:w&#45;&gt;public.projects:e</title>
<path fill="none" stroke="black" d="M283.14,-342.48C254.1,-333.77 221.65,-327 191,-327"/>
<polygon fill="black" stroke="black" points="289.47,-344.48 296.01,-350.32 293.28,-345.68 297.1,-346.89 297.1,-346.89 297.1,-346.89 293.28,-345.68 298.18,-343.45 289.47,-344.48 289.47,-344.48"/>
<ellipse fill="none" stroke="black" cx="286.42" cy="-343.51" rx="3.2" ry="3.2"/>
</g>
<!-- report_frequencies -->
<g id="node3" class="node">
<title>report_frequencies</title>
<g id="a_node3"><a xlink:href="../../tables/report_frequencies.html" xlink:title="report_frequencies" target="_top">
<polygon fill="#ffffff" stroke="transparent" points="8,-380 8,-468 240,-468 240,-380 8,-380"/>
<polygon fill="#f5f5f5" stroke="transparent" points="10,-444 10,-466 238,-466 238,-444 10,-444"/>
<polygon fill="none" stroke="black" points="10,-444 10,-466 238,-466 238,-444 10,-444"/>
<text text-anchor="start" x="15" y="-453.2" font-family="Helvetica,sans-Serif" font-weight="bold" font-size="11.00">report_frequencies</text>
<text text-anchor="start" x="199" y="-452.2" font-family="Helvetica,sans-Serif" font-size="11.00">[table]</text>
<polygon fill="none" stroke="black" points="10,-422 10,-444 144,-444 144,-422 10,-422"/>
<image xlink:href="../../images/primaryKeys.png" width="11px" height="12px" preserveAspectRatio="xMinYMin meet" x="15" y="-439"/>
<text text-anchor="start" x="30" y="-430.2" font-family="Helvetica,sans-Serif" font-size="11.00">id</text>
<polygon fill="none" stroke="black" points="144,-422 144,-444 238,-444 238,-422 144,-422"/>
<text text-anchor="start" x="147" y="-430.2" font-family="Helvetica,sans-Serif" font-size="11.00">int4[10]</text>
<polygon fill="#ffffff" stroke="transparent" points="10,-400 10,-422 144,-422 144,-400 10,-400"/>
<polygon fill="none" stroke="black" points="10,-400 10,-422 144,-422 144,-400 10,-400"/>
<text text-anchor="start" x="30" y="-408.2" font-family="Helvetica,sans-Serif" font-size="11.00">name</text>
<polygon fill="none" stroke="black" points="144,-400 144,-422 238,-422 238,-400 144,-400"/>
<text text-anchor="start" x="147" y="-408.2" font-family="Helvetica,sans-Serif" font-size="11.00">text[2147483647]</text>
<polygon fill="#ffffff" stroke="transparent" points="10,-382 10,-400 81,-400 81,-382 10,-382"/>
<polygon fill="none" stroke="black" points="10,-382 10,-400 81,-400 81,-382 10,-382"/>
<text text-anchor="start" x="13" y="-388.2" font-family="Helvetica,sans-Serif" font-size="11.00">&lt; 0</text>
<polygon fill="#ffffff" stroke="transparent" points="81,-382 81,-400 144,-400 144,-382 81,-382"/>
<polygon fill="none" stroke="black" points="81,-382 81,-400 144,-400 144,-382 81,-382"/>
<text text-anchor="start" x="134" y="-388.2" font-family="Helvetica,sans-Serif" font-size="11.00"> &#160;</text>
<polygon fill="#ffffff" stroke="transparent" points="144,-382 144,-400 238,-400 238,-382 144,-382"/>
<polygon fill="none" stroke="black" points="144,-382 144,-400 238,-400 238,-382 144,-382"/>
<text text-anchor="start" x="219" y="-388.2" font-family="Helvetica,sans-Serif" font-size="11.00">3 &gt;</text>
<polygon fill="none" stroke="black" stroke-width="2" points="9,-381 9,-467 239,-467 239,-381 9,-381"/>
</a>
</g>
</g>
<!-- project_report_configs&#45;&gt;report_frequencies -->
<g id="edge2" class="edge">
<title>project_report_configs:w&#45;&gt;report_frequencies:e</title>
<path fill="none" stroke="black" d="M290.96,-418.58C269.92,-426.77 250.23,-433 239,-433"/>
<polygon fill="black" stroke="black" points="297.11,-416.1 305.87,-416.45 300.82,-414.61 304.53,-413.11 304.53,-413.11 304.53,-413.11 300.82,-414.61 303.18,-409.77 297.11,-416.1 297.11,-416.1"/>
<ellipse fill="none" stroke="black" cx="294.14" cy="-417.3" rx="3.2" ry="3.2"/>
</g>
<!-- report_achievements -->
<g id="node4" class="node">
<title>report_achievements</title>
<g id="a_node4"><a xlink:href="../../tables/report_achievements.html" xlink:title="report_achievements" target="_top">
<polygon fill="#ffffff" stroke="transparent" points="690,-432 690,-490 861,-490 861,-432 690,-432"/>
<polygon fill="#f5f5f5" stroke="transparent" points="690.5,-468 690.5,-490 861.5,-490 861.5,-468 690.5,-468"/>
<polygon fill="none" stroke="black" points="690.5,-468 690.5,-490 861.5,-490 861.5,-468 690.5,-468"/>
<text text-anchor="start" x="695.5" y="-477.2" font-family="Helvetica,sans-Serif" font-weight="bold" font-size="11.00">report_achievements</text>
<text text-anchor="start" x="822.5" y="-476.2" font-family="Helvetica,sans-Serif" font-size="11.00">[table]</text>
<polygon fill="none" stroke="black" points="690.5,-450 690.5,-468 861.5,-468 861.5,-450 690.5,-450"/>
<text text-anchor="start" x="693.5" y="-456.2" font-family="Helvetica,sans-Serif" font-size="11.00">...</text>
<polygon fill="#ffffff" stroke="transparent" points="690.5,-432 690.5,-450 773.5,-450 773.5,-432 690.5,-432"/>
<polygon fill="none" stroke="black" points="690.5,-432 690.5,-450 773.5,-450 773.5,-432 690.5,-432"/>
<text text-anchor="start" x="693.5" y="-438.2" font-family="Helvetica,sans-Serif" font-size="11.00">&lt; 1</text>
<polygon fill="#ffffff" stroke="transparent" points="773.5,-432 773.5,-450 817.5,-450 817.5,-432 773.5,-432"/>
<polygon fill="none" stroke="black" points="773.5,-432 773.5,-450 817.5,-450 817.5,-432 773.5,-432"/>
<text text-anchor="start" x="807.5" y="-438.2" font-family="Helvetica,sans-Serif" font-size="11.00"> &#160;</text>
<polygon fill="#ffffff" stroke="transparent" points="817.5,-432 817.5,-450 861.5,-450 861.5,-432 817.5,-432"/>
<polygon fill="none" stroke="black" points="817.5,-432 817.5,-450 861.5,-450 861.5,-432 817.5,-432"/>
<text text-anchor="start" x="851.5" y="-438.2" font-family="Helvetica,sans-Serif" font-size="11.00"> &#160;</text>
</a>
</g>
</g>
<!-- reports -->
<g id="node5" class="node">
<title>reports</title>
<g id="a_node5"><a xlink:href="../../tables/reports.html" xlink:title="reports" target="_top">
<polygon fill="#ffffff" stroke="transparent" points="515,-351 515,-409 603,-409 603,-351 515,-351"/>
<polygon fill="#f5f5f5" stroke="transparent" points="515,-387 515,-409 603,-409 603,-387 515,-387"/>
<polygon fill="none" stroke="black" points="515,-387 515,-409 603,-409 603,-387 515,-387"/>
<text text-anchor="start" x="519.5" y="-396.2" font-family="Helvetica,sans-Serif" font-weight="bold" font-size="11.00">reports</text>
<text text-anchor="start" x="564" y="-395.2" font-family="Helvetica,sans-Serif" font-size="11.00">[table]</text>
<polygon fill="none" stroke="black" points="515,-369 515,-387 603,-387 603,-369 515,-369"/>
<text text-anchor="start" x="518" y="-375.2" font-family="Helvetica,sans-Serif" font-size="11.00">...</text>
<polygon fill="#ffffff" stroke="transparent" points="515,-351 515,-369 552,-369 552,-351 515,-351"/>
<polygon fill="none" stroke="black" points="515,-351 515,-369 552,-369 552,-351 515,-351"/>
<text text-anchor="start" x="518" y="-357.2" font-family="Helvetica,sans-Serif" font-size="11.00">&lt; 7</text>
<polygon fill="#ffffff" stroke="transparent" points="552,-351 552,-369 573,-369 573,-351 552,-351"/>
<polygon fill="none" stroke="black" points="552,-351 552,-369 573,-369 573,-351 552,-351"/>
<text text-anchor="start" x="563" y="-357.2" font-family="Helvetica,sans-Serif" font-size="11.00"> &#160;</text>
<polygon fill="#ffffff" stroke="transparent" points="573,-351 573,-369 603,-369 603,-351 573,-351"/>
<polygon fill="none" stroke="black" points="573,-351 573,-369 603,-369 603,-351 573,-351"/>
<text text-anchor="start" x="584" y="-357.2" font-family="Helvetica,sans-Serif" font-size="11.00">7 &gt;</text>
</a>
</g>
</g>
<!-- report_achievements&#45;&gt;reports -->
<g id="edge3" class="edge">
<title>report_achievements:w&#45;&gt;reports:e</title>
<path fill="none" stroke="black" d="M675.14,-457.85C643.07,-452.78 613.2,-431.9 591.92,-413.05"/>
<polygon fill="black" stroke="black" points="681.53,-458.36 689.21,-462.59 685.51,-458.68 689.5,-459 689.5,-459 689.5,-459 685.51,-458.68 689.79,-455.41 681.53,-458.36 681.53,-458.36"/>
<ellipse fill="none" stroke="black" cx="678.34" cy="-458.1" rx="3.2" ry="3.2"/>
</g>
<!-- reports&#45;&gt;project_report_configs -->
<g id="edge9" class="edge">
<title>reports:w&#45;&gt;project_report_configs:e</title>
<path fill="none" stroke="black" d="M491.93,-370.56C486.07,-370.4 480.07,-370.31 474.03,-370.27"/>
<polygon fill="black" stroke="black" points="498.57,-370.8 506.43,-374.68 502.57,-370.94 506.56,-371.09 506.56,-371.09 506.56,-371.09 502.57,-370.94 506.69,-367.49 498.57,-370.8 498.57,-370.8"/>
<ellipse fill="none" stroke="black" cx="495.37" cy="-370.68" rx="3.2" ry="3.2"/>
</g>
<!-- reports&#45;&gt;project_report_configs -->
<g id="edge10" class="edge">
<title>reports:w&#45;&gt;project_report_configs:e</title>
<path fill="none" stroke="black" d="M491.93,-380C486.07,-380 480.07,-380 474.03,-380"/>
<polygon fill="black" stroke="black" points="498.56,-380 506.56,-383.6 502.56,-380 506.56,-380 506.56,-380 506.56,-380 502.56,-380 506.56,-376.4 498.56,-380 498.56,-380"/>
<ellipse fill="none" stroke="black" cx="495.36" cy="-380" rx="3.2" ry="3.2"/>
</g>
<!-- reports&#45;&gt;project_report_configs -->
<g id="edge12" class="edge">
<title>reports:w&#45;&gt;project_report_configs:e</title>
<path fill="none" stroke="black" d="M491.93,-389.44C486.07,-389.6 480.07,-389.69 474.03,-389.73"/>
<polygon fill="black" stroke="black" points="498.57,-389.2 506.69,-392.51 502.57,-389.06 506.56,-388.91 506.56,-388.91 506.56,-388.91 502.57,-389.06 506.43,-385.32 498.57,-389.2 498.57,-389.2"/>
<ellipse fill="none" stroke="black" cx="495.37" cy="-389.32" rx="3.2" ry="3.2"/>
</g>
<!-- reports&#45;&gt;public.projects -->
<g id="edge11" class="edge">
<title>reports:w&#45;&gt;public.projects:e</title>
<path fill="none" stroke="black" d="M493.32,-347.03C486.91,-344.66 480.4,-342.58 474,-341 351.74,-310.82 316.93,-327 191,-327"/>
<polygon fill="black" stroke="black" points="499.29,-349.43 505.37,-355.76 503,-350.93 506.71,-352.43 506.71,-352.43 506.71,-352.43 503,-350.93 508.06,-349.09 499.29,-349.43 499.29,-349.43"/>
<ellipse fill="none" stroke="black" cx="496.32" cy="-348.24" rx="3.2" ry="3.2"/>
</g>
<!-- reports&#45;&gt;report_frequencies -->
<g id="edge13" class="edge">
<title>reports:w&#45;&gt;report_frequencies:e</title>
<path fill="none" stroke="black" d="M493.36,-413.78C486.94,-416.22 480.42,-418.36 474,-420 372.64,-445.86 343.6,-433 239,-433"/>
<polygon fill="black" stroke="black" points="499.37,-411.3 508.13,-411.56 503.06,-409.77 506.76,-408.24 506.76,-408.24 506.76,-408.24 503.06,-409.77 505.38,-404.91 499.37,-411.3 499.37,-411.3"/>
<ellipse fill="none" stroke="black" cx="496.41" cy="-412.52" rx="3.2" ry="3.2"/>
</g>
<!-- report_quarters -->
<g id="node11" class="node">
<title>report_quarters</title>
<g id="a_node11"><a xlink:href="../../tables/report_quarters.html" xlink:title="report_quarters" target="_top">
<polygon fill="#ffffff" stroke="transparent" points="308,-457 308,-515 447,-515 447,-457 308,-457"/>
<polygon fill="#f5f5f5" stroke="transparent" points="308.5,-493 308.5,-515 447.5,-515 447.5,-493 308.5,-493"/>
<polygon fill="none" stroke="black" points="308.5,-493 308.5,-515 447.5,-515 447.5,-493 308.5,-493"/>
<text text-anchor="start" x="313.5" y="-502.2" font-family="Helvetica,sans-Serif" font-weight="bold" font-size="11.00">report_quarters</text>
<text text-anchor="start" x="408.5" y="-501.2" font-family="Helvetica,sans-Serif" font-size="11.00">[table]</text>
<polygon fill="none" stroke="black" points="308.5,-475 308.5,-493 447.5,-493 447.5,-475 308.5,-475"/>
<text text-anchor="start" x="311.5" y="-481.2" font-family="Helvetica,sans-Serif" font-size="11.00">...</text>
<polygon fill="#ffffff" stroke="transparent" points="308.5,-457 308.5,-475 366.5,-475 366.5,-457 308.5,-457"/>
<polygon fill="none" stroke="black" points="308.5,-457 308.5,-475 366.5,-475 366.5,-457 308.5,-457"/>
<text text-anchor="start" x="311.5" y="-463.2" font-family="Helvetica,sans-Serif" font-size="11.00"> &#160;</text>
<polygon fill="#ffffff" stroke="transparent" points="366.5,-457 366.5,-475 402.5,-475 402.5,-457 366.5,-457"/>
<polygon fill="none" stroke="black" points="366.5,-457 366.5,-475 402.5,-475 402.5,-457 366.5,-457"/>
<text text-anchor="start" x="392.5" y="-463.2" font-family="Helvetica,sans-Serif" font-size="11.00"> &#160;</text>
<polygon fill="#ffffff" stroke="transparent" points="402.5,-457 402.5,-475 447.5,-475 447.5,-457 402.5,-457"/>
<polygon fill="none" stroke="black" points="402.5,-457 402.5,-475 447.5,-475 447.5,-457 402.5,-457"/>
<text text-anchor="start" x="428.5" y="-463.2" font-family="Helvetica,sans-Serif" font-size="11.00">2 &gt;</text>
</a>
</g>
</g>
<!-- reports&#45;&gt;report_quarters -->
<g id="edge14" class="edge">
<title>reports:w&#45;&gt;report_quarters:e</title>
<path fill="none" stroke="black" d="M533.1,-425.35C514.07,-453.37 484.93,-484 448.5,-484"/>
<polygon fill="black" stroke="black" points="536.57,-419.93 543.91,-415.13 538.72,-416.56 540.88,-413.19 540.88,-413.19 540.88,-413.19 538.72,-416.56 537.85,-411.25 536.57,-419.93 536.57,-419.93"/>
<ellipse fill="none" stroke="black" cx="534.84" cy="-422.63" rx="3.2" ry="3.2"/>
</g>
<!-- report_statuses -->
<g id="node12" class="node">
<title>report_statuses</title>
<g id="a_node12"><a xlink:href="../../tables/report_statuses.html" xlink:title="report_statuses" target="_top">
<polygon fill="#ffffff" stroke="transparent" points="309,-245 309,-303 446,-303 446,-245 309,-245"/>
<polygon fill="#f5f5f5" stroke="transparent" points="309.5,-281 309.5,-303 446.5,-303 446.5,-281 309.5,-281"/>
<polygon fill="none" stroke="black" points="309.5,-281 309.5,-303 446.5,-303 446.5,-281 309.5,-281"/>
<text text-anchor="start" x="314.5" y="-290.2" font-family="Helvetica,sans-Serif" font-weight="bold" font-size="11.00">report_statuses</text>
<text text-anchor="start" x="407.5" y="-289.2" font-family="Helvetica,sans-Serif" font-size="11.00">[table]</text>
<polygon fill="none" stroke="black" points="309.5,-263 309.5,-281 446.5,-281 446.5,-263 309.5,-263"/>
<text text-anchor="start" x="312.5" y="-269.2" font-family="Helvetica,sans-Serif" font-size="11.00">...</text>
<polygon fill="#ffffff" stroke="transparent" points="309.5,-245 309.5,-263 366.5,-263 366.5,-245 309.5,-245"/>
<polygon fill="none" stroke="black" points="309.5,-245 309.5,-263 366.5,-263 366.5,-245 309.5,-245"/>
<text text-anchor="start" x="312.5" y="-251.2" font-family="Helvetica,sans-Serif" font-size="11.00"> &#160;</text>
<polygon fill="#ffffff" stroke="transparent" points="366.5,-245 366.5,-263 401.5,-263 401.5,-245 366.5,-245"/>
<polygon fill="none" stroke="black" points="366.5,-245 366.5,-263 401.5,-263 401.5,-245 366.5,-245"/>
<text text-anchor="start" x="391.5" y="-251.2" font-family="Helvetica,sans-Serif" font-size="11.00"> &#160;</text>
<polygon fill="#ffffff" stroke="transparent" points="401.5,-245 401.5,-263 446.5,-263 446.5,-245 401.5,-245"/>
<polygon fill="none" stroke="black" points="401.5,-245 401.5,-263 446.5,-263 446.5,-245 401.5,-245"/>
<text text-anchor="start" x="427.5" y="-251.2" font-family="Helvetica,sans-Serif" font-size="11.00">1 &gt;</text>
</a>
</g>
</g>
<!-- reports&#45;&gt;report_statuses -->
<g id="edge15" class="edge">
<title>reports:w&#45;&gt;report_statuses:e</title>
<path fill="none" stroke="black" d="M534.16,-334.39C515.13,-304.91 485.41,-272 447.5,-272"/>
<polygon fill="black" stroke="black" points="537.5,-339.88 538.58,-348.59 539.58,-343.3 541.65,-346.72 541.65,-346.72 541.65,-346.72 539.58,-343.3 544.73,-344.84 537.5,-339.88 537.5,-339.88"/>
<ellipse fill="none" stroke="black" cx="535.84" cy="-337.15" rx="3.2" ry="3.2"/>
</g>
<!-- report_auto_calculated_indicators -->
<g id="node6" class="node">
<title>report_auto_calculated_indicators</title>
<g id="a_node6"><a xlink:href="../../tables/report_auto_calculated_indicators.html" xlink:title="report_auto_calculated_indicators" target="_top">
<polygon fill="#ffffff" stroke="transparent" points="652,-353 652,-411 899,-411 899,-353 652,-353"/>
<polygon fill="#f5f5f5" stroke="transparent" points="652.5,-389 652.5,-411 899.5,-411 899.5,-389 652.5,-389"/>
<polygon fill="none" stroke="black" points="652.5,-389 652.5,-411 899.5,-411 899.5,-389 652.5,-389"/>
<text text-anchor="start" x="657.5" y="-398.2" font-family="Helvetica,sans-Serif" font-weight="bold" font-size="11.00">report_auto_calculated_indicators</text>
<text text-anchor="start" x="860.5" y="-397.2" font-family="Helvetica,sans-Serif" font-size="11.00">[table]</text>
<polygon fill="none" stroke="black" points="652.5,-371 652.5,-389 899.5,-389 899.5,-371 652.5,-371"/>
<text text-anchor="start" x="655.5" y="-377.2" font-family="Helvetica,sans-Serif" font-size="11.00">...</text>
<polygon fill="#ffffff" stroke="transparent" points="652.5,-353 652.5,-371 773.5,-371 773.5,-353 652.5,-353"/>
<polygon fill="none" stroke="black" points="652.5,-353 652.5,-371 773.5,-371 773.5,-353 652.5,-353"/>
<text text-anchor="start" x="655.5" y="-359.2" font-family="Helvetica,sans-Serif" font-size="11.00">&lt; 3</text>
<polygon fill="#ffffff" stroke="transparent" points="773.5,-353 773.5,-371 836.5,-371 836.5,-353 773.5,-353"/>
<polygon fill="none" stroke="black" points="773.5,-353 773.5,-371 836.5,-371 836.5,-353 773.5,-353"/>
<text text-anchor="start" x="826.5" y="-359.2" font-family="Helvetica,sans-Serif" font-size="11.00"> &#160;</text>
<polygon fill="#ffffff" stroke="transparent" points="836.5,-353 836.5,-371 899.5,-371 899.5,-353 836.5,-353"/>
<polygon fill="none" stroke="black" points="836.5,-353 836.5,-371 899.5,-371 899.5,-353 836.5,-353"/>
<text text-anchor="start" x="889.5" y="-359.2" font-family="Helvetica,sans-Serif" font-size="11.00"> &#160;</text>
</a>
</g>
</g>
<!-- report_auto_calculated_indicators&#45;&gt;reports -->
<g id="edge4" class="edge">
<title>report_auto_calculated_indicators:w&#45;&gt;reports:e</title>
<path fill="none" stroke="black" d="M636.83,-380C628.27,-380 619.59,-380 611.3,-380"/>
<polygon fill="black" stroke="black" points="643.5,-380 651.5,-383.6 647.5,-380 651.5,-380 651.5,-380 651.5,-380 647.5,-380 651.5,-376.4 643.5,-380 643.5,-380"/>
<ellipse fill="none" stroke="black" cx="640.3" cy="-380" rx="3.2" ry="3.2"/>
</g>
<!-- report_challenges -->
<g id="node7" class="node">
<title>report_challenges</title>
<g id="a_node7"><a xlink:href="../../tables/report_challenges.html" xlink:title="report_challenges" target="_top">
<polygon fill="#ffffff" stroke="transparent" points="700.5,-274 700.5,-332 850.5,-332 850.5,-274 700.5,-274"/>
<polygon fill="#f5f5f5" stroke="transparent" points="700.5,-310 700.5,-332 850.5,-332 850.5,-310 700.5,-310"/>
<polygon fill="none" stroke="black" points="700.5,-310 700.5,-332 850.5,-332 850.5,-310 700.5,-310"/>
<text text-anchor="start" x="705.5" y="-319.2" font-family="Helvetica,sans-Serif" font-weight="bold" font-size="11.00">report_challenges</text>
<text text-anchor="start" x="811.5" y="-318.2" font-family="Helvetica,sans-Serif" font-size="11.00">[table]</text>
<polygon fill="none" stroke="black" points="700.5,-292 700.5,-310 850.5,-310 850.5,-292 700.5,-292"/>
<text text-anchor="start" x="703.5" y="-298.2" font-family="Helvetica,sans-Serif" font-size="11.00">...</text>
<polygon fill="#ffffff" stroke="transparent" points="700.5,-274 700.5,-292 773.5,-292 773.5,-274 700.5,-274"/>
<polygon fill="none" stroke="black" points="700.5,-274 700.5,-292 773.5,-292 773.5,-274 700.5,-274"/>
<text text-anchor="start" x="703.5" y="-280.2" font-family="Helvetica,sans-Serif" font-size="11.00">&lt; 1</text>
<polygon fill="#ffffff" stroke="transparent" points="773.5,-274 773.5,-292 811.5,-292 811.5,-274 773.5,-274"/>
<polygon fill="none" stroke="black" points="773.5,-274 773.5,-292 811.5,-292 811.5,-274 773.5,-274"/>
<text text-anchor="start" x="801.5" y="-280.2" font-family="Helvetica,sans-Serif" font-size="11.00"> &#160;</text>
<polygon fill="#ffffff" stroke="transparent" points="811.5,-274 811.5,-292 850.5,-292 850.5,-274 811.5,-274"/>
<polygon fill="none" stroke="black" points="811.5,-274 811.5,-292 850.5,-292 850.5,-274 811.5,-274"/>
<text text-anchor="start" x="840.5" y="-280.2" font-family="Helvetica,sans-Serif" font-size="11.00"> &#160;</text>
</a>
</g>
</g>
<!-- report_challenges&#45;&gt;reports -->
<g id="edge5" class="edge">
<title>report_challenges:w&#45;&gt;reports:e</title>
<path fill="none" stroke="black" d="M684.74,-302.09C650.52,-307.04 618.06,-328.01 594.84,-346.95"/>
<polygon fill="black" stroke="black" points="691.52,-301.59 699.76,-304.59 695.51,-301.29 699.5,-301 699.5,-301 699.5,-301 695.51,-301.29 699.24,-297.41 691.52,-301.59 691.52,-301.59"/>
<ellipse fill="none" stroke="black" cx="688.33" cy="-301.82" rx="3.2" ry="3.2"/>
</g>
<!-- report_photos -->
<g id="node8" class="node">
<title>report_photos</title>
<g id="a_node8"><a xlink:href="../../tables/report_photos.html" xlink:title="report_photos" target="_top">
<polygon fill="#ffffff" stroke="transparent" points="711.5,-195 711.5,-253 839.5,-253 839.5,-195 711.5,-195"/>
<polygon fill="#f5f5f5" stroke="transparent" points="711.5,-231 711.5,-253 839.5,-253 839.5,-231 711.5,-231"/>
<polygon fill="none" stroke="black" points="711.5,-231 711.5,-253 839.5,-253 839.5,-231 711.5,-231"/>
<text text-anchor="start" x="716.5" y="-240.2" font-family="Helvetica,sans-Serif" font-weight="bold" font-size="11.00">report_photos</text>
<text text-anchor="start" x="800.5" y="-239.2" font-family="Helvetica,sans-Serif" font-size="11.00">[table]</text>
<polygon fill="none" stroke="black" points="711.5,-213 711.5,-231 839.5,-231 839.5,-213 711.5,-213"/>
<text text-anchor="start" x="714.5" y="-219.2" font-family="Helvetica,sans-Serif" font-size="11.00">...</text>
<polygon fill="#ffffff" stroke="transparent" points="711.5,-195 711.5,-213 768.5,-213 768.5,-195 711.5,-195"/>
<polygon fill="none" stroke="black" points="711.5,-195 711.5,-213 768.5,-213 768.5,-195 711.5,-195"/>
<text text-anchor="start" x="714.5" y="-201.2" font-family="Helvetica,sans-Serif" font-size="11.00">&lt; 2</text>
<polygon fill="#ffffff" stroke="transparent" points="768.5,-195 768.5,-213 799.5,-213 799.5,-195 768.5,-195"/>
<polygon fill="none" stroke="black" points="768.5,-195 768.5,-213 799.5,-213 799.5,-195 768.5,-195"/>
<text text-anchor="start" x="789.5" y="-201.2" font-family="Helvetica,sans-Serif" font-size="11.00"> &#160;</text>
<polygon fill="#ffffff" stroke="transparent" points="799.5,-195 799.5,-213 839.5,-213 839.5,-195 799.5,-195"/>
<polygon fill="none" stroke="black" points="799.5,-195 799.5,-213 839.5,-213 839.5,-195 799.5,-195"/>
<text text-anchor="start" x="820.5" y="-201.2" font-family="Helvetica,sans-Serif" font-size="11.00">2 &gt;</text>
</a>
</g>
</g>
<!-- report_photos&#45;&gt;reports -->
<g id="edge6" class="edge">
<title>report_photos:w&#45;&gt;reports:e</title>
<path fill="none" stroke="black" d="M696.02,-223.19C635.49,-233.18 593.78,-303.9 573.71,-346.88"/>
<polygon fill="black" stroke="black" points="702.53,-222.65 710.79,-225.59 706.51,-222.33 710.5,-222 710.5,-222 710.5,-222 706.51,-222.33 710.21,-218.41 702.53,-222.65 702.53,-222.65"/>
<ellipse fill="none" stroke="black" cx="699.34" cy="-222.92" rx="3.2" ry="3.2"/>
</g>
<!-- report_project_indicators -->
<g id="node9" class="node">
<title>report_project_indicators</title>
<g id="a_node9"><a xlink:href="../../tables/report_project_indicators.html" xlink:title="report_project_indicators" target="_top">
<polygon fill="#ffffff" stroke="transparent" points="678.5,-116 678.5,-174 872.5,-174 872.5,-116 678.5,-116"/>
<polygon fill="#f5f5f5" stroke="transparent" points="678.5,-152 678.5,-174 872.5,-174 872.5,-152 678.5,-152"/>
<polygon fill="none" stroke="black" points="678.5,-152 678.5,-174 872.5,-174 872.5,-152 678.5,-152"/>
<text text-anchor="start" x="683.5" y="-161.2" font-family="Helvetica,sans-Serif" font-weight="bold" font-size="11.00">report_project_indicators</text>
<text text-anchor="start" x="833.5" y="-160.2" font-family="Helvetica,sans-Serif" font-size="11.00">[table]</text>
<polygon fill="none" stroke="black" points="678.5,-134 678.5,-152 872.5,-152 872.5,-134 678.5,-134"/>
<text text-anchor="start" x="681.5" y="-140.2" font-family="Helvetica,sans-Serif" font-size="11.00">...</text>
<polygon fill="#ffffff" stroke="transparent" points="678.5,-116 678.5,-134 773.5,-134 773.5,-116 678.5,-116"/>
<polygon fill="none" stroke="black" points="678.5,-116 678.5,-134 773.5,-134 773.5,-116 678.5,-116"/>
<text text-anchor="start" x="681.5" y="-122.2" font-family="Helvetica,sans-Serif" font-size="11.00">&lt; 3</text>
<polygon fill="#ffffff" stroke="transparent" points="773.5,-116 773.5,-134 822.5,-134 822.5,-116 773.5,-116"/>
<polygon fill="none" stroke="black" points="773.5,-116 773.5,-134 822.5,-134 822.5,-116 773.5,-116"/>
<text text-anchor="start" x="812.5" y="-122.2" font-family="Helvetica,sans-Serif" font-size="11.00"> &#160;</text>
<polygon fill="#ffffff" stroke="transparent" points="822.5,-116 822.5,-134 872.5,-134 872.5,-116 822.5,-116"/>
<polygon fill="none" stroke="black" points="822.5,-116 822.5,-134 872.5,-134 872.5,-116 822.5,-116"/>
<text text-anchor="start" x="862.5" y="-122.2" font-family="Helvetica,sans-Serif" font-size="11.00"> &#160;</text>
</a>
</g>
</g>
<!-- report_project_indicators&#45;&gt;reports -->
<g id="edge7" class="edge">
<title>report_project_indicators:w&#45;&gt;reports:e</title>
<path fill="none" stroke="black" d="M662.88,-144.3C585.26,-158.46 566.2,-285.27 561.52,-346.8"/>
<polygon fill="black" stroke="black" points="669.53,-143.71 677.82,-146.59 673.52,-143.35 677.5,-143 677.5,-143 677.5,-143 673.52,-143.35 677.18,-139.41 669.53,-143.71 669.53,-143.71"/>
<ellipse fill="none" stroke="black" cx="666.34" cy="-143.99" rx="3.2" ry="3.2"/>
</g>
<!-- report_standard_indicators -->
<g id="node10" class="node">
<title>report_standard_indicators</title>
<g id="a_node10"><a xlink:href="../../tables/report_standard_indicators.html" xlink:title="report_standard_indicators" target="_top">
<polygon fill="#ffffff" stroke="transparent" points="672.5,-37 672.5,-95 878.5,-95 878.5,-37 672.5,-37"/>
<polygon fill="#f5f5f5" stroke="transparent" points="672.5,-73 672.5,-95 878.5,-95 878.5,-73 672.5,-73"/>
<polygon fill="none" stroke="black" points="672.5,-73 672.5,-95 878.5,-95 878.5,-73 672.5,-73"/>
<text text-anchor="start" x="677.5" y="-82.2" font-family="Helvetica,sans-Serif" font-weight="bold" font-size="11.00">report_standard_indicators</text>
<text text-anchor="start" x="839.5" y="-81.2" font-family="Helvetica,sans-Serif" font-size="11.00">[table]</text>
<polygon fill="none" stroke="black" points="672.5,-55 672.5,-73 878.5,-73 878.5,-55 672.5,-55"/>
<text text-anchor="start" x="675.5" y="-61.2" font-family="Helvetica,sans-Serif" font-size="11.00">...</text>
<polygon fill="#ffffff" stroke="transparent" points="672.5,-37 672.5,-55 773.5,-55 773.5,-37 672.5,-37"/>
<polygon fill="none" stroke="black" points="672.5,-37 672.5,-55 773.5,-55 773.5,-37 672.5,-37"/>
<text text-anchor="start" x="675.5" y="-43.2" font-family="Helvetica,sans-Serif" font-size="11.00">&lt; 3</text>
<polygon fill="#ffffff" stroke="transparent" points="773.5,-37 773.5,-55 825.5,-55 825.5,-37 773.5,-37"/>
<polygon fill="none" stroke="black" points="773.5,-37 773.5,-55 825.5,-55 825.5,-37 773.5,-37"/>
<text text-anchor="start" x="815.5" y="-43.2" font-family="Helvetica,sans-Serif" font-size="11.00"> &#160;</text>
<polygon fill="#ffffff" stroke="transparent" points="825.5,-37 825.5,-55 878.5,-55 878.5,-37 825.5,-37"/>
<polygon fill="none" stroke="black" points="825.5,-37 825.5,-55 878.5,-55 878.5,-37 825.5,-37"/>
<text text-anchor="start" x="868.5" y="-43.2" font-family="Helvetica,sans-Serif" font-size="11.00"> &#160;</text>
</a>
</g>
</g>
<!-- report_standard_indicators&#45;&gt;reports -->
<g id="edge8" class="edge">
<title>report_standard_indicators:w&#45;&gt;reports:e</title>
<path fill="none" stroke="black" d="M657.34,-67.89C606.33,-96.27 575.44,-272.3 564.5,-346.78"/>
<polygon fill="black" stroke="black" points="663.79,-66.12 672.45,-67.47 667.64,-65.06 671.5,-64 671.5,-64 671.5,-64 667.64,-65.06 670.55,-60.53 663.79,-66.12 663.79,-66.12"/>
<ellipse fill="none" stroke="black" cx="660.7" cy="-66.97" rx="3.2" ry="3.2"/>
</g>
<!-- funder.published_reports -->
<g id="node13" class="node">
<title>funder.published_reports</title>
<g id="a_node13"><a xlink:href="../../../funder/tables/published_reports.html" xlink:title="funder.published_reports" target="_top">
<polygon fill="#ffffff" stroke="transparent" points="677.5,-511 677.5,-569 873.5,-569 873.5,-511 677.5,-511"/>
<polygon fill="#f5f5f5" stroke="transparent" points="677.5,-547 677.5,-569 873.5,-569 873.5,-547 677.5,-547"/>
<polygon fill="none" stroke="black" points="677.5,-547 677.5,-569 873.5,-569 873.5,-547 677.5,-547"/>
<text text-anchor="start" x="682.5" y="-556.2" font-family="Helvetica,sans-Serif" font-weight="bold" font-size="11.00">funder.published_reports</text>
<text text-anchor="start" x="834.5" y="-555.2" font-family="Helvetica,sans-Serif" font-size="11.00">[table]</text>
<polygon fill="none" stroke="black" points="677.5,-529 677.5,-547 873.5,-547 873.5,-529 677.5,-529"/>
<text text-anchor="start" x="680.5" y="-535.2" font-family="Helvetica,sans-Serif" font-size="11.00">...</text>
<polygon fill="#ffffff" stroke="transparent" points="677.5,-511 677.5,-529 759.5,-529 759.5,-511 677.5,-511"/>
<polygon fill="none" stroke="black" points="677.5,-511 677.5,-529 759.5,-529 759.5,-511 677.5,-511"/>
<text text-anchor="start" x="680.5" y="-517.2" font-family="Helvetica,sans-Serif" font-size="11.00">&lt; 3</text>
<polygon fill="#ffffff" stroke="transparent" points="759.5,-511 759.5,-529 829.5,-529 829.5,-511 759.5,-511"/>
<polygon fill="none" stroke="black" points="759.5,-511 759.5,-529 829.5,-529 829.5,-511 759.5,-511"/>
<text text-anchor="start" x="792.5" y="-517.2" font-family="Helvetica,sans-Serif" font-size="11.00">0 rows</text>
<polygon fill="#ffffff" stroke="transparent" points="829.5,-511 829.5,-529 873.5,-529 873.5,-511 829.5,-511"/>
<polygon fill="none" stroke="black" points="829.5,-511 829.5,-529 873.5,-529 873.5,-511 829.5,-511"/>
<text text-anchor="start" x="863.5" y="-517.2" font-family="Helvetica,sans-Serif" font-size="11.00"> &#160;</text>
</a>
</g>
</g>
<!-- funder.published_reports&#45;&gt;report_frequencies -->
<g id="edge16" class="edge">
<title>funder.published_reports:w&#45;&gt;report_frequencies:e</title>
<path fill="none" stroke="black" d="M654.56,-569.88C547.47,-589.35 390.98,-599.24 281,-526 243.25,-500.86 284.35,-433 239,-433"/>
<polygon fill="black" stroke="black" points="661.15,-568.64 669.68,-570.68 665.08,-567.89 669.01,-567.15 669.01,-567.15 669.01,-567.15 665.08,-567.89 668.34,-563.61 661.15,-568.64 661.15,-568.64"/>
<ellipse fill="none" stroke="black" cx="658" cy="-569.23" rx="3.2" ry="3.2"/>
</g>
<!-- funder.published_reports&#45;&gt;reports -->
<g id="edge17" class="edge">
<title>funder.published_reports:w&#45;&gt;reports:e</title>
<path fill="none" stroke="black" d="M656.18,-508.84C651.96,-506.42 647.88,-503.81 644,-501 612.84,-478.41 589.28,-440.56 575.16,-413.2"/>
<polygon fill="black" stroke="black" points="662.14,-511.91 667.6,-518.77 665.69,-513.74 669.25,-515.57 669.25,-515.57 669.25,-515.57 665.69,-513.74 670.9,-512.37 662.14,-511.91 662.14,-511.91"/>
<ellipse fill="none" stroke="black" cx="659.29" cy="-510.44" rx="3.2" ry="3.2"/>
</g>
<!-- funder.published_reports&#45;&gt;report_quarters -->
<g id="edge18" class="edge">
<title>funder.published_reports:w&#45;&gt;report_quarters:e</title>
<path fill="none" stroke="black" d="M654.77,-509.42C593.5,-496.33 517.48,-484 448.5,-484"/>
<polygon fill="black" stroke="black" points="661.39,-510.87 668.44,-516.09 665.3,-511.72 669.21,-512.57 669.21,-512.57 669.21,-512.57 665.3,-511.72 669.98,-509.06 661.39,-510.87 661.39,-510.87"/>
<ellipse fill="none" stroke="black" cx="658.27" cy="-510.18" rx="3.2" ry="3.2"/>
</g>
</g>
</svg>
