<?xml version="1.0" encoding="UTF-8" standalone="no"?>
<!DOCTYPE svg PUBLIC "-//W3C//DTD SVG 1.1//EN"
 "http://www.w3.org/Graphics/SVG/1.1/DTD/svg11.dtd">
<!-- Generated by graphviz version 2.47.1 (20210515.0534)
 -->
<!-- Title: oneDegreeRelationshipsDiagram Pages: 1 -->
<svg width="569pt" height="537pt"
 viewBox="0.00 0.00 569.00 537.00" xmlns="http://www.w3.org/2000/svg" xmlns:xlink="http://www.w3.org/1999/xlink">
<g id="graph0" class="graph" transform="scale(1 1) rotate(0) translate(4 533)">
<title>oneDegreeRelationshipsDiagram</title>
<polygon fill="#ffffff" stroke="transparent" points="-4,4 -4,-533 565,-533 565,4 -4,4"/>
<text text-anchor="middle" x="73.5" y="-7.2" font-family="Helvetica,sans-Serif" font-size="11.00">Generated by SchemaSpy</text>
<!-- report_system_metrics -->
<g id="node1" class="node">
<title>report_system_metrics</title>
<g id="a_node1"><a xlink:href="../../tables/report_system_metrics.html" xlink:title="report_system_metrics" target="_top">
<polygon fill="#ffffff" stroke="transparent" points="238,-57 238,-343 553,-343 553,-57 238,-57"/>
<polygon fill="#f5f5f5" stroke="transparent" points="240.5,-319 240.5,-341 551.5,-341 551.5,-319 240.5,-319"/>
<polygon fill="none" stroke="black" points="240.5,-319 240.5,-341 551.5,-341 551.5,-319 240.5,-319"/>
<text text-anchor="start" x="245.5" y="-328.2" font-family="Helvetica,sans-Serif" font-weight="bold" font-size="11.00">report_system_metrics</text>
<text text-anchor="start" x="512.5" y="-327.2" font-family="Helvetica,sans-Serif" font-size="11.00">[table]</text>
<polygon fill="none" stroke="black" points="240.5,-297 240.5,-319 451.5,-319 451.5,-297 240.5,-297"/>
<image xlink:href="../../images/primaryKeys.png" width="11px" height="12px" preserveAspectRatio="xMinYMin meet" x="245.5" y="-314"/>
<text text-anchor="start" x="260.5" y="-305.2" font-family="Helvetica,sans-Serif" font-size="11.00">report_id</text>
<polygon fill="none" stroke="black" points="451.5,-297 451.5,-319 551.5,-319 551.5,-297 451.5,-297"/>
<text text-anchor="start" x="454.5" y="-305.2" font-family="Helvetica,sans-Serif" font-size="11.00">int8[19]</text>
<polygon fill="none" stroke="black" points="240.5,-275 240.5,-297 451.5,-297 451.5,-275 240.5,-275"/>
<image xlink:href="../../images/primaryKeys.png" width="11px" height="12px" preserveAspectRatio="xMinYMin meet" x="245.5" y="-292"/>
<text text-anchor="start" x="260.5" y="-283.2" font-family="Helvetica,sans-Serif" font-size="11.00">system_metric_id</text>
<polygon fill="none" stroke="black" points="451.5,-275 451.5,-297 551.5,-297 551.5,-275 451.5,-275"/>
<text text-anchor="start" x="454.5" y="-283.2" font-family="Helvetica,sans-Serif" font-size="11.00">int4[10]</text>
<polygon fill="none" stroke="black" points="240.5,-253 240.5,-275 451.5,-275 451.5,-253 240.5,-253"/>
<text text-anchor="start" x="260.5" y="-261.2" font-family="Helvetica,sans-Serif" font-size="11.00">target</text>
<polygon fill="none" stroke="black" points="451.5,-253 451.5,-275 551.5,-275 551.5,-253 451.5,-253"/>
<text text-anchor="start" x="454.5" y="-261.2" font-family="Helvetica,sans-Serif" font-size="11.00">int4[10]</text>
<polygon fill="none" stroke="black" points="240.5,-231 240.5,-253 451.5,-253 451.5,-231 240.5,-231"/>
<text text-anchor="start" x="260.5" y="-239.2" font-family="Helvetica,sans-Serif" font-size="11.00">system_value</text>
<polygon fill="none" stroke="black" points="451.5,-231 451.5,-253 551.5,-253 551.5,-231 451.5,-231"/>
<text text-anchor="start" x="454.5" y="-239.2" font-family="Helvetica,sans-Serif" font-size="11.00">int4[10]</text>
<polygon fill="none" stroke="black" points="240.5,-209 240.5,-231 451.5,-231 451.5,-209 240.5,-209"/>
<text text-anchor="start" x="260.5" y="-217.2" font-family="Helvetica,sans-Serif" font-size="11.00">system_time</text>
<polygon fill="none" stroke="black" points="451.5,-209 451.5,-231 551.5,-231 551.5,-209 451.5,-209"/>
<text text-anchor="start" x="454.5" y="-217.2" font-family="Helvetica,sans-Serif" font-size="11.00">timestamptz[35,6]</text>
<polygon fill="none" stroke="black" points="240.5,-187 240.5,-209 451.5,-209 451.5,-187 240.5,-187"/>
<text text-anchor="start" x="260.5" y="-195.2" font-family="Helvetica,sans-Serif" font-size="11.00">override_value</text>
<polygon fill="none" stroke="black" points="451.5,-187 451.5,-209 551.5,-209 551.5,-187 451.5,-187"/>
<text text-anchor="start" x="454.5" y="-195.2" font-family="Helvetica,sans-Serif" font-size="11.00">int4[10]</text>
<polygon fill="none" stroke="black" points="240.5,-165 240.5,-187 451.5,-187 451.5,-165 240.5,-165"/>
<text text-anchor="start" x="260.5" y="-173.2" font-family="Helvetica,sans-Serif" font-size="11.00">underperformance_justification</text>
<polygon fill="none" stroke="black" points="451.5,-165 451.5,-187 551.5,-187 551.5,-165 451.5,-165"/>
<text text-anchor="start" x="454.5" y="-173.2" font-family="Helvetica,sans-Serif" font-size="11.00">text[2147483647]</text>
<polygon fill="none" stroke="black" points="240.5,-143 240.5,-165 451.5,-165 451.5,-143 240.5,-143"/>
<text text-anchor="start" x="260.5" y="-151.2" font-family="Helvetica,sans-Serif" font-size="11.00">progress_notes</text>
<polygon fill="none" stroke="black" points="451.5,-143 451.5,-165 551.5,-165 551.5,-143 451.5,-143"/>
<text text-anchor="start" x="454.5" y="-151.2" font-family="Helvetica,sans-Serif" font-size="11.00">text[2147483647]</text>
<polygon fill="none" stroke="black" points="240.5,-121 240.5,-143 451.5,-143 451.5,-121 240.5,-121"/>
<text text-anchor="start" x="260.5" y="-129.2" font-family="Helvetica,sans-Serif" font-size="11.00">modified_by</text>
<polygon fill="none" stroke="black" points="451.5,-121 451.5,-143 551.5,-143 551.5,-121 451.5,-121"/>
<text text-anchor="start" x="454.5" y="-129.2" font-family="Helvetica,sans-Serif" font-size="11.00">int8[19]</text>
<polygon fill="none" stroke="black" points="240.5,-99 240.5,-121 451.5,-121 451.5,-99 240.5,-99"/>
<text text-anchor="start" x="260.5" y="-107.2" font-family="Helvetica,sans-Serif" font-size="11.00">modified_time</text>
<polygon fill="none" stroke="black" points="451.5,-99 451.5,-121 551.5,-121 551.5,-99 451.5,-99"/>
<text text-anchor="start" x="454.5" y="-107.2" font-family="Helvetica,sans-Serif" font-size="11.00">timestamptz[35,6]</text>
<polygon fill="none" stroke="black" points="240.5,-77 240.5,-99 451.5,-99 451.5,-77 240.5,-77"/>
<image xlink:href="../../images/foreignKeys.png" width="11px" height="12px" preserveAspectRatio="xMinYMin meet" x="245.5" y="-94"/>
<text text-anchor="start" x="260.5" y="-85.2" font-family="Helvetica,sans-Serif" font-size="11.00">status_id</text>
<polygon fill="none" stroke="black" points="451.5,-77 451.5,-99 551.5,-99 551.5,-77 451.5,-77"/>
<text text-anchor="start" x="454.5" y="-85.2" font-family="Helvetica,sans-Serif" font-size="11.00">int4[10]</text>
<polygon fill="#ffffff" stroke="transparent" points="240.5,-59 240.5,-77 350.5,-77 350.5,-59 240.5,-59"/>
<polygon fill="none" stroke="black" points="240.5,-59 240.5,-77 350.5,-77 350.5,-59 240.5,-59"/>
<text text-anchor="start" x="243.5" y="-65.2" font-family="Helvetica,sans-Serif" font-size="11.00">&lt; 3</text>
<polygon fill="#ffffff" stroke="transparent" points="350.5,-59 350.5,-77 451.5,-77 451.5,-59 350.5,-59"/>
<polygon fill="none" stroke="black" points="350.5,-59 350.5,-77 451.5,-77 451.5,-59 350.5,-59"/>
<text text-anchor="start" x="441.5" y="-65.2" font-family="Helvetica,sans-Serif" font-size="11.00"> &#160;</text>
<polygon fill="#ffffff" stroke="transparent" points="451.5,-59 451.5,-77 551.5,-77 551.5,-59 451.5,-59"/>
<polygon fill="none" stroke="black" points="451.5,-59 451.5,-77 551.5,-77 551.5,-59 451.5,-59"/>
<text text-anchor="start" x="532.5" y="-65.2" font-family="Helvetica,sans-Serif" font-size="11.00">0 &gt;</text>
<polygon fill="none" stroke="black" stroke-width="2" points="239,-58 239,-342 552,-342 552,-58 239,-58"/>
</a>
</g>
</g>
<!-- reports -->
<g id="node2" class="node">
<title>reports</title>
<g id="a_node2"><a xlink:href="../../tables/reports.html" xlink:title="reports" target="_top">
<polygon fill="#ffffff" stroke="transparent" points="28.5,-313 28.5,-525 168.5,-525 168.5,-313 28.5,-313"/>
<polygon fill="#f5f5f5" stroke="transparent" points="28.5,-503 28.5,-525 168.5,-525 168.5,-503 28.5,-503"/>
<polygon fill="none" stroke="black" points="28.5,-503 28.5,-525 168.5,-525 168.5,-503 28.5,-503"/>
<text text-anchor="start" x="33" y="-512.2" font-family="Helvetica,sans-Serif" font-weight="bold" font-size="11.00">reports</text>
<text text-anchor="start" x="129.5" y="-511.2" font-family="Helvetica,sans-Serif" font-size="11.00">[table]</text>
<polygon fill="none" stroke="black" points="28.5,-481 28.5,-503 168.5,-503 168.5,-481 28.5,-481"/>
<image xlink:href="../../images/primaryKeys.png" width="11px" height="12px" preserveAspectRatio="xMinYMin meet" x="33.5" y="-498"/>
<text text-anchor="start" x="48.5" y="-489.2" font-family="Helvetica,sans-Serif" font-size="11.00">id</text>
<polygon fill="none" stroke="black" points="28.5,-459 28.5,-481 168.5,-481 168.5,-459 28.5,-459"/>
<image xlink:href="../../images/foreignKeys.png" width="11px" height="12px" preserveAspectRatio="xMinYMin meet" x="33.5" y="-476"/>
<text text-anchor="start" x="48.5" y="-467.2" font-family="Helvetica,sans-Serif" font-size="11.00">config_id</text>
<polygon fill="#ffffff" stroke="transparent" points="28.5,-437 28.5,-459 168.5,-459 168.5,-437 28.5,-437"/>
<polygon fill="none" stroke="black" points="28.5,-437 28.5,-459 168.5,-459 168.5,-437 28.5,-437"/>
<image xlink:href="../../images/foreignKeys.png" width="11px" height="12px" preserveAspectRatio="xMinYMin meet" x="33.5" y="-454"/>
<text text-anchor="start" x="48.5" y="-445.2" font-family="Helvetica,sans-Serif" font-size="11.00">project_id</text>
<polygon fill="none" stroke="black" points="28.5,-415 28.5,-437 168.5,-437 168.5,-415 28.5,-415"/>
<image xlink:href="../../images/foreignKeys.png" width="11px" height="12px" preserveAspectRatio="xMinYMin meet" x="33.5" y="-432"/>
<text text-anchor="start" x="48.5" y="-423.2" font-family="Helvetica,sans-Serif" font-size="11.00">status_id</text>
<polygon fill="#ffffff" stroke="transparent" points="28.5,-393 28.5,-415 168.5,-415 168.5,-393 28.5,-393"/>
<polygon fill="none" stroke="black" points="28.5,-393 28.5,-415 168.5,-415 168.5,-393 28.5,-393"/>
<text text-anchor="start" x="48.5" y="-401.2" font-family="Helvetica,sans-Serif" font-size="11.00">end_date</text>
<polygon fill="none" stroke="black" points="28.5,-371 28.5,-393 168.5,-393 168.5,-371 28.5,-371"/>
<image xlink:href="../../images/foreignKeys.png" width="11px" height="12px" preserveAspectRatio="xMinYMin meet" x="33.5" y="-388"/>
<text text-anchor="start" x="48.5" y="-379.2" font-family="Helvetica,sans-Serif" font-size="11.00">report_frequency_id</text>
<polygon fill="none" stroke="black" points="28.5,-349 28.5,-371 168.5,-371 168.5,-349 28.5,-349"/>
<image xlink:href="../../images/foreignKeys.png" width="11px" height="12px" preserveAspectRatio="xMinYMin meet" x="33.5" y="-366"/>
<text text-anchor="start" x="48.5" y="-357.2" font-family="Helvetica,sans-Serif" font-size="11.00">report_quarter_id</text>
<polygon fill="none" stroke="black" points="28.5,-331 28.5,-349 168.5,-349 168.5,-331 28.5,-331"/>
<text text-anchor="start" x="31.5" y="-337.2" font-family="Helvetica,sans-Serif" font-size="11.00">...</text>
<polygon fill="#ffffff" stroke="transparent" points="28.5,-313 28.5,-331 91.5,-331 91.5,-313 28.5,-313"/>
<polygon fill="none" stroke="black" points="28.5,-313 28.5,-331 91.5,-331 91.5,-313 28.5,-313"/>
<text text-anchor="start" x="31.5" y="-319.2" font-family="Helvetica,sans-Serif" font-size="11.00">&lt; 7</text>
<polygon fill="#ffffff" stroke="transparent" points="91.5,-313 91.5,-331 125.5,-331 125.5,-313 91.5,-313"/>
<polygon fill="none" stroke="black" points="91.5,-313 91.5,-331 125.5,-331 125.5,-313 91.5,-313"/>
<text text-anchor="start" x="115.5" y="-319.2" font-family="Helvetica,sans-Serif" font-size="11.00"> &#160;</text>
<polygon fill="#ffffff" stroke="transparent" points="125.5,-313 125.5,-331 168.5,-331 168.5,-313 125.5,-313"/>
<polygon fill="none" stroke="black" points="125.5,-313 125.5,-331 168.5,-331 168.5,-313 125.5,-313"/>
<text text-anchor="start" x="149.5" y="-319.2" font-family="Helvetica,sans-Serif" font-size="11.00">6 &gt;</text>
</a>
</g>
</g>
<!-- report_system_metrics&#45;&gt;reports -->
<g id="edge1" class="edge">
<title>report_system_metrics:w&#45;&gt;reports:e</title>
<path fill="none" stroke="black" d="M224.88,-310.19C164.74,-330.95 251.36,-492 169.5,-492"/>
<polygon fill="black" stroke="black" points="231.59,-309.19 240.03,-311.56 235.54,-308.59 239.5,-308 239.5,-308 239.5,-308 235.54,-308.59 238.97,-304.44 231.59,-309.19 231.59,-309.19"/>
<ellipse fill="none" stroke="black" cx="228.42" cy="-309.66" rx="3.2" ry="3.2"/>
</g>
<!-- report_metric_statuses -->
<g id="node3" class="node">
<title>report_metric_statuses</title>
<g id="a_node3"><a xlink:href="../../tables/report_metric_statuses.html" xlink:title="report_metric_statuses" target="_top">
<polygon fill="#ffffff" stroke="transparent" points="8,-37 8,-121 189,-121 189,-37 8,-37"/>
<polygon fill="#f5f5f5" stroke="transparent" points="8.5,-99 8.5,-121 189.5,-121 189.5,-99 8.5,-99"/>
<polygon fill="none" stroke="black" points="8.5,-99 8.5,-121 189.5,-121 189.5,-99 8.5,-99"/>
<text text-anchor="start" x="13.5" y="-108.2" font-family="Helvetica,sans-Serif" font-weight="bold" font-size="11.00">report_metric_statuses</text>
<text text-anchor="start" x="150.5" y="-107.2" font-family="Helvetica,sans-Serif" font-size="11.00">[table]</text>
<polygon fill="none" stroke="black" points="8.5,-77 8.5,-99 189.5,-99 189.5,-77 8.5,-77"/>
<image xlink:href="../../images/primaryKeys.png" width="11px" height="12px" preserveAspectRatio="xMinYMin meet" x="13.5" y="-94"/>
<text text-anchor="start" x="40.5" y="-85.2" font-family="Helvetica,sans-Serif" font-size="11.00">id</text>
<polygon fill="#ffffff" stroke="transparent" points="8.5,-55 8.5,-77 189.5,-77 189.5,-55 8.5,-55"/>
<polygon fill="none" stroke="black" points="8.5,-55 8.5,-77 189.5,-77 189.5,-55 8.5,-55"/>
<text text-anchor="start" x="40.5" y="-63.2" font-family="Helvetica,sans-Serif" font-size="11.00">name</text>
<polygon fill="#ffffff" stroke="transparent" points="8.5,-37 8.5,-55 87.5,-55 87.5,-37 8.5,-37"/>
<polygon fill="none" stroke="black" points="8.5,-37 8.5,-55 87.5,-55 87.5,-37 8.5,-37"/>
<text text-anchor="start" x="11.5" y="-43.2" font-family="Helvetica,sans-Serif" font-size="11.00"> &#160;</text>
<polygon fill="#ffffff" stroke="transparent" points="87.5,-37 87.5,-55 133.5,-55 133.5,-37 87.5,-37"/>
<polygon fill="none" stroke="black" points="87.5,-37 87.5,-55 133.5,-55 133.5,-37 87.5,-37"/>
<text text-anchor="start" x="123.5" y="-43.2" font-family="Helvetica,sans-Serif" font-size="11.00"> &#160;</text>
<polygon fill="#ffffff" stroke="transparent" points="133.5,-37 133.5,-55 189.5,-55 189.5,-37 133.5,-37"/>
<polygon fill="none" stroke="black" points="133.5,-37 133.5,-55 189.5,-55 189.5,-37 133.5,-37"/>
<text text-anchor="start" x="170.5" y="-43.2" font-family="Helvetica,sans-Serif" font-size="11.00">3 &gt;</text>
</a>
</g>
</g>
<!-- report_system_metrics&#45;&gt;report_metric_statuses -->
<g id="edge2" class="edge">
<title>report_system_metrics:w&#45;&gt;report_metric_statuses:e</title>
<path fill="none" stroke="black" d="M224.99,-88C213.68,-88 206.49,-88 190.5,-88"/>
<polygon fill="black" stroke="black" points="231.5,-88 239.5,-91.6 235.5,-88 239.5,-88 239.5,-88 239.5,-88 235.5,-88 239.5,-84.4 231.5,-88 231.5,-88"/>
<ellipse fill="none" stroke="black" cx="228.3" cy="-88" rx="3.2" ry="3.2"/>
</g>
<!-- system_metrics -->
<g id="node4" class="node">
<title>system_metrics</title>
<g id="a_node4"><a xlink:href="../../tables/system_metrics.html" xlink:title="system_metrics" target="_top">
<polygon fill="#ffffff" stroke="transparent" points="30,-168 30,-292 167,-292 167,-168 30,-168"/>
<polygon fill="#f5f5f5" stroke="transparent" points="30.5,-270 30.5,-292 167.5,-292 167.5,-270 30.5,-270"/>
<polygon fill="none" stroke="black" points="30.5,-270 30.5,-292 167.5,-292 167.5,-270 30.5,-270"/>
<text text-anchor="start" x="35.5" y="-279.2" font-family="Helvetica,sans-Serif" font-weight="bold" font-size="11.00">system_metrics</text>
<text text-anchor="start" x="128.5" y="-278.2" font-family="Helvetica,sans-Serif" font-size="11.00">[table]</text>
<polygon fill="none" stroke="black" points="30.5,-248 30.5,-270 167.5,-270 167.5,-248 30.5,-248"/>
<image xlink:href="../../images/primaryKeys.png" width="11px" height="12px" preserveAspectRatio="xMinYMin meet" x="35.5" y="-265"/>
<text text-anchor="start" x="62.5" y="-256.2" font-family="Helvetica,sans-Serif" font-size="11.00">id</text>
<polygon fill="none" stroke="black" points="30.5,-226 30.5,-248 167.5,-248 167.5,-226 30.5,-226"/>
<image xlink:href="../../images/foreignKeys.png" width="11px" height="12px" preserveAspectRatio="xMinYMin meet" x="35.5" y="-243"/>
<text text-anchor="start" x="62.5" y="-234.2" font-family="Helvetica,sans-Serif" font-size="11.00">type_id</text>
<polygon fill="none" stroke="black" points="30.5,-204 30.5,-226 167.5,-226 167.5,-204 30.5,-204"/>
<image xlink:href="../../images/foreignKeys.png" width="11px" height="12px" preserveAspectRatio="xMinYMin meet" x="35.5" y="-221"/>
<text text-anchor="start" x="62.5" y="-212.2" font-family="Helvetica,sans-Serif" font-size="11.00">component_id</text>
<polygon fill="none" stroke="black" points="30.5,-186 30.5,-204 167.5,-204 167.5,-186 30.5,-186"/>
<text text-anchor="start" x="33.5" y="-192.2" font-family="Helvetica,sans-Serif" font-size="11.00">...</text>
<polygon fill="#ffffff" stroke="transparent" points="30.5,-168 30.5,-186 92.5,-186 92.5,-168 30.5,-168"/>
<polygon fill="none" stroke="black" points="30.5,-168 30.5,-186 92.5,-186 92.5,-168 30.5,-168"/>
<text text-anchor="start" x="33.5" y="-174.2" font-family="Helvetica,sans-Serif" font-size="11.00">&lt; 2</text>
<polygon fill="#ffffff" stroke="transparent" points="92.5,-168 92.5,-186 125.5,-186 125.5,-168 92.5,-168"/>
<polygon fill="none" stroke="black" points="92.5,-168 92.5,-186 125.5,-186 125.5,-168 92.5,-168"/>
<text text-anchor="start" x="115.5" y="-174.2" font-family="Helvetica,sans-Serif" font-size="11.00"> &#160;</text>
<polygon fill="#ffffff" stroke="transparent" points="125.5,-168 125.5,-186 167.5,-186 167.5,-168 125.5,-168"/>
<polygon fill="none" stroke="black" points="125.5,-168 125.5,-186 167.5,-186 167.5,-168 125.5,-168"/>
<text text-anchor="start" x="148.5" y="-174.2" font-family="Helvetica,sans-Serif" font-size="11.00">2 &gt;</text>
</a>
</g>
</g>
<!-- report_system_metrics&#45;&gt;system_metrics -->
<g id="edge3" class="edge">
<title>report_system_metrics:w&#45;&gt;system_metrics:e</title>
<path fill="none" stroke="black" d="M225.06,-284.06C203.78,-277.87 196.72,-259 168.5,-259"/>
<polygon fill="black" stroke="black" points="231.57,-284.93 239.02,-289.57 235.54,-285.47 239.5,-286 239.5,-286 239.5,-286 235.54,-285.47 239.98,-282.43 231.57,-284.93 231.57,-284.93"/>
<ellipse fill="none" stroke="black" cx="228.4" cy="-284.51" rx="3.2" ry="3.2"/>
</g>
</g>
</svg>
