<?xml version="1.0" encoding="UTF-8" standalone="no"?>
<!DOCTYPE svg PUBLIC "-//W3C//DTD SVG 1.1//EN"
 "http://www.w3.org/Graphics/SVG/1.1/DTD/svg11.dtd">
<!-- Generated by graphviz version 2.38.0 (20140413.2041)
 -->
<!-- Title: oneDegreeRelationshipsDiagram Pages: 1 -->
<svg width="720pt" height="447pt"
 viewBox="0.00 0.00 720.00 447.00" xmlns="http://www.w3.org/2000/svg" xmlns:xlink="http://www.w3.org/1999/xlink">
<g id="graph0" class="graph" transform="scale(1 1) rotate(0) translate(4 443)">
<title>oneDegreeRelationshipsDiagram</title>
<polygon fill="#ffffff" stroke="none" points="-4,4 -4,-443 716,-443 716,4 -4,4"/>
<text text-anchor="middle" x="74.5" y="-7.2" font-family="Helvetica,sans-Serif" font-size="11.00">Generated by SchemaSpy</text>
<!-- submission_documents -->
<g id="node1" class="node"><title>submission_documents</title>
<g id="a_node1"><a xlink:href="../../tables/submission_documents.html" xlink:title="submission_documents" target="_top">
<polygon fill="#ffffff" stroke="none" points="523,-267 523,-435 704,-435 704,-267 523,-267"/>
<polygon fill="#f5f5f5" stroke="none" points="523.5,-413 523.5,-435 704.5,-435 704.5,-413 523.5,-413"/>
<polygon fill="none" stroke="black" points="523.5,-413 523.5,-435 704.5,-435 704.5,-413 523.5,-413"/>
<text text-anchor="start" x="528.5" y="-422.2" font-family="Helvetica,sans-Serif" font-weight="bold" font-size="11.00">submission_documents</text>
<text text-anchor="start" x="665.5" y="-421.2" font-family="Helvetica,sans-Serif" font-size="11.00">[table]</text>
<polygon fill="none" stroke="black" points="523.5,-391 523.5,-413 704.5,-413 704.5,-391 523.5,-391"/>
<image xlink:href="../../images/primaryKeys.png" width="11px" height="12px" preserveAspectRatio="xMinYMin meet" x="528.5" y="-408"/>
<text text-anchor="start" x="554.5" y="-399.2" font-family="Helvetica,sans-Serif" font-size="11.00">id</text>
<polygon fill="#ffffff" stroke="none" points="523.5,-369 523.5,-391 704.5,-391 704.5,-369 523.5,-369"/>
<polygon fill="none" stroke="black" points="523.5,-369 523.5,-391 704.5,-391 704.5,-369 523.5,-369"/>
<image xlink:href="../../images/foreignKeys.png" width="11px" height="12px" preserveAspectRatio="xMinYMin meet" x="528.5" y="-386"/>
<text text-anchor="start" x="554.5" y="-377.2" font-family="Helvetica,sans-Serif" font-size="11.00">submission_id</text>
<polygon fill="none" stroke="black" points="523.5,-347 523.5,-369 704.5,-369 704.5,-347 523.5,-347"/>
<image xlink:href="../../images/foreignKeys.png" width="11px" height="12px" preserveAspectRatio="xMinYMin meet" x="528.5" y="-364"/>
<text text-anchor="start" x="554.5" y="-355.2" font-family="Helvetica,sans-Serif" font-size="11.00">document_store_id</text>
<polygon fill="#ffffff" stroke="none" points="523.5,-325 523.5,-347 704.5,-347 704.5,-325 523.5,-325"/>
<polygon fill="none" stroke="black" points="523.5,-325 523.5,-347 704.5,-347 704.5,-325 523.5,-325"/>
<text text-anchor="start" x="554.5" y="-333.2" font-family="Helvetica,sans-Serif" font-size="11.00">name</text>
<polygon fill="#ffffff" stroke="none" points="523.5,-303 523.5,-325 704.5,-325 704.5,-303 523.5,-303"/>
<polygon fill="none" stroke="black" points="523.5,-303 523.5,-325 704.5,-325 704.5,-303 523.5,-303"/>
<image xlink:href="../../images/foreignKeys.png" width="11px" height="12px" preserveAspectRatio="xMinYMin meet" x="528.5" y="-320"/>
<text text-anchor="start" x="554.5" y="-311.2" font-family="Helvetica,sans-Serif" font-size="11.00">project_id</text>
<polygon fill="none" stroke="black" points="523.5,-285 523.5,-303 704.5,-303 704.5,-285 523.5,-285"/>
<text text-anchor="start" x="526.5" y="-291.2" font-family="Helvetica,sans-Serif" font-size="11.00">...</text>
<polygon fill="#ffffff" stroke="none" points="523.5,-267 523.5,-285 597.5,-285 597.5,-267 523.5,-267"/>
<polygon fill="none" stroke="black" points="523.5,-267 523.5,-285 597.5,-285 597.5,-267 523.5,-267"/>
<text text-anchor="start" x="526.5" y="-273.2" font-family="Helvetica,sans-Serif" font-size="11.00">&lt; 3</text>
<polygon fill="#ffffff" stroke="none" points="597.5,-267 597.5,-285 665.5,-285 665.5,-267 597.5,-267"/>
<polygon fill="none" stroke="black" points="597.5,-267 597.5,-285 665.5,-285 665.5,-267 597.5,-267"/>
<text text-anchor="start" x="626.5" y="-273.2" font-family="Helvetica,sans-Serif" font-size="11.00">0 rows</text>
<polygon fill="#ffffff" stroke="none" points="665.5,-267 665.5,-285 704.5,-285 704.5,-267 665.5,-267"/>
<polygon fill="none" stroke="black" points="665.5,-267 665.5,-285 704.5,-285 704.5,-267 665.5,-267"/>
<text text-anchor="start" x="694.5" y="-273.2" font-family="Helvetica,sans-Serif" font-size="11.00"> &#160;</text>
</a>
</g>
</g>
<!-- public.projects -->
<g id="node2" class="node"><title>public.projects</title>
<g id="a_node2"><a xlink:href="../../../public/tables/projects.html" xlink:title="public.projects" target="_top">
<polygon fill="#ffffff" stroke="none" points="23,-333 23,-413 157,-413 157,-333 23,-333"/>
<polygon fill="#f5f5f5" stroke="none" points="23,-391 23,-413 157,-413 157,-391 23,-391"/>
<polygon fill="none" stroke="black" points="23,-391 23,-413 157,-413 157,-391 23,-391"/>
<text text-anchor="start" x="28" y="-400.2" font-family="Helvetica,sans-Serif" font-weight="bold" font-size="11.00">public.projects</text>
<text text-anchor="start" x="118" y="-399.2" font-family="Helvetica,sans-Serif" font-size="11.00">[table]</text>
<polygon fill="none" stroke="black" points="23,-369 23,-391 157,-391 157,-369 23,-369"/>
<image xlink:href="../../images/foreignKeys.png" width="11px" height="12px" preserveAspectRatio="xMinYMin meet" x="28" y="-386"/>
<text text-anchor="start" x="54" y="-377.2" font-family="Helvetica,sans-Serif" font-size="11.00">participant_id</text>
<polygon fill="none" stroke="black" points="23,-351 23,-369 157,-369 157,-351 23,-351"/>
<text text-anchor="start" x="26" y="-357.2" font-family="Helvetica,sans-Serif" font-size="11.00">...</text>
<polygon fill="#ffffff" stroke="none" points="23,-333 23,-351 69,-351 69,-333 23,-333"/>
<polygon fill="none" stroke="black" points="23,-333 23,-351 69,-351 69,-333 23,-333"/>
<text text-anchor="start" x="26" y="-339.2" font-family="Helvetica,sans-Serif" font-size="11.00">&lt; 1</text>
<polygon fill="#ffffff" stroke="none" points="69,-333 69,-351 122,-351 122,-333 69,-333"/>
<polygon fill="none" stroke="black" points="69,-333 69,-351 122,-351 122,-333 69,-333"/>
<text text-anchor="start" x="83" y="-339.2" font-family="Helvetica,sans-Serif" font-size="11.00">0 rows</text>
<polygon fill="#ffffff" stroke="none" points="122,-333 122,-351 157,-351 157,-333 122,-333"/>
<polygon fill="none" stroke="black" points="122,-333 122,-351 157,-351 157,-333 122,-333"/>
<text text-anchor="start" x="137" y="-339.2" font-family="Helvetica,sans-Serif" font-size="11.00">7 &gt;</text>
</a>
</g>
</g>
<!-- submission_documents&#45;&gt;public.projects -->
<g id="edge1" class="edge"><title>submission_documents:project_id:w&#45;&gt;public.projects:id:e</title>
<path fill="none" stroke="black" d="M508.635,-319.035C498.116,-329.672 501.854,-354.25 482,-364 381.133,-413.536 247.268,-402.785 165.228,-388.993"/>
<polygon fill="black" stroke="black" points="514.98,-316.731 523.729,-317.384 518.74,-315.365 522.5,-314 522.5,-314 522.5,-314 518.74,-315.365 521.271,-310.616 514.98,-316.731 514.98,-316.731"/>
<ellipse fill="none" stroke="black" cx="511.973" cy="-317.823" rx="3.20001" ry="3.20001"/>
</g>
<!-- submissions -->
<g id="node3" class="node"><title>submissions</title>
<g id="a_node3"><a xlink:href="../../tables/submissions.html" xlink:title="submissions" target="_top">
<polygon fill="#ffffff" stroke="none" points="221,-89 221,-353 474,-353 474,-89 221,-89"/>
<polygon fill="#f5f5f5" stroke="none" points="223.5,-329 223.5,-351 472.5,-351 472.5,-329 223.5,-329"/>
<polygon fill="none" stroke="black" points="223.5,-329 223.5,-351 472.5,-351 472.5,-329 223.5,-329"/>
<text text-anchor="start" x="228.5" y="-338.2" font-family="Helvetica,sans-Serif" font-weight="bold" font-size="11.00">submissions</text>
<text text-anchor="start" x="433.5" y="-337.2" font-family="Helvetica,sans-Serif" font-size="11.00">[table]</text>
<polygon fill="none" stroke="black" points="223.5,-307 223.5,-329 370.5,-329 370.5,-307 223.5,-307"/>
<image xlink:href="../../images/primaryKeys.png" width="11px" height="12px" preserveAspectRatio="xMinYMin meet" x="228.5" y="-324"/>
<text text-anchor="start" x="243.5" y="-315.2" font-family="Helvetica,sans-Serif" font-size="11.00">id</text>
<polygon fill="none" stroke="black" points="370.5,-307 370.5,-329 472.5,-329 472.5,-307 370.5,-307"/>
<text text-anchor="start" x="373.5" y="-315.2" font-family="Helvetica,sans-Serif" font-size="11.00">int8[19]</text>
<polygon fill="#ffffff" stroke="none" points="223.5,-285 223.5,-307 370.5,-307 370.5,-285 223.5,-285"/>
<polygon fill="none" stroke="black" points="223.5,-285 223.5,-307 370.5,-307 370.5,-285 223.5,-285"/>
<image xlink:href="../../images/foreignKeys.png" width="11px" height="12px" preserveAspectRatio="xMinYMin meet" x="228.5" y="-302"/>
<text text-anchor="start" x="243.5" y="-293.2" font-family="Helvetica,sans-Serif" font-size="11.00">project_id</text>
<polygon fill="none" stroke="black" points="370.5,-285 370.5,-307 472.5,-307 472.5,-285 370.5,-285"/>
<text text-anchor="start" x="373.5" y="-293.2" font-family="Helvetica,sans-Serif" font-size="11.00">int8[19]</text>
<polygon fill="#ffffff" stroke="none" points="223.5,-263 223.5,-285 370.5,-285 370.5,-263 223.5,-263"/>
<polygon fill="none" stroke="black" points="223.5,-263 223.5,-285 370.5,-285 370.5,-263 223.5,-263"/>
<image xlink:href="../../images/foreignKeys.png" width="11px" height="12px" preserveAspectRatio="xMinYMin meet" x="228.5" y="-280"/>
<text text-anchor="start" x="243.5" y="-271.2" font-family="Helvetica,sans-Serif" font-size="11.00">deliverable_id</text>
<polygon fill="none" stroke="black" points="370.5,-263 370.5,-285 472.5,-285 472.5,-263 370.5,-263"/>
<text text-anchor="start" x="373.5" y="-271.2" font-family="Helvetica,sans-Serif" font-size="11.00">int8[19]</text>
<polygon fill="none" stroke="black" points="223.5,-241 223.5,-263 370.5,-263 370.5,-241 223.5,-241"/>
<image xlink:href="../../images/foreignKeys.png" width="11px" height="12px" preserveAspectRatio="xMinYMin meet" x="228.5" y="-258"/>
<text text-anchor="start" x="243.5" y="-249.2" font-family="Helvetica,sans-Serif" font-size="11.00">submission_status_id</text>
<polygon fill="none" stroke="black" points="370.5,-241 370.5,-263 472.5,-263 472.5,-241 370.5,-241"/>
<text text-anchor="start" x="373.5" y="-249.2" font-family="Helvetica,sans-Serif" font-size="11.00">int4[10]</text>
<polygon fill="none" stroke="black" points="223.5,-219 223.5,-241 370.5,-241 370.5,-219 223.5,-219"/>
<text text-anchor="start" x="243.5" y="-227.2" font-family="Helvetica,sans-Serif" font-size="11.00">created_by</text>
<polygon fill="none" stroke="black" points="370.5,-219 370.5,-241 472.5,-241 472.5,-219 370.5,-219"/>
<text text-anchor="start" x="373.5" y="-227.2" font-family="Helvetica,sans-Serif" font-size="11.00">int8[19]</text>
<polygon fill="none" stroke="black" points="223.5,-197 223.5,-219 370.5,-219 370.5,-197 223.5,-197"/>
<text text-anchor="start" x="243.5" y="-205.2" font-family="Helvetica,sans-Serif" font-size="11.00">created_time</text>
<polygon fill="none" stroke="black" points="370.5,-197 370.5,-219 472.5,-219 472.5,-197 370.5,-197"/>
<text text-anchor="start" x="373.5" y="-205.2" font-family="Helvetica,sans-Serif" font-size="11.00">timestamptz[35,6]</text>
<polygon fill="none" stroke="black" points="223.5,-175 223.5,-197 370.5,-197 370.5,-175 223.5,-175"/>
<text text-anchor="start" x="243.5" y="-183.2" font-family="Helvetica,sans-Serif" font-size="11.00">modified_by</text>
<polygon fill="none" stroke="black" points="370.5,-175 370.5,-197 472.5,-197 472.5,-175 370.5,-175"/>
<text text-anchor="start" x="373.5" y="-183.2" font-family="Helvetica,sans-Serif" font-size="11.00">int8[19]</text>
<polygon fill="none" stroke="black" points="223.5,-153 223.5,-175 370.5,-175 370.5,-153 223.5,-153"/>
<text text-anchor="start" x="243.5" y="-161.2" font-family="Helvetica,sans-Serif" font-size="11.00">modified_time</text>
<polygon fill="none" stroke="black" points="370.5,-153 370.5,-175 472.5,-175 472.5,-153 370.5,-153"/>
<text text-anchor="start" x="373.5" y="-161.2" font-family="Helvetica,sans-Serif" font-size="11.00">timestamptz[35,6]</text>
<polygon fill="none" stroke="black" points="223.5,-131 223.5,-153 370.5,-153 370.5,-131 223.5,-131"/>
<text text-anchor="start" x="243.5" y="-139.2" font-family="Helvetica,sans-Serif" font-size="11.00">internal_comment</text>
<polygon fill="none" stroke="black" points="370.5,-131 370.5,-153 472.5,-153 472.5,-131 370.5,-131"/>
<text text-anchor="start" x="373.5" y="-139.2" font-family="Helvetica,sans-Serif" font-size="11.00">text[2147483647]</text>
<polygon fill="none" stroke="black" points="223.5,-109 223.5,-131 370.5,-131 370.5,-109 223.5,-109"/>
<text text-anchor="start" x="243.5" y="-117.2" font-family="Helvetica,sans-Serif" font-size="11.00">feedback</text>
<polygon fill="none" stroke="black" points="370.5,-109 370.5,-131 472.5,-131 472.5,-109 370.5,-109"/>
<text text-anchor="start" x="373.5" y="-117.2" font-family="Helvetica,sans-Serif" font-size="11.00">text[2147483647]</text>
<polygon fill="#ffffff" stroke="none" points="223.5,-91 223.5,-109 287.5,-109 287.5,-91 223.5,-91"/>
<polygon fill="none" stroke="black" points="223.5,-91 223.5,-109 287.5,-109 287.5,-91 223.5,-91"/>
<text text-anchor="start" x="226.5" y="-97.2" font-family="Helvetica,sans-Serif" font-size="11.00">&lt; 3</text>
<polygon fill="#ffffff" stroke="none" points="287.5,-91 287.5,-109 370.5,-109 370.5,-91 287.5,-91"/>
<polygon fill="none" stroke="black" points="287.5,-91 287.5,-109 370.5,-109 370.5,-91 287.5,-91"/>
<text text-anchor="start" x="331.5" y="-97.2" font-family="Helvetica,sans-Serif" font-size="11.00">0 rows</text>
<polygon fill="#ffffff" stroke="none" points="370.5,-91 370.5,-109 472.5,-109 472.5,-91 370.5,-91"/>
<polygon fill="none" stroke="black" points="370.5,-91 370.5,-109 472.5,-109 472.5,-91 370.5,-91"/>
<text text-anchor="start" x="452.5" y="-97.2" font-family="Helvetica,sans-Serif" font-size="11.00">1 &gt;</text>
<polygon fill="none" stroke="black" stroke-width="2" points="222,-90 222,-352 473,-352 473,-90 222,-90"/>
</a>
</g>
</g>
<!-- submission_documents&#45;&gt;submissions -->
<g id="edge2" class="edge"><title>submission_documents:submission_id:w&#45;&gt;submissions:id.type:e</title>
<path fill="none" stroke="black" d="M508.813,-375.135C493.015,-360.519 502.586,-318 473.5,-318"/>
<polygon fill="black" stroke="black" points="514.962,-377.321 521.294,-383.392 518.731,-378.66 522.5,-380 522.5,-380 522.5,-380 518.731,-378.66 523.706,-376.608 514.962,-377.321 514.962,-377.321"/>
<ellipse fill="none" stroke="black" cx="511.947" cy="-376.249" rx="3.20001" ry="3.20001"/>
</g>
<!-- submissions&#45;&gt;public.projects -->
<g id="edge4" class="edge"><title>submissions:project_id:w&#45;&gt;public.projects:id:e</title>
<path fill="none" stroke="black" d="M208.296,-298.779C198.379,-303.399 193.736,-312.947 180,-321 175.214,-323.806 170.282,-326.694 165.31,-329.605"/>
<polygon fill="black" stroke="black" points="214.649,-297.536 223.191,-299.533 218.574,-296.768 222.5,-296 222.5,-296 222.5,-296 218.574,-296.768 221.809,-292.467 214.649,-297.536 214.649,-297.536"/>
<ellipse fill="none" stroke="black" cx="211.508" cy="-298.151" rx="3.2" ry="3.2"/>
</g>
<!-- deliverables -->
<g id="node4" class="node"><title>deliverables</title>
<g id="a_node4"><a xlink:href="../../tables/deliverables.html" xlink:title="deliverables" target="_top">
<polygon fill="#ffffff" stroke="none" points="9.5,-142 9.5,-310 170.5,-310 170.5,-142 9.5,-142"/>
<polygon fill="#f5f5f5" stroke="none" points="10,-288 10,-310 171,-310 171,-288 10,-288"/>
<polygon fill="none" stroke="black" points="10,-288 10,-310 171,-310 171,-288 10,-288"/>
<text text-anchor="start" x="15" y="-297.2" font-family="Helvetica,sans-Serif" font-weight="bold" font-size="11.00">deliverables</text>
<text text-anchor="start" x="132" y="-296.2" font-family="Helvetica,sans-Serif" font-size="11.00">[table]</text>
<polygon fill="none" stroke="black" points="10,-266 10,-288 171,-288 171,-266 10,-266"/>
<image xlink:href="../../images/primaryKeys.png" width="11px" height="12px" preserveAspectRatio="xMinYMin meet" x="15" y="-283"/>
<text text-anchor="start" x="30" y="-274.2" font-family="Helvetica,sans-Serif" font-size="11.00">id</text>
<polygon fill="none" stroke="black" points="10,-244 10,-266 171,-266 171,-244 10,-244"/>
<image xlink:href="../../images/foreignKeys.png" width="11px" height="12px" preserveAspectRatio="xMinYMin meet" x="15" y="-261"/>
<text text-anchor="start" x="30" y="-252.2" font-family="Helvetica,sans-Serif" font-size="11.00">deliverable_category_id</text>
<polygon fill="#ffffff" stroke="none" points="10,-222 10,-244 171,-244 171,-222 10,-222"/>
<polygon fill="none" stroke="black" points="10,-222 10,-244 171,-244 171,-222 10,-222"/>
<image xlink:href="../../images/foreignKeys.png" width="11px" height="12px" preserveAspectRatio="xMinYMin meet" x="15" y="-239"/>
<text text-anchor="start" x="30" y="-230.2" font-family="Helvetica,sans-Serif" font-size="11.00">deliverable_type_id</text>
<polygon fill="#ffffff" stroke="none" points="10,-200 10,-222 171,-222 171,-200 10,-200"/>
<polygon fill="none" stroke="black" points="10,-200 10,-222 171,-222 171,-200 10,-200"/>
<image xlink:href="../../images/foreignKeys.png" width="11px" height="12px" preserveAspectRatio="xMinYMin meet" x="15" y="-217"/>
<text text-anchor="start" x="30" y="-208.2" font-family="Helvetica,sans-Serif" font-size="11.00">module_id</text>
<polygon fill="#ffffff" stroke="none" points="10,-178 10,-200 171,-200 171,-178 10,-178"/>
<polygon fill="none" stroke="black" points="10,-178 10,-200 171,-200 171,-178 10,-178"/>
<text text-anchor="start" x="30" y="-186.2" font-family="Helvetica,sans-Serif" font-size="11.00">position</text>
<polygon fill="none" stroke="black" points="10,-160 10,-178 171,-178 171,-160 10,-160"/>
<text text-anchor="start" x="13" y="-166.2" font-family="Helvetica,sans-Serif" font-size="11.00">...</text>
<polygon fill="#ffffff" stroke="none" points="10,-142 10,-160 69,-160 69,-142 10,-142"/>
<polygon fill="none" stroke="black" points="10,-142 10,-160 69,-160 69,-142 10,-142"/>
<text text-anchor="start" x="13" y="-148.2" font-family="Helvetica,sans-Serif" font-size="11.00">&lt; 3</text>
<polygon fill="#ffffff" stroke="none" points="69,-142 69,-160 129,-160 129,-142 69,-142"/>
<polygon fill="none" stroke="black" points="69,-142 69,-160 129,-160 129,-142 69,-142"/>
<text text-anchor="start" x="90" y="-148.2" font-family="Helvetica,sans-Serif" font-size="11.00">0 rows</text>
<polygon fill="#ffffff" stroke="none" points="129,-142 129,-160 171,-160 171,-142 129,-142"/>
<polygon fill="none" stroke="black" points="129,-142 129,-160 171,-160 171,-142 129,-142"/>
<text text-anchor="start" x="151" y="-148.2" font-family="Helvetica,sans-Serif" font-size="11.00">3 &gt;</text>
</a>
</g>
</g>
<!-- submissions&#45;&gt;deliverables -->
<g id="edge3" class="edge"><title>submissions:deliverable_id:w&#45;&gt;deliverables:id:e</title>
<path fill="none" stroke="black" d="M207.909,-274.495C196.037,-275.347 188.687,-277 172,-277"/>
<polygon fill="black" stroke="black" points="214.505,-274.272 222.622,-277.598 218.502,-274.136 222.5,-274 222.5,-274 222.5,-274 218.502,-274.136 222.378,-270.402 214.505,-274.272 214.505,-274.272"/>
<ellipse fill="none" stroke="black" cx="211.306" cy="-274.38" rx="3.2" ry="3.2"/>
</g>
<!-- submission_statuses -->
<g id="node5" class="node"><title>submission_statuses</title>
<g id="a_node5"><a xlink:href="../../tables/submission_statuses.html" xlink:title="submission_statuses" target="_top">
<polygon fill="#ffffff" stroke="none" points="8,-37 8,-121 172,-121 172,-37 8,-37"/>
<polygon fill="#f5f5f5" stroke="none" points="8,-99 8,-121 172,-121 172,-99 8,-99"/>
<polygon fill="none" stroke="black" points="8,-99 8,-121 172,-121 172,-99 8,-99"/>
<text text-anchor="start" x="13" y="-108.2" font-family="Helvetica,sans-Serif" font-weight="bold" font-size="11.00">submission_statuses</text>
<text text-anchor="start" x="133" y="-107.2" font-family="Helvetica,sans-Serif" font-size="11.00">[table]</text>
<polygon fill="none" stroke="black" points="8,-77 8,-99 172,-99 172,-77 8,-77"/>
<image xlink:href="../../images/primaryKeys.png" width="11px" height="12px" preserveAspectRatio="xMinYMin meet" x="13" y="-94"/>
<text text-anchor="start" x="38" y="-85.2" font-family="Helvetica,sans-Serif" font-size="11.00">id</text>
<polygon fill="#ffffff" stroke="none" points="8,-55 8,-77 172,-77 172,-55 8,-55"/>
<polygon fill="none" stroke="black" points="8,-55 8,-77 172,-77 172,-55 8,-55"/>
<text text-anchor="start" x="38" y="-63.2" font-family="Helvetica,sans-Serif" font-size="11.00">name</text>
<polygon fill="#ffffff" stroke="none" points="8,-37 8,-55 64,-55 64,-37 8,-37"/>
<polygon fill="none" stroke="black" points="8,-37 8,-55 64,-55 64,-37 8,-37"/>
<text text-anchor="start" x="11" y="-43.2" font-family="Helvetica,sans-Serif" font-size="11.00"> &#160;</text>
<polygon fill="#ffffff" stroke="none" points="64,-37 64,-55 127,-55 127,-37 64,-37"/>
<polygon fill="none" stroke="black" points="64,-37 64,-55 127,-55 127,-37 64,-37"/>
<text text-anchor="start" x="88" y="-43.2" font-family="Helvetica,sans-Serif" font-size="11.00">6 rows</text>
<polygon fill="#ffffff" stroke="none" points="127,-37 127,-55 172,-55 172,-37 127,-37"/>
<polygon fill="none" stroke="black" points="127,-37 127,-55 172,-55 172,-37 127,-37"/>
<text text-anchor="start" x="152" y="-43.2" font-family="Helvetica,sans-Serif" font-size="11.00">1 &gt;</text>
</a>
</g>
</g>
<!-- submissions&#45;&gt;submission_statuses -->
<g id="edge5" class="edge"><title>submissions:submission_status_id:w&#45;&gt;submission_statuses:id:e</title>
<path fill="none" stroke="black" d="M208.058,-249.29C160.982,-227.967 243.337,-88 173,-88"/>
<polygon fill="black" stroke="black" points="214.637,-250.525 221.836,-255.538 218.569,-251.262 222.5,-252 222.5,-252 222.5,-252 218.569,-251.262 223.164,-248.462 214.637,-250.525 214.637,-250.525"/>
<ellipse fill="none" stroke="black" cx="211.492" cy="-249.935" rx="3.2" ry="3.2"/>
</g>
</g>
</svg>
