<?xml version="1.0" encoding="UTF-8" standalone="no"?>
<!DOCTYPE svg PUBLIC "-//W3C//DTD SVG 1.1//EN"
 "http://www.w3.org/Graphics/SVG/1.1/DTD/svg11.dtd">
<!-- Generated by graphviz version 2.38.0 (20140413.2041)
 -->
<!-- Title: oneDegreeRelationshipsDiagram Pages: 1 -->
<svg width="469pt" height="201pt"
 viewBox="0.00 0.00 469.00 201.00" xmlns="http://www.w3.org/2000/svg" xmlns:xlink="http://www.w3.org/1999/xlink">
<g id="graph0" class="graph" transform="scale(1 1) rotate(0) translate(4 197)">
<title>oneDegreeRelationshipsDiagram</title>
<polygon fill="#ffffff" stroke="none" points="-4,4 -4,-197 465,-197 465,4 -4,4"/>
<text text-anchor="middle" x="74.5" y="-7.2" font-family="Helvetica,sans-Serif" font-size="11.00">Generated by SchemaSpy</text>
<!-- submissions -->
<g id="node1" class="node"><title>submissions</title>
<g id="a_node1"><a xlink:href="../../tables/submissions.html" xlink:title="submissions" target="_top">
<polygon fill="#ffffff" stroke="none" points="306,-43 306,-189 453,-189 453,-43 306,-43"/>
<polygon fill="#f5f5f5" stroke="none" points="306.5,-167 306.5,-189 453.5,-189 453.5,-167 306.5,-167"/>
<polygon fill="none" stroke="black" points="306.5,-167 306.5,-189 453.5,-189 453.5,-167 306.5,-167"/>
<text text-anchor="start" x="311.5" y="-176.2" font-family="Helvetica,sans-Serif" font-weight="bold" font-size="11.00">submissions</text>
<text text-anchor="start" x="414.5" y="-175.2" font-family="Helvetica,sans-Serif" font-size="11.00">[table]</text>
<polygon fill="none" stroke="black" points="306.5,-145 306.5,-167 453.5,-167 453.5,-145 306.5,-145"/>
<image xlink:href="../../images/primaryKeys.png" width="11px" height="12px" preserveAspectRatio="xMinYMin meet" x="311.5" y="-162"/>
<text text-anchor="start" x="326.5" y="-153.2" font-family="Helvetica,sans-Serif" font-size="11.00">id</text>
<polygon fill="#ffffff" stroke="none" points="306.5,-123 306.5,-145 453.5,-145 453.5,-123 306.5,-123"/>
<polygon fill="none" stroke="black" points="306.5,-123 306.5,-145 453.5,-145 453.5,-123 306.5,-123"/>
<image xlink:href="../../images/foreignKeys.png" width="11px" height="12px" preserveAspectRatio="xMinYMin meet" x="311.5" y="-140"/>
<text text-anchor="start" x="326.5" y="-131.2" font-family="Helvetica,sans-Serif" font-size="11.00">project_id</text>
<polygon fill="#ffffff" stroke="none" points="306.5,-101 306.5,-123 453.5,-123 453.5,-101 306.5,-101"/>
<polygon fill="none" stroke="black" points="306.5,-101 306.5,-123 453.5,-123 453.5,-101 306.5,-101"/>
<image xlink:href="../../images/foreignKeys.png" width="11px" height="12px" preserveAspectRatio="xMinYMin meet" x="311.5" y="-118"/>
<text text-anchor="start" x="326.5" y="-109.2" font-family="Helvetica,sans-Serif" font-size="11.00">deliverable_id</text>
<polygon fill="none" stroke="black" points="306.5,-79 306.5,-101 453.5,-101 453.5,-79 306.5,-79"/>
<image xlink:href="../../images/foreignKeys.png" width="11px" height="12px" preserveAspectRatio="xMinYMin meet" x="311.5" y="-96"/>
<text text-anchor="start" x="326.5" y="-87.2" font-family="Helvetica,sans-Serif" font-size="11.00">submission_status_id</text>
<polygon fill="none" stroke="black" points="306.5,-61 306.5,-79 453.5,-79 453.5,-61 306.5,-61"/>
<text text-anchor="start" x="309.5" y="-67.2" font-family="Helvetica,sans-Serif" font-size="11.00">...</text>
<polygon fill="#ffffff" stroke="none" points="306.5,-43 306.5,-61 358.5,-61 358.5,-43 306.5,-43"/>
<polygon fill="none" stroke="black" points="306.5,-43 306.5,-61 358.5,-61 358.5,-43 306.5,-43"/>
<text text-anchor="start" x="309.5" y="-49.2" font-family="Helvetica,sans-Serif" font-size="11.00">&lt; 3</text>
<polygon fill="#ffffff" stroke="none" points="358.5,-43 358.5,-61 415.5,-61 415.5,-43 358.5,-43"/>
<polygon fill="none" stroke="black" points="358.5,-43 358.5,-61 415.5,-61 415.5,-43 358.5,-43"/>
<text text-anchor="start" x="376.5" y="-49.2" font-family="Helvetica,sans-Serif" font-size="11.00">0 rows</text>
<polygon fill="#ffffff" stroke="none" points="415.5,-43 415.5,-61 453.5,-61 453.5,-43 415.5,-43"/>
<polygon fill="none" stroke="black" points="415.5,-43 415.5,-61 453.5,-61 453.5,-43 415.5,-43"/>
<text text-anchor="start" x="433.5" y="-49.2" font-family="Helvetica,sans-Serif" font-size="11.00">1 &gt;</text>
</a>
</g>
</g>
<!-- submission_statuses -->
<g id="node2" class="node"><title>submission_statuses</title>
<g id="a_node2"><a xlink:href="../../tables/submission_statuses.html" xlink:title="submission_statuses" target="_top">
<polygon fill="#ffffff" stroke="none" points="8,-37 8,-125 257,-125 257,-37 8,-37"/>
<polygon fill="#f5f5f5" stroke="none" points="10.5,-101 10.5,-123 255.5,-123 255.5,-101 10.5,-101"/>
<polygon fill="none" stroke="black" points="10.5,-101 10.5,-123 255.5,-123 255.5,-101 10.5,-101"/>
<text text-anchor="start" x="15.5" y="-110.2" font-family="Helvetica,sans-Serif" font-weight="bold" font-size="11.00">submission_statuses</text>
<text text-anchor="start" x="216.5" y="-109.2" font-family="Helvetica,sans-Serif" font-size="11.00">[table]</text>
<polygon fill="none" stroke="black" points="10.5,-79 10.5,-101 154.5,-101 154.5,-79 10.5,-79"/>
<image xlink:href="../../images/primaryKeys.png" width="11px" height="12px" preserveAspectRatio="xMinYMin meet" x="15.5" y="-96"/>
<text text-anchor="start" x="30.5" y="-87.2" font-family="Helvetica,sans-Serif" font-size="11.00">id</text>
<polygon fill="none" stroke="black" points="154.5,-79 154.5,-101 255.5,-101 255.5,-79 154.5,-79"/>
<text text-anchor="start" x="157.5" y="-87.2" font-family="Helvetica,sans-Serif" font-size="11.00">int4[10]</text>
<polygon fill="#ffffff" stroke="none" points="10.5,-57 10.5,-79 154.5,-79 154.5,-57 10.5,-57"/>
<polygon fill="none" stroke="black" points="10.5,-57 10.5,-79 154.5,-79 154.5,-57 10.5,-57"/>
<text text-anchor="start" x="30.5" y="-65.2" font-family="Helvetica,sans-Serif" font-size="11.00">name</text>
<polygon fill="none" stroke="black" points="154.5,-57 154.5,-79 255.5,-79 255.5,-57 154.5,-57"/>
<text text-anchor="start" x="157.5" y="-65.2" font-family="Helvetica,sans-Serif" font-size="11.00">text[2147483647]</text>
<polygon fill="#ffffff" stroke="none" points="10.5,-39 10.5,-57 72.5,-57 72.5,-39 10.5,-39"/>
<polygon fill="none" stroke="black" points="10.5,-39 10.5,-57 72.5,-57 72.5,-39 10.5,-39"/>
<text text-anchor="start" x="13.5" y="-45.2" font-family="Helvetica,sans-Serif" font-size="11.00">&lt; 0</text>
<polygon fill="#ffffff" stroke="none" points="72.5,-39 72.5,-57 154.5,-57 154.5,-39 72.5,-39"/>
<polygon fill="none" stroke="black" points="72.5,-39 72.5,-57 154.5,-57 154.5,-39 72.5,-39"/>
<text text-anchor="start" x="115.5" y="-45.2" font-family="Helvetica,sans-Serif" font-size="11.00">6 rows</text>
<polygon fill="#ffffff" stroke="none" points="154.5,-39 154.5,-57 255.5,-57 255.5,-39 154.5,-39"/>
<polygon fill="none" stroke="black" points="154.5,-39 154.5,-57 255.5,-57 255.5,-39 154.5,-39"/>
<text text-anchor="start" x="235.5" y="-45.2" font-family="Helvetica,sans-Serif" font-size="11.00">1 &gt;</text>
<polygon fill="none" stroke="black" stroke-width="2" points="9,-38 9,-124 256,-124 256,-38 9,-38"/>
</a>
</g>
</g>
<!-- submissions&#45;&gt;submission_statuses -->
<g id="edge1" class="edge"><title>submissions:submission_status_id:w&#45;&gt;submission_statuses:id.type:e</title>
<path fill="none" stroke="black" d="M290.991,-90C279.677,-90 272.493,-90 256.5,-90"/>
<polygon fill="black" stroke="black" points="297.5,-90.0001 305.5,-93.6 301.5,-90 305.5,-90 305.5,-90 305.5,-90 301.5,-90 305.5,-86.4 297.5,-90.0001 297.5,-90.0001"/>
<ellipse fill="none" stroke="black" cx="294.3" cy="-90.0001" rx="3.2" ry="3.2"/>
</g>
</g>
</svg>
