<?xml version="1.0" encoding="UTF-8" standalone="no"?>
<!DOCTYPE svg PUBLIC "-//W3C//DTD SVG 1.1//EN"
 "http://www.w3.org/Graphics/SVG/1.1/DTD/svg11.dtd">
<!-- Generated by graphviz version 2.38.0 (20140413.2041)
 -->
<!-- Title: twoDegreesRelationshipsDiagram Pages: 1 -->
<svg width="400pt" height="295pt"
 viewBox="0.00 0.00 400.00 295.00" xmlns="http://www.w3.org/2000/svg" xmlns:xlink="http://www.w3.org/1999/xlink">
<g id="graph0" class="graph" transform="scale(1 1) rotate(0) translate(4 291)">
<title>twoDegreesRelationshipsDiagram</title>
<polygon fill="#ffffff" stroke="none" points="-4,4 -4,-291 396,-291 396,4 -4,4"/>
<text text-anchor="middle" x="74.5" y="-7.2" font-family="Helvetica,sans-Serif" font-size="11.00">Generated by SchemaSpy</text>
<!-- project_votes -->
<g id="node1" class="node"><title>project_votes</title>
<g id="a_node1"><a xlink:href="../../tables/project_votes.html" xlink:title="project_votes" target="_top">
<polygon fill="#ffffff" stroke="none" points="259,-104 259,-250 384,-250 384,-104 259,-104"/>
<polygon fill="#f5f5f5" stroke="none" points="259.5,-228 259.5,-250 384.5,-250 384.5,-228 259.5,-228"/>
<polygon fill="none" stroke="black" points="259.5,-228 259.5,-250 384.5,-250 384.5,-228 259.5,-228"/>
<text text-anchor="start" x="264.5" y="-237.2" font-family="Helvetica,sans-Serif" font-weight="bold" font-size="11.00">project_votes</text>
<text text-anchor="start" x="345.5" y="-236.2" font-family="Helvetica,sans-Serif" font-size="11.00">[table]</text>
<polygon fill="none" stroke="black" points="259.5,-206 259.5,-228 384.5,-228 384.5,-206 259.5,-206"/>
<image xlink:href="../../images/primaryKeys.png" width="11px" height="12px" preserveAspectRatio="xMinYMin meet" x="264.5" y="-223"/>
<text text-anchor="start" x="283.5" y="-214.2" font-family="Helvetica,sans-Serif" font-size="11.00">user_id</text>
<polygon fill="none" stroke="black" points="259.5,-184 259.5,-206 384.5,-206 384.5,-184 259.5,-184"/>
<image xlink:href="../../images/primaryKeys.png" width="11px" height="12px" preserveAspectRatio="xMinYMin meet" x="264.5" y="-201"/>
<text text-anchor="start" x="283.5" y="-192.2" font-family="Helvetica,sans-Serif" font-size="11.00">project_id</text>
<polygon fill="none" stroke="black" points="259.5,-162 259.5,-184 384.5,-184 384.5,-162 259.5,-162"/>
<image xlink:href="../../images/primaryKeys.png" width="11px" height="12px" preserveAspectRatio="xMinYMin meet" x="264.5" y="-179"/>
<text text-anchor="start" x="283.5" y="-170.2" font-family="Helvetica,sans-Serif" font-size="11.00">phase_id</text>
<polygon fill="none" stroke="black" points="259.5,-140 259.5,-162 384.5,-162 384.5,-140 259.5,-140"/>
<image xlink:href="../../images/foreignKeys.png" width="11px" height="12px" preserveAspectRatio="xMinYMin meet" x="264.5" y="-157"/>
<text text-anchor="start" x="283.5" y="-148.2" font-family="Helvetica,sans-Serif" font-size="11.00">vote_option_id</text>
<polygon fill="none" stroke="black" points="259.5,-122 259.5,-140 384.5,-140 384.5,-122 259.5,-122"/>
<text text-anchor="start" x="262.5" y="-128.2" font-family="Helvetica,sans-Serif" font-size="11.00">...</text>
<polygon fill="#ffffff" stroke="none" points="259.5,-104 259.5,-122 305.5,-122 305.5,-104 259.5,-104"/>
<polygon fill="none" stroke="black" points="259.5,-104 259.5,-122 305.5,-122 305.5,-104 259.5,-104"/>
<text text-anchor="start" x="262.5" y="-110.2" font-family="Helvetica,sans-Serif" font-size="11.00">&lt; 3</text>
<polygon fill="#ffffff" stroke="none" points="305.5,-104 305.5,-122 359.5,-122 359.5,-104 305.5,-104"/>
<polygon fill="none" stroke="black" points="305.5,-104 305.5,-122 359.5,-122 359.5,-104 305.5,-104"/>
<text text-anchor="start" x="320.5" y="-110.2" font-family="Helvetica,sans-Serif" font-size="11.00">0 rows</text>
<polygon fill="#ffffff" stroke="none" points="359.5,-104 359.5,-122 384.5,-122 384.5,-104 359.5,-104"/>
<polygon fill="none" stroke="black" points="359.5,-104 359.5,-122 384.5,-122 384.5,-104 359.5,-104"/>
<text text-anchor="start" x="374.5" y="-110.2" font-family="Helvetica,sans-Serif" font-size="11.00"> &#160;</text>
</a>
</g>
</g>
<!-- cohort_phases -->
<g id="node2" class="node"><title>cohort_phases</title>
<g id="a_node2"><a xlink:href="../../tables/cohort_phases.html" xlink:title="cohort_phases" target="_top">
<polygon fill="#ffffff" stroke="none" points="44,-146 44,-204 174,-204 174,-146 44,-146"/>
<polygon fill="#f5f5f5" stroke="none" points="44,-182 44,-204 174,-204 174,-182 44,-182"/>
<polygon fill="none" stroke="black" points="44,-182 44,-204 174,-204 174,-182 44,-182"/>
<text text-anchor="start" x="49" y="-191.2" font-family="Helvetica,sans-Serif" font-weight="bold" font-size="11.00">cohort_phases</text>
<text text-anchor="start" x="135" y="-190.2" font-family="Helvetica,sans-Serif" font-size="11.00">[table]</text>
<polygon fill="none" stroke="black" points="44,-164 44,-182 174,-182 174,-164 44,-164"/>
<text text-anchor="start" x="47" y="-170.2" font-family="Helvetica,sans-Serif" font-size="11.00">...</text>
<polygon fill="#ffffff" stroke="none" points="44,-146 44,-164 83,-164 83,-146 44,-146"/>
<polygon fill="none" stroke="black" points="44,-146 44,-164 83,-164 83,-146 44,-146"/>
<text text-anchor="start" x="47" y="-152.2" font-family="Helvetica,sans-Serif" font-size="11.00"> &#160;</text>
<polygon fill="#ffffff" stroke="none" points="83,-146 83,-164 138,-164 138,-146 83,-146"/>
<polygon fill="none" stroke="black" points="83,-146 83,-164 138,-164 138,-146 83,-146"/>
<text text-anchor="start" x="99" y="-152.2" font-family="Helvetica,sans-Serif" font-size="11.00">4 rows</text>
<polygon fill="#ffffff" stroke="none" points="138,-146 138,-164 174,-164 174,-146 138,-146"/>
<polygon fill="none" stroke="black" points="138,-146 138,-164 174,-164 174,-146 138,-146"/>
<text text-anchor="start" x="154" y="-152.2" font-family="Helvetica,sans-Serif" font-size="11.00">3 &gt;</text>
</a>
</g>
</g>
<!-- project_votes&#45;&gt;cohort_phases -->
<g id="edge1" class="edge"><title>project_votes:phase_id:w&#45;&gt;cohort_phases:elipses:e</title>
<path fill="none" stroke="black" d="M243.985,-173C218.126,-173 206.747,-173 175,-173"/>
<polygon fill="black" stroke="black" points="250.5,-173 258.5,-176.6 254.5,-173 258.5,-173 258.5,-173 258.5,-173 254.5,-173 258.5,-169.4 250.5,-173 250.5,-173"/>
<ellipse fill="none" stroke="black" cx="247.3" cy="-173" rx="3.2" ry="3.2"/>
</g>
<!-- public.projects -->
<g id="node3" class="node"><title>public.projects</title>
<g id="a_node3"><a xlink:href="../../../public/tables/projects.html" xlink:title="public.projects" target="_top">
<polygon fill="#ffffff" stroke="none" points="42,-225 42,-283 176,-283 176,-225 42,-225"/>
<polygon fill="#f5f5f5" stroke="none" points="42,-261 42,-283 176,-283 176,-261 42,-261"/>
<polygon fill="none" stroke="black" points="42,-261 42,-283 176,-283 176,-261 42,-261"/>
<text text-anchor="start" x="47" y="-270.2" font-family="Helvetica,sans-Serif" font-weight="bold" font-size="11.00">public.projects</text>
<text text-anchor="start" x="137" y="-269.2" font-family="Helvetica,sans-Serif" font-size="11.00">[table]</text>
<polygon fill="none" stroke="black" points="42,-243 42,-261 176,-261 176,-243 42,-243"/>
<text text-anchor="start" x="45" y="-249.2" font-family="Helvetica,sans-Serif" font-size="11.00">...</text>
<polygon fill="#ffffff" stroke="none" points="42,-225 42,-243 88,-243 88,-225 42,-225"/>
<polygon fill="none" stroke="black" points="42,-225 42,-243 88,-243 88,-225 42,-225"/>
<text text-anchor="start" x="45" y="-231.2" font-family="Helvetica,sans-Serif" font-size="11.00">&lt; 1</text>
<polygon fill="#ffffff" stroke="none" points="88,-225 88,-243 141,-243 141,-225 88,-225"/>
<polygon fill="none" stroke="black" points="88,-225 88,-243 141,-243 141,-225 88,-225"/>
<text text-anchor="start" x="102" y="-231.2" font-family="Helvetica,sans-Serif" font-size="11.00">0 rows</text>
<polygon fill="#ffffff" stroke="none" points="141,-225 141,-243 176,-243 176,-225 141,-225"/>
<polygon fill="none" stroke="black" points="141,-225 141,-243 176,-243 176,-225 141,-225"/>
<text text-anchor="start" x="156" y="-231.2" font-family="Helvetica,sans-Serif" font-size="11.00">5 &gt;</text>
</a>
</g>
</g>
<!-- project_votes&#45;&gt;public.projects -->
<g id="edge2" class="edge"><title>project_votes:project_id:w&#45;&gt;public.projects:elipses:e</title>
<path fill="none" stroke="black" d="M244.12,-197.449C215.225,-208.359 215.677,-252 177,-252"/>
<polygon fill="black" stroke="black" points="250.614,-196.343 259.104,-198.549 254.557,-195.672 258.5,-195 258.5,-195 258.5,-195 254.557,-195.672 257.896,-191.451 250.614,-196.343 250.614,-196.343"/>
<ellipse fill="none" stroke="black" cx="247.459" cy="-196.881" rx="3.2" ry="3.2"/>
</g>
<!-- vote_options -->
<g id="node4" class="node"><title>vote_options</title>
<g id="a_node4"><a xlink:href="../../tables/vote_options.html" xlink:title="vote_options" target="_top">
<polygon fill="#ffffff" stroke="none" points="8,-37 8,-125 210,-125 210,-37 8,-37"/>
<polygon fill="#f5f5f5" stroke="none" points="10,-101 10,-123 208,-123 208,-101 10,-101"/>
<polygon fill="none" stroke="black" points="10,-101 10,-123 208,-123 208,-101 10,-101"/>
<text text-anchor="start" x="15" y="-110.2" font-family="Helvetica,sans-Serif" font-weight="bold" font-size="11.00">vote_options</text>
<text text-anchor="start" x="169" y="-109.2" font-family="Helvetica,sans-Serif" font-size="11.00">[table]</text>
<polygon fill="none" stroke="black" points="10,-79 10,-101 107,-101 107,-79 10,-79"/>
<image xlink:href="../../images/primaryKeys.png" width="11px" height="12px" preserveAspectRatio="xMinYMin meet" x="15" y="-96"/>
<text text-anchor="start" x="30" y="-87.2" font-family="Helvetica,sans-Serif" font-size="11.00">id</text>
<polygon fill="none" stroke="black" points="107,-79 107,-101 208,-101 208,-79 107,-79"/>
<text text-anchor="start" x="110" y="-87.2" font-family="Helvetica,sans-Serif" font-size="11.00">int4[10]</text>
<polygon fill="#ffffff" stroke="none" points="10,-57 10,-79 107,-79 107,-57 10,-57"/>
<polygon fill="none" stroke="black" points="10,-57 10,-79 107,-79 107,-57 10,-57"/>
<text text-anchor="start" x="30" y="-65.2" font-family="Helvetica,sans-Serif" font-size="11.00">name</text>
<polygon fill="none" stroke="black" points="107,-57 107,-79 208,-79 208,-57 107,-57"/>
<text text-anchor="start" x="110" y="-65.2" font-family="Helvetica,sans-Serif" font-size="11.00">text[2147483647]</text>
<polygon fill="#ffffff" stroke="none" points="10,-39 10,-57 49,-57 49,-39 10,-39"/>
<polygon fill="none" stroke="black" points="10,-39 10,-57 49,-57 49,-39 10,-39"/>
<text text-anchor="start" x="13" y="-45.2" font-family="Helvetica,sans-Serif" font-size="11.00">&lt; 0</text>
<polygon fill="#ffffff" stroke="none" points="49,-39 49,-57 107,-57 107,-39 49,-39"/>
<polygon fill="none" stroke="black" points="49,-39 49,-57 107,-57 107,-39 49,-39"/>
<text text-anchor="start" x="68" y="-45.2" font-family="Helvetica,sans-Serif" font-size="11.00">3 rows</text>
<polygon fill="#ffffff" stroke="none" points="107,-39 107,-57 208,-57 208,-39 107,-39"/>
<polygon fill="none" stroke="black" points="107,-39 107,-57 208,-57 208,-39 107,-39"/>
<text text-anchor="start" x="188" y="-45.2" font-family="Helvetica,sans-Serif" font-size="11.00">1 &gt;</text>
<polygon fill="none" stroke="black" stroke-width="2" points="9,-38 9,-124 209,-124 209,-38 9,-38"/>
</a>
</g>
</g>
<!-- project_votes&#45;&gt;vote_options -->
<g id="edge3" class="edge"><title>project_votes:vote_option_id:w&#45;&gt;vote_options:id.type:e</title>
<path fill="none" stroke="black" d="M244.832,-146.213C228.942,-131.833 237.913,-90 209,-90"/>
<polygon fill="black" stroke="black" points="250.95,-148.356 257.31,-154.398 254.725,-149.678 258.5,-151 258.5,-151 258.5,-151 254.725,-149.678 259.69,-147.602 250.95,-148.356 250.95,-148.356"/>
<ellipse fill="none" stroke="black" cx="247.929" cy="-147.298" rx="3.20001" ry="3.20001"/>
</g>
</g>
</svg>
