<?xml version="1.0" encoding="UTF-8" standalone="no"?>
<!DOCTYPE svg PUBLIC "-//W3C//DTD SVG 1.1//EN"
 "http://www.w3.org/Graphics/SVG/1.1/DTD/svg11.dtd">
<!-- Generated by graphviz version 2.38.0 (20140413.2041)
 -->
<!-- Title: twoDegreesRelationshipsDiagram Pages: 1 -->
<svg width="1168pt" height="768pt"
 viewBox="0.00 0.00 1168.00 767.57" xmlns="http://www.w3.org/2000/svg" xmlns:xlink="http://www.w3.org/1999/xlink">
<g id="graph0" class="graph" transform="scale(1 1) rotate(0) translate(4 763.568)">
<title>twoDegreesRelationshipsDiagram</title>
<polygon fill="#ffffff" stroke="none" points="-4,4 -4,-763.568 1164,-763.568 1164,4 -4,4"/>
<text text-anchor="middle" x="74.5" y="-7.2" font-family="Helvetica,sans-Serif" font-size="11.00">Generated by SchemaSpy</text>
<!-- nursery.batches -->
<g id="node1" class="node"><title>nursery.batches</title>
<g id="a_node1"><a xlink:href="../../../nursery/tables/batches.html" xlink:title="nursery.batches" target="_top">
<polygon fill="#ffffff" stroke="none" points="783,-116.995 783,-174.995 924,-174.995 924,-116.995 783,-116.995"/>
<polygon fill="#f5f5f5" stroke="none" points="783.5,-152.995 783.5,-174.995 924.5,-174.995 924.5,-152.995 783.5,-152.995"/>
<polygon fill="none" stroke="black" points="783.5,-152.995 783.5,-174.995 924.5,-174.995 924.5,-152.995 783.5,-152.995"/>
<text text-anchor="start" x="788.5" y="-162.195" font-family="Helvetica,sans-Serif" font-weight="bold" font-size="11.00">nursery.batches</text>
<text text-anchor="start" x="885.5" y="-161.195" font-family="Helvetica,sans-Serif" font-size="11.00">[table]</text>
<polygon fill="none" stroke="black" points="783.5,-134.995 783.5,-152.995 924.5,-152.995 924.5,-134.995 783.5,-134.995"/>
<text text-anchor="start" x="786.5" y="-141.195" font-family="Helvetica,sans-Serif" font-size="11.00">...</text>
<polygon fill="#ffffff" stroke="none" points="783.5,-116.995 783.5,-134.995 837.5,-134.995 837.5,-116.995 783.5,-116.995"/>
<polygon fill="none" stroke="black" points="783.5,-116.995 783.5,-134.995 837.5,-134.995 837.5,-116.995 783.5,-116.995"/>
<text text-anchor="start" x="786.5" y="-123.195" font-family="Helvetica,sans-Serif" font-size="11.00">&lt; 6</text>
<polygon fill="#ffffff" stroke="none" points="837.5,-116.995 837.5,-134.995 895.5,-134.995 895.5,-116.995 837.5,-116.995"/>
<polygon fill="none" stroke="black" points="837.5,-116.995 837.5,-134.995 895.5,-134.995 895.5,-116.995 837.5,-116.995"/>
<text text-anchor="start" x="856.5" y="-123.195" font-family="Helvetica,sans-Serif" font-size="11.00">0 rows</text>
<polygon fill="#ffffff" stroke="none" points="895.5,-116.995 895.5,-134.995 924.5,-134.995 924.5,-116.995 895.5,-116.995"/>
<polygon fill="none" stroke="black" points="895.5,-116.995 895.5,-134.995 924.5,-134.995 924.5,-116.995 895.5,-116.995"/>
<text text-anchor="start" x="914.5" y="-123.195" font-family="Helvetica,sans-Serif" font-size="11.00"> &#160;</text>
</a>
</g>
</g>
<!-- users -->
<g id="node2" class="node"><title>users</title>
<g id="a_node2"><a xlink:href="../../tables/users.html" xlink:title="users" target="_top">
<polygon fill="#ffffff" stroke="none" points="169,-389.995 169,-447.995 259,-447.995 259,-389.995 169,-389.995"/>
<polygon fill="#f5f5f5" stroke="none" points="169,-425.995 169,-447.995 259,-447.995 259,-425.995 169,-425.995"/>
<polygon fill="none" stroke="black" points="169,-425.995 169,-447.995 259,-447.995 259,-425.995 169,-425.995"/>
<text text-anchor="start" x="174" y="-435.195" font-family="Helvetica,sans-Serif" font-weight="bold" font-size="11.00">users</text>
<text text-anchor="start" x="220" y="-434.195" font-family="Helvetica,sans-Serif" font-size="11.00">[table]</text>
<polygon fill="none" stroke="black" points="169,-407.995 169,-425.995 259,-425.995 259,-407.995 169,-407.995"/>
<text text-anchor="start" x="172" y="-414.195" font-family="Helvetica,sans-Serif" font-size="11.00">...</text>
<polygon fill="#ffffff" stroke="none" points="169,-389.995 169,-407.995 192,-407.995 192,-389.995 169,-389.995"/>
<polygon fill="none" stroke="black" points="169,-389.995 169,-407.995 192,-407.995 192,-389.995 169,-389.995"/>
<text text-anchor="start" x="172" y="-396.195" font-family="Helvetica,sans-Serif" font-size="11.00">&lt; 3</text>
<polygon fill="#ffffff" stroke="none" points="192,-389.995 192,-407.995 229,-407.995 229,-389.995 192,-389.995"/>
<polygon fill="none" stroke="black" points="192,-389.995 192,-407.995 229,-407.995 229,-389.995 192,-389.995"/>
<text text-anchor="start" x="195" y="-396.195" font-family="Helvetica,sans-Serif" font-size="11.00">1 row</text>
<polygon fill="#ffffff" stroke="none" points="229,-389.995 229,-407.995 259,-407.995 259,-389.995 229,-389.995"/>
<polygon fill="none" stroke="black" points="229,-389.995 229,-407.995 259,-407.995 259,-389.995 229,-389.995"/>
<text text-anchor="start" x="232" y="-396.195" font-family="Helvetica,sans-Serif" font-size="11.00">59 &gt;</text>
</a>
</g>
</g>
<!-- nursery.batches&#45;&gt;users -->
<g id="edge1" class="edge"><title>nursery.batches:elipses:w&#45;&gt;users:elipses:e</title>
<path fill="none" stroke="black" d="M767.894,-143.801C562.966,-138.381 456.854,-21.8863 300,-160.995 256.921,-199.199 317.579,-416.995 260,-416.995"/>
<polygon fill="black" stroke="black" points="774.501,-143.889 782.452,-147.594 778.5,-143.942 782.5,-143.995 782.5,-143.995 782.5,-143.995 778.5,-143.942 782.548,-140.395 774.501,-143.889 774.501,-143.889"/>
<ellipse fill="none" stroke="black" cx="771.301" cy="-143.846" rx="3.2" ry="3.2"/>
</g>
<!-- nursery.batches&#45;&gt;users -->
<g id="edge3" class="edge"><title>nursery.batches:elipses:w&#45;&gt;users:elipses:e</title>
<path fill="none" stroke="black" d="M767.889,-143.806C562.87,-138.525 456.225,-25.0772 300,-164.995 257.762,-202.823 316.701,-416.995 260,-416.995"/>
<polygon fill="black" stroke="black" points="774.501,-143.891 782.454,-147.594 778.5,-143.943 782.5,-143.995 782.5,-143.995 782.5,-143.995 778.5,-143.943 782.546,-140.395 774.501,-143.891 774.501,-143.891"/>
<ellipse fill="none" stroke="black" cx="771.301" cy="-143.85" rx="3.2" ry="3.2"/>
</g>
<!-- facilities -->
<g id="node3" class="node"><title>facilities</title>
<g id="a_node3"><a xlink:href="../../tables/facilities.html" xlink:title="facilities" target="_top">
<polygon fill="#ffffff" stroke="none" points="561,-277.995 561,-555.995 721,-555.995 721,-277.995 561,-277.995"/>
<polygon fill="#f5f5f5" stroke="none" points="561,-533.995 561,-555.995 721,-555.995 721,-533.995 561,-533.995"/>
<polygon fill="none" stroke="black" points="561,-533.995 561,-555.995 721,-555.995 721,-533.995 561,-533.995"/>
<text text-anchor="start" x="566" y="-543.195" font-family="Helvetica,sans-Serif" font-weight="bold" font-size="11.00">facilities</text>
<text text-anchor="start" x="682" y="-542.195" font-family="Helvetica,sans-Serif" font-size="11.00">[table]</text>
<polygon fill="none" stroke="black" points="561,-511.995 561,-533.995 721,-533.995 721,-511.995 561,-511.995"/>
<image xlink:href="../../images/primaryKeys.png" width="11px" height="12px" preserveAspectRatio="xMinYMin meet" x="566" y="-528.995"/>
<text text-anchor="start" x="581" y="-520.195" font-family="Helvetica,sans-Serif" font-size="11.00">id</text>
<polygon fill="#ffffff" stroke="none" points="561,-489.995 561,-511.995 721,-511.995 721,-489.995 561,-489.995"/>
<polygon fill="none" stroke="black" points="561,-489.995 561,-511.995 721,-511.995 721,-489.995 561,-489.995"/>
<image xlink:href="../../images/foreignKeys.png" width="11px" height="12px" preserveAspectRatio="xMinYMin meet" x="566" y="-506.995"/>
<text text-anchor="start" x="581" y="-498.195" font-family="Helvetica,sans-Serif" font-size="11.00">type_id</text>
<polygon fill="none" stroke="black" points="561,-467.995 561,-489.995 721,-489.995 721,-467.995 561,-467.995"/>
<image xlink:href="../../images/foreignKeys.png" width="11px" height="12px" preserveAspectRatio="xMinYMin meet" x="566" y="-484.995"/>
<text text-anchor="start" x="581" y="-476.195" font-family="Helvetica,sans-Serif" font-size="11.00">created_by</text>
<polygon fill="none" stroke="black" points="561,-445.995 561,-467.995 721,-467.995 721,-445.995 561,-445.995"/>
<image xlink:href="../../images/foreignKeys.png" width="11px" height="12px" preserveAspectRatio="xMinYMin meet" x="566" y="-462.995"/>
<text text-anchor="start" x="581" y="-454.195" font-family="Helvetica,sans-Serif" font-size="11.00">modified_by</text>
<polygon fill="#ffffff" stroke="none" points="561,-423.995 561,-445.995 721,-445.995 721,-423.995 561,-423.995"/>
<polygon fill="none" stroke="black" points="561,-423.995 561,-445.995 721,-445.995 721,-423.995 561,-423.995"/>
<text text-anchor="start" x="581" y="-432.195" font-family="Helvetica,sans-Serif" font-size="11.00">idle_after_time</text>
<polygon fill="none" stroke="black" points="561,-401.995 561,-423.995 721,-423.995 721,-401.995 561,-401.995"/>
<image xlink:href="../../images/foreignKeys.png" width="11px" height="12px" preserveAspectRatio="xMinYMin meet" x="566" y="-418.995"/>
<text text-anchor="start" x="581" y="-410.195" font-family="Helvetica,sans-Serif" font-size="11.00">connection_state_id</text>
<polygon fill="#ffffff" stroke="none" points="561,-379.995 561,-401.995 721,-401.995 721,-379.995 561,-379.995"/>
<polygon fill="none" stroke="black" points="561,-379.995 561,-401.995 721,-401.995 721,-379.995 561,-379.995"/>
<image xlink:href="../../images/foreignKeys.png" width="11px" height="12px" preserveAspectRatio="xMinYMin meet" x="566" y="-396.995"/>
<text text-anchor="start" x="581" y="-388.195" font-family="Helvetica,sans-Serif" font-size="11.00">organization_id</text>
<polygon fill="none" stroke="black" points="561,-357.995 561,-379.995 721,-379.995 721,-357.995 561,-357.995"/>
<image xlink:href="../../images/foreignKeys.png" width="11px" height="12px" preserveAspectRatio="xMinYMin meet" x="566" y="-374.995"/>
<text text-anchor="start" x="581" y="-366.195" font-family="Helvetica,sans-Serif" font-size="11.00">time_zone</text>
<polygon fill="#ffffff" stroke="none" points="561,-335.995 561,-357.995 721,-357.995 721,-335.995 561,-335.995"/>
<polygon fill="none" stroke="black" points="561,-335.995 561,-357.995 721,-357.995 721,-335.995 561,-335.995"/>
<text text-anchor="start" x="581" y="-344.195" font-family="Helvetica,sans-Serif" font-size="11.00">next_notification_time</text>
<polygon fill="#ffffff" stroke="none" points="561,-313.995 561,-335.995 721,-335.995 721,-313.995 561,-313.995"/>
<polygon fill="none" stroke="black" points="561,-313.995 561,-335.995 721,-335.995 721,-313.995 561,-313.995"/>
<text text-anchor="start" x="581" y="-322.195" font-family="Helvetica,sans-Serif" font-size="11.00">facility_number</text>
<polygon fill="none" stroke="black" points="561,-295.995 561,-313.995 721,-313.995 721,-295.995 561,-295.995"/>
<text text-anchor="start" x="564" y="-302.195" font-family="Helvetica,sans-Serif" font-size="11.00">...</text>
<polygon fill="#ffffff" stroke="none" points="561,-277.995 561,-295.995 620,-295.995 620,-277.995 561,-277.995"/>
<polygon fill="none" stroke="black" points="561,-277.995 561,-295.995 620,-295.995 620,-277.995 561,-277.995"/>
<text text-anchor="start" x="564" y="-284.195" font-family="Helvetica,sans-Serif" font-size="11.00">&lt; 6</text>
<polygon fill="#ffffff" stroke="none" points="620,-277.995 620,-295.995 680,-295.995 680,-277.995 620,-277.995"/>
<polygon fill="none" stroke="black" points="620,-277.995 620,-295.995 680,-295.995 680,-277.995 620,-277.995"/>
<text text-anchor="start" x="641" y="-284.195" font-family="Helvetica,sans-Serif" font-size="11.00">0 rows</text>
<polygon fill="#ffffff" stroke="none" points="680,-277.995 680,-295.995 721,-295.995 721,-277.995 680,-277.995"/>
<polygon fill="none" stroke="black" points="680,-277.995 680,-295.995 721,-295.995 721,-277.995 680,-277.995"/>
<text text-anchor="start" x="701" y="-284.195" font-family="Helvetica,sans-Serif" font-size="11.00">9 &gt;</text>
</a>
</g>
</g>
<!-- nursery.batches&#45;&gt;facilities -->
<g id="edge2" class="edge"><title>nursery.batches:elipses:w&#45;&gt;facilities:id:e</title>
<path fill="none" stroke="black" d="M768.702,-148.251C710.208,-189.889 801.958,-522.995 722,-522.995"/>
<polygon fill="black" stroke="black" points="774.855,-146.353 783.561,-147.435 778.678,-145.174 782.5,-143.995 782.5,-143.995 782.5,-143.995 778.678,-145.174 781.439,-140.555 774.855,-146.353 774.855,-146.353"/>
<ellipse fill="none" stroke="black" cx="771.798" cy="-147.296" rx="3.20001" ry="3.20001"/>
</g>
<!-- organizations -->
<g id="node4" class="node"><title>organizations</title>
<g id="a_node4"><a xlink:href="../../tables/organizations.html" xlink:title="organizations" target="_top">
<polygon fill="#ffffff" stroke="none" points="347.5,-171.995 347.5,-229.995 472.5,-229.995 472.5,-171.995 347.5,-171.995"/>
<polygon fill="#f5f5f5" stroke="none" points="348,-207.995 348,-229.995 473,-229.995 473,-207.995 348,-207.995"/>
<polygon fill="none" stroke="black" points="348,-207.995 348,-229.995 473,-229.995 473,-207.995 348,-207.995"/>
<text text-anchor="start" x="353" y="-217.195" font-family="Helvetica,sans-Serif" font-weight="bold" font-size="11.00">organizations</text>
<text text-anchor="start" x="434" y="-216.195" font-family="Helvetica,sans-Serif" font-size="11.00">[table]</text>
<polygon fill="none" stroke="black" points="348,-189.995 348,-207.995 473,-207.995 473,-189.995 348,-189.995"/>
<text text-anchor="start" x="351" y="-196.195" font-family="Helvetica,sans-Serif" font-size="11.00">...</text>
<polygon fill="#ffffff" stroke="none" points="348,-171.995 348,-189.995 386,-189.995 386,-171.995 348,-171.995"/>
<polygon fill="none" stroke="black" points="348,-171.995 348,-189.995 386,-189.995 386,-171.995 348,-171.995"/>
<text text-anchor="start" x="351" y="-178.195" font-family="Helvetica,sans-Serif" font-size="11.00">&lt; 5</text>
<polygon fill="#ffffff" stroke="none" points="386,-171.995 386,-189.995 435,-189.995 435,-171.995 386,-171.995"/>
<polygon fill="none" stroke="black" points="386,-171.995 386,-189.995 435,-189.995 435,-171.995 386,-171.995"/>
<text text-anchor="start" x="396" y="-178.195" font-family="Helvetica,sans-Serif" font-size="11.00">0 rows</text>
<polygon fill="#ffffff" stroke="none" points="435,-171.995 435,-189.995 473,-189.995 473,-171.995 435,-171.995"/>
<polygon fill="none" stroke="black" points="435,-171.995 435,-189.995 473,-189.995 473,-171.995 435,-171.995"/>
<text text-anchor="start" x="446" y="-178.195" font-family="Helvetica,sans-Serif" font-size="11.00">12 &gt;</text>
</a>
</g>
</g>
<!-- nursery.batches&#45;&gt;organizations -->
<g id="edge4" class="edge"><title>nursery.batches:elipses:w&#45;&gt;organizations:elipses:e</title>
<path fill="none" stroke="black" d="M768.034,-145.071C754.658,-147.276 747.308,-152.4 729,-155.995 616.219,-178.135 588.933,-198.995 474,-198.995"/>
<polygon fill="black" stroke="black" points="774.522,-144.588 782.767,-147.585 778.511,-144.291 782.5,-143.995 782.5,-143.995 782.5,-143.995 778.511,-144.291 782.233,-140.404 774.522,-144.588 774.522,-144.588"/>
<ellipse fill="none" stroke="black" cx="771.331" cy="-144.826" rx="3.2" ry="3.2"/>
</g>
<!-- time_zones -->
<g id="node10" class="node"><title>time_zones</title>
<g id="a_node10"><a xlink:href="../../tables/time_zones.html" xlink:title="time_zones" target="_top">
<polygon fill="#ffffff" stroke="none" points="8,-171.995 8,-229.995 120,-229.995 120,-171.995 8,-171.995"/>
<polygon fill="#f5f5f5" stroke="none" points="8,-207.995 8,-229.995 120,-229.995 120,-207.995 8,-207.995"/>
<polygon fill="none" stroke="black" points="8,-207.995 8,-229.995 120,-229.995 120,-207.995 8,-207.995"/>
<text text-anchor="start" x="13" y="-217.195" font-family="Helvetica,sans-Serif" font-weight="bold" font-size="11.00">time_zones</text>
<text text-anchor="start" x="81" y="-216.195" font-family="Helvetica,sans-Serif" font-size="11.00">[table]</text>
<polygon fill="none" stroke="black" points="8,-189.995 8,-207.995 120,-207.995 120,-189.995 8,-189.995"/>
<text text-anchor="start" x="11" y="-196.195" font-family="Helvetica,sans-Serif" font-size="11.00">...</text>
<polygon fill="#ffffff" stroke="none" points="8,-171.995 8,-189.995 38,-189.995 38,-171.995 8,-171.995"/>
<polygon fill="none" stroke="black" points="8,-171.995 8,-189.995 38,-189.995 38,-171.995 8,-171.995"/>
<text text-anchor="start" x="11" y="-178.195" font-family="Helvetica,sans-Serif" font-size="11.00"> &#160;</text>
<polygon fill="#ffffff" stroke="none" points="38,-171.995 38,-189.995 88,-189.995 88,-171.995 38,-171.995"/>
<polygon fill="none" stroke="black" points="38,-171.995 38,-189.995 88,-189.995 88,-171.995 38,-171.995"/>
<text text-anchor="start" x="49" y="-178.195" font-family="Helvetica,sans-Serif" font-size="11.00">0 rows</text>
<polygon fill="#ffffff" stroke="none" points="88,-171.995 88,-189.995 120,-189.995 120,-171.995 88,-171.995"/>
<polygon fill="none" stroke="black" points="88,-171.995 88,-189.995 120,-189.995 120,-171.995 88,-171.995"/>
<text text-anchor="start" x="100" y="-178.195" font-family="Helvetica,sans-Serif" font-size="11.00">4 &gt;</text>
</a>
</g>
</g>
<!-- users&#45;&gt;time_zones -->
<g id="edge33" class="edge"><title>users:elipses:w&#45;&gt;time_zones:elipses:e</title>
<path fill="none" stroke="black" d="M153.477,-414.976C85.2133,-392.999 214.501,-198.995 121,-198.995"/>
<polygon fill="black" stroke="black" points="160.076,-415.893 167.504,-420.56 164.038,-416.444 168,-416.995 168,-416.995 168,-416.995 164.038,-416.444 168.496,-413.429 160.076,-415.893 160.076,-415.893"/>
<ellipse fill="none" stroke="black" cx="156.907" cy="-415.452" rx="3.2" ry="3.2"/>
</g>
<!-- facilities&#45;&gt;users -->
<g id="edge19" class="edge"><title>facilities:created_by:w&#45;&gt;users:elipses:e</title>
<path fill="none" stroke="black" d="M545.95,-475.526C537.729,-470.756 533.288,-462.276 520,-457.995 426.015,-427.711 396.92,-445.884 300,-426.995 282.014,-423.489 278.325,-416.995 260,-416.995"/>
<polygon fill="black" stroke="black" points="552.233,-477.077 559.137,-482.49 556.117,-478.036 560,-478.995 560,-478.995 560,-478.995 556.117,-478.036 560.863,-475.499 552.233,-477.077 552.233,-477.077"/>
<ellipse fill="none" stroke="black" cx="549.126" cy="-476.31" rx="3.2" ry="3.2"/>
</g>
<!-- facilities&#45;&gt;users -->
<g id="edge20" class="edge"><title>facilities:modified_by:w&#45;&gt;users:elipses:e</title>
<path fill="none" stroke="black" d="M546.254,-452.634C537.705,-445.893 534.906,-433.18 520,-427.995 410.763,-389.992 375.659,-416.995 260,-416.995"/>
<polygon fill="black" stroke="black" points="552.375,-454.575 558.911,-460.426 556.187,-455.785 560,-456.995 560,-456.995 560,-456.995 556.187,-455.785 561.089,-453.563 552.375,-454.575 552.375,-454.575"/>
<ellipse fill="none" stroke="black" cx="549.324" cy="-453.608" rx="3.20001" ry="3.20001"/>
</g>
<!-- facilities&#45;&gt;organizations -->
<g id="edge21" class="edge"><title>facilities:organization_id:w&#45;&gt;organizations:elipses:e</title>
<path fill="none" stroke="black" d="M546.465,-384.606C514.241,-351.291 515.638,-198.995 474,-198.995"/>
<polygon fill="black" stroke="black" points="552.765,-387.58 558.463,-394.25 556.383,-389.287 560,-390.995 560,-390.995 560,-390.995 556.383,-389.287 561.537,-387.739 552.765,-387.58 552.765,-387.58"/>
<ellipse fill="none" stroke="black" cx="549.871" cy="-386.214" rx="3.20001" ry="3.20001"/>
</g>
<!-- facility_connection_states -->
<g id="node9" class="node"><title>facility_connection_states</title>
<g id="a_node9"><a xlink:href="../../tables/facility_connection_states.html" xlink:title="facility_connection_states" target="_top">
<polygon fill="#ffffff" stroke="none" points="312,-334.995 312,-392.995 508,-392.995 508,-334.995 312,-334.995"/>
<polygon fill="#f5f5f5" stroke="none" points="312,-370.995 312,-392.995 508,-392.995 508,-370.995 312,-370.995"/>
<polygon fill="none" stroke="black" points="312,-370.995 312,-392.995 508,-392.995 508,-370.995 312,-370.995"/>
<text text-anchor="start" x="317" y="-380.195" font-family="Helvetica,sans-Serif" font-weight="bold" font-size="11.00">facility_connection_states</text>
<text text-anchor="start" x="469" y="-379.195" font-family="Helvetica,sans-Serif" font-size="11.00">[table]</text>
<polygon fill="none" stroke="black" points="312,-352.995 312,-370.995 508,-370.995 508,-352.995 312,-352.995"/>
<text text-anchor="start" x="315" y="-359.195" font-family="Helvetica,sans-Serif" font-size="11.00">...</text>
<polygon fill="#ffffff" stroke="none" points="312,-334.995 312,-352.995 384,-352.995 384,-334.995 312,-334.995"/>
<polygon fill="none" stroke="black" points="312,-334.995 312,-352.995 384,-352.995 384,-334.995 312,-334.995"/>
<text text-anchor="start" x="315" y="-341.195" font-family="Helvetica,sans-Serif" font-size="11.00"> &#160;</text>
<polygon fill="#ffffff" stroke="none" points="384,-334.995 384,-352.995 455,-352.995 455,-334.995 384,-334.995"/>
<polygon fill="none" stroke="black" points="384,-334.995 384,-352.995 455,-352.995 455,-334.995 384,-334.995"/>
<text text-anchor="start" x="416" y="-341.195" font-family="Helvetica,sans-Serif" font-size="11.00">3 rows</text>
<polygon fill="#ffffff" stroke="none" points="455,-334.995 455,-352.995 508,-352.995 508,-334.995 455,-334.995"/>
<polygon fill="none" stroke="black" points="455,-334.995 455,-352.995 508,-352.995 508,-334.995 455,-334.995"/>
<text text-anchor="start" x="488" y="-341.195" font-family="Helvetica,sans-Serif" font-size="11.00">1 &gt;</text>
</a>
</g>
</g>
<!-- facilities&#45;&gt;facility_connection_states -->
<g id="edge18" class="edge"><title>facilities:connection_state_id:w&#45;&gt;facility_connection_states:elipses:e</title>
<path fill="none" stroke="black" d="M546.137,-408.288C531.273,-395.663 535.045,-361.995 509,-361.995"/>
<polygon fill="black" stroke="black" points="552.425,-410.423 558.843,-416.403 556.212,-411.709 560,-412.995 560,-412.995 560,-412.995 556.212,-411.709 561.157,-409.586 552.425,-410.423 552.425,-410.423"/>
<ellipse fill="none" stroke="black" cx="549.395" cy="-409.394" rx="3.20001" ry="3.20001"/>
</g>
<!-- facilities&#45;&gt;time_zones -->
<g id="edge22" class="edge"><title>facilities:time_zone:w&#45;&gt;time_zones:elipses:e</title>
<path fill="none" stroke="black" d="M545.642,-367.517C480.027,-351.948 588.327,-217.434 520,-160.995 444.614,-98.7249 397.243,-150.786 300,-160.995 259.558,-165.24 161.664,-198.995 121,-198.995"/>
<polygon fill="black" stroke="black" points="552.042,-368.176 559.631,-372.576 556.021,-368.585 560,-368.995 560,-368.995 560,-368.995 556.021,-368.585 560.369,-365.413 552.042,-368.176 552.042,-368.176"/>
<ellipse fill="none" stroke="black" cx="548.859" cy="-367.848" rx="3.2" ry="3.2"/>
</g>
<!-- facility_types -->
<g id="node11" class="node"><title>facility_types</title>
<g id="a_node11"><a xlink:href="../../tables/facility_types.html" xlink:title="facility_types" target="_top">
<polygon fill="#ffffff" stroke="none" points="308,-467.995 308,-555.995 512,-555.995 512,-467.995 308,-467.995"/>
<polygon fill="#f5f5f5" stroke="none" points="310,-531.995 310,-553.995 510,-553.995 510,-531.995 310,-531.995"/>
<polygon fill="none" stroke="black" points="310,-531.995 310,-553.995 510,-553.995 510,-531.995 310,-531.995"/>
<text text-anchor="start" x="315" y="-541.195" font-family="Helvetica,sans-Serif" font-weight="bold" font-size="11.00">facility_types</text>
<text text-anchor="start" x="471" y="-540.195" font-family="Helvetica,sans-Serif" font-size="11.00">[table]</text>
<polygon fill="none" stroke="black" points="310,-509.995 310,-531.995 409,-531.995 409,-509.995 310,-509.995"/>
<image xlink:href="../../images/primaryKeys.png" width="11px" height="12px" preserveAspectRatio="xMinYMin meet" x="315" y="-526.995"/>
<text text-anchor="start" x="330" y="-518.195" font-family="Helvetica,sans-Serif" font-size="11.00">id</text>
<polygon fill="none" stroke="black" points="409,-509.995 409,-531.995 510,-531.995 510,-509.995 409,-509.995"/>
<text text-anchor="start" x="412" y="-518.195" font-family="Helvetica,sans-Serif" font-size="11.00">int4[10]</text>
<polygon fill="none" stroke="black" points="310,-487.995 310,-509.995 409,-509.995 409,-487.995 310,-487.995"/>
<text text-anchor="start" x="330" y="-496.195" font-family="Helvetica,sans-Serif" font-size="11.00">name</text>
<polygon fill="none" stroke="black" points="409,-487.995 409,-509.995 510,-509.995 510,-487.995 409,-487.995"/>
<text text-anchor="start" x="412" y="-496.195" font-family="Helvetica,sans-Serif" font-size="11.00">text[2147483647]</text>
<polygon fill="#ffffff" stroke="none" points="310,-469.995 310,-487.995 350,-487.995 350,-469.995 310,-469.995"/>
<polygon fill="none" stroke="black" points="310,-469.995 310,-487.995 350,-487.995 350,-469.995 310,-469.995"/>
<text text-anchor="start" x="313" y="-476.195" font-family="Helvetica,sans-Serif" font-size="11.00">&lt; 0</text>
<polygon fill="#ffffff" stroke="none" points="350,-469.995 350,-487.995 409,-487.995 409,-469.995 350,-469.995"/>
<polygon fill="none" stroke="black" points="350,-469.995 350,-487.995 409,-487.995 409,-469.995 350,-469.995"/>
<text text-anchor="start" x="370" y="-476.195" font-family="Helvetica,sans-Serif" font-size="11.00">4 rows</text>
<polygon fill="#ffffff" stroke="none" points="409,-469.995 409,-487.995 510,-487.995 510,-469.995 409,-469.995"/>
<polygon fill="none" stroke="black" points="409,-469.995 409,-487.995 510,-487.995 510,-469.995 409,-469.995"/>
<text text-anchor="start" x="490" y="-476.195" font-family="Helvetica,sans-Serif" font-size="11.00">1 &gt;</text>
<polygon fill="none" stroke="black" stroke-width="2" points="309,-468.995 309,-554.995 511,-554.995 511,-468.995 309,-468.995"/>
</a>
</g>
</g>
<!-- facilities&#45;&gt;facility_types -->
<g id="edge23" class="edge"><title>facilities:type_id:w&#45;&gt;facility_types:id.type:e</title>
<path fill="none" stroke="black" d="M545.728,-504.12C534.152,-509.745 528.641,-520.995 511,-520.995"/>
<polygon fill="black" stroke="black" points="552.185,-502.706 560.77,-504.511 556.093,-501.85 560,-500.995 560,-500.995 560,-500.995 556.093,-501.85 559.23,-497.478 552.185,-502.706 552.185,-502.706"/>
<ellipse fill="none" stroke="black" cx="549.059" cy="-503.39" rx="3.2" ry="3.2"/>
</g>
<!-- organizations&#45;&gt;users -->
<g id="edge24" class="edge"><title>organizations:elipses:w&#45;&gt;users:elipses:e</title>
<path fill="none" stroke="black" d="M332.19,-198.367C316.11,-201.281 311.394,-217.963 300,-237.995 260.981,-306.591 338.917,-410.995 260,-416.995"/>
<polygon fill="black" stroke="black" points="339.007,-198.656 346.848,-202.591 343.004,-198.825 347,-198.995 347,-198.995 347,-198.995 343.004,-198.825 347.152,-195.398 339.007,-198.656 339.007,-198.656"/>
<ellipse fill="none" stroke="black" cx="335.81" cy="-198.52" rx="3.2" ry="3.2"/>
</g>
<!-- organizations&#45;&gt;users -->
<g id="edge25" class="edge"><title>organizations:elipses:w&#45;&gt;users:elipses:e</title>
<path fill="none" stroke="black" d="M333.149,-204.239C316.292,-213.628 311.618,-230.57 300,-250.995 260.981,-319.591 338.917,-423.995 260,-416.995"/>
<polygon fill="black" stroke="black" points="339.518,-201.827 348.275,-202.361 343.259,-200.411 347,-198.995 347,-198.995 347,-198.995 343.259,-200.411 345.725,-195.628 339.518,-201.827 339.518,-201.827"/>
<ellipse fill="none" stroke="black" cx="336.526" cy="-202.96" rx="3.20001" ry="3.20001"/>
</g>
<!-- organizations&#45;&gt;time_zones -->
<g id="edge26" class="edge"><title>organizations:elipses:w&#45;&gt;time_zones:elipses:e</title>
<path fill="none" stroke="black" d="M332.534,-198.995C243.867,-198.995 216.442,-198.995 121,-198.995"/>
<polygon fill="black" stroke="black" points="339,-198.995 347,-202.595 343,-198.995 347,-198.995 347,-198.995 347,-198.995 343,-198.995 347,-195.395 339,-198.995 339,-198.995"/>
<ellipse fill="none" stroke="black" cx="335.8" cy="-198.995" rx="3.2" ry="3.2"/>
</g>
<!-- nursery.withdrawals -->
<g id="node5" class="node"><title>nursery.withdrawals</title>
<g id="a_node5"><a xlink:href="../../../nursery/tables/withdrawals.html" xlink:title="nursery.withdrawals" target="_top">
<polygon fill="#ffffff" stroke="none" points="770,-575.995 770,-633.995 937,-633.995 937,-575.995 770,-575.995"/>
<polygon fill="#f5f5f5" stroke="none" points="770.5,-611.995 770.5,-633.995 937.5,-633.995 937.5,-611.995 770.5,-611.995"/>
<polygon fill="none" stroke="black" points="770.5,-611.995 770.5,-633.995 937.5,-633.995 937.5,-611.995 770.5,-611.995"/>
<text text-anchor="start" x="775.5" y="-621.195" font-family="Helvetica,sans-Serif" font-weight="bold" font-size="11.00">nursery.withdrawals</text>
<text text-anchor="start" x="898.5" y="-620.195" font-family="Helvetica,sans-Serif" font-size="11.00">[table]</text>
<polygon fill="none" stroke="black" points="770.5,-593.995 770.5,-611.995 937.5,-611.995 937.5,-593.995 770.5,-593.995"/>
<text text-anchor="start" x="773.5" y="-600.195" font-family="Helvetica,sans-Serif" font-size="11.00">...</text>
<polygon fill="#ffffff" stroke="none" points="770.5,-575.995 770.5,-593.995 837.5,-593.995 837.5,-575.995 770.5,-575.995"/>
<polygon fill="none" stroke="black" points="770.5,-575.995 770.5,-593.995 837.5,-593.995 837.5,-575.995 770.5,-575.995"/>
<text text-anchor="start" x="773.5" y="-582.195" font-family="Helvetica,sans-Serif" font-size="11.00">&lt; 4</text>
<polygon fill="#ffffff" stroke="none" points="837.5,-575.995 837.5,-593.995 901.5,-593.995 901.5,-575.995 837.5,-575.995"/>
<polygon fill="none" stroke="black" points="837.5,-575.995 837.5,-593.995 901.5,-593.995 901.5,-575.995 837.5,-575.995"/>
<text text-anchor="start" x="862.5" y="-582.195" font-family="Helvetica,sans-Serif" font-size="11.00">0 rows</text>
<polygon fill="#ffffff" stroke="none" points="901.5,-575.995 901.5,-593.995 937.5,-593.995 937.5,-575.995 901.5,-575.995"/>
<polygon fill="none" stroke="black" points="901.5,-575.995 901.5,-593.995 937.5,-593.995 937.5,-575.995 901.5,-575.995"/>
<text text-anchor="start" x="927.5" y="-582.195" font-family="Helvetica,sans-Serif" font-size="11.00"> &#160;</text>
</a>
</g>
</g>
<!-- nursery.withdrawals&#45;&gt;users -->
<g id="edge5" class="edge"><title>nursery.withdrawals:elipses:w&#45;&gt;users:elipses:e</title>
<path fill="none" stroke="black" d="M755.082,-603.296C641.094,-607.66 377.413,-657.09 300,-593.995 237.484,-543.041 340.65,-416.995 260,-416.995"/>
<polygon fill="black" stroke="black" points="761.502,-603.162 769.575,-606.594 765.501,-603.078 769.5,-602.995 769.5,-602.995 769.5,-602.995 765.501,-603.078 769.425,-599.395 761.502,-603.162 761.502,-603.162"/>
<ellipse fill="none" stroke="black" cx="758.302" cy="-603.228" rx="3.2" ry="3.2"/>
</g>
<!-- nursery.withdrawals&#45;&gt;users -->
<g id="edge8" class="edge"><title>nursery.withdrawals:elipses:w&#45;&gt;users:elipses:e</title>
<path fill="none" stroke="black" d="M755.079,-603.275C641.067,-607.337 377.316,-653.24 300,-589.995 238.916,-540.027 338.917,-416.995 260,-416.995"/>
<polygon fill="black" stroke="black" points="761.502,-603.15 769.57,-606.594 765.501,-603.072 769.5,-602.995 769.5,-602.995 769.5,-602.995 765.501,-603.072 769.43,-599.395 761.502,-603.15 761.502,-603.15"/>
<ellipse fill="none" stroke="black" cx="758.302" cy="-603.212" rx="3.2" ry="3.2"/>
</g>
<!-- nursery.withdrawals&#45;&gt;facilities -->
<g id="edge6" class="edge"><title>nursery.withdrawals:elipses:w&#45;&gt;facilities:id:e</title>
<path fill="none" stroke="black" d="M756.441,-596.793C736.344,-576.727 757.697,-517.815 722,-522.995"/>
<polygon fill="black" stroke="black" points="762.274,-599.563 767.956,-606.246 765.887,-601.279 769.5,-602.995 769.5,-602.995 769.5,-602.995 765.887,-601.279 771.044,-599.743 762.274,-599.563 762.274,-599.563"/>
<ellipse fill="none" stroke="black" cx="759.383" cy="-598.19" rx="3.20001" ry="3.20001"/>
</g>
<!-- nursery.withdrawals&#45;&gt;facilities -->
<g id="edge7" class="edge"><title>nursery.withdrawals:elipses:w&#45;&gt;facilities:id:e</title>
<path fill="none" stroke="black" d="M755.14,-600.514C737.281,-586.777 756.89,-528.901 722,-522.995"/>
<polygon fill="black" stroke="black" points="761.617,-601.633 768.887,-606.542 765.558,-602.314 769.5,-602.995 769.5,-602.995 769.5,-602.995 765.558,-602.314 770.113,-599.447 761.617,-601.633 761.617,-601.633"/>
<ellipse fill="none" stroke="black" cx="758.463" cy="-601.088" rx="3.2" ry="3.2"/>
</g>
<!-- automations -->
<g id="node6" class="node"><title>automations</title>
<g id="a_node6"><a xlink:href="../../tables/automations.html" xlink:title="automations" target="_top">
<polygon fill="#ffffff" stroke="none" points="1008.5,-213.995 1008.5,-271.995 1129.5,-271.995 1129.5,-213.995 1008.5,-213.995"/>
<polygon fill="#f5f5f5" stroke="none" points="1009,-249.995 1009,-271.995 1130,-271.995 1130,-249.995 1009,-249.995"/>
<polygon fill="none" stroke="black" points="1009,-249.995 1009,-271.995 1130,-271.995 1130,-249.995 1009,-249.995"/>
<text text-anchor="start" x="1014" y="-259.195" font-family="Helvetica,sans-Serif" font-weight="bold" font-size="11.00">automations</text>
<text text-anchor="start" x="1091" y="-258.195" font-family="Helvetica,sans-Serif" font-size="11.00">[table]</text>
<polygon fill="none" stroke="black" points="1009,-231.995 1009,-249.995 1130,-249.995 1130,-231.995 1009,-231.995"/>
<text text-anchor="start" x="1012" y="-238.195" font-family="Helvetica,sans-Serif" font-size="11.00">...</text>
<polygon fill="#ffffff" stroke="none" points="1009,-213.995 1009,-231.995 1053,-231.995 1053,-213.995 1009,-213.995"/>
<polygon fill="none" stroke="black" points="1009,-213.995 1009,-231.995 1053,-231.995 1053,-213.995 1009,-213.995"/>
<text text-anchor="start" x="1012" y="-220.195" font-family="Helvetica,sans-Serif" font-size="11.00">&lt; 4</text>
<polygon fill="#ffffff" stroke="none" points="1053,-213.995 1053,-231.995 1106,-231.995 1106,-213.995 1053,-213.995"/>
<polygon fill="none" stroke="black" points="1053,-213.995 1053,-231.995 1106,-231.995 1106,-213.995 1053,-213.995"/>
<text text-anchor="start" x="1067" y="-220.195" font-family="Helvetica,sans-Serif" font-size="11.00">0 rows</text>
<polygon fill="#ffffff" stroke="none" points="1106,-213.995 1106,-231.995 1130,-231.995 1130,-213.995 1106,-213.995"/>
<polygon fill="none" stroke="black" points="1106,-213.995 1106,-231.995 1130,-231.995 1130,-213.995 1106,-213.995"/>
<text text-anchor="start" x="1120" y="-220.195" font-family="Helvetica,sans-Serif" font-size="11.00"> &#160;</text>
</a>
</g>
</g>
<!-- automations&#45;&gt;users -->
<g id="edge9" class="edge"><title>automations:elipses:w&#45;&gt;users:elipses:e</title>
<path fill="none" stroke="black" d="M993.542,-238.912C951.004,-224.51 995.545,-139.282 945,-105.995 825.27,-27.1441 407.404,1.96471 300,-92.9946 245.65,-141.047 332.547,-416.995 260,-416.995"/>
<polygon fill="black" stroke="black" points="1000.08,-239.854 1007.49,-244.558 1004.04,-240.424 1008,-240.995 1008,-240.995 1008,-240.995 1004.04,-240.424 1008.51,-237.431 1000.08,-239.854 1000.08,-239.854"/>
<ellipse fill="none" stroke="black" cx="996.914" cy="-239.398" rx="3.2" ry="3.2"/>
</g>
<!-- automations&#45;&gt;users -->
<g id="edge12" class="edge"><title>automations:elipses:w&#45;&gt;users:elipses:e</title>
<path fill="none" stroke="black" d="M993.599,-238.881C952.348,-224.626 994.401,-142.118 945,-109.995 824.813,-31.842 407.476,-2.11693 300,-96.9946 246.275,-144.422 331.665,-416.995 260,-416.995"/>
<polygon fill="black" stroke="black" points="1000.08,-239.833 1007.48,-244.556 1004.04,-240.414 1008,-240.995 1008,-240.995 1008,-240.995 1004.04,-240.414 1008.52,-237.433 1000.08,-239.833 1000.08,-239.833"/>
<ellipse fill="none" stroke="black" cx="996.919" cy="-239.368" rx="3.2" ry="3.2"/>
</g>
<!-- automations&#45;&gt;facilities -->
<g id="edge11" class="edge"><title>automations:elipses:w&#45;&gt;facilities:id:e</title>
<path fill="none" stroke="black" d="M993.452,-242.731C944.835,-256.119 992.345,-343.608 945,-389.995 882.452,-451.276 830.024,-407.854 762,-462.995 737.103,-483.176 754.049,-522.995 722,-522.995"/>
<polygon fill="black" stroke="black" points="1000.06,-241.943 1008.43,-244.569 1004.03,-241.469 1008,-240.995 1008,-240.995 1008,-240.995 1004.03,-241.469 1007.57,-237.42 1000.06,-241.943 1000.06,-241.943"/>
<ellipse fill="none" stroke="black" cx="996.879" cy="-242.322" rx="3.2" ry="3.2"/>
</g>
<!-- devices -->
<g id="node7" class="node"><title>devices</title>
<g id="a_node7"><a xlink:href="../../tables/devices.html" xlink:title="devices" target="_top">
<polygon fill="#ffffff" stroke="none" points="808,-496.995 808,-554.995 899,-554.995 899,-496.995 808,-496.995"/>
<polygon fill="#f5f5f5" stroke="none" points="808.5,-532.995 808.5,-554.995 899.5,-554.995 899.5,-532.995 808.5,-532.995"/>
<polygon fill="none" stroke="black" points="808.5,-532.995 808.5,-554.995 899.5,-554.995 899.5,-532.995 808.5,-532.995"/>
<text text-anchor="start" x="813.5" y="-542.195" font-family="Helvetica,sans-Serif" font-weight="bold" font-size="11.00">devices</text>
<text text-anchor="start" x="860.5" y="-541.195" font-family="Helvetica,sans-Serif" font-size="11.00">[table]</text>
<polygon fill="none" stroke="black" points="808.5,-514.995 808.5,-532.995 899.5,-532.995 899.5,-514.995 808.5,-514.995"/>
<text text-anchor="start" x="811.5" y="-521.195" font-family="Helvetica,sans-Serif" font-size="11.00">...</text>
<polygon fill="#ffffff" stroke="none" points="808.5,-496.995 808.5,-514.995 832.5,-514.995 832.5,-496.995 808.5,-496.995"/>
<polygon fill="none" stroke="black" points="808.5,-496.995 808.5,-514.995 832.5,-514.995 832.5,-496.995 808.5,-496.995"/>
<text text-anchor="start" x="811.5" y="-503.195" font-family="Helvetica,sans-Serif" font-size="11.00">&lt; 4</text>
<polygon fill="#ffffff" stroke="none" points="832.5,-496.995 832.5,-514.995 875.5,-514.995 875.5,-496.995 832.5,-496.995"/>
<polygon fill="none" stroke="black" points="832.5,-496.995 832.5,-514.995 875.5,-514.995 875.5,-496.995 832.5,-496.995"/>
<text text-anchor="start" x="836.5" y="-503.195" font-family="Helvetica,sans-Serif" font-size="11.00">0 rows</text>
<polygon fill="#ffffff" stroke="none" points="875.5,-496.995 875.5,-514.995 899.5,-514.995 899.5,-496.995 875.5,-496.995"/>
<polygon fill="none" stroke="black" points="875.5,-496.995 875.5,-514.995 899.5,-514.995 899.5,-496.995 875.5,-496.995"/>
<text text-anchor="start" x="879.5" y="-503.195" font-family="Helvetica,sans-Serif" font-size="11.00">3 &gt;</text>
</a>
</g>
</g>
<!-- automations&#45;&gt;devices -->
<g id="edge10" class="edge"><title>automations:elipses:w&#45;&gt;devices:elipses:e</title>
<path fill="none" stroke="black" d="M993.553,-242.256C885.626,-262.672 1029.79,-523.995 900.5,-523.995"/>
<polygon fill="black" stroke="black" points="1000.03,-241.691 1008.31,-244.581 1004.02,-241.343 1008,-240.995 1008,-240.995 1008,-240.995 1004.02,-241.343 1007.69,-237.408 1000.03,-241.691 1000.03,-241.691"/>
<ellipse fill="none" stroke="black" cx="996.842" cy="-241.969" rx="3.2" ry="3.2"/>
</g>
<!-- devices&#45;&gt;users -->
<g id="edge15" class="edge"><title>devices:elipses:w&#45;&gt;users:elipses:e</title>
<path fill="none" stroke="black" d="M792.85,-525.804C766.91,-532.854 762.119,-558.518 729,-566.995 636.644,-590.633 375.598,-625.075 300,-566.995 245.287,-524.96 328.996,-416.995 260,-416.995"/>
<polygon fill="black" stroke="black" points="799.56,-524.975 807.941,-527.567 803.53,-524.485 807.5,-523.995 807.5,-523.995 807.5,-523.995 803.53,-524.485 807.059,-520.422 799.56,-524.975 799.56,-524.975"/>
<ellipse fill="none" stroke="black" cx="796.384" cy="-525.367" rx="3.2" ry="3.2"/>
</g>
<!-- devices&#45;&gt;users -->
<g id="edge17" class="edge"><title>devices:elipses:w&#45;&gt;users:elipses:e</title>
<path fill="none" stroke="black" d="M793.075,-525.638C767.37,-532.04 761.593,-555.344 729,-562.995 636.189,-584.779 375.796,-620.817 300,-562.995 246.508,-522.187 327.28,-416.995 260,-416.995"/>
<polygon fill="black" stroke="black" points="799.551,-524.9 807.907,-527.571 803.526,-524.447 807.5,-523.995 807.5,-523.995 807.5,-523.995 803.526,-524.447 807.093,-520.418 799.551,-524.9 799.551,-524.9"/>
<ellipse fill="none" stroke="black" cx="796.372" cy="-525.262" rx="3.2" ry="3.2"/>
</g>
<!-- devices&#45;&gt;facilities -->
<g id="edge16" class="edge"><title>devices:elipses:w&#45;&gt;facilities:id:e</title>
<path fill="none" stroke="black" d="M793,-523.941C766.263,-523.733 754.658,-522.995 722,-522.995"/>
<polygon fill="black" stroke="black" points="799.5,-523.965 807.487,-527.595 803.5,-523.98 807.5,-523.995 807.5,-523.995 807.5,-523.995 803.5,-523.98 807.513,-520.395 799.5,-523.965 799.5,-523.965"/>
<ellipse fill="none" stroke="black" cx="796.3" cy="-523.953" rx="3.2" ry="3.2"/>
</g>
<!-- device_managers -->
<g id="node8" class="node"><title>device_managers</title>
<g id="a_node8"><a xlink:href="../../tables/device_managers.html" xlink:title="device_managers" target="_top">
<polygon fill="#ffffff" stroke="none" points="780.5,-320.995 780.5,-378.995 926.5,-378.995 926.5,-320.995 780.5,-320.995"/>
<polygon fill="#f5f5f5" stroke="none" points="780.5,-356.995 780.5,-378.995 926.5,-378.995 926.5,-356.995 780.5,-356.995"/>
<polygon fill="none" stroke="black" points="780.5,-356.995 780.5,-378.995 926.5,-378.995 926.5,-356.995 780.5,-356.995"/>
<text text-anchor="start" x="785.5" y="-366.195" font-family="Helvetica,sans-Serif" font-weight="bold" font-size="11.00">device_managers</text>
<text text-anchor="start" x="887.5" y="-365.195" font-family="Helvetica,sans-Serif" font-size="11.00">[table]</text>
<polygon fill="none" stroke="black" points="780.5,-338.995 780.5,-356.995 926.5,-356.995 926.5,-338.995 780.5,-338.995"/>
<text text-anchor="start" x="783.5" y="-345.195" font-family="Helvetica,sans-Serif" font-size="11.00">...</text>
<polygon fill="#ffffff" stroke="none" points="780.5,-320.995 780.5,-338.995 837.5,-338.995 837.5,-320.995 780.5,-320.995"/>
<polygon fill="none" stroke="black" points="780.5,-320.995 780.5,-338.995 837.5,-338.995 837.5,-320.995 780.5,-320.995"/>
<text text-anchor="start" x="783.5" y="-327.195" font-family="Helvetica,sans-Serif" font-size="11.00">&lt; 2</text>
<polygon fill="#ffffff" stroke="none" points="837.5,-320.995 837.5,-338.995 896.5,-338.995 896.5,-320.995 837.5,-320.995"/>
<polygon fill="none" stroke="black" points="837.5,-320.995 837.5,-338.995 896.5,-338.995 896.5,-320.995 837.5,-320.995"/>
<text text-anchor="start" x="857.5" y="-327.195" font-family="Helvetica,sans-Serif" font-size="11.00">0 rows</text>
<polygon fill="#ffffff" stroke="none" points="896.5,-320.995 896.5,-338.995 926.5,-338.995 926.5,-320.995 896.5,-320.995"/>
<polygon fill="none" stroke="black" points="896.5,-320.995 896.5,-338.995 926.5,-338.995 926.5,-320.995 896.5,-320.995"/>
<text text-anchor="start" x="916.5" y="-327.195" font-family="Helvetica,sans-Serif" font-size="11.00"> &#160;</text>
</a>
</g>
</g>
<!-- device_managers&#45;&gt;users -->
<g id="edge14" class="edge"><title>device_managers:elipses:w&#45;&gt;users:elipses:e</title>
<path fill="none" stroke="black" d="M765.272,-344.553C744.292,-331.561 760.5,-285.361 729,-267.995 660.499,-230.228 630.743,-259.345 553,-267.995 438.444,-280.739 388.813,-251.525 300,-324.995 265.645,-353.414 304.586,-416.995 260,-416.995"/>
<polygon fill="black" stroke="black" points="771.724,-346.113 778.653,-351.494 775.612,-347.054 779.5,-347.995 779.5,-347.995 779.5,-347.995 775.612,-347.054 780.347,-344.496 771.724,-346.113 771.724,-346.113"/>
<ellipse fill="none" stroke="black" cx="768.614" cy="-345.361" rx="3.2" ry="3.2"/>
</g>
<!-- device_managers&#45;&gt;facilities -->
<g id="edge13" class="edge"><title>device_managers:elipses:w&#45;&gt;facilities:id:e</title>
<path fill="none" stroke="black" d="M768.809,-349.206C707.558,-364.667 799.871,-522.995 722,-522.995"/>
<polygon fill="black" stroke="black" points="778.255,-344.11 779.155,-352.059 777.565,-352.239 776.665,-344.29 778.255,-344.11"/>
<polyline fill="none" stroke="black" points="779.5,-347.995 775.525,-348.445 "/>
<ellipse fill="none" stroke="black" cx="772.346" cy="-348.805" rx="3.2" ry="3.2"/>
</g>
<!-- sub_locations -->
<g id="node12" class="node"><title>sub_locations</title>
<g id="a_node12"><a xlink:href="../../tables/sub_locations.html" xlink:title="sub_locations" target="_top">
<polygon fill="#ffffff" stroke="none" points="791,-693.995 791,-751.995 916,-751.995 916,-693.995 791,-693.995"/>
<polygon fill="#f5f5f5" stroke="none" points="791.5,-729.995 791.5,-751.995 916.5,-751.995 916.5,-729.995 791.5,-729.995"/>
<polygon fill="none" stroke="black" points="791.5,-729.995 791.5,-751.995 916.5,-751.995 916.5,-729.995 791.5,-729.995"/>
<text text-anchor="start" x="796.5" y="-739.195" font-family="Helvetica,sans-Serif" font-weight="bold" font-size="11.00">sub_locations</text>
<text text-anchor="start" x="877.5" y="-738.195" font-family="Helvetica,sans-Serif" font-size="11.00">[table]</text>
<polygon fill="none" stroke="black" points="791.5,-711.995 791.5,-729.995 916.5,-729.995 916.5,-711.995 791.5,-711.995"/>
<text text-anchor="start" x="794.5" y="-718.195" font-family="Helvetica,sans-Serif" font-size="11.00">...</text>
<polygon fill="#ffffff" stroke="none" points="791.5,-693.995 791.5,-711.995 832.5,-711.995 832.5,-693.995 791.5,-693.995"/>
<polygon fill="none" stroke="black" points="791.5,-693.995 791.5,-711.995 832.5,-711.995 832.5,-693.995 791.5,-693.995"/>
<text text-anchor="start" x="794.5" y="-700.195" font-family="Helvetica,sans-Serif" font-size="11.00">&lt; 3</text>
<polygon fill="#ffffff" stroke="none" points="832.5,-693.995 832.5,-711.995 883.5,-711.995 883.5,-693.995 832.5,-693.995"/>
<polygon fill="none" stroke="black" points="832.5,-693.995 832.5,-711.995 883.5,-711.995 883.5,-693.995 832.5,-693.995"/>
<text text-anchor="start" x="844.5" y="-700.195" font-family="Helvetica,sans-Serif" font-size="11.00">0 rows</text>
<polygon fill="#ffffff" stroke="none" points="883.5,-693.995 883.5,-711.995 916.5,-711.995 916.5,-693.995 883.5,-693.995"/>
<polygon fill="none" stroke="black" points="883.5,-693.995 883.5,-711.995 916.5,-711.995 916.5,-693.995 883.5,-693.995"/>
<text text-anchor="start" x="896.5" y="-700.195" font-family="Helvetica,sans-Serif" font-size="11.00">1 &gt;</text>
</a>
</g>
</g>
<!-- sub_locations&#45;&gt;users -->
<g id="edge27" class="edge"><title>sub_locations:elipses:w&#45;&gt;users:elipses:e</title>
<path fill="none" stroke="black" d="M775.919,-721.154C566.688,-725.733 456.232,-826.015 300,-679.995 256.811,-639.628 319.117,-416.995 260,-416.995"/>
<polygon fill="black" stroke="black" points="782.5,-721.082 790.539,-724.594 786.5,-721.038 790.5,-720.995 790.5,-720.995 790.5,-720.995 786.5,-721.038 790.461,-717.395 782.5,-721.082 782.5,-721.082"/>
<ellipse fill="none" stroke="black" cx="779.301" cy="-721.117" rx="3.2" ry="3.2"/>
</g>
<!-- sub_locations&#45;&gt;users -->
<g id="edge29" class="edge"><title>sub_locations:elipses:w&#45;&gt;users:elipses:e</title>
<path fill="none" stroke="black" d="M775.909,-721.149C566.526,-725.58 455.918,-822.572 300,-675.995 257.568,-636.105 318.238,-416.995 260,-416.995"/>
<polygon fill="black" stroke="black" points="782.5,-721.079 790.538,-724.594 786.5,-721.037 790.5,-720.995 790.5,-720.995 790.5,-720.995 786.5,-721.037 790.462,-717.395 782.5,-721.079 782.5,-721.079"/>
<ellipse fill="none" stroke="black" cx="779.301" cy="-721.113" rx="3.2" ry="3.2"/>
</g>
<!-- sub_locations&#45;&gt;facilities -->
<g id="edge28" class="edge"><title>sub_locations:elipses:w&#45;&gt;facilities:id:e</title>
<path fill="none" stroke="black" d="M776.219,-719.035C710.456,-698.471 809.661,-522.995 722,-522.995"/>
<polygon fill="black" stroke="black" points="782.574,-719.907 790.011,-724.561 786.537,-720.451 790.5,-720.995 790.5,-720.995 790.5,-720.995 786.537,-720.451 790.989,-717.428 782.574,-719.907 782.574,-719.907"/>
<ellipse fill="none" stroke="black" cx="779.404" cy="-719.472" rx="3.2" ry="3.2"/>
</g>
<!-- uploads -->
<g id="node13" class="node"><title>uploads</title>
<g id="a_node13"><a xlink:href="../../tables/uploads.html" xlink:title="uploads" target="_top">
<polygon fill="#ffffff" stroke="none" points="806.5,-199.995 806.5,-257.995 900.5,-257.995 900.5,-199.995 806.5,-199.995"/>
<polygon fill="#f5f5f5" stroke="none" points="806.5,-235.995 806.5,-257.995 900.5,-257.995 900.5,-235.995 806.5,-235.995"/>
<polygon fill="none" stroke="black" points="806.5,-235.995 806.5,-257.995 900.5,-257.995 900.5,-235.995 806.5,-235.995"/>
<text text-anchor="start" x="811.5" y="-245.195" font-family="Helvetica,sans-Serif" font-weight="bold" font-size="11.00">uploads</text>
<text text-anchor="start" x="861.5" y="-244.195" font-family="Helvetica,sans-Serif" font-size="11.00">[table]</text>
<polygon fill="none" stroke="black" points="806.5,-217.995 806.5,-235.995 900.5,-235.995 900.5,-217.995 806.5,-217.995"/>
<text text-anchor="start" x="809.5" y="-224.195" font-family="Helvetica,sans-Serif" font-size="11.00">...</text>
<polygon fill="#ffffff" stroke="none" points="806.5,-199.995 806.5,-217.995 832.5,-217.995 832.5,-199.995 806.5,-199.995"/>
<polygon fill="none" stroke="black" points="806.5,-199.995 806.5,-217.995 832.5,-217.995 832.5,-199.995 806.5,-199.995"/>
<text text-anchor="start" x="809.5" y="-206.195" font-family="Helvetica,sans-Serif" font-size="11.00">&lt; 5</text>
<polygon fill="#ffffff" stroke="none" points="832.5,-199.995 832.5,-217.995 875.5,-217.995 875.5,-199.995 832.5,-199.995"/>
<polygon fill="none" stroke="black" points="832.5,-199.995 832.5,-217.995 875.5,-217.995 875.5,-199.995 832.5,-199.995"/>
<text text-anchor="start" x="836.5" y="-206.195" font-family="Helvetica,sans-Serif" font-size="11.00">0 rows</text>
<polygon fill="#ffffff" stroke="none" points="875.5,-199.995 875.5,-217.995 900.5,-217.995 900.5,-199.995 875.5,-199.995"/>
<polygon fill="none" stroke="black" points="875.5,-199.995 875.5,-217.995 900.5,-217.995 900.5,-199.995 875.5,-199.995"/>
<text text-anchor="start" x="880.5" y="-206.195" font-family="Helvetica,sans-Serif" font-size="11.00">1 &gt;</text>
</a>
</g>
</g>
<!-- uploads&#45;&gt;users -->
<g id="edge30" class="edge"><title>uploads:elipses:w&#45;&gt;users:elipses:e</title>
<path fill="none" stroke="black" d="M790.95,-227.403C707.126,-230.482 319.879,-250.369 300,-266.995 247.074,-311.258 328.996,-416.995 260,-416.995"/>
<polygon fill="black" stroke="black" points="797.503,-227.219 805.601,-230.593 801.502,-227.107 805.5,-226.995 805.5,-226.995 805.5,-226.995 801.502,-227.107 805.399,-223.396 797.503,-227.219 797.503,-227.219"/>
<ellipse fill="none" stroke="black" cx="794.304" cy="-227.309" rx="3.2" ry="3.2"/>
</g>
<!-- uploads&#45;&gt;facilities -->
<g id="edge31" class="edge"><title>uploads:elipses:w&#45;&gt;facilities:id:e</title>
<path fill="none" stroke="black" d="M791.096,-229.352C766.322,-239.011 773.835,-276.684 762,-310.995 746.367,-356.316 769.942,-522.995 722,-522.995"/>
<polygon fill="black" stroke="black" points="797.605,-228.287 806.081,-230.547 801.553,-227.641 805.5,-226.995 805.5,-226.995 805.5,-226.995 801.553,-227.641 804.919,-223.442 797.605,-228.287 797.605,-228.287"/>
<ellipse fill="none" stroke="black" cx="794.447" cy="-228.803" rx="3.2" ry="3.2"/>
</g>
<!-- uploads&#45;&gt;organizations -->
<g id="edge32" class="edge"><title>uploads:elipses:w&#45;&gt;organizations:elipses:e</title>
<path fill="none" stroke="black" d="M790.826,-226.529C767.951,-224.971 757.653,-219.876 729,-216.995 615.955,-205.626 587.615,-198.995 474,-198.995"/>
<polygon fill="black" stroke="black" points="797.504,-226.741 805.386,-230.593 801.502,-226.868 805.5,-226.995 805.5,-226.995 805.5,-226.995 801.502,-226.868 805.614,-223.396 797.504,-226.741 797.504,-226.741"/>
<ellipse fill="none" stroke="black" cx="794.306" cy="-226.639" rx="3.2" ry="3.2"/>
</g>
<!-- seedbank.accessions -->
<g id="node14" class="node"><title>seedbank.accessions</title>
<g id="a_node14"><a xlink:href="../../../seedbank/tables/accessions.html" xlink:title="seedbank.accessions" target="_top">
<polygon fill="#ffffff" stroke="none" points="986,-636.995 986,-694.995 1152,-694.995 1152,-636.995 986,-636.995"/>
<polygon fill="#f5f5f5" stroke="none" points="986,-672.995 986,-694.995 1152,-694.995 1152,-672.995 986,-672.995"/>
<polygon fill="none" stroke="black" points="986,-672.995 986,-694.995 1152,-694.995 1152,-672.995 986,-672.995"/>
<text text-anchor="start" x="991" y="-682.195" font-family="Helvetica,sans-Serif" font-weight="bold" font-size="11.00">seedbank.accessions</text>
<text text-anchor="start" x="1113" y="-681.195" font-family="Helvetica,sans-Serif" font-size="11.00">[table]</text>
<polygon fill="none" stroke="black" points="986,-654.995 986,-672.995 1152,-672.995 1152,-654.995 986,-654.995"/>
<text text-anchor="start" x="989" y="-661.195" font-family="Helvetica,sans-Serif" font-size="11.00">...</text>
<polygon fill="#ffffff" stroke="none" points="986,-636.995 986,-654.995 1053,-654.995 1053,-636.995 986,-636.995"/>
<polygon fill="none" stroke="black" points="986,-636.995 986,-654.995 1053,-654.995 1053,-636.995 986,-636.995"/>
<text text-anchor="start" x="989" y="-643.195" font-family="Helvetica,sans-Serif" font-size="11.00">&lt; 7</text>
<polygon fill="#ffffff" stroke="none" points="1053,-636.995 1053,-654.995 1117,-654.995 1117,-636.995 1053,-636.995"/>
<polygon fill="none" stroke="black" points="1053,-636.995 1053,-654.995 1117,-654.995 1117,-636.995 1053,-636.995"/>
<text text-anchor="start" x="1078" y="-643.195" font-family="Helvetica,sans-Serif" font-size="11.00">0 rows</text>
<polygon fill="#ffffff" stroke="none" points="1117,-636.995 1117,-654.995 1152,-654.995 1152,-636.995 1117,-636.995"/>
<polygon fill="none" stroke="black" points="1117,-636.995 1117,-654.995 1152,-654.995 1152,-636.995 1117,-636.995"/>
<text text-anchor="start" x="1142" y="-643.195" font-family="Helvetica,sans-Serif" font-size="11.00"> &#160;</text>
</a>
</g>
</g>
<!-- seedbank.accessions&#45;&gt;users -->
<g id="edge34" class="edge"><title>seedbank.accessions:elipses:w&#45;&gt;users:elipses:e</title>
<path fill="none" stroke="black" d="M970.436,-664.149C807.473,-667.392 411.218,-719.475 300,-621.995 230.19,-560.808 352.829,-416.995 260,-416.995"/>
<polygon fill="black" stroke="black" points="977,-664.08 985.038,-667.594 981,-664.037 985,-663.995 985,-663.995 985,-663.995 981,-664.037 984.962,-660.395 977,-664.08 977,-664.08"/>
<ellipse fill="none" stroke="black" cx="973.801" cy="-664.114" rx="3.2" ry="3.2"/>
</g>
<!-- seedbank.accessions&#45;&gt;users -->
<g id="edge36" class="edge"><title>seedbank.accessions:elipses:w&#45;&gt;users:elipses:e</title>
<path fill="none" stroke="black" d="M970.43,-664.139C807.416,-667.163 411.158,-715.627 300,-617.995 231.564,-557.886 351.085,-416.995 260,-416.995"/>
<polygon fill="black" stroke="black" points="977,-664.074 985.036,-667.594 981,-664.034 985,-663.995 985,-663.995 985,-663.995 981,-664.034 984.964,-660.395 977,-664.074 977,-664.074"/>
<ellipse fill="none" stroke="black" cx="973.801" cy="-664.106" rx="3.2" ry="3.2"/>
</g>
<!-- seedbank.accessions&#45;&gt;facilities -->
<g id="edge35" class="edge"><title>seedbank.accessions:elipses:w&#45;&gt;facilities:id:e</title>
<path fill="none" stroke="black" d="M970.599,-662.187C918.102,-646.562 1003.57,-533.806 945,-486.995 881.465,-436.216 837.934,-457.856 762,-486.995 739.67,-495.563 745.918,-522.995 722,-522.995"/>
<polygon fill="black" stroke="black" points="977.062,-662.998 984.552,-667.567 981.031,-663.496 985,-663.995 985,-663.995 985,-663.995 981.031,-663.496 985.448,-660.423 977.062,-662.998 977.062,-662.998"/>
<ellipse fill="none" stroke="black" cx="973.887" cy="-662.599" rx="3.2" ry="3.2"/>
</g>
<!-- seedbank.accessions&#45;&gt;sub_locations -->
<g id="edge37" class="edge"><title>seedbank.accessions:elipses:w&#45;&gt;sub_locations:elipses:e</title>
<path fill="none" stroke="black" d="M970.823,-667.222C947.873,-679.28 951.09,-720.995 917.5,-720.995"/>
<polygon fill="black" stroke="black" points="977.2,-665.771 985.799,-667.505 981.1,-664.883 985,-663.995 985,-663.995 985,-663.995 981.1,-664.883 984.201,-660.484 977.2,-665.771 977.2,-665.771"/>
<ellipse fill="none" stroke="black" cx="974.079" cy="-666.481" rx="3.2" ry="3.2"/>
</g>
</g>
</svg>
