<?xml version="1.0" encoding="UTF-8" standalone="no"?>
<!DOCTYPE svg PUBLIC "-//W3C//DTD SVG 1.1//EN"
 "http://www.w3.org/Graphics/SVG/1.1/DTD/svg11.dtd">
<!-- Generated by graphviz version 2.47.1 (20210515.0534)
 -->
<!-- Title: twoDegreesRelationshipsDiagram Pages: 1 -->
<svg width="538pt" height="305pt"
 viewBox="0.00 0.00 538.00 305.00" xmlns="http://www.w3.org/2000/svg" xmlns:xlink="http://www.w3.org/1999/xlink">
<g id="graph0" class="graph" transform="scale(1 1) rotate(0) translate(4 301)">
<title>twoDegreesRelationshipsDiagram</title>
<polygon fill="#ffffff" stroke="transparent" points="-4,4 -4,-301 534,-301 534,4 -4,4"/>
<text text-anchor="middle" x="73.5" y="-7.2" font-family="Helvetica,sans-Serif" font-size="11.00">Generated by SchemaSpy</text>
<!-- file_batches -->
<g id="node1" class="node">
<title>file_batches</title>
<g id="a_node1"><a xlink:href="../../tables/file_batches.html" xlink:title="file_batches" target="_top">
<polygon fill="#ffffff" stroke="transparent" points="289,-94 289,-240 404,-240 404,-94 289,-94"/>
<polygon fill="#f5f5f5" stroke="transparent" points="289.5,-218 289.5,-240 404.5,-240 404.5,-218 289.5,-218"/>
<polygon fill="none" stroke="black" points="289.5,-218 289.5,-240 404.5,-240 404.5,-218 289.5,-218"/>
<text text-anchor="start" x="294.5" y="-227.2" font-family="Helvetica,sans-Serif" font-weight="bold" font-size="11.00">file_batches</text>
<text text-anchor="start" x="365.5" y="-226.2" font-family="Helvetica,sans-Serif" font-size="11.00">[table]</text>
<polygon fill="none" stroke="black" points="289.5,-196 289.5,-218 404.5,-218 404.5,-196 289.5,-196"/>
<image xlink:href="../../images/primaryKeys.png" width="11px" height="12px" preserveAspectRatio="xMinYMin meet" x="294.5" y="-213"/>
<text text-anchor="start" x="310.5" y="-204.2" font-family="Helvetica,sans-Serif" font-size="11.00">id</text>
<polygon fill="none" stroke="black" points="289.5,-174 289.5,-196 404.5,-196 404.5,-174 289.5,-174"/>
<image xlink:href="../../images/foreignKeys.png" width="11px" height="12px" preserveAspectRatio="xMinYMin meet" x="294.5" y="-191"/>
<text text-anchor="start" x="310.5" y="-182.2" font-family="Helvetica,sans-Serif" font-size="11.00">batch_status_id</text>
<polygon fill="none" stroke="black" points="289.5,-152 289.5,-174 404.5,-174 404.5,-152 289.5,-152"/>
<image xlink:href="../../images/foreignKeys.png" width="11px" height="12px" preserveAspectRatio="xMinYMin meet" x="294.5" y="-169"/>
<text text-anchor="start" x="310.5" y="-160.2" font-family="Helvetica,sans-Serif" font-size="11.00">batch_type_id</text>
<polygon fill="none" stroke="black" points="289.5,-130 289.5,-152 404.5,-152 404.5,-130 289.5,-130"/>
<image xlink:href="../../images/foreignKeys.png" width="11px" height="12px" preserveAspectRatio="xMinYMin meet" x="294.5" y="-147"/>
<text text-anchor="start" x="310.5" y="-138.2" font-family="Helvetica,sans-Serif" font-size="11.00">created_by</text>
<polygon fill="none" stroke="black" points="289.5,-112 289.5,-130 404.5,-130 404.5,-112 289.5,-112"/>
<text text-anchor="start" x="292.5" y="-118.2" font-family="Helvetica,sans-Serif" font-size="11.00">...</text>
<polygon fill="#ffffff" stroke="transparent" points="289.5,-94 289.5,-112 340.5,-112 340.5,-94 289.5,-94"/>
<polygon fill="none" stroke="black" points="289.5,-94 289.5,-112 340.5,-112 340.5,-94 289.5,-94"/>
<text text-anchor="start" x="292.5" y="-100.2" font-family="Helvetica,sans-Serif" font-size="11.00">&lt; 3</text>
<polygon fill="#ffffff" stroke="transparent" points="340.5,-94 340.5,-112 367.5,-112 367.5,-94 340.5,-94"/>
<polygon fill="none" stroke="black" points="340.5,-94 340.5,-112 367.5,-112 367.5,-94 340.5,-94"/>
<text text-anchor="start" x="357.5" y="-100.2" font-family="Helvetica,sans-Serif" font-size="11.00"> &#160;</text>
<polygon fill="#ffffff" stroke="transparent" points="367.5,-94 367.5,-112 404.5,-112 404.5,-94 367.5,-94"/>
<polygon fill="none" stroke="black" points="367.5,-94 367.5,-112 404.5,-112 404.5,-94 367.5,-94"/>
<text text-anchor="start" x="385.5" y="-100.2" font-family="Helvetica,sans-Serif" font-size="11.00">1 &gt;</text>
</a>
</g>
</g>
<!-- file_batch_statuses -->
<g id="node2" class="node">
<title>file_batch_statuses</title>
<g id="a_node2"><a xlink:href="../../tables/file_batch_statuses.html" xlink:title="file_batch_statuses" target="_top">
<polygon fill="#ffffff" stroke="transparent" points="8,-205 8,-293 240,-293 240,-205 8,-205"/>
<polygon fill="#f5f5f5" stroke="transparent" points="10,-269 10,-291 238,-291 238,-269 10,-269"/>
<polygon fill="none" stroke="black" points="10,-269 10,-291 238,-291 238,-269 10,-269"/>
<text text-anchor="start" x="15" y="-278.2" font-family="Helvetica,sans-Serif" font-weight="bold" font-size="11.00">file_batch_statuses</text>
<text text-anchor="start" x="199" y="-277.2" font-family="Helvetica,sans-Serif" font-size="11.00">[table]</text>
<polygon fill="none" stroke="black" points="10,-247 10,-269 144,-269 144,-247 10,-247"/>
<image xlink:href="../../images/primaryKeys.png" width="11px" height="12px" preserveAspectRatio="xMinYMin meet" x="15" y="-264"/>
<text text-anchor="start" x="30" y="-255.2" font-family="Helvetica,sans-Serif" font-size="11.00">id</text>
<polygon fill="none" stroke="black" points="144,-247 144,-269 238,-269 238,-247 144,-247"/>
<text text-anchor="start" x="147" y="-255.2" font-family="Helvetica,sans-Serif" font-size="11.00">int4[10]</text>
<polygon fill="none" stroke="black" points="10,-225 10,-247 144,-247 144,-225 10,-225"/>
<text text-anchor="start" x="30" y="-233.2" font-family="Helvetica,sans-Serif" font-size="11.00">name</text>
<polygon fill="none" stroke="black" points="144,-225 144,-247 238,-247 238,-225 144,-225"/>
<text text-anchor="start" x="147" y="-233.2" font-family="Helvetica,sans-Serif" font-size="11.00">text[2147483647]</text>
<polygon fill="#ffffff" stroke="transparent" points="10,-207 10,-225 81,-225 81,-207 10,-207"/>
<polygon fill="none" stroke="black" points="10,-207 10,-225 81,-225 81,-207 10,-207"/>
<text text-anchor="start" x="13" y="-213.2" font-family="Helvetica,sans-Serif" font-size="11.00">&lt; 0</text>
<polygon fill="#ffffff" stroke="transparent" points="81,-207 81,-225 144,-225 144,-207 81,-207"/>
<polygon fill="none" stroke="black" points="81,-207 81,-225 144,-225 144,-207 81,-207"/>
<text text-anchor="start" x="134" y="-213.2" font-family="Helvetica,sans-Serif" font-size="11.00"> &#160;</text>
<polygon fill="#ffffff" stroke="transparent" points="144,-207 144,-225 238,-225 238,-207 144,-207"/>
<polygon fill="none" stroke="black" points="144,-207 144,-225 238,-225 238,-207 144,-207"/>
<text text-anchor="start" x="219" y="-213.2" font-family="Helvetica,sans-Serif" font-size="11.00">1 &gt;</text>
<polygon fill="none" stroke="black" stroke-width="2" points="9,-206 9,-292 239,-292 239,-206 9,-206"/>
</a>
</g>
</g>
<!-- file_batches&#45;&gt;file_batch_statuses -->
<g id="edge1" class="edge">
<title>file_batches:w&#45;&gt;file_batch_statuses:e</title>
<path fill="none" stroke="black" d="M274.59,-189.79C256.67,-206.03 272.08,-258 239,-258"/>
<polygon fill="black" stroke="black" points="280.94,-187.61 289.67,-188.4 284.72,-186.3 288.5,-185 288.5,-185 288.5,-185 284.72,-186.3 287.33,-181.6 280.94,-187.61 280.94,-187.61"/>
<ellipse fill="none" stroke="black" cx="277.91" cy="-188.65" rx="3.2" ry="3.2"/>
</g>
<!-- file_batch_types -->
<g id="node3" class="node">
<title>file_batch_types</title>
<g id="a_node3"><a xlink:href="../../tables/file_batch_types.html" xlink:title="file_batch_types" target="_top">
<polygon fill="#ffffff" stroke="transparent" points="54.5,-126 54.5,-184 193.5,-184 193.5,-126 54.5,-126"/>
<polygon fill="#f5f5f5" stroke="transparent" points="55,-162 55,-184 194,-184 194,-162 55,-162"/>
<polygon fill="none" stroke="black" points="55,-162 55,-184 194,-184 194,-162 55,-162"/>
<text text-anchor="start" x="60" y="-171.2" font-family="Helvetica,sans-Serif" font-weight="bold" font-size="11.00">file_batch_types</text>
<text text-anchor="start" x="155" y="-170.2" font-family="Helvetica,sans-Serif" font-size="11.00">[table]</text>
<polygon fill="none" stroke="black" points="55,-144 55,-162 194,-162 194,-144 55,-144"/>
<text text-anchor="start" x="58" y="-150.2" font-family="Helvetica,sans-Serif" font-size="11.00">...</text>
<polygon fill="#ffffff" stroke="transparent" points="55,-126 55,-144 113,-144 113,-126 55,-126"/>
<polygon fill="none" stroke="black" points="55,-126 55,-144 113,-144 113,-126 55,-126"/>
<text text-anchor="start" x="58" y="-132.2" font-family="Helvetica,sans-Serif" font-size="11.00"> &#160;</text>
<polygon fill="#ffffff" stroke="transparent" points="113,-126 113,-144 149,-144 149,-126 113,-126"/>
<polygon fill="none" stroke="black" points="113,-126 113,-144 149,-144 149,-126 113,-126"/>
<text text-anchor="start" x="139" y="-132.2" font-family="Helvetica,sans-Serif" font-size="11.00"> &#160;</text>
<polygon fill="#ffffff" stroke="transparent" points="149,-126 149,-144 194,-144 194,-126 149,-126"/>
<polygon fill="none" stroke="black" points="149,-126 149,-144 194,-144 194,-126 149,-126"/>
<text text-anchor="start" x="175" y="-132.2" font-family="Helvetica,sans-Serif" font-size="11.00">1 &gt;</text>
</a>
</g>
</g>
<!-- file_batches&#45;&gt;file_batch_types -->
<g id="edge2" class="edge">
<title>file_batches:w&#45;&gt;file_batch_types:e</title>
<path fill="none" stroke="black" d="M273.79,-162.54C243.62,-160.59 231.41,-153 195,-153"/>
<polygon fill="black" stroke="black" points="280.5,-162.75 288.39,-166.6 284.5,-162.88 288.5,-163 288.5,-163 288.5,-163 284.5,-162.88 288.61,-159.4 280.5,-162.75 280.5,-162.75"/>
<ellipse fill="none" stroke="black" cx="277.31" cy="-162.65" rx="3.2" ry="3.2"/>
</g>
<!-- users -->
<g id="node4" class="node">
<title>users</title>
<g id="a_node4"><a xlink:href="../../tables/users.html" xlink:title="users" target="_top">
<polygon fill="#ffffff" stroke="transparent" points="86,-37 86,-95 162,-95 162,-37 86,-37"/>
<polygon fill="#f5f5f5" stroke="transparent" points="86,-73 86,-95 162,-95 162,-73 86,-73"/>
<polygon fill="none" stroke="black" points="86,-73 86,-95 162,-95 162,-73 86,-73"/>
<text text-anchor="start" x="89.5" y="-82.2" font-family="Helvetica,sans-Serif" font-weight="bold" font-size="11.00">users</text>
<text text-anchor="start" x="123" y="-81.2" font-family="Helvetica,sans-Serif" font-size="11.00">[table]</text>
<polygon fill="none" stroke="black" points="86,-55 86,-73 162,-73 162,-55 86,-55"/>
<text text-anchor="start" x="89" y="-61.2" font-family="Helvetica,sans-Serif" font-size="11.00">...</text>
<polygon fill="#ffffff" stroke="transparent" points="86,-37 86,-55 111,-55 111,-37 86,-37"/>
<polygon fill="none" stroke="black" points="86,-37 86,-55 111,-55 111,-37 86,-37"/>
<text text-anchor="start" x="89" y="-43.2" font-family="Helvetica,sans-Serif" font-size="11.00">&lt; 3</text>
<polygon fill="#ffffff" stroke="transparent" points="111,-37 111,-55 126,-55 126,-37 111,-37"/>
<polygon fill="none" stroke="black" points="111,-37 111,-55 126,-55 126,-37 111,-37"/>
<text text-anchor="start" x="116" y="-43.2" font-family="Helvetica,sans-Serif" font-size="11.00"> &#160;</text>
<polygon fill="#ffffff" stroke="transparent" points="126,-37 126,-55 162,-55 162,-37 126,-37"/>
<polygon fill="none" stroke="black" points="126,-37 126,-55 162,-55 162,-37 126,-37"/>
<text text-anchor="start" x="131" y="-43.2" font-family="Helvetica,sans-Serif" font-size="11.00">143 &gt;</text>
</a>
</g>
</g>
<!-- file_batches&#45;&gt;users -->
<g id="edge3" class="edge">
<title>file_batches:w&#45;&gt;users:e</title>
<path fill="none" stroke="black" d="M274.24,-137.91C265.19,-133.19 260.81,-123.87 248,-116 210.27,-92.81 207.29,-64 163,-64"/>
<polygon fill="black" stroke="black" points="280.68,-139.31 287.74,-144.52 284.59,-140.15 288.5,-141 288.5,-141 288.5,-141 284.59,-140.15 289.26,-137.48 280.68,-139.31 280.68,-139.31"/>
<ellipse fill="none" stroke="black" cx="277.55" cy="-138.63" rx="3.2" ry="3.2"/>
</g>
<!-- files -->
<g id="node5" class="node">
<title>files</title>
<g id="a_node5"><a xlink:href="../../tables/files.html" xlink:title="files" target="_top">
<polygon fill="#ffffff" stroke="transparent" points="453,-37 453,-95 522,-95 522,-37 453,-37"/>
<polygon fill="#f5f5f5" stroke="transparent" points="453.5,-73 453.5,-95 522.5,-95 522.5,-73 453.5,-73"/>
<polygon fill="none" stroke="black" points="453.5,-73 453.5,-95 522.5,-95 522.5,-73 453.5,-73"/>
<text text-anchor="start" x="457.5" y="-82.2" font-family="Helvetica,sans-Serif" font-weight="bold" font-size="11.00">files</text>
<text text-anchor="start" x="483.5" y="-81.2" font-family="Helvetica,sans-Serif" font-size="11.00">[table]</text>
<polygon fill="none" stroke="black" points="453.5,-55 453.5,-73 522.5,-73 522.5,-55 453.5,-55"/>
<text text-anchor="start" x="456.5" y="-61.2" font-family="Helvetica,sans-Serif" font-size="11.00">...</text>
<polygon fill="#ffffff" stroke="transparent" points="453.5,-37 453.5,-55 478.5,-55 478.5,-37 453.5,-37"/>
<polygon fill="none" stroke="black" points="453.5,-37 453.5,-55 478.5,-55 478.5,-37 453.5,-37"/>
<text text-anchor="start" x="456.5" y="-43.2" font-family="Helvetica,sans-Serif" font-size="11.00">&lt; 3</text>
<polygon fill="#ffffff" stroke="transparent" points="478.5,-37 478.5,-55 492.5,-55 492.5,-37 478.5,-37"/>
<polygon fill="none" stroke="black" points="478.5,-37 478.5,-55 492.5,-55 492.5,-37 478.5,-37"/>
<text text-anchor="start" x="482.5" y="-43.2" font-family="Helvetica,sans-Serif" font-size="11.00"> &#160;</text>
<polygon fill="#ffffff" stroke="transparent" points="492.5,-37 492.5,-55 522.5,-55 522.5,-37 492.5,-37"/>
<polygon fill="none" stroke="black" points="492.5,-37 492.5,-55 522.5,-55 522.5,-37 492.5,-37"/>
<text text-anchor="start" x="497.5" y="-43.2" font-family="Helvetica,sans-Serif" font-size="11.00">21 &gt;</text>
</a>
</g>
</g>
<!-- files&#45;&gt;file_batches -->
<g id="edge5" class="edge">
<title>files:w&#45;&gt;file_batches:e</title>
<path fill="none" stroke="black" d="M437.97,-67.26C399.96,-88.54 466.39,-207 405.5,-207"/>
<polygon fill="black" stroke="black" points="444.69,-65.75 453.29,-67.51 448.6,-64.87 452.5,-64 452.5,-64 452.5,-64 448.6,-64.87 451.71,-60.49 444.69,-65.75 444.69,-65.75"/>
<ellipse fill="none" stroke="black" cx="441.57" cy="-66.45" rx="3.2" ry="3.2"/>
</g>
<!-- files&#45;&gt;users -->
<g id="edge4" class="edge">
<title>files:w&#45;&gt;users:e</title>
<path fill="none" stroke="black" d="M437.85,-64C321.17,-64 286.64,-64 163,-64"/>
<polygon fill="black" stroke="black" points="444.5,-64 452.5,-67.6 448.5,-64 452.5,-64 452.5,-64 452.5,-64 448.5,-64 452.5,-60.4 444.5,-64 444.5,-64"/>
<ellipse fill="none" stroke="black" cx="441.3" cy="-64" rx="3.2" ry="3.2"/>
</g>
<!-- files&#45;&gt;users -->
<g id="edge6" class="edge">
<title>files:w&#45;&gt;users:e</title>
<path fill="none" stroke="black" d="M437.85,-64C321.17,-64 286.64,-64 163,-64"/>
<polygon fill="black" stroke="black" points="444.5,-64 452.5,-67.6 448.5,-64 452.5,-64 452.5,-64 452.5,-64 448.5,-64 452.5,-60.4 444.5,-64 444.5,-64"/>
<ellipse fill="none" stroke="black" cx="441.3" cy="-64" rx="3.2" ry="3.2"/>
</g>
</g>
</svg>
