<?xml version="1.0" encoding="UTF-8" standalone="no"?>
<!DOCTYPE svg PUBLIC "-//W3C//DTD SVG 1.1//EN"
 "http://www.w3.org/Graphics/SVG/1.1/DTD/svg11.dtd">
<!-- Generated by graphviz version 2.38.0 (20140413.2041)
 -->
<!-- Title: twoDegreesRelationshipsDiagram Pages: 1 -->
<svg width="454pt" height="216pt"
 viewBox="0.00 0.00 454.00 216.00" xmlns="http://www.w3.org/2000/svg" xmlns:xlink="http://www.w3.org/1999/xlink">
<g id="graph0" class="graph" transform="scale(1 1) rotate(0) translate(4 212)">
<title>twoDegreesRelationshipsDiagram</title>
<polygon fill="#ffffff" stroke="none" points="-4,4 -4,-212 450,-212 450,4 -4,4"/>
<text text-anchor="middle" x="74.5" y="-7.2" font-family="Helvetica,sans-Serif" font-size="11.00">Generated by SchemaSpy</text>
<!-- species_growth_forms -->
<g id="node1" class="node"><title>species_growth_forms</title>
<g id="a_node1"><a xlink:href="../../tables/species_growth_forms.html" xlink:title="species_growth_forms" target="_top">
<polygon fill="#ffffff" stroke="none" points="266,-91 266,-175 438,-175 438,-91 266,-91"/>
<polygon fill="#f5f5f5" stroke="none" points="266,-153 266,-175 438,-175 438,-153 266,-153"/>
<polygon fill="none" stroke="black" points="266,-153 266,-175 438,-175 438,-153 266,-153"/>
<text text-anchor="start" x="271" y="-162.2" font-family="Helvetica,sans-Serif" font-weight="bold" font-size="11.00">species_growth_forms</text>
<text text-anchor="start" x="399" y="-161.2" font-family="Helvetica,sans-Serif" font-size="11.00">[table]</text>
<polygon fill="none" stroke="black" points="266,-131 266,-153 438,-153 438,-131 266,-131"/>
<image xlink:href="../../images/primaryKeys.png" width="11px" height="12px" preserveAspectRatio="xMinYMin meet" x="271" y="-148"/>
<text text-anchor="start" x="296" y="-139.2" font-family="Helvetica,sans-Serif" font-size="11.00">species_id</text>
<polygon fill="none" stroke="black" points="266,-109 266,-131 438,-131 438,-109 266,-109"/>
<image xlink:href="../../images/primaryKeys.png" width="11px" height="12px" preserveAspectRatio="xMinYMin meet" x="271" y="-126"/>
<text text-anchor="start" x="296" y="-117.2" font-family="Helvetica,sans-Serif" font-size="11.00">growth_form_id</text>
<polygon fill="#ffffff" stroke="none" points="266,-91 266,-109 336,-109 336,-91 266,-91"/>
<polygon fill="none" stroke="black" points="266,-91 266,-109 336,-109 336,-91 266,-91"/>
<text text-anchor="start" x="269" y="-97.2" font-family="Helvetica,sans-Serif" font-size="11.00">&lt; 2</text>
<polygon fill="#ffffff" stroke="none" points="336,-91 336,-109 401,-109 401,-91 336,-91"/>
<polygon fill="none" stroke="black" points="336,-91 336,-109 401,-109 401,-91 336,-91"/>
<text text-anchor="start" x="362" y="-97.2" font-family="Helvetica,sans-Serif" font-size="11.00">0 rows</text>
<polygon fill="#ffffff" stroke="none" points="401,-91 401,-109 438,-109 438,-91 401,-91"/>
<polygon fill="none" stroke="black" points="401,-91 401,-109 438,-109 438,-91 401,-91"/>
<text text-anchor="start" x="428" y="-97.2" font-family="Helvetica,sans-Serif" font-size="11.00"> &#160;</text>
</a>
</g>
</g>
<!-- growth_forms -->
<g id="node2" class="node"><title>growth_forms</title>
<g id="a_node2"><a xlink:href="../../tables/growth_forms.html" xlink:title="growth_forms" target="_top">
<polygon fill="#ffffff" stroke="none" points="8,-37 8,-125 217,-125 217,-37 8,-37"/>
<polygon fill="#f5f5f5" stroke="none" points="10.5,-101 10.5,-123 215.5,-123 215.5,-101 10.5,-101"/>
<polygon fill="none" stroke="black" points="10.5,-101 10.5,-123 215.5,-123 215.5,-101 10.5,-101"/>
<text text-anchor="start" x="15.5" y="-110.2" font-family="Helvetica,sans-Serif" font-weight="bold" font-size="11.00">growth_forms</text>
<text text-anchor="start" x="176.5" y="-109.2" font-family="Helvetica,sans-Serif" font-size="11.00">[table]</text>
<polygon fill="none" stroke="black" points="10.5,-79 10.5,-101 114.5,-101 114.5,-79 10.5,-79"/>
<image xlink:href="../../images/primaryKeys.png" width="11px" height="12px" preserveAspectRatio="xMinYMin meet" x="15.5" y="-96"/>
<text text-anchor="start" x="30.5" y="-87.2" font-family="Helvetica,sans-Serif" font-size="11.00">id</text>
<polygon fill="none" stroke="black" points="114.5,-79 114.5,-101 215.5,-101 215.5,-79 114.5,-79"/>
<text text-anchor="start" x="117.5" y="-87.2" font-family="Helvetica,sans-Serif" font-size="11.00">int4[10]</text>
<polygon fill="none" stroke="black" points="10.5,-57 10.5,-79 114.5,-79 114.5,-57 10.5,-57"/>
<text text-anchor="start" x="30.5" y="-65.2" font-family="Helvetica,sans-Serif" font-size="11.00">name</text>
<polygon fill="none" stroke="black" points="114.5,-57 114.5,-79 215.5,-79 215.5,-57 114.5,-57"/>
<text text-anchor="start" x="117.5" y="-65.2" font-family="Helvetica,sans-Serif" font-size="11.00">text[2147483647]</text>
<polygon fill="#ffffff" stroke="none" points="10.5,-39 10.5,-57 49.5,-57 49.5,-39 10.5,-39"/>
<polygon fill="none" stroke="black" points="10.5,-39 10.5,-57 49.5,-57 49.5,-39 10.5,-39"/>
<text text-anchor="start" x="13.5" y="-45.2" font-family="Helvetica,sans-Serif" font-size="11.00">&lt; 0</text>
<polygon fill="#ffffff" stroke="none" points="49.5,-39 49.5,-57 114.5,-57 114.5,-39 49.5,-39"/>
<polygon fill="none" stroke="black" points="49.5,-39 49.5,-57 114.5,-57 114.5,-39 49.5,-39"/>
<text text-anchor="start" x="68.5" y="-45.2" font-family="Helvetica,sans-Serif" font-size="11.00">14 rows</text>
<polygon fill="#ffffff" stroke="none" points="114.5,-39 114.5,-57 215.5,-57 215.5,-39 114.5,-39"/>
<polygon fill="none" stroke="black" points="114.5,-39 114.5,-57 215.5,-57 215.5,-39 114.5,-39"/>
<text text-anchor="start" x="195.5" y="-45.2" font-family="Helvetica,sans-Serif" font-size="11.00">1 &gt;</text>
<polygon fill="none" stroke="black" stroke-width="2" points="9,-38 9,-124 216,-124 216,-38 9,-38"/>
</a>
</g>
</g>
<!-- species_growth_forms&#45;&gt;growth_forms -->
<g id="edge1" class="edge"><title>species_growth_forms:growth_form_id:w&#45;&gt;growth_forms:id.type:e</title>
<path fill="none" stroke="black" d="M251.008,-115.829C239.169,-107.585 235.906,-90 216.5,-90"/>
<polygon fill="black" stroke="black" points="257.333,-117.714 263.971,-123.45 261.167,-118.857 265,-120 265,-120 265,-120 261.167,-118.857 266.029,-116.55 257.333,-117.714 257.333,-117.714"/>
<ellipse fill="none" stroke="black" cx="254.267" cy="-116.8" rx="3.20001" ry="3.20001"/>
</g>
<!-- species -->
<g id="node3" class="node"><title>species</title>
<g id="a_node3"><a xlink:href="../../tables/species.html" xlink:title="species" target="_top">
<polygon fill="#ffffff" stroke="none" points="65,-146 65,-204 160,-204 160,-146 65,-146"/>
<polygon fill="#f5f5f5" stroke="none" points="65.5,-182 65.5,-204 160.5,-204 160.5,-182 65.5,-182"/>
<polygon fill="none" stroke="black" points="65.5,-182 65.5,-204 160.5,-204 160.5,-182 65.5,-182"/>
<text text-anchor="start" x="70.5" y="-191.2" font-family="Helvetica,sans-Serif" font-weight="bold" font-size="11.00">species</text>
<text text-anchor="start" x="121.5" y="-190.2" font-family="Helvetica,sans-Serif" font-size="11.00">[table]</text>
<polygon fill="none" stroke="black" points="65.5,-164 65.5,-182 160.5,-182 160.5,-164 65.5,-164"/>
<text text-anchor="start" x="68.5" y="-170.2" font-family="Helvetica,sans-Serif" font-size="11.00">...</text>
<polygon fill="#ffffff" stroke="none" points="65.5,-146 65.5,-164 88.5,-164 88.5,-146 65.5,-146"/>
<polygon fill="none" stroke="black" points="65.5,-146 65.5,-164 88.5,-164 88.5,-146 65.5,-146"/>
<text text-anchor="start" x="68.5" y="-152.2" font-family="Helvetica,sans-Serif" font-size="11.00">&lt; 7</text>
<polygon fill="#ffffff" stroke="none" points="88.5,-146 88.5,-164 130.5,-164 130.5,-146 88.5,-146"/>
<polygon fill="none" stroke="black" points="88.5,-146 88.5,-164 130.5,-164 130.5,-146 88.5,-146"/>
<text text-anchor="start" x="91.5" y="-152.2" font-family="Helvetica,sans-Serif" font-size="11.00">0 rows</text>
<polygon fill="#ffffff" stroke="none" points="130.5,-146 130.5,-164 160.5,-164 160.5,-146 130.5,-146"/>
<polygon fill="none" stroke="black" points="130.5,-146 130.5,-164 160.5,-164 160.5,-146 130.5,-146"/>
<text text-anchor="start" x="133.5" y="-152.2" font-family="Helvetica,sans-Serif" font-size="11.00">16 &gt;</text>
</a>
</g>
</g>
<!-- species_growth_forms&#45;&gt;species -->
<g id="edge2" class="edge"><title>species_growth_forms:species_id:w&#45;&gt;species:elipses:e</title>
<path fill="none" stroke="black" d="M250.593,-143.031C214.863,-148.41 204.267,-173 161.5,-173"/>
<polygon fill="black" stroke="black" points="257.02,-142.571 265.257,-145.591 261.01,-142.286 265,-142 265,-142 265,-142 261.01,-142.286 264.743,-138.409 257.02,-142.571 257.02,-142.571"/>
<ellipse fill="none" stroke="black" cx="253.829" cy="-142.8" rx="3.2" ry="3.2"/>
</g>
</g>
</svg>
