<?xml version="1.0" encoding="UTF-8" standalone="no"?>
<!DOCTYPE svg PUBLIC "-//W3C//DTD SVG 1.1//EN"
 "http://www.w3.org/Graphics/SVG/1.1/DTD/svg11.dtd">
<!-- Generated by graphviz version 2.47.1 (20210515.0534)
 -->
<!-- Title: twoDegreesRelationshipsDiagram Pages: 1 -->
<svg width="1159pt" height="1504pt"
 viewBox="0.00 0.00 1159.00 1503.81" xmlns="http://www.w3.org/2000/svg" xmlns:xlink="http://www.w3.org/1999/xlink">
<g id="graph0" class="graph" transform="scale(1 1) rotate(0) translate(4 1499.81)">
<title>twoDegreesRelationshipsDiagram</title>
<polygon fill="#ffffff" stroke="transparent" points="-4,4 -4,-1499.81 1155,-1499.81 1155,4 -4,4"/>
<text text-anchor="middle" x="73.5" y="-7.2" font-family="Helvetica,sans-Serif" font-size="11.00">Generated by SchemaSpy</text>
<!-- nursery.batches -->
<g id="node1" class="node">
<title>nursery.batches</title>
<g id="a_node1"><a xlink:href="../../../nursery/tables/batches.html" xlink:title="nursery.batches" target="_top">
<polygon fill="#ffffff" stroke="transparent" points="965,-742.13 965,-800.13 1106,-800.13 1106,-742.13 965,-742.13"/>
<polygon fill="#f5f5f5" stroke="transparent" points="965.5,-778.13 965.5,-800.13 1106.5,-800.13 1106.5,-778.13 965.5,-778.13"/>
<polygon fill="none" stroke="black" points="965.5,-778.13 965.5,-800.13 1106.5,-800.13 1106.5,-778.13 965.5,-778.13"/>
<text text-anchor="start" x="970.5" y="-787.33" font-family="Helvetica,sans-Serif" font-weight="bold" font-size="11.00">nursery.batches</text>
<text text-anchor="start" x="1067.5" y="-786.33" font-family="Helvetica,sans-Serif" font-size="11.00">[table]</text>
<polygon fill="none" stroke="black" points="965.5,-760.13 965.5,-778.13 1106.5,-778.13 1106.5,-760.13 965.5,-760.13"/>
<text text-anchor="start" x="968.5" y="-766.33" font-family="Helvetica,sans-Serif" font-size="11.00">...</text>
<polygon fill="#ffffff" stroke="transparent" points="965.5,-742.13 965.5,-760.13 1020.5,-760.13 1020.5,-742.13 965.5,-742.13"/>
<polygon fill="none" stroke="black" points="965.5,-742.13 965.5,-760.13 1020.5,-760.13 1020.5,-742.13 965.5,-742.13"/>
<text text-anchor="start" x="968.5" y="-748.33" font-family="Helvetica,sans-Serif" font-size="11.00">&lt; 7</text>
<polygon fill="#ffffff" stroke="transparent" points="1020.5,-742.13 1020.5,-760.13 1076.5,-760.13 1076.5,-742.13 1020.5,-742.13"/>
<polygon fill="none" stroke="black" points="1020.5,-742.13 1020.5,-760.13 1076.5,-760.13 1076.5,-742.13 1020.5,-742.13"/>
<text text-anchor="start" x="1039.5" y="-748.33" font-family="Helvetica,sans-Serif" font-size="11.00">0 rows</text>
<polygon fill="#ffffff" stroke="transparent" points="1076.5,-742.13 1076.5,-760.13 1106.5,-760.13 1106.5,-742.13 1076.5,-742.13"/>
<polygon fill="none" stroke="black" points="1076.5,-742.13 1076.5,-760.13 1106.5,-760.13 1106.5,-742.13 1076.5,-742.13"/>
<text text-anchor="start" x="1096.5" y="-748.33" font-family="Helvetica,sans-Serif" font-size="11.00"> &#160;</text>
</a>
</g>
</g>
<!-- users -->
<g id="node2" class="node">
<title>users</title>
<g id="a_node2"><a xlink:href="../../tables/users.html" xlink:title="users" target="_top">
<polygon fill="#ffffff" stroke="transparent" points="213.5,-851.13 213.5,-909.13 289.5,-909.13 289.5,-851.13 213.5,-851.13"/>
<polygon fill="#f5f5f5" stroke="transparent" points="213.5,-887.13 213.5,-909.13 289.5,-909.13 289.5,-887.13 213.5,-887.13"/>
<polygon fill="none" stroke="black" points="213.5,-887.13 213.5,-909.13 289.5,-909.13 289.5,-887.13 213.5,-887.13"/>
<text text-anchor="start" x="217" y="-896.33" font-family="Helvetica,sans-Serif" font-weight="bold" font-size="11.00">users</text>
<text text-anchor="start" x="250.5" y="-895.33" font-family="Helvetica,sans-Serif" font-size="11.00">[table]</text>
<polygon fill="none" stroke="black" points="213.5,-869.13 213.5,-887.13 289.5,-887.13 289.5,-869.13 213.5,-869.13"/>
<text text-anchor="start" x="216.5" y="-875.33" font-family="Helvetica,sans-Serif" font-size="11.00">...</text>
<polygon fill="#ffffff" stroke="transparent" points="213.5,-851.13 213.5,-869.13 238.5,-869.13 238.5,-851.13 213.5,-851.13"/>
<polygon fill="none" stroke="black" points="213.5,-851.13 213.5,-869.13 238.5,-869.13 238.5,-851.13 213.5,-851.13"/>
<text text-anchor="start" x="216.5" y="-857.33" font-family="Helvetica,sans-Serif" font-size="11.00">&lt; 3</text>
<polygon fill="#ffffff" stroke="transparent" points="238.5,-851.13 238.5,-869.13 253.5,-869.13 253.5,-851.13 238.5,-851.13"/>
<polygon fill="none" stroke="black" points="238.5,-851.13 238.5,-869.13 253.5,-869.13 253.5,-851.13 238.5,-851.13"/>
<text text-anchor="start" x="243.5" y="-857.33" font-family="Helvetica,sans-Serif" font-size="11.00"> &#160;</text>
<polygon fill="#ffffff" stroke="transparent" points="253.5,-851.13 253.5,-869.13 289.5,-869.13 289.5,-851.13 253.5,-851.13"/>
<polygon fill="none" stroke="black" points="253.5,-851.13 253.5,-869.13 289.5,-869.13 289.5,-851.13 253.5,-851.13"/>
<text text-anchor="start" x="258.5" y="-857.33" font-family="Helvetica,sans-Serif" font-size="11.00">132 &gt;</text>
</a>
</g>
</g>
<!-- nursery.batches&#45;&gt;users -->
<g id="edge1" class="edge">
<title>nursery.batches:w&#45;&gt;users:e</title>
<path fill="none" stroke="black" d="M950.15,-771.24C915.76,-782.82 929.6,-838.77 887,-859.13 767.34,-916.32 423.12,-878.13 290.5,-878.13"/>
<polygon fill="black" stroke="black" points="956.59,-770.3 965.02,-772.69 960.54,-769.71 964.5,-769.13 964.5,-769.13 964.5,-769.13 960.54,-769.71 963.98,-765.57 956.59,-770.3 956.59,-770.3"/>
<ellipse fill="none" stroke="black" cx="953.42" cy="-770.76" rx="3.2" ry="3.2"/>
</g>
<!-- nursery.batches&#45;&gt;users -->
<g id="edge3" class="edge">
<title>nursery.batches:w&#45;&gt;users:e</title>
<path fill="none" stroke="black" d="M950.02,-771.29C916.74,-782.66 928.5,-835.7 887,-855.13 766.86,-911.39 423.15,-878.13 290.5,-878.13"/>
<polygon fill="black" stroke="black" points="956.59,-770.31 965.03,-772.69 960.54,-769.72 964.5,-769.13 964.5,-769.13 964.5,-769.13 960.54,-769.72 963.97,-765.57 956.59,-770.31 956.59,-770.31"/>
<ellipse fill="none" stroke="black" cx="953.42" cy="-770.79" rx="3.2" ry="3.2"/>
</g>
<!-- facilities -->
<g id="node3" class="node">
<title>facilities</title>
<g id="a_node3"><a xlink:href="../../tables/facilities.html" xlink:title="facilities" target="_top">
<polygon fill="#ffffff" stroke="transparent" points="696.5,-156.13 696.5,-214.13 790.5,-214.13 790.5,-156.13 696.5,-156.13"/>
<polygon fill="#f5f5f5" stroke="transparent" points="696.5,-192.13 696.5,-214.13 790.5,-214.13 790.5,-192.13 696.5,-192.13"/>
<polygon fill="none" stroke="black" points="696.5,-192.13 696.5,-214.13 790.5,-214.13 790.5,-192.13 696.5,-192.13"/>
<text text-anchor="start" x="701.5" y="-201.33" font-family="Helvetica,sans-Serif" font-weight="bold" font-size="11.00">facilities</text>
<text text-anchor="start" x="751.5" y="-200.33" font-family="Helvetica,sans-Serif" font-size="11.00">[table]</text>
<polygon fill="none" stroke="black" points="696.5,-174.13 696.5,-192.13 790.5,-192.13 790.5,-174.13 696.5,-174.13"/>
<text text-anchor="start" x="699.5" y="-180.33" font-family="Helvetica,sans-Serif" font-size="11.00">...</text>
<polygon fill="#ffffff" stroke="transparent" points="696.5,-156.13 696.5,-174.13 733.5,-174.13 733.5,-156.13 696.5,-156.13"/>
<polygon fill="none" stroke="black" points="696.5,-156.13 696.5,-174.13 733.5,-174.13 733.5,-156.13 696.5,-156.13"/>
<text text-anchor="start" x="699.5" y="-162.33" font-family="Helvetica,sans-Serif" font-size="11.00">&lt; 6</text>
<polygon fill="#ffffff" stroke="transparent" points="733.5,-156.13 733.5,-174.13 754.5,-174.13 754.5,-156.13 733.5,-156.13"/>
<polygon fill="none" stroke="black" points="733.5,-156.13 733.5,-174.13 754.5,-174.13 754.5,-156.13 733.5,-156.13"/>
<text text-anchor="start" x="744.5" y="-162.33" font-family="Helvetica,sans-Serif" font-size="11.00"> &#160;</text>
<polygon fill="#ffffff" stroke="transparent" points="754.5,-156.13 754.5,-174.13 790.5,-174.13 790.5,-156.13 754.5,-156.13"/>
<polygon fill="none" stroke="black" points="754.5,-156.13 754.5,-174.13 790.5,-174.13 790.5,-156.13 754.5,-156.13"/>
<text text-anchor="start" x="765.5" y="-162.33" font-family="Helvetica,sans-Serif" font-size="11.00">10 &gt;</text>
</a>
</g>
</g>
<!-- nursery.batches&#45;&gt;facilities -->
<g id="edge2" class="edge">
<title>nursery.batches:w&#45;&gt;facilities:e</title>
<path fill="none" stroke="black" d="M950.03,-766.71C852.06,-731.29 958.15,-317.1 887,-224.13 858.93,-187.45 837.69,-183.13 791.5,-183.13"/>
<polygon fill="black" stroke="black" points="956.61,-767.81 963.91,-772.68 960.55,-768.47 964.5,-769.13 964.5,-769.13 964.5,-769.13 960.55,-768.47 965.09,-765.58 956.61,-767.81 956.61,-767.81"/>
<ellipse fill="none" stroke="black" cx="953.45" cy="-767.28" rx="3.2" ry="3.2"/>
</g>
<!-- organizations -->
<g id="node4" class="node">
<title>organizations</title>
<g id="a_node4"><a xlink:href="../../tables/organizations.html" xlink:title="organizations" target="_top">
<polygon fill="#ffffff" stroke="transparent" points="385,-609.13 385,-821.13 559,-821.13 559,-609.13 385,-609.13"/>
<polygon fill="#f5f5f5" stroke="transparent" points="385,-799.13 385,-821.13 559,-821.13 559,-799.13 385,-799.13"/>
<polygon fill="none" stroke="black" points="385,-799.13 385,-821.13 559,-821.13 559,-799.13 385,-799.13"/>
<text text-anchor="start" x="390" y="-808.33" font-family="Helvetica,sans-Serif" font-weight="bold" font-size="11.00">organizations</text>
<text text-anchor="start" x="520" y="-807.33" font-family="Helvetica,sans-Serif" font-size="11.00">[table]</text>
<polygon fill="none" stroke="black" points="385,-777.13 385,-799.13 559,-799.13 559,-777.13 385,-777.13"/>
<image xlink:href="../../images/primaryKeys.png" width="11px" height="12px" preserveAspectRatio="xMinYMin meet" x="390" y="-794.131"/>
<text text-anchor="start" x="405" y="-785.33" font-family="Helvetica,sans-Serif" font-size="11.00">id</text>
<polygon fill="none" stroke="black" points="385,-755.13 385,-777.13 559,-777.13 559,-755.13 385,-755.13"/>
<image xlink:href="../../images/foreignKeys.png" width="11px" height="12px" preserveAspectRatio="xMinYMin meet" x="390" y="-772.131"/>
<text text-anchor="start" x="405" y="-763.33" font-family="Helvetica,sans-Serif" font-size="11.00">country_code</text>
<polygon fill="none" stroke="black" points="385,-733.13 385,-755.13 559,-755.13 559,-733.13 385,-733.13"/>
<image xlink:href="../../images/foreignKeys.png" width="11px" height="12px" preserveAspectRatio="xMinYMin meet" x="390" y="-750.131"/>
<text text-anchor="start" x="405" y="-741.33" font-family="Helvetica,sans-Serif" font-size="11.00">country_subdivision_code</text>
<polygon fill="none" stroke="black" points="385,-711.13 385,-733.13 559,-733.13 559,-711.13 385,-711.13"/>
<image xlink:href="../../images/foreignKeys.png" width="11px" height="12px" preserveAspectRatio="xMinYMin meet" x="390" y="-728.131"/>
<text text-anchor="start" x="405" y="-719.33" font-family="Helvetica,sans-Serif" font-size="11.00">created_by</text>
<polygon fill="none" stroke="black" points="385,-689.13 385,-711.13 559,-711.13 559,-689.13 385,-689.13"/>
<image xlink:href="../../images/foreignKeys.png" width="11px" height="12px" preserveAspectRatio="xMinYMin meet" x="390" y="-706.131"/>
<text text-anchor="start" x="405" y="-697.33" font-family="Helvetica,sans-Serif" font-size="11.00">modified_by</text>
<polygon fill="none" stroke="black" points="385,-667.13 385,-689.13 559,-689.13 559,-667.13 385,-667.13"/>
<image xlink:href="../../images/foreignKeys.png" width="11px" height="12px" preserveAspectRatio="xMinYMin meet" x="390" y="-684.131"/>
<text text-anchor="start" x="405" y="-675.33" font-family="Helvetica,sans-Serif" font-size="11.00">time_zone</text>
<polygon fill="none" stroke="black" points="385,-645.13 385,-667.13 559,-667.13 559,-645.13 385,-645.13"/>
<image xlink:href="../../images/foreignKeys.png" width="11px" height="12px" preserveAspectRatio="xMinYMin meet" x="390" y="-662.131"/>
<text text-anchor="start" x="405" y="-653.33" font-family="Helvetica,sans-Serif" font-size="11.00">organization_type_id</text>
<polygon fill="none" stroke="black" points="385,-627.13 385,-645.13 559,-645.13 559,-627.13 385,-627.13"/>
<text text-anchor="start" x="388" y="-633.33" font-family="Helvetica,sans-Serif" font-size="11.00">...</text>
<polygon fill="#ffffff" stroke="transparent" points="385,-609.13 385,-627.13 462,-627.13 462,-609.13 385,-609.13"/>
<polygon fill="none" stroke="black" points="385,-609.13 385,-627.13 462,-627.13 462,-609.13 385,-609.13"/>
<text text-anchor="start" x="388" y="-615.33" font-family="Helvetica,sans-Serif" font-size="11.00">&lt; 6</text>
<polygon fill="#ffffff" stroke="transparent" points="462,-609.13 462,-627.13 503,-627.13 503,-609.13 462,-609.13"/>
<polygon fill="none" stroke="black" points="462,-609.13 462,-627.13 503,-627.13 503,-609.13 462,-609.13"/>
<text text-anchor="start" x="493" y="-615.33" font-family="Helvetica,sans-Serif" font-size="11.00"> &#160;</text>
<polygon fill="#ffffff" stroke="transparent" points="503,-609.13 503,-627.13 559,-627.13 559,-609.13 503,-609.13"/>
<polygon fill="none" stroke="black" points="503,-609.13 503,-627.13 559,-627.13 559,-609.13 503,-609.13"/>
<text text-anchor="start" x="534" y="-615.33" font-family="Helvetica,sans-Serif" font-size="11.00">17 &gt;</text>
</a>
</g>
</g>
<!-- nursery.batches&#45;&gt;organizations -->
<g id="edge4" class="edge">
<title>nursery.batches:w&#45;&gt;organizations:e</title>
<path fill="none" stroke="black" d="M950.23,-767.04C914.56,-755.08 931.22,-695.13 887,-674.13 829.39,-646.78 652.03,-637.25 600,-674.13 556.2,-705.18 613.7,-788.13 560,-788.13"/>
<polygon fill="black" stroke="black" points="956.58,-767.97 963.98,-772.69 960.54,-768.55 964.5,-769.13 964.5,-769.13 964.5,-769.13 960.54,-768.55 965.02,-765.57 956.58,-767.97 956.58,-767.97"/>
<ellipse fill="none" stroke="black" cx="953.42" cy="-767.51" rx="3.2" ry="3.2"/>
</g>
<!-- projects -->
<g id="node5" class="node">
<title>projects</title>
<g id="a_node5"><a xlink:href="../../tables/projects.html" xlink:title="projects" target="_top">
<polygon fill="#ffffff" stroke="transparent" points="697.5,-908.13 697.5,-966.13 789.5,-966.13 789.5,-908.13 697.5,-908.13"/>
<polygon fill="#f5f5f5" stroke="transparent" points="697.5,-944.13 697.5,-966.13 789.5,-966.13 789.5,-944.13 697.5,-944.13"/>
<polygon fill="none" stroke="black" points="697.5,-944.13 697.5,-966.13 789.5,-966.13 789.5,-944.13 697.5,-944.13"/>
<text text-anchor="start" x="702" y="-953.33" font-family="Helvetica,sans-Serif" font-weight="bold" font-size="11.00">projects</text>
<text text-anchor="start" x="750.5" y="-952.33" font-family="Helvetica,sans-Serif" font-size="11.00">[table]</text>
<polygon fill="none" stroke="black" points="697.5,-926.13 697.5,-944.13 789.5,-944.13 789.5,-926.13 697.5,-926.13"/>
<text text-anchor="start" x="700.5" y="-932.33" font-family="Helvetica,sans-Serif" font-size="11.00">...</text>
<polygon fill="#ffffff" stroke="transparent" points="697.5,-908.13 697.5,-926.13 733.5,-926.13 733.5,-908.13 697.5,-908.13"/>
<polygon fill="none" stroke="black" points="697.5,-908.13 697.5,-926.13 733.5,-926.13 733.5,-908.13 697.5,-908.13"/>
<text text-anchor="start" x="700.5" y="-914.33" font-family="Helvetica,sans-Serif" font-size="11.00">&lt; 5</text>
<polygon fill="#ffffff" stroke="transparent" points="733.5,-908.13 733.5,-926.13 753.5,-926.13 753.5,-908.13 733.5,-908.13"/>
<polygon fill="none" stroke="black" points="733.5,-908.13 733.5,-926.13 753.5,-926.13 753.5,-908.13 733.5,-908.13"/>
<text text-anchor="start" x="743.5" y="-914.33" font-family="Helvetica,sans-Serif" font-size="11.00"> &#160;</text>
<polygon fill="#ffffff" stroke="transparent" points="753.5,-908.13 753.5,-926.13 789.5,-926.13 789.5,-908.13 753.5,-908.13"/>
<polygon fill="none" stroke="black" points="753.5,-908.13 753.5,-926.13 789.5,-926.13 789.5,-908.13 753.5,-908.13"/>
<text text-anchor="start" x="764.5" y="-914.33" font-family="Helvetica,sans-Serif" font-size="11.00">49 &gt;</text>
</a>
</g>
</g>
<!-- nursery.batches&#45;&gt;projects -->
<g id="edge5" class="edge">
<title>nursery.batches:w&#45;&gt;projects:e</title>
<path fill="none" stroke="black" d="M950.09,-770.8C904.82,-782.7 932.46,-855.16 887,-894.13 851.62,-924.46 837.1,-935.13 790.5,-935.13"/>
<polygon fill="black" stroke="black" points="956.55,-770.05 964.92,-772.71 960.53,-769.59 964.5,-769.13 964.5,-769.13 964.5,-769.13 960.53,-769.59 964.08,-765.55 956.55,-770.05 956.55,-770.05"/>
<ellipse fill="none" stroke="black" cx="953.37" cy="-770.42" rx="3.2" ry="3.2"/>
</g>
<!-- species -->
<g id="node6" class="node">
<title>species</title>
<g id="a_node6"><a xlink:href="../../tables/species.html" xlink:title="species" target="_top">
<polygon fill="#ffffff" stroke="transparent" points="700,-314.13 700,-372.13 787,-372.13 787,-314.13 700,-314.13"/>
<polygon fill="#f5f5f5" stroke="transparent" points="700.5,-350.13 700.5,-372.13 787.5,-372.13 787.5,-350.13 700.5,-350.13"/>
<polygon fill="none" stroke="black" points="700.5,-350.13 700.5,-372.13 787.5,-372.13 787.5,-350.13 700.5,-350.13"/>
<text text-anchor="start" x="705" y="-359.33" font-family="Helvetica,sans-Serif" font-weight="bold" font-size="11.00">species</text>
<text text-anchor="start" x="748.5" y="-358.33" font-family="Helvetica,sans-Serif" font-size="11.00">[table]</text>
<polygon fill="none" stroke="black" points="700.5,-332.13 700.5,-350.13 787.5,-350.13 787.5,-332.13 700.5,-332.13"/>
<text text-anchor="start" x="703.5" y="-338.33" font-family="Helvetica,sans-Serif" font-size="11.00">...</text>
<polygon fill="#ffffff" stroke="transparent" points="700.5,-314.13 700.5,-332.13 734.5,-332.13 734.5,-314.13 700.5,-314.13"/>
<polygon fill="none" stroke="black" points="700.5,-314.13 700.5,-332.13 734.5,-332.13 734.5,-314.13 700.5,-314.13"/>
<text text-anchor="start" x="703.5" y="-320.33" font-family="Helvetica,sans-Serif" font-size="11.00">&lt; 7</text>
<polygon fill="#ffffff" stroke="transparent" points="734.5,-314.13 734.5,-332.13 753.5,-332.13 753.5,-314.13 734.5,-314.13"/>
<polygon fill="none" stroke="black" points="734.5,-314.13 734.5,-332.13 753.5,-332.13 753.5,-314.13 734.5,-314.13"/>
<text text-anchor="start" x="743.5" y="-320.33" font-family="Helvetica,sans-Serif" font-size="11.00"> &#160;</text>
<polygon fill="#ffffff" stroke="transparent" points="753.5,-314.13 753.5,-332.13 787.5,-332.13 787.5,-314.13 753.5,-314.13"/>
<polygon fill="none" stroke="black" points="753.5,-314.13 753.5,-332.13 787.5,-332.13 787.5,-314.13 753.5,-314.13"/>
<text text-anchor="start" x="762.5" y="-320.33" font-family="Helvetica,sans-Serif" font-size="11.00">20 &gt;</text>
</a>
</g>
</g>
<!-- nursery.batches&#45;&gt;species -->
<g id="edge6" class="edge">
<title>nursery.batches:w&#45;&gt;species:e</title>
<path fill="none" stroke="black" d="M949.95,-768.44C822.5,-755.48 959.42,-563.78 887,-436.13 856.99,-383.23 849.32,-341.13 788.5,-341.13"/>
<polygon fill="black" stroke="black" points="956.51,-768.75 964.33,-772.73 960.5,-768.94 964.5,-769.13 964.5,-769.13 964.5,-769.13 960.5,-768.94 964.67,-765.54 956.51,-768.75 956.51,-768.75"/>
<ellipse fill="none" stroke="black" cx="953.31" cy="-768.6" rx="3.2" ry="3.2"/>
</g>
<!-- countries -->
<g id="node8" class="node">
<title>countries</title>
<g id="a_node8"><a xlink:href="../../tables/countries.html" xlink:title="countries" target="_top">
<polygon fill="#ffffff" stroke="transparent" points="13,-851.13 13,-909.13 113,-909.13 113,-851.13 13,-851.13"/>
<polygon fill="#f5f5f5" stroke="transparent" points="13,-887.13 13,-909.13 113,-909.13 113,-887.13 13,-887.13"/>
<polygon fill="none" stroke="black" points="13,-887.13 13,-909.13 113,-909.13 113,-887.13 13,-887.13"/>
<text text-anchor="start" x="17.5" y="-896.33" font-family="Helvetica,sans-Serif" font-weight="bold" font-size="11.00">countries</text>
<text text-anchor="start" x="74" y="-895.33" font-family="Helvetica,sans-Serif" font-size="11.00">[table]</text>
<polygon fill="none" stroke="black" points="13,-869.13 13,-887.13 113,-887.13 113,-869.13 13,-869.13"/>
<text text-anchor="start" x="16" y="-875.33" font-family="Helvetica,sans-Serif" font-size="11.00">...</text>
<polygon fill="#ffffff" stroke="transparent" points="13,-851.13 13,-869.13 37,-869.13 37,-851.13 13,-851.13"/>
<polygon fill="none" stroke="black" points="13,-851.13 13,-869.13 37,-869.13 37,-851.13 13,-851.13"/>
<text text-anchor="start" x="16" y="-857.33" font-family="Helvetica,sans-Serif" font-size="11.00">&lt; 1</text>
<polygon fill="#ffffff" stroke="transparent" points="37,-851.13 37,-869.13 90,-869.13 90,-851.13 37,-851.13"/>
<polygon fill="none" stroke="black" points="37,-851.13 37,-869.13 90,-869.13 90,-851.13 37,-851.13"/>
<text text-anchor="start" x="41" y="-857.33" font-family="Helvetica,sans-Serif" font-size="11.00">249 rows</text>
<polygon fill="#ffffff" stroke="transparent" points="90,-851.13 90,-869.13 113,-869.13 113,-851.13 90,-851.13"/>
<polygon fill="none" stroke="black" points="90,-851.13 90,-869.13 113,-869.13 113,-851.13 90,-851.13"/>
<text text-anchor="start" x="94" y="-857.33" font-family="Helvetica,sans-Serif" font-size="11.00">8 &gt;</text>
</a>
</g>
</g>
<!-- users&#45;&gt;countries -->
<g id="edge49" class="edge">
<title>users:w&#45;&gt;countries:e</title>
<path fill="none" stroke="black" d="M197.92,-878.13C165.59,-878.13 152.48,-878.13 114,-878.13"/>
<polygon fill="black" stroke="black" points="204.5,-878.13 212.5,-881.73 208.5,-878.13 212.5,-878.13 212.5,-878.13 212.5,-878.13 208.5,-878.13 212.5,-874.53 204.5,-878.13 204.5,-878.13"/>
<ellipse fill="none" stroke="black" cx="201.3" cy="-878.13" rx="3.2" ry="3.2"/>
</g>
<!-- time_zones -->
<g id="node9" class="node">
<title>time_zones</title>
<g id="a_node9"><a xlink:href="../../tables/time_zones.html" xlink:title="time_zones" target="_top">
<polygon fill="#ffffff" stroke="transparent" points="8,-666.13 8,-724.13 118,-724.13 118,-666.13 8,-666.13"/>
<polygon fill="#f5f5f5" stroke="transparent" points="8,-702.13 8,-724.13 118,-724.13 118,-702.13 8,-702.13"/>
<polygon fill="none" stroke="black" points="8,-702.13 8,-724.13 118,-724.13 118,-702.13 8,-702.13"/>
<text text-anchor="start" x="13" y="-711.33" font-family="Helvetica,sans-Serif" font-weight="bold" font-size="11.00">time_zones</text>
<text text-anchor="start" x="79" y="-710.33" font-family="Helvetica,sans-Serif" font-size="11.00">[table]</text>
<polygon fill="none" stroke="black" points="8,-684.13 8,-702.13 118,-702.13 118,-684.13 8,-684.13"/>
<text text-anchor="start" x="11" y="-690.33" font-family="Helvetica,sans-Serif" font-size="11.00">...</text>
<polygon fill="#ffffff" stroke="transparent" points="8,-666.13 8,-684.13 32,-684.13 32,-666.13 8,-666.13"/>
<polygon fill="none" stroke="black" points="8,-666.13 8,-684.13 32,-684.13 32,-666.13 8,-666.13"/>
<text text-anchor="start" x="11" y="-672.33" font-family="Helvetica,sans-Serif" font-size="11.00"> &#160;</text>
<polygon fill="#ffffff" stroke="transparent" points="32,-666.13 32,-684.13 90,-684.13 90,-666.13 32,-666.13"/>
<polygon fill="none" stroke="black" points="32,-666.13 32,-684.13 90,-684.13 90,-666.13 32,-666.13"/>
<text text-anchor="start" x="41" y="-672.33" font-family="Helvetica,sans-Serif" font-size="11.00">604 rows</text>
<polygon fill="#ffffff" stroke="transparent" points="90,-666.13 90,-684.13 118,-684.13 118,-666.13 90,-666.13"/>
<polygon fill="none" stroke="black" points="90,-666.13 90,-684.13 118,-684.13 118,-666.13 90,-666.13"/>
<text text-anchor="start" x="99" y="-672.33" font-family="Helvetica,sans-Serif" font-size="11.00">5 &gt;</text>
</a>
</g>
</g>
<!-- users&#45;&gt;time_zones -->
<g id="edge50" class="edge">
<title>users:w&#45;&gt;time_zones:e</title>
<path fill="none" stroke="black" d="M198.22,-876.11C170.22,-866.91 176.73,-827.93 159,-793.13 137.27,-750.48 166.87,-693.13 119,-693.13"/>
<polygon fill="black" stroke="black" points="204.58,-877.01 212,-881.7 208.54,-877.57 212.5,-878.13 212.5,-878.13 212.5,-878.13 208.54,-877.57 213,-874.57 204.58,-877.01 204.58,-877.01"/>
<ellipse fill="none" stroke="black" cx="201.41" cy="-876.56" rx="3.2" ry="3.2"/>
</g>
<!-- facilities&#45;&gt;users -->
<g id="edge8" class="edge">
<title>facilities:w&#45;&gt;users:e</title>
<path fill="none" stroke="black" d="M680.69,-183.04C543.34,-181.47 466.51,-160.25 377,-270.13 290.81,-375.94 426.97,-878.13 290.5,-878.13"/>
<polygon fill="black" stroke="black" points="687.5,-183.08 695.48,-186.73 691.5,-183.11 695.5,-183.13 695.5,-183.13 695.5,-183.13 691.5,-183.11 695.52,-179.53 687.5,-183.08 687.5,-183.08"/>
<ellipse fill="none" stroke="black" cx="684.3" cy="-183.07" rx="3.2" ry="3.2"/>
</g>
<!-- facilities&#45;&gt;users -->
<g id="edge9" class="edge">
<title>facilities:w&#45;&gt;users:e</title>
<path fill="none" stroke="black" d="M681.06,-183.06C543.02,-181.71 466.28,-163.28 377,-274.13 291.95,-379.73 426.09,-878.13 290.5,-878.13"/>
<polygon fill="black" stroke="black" points="687.5,-183.09 695.48,-186.73 691.5,-183.11 695.5,-183.13 695.5,-183.13 695.5,-183.13 691.5,-183.11 695.52,-179.53 687.5,-183.09 687.5,-183.09"/>
<ellipse fill="none" stroke="black" cx="684.3" cy="-183.07" rx="3.2" ry="3.2"/>
</g>
<!-- facilities&#45;&gt;organizations -->
<g id="edge10" class="edge">
<title>facilities:w&#45;&gt;organizations:e</title>
<path fill="none" stroke="black" d="M680.67,-183.31C644.15,-184.33 623.73,-190.75 600,-224.13 563.6,-275.33 622.82,-788.13 560,-788.13"/>
<polygon fill="black" stroke="black" points="687.5,-183.22 695.54,-186.73 691.5,-183.18 695.5,-183.13 695.5,-183.13 695.5,-183.13 691.5,-183.18 695.46,-179.53 687.5,-183.22 687.5,-183.22"/>
<ellipse fill="none" stroke="black" cx="684.3" cy="-183.26" rx="3.2" ry="3.2"/>
</g>
<!-- facilities&#45;&gt;time_zones -->
<g id="edge11" class="edge">
<title>facilities:w&#45;&gt;time_zones:e</title>
<path fill="none" stroke="black" d="M680.88,-182.85C549.91,-177.86 493.66,-108.09 377,-179.13 196.7,-288.93 249.58,-410.45 159,-601.13 139.87,-641.4 163.59,-693.13 119,-693.13"/>
<polygon fill="black" stroke="black" points="687.5,-182.98 695.43,-186.73 691.5,-183.05 695.5,-183.13 695.5,-183.13 695.5,-183.13 691.5,-183.05 695.57,-179.53 687.5,-182.98 687.5,-182.98"/>
<ellipse fill="none" stroke="black" cx="684.3" cy="-182.92" rx="3.2" ry="3.2"/>
</g>
<!-- organizations&#45;&gt;users -->
<g id="edge25" class="edge">
<title>organizations:w&#45;&gt;users:e</title>
<path fill="none" stroke="black" d="M369.5,-724.81C343.4,-736.94 366.95,-787.66 344,-823.13 325.47,-851.76 324.6,-878.13 290.5,-878.13"/>
<polygon fill="black" stroke="black" points="376.13,-723.58 384.65,-725.67 380.07,-722.86 384,-722.13 384,-722.13 384,-722.13 380.07,-722.86 383.35,-718.59 376.13,-723.58 376.13,-723.58"/>
<ellipse fill="none" stroke="black" cx="372.99" cy="-724.16" rx="3.2" ry="3.2"/>
</g>
<!-- organizations&#45;&gt;users -->
<g id="edge26" class="edge">
<title>organizations:w&#45;&gt;users:e</title>
<path fill="none" stroke="black" d="M369.53,-702.31C335.31,-714.86 370.69,-778.91 344,-823.13 326.38,-852.33 324.6,-878.13 290.5,-878.13"/>
<polygon fill="black" stroke="black" points="376.09,-701.32 384.54,-703.69 380.04,-700.73 384,-700.13 384,-700.13 384,-700.13 380.04,-700.73 383.46,-696.57 376.09,-701.32 376.09,-701.32"/>
<ellipse fill="none" stroke="black" cx="372.93" cy="-701.8" rx="3.2" ry="3.2"/>
</g>
<!-- country_subdivisions -->
<g id="node7" class="node">
<title>country_subdivisions</title>
<g id="a_node7"><a xlink:href="../../tables/country_subdivisions.html" xlink:title="country_subdivisions" target="_top">
<polygon fill="#ffffff" stroke="transparent" points="167,-724.13 167,-782.13 336,-782.13 336,-724.13 167,-724.13"/>
<polygon fill="#f5f5f5" stroke="transparent" points="167.5,-760.13 167.5,-782.13 336.5,-782.13 336.5,-760.13 167.5,-760.13"/>
<polygon fill="none" stroke="black" points="167.5,-760.13 167.5,-782.13 336.5,-782.13 336.5,-760.13 167.5,-760.13"/>
<text text-anchor="start" x="172.5" y="-769.33" font-family="Helvetica,sans-Serif" font-weight="bold" font-size="11.00">country_subdivisions</text>
<text text-anchor="start" x="297.5" y="-768.33" font-family="Helvetica,sans-Serif" font-size="11.00">[table]</text>
<polygon fill="none" stroke="black" points="167.5,-742.13 167.5,-760.13 336.5,-760.13 336.5,-742.13 167.5,-742.13"/>
<text text-anchor="start" x="170.5" y="-748.33" font-family="Helvetica,sans-Serif" font-size="11.00">...</text>
<polygon fill="#ffffff" stroke="transparent" points="167.5,-724.13 167.5,-742.13 228.5,-742.13 228.5,-724.13 167.5,-724.13"/>
<polygon fill="none" stroke="black" points="167.5,-724.13 167.5,-742.13 228.5,-742.13 228.5,-724.13 167.5,-724.13"/>
<text text-anchor="start" x="170.5" y="-730.33" font-family="Helvetica,sans-Serif" font-size="11.00">&lt; 1</text>
<polygon fill="#ffffff" stroke="transparent" points="228.5,-724.13 228.5,-742.13 294.5,-742.13 294.5,-724.13 228.5,-724.13"/>
<polygon fill="none" stroke="black" points="228.5,-724.13 228.5,-742.13 294.5,-742.13 294.5,-724.13 228.5,-724.13"/>
<text text-anchor="start" x="251.5" y="-730.33" font-family="Helvetica,sans-Serif" font-size="11.00">57 rows</text>
<polygon fill="#ffffff" stroke="transparent" points="294.5,-724.13 294.5,-742.13 336.5,-742.13 336.5,-724.13 294.5,-724.13"/>
<polygon fill="none" stroke="black" points="294.5,-724.13 294.5,-742.13 336.5,-742.13 336.5,-724.13 294.5,-724.13"/>
<text text-anchor="start" x="317.5" y="-730.33" font-family="Helvetica,sans-Serif" font-size="11.00">1 &gt;</text>
</a>
</g>
</g>
<!-- organizations&#45;&gt;country_subdivisions -->
<g id="edge24" class="edge">
<title>organizations:w&#45;&gt;country_subdivisions:e</title>
<path fill="none" stroke="black" d="M369.49,-745.48C359.17,-747.51 352.52,-751.13 337.5,-751.13"/>
<polygon fill="black" stroke="black" points="376.03,-744.87 384.33,-747.72 380.02,-744.5 384,-744.13 384,-744.13 384,-744.13 380.02,-744.5 383.67,-740.55 376.03,-744.87 376.03,-744.87"/>
<ellipse fill="none" stroke="black" cx="372.85" cy="-745.17" rx="3.2" ry="3.2"/>
</g>
<!-- organizations&#45;&gt;countries -->
<g id="edge23" class="edge">
<title>organizations:w&#45;&gt;countries:e</title>
<path fill="none" stroke="black" d="M369.99,-770.02C361.41,-775.86 357.9,-786.86 344,-793.13 266.57,-828.06 234.7,-802.58 159,-841.13 135.93,-852.88 139.89,-878.13 114,-878.13"/>
<polygon fill="black" stroke="black" points="376.29,-768.27 384.96,-769.6 380.15,-767.2 384,-766.13 384,-766.13 384,-766.13 380.15,-767.2 383.04,-762.66 376.29,-768.27 376.29,-768.27"/>
<ellipse fill="none" stroke="black" cx="373.21" cy="-769.13" rx="3.2" ry="3.2"/>
</g>
<!-- organizations&#45;&gt;time_zones -->
<g id="edge28" class="edge">
<title>organizations:w&#45;&gt;time_zones:e</title>
<path fill="none" stroke="black" d="M369.35,-678.76C314.64,-681.6 131.93,-693.13 119,-693.13"/>
<polygon fill="black" stroke="black" points="376.01,-678.47 384.15,-681.73 380,-678.3 384,-678.13 384,-678.13 384,-678.13 380,-678.3 383.85,-674.53 376.01,-678.47 376.01,-678.47"/>
<ellipse fill="none" stroke="black" cx="372.81" cy="-678.61" rx="3.2" ry="3.2"/>
</g>
<!-- organization_types -->
<g id="node16" class="node">
<title>organization_types</title>
<g id="a_node16"><a xlink:href="../../tables/organization_types.html" xlink:title="organization_types" target="_top">
<polygon fill="#ffffff" stroke="transparent" points="173,-611.13 173,-669.13 330,-669.13 330,-611.13 173,-611.13"/>
<polygon fill="#f5f5f5" stroke="transparent" points="173.5,-647.13 173.5,-669.13 330.5,-669.13 330.5,-647.13 173.5,-647.13"/>
<polygon fill="none" stroke="black" points="173.5,-647.13 173.5,-669.13 330.5,-669.13 330.5,-647.13 173.5,-647.13"/>
<text text-anchor="start" x="178.5" y="-656.33" font-family="Helvetica,sans-Serif" font-weight="bold" font-size="11.00">organization_types</text>
<text text-anchor="start" x="291.5" y="-655.33" font-family="Helvetica,sans-Serif" font-size="11.00">[table]</text>
<polygon fill="none" stroke="black" points="173.5,-629.13 173.5,-647.13 330.5,-647.13 330.5,-629.13 173.5,-629.13"/>
<text text-anchor="start" x="176.5" y="-635.33" font-family="Helvetica,sans-Serif" font-size="11.00">...</text>
<polygon fill="#ffffff" stroke="transparent" points="173.5,-611.13 173.5,-629.13 240.5,-629.13 240.5,-611.13 173.5,-611.13"/>
<polygon fill="none" stroke="black" points="173.5,-611.13 173.5,-629.13 240.5,-629.13 240.5,-611.13 173.5,-611.13"/>
<text text-anchor="start" x="176.5" y="-617.33" font-family="Helvetica,sans-Serif" font-size="11.00"> &#160;</text>
<polygon fill="#ffffff" stroke="transparent" points="240.5,-611.13 240.5,-629.13 280.5,-629.13 280.5,-611.13 240.5,-611.13"/>
<polygon fill="none" stroke="black" points="240.5,-611.13 240.5,-629.13 280.5,-629.13 280.5,-611.13 240.5,-611.13"/>
<text text-anchor="start" x="270.5" y="-617.33" font-family="Helvetica,sans-Serif" font-size="11.00"> &#160;</text>
<polygon fill="#ffffff" stroke="transparent" points="280.5,-611.13 280.5,-629.13 330.5,-629.13 330.5,-611.13 280.5,-611.13"/>
<polygon fill="none" stroke="black" points="280.5,-611.13 280.5,-629.13 330.5,-629.13 330.5,-611.13 280.5,-611.13"/>
<text text-anchor="start" x="311.5" y="-617.33" font-family="Helvetica,sans-Serif" font-size="11.00">1 &gt;</text>
</a>
</g>
</g>
<!-- organizations&#45;&gt;organization_types -->
<g id="edge27" class="edge">
<title>organizations:w&#45;&gt;organization_types:e</title>
<path fill="none" stroke="black" d="M369.65,-653.63C356.67,-648.68 350.39,-638.13 331.5,-638.13"/>
<polygon fill="black" stroke="black" points="376.12,-654.76 383.38,-659.68 380.06,-655.44 384,-656.13 384,-656.13 384,-656.13 380.06,-655.44 384.62,-652.58 376.12,-654.76 376.12,-654.76"/>
<ellipse fill="none" stroke="black" cx="372.97" cy="-654.21" rx="3.2" ry="3.2"/>
</g>
<!-- projects&#45;&gt;users -->
<g id="edge30" class="edge">
<title>projects:w&#45;&gt;users:e</title>
<path fill="none" stroke="black" d="M681.79,-935.06C550.75,-933.8 513.47,-915.49 377,-894.13 338.37,-888.08 329.6,-878.13 290.5,-878.13"/>
<polygon fill="black" stroke="black" points="688.5,-935.09 696.48,-938.73 692.5,-935.11 696.5,-935.13 696.5,-935.13 696.5,-935.13 692.5,-935.11 696.52,-931.53 688.5,-935.09 688.5,-935.09"/>
<ellipse fill="none" stroke="black" cx="685.3" cy="-935.08" rx="3.2" ry="3.2"/>
</g>
<!-- projects&#45;&gt;users -->
<g id="edge31" class="edge">
<title>projects:w&#45;&gt;users:e</title>
<path fill="none" stroke="black" d="M681.87,-933.17C609.45,-923.15 293.03,-878.13 290.5,-878.13"/>
<polygon fill="black" stroke="black" points="688.57,-934.07 696.02,-938.7 692.54,-934.6 696.5,-935.13 696.5,-935.13 696.5,-935.13 692.54,-934.6 696.98,-931.56 688.57,-934.07 688.57,-934.07"/>
<ellipse fill="none" stroke="black" cx="685.4" cy="-933.64" rx="3.2" ry="3.2"/>
</g>
<!-- projects&#45;&gt;organizations -->
<g id="edge32" class="edge">
<title>projects:w&#45;&gt;organizations:e</title>
<path fill="none" stroke="black" d="M682.08,-934.21C640.42,-928.46 632.12,-896.62 600,-859.13 576.44,-831.63 596.22,-788.13 560,-788.13"/>
<polygon fill="black" stroke="black" points="688.52,-934.62 696.27,-938.72 692.51,-934.87 696.5,-935.13 696.5,-935.13 696.5,-935.13 692.51,-934.87 696.73,-931.54 688.52,-934.62 688.52,-934.62"/>
<ellipse fill="none" stroke="black" cx="685.32" cy="-934.41" rx="3.2" ry="3.2"/>
</g>
<!-- projects&#45;&gt;countries -->
<g id="edge29" class="edge">
<title>projects:w&#45;&gt;countries:e</title>
<path fill="none" stroke="black" d="M682,-935.22C454.28,-938.17 375.56,-1009 159,-920.13 133.69,-909.74 141.36,-878.13 114,-878.13"/>
<polygon fill="black" stroke="black" points="688.5,-935.18 696.52,-938.73 692.5,-935.16 696.5,-935.13 696.5,-935.13 696.5,-935.13 692.5,-935.16 696.48,-931.53 688.5,-935.18 688.5,-935.18"/>
<ellipse fill="none" stroke="black" cx="685.3" cy="-935.2" rx="3.2" ry="3.2"/>
</g>
<!-- species&#45;&gt;users -->
<g id="edge38" class="edge">
<title>species:w&#45;&gt;users:e</title>
<path fill="none" stroke="black" d="M684.78,-341.67C647.87,-344.6 634.02,-359.47 600,-386.13 581.32,-400.78 583.22,-410.79 567,-428.13 489.4,-511.1 431.79,-499.61 377,-599.13 314.39,-712.86 420.32,-878.13 290.5,-878.13"/>
<polygon fill="black" stroke="black" points="691.51,-341.42 699.63,-344.73 695.5,-341.28 699.5,-341.13 699.5,-341.13 699.5,-341.13 695.5,-341.28 699.37,-337.53 691.51,-341.42 691.51,-341.42"/>
<ellipse fill="none" stroke="black" cx="688.31" cy="-341.54" rx="3.2" ry="3.2"/>
</g>
<!-- species&#45;&gt;users -->
<g id="edge39" class="edge">
<title>species:w&#45;&gt;users:e</title>
<path fill="none" stroke="black" d="M684.8,-339.94C648.01,-338.79 634.67,-354.31 600,-380.13 582.06,-393.49 582.49,-402 567,-418.13 486.64,-501.81 431.97,-494.96 377,-597.13 316.3,-709.96 418.63,-872.13 290.5,-878.13"/>
<polygon fill="black" stroke="black" points="691.53,-340.48 699.21,-344.72 695.51,-340.81 699.5,-341.13 699.5,-341.13 699.5,-341.13 695.51,-340.81 699.79,-337.54 691.53,-340.48 691.53,-340.48"/>
<ellipse fill="none" stroke="black" cx="688.34" cy="-340.23" rx="3.2" ry="3.2"/>
</g>
<!-- species&#45;&gt;users -->
<g id="edge40" class="edge">
<title>species:w&#45;&gt;users:e</title>
<path fill="none" stroke="black" d="M685.29,-343.65C648.13,-351.65 634.82,-367.2 600,-393.13 582.06,-406.49 582.49,-415 567,-431.13 486.64,-514.81 431.97,-507.96 377,-610.13 316.3,-722.96 418.63,-885.13 290.5,-878.13"/>
<polygon fill="black" stroke="black" points="691.62,-342.53 700.13,-344.68 695.56,-341.83 699.5,-341.13 699.5,-341.13 699.5,-341.13 695.56,-341.83 698.87,-337.59 691.62,-342.53 691.62,-342.53"/>
<ellipse fill="none" stroke="black" cx="688.47" cy="-343.09" rx="3.2" ry="3.2"/>
</g>
<!-- species&#45;&gt;organizations -->
<g id="edge41" class="edge">
<title>species:w&#45;&gt;organizations:e</title>
<path fill="none" stroke="black" d="M684.97,-341.35C646.12,-342.68 625.32,-350.86 600,-386.13 547.65,-459.06 649.77,-788.13 560,-788.13"/>
<polygon fill="black" stroke="black" points="691.5,-341.25 699.55,-344.73 695.5,-341.19 699.5,-341.13 699.5,-341.13 699.5,-341.13 695.5,-341.19 699.45,-337.53 691.5,-341.25 691.5,-341.25"/>
<ellipse fill="none" stroke="black" cx="688.3" cy="-341.3" rx="3.2" ry="3.2"/>
</g>
<!-- country_subdivisions&#45;&gt;countries -->
<g id="edge7" class="edge">
<title>country_subdivisions:w&#45;&gt;countries:e</title>
<path fill="none" stroke="black" d="M152.1,-754.53C117.78,-774.72 169.11,-878.13 114,-878.13"/>
<polygon fill="black" stroke="black" points="158.71,-752.97 167.33,-754.63 162.61,-752.05 166.5,-751.13 166.5,-751.13 166.5,-751.13 162.61,-752.05 165.67,-747.63 158.71,-752.97 158.71,-752.97"/>
<ellipse fill="none" stroke="black" cx="155.6" cy="-753.7" rx="3.2" ry="3.2"/>
</g>
<!-- identifier_sequences -->
<g id="node10" class="node">
<title>identifier_sequences</title>
<g id="a_node10"><a xlink:href="../../tables/identifier_sequences.html" xlink:title="identifier_sequences" target="_top">
<polygon fill="#ffffff" stroke="transparent" points="622.5,-447.13 622.5,-557.13 864.5,-557.13 864.5,-447.13 622.5,-447.13"/>
<polygon fill="#f5f5f5" stroke="transparent" points="624.5,-533.13 624.5,-555.13 862.5,-555.13 862.5,-533.13 624.5,-533.13"/>
<polygon fill="none" stroke="black" points="624.5,-533.13 624.5,-555.13 862.5,-555.13 862.5,-533.13 624.5,-533.13"/>
<text text-anchor="start" x="629.5" y="-542.33" font-family="Helvetica,sans-Serif" font-weight="bold" font-size="11.00">identifier_sequences</text>
<text text-anchor="start" x="823.5" y="-541.33" font-family="Helvetica,sans-Serif" font-size="11.00">[table]</text>
<polygon fill="none" stroke="black" points="624.5,-511.13 624.5,-533.13 768.5,-533.13 768.5,-511.13 624.5,-511.13"/>
<image xlink:href="../../images/primaryKeys.png" width="11px" height="12px" preserveAspectRatio="xMinYMin meet" x="629.5" y="-528.131"/>
<text text-anchor="start" x="644.5" y="-519.33" font-family="Helvetica,sans-Serif" font-size="11.00">organization_id</text>
<polygon fill="none" stroke="black" points="768.5,-511.13 768.5,-533.13 862.5,-533.13 862.5,-511.13 768.5,-511.13"/>
<text text-anchor="start" x="771.5" y="-519.33" font-family="Helvetica,sans-Serif" font-size="11.00">int8[19]</text>
<polygon fill="none" stroke="black" points="624.5,-489.13 624.5,-511.13 768.5,-511.13 768.5,-489.13 624.5,-489.13"/>
<image xlink:href="../../images/primaryKeys.png" width="11px" height="12px" preserveAspectRatio="xMinYMin meet" x="629.5" y="-506.131"/>
<text text-anchor="start" x="644.5" y="-497.33" font-family="Helvetica,sans-Serif" font-size="11.00">prefix</text>
<polygon fill="none" stroke="black" points="768.5,-489.13 768.5,-511.13 862.5,-511.13 862.5,-489.13 768.5,-489.13"/>
<text text-anchor="start" x="771.5" y="-497.33" font-family="Helvetica,sans-Serif" font-size="11.00">text[2147483647]</text>
<polygon fill="none" stroke="black" points="624.5,-467.13 624.5,-489.13 768.5,-489.13 768.5,-467.13 624.5,-467.13"/>
<text text-anchor="start" x="644.5" y="-475.33" font-family="Helvetica,sans-Serif" font-size="11.00">next_value</text>
<polygon fill="none" stroke="black" points="768.5,-467.13 768.5,-489.13 862.5,-489.13 862.5,-467.13 768.5,-467.13"/>
<text text-anchor="start" x="771.5" y="-475.33" font-family="Helvetica,sans-Serif" font-size="11.00">int8[19]</text>
<polygon fill="#ffffff" stroke="transparent" points="624.5,-449.13 624.5,-467.13 700.5,-467.13 700.5,-449.13 624.5,-449.13"/>
<polygon fill="none" stroke="black" points="624.5,-449.13 624.5,-467.13 700.5,-467.13 700.5,-449.13 624.5,-449.13"/>
<text text-anchor="start" x="627.5" y="-455.33" font-family="Helvetica,sans-Serif" font-size="11.00">&lt; 1</text>
<polygon fill="#ffffff" stroke="transparent" points="700.5,-449.13 700.5,-467.13 768.5,-467.13 768.5,-449.13 700.5,-449.13"/>
<polygon fill="none" stroke="black" points="700.5,-449.13 700.5,-467.13 768.5,-467.13 768.5,-449.13 700.5,-449.13"/>
<text text-anchor="start" x="758.5" y="-455.33" font-family="Helvetica,sans-Serif" font-size="11.00"> &#160;</text>
<polygon fill="#ffffff" stroke="transparent" points="768.5,-449.13 768.5,-467.13 862.5,-467.13 862.5,-449.13 768.5,-449.13"/>
<polygon fill="none" stroke="black" points="768.5,-449.13 768.5,-467.13 862.5,-467.13 862.5,-449.13 768.5,-449.13"/>
<text text-anchor="start" x="843.5" y="-455.33" font-family="Helvetica,sans-Serif" font-size="11.00">0 &gt;</text>
<polygon fill="none" stroke="black" stroke-width="2" points="623.5,-448.13 623.5,-556.13 863.5,-556.13 863.5,-448.13 623.5,-448.13"/>
</a>
</g>
</g>
<!-- identifier_sequences&#45;&gt;organizations -->
<g id="edge12" class="edge">
<title>identifier_sequences:w&#45;&gt;organizations:e</title>
<path fill="none" stroke="black" d="M609.82,-528.19C572.2,-567.78 615.31,-788.13 560,-788.13"/>
<polygon fill="black" stroke="black" points="616.19,-525.37 624.96,-525.42 619.84,-523.75 623.5,-522.13 623.5,-522.13 623.5,-522.13 619.84,-523.75 622.04,-518.84 616.19,-525.37 616.19,-525.37"/>
<ellipse fill="none" stroke="black" cx="613.26" cy="-526.67" rx="3.2" ry="3.2"/>
</g>
<!-- notifications -->
<g id="node11" class="node">
<title>notifications</title>
<g id="a_node11"><a xlink:href="../../tables/notifications.html" xlink:title="notifications" target="_top">
<polygon fill="#ffffff" stroke="transparent" points="683.5,-1172.13 683.5,-1230.13 803.5,-1230.13 803.5,-1172.13 683.5,-1172.13"/>
<polygon fill="#f5f5f5" stroke="transparent" points="683.5,-1208.13 683.5,-1230.13 803.5,-1230.13 803.5,-1208.13 683.5,-1208.13"/>
<polygon fill="none" stroke="black" points="683.5,-1208.13 683.5,-1230.13 803.5,-1230.13 803.5,-1208.13 683.5,-1208.13"/>
<text text-anchor="start" x="688.5" y="-1217.33" font-family="Helvetica,sans-Serif" font-weight="bold" font-size="11.00">notifications</text>
<text text-anchor="start" x="764.5" y="-1216.33" font-family="Helvetica,sans-Serif" font-size="11.00">[table]</text>
<polygon fill="none" stroke="black" points="683.5,-1190.13 683.5,-1208.13 803.5,-1208.13 803.5,-1190.13 683.5,-1190.13"/>
<text text-anchor="start" x="686.5" y="-1196.33" font-family="Helvetica,sans-Serif" font-size="11.00">...</text>
<polygon fill="#ffffff" stroke="transparent" points="683.5,-1172.13 683.5,-1190.13 741.5,-1190.13 741.5,-1172.13 683.5,-1172.13"/>
<polygon fill="none" stroke="black" points="683.5,-1172.13 683.5,-1190.13 741.5,-1190.13 741.5,-1172.13 683.5,-1172.13"/>
<text text-anchor="start" x="686.5" y="-1178.33" font-family="Helvetica,sans-Serif" font-size="11.00">&lt; 3</text>
<polygon fill="#ffffff" stroke="transparent" points="741.5,-1172.13 741.5,-1190.13 772.5,-1190.13 772.5,-1172.13 741.5,-1172.13"/>
<polygon fill="none" stroke="black" points="741.5,-1172.13 741.5,-1190.13 772.5,-1190.13 772.5,-1172.13 741.5,-1172.13"/>
<text text-anchor="start" x="762.5" y="-1178.33" font-family="Helvetica,sans-Serif" font-size="11.00"> &#160;</text>
<polygon fill="#ffffff" stroke="transparent" points="772.5,-1172.13 772.5,-1190.13 803.5,-1190.13 803.5,-1172.13 772.5,-1172.13"/>
<polygon fill="none" stroke="black" points="772.5,-1172.13 772.5,-1190.13 803.5,-1190.13 803.5,-1172.13 772.5,-1172.13"/>
<text text-anchor="start" x="793.5" y="-1178.33" font-family="Helvetica,sans-Serif" font-size="11.00"> &#160;</text>
</a>
</g>
</g>
<!-- notifications&#45;&gt;users -->
<g id="edge14" class="edge">
<title>notifications:w&#45;&gt;users:e</title>
<path fill="none" stroke="black" d="M667.87,-1198.21C604.98,-1191.15 466.91,-1143.52 377,-1054.13 315.19,-992.68 377.66,-878.13 290.5,-878.13"/>
<polygon fill="black" stroke="black" points="674.52,-1198.63 682.27,-1202.72 678.51,-1198.88 682.5,-1199.13 682.5,-1199.13 682.5,-1199.13 678.51,-1198.88 682.73,-1195.54 674.52,-1198.63 674.52,-1198.63"/>
<ellipse fill="none" stroke="black" cx="671.32" cy="-1198.43" rx="3.2" ry="3.2"/>
</g>
<!-- notifications&#45;&gt;organizations -->
<g id="edge13" class="edge">
<title>notifications:w&#45;&gt;organizations:e</title>
<path fill="none" stroke="black" d="M667.97,-1198.86C637.41,-1197.51 620.56,-1190.46 600,-1162.13 550.9,-1094.49 643.59,-788.13 560,-788.13"/>
<polygon fill="black" stroke="black" points="674.5,-1198.98 682.43,-1202.73 678.5,-1199.06 682.5,-1199.13 682.5,-1199.13 682.5,-1199.13 678.5,-1199.06 682.57,-1195.53 674.5,-1198.98 674.5,-1198.98"/>
<ellipse fill="none" stroke="black" cx="671.3" cy="-1198.92" rx="3.2" ry="3.2"/>
</g>
<!-- organization_internal_tags -->
<g id="node12" class="node">
<title>organization_internal_tags</title>
<g id="a_node12"><a xlink:href="../../tables/organization_internal_tags.html" xlink:title="organization_internal_tags" target="_top">
<polygon fill="#ffffff" stroke="transparent" points="642.5,-1093.13 642.5,-1151.13 844.5,-1151.13 844.5,-1093.13 642.5,-1093.13"/>
<polygon fill="#f5f5f5" stroke="transparent" points="642.5,-1129.13 642.5,-1151.13 844.5,-1151.13 844.5,-1129.13 642.5,-1129.13"/>
<polygon fill="none" stroke="black" points="642.5,-1129.13 642.5,-1151.13 844.5,-1151.13 844.5,-1129.13 642.5,-1129.13"/>
<text text-anchor="start" x="647.5" y="-1138.33" font-family="Helvetica,sans-Serif" font-weight="bold" font-size="11.00">organization_internal_tags</text>
<text text-anchor="start" x="805.5" y="-1137.33" font-family="Helvetica,sans-Serif" font-size="11.00">[table]</text>
<polygon fill="none" stroke="black" points="642.5,-1111.13 642.5,-1129.13 844.5,-1129.13 844.5,-1111.13 642.5,-1111.13"/>
<text text-anchor="start" x="645.5" y="-1117.33" font-family="Helvetica,sans-Serif" font-size="11.00">...</text>
<polygon fill="#ffffff" stroke="transparent" points="642.5,-1093.13 642.5,-1111.13 741.5,-1111.13 741.5,-1093.13 642.5,-1093.13"/>
<polygon fill="none" stroke="black" points="642.5,-1093.13 642.5,-1111.13 741.5,-1111.13 741.5,-1093.13 642.5,-1093.13"/>
<text text-anchor="start" x="645.5" y="-1099.33" font-family="Helvetica,sans-Serif" font-size="11.00">&lt; 3</text>
<polygon fill="#ffffff" stroke="transparent" points="741.5,-1093.13 741.5,-1111.13 792.5,-1111.13 792.5,-1093.13 741.5,-1093.13"/>
<polygon fill="none" stroke="black" points="741.5,-1093.13 741.5,-1111.13 792.5,-1111.13 792.5,-1093.13 741.5,-1093.13"/>
<text text-anchor="start" x="782.5" y="-1099.33" font-family="Helvetica,sans-Serif" font-size="11.00"> &#160;</text>
<polygon fill="#ffffff" stroke="transparent" points="792.5,-1093.13 792.5,-1111.13 844.5,-1111.13 844.5,-1093.13 792.5,-1093.13"/>
<polygon fill="none" stroke="black" points="792.5,-1093.13 792.5,-1111.13 844.5,-1111.13 844.5,-1093.13 792.5,-1093.13"/>
<text text-anchor="start" x="834.5" y="-1099.33" font-family="Helvetica,sans-Serif" font-size="11.00"> &#160;</text>
</a>
</g>
</g>
<!-- organization_internal_tags&#45;&gt;users -->
<g id="edge15" class="edge">
<title>organization_internal_tags:w&#45;&gt;users:e</title>
<path fill="none" stroke="black" d="M627.1,-1119.89C506.15,-1115.82 477.05,-1059.4 377,-979.13 330.9,-942.14 349.6,-878.13 290.5,-878.13"/>
<polygon fill="black" stroke="black" points="633.5,-1120 641.44,-1123.73 637.5,-1120.07 641.5,-1120.13 641.5,-1120.13 641.5,-1120.13 637.5,-1120.07 641.56,-1116.53 633.5,-1120 633.5,-1120"/>
<ellipse fill="none" stroke="black" cx="630.3" cy="-1119.95" rx="3.2" ry="3.2"/>
</g>
<!-- organization_internal_tags&#45;&gt;organizations -->
<g id="edge16" class="edge">
<title>organization_internal_tags:w&#45;&gt;organizations:e</title>
<path fill="none" stroke="black" d="M627.01,-1117.74C614.01,-1112.65 608.88,-1099.84 600,-1083.13 568.94,-1024.72 626.16,-788.13 560,-788.13"/>
<polygon fill="black" stroke="black" points="633.61,-1118.83 640.91,-1123.68 637.55,-1119.48 641.5,-1120.13 641.5,-1120.13 641.5,-1120.13 637.55,-1119.48 642.09,-1116.58 633.61,-1118.83 633.61,-1118.83"/>
<ellipse fill="none" stroke="black" cx="630.45" cy="-1118.31" rx="3.2" ry="3.2"/>
</g>
<!-- organization_managed_location_types -->
<g id="node13" class="node">
<title>organization_managed_location_types</title>
<g id="a_node13"><a xlink:href="../../tables/organization_managed_location_types.html" xlink:title="organization_managed_location_types" target="_top">
<polygon fill="#ffffff" stroke="transparent" points="608,-684.13 608,-742.13 879,-742.13 879,-684.13 608,-684.13"/>
<polygon fill="#f5f5f5" stroke="transparent" points="608.5,-720.13 608.5,-742.13 879.5,-742.13 879.5,-720.13 608.5,-720.13"/>
<polygon fill="none" stroke="black" points="608.5,-720.13 608.5,-742.13 879.5,-742.13 879.5,-720.13 608.5,-720.13"/>
<text text-anchor="start" x="613.5" y="-729.33" font-family="Helvetica,sans-Serif" font-weight="bold" font-size="11.00">organization_managed_location_types</text>
<text text-anchor="start" x="840.5" y="-728.33" font-family="Helvetica,sans-Serif" font-size="11.00">[table]</text>
<polygon fill="none" stroke="black" points="608.5,-702.13 608.5,-720.13 879.5,-720.13 879.5,-702.13 608.5,-702.13"/>
<text text-anchor="start" x="611.5" y="-708.33" font-family="Helvetica,sans-Serif" font-size="11.00">...</text>
<polygon fill="#ffffff" stroke="transparent" points="608.5,-684.13 608.5,-702.13 741.5,-702.13 741.5,-684.13 608.5,-684.13"/>
<polygon fill="none" stroke="black" points="608.5,-684.13 608.5,-702.13 741.5,-702.13 741.5,-684.13 608.5,-684.13"/>
<text text-anchor="start" x="611.5" y="-690.33" font-family="Helvetica,sans-Serif" font-size="11.00">&lt; 2</text>
<polygon fill="#ffffff" stroke="transparent" points="741.5,-684.13 741.5,-702.13 810.5,-702.13 810.5,-684.13 741.5,-684.13"/>
<polygon fill="none" stroke="black" points="741.5,-684.13 741.5,-702.13 810.5,-702.13 810.5,-684.13 741.5,-684.13"/>
<text text-anchor="start" x="800.5" y="-690.33" font-family="Helvetica,sans-Serif" font-size="11.00"> &#160;</text>
<polygon fill="#ffffff" stroke="transparent" points="810.5,-684.13 810.5,-702.13 879.5,-702.13 879.5,-684.13 810.5,-684.13"/>
<polygon fill="none" stroke="black" points="810.5,-684.13 810.5,-702.13 879.5,-702.13 879.5,-684.13 810.5,-684.13"/>
<text text-anchor="start" x="869.5" y="-690.33" font-family="Helvetica,sans-Serif" font-size="11.00"> &#160;</text>
</a>
</g>
</g>
<!-- organization_managed_location_types&#45;&gt;organizations -->
<g id="edge17" class="edge">
<title>organization_managed_location_types:w&#45;&gt;organizations:e</title>
<path fill="none" stroke="black" d="M593.7,-715.95C575.62,-732.8 594.08,-788.13 560,-788.13"/>
<polygon fill="black" stroke="black" points="599.95,-713.77 608.69,-714.53 603.72,-712.45 607.5,-711.13 607.5,-711.13 607.5,-711.13 603.72,-712.45 606.31,-707.73 599.95,-713.77 599.95,-713.77"/>
<ellipse fill="none" stroke="black" cx="596.93" cy="-714.82" rx="3.2" ry="3.2"/>
</g>
<!-- organization_report_settings -->
<g id="node14" class="node">
<title>organization_report_settings</title>
<g id="a_node14"><a xlink:href="../../tables/organization_report_settings.html" xlink:title="organization_report_settings" target="_top">
<polygon fill="#ffffff" stroke="transparent" points="636,-578.13 636,-636.13 851,-636.13 851,-578.13 636,-578.13"/>
<polygon fill="#f5f5f5" stroke="transparent" points="636.5,-614.13 636.5,-636.13 851.5,-636.13 851.5,-614.13 636.5,-614.13"/>
<polygon fill="none" stroke="black" points="636.5,-614.13 636.5,-636.13 851.5,-636.13 851.5,-614.13 636.5,-614.13"/>
<text text-anchor="start" x="641.5" y="-623.33" font-family="Helvetica,sans-Serif" font-weight="bold" font-size="11.00">organization_report_settings</text>
<text text-anchor="start" x="812.5" y="-622.33" font-family="Helvetica,sans-Serif" font-size="11.00">[table]</text>
<polygon fill="none" stroke="black" points="636.5,-596.13 636.5,-614.13 851.5,-614.13 851.5,-596.13 636.5,-596.13"/>
<text text-anchor="start" x="639.5" y="-602.33" font-family="Helvetica,sans-Serif" font-size="11.00">...</text>
<polygon fill="#ffffff" stroke="transparent" points="636.5,-578.13 636.5,-596.13 741.5,-596.13 741.5,-578.13 636.5,-578.13"/>
<polygon fill="none" stroke="black" points="636.5,-578.13 636.5,-596.13 741.5,-596.13 741.5,-578.13 636.5,-578.13"/>
<text text-anchor="start" x="639.5" y="-584.33" font-family="Helvetica,sans-Serif" font-size="11.00">&lt; 1</text>
<polygon fill="#ffffff" stroke="transparent" points="741.5,-578.13 741.5,-596.13 796.5,-596.13 796.5,-578.13 741.5,-578.13"/>
<polygon fill="none" stroke="black" points="741.5,-578.13 741.5,-596.13 796.5,-596.13 796.5,-578.13 741.5,-578.13"/>
<text text-anchor="start" x="786.5" y="-584.33" font-family="Helvetica,sans-Serif" font-size="11.00"> &#160;</text>
<polygon fill="#ffffff" stroke="transparent" points="796.5,-578.13 796.5,-596.13 851.5,-596.13 851.5,-578.13 796.5,-578.13"/>
<polygon fill="none" stroke="black" points="796.5,-578.13 796.5,-596.13 851.5,-596.13 851.5,-578.13 796.5,-578.13"/>
<text text-anchor="start" x="841.5" y="-584.33" font-family="Helvetica,sans-Serif" font-size="11.00"> &#160;</text>
</a>
</g>
</g>
<!-- organization_report_settings&#45;&gt;organizations -->
<g id="edge18" class="edge">
<title>organization_report_settings:w&#45;&gt;organizations:e</title>
<path fill="none" stroke="black" d="M624.75,-606.21C556.16,-621.2 644.03,-788.13 560,-788.13"/>
<polygon fill="black" stroke="black" points="634.31,-601.23 635.1,-609.19 633.51,-609.35 632.71,-601.39 634.31,-601.23"/>
<polyline fill="none" stroke="black" points="635.5,-605.13 631.52,-605.53 "/>
<ellipse fill="none" stroke="black" cx="628.34" cy="-605.85" rx="3.2" ry="3.2"/>
</g>
<!-- organization_users -->
<g id="node15" class="node">
<title>organization_users</title>
<g id="a_node15"><a xlink:href="../../tables/organization_users.html" xlink:title="organization_users" target="_top">
<polygon fill="#ffffff" stroke="transparent" points="665,-1014.13 665,-1072.13 822,-1072.13 822,-1014.13 665,-1014.13"/>
<polygon fill="#f5f5f5" stroke="transparent" points="665.5,-1050.13 665.5,-1072.13 822.5,-1072.13 822.5,-1050.13 665.5,-1050.13"/>
<polygon fill="none" stroke="black" points="665.5,-1050.13 665.5,-1072.13 822.5,-1072.13 822.5,-1050.13 665.5,-1050.13"/>
<text text-anchor="start" x="670.5" y="-1059.33" font-family="Helvetica,sans-Serif" font-weight="bold" font-size="11.00">organization_users</text>
<text text-anchor="start" x="783.5" y="-1058.33" font-family="Helvetica,sans-Serif" font-size="11.00">[table]</text>
<polygon fill="none" stroke="black" points="665.5,-1032.13 665.5,-1050.13 822.5,-1050.13 822.5,-1032.13 665.5,-1032.13"/>
<text text-anchor="start" x="668.5" y="-1038.33" font-family="Helvetica,sans-Serif" font-size="11.00">...</text>
<polygon fill="#ffffff" stroke="transparent" points="665.5,-1014.13 665.5,-1032.13 741.5,-1032.13 741.5,-1014.13 665.5,-1014.13"/>
<polygon fill="none" stroke="black" points="665.5,-1014.13 665.5,-1032.13 741.5,-1032.13 741.5,-1014.13 665.5,-1014.13"/>
<text text-anchor="start" x="668.5" y="-1020.33" font-family="Helvetica,sans-Serif" font-size="11.00">&lt; 5</text>
<polygon fill="#ffffff" stroke="transparent" points="741.5,-1014.13 741.5,-1032.13 781.5,-1032.13 781.5,-1014.13 741.5,-1014.13"/>
<polygon fill="none" stroke="black" points="741.5,-1014.13 741.5,-1032.13 781.5,-1032.13 781.5,-1014.13 741.5,-1014.13"/>
<text text-anchor="start" x="771.5" y="-1020.33" font-family="Helvetica,sans-Serif" font-size="11.00"> &#160;</text>
<polygon fill="#ffffff" stroke="transparent" points="781.5,-1014.13 781.5,-1032.13 822.5,-1032.13 822.5,-1014.13 781.5,-1014.13"/>
<polygon fill="none" stroke="black" points="781.5,-1014.13 781.5,-1032.13 822.5,-1032.13 822.5,-1014.13 781.5,-1014.13"/>
<text text-anchor="start" x="812.5" y="-1020.33" font-family="Helvetica,sans-Serif" font-size="11.00"> &#160;</text>
</a>
</g>
</g>
<!-- organization_users&#45;&gt;users -->
<g id="edge19" class="edge">
<title>organization_users:w&#45;&gt;users:e</title>
<path fill="none" stroke="black" d="M649.9,-1040.88C523.96,-1036.43 499.06,-973.93 377,-919.13 338.19,-901.71 333.04,-878.13 290.5,-878.13"/>
<polygon fill="black" stroke="black" points="656.5,-1040.99 664.44,-1044.73 660.5,-1041.06 664.5,-1041.13 664.5,-1041.13 664.5,-1041.13 660.5,-1041.06 664.56,-1037.53 656.5,-1040.99 656.5,-1040.99"/>
<ellipse fill="none" stroke="black" cx="653.3" cy="-1040.94" rx="3.2" ry="3.2"/>
</g>
<!-- organization_users&#45;&gt;users -->
<g id="edge20" class="edge">
<title>organization_users:w&#45;&gt;users:e</title>
<path fill="none" stroke="black" d="M651.63,-1034.38C586.3,-1002.63 295.57,-872.76 290.5,-878.13"/>
<polygon fill="black" stroke="black" points="657.42,-1037.41 662.83,-1044.32 660.96,-1039.27 664.5,-1041.13 664.5,-1041.13 664.5,-1041.13 660.96,-1039.27 666.17,-1037.94 657.42,-1037.41 657.42,-1037.41"/>
<ellipse fill="none" stroke="black" cx="654.58" cy="-1035.93" rx="3.2" ry="3.2"/>
</g>
<!-- organization_users&#45;&gt;users -->
<g id="edge22" class="edge">
<title>organization_users:w&#45;&gt;users:e</title>
<path fill="none" stroke="black" d="M650.32,-1037.6C582.51,-1013.77 295.54,-884.35 290.5,-878.13"/>
<polygon fill="black" stroke="black" points="656.74,-1039.2 663.63,-1044.62 660.62,-1040.16 664.5,-1041.13 664.5,-1041.13 664.5,-1041.13 660.62,-1040.16 665.37,-1037.64 656.74,-1039.2 656.74,-1039.2"/>
<ellipse fill="none" stroke="black" cx="653.63" cy="-1038.42" rx="3.2" ry="3.2"/>
</g>
<!-- organization_users&#45;&gt;organizations -->
<g id="edge21" class="edge">
<title>organization_users:w&#45;&gt;organizations:e</title>
<path fill="none" stroke="black" d="M650.11,-1040.18C626.76,-1036.73 616.08,-1023.86 600,-1000.13 573.11,-960.44 607.94,-788.13 560,-788.13"/>
<polygon fill="black" stroke="black" points="656.52,-1040.6 664.26,-1044.72 660.51,-1040.87 664.5,-1041.13 664.5,-1041.13 664.5,-1041.13 660.51,-1040.87 664.74,-1037.54 656.52,-1040.6 656.52,-1040.6"/>
<ellipse fill="none" stroke="black" cx="653.32" cy="-1040.39" rx="3.2" ry="3.2"/>
</g>
<!-- seed_fund_reports -->
<g id="node17" class="node">
<title>seed_fund_reports</title>
<g id="a_node17"><a xlink:href="../../tables/seed_fund_reports.html" xlink:title="seed_fund_reports" target="_top">
<polygon fill="#ffffff" stroke="transparent" points="959,-1239.13 959,-1297.13 1112,-1297.13 1112,-1239.13 959,-1239.13"/>
<polygon fill="#f5f5f5" stroke="transparent" points="959.5,-1275.13 959.5,-1297.13 1112.5,-1297.13 1112.5,-1275.13 959.5,-1275.13"/>
<polygon fill="none" stroke="black" points="959.5,-1275.13 959.5,-1297.13 1112.5,-1297.13 1112.5,-1275.13 959.5,-1275.13"/>
<text text-anchor="start" x="964.5" y="-1284.33" font-family="Helvetica,sans-Serif" font-weight="bold" font-size="11.00">seed_fund_reports</text>
<text text-anchor="start" x="1073.5" y="-1283.33" font-family="Helvetica,sans-Serif" font-size="11.00">[table]</text>
<polygon fill="none" stroke="black" points="959.5,-1257.13 959.5,-1275.13 1112.5,-1275.13 1112.5,-1257.13 959.5,-1257.13"/>
<text text-anchor="start" x="962.5" y="-1263.33" font-family="Helvetica,sans-Serif" font-size="11.00">...</text>
<polygon fill="#ffffff" stroke="transparent" points="959.5,-1239.13 959.5,-1257.13 1029.5,-1257.13 1029.5,-1239.13 959.5,-1239.13"/>
<polygon fill="none" stroke="black" points="959.5,-1239.13 959.5,-1257.13 1029.5,-1257.13 1029.5,-1239.13 959.5,-1239.13"/>
<text text-anchor="start" x="962.5" y="-1245.33" font-family="Helvetica,sans-Serif" font-size="11.00">&lt; 6</text>
<polygon fill="#ffffff" stroke="transparent" points="1029.5,-1239.13 1029.5,-1257.13 1066.5,-1257.13 1066.5,-1239.13 1029.5,-1239.13"/>
<polygon fill="none" stroke="black" points="1029.5,-1239.13 1029.5,-1257.13 1066.5,-1257.13 1066.5,-1239.13 1029.5,-1239.13"/>
<text text-anchor="start" x="1056.5" y="-1245.33" font-family="Helvetica,sans-Serif" font-size="11.00"> &#160;</text>
<polygon fill="#ffffff" stroke="transparent" points="1066.5,-1239.13 1066.5,-1257.13 1112.5,-1257.13 1112.5,-1239.13 1066.5,-1239.13"/>
<polygon fill="none" stroke="black" points="1066.5,-1239.13 1066.5,-1257.13 1112.5,-1257.13 1112.5,-1239.13 1066.5,-1239.13"/>
<text text-anchor="start" x="1093.5" y="-1245.33" font-family="Helvetica,sans-Serif" font-size="11.00">2 &gt;</text>
</a>
</g>
</g>
<!-- seed_fund_reports&#45;&gt;users -->
<g id="edge33" class="edge">
<title>seed_fund_reports:w&#45;&gt;users:e</title>
<path fill="none" stroke="black" d="M943.81,-1266.19C686.98,-1268.19 547.46,-1320.19 377,-1122.13 301.95,-1034.92 405.56,-878.13 290.5,-878.13"/>
<polygon fill="black" stroke="black" points="950.5,-1266.16 958.51,-1269.73 954.5,-1266.15 958.5,-1266.13 958.5,-1266.13 958.5,-1266.13 954.5,-1266.15 958.49,-1262.53 950.5,-1266.16 950.5,-1266.16"/>
<ellipse fill="none" stroke="black" cx="947.3" cy="-1266.18" rx="3.2" ry="3.2"/>
</g>
<!-- seed_fund_reports&#45;&gt;users -->
<g id="edge34" class="edge">
<title>seed_fund_reports:w&#45;&gt;users:e</title>
<path fill="none" stroke="black" d="M943.78,-1265.86C686.55,-1262.08 546.88,-1311.24 377,-1112.13 303.41,-1025.88 403.88,-872.13 290.5,-878.13"/>
<polygon fill="black" stroke="black" points="950.5,-1265.98 958.43,-1269.73 954.5,-1266.06 958.5,-1266.13 958.5,-1266.13 958.5,-1266.13 954.5,-1266.06 958.57,-1262.53 950.5,-1265.98 950.5,-1265.98"/>
<ellipse fill="none" stroke="black" cx="947.3" cy="-1265.92" rx="3.2" ry="3.2"/>
</g>
<!-- seed_fund_reports&#45;&gt;users -->
<g id="edge37" class="edge">
<title>seed_fund_reports:w&#45;&gt;users:e</title>
<path fill="none" stroke="black" d="M943.78,-1266.57C686.55,-1275.08 546.88,-1324.24 377,-1125.13 303.41,-1038.88 403.88,-885.13 290.5,-878.13"/>
<polygon fill="black" stroke="black" points="950.5,-1266.37 958.61,-1269.73 954.5,-1266.25 958.5,-1266.13 958.5,-1266.13 958.5,-1266.13 954.5,-1266.25 958.39,-1262.53 950.5,-1266.37 950.5,-1266.37"/>
<ellipse fill="none" stroke="black" cx="947.3" cy="-1266.46" rx="3.2" ry="3.2"/>
</g>
<!-- seed_fund_reports&#45;&gt;organizations -->
<g id="edge35" class="edge">
<title>seed_fund_reports:w&#45;&gt;organizations:e</title>
<path fill="none" stroke="black" d="M944.36,-1263.37C860.38,-1227.23 965.66,-848.07 887,-780.13 838.73,-738.44 663.47,-773.85 600,-780.13 581.96,-781.92 578.13,-788.13 560,-788.13"/>
<polygon fill="black" stroke="black" points="950.65,-1264.6 957.81,-1269.66 954.57,-1265.36 958.5,-1266.13 958.5,-1266.13 958.5,-1266.13 954.57,-1265.36 959.19,-1262.6 950.65,-1264.6 950.65,-1264.6"/>
<ellipse fill="none" stroke="black" cx="947.51" cy="-1263.98" rx="3.2" ry="3.2"/>
</g>
<!-- seed_fund_reports&#45;&gt;projects -->
<g id="edge36" class="edge">
<title>seed_fund_reports:w&#45;&gt;projects:e</title>
<path fill="none" stroke="black" d="M944.05,-1265.26C838.56,-1251.46 967.03,-1077.16 887,-980.13 856.89,-943.62 837.82,-935.13 790.5,-935.13"/>
<polygon fill="black" stroke="black" points="950.51,-1265.65 958.28,-1269.72 954.51,-1265.89 958.5,-1266.13 958.5,-1266.13 958.5,-1266.13 954.51,-1265.89 958.72,-1262.54 950.51,-1265.65 950.51,-1265.65"/>
<ellipse fill="none" stroke="black" cx="947.32" cy="-1265.46" rx="3.2" ry="3.2"/>
</g>
<!-- splats -->
<g id="node18" class="node">
<title>splats</title>
<g id="a_node18"><a xlink:href="../../tables/splats.html" xlink:title="splats" target="_top">
<polygon fill="#ffffff" stroke="transparent" points="704,-790.13 704,-848.13 783,-848.13 783,-790.13 704,-790.13"/>
<polygon fill="#f5f5f5" stroke="transparent" points="704.5,-826.13 704.5,-848.13 783.5,-848.13 783.5,-826.13 704.5,-826.13"/>
<polygon fill="none" stroke="black" points="704.5,-826.13 704.5,-848.13 783.5,-848.13 783.5,-826.13 704.5,-826.13"/>
<text text-anchor="start" x="709" y="-835.33" font-family="Helvetica,sans-Serif" font-weight="bold" font-size="11.00">splats</text>
<text text-anchor="start" x="744.5" y="-834.33" font-family="Helvetica,sans-Serif" font-size="11.00">[table]</text>
<polygon fill="none" stroke="black" points="704.5,-808.13 704.5,-826.13 783.5,-826.13 783.5,-808.13 704.5,-808.13"/>
<text text-anchor="start" x="707.5" y="-814.33" font-family="Helvetica,sans-Serif" font-size="11.00">...</text>
<polygon fill="#ffffff" stroke="transparent" points="704.5,-790.13 704.5,-808.13 741.5,-808.13 741.5,-790.13 704.5,-790.13"/>
<polygon fill="none" stroke="black" points="704.5,-790.13 704.5,-808.13 741.5,-808.13 741.5,-790.13 704.5,-790.13"/>
<text text-anchor="start" x="707.5" y="-796.33" font-family="Helvetica,sans-Serif" font-size="11.00">&lt; 4</text>
<polygon fill="#ffffff" stroke="transparent" points="741.5,-790.13 741.5,-808.13 762.5,-808.13 762.5,-790.13 741.5,-790.13"/>
<polygon fill="none" stroke="black" points="741.5,-790.13 741.5,-808.13 762.5,-808.13 762.5,-790.13 741.5,-790.13"/>
<text text-anchor="start" x="752.5" y="-796.33" font-family="Helvetica,sans-Serif" font-size="11.00"> &#160;</text>
<polygon fill="#ffffff" stroke="transparent" points="762.5,-790.13 762.5,-808.13 783.5,-808.13 783.5,-790.13 762.5,-790.13"/>
<polygon fill="none" stroke="black" points="762.5,-790.13 762.5,-808.13 783.5,-808.13 783.5,-790.13 762.5,-790.13"/>
<text text-anchor="start" x="773.5" y="-796.33" font-family="Helvetica,sans-Serif" font-size="11.00"> &#160;</text>
</a>
</g>
</g>
<!-- splats&#45;&gt;users -->
<g id="edge42" class="edge">
<title>splats:w&#45;&gt;users:e</title>
<path fill="none" stroke="black" d="M689.11,-817.99C623.96,-823.76 409.98,-856.81 377,-862.13 338.4,-868.36 329.6,-878.13 290.5,-878.13"/>
<polygon fill="black" stroke="black" points="695.51,-817.61 703.71,-820.72 699.51,-817.37 703.5,-817.13 703.5,-817.13 703.5,-817.13 699.51,-817.37 703.29,-813.54 695.51,-817.61 695.51,-817.61"/>
<ellipse fill="none" stroke="black" cx="692.32" cy="-817.8" rx="3.2" ry="3.2"/>
</g>
<!-- splats&#45;&gt;organizations -->
<g id="edge43" class="edge">
<title>splats:w&#45;&gt;organizations:e</title>
<path fill="none" stroke="black" d="M688.81,-816.6C635.96,-812.67 619.86,-788.13 560,-788.13"/>
<polygon fill="black" stroke="black" points="695.51,-816.84 703.37,-820.73 699.5,-816.99 703.5,-817.13 703.5,-817.13 703.5,-817.13 699.5,-816.99 703.63,-813.53 695.51,-816.84 695.51,-816.84"/>
<ellipse fill="none" stroke="black" cx="692.31" cy="-816.73" rx="3.2" ry="3.2"/>
</g>
<!-- uploads -->
<g id="node19" class="node">
<title>uploads</title>
<g id="a_node19"><a xlink:href="../../tables/uploads.html" xlink:title="uploads" target="_top">
<polygon fill="#ffffff" stroke="transparent" points="990,-156.13 990,-214.13 1081,-214.13 1081,-156.13 990,-156.13"/>
<polygon fill="#f5f5f5" stroke="transparent" points="990.5,-192.13 990.5,-214.13 1081.5,-214.13 1081.5,-192.13 990.5,-192.13"/>
<polygon fill="none" stroke="black" points="990.5,-192.13 990.5,-214.13 1081.5,-214.13 1081.5,-192.13 990.5,-192.13"/>
<text text-anchor="start" x="995.5" y="-201.33" font-family="Helvetica,sans-Serif" font-weight="bold" font-size="11.00">uploads</text>
<text text-anchor="start" x="1042.5" y="-200.33" font-family="Helvetica,sans-Serif" font-size="11.00">[table]</text>
<polygon fill="none" stroke="black" points="990.5,-174.13 990.5,-192.13 1081.5,-192.13 1081.5,-174.13 990.5,-174.13"/>
<text text-anchor="start" x="993.5" y="-180.33" font-family="Helvetica,sans-Serif" font-size="11.00">...</text>
<polygon fill="#ffffff" stroke="transparent" points="990.5,-156.13 990.5,-174.13 1029.5,-174.13 1029.5,-156.13 990.5,-156.13"/>
<polygon fill="none" stroke="black" points="990.5,-156.13 990.5,-174.13 1029.5,-174.13 1029.5,-156.13 990.5,-156.13"/>
<text text-anchor="start" x="993.5" y="-162.33" font-family="Helvetica,sans-Serif" font-size="11.00">&lt; 5</text>
<polygon fill="#ffffff" stroke="transparent" points="1029.5,-156.13 1029.5,-174.13 1050.5,-174.13 1050.5,-156.13 1029.5,-156.13"/>
<polygon fill="none" stroke="black" points="1029.5,-156.13 1029.5,-174.13 1050.5,-174.13 1050.5,-156.13 1029.5,-156.13"/>
<text text-anchor="start" x="1040.5" y="-162.33" font-family="Helvetica,sans-Serif" font-size="11.00"> &#160;</text>
<polygon fill="#ffffff" stroke="transparent" points="1050.5,-156.13 1050.5,-174.13 1081.5,-174.13 1081.5,-156.13 1050.5,-156.13"/>
<polygon fill="none" stroke="black" points="1050.5,-156.13 1050.5,-174.13 1081.5,-174.13 1081.5,-156.13 1050.5,-156.13"/>
<text text-anchor="start" x="1062.5" y="-162.33" font-family="Helvetica,sans-Serif" font-size="11.00">1 &gt;</text>
</a>
</g>
</g>
<!-- uploads&#45;&gt;users -->
<g id="edge44" class="edge">
<title>uploads:w&#45;&gt;users:e</title>
<path fill="none" stroke="black" d="M974.97,-182.14C939.08,-176.94 929.59,-152.77 887,-145.13 775.2,-125.07 453.3,-94.99 377,-179.13 331.1,-229.74 364.69,-728.02 344,-793.13 330.48,-835.67 335.14,-878.13 290.5,-878.13"/>
<polygon fill="black" stroke="black" points="981.52,-182.59 989.26,-186.72 985.51,-182.86 989.5,-183.13 989.5,-183.13 989.5,-183.13 985.51,-182.86 989.74,-179.54 981.52,-182.59 981.52,-182.59"/>
<ellipse fill="none" stroke="black" cx="978.33" cy="-182.37" rx="3.2" ry="3.2"/>
</g>
<!-- uploads&#45;&gt;facilities -->
<g id="edge45" class="edge">
<title>uploads:w&#45;&gt;facilities:e</title>
<path fill="none" stroke="black" d="M974.68,-183.13C898.7,-183.13 874.34,-183.13 791.5,-183.13"/>
<polygon fill="black" stroke="black" points="981.5,-183.13 989.5,-186.73 985.5,-183.13 989.5,-183.13 989.5,-183.13 989.5,-183.13 985.5,-183.13 989.5,-179.53 981.5,-183.13 981.5,-183.13"/>
<ellipse fill="none" stroke="black" cx="978.3" cy="-183.13" rx="3.2" ry="3.2"/>
</g>
<!-- uploads&#45;&gt;organizations -->
<g id="edge46" class="edge">
<title>uploads:w&#45;&gt;organizations:e</title>
<path fill="none" stroke="black" d="M974.94,-184.24C889.28,-198.47 971.32,-345.67 887,-406.13 834.89,-443.5 645.55,-390.99 600,-436.13 544.08,-491.55 638.73,-788.13 560,-788.13"/>
<polygon fill="black" stroke="black" points="981.52,-183.74 989.77,-186.72 985.51,-183.44 989.5,-183.13 989.5,-183.13 989.5,-183.13 985.51,-183.44 989.23,-179.54 981.52,-183.74 981.52,-183.74"/>
<ellipse fill="none" stroke="black" cx="978.33" cy="-183.98" rx="3.2" ry="3.2"/>
</g>
<!-- user_preferences -->
<g id="node20" class="node">
<title>user_preferences</title>
<g id="a_node20"><a xlink:href="../../tables/user_preferences.html" xlink:title="user_preferences" target="_top">
<polygon fill="#ffffff" stroke="transparent" points="670.5,-235.13 670.5,-293.13 816.5,-293.13 816.5,-235.13 670.5,-235.13"/>
<polygon fill="#f5f5f5" stroke="transparent" points="670.5,-271.13 670.5,-293.13 816.5,-293.13 816.5,-271.13 670.5,-271.13"/>
<polygon fill="none" stroke="black" points="670.5,-271.13 670.5,-293.13 816.5,-293.13 816.5,-271.13 670.5,-271.13"/>
<text text-anchor="start" x="675.5" y="-280.33" font-family="Helvetica,sans-Serif" font-weight="bold" font-size="11.00">user_preferences</text>
<text text-anchor="start" x="777.5" y="-279.33" font-family="Helvetica,sans-Serif" font-size="11.00">[table]</text>
<polygon fill="none" stroke="black" points="670.5,-253.13 670.5,-271.13 816.5,-271.13 816.5,-253.13 670.5,-253.13"/>
<text text-anchor="start" x="673.5" y="-259.33" font-family="Helvetica,sans-Serif" font-size="11.00">...</text>
<polygon fill="#ffffff" stroke="transparent" points="670.5,-235.13 670.5,-253.13 741.5,-253.13 741.5,-235.13 670.5,-235.13"/>
<polygon fill="none" stroke="black" points="670.5,-235.13 670.5,-253.13 741.5,-253.13 741.5,-235.13 670.5,-235.13"/>
<text text-anchor="start" x="673.5" y="-241.33" font-family="Helvetica,sans-Serif" font-size="11.00">&lt; 2</text>
<polygon fill="#ffffff" stroke="transparent" points="741.5,-235.13 741.5,-253.13 778.5,-253.13 778.5,-235.13 741.5,-235.13"/>
<polygon fill="none" stroke="black" points="741.5,-235.13 741.5,-253.13 778.5,-253.13 778.5,-235.13 741.5,-235.13"/>
<text text-anchor="start" x="768.5" y="-241.33" font-family="Helvetica,sans-Serif" font-size="11.00"> &#160;</text>
<polygon fill="#ffffff" stroke="transparent" points="778.5,-235.13 778.5,-253.13 816.5,-253.13 816.5,-235.13 778.5,-235.13"/>
<polygon fill="none" stroke="black" points="778.5,-235.13 778.5,-253.13 816.5,-253.13 816.5,-235.13 778.5,-235.13"/>
<text text-anchor="start" x="806.5" y="-241.33" font-family="Helvetica,sans-Serif" font-size="11.00"> &#160;</text>
</a>
</g>
</g>
<!-- user_preferences&#45;&gt;users -->
<g id="edge48" class="edge">
<title>user_preferences:w&#45;&gt;users:e</title>
<path fill="none" stroke="black" d="M658.69,-262.21C516.77,-264.19 455.96,-306.27 377,-429.13 322.06,-514.61 392.11,-878.13 290.5,-878.13"/>
<polygon fill="black" stroke="black" points="668.67,-258.14 668.73,-266.14 667.13,-266.15 667.07,-258.15 668.67,-258.14"/>
<polyline fill="none" stroke="black" points="669.5,-262.13 665.5,-262.16 "/>
<ellipse fill="none" stroke="black" cx="662.3" cy="-262.18" rx="3.2" ry="3.2"/>
</g>
<!-- user_preferences&#45;&gt;organizations -->
<g id="edge47" class="edge">
<title>user_preferences:w&#45;&gt;organizations:e</title>
<path fill="none" stroke="black" d="M654.85,-262.86C629.21,-265.72 616.22,-277.26 600,-303.13 571.28,-348.94 614.07,-788.13 560,-788.13"/>
<polygon fill="black" stroke="black" points="661.51,-262.53 669.68,-265.73 665.5,-262.33 669.5,-262.13 669.5,-262.13 669.5,-262.13 665.5,-262.33 669.32,-258.54 661.51,-262.53 661.51,-262.53"/>
<ellipse fill="none" stroke="black" cx="658.31" cy="-262.69" rx="3.2" ry="3.2"/>
</g>
<!-- tracking.draft_planting_sites -->
<g id="node21" class="node">
<title>tracking.draft_planting_sites</title>
<g id="a_node21"><a xlink:href="../../../tracking/tables/draft_planting_sites.html" xlink:title="tracking.draft_planting_sites" target="_top">
<polygon fill="#ffffff" stroke="transparent" points="928,-74.13 928,-132.13 1143,-132.13 1143,-74.13 928,-74.13"/>
<polygon fill="#f5f5f5" stroke="transparent" points="928.5,-110.13 928.5,-132.13 1143.5,-132.13 1143.5,-110.13 928.5,-110.13"/>
<polygon fill="none" stroke="black" points="928.5,-110.13 928.5,-132.13 1143.5,-132.13 1143.5,-110.13 928.5,-110.13"/>
<text text-anchor="start" x="933.5" y="-119.33" font-family="Helvetica,sans-Serif" font-weight="bold" font-size="11.00">tracking.draft_planting_sites</text>
<text text-anchor="start" x="1104.5" y="-118.33" font-family="Helvetica,sans-Serif" font-size="11.00">[table]</text>
<polygon fill="none" stroke="black" points="928.5,-92.13 928.5,-110.13 1143.5,-110.13 1143.5,-92.13 928.5,-92.13"/>
<text text-anchor="start" x="931.5" y="-98.33" font-family="Helvetica,sans-Serif" font-size="11.00">...</text>
<polygon fill="#ffffff" stroke="transparent" points="928.5,-74.13 928.5,-92.13 1020.5,-92.13 1020.5,-74.13 928.5,-74.13"/>
<polygon fill="none" stroke="black" points="928.5,-74.13 928.5,-92.13 1020.5,-92.13 1020.5,-74.13 928.5,-74.13"/>
<text text-anchor="start" x="931.5" y="-80.33" font-family="Helvetica,sans-Serif" font-size="11.00">&lt; 6</text>
<polygon fill="#ffffff" stroke="transparent" points="1020.5,-74.13 1020.5,-92.13 1095.5,-92.13 1095.5,-74.13 1020.5,-74.13"/>
<polygon fill="none" stroke="black" points="1020.5,-74.13 1020.5,-92.13 1095.5,-92.13 1095.5,-74.13 1020.5,-74.13"/>
<text text-anchor="start" x="1058.5" y="-80.33" font-family="Helvetica,sans-Serif" font-size="11.00">0 rows</text>
<polygon fill="#ffffff" stroke="transparent" points="1095.5,-74.13 1095.5,-92.13 1143.5,-92.13 1143.5,-74.13 1095.5,-74.13"/>
<polygon fill="none" stroke="black" points="1095.5,-74.13 1095.5,-92.13 1143.5,-92.13 1143.5,-74.13 1095.5,-74.13"/>
<text text-anchor="start" x="1133.5" y="-80.33" font-family="Helvetica,sans-Serif" font-size="11.00"> &#160;</text>
</a>
</g>
</g>
<!-- tracking.draft_planting_sites&#45;&gt;users -->
<g id="edge51" class="edge">
<title>tracking.draft_planting_sites:w&#45;&gt;users:e</title>
<path fill="none" stroke="black" d="M912.99,-100.87C780.12,-96.51 460.81,-39.24 377,-122.13 323.93,-174.62 366.45,-721.94 344,-793.13 330.58,-835.7 335.14,-878.13 290.5,-878.13"/>
<polygon fill="black" stroke="black" points="919.5,-100.99 927.44,-104.73 923.5,-101.06 927.5,-101.13 927.5,-101.13 927.5,-101.13 923.5,-101.06 927.56,-97.53 919.5,-100.99 919.5,-100.99"/>
<ellipse fill="none" stroke="black" cx="916.3" cy="-100.93" rx="3.2" ry="3.2"/>
</g>
<!-- tracking.draft_planting_sites&#45;&gt;users -->
<g id="edge52" class="edge">
<title>tracking.draft_planting_sites:w&#45;&gt;users:e</title>
<path fill="none" stroke="black" d="M912.99,-100.89C780.06,-96.78 460.55,-42.92 377,-126.13 324.43,-178.49 366.32,-722.37 344,-793.13 330.57,-835.7 335.14,-878.13 290.5,-878.13"/>
<polygon fill="black" stroke="black" points="919.5,-101 927.44,-104.73 923.5,-101.06 927.5,-101.13 927.5,-101.13 927.5,-101.13 923.5,-101.06 927.56,-97.53 919.5,-101 919.5,-101"/>
<ellipse fill="none" stroke="black" cx="916.3" cy="-100.94" rx="3.2" ry="3.2"/>
</g>
<!-- tracking.draft_planting_sites&#45;&gt;organizations -->
<g id="edge53" class="edge">
<title>tracking.draft_planting_sites:w&#45;&gt;organizations:e</title>
<path fill="none" stroke="black" d="M913.99,-106.12C875.31,-140.53 928.81,-342.42 887,-382.13 840.58,-426.22 645.67,-362.27 600,-407.13 539.27,-466.79 645.13,-788.13 560,-788.13"/>
<polygon fill="black" stroke="black" points="920,-103.9 928.75,-104.51 923.75,-102.52 927.5,-101.13 927.5,-101.13 927.5,-101.13 923.75,-102.52 926.25,-97.75 920,-103.9 920,-103.9"/>
<ellipse fill="none" stroke="black" cx="916.99" cy="-105.01" rx="3.2" ry="3.2"/>
</g>
<!-- tracking.draft_planting_sites&#45;&gt;projects -->
<g id="edge54" class="edge">
<title>tracking.draft_planting_sites:w&#45;&gt;projects:e</title>
<path fill="none" stroke="black" d="M913.95,-107.33C852.69,-175.61 923.23,-782.66 887,-853.13 862.04,-901.68 845.09,-929.13 790.5,-935.13"/>
<polygon fill="black" stroke="black" points="920.23,-104.46 929,-104.4 923.86,-102.8 927.5,-101.13 927.5,-101.13 927.5,-101.13 923.86,-102.8 926,-97.86 920.23,-104.46 920.23,-104.46"/>
<ellipse fill="none" stroke="black" cx="917.32" cy="-105.79" rx="3.2" ry="3.2"/>
</g>
<!-- tracking.draft_planting_sites&#45;&gt;projects -->
<g id="edge55" class="edge">
<title>tracking.draft_planting_sites:w&#45;&gt;projects:e</title>
<path fill="none" stroke="black" d="M914.72,-108.59C852.11,-183.55 923.38,-795.37 887,-866.13 862.04,-914.68 845.09,-942.13 790.5,-935.13"/>
<polygon fill="black" stroke="black" points="920.59,-105.17 929.32,-104.24 924.05,-103.15 927.5,-101.13 927.5,-101.13 927.5,-101.13 924.05,-103.15 925.68,-98.02 920.59,-105.17 920.59,-105.17"/>
<ellipse fill="none" stroke="black" cx="917.83" cy="-106.78" rx="3.2" ry="3.2"/>
</g>
<!-- tracking.draft_planting_sites&#45;&gt;time_zones -->
<g id="edge56" class="edge">
<title>tracking.draft_planting_sites:w&#45;&gt;time_zones:e</title>
<path fill="none" stroke="black" d="M913.45,-97.07C905.1,-91.3 901.19,-81.02 887,-77.13 668.39,-17.22 596.23,-19.55 377,-77.13 269.4,-105.39 218.94,-106.41 159,-200.13 129.39,-246.43 173.96,-693.13 119,-693.13"/>
<polygon fill="black" stroke="black" points="919.81,-98.91 926.5,-104.59 923.66,-100.02 927.5,-101.13 927.5,-101.13 927.5,-101.13 923.66,-100.02 928.5,-97.67 919.81,-98.91 919.81,-98.91"/>
<ellipse fill="none" stroke="black" cx="916.74" cy="-98.02" rx="3.2" ry="3.2"/>
</g>
<!-- tracking.monitoring_plots -->
<g id="node22" class="node">
<title>tracking.monitoring_plots</title>
<g id="a_node22"><a xlink:href="../../../tracking/tables/monitoring_plots.html" xlink:title="tracking.monitoring_plots" target="_top">
<polygon fill="#ffffff" stroke="transparent" points="644,-1302.13 644,-1360.13 843,-1360.13 843,-1302.13 644,-1302.13"/>
<polygon fill="#f5f5f5" stroke="transparent" points="644.5,-1338.13 644.5,-1360.13 843.5,-1360.13 843.5,-1338.13 644.5,-1338.13"/>
<polygon fill="none" stroke="black" points="644.5,-1338.13 644.5,-1360.13 843.5,-1360.13 843.5,-1338.13 644.5,-1338.13"/>
<text text-anchor="start" x="649.5" y="-1347.33" font-family="Helvetica,sans-Serif" font-weight="bold" font-size="11.00">tracking.monitoring_plots</text>
<text text-anchor="start" x="804.5" y="-1346.33" font-family="Helvetica,sans-Serif" font-size="11.00">[table]</text>
<polygon fill="none" stroke="black" points="644.5,-1320.13 644.5,-1338.13 843.5,-1338.13 843.5,-1320.13 644.5,-1320.13"/>
<text text-anchor="start" x="647.5" y="-1326.33" font-family="Helvetica,sans-Serif" font-size="11.00">...</text>
<polygon fill="#ffffff" stroke="transparent" points="644.5,-1302.13 644.5,-1320.13 728.5,-1320.13 728.5,-1302.13 644.5,-1302.13"/>
<polygon fill="none" stroke="black" points="644.5,-1302.13 644.5,-1320.13 728.5,-1320.13 728.5,-1302.13 644.5,-1302.13"/>
<text text-anchor="start" x="647.5" y="-1308.33" font-family="Helvetica,sans-Serif" font-size="11.00">&lt; 3</text>
<polygon fill="#ffffff" stroke="transparent" points="728.5,-1302.13 728.5,-1320.13 799.5,-1320.13 799.5,-1302.13 728.5,-1302.13"/>
<polygon fill="none" stroke="black" points="728.5,-1302.13 728.5,-1320.13 799.5,-1320.13 799.5,-1302.13 728.5,-1302.13"/>
<text text-anchor="start" x="762.5" y="-1308.33" font-family="Helvetica,sans-Serif" font-size="11.00">0 rows</text>
<polygon fill="#ffffff" stroke="transparent" points="799.5,-1302.13 799.5,-1320.13 843.5,-1320.13 843.5,-1302.13 799.5,-1302.13"/>
<polygon fill="none" stroke="black" points="799.5,-1302.13 799.5,-1320.13 843.5,-1320.13 843.5,-1302.13 799.5,-1302.13"/>
<text text-anchor="start" x="833.5" y="-1308.33" font-family="Helvetica,sans-Serif" font-size="11.00"> &#160;</text>
</a>
</g>
</g>
<!-- tracking.monitoring_plots&#45;&gt;users -->
<g id="edge57" class="edge">
<title>tracking.monitoring_plots:w&#45;&gt;users:e</title>
<path fill="none" stroke="black" d="M629.05,-1329.33C518.73,-1332.32 460.48,-1367.12 377,-1288.13 241.72,-1160.13 476.73,-878.13 290.5,-878.13"/>
<polygon fill="black" stroke="black" points="635.5,-1329.24 643.55,-1332.73 639.5,-1329.19 643.5,-1329.13 643.5,-1329.13 643.5,-1329.13 639.5,-1329.19 643.45,-1325.53 635.5,-1329.24 635.5,-1329.24"/>
<ellipse fill="none" stroke="black" cx="632.3" cy="-1329.28" rx="3.2" ry="3.2"/>
</g>
<!-- tracking.monitoring_plots&#45;&gt;users -->
<g id="edge58" class="edge">
<title>tracking.monitoring_plots:w&#45;&gt;users:e</title>
<path fill="none" stroke="black" d="M629.02,-1329.31C518.44,-1332.05 460.17,-1363.83 377,-1284.13 243.79,-1156.48 474.99,-878.13 290.5,-878.13"/>
<polygon fill="black" stroke="black" points="635.5,-1329.23 643.55,-1332.73 639.5,-1329.18 643.5,-1329.13 643.5,-1329.13 643.5,-1329.13 639.5,-1329.18 643.45,-1325.53 635.5,-1329.23 635.5,-1329.23"/>
<ellipse fill="none" stroke="black" cx="632.3" cy="-1329.27" rx="3.2" ry="3.2"/>
</g>
<!-- tracking.monitoring_plots&#45;&gt;organizations -->
<g id="edge59" class="edge">
<title>tracking.monitoring_plots:w&#45;&gt;organizations:e</title>
<path fill="none" stroke="black" d="M629.23,-1326.95C602.55,-1317.34 610.27,-1277.72 600,-1241.13 586.35,-1192.48 610.53,-788.13 560,-788.13"/>
<polygon fill="black" stroke="black" points="635.59,-1327.92 642.96,-1332.69 639.55,-1328.53 643.5,-1329.13 643.5,-1329.13 643.5,-1329.13 639.55,-1328.53 644.04,-1325.57 635.59,-1327.92 635.59,-1327.92"/>
<ellipse fill="none" stroke="black" cx="632.43" cy="-1327.44" rx="3.2" ry="3.2"/>
</g>
<!-- tracking.planting_sites -->
<g id="node23" class="node">
<title>tracking.planting_sites</title>
<g id="a_node23"><a xlink:href="../../../tracking/tables/planting_sites.html" xlink:title="tracking.planting_sites" target="_top">
<polygon fill="#ffffff" stroke="transparent" points="945.5,-1363.13 945.5,-1421.13 1125.5,-1421.13 1125.5,-1363.13 945.5,-1363.13"/>
<polygon fill="#f5f5f5" stroke="transparent" points="945.5,-1399.13 945.5,-1421.13 1125.5,-1421.13 1125.5,-1399.13 945.5,-1399.13"/>
<polygon fill="none" stroke="black" points="945.5,-1399.13 945.5,-1421.13 1125.5,-1421.13 1125.5,-1399.13 945.5,-1399.13"/>
<text text-anchor="start" x="950.5" y="-1408.33" font-family="Helvetica,sans-Serif" font-weight="bold" font-size="11.00">tracking.planting_sites</text>
<text text-anchor="start" x="1086.5" y="-1407.33" font-family="Helvetica,sans-Serif" font-size="11.00">[table]</text>
<polygon fill="none" stroke="black" points="945.5,-1381.13 945.5,-1399.13 1125.5,-1399.13 1125.5,-1381.13 945.5,-1381.13"/>
<text text-anchor="start" x="948.5" y="-1387.33" font-family="Helvetica,sans-Serif" font-size="11.00">...</text>
<polygon fill="#ffffff" stroke="transparent" points="945.5,-1363.13 945.5,-1381.13 1019.5,-1381.13 1019.5,-1363.13 945.5,-1363.13"/>
<polygon fill="none" stroke="black" points="945.5,-1363.13 945.5,-1381.13 1019.5,-1381.13 1019.5,-1363.13 945.5,-1363.13"/>
<text text-anchor="start" x="948.5" y="-1369.33" font-family="Helvetica,sans-Serif" font-size="11.00">&lt; 6</text>
<polygon fill="#ffffff" stroke="transparent" points="1019.5,-1363.13 1019.5,-1381.13 1085.5,-1381.13 1085.5,-1363.13 1019.5,-1363.13"/>
<polygon fill="none" stroke="black" points="1019.5,-1363.13 1019.5,-1381.13 1085.5,-1381.13 1085.5,-1363.13 1019.5,-1363.13"/>
<text text-anchor="start" x="1048.5" y="-1369.33" font-family="Helvetica,sans-Serif" font-size="11.00">0 rows</text>
<polygon fill="#ffffff" stroke="transparent" points="1085.5,-1363.13 1085.5,-1381.13 1125.5,-1381.13 1125.5,-1363.13 1085.5,-1363.13"/>
<polygon fill="none" stroke="black" points="1085.5,-1363.13 1085.5,-1381.13 1125.5,-1381.13 1125.5,-1363.13 1085.5,-1363.13"/>
<text text-anchor="start" x="1115.5" y="-1369.33" font-family="Helvetica,sans-Serif" font-size="11.00"> &#160;</text>
</a>
</g>
</g>
<!-- tracking.planting_sites&#45;&gt;users -->
<g id="edge61" class="edge">
<title>tracking.planting_sites:w&#45;&gt;users:e</title>
<path fill="none" stroke="black" d="M929.89,-1390.23C792.55,-1391.87 463.13,-1412.99 377,-1326.13 234.21,-1182.14 493.29,-878.13 290.5,-878.13"/>
<polygon fill="black" stroke="black" points="936.5,-1390.18 944.52,-1393.73 940.5,-1390.16 944.5,-1390.13 944.5,-1390.13 944.5,-1390.13 940.5,-1390.16 944.48,-1386.53 936.5,-1390.18 936.5,-1390.18"/>
<ellipse fill="none" stroke="black" cx="933.3" cy="-1390.2" rx="3.2" ry="3.2"/>
</g>
<!-- tracking.planting_sites&#45;&gt;users -->
<g id="edge62" class="edge">
<title>tracking.planting_sites:w&#45;&gt;users:e</title>
<path fill="none" stroke="black" d="M929.87,-1390.21C792.41,-1391.64 462.53,-1409.73 377,-1322.13 236.55,-1178.28 491.54,-878.13 290.5,-878.13"/>
<polygon fill="black" stroke="black" points="936.5,-1390.18 944.52,-1393.73 940.5,-1390.15 944.5,-1390.13 944.5,-1390.13 944.5,-1390.13 940.5,-1390.15 944.48,-1386.53 936.5,-1390.18 936.5,-1390.18"/>
<ellipse fill="none" stroke="black" cx="933.3" cy="-1390.19" rx="3.2" ry="3.2"/>
</g>
<!-- tracking.planting_sites&#45;&gt;organizations -->
<g id="edge63" class="edge">
<title>tracking.planting_sites:w&#45;&gt;organizations:e</title>
<path fill="none" stroke="black" d="M930.24,-1386.46C868.55,-1350.52 944.9,-1061.21 887,-1004.13 841.38,-959.16 647.82,-1019.76 600,-977.13 535.91,-920 645.86,-788.13 560,-788.13"/>
<polygon fill="black" stroke="black" points="936.75,-1388.14 943.6,-1393.62 940.63,-1389.13 944.5,-1390.13 944.5,-1390.13 944.5,-1390.13 940.63,-1389.13 945.4,-1386.64 936.75,-1388.14 936.75,-1388.14"/>
<ellipse fill="none" stroke="black" cx="933.65" cy="-1387.34" rx="3.2" ry="3.2"/>
</g>
<!-- tracking.planting_sites&#45;&gt;projects -->
<g id="edge64" class="edge">
<title>tracking.planting_sites:w&#45;&gt;projects:e</title>
<path fill="none" stroke="black" d="M930.11,-1386.8C862.3,-1351.77 937.14,-1050.76 887,-980.13 859.61,-941.54 837.82,-935.13 790.5,-935.13"/>
<polygon fill="black" stroke="black" points="936.71,-1388.33 943.69,-1393.64 940.6,-1389.23 944.5,-1390.13 944.5,-1390.13 944.5,-1390.13 940.6,-1389.23 945.31,-1386.62 936.71,-1388.33 936.71,-1388.33"/>
<ellipse fill="none" stroke="black" cx="933.59" cy="-1387.6" rx="3.2" ry="3.2"/>
</g>
<!-- tracking.planting_sites&#45;&gt;countries -->
<g id="edge60" class="edge">
<title>tracking.planting_sites:w&#45;&gt;countries:e</title>
<path fill="none" stroke="black" d="M929.94,-1393.24C913.12,-1401.68 911.6,-1424.95 887,-1433.13 733.49,-1484.18 277.93,-1542.81 159,-1433.13 113.52,-1391.19 175.87,-878.13 114,-878.13"/>
<polygon fill="black" stroke="black" points="936.68,-1391.8 945.25,-1393.65 940.59,-1390.97 944.5,-1390.13 944.5,-1390.13 944.5,-1390.13 940.59,-1390.97 943.75,-1386.61 936.68,-1391.8 936.68,-1391.8"/>
<ellipse fill="none" stroke="black" cx="933.55" cy="-1392.47" rx="3.2" ry="3.2"/>
</g>
<!-- tracking.planting_sites&#45;&gt;time_zones -->
<g id="edge65" class="edge">
<title>tracking.planting_sites:w&#45;&gt;time_zones:e</title>
<path fill="none" stroke="black" d="M929.77,-1391.69C914.89,-1395.14 907.53,-1403.33 887,-1406.13 774.4,-1421.51 467.93,-1436.31 377,-1368.13 199.83,-1235.3 227.32,-1130.76 159,-920.13 143.2,-871.41 170.22,-693.13 119,-693.13"/>
<polygon fill="black" stroke="black" points="936.54,-1390.97 944.88,-1393.71 940.52,-1390.55 944.5,-1390.13 944.5,-1390.13 944.5,-1390.13 940.52,-1390.55 944.12,-1386.55 936.54,-1390.97 936.54,-1390.97"/>
<ellipse fill="none" stroke="black" cx="933.36" cy="-1391.31" rx="3.2" ry="3.2"/>
</g>
</g>
</svg>
