<?xml version="1.0" encoding="UTF-8" standalone="no"?>
<!DOCTYPE svg PUBLIC "-//W3C//DTD SVG 1.1//EN"
 "http://www.w3.org/Graphics/SVG/1.1/DTD/svg11.dtd">
<!-- Generated by graphviz version 2.38.0 (20140413.2041)
 -->
<!-- Title: twoDegreesRelationshipsDiagram Pages: 1 -->
<svg width="1167pt" height="1117pt"
 viewBox="0.00 0.00 1167.00 1116.81" xmlns="http://www.w3.org/2000/svg" xmlns:xlink="http://www.w3.org/1999/xlink">
<g id="graph0" class="graph" transform="scale(1 1) rotate(0) translate(4 1112.81)">
<title>twoDegreesRelationshipsDiagram</title>
<polygon fill="#ffffff" stroke="none" points="-4,4 -4,-1112.81 1163,-1112.81 1163,4 -4,4"/>
<text text-anchor="middle" x="74.5" y="-7.2" font-family="Helvetica,sans-Serif" font-size="11.00">Generated by SchemaSpy</text>
<!-- nursery.batches -->
<g id="node1" class="node"><title>nursery.batches</title>
<g id="a_node1"><a xlink:href="../../../nursery/tables/batches.html" xlink:title="nursery.batches" target="_top">
<polygon fill="#ffffff" stroke="none" points="991.5,-851.241 991.5,-909.241 1132.5,-909.241 1132.5,-851.241 991.5,-851.241"/>
<polygon fill="#f5f5f5" stroke="none" points="992,-887.241 992,-909.241 1133,-909.241 1133,-887.241 992,-887.241"/>
<polygon fill="none" stroke="black" points="992,-887.241 992,-909.241 1133,-909.241 1133,-887.241 992,-887.241"/>
<text text-anchor="start" x="997" y="-896.441" font-family="Helvetica,sans-Serif" font-weight="bold" font-size="11.00">nursery.batches</text>
<text text-anchor="start" x="1094" y="-895.441" font-family="Helvetica,sans-Serif" font-size="11.00">[table]</text>
<polygon fill="none" stroke="black" points="992,-869.241 992,-887.241 1133,-887.241 1133,-869.241 992,-869.241"/>
<text text-anchor="start" x="995" y="-875.441" font-family="Helvetica,sans-Serif" font-size="11.00">...</text>
<polygon fill="#ffffff" stroke="none" points="992,-851.241 992,-869.241 1046,-869.241 1046,-851.241 992,-851.241"/>
<polygon fill="none" stroke="black" points="992,-851.241 992,-869.241 1046,-869.241 1046,-851.241 992,-851.241"/>
<text text-anchor="start" x="995" y="-857.441" font-family="Helvetica,sans-Serif" font-size="11.00">&lt; 7</text>
<polygon fill="#ffffff" stroke="none" points="1046,-851.241 1046,-869.241 1104,-869.241 1104,-851.241 1046,-851.241"/>
<polygon fill="none" stroke="black" points="1046,-851.241 1046,-869.241 1104,-869.241 1104,-851.241 1046,-851.241"/>
<text text-anchor="start" x="1065" y="-857.441" font-family="Helvetica,sans-Serif" font-size="11.00">0 rows</text>
<polygon fill="#ffffff" stroke="none" points="1104,-851.241 1104,-869.241 1133,-869.241 1133,-851.241 1104,-851.241"/>
<polygon fill="none" stroke="black" points="1104,-851.241 1104,-869.241 1133,-869.241 1133,-851.241 1104,-851.241"/>
<text text-anchor="start" x="1123" y="-857.441" font-family="Helvetica,sans-Serif" font-size="11.00"> &#160;</text>
</a>
</g>
</g>
<!-- users -->
<g id="node2" class="node"><title>users</title>
<g id="a_node2"><a xlink:href="../../tables/users.html" xlink:title="users" target="_top">
<polygon fill="#ffffff" stroke="none" points="208.5,-693.241 208.5,-751.241 298.5,-751.241 298.5,-693.241 208.5,-693.241"/>
<polygon fill="#f5f5f5" stroke="none" points="208.5,-729.241 208.5,-751.241 298.5,-751.241 298.5,-729.241 208.5,-729.241"/>
<polygon fill="none" stroke="black" points="208.5,-729.241 208.5,-751.241 298.5,-751.241 298.5,-729.241 208.5,-729.241"/>
<text text-anchor="start" x="213.5" y="-738.441" font-family="Helvetica,sans-Serif" font-weight="bold" font-size="11.00">users</text>
<text text-anchor="start" x="259.5" y="-737.441" font-family="Helvetica,sans-Serif" font-size="11.00">[table]</text>
<polygon fill="none" stroke="black" points="208.5,-711.241 208.5,-729.241 298.5,-729.241 298.5,-711.241 208.5,-711.241"/>
<text text-anchor="start" x="211.5" y="-717.441" font-family="Helvetica,sans-Serif" font-size="11.00">...</text>
<polygon fill="#ffffff" stroke="none" points="208.5,-693.241 208.5,-711.241 231.5,-711.241 231.5,-693.241 208.5,-693.241"/>
<polygon fill="none" stroke="black" points="208.5,-693.241 208.5,-711.241 231.5,-711.241 231.5,-693.241 208.5,-693.241"/>
<text text-anchor="start" x="211.5" y="-699.441" font-family="Helvetica,sans-Serif" font-size="11.00">&lt; 3</text>
<polygon fill="#ffffff" stroke="none" points="231.5,-693.241 231.5,-711.241 268.5,-711.241 268.5,-693.241 231.5,-693.241"/>
<polygon fill="none" stroke="black" points="231.5,-693.241 231.5,-711.241 268.5,-711.241 268.5,-693.241 231.5,-693.241"/>
<text text-anchor="start" x="234.5" y="-699.441" font-family="Helvetica,sans-Serif" font-size="11.00">1 row</text>
<polygon fill="#ffffff" stroke="none" points="268.5,-693.241 268.5,-711.241 298.5,-711.241 298.5,-693.241 268.5,-693.241"/>
<polygon fill="none" stroke="black" points="268.5,-693.241 268.5,-711.241 298.5,-711.241 298.5,-693.241 268.5,-693.241"/>
<text text-anchor="start" x="271.5" y="-699.441" font-family="Helvetica,sans-Serif" font-size="11.00">62 &gt;</text>
</a>
</g>
</g>
<!-- nursery.batches&#45;&gt;users -->
<g id="edge1" class="edge"><title>nursery.batches:elipses:w&#45;&gt;users:elipses:e</title>
<path fill="none" stroke="black" d="M976.435,-879.862C916.173,-895.267 997.473,-1016.32 932,-1064.24 818.667,-1147.19 753.351,-1093.56 616,-1064.24 503.153,-1040.15 456.49,-1043.74 379,-958.241 304.106,-875.607 411.023,-720.241 299.5,-720.241"/>
<polygon fill="black" stroke="black" points="983.049,-879.126 991.398,-881.819 987.025,-878.683 991,-878.241 991,-878.241 991,-878.241 987.025,-878.683 990.602,-874.663 983.049,-879.126 983.049,-879.126"/>
<ellipse fill="none" stroke="black" cx="979.869" cy="-879.48" rx="3.2" ry="3.2"/>
</g>
<!-- nursery.batches&#45;&gt;users -->
<g id="edge3" class="edge"><title>nursery.batches:elipses:w&#45;&gt;users:elipses:e</title>
<path fill="none" stroke="black" d="M976.338,-879.924C917.837,-895.41 996.209,-1013.56 932,-1060.24 818.406,-1142.83 753.351,-1089.56 616,-1060.24 503.153,-1036.15 456.709,-1039.54 379,-954.241 305.029,-873.045 409.338,-720.241 299.5,-720.241"/>
<polygon fill="black" stroke="black" points="983.052,-879.153 991.411,-881.817 987.026,-878.697 991,-878.241 991,-878.241 991,-878.241 987.026,-878.697 990.589,-874.664 983.052,-879.153 983.052,-879.153"/>
<ellipse fill="none" stroke="black" cx="979.873" cy="-879.518" rx="3.2" ry="3.2"/>
</g>
<!-- facilities -->
<g id="node3" class="node"><title>facilities</title>
<g id="a_node3"><a xlink:href="../../tables/facilities.html" xlink:title="facilities" target="_top">
<polygon fill="#ffffff" stroke="none" points="725,-679.241 725,-737.241 823,-737.241 823,-679.241 725,-679.241"/>
<polygon fill="#f5f5f5" stroke="none" points="725,-715.241 725,-737.241 823,-737.241 823,-715.241 725,-715.241"/>
<polygon fill="none" stroke="black" points="725,-715.241 725,-737.241 823,-737.241 823,-715.241 725,-715.241"/>
<text text-anchor="start" x="730" y="-724.441" font-family="Helvetica,sans-Serif" font-weight="bold" font-size="11.00">facilities</text>
<text text-anchor="start" x="784" y="-723.441" font-family="Helvetica,sans-Serif" font-size="11.00">[table]</text>
<polygon fill="none" stroke="black" points="725,-697.241 725,-715.241 823,-715.241 823,-697.241 725,-697.241"/>
<text text-anchor="start" x="728" y="-703.441" font-family="Helvetica,sans-Serif" font-size="11.00">...</text>
<polygon fill="#ffffff" stroke="none" points="725,-679.241 725,-697.241 749,-697.241 749,-679.241 725,-679.241"/>
<polygon fill="none" stroke="black" points="725,-679.241 725,-697.241 749,-697.241 749,-679.241 725,-679.241"/>
<text text-anchor="start" x="728" y="-685.441" font-family="Helvetica,sans-Serif" font-size="11.00">&lt; 6</text>
<polygon fill="#ffffff" stroke="none" points="749,-679.241 749,-697.241 792,-697.241 792,-679.241 749,-679.241"/>
<polygon fill="none" stroke="black" points="749,-679.241 749,-697.241 792,-697.241 792,-679.241 749,-679.241"/>
<text text-anchor="start" x="753" y="-685.441" font-family="Helvetica,sans-Serif" font-size="11.00">0 rows</text>
<polygon fill="#ffffff" stroke="none" points="792,-679.241 792,-697.241 823,-697.241 823,-679.241 792,-679.241"/>
<polygon fill="none" stroke="black" points="792,-679.241 792,-697.241 823,-697.241 823,-679.241 792,-679.241"/>
<text text-anchor="start" x="796" y="-685.441" font-family="Helvetica,sans-Serif" font-size="11.00">10 &gt;</text>
</a>
</g>
</g>
<!-- nursery.batches&#45;&gt;facilities -->
<g id="edge2" class="edge"><title>nursery.batches:elipses:w&#45;&gt;facilities:elipses:e</title>
<path fill="none" stroke="black" d="M976.506,-876.242C935.851,-863.063 973.945,-787.934 932,-748.241 894.592,-712.841 875.502,-706.241 824,-706.241"/>
<polygon fill="black" stroke="black" points="983.075,-877.148 990.508,-881.807 987.037,-877.694 991,-878.241 991,-878.241 991,-878.241 987.037,-877.694 991.492,-874.674 983.075,-877.148 983.075,-877.148"/>
<ellipse fill="none" stroke="black" cx="979.905" cy="-876.711" rx="3.2" ry="3.2"/>
</g>
<!-- organizations -->
<g id="node4" class="node"><title>organizations</title>
<g id="a_node4"><a xlink:href="../../tables/organizations.html" xlink:title="organizations" target="_top">
<polygon fill="#ffffff" stroke="none" points="394,-412.241 394,-624.241 568,-624.241 568,-412.241 394,-412.241"/>
<polygon fill="#f5f5f5" stroke="none" points="394,-602.241 394,-624.241 568,-624.241 568,-602.241 394,-602.241"/>
<polygon fill="none" stroke="black" points="394,-602.241 394,-624.241 568,-624.241 568,-602.241 394,-602.241"/>
<text text-anchor="start" x="399" y="-611.441" font-family="Helvetica,sans-Serif" font-weight="bold" font-size="11.00">organizations</text>
<text text-anchor="start" x="529" y="-610.441" font-family="Helvetica,sans-Serif" font-size="11.00">[table]</text>
<polygon fill="none" stroke="black" points="394,-580.241 394,-602.241 568,-602.241 568,-580.241 394,-580.241"/>
<image xlink:href="../../images/primaryKeys.png" width="11px" height="12px" preserveAspectRatio="xMinYMin meet" x="399" y="-597.241"/>
<text text-anchor="start" x="414" y="-588.441" font-family="Helvetica,sans-Serif" font-size="11.00">id</text>
<polygon fill="none" stroke="black" points="394,-558.241 394,-580.241 568,-580.241 568,-558.241 394,-558.241"/>
<image xlink:href="../../images/foreignKeys.png" width="11px" height="12px" preserveAspectRatio="xMinYMin meet" x="399" y="-575.241"/>
<text text-anchor="start" x="414" y="-566.441" font-family="Helvetica,sans-Serif" font-size="11.00">country_code</text>
<polygon fill="none" stroke="black" points="394,-536.241 394,-558.241 568,-558.241 568,-536.241 394,-536.241"/>
<image xlink:href="../../images/foreignKeys.png" width="11px" height="12px" preserveAspectRatio="xMinYMin meet" x="399" y="-553.241"/>
<text text-anchor="start" x="414" y="-544.441" font-family="Helvetica,sans-Serif" font-size="11.00">country_subdivision_code</text>
<polygon fill="none" stroke="black" points="394,-514.241 394,-536.241 568,-536.241 568,-514.241 394,-514.241"/>
<image xlink:href="../../images/foreignKeys.png" width="11px" height="12px" preserveAspectRatio="xMinYMin meet" x="399" y="-531.241"/>
<text text-anchor="start" x="414" y="-522.441" font-family="Helvetica,sans-Serif" font-size="11.00">created_by</text>
<polygon fill="none" stroke="black" points="394,-492.241 394,-514.241 568,-514.241 568,-492.241 394,-492.241"/>
<image xlink:href="../../images/foreignKeys.png" width="11px" height="12px" preserveAspectRatio="xMinYMin meet" x="399" y="-509.241"/>
<text text-anchor="start" x="414" y="-500.441" font-family="Helvetica,sans-Serif" font-size="11.00">modified_by</text>
<polygon fill="none" stroke="black" points="394,-470.241 394,-492.241 568,-492.241 568,-470.241 394,-470.241"/>
<image xlink:href="../../images/foreignKeys.png" width="11px" height="12px" preserveAspectRatio="xMinYMin meet" x="399" y="-487.241"/>
<text text-anchor="start" x="414" y="-478.441" font-family="Helvetica,sans-Serif" font-size="11.00">time_zone</text>
<polygon fill="none" stroke="black" points="394,-448.241 394,-470.241 568,-470.241 568,-448.241 394,-448.241"/>
<image xlink:href="../../images/foreignKeys.png" width="11px" height="12px" preserveAspectRatio="xMinYMin meet" x="399" y="-465.241"/>
<text text-anchor="start" x="414" y="-456.441" font-family="Helvetica,sans-Serif" font-size="11.00">organization_type_id</text>
<polygon fill="none" stroke="black" points="394,-430.241 394,-448.241 568,-448.241 568,-430.241 394,-430.241"/>
<text text-anchor="start" x="397" y="-436.441" font-family="Helvetica,sans-Serif" font-size="11.00">...</text>
<polygon fill="#ffffff" stroke="none" points="394,-412.241 394,-430.241 456,-430.241 456,-412.241 394,-412.241"/>
<polygon fill="none" stroke="black" points="394,-412.241 394,-430.241 456,-430.241 456,-412.241 394,-412.241"/>
<text text-anchor="start" x="397" y="-418.441" font-family="Helvetica,sans-Serif" font-size="11.00">&lt; 6</text>
<polygon fill="#ffffff" stroke="none" points="456,-412.241 456,-430.241 518,-430.241 518,-412.241 456,-412.241"/>
<polygon fill="none" stroke="black" points="456,-412.241 456,-430.241 518,-430.241 518,-412.241 456,-412.241"/>
<text text-anchor="start" x="479" y="-418.441" font-family="Helvetica,sans-Serif" font-size="11.00">0 rows</text>
<polygon fill="#ffffff" stroke="none" points="518,-412.241 518,-430.241 568,-430.241 568,-412.241 518,-412.241"/>
<polygon fill="none" stroke="black" points="518,-412.241 518,-430.241 568,-430.241 568,-412.241 518,-412.241"/>
<text text-anchor="start" x="541" y="-418.441" font-family="Helvetica,sans-Serif" font-size="11.00">13 &gt;</text>
</a>
</g>
</g>
<!-- nursery.batches&#45;&gt;organizations -->
<g id="edge4" class="edge"><title>nursery.batches:elipses:w&#45;&gt;organizations:id:e</title>
<path fill="none" stroke="black" d="M977.017,-873.768C929.285,-838.482 982.624,-605.263 932,-563.241 877.968,-518.389 683.704,-544.602 616,-563.241 592.557,-569.694 593.315,-591.241 569,-591.241"/>
<polygon fill="black" stroke="black" points="983.38,-875.803 989.903,-881.67 987.19,-877.022 991,-878.241 991,-878.241 991,-878.241 987.19,-877.022 992.097,-874.812 983.38,-875.803 983.38,-875.803"/>
<ellipse fill="none" stroke="black" cx="980.333" cy="-874.828" rx="3.20001" ry="3.20001"/>
</g>
<!-- projects -->
<g id="node5" class="node"><title>projects</title>
<g id="a_node5"><a xlink:href="../../tables/projects.html" xlink:title="projects" target="_top">
<polygon fill="#ffffff" stroke="none" points="726.5,-573.241 726.5,-631.241 821.5,-631.241 821.5,-573.241 726.5,-573.241"/>
<polygon fill="#f5f5f5" stroke="none" points="727,-609.241 727,-631.241 822,-631.241 822,-609.241 727,-609.241"/>
<polygon fill="none" stroke="black" points="727,-609.241 727,-631.241 822,-631.241 822,-609.241 727,-609.241"/>
<text text-anchor="start" x="732" y="-618.441" font-family="Helvetica,sans-Serif" font-weight="bold" font-size="11.00">projects</text>
<text text-anchor="start" x="783" y="-617.441" font-family="Helvetica,sans-Serif" font-size="11.00">[table]</text>
<polygon fill="none" stroke="black" points="727,-591.241 727,-609.241 822,-609.241 822,-591.241 727,-591.241"/>
<text text-anchor="start" x="730" y="-597.441" font-family="Helvetica,sans-Serif" font-size="11.00">...</text>
<polygon fill="#ffffff" stroke="none" points="727,-573.241 727,-591.241 753,-591.241 753,-573.241 727,-573.241"/>
<polygon fill="none" stroke="black" points="727,-573.241 727,-591.241 753,-591.241 753,-573.241 727,-573.241"/>
<text text-anchor="start" x="730" y="-579.441" font-family="Helvetica,sans-Serif" font-size="11.00">&lt; 3</text>
<polygon fill="#ffffff" stroke="none" points="753,-573.241 753,-591.241 797,-591.241 797,-573.241 753,-573.241"/>
<polygon fill="none" stroke="black" points="753,-573.241 753,-591.241 797,-591.241 797,-573.241 753,-573.241"/>
<text text-anchor="start" x="758" y="-579.441" font-family="Helvetica,sans-Serif" font-size="11.00">0 rows</text>
<polygon fill="#ffffff" stroke="none" points="797,-573.241 797,-591.241 822,-591.241 822,-573.241 797,-573.241"/>
<polygon fill="none" stroke="black" points="797,-573.241 797,-591.241 822,-591.241 822,-573.241 797,-573.241"/>
<text text-anchor="start" x="802" y="-579.441" font-family="Helvetica,sans-Serif" font-size="11.00">4 &gt;</text>
</a>
</g>
</g>
<!-- nursery.batches&#45;&gt;projects -->
<g id="edge5" class="edge"><title>nursery.batches:elipses:w&#45;&gt;projects:elipses:e</title>
<path fill="none" stroke="black" d="M976.382,-877.008C904.777,-863.504 986.434,-742.23 932,-669.241 897.723,-623.28 880.335,-600.241 823,-600.241"/>
<polygon fill="black" stroke="black" points="983.028,-877.568 990.697,-881.828 987.014,-877.905 991,-878.241 991,-878.241 991,-878.241 987.014,-877.905 991.303,-874.653 983.028,-877.568 983.028,-877.568"/>
<ellipse fill="none" stroke="black" cx="979.84" cy="-877.299" rx="3.2" ry="3.2"/>
</g>
<!-- species -->
<g id="node6" class="node"><title>species</title>
<g id="a_node6"><a xlink:href="../../tables/species.html" xlink:title="species" target="_top">
<polygon fill="#ffffff" stroke="none" points="726.5,-995.241 726.5,-1053.24 821.5,-1053.24 821.5,-995.241 726.5,-995.241"/>
<polygon fill="#f5f5f5" stroke="none" points="727,-1031.24 727,-1053.24 822,-1053.24 822,-1031.24 727,-1031.24"/>
<polygon fill="none" stroke="black" points="727,-1031.24 727,-1053.24 822,-1053.24 822,-1031.24 727,-1031.24"/>
<text text-anchor="start" x="732" y="-1040.44" font-family="Helvetica,sans-Serif" font-weight="bold" font-size="11.00">species</text>
<text text-anchor="start" x="783" y="-1039.44" font-family="Helvetica,sans-Serif" font-size="11.00">[table]</text>
<polygon fill="none" stroke="black" points="727,-1013.24 727,-1031.24 822,-1031.24 822,-1013.24 727,-1013.24"/>
<text text-anchor="start" x="730" y="-1019.44" font-family="Helvetica,sans-Serif" font-size="11.00">...</text>
<polygon fill="#ffffff" stroke="none" points="727,-995.241 727,-1013.24 750,-1013.24 750,-995.241 727,-995.241"/>
<polygon fill="none" stroke="black" points="727,-995.241 727,-1013.24 750,-1013.24 750,-995.241 727,-995.241"/>
<text text-anchor="start" x="730" y="-1001.44" font-family="Helvetica,sans-Serif" font-size="11.00">&lt; 7</text>
<polygon fill="#ffffff" stroke="none" points="750,-995.241 750,-1013.24 792,-1013.24 792,-995.241 750,-995.241"/>
<polygon fill="none" stroke="black" points="750,-995.241 750,-1013.24 792,-1013.24 792,-995.241 750,-995.241"/>
<text text-anchor="start" x="753" y="-1001.44" font-family="Helvetica,sans-Serif" font-size="11.00">0 rows</text>
<polygon fill="#ffffff" stroke="none" points="792,-995.241 792,-1013.24 822,-1013.24 822,-995.241 792,-995.241"/>
<polygon fill="none" stroke="black" points="792,-995.241 792,-1013.24 822,-1013.24 822,-995.241 792,-995.241"/>
<text text-anchor="start" x="795" y="-1001.44" font-family="Helvetica,sans-Serif" font-size="11.00">12 &gt;</text>
</a>
</g>
</g>
<!-- nursery.batches&#45;&gt;species -->
<g id="edge6" class="edge"><title>nursery.batches:elipses:w&#45;&gt;species:elipses:e</title>
<path fill="none" stroke="black" d="M976.663,-880.52C943.613,-893.043 969.247,-954.055 932,-985.241 892.774,-1018.08 874.159,-1022.24 823,-1022.24"/>
<polygon fill="black" stroke="black" points="983.099,-879.497 991.565,-881.796 987.05,-878.869 991,-878.241 991,-878.241 991,-878.241 987.05,-878.869 990.435,-874.685 983.099,-879.497 983.099,-879.497"/>
<ellipse fill="none" stroke="black" cx="979.939" cy="-879.999" rx="3.2" ry="3.2"/>
</g>
<!-- countries -->
<g id="node8" class="node"><title>countries</title>
<g id="a_node8"><a xlink:href="../../tables/countries.html" xlink:title="countries" target="_top">
<polygon fill="#ffffff" stroke="none" points="12.5,-575.241 12.5,-633.241 115.5,-633.241 115.5,-575.241 12.5,-575.241"/>
<polygon fill="#f5f5f5" stroke="none" points="13,-611.241 13,-633.241 116,-633.241 116,-611.241 13,-611.241"/>
<polygon fill="none" stroke="black" points="13,-611.241 13,-633.241 116,-633.241 116,-611.241 13,-611.241"/>
<text text-anchor="start" x="18" y="-620.441" font-family="Helvetica,sans-Serif" font-weight="bold" font-size="11.00">countries</text>
<text text-anchor="start" x="77" y="-619.441" font-family="Helvetica,sans-Serif" font-size="11.00">[table]</text>
<polygon fill="none" stroke="black" points="13,-593.241 13,-611.241 116,-611.241 116,-593.241 13,-593.241"/>
<text text-anchor="start" x="16" y="-599.441" font-family="Helvetica,sans-Serif" font-size="11.00">...</text>
<polygon fill="#ffffff" stroke="none" points="13,-575.241 13,-593.241 32,-593.241 32,-575.241 13,-575.241"/>
<polygon fill="none" stroke="black" points="13,-575.241 13,-593.241 32,-593.241 32,-575.241 13,-575.241"/>
<text text-anchor="start" x="16" y="-581.441" font-family="Helvetica,sans-Serif" font-size="11.00"> &#160;</text>
<polygon fill="#ffffff" stroke="none" points="32,-575.241 32,-593.241 90,-593.241 90,-575.241 32,-575.241"/>
<polygon fill="none" stroke="black" points="32,-575.241 32,-593.241 90,-593.241 90,-575.241 32,-575.241"/>
<text text-anchor="start" x="38" y="-581.441" font-family="Helvetica,sans-Serif" font-size="11.00">249 rows</text>
<polygon fill="#ffffff" stroke="none" points="90,-575.241 90,-593.241 116,-593.241 116,-575.241 90,-575.241"/>
<polygon fill="none" stroke="black" points="90,-575.241 90,-593.241 116,-593.241 116,-575.241 90,-575.241"/>
<text text-anchor="start" x="96" y="-581.441" font-family="Helvetica,sans-Serif" font-size="11.00">4 &gt;</text>
</a>
</g>
</g>
<!-- users&#45;&gt;countries -->
<g id="edge45" class="edge"><title>users:elipses:w&#45;&gt;countries:elipses:e</title>
<path fill="none" stroke="black" d="M193.001,-717.884C147.649,-701.253 177.542,-602.241 117,-602.241"/>
<polygon fill="black" stroke="black" points="199.604,-718.957 206.922,-723.794 203.552,-719.599 207.5,-720.241 207.5,-720.241 207.5,-720.241 203.552,-719.599 208.078,-716.687 199.604,-718.957 199.604,-718.957"/>
<ellipse fill="none" stroke="black" cx="196.445" cy="-718.444" rx="3.2" ry="3.2"/>
</g>
<!-- time_zones -->
<g id="node9" class="node"><title>time_zones</title>
<g id="a_node9"><a xlink:href="../../tables/time_zones.html" xlink:title="time_zones" target="_top">
<polygon fill="#ffffff" stroke="none" points="8,-414.241 8,-472.241 120,-472.241 120,-414.241 8,-414.241"/>
<polygon fill="#f5f5f5" stroke="none" points="8,-450.241 8,-472.241 120,-472.241 120,-450.241 8,-450.241"/>
<polygon fill="none" stroke="black" points="8,-450.241 8,-472.241 120,-472.241 120,-450.241 8,-450.241"/>
<text text-anchor="start" x="13" y="-459.441" font-family="Helvetica,sans-Serif" font-weight="bold" font-size="11.00">time_zones</text>
<text text-anchor="start" x="81" y="-458.441" font-family="Helvetica,sans-Serif" font-size="11.00">[table]</text>
<polygon fill="none" stroke="black" points="8,-432.241 8,-450.241 120,-450.241 120,-432.241 8,-432.241"/>
<text text-anchor="start" x="11" y="-438.441" font-family="Helvetica,sans-Serif" font-size="11.00">...</text>
<polygon fill="#ffffff" stroke="none" points="8,-414.241 8,-432.241 38,-432.241 38,-414.241 8,-414.241"/>
<polygon fill="none" stroke="black" points="8,-414.241 8,-432.241 38,-432.241 38,-414.241 8,-414.241"/>
<text text-anchor="start" x="11" y="-420.441" font-family="Helvetica,sans-Serif" font-size="11.00"> &#160;</text>
<polygon fill="#ffffff" stroke="none" points="38,-414.241 38,-432.241 88,-432.241 88,-414.241 38,-414.241"/>
<polygon fill="none" stroke="black" points="38,-414.241 38,-432.241 88,-432.241 88,-414.241 38,-414.241"/>
<text text-anchor="start" x="49" y="-420.441" font-family="Helvetica,sans-Serif" font-size="11.00">0 rows</text>
<polygon fill="#ffffff" stroke="none" points="88,-414.241 88,-432.241 120,-432.241 120,-414.241 88,-414.241"/>
<polygon fill="none" stroke="black" points="88,-414.241 88,-432.241 120,-432.241 120,-414.241 88,-414.241"/>
<text text-anchor="start" x="100" y="-420.441" font-family="Helvetica,sans-Serif" font-size="11.00">4 &gt;</text>
</a>
</g>
</g>
<!-- users&#45;&gt;time_zones -->
<g id="edge46" class="edge"><title>users:elipses:w&#45;&gt;time_zones:elipses:e</title>
<path fill="none" stroke="black" d="M193.053,-718.558C151.351,-707.404 177.753,-642.918 161,-589.241 140.7,-524.197 189.138,-441.241 121,-441.241"/>
<polygon fill="black" stroke="black" points="199.554,-719.315 207.084,-723.817 203.527,-719.778 207.5,-720.241 207.5,-720.241 207.5,-720.241 203.527,-719.778 207.916,-716.665 199.554,-719.315 199.554,-719.315"/>
<ellipse fill="none" stroke="black" cx="196.375" cy="-718.945" rx="3.2" ry="3.2"/>
</g>
<!-- facilities&#45;&gt;users -->
<g id="edge8" class="edge"><title>facilities:elipses:w&#45;&gt;users:elipses:e</title>
<path fill="none" stroke="black" d="M709.359,-706.269C532.656,-706.969 483.292,-720.241 299.5,-720.241"/>
<polygon fill="black" stroke="black" points="716,-706.256 724.007,-709.841 720,-706.249 724,-706.241 724,-706.241 724,-706.241 720,-706.249 723.993,-702.641 716,-706.256 716,-706.256"/>
<ellipse fill="none" stroke="black" cx="712.8" cy="-706.263" rx="3.2" ry="3.2"/>
</g>
<!-- facilities&#45;&gt;users -->
<g id="edge9" class="edge"><title>facilities:elipses:w&#45;&gt;users:elipses:e</title>
<path fill="none" stroke="black" d="M709.359,-706.269C532.656,-706.969 483.292,-720.241 299.5,-720.241"/>
<polygon fill="black" stroke="black" points="716,-706.256 724.007,-709.841 720,-706.249 724,-706.241 724,-706.241 724,-706.241 720,-706.249 723.993,-702.641 716,-706.256 716,-706.256"/>
<ellipse fill="none" stroke="black" cx="712.8" cy="-706.263" rx="3.2" ry="3.2"/>
</g>
<!-- facilities&#45;&gt;organizations -->
<g id="edge10" class="edge"><title>facilities:elipses:w&#45;&gt;organizations:id:e</title>
<path fill="none" stroke="black" d="M709.479,-705.498C666.244,-700.769 655.299,-674.058 616,-642.241 592.043,-622.845 599.824,-591.241 569,-591.241"/>
<polygon fill="black" stroke="black" points="716.01,-705.832 723.816,-709.836 720.005,-706.036 724,-706.241 724,-706.241 724,-706.241 720.005,-706.036 724.184,-702.645 716.01,-705.832 716.01,-705.832"/>
<ellipse fill="none" stroke="black" cx="712.815" cy="-705.668" rx="3.2" ry="3.2"/>
</g>
<!-- facilities&#45;&gt;time_zones -->
<g id="edge11" class="edge"><title>facilities:elipses:w&#45;&gt;time_zones:elipses:e</title>
<path fill="none" stroke="black" d="M709.472,-705.789C664.207,-702.78 644.034,-684.453 616,-642.241 556.433,-552.549 664.154,-473 583,-402.241 441.634,-278.982 334.73,-331.564 161,-402.241 138.001,-411.597 145.829,-441.241 121,-441.241"/>
<polygon fill="black" stroke="black" points="716.004,-705.992 723.888,-709.839 720.002,-706.116 724,-706.241 724,-706.241 724,-706.241 720.002,-706.116 724.112,-702.642 716.004,-705.992 716.004,-705.992"/>
<ellipse fill="none" stroke="black" cx="712.805" cy="-705.893" rx="3.2" ry="3.2"/>
</g>
<!-- organizations&#45;&gt;users -->
<g id="edge25" class="edge"><title>organizations:created_by:w&#45;&gt;users:elipses:e</title>
<path fill="none" stroke="black" d="M378.473,-527.047C307.445,-546.705 390.17,-720.241 299.5,-720.241"/>
<polygon fill="black" stroke="black" points="385.061,-526.228 393.444,-528.813 389.031,-525.734 393,-525.241 393,-525.241 393,-525.241 389.031,-525.734 392.556,-521.668 385.061,-526.228 385.061,-526.228"/>
<ellipse fill="none" stroke="black" cx="381.886" cy="-526.622" rx="3.2" ry="3.2"/>
</g>
<!-- organizations&#45;&gt;users -->
<g id="edge26" class="edge"><title>organizations:modified_by:w&#45;&gt;users:elipses:e</title>
<path fill="none" stroke="black" d="M379.329,-509.045C342.131,-543.554 346.88,-720.241 299.5,-720.241"/>
<polygon fill="black" stroke="black" points="385.636,-506.367 394.407,-506.554 389.318,-504.804 393,-503.241 393,-503.241 393,-503.241 389.318,-504.804 391.593,-499.927 385.636,-506.367 385.636,-506.367"/>
<ellipse fill="none" stroke="black" cx="382.691" cy="-507.618" rx="3.20001" ry="3.20001"/>
</g>
<!-- country_subdivisions -->
<g id="node7" class="node"><title>country_subdivisions</title>
<g id="a_node7"><a xlink:href="../../tables/country_subdivisions.html" xlink:title="country_subdivisions" target="_top">
<polygon fill="#ffffff" stroke="none" points="169,-520.241 169,-578.241 338,-578.241 338,-520.241 169,-520.241"/>
<polygon fill="#f5f5f5" stroke="none" points="169.5,-556.241 169.5,-578.241 338.5,-578.241 338.5,-556.241 169.5,-556.241"/>
<polygon fill="none" stroke="black" points="169.5,-556.241 169.5,-578.241 338.5,-578.241 338.5,-556.241 169.5,-556.241"/>
<text text-anchor="start" x="174.5" y="-565.441" font-family="Helvetica,sans-Serif" font-weight="bold" font-size="11.00">country_subdivisions</text>
<text text-anchor="start" x="299.5" y="-564.441" font-family="Helvetica,sans-Serif" font-size="11.00">[table]</text>
<polygon fill="none" stroke="black" points="169.5,-538.241 169.5,-556.241 338.5,-556.241 338.5,-538.241 169.5,-538.241"/>
<text text-anchor="start" x="172.5" y="-544.441" font-family="Helvetica,sans-Serif" font-size="11.00">...</text>
<polygon fill="#ffffff" stroke="none" points="169.5,-520.241 169.5,-538.241 229.5,-538.241 229.5,-520.241 169.5,-520.241"/>
<polygon fill="none" stroke="black" points="169.5,-520.241 169.5,-538.241 229.5,-538.241 229.5,-520.241 169.5,-520.241"/>
<text text-anchor="start" x="172.5" y="-526.441" font-family="Helvetica,sans-Serif" font-size="11.00">&lt; 1</text>
<polygon fill="#ffffff" stroke="none" points="229.5,-520.241 229.5,-538.241 296.5,-538.241 296.5,-520.241 229.5,-520.241"/>
<polygon fill="none" stroke="black" points="229.5,-520.241 229.5,-538.241 296.5,-538.241 296.5,-520.241 229.5,-520.241"/>
<text text-anchor="start" x="250.5" y="-526.441" font-family="Helvetica,sans-Serif" font-size="11.00">57 rows</text>
<polygon fill="#ffffff" stroke="none" points="296.5,-520.241 296.5,-538.241 338.5,-538.241 338.5,-520.241 296.5,-520.241"/>
<polygon fill="none" stroke="black" points="296.5,-520.241 296.5,-538.241 338.5,-538.241 338.5,-520.241 296.5,-520.241"/>
<text text-anchor="start" x="318.5" y="-526.441" font-family="Helvetica,sans-Serif" font-size="11.00">1 &gt;</text>
</a>
</g>
</g>
<!-- organizations&#45;&gt;country_subdivisions -->
<g id="edge24" class="edge"><title>organizations:country_subdivision_code:w&#45;&gt;country_subdivisions:elipses:e</title>
<path fill="none" stroke="black" d="M378.355,-547.241C365.297,-547.241 357.519,-547.241 339.5,-547.241"/>
<polygon fill="black" stroke="black" points="385,-547.241 393,-550.841 389,-547.241 393,-547.241 393,-547.241 393,-547.241 389,-547.241 393,-543.641 385,-547.241 385,-547.241"/>
<ellipse fill="none" stroke="black" cx="381.8" cy="-547.241" rx="3.2" ry="3.2"/>
</g>
<!-- organizations&#45;&gt;countries -->
<g id="edge23" class="edge"><title>organizations:country_code:w&#45;&gt;countries:elipses:e</title>
<path fill="none" stroke="black" d="M378.493,-571.922C367.729,-576.44 362.234,-585.448 346,-589.241 246.732,-612.433 218.942,-602.241 117,-602.241"/>
<polygon fill="black" stroke="black" points="385.133,-570.695 393.654,-572.781 389.067,-569.968 393,-569.241 393,-569.241 393,-569.241 389.067,-569.968 392.346,-565.701 385.133,-570.695 385.133,-570.695"/>
<ellipse fill="none" stroke="black" cx="381.986" cy="-571.276" rx="3.2" ry="3.2"/>
</g>
<!-- organizations&#45;&gt;time_zones -->
<g id="edge28" class="edge"><title>organizations:time_zone:w&#45;&gt;time_zones:elipses:e</title>
<path fill="none" stroke="black" d="M378.378,-481.509C286.458,-484.906 251.611,-518.773 161,-481.241 137.772,-471.619 146.142,-441.241 121,-441.241"/>
<polygon fill="black" stroke="black" points="385.001,-481.388 393.066,-484.84 389.001,-481.314 393,-481.241 393,-481.241 393,-481.241 389.001,-481.314 392.934,-477.641 385.001,-481.388 385.001,-481.388"/>
<ellipse fill="none" stroke="black" cx="381.802" cy="-481.446" rx="3.2" ry="3.2"/>
</g>
<!-- organization_types -->
<g id="node16" class="node"><title>organization_types</title>
<g id="a_node16"><a xlink:href="../../tables/organization_types.html" xlink:title="organization_types" target="_top">
<polygon fill="#ffffff" stroke="none" points="175.5,-412.241 175.5,-470.241 331.5,-470.241 331.5,-412.241 175.5,-412.241"/>
<polygon fill="#f5f5f5" stroke="none" points="175.5,-448.241 175.5,-470.241 331.5,-470.241 331.5,-448.241 175.5,-448.241"/>
<polygon fill="none" stroke="black" points="175.5,-448.241 175.5,-470.241 331.5,-470.241 331.5,-448.241 175.5,-448.241"/>
<text text-anchor="start" x="180.5" y="-457.441" font-family="Helvetica,sans-Serif" font-weight="bold" font-size="11.00">organization_types</text>
<text text-anchor="start" x="292.5" y="-456.441" font-family="Helvetica,sans-Serif" font-size="11.00">[table]</text>
<polygon fill="none" stroke="black" points="175.5,-430.241 175.5,-448.241 331.5,-448.241 331.5,-430.241 175.5,-430.241"/>
<text text-anchor="start" x="178.5" y="-436.441" font-family="Helvetica,sans-Serif" font-size="11.00">...</text>
<polygon fill="#ffffff" stroke="none" points="175.5,-412.241 175.5,-430.241 227.5,-430.241 227.5,-412.241 175.5,-412.241"/>
<polygon fill="none" stroke="black" points="175.5,-412.241 175.5,-430.241 227.5,-430.241 227.5,-412.241 175.5,-412.241"/>
<text text-anchor="start" x="178.5" y="-418.441" font-family="Helvetica,sans-Serif" font-size="11.00"> &#160;</text>
<polygon fill="#ffffff" stroke="none" points="227.5,-412.241 227.5,-430.241 288.5,-430.241 288.5,-412.241 227.5,-412.241"/>
<polygon fill="none" stroke="black" points="227.5,-412.241 227.5,-430.241 288.5,-430.241 288.5,-412.241 227.5,-412.241"/>
<text text-anchor="start" x="249.5" y="-418.441" font-family="Helvetica,sans-Serif" font-size="11.00">6 rows</text>
<polygon fill="#ffffff" stroke="none" points="288.5,-412.241 288.5,-430.241 331.5,-430.241 331.5,-412.241 288.5,-412.241"/>
<polygon fill="none" stroke="black" points="288.5,-412.241 288.5,-430.241 331.5,-430.241 331.5,-412.241 288.5,-412.241"/>
<text text-anchor="start" x="311.5" y="-418.441" font-family="Helvetica,sans-Serif" font-size="11.00">1 &gt;</text>
</a>
</g>
</g>
<!-- organizations&#45;&gt;organization_types -->
<g id="edge27" class="edge"><title>organizations:organization_type_id:w&#45;&gt;organization_types:elipses:e</title>
<path fill="none" stroke="black" d="M378.36,-457.1C362.103,-451.941 355.068,-439.241 332.5,-439.241"/>
<polygon fill="black" stroke="black" points="385.084,-458.083 392.479,-462.803 389.042,-458.662 393,-459.241 393,-459.241 393,-459.241 389.042,-458.662 393.521,-455.679 385.084,-458.083 385.084,-458.083"/>
<ellipse fill="none" stroke="black" cx="381.918" cy="-457.62" rx="3.2" ry="3.2"/>
</g>
<!-- projects&#45;&gt;users -->
<g id="edge29" class="edge"><title>projects:elipses:w&#45;&gt;users:elipses:e</title>
<path fill="none" stroke="black" d="M711.563,-600.606C658.116,-603.425 641.845,-621.987 583,-635.241 492.694,-655.581 465.974,-645.549 379,-677.241 341.257,-690.994 339.671,-720.241 299.5,-720.241"/>
<polygon fill="black" stroke="black" points="718.003,-600.443 726.091,-603.84 722.001,-600.342 726,-600.241 726,-600.241 726,-600.241 722.001,-600.342 725.909,-596.642 718.003,-600.443 718.003,-600.443"/>
<ellipse fill="none" stroke="black" cx="714.804" cy="-600.524" rx="3.2" ry="3.2"/>
</g>
<!-- projects&#45;&gt;users -->
<g id="edge30" class="edge"><title>projects:elipses:w&#45;&gt;users:elipses:e</title>
<path fill="none" stroke="black" d="M711.753,-602.919C647.067,-616.614 387.285,-678.285 379,-681.241 341.933,-694.465 338.856,-720.241 299.5,-720.241"/>
<polygon fill="black" stroke="black" points="718.138,-601.719 726.665,-603.779 722.069,-600.98 726,-600.241 726,-600.241 726,-600.241 722.069,-600.98 725.335,-596.703 718.138,-601.719 718.138,-601.719"/>
<ellipse fill="none" stroke="black" cx="714.993" cy="-602.31" rx="3.2" ry="3.2"/>
</g>
<!-- projects&#45;&gt;organizations -->
<g id="edge31" class="edge"><title>projects:elipses:w&#45;&gt;organizations:id:e</title>
<path fill="none" stroke="black" d="M711.265,-600.099C653.262,-598.954 633.705,-591.241 569,-591.241"/>
<polygon fill="black" stroke="black" points="718,-600.164 725.965,-603.841 722,-600.202 726,-600.241 726,-600.241 726,-600.241 722,-600.202 726.035,-596.641 718,-600.164 718,-600.164"/>
<ellipse fill="none" stroke="black" cx="714.801" cy="-600.133" rx="3.2" ry="3.2"/>
</g>
<!-- species&#45;&gt;users -->
<g id="edge36" class="edge"><title>species:elipses:w&#45;&gt;users:elipses:e</title>
<path fill="none" stroke="black" d="M711.606,-1021.26C631.733,-1011.81 424.417,-935.991 379,-893.241 317.384,-835.243 384.119,-720.241 299.5,-720.241"/>
<polygon fill="black" stroke="black" points="718.018,-1021.7 725.756,-1025.83 722.009,-1021.97 726,-1022.24 726,-1022.24 726,-1022.24 722.009,-1021.97 726.244,-1018.65 718.018,-1021.7 718.018,-1021.7"/>
<ellipse fill="none" stroke="black" cx="714.826" cy="-1021.48" rx="3.2" ry="3.2"/>
</g>
<!-- species&#45;&gt;users -->
<g id="edge37" class="edge"><title>species:elipses:w&#45;&gt;users:elipses:e</title>
<path fill="none" stroke="black" d="M711.641,-1020.24C628.835,-1005.31 419.848,-921.908 379,-883.241 318.718,-826.177 382.507,-714.241 299.5,-720.241"/>
<polygon fill="black" stroke="black" points="718.077,-1021.14 725.502,-1025.81 722.038,-1021.69 726,-1022.24 726,-1022.24 726,-1022.24 722.038,-1021.69 726.498,-1018.68 718.077,-1021.14 718.077,-1021.14"/>
<ellipse fill="none" stroke="black" cx="714.907" cy="-1020.69" rx="3.2" ry="3.2"/>
</g>
<!-- species&#45;&gt;users -->
<g id="edge38" class="edge"><title>species:elipses:w&#45;&gt;users:elipses:e</title>
<path fill="none" stroke="black" d="M711.382,-1022.45C628.401,-1018.13 419.806,-934.868 379,-896.241 318.718,-839.177 382.507,-727.241 299.5,-720.241"/>
<polygon fill="black" stroke="black" points="718.001,-1022.35 726.05,-1025.84 722,-1022.3 726,-1022.24 726,-1022.24 726,-1022.24 722,-1022.3 725.95,-1018.64 718.001,-1022.35 718.001,-1022.35"/>
<ellipse fill="none" stroke="black" cx="714.801" cy="-1022.4" rx="3.2" ry="3.2"/>
</g>
<!-- species&#45;&gt;organizations -->
<g id="edge39" class="edge"><title>species:elipses:w&#45;&gt;organizations:id:e</title>
<path fill="none" stroke="black" d="M711.594,-1022.28C669.3,-1022.42 645.357,-1021.36 616,-985.241 560.382,-916.817 657.176,-591.241 569,-591.241"/>
<polygon fill="black" stroke="black" points="718,-1022.27 726.011,-1025.84 722,-1022.25 726,-1022.24 726,-1022.24 726,-1022.24 722,-1022.25 725.989,-1018.64 718,-1022.27 718,-1022.27"/>
<ellipse fill="none" stroke="black" cx="714.8" cy="-1022.27" rx="3.2" ry="3.2"/>
</g>
<!-- country_subdivisions&#45;&gt;countries -->
<g id="edge7" class="edge"><title>country_subdivisions:elipses:w&#45;&gt;countries:elipses:e</title>
<path fill="none" stroke="black" d="M154.623,-551.93C138.993,-565.231 144.47,-602.241 117,-602.241"/>
<polygon fill="black" stroke="black" points="160.921,-549.802 169.652,-550.651 164.71,-548.521 168.5,-547.241 168.5,-547.241 168.5,-547.241 164.71,-548.521 167.348,-543.83 160.921,-549.802 160.921,-549.802"/>
<ellipse fill="none" stroke="black" cx="157.889" cy="-550.826" rx="3.20001" ry="3.20001"/>
</g>
<!-- identifier_sequences -->
<g id="node10" class="node"><title>identifier_sequences</title>
<g id="a_node10"><a xlink:href="../../tables/identifier_sequences.html" xlink:title="identifier_sequences" target="_top">
<polygon fill="#ffffff" stroke="none" points="691,-440.241 691,-498.241 857,-498.241 857,-440.241 691,-440.241"/>
<polygon fill="#f5f5f5" stroke="none" points="691,-476.241 691,-498.241 857,-498.241 857,-476.241 691,-476.241"/>
<polygon fill="none" stroke="black" points="691,-476.241 691,-498.241 857,-498.241 857,-476.241 691,-476.241"/>
<text text-anchor="start" x="696" y="-485.441" font-family="Helvetica,sans-Serif" font-weight="bold" font-size="11.00">identifier_sequences</text>
<text text-anchor="start" x="818" y="-484.441" font-family="Helvetica,sans-Serif" font-size="11.00">[table]</text>
<polygon fill="none" stroke="black" points="691,-458.241 691,-476.241 857,-476.241 857,-458.241 691,-458.241"/>
<text text-anchor="start" x="694" y="-464.441" font-family="Helvetica,sans-Serif" font-size="11.00">...</text>
<polygon fill="#ffffff" stroke="none" points="691,-440.241 691,-458.241 758,-458.241 758,-440.241 691,-440.241"/>
<polygon fill="none" stroke="black" points="691,-440.241 691,-458.241 758,-458.241 758,-440.241 691,-440.241"/>
<text text-anchor="start" x="694" y="-446.441" font-family="Helvetica,sans-Serif" font-size="11.00">&lt; 1</text>
<polygon fill="#ffffff" stroke="none" points="758,-440.241 758,-458.241 822,-458.241 822,-440.241 758,-440.241"/>
<polygon fill="none" stroke="black" points="758,-440.241 758,-458.241 822,-458.241 822,-440.241 758,-440.241"/>
<text text-anchor="start" x="783" y="-446.441" font-family="Helvetica,sans-Serif" font-size="11.00">0 rows</text>
<polygon fill="#ffffff" stroke="none" points="822,-440.241 822,-458.241 857,-458.241 857,-440.241 822,-440.241"/>
<polygon fill="none" stroke="black" points="822,-440.241 822,-458.241 857,-458.241 857,-440.241 822,-440.241"/>
<text text-anchor="start" x="847" y="-446.441" font-family="Helvetica,sans-Serif" font-size="11.00"> &#160;</text>
</a>
</g>
</g>
<!-- identifier_sequences&#45;&gt;organizations -->
<g id="edge12" class="edge"><title>identifier_sequences:elipses:w&#45;&gt;organizations:id:e</title>
<path fill="none" stroke="black" d="M675.409,-468.266C648.77,-472.397 639.277,-488.737 616,-512.241 587.251,-541.269 609.855,-591.241 569,-591.241"/>
<polygon fill="black" stroke="black" points="682.02,-467.801 690.252,-470.832 686.01,-467.521 690,-467.241 690,-467.241 690,-467.241 686.01,-467.521 689.748,-463.65 682.02,-467.801 682.02,-467.801"/>
<ellipse fill="none" stroke="black" cx="678.828" cy="-468.026" rx="3.2" ry="3.2"/>
</g>
<!-- notifications -->
<g id="node11" class="node"><title>notifications</title>
<g id="a_node11"><a xlink:href="../../tables/notifications.html" xlink:title="notifications" target="_top">
<polygon fill="#ffffff" stroke="none" points="713.5,-146.241 713.5,-204.241 834.5,-204.241 834.5,-146.241 713.5,-146.241"/>
<polygon fill="#f5f5f5" stroke="none" points="714,-182.241 714,-204.241 835,-204.241 835,-182.241 714,-182.241"/>
<polygon fill="none" stroke="black" points="714,-182.241 714,-204.241 835,-204.241 835,-182.241 714,-182.241"/>
<text text-anchor="start" x="719" y="-191.441" font-family="Helvetica,sans-Serif" font-weight="bold" font-size="11.00">notifications</text>
<text text-anchor="start" x="796" y="-190.441" font-family="Helvetica,sans-Serif" font-size="11.00">[table]</text>
<polygon fill="none" stroke="black" points="714,-164.241 714,-182.241 835,-182.241 835,-164.241 714,-164.241"/>
<text text-anchor="start" x="717" y="-170.441" font-family="Helvetica,sans-Serif" font-size="11.00">...</text>
<polygon fill="#ffffff" stroke="none" points="714,-146.241 714,-164.241 758,-164.241 758,-146.241 714,-146.241"/>
<polygon fill="none" stroke="black" points="714,-146.241 714,-164.241 758,-164.241 758,-146.241 714,-146.241"/>
<text text-anchor="start" x="717" y="-152.441" font-family="Helvetica,sans-Serif" font-size="11.00">&lt; 3</text>
<polygon fill="#ffffff" stroke="none" points="758,-146.241 758,-164.241 811,-164.241 811,-146.241 758,-146.241"/>
<polygon fill="none" stroke="black" points="758,-146.241 758,-164.241 811,-164.241 811,-146.241 758,-146.241"/>
<text text-anchor="start" x="772" y="-152.441" font-family="Helvetica,sans-Serif" font-size="11.00">0 rows</text>
<polygon fill="#ffffff" stroke="none" points="811,-146.241 811,-164.241 835,-164.241 835,-146.241 811,-146.241"/>
<polygon fill="none" stroke="black" points="811,-146.241 811,-164.241 835,-164.241 835,-146.241 811,-146.241"/>
<text text-anchor="start" x="825" y="-152.441" font-family="Helvetica,sans-Serif" font-size="11.00"> &#160;</text>
</a>
</g>
</g>
<!-- notifications&#45;&gt;users -->
<g id="edge14" class="edge"><title>notifications:elipses:w&#45;&gt;users:elipses:e</title>
<path fill="none" stroke="black" d="M698.395,-172.989C558.8,-168.202 481.13,-97.7958 379,-199.241 295.907,-281.777 416.618,-720.241 299.5,-720.241"/>
<polygon fill="black" stroke="black" points="705.001,-173.103 712.938,-176.84 709.001,-173.172 713,-173.241 713,-173.241 713,-173.241 709.001,-173.172 713.062,-169.641 705.001,-173.103 705.001,-173.103"/>
<ellipse fill="none" stroke="black" cx="701.802" cy="-173.048" rx="3.2" ry="3.2"/>
</g>
<!-- notifications&#45;&gt;organizations -->
<g id="edge13" class="edge"><title>notifications:elipses:w&#45;&gt;organizations:id:e</title>
<path fill="none" stroke="black" d="M698.446,-173.437C661.167,-174.602 641.096,-181.762 616,-215.241 565.492,-282.617 653.206,-591.241 569,-591.241"/>
<polygon fill="black" stroke="black" points="705.001,-173.348 713.048,-176.84 709,-173.295 713,-173.241 713,-173.241 713,-173.241 709,-173.295 712.952,-169.641 705.001,-173.348 705.001,-173.348"/>
<ellipse fill="none" stroke="black" cx="701.801" cy="-173.392" rx="3.2" ry="3.2"/>
</g>
<!-- organization_internal_tags -->
<g id="node12" class="node"><title>organization_internal_tags</title>
<g id="a_node12"><a xlink:href="../../tables/organization_internal_tags.html" xlink:title="organization_internal_tags" target="_top">
<polygon fill="#ffffff" stroke="none" points="674.5,-916.241 674.5,-974.241 873.5,-974.241 873.5,-916.241 674.5,-916.241"/>
<polygon fill="#f5f5f5" stroke="none" points="675,-952.241 675,-974.241 874,-974.241 874,-952.241 675,-952.241"/>
<polygon fill="none" stroke="black" points="675,-952.241 675,-974.241 874,-974.241 874,-952.241 675,-952.241"/>
<text text-anchor="start" x="680" y="-961.441" font-family="Helvetica,sans-Serif" font-weight="bold" font-size="11.00">organization_internal_tags</text>
<text text-anchor="start" x="835" y="-960.441" font-family="Helvetica,sans-Serif" font-size="11.00">[table]</text>
<polygon fill="none" stroke="black" points="675,-934.241 675,-952.241 874,-952.241 874,-934.241 675,-934.241"/>
<text text-anchor="start" x="678" y="-940.441" font-family="Helvetica,sans-Serif" font-size="11.00">...</text>
<polygon fill="#ffffff" stroke="none" points="675,-916.241 675,-934.241 758,-934.241 758,-916.241 675,-916.241"/>
<polygon fill="none" stroke="black" points="675,-916.241 675,-934.241 758,-934.241 758,-916.241 675,-916.241"/>
<text text-anchor="start" x="678" y="-922.441" font-family="Helvetica,sans-Serif" font-size="11.00">&lt; 3</text>
<polygon fill="#ffffff" stroke="none" points="758,-916.241 758,-934.241 830,-934.241 830,-916.241 758,-916.241"/>
<polygon fill="none" stroke="black" points="758,-916.241 758,-934.241 830,-934.241 830,-916.241 758,-916.241"/>
<text text-anchor="start" x="791" y="-922.441" font-family="Helvetica,sans-Serif" font-size="11.00">0 rows</text>
<polygon fill="#ffffff" stroke="none" points="830,-916.241 830,-934.241 874,-934.241 874,-916.241 830,-916.241"/>
<polygon fill="none" stroke="black" points="830,-916.241 830,-934.241 874,-934.241 874,-916.241 830,-916.241"/>
<text text-anchor="start" x="864" y="-922.441" font-family="Helvetica,sans-Serif" font-size="11.00"> &#160;</text>
</a>
</g>
</g>
<!-- organization_internal_tags&#45;&gt;users -->
<g id="edge15" class="edge"><title>organization_internal_tags:elipses:w&#45;&gt;users:elipses:e</title>
<path fill="none" stroke="black" d="M659.545,-943.138C530.471,-941.24 486.398,-912.803 379,-830.241 331.177,-793.477 359.821,-720.241 299.5,-720.241"/>
<polygon fill="black" stroke="black" points="666,-943.184 673.974,-946.841 670,-943.212 674,-943.241 674,-943.241 674,-943.241 670,-943.212 674.026,-939.641 666,-943.184 666,-943.184"/>
<ellipse fill="none" stroke="black" cx="662.8" cy="-943.161" rx="3.2" ry="3.2"/>
</g>
<!-- organization_internal_tags&#45;&gt;organizations -->
<g id="edge16" class="edge"><title>organization_internal_tags:elipses:w&#45;&gt;organizations:id:e</title>
<path fill="none" stroke="black" d="M659.571,-942.173C639.452,-938.809 629.717,-927.382 616,-906.241 577.478,-846.868 639.775,-591.241 569,-591.241"/>
<polygon fill="black" stroke="black" points="666.022,-942.65 673.734,-946.831 670.011,-942.945 674,-943.241 674,-943.241 674,-943.241 670.011,-942.945 674.266,-939.651 666.022,-942.65 666.022,-942.65"/>
<ellipse fill="none" stroke="black" cx="662.831" cy="-942.414" rx="3.2" ry="3.2"/>
</g>
<!-- organization_managed_location_types -->
<g id="node13" class="node"><title>organization_managed_location_types</title>
<g id="a_node13"><a xlink:href="../../tables/organization_managed_location_types.html" xlink:title="organization_managed_location_types" target="_top">
<polygon fill="#ffffff" stroke="none" points="624,-225.241 624,-313.241 924,-313.241 924,-225.241 624,-225.241"/>
<polygon fill="#f5f5f5" stroke="none" points="626,-289.241 626,-311.241 922,-311.241 922,-289.241 626,-289.241"/>
<polygon fill="none" stroke="black" points="626,-289.241 626,-311.241 922,-311.241 922,-289.241 626,-289.241"/>
<text text-anchor="start" x="631" y="-298.441" font-family="Helvetica,sans-Serif" font-weight="bold" font-size="11.00">organization_managed_location_types</text>
<text text-anchor="start" x="883" y="-297.441" font-family="Helvetica,sans-Serif" font-size="11.00">[table]</text>
<polygon fill="none" stroke="black" points="626,-267.241 626,-289.241 874,-289.241 874,-267.241 626,-267.241"/>
<image xlink:href="../../images/primaryKeys.png" width="11px" height="12px" preserveAspectRatio="xMinYMin meet" x="631" y="-284.241"/>
<text text-anchor="start" x="646" y="-275.441" font-family="Helvetica,sans-Serif" font-size="11.00">organization_id</text>
<polygon fill="none" stroke="black" points="874,-267.241 874,-289.241 922,-289.241 922,-267.241 874,-267.241"/>
<text text-anchor="start" x="877" y="-275.441" font-family="Helvetica,sans-Serif" font-size="11.00">int8[19]</text>
<polygon fill="none" stroke="black" points="626,-245.241 626,-267.241 874,-267.241 874,-245.241 626,-245.241"/>
<image xlink:href="../../images/primaryKeys.png" width="11px" height="12px" preserveAspectRatio="xMinYMin meet" x="631" y="-262.241"/>
<text text-anchor="start" x="646" y="-253.441" font-family="Helvetica,sans-Serif" font-size="11.00">managed_location_type_id</text>
<polygon fill="none" stroke="black" points="874,-245.241 874,-267.241 922,-267.241 922,-245.241 874,-245.241"/>
<text text-anchor="start" x="877" y="-253.441" font-family="Helvetica,sans-Serif" font-size="11.00">int4[10]</text>
<polygon fill="#ffffff" stroke="none" points="626,-227.241 626,-245.241 740,-245.241 740,-227.241 626,-227.241"/>
<polygon fill="none" stroke="black" points="626,-227.241 626,-245.241 740,-245.241 740,-227.241 626,-227.241"/>
<text text-anchor="start" x="629" y="-233.441" font-family="Helvetica,sans-Serif" font-size="11.00">&lt; 2</text>
<polygon fill="#ffffff" stroke="none" points="740,-227.241 740,-245.241 874,-245.241 874,-227.241 740,-227.241"/>
<polygon fill="none" stroke="black" points="740,-227.241 740,-245.241 874,-245.241 874,-227.241 740,-227.241"/>
<text text-anchor="start" x="835" y="-233.441" font-family="Helvetica,sans-Serif" font-size="11.00">0 rows</text>
<polygon fill="#ffffff" stroke="none" points="874,-227.241 874,-245.241 922,-245.241 922,-227.241 874,-227.241"/>
<polygon fill="none" stroke="black" points="874,-227.241 874,-245.241 922,-245.241 922,-227.241 874,-227.241"/>
<text text-anchor="start" x="902" y="-233.441" font-family="Helvetica,sans-Serif" font-size="11.00">0 &gt;</text>
<polygon fill="none" stroke="black" stroke-width="2" points="625,-226.241 625,-312.241 923,-312.241 923,-226.241 625,-226.241"/>
</a>
</g>
</g>
<!-- organization_managed_location_types&#45;&gt;organizations -->
<g id="edge18" class="edge"><title>organization_managed_location_types:organization_id:w&#45;&gt;organizations:id:e</title>
<path fill="none" stroke="black" d="M611.43,-283.412C566.433,-324.108 634.278,-591.241 569,-591.241"/>
<polygon fill="black" stroke="black" points="617.524,-281.09 626.282,-281.605 621.262,-279.665 625,-278.241 625,-278.241 625,-278.241 621.262,-279.665 623.718,-274.877 617.524,-281.09 617.524,-281.09"/>
<ellipse fill="none" stroke="black" cx="614.534" cy="-282.229" rx="3.20001" ry="3.20001"/>
</g>
<!-- managed_location_types -->
<g id="node14" class="node"><title>managed_location_types</title>
<g id="a_node14"><a xlink:href="../../tables/managed_location_types.html" xlink:title="managed_location_types" target="_top">
<polygon fill="#ffffff" stroke="none" points="387,-209.241 387,-289.241 575,-289.241 575,-209.241 387,-209.241"/>
<polygon fill="#f5f5f5" stroke="none" points="387,-267.241 387,-289.241 575,-289.241 575,-267.241 387,-267.241"/>
<polygon fill="none" stroke="black" points="387,-267.241 387,-289.241 575,-289.241 575,-267.241 387,-267.241"/>
<text text-anchor="start" x="392" y="-276.441" font-family="Helvetica,sans-Serif" font-weight="bold" font-size="11.00">managed_location_types</text>
<text text-anchor="start" x="536" y="-275.441" font-family="Helvetica,sans-Serif" font-size="11.00">[table]</text>
<polygon fill="none" stroke="black" points="387,-245.241 387,-267.241 575,-267.241 575,-245.241 387,-245.241"/>
<image xlink:href="../../images/primaryKeys.png" width="11px" height="12px" preserveAspectRatio="xMinYMin meet" x="392" y="-262.241"/>
<text text-anchor="start" x="418" y="-253.441" font-family="Helvetica,sans-Serif" font-size="11.00">id</text>
<polygon fill="none" stroke="black" points="387,-227.241 387,-245.241 575,-245.241 575,-227.241 387,-227.241"/>
<text text-anchor="start" x="390" y="-233.441" font-family="Helvetica,sans-Serif" font-size="11.00">...</text>
<polygon fill="#ffffff" stroke="none" points="387,-209.241 387,-227.241 455,-227.241 455,-209.241 387,-209.241"/>
<polygon fill="none" stroke="black" points="387,-209.241 387,-227.241 455,-227.241 455,-209.241 387,-209.241"/>
<text text-anchor="start" x="390" y="-215.441" font-family="Helvetica,sans-Serif" font-size="11.00"> &#160;</text>
<polygon fill="#ffffff" stroke="none" points="455,-209.241 455,-227.241 524,-227.241 524,-209.241 455,-209.241"/>
<polygon fill="none" stroke="black" points="455,-209.241 455,-227.241 524,-227.241 524,-209.241 455,-209.241"/>
<text text-anchor="start" x="485" y="-215.441" font-family="Helvetica,sans-Serif" font-size="11.00">3 rows</text>
<polygon fill="#ffffff" stroke="none" points="524,-209.241 524,-227.241 575,-227.241 575,-209.241 524,-209.241"/>
<polygon fill="none" stroke="black" points="524,-209.241 524,-227.241 575,-227.241 575,-209.241 524,-209.241"/>
<text text-anchor="start" x="555" y="-215.441" font-family="Helvetica,sans-Serif" font-size="11.00">1 &gt;</text>
</a>
</g>
</g>
<!-- organization_managed_location_types&#45;&gt;managed_location_types -->
<g id="edge17" class="edge"><title>organization_managed_location_types:managed_location_type_id:w&#45;&gt;managed_location_types:id:e</title>
<path fill="none" stroke="black" d="M610.491,-256.241C599.177,-256.241 591.993,-256.241 576,-256.241"/>
<polygon fill="black" stroke="black" points="617,-256.241 625,-259.841 621,-256.241 625,-256.241 625,-256.241 625,-256.241 621,-256.241 625,-252.641 617,-256.241 617,-256.241"/>
<ellipse fill="none" stroke="black" cx="613.8" cy="-256.241" rx="3.2" ry="3.2"/>
</g>
<!-- organization_users -->
<g id="node15" class="node"><title>organization_users</title>
<g id="a_node15"><a xlink:href="../../tables/organization_users.html" xlink:title="organization_users" target="_top">
<polygon fill="#ffffff" stroke="none" points="697,-837.241 697,-895.241 851,-895.241 851,-837.241 697,-837.241"/>
<polygon fill="#f5f5f5" stroke="none" points="697,-873.241 697,-895.241 851,-895.241 851,-873.241 697,-873.241"/>
<polygon fill="none" stroke="black" points="697,-873.241 697,-895.241 851,-895.241 851,-873.241 697,-873.241"/>
<text text-anchor="start" x="702" y="-882.441" font-family="Helvetica,sans-Serif" font-weight="bold" font-size="11.00">organization_users</text>
<text text-anchor="start" x="812" y="-881.441" font-family="Helvetica,sans-Serif" font-size="11.00">[table]</text>
<polygon fill="none" stroke="black" points="697,-855.241 697,-873.241 851,-873.241 851,-855.241 697,-855.241"/>
<text text-anchor="start" x="700" y="-861.441" font-family="Helvetica,sans-Serif" font-size="11.00">...</text>
<polygon fill="#ffffff" stroke="none" points="697,-837.241 697,-855.241 758,-855.241 758,-837.241 697,-837.241"/>
<polygon fill="none" stroke="black" points="697,-837.241 697,-855.241 758,-855.241 758,-837.241 697,-837.241"/>
<text text-anchor="start" x="700" y="-843.441" font-family="Helvetica,sans-Serif" font-size="11.00">&lt; 5</text>
<polygon fill="#ffffff" stroke="none" points="758,-837.241 758,-855.241 819,-855.241 819,-837.241 758,-837.241"/>
<polygon fill="none" stroke="black" points="758,-837.241 758,-855.241 819,-855.241 819,-837.241 758,-837.241"/>
<text text-anchor="start" x="780" y="-843.441" font-family="Helvetica,sans-Serif" font-size="11.00">0 rows</text>
<polygon fill="#ffffff" stroke="none" points="819,-837.241 819,-855.241 851,-855.241 851,-837.241 819,-837.241"/>
<polygon fill="none" stroke="black" points="819,-837.241 819,-855.241 851,-855.241 851,-837.241 819,-837.241"/>
<text text-anchor="start" x="841" y="-843.441" font-family="Helvetica,sans-Serif" font-size="11.00"> &#160;</text>
</a>
</g>
</g>
<!-- organization_users&#45;&gt;users -->
<g id="edge19" class="edge"><title>organization_users:elipses:w&#45;&gt;users:elipses:e</title>
<path fill="none" stroke="black" d="M681.289,-864.115C546.264,-861.741 508.899,-826.036 379,-768.241 341.29,-751.463 340.774,-720.241 299.5,-720.241"/>
<polygon fill="black" stroke="black" points="688,-864.172 695.969,-867.841 692,-864.206 696,-864.241 696,-864.241 696,-864.241 692,-864.206 696.031,-860.641 688,-864.172 688,-864.172"/>
<ellipse fill="none" stroke="black" cx="684.8" cy="-864.145" rx="3.2" ry="3.2"/>
</g>
<!-- organization_users&#45;&gt;users -->
<g id="edge20" class="edge"><title>organization_users:elipses:w&#45;&gt;users:elipses:e</title>
<path fill="none" stroke="black" d="M681.243,-863.501C545.857,-855.37 510.11,-814.531 379,-758.241 341.892,-742.309 339.884,-714.241 299.5,-720.241"/>
<polygon fill="black" stroke="black" points="688.01,-863.84 695.82,-867.836 692.005,-864.04 696,-864.241 696,-864.241 696,-864.241 692.005,-864.04 696.18,-860.645 688.01,-863.84 688.01,-863.84"/>
<ellipse fill="none" stroke="black" cx="684.814" cy="-863.68" rx="3.2" ry="3.2"/>
</g>
<!-- organization_users&#45;&gt;users -->
<g id="edge22" class="edge"><title>organization_users:elipses:w&#45;&gt;users:elipses:e</title>
<path fill="none" stroke="black" d="M681.243,-864.789C545.857,-868.37 510.11,-827.531 379,-771.241 341.892,-755.309 339.884,-727.241 299.5,-720.241"/>
<polygon fill="black" stroke="black" points="688.006,-864.538 696.134,-867.838 692.003,-864.389 696,-864.241 696,-864.241 696,-864.241 692.003,-864.389 695.866,-860.643 688.006,-864.538 688.006,-864.538"/>
<ellipse fill="none" stroke="black" cx="684.808" cy="-864.657" rx="3.2" ry="3.2"/>
</g>
<!-- organization_users&#45;&gt;organizations -->
<g id="edge21" class="edge"><title>organization_users:elipses:w&#45;&gt;organizations:id:e</title>
<path fill="none" stroke="black" d="M685.553,-864.062C653.648,-862.858 637.965,-855.132 616,-827.241 549.831,-743.219 675.949,-591.241 569,-591.241"/>
<polygon fill="black" stroke="black" points="695.269,-860.228 695.131,-868.226 693.532,-868.199 693.669,-860.2 695.269,-860.228"/>
<polyline fill="none" stroke="black" points="696,-864.241 692.001,-864.172 "/>
<ellipse fill="none" stroke="black" cx="688.801" cy="-864.117" rx="3.2" ry="3.2"/>
</g>
<!-- reports -->
<g id="node17" class="node"><title>reports</title>
<g id="a_node17"><a xlink:href="../../tables/reports.html" xlink:title="reports" target="_top">
<polygon fill="#ffffff" stroke="none" points="728.5,-758.241 728.5,-816.241 819.5,-816.241 819.5,-758.241 728.5,-758.241"/>
<polygon fill="#f5f5f5" stroke="none" points="729,-794.241 729,-816.241 820,-816.241 820,-794.241 729,-794.241"/>
<polygon fill="none" stroke="black" points="729,-794.241 729,-816.241 820,-816.241 820,-794.241 729,-794.241"/>
<text text-anchor="start" x="734" y="-803.441" font-family="Helvetica,sans-Serif" font-weight="bold" font-size="11.00">reports</text>
<text text-anchor="start" x="781" y="-802.441" font-family="Helvetica,sans-Serif" font-size="11.00">[table]</text>
<polygon fill="none" stroke="black" points="729,-776.241 729,-794.241 820,-794.241 820,-776.241 729,-776.241"/>
<text text-anchor="start" x="732" y="-782.441" font-family="Helvetica,sans-Serif" font-size="11.00">...</text>
<polygon fill="#ffffff" stroke="none" points="729,-758.241 729,-776.241 753,-776.241 753,-758.241 729,-758.241"/>
<polygon fill="none" stroke="black" points="729,-758.241 729,-776.241 753,-776.241 753,-758.241 729,-758.241"/>
<text text-anchor="start" x="732" y="-764.441" font-family="Helvetica,sans-Serif" font-size="11.00">&lt; 5</text>
<polygon fill="#ffffff" stroke="none" points="753,-758.241 753,-776.241 796,-776.241 796,-758.241 753,-758.241"/>
<polygon fill="none" stroke="black" points="753,-758.241 753,-776.241 796,-776.241 796,-758.241 753,-758.241"/>
<text text-anchor="start" x="757" y="-764.441" font-family="Helvetica,sans-Serif" font-size="11.00">0 rows</text>
<polygon fill="#ffffff" stroke="none" points="796,-758.241 796,-776.241 820,-776.241 820,-758.241 796,-758.241"/>
<polygon fill="none" stroke="black" points="796,-758.241 796,-776.241 820,-776.241 820,-758.241 796,-758.241"/>
<text text-anchor="start" x="800" y="-764.441" font-family="Helvetica,sans-Serif" font-size="11.00">2 &gt;</text>
</a>
</g>
</g>
<!-- reports&#45;&gt;users -->
<g id="edge32" class="edge"><title>reports:elipses:w&#45;&gt;users:elipses:e</title>
<path fill="none" stroke="black" d="M713.576,-784.297C633.925,-776.304 344.223,-720.241 299.5,-720.241"/>
<polygon fill="black" stroke="black" points="720.017,-784.718 727.765,-788.833 724.009,-784.98 728,-785.241 728,-785.241 728,-785.241 724.009,-784.98 728.235,-781.648 720.017,-784.718 720.017,-784.718"/>
<ellipse fill="none" stroke="black" cx="716.824" cy="-784.509" rx="3.2" ry="3.2"/>
</g>
<!-- reports&#45;&gt;users -->
<g id="edge33" class="edge"><title>reports:elipses:w&#45;&gt;users:elipses:e</title>
<path fill="none" stroke="black" d="M713.565,-784.021C609.882,-773.303 391.297,-714.522 299.5,-720.241"/>
<polygon fill="black" stroke="black" points="720.028,-784.567 727.697,-788.828 724.014,-784.904 728,-785.241 728,-785.241 728,-785.241 724.014,-784.904 728.303,-781.654 720.028,-784.567 720.028,-784.567"/>
<ellipse fill="none" stroke="black" cx="716.84" cy="-784.298" rx="3.2" ry="3.2"/>
</g>
<!-- reports&#45;&gt;users -->
<g id="edge35" class="edge"><title>reports:elipses:w&#45;&gt;users:elipses:e</title>
<path fill="none" stroke="black" d="M713.565,-785.764C609.882,-786.274 391.297,-726.913 299.5,-720.241"/>
<polygon fill="black" stroke="black" points="720.005,-785.531 728.13,-788.838 724.003,-785.386 728,-785.241 728,-785.241 728,-785.241 724.003,-785.386 727.87,-781.643 720.005,-785.531 720.005,-785.531"/>
<ellipse fill="none" stroke="black" cx="716.807" cy="-785.646" rx="3.2" ry="3.2"/>
</g>
<!-- reports&#45;&gt;organizations -->
<g id="edge34" class="edge"><title>reports:elipses:w&#45;&gt;organizations:id:e</title>
<path fill="none" stroke="black" d="M713.442,-785.221C670.949,-784.992 648.974,-782.158 616,-748.241 565.227,-696.016 641.837,-591.241 569,-591.241"/>
<polygon fill="black" stroke="black" points="720,-785.23 727.995,-788.841 724,-785.235 728,-785.241 728,-785.241 728,-785.241 724,-785.235 728.005,-781.641 720,-785.23 720,-785.23"/>
<ellipse fill="none" stroke="black" cx="716.8" cy="-785.226" rx="3.2" ry="3.2"/>
</g>
<!-- uploads -->
<g id="node18" class="node"><title>uploads</title>
<g id="a_node18"><a xlink:href="../../tables/uploads.html" xlink:title="uploads" target="_top">
<polygon fill="#ffffff" stroke="none" points="1015,-628.241 1015,-686.241 1109,-686.241 1109,-628.241 1015,-628.241"/>
<polygon fill="#f5f5f5" stroke="none" points="1015,-664.241 1015,-686.241 1109,-686.241 1109,-664.241 1015,-664.241"/>
<polygon fill="none" stroke="black" points="1015,-664.241 1015,-686.241 1109,-686.241 1109,-664.241 1015,-664.241"/>
<text text-anchor="start" x="1020" y="-673.441" font-family="Helvetica,sans-Serif" font-weight="bold" font-size="11.00">uploads</text>
<text text-anchor="start" x="1070" y="-672.441" font-family="Helvetica,sans-Serif" font-size="11.00">[table]</text>
<polygon fill="none" stroke="black" points="1015,-646.241 1015,-664.241 1109,-664.241 1109,-646.241 1015,-646.241"/>
<text text-anchor="start" x="1018" y="-652.441" font-family="Helvetica,sans-Serif" font-size="11.00">...</text>
<polygon fill="#ffffff" stroke="none" points="1015,-628.241 1015,-646.241 1041,-646.241 1041,-628.241 1015,-628.241"/>
<polygon fill="none" stroke="black" points="1015,-628.241 1015,-646.241 1041,-646.241 1041,-628.241 1015,-628.241"/>
<text text-anchor="start" x="1018" y="-634.441" font-family="Helvetica,sans-Serif" font-size="11.00">&lt; 5</text>
<polygon fill="#ffffff" stroke="none" points="1041,-628.241 1041,-646.241 1084,-646.241 1084,-628.241 1041,-628.241"/>
<polygon fill="none" stroke="black" points="1041,-628.241 1041,-646.241 1084,-646.241 1084,-628.241 1041,-628.241"/>
<text text-anchor="start" x="1045" y="-634.441" font-family="Helvetica,sans-Serif" font-size="11.00">0 rows</text>
<polygon fill="#ffffff" stroke="none" points="1084,-628.241 1084,-646.241 1109,-646.241 1109,-628.241 1084,-628.241"/>
<polygon fill="none" stroke="black" points="1084,-628.241 1084,-646.241 1109,-646.241 1109,-628.241 1084,-628.241"/>
<text text-anchor="start" x="1089" y="-634.441" font-family="Helvetica,sans-Serif" font-size="11.00">1 &gt;</text>
</a>
</g>
</g>
<!-- uploads&#45;&gt;users -->
<g id="edge40" class="edge"><title>uploads:elipses:w&#45;&gt;users:elipses:e</title>
<path fill="none" stroke="black" d="M999.274,-655.235C834.359,-655.098 787.21,-652.924 616,-669.241 509.872,-679.355 484.168,-688.773 379,-706.241 343.608,-712.119 335.377,-720.241 299.5,-720.241"/>
<polygon fill="black" stroke="black" points="1006,-655.237 1014,-658.841 1010,-655.239 1014,-655.241 1014,-655.241 1014,-655.241 1010,-655.239 1014,-651.641 1006,-655.237 1006,-655.237"/>
<ellipse fill="none" stroke="black" cx="1002.8" cy="-655.236" rx="3.2" ry="3.2"/>
</g>
<!-- uploads&#45;&gt;facilities -->
<g id="edge41" class="edge"><title>uploads:elipses:w&#45;&gt;facilities:elipses:e</title>
<path fill="none" stroke="black" d="M999.346,-655.746C924.545,-661.042 906.311,-706.241 824,-706.241"/>
<polygon fill="black" stroke="black" points="1006,-655.516 1014.12,-658.839 1010,-655.378 1014,-655.241 1014,-655.241 1014,-655.241 1010,-655.378 1013.88,-651.643 1006,-655.516 1006,-655.516"/>
<ellipse fill="none" stroke="black" cx="1002.81" cy="-655.626" rx="3.2" ry="3.2"/>
</g>
<!-- uploads&#45;&gt;organizations -->
<g id="edge42" class="edge"><title>uploads:elipses:w&#45;&gt;organizations:id:e</title>
<path fill="none" stroke="black" d="M999.547,-653.324C956.683,-640.4 983.14,-565.717 932,-539.241 869.64,-506.955 680.178,-510.74 616,-539.241 587.529,-551.885 600.152,-591.241 569,-591.241"/>
<polygon fill="black" stroke="black" points="1006.07,-654.189 1013.53,-658.809 1010.03,-654.715 1014,-655.241 1014,-655.241 1014,-655.241 1010.03,-654.715 1014.47,-651.672 1006.07,-654.189 1006.07,-654.189"/>
<ellipse fill="none" stroke="black" cx="1002.9" cy="-653.768" rx="3.2" ry="3.2"/>
</g>
<!-- user_preferences -->
<g id="node19" class="node"><title>user_preferences</title>
<g id="a_node19"><a xlink:href="../../tables/user_preferences.html" xlink:title="user_preferences" target="_top">
<polygon fill="#ffffff" stroke="none" points="701,-334.241 701,-392.241 847,-392.241 847,-334.241 701,-334.241"/>
<polygon fill="#f5f5f5" stroke="none" points="701,-370.241 701,-392.241 847,-392.241 847,-370.241 701,-370.241"/>
<polygon fill="none" stroke="black" points="701,-370.241 701,-392.241 847,-392.241 847,-370.241 701,-370.241"/>
<text text-anchor="start" x="706" y="-379.441" font-family="Helvetica,sans-Serif" font-weight="bold" font-size="11.00">user_preferences</text>
<text text-anchor="start" x="808" y="-378.441" font-family="Helvetica,sans-Serif" font-size="11.00">[table]</text>
<polygon fill="none" stroke="black" points="701,-352.241 701,-370.241 847,-370.241 847,-352.241 701,-352.241"/>
<text text-anchor="start" x="704" y="-358.441" font-family="Helvetica,sans-Serif" font-size="11.00">...</text>
<polygon fill="#ffffff" stroke="none" points="701,-334.241 701,-352.241 758,-352.241 758,-334.241 701,-334.241"/>
<polygon fill="none" stroke="black" points="701,-334.241 701,-352.241 758,-352.241 758,-334.241 701,-334.241"/>
<text text-anchor="start" x="704" y="-340.441" font-family="Helvetica,sans-Serif" font-size="11.00">&lt; 2</text>
<polygon fill="#ffffff" stroke="none" points="758,-334.241 758,-352.241 817,-352.241 817,-334.241 758,-334.241"/>
<polygon fill="none" stroke="black" points="758,-334.241 758,-352.241 817,-352.241 817,-334.241 758,-334.241"/>
<text text-anchor="start" x="778" y="-340.441" font-family="Helvetica,sans-Serif" font-size="11.00">0 rows</text>
<polygon fill="#ffffff" stroke="none" points="817,-334.241 817,-352.241 847,-352.241 847,-334.241 817,-334.241"/>
<polygon fill="none" stroke="black" points="817,-334.241 817,-352.241 847,-352.241 847,-334.241 817,-334.241"/>
<text text-anchor="start" x="837" y="-340.441" font-family="Helvetica,sans-Serif" font-size="11.00"> &#160;</text>
</a>
</g>
</g>
<!-- user_preferences&#45;&gt;users -->
<g id="edge44" class="edge"><title>user_preferences:elipses:w&#45;&gt;users:elipses:e</title>
<path fill="none" stroke="black" d="M689.591,-361.14C552.587,-358.49 480.552,-305.415 379,-402.241 326.281,-452.506 372.342,-720.241 299.5,-720.241"/>
<polygon fill="black" stroke="black" points="699.239,-357.233 699.161,-365.233 697.561,-365.217 697.639,-357.218 699.239,-357.233"/>
<polyline fill="none" stroke="black" points="700,-361.241 696,-361.202 "/>
<ellipse fill="none" stroke="black" cx="692.8" cy="-361.171" rx="3.2" ry="3.2"/>
</g>
<!-- user_preferences&#45;&gt;organizations -->
<g id="edge43" class="edge"><title>user_preferences:elipses:w&#45;&gt;organizations:id:e</title>
<path fill="none" stroke="black" d="M685.301,-361.806C653.595,-364.491 638.835,-377.053 616,-406.241 563.726,-473.056 653.834,-591.241 569,-591.241"/>
<polygon fill="black" stroke="black" points="692.006,-361.548 700.138,-364.838 696.003,-361.395 700,-361.241 700,-361.241 700,-361.241 696.003,-361.395 699.862,-357.643 692.006,-361.548 692.006,-361.548"/>
<ellipse fill="none" stroke="black" cx="688.808" cy="-361.671" rx="3.2" ry="3.2"/>
</g>
<!-- tracking.planting_sites -->
<g id="node20" class="node"><title>tracking.planting_sites</title>
<g id="a_node20"><a xlink:href="../../../tracking/tables/planting_sites.html" xlink:title="tracking.planting_sites" target="_top">
<polygon fill="#ffffff" stroke="none" points="973,-89.2408 973,-147.241 1151,-147.241 1151,-89.2408 973,-89.2408"/>
<polygon fill="#f5f5f5" stroke="none" points="973,-125.241 973,-147.241 1151,-147.241 1151,-125.241 973,-125.241"/>
<polygon fill="none" stroke="black" points="973,-125.241 973,-147.241 1151,-147.241 1151,-125.241 973,-125.241"/>
<text text-anchor="start" x="978" y="-134.441" font-family="Helvetica,sans-Serif" font-weight="bold" font-size="11.00">tracking.planting_sites</text>
<text text-anchor="start" x="1112" y="-133.441" font-family="Helvetica,sans-Serif" font-size="11.00">[table]</text>
<polygon fill="none" stroke="black" points="973,-107.241 973,-125.241 1151,-125.241 1151,-107.241 973,-107.241"/>
<text text-anchor="start" x="976" y="-113.441" font-family="Helvetica,sans-Serif" font-size="11.00">...</text>
<polygon fill="#ffffff" stroke="none" points="973,-89.2408 973,-107.241 1046,-107.241 1046,-89.2408 973,-89.2408"/>
<polygon fill="none" stroke="black" points="973,-89.2408 973,-107.241 1046,-107.241 1046,-89.2408 973,-89.2408"/>
<text text-anchor="start" x="976" y="-95.4408" font-family="Helvetica,sans-Serif" font-size="11.00">&lt; 5</text>
<polygon fill="#ffffff" stroke="none" points="1046,-89.2408 1046,-107.241 1113,-107.241 1113,-89.2408 1046,-89.2408"/>
<polygon fill="none" stroke="black" points="1046,-89.2408 1046,-107.241 1113,-107.241 1113,-89.2408 1046,-89.2408"/>
<text text-anchor="start" x="1074" y="-95.4408" font-family="Helvetica,sans-Serif" font-size="11.00">0 rows</text>
<polygon fill="#ffffff" stroke="none" points="1113,-89.2408 1113,-107.241 1151,-107.241 1151,-89.2408 1113,-89.2408"/>
<polygon fill="none" stroke="black" points="1113,-89.2408 1113,-107.241 1151,-107.241 1151,-89.2408 1113,-89.2408"/>
<text text-anchor="start" x="1141" y="-95.4408" font-family="Helvetica,sans-Serif" font-size="11.00"> &#160;</text>
</a>
</g>
</g>
<!-- tracking.planting_sites&#45;&gt;users -->
<g id="edge47" class="edge"><title>tracking.planting_sites:elipses:w&#45;&gt;users:elipses:e</title>
<path fill="none" stroke="black" d="M957.241,-116.006C814.666,-111.804 470.326,-53.6035 379,-142.241 343.263,-176.926 356.255,-540.506 346,-589.241 333.279,-649.698 361.281,-720.241 299.5,-720.241"/>
<polygon fill="black" stroke="black" points="964.001,-116.114 971.943,-119.84 968.001,-116.177 972,-116.241 972,-116.241 972,-116.241 968.001,-116.177 972.057,-112.641 964.001,-116.114 964.001,-116.114"/>
<ellipse fill="none" stroke="black" cx="960.801" cy="-116.063" rx="3.2" ry="3.2"/>
</g>
<!-- tracking.planting_sites&#45;&gt;users -->
<g id="edge48" class="edge"><title>tracking.planting_sites:elipses:w&#45;&gt;users:elipses:e</title>
<path fill="none" stroke="black" d="M957.236,-116.02C814.61,-112.059 470.085,-57.2986 379,-146.241 343.685,-180.725 356.179,-540.943 346,-589.241 333.259,-649.694 361.281,-720.241 299.5,-720.241"/>
<polygon fill="black" stroke="black" points="964.001,-116.121 971.946,-119.84 968,-116.181 972,-116.241 972,-116.241 972,-116.241 968,-116.181 972.054,-112.641 964.001,-116.121 964.001,-116.121"/>
<ellipse fill="none" stroke="black" cx="960.801" cy="-116.073" rx="3.2" ry="3.2"/>
</g>
<!-- tracking.planting_sites&#45;&gt;organizations -->
<g id="edge49" class="edge"><title>tracking.planting_sites:elipses:w&#45;&gt;organizations:id:e</title>
<path fill="none" stroke="black" d="M958.24,-121.338C918.96,-156.489 974.714,-362.743 932,-403.241 880.856,-451.732 670.535,-385.597 616,-430.241 558.32,-477.459 643.542,-591.241 569,-591.241"/>
<polygon fill="black" stroke="black" points="964.498,-119.02 973.251,-119.617 968.249,-117.63 972,-116.241 972,-116.241 972,-116.241 968.249,-117.63 970.749,-112.865 964.498,-119.02 964.498,-119.02"/>
<ellipse fill="none" stroke="black" cx="961.497" cy="-120.131" rx="3.20001" ry="3.20001"/>
</g>
<!-- tracking.planting_sites&#45;&gt;projects -->
<g id="edge50" class="edge"><title>tracking.planting_sites:elipses:w&#45;&gt;projects:elipses:e</title>
<path fill="none" stroke="black" d="M960.992,-125.752C932.46,-182.419 950.58,-474.263 932,-509.241 902.395,-564.974 886.108,-600.241 823,-600.241"/>
<polygon fill="black" stroke="black" points="965.946,-121.471 974.354,-118.965 968.973,-118.856 972,-116.241 972,-116.241 972,-116.241 968.973,-118.856 969.646,-113.517 965.946,-121.471 965.946,-121.471"/>
<ellipse fill="none" stroke="black" cx="963.525" cy="-123.563" rx="3.20001" ry="3.20001"/>
</g>
<!-- tracking.planting_sites&#45;&gt;time_zones -->
<g id="edge51" class="edge"><title>tracking.planting_sites:elipses:w&#45;&gt;time_zones:elipses:e</title>
<path fill="none" stroke="black" d="M957.962,-112.336C949.856,-107.016 945.664,-97.7504 932,-94.2408 693.95,-33.0959 603.953,4.76774 379,-94.2408 247.709,-152.026 235.565,-209.699 161,-332.241 134.175,-376.324 172.603,-441.241 121,-441.241"/>
<polygon fill="black" stroke="black" points="964.293,-114.097 971.035,-119.709 968.146,-115.169 972,-116.241 972,-116.241 972,-116.241 968.146,-115.169 972.965,-112.772 964.293,-114.097 964.293,-114.097"/>
<ellipse fill="none" stroke="black" cx="961.21" cy="-113.239" rx="3.20001" ry="3.20001"/>
</g>
</g>
</svg>
