<?xml version="1.0" encoding="UTF-8" standalone="no"?>
<!DOCTYPE svg PUBLIC "-//W3C//DTD SVG 1.1//EN"
 "http://www.w3.org/Graphics/SVG/1.1/DTD/svg11.dtd">
<!-- Generated by graphviz version 2.38.0 (20140413.2041)
 -->
<!-- Title: oneDegreeRelationshipsDiagram Pages: 1 -->
<svg width="635pt" height="339pt"
 viewBox="0.00 0.00 635.00 339.00" xmlns="http://www.w3.org/2000/svg" xmlns:xlink="http://www.w3.org/1999/xlink">
<g id="graph0" class="graph" transform="scale(1 1) rotate(0) translate(4 335)">
<title>oneDegreeRelationshipsDiagram</title>
<polygon fill="#ffffff" stroke="none" points="-4,4 -4,-335 631,-335 631,4 -4,4"/>
<text text-anchor="middle" x="74.5" y="-7.2" font-family="Helvetica,sans-Serif" font-size="11.00">Generated by SchemaSpy</text>
<!-- participants -->
<g id="node1" class="node"><title>participants</title>
<g id="a_node1"><a xlink:href="../../tables/participants.html" xlink:title="participants" target="_top">
<polygon fill="#ffffff" stroke="none" points="245,-45 245,-221 458,-221 458,-45 245,-45"/>
<polygon fill="#f5f5f5" stroke="none" points="247.5,-197 247.5,-219 456.5,-219 456.5,-197 247.5,-197"/>
<polygon fill="none" stroke="black" points="247.5,-197 247.5,-219 456.5,-219 456.5,-197 247.5,-197"/>
<text text-anchor="start" x="252.5" y="-206.2" font-family="Helvetica,sans-Serif" font-weight="bold" font-size="11.00">participants</text>
<text text-anchor="start" x="417.5" y="-205.2" font-family="Helvetica,sans-Serif" font-size="11.00">[table]</text>
<polygon fill="none" stroke="black" points="247.5,-175 247.5,-197 354.5,-197 354.5,-175 247.5,-175"/>
<image xlink:href="../../images/primaryKeys.png" width="11px" height="12px" preserveAspectRatio="xMinYMin meet" x="252.5" y="-192"/>
<text text-anchor="start" x="267.5" y="-183.2" font-family="Helvetica,sans-Serif" font-size="11.00">id</text>
<polygon fill="none" stroke="black" points="354.5,-175 354.5,-197 456.5,-197 456.5,-175 354.5,-175"/>
<text text-anchor="start" x="357.5" y="-183.2" font-family="Helvetica,sans-Serif" font-size="11.00">int8[19]</text>
<polygon fill="#ffffff" stroke="none" points="247.5,-153 247.5,-175 354.5,-175 354.5,-153 247.5,-153"/>
<polygon fill="none" stroke="black" points="247.5,-153 247.5,-175 354.5,-175 354.5,-153 247.5,-153"/>
<text text-anchor="start" x="267.5" y="-161.2" font-family="Helvetica,sans-Serif" font-size="11.00">name</text>
<polygon fill="none" stroke="black" points="354.5,-153 354.5,-175 456.5,-175 456.5,-153 354.5,-153"/>
<text text-anchor="start" x="357.5" y="-161.2" font-family="Helvetica,sans-Serif" font-size="11.00">text[2147483647]</text>
<polygon fill="#ffffff" stroke="none" points="247.5,-131 247.5,-153 354.5,-153 354.5,-131 247.5,-131"/>
<polygon fill="none" stroke="black" points="247.5,-131 247.5,-153 354.5,-153 354.5,-131 247.5,-131"/>
<image xlink:href="../../images/foreignKeys.png" width="11px" height="12px" preserveAspectRatio="xMinYMin meet" x="252.5" y="-148"/>
<text text-anchor="start" x="267.5" y="-139.2" font-family="Helvetica,sans-Serif" font-size="11.00">created_by</text>
<polygon fill="none" stroke="black" points="354.5,-131 354.5,-153 456.5,-153 456.5,-131 354.5,-131"/>
<text text-anchor="start" x="357.5" y="-139.2" font-family="Helvetica,sans-Serif" font-size="11.00">int8[19]</text>
<polygon fill="none" stroke="black" points="247.5,-109 247.5,-131 354.5,-131 354.5,-109 247.5,-109"/>
<text text-anchor="start" x="267.5" y="-117.2" font-family="Helvetica,sans-Serif" font-size="11.00">created_time</text>
<polygon fill="none" stroke="black" points="354.5,-109 354.5,-131 456.5,-131 456.5,-109 354.5,-109"/>
<text text-anchor="start" x="357.5" y="-117.2" font-family="Helvetica,sans-Serif" font-size="11.00">timestamptz[35,6]</text>
<polygon fill="#ffffff" stroke="none" points="247.5,-87 247.5,-109 354.5,-109 354.5,-87 247.5,-87"/>
<polygon fill="none" stroke="black" points="247.5,-87 247.5,-109 354.5,-109 354.5,-87 247.5,-87"/>
<image xlink:href="../../images/foreignKeys.png" width="11px" height="12px" preserveAspectRatio="xMinYMin meet" x="252.5" y="-104"/>
<text text-anchor="start" x="267.5" y="-95.2" font-family="Helvetica,sans-Serif" font-size="11.00">modified_by</text>
<polygon fill="none" stroke="black" points="354.5,-87 354.5,-109 456.5,-109 456.5,-87 354.5,-87"/>
<text text-anchor="start" x="357.5" y="-95.2" font-family="Helvetica,sans-Serif" font-size="11.00">int8[19]</text>
<polygon fill="none" stroke="black" points="247.5,-65 247.5,-87 354.5,-87 354.5,-65 247.5,-65"/>
<text text-anchor="start" x="267.5" y="-73.2" font-family="Helvetica,sans-Serif" font-size="11.00">modified_time</text>
<polygon fill="none" stroke="black" points="354.5,-65 354.5,-87 456.5,-87 456.5,-65 354.5,-65"/>
<text text-anchor="start" x="357.5" y="-73.2" font-family="Helvetica,sans-Serif" font-size="11.00">timestamptz[35,6]</text>
<polygon fill="#ffffff" stroke="none" points="247.5,-47 247.5,-65 291.5,-65 291.5,-47 247.5,-47"/>
<polygon fill="none" stroke="black" points="247.5,-47 247.5,-65 291.5,-65 291.5,-47 247.5,-47"/>
<text text-anchor="start" x="250.5" y="-53.2" font-family="Helvetica,sans-Serif" font-size="11.00">&lt; 2</text>
<polygon fill="#ffffff" stroke="none" points="291.5,-47 291.5,-65 354.5,-65 354.5,-47 291.5,-47"/>
<polygon fill="none" stroke="black" points="291.5,-47 291.5,-65 354.5,-65 354.5,-47 291.5,-47"/>
<text text-anchor="start" x="315.5" y="-53.2" font-family="Helvetica,sans-Serif" font-size="11.00">0 rows</text>
<polygon fill="#ffffff" stroke="none" points="354.5,-47 354.5,-65 456.5,-65 456.5,-47 354.5,-47"/>
<polygon fill="none" stroke="black" points="354.5,-47 354.5,-65 456.5,-65 456.5,-47 354.5,-47"/>
<text text-anchor="start" x="436.5" y="-53.2" font-family="Helvetica,sans-Serif" font-size="11.00">1 &gt;</text>
<polygon fill="none" stroke="black" stroke-width="2" points="246,-46 246,-220 457,-220 457,-46 246,-46"/>
</a>
</g>
</g>
<!-- users -->
<g id="node2" class="node"><title>users</title>
<g id="a_node2"><a xlink:href="../../tables/users.html" xlink:title="users" target="_top">
<polygon fill="#ffffff" stroke="none" points="8,-37 8,-227 196,-227 196,-37 8,-37"/>
<polygon fill="#f5f5f5" stroke="none" points="8,-205 8,-227 196,-227 196,-205 8,-205"/>
<polygon fill="none" stroke="black" points="8,-205 8,-227 196,-227 196,-205 8,-205"/>
<text text-anchor="start" x="13" y="-214.2" font-family="Helvetica,sans-Serif" font-weight="bold" font-size="11.00">users</text>
<text text-anchor="start" x="157" y="-213.2" font-family="Helvetica,sans-Serif" font-size="11.00">[table]</text>
<polygon fill="none" stroke="black" points="8,-183 8,-205 196,-205 196,-183 8,-183"/>
<image xlink:href="../../images/primaryKeys.png" width="11px" height="12px" preserveAspectRatio="xMinYMin meet" x="13" y="-200"/>
<text text-anchor="start" x="28" y="-191.2" font-family="Helvetica,sans-Serif" font-size="11.00">id</text>
<polygon fill="#ffffff" stroke="none" points="8,-161 8,-183 196,-183 196,-161 8,-161"/>
<polygon fill="none" stroke="black" points="8,-161 8,-183 196,-183 196,-161 8,-161"/>
<text text-anchor="start" x="28" y="-169.2" font-family="Helvetica,sans-Serif" font-size="11.00">auth_id</text>
<polygon fill="#ffffff" stroke="none" points="8,-139 8,-161 196,-161 196,-139 8,-139"/>
<polygon fill="none" stroke="black" points="8,-139 8,-161 196,-161 196,-139 8,-139"/>
<text text-anchor="start" x="28" y="-147.2" font-family="Helvetica,sans-Serif" font-size="11.00">email</text>
<polygon fill="none" stroke="black" points="8,-117 8,-139 196,-139 196,-117 8,-117"/>
<image xlink:href="../../images/foreignKeys.png" width="11px" height="12px" preserveAspectRatio="xMinYMin meet" x="13" y="-134"/>
<text text-anchor="start" x="28" y="-125.2" font-family="Helvetica,sans-Serif" font-size="11.00">user_type_id</text>
<polygon fill="none" stroke="black" points="8,-95 8,-117 196,-117 196,-95 8,-95"/>
<image xlink:href="../../images/foreignKeys.png" width="11px" height="12px" preserveAspectRatio="xMinYMin meet" x="13" y="-112"/>
<text text-anchor="start" x="28" y="-103.2" font-family="Helvetica,sans-Serif" font-size="11.00">time_zone</text>
<polygon fill="none" stroke="black" points="8,-73 8,-95 196,-95 196,-73 8,-73"/>
<image xlink:href="../../images/foreignKeys.png" width="11px" height="12px" preserveAspectRatio="xMinYMin meet" x="13" y="-90"/>
<text text-anchor="start" x="28" y="-81.2" font-family="Helvetica,sans-Serif" font-size="11.00">country_code</text>
<polygon fill="none" stroke="black" points="8,-55 8,-73 196,-73 196,-55 8,-55"/>
<text text-anchor="start" x="11" y="-61.2" font-family="Helvetica,sans-Serif" font-size="11.00">...</text>
<polygon fill="#ffffff" stroke="none" points="8,-37 8,-55 80,-55 80,-37 8,-37"/>
<polygon fill="none" stroke="black" points="8,-37 8,-55 80,-55 80,-37 8,-37"/>
<text text-anchor="start" x="11" y="-43.2" font-family="Helvetica,sans-Serif" font-size="11.00">&lt; 3</text>
<polygon fill="#ffffff" stroke="none" points="80,-37 80,-55 141,-55 141,-37 80,-37"/>
<polygon fill="none" stroke="black" points="80,-37 80,-55 141,-55 141,-37 80,-37"/>
<text text-anchor="start" x="107" y="-43.2" font-family="Helvetica,sans-Serif" font-size="11.00">1 row</text>
<polygon fill="#ffffff" stroke="none" points="141,-37 141,-55 196,-55 196,-37 141,-37"/>
<polygon fill="none" stroke="black" points="141,-37 141,-55 196,-55 196,-37 141,-37"/>
<text text-anchor="start" x="169" y="-43.2" font-family="Helvetica,sans-Serif" font-size="11.00">65 &gt;</text>
</a>
</g>
</g>
<!-- participants&#45;&gt;users -->
<g id="edge1" class="edge"><title>participants:created_by:w&#45;&gt;users:id:e</title>
<path fill="none" stroke="black" d="M232.818,-146.799C218.335,-159.672 222.925,-194 197,-194"/>
<polygon fill="black" stroke="black" points="238.951,-144.648 247.691,-145.397 242.725,-143.324 246.5,-142 246.5,-142 246.5,-142 242.725,-143.324 245.309,-138.603 238.951,-144.648 238.951,-144.648"/>
<ellipse fill="none" stroke="black" cx="235.931" cy="-145.707" rx="3.20001" ry="3.20001"/>
</g>
<!-- participants&#45;&gt;users -->
<g id="edge2" class="edge"><title>participants:modified_by:w&#45;&gt;users:id:e</title>
<path fill="none" stroke="black" d="M232.559,-102.125C208.646,-120.5 239.004,-194 197,-194"/>
<polygon fill="black" stroke="black" points="238.829,-100.27 247.521,-101.452 242.664,-99.135 246.5,-98 246.5,-98 246.5,-98 242.664,-99.135 245.479,-94.548 238.829,-100.27 238.829,-100.27"/>
<ellipse fill="none" stroke="black" cx="235.76" cy="-101.178" rx="3.20001" ry="3.20001"/>
</g>
<!-- projects -->
<g id="node3" class="node"><title>projects</title>
<g id="a_node3"><a xlink:href="../../tables/projects.html" xlink:title="projects" target="_top">
<polygon fill="#ffffff" stroke="none" points="507,-137 507,-327 619,-327 619,-137 507,-137"/>
<polygon fill="#f5f5f5" stroke="none" points="507,-305 507,-327 619,-327 619,-305 507,-305"/>
<polygon fill="none" stroke="black" points="507,-305 507,-327 619,-327 619,-305 507,-305"/>
<text text-anchor="start" x="512" y="-314.2" font-family="Helvetica,sans-Serif" font-weight="bold" font-size="11.00">projects</text>
<text text-anchor="start" x="580" y="-313.2" font-family="Helvetica,sans-Serif" font-size="11.00">[table]</text>
<polygon fill="none" stroke="black" points="507,-283 507,-305 619,-305 619,-283 507,-283"/>
<image xlink:href="../../images/primaryKeys.png" width="11px" height="12px" preserveAspectRatio="xMinYMin meet" x="512" y="-300"/>
<text text-anchor="start" x="527" y="-291.2" font-family="Helvetica,sans-Serif" font-size="11.00">id</text>
<polygon fill="#ffffff" stroke="none" points="507,-261 507,-283 619,-283 619,-261 507,-261"/>
<polygon fill="none" stroke="black" points="507,-261 507,-283 619,-283 619,-261 507,-261"/>
<image xlink:href="../../images/foreignKeys.png" width="11px" height="12px" preserveAspectRatio="xMinYMin meet" x="512" y="-278"/>
<text text-anchor="start" x="527" y="-269.2" font-family="Helvetica,sans-Serif" font-size="11.00">created_by</text>
<polygon fill="#ffffff" stroke="none" points="507,-239 507,-261 619,-261 619,-239 507,-239"/>
<polygon fill="none" stroke="black" points="507,-239 507,-261 619,-261 619,-239 507,-239"/>
<image xlink:href="../../images/foreignKeys.png" width="11px" height="12px" preserveAspectRatio="xMinYMin meet" x="512" y="-256"/>
<text text-anchor="start" x="527" y="-247.2" font-family="Helvetica,sans-Serif" font-size="11.00">modified_by</text>
<polygon fill="#ffffff" stroke="none" points="507,-217 507,-239 619,-239 619,-217 507,-217"/>
<polygon fill="none" stroke="black" points="507,-217 507,-239 619,-239 619,-217 507,-217"/>
<image xlink:href="../../images/foreignKeys.png" width="11px" height="12px" preserveAspectRatio="xMinYMin meet" x="512" y="-234"/>
<text text-anchor="start" x="527" y="-225.2" font-family="Helvetica,sans-Serif" font-size="11.00">organization_id</text>
<polygon fill="#ffffff" stroke="none" points="507,-195 507,-217 619,-217 619,-195 507,-195"/>
<polygon fill="none" stroke="black" points="507,-195 507,-217 619,-217 619,-195 507,-195"/>
<text text-anchor="start" x="527" y="-203.2" font-family="Helvetica,sans-Serif" font-size="11.00">name</text>
<polygon fill="#ffffff" stroke="none" points="507,-173 507,-195 619,-195 619,-173 507,-173"/>
<polygon fill="none" stroke="black" points="507,-173 507,-195 619,-195 619,-173 507,-173"/>
<image xlink:href="../../images/foreignKeys.png" width="11px" height="12px" preserveAspectRatio="xMinYMin meet" x="512" y="-190"/>
<text text-anchor="start" x="527" y="-181.2" font-family="Helvetica,sans-Serif" font-size="11.00">participant_id</text>
<polygon fill="none" stroke="black" points="507,-155 507,-173 619,-173 619,-155 507,-155"/>
<text text-anchor="start" x="510" y="-161.2" font-family="Helvetica,sans-Serif" font-size="11.00">...</text>
<polygon fill="#ffffff" stroke="none" points="507,-137 507,-155 542,-155 542,-137 507,-137"/>
<polygon fill="none" stroke="black" points="507,-137 507,-155 542,-155 542,-137 507,-137"/>
<text text-anchor="start" x="510" y="-143.2" font-family="Helvetica,sans-Serif" font-size="11.00">&lt; 4</text>
<polygon fill="#ffffff" stroke="none" points="542,-137 542,-155 590,-155 590,-137 542,-137"/>
<polygon fill="none" stroke="black" points="542,-137 542,-155 590,-155 590,-137 542,-137"/>
<text text-anchor="start" x="551" y="-143.2" font-family="Helvetica,sans-Serif" font-size="11.00">0 rows</text>
<polygon fill="#ffffff" stroke="none" points="590,-137 590,-155 619,-155 619,-137 590,-137"/>
<polygon fill="none" stroke="black" points="590,-137 590,-155 619,-155 619,-137 590,-137"/>
<text text-anchor="start" x="599" y="-143.2" font-family="Helvetica,sans-Serif" font-size="11.00">6 &gt;</text>
</a>
</g>
</g>
<!-- projects&#45;&gt;participants -->
<g id="edge5" class="edge"><title>projects:participant_id:w&#45;&gt;participants:id.type:e</title>
<path fill="none" stroke="black" d="M491.278,-184.367C480.286,-184.944 473.175,-186 457.5,-186"/>
<polygon fill="black" stroke="black" points="498.002,-184.199 506.09,-187.599 502.001,-184.1 506,-184 506,-184 506,-184 502.001,-184.1 505.91,-180.401 498.002,-184.199 498.002,-184.199"/>
<ellipse fill="none" stroke="black" cx="494.803" cy="-184.279" rx="3.2" ry="3.2"/>
</g>
<!-- projects&#45;&gt;users -->
<g id="edge3" class="edge"><title>projects:created_by:w&#45;&gt;users:id:e</title>
<path fill="none" stroke="black" d="M491.291,-272.218C382.27,-275.448 336.207,-312.695 237,-255 208.975,-238.701 229.42,-194 197,-194"/>
<polygon fill="black" stroke="black" points="498.001,-272.118 506.053,-275.6 502,-272.059 506,-272 506,-272 506,-272 502,-272.059 505.947,-268.4 498.001,-272.118 498.001,-272.118"/>
<ellipse fill="none" stroke="black" cx="494.801" cy="-272.166" rx="3.2" ry="3.2"/>
</g>
<!-- projects&#45;&gt;users -->
<g id="edge4" class="edge"><title>projects:modified_by:w&#45;&gt;users:id:e</title>
<path fill="none" stroke="black" d="M491.181,-250.085C423.744,-250.734 287.795,-254.276 237,-232 214.543,-222.152 221.521,-194 197,-194"/>
<polygon fill="black" stroke="black" points="498,-250.046 506.021,-253.6 502,-250.023 506,-250 506,-250 506,-250 502,-250.023 505.979,-246.4 498,-250.046 498,-250.046"/>
<ellipse fill="none" stroke="black" cx="494.8" cy="-250.065" rx="3.2" ry="3.2"/>
</g>
</g>
</svg>
