<?xml version="1.0" encoding="UTF-8" standalone="no"?>
<!DOCTYPE svg PUBLIC "-//W3C//DTD SVG 1.1//EN"
 "http://www.w3.org/Graphics/SVG/1.1/DTD/svg11.dtd">
<!-- Generated by graphviz version 2.38.0 (20140413.2041)
 -->
<!-- Title: oneDegreeRelationshipsDiagram Pages: 1 -->
<svg width="727pt" height="455pt"
 viewBox="0.00 0.00 727.00 455.00" xmlns="http://www.w3.org/2000/svg" xmlns:xlink="http://www.w3.org/1999/xlink">
<g id="graph0" class="graph" transform="scale(1 1) rotate(0) translate(4 451)">
<title>oneDegreeRelationshipsDiagram</title>
<polygon fill="#ffffff" stroke="none" points="-4,4 -4,-451 723,-451 723,4 -4,4"/>
<text text-anchor="middle" x="74.5" y="-7.2" font-family="Helvetica,sans-Serif" font-size="11.00">Generated by SchemaSpy</text>
<!-- photos -->
<g id="node1" class="node"><title>photos</title>
<g id="a_node1"><a xlink:href="../../tables/photos.html" xlink:title="photos" target="_top">
<polygon fill="#ffffff" stroke="none" points="245,-97 245,-339 458,-339 458,-97 245,-97"/>
<polygon fill="#f5f5f5" stroke="none" points="247.5,-315 247.5,-337 456.5,-337 456.5,-315 247.5,-315"/>
<polygon fill="none" stroke="black" points="247.5,-315 247.5,-337 456.5,-337 456.5,-315 247.5,-315"/>
<text text-anchor="start" x="252.5" y="-324.2" font-family="Helvetica,sans-Serif" font-weight="bold" font-size="11.00">photos</text>
<text text-anchor="start" x="417.5" y="-323.2" font-family="Helvetica,sans-Serif" font-size="11.00">[table]</text>
<polygon fill="none" stroke="black" points="247.5,-293 247.5,-315 354.5,-315 354.5,-293 247.5,-293"/>
<image xlink:href="../../images/primaryKeys.png" width="11px" height="12px" preserveAspectRatio="xMinYMin meet" x="252.5" y="-310"/>
<text text-anchor="start" x="267.5" y="-301.2" font-family="Helvetica,sans-Serif" font-size="11.00">id</text>
<polygon fill="none" stroke="black" points="354.5,-293 354.5,-315 456.5,-315 456.5,-293 354.5,-293"/>
<text text-anchor="start" x="357.5" y="-301.2" font-family="Helvetica,sans-Serif" font-size="11.00">int8[19]</text>
<polygon fill="none" stroke="black" points="247.5,-271 247.5,-293 354.5,-293 354.5,-271 247.5,-271"/>
<text text-anchor="start" x="267.5" y="-279.2" font-family="Helvetica,sans-Serif" font-size="11.00">file_name</text>
<polygon fill="none" stroke="black" points="354.5,-271 354.5,-293 456.5,-293 456.5,-271 354.5,-271"/>
<text text-anchor="start" x="357.5" y="-279.2" font-family="Helvetica,sans-Serif" font-size="11.00">text[2147483647]</text>
<polygon fill="none" stroke="black" points="247.5,-249 247.5,-271 354.5,-271 354.5,-249 247.5,-249"/>
<text text-anchor="start" x="267.5" y="-257.2" font-family="Helvetica,sans-Serif" font-size="11.00">content_type</text>
<polygon fill="none" stroke="black" points="354.5,-249 354.5,-271 456.5,-271 456.5,-249 354.5,-249"/>
<text text-anchor="start" x="357.5" y="-257.2" font-family="Helvetica,sans-Serif" font-size="11.00">text[2147483647]</text>
<polygon fill="none" stroke="black" points="247.5,-227 247.5,-249 354.5,-249 354.5,-227 247.5,-227"/>
<text text-anchor="start" x="267.5" y="-235.2" font-family="Helvetica,sans-Serif" font-size="11.00">size</text>
<polygon fill="none" stroke="black" points="354.5,-227 354.5,-249 456.5,-249 456.5,-227 354.5,-227"/>
<text text-anchor="start" x="357.5" y="-235.2" font-family="Helvetica,sans-Serif" font-size="11.00">int8[19]</text>
<polygon fill="none" stroke="black" points="247.5,-205 247.5,-227 354.5,-227 354.5,-205 247.5,-205"/>
<text text-anchor="start" x="267.5" y="-213.2" font-family="Helvetica,sans-Serif" font-size="11.00">created_time</text>
<polygon fill="none" stroke="black" points="354.5,-205 354.5,-227 456.5,-227 456.5,-205 354.5,-205"/>
<text text-anchor="start" x="357.5" y="-213.2" font-family="Helvetica,sans-Serif" font-size="11.00">timestamptz[35,6]</text>
<polygon fill="none" stroke="black" points="247.5,-183 247.5,-205 354.5,-205 354.5,-183 247.5,-183"/>
<text text-anchor="start" x="267.5" y="-191.2" font-family="Helvetica,sans-Serif" font-size="11.00">modified_time</text>
<polygon fill="none" stroke="black" points="354.5,-183 354.5,-205 456.5,-205 456.5,-183 354.5,-183"/>
<text text-anchor="start" x="357.5" y="-191.2" font-family="Helvetica,sans-Serif" font-size="11.00">timestamptz[35,6]</text>
<polygon fill="none" stroke="black" points="247.5,-161 247.5,-183 354.5,-183 354.5,-161 247.5,-161"/>
<image xlink:href="../../images/foreignKeys.png" width="11px" height="12px" preserveAspectRatio="xMinYMin meet" x="252.5" y="-178"/>
<text text-anchor="start" x="267.5" y="-169.2" font-family="Helvetica,sans-Serif" font-size="11.00">created_by</text>
<polygon fill="none" stroke="black" points="354.5,-161 354.5,-183 456.5,-183 456.5,-161 354.5,-161"/>
<text text-anchor="start" x="357.5" y="-169.2" font-family="Helvetica,sans-Serif" font-size="11.00">int8[19]</text>
<polygon fill="#ffffff" stroke="none" points="247.5,-139 247.5,-161 354.5,-161 354.5,-139 247.5,-139"/>
<polygon fill="none" stroke="black" points="247.5,-139 247.5,-161 354.5,-161 354.5,-139 247.5,-139"/>
<text text-anchor="start" x="267.5" y="-147.2" font-family="Helvetica,sans-Serif" font-size="11.00">storage_url</text>
<polygon fill="none" stroke="black" points="354.5,-139 354.5,-161 456.5,-161 456.5,-139 354.5,-139"/>
<text text-anchor="start" x="357.5" y="-147.2" font-family="Helvetica,sans-Serif" font-size="11.00">text[2147483647]</text>
<polygon fill="none" stroke="black" points="247.5,-117 247.5,-139 354.5,-139 354.5,-117 247.5,-117"/>
<image xlink:href="../../images/foreignKeys.png" width="11px" height="12px" preserveAspectRatio="xMinYMin meet" x="252.5" y="-134"/>
<text text-anchor="start" x="267.5" y="-125.2" font-family="Helvetica,sans-Serif" font-size="11.00">modified_by</text>
<polygon fill="none" stroke="black" points="354.5,-117 354.5,-139 456.5,-139 456.5,-117 354.5,-117"/>
<text text-anchor="start" x="357.5" y="-125.2" font-family="Helvetica,sans-Serif" font-size="11.00">int8[19]</text>
<polygon fill="#ffffff" stroke="none" points="247.5,-99 247.5,-117 291.5,-117 291.5,-99 247.5,-99"/>
<polygon fill="none" stroke="black" points="247.5,-99 247.5,-117 291.5,-117 291.5,-99 247.5,-99"/>
<text text-anchor="start" x="250.5" y="-105.2" font-family="Helvetica,sans-Serif" font-size="11.00">&lt; 2</text>
<polygon fill="#ffffff" stroke="none" points="291.5,-99 291.5,-117 354.5,-117 354.5,-99 291.5,-99"/>
<polygon fill="none" stroke="black" points="291.5,-99 291.5,-117 354.5,-117 354.5,-99 291.5,-99"/>
<text text-anchor="start" x="315.5" y="-105.2" font-family="Helvetica,sans-Serif" font-size="11.00">0 rows</text>
<polygon fill="#ffffff" stroke="none" points="354.5,-99 354.5,-117 456.5,-117 456.5,-99 354.5,-99"/>
<polygon fill="none" stroke="black" points="354.5,-99 354.5,-117 456.5,-117 456.5,-99 354.5,-99"/>
<text text-anchor="start" x="436.5" y="-105.2" font-family="Helvetica,sans-Serif" font-size="11.00">2 &gt;</text>
<polygon fill="none" stroke="black" stroke-width="2" points="246,-98 246,-338 457,-338 457,-98 246,-98"/>
</a>
</g>
</g>
<!-- users -->
<g id="node2" class="node"><title>users</title>
<g id="a_node2"><a xlink:href="../../tables/users.html" xlink:title="users" target="_top">
<polygon fill="#ffffff" stroke="none" points="8,-37 8,-183 196,-183 196,-37 8,-37"/>
<polygon fill="#f5f5f5" stroke="none" points="8,-161 8,-183 196,-183 196,-161 8,-161"/>
<polygon fill="none" stroke="black" points="8,-161 8,-183 196,-183 196,-161 8,-161"/>
<text text-anchor="start" x="13" y="-170.2" font-family="Helvetica,sans-Serif" font-weight="bold" font-size="11.00">users</text>
<text text-anchor="start" x="157" y="-169.2" font-family="Helvetica,sans-Serif" font-size="11.00">[table]</text>
<polygon fill="none" stroke="black" points="8,-139 8,-161 196,-161 196,-139 8,-139"/>
<image xlink:href="../../images/primaryKeys.png" width="11px" height="12px" preserveAspectRatio="xMinYMin meet" x="13" y="-156"/>
<text text-anchor="start" x="28" y="-147.2" font-family="Helvetica,sans-Serif" font-size="11.00">id</text>
<polygon fill="#ffffff" stroke="none" points="8,-117 8,-139 196,-139 196,-117 8,-117"/>
<polygon fill="none" stroke="black" points="8,-117 8,-139 196,-139 196,-117 8,-117"/>
<text text-anchor="start" x="28" y="-125.2" font-family="Helvetica,sans-Serif" font-size="11.00">auth_id</text>
<polygon fill="#ffffff" stroke="none" points="8,-95 8,-117 196,-117 196,-95 8,-95"/>
<polygon fill="none" stroke="black" points="8,-95 8,-117 196,-117 196,-95 8,-95"/>
<text text-anchor="start" x="28" y="-103.2" font-family="Helvetica,sans-Serif" font-size="11.00">email</text>
<polygon fill="none" stroke="black" points="8,-73 8,-95 196,-95 196,-73 8,-73"/>
<image xlink:href="../../images/foreignKeys.png" width="11px" height="12px" preserveAspectRatio="xMinYMin meet" x="13" y="-90"/>
<text text-anchor="start" x="28" y="-81.2" font-family="Helvetica,sans-Serif" font-size="11.00">user_type_id</text>
<polygon fill="none" stroke="black" points="8,-55 8,-73 196,-73 196,-55 8,-55"/>
<text text-anchor="start" x="11" y="-61.2" font-family="Helvetica,sans-Serif" font-size="11.00">...</text>
<polygon fill="#ffffff" stroke="none" points="8,-37 8,-55 80,-55 80,-37 8,-37"/>
<polygon fill="none" stroke="black" points="8,-37 8,-55 80,-55 80,-37 8,-37"/>
<text text-anchor="start" x="11" y="-43.2" font-family="Helvetica,sans-Serif" font-size="11.00">&lt; 1</text>
<polygon fill="#ffffff" stroke="none" points="80,-37 80,-55 141,-55 141,-37 80,-37"/>
<polygon fill="none" stroke="black" points="80,-37 80,-55 141,-55 141,-37 80,-37"/>
<text text-anchor="start" x="107" y="-43.2" font-family="Helvetica,sans-Serif" font-size="11.00">1 row</text>
<polygon fill="#ffffff" stroke="none" points="141,-37 141,-55 196,-55 196,-37 141,-37"/>
<polygon fill="none" stroke="black" points="141,-37 141,-55 196,-55 196,-37 141,-37"/>
<text text-anchor="start" x="169" y="-43.2" font-family="Helvetica,sans-Serif" font-size="11.00">30 &gt;</text>
</a>
</g>
</g>
<!-- photos&#45;&gt;users -->
<g id="edge1" class="edge"><title>photos:created_by:w&#45;&gt;users:id:e</title>
<path fill="none" stroke="black" d="M232.361,-168.754C220.438,-162.634 215.244,-150 197,-150"/>
<polygon fill="black" stroke="black" points="238.703,-170.21 245.694,-175.509 242.601,-171.105 246.5,-172 246.5,-172 246.5,-172 242.601,-171.105 247.306,-168.491 238.703,-170.21 238.703,-170.21"/>
<ellipse fill="none" stroke="black" cx="235.584" cy="-169.494" rx="3.2" ry="3.2"/>
</g>
<!-- photos&#45;&gt;users -->
<g id="edge2" class="edge"><title>photos:modified_by:w&#45;&gt;users:id:e</title>
<path fill="none" stroke="black" d="M232.361,-131.246C220.438,-137.366 215.244,-150 197,-150"/>
<polygon fill="black" stroke="black" points="238.703,-129.79 247.306,-131.509 242.601,-128.895 246.5,-128 246.5,-128 246.5,-128 242.601,-128.895 245.694,-124.491 238.703,-129.79 238.703,-129.79"/>
<ellipse fill="none" stroke="black" cx="235.584" cy="-130.506" rx="3.2" ry="3.2"/>
</g>
<!-- thumbnails -->
<g id="node3" class="node"><title>thumbnails</title>
<g id="a_node3"><a xlink:href="../../tables/thumbnails.html" xlink:title="thumbnails" target="_top">
<polygon fill="#ffffff" stroke="none" points="551.5,-275 551.5,-443 666.5,-443 666.5,-275 551.5,-275"/>
<polygon fill="#f5f5f5" stroke="none" points="552,-421 552,-443 667,-443 667,-421 552,-421"/>
<polygon fill="none" stroke="black" points="552,-421 552,-443 667,-443 667,-421 552,-421"/>
<text text-anchor="start" x="557" y="-430.2" font-family="Helvetica,sans-Serif" font-weight="bold" font-size="11.00">thumbnails</text>
<text text-anchor="start" x="628" y="-429.2" font-family="Helvetica,sans-Serif" font-size="11.00">[table]</text>
<polygon fill="none" stroke="black" points="552,-399 552,-421 667,-421 667,-399 552,-399"/>
<image xlink:href="../../images/primaryKeys.png" width="11px" height="12px" preserveAspectRatio="xMinYMin meet" x="557" y="-416"/>
<text text-anchor="start" x="580" y="-407.2" font-family="Helvetica,sans-Serif" font-size="11.00">id</text>
<polygon fill="#ffffff" stroke="none" points="552,-377 552,-399 667,-399 667,-377 552,-377"/>
<polygon fill="none" stroke="black" points="552,-377 552,-399 667,-399 667,-377 552,-377"/>
<image xlink:href="../../images/foreignKeys.png" width="11px" height="12px" preserveAspectRatio="xMinYMin meet" x="557" y="-394"/>
<text text-anchor="start" x="580" y="-385.2" font-family="Helvetica,sans-Serif" font-size="11.00">photo_id</text>
<polygon fill="#ffffff" stroke="none" points="552,-355 552,-377 667,-377 667,-355 552,-355"/>
<polygon fill="none" stroke="black" points="552,-355 552,-377 667,-377 667,-355 552,-355"/>
<text text-anchor="start" x="580" y="-363.2" font-family="Helvetica,sans-Serif" font-size="11.00">width</text>
<polygon fill="#ffffff" stroke="none" points="552,-333 552,-355 667,-355 667,-333 552,-333"/>
<polygon fill="none" stroke="black" points="552,-333 552,-355 667,-355 667,-333 552,-333"/>
<text text-anchor="start" x="580" y="-341.2" font-family="Helvetica,sans-Serif" font-size="11.00">height</text>
<polygon fill="#ffffff" stroke="none" points="552,-311 552,-333 667,-333 667,-311 552,-311"/>
<polygon fill="none" stroke="black" points="552,-311 552,-333 667,-333 667,-311 552,-311"/>
<text text-anchor="start" x="580" y="-319.2" font-family="Helvetica,sans-Serif" font-size="11.00">storage_url</text>
<polygon fill="none" stroke="black" points="552,-293 552,-311 667,-311 667,-293 552,-293"/>
<text text-anchor="start" x="555" y="-299.2" font-family="Helvetica,sans-Serif" font-size="11.00">...</text>
<polygon fill="#ffffff" stroke="none" points="552,-275 552,-293 593,-293 593,-275 552,-275"/>
<polygon fill="none" stroke="black" points="552,-275 552,-293 593,-293 593,-275 552,-275"/>
<text text-anchor="start" x="555" y="-281.2" font-family="Helvetica,sans-Serif" font-size="11.00">&lt; 1</text>
<polygon fill="#ffffff" stroke="none" points="593,-275 593,-293 644,-293 644,-275 593,-275"/>
<polygon fill="none" stroke="black" points="593,-275 593,-293 644,-293 644,-275 593,-275"/>
<text text-anchor="start" x="605" y="-281.2" font-family="Helvetica,sans-Serif" font-size="11.00">0 rows</text>
<polygon fill="#ffffff" stroke="none" points="644,-275 644,-293 667,-293 667,-275 644,-275"/>
<polygon fill="none" stroke="black" points="644,-275 644,-293 667,-293 667,-275 644,-275"/>
<text text-anchor="start" x="657" y="-281.2" font-family="Helvetica,sans-Serif" font-size="11.00"> &#160;</text>
</a>
</g>
</g>
<!-- thumbnails&#45;&gt;photos -->
<g id="edge3" class="edge"><title>thumbnails:photo_id:w&#45;&gt;photos:id.type:e</title>
<path fill="none" stroke="black" d="M536.616,-385.753C497.99,-372.395 507.907,-304 457.5,-304"/>
<polygon fill="black" stroke="black" points="543.096,-386.765 550.444,-391.557 547.048,-387.383 551,-388 551,-388 551,-388 547.048,-387.383 551.556,-384.443 543.096,-386.765 543.096,-386.765"/>
<ellipse fill="none" stroke="black" cx="539.934" cy="-386.271" rx="3.2" ry="3.2"/>
</g>
<!-- seedbank.accession_photos -->
<g id="node4" class="node"><title>seedbank.accession_photos</title>
<g id="a_node4"><a xlink:href="../../../seedbank/tables/accession_photos.html" xlink:title="seedbank.accession_photos" target="_top">
<polygon fill="#ffffff" stroke="none" points="507,-174 507,-254 711,-254 711,-174 507,-174"/>
<polygon fill="#f5f5f5" stroke="none" points="507,-232 507,-254 711,-254 711,-232 507,-232"/>
<polygon fill="none" stroke="black" points="507,-232 507,-254 711,-254 711,-232 507,-232"/>
<text text-anchor="start" x="512" y="-241.2" font-family="Helvetica,sans-Serif" font-weight="bold" font-size="11.00">seedbank.accession_photos</text>
<text text-anchor="start" x="672" y="-240.2" font-family="Helvetica,sans-Serif" font-size="11.00">[table]</text>
<polygon fill="none" stroke="black" points="507,-210 507,-232 711,-232 711,-210 507,-210"/>
<image xlink:href="../../images/foreignKeys.png" width="11px" height="12px" preserveAspectRatio="xMinYMin meet" x="512" y="-227"/>
<text text-anchor="start" x="567" y="-218.2" font-family="Helvetica,sans-Serif" font-size="11.00">photo_id</text>
<polygon fill="none" stroke="black" points="507,-192 507,-210 711,-210 711,-192 507,-192"/>
<text text-anchor="start" x="510" y="-198.2" font-family="Helvetica,sans-Serif" font-size="11.00">...</text>
<polygon fill="#ffffff" stroke="none" points="507,-174 507,-192 593,-192 593,-174 507,-174"/>
<polygon fill="none" stroke="black" points="507,-174 507,-192 593,-192 593,-174 507,-174"/>
<text text-anchor="start" x="510" y="-180.2" font-family="Helvetica,sans-Serif" font-size="11.00">&lt; 1</text>
<polygon fill="#ffffff" stroke="none" points="593,-174 593,-192 666,-192 666,-174 593,-174"/>
<polygon fill="none" stroke="black" points="593,-174 593,-192 666,-192 666,-174 593,-174"/>
<text text-anchor="start" x="627" y="-180.2" font-family="Helvetica,sans-Serif" font-size="11.00">0 rows</text>
<polygon fill="#ffffff" stroke="none" points="666,-174 666,-192 711,-192 711,-174 666,-174"/>
<polygon fill="none" stroke="black" points="666,-174 666,-192 711,-192 711,-174 666,-174"/>
<text text-anchor="start" x="701" y="-180.2" font-family="Helvetica,sans-Serif" font-size="11.00"> &#160;</text>
</a>
</g>
</g>
<!-- seedbank.accession_photos&#45;&gt;photos -->
<g id="edge4" class="edge"><title>seedbank.accession_photos:photo_id:w&#45;&gt;photos:id.type:e</title>
<path fill="none" stroke="black" d="M492.259,-225.462C472.092,-242.702 494.217,-304 457.5,-304"/>
<polygon fill="black" stroke="black" points="498.391,-223.471 507.112,-224.424 502.196,-222.236 506,-221 506,-221 506,-221 502.196,-222.236 504.888,-217.576 498.391,-223.471 498.391,-223.471"/>
<ellipse fill="none" stroke="black" cx="495.348" cy="-224.459" rx="3.20001" ry="3.20001"/>
</g>
</g>
</svg>
