<?xml version="1.0" encoding="UTF-8" standalone="no"?>
<!DOCTYPE svg PUBLIC "-//W3C//DTD SVG 1.1//EN"
 "http://www.w3.org/Graphics/SVG/1.1/DTD/svg11.dtd">
<!-- Generated by graphviz version 2.38.0 (20140413.2041)
 -->
<!-- Title: twoDegreesRelationshipsDiagram Pages: 1 -->
<svg width="1097pt" height="272pt"
 viewBox="0.00 0.00 1097.00 272.22" xmlns="http://www.w3.org/2000/svg" xmlns:xlink="http://www.w3.org/1999/xlink">
<g id="graph0" class="graph" transform="scale(1 1) rotate(0) translate(4 268.224)">
<title>twoDegreesRelationshipsDiagram</title>
<polygon fill="#ffffff" stroke="none" points="-4,4 -4,-268.224 1093,-268.224 1093,4 -4,4"/>
<text text-anchor="middle" x="74.5" y="-7.2" font-family="Helvetica,sans-Serif" font-size="11.00">Generated by SchemaSpy</text>
<!-- countries -->
<g id="node1" class="node"><title>countries</title>
<g id="a_node1"><a xlink:href="../../tables/countries.html" xlink:title="countries" target="_top">
<polygon fill="#ffffff" stroke="none" points="227,-129 227,-231 330,-231 330,-129 227,-129"/>
<polygon fill="#f5f5f5" stroke="none" points="227.5,-209 227.5,-231 330.5,-231 330.5,-209 227.5,-209"/>
<polygon fill="none" stroke="black" points="227.5,-209 227.5,-231 330.5,-231 330.5,-209 227.5,-209"/>
<text text-anchor="start" x="232.5" y="-218.2" font-family="Helvetica,sans-Serif" font-weight="bold" font-size="11.00">countries</text>
<text text-anchor="start" x="291.5" y="-217.2" font-family="Helvetica,sans-Serif" font-size="11.00">[table]</text>
<polygon fill="none" stroke="black" points="227.5,-187 227.5,-209 330.5,-209 330.5,-187 227.5,-187"/>
<image xlink:href="../../images/primaryKeys.png" width="11px" height="12px" preserveAspectRatio="xMinYMin meet" x="232.5" y="-204"/>
<text text-anchor="start" x="260.5" y="-195.2" font-family="Helvetica,sans-Serif" font-size="11.00">code</text>
<polygon fill="none" stroke="black" points="227.5,-165 227.5,-187 330.5,-187 330.5,-165 227.5,-165"/>
<image xlink:href="../../images/foreignKeys.png" width="11px" height="12px" preserveAspectRatio="xMinYMin meet" x="232.5" y="-182"/>
<text text-anchor="start" x="260.5" y="-173.2" font-family="Helvetica,sans-Serif" font-size="11.00">region_id</text>
<polygon fill="none" stroke="black" points="227.5,-147 227.5,-165 330.5,-165 330.5,-147 227.5,-147"/>
<text text-anchor="start" x="230.5" y="-153.2" font-family="Helvetica,sans-Serif" font-size="11.00">...</text>
<polygon fill="#ffffff" stroke="none" points="227.5,-129 227.5,-147 251.5,-147 251.5,-129 227.5,-129"/>
<polygon fill="none" stroke="black" points="227.5,-129 227.5,-147 251.5,-147 251.5,-129 227.5,-129"/>
<text text-anchor="start" x="230.5" y="-135.2" font-family="Helvetica,sans-Serif" font-size="11.00">&lt; 1</text>
<polygon fill="#ffffff" stroke="none" points="251.5,-129 251.5,-147 306.5,-147 306.5,-129 251.5,-129"/>
<polygon fill="none" stroke="black" points="251.5,-129 251.5,-147 306.5,-147 306.5,-129 251.5,-129"/>
<text text-anchor="start" x="254.5" y="-135.2" font-family="Helvetica,sans-Serif" font-size="11.00">249 rows</text>
<polygon fill="#ffffff" stroke="none" points="306.5,-129 306.5,-147 330.5,-147 330.5,-129 306.5,-129"/>
<polygon fill="none" stroke="black" points="306.5,-129 306.5,-147 330.5,-147 330.5,-129 306.5,-129"/>
<text text-anchor="start" x="310.5" y="-135.2" font-family="Helvetica,sans-Serif" font-size="11.00">5 &gt;</text>
</a>
</g>
</g>
<!-- regions -->
<g id="node2" class="node"><title>regions</title>
<g id="a_node2"><a xlink:href="../../tables/regions.html" xlink:title="regions" target="_top">
<polygon fill="#ffffff" stroke="none" points="8,-123 8,-211 178,-211 178,-123 8,-123"/>
<polygon fill="#f5f5f5" stroke="none" points="10,-187 10,-209 176,-209 176,-187 10,-187"/>
<polygon fill="none" stroke="black" points="10,-187 10,-209 176,-209 176,-187 10,-187"/>
<text text-anchor="start" x="15" y="-196.2" font-family="Helvetica,sans-Serif" font-weight="bold" font-size="11.00">regions</text>
<text text-anchor="start" x="137" y="-195.2" font-family="Helvetica,sans-Serif" font-size="11.00">[table]</text>
<polygon fill="none" stroke="black" points="10,-165 10,-187 75,-187 75,-165 10,-165"/>
<image xlink:href="../../images/primaryKeys.png" width="11px" height="12px" preserveAspectRatio="xMinYMin meet" x="15" y="-182"/>
<text text-anchor="start" x="30" y="-173.2" font-family="Helvetica,sans-Serif" font-size="11.00">id</text>
<polygon fill="none" stroke="black" points="75,-165 75,-187 176,-187 176,-165 75,-165"/>
<text text-anchor="start" x="78" y="-173.2" font-family="Helvetica,sans-Serif" font-size="11.00">int4[10]</text>
<polygon fill="#ffffff" stroke="none" points="10,-143 10,-165 75,-165 75,-143 10,-143"/>
<polygon fill="none" stroke="black" points="10,-143 10,-165 75,-165 75,-143 10,-143"/>
<text text-anchor="start" x="30" y="-151.2" font-family="Helvetica,sans-Serif" font-size="11.00">name</text>
<polygon fill="none" stroke="black" points="75,-143 75,-165 176,-165 176,-143 75,-143"/>
<text text-anchor="start" x="78" y="-151.2" font-family="Helvetica,sans-Serif" font-size="11.00">text[2147483647]</text>
<polygon fill="#ffffff" stroke="none" points="10,-125 10,-143 33,-143 33,-125 10,-125"/>
<polygon fill="none" stroke="black" points="10,-125 10,-143 33,-143 33,-125 10,-125"/>
<text text-anchor="start" x="13" y="-131.2" font-family="Helvetica,sans-Serif" font-size="11.00">&lt; 0</text>
<polygon fill="#ffffff" stroke="none" points="33,-125 33,-143 75,-143 75,-125 33,-125"/>
<polygon fill="none" stroke="black" points="33,-125 33,-143 75,-143 75,-125 33,-125"/>
<text text-anchor="start" x="36" y="-131.2" font-family="Helvetica,sans-Serif" font-size="11.00">9 rows</text>
<polygon fill="#ffffff" stroke="none" points="75,-125 75,-143 176,-143 176,-125 75,-125"/>
<polygon fill="none" stroke="black" points="75,-125 75,-143 176,-143 176,-125 75,-125"/>
<text text-anchor="start" x="156" y="-131.2" font-family="Helvetica,sans-Serif" font-size="11.00">1 &gt;</text>
<polygon fill="none" stroke="black" stroke-width="2" points="9,-124 9,-210 177,-210 177,-124 9,-124"/>
</a>
</g>
</g>
<!-- countries&#45;&gt;regions -->
<g id="edge1" class="edge"><title>countries:region_id:w&#45;&gt;regions:id.type:e</title>
<path fill="none" stroke="black" d="M211.843,-176C200.414,-176 193.156,-176 177,-176"/>
<polygon fill="black" stroke="black" points="218.5,-176 226.5,-179.6 222.5,-176 226.5,-176 226.5,-176 226.5,-176 222.5,-176 226.5,-172.4 218.5,-176 218.5,-176"/>
<ellipse fill="none" stroke="black" cx="215.3" cy="-176" rx="3.2" ry="3.2"/>
</g>
<!-- country_subdivisions -->
<g id="node3" class="node"><title>country_subdivisions</title>
<g id="a_node3"><a xlink:href="../../tables/country_subdivisions.html" xlink:title="country_subdivisions" target="_top">
<polygon fill="#ffffff" stroke="none" points="379,-116 379,-174 548,-174 548,-116 379,-116"/>
<polygon fill="#f5f5f5" stroke="none" points="379.5,-152 379.5,-174 548.5,-174 548.5,-152 379.5,-152"/>
<polygon fill="none" stroke="black" points="379.5,-152 379.5,-174 548.5,-174 548.5,-152 379.5,-152"/>
<text text-anchor="start" x="384.5" y="-161.2" font-family="Helvetica,sans-Serif" font-weight="bold" font-size="11.00">country_subdivisions</text>
<text text-anchor="start" x="509.5" y="-160.2" font-family="Helvetica,sans-Serif" font-size="11.00">[table]</text>
<polygon fill="none" stroke="black" points="379.5,-134 379.5,-152 548.5,-152 548.5,-134 379.5,-134"/>
<text text-anchor="start" x="382.5" y="-140.2" font-family="Helvetica,sans-Serif" font-size="11.00">...</text>
<polygon fill="#ffffff" stroke="none" points="379.5,-116 379.5,-134 439.5,-134 439.5,-116 379.5,-116"/>
<polygon fill="none" stroke="black" points="379.5,-116 379.5,-134 439.5,-134 439.5,-116 379.5,-116"/>
<text text-anchor="start" x="382.5" y="-122.2" font-family="Helvetica,sans-Serif" font-size="11.00">&lt; 1</text>
<polygon fill="#ffffff" stroke="none" points="439.5,-116 439.5,-134 506.5,-134 506.5,-116 439.5,-116"/>
<polygon fill="none" stroke="black" points="439.5,-116 439.5,-134 506.5,-134 506.5,-116 439.5,-116"/>
<text text-anchor="start" x="460.5" y="-122.2" font-family="Helvetica,sans-Serif" font-size="11.00">57 rows</text>
<polygon fill="#ffffff" stroke="none" points="506.5,-116 506.5,-134 548.5,-134 548.5,-116 506.5,-116"/>
<polygon fill="none" stroke="black" points="506.5,-116 506.5,-134 548.5,-134 548.5,-116 506.5,-116"/>
<text text-anchor="start" x="528.5" y="-122.2" font-family="Helvetica,sans-Serif" font-size="11.00">1 &gt;</text>
</a>
</g>
</g>
<!-- country_subdivisions&#45;&gt;countries -->
<g id="edge2" class="edge"><title>country_subdivisions:elipses:w&#45;&gt;countries:code:e</title>
<path fill="none" stroke="black" d="M364.978,-148.076C351.098,-161.691 357.625,-198 331.5,-198"/>
<polygon fill="black" stroke="black" points="371.01,-145.811 379.765,-146.37 374.755,-144.406 378.5,-143 378.5,-143 378.5,-143 374.755,-144.406 377.235,-139.63 371.01,-145.811 371.01,-145.811"/>
<ellipse fill="none" stroke="black" cx="368.014" cy="-146.936" rx="3.20001" ry="3.20001"/>
</g>
<!-- organizations -->
<g id="node4" class="node"><title>organizations</title>
<g id="a_node4"><a xlink:href="../../tables/organizations.html" xlink:title="organizations" target="_top">
<polygon fill="#ffffff" stroke="none" points="597,-125 597,-183 722,-183 722,-125 597,-125"/>
<polygon fill="#f5f5f5" stroke="none" points="597.5,-161 597.5,-183 722.5,-183 722.5,-161 597.5,-161"/>
<polygon fill="none" stroke="black" points="597.5,-161 597.5,-183 722.5,-183 722.5,-161 597.5,-161"/>
<text text-anchor="start" x="602.5" y="-170.2" font-family="Helvetica,sans-Serif" font-weight="bold" font-size="11.00">organizations</text>
<text text-anchor="start" x="683.5" y="-169.2" font-family="Helvetica,sans-Serif" font-size="11.00">[table]</text>
<polygon fill="none" stroke="black" points="597.5,-143 597.5,-161 722.5,-161 722.5,-143 597.5,-143"/>
<text text-anchor="start" x="600.5" y="-149.2" font-family="Helvetica,sans-Serif" font-size="11.00">...</text>
<polygon fill="#ffffff" stroke="none" points="597.5,-125 597.5,-143 635.5,-143 635.5,-125 597.5,-125"/>
<polygon fill="none" stroke="black" points="597.5,-125 597.5,-143 635.5,-143 635.5,-125 597.5,-125"/>
<text text-anchor="start" x="600.5" y="-131.2" font-family="Helvetica,sans-Serif" font-size="11.00">&lt; 6</text>
<polygon fill="#ffffff" stroke="none" points="635.5,-125 635.5,-143 684.5,-143 684.5,-125 635.5,-125"/>
<polygon fill="none" stroke="black" points="635.5,-125 635.5,-143 684.5,-143 684.5,-125 635.5,-125"/>
<text text-anchor="start" x="645.5" y="-131.2" font-family="Helvetica,sans-Serif" font-size="11.00">0 rows</text>
<polygon fill="#ffffff" stroke="none" points="684.5,-125 684.5,-143 722.5,-143 722.5,-125 684.5,-125"/>
<polygon fill="none" stroke="black" points="684.5,-125 684.5,-143 722.5,-143 722.5,-125 684.5,-125"/>
<text text-anchor="start" x="695.5" y="-131.2" font-family="Helvetica,sans-Serif" font-size="11.00">15 &gt;</text>
</a>
</g>
</g>
<!-- organizations&#45;&gt;countries -->
<g id="edge3" class="edge"><title>organizations:elipses:w&#45;&gt;countries:code:e</title>
<path fill="none" stroke="black" d="M582.544,-156.682C573.721,-164.237 571.724,-178.887 556,-185 462.847,-221.214 431.445,-198 331.5,-198"/>
<polygon fill="black" stroke="black" points="588.915,-154.544 597.645,-155.413 592.708,-153.272 596.5,-152 596.5,-152 596.5,-152 592.708,-153.272 595.355,-148.587 588.915,-154.544 588.915,-154.544"/>
<ellipse fill="none" stroke="black" cx="585.882" cy="-155.562" rx="3.20001" ry="3.20001"/>
</g>
<!-- organizations&#45;&gt;country_subdivisions -->
<g id="edge4" class="edge"><title>organizations:elipses:w&#45;&gt;country_subdivisions:elipses:e</title>
<path fill="none" stroke="black" d="M582.136,-150.349C571.534,-147.751 564.953,-143 549.5,-143"/>
<polygon fill="black" stroke="black" points="588.552,-151.087 596.089,-155.576 592.526,-151.543 596.5,-152 596.5,-152 596.5,-152 592.526,-151.543 596.911,-148.424 588.552,-151.087 588.552,-151.087"/>
<ellipse fill="none" stroke="black" cx="585.373" cy="-150.721" rx="3.2" ry="3.2"/>
</g>
<!-- users -->
<g id="node5" class="node"><title>users</title>
<g id="a_node5"><a xlink:href="../../tables/users.html" xlink:title="users" target="_top">
<polygon fill="#ffffff" stroke="none" points="418.5,-37 418.5,-95 508.5,-95 508.5,-37 418.5,-37"/>
<polygon fill="#f5f5f5" stroke="none" points="418.5,-73 418.5,-95 508.5,-95 508.5,-73 418.5,-73"/>
<polygon fill="none" stroke="black" points="418.5,-73 418.5,-95 508.5,-95 508.5,-73 418.5,-73"/>
<text text-anchor="start" x="423.5" y="-82.2" font-family="Helvetica,sans-Serif" font-weight="bold" font-size="11.00">users</text>
<text text-anchor="start" x="469.5" y="-81.2" font-family="Helvetica,sans-Serif" font-size="11.00">[table]</text>
<polygon fill="none" stroke="black" points="418.5,-55 418.5,-73 508.5,-73 508.5,-55 418.5,-55"/>
<text text-anchor="start" x="421.5" y="-61.2" font-family="Helvetica,sans-Serif" font-size="11.00">...</text>
<polygon fill="#ffffff" stroke="none" points="418.5,-37 418.5,-55 441.5,-55 441.5,-37 418.5,-37"/>
<polygon fill="none" stroke="black" points="418.5,-37 418.5,-55 441.5,-55 441.5,-37 418.5,-37"/>
<text text-anchor="start" x="421.5" y="-43.2" font-family="Helvetica,sans-Serif" font-size="11.00">&lt; 3</text>
<polygon fill="#ffffff" stroke="none" points="441.5,-37 441.5,-55 478.5,-55 478.5,-37 441.5,-37"/>
<polygon fill="none" stroke="black" points="441.5,-37 441.5,-55 478.5,-55 478.5,-37 441.5,-37"/>
<text text-anchor="start" x="444.5" y="-43.2" font-family="Helvetica,sans-Serif" font-size="11.00">1 row</text>
<polygon fill="#ffffff" stroke="none" points="478.5,-37 478.5,-55 508.5,-55 508.5,-37 478.5,-37"/>
<polygon fill="none" stroke="black" points="478.5,-37 478.5,-55 508.5,-55 508.5,-37 478.5,-37"/>
<text text-anchor="start" x="481.5" y="-43.2" font-family="Helvetica,sans-Serif" font-size="11.00">85 &gt;</text>
</a>
</g>
</g>
<!-- organizations&#45;&gt;users -->
<g id="edge5" class="edge"><title>organizations:elipses:w&#45;&gt;users:elipses:e</title>
<path fill="none" stroke="black" d="M583.138,-145.712C570.627,-135.093 571.101,-115.294 556,-100 536.433,-80.1833 537.349,-58 509.5,-64"/>
<polygon fill="black" stroke="black" points="589.261,-148.594 594.967,-155.257 592.881,-150.297 596.5,-152 596.5,-152 596.5,-152 592.881,-150.297 598.033,-148.743 589.261,-148.594 589.261,-148.594"/>
<ellipse fill="none" stroke="black" cx="586.366" cy="-147.231" rx="3.20001" ry="3.20001"/>
</g>
<!-- organizations&#45;&gt;users -->
<g id="edge6" class="edge"><title>organizations:elipses:w&#45;&gt;users:elipses:e</title>
<path fill="none" stroke="black" d="M582.056,-151.908C570.642,-146.921 570.653,-127.84 556,-113 536.433,-93.1833 537.349,-71 509.5,-64"/>
<polygon fill="black" stroke="black" points="588.5,-151.949 596.477,-155.6 592.5,-151.974 596.5,-152 596.5,-152 596.5,-152 592.5,-151.974 596.523,-148.4 588.5,-151.949 588.5,-151.949"/>
<ellipse fill="none" stroke="black" cx="585.3" cy="-151.929" rx="3.2" ry="3.2"/>
</g>
<!-- users&#45;&gt;countries -->
<g id="edge11" class="edge"><title>users:elipses:w&#45;&gt;countries:code:e</title>
<path fill="none" stroke="black" d="M402.9,-66.4321C388.006,-72.3097 383.784,-88.1266 371,-106 345.113,-142.194 375.998,-198 331.5,-198"/>
<polygon fill="black" stroke="black" points="409.609,-65.3146 418.092,-67.5511 413.554,-64.6573 417.5,-64 417.5,-64 417.5,-64 413.554,-64.6573 416.908,-60.4489 409.609,-65.3146 409.609,-65.3146"/>
<ellipse fill="none" stroke="black" cx="406.452" cy="-65.8404" rx="3.2" ry="3.2"/>
</g>
<!-- projects -->
<g id="node6" class="node"><title>projects</title>
<g id="a_node6"><a xlink:href="../../tables/projects.html" xlink:title="projects" target="_top">
<polygon fill="#ffffff" stroke="none" points="771,-86 771,-144 866,-144 866,-86 771,-86"/>
<polygon fill="#f5f5f5" stroke="none" points="771.5,-122 771.5,-144 866.5,-144 866.5,-122 771.5,-122"/>
<polygon fill="none" stroke="black" points="771.5,-122 771.5,-144 866.5,-144 866.5,-122 771.5,-122"/>
<text text-anchor="start" x="776.5" y="-131.2" font-family="Helvetica,sans-Serif" font-weight="bold" font-size="11.00">projects</text>
<text text-anchor="start" x="827.5" y="-130.2" font-family="Helvetica,sans-Serif" font-size="11.00">[table]</text>
<polygon fill="none" stroke="black" points="771.5,-104 771.5,-122 866.5,-122 866.5,-104 771.5,-104"/>
<text text-anchor="start" x="774.5" y="-110.2" font-family="Helvetica,sans-Serif" font-size="11.00">...</text>
<polygon fill="#ffffff" stroke="none" points="771.5,-86 771.5,-104 794.5,-104 794.5,-86 771.5,-86"/>
<polygon fill="none" stroke="black" points="771.5,-86 771.5,-104 794.5,-104 794.5,-86 771.5,-86"/>
<text text-anchor="start" x="774.5" y="-92.2" font-family="Helvetica,sans-Serif" font-size="11.00">&lt; 5</text>
<polygon fill="#ffffff" stroke="none" points="794.5,-86 794.5,-104 836.5,-104 836.5,-86 794.5,-86"/>
<polygon fill="none" stroke="black" points="794.5,-86 794.5,-104 836.5,-104 836.5,-86 794.5,-86"/>
<text text-anchor="start" x="797.5" y="-92.2" font-family="Helvetica,sans-Serif" font-size="11.00">0 rows</text>
<polygon fill="#ffffff" stroke="none" points="836.5,-86 836.5,-104 866.5,-104 866.5,-86 836.5,-86"/>
<polygon fill="none" stroke="black" points="836.5,-86 836.5,-104 866.5,-104 866.5,-86 836.5,-86"/>
<text text-anchor="start" x="839.5" y="-92.2" font-family="Helvetica,sans-Serif" font-size="11.00">17 &gt;</text>
</a>
</g>
</g>
<!-- projects&#45;&gt;countries -->
<g id="edge7" class="edge"><title>projects:elipses:w&#45;&gt;countries:code:e</title>
<path fill="none" stroke="black" d="M756.485,-116.941C739.026,-130.473 758.31,-175.243 730,-194 596.927,-282.167 530.017,-218.981 371,-205 353.239,-203.438 349.329,-198 331.5,-198"/>
<polygon fill="black" stroke="black" points="762.799,-115.166 771.474,-116.466 766.649,-114.083 770.5,-113 770.5,-113 770.5,-113 766.649,-114.083 769.526,-109.534 762.799,-115.166 762.799,-115.166"/>
<ellipse fill="none" stroke="black" cx="759.718" cy="-116.032" rx="3.20001" ry="3.20001"/>
</g>
<!-- projects&#45;&gt;organizations -->
<g id="edge10" class="edge"><title>projects:elipses:w&#45;&gt;organizations:elipses:e</title>
<path fill="none" stroke="black" d="M756.909,-117.782C744.897,-128.196 744.706,-152 723.5,-152"/>
<polygon fill="black" stroke="black" points="762.954,-115.655 771.695,-116.396 766.727,-114.328 770.5,-113 770.5,-113 770.5,-113 766.727,-114.328 769.305,-109.604 762.954,-115.655 762.954,-115.655"/>
<ellipse fill="none" stroke="black" cx="759.935" cy="-116.717" rx="3.20001" ry="3.20001"/>
</g>
<!-- projects&#45;&gt;users -->
<g id="edge8" class="edge"><title>projects:elipses:w&#45;&gt;users:elipses:e</title>
<path fill="none" stroke="black" d="M755.786,-112.736C650.158,-108.88 622.455,-64 509.5,-64"/>
<polygon fill="black" stroke="black" points="762.501,-112.857 770.435,-116.599 766.501,-112.928 770.5,-113 770.5,-113 770.5,-113 766.501,-112.928 770.565,-109.401 762.501,-112.857 762.501,-112.857"/>
<ellipse fill="none" stroke="black" cx="759.302" cy="-112.799" rx="3.2" ry="3.2"/>
</g>
<!-- projects&#45;&gt;users -->
<g id="edge9" class="edge"><title>projects:elipses:w&#45;&gt;users:elipses:e</title>
<path fill="none" stroke="black" d="M755.786,-112.736C650.158,-108.88 622.455,-64 509.5,-64"/>
<polygon fill="black" stroke="black" points="762.501,-112.857 770.435,-116.599 766.501,-112.928 770.5,-113 770.5,-113 770.5,-113 766.501,-112.928 770.565,-109.401 762.501,-112.857 762.501,-112.857"/>
<ellipse fill="none" stroke="black" cx="759.302" cy="-112.799" rx="3.2" ry="3.2"/>
</g>
<!-- seedbank.accessions -->
<g id="node7" class="node"><title>seedbank.accessions</title>
<g id="a_node7"><a xlink:href="../../../seedbank/tables/accessions.html" xlink:title="seedbank.accessions" target="_top">
<polygon fill="#ffffff" stroke="none" points="915,-57 915,-115 1081,-115 1081,-57 915,-57"/>
<polygon fill="#f5f5f5" stroke="none" points="915,-93 915,-115 1081,-115 1081,-93 915,-93"/>
<polygon fill="none" stroke="black" points="915,-93 915,-115 1081,-115 1081,-93 915,-93"/>
<text text-anchor="start" x="920" y="-102.2" font-family="Helvetica,sans-Serif" font-weight="bold" font-size="11.00">seedbank.accessions</text>
<text text-anchor="start" x="1042" y="-101.2" font-family="Helvetica,sans-Serif" font-size="11.00">[table]</text>
<polygon fill="none" stroke="black" points="915,-75 915,-93 1081,-93 1081,-75 915,-75"/>
<text text-anchor="start" x="918" y="-81.2" font-family="Helvetica,sans-Serif" font-size="11.00">...</text>
<polygon fill="#ffffff" stroke="none" points="915,-57 915,-75 982,-75 982,-57 915,-57"/>
<polygon fill="none" stroke="black" points="915,-57 915,-75 982,-75 982,-57 915,-57"/>
<text text-anchor="start" x="918" y="-63.2" font-family="Helvetica,sans-Serif" font-size="11.00">&lt; 7</text>
<polygon fill="#ffffff" stroke="none" points="982,-57 982,-75 1046,-75 1046,-57 982,-57"/>
<polygon fill="none" stroke="black" points="982,-57 982,-75 1046,-75 1046,-57 982,-57"/>
<text text-anchor="start" x="1007" y="-63.2" font-family="Helvetica,sans-Serif" font-size="11.00">0 rows</text>
<polygon fill="#ffffff" stroke="none" points="1046,-57 1046,-75 1081,-75 1081,-57 1046,-57"/>
<polygon fill="none" stroke="black" points="1046,-57 1046,-75 1081,-75 1081,-57 1046,-57"/>
<text text-anchor="start" x="1071" y="-63.2" font-family="Helvetica,sans-Serif" font-size="11.00"> &#160;</text>
</a>
</g>
</g>
<!-- seedbank.accessions&#45;&gt;countries -->
<g id="edge12" class="edge"><title>seedbank.accessions:elipses:w&#45;&gt;countries:code:e</title>
<path fill="none" stroke="black" d="M899.984,-87.744C884.081,-99.2215 895.784,-134.382 874,-155 822.175,-204.051 799.253,-208.803 730,-226 575.133,-264.458 521.006,-285.415 371,-231 349.495,-223.199 354.376,-198 331.5,-198"/>
<polygon fill="black" stroke="black" points="906.271,-86.0647 914.929,-87.478 910.136,-85.0324 914,-84 914,-84 914,-84 910.136,-85.0324 913.071,-80.522 906.271,-86.0647 906.271,-86.0647"/>
<ellipse fill="none" stroke="black" cx="903.179" cy="-86.8906" rx="3.2" ry="3.2"/>
</g>
<!-- seedbank.accessions&#45;&gt;users -->
<g id="edge13" class="edge"><title>seedbank.accessions:elipses:w&#45;&gt;users:elipses:e</title>
<path fill="none" stroke="black" d="M899.482,-82.3664C891.68,-80.4572 885.96,-77.3833 874,-76 712.986,-57.3764 671.588,-64 509.5,-64"/>
<polygon fill="black" stroke="black" points="906.05,-83.1054 913.597,-87.5774 910.025,-83.5527 914,-84 914,-84 914,-84 910.025,-83.5527 914.403,-80.4226 906.05,-83.1054 906.05,-83.1054"/>
<ellipse fill="none" stroke="black" cx="902.87" cy="-82.7476" rx="3.2" ry="3.2"/>
</g>
<!-- seedbank.accessions&#45;&gt;users -->
<g id="edge14" class="edge"><title>seedbank.accessions:elipses:w&#45;&gt;users:elipses:e</title>
<path fill="none" stroke="black" d="M899.553,-83.2881C891.703,-82.4367 885.822,-81.0014 874,-80 712.423,-66.314 671.656,-64 509.5,-64"/>
<polygon fill="black" stroke="black" points="906.01,-83.6062 913.823,-87.5956 910.005,-83.8031 914,-84 914,-84 914,-84 910.005,-83.8031 914.177,-80.4044 906.01,-83.6062 906.01,-83.6062"/>
<ellipse fill="none" stroke="black" cx="902.814" cy="-83.4487" rx="3.2" ry="3.2"/>
</g>
<!-- seedbank.accessions&#45;&gt;projects -->
<g id="edge15" class="edge"><title>seedbank.accessions:elipses:w&#45;&gt;projects:elipses:e</title>
<path fill="none" stroke="black" d="M900.224,-88.279C889.157,-96.3459 885.958,-113 867.5,-113"/>
<polygon fill="black" stroke="black" points="906.36,-86.3731 915.068,-87.438 910.18,-85.1866 914,-84 914,-84 914,-84 910.18,-85.1866 912.932,-80.562 906.36,-86.3731 906.36,-86.3731"/>
<ellipse fill="none" stroke="black" cx="903.304" cy="-87.3224" rx="3.20001" ry="3.20001"/>
</g>
</g>
</svg>
