<?xml version="1.0" encoding="UTF-8" standalone="no"?>
<!DOCTYPE svg PUBLIC "-//W3C//DTD SVG 1.1//EN"
 "http://www.w3.org/Graphics/SVG/1.1/DTD/svg11.dtd">
<!-- Generated by graphviz version 2.38.0 (20140413.2041)
 -->
<!-- Title: twoDegreesRelationshipsDiagram Pages: 1 -->
<svg width="723pt" height="614pt"
 viewBox="0.00 0.00 723.00 614.00" xmlns="http://www.w3.org/2000/svg" xmlns:xlink="http://www.w3.org/1999/xlink">
<g id="graph0" class="graph" transform="scale(1 1) rotate(0) translate(4 610)">
<title>twoDegreesRelationshipsDiagram</title>
<polygon fill="#ffffff" stroke="none" points="-4,4 -4,-610 719,-610 719,4 -4,4"/>
<text text-anchor="middle" x="74.5" y="-7.2" font-family="Helvetica,sans-Serif" font-size="11.00">Generated by SchemaSpy</text>
<!-- nursery.withdrawal_photos -->
<g id="node1" class="node"><title>nursery.withdrawal_photos</title>
<g id="a_node1"><a xlink:href="../../../nursery/tables/withdrawal_photos.html" xlink:title="nursery.withdrawal_photos" target="_top">
<polygon fill="#ffffff" stroke="none" points="499.5,-544 499.5,-602 704.5,-602 704.5,-544 499.5,-544"/>
<polygon fill="#f5f5f5" stroke="none" points="500,-580 500,-602 705,-602 705,-580 500,-580"/>
<polygon fill="none" stroke="black" points="500,-580 500,-602 705,-602 705,-580 500,-580"/>
<text text-anchor="start" x="505" y="-589.2" font-family="Helvetica,sans-Serif" font-weight="bold" font-size="11.00">nursery.withdrawal_photos</text>
<text text-anchor="start" x="666" y="-588.2" font-family="Helvetica,sans-Serif" font-size="11.00">[table]</text>
<polygon fill="none" stroke="black" points="500,-562 500,-580 705,-580 705,-562 500,-562"/>
<text text-anchor="start" x="503" y="-568.2" font-family="Helvetica,sans-Serif" font-size="11.00">...</text>
<polygon fill="#ffffff" stroke="none" points="500,-544 500,-562 586,-562 586,-544 500,-544"/>
<polygon fill="none" stroke="black" points="500,-544 500,-562 586,-562 586,-544 500,-544"/>
<text text-anchor="start" x="503" y="-550.2" font-family="Helvetica,sans-Serif" font-size="11.00">&lt; 1</text>
<polygon fill="#ffffff" stroke="none" points="586,-544 586,-562 660,-562 660,-544 586,-544"/>
<polygon fill="none" stroke="black" points="586,-544 586,-562 660,-562 660,-544 586,-544"/>
<text text-anchor="start" x="621" y="-550.2" font-family="Helvetica,sans-Serif" font-size="11.00">0 rows</text>
<polygon fill="#ffffff" stroke="none" points="660,-544 660,-562 705,-562 705,-544 660,-544"/>
<polygon fill="none" stroke="black" points="660,-544 660,-562 705,-562 705,-544 660,-544"/>
<text text-anchor="start" x="695" y="-550.2" font-family="Helvetica,sans-Serif" font-size="11.00"> &#160;</text>
</a>
</g>
</g>
<!-- files -->
<g id="node2" class="node"><title>files</title>
<g id="a_node2"><a xlink:href="../../tables/files.html" xlink:title="files" target="_top">
<polygon fill="#ffffff" stroke="none" points="337,-300 337,-446 444,-446 444,-300 337,-300"/>
<polygon fill="#f5f5f5" stroke="none" points="337.5,-424 337.5,-446 444.5,-446 444.5,-424 337.5,-424"/>
<polygon fill="none" stroke="black" points="337.5,-424 337.5,-446 444.5,-446 444.5,-424 337.5,-424"/>
<text text-anchor="start" x="342.5" y="-433.2" font-family="Helvetica,sans-Serif" font-weight="bold" font-size="11.00">files</text>
<text text-anchor="start" x="405.5" y="-432.2" font-family="Helvetica,sans-Serif" font-size="11.00">[table]</text>
<polygon fill="none" stroke="black" points="337.5,-402 337.5,-424 444.5,-424 444.5,-402 337.5,-402"/>
<image xlink:href="../../images/primaryKeys.png" width="11px" height="12px" preserveAspectRatio="xMinYMin meet" x="342.5" y="-419"/>
<text text-anchor="start" x="357.5" y="-410.2" font-family="Helvetica,sans-Serif" font-size="11.00">id</text>
<polygon fill="none" stroke="black" points="337.5,-380 337.5,-402 444.5,-402 444.5,-380 337.5,-380"/>
<image xlink:href="../../images/foreignKeys.png" width="11px" height="12px" preserveAspectRatio="xMinYMin meet" x="342.5" y="-397"/>
<text text-anchor="start" x="357.5" y="-388.2" font-family="Helvetica,sans-Serif" font-size="11.00">created_by</text>
<polygon fill="#ffffff" stroke="none" points="337.5,-358 337.5,-380 444.5,-380 444.5,-358 337.5,-358"/>
<polygon fill="none" stroke="black" points="337.5,-358 337.5,-380 444.5,-380 444.5,-358 337.5,-358"/>
<text text-anchor="start" x="357.5" y="-366.2" font-family="Helvetica,sans-Serif" font-size="11.00">storage_url</text>
<polygon fill="none" stroke="black" points="337.5,-336 337.5,-358 444.5,-358 444.5,-336 337.5,-336"/>
<image xlink:href="../../images/foreignKeys.png" width="11px" height="12px" preserveAspectRatio="xMinYMin meet" x="342.5" y="-353"/>
<text text-anchor="start" x="357.5" y="-344.2" font-family="Helvetica,sans-Serif" font-size="11.00">modified_by</text>
<polygon fill="none" stroke="black" points="337.5,-318 337.5,-336 444.5,-336 444.5,-318 337.5,-318"/>
<text text-anchor="start" x="340.5" y="-324.2" font-family="Helvetica,sans-Serif" font-size="11.00">...</text>
<polygon fill="#ffffff" stroke="none" points="337.5,-300 337.5,-318 369.5,-318 369.5,-300 337.5,-300"/>
<polygon fill="none" stroke="black" points="337.5,-300 337.5,-318 369.5,-318 369.5,-300 337.5,-300"/>
<text text-anchor="start" x="340.5" y="-306.2" font-family="Helvetica,sans-Serif" font-size="11.00">&lt; 2</text>
<polygon fill="#ffffff" stroke="none" points="369.5,-300 369.5,-318 416.5,-318 416.5,-300 369.5,-300"/>
<polygon fill="none" stroke="black" points="369.5,-300 369.5,-318 416.5,-318 416.5,-300 369.5,-300"/>
<text text-anchor="start" x="377.5" y="-306.2" font-family="Helvetica,sans-Serif" font-size="11.00">0 rows</text>
<polygon fill="#ffffff" stroke="none" points="416.5,-300 416.5,-318 444.5,-318 444.5,-300 416.5,-300"/>
<polygon fill="none" stroke="black" points="416.5,-300 416.5,-318 444.5,-318 444.5,-300 416.5,-300"/>
<text text-anchor="start" x="424.5" y="-306.2" font-family="Helvetica,sans-Serif" font-size="11.00">5 &gt;</text>
</a>
</g>
</g>
<!-- nursery.withdrawal_photos&#45;&gt;files -->
<g id="edge1" class="edge"><title>nursery.withdrawal_photos:elipses:w&#45;&gt;files:id:e</title>
<path fill="none" stroke="black" d="M484.556,-568.258C438.639,-547.277 513.847,-413 445.5,-413"/>
<polygon fill="black" stroke="black" points="491.14,-569.508 498.328,-574.537 495.07,-570.254 499,-571 499,-571 499,-571 495.07,-570.254 499.672,-567.463 491.14,-569.508 491.14,-569.508"/>
<ellipse fill="none" stroke="black" cx="487.997" cy="-568.911" rx="3.2" ry="3.2"/>
</g>
<!-- users -->
<g id="node3" class="node"><title>users</title>
<g id="a_node3"><a xlink:href="../../tables/users.html" xlink:title="users" target="_top">
<polygon fill="#ffffff" stroke="none" points="8,-197 8,-255 98,-255 98,-197 8,-197"/>
<polygon fill="#f5f5f5" stroke="none" points="8,-233 8,-255 98,-255 98,-233 8,-233"/>
<polygon fill="none" stroke="black" points="8,-233 8,-255 98,-255 98,-233 8,-233"/>
<text text-anchor="start" x="13" y="-242.2" font-family="Helvetica,sans-Serif" font-weight="bold" font-size="11.00">users</text>
<text text-anchor="start" x="59" y="-241.2" font-family="Helvetica,sans-Serif" font-size="11.00">[table]</text>
<polygon fill="none" stroke="black" points="8,-215 8,-233 98,-233 98,-215 8,-215"/>
<text text-anchor="start" x="11" y="-221.2" font-family="Helvetica,sans-Serif" font-size="11.00">...</text>
<polygon fill="#ffffff" stroke="none" points="8,-197 8,-215 31,-215 31,-197 8,-197"/>
<polygon fill="none" stroke="black" points="8,-197 8,-215 31,-215 31,-197 8,-197"/>
<text text-anchor="start" x="11" y="-203.2" font-family="Helvetica,sans-Serif" font-size="11.00">&lt; 2</text>
<polygon fill="#ffffff" stroke="none" points="31,-197 31,-215 68,-215 68,-197 31,-197"/>
<polygon fill="none" stroke="black" points="31,-197 31,-215 68,-215 68,-197 31,-197"/>
<text text-anchor="start" x="34" y="-203.2" font-family="Helvetica,sans-Serif" font-size="11.00">1 row</text>
<polygon fill="#ffffff" stroke="none" points="68,-197 68,-215 98,-215 98,-197 68,-197"/>
<polygon fill="none" stroke="black" points="68,-197 68,-215 98,-215 98,-197 68,-197"/>
<text text-anchor="start" x="71" y="-203.2" font-family="Helvetica,sans-Serif" font-size="11.00">53 &gt;</text>
</a>
</g>
</g>
<!-- files&#45;&gt;users -->
<g id="edge2" class="edge"><title>files:created_by:w&#45;&gt;users:elipses:e</title>
<path fill="none" stroke="black" d="M322.008,-390.956C239.569,-390.387 202.724,-383.47 139,-323 104.576,-290.334 146.456,-224 99,-224"/>
<polygon fill="black" stroke="black" points="328.5,-390.976 336.489,-394.6 332.5,-390.988 336.5,-391 336.5,-391 336.5,-391 332.5,-390.988 336.511,-387.4 328.5,-390.976 328.5,-390.976"/>
<ellipse fill="none" stroke="black" cx="325.3" cy="-390.966" rx="3.2" ry="3.2"/>
</g>
<!-- files&#45;&gt;users -->
<g id="edge3" class="edge"><title>files:modified_by:w&#45;&gt;users:elipses:e</title>
<path fill="none" stroke="black" d="M322.006,-344.269C311.807,-339.769 306.753,-330.633 292,-324 225.529,-294.113 199.846,-305.117 139,-265 117.746,-250.987 124.458,-224 99,-224"/>
<polygon fill="black" stroke="black" points="328.638,-345.519 335.833,-350.538 332.569,-346.259 336.5,-347 336.5,-347 336.5,-347 332.569,-346.259 337.167,-343.462 328.638,-345.519 328.638,-345.519"/>
<ellipse fill="none" stroke="black" cx="325.494" cy="-344.926" rx="3.2" ry="3.2"/>
</g>
<!-- organizations -->
<g id="node4" class="node"><title>organizations</title>
<g id="a_node4"><a xlink:href="../../tables/organizations.html" xlink:title="organizations" target="_top">
<polygon fill="#ffffff" stroke="none" points="153,-197 153,-255 278,-255 278,-197 153,-197"/>
<polygon fill="#f5f5f5" stroke="none" points="153.5,-233 153.5,-255 278.5,-255 278.5,-233 153.5,-233"/>
<polygon fill="none" stroke="black" points="153.5,-233 153.5,-255 278.5,-255 278.5,-233 153.5,-233"/>
<text text-anchor="start" x="158.5" y="-242.2" font-family="Helvetica,sans-Serif" font-weight="bold" font-size="11.00">organizations</text>
<text text-anchor="start" x="239.5" y="-241.2" font-family="Helvetica,sans-Serif" font-size="11.00">[table]</text>
<polygon fill="none" stroke="black" points="153.5,-215 153.5,-233 278.5,-233 278.5,-215 153.5,-215"/>
<text text-anchor="start" x="156.5" y="-221.2" font-family="Helvetica,sans-Serif" font-size="11.00">...</text>
<polygon fill="#ffffff" stroke="none" points="153.5,-197 153.5,-215 191.5,-215 191.5,-197 153.5,-197"/>
<polygon fill="none" stroke="black" points="153.5,-197 153.5,-215 191.5,-215 191.5,-197 153.5,-197"/>
<text text-anchor="start" x="156.5" y="-203.2" font-family="Helvetica,sans-Serif" font-size="11.00">&lt; 5</text>
<polygon fill="#ffffff" stroke="none" points="191.5,-197 191.5,-215 240.5,-215 240.5,-197 191.5,-197"/>
<polygon fill="none" stroke="black" points="191.5,-197 191.5,-215 240.5,-215 240.5,-197 191.5,-197"/>
<text text-anchor="start" x="201.5" y="-203.2" font-family="Helvetica,sans-Serif" font-size="11.00">0 rows</text>
<polygon fill="#ffffff" stroke="none" points="240.5,-197 240.5,-215 278.5,-215 278.5,-197 240.5,-197"/>
<polygon fill="none" stroke="black" points="240.5,-197 240.5,-215 278.5,-215 278.5,-197 240.5,-197"/>
<text text-anchor="start" x="251.5" y="-203.2" font-family="Helvetica,sans-Serif" font-size="11.00">11 &gt;</text>
</a>
</g>
</g>
<!-- organizations&#45;&gt;users -->
<g id="edge4" class="edge"><title>organizations:elipses:w&#45;&gt;users:elipses:e</title>
<path fill="none" stroke="black" d="M138.261,-220.77C124.956,-218.33 117.205,-219.406 99,-224"/>
<polygon fill="black" stroke="black" points="144.698,-222.23 151.704,-227.511 148.599,-223.115 152.5,-224 152.5,-224 152.5,-224 148.599,-223.115 153.296,-220.489 144.698,-222.23 144.698,-222.23"/>
<ellipse fill="none" stroke="black" cx="141.577" cy="-221.522" rx="3.2" ry="3.2"/>
</g>
<!-- organizations&#45;&gt;users -->
<g id="edge5" class="edge"><title>organizations:elipses:w&#45;&gt;users:elipses:e</title>
<path fill="none" stroke="black" d="M138.261,-227.768C124.956,-230.615 117.205,-229.359 99,-224"/>
<polygon fill="black" stroke="black" points="144.766,-226.047 153.421,-227.48 148.633,-225.023 152.5,-224 152.5,-224 152.5,-224 148.633,-225.023 151.579,-220.52 144.766,-226.047 144.766,-226.047"/>
<ellipse fill="none" stroke="black" cx="141.673" cy="-226.865" rx="3.2" ry="3.2"/>
</g>
<!-- report_files -->
<g id="node5" class="node"><title>report_files</title>
<g id="a_node5"><a xlink:href="../../tables/report_files.html" xlink:title="report_files" target="_top">
<polygon fill="#ffffff" stroke="none" points="545.5,-176 545.5,-234 658.5,-234 658.5,-176 545.5,-176"/>
<polygon fill="#f5f5f5" stroke="none" points="546,-212 546,-234 659,-234 659,-212 546,-212"/>
<polygon fill="none" stroke="black" points="546,-212 546,-234 659,-234 659,-212 546,-212"/>
<text text-anchor="start" x="551" y="-221.2" font-family="Helvetica,sans-Serif" font-weight="bold" font-size="11.00">report_files</text>
<text text-anchor="start" x="620" y="-220.2" font-family="Helvetica,sans-Serif" font-size="11.00">[table]</text>
<polygon fill="none" stroke="black" points="546,-194 546,-212 659,-212 659,-194 546,-194"/>
<text text-anchor="start" x="549" y="-200.2" font-family="Helvetica,sans-Serif" font-size="11.00">...</text>
<polygon fill="#ffffff" stroke="none" points="546,-176 546,-194 586,-194 586,-176 546,-176"/>
<polygon fill="none" stroke="black" points="546,-176 546,-194 586,-194 586,-176 546,-176"/>
<text text-anchor="start" x="549" y="-182.2" font-family="Helvetica,sans-Serif" font-size="11.00">&lt; 2</text>
<polygon fill="#ffffff" stroke="none" points="586,-176 586,-194 637,-194 637,-176 586,-176"/>
<polygon fill="none" stroke="black" points="586,-176 586,-194 637,-194 637,-176 586,-176"/>
<text text-anchor="start" x="598" y="-182.2" font-family="Helvetica,sans-Serif" font-size="11.00">0 rows</text>
<polygon fill="#ffffff" stroke="none" points="637,-176 637,-194 659,-194 659,-176 637,-176"/>
<polygon fill="none" stroke="black" points="637,-176 637,-194 659,-194 659,-176 637,-176"/>
<text text-anchor="start" x="649" y="-182.2" font-family="Helvetica,sans-Serif" font-size="11.00"> &#160;</text>
</a>
</g>
</g>
<!-- report_files&#45;&gt;files -->
<g id="edge6" class="edge"><title>report_files:elipses:w&#45;&gt;files:id:e</title>
<path fill="none" stroke="black" d="M534.447,-203.714C512.042,-207.023 504.137,-221.653 489,-244 445.503,-308.214 523.059,-413 445.5,-413"/>
<polygon fill="black" stroke="black" points="543.932,-199.063 544.472,-207.045 542.876,-207.153 542.335,-199.171 543.932,-199.063"/>
<polyline fill="none" stroke="black" points="545,-203 541.009,-203.27 "/>
<ellipse fill="none" stroke="black" cx="537.816" cy="-203.486" rx="3.2" ry="3.2"/>
</g>
<!-- reports -->
<g id="node6" class="node"><title>reports</title>
<g id="a_node6"><a xlink:href="../../tables/reports.html" xlink:title="reports" target="_top">
<polygon fill="#ffffff" stroke="none" points="333,-45 333,-279 448,-279 448,-45 333,-45"/>
<polygon fill="#f5f5f5" stroke="none" points="333.5,-257 333.5,-279 448.5,-279 448.5,-257 333.5,-257"/>
<polygon fill="none" stroke="black" points="333.5,-257 333.5,-279 448.5,-279 448.5,-257 333.5,-257"/>
<text text-anchor="start" x="338.5" y="-266.2" font-family="Helvetica,sans-Serif" font-weight="bold" font-size="11.00">reports</text>
<text text-anchor="start" x="409.5" y="-265.2" font-family="Helvetica,sans-Serif" font-size="11.00">[table]</text>
<polygon fill="none" stroke="black" points="333.5,-235 333.5,-257 448.5,-257 448.5,-235 333.5,-235"/>
<image xlink:href="../../images/primaryKeys.png" width="11px" height="12px" preserveAspectRatio="xMinYMin meet" x="338.5" y="-252"/>
<text text-anchor="start" x="353.5" y="-243.2" font-family="Helvetica,sans-Serif" font-size="11.00">id</text>
<polygon fill="#ffffff" stroke="none" points="333.5,-213 333.5,-235 448.5,-235 448.5,-213 333.5,-213"/>
<polygon fill="none" stroke="black" points="333.5,-213 333.5,-235 448.5,-235 448.5,-213 333.5,-213"/>
<image xlink:href="../../images/foreignKeys.png" width="11px" height="12px" preserveAspectRatio="xMinYMin meet" x="338.5" y="-230"/>
<text text-anchor="start" x="353.5" y="-221.2" font-family="Helvetica,sans-Serif" font-size="11.00">organization_id</text>
<polygon fill="#ffffff" stroke="none" points="333.5,-191 333.5,-213 448.5,-213 448.5,-191 333.5,-191"/>
<polygon fill="none" stroke="black" points="333.5,-191 333.5,-213 448.5,-213 448.5,-191 333.5,-191"/>
<text text-anchor="start" x="353.5" y="-199.2" font-family="Helvetica,sans-Serif" font-size="11.00">year</text>
<polygon fill="#ffffff" stroke="none" points="333.5,-169 333.5,-191 448.5,-191 448.5,-169 333.5,-169"/>
<polygon fill="none" stroke="black" points="333.5,-169 333.5,-191 448.5,-191 448.5,-169 333.5,-169"/>
<text text-anchor="start" x="353.5" y="-177.2" font-family="Helvetica,sans-Serif" font-size="11.00">quarter</text>
<polygon fill="none" stroke="black" points="333.5,-147 333.5,-169 448.5,-169 448.5,-147 333.5,-147"/>
<image xlink:href="../../images/foreignKeys.png" width="11px" height="12px" preserveAspectRatio="xMinYMin meet" x="338.5" y="-164"/>
<text text-anchor="start" x="353.5" y="-155.2" font-family="Helvetica,sans-Serif" font-size="11.00">locked_by</text>
<polygon fill="none" stroke="black" points="333.5,-125 333.5,-147 448.5,-147 448.5,-125 333.5,-125"/>
<image xlink:href="../../images/foreignKeys.png" width="11px" height="12px" preserveAspectRatio="xMinYMin meet" x="338.5" y="-142"/>
<text text-anchor="start" x="353.5" y="-133.2" font-family="Helvetica,sans-Serif" font-size="11.00">modified_by</text>
<polygon fill="none" stroke="black" points="333.5,-103 333.5,-125 448.5,-125 448.5,-103 333.5,-103"/>
<image xlink:href="../../images/foreignKeys.png" width="11px" height="12px" preserveAspectRatio="xMinYMin meet" x="338.5" y="-120"/>
<text text-anchor="start" x="353.5" y="-111.2" font-family="Helvetica,sans-Serif" font-size="11.00">submitted_by</text>
<polygon fill="none" stroke="black" points="333.5,-81 333.5,-103 448.5,-103 448.5,-81 333.5,-81"/>
<image xlink:href="../../images/foreignKeys.png" width="11px" height="12px" preserveAspectRatio="xMinYMin meet" x="338.5" y="-98"/>
<text text-anchor="start" x="353.5" y="-89.2" font-family="Helvetica,sans-Serif" font-size="11.00">status_id</text>
<polygon fill="none" stroke="black" points="333.5,-63 333.5,-81 448.5,-81 448.5,-63 333.5,-63"/>
<text text-anchor="start" x="336.5" y="-69.2" font-family="Helvetica,sans-Serif" font-size="11.00">...</text>
<polygon fill="#ffffff" stroke="none" points="333.5,-45 333.5,-63 369.5,-63 369.5,-45 333.5,-45"/>
<polygon fill="none" stroke="black" points="333.5,-45 333.5,-63 369.5,-63 369.5,-45 333.5,-45"/>
<text text-anchor="start" x="336.5" y="-51.2" font-family="Helvetica,sans-Serif" font-size="11.00">&lt; 5</text>
<polygon fill="#ffffff" stroke="none" points="369.5,-45 369.5,-63 418.5,-63 418.5,-45 369.5,-45"/>
<polygon fill="none" stroke="black" points="369.5,-45 369.5,-63 418.5,-63 418.5,-45 369.5,-45"/>
<text text-anchor="start" x="379.5" y="-51.2" font-family="Helvetica,sans-Serif" font-size="11.00">0 rows</text>
<polygon fill="#ffffff" stroke="none" points="418.5,-45 418.5,-63 448.5,-63 448.5,-45 418.5,-45"/>
<polygon fill="none" stroke="black" points="418.5,-45 418.5,-63 448.5,-63 448.5,-45 418.5,-45"/>
<text text-anchor="start" x="428.5" y="-51.2" font-family="Helvetica,sans-Serif" font-size="11.00">2 &gt;</text>
</a>
</g>
</g>
<!-- report_files&#45;&gt;reports -->
<g id="edge7" class="edge"><title>report_files:elipses:w&#45;&gt;reports:id:e</title>
<path fill="none" stroke="black" d="M530.312,-204.633C497.282,-212.488 490.594,-246 449.5,-246"/>
<polygon fill="black" stroke="black" points="537.049,-203.884 545.398,-206.578 541.024,-203.442 545,-203 545,-203 545,-203 541.024,-203.442 544.602,-199.422 537.049,-203.884 537.049,-203.884"/>
<ellipse fill="none" stroke="black" cx="533.869" cy="-204.238" rx="3.2" ry="3.2"/>
</g>
<!-- reports&#45;&gt;users -->
<g id="edge10" class="edge"><title>reports:locked_by:w&#45;&gt;users:elipses:e</title>
<path fill="none" stroke="black" d="M317.806,-157.909C242.102,-157 212.599,-150.29 139,-186 116.939,-196.704 123.521,-224 99,-224"/>
<polygon fill="black" stroke="black" points="324.5,-157.951 332.478,-161.6 328.5,-157.975 332.5,-158 332.5,-158 332.5,-158 328.5,-157.975 332.522,-154.4 324.5,-157.951 324.5,-157.951"/>
<ellipse fill="none" stroke="black" cx="321.3" cy="-157.931" rx="3.2" ry="3.2"/>
</g>
<!-- reports&#45;&gt;users -->
<g id="edge11" class="edge"><title>reports:modified_by:w&#45;&gt;users:elipses:e</title>
<path fill="none" stroke="black" d="M317.947,-135.959C267.751,-135.786 171.851,-135.928 139,-157 109.808,-175.725 133.681,-224 99,-224"/>
<polygon fill="black" stroke="black" points="324.5,-135.977 332.49,-139.6 328.5,-135.989 332.5,-136 332.5,-136 332.5,-136 328.5,-135.989 332.51,-132.4 324.5,-135.977 324.5,-135.977"/>
<ellipse fill="none" stroke="black" cx="321.3" cy="-135.968" rx="3.2" ry="3.2"/>
</g>
<!-- reports&#45;&gt;users -->
<g id="edge14" class="edge"><title>reports:submitted_by:w&#45;&gt;users:elipses:e</title>
<path fill="none" stroke="black" d="M317.921,-113.854C267.538,-113.06 170.566,-110.117 139,-133 103.231,-158.93 143.179,-224 99,-224"/>
<polygon fill="black" stroke="black" points="324.5,-113.92 332.464,-117.6 328.5,-113.96 332.5,-114 332.5,-114 332.5,-114 328.5,-113.96 332.536,-110.4 324.5,-113.92 324.5,-113.92"/>
<ellipse fill="none" stroke="black" cx="321.301" cy="-113.887" rx="3.2" ry="3.2"/>
</g>
<!-- reports&#45;&gt;organizations -->
<g id="edge12" class="edge"><title>reports:organization_id:w&#45;&gt;organizations:elipses:e</title>
<path fill="none" stroke="black" d="M317.992,-224C305.056,-224 297.351,-224 279.5,-224"/>
<polygon fill="black" stroke="black" points="324.5,-224 332.5,-227.6 328.5,-224 332.5,-224 332.5,-224 332.5,-224 328.5,-224 332.5,-220.4 324.5,-224 324.5,-224"/>
<ellipse fill="none" stroke="black" cx="321.3" cy="-224" rx="3.2" ry="3.2"/>
</g>
<!-- report_statuses -->
<g id="node8" class="node"><title>report_statuses</title>
<g id="a_node8"><a xlink:href="../../tables/report_statuses.html" xlink:title="report_statuses" target="_top">
<polygon fill="#ffffff" stroke="none" points="147,-37 147,-95 284,-95 284,-37 147,-37"/>
<polygon fill="#f5f5f5" stroke="none" points="147.5,-73 147.5,-95 284.5,-95 284.5,-73 147.5,-73"/>
<polygon fill="none" stroke="black" points="147.5,-73 147.5,-95 284.5,-95 284.5,-73 147.5,-73"/>
<text text-anchor="start" x="152.5" y="-82.2" font-family="Helvetica,sans-Serif" font-weight="bold" font-size="11.00">report_statuses</text>
<text text-anchor="start" x="245.5" y="-81.2" font-family="Helvetica,sans-Serif" font-size="11.00">[table]</text>
<polygon fill="none" stroke="black" points="147.5,-55 147.5,-73 284.5,-73 284.5,-55 147.5,-55"/>
<text text-anchor="start" x="150.5" y="-61.2" font-family="Helvetica,sans-Serif" font-size="11.00">...</text>
<polygon fill="#ffffff" stroke="none" points="147.5,-37 147.5,-55 189.5,-55 189.5,-37 147.5,-37"/>
<polygon fill="none" stroke="black" points="147.5,-37 147.5,-55 189.5,-55 189.5,-37 147.5,-37"/>
<text text-anchor="start" x="150.5" y="-43.2" font-family="Helvetica,sans-Serif" font-size="11.00"> &#160;</text>
<polygon fill="#ffffff" stroke="none" points="189.5,-37 189.5,-55 246.5,-55 246.5,-37 189.5,-37"/>
<polygon fill="none" stroke="black" points="189.5,-37 189.5,-55 246.5,-55 246.5,-37 189.5,-37"/>
<text text-anchor="start" x="207.5" y="-43.2" font-family="Helvetica,sans-Serif" font-size="11.00">4 rows</text>
<polygon fill="#ffffff" stroke="none" points="246.5,-37 246.5,-55 284.5,-55 284.5,-37 246.5,-37"/>
<polygon fill="none" stroke="black" points="246.5,-37 246.5,-55 284.5,-55 284.5,-37 246.5,-37"/>
<text text-anchor="start" x="264.5" y="-43.2" font-family="Helvetica,sans-Serif" font-size="11.00">1 &gt;</text>
</a>
</g>
</g>
<!-- reports&#45;&gt;report_statuses -->
<g id="edge13" class="edge"><title>reports:status_id:w&#45;&gt;report_statuses:elipses:e</title>
<path fill="none" stroke="black" d="M318.662,-87.8685C307.453,-80.0798 303.926,-64 285.5,-64"/>
<polygon fill="black" stroke="black" points="324.834,-89.7113 331.47,-95.4495 328.667,-90.8557 332.5,-92 332.5,-92 332.5,-92 328.667,-90.8557 333.53,-88.5505 324.834,-89.7113 324.834,-89.7113"/>
<ellipse fill="none" stroke="black" cx="321.768" cy="-88.7958" rx="3.20001" ry="3.20001"/>
</g>
<!-- report_photos -->
<g id="node7" class="node"><title>report_photos</title>
<g id="a_node7"><a xlink:href="../../tables/report_photos.html" xlink:title="report_photos" target="_top">
<polygon fill="#ffffff" stroke="none" points="497,-255 497,-365 707,-365 707,-255 497,-255"/>
<polygon fill="#f5f5f5" stroke="none" points="499,-341 499,-363 705,-363 705,-341 499,-341"/>
<polygon fill="none" stroke="black" points="499,-341 499,-363 705,-363 705,-341 499,-341"/>
<text text-anchor="start" x="504" y="-350.2" font-family="Helvetica,sans-Serif" font-weight="bold" font-size="11.00">report_photos</text>
<text text-anchor="start" x="666" y="-349.2" font-family="Helvetica,sans-Serif" font-size="11.00">[table]</text>
<polygon fill="none" stroke="black" points="499,-319 499,-341 604,-341 604,-319 499,-319"/>
<image xlink:href="../../images/primaryKeys.png" width="11px" height="12px" preserveAspectRatio="xMinYMin meet" x="504" y="-336"/>
<text text-anchor="start" x="519" y="-327.2" font-family="Helvetica,sans-Serif" font-size="11.00">report_id</text>
<polygon fill="none" stroke="black" points="604,-319 604,-341 705,-341 705,-319 604,-319"/>
<text text-anchor="start" x="607" y="-327.2" font-family="Helvetica,sans-Serif" font-size="11.00">int8[19]</text>
<polygon fill="none" stroke="black" points="499,-297 499,-319 604,-319 604,-297 499,-297"/>
<image xlink:href="../../images/primaryKeys.png" width="11px" height="12px" preserveAspectRatio="xMinYMin meet" x="504" y="-314"/>
<text text-anchor="start" x="519" y="-305.2" font-family="Helvetica,sans-Serif" font-size="11.00">file_id</text>
<polygon fill="none" stroke="black" points="604,-297 604,-319 705,-319 705,-297 604,-297"/>
<text text-anchor="start" x="607" y="-305.2" font-family="Helvetica,sans-Serif" font-size="11.00">int8[19]</text>
<polygon fill="none" stroke="black" points="499,-275 499,-297 604,-297 604,-275 499,-275"/>
<text text-anchor="start" x="519" y="-283.2" font-family="Helvetica,sans-Serif" font-size="11.00">caption</text>
<polygon fill="none" stroke="black" points="604,-275 604,-297 705,-297 705,-275 604,-275"/>
<text text-anchor="start" x="607" y="-283.2" font-family="Helvetica,sans-Serif" font-size="11.00">text[2147483647]</text>
<polygon fill="#ffffff" stroke="none" points="499,-257 499,-275 542,-275 542,-257 499,-257"/>
<polygon fill="none" stroke="black" points="499,-257 499,-275 542,-275 542,-257 499,-257"/>
<text text-anchor="start" x="502" y="-263.2" font-family="Helvetica,sans-Serif" font-size="11.00">&lt; 2</text>
<polygon fill="#ffffff" stroke="none" points="542,-257 542,-275 604,-275 604,-257 542,-257"/>
<polygon fill="none" stroke="black" points="542,-257 542,-275 604,-275 604,-257 542,-257"/>
<text text-anchor="start" x="565" y="-263.2" font-family="Helvetica,sans-Serif" font-size="11.00">0 rows</text>
<polygon fill="#ffffff" stroke="none" points="604,-257 604,-275 705,-275 705,-257 604,-257"/>
<polygon fill="none" stroke="black" points="604,-257 604,-275 705,-275 705,-257 604,-257"/>
<text text-anchor="start" x="685" y="-263.2" font-family="Helvetica,sans-Serif" font-size="11.00">0 &gt;</text>
<polygon fill="none" stroke="black" stroke-width="2" points="498,-256 498,-364 706,-364 706,-256 498,-256"/>
</a>
</g>
</g>
<!-- report_photos&#45;&gt;files -->
<g id="edge8" class="edge"><title>report_photos:file_id:w&#45;&gt;files:id:e</title>
<path fill="none" stroke="black" d="M487.577,-309.822C453.292,-323.765 493.599,-413 445.5,-413"/>
<polygon fill="black" stroke="black" points="496.523,-304.198 497.901,-312.078 496.325,-312.354 494.947,-304.473 496.523,-304.198"/>
<polyline fill="none" stroke="black" points="498,-308 494.06,-308.689 "/>
<ellipse fill="none" stroke="black" cx="490.908" cy="-309.24" rx="3.2" ry="3.2"/>
</g>
<!-- report_photos&#45;&gt;reports -->
<g id="edge9" class="edge"><title>report_photos:report_id:w&#45;&gt;reports:id:e</title>
<path fill="none" stroke="black" d="M484.159,-325.484C463.901,-308.036 486.547,-246 449.5,-246"/>
<polygon fill="black" stroke="black" points="490.395,-327.518 496.883,-333.422 494.197,-328.759 498,-330 498,-330 498,-330 494.197,-328.759 499.117,-326.578 490.395,-327.518 490.395,-327.518"/>
<ellipse fill="none" stroke="black" cx="487.352" cy="-326.526" rx="3.20001" ry="3.20001"/>
</g>
<!-- thumbnails -->
<g id="node9" class="node"><title>thumbnails</title>
<g id="a_node9"><a xlink:href="../../tables/thumbnails.html" xlink:title="thumbnails" target="_top">
<polygon fill="#ffffff" stroke="none" points="544.5,-465 544.5,-523 659.5,-523 659.5,-465 544.5,-465"/>
<polygon fill="#f5f5f5" stroke="none" points="545,-501 545,-523 660,-523 660,-501 545,-501"/>
<polygon fill="none" stroke="black" points="545,-501 545,-523 660,-523 660,-501 545,-501"/>
<text text-anchor="start" x="550" y="-510.2" font-family="Helvetica,sans-Serif" font-weight="bold" font-size="11.00">thumbnails</text>
<text text-anchor="start" x="621" y="-509.2" font-family="Helvetica,sans-Serif" font-size="11.00">[table]</text>
<polygon fill="none" stroke="black" points="545,-483 545,-501 660,-501 660,-483 545,-483"/>
<text text-anchor="start" x="548" y="-489.2" font-family="Helvetica,sans-Serif" font-size="11.00">...</text>
<polygon fill="#ffffff" stroke="none" points="545,-465 545,-483 586,-483 586,-465 545,-465"/>
<polygon fill="none" stroke="black" points="545,-465 545,-483 586,-483 586,-465 545,-465"/>
<text text-anchor="start" x="548" y="-471.2" font-family="Helvetica,sans-Serif" font-size="11.00">&lt; 1</text>
<polygon fill="#ffffff" stroke="none" points="586,-465 586,-483 637,-483 637,-465 586,-465"/>
<polygon fill="none" stroke="black" points="586,-465 586,-483 637,-483 637,-465 586,-465"/>
<text text-anchor="start" x="598" y="-471.2" font-family="Helvetica,sans-Serif" font-size="11.00">0 rows</text>
<polygon fill="#ffffff" stroke="none" points="637,-465 637,-483 660,-483 660,-465 637,-465"/>
<polygon fill="none" stroke="black" points="637,-465 637,-483 660,-483 660,-465 637,-465"/>
<text text-anchor="start" x="650" y="-471.2" font-family="Helvetica,sans-Serif" font-size="11.00"> &#160;</text>
</a>
</g>
</g>
<!-- thumbnails&#45;&gt;files -->
<g id="edge15" class="edge"><title>thumbnails:elipses:w&#45;&gt;files:id:e</title>
<path fill="none" stroke="black" d="M529.457,-490.023C512.738,-484.781 507.434,-469.907 489,-455 468.104,-438.101 472.374,-413 445.5,-413"/>
<polygon fill="black" stroke="black" points="536.073,-490.922 543.515,-495.567 540.036,-491.461 544,-492 544,-492 544,-492 540.036,-491.461 544.485,-488.433 536.073,-490.922 536.073,-490.922"/>
<ellipse fill="none" stroke="black" cx="532.902" cy="-490.491" rx="3.2" ry="3.2"/>
</g>
<!-- seedbank.accession_photos -->
<g id="node10" class="node"><title>seedbank.accession_photos</title>
<g id="a_node10"><a xlink:href="../../../seedbank/tables/accession_photos.html" xlink:title="seedbank.accession_photos" target="_top">
<polygon fill="#ffffff" stroke="none" points="500,-386 500,-444 704,-444 704,-386 500,-386"/>
<polygon fill="#f5f5f5" stroke="none" points="500,-422 500,-444 704,-444 704,-422 500,-422"/>
<polygon fill="none" stroke="black" points="500,-422 500,-444 704,-444 704,-422 500,-422"/>
<text text-anchor="start" x="505" y="-431.2" font-family="Helvetica,sans-Serif" font-weight="bold" font-size="11.00">seedbank.accession_photos</text>
<text text-anchor="start" x="665" y="-430.2" font-family="Helvetica,sans-Serif" font-size="11.00">[table]</text>
<polygon fill="none" stroke="black" points="500,-404 500,-422 704,-422 704,-404 500,-404"/>
<text text-anchor="start" x="503" y="-410.2" font-family="Helvetica,sans-Serif" font-size="11.00">...</text>
<polygon fill="#ffffff" stroke="none" points="500,-386 500,-404 586,-404 586,-386 500,-386"/>
<polygon fill="none" stroke="black" points="500,-386 500,-404 586,-404 586,-386 500,-386"/>
<text text-anchor="start" x="503" y="-392.2" font-family="Helvetica,sans-Serif" font-size="11.00">&lt; 1</text>
<polygon fill="#ffffff" stroke="none" points="586,-386 586,-404 659,-404 659,-386 586,-386"/>
<polygon fill="none" stroke="black" points="586,-386 586,-404 659,-404 659,-386 586,-386"/>
<text text-anchor="start" x="620" y="-392.2" font-family="Helvetica,sans-Serif" font-size="11.00">0 rows</text>
<polygon fill="#ffffff" stroke="none" points="659,-386 659,-404 704,-404 704,-386 659,-386"/>
<polygon fill="none" stroke="black" points="659,-386 659,-404 704,-404 704,-386 659,-386"/>
<text text-anchor="start" x="694" y="-392.2" font-family="Helvetica,sans-Serif" font-size="11.00"> &#160;</text>
</a>
</g>
</g>
<!-- seedbank.accession_photos&#45;&gt;files -->
<g id="edge16" class="edge"><title>seedbank.accession_photos:elipses:w&#45;&gt;files:id:e</title>
<path fill="none" stroke="black" d="M484.355,-413C471.297,-413 463.519,-413 445.5,-413"/>
<polygon fill="black" stroke="black" points="491,-413 499,-416.6 495,-413 499,-413 499,-413 499,-413 495,-413 499,-409.4 491,-413 491,-413"/>
<ellipse fill="none" stroke="black" cx="487.8" cy="-413" rx="3.2" ry="3.2"/>
</g>
</g>
</svg>
