<?xml version="1.0" encoding="UTF-8" standalone="no"?>
<!DOCTYPE svg PUBLIC "-//W3C//DTD SVG 1.1//EN"
 "http://www.w3.org/Graphics/SVG/1.1/DTD/svg11.dtd">
<!-- Generated by graphviz version 2.47.1 (20210515.0534)
 -->
<!-- Title: twoDegreesRelationshipsDiagram Pages: 1 -->
<svg width="554pt" height="980pt"
 viewBox="0.00 0.00 554.00 980.00" xmlns="http://www.w3.org/2000/svg" xmlns:xlink="http://www.w3.org/1999/xlink">
<g id="graph0" class="graph" transform="scale(1 1) rotate(0) translate(4 976)">
<title>twoDegreesRelationshipsDiagram</title>
<polygon fill="#ffffff" stroke="transparent" points="-4,4 -4,-976 550,-976 550,4 -4,4"/>
<text text-anchor="middle" x="73.5" y="-7.2" font-family="Helvetica,sans-Serif" font-size="11.00">Generated by SchemaSpy</text>
<!-- accelerator.activity_media_files -->
<g id="node1" class="node">
<title>accelerator.activity_media_files</title>
<g id="a_node1"><a xlink:href="../../../accelerator/tables/activity_media_files.html" xlink:title="accelerator.activity_media_files" target="_top">
<polygon fill="#ffffff" stroke="transparent" points="297.5,-831 297.5,-889 529.5,-889 529.5,-831 297.5,-831"/>
<polygon fill="#f5f5f5" stroke="transparent" points="297.5,-867 297.5,-889 529.5,-889 529.5,-867 297.5,-867"/>
<polygon fill="none" stroke="black" points="297.5,-867 297.5,-889 529.5,-889 529.5,-867 297.5,-867"/>
<text text-anchor="start" x="302.5" y="-876.2" font-family="Helvetica,sans-Serif" font-weight="bold" font-size="11.00">accelerator.activity_media_files</text>
<text text-anchor="start" x="490.5" y="-875.2" font-family="Helvetica,sans-Serif" font-size="11.00">[table]</text>
<polygon fill="none" stroke="black" points="297.5,-849 297.5,-867 529.5,-867 529.5,-849 297.5,-849"/>
<text text-anchor="start" x="300.5" y="-855.2" font-family="Helvetica,sans-Serif" font-size="11.00">...</text>
<polygon fill="#ffffff" stroke="transparent" points="297.5,-831 297.5,-849 397.5,-849 397.5,-831 297.5,-831"/>
<polygon fill="none" stroke="black" points="297.5,-831 297.5,-849 397.5,-849 397.5,-831 297.5,-831"/>
<text text-anchor="start" x="300.5" y="-837.2" font-family="Helvetica,sans-Serif" font-size="11.00">&lt; 1</text>
<polygon fill="#ffffff" stroke="transparent" points="397.5,-831 397.5,-849 476.5,-849 476.5,-831 397.5,-831"/>
<polygon fill="none" stroke="black" points="397.5,-831 397.5,-849 476.5,-849 476.5,-831 397.5,-831"/>
<text text-anchor="start" x="439.5" y="-837.2" font-family="Helvetica,sans-Serif" font-size="11.00">0 rows</text>
<polygon fill="#ffffff" stroke="transparent" points="476.5,-831 476.5,-849 529.5,-849 529.5,-831 476.5,-831"/>
<polygon fill="none" stroke="black" points="476.5,-831 476.5,-849 529.5,-849 529.5,-831 476.5,-831"/>
<text text-anchor="start" x="519.5" y="-837.2" font-family="Helvetica,sans-Serif" font-size="11.00"> &#160;</text>
</a>
</g>
</g>
<!-- files -->
<g id="node2" class="node">
<title>files</title>
<g id="a_node2"><a xlink:href="../../tables/files.html" xlink:title="files" target="_top">
<polygon fill="#ffffff" stroke="transparent" points="133,-547 133,-693 240,-693 240,-547 133,-547"/>
<polygon fill="#f5f5f5" stroke="transparent" points="133.5,-671 133.5,-693 240.5,-693 240.5,-671 133.5,-671"/>
<polygon fill="none" stroke="black" points="133.5,-671 133.5,-693 240.5,-693 240.5,-671 133.5,-671"/>
<text text-anchor="start" x="137.5" y="-680.2" font-family="Helvetica,sans-Serif" font-weight="bold" font-size="11.00">files</text>
<text text-anchor="start" x="201.5" y="-679.2" font-family="Helvetica,sans-Serif" font-size="11.00">[table]</text>
<polygon fill="none" stroke="black" points="133.5,-649 133.5,-671 240.5,-671 240.5,-649 133.5,-649"/>
<image xlink:href="../../images/primaryKeys.png" width="11px" height="12px" preserveAspectRatio="xMinYMin meet" x="138.5" y="-666"/>
<text text-anchor="start" x="153.5" y="-657.2" font-family="Helvetica,sans-Serif" font-size="11.00">id</text>
<polygon fill="none" stroke="black" points="133.5,-627 133.5,-649 240.5,-649 240.5,-627 133.5,-627"/>
<image xlink:href="../../images/foreignKeys.png" width="11px" height="12px" preserveAspectRatio="xMinYMin meet" x="138.5" y="-644"/>
<text text-anchor="start" x="153.5" y="-635.2" font-family="Helvetica,sans-Serif" font-size="11.00">created_by</text>
<polygon fill="#ffffff" stroke="transparent" points="133.5,-605 133.5,-627 240.5,-627 240.5,-605 133.5,-605"/>
<polygon fill="none" stroke="black" points="133.5,-605 133.5,-627 240.5,-627 240.5,-605 133.5,-605"/>
<text text-anchor="start" x="153.5" y="-613.2" font-family="Helvetica,sans-Serif" font-size="11.00">storage_url</text>
<polygon fill="none" stroke="black" points="133.5,-583 133.5,-605 240.5,-605 240.5,-583 133.5,-583"/>
<image xlink:href="../../images/foreignKeys.png" width="11px" height="12px" preserveAspectRatio="xMinYMin meet" x="138.5" y="-600"/>
<text text-anchor="start" x="153.5" y="-591.2" font-family="Helvetica,sans-Serif" font-size="11.00">modified_by</text>
<polygon fill="none" stroke="black" points="133.5,-565 133.5,-583 240.5,-583 240.5,-565 133.5,-565"/>
<text text-anchor="start" x="136.5" y="-571.2" font-family="Helvetica,sans-Serif" font-size="11.00">...</text>
<polygon fill="#ffffff" stroke="transparent" points="133.5,-547 133.5,-565 177.5,-565 177.5,-547 133.5,-547"/>
<polygon fill="none" stroke="black" points="133.5,-547 133.5,-565 177.5,-565 177.5,-547 133.5,-547"/>
<text text-anchor="start" x="136.5" y="-553.2" font-family="Helvetica,sans-Serif" font-size="11.00">&lt; 2</text>
<polygon fill="#ffffff" stroke="transparent" points="177.5,-547 177.5,-565 201.5,-565 201.5,-547 177.5,-547"/>
<polygon fill="none" stroke="black" points="177.5,-547 177.5,-565 201.5,-565 201.5,-547 177.5,-547"/>
<text text-anchor="start" x="191.5" y="-553.2" font-family="Helvetica,sans-Serif" font-size="11.00"> &#160;</text>
<polygon fill="#ffffff" stroke="transparent" points="201.5,-547 201.5,-565 240.5,-565 240.5,-547 201.5,-547"/>
<polygon fill="none" stroke="black" points="201.5,-547 201.5,-565 240.5,-565 240.5,-547 201.5,-547"/>
<text text-anchor="start" x="215.5" y="-553.2" font-family="Helvetica,sans-Serif" font-size="11.00">10 &gt;</text>
</a>
</g>
</g>
<!-- accelerator.activity_media_files&#45;&gt;files -->
<g id="edge1" class="edge">
<title>accelerator.activity_media_files:w&#45;&gt;files:e</title>
<path fill="none" stroke="black" d="M282.22,-855.91C219.82,-834.75 327.3,-660 241.5,-660"/>
<polygon fill="black" stroke="black" points="288.58,-856.84 295.98,-861.56 292.54,-857.42 296.5,-858 296.5,-858 296.5,-858 292.54,-857.42 297.02,-854.44 288.58,-856.84 288.58,-856.84"/>
<ellipse fill="none" stroke="black" cx="285.42" cy="-856.38" rx="3.2" ry="3.2"/>
</g>
<!-- users -->
<g id="node6" class="node">
<title>users</title>
<g id="a_node6"><a xlink:href="../../tables/users.html" xlink:title="users" target="_top">
<polygon fill="#ffffff" stroke="transparent" points="8,-707 8,-765 84,-765 84,-707 8,-707"/>
<polygon fill="#f5f5f5" stroke="transparent" points="8,-743 8,-765 84,-765 84,-743 8,-743"/>
<polygon fill="none" stroke="black" points="8,-743 8,-765 84,-765 84,-743 8,-743"/>
<text text-anchor="start" x="11.5" y="-752.2" font-family="Helvetica,sans-Serif" font-weight="bold" font-size="11.00">users</text>
<text text-anchor="start" x="45" y="-751.2" font-family="Helvetica,sans-Serif" font-size="11.00">[table]</text>
<polygon fill="none" stroke="black" points="8,-725 8,-743 84,-743 84,-725 8,-725"/>
<text text-anchor="start" x="11" y="-731.2" font-family="Helvetica,sans-Serif" font-size="11.00">...</text>
<polygon fill="#ffffff" stroke="transparent" points="8,-707 8,-725 33,-725 33,-707 8,-707"/>
<polygon fill="none" stroke="black" points="8,-707 8,-725 33,-725 33,-707 8,-707"/>
<text text-anchor="start" x="11" y="-713.2" font-family="Helvetica,sans-Serif" font-size="11.00">&lt; 3</text>
<polygon fill="#ffffff" stroke="transparent" points="33,-707 33,-725 48,-725 48,-707 33,-707"/>
<polygon fill="none" stroke="black" points="33,-707 33,-725 48,-725 48,-707 33,-707"/>
<text text-anchor="start" x="38" y="-713.2" font-family="Helvetica,sans-Serif" font-size="11.00"> &#160;</text>
<polygon fill="#ffffff" stroke="transparent" points="48,-707 48,-725 84,-725 84,-707 48,-707"/>
<polygon fill="none" stroke="black" points="48,-707 48,-725 84,-725 84,-707 48,-707"/>
<text text-anchor="start" x="53" y="-713.2" font-family="Helvetica,sans-Serif" font-size="11.00">123 &gt;</text>
</a>
</g>
</g>
<!-- files&#45;&gt;users -->
<g id="edge8" class="edge">
<title>files:w&#45;&gt;users:e</title>
<path fill="none" stroke="black" d="M118.43,-642.37C95.61,-661.15 126.47,-734 85,-734"/>
<polygon fill="black" stroke="black" points="124.86,-640.38 133.57,-641.44 128.68,-639.19 132.5,-638 132.5,-638 132.5,-638 128.68,-639.19 131.43,-634.56 124.86,-640.38 124.86,-640.38"/>
<ellipse fill="none" stroke="black" cx="121.81" cy="-641.33" rx="3.2" ry="3.2"/>
</g>
<!-- files&#45;&gt;users -->
<g id="edge9" class="edge">
<title>files:w&#45;&gt;users:e</title>
<path fill="none" stroke="black" d="M118.2,-597.19C80.66,-618.03 144.8,-734 85,-734"/>
<polygon fill="black" stroke="black" points="124.69,-595.74 133.28,-597.51 128.6,-594.87 132.5,-594 132.5,-594 132.5,-594 128.6,-594.87 131.72,-590.49 124.69,-595.74 124.69,-595.74"/>
<ellipse fill="none" stroke="black" cx="121.57" cy="-596.44" rx="3.2" ry="3.2"/>
</g>
<!-- accelerator.submission_snapshots -->
<g id="node3" class="node">
<title>accelerator.submission_snapshots</title>
<g id="a_node3"><a xlink:href="../../../accelerator/tables/submission_snapshots.html" xlink:title="accelerator.submission_snapshots" target="_top">
<polygon fill="#ffffff" stroke="transparent" points="289,-752 289,-810 538,-810 538,-752 289,-752"/>
<polygon fill="#f5f5f5" stroke="transparent" points="289.5,-788 289.5,-810 538.5,-810 538.5,-788 289.5,-788"/>
<polygon fill="none" stroke="black" points="289.5,-788 289.5,-810 538.5,-810 538.5,-788 289.5,-788"/>
<text text-anchor="start" x="294.5" y="-797.2" font-family="Helvetica,sans-Serif" font-weight="bold" font-size="11.00">accelerator.submission_snapshots</text>
<text text-anchor="start" x="499.5" y="-796.2" font-family="Helvetica,sans-Serif" font-size="11.00">[table]</text>
<polygon fill="none" stroke="black" points="289.5,-770 289.5,-788 538.5,-788 538.5,-770 289.5,-770"/>
<text text-anchor="start" x="292.5" y="-776.2" font-family="Helvetica,sans-Serif" font-size="11.00">...</text>
<polygon fill="#ffffff" stroke="transparent" points="289.5,-752 289.5,-770 398.5,-770 398.5,-752 289.5,-752"/>
<polygon fill="none" stroke="black" points="289.5,-752 289.5,-770 398.5,-770 398.5,-752 289.5,-752"/>
<text text-anchor="start" x="292.5" y="-758.2" font-family="Helvetica,sans-Serif" font-size="11.00">&lt; 1</text>
<polygon fill="#ffffff" stroke="transparent" points="398.5,-752 398.5,-770 481.5,-770 481.5,-752 398.5,-752"/>
<polygon fill="none" stroke="black" points="398.5,-752 398.5,-770 481.5,-770 481.5,-752 398.5,-752"/>
<text text-anchor="start" x="444.5" y="-758.2" font-family="Helvetica,sans-Serif" font-size="11.00">0 rows</text>
<polygon fill="#ffffff" stroke="transparent" points="481.5,-752 481.5,-770 538.5,-770 538.5,-752 481.5,-752"/>
<polygon fill="none" stroke="black" points="481.5,-752 481.5,-770 538.5,-770 538.5,-752 481.5,-752"/>
<text text-anchor="start" x="528.5" y="-758.2" font-family="Helvetica,sans-Serif" font-size="11.00"> &#160;</text>
</a>
</g>
</g>
<!-- accelerator.submission_snapshots&#45;&gt;files -->
<g id="edge2" class="edge">
<title>accelerator.submission_snapshots:w&#45;&gt;files:e</title>
<path fill="none" stroke="black" d="M274.34,-775.31C244.34,-755.22 292.37,-660 241.5,-660"/>
<polygon fill="black" stroke="black" points="280.76,-776.98 287.59,-782.48 284.63,-777.99 288.5,-779 288.5,-779 288.5,-779 284.63,-777.99 289.41,-775.52 280.76,-776.98 280.76,-776.98"/>
<ellipse fill="none" stroke="black" cx="277.66" cy="-776.17" rx="3.2" ry="3.2"/>
</g>
<!-- docprod.variable_image_values -->
<g id="node4" class="node">
<title>docprod.variable_image_values</title>
<g id="a_node4"><a xlink:href="../../../docprod/tables/variable_image_values.html" xlink:title="docprod.variable_image_values" target="_top">
<polygon fill="#ffffff" stroke="transparent" points="298.5,-673 298.5,-731 528.5,-731 528.5,-673 298.5,-673"/>
<polygon fill="#f5f5f5" stroke="transparent" points="298.5,-709 298.5,-731 528.5,-731 528.5,-709 298.5,-709"/>
<polygon fill="none" stroke="black" points="298.5,-709 298.5,-731 528.5,-731 528.5,-709 298.5,-709"/>
<text text-anchor="start" x="303.5" y="-718.2" font-family="Helvetica,sans-Serif" font-weight="bold" font-size="11.00">docprod.variable_image_values</text>
<text text-anchor="start" x="489.5" y="-717.2" font-family="Helvetica,sans-Serif" font-size="11.00">[table]</text>
<polygon fill="none" stroke="black" points="298.5,-691 298.5,-709 528.5,-709 528.5,-691 298.5,-691"/>
<text text-anchor="start" x="301.5" y="-697.2" font-family="Helvetica,sans-Serif" font-size="11.00">...</text>
<polygon fill="#ffffff" stroke="transparent" points="298.5,-673 298.5,-691 397.5,-691 397.5,-673 298.5,-673"/>
<polygon fill="none" stroke="black" points="298.5,-673 298.5,-691 397.5,-691 397.5,-673 298.5,-673"/>
<text text-anchor="start" x="301.5" y="-679.2" font-family="Helvetica,sans-Serif" font-size="11.00">&lt; 1</text>
<polygon fill="#ffffff" stroke="transparent" points="397.5,-673 397.5,-691 476.5,-691 476.5,-673 397.5,-673"/>
<polygon fill="none" stroke="black" points="397.5,-673 397.5,-691 476.5,-691 476.5,-673 397.5,-673"/>
<text text-anchor="start" x="439.5" y="-679.2" font-family="Helvetica,sans-Serif" font-size="11.00">0 rows</text>
<polygon fill="#ffffff" stroke="transparent" points="476.5,-673 476.5,-691 528.5,-691 528.5,-673 476.5,-673"/>
<polygon fill="none" stroke="black" points="476.5,-673 476.5,-691 528.5,-691 528.5,-673 476.5,-673"/>
<text text-anchor="start" x="518.5" y="-679.2" font-family="Helvetica,sans-Serif" font-size="11.00"> &#160;</text>
</a>
</g>
</g>
<!-- docprod.variable_image_values&#45;&gt;files -->
<g id="edge3" class="edge">
<title>docprod.variable_image_values:w&#45;&gt;files:e</title>
<path fill="none" stroke="black" d="M283.14,-696.02C267.57,-685.9 266.11,-660 241.5,-660"/>
<polygon fill="black" stroke="black" points="289.79,-697.86 296.54,-703.47 293.65,-698.93 297.5,-700 297.5,-700 297.5,-700 293.65,-698.93 298.46,-696.53 289.79,-697.86 289.79,-697.86"/>
<ellipse fill="none" stroke="black" cx="286.71" cy="-697.01" rx="3.2" ry="3.2"/>
</g>
<!-- nursery.batch_photos -->
<g id="node5" class="node">
<title>nursery.batch_photos</title>
<g id="a_node5"><a xlink:href="../../../nursery/tables/batch_photos.html" xlink:title="nursery.batch_photos" target="_top">
<polygon fill="#ffffff" stroke="transparent" points="326.5,-910 326.5,-968 500.5,-968 500.5,-910 326.5,-910"/>
<polygon fill="#f5f5f5" stroke="transparent" points="326.5,-946 326.5,-968 500.5,-968 500.5,-946 326.5,-946"/>
<polygon fill="none" stroke="black" points="326.5,-946 326.5,-968 500.5,-968 500.5,-946 326.5,-946"/>
<text text-anchor="start" x="331.5" y="-955.2" font-family="Helvetica,sans-Serif" font-weight="bold" font-size="11.00">nursery.batch_photos</text>
<text text-anchor="start" x="461.5" y="-954.2" font-family="Helvetica,sans-Serif" font-size="11.00">[table]</text>
<polygon fill="none" stroke="black" points="326.5,-928 326.5,-946 500.5,-946 500.5,-928 326.5,-928"/>
<text text-anchor="start" x="329.5" y="-934.2" font-family="Helvetica,sans-Serif" font-size="11.00">...</text>
<polygon fill="#ffffff" stroke="transparent" points="326.5,-910 326.5,-928 397.5,-928 397.5,-910 326.5,-910"/>
<polygon fill="none" stroke="black" points="326.5,-910 326.5,-928 397.5,-928 397.5,-910 326.5,-910"/>
<text text-anchor="start" x="329.5" y="-916.2" font-family="Helvetica,sans-Serif" font-size="11.00">&lt; 3</text>
<polygon fill="#ffffff" stroke="transparent" points="397.5,-910 397.5,-928 462.5,-928 462.5,-910 397.5,-910"/>
<polygon fill="none" stroke="black" points="397.5,-910 397.5,-928 462.5,-928 462.5,-910 397.5,-910"/>
<text text-anchor="start" x="425.5" y="-916.2" font-family="Helvetica,sans-Serif" font-size="11.00">0 rows</text>
<polygon fill="#ffffff" stroke="transparent" points="462.5,-910 462.5,-928 500.5,-928 500.5,-910 462.5,-910"/>
<polygon fill="none" stroke="black" points="462.5,-910 462.5,-928 500.5,-928 500.5,-910 462.5,-910"/>
<text text-anchor="start" x="490.5" y="-916.2" font-family="Helvetica,sans-Serif" font-size="11.00"> &#160;</text>
</a>
</g>
</g>
<!-- nursery.batch_photos&#45;&gt;files -->
<g id="edge6" class="edge">
<title>nursery.batch_photos:w&#45;&gt;files:e</title>
<path fill="none" stroke="black" d="M311.17,-934.97C296.83,-930.21 290.99,-917.44 281,-900 254.14,-853.1 295.55,-660 241.5,-660"/>
<polygon fill="black" stroke="black" points="317.58,-935.88 324.99,-940.56 321.54,-936.44 325.5,-937 325.5,-937 325.5,-937 321.54,-936.44 326.01,-933.44 317.58,-935.88 317.58,-935.88"/>
<ellipse fill="none" stroke="black" cx="314.41" cy="-935.43" rx="3.2" ry="3.2"/>
</g>
<!-- nursery.batch_photos&#45;&gt;users -->
<g id="edge4" class="edge">
<title>nursery.batch_photos:w&#45;&gt;users:e</title>
<path fill="none" stroke="black" d="M311.02,-936.22C188.23,-922.6 219.82,-734 85,-734"/>
<polygon fill="black" stroke="black" points="317.51,-936.57 325.31,-940.59 321.51,-936.79 325.5,-937 325.5,-937 325.5,-937 321.51,-936.79 325.69,-933.41 317.51,-936.57 317.51,-936.57"/>
<ellipse fill="none" stroke="black" cx="314.32" cy="-936.4" rx="3.2" ry="3.2"/>
</g>
<!-- nursery.batch_photos&#45;&gt;users -->
<g id="edge5" class="edge">
<title>nursery.batch_photos:w&#45;&gt;users:e</title>
<path fill="none" stroke="black" d="M311.02,-936.22C188.23,-922.6 219.82,-734 85,-734"/>
<polygon fill="black" stroke="black" points="317.51,-936.57 325.31,-940.59 321.51,-936.79 325.5,-937 325.5,-937 325.5,-937 321.51,-936.79 325.69,-933.41 317.51,-936.57 317.51,-936.57"/>
<ellipse fill="none" stroke="black" cx="314.32" cy="-936.4" rx="3.2" ry="3.2"/>
</g>
<!-- nursery.withdrawal_photos -->
<g id="node7" class="node">
<title>nursery.withdrawal_photos</title>
<g id="a_node7"><a xlink:href="../../../nursery/tables/withdrawal_photos.html" xlink:title="nursery.withdrawal_photos" target="_top">
<polygon fill="#ffffff" stroke="transparent" points="309.5,-594 309.5,-652 517.5,-652 517.5,-594 309.5,-594"/>
<polygon fill="#f5f5f5" stroke="transparent" points="309.5,-630 309.5,-652 517.5,-652 517.5,-630 309.5,-630"/>
<polygon fill="none" stroke="black" points="309.5,-630 309.5,-652 517.5,-652 517.5,-630 309.5,-630"/>
<text text-anchor="start" x="314.5" y="-639.2" font-family="Helvetica,sans-Serif" font-weight="bold" font-size="11.00">nursery.withdrawal_photos</text>
<text text-anchor="start" x="478.5" y="-638.2" font-family="Helvetica,sans-Serif" font-size="11.00">[table]</text>
<polygon fill="none" stroke="black" points="309.5,-612 309.5,-630 517.5,-630 517.5,-612 309.5,-612"/>
<text text-anchor="start" x="312.5" y="-618.2" font-family="Helvetica,sans-Serif" font-size="11.00">...</text>
<polygon fill="#ffffff" stroke="transparent" points="309.5,-594 309.5,-612 397.5,-612 397.5,-594 309.5,-594"/>
<polygon fill="none" stroke="black" points="309.5,-594 309.5,-612 397.5,-612 397.5,-594 309.5,-594"/>
<text text-anchor="start" x="312.5" y="-600.2" font-family="Helvetica,sans-Serif" font-size="11.00">&lt; 1</text>
<polygon fill="#ffffff" stroke="transparent" points="397.5,-594 397.5,-612 470.5,-612 470.5,-594 397.5,-594"/>
<polygon fill="none" stroke="black" points="397.5,-594 397.5,-612 470.5,-612 470.5,-594 397.5,-594"/>
<text text-anchor="start" x="433.5" y="-600.2" font-family="Helvetica,sans-Serif" font-size="11.00">0 rows</text>
<polygon fill="#ffffff" stroke="transparent" points="470.5,-594 470.5,-612 517.5,-612 517.5,-594 470.5,-594"/>
<polygon fill="none" stroke="black" points="470.5,-594 470.5,-612 517.5,-612 517.5,-594 470.5,-594"/>
<text text-anchor="start" x="507.5" y="-600.2" font-family="Helvetica,sans-Serif" font-size="11.00"> &#160;</text>
</a>
</g>
</g>
<!-- nursery.withdrawal_photos&#45;&gt;files -->
<g id="edge7" class="edge">
<title>nursery.withdrawal_photos:w&#45;&gt;files:e</title>
<path fill="none" stroke="black" d="M294.16,-623.8C273.69,-632.75 270.3,-660 241.5,-660"/>
<polygon fill="black" stroke="black" points="300.65,-622.54 309.19,-624.53 304.57,-621.77 308.5,-621 308.5,-621 308.5,-621 304.57,-621.77 307.81,-617.47 300.65,-622.54 300.65,-622.54"/>
<ellipse fill="none" stroke="black" cx="297.51" cy="-623.15" rx="3.2" ry="3.2"/>
</g>
<!-- seed_fund_report_files -->
<g id="node8" class="node">
<title>seed_fund_report_files</title>
<g id="a_node8"><a xlink:href="../../tables/seed_fund_report_files.html" xlink:title="seed_fund_report_files" target="_top">
<polygon fill="#ffffff" stroke="transparent" points="325,-515 325,-573 502,-573 502,-515 325,-515"/>
<polygon fill="#f5f5f5" stroke="transparent" points="325.5,-551 325.5,-573 502.5,-573 502.5,-551 325.5,-551"/>
<polygon fill="none" stroke="black" points="325.5,-551 325.5,-573 502.5,-573 502.5,-551 325.5,-551"/>
<text text-anchor="start" x="330.5" y="-560.2" font-family="Helvetica,sans-Serif" font-weight="bold" font-size="11.00">seed_fund_report_files</text>
<text text-anchor="start" x="463.5" y="-559.2" font-family="Helvetica,sans-Serif" font-size="11.00">[table]</text>
<polygon fill="none" stroke="black" points="325.5,-533 325.5,-551 502.5,-551 502.5,-533 325.5,-533"/>
<text text-anchor="start" x="328.5" y="-539.2" font-family="Helvetica,sans-Serif" font-size="11.00">...</text>
<polygon fill="#ffffff" stroke="transparent" points="325.5,-515 325.5,-533 411.5,-533 411.5,-515 325.5,-515"/>
<polygon fill="none" stroke="black" points="325.5,-515 325.5,-533 411.5,-533 411.5,-515 325.5,-515"/>
<text text-anchor="start" x="328.5" y="-521.2" font-family="Helvetica,sans-Serif" font-size="11.00">&lt; 2</text>
<polygon fill="#ffffff" stroke="transparent" points="411.5,-515 411.5,-533 456.5,-533 456.5,-515 411.5,-515"/>
<polygon fill="none" stroke="black" points="411.5,-515 411.5,-533 456.5,-533 456.5,-515 411.5,-515"/>
<text text-anchor="start" x="446.5" y="-521.2" font-family="Helvetica,sans-Serif" font-size="11.00"> &#160;</text>
<polygon fill="#ffffff" stroke="transparent" points="456.5,-515 456.5,-533 502.5,-533 502.5,-515 456.5,-515"/>
<polygon fill="none" stroke="black" points="456.5,-515 456.5,-533 502.5,-533 502.5,-515 456.5,-515"/>
<text text-anchor="start" x="492.5" y="-521.2" font-family="Helvetica,sans-Serif" font-size="11.00"> &#160;</text>
</a>
</g>
</g>
<!-- seed_fund_report_files&#45;&gt;files -->
<g id="edge10" class="edge">
<title>seed_fund_report_files:w&#45;&gt;files:e</title>
<path fill="none" stroke="black" d="M314.14,-543.29C297.12,-548.1 294.69,-565.66 281,-584 258.23,-614.51 279.57,-660 241.5,-660"/>
<polygon fill="black" stroke="black" points="323.21,-538.13 324.2,-546.07 322.61,-546.27 321.62,-538.33 323.21,-538.13"/>
<polyline fill="none" stroke="black" points="324.5,-542 320.53,-542.49 "/>
<ellipse fill="none" stroke="black" cx="317.36" cy="-542.89" rx="3.2" ry="3.2"/>
</g>
<!-- seed_fund_report_photos -->
<g id="node9" class="node">
<title>seed_fund_report_photos</title>
<g id="a_node9"><a xlink:href="../../tables/seed_fund_report_photos.html" xlink:title="seed_fund_report_photos" target="_top">
<polygon fill="#ffffff" stroke="transparent" points="316.5,-436 316.5,-494 510.5,-494 510.5,-436 316.5,-436"/>
<polygon fill="#f5f5f5" stroke="transparent" points="316.5,-472 316.5,-494 510.5,-494 510.5,-472 316.5,-472"/>
<polygon fill="none" stroke="black" points="316.5,-472 316.5,-494 510.5,-494 510.5,-472 316.5,-472"/>
<text text-anchor="start" x="321.5" y="-481.2" font-family="Helvetica,sans-Serif" font-weight="bold" font-size="11.00">seed_fund_report_photos</text>
<text text-anchor="start" x="471.5" y="-480.2" font-family="Helvetica,sans-Serif" font-size="11.00">[table]</text>
<polygon fill="none" stroke="black" points="316.5,-454 316.5,-472 510.5,-472 510.5,-454 316.5,-454"/>
<text text-anchor="start" x="319.5" y="-460.2" font-family="Helvetica,sans-Serif" font-size="11.00">...</text>
<polygon fill="#ffffff" stroke="transparent" points="316.5,-436 316.5,-454 411.5,-454 411.5,-436 316.5,-436"/>
<polygon fill="none" stroke="black" points="316.5,-436 316.5,-454 411.5,-454 411.5,-436 316.5,-436"/>
<text text-anchor="start" x="319.5" y="-442.2" font-family="Helvetica,sans-Serif" font-size="11.00">&lt; 2</text>
<polygon fill="#ffffff" stroke="transparent" points="411.5,-436 411.5,-454 460.5,-454 460.5,-436 411.5,-436"/>
<polygon fill="none" stroke="black" points="411.5,-436 411.5,-454 460.5,-454 460.5,-436 411.5,-436"/>
<text text-anchor="start" x="450.5" y="-442.2" font-family="Helvetica,sans-Serif" font-size="11.00"> &#160;</text>
<polygon fill="#ffffff" stroke="transparent" points="460.5,-436 460.5,-454 510.5,-454 510.5,-436 460.5,-436"/>
<polygon fill="none" stroke="black" points="460.5,-436 460.5,-454 510.5,-454 510.5,-436 460.5,-436"/>
<text text-anchor="start" x="500.5" y="-442.2" font-family="Helvetica,sans-Serif" font-size="11.00"> &#160;</text>
</a>
</g>
</g>
<!-- seed_fund_report_photos&#45;&gt;files -->
<g id="edge11" class="edge">
<title>seed_fund_report_photos:w&#45;&gt;files:e</title>
<path fill="none" stroke="black" d="M305.05,-464.71C291.2,-470.06 290.03,-487.15 281,-505 248.89,-568.43 312.59,-660 241.5,-660"/>
<polygon fill="black" stroke="black" points="314.06,-459.18 315.36,-467.08 313.78,-467.34 312.48,-459.44 314.06,-459.18"/>
<polyline fill="none" stroke="black" points="315.5,-463 311.55,-463.65 "/>
<ellipse fill="none" stroke="black" cx="308.39" cy="-464.17" rx="3.2" ry="3.2"/>
</g>
<!-- thumbnails -->
<g id="node10" class="node">
<title>thumbnails</title>
<g id="a_node10"><a xlink:href="../../tables/thumbnails.html" xlink:title="thumbnails" target="_top">
<polygon fill="#ffffff" stroke="transparent" points="312,-195 312,-415 515,-415 515,-195 312,-195"/>
<polygon fill="#f5f5f5" stroke="transparent" points="314.5,-391 314.5,-413 513.5,-413 513.5,-391 314.5,-391"/>
<polygon fill="none" stroke="black" points="314.5,-391 314.5,-413 513.5,-413 513.5,-391 314.5,-391"/>
<text text-anchor="start" x="319.5" y="-400.2" font-family="Helvetica,sans-Serif" font-weight="bold" font-size="11.00">thumbnails</text>
<text text-anchor="start" x="474.5" y="-399.2" font-family="Helvetica,sans-Serif" font-size="11.00">[table]</text>
<polygon fill="none" stroke="black" points="314.5,-369 314.5,-391 413.5,-391 413.5,-369 314.5,-369"/>
<image xlink:href="../../images/primaryKeys.png" width="11px" height="12px" preserveAspectRatio="xMinYMin meet" x="319.5" y="-386"/>
<text text-anchor="start" x="334.5" y="-377.2" font-family="Helvetica,sans-Serif" font-size="11.00">id</text>
<polygon fill="none" stroke="black" points="413.5,-369 413.5,-391 513.5,-391 513.5,-369 413.5,-369"/>
<text text-anchor="start" x="416.5" y="-377.2" font-family="Helvetica,sans-Serif" font-size="11.00">int8[19]</text>
<polygon fill="#ffffff" stroke="transparent" points="314.5,-347 314.5,-369 413.5,-369 413.5,-347 314.5,-347"/>
<polygon fill="none" stroke="black" points="314.5,-347 314.5,-369 413.5,-369 413.5,-347 314.5,-347"/>
<image xlink:href="../../images/foreignKeys.png" width="11px" height="12px" preserveAspectRatio="xMinYMin meet" x="319.5" y="-364"/>
<text text-anchor="start" x="334.5" y="-355.2" font-family="Helvetica,sans-Serif" font-size="11.00">file_id</text>
<polygon fill="none" stroke="black" points="413.5,-347 413.5,-369 513.5,-369 513.5,-347 413.5,-347"/>
<text text-anchor="start" x="416.5" y="-355.2" font-family="Helvetica,sans-Serif" font-size="11.00">int8[19]</text>
<polygon fill="#ffffff" stroke="transparent" points="314.5,-325 314.5,-347 413.5,-347 413.5,-325 314.5,-325"/>
<polygon fill="none" stroke="black" points="314.5,-325 314.5,-347 413.5,-347 413.5,-325 314.5,-325"/>
<text text-anchor="start" x="334.5" y="-333.2" font-family="Helvetica,sans-Serif" font-size="11.00">width</text>
<polygon fill="none" stroke="black" points="413.5,-325 413.5,-347 513.5,-347 513.5,-325 413.5,-325"/>
<text text-anchor="start" x="416.5" y="-333.2" font-family="Helvetica,sans-Serif" font-size="11.00">int4[10]</text>
<polygon fill="#ffffff" stroke="transparent" points="314.5,-303 314.5,-325 413.5,-325 413.5,-303 314.5,-303"/>
<polygon fill="none" stroke="black" points="314.5,-303 314.5,-325 413.5,-325 413.5,-303 314.5,-303"/>
<text text-anchor="start" x="334.5" y="-311.2" font-family="Helvetica,sans-Serif" font-size="11.00">height</text>
<polygon fill="none" stroke="black" points="413.5,-303 413.5,-325 513.5,-325 513.5,-303 413.5,-303"/>
<text text-anchor="start" x="416.5" y="-311.2" font-family="Helvetica,sans-Serif" font-size="11.00">int4[10]</text>
<polygon fill="none" stroke="black" points="314.5,-281 314.5,-303 413.5,-303 413.5,-281 314.5,-281"/>
<text text-anchor="start" x="334.5" y="-289.2" font-family="Helvetica,sans-Serif" font-size="11.00">content_type</text>
<polygon fill="none" stroke="black" points="413.5,-281 413.5,-303 513.5,-303 513.5,-281 413.5,-281"/>
<text text-anchor="start" x="416.5" y="-289.2" font-family="Helvetica,sans-Serif" font-size="11.00">text[2147483647]</text>
<polygon fill="none" stroke="black" points="314.5,-259 314.5,-281 413.5,-281 413.5,-259 314.5,-259"/>
<text text-anchor="start" x="334.5" y="-267.2" font-family="Helvetica,sans-Serif" font-size="11.00">created_time</text>
<polygon fill="none" stroke="black" points="413.5,-259 413.5,-281 513.5,-281 513.5,-259 413.5,-259"/>
<text text-anchor="start" x="416.5" y="-267.2" font-family="Helvetica,sans-Serif" font-size="11.00">timestamptz[35,6]</text>
<polygon fill="none" stroke="black" points="314.5,-237 314.5,-259 413.5,-259 413.5,-237 314.5,-237"/>
<text text-anchor="start" x="334.5" y="-245.2" font-family="Helvetica,sans-Serif" font-size="11.00">size</text>
<polygon fill="none" stroke="black" points="413.5,-237 413.5,-259 513.5,-259 513.5,-237 413.5,-237"/>
<text text-anchor="start" x="416.5" y="-245.2" font-family="Helvetica,sans-Serif" font-size="11.00">int4[10]</text>
<polygon fill="#ffffff" stroke="transparent" points="314.5,-215 314.5,-237 413.5,-237 413.5,-215 314.5,-215"/>
<polygon fill="none" stroke="black" points="314.5,-215 314.5,-237 413.5,-237 413.5,-215 314.5,-215"/>
<text text-anchor="start" x="334.5" y="-223.2" font-family="Helvetica,sans-Serif" font-size="11.00">storage_url</text>
<polygon fill="none" stroke="black" points="413.5,-215 413.5,-237 513.5,-237 513.5,-215 413.5,-215"/>
<text text-anchor="start" x="416.5" y="-223.2" font-family="Helvetica,sans-Serif" font-size="11.00">text[2147483647]</text>
<polygon fill="#ffffff" stroke="transparent" points="314.5,-197 314.5,-215 368.5,-215 368.5,-197 314.5,-197"/>
<polygon fill="none" stroke="black" points="314.5,-197 314.5,-215 368.5,-215 368.5,-197 314.5,-197"/>
<text text-anchor="start" x="317.5" y="-203.2" font-family="Helvetica,sans-Serif" font-size="11.00">&lt; 1</text>
<polygon fill="#ffffff" stroke="transparent" points="368.5,-197 368.5,-215 413.5,-215 413.5,-197 368.5,-197"/>
<polygon fill="none" stroke="black" points="368.5,-197 368.5,-215 413.5,-215 413.5,-197 368.5,-197"/>
<text text-anchor="start" x="403.5" y="-203.2" font-family="Helvetica,sans-Serif" font-size="11.00"> &#160;</text>
<polygon fill="#ffffff" stroke="transparent" points="413.5,-197 413.5,-215 513.5,-215 513.5,-197 413.5,-197"/>
<polygon fill="none" stroke="black" points="413.5,-197 413.5,-215 513.5,-215 513.5,-197 413.5,-197"/>
<text text-anchor="start" x="494.5" y="-203.2" font-family="Helvetica,sans-Serif" font-size="11.00">0 &gt;</text>
<polygon fill="none" stroke="black" stroke-width="2" points="313,-196 313,-414 514,-414 514,-196 313,-196"/>
</a>
</g>
</g>
<!-- thumbnails&#45;&gt;files -->
<g id="edge12" class="edge">
<title>thumbnails:w&#45;&gt;files:e</title>
<path fill="none" stroke="black" d="M299.96,-362.99C253.78,-402.26 305.24,-660 241.5,-660"/>
<polygon fill="black" stroke="black" points="305.99,-360.77 314.75,-361.38 309.75,-359.38 313.5,-358 313.5,-358 313.5,-358 309.75,-359.38 312.25,-354.62 305.99,-360.77 305.99,-360.77"/>
<ellipse fill="none" stroke="black" cx="302.99" cy="-361.87" rx="3.2" ry="3.2"/>
</g>
<!-- seedbank.accession_photos -->
<g id="node11" class="node">
<title>seedbank.accession_photos</title>
<g id="a_node11"><a xlink:href="../../../seedbank/tables/accession_photos.html" xlink:title="seedbank.accession_photos" target="_top">
<polygon fill="#ffffff" stroke="transparent" points="309,-116 309,-174 518,-174 518,-116 309,-116"/>
<polygon fill="#f5f5f5" stroke="transparent" points="309.5,-152 309.5,-174 518.5,-174 518.5,-152 309.5,-152"/>
<polygon fill="none" stroke="black" points="309.5,-152 309.5,-174 518.5,-174 518.5,-152 309.5,-152"/>
<text text-anchor="start" x="314.5" y="-161.2" font-family="Helvetica,sans-Serif" font-weight="bold" font-size="11.00">seedbank.accession_photos</text>
<text text-anchor="start" x="479.5" y="-160.2" font-family="Helvetica,sans-Serif" font-size="11.00">[table]</text>
<polygon fill="none" stroke="black" points="309.5,-134 309.5,-152 518.5,-152 518.5,-134 309.5,-134"/>
<text text-anchor="start" x="312.5" y="-140.2" font-family="Helvetica,sans-Serif" font-size="11.00">...</text>
<polygon fill="#ffffff" stroke="transparent" points="309.5,-116 309.5,-134 398.5,-134 398.5,-116 309.5,-116"/>
<polygon fill="none" stroke="black" points="309.5,-116 309.5,-134 398.5,-134 398.5,-116 309.5,-116"/>
<text text-anchor="start" x="312.5" y="-122.2" font-family="Helvetica,sans-Serif" font-size="11.00">&lt; 1</text>
<polygon fill="#ffffff" stroke="transparent" points="398.5,-116 398.5,-134 471.5,-134 471.5,-116 398.5,-116"/>
<polygon fill="none" stroke="black" points="398.5,-116 398.5,-134 471.5,-134 471.5,-116 398.5,-116"/>
<text text-anchor="start" x="434.5" y="-122.2" font-family="Helvetica,sans-Serif" font-size="11.00">0 rows</text>
<polygon fill="#ffffff" stroke="transparent" points="471.5,-116 471.5,-134 518.5,-134 518.5,-116 471.5,-116"/>
<polygon fill="none" stroke="black" points="471.5,-116 471.5,-134 518.5,-134 518.5,-116 471.5,-116"/>
<text text-anchor="start" x="508.5" y="-122.2" font-family="Helvetica,sans-Serif" font-size="11.00"> &#160;</text>
</a>
</g>
</g>
<!-- seedbank.accession_photos&#45;&gt;files -->
<g id="edge13" class="edge">
<title>seedbank.accession_photos:w&#45;&gt;files:e</title>
<path fill="none" stroke="black" d="M294.71,-147.5C286.61,-154.77 286.22,-169.84 281,-185 263.77,-235.08 294.46,-660 241.5,-660"/>
<polygon fill="black" stroke="black" points="300.89,-145.48 309.62,-146.42 304.7,-144.24 308.5,-143 308.5,-143 308.5,-143 304.7,-144.24 307.38,-139.58 300.89,-145.48 300.89,-145.48"/>
<ellipse fill="none" stroke="black" cx="297.85" cy="-146.47" rx="3.2" ry="3.2"/>
</g>
<!-- tracking.observation_photos -->
<g id="node12" class="node">
<title>tracking.observation_photos</title>
<g id="a_node12"><a xlink:href="../../../tracking/tables/observation_photos.html" xlink:title="tracking.observation_photos" target="_top">
<polygon fill="#ffffff" stroke="transparent" points="306,-37 306,-95 521,-95 521,-37 306,-37"/>
<polygon fill="#f5f5f5" stroke="transparent" points="306.5,-73 306.5,-95 521.5,-95 521.5,-73 306.5,-73"/>
<polygon fill="none" stroke="black" points="306.5,-73 306.5,-95 521.5,-95 521.5,-73 306.5,-73"/>
<text text-anchor="start" x="311.5" y="-82.2" font-family="Helvetica,sans-Serif" font-weight="bold" font-size="11.00">tracking.observation_photos</text>
<text text-anchor="start" x="482.5" y="-81.2" font-family="Helvetica,sans-Serif" font-size="11.00">[table]</text>
<polygon fill="none" stroke="black" points="306.5,-55 306.5,-73 521.5,-73 521.5,-55 306.5,-55"/>
<text text-anchor="start" x="309.5" y="-61.2" font-family="Helvetica,sans-Serif" font-size="11.00">...</text>
<polygon fill="#ffffff" stroke="transparent" points="306.5,-37 306.5,-55 398.5,-55 398.5,-37 306.5,-37"/>
<polygon fill="none" stroke="black" points="306.5,-37 306.5,-55 398.5,-55 398.5,-37 306.5,-37"/>
<text text-anchor="start" x="309.5" y="-43.2" font-family="Helvetica,sans-Serif" font-size="11.00">&lt; 1</text>
<polygon fill="#ffffff" stroke="transparent" points="398.5,-37 398.5,-55 473.5,-55 473.5,-37 398.5,-37"/>
<polygon fill="none" stroke="black" points="398.5,-37 398.5,-55 473.5,-55 473.5,-37 398.5,-37"/>
<text text-anchor="start" x="436.5" y="-43.2" font-family="Helvetica,sans-Serif" font-size="11.00">0 rows</text>
<polygon fill="#ffffff" stroke="transparent" points="473.5,-37 473.5,-55 521.5,-55 521.5,-37 473.5,-37"/>
<polygon fill="none" stroke="black" points="473.5,-37 473.5,-55 521.5,-55 521.5,-37 473.5,-37"/>
<text text-anchor="start" x="511.5" y="-43.2" font-family="Helvetica,sans-Serif" font-size="11.00"> &#160;</text>
</a>
</g>
</g>
<!-- tracking.observation_photos&#45;&gt;files -->
<g id="edge14" class="edge">
<title>tracking.observation_photos:w&#45;&gt;files:e</title>
<path fill="none" stroke="black" d="M291.97,-69.07C285.09,-76.62 285.48,-91.48 281,-106 262.78,-164.96 303.21,-660 241.5,-660"/>
<polygon fill="black" stroke="black" points="298.01,-66.81 306.76,-67.37 301.75,-65.4 305.5,-64 305.5,-64 305.5,-64 301.75,-65.4 304.24,-60.63 298.01,-66.81 298.01,-66.81"/>
<ellipse fill="none" stroke="black" cx="295.01" cy="-67.93" rx="3.2" ry="3.2"/>
</g>
</g>
</svg>
