<?xml version="1.0" encoding="UTF-8" standalone="no"?>
<!DOCTYPE svg PUBLIC "-//W3C//DTD SVG 1.1//EN"
 "http://www.w3.org/Graphics/SVG/1.1/DTD/svg11.dtd">
<!-- Generated by graphviz version 2.47.1 (20210515.0534)
 -->
<!-- Title: twoDegreesRelationshipsDiagram Pages: 1 -->
<svg width="554pt" height="1217pt"
 viewBox="0.00 0.00 554.00 1217.00" xmlns="http://www.w3.org/2000/svg" xmlns:xlink="http://www.w3.org/1999/xlink">
<g id="graph0" class="graph" transform="scale(1 1) rotate(0) translate(4 1213)">
<title>twoDegreesRelationshipsDiagram</title>
<polygon fill="#ffffff" stroke="transparent" points="-4,4 -4,-1213 550,-1213 550,4 -4,4"/>
<text text-anchor="middle" x="73.5" y="-7.2" font-family="Helvetica,sans-Serif" font-size="11.00">Generated by SchemaSpy</text>
<!-- accelerator.activity_media_files -->
<g id="node1" class="node">
<title>accelerator.activity_media_files</title>
<g id="a_node1"><a xlink:href="../../../accelerator/tables/activity_media_files.html" xlink:title="accelerator.activity_media_files" target="_top">
<polygon fill="#ffffff" stroke="transparent" points="297.5,-353 297.5,-411 529.5,-411 529.5,-353 297.5,-353"/>
<polygon fill="#f5f5f5" stroke="transparent" points="297.5,-389 297.5,-411 529.5,-411 529.5,-389 297.5,-389"/>
<polygon fill="none" stroke="black" points="297.5,-389 297.5,-411 529.5,-411 529.5,-389 297.5,-389"/>
<text text-anchor="start" x="302.5" y="-398.2" font-family="Helvetica,sans-Serif" font-weight="bold" font-size="11.00">accelerator.activity_media_files</text>
<text text-anchor="start" x="490.5" y="-397.2" font-family="Helvetica,sans-Serif" font-size="11.00">[table]</text>
<polygon fill="none" stroke="black" points="297.5,-371 297.5,-389 529.5,-389 529.5,-371 297.5,-371"/>
<text text-anchor="start" x="300.5" y="-377.2" font-family="Helvetica,sans-Serif" font-size="11.00">...</text>
<polygon fill="#ffffff" stroke="transparent" points="297.5,-353 297.5,-371 397.5,-371 397.5,-353 297.5,-353"/>
<polygon fill="none" stroke="black" points="297.5,-353 297.5,-371 397.5,-371 397.5,-353 297.5,-353"/>
<text text-anchor="start" x="300.5" y="-359.2" font-family="Helvetica,sans-Serif" font-size="11.00">&lt; 1</text>
<polygon fill="#ffffff" stroke="transparent" points="397.5,-353 397.5,-371 476.5,-371 476.5,-353 397.5,-353"/>
<polygon fill="none" stroke="black" points="397.5,-353 397.5,-371 476.5,-371 476.5,-353 397.5,-353"/>
<text text-anchor="start" x="439.5" y="-359.2" font-family="Helvetica,sans-Serif" font-size="11.00">0 rows</text>
<polygon fill="#ffffff" stroke="transparent" points="476.5,-353 476.5,-371 529.5,-371 529.5,-353 476.5,-353"/>
<polygon fill="none" stroke="black" points="476.5,-353 476.5,-371 529.5,-371 529.5,-353 476.5,-353"/>
<text text-anchor="start" x="519.5" y="-359.2" font-family="Helvetica,sans-Serif" font-size="11.00"> &#160;</text>
</a>
</g>
</g>
<!-- files -->
<g id="node2" class="node">
<title>files</title>
<g id="a_node2"><a xlink:href="../../tables/files.html" xlink:title="files" target="_top">
<polygon fill="#ffffff" stroke="transparent" points="133,-640 133,-786 240,-786 240,-640 133,-640"/>
<polygon fill="#f5f5f5" stroke="transparent" points="133.5,-764 133.5,-786 240.5,-786 240.5,-764 133.5,-764"/>
<polygon fill="none" stroke="black" points="133.5,-764 133.5,-786 240.5,-786 240.5,-764 133.5,-764"/>
<text text-anchor="start" x="137.5" y="-773.2" font-family="Helvetica,sans-Serif" font-weight="bold" font-size="11.00">files</text>
<text text-anchor="start" x="201.5" y="-772.2" font-family="Helvetica,sans-Serif" font-size="11.00">[table]</text>
<polygon fill="none" stroke="black" points="133.5,-742 133.5,-764 240.5,-764 240.5,-742 133.5,-742"/>
<image xlink:href="../../images/primaryKeys.png" width="11px" height="12px" preserveAspectRatio="xMinYMin meet" x="138.5" y="-759"/>
<text text-anchor="start" x="153.5" y="-750.2" font-family="Helvetica,sans-Serif" font-size="11.00">id</text>
<polygon fill="none" stroke="black" points="133.5,-720 133.5,-742 240.5,-742 240.5,-720 133.5,-720"/>
<image xlink:href="../../images/foreignKeys.png" width="11px" height="12px" preserveAspectRatio="xMinYMin meet" x="138.5" y="-737"/>
<text text-anchor="start" x="153.5" y="-728.2" font-family="Helvetica,sans-Serif" font-size="11.00">created_by</text>
<polygon fill="#ffffff" stroke="transparent" points="133.5,-698 133.5,-720 240.5,-720 240.5,-698 133.5,-698"/>
<polygon fill="none" stroke="black" points="133.5,-698 133.5,-720 240.5,-720 240.5,-698 133.5,-698"/>
<text text-anchor="start" x="153.5" y="-706.2" font-family="Helvetica,sans-Serif" font-size="11.00">storage_url</text>
<polygon fill="none" stroke="black" points="133.5,-676 133.5,-698 240.5,-698 240.5,-676 133.5,-676"/>
<image xlink:href="../../images/foreignKeys.png" width="11px" height="12px" preserveAspectRatio="xMinYMin meet" x="138.5" y="-693"/>
<text text-anchor="start" x="153.5" y="-684.2" font-family="Helvetica,sans-Serif" font-size="11.00">modified_by</text>
<polygon fill="none" stroke="black" points="133.5,-658 133.5,-676 240.5,-676 240.5,-658 133.5,-658"/>
<text text-anchor="start" x="136.5" y="-664.2" font-family="Helvetica,sans-Serif" font-size="11.00">...</text>
<polygon fill="#ffffff" stroke="transparent" points="133.5,-640 133.5,-658 177.5,-658 177.5,-640 133.5,-640"/>
<polygon fill="none" stroke="black" points="133.5,-640 133.5,-658 177.5,-658 177.5,-640 133.5,-640"/>
<text text-anchor="start" x="136.5" y="-646.2" font-family="Helvetica,sans-Serif" font-size="11.00">&lt; 2</text>
<polygon fill="#ffffff" stroke="transparent" points="177.5,-640 177.5,-658 201.5,-658 201.5,-640 177.5,-640"/>
<polygon fill="none" stroke="black" points="177.5,-640 177.5,-658 201.5,-658 201.5,-640 177.5,-640"/>
<text text-anchor="start" x="191.5" y="-646.2" font-family="Helvetica,sans-Serif" font-size="11.00"> &#160;</text>
<polygon fill="#ffffff" stroke="transparent" points="201.5,-640 201.5,-658 240.5,-658 240.5,-640 201.5,-640"/>
<polygon fill="none" stroke="black" points="201.5,-640 201.5,-658 240.5,-658 240.5,-640 201.5,-640"/>
<text text-anchor="start" x="215.5" y="-646.2" font-family="Helvetica,sans-Serif" font-size="11.00">13 &gt;</text>
</a>
</g>
</g>
<!-- accelerator.activity_media_files&#45;&gt;files -->
<g id="edge1" class="edge">
<title>accelerator.activity_media_files:w&#45;&gt;files:e</title>
<path fill="none" stroke="black" d="M282.64,-384.45C226.41,-426.53 319.88,-753 241.5,-753"/>
<polygon fill="black" stroke="black" points="288.88,-382.45 297.6,-383.43 292.69,-381.22 296.5,-380 296.5,-380 296.5,-380 292.69,-381.22 295.4,-376.57 288.88,-382.45 288.88,-382.45"/>
<ellipse fill="none" stroke="black" cx="285.84" cy="-383.42" rx="3.2" ry="3.2"/>
</g>
<!-- users -->
<g id="node8" class="node">
<title>users</title>
<g id="a_node8"><a xlink:href="../../tables/users.html" xlink:title="users" target="_top">
<polygon fill="#ffffff" stroke="transparent" points="8,-1068 8,-1126 84,-1126 84,-1068 8,-1068"/>
<polygon fill="#f5f5f5" stroke="transparent" points="8,-1104 8,-1126 84,-1126 84,-1104 8,-1104"/>
<polygon fill="none" stroke="black" points="8,-1104 8,-1126 84,-1126 84,-1104 8,-1104"/>
<text text-anchor="start" x="11.5" y="-1113.2" font-family="Helvetica,sans-Serif" font-weight="bold" font-size="11.00">users</text>
<text text-anchor="start" x="45" y="-1112.2" font-family="Helvetica,sans-Serif" font-size="11.00">[table]</text>
<polygon fill="none" stroke="black" points="8,-1086 8,-1104 84,-1104 84,-1086 8,-1086"/>
<text text-anchor="start" x="11" y="-1092.2" font-family="Helvetica,sans-Serif" font-size="11.00">...</text>
<polygon fill="#ffffff" stroke="transparent" points="8,-1068 8,-1086 33,-1086 33,-1068 8,-1068"/>
<polygon fill="none" stroke="black" points="8,-1068 8,-1086 33,-1086 33,-1068 8,-1068"/>
<text text-anchor="start" x="11" y="-1074.2" font-family="Helvetica,sans-Serif" font-size="11.00">&lt; 3</text>
<polygon fill="#ffffff" stroke="transparent" points="33,-1068 33,-1086 48,-1086 48,-1068 33,-1068"/>
<polygon fill="none" stroke="black" points="33,-1068 33,-1086 48,-1086 48,-1068 33,-1068"/>
<text text-anchor="start" x="38" y="-1074.2" font-family="Helvetica,sans-Serif" font-size="11.00"> &#160;</text>
<polygon fill="#ffffff" stroke="transparent" points="48,-1068 48,-1086 84,-1086 84,-1068 48,-1068"/>
<polygon fill="none" stroke="black" points="48,-1068 48,-1086 84,-1086 84,-1068 48,-1068"/>
<text text-anchor="start" x="53" y="-1074.2" font-family="Helvetica,sans-Serif" font-size="11.00">124 &gt;</text>
</a>
</g>
</g>
<!-- files&#45;&gt;users -->
<g id="edge12" class="edge">
<title>files:w&#45;&gt;users:e</title>
<path fill="none" stroke="black" d="M118.07,-732.11C-13.14,-754.08 242.89,-1095 85,-1095"/>
<polygon fill="black" stroke="black" points="124.52,-731.61 132.78,-734.59 128.51,-731.31 132.5,-731 132.5,-731 132.5,-731 128.51,-731.31 132.22,-727.41 124.52,-731.61 124.52,-731.61"/>
<ellipse fill="none" stroke="black" cx="121.33" cy="-731.86" rx="3.2" ry="3.2"/>
</g>
<!-- files&#45;&gt;users -->
<g id="edge13" class="edge">
<title>files:w&#45;&gt;users:e</title>
<path fill="none" stroke="black" d="M117.72,-688.03C-31.88,-710.56 262.21,-1095 85,-1095"/>
<polygon fill="black" stroke="black" points="124.52,-687.56 132.75,-690.59 128.51,-687.28 132.5,-687 132.5,-687 132.5,-687 128.51,-687.28 132.25,-683.41 124.52,-687.56 124.52,-687.56"/>
<ellipse fill="none" stroke="black" cx="121.33" cy="-687.78" rx="3.2" ry="3.2"/>
</g>
<!-- accelerator.report_photos -->
<g id="node3" class="node">
<title>accelerator.report_photos</title>
<g id="a_node3"><a xlink:href="../../../accelerator/tables/report_photos.html" xlink:title="accelerator.report_photos" target="_top">
<polygon fill="#ffffff" stroke="transparent" points="313.5,-274 313.5,-332 513.5,-332 513.5,-274 313.5,-274"/>
<polygon fill="#f5f5f5" stroke="transparent" points="313.5,-310 313.5,-332 513.5,-332 513.5,-310 313.5,-310"/>
<polygon fill="none" stroke="black" points="313.5,-310 313.5,-332 513.5,-332 513.5,-310 313.5,-310"/>
<text text-anchor="start" x="318.5" y="-319.2" font-family="Helvetica,sans-Serif" font-weight="bold" font-size="11.00">accelerator.report_photos</text>
<text text-anchor="start" x="474.5" y="-318.2" font-family="Helvetica,sans-Serif" font-size="11.00">[table]</text>
<polygon fill="none" stroke="black" points="313.5,-292 313.5,-310 513.5,-310 513.5,-292 313.5,-292"/>
<text text-anchor="start" x="316.5" y="-298.2" font-family="Helvetica,sans-Serif" font-size="11.00">...</text>
<polygon fill="#ffffff" stroke="transparent" points="313.5,-274 313.5,-292 397.5,-292 397.5,-274 313.5,-274"/>
<polygon fill="none" stroke="black" points="313.5,-274 313.5,-292 397.5,-292 397.5,-274 313.5,-274"/>
<text text-anchor="start" x="316.5" y="-280.2" font-family="Helvetica,sans-Serif" font-size="11.00">&lt; 1</text>
<polygon fill="#ffffff" stroke="transparent" points="397.5,-274 397.5,-292 468.5,-292 468.5,-274 397.5,-274"/>
<polygon fill="none" stroke="black" points="397.5,-274 397.5,-292 468.5,-292 468.5,-274 397.5,-274"/>
<text text-anchor="start" x="431.5" y="-280.2" font-family="Helvetica,sans-Serif" font-size="11.00">0 rows</text>
<polygon fill="#ffffff" stroke="transparent" points="468.5,-274 468.5,-292 513.5,-292 513.5,-274 468.5,-274"/>
<polygon fill="none" stroke="black" points="468.5,-274 468.5,-292 513.5,-292 513.5,-274 468.5,-274"/>
<text text-anchor="start" x="503.5" y="-280.2" font-family="Helvetica,sans-Serif" font-size="11.00"> &#160;</text>
</a>
</g>
</g>
<!-- accelerator.report_photos&#45;&gt;files -->
<g id="edge2" class="edge">
<title>accelerator.report_photos:w&#45;&gt;files:e</title>
<path fill="none" stroke="black" d="M298.45,-304.82C288.88,-311.55 287.19,-326.3 281,-342 264.18,-384.68 287.38,-753 241.5,-753"/>
<polygon fill="black" stroke="black" points="304.78,-303.1 313.44,-304.47 308.64,-302.05 312.5,-301 312.5,-301 312.5,-301 308.64,-302.05 311.56,-297.53 304.78,-303.1 304.78,-303.1"/>
<ellipse fill="none" stroke="black" cx="301.69" cy="-303.94" rx="3.2" ry="3.2"/>
</g>
<!-- accelerator.submission_snapshots -->
<g id="node4" class="node">
<title>accelerator.submission_snapshots</title>
<g id="a_node4"><a xlink:href="../../../accelerator/tables/submission_snapshots.html" xlink:title="accelerator.submission_snapshots" target="_top">
<polygon fill="#ffffff" stroke="transparent" points="289,-195 289,-253 538,-253 538,-195 289,-195"/>
<polygon fill="#f5f5f5" stroke="transparent" points="289.5,-231 289.5,-253 538.5,-253 538.5,-231 289.5,-231"/>
<polygon fill="none" stroke="black" points="289.5,-231 289.5,-253 538.5,-253 538.5,-231 289.5,-231"/>
<text text-anchor="start" x="294.5" y="-240.2" font-family="Helvetica,sans-Serif" font-weight="bold" font-size="11.00">accelerator.submission_snapshots</text>
<text text-anchor="start" x="499.5" y="-239.2" font-family="Helvetica,sans-Serif" font-size="11.00">[table]</text>
<polygon fill="none" stroke="black" points="289.5,-213 289.5,-231 538.5,-231 538.5,-213 289.5,-213"/>
<text text-anchor="start" x="292.5" y="-219.2" font-family="Helvetica,sans-Serif" font-size="11.00">...</text>
<polygon fill="#ffffff" stroke="transparent" points="289.5,-195 289.5,-213 398.5,-213 398.5,-195 289.5,-195"/>
<polygon fill="none" stroke="black" points="289.5,-195 289.5,-213 398.5,-213 398.5,-195 289.5,-195"/>
<text text-anchor="start" x="292.5" y="-201.2" font-family="Helvetica,sans-Serif" font-size="11.00">&lt; 1</text>
<polygon fill="#ffffff" stroke="transparent" points="398.5,-195 398.5,-213 481.5,-213 481.5,-195 398.5,-195"/>
<polygon fill="none" stroke="black" points="398.5,-195 398.5,-213 481.5,-213 481.5,-195 398.5,-195"/>
<text text-anchor="start" x="444.5" y="-201.2" font-family="Helvetica,sans-Serif" font-size="11.00">0 rows</text>
<polygon fill="#ffffff" stroke="transparent" points="481.5,-195 481.5,-213 538.5,-213 538.5,-195 481.5,-195"/>
<polygon fill="none" stroke="black" points="481.5,-195 481.5,-213 538.5,-213 538.5,-195 481.5,-195"/>
<text text-anchor="start" x="528.5" y="-201.2" font-family="Helvetica,sans-Serif" font-size="11.00"> &#160;</text>
</a>
</g>
</g>
<!-- accelerator.submission_snapshots&#45;&gt;files -->
<g id="edge3" class="edge">
<title>accelerator.submission_snapshots:w&#45;&gt;files:e</title>
<path fill="none" stroke="black" d="M276.89,-231.22C239.64,-301.73 296.1,-753 241.5,-753"/>
<polygon fill="black" stroke="black" points="282.23,-226.97 290.74,-224.82 285.37,-224.49 288.5,-222 288.5,-222 288.5,-222 285.37,-224.49 286.26,-219.18 282.23,-226.97 282.23,-226.97"/>
<ellipse fill="none" stroke="black" cx="279.73" cy="-228.96" rx="3.2" ry="3.2"/>
</g>
<!-- docprod.variable_image_values -->
<g id="node5" class="node">
<title>docprod.variable_image_values</title>
<g id="a_node5"><a xlink:href="../../../docprod/tables/variable_image_values.html" xlink:title="docprod.variable_image_values" target="_top">
<polygon fill="#ffffff" stroke="transparent" points="298.5,-116 298.5,-174 528.5,-174 528.5,-116 298.5,-116"/>
<polygon fill="#f5f5f5" stroke="transparent" points="298.5,-152 298.5,-174 528.5,-174 528.5,-152 298.5,-152"/>
<polygon fill="none" stroke="black" points="298.5,-152 298.5,-174 528.5,-174 528.5,-152 298.5,-152"/>
<text text-anchor="start" x="303.5" y="-161.2" font-family="Helvetica,sans-Serif" font-weight="bold" font-size="11.00">docprod.variable_image_values</text>
<text text-anchor="start" x="489.5" y="-160.2" font-family="Helvetica,sans-Serif" font-size="11.00">[table]</text>
<polygon fill="none" stroke="black" points="298.5,-134 298.5,-152 528.5,-152 528.5,-134 298.5,-134"/>
<text text-anchor="start" x="301.5" y="-140.2" font-family="Helvetica,sans-Serif" font-size="11.00">...</text>
<polygon fill="#ffffff" stroke="transparent" points="298.5,-116 298.5,-134 397.5,-134 397.5,-116 298.5,-116"/>
<polygon fill="none" stroke="black" points="298.5,-116 298.5,-134 397.5,-134 397.5,-116 298.5,-116"/>
<text text-anchor="start" x="301.5" y="-122.2" font-family="Helvetica,sans-Serif" font-size="11.00">&lt; 1</text>
<polygon fill="#ffffff" stroke="transparent" points="397.5,-116 397.5,-134 476.5,-134 476.5,-116 397.5,-116"/>
<polygon fill="none" stroke="black" points="397.5,-116 397.5,-134 476.5,-134 476.5,-116 397.5,-116"/>
<text text-anchor="start" x="439.5" y="-122.2" font-family="Helvetica,sans-Serif" font-size="11.00">0 rows</text>
<polygon fill="#ffffff" stroke="transparent" points="476.5,-116 476.5,-134 528.5,-134 528.5,-116 476.5,-116"/>
<polygon fill="none" stroke="black" points="476.5,-116 476.5,-134 528.5,-134 528.5,-116 476.5,-116"/>
<text text-anchor="start" x="518.5" y="-122.2" font-family="Helvetica,sans-Serif" font-size="11.00"> &#160;</text>
</a>
</g>
</g>
<!-- docprod.variable_image_values&#45;&gt;files -->
<g id="edge4" class="edge">
<title>docprod.variable_image_values:w&#45;&gt;files:e</title>
<path fill="none" stroke="black" d="M285.52,-151.16C239.7,-223.55 304.91,-753 241.5,-753"/>
<polygon fill="black" stroke="black" points="290.89,-147.51 299.53,-145.97 294.19,-145.25 297.5,-143 297.5,-143 297.5,-143 294.19,-145.25 295.47,-140.03 290.89,-147.51 290.89,-147.51"/>
<ellipse fill="none" stroke="black" cx="288.25" cy="-149.31" rx="3.2" ry="3.2"/>
</g>
<!-- funder.published_report_photos -->
<g id="node6" class="node">
<title>funder.published_report_photos</title>
<g id="a_node6"><a xlink:href="../../../funder/tables/published_report_photos.html" xlink:title="funder.published_report_photos" target="_top">
<polygon fill="#ffffff" stroke="transparent" points="295.5,-37 295.5,-95 531.5,-95 531.5,-37 295.5,-37"/>
<polygon fill="#f5f5f5" stroke="transparent" points="295.5,-73 295.5,-95 531.5,-95 531.5,-73 295.5,-73"/>
<polygon fill="none" stroke="black" points="295.5,-73 295.5,-95 531.5,-95 531.5,-73 295.5,-73"/>
<text text-anchor="start" x="300.5" y="-82.2" font-family="Helvetica,sans-Serif" font-weight="bold" font-size="11.00">funder.published_report_photos</text>
<text text-anchor="start" x="492.5" y="-81.2" font-family="Helvetica,sans-Serif" font-size="11.00">[table]</text>
<polygon fill="none" stroke="black" points="295.5,-55 295.5,-73 531.5,-73 531.5,-55 295.5,-55"/>
<text text-anchor="start" x="298.5" y="-61.2" font-family="Helvetica,sans-Serif" font-size="11.00">...</text>
<polygon fill="#ffffff" stroke="transparent" points="295.5,-37 295.5,-55 397.5,-55 397.5,-37 295.5,-37"/>
<polygon fill="none" stroke="black" points="295.5,-37 295.5,-55 397.5,-55 397.5,-37 295.5,-37"/>
<text text-anchor="start" x="298.5" y="-43.2" font-family="Helvetica,sans-Serif" font-size="11.00">&lt; 1</text>
<polygon fill="#ffffff" stroke="transparent" points="397.5,-37 397.5,-55 477.5,-55 477.5,-37 397.5,-37"/>
<polygon fill="none" stroke="black" points="397.5,-37 397.5,-55 477.5,-55 477.5,-37 397.5,-37"/>
<text text-anchor="start" x="440.5" y="-43.2" font-family="Helvetica,sans-Serif" font-size="11.00">0 rows</text>
<polygon fill="#ffffff" stroke="transparent" points="477.5,-37 477.5,-55 531.5,-55 531.5,-37 477.5,-37"/>
<polygon fill="none" stroke="black" points="477.5,-37 477.5,-55 531.5,-55 531.5,-37 477.5,-37"/>
<text text-anchor="start" x="521.5" y="-43.2" font-family="Helvetica,sans-Serif" font-size="11.00"> &#160;</text>
</a>
</g>
</g>
<!-- funder.published_report_photos&#45;&gt;files -->
<g id="edge5" class="edge">
<title>funder.published_report_photos:w&#45;&gt;files:e</title>
<path fill="none" stroke="black" d="M282.1,-71.74C229.6,-147.43 313.48,-753 241.5,-753"/>
<polygon fill="black" stroke="black" points="287.71,-68.23 296.41,-67.05 291.11,-66.12 294.5,-64 294.5,-64 294.5,-64 291.11,-66.12 292.59,-60.95 287.71,-68.23 287.71,-68.23"/>
<ellipse fill="none" stroke="black" cx="285" cy="-69.93" rx="3.2" ry="3.2"/>
</g>
<!-- nursery.batch_photos -->
<g id="node7" class="node">
<title>nursery.batch_photos</title>
<g id="a_node7"><a xlink:href="../../../nursery/tables/batch_photos.html" xlink:title="nursery.batch_photos" target="_top">
<polygon fill="#ffffff" stroke="transparent" points="326.5,-1147 326.5,-1205 500.5,-1205 500.5,-1147 326.5,-1147"/>
<polygon fill="#f5f5f5" stroke="transparent" points="326.5,-1183 326.5,-1205 500.5,-1205 500.5,-1183 326.5,-1183"/>
<polygon fill="none" stroke="black" points="326.5,-1183 326.5,-1205 500.5,-1205 500.5,-1183 326.5,-1183"/>
<text text-anchor="start" x="331.5" y="-1192.2" font-family="Helvetica,sans-Serif" font-weight="bold" font-size="11.00">nursery.batch_photos</text>
<text text-anchor="start" x="461.5" y="-1191.2" font-family="Helvetica,sans-Serif" font-size="11.00">[table]</text>
<polygon fill="none" stroke="black" points="326.5,-1165 326.5,-1183 500.5,-1183 500.5,-1165 326.5,-1165"/>
<text text-anchor="start" x="329.5" y="-1171.2" font-family="Helvetica,sans-Serif" font-size="11.00">...</text>
<polygon fill="#ffffff" stroke="transparent" points="326.5,-1147 326.5,-1165 397.5,-1165 397.5,-1147 326.5,-1147"/>
<polygon fill="none" stroke="black" points="326.5,-1147 326.5,-1165 397.5,-1165 397.5,-1147 326.5,-1147"/>
<text text-anchor="start" x="329.5" y="-1153.2" font-family="Helvetica,sans-Serif" font-size="11.00">&lt; 3</text>
<polygon fill="#ffffff" stroke="transparent" points="397.5,-1147 397.5,-1165 462.5,-1165 462.5,-1147 397.5,-1147"/>
<polygon fill="none" stroke="black" points="397.5,-1147 397.5,-1165 462.5,-1165 462.5,-1147 397.5,-1147"/>
<text text-anchor="start" x="425.5" y="-1153.2" font-family="Helvetica,sans-Serif" font-size="11.00">0 rows</text>
<polygon fill="#ffffff" stroke="transparent" points="462.5,-1147 462.5,-1165 500.5,-1165 500.5,-1147 462.5,-1147"/>
<polygon fill="none" stroke="black" points="462.5,-1147 462.5,-1165 500.5,-1165 500.5,-1147 462.5,-1147"/>
<text text-anchor="start" x="490.5" y="-1153.2" font-family="Helvetica,sans-Serif" font-size="11.00"> &#160;</text>
</a>
</g>
</g>
<!-- nursery.batch_photos&#45;&gt;files -->
<g id="edge8" class="edge">
<title>nursery.batch_photos:w&#45;&gt;files:e</title>
<path fill="none" stroke="black" d="M311.1,-1172.01C296.6,-1167.34 290.45,-1154.73 281,-1137 260.82,-1099.15 284.39,-753 241.5,-753"/>
<polygon fill="black" stroke="black" points="317.58,-1172.9 325.01,-1177.57 321.54,-1173.45 325.5,-1174 325.5,-1174 325.5,-1174 321.54,-1173.45 325.99,-1170.43 317.58,-1172.9 317.58,-1172.9"/>
<ellipse fill="none" stroke="black" cx="314.41" cy="-1172.47" rx="3.2" ry="3.2"/>
</g>
<!-- nursery.batch_photos&#45;&gt;users -->
<g id="edge6" class="edge">
<title>nursery.batch_photos:w&#45;&gt;users:e</title>
<path fill="none" stroke="black" d="M311.08,-1171.37C258.94,-1157.66 110.05,-1095 85,-1095"/>
<polygon fill="black" stroke="black" points="317.63,-1172.57 324.85,-1177.54 321.56,-1173.28 325.5,-1174 325.5,-1174 325.5,-1174 321.56,-1173.28 326.15,-1170.46 317.63,-1172.57 317.63,-1172.57"/>
<ellipse fill="none" stroke="black" cx="314.48" cy="-1171.99" rx="3.2" ry="3.2"/>
</g>
<!-- nursery.batch_photos&#45;&gt;users -->
<g id="edge7" class="edge">
<title>nursery.batch_photos:w&#45;&gt;users:e</title>
<path fill="none" stroke="black" d="M311.07,-1172.63C249.69,-1162.14 136.86,-1095 85,-1095"/>
<polygon fill="black" stroke="black" points="317.54,-1173.24 325.16,-1177.58 321.52,-1173.62 325.5,-1174 325.5,-1174 325.5,-1174 321.52,-1173.62 325.84,-1170.42 317.54,-1173.24 317.54,-1173.24"/>
<ellipse fill="none" stroke="black" cx="314.35" cy="-1172.94" rx="3.2" ry="3.2"/>
</g>
<!-- nursery.withdrawal_photos -->
<g id="node9" class="node">
<title>nursery.withdrawal_photos</title>
<g id="a_node9"><a xlink:href="../../../nursery/tables/withdrawal_photos.html" xlink:title="nursery.withdrawal_photos" target="_top">
<polygon fill="#ffffff" stroke="transparent" points="309.5,-989 309.5,-1047 517.5,-1047 517.5,-989 309.5,-989"/>
<polygon fill="#f5f5f5" stroke="transparent" points="309.5,-1025 309.5,-1047 517.5,-1047 517.5,-1025 309.5,-1025"/>
<polygon fill="none" stroke="black" points="309.5,-1025 309.5,-1047 517.5,-1047 517.5,-1025 309.5,-1025"/>
<text text-anchor="start" x="314.5" y="-1034.2" font-family="Helvetica,sans-Serif" font-weight="bold" font-size="11.00">nursery.withdrawal_photos</text>
<text text-anchor="start" x="478.5" y="-1033.2" font-family="Helvetica,sans-Serif" font-size="11.00">[table]</text>
<polygon fill="none" stroke="black" points="309.5,-1007 309.5,-1025 517.5,-1025 517.5,-1007 309.5,-1007"/>
<text text-anchor="start" x="312.5" y="-1013.2" font-family="Helvetica,sans-Serif" font-size="11.00">...</text>
<polygon fill="#ffffff" stroke="transparent" points="309.5,-989 309.5,-1007 397.5,-1007 397.5,-989 309.5,-989"/>
<polygon fill="none" stroke="black" points="309.5,-989 309.5,-1007 397.5,-1007 397.5,-989 309.5,-989"/>
<text text-anchor="start" x="312.5" y="-995.2" font-family="Helvetica,sans-Serif" font-size="11.00">&lt; 1</text>
<polygon fill="#ffffff" stroke="transparent" points="397.5,-989 397.5,-1007 470.5,-1007 470.5,-989 397.5,-989"/>
<polygon fill="none" stroke="black" points="397.5,-989 397.5,-1007 470.5,-1007 470.5,-989 397.5,-989"/>
<text text-anchor="start" x="433.5" y="-995.2" font-family="Helvetica,sans-Serif" font-size="11.00">0 rows</text>
<polygon fill="#ffffff" stroke="transparent" points="470.5,-989 470.5,-1007 517.5,-1007 517.5,-989 470.5,-989"/>
<polygon fill="none" stroke="black" points="470.5,-989 470.5,-1007 517.5,-1007 517.5,-989 470.5,-989"/>
<text text-anchor="start" x="507.5" y="-995.2" font-family="Helvetica,sans-Serif" font-size="11.00"> &#160;</text>
</a>
</g>
</g>
<!-- nursery.withdrawal_photos&#45;&gt;files -->
<g id="edge9" class="edge">
<title>nursery.withdrawal_photos:w&#45;&gt;files:e</title>
<path fill="none" stroke="black" d="M294.67,-1011.21C287.79,-1004.58 286.56,-991.94 281,-979 260.86,-932.16 292.48,-753 241.5,-753"/>
<polygon fill="black" stroke="black" points="300.94,-1013.38 307.32,-1019.4 304.72,-1014.69 308.5,-1016 308.5,-1016 308.5,-1016 304.72,-1014.69 309.68,-1012.6 300.94,-1013.38 300.94,-1013.38"/>
<ellipse fill="none" stroke="black" cx="297.92" cy="-1012.33" rx="3.2" ry="3.2"/>
</g>
<!-- file_access_tokens -->
<g id="node10" class="node">
<title>file_access_tokens</title>
<g id="a_node10"><a xlink:href="../../tables/file_access_tokens.html" xlink:title="file_access_tokens" target="_top">
<polygon fill="#ffffff" stroke="transparent" points="337.5,-1068 337.5,-1126 489.5,-1126 489.5,-1068 337.5,-1068"/>
<polygon fill="#f5f5f5" stroke="transparent" points="337.5,-1104 337.5,-1126 489.5,-1126 489.5,-1104 337.5,-1104"/>
<polygon fill="none" stroke="black" points="337.5,-1104 337.5,-1126 489.5,-1126 489.5,-1104 337.5,-1104"/>
<text text-anchor="start" x="342.5" y="-1113.2" font-family="Helvetica,sans-Serif" font-weight="bold" font-size="11.00">file_access_tokens</text>
<text text-anchor="start" x="450.5" y="-1112.2" font-family="Helvetica,sans-Serif" font-size="11.00">[table]</text>
<polygon fill="none" stroke="black" points="337.5,-1086 337.5,-1104 489.5,-1104 489.5,-1086 337.5,-1086"/>
<text text-anchor="start" x="340.5" y="-1092.2" font-family="Helvetica,sans-Serif" font-size="11.00">...</text>
<polygon fill="#ffffff" stroke="transparent" points="337.5,-1068 337.5,-1086 411.5,-1086 411.5,-1068 337.5,-1068"/>
<polygon fill="none" stroke="black" points="337.5,-1068 337.5,-1086 411.5,-1086 411.5,-1068 337.5,-1068"/>
<text text-anchor="start" x="340.5" y="-1074.2" font-family="Helvetica,sans-Serif" font-size="11.00">&lt; 2</text>
<polygon fill="#ffffff" stroke="transparent" points="411.5,-1068 411.5,-1086 450.5,-1086 450.5,-1068 411.5,-1068"/>
<polygon fill="none" stroke="black" points="411.5,-1068 411.5,-1086 450.5,-1086 450.5,-1068 411.5,-1068"/>
<text text-anchor="start" x="440.5" y="-1074.2" font-family="Helvetica,sans-Serif" font-size="11.00"> &#160;</text>
<polygon fill="#ffffff" stroke="transparent" points="450.5,-1068 450.5,-1086 489.5,-1086 489.5,-1068 450.5,-1068"/>
<polygon fill="none" stroke="black" points="450.5,-1068 450.5,-1086 489.5,-1086 489.5,-1068 450.5,-1068"/>
<text text-anchor="start" x="479.5" y="-1074.2" font-family="Helvetica,sans-Serif" font-size="11.00"> &#160;</text>
</a>
</g>
</g>
<!-- file_access_tokens&#45;&gt;files -->
<g id="edge11" class="edge">
<title>file_access_tokens:w&#45;&gt;files:e</title>
<path fill="none" stroke="black" d="M321.98,-1093.8C302.92,-1090.21 293.77,-1078.56 281,-1058 244.94,-999.94 309.84,-753 241.5,-753"/>
<polygon fill="black" stroke="black" points="328.53,-1094.34 336.2,-1098.59 332.51,-1094.67 336.5,-1095 336.5,-1095 336.5,-1095 332.51,-1094.67 336.8,-1091.41 328.53,-1094.34 328.53,-1094.34"/>
<ellipse fill="none" stroke="black" cx="325.34" cy="-1094.07" rx="3.2" ry="3.2"/>
</g>
<!-- file_access_tokens&#45;&gt;users -->
<g id="edge10" class="edge">
<title>file_access_tokens:w&#45;&gt;users:e</title>
<path fill="none" stroke="black" d="M321.93,-1095C222.04,-1095 191.76,-1095 85,-1095"/>
<polygon fill="black" stroke="black" points="328.5,-1095 336.5,-1098.6 332.5,-1095 336.5,-1095 336.5,-1095 336.5,-1095 332.5,-1095 336.5,-1091.4 328.5,-1095 328.5,-1095"/>
<ellipse fill="none" stroke="black" cx="325.3" cy="-1095" rx="3.2" ry="3.2"/>
</g>
<!-- seed_fund_report_files -->
<g id="node11" class="node">
<title>seed_fund_report_files</title>
<g id="a_node11"><a xlink:href="../../tables/seed_fund_report_files.html" xlink:title="seed_fund_report_files" target="_top">
<polygon fill="#ffffff" stroke="transparent" points="325,-910 325,-968 502,-968 502,-910 325,-910"/>
<polygon fill="#f5f5f5" stroke="transparent" points="325.5,-946 325.5,-968 502.5,-968 502.5,-946 325.5,-946"/>
<polygon fill="none" stroke="black" points="325.5,-946 325.5,-968 502.5,-968 502.5,-946 325.5,-946"/>
<text text-anchor="start" x="330.5" y="-955.2" font-family="Helvetica,sans-Serif" font-weight="bold" font-size="11.00">seed_fund_report_files</text>
<text text-anchor="start" x="463.5" y="-954.2" font-family="Helvetica,sans-Serif" font-size="11.00">[table]</text>
<polygon fill="none" stroke="black" points="325.5,-928 325.5,-946 502.5,-946 502.5,-928 325.5,-928"/>
<text text-anchor="start" x="328.5" y="-934.2" font-family="Helvetica,sans-Serif" font-size="11.00">...</text>
<polygon fill="#ffffff" stroke="transparent" points="325.5,-910 325.5,-928 411.5,-928 411.5,-910 325.5,-910"/>
<polygon fill="none" stroke="black" points="325.5,-910 325.5,-928 411.5,-928 411.5,-910 325.5,-910"/>
<text text-anchor="start" x="328.5" y="-916.2" font-family="Helvetica,sans-Serif" font-size="11.00">&lt; 2</text>
<polygon fill="#ffffff" stroke="transparent" points="411.5,-910 411.5,-928 456.5,-928 456.5,-910 411.5,-910"/>
<polygon fill="none" stroke="black" points="411.5,-910 411.5,-928 456.5,-928 456.5,-910 411.5,-910"/>
<text text-anchor="start" x="446.5" y="-916.2" font-family="Helvetica,sans-Serif" font-size="11.00"> &#160;</text>
<polygon fill="#ffffff" stroke="transparent" points="456.5,-910 456.5,-928 502.5,-928 502.5,-910 456.5,-910"/>
<polygon fill="none" stroke="black" points="456.5,-910 456.5,-928 502.5,-928 502.5,-910 456.5,-910"/>
<text text-anchor="start" x="492.5" y="-916.2" font-family="Helvetica,sans-Serif" font-size="11.00"> &#160;</text>
</a>
</g>
</g>
<!-- seed_fund_report_files&#45;&gt;files -->
<g id="edge14" class="edge">
<title>seed_fund_report_files:w&#45;&gt;files:e</title>
<path fill="none" stroke="black" d="M314.01,-935.9C297.48,-932 292.45,-918.1 281,-900 244.82,-842.84 309.15,-753 241.5,-753"/>
<polygon fill="black" stroke="black" points="324.12,-932.94 323.29,-940.89 321.69,-940.73 322.53,-932.77 324.12,-932.94"/>
<polyline fill="none" stroke="black" points="324.5,-937 320.52,-936.58 "/>
<ellipse fill="none" stroke="black" cx="317.34" cy="-936.25" rx="3.2" ry="3.2"/>
</g>
<!-- seed_fund_report_photos -->
<g id="node12" class="node">
<title>seed_fund_report_photos</title>
<g id="a_node12"><a xlink:href="../../tables/seed_fund_report_photos.html" xlink:title="seed_fund_report_photos" target="_top">
<polygon fill="#ffffff" stroke="transparent" points="316.5,-831 316.5,-889 510.5,-889 510.5,-831 316.5,-831"/>
<polygon fill="#f5f5f5" stroke="transparent" points="316.5,-867 316.5,-889 510.5,-889 510.5,-867 316.5,-867"/>
<polygon fill="none" stroke="black" points="316.5,-867 316.5,-889 510.5,-889 510.5,-867 316.5,-867"/>
<text text-anchor="start" x="321.5" y="-876.2" font-family="Helvetica,sans-Serif" font-weight="bold" font-size="11.00">seed_fund_report_photos</text>
<text text-anchor="start" x="471.5" y="-875.2" font-family="Helvetica,sans-Serif" font-size="11.00">[table]</text>
<polygon fill="none" stroke="black" points="316.5,-849 316.5,-867 510.5,-867 510.5,-849 316.5,-849"/>
<text text-anchor="start" x="319.5" y="-855.2" font-family="Helvetica,sans-Serif" font-size="11.00">...</text>
<polygon fill="#ffffff" stroke="transparent" points="316.5,-831 316.5,-849 411.5,-849 411.5,-831 316.5,-831"/>
<polygon fill="none" stroke="black" points="316.5,-831 316.5,-849 411.5,-849 411.5,-831 316.5,-831"/>
<text text-anchor="start" x="319.5" y="-837.2" font-family="Helvetica,sans-Serif" font-size="11.00">&lt; 2</text>
<polygon fill="#ffffff" stroke="transparent" points="411.5,-831 411.5,-849 460.5,-849 460.5,-831 411.5,-831"/>
<polygon fill="none" stroke="black" points="411.5,-831 411.5,-849 460.5,-849 460.5,-831 411.5,-831"/>
<text text-anchor="start" x="450.5" y="-837.2" font-family="Helvetica,sans-Serif" font-size="11.00"> &#160;</text>
<polygon fill="#ffffff" stroke="transparent" points="460.5,-831 460.5,-849 510.5,-849 510.5,-831 460.5,-831"/>
<polygon fill="none" stroke="black" points="460.5,-831 460.5,-849 510.5,-849 510.5,-831 460.5,-831"/>
<text text-anchor="start" x="500.5" y="-837.2" font-family="Helvetica,sans-Serif" font-size="11.00"> &#160;</text>
</a>
</g>
</g>
<!-- seed_fund_report_photos&#45;&gt;files -->
<g id="edge15" class="edge">
<title>seed_fund_report_photos:w&#45;&gt;files:e</title>
<path fill="none" stroke="black" d="M305.12,-856.13C293.01,-850.93 291.89,-835.67 281,-821 260.17,-792.93 276.45,-753 241.5,-753"/>
<polygon fill="black" stroke="black" points="315.42,-853.92 314,-861.8 312.43,-861.51 313.85,-853.64 315.42,-853.92"/>
<polyline fill="none" stroke="black" points="315.5,-858 311.56,-857.29 "/>
<ellipse fill="none" stroke="black" cx="308.41" cy="-856.73" rx="3.2" ry="3.2"/>
</g>
<!-- thumbnails -->
<g id="node13" class="node">
<title>thumbnails</title>
<g id="a_node13"><a xlink:href="../../tables/thumbnails.html" xlink:title="thumbnails" target="_top">
<polygon fill="#ffffff" stroke="transparent" points="312,-590 312,-810 515,-810 515,-590 312,-590"/>
<polygon fill="#f5f5f5" stroke="transparent" points="314.5,-786 314.5,-808 513.5,-808 513.5,-786 314.5,-786"/>
<polygon fill="none" stroke="black" points="314.5,-786 314.5,-808 513.5,-808 513.5,-786 314.5,-786"/>
<text text-anchor="start" x="319.5" y="-795.2" font-family="Helvetica,sans-Serif" font-weight="bold" font-size="11.00">thumbnails</text>
<text text-anchor="start" x="474.5" y="-794.2" font-family="Helvetica,sans-Serif" font-size="11.00">[table]</text>
<polygon fill="none" stroke="black" points="314.5,-764 314.5,-786 413.5,-786 413.5,-764 314.5,-764"/>
<image xlink:href="../../images/primaryKeys.png" width="11px" height="12px" preserveAspectRatio="xMinYMin meet" x="319.5" y="-781"/>
<text text-anchor="start" x="334.5" y="-772.2" font-family="Helvetica,sans-Serif" font-size="11.00">id</text>
<polygon fill="none" stroke="black" points="413.5,-764 413.5,-786 513.5,-786 513.5,-764 413.5,-764"/>
<text text-anchor="start" x="416.5" y="-772.2" font-family="Helvetica,sans-Serif" font-size="11.00">int8[19]</text>
<polygon fill="#ffffff" stroke="transparent" points="314.5,-742 314.5,-764 413.5,-764 413.5,-742 314.5,-742"/>
<polygon fill="none" stroke="black" points="314.5,-742 314.5,-764 413.5,-764 413.5,-742 314.5,-742"/>
<image xlink:href="../../images/foreignKeys.png" width="11px" height="12px" preserveAspectRatio="xMinYMin meet" x="319.5" y="-759"/>
<text text-anchor="start" x="334.5" y="-750.2" font-family="Helvetica,sans-Serif" font-size="11.00">file_id</text>
<polygon fill="none" stroke="black" points="413.5,-742 413.5,-764 513.5,-764 513.5,-742 413.5,-742"/>
<text text-anchor="start" x="416.5" y="-750.2" font-family="Helvetica,sans-Serif" font-size="11.00">int8[19]</text>
<polygon fill="#ffffff" stroke="transparent" points="314.5,-720 314.5,-742 413.5,-742 413.5,-720 314.5,-720"/>
<polygon fill="none" stroke="black" points="314.5,-720 314.5,-742 413.5,-742 413.5,-720 314.5,-720"/>
<text text-anchor="start" x="334.5" y="-728.2" font-family="Helvetica,sans-Serif" font-size="11.00">width</text>
<polygon fill="none" stroke="black" points="413.5,-720 413.5,-742 513.5,-742 513.5,-720 413.5,-720"/>
<text text-anchor="start" x="416.5" y="-728.2" font-family="Helvetica,sans-Serif" font-size="11.00">int4[10]</text>
<polygon fill="#ffffff" stroke="transparent" points="314.5,-698 314.5,-720 413.5,-720 413.5,-698 314.5,-698"/>
<polygon fill="none" stroke="black" points="314.5,-698 314.5,-720 413.5,-720 413.5,-698 314.5,-698"/>
<text text-anchor="start" x="334.5" y="-706.2" font-family="Helvetica,sans-Serif" font-size="11.00">height</text>
<polygon fill="none" stroke="black" points="413.5,-698 413.5,-720 513.5,-720 513.5,-698 413.5,-698"/>
<text text-anchor="start" x="416.5" y="-706.2" font-family="Helvetica,sans-Serif" font-size="11.00">int4[10]</text>
<polygon fill="none" stroke="black" points="314.5,-676 314.5,-698 413.5,-698 413.5,-676 314.5,-676"/>
<text text-anchor="start" x="334.5" y="-684.2" font-family="Helvetica,sans-Serif" font-size="11.00">content_type</text>
<polygon fill="none" stroke="black" points="413.5,-676 413.5,-698 513.5,-698 513.5,-676 413.5,-676"/>
<text text-anchor="start" x="416.5" y="-684.2" font-family="Helvetica,sans-Serif" font-size="11.00">text[2147483647]</text>
<polygon fill="none" stroke="black" points="314.5,-654 314.5,-676 413.5,-676 413.5,-654 314.5,-654"/>
<text text-anchor="start" x="334.5" y="-662.2" font-family="Helvetica,sans-Serif" font-size="11.00">created_time</text>
<polygon fill="none" stroke="black" points="413.5,-654 413.5,-676 513.5,-676 513.5,-654 413.5,-654"/>
<text text-anchor="start" x="416.5" y="-662.2" font-family="Helvetica,sans-Serif" font-size="11.00">timestamptz[35,6]</text>
<polygon fill="none" stroke="black" points="314.5,-632 314.5,-654 413.5,-654 413.5,-632 314.5,-632"/>
<text text-anchor="start" x="334.5" y="-640.2" font-family="Helvetica,sans-Serif" font-size="11.00">size</text>
<polygon fill="none" stroke="black" points="413.5,-632 413.5,-654 513.5,-654 513.5,-632 413.5,-632"/>
<text text-anchor="start" x="416.5" y="-640.2" font-family="Helvetica,sans-Serif" font-size="11.00">int4[10]</text>
<polygon fill="#ffffff" stroke="transparent" points="314.5,-610 314.5,-632 413.5,-632 413.5,-610 314.5,-610"/>
<polygon fill="none" stroke="black" points="314.5,-610 314.5,-632 413.5,-632 413.5,-610 314.5,-610"/>
<text text-anchor="start" x="334.5" y="-618.2" font-family="Helvetica,sans-Serif" font-size="11.00">storage_url</text>
<polygon fill="none" stroke="black" points="413.5,-610 413.5,-632 513.5,-632 513.5,-610 413.5,-610"/>
<text text-anchor="start" x="416.5" y="-618.2" font-family="Helvetica,sans-Serif" font-size="11.00">text[2147483647]</text>
<polygon fill="#ffffff" stroke="transparent" points="314.5,-592 314.5,-610 368.5,-610 368.5,-592 314.5,-592"/>
<polygon fill="none" stroke="black" points="314.5,-592 314.5,-610 368.5,-610 368.5,-592 314.5,-592"/>
<text text-anchor="start" x="317.5" y="-598.2" font-family="Helvetica,sans-Serif" font-size="11.00">&lt; 1</text>
<polygon fill="#ffffff" stroke="transparent" points="368.5,-592 368.5,-610 413.5,-610 413.5,-592 368.5,-592"/>
<polygon fill="none" stroke="black" points="368.5,-592 368.5,-610 413.5,-610 413.5,-592 368.5,-592"/>
<text text-anchor="start" x="403.5" y="-598.2" font-family="Helvetica,sans-Serif" font-size="11.00"> &#160;</text>
<polygon fill="#ffffff" stroke="transparent" points="413.5,-592 413.5,-610 513.5,-610 513.5,-592 413.5,-592"/>
<polygon fill="none" stroke="black" points="413.5,-592 413.5,-610 513.5,-610 513.5,-592 413.5,-592"/>
<text text-anchor="start" x="494.5" y="-598.2" font-family="Helvetica,sans-Serif" font-size="11.00">0 &gt;</text>
<polygon fill="none" stroke="black" stroke-width="2" points="313,-591 313,-809 514,-809 514,-591 313,-591"/>
</a>
</g>
</g>
<!-- thumbnails&#45;&gt;files -->
<g id="edge16" class="edge">
<title>thumbnails:w&#45;&gt;files:e</title>
<path fill="none" stroke="black" d="M298.88,-753C278.04,-753 268,-753 241.5,-753"/>
<polygon fill="black" stroke="black" points="305.5,-753 313.5,-756.6 309.5,-753 313.5,-753 313.5,-753 313.5,-753 309.5,-753 313.5,-749.4 305.5,-753 305.5,-753"/>
<ellipse fill="none" stroke="black" cx="302.3" cy="-753" rx="3.2" ry="3.2"/>
</g>
<!-- seedbank.accession_photos -->
<g id="node14" class="node">
<title>seedbank.accession_photos</title>
<g id="a_node14"><a xlink:href="../../../seedbank/tables/accession_photos.html" xlink:title="seedbank.accession_photos" target="_top">
<polygon fill="#ffffff" stroke="transparent" points="309,-511 309,-569 518,-569 518,-511 309,-511"/>
<polygon fill="#f5f5f5" stroke="transparent" points="309.5,-547 309.5,-569 518.5,-569 518.5,-547 309.5,-547"/>
<polygon fill="none" stroke="black" points="309.5,-547 309.5,-569 518.5,-569 518.5,-547 309.5,-547"/>
<text text-anchor="start" x="314.5" y="-556.2" font-family="Helvetica,sans-Serif" font-weight="bold" font-size="11.00">seedbank.accession_photos</text>
<text text-anchor="start" x="479.5" y="-555.2" font-family="Helvetica,sans-Serif" font-size="11.00">[table]</text>
<polygon fill="none" stroke="black" points="309.5,-529 309.5,-547 518.5,-547 518.5,-529 309.5,-529"/>
<text text-anchor="start" x="312.5" y="-535.2" font-family="Helvetica,sans-Serif" font-size="11.00">...</text>
<polygon fill="#ffffff" stroke="transparent" points="309.5,-511 309.5,-529 398.5,-529 398.5,-511 309.5,-511"/>
<polygon fill="none" stroke="black" points="309.5,-511 309.5,-529 398.5,-529 398.5,-511 309.5,-511"/>
<text text-anchor="start" x="312.5" y="-517.2" font-family="Helvetica,sans-Serif" font-size="11.00">&lt; 1</text>
<polygon fill="#ffffff" stroke="transparent" points="398.5,-511 398.5,-529 471.5,-529 471.5,-511 398.5,-511"/>
<polygon fill="none" stroke="black" points="398.5,-511 398.5,-529 471.5,-529 471.5,-511 398.5,-511"/>
<text text-anchor="start" x="434.5" y="-517.2" font-family="Helvetica,sans-Serif" font-size="11.00">0 rows</text>
<polygon fill="#ffffff" stroke="transparent" points="471.5,-511 471.5,-529 518.5,-529 518.5,-511 471.5,-511"/>
<polygon fill="none" stroke="black" points="471.5,-511 471.5,-529 518.5,-529 518.5,-511 471.5,-511"/>
<text text-anchor="start" x="508.5" y="-517.2" font-family="Helvetica,sans-Serif" font-size="11.00"> &#160;</text>
</a>
</g>
</g>
<!-- seedbank.accession_photos&#45;&gt;files -->
<g id="edge17" class="edge">
<title>seedbank.accession_photos:w&#45;&gt;files:e</title>
<path fill="none" stroke="black" d="M294.47,-543.09C287.21,-550.66 287.14,-565.56 281,-580 250.14,-652.58 320.37,-753 241.5,-753"/>
<polygon fill="black" stroke="black" points="300.98,-540.73 309.73,-541.38 304.74,-539.36 308.5,-538 308.5,-538 308.5,-538 304.74,-539.36 307.27,-534.62 300.98,-540.73 300.98,-540.73"/>
<ellipse fill="none" stroke="black" cx="297.97" cy="-541.82" rx="3.2" ry="3.2"/>
</g>
<!-- tracking.observation_photos -->
<g id="node15" class="node">
<title>tracking.observation_photos</title>
<g id="a_node15"><a xlink:href="../../../tracking/tables/observation_photos.html" xlink:title="tracking.observation_photos" target="_top">
<polygon fill="#ffffff" stroke="transparent" points="306,-432 306,-490 521,-490 521,-432 306,-432"/>
<polygon fill="#f5f5f5" stroke="transparent" points="306.5,-468 306.5,-490 521.5,-490 521.5,-468 306.5,-468"/>
<polygon fill="none" stroke="black" points="306.5,-468 306.5,-490 521.5,-490 521.5,-468 306.5,-468"/>
<text text-anchor="start" x="311.5" y="-477.2" font-family="Helvetica,sans-Serif" font-weight="bold" font-size="11.00">tracking.observation_photos</text>
<text text-anchor="start" x="482.5" y="-476.2" font-family="Helvetica,sans-Serif" font-size="11.00">[table]</text>
<polygon fill="none" stroke="black" points="306.5,-450 306.5,-468 521.5,-468 521.5,-450 306.5,-450"/>
<text text-anchor="start" x="309.5" y="-456.2" font-family="Helvetica,sans-Serif" font-size="11.00">...</text>
<polygon fill="#ffffff" stroke="transparent" points="306.5,-432 306.5,-450 398.5,-450 398.5,-432 306.5,-432"/>
<polygon fill="none" stroke="black" points="306.5,-432 306.5,-450 398.5,-450 398.5,-432 306.5,-432"/>
<text text-anchor="start" x="309.5" y="-438.2" font-family="Helvetica,sans-Serif" font-size="11.00">&lt; 1</text>
<polygon fill="#ffffff" stroke="transparent" points="398.5,-432 398.5,-450 473.5,-450 473.5,-432 398.5,-432"/>
<polygon fill="none" stroke="black" points="398.5,-432 398.5,-450 473.5,-450 473.5,-432 398.5,-432"/>
<text text-anchor="start" x="436.5" y="-438.2" font-family="Helvetica,sans-Serif" font-size="11.00">0 rows</text>
<polygon fill="#ffffff" stroke="transparent" points="473.5,-432 473.5,-450 521.5,-450 521.5,-432 473.5,-432"/>
<polygon fill="none" stroke="black" points="473.5,-432 473.5,-450 521.5,-450 521.5,-432 473.5,-432"/>
<text text-anchor="start" x="511.5" y="-438.2" font-family="Helvetica,sans-Serif" font-size="11.00"> &#160;</text>
</a>
</g>
</g>
<!-- tracking.observation_photos&#45;&gt;files -->
<g id="edge18" class="edge">
<title>tracking.observation_photos:w&#45;&gt;files:e</title>
<path fill="none" stroke="black" d="M291.92,-464.35C248.93,-504.2 303.01,-753 241.5,-753"/>
<polygon fill="black" stroke="black" points="298.06,-461.94 306.82,-462.35 301.78,-460.47 305.5,-459 305.5,-459 305.5,-459 301.78,-460.47 304.18,-455.65 298.06,-461.94 298.06,-461.94"/>
<ellipse fill="none" stroke="black" cx="295.08" cy="-463.11" rx="3.2" ry="3.2"/>
</g>
</g>
</svg>
