<?xml version="1.0" encoding="UTF-8" standalone="no"?>
<!DOCTYPE svg PUBLIC "-//W3C//DTD SVG 1.1//EN"
 "http://www.w3.org/Graphics/SVG/1.1/DTD/svg11.dtd">
<!-- Generated by graphviz version 2.38.0 (20140413.2041)
 -->
<!-- Title: oneDegreeRelationshipsDiagram Pages: 1 -->
<svg width="451pt" height="239pt"
 viewBox="0.00 0.00 451.00 239.00" xmlns="http://www.w3.org/2000/svg" xmlns:xlink="http://www.w3.org/1999/xlink">
<g id="graph0" class="graph" transform="scale(1 1) rotate(0) translate(4 235)">
<title>oneDegreeRelationshipsDiagram</title>
<polygon fill="#ffffff" stroke="none" points="-4,4 -4,-235 447,-235 447,4 -4,4"/>
<text text-anchor="middle" x="74.5" y="-7.2" font-family="Helvetica,sans-Serif" font-size="11.00">Generated by SchemaSpy</text>
<!-- users -->
<g id="node1" class="node"><title>users</title>
<g id="a_node1"><a xlink:href="../../tables/users.html" xlink:title="users" target="_top">
<polygon fill="#ffffff" stroke="none" points="247,-37 247,-227 435,-227 435,-37 247,-37"/>
<polygon fill="#f5f5f5" stroke="none" points="247,-205 247,-227 435,-227 435,-205 247,-205"/>
<polygon fill="none" stroke="black" points="247,-205 247,-227 435,-227 435,-205 247,-205"/>
<text text-anchor="start" x="252" y="-214.2" font-family="Helvetica,sans-Serif" font-weight="bold" font-size="11.00">users</text>
<text text-anchor="start" x="396" y="-213.2" font-family="Helvetica,sans-Serif" font-size="11.00">[table]</text>
<polygon fill="none" stroke="black" points="247,-183 247,-205 435,-205 435,-183 247,-183"/>
<image xlink:href="../../images/primaryKeys.png" width="11px" height="12px" preserveAspectRatio="xMinYMin meet" x="252" y="-200"/>
<text text-anchor="start" x="267" y="-191.2" font-family="Helvetica,sans-Serif" font-size="11.00">id</text>
<polygon fill="#ffffff" stroke="none" points="247,-161 247,-183 435,-183 435,-161 247,-161"/>
<polygon fill="none" stroke="black" points="247,-161 247,-183 435,-183 435,-161 247,-161"/>
<text text-anchor="start" x="267" y="-169.2" font-family="Helvetica,sans-Serif" font-size="11.00">auth_id</text>
<polygon fill="#ffffff" stroke="none" points="247,-139 247,-161 435,-161 435,-139 247,-139"/>
<polygon fill="none" stroke="black" points="247,-139 247,-161 435,-161 435,-139 247,-139"/>
<text text-anchor="start" x="267" y="-147.2" font-family="Helvetica,sans-Serif" font-size="11.00">email</text>
<polygon fill="none" stroke="black" points="247,-117 247,-139 435,-139 435,-117 247,-117"/>
<image xlink:href="../../images/foreignKeys.png" width="11px" height="12px" preserveAspectRatio="xMinYMin meet" x="252" y="-134"/>
<text text-anchor="start" x="267" y="-125.2" font-family="Helvetica,sans-Serif" font-size="11.00">user_type_id</text>
<polygon fill="none" stroke="black" points="247,-95 247,-117 435,-117 435,-95 247,-95"/>
<image xlink:href="../../images/foreignKeys.png" width="11px" height="12px" preserveAspectRatio="xMinYMin meet" x="252" y="-112"/>
<text text-anchor="start" x="267" y="-103.2" font-family="Helvetica,sans-Serif" font-size="11.00">time_zone</text>
<polygon fill="none" stroke="black" points="247,-73 247,-95 435,-95 435,-73 247,-73"/>
<image xlink:href="../../images/foreignKeys.png" width="11px" height="12px" preserveAspectRatio="xMinYMin meet" x="252" y="-90"/>
<text text-anchor="start" x="267" y="-81.2" font-family="Helvetica,sans-Serif" font-size="11.00">country_code</text>
<polygon fill="none" stroke="black" points="247,-55 247,-73 435,-73 435,-55 247,-55"/>
<text text-anchor="start" x="250" y="-61.2" font-family="Helvetica,sans-Serif" font-size="11.00">...</text>
<polygon fill="#ffffff" stroke="none" points="247,-37 247,-55 319,-55 319,-37 247,-37"/>
<polygon fill="none" stroke="black" points="247,-37 247,-55 319,-55 319,-37 247,-37"/>
<text text-anchor="start" x="250" y="-43.2" font-family="Helvetica,sans-Serif" font-size="11.00">&lt; 3</text>
<polygon fill="#ffffff" stroke="none" points="319,-37 319,-55 380,-55 380,-37 319,-37"/>
<polygon fill="none" stroke="black" points="319,-37 319,-55 380,-55 380,-37 319,-37"/>
<text text-anchor="start" x="346" y="-43.2" font-family="Helvetica,sans-Serif" font-size="11.00">1 row</text>
<polygon fill="#ffffff" stroke="none" points="380,-37 380,-55 435,-55 435,-37 380,-37"/>
<polygon fill="none" stroke="black" points="380,-37 380,-55 435,-55 435,-37 380,-37"/>
<text text-anchor="start" x="408" y="-43.2" font-family="Helvetica,sans-Serif" font-size="11.00">60 &gt;</text>
</a>
</g>
</g>
<!-- user_types -->
<g id="node2" class="node"><title>user_types</title>
<g id="a_node2"><a xlink:href="../../tables/user_types.html" xlink:title="user_types" target="_top">
<polygon fill="#ffffff" stroke="none" points="8,-75 8,-163 198,-163 198,-75 8,-75"/>
<polygon fill="#f5f5f5" stroke="none" points="10,-139 10,-161 196,-161 196,-139 10,-139"/>
<polygon fill="none" stroke="black" points="10,-139 10,-161 196,-161 196,-139 10,-139"/>
<text text-anchor="start" x="15" y="-148.2" font-family="Helvetica,sans-Serif" font-weight="bold" font-size="11.00">user_types</text>
<text text-anchor="start" x="157" y="-147.2" font-family="Helvetica,sans-Serif" font-size="11.00">[table]</text>
<polygon fill="none" stroke="black" points="10,-117 10,-139 95,-139 95,-117 10,-117"/>
<image xlink:href="../../images/primaryKeys.png" width="11px" height="12px" preserveAspectRatio="xMinYMin meet" x="15" y="-134"/>
<text text-anchor="start" x="30" y="-125.2" font-family="Helvetica,sans-Serif" font-size="11.00">id</text>
<polygon fill="none" stroke="black" points="95,-117 95,-139 196,-139 196,-117 95,-117"/>
<text text-anchor="start" x="98" y="-125.2" font-family="Helvetica,sans-Serif" font-size="11.00">int4[10]</text>
<polygon fill="#ffffff" stroke="none" points="10,-95 10,-117 95,-117 95,-95 10,-95"/>
<polygon fill="none" stroke="black" points="10,-95 10,-117 95,-117 95,-95 10,-95"/>
<text text-anchor="start" x="30" y="-103.2" font-family="Helvetica,sans-Serif" font-size="11.00">name</text>
<polygon fill="none" stroke="black" points="95,-95 95,-117 196,-117 196,-95 95,-95"/>
<text text-anchor="start" x="98" y="-103.2" font-family="Helvetica,sans-Serif" font-size="11.00">text[2147483647]</text>
<polygon fill="#ffffff" stroke="none" points="10,-77 10,-95 43,-95 43,-77 10,-77"/>
<polygon fill="none" stroke="black" points="10,-77 10,-95 43,-95 43,-77 10,-77"/>
<text text-anchor="start" x="13" y="-83.2" font-family="Helvetica,sans-Serif" font-size="11.00">&lt; 0</text>
<polygon fill="#ffffff" stroke="none" points="43,-77 43,-95 95,-95 95,-77 43,-77"/>
<polygon fill="none" stroke="black" points="43,-77 43,-95 95,-95 95,-77 43,-77"/>
<text text-anchor="start" x="56" y="-83.2" font-family="Helvetica,sans-Serif" font-size="11.00">4 rows</text>
<polygon fill="#ffffff" stroke="none" points="95,-77 95,-95 196,-95 196,-77 95,-77"/>
<polygon fill="none" stroke="black" points="95,-77 95,-95 196,-95 196,-77 95,-77"/>
<text text-anchor="start" x="176" y="-83.2" font-family="Helvetica,sans-Serif" font-size="11.00">1 &gt;</text>
<polygon fill="none" stroke="black" stroke-width="2" points="9,-76 9,-162 197,-162 197,-76 9,-76"/>
</a>
</g>
</g>
<!-- users&#45;&gt;user_types -->
<g id="edge1" class="edge"><title>users:user_type_id:w&#45;&gt;user_types:id.type:e</title>
<path fill="none" stroke="black" d="M231.491,-128C220.177,-128 212.993,-128 197,-128"/>
<polygon fill="black" stroke="black" points="238,-128 246,-131.6 242,-128 246,-128 246,-128 246,-128 242,-128 246,-124.4 238,-128 238,-128"/>
<ellipse fill="none" stroke="black" cx="234.8" cy="-128" rx="3.2" ry="3.2"/>
</g>
</g>
</svg>
