<?xml version="1.0" encoding="UTF-8" standalone="no"?>
<!DOCTYPE svg PUBLIC "-//W3C//DTD SVG 1.1//EN"
 "http://www.w3.org/Graphics/SVG/1.1/DTD/svg11.dtd">
<!-- Generated by graphviz version 2.38.0 (20140413.2041)
 -->
<!-- Title: oneDegreeRelationshipsDiagram Pages: 1 -->
<svg width="721pt" height="302pt"
 viewBox="0.00 0.00 721.00 302.00" xmlns="http://www.w3.org/2000/svg" xmlns:xlink="http://www.w3.org/1999/xlink">
<g id="graph0" class="graph" transform="scale(1 1) rotate(0) translate(4 298)">
<title>oneDegreeRelationshipsDiagram</title>
<polygon fill="#ffffff" stroke="none" points="-4,4 -4,-298 717,-298 717,4 -4,4"/>
<text text-anchor="middle" x="74.5" y="-7.2" font-family="Helvetica,sans-Serif" font-size="11.00">Generated by SchemaSpy</text>
<!-- organizations -->
<g id="node1" class="node"><title>organizations</title>
<g id="a_node1"><a xlink:href="../../tables/organizations.html" xlink:title="organizations" target="_top">
<polygon fill="#ffffff" stroke="none" points="245,-81 245,-249 419,-249 419,-81 245,-81"/>
<polygon fill="#f5f5f5" stroke="none" points="245,-227 245,-249 419,-249 419,-227 245,-227"/>
<polygon fill="none" stroke="black" points="245,-227 245,-249 419,-249 419,-227 245,-227"/>
<text text-anchor="start" x="250" y="-236.2" font-family="Helvetica,sans-Serif" font-weight="bold" font-size="11.00">organizations</text>
<text text-anchor="start" x="380" y="-235.2" font-family="Helvetica,sans-Serif" font-size="11.00">[table]</text>
<polygon fill="none" stroke="black" points="245,-205 245,-227 419,-227 419,-205 245,-205"/>
<image xlink:href="../../images/primaryKeys.png" width="11px" height="12px" preserveAspectRatio="xMinYMin meet" x="250" y="-222"/>
<text text-anchor="start" x="265" y="-213.2" font-family="Helvetica,sans-Serif" font-size="11.00">id</text>
<polygon fill="none" stroke="black" points="245,-183 245,-205 419,-205 419,-183 245,-183"/>
<image xlink:href="../../images/foreignKeys.png" width="11px" height="12px" preserveAspectRatio="xMinYMin meet" x="250" y="-200"/>
<text text-anchor="start" x="265" y="-191.2" font-family="Helvetica,sans-Serif" font-size="11.00">country_code</text>
<polygon fill="none" stroke="black" points="245,-161 245,-183 419,-183 419,-161 245,-161"/>
<image xlink:href="../../images/foreignKeys.png" width="11px" height="12px" preserveAspectRatio="xMinYMin meet" x="250" y="-178"/>
<text text-anchor="start" x="265" y="-169.2" font-family="Helvetica,sans-Serif" font-size="11.00">country_subdivision_code</text>
<polygon fill="none" stroke="black" points="245,-139 245,-161 419,-161 419,-139 245,-139"/>
<image xlink:href="../../images/foreignKeys.png" width="11px" height="12px" preserveAspectRatio="xMinYMin meet" x="250" y="-156"/>
<text text-anchor="start" x="265" y="-147.2" font-family="Helvetica,sans-Serif" font-size="11.00">created_by</text>
<polygon fill="none" stroke="black" points="245,-117 245,-139 419,-139 419,-117 245,-117"/>
<image xlink:href="../../images/foreignKeys.png" width="11px" height="12px" preserveAspectRatio="xMinYMin meet" x="250" y="-134"/>
<text text-anchor="start" x="265" y="-125.2" font-family="Helvetica,sans-Serif" font-size="11.00">modified_by</text>
<polygon fill="none" stroke="black" points="245,-99 245,-117 419,-117 419,-99 245,-99"/>
<text text-anchor="start" x="248" y="-105.2" font-family="Helvetica,sans-Serif" font-size="11.00">...</text>
<polygon fill="#ffffff" stroke="none" points="245,-81 245,-99 311,-99 311,-81 245,-81"/>
<polygon fill="none" stroke="black" points="245,-81 245,-99 311,-99 311,-81 245,-81"/>
<text text-anchor="start" x="248" y="-87.2" font-family="Helvetica,sans-Serif" font-size="11.00">&lt; 4</text>
<polygon fill="#ffffff" stroke="none" points="311,-81 311,-99 374,-99 374,-81 311,-81"/>
<polygon fill="none" stroke="black" points="311,-81 311,-99 374,-99 374,-81 311,-81"/>
<text text-anchor="start" x="335" y="-87.2" font-family="Helvetica,sans-Serif" font-size="11.00">0 rows</text>
<polygon fill="#ffffff" stroke="none" points="374,-81 374,-99 419,-99 419,-81 374,-81"/>
<polygon fill="none" stroke="black" points="374,-81 374,-99 419,-99 419,-81 374,-81"/>
<text text-anchor="start" x="399" y="-87.2" font-family="Helvetica,sans-Serif" font-size="11.00">9 &gt;</text>
</a>
</g>
</g>
<!-- users -->
<g id="node2" class="node"><title>users</title>
<g id="a_node2"><a xlink:href="../../tables/users.html" xlink:title="users" target="_top">
<polygon fill="#ffffff" stroke="none" points="8,-37 8,-183 196,-183 196,-37 8,-37"/>
<polygon fill="#f5f5f5" stroke="none" points="8,-161 8,-183 196,-183 196,-161 8,-161"/>
<polygon fill="none" stroke="black" points="8,-161 8,-183 196,-183 196,-161 8,-161"/>
<text text-anchor="start" x="13" y="-170.2" font-family="Helvetica,sans-Serif" font-weight="bold" font-size="11.00">users</text>
<text text-anchor="start" x="157" y="-169.2" font-family="Helvetica,sans-Serif" font-size="11.00">[table]</text>
<polygon fill="none" stroke="black" points="8,-139 8,-161 196,-161 196,-139 8,-139"/>
<image xlink:href="../../images/primaryKeys.png" width="11px" height="12px" preserveAspectRatio="xMinYMin meet" x="13" y="-156"/>
<text text-anchor="start" x="28" y="-147.2" font-family="Helvetica,sans-Serif" font-size="11.00">id</text>
<polygon fill="#ffffff" stroke="none" points="8,-117 8,-139 196,-139 196,-117 8,-117"/>
<polygon fill="none" stroke="black" points="8,-117 8,-139 196,-139 196,-117 8,-117"/>
<text text-anchor="start" x="28" y="-125.2" font-family="Helvetica,sans-Serif" font-size="11.00">auth_id</text>
<polygon fill="#ffffff" stroke="none" points="8,-95 8,-117 196,-117 196,-95 8,-95"/>
<polygon fill="none" stroke="black" points="8,-95 8,-117 196,-117 196,-95 8,-95"/>
<text text-anchor="start" x="28" y="-103.2" font-family="Helvetica,sans-Serif" font-size="11.00">email</text>
<polygon fill="none" stroke="black" points="8,-73 8,-95 196,-95 196,-73 8,-73"/>
<image xlink:href="../../images/foreignKeys.png" width="11px" height="12px" preserveAspectRatio="xMinYMin meet" x="13" y="-90"/>
<text text-anchor="start" x="28" y="-81.2" font-family="Helvetica,sans-Serif" font-size="11.00">user_type_id</text>
<polygon fill="none" stroke="black" points="8,-55 8,-73 196,-73 196,-55 8,-55"/>
<text text-anchor="start" x="11" y="-61.2" font-family="Helvetica,sans-Serif" font-size="11.00">...</text>
<polygon fill="#ffffff" stroke="none" points="8,-37 8,-55 80,-55 80,-37 8,-37"/>
<polygon fill="none" stroke="black" points="8,-37 8,-55 80,-55 80,-37 8,-37"/>
<text text-anchor="start" x="11" y="-43.2" font-family="Helvetica,sans-Serif" font-size="11.00">&lt; 1</text>
<polygon fill="#ffffff" stroke="none" points="80,-37 80,-55 141,-55 141,-37 80,-37"/>
<polygon fill="none" stroke="black" points="80,-37 80,-55 141,-55 141,-37 80,-37"/>
<text text-anchor="start" x="107" y="-43.2" font-family="Helvetica,sans-Serif" font-size="11.00">1 row</text>
<polygon fill="#ffffff" stroke="none" points="141,-37 141,-55 196,-55 196,-37 141,-37"/>
<polygon fill="none" stroke="black" points="141,-37 141,-55 196,-55 196,-37 141,-37"/>
<text text-anchor="start" x="169" y="-43.2" font-family="Helvetica,sans-Serif" font-size="11.00">41 &gt;</text>
</a>
</g>
</g>
<!-- organizations&#45;&gt;users -->
<g id="edge1" class="edge"><title>organizations:created_by:w&#45;&gt;users:id:e</title>
<path fill="none" stroke="black" d="M229.396,-150C218.934,-150 212.014,-150 197,-150"/>
<polygon fill="black" stroke="black" points="236,-150 244,-153.6 240,-150 244,-150 244,-150 244,-150 240,-150 244,-146.4 236,-150 236,-150"/>
<ellipse fill="none" stroke="black" cx="232.8" cy="-150" rx="3.2" ry="3.2"/>
</g>
<!-- organizations&#45;&gt;users -->
<g id="edge2" class="edge"><title>organizations:modified_by:w&#45;&gt;users:id:e</title>
<path fill="none" stroke="black" d="M229.826,-131.633C219.011,-137.881 214.118,-150 197,-150"/>
<polygon fill="black" stroke="black" points="236.25,-129.986 244.894,-131.487 240.125,-128.993 244,-128 244,-128 244,-128 240.125,-128.993 243.106,-124.513 236.25,-129.986 236.25,-129.986"/>
<ellipse fill="none" stroke="black" cx="233.151" cy="-130.781" rx="3.2" ry="3.2"/>
</g>
<!-- user_preferences -->
<g id="node3" class="node"><title>user_preferences</title>
<g id="a_node3"><a xlink:href="../../tables/user_preferences.html" xlink:title="user_preferences" target="_top">
<polygon fill="#ffffff" stroke="none" points="468,-180 468,-290 705,-290 705,-180 468,-180"/>
<polygon fill="#f5f5f5" stroke="none" points="470.5,-266 470.5,-288 703.5,-288 703.5,-266 470.5,-266"/>
<polygon fill="none" stroke="black" points="470.5,-266 470.5,-288 703.5,-288 703.5,-266 470.5,-266"/>
<text text-anchor="start" x="475.5" y="-275.2" font-family="Helvetica,sans-Serif" font-weight="bold" font-size="11.00">user_preferences</text>
<text text-anchor="start" x="664.5" y="-274.2" font-family="Helvetica,sans-Serif" font-size="11.00">[table]</text>
<polygon fill="#ffffff" stroke="none" points="470.5,-244 470.5,-266 593.5,-266 593.5,-244 470.5,-244"/>
<polygon fill="none" stroke="black" points="470.5,-244 470.5,-266 593.5,-266 593.5,-244 470.5,-244"/>
<image xlink:href="../../images/foreignKeys.png" width="11px" height="12px" preserveAspectRatio="xMinYMin meet" x="475.5" y="-261"/>
<text text-anchor="start" x="490.5" y="-252.2" font-family="Helvetica,sans-Serif" font-size="11.00">user_id</text>
<polygon fill="none" stroke="black" points="593.5,-244 593.5,-266 703.5,-266 703.5,-244 593.5,-244"/>
<text text-anchor="start" x="596.5" y="-252.2" font-family="Helvetica,sans-Serif" font-size="11.00">int8[19]</text>
<polygon fill="#ffffff" stroke="none" points="470.5,-222 470.5,-244 593.5,-244 593.5,-222 470.5,-222"/>
<polygon fill="none" stroke="black" points="470.5,-222 470.5,-244 593.5,-244 593.5,-222 470.5,-222"/>
<image xlink:href="../../images/foreignKeys.png" width="11px" height="12px" preserveAspectRatio="xMinYMin meet" x="475.5" y="-239"/>
<text text-anchor="start" x="490.5" y="-230.2" font-family="Helvetica,sans-Serif" font-size="11.00">organization_id</text>
<polygon fill="none" stroke="black" points="593.5,-222 593.5,-244 703.5,-244 703.5,-222 593.5,-222"/>
<text text-anchor="start" x="596.5" y="-230.2" font-family="Helvetica,sans-Serif" font-size="11.00">int8[19]</text>
<polygon fill="none" stroke="black" points="470.5,-200 470.5,-222 593.5,-222 593.5,-200 470.5,-200"/>
<text text-anchor="start" x="490.5" y="-208.2" font-family="Helvetica,sans-Serif" font-size="11.00">preferences</text>
<polygon fill="none" stroke="black" points="593.5,-200 593.5,-222 703.5,-222 703.5,-200 593.5,-200"/>
<text text-anchor="start" x="596.5" y="-208.2" font-family="Helvetica,sans-Serif" font-size="11.00">jsonb[2147483647]</text>
<polygon fill="#ffffff" stroke="none" points="470.5,-182 470.5,-200 522.5,-200 522.5,-182 470.5,-182"/>
<polygon fill="none" stroke="black" points="470.5,-182 470.5,-200 522.5,-200 522.5,-182 470.5,-182"/>
<text text-anchor="start" x="473.5" y="-188.2" font-family="Helvetica,sans-Serif" font-size="11.00">&lt; 2</text>
<polygon fill="#ffffff" stroke="none" points="522.5,-182 522.5,-200 593.5,-200 593.5,-182 522.5,-182"/>
<polygon fill="none" stroke="black" points="522.5,-182 522.5,-200 593.5,-200 593.5,-182 522.5,-182"/>
<text text-anchor="start" x="554.5" y="-188.2" font-family="Helvetica,sans-Serif" font-size="11.00">0 rows</text>
<polygon fill="#ffffff" stroke="none" points="593.5,-182 593.5,-200 703.5,-200 703.5,-182 593.5,-182"/>
<polygon fill="none" stroke="black" points="593.5,-182 593.5,-200 703.5,-200 703.5,-182 593.5,-182"/>
<text text-anchor="start" x="683.5" y="-188.2" font-family="Helvetica,sans-Serif" font-size="11.00">0 &gt;</text>
<polygon fill="none" stroke="black" stroke-width="2" points="469,-181 469,-289 704,-289 704,-181 469,-181"/>
</a>
</g>
</g>
<!-- user_preferences&#45;&gt;organizations -->
<g id="edge3" class="edge"><title>user_preferences:organization_id:w&#45;&gt;organizations:id:e</title>
<path fill="none" stroke="black" d="M455.223,-230.344C443.482,-225.562 437.446,-216 420,-216"/>
<polygon fill="black" stroke="black" points="461.635,-231.537 468.841,-236.539 465.567,-232.268 469.5,-233 469.5,-233 469.5,-233 465.567,-232.268 470.159,-229.461 461.635,-231.537 461.635,-231.537"/>
<ellipse fill="none" stroke="black" cx="458.489" cy="-230.951" rx="3.2" ry="3.2"/>
</g>
<!-- user_preferences&#45;&gt;users -->
<g id="edge4" class="edge"><title>user_preferences:user_id:w&#45;&gt;users:id:e</title>
<path fill="none" stroke="black" d="M458.8,-255.488C447.821,-256.568 441.833,-259.13 427,-260 342.7,-264.942 306.166,-308.446 237,-260 194.391,-230.156 249.021,-150 197,-150"/>
<polygon fill="black" stroke="black" points="468.518,-251.041 468.883,-259.032 467.285,-259.105 466.92,-251.114 468.518,-251.041"/>
<polyline fill="none" stroke="black" points="469.5,-255 465.504,-255.182 "/>
<ellipse fill="none" stroke="black" cx="462.307" cy="-255.328" rx="3.2" ry="3.2"/>
</g>
</g>
</svg>
