<?xml version="1.0" encoding="UTF-8" standalone="no"?>
<!DOCTYPE svg PUBLIC "-//W3C//DTD SVG 1.1//EN"
 "http://www.w3.org/Graphics/SVG/1.1/DTD/svg11.dtd">
<!-- Generated by graphviz version 2.38.0 (20140413.2041)
 -->
<!-- Title: twoDegreesRelationshipsDiagram Pages: 1 -->
<svg width="816pt" height="469pt"
 viewBox="0.00 0.00 816.00 469.00" xmlns="http://www.w3.org/2000/svg" xmlns:xlink="http://www.w3.org/1999/xlink">
<g id="graph0" class="graph" transform="scale(1 1) rotate(0) translate(4 465)">
<title>twoDegreesRelationshipsDiagram</title>
<polygon fill="#ffffff" stroke="none" points="-4,4 -4,-465 812,-465 812,4 -4,4"/>
<text text-anchor="middle" x="74.5" y="-7.2" font-family="Helvetica,sans-Serif" font-size="11.00">Generated by SchemaSpy</text>
<!-- batch_quantity_history -->
<g id="node1" class="node"><title>batch_quantity_history</title>
<g id="a_node1"><a xlink:href="../../tables/batch_quantity_history.html" xlink:title="batch_quantity_history" target="_top">
<polygon fill="#ffffff" stroke="none" points="573,-202 573,-260 754,-260 754,-202 573,-202"/>
<polygon fill="#f5f5f5" stroke="none" points="573.5,-238 573.5,-260 754.5,-260 754.5,-238 573.5,-238"/>
<polygon fill="none" stroke="black" points="573.5,-238 573.5,-260 754.5,-260 754.5,-238 573.5,-238"/>
<text text-anchor="start" x="578.5" y="-247.2" font-family="Helvetica,sans-Serif" font-weight="bold" font-size="11.00">batch_quantity_history</text>
<text text-anchor="start" x="715.5" y="-246.2" font-family="Helvetica,sans-Serif" font-size="11.00">[table]</text>
<polygon fill="none" stroke="black" points="573.5,-220 573.5,-238 754.5,-238 754.5,-220 573.5,-220"/>
<text text-anchor="start" x="576.5" y="-226.2" font-family="Helvetica,sans-Serif" font-size="11.00">...</text>
<polygon fill="#ffffff" stroke="none" points="573.5,-202 573.5,-220 647.5,-220 647.5,-202 573.5,-202"/>
<polygon fill="none" stroke="black" points="573.5,-202 573.5,-220 647.5,-220 647.5,-202 573.5,-202"/>
<text text-anchor="start" x="576.5" y="-208.2" font-family="Helvetica,sans-Serif" font-size="11.00">&lt; 3</text>
<polygon fill="#ffffff" stroke="none" points="647.5,-202 647.5,-220 715.5,-220 715.5,-202 647.5,-202"/>
<polygon fill="none" stroke="black" points="647.5,-202 647.5,-220 715.5,-220 715.5,-202 647.5,-202"/>
<text text-anchor="start" x="676.5" y="-208.2" font-family="Helvetica,sans-Serif" font-size="11.00">0 rows</text>
<polygon fill="#ffffff" stroke="none" points="715.5,-202 715.5,-220 754.5,-220 754.5,-202 715.5,-202"/>
<polygon fill="none" stroke="black" points="715.5,-202 715.5,-220 754.5,-220 754.5,-202 715.5,-202"/>
<text text-anchor="start" x="744.5" y="-208.2" font-family="Helvetica,sans-Serif" font-size="11.00"> &#160;</text>
</a>
</g>
</g>
<!-- batches -->
<g id="node2" class="node"><title>batches</title>
<g id="a_node2"><a xlink:href="../../tables/batches.html" xlink:title="batches" target="_top">
<polygon fill="#ffffff" stroke="none" points="228,-204 228,-372 478,-372 478,-204 228,-204"/>
<polygon fill="#f5f5f5" stroke="none" points="228,-350 228,-372 478,-372 478,-350 228,-350"/>
<polygon fill="none" stroke="black" points="228,-350 228,-372 478,-372 478,-350 228,-350"/>
<text text-anchor="start" x="233" y="-359.2" font-family="Helvetica,sans-Serif" font-weight="bold" font-size="11.00">batches</text>
<text text-anchor="start" x="439" y="-358.2" font-family="Helvetica,sans-Serif" font-size="11.00">[table]</text>
<polygon fill="none" stroke="black" points="228,-328 228,-350 478,-350 478,-328 228,-328"/>
<image xlink:href="../../images/primaryKeys.png" width="11px" height="12px" preserveAspectRatio="xMinYMin meet" x="233" y="-345"/>
<text text-anchor="start" x="248" y="-336.2" font-family="Helvetica,sans-Serif" font-size="11.00">id</text>
<polygon fill="#ffffff" stroke="none" points="228,-306 228,-328 478,-328 478,-306 228,-306"/>
<polygon fill="none" stroke="black" points="228,-306 228,-328 478,-328 478,-306 228,-306"/>
<text text-anchor="start" x="248" y="-314.2" font-family="Helvetica,sans-Serif" font-size="11.00">organization_id</text>
<polygon fill="#ffffff" stroke="none" points="228,-284 228,-306 478,-306 478,-284 228,-284"/>
<polygon fill="none" stroke="black" points="228,-284 228,-306 478,-306 478,-284 228,-284"/>
<text text-anchor="start" x="248" y="-292.2" font-family="Helvetica,sans-Serif" font-size="11.00">species_id</text>
<polygon fill="#ffffff" stroke="none" points="228,-262 228,-284 478,-284 478,-262 228,-262"/>
<polygon fill="none" stroke="black" points="228,-262 228,-284 478,-284 478,-262 228,-262"/>
<text text-anchor="start" x="248" y="-270.2" font-family="Helvetica,sans-Serif" font-size="11.00">batch_number</text>
<polygon fill="#ffffff" stroke="none" points="228,-240 228,-262 478,-262 478,-240 228,-240"/>
<polygon fill="none" stroke="black" points="228,-240 228,-262 478,-262 478,-240 228,-240"/>
<text text-anchor="start" x="248" y="-248.2" font-family="Helvetica,sans-Serif" font-size="11.00">project_id</text>
<polygon fill="none" stroke="black" points="228,-222 228,-240 478,-240 478,-222 228,-222"/>
<text text-anchor="start" x="231" y="-228.2" font-family="Helvetica,sans-Serif" font-size="11.00">...</text>
<polygon fill="#ffffff" stroke="none" points="228,-204 228,-222 327,-222 327,-204 228,-204"/>
<polygon fill="none" stroke="black" points="228,-204 228,-222 327,-222 327,-204 228,-204"/>
<text text-anchor="start" x="231" y="-210.2" font-family="Helvetica,sans-Serif" font-size="11.00"> &#160;</text>
<polygon fill="#ffffff" stroke="none" points="327,-204 327,-222 412,-222 412,-204 327,-204"/>
<polygon fill="none" stroke="black" points="327,-204 327,-222 412,-222 412,-204 327,-204"/>
<text text-anchor="start" x="373" y="-210.2" font-family="Helvetica,sans-Serif" font-size="11.00">0 rows</text>
<polygon fill="#ffffff" stroke="none" points="412,-204 412,-222 478,-222 478,-204 412,-204"/>
<polygon fill="none" stroke="black" points="412,-204 412,-222 478,-222 478,-204 412,-204"/>
<text text-anchor="start" x="458" y="-210.2" font-family="Helvetica,sans-Serif" font-size="11.00">3 &gt;</text>
</a>
</g>
</g>
<!-- batch_quantity_history&#45;&gt;batches -->
<g id="edge1" class="edge"><title>batch_quantity_history:elipses:w&#45;&gt;batches:id:e</title>
<path fill="none" stroke="black" d="M558.043,-230.926C540.425,-236.34 535.167,-252.51 519,-271 495.92,-297.396 514.063,-339 479,-339"/>
<polygon fill="black" stroke="black" points="564.57,-230.056 572.975,-232.568 568.535,-229.528 572.5,-229 572.5,-229 572.5,-229 568.535,-229.528 572.025,-225.432 564.57,-230.056 564.57,-230.056"/>
<ellipse fill="none" stroke="black" cx="561.398" cy="-230.479" rx="3.2" ry="3.2"/>
</g>
<!-- withdrawals -->
<g id="node3" class="node"><title>withdrawals</title>
<g id="a_node3"><a xlink:href="../../tables/withdrawals.html" xlink:title="withdrawals" target="_top">
<polygon fill="#ffffff" stroke="none" points="277,-37 277,-183 429,-183 429,-37 277,-37"/>
<polygon fill="#f5f5f5" stroke="none" points="277,-161 277,-183 429,-183 429,-161 277,-161"/>
<polygon fill="none" stroke="black" points="277,-161 277,-183 429,-183 429,-161 277,-161"/>
<text text-anchor="start" x="282" y="-170.2" font-family="Helvetica,sans-Serif" font-weight="bold" font-size="11.00">withdrawals</text>
<text text-anchor="start" x="390" y="-169.2" font-family="Helvetica,sans-Serif" font-size="11.00">[table]</text>
<polygon fill="none" stroke="black" points="277,-139 277,-161 429,-161 429,-139 277,-139"/>
<image xlink:href="../../images/primaryKeys.png" width="11px" height="12px" preserveAspectRatio="xMinYMin meet" x="282" y="-156"/>
<text text-anchor="start" x="297" y="-147.2" font-family="Helvetica,sans-Serif" font-size="11.00">id</text>
<polygon fill="#ffffff" stroke="none" points="277,-117 277,-139 429,-139 429,-117 277,-117"/>
<polygon fill="none" stroke="black" points="277,-117 277,-139 429,-139 429,-117 277,-117"/>
<text text-anchor="start" x="297" y="-125.2" font-family="Helvetica,sans-Serif" font-size="11.00">facility_id</text>
<polygon fill="none" stroke="black" points="277,-95 277,-117 429,-117 429,-95 277,-95"/>
<image xlink:href="../../images/foreignKeys.png" width="11px" height="12px" preserveAspectRatio="xMinYMin meet" x="282" y="-112"/>
<text text-anchor="start" x="297" y="-103.2" font-family="Helvetica,sans-Serif" font-size="11.00">purpose_id</text>
<polygon fill="#ffffff" stroke="none" points="277,-73 277,-95 429,-95 429,-73 277,-73"/>
<polygon fill="none" stroke="black" points="277,-73 277,-95 429,-95 429,-73 277,-73"/>
<text text-anchor="start" x="297" y="-81.2" font-family="Helvetica,sans-Serif" font-size="11.00">destination_facility_id</text>
<polygon fill="none" stroke="black" points="277,-55 277,-73 429,-73 429,-55 277,-55"/>
<text text-anchor="start" x="280" y="-61.2" font-family="Helvetica,sans-Serif" font-size="11.00">...</text>
<polygon fill="#ffffff" stroke="none" points="277,-37 277,-55 332,-55 332,-37 277,-37"/>
<polygon fill="none" stroke="black" points="277,-37 277,-55 332,-55 332,-37 277,-37"/>
<text text-anchor="start" x="280" y="-43.2" font-family="Helvetica,sans-Serif" font-size="11.00">&lt; 1</text>
<polygon fill="#ffffff" stroke="none" points="332,-37 332,-55 390,-55 390,-37 332,-37"/>
<polygon fill="none" stroke="black" points="332,-37 332,-55 390,-55 390,-37 332,-37"/>
<text text-anchor="start" x="351" y="-43.2" font-family="Helvetica,sans-Serif" font-size="11.00">0 rows</text>
<polygon fill="#ffffff" stroke="none" points="390,-37 390,-55 429,-55 429,-37 390,-37"/>
<polygon fill="none" stroke="black" points="390,-37 390,-55 429,-55 429,-37 390,-37"/>
<text text-anchor="start" x="409" y="-43.2" font-family="Helvetica,sans-Serif" font-size="11.00">4 &gt;</text>
</a>
</g>
</g>
<!-- batch_quantity_history&#45;&gt;withdrawals -->
<g id="edge2" class="edge"><title>batch_quantity_history:elipses:w&#45;&gt;withdrawals:id:e</title>
<path fill="none" stroke="black" d="M557.915,-227.822C500.032,-217.995 497.182,-150 430,-150"/>
<polygon fill="black" stroke="black" points="564.526,-228.356 572.21,-232.588 568.513,-228.678 572.5,-229 572.5,-229 572.5,-229 568.513,-228.678 572.79,-225.412 564.526,-228.356 564.526,-228.356"/>
<ellipse fill="none" stroke="black" cx="561.336" cy="-228.098" rx="3.2" ry="3.2"/>
</g>
<!-- withdrawal_purposes -->
<g id="node6" class="node"><title>withdrawal_purposes</title>
<g id="a_node6"><a xlink:href="../../tables/withdrawal_purposes.html" xlink:title="withdrawal_purposes" target="_top">
<polygon fill="#ffffff" stroke="none" points="8,-79 8,-137 179,-137 179,-79 8,-79"/>
<polygon fill="#f5f5f5" stroke="none" points="8.5,-115 8.5,-137 179.5,-137 179.5,-115 8.5,-115"/>
<polygon fill="none" stroke="black" points="8.5,-115 8.5,-137 179.5,-137 179.5,-115 8.5,-115"/>
<text text-anchor="start" x="13.5" y="-124.2" font-family="Helvetica,sans-Serif" font-weight="bold" font-size="11.00">withdrawal_purposes</text>
<text text-anchor="start" x="140.5" y="-123.2" font-family="Helvetica,sans-Serif" font-size="11.00">[table]</text>
<polygon fill="none" stroke="black" points="8.5,-97 8.5,-115 179.5,-115 179.5,-97 8.5,-97"/>
<text text-anchor="start" x="11.5" y="-103.2" font-family="Helvetica,sans-Serif" font-size="11.00">...</text>
<polygon fill="#ffffff" stroke="none" points="8.5,-79 8.5,-97 67.5,-97 67.5,-79 8.5,-79"/>
<polygon fill="none" stroke="black" points="8.5,-79 8.5,-97 67.5,-97 67.5,-79 8.5,-79"/>
<text text-anchor="start" x="11.5" y="-85.2" font-family="Helvetica,sans-Serif" font-size="11.00"> &#160;</text>
<polygon fill="#ffffff" stroke="none" points="67.5,-79 67.5,-97 132.5,-97 132.5,-79 67.5,-79"/>
<polygon fill="none" stroke="black" points="67.5,-79 67.5,-97 132.5,-97 132.5,-79 67.5,-79"/>
<text text-anchor="start" x="93.5" y="-85.2" font-family="Helvetica,sans-Serif" font-size="11.00">4 rows</text>
<polygon fill="#ffffff" stroke="none" points="132.5,-79 132.5,-97 179.5,-97 179.5,-79 132.5,-79"/>
<polygon fill="none" stroke="black" points="132.5,-79 132.5,-97 179.5,-97 179.5,-79 132.5,-79"/>
<text text-anchor="start" x="159.5" y="-85.2" font-family="Helvetica,sans-Serif" font-size="11.00">1 &gt;</text>
</a>
</g>
</g>
<!-- withdrawals&#45;&gt;withdrawal_purposes -->
<g id="edge7" class="edge"><title>withdrawals:purpose_id:w&#45;&gt;withdrawal_purposes:elipses:e</title>
<path fill="none" stroke="black" d="M261.451,-106C230.405,-106 217.639,-106 180.5,-106"/>
<polygon fill="black" stroke="black" points="268,-106 276,-109.6 272,-106 276,-106 276,-106 276,-106 272,-106 276,-102.4 268,-106 268,-106"/>
<ellipse fill="none" stroke="black" cx="264.8" cy="-106" rx="3.2" ry="3.2"/>
</g>
<!-- batch_withdrawals -->
<g id="node4" class="node"><title>batch_withdrawals</title>
<g id="a_node4"><a xlink:href="../../tables/batch_withdrawals.html" xlink:title="batch_withdrawals" target="_top">
<polygon fill="#ffffff" stroke="none" points="527,-281 527,-457 800,-457 800,-281 527,-281"/>
<polygon fill="#f5f5f5" stroke="none" points="529.5,-433 529.5,-455 798.5,-455 798.5,-433 529.5,-433"/>
<polygon fill="none" stroke="black" points="529.5,-433 529.5,-455 798.5,-455 798.5,-433 529.5,-433"/>
<text text-anchor="start" x="534.5" y="-442.2" font-family="Helvetica,sans-Serif" font-weight="bold" font-size="11.00">batch_withdrawals</text>
<text text-anchor="start" x="759.5" y="-441.2" font-family="Helvetica,sans-Serif" font-size="11.00">[table]</text>
<polygon fill="none" stroke="black" points="529.5,-411 529.5,-433 750.5,-433 750.5,-411 529.5,-411"/>
<image xlink:href="../../images/primaryKeys.png" width="11px" height="12px" preserveAspectRatio="xMinYMin meet" x="534.5" y="-428"/>
<text text-anchor="start" x="549.5" y="-419.2" font-family="Helvetica,sans-Serif" font-size="11.00">batch_id</text>
<polygon fill="none" stroke="black" points="750.5,-411 750.5,-433 798.5,-433 798.5,-411 750.5,-411"/>
<text text-anchor="start" x="753.5" y="-419.2" font-family="Helvetica,sans-Serif" font-size="11.00">int8[19]</text>
<polygon fill="none" stroke="black" points="529.5,-389 529.5,-411 750.5,-411 750.5,-389 529.5,-389"/>
<image xlink:href="../../images/primaryKeys.png" width="11px" height="12px" preserveAspectRatio="xMinYMin meet" x="534.5" y="-406"/>
<text text-anchor="start" x="549.5" y="-397.2" font-family="Helvetica,sans-Serif" font-size="11.00">withdrawal_id</text>
<polygon fill="none" stroke="black" points="750.5,-389 750.5,-411 798.5,-411 798.5,-389 750.5,-389"/>
<text text-anchor="start" x="753.5" y="-397.2" font-family="Helvetica,sans-Serif" font-size="11.00">int8[19]</text>
<polygon fill="none" stroke="black" points="529.5,-367 529.5,-389 750.5,-389 750.5,-367 529.5,-367"/>
<text text-anchor="start" x="549.5" y="-375.2" font-family="Helvetica,sans-Serif" font-size="11.00">germinating_quantity_withdrawn</text>
<polygon fill="none" stroke="black" points="750.5,-367 750.5,-389 798.5,-389 798.5,-367 750.5,-367"/>
<text text-anchor="start" x="753.5" y="-375.2" font-family="Helvetica,sans-Serif" font-size="11.00">int4[10]</text>
<polygon fill="none" stroke="black" points="529.5,-345 529.5,-367 750.5,-367 750.5,-345 529.5,-345"/>
<text text-anchor="start" x="549.5" y="-353.2" font-family="Helvetica,sans-Serif" font-size="11.00">not_ready_quantity_withdrawn</text>
<polygon fill="none" stroke="black" points="750.5,-345 750.5,-367 798.5,-367 798.5,-345 750.5,-345"/>
<text text-anchor="start" x="753.5" y="-353.2" font-family="Helvetica,sans-Serif" font-size="11.00">int4[10]</text>
<polygon fill="none" stroke="black" points="529.5,-323 529.5,-345 750.5,-345 750.5,-323 529.5,-323"/>
<text text-anchor="start" x="549.5" y="-331.2" font-family="Helvetica,sans-Serif" font-size="11.00">ready_quantity_withdrawn</text>
<polygon fill="none" stroke="black" points="750.5,-323 750.5,-345 798.5,-345 798.5,-323 750.5,-323"/>
<text text-anchor="start" x="753.5" y="-331.2" font-family="Helvetica,sans-Serif" font-size="11.00">int4[10]</text>
<polygon fill="#ffffff" stroke="none" points="529.5,-301 529.5,-323 750.5,-323 750.5,-301 529.5,-301"/>
<polygon fill="none" stroke="black" points="529.5,-301 529.5,-323 750.5,-323 750.5,-301 529.5,-301"/>
<image xlink:href="../../images/foreignKeys.png" width="11px" height="12px" preserveAspectRatio="xMinYMin meet" x="534.5" y="-318"/>
<text text-anchor="start" x="549.5" y="-309.2" font-family="Helvetica,sans-Serif" font-size="11.00">destination_batch_id</text>
<polygon fill="none" stroke="black" points="750.5,-301 750.5,-323 798.5,-323 798.5,-301 750.5,-301"/>
<text text-anchor="start" x="753.5" y="-309.2" font-family="Helvetica,sans-Serif" font-size="11.00">int8[19]</text>
<polygon fill="#ffffff" stroke="none" points="529.5,-283 529.5,-301 630.5,-301 630.5,-283 529.5,-283"/>
<polygon fill="none" stroke="black" points="529.5,-283 529.5,-301 630.5,-301 630.5,-283 529.5,-283"/>
<text text-anchor="start" x="532.5" y="-289.2" font-family="Helvetica,sans-Serif" font-size="11.00">&lt; 3</text>
<polygon fill="#ffffff" stroke="none" points="630.5,-283 630.5,-301 750.5,-301 750.5,-283 630.5,-283"/>
<polygon fill="none" stroke="black" points="630.5,-283 630.5,-301 750.5,-301 750.5,-283 630.5,-283"/>
<text text-anchor="start" x="711.5" y="-289.2" font-family="Helvetica,sans-Serif" font-size="11.00">0 rows</text>
<polygon fill="#ffffff" stroke="none" points="750.5,-283 750.5,-301 798.5,-301 798.5,-283 750.5,-283"/>
<polygon fill="none" stroke="black" points="750.5,-283 750.5,-301 798.5,-301 798.5,-283 750.5,-283"/>
<text text-anchor="start" x="778.5" y="-289.2" font-family="Helvetica,sans-Serif" font-size="11.00">0 &gt;</text>
<polygon fill="none" stroke="black" stroke-width="2" points="528,-282 528,-456 799,-456 799,-282 528,-282"/>
</a>
</g>
</g>
<!-- batch_withdrawals&#45;&gt;batches -->
<g id="edge3" class="edge"><title>batch_withdrawals:batch_id:w&#45;&gt;batches:id:e</title>
<path fill="none" stroke="black" d="M514.646,-417.538C494.218,-400.298 515.911,-339 479,-339"/>
<polygon fill="black" stroke="black" points="520.885,-419.547 527.396,-425.427 524.693,-420.774 528.5,-422 528.5,-422 528.5,-422 524.693,-420.774 529.604,-418.573 520.885,-419.547 520.885,-419.547"/>
<ellipse fill="none" stroke="black" cx="517.839" cy="-418.566" rx="3.20001" ry="3.20001"/>
</g>
<!-- batch_withdrawals&#45;&gt;batches -->
<g id="edge4" class="edge"><title>batch_withdrawals:destination_batch_id:w&#45;&gt;batches:id:e</title>
<path fill="none" stroke="black" d="M514.45,-315.754C502.32,-323.173 498.187,-339 479,-339"/>
<polygon fill="black" stroke="black" points="520.771,-314.065 529.429,-315.478 524.636,-313.033 528.5,-312 528.5,-312 528.5,-312 524.636,-313.033 527.571,-308.522 520.771,-314.065 520.771,-314.065"/>
<ellipse fill="none" stroke="black" cx="517.68" cy="-314.891" rx="3.2" ry="3.2"/>
</g>
<!-- batch_withdrawals&#45;&gt;withdrawals -->
<g id="edge5" class="edge"><title>batch_withdrawals:withdrawal_id:w&#45;&gt;withdrawals:id:e</title>
<path fill="none" stroke="black" d="M513.993,-398.732C446.243,-385.336 532.31,-268.836 486,-194 469.344,-167.084 461.652,-150 430,-150"/>
<polygon fill="black" stroke="black" points="520.53,-399.303 528.186,-403.586 524.515,-399.652 528.5,-400 528.5,-400 528.5,-400 524.515,-399.652 528.814,-396.414 520.53,-399.303 520.53,-399.303"/>
<ellipse fill="none" stroke="black" cx="517.343" cy="-399.025" rx="3.2" ry="3.2"/>
</g>
<!-- withdrawal_photos -->
<g id="node5" class="node"><title>withdrawal_photos</title>
<g id="a_node5"><a xlink:href="../../tables/withdrawal_photos.html" xlink:title="withdrawal_photos" target="_top">
<polygon fill="#ffffff" stroke="none" points="584.5,-123 584.5,-181 742.5,-181 742.5,-123 584.5,-123"/>
<polygon fill="#f5f5f5" stroke="none" points="584.5,-159 584.5,-181 742.5,-181 742.5,-159 584.5,-159"/>
<polygon fill="none" stroke="black" points="584.5,-159 584.5,-181 742.5,-181 742.5,-159 584.5,-159"/>
<text text-anchor="start" x="589.5" y="-168.2" font-family="Helvetica,sans-Serif" font-weight="bold" font-size="11.00">withdrawal_photos</text>
<text text-anchor="start" x="703.5" y="-167.2" font-family="Helvetica,sans-Serif" font-size="11.00">[table]</text>
<polygon fill="none" stroke="black" points="584.5,-141 584.5,-159 742.5,-159 742.5,-141 584.5,-141"/>
<text text-anchor="start" x="587.5" y="-147.2" font-family="Helvetica,sans-Serif" font-size="11.00">...</text>
<polygon fill="#ffffff" stroke="none" points="584.5,-123 584.5,-141 647.5,-141 647.5,-123 584.5,-123"/>
<polygon fill="none" stroke="black" points="584.5,-123 584.5,-141 647.5,-141 647.5,-123 584.5,-123"/>
<text text-anchor="start" x="587.5" y="-129.2" font-family="Helvetica,sans-Serif" font-size="11.00">&lt; 2</text>
<polygon fill="#ffffff" stroke="none" points="647.5,-123 647.5,-141 709.5,-141 709.5,-123 647.5,-123"/>
<polygon fill="none" stroke="black" points="647.5,-123 647.5,-141 709.5,-141 709.5,-123 647.5,-123"/>
<text text-anchor="start" x="670.5" y="-129.2" font-family="Helvetica,sans-Serif" font-size="11.00">0 rows</text>
<polygon fill="#ffffff" stroke="none" points="709.5,-123 709.5,-141 742.5,-141 742.5,-123 709.5,-123"/>
<polygon fill="none" stroke="black" points="709.5,-123 709.5,-141 742.5,-141 742.5,-123 709.5,-123"/>
<text text-anchor="start" x="732.5" y="-129.2" font-family="Helvetica,sans-Serif" font-size="11.00"> &#160;</text>
</a>
</g>
</g>
<!-- withdrawal_photos&#45;&gt;withdrawals -->
<g id="edge6" class="edge"><title>withdrawal_photos:elipses:w&#45;&gt;withdrawals:id:e</title>
<path fill="none" stroke="black" d="M568.756,-150C512.383,-150 493.026,-150 430,-150"/>
<polygon fill="black" stroke="black" points="575.5,-150 583.5,-153.6 579.5,-150 583.5,-150 583.5,-150 583.5,-150 579.5,-150 583.5,-146.4 575.5,-150 575.5,-150"/>
<ellipse fill="none" stroke="black" cx="572.3" cy="-150" rx="3.2" ry="3.2"/>
</g>
<!-- tracking.deliveries -->
<g id="node7" class="node"><title>tracking.deliveries</title>
<g id="a_node7"><a xlink:href="../../../tracking/tables/deliveries.html" xlink:title="tracking.deliveries" target="_top">
<polygon fill="#ffffff" stroke="none" points="586,-44 586,-102 741,-102 741,-44 586,-44"/>
<polygon fill="#f5f5f5" stroke="none" points="586.5,-80 586.5,-102 741.5,-102 741.5,-80 586.5,-80"/>
<polygon fill="none" stroke="black" points="586.5,-80 586.5,-102 741.5,-102 741.5,-80 586.5,-80"/>
<text text-anchor="start" x="591.5" y="-89.2" font-family="Helvetica,sans-Serif" font-weight="bold" font-size="11.00">tracking.deliveries</text>
<text text-anchor="start" x="702.5" y="-88.2" font-family="Helvetica,sans-Serif" font-size="11.00">[table]</text>
<polygon fill="none" stroke="black" points="586.5,-62 586.5,-80 741.5,-80 741.5,-62 586.5,-62"/>
<text text-anchor="start" x="589.5" y="-68.2" font-family="Helvetica,sans-Serif" font-size="11.00">...</text>
<polygon fill="#ffffff" stroke="none" points="586.5,-44 586.5,-62 647.5,-62 647.5,-44 586.5,-44"/>
<polygon fill="none" stroke="black" points="586.5,-44 586.5,-62 647.5,-62 647.5,-44 586.5,-44"/>
<text text-anchor="start" x="589.5" y="-50.2" font-family="Helvetica,sans-Serif" font-size="11.00">&lt; 1</text>
<polygon fill="#ffffff" stroke="none" points="647.5,-44 647.5,-62 708.5,-62 708.5,-44 647.5,-44"/>
<polygon fill="none" stroke="black" points="647.5,-44 647.5,-62 708.5,-62 708.5,-44 647.5,-44"/>
<text text-anchor="start" x="669.5" y="-50.2" font-family="Helvetica,sans-Serif" font-size="11.00">0 rows</text>
<polygon fill="#ffffff" stroke="none" points="708.5,-44 708.5,-62 741.5,-62 741.5,-44 708.5,-44"/>
<polygon fill="none" stroke="black" points="708.5,-44 708.5,-62 741.5,-62 741.5,-44 708.5,-44"/>
<text text-anchor="start" x="731.5" y="-50.2" font-family="Helvetica,sans-Serif" font-size="11.00"> &#160;</text>
</a>
</g>
</g>
<!-- tracking.deliveries&#45;&gt;withdrawals -->
<g id="edge8" class="edge"><title>tracking.deliveries:elipses:w&#45;&gt;withdrawals:id:e</title>
<path fill="none" stroke="black" d="M571.031,-71.9989C507.58,-81.1438 502.371,-150 430,-150"/>
<polygon fill="black" stroke="black" points="577.519,-71.551 585.748,-74.5915 581.509,-71.2755 585.5,-71 585.5,-71 585.5,-71 581.509,-71.2755 585.252,-67.4085 577.519,-71.551 577.519,-71.551"/>
<ellipse fill="none" stroke="black" cx="574.327" cy="-71.7714" rx="3.2" ry="3.2"/>
</g>
</g>
</svg>
