<?xml version="1.0" encoding="UTF-8" standalone="no"?>
<!DOCTYPE svg PUBLIC "-//W3C//DTD SVG 1.1//EN"
 "http://www.w3.org/Graphics/SVG/1.1/DTD/svg11.dtd">
<!-- Generated by graphviz version 2.47.1 (20210515.0534)
 -->
<!-- Title: oneDegreeRelationshipsDiagram Pages: 1 -->
<svg width="881pt" height="1288pt"
 viewBox="0.00 0.00 881.00 1288.00" xmlns="http://www.w3.org/2000/svg" xmlns:xlink="http://www.w3.org/1999/xlink">
<g id="graph0" class="graph" transform="scale(1 1) rotate(0) translate(4 1284)">
<title>oneDegreeRelationshipsDiagram</title>
<polygon fill="#ffffff" stroke="transparent" points="-4,4 -4,-1284 877,-1284 877,4 -4,4"/>
<text text-anchor="middle" x="73.5" y="-7.2" font-family="Helvetica,sans-Serif" font-size="11.00">Generated by SchemaSpy</text>
<!-- batch_details_history -->
<g id="node1" class="node">
<title>batch_details_history</title>
<g id="a_node1"><a xlink:href="../../tables/batch_details_history.html" xlink:title="batch_details_history" target="_top">
<polygon fill="#ffffff" stroke="transparent" points="669.5,-37 669.5,-249 839.5,-249 839.5,-37 669.5,-37"/>
<polygon fill="#f5f5f5" stroke="transparent" points="669.5,-227 669.5,-249 839.5,-249 839.5,-227 669.5,-227"/>
<polygon fill="none" stroke="black" points="669.5,-227 669.5,-249 839.5,-249 839.5,-227 669.5,-227"/>
<text text-anchor="start" x="674.5" y="-236.2" font-family="Helvetica,sans-Serif" font-weight="bold" font-size="11.00">batch_details_history</text>
<text text-anchor="start" x="800.5" y="-235.2" font-family="Helvetica,sans-Serif" font-size="11.00">[table]</text>
<polygon fill="none" stroke="black" points="669.5,-205 669.5,-227 839.5,-227 839.5,-205 669.5,-205"/>
<image xlink:href="../../images/primaryKeys.png" width="11px" height="12px" preserveAspectRatio="xMinYMin meet" x="674.5" y="-222"/>
<text text-anchor="start" x="701.5" y="-213.2" font-family="Helvetica,sans-Serif" font-size="11.00">id</text>
<polygon fill="#ffffff" stroke="transparent" points="669.5,-183 669.5,-205 839.5,-205 839.5,-183 669.5,-183"/>
<polygon fill="none" stroke="black" points="669.5,-183 669.5,-205 839.5,-205 839.5,-183 669.5,-183"/>
<image xlink:href="../../images/foreignKeys.png" width="11px" height="12px" preserveAspectRatio="xMinYMin meet" x="674.5" y="-200"/>
<text text-anchor="start" x="701.5" y="-191.2" font-family="Helvetica,sans-Serif" font-size="11.00">batch_id</text>
<polygon fill="#ffffff" stroke="transparent" points="669.5,-161 669.5,-183 839.5,-183 839.5,-161 669.5,-161"/>
<polygon fill="none" stroke="black" points="669.5,-161 669.5,-183 839.5,-183 839.5,-161 669.5,-161"/>
<text text-anchor="start" x="701.5" y="-169.2" font-family="Helvetica,sans-Serif" font-size="11.00">version</text>
<polygon fill="#ffffff" stroke="transparent" points="669.5,-139 669.5,-161 839.5,-161 839.5,-139 669.5,-139"/>
<polygon fill="none" stroke="black" points="669.5,-139 669.5,-161 839.5,-161 839.5,-139 669.5,-139"/>
<text text-anchor="start" x="701.5" y="-147.2" font-family="Helvetica,sans-Serif" font-size="11.00">created_by</text>
<polygon fill="#ffffff" stroke="transparent" points="669.5,-117 669.5,-139 839.5,-139 839.5,-117 669.5,-117"/>
<polygon fill="none" stroke="black" points="669.5,-117 669.5,-139 839.5,-139 839.5,-117 669.5,-117"/>
<text text-anchor="start" x="701.5" y="-125.2" font-family="Helvetica,sans-Serif" font-size="11.00">project_id</text>
<polygon fill="none" stroke="black" points="669.5,-95 669.5,-117 839.5,-117 839.5,-95 669.5,-95"/>
<image xlink:href="../../images/foreignKeys.png" width="11px" height="12px" preserveAspectRatio="xMinYMin meet" x="674.5" y="-112"/>
<text text-anchor="start" x="701.5" y="-103.2" font-family="Helvetica,sans-Serif" font-size="11.00">substrate_id</text>
<polygon fill="none" stroke="black" points="669.5,-73 669.5,-95 839.5,-95 839.5,-73 669.5,-73"/>
<image xlink:href="../../images/foreignKeys.png" width="11px" height="12px" preserveAspectRatio="xMinYMin meet" x="674.5" y="-90"/>
<text text-anchor="start" x="701.5" y="-81.2" font-family="Helvetica,sans-Serif" font-size="11.00">treatment_id</text>
<polygon fill="none" stroke="black" points="669.5,-55 669.5,-73 839.5,-73 839.5,-55 669.5,-55"/>
<text text-anchor="start" x="672.5" y="-61.2" font-family="Helvetica,sans-Serif" font-size="11.00">...</text>
<polygon fill="#ffffff" stroke="transparent" points="669.5,-37 669.5,-55 747.5,-55 747.5,-37 669.5,-37"/>
<polygon fill="none" stroke="black" points="669.5,-37 669.5,-55 747.5,-55 747.5,-37 669.5,-37"/>
<text text-anchor="start" x="672.5" y="-43.2" font-family="Helvetica,sans-Serif" font-size="11.00">&lt; 3</text>
<polygon fill="#ffffff" stroke="transparent" points="747.5,-37 747.5,-55 788.5,-55 788.5,-37 747.5,-37"/>
<polygon fill="none" stroke="black" points="747.5,-37 747.5,-55 788.5,-55 788.5,-37 747.5,-37"/>
<text text-anchor="start" x="778.5" y="-43.2" font-family="Helvetica,sans-Serif" font-size="11.00"> &#160;</text>
<polygon fill="#ffffff" stroke="transparent" points="788.5,-37 788.5,-55 839.5,-55 839.5,-37 788.5,-37"/>
<polygon fill="none" stroke="black" points="788.5,-37 788.5,-55 839.5,-55 839.5,-37 788.5,-37"/>
<text text-anchor="start" x="820.5" y="-43.2" font-family="Helvetica,sans-Serif" font-size="11.00">1 &gt;</text>
</a>
</g>
</g>
<!-- batches -->
<g id="node2" class="node">
<title>batches</title>
<g id="a_node2"><a xlink:href="../../tables/batches.html" xlink:title="batches" target="_top">
<polygon fill="#ffffff" stroke="transparent" points="241,-130 241,-900 595,-900 595,-130 241,-130"/>
<polygon fill="#f5f5f5" stroke="transparent" points="243,-876 243,-898 593,-898 593,-876 243,-876"/>
<polygon fill="none" stroke="black" points="243,-876 243,-898 593,-898 593,-876 243,-876"/>
<text text-anchor="start" x="247.5" y="-885.2" font-family="Helvetica,sans-Serif" font-weight="bold" font-size="11.00">batches</text>
<text text-anchor="start" x="554" y="-884.2" font-family="Helvetica,sans-Serif" font-size="11.00">[table]</text>
<polygon fill="none" stroke="black" points="243,-854 243,-876 493,-876 493,-854 243,-854"/>
<image xlink:href="../../images/primaryKeys.png" width="11px" height="12px" preserveAspectRatio="xMinYMin meet" x="248" y="-871"/>
<text text-anchor="start" x="263" y="-862.2" font-family="Helvetica,sans-Serif" font-size="11.00">id</text>
<polygon fill="none" stroke="black" points="493,-854 493,-876 593,-876 593,-854 493,-854"/>
<text text-anchor="start" x="496" y="-862.2" font-family="Helvetica,sans-Serif" font-size="11.00">int8[19]</text>
<polygon fill="none" stroke="black" points="243,-832 243,-854 493,-854 493,-832 243,-832"/>
<text text-anchor="start" x="263" y="-840.2" font-family="Helvetica,sans-Serif" font-size="11.00">version</text>
<polygon fill="none" stroke="black" points="493,-832 493,-854 593,-854 593,-832 493,-832"/>
<text text-anchor="start" x="496" y="-840.2" font-family="Helvetica,sans-Serif" font-size="11.00">int4[10]</text>
<polygon fill="#ffffff" stroke="transparent" points="243,-810 243,-832 493,-832 493,-810 243,-810"/>
<polygon fill="none" stroke="black" points="243,-810 243,-832 493,-832 493,-810 243,-810"/>
<text text-anchor="start" x="263" y="-818.2" font-family="Helvetica,sans-Serif" font-size="11.00">organization_id</text>
<polygon fill="none" stroke="black" points="493,-810 493,-832 593,-832 593,-810 493,-810"/>
<text text-anchor="start" x="496" y="-818.2" font-family="Helvetica,sans-Serif" font-size="11.00">int8[19]</text>
<polygon fill="#ffffff" stroke="transparent" points="243,-788 243,-810 493,-810 493,-788 243,-788"/>
<polygon fill="none" stroke="black" points="243,-788 243,-810 493,-810 493,-788 243,-788"/>
<text text-anchor="start" x="263" y="-796.2" font-family="Helvetica,sans-Serif" font-size="11.00">facility_id</text>
<polygon fill="none" stroke="black" points="493,-788 493,-810 593,-810 593,-788 493,-788"/>
<text text-anchor="start" x="496" y="-796.2" font-family="Helvetica,sans-Serif" font-size="11.00">int8[19]</text>
<polygon fill="#ffffff" stroke="transparent" points="243,-766 243,-788 493,-788 493,-766 243,-766"/>
<polygon fill="none" stroke="black" points="243,-766 243,-788 493,-788 493,-766 243,-766"/>
<text text-anchor="start" x="263" y="-774.2" font-family="Helvetica,sans-Serif" font-size="11.00">species_id</text>
<polygon fill="none" stroke="black" points="493,-766 493,-788 593,-788 593,-766 493,-766"/>
<text text-anchor="start" x="496" y="-774.2" font-family="Helvetica,sans-Serif" font-size="11.00">int8[19]</text>
<polygon fill="#ffffff" stroke="transparent" points="243,-744 243,-766 493,-766 493,-744 243,-744"/>
<polygon fill="none" stroke="black" points="243,-744 243,-766 493,-766 493,-744 243,-744"/>
<text text-anchor="start" x="263" y="-752.2" font-family="Helvetica,sans-Serif" font-size="11.00">batch_number</text>
<polygon fill="none" stroke="black" points="493,-744 493,-766 593,-766 593,-744 493,-744"/>
<text text-anchor="start" x="496" y="-752.2" font-family="Helvetica,sans-Serif" font-size="11.00">text[2147483647]</text>
<polygon fill="none" stroke="black" points="243,-722 243,-744 493,-744 493,-722 243,-722"/>
<text text-anchor="start" x="263" y="-730.2" font-family="Helvetica,sans-Serif" font-size="11.00">added_date</text>
<polygon fill="none" stroke="black" points="493,-722 493,-744 593,-744 593,-722 493,-722"/>
<text text-anchor="start" x="496" y="-730.2" font-family="Helvetica,sans-Serif" font-size="11.00">date[13]</text>
<polygon fill="none" stroke="black" points="243,-700 243,-722 493,-722 493,-700 243,-700"/>
<text text-anchor="start" x="263" y="-708.2" font-family="Helvetica,sans-Serif" font-size="11.00">germinating_quantity</text>
<polygon fill="none" stroke="black" points="493,-700 493,-722 593,-722 593,-700 493,-700"/>
<text text-anchor="start" x="496" y="-708.2" font-family="Helvetica,sans-Serif" font-size="11.00">int4[10]</text>
<polygon fill="none" stroke="black" points="243,-678 243,-700 493,-700 493,-678 243,-678"/>
<text text-anchor="start" x="263" y="-686.2" font-family="Helvetica,sans-Serif" font-size="11.00">not_ready_quantity</text>
<polygon fill="none" stroke="black" points="493,-678 493,-700 593,-700 593,-678 493,-678"/>
<text text-anchor="start" x="496" y="-686.2" font-family="Helvetica,sans-Serif" font-size="11.00">int4[10]</text>
<polygon fill="none" stroke="black" points="243,-656 243,-678 493,-678 493,-656 243,-656"/>
<text text-anchor="start" x="263" y="-664.2" font-family="Helvetica,sans-Serif" font-size="11.00">ready_quantity</text>
<polygon fill="none" stroke="black" points="493,-656 493,-678 593,-678 593,-656 493,-656"/>
<text text-anchor="start" x="496" y="-664.2" font-family="Helvetica,sans-Serif" font-size="11.00">int4[10]</text>
<polygon fill="none" stroke="black" points="243,-634 243,-656 493,-656 493,-634 243,-634"/>
<text text-anchor="start" x="263" y="-642.2" font-family="Helvetica,sans-Serif" font-size="11.00">latest_observed_germinating_quantity</text>
<polygon fill="none" stroke="black" points="493,-634 493,-656 593,-656 593,-634 493,-634"/>
<text text-anchor="start" x="496" y="-642.2" font-family="Helvetica,sans-Serif" font-size="11.00">int4[10]</text>
<polygon fill="none" stroke="black" points="243,-612 243,-634 493,-634 493,-612 243,-612"/>
<text text-anchor="start" x="263" y="-620.2" font-family="Helvetica,sans-Serif" font-size="11.00">latest_observed_not_ready_quantity</text>
<polygon fill="none" stroke="black" points="493,-612 493,-634 593,-634 593,-612 493,-612"/>
<text text-anchor="start" x="496" y="-620.2" font-family="Helvetica,sans-Serif" font-size="11.00">int4[10]</text>
<polygon fill="none" stroke="black" points="243,-590 243,-612 493,-612 493,-590 243,-590"/>
<text text-anchor="start" x="263" y="-598.2" font-family="Helvetica,sans-Serif" font-size="11.00">latest_observed_ready_quantity</text>
<polygon fill="none" stroke="black" points="493,-590 493,-612 593,-612 593,-590 493,-590"/>
<text text-anchor="start" x="496" y="-598.2" font-family="Helvetica,sans-Serif" font-size="11.00">int4[10]</text>
<polygon fill="none" stroke="black" points="243,-568 243,-590 493,-590 493,-568 243,-568"/>
<text text-anchor="start" x="263" y="-576.2" font-family="Helvetica,sans-Serif" font-size="11.00">latest_observed_time</text>
<polygon fill="none" stroke="black" points="493,-568 493,-590 593,-590 593,-568 493,-568"/>
<text text-anchor="start" x="496" y="-576.2" font-family="Helvetica,sans-Serif" font-size="11.00">timestamptz[35,6]</text>
<polygon fill="none" stroke="black" points="243,-546 243,-568 493,-568 493,-546 243,-546"/>
<text text-anchor="start" x="263" y="-554.2" font-family="Helvetica,sans-Serif" font-size="11.00">created_by</text>
<polygon fill="none" stroke="black" points="493,-546 493,-568 593,-568 593,-546 493,-546"/>
<text text-anchor="start" x="496" y="-554.2" font-family="Helvetica,sans-Serif" font-size="11.00">int8[19]</text>
<polygon fill="none" stroke="black" points="243,-524 243,-546 493,-546 493,-524 243,-524"/>
<text text-anchor="start" x="263" y="-532.2" font-family="Helvetica,sans-Serif" font-size="11.00">created_time</text>
<polygon fill="none" stroke="black" points="493,-524 493,-546 593,-546 593,-524 493,-524"/>
<text text-anchor="start" x="496" y="-532.2" font-family="Helvetica,sans-Serif" font-size="11.00">timestamptz[35,6]</text>
<polygon fill="none" stroke="black" points="243,-502 243,-524 493,-524 493,-502 243,-502"/>
<text text-anchor="start" x="263" y="-510.2" font-family="Helvetica,sans-Serif" font-size="11.00">modified_by</text>
<polygon fill="none" stroke="black" points="493,-502 493,-524 593,-524 593,-502 493,-502"/>
<text text-anchor="start" x="496" y="-510.2" font-family="Helvetica,sans-Serif" font-size="11.00">int8[19]</text>
<polygon fill="none" stroke="black" points="243,-480 243,-502 493,-502 493,-480 243,-480"/>
<text text-anchor="start" x="263" y="-488.2" font-family="Helvetica,sans-Serif" font-size="11.00">modified_time</text>
<polygon fill="none" stroke="black" points="493,-480 493,-502 593,-502 593,-480 493,-480"/>
<text text-anchor="start" x="496" y="-488.2" font-family="Helvetica,sans-Serif" font-size="11.00">timestamptz[35,6]</text>
<polygon fill="none" stroke="black" points="243,-458 243,-480 493,-480 493,-458 243,-458"/>
<text text-anchor="start" x="263" y="-466.2" font-family="Helvetica,sans-Serif" font-size="11.00">notes</text>
<polygon fill="none" stroke="black" points="493,-458 493,-480 593,-480 593,-458 493,-458"/>
<text text-anchor="start" x="496" y="-466.2" font-family="Helvetica,sans-Serif" font-size="11.00">text[2147483647]</text>
<polygon fill="none" stroke="black" points="243,-436 243,-458 493,-458 493,-436 243,-436"/>
<text text-anchor="start" x="263" y="-444.2" font-family="Helvetica,sans-Serif" font-size="11.00">ready_by_date</text>
<polygon fill="none" stroke="black" points="493,-436 493,-458 593,-458 593,-436 493,-436"/>
<text text-anchor="start" x="496" y="-444.2" font-family="Helvetica,sans-Serif" font-size="11.00">date[13]</text>
<polygon fill="none" stroke="black" points="243,-414 243,-436 493,-436 493,-414 243,-414"/>
<text text-anchor="start" x="263" y="-422.2" font-family="Helvetica,sans-Serif" font-size="11.00">accession_id</text>
<polygon fill="none" stroke="black" points="493,-414 493,-436 593,-436 593,-414 493,-414"/>
<text text-anchor="start" x="496" y="-422.2" font-family="Helvetica,sans-Serif" font-size="11.00">int8[19]</text>
<polygon fill="#ffffff" stroke="transparent" points="243,-392 243,-414 493,-414 493,-392 243,-392"/>
<polygon fill="none" stroke="black" points="243,-392 243,-414 493,-414 493,-392 243,-392"/>
<text text-anchor="start" x="263" y="-400.2" font-family="Helvetica,sans-Serif" font-size="11.00">project_id</text>
<polygon fill="none" stroke="black" points="493,-392 493,-414 593,-414 593,-392 493,-392"/>
<text text-anchor="start" x="496" y="-400.2" font-family="Helvetica,sans-Serif" font-size="11.00">int8[19]</text>
<polygon fill="none" stroke="black" points="243,-370 243,-392 493,-392 493,-370 243,-370"/>
<image xlink:href="../../images/foreignKeys.png" width="11px" height="12px" preserveAspectRatio="xMinYMin meet" x="248" y="-387"/>
<text text-anchor="start" x="263" y="-378.2" font-family="Helvetica,sans-Serif" font-size="11.00">substrate_id</text>
<polygon fill="none" stroke="black" points="493,-370 493,-392 593,-392 593,-370 493,-370"/>
<text text-anchor="start" x="496" y="-378.2" font-family="Helvetica,sans-Serif" font-size="11.00">int4[10]</text>
<polygon fill="none" stroke="black" points="243,-348 243,-370 493,-370 493,-348 243,-348"/>
<text text-anchor="start" x="263" y="-356.2" font-family="Helvetica,sans-Serif" font-size="11.00">substrate_notes</text>
<polygon fill="none" stroke="black" points="493,-348 493,-370 593,-370 593,-348 493,-348"/>
<text text-anchor="start" x="496" y="-356.2" font-family="Helvetica,sans-Serif" font-size="11.00">text[2147483647]</text>
<polygon fill="none" stroke="black" points="243,-326 243,-348 493,-348 493,-326 243,-326"/>
<image xlink:href="../../images/foreignKeys.png" width="11px" height="12px" preserveAspectRatio="xMinYMin meet" x="248" y="-343"/>
<text text-anchor="start" x="263" y="-334.2" font-family="Helvetica,sans-Serif" font-size="11.00">treatment_id</text>
<polygon fill="none" stroke="black" points="493,-326 493,-348 593,-348 593,-326 493,-326"/>
<text text-anchor="start" x="496" y="-334.2" font-family="Helvetica,sans-Serif" font-size="11.00">int4[10]</text>
<polygon fill="none" stroke="black" points="243,-304 243,-326 493,-326 493,-304 243,-304"/>
<text text-anchor="start" x="263" y="-312.2" font-family="Helvetica,sans-Serif" font-size="11.00">treatment_notes</text>
<polygon fill="none" stroke="black" points="493,-304 493,-326 593,-326 593,-304 493,-304"/>
<text text-anchor="start" x="496" y="-312.2" font-family="Helvetica,sans-Serif" font-size="11.00">text[2147483647]</text>
<polygon fill="none" stroke="black" points="243,-282 243,-304 493,-304 493,-282 243,-282"/>
<text text-anchor="start" x="263" y="-290.2" font-family="Helvetica,sans-Serif" font-size="11.00">germination_rate</text>
<polygon fill="none" stroke="black" points="493,-282 493,-304 593,-304 593,-282 493,-282"/>
<text text-anchor="start" x="496" y="-290.2" font-family="Helvetica,sans-Serif" font-size="11.00">int4[10]</text>
<polygon fill="none" stroke="black" points="243,-260 243,-282 493,-282 493,-260 243,-260"/>
<text text-anchor="start" x="263" y="-268.2" font-family="Helvetica,sans-Serif" font-size="11.00">loss_rate</text>
<polygon fill="none" stroke="black" points="493,-260 493,-282 593,-282 593,-260 493,-260"/>
<text text-anchor="start" x="496" y="-268.2" font-family="Helvetica,sans-Serif" font-size="11.00">int4[10]</text>
<polygon fill="#ffffff" stroke="transparent" points="243,-238 243,-260 493,-260 493,-238 243,-238"/>
<polygon fill="none" stroke="black" points="243,-238 243,-260 493,-260 493,-238 243,-238"/>
<image xlink:href="../../images/foreignKeys.png" width="11px" height="12px" preserveAspectRatio="xMinYMin meet" x="248" y="-255"/>
<text text-anchor="start" x="263" y="-246.2" font-family="Helvetica,sans-Serif" font-size="11.00">initial_batch_id</text>
<polygon fill="none" stroke="black" points="493,-238 493,-260 593,-260 593,-238 493,-238"/>
<text text-anchor="start" x="496" y="-246.2" font-family="Helvetica,sans-Serif" font-size="11.00">int8[19]</text>
<polygon fill="none" stroke="black" points="243,-216 243,-238 493,-238 493,-216 243,-216"/>
<text text-anchor="start" x="263" y="-224.2" font-family="Helvetica,sans-Serif" font-size="11.00">total_germinated</text>
<polygon fill="none" stroke="black" points="493,-216 493,-238 593,-238 593,-216 493,-216"/>
<text text-anchor="start" x="496" y="-224.2" font-family="Helvetica,sans-Serif" font-size="11.00">int4[10]</text>
<polygon fill="none" stroke="black" points="243,-194 243,-216 493,-216 493,-194 243,-194"/>
<text text-anchor="start" x="263" y="-202.2" font-family="Helvetica,sans-Serif" font-size="11.00">total_germination_candidates</text>
<polygon fill="none" stroke="black" points="493,-194 493,-216 593,-216 593,-194 493,-194"/>
<text text-anchor="start" x="496" y="-202.2" font-family="Helvetica,sans-Serif" font-size="11.00">int4[10]</text>
<polygon fill="none" stroke="black" points="243,-172 243,-194 493,-194 493,-172 243,-172"/>
<text text-anchor="start" x="263" y="-180.2" font-family="Helvetica,sans-Serif" font-size="11.00">total_lost</text>
<polygon fill="none" stroke="black" points="493,-172 493,-194 593,-194 593,-172 493,-172"/>
<text text-anchor="start" x="496" y="-180.2" font-family="Helvetica,sans-Serif" font-size="11.00">int4[10]</text>
<polygon fill="none" stroke="black" points="243,-150 243,-172 493,-172 493,-150 243,-150"/>
<text text-anchor="start" x="263" y="-158.2" font-family="Helvetica,sans-Serif" font-size="11.00">total_loss_candidates</text>
<polygon fill="none" stroke="black" points="493,-150 493,-172 593,-172 593,-150 493,-150"/>
<text text-anchor="start" x="496" y="-158.2" font-family="Helvetica,sans-Serif" font-size="11.00">int4[10]</text>
<polygon fill="#ffffff" stroke="transparent" points="243,-132 243,-150 372,-150 372,-132 243,-132"/>
<polygon fill="none" stroke="black" points="243,-132 243,-150 372,-150 372,-132 243,-132"/>
<text text-anchor="start" x="246" y="-138.2" font-family="Helvetica,sans-Serif" font-size="11.00">&lt; 3</text>
<polygon fill="#ffffff" stroke="transparent" points="372,-132 372,-150 493,-150 493,-132 372,-132"/>
<polygon fill="none" stroke="black" points="372,-132 372,-150 493,-150 493,-132 372,-132"/>
<text text-anchor="start" x="483" y="-138.2" font-family="Helvetica,sans-Serif" font-size="11.00"> &#160;</text>
<polygon fill="#ffffff" stroke="transparent" points="493,-132 493,-150 593,-150 593,-132 493,-132"/>
<polygon fill="none" stroke="black" points="493,-132 493,-150 593,-150 593,-132 493,-132"/>
<text text-anchor="start" x="574" y="-138.2" font-family="Helvetica,sans-Serif" font-size="11.00">9 &gt;</text>
<polygon fill="none" stroke="black" stroke-width="2" points="242,-131 242,-899 594,-899 594,-131 242,-131"/>
</a>
</g>
</g>
<!-- batch_details_history&#45;&gt;batches -->
<g id="edge1" class="edge">
<title>batch_details_history:w&#45;&gt;batches:e</title>
<path fill="none" stroke="black" d="M656.13,-201.54C602.34,-275.25 664.33,-865 594,-865"/>
<polygon fill="black" stroke="black" points="661.67,-198.16 670.37,-197.07 665.08,-196.08 668.5,-194 668.5,-194 668.5,-194 665.08,-196.08 666.63,-190.93 661.67,-198.16 661.67,-198.16"/>
<ellipse fill="none" stroke="black" cx="658.93" cy="-199.83" rx="3.2" ry="3.2"/>
</g>
<!-- batch_substrates -->
<g id="node3" class="node">
<title>batch_substrates</title>
<g id="a_node3"><a xlink:href="../../tables/batch_substrates.html" xlink:title="batch_substrates" target="_top">
<polygon fill="#ffffff" stroke="transparent" points="27,-279 27,-363 173,-363 173,-279 27,-279"/>
<polygon fill="#f5f5f5" stroke="transparent" points="27,-341 27,-363 173,-363 173,-341 27,-341"/>
<polygon fill="none" stroke="black" points="27,-341 27,-363 173,-363 173,-341 27,-341"/>
<text text-anchor="start" x="32" y="-350.2" font-family="Helvetica,sans-Serif" font-weight="bold" font-size="11.00">batch_substrates</text>
<text text-anchor="start" x="134" y="-349.2" font-family="Helvetica,sans-Serif" font-size="11.00">[table]</text>
<polygon fill="none" stroke="black" points="27,-319 27,-341 173,-341 173,-319 27,-319"/>
<image xlink:href="../../images/primaryKeys.png" width="11px" height="12px" preserveAspectRatio="xMinYMin meet" x="32" y="-336"/>
<text text-anchor="start" x="59" y="-327.2" font-family="Helvetica,sans-Serif" font-size="11.00">id</text>
<polygon fill="#ffffff" stroke="transparent" points="27,-297 27,-319 173,-319 173,-297 27,-297"/>
<polygon fill="none" stroke="black" points="27,-297 27,-319 173,-319 173,-297 27,-297"/>
<text text-anchor="start" x="59" y="-305.2" font-family="Helvetica,sans-Serif" font-size="11.00">name</text>
<polygon fill="#ffffff" stroke="transparent" points="27,-279 27,-297 89,-297 89,-279 27,-279"/>
<polygon fill="none" stroke="black" points="27,-279 27,-297 89,-297 89,-279 27,-279"/>
<text text-anchor="start" x="30" y="-285.2" font-family="Helvetica,sans-Serif" font-size="11.00"> &#160;</text>
<polygon fill="#ffffff" stroke="transparent" points="89,-279 89,-297 126,-297 126,-279 89,-279"/>
<polygon fill="none" stroke="black" points="89,-279 89,-297 126,-297 126,-279 89,-279"/>
<text text-anchor="start" x="116" y="-285.2" font-family="Helvetica,sans-Serif" font-size="11.00"> &#160;</text>
<polygon fill="#ffffff" stroke="transparent" points="126,-279 126,-297 173,-297 173,-279 126,-279"/>
<polygon fill="none" stroke="black" points="126,-279 126,-297 173,-297 173,-279 126,-279"/>
<text text-anchor="start" x="154" y="-285.2" font-family="Helvetica,sans-Serif" font-size="11.00">2 &gt;</text>
</a>
</g>
</g>
<!-- batch_details_history&#45;&gt;batch_substrates -->
<g id="edge2" class="edge">
<title>batch_details_history:w&#45;&gt;batch_substrates:e</title>
<path fill="none" stroke="black" d="M654.04,-105.77C572.55,-103.86 268.44,-91.26 233,-119 156.31,-179.01 271.37,-330 174,-330"/>
<polygon fill="black" stroke="black" points="660.5,-105.87 668.44,-109.6 664.5,-105.94 668.5,-106 668.5,-106 668.5,-106 664.5,-105.94 668.56,-102.4 660.5,-105.87 660.5,-105.87"/>
<ellipse fill="none" stroke="black" cx="657.3" cy="-105.82" rx="3.2" ry="3.2"/>
</g>
<!-- public.seed_treatments -->
<g id="node4" class="node">
<title>public.seed_treatments</title>
<g id="a_node4"><a xlink:href="../../../public/tables/seed_treatments.html" xlink:title="public.seed_treatments" target="_top">
<polygon fill="#ffffff" stroke="transparent" points="8,-150 8,-208 192,-208 192,-150 8,-150"/>
<polygon fill="#f5f5f5" stroke="transparent" points="8,-186 8,-208 192,-208 192,-186 8,-186"/>
<polygon fill="none" stroke="black" points="8,-186 8,-208 192,-208 192,-186 8,-186"/>
<text text-anchor="start" x="13" y="-195.2" font-family="Helvetica,sans-Serif" font-weight="bold" font-size="11.00">public.seed_treatments</text>
<text text-anchor="start" x="153" y="-194.2" font-family="Helvetica,sans-Serif" font-size="11.00">[table]</text>
<polygon fill="none" stroke="black" points="8,-168 8,-186 192,-186 192,-168 8,-168"/>
<text text-anchor="start" x="11" y="-174.2" font-family="Helvetica,sans-Serif" font-size="11.00">...</text>
<polygon fill="#ffffff" stroke="transparent" points="8,-150 8,-168 75,-168 75,-150 8,-150"/>
<polygon fill="none" stroke="black" points="8,-150 8,-168 75,-168 75,-150 8,-150"/>
<text text-anchor="start" x="11" y="-156.2" font-family="Helvetica,sans-Serif" font-size="11.00"> &#160;</text>
<polygon fill="#ffffff" stroke="transparent" points="75,-150 75,-168 142,-168 142,-150 75,-150"/>
<polygon fill="none" stroke="black" points="75,-150 75,-168 142,-168 142,-150 75,-150"/>
<text text-anchor="start" x="105" y="-156.2" font-family="Helvetica,sans-Serif" font-size="11.00">0 rows</text>
<polygon fill="#ffffff" stroke="transparent" points="142,-150 142,-168 192,-168 192,-150 142,-150"/>
<polygon fill="none" stroke="black" points="142,-150 142,-168 192,-168 192,-150 142,-150"/>
<text text-anchor="start" x="173" y="-156.2" font-family="Helvetica,sans-Serif" font-size="11.00">2 &gt;</text>
</a>
</g>
</g>
<!-- batch_details_history&#45;&gt;public.seed_treatments -->
<g id="edge3" class="edge">
<title>batch_details_history:w&#45;&gt;public.seed_treatments:e</title>
<path fill="none" stroke="black" d="M654.01,-83.92C471.92,-81.82 413.59,-41.24 233,-96 199.32,-106.21 165.81,-127.46 140.98,-145.89"/>
<polygon fill="black" stroke="black" points="660.5,-83.95 668.48,-87.6 664.5,-83.98 668.5,-84 668.5,-84 668.5,-84 664.5,-83.98 668.52,-80.4 660.5,-83.95 660.5,-83.95"/>
<ellipse fill="none" stroke="black" cx="657.3" cy="-83.94" rx="3.2" ry="3.2"/>
</g>
<!-- batches&#45;&gt;batches -->
<g id="edge10" class="edge">
<title>batches:w&#45;&gt;batches:e</title>
<path fill="none" stroke="black" d="M236.22,-261.78C163.72,-413.83 170.96,-917 418,-917 672.5,-917 672.5,-908.33 593,-865"/>
<polygon fill="black" stroke="black" points="239.25,-256.07 246.18,-250.69 241.13,-252.53 243,-249 243,-249 243,-249 241.13,-252.53 239.82,-247.31 239.25,-256.07 239.25,-256.07"/>
<ellipse fill="none" stroke="black" cx="237.75" cy="-258.9" rx="3.2" ry="3.2"/>
</g>
<!-- batches&#45;&gt;batch_substrates -->
<g id="edge11" class="edge">
<title>batches:w&#45;&gt;batch_substrates:e</title>
<path fill="none" stroke="black" d="M227.88,-377.96C205.47,-366.98 206.17,-330 174,-330"/>
<polygon fill="black" stroke="black" points="234.18,-379.32 241.24,-384.52 238.09,-380.16 242,-381 242,-381 242,-381 238.09,-380.16 242.76,-377.48 234.18,-379.32 234.18,-379.32"/>
<ellipse fill="none" stroke="black" cx="231.05" cy="-378.64" rx="3.2" ry="3.2"/>
</g>
<!-- batches&#45;&gt;public.seed_treatments -->
<g id="edge12" class="edge">
<title>batches:w&#45;&gt;public.seed_treatments:e</title>
<path fill="none" stroke="black" d="M227.69,-333.61C210.71,-323.18 218.99,-290.88 200,-268 183.17,-247.72 161.7,-227.86 143.06,-212.06"/>
<polygon fill="black" stroke="black" points="234.22,-335.16 241.17,-340.5 238.11,-336.08 242,-337 242,-337 242,-337 238.11,-336.08 242.83,-333.5 234.22,-335.16 234.22,-335.16"/>
<ellipse fill="none" stroke="black" cx="231.1" cy="-334.42" rx="3.2" ry="3.2"/>
</g>
<!-- batch_photos -->
<g id="node5" class="node">
<title>batch_photos</title>
<g id="a_node5"><a xlink:href="../../tables/batch_photos.html" xlink:title="batch_photos" target="_top">
<polygon fill="#ffffff" stroke="transparent" points="692.5,-1152 692.5,-1276 816.5,-1276 816.5,-1152 692.5,-1152"/>
<polygon fill="#f5f5f5" stroke="transparent" points="692.5,-1254 692.5,-1276 816.5,-1276 816.5,-1254 692.5,-1254"/>
<polygon fill="none" stroke="black" points="692.5,-1254 692.5,-1276 816.5,-1276 816.5,-1254 692.5,-1254"/>
<text text-anchor="start" x="697.5" y="-1263.2" font-family="Helvetica,sans-Serif" font-weight="bold" font-size="11.00">batch_photos</text>
<text text-anchor="start" x="777.5" y="-1262.2" font-family="Helvetica,sans-Serif" font-size="11.00">[table]</text>
<polygon fill="none" stroke="black" points="692.5,-1232 692.5,-1254 816.5,-1254 816.5,-1232 692.5,-1232"/>
<image xlink:href="../../images/primaryKeys.png" width="11px" height="12px" preserveAspectRatio="xMinYMin meet" x="697.5" y="-1249"/>
<text text-anchor="start" x="724.5" y="-1240.2" font-family="Helvetica,sans-Serif" font-size="11.00">id</text>
<polygon fill="#ffffff" stroke="transparent" points="692.5,-1210 692.5,-1232 816.5,-1232 816.5,-1210 692.5,-1210"/>
<polygon fill="none" stroke="black" points="692.5,-1210 692.5,-1232 816.5,-1232 816.5,-1210 692.5,-1210"/>
<image xlink:href="../../images/foreignKeys.png" width="11px" height="12px" preserveAspectRatio="xMinYMin meet" x="697.5" y="-1227"/>
<text text-anchor="start" x="724.5" y="-1218.2" font-family="Helvetica,sans-Serif" font-size="11.00">batch_id</text>
<polygon fill="#ffffff" stroke="transparent" points="692.5,-1188 692.5,-1210 816.5,-1210 816.5,-1188 692.5,-1188"/>
<polygon fill="none" stroke="black" points="692.5,-1188 692.5,-1210 816.5,-1210 816.5,-1188 692.5,-1188"/>
<image xlink:href="../../images/foreignKeys.png" width="11px" height="12px" preserveAspectRatio="xMinYMin meet" x="697.5" y="-1205"/>
<text text-anchor="start" x="724.5" y="-1196.2" font-family="Helvetica,sans-Serif" font-size="11.00">file_id</text>
<polygon fill="none" stroke="black" points="692.5,-1170 692.5,-1188 816.5,-1188 816.5,-1170 692.5,-1170"/>
<text text-anchor="start" x="695.5" y="-1176.2" font-family="Helvetica,sans-Serif" font-size="11.00">...</text>
<polygon fill="#ffffff" stroke="transparent" points="692.5,-1152 692.5,-1170 752.5,-1170 752.5,-1152 692.5,-1152"/>
<polygon fill="none" stroke="black" points="692.5,-1152 692.5,-1170 752.5,-1170 752.5,-1152 692.5,-1152"/>
<text text-anchor="start" x="695.5" y="-1158.2" font-family="Helvetica,sans-Serif" font-size="11.00">&lt; 2</text>
<polygon fill="#ffffff" stroke="transparent" points="752.5,-1152 752.5,-1170 784.5,-1170 784.5,-1152 752.5,-1152"/>
<polygon fill="none" stroke="black" points="752.5,-1152 752.5,-1170 784.5,-1170 784.5,-1152 752.5,-1152"/>
<text text-anchor="start" x="774.5" y="-1158.2" font-family="Helvetica,sans-Serif" font-size="11.00"> &#160;</text>
<polygon fill="#ffffff" stroke="transparent" points="784.5,-1152 784.5,-1170 816.5,-1170 816.5,-1152 784.5,-1152"/>
<polygon fill="none" stroke="black" points="784.5,-1152 784.5,-1170 816.5,-1170 816.5,-1152 784.5,-1152"/>
<text text-anchor="start" x="806.5" y="-1158.2" font-family="Helvetica,sans-Serif" font-size="11.00"> &#160;</text>
</a>
</g>
</g>
<!-- batch_photos&#45;&gt;batches -->
<g id="edge4" class="edge">
<title>batch_photos:w&#45;&gt;batches:e</title>
<path fill="none" stroke="black" d="M677.07,-1219.13C649.14,-1210.89 649.91,-1176.69 636,-1142 612.82,-1084.22 656.26,-865 594,-865"/>
<polygon fill="black" stroke="black" points="683.57,-1219.97 691.04,-1224.57 687.53,-1220.49 691.5,-1221 691.5,-1221 691.5,-1221 687.53,-1220.49 691.96,-1217.43 683.57,-1219.97 683.57,-1219.97"/>
<ellipse fill="none" stroke="black" cx="680.39" cy="-1219.56" rx="3.2" ry="3.2"/>
</g>
<!-- batch_quantity_history -->
<g id="node6" class="node">
<title>batch_quantity_history</title>
<g id="a_node6"><a xlink:href="../../tables/batch_quantity_history.html" xlink:title="batch_quantity_history" target="_top">
<polygon fill="#ffffff" stroke="transparent" points="664,-963 664,-1131 845,-1131 845,-963 664,-963"/>
<polygon fill="#f5f5f5" stroke="transparent" points="664.5,-1109 664.5,-1131 845.5,-1131 845.5,-1109 664.5,-1109"/>
<polygon fill="none" stroke="black" points="664.5,-1109 664.5,-1131 845.5,-1131 845.5,-1109 664.5,-1109"/>
<text text-anchor="start" x="669.5" y="-1118.2" font-family="Helvetica,sans-Serif" font-weight="bold" font-size="11.00">batch_quantity_history</text>
<text text-anchor="start" x="806.5" y="-1117.2" font-family="Helvetica,sans-Serif" font-size="11.00">[table]</text>
<polygon fill="none" stroke="black" points="664.5,-1087 664.5,-1109 845.5,-1109 845.5,-1087 664.5,-1087"/>
<image xlink:href="../../images/primaryKeys.png" width="11px" height="12px" preserveAspectRatio="xMinYMin meet" x="669.5" y="-1104"/>
<text text-anchor="start" x="696.5" y="-1095.2" font-family="Helvetica,sans-Serif" font-size="11.00">id</text>
<polygon fill="#ffffff" stroke="transparent" points="664.5,-1065 664.5,-1087 845.5,-1087 845.5,-1065 664.5,-1065"/>
<polygon fill="none" stroke="black" points="664.5,-1065 664.5,-1087 845.5,-1087 845.5,-1065 664.5,-1065"/>
<image xlink:href="../../images/foreignKeys.png" width="11px" height="12px" preserveAspectRatio="xMinYMin meet" x="669.5" y="-1082"/>
<text text-anchor="start" x="696.5" y="-1073.2" font-family="Helvetica,sans-Serif" font-size="11.00">batch_id</text>
<polygon fill="none" stroke="black" points="664.5,-1043 664.5,-1065 845.5,-1065 845.5,-1043 664.5,-1043"/>
<image xlink:href="../../images/foreignKeys.png" width="11px" height="12px" preserveAspectRatio="xMinYMin meet" x="669.5" y="-1060"/>
<text text-anchor="start" x="696.5" y="-1051.2" font-family="Helvetica,sans-Serif" font-size="11.00">history_type_id</text>
<polygon fill="none" stroke="black" points="664.5,-1021 664.5,-1043 845.5,-1043 845.5,-1021 664.5,-1021"/>
<image xlink:href="../../images/foreignKeys.png" width="11px" height="12px" preserveAspectRatio="xMinYMin meet" x="669.5" y="-1038"/>
<text text-anchor="start" x="696.5" y="-1029.2" font-family="Helvetica,sans-Serif" font-size="11.00">withdrawal_id</text>
<polygon fill="#ffffff" stroke="transparent" points="664.5,-999 664.5,-1021 845.5,-1021 845.5,-999 664.5,-999"/>
<polygon fill="none" stroke="black" points="664.5,-999 664.5,-1021 845.5,-1021 845.5,-999 664.5,-999"/>
<text text-anchor="start" x="696.5" y="-1007.2" font-family="Helvetica,sans-Serif" font-size="11.00">version</text>
<polygon fill="none" stroke="black" points="664.5,-981 664.5,-999 845.5,-999 845.5,-981 664.5,-981"/>
<text text-anchor="start" x="667.5" y="-987.2" font-family="Helvetica,sans-Serif" font-size="11.00">...</text>
<polygon fill="#ffffff" stroke="transparent" points="664.5,-963 664.5,-981 752.5,-981 752.5,-963 664.5,-963"/>
<polygon fill="none" stroke="black" points="664.5,-963 664.5,-981 752.5,-981 752.5,-963 664.5,-963"/>
<text text-anchor="start" x="667.5" y="-969.2" font-family="Helvetica,sans-Serif" font-size="11.00">&lt; 3</text>
<polygon fill="#ffffff" stroke="transparent" points="752.5,-963 752.5,-981 798.5,-981 798.5,-963 752.5,-963"/>
<polygon fill="none" stroke="black" points="752.5,-963 752.5,-981 798.5,-981 798.5,-963 752.5,-963"/>
<text text-anchor="start" x="788.5" y="-969.2" font-family="Helvetica,sans-Serif" font-size="11.00"> &#160;</text>
<polygon fill="#ffffff" stroke="transparent" points="798.5,-963 798.5,-981 845.5,-981 845.5,-963 798.5,-963"/>
<polygon fill="none" stroke="black" points="798.5,-963 798.5,-981 845.5,-981 845.5,-963 798.5,-963"/>
<text text-anchor="start" x="835.5" y="-969.2" font-family="Helvetica,sans-Serif" font-size="11.00"> &#160;</text>
</a>
</g>
</g>
<!-- batch_quantity_history&#45;&gt;batches -->
<g id="edge5" class="edge">
<title>batch_quantity_history:w&#45;&gt;batches:e</title>
<path fill="none" stroke="black" d="M648.82,-1074.05C578.54,-1052.77 687.14,-865 594,-865"/>
<polygon fill="black" stroke="black" points="655.57,-1074.94 663.02,-1079.57 659.53,-1075.47 663.5,-1076 663.5,-1076 663.5,-1076 659.53,-1075.47 663.98,-1072.43 655.57,-1074.94 655.57,-1074.94"/>
<ellipse fill="none" stroke="black" cx="652.4" cy="-1074.52" rx="3.2" ry="3.2"/>
</g>
<!-- batch_sub_locations -->
<g id="node7" class="node">
<title>batch_sub_locations</title>
<g id="a_node7"><a xlink:href="../../tables/batch_sub_locations.html" xlink:title="batch_sub_locations" target="_top">
<polygon fill="#ffffff" stroke="transparent" points="672.5,-590 672.5,-696 836.5,-696 836.5,-590 672.5,-590"/>
<polygon fill="#f5f5f5" stroke="transparent" points="672.5,-674 672.5,-696 836.5,-696 836.5,-674 672.5,-674"/>
<polygon fill="none" stroke="black" points="672.5,-674 672.5,-696 836.5,-696 836.5,-674 672.5,-674"/>
<text text-anchor="start" x="677.5" y="-683.2" font-family="Helvetica,sans-Serif" font-weight="bold" font-size="11.00">batch_sub_locations</text>
<text text-anchor="start" x="797.5" y="-682.2" font-family="Helvetica,sans-Serif" font-size="11.00">[table]</text>
<polygon fill="none" stroke="black" points="672.5,-652 672.5,-674 836.5,-674 836.5,-652 672.5,-652"/>
<image xlink:href="../../images/primaryKeys.png" width="11px" height="12px" preserveAspectRatio="xMinYMin meet" x="677.5" y="-669"/>
<text text-anchor="start" x="704.5" y="-660.2" font-family="Helvetica,sans-Serif" font-size="11.00">batch_id</text>
<polygon fill="none" stroke="black" points="672.5,-630 672.5,-652 836.5,-652 836.5,-630 672.5,-630"/>
<image xlink:href="../../images/primaryKeys.png" width="11px" height="12px" preserveAspectRatio="xMinYMin meet" x="677.5" y="-647"/>
<text text-anchor="start" x="704.5" y="-638.2" font-family="Helvetica,sans-Serif" font-size="11.00">sub_location_id</text>
<polygon fill="none" stroke="black" points="672.5,-608 672.5,-630 836.5,-630 836.5,-608 672.5,-608"/>
<image xlink:href="../../images/foreignKeys.png" width="11px" height="12px" preserveAspectRatio="xMinYMin meet" x="677.5" y="-625"/>
<text text-anchor="start" x="704.5" y="-616.2" font-family="Helvetica,sans-Serif" font-size="11.00">facility_id</text>
<polygon fill="#ffffff" stroke="transparent" points="672.5,-590 672.5,-608 752.5,-608 752.5,-590 672.5,-590"/>
<polygon fill="none" stroke="black" points="672.5,-590 672.5,-608 752.5,-608 752.5,-590 672.5,-590"/>
<text text-anchor="start" x="675.5" y="-596.2" font-family="Helvetica,sans-Serif" font-size="11.00">&lt; 2</text>
<polygon fill="#ffffff" stroke="transparent" points="752.5,-590 752.5,-608 794.5,-608 794.5,-590 752.5,-590"/>
<polygon fill="none" stroke="black" points="752.5,-590 752.5,-608 794.5,-608 794.5,-590 752.5,-590"/>
<text text-anchor="start" x="784.5" y="-596.2" font-family="Helvetica,sans-Serif" font-size="11.00"> &#160;</text>
<polygon fill="#ffffff" stroke="transparent" points="794.5,-590 794.5,-608 836.5,-608 836.5,-590 794.5,-590"/>
<polygon fill="none" stroke="black" points="794.5,-590 794.5,-608 836.5,-608 836.5,-590 794.5,-590"/>
<text text-anchor="start" x="826.5" y="-596.2" font-family="Helvetica,sans-Serif" font-size="11.00"> &#160;</text>
</a>
</g>
</g>
<!-- batch_sub_locations&#45;&gt;batches -->
<g id="edge6" class="edge">
<title>batch_sub_locations:w&#45;&gt;batches:e</title>
<path fill="none" stroke="black" d="M657.11,-664.87C587.67,-685.23 684.71,-865 594,-865"/>
<polygon fill="black" stroke="black" points="663.57,-664.03 671.96,-666.57 667.53,-663.52 671.5,-663 671.5,-663 671.5,-663 667.53,-663.52 671.04,-659.43 663.57,-664.03 663.57,-664.03"/>
<ellipse fill="none" stroke="black" cx="660.39" cy="-664.44" rx="3.2" ry="3.2"/>
</g>
<!-- batch_sub_locations&#45;&gt;batches -->
<g id="edge7" class="edge">
<title>batch_sub_locations:w&#45;&gt;batches:e</title>
<path fill="none" stroke="black" d="M657.23,-621.02C595.77,-640.8 675.66,-799 594,-799"/>
<polygon fill="black" stroke="black" points="663.58,-620.12 672.01,-622.56 667.54,-619.56 671.5,-619 671.5,-619 671.5,-619 667.54,-619.56 670.99,-615.44 663.58,-620.12 663.58,-620.12"/>
<ellipse fill="none" stroke="black" cx="660.41" cy="-620.57" rx="3.2" ry="3.2"/>
</g>
<!-- batch_withdrawals -->
<g id="node8" class="node">
<title>batch_withdrawals</title>
<g id="a_node8"><a xlink:href="../../tables/batch_withdrawals.html" xlink:title="batch_withdrawals" target="_top">
<polygon fill="#ffffff" stroke="transparent" points="644,-818 644,-942 865,-942 865,-818 644,-818"/>
<polygon fill="#f5f5f5" stroke="transparent" points="644.5,-920 644.5,-942 865.5,-942 865.5,-920 644.5,-920"/>
<polygon fill="none" stroke="black" points="644.5,-920 644.5,-942 865.5,-942 865.5,-920 644.5,-920"/>
<text text-anchor="start" x="649.5" y="-929.2" font-family="Helvetica,sans-Serif" font-weight="bold" font-size="11.00">batch_withdrawals</text>
<text text-anchor="start" x="826.5" y="-928.2" font-family="Helvetica,sans-Serif" font-size="11.00">[table]</text>
<polygon fill="none" stroke="black" points="644.5,-898 644.5,-920 865.5,-920 865.5,-898 644.5,-898"/>
<image xlink:href="../../images/primaryKeys.png" width="11px" height="12px" preserveAspectRatio="xMinYMin meet" x="649.5" y="-915"/>
<text text-anchor="start" x="664.5" y="-906.2" font-family="Helvetica,sans-Serif" font-size="11.00">batch_id</text>
<polygon fill="none" stroke="black" points="644.5,-876 644.5,-898 865.5,-898 865.5,-876 644.5,-876"/>
<image xlink:href="../../images/primaryKeys.png" width="11px" height="12px" preserveAspectRatio="xMinYMin meet" x="649.5" y="-893"/>
<text text-anchor="start" x="664.5" y="-884.2" font-family="Helvetica,sans-Serif" font-size="11.00">withdrawal_id</text>
<polygon fill="#ffffff" stroke="transparent" points="644.5,-854 644.5,-876 865.5,-876 865.5,-854 644.5,-854"/>
<polygon fill="none" stroke="black" points="644.5,-854 644.5,-876 865.5,-876 865.5,-854 644.5,-854"/>
<image xlink:href="../../images/foreignKeys.png" width="11px" height="12px" preserveAspectRatio="xMinYMin meet" x="649.5" y="-871"/>
<text text-anchor="start" x="664.5" y="-862.2" font-family="Helvetica,sans-Serif" font-size="11.00">destination_batch_id</text>
<polygon fill="none" stroke="black" points="644.5,-836 644.5,-854 865.5,-854 865.5,-836 644.5,-836"/>
<text text-anchor="start" x="647.5" y="-842.2" font-family="Helvetica,sans-Serif" font-size="11.00">...</text>
<polygon fill="#ffffff" stroke="transparent" points="644.5,-818 644.5,-836 752.5,-836 752.5,-818 644.5,-818"/>
<polygon fill="none" stroke="black" points="644.5,-818 644.5,-836 752.5,-836 752.5,-818 644.5,-818"/>
<text text-anchor="start" x="647.5" y="-824.2" font-family="Helvetica,sans-Serif" font-size="11.00">&lt; 3</text>
<polygon fill="#ffffff" stroke="transparent" points="752.5,-818 752.5,-836 808.5,-836 808.5,-818 752.5,-818"/>
<polygon fill="none" stroke="black" points="752.5,-818 752.5,-836 808.5,-836 808.5,-818 752.5,-818"/>
<text text-anchor="start" x="798.5" y="-824.2" font-family="Helvetica,sans-Serif" font-size="11.00"> &#160;</text>
<polygon fill="#ffffff" stroke="transparent" points="808.5,-818 808.5,-836 865.5,-836 865.5,-818 808.5,-818"/>
<polygon fill="none" stroke="black" points="808.5,-818 808.5,-836 865.5,-836 865.5,-818 808.5,-818"/>
<text text-anchor="start" x="855.5" y="-824.2" font-family="Helvetica,sans-Serif" font-size="11.00"> &#160;</text>
</a>
</g>
</g>
<!-- batch_withdrawals&#45;&gt;batches -->
<g id="edge8" class="edge">
<title>batch_withdrawals:w&#45;&gt;batches:e</title>
<path fill="none" stroke="black" d="M629.72,-904.29C616.27,-892.94 617.46,-865 594,-865"/>
<polygon fill="black" stroke="black" points="635.93,-906.41 642.34,-912.41 639.71,-907.71 643.5,-909 643.5,-909 643.5,-909 639.71,-907.71 644.66,-905.59 635.93,-906.41 635.93,-906.41"/>
<ellipse fill="none" stroke="black" cx="632.9" cy="-905.38" rx="3.2" ry="3.2"/>
</g>
<!-- batch_withdrawals&#45;&gt;batches -->
<g id="edge9" class="edge">
<title>batch_withdrawals:w&#45;&gt;batches:e</title>
<path fill="none" stroke="black" d="M628.84,-865C617.41,-865 610.16,-865 594,-865"/>
<polygon fill="black" stroke="black" points="635.5,-865 643.5,-868.6 639.5,-865 643.5,-865 643.5,-865 643.5,-865 639.5,-865 643.5,-861.4 635.5,-865 635.5,-865"/>
<ellipse fill="none" stroke="black" cx="632.3" cy="-865" rx="3.2" ry="3.2"/>
</g>
<!-- seedbank.withdrawals -->
<g id="node9" class="node">
<title>seedbank.withdrawals</title>
<g id="a_node9"><a xlink:href="../../../seedbank/tables/withdrawals.html" xlink:title="seedbank.withdrawals" target="_top">
<polygon fill="#ffffff" stroke="transparent" points="662.5,-717 662.5,-797 846.5,-797 846.5,-717 662.5,-717"/>
<polygon fill="#f5f5f5" stroke="transparent" points="662.5,-775 662.5,-797 846.5,-797 846.5,-775 662.5,-775"/>
<polygon fill="none" stroke="black" points="662.5,-775 662.5,-797 846.5,-797 846.5,-775 662.5,-775"/>
<text text-anchor="start" x="667.5" y="-784.2" font-family="Helvetica,sans-Serif" font-weight="bold" font-size="11.00">seedbank.withdrawals</text>
<text text-anchor="start" x="807.5" y="-783.2" font-family="Helvetica,sans-Serif" font-size="11.00">[table]</text>
<polygon fill="none" stroke="black" points="662.5,-753 662.5,-775 846.5,-775 846.5,-753 662.5,-753"/>
<image xlink:href="../../images/foreignKeys.png" width="11px" height="12px" preserveAspectRatio="xMinYMin meet" x="667.5" y="-770"/>
<text text-anchor="start" x="682.5" y="-761.2" font-family="Helvetica,sans-Serif" font-size="11.00">batch_id</text>
<polygon fill="none" stroke="black" points="662.5,-735 662.5,-753 846.5,-753 846.5,-735 662.5,-735"/>
<text text-anchor="start" x="665.5" y="-741.2" font-family="Helvetica,sans-Serif" font-size="11.00">...</text>
<polygon fill="#ffffff" stroke="transparent" points="662.5,-717 662.5,-735 738.5,-735 738.5,-717 662.5,-717"/>
<polygon fill="none" stroke="black" points="662.5,-717 662.5,-735 738.5,-735 738.5,-717 662.5,-717"/>
<text text-anchor="start" x="665.5" y="-723.2" font-family="Helvetica,sans-Serif" font-size="11.00">&lt; 1</text>
<polygon fill="#ffffff" stroke="transparent" points="738.5,-717 738.5,-735 805.5,-735 805.5,-717 738.5,-717"/>
<polygon fill="none" stroke="black" points="738.5,-717 738.5,-735 805.5,-735 805.5,-717 738.5,-717"/>
<text text-anchor="start" x="768.5" y="-723.2" font-family="Helvetica,sans-Serif" font-size="11.00">0 rows</text>
<polygon fill="#ffffff" stroke="transparent" points="805.5,-717 805.5,-735 846.5,-735 846.5,-717 805.5,-717"/>
<polygon fill="none" stroke="black" points="805.5,-717 805.5,-735 846.5,-735 846.5,-717 805.5,-717"/>
<text text-anchor="start" x="836.5" y="-723.2" font-family="Helvetica,sans-Serif" font-size="11.00"> &#160;</text>
</a>
</g>
</g>
<!-- seedbank.withdrawals&#45;&gt;batches -->
<g id="edge13" class="edge">
<title>seedbank.withdrawals:w&#45;&gt;batches:e</title>
<path fill="none" stroke="black" d="M647.35,-767.13C615,-784.18 642.3,-865 594,-865"/>
<polygon fill="black" stroke="black" points="653.69,-765.73 662.28,-767.51 657.59,-764.86 661.5,-764 661.5,-764 661.5,-764 657.59,-764.86 660.72,-760.49 653.69,-765.73 653.69,-765.73"/>
<ellipse fill="none" stroke="black" cx="650.56" cy="-766.42" rx="3.2" ry="3.2"/>
</g>
</g>
</svg>
