<?xml version="1.0" encoding="UTF-8" standalone="no"?>
<!DOCTYPE svg PUBLIC "-//W3C//DTD SVG 1.1//EN"
 "http://www.w3.org/Graphics/SVG/1.1/DTD/svg11.dtd">
<!-- Generated by graphviz version 2.47.1 (20210515.0534)
 -->
<!-- Title: twoDegreesRelationshipsDiagram Pages: 1 -->
<svg width="848pt" height="800pt"
 viewBox="0.00 0.00 848.00 800.00" xmlns="http://www.w3.org/2000/svg" xmlns:xlink="http://www.w3.org/1999/xlink">
<g id="graph0" class="graph" transform="scale(1 1) rotate(0) translate(4 796)">
<title>twoDegreesRelationshipsDiagram</title>
<polygon fill="#ffffff" stroke="transparent" points="-4,4 -4,-796 844,-796 844,4 -4,4"/>
<text text-anchor="middle" x="73.5" y="-7.2" font-family="Helvetica,sans-Serif" font-size="11.00">Generated by SchemaSpy</text>
<!-- batch_details_history -->
<g id="node1" class="node">
<title>batch_details_history</title>
<g id="a_node1"><a xlink:href="../../tables/batch_details_history.html" xlink:title="batch_details_history" target="_top">
<polygon fill="#ffffff" stroke="transparent" points="606,-730 606,-788 776,-788 776,-730 606,-730"/>
<polygon fill="#f5f5f5" stroke="transparent" points="606,-766 606,-788 776,-788 776,-766 606,-766"/>
<polygon fill="none" stroke="black" points="606,-766 606,-788 776,-788 776,-766 606,-766"/>
<text text-anchor="start" x="611" y="-775.2" font-family="Helvetica,sans-Serif" font-weight="bold" font-size="11.00">batch_details_history</text>
<text text-anchor="start" x="737" y="-774.2" font-family="Helvetica,sans-Serif" font-size="11.00">[table]</text>
<polygon fill="none" stroke="black" points="606,-748 606,-766 776,-766 776,-748 606,-748"/>
<text text-anchor="start" x="609" y="-754.2" font-family="Helvetica,sans-Serif" font-size="11.00">...</text>
<polygon fill="#ffffff" stroke="transparent" points="606,-730 606,-748 684,-748 684,-730 606,-730"/>
<polygon fill="none" stroke="black" points="606,-730 606,-748 684,-748 684,-730 606,-730"/>
<text text-anchor="start" x="609" y="-736.2" font-family="Helvetica,sans-Serif" font-size="11.00">&lt; 3</text>
<polygon fill="#ffffff" stroke="transparent" points="684,-730 684,-748 725,-748 725,-730 684,-730"/>
<polygon fill="none" stroke="black" points="684,-730 684,-748 725,-748 725,-730 684,-730"/>
<text text-anchor="start" x="715" y="-736.2" font-family="Helvetica,sans-Serif" font-size="11.00"> &#160;</text>
<polygon fill="#ffffff" stroke="transparent" points="725,-730 725,-748 776,-748 776,-730 725,-730"/>
<polygon fill="none" stroke="black" points="725,-730 725,-748 776,-748 776,-730 725,-730"/>
<text text-anchor="start" x="757" y="-736.2" font-family="Helvetica,sans-Serif" font-size="11.00">1 &gt;</text>
</a>
</g>
</g>
<!-- batches -->
<g id="node2" class="node">
<title>batches</title>
<g id="a_node2"><a xlink:href="../../tables/batches.html" xlink:title="batches" target="_top">
<polygon fill="#ffffff" stroke="transparent" points="241,-334 241,-590 501,-590 501,-334 241,-334"/>
<polygon fill="#f5f5f5" stroke="transparent" points="241,-568 241,-590 501,-590 501,-568 241,-568"/>
<polygon fill="none" stroke="black" points="241,-568 241,-590 501,-590 501,-568 241,-568"/>
<text text-anchor="start" x="245.5" y="-577.2" font-family="Helvetica,sans-Serif" font-weight="bold" font-size="11.00">batches</text>
<text text-anchor="start" x="462" y="-576.2" font-family="Helvetica,sans-Serif" font-size="11.00">[table]</text>
<polygon fill="none" stroke="black" points="241,-546 241,-568 501,-568 501,-546 241,-546"/>
<image xlink:href="../../images/primaryKeys.png" width="11px" height="12px" preserveAspectRatio="xMinYMin meet" x="246" y="-563"/>
<text text-anchor="start" x="261" y="-554.2" font-family="Helvetica,sans-Serif" font-size="11.00">id</text>
<polygon fill="#ffffff" stroke="transparent" points="241,-524 241,-546 501,-546 501,-524 241,-524"/>
<polygon fill="none" stroke="black" points="241,-524 241,-546 501,-546 501,-524 241,-524"/>
<text text-anchor="start" x="261" y="-532.2" font-family="Helvetica,sans-Serif" font-size="11.00">organization_id</text>
<polygon fill="#ffffff" stroke="transparent" points="241,-502 241,-524 501,-524 501,-502 241,-502"/>
<polygon fill="none" stroke="black" points="241,-502 241,-524 501,-524 501,-502 241,-502"/>
<text text-anchor="start" x="261" y="-510.2" font-family="Helvetica,sans-Serif" font-size="11.00">facility_id</text>
<polygon fill="#ffffff" stroke="transparent" points="241,-480 241,-502 501,-502 501,-480 241,-480"/>
<polygon fill="none" stroke="black" points="241,-480 241,-502 501,-502 501,-480 241,-480"/>
<text text-anchor="start" x="261" y="-488.2" font-family="Helvetica,sans-Serif" font-size="11.00">species_id</text>
<polygon fill="#ffffff" stroke="transparent" points="241,-458 241,-480 501,-480 501,-458 241,-458"/>
<polygon fill="none" stroke="black" points="241,-458 241,-480 501,-480 501,-458 241,-458"/>
<text text-anchor="start" x="261" y="-466.2" font-family="Helvetica,sans-Serif" font-size="11.00">batch_number</text>
<polygon fill="#ffffff" stroke="transparent" points="241,-436 241,-458 501,-458 501,-436 241,-436"/>
<polygon fill="none" stroke="black" points="241,-436 241,-458 501,-458 501,-436 241,-436"/>
<text text-anchor="start" x="261" y="-444.2" font-family="Helvetica,sans-Serif" font-size="11.00">project_id</text>
<polygon fill="none" stroke="black" points="241,-414 241,-436 501,-436 501,-414 241,-414"/>
<image xlink:href="../../images/foreignKeys.png" width="11px" height="12px" preserveAspectRatio="xMinYMin meet" x="246" y="-431"/>
<text text-anchor="start" x="261" y="-422.2" font-family="Helvetica,sans-Serif" font-size="11.00">substrate_id</text>
<polygon fill="none" stroke="black" points="241,-392 241,-414 501,-414 501,-392 241,-392"/>
<image xlink:href="../../images/foreignKeys.png" width="11px" height="12px" preserveAspectRatio="xMinYMin meet" x="246" y="-409"/>
<text text-anchor="start" x="261" y="-400.2" font-family="Helvetica,sans-Serif" font-size="11.00">treatment_id</text>
<polygon fill="#ffffff" stroke="transparent" points="241,-370 241,-392 501,-392 501,-370 241,-370"/>
<polygon fill="none" stroke="black" points="241,-370 241,-392 501,-392 501,-370 241,-370"/>
<image xlink:href="../../images/foreignKeys.png" width="11px" height="12px" preserveAspectRatio="xMinYMin meet" x="246" y="-387"/>
<text text-anchor="start" x="261" y="-378.2" font-family="Helvetica,sans-Serif" font-size="11.00">initial_batch_id</text>
<polygon fill="none" stroke="black" points="241,-352 241,-370 501,-370 501,-352 241,-352"/>
<text text-anchor="start" x="244" y="-358.2" font-family="Helvetica,sans-Serif" font-size="11.00">...</text>
<polygon fill="#ffffff" stroke="transparent" points="241,-334 241,-352 364,-352 364,-334 241,-334"/>
<polygon fill="none" stroke="black" points="241,-334 241,-352 364,-352 364,-334 241,-334"/>
<text text-anchor="start" x="244" y="-340.2" font-family="Helvetica,sans-Serif" font-size="11.00">&lt; 3</text>
<polygon fill="#ffffff" stroke="transparent" points="364,-334 364,-352 428,-352 428,-334 364,-334"/>
<polygon fill="none" stroke="black" points="364,-334 364,-352 428,-352 428,-334 364,-334"/>
<text text-anchor="start" x="418" y="-340.2" font-family="Helvetica,sans-Serif" font-size="11.00"> &#160;</text>
<polygon fill="#ffffff" stroke="transparent" points="428,-334 428,-352 501,-352 501,-334 428,-334"/>
<polygon fill="none" stroke="black" points="428,-334 428,-352 501,-352 501,-334 428,-334"/>
<text text-anchor="start" x="482" y="-340.2" font-family="Helvetica,sans-Serif" font-size="11.00">9 &gt;</text>
</a>
</g>
</g>
<!-- batch_details_history&#45;&gt;batches -->
<g id="edge1" class="edge">
<title>batch_details_history:w&#45;&gt;batches:e</title>
<path fill="none" stroke="black" d="M590.61,-756.1C568.65,-753 558.21,-741.77 542,-720 497.44,-660.18 576.59,-557 502,-557"/>
<polygon fill="black" stroke="black" points="597.02,-756.5 604.77,-760.59 601.01,-756.75 605,-757 605,-757 605,-757 601.01,-756.75 605.23,-753.41 597.02,-756.5 597.02,-756.5"/>
<ellipse fill="none" stroke="black" cx="593.82" cy="-756.3" rx="3.2" ry="3.2"/>
</g>
<!-- batch_substrates -->
<g id="node3" class="node">
<title>batch_substrates</title>
<g id="a_node3"><a xlink:href="../../tables/batch_substrates.html" xlink:title="batch_substrates" target="_top">
<polygon fill="#ffffff" stroke="transparent" points="27,-639 27,-697 173,-697 173,-639 27,-639"/>
<polygon fill="#f5f5f5" stroke="transparent" points="27,-675 27,-697 173,-697 173,-675 27,-675"/>
<polygon fill="none" stroke="black" points="27,-675 27,-697 173,-697 173,-675 27,-675"/>
<text text-anchor="start" x="32" y="-684.2" font-family="Helvetica,sans-Serif" font-weight="bold" font-size="11.00">batch_substrates</text>
<text text-anchor="start" x="134" y="-683.2" font-family="Helvetica,sans-Serif" font-size="11.00">[table]</text>
<polygon fill="none" stroke="black" points="27,-657 27,-675 173,-675 173,-657 27,-657"/>
<text text-anchor="start" x="30" y="-663.2" font-family="Helvetica,sans-Serif" font-size="11.00">...</text>
<polygon fill="#ffffff" stroke="transparent" points="27,-639 27,-657 89,-657 89,-639 27,-639"/>
<polygon fill="none" stroke="black" points="27,-639 27,-657 89,-657 89,-639 27,-639"/>
<text text-anchor="start" x="30" y="-645.2" font-family="Helvetica,sans-Serif" font-size="11.00"> &#160;</text>
<polygon fill="#ffffff" stroke="transparent" points="89,-639 89,-657 126,-657 126,-639 89,-639"/>
<polygon fill="none" stroke="black" points="89,-639 89,-657 126,-657 126,-639 89,-639"/>
<text text-anchor="start" x="116" y="-645.2" font-family="Helvetica,sans-Serif" font-size="11.00"> &#160;</text>
<polygon fill="#ffffff" stroke="transparent" points="126,-639 126,-657 173,-657 173,-639 126,-639"/>
<polygon fill="none" stroke="black" points="126,-639 126,-657 173,-657 173,-639 126,-639"/>
<text text-anchor="start" x="154" y="-645.2" font-family="Helvetica,sans-Serif" font-size="11.00">2 &gt;</text>
</a>
</g>
</g>
<!-- batch_details_history&#45;&gt;batch_substrates -->
<g id="edge2" class="edge">
<title>batch_details_history:w&#45;&gt;batch_substrates:e</title>
<path fill="none" stroke="black" d="M590.5,-756.91C433.94,-754.87 392.34,-719.62 233,-682 206.56,-675.76 201.17,-666 174,-666"/>
<polygon fill="black" stroke="black" points="597,-756.95 604.98,-760.6 601,-756.97 605,-757 605,-757 605,-757 601,-756.97 605.02,-753.4 597,-756.95 597,-756.95"/>
<ellipse fill="none" stroke="black" cx="593.8" cy="-756.93" rx="3.2" ry="3.2"/>
</g>
<!-- public.seed_treatments -->
<g id="node4" class="node">
<title>public.seed_treatments</title>
<g id="a_node4"><a xlink:href="../../../public/tables/seed_treatments.html" xlink:title="public.seed_treatments" target="_top">
<polygon fill="#ffffff" stroke="transparent" points="8,-499 8,-557 192,-557 192,-499 8,-499"/>
<polygon fill="#f5f5f5" stroke="transparent" points="8,-535 8,-557 192,-557 192,-535 8,-535"/>
<polygon fill="none" stroke="black" points="8,-535 8,-557 192,-557 192,-535 8,-535"/>
<text text-anchor="start" x="13" y="-544.2" font-family="Helvetica,sans-Serif" font-weight="bold" font-size="11.00">public.seed_treatments</text>
<text text-anchor="start" x="153" y="-543.2" font-family="Helvetica,sans-Serif" font-size="11.00">[table]</text>
<polygon fill="none" stroke="black" points="8,-517 8,-535 192,-535 192,-517 8,-517"/>
<text text-anchor="start" x="11" y="-523.2" font-family="Helvetica,sans-Serif" font-size="11.00">...</text>
<polygon fill="#ffffff" stroke="transparent" points="8,-499 8,-517 75,-517 75,-499 8,-499"/>
<polygon fill="none" stroke="black" points="8,-499 8,-517 75,-517 75,-499 8,-499"/>
<text text-anchor="start" x="11" y="-505.2" font-family="Helvetica,sans-Serif" font-size="11.00"> &#160;</text>
<polygon fill="#ffffff" stroke="transparent" points="75,-499 75,-517 142,-517 142,-499 75,-499"/>
<polygon fill="none" stroke="black" points="75,-499 75,-517 142,-517 142,-499 75,-499"/>
<text text-anchor="start" x="105" y="-505.2" font-family="Helvetica,sans-Serif" font-size="11.00">0 rows</text>
<polygon fill="#ffffff" stroke="transparent" points="142,-499 142,-517 192,-517 192,-499 142,-499"/>
<polygon fill="none" stroke="black" points="142,-499 142,-517 192,-517 192,-499 142,-499"/>
<text text-anchor="start" x="173" y="-505.2" font-family="Helvetica,sans-Serif" font-size="11.00">2 &gt;</text>
</a>
</g>
</g>
<!-- batch_details_history&#45;&gt;public.seed_treatments -->
<g id="edge3" class="edge">
<title>batch_details_history:w&#45;&gt;public.seed_treatments:e</title>
<path fill="none" stroke="black" d="M590.42,-755.61C570.08,-751.24 562.79,-737.05 542,-720 524.96,-706.03 527.6,-694.81 509,-683 400.97,-614.42 332.11,-681.94 233,-601 203.74,-577.1 230.78,-526 193,-526"/>
<polygon fill="black" stroke="black" points="597.04,-756.24 604.66,-760.58 601.02,-756.62 605,-757 605,-757 605,-757 601.02,-756.62 605.34,-753.42 597.04,-756.24 597.04,-756.24"/>
<ellipse fill="none" stroke="black" cx="593.85" cy="-755.94" rx="3.2" ry="3.2"/>
</g>
<!-- batches&#45;&gt;batch_substrates -->
<g id="edge12" class="edge">
<title>batches:w&#45;&gt;batch_substrates:e</title>
<path fill="none" stroke="black" d="M226.87,-430.96C192.04,-468.07 224.32,-666 174,-666"/>
<polygon fill="black" stroke="black" points="232.71,-428.31 241.49,-428.28 236.36,-426.65 240,-425 240,-425 240,-425 236.36,-426.65 238.51,-421.72 232.71,-428.31 232.71,-428.31"/>
<ellipse fill="none" stroke="black" cx="229.8" cy="-429.63" rx="3.2" ry="3.2"/>
</g>
<!-- batches&#45;&gt;public.seed_treatments -->
<g id="edge13" class="edge">
<title>batches:w&#45;&gt;public.seed_treatments:e</title>
<path fill="none" stroke="black" d="M225.88,-406.55C194.38,-426.72 245.58,-526 193,-526"/>
<polygon fill="black" stroke="black" points="232.24,-404.95 240.88,-406.49 236.12,-403.97 240,-403 240,-403 240,-403 236.12,-403.97 239.12,-399.51 232.24,-404.95 232.24,-404.95"/>
<ellipse fill="none" stroke="black" cx="229.14" cy="-405.73" rx="3.2" ry="3.2"/>
</g>
<!-- batch_photos -->
<g id="node5" class="node">
<title>batch_photos</title>
<g id="a_node5"><a xlink:href="../../tables/batch_photos.html" xlink:title="batch_photos" target="_top">
<polygon fill="#ffffff" stroke="transparent" points="629,-651 629,-709 753,-709 753,-651 629,-651"/>
<polygon fill="#f5f5f5" stroke="transparent" points="629,-687 629,-709 753,-709 753,-687 629,-687"/>
<polygon fill="none" stroke="black" points="629,-687 629,-709 753,-709 753,-687 629,-687"/>
<text text-anchor="start" x="634" y="-696.2" font-family="Helvetica,sans-Serif" font-weight="bold" font-size="11.00">batch_photos</text>
<text text-anchor="start" x="714" y="-695.2" font-family="Helvetica,sans-Serif" font-size="11.00">[table]</text>
<polygon fill="none" stroke="black" points="629,-669 629,-687 753,-687 753,-669 629,-669"/>
<text text-anchor="start" x="632" y="-675.2" font-family="Helvetica,sans-Serif" font-size="11.00">...</text>
<polygon fill="#ffffff" stroke="transparent" points="629,-651 629,-669 689,-669 689,-651 629,-651"/>
<polygon fill="none" stroke="black" points="629,-651 629,-669 689,-669 689,-651 629,-651"/>
<text text-anchor="start" x="632" y="-657.2" font-family="Helvetica,sans-Serif" font-size="11.00">&lt; 2</text>
<polygon fill="#ffffff" stroke="transparent" points="689,-651 689,-669 721,-669 721,-651 689,-651"/>
<polygon fill="none" stroke="black" points="689,-651 689,-669 721,-669 721,-651 689,-651"/>
<text text-anchor="start" x="711" y="-657.2" font-family="Helvetica,sans-Serif" font-size="11.00"> &#160;</text>
<polygon fill="#ffffff" stroke="transparent" points="721,-651 721,-669 753,-669 753,-651 721,-651"/>
<polygon fill="none" stroke="black" points="721,-651 721,-669 753,-669 753,-651 721,-651"/>
<text text-anchor="start" x="743" y="-657.2" font-family="Helvetica,sans-Serif" font-size="11.00"> &#160;</text>
</a>
</g>
</g>
<!-- batch_photos&#45;&gt;batches -->
<g id="edge4" class="edge">
<title>batch_photos:w&#45;&gt;batches:e</title>
<path fill="none" stroke="black" d="M613.59,-677.59C582.54,-675.64 568.23,-666.25 542,-641 512.21,-612.32 543.35,-557 502,-557"/>
<polygon fill="black" stroke="black" points="620,-677.77 627.9,-681.6 624,-677.89 628,-678 628,-678 628,-678 624,-677.89 628.1,-674.4 620,-677.77 620,-677.77"/>
<ellipse fill="none" stroke="black" cx="616.8" cy="-677.68" rx="3.2" ry="3.2"/>
</g>
<!-- batch_quantity_history -->
<g id="node6" class="node">
<title>batch_quantity_history</title>
<g id="a_node6"><a xlink:href="../../tables/batch_quantity_history.html" xlink:title="batch_quantity_history" target="_top">
<polygon fill="#ffffff" stroke="transparent" points="600.5,-195 600.5,-253 781.5,-253 781.5,-195 600.5,-195"/>
<polygon fill="#f5f5f5" stroke="transparent" points="601,-231 601,-253 782,-253 782,-231 601,-231"/>
<polygon fill="none" stroke="black" points="601,-231 601,-253 782,-253 782,-231 601,-231"/>
<text text-anchor="start" x="606" y="-240.2" font-family="Helvetica,sans-Serif" font-weight="bold" font-size="11.00">batch_quantity_history</text>
<text text-anchor="start" x="743" y="-239.2" font-family="Helvetica,sans-Serif" font-size="11.00">[table]</text>
<polygon fill="none" stroke="black" points="601,-213 601,-231 782,-231 782,-213 601,-213"/>
<text text-anchor="start" x="604" y="-219.2" font-family="Helvetica,sans-Serif" font-size="11.00">...</text>
<polygon fill="#ffffff" stroke="transparent" points="601,-195 601,-213 689,-213 689,-195 601,-195"/>
<polygon fill="none" stroke="black" points="601,-195 601,-213 689,-213 689,-195 601,-195"/>
<text text-anchor="start" x="604" y="-201.2" font-family="Helvetica,sans-Serif" font-size="11.00">&lt; 3</text>
<polygon fill="#ffffff" stroke="transparent" points="689,-195 689,-213 735,-213 735,-195 689,-195"/>
<polygon fill="none" stroke="black" points="689,-195 689,-213 735,-213 735,-195 689,-195"/>
<text text-anchor="start" x="725" y="-201.2" font-family="Helvetica,sans-Serif" font-size="11.00"> &#160;</text>
<polygon fill="#ffffff" stroke="transparent" points="735,-195 735,-213 782,-213 782,-195 735,-195"/>
<polygon fill="none" stroke="black" points="735,-195 735,-213 782,-213 782,-195 735,-195"/>
<text text-anchor="start" x="772" y="-201.2" font-family="Helvetica,sans-Serif" font-size="11.00"> &#160;</text>
</a>
</g>
</g>
<!-- batch_quantity_history&#45;&gt;batches -->
<g id="edge5" class="edge">
<title>batch_quantity_history:w&#45;&gt;batches:e</title>
<path fill="none" stroke="black" d="M585.4,-223.29C564.61,-227.43 555.55,-241.39 542,-264 508.22,-320.37 567.72,-557 502,-557"/>
<polygon fill="black" stroke="black" points="592.03,-222.71 600.32,-225.59 596.02,-222.35 600,-222 600,-222 600,-222 596.02,-222.35 599.68,-218.41 592.03,-222.71 592.03,-222.71"/>
<ellipse fill="none" stroke="black" cx="588.84" cy="-222.99" rx="3.2" ry="3.2"/>
</g>
<!-- withdrawals -->
<g id="node7" class="node">
<title>withdrawals</title>
<g id="a_node7"><a xlink:href="../../tables/withdrawals.html" xlink:title="withdrawals" target="_top">
<polygon fill="#ffffff" stroke="transparent" points="294,-47 294,-215 448,-215 448,-47 294,-47"/>
<polygon fill="#f5f5f5" stroke="transparent" points="294,-193 294,-215 448,-215 448,-193 294,-193"/>
<polygon fill="none" stroke="black" points="294,-193 294,-215 448,-215 448,-193 294,-193"/>
<text text-anchor="start" x="299" y="-202.2" font-family="Helvetica,sans-Serif" font-weight="bold" font-size="11.00">withdrawals</text>
<text text-anchor="start" x="409" y="-201.2" font-family="Helvetica,sans-Serif" font-size="11.00">[table]</text>
<polygon fill="none" stroke="black" points="294,-171 294,-193 448,-193 448,-171 294,-171"/>
<image xlink:href="../../images/primaryKeys.png" width="11px" height="12px" preserveAspectRatio="xMinYMin meet" x="299" y="-188"/>
<text text-anchor="start" x="314" y="-179.2" font-family="Helvetica,sans-Serif" font-size="11.00">id</text>
<polygon fill="#ffffff" stroke="transparent" points="294,-149 294,-171 448,-171 448,-149 294,-149"/>
<polygon fill="none" stroke="black" points="294,-149 294,-171 448,-171 448,-149 294,-149"/>
<text text-anchor="start" x="314" y="-157.2" font-family="Helvetica,sans-Serif" font-size="11.00">facility_id</text>
<polygon fill="none" stroke="black" points="294,-127 294,-149 448,-149 448,-127 294,-127"/>
<image xlink:href="../../images/foreignKeys.png" width="11px" height="12px" preserveAspectRatio="xMinYMin meet" x="299" y="-144"/>
<text text-anchor="start" x="314" y="-135.2" font-family="Helvetica,sans-Serif" font-size="11.00">purpose_id</text>
<polygon fill="#ffffff" stroke="transparent" points="294,-105 294,-127 448,-127 448,-105 294,-105"/>
<polygon fill="none" stroke="black" points="294,-105 294,-127 448,-127 448,-105 294,-105"/>
<text text-anchor="start" x="314" y="-113.2" font-family="Helvetica,sans-Serif" font-size="11.00">destination_facility_id</text>
<polygon fill="#ffffff" stroke="transparent" points="294,-83 294,-105 448,-105 448,-83 294,-83"/>
<polygon fill="none" stroke="black" points="294,-83 294,-105 448,-105 448,-83 294,-83"/>
<image xlink:href="../../images/foreignKeys.png" width="11px" height="12px" preserveAspectRatio="xMinYMin meet" x="299" y="-100"/>
<text text-anchor="start" x="314" y="-91.2" font-family="Helvetica,sans-Serif" font-size="11.00">undoes_withdrawal_id</text>
<polygon fill="none" stroke="black" points="294,-65 294,-83 448,-83 448,-65 294,-65"/>
<text text-anchor="start" x="297" y="-71.2" font-family="Helvetica,sans-Serif" font-size="11.00">...</text>
<polygon fill="#ffffff" stroke="transparent" points="294,-47 294,-65 364,-65 364,-47 294,-47"/>
<polygon fill="none" stroke="black" points="294,-47 294,-65 364,-65 364,-47 294,-47"/>
<text text-anchor="start" x="297" y="-53.2" font-family="Helvetica,sans-Serif" font-size="11.00">&lt; 2</text>
<polygon fill="#ffffff" stroke="transparent" points="364,-47 364,-65 401,-65 401,-47 364,-47"/>
<polygon fill="none" stroke="black" points="364,-47 364,-65 401,-65 401,-47 364,-47"/>
<text text-anchor="start" x="391" y="-53.2" font-family="Helvetica,sans-Serif" font-size="11.00"> &#160;</text>
<polygon fill="#ffffff" stroke="transparent" points="401,-47 401,-65 448,-65 448,-47 401,-47"/>
<polygon fill="none" stroke="black" points="401,-47 401,-65 448,-65 448,-47 401,-47"/>
<text text-anchor="start" x="429" y="-53.2" font-family="Helvetica,sans-Serif" font-size="11.00">5 &gt;</text>
</a>
</g>
</g>
<!-- batch_quantity_history&#45;&gt;withdrawals -->
<g id="edge6" class="edge">
<title>batch_quantity_history:w&#45;&gt;withdrawals:e</title>
<path fill="none" stroke="black" d="M585.44,-221.37C528.46,-216.28 513.27,-182 449,-182"/>
<polygon fill="black" stroke="black" points="592.01,-221.66 599.84,-225.6 596,-221.83 600,-222 600,-222 600,-222 596,-221.83 600.16,-218.4 592.01,-221.66 592.01,-221.66"/>
<ellipse fill="none" stroke="black" cx="588.81" cy="-221.52" rx="3.2" ry="3.2"/>
</g>
<!-- withdrawal_purposes -->
<g id="node11" class="node">
<title>withdrawal_purposes</title>
<g id="a_node11"><a xlink:href="../../tables/withdrawal_purposes.html" xlink:title="withdrawal_purposes" target="_top">
<polygon fill="#ffffff" stroke="transparent" points="14,-111 14,-169 186,-169 186,-111 14,-111"/>
<polygon fill="#f5f5f5" stroke="transparent" points="14,-147 14,-169 186,-169 186,-147 14,-147"/>
<polygon fill="none" stroke="black" points="14,-147 14,-169 186,-169 186,-147 14,-147"/>
<text text-anchor="start" x="19" y="-156.2" font-family="Helvetica,sans-Serif" font-weight="bold" font-size="11.00">withdrawal_purposes</text>
<text text-anchor="start" x="147" y="-155.2" font-family="Helvetica,sans-Serif" font-size="11.00">[table]</text>
<polygon fill="none" stroke="black" points="14,-129 14,-147 186,-147 186,-129 14,-129"/>
<text text-anchor="start" x="17" y="-135.2" font-family="Helvetica,sans-Serif" font-size="11.00">...</text>
<polygon fill="#ffffff" stroke="transparent" points="14,-111 14,-129 89,-129 89,-111 14,-111"/>
<polygon fill="none" stroke="black" points="14,-111 14,-129 89,-129 89,-111 14,-111"/>
<text text-anchor="start" x="17" y="-117.2" font-family="Helvetica,sans-Serif" font-size="11.00"> &#160;</text>
<polygon fill="#ffffff" stroke="transparent" points="89,-111 89,-129 133,-129 133,-111 89,-111"/>
<polygon fill="none" stroke="black" points="89,-111 89,-129 133,-129 133,-111 89,-111"/>
<text text-anchor="start" x="123" y="-117.2" font-family="Helvetica,sans-Serif" font-size="11.00"> &#160;</text>
<polygon fill="#ffffff" stroke="transparent" points="133,-111 133,-129 186,-129 186,-111 133,-111"/>
<polygon fill="none" stroke="black" points="133,-111 133,-129 186,-129 186,-111 133,-111"/>
<text text-anchor="start" x="167" y="-117.2" font-family="Helvetica,sans-Serif" font-size="11.00">1 &gt;</text>
</a>
</g>
</g>
<!-- withdrawals&#45;&gt;withdrawal_purposes -->
<g id="edge15" class="edge">
<title>withdrawals:w&#45;&gt;withdrawal_purposes:e</title>
<path fill="none" stroke="black" d="M278.25,-138C242.77,-138 228.77,-138 187,-138"/>
<polygon fill="black" stroke="black" points="285,-138 293,-141.6 289,-138 293,-138 293,-138 293,-138 289,-138 293,-134.4 285,-138 285,-138"/>
<ellipse fill="none" stroke="black" cx="281.8" cy="-138" rx="3.2" ry="3.2"/>
</g>
<!-- batch_sub_locations -->
<g id="node8" class="node">
<title>batch_sub_locations</title>
<g id="a_node8"><a xlink:href="../../tables/batch_sub_locations.html" xlink:title="batch_sub_locations" target="_top">
<polygon fill="#ffffff" stroke="transparent" points="609,-274 609,-332 773,-332 773,-274 609,-274"/>
<polygon fill="#f5f5f5" stroke="transparent" points="609,-310 609,-332 773,-332 773,-310 609,-310"/>
<polygon fill="none" stroke="black" points="609,-310 609,-332 773,-332 773,-310 609,-310"/>
<text text-anchor="start" x="614" y="-319.2" font-family="Helvetica,sans-Serif" font-weight="bold" font-size="11.00">batch_sub_locations</text>
<text text-anchor="start" x="734" y="-318.2" font-family="Helvetica,sans-Serif" font-size="11.00">[table]</text>
<polygon fill="none" stroke="black" points="609,-292 609,-310 773,-310 773,-292 609,-292"/>
<text text-anchor="start" x="612" y="-298.2" font-family="Helvetica,sans-Serif" font-size="11.00">...</text>
<polygon fill="#ffffff" stroke="transparent" points="609,-274 609,-292 689,-292 689,-274 609,-274"/>
<polygon fill="none" stroke="black" points="609,-274 609,-292 689,-292 689,-274 609,-274"/>
<text text-anchor="start" x="612" y="-280.2" font-family="Helvetica,sans-Serif" font-size="11.00">&lt; 2</text>
<polygon fill="#ffffff" stroke="transparent" points="689,-274 689,-292 731,-292 731,-274 689,-274"/>
<polygon fill="none" stroke="black" points="689,-274 689,-292 731,-292 731,-274 689,-274"/>
<text text-anchor="start" x="721" y="-280.2" font-family="Helvetica,sans-Serif" font-size="11.00"> &#160;</text>
<polygon fill="#ffffff" stroke="transparent" points="731,-274 731,-292 773,-292 773,-274 731,-274"/>
<polygon fill="none" stroke="black" points="731,-274 731,-292 773,-292 773,-274 731,-274"/>
<text text-anchor="start" x="763" y="-280.2" font-family="Helvetica,sans-Serif" font-size="11.00"> &#160;</text>
</a>
</g>
</g>
<!-- batch_sub_locations&#45;&gt;batches -->
<g id="edge7" class="edge">
<title>batch_sub_locations:w&#45;&gt;batches:e</title>
<path fill="none" stroke="black" d="M593.6,-301.93C569.47,-305.38 558.51,-318.58 542,-343 514.91,-383.08 550.38,-557 502,-557"/>
<polygon fill="black" stroke="black" points="600.02,-301.51 608.23,-304.59 604.01,-301.26 608,-301 608,-301 608,-301 604.01,-301.26 607.77,-297.41 600.02,-301.51 600.02,-301.51"/>
<ellipse fill="none" stroke="black" cx="596.82" cy="-301.72" rx="3.2" ry="3.2"/>
</g>
<!-- batch_sub_locations&#45;&gt;batches -->
<g id="edge8" class="edge">
<title>batch_sub_locations:w&#45;&gt;batches:e</title>
<path fill="none" stroke="black" d="M593.31,-302C569.54,-305.63 558.99,-319.08 542,-343 497.05,-406.28 579.62,-513 502,-513"/>
<polygon fill="black" stroke="black" points="600.02,-301.55 608.25,-304.59 604.01,-301.27 608,-301 608,-301 608,-301 604.01,-301.27 607.75,-297.41 600.02,-301.55 600.02,-301.55"/>
<ellipse fill="none" stroke="black" cx="596.83" cy="-301.76" rx="3.2" ry="3.2"/>
</g>
<!-- batch_withdrawals -->
<g id="node9" class="node">
<title>batch_withdrawals</title>
<g id="a_node9"><a xlink:href="../../tables/batch_withdrawals.html" xlink:title="batch_withdrawals" target="_top">
<polygon fill="#ffffff" stroke="transparent" points="550,-353 550,-551 832,-551 832,-353 550,-353"/>
<polygon fill="#f5f5f5" stroke="transparent" points="552,-527 552,-549 830,-549 830,-527 552,-527"/>
<polygon fill="none" stroke="black" points="552,-527 552,-549 830,-549 830,-527 552,-527"/>
<text text-anchor="start" x="557" y="-536.2" font-family="Helvetica,sans-Serif" font-weight="bold" font-size="11.00">batch_withdrawals</text>
<text text-anchor="start" x="791" y="-535.2" font-family="Helvetica,sans-Serif" font-size="11.00">[table]</text>
<polygon fill="none" stroke="black" points="552,-505 552,-527 784,-527 784,-505 552,-505"/>
<image xlink:href="../../images/primaryKeys.png" width="11px" height="12px" preserveAspectRatio="xMinYMin meet" x="557" y="-522"/>
<text text-anchor="start" x="572" y="-513.2" font-family="Helvetica,sans-Serif" font-size="11.00">batch_id</text>
<polygon fill="none" stroke="black" points="784,-505 784,-527 830,-527 830,-505 784,-505"/>
<text text-anchor="start" x="787" y="-513.2" font-family="Helvetica,sans-Serif" font-size="11.00">int8[19]</text>
<polygon fill="none" stroke="black" points="552,-483 552,-505 784,-505 784,-483 552,-483"/>
<image xlink:href="../../images/primaryKeys.png" width="11px" height="12px" preserveAspectRatio="xMinYMin meet" x="557" y="-500"/>
<text text-anchor="start" x="572" y="-491.2" font-family="Helvetica,sans-Serif" font-size="11.00">withdrawal_id</text>
<polygon fill="none" stroke="black" points="784,-483 784,-505 830,-505 830,-483 784,-483"/>
<text text-anchor="start" x="787" y="-491.2" font-family="Helvetica,sans-Serif" font-size="11.00">int8[19]</text>
<polygon fill="none" stroke="black" points="552,-461 552,-483 784,-483 784,-461 552,-461"/>
<text text-anchor="start" x="572" y="-469.2" font-family="Helvetica,sans-Serif" font-size="11.00">germinating_quantity_withdrawn</text>
<polygon fill="none" stroke="black" points="784,-461 784,-483 830,-483 830,-461 784,-461"/>
<text text-anchor="start" x="787" y="-469.2" font-family="Helvetica,sans-Serif" font-size="11.00">int4[10]</text>
<polygon fill="none" stroke="black" points="552,-439 552,-461 784,-461 784,-439 552,-439"/>
<text text-anchor="start" x="572" y="-447.2" font-family="Helvetica,sans-Serif" font-size="11.00">active_growth_quantity_withdrawn</text>
<polygon fill="none" stroke="black" points="784,-439 784,-461 830,-461 830,-439 784,-439"/>
<text text-anchor="start" x="787" y="-447.2" font-family="Helvetica,sans-Serif" font-size="11.00">int4[10]</text>
<polygon fill="none" stroke="black" points="552,-417 552,-439 784,-439 784,-417 552,-417"/>
<text text-anchor="start" x="572" y="-425.2" font-family="Helvetica,sans-Serif" font-size="11.00">ready_quantity_withdrawn</text>
<polygon fill="none" stroke="black" points="784,-417 784,-439 830,-439 830,-417 784,-417"/>
<text text-anchor="start" x="787" y="-425.2" font-family="Helvetica,sans-Serif" font-size="11.00">int4[10]</text>
<polygon fill="#ffffff" stroke="transparent" points="552,-395 552,-417 784,-417 784,-395 552,-395"/>
<polygon fill="none" stroke="black" points="552,-395 552,-417 784,-417 784,-395 552,-395"/>
<image xlink:href="../../images/foreignKeys.png" width="11px" height="12px" preserveAspectRatio="xMinYMin meet" x="557" y="-412"/>
<text text-anchor="start" x="572" y="-403.2" font-family="Helvetica,sans-Serif" font-size="11.00">destination_batch_id</text>
<polygon fill="none" stroke="black" points="784,-395 784,-417 830,-417 830,-395 784,-395"/>
<text text-anchor="start" x="787" y="-403.2" font-family="Helvetica,sans-Serif" font-size="11.00">int8[19]</text>
<polygon fill="none" stroke="black" points="552,-373 552,-395 784,-395 784,-373 552,-373"/>
<text text-anchor="start" x="572" y="-381.2" font-family="Helvetica,sans-Serif" font-size="11.00">hardening_off_quantity_withdrawn</text>
<polygon fill="none" stroke="black" points="784,-373 784,-395 830,-395 830,-373 784,-373"/>
<text text-anchor="start" x="787" y="-381.2" font-family="Helvetica,sans-Serif" font-size="11.00">int4[10]</text>
<polygon fill="#ffffff" stroke="transparent" points="552,-355 552,-373 672,-373 672,-355 552,-355"/>
<polygon fill="none" stroke="black" points="552,-355 552,-373 672,-373 672,-355 552,-355"/>
<text text-anchor="start" x="555" y="-361.2" font-family="Helvetica,sans-Serif" font-size="11.00">&lt; 3</text>
<polygon fill="#ffffff" stroke="transparent" points="672,-355 672,-373 784,-373 784,-355 672,-355"/>
<polygon fill="none" stroke="black" points="672,-355 672,-373 784,-373 784,-355 672,-355"/>
<text text-anchor="start" x="774" y="-361.2" font-family="Helvetica,sans-Serif" font-size="11.00"> &#160;</text>
<polygon fill="#ffffff" stroke="transparent" points="784,-355 784,-373 830,-373 830,-355 784,-355"/>
<polygon fill="none" stroke="black" points="784,-355 784,-373 830,-373 830,-355 784,-355"/>
<text text-anchor="start" x="811" y="-361.2" font-family="Helvetica,sans-Serif" font-size="11.00">0 &gt;</text>
<polygon fill="none" stroke="black" stroke-width="2" points="551,-354 551,-550 831,-550 831,-354 551,-354"/>
</a>
</g>
</g>
<!-- batch_withdrawals&#45;&gt;batches -->
<g id="edge9" class="edge">
<title>batch_withdrawals:w&#45;&gt;batches:e</title>
<path fill="none" stroke="black" d="M537.18,-520.7C524.28,-531.47 524.41,-557 502,-557"/>
<polygon fill="black" stroke="black" points="543.43,-518.58 552.16,-519.41 547.21,-517.29 551,-516 551,-516 551,-516 547.21,-517.29 549.84,-512.59 543.43,-518.58 543.43,-518.58"/>
<ellipse fill="none" stroke="black" cx="540.4" cy="-519.61" rx="3.2" ry="3.2"/>
</g>
<!-- batch_withdrawals&#45;&gt;batches -->
<g id="edge10" class="edge">
<title>batch_withdrawals:w&#45;&gt;batches:e</title>
<path fill="none" stroke="black" d="M536.74,-408.88C494.46,-429.76 566.77,-557 502,-557"/>
<polygon fill="black" stroke="black" points="543.16,-407.58 551.71,-409.53 547.08,-406.79 551,-406 551,-406 551,-406 547.08,-406.79 550.29,-402.47 543.16,-407.58 543.16,-407.58"/>
<ellipse fill="none" stroke="black" cx="540.02" cy="-408.22" rx="3.2" ry="3.2"/>
</g>
<!-- batch_withdrawals&#45;&gt;withdrawals -->
<g id="edge11" class="edge">
<title>batch_withdrawals:w&#45;&gt;withdrawals:e</title>
<path fill="none" stroke="black" d="M536.56,-492.62C481.24,-480.59 531.83,-392.66 509,-324 487.38,-258.99 517.51,-182 449,-182"/>
<polygon fill="black" stroke="black" points="543.04,-493.24 550.66,-497.58 547.02,-493.62 551,-494 551,-494 551,-494 547.02,-493.62 551.34,-490.42 543.04,-493.24 543.04,-493.24"/>
<ellipse fill="none" stroke="black" cx="539.85" cy="-492.93" rx="3.2" ry="3.2"/>
</g>
<!-- withdrawal_photos -->
<g id="node10" class="node">
<title>withdrawal_photos</title>
<g id="a_node10"><a xlink:href="../../tables/withdrawal_photos.html" xlink:title="withdrawal_photos" target="_top">
<polygon fill="#ffffff" stroke="transparent" points="612,-116 612,-174 770,-174 770,-116 612,-116"/>
<polygon fill="#f5f5f5" stroke="transparent" points="612,-152 612,-174 770,-174 770,-152 612,-152"/>
<polygon fill="none" stroke="black" points="612,-152 612,-174 770,-174 770,-152 612,-152"/>
<text text-anchor="start" x="617" y="-161.2" font-family="Helvetica,sans-Serif" font-weight="bold" font-size="11.00">withdrawal_photos</text>
<text text-anchor="start" x="731" y="-160.2" font-family="Helvetica,sans-Serif" font-size="11.00">[table]</text>
<polygon fill="none" stroke="black" points="612,-134 612,-152 770,-152 770,-134 612,-134"/>
<text text-anchor="start" x="615" y="-140.2" font-family="Helvetica,sans-Serif" font-size="11.00">...</text>
<polygon fill="#ffffff" stroke="transparent" points="612,-116 612,-134 689,-134 689,-116 612,-116"/>
<polygon fill="none" stroke="black" points="612,-116 612,-134 689,-134 689,-116 612,-116"/>
<text text-anchor="start" x="615" y="-122.2" font-family="Helvetica,sans-Serif" font-size="11.00">&lt; 2</text>
<polygon fill="#ffffff" stroke="transparent" points="689,-116 689,-134 729,-134 729,-116 689,-116"/>
<polygon fill="none" stroke="black" points="689,-116 689,-134 729,-134 729,-116 689,-116"/>
<text text-anchor="start" x="719" y="-122.2" font-family="Helvetica,sans-Serif" font-size="11.00"> &#160;</text>
<polygon fill="#ffffff" stroke="transparent" points="729,-116 729,-134 770,-134 770,-116 729,-116"/>
<polygon fill="none" stroke="black" points="729,-116 729,-134 770,-134 770,-116 729,-116"/>
<text text-anchor="start" x="760" y="-122.2" font-family="Helvetica,sans-Serif" font-size="11.00"> &#160;</text>
</a>
</g>
</g>
<!-- withdrawal_photos&#45;&gt;withdrawals -->
<g id="edge14" class="edge">
<title>withdrawal_photos:w&#45;&gt;withdrawals:e</title>
<path fill="none" stroke="black" d="M596.23,-143.55C534.69,-148.29 517.85,-182 449,-182"/>
<polygon fill="black" stroke="black" points="603.01,-143.3 611.13,-146.6 607,-143.15 611,-143 611,-143 611,-143 607,-143.15 610.87,-139.4 603.01,-143.3 603.01,-143.3"/>
<ellipse fill="none" stroke="black" cx="599.81" cy="-143.42" rx="3.2" ry="3.2"/>
</g>
<!-- seedbank.withdrawals -->
<g id="node12" class="node">
<title>seedbank.withdrawals</title>
<g id="a_node12"><a xlink:href="../../../seedbank/tables/withdrawals.html" xlink:title="seedbank.withdrawals" target="_top">
<polygon fill="#ffffff" stroke="transparent" points="601.5,-572 601.5,-630 780.5,-630 780.5,-572 601.5,-572"/>
<polygon fill="#f5f5f5" stroke="transparent" points="602,-608 602,-630 781,-630 781,-608 602,-608"/>
<polygon fill="none" stroke="black" points="602,-608 602,-630 781,-630 781,-608 602,-608"/>
<text text-anchor="start" x="607" y="-617.2" font-family="Helvetica,sans-Serif" font-weight="bold" font-size="11.00">seedbank.withdrawals</text>
<text text-anchor="start" x="742" y="-616.2" font-family="Helvetica,sans-Serif" font-size="11.00">[table]</text>
<polygon fill="none" stroke="black" points="602,-590 602,-608 781,-608 781,-590 602,-590"/>
<text text-anchor="start" x="605" y="-596.2" font-family="Helvetica,sans-Serif" font-size="11.00">...</text>
<polygon fill="#ffffff" stroke="transparent" points="602,-572 602,-590 676,-590 676,-572 602,-572"/>
<polygon fill="none" stroke="black" points="602,-572 602,-590 676,-590 676,-572 602,-572"/>
<text text-anchor="start" x="605" y="-578.2" font-family="Helvetica,sans-Serif" font-size="11.00">&lt; 1</text>
<polygon fill="#ffffff" stroke="transparent" points="676,-572 676,-590 742,-590 742,-572 676,-572"/>
<polygon fill="none" stroke="black" points="676,-572 676,-590 742,-590 742,-572 676,-572"/>
<text text-anchor="start" x="705" y="-578.2" font-family="Helvetica,sans-Serif" font-size="11.00">0 rows</text>
<polygon fill="#ffffff" stroke="transparent" points="742,-572 742,-590 781,-590 781,-572 742,-572"/>
<polygon fill="none" stroke="black" points="742,-572 742,-590 781,-590 781,-572 742,-572"/>
<text text-anchor="start" x="771" y="-578.2" font-family="Helvetica,sans-Serif" font-size="11.00"> &#160;</text>
</a>
</g>
</g>
<!-- seedbank.withdrawals&#45;&gt;batches -->
<g id="edge16" class="edge">
<title>seedbank.withdrawals:w&#45;&gt;batches:e</title>
<path fill="none" stroke="black" d="M586.34,-597.51C551.86,-590.02 544.38,-557 502,-557"/>
<polygon fill="black" stroke="black" points="593.04,-598.19 600.63,-602.58 597.02,-598.59 601,-599 601,-599 601,-599 597.02,-598.59 601.37,-595.42 593.04,-598.19 593.04,-598.19"/>
<ellipse fill="none" stroke="black" cx="589.86" cy="-597.86" rx="3.2" ry="3.2"/>
</g>
<!-- tracking.deliveries -->
<g id="node13" class="node">
<title>tracking.deliveries</title>
<g id="a_node13"><a xlink:href="../../../tracking/tables/deliveries.html" xlink:title="tracking.deliveries" target="_top">
<polygon fill="#ffffff" stroke="transparent" points="613.5,-37 613.5,-95 768.5,-95 768.5,-37 613.5,-37"/>
<polygon fill="#f5f5f5" stroke="transparent" points="614,-73 614,-95 769,-95 769,-73 614,-73"/>
<polygon fill="none" stroke="black" points="614,-73 614,-95 769,-95 769,-73 614,-73"/>
<text text-anchor="start" x="619" y="-82.2" font-family="Helvetica,sans-Serif" font-weight="bold" font-size="11.00">tracking.deliveries</text>
<text text-anchor="start" x="730" y="-81.2" font-family="Helvetica,sans-Serif" font-size="11.00">[table]</text>
<polygon fill="none" stroke="black" points="614,-55 614,-73 769,-73 769,-55 614,-55"/>
<text text-anchor="start" x="617" y="-61.2" font-family="Helvetica,sans-Serif" font-size="11.00">...</text>
<polygon fill="#ffffff" stroke="transparent" points="614,-37 614,-55 676,-55 676,-37 614,-37"/>
<polygon fill="none" stroke="black" points="614,-37 614,-55 676,-55 676,-37 614,-37"/>
<text text-anchor="start" x="617" y="-43.2" font-family="Helvetica,sans-Serif" font-size="11.00">&lt; 1</text>
<polygon fill="#ffffff" stroke="transparent" points="676,-37 676,-55 736,-55 736,-37 676,-37"/>
<polygon fill="none" stroke="black" points="676,-37 676,-55 736,-55 736,-37 676,-37"/>
<text text-anchor="start" x="699" y="-43.2" font-family="Helvetica,sans-Serif" font-size="11.00">0 rows</text>
<polygon fill="#ffffff" stroke="transparent" points="736,-37 736,-55 769,-55 769,-37 736,-37"/>
<polygon fill="none" stroke="black" points="736,-37 736,-55 769,-55 769,-37 736,-37"/>
<text text-anchor="start" x="759" y="-43.2" font-family="Helvetica,sans-Serif" font-size="11.00"> &#160;</text>
</a>
</g>
</g>
<!-- tracking.deliveries&#45;&gt;withdrawals -->
<g id="edge17" class="edge">
<title>tracking.deliveries:w&#45;&gt;withdrawals:e</title>
<path fill="none" stroke="black" d="M598.36,-65.34C574.56,-70.17 567.36,-87.37 542,-105 497.94,-135.64 502.66,-182 449,-182"/>
<polygon fill="black" stroke="black" points="605.03,-64.73 613.33,-67.59 609.02,-64.36 613,-64 613,-64 613,-64 609.02,-64.36 612.67,-60.41 605.03,-64.73 605.03,-64.73"/>
<ellipse fill="none" stroke="black" cx="601.85" cy="-65.02" rx="3.2" ry="3.2"/>
</g>
</g>
</svg>
