<?xml version="1.0" encoding="UTF-8" standalone="no"?>
<!DOCTYPE svg PUBLIC "-//W3C//DTD SVG 1.1//EN"
 "http://www.w3.org/Graphics/SVG/1.1/DTD/svg11.dtd">
<!-- Generated by graphviz version 2.38.0 (20140413.2041)
 -->
<!-- Title: twoDegreesRelationshipsDiagram Pages: 1 -->
<svg width="829pt" height="622pt"
 viewBox="0.00 0.00 829.00 622.00" xmlns="http://www.w3.org/2000/svg" xmlns:xlink="http://www.w3.org/1999/xlink">
<g id="graph0" class="graph" transform="scale(1 1) rotate(0) translate(4 618)">
<title>twoDegreesRelationshipsDiagram</title>
<polygon fill="#ffffff" stroke="none" points="-4,4 -4,-618 825,-618 825,4 -4,4"/>
<text text-anchor="middle" x="74.5" y="-7.2" font-family="Helvetica,sans-Serif" font-size="11.00">Generated by SchemaSpy</text>
<!-- batch_details_history -->
<g id="node1" class="node"><title>batch_details_history</title>
<g id="a_node1"><a xlink:href="../../tables/batch_details_history.html" xlink:title="batch_details_history" target="_top">
<polygon fill="#ffffff" stroke="none" points="591.5,-552 591.5,-610 761.5,-610 761.5,-552 591.5,-552"/>
<polygon fill="#f5f5f5" stroke="none" points="591.5,-588 591.5,-610 761.5,-610 761.5,-588 591.5,-588"/>
<polygon fill="none" stroke="black" points="591.5,-588 591.5,-610 761.5,-610 761.5,-588 591.5,-588"/>
<text text-anchor="start" x="596.5" y="-597.2" font-family="Helvetica,sans-Serif" font-weight="bold" font-size="11.00">batch_details_history</text>
<text text-anchor="start" x="722.5" y="-596.2" font-family="Helvetica,sans-Serif" font-size="11.00">[table]</text>
<polygon fill="none" stroke="black" points="591.5,-570 591.5,-588 761.5,-588 761.5,-570 591.5,-570"/>
<text text-anchor="start" x="594.5" y="-576.2" font-family="Helvetica,sans-Serif" font-size="11.00">...</text>
<polygon fill="#ffffff" stroke="none" points="591.5,-552 591.5,-570 655.5,-570 655.5,-552 591.5,-552"/>
<polygon fill="none" stroke="black" points="591.5,-552 591.5,-570 655.5,-570 655.5,-552 591.5,-552"/>
<text text-anchor="start" x="594.5" y="-558.2" font-family="Helvetica,sans-Serif" font-size="11.00">&lt; 3</text>
<polygon fill="#ffffff" stroke="none" points="655.5,-552 655.5,-570 717.5,-570 717.5,-552 655.5,-552"/>
<polygon fill="none" stroke="black" points="655.5,-552 655.5,-570 717.5,-570 717.5,-552 655.5,-552"/>
<text text-anchor="start" x="678.5" y="-558.2" font-family="Helvetica,sans-Serif" font-size="11.00">0 rows</text>
<polygon fill="#ffffff" stroke="none" points="717.5,-552 717.5,-570 761.5,-570 761.5,-552 717.5,-552"/>
<polygon fill="none" stroke="black" points="717.5,-552 717.5,-570 761.5,-570 761.5,-552 717.5,-552"/>
<text text-anchor="start" x="741.5" y="-558.2" font-family="Helvetica,sans-Serif" font-size="11.00">1 &gt;</text>
</a>
</g>
</g>
<!-- batches -->
<g id="node2" class="node"><title>batches</title>
<g id="a_node2"><a xlink:href="../../tables/batches.html" xlink:title="batches" target="_top">
<polygon fill="#ffffff" stroke="none" points="241,-213 241,-469 491,-469 491,-213 241,-213"/>
<polygon fill="#f5f5f5" stroke="none" points="241,-447 241,-469 491,-469 491,-447 241,-447"/>
<polygon fill="none" stroke="black" points="241,-447 241,-469 491,-469 491,-447 241,-447"/>
<text text-anchor="start" x="246" y="-456.2" font-family="Helvetica,sans-Serif" font-weight="bold" font-size="11.00">batches</text>
<text text-anchor="start" x="452" y="-455.2" font-family="Helvetica,sans-Serif" font-size="11.00">[table]</text>
<polygon fill="none" stroke="black" points="241,-425 241,-447 491,-447 491,-425 241,-425"/>
<image xlink:href="../../images/primaryKeys.png" width="11px" height="12px" preserveAspectRatio="xMinYMin meet" x="246" y="-442"/>
<text text-anchor="start" x="261" y="-433.2" font-family="Helvetica,sans-Serif" font-size="11.00">id</text>
<polygon fill="#ffffff" stroke="none" points="241,-403 241,-425 491,-425 491,-403 241,-403"/>
<polygon fill="none" stroke="black" points="241,-403 241,-425 491,-425 491,-403 241,-403"/>
<text text-anchor="start" x="261" y="-411.2" font-family="Helvetica,sans-Serif" font-size="11.00">organization_id</text>
<polygon fill="#ffffff" stroke="none" points="241,-381 241,-403 491,-403 491,-381 241,-381"/>
<polygon fill="none" stroke="black" points="241,-381 241,-403 491,-403 491,-381 241,-381"/>
<text text-anchor="start" x="261" y="-389.2" font-family="Helvetica,sans-Serif" font-size="11.00">facility_id</text>
<polygon fill="#ffffff" stroke="none" points="241,-359 241,-381 491,-381 491,-359 241,-359"/>
<polygon fill="none" stroke="black" points="241,-359 241,-381 491,-381 491,-359 241,-359"/>
<text text-anchor="start" x="261" y="-367.2" font-family="Helvetica,sans-Serif" font-size="11.00">species_id</text>
<polygon fill="#ffffff" stroke="none" points="241,-337 241,-359 491,-359 491,-337 241,-337"/>
<polygon fill="none" stroke="black" points="241,-337 241,-359 491,-359 491,-337 241,-337"/>
<text text-anchor="start" x="261" y="-345.2" font-family="Helvetica,sans-Serif" font-size="11.00">batch_number</text>
<polygon fill="#ffffff" stroke="none" points="241,-315 241,-337 491,-337 491,-315 241,-315"/>
<polygon fill="none" stroke="black" points="241,-315 241,-337 491,-337 491,-315 241,-315"/>
<text text-anchor="start" x="261" y="-323.2" font-family="Helvetica,sans-Serif" font-size="11.00">project_id</text>
<polygon fill="none" stroke="black" points="241,-293 241,-315 491,-315 491,-293 241,-293"/>
<image xlink:href="../../images/foreignKeys.png" width="11px" height="12px" preserveAspectRatio="xMinYMin meet" x="246" y="-310"/>
<text text-anchor="start" x="261" y="-301.2" font-family="Helvetica,sans-Serif" font-size="11.00">substrate_id</text>
<polygon fill="none" stroke="black" points="241,-271 241,-293 491,-293 491,-271 241,-271"/>
<image xlink:href="../../images/foreignKeys.png" width="11px" height="12px" preserveAspectRatio="xMinYMin meet" x="246" y="-288"/>
<text text-anchor="start" x="261" y="-279.2" font-family="Helvetica,sans-Serif" font-size="11.00">treatment_id</text>
<polygon fill="#ffffff" stroke="none" points="241,-249 241,-271 491,-271 491,-249 241,-249"/>
<polygon fill="none" stroke="black" points="241,-249 241,-271 491,-271 491,-249 241,-249"/>
<image xlink:href="../../images/foreignKeys.png" width="11px" height="12px" preserveAspectRatio="xMinYMin meet" x="246" y="-266"/>
<text text-anchor="start" x="261" y="-257.2" font-family="Helvetica,sans-Serif" font-size="11.00">initial_batch_id</text>
<polygon fill="none" stroke="black" points="241,-231 241,-249 491,-249 491,-231 241,-231"/>
<text text-anchor="start" x="244" y="-237.2" font-family="Helvetica,sans-Serif" font-size="11.00">...</text>
<polygon fill="#ffffff" stroke="none" points="241,-213 241,-231 345,-231 345,-213 241,-213"/>
<polygon fill="none" stroke="black" points="241,-213 241,-231 345,-231 345,-213 241,-213"/>
<text text-anchor="start" x="244" y="-219.2" font-family="Helvetica,sans-Serif" font-size="11.00">&lt; 3</text>
<polygon fill="#ffffff" stroke="none" points="345,-213 345,-231 427,-231 427,-213 345,-213"/>
<polygon fill="none" stroke="black" points="345,-213 345,-231 427,-231 427,-213 345,-213"/>
<text text-anchor="start" x="388" y="-219.2" font-family="Helvetica,sans-Serif" font-size="11.00">0 rows</text>
<polygon fill="#ffffff" stroke="none" points="427,-213 427,-231 491,-231 491,-213 427,-213"/>
<polygon fill="none" stroke="black" points="427,-213 427,-231 491,-231 491,-213 427,-213"/>
<text text-anchor="start" x="471" y="-219.2" font-family="Helvetica,sans-Serif" font-size="11.00">7 &gt;</text>
</a>
</g>
</g>
<!-- batch_details_history&#45;&gt;batches -->
<g id="edge1" class="edge"><title>batch_details_history:elipses:w&#45;&gt;batches:id:e</title>
<path fill="none" stroke="black" d="M575.897,-577.74C556.394,-573.928 547.943,-561.562 532,-542 500.188,-502.968 542.354,-436 492,-436"/>
<polygon fill="black" stroke="black" points="582.53,-578.312 590.191,-582.587 586.515,-578.656 590.5,-579 590.5,-579 590.5,-579 586.515,-578.656 590.809,-575.413 582.53,-578.312 582.53,-578.312"/>
<ellipse fill="none" stroke="black" cx="579.341" cy="-578.037" rx="3.2" ry="3.2"/>
</g>
<!-- batch_substrates -->
<g id="node3" class="node"><title>batch_substrates</title>
<g id="a_node3"><a xlink:href="../../tables/batch_substrates.html" xlink:title="batch_substrates" target="_top">
<polygon fill="#ffffff" stroke="none" points="27,-493 27,-551 173,-551 173,-493 27,-493"/>
<polygon fill="#f5f5f5" stroke="none" points="27,-529 27,-551 173,-551 173,-529 27,-529"/>
<polygon fill="none" stroke="black" points="27,-529 27,-551 173,-551 173,-529 27,-529"/>
<text text-anchor="start" x="32" y="-538.2" font-family="Helvetica,sans-Serif" font-weight="bold" font-size="11.00">batch_substrates</text>
<text text-anchor="start" x="134" y="-537.2" font-family="Helvetica,sans-Serif" font-size="11.00">[table]</text>
<polygon fill="none" stroke="black" points="27,-511 27,-529 173,-529 173,-511 27,-511"/>
<text text-anchor="start" x="30" y="-517.2" font-family="Helvetica,sans-Serif" font-size="11.00">...</text>
<polygon fill="#ffffff" stroke="none" points="27,-493 27,-511 74,-511 74,-493 27,-493"/>
<polygon fill="none" stroke="black" points="27,-493 27,-511 74,-511 74,-493 27,-493"/>
<text text-anchor="start" x="30" y="-499.2" font-family="Helvetica,sans-Serif" font-size="11.00"> &#160;</text>
<polygon fill="#ffffff" stroke="none" points="74,-493 74,-511 133,-511 133,-493 74,-493"/>
<polygon fill="none" stroke="black" points="74,-493 74,-511 133,-511 133,-493 74,-493"/>
<text text-anchor="start" x="94" y="-499.2" font-family="Helvetica,sans-Serif" font-size="11.00">6 rows</text>
<polygon fill="#ffffff" stroke="none" points="133,-493 133,-511 173,-511 173,-493 133,-493"/>
<polygon fill="none" stroke="black" points="133,-493 133,-511 173,-511 173,-493 133,-493"/>
<text text-anchor="start" x="153" y="-499.2" font-family="Helvetica,sans-Serif" font-size="11.00">2 &gt;</text>
</a>
</g>
</g>
<!-- batch_details_history&#45;&gt;batch_substrates -->
<g id="edge2" class="edge"><title>batch_details_history:elipses:w&#45;&gt;batch_substrates:elipses:e</title>
<path fill="none" stroke="black" d="M575.851,-578.981C427.926,-578.571 384.433,-571.512 233,-539 206.065,-533.217 201.548,-520 174,-520"/>
<polygon fill="black" stroke="black" points="582.5,-578.989 590.495,-582.6 586.5,-578.995 590.5,-579 590.5,-579 590.5,-579 586.5,-578.995 590.505,-575.4 582.5,-578.989 582.5,-578.989"/>
<ellipse fill="none" stroke="black" cx="579.3" cy="-578.985" rx="3.2" ry="3.2"/>
</g>
<!-- public.seed_treatments -->
<g id="node4" class="node"><title>public.seed_treatments</title>
<g id="a_node4"><a xlink:href="../../../public/tables/seed_treatments.html" xlink:title="public.seed_treatments" target="_top">
<polygon fill="#ffffff" stroke="none" points="8,-308 8,-366 192,-366 192,-308 8,-308"/>
<polygon fill="#f5f5f5" stroke="none" points="8,-344 8,-366 192,-366 192,-344 8,-344"/>
<polygon fill="none" stroke="black" points="8,-344 8,-366 192,-366 192,-344 8,-344"/>
<text text-anchor="start" x="13" y="-353.2" font-family="Helvetica,sans-Serif" font-weight="bold" font-size="11.00">public.seed_treatments</text>
<text text-anchor="start" x="153" y="-352.2" font-family="Helvetica,sans-Serif" font-size="11.00">[table]</text>
<polygon fill="none" stroke="black" points="8,-326 8,-344 192,-344 192,-326 8,-326"/>
<text text-anchor="start" x="11" y="-332.2" font-family="Helvetica,sans-Serif" font-size="11.00">...</text>
<polygon fill="#ffffff" stroke="none" points="8,-308 8,-326 74,-326 74,-308 8,-308"/>
<polygon fill="none" stroke="black" points="8,-308 8,-326 74,-326 74,-308 8,-308"/>
<text text-anchor="start" x="11" y="-314.2" font-family="Helvetica,sans-Serif" font-size="11.00"> &#160;</text>
<polygon fill="#ffffff" stroke="none" points="74,-308 74,-326 142,-326 142,-308 74,-308"/>
<polygon fill="none" stroke="black" points="74,-308 74,-326 142,-326 142,-308 74,-308"/>
<text text-anchor="start" x="103" y="-314.2" font-family="Helvetica,sans-Serif" font-size="11.00">0 rows</text>
<polygon fill="#ffffff" stroke="none" points="142,-308 142,-326 192,-326 192,-308 142,-308"/>
<polygon fill="none" stroke="black" points="142,-308 142,-326 192,-326 192,-308 142,-308"/>
<text text-anchor="start" x="172" y="-314.2" font-family="Helvetica,sans-Serif" font-size="11.00">2 &gt;</text>
</a>
</g>
</g>
<!-- batch_details_history&#45;&gt;public.seed_treatments -->
<g id="edge3" class="edge"><title>batch_details_history:elipses:w&#45;&gt;public.seed_treatments:elipses:e</title>
<path fill="none" stroke="black" d="M576.021,-577.948C544.487,-573.018 535.973,-551.941 499,-540 383.673,-502.754 320.699,-563.645 233,-480 184.624,-433.86 259.852,-335 193,-335"/>
<polygon fill="black" stroke="black" points="582.521,-578.42 590.239,-582.591 586.511,-578.71 590.5,-579 590.5,-579 590.5,-579 586.511,-578.71 590.761,-575.409 582.521,-578.42 582.521,-578.42"/>
<ellipse fill="none" stroke="black" cx="579.329" cy="-578.188" rx="3.2" ry="3.2"/>
</g>
<!-- batches&#45;&gt;batch_substrates -->
<g id="edge11" class="edge"><title>batches:substrate_id:w&#45;&gt;batch_substrates:elipses:e</title>
<path fill="none" stroke="black" d="M225.564,-305.867C153.655,-326.979 268.892,-520 174,-520"/>
<polygon fill="black" stroke="black" points="232.066,-305.026 240.462,-307.57 236.033,-304.513 240,-304 240,-304 240,-304 236.033,-304.513 239.538,-300.43 232.066,-305.026 232.066,-305.026"/>
<ellipse fill="none" stroke="black" cx="228.893" cy="-305.437" rx="3.2" ry="3.2"/>
</g>
<!-- batches&#45;&gt;public.seed_treatments -->
<g id="edge12" class="edge"><title>batches:treatment_id:w&#45;&gt;public.seed_treatments:elipses:e</title>
<path fill="none" stroke="black" d="M226.276,-287.276C212.944,-300.681 218.334,-335 193,-335"/>
<polygon fill="black" stroke="black" points="232.533,-284.87 241.292,-285.36 236.266,-283.435 240,-282 240,-282 240,-282 236.266,-283.435 238.708,-278.64 232.533,-284.87 232.533,-284.87"/>
<ellipse fill="none" stroke="black" cx="229.546" cy="-286.019" rx="3.20001" ry="3.20001"/>
</g>
<!-- batch_quantity_history -->
<g id="node5" class="node"><title>batch_quantity_history</title>
<g id="a_node5"><a xlink:href="../../tables/batch_quantity_history.html" xlink:title="batch_quantity_history" target="_top">
<polygon fill="#ffffff" stroke="none" points="586,-197 586,-255 767,-255 767,-197 586,-197"/>
<polygon fill="#f5f5f5" stroke="none" points="586.5,-233 586.5,-255 767.5,-255 767.5,-233 586.5,-233"/>
<polygon fill="none" stroke="black" points="586.5,-233 586.5,-255 767.5,-255 767.5,-233 586.5,-233"/>
<text text-anchor="start" x="591.5" y="-242.2" font-family="Helvetica,sans-Serif" font-weight="bold" font-size="11.00">batch_quantity_history</text>
<text text-anchor="start" x="728.5" y="-241.2" font-family="Helvetica,sans-Serif" font-size="11.00">[table]</text>
<polygon fill="none" stroke="black" points="586.5,-215 586.5,-233 767.5,-233 767.5,-215 586.5,-215"/>
<text text-anchor="start" x="589.5" y="-221.2" font-family="Helvetica,sans-Serif" font-size="11.00">...</text>
<polygon fill="#ffffff" stroke="none" points="586.5,-197 586.5,-215 660.5,-215 660.5,-197 586.5,-197"/>
<polygon fill="none" stroke="black" points="586.5,-197 586.5,-215 660.5,-215 660.5,-197 586.5,-197"/>
<text text-anchor="start" x="589.5" y="-203.2" font-family="Helvetica,sans-Serif" font-size="11.00">&lt; 3</text>
<polygon fill="#ffffff" stroke="none" points="660.5,-197 660.5,-215 728.5,-215 728.5,-197 660.5,-197"/>
<polygon fill="none" stroke="black" points="660.5,-197 660.5,-215 728.5,-215 728.5,-197 660.5,-197"/>
<text text-anchor="start" x="689.5" y="-203.2" font-family="Helvetica,sans-Serif" font-size="11.00">0 rows</text>
<polygon fill="#ffffff" stroke="none" points="728.5,-197 728.5,-215 767.5,-215 767.5,-197 728.5,-197"/>
<polygon fill="none" stroke="black" points="728.5,-197 728.5,-215 767.5,-215 767.5,-197 728.5,-197"/>
<text text-anchor="start" x="757.5" y="-203.2" font-family="Helvetica,sans-Serif" font-size="11.00"> &#160;</text>
</a>
</g>
</g>
<!-- batch_quantity_history&#45;&gt;batches -->
<g id="edge4" class="edge"><title>batch_quantity_history:elipses:w&#45;&gt;batches:id:e</title>
<path fill="none" stroke="black" d="M570.998,-225.624C552.386,-230.368 545.28,-245.198 532,-266 490.234,-331.424 569.619,-436 492,-436"/>
<polygon fill="black" stroke="black" points="577.55,-224.89 585.901,-227.578 581.525,-224.445 585.5,-224 585.5,-224 585.5,-224 581.525,-224.445 585.099,-220.422 577.55,-224.89 577.55,-224.89"/>
<ellipse fill="none" stroke="black" cx="574.37" cy="-225.246" rx="3.2" ry="3.2"/>
</g>
<!-- withdrawals -->
<g id="node6" class="node"><title>withdrawals</title>
<g id="a_node6"><a xlink:href="../../tables/withdrawals.html" xlink:title="withdrawals" target="_top">
<polygon fill="#ffffff" stroke="none" points="290,-37 290,-183 442,-183 442,-37 290,-37"/>
<polygon fill="#f5f5f5" stroke="none" points="290,-161 290,-183 442,-183 442,-161 290,-161"/>
<polygon fill="none" stroke="black" points="290,-161 290,-183 442,-183 442,-161 290,-161"/>
<text text-anchor="start" x="295" y="-170.2" font-family="Helvetica,sans-Serif" font-weight="bold" font-size="11.00">withdrawals</text>
<text text-anchor="start" x="403" y="-169.2" font-family="Helvetica,sans-Serif" font-size="11.00">[table]</text>
<polygon fill="none" stroke="black" points="290,-139 290,-161 442,-161 442,-139 290,-139"/>
<image xlink:href="../../images/primaryKeys.png" width="11px" height="12px" preserveAspectRatio="xMinYMin meet" x="295" y="-156"/>
<text text-anchor="start" x="310" y="-147.2" font-family="Helvetica,sans-Serif" font-size="11.00">id</text>
<polygon fill="#ffffff" stroke="none" points="290,-117 290,-139 442,-139 442,-117 290,-117"/>
<polygon fill="none" stroke="black" points="290,-117 290,-139 442,-139 442,-117 290,-117"/>
<text text-anchor="start" x="310" y="-125.2" font-family="Helvetica,sans-Serif" font-size="11.00">facility_id</text>
<polygon fill="none" stroke="black" points="290,-95 290,-117 442,-117 442,-95 290,-95"/>
<image xlink:href="../../images/foreignKeys.png" width="11px" height="12px" preserveAspectRatio="xMinYMin meet" x="295" y="-112"/>
<text text-anchor="start" x="310" y="-103.2" font-family="Helvetica,sans-Serif" font-size="11.00">purpose_id</text>
<polygon fill="#ffffff" stroke="none" points="290,-73 290,-95 442,-95 442,-73 290,-73"/>
<polygon fill="none" stroke="black" points="290,-73 290,-95 442,-95 442,-73 290,-73"/>
<text text-anchor="start" x="310" y="-81.2" font-family="Helvetica,sans-Serif" font-size="11.00">destination_facility_id</text>
<polygon fill="none" stroke="black" points="290,-55 290,-73 442,-73 442,-55 290,-55"/>
<text text-anchor="start" x="293" y="-61.2" font-family="Helvetica,sans-Serif" font-size="11.00">...</text>
<polygon fill="#ffffff" stroke="none" points="290,-37 290,-55 345,-55 345,-37 290,-37"/>
<polygon fill="none" stroke="black" points="290,-37 290,-55 345,-55 345,-37 290,-37"/>
<text text-anchor="start" x="293" y="-43.2" font-family="Helvetica,sans-Serif" font-size="11.00">&lt; 1</text>
<polygon fill="#ffffff" stroke="none" points="345,-37 345,-55 403,-55 403,-37 345,-37"/>
<polygon fill="none" stroke="black" points="345,-37 345,-55 403,-55 403,-37 345,-37"/>
<text text-anchor="start" x="364" y="-43.2" font-family="Helvetica,sans-Serif" font-size="11.00">0 rows</text>
<polygon fill="#ffffff" stroke="none" points="403,-37 403,-55 442,-55 442,-37 403,-37"/>
<polygon fill="none" stroke="black" points="403,-37 403,-55 442,-55 442,-37 403,-37"/>
<text text-anchor="start" x="422" y="-43.2" font-family="Helvetica,sans-Serif" font-size="11.00">4 &gt;</text>
</a>
</g>
</g>
<!-- batch_quantity_history&#45;&gt;withdrawals -->
<g id="edge5" class="edge"><title>batch_quantity_history:elipses:w&#45;&gt;withdrawals:id:e</title>
<path fill="none" stroke="black" d="M571.096,-222.896C513.795,-213.691 509.207,-150 443,-150"/>
<polygon fill="black" stroke="black" points="577.523,-223.389 585.225,-227.589 581.512,-223.694 585.5,-224 585.5,-224 585.5,-224 581.512,-223.694 585.775,-220.411 577.523,-223.389 577.523,-223.389"/>
<ellipse fill="none" stroke="black" cx="574.333" cy="-223.144" rx="3.2" ry="3.2"/>
</g>
<!-- withdrawal_purposes -->
<g id="node10" class="node"><title>withdrawal_purposes</title>
<g id="a_node10"><a xlink:href="../../tables/withdrawal_purposes.html" xlink:title="withdrawal_purposes" target="_top">
<polygon fill="#ffffff" stroke="none" points="14.5,-79 14.5,-137 185.5,-137 185.5,-79 14.5,-79"/>
<polygon fill="#f5f5f5" stroke="none" points="15,-115 15,-137 186,-137 186,-115 15,-115"/>
<polygon fill="none" stroke="black" points="15,-115 15,-137 186,-137 186,-115 15,-115"/>
<text text-anchor="start" x="20" y="-124.2" font-family="Helvetica,sans-Serif" font-weight="bold" font-size="11.00">withdrawal_purposes</text>
<text text-anchor="start" x="147" y="-123.2" font-family="Helvetica,sans-Serif" font-size="11.00">[table]</text>
<polygon fill="none" stroke="black" points="15,-97 15,-115 186,-115 186,-97 15,-97"/>
<text text-anchor="start" x="18" y="-103.2" font-family="Helvetica,sans-Serif" font-size="11.00">...</text>
<polygon fill="#ffffff" stroke="none" points="15,-79 15,-97 74,-97 74,-79 15,-79"/>
<polygon fill="none" stroke="black" points="15,-79 15,-97 74,-97 74,-79 15,-79"/>
<text text-anchor="start" x="18" y="-85.2" font-family="Helvetica,sans-Serif" font-size="11.00"> &#160;</text>
<polygon fill="#ffffff" stroke="none" points="74,-79 74,-97 139,-97 139,-79 74,-79"/>
<polygon fill="none" stroke="black" points="74,-79 74,-97 139,-97 139,-79 74,-79"/>
<text text-anchor="start" x="100" y="-85.2" font-family="Helvetica,sans-Serif" font-size="11.00">4 rows</text>
<polygon fill="#ffffff" stroke="none" points="139,-79 139,-97 186,-97 186,-79 139,-79"/>
<polygon fill="none" stroke="black" points="139,-79 139,-97 186,-97 186,-79 139,-79"/>
<text text-anchor="start" x="166" y="-85.2" font-family="Helvetica,sans-Serif" font-size="11.00">1 &gt;</text>
</a>
</g>
</g>
<!-- withdrawals&#45;&gt;withdrawal_purposes -->
<g id="edge14" class="edge"><title>withdrawals:purpose_id:w&#45;&gt;withdrawal_purposes:elipses:e</title>
<path fill="none" stroke="black" d="M274.354,-106C240.543,-106 227.021,-106 187,-106"/>
<polygon fill="black" stroke="black" points="281,-106 289,-109.6 285,-106 289,-106 289,-106 289,-106 285,-106 289,-102.4 281,-106 281,-106"/>
<ellipse fill="none" stroke="black" cx="277.8" cy="-106" rx="3.2" ry="3.2"/>
</g>
<!-- batch_sub_locations -->
<g id="node7" class="node"><title>batch_sub_locations</title>
<g id="a_node7"><a xlink:href="../../tables/batch_sub_locations.html" xlink:title="batch_sub_locations" target="_top">
<polygon fill="#ffffff" stroke="none" points="595,-276 595,-334 758,-334 758,-276 595,-276"/>
<polygon fill="#f5f5f5" stroke="none" points="595.5,-312 595.5,-334 758.5,-334 758.5,-312 595.5,-312"/>
<polygon fill="none" stroke="black" points="595.5,-312 595.5,-334 758.5,-334 758.5,-312 595.5,-312"/>
<text text-anchor="start" x="600.5" y="-321.2" font-family="Helvetica,sans-Serif" font-weight="bold" font-size="11.00">batch_sub_locations</text>
<text text-anchor="start" x="719.5" y="-320.2" font-family="Helvetica,sans-Serif" font-size="11.00">[table]</text>
<polygon fill="none" stroke="black" points="595.5,-294 595.5,-312 758.5,-312 758.5,-294 595.5,-294"/>
<text text-anchor="start" x="598.5" y="-300.2" font-family="Helvetica,sans-Serif" font-size="11.00">...</text>
<polygon fill="#ffffff" stroke="none" points="595.5,-276 595.5,-294 660.5,-294 660.5,-276 595.5,-276"/>
<polygon fill="none" stroke="black" points="595.5,-276 595.5,-294 660.5,-294 660.5,-276 595.5,-276"/>
<text text-anchor="start" x="598.5" y="-282.2" font-family="Helvetica,sans-Serif" font-size="11.00">&lt; 2</text>
<polygon fill="#ffffff" stroke="none" points="660.5,-276 660.5,-294 723.5,-294 723.5,-276 660.5,-276"/>
<polygon fill="none" stroke="black" points="660.5,-276 660.5,-294 723.5,-294 723.5,-276 660.5,-276"/>
<text text-anchor="start" x="684.5" y="-282.2" font-family="Helvetica,sans-Serif" font-size="11.00">0 rows</text>
<polygon fill="#ffffff" stroke="none" points="723.5,-276 723.5,-294 758.5,-294 758.5,-276 723.5,-276"/>
<polygon fill="none" stroke="black" points="723.5,-276 723.5,-294 758.5,-294 758.5,-276 723.5,-276"/>
<text text-anchor="start" x="748.5" y="-282.2" font-family="Helvetica,sans-Serif" font-size="11.00"> &#160;</text>
</a>
</g>
</g>
<!-- batch_sub_locations&#45;&gt;batches -->
<g id="edge6" class="edge"><title>batch_sub_locations:elipses:w&#45;&gt;batches:id:e</title>
<path fill="none" stroke="black" d="M579.944,-304.288C558.178,-308.61 549.951,-323.542 532,-345 503.653,-378.886 536.179,-436 492,-436"/>
<polygon fill="black" stroke="black" points="586.531,-303.705 594.817,-306.586 590.516,-303.353 594.5,-303 594.5,-303 594.5,-303 590.516,-303.353 594.183,-299.414 586.531,-303.705 586.531,-303.705"/>
<ellipse fill="none" stroke="black" cx="583.344" cy="-303.987" rx="3.2" ry="3.2"/>
</g>
<!-- batch_sub_locations&#45;&gt;batches -->
<g id="edge7" class="edge"><title>batch_sub_locations:elipses:w&#45;&gt;batches:facility_id:e</title>
<path fill="none" stroke="black" d="M580.18,-304.516C559.136,-309.538 552.872,-326.371 532,-345 511.536,-363.265 519.43,-392 492,-392"/>
<polygon fill="black" stroke="black" points="586.544,-303.842 594.879,-306.58 590.522,-303.421 594.5,-303 594.5,-303 594.5,-303 590.522,-303.421 594.121,-299.42 586.544,-303.842 586.544,-303.842"/>
<ellipse fill="none" stroke="black" cx="583.362" cy="-304.179" rx="3.2" ry="3.2"/>
</g>
<!-- batch_withdrawals -->
<g id="node8" class="node"><title>batch_withdrawals</title>
<g id="a_node8"><a xlink:href="../../tables/batch_withdrawals.html" xlink:title="batch_withdrawals" target="_top">
<polygon fill="#ffffff" stroke="none" points="540,-355 540,-531 813,-531 813,-355 540,-355"/>
<polygon fill="#f5f5f5" stroke="none" points="542.5,-507 542.5,-529 811.5,-529 811.5,-507 542.5,-507"/>
<polygon fill="none" stroke="black" points="542.5,-507 542.5,-529 811.5,-529 811.5,-507 542.5,-507"/>
<text text-anchor="start" x="547.5" y="-516.2" font-family="Helvetica,sans-Serif" font-weight="bold" font-size="11.00">batch_withdrawals</text>
<text text-anchor="start" x="772.5" y="-515.2" font-family="Helvetica,sans-Serif" font-size="11.00">[table]</text>
<polygon fill="none" stroke="black" points="542.5,-485 542.5,-507 763.5,-507 763.5,-485 542.5,-485"/>
<image xlink:href="../../images/primaryKeys.png" width="11px" height="12px" preserveAspectRatio="xMinYMin meet" x="547.5" y="-502"/>
<text text-anchor="start" x="562.5" y="-493.2" font-family="Helvetica,sans-Serif" font-size="11.00">batch_id</text>
<polygon fill="none" stroke="black" points="763.5,-485 763.5,-507 811.5,-507 811.5,-485 763.5,-485"/>
<text text-anchor="start" x="766.5" y="-493.2" font-family="Helvetica,sans-Serif" font-size="11.00">int8[19]</text>
<polygon fill="none" stroke="black" points="542.5,-463 542.5,-485 763.5,-485 763.5,-463 542.5,-463"/>
<image xlink:href="../../images/primaryKeys.png" width="11px" height="12px" preserveAspectRatio="xMinYMin meet" x="547.5" y="-480"/>
<text text-anchor="start" x="562.5" y="-471.2" font-family="Helvetica,sans-Serif" font-size="11.00">withdrawal_id</text>
<polygon fill="none" stroke="black" points="763.5,-463 763.5,-485 811.5,-485 811.5,-463 763.5,-463"/>
<text text-anchor="start" x="766.5" y="-471.2" font-family="Helvetica,sans-Serif" font-size="11.00">int8[19]</text>
<polygon fill="none" stroke="black" points="542.5,-441 542.5,-463 763.5,-463 763.5,-441 542.5,-441"/>
<text text-anchor="start" x="562.5" y="-449.2" font-family="Helvetica,sans-Serif" font-size="11.00">germinating_quantity_withdrawn</text>
<polygon fill="none" stroke="black" points="763.5,-441 763.5,-463 811.5,-463 811.5,-441 763.5,-441"/>
<text text-anchor="start" x="766.5" y="-449.2" font-family="Helvetica,sans-Serif" font-size="11.00">int4[10]</text>
<polygon fill="none" stroke="black" points="542.5,-419 542.5,-441 763.5,-441 763.5,-419 542.5,-419"/>
<text text-anchor="start" x="562.5" y="-427.2" font-family="Helvetica,sans-Serif" font-size="11.00">not_ready_quantity_withdrawn</text>
<polygon fill="none" stroke="black" points="763.5,-419 763.5,-441 811.5,-441 811.5,-419 763.5,-419"/>
<text text-anchor="start" x="766.5" y="-427.2" font-family="Helvetica,sans-Serif" font-size="11.00">int4[10]</text>
<polygon fill="none" stroke="black" points="542.5,-397 542.5,-419 763.5,-419 763.5,-397 542.5,-397"/>
<text text-anchor="start" x="562.5" y="-405.2" font-family="Helvetica,sans-Serif" font-size="11.00">ready_quantity_withdrawn</text>
<polygon fill="none" stroke="black" points="763.5,-397 763.5,-419 811.5,-419 811.5,-397 763.5,-397"/>
<text text-anchor="start" x="766.5" y="-405.2" font-family="Helvetica,sans-Serif" font-size="11.00">int4[10]</text>
<polygon fill="#ffffff" stroke="none" points="542.5,-375 542.5,-397 763.5,-397 763.5,-375 542.5,-375"/>
<polygon fill="none" stroke="black" points="542.5,-375 542.5,-397 763.5,-397 763.5,-375 542.5,-375"/>
<image xlink:href="../../images/foreignKeys.png" width="11px" height="12px" preserveAspectRatio="xMinYMin meet" x="547.5" y="-392"/>
<text text-anchor="start" x="562.5" y="-383.2" font-family="Helvetica,sans-Serif" font-size="11.00">destination_batch_id</text>
<polygon fill="none" stroke="black" points="763.5,-375 763.5,-397 811.5,-397 811.5,-375 763.5,-375"/>
<text text-anchor="start" x="766.5" y="-383.2" font-family="Helvetica,sans-Serif" font-size="11.00">int8[19]</text>
<polygon fill="#ffffff" stroke="none" points="542.5,-357 542.5,-375 643.5,-375 643.5,-357 542.5,-357"/>
<polygon fill="none" stroke="black" points="542.5,-357 542.5,-375 643.5,-375 643.5,-357 542.5,-357"/>
<text text-anchor="start" x="545.5" y="-363.2" font-family="Helvetica,sans-Serif" font-size="11.00">&lt; 3</text>
<polygon fill="#ffffff" stroke="none" points="643.5,-357 643.5,-375 763.5,-375 763.5,-357 643.5,-357"/>
<polygon fill="none" stroke="black" points="643.5,-357 643.5,-375 763.5,-375 763.5,-357 643.5,-357"/>
<text text-anchor="start" x="724.5" y="-363.2" font-family="Helvetica,sans-Serif" font-size="11.00">0 rows</text>
<polygon fill="#ffffff" stroke="none" points="763.5,-357 763.5,-375 811.5,-375 811.5,-357 763.5,-357"/>
<polygon fill="none" stroke="black" points="763.5,-357 763.5,-375 811.5,-375 811.5,-357 763.5,-357"/>
<text text-anchor="start" x="791.5" y="-363.2" font-family="Helvetica,sans-Serif" font-size="11.00">0 &gt;</text>
<polygon fill="none" stroke="black" stroke-width="2" points="541,-356 541,-530 812,-530 812,-356 541,-356"/>
</a>
</g>
</g>
<!-- batch_withdrawals&#45;&gt;batches -->
<g id="edge8" class="edge"><title>batch_withdrawals:batch_id:w&#45;&gt;batches:id:e</title>
<path fill="none" stroke="black" d="M527.486,-490.884C512.238,-476.375 520.359,-436 492,-436"/>
<polygon fill="black" stroke="black" points="533.985,-493.257 540.266,-499.382 537.743,-494.628 541.5,-496 541.5,-496 541.5,-496 537.743,-494.628 542.734,-492.618 533.985,-493.257 533.985,-493.257"/>
<ellipse fill="none" stroke="black" cx="530.979" cy="-492.159" rx="3.20001" ry="3.20001"/>
</g>
<!-- batch_withdrawals&#45;&gt;batches -->
<g id="edge9" class="edge"><title>batch_withdrawals:destination_batch_id:w&#45;&gt;batches:id:e</title>
<path fill="none" stroke="black" d="M527.588,-390.977C513.633,-403.624 517.163,-436 492,-436"/>
<polygon fill="black" stroke="black" points="533.968,-388.695 542.713,-389.39 537.734,-387.347 541.5,-386 541.5,-386 541.5,-386 537.734,-387.347 540.287,-382.61 533.968,-388.695 533.968,-388.695"/>
<ellipse fill="none" stroke="black" cx="530.955" cy="-389.773" rx="3.20001" ry="3.20001"/>
</g>
<!-- batch_withdrawals&#45;&gt;withdrawals -->
<g id="edge10" class="edge"><title>batch_withdrawals:withdrawal_id:w&#45;&gt;withdrawals:id:e</title>
<path fill="none" stroke="black" d="M527.801,-469.228C488.194,-437.107 524.884,-252.208 499,-203 483.047,-172.671 477.268,-150 443,-150"/>
<polygon fill="black" stroke="black" points="533.945,-471.368 540.316,-477.4 537.723,-472.684 541.5,-474 541.5,-474 541.5,-474 537.723,-472.684 542.684,-470.6 533.945,-471.368 533.945,-471.368"/>
<ellipse fill="none" stroke="black" cx="530.923" cy="-470.316" rx="3.20001" ry="3.20001"/>
</g>
<!-- withdrawal_photos -->
<g id="node9" class="node"><title>withdrawal_photos</title>
<g id="a_node9"><a xlink:href="../../tables/withdrawal_photos.html" xlink:title="withdrawal_photos" target="_top">
<polygon fill="#ffffff" stroke="none" points="597.5,-118 597.5,-176 755.5,-176 755.5,-118 597.5,-118"/>
<polygon fill="#f5f5f5" stroke="none" points="597.5,-154 597.5,-176 755.5,-176 755.5,-154 597.5,-154"/>
<polygon fill="none" stroke="black" points="597.5,-154 597.5,-176 755.5,-176 755.5,-154 597.5,-154"/>
<text text-anchor="start" x="602.5" y="-163.2" font-family="Helvetica,sans-Serif" font-weight="bold" font-size="11.00">withdrawal_photos</text>
<text text-anchor="start" x="716.5" y="-162.2" font-family="Helvetica,sans-Serif" font-size="11.00">[table]</text>
<polygon fill="none" stroke="black" points="597.5,-136 597.5,-154 755.5,-154 755.5,-136 597.5,-136"/>
<text text-anchor="start" x="600.5" y="-142.2" font-family="Helvetica,sans-Serif" font-size="11.00">...</text>
<polygon fill="#ffffff" stroke="none" points="597.5,-118 597.5,-136 660.5,-136 660.5,-118 597.5,-118"/>
<polygon fill="none" stroke="black" points="597.5,-118 597.5,-136 660.5,-136 660.5,-118 597.5,-118"/>
<text text-anchor="start" x="600.5" y="-124.2" font-family="Helvetica,sans-Serif" font-size="11.00">&lt; 2</text>
<polygon fill="#ffffff" stroke="none" points="660.5,-118 660.5,-136 722.5,-136 722.5,-118 660.5,-118"/>
<polygon fill="none" stroke="black" points="660.5,-118 660.5,-136 722.5,-136 722.5,-118 660.5,-118"/>
<text text-anchor="start" x="683.5" y="-124.2" font-family="Helvetica,sans-Serif" font-size="11.00">0 rows</text>
<polygon fill="#ffffff" stroke="none" points="722.5,-118 722.5,-136 755.5,-136 755.5,-118 722.5,-118"/>
<polygon fill="none" stroke="black" points="722.5,-118 722.5,-136 755.5,-136 755.5,-118 722.5,-118"/>
<text text-anchor="start" x="745.5" y="-124.2" font-family="Helvetica,sans-Serif" font-size="11.00"> &#160;</text>
</a>
</g>
</g>
<!-- withdrawal_photos&#45;&gt;withdrawals -->
<g id="edge13" class="edge"><title>withdrawal_photos:elipses:w&#45;&gt;withdrawals:id:e</title>
<path fill="none" stroke="black" d="M581.749,-145.083C525.357,-145.733 506.059,-150 443,-150"/>
<polygon fill="black" stroke="black" points="588.5,-145.045 596.52,-148.6 592.5,-145.022 596.5,-145 596.5,-145 596.5,-145 592.5,-145.022 596.48,-141.4 588.5,-145.045 588.5,-145.045"/>
<ellipse fill="none" stroke="black" cx="585.3" cy="-145.063" rx="3.2" ry="3.2"/>
</g>
<!-- tracking.deliveries -->
<g id="node11" class="node"><title>tracking.deliveries</title>
<g id="a_node11"><a xlink:href="../../../tracking/tables/deliveries.html" xlink:title="tracking.deliveries" target="_top">
<polygon fill="#ffffff" stroke="none" points="599,-39 599,-97 754,-97 754,-39 599,-39"/>
<polygon fill="#f5f5f5" stroke="none" points="599.5,-75 599.5,-97 754.5,-97 754.5,-75 599.5,-75"/>
<polygon fill="none" stroke="black" points="599.5,-75 599.5,-97 754.5,-97 754.5,-75 599.5,-75"/>
<text text-anchor="start" x="604.5" y="-84.2" font-family="Helvetica,sans-Serif" font-weight="bold" font-size="11.00">tracking.deliveries</text>
<text text-anchor="start" x="715.5" y="-83.2" font-family="Helvetica,sans-Serif" font-size="11.00">[table]</text>
<polygon fill="none" stroke="black" points="599.5,-57 599.5,-75 754.5,-75 754.5,-57 599.5,-57"/>
<text text-anchor="start" x="602.5" y="-63.2" font-family="Helvetica,sans-Serif" font-size="11.00">...</text>
<polygon fill="#ffffff" stroke="none" points="599.5,-39 599.5,-57 660.5,-57 660.5,-39 599.5,-39"/>
<polygon fill="none" stroke="black" points="599.5,-39 599.5,-57 660.5,-57 660.5,-39 599.5,-39"/>
<text text-anchor="start" x="602.5" y="-45.2" font-family="Helvetica,sans-Serif" font-size="11.00">&lt; 1</text>
<polygon fill="#ffffff" stroke="none" points="660.5,-39 660.5,-57 721.5,-57 721.5,-39 660.5,-39"/>
<polygon fill="none" stroke="black" points="660.5,-39 660.5,-57 721.5,-57 721.5,-39 660.5,-39"/>
<text text-anchor="start" x="682.5" y="-45.2" font-family="Helvetica,sans-Serif" font-size="11.00">0 rows</text>
<polygon fill="#ffffff" stroke="none" points="721.5,-39 721.5,-57 754.5,-57 754.5,-39 721.5,-39"/>
<polygon fill="none" stroke="black" points="721.5,-39 721.5,-57 754.5,-57 754.5,-39 721.5,-39"/>
<text text-anchor="start" x="744.5" y="-45.2" font-family="Helvetica,sans-Serif" font-size="11.00"> &#160;</text>
</a>
</g>
</g>
<!-- tracking.deliveries&#45;&gt;withdrawals -->
<g id="edge15" class="edge"><title>tracking.deliveries:elipses:w&#45;&gt;withdrawals:id:e</title>
<path fill="none" stroke="black" d="M583.865,-67.0621C519.809,-76.7858 516.334,-150 443,-150"/>
<polygon fill="black" stroke="black" points="590.521,-66.5791 598.761,-69.5906 594.51,-66.2895 598.5,-66 598.5,-66 598.5,-66 594.51,-66.2895 598.239,-62.4094 590.521,-66.5791 590.521,-66.5791"/>
<ellipse fill="none" stroke="black" cx="587.329" cy="-66.8107" rx="3.2" ry="3.2"/>
</g>
</g>
</svg>
