<?xml version="1.0" encoding="UTF-8" standalone="no"?>
<!DOCTYPE svg PUBLIC "-//W3C//DTD SVG 1.1//EN"
 "http://www.w3.org/Graphics/SVG/1.1/DTD/svg11.dtd">
<!-- Generated by graphviz version 2.38.0 (20140413.2041)
 -->
<!-- Title: twoDegreesRelationshipsDiagram Pages: 1 -->
<svg width="749pt" height="424pt"
 viewBox="0.00 0.00 749.00 424.00" xmlns="http://www.w3.org/2000/svg" xmlns:xlink="http://www.w3.org/1999/xlink">
<g id="graph0" class="graph" transform="scale(1 1) rotate(0) translate(4 420)">
<title>twoDegreesRelationshipsDiagram</title>
<polygon fill="#ffffff" stroke="none" points="-4,4 -4,-420 745,-420 745,4 -4,4"/>
<text text-anchor="middle" x="74.5" y="-7.2" font-family="Helvetica,sans-Serif" font-size="11.00">Generated by SchemaSpy</text>
<!-- batch_details_history -->
<g id="node1" class="node"><title>batch_details_history</title>
<g id="a_node1"><a xlink:href="../../tables/batch_details_history.html" xlink:title="batch_details_history" target="_top">
<polygon fill="#ffffff" stroke="none" points="551.5,-354 551.5,-412 721.5,-412 721.5,-354 551.5,-354"/>
<polygon fill="#f5f5f5" stroke="none" points="551.5,-390 551.5,-412 721.5,-412 721.5,-390 551.5,-390"/>
<polygon fill="none" stroke="black" points="551.5,-390 551.5,-412 721.5,-412 721.5,-390 551.5,-390"/>
<text text-anchor="start" x="556.5" y="-399.2" font-family="Helvetica,sans-Serif" font-weight="bold" font-size="11.00">batch_details_history</text>
<text text-anchor="start" x="682.5" y="-398.2" font-family="Helvetica,sans-Serif" font-size="11.00">[table]</text>
<polygon fill="none" stroke="black" points="551.5,-372 551.5,-390 721.5,-390 721.5,-372 551.5,-372"/>
<text text-anchor="start" x="554.5" y="-378.2" font-family="Helvetica,sans-Serif" font-size="11.00">...</text>
<polygon fill="#ffffff" stroke="none" points="551.5,-354 551.5,-372 615.5,-372 615.5,-354 551.5,-354"/>
<polygon fill="none" stroke="black" points="551.5,-354 551.5,-372 615.5,-372 615.5,-354 551.5,-354"/>
<text text-anchor="start" x="554.5" y="-360.2" font-family="Helvetica,sans-Serif" font-size="11.00">&lt; 3</text>
<polygon fill="#ffffff" stroke="none" points="615.5,-354 615.5,-372 677.5,-372 677.5,-354 615.5,-354"/>
<polygon fill="none" stroke="black" points="615.5,-354 615.5,-372 677.5,-372 677.5,-354 615.5,-354"/>
<text text-anchor="start" x="638.5" y="-360.2" font-family="Helvetica,sans-Serif" font-size="11.00">0 rows</text>
<polygon fill="#ffffff" stroke="none" points="677.5,-354 677.5,-372 721.5,-372 721.5,-354 677.5,-354"/>
<polygon fill="none" stroke="black" points="677.5,-354 677.5,-372 721.5,-372 721.5,-354 677.5,-354"/>
<text text-anchor="start" x="701.5" y="-360.2" font-family="Helvetica,sans-Serif" font-size="11.00">1 &gt;</text>
</a>
</g>
</g>
<!-- batches -->
<g id="node2" class="node"><title>batches</title>
<g id="a_node2"><a xlink:href="../../tables/batches.html" xlink:title="batches" target="_top">
<polygon fill="#ffffff" stroke="none" points="241,-37 241,-293 491,-293 491,-37 241,-37"/>
<polygon fill="#f5f5f5" stroke="none" points="241,-271 241,-293 491,-293 491,-271 241,-271"/>
<polygon fill="none" stroke="black" points="241,-271 241,-293 491,-293 491,-271 241,-271"/>
<text text-anchor="start" x="246" y="-280.2" font-family="Helvetica,sans-Serif" font-weight="bold" font-size="11.00">batches</text>
<text text-anchor="start" x="452" y="-279.2" font-family="Helvetica,sans-Serif" font-size="11.00">[table]</text>
<polygon fill="none" stroke="black" points="241,-249 241,-271 491,-271 491,-249 241,-249"/>
<image xlink:href="../../images/primaryKeys.png" width="11px" height="12px" preserveAspectRatio="xMinYMin meet" x="246" y="-266"/>
<text text-anchor="start" x="261" y="-257.2" font-family="Helvetica,sans-Serif" font-size="11.00">id</text>
<polygon fill="#ffffff" stroke="none" points="241,-227 241,-249 491,-249 491,-227 241,-227"/>
<polygon fill="none" stroke="black" points="241,-227 241,-249 491,-249 491,-227 241,-227"/>
<text text-anchor="start" x="261" y="-235.2" font-family="Helvetica,sans-Serif" font-size="11.00">organization_id</text>
<polygon fill="#ffffff" stroke="none" points="241,-205 241,-227 491,-227 491,-205 241,-205"/>
<polygon fill="none" stroke="black" points="241,-205 241,-227 491,-227 491,-205 241,-205"/>
<text text-anchor="start" x="261" y="-213.2" font-family="Helvetica,sans-Serif" font-size="11.00">facility_id</text>
<polygon fill="#ffffff" stroke="none" points="241,-183 241,-205 491,-205 491,-183 241,-183"/>
<polygon fill="none" stroke="black" points="241,-183 241,-205 491,-205 491,-183 241,-183"/>
<text text-anchor="start" x="261" y="-191.2" font-family="Helvetica,sans-Serif" font-size="11.00">species_id</text>
<polygon fill="#ffffff" stroke="none" points="241,-161 241,-183 491,-183 491,-161 241,-161"/>
<polygon fill="none" stroke="black" points="241,-161 241,-183 491,-183 491,-161 241,-161"/>
<text text-anchor="start" x="261" y="-169.2" font-family="Helvetica,sans-Serif" font-size="11.00">batch_number</text>
<polygon fill="#ffffff" stroke="none" points="241,-139 241,-161 491,-161 491,-139 241,-139"/>
<polygon fill="none" stroke="black" points="241,-139 241,-161 491,-161 491,-139 241,-139"/>
<text text-anchor="start" x="261" y="-147.2" font-family="Helvetica,sans-Serif" font-size="11.00">project_id</text>
<polygon fill="none" stroke="black" points="241,-117 241,-139 491,-139 491,-117 241,-117"/>
<image xlink:href="../../images/foreignKeys.png" width="11px" height="12px" preserveAspectRatio="xMinYMin meet" x="246" y="-134"/>
<text text-anchor="start" x="261" y="-125.2" font-family="Helvetica,sans-Serif" font-size="11.00">substrate_id</text>
<polygon fill="none" stroke="black" points="241,-95 241,-117 491,-117 491,-95 241,-95"/>
<image xlink:href="../../images/foreignKeys.png" width="11px" height="12px" preserveAspectRatio="xMinYMin meet" x="246" y="-112"/>
<text text-anchor="start" x="261" y="-103.2" font-family="Helvetica,sans-Serif" font-size="11.00">treatment_id</text>
<polygon fill="#ffffff" stroke="none" points="241,-73 241,-95 491,-95 491,-73 241,-73"/>
<polygon fill="none" stroke="black" points="241,-73 241,-95 491,-95 491,-73 241,-73"/>
<image xlink:href="../../images/foreignKeys.png" width="11px" height="12px" preserveAspectRatio="xMinYMin meet" x="246" y="-90"/>
<text text-anchor="start" x="261" y="-81.2" font-family="Helvetica,sans-Serif" font-size="11.00">initial_batch_id</text>
<polygon fill="none" stroke="black" points="241,-55 241,-73 491,-73 491,-55 241,-55"/>
<text text-anchor="start" x="244" y="-61.2" font-family="Helvetica,sans-Serif" font-size="11.00">...</text>
<polygon fill="#ffffff" stroke="none" points="241,-37 241,-55 345,-55 345,-37 241,-37"/>
<polygon fill="none" stroke="black" points="241,-37 241,-55 345,-55 345,-37 241,-37"/>
<text text-anchor="start" x="244" y="-43.2" font-family="Helvetica,sans-Serif" font-size="11.00">&lt; 3</text>
<polygon fill="#ffffff" stroke="none" points="345,-37 345,-55 427,-55 427,-37 345,-37"/>
<polygon fill="none" stroke="black" points="345,-37 345,-55 427,-55 427,-37 345,-37"/>
<text text-anchor="start" x="388" y="-43.2" font-family="Helvetica,sans-Serif" font-size="11.00">0 rows</text>
<polygon fill="#ffffff" stroke="none" points="427,-37 427,-55 491,-55 491,-37 427,-37"/>
<polygon fill="none" stroke="black" points="427,-37 427,-55 491,-55 491,-37 427,-37"/>
<text text-anchor="start" x="471" y="-43.2" font-family="Helvetica,sans-Serif" font-size="11.00">7 &gt;</text>
</a>
</g>
</g>
<!-- batch_details_history&#45;&gt;batches -->
<g id="edge1" class="edge"><title>batch_details_history:elipses:w&#45;&gt;batches:id:e</title>
<path fill="none" stroke="black" d="M536.228,-377.764C501.523,-358.521 545.9,-260 492,-260"/>
<polygon fill="black" stroke="black" points="542.698,-379.231 549.704,-384.511 546.599,-380.115 550.5,-381 550.5,-381 550.5,-381 546.599,-380.115 551.296,-377.489 542.698,-379.231 542.698,-379.231"/>
<ellipse fill="none" stroke="black" cx="539.577" cy="-378.523" rx="3.2" ry="3.2"/>
</g>
<!-- batch_substrates -->
<g id="node3" class="node"><title>batch_substrates</title>
<g id="a_node3"><a xlink:href="../../tables/batch_substrates.html" xlink:title="batch_substrates" target="_top">
<polygon fill="#ffffff" stroke="none" points="27,-297 27,-355 173,-355 173,-297 27,-297"/>
<polygon fill="#f5f5f5" stroke="none" points="27,-333 27,-355 173,-355 173,-333 27,-333"/>
<polygon fill="none" stroke="black" points="27,-333 27,-355 173,-355 173,-333 27,-333"/>
<text text-anchor="start" x="32" y="-342.2" font-family="Helvetica,sans-Serif" font-weight="bold" font-size="11.00">batch_substrates</text>
<text text-anchor="start" x="134" y="-341.2" font-family="Helvetica,sans-Serif" font-size="11.00">[table]</text>
<polygon fill="none" stroke="black" points="27,-315 27,-333 173,-333 173,-315 27,-315"/>
<text text-anchor="start" x="30" y="-321.2" font-family="Helvetica,sans-Serif" font-size="11.00">...</text>
<polygon fill="#ffffff" stroke="none" points="27,-297 27,-315 74,-315 74,-297 27,-297"/>
<polygon fill="none" stroke="black" points="27,-297 27,-315 74,-315 74,-297 27,-297"/>
<text text-anchor="start" x="30" y="-303.2" font-family="Helvetica,sans-Serif" font-size="11.00"> &#160;</text>
<polygon fill="#ffffff" stroke="none" points="74,-297 74,-315 133,-315 133,-297 74,-297"/>
<polygon fill="none" stroke="black" points="74,-297 74,-315 133,-315 133,-297 74,-297"/>
<text text-anchor="start" x="94" y="-303.2" font-family="Helvetica,sans-Serif" font-size="11.00">6 rows</text>
<polygon fill="#ffffff" stroke="none" points="133,-297 133,-315 173,-315 173,-297 133,-297"/>
<polygon fill="none" stroke="black" points="133,-297 133,-315 173,-315 173,-297 133,-297"/>
<text text-anchor="start" x="153" y="-303.2" font-family="Helvetica,sans-Serif" font-size="11.00">2 &gt;</text>
</a>
</g>
</g>
<!-- batch_details_history&#45;&gt;batch_substrates -->
<g id="edge2" class="edge"><title>batch_details_history:elipses:w&#45;&gt;batch_substrates:elipses:e</title>
<path fill="none" stroke="black" d="M535.902,-380.984C405.749,-380.686 366.494,-375.895 233,-345 205.883,-338.724 201.834,-324 174,-324"/>
<polygon fill="black" stroke="black" points="542.5,-380.991 550.496,-384.6 546.5,-380.996 550.5,-381 550.5,-381 550.5,-381 546.5,-380.996 550.504,-377.4 542.5,-380.991 542.5,-380.991"/>
<ellipse fill="none" stroke="black" cx="539.3" cy="-380.988" rx="3.2" ry="3.2"/>
</g>
<!-- public.seed_treatments -->
<g id="node4" class="node"><title>public.seed_treatments</title>
<g id="a_node4"><a xlink:href="../../../public/tables/seed_treatments.html" xlink:title="public.seed_treatments" target="_top">
<polygon fill="#ffffff" stroke="none" points="8,-172 8,-230 192,-230 192,-172 8,-172"/>
<polygon fill="#f5f5f5" stroke="none" points="8,-208 8,-230 192,-230 192,-208 8,-208"/>
<polygon fill="none" stroke="black" points="8,-208 8,-230 192,-230 192,-208 8,-208"/>
<text text-anchor="start" x="13" y="-217.2" font-family="Helvetica,sans-Serif" font-weight="bold" font-size="11.00">public.seed_treatments</text>
<text text-anchor="start" x="153" y="-216.2" font-family="Helvetica,sans-Serif" font-size="11.00">[table]</text>
<polygon fill="none" stroke="black" points="8,-190 8,-208 192,-208 192,-190 8,-190"/>
<text text-anchor="start" x="11" y="-196.2" font-family="Helvetica,sans-Serif" font-size="11.00">...</text>
<polygon fill="#ffffff" stroke="none" points="8,-172 8,-190 74,-190 74,-172 8,-172"/>
<polygon fill="none" stroke="black" points="8,-172 8,-190 74,-190 74,-172 8,-172"/>
<text text-anchor="start" x="11" y="-178.2" font-family="Helvetica,sans-Serif" font-size="11.00"> &#160;</text>
<polygon fill="#ffffff" stroke="none" points="74,-172 74,-190 142,-190 142,-172 74,-172"/>
<polygon fill="none" stroke="black" points="74,-172 74,-190 142,-190 142,-172 74,-172"/>
<text text-anchor="start" x="103" y="-178.2" font-family="Helvetica,sans-Serif" font-size="11.00">0 rows</text>
<polygon fill="#ffffff" stroke="none" points="142,-172 142,-190 192,-190 192,-172 142,-172"/>
<polygon fill="none" stroke="black" points="142,-172 142,-190 192,-190 192,-172 142,-172"/>
<text text-anchor="start" x="172" y="-178.2" font-family="Helvetica,sans-Serif" font-size="11.00">2 &gt;</text>
</a>
</g>
</g>
<!-- batch_details_history&#45;&gt;public.seed_treatments -->
<g id="edge3" class="edge"><title>batch_details_history:elipses:w&#45;&gt;public.seed_treatments:elipses:e</title>
<path fill="none" stroke="black" d="M536.399,-378.057C522.401,-371.181 519.305,-354.034 499,-346 387.708,-301.966 325.936,-379.417 233,-304 194.223,-272.533 242.938,-199 193,-199"/>
<polygon fill="black" stroke="black" points="542.669,-379.366 549.765,-384.524 546.584,-380.183 550.5,-381 550.5,-381 550.5,-381 546.584,-380.183 551.235,-377.476 542.669,-379.366 542.669,-379.366"/>
<ellipse fill="none" stroke="black" cx="539.536" cy="-378.712" rx="3.2" ry="3.2"/>
</g>
<!-- batches&#45;&gt;batch_substrates -->
<g id="edge9" class="edge"><title>batches:substrate_id:w&#45;&gt;batch_substrates:elipses:e</title>
<path fill="none" stroke="black" d="M225.518,-130.069C161.583,-151.016 260.352,-324 174,-324"/>
<polygon fill="black" stroke="black" points="232.08,-129.131 240.509,-131.564 236.04,-128.566 240,-128 240,-128 240,-128 236.04,-128.566 239.491,-124.436 232.08,-129.131 232.08,-129.131"/>
<ellipse fill="none" stroke="black" cx="228.913" cy="-129.584" rx="3.2" ry="3.2"/>
</g>
<!-- batches&#45;&gt;public.seed_treatments -->
<g id="edge10" class="edge"><title>batches:treatment_id:w&#45;&gt;public.seed_treatments:elipses:e</title>
<path fill="none" stroke="black" d="M225.982,-110.486C204.185,-129.063 233.161,-199 193,-199"/>
<polygon fill="black" stroke="black" points="232.381,-108.438 241.097,-109.429 236.19,-107.219 240,-106 240,-106 240,-106 236.19,-107.219 238.903,-102.571 232.381,-108.438 232.381,-108.438"/>
<ellipse fill="none" stroke="black" cx="229.333" cy="-109.413" rx="3.20001" ry="3.20001"/>
</g>
<!-- batch_quantity_history -->
<g id="node5" class="node"><title>batch_quantity_history</title>
<g id="a_node5"><a xlink:href="../../tables/batch_quantity_history.html" xlink:title="batch_quantity_history" target="_top">
<polygon fill="#ffffff" stroke="none" points="546,-275 546,-333 727,-333 727,-275 546,-275"/>
<polygon fill="#f5f5f5" stroke="none" points="546.5,-311 546.5,-333 727.5,-333 727.5,-311 546.5,-311"/>
<polygon fill="none" stroke="black" points="546.5,-311 546.5,-333 727.5,-333 727.5,-311 546.5,-311"/>
<text text-anchor="start" x="551.5" y="-320.2" font-family="Helvetica,sans-Serif" font-weight="bold" font-size="11.00">batch_quantity_history</text>
<text text-anchor="start" x="688.5" y="-319.2" font-family="Helvetica,sans-Serif" font-size="11.00">[table]</text>
<polygon fill="none" stroke="black" points="546.5,-293 546.5,-311 727.5,-311 727.5,-293 546.5,-293"/>
<text text-anchor="start" x="549.5" y="-299.2" font-family="Helvetica,sans-Serif" font-size="11.00">...</text>
<polygon fill="#ffffff" stroke="none" points="546.5,-275 546.5,-293 620.5,-293 620.5,-275 546.5,-275"/>
<polygon fill="none" stroke="black" points="546.5,-275 546.5,-293 620.5,-293 620.5,-275 546.5,-275"/>
<text text-anchor="start" x="549.5" y="-281.2" font-family="Helvetica,sans-Serif" font-size="11.00">&lt; 3</text>
<polygon fill="#ffffff" stroke="none" points="620.5,-275 620.5,-293 688.5,-293 688.5,-275 620.5,-275"/>
<polygon fill="none" stroke="black" points="620.5,-275 620.5,-293 688.5,-293 688.5,-275 620.5,-275"/>
<text text-anchor="start" x="649.5" y="-281.2" font-family="Helvetica,sans-Serif" font-size="11.00">0 rows</text>
<polygon fill="#ffffff" stroke="none" points="688.5,-275 688.5,-293 727.5,-293 727.5,-275 688.5,-275"/>
<polygon fill="none" stroke="black" points="688.5,-275 688.5,-293 727.5,-293 727.5,-275 688.5,-275"/>
<text text-anchor="start" x="717.5" y="-281.2" font-family="Helvetica,sans-Serif" font-size="11.00"> &#160;</text>
</a>
</g>
</g>
<!-- batch_quantity_history&#45;&gt;batches -->
<g id="edge4" class="edge"><title>batch_quantity_history:elipses:w&#45;&gt;batches:id:e</title>
<path fill="none" stroke="black" d="M531.489,-297.819C516.57,-287.196 516.325,-260 492,-260"/>
<polygon fill="black" stroke="black" points="537.834,-299.713 544.471,-305.45 541.667,-300.856 545.5,-302 545.5,-302 545.5,-302 541.667,-300.856 546.529,-298.55 537.834,-299.713 537.834,-299.713"/>
<ellipse fill="none" stroke="black" cx="534.768" cy="-298.798" rx="3.20001" ry="3.20001"/>
</g>
<!-- batch_sub_locations -->
<g id="node6" class="node"><title>batch_sub_locations</title>
<g id="a_node6"><a xlink:href="../../tables/batch_sub_locations.html" xlink:title="batch_sub_locations" target="_top">
<polygon fill="#ffffff" stroke="none" points="540,-65 540,-175 733,-175 733,-65 540,-65"/>
<polygon fill="#f5f5f5" stroke="none" points="542.5,-151 542.5,-173 731.5,-173 731.5,-151 542.5,-151"/>
<polygon fill="none" stroke="black" points="542.5,-151 542.5,-173 731.5,-173 731.5,-151 542.5,-151"/>
<text text-anchor="start" x="547.5" y="-160.2" font-family="Helvetica,sans-Serif" font-weight="bold" font-size="11.00">batch_sub_locations</text>
<text text-anchor="start" x="692.5" y="-159.2" font-family="Helvetica,sans-Serif" font-size="11.00">[table]</text>
<polygon fill="none" stroke="black" points="542.5,-129 542.5,-151 683.5,-151 683.5,-129 542.5,-129"/>
<image xlink:href="../../images/primaryKeys.png" width="11px" height="12px" preserveAspectRatio="xMinYMin meet" x="547.5" y="-146"/>
<text text-anchor="start" x="562.5" y="-137.2" font-family="Helvetica,sans-Serif" font-size="11.00">batch_id</text>
<polygon fill="none" stroke="black" points="683.5,-129 683.5,-151 731.5,-151 731.5,-129 683.5,-129"/>
<text text-anchor="start" x="686.5" y="-137.2" font-family="Helvetica,sans-Serif" font-size="11.00">int8[19]</text>
<polygon fill="none" stroke="black" points="542.5,-107 542.5,-129 683.5,-129 683.5,-107 542.5,-107"/>
<image xlink:href="../../images/primaryKeys.png" width="11px" height="12px" preserveAspectRatio="xMinYMin meet" x="547.5" y="-124"/>
<text text-anchor="start" x="562.5" y="-115.2" font-family="Helvetica,sans-Serif" font-size="11.00">sub_location_id</text>
<polygon fill="none" stroke="black" points="683.5,-107 683.5,-129 731.5,-129 731.5,-107 683.5,-107"/>
<text text-anchor="start" x="686.5" y="-115.2" font-family="Helvetica,sans-Serif" font-size="11.00">int8[19]</text>
<polygon fill="none" stroke="black" points="542.5,-85 542.5,-107 683.5,-107 683.5,-85 542.5,-85"/>
<image xlink:href="../../images/foreignKeys.png" width="11px" height="12px" preserveAspectRatio="xMinYMin meet" x="547.5" y="-102"/>
<text text-anchor="start" x="562.5" y="-93.2" font-family="Helvetica,sans-Serif" font-size="11.00">facility_id</text>
<polygon fill="none" stroke="black" points="683.5,-85 683.5,-107 731.5,-107 731.5,-85 683.5,-85"/>
<text text-anchor="start" x="686.5" y="-93.2" font-family="Helvetica,sans-Serif" font-size="11.00">int8[19]</text>
<polygon fill="#ffffff" stroke="none" points="542.5,-67 542.5,-85 603.5,-85 603.5,-67 542.5,-67"/>
<polygon fill="none" stroke="black" points="542.5,-67 542.5,-85 603.5,-85 603.5,-67 542.5,-67"/>
<text text-anchor="start" x="545.5" y="-73.2" font-family="Helvetica,sans-Serif" font-size="11.00">&lt; 2</text>
<polygon fill="#ffffff" stroke="none" points="603.5,-67 603.5,-85 683.5,-85 683.5,-67 603.5,-67"/>
<polygon fill="none" stroke="black" points="603.5,-67 603.5,-85 683.5,-85 683.5,-67 603.5,-67"/>
<text text-anchor="start" x="644.5" y="-73.2" font-family="Helvetica,sans-Serif" font-size="11.00">0 rows</text>
<polygon fill="#ffffff" stroke="none" points="683.5,-67 683.5,-85 731.5,-85 731.5,-67 683.5,-67"/>
<polygon fill="none" stroke="black" points="683.5,-67 683.5,-85 731.5,-85 731.5,-67 683.5,-67"/>
<text text-anchor="start" x="711.5" y="-73.2" font-family="Helvetica,sans-Serif" font-size="11.00">0 &gt;</text>
<polygon fill="none" stroke="black" stroke-width="2" points="541,-66 541,-174 732,-174 732,-66 541,-66"/>
</a>
</g>
</g>
<!-- batch_sub_locations&#45;&gt;batches -->
<g id="edge5" class="edge"><title>batch_sub_locations:batch_id:w&#45;&gt;batches:id:e</title>
<path fill="none" stroke="black" d="M527.487,-143.462C495.916,-163.137 543.833,-260 492,-260"/>
<polygon fill="black" stroke="black" points="533.734,-141.919 542.363,-143.495 537.617,-140.959 541.5,-140 541.5,-140 541.5,-140 537.617,-140.959 540.637,-136.505 533.734,-141.919 533.734,-141.919"/>
<ellipse fill="none" stroke="black" cx="530.627" cy="-142.686" rx="3.2" ry="3.2"/>
</g>
<!-- batch_sub_locations&#45;&gt;batches -->
<g id="edge6" class="edge"><title>batch_sub_locations:facility_id:w&#45;&gt;batches:facility_id:e</title>
<path fill="none" stroke="black" d="M527.487,-99.462C495.916,-119.137 543.833,-216 492,-216"/>
<polygon fill="black" stroke="black" points="533.734,-97.9188 542.363,-99.4949 537.617,-96.9594 541.5,-96 541.5,-96 541.5,-96 537.617,-96.9594 540.637,-92.5051 533.734,-97.9188 533.734,-97.9188"/>
<ellipse fill="none" stroke="black" cx="530.627" cy="-98.6863" rx="3.2" ry="3.2"/>
</g>
<!-- batch_withdrawals -->
<g id="node7" class="node"><title>batch_withdrawals</title>
<g id="a_node7"><a xlink:href="../../tables/batch_withdrawals.html" xlink:title="batch_withdrawals" target="_top">
<polygon fill="#ffffff" stroke="none" points="558,-196 558,-254 715,-254 715,-196 558,-196"/>
<polygon fill="#f5f5f5" stroke="none" points="558.5,-232 558.5,-254 715.5,-254 715.5,-232 558.5,-232"/>
<polygon fill="none" stroke="black" points="558.5,-232 558.5,-254 715.5,-254 715.5,-232 558.5,-232"/>
<text text-anchor="start" x="563.5" y="-241.2" font-family="Helvetica,sans-Serif" font-weight="bold" font-size="11.00">batch_withdrawals</text>
<text text-anchor="start" x="676.5" y="-240.2" font-family="Helvetica,sans-Serif" font-size="11.00">[table]</text>
<polygon fill="none" stroke="black" points="558.5,-214 558.5,-232 715.5,-232 715.5,-214 558.5,-214"/>
<text text-anchor="start" x="561.5" y="-220.2" font-family="Helvetica,sans-Serif" font-size="11.00">...</text>
<polygon fill="#ffffff" stroke="none" points="558.5,-196 558.5,-214 620.5,-214 620.5,-196 558.5,-196"/>
<polygon fill="none" stroke="black" points="558.5,-196 558.5,-214 620.5,-214 620.5,-196 558.5,-196"/>
<text text-anchor="start" x="561.5" y="-202.2" font-family="Helvetica,sans-Serif" font-size="11.00">&lt; 3</text>
<polygon fill="#ffffff" stroke="none" points="620.5,-196 620.5,-214 682.5,-214 682.5,-196 620.5,-196"/>
<polygon fill="none" stroke="black" points="620.5,-196 620.5,-214 682.5,-214 682.5,-196 620.5,-196"/>
<text text-anchor="start" x="643.5" y="-202.2" font-family="Helvetica,sans-Serif" font-size="11.00">0 rows</text>
<polygon fill="#ffffff" stroke="none" points="682.5,-196 682.5,-214 715.5,-214 715.5,-196 682.5,-196"/>
<polygon fill="none" stroke="black" points="682.5,-196 682.5,-214 715.5,-214 715.5,-196 682.5,-196"/>
<text text-anchor="start" x="705.5" y="-202.2" font-family="Helvetica,sans-Serif" font-size="11.00"> &#160;</text>
</a>
</g>
</g>
<!-- batch_withdrawals&#45;&gt;batches -->
<g id="edge7" class="edge"><title>batch_withdrawals:elipses:w&#45;&gt;batches:id:e</title>
<path fill="none" stroke="black" d="M542.991,-223.341C523.508,-228.803 519.688,-255.031 492,-260"/>
<polygon fill="black" stroke="black" points="549.502,-223.188 557.585,-226.599 553.501,-223.094 557.5,-223 557.5,-223 557.5,-223 553.501,-223.094 557.415,-219.401 549.502,-223.188 549.502,-223.188"/>
<ellipse fill="none" stroke="black" cx="546.303" cy="-223.263" rx="3.2" ry="3.2"/>
</g>
<!-- batch_withdrawals&#45;&gt;batches -->
<g id="edge8" class="edge"><title>batch_withdrawals:elipses:w&#45;&gt;batches:id:e</title>
<path fill="none" stroke="black" d="M543.828,-228.368C523.611,-240.723 520.08,-265.879 492,-260"/>
<polygon fill="black" stroke="black" points="550.053,-225.924 558.816,-226.351 553.777,-224.462 557.5,-223 557.5,-223 557.5,-223 553.777,-224.462 556.184,-219.649 550.053,-225.924 550.053,-225.924"/>
<ellipse fill="none" stroke="black" cx="547.075" cy="-227.093" rx="3.20001" ry="3.20001"/>
</g>
</g>
</svg>
