<?xml version="1.0" encoding="UTF-8" standalone="no"?>
<!DOCTYPE svg PUBLIC "-//W3C//DTD SVG 1.1//EN"
 "http://www.w3.org/Graphics/SVG/1.1/DTD/svg11.dtd">
<!-- Generated by graphviz version 2.38.0 (20140413.2041)
 -->
<!-- Title: twoDegreesRelationshipsDiagram Pages: 1 -->
<svg width="632pt" height="374pt"
 viewBox="0.00 0.00 632.00 374.00" xmlns="http://www.w3.org/2000/svg" xmlns:xlink="http://www.w3.org/1999/xlink">
<g id="graph0" class="graph" transform="scale(1 1) rotate(0) translate(4 370)">
<title>twoDegreesRelationshipsDiagram</title>
<polygon fill="#ffffff" stroke="none" points="-4,4 -4,-370 628,-370 628,4 -4,4"/>
<text text-anchor="middle" x="74.5" y="-7.2" font-family="Helvetica,sans-Serif" font-size="11.00">Generated by SchemaSpy</text>
<!-- batch_quantity_history -->
<g id="node1" class="node"><title>batch_quantity_history</title>
<g id="a_node1"><a xlink:href="../../tables/batch_quantity_history.html" xlink:title="batch_quantity_history" target="_top">
<polygon fill="#ffffff" stroke="none" points="432,-304 432,-362 613,-362 613,-304 432,-304"/>
<polygon fill="#f5f5f5" stroke="none" points="432.5,-340 432.5,-362 613.5,-362 613.5,-340 432.5,-340"/>
<polygon fill="none" stroke="black" points="432.5,-340 432.5,-362 613.5,-362 613.5,-340 432.5,-340"/>
<text text-anchor="start" x="437.5" y="-349.2" font-family="Helvetica,sans-Serif" font-weight="bold" font-size="11.00">batch_quantity_history</text>
<text text-anchor="start" x="574.5" y="-348.2" font-family="Helvetica,sans-Serif" font-size="11.00">[table]</text>
<polygon fill="none" stroke="black" points="432.5,-322 432.5,-340 613.5,-340 613.5,-322 432.5,-322"/>
<text text-anchor="start" x="435.5" y="-328.2" font-family="Helvetica,sans-Serif" font-size="11.00">...</text>
<polygon fill="#ffffff" stroke="none" points="432.5,-304 432.5,-322 506.5,-322 506.5,-304 432.5,-304"/>
<polygon fill="none" stroke="black" points="432.5,-304 432.5,-322 506.5,-322 506.5,-304 432.5,-304"/>
<text text-anchor="start" x="435.5" y="-310.2" font-family="Helvetica,sans-Serif" font-size="11.00">&lt; 3</text>
<polygon fill="#ffffff" stroke="none" points="506.5,-304 506.5,-322 574.5,-322 574.5,-304 506.5,-304"/>
<polygon fill="none" stroke="black" points="506.5,-304 506.5,-322 574.5,-322 574.5,-304 506.5,-304"/>
<text text-anchor="start" x="535.5" y="-310.2" font-family="Helvetica,sans-Serif" font-size="11.00">0 rows</text>
<polygon fill="#ffffff" stroke="none" points="574.5,-304 574.5,-322 613.5,-322 613.5,-304 574.5,-304"/>
<polygon fill="none" stroke="black" points="574.5,-304 574.5,-322 613.5,-322 613.5,-304 574.5,-304"/>
<text text-anchor="start" x="603.5" y="-310.2" font-family="Helvetica,sans-Serif" font-size="11.00"> &#160;</text>
</a>
</g>
</g>
<!-- withdrawals -->
<g id="node2" class="node"><title>withdrawals</title>
<g id="a_node2"><a xlink:href="../../tables/withdrawals.html" xlink:title="withdrawals" target="_top">
<polygon fill="#ffffff" stroke="none" points="228,-139 228,-285 380,-285 380,-139 228,-139"/>
<polygon fill="#f5f5f5" stroke="none" points="228,-263 228,-285 380,-285 380,-263 228,-263"/>
<polygon fill="none" stroke="black" points="228,-263 228,-285 380,-285 380,-263 228,-263"/>
<text text-anchor="start" x="233" y="-272.2" font-family="Helvetica,sans-Serif" font-weight="bold" font-size="11.00">withdrawals</text>
<text text-anchor="start" x="341" y="-271.2" font-family="Helvetica,sans-Serif" font-size="11.00">[table]</text>
<polygon fill="none" stroke="black" points="228,-241 228,-263 380,-263 380,-241 228,-241"/>
<image xlink:href="../../images/primaryKeys.png" width="11px" height="12px" preserveAspectRatio="xMinYMin meet" x="233" y="-258"/>
<text text-anchor="start" x="248" y="-249.2" font-family="Helvetica,sans-Serif" font-size="11.00">id</text>
<polygon fill="#ffffff" stroke="none" points="228,-219 228,-241 380,-241 380,-219 228,-219"/>
<polygon fill="none" stroke="black" points="228,-219 228,-241 380,-241 380,-219 228,-219"/>
<text text-anchor="start" x="248" y="-227.2" font-family="Helvetica,sans-Serif" font-size="11.00">facility_id</text>
<polygon fill="none" stroke="black" points="228,-197 228,-219 380,-219 380,-197 228,-197"/>
<image xlink:href="../../images/foreignKeys.png" width="11px" height="12px" preserveAspectRatio="xMinYMin meet" x="233" y="-214"/>
<text text-anchor="start" x="248" y="-205.2" font-family="Helvetica,sans-Serif" font-size="11.00">purpose_id</text>
<polygon fill="#ffffff" stroke="none" points="228,-175 228,-197 380,-197 380,-175 228,-175"/>
<polygon fill="none" stroke="black" points="228,-175 228,-197 380,-197 380,-175 228,-175"/>
<text text-anchor="start" x="248" y="-183.2" font-family="Helvetica,sans-Serif" font-size="11.00">destination_facility_id</text>
<polygon fill="none" stroke="black" points="228,-157 228,-175 380,-175 380,-157 228,-157"/>
<text text-anchor="start" x="231" y="-163.2" font-family="Helvetica,sans-Serif" font-size="11.00">...</text>
<polygon fill="#ffffff" stroke="none" points="228,-139 228,-157 283,-157 283,-139 228,-139"/>
<polygon fill="none" stroke="black" points="228,-139 228,-157 283,-157 283,-139 228,-139"/>
<text text-anchor="start" x="231" y="-145.2" font-family="Helvetica,sans-Serif" font-size="11.00">&lt; 1</text>
<polygon fill="#ffffff" stroke="none" points="283,-139 283,-157 341,-157 341,-139 283,-139"/>
<polygon fill="none" stroke="black" points="283,-139 283,-157 341,-157 341,-139 283,-139"/>
<text text-anchor="start" x="302" y="-145.2" font-family="Helvetica,sans-Serif" font-size="11.00">0 rows</text>
<polygon fill="#ffffff" stroke="none" points="341,-139 341,-157 380,-157 380,-139 341,-139"/>
<polygon fill="none" stroke="black" points="341,-139 341,-157 380,-157 380,-139 341,-139"/>
<text text-anchor="start" x="360" y="-145.2" font-family="Helvetica,sans-Serif" font-size="11.00">4 &gt;</text>
</a>
</g>
</g>
<!-- batch_quantity_history&#45;&gt;withdrawals -->
<g id="edge1" class="edge"><title>batch_quantity_history:elipses:w&#45;&gt;withdrawals:id:e</title>
<path fill="none" stroke="black" d="M417.651,-326.526C397.765,-309.814 416.649,-252 381,-252"/>
<polygon fill="black" stroke="black" points="423.887,-328.541 430.393,-334.426 427.694,-329.77 431.5,-331 431.5,-331 431.5,-331 427.694,-329.77 432.607,-327.574 423.887,-328.541 423.887,-328.541"/>
<ellipse fill="none" stroke="black" cx="420.842" cy="-327.557" rx="3.20001" ry="3.20001"/>
</g>
<!-- withdrawal_purposes -->
<g id="node6" class="node"><title>withdrawal_purposes</title>
<g id="a_node6"><a xlink:href="../../tables/withdrawal_purposes.html" xlink:title="withdrawal_purposes" target="_top">
<polygon fill="#ffffff" stroke="none" points="8,-181 8,-239 179,-239 179,-181 8,-181"/>
<polygon fill="#f5f5f5" stroke="none" points="8.5,-217 8.5,-239 179.5,-239 179.5,-217 8.5,-217"/>
<polygon fill="none" stroke="black" points="8.5,-217 8.5,-239 179.5,-239 179.5,-217 8.5,-217"/>
<text text-anchor="start" x="13.5" y="-226.2" font-family="Helvetica,sans-Serif" font-weight="bold" font-size="11.00">withdrawal_purposes</text>
<text text-anchor="start" x="140.5" y="-225.2" font-family="Helvetica,sans-Serif" font-size="11.00">[table]</text>
<polygon fill="none" stroke="black" points="8.5,-199 8.5,-217 179.5,-217 179.5,-199 8.5,-199"/>
<text text-anchor="start" x="11.5" y="-205.2" font-family="Helvetica,sans-Serif" font-size="11.00">...</text>
<polygon fill="#ffffff" stroke="none" points="8.5,-181 8.5,-199 67.5,-199 67.5,-181 8.5,-181"/>
<polygon fill="none" stroke="black" points="8.5,-181 8.5,-199 67.5,-199 67.5,-181 8.5,-181"/>
<text text-anchor="start" x="11.5" y="-187.2" font-family="Helvetica,sans-Serif" font-size="11.00"> &#160;</text>
<polygon fill="#ffffff" stroke="none" points="67.5,-181 67.5,-199 132.5,-199 132.5,-181 67.5,-181"/>
<polygon fill="none" stroke="black" points="67.5,-181 67.5,-199 132.5,-199 132.5,-181 67.5,-181"/>
<text text-anchor="start" x="93.5" y="-187.2" font-family="Helvetica,sans-Serif" font-size="11.00">4 rows</text>
<polygon fill="#ffffff" stroke="none" points="132.5,-181 132.5,-199 179.5,-199 179.5,-181 132.5,-181"/>
<polygon fill="none" stroke="black" points="132.5,-181 132.5,-199 179.5,-199 179.5,-181 132.5,-181"/>
<text text-anchor="start" x="159.5" y="-187.2" font-family="Helvetica,sans-Serif" font-size="11.00">1 &gt;</text>
</a>
</g>
</g>
<!-- withdrawals&#45;&gt;withdrawal_purposes -->
<g id="edge5" class="edge"><title>withdrawals:purpose_id:w&#45;&gt;withdrawal_purposes:elipses:e</title>
<path fill="none" stroke="black" d="M212.551,-208C202.201,-208 195.354,-208 180.5,-208"/>
<polygon fill="black" stroke="black" points="219,-208 227,-211.6 223,-208 227,-208 227,-208 227,-208 223,-208 227,-204.4 219,-208 219,-208"/>
<ellipse fill="none" stroke="black" cx="215.8" cy="-208" rx="3.2" ry="3.2"/>
</g>
<!-- batch_withdrawals -->
<g id="node3" class="node"><title>batch_withdrawals</title>
<g id="a_node3"><a xlink:href="../../tables/batch_withdrawals.html" xlink:title="batch_withdrawals" target="_top">
<polygon fill="#ffffff" stroke="none" points="444,-225 444,-283 601,-283 601,-225 444,-225"/>
<polygon fill="#f5f5f5" stroke="none" points="444.5,-261 444.5,-283 601.5,-283 601.5,-261 444.5,-261"/>
<polygon fill="none" stroke="black" points="444.5,-261 444.5,-283 601.5,-283 601.5,-261 444.5,-261"/>
<text text-anchor="start" x="449.5" y="-270.2" font-family="Helvetica,sans-Serif" font-weight="bold" font-size="11.00">batch_withdrawals</text>
<text text-anchor="start" x="562.5" y="-269.2" font-family="Helvetica,sans-Serif" font-size="11.00">[table]</text>
<polygon fill="none" stroke="black" points="444.5,-243 444.5,-261 601.5,-261 601.5,-243 444.5,-243"/>
<text text-anchor="start" x="447.5" y="-249.2" font-family="Helvetica,sans-Serif" font-size="11.00">...</text>
<polygon fill="#ffffff" stroke="none" points="444.5,-225 444.5,-243 506.5,-243 506.5,-225 444.5,-225"/>
<polygon fill="none" stroke="black" points="444.5,-225 444.5,-243 506.5,-243 506.5,-225 444.5,-225"/>
<text text-anchor="start" x="447.5" y="-231.2" font-family="Helvetica,sans-Serif" font-size="11.00">&lt; 3</text>
<polygon fill="#ffffff" stroke="none" points="506.5,-225 506.5,-243 568.5,-243 568.5,-225 506.5,-225"/>
<polygon fill="none" stroke="black" points="506.5,-225 506.5,-243 568.5,-243 568.5,-225 506.5,-225"/>
<text text-anchor="start" x="529.5" y="-231.2" font-family="Helvetica,sans-Serif" font-size="11.00">0 rows</text>
<polygon fill="#ffffff" stroke="none" points="568.5,-225 568.5,-243 601.5,-243 601.5,-225 568.5,-225"/>
<polygon fill="none" stroke="black" points="568.5,-225 568.5,-243 601.5,-243 601.5,-225 568.5,-225"/>
<text text-anchor="start" x="591.5" y="-231.2" font-family="Helvetica,sans-Serif" font-size="11.00"> &#160;</text>
</a>
</g>
</g>
<!-- batch_withdrawals&#45;&gt;withdrawals -->
<g id="edge2" class="edge"><title>batch_withdrawals:elipses:w&#45;&gt;withdrawals:id:e</title>
<path fill="none" stroke="black" d="M428.802,-252C412.041,-252 403.135,-252 381,-252"/>
<polygon fill="black" stroke="black" points="435.5,-252 443.5,-255.6 439.5,-252 443.5,-252 443.5,-252 443.5,-252 439.5,-252 443.5,-248.4 435.5,-252 435.5,-252"/>
<ellipse fill="none" stroke="black" cx="432.3" cy="-252" rx="3.2" ry="3.2"/>
</g>
<!-- withdrawal_photos -->
<g id="node4" class="node"><title>withdrawal_photos</title>
<g id="a_node4"><a xlink:href="../../tables/withdrawal_photos.html" xlink:title="withdrawal_photos" target="_top">
<polygon fill="#ffffff" stroke="none" points="429,-37 429,-125 616,-125 616,-37 429,-37"/>
<polygon fill="#f5f5f5" stroke="none" points="431.5,-101 431.5,-123 614.5,-123 614.5,-101 431.5,-101"/>
<polygon fill="none" stroke="black" points="431.5,-101 431.5,-123 614.5,-123 614.5,-101 431.5,-101"/>
<text text-anchor="start" x="436.5" y="-110.2" font-family="Helvetica,sans-Serif" font-weight="bold" font-size="11.00">withdrawal_photos</text>
<text text-anchor="start" x="575.5" y="-109.2" font-family="Helvetica,sans-Serif" font-size="11.00">[table]</text>
<polygon fill="none" stroke="black" points="431.5,-79 431.5,-101 566.5,-101 566.5,-79 431.5,-79"/>
<image xlink:href="../../images/primaryKeys.png" width="11px" height="12px" preserveAspectRatio="xMinYMin meet" x="436.5" y="-96"/>
<text text-anchor="start" x="451.5" y="-87.2" font-family="Helvetica,sans-Serif" font-size="11.00">file_id</text>
<polygon fill="none" stroke="black" points="566.5,-79 566.5,-101 614.5,-101 614.5,-79 566.5,-79"/>
<text text-anchor="start" x="569.5" y="-87.2" font-family="Helvetica,sans-Serif" font-size="11.00">int8[19]</text>
<polygon fill="#ffffff" stroke="none" points="431.5,-57 431.5,-79 566.5,-79 566.5,-57 431.5,-57"/>
<polygon fill="none" stroke="black" points="431.5,-57 431.5,-79 566.5,-79 566.5,-57 431.5,-57"/>
<image xlink:href="../../images/foreignKeys.png" width="11px" height="12px" preserveAspectRatio="xMinYMin meet" x="436.5" y="-74"/>
<text text-anchor="start" x="451.5" y="-65.2" font-family="Helvetica,sans-Serif" font-size="11.00">withdrawal_id</text>
<polygon fill="none" stroke="black" points="566.5,-57 566.5,-79 614.5,-79 614.5,-57 566.5,-57"/>
<text text-anchor="start" x="569.5" y="-65.2" font-family="Helvetica,sans-Serif" font-size="11.00">int8[19]</text>
<polygon fill="#ffffff" stroke="none" points="431.5,-39 431.5,-57 489.5,-57 489.5,-39 431.5,-39"/>
<polygon fill="none" stroke="black" points="431.5,-39 431.5,-57 489.5,-57 489.5,-39 431.5,-39"/>
<text text-anchor="start" x="434.5" y="-45.2" font-family="Helvetica,sans-Serif" font-size="11.00">&lt; 2</text>
<polygon fill="#ffffff" stroke="none" points="489.5,-39 489.5,-57 566.5,-57 566.5,-39 489.5,-39"/>
<polygon fill="none" stroke="black" points="489.5,-39 489.5,-57 566.5,-57 566.5,-39 489.5,-39"/>
<text text-anchor="start" x="527.5" y="-45.2" font-family="Helvetica,sans-Serif" font-size="11.00">0 rows</text>
<polygon fill="#ffffff" stroke="none" points="566.5,-39 566.5,-57 614.5,-57 614.5,-39 566.5,-39"/>
<polygon fill="none" stroke="black" points="566.5,-39 566.5,-57 614.5,-57 614.5,-39 566.5,-39"/>
<text text-anchor="start" x="594.5" y="-45.2" font-family="Helvetica,sans-Serif" font-size="11.00">0 &gt;</text>
<polygon fill="none" stroke="black" stroke-width="2" points="430,-38 430,-124 615,-124 615,-38 430,-38"/>
</a>
</g>
</g>
<!-- withdrawal_photos&#45;&gt;withdrawals -->
<g id="edge4" class="edge"><title>withdrawal_photos:withdrawal_id:w&#45;&gt;withdrawals:id:e</title>
<path fill="none" stroke="black" d="M416.215,-70.3264C360.833,-91.6261 460.062,-252 381,-252"/>
<polygon fill="black" stroke="black" points="422.604,-69.286 431.079,-71.5532 426.552,-68.643 430.5,-68 430.5,-68 430.5,-68 426.552,-68.643 429.921,-64.4468 422.604,-69.286 422.604,-69.286"/>
<ellipse fill="none" stroke="black" cx="419.446" cy="-69.8004" rx="3.2" ry="3.2"/>
</g>
<!-- public.files -->
<g id="node5" class="node"><title>public.files</title>
<g id="a_node5"><a xlink:href="../../../public/tables/files.html" xlink:title="public.files" target="_top">
<polygon fill="#ffffff" stroke="none" points="248.5,-60 248.5,-118 359.5,-118 359.5,-60 248.5,-60"/>
<polygon fill="#f5f5f5" stroke="none" points="249,-96 249,-118 360,-118 360,-96 249,-96"/>
<polygon fill="none" stroke="black" points="249,-96 249,-118 360,-118 360,-96 249,-96"/>
<text text-anchor="start" x="254" y="-105.2" font-family="Helvetica,sans-Serif" font-weight="bold" font-size="11.00">public.files</text>
<text text-anchor="start" x="321" y="-104.2" font-family="Helvetica,sans-Serif" font-size="11.00">[table]</text>
<polygon fill="none" stroke="black" points="249,-78 249,-96 360,-96 360,-78 249,-78"/>
<text text-anchor="start" x="252" y="-84.2" font-family="Helvetica,sans-Serif" font-size="11.00">...</text>
<polygon fill="#ffffff" stroke="none" points="249,-60 249,-78 278,-78 278,-60 249,-60"/>
<polygon fill="none" stroke="black" points="249,-60 249,-78 278,-78 278,-60 249,-60"/>
<text text-anchor="start" x="252" y="-66.2" font-family="Helvetica,sans-Serif" font-size="11.00"> &#160;</text>
<polygon fill="#ffffff" stroke="none" points="278,-60 278,-78 328,-78 328,-60 278,-60"/>
<polygon fill="none" stroke="black" points="278,-60 278,-78 328,-78 328,-60 278,-60"/>
<text text-anchor="start" x="289" y="-66.2" font-family="Helvetica,sans-Serif" font-size="11.00">0 rows</text>
<polygon fill="#ffffff" stroke="none" points="328,-60 328,-78 360,-78 360,-60 328,-60"/>
<polygon fill="none" stroke="black" points="328,-60 328,-78 360,-78 360,-60 328,-60"/>
<text text-anchor="start" x="340" y="-66.2" font-family="Helvetica,sans-Serif" font-size="11.00">1 &gt;</text>
</a>
</g>
</g>
<!-- withdrawal_photos&#45;&gt;public.files -->
<g id="edge3" class="edge"><title>withdrawal_photos:file_id:w&#45;&gt;public.files:id:e</title>
<path fill="none" stroke="black" d="M419.794,-89.9886C402.399,-89.9526 384.203,-89.8358 367.558,-89.6945"/>
<polygon fill="black" stroke="black" points="429.704,-85.9991 429.696,-93.9991 428.096,-93.9974 428.104,-85.9974 429.704,-85.9991"/>
<polyline fill="none" stroke="black" points="430.5,-90 426.5,-89.9957 "/>
<ellipse fill="none" stroke="black" cx="423.3" cy="-89.9922" rx="3.2" ry="3.2"/>
</g>
<!-- tracking.deliveries -->
<g id="node7" class="node"><title>tracking.deliveries</title>
<g id="a_node7"><a xlink:href="../../../tracking/tables/deliveries.html" xlink:title="tracking.deliveries" target="_top">
<polygon fill="#ffffff" stroke="none" points="445,-146 445,-204 600,-204 600,-146 445,-146"/>
<polygon fill="#f5f5f5" stroke="none" points="445.5,-182 445.5,-204 600.5,-204 600.5,-182 445.5,-182"/>
<polygon fill="none" stroke="black" points="445.5,-182 445.5,-204 600.5,-204 600.5,-182 445.5,-182"/>
<text text-anchor="start" x="450.5" y="-191.2" font-family="Helvetica,sans-Serif" font-weight="bold" font-size="11.00">tracking.deliveries</text>
<text text-anchor="start" x="561.5" y="-190.2" font-family="Helvetica,sans-Serif" font-size="11.00">[table]</text>
<polygon fill="none" stroke="black" points="445.5,-164 445.5,-182 600.5,-182 600.5,-164 445.5,-164"/>
<text text-anchor="start" x="448.5" y="-170.2" font-family="Helvetica,sans-Serif" font-size="11.00">...</text>
<polygon fill="#ffffff" stroke="none" points="445.5,-146 445.5,-164 506.5,-164 506.5,-146 445.5,-146"/>
<polygon fill="none" stroke="black" points="445.5,-146 445.5,-164 506.5,-164 506.5,-146 445.5,-146"/>
<text text-anchor="start" x="448.5" y="-152.2" font-family="Helvetica,sans-Serif" font-size="11.00">&lt; 1</text>
<polygon fill="#ffffff" stroke="none" points="506.5,-146 506.5,-164 567.5,-164 567.5,-146 506.5,-146"/>
<polygon fill="none" stroke="black" points="506.5,-146 506.5,-164 567.5,-164 567.5,-146 506.5,-146"/>
<text text-anchor="start" x="528.5" y="-152.2" font-family="Helvetica,sans-Serif" font-size="11.00">0 rows</text>
<polygon fill="#ffffff" stroke="none" points="567.5,-146 567.5,-164 600.5,-164 600.5,-146 567.5,-146"/>
<polygon fill="none" stroke="black" points="567.5,-146 567.5,-164 600.5,-164 600.5,-146 567.5,-146"/>
<text text-anchor="start" x="590.5" y="-152.2" font-family="Helvetica,sans-Serif" font-size="11.00"> &#160;</text>
</a>
</g>
</g>
<!-- tracking.deliveries&#45;&gt;withdrawals -->
<g id="edge6" class="edge"><title>tracking.deliveries:elipses:w&#45;&gt;withdrawals:id:e</title>
<path fill="none" stroke="black" d="M430.344,-176.6C405.119,-192.054 420.241,-252 381,-252"/>
<polygon fill="black" stroke="black" points="436.747,-174.972 445.387,-176.489 440.623,-173.986 444.5,-173 444.5,-173 444.5,-173 440.623,-173.986 443.613,-169.511 436.747,-174.972 436.747,-174.972"/>
<ellipse fill="none" stroke="black" cx="433.645" cy="-175.76" rx="3.2" ry="3.2"/>
</g>
</g>
</svg>
