<?xml version="1.0" encoding="UTF-8" standalone="no"?>
<!DOCTYPE svg PUBLIC "-//W3C//DTD SVG 1.1//EN"
 "http://www.w3.org/Graphics/SVG/1.1/DTD/svg11.dtd">
<!-- Generated by graphviz version 2.38.0 (20140413.2041)
 -->
<!-- Title: oneDegreeRelationshipsDiagram Pages: 1 -->
<svg width="756pt" height="624pt"
 viewBox="0.00 0.00 756.00 624.00" xmlns="http://www.w3.org/2000/svg" xmlns:xlink="http://www.w3.org/1999/xlink">
<g id="graph0" class="graph" transform="scale(1 1) rotate(0) translate(4 620)">
<title>oneDegreeRelationshipsDiagram</title>
<polygon fill="#ffffff" stroke="none" points="-4,4 -4,-620 752,-620 752,4 -4,4"/>
<text text-anchor="middle" x="74.5" y="-7.2" font-family="Helvetica,sans-Serif" font-size="11.00">Generated by SchemaSpy</text>
<!-- accession_state_history -->
<g id="node1" class="node"><title>accession_state_history</title>
<g id="a_node1"><a xlink:href="../../tables/accession_state_history.html" xlink:title="accession_state_history" target="_top">
<polygon fill="#ffffff" stroke="none" points="559,-43 559,-189 740,-189 740,-43 559,-43"/>
<polygon fill="#f5f5f5" stroke="none" points="559.5,-167 559.5,-189 740.5,-189 740.5,-167 559.5,-167"/>
<polygon fill="none" stroke="black" points="559.5,-167 559.5,-189 740.5,-189 740.5,-167 559.5,-167"/>
<text text-anchor="start" x="564.5" y="-176.2" font-family="Helvetica,sans-Serif" font-weight="bold" font-size="11.00">accession_state_history</text>
<text text-anchor="start" x="701.5" y="-175.2" font-family="Helvetica,sans-Serif" font-size="11.00">[table]</text>
<polygon fill="#ffffff" stroke="none" points="559.5,-145 559.5,-167 740.5,-167 740.5,-145 559.5,-145"/>
<polygon fill="none" stroke="black" points="559.5,-145 559.5,-167 740.5,-167 740.5,-145 559.5,-145"/>
<image xlink:href="../../images/foreignKeys.png" width="11px" height="12px" preserveAspectRatio="xMinYMin meet" x="564.5" y="-162"/>
<text text-anchor="start" x="589.5" y="-153.2" font-family="Helvetica,sans-Serif" font-size="11.00">accession_id</text>
<polygon fill="#ffffff" stroke="none" points="559.5,-123 559.5,-145 740.5,-145 740.5,-123 559.5,-123"/>
<polygon fill="none" stroke="black" points="559.5,-123 559.5,-145 740.5,-145 740.5,-123 559.5,-123"/>
<text text-anchor="start" x="589.5" y="-131.2" font-family="Helvetica,sans-Serif" font-size="11.00">updated_time</text>
<polygon fill="none" stroke="black" points="559.5,-101 559.5,-123 740.5,-123 740.5,-101 559.5,-101"/>
<image xlink:href="../../images/foreignKeys.png" width="11px" height="12px" preserveAspectRatio="xMinYMin meet" x="564.5" y="-118"/>
<text text-anchor="start" x="589.5" y="-109.2" font-family="Helvetica,sans-Serif" font-size="11.00">old_state_id</text>
<polygon fill="#ffffff" stroke="none" points="559.5,-79 559.5,-101 740.5,-101 740.5,-79 559.5,-79"/>
<polygon fill="none" stroke="black" points="559.5,-79 559.5,-101 740.5,-101 740.5,-79 559.5,-79"/>
<image xlink:href="../../images/foreignKeys.png" width="11px" height="12px" preserveAspectRatio="xMinYMin meet" x="564.5" y="-96"/>
<text text-anchor="start" x="589.5" y="-87.2" font-family="Helvetica,sans-Serif" font-size="11.00">new_state_id</text>
<polygon fill="none" stroke="black" points="559.5,-61 559.5,-79 740.5,-79 740.5,-61 559.5,-61"/>
<text text-anchor="start" x="562.5" y="-67.2" font-family="Helvetica,sans-Serif" font-size="11.00">...</text>
<polygon fill="#ffffff" stroke="none" points="559.5,-43 559.5,-61 633.5,-61 633.5,-43 559.5,-43"/>
<polygon fill="none" stroke="black" points="559.5,-43 559.5,-61 633.5,-61 633.5,-43 559.5,-43"/>
<text text-anchor="start" x="562.5" y="-49.2" font-family="Helvetica,sans-Serif" font-size="11.00">&lt; 3</text>
<polygon fill="#ffffff" stroke="none" points="633.5,-43 633.5,-61 701.5,-61 701.5,-43 633.5,-43"/>
<polygon fill="none" stroke="black" points="633.5,-43 633.5,-61 701.5,-61 701.5,-43 633.5,-43"/>
<text text-anchor="start" x="662.5" y="-49.2" font-family="Helvetica,sans-Serif" font-size="11.00">0 rows</text>
<polygon fill="#ffffff" stroke="none" points="701.5,-43 701.5,-61 740.5,-61 740.5,-43 701.5,-43"/>
<polygon fill="none" stroke="black" points="701.5,-43 701.5,-61 740.5,-61 740.5,-43 701.5,-43"/>
<text text-anchor="start" x="730.5" y="-49.2" font-family="Helvetica,sans-Serif" font-size="11.00"> &#160;</text>
</a>
</g>
</g>
<!-- accessions -->
<g id="node2" class="node"><title>accessions</title>
<g id="a_node2"><a xlink:href="../../tables/accessions.html" xlink:title="accessions" target="_top">
<polygon fill="#ffffff" stroke="none" points="282,-136 282,-612 510,-612 510,-136 282,-136"/>
<polygon fill="#f5f5f5" stroke="none" points="282,-590 282,-612 510,-612 510,-590 282,-590"/>
<polygon fill="none" stroke="black" points="282,-590 282,-612 510,-612 510,-590 282,-590"/>
<text text-anchor="start" x="287" y="-599.2" font-family="Helvetica,sans-Serif" font-weight="bold" font-size="11.00">accessions</text>
<text text-anchor="start" x="471" y="-598.2" font-family="Helvetica,sans-Serif" font-size="11.00">[table]</text>
<polygon fill="none" stroke="black" points="282,-568 282,-590 510,-590 510,-568 282,-568"/>
<image xlink:href="../../images/primaryKeys.png" width="11px" height="12px" preserveAspectRatio="xMinYMin meet" x="287" y="-585"/>
<text text-anchor="start" x="302" y="-576.2" font-family="Helvetica,sans-Serif" font-size="11.00">id</text>
<polygon fill="#ffffff" stroke="none" points="282,-546 282,-568 510,-568 510,-546 282,-546"/>
<polygon fill="none" stroke="black" points="282,-546 282,-568 510,-568 510,-546 282,-546"/>
<image xlink:href="../../images/foreignKeys.png" width="11px" height="12px" preserveAspectRatio="xMinYMin meet" x="287" y="-563"/>
<text text-anchor="start" x="302" y="-554.2" font-family="Helvetica,sans-Serif" font-size="11.00">facility_id</text>
<polygon fill="none" stroke="black" points="282,-524 282,-546 510,-546 510,-524 282,-524"/>
<image xlink:href="../../images/foreignKeys.png" width="11px" height="12px" preserveAspectRatio="xMinYMin meet" x="287" y="-541"/>
<text text-anchor="start" x="302" y="-532.2" font-family="Helvetica,sans-Serif" font-size="11.00">app_device_id</text>
<polygon fill="#ffffff" stroke="none" points="282,-502 282,-524 510,-524 510,-502 282,-502"/>
<polygon fill="none" stroke="black" points="282,-502 282,-524 510,-524 510,-502 282,-502"/>
<text text-anchor="start" x="302" y="-510.2" font-family="Helvetica,sans-Serif" font-size="11.00">number</text>
<polygon fill="#ffffff" stroke="none" points="282,-480 282,-502 510,-502 510,-480 282,-480"/>
<polygon fill="none" stroke="black" points="282,-480 282,-502 510,-502 510,-480 282,-480"/>
<text text-anchor="start" x="302" y="-488.2" font-family="Helvetica,sans-Serif" font-size="11.00">received_date</text>
<polygon fill="none" stroke="black" points="282,-458 282,-480 510,-480 510,-458 282,-458"/>
<image xlink:href="../../images/foreignKeys.png" width="11px" height="12px" preserveAspectRatio="xMinYMin meet" x="287" y="-475"/>
<text text-anchor="start" x="302" y="-466.2" font-family="Helvetica,sans-Serif" font-size="11.00">state_id</text>
<polygon fill="none" stroke="black" points="282,-436 282,-458 510,-458 510,-436 282,-436"/>
<image xlink:href="../../images/foreignKeys.png" width="11px" height="12px" preserveAspectRatio="xMinYMin meet" x="287" y="-453"/>
<text text-anchor="start" x="302" y="-444.2" font-family="Helvetica,sans-Serif" font-size="11.00">storage_location_id</text>
<polygon fill="#ffffff" stroke="none" points="282,-414 282,-436 510,-436 510,-414 282,-414"/>
<polygon fill="none" stroke="black" points="282,-414 282,-436 510,-436 510,-414 282,-414"/>
<text text-anchor="start" x="302" y="-422.2" font-family="Helvetica,sans-Serif" font-size="11.00">created_time</text>
<polygon fill="none" stroke="black" points="282,-392 282,-414 510,-414 510,-392 282,-392"/>
<image xlink:href="../../images/foreignKeys.png" width="11px" height="12px" preserveAspectRatio="xMinYMin meet" x="287" y="-409"/>
<text text-anchor="start" x="302" y="-400.2" font-family="Helvetica,sans-Serif" font-size="11.00">processing_method_id</text>
<polygon fill="none" stroke="black" points="282,-370 282,-392 510,-392 510,-370 282,-370"/>
<image xlink:href="../../images/foreignKeys.png" width="11px" height="12px" preserveAspectRatio="xMinYMin meet" x="287" y="-387"/>
<text text-anchor="start" x="302" y="-378.2" font-family="Helvetica,sans-Serif" font-size="11.00">target_storage_condition</text>
<polygon fill="none" stroke="black" points="282,-348 282,-370 510,-370 510,-348 282,-348"/>
<image xlink:href="../../images/foreignKeys.png" width="11px" height="12px" preserveAspectRatio="xMinYMin meet" x="287" y="-365"/>
<text text-anchor="start" x="302" y="-356.2" font-family="Helvetica,sans-Serif" font-size="11.00">species_endangered_type_id</text>
<polygon fill="none" stroke="black" points="282,-326 282,-348 510,-348 510,-326 282,-326"/>
<image xlink:href="../../images/foreignKeys.png" width="11px" height="12px" preserveAspectRatio="xMinYMin meet" x="287" y="-343"/>
<text text-anchor="start" x="302" y="-334.2" font-family="Helvetica,sans-Serif" font-size="11.00">rare_type_id</text>
<polygon fill="none" stroke="black" points="282,-304 282,-326 510,-326 510,-304 282,-304"/>
<image xlink:href="../../images/foreignKeys.png" width="11px" height="12px" preserveAspectRatio="xMinYMin meet" x="287" y="-321"/>
<text text-anchor="start" x="302" y="-312.2" font-family="Helvetica,sans-Serif" font-size="11.00">source_plant_origin_id</text>
<polygon fill="none" stroke="black" points="282,-282 282,-304 510,-304 510,-282 282,-282"/>
<image xlink:href="../../images/foreignKeys.png" width="11px" height="12px" preserveAspectRatio="xMinYMin meet" x="287" y="-299"/>
<text text-anchor="start" x="302" y="-290.2" font-family="Helvetica,sans-Serif" font-size="11.00">remaining_units_id</text>
<polygon fill="none" stroke="black" points="282,-260 282,-282 510,-282 510,-260 282,-260"/>
<image xlink:href="../../images/foreignKeys.png" width="11px" height="12px" preserveAspectRatio="xMinYMin meet" x="287" y="-277"/>
<text text-anchor="start" x="302" y="-268.2" font-family="Helvetica,sans-Serif" font-size="11.00">subset_weight_units_id</text>
<polygon fill="none" stroke="black" points="282,-238 282,-260 510,-260 510,-238 282,-238"/>
<image xlink:href="../../images/foreignKeys.png" width="11px" height="12px" preserveAspectRatio="xMinYMin meet" x="287" y="-255"/>
<text text-anchor="start" x="302" y="-246.2" font-family="Helvetica,sans-Serif" font-size="11.00">total_units_id</text>
<polygon fill="none" stroke="black" points="282,-216 282,-238 510,-238 510,-216 282,-216"/>
<image xlink:href="../../images/foreignKeys.png" width="11px" height="12px" preserveAspectRatio="xMinYMin meet" x="287" y="-233"/>
<text text-anchor="start" x="302" y="-224.2" font-family="Helvetica,sans-Serif" font-size="11.00">created_by</text>
<polygon fill="none" stroke="black" points="282,-194 282,-216 510,-216 510,-194 282,-194"/>
<image xlink:href="../../images/foreignKeys.png" width="11px" height="12px" preserveAspectRatio="xMinYMin meet" x="287" y="-211"/>
<text text-anchor="start" x="302" y="-202.2" font-family="Helvetica,sans-Serif" font-size="11.00">modified_by</text>
<polygon fill="none" stroke="black" points="282,-172 282,-194 510,-194 510,-172 282,-172"/>
<image xlink:href="../../images/foreignKeys.png" width="11px" height="12px" preserveAspectRatio="xMinYMin meet" x="287" y="-189"/>
<text text-anchor="start" x="302" y="-180.2" font-family="Helvetica,sans-Serif" font-size="11.00">species_id</text>
<polygon fill="none" stroke="black" points="282,-154 282,-172 510,-172 510,-154 282,-154"/>
<text text-anchor="start" x="285" y="-160.2" font-family="Helvetica,sans-Serif" font-size="11.00">...</text>
<polygon fill="#ffffff" stroke="none" points="282,-136 282,-154 378,-154 378,-136 282,-136"/>
<polygon fill="none" stroke="black" points="282,-136 282,-154 378,-154 378,-136 282,-136"/>
<text text-anchor="start" x="285" y="-142.2" font-family="Helvetica,sans-Serif" font-size="11.00">&lt; 15</text>
<polygon fill="#ffffff" stroke="none" points="378,-136 378,-154 453,-154 453,-136 378,-136"/>
<polygon fill="none" stroke="black" points="378,-136 378,-154 453,-154 453,-136 378,-136"/>
<text text-anchor="start" x="414" y="-142.2" font-family="Helvetica,sans-Serif" font-size="11.00">0 rows</text>
<polygon fill="#ffffff" stroke="none" points="453,-136 453,-154 510,-154 510,-136 453,-136"/>
<polygon fill="none" stroke="black" points="453,-136 453,-154 510,-154 510,-136 453,-136"/>
<text text-anchor="start" x="490" y="-142.2" font-family="Helvetica,sans-Serif" font-size="11.00">8 &gt;</text>
</a>
</g>
</g>
<!-- accession_state_history&#45;&gt;accessions -->
<g id="edge1" class="edge"><title>accession_state_history:accession_id:w&#45;&gt;accessions:id:e</title>
<path fill="none" stroke="black" d="M544.126,-156.932C387.024,-178.817 695.009,-579 511,-579"/>
<polygon fill="black" stroke="black" points="550.517,-156.517 558.733,-159.592 554.508,-156.259 558.5,-156 558.5,-156 558.5,-156 554.508,-156.259 558.267,-152.408 550.517,-156.517 550.517,-156.517"/>
<ellipse fill="none" stroke="black" cx="547.323" cy="-156.724" rx="3.2" ry="3.2"/>
</g>
<!-- accession_states -->
<g id="node3" class="node"><title>accession_states</title>
<g id="a_node3"><a xlink:href="../../tables/accession_states.html" xlink:title="accession_states" target="_top">
<polygon fill="#ffffff" stroke="none" points="8,-37 8,-147 233,-147 233,-37 8,-37"/>
<polygon fill="#f5f5f5" stroke="none" points="10.5,-123 10.5,-145 231.5,-145 231.5,-123 10.5,-123"/>
<polygon fill="none" stroke="black" points="10.5,-123 10.5,-145 231.5,-145 231.5,-123 10.5,-123"/>
<text text-anchor="start" x="15.5" y="-132.2" font-family="Helvetica,sans-Serif" font-weight="bold" font-size="11.00">accession_states</text>
<text text-anchor="start" x="192.5" y="-131.2" font-family="Helvetica,sans-Serif" font-size="11.00">[table]</text>
<polygon fill="none" stroke="black" points="10.5,-101 10.5,-123 130.5,-123 130.5,-101 10.5,-101"/>
<image xlink:href="../../images/primaryKeys.png" width="11px" height="12px" preserveAspectRatio="xMinYMin meet" x="15.5" y="-118"/>
<text text-anchor="start" x="30.5" y="-109.2" font-family="Helvetica,sans-Serif" font-size="11.00">id</text>
<polygon fill="none" stroke="black" points="130.5,-101 130.5,-123 231.5,-123 231.5,-101 130.5,-101"/>
<text text-anchor="start" x="133.5" y="-109.2" font-family="Helvetica,sans-Serif" font-size="11.00">int4[10]</text>
<polygon fill="none" stroke="black" points="10.5,-79 10.5,-101 130.5,-101 130.5,-79 10.5,-79"/>
<text text-anchor="start" x="30.5" y="-87.2" font-family="Helvetica,sans-Serif" font-size="11.00">name</text>
<polygon fill="none" stroke="black" points="130.5,-79 130.5,-101 231.5,-101 231.5,-79 130.5,-79"/>
<text text-anchor="start" x="133.5" y="-87.2" font-family="Helvetica,sans-Serif" font-size="11.00">text[2147483647]</text>
<polygon fill="none" stroke="black" points="10.5,-57 10.5,-79 130.5,-79 130.5,-57 10.5,-57"/>
<text text-anchor="start" x="30.5" y="-65.2" font-family="Helvetica,sans-Serif" font-size="11.00">active</text>
<polygon fill="none" stroke="black" points="130.5,-57 130.5,-79 231.5,-79 231.5,-57 130.5,-57"/>
<text text-anchor="start" x="133.5" y="-65.2" font-family="Helvetica,sans-Serif" font-size="11.00">bool[1]</text>
<polygon fill="#ffffff" stroke="none" points="10.5,-39 10.5,-57 60.5,-57 60.5,-39 10.5,-39"/>
<polygon fill="none" stroke="black" points="10.5,-39 10.5,-57 60.5,-57 60.5,-39 10.5,-39"/>
<text text-anchor="start" x="13.5" y="-45.2" font-family="Helvetica,sans-Serif" font-size="11.00">&lt; 0</text>
<polygon fill="#ffffff" stroke="none" points="60.5,-39 60.5,-57 130.5,-57 130.5,-39 60.5,-39"/>
<polygon fill="none" stroke="black" points="60.5,-39 60.5,-57 130.5,-57 130.5,-39 60.5,-39"/>
<text text-anchor="start" x="91.5" y="-45.2" font-family="Helvetica,sans-Serif" font-size="11.00">9 rows</text>
<polygon fill="#ffffff" stroke="none" points="130.5,-39 130.5,-57 231.5,-57 231.5,-39 130.5,-39"/>
<polygon fill="none" stroke="black" points="130.5,-39 130.5,-57 231.5,-57 231.5,-39 130.5,-39"/>
<text text-anchor="start" x="211.5" y="-45.2" font-family="Helvetica,sans-Serif" font-size="11.00">3 &gt;</text>
<polygon fill="none" stroke="black" stroke-width="2" points="9,-38 9,-146 232,-146 232,-38 9,-38"/>
</a>
</g>
</g>
<!-- accession_state_history&#45;&gt;accession_states -->
<g id="edge2" class="edge"><title>accession_state_history:new_state_id:w&#45;&gt;accession_states:id.type:e</title>
<path fill="none" stroke="black" d="M544.088,-89.9762C429.254,-89.5999 394.435,-85.1134 274,-102 255.211,-104.634 251.472,-112 232.5,-112"/>
<polygon fill="black" stroke="black" points="550.5,-89.9867 558.494,-93.6 554.5,-89.9934 558.5,-90 558.5,-90 558.5,-90 554.5,-89.9934 558.506,-86.4 550.5,-89.9867 550.5,-89.9867"/>
<ellipse fill="none" stroke="black" cx="547.3" cy="-89.9814" rx="3.2" ry="3.2"/>
</g>
<!-- accession_state_history&#45;&gt;accession_states -->
<g id="edge3" class="edge"><title>accession_state_history:old_state_id:w&#45;&gt;accession_states:id.type:e</title>
<path fill="none" stroke="black" d="M544.015,-112C411.008,-112 372.437,-112 232.5,-112"/>
<polygon fill="black" stroke="black" points="550.5,-112 558.5,-115.6 554.5,-112 558.5,-112 558.5,-112 558.5,-112 554.5,-112 558.5,-108.4 550.5,-112 550.5,-112"/>
<ellipse fill="none" stroke="black" cx="547.3" cy="-112" rx="3.2" ry="3.2"/>
</g>
<!-- accessions&#45;&gt;accession_states -->
<g id="edge4" class="edge"><title>accessions:state_id:w&#45;&gt;accession_states:id.type:e</title>
<path fill="none" stroke="black" d="M267.146,-464.223C215.303,-421.86 307.089,-112 232.5,-112"/>
<polygon fill="black" stroke="black" points="273.437,-466.392 279.827,-472.403 277.218,-467.696 281,-469 281,-469 281,-469 277.218,-467.696 282.173,-465.597 273.437,-466.392 273.437,-466.392"/>
<ellipse fill="none" stroke="black" cx="270.412" cy="-465.349" rx="3.20001" ry="3.20001"/>
</g>
</g>
</svg>
