<?xml version="1.0" encoding="UTF-8" standalone="no"?>
<!DOCTYPE svg PUBLIC "-//W3C//DTD SVG 1.1//EN"
 "http://www.w3.org/Graphics/SVG/1.1/DTD/svg11.dtd">
<!-- Generated by graphviz version 2.38.0 (20140413.2041)
 -->
<!-- Title: twoDegreesRelationshipsDiagram Pages: 1 -->
<svg width="1302pt" height="1045pt"
 viewBox="0.00 0.00 1302.00 1045.13" xmlns="http://www.w3.org/2000/svg" xmlns:xlink="http://www.w3.org/1999/xlink">
<g id="graph0" class="graph" transform="scale(1 1) rotate(0) translate(4 1041.13)">
<title>twoDegreesRelationshipsDiagram</title>
<polygon fill="#ffffff" stroke="none" points="-4,4 -4,-1041.13 1298,-1041.13 1298,4 -4,4"/>
<text text-anchor="middle" x="74.5" y="-7.2" font-family="Helvetica,sans-Serif" font-size="11.00">Generated by SchemaSpy</text>
<!-- accession_collectors -->
<g id="node1" class="node"><title>accession_collectors</title>
<g id="a_node1"><a xlink:href="../../tables/accession_collectors.html" xlink:title="accession_collectors" target="_top">
<polygon fill="#ffffff" stroke="none" points="934.5,-847.131 934.5,-905.131 1097.5,-905.131 1097.5,-847.131 934.5,-847.131"/>
<polygon fill="#f5f5f5" stroke="none" points="935,-883.131 935,-905.131 1098,-905.131 1098,-883.131 935,-883.131"/>
<polygon fill="none" stroke="black" points="935,-883.131 935,-905.131 1098,-905.131 1098,-883.131 935,-883.131"/>
<text text-anchor="start" x="940" y="-892.331" font-family="Helvetica,sans-Serif" font-weight="bold" font-size="11.00">accession_collectors</text>
<text text-anchor="start" x="1059" y="-891.331" font-family="Helvetica,sans-Serif" font-size="11.00">[table]</text>
<polygon fill="none" stroke="black" points="935,-865.131 935,-883.131 1098,-883.131 1098,-865.131 935,-865.131"/>
<text text-anchor="start" x="938" y="-871.331" font-family="Helvetica,sans-Serif" font-size="11.00">...</text>
<polygon fill="#ffffff" stroke="none" points="935,-847.131 935,-865.131 1000,-865.131 1000,-847.131 935,-847.131"/>
<polygon fill="none" stroke="black" points="935,-847.131 935,-865.131 1000,-865.131 1000,-847.131 935,-847.131"/>
<text text-anchor="start" x="938" y="-853.331" font-family="Helvetica,sans-Serif" font-size="11.00">&lt; 1</text>
<polygon fill="#ffffff" stroke="none" points="1000,-847.131 1000,-865.131 1063,-865.131 1063,-847.131 1000,-847.131"/>
<polygon fill="none" stroke="black" points="1000,-847.131 1000,-865.131 1063,-865.131 1063,-847.131 1000,-847.131"/>
<text text-anchor="start" x="1024" y="-853.331" font-family="Helvetica,sans-Serif" font-size="11.00">0 rows</text>
<polygon fill="#ffffff" stroke="none" points="1063,-847.131 1063,-865.131 1098,-865.131 1098,-847.131 1063,-847.131"/>
<polygon fill="none" stroke="black" points="1063,-847.131 1063,-865.131 1098,-865.131 1098,-847.131 1063,-847.131"/>
<text text-anchor="start" x="1088" y="-853.331" font-family="Helvetica,sans-Serif" font-size="11.00"> &#160;</text>
</a>
</g>
</g>
<!-- accessions -->
<g id="node2" class="node"><title>accessions</title>
<g id="a_node2"><a xlink:href="../../tables/accessions.html" xlink:title="accessions" target="_top">
<polygon fill="#ffffff" stroke="none" points="635,-266.131 635,-808.131 866,-808.131 866,-266.131 635,-266.131"/>
<polygon fill="#f5f5f5" stroke="none" points="635.5,-786.131 635.5,-808.131 866.5,-808.131 866.5,-786.131 635.5,-786.131"/>
<polygon fill="none" stroke="black" points="635.5,-786.131 635.5,-808.131 866.5,-808.131 866.5,-786.131 635.5,-786.131"/>
<text text-anchor="start" x="640.5" y="-795.331" font-family="Helvetica,sans-Serif" font-weight="bold" font-size="11.00">accessions</text>
<text text-anchor="start" x="827.5" y="-794.331" font-family="Helvetica,sans-Serif" font-size="11.00">[table]</text>
<polygon fill="none" stroke="black" points="635.5,-764.131 635.5,-786.131 866.5,-786.131 866.5,-764.131 635.5,-764.131"/>
<image xlink:href="../../images/primaryKeys.png" width="11px" height="12px" preserveAspectRatio="xMinYMin meet" x="640.5" y="-781.131"/>
<text text-anchor="start" x="655.5" y="-772.331" font-family="Helvetica,sans-Serif" font-size="11.00">id</text>
<polygon fill="#ffffff" stroke="none" points="635.5,-742.131 635.5,-764.131 866.5,-764.131 866.5,-742.131 635.5,-742.131"/>
<polygon fill="none" stroke="black" points="635.5,-742.131 635.5,-764.131 866.5,-764.131 866.5,-742.131 635.5,-742.131"/>
<image xlink:href="../../images/foreignKeys.png" width="11px" height="12px" preserveAspectRatio="xMinYMin meet" x="640.5" y="-759.131"/>
<text text-anchor="start" x="655.5" y="-750.331" font-family="Helvetica,sans-Serif" font-size="11.00">facility_id</text>
<polygon fill="#ffffff" stroke="none" points="635.5,-720.131 635.5,-742.131 866.5,-742.131 866.5,-720.131 635.5,-720.131"/>
<polygon fill="none" stroke="black" points="635.5,-720.131 635.5,-742.131 866.5,-742.131 866.5,-720.131 635.5,-720.131"/>
<text text-anchor="start" x="655.5" y="-728.331" font-family="Helvetica,sans-Serif" font-size="11.00">number</text>
<polygon fill="#ffffff" stroke="none" points="635.5,-698.131 635.5,-720.131 866.5,-720.131 866.5,-698.131 635.5,-698.131"/>
<polygon fill="none" stroke="black" points="635.5,-698.131 635.5,-720.131 866.5,-720.131 866.5,-698.131 635.5,-698.131"/>
<text text-anchor="start" x="655.5" y="-706.331" font-family="Helvetica,sans-Serif" font-size="11.00">received_date</text>
<polygon fill="none" stroke="black" points="635.5,-676.131 635.5,-698.131 866.5,-698.131 866.5,-676.131 635.5,-676.131"/>
<image xlink:href="../../images/foreignKeys.png" width="11px" height="12px" preserveAspectRatio="xMinYMin meet" x="640.5" y="-693.131"/>
<text text-anchor="start" x="655.5" y="-684.331" font-family="Helvetica,sans-Serif" font-size="11.00">state_id</text>
<polygon fill="none" stroke="black" points="635.5,-654.131 635.5,-676.131 866.5,-676.131 866.5,-654.131 635.5,-654.131"/>
<image xlink:href="../../images/foreignKeys.png" width="11px" height="12px" preserveAspectRatio="xMinYMin meet" x="640.5" y="-671.131"/>
<text text-anchor="start" x="655.5" y="-662.331" font-family="Helvetica,sans-Serif" font-size="11.00">storage_location_id</text>
<polygon fill="#ffffff" stroke="none" points="635.5,-632.131 635.5,-654.131 866.5,-654.131 866.5,-632.131 635.5,-632.131"/>
<polygon fill="none" stroke="black" points="635.5,-632.131 635.5,-654.131 866.5,-654.131 866.5,-632.131 635.5,-632.131"/>
<text text-anchor="start" x="655.5" y="-640.331" font-family="Helvetica,sans-Serif" font-size="11.00">created_time</text>
<polygon fill="none" stroke="black" points="635.5,-610.131 635.5,-632.131 866.5,-632.131 866.5,-610.131 635.5,-610.131"/>
<image xlink:href="../../images/foreignKeys.png" width="11px" height="12px" preserveAspectRatio="xMinYMin meet" x="640.5" y="-627.131"/>
<text text-anchor="start" x="655.5" y="-618.331" font-family="Helvetica,sans-Serif" font-size="11.00">processing_method_id</text>
<polygon fill="none" stroke="black" points="635.5,-588.131 635.5,-610.131 866.5,-610.131 866.5,-588.131 635.5,-588.131"/>
<image xlink:href="../../images/foreignKeys.png" width="11px" height="12px" preserveAspectRatio="xMinYMin meet" x="640.5" y="-605.131"/>
<text text-anchor="start" x="655.5" y="-596.331" font-family="Helvetica,sans-Serif" font-size="11.00">target_storage_condition</text>
<polygon fill="none" stroke="black" points="635.5,-566.131 635.5,-588.131 866.5,-588.131 866.5,-566.131 635.5,-566.131"/>
<image xlink:href="../../images/foreignKeys.png" width="11px" height="12px" preserveAspectRatio="xMinYMin meet" x="640.5" y="-583.131"/>
<text text-anchor="start" x="655.5" y="-574.331" font-family="Helvetica,sans-Serif" font-size="11.00">species_endangered_type_id</text>
<polygon fill="none" stroke="black" points="635.5,-544.131 635.5,-566.131 866.5,-566.131 866.5,-544.131 635.5,-544.131"/>
<image xlink:href="../../images/foreignKeys.png" width="11px" height="12px" preserveAspectRatio="xMinYMin meet" x="640.5" y="-561.131"/>
<text text-anchor="start" x="655.5" y="-552.331" font-family="Helvetica,sans-Serif" font-size="11.00">rare_type_id</text>
<polygon fill="none" stroke="black" points="635.5,-522.131 635.5,-544.131 866.5,-544.131 866.5,-522.131 635.5,-522.131"/>
<image xlink:href="../../images/foreignKeys.png" width="11px" height="12px" preserveAspectRatio="xMinYMin meet" x="640.5" y="-539.131"/>
<text text-anchor="start" x="655.5" y="-530.331" font-family="Helvetica,sans-Serif" font-size="11.00">source_plant_origin_id</text>
<polygon fill="none" stroke="black" points="635.5,-500.131 635.5,-522.131 866.5,-522.131 866.5,-500.131 635.5,-500.131"/>
<image xlink:href="../../images/foreignKeys.png" width="11px" height="12px" preserveAspectRatio="xMinYMin meet" x="640.5" y="-517.131"/>
<text text-anchor="start" x="655.5" y="-508.331" font-family="Helvetica,sans-Serif" font-size="11.00">remaining_units_id</text>
<polygon fill="none" stroke="black" points="635.5,-478.131 635.5,-500.131 866.5,-500.131 866.5,-478.131 635.5,-478.131"/>
<image xlink:href="../../images/foreignKeys.png" width="11px" height="12px" preserveAspectRatio="xMinYMin meet" x="640.5" y="-495.131"/>
<text text-anchor="start" x="655.5" y="-486.331" font-family="Helvetica,sans-Serif" font-size="11.00">subset_weight_units_id</text>
<polygon fill="none" stroke="black" points="635.5,-456.131 635.5,-478.131 866.5,-478.131 866.5,-456.131 635.5,-456.131"/>
<image xlink:href="../../images/foreignKeys.png" width="11px" height="12px" preserveAspectRatio="xMinYMin meet" x="640.5" y="-473.131"/>
<text text-anchor="start" x="655.5" y="-464.331" font-family="Helvetica,sans-Serif" font-size="11.00">total_units_id</text>
<polygon fill="none" stroke="black" points="635.5,-434.131 635.5,-456.131 866.5,-456.131 866.5,-434.131 635.5,-434.131"/>
<image xlink:href="../../images/foreignKeys.png" width="11px" height="12px" preserveAspectRatio="xMinYMin meet" x="640.5" y="-451.131"/>
<text text-anchor="start" x="655.5" y="-442.331" font-family="Helvetica,sans-Serif" font-size="11.00">created_by</text>
<polygon fill="none" stroke="black" points="635.5,-412.131 635.5,-434.131 866.5,-434.131 866.5,-412.131 635.5,-412.131"/>
<image xlink:href="../../images/foreignKeys.png" width="11px" height="12px" preserveAspectRatio="xMinYMin meet" x="640.5" y="-429.131"/>
<text text-anchor="start" x="655.5" y="-420.331" font-family="Helvetica,sans-Serif" font-size="11.00">modified_by</text>
<polygon fill="none" stroke="black" points="635.5,-390.131 635.5,-412.131 866.5,-412.131 866.5,-390.131 635.5,-390.131"/>
<image xlink:href="../../images/foreignKeys.png" width="11px" height="12px" preserveAspectRatio="xMinYMin meet" x="640.5" y="-407.131"/>
<text text-anchor="start" x="655.5" y="-398.331" font-family="Helvetica,sans-Serif" font-size="11.00">species_id</text>
<polygon fill="none" stroke="black" points="635.5,-368.131 635.5,-390.131 866.5,-390.131 866.5,-368.131 635.5,-368.131"/>
<image xlink:href="../../images/foreignKeys.png" width="11px" height="12px" preserveAspectRatio="xMinYMin meet" x="640.5" y="-385.131"/>
<text text-anchor="start" x="655.5" y="-376.331" font-family="Helvetica,sans-Serif" font-size="11.00">collection_site_country_code</text>
<polygon fill="none" stroke="black" points="635.5,-346.131 635.5,-368.131 866.5,-368.131 866.5,-346.131 635.5,-346.131"/>
<image xlink:href="../../images/foreignKeys.png" width="11px" height="12px" preserveAspectRatio="xMinYMin meet" x="640.5" y="-363.131"/>
<text text-anchor="start" x="655.5" y="-354.331" font-family="Helvetica,sans-Serif" font-size="11.00">collection_source_id</text>
<polygon fill="none" stroke="black" points="635.5,-324.131 635.5,-346.131 866.5,-346.131 866.5,-324.131 635.5,-324.131"/>
<image xlink:href="../../images/foreignKeys.png" width="11px" height="12px" preserveAspectRatio="xMinYMin meet" x="640.5" y="-341.131"/>
<text text-anchor="start" x="655.5" y="-332.331" font-family="Helvetica,sans-Serif" font-size="11.00">data_source_id</text>
<polygon fill="none" stroke="black" points="635.5,-302.131 635.5,-324.131 866.5,-324.131 866.5,-302.131 635.5,-302.131"/>
<image xlink:href="../../images/foreignKeys.png" width="11px" height="12px" preserveAspectRatio="xMinYMin meet" x="640.5" y="-319.131"/>
<text text-anchor="start" x="655.5" y="-310.331" font-family="Helvetica,sans-Serif" font-size="11.00">latest_observed_units_id</text>
<polygon fill="none" stroke="black" points="635.5,-284.131 635.5,-302.131 866.5,-302.131 866.5,-284.131 635.5,-284.131"/>
<text text-anchor="start" x="638.5" y="-290.331" font-family="Helvetica,sans-Serif" font-size="11.00">...</text>
<polygon fill="#ffffff" stroke="none" points="635.5,-266.131 635.5,-284.131 733.5,-284.131 733.5,-266.131 635.5,-266.131"/>
<polygon fill="none" stroke="black" points="635.5,-266.131 635.5,-284.131 733.5,-284.131 733.5,-266.131 635.5,-266.131"/>
<text text-anchor="start" x="638.5" y="-272.331" font-family="Helvetica,sans-Serif" font-size="11.00">&lt; 18</text>
<polygon fill="#ffffff" stroke="none" points="733.5,-266.131 733.5,-284.131 809.5,-284.131 809.5,-266.131 733.5,-266.131"/>
<polygon fill="none" stroke="black" points="733.5,-266.131 733.5,-284.131 809.5,-284.131 809.5,-266.131 733.5,-266.131"/>
<text text-anchor="start" x="770.5" y="-272.331" font-family="Helvetica,sans-Serif" font-size="11.00">0 rows</text>
<polygon fill="#ffffff" stroke="none" points="809.5,-266.131 809.5,-284.131 866.5,-284.131 866.5,-266.131 809.5,-266.131"/>
<polygon fill="none" stroke="black" points="809.5,-266.131 809.5,-284.131 866.5,-284.131 866.5,-266.131 809.5,-266.131"/>
<text text-anchor="start" x="846.5" y="-272.331" font-family="Helvetica,sans-Serif" font-size="11.00">8 &gt;</text>
</a>
</g>
</g>
<!-- accession_collectors&#45;&gt;accessions -->
<g id="edge1" class="edge"><title>accession_collectors:elipses:w&#45;&gt;accessions:id:e</title>
<path fill="none" stroke="black" d="M919.686,-870.837C888.531,-853.659 914.708,-775.131 867.5,-775.131"/>
<polygon fill="black" stroke="black" points="926.204,-872.337 933.193,-877.639 930.102,-873.234 934,-874.131 934,-874.131 934,-874.131 930.102,-873.234 934.807,-870.623 926.204,-872.337 926.204,-872.337"/>
<ellipse fill="none" stroke="black" cx="923.085" cy="-871.619" rx="3.2" ry="3.2"/>
</g>
<!-- users -->
<g id="node5" class="node"><title>users</title>
<g id="a_node5"><a xlink:href="../../tables/users.html" xlink:title="users" target="_top">
<polygon fill="#ffffff" stroke="none" points="8,-448.131 8,-506.131 98,-506.131 98,-448.131 8,-448.131"/>
<polygon fill="#f5f5f5" stroke="none" points="8,-484.131 8,-506.131 98,-506.131 98,-484.131 8,-484.131"/>
<polygon fill="none" stroke="black" points="8,-484.131 8,-506.131 98,-506.131 98,-484.131 8,-484.131"/>
<text text-anchor="start" x="13" y="-493.331" font-family="Helvetica,sans-Serif" font-weight="bold" font-size="11.00">users</text>
<text text-anchor="start" x="59" y="-492.331" font-family="Helvetica,sans-Serif" font-size="11.00">[table]</text>
<polygon fill="none" stroke="black" points="8,-466.131 8,-484.131 98,-484.131 98,-466.131 8,-466.131"/>
<text text-anchor="start" x="11" y="-472.331" font-family="Helvetica,sans-Serif" font-size="11.00">...</text>
<polygon fill="#ffffff" stroke="none" points="8,-448.131 8,-466.131 31,-466.131 31,-448.131 8,-448.131"/>
<polygon fill="none" stroke="black" points="8,-448.131 8,-466.131 31,-466.131 31,-448.131 8,-448.131"/>
<text text-anchor="start" x="11" y="-454.331" font-family="Helvetica,sans-Serif" font-size="11.00">&lt; 1</text>
<polygon fill="#ffffff" stroke="none" points="31,-448.131 31,-466.131 68,-466.131 68,-448.131 31,-448.131"/>
<polygon fill="none" stroke="black" points="31,-448.131 31,-466.131 68,-466.131 68,-448.131 31,-448.131"/>
<text text-anchor="start" x="34" y="-454.331" font-family="Helvetica,sans-Serif" font-size="11.00">1 row</text>
<polygon fill="#ffffff" stroke="none" points="68,-448.131 68,-466.131 98,-466.131 98,-448.131 68,-448.131"/>
<polygon fill="none" stroke="black" points="68,-448.131 68,-466.131 98,-466.131 98,-448.131 68,-448.131"/>
<text text-anchor="start" x="71" y="-454.331" font-family="Helvetica,sans-Serif" font-size="11.00">28 &gt;</text>
</a>
</g>
</g>
<!-- accessions&#45;&gt;users -->
<g id="edge12" class="edge"><title>accessions:created_by:w&#45;&gt;users:elipses:e</title>
<path fill="none" stroke="black" d="M620.2,-447.599C612.086,-450.713 606.659,-455.926 594,-458.131 377.136,-495.907 319.13,-475.131 99,-475.131"/>
<polygon fill="black" stroke="black" points="626.617,-446.492 635.112,-448.678 630.558,-445.811 634.5,-445.131 634.5,-445.131 634.5,-445.131 630.558,-445.811 633.888,-441.583 626.617,-446.492 626.617,-446.492"/>
<ellipse fill="none" stroke="black" cx="623.463" cy="-447.036" rx="3.2" ry="3.2"/>
</g>
<!-- accessions&#45;&gt;users -->
<g id="edge16" class="edge"><title>accessions:modified_by:w&#45;&gt;users:elipses:e</title>
<path fill="none" stroke="black" d="M620.031,-424.012C533.861,-430.845 126.584,-475.131 99,-475.131"/>
<polygon fill="black" stroke="black" points="626.515,-423.617 634.719,-426.724 630.507,-423.374 634.5,-423.131 634.5,-423.131 634.5,-423.131 630.507,-423.374 634.281,-419.538 626.515,-423.617 626.515,-423.617"/>
<ellipse fill="none" stroke="black" cx="623.321" cy="-423.811" rx="3.2" ry="3.2"/>
</g>
<!-- seed_quantity_units -->
<g id="node6" class="node"><title>seed_quantity_units</title>
<g id="a_node6"><a xlink:href="../../tables/seed_quantity_units.html" xlink:title="seed_quantity_units" target="_top">
<polygon fill="#ffffff" stroke="none" points="387,-72.1309 387,-130.131 550,-130.131 550,-72.1309 387,-72.1309"/>
<polygon fill="#f5f5f5" stroke="none" points="387.5,-108.131 387.5,-130.131 550.5,-130.131 550.5,-108.131 387.5,-108.131"/>
<polygon fill="none" stroke="black" points="387.5,-108.131 387.5,-130.131 550.5,-130.131 550.5,-108.131 387.5,-108.131"/>
<text text-anchor="start" x="392.5" y="-117.331" font-family="Helvetica,sans-Serif" font-weight="bold" font-size="11.00">seed_quantity_units</text>
<text text-anchor="start" x="511.5" y="-116.331" font-family="Helvetica,sans-Serif" font-size="11.00">[table]</text>
<polygon fill="none" stroke="black" points="387.5,-90.1309 387.5,-108.131 550.5,-108.131 550.5,-90.1309 387.5,-90.1309"/>
<text text-anchor="start" x="390.5" y="-96.3309" font-family="Helvetica,sans-Serif" font-size="11.00">...</text>
<polygon fill="#ffffff" stroke="none" points="387.5,-72.1309 387.5,-90.1309 442.5,-90.1309 442.5,-72.1309 387.5,-72.1309"/>
<polygon fill="none" stroke="black" points="387.5,-72.1309 387.5,-90.1309 442.5,-90.1309 442.5,-72.1309 387.5,-72.1309"/>
<text text-anchor="start" x="390.5" y="-78.3309" font-family="Helvetica,sans-Serif" font-size="11.00"> &#160;</text>
<polygon fill="#ffffff" stroke="none" points="442.5,-72.1309 442.5,-90.1309 505.5,-90.1309 505.5,-72.1309 442.5,-72.1309"/>
<polygon fill="none" stroke="black" points="442.5,-72.1309 442.5,-90.1309 505.5,-90.1309 505.5,-72.1309 442.5,-72.1309"/>
<text text-anchor="start" x="466.5" y="-78.3309" font-family="Helvetica,sans-Serif" font-size="11.00">6 rows</text>
<polygon fill="#ffffff" stroke="none" points="505.5,-72.1309 505.5,-90.1309 550.5,-90.1309 550.5,-72.1309 505.5,-72.1309"/>
<polygon fill="none" stroke="black" points="505.5,-72.1309 505.5,-90.1309 550.5,-90.1309 550.5,-72.1309 505.5,-72.1309"/>
<text text-anchor="start" x="530.5" y="-78.3309" font-family="Helvetica,sans-Serif" font-size="11.00">9 &gt;</text>
</a>
</g>
</g>
<!-- accessions&#45;&gt;seed_quantity_units -->
<g id="edge15" class="edge"><title>accessions:latest_observed_units_id:w&#45;&gt;seed_quantity_units:elipses:e</title>
<path fill="none" stroke="black" d="M620.068,-311.632C565.851,-298.635 630.266,-203.964 594,-140.131 581.035,-117.311 577.746,-99.1309 551.5,-99.1309"/>
<polygon fill="black" stroke="black" points="626.543,-312.304 634.128,-316.712 630.521,-312.718 634.5,-313.131 634.5,-313.131 634.5,-313.131 630.521,-312.718 634.872,-309.55 626.543,-312.304 626.543,-312.304"/>
<ellipse fill="none" stroke="black" cx="623.36" cy="-311.974" rx="3.2" ry="3.2"/>
</g>
<!-- accessions&#45;&gt;seed_quantity_units -->
<g id="edge19" class="edge"><title>accessions:remaining_units_id:w&#45;&gt;seed_quantity_units:elipses:e</title>
<path fill="none" stroke="black" d="M620.407,-507.574C561.264,-473.827 628.17,-209.79 594,-140.131 582.441,-116.567 577.746,-99.1309 551.5,-99.1309"/>
<polygon fill="black" stroke="black" points="626.743,-509.173 633.619,-514.621 630.622,-510.152 634.5,-511.131 634.5,-511.131 634.5,-511.131 630.622,-510.152 635.381,-507.64 626.743,-509.173 626.743,-509.173"/>
<ellipse fill="none" stroke="black" cx="623.641" cy="-508.39" rx="3.2" ry="3.2"/>
</g>
<!-- accessions&#45;&gt;seed_quantity_units -->
<g id="edge25" class="edge"><title>accessions:subset_weight_units_id:w&#45;&gt;seed_quantity_units:elipses:e</title>
<path fill="none" stroke="black" d="M620.513,-485.375C565.796,-451.96 626.256,-205.327 594,-140.131 582.361,-116.607 577.746,-99.1309 551.5,-99.1309"/>
<polygon fill="black" stroke="black" points="626.774,-487.056 633.566,-492.608 630.637,-488.094 634.5,-489.131 634.5,-489.131 634.5,-489.131 630.637,-488.094 635.434,-485.654 626.774,-487.056 626.774,-487.056"/>
<ellipse fill="none" stroke="black" cx="623.683" cy="-486.226" rx="3.2" ry="3.2"/>
</g>
<!-- accessions&#45;&gt;seed_quantity_units -->
<g id="edge27" class="edge"><title>accessions:total_units_id:w&#45;&gt;seed_quantity_units:elipses:e</title>
<path fill="none" stroke="black" d="M620.391,-462.997C570.452,-429.395 624.294,-200.773 594,-140.131 582.271,-116.652 577.746,-99.1309 551.5,-99.1309"/>
<polygon fill="black" stroke="black" points="626.823,-464.881 633.488,-470.586 630.661,-466.006 634.5,-467.131 634.5,-467.131 634.5,-467.131 630.661,-466.006 635.512,-463.676 626.823,-464.881 626.823,-464.881"/>
<ellipse fill="none" stroke="black" cx="623.752" cy="-463.981" rx="3.20001" ry="3.20001"/>
</g>
<!-- accession_states -->
<g id="node8" class="node"><title>accession_states</title>
<g id="a_node8"><a xlink:href="../../tables/accession_states.html" xlink:title="accession_states" target="_top">
<polygon fill="#ffffff" stroke="none" points="397.5,-975.131 397.5,-1033.13 539.5,-1033.13 539.5,-975.131 397.5,-975.131"/>
<polygon fill="#f5f5f5" stroke="none" points="397.5,-1011.13 397.5,-1033.13 539.5,-1033.13 539.5,-1011.13 397.5,-1011.13"/>
<polygon fill="none" stroke="black" points="397.5,-1011.13 397.5,-1033.13 539.5,-1033.13 539.5,-1011.13 397.5,-1011.13"/>
<text text-anchor="start" x="402.5" y="-1020.33" font-family="Helvetica,sans-Serif" font-weight="bold" font-size="11.00">accession_states</text>
<text text-anchor="start" x="500.5" y="-1019.33" font-family="Helvetica,sans-Serif" font-size="11.00">[table]</text>
<polygon fill="none" stroke="black" points="397.5,-993.131 397.5,-1011.13 539.5,-1011.13 539.5,-993.131 397.5,-993.131"/>
<text text-anchor="start" x="400.5" y="-999.331" font-family="Helvetica,sans-Serif" font-size="11.00">...</text>
<polygon fill="#ffffff" stroke="none" points="397.5,-975.131 397.5,-993.131 438.5,-993.131 438.5,-975.131 397.5,-975.131"/>
<polygon fill="none" stroke="black" points="397.5,-975.131 397.5,-993.131 438.5,-993.131 438.5,-975.131 397.5,-975.131"/>
<text text-anchor="start" x="400.5" y="-981.331" font-family="Helvetica,sans-Serif" font-size="11.00"> &#160;</text>
<polygon fill="#ffffff" stroke="none" points="438.5,-975.131 438.5,-993.131 501.5,-993.131 501.5,-975.131 438.5,-975.131"/>
<polygon fill="none" stroke="black" points="438.5,-975.131 438.5,-993.131 501.5,-993.131 501.5,-975.131 438.5,-975.131"/>
<text text-anchor="start" x="455.5" y="-981.331" font-family="Helvetica,sans-Serif" font-size="11.00">12 rows</text>
<polygon fill="#ffffff" stroke="none" points="501.5,-975.131 501.5,-993.131 539.5,-993.131 539.5,-975.131 501.5,-975.131"/>
<polygon fill="none" stroke="black" points="501.5,-975.131 501.5,-993.131 539.5,-993.131 539.5,-975.131 501.5,-975.131"/>
<text text-anchor="start" x="519.5" y="-981.331" font-family="Helvetica,sans-Serif" font-size="11.00">3 &gt;</text>
</a>
</g>
</g>
<!-- accessions&#45;&gt;accession_states -->
<g id="edge23" class="edge"><title>accessions:state_id:w&#45;&gt;accession_states:elipses:e</title>
<path fill="none" stroke="black" d="M620.727,-692.423C585.636,-724.045 614.216,-888.192 594,-934.131 578.511,-969.328 578.955,-1002.13 540.5,-1002.13"/>
<polygon fill="black" stroke="black" points="627.032,-690 635.791,-690.491 630.766,-688.566 634.5,-687.131 634.5,-687.131 634.5,-687.131 630.766,-688.566 633.209,-683.77 627.032,-690 627.032,-690"/>
<ellipse fill="none" stroke="black" cx="624.045" cy="-691.148" rx="3.20001" ry="3.20001"/>
</g>
<!-- countries -->
<g id="node9" class="node"><title>countries</title>
<g id="a_node9"><a xlink:href="../../tables/countries.html" xlink:title="countries" target="_top">
<polygon fill="#ffffff" stroke="none" points="417,-339.131 417,-397.131 520,-397.131 520,-339.131 417,-339.131"/>
<polygon fill="#f5f5f5" stroke="none" points="417.5,-375.131 417.5,-397.131 520.5,-397.131 520.5,-375.131 417.5,-375.131"/>
<polygon fill="none" stroke="black" points="417.5,-375.131 417.5,-397.131 520.5,-397.131 520.5,-375.131 417.5,-375.131"/>
<text text-anchor="start" x="422.5" y="-384.331" font-family="Helvetica,sans-Serif" font-weight="bold" font-size="11.00">countries</text>
<text text-anchor="start" x="481.5" y="-383.331" font-family="Helvetica,sans-Serif" font-size="11.00">[table]</text>
<polygon fill="none" stroke="black" points="417.5,-357.131 417.5,-375.131 520.5,-375.131 520.5,-357.131 417.5,-357.131"/>
<text text-anchor="start" x="420.5" y="-363.331" font-family="Helvetica,sans-Serif" font-size="11.00">...</text>
<polygon fill="#ffffff" stroke="none" points="417.5,-339.131 417.5,-357.131 436.5,-357.131 436.5,-339.131 417.5,-339.131"/>
<polygon fill="none" stroke="black" points="417.5,-339.131 417.5,-357.131 436.5,-357.131 436.5,-339.131 417.5,-339.131"/>
<text text-anchor="start" x="420.5" y="-345.331" font-family="Helvetica,sans-Serif" font-size="11.00"> &#160;</text>
<polygon fill="#ffffff" stroke="none" points="436.5,-339.131 436.5,-357.131 494.5,-357.131 494.5,-339.131 436.5,-339.131"/>
<polygon fill="none" stroke="black" points="436.5,-339.131 436.5,-357.131 494.5,-357.131 494.5,-339.131 436.5,-339.131"/>
<text text-anchor="start" x="442.5" y="-345.331" font-family="Helvetica,sans-Serif" font-size="11.00">249 rows</text>
<polygon fill="#ffffff" stroke="none" points="494.5,-339.131 494.5,-357.131 520.5,-357.131 520.5,-339.131 494.5,-339.131"/>
<polygon fill="none" stroke="black" points="494.5,-339.131 494.5,-357.131 520.5,-357.131 520.5,-339.131 494.5,-339.131"/>
<text text-anchor="start" x="500.5" y="-345.331" font-family="Helvetica,sans-Serif" font-size="11.00">3 &gt;</text>
</a>
</g>
</g>
<!-- accessions&#45;&gt;countries -->
<g id="edge10" class="edge"><title>accessions:collection_site_country_code:w&#45;&gt;countries:elipses:e</title>
<path fill="none" stroke="black" d="M619.958,-378.742C581.07,-376.579 566.82,-366.131 521.5,-366.131"/>
<polygon fill="black" stroke="black" points="626.503,-378.917 634.404,-382.73 630.501,-379.024 634.5,-379.131 634.5,-379.131 634.5,-379.131 630.501,-379.024 634.596,-375.532 626.503,-378.917 626.503,-378.917"/>
<ellipse fill="none" stroke="black" cx="623.304" cy="-378.831" rx="3.2" ry="3.2"/>
</g>
<!-- collection_sources -->
<g id="node10" class="node"><title>collection_sources</title>
<g id="a_node10"><a xlink:href="../../tables/collection_sources.html" xlink:title="collection_sources" target="_top">
<polygon fill="#ffffff" stroke="none" points="351,-230.131 351,-318.131 586,-318.131 586,-230.131 351,-230.131"/>
<polygon fill="#f5f5f5" stroke="none" points="353.5,-294.131 353.5,-316.131 584.5,-316.131 584.5,-294.131 353.5,-294.131"/>
<polygon fill="none" stroke="black" points="353.5,-294.131 353.5,-316.131 584.5,-316.131 584.5,-294.131 353.5,-294.131"/>
<text text-anchor="start" x="358.5" y="-303.331" font-family="Helvetica,sans-Serif" font-weight="bold" font-size="11.00">collection_sources</text>
<text text-anchor="start" x="545.5" y="-302.331" font-family="Helvetica,sans-Serif" font-size="11.00">[table]</text>
<polygon fill="none" stroke="black" points="353.5,-272.131 353.5,-294.131 483.5,-294.131 483.5,-272.131 353.5,-272.131"/>
<image xlink:href="../../images/primaryKeys.png" width="11px" height="12px" preserveAspectRatio="xMinYMin meet" x="358.5" y="-289.131"/>
<text text-anchor="start" x="373.5" y="-280.331" font-family="Helvetica,sans-Serif" font-size="11.00">id</text>
<polygon fill="none" stroke="black" points="483.5,-272.131 483.5,-294.131 584.5,-294.131 584.5,-272.131 483.5,-272.131"/>
<text text-anchor="start" x="486.5" y="-280.331" font-family="Helvetica,sans-Serif" font-size="11.00">int4[10]</text>
<polygon fill="none" stroke="black" points="353.5,-250.131 353.5,-272.131 483.5,-272.131 483.5,-250.131 353.5,-250.131"/>
<text text-anchor="start" x="373.5" y="-258.331" font-family="Helvetica,sans-Serif" font-size="11.00">name</text>
<polygon fill="none" stroke="black" points="483.5,-250.131 483.5,-272.131 584.5,-272.131 584.5,-250.131 483.5,-250.131"/>
<text text-anchor="start" x="486.5" y="-258.331" font-family="Helvetica,sans-Serif" font-size="11.00">text[2147483647]</text>
<polygon fill="#ffffff" stroke="none" points="353.5,-232.131 353.5,-250.131 408.5,-250.131 408.5,-232.131 353.5,-232.131"/>
<polygon fill="none" stroke="black" points="353.5,-232.131 353.5,-250.131 408.5,-250.131 408.5,-232.131 353.5,-232.131"/>
<text text-anchor="start" x="356.5" y="-238.331" font-family="Helvetica,sans-Serif" font-size="11.00">&lt; 0</text>
<polygon fill="#ffffff" stroke="none" points="408.5,-232.131 408.5,-250.131 483.5,-250.131 483.5,-232.131 408.5,-232.131"/>
<polygon fill="none" stroke="black" points="408.5,-232.131 408.5,-250.131 483.5,-250.131 483.5,-232.131 408.5,-232.131"/>
<text text-anchor="start" x="444.5" y="-238.331" font-family="Helvetica,sans-Serif" font-size="11.00">4 rows</text>
<polygon fill="#ffffff" stroke="none" points="483.5,-232.131 483.5,-250.131 584.5,-250.131 584.5,-232.131 483.5,-232.131"/>
<polygon fill="none" stroke="black" points="483.5,-232.131 483.5,-250.131 584.5,-250.131 584.5,-232.131 483.5,-232.131"/>
<text text-anchor="start" x="564.5" y="-238.331" font-family="Helvetica,sans-Serif" font-size="11.00">1 &gt;</text>
<polygon fill="none" stroke="black" stroke-width="2" points="352,-231.131 352,-317.131 585,-317.131 585,-231.131 352,-231.131"/>
</a>
</g>
</g>
<!-- accessions&#45;&gt;collection_sources -->
<g id="edge11" class="edge"><title>accessions:collection_source_id:w&#45;&gt;collection_sources:id.type:e</title>
<path fill="none" stroke="black" d="M620.809,-352.502C602.553,-336.301 618.936,-283.131 585.5,-283.131"/>
<polygon fill="black" stroke="black" points="626.921,-354.568 633.347,-360.541 630.711,-355.85 634.5,-357.131 634.5,-357.131 634.5,-357.131 630.711,-355.85 635.653,-353.721 626.921,-354.568 626.921,-354.568"/>
<ellipse fill="none" stroke="black" cx="623.89" cy="-353.543" rx="3.20001" ry="3.20001"/>
</g>
<!-- data_sources -->
<g id="node11" class="node"><title>data_sources</title>
<g id="a_node11"><a xlink:href="../../tables/data_sources.html" xlink:title="data_sources" target="_top">
<polygon fill="#ffffff" stroke="none" points="407.5,-151.131 407.5,-209.131 529.5,-209.131 529.5,-151.131 407.5,-151.131"/>
<polygon fill="#f5f5f5" stroke="none" points="407.5,-187.131 407.5,-209.131 529.5,-209.131 529.5,-187.131 407.5,-187.131"/>
<polygon fill="none" stroke="black" points="407.5,-187.131 407.5,-209.131 529.5,-209.131 529.5,-187.131 407.5,-187.131"/>
<text text-anchor="start" x="412.5" y="-196.331" font-family="Helvetica,sans-Serif" font-weight="bold" font-size="11.00">data_sources</text>
<text text-anchor="start" x="490.5" y="-195.331" font-family="Helvetica,sans-Serif" font-size="11.00">[table]</text>
<polygon fill="none" stroke="black" points="407.5,-169.131 407.5,-187.131 529.5,-187.131 529.5,-169.131 407.5,-169.131"/>
<text text-anchor="start" x="410.5" y="-175.331" font-family="Helvetica,sans-Serif" font-size="11.00">...</text>
<polygon fill="#ffffff" stroke="none" points="407.5,-151.131 407.5,-169.131 442.5,-169.131 442.5,-151.131 407.5,-151.131"/>
<polygon fill="none" stroke="black" points="407.5,-151.131 407.5,-169.131 442.5,-169.131 442.5,-151.131 407.5,-151.131"/>
<text text-anchor="start" x="410.5" y="-157.331" font-family="Helvetica,sans-Serif" font-size="11.00"> &#160;</text>
<polygon fill="#ffffff" stroke="none" points="442.5,-151.131 442.5,-169.131 495.5,-169.131 495.5,-151.131 442.5,-151.131"/>
<polygon fill="none" stroke="black" points="442.5,-151.131 442.5,-169.131 495.5,-169.131 495.5,-151.131 442.5,-151.131"/>
<text text-anchor="start" x="456.5" y="-157.331" font-family="Helvetica,sans-Serif" font-size="11.00">3 rows</text>
<polygon fill="#ffffff" stroke="none" points="495.5,-151.131 495.5,-169.131 529.5,-169.131 529.5,-151.131 495.5,-151.131"/>
<polygon fill="none" stroke="black" points="495.5,-151.131 495.5,-169.131 529.5,-169.131 529.5,-151.131 495.5,-151.131"/>
<text text-anchor="start" x="509.5" y="-157.331" font-family="Helvetica,sans-Serif" font-size="11.00">1 &gt;</text>
</a>
</g>
</g>
<!-- accessions&#45;&gt;data_sources -->
<g id="edge13" class="edge"><title>accessions:data_source_id:w&#45;&gt;data_sources:elipses:e</title>
<path fill="none" stroke="black" d="M620.019,-332.643C589.389,-319.504 624.075,-257.352 594,-219.131 573.226,-192.73 564.094,-178.131 530.5,-178.131"/>
<polygon fill="black" stroke="black" points="626.616,-333.776 633.89,-338.679 630.558,-334.454 634.5,-335.131 634.5,-335.131 634.5,-335.131 630.558,-334.454 635.11,-331.583 626.616,-333.776 626.616,-333.776"/>
<ellipse fill="none" stroke="black" cx="623.462" cy="-333.234" rx="3.2" ry="3.2"/>
</g>
<!-- facilities -->
<g id="node12" class="node"><title>facilities</title>
<g id="a_node12"><a xlink:href="../../tables/facilities.html" xlink:title="facilities" target="_top">
<polygon fill="#ffffff" stroke="none" points="175.5,-836.131 175.5,-894.131 273.5,-894.131 273.5,-836.131 175.5,-836.131"/>
<polygon fill="#f5f5f5" stroke="none" points="175.5,-872.131 175.5,-894.131 273.5,-894.131 273.5,-872.131 175.5,-872.131"/>
<polygon fill="none" stroke="black" points="175.5,-872.131 175.5,-894.131 273.5,-894.131 273.5,-872.131 175.5,-872.131"/>
<text text-anchor="start" x="180.5" y="-881.331" font-family="Helvetica,sans-Serif" font-weight="bold" font-size="11.00">facilities</text>
<text text-anchor="start" x="234.5" y="-880.331" font-family="Helvetica,sans-Serif" font-size="11.00">[table]</text>
<polygon fill="none" stroke="black" points="175.5,-854.131 175.5,-872.131 273.5,-872.131 273.5,-854.131 175.5,-854.131"/>
<text text-anchor="start" x="178.5" y="-860.331" font-family="Helvetica,sans-Serif" font-size="11.00">...</text>
<polygon fill="#ffffff" stroke="none" points="175.5,-836.131 175.5,-854.131 203.5,-854.131 203.5,-836.131 175.5,-836.131"/>
<polygon fill="none" stroke="black" points="175.5,-836.131 175.5,-854.131 203.5,-854.131 203.5,-836.131 175.5,-836.131"/>
<text text-anchor="start" x="178.5" y="-842.331" font-family="Helvetica,sans-Serif" font-size="11.00">&lt; 5</text>
<polygon fill="#ffffff" stroke="none" points="203.5,-836.131 203.5,-854.131 247.5,-854.131 247.5,-836.131 203.5,-836.131"/>
<polygon fill="none" stroke="black" points="203.5,-836.131 203.5,-854.131 247.5,-854.131 247.5,-836.131 203.5,-836.131"/>
<text text-anchor="start" x="208.5" y="-842.331" font-family="Helvetica,sans-Serif" font-size="11.00">0 rows</text>
<polygon fill="#ffffff" stroke="none" points="247.5,-836.131 247.5,-854.131 273.5,-854.131 273.5,-836.131 247.5,-836.131"/>
<polygon fill="none" stroke="black" points="247.5,-836.131 247.5,-854.131 273.5,-854.131 273.5,-836.131 247.5,-836.131"/>
<text text-anchor="start" x="253.5" y="-842.331" font-family="Helvetica,sans-Serif" font-size="11.00">5 &gt;</text>
</a>
</g>
</g>
<!-- accessions&#45;&gt;facilities -->
<g id="edge14" class="edge"><title>accessions:facility_id:w&#45;&gt;facilities:elipses:e</title>
<path fill="none" stroke="black" d="M620.038,-755.222C575.364,-770.875 646.685,-870.247 594,-911.131 549.934,-945.326 396.193,-927.913 343,-911.131 307.548,-899.946 311.675,-863.131 274.5,-863.131"/>
<polygon fill="black" stroke="black" points="626.582,-754.276 635.015,-756.694 630.541,-753.703 634.5,-753.131 634.5,-753.131 634.5,-753.131 630.541,-753.703 633.985,-749.568 626.582,-754.276 626.582,-754.276"/>
<ellipse fill="none" stroke="black" cx="623.415" cy="-754.733" rx="3.2" ry="3.2"/>
</g>
<!-- processing_methods -->
<g id="node13" class="node"><title>processing_methods</title>
<g id="a_node13"><a xlink:href="../../tables/processing_methods.html" xlink:title="processing_methods" target="_top">
<polygon fill="#ffffff" stroke="none" points="387,-763.131 387,-821.131 550,-821.131 550,-763.131 387,-763.131"/>
<polygon fill="#f5f5f5" stroke="none" points="387.5,-799.131 387.5,-821.131 550.5,-821.131 550.5,-799.131 387.5,-799.131"/>
<polygon fill="none" stroke="black" points="387.5,-799.131 387.5,-821.131 550.5,-821.131 550.5,-799.131 387.5,-799.131"/>
<text text-anchor="start" x="392.5" y="-808.331" font-family="Helvetica,sans-Serif" font-weight="bold" font-size="11.00">processing_methods</text>
<text text-anchor="start" x="511.5" y="-807.331" font-family="Helvetica,sans-Serif" font-size="11.00">[table]</text>
<polygon fill="none" stroke="black" points="387.5,-781.131 387.5,-799.131 550.5,-799.131 550.5,-781.131 387.5,-781.131"/>
<text text-anchor="start" x="390.5" y="-787.331" font-family="Helvetica,sans-Serif" font-size="11.00">...</text>
<polygon fill="#ffffff" stroke="none" points="387.5,-763.131 387.5,-781.131 442.5,-781.131 442.5,-763.131 387.5,-763.131"/>
<polygon fill="none" stroke="black" points="387.5,-763.131 387.5,-781.131 442.5,-781.131 442.5,-763.131 387.5,-763.131"/>
<text text-anchor="start" x="390.5" y="-769.331" font-family="Helvetica,sans-Serif" font-size="11.00"> &#160;</text>
<polygon fill="#ffffff" stroke="none" points="442.5,-763.131 442.5,-781.131 505.5,-781.131 505.5,-763.131 442.5,-763.131"/>
<polygon fill="none" stroke="black" points="442.5,-763.131 442.5,-781.131 505.5,-781.131 505.5,-763.131 442.5,-763.131"/>
<text text-anchor="start" x="466.5" y="-769.331" font-family="Helvetica,sans-Serif" font-size="11.00">2 rows</text>
<polygon fill="#ffffff" stroke="none" points="505.5,-763.131 505.5,-781.131 550.5,-781.131 550.5,-763.131 505.5,-763.131"/>
<polygon fill="none" stroke="black" points="505.5,-763.131 505.5,-781.131 550.5,-781.131 550.5,-763.131 505.5,-763.131"/>
<text text-anchor="start" x="530.5" y="-769.331" font-family="Helvetica,sans-Serif" font-size="11.00">1 &gt;</text>
</a>
</g>
</g>
<!-- accessions&#45;&gt;processing_methods -->
<g id="edge17" class="edge"><title>accessions:processing_method_id:w&#45;&gt;processing_methods:elipses:e</title>
<path fill="none" stroke="black" d="M619.995,-623.245C583.933,-635.972 622.367,-703.368 594,-749.131 580.172,-771.439 577.746,-790.131 551.5,-790.131"/>
<polygon fill="black" stroke="black" points="626.584,-622.285 635.019,-624.693 630.542,-621.708 634.5,-621.131 634.5,-621.131 634.5,-621.131 630.542,-621.708 633.981,-617.569 626.584,-622.285 626.584,-622.285"/>
<ellipse fill="none" stroke="black" cx="623.417" cy="-622.746" rx="3.2" ry="3.2"/>
</g>
<!-- rare_types -->
<g id="node14" class="node"><title>rare_types</title>
<g id="a_node14"><a xlink:href="../../tables/rare_types.html" xlink:title="rare_types" target="_top">
<polygon fill="#ffffff" stroke="none" points="414,-578.131 414,-636.131 523,-636.131 523,-578.131 414,-578.131"/>
<polygon fill="#f5f5f5" stroke="none" points="414.5,-614.131 414.5,-636.131 523.5,-636.131 523.5,-614.131 414.5,-614.131"/>
<polygon fill="none" stroke="black" points="414.5,-614.131 414.5,-636.131 523.5,-636.131 523.5,-614.131 414.5,-614.131"/>
<text text-anchor="start" x="419.5" y="-623.331" font-family="Helvetica,sans-Serif" font-weight="bold" font-size="11.00">rare_types</text>
<text text-anchor="start" x="484.5" y="-622.331" font-family="Helvetica,sans-Serif" font-size="11.00">[table]</text>
<polygon fill="none" stroke="black" points="414.5,-596.131 414.5,-614.131 523.5,-614.131 523.5,-596.131 414.5,-596.131"/>
<text text-anchor="start" x="417.5" y="-602.331" font-family="Helvetica,sans-Serif" font-size="11.00">...</text>
<polygon fill="#ffffff" stroke="none" points="414.5,-578.131 414.5,-596.131 442.5,-596.131 442.5,-578.131 414.5,-578.131"/>
<polygon fill="none" stroke="black" points="414.5,-578.131 414.5,-596.131 442.5,-596.131 442.5,-578.131 414.5,-578.131"/>
<text text-anchor="start" x="417.5" y="-584.331" font-family="Helvetica,sans-Serif" font-size="11.00"> &#160;</text>
<polygon fill="#ffffff" stroke="none" points="442.5,-578.131 442.5,-596.131 492.5,-596.131 492.5,-578.131 442.5,-578.131"/>
<polygon fill="none" stroke="black" points="442.5,-578.131 442.5,-596.131 492.5,-596.131 492.5,-578.131 442.5,-578.131"/>
<text text-anchor="start" x="453.5" y="-584.331" font-family="Helvetica,sans-Serif" font-size="11.00">3 rows</text>
<polygon fill="#ffffff" stroke="none" points="492.5,-578.131 492.5,-596.131 523.5,-596.131 523.5,-578.131 492.5,-578.131"/>
<polygon fill="none" stroke="black" points="492.5,-578.131 492.5,-596.131 523.5,-596.131 523.5,-578.131 492.5,-578.131"/>
<text text-anchor="start" x="503.5" y="-584.331" font-family="Helvetica,sans-Serif" font-size="11.00">1 &gt;</text>
</a>
</g>
</g>
<!-- accessions&#45;&gt;rare_types -->
<g id="edge18" class="edge"><title>accessions:rare_type_id:w&#45;&gt;rare_types:elipses:e</title>
<path fill="none" stroke="black" d="M620.134,-556.468C579.803,-564.42 572.958,-605.131 524.5,-605.131"/>
<polygon fill="black" stroke="black" points="626.534,-555.872 634.834,-558.715 630.517,-555.502 634.5,-555.131 634.5,-555.131 634.5,-555.131 630.517,-555.502 634.166,-551.546 626.534,-555.872 626.534,-555.872"/>
<ellipse fill="none" stroke="black" cx="623.348" cy="-556.169" rx="3.2" ry="3.2"/>
</g>
<!-- source_plant_origins -->
<g id="node15" class="node"><title>source_plant_origins</title>
<g id="a_node15"><a xlink:href="../../tables/source_plant_origins.html" xlink:title="source_plant_origins" target="_top">
<polygon fill="#ffffff" stroke="none" points="386.5,-499.131 386.5,-557.131 550.5,-557.131 550.5,-499.131 386.5,-499.131"/>
<polygon fill="#f5f5f5" stroke="none" points="386.5,-535.131 386.5,-557.131 550.5,-557.131 550.5,-535.131 386.5,-535.131"/>
<polygon fill="none" stroke="black" points="386.5,-535.131 386.5,-557.131 550.5,-557.131 550.5,-535.131 386.5,-535.131"/>
<text text-anchor="start" x="391.5" y="-544.331" font-family="Helvetica,sans-Serif" font-weight="bold" font-size="11.00">source_plant_origins</text>
<text text-anchor="start" x="511.5" y="-543.331" font-family="Helvetica,sans-Serif" font-size="11.00">[table]</text>
<polygon fill="none" stroke="black" points="386.5,-517.131 386.5,-535.131 550.5,-535.131 550.5,-517.131 386.5,-517.131"/>
<text text-anchor="start" x="389.5" y="-523.331" font-family="Helvetica,sans-Serif" font-size="11.00">...</text>
<polygon fill="#ffffff" stroke="none" points="386.5,-499.131 386.5,-517.131 442.5,-517.131 442.5,-499.131 386.5,-499.131"/>
<polygon fill="none" stroke="black" points="386.5,-499.131 386.5,-517.131 442.5,-517.131 442.5,-499.131 386.5,-499.131"/>
<text text-anchor="start" x="389.5" y="-505.331" font-family="Helvetica,sans-Serif" font-size="11.00"> &#160;</text>
<polygon fill="#ffffff" stroke="none" points="442.5,-499.131 442.5,-517.131 505.5,-517.131 505.5,-499.131 442.5,-499.131"/>
<polygon fill="none" stroke="black" points="442.5,-499.131 442.5,-517.131 505.5,-517.131 505.5,-499.131 442.5,-499.131"/>
<text text-anchor="start" x="466.5" y="-505.331" font-family="Helvetica,sans-Serif" font-size="11.00">2 rows</text>
<polygon fill="#ffffff" stroke="none" points="505.5,-499.131 505.5,-517.131 550.5,-517.131 550.5,-499.131 505.5,-499.131"/>
<polygon fill="none" stroke="black" points="505.5,-499.131 505.5,-517.131 550.5,-517.131 550.5,-499.131 505.5,-499.131"/>
<text text-anchor="start" x="530.5" y="-505.331" font-family="Helvetica,sans-Serif" font-size="11.00">1 &gt;</text>
</a>
</g>
</g>
<!-- accessions&#45;&gt;source_plant_origins -->
<g id="edge20" class="edge"><title>accessions:source_plant_origin_id:w&#45;&gt;source_plant_origins:elipses:e</title>
<path fill="none" stroke="black" d="M620.037,-532.734C594.304,-531.254 583.169,-526.131 551.5,-526.131"/>
<polygon fill="black" stroke="black" points="626.503,-532.912 634.401,-536.73 630.502,-533.021 634.5,-533.131 634.5,-533.131 634.5,-533.131 630.502,-533.021 634.599,-529.532 626.503,-532.912 626.503,-532.912"/>
<ellipse fill="none" stroke="black" cx="623.304" cy="-532.824" rx="3.2" ry="3.2"/>
</g>
<!-- species_endangered_types -->
<g id="node16" class="node"><title>species_endangered_types</title>
<g id="a_node16"><a xlink:href="../../tables/species_endangered_types.html" xlink:title="species_endangered_types" target="_top">
<polygon fill="#ffffff" stroke="none" points="369,-657.131 369,-715.131 568,-715.131 568,-657.131 369,-657.131"/>
<polygon fill="#f5f5f5" stroke="none" points="369.5,-693.131 369.5,-715.131 568.5,-715.131 568.5,-693.131 369.5,-693.131"/>
<polygon fill="none" stroke="black" points="369.5,-693.131 369.5,-715.131 568.5,-715.131 568.5,-693.131 369.5,-693.131"/>
<text text-anchor="start" x="374.5" y="-702.331" font-family="Helvetica,sans-Serif" font-weight="bold" font-size="11.00">species_endangered_types</text>
<text text-anchor="start" x="529.5" y="-701.331" font-family="Helvetica,sans-Serif" font-size="11.00">[table]</text>
<polygon fill="none" stroke="black" points="369.5,-675.131 369.5,-693.131 568.5,-693.131 568.5,-675.131 369.5,-675.131"/>
<text text-anchor="start" x="372.5" y="-681.331" font-family="Helvetica,sans-Serif" font-size="11.00">...</text>
<polygon fill="#ffffff" stroke="none" points="369.5,-657.131 369.5,-675.131 442.5,-675.131 442.5,-657.131 369.5,-657.131"/>
<polygon fill="none" stroke="black" points="369.5,-657.131 369.5,-675.131 442.5,-675.131 442.5,-657.131 369.5,-657.131"/>
<text text-anchor="start" x="372.5" y="-663.331" font-family="Helvetica,sans-Serif" font-size="11.00"> &#160;</text>
<polygon fill="#ffffff" stroke="none" points="442.5,-657.131 442.5,-675.131 514.5,-675.131 514.5,-657.131 442.5,-657.131"/>
<polygon fill="none" stroke="black" points="442.5,-657.131 442.5,-675.131 514.5,-675.131 514.5,-657.131 442.5,-657.131"/>
<text text-anchor="start" x="475.5" y="-663.331" font-family="Helvetica,sans-Serif" font-size="11.00">3 rows</text>
<polygon fill="#ffffff" stroke="none" points="514.5,-657.131 514.5,-675.131 568.5,-675.131 568.5,-657.131 514.5,-657.131"/>
<polygon fill="none" stroke="black" points="514.5,-657.131 514.5,-675.131 568.5,-675.131 568.5,-657.131 514.5,-657.131"/>
<text text-anchor="start" x="548.5" y="-663.331" font-family="Helvetica,sans-Serif" font-size="11.00">1 &gt;</text>
</a>
</g>
</g>
<!-- accessions&#45;&gt;species_endangered_types -->
<g id="edge21" class="edge"><title>accessions:species_endangered_type_id:w&#45;&gt;species_endangered_types:elipses:e</title>
<path fill="none" stroke="black" d="M620.057,-580.451C587.487,-598.511 619.274,-684.131 569.5,-684.131"/>
<polygon fill="black" stroke="black" points="626.703,-578.923 635.306,-580.639 630.602,-578.027 634.5,-577.131 634.5,-577.131 634.5,-577.131 630.602,-578.027 633.694,-573.622 626.703,-578.923 626.703,-578.923"/>
<ellipse fill="none" stroke="black" cx="623.585" cy="-579.64" rx="3.2" ry="3.2"/>
</g>
<!-- species -->
<g id="node17" class="node"><title>species</title>
<g id="a_node17"><a xlink:href="../../tables/species.html" xlink:title="species" target="_top">
<polygon fill="#ffffff" stroke="none" points="179.5,-366.131 179.5,-424.131 269.5,-424.131 269.5,-366.131 179.5,-366.131"/>
<polygon fill="#f5f5f5" stroke="none" points="179.5,-402.131 179.5,-424.131 269.5,-424.131 269.5,-402.131 179.5,-402.131"/>
<polygon fill="none" stroke="black" points="179.5,-402.131 179.5,-424.131 269.5,-424.131 269.5,-402.131 179.5,-402.131"/>
<text text-anchor="start" x="184.5" y="-411.331" font-family="Helvetica,sans-Serif" font-weight="bold" font-size="11.00">species</text>
<text text-anchor="start" x="230.5" y="-410.331" font-family="Helvetica,sans-Serif" font-size="11.00">[table]</text>
<polygon fill="none" stroke="black" points="179.5,-384.131 179.5,-402.131 269.5,-402.131 269.5,-384.131 179.5,-384.131"/>
<text text-anchor="start" x="182.5" y="-390.331" font-family="Helvetica,sans-Serif" font-size="11.00">...</text>
<polygon fill="#ffffff" stroke="none" points="179.5,-366.131 179.5,-384.131 203.5,-384.131 203.5,-366.131 179.5,-366.131"/>
<polygon fill="none" stroke="black" points="179.5,-366.131 179.5,-384.131 203.5,-384.131 203.5,-366.131 179.5,-366.131"/>
<text text-anchor="start" x="182.5" y="-372.331" font-family="Helvetica,sans-Serif" font-size="11.00">&lt; 6</text>
<polygon fill="#ffffff" stroke="none" points="203.5,-366.131 203.5,-384.131 245.5,-384.131 245.5,-366.131 203.5,-366.131"/>
<polygon fill="none" stroke="black" points="203.5,-366.131 203.5,-384.131 245.5,-384.131 245.5,-366.131 203.5,-366.131"/>
<text text-anchor="start" x="206.5" y="-372.331" font-family="Helvetica,sans-Serif" font-size="11.00">0 rows</text>
<polygon fill="#ffffff" stroke="none" points="245.5,-366.131 245.5,-384.131 269.5,-384.131 269.5,-366.131 245.5,-366.131"/>
<polygon fill="none" stroke="black" points="245.5,-366.131 245.5,-384.131 269.5,-384.131 269.5,-366.131 245.5,-366.131"/>
<text text-anchor="start" x="249.5" y="-372.331" font-family="Helvetica,sans-Serif" font-size="11.00">2 &gt;</text>
</a>
</g>
</g>
<!-- accessions&#45;&gt;species -->
<g id="edge22" class="edge"><title>accessions:species_id:w&#45;&gt;species:elipses:e</title>
<path fill="none" stroke="black" d="M620.113,-402.558C612.061,-404.283 606.228,-407.082 594,-408.131 482.853,-417.666 453.976,-419.491 343,-408.131 310.266,-404.78 303.405,-393.131 270.5,-393.131"/>
<polygon fill="black" stroke="black" points="626.539,-401.921 634.855,-404.713 630.52,-401.526 634.5,-401.131 634.5,-401.131 634.5,-401.131 630.52,-401.526 634.145,-397.548 626.539,-401.921 626.539,-401.921"/>
<ellipse fill="none" stroke="black" cx="623.355" cy="-402.237" rx="3.2" ry="3.2"/>
</g>
<!-- storage_locations -->
<g id="node18" class="node"><title>storage_locations</title>
<g id="a_node18"><a xlink:href="../../tables/storage_locations.html" xlink:title="storage_locations" target="_top">
<polygon fill="#ffffff" stroke="none" points="395,-842.131 395,-900.131 542,-900.131 542,-842.131 395,-842.131"/>
<polygon fill="#f5f5f5" stroke="none" points="395.5,-878.131 395.5,-900.131 542.5,-900.131 542.5,-878.131 395.5,-878.131"/>
<polygon fill="none" stroke="black" points="395.5,-878.131 395.5,-900.131 542.5,-900.131 542.5,-878.131 395.5,-878.131"/>
<text text-anchor="start" x="400.5" y="-887.331" font-family="Helvetica,sans-Serif" font-weight="bold" font-size="11.00">storage_locations</text>
<text text-anchor="start" x="503.5" y="-886.331" font-family="Helvetica,sans-Serif" font-size="11.00">[table]</text>
<polygon fill="none" stroke="black" points="395.5,-860.131 395.5,-878.131 542.5,-878.131 542.5,-860.131 395.5,-860.131"/>
<text text-anchor="start" x="398.5" y="-866.331" font-family="Helvetica,sans-Serif" font-size="11.00">...</text>
<polygon fill="#ffffff" stroke="none" points="395.5,-842.131 395.5,-860.131 447.5,-860.131 447.5,-842.131 395.5,-842.131"/>
<polygon fill="none" stroke="black" points="395.5,-842.131 395.5,-860.131 447.5,-860.131 447.5,-842.131 395.5,-842.131"/>
<text text-anchor="start" x="398.5" y="-848.331" font-family="Helvetica,sans-Serif" font-size="11.00">&lt; 4</text>
<polygon fill="#ffffff" stroke="none" points="447.5,-842.131 447.5,-860.131 504.5,-860.131 504.5,-842.131 447.5,-842.131"/>
<polygon fill="none" stroke="black" points="447.5,-842.131 447.5,-860.131 504.5,-860.131 504.5,-842.131 447.5,-842.131"/>
<text text-anchor="start" x="465.5" y="-848.331" font-family="Helvetica,sans-Serif" font-size="11.00">0 rows</text>
<polygon fill="#ffffff" stroke="none" points="504.5,-842.131 504.5,-860.131 542.5,-860.131 542.5,-842.131 504.5,-842.131"/>
<polygon fill="none" stroke="black" points="504.5,-842.131 504.5,-860.131 542.5,-860.131 542.5,-842.131 504.5,-842.131"/>
<text text-anchor="start" x="522.5" y="-848.331" font-family="Helvetica,sans-Serif" font-size="11.00">1 &gt;</text>
</a>
</g>
</g>
<!-- accessions&#45;&gt;storage_locations -->
<g id="edge24" class="edge"><title>accessions:storage_location_id:w&#45;&gt;storage_locations:elipses:e</title>
<path fill="none" stroke="black" d="M619.938,-666.782C569.077,-680.269 633.232,-773.308 594,-832.131 578.561,-855.279 571.324,-869.131 543.5,-869.131"/>
<polygon fill="black" stroke="black" points="626.551,-666.032 634.906,-668.708 630.525,-665.582 634.5,-665.131 634.5,-665.131 634.5,-665.131 630.525,-665.582 634.094,-661.554 626.551,-666.032 626.551,-666.032"/>
<ellipse fill="none" stroke="black" cx="623.371" cy="-666.393" rx="3.2" ry="3.2"/>
</g>
<!-- storage_conditions -->
<g id="node19" class="node"><title>storage_conditions</title>
<g id="a_node19"><a xlink:href="../../tables/storage_conditions.html" xlink:title="storage_conditions" target="_top">
<polygon fill="#ffffff" stroke="none" points="147,-713.131 147,-771.131 302,-771.131 302,-713.131 147,-713.131"/>
<polygon fill="#f5f5f5" stroke="none" points="147.5,-749.131 147.5,-771.131 302.5,-771.131 302.5,-749.131 147.5,-749.131"/>
<polygon fill="none" stroke="black" points="147.5,-749.131 147.5,-771.131 302.5,-771.131 302.5,-749.131 147.5,-749.131"/>
<text text-anchor="start" x="152.5" y="-758.331" font-family="Helvetica,sans-Serif" font-weight="bold" font-size="11.00">storage_conditions</text>
<text text-anchor="start" x="263.5" y="-757.331" font-family="Helvetica,sans-Serif" font-size="11.00">[table]</text>
<polygon fill="none" stroke="black" points="147.5,-731.131 147.5,-749.131 302.5,-749.131 302.5,-731.131 147.5,-731.131"/>
<text text-anchor="start" x="150.5" y="-737.331" font-family="Helvetica,sans-Serif" font-size="11.00">...</text>
<polygon fill="#ffffff" stroke="none" points="147.5,-713.131 147.5,-731.131 198.5,-731.131 198.5,-713.131 147.5,-713.131"/>
<polygon fill="none" stroke="black" points="147.5,-713.131 147.5,-731.131 198.5,-731.131 198.5,-713.131 147.5,-713.131"/>
<text text-anchor="start" x="150.5" y="-719.331" font-family="Helvetica,sans-Serif" font-size="11.00"> &#160;</text>
<polygon fill="#ffffff" stroke="none" points="198.5,-713.131 198.5,-731.131 259.5,-731.131 259.5,-713.131 198.5,-713.131"/>
<polygon fill="none" stroke="black" points="198.5,-713.131 198.5,-731.131 259.5,-731.131 259.5,-713.131 198.5,-713.131"/>
<text text-anchor="start" x="220.5" y="-719.331" font-family="Helvetica,sans-Serif" font-size="11.00">2 rows</text>
<polygon fill="#ffffff" stroke="none" points="259.5,-713.131 259.5,-731.131 302.5,-731.131 302.5,-713.131 259.5,-713.131"/>
<polygon fill="none" stroke="black" points="259.5,-713.131 259.5,-731.131 302.5,-731.131 302.5,-713.131 259.5,-713.131"/>
<text text-anchor="start" x="282.5" y="-719.331" font-family="Helvetica,sans-Serif" font-size="11.00">2 &gt;</text>
</a>
</g>
</g>
<!-- accessions&#45;&gt;storage_conditions -->
<g id="edge26" class="edge"><title>accessions:target_storage_condition:w&#45;&gt;storage_conditions:elipses:e</title>
<path fill="none" stroke="black" d="M620.067,-601.791C587.443,-617.03 636.208,-693.701 594,-726.131 542.75,-765.508 368.13,-740.131 303.5,-740.131"/>
<polygon fill="black" stroke="black" points="626.633,-600.581 635.153,-602.671 630.566,-599.856 634.5,-599.131 634.5,-599.131 634.5,-599.131 630.566,-599.856 633.847,-595.591 626.633,-600.581 626.633,-600.581"/>
<ellipse fill="none" stroke="black" cx="623.486" cy="-601.161" rx="3.2" ry="3.2"/>
</g>
<!-- accession_photos -->
<g id="node3" class="node"><title>accession_photos</title>
<g id="a_node3"><a xlink:href="../../tables/accession_photos.html" xlink:title="accession_photos" target="_top">
<polygon fill="#ffffff" stroke="none" points="943,-768.131 943,-826.131 1089,-826.131 1089,-768.131 943,-768.131"/>
<polygon fill="#f5f5f5" stroke="none" points="943,-804.131 943,-826.131 1089,-826.131 1089,-804.131 943,-804.131"/>
<polygon fill="none" stroke="black" points="943,-804.131 943,-826.131 1089,-826.131 1089,-804.131 943,-804.131"/>
<text text-anchor="start" x="948" y="-813.331" font-family="Helvetica,sans-Serif" font-weight="bold" font-size="11.00">accession_photos</text>
<text text-anchor="start" x="1050" y="-812.331" font-family="Helvetica,sans-Serif" font-size="11.00">[table]</text>
<polygon fill="none" stroke="black" points="943,-786.131 943,-804.131 1089,-804.131 1089,-786.131 943,-786.131"/>
<text text-anchor="start" x="946" y="-792.331" font-family="Helvetica,sans-Serif" font-size="11.00">...</text>
<polygon fill="#ffffff" stroke="none" points="943,-768.131 943,-786.131 1000,-786.131 1000,-768.131 943,-768.131"/>
<polygon fill="none" stroke="black" points="943,-768.131 943,-786.131 1000,-786.131 1000,-768.131 943,-768.131"/>
<text text-anchor="start" x="946" y="-774.331" font-family="Helvetica,sans-Serif" font-size="11.00">&lt; 2</text>
<polygon fill="#ffffff" stroke="none" points="1000,-768.131 1000,-786.131 1059,-786.131 1059,-768.131 1000,-768.131"/>
<polygon fill="none" stroke="black" points="1000,-768.131 1000,-786.131 1059,-786.131 1059,-768.131 1000,-768.131"/>
<text text-anchor="start" x="1020" y="-774.331" font-family="Helvetica,sans-Serif" font-size="11.00">0 rows</text>
<polygon fill="#ffffff" stroke="none" points="1059,-768.131 1059,-786.131 1089,-786.131 1089,-768.131 1059,-768.131"/>
<polygon fill="none" stroke="black" points="1059,-768.131 1059,-786.131 1089,-786.131 1089,-768.131 1059,-768.131"/>
<text text-anchor="start" x="1079" y="-774.331" font-family="Helvetica,sans-Serif" font-size="11.00"> &#160;</text>
</a>
</g>
</g>
<!-- accession_photos&#45;&gt;accessions -->
<g id="edge2" class="edge"><title>accession_photos:elipses:w&#45;&gt;accessions:id:e</title>
<path fill="none" stroke="black" d="M927.476,-793.756C905.089,-789.238 896.293,-775.131 867.5,-775.131"/>
<polygon fill="black" stroke="black" points="934.036,-794.377 941.661,-798.715 938.018,-794.754 942,-795.131 942,-795.131 942,-795.131 938.018,-794.754 942.339,-791.547 934.036,-794.377 934.036,-794.377"/>
<ellipse fill="none" stroke="black" cx="930.85" cy="-794.075" rx="3.2" ry="3.2"/>
</g>
<!-- accession_quantity_history -->
<g id="node4" class="node"><title>accession_quantity_history</title>
<g id="a_node4"><a xlink:href="../../tables/accession_quantity_history.html" xlink:title="accession_quantity_history" target="_top">
<polygon fill="#ffffff" stroke="none" points="915,-201.131 915,-259.131 1117,-259.131 1117,-201.131 915,-201.131"/>
<polygon fill="#f5f5f5" stroke="none" points="915,-237.131 915,-259.131 1117,-259.131 1117,-237.131 915,-237.131"/>
<polygon fill="none" stroke="black" points="915,-237.131 915,-259.131 1117,-259.131 1117,-237.131 915,-237.131"/>
<text text-anchor="start" x="920" y="-246.331" font-family="Helvetica,sans-Serif" font-weight="bold" font-size="11.00">accession_quantity_history</text>
<text text-anchor="start" x="1078" y="-245.331" font-family="Helvetica,sans-Serif" font-size="11.00">[table]</text>
<polygon fill="none" stroke="black" points="915,-219.131 915,-237.131 1117,-237.131 1117,-219.131 915,-219.131"/>
<text text-anchor="start" x="918" y="-225.331" font-family="Helvetica,sans-Serif" font-size="11.00">...</text>
<polygon fill="#ffffff" stroke="none" points="915,-201.131 915,-219.131 1000,-219.131 1000,-201.131 915,-201.131"/>
<polygon fill="none" stroke="black" points="915,-201.131 915,-219.131 1000,-219.131 1000,-201.131 915,-201.131"/>
<text text-anchor="start" x="918" y="-207.331" font-family="Helvetica,sans-Serif" font-size="11.00">&lt; 4</text>
<polygon fill="#ffffff" stroke="none" points="1000,-201.131 1000,-219.131 1073,-219.131 1073,-201.131 1000,-201.131"/>
<polygon fill="none" stroke="black" points="1000,-201.131 1000,-219.131 1073,-219.131 1073,-201.131 1000,-201.131"/>
<text text-anchor="start" x="1034" y="-207.331" font-family="Helvetica,sans-Serif" font-size="11.00">0 rows</text>
<polygon fill="#ffffff" stroke="none" points="1073,-201.131 1073,-219.131 1117,-219.131 1117,-201.131 1073,-201.131"/>
<polygon fill="none" stroke="black" points="1073,-201.131 1073,-219.131 1117,-219.131 1117,-201.131 1073,-201.131"/>
<text text-anchor="start" x="1107" y="-207.331" font-family="Helvetica,sans-Serif" font-size="11.00"> &#160;</text>
</a>
</g>
</g>
<!-- accession_quantity_history&#45;&gt;accessions -->
<g id="edge3" class="edge"><title>accession_quantity_history:elipses:w&#45;&gt;accessions:id:e</title>
<path fill="none" stroke="black" d="M902.316,-237.169C863.712,-308.289 923.851,-775.131 867.5,-775.131"/>
<polygon fill="black" stroke="black" points="907.672,-233.026 916.203,-230.978 910.836,-230.578 914,-228.131 914,-228.131 914,-228.131 910.836,-230.578 911.797,-225.283 907.672,-233.026 907.672,-233.026"/>
<ellipse fill="none" stroke="black" cx="905.141" cy="-234.984" rx="3.20001" ry="3.20001"/>
</g>
<!-- accession_quantity_history&#45;&gt;users -->
<g id="edge4" class="edge"><title>accession_quantity_history:elipses:w&#45;&gt;users:elipses:e</title>
<path fill="none" stroke="black" d="M899.965,-223.97C886.022,-212.574 895.357,-180.552 874,-163.131 771.369,-79.4145 724.429,-84.1478 594,-61.1309 484.142,-41.7442 441.841,-9.4096 343,-61.1309 202.085,-134.868 210.201,-212.918 139,-355.131 113.832,-405.401 155.218,-475.131 99,-475.131"/>
<polygon fill="black" stroke="black" points="906.33,-225.857 912.977,-231.582 910.165,-226.994 914,-228.131 914,-228.131 914,-228.131 910.165,-226.994 915.023,-224.679 906.33,-225.857 906.33,-225.857"/>
<ellipse fill="none" stroke="black" cx="903.262" cy="-224.947" rx="3.20001" ry="3.20001"/>
</g>
<!-- accession_quantity_history&#45;&gt;seed_quantity_units -->
<g id="edge5" class="edge"><title>accession_quantity_history:elipses:w&#45;&gt;seed_quantity_units:elipses:e</title>
<path fill="none" stroke="black" d="M899.436,-228.095C780.04,-227.463 739.773,-218.104 627,-162.131 587.853,-142.701 595.203,-99.1309 551.5,-99.1309"/>
<polygon fill="black" stroke="black" points="906,-228.111 913.991,-231.731 910,-228.121 914,-228.131 914,-228.131 914,-228.131 910,-228.121 914.009,-224.531 906,-228.111 906,-228.111"/>
<ellipse fill="none" stroke="black" cx="902.8" cy="-228.103" rx="3.2" ry="3.2"/>
</g>
<!-- accession_state_history -->
<g id="node7" class="node"><title>accession_state_history</title>
<g id="a_node7"><a xlink:href="../../tables/accession_state_history.html" xlink:title="accession_state_history" target="_top">
<polygon fill="#ffffff" stroke="none" points="925.5,-940.131 925.5,-998.131 1106.5,-998.131 1106.5,-940.131 925.5,-940.131"/>
<polygon fill="#f5f5f5" stroke="none" points="926,-976.131 926,-998.131 1107,-998.131 1107,-976.131 926,-976.131"/>
<polygon fill="none" stroke="black" points="926,-976.131 926,-998.131 1107,-998.131 1107,-976.131 926,-976.131"/>
<text text-anchor="start" x="931" y="-985.331" font-family="Helvetica,sans-Serif" font-weight="bold" font-size="11.00">accession_state_history</text>
<text text-anchor="start" x="1068" y="-984.331" font-family="Helvetica,sans-Serif" font-size="11.00">[table]</text>
<polygon fill="none" stroke="black" points="926,-958.131 926,-976.131 1107,-976.131 1107,-958.131 926,-958.131"/>
<text text-anchor="start" x="929" y="-964.331" font-family="Helvetica,sans-Serif" font-size="11.00">...</text>
<polygon fill="#ffffff" stroke="none" points="926,-940.131 926,-958.131 1000,-958.131 1000,-940.131 926,-940.131"/>
<polygon fill="none" stroke="black" points="926,-940.131 926,-958.131 1000,-958.131 1000,-940.131 926,-940.131"/>
<text text-anchor="start" x="929" y="-946.331" font-family="Helvetica,sans-Serif" font-size="11.00">&lt; 4</text>
<polygon fill="#ffffff" stroke="none" points="1000,-940.131 1000,-958.131 1068,-958.131 1068,-940.131 1000,-940.131"/>
<polygon fill="none" stroke="black" points="1000,-940.131 1000,-958.131 1068,-958.131 1068,-940.131 1000,-940.131"/>
<text text-anchor="start" x="1029" y="-946.331" font-family="Helvetica,sans-Serif" font-size="11.00">0 rows</text>
<polygon fill="#ffffff" stroke="none" points="1068,-940.131 1068,-958.131 1107,-958.131 1107,-940.131 1068,-940.131"/>
<polygon fill="none" stroke="black" points="1068,-940.131 1068,-958.131 1107,-958.131 1107,-940.131 1068,-940.131"/>
<text text-anchor="start" x="1097" y="-946.331" font-family="Helvetica,sans-Serif" font-size="11.00"> &#160;</text>
</a>
</g>
</g>
<!-- accession_state_history&#45;&gt;accessions -->
<g id="edge6" class="edge"><title>accession_state_history:elipses:w&#45;&gt;accessions:id:e</title>
<path fill="none" stroke="black" d="M910.653,-964.975C850.185,-943.881 951.01,-775.131 867.5,-775.131"/>
<polygon fill="black" stroke="black" points="917.089,-965.942 924.465,-970.691 921.044,-966.536 925,-967.131 925,-967.131 925,-967.131 921.044,-966.536 925.535,-963.571 917.089,-965.942 917.089,-965.942"/>
<ellipse fill="none" stroke="black" cx="913.924" cy="-965.466" rx="3.2" ry="3.2"/>
</g>
<!-- accession_state_history&#45;&gt;users -->
<g id="edge9" class="edge"><title>accession_state_history:elipses:w&#45;&gt;users:elipses:e</title>
<path fill="none" stroke="black" d="M910.458,-966.609C819.421,-962.317 372.897,-932.911 343,-930.131 252.047,-921.674 202.641,-970.657 139,-905.131 72.1377,-836.288 194.968,-475.131 99,-475.131"/>
<polygon fill="black" stroke="black" points="917.005,-966.844 924.871,-970.729 921.003,-966.987 925,-967.131 925,-967.131 925,-967.131 921.003,-966.987 925.129,-963.533 917.005,-966.844 917.005,-966.844"/>
<ellipse fill="none" stroke="black" cx="913.807" cy="-966.729" rx="3.2" ry="3.2"/>
</g>
<!-- accession_state_history&#45;&gt;accession_states -->
<g id="edge7" class="edge"><title>accession_state_history:elipses:w&#45;&gt;accession_states:elipses:e</title>
<path fill="none" stroke="black" d="M910.247,-967.219C750.872,-969.152 707.068,-1002.13 540.5,-1002.13"/>
<polygon fill="black" stroke="black" points="917,-967.179 925.022,-970.731 921,-967.155 925,-967.131 925,-967.131 925,-967.131 921,-967.155 924.978,-963.531 917,-967.179 917,-967.179"/>
<ellipse fill="none" stroke="black" cx="913.8" cy="-967.198" rx="3.2" ry="3.2"/>
</g>
<!-- accession_state_history&#45;&gt;accession_states -->
<g id="edge8" class="edge"><title>accession_state_history:elipses:w&#45;&gt;accession_states:elipses:e</title>
<path fill="none" stroke="black" d="M910.247,-967.219C750.872,-969.152 707.068,-1002.13 540.5,-1002.13"/>
<polygon fill="black" stroke="black" points="917,-967.179 925.022,-970.731 921,-967.155 925,-967.131 925,-967.131 925,-967.131 921,-967.155 924.978,-963.531 917,-967.179 917,-967.179"/>
<ellipse fill="none" stroke="black" cx="913.8" cy="-967.198" rx="3.2" ry="3.2"/>
</g>
<!-- facilities&#45;&gt;users -->
<g id="edge29" class="edge"><title>facilities:elipses:w&#45;&gt;users:elipses:e</title>
<path fill="none" stroke="black" d="M161.173,-857.195C148.655,-847.906 146.596,-831.232 139,-813.131 109.221,-742.166 175.96,-469.131 99,-475.131"/>
<polygon fill="black" stroke="black" points="167.192,-859.876 173.035,-866.419 170.846,-861.503 174.5,-863.131 174.5,-863.131 174.5,-863.131 170.846,-861.503 175.965,-859.842 167.192,-859.876 167.192,-859.876"/>
<ellipse fill="none" stroke="black" cx="164.269" cy="-858.574" rx="3.20001" ry="3.20001"/>
</g>
<!-- facilities&#45;&gt;users -->
<g id="edge30" class="edge"><title>facilities:elipses:w&#45;&gt;users:elipses:e</title>
<path fill="none" stroke="black" d="M160.074,-863.682C148.526,-859.904 146.368,-843.689 139,-826.131 109.221,-755.166 175.96,-482.131 99,-475.131"/>
<polygon fill="black" stroke="black" points="166.506,-863.436 174.637,-866.728 170.503,-863.284 174.5,-863.131 174.5,-863.131 174.5,-863.131 170.503,-863.284 174.363,-859.533 166.506,-863.436 166.506,-863.436"/>
<ellipse fill="none" stroke="black" cx="163.308" cy="-863.558" rx="3.2" ry="3.2"/>
</g>
<!-- species&#45;&gt;users -->
<g id="edge32" class="edge"><title>species:elipses:w&#45;&gt;users:elipses:e</title>
<path fill="none" stroke="black" d="M163.84,-392.132C131.795,-397.824 144.01,-463.604 99,-475.131"/>
<polygon fill="black" stroke="black" points="170.519,-392.587 178.255,-396.723 174.509,-392.859 178.5,-393.131 178.5,-393.131 178.5,-393.131 174.509,-392.859 178.745,-389.539 170.519,-392.587 170.519,-392.587"/>
<ellipse fill="none" stroke="black" cx="167.326" cy="-392.369" rx="3.2" ry="3.2"/>
</g>
<!-- species&#45;&gt;users -->
<g id="edge33" class="edge"><title>species:elipses:w&#45;&gt;users:elipses:e</title>
<path fill="none" stroke="black" d="M164.266,-395.859C131.686,-410.087 144.209,-475.131 99,-475.131"/>
<polygon fill="black" stroke="black" points="170.643,-394.637 179.178,-396.667 174.572,-393.884 178.5,-393.131 178.5,-393.131 178.5,-393.131 174.572,-393.884 177.822,-389.595 170.643,-394.637 170.643,-394.637"/>
<ellipse fill="none" stroke="black" cx="167.5" cy="-395.239" rx="3.2" ry="3.2"/>
</g>
<!-- species&#45;&gt;users -->
<g id="edge34" class="edge"><title>species:elipses:w&#45;&gt;users:elipses:e</title>
<path fill="none" stroke="black" d="M165.134,-399.055C131.462,-421.807 144.605,-486.811 99,-475.131"/>
<polygon fill="black" stroke="black" points="171.186,-396.373 179.959,-396.422 174.843,-394.752 178.5,-393.131 178.5,-393.131 178.5,-393.131 174.843,-394.752 177.041,-389.84 171.186,-396.373 171.186,-396.373"/>
<ellipse fill="none" stroke="black" cx="168.261" cy="-397.669" rx="3.20001" ry="3.20001"/>
</g>
<!-- storage_locations&#45;&gt;users -->
<g id="edge36" class="edge"><title>storage_locations:elipses:w&#45;&gt;users:elipses:e</title>
<path fill="none" stroke="black" d="M379.996,-867.818C350.997,-862.105 344.337,-839.106 310,-826.131 236.591,-798.392 190.996,-840.908 139,-782.131 93.4153,-730.601 167.799,-475.131 99,-475.131"/>
<polygon fill="black" stroke="black" points="386.533,-868.41 394.176,-872.716 390.516,-868.77 394.5,-869.131 394.5,-869.131 394.5,-869.131 390.516,-868.77 394.824,-865.546 386.533,-868.41 386.533,-868.41"/>
<ellipse fill="none" stroke="black" cx="383.346" cy="-868.121" rx="3.2" ry="3.2"/>
</g>
<!-- storage_locations&#45;&gt;users -->
<g id="edge38" class="edge"><title>storage_locations:elipses:w&#45;&gt;users:elipses:e</title>
<path fill="none" stroke="black" d="M379.805,-867.925C351.344,-862.85 343.521,-842.894 310,-830.131 235.763,-801.865 190.382,-838.712 139,-778.131 95.0689,-726.335 166.918,-475.131 99,-475.131"/>
<polygon fill="black" stroke="black" points="386.527,-868.477 394.206,-872.719 390.513,-868.804 394.5,-869.131 394.5,-869.131 394.5,-869.131 390.513,-868.804 394.794,-865.543 386.527,-868.477 386.527,-868.477"/>
<ellipse fill="none" stroke="black" cx="383.338" cy="-868.215" rx="3.2" ry="3.2"/>
</g>
<!-- storage_locations&#45;&gt;facilities -->
<g id="edge37" class="edge"><title>storage_locations:elipses:w&#45;&gt;facilities:elipses:e</title>
<path fill="none" stroke="black" d="M379.931,-868.97C338.139,-868.016 322.685,-863.131 274.5,-863.131"/>
<polygon fill="black" stroke="black" points="386.5,-869.043 394.46,-872.731 390.5,-869.087 394.5,-869.131 394.5,-869.131 394.5,-869.131 390.5,-869.087 394.54,-865.531 386.5,-869.043 386.5,-869.043"/>
<ellipse fill="none" stroke="black" cx="383.301" cy="-869.007" rx="3.2" ry="3.2"/>
</g>
<!-- storage_locations&#45;&gt;storage_conditions -->
<g id="edge35" class="edge"><title>storage_locations:elipses:w&#45;&gt;storage_conditions:elipses:e</title>
<path fill="none" stroke="black" d="M379.823,-867.339C363.519,-862.74 357.064,-849.641 343,-832.131 315.135,-797.437 347.998,-740.131 303.5,-740.131"/>
<polygon fill="black" stroke="black" points="386.559,-868.161 394.064,-872.704 390.529,-868.646 394.5,-869.131 394.5,-869.131 394.5,-869.131 390.529,-868.646 394.936,-865.557 386.559,-868.161 386.559,-868.161"/>
<ellipse fill="none" stroke="black" cx="383.383" cy="-867.773" rx="3.2" ry="3.2"/>
</g>
<!-- bags -->
<g id="node20" class="node"><title>bags</title>
<g id="a_node20"><a xlink:href="../../tables/bags.html" xlink:title="bags" target="_top">
<polygon fill="#ffffff" stroke="none" points="977,-689.131 977,-747.131 1055,-747.131 1055,-689.131 977,-689.131"/>
<polygon fill="#f5f5f5" stroke="none" points="977,-725.131 977,-747.131 1055,-747.131 1055,-725.131 977,-725.131"/>
<polygon fill="none" stroke="black" points="977,-725.131 977,-747.131 1055,-747.131 1055,-725.131 977,-725.131"/>
<text text-anchor="start" x="982" y="-734.331" font-family="Helvetica,sans-Serif" font-weight="bold" font-size="11.00">bags</text>
<text text-anchor="start" x="1016" y="-733.331" font-family="Helvetica,sans-Serif" font-size="11.00">[table]</text>
<polygon fill="none" stroke="black" points="977,-707.131 977,-725.131 1055,-725.131 1055,-707.131 977,-707.131"/>
<text text-anchor="start" x="980" y="-713.331" font-family="Helvetica,sans-Serif" font-size="11.00">...</text>
<polygon fill="#ffffff" stroke="none" points="977,-689.131 977,-707.131 1000,-707.131 1000,-689.131 977,-689.131"/>
<polygon fill="none" stroke="black" points="977,-689.131 977,-707.131 1000,-707.131 1000,-689.131 977,-689.131"/>
<text text-anchor="start" x="980" y="-695.331" font-family="Helvetica,sans-Serif" font-size="11.00">&lt; 1</text>
<polygon fill="#ffffff" stroke="none" points="1000,-689.131 1000,-707.131 1042,-707.131 1042,-689.131 1000,-689.131"/>
<polygon fill="none" stroke="black" points="1000,-689.131 1000,-707.131 1042,-707.131 1042,-689.131 1000,-689.131"/>
<text text-anchor="start" x="1003" y="-695.331" font-family="Helvetica,sans-Serif" font-size="11.00">0 rows</text>
<polygon fill="#ffffff" stroke="none" points="1042,-689.131 1042,-707.131 1055,-707.131 1055,-689.131 1042,-689.131"/>
<polygon fill="none" stroke="black" points="1042,-689.131 1042,-707.131 1055,-707.131 1055,-689.131 1042,-689.131"/>
<text text-anchor="start" x="1045" y="-695.331" font-family="Helvetica,sans-Serif" font-size="11.00"> &#160;</text>
</a>
</g>
</g>
<!-- bags&#45;&gt;accessions -->
<g id="edge28" class="edge"><title>bags:elipses:w&#45;&gt;accessions:id:e</title>
<path fill="none" stroke="black" d="M961.82,-719.822C932.828,-732.738 890.764,-775.131 867.5,-775.131"/>
<polygon fill="black" stroke="black" points="968.258,-718.146 976.907,-719.615 972.129,-717.138 976,-716.131 976,-716.131 976,-716.131 972.129,-717.138 975.093,-712.647 968.258,-718.146 968.258,-718.146"/>
<ellipse fill="none" stroke="black" cx="965.161" cy="-718.952" rx="3.2" ry="3.2"/>
</g>
<!-- geolocations -->
<g id="node21" class="node"><title>geolocations</title>
<g id="a_node21"><a xlink:href="../../tables/geolocations.html" xlink:title="geolocations" target="_top">
<polygon fill="#ffffff" stroke="none" points="956,-610.131 956,-668.131 1076,-668.131 1076,-610.131 956,-610.131"/>
<polygon fill="#f5f5f5" stroke="none" points="956,-646.131 956,-668.131 1076,-668.131 1076,-646.131 956,-646.131"/>
<polygon fill="none" stroke="black" points="956,-646.131 956,-668.131 1076,-668.131 1076,-646.131 956,-646.131"/>
<text text-anchor="start" x="961" y="-655.331" font-family="Helvetica,sans-Serif" font-weight="bold" font-size="11.00">geolocations</text>
<text text-anchor="start" x="1037" y="-654.331" font-family="Helvetica,sans-Serif" font-size="11.00">[table]</text>
<polygon fill="none" stroke="black" points="956,-628.131 956,-646.131 1076,-646.131 1076,-628.131 956,-628.131"/>
<text text-anchor="start" x="959" y="-634.331" font-family="Helvetica,sans-Serif" font-size="11.00">...</text>
<polygon fill="#ffffff" stroke="none" points="956,-610.131 956,-628.131 1000,-628.131 1000,-610.131 956,-610.131"/>
<polygon fill="none" stroke="black" points="956,-610.131 956,-628.131 1000,-628.131 1000,-610.131 956,-610.131"/>
<text text-anchor="start" x="959" y="-616.331" font-family="Helvetica,sans-Serif" font-size="11.00">&lt; 1</text>
<polygon fill="#ffffff" stroke="none" points="1000,-610.131 1000,-628.131 1052,-628.131 1052,-610.131 1000,-610.131"/>
<polygon fill="none" stroke="black" points="1000,-610.131 1000,-628.131 1052,-628.131 1052,-610.131 1000,-610.131"/>
<text text-anchor="start" x="1013" y="-616.331" font-family="Helvetica,sans-Serif" font-size="11.00">0 rows</text>
<polygon fill="#ffffff" stroke="none" points="1052,-610.131 1052,-628.131 1076,-628.131 1076,-610.131 1052,-610.131"/>
<polygon fill="none" stroke="black" points="1052,-610.131 1052,-628.131 1076,-628.131 1076,-610.131 1052,-610.131"/>
<text text-anchor="start" x="1066" y="-616.331" font-family="Helvetica,sans-Serif" font-size="11.00"> &#160;</text>
</a>
</g>
</g>
<!-- geolocations&#45;&gt;accessions -->
<g id="edge31" class="edge"><title>geolocations:elipses:w&#45;&gt;accessions:id:e</title>
<path fill="none" stroke="black" d="M940.521,-639.352C924.82,-644.998 920.146,-660.761 907,-679.131 880.149,-716.65 913.637,-775.131 867.5,-775.131"/>
<polygon fill="black" stroke="black" points="947.092,-638.344 955.546,-640.689 951.046,-637.737 955,-637.131 955,-637.131 955,-637.131 951.046,-637.737 954.454,-633.572 947.092,-638.344 947.092,-638.344"/>
<ellipse fill="none" stroke="black" cx="943.929" cy="-638.829" rx="3.2" ry="3.2"/>
</g>
<!-- viability_tests -->
<g id="node22" class="node"><title>viability_tests</title>
<g id="a_node22"><a xlink:href="../../tables/viability_tests.html" xlink:title="viability_tests" target="_top">
<polygon fill="#ffffff" stroke="none" points="951.5,-122.131 951.5,-180.131 1080.5,-180.131 1080.5,-122.131 951.5,-122.131"/>
<polygon fill="#f5f5f5" stroke="none" points="952,-158.131 952,-180.131 1081,-180.131 1081,-158.131 952,-158.131"/>
<polygon fill="none" stroke="black" points="952,-158.131 952,-180.131 1081,-180.131 1081,-158.131 952,-158.131"/>
<text text-anchor="start" x="957" y="-167.331" font-family="Helvetica,sans-Serif" font-weight="bold" font-size="11.00">viability_tests</text>
<text text-anchor="start" x="1042" y="-166.331" font-family="Helvetica,sans-Serif" font-size="11.00">[table]</text>
<polygon fill="none" stroke="black" points="952,-140.131 952,-158.131 1081,-158.131 1081,-140.131 952,-140.131"/>
<text text-anchor="start" x="955" y="-146.331" font-family="Helvetica,sans-Serif" font-size="11.00">...</text>
<polygon fill="#ffffff" stroke="none" points="952,-122.131 952,-140.131 995,-140.131 995,-122.131 952,-122.131"/>
<polygon fill="none" stroke="black" points="952,-122.131 952,-140.131 995,-140.131 995,-122.131 952,-122.131"/>
<text text-anchor="start" x="955" y="-128.331" font-family="Helvetica,sans-Serif" font-size="11.00">&lt; 6</text>
<polygon fill="#ffffff" stroke="none" points="995,-122.131 995,-140.131 1047,-140.131 1047,-122.131 995,-122.131"/>
<polygon fill="none" stroke="black" points="995,-122.131 995,-140.131 1047,-140.131 1047,-122.131 995,-122.131"/>
<text text-anchor="start" x="1008" y="-128.331" font-family="Helvetica,sans-Serif" font-size="11.00">0 rows</text>
<polygon fill="#ffffff" stroke="none" points="1047,-122.131 1047,-140.131 1081,-140.131 1081,-122.131 1047,-122.131"/>
<polygon fill="none" stroke="black" points="1047,-122.131 1047,-140.131 1081,-140.131 1081,-122.131 1047,-122.131"/>
<text text-anchor="start" x="1061" y="-128.331" font-family="Helvetica,sans-Serif" font-size="11.00">2 &gt;</text>
</a>
</g>
</g>
<!-- viability_tests&#45;&gt;accessions -->
<g id="edge39" class="edge"><title>viability_tests:elipses:w&#45;&gt;accessions:id:e</title>
<path fill="none" stroke="black" d="M936.631,-151.292C921.575,-156.569 916.061,-171.085 907,-190.131 879.013,-248.961 932.648,-775.131 867.5,-775.131"/>
<polygon fill="black" stroke="black" points="943.089,-150.321 951.535,-152.691 947.044,-149.726 951,-149.131 951,-149.131 951,-149.131 947.044,-149.726 950.465,-145.571 943.089,-150.321 943.089,-150.321"/>
<ellipse fill="none" stroke="black" cx="939.925" cy="-150.797" rx="3.2" ry="3.2"/>
</g>
<!-- viability_tests&#45;&gt;seed_quantity_units -->
<g id="edge40" class="edge"><title>viability_tests:elipses:w&#45;&gt;seed_quantity_units:elipses:e</title>
<path fill="none" stroke="black" d="M936.575,-147.634C865.659,-139.315 561.526,-99.1309 551.5,-99.1309"/>
<polygon fill="black" stroke="black" points="943.043,-148.305 950.629,-152.712 947.021,-148.718 951,-149.131 951,-149.131 951,-149.131 947.021,-148.718 951.371,-145.55 943.043,-148.305 943.043,-148.305"/>
<ellipse fill="none" stroke="black" cx="939.86" cy="-147.975" rx="3.2" ry="3.2"/>
</g>
<!-- withdrawals -->
<g id="node23" class="node"><title>withdrawals</title>
<g id="a_node23"><a xlink:href="../../tables/withdrawals.html" xlink:title="withdrawals" target="_top">
<polygon fill="#ffffff" stroke="none" points="1166,-59.1309 1166,-117.131 1286,-117.131 1286,-59.1309 1166,-59.1309"/>
<polygon fill="#f5f5f5" stroke="none" points="1166,-95.1309 1166,-117.131 1286,-117.131 1286,-95.1309 1166,-95.1309"/>
<polygon fill="none" stroke="black" points="1166,-95.1309 1166,-117.131 1286,-117.131 1286,-95.1309 1166,-95.1309"/>
<text text-anchor="start" x="1171" y="-104.331" font-family="Helvetica,sans-Serif" font-weight="bold" font-size="11.00">withdrawals</text>
<text text-anchor="start" x="1247" y="-103.331" font-family="Helvetica,sans-Serif" font-size="11.00">[table]</text>
<polygon fill="none" stroke="black" points="1166,-77.1309 1166,-95.1309 1286,-95.1309 1286,-77.1309 1166,-77.1309"/>
<text text-anchor="start" x="1169" y="-83.3309" font-family="Helvetica,sans-Serif" font-size="11.00">...</text>
<polygon fill="#ffffff" stroke="none" points="1166,-59.1309 1166,-77.1309 1210,-77.1309 1210,-59.1309 1166,-59.1309"/>
<polygon fill="none" stroke="black" points="1166,-59.1309 1166,-77.1309 1210,-77.1309 1210,-59.1309 1166,-59.1309"/>
<text text-anchor="start" x="1169" y="-65.3309" font-family="Helvetica,sans-Serif" font-size="11.00">&lt; 6</text>
<polygon fill="#ffffff" stroke="none" points="1210,-59.1309 1210,-77.1309 1262,-77.1309 1262,-59.1309 1210,-59.1309"/>
<polygon fill="none" stroke="black" points="1210,-59.1309 1210,-77.1309 1262,-77.1309 1262,-59.1309 1210,-59.1309"/>
<text text-anchor="start" x="1223" y="-65.3309" font-family="Helvetica,sans-Serif" font-size="11.00">0 rows</text>
<polygon fill="#ffffff" stroke="none" points="1262,-59.1309 1262,-77.1309 1286,-77.1309 1286,-59.1309 1262,-59.1309"/>
<polygon fill="none" stroke="black" points="1262,-59.1309 1262,-77.1309 1286,-77.1309 1286,-59.1309 1262,-59.1309"/>
<text text-anchor="start" x="1276" y="-65.3309" font-family="Helvetica,sans-Serif" font-size="11.00"> &#160;</text>
</a>
</g>
</g>
<!-- withdrawals&#45;&gt;accessions -->
<g id="edge41" class="edge"><title>withdrawals:elipses:w&#45;&gt;accessions:id:e</title>
<path fill="none" stroke="black" d="M1151.99,-92.4208C1127.29,-120.63 1139.14,-235.566 1125,-269.131 1056.6,-431.459 975.953,-438.036 907,-600.131 875.789,-673.503 947.234,-775.131 867.5,-775.131"/>
<polygon fill="black" stroke="black" points="1157.8,-89.6136 1166.57,-89.3718 1161.4,-87.8723 1165,-86.1309 1165,-86.1309 1165,-86.1309 1161.4,-87.8723 1163.43,-82.8899 1157.8,-89.6136 1157.8,-89.6136"/>
<ellipse fill="none" stroke="black" cx="1154.92" cy="-91.0068" rx="3.20001" ry="3.20001"/>
</g>
<!-- withdrawals&#45;&gt;seed_quantity_units -->
<g id="edge42" class="edge"><title>withdrawals:elipses:w&#45;&gt;seed_quantity_units:elipses:e</title>
<path fill="none" stroke="black" d="M1150.42,-86.1435C889.747,-86.5964 819.301,-99.1309 551.5,-99.1309"/>
<polygon fill="black" stroke="black" points="1157,-86.1378 1165,-89.7309 1161,-86.1344 1165,-86.1309 1165,-86.1309 1165,-86.1309 1161,-86.1344 1165,-82.5309 1157,-86.1378 1157,-86.1378"/>
<ellipse fill="none" stroke="black" cx="1153.8" cy="-86.1406" rx="3.2" ry="3.2"/>
</g>
<!-- withdrawals&#45;&gt;seed_quantity_units -->
<g id="edge43" class="edge"><title>withdrawals:elipses:w&#45;&gt;seed_quantity_units:elipses:e</title>
<path fill="none" stroke="black" d="M1150.42,-85.8241C889.747,-80.5983 819.301,-93.2393 551.5,-99.1309"/>
<polygon fill="black" stroke="black" points="1157,-85.9626 1164.92,-89.7301 1161,-86.0467 1165,-86.1309 1165,-86.1309 1165,-86.1309 1161,-86.0467 1165.08,-82.5317 1157,-85.9626 1157,-85.9626"/>
<ellipse fill="none" stroke="black" cx="1153.8" cy="-85.8953" rx="3.2" ry="3.2"/>
</g>
<!-- withdrawals&#45;&gt;seed_quantity_units -->
<g id="edge45" class="edge"><title>withdrawals:elipses:w&#45;&gt;seed_quantity_units:elipses:e</title>
<path fill="none" stroke="black" d="M1150.42,-86.516C889.747,-93.5941 819.301,-106.004 551.5,-99.1309"/>
<polygon fill="black" stroke="black" points="1157,-86.3421 1165.1,-89.7296 1161,-86.2365 1165,-86.1309 1165,-86.1309 1165,-86.1309 1161,-86.2365 1164.9,-82.5321 1157,-86.3421 1157,-86.3421"/>
<ellipse fill="none" stroke="black" cx="1153.8" cy="-86.4266" rx="3.2" ry="3.2"/>
</g>
<!-- withdrawals&#45;&gt;viability_tests -->
<g id="edge44" class="edge"><title>withdrawals:elipses:w&#45;&gt;viability_tests:elipses:e</title>
<path fill="none" stroke="black" d="M1154.23,-87.4467C1119.93,-96.4937 1124.33,-149.131 1082,-149.131"/>
<polygon fill="black" stroke="black" points="1163.72,-82.2574 1164.69,-90.1984 1163.1,-90.3924 1162.13,-82.4514 1163.72,-82.2574"/>
<polyline fill="none" stroke="black" points="1165,-86.1309 1161.03,-86.6159 "/>
<ellipse fill="none" stroke="black" cx="1157.85" cy="-87.004" rx="3.2" ry="3.2"/>
</g>
</g>
</svg>
