<?xml version="1.0" encoding="UTF-8" standalone="no"?>
<!DOCTYPE svg PUBLIC "-//W3C//DTD SVG 1.1//EN"
 "http://www.w3.org/Graphics/SVG/1.1/DTD/svg11.dtd">
<!-- Generated by graphviz version 2.38.0 (20140413.2041)
 -->
<!-- Title: oneDegreeRelationshipsDiagram Pages: 1 -->
<svg width="1157pt" height="704pt"
 viewBox="0.00 0.00 1157.00 704.00" xmlns="http://www.w3.org/2000/svg" xmlns:xlink="http://www.w3.org/1999/xlink">
<g id="graph0" class="graph" transform="scale(1 1) rotate(0) translate(4 700)">
<title>oneDegreeRelationshipsDiagram</title>
<polygon fill="#ffffff" stroke="none" points="-4,4 -4,-700 1153,-700 1153,4 -4,4"/>
<text text-anchor="middle" x="74.5" y="-7.2" font-family="Helvetica,sans-Serif" font-size="11.00">Generated by SchemaSpy</text>
<!-- accessions -->
<g id="node1" class="node"><title>accessions</title>
<g id="a_node1"><a xlink:href="../../tables/accessions.html" xlink:title="accessions" target="_top">
<polygon fill="#ffffff" stroke="none" points="913,-37 913,-513 1141,-513 1141,-37 913,-37"/>
<polygon fill="#f5f5f5" stroke="none" points="913,-491 913,-513 1141,-513 1141,-491 913,-491"/>
<polygon fill="none" stroke="black" points="913,-491 913,-513 1141,-513 1141,-491 913,-491"/>
<text text-anchor="start" x="918" y="-500.2" font-family="Helvetica,sans-Serif" font-weight="bold" font-size="11.00">accessions</text>
<text text-anchor="start" x="1102" y="-499.2" font-family="Helvetica,sans-Serif" font-size="11.00">[table]</text>
<polygon fill="none" stroke="black" points="913,-469 913,-491 1141,-491 1141,-469 913,-469"/>
<image xlink:href="../../images/primaryKeys.png" width="11px" height="12px" preserveAspectRatio="xMinYMin meet" x="918" y="-486"/>
<text text-anchor="start" x="933" y="-477.2" font-family="Helvetica,sans-Serif" font-size="11.00">id</text>
<polygon fill="none" stroke="black" points="913,-447 913,-469 1141,-469 1141,-447 913,-447"/>
<image xlink:href="../../images/foreignKeys.png" width="11px" height="12px" preserveAspectRatio="xMinYMin meet" x="918" y="-464"/>
<text text-anchor="start" x="933" y="-455.2" font-family="Helvetica,sans-Serif" font-size="11.00">facility_id</text>
<polygon fill="none" stroke="black" points="913,-425 913,-447 1141,-447 1141,-425 913,-425"/>
<image xlink:href="../../images/foreignKeys.png" width="11px" height="12px" preserveAspectRatio="xMinYMin meet" x="918" y="-442"/>
<text text-anchor="start" x="933" y="-433.2" font-family="Helvetica,sans-Serif" font-size="11.00">app_device_id</text>
<polygon fill="#ffffff" stroke="none" points="913,-403 913,-425 1141,-425 1141,-403 913,-403"/>
<polygon fill="none" stroke="black" points="913,-403 913,-425 1141,-425 1141,-403 913,-403"/>
<text text-anchor="start" x="933" y="-411.2" font-family="Helvetica,sans-Serif" font-size="11.00">number</text>
<polygon fill="#ffffff" stroke="none" points="913,-381 913,-403 1141,-403 1141,-381 913,-381"/>
<polygon fill="none" stroke="black" points="913,-381 913,-403 1141,-403 1141,-381 913,-381"/>
<text text-anchor="start" x="933" y="-389.2" font-family="Helvetica,sans-Serif" font-size="11.00">received_date</text>
<polygon fill="none" stroke="black" points="913,-359 913,-381 1141,-381 1141,-359 913,-359"/>
<image xlink:href="../../images/foreignKeys.png" width="11px" height="12px" preserveAspectRatio="xMinYMin meet" x="918" y="-376"/>
<text text-anchor="start" x="933" y="-367.2" font-family="Helvetica,sans-Serif" font-size="11.00">state_id</text>
<polygon fill="none" stroke="black" points="913,-337 913,-359 1141,-359 1141,-337 913,-337"/>
<image xlink:href="../../images/foreignKeys.png" width="11px" height="12px" preserveAspectRatio="xMinYMin meet" x="918" y="-354"/>
<text text-anchor="start" x="933" y="-345.2" font-family="Helvetica,sans-Serif" font-size="11.00">storage_location_id</text>
<polygon fill="#ffffff" stroke="none" points="913,-315 913,-337 1141,-337 1141,-315 913,-315"/>
<polygon fill="none" stroke="black" points="913,-315 913,-337 1141,-337 1141,-315 913,-315"/>
<text text-anchor="start" x="933" y="-323.2" font-family="Helvetica,sans-Serif" font-size="11.00">created_time</text>
<polygon fill="none" stroke="black" points="913,-293 913,-315 1141,-315 1141,-293 913,-293"/>
<image xlink:href="../../images/foreignKeys.png" width="11px" height="12px" preserveAspectRatio="xMinYMin meet" x="918" y="-310"/>
<text text-anchor="start" x="933" y="-301.2" font-family="Helvetica,sans-Serif" font-size="11.00">processing_method_id</text>
<polygon fill="none" stroke="black" points="913,-271 913,-293 1141,-293 1141,-271 913,-271"/>
<image xlink:href="../../images/foreignKeys.png" width="11px" height="12px" preserveAspectRatio="xMinYMin meet" x="918" y="-288"/>
<text text-anchor="start" x="933" y="-279.2" font-family="Helvetica,sans-Serif" font-size="11.00">target_storage_condition</text>
<polygon fill="none" stroke="black" points="913,-249 913,-271 1141,-271 1141,-249 913,-249"/>
<image xlink:href="../../images/foreignKeys.png" width="11px" height="12px" preserveAspectRatio="xMinYMin meet" x="918" y="-266"/>
<text text-anchor="start" x="933" y="-257.2" font-family="Helvetica,sans-Serif" font-size="11.00">species_endangered_type_id</text>
<polygon fill="none" stroke="black" points="913,-227 913,-249 1141,-249 1141,-227 913,-227"/>
<image xlink:href="../../images/foreignKeys.png" width="11px" height="12px" preserveAspectRatio="xMinYMin meet" x="918" y="-244"/>
<text text-anchor="start" x="933" y="-235.2" font-family="Helvetica,sans-Serif" font-size="11.00">rare_type_id</text>
<polygon fill="none" stroke="black" points="913,-205 913,-227 1141,-227 1141,-205 913,-205"/>
<image xlink:href="../../images/foreignKeys.png" width="11px" height="12px" preserveAspectRatio="xMinYMin meet" x="918" y="-222"/>
<text text-anchor="start" x="933" y="-213.2" font-family="Helvetica,sans-Serif" font-size="11.00">source_plant_origin_id</text>
<polygon fill="none" stroke="black" points="913,-183 913,-205 1141,-205 1141,-183 913,-183"/>
<image xlink:href="../../images/foreignKeys.png" width="11px" height="12px" preserveAspectRatio="xMinYMin meet" x="918" y="-200"/>
<text text-anchor="start" x="933" y="-191.2" font-family="Helvetica,sans-Serif" font-size="11.00">remaining_units_id</text>
<polygon fill="none" stroke="black" points="913,-161 913,-183 1141,-183 1141,-161 913,-161"/>
<image xlink:href="../../images/foreignKeys.png" width="11px" height="12px" preserveAspectRatio="xMinYMin meet" x="918" y="-178"/>
<text text-anchor="start" x="933" y="-169.2" font-family="Helvetica,sans-Serif" font-size="11.00">subset_weight_units_id</text>
<polygon fill="none" stroke="black" points="913,-139 913,-161 1141,-161 1141,-139 913,-139"/>
<image xlink:href="../../images/foreignKeys.png" width="11px" height="12px" preserveAspectRatio="xMinYMin meet" x="918" y="-156"/>
<text text-anchor="start" x="933" y="-147.2" font-family="Helvetica,sans-Serif" font-size="11.00">total_units_id</text>
<polygon fill="none" stroke="black" points="913,-117 913,-139 1141,-139 1141,-117 913,-117"/>
<image xlink:href="../../images/foreignKeys.png" width="11px" height="12px" preserveAspectRatio="xMinYMin meet" x="918" y="-134"/>
<text text-anchor="start" x="933" y="-125.2" font-family="Helvetica,sans-Serif" font-size="11.00">created_by</text>
<polygon fill="none" stroke="black" points="913,-95 913,-117 1141,-117 1141,-95 913,-95"/>
<image xlink:href="../../images/foreignKeys.png" width="11px" height="12px" preserveAspectRatio="xMinYMin meet" x="918" y="-112"/>
<text text-anchor="start" x="933" y="-103.2" font-family="Helvetica,sans-Serif" font-size="11.00">modified_by</text>
<polygon fill="none" stroke="black" points="913,-73 913,-95 1141,-95 1141,-73 913,-73"/>
<image xlink:href="../../images/foreignKeys.png" width="11px" height="12px" preserveAspectRatio="xMinYMin meet" x="918" y="-90"/>
<text text-anchor="start" x="933" y="-81.2" font-family="Helvetica,sans-Serif" font-size="11.00">species_id</text>
<polygon fill="none" stroke="black" points="913,-55 913,-73 1141,-73 1141,-55 913,-55"/>
<text text-anchor="start" x="916" y="-61.2" font-family="Helvetica,sans-Serif" font-size="11.00">...</text>
<polygon fill="#ffffff" stroke="none" points="913,-37 913,-55 1009,-55 1009,-37 913,-37"/>
<polygon fill="none" stroke="black" points="913,-37 913,-55 1009,-55 1009,-37 913,-37"/>
<text text-anchor="start" x="916" y="-43.2" font-family="Helvetica,sans-Serif" font-size="11.00">&lt; 15</text>
<polygon fill="#ffffff" stroke="none" points="1009,-37 1009,-55 1084,-55 1084,-37 1009,-37"/>
<polygon fill="none" stroke="black" points="1009,-37 1009,-55 1084,-55 1084,-37 1009,-37"/>
<text text-anchor="start" x="1045" y="-43.2" font-family="Helvetica,sans-Serif" font-size="11.00">0 rows</text>
<polygon fill="#ffffff" stroke="none" points="1084,-37 1084,-55 1141,-55 1141,-37 1084,-37"/>
<polygon fill="none" stroke="black" points="1084,-37 1084,-55 1141,-55 1141,-37 1084,-37"/>
<text text-anchor="start" x="1121" y="-43.2" font-family="Helvetica,sans-Serif" font-size="11.00">9 &gt;</text>
</a>
</g>
</g>
<!-- users -->
<g id="node2" class="node"><title>users</title>
<g id="a_node2"><a xlink:href="../../tables/users.html" xlink:title="users" target="_top">
<polygon fill="#ffffff" stroke="none" points="8,-97 8,-243 196,-243 196,-97 8,-97"/>
<polygon fill="#f5f5f5" stroke="none" points="8,-221 8,-243 196,-243 196,-221 8,-221"/>
<polygon fill="none" stroke="black" points="8,-221 8,-243 196,-243 196,-221 8,-221"/>
<text text-anchor="start" x="13" y="-230.2" font-family="Helvetica,sans-Serif" font-weight="bold" font-size="11.00">users</text>
<text text-anchor="start" x="157" y="-229.2" font-family="Helvetica,sans-Serif" font-size="11.00">[table]</text>
<polygon fill="none" stroke="black" points="8,-199 8,-221 196,-221 196,-199 8,-199"/>
<image xlink:href="../../images/primaryKeys.png" width="11px" height="12px" preserveAspectRatio="xMinYMin meet" x="13" y="-216"/>
<text text-anchor="start" x="28" y="-207.2" font-family="Helvetica,sans-Serif" font-size="11.00">id</text>
<polygon fill="#ffffff" stroke="none" points="8,-177 8,-199 196,-199 196,-177 8,-177"/>
<polygon fill="none" stroke="black" points="8,-177 8,-199 196,-199 196,-177 8,-177"/>
<text text-anchor="start" x="28" y="-185.2" font-family="Helvetica,sans-Serif" font-size="11.00">auth_id</text>
<polygon fill="#ffffff" stroke="none" points="8,-155 8,-177 196,-177 196,-155 8,-155"/>
<polygon fill="none" stroke="black" points="8,-155 8,-177 196,-177 196,-155 8,-155"/>
<text text-anchor="start" x="28" y="-163.2" font-family="Helvetica,sans-Serif" font-size="11.00">email</text>
<polygon fill="none" stroke="black" points="8,-133 8,-155 196,-155 196,-133 8,-133"/>
<image xlink:href="../../images/foreignKeys.png" width="11px" height="12px" preserveAspectRatio="xMinYMin meet" x="13" y="-150"/>
<text text-anchor="start" x="28" y="-141.2" font-family="Helvetica,sans-Serif" font-size="11.00">user_type_id</text>
<polygon fill="none" stroke="black" points="8,-115 8,-133 196,-133 196,-115 8,-115"/>
<text text-anchor="start" x="11" y="-121.2" font-family="Helvetica,sans-Serif" font-size="11.00">...</text>
<polygon fill="#ffffff" stroke="none" points="8,-97 8,-115 80,-115 80,-97 8,-97"/>
<polygon fill="none" stroke="black" points="8,-97 8,-115 80,-115 80,-97 8,-97"/>
<text text-anchor="start" x="11" y="-103.2" font-family="Helvetica,sans-Serif" font-size="11.00">&lt; 1</text>
<polygon fill="#ffffff" stroke="none" points="80,-97 80,-115 141,-115 141,-97 80,-97"/>
<polygon fill="none" stroke="black" points="80,-97 80,-115 141,-115 141,-97 80,-97"/>
<text text-anchor="start" x="107" y="-103.2" font-family="Helvetica,sans-Serif" font-size="11.00">1 row</text>
<polygon fill="#ffffff" stroke="none" points="141,-97 141,-115 196,-115 196,-97 141,-97"/>
<polygon fill="none" stroke="black" points="141,-97 141,-115 196,-115 196,-97 141,-97"/>
<text text-anchor="start" x="169" y="-103.2" font-family="Helvetica,sans-Serif" font-size="11.00">32 &gt;</text>
</a>
</g>
</g>
<!-- accessions&#45;&gt;users -->
<g id="edge1" class="edge"><title>accessions:created_by:w&#45;&gt;users:id:e</title>
<path fill="none" stroke="black" d="M898.16,-123.654C889.806,-117.226 886.582,-105.461 872,-101 807.288,-81.2035 317.124,-47.1614 237,-103 195.347,-132.028 247.77,-210 197,-210"/>
<polygon fill="black" stroke="black" points="904.367,-125.603 910.922,-131.435 908.184,-126.802 912,-128 912,-128 912,-128 908.184,-126.802 913.078,-124.565 904.367,-125.603 904.367,-125.603"/>
<ellipse fill="none" stroke="black" cx="901.314" cy="-124.645" rx="3.20001" ry="3.20001"/>
</g>
<!-- accessions&#45;&gt;users -->
<g id="edge3" class="edge"><title>accessions:modified_by:w&#45;&gt;users:id:e</title>
<path fill="none" stroke="black" d="M898.139,-101.719C889.759,-95.3756 886.5,-83.7203 872,-79 830.317,-65.4304 426.325,-71.956 411,-72 333.666,-72.2222 298.741,-26.4303 237,-73 186.359,-111.197 260.431,-210 197,-210"/>
<polygon fill="black" stroke="black" points="904.356,-103.639 910.938,-109.44 908.178,-104.82 912,-106 912,-106 912,-106 908.178,-104.82 913.062,-102.56 904.356,-103.639 904.356,-103.639"/>
<ellipse fill="none" stroke="black" cx="901.299" cy="-102.695" rx="3.20001" ry="3.20001"/>
</g>
<!-- facilities -->
<g id="node3" class="node"><title>facilities</title>
<g id="a_node3"><a xlink:href="../../tables/facilities.html" xlink:title="facilities" target="_top">
<polygon fill="#ffffff" stroke="none" points="419,-220 419,-550 668,-550 668,-220 419,-220"/>
<polygon fill="#f5f5f5" stroke="none" points="421.5,-526 421.5,-548 666.5,-548 666.5,-526 421.5,-526"/>
<polygon fill="none" stroke="black" points="421.5,-526 421.5,-548 666.5,-548 666.5,-526 421.5,-526"/>
<text text-anchor="start" x="426.5" y="-535.2" font-family="Helvetica,sans-Serif" font-weight="bold" font-size="11.00">facilities</text>
<text text-anchor="start" x="627.5" y="-534.2" font-family="Helvetica,sans-Serif" font-size="11.00">[table]</text>
<polygon fill="none" stroke="black" points="421.5,-504 421.5,-526 564.5,-526 564.5,-504 421.5,-504"/>
<image xlink:href="../../images/primaryKeys.png" width="11px" height="12px" preserveAspectRatio="xMinYMin meet" x="426.5" y="-521"/>
<text text-anchor="start" x="441.5" y="-512.2" font-family="Helvetica,sans-Serif" font-size="11.00">id</text>
<polygon fill="none" stroke="black" points="564.5,-504 564.5,-526 666.5,-526 666.5,-504 564.5,-504"/>
<text text-anchor="start" x="567.5" y="-512.2" font-family="Helvetica,sans-Serif" font-size="11.00">int8[19]</text>
<polygon fill="none" stroke="black" points="421.5,-482 421.5,-504 564.5,-504 564.5,-482 421.5,-482"/>
<image xlink:href="../../images/foreignKeys.png" width="11px" height="12px" preserveAspectRatio="xMinYMin meet" x="426.5" y="-499"/>
<text text-anchor="start" x="441.5" y="-490.2" font-family="Helvetica,sans-Serif" font-size="11.00">site_id</text>
<polygon fill="none" stroke="black" points="564.5,-482 564.5,-504 666.5,-504 666.5,-482 564.5,-482"/>
<text text-anchor="start" x="567.5" y="-490.2" font-family="Helvetica,sans-Serif" font-size="11.00">int8[19]</text>
<polygon fill="none" stroke="black" points="421.5,-460 421.5,-482 564.5,-482 564.5,-460 421.5,-460"/>
<image xlink:href="../../images/foreignKeys.png" width="11px" height="12px" preserveAspectRatio="xMinYMin meet" x="426.5" y="-477"/>
<text text-anchor="start" x="441.5" y="-468.2" font-family="Helvetica,sans-Serif" font-size="11.00">type_id</text>
<polygon fill="none" stroke="black" points="564.5,-460 564.5,-482 666.5,-482 666.5,-460 564.5,-460"/>
<text text-anchor="start" x="567.5" y="-468.2" font-family="Helvetica,sans-Serif" font-size="11.00">int4[10]</text>
<polygon fill="none" stroke="black" points="421.5,-438 421.5,-460 564.5,-460 564.5,-438 421.5,-438"/>
<text text-anchor="start" x="441.5" y="-446.2" font-family="Helvetica,sans-Serif" font-size="11.00">name</text>
<polygon fill="none" stroke="black" points="564.5,-438 564.5,-460 666.5,-460 666.5,-438 564.5,-438"/>
<text text-anchor="start" x="567.5" y="-446.2" font-family="Helvetica,sans-Serif" font-size="11.00">text[2147483647]</text>
<polygon fill="none" stroke="black" points="421.5,-416 421.5,-438 564.5,-438 564.5,-416 421.5,-416"/>
<text text-anchor="start" x="441.5" y="-424.2" font-family="Helvetica,sans-Serif" font-size="11.00">created_time</text>
<polygon fill="none" stroke="black" points="564.5,-416 564.5,-438 666.5,-438 666.5,-416 564.5,-416"/>
<text text-anchor="start" x="567.5" y="-424.2" font-family="Helvetica,sans-Serif" font-size="11.00">timestamptz[35,6]</text>
<polygon fill="none" stroke="black" points="421.5,-394 421.5,-416 564.5,-416 564.5,-394 421.5,-394"/>
<text text-anchor="start" x="441.5" y="-402.2" font-family="Helvetica,sans-Serif" font-size="11.00">modified_time</text>
<polygon fill="none" stroke="black" points="564.5,-394 564.5,-416 666.5,-416 666.5,-394 564.5,-394"/>
<text text-anchor="start" x="567.5" y="-402.2" font-family="Helvetica,sans-Serif" font-size="11.00">timestamptz[35,6]</text>
<polygon fill="none" stroke="black" points="421.5,-372 421.5,-394 564.5,-394 564.5,-372 421.5,-372"/>
<image xlink:href="../../images/foreignKeys.png" width="11px" height="12px" preserveAspectRatio="xMinYMin meet" x="426.5" y="-389"/>
<text text-anchor="start" x="441.5" y="-380.2" font-family="Helvetica,sans-Serif" font-size="11.00">created_by</text>
<polygon fill="none" stroke="black" points="564.5,-372 564.5,-394 666.5,-394 666.5,-372 564.5,-372"/>
<text text-anchor="start" x="567.5" y="-380.2" font-family="Helvetica,sans-Serif" font-size="11.00">int8[19]</text>
<polygon fill="none" stroke="black" points="421.5,-350 421.5,-372 564.5,-372 564.5,-350 421.5,-350"/>
<image xlink:href="../../images/foreignKeys.png" width="11px" height="12px" preserveAspectRatio="xMinYMin meet" x="426.5" y="-367"/>
<text text-anchor="start" x="441.5" y="-358.2" font-family="Helvetica,sans-Serif" font-size="11.00">modified_by</text>
<polygon fill="none" stroke="black" points="564.5,-350 564.5,-372 666.5,-372 666.5,-350 564.5,-350"/>
<text text-anchor="start" x="567.5" y="-358.2" font-family="Helvetica,sans-Serif" font-size="11.00">int8[19]</text>
<polygon fill="none" stroke="black" points="421.5,-328 421.5,-350 564.5,-350 564.5,-328 421.5,-328"/>
<text text-anchor="start" x="441.5" y="-336.2" font-family="Helvetica,sans-Serif" font-size="11.00">max_idle_minutes</text>
<polygon fill="none" stroke="black" points="564.5,-328 564.5,-350 666.5,-350 666.5,-328 564.5,-328"/>
<text text-anchor="start" x="567.5" y="-336.2" font-family="Helvetica,sans-Serif" font-size="11.00">int4[10]</text>
<polygon fill="none" stroke="black" points="421.5,-306 421.5,-328 564.5,-328 564.5,-306 421.5,-306"/>
<text text-anchor="start" x="441.5" y="-314.2" font-family="Helvetica,sans-Serif" font-size="11.00">last_timeseries_time</text>
<polygon fill="none" stroke="black" points="564.5,-306 564.5,-328 666.5,-328 666.5,-306 564.5,-306"/>
<text text-anchor="start" x="567.5" y="-314.2" font-family="Helvetica,sans-Serif" font-size="11.00">timestamptz[35,6]</text>
<polygon fill="#ffffff" stroke="none" points="421.5,-284 421.5,-306 564.5,-306 564.5,-284 421.5,-284"/>
<polygon fill="none" stroke="black" points="421.5,-284 421.5,-306 564.5,-306 564.5,-284 421.5,-284"/>
<text text-anchor="start" x="441.5" y="-292.2" font-family="Helvetica,sans-Serif" font-size="11.00">idle_after_time</text>
<polygon fill="none" stroke="black" points="564.5,-284 564.5,-306 666.5,-306 666.5,-284 564.5,-284"/>
<text text-anchor="start" x="567.5" y="-292.2" font-family="Helvetica,sans-Serif" font-size="11.00">timestamptz[35,6]</text>
<polygon fill="none" stroke="black" points="421.5,-262 421.5,-284 564.5,-284 564.5,-262 421.5,-262"/>
<text text-anchor="start" x="441.5" y="-270.2" font-family="Helvetica,sans-Serif" font-size="11.00">idle_since_time</text>
<polygon fill="none" stroke="black" points="564.5,-262 564.5,-284 666.5,-284 666.5,-262 564.5,-262"/>
<text text-anchor="start" x="567.5" y="-270.2" font-family="Helvetica,sans-Serif" font-size="11.00">timestamptz[35,6]</text>
<polygon fill="none" stroke="black" points="421.5,-240 421.5,-262 564.5,-262 564.5,-240 421.5,-240"/>
<text text-anchor="start" x="441.5" y="-248.2" font-family="Helvetica,sans-Serif" font-size="11.00">description</text>
<polygon fill="none" stroke="black" points="564.5,-240 564.5,-262 666.5,-262 666.5,-240 564.5,-240"/>
<text text-anchor="start" x="567.5" y="-248.2" font-family="Helvetica,sans-Serif" font-size="11.00">text[2147483647]</text>
<polygon fill="#ffffff" stroke="none" points="421.5,-222 421.5,-240 483.5,-240 483.5,-222 421.5,-222"/>
<polygon fill="none" stroke="black" points="421.5,-222 421.5,-240 483.5,-240 483.5,-222 421.5,-222"/>
<text text-anchor="start" x="424.5" y="-228.2" font-family="Helvetica,sans-Serif" font-size="11.00">&lt; 4</text>
<polygon fill="#ffffff" stroke="none" points="483.5,-222 483.5,-240 564.5,-240 564.5,-222 483.5,-222"/>
<polygon fill="none" stroke="black" points="483.5,-222 483.5,-240 564.5,-240 564.5,-222 483.5,-222"/>
<text text-anchor="start" x="525.5" y="-228.2" font-family="Helvetica,sans-Serif" font-size="11.00">0 rows</text>
<polygon fill="#ffffff" stroke="none" points="564.5,-222 564.5,-240 666.5,-240 666.5,-222 564.5,-222"/>
<polygon fill="none" stroke="black" points="564.5,-222 564.5,-240 666.5,-240 666.5,-222 564.5,-222"/>
<text text-anchor="start" x="646.5" y="-228.2" font-family="Helvetica,sans-Serif" font-size="11.00">4 &gt;</text>
<polygon fill="none" stroke="black" stroke-width="2" points="420,-221 420,-549 667,-549 667,-221 420,-221"/>
</a>
</g>
</g>
<!-- accessions&#45;&gt;facilities -->
<g id="edge2" class="edge"><title>accessions:facility_id:w&#45;&gt;facilities:id.type:e</title>
<path fill="none" stroke="black" d="M897.866,-461.586C889.645,-466.528 885.318,-475.346 872,-480 828.476,-495.209 713.605,-515 667.5,-515"/>
<polygon fill="black" stroke="black" points="904.246,-459.968 912.885,-461.489 908.123,-458.984 912,-458 912,-458 912,-458 908.123,-458.984 911.115,-454.511 904.246,-459.968 904.246,-459.968"/>
<ellipse fill="none" stroke="black" cx="901.144" cy="-460.755" rx="3.2" ry="3.2"/>
</g>
<!-- storage_locations -->
<g id="node4" class="node"><title>storage_locations</title>
<g id="a_node4"><a xlink:href="../../tables/storage_locations.html" xlink:title="storage_locations" target="_top">
<polygon fill="#ffffff" stroke="none" points="717,-524 717,-692 864,-692 864,-524 717,-524"/>
<polygon fill="#f5f5f5" stroke="none" points="717.5,-670 717.5,-692 864.5,-692 864.5,-670 717.5,-670"/>
<polygon fill="none" stroke="black" points="717.5,-670 717.5,-692 864.5,-692 864.5,-670 717.5,-670"/>
<text text-anchor="start" x="722.5" y="-679.2" font-family="Helvetica,sans-Serif" font-weight="bold" font-size="11.00">storage_locations</text>
<text text-anchor="start" x="825.5" y="-678.2" font-family="Helvetica,sans-Serif" font-size="11.00">[table]</text>
<polygon fill="none" stroke="black" points="717.5,-648 717.5,-670 864.5,-670 864.5,-648 717.5,-648"/>
<image xlink:href="../../images/primaryKeys.png" width="11px" height="12px" preserveAspectRatio="xMinYMin meet" x="722.5" y="-665"/>
<text text-anchor="start" x="748.5" y="-656.2" font-family="Helvetica,sans-Serif" font-size="11.00">id</text>
<polygon fill="none" stroke="black" points="717.5,-626 717.5,-648 864.5,-648 864.5,-626 717.5,-626"/>
<image xlink:href="../../images/foreignKeys.png" width="11px" height="12px" preserveAspectRatio="xMinYMin meet" x="722.5" y="-643"/>
<text text-anchor="start" x="748.5" y="-634.2" font-family="Helvetica,sans-Serif" font-size="11.00">facility_id</text>
<polygon fill="none" stroke="black" points="717.5,-604 717.5,-626 864.5,-626 864.5,-604 717.5,-604"/>
<image xlink:href="../../images/foreignKeys.png" width="11px" height="12px" preserveAspectRatio="xMinYMin meet" x="722.5" y="-621"/>
<text text-anchor="start" x="748.5" y="-612.2" font-family="Helvetica,sans-Serif" font-size="11.00">condition_id</text>
<polygon fill="none" stroke="black" points="717.5,-582 717.5,-604 864.5,-604 864.5,-582 717.5,-582"/>
<image xlink:href="../../images/foreignKeys.png" width="11px" height="12px" preserveAspectRatio="xMinYMin meet" x="722.5" y="-599"/>
<text text-anchor="start" x="748.5" y="-590.2" font-family="Helvetica,sans-Serif" font-size="11.00">created_by</text>
<polygon fill="none" stroke="black" points="717.5,-560 717.5,-582 864.5,-582 864.5,-560 717.5,-560"/>
<image xlink:href="../../images/foreignKeys.png" width="11px" height="12px" preserveAspectRatio="xMinYMin meet" x="722.5" y="-577"/>
<text text-anchor="start" x="748.5" y="-568.2" font-family="Helvetica,sans-Serif" font-size="11.00">modified_by</text>
<polygon fill="none" stroke="black" points="717.5,-542 717.5,-560 864.5,-560 864.5,-542 717.5,-542"/>
<text text-anchor="start" x="720.5" y="-548.2" font-family="Helvetica,sans-Serif" font-size="11.00">...</text>
<polygon fill="#ffffff" stroke="none" points="717.5,-524 717.5,-542 769.5,-542 769.5,-524 717.5,-524"/>
<polygon fill="none" stroke="black" points="717.5,-524 717.5,-542 769.5,-542 769.5,-524 717.5,-524"/>
<text text-anchor="start" x="720.5" y="-530.2" font-family="Helvetica,sans-Serif" font-size="11.00">&lt; 4</text>
<polygon fill="#ffffff" stroke="none" points="769.5,-524 769.5,-542 826.5,-542 826.5,-524 769.5,-524"/>
<polygon fill="none" stroke="black" points="769.5,-524 769.5,-542 826.5,-542 826.5,-524 769.5,-524"/>
<text text-anchor="start" x="787.5" y="-530.2" font-family="Helvetica,sans-Serif" font-size="11.00">0 rows</text>
<polygon fill="#ffffff" stroke="none" points="826.5,-524 826.5,-542 864.5,-542 864.5,-524 826.5,-524"/>
<polygon fill="none" stroke="black" points="826.5,-524 826.5,-542 864.5,-542 864.5,-524 826.5,-524"/>
<text text-anchor="start" x="844.5" y="-530.2" font-family="Helvetica,sans-Serif" font-size="11.00">1 &gt;</text>
</a>
</g>
</g>
<!-- accessions&#45;&gt;storage_locations -->
<g id="edge4" class="edge"><title>accessions:storage_location_id:w&#45;&gt;storage_locations:id:e</title>
<path fill="none" stroke="black" d="M898.454,-353.398C855.697,-394.696 929.92,-659 865.5,-659"/>
<polygon fill="black" stroke="black" points="904.568,-350.961 913.333,-351.344 908.284,-349.481 912,-348 912,-348 912,-348 908.284,-349.481 910.667,-344.656 904.568,-350.961 904.568,-350.961"/>
<ellipse fill="none" stroke="black" cx="901.596" cy="-352.146" rx="3.20001" ry="3.20001"/>
</g>
<!-- facilities&#45;&gt;users -->
<g id="edge11" class="edge"><title>facilities:created_by:w&#45;&gt;users:id:e</title>
<path fill="none" stroke="black" d="M406.109,-380.304C376.167,-366.104 414.611,-299.419 378,-267 329.816,-224.332 296.645,-258.181 237,-234 217.787,-226.211 217.732,-210 197,-210"/>
<polygon fill="black" stroke="black" points="412.637,-381.527 419.837,-386.538 416.568,-382.263 420.5,-383 420.5,-383 420.5,-383 416.568,-382.263 421.163,-379.462 412.637,-381.527 412.637,-381.527"/>
<ellipse fill="none" stroke="black" cx="409.492" cy="-380.938" rx="3.2" ry="3.2"/>
</g>
<!-- facilities&#45;&gt;users -->
<g id="edge12" class="edge"><title>facilities:modified_by:w&#45;&gt;users:id:e</title>
<path fill="none" stroke="black" d="M406.005,-358.413C372.91,-343.583 418.905,-268.854 378,-235 346.72,-209.111 237.604,-210 197,-210"/>
<polygon fill="black" stroke="black" points="412.624,-359.594 419.867,-364.544 416.562,-360.297 420.5,-361 420.5,-361 420.5,-361 416.562,-360.297 421.133,-357.456 412.624,-359.594 412.624,-359.594"/>
<ellipse fill="none" stroke="black" cx="409.474" cy="-359.032" rx="3.2" ry="3.2"/>
</g>
<!-- sites -->
<g id="node7" class="node"><title>sites</title>
<g id="a_node7"><a xlink:href="../../tables/sites.html" xlink:title="sites" target="_top">
<polygon fill="#ffffff" stroke="none" points="254,-378 254,-524 361,-524 361,-378 254,-378"/>
<polygon fill="#f5f5f5" stroke="none" points="254.5,-502 254.5,-524 361.5,-524 361.5,-502 254.5,-502"/>
<polygon fill="none" stroke="black" points="254.5,-502 254.5,-524 361.5,-524 361.5,-502 254.5,-502"/>
<text text-anchor="start" x="259.5" y="-511.2" font-family="Helvetica,sans-Serif" font-weight="bold" font-size="11.00">sites</text>
<text text-anchor="start" x="322.5" y="-510.2" font-family="Helvetica,sans-Serif" font-size="11.00">[table]</text>
<polygon fill="none" stroke="black" points="254.5,-480 254.5,-502 361.5,-502 361.5,-480 254.5,-480"/>
<image xlink:href="../../images/primaryKeys.png" width="11px" height="12px" preserveAspectRatio="xMinYMin meet" x="259.5" y="-497"/>
<text text-anchor="start" x="274.5" y="-488.2" font-family="Helvetica,sans-Serif" font-size="11.00">id</text>
<polygon fill="none" stroke="black" points="254.5,-458 254.5,-480 361.5,-480 361.5,-458 254.5,-458"/>
<image xlink:href="../../images/foreignKeys.png" width="11px" height="12px" preserveAspectRatio="xMinYMin meet" x="259.5" y="-475"/>
<text text-anchor="start" x="274.5" y="-466.2" font-family="Helvetica,sans-Serif" font-size="11.00">project_id</text>
<polygon fill="none" stroke="black" points="254.5,-436 254.5,-458 361.5,-458 361.5,-436 254.5,-436"/>
<image xlink:href="../../images/foreignKeys.png" width="11px" height="12px" preserveAspectRatio="xMinYMin meet" x="259.5" y="-453"/>
<text text-anchor="start" x="274.5" y="-444.2" font-family="Helvetica,sans-Serif" font-size="11.00">created_by</text>
<polygon fill="none" stroke="black" points="254.5,-414 254.5,-436 361.5,-436 361.5,-414 254.5,-414"/>
<image xlink:href="../../images/foreignKeys.png" width="11px" height="12px" preserveAspectRatio="xMinYMin meet" x="259.5" y="-431"/>
<text text-anchor="start" x="274.5" y="-422.2" font-family="Helvetica,sans-Serif" font-size="11.00">modified_by</text>
<polygon fill="none" stroke="black" points="254.5,-396 254.5,-414 361.5,-414 361.5,-396 254.5,-396"/>
<text text-anchor="start" x="257.5" y="-402.2" font-family="Helvetica,sans-Serif" font-size="11.00">...</text>
<polygon fill="#ffffff" stroke="none" points="254.5,-378 254.5,-396 286.5,-396 286.5,-378 254.5,-378"/>
<polygon fill="none" stroke="black" points="254.5,-378 254.5,-396 286.5,-396 286.5,-378 254.5,-378"/>
<text text-anchor="start" x="257.5" y="-384.2" font-family="Helvetica,sans-Serif" font-size="11.00">&lt; 3</text>
<polygon fill="#ffffff" stroke="none" points="286.5,-378 286.5,-396 333.5,-396 333.5,-378 286.5,-378"/>
<polygon fill="none" stroke="black" points="286.5,-378 286.5,-396 333.5,-396 333.5,-378 286.5,-378"/>
<text text-anchor="start" x="294.5" y="-384.2" font-family="Helvetica,sans-Serif" font-size="11.00">0 rows</text>
<polygon fill="#ffffff" stroke="none" points="333.5,-378 333.5,-396 361.5,-396 361.5,-378 333.5,-378"/>
<polygon fill="none" stroke="black" points="333.5,-378 333.5,-396 361.5,-396 361.5,-378 333.5,-378"/>
<text text-anchor="start" x="341.5" y="-384.2" font-family="Helvetica,sans-Serif" font-size="11.00">2 &gt;</text>
</a>
</g>
</g>
<!-- facilities&#45;&gt;sites -->
<g id="edge13" class="edge"><title>facilities:site_id:w&#45;&gt;sites:id:e</title>
<path fill="none" stroke="black" d="M405.95,-492.755C390.974,-492.221 382.651,-491 362.5,-491"/>
<polygon fill="black" stroke="black" points="412.501,-492.865 420.439,-496.599 416.501,-492.933 420.5,-493 420.5,-493 420.5,-493 416.501,-492.933 420.561,-489.401 412.501,-492.865 412.501,-492.865"/>
<ellipse fill="none" stroke="black" cx="409.302" cy="-492.811" rx="3.2" ry="3.2"/>
</g>
<!-- facility_types -->
<g id="node8" class="node"><title>facility_types</title>
<g id="a_node8"><a xlink:href="../../tables/facility_types.html" xlink:title="facility_types" target="_top">
<polygon fill="#ffffff" stroke="none" points="245,-277 245,-357 370,-357 370,-277 245,-277"/>
<polygon fill="#f5f5f5" stroke="none" points="245.5,-335 245.5,-357 370.5,-357 370.5,-335 245.5,-335"/>
<polygon fill="none" stroke="black" points="245.5,-335 245.5,-357 370.5,-357 370.5,-335 245.5,-335"/>
<text text-anchor="start" x="250.5" y="-344.2" font-family="Helvetica,sans-Serif" font-weight="bold" font-size="11.00">facility_types</text>
<text text-anchor="start" x="331.5" y="-343.2" font-family="Helvetica,sans-Serif" font-size="11.00">[table]</text>
<polygon fill="none" stroke="black" points="245.5,-313 245.5,-335 370.5,-335 370.5,-313 245.5,-313"/>
<image xlink:href="../../images/primaryKeys.png" width="11px" height="12px" preserveAspectRatio="xMinYMin meet" x="250.5" y="-330"/>
<text text-anchor="start" x="278.5" y="-321.2" font-family="Helvetica,sans-Serif" font-size="11.00">id</text>
<polygon fill="none" stroke="black" points="245.5,-295 245.5,-313 370.5,-313 370.5,-295 245.5,-295"/>
<text text-anchor="start" x="248.5" y="-301.2" font-family="Helvetica,sans-Serif" font-size="11.00">...</text>
<polygon fill="#ffffff" stroke="none" points="245.5,-277 245.5,-295 281.5,-295 281.5,-277 245.5,-277"/>
<polygon fill="none" stroke="black" points="245.5,-277 245.5,-295 281.5,-295 281.5,-277 245.5,-277"/>
<text text-anchor="start" x="248.5" y="-283.2" font-family="Helvetica,sans-Serif" font-size="11.00"> &#160;</text>
<polygon fill="#ffffff" stroke="none" points="281.5,-277 281.5,-295 335.5,-295 335.5,-277 281.5,-277"/>
<polygon fill="none" stroke="black" points="281.5,-277 281.5,-295 335.5,-295 335.5,-277 281.5,-277"/>
<text text-anchor="start" x="296.5" y="-283.2" font-family="Helvetica,sans-Serif" font-size="11.00">3 rows</text>
<polygon fill="#ffffff" stroke="none" points="335.5,-277 335.5,-295 370.5,-295 370.5,-277 335.5,-277"/>
<polygon fill="none" stroke="black" points="335.5,-277 335.5,-295 370.5,-295 370.5,-277 335.5,-277"/>
<text text-anchor="start" x="350.5" y="-283.2" font-family="Helvetica,sans-Serif" font-size="11.00">1 &gt;</text>
</a>
</g>
</g>
<!-- facilities&#45;&gt;facility_types -->
<g id="edge14" class="edge"><title>facilities:type_id:w&#45;&gt;facility_types:id:e</title>
<path fill="none" stroke="black" d="M406.297,-468.064C365.426,-447.345 434.584,-324 371.5,-324"/>
<polygon fill="black" stroke="black" points="412.666,-469.38 419.771,-474.525 416.583,-470.19 420.5,-471 420.5,-471 420.5,-471 416.583,-470.19 421.229,-467.475 412.666,-469.38 412.666,-469.38"/>
<ellipse fill="none" stroke="black" cx="409.532" cy="-468.732" rx="3.2" ry="3.2"/>
</g>
<!-- storage_locations&#45;&gt;users -->
<g id="edge17" class="edge"><title>storage_locations:created_by:w&#45;&gt;users:id:e</title>
<path fill="none" stroke="black" d="M701.988,-593.208C498.316,-599.048 390.579,-724.657 237,-584 175.36,-527.547 280.585,-210 197,-210"/>
<polygon fill="black" stroke="black" points="708.501,-593.115 716.552,-596.6 712.5,-593.057 716.5,-593 716.5,-593 716.5,-593 712.5,-593.057 716.448,-589.4 708.501,-593.115 708.501,-593.115"/>
<ellipse fill="none" stroke="black" cx="705.301" cy="-593.161" rx="3.2" ry="3.2"/>
</g>
<!-- storage_locations&#45;&gt;users -->
<g id="edge19" class="edge"><title>storage_locations:modified_by:w&#45;&gt;users:id:e</title>
<path fill="none" stroke="black" d="M702.058,-571.203C585.005,-574.197 308.443,-608.315 237,-535 186.216,-482.885 269.767,-210 197,-210"/>
<polygon fill="black" stroke="black" points="708.501,-571.112 716.551,-574.6 712.5,-571.056 716.5,-571 716.5,-571 716.5,-571 712.5,-571.056 716.449,-567.4 708.501,-571.112 708.501,-571.112"/>
<ellipse fill="none" stroke="black" cx="705.301" cy="-571.157" rx="3.2" ry="3.2"/>
</g>
<!-- storage_locations&#45;&gt;facilities -->
<g id="edge18" class="edge"><title>storage_locations:facility_id:w&#45;&gt;facilities:id.type:e</title>
<path fill="none" stroke="black" d="M702.34,-633.48C670.55,-613.477 719.998,-515 667.5,-515"/>
<polygon fill="black" stroke="black" points="708.736,-635.07 715.632,-640.494 712.618,-636.035 716.5,-637 716.5,-637 716.5,-637 712.618,-636.035 717.368,-633.506 708.736,-635.07 708.736,-635.07"/>
<ellipse fill="none" stroke="black" cx="705.631" cy="-634.298" rx="3.2" ry="3.2"/>
</g>
<!-- automations -->
<g id="node5" class="node"><title>automations</title>
<g id="a_node5"><a xlink:href="../../tables/automations.html" xlink:title="automations" target="_top">
<polygon fill="#ffffff" stroke="none" points="730,-301 730,-469 851,-469 851,-301 730,-301"/>
<polygon fill="#f5f5f5" stroke="none" points="730.5,-447 730.5,-469 851.5,-469 851.5,-447 730.5,-447"/>
<polygon fill="none" stroke="black" points="730.5,-447 730.5,-469 851.5,-469 851.5,-447 730.5,-447"/>
<text text-anchor="start" x="735.5" y="-456.2" font-family="Helvetica,sans-Serif" font-weight="bold" font-size="11.00">automations</text>
<text text-anchor="start" x="812.5" y="-455.2" font-family="Helvetica,sans-Serif" font-size="11.00">[table]</text>
<polygon fill="none" stroke="black" points="730.5,-425 730.5,-447 851.5,-447 851.5,-425 730.5,-425"/>
<image xlink:href="../../images/primaryKeys.png" width="11px" height="12px" preserveAspectRatio="xMinYMin meet" x="735.5" y="-442"/>
<text text-anchor="start" x="757.5" y="-433.2" font-family="Helvetica,sans-Serif" font-size="11.00">id</text>
<polygon fill="#ffffff" stroke="none" points="730.5,-403 730.5,-425 851.5,-425 851.5,-403 730.5,-403"/>
<polygon fill="none" stroke="black" points="730.5,-403 730.5,-425 851.5,-425 851.5,-403 730.5,-403"/>
<image xlink:href="../../images/foreignKeys.png" width="11px" height="12px" preserveAspectRatio="xMinYMin meet" x="735.5" y="-420"/>
<text text-anchor="start" x="757.5" y="-411.2" font-family="Helvetica,sans-Serif" font-size="11.00">facility_id</text>
<polygon fill="#ffffff" stroke="none" points="730.5,-381 730.5,-403 851.5,-403 851.5,-381 730.5,-381"/>
<polygon fill="none" stroke="black" points="730.5,-381 730.5,-403 851.5,-403 851.5,-381 730.5,-381"/>
<text text-anchor="start" x="757.5" y="-389.2" font-family="Helvetica,sans-Serif" font-size="11.00">name</text>
<polygon fill="none" stroke="black" points="730.5,-359 730.5,-381 851.5,-381 851.5,-359 730.5,-359"/>
<image xlink:href="../../images/foreignKeys.png" width="11px" height="12px" preserveAspectRatio="xMinYMin meet" x="735.5" y="-376"/>
<text text-anchor="start" x="757.5" y="-367.2" font-family="Helvetica,sans-Serif" font-size="11.00">created_by</text>
<polygon fill="none" stroke="black" points="730.5,-337 730.5,-359 851.5,-359 851.5,-337 730.5,-337"/>
<image xlink:href="../../images/foreignKeys.png" width="11px" height="12px" preserveAspectRatio="xMinYMin meet" x="735.5" y="-354"/>
<text text-anchor="start" x="757.5" y="-345.2" font-family="Helvetica,sans-Serif" font-size="11.00">modified_by</text>
<polygon fill="none" stroke="black" points="730.5,-319 730.5,-337 851.5,-337 851.5,-319 730.5,-319"/>
<text text-anchor="start" x="733.5" y="-325.2" font-family="Helvetica,sans-Serif" font-size="11.00">...</text>
<polygon fill="#ffffff" stroke="none" points="730.5,-301 730.5,-319 774.5,-319 774.5,-301 730.5,-301"/>
<polygon fill="none" stroke="black" points="730.5,-301 730.5,-319 774.5,-319 774.5,-301 730.5,-301"/>
<text text-anchor="start" x="733.5" y="-307.2" font-family="Helvetica,sans-Serif" font-size="11.00">&lt; 3</text>
<polygon fill="#ffffff" stroke="none" points="774.5,-301 774.5,-319 827.5,-319 827.5,-301 774.5,-301"/>
<polygon fill="none" stroke="black" points="774.5,-301 774.5,-319 827.5,-319 827.5,-301 774.5,-301"/>
<text text-anchor="start" x="788.5" y="-307.2" font-family="Helvetica,sans-Serif" font-size="11.00">0 rows</text>
<polygon fill="#ffffff" stroke="none" points="827.5,-301 827.5,-319 851.5,-319 851.5,-301 827.5,-301"/>
<polygon fill="none" stroke="black" points="827.5,-301 827.5,-319 851.5,-319 851.5,-301 827.5,-301"/>
<text text-anchor="start" x="841.5" y="-307.2" font-family="Helvetica,sans-Serif" font-size="11.00"> &#160;</text>
</a>
</g>
</g>
<!-- automations&#45;&gt;users -->
<g id="edge5" class="edge"><title>automations:created_by:w&#45;&gt;users:id:e</title>
<path fill="none" stroke="black" d="M714.969,-368.064C666.21,-352.748 732.077,-250.665 676,-210 597.023,-152.729 334.526,-205.563 237,-208 219.206,-208.445 214.8,-210 197,-210"/>
<polygon fill="black" stroke="black" points="721.57,-368.944 729.025,-373.568 725.535,-369.472 729.5,-370 729.5,-370 729.5,-370 725.535,-369.472 729.975,-366.432 721.57,-368.944 721.57,-368.944"/>
<ellipse fill="none" stroke="black" cx="718.398" cy="-368.521" rx="3.2" ry="3.2"/>
</g>
<!-- automations&#45;&gt;users -->
<g id="edge7" class="edge"><title>automations:modified_by:w&#45;&gt;users:id:e</title>
<path fill="none" stroke="black" d="M715.069,-346.185C663.359,-330.963 734.065,-224.088 676,-181 636.817,-151.923 284.36,-180.26 237,-192 218.078,-196.691 216.495,-210 197,-210"/>
<polygon fill="black" stroke="black" points="721.563,-347.001 729.051,-351.572 725.531,-347.501 729.5,-348 729.5,-348 729.5,-348 725.531,-347.501 729.949,-344.428 721.563,-347.001 721.563,-347.001"/>
<ellipse fill="none" stroke="black" cx="718.388" cy="-346.602" rx="3.2" ry="3.2"/>
</g>
<!-- automations&#45;&gt;facilities -->
<g id="edge6" class="edge"><title>automations:facility_id:w&#45;&gt;facilities:id.type:e</title>
<path fill="none" stroke="black" d="M715.412,-417.36C685.161,-434.885 714.411,-515 667.5,-515"/>
<polygon fill="black" stroke="black" points="721.718,-415.856 730.335,-417.502 725.609,-414.928 729.5,-414 729.5,-414 729.5,-414 725.609,-414.928 728.665,-410.498 721.718,-415.856 721.718,-415.856"/>
<ellipse fill="none" stroke="black" cx="718.606" cy="-416.599" rx="3.2" ry="3.2"/>
</g>
<!-- devices -->
<g id="node6" class="node"><title>devices</title>
<g id="a_node6"><a xlink:href="../../tables/devices.html" xlink:title="devices" target="_top">
<polygon fill="#ffffff" stroke="none" points="734,-112 734,-280 847,-280 847,-112 734,-112"/>
<polygon fill="#f5f5f5" stroke="none" points="734.5,-258 734.5,-280 847.5,-280 847.5,-258 734.5,-258"/>
<polygon fill="none" stroke="black" points="734.5,-258 734.5,-280 847.5,-280 847.5,-258 734.5,-258"/>
<text text-anchor="start" x="739.5" y="-267.2" font-family="Helvetica,sans-Serif" font-weight="bold" font-size="11.00">devices</text>
<text text-anchor="start" x="808.5" y="-266.2" font-family="Helvetica,sans-Serif" font-size="11.00">[table]</text>
<polygon fill="none" stroke="black" points="734.5,-236 734.5,-258 847.5,-258 847.5,-236 734.5,-236"/>
<image xlink:href="../../images/primaryKeys.png" width="11px" height="12px" preserveAspectRatio="xMinYMin meet" x="739.5" y="-253"/>
<text text-anchor="start" x="754.5" y="-244.2" font-family="Helvetica,sans-Serif" font-size="11.00">id</text>
<polygon fill="none" stroke="black" points="734.5,-214 734.5,-236 847.5,-236 847.5,-214 734.5,-214"/>
<image xlink:href="../../images/foreignKeys.png" width="11px" height="12px" preserveAspectRatio="xMinYMin meet" x="739.5" y="-231"/>
<text text-anchor="start" x="754.5" y="-222.2" font-family="Helvetica,sans-Serif" font-size="11.00">facility_id</text>
<polygon fill="none" stroke="black" points="734.5,-192 734.5,-214 847.5,-214 847.5,-192 734.5,-192"/>
<image xlink:href="../../images/foreignKeys.png" width="11px" height="12px" preserveAspectRatio="xMinYMin meet" x="739.5" y="-209"/>
<text text-anchor="start" x="754.5" y="-200.2" font-family="Helvetica,sans-Serif" font-size="11.00">parent_id</text>
<polygon fill="none" stroke="black" points="734.5,-170 734.5,-192 847.5,-192 847.5,-170 734.5,-170"/>
<image xlink:href="../../images/foreignKeys.png" width="11px" height="12px" preserveAspectRatio="xMinYMin meet" x="739.5" y="-187"/>
<text text-anchor="start" x="754.5" y="-178.2" font-family="Helvetica,sans-Serif" font-size="11.00">created_by</text>
<polygon fill="none" stroke="black" points="734.5,-148 734.5,-170 847.5,-170 847.5,-148 734.5,-148"/>
<image xlink:href="../../images/foreignKeys.png" width="11px" height="12px" preserveAspectRatio="xMinYMin meet" x="739.5" y="-165"/>
<text text-anchor="start" x="754.5" y="-156.2" font-family="Helvetica,sans-Serif" font-size="11.00">modified_by</text>
<polygon fill="none" stroke="black" points="734.5,-130 734.5,-148 847.5,-148 847.5,-130 734.5,-130"/>
<text text-anchor="start" x="737.5" y="-136.2" font-family="Helvetica,sans-Serif" font-size="11.00">...</text>
<polygon fill="#ffffff" stroke="none" points="734.5,-112 734.5,-130 769.5,-130 769.5,-112 734.5,-112"/>
<polygon fill="none" stroke="black" points="734.5,-112 734.5,-130 769.5,-130 769.5,-112 734.5,-112"/>
<text text-anchor="start" x="737.5" y="-118.2" font-family="Helvetica,sans-Serif" font-size="11.00">&lt; 4</text>
<polygon fill="#ffffff" stroke="none" points="769.5,-112 769.5,-130 817.5,-130 817.5,-112 769.5,-112"/>
<polygon fill="none" stroke="black" points="769.5,-112 769.5,-130 817.5,-130 817.5,-112 769.5,-112"/>
<text text-anchor="start" x="778.5" y="-118.2" font-family="Helvetica,sans-Serif" font-size="11.00">0 rows</text>
<polygon fill="#ffffff" stroke="none" points="817.5,-112 817.5,-130 847.5,-130 847.5,-112 817.5,-112"/>
<polygon fill="none" stroke="black" points="817.5,-112 817.5,-130 847.5,-130 847.5,-112 817.5,-112"/>
<text text-anchor="start" x="827.5" y="-118.2" font-family="Helvetica,sans-Serif" font-size="11.00">2 &gt;</text>
</a>
</g>
</g>
<!-- devices&#45;&gt;users -->
<g id="edge8" class="edge"><title>devices:created_by:w&#45;&gt;users:id:e</title>
<path fill="none" stroke="black" d="M718.957,-179C703.721,-174.353 697.231,-162.923 676,-159 580.068,-141.274 324.722,-116.317 237,-159 211.097,-171.604 225.807,-210 197,-210"/>
<polygon fill="black" stroke="black" points="725.575,-179.91 733.009,-184.566 729.537,-180.455 733.5,-181 733.5,-181 733.5,-181 729.537,-180.455 733.991,-177.434 725.575,-179.91 725.575,-179.91"/>
<ellipse fill="none" stroke="black" cx="722.404" cy="-179.474" rx="3.2" ry="3.2"/>
</g>
<!-- devices&#45;&gt;users -->
<g id="edge10" class="edge"><title>devices:modified_by:w&#45;&gt;users:id:e</title>
<path fill="none" stroke="black" d="M719.198,-156.801C703.579,-151.424 697.848,-137.71 676,-133 580.635,-112.441 320.38,-82.3551 237,-133 204.039,-153.02 235.564,-210 197,-210"/>
<polygon fill="black" stroke="black" points="725.593,-157.784 732.953,-162.558 729.546,-158.392 733.5,-159 733.5,-159 733.5,-159 729.546,-158.392 734.047,-155.442 725.593,-157.784 725.593,-157.784"/>
<ellipse fill="none" stroke="black" cx="722.43" cy="-157.298" rx="3.2" ry="3.2"/>
</g>
<!-- devices&#45;&gt;facilities -->
<g id="edge9" class="edge"><title>devices:facility_id:w&#45;&gt;facilities:id.type:e</title>
<path fill="none" stroke="black" d="M720.031,-230.281C677.159,-269.586 728.3,-515 667.5,-515"/>
<polygon fill="black" stroke="black" points="726.052,-227.92 734.814,-228.352 729.776,-226.46 733.5,-225 733.5,-225 733.5,-225 729.776,-226.46 732.186,-221.648 726.052,-227.92 726.052,-227.92"/>
<ellipse fill="none" stroke="black" cx="723.073" cy="-229.088" rx="3.20001" ry="3.20001"/>
</g>
<!-- sites&#45;&gt;users -->
<g id="edge15" class="edge"><title>sites:created_by:w&#45;&gt;users:id:e</title>
<path fill="none" stroke="black" d="M239.009,-445.229C160.78,-423.541 299.786,-210 197,-210"/>
<polygon fill="black" stroke="black" points="245.559,-446.029 253.063,-450.573 249.53,-446.515 253.5,-447 253.5,-447 253.5,-447 249.53,-446.515 253.937,-443.427 245.559,-446.029 245.559,-446.029"/>
<ellipse fill="none" stroke="black" cx="242.383" cy="-445.641" rx="3.2" ry="3.2"/>
</g>
<!-- sites&#45;&gt;users -->
<g id="edge16" class="edge"><title>sites:modified_by:w&#45;&gt;users:id:e</title>
<path fill="none" stroke="black" d="M238.933,-423.009C169.914,-401.334 290.204,-210 197,-210"/>
<polygon fill="black" stroke="black" points="245.574,-423.916 253.012,-428.567 249.537,-424.458 253.5,-425 253.5,-425 253.5,-425 249.537,-424.458 253.988,-421.433 245.574,-423.916 245.574,-423.916"/>
<ellipse fill="none" stroke="black" cx="242.403" cy="-423.483" rx="3.2" ry="3.2"/>
</g>
</g>
</svg>
