<?xml version="1.0" encoding="UTF-8" standalone="no"?>
<!DOCTYPE svg PUBLIC "-//W3C//DTD SVG 1.1//EN"
 "http://www.w3.org/Graphics/SVG/1.1/DTD/svg11.dtd">
<!-- Generated by graphviz version 2.38.0 (20140413.2041)
 -->
<!-- Title: oneDegreeRelationshipsDiagram Pages: 1 -->
<svg width="509pt" height="593pt"
 viewBox="0.00 0.00 509.00 593.00" xmlns="http://www.w3.org/2000/svg" xmlns:xlink="http://www.w3.org/1999/xlink">
<g id="graph0" class="graph" transform="scale(1 1) rotate(0) translate(4 589)">
<title>oneDegreeRelationshipsDiagram</title>
<polygon fill="#ffffff" stroke="none" points="-4,4 -4,-589 505,-589 505,4 -4,4"/>
<text text-anchor="middle" x="74.5" y="-7.2" font-family="Helvetica,sans-Serif" font-size="11.00">Generated by SchemaSpy</text>
<!-- geolocations -->
<g id="node1" class="node"><title>geolocations</title>
<g id="a_node1"><a xlink:href="../../tables/geolocations.html" xlink:title="geolocations" target="_top">
<polygon fill="#ffffff" stroke="none" points="288,-405 288,-581 493,-581 493,-405 288,-405"/>
<polygon fill="#f5f5f5" stroke="none" points="290.5,-557 290.5,-579 491.5,-579 491.5,-557 290.5,-557"/>
<polygon fill="none" stroke="black" points="290.5,-557 290.5,-579 491.5,-579 491.5,-557 290.5,-557"/>
<text text-anchor="start" x="295.5" y="-566.2" font-family="Helvetica,sans-Serif" font-weight="bold" font-size="11.00">geolocations</text>
<text text-anchor="start" x="452.5" y="-565.2" font-family="Helvetica,sans-Serif" font-size="11.00">[table]</text>
<polygon fill="none" stroke="black" points="290.5,-535 290.5,-557 389.5,-557 389.5,-535 290.5,-535"/>
<image xlink:href="../../images/primaryKeys.png" width="11px" height="12px" preserveAspectRatio="xMinYMin meet" x="295.5" y="-552"/>
<text text-anchor="start" x="310.5" y="-543.2" font-family="Helvetica,sans-Serif" font-size="11.00">id</text>
<polygon fill="none" stroke="black" points="389.5,-535 389.5,-557 491.5,-557 491.5,-535 389.5,-535"/>
<text text-anchor="start" x="392.5" y="-543.2" font-family="Helvetica,sans-Serif" font-size="11.00">int8[19]</text>
<polygon fill="#ffffff" stroke="none" points="290.5,-513 290.5,-535 389.5,-535 389.5,-513 290.5,-513"/>
<polygon fill="none" stroke="black" points="290.5,-513 290.5,-535 389.5,-535 389.5,-513 290.5,-513"/>
<image xlink:href="../../images/foreignKeys.png" width="11px" height="12px" preserveAspectRatio="xMinYMin meet" x="295.5" y="-530"/>
<text text-anchor="start" x="310.5" y="-521.2" font-family="Helvetica,sans-Serif" font-size="11.00">accession_id</text>
<polygon fill="none" stroke="black" points="389.5,-513 389.5,-535 491.5,-535 491.5,-513 389.5,-513"/>
<text text-anchor="start" x="392.5" y="-521.2" font-family="Helvetica,sans-Serif" font-size="11.00">int8[19]</text>
<polygon fill="none" stroke="black" points="290.5,-491 290.5,-513 389.5,-513 389.5,-491 290.5,-491"/>
<text text-anchor="start" x="310.5" y="-499.2" font-family="Helvetica,sans-Serif" font-size="11.00">created_time</text>
<polygon fill="none" stroke="black" points="389.5,-491 389.5,-513 491.5,-513 491.5,-491 389.5,-491"/>
<text text-anchor="start" x="392.5" y="-499.2" font-family="Helvetica,sans-Serif" font-size="11.00">timestamptz[35,6]</text>
<polygon fill="none" stroke="black" points="290.5,-469 290.5,-491 389.5,-491 389.5,-469 290.5,-469"/>
<text text-anchor="start" x="310.5" y="-477.2" font-family="Helvetica,sans-Serif" font-size="11.00">latitude</text>
<polygon fill="none" stroke="black" points="389.5,-469 389.5,-491 491.5,-491 491.5,-469 389.5,-469"/>
<text text-anchor="start" x="392.5" y="-477.2" font-family="Helvetica,sans-Serif" font-size="11.00">numeric[10,7]</text>
<polygon fill="none" stroke="black" points="290.5,-447 290.5,-469 389.5,-469 389.5,-447 290.5,-447"/>
<text text-anchor="start" x="310.5" y="-455.2" font-family="Helvetica,sans-Serif" font-size="11.00">longitude</text>
<polygon fill="none" stroke="black" points="389.5,-447 389.5,-469 491.5,-469 491.5,-447 389.5,-447"/>
<text text-anchor="start" x="392.5" y="-455.2" font-family="Helvetica,sans-Serif" font-size="11.00">numeric[10,7]</text>
<polygon fill="none" stroke="black" points="290.5,-425 290.5,-447 389.5,-447 389.5,-425 290.5,-425"/>
<text text-anchor="start" x="310.5" y="-433.2" font-family="Helvetica,sans-Serif" font-size="11.00">gps_accuracy</text>
<polygon fill="none" stroke="black" points="389.5,-425 389.5,-447 491.5,-447 491.5,-425 389.5,-425"/>
<text text-anchor="start" x="392.5" y="-433.2" font-family="Helvetica,sans-Serif" font-size="11.00">float8[17,17]</text>
<polygon fill="#ffffff" stroke="none" points="290.5,-407 290.5,-425 330.5,-425 330.5,-407 290.5,-407"/>
<polygon fill="none" stroke="black" points="290.5,-407 290.5,-425 330.5,-425 330.5,-407 290.5,-407"/>
<text text-anchor="start" x="293.5" y="-413.2" font-family="Helvetica,sans-Serif" font-size="11.00">&lt; 1</text>
<polygon fill="#ffffff" stroke="none" points="330.5,-407 330.5,-425 389.5,-425 389.5,-407 330.5,-407"/>
<polygon fill="none" stroke="black" points="330.5,-407 330.5,-425 389.5,-425 389.5,-407 330.5,-407"/>
<text text-anchor="start" x="350.5" y="-413.2" font-family="Helvetica,sans-Serif" font-size="11.00">0 rows</text>
<polygon fill="#ffffff" stroke="none" points="389.5,-407 389.5,-425 491.5,-425 491.5,-407 389.5,-407"/>
<polygon fill="none" stroke="black" points="389.5,-407 389.5,-425 491.5,-425 491.5,-407 389.5,-407"/>
<text text-anchor="start" x="471.5" y="-413.2" font-family="Helvetica,sans-Serif" font-size="11.00">0 &gt;</text>
<polygon fill="none" stroke="black" stroke-width="2" points="289,-406 289,-580 492,-580 492,-406 289,-406"/>
</a>
</g>
</g>
<!-- accessions -->
<g id="node2" class="node"><title>accessions</title>
<g id="a_node2"><a xlink:href="../../tables/accessions.html" xlink:title="accessions" target="_top">
<polygon fill="#ffffff" stroke="none" points="8,-37 8,-557 239,-557 239,-37 8,-37"/>
<polygon fill="#f5f5f5" stroke="none" points="8.5,-535 8.5,-557 239.5,-557 239.5,-535 8.5,-535"/>
<polygon fill="none" stroke="black" points="8.5,-535 8.5,-557 239.5,-557 239.5,-535 8.5,-535"/>
<text text-anchor="start" x="13.5" y="-544.2" font-family="Helvetica,sans-Serif" font-weight="bold" font-size="11.00">accessions</text>
<text text-anchor="start" x="200.5" y="-543.2" font-family="Helvetica,sans-Serif" font-size="11.00">[table]</text>
<polygon fill="none" stroke="black" points="8.5,-513 8.5,-535 239.5,-535 239.5,-513 8.5,-513"/>
<image xlink:href="../../images/primaryKeys.png" width="11px" height="12px" preserveAspectRatio="xMinYMin meet" x="13.5" y="-530"/>
<text text-anchor="start" x="28.5" y="-521.2" font-family="Helvetica,sans-Serif" font-size="11.00">id</text>
<polygon fill="#ffffff" stroke="none" points="8.5,-491 8.5,-513 239.5,-513 239.5,-491 8.5,-491"/>
<polygon fill="none" stroke="black" points="8.5,-491 8.5,-513 239.5,-513 239.5,-491 8.5,-491"/>
<image xlink:href="../../images/foreignKeys.png" width="11px" height="12px" preserveAspectRatio="xMinYMin meet" x="13.5" y="-508"/>
<text text-anchor="start" x="28.5" y="-499.2" font-family="Helvetica,sans-Serif" font-size="11.00">facility_id</text>
<polygon fill="none" stroke="black" points="8.5,-469 8.5,-491 239.5,-491 239.5,-469 8.5,-469"/>
<image xlink:href="../../images/foreignKeys.png" width="11px" height="12px" preserveAspectRatio="xMinYMin meet" x="13.5" y="-486"/>
<text text-anchor="start" x="28.5" y="-477.2" font-family="Helvetica,sans-Serif" font-size="11.00">app_device_id</text>
<polygon fill="#ffffff" stroke="none" points="8.5,-447 8.5,-469 239.5,-469 239.5,-447 8.5,-447"/>
<polygon fill="none" stroke="black" points="8.5,-447 8.5,-469 239.5,-469 239.5,-447 8.5,-447"/>
<text text-anchor="start" x="28.5" y="-455.2" font-family="Helvetica,sans-Serif" font-size="11.00">number</text>
<polygon fill="#ffffff" stroke="none" points="8.5,-425 8.5,-447 239.5,-447 239.5,-425 8.5,-425"/>
<polygon fill="none" stroke="black" points="8.5,-425 8.5,-447 239.5,-447 239.5,-425 8.5,-425"/>
<text text-anchor="start" x="28.5" y="-433.2" font-family="Helvetica,sans-Serif" font-size="11.00">received_date</text>
<polygon fill="none" stroke="black" points="8.5,-403 8.5,-425 239.5,-425 239.5,-403 8.5,-403"/>
<image xlink:href="../../images/foreignKeys.png" width="11px" height="12px" preserveAspectRatio="xMinYMin meet" x="13.5" y="-420"/>
<text text-anchor="start" x="28.5" y="-411.2" font-family="Helvetica,sans-Serif" font-size="11.00">state_id</text>
<polygon fill="none" stroke="black" points="8.5,-381 8.5,-403 239.5,-403 239.5,-381 8.5,-381"/>
<image xlink:href="../../images/foreignKeys.png" width="11px" height="12px" preserveAspectRatio="xMinYMin meet" x="13.5" y="-398"/>
<text text-anchor="start" x="28.5" y="-389.2" font-family="Helvetica,sans-Serif" font-size="11.00">storage_location_id</text>
<polygon fill="#ffffff" stroke="none" points="8.5,-359 8.5,-381 239.5,-381 239.5,-359 8.5,-359"/>
<polygon fill="none" stroke="black" points="8.5,-359 8.5,-381 239.5,-381 239.5,-359 8.5,-359"/>
<text text-anchor="start" x="28.5" y="-367.2" font-family="Helvetica,sans-Serif" font-size="11.00">created_time</text>
<polygon fill="none" stroke="black" points="8.5,-337 8.5,-359 239.5,-359 239.5,-337 8.5,-337"/>
<image xlink:href="../../images/foreignKeys.png" width="11px" height="12px" preserveAspectRatio="xMinYMin meet" x="13.5" y="-354"/>
<text text-anchor="start" x="28.5" y="-345.2" font-family="Helvetica,sans-Serif" font-size="11.00">processing_method_id</text>
<polygon fill="none" stroke="black" points="8.5,-315 8.5,-337 239.5,-337 239.5,-315 8.5,-315"/>
<image xlink:href="../../images/foreignKeys.png" width="11px" height="12px" preserveAspectRatio="xMinYMin meet" x="13.5" y="-332"/>
<text text-anchor="start" x="28.5" y="-323.2" font-family="Helvetica,sans-Serif" font-size="11.00">target_storage_condition</text>
<polygon fill="none" stroke="black" points="8.5,-293 8.5,-315 239.5,-315 239.5,-293 8.5,-293"/>
<image xlink:href="../../images/foreignKeys.png" width="11px" height="12px" preserveAspectRatio="xMinYMin meet" x="13.5" y="-310"/>
<text text-anchor="start" x="28.5" y="-301.2" font-family="Helvetica,sans-Serif" font-size="11.00">species_endangered_type_id</text>
<polygon fill="none" stroke="black" points="8.5,-271 8.5,-293 239.5,-293 239.5,-271 8.5,-271"/>
<image xlink:href="../../images/foreignKeys.png" width="11px" height="12px" preserveAspectRatio="xMinYMin meet" x="13.5" y="-288"/>
<text text-anchor="start" x="28.5" y="-279.2" font-family="Helvetica,sans-Serif" font-size="11.00">rare_type_id</text>
<polygon fill="none" stroke="black" points="8.5,-249 8.5,-271 239.5,-271 239.5,-249 8.5,-249"/>
<image xlink:href="../../images/foreignKeys.png" width="11px" height="12px" preserveAspectRatio="xMinYMin meet" x="13.5" y="-266"/>
<text text-anchor="start" x="28.5" y="-257.2" font-family="Helvetica,sans-Serif" font-size="11.00">source_plant_origin_id</text>
<polygon fill="none" stroke="black" points="8.5,-227 8.5,-249 239.5,-249 239.5,-227 8.5,-227"/>
<image xlink:href="../../images/foreignKeys.png" width="11px" height="12px" preserveAspectRatio="xMinYMin meet" x="13.5" y="-244"/>
<text text-anchor="start" x="28.5" y="-235.2" font-family="Helvetica,sans-Serif" font-size="11.00">remaining_units_id</text>
<polygon fill="none" stroke="black" points="8.5,-205 8.5,-227 239.5,-227 239.5,-205 8.5,-205"/>
<image xlink:href="../../images/foreignKeys.png" width="11px" height="12px" preserveAspectRatio="xMinYMin meet" x="13.5" y="-222"/>
<text text-anchor="start" x="28.5" y="-213.2" font-family="Helvetica,sans-Serif" font-size="11.00">subset_weight_units_id</text>
<polygon fill="none" stroke="black" points="8.5,-183 8.5,-205 239.5,-205 239.5,-183 8.5,-183"/>
<image xlink:href="../../images/foreignKeys.png" width="11px" height="12px" preserveAspectRatio="xMinYMin meet" x="13.5" y="-200"/>
<text text-anchor="start" x="28.5" y="-191.2" font-family="Helvetica,sans-Serif" font-size="11.00">total_units_id</text>
<polygon fill="none" stroke="black" points="8.5,-161 8.5,-183 239.5,-183 239.5,-161 8.5,-161"/>
<image xlink:href="../../images/foreignKeys.png" width="11px" height="12px" preserveAspectRatio="xMinYMin meet" x="13.5" y="-178"/>
<text text-anchor="start" x="28.5" y="-169.2" font-family="Helvetica,sans-Serif" font-size="11.00">created_by</text>
<polygon fill="none" stroke="black" points="8.5,-139 8.5,-161 239.5,-161 239.5,-139 8.5,-139"/>
<image xlink:href="../../images/foreignKeys.png" width="11px" height="12px" preserveAspectRatio="xMinYMin meet" x="13.5" y="-156"/>
<text text-anchor="start" x="28.5" y="-147.2" font-family="Helvetica,sans-Serif" font-size="11.00">modified_by</text>
<polygon fill="none" stroke="black" points="8.5,-117 8.5,-139 239.5,-139 239.5,-117 8.5,-117"/>
<image xlink:href="../../images/foreignKeys.png" width="11px" height="12px" preserveAspectRatio="xMinYMin meet" x="13.5" y="-134"/>
<text text-anchor="start" x="28.5" y="-125.2" font-family="Helvetica,sans-Serif" font-size="11.00">species_id</text>
<polygon fill="none" stroke="black" points="8.5,-95 8.5,-117 239.5,-117 239.5,-95 8.5,-95"/>
<image xlink:href="../../images/foreignKeys.png" width="11px" height="12px" preserveAspectRatio="xMinYMin meet" x="13.5" y="-112"/>
<text text-anchor="start" x="28.5" y="-103.2" font-family="Helvetica,sans-Serif" font-size="11.00">collection_site_country_code</text>
<polygon fill="none" stroke="black" points="8.5,-73 8.5,-95 239.5,-95 239.5,-73 8.5,-73"/>
<image xlink:href="../../images/foreignKeys.png" width="11px" height="12px" preserveAspectRatio="xMinYMin meet" x="13.5" y="-90"/>
<text text-anchor="start" x="28.5" y="-81.2" font-family="Helvetica,sans-Serif" font-size="11.00">collection_source_id</text>
<polygon fill="none" stroke="black" points="8.5,-55 8.5,-73 239.5,-73 239.5,-55 8.5,-55"/>
<text text-anchor="start" x="11.5" y="-61.2" font-family="Helvetica,sans-Serif" font-size="11.00">...</text>
<polygon fill="#ffffff" stroke="none" points="8.5,-37 8.5,-55 106.5,-55 106.5,-37 8.5,-37"/>
<polygon fill="none" stroke="black" points="8.5,-37 8.5,-55 106.5,-55 106.5,-37 8.5,-37"/>
<text text-anchor="start" x="11.5" y="-43.2" font-family="Helvetica,sans-Serif" font-size="11.00">&lt; 17</text>
<polygon fill="#ffffff" stroke="none" points="106.5,-37 106.5,-55 182.5,-55 182.5,-37 106.5,-37"/>
<polygon fill="none" stroke="black" points="106.5,-37 106.5,-55 182.5,-55 182.5,-37 106.5,-37"/>
<text text-anchor="start" x="143.5" y="-43.2" font-family="Helvetica,sans-Serif" font-size="11.00">0 rows</text>
<polygon fill="#ffffff" stroke="none" points="182.5,-37 182.5,-55 239.5,-55 239.5,-37 182.5,-37"/>
<polygon fill="none" stroke="black" points="182.5,-37 182.5,-55 239.5,-55 239.5,-37 182.5,-37"/>
<text text-anchor="start" x="219.5" y="-43.2" font-family="Helvetica,sans-Serif" font-size="11.00">8 &gt;</text>
</a>
</g>
</g>
<!-- geolocations&#45;&gt;accessions -->
<g id="edge1" class="edge"><title>geolocations:accession_id:w&#45;&gt;accessions:id:e</title>
<path fill="none" stroke="black" d="M274.991,-524C263.677,-524 256.493,-524 240.5,-524"/>
<polygon fill="black" stroke="black" points="281.5,-524 289.5,-527.6 285.5,-524 289.5,-524 289.5,-524 289.5,-524 285.5,-524 289.5,-520.4 281.5,-524 281.5,-524"/>
<ellipse fill="none" stroke="black" cx="278.3" cy="-524" rx="3.2" ry="3.2"/>
</g>
</g>
</svg>
