<?xml version="1.0" encoding="UTF-8" standalone="no"?>
<!DOCTYPE svg PUBLIC "-//W3C//DTD SVG 1.1//EN"
 "http://www.w3.org/Graphics/SVG/1.1/DTD/svg11.dtd">
<!-- Generated by graphviz version 2.38.0 (20140413.2041)
 -->
<!-- Title: twoDegreesRelationshipsDiagram Pages: 1 -->
<svg width="658pt" height="339pt"
 viewBox="0.00 0.00 658.00 339.50" xmlns="http://www.w3.org/2000/svg" xmlns:xlink="http://www.w3.org/1999/xlink">
<g id="graph0" class="graph" transform="scale(1 1) rotate(0) translate(4 335.498)">
<title>twoDegreesRelationshipsDiagram</title>
<polygon fill="#ffffff" stroke="none" points="-4,4 -4,-335.498 654,-335.498 654,4 -4,4"/>
<text text-anchor="middle" x="74.5" y="-7.2" font-family="Helvetica,sans-Serif" font-size="11.00">Generated by SchemaSpy</text>
<!-- features -->
<g id="node1" class="node"><title>features</title>
<g id="a_node1"><a xlink:href="../../tables/features.html" xlink:title="features" target="_top">
<polygon fill="#ffffff" stroke="none" points="545,-269.498 545,-327.498 642,-327.498 642,-269.498 545,-269.498"/>
<polygon fill="#f5f5f5" stroke="none" points="545.5,-305.498 545.5,-327.498 642.5,-327.498 642.5,-305.498 545.5,-305.498"/>
<polygon fill="none" stroke="black" points="545.5,-305.498 545.5,-327.498 642.5,-327.498 642.5,-305.498 545.5,-305.498"/>
<text text-anchor="start" x="550.5" y="-314.698" font-family="Helvetica,sans-Serif" font-weight="bold" font-size="11.00">features</text>
<text text-anchor="start" x="603.5" y="-313.698" font-family="Helvetica,sans-Serif" font-size="11.00">[table]</text>
<polygon fill="none" stroke="black" points="545.5,-287.498 545.5,-305.498 642.5,-305.498 642.5,-287.498 545.5,-287.498"/>
<text text-anchor="start" x="548.5" y="-293.698" font-family="Helvetica,sans-Serif" font-size="11.00">...</text>
<polygon fill="#ffffff" stroke="none" points="545.5,-269.498 545.5,-287.498 572.5,-287.498 572.5,-269.498 545.5,-269.498"/>
<polygon fill="none" stroke="black" points="545.5,-269.498 545.5,-287.498 572.5,-287.498 572.5,-269.498 545.5,-269.498"/>
<text text-anchor="start" x="548.5" y="-275.698" font-family="Helvetica,sans-Serif" font-size="11.00">&lt; 3</text>
<polygon fill="#ffffff" stroke="none" points="572.5,-269.498 572.5,-287.498 616.5,-287.498 616.5,-269.498 572.5,-269.498"/>
<polygon fill="none" stroke="black" points="572.5,-269.498 572.5,-287.498 616.5,-287.498 616.5,-269.498 572.5,-269.498"/>
<text text-anchor="start" x="577.5" y="-275.698" font-family="Helvetica,sans-Serif" font-size="11.00">0 rows</text>
<polygon fill="#ffffff" stroke="none" points="616.5,-269.498 616.5,-287.498 642.5,-287.498 642.5,-269.498 616.5,-269.498"/>
<polygon fill="none" stroke="black" points="616.5,-269.498 616.5,-287.498 642.5,-287.498 642.5,-269.498 616.5,-269.498"/>
<text text-anchor="start" x="622.5" y="-275.698" font-family="Helvetica,sans-Serif" font-size="11.00">2 &gt;</text>
</a>
</g>
</g>
<!-- users -->
<g id="node2" class="node"><title>users</title>
<g id="a_node2"><a xlink:href="../../tables/users.html" xlink:title="users" target="_top">
<polygon fill="#ffffff" stroke="none" points="8,-208.498 8,-266.498 98,-266.498 98,-208.498 8,-208.498"/>
<polygon fill="#f5f5f5" stroke="none" points="8,-244.498 8,-266.498 98,-266.498 98,-244.498 8,-244.498"/>
<polygon fill="none" stroke="black" points="8,-244.498 8,-266.498 98,-266.498 98,-244.498 8,-244.498"/>
<text text-anchor="start" x="13" y="-253.698" font-family="Helvetica,sans-Serif" font-weight="bold" font-size="11.00">users</text>
<text text-anchor="start" x="59" y="-252.698" font-family="Helvetica,sans-Serif" font-size="11.00">[table]</text>
<polygon fill="none" stroke="black" points="8,-226.498 8,-244.498 98,-244.498 98,-226.498 8,-226.498"/>
<text text-anchor="start" x="11" y="-232.698" font-family="Helvetica,sans-Serif" font-size="11.00">...</text>
<polygon fill="#ffffff" stroke="none" points="8,-208.498 8,-226.498 31,-226.498 31,-208.498 8,-208.498"/>
<polygon fill="none" stroke="black" points="8,-208.498 8,-226.498 31,-226.498 31,-208.498 8,-208.498"/>
<text text-anchor="start" x="11" y="-214.698" font-family="Helvetica,sans-Serif" font-size="11.00">&lt; 1</text>
<polygon fill="#ffffff" stroke="none" points="31,-208.498 31,-226.498 68,-226.498 68,-208.498 31,-208.498"/>
<polygon fill="none" stroke="black" points="31,-208.498 31,-226.498 68,-226.498 68,-208.498 31,-208.498"/>
<text text-anchor="start" x="34" y="-214.698" font-family="Helvetica,sans-Serif" font-size="11.00">1 row</text>
<polygon fill="#ffffff" stroke="none" points="68,-208.498 68,-226.498 98,-226.498 98,-208.498 68,-208.498"/>
<polygon fill="none" stroke="black" points="68,-208.498 68,-226.498 98,-226.498 98,-208.498 68,-208.498"/>
<text text-anchor="start" x="71" y="-214.698" font-family="Helvetica,sans-Serif" font-size="11.00">37 &gt;</text>
</a>
</g>
</g>
<!-- features&#45;&gt;users -->
<g id="edge1" class="edge"><title>features:elipses:w&#45;&gt;users:elipses:e</title>
<path fill="none" stroke="black" d="M529.962,-296.615C360.669,-299.363 299.001,-348.625 139,-276.498 115.791,-266.035 124.458,-235.498 99,-235.498"/>
<polygon fill="black" stroke="black" points="536.5,-296.562 544.529,-300.098 540.5,-296.53 544.5,-296.498 544.5,-296.498 544.5,-296.498 540.5,-296.53 544.471,-292.898 536.5,-296.562 536.5,-296.562"/>
<ellipse fill="none" stroke="black" cx="533.3" cy="-296.588" rx="3.2" ry="3.2"/>
</g>
<!-- features&#45;&gt;users -->
<g id="edge3" class="edge"><title>features:elipses:w&#45;&gt;users:elipses:e</title>
<path fill="none" stroke="black" d="M529.958,-296.599C360.663,-298.967 300.548,-341.33 139,-272.498 116.721,-263.005 123.217,-235.498 99,-235.498"/>
<polygon fill="black" stroke="black" points="536.5,-296.554 544.525,-300.098 540.5,-296.526 544.5,-296.498 544.5,-296.498 544.5,-296.498 540.5,-296.526 544.475,-292.898 536.5,-296.554 536.5,-296.554"/>
<ellipse fill="none" stroke="black" cx="533.3" cy="-296.576" rx="3.2" ry="3.2"/>
</g>
<!-- layers -->
<g id="node3" class="node"><title>layers</title>
<g id="a_node3"><a xlink:href="../../tables/layers.html" xlink:title="layers" target="_top">
<polygon fill="#ffffff" stroke="none" points="389,-61.4976 389,-229.498 496,-229.498 496,-61.4976 389,-61.4976"/>
<polygon fill="#f5f5f5" stroke="none" points="389.5,-207.498 389.5,-229.498 496.5,-229.498 496.5,-207.498 389.5,-207.498"/>
<polygon fill="none" stroke="black" points="389.5,-207.498 389.5,-229.498 496.5,-229.498 496.5,-207.498 389.5,-207.498"/>
<text text-anchor="start" x="394.5" y="-216.698" font-family="Helvetica,sans-Serif" font-weight="bold" font-size="11.00">layers</text>
<text text-anchor="start" x="457.5" y="-215.698" font-family="Helvetica,sans-Serif" font-size="11.00">[table]</text>
<polygon fill="none" stroke="black" points="389.5,-185.498 389.5,-207.498 496.5,-207.498 496.5,-185.498 389.5,-185.498"/>
<image xlink:href="../../images/primaryKeys.png" width="11px" height="12px" preserveAspectRatio="xMinYMin meet" x="394.5" y="-202.498"/>
<text text-anchor="start" x="409.5" y="-193.698" font-family="Helvetica,sans-Serif" font-size="11.00">id</text>
<polygon fill="none" stroke="black" points="389.5,-163.498 389.5,-185.498 496.5,-185.498 496.5,-163.498 389.5,-163.498"/>
<image xlink:href="../../images/foreignKeys.png" width="11px" height="12px" preserveAspectRatio="xMinYMin meet" x="394.5" y="-180.498"/>
<text text-anchor="start" x="409.5" y="-171.698" font-family="Helvetica,sans-Serif" font-size="11.00">site_id</text>
<polygon fill="none" stroke="black" points="389.5,-141.498 389.5,-163.498 496.5,-163.498 496.5,-141.498 389.5,-141.498"/>
<image xlink:href="../../images/foreignKeys.png" width="11px" height="12px" preserveAspectRatio="xMinYMin meet" x="394.5" y="-158.498"/>
<text text-anchor="start" x="409.5" y="-149.698" font-family="Helvetica,sans-Serif" font-size="11.00">layer_type_id</text>
<polygon fill="none" stroke="black" points="389.5,-119.498 389.5,-141.498 496.5,-141.498 496.5,-119.498 389.5,-119.498"/>
<image xlink:href="../../images/foreignKeys.png" width="11px" height="12px" preserveAspectRatio="xMinYMin meet" x="394.5" y="-136.498"/>
<text text-anchor="start" x="409.5" y="-127.698" font-family="Helvetica,sans-Serif" font-size="11.00">created_by</text>
<polygon fill="none" stroke="black" points="389.5,-97.4976 389.5,-119.498 496.5,-119.498 496.5,-97.4976 389.5,-97.4976"/>
<image xlink:href="../../images/foreignKeys.png" width="11px" height="12px" preserveAspectRatio="xMinYMin meet" x="394.5" y="-114.498"/>
<text text-anchor="start" x="409.5" y="-105.698" font-family="Helvetica,sans-Serif" font-size="11.00">modified_by</text>
<polygon fill="none" stroke="black" points="389.5,-79.4976 389.5,-97.4976 496.5,-97.4976 496.5,-79.4976 389.5,-79.4976"/>
<text text-anchor="start" x="392.5" y="-85.6976" font-family="Helvetica,sans-Serif" font-size="11.00">...</text>
<polygon fill="#ffffff" stroke="none" points="389.5,-61.4976 389.5,-79.4976 421.5,-79.4976 421.5,-61.4976 389.5,-61.4976"/>
<polygon fill="none" stroke="black" points="389.5,-61.4976 389.5,-79.4976 421.5,-79.4976 421.5,-61.4976 389.5,-61.4976"/>
<text text-anchor="start" x="392.5" y="-67.6976" font-family="Helvetica,sans-Serif" font-size="11.00">&lt; 4</text>
<polygon fill="#ffffff" stroke="none" points="421.5,-61.4976 421.5,-79.4976 468.5,-79.4976 468.5,-61.4976 421.5,-61.4976"/>
<polygon fill="none" stroke="black" points="421.5,-61.4976 421.5,-79.4976 468.5,-79.4976 468.5,-61.4976 421.5,-61.4976"/>
<text text-anchor="start" x="429.5" y="-67.6976" font-family="Helvetica,sans-Serif" font-size="11.00">0 rows</text>
<polygon fill="#ffffff" stroke="none" points="468.5,-61.4976 468.5,-79.4976 496.5,-79.4976 496.5,-61.4976 468.5,-61.4976"/>
<polygon fill="none" stroke="black" points="468.5,-61.4976 468.5,-79.4976 496.5,-79.4976 496.5,-61.4976 468.5,-61.4976"/>
<text text-anchor="start" x="476.5" y="-67.6976" font-family="Helvetica,sans-Serif" font-size="11.00">1 &gt;</text>
</a>
</g>
</g>
<!-- features&#45;&gt;layers -->
<g id="edge2" class="edge"><title>features:elipses:w&#45;&gt;layers:id:e</title>
<path fill="none" stroke="black" d="M530.395,-292.201C506.628,-273.06 540.47,-196.498 497.5,-196.498"/>
<polygon fill="black" stroke="black" points="536.847,-294.166 543.451,-299.941 540.674,-295.332 544.5,-296.498 544.5,-296.498 544.5,-296.498 540.674,-295.332 545.549,-293.054 536.847,-294.166 536.847,-294.166"/>
<ellipse fill="none" stroke="black" cx="533.786" cy="-293.234" rx="3.20001" ry="3.20001"/>
</g>
<!-- layers&#45;&gt;users -->
<g id="edge4" class="edge"><title>layers:created_by:w&#45;&gt;users:elipses:e</title>
<path fill="none" stroke="black" d="M374.887,-125.653C365.127,-116.34 366.086,-96.1826 348,-88.4976 305.254,-70.3348 175.902,-60.2955 139,-88.4976 85.2031,-129.612 166.709,-235.498 99,-235.498"/>
<polygon fill="black" stroke="black" points="380.963,-127.815 387.293,-133.889 384.732,-129.156 388.5,-130.498 388.5,-130.498 388.5,-130.498 384.732,-129.156 389.707,-127.106 380.963,-127.815 380.963,-127.815"/>
<ellipse fill="none" stroke="black" cx="377.948" cy="-126.742" rx="3.20001" ry="3.20001"/>
</g>
<!-- layers&#45;&gt;users -->
<g id="edge6" class="edge"><title>layers:modified_by:w&#45;&gt;users:elipses:e</title>
<path fill="none" stroke="black" d="M374.79,-103.599C365.327,-94.601 365.553,-75.7043 348,-68.4976 262.072,-33.2173 211.932,-10.9714 139,-68.4976 79.0758,-115.764 175.322,-235.498 99,-235.498"/>
<polygon fill="black" stroke="black" points="380.966,-105.806 387.289,-111.888 384.733,-107.152 388.5,-108.498 388.5,-108.498 388.5,-108.498 384.733,-107.152 389.711,-105.108 380.966,-105.806 380.966,-105.806"/>
<ellipse fill="none" stroke="black" cx="377.953" cy="-104.729" rx="3.20001" ry="3.20001"/>
</g>
<!-- layer_types -->
<g id="node4" class="node"><title>layer_types</title>
<g id="a_node4"><a xlink:href="../../tables/layer_types.html" xlink:title="layer_types" target="_top">
<polygon fill="#ffffff" stroke="none" points="147,-99.4976 147,-187.498 340,-187.498 340,-99.4976 147,-99.4976"/>
<polygon fill="#f5f5f5" stroke="none" points="149.5,-163.498 149.5,-185.498 338.5,-185.498 338.5,-163.498 149.5,-163.498"/>
<polygon fill="none" stroke="black" points="149.5,-163.498 149.5,-185.498 338.5,-185.498 338.5,-163.498 149.5,-163.498"/>
<text text-anchor="start" x="154.5" y="-172.698" font-family="Helvetica,sans-Serif" font-weight="bold" font-size="11.00">layer_types</text>
<text text-anchor="start" x="299.5" y="-171.698" font-family="Helvetica,sans-Serif" font-size="11.00">[table]</text>
<polygon fill="none" stroke="black" points="149.5,-141.498 149.5,-163.498 237.5,-163.498 237.5,-141.498 149.5,-141.498"/>
<image xlink:href="../../images/primaryKeys.png" width="11px" height="12px" preserveAspectRatio="xMinYMin meet" x="154.5" y="-158.498"/>
<text text-anchor="start" x="169.5" y="-149.698" font-family="Helvetica,sans-Serif" font-size="11.00">id</text>
<polygon fill="none" stroke="black" points="237.5,-141.498 237.5,-163.498 338.5,-163.498 338.5,-141.498 237.5,-141.498"/>
<text text-anchor="start" x="240.5" y="-149.698" font-family="Helvetica,sans-Serif" font-size="11.00">int4[10]</text>
<polygon fill="#ffffff" stroke="none" points="149.5,-119.498 149.5,-141.498 237.5,-141.498 237.5,-119.498 149.5,-119.498"/>
<polygon fill="none" stroke="black" points="149.5,-119.498 149.5,-141.498 237.5,-141.498 237.5,-119.498 149.5,-119.498"/>
<text text-anchor="start" x="169.5" y="-127.698" font-family="Helvetica,sans-Serif" font-size="11.00">name</text>
<polygon fill="none" stroke="black" points="237.5,-119.498 237.5,-141.498 338.5,-141.498 338.5,-119.498 237.5,-119.498"/>
<text text-anchor="start" x="240.5" y="-127.698" font-family="Helvetica,sans-Serif" font-size="11.00">text[2147483647]</text>
<polygon fill="#ffffff" stroke="none" points="149.5,-101.498 149.5,-119.498 180.5,-119.498 180.5,-101.498 149.5,-101.498"/>
<polygon fill="none" stroke="black" points="149.5,-101.498 149.5,-119.498 180.5,-119.498 180.5,-101.498 149.5,-101.498"/>
<text text-anchor="start" x="152.5" y="-107.698" font-family="Helvetica,sans-Serif" font-size="11.00">&lt; 0</text>
<polygon fill="#ffffff" stroke="none" points="180.5,-101.498 180.5,-119.498 237.5,-119.498 237.5,-101.498 180.5,-101.498"/>
<polygon fill="none" stroke="black" points="180.5,-101.498 180.5,-119.498 237.5,-119.498 237.5,-101.498 180.5,-101.498"/>
<text text-anchor="start" x="191.5" y="-107.698" font-family="Helvetica,sans-Serif" font-size="11.00">12 rows</text>
<polygon fill="#ffffff" stroke="none" points="237.5,-101.498 237.5,-119.498 338.5,-119.498 338.5,-101.498 237.5,-101.498"/>
<polygon fill="none" stroke="black" points="237.5,-101.498 237.5,-119.498 338.5,-119.498 338.5,-101.498 237.5,-101.498"/>
<text text-anchor="start" x="318.5" y="-107.698" font-family="Helvetica,sans-Serif" font-size="11.00">1 &gt;</text>
<polygon fill="none" stroke="black" stroke-width="2" points="148,-100.498 148,-186.498 339,-186.498 339,-100.498 148,-100.498"/>
</a>
</g>
</g>
<!-- layers&#45;&gt;layer_types -->
<g id="edge5" class="edge"><title>layers:layer_type_id:w&#45;&gt;layer_types:id.type:e</title>
<path fill="none" stroke="black" d="M373.991,-152.498C362.677,-152.498 355.493,-152.498 339.5,-152.498"/>
<polygon fill="black" stroke="black" points="380.5,-152.498 388.5,-156.098 384.5,-152.498 388.5,-152.498 388.5,-152.498 388.5,-152.498 384.5,-152.498 388.5,-148.898 380.5,-152.498 380.5,-152.498"/>
<ellipse fill="none" stroke="black" cx="377.3" cy="-152.498" rx="3.2" ry="3.2"/>
</g>
<!-- sites -->
<g id="node5" class="node"><title>sites</title>
<g id="a_node5"><a xlink:href="../../tables/sites.html" xlink:title="sites" target="_top">
<polygon fill="#ffffff" stroke="none" points="199.5,-208.498 199.5,-266.498 287.5,-266.498 287.5,-208.498 199.5,-208.498"/>
<polygon fill="#f5f5f5" stroke="none" points="199.5,-244.498 199.5,-266.498 287.5,-266.498 287.5,-244.498 199.5,-244.498"/>
<polygon fill="none" stroke="black" points="199.5,-244.498 199.5,-266.498 287.5,-266.498 287.5,-244.498 199.5,-244.498"/>
<text text-anchor="start" x="204.5" y="-253.698" font-family="Helvetica,sans-Serif" font-weight="bold" font-size="11.00">sites</text>
<text text-anchor="start" x="248.5" y="-252.698" font-family="Helvetica,sans-Serif" font-size="11.00">[table]</text>
<polygon fill="none" stroke="black" points="199.5,-226.498 199.5,-244.498 287.5,-244.498 287.5,-226.498 199.5,-226.498"/>
<text text-anchor="start" x="202.5" y="-232.698" font-family="Helvetica,sans-Serif" font-size="11.00">...</text>
<polygon fill="#ffffff" stroke="none" points="199.5,-208.498 199.5,-226.498 222.5,-226.498 222.5,-208.498 199.5,-208.498"/>
<polygon fill="none" stroke="black" points="199.5,-208.498 199.5,-226.498 222.5,-226.498 222.5,-208.498 199.5,-208.498"/>
<text text-anchor="start" x="202.5" y="-214.698" font-family="Helvetica,sans-Serif" font-size="11.00">&lt; 3</text>
<polygon fill="#ffffff" stroke="none" points="222.5,-208.498 222.5,-226.498 264.5,-226.498 264.5,-208.498 222.5,-208.498"/>
<polygon fill="none" stroke="black" points="222.5,-208.498 222.5,-226.498 264.5,-226.498 264.5,-208.498 222.5,-208.498"/>
<text text-anchor="start" x="225.5" y="-214.698" font-family="Helvetica,sans-Serif" font-size="11.00">0 rows</text>
<polygon fill="#ffffff" stroke="none" points="264.5,-208.498 264.5,-226.498 287.5,-226.498 287.5,-208.498 264.5,-208.498"/>
<polygon fill="none" stroke="black" points="264.5,-208.498 264.5,-226.498 287.5,-226.498 287.5,-208.498 264.5,-208.498"/>
<text text-anchor="start" x="267.5" y="-214.698" font-family="Helvetica,sans-Serif" font-size="11.00">3 &gt;</text>
</a>
</g>
</g>
<!-- layers&#45;&gt;sites -->
<g id="edge7" class="edge"><title>layers:site_id:w&#45;&gt;sites:elipses:e</title>
<path fill="none" stroke="black" d="M375.182,-180.347C349.401,-195.614 299.024,-235.498 288.5,-235.498"/>
<polygon fill="black" stroke="black" points="381.175,-177.714 389.948,-177.794 384.838,-176.106 388.5,-174.498 388.5,-174.498 388.5,-174.498 384.838,-176.106 387.052,-171.201 381.175,-177.714 381.175,-177.714"/>
<ellipse fill="none" stroke="black" cx="378.245" cy="-179.001" rx="3.20001" ry="3.20001"/>
</g>
<!-- sites&#45;&gt;users -->
<g id="edge8" class="edge"><title>sites:elipses:w&#45;&gt;users:elipses:e</title>
<path fill="none" stroke="black" d="M184.213,-233.635C151.231,-229.58 138.04,-230.201 99,-235.498"/>
<polygon fill="black" stroke="black" points="190.567,-234.464 198.035,-239.067 194.534,-234.981 198.5,-235.498 198.5,-235.498 198.5,-235.498 194.534,-234.981 198.965,-231.928 190.567,-234.464 190.567,-234.464"/>
<ellipse fill="none" stroke="black" cx="187.394" cy="-234.05" rx="3.2" ry="3.2"/>
</g>
<!-- sites&#45;&gt;users -->
<g id="edge9" class="edge"><title>sites:elipses:w&#45;&gt;users:elipses:e</title>
<path fill="none" stroke="black" d="M184.213,-237.67C151.231,-242.402 138.04,-241.677 99,-235.498"/>
<polygon fill="black" stroke="black" points="190.591,-236.7 199.041,-239.057 194.545,-236.099 198.5,-235.498 198.5,-235.498 198.5,-235.498 194.545,-236.099 197.959,-231.939 190.591,-236.7 190.591,-236.7"/>
<ellipse fill="none" stroke="black" cx="187.427" cy="-237.181" rx="3.2" ry="3.2"/>
</g>
</g>
</svg>
