<?xml version="1.0" encoding="UTF-8" standalone="no"?>
<!DOCTYPE svg PUBLIC "-//W3C//DTD SVG 1.1//EN"
 "http://www.w3.org/Graphics/SVG/1.1/DTD/svg11.dtd">
<!-- Generated by graphviz version 2.38.0 (20140413.2041)
 -->
<!-- Title: oneDegreeRelationshipsDiagram Pages: 1 -->
<svg width="518pt" height="445pt"
 viewBox="0.00 0.00 518.00 445.00" xmlns="http://www.w3.org/2000/svg" xmlns:xlink="http://www.w3.org/1999/xlink">
<g id="graph0" class="graph" transform="scale(1 1) rotate(0) translate(4 441)">
<title>oneDegreeRelationshipsDiagram</title>
<polygon fill="#ffffff" stroke="none" points="-4,4 -4,-441 514,-441 514,4 -4,4"/>
<text text-anchor="middle" x="74.5" y="-7.2" font-family="Helvetica,sans-Serif" font-size="11.00">Generated by SchemaSpy</text>
<!-- organization_users -->
<g id="node1" class="node"><title>organization_users</title>
<g id="a_node1"><a xlink:href="../../tables/organization_users.html" xlink:title="organization_users" target="_top">
<polygon fill="#ffffff" stroke="none" points="231,-114 231,-290 502,-290 502,-114 231,-114"/>
<polygon fill="#f5f5f5" stroke="none" points="233.5,-266 233.5,-288 500.5,-288 500.5,-266 233.5,-266"/>
<polygon fill="none" stroke="black" points="233.5,-266 233.5,-288 500.5,-288 500.5,-266 233.5,-266"/>
<text text-anchor="start" x="238.5" y="-275.2" font-family="Helvetica,sans-Serif" font-weight="bold" font-size="11.00">organization_users</text>
<text text-anchor="start" x="461.5" y="-274.2" font-family="Helvetica,sans-Serif" font-size="11.00">[table]</text>
<polygon fill="none" stroke="black" points="233.5,-244 233.5,-266 398.5,-266 398.5,-244 233.5,-244"/>
<image xlink:href="../../images/primaryKeys.png" width="11px" height="12px" preserveAspectRatio="xMinYMin meet" x="238.5" y="-261"/>
<text text-anchor="start" x="253.5" y="-252.2" font-family="Helvetica,sans-Serif" font-size="11.00">user_id</text>
<polygon fill="none" stroke="black" points="398.5,-244 398.5,-266 500.5,-266 500.5,-244 398.5,-244"/>
<text text-anchor="start" x="401.5" y="-252.2" font-family="Helvetica,sans-Serif" font-size="11.00">int8[19]</text>
<polygon fill="none" stroke="black" points="233.5,-222 233.5,-244 398.5,-244 398.5,-222 233.5,-222"/>
<image xlink:href="../../images/primaryKeys.png" width="11px" height="12px" preserveAspectRatio="xMinYMin meet" x="238.5" y="-239"/>
<text text-anchor="start" x="253.5" y="-230.2" font-family="Helvetica,sans-Serif" font-size="11.00">organization_id</text>
<polygon fill="none" stroke="black" points="398.5,-222 398.5,-244 500.5,-244 500.5,-222 398.5,-222"/>
<text text-anchor="start" x="401.5" y="-230.2" font-family="Helvetica,sans-Serif" font-size="11.00">int8[19]</text>
<polygon fill="none" stroke="black" points="233.5,-200 233.5,-222 398.5,-222 398.5,-200 233.5,-200"/>
<image xlink:href="../../images/foreignKeys.png" width="11px" height="12px" preserveAspectRatio="xMinYMin meet" x="238.5" y="-217"/>
<text text-anchor="start" x="253.5" y="-208.2" font-family="Helvetica,sans-Serif" font-size="11.00">role_id</text>
<polygon fill="none" stroke="black" points="398.5,-200 398.5,-222 500.5,-222 500.5,-200 398.5,-200"/>
<text text-anchor="start" x="401.5" y="-208.2" font-family="Helvetica,sans-Serif" font-size="11.00">int4[10]</text>
<polygon fill="none" stroke="black" points="233.5,-178 233.5,-200 398.5,-200 398.5,-178 233.5,-178"/>
<text text-anchor="start" x="253.5" y="-186.2" font-family="Helvetica,sans-Serif" font-size="11.00">created_time</text>
<polygon fill="none" stroke="black" points="398.5,-178 398.5,-200 500.5,-200 500.5,-178 398.5,-178"/>
<text text-anchor="start" x="401.5" y="-186.2" font-family="Helvetica,sans-Serif" font-size="11.00">timestamptz[35,6]</text>
<polygon fill="none" stroke="black" points="233.5,-156 233.5,-178 398.5,-178 398.5,-156 233.5,-156"/>
<text text-anchor="start" x="253.5" y="-164.2" font-family="Helvetica,sans-Serif" font-size="11.00">modified_time</text>
<polygon fill="none" stroke="black" points="398.5,-156 398.5,-178 500.5,-178 500.5,-156 398.5,-156"/>
<text text-anchor="start" x="401.5" y="-164.2" font-family="Helvetica,sans-Serif" font-size="11.00">timestamptz[35,6]</text>
<polygon fill="none" stroke="black" points="233.5,-134 233.5,-156 398.5,-156 398.5,-134 233.5,-134"/>
<text text-anchor="start" x="253.5" y="-142.2" font-family="Helvetica,sans-Serif" font-size="11.00">pending_invitation_time</text>
<polygon fill="none" stroke="black" points="398.5,-134 398.5,-156 500.5,-156 500.5,-134 398.5,-134"/>
<text text-anchor="start" x="401.5" y="-142.2" font-family="Helvetica,sans-Serif" font-size="11.00">timestamptz[35,6]</text>
<polygon fill="#ffffff" stroke="none" points="233.5,-116 233.5,-134 306.5,-134 306.5,-116 233.5,-116"/>
<polygon fill="none" stroke="black" points="233.5,-116 233.5,-134 306.5,-134 306.5,-116 233.5,-116"/>
<text text-anchor="start" x="236.5" y="-122.2" font-family="Helvetica,sans-Serif" font-size="11.00">&lt; 3</text>
<polygon fill="#ffffff" stroke="none" points="306.5,-116 306.5,-134 398.5,-134 398.5,-116 306.5,-116"/>
<polygon fill="none" stroke="black" points="306.5,-116 306.5,-134 398.5,-134 398.5,-116 306.5,-116"/>
<text text-anchor="start" x="359.5" y="-122.2" font-family="Helvetica,sans-Serif" font-size="11.00">0 rows</text>
<polygon fill="#ffffff" stroke="none" points="398.5,-116 398.5,-134 500.5,-134 500.5,-116 398.5,-116"/>
<polygon fill="none" stroke="black" points="398.5,-116 398.5,-134 500.5,-134 500.5,-116 398.5,-116"/>
<text text-anchor="start" x="480.5" y="-122.2" font-family="Helvetica,sans-Serif" font-size="11.00">0 &gt;</text>
<polygon fill="none" stroke="black" stroke-width="2" points="232,-115 232,-289 501,-289 501,-115 232,-115"/>
</a>
</g>
</g>
<!-- organizations -->
<g id="node2" class="node"><title>organizations</title>
<g id="a_node2"><a xlink:href="../../tables/organizations.html" xlink:title="organizations" target="_top">
<polygon fill="#ffffff" stroke="none" points="8,-142 8,-266 182,-266 182,-142 8,-142"/>
<polygon fill="#f5f5f5" stroke="none" points="8,-244 8,-266 182,-266 182,-244 8,-244"/>
<polygon fill="none" stroke="black" points="8,-244 8,-266 182,-266 182,-244 8,-244"/>
<text text-anchor="start" x="13" y="-253.2" font-family="Helvetica,sans-Serif" font-weight="bold" font-size="11.00">organizations</text>
<text text-anchor="start" x="143" y="-252.2" font-family="Helvetica,sans-Serif" font-size="11.00">[table]</text>
<polygon fill="none" stroke="black" points="8,-222 8,-244 182,-244 182,-222 8,-222"/>
<image xlink:href="../../images/primaryKeys.png" width="11px" height="12px" preserveAspectRatio="xMinYMin meet" x="13" y="-239"/>
<text text-anchor="start" x="28" y="-230.2" font-family="Helvetica,sans-Serif" font-size="11.00">id</text>
<polygon fill="none" stroke="black" points="8,-200 8,-222 182,-222 182,-200 8,-200"/>
<image xlink:href="../../images/foreignKeys.png" width="11px" height="12px" preserveAspectRatio="xMinYMin meet" x="13" y="-217"/>
<text text-anchor="start" x="28" y="-208.2" font-family="Helvetica,sans-Serif" font-size="11.00">country_code</text>
<polygon fill="none" stroke="black" points="8,-178 8,-200 182,-200 182,-178 8,-178"/>
<image xlink:href="../../images/foreignKeys.png" width="11px" height="12px" preserveAspectRatio="xMinYMin meet" x="13" y="-195"/>
<text text-anchor="start" x="28" y="-186.2" font-family="Helvetica,sans-Serif" font-size="11.00">country_subdivision_code</text>
<polygon fill="none" stroke="black" points="8,-160 8,-178 182,-178 182,-160 8,-160"/>
<text text-anchor="start" x="11" y="-166.2" font-family="Helvetica,sans-Serif" font-size="11.00">...</text>
<polygon fill="#ffffff" stroke="none" points="8,-142 8,-160 74,-160 74,-142 8,-142"/>
<polygon fill="none" stroke="black" points="8,-142 8,-160 74,-160 74,-142 8,-142"/>
<text text-anchor="start" x="11" y="-148.2" font-family="Helvetica,sans-Serif" font-size="11.00">&lt; 2</text>
<polygon fill="#ffffff" stroke="none" points="74,-142 74,-160 137,-160 137,-142 74,-142"/>
<polygon fill="none" stroke="black" points="74,-142 74,-160 137,-160 137,-142 74,-142"/>
<text text-anchor="start" x="98" y="-148.2" font-family="Helvetica,sans-Serif" font-size="11.00">0 rows</text>
<polygon fill="#ffffff" stroke="none" points="137,-142 137,-160 182,-160 182,-142 137,-142"/>
<polygon fill="none" stroke="black" points="137,-142 137,-160 182,-160 182,-142 137,-142"/>
<text text-anchor="start" x="162" y="-148.2" font-family="Helvetica,sans-Serif" font-size="11.00">4 &gt;</text>
</a>
</g>
</g>
<!-- organization_users&#45;&gt;organizations -->
<g id="edge1" class="edge"><title>organization_users:organization_id:w&#45;&gt;organizations:id:e</title>
<path fill="none" stroke="black" d="M217.843,-233C206.414,-233 199.156,-233 183,-233"/>
<polygon fill="black" stroke="black" points="224.5,-233 232.5,-236.6 228.5,-233 232.5,-233 232.5,-233 232.5,-233 228.5,-233 232.5,-229.4 224.5,-233 224.5,-233"/>
<ellipse fill="none" stroke="black" cx="221.3" cy="-233" rx="3.2" ry="3.2"/>
</g>
<!-- roles -->
<g id="node3" class="node"><title>roles</title>
<g id="a_node3"><a xlink:href="../../tables/roles.html" xlink:title="roles" target="_top">
<polygon fill="#ffffff" stroke="none" points="56,-37 56,-121 134,-121 134,-37 56,-37"/>
<polygon fill="#f5f5f5" stroke="none" points="56,-99 56,-121 134,-121 134,-99 56,-99"/>
<polygon fill="none" stroke="black" points="56,-99 56,-121 134,-121 134,-99 56,-99"/>
<text text-anchor="start" x="61" y="-108.2" font-family="Helvetica,sans-Serif" font-weight="bold" font-size="11.00">roles</text>
<text text-anchor="start" x="95" y="-107.2" font-family="Helvetica,sans-Serif" font-size="11.00">[table]</text>
<polygon fill="none" stroke="black" points="56,-77 56,-99 134,-99 134,-77 56,-77"/>
<image xlink:href="../../images/primaryKeys.png" width="11px" height="12px" preserveAspectRatio="xMinYMin meet" x="61" y="-94"/>
<text text-anchor="start" x="88" y="-85.2" font-family="Helvetica,sans-Serif" font-size="11.00">id</text>
<polygon fill="#ffffff" stroke="none" points="56,-55 56,-77 134,-77 134,-55 56,-55"/>
<polygon fill="none" stroke="black" points="56,-55 56,-77 134,-77 134,-55 56,-55"/>
<text text-anchor="start" x="88" y="-63.2" font-family="Helvetica,sans-Serif" font-size="11.00">name</text>
<polygon fill="#ffffff" stroke="none" points="56,-37 56,-55 69,-55 69,-37 56,-37"/>
<polygon fill="none" stroke="black" points="56,-37 56,-55 69,-55 69,-37 56,-37"/>
<text text-anchor="start" x="59" y="-43.2" font-family="Helvetica,sans-Serif" font-size="11.00"> &#160;</text>
<polygon fill="#ffffff" stroke="none" points="69,-37 69,-55 111,-55 111,-37 69,-37"/>
<polygon fill="none" stroke="black" points="69,-37 69,-55 111,-55 111,-37 69,-37"/>
<text text-anchor="start" x="72" y="-43.2" font-family="Helvetica,sans-Serif" font-size="11.00">4 rows</text>
<polygon fill="#ffffff" stroke="none" points="111,-37 111,-55 134,-55 134,-37 111,-37"/>
<polygon fill="none" stroke="black" points="111,-37 111,-55 134,-55 134,-37 111,-37"/>
<text text-anchor="start" x="114" y="-43.2" font-family="Helvetica,sans-Serif" font-size="11.00">1 &gt;</text>
</a>
</g>
</g>
<!-- organization_users&#45;&gt;roles -->
<g id="edge2" class="edge"><title>organization_users:role_id:w&#45;&gt;roles:id:e</title>
<path fill="none" stroke="black" d="M218.147,-207.816C198.29,-196.45 211.928,-157.151 190,-131 170.063,-107.224 166.028,-88 135,-88"/>
<polygon fill="black" stroke="black" points="224.69,-209.268 231.72,-214.515 228.595,-210.134 232.5,-211 232.5,-211 232.5,-211 228.595,-210.134 233.28,-207.485 224.69,-209.268 224.69,-209.268"/>
<ellipse fill="none" stroke="black" cx="221.566" cy="-208.575" rx="3.2" ry="3.2"/>
</g>
<!-- users -->
<g id="node4" class="node"><title>users</title>
<g id="a_node4"><a xlink:href="../../tables/users.html" xlink:title="users" target="_top">
<polygon fill="#ffffff" stroke="none" points="41.5,-287 41.5,-433 148.5,-433 148.5,-287 41.5,-287"/>
<polygon fill="#f5f5f5" stroke="none" points="42,-411 42,-433 149,-433 149,-411 42,-411"/>
<polygon fill="none" stroke="black" points="42,-411 42,-433 149,-433 149,-411 42,-411"/>
<text text-anchor="start" x="47" y="-420.2" font-family="Helvetica,sans-Serif" font-weight="bold" font-size="11.00">users</text>
<text text-anchor="start" x="110" y="-419.2" font-family="Helvetica,sans-Serif" font-size="11.00">[table]</text>
<polygon fill="none" stroke="black" points="42,-389 42,-411 149,-411 149,-389 42,-389"/>
<image xlink:href="../../images/primaryKeys.png" width="11px" height="12px" preserveAspectRatio="xMinYMin meet" x="47" y="-406"/>
<text text-anchor="start" x="62" y="-397.2" font-family="Helvetica,sans-Serif" font-size="11.00">id</text>
<polygon fill="#ffffff" stroke="none" points="42,-367 42,-389 149,-389 149,-367 42,-367"/>
<polygon fill="none" stroke="black" points="42,-367 42,-389 149,-389 149,-367 42,-367"/>
<text text-anchor="start" x="62" y="-375.2" font-family="Helvetica,sans-Serif" font-size="11.00">auth_id</text>
<polygon fill="#ffffff" stroke="none" points="42,-345 42,-367 149,-367 149,-345 42,-345"/>
<polygon fill="none" stroke="black" points="42,-345 42,-367 149,-367 149,-345 42,-345"/>
<text text-anchor="start" x="62" y="-353.2" font-family="Helvetica,sans-Serif" font-size="11.00">email</text>
<polygon fill="none" stroke="black" points="42,-323 42,-345 149,-345 149,-323 42,-323"/>
<image xlink:href="../../images/foreignKeys.png" width="11px" height="12px" preserveAspectRatio="xMinYMin meet" x="47" y="-340"/>
<text text-anchor="start" x="62" y="-331.2" font-family="Helvetica,sans-Serif" font-size="11.00">user_type_id</text>
<polygon fill="none" stroke="black" points="42,-305 42,-323 149,-323 149,-305 42,-305"/>
<text text-anchor="start" x="45" y="-311.2" font-family="Helvetica,sans-Serif" font-size="11.00">...</text>
<polygon fill="#ffffff" stroke="none" points="42,-287 42,-305 74,-305 74,-287 42,-287"/>
<polygon fill="none" stroke="black" points="42,-287 42,-305 74,-305 74,-287 42,-287"/>
<text text-anchor="start" x="45" y="-293.2" font-family="Helvetica,sans-Serif" font-size="11.00">&lt; 1</text>
<polygon fill="#ffffff" stroke="none" points="74,-287 74,-305 121,-305 121,-287 74,-287"/>
<polygon fill="none" stroke="black" points="74,-287 74,-305 121,-305 121,-287 74,-287"/>
<text text-anchor="start" x="82" y="-293.2" font-family="Helvetica,sans-Serif" font-size="11.00">0 rows</text>
<polygon fill="#ffffff" stroke="none" points="121,-287 121,-305 149,-305 149,-287 121,-287"/>
<polygon fill="none" stroke="black" points="121,-287 121,-305 149,-305 149,-287 121,-287"/>
<text text-anchor="start" x="129" y="-293.2" font-family="Helvetica,sans-Serif" font-size="11.00">4 &gt;</text>
</a>
</g>
</g>
<!-- organization_users&#45;&gt;users -->
<g id="edge3" class="edge"><title>organization_users:user_id:w&#45;&gt;users:id:e</title>
<path fill="none" stroke="black" d="M218.189,-257.278C167.35,-275.725 218.642,-400 150,-400"/>
<polygon fill="black" stroke="black" points="224.599,-256.257 233.066,-258.555 228.55,-255.629 232.5,-255 232.5,-255 232.5,-255 228.55,-255.629 231.934,-251.445 224.599,-256.257 224.599,-256.257"/>
<ellipse fill="none" stroke="black" cx="221.439" cy="-256.76" rx="3.2" ry="3.2"/>
</g>
</g>
</svg>
