<?xml version="1.0" encoding="UTF-8" standalone="no"?>
<!DOCTYPE svg PUBLIC "-//W3C//DTD SVG 1.1//EN"
 "http://www.w3.org/Graphics/SVG/1.1/DTD/svg11.dtd">
<!-- Generated by graphviz version 2.38.0 (20140413.2041)
 -->
<!-- Title: twoDegreesRelationshipsDiagram Pages: 1 -->
<svg width="1266pt" height="1141pt"
 viewBox="0.00 0.00 1266.00 1141.25" xmlns="http://www.w3.org/2000/svg" xmlns:xlink="http://www.w3.org/1999/xlink">
<g id="graph0" class="graph" transform="scale(1 1) rotate(0) translate(4 1137.25)">
<title>twoDegreesRelationshipsDiagram</title>
<polygon fill="#ffffff" stroke="none" points="-4,4 -4,-1137.25 1262,-1137.25 1262,4 -4,4"/>
<text text-anchor="middle" x="74.5" y="-7.2" font-family="Helvetica,sans-Serif" font-size="11.00">Generated by SchemaSpy</text>
<!-- accession_collectors -->
<g id="node1" class="node"><title>accession_collectors</title>
<g id="a_node1"><a xlink:href="../../tables/accession_collectors.html" xlink:title="accession_collectors" target="_top">
<polygon fill="#ffffff" stroke="none" points="898.5,-760.416 898.5,-818.416 1061.5,-818.416 1061.5,-760.416 898.5,-760.416"/>
<polygon fill="#f5f5f5" stroke="none" points="899,-796.416 899,-818.416 1062,-818.416 1062,-796.416 899,-796.416"/>
<polygon fill="none" stroke="black" points="899,-796.416 899,-818.416 1062,-818.416 1062,-796.416 899,-796.416"/>
<text text-anchor="start" x="904" y="-805.616" font-family="Helvetica,sans-Serif" font-weight="bold" font-size="11.00">accession_collectors</text>
<text text-anchor="start" x="1023" y="-804.616" font-family="Helvetica,sans-Serif" font-size="11.00">[table]</text>
<polygon fill="none" stroke="black" points="899,-778.416 899,-796.416 1062,-796.416 1062,-778.416 899,-778.416"/>
<text text-anchor="start" x="902" y="-784.616" font-family="Helvetica,sans-Serif" font-size="11.00">...</text>
<polygon fill="#ffffff" stroke="none" points="899,-760.416 899,-778.416 964,-778.416 964,-760.416 899,-760.416"/>
<polygon fill="none" stroke="black" points="899,-760.416 899,-778.416 964,-778.416 964,-760.416 899,-760.416"/>
<text text-anchor="start" x="902" y="-766.616" font-family="Helvetica,sans-Serif" font-size="11.00">&lt; 1</text>
<polygon fill="#ffffff" stroke="none" points="964,-760.416 964,-778.416 1027,-778.416 1027,-760.416 964,-760.416"/>
<polygon fill="none" stroke="black" points="964,-760.416 964,-778.416 1027,-778.416 1027,-760.416 964,-760.416"/>
<text text-anchor="start" x="988" y="-766.616" font-family="Helvetica,sans-Serif" font-size="11.00">0 rows</text>
<polygon fill="#ffffff" stroke="none" points="1027,-760.416 1027,-778.416 1062,-778.416 1062,-760.416 1027,-760.416"/>
<polygon fill="none" stroke="black" points="1027,-760.416 1027,-778.416 1062,-778.416 1062,-760.416 1027,-760.416"/>
<text text-anchor="start" x="1052" y="-766.616" font-family="Helvetica,sans-Serif" font-size="11.00"> &#160;</text>
</a>
</g>
</g>
<!-- accessions -->
<g id="node2" class="node"><title>accessions</title>
<g id="a_node2"><a xlink:href="../../tables/accessions.html" xlink:title="accessions" target="_top">
<polygon fill="#ffffff" stroke="none" points="599,-337.416 599,-901.416 830,-901.416 830,-337.416 599,-337.416"/>
<polygon fill="#f5f5f5" stroke="none" points="599.5,-879.416 599.5,-901.416 830.5,-901.416 830.5,-879.416 599.5,-879.416"/>
<polygon fill="none" stroke="black" points="599.5,-879.416 599.5,-901.416 830.5,-901.416 830.5,-879.416 599.5,-879.416"/>
<text text-anchor="start" x="604.5" y="-888.616" font-family="Helvetica,sans-Serif" font-weight="bold" font-size="11.00">accessions</text>
<text text-anchor="start" x="791.5" y="-887.616" font-family="Helvetica,sans-Serif" font-size="11.00">[table]</text>
<polygon fill="none" stroke="black" points="599.5,-857.416 599.5,-879.416 830.5,-879.416 830.5,-857.416 599.5,-857.416"/>
<image xlink:href="../../images/primaryKeys.png" width="11px" height="12px" preserveAspectRatio="xMinYMin meet" x="604.5" y="-874.416"/>
<text text-anchor="start" x="619.5" y="-865.616" font-family="Helvetica,sans-Serif" font-size="11.00">id</text>
<polygon fill="#ffffff" stroke="none" points="599.5,-835.416 599.5,-857.416 830.5,-857.416 830.5,-835.416 599.5,-835.416"/>
<polygon fill="none" stroke="black" points="599.5,-835.416 599.5,-857.416 830.5,-857.416 830.5,-835.416 599.5,-835.416"/>
<image xlink:href="../../images/foreignKeys.png" width="11px" height="12px" preserveAspectRatio="xMinYMin meet" x="604.5" y="-852.416"/>
<text text-anchor="start" x="619.5" y="-843.616" font-family="Helvetica,sans-Serif" font-size="11.00">facility_id</text>
<polygon fill="#ffffff" stroke="none" points="599.5,-813.416 599.5,-835.416 830.5,-835.416 830.5,-813.416 599.5,-813.416"/>
<polygon fill="none" stroke="black" points="599.5,-813.416 599.5,-835.416 830.5,-835.416 830.5,-813.416 599.5,-813.416"/>
<text text-anchor="start" x="619.5" y="-821.616" font-family="Helvetica,sans-Serif" font-size="11.00">number</text>
<polygon fill="#ffffff" stroke="none" points="599.5,-791.416 599.5,-813.416 830.5,-813.416 830.5,-791.416 599.5,-791.416"/>
<polygon fill="none" stroke="black" points="599.5,-791.416 599.5,-813.416 830.5,-813.416 830.5,-791.416 599.5,-791.416"/>
<text text-anchor="start" x="619.5" y="-799.616" font-family="Helvetica,sans-Serif" font-size="11.00">received_date</text>
<polygon fill="none" stroke="black" points="599.5,-769.416 599.5,-791.416 830.5,-791.416 830.5,-769.416 599.5,-769.416"/>
<image xlink:href="../../images/foreignKeys.png" width="11px" height="12px" preserveAspectRatio="xMinYMin meet" x="604.5" y="-786.416"/>
<text text-anchor="start" x="619.5" y="-777.616" font-family="Helvetica,sans-Serif" font-size="11.00">state_id</text>
<polygon fill="none" stroke="black" points="599.5,-747.416 599.5,-769.416 830.5,-769.416 830.5,-747.416 599.5,-747.416"/>
<image xlink:href="../../images/foreignKeys.png" width="11px" height="12px" preserveAspectRatio="xMinYMin meet" x="604.5" y="-764.416"/>
<text text-anchor="start" x="619.5" y="-755.616" font-family="Helvetica,sans-Serif" font-size="11.00">storage_location_id</text>
<polygon fill="#ffffff" stroke="none" points="599.5,-725.416 599.5,-747.416 830.5,-747.416 830.5,-725.416 599.5,-725.416"/>
<polygon fill="none" stroke="black" points="599.5,-725.416 599.5,-747.416 830.5,-747.416 830.5,-725.416 599.5,-725.416"/>
<text text-anchor="start" x="619.5" y="-733.616" font-family="Helvetica,sans-Serif" font-size="11.00">created_time</text>
<polygon fill="none" stroke="black" points="599.5,-703.416 599.5,-725.416 830.5,-725.416 830.5,-703.416 599.5,-703.416"/>
<image xlink:href="../../images/foreignKeys.png" width="11px" height="12px" preserveAspectRatio="xMinYMin meet" x="604.5" y="-720.416"/>
<text text-anchor="start" x="619.5" y="-711.616" font-family="Helvetica,sans-Serif" font-size="11.00">processing_method_id</text>
<polygon fill="none" stroke="black" points="599.5,-681.416 599.5,-703.416 830.5,-703.416 830.5,-681.416 599.5,-681.416"/>
<image xlink:href="../../images/foreignKeys.png" width="11px" height="12px" preserveAspectRatio="xMinYMin meet" x="604.5" y="-698.416"/>
<text text-anchor="start" x="619.5" y="-689.616" font-family="Helvetica,sans-Serif" font-size="11.00">target_storage_condition</text>
<polygon fill="none" stroke="black" points="599.5,-659.416 599.5,-681.416 830.5,-681.416 830.5,-659.416 599.5,-659.416"/>
<image xlink:href="../../images/foreignKeys.png" width="11px" height="12px" preserveAspectRatio="xMinYMin meet" x="604.5" y="-676.416"/>
<text text-anchor="start" x="619.5" y="-667.616" font-family="Helvetica,sans-Serif" font-size="11.00">species_endangered_type_id</text>
<polygon fill="none" stroke="black" points="599.5,-637.416 599.5,-659.416 830.5,-659.416 830.5,-637.416 599.5,-637.416"/>
<image xlink:href="../../images/foreignKeys.png" width="11px" height="12px" preserveAspectRatio="xMinYMin meet" x="604.5" y="-654.416"/>
<text text-anchor="start" x="619.5" y="-645.616" font-family="Helvetica,sans-Serif" font-size="11.00">rare_type_id</text>
<polygon fill="none" stroke="black" points="599.5,-615.416 599.5,-637.416 830.5,-637.416 830.5,-615.416 599.5,-615.416"/>
<image xlink:href="../../images/foreignKeys.png" width="11px" height="12px" preserveAspectRatio="xMinYMin meet" x="604.5" y="-632.416"/>
<text text-anchor="start" x="619.5" y="-623.616" font-family="Helvetica,sans-Serif" font-size="11.00">source_plant_origin_id</text>
<polygon fill="none" stroke="black" points="599.5,-593.416 599.5,-615.416 830.5,-615.416 830.5,-593.416 599.5,-593.416"/>
<image xlink:href="../../images/foreignKeys.png" width="11px" height="12px" preserveAspectRatio="xMinYMin meet" x="604.5" y="-610.416"/>
<text text-anchor="start" x="619.5" y="-601.616" font-family="Helvetica,sans-Serif" font-size="11.00">remaining_units_id</text>
<polygon fill="none" stroke="black" points="599.5,-571.416 599.5,-593.416 830.5,-593.416 830.5,-571.416 599.5,-571.416"/>
<image xlink:href="../../images/foreignKeys.png" width="11px" height="12px" preserveAspectRatio="xMinYMin meet" x="604.5" y="-588.416"/>
<text text-anchor="start" x="619.5" y="-579.616" font-family="Helvetica,sans-Serif" font-size="11.00">subset_weight_units_id</text>
<polygon fill="none" stroke="black" points="599.5,-549.416 599.5,-571.416 830.5,-571.416 830.5,-549.416 599.5,-549.416"/>
<image xlink:href="../../images/foreignKeys.png" width="11px" height="12px" preserveAspectRatio="xMinYMin meet" x="604.5" y="-566.416"/>
<text text-anchor="start" x="619.5" y="-557.616" font-family="Helvetica,sans-Serif" font-size="11.00">total_units_id</text>
<polygon fill="none" stroke="black" points="599.5,-527.416 599.5,-549.416 830.5,-549.416 830.5,-527.416 599.5,-527.416"/>
<image xlink:href="../../images/foreignKeys.png" width="11px" height="12px" preserveAspectRatio="xMinYMin meet" x="604.5" y="-544.416"/>
<text text-anchor="start" x="619.5" y="-535.616" font-family="Helvetica,sans-Serif" font-size="11.00">created_by</text>
<polygon fill="none" stroke="black" points="599.5,-505.416 599.5,-527.416 830.5,-527.416 830.5,-505.416 599.5,-505.416"/>
<image xlink:href="../../images/foreignKeys.png" width="11px" height="12px" preserveAspectRatio="xMinYMin meet" x="604.5" y="-522.416"/>
<text text-anchor="start" x="619.5" y="-513.616" font-family="Helvetica,sans-Serif" font-size="11.00">modified_by</text>
<polygon fill="none" stroke="black" points="599.5,-483.416 599.5,-505.416 830.5,-505.416 830.5,-483.416 599.5,-483.416"/>
<image xlink:href="../../images/foreignKeys.png" width="11px" height="12px" preserveAspectRatio="xMinYMin meet" x="604.5" y="-500.416"/>
<text text-anchor="start" x="619.5" y="-491.616" font-family="Helvetica,sans-Serif" font-size="11.00">species_id</text>
<polygon fill="none" stroke="black" points="599.5,-461.416 599.5,-483.416 830.5,-483.416 830.5,-461.416 599.5,-461.416"/>
<image xlink:href="../../images/foreignKeys.png" width="11px" height="12px" preserveAspectRatio="xMinYMin meet" x="604.5" y="-478.416"/>
<text text-anchor="start" x="619.5" y="-469.616" font-family="Helvetica,sans-Serif" font-size="11.00">collection_site_country_code</text>
<polygon fill="none" stroke="black" points="599.5,-439.416 599.5,-461.416 830.5,-461.416 830.5,-439.416 599.5,-439.416"/>
<image xlink:href="../../images/foreignKeys.png" width="11px" height="12px" preserveAspectRatio="xMinYMin meet" x="604.5" y="-456.416"/>
<text text-anchor="start" x="619.5" y="-447.616" font-family="Helvetica,sans-Serif" font-size="11.00">collection_source_id</text>
<polygon fill="none" stroke="black" points="599.5,-417.416 599.5,-439.416 830.5,-439.416 830.5,-417.416 599.5,-417.416"/>
<image xlink:href="../../images/foreignKeys.png" width="11px" height="12px" preserveAspectRatio="xMinYMin meet" x="604.5" y="-434.416"/>
<text text-anchor="start" x="619.5" y="-425.616" font-family="Helvetica,sans-Serif" font-size="11.00">data_source_id</text>
<polygon fill="none" stroke="black" points="599.5,-395.416 599.5,-417.416 830.5,-417.416 830.5,-395.416 599.5,-395.416"/>
<image xlink:href="../../images/foreignKeys.png" width="11px" height="12px" preserveAspectRatio="xMinYMin meet" x="604.5" y="-412.416"/>
<text text-anchor="start" x="619.5" y="-403.616" font-family="Helvetica,sans-Serif" font-size="11.00">latest_observed_units_id</text>
<polygon fill="none" stroke="black" points="599.5,-373.416 599.5,-395.416 830.5,-395.416 830.5,-373.416 599.5,-373.416"/>
<image xlink:href="../../images/foreignKeys.png" width="11px" height="12px" preserveAspectRatio="xMinYMin meet" x="604.5" y="-390.416"/>
<text text-anchor="start" x="619.5" y="-381.616" font-family="Helvetica,sans-Serif" font-size="11.00">est_weight_units_id</text>
<polygon fill="none" stroke="black" points="599.5,-355.416 599.5,-373.416 830.5,-373.416 830.5,-355.416 599.5,-355.416"/>
<text text-anchor="start" x="602.5" y="-361.616" font-family="Helvetica,sans-Serif" font-size="11.00">...</text>
<polygon fill="#ffffff" stroke="none" points="599.5,-337.416 599.5,-355.416 697.5,-355.416 697.5,-337.416 599.5,-337.416"/>
<polygon fill="none" stroke="black" points="599.5,-337.416 599.5,-355.416 697.5,-355.416 697.5,-337.416 599.5,-337.416"/>
<text text-anchor="start" x="602.5" y="-343.616" font-family="Helvetica,sans-Serif" font-size="11.00">&lt; 19</text>
<polygon fill="#ffffff" stroke="none" points="697.5,-337.416 697.5,-355.416 773.5,-355.416 773.5,-337.416 697.5,-337.416"/>
<polygon fill="none" stroke="black" points="697.5,-337.416 697.5,-355.416 773.5,-355.416 773.5,-337.416 697.5,-337.416"/>
<text text-anchor="start" x="734.5" y="-343.616" font-family="Helvetica,sans-Serif" font-size="11.00">0 rows</text>
<polygon fill="#ffffff" stroke="none" points="773.5,-337.416 773.5,-355.416 830.5,-355.416 830.5,-337.416 773.5,-337.416"/>
<polygon fill="none" stroke="black" points="773.5,-337.416 773.5,-355.416 830.5,-355.416 830.5,-337.416 773.5,-337.416"/>
<text text-anchor="start" x="810.5" y="-343.616" font-family="Helvetica,sans-Serif" font-size="11.00">8 &gt;</text>
</a>
</g>
</g>
<!-- accession_collectors&#45;&gt;accessions -->
<g id="edge1" class="edge"><title>accession_collectors:elipses:w&#45;&gt;accessions:id:e</title>
<path fill="none" stroke="black" d="M883.68,-790.896C856.942,-806.4 872.256,-868.416 831.5,-868.416"/>
<polygon fill="black" stroke="black" points="890.226,-789.305 898.85,-790.914 894.113,-788.361 898,-787.416 898,-787.416 898,-787.416 894.113,-788.361 897.15,-783.918 890.226,-789.305 890.226,-789.305"/>
<ellipse fill="none" stroke="black" cx="887.117" cy="-790.061" rx="3.2" ry="3.2"/>
</g>
<!-- users -->
<g id="node5" class="node"><title>users</title>
<g id="a_node5"><a xlink:href="../../tables/users.html" xlink:title="users" target="_top">
<polygon fill="#ffffff" stroke="none" points="8,-523.416 8,-581.416 98,-581.416 98,-523.416 8,-523.416"/>
<polygon fill="#f5f5f5" stroke="none" points="8,-559.416 8,-581.416 98,-581.416 98,-559.416 8,-559.416"/>
<polygon fill="none" stroke="black" points="8,-559.416 8,-581.416 98,-581.416 98,-559.416 8,-559.416"/>
<text text-anchor="start" x="13" y="-568.616" font-family="Helvetica,sans-Serif" font-weight="bold" font-size="11.00">users</text>
<text text-anchor="start" x="59" y="-567.616" font-family="Helvetica,sans-Serif" font-size="11.00">[table]</text>
<polygon fill="none" stroke="black" points="8,-541.416 8,-559.416 98,-559.416 98,-541.416 8,-541.416"/>
<text text-anchor="start" x="11" y="-547.616" font-family="Helvetica,sans-Serif" font-size="11.00">...</text>
<polygon fill="#ffffff" stroke="none" points="8,-523.416 8,-541.416 31,-541.416 31,-523.416 8,-523.416"/>
<polygon fill="none" stroke="black" points="8,-523.416 8,-541.416 31,-541.416 31,-523.416 8,-523.416"/>
<text text-anchor="start" x="11" y="-529.616" font-family="Helvetica,sans-Serif" font-size="11.00">&lt; 1</text>
<polygon fill="#ffffff" stroke="none" points="31,-523.416 31,-541.416 68,-541.416 68,-523.416 31,-523.416"/>
<polygon fill="none" stroke="black" points="31,-523.416 31,-541.416 68,-541.416 68,-523.416 31,-523.416"/>
<text text-anchor="start" x="34" y="-529.616" font-family="Helvetica,sans-Serif" font-size="11.00">1 row</text>
<polygon fill="#ffffff" stroke="none" points="68,-523.416 68,-541.416 98,-541.416 98,-523.416 68,-523.416"/>
<polygon fill="none" stroke="black" points="68,-523.416 68,-541.416 98,-541.416 98,-523.416 68,-523.416"/>
<text text-anchor="start" x="71" y="-529.616" font-family="Helvetica,sans-Serif" font-size="11.00">30 &gt;</text>
</a>
</g>
</g>
<!-- accessions&#45;&gt;users -->
<g id="edge12" class="edge"><title>accessions:created_by:w&#45;&gt;users:elipses:e</title>
<path fill="none" stroke="black" d="M584.523,-542.604C568.36,-556.126 585.669,-598.706 558,-615.416 518.148,-639.483 179.641,-638.126 139,-615.416 109.389,-598.869 132.921,-550.416 99,-550.416"/>
<polygon fill="black" stroke="black" points="590.837,-540.712 599.533,-541.864 594.668,-539.564 598.5,-538.416 598.5,-538.416 598.5,-538.416 594.668,-539.564 597.467,-534.967 590.837,-540.712 590.837,-540.712"/>
<ellipse fill="none" stroke="black" cx="587.771" cy="-541.631" rx="3.20001" ry="3.20001"/>
</g>
<!-- accessions&#45;&gt;users -->
<g id="edge17" class="edge"><title>accessions:modified_by:w&#45;&gt;users:elipses:e</title>
<path fill="none" stroke="black" d="M584.465,-520.927C570.181,-533.908 583.361,-571.378 558,-586.416 517.951,-610.164 181.796,-610.757 139,-592.416 115.306,-582.262 124.778,-550.416 99,-550.416"/>
<polygon fill="black" stroke="black" points="590.884,-518.864 599.602,-519.843 594.692,-517.64 598.5,-516.416 598.5,-516.416 598.5,-516.416 594.692,-517.64 597.398,-512.989 590.884,-518.864 590.884,-518.864"/>
<ellipse fill="none" stroke="black" cx="587.837" cy="-519.844" rx="3.20001" ry="3.20001"/>
</g>
<!-- seed_quantity_units -->
<g id="node6" class="node"><title>seed_quantity_units</title>
<g id="a_node6"><a xlink:href="../../tables/seed_quantity_units.html" xlink:title="seed_quantity_units" target="_top">
<polygon fill="#ffffff" stroke="none" points="369,-259.416 369,-317.416 532,-317.416 532,-259.416 369,-259.416"/>
<polygon fill="#f5f5f5" stroke="none" points="369.5,-295.416 369.5,-317.416 532.5,-317.416 532.5,-295.416 369.5,-295.416"/>
<polygon fill="none" stroke="black" points="369.5,-295.416 369.5,-317.416 532.5,-317.416 532.5,-295.416 369.5,-295.416"/>
<text text-anchor="start" x="374.5" y="-304.616" font-family="Helvetica,sans-Serif" font-weight="bold" font-size="11.00">seed_quantity_units</text>
<text text-anchor="start" x="493.5" y="-303.616" font-family="Helvetica,sans-Serif" font-size="11.00">[table]</text>
<polygon fill="none" stroke="black" points="369.5,-277.416 369.5,-295.416 532.5,-295.416 532.5,-277.416 369.5,-277.416"/>
<text text-anchor="start" x="372.5" y="-283.616" font-family="Helvetica,sans-Serif" font-size="11.00">...</text>
<polygon fill="#ffffff" stroke="none" points="369.5,-259.416 369.5,-277.416 421.5,-277.416 421.5,-259.416 369.5,-259.416"/>
<polygon fill="none" stroke="black" points="369.5,-259.416 369.5,-277.416 421.5,-277.416 421.5,-259.416 369.5,-259.416"/>
<text text-anchor="start" x="372.5" y="-265.616" font-family="Helvetica,sans-Serif" font-size="11.00"> &#160;</text>
<polygon fill="#ffffff" stroke="none" points="421.5,-259.416 421.5,-277.416 482.5,-277.416 482.5,-259.416 421.5,-259.416"/>
<polygon fill="none" stroke="black" points="421.5,-259.416 421.5,-277.416 482.5,-277.416 482.5,-259.416 421.5,-259.416"/>
<text text-anchor="start" x="443.5" y="-265.616" font-family="Helvetica,sans-Serif" font-size="11.00">6 rows</text>
<polygon fill="#ffffff" stroke="none" points="482.5,-259.416 482.5,-277.416 532.5,-277.416 532.5,-259.416 482.5,-259.416"/>
<polygon fill="none" stroke="black" points="482.5,-259.416 482.5,-277.416 532.5,-277.416 532.5,-259.416 482.5,-259.416"/>
<text text-anchor="start" x="505.5" y="-265.616" font-family="Helvetica,sans-Serif" font-size="11.00">10 &gt;</text>
</a>
</g>
</g>
<!-- accessions&#45;&gt;seed_quantity_units -->
<g id="edge14" class="edge"><title>accessions:est_weight_units_id:w&#45;&gt;seed_quantity_units:elipses:e</title>
<path fill="none" stroke="black" d="M584.405,-381.155C553.784,-364.151 580.049,-286.416 533.5,-286.416"/>
<polygon fill="black" stroke="black" points="590.706,-382.613 597.689,-387.923 594.603,-383.514 598.5,-384.416 598.5,-384.416 598.5,-384.416 594.603,-383.514 599.311,-380.909 590.706,-382.613 590.706,-382.613"/>
<ellipse fill="none" stroke="black" cx="587.588" cy="-381.892" rx="3.2" ry="3.2"/>
</g>
<!-- accessions&#45;&gt;seed_quantity_units -->
<g id="edge16" class="edge"><title>accessions:latest_observed_units_id:w&#45;&gt;seed_quantity_units:elipses:e</title>
<path fill="none" stroke="black" d="M584.332,-403.45C547.375,-384.971 588.468,-286.416 533.5,-286.416"/>
<polygon fill="black" stroke="black" points="590.67,-404.777 597.762,-409.94 594.585,-405.596 598.5,-406.416 598.5,-406.416 598.5,-406.416 594.585,-405.596 599.238,-402.892 590.67,-404.777 590.67,-404.777"/>
<ellipse fill="none" stroke="black" cx="587.538" cy="-404.121" rx="3.2" ry="3.2"/>
</g>
<!-- accessions&#45;&gt;seed_quantity_units -->
<g id="edge20" class="edge"><title>accessions:remaining_units_id:w&#45;&gt;seed_quantity_units:elipses:e</title>
<path fill="none" stroke="black" d="M584.818,-599.421C537.303,-558.965 600.275,-286.416 533.5,-286.416"/>
<polygon fill="black" stroke="black" points="590.985,-601.672 597.265,-607.798 594.743,-603.044 598.5,-604.416 598.5,-604.416 598.5,-604.416 594.743,-603.044 599.735,-601.034 590.985,-601.672 590.985,-601.672"/>
<ellipse fill="none" stroke="black" cx="587.979" cy="-600.575" rx="3.20001" ry="3.20001"/>
</g>
<!-- accessions&#45;&gt;seed_quantity_units -->
<g id="edge26" class="edge"><title>accessions:subset_weight_units_id:w&#45;&gt;seed_quantity_units:elipses:e</title>
<path fill="none" stroke="black" d="M584.817,-577.026C541.438,-536.908 595.452,-286.416 533.5,-286.416"/>
<polygon fill="black" stroke="black" points="591.057,-579.484 597.18,-585.765 594.778,-580.95 598.5,-582.416 598.5,-582.416 598.5,-582.416 594.778,-580.95 599.82,-579.066 591.057,-579.484 591.057,-579.484"/>
<ellipse fill="none" stroke="black" cx="588.079" cy="-578.311" rx="3.20001" ry="3.20001"/>
</g>
<!-- accessions&#45;&gt;seed_quantity_units -->
<g id="edge28" class="edge"><title>accessions:total_units_id:w&#45;&gt;seed_quantity_units:elipses:e</title>
<path fill="none" stroke="black" d="M584.93,-554.693C545.354,-515.346 590.701,-286.416 533.5,-286.416"/>
<polygon fill="black" stroke="black" points="591.129,-557.307 597.101,-563.733 594.814,-558.862 598.5,-560.416 598.5,-560.416 598.5,-560.416 594.814,-558.862 599.899,-557.099 591.129,-557.307 591.129,-557.307"/>
<ellipse fill="none" stroke="black" cx="588.18" cy="-556.064" rx="3.20001" ry="3.20001"/>
</g>
<!-- accession_states -->
<g id="node8" class="node"><title>accession_states</title>
<g id="a_node8"><a xlink:href="../../tables/accession_states.html" xlink:title="accession_states" target="_top">
<polygon fill="#ffffff" stroke="none" points="379.5,-153.416 379.5,-211.416 521.5,-211.416 521.5,-153.416 379.5,-153.416"/>
<polygon fill="#f5f5f5" stroke="none" points="379.5,-189.416 379.5,-211.416 521.5,-211.416 521.5,-189.416 379.5,-189.416"/>
<polygon fill="none" stroke="black" points="379.5,-189.416 379.5,-211.416 521.5,-211.416 521.5,-189.416 379.5,-189.416"/>
<text text-anchor="start" x="384.5" y="-198.616" font-family="Helvetica,sans-Serif" font-weight="bold" font-size="11.00">accession_states</text>
<text text-anchor="start" x="482.5" y="-197.616" font-family="Helvetica,sans-Serif" font-size="11.00">[table]</text>
<polygon fill="none" stroke="black" points="379.5,-171.416 379.5,-189.416 521.5,-189.416 521.5,-171.416 379.5,-171.416"/>
<text text-anchor="start" x="382.5" y="-177.616" font-family="Helvetica,sans-Serif" font-size="11.00">...</text>
<polygon fill="#ffffff" stroke="none" points="379.5,-153.416 379.5,-171.416 420.5,-171.416 420.5,-153.416 379.5,-153.416"/>
<polygon fill="none" stroke="black" points="379.5,-153.416 379.5,-171.416 420.5,-171.416 420.5,-153.416 379.5,-153.416"/>
<text text-anchor="start" x="382.5" y="-159.616" font-family="Helvetica,sans-Serif" font-size="11.00"> &#160;</text>
<polygon fill="#ffffff" stroke="none" points="420.5,-153.416 420.5,-171.416 483.5,-171.416 483.5,-153.416 420.5,-153.416"/>
<polygon fill="none" stroke="black" points="420.5,-153.416 420.5,-171.416 483.5,-171.416 483.5,-153.416 420.5,-153.416"/>
<text text-anchor="start" x="437.5" y="-159.616" font-family="Helvetica,sans-Serif" font-size="11.00">12 rows</text>
<polygon fill="#ffffff" stroke="none" points="483.5,-153.416 483.5,-171.416 521.5,-171.416 521.5,-153.416 483.5,-153.416"/>
<polygon fill="none" stroke="black" points="483.5,-153.416 483.5,-171.416 521.5,-171.416 521.5,-153.416 483.5,-153.416"/>
<text text-anchor="start" x="501.5" y="-159.616" font-family="Helvetica,sans-Serif" font-size="11.00">3 &gt;</text>
</a>
</g>
</g>
<!-- accessions&#45;&gt;accession_states -->
<g id="edge24" class="edge"><title>accessions:state_id:w&#45;&gt;accession_states:elipses:e</title>
<path fill="none" stroke="black" d="M586.264,-772.144C544.386,-708.748 573.027,-300.96 558,-248.416 548.625,-215.637 556.593,-180.416 522.5,-180.416"/>
<polygon fill="black" stroke="black" points="591.872,-775.935 596.484,-783.398 595.186,-778.176 598.5,-780.416 598.5,-780.416 598.5,-780.416 595.186,-778.176 600.516,-777.434 591.872,-775.935 591.872,-775.935"/>
<ellipse fill="none" stroke="black" cx="589.221" cy="-774.143" rx="3.20001" ry="3.20001"/>
</g>
<!-- countries -->
<g id="node9" class="node"><title>countries</title>
<g id="a_node9"><a xlink:href="../../tables/countries.html" xlink:title="countries" target="_top">
<polygon fill="#ffffff" stroke="none" points="399,-496.416 399,-554.416 502,-554.416 502,-496.416 399,-496.416"/>
<polygon fill="#f5f5f5" stroke="none" points="399.5,-532.416 399.5,-554.416 502.5,-554.416 502.5,-532.416 399.5,-532.416"/>
<polygon fill="none" stroke="black" points="399.5,-532.416 399.5,-554.416 502.5,-554.416 502.5,-532.416 399.5,-532.416"/>
<text text-anchor="start" x="404.5" y="-541.616" font-family="Helvetica,sans-Serif" font-weight="bold" font-size="11.00">countries</text>
<text text-anchor="start" x="463.5" y="-540.616" font-family="Helvetica,sans-Serif" font-size="11.00">[table]</text>
<polygon fill="none" stroke="black" points="399.5,-514.416 399.5,-532.416 502.5,-532.416 502.5,-514.416 399.5,-514.416"/>
<text text-anchor="start" x="402.5" y="-520.616" font-family="Helvetica,sans-Serif" font-size="11.00">...</text>
<polygon fill="#ffffff" stroke="none" points="399.5,-496.416 399.5,-514.416 418.5,-514.416 418.5,-496.416 399.5,-496.416"/>
<polygon fill="none" stroke="black" points="399.5,-496.416 399.5,-514.416 418.5,-514.416 418.5,-496.416 399.5,-496.416"/>
<text text-anchor="start" x="402.5" y="-502.616" font-family="Helvetica,sans-Serif" font-size="11.00"> &#160;</text>
<polygon fill="#ffffff" stroke="none" points="418.5,-496.416 418.5,-514.416 476.5,-514.416 476.5,-496.416 418.5,-496.416"/>
<polygon fill="none" stroke="black" points="418.5,-496.416 418.5,-514.416 476.5,-514.416 476.5,-496.416 418.5,-496.416"/>
<text text-anchor="start" x="424.5" y="-502.616" font-family="Helvetica,sans-Serif" font-size="11.00">249 rows</text>
<polygon fill="#ffffff" stroke="none" points="476.5,-496.416 476.5,-514.416 502.5,-514.416 502.5,-496.416 476.5,-496.416"/>
<polygon fill="none" stroke="black" points="476.5,-496.416 476.5,-514.416 502.5,-514.416 502.5,-496.416 476.5,-496.416"/>
<text text-anchor="start" x="482.5" y="-502.616" font-family="Helvetica,sans-Serif" font-size="11.00">3 &gt;</text>
</a>
</g>
</g>
<!-- accessions&#45;&gt;countries -->
<g id="edge10" class="edge"><title>accessions:collection_site_country_code:w&#45;&gt;countries:elipses:e</title>
<path fill="none" stroke="black" d="M583.95,-474.231C550.144,-483.316 545.993,-523.416 503.5,-523.416"/>
<polygon fill="black" stroke="black" points="590.562,-473.406 598.946,-475.988 594.531,-472.911 598.5,-472.416 598.5,-472.416 598.5,-472.416 594.531,-472.911 598.054,-468.844 590.562,-473.406 590.562,-473.406"/>
<ellipse fill="none" stroke="black" cx="587.386" cy="-473.802" rx="3.2" ry="3.2"/>
</g>
<!-- collection_sources -->
<g id="node10" class="node"><title>collection_sources</title>
<g id="a_node10"><a xlink:href="../../tables/collection_sources.html" xlink:title="collection_sources" target="_top">
<polygon fill="#ffffff" stroke="none" points="374.5,-417.416 374.5,-475.416 526.5,-475.416 526.5,-417.416 374.5,-417.416"/>
<polygon fill="#f5f5f5" stroke="none" points="374.5,-453.416 374.5,-475.416 526.5,-475.416 526.5,-453.416 374.5,-453.416"/>
<polygon fill="none" stroke="black" points="374.5,-453.416 374.5,-475.416 526.5,-475.416 526.5,-453.416 374.5,-453.416"/>
<text text-anchor="start" x="379.5" y="-462.616" font-family="Helvetica,sans-Serif" font-weight="bold" font-size="11.00">collection_sources</text>
<text text-anchor="start" x="487.5" y="-461.616" font-family="Helvetica,sans-Serif" font-size="11.00">[table]</text>
<polygon fill="none" stroke="black" points="374.5,-435.416 374.5,-453.416 526.5,-453.416 526.5,-435.416 374.5,-435.416"/>
<text text-anchor="start" x="377.5" y="-441.616" font-family="Helvetica,sans-Serif" font-size="11.00">...</text>
<polygon fill="#ffffff" stroke="none" points="374.5,-417.416 374.5,-435.416 424.5,-435.416 424.5,-417.416 374.5,-417.416"/>
<polygon fill="none" stroke="black" points="374.5,-417.416 374.5,-435.416 424.5,-435.416 424.5,-417.416 374.5,-417.416"/>
<text text-anchor="start" x="377.5" y="-423.616" font-family="Helvetica,sans-Serif" font-size="11.00"> &#160;</text>
<polygon fill="#ffffff" stroke="none" points="424.5,-417.416 424.5,-435.416 484.5,-435.416 484.5,-417.416 424.5,-417.416"/>
<polygon fill="none" stroke="black" points="424.5,-417.416 424.5,-435.416 484.5,-435.416 484.5,-417.416 424.5,-417.416"/>
<text text-anchor="start" x="445.5" y="-423.616" font-family="Helvetica,sans-Serif" font-size="11.00">4 rows</text>
<polygon fill="#ffffff" stroke="none" points="484.5,-417.416 484.5,-435.416 526.5,-435.416 526.5,-417.416 484.5,-417.416"/>
<polygon fill="none" stroke="black" points="484.5,-417.416 484.5,-435.416 526.5,-435.416 526.5,-417.416 484.5,-417.416"/>
<text text-anchor="start" x="506.5" y="-423.616" font-family="Helvetica,sans-Serif" font-size="11.00">1 &gt;</text>
</a>
</g>
</g>
<!-- accessions&#45;&gt;collection_sources -->
<g id="edge11" class="edge"><title>accessions:collection_source_id:w&#45;&gt;collection_sources:elipses:e</title>
<path fill="none" stroke="black" d="M584.055,-449.945C563.488,-448.531 553.725,-444.416 527.5,-444.416"/>
<polygon fill="black" stroke="black" points="590.504,-450.155 598.383,-454.014 594.502,-450.286 598.5,-450.416 598.5,-450.416 598.5,-450.416 594.502,-450.286 598.617,-446.818 590.504,-450.155 590.504,-450.155"/>
<ellipse fill="none" stroke="black" cx="587.306" cy="-450.051" rx="3.2" ry="3.2"/>
</g>
<!-- data_sources -->
<g id="node11" class="node"><title>data_sources</title>
<g id="a_node11"><a xlink:href="../../tables/data_sources.html" xlink:title="data_sources" target="_top">
<polygon fill="#ffffff" stroke="none" points="389.5,-338.416 389.5,-396.416 511.5,-396.416 511.5,-338.416 389.5,-338.416"/>
<polygon fill="#f5f5f5" stroke="none" points="389.5,-374.416 389.5,-396.416 511.5,-396.416 511.5,-374.416 389.5,-374.416"/>
<polygon fill="none" stroke="black" points="389.5,-374.416 389.5,-396.416 511.5,-396.416 511.5,-374.416 389.5,-374.416"/>
<text text-anchor="start" x="394.5" y="-383.616" font-family="Helvetica,sans-Serif" font-weight="bold" font-size="11.00">data_sources</text>
<text text-anchor="start" x="472.5" y="-382.616" font-family="Helvetica,sans-Serif" font-size="11.00">[table]</text>
<polygon fill="none" stroke="black" points="389.5,-356.416 389.5,-374.416 511.5,-374.416 511.5,-356.416 389.5,-356.416"/>
<text text-anchor="start" x="392.5" y="-362.616" font-family="Helvetica,sans-Serif" font-size="11.00">...</text>
<polygon fill="#ffffff" stroke="none" points="389.5,-338.416 389.5,-356.416 424.5,-356.416 424.5,-338.416 389.5,-338.416"/>
<polygon fill="none" stroke="black" points="389.5,-338.416 389.5,-356.416 424.5,-356.416 424.5,-338.416 389.5,-338.416"/>
<text text-anchor="start" x="392.5" y="-344.616" font-family="Helvetica,sans-Serif" font-size="11.00"> &#160;</text>
<polygon fill="#ffffff" stroke="none" points="424.5,-338.416 424.5,-356.416 477.5,-356.416 477.5,-338.416 424.5,-338.416"/>
<polygon fill="none" stroke="black" points="424.5,-338.416 424.5,-356.416 477.5,-356.416 477.5,-338.416 424.5,-338.416"/>
<text text-anchor="start" x="438.5" y="-344.616" font-family="Helvetica,sans-Serif" font-size="11.00">3 rows</text>
<polygon fill="#ffffff" stroke="none" points="477.5,-338.416 477.5,-356.416 511.5,-356.416 511.5,-338.416 477.5,-338.416"/>
<polygon fill="none" stroke="black" points="477.5,-338.416 477.5,-356.416 511.5,-356.416 511.5,-338.416 477.5,-338.416"/>
<text text-anchor="start" x="491.5" y="-344.616" font-family="Helvetica,sans-Serif" font-size="11.00">1 &gt;</text>
</a>
</g>
</g>
<!-- accessions&#45;&gt;data_sources -->
<g id="edge13" class="edge"><title>accessions:data_source_id:w&#45;&gt;data_sources:elipses:e</title>
<path fill="none" stroke="black" d="M583.975,-426.023C552.402,-414.516 554.328,-365.416 512.5,-365.416"/>
<polygon fill="black" stroke="black" points="590.606,-427.116 597.915,-431.968 594.553,-427.766 598.5,-428.416 598.5,-428.416 598.5,-428.416 594.553,-427.766 599.085,-424.864 590.606,-427.116 590.606,-427.116"/>
<ellipse fill="none" stroke="black" cx="587.449" cy="-426.595" rx="3.2" ry="3.2"/>
</g>
<!-- facilities -->
<g id="node12" class="node"><title>facilities</title>
<g id="a_node12"><a xlink:href="../../tables/facilities.html" xlink:title="facilities" target="_top">
<polygon fill="#ffffff" stroke="none" points="175.5,-1027.42 175.5,-1085.42 273.5,-1085.42 273.5,-1027.42 175.5,-1027.42"/>
<polygon fill="#f5f5f5" stroke="none" points="175.5,-1063.42 175.5,-1085.42 273.5,-1085.42 273.5,-1063.42 175.5,-1063.42"/>
<polygon fill="none" stroke="black" points="175.5,-1063.42 175.5,-1085.42 273.5,-1085.42 273.5,-1063.42 175.5,-1063.42"/>
<text text-anchor="start" x="180.5" y="-1072.62" font-family="Helvetica,sans-Serif" font-weight="bold" font-size="11.00">facilities</text>
<text text-anchor="start" x="234.5" y="-1071.62" font-family="Helvetica,sans-Serif" font-size="11.00">[table]</text>
<polygon fill="none" stroke="black" points="175.5,-1045.42 175.5,-1063.42 273.5,-1063.42 273.5,-1045.42 175.5,-1045.42"/>
<text text-anchor="start" x="178.5" y="-1051.62" font-family="Helvetica,sans-Serif" font-size="11.00">...</text>
<polygon fill="#ffffff" stroke="none" points="175.5,-1027.42 175.5,-1045.42 203.5,-1045.42 203.5,-1027.42 175.5,-1027.42"/>
<polygon fill="none" stroke="black" points="175.5,-1027.42 175.5,-1045.42 203.5,-1045.42 203.5,-1027.42 175.5,-1027.42"/>
<text text-anchor="start" x="178.5" y="-1033.62" font-family="Helvetica,sans-Serif" font-size="11.00">&lt; 5</text>
<polygon fill="#ffffff" stroke="none" points="203.5,-1027.42 203.5,-1045.42 247.5,-1045.42 247.5,-1027.42 203.5,-1027.42"/>
<polygon fill="none" stroke="black" points="203.5,-1027.42 203.5,-1045.42 247.5,-1045.42 247.5,-1027.42 203.5,-1027.42"/>
<text text-anchor="start" x="208.5" y="-1033.62" font-family="Helvetica,sans-Serif" font-size="11.00">0 rows</text>
<polygon fill="#ffffff" stroke="none" points="247.5,-1027.42 247.5,-1045.42 273.5,-1045.42 273.5,-1027.42 247.5,-1027.42"/>
<polygon fill="none" stroke="black" points="247.5,-1027.42 247.5,-1045.42 273.5,-1045.42 273.5,-1027.42 247.5,-1027.42"/>
<text text-anchor="start" x="253.5" y="-1033.62" font-family="Helvetica,sans-Serif" font-size="11.00">5 &gt;</text>
</a>
</g>
</g>
<!-- accessions&#45;&gt;facilities -->
<g id="edge15" class="edge"><title>accessions:facility_id:w&#45;&gt;facilities:elipses:e</title>
<path fill="none" stroke="black" d="M585.001,-852.207C552.403,-886.748 596.955,-1065.22 558,-1098.42 485.269,-1160.39 434.688,-1125.33 343,-1098.42 308.281,-1088.23 310.684,-1054.42 274.5,-1054.42"/>
<polygon fill="black" stroke="black" points="591.148,-849.57 599.919,-849.724 594.824,-847.993 598.5,-846.416 598.5,-846.416 598.5,-846.416 594.824,-847.993 597.081,-843.108 591.148,-849.57 591.148,-849.57"/>
<ellipse fill="none" stroke="black" cx="588.207" cy="-850.832" rx="3.20001" ry="3.20001"/>
</g>
<!-- processing_methods -->
<g id="node13" class="node"><title>processing_methods</title>
<g id="a_node13"><a xlink:href="../../tables/processing_methods.html" xlink:title="processing_methods" target="_top">
<polygon fill="#ffffff" stroke="none" points="369,-950.416 369,-1008.42 532,-1008.42 532,-950.416 369,-950.416"/>
<polygon fill="#f5f5f5" stroke="none" points="369.5,-986.416 369.5,-1008.42 532.5,-1008.42 532.5,-986.416 369.5,-986.416"/>
<polygon fill="none" stroke="black" points="369.5,-986.416 369.5,-1008.42 532.5,-1008.42 532.5,-986.416 369.5,-986.416"/>
<text text-anchor="start" x="374.5" y="-995.616" font-family="Helvetica,sans-Serif" font-weight="bold" font-size="11.00">processing_methods</text>
<text text-anchor="start" x="493.5" y="-994.616" font-family="Helvetica,sans-Serif" font-size="11.00">[table]</text>
<polygon fill="none" stroke="black" points="369.5,-968.416 369.5,-986.416 532.5,-986.416 532.5,-968.416 369.5,-968.416"/>
<text text-anchor="start" x="372.5" y="-974.616" font-family="Helvetica,sans-Serif" font-size="11.00">...</text>
<polygon fill="#ffffff" stroke="none" points="369.5,-950.416 369.5,-968.416 424.5,-968.416 424.5,-950.416 369.5,-950.416"/>
<polygon fill="none" stroke="black" points="369.5,-950.416 369.5,-968.416 424.5,-968.416 424.5,-950.416 369.5,-950.416"/>
<text text-anchor="start" x="372.5" y="-956.616" font-family="Helvetica,sans-Serif" font-size="11.00"> &#160;</text>
<polygon fill="#ffffff" stroke="none" points="424.5,-950.416 424.5,-968.416 487.5,-968.416 487.5,-950.416 424.5,-950.416"/>
<polygon fill="none" stroke="black" points="424.5,-950.416 424.5,-968.416 487.5,-968.416 487.5,-950.416 424.5,-950.416"/>
<text text-anchor="start" x="448.5" y="-956.616" font-family="Helvetica,sans-Serif" font-size="11.00">2 rows</text>
<polygon fill="#ffffff" stroke="none" points="487.5,-950.416 487.5,-968.416 532.5,-968.416 532.5,-950.416 487.5,-950.416"/>
<polygon fill="none" stroke="black" points="487.5,-950.416 487.5,-968.416 532.5,-968.416 532.5,-950.416 487.5,-950.416"/>
<text text-anchor="start" x="512.5" y="-956.616" font-family="Helvetica,sans-Serif" font-size="11.00">1 &gt;</text>
</a>
</g>
</g>
<!-- accessions&#45;&gt;processing_methods -->
<g id="edge18" class="edge"><title>accessions:processing_method_id:w&#45;&gt;processing_methods:elipses:e</title>
<path fill="none" stroke="black" d="M584.905,-720.403C547.32,-759.551 588.294,-977.416 533.5,-977.416"/>
<polygon fill="black" stroke="black" points="591.179,-717.64 599.951,-717.711 594.839,-716.028 598.5,-714.416 598.5,-714.416 598.5,-714.416 594.839,-716.028 597.049,-711.121 591.179,-717.64 591.179,-717.64"/>
<ellipse fill="none" stroke="black" cx="588.25" cy="-718.93" rx="3.20001" ry="3.20001"/>
</g>
<!-- rare_types -->
<g id="node14" class="node"><title>rare_types</title>
<g id="a_node14"><a xlink:href="../../tables/rare_types.html" xlink:title="rare_types" target="_top">
<polygon fill="#ffffff" stroke="none" points="356.5,-735.416 356.5,-823.416 544.5,-823.416 544.5,-735.416 356.5,-735.416"/>
<polygon fill="#f5f5f5" stroke="none" points="358.5,-799.416 358.5,-821.416 542.5,-821.416 542.5,-799.416 358.5,-799.416"/>
<polygon fill="none" stroke="black" points="358.5,-799.416 358.5,-821.416 542.5,-821.416 542.5,-799.416 358.5,-799.416"/>
<text text-anchor="start" x="363.5" y="-808.616" font-family="Helvetica,sans-Serif" font-weight="bold" font-size="11.00">rare_types</text>
<text text-anchor="start" x="503.5" y="-807.616" font-family="Helvetica,sans-Serif" font-size="11.00">[table]</text>
<polygon fill="none" stroke="black" points="358.5,-777.416 358.5,-799.416 441.5,-799.416 441.5,-777.416 358.5,-777.416"/>
<image xlink:href="../../images/primaryKeys.png" width="11px" height="12px" preserveAspectRatio="xMinYMin meet" x="363.5" y="-794.416"/>
<text text-anchor="start" x="378.5" y="-785.616" font-family="Helvetica,sans-Serif" font-size="11.00">id</text>
<polygon fill="none" stroke="black" points="441.5,-777.416 441.5,-799.416 542.5,-799.416 542.5,-777.416 441.5,-777.416"/>
<text text-anchor="start" x="444.5" y="-785.616" font-family="Helvetica,sans-Serif" font-size="11.00">int4[10]</text>
<polygon fill="none" stroke="black" points="358.5,-755.416 358.5,-777.416 441.5,-777.416 441.5,-755.416 358.5,-755.416"/>
<text text-anchor="start" x="378.5" y="-763.616" font-family="Helvetica,sans-Serif" font-size="11.00">name</text>
<polygon fill="none" stroke="black" points="441.5,-755.416 441.5,-777.416 542.5,-777.416 542.5,-755.416 441.5,-755.416"/>
<text text-anchor="start" x="444.5" y="-763.616" font-family="Helvetica,sans-Serif" font-size="11.00">text[2147483647]</text>
<polygon fill="#ffffff" stroke="none" points="358.5,-737.416 358.5,-755.416 390.5,-755.416 390.5,-737.416 358.5,-737.416"/>
<polygon fill="none" stroke="black" points="358.5,-737.416 358.5,-755.416 390.5,-755.416 390.5,-737.416 358.5,-737.416"/>
<text text-anchor="start" x="361.5" y="-743.616" font-family="Helvetica,sans-Serif" font-size="11.00">&lt; 0</text>
<polygon fill="#ffffff" stroke="none" points="390.5,-737.416 390.5,-755.416 441.5,-755.416 441.5,-737.416 390.5,-737.416"/>
<polygon fill="none" stroke="black" points="390.5,-737.416 390.5,-755.416 441.5,-755.416 441.5,-737.416 390.5,-737.416"/>
<text text-anchor="start" x="402.5" y="-743.616" font-family="Helvetica,sans-Serif" font-size="11.00">3 rows</text>
<polygon fill="#ffffff" stroke="none" points="441.5,-737.416 441.5,-755.416 542.5,-755.416 542.5,-737.416 441.5,-737.416"/>
<polygon fill="none" stroke="black" points="441.5,-737.416 441.5,-755.416 542.5,-755.416 542.5,-737.416 441.5,-737.416"/>
<text text-anchor="start" x="522.5" y="-743.616" font-family="Helvetica,sans-Serif" font-size="11.00">1 &gt;</text>
<polygon fill="none" stroke="black" stroke-width="2" points="357.5,-736.416 357.5,-822.416 543.5,-822.416 543.5,-736.416 357.5,-736.416"/>
</a>
</g>
</g>
<!-- accessions&#45;&gt;rare_types -->
<g id="edge19" class="edge"><title>accessions:rare_type_id:w&#45;&gt;rare_types:id.type:e</title>
<path fill="none" stroke="black" d="M584.305,-651.34C544.101,-671.445 604.607,-788.416 543.5,-788.416"/>
<polygon fill="black" stroke="black" points="590.665,-650.03 599.226,-651.942 594.582,-649.223 598.5,-648.416 598.5,-648.416 598.5,-648.416 594.582,-649.223 597.774,-644.89 590.665,-650.03 590.665,-650.03"/>
<ellipse fill="none" stroke="black" cx="587.53" cy="-650.676" rx="3.2" ry="3.2"/>
</g>
<!-- source_plant_origins -->
<g id="node15" class="node"><title>source_plant_origins</title>
<g id="a_node15"><a xlink:href="../../tables/source_plant_origins.html" xlink:title="source_plant_origins" target="_top">
<polygon fill="#ffffff" stroke="none" points="368.5,-656.416 368.5,-714.416 532.5,-714.416 532.5,-656.416 368.5,-656.416"/>
<polygon fill="#f5f5f5" stroke="none" points="368.5,-692.416 368.5,-714.416 532.5,-714.416 532.5,-692.416 368.5,-692.416"/>
<polygon fill="none" stroke="black" points="368.5,-692.416 368.5,-714.416 532.5,-714.416 532.5,-692.416 368.5,-692.416"/>
<text text-anchor="start" x="373.5" y="-701.616" font-family="Helvetica,sans-Serif" font-weight="bold" font-size="11.00">source_plant_origins</text>
<text text-anchor="start" x="493.5" y="-700.616" font-family="Helvetica,sans-Serif" font-size="11.00">[table]</text>
<polygon fill="none" stroke="black" points="368.5,-674.416 368.5,-692.416 532.5,-692.416 532.5,-674.416 368.5,-674.416"/>
<text text-anchor="start" x="371.5" y="-680.616" font-family="Helvetica,sans-Serif" font-size="11.00">...</text>
<polygon fill="#ffffff" stroke="none" points="368.5,-656.416 368.5,-674.416 424.5,-674.416 424.5,-656.416 368.5,-656.416"/>
<polygon fill="none" stroke="black" points="368.5,-656.416 368.5,-674.416 424.5,-674.416 424.5,-656.416 368.5,-656.416"/>
<text text-anchor="start" x="371.5" y="-662.616" font-family="Helvetica,sans-Serif" font-size="11.00"> &#160;</text>
<polygon fill="#ffffff" stroke="none" points="424.5,-656.416 424.5,-674.416 487.5,-674.416 487.5,-656.416 424.5,-656.416"/>
<polygon fill="none" stroke="black" points="424.5,-656.416 424.5,-674.416 487.5,-674.416 487.5,-656.416 424.5,-656.416"/>
<text text-anchor="start" x="448.5" y="-662.616" font-family="Helvetica,sans-Serif" font-size="11.00">2 rows</text>
<polygon fill="#ffffff" stroke="none" points="487.5,-656.416 487.5,-674.416 532.5,-674.416 532.5,-656.416 487.5,-656.416"/>
<polygon fill="none" stroke="black" points="487.5,-656.416 487.5,-674.416 532.5,-674.416 532.5,-656.416 487.5,-656.416"/>
<text text-anchor="start" x="512.5" y="-662.616" font-family="Helvetica,sans-Serif" font-size="11.00">1 &gt;</text>
</a>
</g>
</g>
<!-- accessions&#45;&gt;source_plant_origins -->
<g id="edge21" class="edge"><title>accessions:source_plant_origin_id:w&#45;&gt;source_plant_origins:elipses:e</title>
<path fill="none" stroke="black" d="M584.384,-629.811C562.486,-642.082 566.22,-683.416 533.5,-683.416"/>
<polygon fill="black" stroke="black" points="590.722,-628.287 599.342,-629.916 594.611,-627.351 598.5,-626.416 598.5,-626.416 598.5,-626.416 594.611,-627.351 597.658,-622.916 590.722,-628.287 590.722,-628.287"/>
<ellipse fill="none" stroke="black" cx="587.61" cy="-629.035" rx="3.2" ry="3.2"/>
</g>
<!-- species_endangered_types -->
<g id="node16" class="node"><title>species_endangered_types</title>
<g id="a_node16"><a xlink:href="../../tables/species_endangered_types.html" xlink:title="species_endangered_types" target="_top">
<polygon fill="#ffffff" stroke="none" points="351,-844.416 351,-902.416 550,-902.416 550,-844.416 351,-844.416"/>
<polygon fill="#f5f5f5" stroke="none" points="351.5,-880.416 351.5,-902.416 550.5,-902.416 550.5,-880.416 351.5,-880.416"/>
<polygon fill="none" stroke="black" points="351.5,-880.416 351.5,-902.416 550.5,-902.416 550.5,-880.416 351.5,-880.416"/>
<text text-anchor="start" x="356.5" y="-889.616" font-family="Helvetica,sans-Serif" font-weight="bold" font-size="11.00">species_endangered_types</text>
<text text-anchor="start" x="511.5" y="-888.616" font-family="Helvetica,sans-Serif" font-size="11.00">[table]</text>
<polygon fill="none" stroke="black" points="351.5,-862.416 351.5,-880.416 550.5,-880.416 550.5,-862.416 351.5,-862.416"/>
<text text-anchor="start" x="354.5" y="-868.616" font-family="Helvetica,sans-Serif" font-size="11.00">...</text>
<polygon fill="#ffffff" stroke="none" points="351.5,-844.416 351.5,-862.416 424.5,-862.416 424.5,-844.416 351.5,-844.416"/>
<polygon fill="none" stroke="black" points="351.5,-844.416 351.5,-862.416 424.5,-862.416 424.5,-844.416 351.5,-844.416"/>
<text text-anchor="start" x="354.5" y="-850.616" font-family="Helvetica,sans-Serif" font-size="11.00"> &#160;</text>
<polygon fill="#ffffff" stroke="none" points="424.5,-844.416 424.5,-862.416 496.5,-862.416 496.5,-844.416 424.5,-844.416"/>
<polygon fill="none" stroke="black" points="424.5,-844.416 424.5,-862.416 496.5,-862.416 496.5,-844.416 424.5,-844.416"/>
<text text-anchor="start" x="457.5" y="-850.616" font-family="Helvetica,sans-Serif" font-size="11.00">3 rows</text>
<polygon fill="#ffffff" stroke="none" points="496.5,-844.416 496.5,-862.416 550.5,-862.416 550.5,-844.416 496.5,-844.416"/>
<polygon fill="none" stroke="black" points="496.5,-844.416 496.5,-862.416 550.5,-862.416 550.5,-844.416 496.5,-844.416"/>
<text text-anchor="start" x="530.5" y="-850.616" font-family="Helvetica,sans-Serif" font-size="11.00">1 &gt;</text>
</a>
</g>
</g>
<!-- accessions&#45;&gt;species_endangered_types -->
<g id="edge22" class="edge"><title>accessions:species_endangered_type_id:w&#45;&gt;species_endangered_types:elipses:e</title>
<path fill="none" stroke="black" d="M584.244,-672.537C522.448,-694.019 637.688,-871.416 551.5,-871.416"/>
<polygon fill="black" stroke="black" points="590.587,-671.594 599.03,-673.977 594.544,-671.005 598.5,-670.416 598.5,-670.416 598.5,-670.416 594.544,-671.005 597.97,-666.855 590.587,-671.594 590.587,-671.594"/>
<ellipse fill="none" stroke="black" cx="587.422" cy="-672.065" rx="3.2" ry="3.2"/>
</g>
<!-- species -->
<g id="node17" class="node"><title>species</title>
<g id="a_node17"><a xlink:href="../../tables/species.html" xlink:title="species" target="_top">
<polygon fill="#ffffff" stroke="none" points="179.5,-523.416 179.5,-581.416 269.5,-581.416 269.5,-523.416 179.5,-523.416"/>
<polygon fill="#f5f5f5" stroke="none" points="179.5,-559.416 179.5,-581.416 269.5,-581.416 269.5,-559.416 179.5,-559.416"/>
<polygon fill="none" stroke="black" points="179.5,-559.416 179.5,-581.416 269.5,-581.416 269.5,-559.416 179.5,-559.416"/>
<text text-anchor="start" x="184.5" y="-568.616" font-family="Helvetica,sans-Serif" font-weight="bold" font-size="11.00">species</text>
<text text-anchor="start" x="230.5" y="-567.616" font-family="Helvetica,sans-Serif" font-size="11.00">[table]</text>
<polygon fill="none" stroke="black" points="179.5,-541.416 179.5,-559.416 269.5,-559.416 269.5,-541.416 179.5,-541.416"/>
<text text-anchor="start" x="182.5" y="-547.616" font-family="Helvetica,sans-Serif" font-size="11.00">...</text>
<polygon fill="#ffffff" stroke="none" points="179.5,-523.416 179.5,-541.416 203.5,-541.416 203.5,-523.416 179.5,-523.416"/>
<polygon fill="none" stroke="black" points="179.5,-523.416 179.5,-541.416 203.5,-541.416 203.5,-523.416 179.5,-523.416"/>
<text text-anchor="start" x="182.5" y="-529.616" font-family="Helvetica,sans-Serif" font-size="11.00">&lt; 6</text>
<polygon fill="#ffffff" stroke="none" points="203.5,-523.416 203.5,-541.416 245.5,-541.416 245.5,-523.416 203.5,-523.416"/>
<polygon fill="none" stroke="black" points="203.5,-523.416 203.5,-541.416 245.5,-541.416 245.5,-523.416 203.5,-523.416"/>
<text text-anchor="start" x="206.5" y="-529.616" font-family="Helvetica,sans-Serif" font-size="11.00">0 rows</text>
<polygon fill="#ffffff" stroke="none" points="245.5,-523.416 245.5,-541.416 269.5,-541.416 269.5,-523.416 245.5,-523.416"/>
<polygon fill="none" stroke="black" points="245.5,-523.416 245.5,-541.416 269.5,-541.416 269.5,-523.416 245.5,-523.416"/>
<text text-anchor="start" x="249.5" y="-529.616" font-family="Helvetica,sans-Serif" font-size="11.00">2 &gt;</text>
</a>
</g>
</g>
<!-- accessions&#45;&gt;species -->
<g id="edge23" class="edge"><title>accessions:species_id:w&#45;&gt;species:elipses:e</title>
<path fill="none" stroke="black" d="M584.365,-499.02C570.068,-512.26 583.769,-550.448 558,-565.416 475.371,-613.409 438.059,-575.147 343,-565.416 310.266,-562.065 303.405,-550.416 270.5,-550.416"/>
<polygon fill="black" stroke="black" points="590.893,-496.893 599.615,-497.839 594.697,-495.655 598.5,-494.416 598.5,-494.416 598.5,-494.416 594.697,-495.655 597.385,-490.993 590.893,-496.893 590.893,-496.893"/>
<ellipse fill="none" stroke="black" cx="587.851" cy="-497.884" rx="3.20001" ry="3.20001"/>
</g>
<!-- storage_locations -->
<g id="node18" class="node"><title>storage_locations</title>
<g id="a_node18"><a xlink:href="../../tables/storage_locations.html" xlink:title="storage_locations" target="_top">
<polygon fill="#ffffff" stroke="none" points="377,-1029.42 377,-1087.42 524,-1087.42 524,-1029.42 377,-1029.42"/>
<polygon fill="#f5f5f5" stroke="none" points="377.5,-1065.42 377.5,-1087.42 524.5,-1087.42 524.5,-1065.42 377.5,-1065.42"/>
<polygon fill="none" stroke="black" points="377.5,-1065.42 377.5,-1087.42 524.5,-1087.42 524.5,-1065.42 377.5,-1065.42"/>
<text text-anchor="start" x="382.5" y="-1074.62" font-family="Helvetica,sans-Serif" font-weight="bold" font-size="11.00">storage_locations</text>
<text text-anchor="start" x="485.5" y="-1073.62" font-family="Helvetica,sans-Serif" font-size="11.00">[table]</text>
<polygon fill="none" stroke="black" points="377.5,-1047.42 377.5,-1065.42 524.5,-1065.42 524.5,-1047.42 377.5,-1047.42"/>
<text text-anchor="start" x="380.5" y="-1053.62" font-family="Helvetica,sans-Serif" font-size="11.00">...</text>
<polygon fill="#ffffff" stroke="none" points="377.5,-1029.42 377.5,-1047.42 429.5,-1047.42 429.5,-1029.42 377.5,-1029.42"/>
<polygon fill="none" stroke="black" points="377.5,-1029.42 377.5,-1047.42 429.5,-1047.42 429.5,-1029.42 377.5,-1029.42"/>
<text text-anchor="start" x="380.5" y="-1035.62" font-family="Helvetica,sans-Serif" font-size="11.00">&lt; 4</text>
<polygon fill="#ffffff" stroke="none" points="429.5,-1029.42 429.5,-1047.42 486.5,-1047.42 486.5,-1029.42 429.5,-1029.42"/>
<polygon fill="none" stroke="black" points="429.5,-1029.42 429.5,-1047.42 486.5,-1047.42 486.5,-1029.42 429.5,-1029.42"/>
<text text-anchor="start" x="447.5" y="-1035.62" font-family="Helvetica,sans-Serif" font-size="11.00">0 rows</text>
<polygon fill="#ffffff" stroke="none" points="486.5,-1029.42 486.5,-1047.42 524.5,-1047.42 524.5,-1029.42 486.5,-1029.42"/>
<polygon fill="none" stroke="black" points="486.5,-1029.42 486.5,-1047.42 524.5,-1047.42 524.5,-1029.42 486.5,-1029.42"/>
<text text-anchor="start" x="504.5" y="-1035.62" font-family="Helvetica,sans-Serif" font-size="11.00">1 &gt;</text>
</a>
</g>
</g>
<!-- accessions&#45;&gt;storage_locations -->
<g id="edge25" class="edge"><title>accessions:storage_location_id:w&#45;&gt;storage_locations:elipses:e</title>
<path fill="none" stroke="black" d="M584.535,-763.597C547.281,-796.025 580.528,-971.231 558,-1019.42 548.73,-1039.24 547.387,-1056.42 525.5,-1056.42"/>
<polygon fill="black" stroke="black" points="591,-761.199 599.752,-761.791 594.75,-759.807 598.5,-758.416 598.5,-758.416 598.5,-758.416 594.75,-759.807 597.248,-755.041 591,-761.199 591,-761.199"/>
<ellipse fill="none" stroke="black" cx="587.999" cy="-762.312" rx="3.20001" ry="3.20001"/>
</g>
<!-- storage_conditions -->
<g id="node19" class="node"><title>storage_conditions</title>
<g id="a_node19"><a xlink:href="../../tables/storage_conditions.html" xlink:title="storage_conditions" target="_top">
<polygon fill="#ffffff" stroke="none" points="147,-900.416 147,-958.416 302,-958.416 302,-900.416 147,-900.416"/>
<polygon fill="#f5f5f5" stroke="none" points="147.5,-936.416 147.5,-958.416 302.5,-958.416 302.5,-936.416 147.5,-936.416"/>
<polygon fill="none" stroke="black" points="147.5,-936.416 147.5,-958.416 302.5,-958.416 302.5,-936.416 147.5,-936.416"/>
<text text-anchor="start" x="152.5" y="-945.616" font-family="Helvetica,sans-Serif" font-weight="bold" font-size="11.00">storage_conditions</text>
<text text-anchor="start" x="263.5" y="-944.616" font-family="Helvetica,sans-Serif" font-size="11.00">[table]</text>
<polygon fill="none" stroke="black" points="147.5,-918.416 147.5,-936.416 302.5,-936.416 302.5,-918.416 147.5,-918.416"/>
<text text-anchor="start" x="150.5" y="-924.616" font-family="Helvetica,sans-Serif" font-size="11.00">...</text>
<polygon fill="#ffffff" stroke="none" points="147.5,-900.416 147.5,-918.416 198.5,-918.416 198.5,-900.416 147.5,-900.416"/>
<polygon fill="none" stroke="black" points="147.5,-900.416 147.5,-918.416 198.5,-918.416 198.5,-900.416 147.5,-900.416"/>
<text text-anchor="start" x="150.5" y="-906.616" font-family="Helvetica,sans-Serif" font-size="11.00"> &#160;</text>
<polygon fill="#ffffff" stroke="none" points="198.5,-900.416 198.5,-918.416 259.5,-918.416 259.5,-900.416 198.5,-900.416"/>
<polygon fill="none" stroke="black" points="198.5,-900.416 198.5,-918.416 259.5,-918.416 259.5,-900.416 198.5,-900.416"/>
<text text-anchor="start" x="220.5" y="-906.616" font-family="Helvetica,sans-Serif" font-size="11.00">2 rows</text>
<polygon fill="#ffffff" stroke="none" points="259.5,-900.416 259.5,-918.416 302.5,-918.416 302.5,-900.416 259.5,-900.416"/>
<polygon fill="none" stroke="black" points="259.5,-900.416 259.5,-918.416 302.5,-918.416 302.5,-900.416 259.5,-900.416"/>
<text text-anchor="start" x="282.5" y="-906.616" font-family="Helvetica,sans-Serif" font-size="11.00">2 &gt;</text>
</a>
</g>
</g>
<!-- accessions&#45;&gt;storage_conditions -->
<g id="edge27" class="edge"><title>accessions:target_storage_condition:w&#45;&gt;storage_conditions:elipses:e</title>
<path fill="none" stroke="black" d="M584.145,-693.767C512.704,-709.102 628.828,-851.012 558,-913.416 515.501,-950.86 360.141,-927.416 303.5,-927.416"/>
<polygon fill="black" stroke="black" points="590.535,-693.165 598.837,-696 594.518,-692.791 598.5,-692.416 598.5,-692.416 598.5,-692.416 594.518,-692.791 598.163,-688.832 590.535,-693.165 590.535,-693.165"/>
<ellipse fill="none" stroke="black" cx="587.349" cy="-693.465" rx="3.2" ry="3.2"/>
</g>
<!-- accession_photos -->
<g id="node3" class="node"><title>accession_photos</title>
<g id="a_node3"><a xlink:href="../../tables/accession_photos.html" xlink:title="accession_photos" target="_top">
<polygon fill="#ffffff" stroke="none" points="907,-681.416 907,-739.416 1053,-739.416 1053,-681.416 907,-681.416"/>
<polygon fill="#f5f5f5" stroke="none" points="907,-717.416 907,-739.416 1053,-739.416 1053,-717.416 907,-717.416"/>
<polygon fill="none" stroke="black" points="907,-717.416 907,-739.416 1053,-739.416 1053,-717.416 907,-717.416"/>
<text text-anchor="start" x="912" y="-726.616" font-family="Helvetica,sans-Serif" font-weight="bold" font-size="11.00">accession_photos</text>
<text text-anchor="start" x="1014" y="-725.616" font-family="Helvetica,sans-Serif" font-size="11.00">[table]</text>
<polygon fill="none" stroke="black" points="907,-699.416 907,-717.416 1053,-717.416 1053,-699.416 907,-699.416"/>
<text text-anchor="start" x="910" y="-705.616" font-family="Helvetica,sans-Serif" font-size="11.00">...</text>
<polygon fill="#ffffff" stroke="none" points="907,-681.416 907,-699.416 964,-699.416 964,-681.416 907,-681.416"/>
<polygon fill="none" stroke="black" points="907,-681.416 907,-699.416 964,-699.416 964,-681.416 907,-681.416"/>
<text text-anchor="start" x="910" y="-687.616" font-family="Helvetica,sans-Serif" font-size="11.00">&lt; 2</text>
<polygon fill="#ffffff" stroke="none" points="964,-681.416 964,-699.416 1023,-699.416 1023,-681.416 964,-681.416"/>
<polygon fill="none" stroke="black" points="964,-681.416 964,-699.416 1023,-699.416 1023,-681.416 964,-681.416"/>
<text text-anchor="start" x="984" y="-687.616" font-family="Helvetica,sans-Serif" font-size="11.00">0 rows</text>
<polygon fill="#ffffff" stroke="none" points="1023,-681.416 1023,-699.416 1053,-699.416 1053,-681.416 1023,-681.416"/>
<polygon fill="none" stroke="black" points="1023,-681.416 1023,-699.416 1053,-699.416 1053,-681.416 1023,-681.416"/>
<text text-anchor="start" x="1043" y="-687.616" font-family="Helvetica,sans-Serif" font-size="11.00"> &#160;</text>
</a>
</g>
</g>
<!-- accession_photos&#45;&gt;accessions -->
<g id="edge2" class="edge"><title>accession_photos:elipses:w&#45;&gt;accessions:id:e</title>
<path fill="none" stroke="black" d="M891.727,-710.678C838.348,-730.125 904.426,-868.416 831.5,-868.416"/>
<polygon fill="black" stroke="black" points="898.099,-709.668 906.563,-711.972 902.049,-709.042 906,-708.416 906,-708.416 906,-708.416 902.049,-709.042 905.437,-704.86 898.099,-709.668 898.099,-709.668"/>
<ellipse fill="none" stroke="black" cx="894.938" cy="-710.169" rx="3.2" ry="3.2"/>
</g>
<!-- accession_quantity_history -->
<g id="node4" class="node"><title>accession_quantity_history</title>
<g id="a_node4"><a xlink:href="../../tables/accession_quantity_history.html" xlink:title="accession_quantity_history" target="_top">
<polygon fill="#ffffff" stroke="none" points="879,-258.416 879,-316.416 1081,-316.416 1081,-258.416 879,-258.416"/>
<polygon fill="#f5f5f5" stroke="none" points="879,-294.416 879,-316.416 1081,-316.416 1081,-294.416 879,-294.416"/>
<polygon fill="none" stroke="black" points="879,-294.416 879,-316.416 1081,-316.416 1081,-294.416 879,-294.416"/>
<text text-anchor="start" x="884" y="-303.616" font-family="Helvetica,sans-Serif" font-weight="bold" font-size="11.00">accession_quantity_history</text>
<text text-anchor="start" x="1042" y="-302.616" font-family="Helvetica,sans-Serif" font-size="11.00">[table]</text>
<polygon fill="none" stroke="black" points="879,-276.416 879,-294.416 1081,-294.416 1081,-276.416 879,-276.416"/>
<text text-anchor="start" x="882" y="-282.616" font-family="Helvetica,sans-Serif" font-size="11.00">...</text>
<polygon fill="#ffffff" stroke="none" points="879,-258.416 879,-276.416 964,-276.416 964,-258.416 879,-258.416"/>
<polygon fill="none" stroke="black" points="879,-258.416 879,-276.416 964,-276.416 964,-258.416 879,-258.416"/>
<text text-anchor="start" x="882" y="-264.616" font-family="Helvetica,sans-Serif" font-size="11.00">&lt; 4</text>
<polygon fill="#ffffff" stroke="none" points="964,-258.416 964,-276.416 1037,-276.416 1037,-258.416 964,-258.416"/>
<polygon fill="none" stroke="black" points="964,-258.416 964,-276.416 1037,-276.416 1037,-258.416 964,-258.416"/>
<text text-anchor="start" x="998" y="-264.616" font-family="Helvetica,sans-Serif" font-size="11.00">0 rows</text>
<polygon fill="#ffffff" stroke="none" points="1037,-258.416 1037,-276.416 1081,-276.416 1081,-258.416 1037,-258.416"/>
<polygon fill="none" stroke="black" points="1037,-258.416 1037,-276.416 1081,-276.416 1081,-258.416 1037,-258.416"/>
<text text-anchor="start" x="1071" y="-264.616" font-family="Helvetica,sans-Serif" font-size="11.00"> &#160;</text>
</a>
</g>
</g>
<!-- accession_quantity_history&#45;&gt;accessions -->
<g id="edge3" class="edge"><title>accession_quantity_history:elipses:w&#45;&gt;accessions:id:e</title>
<path fill="none" stroke="black" d="M866.126,-294.11C824.305,-366.633 891.787,-868.416 831.5,-868.416"/>
<polygon fill="black" stroke="black" points="871.545,-290.142 880.127,-288.321 874.773,-287.779 878,-285.416 878,-285.416 878,-285.416 874.773,-287.779 875.873,-282.511 871.545,-290.142 871.545,-290.142"/>
<ellipse fill="none" stroke="black" cx="868.963" cy="-292.032" rx="3.20001" ry="3.20001"/>
</g>
<!-- accession_quantity_history&#45;&gt;users -->
<g id="edge4" class="edge"><title>accession_quantity_history:elipses:w&#45;&gt;users:elipses:e</title>
<path fill="none" stroke="black" d="M863.582,-285.044C735.635,-278.888 446.44,-199.007 343,-248.416 323.537,-257.713 120.57,-550.416 99,-550.416"/>
<polygon fill="black" stroke="black" points="870.003,-285.21 877.907,-289.015 874.001,-285.313 878,-285.416 878,-285.416 878,-285.416 874.001,-285.313 878.093,-281.817 870.003,-285.21 870.003,-285.21"/>
<ellipse fill="none" stroke="black" cx="866.804" cy="-285.127" rx="3.2" ry="3.2"/>
</g>
<!-- accession_quantity_history&#45;&gt;seed_quantity_units -->
<g id="edge5" class="edge"><title>accession_quantity_history:elipses:w&#45;&gt;seed_quantity_units:elipses:e</title>
<path fill="none" stroke="black" d="M863.547,-285.419C722.302,-285.479 681.677,-286.416 533.5,-286.416"/>
<polygon fill="black" stroke="black" points="870,-285.418 878.001,-289.016 874,-285.417 878,-285.416 878,-285.416 878,-285.416 874,-285.417 877.999,-281.816 870,-285.418 870,-285.418"/>
<ellipse fill="none" stroke="black" cx="866.8" cy="-285.418" rx="3.2" ry="3.2"/>
</g>
<!-- accession_state_history -->
<g id="node7" class="node"><title>accession_state_history</title>
<g id="a_node7"><a xlink:href="../../tables/accession_state_history.html" xlink:title="accession_state_history" target="_top">
<polygon fill="#ffffff" stroke="none" points="889.5,-126.416 889.5,-184.416 1070.5,-184.416 1070.5,-126.416 889.5,-126.416"/>
<polygon fill="#f5f5f5" stroke="none" points="890,-162.416 890,-184.416 1071,-184.416 1071,-162.416 890,-162.416"/>
<polygon fill="none" stroke="black" points="890,-162.416 890,-184.416 1071,-184.416 1071,-162.416 890,-162.416"/>
<text text-anchor="start" x="895" y="-171.616" font-family="Helvetica,sans-Serif" font-weight="bold" font-size="11.00">accession_state_history</text>
<text text-anchor="start" x="1032" y="-170.616" font-family="Helvetica,sans-Serif" font-size="11.00">[table]</text>
<polygon fill="none" stroke="black" points="890,-144.416 890,-162.416 1071,-162.416 1071,-144.416 890,-144.416"/>
<text text-anchor="start" x="893" y="-150.616" font-family="Helvetica,sans-Serif" font-size="11.00">...</text>
<polygon fill="#ffffff" stroke="none" points="890,-126.416 890,-144.416 964,-144.416 964,-126.416 890,-126.416"/>
<polygon fill="none" stroke="black" points="890,-126.416 890,-144.416 964,-144.416 964,-126.416 890,-126.416"/>
<text text-anchor="start" x="893" y="-132.616" font-family="Helvetica,sans-Serif" font-size="11.00">&lt; 4</text>
<polygon fill="#ffffff" stroke="none" points="964,-126.416 964,-144.416 1032,-144.416 1032,-126.416 964,-126.416"/>
<polygon fill="none" stroke="black" points="964,-126.416 964,-144.416 1032,-144.416 1032,-126.416 964,-126.416"/>
<text text-anchor="start" x="993" y="-132.616" font-family="Helvetica,sans-Serif" font-size="11.00">0 rows</text>
<polygon fill="#ffffff" stroke="none" points="1032,-126.416 1032,-144.416 1071,-144.416 1071,-126.416 1032,-126.416"/>
<polygon fill="none" stroke="black" points="1032,-126.416 1032,-144.416 1071,-144.416 1071,-126.416 1032,-126.416"/>
<text text-anchor="start" x="1061" y="-132.616" font-family="Helvetica,sans-Serif" font-size="11.00"> &#160;</text>
</a>
</g>
</g>
<!-- accession_state_history&#45;&gt;accessions -->
<g id="edge6" class="edge"><title>accession_state_history:elipses:w&#45;&gt;accessions:id:e</title>
<path fill="none" stroke="black" d="M876.44,-160.962C820.973,-237.377 906.375,-868.416 831.5,-868.416"/>
<polygon fill="black" stroke="black" points="882.142,-157.536 890.854,-156.502 885.571,-155.476 889,-153.416 889,-153.416 889,-153.416 885.571,-155.476 887.146,-150.33 882.142,-157.536 882.142,-157.536"/>
<ellipse fill="none" stroke="black" cx="879.399" cy="-159.184" rx="3.20001" ry="3.20001"/>
</g>
<!-- accession_state_history&#45;&gt;users -->
<g id="edge9" class="edge"><title>accession_state_history:elipses:w&#45;&gt;users:elipses:e</title>
<path fill="none" stroke="black" d="M874.28,-153.312C643.276,-150.05 569.834,-71.2415 343,-142.416 237.598,-175.488 197.303,-190.585 139,-284.416 107.452,-335.188 158.776,-550.416 99,-550.416"/>
<polygon fill="black" stroke="black" points="881,-153.36 888.975,-157.016 885,-153.388 889,-153.416 889,-153.416 889,-153.416 885,-153.388 889.025,-149.816 881,-153.36 881,-153.36"/>
<ellipse fill="none" stroke="black" cx="877.8" cy="-153.337" rx="3.2" ry="3.2"/>
</g>
<!-- accession_state_history&#45;&gt;accession_states -->
<g id="edge7" class="edge"><title>accession_state_history:elipses:w&#45;&gt;accession_states:elipses:e</title>
<path fill="none" stroke="black" d="M874.499,-153.489C723.144,-155.026 680.886,-180.416 522.5,-180.416"/>
<polygon fill="black" stroke="black" points="881,-153.456 889.018,-157.016 885,-153.436 889,-153.416 889,-153.416 889,-153.416 885,-153.436 888.982,-149.816 881,-153.456 881,-153.456"/>
<ellipse fill="none" stroke="black" cx="877.8" cy="-153.472" rx="3.2" ry="3.2"/>
</g>
<!-- accession_state_history&#45;&gt;accession_states -->
<g id="edge8" class="edge"><title>accession_state_history:elipses:w&#45;&gt;accession_states:elipses:e</title>
<path fill="none" stroke="black" d="M874.499,-153.489C723.144,-155.026 680.886,-180.416 522.5,-180.416"/>
<polygon fill="black" stroke="black" points="881,-153.456 889.018,-157.016 885,-153.436 889,-153.416 889,-153.416 889,-153.416 885,-153.436 888.982,-149.816 881,-153.456 881,-153.456"/>
<ellipse fill="none" stroke="black" cx="877.8" cy="-153.472" rx="3.2" ry="3.2"/>
</g>
<!-- facilities&#45;&gt;users -->
<g id="edge30" class="edge"><title>facilities:elipses:w&#45;&gt;users:elipses:e</title>
<path fill="none" stroke="black" d="M161.135,-1048.5C148.539,-1039.24 146.333,-1022.63 139,-1004.42 119.836,-956.825 150.304,-544.416 99,-550.416"/>
<polygon fill="black" stroke="black" points="167.186,-1051.18 173.042,-1057.71 170.843,-1052.8 174.5,-1054.42 174.5,-1054.42 174.5,-1054.42 170.843,-1052.8 175.958,-1051.12 167.186,-1051.18 167.186,-1051.18"/>
<ellipse fill="none" stroke="black" cx="164.26" cy="-1049.88" rx="3.20001" ry="3.20001"/>
</g>
<!-- facilities&#45;&gt;users -->
<g id="edge31" class="edge"><title>facilities:elipses:w&#45;&gt;users:elipses:e</title>
<path fill="none" stroke="black" d="M160.029,-1054.99C148.402,-1051.24 146.113,-1035.08 139,-1017.42 119.836,-969.825 150.304,-557.416 99,-550.416"/>
<polygon fill="black" stroke="black" points="166.506,-1054.73 174.642,-1058.01 170.503,-1054.57 174.5,-1054.42 174.5,-1054.42 174.5,-1054.42 170.503,-1054.57 174.358,-1050.82 166.506,-1054.73 166.506,-1054.73"/>
<ellipse fill="none" stroke="black" cx="163.309" cy="-1054.86" rx="3.2" ry="3.2"/>
</g>
<!-- species&#45;&gt;users -->
<g id="edge33" class="edge"><title>species:elipses:w&#45;&gt;users:elipses:e</title>
<path fill="none" stroke="black" d="M164.68,-545.594C140.06,-537.688 129.227,-539.295 99,-550.416"/>
<polygon fill="black" stroke="black" points="170.947,-547.78 177.314,-553.815 174.723,-549.098 178.5,-550.416 178.5,-550.416 178.5,-550.416 174.723,-549.098 179.686,-547.017 170.947,-547.78 170.947,-547.78"/>
<ellipse fill="none" stroke="black" cx="167.925" cy="-546.726" rx="3.20001" ry="3.20001"/>
</g>
<!-- species&#45;&gt;users -->
<g id="edge34" class="edge"><title>species:elipses:w&#45;&gt;users:elipses:e</title>
<path fill="none" stroke="black" d="M164.009,-550.416C139.86,-550.416 128.951,-550.416 99,-550.416"/>
<polygon fill="black" stroke="black" points="170.5,-550.416 178.5,-554.016 174.5,-550.416 178.5,-550.416 178.5,-550.416 178.5,-550.416 174.5,-550.416 178.5,-546.816 170.5,-550.416 170.5,-550.416"/>
<ellipse fill="none" stroke="black" cx="167.3" cy="-550.416" rx="3.2" ry="3.2"/>
</g>
<!-- species&#45;&gt;users -->
<g id="edge35" class="edge"><title>species:elipses:w&#45;&gt;users:elipses:e</title>
<path fill="none" stroke="black" d="M164.68,-555.238C140.06,-563.144 129.227,-561.537 99,-550.416"/>
<polygon fill="black" stroke="black" points="170.947,-553.052 179.686,-553.815 174.723,-551.734 178.5,-550.416 178.5,-550.416 178.5,-550.416 174.723,-551.734 177.314,-547.017 170.947,-553.052 170.947,-553.052"/>
<ellipse fill="none" stroke="black" cx="167.925" cy="-554.106" rx="3.20001" ry="3.20001"/>
</g>
<!-- storage_locations&#45;&gt;users -->
<g id="edge37" class="edge"><title>storage_locations:elipses:w&#45;&gt;users:elipses:e</title>
<path fill="none" stroke="black" d="M362.061,-1054.52C341.176,-1048.35 336.358,-1028.62 310,-1017.42 237.357,-986.528 189.62,-1029.99 139,-969.416 79.0188,-897.646 192.534,-550.416 99,-550.416"/>
<polygon fill="black" stroke="black" points="368.568,-1055.37 376.03,-1059.99 372.534,-1055.89 376.5,-1056.42 376.5,-1056.42 376.5,-1056.42 372.534,-1055.89 376.97,-1052.85 368.568,-1055.37 368.568,-1055.37"/>
<ellipse fill="none" stroke="black" cx="365.396" cy="-1054.95" rx="3.2" ry="3.2"/>
</g>
<!-- storage_locations&#45;&gt;users -->
<g id="edge39" class="edge"><title>storage_locations:elipses:w&#45;&gt;users:elipses:e</title>
<path fill="none" stroke="black" d="M362.017,-1054.7C341.512,-1049.29 335.59,-1032.25 310,-1021.42 236.356,-990.238 188.987,-1027.84 139,-965.416 81.0888,-893.096 191.65,-550.416 99,-550.416"/>
<polygon fill="black" stroke="black" points="368.555,-1055.48 376.077,-1059.99 372.528,-1055.95 376.5,-1056.42 376.5,-1056.42 376.5,-1056.42 372.528,-1055.95 376.923,-1052.84 368.555,-1055.48 368.555,-1055.48"/>
<ellipse fill="none" stroke="black" cx="365.378" cy="-1055.1" rx="3.2" ry="3.2"/>
</g>
<!-- storage_locations&#45;&gt;facilities -->
<g id="edge38" class="edge"><title>storage_locations:elipses:w&#45;&gt;facilities:elipses:e</title>
<path fill="none" stroke="black" d="M361.852,-1056.34C328.039,-1055.97 314.529,-1054.42 274.5,-1054.42"/>
<polygon fill="black" stroke="black" points="368.5,-1056.37 376.481,-1060.02 372.5,-1056.4 376.5,-1056.42 376.5,-1056.42 376.5,-1056.42 372.5,-1056.4 376.519,-1052.82 368.5,-1056.37 368.5,-1056.37"/>
<ellipse fill="none" stroke="black" cx="365.3" cy="-1056.36" rx="3.2" ry="3.2"/>
</g>
<!-- storage_locations&#45;&gt;storage_conditions -->
<g id="edge36" class="edge"><title>storage_locations:elipses:w&#45;&gt;storage_conditions:elipses:e</title>
<path fill="none" stroke="black" d="M362.119,-1053.72C319.801,-1035.2 363.716,-927.416 303.5,-927.416"/>
<polygon fill="black" stroke="black" points="368.637,-1054.94 375.837,-1059.95 372.568,-1055.68 376.5,-1056.42 376.5,-1056.42 376.5,-1056.42 372.568,-1055.68 377.163,-1052.88 368.637,-1054.94 368.637,-1054.94"/>
<ellipse fill="none" stroke="black" cx="365.492" cy="-1054.35" rx="3.2" ry="3.2"/>
</g>
<!-- bags -->
<g id="node20" class="node"><title>bags</title>
<g id="a_node20"><a xlink:href="../../tables/bags.html" xlink:title="bags" target="_top">
<polygon fill="#ffffff" stroke="none" points="941,-945.416 941,-1003.42 1019,-1003.42 1019,-945.416 941,-945.416"/>
<polygon fill="#f5f5f5" stroke="none" points="941,-981.416 941,-1003.42 1019,-1003.42 1019,-981.416 941,-981.416"/>
<polygon fill="none" stroke="black" points="941,-981.416 941,-1003.42 1019,-1003.42 1019,-981.416 941,-981.416"/>
<text text-anchor="start" x="946" y="-990.616" font-family="Helvetica,sans-Serif" font-weight="bold" font-size="11.00">bags</text>
<text text-anchor="start" x="980" y="-989.616" font-family="Helvetica,sans-Serif" font-size="11.00">[table]</text>
<polygon fill="none" stroke="black" points="941,-963.416 941,-981.416 1019,-981.416 1019,-963.416 941,-963.416"/>
<text text-anchor="start" x="944" y="-969.616" font-family="Helvetica,sans-Serif" font-size="11.00">...</text>
<polygon fill="#ffffff" stroke="none" points="941,-945.416 941,-963.416 964,-963.416 964,-945.416 941,-945.416"/>
<polygon fill="none" stroke="black" points="941,-945.416 941,-963.416 964,-963.416 964,-945.416 941,-945.416"/>
<text text-anchor="start" x="944" y="-951.616" font-family="Helvetica,sans-Serif" font-size="11.00">&lt; 1</text>
<polygon fill="#ffffff" stroke="none" points="964,-945.416 964,-963.416 1006,-963.416 1006,-945.416 964,-945.416"/>
<polygon fill="none" stroke="black" points="964,-945.416 964,-963.416 1006,-963.416 1006,-945.416 964,-945.416"/>
<text text-anchor="start" x="967" y="-951.616" font-family="Helvetica,sans-Serif" font-size="11.00">0 rows</text>
<polygon fill="#ffffff" stroke="none" points="1006,-945.416 1006,-963.416 1019,-963.416 1019,-945.416 1006,-945.416"/>
<polygon fill="none" stroke="black" points="1006,-945.416 1006,-963.416 1019,-963.416 1019,-945.416 1006,-945.416"/>
<text text-anchor="start" x="1009" y="-951.616" font-family="Helvetica,sans-Serif" font-size="11.00"> &#160;</text>
</a>
</g>
</g>
<!-- bags&#45;&gt;accessions -->
<g id="edge29" class="edge"><title>bags:elipses:w&#45;&gt;accessions:id:e</title>
<path fill="none" stroke="black" d="M925.412,-971.478C901.967,-968.112 892.177,-955.752 871,-935.416 846.067,-911.473 866.068,-868.416 831.5,-868.416"/>
<polygon fill="black" stroke="black" points="932.016,-971.902 939.769,-976.009 936.008,-972.159 940,-972.416 940,-972.416 940,-972.416 936.008,-972.159 940.231,-968.823 932.016,-971.902 932.016,-971.902"/>
<ellipse fill="none" stroke="black" cx="928.823" cy="-971.697" rx="3.2" ry="3.2"/>
</g>
<!-- geolocations -->
<g id="node21" class="node"><title>geolocations</title>
<g id="a_node21"><a xlink:href="../../tables/geolocations.html" xlink:title="geolocations" target="_top">
<polygon fill="#ffffff" stroke="none" points="920,-866.416 920,-924.416 1040,-924.416 1040,-866.416 920,-866.416"/>
<polygon fill="#f5f5f5" stroke="none" points="920,-902.416 920,-924.416 1040,-924.416 1040,-902.416 920,-902.416"/>
<polygon fill="none" stroke="black" points="920,-902.416 920,-924.416 1040,-924.416 1040,-902.416 920,-902.416"/>
<text text-anchor="start" x="925" y="-911.616" font-family="Helvetica,sans-Serif" font-weight="bold" font-size="11.00">geolocations</text>
<text text-anchor="start" x="1001" y="-910.616" font-family="Helvetica,sans-Serif" font-size="11.00">[table]</text>
<polygon fill="none" stroke="black" points="920,-884.416 920,-902.416 1040,-902.416 1040,-884.416 920,-884.416"/>
<text text-anchor="start" x="923" y="-890.616" font-family="Helvetica,sans-Serif" font-size="11.00">...</text>
<polygon fill="#ffffff" stroke="none" points="920,-866.416 920,-884.416 964,-884.416 964,-866.416 920,-866.416"/>
<polygon fill="none" stroke="black" points="920,-866.416 920,-884.416 964,-884.416 964,-866.416 920,-866.416"/>
<text text-anchor="start" x="923" y="-872.616" font-family="Helvetica,sans-Serif" font-size="11.00">&lt; 1</text>
<polygon fill="#ffffff" stroke="none" points="964,-866.416 964,-884.416 1016,-884.416 1016,-866.416 964,-866.416"/>
<polygon fill="none" stroke="black" points="964,-866.416 964,-884.416 1016,-884.416 1016,-866.416 964,-866.416"/>
<text text-anchor="start" x="977" y="-872.616" font-family="Helvetica,sans-Serif" font-size="11.00">0 rows</text>
<polygon fill="#ffffff" stroke="none" points="1016,-866.416 1016,-884.416 1040,-884.416 1040,-866.416 1016,-866.416"/>
<polygon fill="none" stroke="black" points="1016,-866.416 1016,-884.416 1040,-884.416 1040,-866.416 1016,-866.416"/>
<text text-anchor="start" x="1030" y="-872.616" font-family="Helvetica,sans-Serif" font-size="11.00"> &#160;</text>
</a>
</g>
</g>
<!-- geolocations&#45;&gt;accessions -->
<g id="edge32" class="edge"><title>geolocations:elipses:w&#45;&gt;accessions:id:e</title>
<path fill="none" stroke="black" d="M904.517,-892.21C876.202,-887.216 866.573,-868.416 831.5,-868.416"/>
<polygon fill="black" stroke="black" points="911.028,-892.752 918.701,-897.004 915.014,-893.084 919,-893.416 919,-893.416 919,-893.416 915.014,-893.084 919.299,-889.828 911.028,-892.752 911.028,-892.752"/>
<ellipse fill="none" stroke="black" cx="907.839" cy="-892.487" rx="3.2" ry="3.2"/>
</g>
<!-- viability_tests -->
<g id="node22" class="node"><title>viability_tests</title>
<g id="a_node22"><a xlink:href="../../tables/viability_tests.html" xlink:title="viability_tests" target="_top">
<polygon fill="#ffffff" stroke="none" points="915.5,-337.416 915.5,-395.416 1044.5,-395.416 1044.5,-337.416 915.5,-337.416"/>
<polygon fill="#f5f5f5" stroke="none" points="916,-373.416 916,-395.416 1045,-395.416 1045,-373.416 916,-373.416"/>
<polygon fill="none" stroke="black" points="916,-373.416 916,-395.416 1045,-395.416 1045,-373.416 916,-373.416"/>
<text text-anchor="start" x="921" y="-382.616" font-family="Helvetica,sans-Serif" font-weight="bold" font-size="11.00">viability_tests</text>
<text text-anchor="start" x="1006" y="-381.616" font-family="Helvetica,sans-Serif" font-size="11.00">[table]</text>
<polygon fill="none" stroke="black" points="916,-355.416 916,-373.416 1045,-373.416 1045,-355.416 916,-355.416"/>
<text text-anchor="start" x="919" y="-361.616" font-family="Helvetica,sans-Serif" font-size="11.00">...</text>
<polygon fill="#ffffff" stroke="none" points="916,-337.416 916,-355.416 959,-355.416 959,-337.416 916,-337.416"/>
<polygon fill="none" stroke="black" points="916,-337.416 916,-355.416 959,-355.416 959,-337.416 916,-337.416"/>
<text text-anchor="start" x="919" y="-343.616" font-family="Helvetica,sans-Serif" font-size="11.00">&lt; 6</text>
<polygon fill="#ffffff" stroke="none" points="959,-337.416 959,-355.416 1011,-355.416 1011,-337.416 959,-337.416"/>
<polygon fill="none" stroke="black" points="959,-337.416 959,-355.416 1011,-355.416 1011,-337.416 959,-337.416"/>
<text text-anchor="start" x="972" y="-343.616" font-family="Helvetica,sans-Serif" font-size="11.00">0 rows</text>
<polygon fill="#ffffff" stroke="none" points="1011,-337.416 1011,-355.416 1045,-355.416 1045,-337.416 1011,-337.416"/>
<polygon fill="none" stroke="black" points="1011,-337.416 1011,-355.416 1045,-355.416 1045,-337.416 1011,-337.416"/>
<text text-anchor="start" x="1025" y="-343.616" font-family="Helvetica,sans-Serif" font-size="11.00">2 &gt;</text>
</a>
</g>
</g>
<!-- viability_tests&#45;&gt;accessions -->
<g id="edge40" class="edge"><title>viability_tests:elipses:w&#45;&gt;accessions:id:e</title>
<path fill="none" stroke="black" d="M903.202,-373.164C862.399,-440.09 883.829,-868.416 831.5,-868.416"/>
<polygon fill="black" stroke="black" points="908.574,-369.181 917.144,-367.308 911.787,-366.798 915,-364.416 915,-364.416 915,-364.416 911.787,-366.798 912.856,-361.524 908.574,-369.181 908.574,-369.181"/>
<ellipse fill="none" stroke="black" cx="906.003" cy="-371.087" rx="3.20001" ry="3.20001"/>
</g>
<!-- viability_tests&#45;&gt;seed_quantity_units -->
<g id="edge41" class="edge"><title>viability_tests:elipses:w&#45;&gt;seed_quantity_units:elipses:e</title>
<path fill="none" stroke="black" d="M900.491,-362.848C875.466,-356.921 869.287,-335.741 838,-326.416 732.022,-294.831 700.4,-312.562 591,-296.416 565.339,-292.629 559.439,-286.416 533.5,-286.416"/>
<polygon fill="black" stroke="black" points="907.046,-363.557 914.613,-367.995 911.023,-363.986 915,-364.416 915,-364.416 915,-364.416 911.023,-363.986 915.387,-360.837 907.046,-363.557 907.046,-363.557"/>
<ellipse fill="none" stroke="black" cx="903.865" cy="-363.213" rx="3.2" ry="3.2"/>
</g>
<!-- withdrawals -->
<g id="node23" class="node"><title>withdrawals</title>
<g id="a_node23"><a xlink:href="../../tables/withdrawals.html" xlink:title="withdrawals" target="_top">
<polygon fill="#ffffff" stroke="none" points="1130,-193.416 1130,-251.416 1250,-251.416 1250,-193.416 1130,-193.416"/>
<polygon fill="#f5f5f5" stroke="none" points="1130,-229.416 1130,-251.416 1250,-251.416 1250,-229.416 1130,-229.416"/>
<polygon fill="none" stroke="black" points="1130,-229.416 1130,-251.416 1250,-251.416 1250,-229.416 1130,-229.416"/>
<text text-anchor="start" x="1135" y="-238.616" font-family="Helvetica,sans-Serif" font-weight="bold" font-size="11.00">withdrawals</text>
<text text-anchor="start" x="1211" y="-237.616" font-family="Helvetica,sans-Serif" font-size="11.00">[table]</text>
<polygon fill="none" stroke="black" points="1130,-211.416 1130,-229.416 1250,-229.416 1250,-211.416 1130,-211.416"/>
<text text-anchor="start" x="1133" y="-217.616" font-family="Helvetica,sans-Serif" font-size="11.00">...</text>
<polygon fill="#ffffff" stroke="none" points="1130,-193.416 1130,-211.416 1174,-211.416 1174,-193.416 1130,-193.416"/>
<polygon fill="none" stroke="black" points="1130,-193.416 1130,-211.416 1174,-211.416 1174,-193.416 1130,-193.416"/>
<text text-anchor="start" x="1133" y="-199.616" font-family="Helvetica,sans-Serif" font-size="11.00">&lt; 8</text>
<polygon fill="#ffffff" stroke="none" points="1174,-193.416 1174,-211.416 1226,-211.416 1226,-193.416 1174,-193.416"/>
<polygon fill="none" stroke="black" points="1174,-193.416 1174,-211.416 1226,-211.416 1226,-193.416 1174,-193.416"/>
<text text-anchor="start" x="1187" y="-199.616" font-family="Helvetica,sans-Serif" font-size="11.00">0 rows</text>
<polygon fill="#ffffff" stroke="none" points="1226,-193.416 1226,-211.416 1250,-211.416 1250,-193.416 1226,-193.416"/>
<polygon fill="none" stroke="black" points="1226,-193.416 1226,-211.416 1250,-211.416 1250,-193.416 1226,-193.416"/>
<text text-anchor="start" x="1240" y="-199.616" font-family="Helvetica,sans-Serif" font-size="11.00"> &#160;</text>
</a>
</g>
</g>
<!-- withdrawals&#45;&gt;accessions -->
<g id="edge42" class="edge"><title>withdrawals:elipses:w&#45;&gt;accessions:id:e</title>
<path fill="none" stroke="black" d="M1116.71,-228.345C1071.05,-296.599 1132.28,-783.571 1089,-829.416 1055.49,-864.913 918.752,-846.284 871,-856.416 853.052,-860.224 849.848,-868.416 831.5,-868.416"/>
<polygon fill="black" stroke="black" points="1122.28,-224.754 1130.95,-223.441 1125.64,-222.585 1129,-220.416 1129,-220.416 1129,-220.416 1125.64,-222.585 1127.05,-217.391 1122.28,-224.754 1122.28,-224.754"/>
<ellipse fill="none" stroke="black" cx="1119.59" cy="-226.489" rx="3.20001" ry="3.20001"/>
</g>
<!-- withdrawals&#45;&gt;users -->
<g id="edge43" class="edge"><title>withdrawals:elipses:w&#45;&gt;users:elipses:e</title>
<path fill="none" stroke="black" d="M1114.93,-217.305C1089.92,-202.778 1124.5,-141.232 1089,-115.416 954.579,-17.6498 881.715,-96.416 715.5,-96.416 715.5,-96.416 715.5,-96.416 449.5,-96.416 388.082,-96.416 150.158,-139.276 139,-151.416 78.6983,-217.025 188.111,-550.416 99,-550.416"/>
<polygon fill="black" stroke="black" points="1121.19,-218.689 1128.22,-223.931 1125.09,-219.553 1129,-220.416 1129,-220.416 1129,-220.416 1125.09,-219.553 1129.78,-216.901 1121.19,-218.689 1121.19,-218.689"/>
<ellipse fill="none" stroke="black" cx="1118.06" cy="-217.998" rx="3.2" ry="3.2"/>
</g>
<!-- withdrawals&#45;&gt;users -->
<g id="edge47" class="edge"><title>withdrawals:elipses:w&#45;&gt;users:elipses:e</title>
<path fill="none" stroke="black" d="M1114.73,-217.006C1091.64,-202.221 1123.6,-143.33 1089,-119.416 915.215,0.711248 280.566,1.39913 139,-155.416 79.8798,-220.904 187.227,-550.416 99,-550.416"/>
<polygon fill="black" stroke="black" points="1121.22,-218.556 1128.16,-223.917 1125.11,-219.486 1129,-220.416 1129,-220.416 1129,-220.416 1125.11,-219.486 1129.84,-216.915 1121.22,-218.556 1121.22,-218.556"/>
<ellipse fill="none" stroke="black" cx="1118.11" cy="-217.812" rx="3.2" ry="3.2"/>
</g>
<!-- withdrawals&#45;&gt;seed_quantity_units -->
<g id="edge44" class="edge"><title>withdrawals:elipses:w&#45;&gt;seed_quantity_units:elipses:e</title>
<path fill="none" stroke="black" d="M1114.29,-220.498C1011.07,-221.677 980.564,-235.353 871,-247.416 795.954,-255.678 608.999,-286.416 533.5,-286.416"/>
<polygon fill="black" stroke="black" points="1121,-220.461 1129.02,-224.016 1125,-220.438 1129,-220.416 1129,-220.416 1129,-220.416 1125,-220.438 1128.98,-216.816 1121,-220.461 1121,-220.461"/>
<ellipse fill="none" stroke="black" cx="1117.8" cy="-220.478" rx="3.2" ry="3.2"/>
</g>
<!-- withdrawals&#45;&gt;seed_quantity_units -->
<g id="edge45" class="edge"><title>withdrawals:elipses:w&#45;&gt;seed_quantity_units:elipses:e</title>
<path fill="none" stroke="black" d="M1114.38,-220.156C860.308,-216.845 794.846,-280.527 533.5,-286.416"/>
<polygon fill="black" stroke="black" points="1121,-220.273 1128.94,-224.015 1125,-220.345 1129,-220.416 1129,-220.416 1129,-220.416 1125,-220.345 1129.06,-216.817 1121,-220.273 1121,-220.273"/>
<ellipse fill="none" stroke="black" cx="1117.8" cy="-220.216" rx="3.2" ry="3.2"/>
</g>
<!-- withdrawals&#45;&gt;seed_quantity_units -->
<g id="edge48" class="edge"><title>withdrawals:elipses:w&#45;&gt;seed_quantity_units:elipses:e</title>
<path fill="none" stroke="black" d="M1114.38,-220.866C860.308,-229.84 794.846,-293.286 533.5,-286.416"/>
<polygon fill="black" stroke="black" points="1121,-220.662 1129.11,-224.014 1125,-220.539 1129,-220.416 1129,-220.416 1129,-220.416 1125,-220.539 1128.89,-216.818 1121,-220.662 1121,-220.662"/>
<ellipse fill="none" stroke="black" cx="1117.81" cy="-220.761" rx="3.2" ry="3.2"/>
</g>
<!-- withdrawals&#45;&gt;viability_tests -->
<g id="edge46" class="edge"><title>withdrawals:elipses:w&#45;&gt;viability_tests:elipses:e</title>
<path fill="none" stroke="black" d="M1118.32,-221.671C1084.58,-230.851 1115.25,-288.369 1089,-326.416 1074.52,-347.409 1071.5,-364.416 1046,-364.416"/>
<polygon fill="black" stroke="black" points="1127.74,-216.537 1128.67,-224.482 1127.08,-224.669 1126.15,-216.723 1127.74,-216.537"/>
<polyline fill="none" stroke="black" points="1129,-220.416 1125.03,-220.883 "/>
<ellipse fill="none" stroke="black" cx="1121.85" cy="-221.257" rx="3.2" ry="3.2"/>
</g>
</g>
</svg>
