<?xml version="1.0" encoding="UTF-8" standalone="no"?>
<!DOCTYPE svg PUBLIC "-//W3C//DTD SVG 1.1//EN"
 "http://www.w3.org/Graphics/SVG/1.1/DTD/svg11.dtd">
<!-- Generated by graphviz version 2.38.0 (20140413.2041)
 -->
<!-- Title: oneDegreeRelationshipsDiagram Pages: 1 -->
<svg width="874pt" height="494pt"
 viewBox="0.00 0.00 874.00 494.00" xmlns="http://www.w3.org/2000/svg" xmlns:xlink="http://www.w3.org/1999/xlink">
<g id="graph0" class="graph" transform="scale(1 1) rotate(0) translate(4 490)">
<title>oneDegreeRelationshipsDiagram</title>
<polygon fill="#ffffff" stroke="none" points="-4,4 -4,-490 870,-490 870,4 -4,4"/>
<text text-anchor="middle" x="74.5" y="-7.2" font-family="Helvetica,sans-Serif" font-size="11.00">Generated by SchemaSpy</text>
<!-- facilities -->
<g id="node1" class="node"><title>facilities</title>
<g id="a_node1"><a xlink:href="../../tables/facilities.html" xlink:title="facilities" target="_top">
<polygon fill="#ffffff" stroke="none" points="715,-37 715,-249 858,-249 858,-37 715,-37"/>
<polygon fill="#f5f5f5" stroke="none" points="715.5,-227 715.5,-249 858.5,-249 858.5,-227 715.5,-227"/>
<polygon fill="none" stroke="black" points="715.5,-227 715.5,-249 858.5,-249 858.5,-227 715.5,-227"/>
<text text-anchor="start" x="720.5" y="-236.2" font-family="Helvetica,sans-Serif" font-weight="bold" font-size="11.00">facilities</text>
<text text-anchor="start" x="819.5" y="-235.2" font-family="Helvetica,sans-Serif" font-size="11.00">[table]</text>
<polygon fill="none" stroke="black" points="715.5,-205 715.5,-227 858.5,-227 858.5,-205 715.5,-205"/>
<image xlink:href="../../images/primaryKeys.png" width="11px" height="12px" preserveAspectRatio="xMinYMin meet" x="720.5" y="-222"/>
<text text-anchor="start" x="735.5" y="-213.2" font-family="Helvetica,sans-Serif" font-size="11.00">id</text>
<polygon fill="none" stroke="black" points="715.5,-183 715.5,-205 858.5,-205 858.5,-183 715.5,-183"/>
<image xlink:href="../../images/foreignKeys.png" width="11px" height="12px" preserveAspectRatio="xMinYMin meet" x="720.5" y="-200"/>
<text text-anchor="start" x="735.5" y="-191.2" font-family="Helvetica,sans-Serif" font-size="11.00">site_id</text>
<polygon fill="none" stroke="black" points="715.5,-161 715.5,-183 858.5,-183 858.5,-161 715.5,-161"/>
<image xlink:href="../../images/foreignKeys.png" width="11px" height="12px" preserveAspectRatio="xMinYMin meet" x="720.5" y="-178"/>
<text text-anchor="start" x="735.5" y="-169.2" font-family="Helvetica,sans-Serif" font-size="11.00">type_id</text>
<polygon fill="none" stroke="black" points="715.5,-139 715.5,-161 858.5,-161 858.5,-139 715.5,-139"/>
<image xlink:href="../../images/foreignKeys.png" width="11px" height="12px" preserveAspectRatio="xMinYMin meet" x="720.5" y="-156"/>
<text text-anchor="start" x="735.5" y="-147.2" font-family="Helvetica,sans-Serif" font-size="11.00">created_by</text>
<polygon fill="none" stroke="black" points="715.5,-117 715.5,-139 858.5,-139 858.5,-117 715.5,-117"/>
<image xlink:href="../../images/foreignKeys.png" width="11px" height="12px" preserveAspectRatio="xMinYMin meet" x="720.5" y="-134"/>
<text text-anchor="start" x="735.5" y="-125.2" font-family="Helvetica,sans-Serif" font-size="11.00">modified_by</text>
<polygon fill="#ffffff" stroke="none" points="715.5,-95 715.5,-117 858.5,-117 858.5,-95 715.5,-95"/>
<polygon fill="none" stroke="black" points="715.5,-95 715.5,-117 858.5,-117 858.5,-95 715.5,-95"/>
<text text-anchor="start" x="735.5" y="-103.2" font-family="Helvetica,sans-Serif" font-size="11.00">idle_after_time</text>
<polygon fill="none" stroke="black" points="715.5,-73 715.5,-95 858.5,-95 858.5,-73 715.5,-73"/>
<image xlink:href="../../images/foreignKeys.png" width="11px" height="12px" preserveAspectRatio="xMinYMin meet" x="720.5" y="-90"/>
<text text-anchor="start" x="735.5" y="-81.2" font-family="Helvetica,sans-Serif" font-size="11.00">connection_state_id</text>
<polygon fill="none" stroke="black" points="715.5,-55 715.5,-73 858.5,-73 858.5,-55 715.5,-55"/>
<text text-anchor="start" x="718.5" y="-61.2" font-family="Helvetica,sans-Serif" font-size="11.00">...</text>
<polygon fill="#ffffff" stroke="none" points="715.5,-37 715.5,-55 765.5,-55 765.5,-37 715.5,-37"/>
<polygon fill="none" stroke="black" points="715.5,-37 715.5,-55 765.5,-55 765.5,-37 715.5,-37"/>
<text text-anchor="start" x="718.5" y="-43.2" font-family="Helvetica,sans-Serif" font-size="11.00">&lt; 5</text>
<polygon fill="#ffffff" stroke="none" points="765.5,-37 765.5,-55 821.5,-55 821.5,-37 765.5,-37"/>
<polygon fill="none" stroke="black" points="765.5,-37 765.5,-55 821.5,-55 821.5,-37 765.5,-37"/>
<text text-anchor="start" x="782.5" y="-43.2" font-family="Helvetica,sans-Serif" font-size="11.00">0 rows</text>
<polygon fill="#ffffff" stroke="none" points="821.5,-37 821.5,-55 858.5,-55 858.5,-37 821.5,-37"/>
<polygon fill="none" stroke="black" points="821.5,-37 821.5,-55 858.5,-55 858.5,-37 821.5,-37"/>
<text text-anchor="start" x="838.5" y="-43.2" font-family="Helvetica,sans-Serif" font-size="11.00">5 &gt;</text>
</a>
</g>
</g>
<!-- users -->
<g id="node2" class="node"><title>users</title>
<g id="a_node2"><a xlink:href="../../tables/users.html" xlink:title="users" target="_top">
<polygon fill="#ffffff" stroke="none" points="8,-91 8,-237 196,-237 196,-91 8,-91"/>
<polygon fill="#f5f5f5" stroke="none" points="8,-215 8,-237 196,-237 196,-215 8,-215"/>
<polygon fill="none" stroke="black" points="8,-215 8,-237 196,-237 196,-215 8,-215"/>
<text text-anchor="start" x="13" y="-224.2" font-family="Helvetica,sans-Serif" font-weight="bold" font-size="11.00">users</text>
<text text-anchor="start" x="157" y="-223.2" font-family="Helvetica,sans-Serif" font-size="11.00">[table]</text>
<polygon fill="none" stroke="black" points="8,-193 8,-215 196,-215 196,-193 8,-193"/>
<image xlink:href="../../images/primaryKeys.png" width="11px" height="12px" preserveAspectRatio="xMinYMin meet" x="13" y="-210"/>
<text text-anchor="start" x="28" y="-201.2" font-family="Helvetica,sans-Serif" font-size="11.00">id</text>
<polygon fill="#ffffff" stroke="none" points="8,-171 8,-193 196,-193 196,-171 8,-171"/>
<polygon fill="none" stroke="black" points="8,-171 8,-193 196,-193 196,-171 8,-171"/>
<text text-anchor="start" x="28" y="-179.2" font-family="Helvetica,sans-Serif" font-size="11.00">auth_id</text>
<polygon fill="#ffffff" stroke="none" points="8,-149 8,-171 196,-171 196,-149 8,-149"/>
<polygon fill="none" stroke="black" points="8,-149 8,-171 196,-171 196,-149 8,-149"/>
<text text-anchor="start" x="28" y="-157.2" font-family="Helvetica,sans-Serif" font-size="11.00">email</text>
<polygon fill="none" stroke="black" points="8,-127 8,-149 196,-149 196,-127 8,-127"/>
<image xlink:href="../../images/foreignKeys.png" width="11px" height="12px" preserveAspectRatio="xMinYMin meet" x="13" y="-144"/>
<text text-anchor="start" x="28" y="-135.2" font-family="Helvetica,sans-Serif" font-size="11.00">user_type_id</text>
<polygon fill="none" stroke="black" points="8,-109 8,-127 196,-127 196,-109 8,-109"/>
<text text-anchor="start" x="11" y="-115.2" font-family="Helvetica,sans-Serif" font-size="11.00">...</text>
<polygon fill="#ffffff" stroke="none" points="8,-91 8,-109 80,-109 80,-91 8,-91"/>
<polygon fill="none" stroke="black" points="8,-91 8,-109 80,-109 80,-91 8,-91"/>
<text text-anchor="start" x="11" y="-97.2" font-family="Helvetica,sans-Serif" font-size="11.00">&lt; 1</text>
<polygon fill="#ffffff" stroke="none" points="80,-91 80,-109 141,-109 141,-91 80,-91"/>
<polygon fill="none" stroke="black" points="80,-91 80,-109 141,-109 141,-91 80,-91"/>
<text text-anchor="start" x="107" y="-97.2" font-family="Helvetica,sans-Serif" font-size="11.00">1 row</text>
<polygon fill="#ffffff" stroke="none" points="141,-91 141,-109 196,-109 196,-91 141,-91"/>
<polygon fill="none" stroke="black" points="141,-91 141,-109 196,-109 196,-91 141,-91"/>
<text text-anchor="start" x="169" y="-97.2" font-family="Helvetica,sans-Serif" font-size="11.00">33 &gt;</text>
</a>
</g>
</g>
<!-- facilities&#45;&gt;users -->
<g id="edge1" class="edge"><title>facilities:created_by:w&#45;&gt;users:id:e</title>
<path fill="none" stroke="black" d="M699.745,-149.996C578.975,-149.941 542.928,-149.498 416,-164 403.712,-165.404 209.368,-204 197,-204"/>
<polygon fill="black" stroke="black" points="706.5,-149.998 714.499,-153.6 710.5,-149.999 714.5,-150 714.5,-150 714.5,-150 710.5,-149.999 714.501,-146.4 706.5,-149.998 706.5,-149.998"/>
<ellipse fill="none" stroke="black" cx="703.3" cy="-149.997" rx="3.2" ry="3.2"/>
</g>
<!-- facilities&#45;&gt;users -->
<g id="edge2" class="edge"><title>facilities:modified_by:w&#45;&gt;users:id:e</title>
<path fill="none" stroke="black" d="M700.06,-127.927C498.234,-125.879 426.584,-82.243 237,-168 215.208,-177.857 220.918,-204 197,-204"/>
<polygon fill="black" stroke="black" points="706.5,-127.959 714.482,-131.6 710.5,-127.98 714.5,-128 714.5,-128 714.5,-128 710.5,-127.98 714.518,-124.4 706.5,-127.959 706.5,-127.959"/>
<ellipse fill="none" stroke="black" cx="703.3" cy="-127.943" rx="3.2" ry="3.2"/>
</g>
<!-- sites -->
<g id="node3" class="node"><title>sites</title>
<g id="a_node3"><a xlink:href="../../tables/sites.html" xlink:title="sites" target="_top">
<polygon fill="#ffffff" stroke="none" points="424,-174 424,-482 666,-482 666,-174 424,-174"/>
<polygon fill="#f5f5f5" stroke="none" points="426,-458 426,-480 664,-480 664,-458 426,-458"/>
<polygon fill="none" stroke="black" points="426,-458 426,-480 664,-480 664,-458 426,-458"/>
<text text-anchor="start" x="431" y="-467.2" font-family="Helvetica,sans-Serif" font-weight="bold" font-size="11.00">sites</text>
<text text-anchor="start" x="625" y="-466.2" font-family="Helvetica,sans-Serif" font-size="11.00">[table]</text>
<polygon fill="none" stroke="black" points="426,-436 426,-458 533,-458 533,-436 426,-436"/>
<image xlink:href="../../images/primaryKeys.png" width="11px" height="12px" preserveAspectRatio="xMinYMin meet" x="431" y="-453"/>
<text text-anchor="start" x="446" y="-444.2" font-family="Helvetica,sans-Serif" font-size="11.00">id</text>
<polygon fill="none" stroke="black" points="533,-436 533,-458 664,-458 664,-436 533,-436"/>
<text text-anchor="start" x="536" y="-444.2" font-family="Helvetica,sans-Serif" font-size="11.00">int8[19]</text>
<polygon fill="none" stroke="black" points="426,-414 426,-436 533,-436 533,-414 426,-414"/>
<text text-anchor="start" x="446" y="-422.2" font-family="Helvetica,sans-Serif" font-size="11.00">name</text>
<polygon fill="none" stroke="black" points="533,-414 533,-436 664,-436 664,-414 533,-414"/>
<text text-anchor="start" x="536" y="-422.2" font-family="Helvetica,sans-Serif" font-size="11.00">text[2147483647]</text>
<polygon fill="none" stroke="black" points="426,-392 426,-414 533,-414 533,-392 426,-392"/>
<text text-anchor="start" x="446" y="-400.2" font-family="Helvetica,sans-Serif" font-size="11.00">locale</text>
<polygon fill="none" stroke="black" points="533,-392 533,-414 664,-414 664,-392 533,-392"/>
<text text-anchor="start" x="536" y="-400.2" font-family="Helvetica,sans-Serif" font-size="11.00">text[2147483647]</text>
<polygon fill="none" stroke="black" points="426,-370 426,-392 533,-392 533,-370 426,-370"/>
<text text-anchor="start" x="446" y="-378.2" font-family="Helvetica,sans-Serif" font-size="11.00">timezone</text>
<polygon fill="none" stroke="black" points="533,-370 533,-392 664,-392 664,-370 533,-370"/>
<text text-anchor="start" x="536" y="-378.2" font-family="Helvetica,sans-Serif" font-size="11.00">text[2147483647]</text>
<polygon fill="none" stroke="black" points="426,-348 426,-370 533,-370 533,-348 426,-348"/>
<text text-anchor="start" x="446" y="-356.2" font-family="Helvetica,sans-Serif" font-size="11.00">enabled</text>
<polygon fill="none" stroke="black" points="533,-348 533,-370 664,-370 664,-348 533,-348"/>
<text text-anchor="start" x="536" y="-356.2" font-family="Helvetica,sans-Serif" font-size="11.00">bool[1]</text>
<polygon fill="none" stroke="black" points="426,-326 426,-348 533,-348 533,-326 426,-326"/>
<image xlink:href="../../images/foreignKeys.png" width="11px" height="12px" preserveAspectRatio="xMinYMin meet" x="431" y="-343"/>
<text text-anchor="start" x="446" y="-334.2" font-family="Helvetica,sans-Serif" font-size="11.00">project_id</text>
<polygon fill="none" stroke="black" points="533,-326 533,-348 664,-348 664,-326 533,-326"/>
<text text-anchor="start" x="536" y="-334.2" font-family="Helvetica,sans-Serif" font-size="11.00">int8[19]</text>
<polygon fill="none" stroke="black" points="426,-304 426,-326 533,-326 533,-304 426,-304"/>
<text text-anchor="start" x="446" y="-312.2" font-family="Helvetica,sans-Serif" font-size="11.00">location</text>
<polygon fill="none" stroke="black" points="533,-304 533,-326 664,-326 664,-304 533,-304"/>
<text text-anchor="start" x="536" y="-312.2" font-family="Helvetica,sans-Serif" font-size="11.00">geometry[2147483647]</text>
<polygon fill="none" stroke="black" points="426,-282 426,-304 533,-304 533,-282 426,-282"/>
<text text-anchor="start" x="446" y="-290.2" font-family="Helvetica,sans-Serif" font-size="11.00">created_time</text>
<polygon fill="none" stroke="black" points="533,-282 533,-304 664,-304 664,-282 533,-282"/>
<text text-anchor="start" x="536" y="-290.2" font-family="Helvetica,sans-Serif" font-size="11.00">timestamptz[35,6]</text>
<polygon fill="none" stroke="black" points="426,-260 426,-282 533,-282 533,-260 426,-260"/>
<text text-anchor="start" x="446" y="-268.2" font-family="Helvetica,sans-Serif" font-size="11.00">modified_time</text>
<polygon fill="none" stroke="black" points="533,-260 533,-282 664,-282 664,-260 533,-260"/>
<text text-anchor="start" x="536" y="-268.2" font-family="Helvetica,sans-Serif" font-size="11.00">timestamptz[35,6]</text>
<polygon fill="none" stroke="black" points="426,-238 426,-260 533,-260 533,-238 426,-238"/>
<text text-anchor="start" x="446" y="-246.2" font-family="Helvetica,sans-Serif" font-size="11.00">description</text>
<polygon fill="none" stroke="black" points="533,-238 533,-260 664,-260 664,-238 533,-238"/>
<text text-anchor="start" x="536" y="-246.2" font-family="Helvetica,sans-Serif" font-size="11.00">text[2147483647]</text>
<polygon fill="none" stroke="black" points="426,-216 426,-238 533,-238 533,-216 426,-216"/>
<image xlink:href="../../images/foreignKeys.png" width="11px" height="12px" preserveAspectRatio="xMinYMin meet" x="431" y="-233"/>
<text text-anchor="start" x="446" y="-224.2" font-family="Helvetica,sans-Serif" font-size="11.00">created_by</text>
<polygon fill="none" stroke="black" points="533,-216 533,-238 664,-238 664,-216 533,-216"/>
<text text-anchor="start" x="536" y="-224.2" font-family="Helvetica,sans-Serif" font-size="11.00">int8[19]</text>
<polygon fill="none" stroke="black" points="426,-194 426,-216 533,-216 533,-194 426,-194"/>
<image xlink:href="../../images/foreignKeys.png" width="11px" height="12px" preserveAspectRatio="xMinYMin meet" x="431" y="-211"/>
<text text-anchor="start" x="446" y="-202.2" font-family="Helvetica,sans-Serif" font-size="11.00">modified_by</text>
<polygon fill="none" stroke="black" points="533,-194 533,-216 664,-216 664,-194 533,-194"/>
<text text-anchor="start" x="536" y="-202.2" font-family="Helvetica,sans-Serif" font-size="11.00">int8[19]</text>
<polygon fill="#ffffff" stroke="none" points="426,-176 426,-194 470,-194 470,-176 426,-176"/>
<polygon fill="none" stroke="black" points="426,-176 426,-194 470,-194 470,-176 426,-176"/>
<text text-anchor="start" x="429" y="-182.2" font-family="Helvetica,sans-Serif" font-size="11.00">&lt; 3</text>
<polygon fill="#ffffff" stroke="none" points="470,-176 470,-194 533,-194 533,-176 470,-176"/>
<polygon fill="none" stroke="black" points="470,-176 470,-194 533,-194 533,-176 470,-176"/>
<text text-anchor="start" x="494" y="-182.2" font-family="Helvetica,sans-Serif" font-size="11.00">0 rows</text>
<polygon fill="#ffffff" stroke="none" points="533,-176 533,-194 664,-194 664,-176 533,-176"/>
<polygon fill="none" stroke="black" points="533,-176 533,-194 664,-194 664,-176 533,-176"/>
<text text-anchor="start" x="644" y="-182.2" font-family="Helvetica,sans-Serif" font-size="11.00">1 &gt;</text>
<polygon fill="none" stroke="black" stroke-width="2" points="425,-175 425,-481 665,-481 665,-175 425,-175"/>
</a>
</g>
</g>
<!-- facilities&#45;&gt;sites -->
<g id="edge3" class="edge"><title>facilities:site_id:w&#45;&gt;sites:id.type:e</title>
<path fill="none" stroke="black" d="M700.009,-195.682C616.443,-217.634 774.094,-447 665,-447"/>
<polygon fill="black" stroke="black" points="706.553,-194.923 714.915,-197.576 710.527,-194.461 714.5,-194 714.5,-194 714.5,-194 710.527,-194.461 714.085,-190.424 706.553,-194.923 706.553,-194.923"/>
<ellipse fill="none" stroke="black" cx="703.375" cy="-195.292" rx="3.2" ry="3.2"/>
</g>
<!-- sites&#45;&gt;users -->
<g id="edge7" class="edge"><title>sites:created_by:w&#45;&gt;users:id:e</title>
<path fill="none" stroke="black" d="M410.577,-225.265C401.932,-222.973 396.04,-218.994 383,-217 301.084,-204.472 279.868,-204 197,-204"/>
<polygon fill="black" stroke="black" points="417.057,-226.044 424.57,-230.574 421.029,-226.522 425,-227 425,-227 425,-227 421.029,-226.522 425.43,-223.426 417.057,-226.044 417.057,-226.044"/>
<ellipse fill="none" stroke="black" cx="413.88" cy="-225.662" rx="3.2" ry="3.2"/>
</g>
<!-- sites&#45;&gt;users -->
<g id="edge8" class="edge"><title>sites:modified_by:w&#45;&gt;users:id:e</title>
<path fill="none" stroke="black" d="M410.438,-204.413C401.901,-203.676 395.712,-202.453 383,-202 318.152,-199.687 301.869,-200.379 237,-202 219.206,-202.445 214.8,-204 197,-204"/>
<polygon fill="black" stroke="black" points="417.006,-204.678 424.855,-208.597 421.003,-204.839 425,-205 425,-205 425,-205 421.003,-204.839 425.145,-201.403 417.006,-204.678 417.006,-204.678"/>
<ellipse fill="none" stroke="black" cx="413.809" cy="-204.549" rx="3.2" ry="3.2"/>
</g>
<!-- projects -->
<g id="node4" class="node"><title>projects</title>
<g id="a_node4"><a xlink:href="../../tables/projects.html" xlink:title="projects" target="_top">
<polygon fill="#ffffff" stroke="none" points="245,-228 245,-418 375,-418 375,-228 245,-228"/>
<polygon fill="#f5f5f5" stroke="none" points="245,-396 245,-418 375,-418 375,-396 245,-396"/>
<polygon fill="none" stroke="black" points="245,-396 245,-418 375,-418 375,-396 245,-396"/>
<text text-anchor="start" x="250" y="-405.2" font-family="Helvetica,sans-Serif" font-weight="bold" font-size="11.00">projects</text>
<text text-anchor="start" x="336" y="-404.2" font-family="Helvetica,sans-Serif" font-size="11.00">[table]</text>
<polygon fill="none" stroke="black" points="245,-374 245,-396 375,-396 375,-374 245,-374"/>
<image xlink:href="../../images/primaryKeys.png" width="11px" height="12px" preserveAspectRatio="xMinYMin meet" x="250" y="-391"/>
<text text-anchor="start" x="265" y="-382.2" font-family="Helvetica,sans-Serif" font-size="11.00">id</text>
<polygon fill="none" stroke="black" points="245,-352 245,-374 375,-374 375,-352 245,-352"/>
<image xlink:href="../../images/foreignKeys.png" width="11px" height="12px" preserveAspectRatio="xMinYMin meet" x="250" y="-369"/>
<text text-anchor="start" x="265" y="-360.2" font-family="Helvetica,sans-Serif" font-size="11.00">organization_id</text>
<polygon fill="none" stroke="black" points="245,-330 245,-352 375,-352 375,-330 245,-330"/>
<image xlink:href="../../images/foreignKeys.png" width="11px" height="12px" preserveAspectRatio="xMinYMin meet" x="250" y="-347"/>
<text text-anchor="start" x="265" y="-338.2" font-family="Helvetica,sans-Serif" font-size="11.00">status_id</text>
<polygon fill="none" stroke="black" points="245,-308 245,-330 375,-330 375,-308 245,-308"/>
<image xlink:href="../../images/foreignKeys.png" width="11px" height="12px" preserveAspectRatio="xMinYMin meet" x="250" y="-325"/>
<text text-anchor="start" x="265" y="-316.2" font-family="Helvetica,sans-Serif" font-size="11.00">pm_user_id</text>
<polygon fill="none" stroke="black" points="245,-286 245,-308 375,-308 375,-286 245,-286"/>
<image xlink:href="../../images/foreignKeys.png" width="11px" height="12px" preserveAspectRatio="xMinYMin meet" x="250" y="-303"/>
<text text-anchor="start" x="265" y="-294.2" font-family="Helvetica,sans-Serif" font-size="11.00">created_by</text>
<polygon fill="none" stroke="black" points="245,-264 245,-286 375,-286 375,-264 245,-264"/>
<image xlink:href="../../images/foreignKeys.png" width="11px" height="12px" preserveAspectRatio="xMinYMin meet" x="250" y="-281"/>
<text text-anchor="start" x="265" y="-272.2" font-family="Helvetica,sans-Serif" font-size="11.00">modified_by</text>
<polygon fill="none" stroke="black" points="245,-246 245,-264 375,-264 375,-246 245,-246"/>
<text text-anchor="start" x="248" y="-252.2" font-family="Helvetica,sans-Serif" font-size="11.00">...</text>
<polygon fill="#ffffff" stroke="none" points="245,-228 245,-246 289,-246 289,-228 245,-228"/>
<polygon fill="none" stroke="black" points="245,-228 245,-246 289,-246 289,-228 245,-228"/>
<text text-anchor="start" x="248" y="-234.2" font-family="Helvetica,sans-Serif" font-size="11.00">&lt; 5</text>
<polygon fill="#ffffff" stroke="none" points="289,-228 289,-246 341,-246 341,-228 289,-228"/>
<polygon fill="none" stroke="black" points="289,-228 289,-246 341,-246 341,-228 289,-228"/>
<text text-anchor="start" x="302" y="-234.2" font-family="Helvetica,sans-Serif" font-size="11.00">0 rows</text>
<polygon fill="#ffffff" stroke="none" points="341,-228 341,-246 375,-246 375,-228 341,-228"/>
<polygon fill="none" stroke="black" points="341,-228 341,-246 375,-246 375,-228 341,-228"/>
<text text-anchor="start" x="355" y="-234.2" font-family="Helvetica,sans-Serif" font-size="11.00">3 &gt;</text>
</a>
</g>
</g>
<!-- sites&#45;&gt;projects -->
<g id="edge9" class="edge"><title>sites:project_id:w&#45;&gt;projects:id:e</title>
<path fill="none" stroke="black" d="M411.363,-341.778C397.571,-353.919 400.532,-385 376,-385"/>
<polygon fill="black" stroke="black" points="417.45,-339.645 426.19,-340.397 421.225,-338.323 425,-337 425,-337 425,-337 421.225,-338.323 423.81,-333.603 417.45,-339.645 417.45,-339.645"/>
<ellipse fill="none" stroke="black" cx="414.43" cy="-340.704" rx="3.20001" ry="3.20001"/>
</g>
<!-- projects&#45;&gt;users -->
<g id="edge4" class="edge"><title>projects:created_by:w&#45;&gt;users:id:e</title>
<path fill="none" stroke="black" d="M229.982,-292.514C208.185,-273.937 237.161,-204 197,-204"/>
<polygon fill="black" stroke="black" points="236.381,-294.562 242.903,-300.429 240.19,-295.781 244,-297 244,-297 244,-297 240.19,-295.781 245.097,-293.571 236.381,-294.562 236.381,-294.562"/>
<ellipse fill="none" stroke="black" cx="233.333" cy="-293.587" rx="3.20001" ry="3.20001"/>
</g>
<!-- projects&#45;&gt;users -->
<g id="edge5" class="edge"><title>projects:modified_by:w&#45;&gt;users:id:e</title>
<path fill="none" stroke="black" d="M230.159,-269.894C213.779,-253.614 228.634,-204 197,-204"/>
<polygon fill="black" stroke="black" points="236.494,-272.231 242.754,-278.378 240.247,-273.616 244,-275 244,-275 244,-275 240.247,-273.616 245.246,-271.622 236.494,-272.231 236.494,-272.231"/>
<ellipse fill="none" stroke="black" cx="233.492" cy="-271.124" rx="3.20001" ry="3.20001"/>
</g>
<!-- projects&#45;&gt;users -->
<g id="edge6" class="edge"><title>projects:pm_user_id:w&#45;&gt;users:id:e</title>
<path fill="none" stroke="black" d="M229.83,-315.174C201.241,-295.219 246.176,-204 197,-204"/>
<polygon fill="black" stroke="black" points="236.277,-316.914 243.061,-322.476 240.138,-317.957 244,-319 244,-319 244,-319 240.138,-317.957 244.939,-315.524 236.277,-316.914 236.277,-316.914"/>
<ellipse fill="none" stroke="black" cx="233.187" cy="-316.08" rx="3.2" ry="3.2"/>
</g>
</g>
</svg>
