<?xml version="1.0" encoding="UTF-8" standalone="no"?>
<!DOCTYPE svg PUBLIC "-//W3C//DTD SVG 1.1//EN"
 "http://www.w3.org/Graphics/SVG/1.1/DTD/svg11.dtd">
<!-- Generated by graphviz version 2.38.0 (20140413.2041)
 -->
<!-- Title: oneDegreeRelationshipsDiagram Pages: 1 -->
<svg width="834pt" height="433pt"
 viewBox="0.00 0.00 834.00 433.00" xmlns="http://www.w3.org/2000/svg" xmlns:xlink="http://www.w3.org/1999/xlink">
<g id="graph0" class="graph" transform="scale(1 1) rotate(0) translate(4 429)">
<title>oneDegreeRelationshipsDiagram</title>
<polygon fill="#ffffff" stroke="none" points="-4,4 -4,-429 830,-429 830,4 -4,4"/>
<text text-anchor="middle" x="74.5" y="-7.2" font-family="Helvetica,sans-Serif" font-size="11.00">Generated by SchemaSpy</text>
<!-- projects -->
<g id="node1" class="node"><title>projects</title>
<g id="a_node1"><a xlink:href="../../tables/projects.html" xlink:title="projects" target="_top">
<polygon fill="#ffffff" stroke="none" points="231,-37 231,-183 343,-183 343,-37 231,-37"/>
<polygon fill="#f5f5f5" stroke="none" points="231,-161 231,-183 343,-183 343,-161 231,-161"/>
<polygon fill="none" stroke="black" points="231,-161 231,-183 343,-183 343,-161 231,-161"/>
<text text-anchor="start" x="236" y="-170.2" font-family="Helvetica,sans-Serif" font-weight="bold" font-size="11.00">projects</text>
<text text-anchor="start" x="304" y="-169.2" font-family="Helvetica,sans-Serif" font-size="11.00">[table]</text>
<polygon fill="none" stroke="black" points="231,-139 231,-161 343,-161 343,-139 231,-139"/>
<image xlink:href="../../images/primaryKeys.png" width="11px" height="12px" preserveAspectRatio="xMinYMin meet" x="236" y="-156"/>
<text text-anchor="start" x="251" y="-147.2" font-family="Helvetica,sans-Serif" font-size="11.00">id</text>
<polygon fill="none" stroke="black" points="231,-117 231,-139 343,-139 343,-117 231,-117"/>
<image xlink:href="../../images/foreignKeys.png" width="11px" height="12px" preserveAspectRatio="xMinYMin meet" x="236" y="-134"/>
<text text-anchor="start" x="251" y="-125.2" font-family="Helvetica,sans-Serif" font-size="11.00">organization_id</text>
<polygon fill="none" stroke="black" points="231,-95 231,-117 343,-117 343,-95 231,-95"/>
<image xlink:href="../../images/foreignKeys.png" width="11px" height="12px" preserveAspectRatio="xMinYMin meet" x="236" y="-112"/>
<text text-anchor="start" x="251" y="-103.2" font-family="Helvetica,sans-Serif" font-size="11.00">status_id</text>
<polygon fill="none" stroke="black" points="231,-73 231,-95 343,-95 343,-73 231,-73"/>
<image xlink:href="../../images/foreignKeys.png" width="11px" height="12px" preserveAspectRatio="xMinYMin meet" x="236" y="-90"/>
<text text-anchor="start" x="251" y="-81.2" font-family="Helvetica,sans-Serif" font-size="11.00">pm_user_id</text>
<polygon fill="none" stroke="black" points="231,-55 231,-73 343,-73 343,-55 231,-55"/>
<text text-anchor="start" x="234" y="-61.2" font-family="Helvetica,sans-Serif" font-size="11.00">...</text>
<polygon fill="#ffffff" stroke="none" points="231,-37 231,-55 266,-55 266,-37 231,-37"/>
<polygon fill="none" stroke="black" points="231,-37 231,-55 266,-55 266,-37 231,-37"/>
<text text-anchor="start" x="234" y="-43.2" font-family="Helvetica,sans-Serif" font-size="11.00">&lt; 3</text>
<polygon fill="#ffffff" stroke="none" points="266,-37 266,-55 314,-55 314,-37 266,-37"/>
<polygon fill="none" stroke="black" points="266,-37 266,-55 314,-55 314,-37 266,-37"/>
<text text-anchor="start" x="275" y="-43.2" font-family="Helvetica,sans-Serif" font-size="11.00">0 rows</text>
<polygon fill="#ffffff" stroke="none" points="314,-37 314,-55 343,-55 343,-37 314,-37"/>
<polygon fill="none" stroke="black" points="314,-37 314,-55 343,-55 343,-37 314,-37"/>
<text text-anchor="start" x="323" y="-43.2" font-family="Helvetica,sans-Serif" font-size="11.00">4 &gt;</text>
</a>
</g>
</g>
<!-- organizations -->
<g id="node2" class="node"><title>organizations</title>
<g id="a_node2"><a xlink:href="../../tables/organizations.html" xlink:title="organizations" target="_top">
<polygon fill="#ffffff" stroke="none" points="8,-76 8,-200 182,-200 182,-76 8,-76"/>
<polygon fill="#f5f5f5" stroke="none" points="8,-178 8,-200 182,-200 182,-178 8,-178"/>
<polygon fill="none" stroke="black" points="8,-178 8,-200 182,-200 182,-178 8,-178"/>
<text text-anchor="start" x="13" y="-187.2" font-family="Helvetica,sans-Serif" font-weight="bold" font-size="11.00">organizations</text>
<text text-anchor="start" x="143" y="-186.2" font-family="Helvetica,sans-Serif" font-size="11.00">[table]</text>
<polygon fill="none" stroke="black" points="8,-156 8,-178 182,-178 182,-156 8,-156"/>
<image xlink:href="../../images/primaryKeys.png" width="11px" height="12px" preserveAspectRatio="xMinYMin meet" x="13" y="-173"/>
<text text-anchor="start" x="28" y="-164.2" font-family="Helvetica,sans-Serif" font-size="11.00">id</text>
<polygon fill="none" stroke="black" points="8,-134 8,-156 182,-156 182,-134 8,-134"/>
<image xlink:href="../../images/foreignKeys.png" width="11px" height="12px" preserveAspectRatio="xMinYMin meet" x="13" y="-151"/>
<text text-anchor="start" x="28" y="-142.2" font-family="Helvetica,sans-Serif" font-size="11.00">country_code</text>
<polygon fill="none" stroke="black" points="8,-112 8,-134 182,-134 182,-112 8,-112"/>
<image xlink:href="../../images/foreignKeys.png" width="11px" height="12px" preserveAspectRatio="xMinYMin meet" x="13" y="-129"/>
<text text-anchor="start" x="28" y="-120.2" font-family="Helvetica,sans-Serif" font-size="11.00">country_subdivision_code</text>
<polygon fill="none" stroke="black" points="8,-94 8,-112 182,-112 182,-94 8,-94"/>
<text text-anchor="start" x="11" y="-100.2" font-family="Helvetica,sans-Serif" font-size="11.00">...</text>
<polygon fill="#ffffff" stroke="none" points="8,-76 8,-94 74,-94 74,-76 8,-76"/>
<polygon fill="none" stroke="black" points="8,-76 8,-94 74,-94 74,-76 8,-76"/>
<text text-anchor="start" x="11" y="-82.2" font-family="Helvetica,sans-Serif" font-size="11.00">&lt; 2</text>
<polygon fill="#ffffff" stroke="none" points="74,-76 74,-94 137,-94 137,-76 74,-76"/>
<polygon fill="none" stroke="black" points="74,-76 74,-94 137,-94 137,-76 74,-76"/>
<text text-anchor="start" x="98" y="-82.2" font-family="Helvetica,sans-Serif" font-size="11.00">0 rows</text>
<polygon fill="#ffffff" stroke="none" points="137,-76 137,-94 182,-94 182,-76 137,-76"/>
<polygon fill="none" stroke="black" points="137,-76 137,-94 182,-94 182,-76 137,-76"/>
<text text-anchor="start" x="162" y="-82.2" font-family="Helvetica,sans-Serif" font-size="11.00">4 &gt;</text>
</a>
</g>
</g>
<!-- projects&#45;&gt;organizations -->
<g id="edge1" class="edge"><title>projects:organization_id:w&#45;&gt;organizations:id:e</title>
<path fill="none" stroke="black" d="M216.409,-132.782C204.397,-143.196 204.206,-167 183,-167"/>
<polygon fill="black" stroke="black" points="222.454,-130.655 231.195,-131.396 226.227,-129.328 230,-128 230,-128 230,-128 226.227,-129.328 228.805,-124.604 222.454,-130.655 222.454,-130.655"/>
<ellipse fill="none" stroke="black" cx="219.435" cy="-131.717" rx="3.20001" ry="3.20001"/>
</g>
<!-- sites -->
<g id="node3" class="node"><title>sites</title>
<g id="a_node3"><a xlink:href="../../tables/sites.html" xlink:title="sites" target="_top">
<polygon fill="#ffffff" stroke="none" points="417,-54 417,-156 524,-156 524,-54 417,-54"/>
<polygon fill="#f5f5f5" stroke="none" points="417.5,-134 417.5,-156 524.5,-156 524.5,-134 417.5,-134"/>
<polygon fill="none" stroke="black" points="417.5,-134 417.5,-156 524.5,-156 524.5,-134 417.5,-134"/>
<text text-anchor="start" x="422.5" y="-143.2" font-family="Helvetica,sans-Serif" font-weight="bold" font-size="11.00">sites</text>
<text text-anchor="start" x="485.5" y="-142.2" font-family="Helvetica,sans-Serif" font-size="11.00">[table]</text>
<polygon fill="none" stroke="black" points="417.5,-112 417.5,-134 524.5,-134 524.5,-112 417.5,-112"/>
<image xlink:href="../../images/primaryKeys.png" width="11px" height="12px" preserveAspectRatio="xMinYMin meet" x="422.5" y="-129"/>
<text text-anchor="start" x="437.5" y="-120.2" font-family="Helvetica,sans-Serif" font-size="11.00">id</text>
<polygon fill="none" stroke="black" points="417.5,-90 417.5,-112 524.5,-112 524.5,-90 417.5,-90"/>
<image xlink:href="../../images/foreignKeys.png" width="11px" height="12px" preserveAspectRatio="xMinYMin meet" x="422.5" y="-107"/>
<text text-anchor="start" x="437.5" y="-98.2" font-family="Helvetica,sans-Serif" font-size="11.00">project_id</text>
<polygon fill="none" stroke="black" points="417.5,-72 417.5,-90 524.5,-90 524.5,-72 417.5,-72"/>
<text text-anchor="start" x="420.5" y="-78.2" font-family="Helvetica,sans-Serif" font-size="11.00">...</text>
<polygon fill="#ffffff" stroke="none" points="417.5,-54 417.5,-72 449.5,-72 449.5,-54 417.5,-54"/>
<polygon fill="none" stroke="black" points="417.5,-54 417.5,-72 449.5,-72 449.5,-54 417.5,-54"/>
<text text-anchor="start" x="420.5" y="-60.2" font-family="Helvetica,sans-Serif" font-size="11.00">&lt; 1</text>
<polygon fill="#ffffff" stroke="none" points="449.5,-54 449.5,-72 496.5,-72 496.5,-54 449.5,-54"/>
<polygon fill="none" stroke="black" points="449.5,-54 449.5,-72 496.5,-72 496.5,-54 449.5,-54"/>
<text text-anchor="start" x="457.5" y="-60.2" font-family="Helvetica,sans-Serif" font-size="11.00">0 rows</text>
<polygon fill="#ffffff" stroke="none" points="496.5,-54 496.5,-72 524.5,-72 524.5,-54 496.5,-54"/>
<polygon fill="none" stroke="black" points="496.5,-54 496.5,-72 524.5,-72 524.5,-54 496.5,-54"/>
<text text-anchor="start" x="504.5" y="-60.2" font-family="Helvetica,sans-Serif" font-size="11.00">4 &gt;</text>
</a>
</g>
</g>
<!-- sites&#45;&gt;projects -->
<g id="edge2" class="edge"><title>sites:project_id:w&#45;&gt;projects:id:e</title>
<path fill="none" stroke="black" d="M402.138,-103.775C378.213,-114.14 377.27,-150 344,-150"/>
<polygon fill="black" stroke="black" points="408.645,-102.518 417.183,-104.535 412.573,-101.759 416.5,-101 416.5,-101 416.5,-101 412.573,-101.759 415.817,-97.4654 408.645,-102.518 408.645,-102.518"/>
<ellipse fill="none" stroke="black" cx="405.503" cy="-103.125" rx="3.2" ry="3.2"/>
</g>
<!-- species_options -->
<g id="node4" class="node"><title>species_options</title>
<g id="a_node4"><a xlink:href="../../tables/species_options.html" xlink:title="species_options" target="_top">
<polygon fill="#ffffff" stroke="none" points="598,-85 598,-283 818,-283 818,-85 598,-85"/>
<polygon fill="#f5f5f5" stroke="none" points="600,-259 600,-281 816,-281 816,-259 600,-259"/>
<polygon fill="none" stroke="black" points="600,-259 600,-281 816,-281 816,-259 600,-259"/>
<text text-anchor="start" x="605" y="-268.2" font-family="Helvetica,sans-Serif" font-weight="bold" font-size="11.00">species_options</text>
<text text-anchor="start" x="777" y="-267.2" font-family="Helvetica,sans-Serif" font-size="11.00">[table]</text>
<polygon fill="none" stroke="black" points="600,-237 600,-259 714,-259 714,-237 600,-237"/>
<image xlink:href="../../images/primaryKeys.png" width="11px" height="12px" preserveAspectRatio="xMinYMin meet" x="605" y="-254"/>
<text text-anchor="start" x="620" y="-245.2" font-family="Helvetica,sans-Serif" font-size="11.00">id</text>
<polygon fill="none" stroke="black" points="714,-237 714,-259 816,-259 816,-237 714,-237"/>
<text text-anchor="start" x="717" y="-245.2" font-family="Helvetica,sans-Serif" font-size="11.00">int8[19]</text>
<polygon fill="none" stroke="black" points="600,-215 600,-237 714,-237 714,-215 600,-215"/>
<image xlink:href="../../images/foreignKeys.png" width="11px" height="12px" preserveAspectRatio="xMinYMin meet" x="605" y="-232"/>
<text text-anchor="start" x="620" y="-223.2" font-family="Helvetica,sans-Serif" font-size="11.00">species_id</text>
<polygon fill="none" stroke="black" points="714,-215 714,-237 816,-237 816,-215 714,-215"/>
<text text-anchor="start" x="717" y="-223.2" font-family="Helvetica,sans-Serif" font-size="11.00">int8[19]</text>
<polygon fill="none" stroke="black" points="600,-193 600,-215 714,-215 714,-193 600,-193"/>
<image xlink:href="../../images/foreignKeys.png" width="11px" height="12px" preserveAspectRatio="xMinYMin meet" x="605" y="-210"/>
<text text-anchor="start" x="620" y="-201.2" font-family="Helvetica,sans-Serif" font-size="11.00">organization_id</text>
<polygon fill="none" stroke="black" points="714,-193 714,-215 816,-215 816,-193 714,-193"/>
<text text-anchor="start" x="717" y="-201.2" font-family="Helvetica,sans-Serif" font-size="11.00">int8[19]</text>
<polygon fill="none" stroke="black" points="600,-171 600,-193 714,-193 714,-171 600,-171"/>
<image xlink:href="../../images/foreignKeys.png" width="11px" height="12px" preserveAspectRatio="xMinYMin meet" x="605" y="-188"/>
<text text-anchor="start" x="620" y="-179.2" font-family="Helvetica,sans-Serif" font-size="11.00">project_id</text>
<polygon fill="none" stroke="black" points="714,-171 714,-193 816,-193 816,-171 714,-171"/>
<text text-anchor="start" x="717" y="-179.2" font-family="Helvetica,sans-Serif" font-size="11.00">int8[19]</text>
<polygon fill="none" stroke="black" points="600,-149 600,-171 714,-171 714,-149 600,-149"/>
<image xlink:href="../../images/foreignKeys.png" width="11px" height="12px" preserveAspectRatio="xMinYMin meet" x="605" y="-166"/>
<text text-anchor="start" x="620" y="-157.2" font-family="Helvetica,sans-Serif" font-size="11.00">site_id</text>
<polygon fill="none" stroke="black" points="714,-149 714,-171 816,-171 816,-149 714,-149"/>
<text text-anchor="start" x="717" y="-157.2" font-family="Helvetica,sans-Serif" font-size="11.00">int8[19]</text>
<polygon fill="none" stroke="black" points="600,-127 600,-149 714,-149 714,-127 600,-127"/>
<text text-anchor="start" x="620" y="-135.2" font-family="Helvetica,sans-Serif" font-size="11.00">created_time</text>
<polygon fill="none" stroke="black" points="714,-127 714,-149 816,-149 816,-127 714,-127"/>
<text text-anchor="start" x="717" y="-135.2" font-family="Helvetica,sans-Serif" font-size="11.00">timestamptz[35,6]</text>
<polygon fill="none" stroke="black" points="600,-105 600,-127 714,-127 714,-105 600,-105"/>
<text text-anchor="start" x="620" y="-113.2" font-family="Helvetica,sans-Serif" font-size="11.00">modified_time</text>
<polygon fill="none" stroke="black" points="714,-105 714,-127 816,-127 816,-105 714,-105"/>
<text text-anchor="start" x="717" y="-113.2" font-family="Helvetica,sans-Serif" font-size="11.00">timestamptz[35,6]</text>
<polygon fill="#ffffff" stroke="none" points="600,-87 600,-105 647,-105 647,-87 600,-87"/>
<polygon fill="none" stroke="black" points="600,-87 600,-105 647,-105 647,-87 600,-87"/>
<text text-anchor="start" x="603" y="-93.2" font-family="Helvetica,sans-Serif" font-size="11.00">&lt; 4</text>
<polygon fill="#ffffff" stroke="none" points="647,-87 647,-105 714,-105 714,-87 647,-87"/>
<polygon fill="none" stroke="black" points="647,-87 647,-105 714,-105 714,-87 647,-87"/>
<text text-anchor="start" x="675" y="-93.2" font-family="Helvetica,sans-Serif" font-size="11.00">0 rows</text>
<polygon fill="#ffffff" stroke="none" points="714,-87 714,-105 816,-105 816,-87 714,-87"/>
<polygon fill="none" stroke="black" points="714,-87 714,-105 816,-105 816,-87 714,-87"/>
<text text-anchor="start" x="796" y="-93.2" font-family="Helvetica,sans-Serif" font-size="11.00">0 &gt;</text>
<polygon fill="none" stroke="black" stroke-width="2" points="599,-86 599,-282 817,-282 817,-86 599,-86"/>
</a>
</g>
</g>
<!-- species_options&#45;&gt;projects -->
<g id="edge4" class="edge"><title>species_options:project_id:w&#45;&gt;projects:id:e</title>
<path fill="none" stroke="black" d="M584.408,-182.056C500.276,-182.695 472.226,-188.195 384,-167 365.218,-162.488 363.317,-150 344,-150"/>
<polygon fill="black" stroke="black" points="591,-182.031 599.014,-185.6 595,-182.015 599,-182 599,-182 599,-182 595,-182.015 598.986,-178.4 591,-182.031 591,-182.031"/>
<ellipse fill="none" stroke="black" cx="587.8" cy="-182.043" rx="3.2" ry="3.2"/>
</g>
<!-- species_options&#45;&gt;organizations -->
<g id="edge3" class="edge"><title>species_options:organization_id:w&#45;&gt;organizations:id:e</title>
<path fill="none" stroke="black" d="M584.134,-204.109C428.724,-206.399 377.374,-243.479 223,-194 202.575,-187.453 204.449,-167 183,-167"/>
<polygon fill="black" stroke="black" points="591,-204.059 599.026,-207.6 595,-204.029 599,-204 599,-204 599,-204 595,-204.029 598.974,-200.4 591,-204.059 591,-204.059"/>
<ellipse fill="none" stroke="black" cx="587.8" cy="-204.082" rx="3.2" ry="3.2"/>
</g>
<!-- species_options&#45;&gt;sites -->
<g id="edge5" class="edge"><title>species_options:site_id:w&#45;&gt;sites:id:e</title>
<path fill="none" stroke="black" d="M584.551,-157.685C561.479,-149.585 556.501,-123 525.5,-123"/>
<polygon fill="black" stroke="black" points="591.101,-158.735 598.431,-163.555 595.05,-159.367 599,-160 599,-160 599,-160 595.05,-159.367 599.569,-156.445 591.101,-158.735 591.101,-158.735"/>
<ellipse fill="none" stroke="black" cx="587.941" cy="-158.228" rx="3.2" ry="3.2"/>
</g>
<!-- species -->
<g id="node5" class="node"><title>species</title>
<g id="a_node5"><a xlink:href="../../tables/species.html" xlink:title="species" target="_top">
<polygon fill="#ffffff" stroke="none" points="392,-231 392,-421 549,-421 549,-231 392,-231"/>
<polygon fill="#f5f5f5" stroke="none" points="392.5,-399 392.5,-421 549.5,-421 549.5,-399 392.5,-399"/>
<polygon fill="none" stroke="black" points="392.5,-399 392.5,-421 549.5,-421 549.5,-399 392.5,-399"/>
<text text-anchor="start" x="397.5" y="-408.2" font-family="Helvetica,sans-Serif" font-weight="bold" font-size="11.00">species</text>
<text text-anchor="start" x="510.5" y="-407.2" font-family="Helvetica,sans-Serif" font-size="11.00">[table]</text>
<polygon fill="none" stroke="black" points="392.5,-377 392.5,-399 549.5,-399 549.5,-377 392.5,-377"/>
<image xlink:href="../../images/primaryKeys.png" width="11px" height="12px" preserveAspectRatio="xMinYMin meet" x="397.5" y="-394"/>
<text text-anchor="start" x="412.5" y="-385.2" font-family="Helvetica,sans-Serif" font-size="11.00">id</text>
<polygon fill="#ffffff" stroke="none" points="392.5,-355 392.5,-377 549.5,-377 549.5,-355 392.5,-355"/>
<polygon fill="none" stroke="black" points="392.5,-355 392.5,-377 549.5,-377 549.5,-355 392.5,-355"/>
<text text-anchor="start" x="412.5" y="-363.2" font-family="Helvetica,sans-Serif" font-size="11.00">created_time</text>
<polygon fill="#ffffff" stroke="none" points="392.5,-333 392.5,-355 549.5,-355 549.5,-333 392.5,-333"/>
<polygon fill="none" stroke="black" points="392.5,-333 392.5,-355 549.5,-355 549.5,-333 392.5,-333"/>
<text text-anchor="start" x="412.5" y="-341.2" font-family="Helvetica,sans-Serif" font-size="11.00">name</text>
<polygon fill="none" stroke="black" points="392.5,-311 392.5,-333 549.5,-333 549.5,-311 392.5,-311"/>
<image xlink:href="../../images/foreignKeys.png" width="11px" height="12px" preserveAspectRatio="xMinYMin meet" x="397.5" y="-328"/>
<text text-anchor="start" x="412.5" y="-319.2" font-family="Helvetica,sans-Serif" font-size="11.00">plant_form_id</text>
<polygon fill="none" stroke="black" points="392.5,-289 392.5,-311 549.5,-311 549.5,-289 392.5,-289"/>
<image xlink:href="../../images/foreignKeys.png" width="11px" height="12px" preserveAspectRatio="xMinYMin meet" x="397.5" y="-306"/>
<text text-anchor="start" x="412.5" y="-297.2" font-family="Helvetica,sans-Serif" font-size="11.00">conservation_status_id</text>
<polygon fill="none" stroke="black" points="392.5,-267 392.5,-289 549.5,-289 549.5,-267 392.5,-267"/>
<image xlink:href="../../images/foreignKeys.png" width="11px" height="12px" preserveAspectRatio="xMinYMin meet" x="397.5" y="-284"/>
<text text-anchor="start" x="412.5" y="-275.2" font-family="Helvetica,sans-Serif" font-size="11.00">rare_type_id</text>
<polygon fill="none" stroke="black" points="392.5,-249 392.5,-267 549.5,-267 549.5,-249 392.5,-249"/>
<text text-anchor="start" x="395.5" y="-255.2" font-family="Helvetica,sans-Serif" font-size="11.00">...</text>
<polygon fill="#ffffff" stroke="none" points="392.5,-231 392.5,-249 449.5,-249 449.5,-231 392.5,-231"/>
<polygon fill="none" stroke="black" points="392.5,-231 392.5,-249 449.5,-249 449.5,-231 392.5,-231"/>
<text text-anchor="start" x="395.5" y="-237.2" font-family="Helvetica,sans-Serif" font-size="11.00">&lt; 3</text>
<polygon fill="#ffffff" stroke="none" points="449.5,-231 449.5,-249 508.5,-249 508.5,-231 449.5,-231"/>
<polygon fill="none" stroke="black" points="449.5,-231 449.5,-249 508.5,-249 508.5,-231 449.5,-231"/>
<text text-anchor="start" x="469.5" y="-237.2" font-family="Helvetica,sans-Serif" font-size="11.00">0 rows</text>
<polygon fill="#ffffff" stroke="none" points="508.5,-231 508.5,-249 549.5,-249 549.5,-231 508.5,-231"/>
<polygon fill="none" stroke="black" points="508.5,-231 508.5,-249 549.5,-249 549.5,-231 508.5,-231"/>
<text text-anchor="start" x="529.5" y="-237.2" font-family="Helvetica,sans-Serif" font-size="11.00">4 &gt;</text>
</a>
</g>
</g>
<!-- species_options&#45;&gt;species -->
<g id="edge6" class="edge"><title>species_options:species_id:w&#45;&gt;species:id:e</title>
<path fill="none" stroke="black" d="M584.749,-228.677C538.327,-249.74 619.933,-388 550.5,-388"/>
<polygon fill="black" stroke="black" points="591.137,-227.477 599.665,-229.538 595.069,-226.738 599,-226 599,-226 599,-226 595.069,-226.738 598.335,-222.462 591.137,-227.477 591.137,-227.477"/>
<ellipse fill="none" stroke="black" cx="587.992" cy="-228.068" rx="3.2" ry="3.2"/>
</g>
</g>
</svg>
