<?xml version="1.0" encoding="UTF-8" standalone="no"?>
<!DOCTYPE svg PUBLIC "-//W3C//DTD SVG 1.1//EN"
 "http://www.w3.org/Graphics/SVG/1.1/DTD/svg11.dtd">
<!-- Generated by graphviz version 2.38.0 (20140413.2041)
 -->
<!-- Title: oneDegreeRelationshipsDiagram Pages: 1 -->
<svg width="587pt" height="547pt"
 viewBox="0.00 0.00 587.00 547.00" xmlns="http://www.w3.org/2000/svg" xmlns:xlink="http://www.w3.org/1999/xlink">
<g id="graph0" class="graph" transform="scale(1 1) rotate(0) translate(4 543)">
<title>oneDegreeRelationshipsDiagram</title>
<polygon fill="#ffffff" stroke="none" points="-4,4 -4,-543 583,-543 583,4 -4,4"/>
<text text-anchor="middle" x="74.5" y="-7.2" font-family="Helvetica,sans-Serif" font-size="11.00">Generated by SchemaSpy</text>
<!-- accessions -->
<g id="node1" class="node"><title>accessions</title>
<g id="a_node1"><a xlink:href="../../tables/accessions.html" xlink:title="accessions" target="_top">
<polygon fill="#ffffff" stroke="none" points="340,-37 340,-535 571,-535 571,-37 340,-37"/>
<polygon fill="#f5f5f5" stroke="none" points="340.5,-513 340.5,-535 571.5,-535 571.5,-513 340.5,-513"/>
<polygon fill="none" stroke="black" points="340.5,-513 340.5,-535 571.5,-535 571.5,-513 340.5,-513"/>
<text text-anchor="start" x="345.5" y="-522.2" font-family="Helvetica,sans-Serif" font-weight="bold" font-size="11.00">accessions</text>
<text text-anchor="start" x="532.5" y="-521.2" font-family="Helvetica,sans-Serif" font-size="11.00">[table]</text>
<polygon fill="none" stroke="black" points="340.5,-491 340.5,-513 571.5,-513 571.5,-491 340.5,-491"/>
<image xlink:href="../../images/primaryKeys.png" width="11px" height="12px" preserveAspectRatio="xMinYMin meet" x="345.5" y="-508"/>
<text text-anchor="start" x="360.5" y="-499.2" font-family="Helvetica,sans-Serif" font-size="11.00">id</text>
<polygon fill="#ffffff" stroke="none" points="340.5,-469 340.5,-491 571.5,-491 571.5,-469 340.5,-469"/>
<polygon fill="none" stroke="black" points="340.5,-469 340.5,-491 571.5,-491 571.5,-469 340.5,-469"/>
<image xlink:href="../../images/foreignKeys.png" width="11px" height="12px" preserveAspectRatio="xMinYMin meet" x="345.5" y="-486"/>
<text text-anchor="start" x="360.5" y="-477.2" font-family="Helvetica,sans-Serif" font-size="11.00">facility_id</text>
<polygon fill="none" stroke="black" points="340.5,-447 340.5,-469 571.5,-469 571.5,-447 340.5,-447"/>
<image xlink:href="../../images/foreignKeys.png" width="11px" height="12px" preserveAspectRatio="xMinYMin meet" x="345.5" y="-464"/>
<text text-anchor="start" x="360.5" y="-455.2" font-family="Helvetica,sans-Serif" font-size="11.00">app_device_id</text>
<polygon fill="#ffffff" stroke="none" points="340.5,-425 340.5,-447 571.5,-447 571.5,-425 340.5,-425"/>
<polygon fill="none" stroke="black" points="340.5,-425 340.5,-447 571.5,-447 571.5,-425 340.5,-425"/>
<text text-anchor="start" x="360.5" y="-433.2" font-family="Helvetica,sans-Serif" font-size="11.00">number</text>
<polygon fill="#ffffff" stroke="none" points="340.5,-403 340.5,-425 571.5,-425 571.5,-403 340.5,-403"/>
<polygon fill="none" stroke="black" points="340.5,-403 340.5,-425 571.5,-425 571.5,-403 340.5,-403"/>
<text text-anchor="start" x="360.5" y="-411.2" font-family="Helvetica,sans-Serif" font-size="11.00">received_date</text>
<polygon fill="none" stroke="black" points="340.5,-381 340.5,-403 571.5,-403 571.5,-381 340.5,-381"/>
<image xlink:href="../../images/foreignKeys.png" width="11px" height="12px" preserveAspectRatio="xMinYMin meet" x="345.5" y="-398"/>
<text text-anchor="start" x="360.5" y="-389.2" font-family="Helvetica,sans-Serif" font-size="11.00">state_id</text>
<polygon fill="none" stroke="black" points="340.5,-359 340.5,-381 571.5,-381 571.5,-359 340.5,-359"/>
<image xlink:href="../../images/foreignKeys.png" width="11px" height="12px" preserveAspectRatio="xMinYMin meet" x="345.5" y="-376"/>
<text text-anchor="start" x="360.5" y="-367.2" font-family="Helvetica,sans-Serif" font-size="11.00">storage_location_id</text>
<polygon fill="#ffffff" stroke="none" points="340.5,-337 340.5,-359 571.5,-359 571.5,-337 340.5,-337"/>
<polygon fill="none" stroke="black" points="340.5,-337 340.5,-359 571.5,-359 571.5,-337 340.5,-337"/>
<text text-anchor="start" x="360.5" y="-345.2" font-family="Helvetica,sans-Serif" font-size="11.00">created_time</text>
<polygon fill="none" stroke="black" points="340.5,-315 340.5,-337 571.5,-337 571.5,-315 340.5,-315"/>
<image xlink:href="../../images/foreignKeys.png" width="11px" height="12px" preserveAspectRatio="xMinYMin meet" x="345.5" y="-332"/>
<text text-anchor="start" x="360.5" y="-323.2" font-family="Helvetica,sans-Serif" font-size="11.00">processing_method_id</text>
<polygon fill="none" stroke="black" points="340.5,-293 340.5,-315 571.5,-315 571.5,-293 340.5,-293"/>
<image xlink:href="../../images/foreignKeys.png" width="11px" height="12px" preserveAspectRatio="xMinYMin meet" x="345.5" y="-310"/>
<text text-anchor="start" x="360.5" y="-301.2" font-family="Helvetica,sans-Serif" font-size="11.00">target_storage_condition</text>
<polygon fill="none" stroke="black" points="340.5,-271 340.5,-293 571.5,-293 571.5,-271 340.5,-271"/>
<image xlink:href="../../images/foreignKeys.png" width="11px" height="12px" preserveAspectRatio="xMinYMin meet" x="345.5" y="-288"/>
<text text-anchor="start" x="360.5" y="-279.2" font-family="Helvetica,sans-Serif" font-size="11.00">species_endangered_type_id</text>
<polygon fill="none" stroke="black" points="340.5,-249 340.5,-271 571.5,-271 571.5,-249 340.5,-249"/>
<image xlink:href="../../images/foreignKeys.png" width="11px" height="12px" preserveAspectRatio="xMinYMin meet" x="345.5" y="-266"/>
<text text-anchor="start" x="360.5" y="-257.2" font-family="Helvetica,sans-Serif" font-size="11.00">rare_type_id</text>
<polygon fill="none" stroke="black" points="340.5,-227 340.5,-249 571.5,-249 571.5,-227 340.5,-227"/>
<image xlink:href="../../images/foreignKeys.png" width="11px" height="12px" preserveAspectRatio="xMinYMin meet" x="345.5" y="-244"/>
<text text-anchor="start" x="360.5" y="-235.2" font-family="Helvetica,sans-Serif" font-size="11.00">source_plant_origin_id</text>
<polygon fill="none" stroke="black" points="340.5,-205 340.5,-227 571.5,-227 571.5,-205 340.5,-205"/>
<image xlink:href="../../images/foreignKeys.png" width="11px" height="12px" preserveAspectRatio="xMinYMin meet" x="345.5" y="-222"/>
<text text-anchor="start" x="360.5" y="-213.2" font-family="Helvetica,sans-Serif" font-size="11.00">remaining_units_id</text>
<polygon fill="none" stroke="black" points="340.5,-183 340.5,-205 571.5,-205 571.5,-183 340.5,-183"/>
<image xlink:href="../../images/foreignKeys.png" width="11px" height="12px" preserveAspectRatio="xMinYMin meet" x="345.5" y="-200"/>
<text text-anchor="start" x="360.5" y="-191.2" font-family="Helvetica,sans-Serif" font-size="11.00">subset_weight_units_id</text>
<polygon fill="none" stroke="black" points="340.5,-161 340.5,-183 571.5,-183 571.5,-161 340.5,-161"/>
<image xlink:href="../../images/foreignKeys.png" width="11px" height="12px" preserveAspectRatio="xMinYMin meet" x="345.5" y="-178"/>
<text text-anchor="start" x="360.5" y="-169.2" font-family="Helvetica,sans-Serif" font-size="11.00">total_units_id</text>
<polygon fill="none" stroke="black" points="340.5,-139 340.5,-161 571.5,-161 571.5,-139 340.5,-139"/>
<image xlink:href="../../images/foreignKeys.png" width="11px" height="12px" preserveAspectRatio="xMinYMin meet" x="345.5" y="-156"/>
<text text-anchor="start" x="360.5" y="-147.2" font-family="Helvetica,sans-Serif" font-size="11.00">created_by</text>
<polygon fill="none" stroke="black" points="340.5,-117 340.5,-139 571.5,-139 571.5,-117 340.5,-117"/>
<image xlink:href="../../images/foreignKeys.png" width="11px" height="12px" preserveAspectRatio="xMinYMin meet" x="345.5" y="-134"/>
<text text-anchor="start" x="360.5" y="-125.2" font-family="Helvetica,sans-Serif" font-size="11.00">modified_by</text>
<polygon fill="none" stroke="black" points="340.5,-95 340.5,-117 571.5,-117 571.5,-95 340.5,-95"/>
<image xlink:href="../../images/foreignKeys.png" width="11px" height="12px" preserveAspectRatio="xMinYMin meet" x="345.5" y="-112"/>
<text text-anchor="start" x="360.5" y="-103.2" font-family="Helvetica,sans-Serif" font-size="11.00">species_id</text>
<polygon fill="none" stroke="black" points="340.5,-73 340.5,-95 571.5,-95 571.5,-73 340.5,-73"/>
<image xlink:href="../../images/foreignKeys.png" width="11px" height="12px" preserveAspectRatio="xMinYMin meet" x="345.5" y="-90"/>
<text text-anchor="start" x="360.5" y="-81.2" font-family="Helvetica,sans-Serif" font-size="11.00">collection_site_country_code</text>
<polygon fill="none" stroke="black" points="340.5,-55 340.5,-73 571.5,-73 571.5,-55 340.5,-55"/>
<text text-anchor="start" x="343.5" y="-61.2" font-family="Helvetica,sans-Serif" font-size="11.00">...</text>
<polygon fill="#ffffff" stroke="none" points="340.5,-37 340.5,-55 438.5,-55 438.5,-37 340.5,-37"/>
<polygon fill="none" stroke="black" points="340.5,-37 340.5,-55 438.5,-55 438.5,-37 340.5,-37"/>
<text text-anchor="start" x="343.5" y="-43.2" font-family="Helvetica,sans-Serif" font-size="11.00">&lt; 16</text>
<polygon fill="#ffffff" stroke="none" points="438.5,-37 438.5,-55 514.5,-55 514.5,-37 438.5,-37"/>
<polygon fill="none" stroke="black" points="438.5,-37 438.5,-55 514.5,-55 514.5,-37 438.5,-37"/>
<text text-anchor="start" x="475.5" y="-43.2" font-family="Helvetica,sans-Serif" font-size="11.00">0 rows</text>
<polygon fill="#ffffff" stroke="none" points="514.5,-37 514.5,-55 571.5,-55 571.5,-37 514.5,-37"/>
<polygon fill="none" stroke="black" points="514.5,-37 514.5,-55 571.5,-55 571.5,-37 514.5,-37"/>
<text text-anchor="start" x="551.5" y="-43.2" font-family="Helvetica,sans-Serif" font-size="11.00">8 &gt;</text>
</a>
</g>
</g>
<!-- species_endangered_types -->
<g id="node2" class="node"><title>species_endangered_types</title>
<g id="a_node2"><a xlink:href="../../tables/species_endangered_types.html" xlink:title="species_endangered_types" target="_top">
<polygon fill="#ffffff" stroke="none" points="8,-229 8,-317 291,-317 291,-229 8,-229"/>
<polygon fill="#f5f5f5" stroke="none" points="10.5,-293 10.5,-315 289.5,-315 289.5,-293 10.5,-293"/>
<polygon fill="none" stroke="black" points="10.5,-293 10.5,-315 289.5,-315 289.5,-293 10.5,-293"/>
<text text-anchor="start" x="15.5" y="-302.2" font-family="Helvetica,sans-Serif" font-weight="bold" font-size="11.00">species_endangered_types</text>
<text text-anchor="start" x="250.5" y="-301.2" font-family="Helvetica,sans-Serif" font-size="11.00">[table]</text>
<polygon fill="none" stroke="black" points="10.5,-271 10.5,-293 188.5,-293 188.5,-271 10.5,-271"/>
<image xlink:href="../../images/primaryKeys.png" width="11px" height="12px" preserveAspectRatio="xMinYMin meet" x="15.5" y="-288"/>
<text text-anchor="start" x="30.5" y="-279.2" font-family="Helvetica,sans-Serif" font-size="11.00">id</text>
<polygon fill="none" stroke="black" points="188.5,-271 188.5,-293 289.5,-293 289.5,-271 188.5,-271"/>
<text text-anchor="start" x="191.5" y="-279.2" font-family="Helvetica,sans-Serif" font-size="11.00">int4[10]</text>
<polygon fill="none" stroke="black" points="10.5,-249 10.5,-271 188.5,-271 188.5,-249 10.5,-249"/>
<text text-anchor="start" x="30.5" y="-257.2" font-family="Helvetica,sans-Serif" font-size="11.00">name</text>
<polygon fill="none" stroke="black" points="188.5,-249 188.5,-271 289.5,-271 289.5,-249 188.5,-249"/>
<text text-anchor="start" x="191.5" y="-257.2" font-family="Helvetica,sans-Serif" font-size="11.00">text[2147483647]</text>
<polygon fill="#ffffff" stroke="none" points="10.5,-231 10.5,-249 89.5,-249 89.5,-231 10.5,-231"/>
<polygon fill="none" stroke="black" points="10.5,-231 10.5,-249 89.5,-249 89.5,-231 10.5,-231"/>
<text text-anchor="start" x="13.5" y="-237.2" font-family="Helvetica,sans-Serif" font-size="11.00">&lt; 0</text>
<polygon fill="#ffffff" stroke="none" points="89.5,-231 89.5,-249 188.5,-249 188.5,-231 89.5,-231"/>
<polygon fill="none" stroke="black" points="89.5,-231 89.5,-249 188.5,-249 188.5,-231 89.5,-231"/>
<text text-anchor="start" x="149.5" y="-237.2" font-family="Helvetica,sans-Serif" font-size="11.00">3 rows</text>
<polygon fill="#ffffff" stroke="none" points="188.5,-231 188.5,-249 289.5,-249 289.5,-231 188.5,-231"/>
<polygon fill="none" stroke="black" points="188.5,-231 188.5,-249 289.5,-249 289.5,-231 188.5,-231"/>
<text text-anchor="start" x="269.5" y="-237.2" font-family="Helvetica,sans-Serif" font-size="11.00">1 &gt;</text>
<polygon fill="none" stroke="black" stroke-width="2" points="9,-230 9,-316 290,-316 290,-230 9,-230"/>
</a>
</g>
</g>
<!-- accessions&#45;&gt;species_endangered_types -->
<g id="edge1" class="edge"><title>accessions:species_endangered_type_id:w&#45;&gt;species_endangered_types:id.type:e</title>
<path fill="none" stroke="black" d="M324.991,-282C313.677,-282 306.493,-282 290.5,-282"/>
<polygon fill="black" stroke="black" points="331.5,-282 339.5,-285.6 335.5,-282 339.5,-282 339.5,-282 339.5,-282 335.5,-282 339.5,-278.4 331.5,-282 331.5,-282"/>
<ellipse fill="none" stroke="black" cx="328.3" cy="-282" rx="3.2" ry="3.2"/>
</g>
</g>
</svg>
