<?xml version="1.0" encoding="UTF-8" standalone="no"?>
<!DOCTYPE svg PUBLIC "-//W3C//DTD SVG 1.1//EN"
 "http://www.w3.org/Graphics/SVG/1.1/DTD/svg11.dtd">
<!-- Generated by graphviz version 2.38.0 (20140413.2041)
 -->
<!-- Title: oneDegreeRelationshipsDiagram Pages: 1 -->
<svg width="584pt" height="503pt"
 viewBox="0.00 0.00 584.00 503.00" xmlns="http://www.w3.org/2000/svg" xmlns:xlink="http://www.w3.org/1999/xlink">
<g id="graph0" class="graph" transform="scale(1 1) rotate(0) translate(4 499)">
<title>oneDegreeRelationshipsDiagram</title>
<polygon fill="#ffffff" stroke="none" points="-4,4 -4,-499 580,-499 580,4 -4,4"/>
<text text-anchor="middle" x="74.5" y="-7.2" font-family="Helvetica,sans-Serif" font-size="11.00">Generated by SchemaSpy</text>
<!-- accessions -->
<g id="node1" class="node"><title>accessions</title>
<g id="a_node1"><a xlink:href="../../tables/accessions.html" xlink:title="accessions" target="_top">
<polygon fill="#ffffff" stroke="none" points="340,-37 340,-491 568,-491 568,-37 340,-37"/>
<polygon fill="#f5f5f5" stroke="none" points="340,-469 340,-491 568,-491 568,-469 340,-469"/>
<polygon fill="none" stroke="black" points="340,-469 340,-491 568,-491 568,-469 340,-469"/>
<text text-anchor="start" x="345" y="-478.2" font-family="Helvetica,sans-Serif" font-weight="bold" font-size="11.00">accessions</text>
<text text-anchor="start" x="529" y="-477.2" font-family="Helvetica,sans-Serif" font-size="11.00">[table]</text>
<polygon fill="none" stroke="black" points="340,-447 340,-469 568,-469 568,-447 340,-447"/>
<image xlink:href="../../images/primaryKeys.png" width="11px" height="12px" preserveAspectRatio="xMinYMin meet" x="345" y="-464"/>
<text text-anchor="start" x="360" y="-455.2" font-family="Helvetica,sans-Serif" font-size="11.00">id</text>
<polygon fill="none" stroke="black" points="340,-425 340,-447 568,-447 568,-425 340,-425"/>
<image xlink:href="../../images/foreignKeys.png" width="11px" height="12px" preserveAspectRatio="xMinYMin meet" x="345" y="-442"/>
<text text-anchor="start" x="360" y="-433.2" font-family="Helvetica,sans-Serif" font-size="11.00">facility_id</text>
<polygon fill="none" stroke="black" points="340,-403 340,-425 568,-425 568,-403 340,-403"/>
<image xlink:href="../../images/foreignKeys.png" width="11px" height="12px" preserveAspectRatio="xMinYMin meet" x="345" y="-420"/>
<text text-anchor="start" x="360" y="-411.2" font-family="Helvetica,sans-Serif" font-size="11.00">app_device_id</text>
<polygon fill="#ffffff" stroke="none" points="340,-381 340,-403 568,-403 568,-381 340,-381"/>
<polygon fill="none" stroke="black" points="340,-381 340,-403 568,-403 568,-381 340,-381"/>
<text text-anchor="start" x="360" y="-389.2" font-family="Helvetica,sans-Serif" font-size="11.00">number</text>
<polygon fill="none" stroke="black" points="340,-359 340,-381 568,-381 568,-359 340,-359"/>
<image xlink:href="../../images/foreignKeys.png" width="11px" height="12px" preserveAspectRatio="xMinYMin meet" x="345" y="-376"/>
<text text-anchor="start" x="360" y="-367.2" font-family="Helvetica,sans-Serif" font-size="11.00">species_id</text>
<polygon fill="#ffffff" stroke="none" points="340,-337 340,-359 568,-359 568,-337 340,-337"/>
<polygon fill="none" stroke="black" points="340,-337 340,-359 568,-359 568,-337 340,-337"/>
<text text-anchor="start" x="360" y="-345.2" font-family="Helvetica,sans-Serif" font-size="11.00">received_date</text>
<polygon fill="none" stroke="black" points="340,-315 340,-337 568,-337 568,-315 340,-315"/>
<image xlink:href="../../images/foreignKeys.png" width="11px" height="12px" preserveAspectRatio="xMinYMin meet" x="345" y="-332"/>
<text text-anchor="start" x="360" y="-323.2" font-family="Helvetica,sans-Serif" font-size="11.00">state_id</text>
<polygon fill="none" stroke="black" points="340,-293 340,-315 568,-315 568,-293 340,-293"/>
<image xlink:href="../../images/foreignKeys.png" width="11px" height="12px" preserveAspectRatio="xMinYMin meet" x="345" y="-310"/>
<text text-anchor="start" x="360" y="-301.2" font-family="Helvetica,sans-Serif" font-size="11.00">primary_collector_id</text>
<polygon fill="none" stroke="black" points="340,-271 340,-293 568,-293 568,-271 340,-271"/>
<image xlink:href="../../images/foreignKeys.png" width="11px" height="12px" preserveAspectRatio="xMinYMin meet" x="345" y="-288"/>
<text text-anchor="start" x="360" y="-279.2" font-family="Helvetica,sans-Serif" font-size="11.00">storage_location_id</text>
<polygon fill="#ffffff" stroke="none" points="340,-249 340,-271 568,-271 568,-249 340,-249"/>
<polygon fill="none" stroke="black" points="340,-249 340,-271 568,-271 568,-249 340,-249"/>
<text text-anchor="start" x="360" y="-257.2" font-family="Helvetica,sans-Serif" font-size="11.00">created_time</text>
<polygon fill="none" stroke="black" points="340,-227 340,-249 568,-249 568,-227 340,-227"/>
<image xlink:href="../../images/foreignKeys.png" width="11px" height="12px" preserveAspectRatio="xMinYMin meet" x="345" y="-244"/>
<text text-anchor="start" x="360" y="-235.2" font-family="Helvetica,sans-Serif" font-size="11.00">processing_method_id</text>
<polygon fill="none" stroke="black" points="340,-205 340,-227 568,-227 568,-205 340,-205"/>
<image xlink:href="../../images/foreignKeys.png" width="11px" height="12px" preserveAspectRatio="xMinYMin meet" x="345" y="-222"/>
<text text-anchor="start" x="360" y="-213.2" font-family="Helvetica,sans-Serif" font-size="11.00">target_storage_condition</text>
<polygon fill="none" stroke="black" points="340,-183 340,-205 568,-205 568,-183 340,-183"/>
<image xlink:href="../../images/foreignKeys.png" width="11px" height="12px" preserveAspectRatio="xMinYMin meet" x="345" y="-200"/>
<text text-anchor="start" x="360" y="-191.2" font-family="Helvetica,sans-Serif" font-size="11.00">species_endangered_type_id</text>
<polygon fill="none" stroke="black" points="340,-161 340,-183 568,-183 568,-161 340,-161"/>
<image xlink:href="../../images/foreignKeys.png" width="11px" height="12px" preserveAspectRatio="xMinYMin meet" x="345" y="-178"/>
<text text-anchor="start" x="360" y="-169.2" font-family="Helvetica,sans-Serif" font-size="11.00">rare_type_id</text>
<polygon fill="none" stroke="black" points="340,-139 340,-161 568,-161 568,-139 340,-139"/>
<image xlink:href="../../images/foreignKeys.png" width="11px" height="12px" preserveAspectRatio="xMinYMin meet" x="345" y="-156"/>
<text text-anchor="start" x="360" y="-147.2" font-family="Helvetica,sans-Serif" font-size="11.00">source_plant_origin_id</text>
<polygon fill="none" stroke="black" points="340,-117 340,-139 568,-139 568,-117 340,-117"/>
<image xlink:href="../../images/foreignKeys.png" width="11px" height="12px" preserveAspectRatio="xMinYMin meet" x="345" y="-134"/>
<text text-anchor="start" x="360" y="-125.2" font-family="Helvetica,sans-Serif" font-size="11.00">remaining_units_id</text>
<polygon fill="none" stroke="black" points="340,-95 340,-117 568,-117 568,-95 340,-95"/>
<image xlink:href="../../images/foreignKeys.png" width="11px" height="12px" preserveAspectRatio="xMinYMin meet" x="345" y="-112"/>
<text text-anchor="start" x="360" y="-103.2" font-family="Helvetica,sans-Serif" font-size="11.00">subset_weight_units_id</text>
<polygon fill="none" stroke="black" points="340,-73 340,-95 568,-95 568,-73 340,-73"/>
<image xlink:href="../../images/foreignKeys.png" width="11px" height="12px" preserveAspectRatio="xMinYMin meet" x="345" y="-90"/>
<text text-anchor="start" x="360" y="-81.2" font-family="Helvetica,sans-Serif" font-size="11.00">total_units_id</text>
<polygon fill="none" stroke="black" points="340,-55 340,-73 568,-73 568,-55 340,-55"/>
<text text-anchor="start" x="343" y="-61.2" font-family="Helvetica,sans-Serif" font-size="11.00">...</text>
<polygon fill="#ffffff" stroke="none" points="340,-37 340,-55 436,-55 436,-37 340,-37"/>
<polygon fill="none" stroke="black" points="340,-37 340,-55 436,-55 436,-37 340,-37"/>
<text text-anchor="start" x="343" y="-43.2" font-family="Helvetica,sans-Serif" font-size="11.00">&lt; 14</text>
<polygon fill="#ffffff" stroke="none" points="436,-37 436,-55 511,-55 511,-37 436,-37"/>
<polygon fill="none" stroke="black" points="436,-37 436,-55 511,-55 511,-37 436,-37"/>
<text text-anchor="start" x="472" y="-43.2" font-family="Helvetica,sans-Serif" font-size="11.00">0 rows</text>
<polygon fill="#ffffff" stroke="none" points="511,-37 511,-55 568,-55 568,-37 511,-37"/>
<polygon fill="none" stroke="black" points="511,-37 511,-55 568,-55 568,-37 511,-37"/>
<text text-anchor="start" x="548" y="-43.2" font-family="Helvetica,sans-Serif" font-size="11.00">9 &gt;</text>
</a>
</g>
</g>
<!-- species_endangered_types -->
<g id="node2" class="node"><title>species_endangered_types</title>
<g id="a_node2"><a xlink:href="../../tables/species_endangered_types.html" xlink:title="species_endangered_types" target="_top">
<polygon fill="#ffffff" stroke="none" points="8,-141 8,-229 291,-229 291,-141 8,-141"/>
<polygon fill="#f5f5f5" stroke="none" points="10.5,-205 10.5,-227 289.5,-227 289.5,-205 10.5,-205"/>
<polygon fill="none" stroke="black" points="10.5,-205 10.5,-227 289.5,-227 289.5,-205 10.5,-205"/>
<text text-anchor="start" x="15.5" y="-214.2" font-family="Helvetica,sans-Serif" font-weight="bold" font-size="11.00">species_endangered_types</text>
<text text-anchor="start" x="250.5" y="-213.2" font-family="Helvetica,sans-Serif" font-size="11.00">[table]</text>
<polygon fill="none" stroke="black" points="10.5,-183 10.5,-205 188.5,-205 188.5,-183 10.5,-183"/>
<image xlink:href="../../images/primaryKeys.png" width="11px" height="12px" preserveAspectRatio="xMinYMin meet" x="15.5" y="-200"/>
<text text-anchor="start" x="30.5" y="-191.2" font-family="Helvetica,sans-Serif" font-size="11.00">id</text>
<polygon fill="none" stroke="black" points="188.5,-183 188.5,-205 289.5,-205 289.5,-183 188.5,-183"/>
<text text-anchor="start" x="191.5" y="-191.2" font-family="Helvetica,sans-Serif" font-size="11.00">int4[10]</text>
<polygon fill="none" stroke="black" points="10.5,-161 10.5,-183 188.5,-183 188.5,-161 10.5,-161"/>
<text text-anchor="start" x="30.5" y="-169.2" font-family="Helvetica,sans-Serif" font-size="11.00">name</text>
<polygon fill="none" stroke="black" points="188.5,-161 188.5,-183 289.5,-183 289.5,-161 188.5,-161"/>
<text text-anchor="start" x="191.5" y="-169.2" font-family="Helvetica,sans-Serif" font-size="11.00">text[2147483647]</text>
<polygon fill="#ffffff" stroke="none" points="10.5,-143 10.5,-161 89.5,-161 89.5,-143 10.5,-143"/>
<polygon fill="none" stroke="black" points="10.5,-143 10.5,-161 89.5,-161 89.5,-143 10.5,-143"/>
<text text-anchor="start" x="13.5" y="-149.2" font-family="Helvetica,sans-Serif" font-size="11.00">&lt; 0</text>
<polygon fill="#ffffff" stroke="none" points="89.5,-143 89.5,-161 188.5,-161 188.5,-143 89.5,-143"/>
<polygon fill="none" stroke="black" points="89.5,-143 89.5,-161 188.5,-161 188.5,-143 89.5,-143"/>
<text text-anchor="start" x="149.5" y="-149.2" font-family="Helvetica,sans-Serif" font-size="11.00">3 rows</text>
<polygon fill="#ffffff" stroke="none" points="188.5,-143 188.5,-161 289.5,-161 289.5,-143 188.5,-143"/>
<polygon fill="none" stroke="black" points="188.5,-143 188.5,-161 289.5,-161 289.5,-143 188.5,-143"/>
<text text-anchor="start" x="269.5" y="-149.2" font-family="Helvetica,sans-Serif" font-size="11.00">1 &gt;</text>
<polygon fill="none" stroke="black" stroke-width="2" points="9,-142 9,-228 290,-228 290,-142 9,-142"/>
</a>
</g>
</g>
<!-- accessions&#45;&gt;species_endangered_types -->
<g id="edge1" class="edge"><title>accessions:species_endangered_type_id:w&#45;&gt;species_endangered_types:id.type:e</title>
<path fill="none" stroke="black" d="M324.283,-194C313.289,-194 306.161,-194 290.5,-194"/>
<polygon fill="black" stroke="black" points="331,-194 339,-197.6 335,-194 339,-194 339,-194 339,-194 335,-194 339,-190.4 331,-194 331,-194"/>
<ellipse fill="none" stroke="black" cx="327.8" cy="-194" rx="3.2" ry="3.2"/>
</g>
</g>
</svg>
