<?xml version="1.0" encoding="UTF-8" standalone="no"?>
<!DOCTYPE svg PUBLIC "-//W3C//DTD SVG 1.1//EN"
 "http://www.w3.org/Graphics/SVG/1.1/DTD/svg11.dtd">
<!-- Generated by graphviz version 2.38.0 (20140413.2041)
 -->
<!-- Title: oneDegreeRelationshipsDiagram Pages: 1 -->
<svg width="771pt" height="512pt"
 viewBox="0.00 0.00 771.00 512.00" xmlns="http://www.w3.org/2000/svg" xmlns:xlink="http://www.w3.org/1999/xlink">
<g id="graph0" class="graph" transform="scale(1 1) rotate(0) translate(4 508)">
<title>oneDegreeRelationshipsDiagram</title>
<polygon fill="#ffffff" stroke="none" points="-4,4 -4,-508 767,-508 767,4 -4,4"/>
<text text-anchor="middle" x="74.5" y="-7.2" font-family="Helvetica,sans-Serif" font-size="11.00">Generated by SchemaSpy</text>
<!-- organization_users -->
<g id="node1" class="node"><title>organization_users</title>
<g id="a_node1"><a xlink:href="../../tables/organization_users.html" xlink:title="organization_users" target="_top">
<polygon fill="#ffffff" stroke="none" points="428,-376 428,-500 582,-500 582,-376 428,-376"/>
<polygon fill="#f5f5f5" stroke="none" points="428,-478 428,-500 582,-500 582,-478 428,-478"/>
<polygon fill="none" stroke="black" points="428,-478 428,-500 582,-500 582,-478 428,-478"/>
<text text-anchor="start" x="433" y="-487.2" font-family="Helvetica,sans-Serif" font-weight="bold" font-size="11.00">organization_users</text>
<text text-anchor="start" x="543" y="-486.2" font-family="Helvetica,sans-Serif" font-size="11.00">[table]</text>
<polygon fill="none" stroke="black" points="428,-456 428,-478 582,-478 582,-456 428,-456"/>
<image xlink:href="../../images/primaryKeys.png" width="11px" height="12px" preserveAspectRatio="xMinYMin meet" x="433" y="-473"/>
<text text-anchor="start" x="458" y="-464.2" font-family="Helvetica,sans-Serif" font-size="11.00">user_id</text>
<polygon fill="none" stroke="black" points="428,-434 428,-456 582,-456 582,-434 428,-434"/>
<image xlink:href="../../images/primaryKeys.png" width="11px" height="12px" preserveAspectRatio="xMinYMin meet" x="433" y="-451"/>
<text text-anchor="start" x="458" y="-442.2" font-family="Helvetica,sans-Serif" font-size="11.00">organization_id</text>
<polygon fill="none" stroke="black" points="428,-412 428,-434 582,-434 582,-412 428,-412"/>
<image xlink:href="../../images/foreignKeys.png" width="11px" height="12px" preserveAspectRatio="xMinYMin meet" x="433" y="-429"/>
<text text-anchor="start" x="458" y="-420.2" font-family="Helvetica,sans-Serif" font-size="11.00">role_id</text>
<polygon fill="none" stroke="black" points="428,-394 428,-412 582,-412 582,-394 428,-394"/>
<text text-anchor="start" x="431" y="-400.2" font-family="Helvetica,sans-Serif" font-size="11.00">...</text>
<polygon fill="#ffffff" stroke="none" points="428,-376 428,-394 489,-394 489,-376 428,-376"/>
<polygon fill="none" stroke="black" points="428,-376 428,-394 489,-394 489,-376 428,-376"/>
<text text-anchor="start" x="431" y="-382.2" font-family="Helvetica,sans-Serif" font-size="11.00">&lt; 3</text>
<polygon fill="#ffffff" stroke="none" points="489,-376 489,-394 550,-394 550,-376 489,-376"/>
<polygon fill="none" stroke="black" points="489,-376 489,-394 550,-394 550,-376 489,-376"/>
<text text-anchor="start" x="511" y="-382.2" font-family="Helvetica,sans-Serif" font-size="11.00">0 rows</text>
<polygon fill="#ffffff" stroke="none" points="550,-376 550,-394 582,-394 582,-376 550,-376"/>
<polygon fill="none" stroke="black" points="550,-376 550,-394 582,-394 582,-376 550,-376"/>
<text text-anchor="start" x="572" y="-382.2" font-family="Helvetica,sans-Serif" font-size="11.00"> &#160;</text>
</a>
</g>
</g>
<!-- users -->
<g id="node2" class="node"><title>users</title>
<g id="a_node2"><a xlink:href="../../tables/users.html" xlink:title="users" target="_top">
<polygon fill="#ffffff" stroke="none" points="166,-68 166,-288 379,-288 379,-68 166,-68"/>
<polygon fill="#f5f5f5" stroke="none" points="168.5,-264 168.5,-286 377.5,-286 377.5,-264 168.5,-264"/>
<polygon fill="none" stroke="black" points="168.5,-264 168.5,-286 377.5,-286 377.5,-264 168.5,-264"/>
<text text-anchor="start" x="173.5" y="-273.2" font-family="Helvetica,sans-Serif" font-weight="bold" font-size="11.00">users</text>
<text text-anchor="start" x="338.5" y="-272.2" font-family="Helvetica,sans-Serif" font-size="11.00">[table]</text>
<polygon fill="none" stroke="black" points="168.5,-242 168.5,-264 275.5,-264 275.5,-242 168.5,-242"/>
<image xlink:href="../../images/primaryKeys.png" width="11px" height="12px" preserveAspectRatio="xMinYMin meet" x="173.5" y="-259"/>
<text text-anchor="start" x="188.5" y="-250.2" font-family="Helvetica,sans-Serif" font-size="11.00">id</text>
<polygon fill="none" stroke="black" points="275.5,-242 275.5,-264 377.5,-264 377.5,-242 275.5,-242"/>
<text text-anchor="start" x="278.5" y="-250.2" font-family="Helvetica,sans-Serif" font-size="11.00">int8[19]</text>
<polygon fill="#ffffff" stroke="none" points="168.5,-220 168.5,-242 275.5,-242 275.5,-220 168.5,-220"/>
<polygon fill="none" stroke="black" points="168.5,-220 168.5,-242 275.5,-242 275.5,-220 168.5,-220"/>
<text text-anchor="start" x="188.5" y="-228.2" font-family="Helvetica,sans-Serif" font-size="11.00">auth_id</text>
<polygon fill="none" stroke="black" points="275.5,-220 275.5,-242 377.5,-242 377.5,-220 275.5,-220"/>
<text text-anchor="start" x="278.5" y="-228.2" font-family="Helvetica,sans-Serif" font-size="11.00">text[2147483647]</text>
<polygon fill="#ffffff" stroke="none" points="168.5,-198 168.5,-220 275.5,-220 275.5,-198 168.5,-198"/>
<polygon fill="none" stroke="black" points="168.5,-198 168.5,-220 275.5,-220 275.5,-198 168.5,-198"/>
<text text-anchor="start" x="188.5" y="-206.2" font-family="Helvetica,sans-Serif" font-size="11.00">email</text>
<polygon fill="none" stroke="black" points="275.5,-198 275.5,-220 377.5,-220 377.5,-198 275.5,-198"/>
<text text-anchor="start" x="278.5" y="-206.2" font-family="Helvetica,sans-Serif" font-size="11.00">text[2147483647]</text>
<polygon fill="none" stroke="black" points="168.5,-176 168.5,-198 275.5,-198 275.5,-176 168.5,-176"/>
<text text-anchor="start" x="188.5" y="-184.2" font-family="Helvetica,sans-Serif" font-size="11.00">first_name</text>
<polygon fill="none" stroke="black" points="275.5,-176 275.5,-198 377.5,-198 377.5,-176 275.5,-176"/>
<text text-anchor="start" x="278.5" y="-184.2" font-family="Helvetica,sans-Serif" font-size="11.00">text[2147483647]</text>
<polygon fill="none" stroke="black" points="168.5,-154 168.5,-176 275.5,-176 275.5,-154 168.5,-154"/>
<text text-anchor="start" x="188.5" y="-162.2" font-family="Helvetica,sans-Serif" font-size="11.00">last_name</text>
<polygon fill="none" stroke="black" points="275.5,-154 275.5,-176 377.5,-176 377.5,-154 275.5,-154"/>
<text text-anchor="start" x="278.5" y="-162.2" font-family="Helvetica,sans-Serif" font-size="11.00">text[2147483647]</text>
<polygon fill="none" stroke="black" points="168.5,-132 168.5,-154 275.5,-154 275.5,-132 168.5,-132"/>
<text text-anchor="start" x="188.5" y="-140.2" font-family="Helvetica,sans-Serif" font-size="11.00">created_time</text>
<polygon fill="none" stroke="black" points="275.5,-132 275.5,-154 377.5,-154 377.5,-132 275.5,-132"/>
<text text-anchor="start" x="278.5" y="-140.2" font-family="Helvetica,sans-Serif" font-size="11.00">timestamptz[35,6]</text>
<polygon fill="none" stroke="black" points="168.5,-110 168.5,-132 275.5,-132 275.5,-110 168.5,-110"/>
<text text-anchor="start" x="188.5" y="-118.2" font-family="Helvetica,sans-Serif" font-size="11.00">modified_time</text>
<polygon fill="none" stroke="black" points="275.5,-110 275.5,-132 377.5,-132 377.5,-110 275.5,-110"/>
<text text-anchor="start" x="278.5" y="-118.2" font-family="Helvetica,sans-Serif" font-size="11.00">timestamptz[35,6]</text>
<polygon fill="none" stroke="black" points="168.5,-88 168.5,-110 275.5,-110 275.5,-88 168.5,-88"/>
<image xlink:href="../../images/foreignKeys.png" width="11px" height="12px" preserveAspectRatio="xMinYMin meet" x="173.5" y="-105"/>
<text text-anchor="start" x="188.5" y="-96.2" font-family="Helvetica,sans-Serif" font-size="11.00">user_type_id</text>
<polygon fill="none" stroke="black" points="275.5,-88 275.5,-110 377.5,-110 377.5,-88 275.5,-88"/>
<text text-anchor="start" x="278.5" y="-96.2" font-family="Helvetica,sans-Serif" font-size="11.00">int4[10]</text>
<polygon fill="#ffffff" stroke="none" points="168.5,-70 168.5,-88 212.5,-88 212.5,-70 168.5,-70"/>
<polygon fill="none" stroke="black" points="168.5,-70 168.5,-88 212.5,-88 212.5,-70 168.5,-70"/>
<text text-anchor="start" x="171.5" y="-76.2" font-family="Helvetica,sans-Serif" font-size="11.00">&lt; 1</text>
<polygon fill="#ffffff" stroke="none" points="212.5,-70 212.5,-88 275.5,-88 275.5,-70 212.5,-70"/>
<polygon fill="none" stroke="black" points="212.5,-70 212.5,-88 275.5,-88 275.5,-70 212.5,-70"/>
<text text-anchor="start" x="236.5" y="-76.2" font-family="Helvetica,sans-Serif" font-size="11.00">0 rows</text>
<polygon fill="#ffffff" stroke="none" points="275.5,-70 275.5,-88 377.5,-88 377.5,-70 275.5,-70"/>
<polygon fill="none" stroke="black" points="275.5,-70 275.5,-88 377.5,-88 377.5,-70 275.5,-70"/>
<text text-anchor="start" x="357.5" y="-76.2" font-family="Helvetica,sans-Serif" font-size="11.00">4 &gt;</text>
<polygon fill="none" stroke="black" stroke-width="2" points="167,-69 167,-287 378,-287 378,-69 167,-69"/>
</a>
</g>
</g>
<!-- organization_users&#45;&gt;users -->
<g id="edge1" class="edge"><title>organization_users:user_id:w&#45;&gt;users:id.type:e</title>
<path fill="none" stroke="black" d="M412.689,-465.018C345.295,-443.444 470.499,-253 378.5,-253"/>
<polygon fill="black" stroke="black" points="419.076,-465.903 426.506,-470.566 423.038,-466.451 427,-467 427,-467 427,-467 423.038,-466.451 427.494,-463.434 419.076,-465.903 419.076,-465.903"/>
<ellipse fill="none" stroke="black" cx="415.906" cy="-465.464" rx="3.2" ry="3.2"/>
</g>
<!-- user_types -->
<g id="node6" class="node"><title>user_types</title>
<g id="a_node6"><a xlink:href="../../tables/user_types.html" xlink:title="user_types" target="_top">
<polygon fill="#ffffff" stroke="none" points="8,-48 8,-132 117,-132 117,-48 8,-48"/>
<polygon fill="#f5f5f5" stroke="none" points="8.5,-110 8.5,-132 117.5,-132 117.5,-110 8.5,-110"/>
<polygon fill="none" stroke="black" points="8.5,-110 8.5,-132 117.5,-132 117.5,-110 8.5,-110"/>
<text text-anchor="start" x="13.5" y="-119.2" font-family="Helvetica,sans-Serif" font-weight="bold" font-size="11.00">user_types</text>
<text text-anchor="start" x="78.5" y="-118.2" font-family="Helvetica,sans-Serif" font-size="11.00">[table]</text>
<polygon fill="none" stroke="black" points="8.5,-88 8.5,-110 117.5,-110 117.5,-88 8.5,-88"/>
<image xlink:href="../../images/primaryKeys.png" width="11px" height="12px" preserveAspectRatio="xMinYMin meet" x="13.5" y="-105"/>
<text text-anchor="start" x="40.5" y="-96.2" font-family="Helvetica,sans-Serif" font-size="11.00">id</text>
<polygon fill="#ffffff" stroke="none" points="8.5,-66 8.5,-88 117.5,-88 117.5,-66 8.5,-66"/>
<polygon fill="none" stroke="black" points="8.5,-66 8.5,-88 117.5,-88 117.5,-66 8.5,-66"/>
<text text-anchor="start" x="40.5" y="-74.2" font-family="Helvetica,sans-Serif" font-size="11.00">name</text>
<polygon fill="#ffffff" stroke="none" points="8.5,-48 8.5,-66 36.5,-66 36.5,-48 8.5,-48"/>
<polygon fill="none" stroke="black" points="8.5,-48 8.5,-66 36.5,-66 36.5,-48 8.5,-48"/>
<text text-anchor="start" x="11.5" y="-54.2" font-family="Helvetica,sans-Serif" font-size="11.00"> &#160;</text>
<polygon fill="#ffffff" stroke="none" points="36.5,-48 36.5,-66 86.5,-66 86.5,-48 36.5,-48"/>
<polygon fill="none" stroke="black" points="36.5,-48 36.5,-66 86.5,-66 86.5,-48 36.5,-48"/>
<text text-anchor="start" x="47.5" y="-54.2" font-family="Helvetica,sans-Serif" font-size="11.00">3 rows</text>
<polygon fill="#ffffff" stroke="none" points="86.5,-48 86.5,-66 117.5,-66 117.5,-48 86.5,-48"/>
<polygon fill="none" stroke="black" points="86.5,-48 86.5,-66 117.5,-66 117.5,-48 86.5,-48"/>
<text text-anchor="start" x="97.5" y="-54.2" font-family="Helvetica,sans-Serif" font-size="11.00">1 &gt;</text>
</a>
</g>
</g>
<!-- users&#45;&gt;user_types -->
<g id="edge6" class="edge"><title>users:user_type_id:w&#45;&gt;user_types:id:e</title>
<path fill="none" stroke="black" d="M152.991,-99C141.677,-99 134.493,-99 118.5,-99"/>
<polygon fill="black" stroke="black" points="159.5,-99.0001 167.5,-102.6 163.5,-99 167.5,-99 167.5,-99 167.5,-99 163.5,-99 167.5,-95.4 159.5,-99.0001 159.5,-99.0001"/>
<ellipse fill="none" stroke="black" cx="156.3" cy="-99.0001" rx="3.2" ry="3.2"/>
</g>
<!-- photos -->
<g id="node3" class="node"><title>photos</title>
<g id="a_node3"><a xlink:href="../../tables/photos.html" xlink:title="photos" target="_top">
<polygon fill="#ffffff" stroke="none" points="438,-231 438,-355 572,-355 572,-231 438,-231"/>
<polygon fill="#f5f5f5" stroke="none" points="438,-333 438,-355 572,-355 572,-333 438,-333"/>
<polygon fill="none" stroke="black" points="438,-333 438,-355 572,-355 572,-333 438,-333"/>
<text text-anchor="start" x="443" y="-342.2" font-family="Helvetica,sans-Serif" font-weight="bold" font-size="11.00">photos</text>
<text text-anchor="start" x="533" y="-341.2" font-family="Helvetica,sans-Serif" font-size="11.00">[table]</text>
<polygon fill="none" stroke="black" points="438,-311 438,-333 572,-333 572,-311 438,-311"/>
<image xlink:href="../../images/primaryKeys.png" width="11px" height="12px" preserveAspectRatio="xMinYMin meet" x="443" y="-328"/>
<text text-anchor="start" x="458" y="-319.2" font-family="Helvetica,sans-Serif" font-size="11.00">id</text>
<polygon fill="none" stroke="black" points="438,-289 438,-311 572,-311 572,-289 438,-289"/>
<image xlink:href="../../images/foreignKeys.png" width="11px" height="12px" preserveAspectRatio="xMinYMin meet" x="443" y="-306"/>
<text text-anchor="start" x="458" y="-297.2" font-family="Helvetica,sans-Serif" font-size="11.00">user_id</text>
<polygon fill="#ffffff" stroke="none" points="438,-267 438,-289 572,-289 572,-267 438,-267"/>
<polygon fill="none" stroke="black" points="438,-267 438,-289 572,-289 572,-267 438,-267"/>
<text text-anchor="start" x="458" y="-275.2" font-family="Helvetica,sans-Serif" font-size="11.00">storage_url</text>
<polygon fill="none" stroke="black" points="438,-249 438,-267 572,-267 572,-249 438,-249"/>
<text text-anchor="start" x="441" y="-255.2" font-family="Helvetica,sans-Serif" font-size="11.00">...</text>
<polygon fill="#ffffff" stroke="none" points="438,-231 438,-249 484,-249 484,-231 438,-231"/>
<polygon fill="none" stroke="black" points="438,-231 438,-249 484,-249 484,-231 438,-231"/>
<text text-anchor="start" x="441" y="-237.2" font-family="Helvetica,sans-Serif" font-size="11.00">&lt; 1</text>
<polygon fill="#ffffff" stroke="none" points="484,-231 484,-249 537,-249 537,-231 484,-231"/>
<polygon fill="none" stroke="black" points="484,-231 484,-249 537,-249 537,-231 484,-231"/>
<text text-anchor="start" x="498" y="-237.2" font-family="Helvetica,sans-Serif" font-size="11.00">0 rows</text>
<polygon fill="#ffffff" stroke="none" points="537,-231 537,-249 572,-249 572,-231 537,-231"/>
<polygon fill="none" stroke="black" points="537,-231 537,-249 572,-249 572,-231 537,-231"/>
<text text-anchor="start" x="552" y="-237.2" font-family="Helvetica,sans-Serif" font-size="11.00">3 &gt;</text>
</a>
</g>
</g>
<!-- photos&#45;&gt;users -->
<g id="edge2" class="edge"><title>photos:user_id:w&#45;&gt;users:id.type:e</title>
<path fill="none" stroke="black" d="M423.064,-296.312C405.241,-285.232 406.119,-253 378.5,-253"/>
<polygon fill="black" stroke="black" points="429.266,-297.953 436.079,-303.48 433.133,-298.977 437,-300 437,-300 437,-300 433.133,-298.977 437.921,-296.52 429.266,-297.953 429.266,-297.953"/>
<ellipse fill="none" stroke="black" cx="426.173" cy="-297.135" rx="3.2" ry="3.2"/>
</g>
<!-- project_users -->
<g id="node4" class="node"><title>project_users</title>
<g id="a_node4"><a xlink:href="../../tables/project_users.html" xlink:title="project_users" target="_top">
<polygon fill="#ffffff" stroke="none" points="631,-120 631,-222 755,-222 755,-120 631,-120"/>
<polygon fill="#f5f5f5" stroke="none" points="631,-200 631,-222 755,-222 755,-200 631,-200"/>
<polygon fill="none" stroke="black" points="631,-200 631,-222 755,-222 755,-200 631,-200"/>
<text text-anchor="start" x="636" y="-209.2" font-family="Helvetica,sans-Serif" font-weight="bold" font-size="11.00">project_users</text>
<text text-anchor="start" x="716" y="-208.2" font-family="Helvetica,sans-Serif" font-size="11.00">[table]</text>
<polygon fill="none" stroke="black" points="631,-178 631,-200 755,-200 755,-178 631,-178"/>
<image xlink:href="../../images/primaryKeys.png" width="11px" height="12px" preserveAspectRatio="xMinYMin meet" x="636" y="-195"/>
<text text-anchor="start" x="660" y="-186.2" font-family="Helvetica,sans-Serif" font-size="11.00">user_id</text>
<polygon fill="none" stroke="black" points="631,-156 631,-178 755,-178 755,-156 631,-156"/>
<image xlink:href="../../images/primaryKeys.png" width="11px" height="12px" preserveAspectRatio="xMinYMin meet" x="636" y="-173"/>
<text text-anchor="start" x="660" y="-164.2" font-family="Helvetica,sans-Serif" font-size="11.00">project_id</text>
<polygon fill="none" stroke="black" points="631,-138 631,-156 755,-156 755,-138 631,-138"/>
<text text-anchor="start" x="634" y="-144.2" font-family="Helvetica,sans-Serif" font-size="11.00">...</text>
<polygon fill="#ffffff" stroke="none" points="631,-120 631,-138 677,-138 677,-120 631,-120"/>
<polygon fill="none" stroke="black" points="631,-120 631,-138 677,-138 677,-120 631,-120"/>
<text text-anchor="start" x="634" y="-126.2" font-family="Helvetica,sans-Serif" font-size="11.00">&lt; 2</text>
<polygon fill="#ffffff" stroke="none" points="677,-120 677,-138 730,-138 730,-120 677,-120"/>
<polygon fill="none" stroke="black" points="677,-120 677,-138 730,-138 730,-120 677,-120"/>
<text text-anchor="start" x="691" y="-126.2" font-family="Helvetica,sans-Serif" font-size="11.00">0 rows</text>
<polygon fill="#ffffff" stroke="none" points="730,-120 730,-138 755,-138 755,-120 730,-120"/>
<polygon fill="none" stroke="black" points="730,-120 730,-138 755,-138 755,-120 730,-120"/>
<text text-anchor="start" x="745" y="-126.2" font-family="Helvetica,sans-Serif" font-size="11.00"> &#160;</text>
</a>
</g>
</g>
<!-- project_users&#45;&gt;users -->
<g id="edge4" class="edge"><title>project_users:user_id:w&#45;&gt;users:id.type:e</title>
<path fill="none" stroke="black" d="M615.571,-190.82C568.713,-197.308 424.61,-219.029 420,-221 398.584,-230.156 401.791,-253 378.5,-253"/>
<polygon fill="black" stroke="black" points="622.063,-190.001 630.45,-192.572 626.031,-189.501 630,-189 630,-189 630,-189 626.031,-189.501 629.55,-185.428 622.063,-190.001 622.063,-190.001"/>
<ellipse fill="none" stroke="black" cx="618.888" cy="-190.402" rx="3.2" ry="3.2"/>
</g>
<!-- projects -->
<g id="node5" class="node"><title>projects</title>
<g id="a_node5"><a xlink:href="../../tables/projects.html" xlink:title="projects" target="_top">
<polygon fill="#ffffff" stroke="none" points="440,-37 440,-183 570,-183 570,-37 440,-37"/>
<polygon fill="#f5f5f5" stroke="none" points="440,-161 440,-183 570,-183 570,-161 440,-161"/>
<polygon fill="none" stroke="black" points="440,-161 440,-183 570,-183 570,-161 440,-161"/>
<text text-anchor="start" x="445" y="-170.2" font-family="Helvetica,sans-Serif" font-weight="bold" font-size="11.00">projects</text>
<text text-anchor="start" x="531" y="-169.2" font-family="Helvetica,sans-Serif" font-size="11.00">[table]</text>
<polygon fill="none" stroke="black" points="440,-139 440,-161 570,-161 570,-139 440,-139"/>
<image xlink:href="../../images/primaryKeys.png" width="11px" height="12px" preserveAspectRatio="xMinYMin meet" x="445" y="-156"/>
<text text-anchor="start" x="460" y="-147.2" font-family="Helvetica,sans-Serif" font-size="11.00">id</text>
<polygon fill="none" stroke="black" points="440,-117 440,-139 570,-139 570,-117 440,-117"/>
<image xlink:href="../../images/foreignKeys.png" width="11px" height="12px" preserveAspectRatio="xMinYMin meet" x="445" y="-134"/>
<text text-anchor="start" x="460" y="-125.2" font-family="Helvetica,sans-Serif" font-size="11.00">organization_id</text>
<polygon fill="none" stroke="black" points="440,-95 440,-117 570,-117 570,-95 440,-95"/>
<image xlink:href="../../images/foreignKeys.png" width="11px" height="12px" preserveAspectRatio="xMinYMin meet" x="445" y="-112"/>
<text text-anchor="start" x="460" y="-103.2" font-family="Helvetica,sans-Serif" font-size="11.00">status_id</text>
<polygon fill="none" stroke="black" points="440,-73 440,-95 570,-95 570,-73 440,-73"/>
<image xlink:href="../../images/foreignKeys.png" width="11px" height="12px" preserveAspectRatio="xMinYMin meet" x="445" y="-90"/>
<text text-anchor="start" x="460" y="-81.2" font-family="Helvetica,sans-Serif" font-size="11.00">pm_user_id</text>
<polygon fill="none" stroke="black" points="440,-55 440,-73 570,-73 570,-55 440,-55"/>
<text text-anchor="start" x="443" y="-61.2" font-family="Helvetica,sans-Serif" font-size="11.00">...</text>
<polygon fill="#ffffff" stroke="none" points="440,-37 440,-55 484,-55 484,-37 440,-37"/>
<polygon fill="none" stroke="black" points="440,-37 440,-55 484,-55 484,-37 440,-37"/>
<text text-anchor="start" x="443" y="-43.2" font-family="Helvetica,sans-Serif" font-size="11.00">&lt; 3</text>
<polygon fill="#ffffff" stroke="none" points="484,-37 484,-55 536,-55 536,-37 484,-37"/>
<polygon fill="none" stroke="black" points="484,-37 484,-55 536,-55 536,-37 484,-37"/>
<text text-anchor="start" x="497" y="-43.2" font-family="Helvetica,sans-Serif" font-size="11.00">0 rows</text>
<polygon fill="#ffffff" stroke="none" points="536,-37 536,-55 570,-55 570,-37 536,-37"/>
<polygon fill="none" stroke="black" points="536,-37 536,-55 570,-55 570,-37 536,-37"/>
<text text-anchor="start" x="550" y="-43.2" font-family="Helvetica,sans-Serif" font-size="11.00">4 &gt;</text>
</a>
</g>
</g>
<!-- project_users&#45;&gt;projects -->
<g id="edge3" class="edge"><title>project_users:project_id:w&#45;&gt;projects:id:e</title>
<path fill="none" stroke="black" d="M615.354,-165.05C599.828,-160.585 592.533,-150 571,-150"/>
<polygon fill="black" stroke="black" points="622.07,-165.944 629.525,-170.569 626.035,-166.472 630,-167 630,-167 630,-167 626.035,-166.472 630.475,-163.431 622.07,-165.944 622.07,-165.944"/>
<ellipse fill="none" stroke="black" cx="618.898" cy="-165.522" rx="3.2" ry="3.2"/>
</g>
<!-- projects&#45;&gt;users -->
<g id="edge5" class="edge"><title>projects:pm_user_id:w&#45;&gt;users:id.type:e</title>
<path fill="none" stroke="black" d="M424.7,-86.389C372.267,-106.93 452.67,-253 378.5,-253"/>
<polygon fill="black" stroke="black" points="431.109,-85.3183 439.593,-87.5508 435.055,-84.6591 439,-84 439,-84 439,-84 435.055,-84.6591 438.407,-80.4492 431.109,-85.3183 431.109,-85.3183"/>
<ellipse fill="none" stroke="black" cx="427.953" cy="-85.8456" rx="3.2" ry="3.2"/>
</g>
</g>
</svg>
