<?xml version="1.0" encoding="UTF-8" standalone="no"?>
<!DOCTYPE svg PUBLIC "-//W3C//DTD SVG 1.1//EN"
 "http://www.w3.org/Graphics/SVG/1.1/DTD/svg11.dtd">
<!-- Generated by graphviz version 2.47.1 (20210515.0534)
 -->
<!-- Title: twoDegreesRelationshipsDiagram Pages: 1 -->
<svg width="963pt" height="625pt"
 viewBox="0.00 0.00 963.00 625.00" xmlns="http://www.w3.org/2000/svg" xmlns:xlink="http://www.w3.org/1999/xlink">
<g id="graph0" class="graph" transform="scale(1 1) rotate(0) translate(4 621)">
<title>twoDegreesRelationshipsDiagram</title>
<polygon fill="#ffffff" stroke="transparent" points="-4,4 -4,-621 959,-621 959,4 -4,4"/>
<text text-anchor="middle" x="73.5" y="-7.2" font-family="Helvetica,sans-Serif" font-size="11.00">Generated by SchemaSpy</text>
<!-- variable_section_default_values -->
<g id="node1" class="node">
<title>variable_section_default_values</title>
<g id="a_node1"><a xlink:href="../../tables/variable_section_default_values.html" xlink:title="variable_section_default_values" target="_top">
<polygon fill="#ffffff" stroke="transparent" points="481,-170 481,-426 714,-426 714,-170 481,-170"/>
<polygon fill="#f5f5f5" stroke="transparent" points="481.5,-404 481.5,-426 714.5,-426 714.5,-404 481.5,-404"/>
<polygon fill="none" stroke="black" points="481.5,-404 481.5,-426 714.5,-426 714.5,-404 481.5,-404"/>
<text text-anchor="start" x="486.5" y="-413.2" font-family="Helvetica,sans-Serif" font-weight="bold" font-size="11.00">variable_section_default_values</text>
<text text-anchor="start" x="675.5" y="-412.2" font-family="Helvetica,sans-Serif" font-size="11.00">[table]</text>
<polygon fill="none" stroke="black" points="481.5,-382 481.5,-404 714.5,-404 714.5,-382 481.5,-382"/>
<image xlink:href="../../images/primaryKeys.png" width="11px" height="12px" preserveAspectRatio="xMinYMin meet" x="486.5" y="-399"/>
<text text-anchor="start" x="513.5" y="-390.2" font-family="Helvetica,sans-Serif" font-size="11.00">id</text>
<polygon fill="#ffffff" stroke="transparent" points="481.5,-360 481.5,-382 714.5,-382 714.5,-360 481.5,-360"/>
<polygon fill="none" stroke="black" points="481.5,-360 481.5,-382 714.5,-382 714.5,-360 481.5,-360"/>
<image xlink:href="../../images/foreignKeys.png" width="11px" height="12px" preserveAspectRatio="xMinYMin meet" x="486.5" y="-377"/>
<text text-anchor="start" x="513.5" y="-368.2" font-family="Helvetica,sans-Serif" font-size="11.00">variable_id</text>
<polygon fill="none" stroke="black" points="481.5,-338 481.5,-360 714.5,-360 714.5,-338 481.5,-338"/>
<image xlink:href="../../images/foreignKeys.png" width="11px" height="12px" preserveAspectRatio="xMinYMin meet" x="486.5" y="-355"/>
<text text-anchor="start" x="513.5" y="-346.2" font-family="Helvetica,sans-Serif" font-size="11.00">variable_type_id</text>
<polygon fill="#ffffff" stroke="transparent" points="481.5,-316 481.5,-338 714.5,-338 714.5,-316 481.5,-316"/>
<polygon fill="none" stroke="black" points="481.5,-316 481.5,-338 714.5,-338 714.5,-316 481.5,-316"/>
<image xlink:href="../../images/foreignKeys.png" width="11px" height="12px" preserveAspectRatio="xMinYMin meet" x="486.5" y="-333"/>
<text text-anchor="start" x="513.5" y="-324.2" font-family="Helvetica,sans-Serif" font-size="11.00">variable_manifest_id</text>
<polygon fill="#ffffff" stroke="transparent" points="481.5,-294 481.5,-316 714.5,-316 714.5,-294 481.5,-294"/>
<polygon fill="none" stroke="black" points="481.5,-294 481.5,-316 714.5,-316 714.5,-294 481.5,-294"/>
<text text-anchor="start" x="513.5" y="-302.2" font-family="Helvetica,sans-Serif" font-size="11.00">list_position</text>
<polygon fill="#ffffff" stroke="transparent" points="481.5,-272 481.5,-294 714.5,-294 714.5,-272 481.5,-272"/>
<polygon fill="none" stroke="black" points="481.5,-272 481.5,-294 714.5,-294 714.5,-272 481.5,-272"/>
<image xlink:href="../../images/foreignKeys.png" width="11px" height="12px" preserveAspectRatio="xMinYMin meet" x="486.5" y="-289"/>
<text text-anchor="start" x="513.5" y="-280.2" font-family="Helvetica,sans-Serif" font-size="11.00">used_variable_id</text>
<polygon fill="none" stroke="black" points="481.5,-250 481.5,-272 714.5,-272 714.5,-250 481.5,-250"/>
<image xlink:href="../../images/foreignKeys.png" width="11px" height="12px" preserveAspectRatio="xMinYMin meet" x="486.5" y="-267"/>
<text text-anchor="start" x="513.5" y="-258.2" font-family="Helvetica,sans-Serif" font-size="11.00">used_variable_type_id</text>
<polygon fill="none" stroke="black" points="481.5,-228 481.5,-250 714.5,-250 714.5,-228 481.5,-228"/>
<image xlink:href="../../images/foreignKeys.png" width="11px" height="12px" preserveAspectRatio="xMinYMin meet" x="486.5" y="-245"/>
<text text-anchor="start" x="513.5" y="-236.2" font-family="Helvetica,sans-Serif" font-size="11.00">usage_type_id</text>
<polygon fill="none" stroke="black" points="481.5,-206 481.5,-228 714.5,-228 714.5,-206 481.5,-206"/>
<image xlink:href="../../images/foreignKeys.png" width="11px" height="12px" preserveAspectRatio="xMinYMin meet" x="486.5" y="-223"/>
<text text-anchor="start" x="513.5" y="-214.2" font-family="Helvetica,sans-Serif" font-size="11.00">display_style_id</text>
<polygon fill="none" stroke="black" points="481.5,-188 481.5,-206 714.5,-206 714.5,-188 481.5,-188"/>
<text text-anchor="start" x="484.5" y="-194.2" font-family="Helvetica,sans-Serif" font-size="11.00">...</text>
<polygon fill="#ffffff" stroke="transparent" points="481.5,-170 481.5,-188 595.5,-188 595.5,-170 481.5,-170"/>
<polygon fill="none" stroke="black" points="481.5,-170 481.5,-188 595.5,-188 595.5,-170 481.5,-170"/>
<text text-anchor="start" x="484.5" y="-176.2" font-family="Helvetica,sans-Serif" font-size="11.00">&lt; 9</text>
<polygon fill="#ffffff" stroke="transparent" points="595.5,-170 595.5,-188 654.5,-188 654.5,-170 595.5,-170"/>
<polygon fill="none" stroke="black" points="595.5,-170 595.5,-188 654.5,-188 654.5,-170 595.5,-170"/>
<text text-anchor="start" x="644.5" y="-176.2" font-family="Helvetica,sans-Serif" font-size="11.00"> &#160;</text>
<polygon fill="#ffffff" stroke="transparent" points="654.5,-170 654.5,-188 714.5,-188 714.5,-170 654.5,-170"/>
<polygon fill="none" stroke="black" points="654.5,-170 654.5,-188 714.5,-188 714.5,-170 654.5,-170"/>
<text text-anchor="start" x="704.5" y="-176.2" font-family="Helvetica,sans-Serif" font-size="11.00"> &#160;</text>
</a>
</g>
</g>
<!-- variable_injection_display_styles -->
<g id="node2" class="node">
<title>variable_injection_display_styles</title>
<g id="a_node2"><a xlink:href="../../tables/variable_injection_display_styles.html" xlink:title="variable_injection_display_styles" target="_top">
<polygon fill="#ffffff" stroke="transparent" points="191,-37 191,-95 428,-95 428,-37 191,-37"/>
<polygon fill="#f5f5f5" stroke="transparent" points="191.5,-73 191.5,-95 428.5,-95 428.5,-73 191.5,-73"/>
<polygon fill="none" stroke="black" points="191.5,-73 191.5,-95 428.5,-95 428.5,-73 191.5,-73"/>
<text text-anchor="start" x="196.5" y="-82.2" font-family="Helvetica,sans-Serif" font-weight="bold" font-size="11.00">variable_injection_display_styles</text>
<text text-anchor="start" x="389.5" y="-81.2" font-family="Helvetica,sans-Serif" font-size="11.00">[table]</text>
<polygon fill="none" stroke="black" points="191.5,-55 191.5,-73 428.5,-73 428.5,-55 191.5,-55"/>
<text text-anchor="start" x="194.5" y="-61.2" font-family="Helvetica,sans-Serif" font-size="11.00">...</text>
<polygon fill="#ffffff" stroke="transparent" points="191.5,-37 191.5,-55 298.5,-55 298.5,-37 191.5,-37"/>
<polygon fill="none" stroke="black" points="191.5,-37 191.5,-55 298.5,-55 298.5,-37 191.5,-37"/>
<text text-anchor="start" x="194.5" y="-43.2" font-family="Helvetica,sans-Serif" font-size="11.00"> &#160;</text>
<polygon fill="#ffffff" stroke="transparent" points="298.5,-37 298.5,-55 358.5,-55 358.5,-37 298.5,-37"/>
<polygon fill="none" stroke="black" points="298.5,-37 298.5,-55 358.5,-55 358.5,-37 298.5,-37"/>
<text text-anchor="start" x="348.5" y="-43.2" font-family="Helvetica,sans-Serif" font-size="11.00"> &#160;</text>
<polygon fill="#ffffff" stroke="transparent" points="358.5,-37 358.5,-55 428.5,-55 428.5,-37 358.5,-37"/>
<polygon fill="none" stroke="black" points="358.5,-37 358.5,-55 428.5,-55 428.5,-37 358.5,-37"/>
<text text-anchor="start" x="409.5" y="-43.2" font-family="Helvetica,sans-Serif" font-size="11.00">2 &gt;</text>
</a>
</g>
</g>
<!-- variable_section_default_values&#45;&gt;variable_injection_display_styles -->
<g id="edge1" class="edge">
<title>variable_section_default_values:w&#45;&gt;variable_injection_display_styles:e</title>
<path fill="none" stroke="black" d="M466.27,-214.21C422.56,-193.48 495.44,-64 429.5,-64"/>
<polygon fill="black" stroke="black" points="472.65,-215.46 479.81,-220.53 476.57,-216.23 480.5,-217 480.5,-217 480.5,-217 476.57,-216.23 481.19,-213.47 472.65,-215.46 472.65,-215.46"/>
<ellipse fill="none" stroke="black" cx="469.51" cy="-214.85" rx="3.2" ry="3.2"/>
</g>
<!-- variable_usage_types -->
<g id="node3" class="node">
<title>variable_usage_types</title>
<g id="a_node3"><a xlink:href="../../tables/variable_usage_types.html" xlink:title="variable_usage_types" target="_top">
<polygon fill="#ffffff" stroke="transparent" points="187,-149 187,-237 432,-237 432,-149 187,-149"/>
<polygon fill="#f5f5f5" stroke="transparent" points="189.5,-213 189.5,-235 430.5,-235 430.5,-213 189.5,-213"/>
<polygon fill="none" stroke="black" points="189.5,-213 189.5,-235 430.5,-235 430.5,-213 189.5,-213"/>
<text text-anchor="start" x="194.5" y="-222.2" font-family="Helvetica,sans-Serif" font-weight="bold" font-size="11.00">variable_usage_types</text>
<text text-anchor="start" x="391.5" y="-221.2" font-family="Helvetica,sans-Serif" font-size="11.00">[table]</text>
<polygon fill="none" stroke="black" points="189.5,-191 189.5,-213 336.5,-213 336.5,-191 189.5,-191"/>
<image xlink:href="../../images/primaryKeys.png" width="11px" height="12px" preserveAspectRatio="xMinYMin meet" x="194.5" y="-208"/>
<text text-anchor="start" x="209.5" y="-199.2" font-family="Helvetica,sans-Serif" font-size="11.00">id</text>
<polygon fill="none" stroke="black" points="336.5,-191 336.5,-213 430.5,-213 430.5,-191 336.5,-191"/>
<text text-anchor="start" x="339.5" y="-199.2" font-family="Helvetica,sans-Serif" font-size="11.00">int4[10]</text>
<polygon fill="#ffffff" stroke="transparent" points="189.5,-169 189.5,-191 336.5,-191 336.5,-169 189.5,-169"/>
<polygon fill="none" stroke="black" points="189.5,-169 189.5,-191 336.5,-191 336.5,-169 189.5,-169"/>
<text text-anchor="start" x="209.5" y="-177.2" font-family="Helvetica,sans-Serif" font-size="11.00">name</text>
<polygon fill="none" stroke="black" points="336.5,-169 336.5,-191 430.5,-191 430.5,-169 336.5,-169"/>
<text text-anchor="start" x="339.5" y="-177.2" font-family="Helvetica,sans-Serif" font-size="11.00">text[2147483647]</text>
<polygon fill="#ffffff" stroke="transparent" points="189.5,-151 189.5,-169 267.5,-169 267.5,-151 189.5,-151"/>
<polygon fill="none" stroke="black" points="189.5,-151 189.5,-169 267.5,-169 267.5,-151 189.5,-151"/>
<text text-anchor="start" x="192.5" y="-157.2" font-family="Helvetica,sans-Serif" font-size="11.00">&lt; 0</text>
<polygon fill="#ffffff" stroke="transparent" points="267.5,-151 267.5,-169 336.5,-169 336.5,-151 267.5,-151"/>
<polygon fill="none" stroke="black" points="267.5,-151 267.5,-169 336.5,-169 336.5,-151 267.5,-151"/>
<text text-anchor="start" x="326.5" y="-157.2" font-family="Helvetica,sans-Serif" font-size="11.00"> &#160;</text>
<polygon fill="#ffffff" stroke="transparent" points="336.5,-151 336.5,-169 430.5,-169 430.5,-151 336.5,-151"/>
<polygon fill="none" stroke="black" points="336.5,-151 336.5,-169 430.5,-169 430.5,-151 336.5,-151"/>
<text text-anchor="start" x="411.5" y="-157.2" font-family="Helvetica,sans-Serif" font-size="11.00">2 &gt;</text>
<polygon fill="none" stroke="black" stroke-width="2" points="188,-150 188,-236 431,-236 431,-150 188,-150"/>
</a>
</g>
</g>
<!-- variable_section_default_values&#45;&gt;variable_usage_types -->
<g id="edge2" class="edge">
<title>variable_section_default_values:w&#45;&gt;variable_usage_types:e</title>
<path fill="none" stroke="black" d="M466.62,-234.46C454.08,-224.58 452.82,-202 431.5,-202"/>
<polygon fill="black" stroke="black" points="472.9,-236.51 479.38,-242.42 476.7,-237.76 480.5,-239 480.5,-239 480.5,-239 476.7,-237.76 481.62,-235.58 472.9,-236.51 472.9,-236.51"/>
<ellipse fill="none" stroke="black" cx="469.85" cy="-235.52" rx="3.2" ry="3.2"/>
</g>
<!-- variables -->
<g id="node4" class="node">
<title>variables</title>
<g id="a_node4"><a xlink:href="../../tables/variables.html" xlink:title="variables" target="_top">
<polygon fill="#ffffff" stroke="transparent" points="260.5,-418 260.5,-476 358.5,-476 358.5,-418 260.5,-418"/>
<polygon fill="#f5f5f5" stroke="transparent" points="260.5,-454 260.5,-476 358.5,-476 358.5,-454 260.5,-454"/>
<polygon fill="none" stroke="black" points="260.5,-454 260.5,-476 358.5,-476 358.5,-454 260.5,-454"/>
<text text-anchor="start" x="265.5" y="-463.2" font-family="Helvetica,sans-Serif" font-weight="bold" font-size="11.00">variables</text>
<text text-anchor="start" x="319.5" y="-462.2" font-family="Helvetica,sans-Serif" font-size="11.00">[table]</text>
<polygon fill="none" stroke="black" points="260.5,-436 260.5,-454 358.5,-454 358.5,-436 260.5,-436"/>
<text text-anchor="start" x="263.5" y="-442.2" font-family="Helvetica,sans-Serif" font-size="11.00">...</text>
<polygon fill="#ffffff" stroke="transparent" points="260.5,-418 260.5,-436 299.5,-436 299.5,-418 260.5,-418"/>
<polygon fill="none" stroke="black" points="260.5,-418 260.5,-436 299.5,-436 299.5,-418 260.5,-418"/>
<text text-anchor="start" x="263.5" y="-424.2" font-family="Helvetica,sans-Serif" font-size="11.00">&lt; 3</text>
<polygon fill="#ffffff" stroke="transparent" points="299.5,-418 299.5,-436 321.5,-436 321.5,-418 299.5,-418"/>
<polygon fill="none" stroke="black" points="299.5,-418 299.5,-436 321.5,-436 321.5,-418 299.5,-418"/>
<text text-anchor="start" x="311.5" y="-424.2" font-family="Helvetica,sans-Serif" font-size="11.00"> &#160;</text>
<polygon fill="#ffffff" stroke="transparent" points="321.5,-418 321.5,-436 358.5,-436 358.5,-418 321.5,-418"/>
<polygon fill="none" stroke="black" points="321.5,-418 321.5,-436 358.5,-436 358.5,-418 321.5,-418"/>
<text text-anchor="start" x="333.5" y="-424.2" font-family="Helvetica,sans-Serif" font-size="11.00">33 &gt;</text>
</a>
</g>
</g>
<!-- variable_section_default_values&#45;&gt;variables -->
<g id="edge3" class="edge">
<title>variable_section_default_values:w&#45;&gt;variables:e</title>
<path fill="none" stroke="black" d="M465.96,-285.54C435.36,-298.97 471.47,-362.43 440,-400 413.68,-431.42 400.49,-445 359.5,-445"/>
<polygon fill="black" stroke="black" points="472.62,-284.38 481.12,-286.55 476.56,-283.69 480.5,-283 480.5,-283 480.5,-283 476.56,-283.69 479.88,-279.45 472.62,-284.38 472.62,-284.38"/>
<ellipse fill="none" stroke="black" cx="469.47" cy="-284.93" rx="3.2" ry="3.2"/>
</g>
<!-- variable_section_default_values&#45;&gt;variables -->
<g id="edge5" class="edge">
<title>variable_section_default_values:w&#45;&gt;variables:e</title>
<path fill="none" stroke="black" d="M466.09,-263.05C426.8,-276.62 476.47,-354.18 440,-400 414.47,-432.07 400.49,-445 359.5,-445"/>
<polygon fill="black" stroke="black" points="472.58,-262.13 481.01,-264.56 476.54,-261.56 480.5,-261 480.5,-261 480.5,-261 476.54,-261.56 479.99,-257.44 472.58,-262.13 472.58,-262.13"/>
<ellipse fill="none" stroke="black" cx="469.41" cy="-262.58" rx="3.2" ry="3.2"/>
</g>
<!-- variable_section_default_values&#45;&gt;variables -->
<g id="edge6" class="edge">
<title>variable_section_default_values:w&#45;&gt;variables:e</title>
<path fill="none" stroke="black" d="M466.23,-374.57C457.04,-380.22 453.43,-391.47 440,-400 405.39,-421.97 400.49,-445 359.5,-445"/>
<polygon fill="black" stroke="black" points="472.74,-372.94 481.37,-374.49 476.62,-371.97 480.5,-371 480.5,-371 480.5,-371 476.62,-371.97 479.63,-367.51 472.74,-372.94 472.74,-372.94"/>
<ellipse fill="none" stroke="black" cx="469.63" cy="-373.72" rx="3.2" ry="3.2"/>
</g>
<!-- variable_section_default_values&#45;&gt;variables -->
<g id="edge9" class="edge">
<title>variable_section_default_values:w&#45;&gt;variables:e</title>
<path fill="none" stroke="black" d="M466.41,-353.15C454.59,-362.46 457.23,-385.35 440,-400 408.77,-426.55 400.49,-445 359.5,-445"/>
<polygon fill="black" stroke="black" points="472.83,-351.26 481.52,-352.45 476.66,-350.13 480.5,-349 480.5,-349 480.5,-349 476.66,-350.13 479.48,-345.55 472.83,-351.26 472.83,-351.26"/>
<ellipse fill="none" stroke="black" cx="469.76" cy="-352.17" rx="3.2" ry="3.2"/>
</g>
<!-- variable_types -->
<g id="node5" class="node">
<title>variable_types</title>
<g id="a_node5"><a xlink:href="../../tables/variable_types.html" xlink:title="variable_types" target="_top">
<polygon fill="#ffffff" stroke="transparent" points="8,-390 8,-448 138,-448 138,-390 8,-390"/>
<polygon fill="#f5f5f5" stroke="transparent" points="8,-426 8,-448 138,-448 138,-426 8,-426"/>
<polygon fill="none" stroke="black" points="8,-426 8,-448 138,-448 138,-426 8,-426"/>
<text text-anchor="start" x="13" y="-435.2" font-family="Helvetica,sans-Serif" font-weight="bold" font-size="11.00">variable_types</text>
<text text-anchor="start" x="99" y="-434.2" font-family="Helvetica,sans-Serif" font-size="11.00">[table]</text>
<polygon fill="none" stroke="black" points="8,-408 8,-426 138,-426 138,-408 8,-408"/>
<text text-anchor="start" x="11" y="-414.2" font-family="Helvetica,sans-Serif" font-size="11.00">...</text>
<polygon fill="#ffffff" stroke="transparent" points="8,-390 8,-408 59,-408 59,-390 8,-390"/>
<polygon fill="none" stroke="black" points="8,-390 8,-408 59,-408 59,-390 8,-390"/>
<text text-anchor="start" x="11" y="-396.2" font-family="Helvetica,sans-Serif" font-size="11.00"> &#160;</text>
<polygon fill="#ffffff" stroke="transparent" points="59,-390 59,-408 91,-408 91,-390 59,-390"/>
<polygon fill="none" stroke="black" points="59,-390 59,-408 91,-408 91,-390 59,-390"/>
<text text-anchor="start" x="81" y="-396.2" font-family="Helvetica,sans-Serif" font-size="11.00"> &#160;</text>
<polygon fill="#ffffff" stroke="transparent" points="91,-390 91,-408 138,-408 138,-390 91,-390"/>
<polygon fill="none" stroke="black" points="91,-390 91,-408 138,-408 138,-390 91,-390"/>
<text text-anchor="start" x="113" y="-396.2" font-family="Helvetica,sans-Serif" font-size="11.00">18 &gt;</text>
</a>
</g>
</g>
<!-- variable_section_default_values&#45;&gt;variable_types -->
<g id="edge4" class="edge">
<title>variable_section_default_values:w&#45;&gt;variable_types:e</title>
<path fill="none" stroke="black" d="M465.65,-260.84C389.61,-259.47 227.83,-250.45 179,-290 133.01,-327.25 198.18,-417 139,-417"/>
<polygon fill="black" stroke="black" points="472.5,-260.92 480.46,-264.6 476.5,-260.96 480.5,-261 480.5,-261 480.5,-261 476.5,-260.96 480.54,-257.4 472.5,-260.92 472.5,-260.92"/>
<ellipse fill="none" stroke="black" cx="469.3" cy="-260.88" rx="3.2" ry="3.2"/>
</g>
<!-- variable_section_default_values&#45;&gt;variable_types -->
<g id="edge8" class="edge">
<title>variable_section_default_values:w&#45;&gt;variable_types:e</title>
<path fill="none" stroke="black" d="M466.35,-352.28C457.99,-356.79 453.32,-364.83 440,-369 328.07,-404.05 294.29,-386.45 179,-408 161.09,-411.35 157.22,-417 139,-417"/>
<polygon fill="black" stroke="black" points="472.71,-350.8 481.31,-352.51 476.6,-349.9 480.5,-349 480.5,-349 480.5,-349 476.6,-349.9 479.69,-345.49 472.71,-350.8 472.71,-350.8"/>
<ellipse fill="none" stroke="black" cx="469.59" cy="-351.53" rx="3.2" ry="3.2"/>
</g>
<!-- variable_manifests -->
<g id="node6" class="node">
<title>variable_manifests</title>
<g id="a_node6"><a xlink:href="../../tables/variable_manifests.html" xlink:title="variable_manifests" target="_top">
<polygon fill="#ffffff" stroke="transparent" points="231,-300 231,-358 388,-358 388,-300 231,-300"/>
<polygon fill="#f5f5f5" stroke="transparent" points="231.5,-336 231.5,-358 388.5,-358 388.5,-336 231.5,-336"/>
<polygon fill="none" stroke="black" points="231.5,-336 231.5,-358 388.5,-358 388.5,-336 231.5,-336"/>
<text text-anchor="start" x="236.5" y="-345.2" font-family="Helvetica,sans-Serif" font-weight="bold" font-size="11.00">variable_manifests</text>
<text text-anchor="start" x="349.5" y="-344.2" font-family="Helvetica,sans-Serif" font-size="11.00">[table]</text>
<polygon fill="none" stroke="black" points="231.5,-318 231.5,-336 388.5,-336 388.5,-318 231.5,-318"/>
<text text-anchor="start" x="234.5" y="-324.2" font-family="Helvetica,sans-Serif" font-size="11.00">...</text>
<polygon fill="#ffffff" stroke="transparent" points="231.5,-300 231.5,-318 303.5,-318 303.5,-300 231.5,-300"/>
<polygon fill="none" stroke="black" points="231.5,-300 231.5,-318 303.5,-318 303.5,-300 231.5,-300"/>
<text text-anchor="start" x="234.5" y="-306.2" font-family="Helvetica,sans-Serif" font-size="11.00">&lt; 1</text>
<polygon fill="#ffffff" stroke="transparent" points="303.5,-300 303.5,-318 341.5,-318 341.5,-300 303.5,-300"/>
<polygon fill="none" stroke="black" points="303.5,-300 303.5,-318 341.5,-318 341.5,-300 303.5,-300"/>
<text text-anchor="start" x="331.5" y="-306.2" font-family="Helvetica,sans-Serif" font-size="11.00"> &#160;</text>
<polygon fill="#ffffff" stroke="transparent" points="341.5,-300 341.5,-318 388.5,-318 388.5,-300 341.5,-300"/>
<polygon fill="none" stroke="black" points="341.5,-300 341.5,-318 388.5,-318 388.5,-300 341.5,-300"/>
<text text-anchor="start" x="369.5" y="-306.2" font-family="Helvetica,sans-Serif" font-size="11.00">5 &gt;</text>
</a>
</g>
</g>
<!-- variable_section_default_values&#45;&gt;variable_manifests -->
<g id="edge7" class="edge">
<title>variable_section_default_values:w&#45;&gt;variable_manifests:e</title>
<path fill="none" stroke="black" d="M465.85,-327C436.83,-327 424.57,-327 389.5,-327"/>
<polygon fill="black" stroke="black" points="472.5,-327 480.5,-330.6 476.5,-327 480.5,-327 480.5,-327 480.5,-327 476.5,-327 480.5,-323.4 472.5,-327 472.5,-327"/>
<ellipse fill="none" stroke="black" cx="469.3" cy="-327" rx="3.2" ry="3.2"/>
</g>
<!-- variables&#45;&gt;variable_types -->
<g id="edge23" class="edge">
<title>variables:w&#45;&gt;variable_types:e</title>
<path fill="none" stroke="black" d="M244.86,-444.28C202.09,-439.9 188.72,-417 139,-417"/>
<polygon fill="black" stroke="black" points="251.51,-444.61 259.32,-448.6 255.5,-444.8 259.5,-445 259.5,-445 259.5,-445 255.5,-444.8 259.68,-441.4 251.51,-444.61 251.51,-444.61"/>
<ellipse fill="none" stroke="black" cx="248.31" cy="-444.45" rx="3.2" ry="3.2"/>
</g>
<!-- variable_section_values -->
<g id="node7" class="node">
<title>variable_section_values</title>
<g id="a_node7"><a xlink:href="../../tables/variable_section_values.html" xlink:title="variable_section_values" target="_top">
<polygon fill="#ffffff" stroke="transparent" points="763,-377 763,-589 947,-589 947,-377 763,-377"/>
<polygon fill="#f5f5f5" stroke="transparent" points="763,-567 763,-589 947,-589 947,-567 763,-567"/>
<polygon fill="none" stroke="black" points="763,-567 763,-589 947,-589 947,-567 763,-567"/>
<text text-anchor="start" x="768" y="-576.2" font-family="Helvetica,sans-Serif" font-weight="bold" font-size="11.00">variable_section_values</text>
<text text-anchor="start" x="908" y="-575.2" font-family="Helvetica,sans-Serif" font-size="11.00">[table]</text>
<polygon fill="none" stroke="black" points="763,-545 763,-567 947,-567 947,-545 763,-545"/>
<image xlink:href="../../images/primaryKeys.png" width="11px" height="12px" preserveAspectRatio="xMinYMin meet" x="768" y="-562"/>
<text text-anchor="start" x="795" y="-553.2" font-family="Helvetica,sans-Serif" font-size="11.00">variable_value_id</text>
<polygon fill="none" stroke="black" points="763,-523 763,-545 947,-545 947,-523 763,-523"/>
<image xlink:href="../../images/foreignKeys.png" width="11px" height="12px" preserveAspectRatio="xMinYMin meet" x="768" y="-540"/>
<text text-anchor="start" x="795" y="-531.2" font-family="Helvetica,sans-Serif" font-size="11.00">variable_id</text>
<polygon fill="none" stroke="black" points="763,-501 763,-523 947,-523 947,-501 763,-501"/>
<image xlink:href="../../images/foreignKeys.png" width="11px" height="12px" preserveAspectRatio="xMinYMin meet" x="768" y="-518"/>
<text text-anchor="start" x="795" y="-509.2" font-family="Helvetica,sans-Serif" font-size="11.00">variable_type_id</text>
<polygon fill="none" stroke="black" points="763,-479 763,-501 947,-501 947,-479 763,-479"/>
<image xlink:href="../../images/foreignKeys.png" width="11px" height="12px" preserveAspectRatio="xMinYMin meet" x="768" y="-496"/>
<text text-anchor="start" x="795" y="-487.2" font-family="Helvetica,sans-Serif" font-size="11.00">usage_type_id</text>
<polygon fill="#ffffff" stroke="transparent" points="763,-457 763,-479 947,-479 947,-457 763,-457"/>
<polygon fill="none" stroke="black" points="763,-457 763,-479 947,-479 947,-457 763,-457"/>
<image xlink:href="../../images/foreignKeys.png" width="11px" height="12px" preserveAspectRatio="xMinYMin meet" x="768" y="-474"/>
<text text-anchor="start" x="795" y="-465.2" font-family="Helvetica,sans-Serif" font-size="11.00">used_variable_id</text>
<polygon fill="none" stroke="black" points="763,-435 763,-457 947,-457 947,-435 763,-435"/>
<image xlink:href="../../images/foreignKeys.png" width="11px" height="12px" preserveAspectRatio="xMinYMin meet" x="768" y="-452"/>
<text text-anchor="start" x="795" y="-443.2" font-family="Helvetica,sans-Serif" font-size="11.00">used_variable_type_id</text>
<polygon fill="none" stroke="black" points="763,-413 763,-435 947,-435 947,-413 763,-413"/>
<image xlink:href="../../images/foreignKeys.png" width="11px" height="12px" preserveAspectRatio="xMinYMin meet" x="768" y="-430"/>
<text text-anchor="start" x="795" y="-421.2" font-family="Helvetica,sans-Serif" font-size="11.00">display_style_id</text>
<polygon fill="none" stroke="black" points="763,-395 763,-413 947,-413 947,-395 763,-395"/>
<text text-anchor="start" x="766" y="-401.2" font-family="Helvetica,sans-Serif" font-size="11.00">...</text>
<polygon fill="#ffffff" stroke="transparent" points="763,-377 763,-395 856,-395 856,-377 763,-377"/>
<polygon fill="none" stroke="black" points="763,-377 763,-395 856,-395 856,-377 763,-377"/>
<text text-anchor="start" x="766" y="-383.2" font-family="Helvetica,sans-Serif" font-size="11.00">&lt; 10</text>
<polygon fill="#ffffff" stroke="transparent" points="856,-377 856,-395 901,-395 901,-377 856,-377"/>
<polygon fill="none" stroke="black" points="856,-377 856,-395 901,-395 901,-377 856,-377"/>
<text text-anchor="start" x="891" y="-383.2" font-family="Helvetica,sans-Serif" font-size="11.00"> &#160;</text>
<polygon fill="#ffffff" stroke="transparent" points="901,-377 901,-395 947,-395 947,-377 901,-377"/>
<polygon fill="none" stroke="black" points="901,-377 901,-395 947,-395 947,-377 901,-377"/>
<text text-anchor="start" x="937" y="-383.2" font-family="Helvetica,sans-Serif" font-size="11.00"> &#160;</text>
</a>
</g>
</g>
<!-- variable_section_values&#45;&gt;variable_injection_display_styles -->
<g id="edge10" class="edge">
<title>variable_section_values:w&#45;&gt;variable_injection_display_styles:e</title>
<path fill="none" stroke="black" d="M748.08,-419.39C703.12,-383.98 767.39,-155.6 722,-109 630.23,-14.78 561.03,-64 429.5,-64"/>
<polygon fill="black" stroke="black" points="754.41,-421.48 760.87,-427.42 758.2,-422.74 762,-424 762,-424 762,-424 758.2,-422.74 763.13,-420.58 754.41,-421.48 754.41,-421.48"/>
<ellipse fill="none" stroke="black" cx="751.37" cy="-420.48" rx="3.2" ry="3.2"/>
</g>
<!-- variable_section_values&#45;&gt;variable_usage_types -->
<g id="edge11" class="edge">
<title>variable_section_values:w&#45;&gt;variable_usage_types:e</title>
<path fill="none" stroke="black" d="M748.12,-485.57C700.57,-449.57 773.18,-205.35 722,-160 680.59,-123.3 524.06,-138.67 473,-160 448.79,-170.11 457.74,-202 431.5,-202"/>
<polygon fill="black" stroke="black" points="754.38,-487.57 760.9,-493.43 758.19,-488.78 762,-490 762,-490 762,-490 758.19,-488.78 763.1,-486.57 754.38,-487.57 754.38,-487.57"/>
<ellipse fill="none" stroke="black" cx="751.33" cy="-486.59" rx="3.2" ry="3.2"/>
</g>
<!-- variable_section_values&#45;&gt;variables -->
<g id="edge12" class="edge">
<title>variable_section_values:w&#45;&gt;variables:e</title>
<path fill="none" stroke="black" d="M747.37,-468.01C630.83,-468.15 596.08,-469.81 473,-460 422.28,-455.96 410.38,-445 359.5,-445"/>
<polygon fill="black" stroke="black" points="754,-468.01 762,-471.6 758,-468 762,-468 762,-468 762,-468 758,-468 762,-464.4 754,-468.01 754,-468.01"/>
<ellipse fill="none" stroke="black" cx="750.8" cy="-468.01" rx="3.2" ry="3.2"/>
</g>
<!-- variable_section_values&#45;&gt;variables -->
<g id="edge14" class="edge">
<title>variable_section_values:w&#45;&gt;variables:e</title>
<path fill="none" stroke="black" d="M747.37,-446C580.52,-445.95 533.41,-445 359.5,-445"/>
<polygon fill="black" stroke="black" points="754,-446 762,-449.6 758,-446 762,-446 762,-446 762,-446 758,-446 762,-442.4 754,-446 754,-446"/>
<ellipse fill="none" stroke="black" cx="750.8" cy="-446" rx="3.2" ry="3.2"/>
</g>
<!-- variable_section_values&#45;&gt;variables -->
<g id="edge16" class="edge">
<title>variable_section_values:w&#45;&gt;variables:e</title>
<path fill="none" stroke="black" d="M747.44,-533.87C628.39,-531.68 595.94,-502.45 473,-474 422.28,-462.26 411.57,-445 359.5,-445"/>
<polygon fill="black" stroke="black" points="754,-533.93 761.97,-537.6 758,-533.96 762,-534 762,-534 762,-534 758,-533.96 762.03,-530.4 754,-533.93 754,-533.93"/>
<ellipse fill="none" stroke="black" cx="750.8" cy="-533.9" rx="3.2" ry="3.2"/>
</g>
<!-- variable_section_values&#45;&gt;variable_types -->
<g id="edge13" class="edge">
<title>variable_section_values:w&#45;&gt;variable_types:e</title>
<path fill="none" stroke="black" d="M748.31,-441.38C704.31,-405.93 770.23,-177.43 722,-135 701.08,-116.6 197.95,-121.4 179,-138 131.88,-179.27 201.63,-417 139,-417"/>
<polygon fill="black" stroke="black" points="754.42,-443.44 760.85,-449.41 758.21,-444.72 762,-446 762,-446 762,-446 758.21,-444.72 763.15,-442.59 754.42,-443.44 754.42,-443.44"/>
<ellipse fill="none" stroke="black" cx="751.39" cy="-442.42" rx="3.2" ry="3.2"/>
</g>
<!-- variable_section_values&#45;&gt;variable_types -->
<g id="edge17" class="edge">
<title>variable_section_values:w&#45;&gt;variable_types:e</title>
<path fill="none" stroke="black" d="M747.3,-512.07C646.04,-512.85 231.23,-518.83 179,-487 148.4,-468.35 174.83,-417 139,-417"/>
<polygon fill="black" stroke="black" points="754,-512.04 762.02,-515.6 758,-512.02 762,-512 762,-512 762,-512 758,-512.02 761.98,-508.4 754,-512.04 754,-512.04"/>
<ellipse fill="none" stroke="black" cx="750.8" cy="-512.06" rx="3.2" ry="3.2"/>
</g>
<!-- variable_values -->
<g id="node8" class="node">
<title>variable_values</title>
<g id="a_node8"><a xlink:href="../../tables/variable_values.html" xlink:title="variable_values" target="_top">
<polygon fill="#ffffff" stroke="transparent" points="529.5,-555 529.5,-613 665.5,-613 665.5,-555 529.5,-555"/>
<polygon fill="#f5f5f5" stroke="transparent" points="529.5,-591 529.5,-613 665.5,-613 665.5,-591 529.5,-591"/>
<polygon fill="none" stroke="black" points="529.5,-591 529.5,-613 665.5,-613 665.5,-591 529.5,-591"/>
<text text-anchor="start" x="534.5" y="-600.2" font-family="Helvetica,sans-Serif" font-weight="bold" font-size="11.00">variable_values</text>
<text text-anchor="start" x="626.5" y="-599.2" font-family="Helvetica,sans-Serif" font-size="11.00">[table]</text>
<polygon fill="none" stroke="black" points="529.5,-573 529.5,-591 665.5,-591 665.5,-573 529.5,-573"/>
<text text-anchor="start" x="532.5" y="-579.2" font-family="Helvetica,sans-Serif" font-size="11.00">...</text>
<polygon fill="#ffffff" stroke="transparent" points="529.5,-555 529.5,-573 587.5,-573 587.5,-555 529.5,-555"/>
<polygon fill="none" stroke="black" points="529.5,-555 529.5,-573 587.5,-573 587.5,-555 529.5,-555"/>
<text text-anchor="start" x="532.5" y="-561.2" font-family="Helvetica,sans-Serif" font-size="11.00">&lt; 3</text>
<polygon fill="#ffffff" stroke="transparent" points="587.5,-555 587.5,-573 618.5,-573 618.5,-555 587.5,-555"/>
<polygon fill="none" stroke="black" points="587.5,-555 587.5,-573 618.5,-573 618.5,-555 587.5,-555"/>
<text text-anchor="start" x="608.5" y="-561.2" font-family="Helvetica,sans-Serif" font-size="11.00"> &#160;</text>
<polygon fill="#ffffff" stroke="transparent" points="618.5,-555 618.5,-573 665.5,-573 665.5,-555 618.5,-555"/>
<polygon fill="none" stroke="black" points="618.5,-555 618.5,-573 665.5,-573 665.5,-555 618.5,-555"/>
<text text-anchor="start" x="640.5" y="-561.2" font-family="Helvetica,sans-Serif" font-size="11.00">17 &gt;</text>
</a>
</g>
</g>
<!-- variable_section_values&#45;&gt;variable_values -->
<g id="edge15" class="edge">
<title>variable_section_values:w&#45;&gt;variable_values:e</title>
<path fill="none" stroke="black" d="M747.53,-535.71C713.78,-544.26 708.62,-582 666.5,-582"/>
<polygon fill="black" stroke="black" points="754.06,-534.94 762.42,-537.58 758.03,-534.47 762,-534 762,-534 762,-534 758.03,-534.47 761.58,-530.42 754.06,-534.94 754.06,-534.94"/>
<ellipse fill="none" stroke="black" cx="750.88" cy="-535.31" rx="3.2" ry="3.2"/>
</g>
<!-- variable_section_values&#45;&gt;variable_values -->
<g id="edge18" class="edge">
<title>variable_section_values:w&#45;&gt;variable_values:e</title>
<path fill="none" stroke="black" d="M749.72,-520.3C724.45,-538.85 669.08,-582 666.5,-582"/>
<polygon fill="black" stroke="black" points="755.37,-516.48 764.02,-514.98 758.69,-514.24 762,-512 762,-512 762,-512 758.69,-514.24 759.98,-509.02 755.37,-516.48 755.37,-516.48"/>
<ellipse fill="none" stroke="black" cx="752.72" cy="-518.27" rx="3.2" ry="3.2"/>
</g>
<!-- variable_section_values&#45;&gt;variable_values -->
<g id="edge19" class="edge">
<title>variable_section_values:w&#45;&gt;variable_values:e</title>
<path fill="none" stroke="black" d="M751.42,-556.54C716.45,-560.28 706.71,-582 666.5,-582"/>
<polygon fill="black" stroke="black" points="761,-552.05 761.41,-560.04 759.81,-560.12 759.4,-552.13 761,-552.05"/>
<polyline fill="none" stroke="black" points="762,-556 758.01,-556.21 "/>
<ellipse fill="none" stroke="black" cx="754.81" cy="-556.37" rx="3.2" ry="3.2"/>
</g>
<!-- variable_values&#45;&gt;variables -->
<g id="edge20" class="edge">
<title>variable_values:w&#45;&gt;variables:e</title>
<path fill="none" stroke="black" d="M514.18,-580C434.04,-561.95 451.09,-439.32 359.5,-445"/>
<polygon fill="black" stroke="black" points="520.58,-580.89 528,-585.57 524.54,-581.45 528.5,-582 528.5,-582 528.5,-582 524.54,-581.45 529,-578.43 520.58,-580.89 520.58,-580.89"/>
<ellipse fill="none" stroke="black" cx="517.41" cy="-580.45" rx="3.2" ry="3.2"/>
</g>
<!-- variable_values&#45;&gt;variables -->
<g id="edge22" class="edge">
<title>variable_values:w&#45;&gt;variables:e</title>
<path fill="none" stroke="black" d="M513.68,-581.9C434.11,-574.4 450.9,-451.62 359.5,-445"/>
<polygon fill="black" stroke="black" points="520.5,-581.95 528.48,-585.6 524.5,-581.97 528.5,-582 528.5,-582 528.5,-582 524.5,-581.97 528.52,-578.4 520.5,-581.95 520.5,-581.95"/>
<ellipse fill="none" stroke="black" cx="517.3" cy="-581.93" rx="3.2" ry="3.2"/>
</g>
<!-- variable_values&#45;&gt;variable_types -->
<g id="edge21" class="edge">
<title>variable_values:w&#45;&gt;variable_types:e</title>
<path fill="none" stroke="black" d="M513.92,-582.09C365.9,-583.89 297.63,-611.1 179,-514 142.91,-484.46 185.63,-417 139,-417"/>
<polygon fill="black" stroke="black" points="520.5,-582.05 528.52,-585.6 524.5,-582.02 528.5,-582 528.5,-582 528.5,-582 524.5,-582.02 528.48,-578.4 520.5,-582.05 520.5,-582.05"/>
<ellipse fill="none" stroke="black" cx="517.3" cy="-582.07" rx="3.2" ry="3.2"/>
</g>
</g>
</svg>
