<?xml version="1.0" encoding="UTF-8" standalone="no"?>
<!DOCTYPE svg PUBLIC "-//W3C//DTD SVG 1.1//EN"
 "http://www.w3.org/Graphics/SVG/1.1/DTD/svg11.dtd">
<!-- Generated by graphviz version 2.47.1 (20210515.0534)
 -->
<!-- Title: twoDegreesRelationshipsDiagram Pages: 1 -->
<svg width="948pt" height="620pt"
 viewBox="0.00 0.00 948.00 620.00" xmlns="http://www.w3.org/2000/svg" xmlns:xlink="http://www.w3.org/1999/xlink">
<g id="graph0" class="graph" transform="scale(1 1) rotate(0) translate(4 616)">
<title>twoDegreesRelationshipsDiagram</title>
<polygon fill="#ffffff" stroke="transparent" points="-4,4 -4,-616 944,-616 944,4 -4,4"/>
<text text-anchor="middle" x="73.5" y="-7.2" font-family="Helvetica,sans-Serif" font-size="11.00">Generated by SchemaSpy</text>
<!-- published_project_indicator_baselines -->
<g id="node1" class="node">
<title>published_project_indicator_baselines</title>
<g id="a_node1"><a xlink:href="../../tables/published_project_indicator_baselines.html" xlink:title="published_project_indicator_baselines" target="_top">
<polygon fill="#ffffff" stroke="transparent" points="280,-410 280,-468 550,-468 550,-410 280,-410"/>
<polygon fill="#f5f5f5" stroke="transparent" points="280,-446 280,-468 550,-468 550,-446 280,-446"/>
<polygon fill="none" stroke="black" points="280,-446 280,-468 550,-468 550,-446 280,-446"/>
<text text-anchor="start" x="285" y="-455.2" font-family="Helvetica,sans-Serif" font-weight="bold" font-size="11.00">published_project_indicator_baselines</text>
<text text-anchor="start" x="511" y="-454.2" font-family="Helvetica,sans-Serif" font-size="11.00">[table]</text>
<polygon fill="none" stroke="black" points="280,-428 280,-446 550,-446 550,-428 280,-428"/>
<text text-anchor="start" x="283" y="-434.2" font-family="Helvetica,sans-Serif" font-size="11.00">...</text>
<polygon fill="#ffffff" stroke="transparent" points="280,-410 280,-428 413,-428 413,-410 280,-410"/>
<polygon fill="none" stroke="black" points="280,-410 280,-428 413,-428 413,-410 280,-410"/>
<text text-anchor="start" x="283" y="-416.2" font-family="Helvetica,sans-Serif" font-size="11.00">&lt; 2</text>
<polygon fill="#ffffff" stroke="transparent" points="413,-410 413,-428 481,-428 481,-410 413,-410"/>
<polygon fill="none" stroke="black" points="413,-410 413,-428 481,-428 481,-410 413,-410"/>
<text text-anchor="start" x="471" y="-416.2" font-family="Helvetica,sans-Serif" font-size="11.00"> &#160;</text>
<polygon fill="#ffffff" stroke="transparent" points="481,-410 481,-428 550,-428 550,-410 481,-410"/>
<polygon fill="none" stroke="black" points="481,-410 481,-428 550,-428 550,-410 481,-410"/>
<text text-anchor="start" x="540" y="-416.2" font-family="Helvetica,sans-Serif" font-size="11.00"> &#160;</text>
</a>
</g>
</g>
<!-- public.projects -->
<g id="node2" class="node">
<title>public.projects</title>
<g id="a_node2"><a xlink:href="../../../public/tables/projects.html" xlink:title="public.projects" target="_top">
<polygon fill="#ffffff" stroke="transparent" points="53.5,-409 53.5,-467 185.5,-467 185.5,-409 53.5,-409"/>
<polygon fill="#f5f5f5" stroke="transparent" points="53.5,-445 53.5,-467 185.5,-467 185.5,-445 53.5,-445"/>
<polygon fill="none" stroke="black" points="53.5,-445 53.5,-467 185.5,-467 185.5,-445 53.5,-445"/>
<text text-anchor="start" x="58.5" y="-454.2" font-family="Helvetica,sans-Serif" font-weight="bold" font-size="11.00">public.projects</text>
<text text-anchor="start" x="146.5" y="-453.2" font-family="Helvetica,sans-Serif" font-size="11.00">[table]</text>
<polygon fill="none" stroke="black" points="53.5,-427 53.5,-445 185.5,-445 185.5,-427 53.5,-427"/>
<text text-anchor="start" x="56.5" y="-433.2" font-family="Helvetica,sans-Serif" font-size="11.00">...</text>
<polygon fill="#ffffff" stroke="transparent" points="53.5,-409 53.5,-427 91.5,-427 91.5,-409 53.5,-409"/>
<polygon fill="none" stroke="black" points="53.5,-409 53.5,-427 91.5,-427 91.5,-409 53.5,-409"/>
<text text-anchor="start" x="56.5" y="-415.2" font-family="Helvetica,sans-Serif" font-size="11.00"> &#160;</text>
<polygon fill="#ffffff" stroke="transparent" points="91.5,-409 91.5,-427 144.5,-427 144.5,-409 91.5,-409"/>
<polygon fill="none" stroke="black" points="91.5,-409 91.5,-427 144.5,-427 144.5,-409 91.5,-409"/>
<text text-anchor="start" x="107.5" y="-415.2" font-family="Helvetica,sans-Serif" font-size="11.00">0 rows</text>
<polygon fill="#ffffff" stroke="transparent" points="144.5,-409 144.5,-427 185.5,-427 185.5,-409 144.5,-409"/>
<polygon fill="none" stroke="black" points="144.5,-409 144.5,-427 185.5,-427 185.5,-409 144.5,-409"/>
<text text-anchor="start" x="160.5" y="-415.2" font-family="Helvetica,sans-Serif" font-size="11.00">13 &gt;</text>
</a>
</g>
</g>
<!-- published_project_indicator_baselines&#45;&gt;public.projects -->
<g id="edge1" class="edge">
<title>published_project_indicator_baselines:w&#45;&gt;public.projects:e</title>
<path fill="none" stroke="black" d="M264.51,-436.95C234.73,-436.76 222.31,-436 186.5,-436"/>
<polygon fill="black" stroke="black" points="271,-436.97 278.99,-440.6 275,-436.99 279,-437 279,-437 279,-437 275,-436.99 279.01,-433.4 271,-436.97 271,-436.97"/>
<ellipse fill="none" stroke="black" cx="267.8" cy="-436.96" rx="3.2" ry="3.2"/>
</g>
<!-- accelerator.project_indicators -->
<g id="node3" class="node">
<title>accelerator.project_indicators</title>
<g id="a_node3"><a xlink:href="../../../accelerator/tables/project_indicators.html" xlink:title="accelerator.project_indicators" target="_top">
<polygon fill="#ffffff" stroke="transparent" points="8,-488 8,-546 231,-546 231,-488 8,-488"/>
<polygon fill="#f5f5f5" stroke="transparent" points="8.5,-524 8.5,-546 231.5,-546 231.5,-524 8.5,-524"/>
<polygon fill="none" stroke="black" points="8.5,-524 8.5,-546 231.5,-546 231.5,-524 8.5,-524"/>
<text text-anchor="start" x="13.5" y="-533.2" font-family="Helvetica,sans-Serif" font-weight="bold" font-size="11.00">accelerator.project_indicators</text>
<text text-anchor="start" x="192.5" y="-532.2" font-family="Helvetica,sans-Serif" font-size="11.00">[table]</text>
<polygon fill="none" stroke="black" points="8.5,-506 8.5,-524 231.5,-524 231.5,-506 8.5,-506"/>
<text text-anchor="start" x="11.5" y="-512.2" font-family="Helvetica,sans-Serif" font-size="11.00">...</text>
<polygon fill="#ffffff" stroke="transparent" points="8.5,-488 8.5,-506 95.5,-506 95.5,-488 8.5,-488"/>
<polygon fill="none" stroke="black" points="8.5,-488 8.5,-506 95.5,-506 95.5,-488 8.5,-488"/>
<text text-anchor="start" x="11.5" y="-494.2" font-family="Helvetica,sans-Serif" font-size="11.00"> &#160;</text>
<polygon fill="#ffffff" stroke="transparent" points="95.5,-488 95.5,-506 172.5,-506 172.5,-488 95.5,-488"/>
<polygon fill="none" stroke="black" points="95.5,-488 95.5,-506 172.5,-506 172.5,-488 95.5,-488"/>
<text text-anchor="start" x="135.5" y="-494.2" font-family="Helvetica,sans-Serif" font-size="11.00">0 rows</text>
<polygon fill="#ffffff" stroke="transparent" points="172.5,-488 172.5,-506 231.5,-506 231.5,-488 172.5,-488"/>
<polygon fill="none" stroke="black" points="172.5,-488 172.5,-506 231.5,-506 231.5,-488 172.5,-488"/>
<text text-anchor="start" x="212.5" y="-494.2" font-family="Helvetica,sans-Serif" font-size="11.00">3 &gt;</text>
</a>
</g>
</g>
<!-- published_project_indicator_baselines&#45;&gt;accelerator.project_indicators -->
<g id="edge2" class="edge">
<title>published_project_indicator_baselines:w&#45;&gt;accelerator.project_indicators:e</title>
<path fill="none" stroke="black" d="M265.05,-441.51C255.28,-449.88 255.2,-467.89 239,-478 235.69,-480.06 232.26,-482.03 228.75,-483.9"/>
<polygon fill="black" stroke="black" points="271.39,-439.46 280.11,-440.43 275.19,-438.23 279,-437 279,-437 279,-437 275.19,-438.23 277.89,-433.57 271.39,-439.46 271.39,-439.46"/>
<ellipse fill="none" stroke="black" cx="268.34" cy="-440.45" rx="3.2" ry="3.2"/>
</g>
<!-- published_project_indicator_targets -->
<g id="node4" class="node">
<title>published_project_indicator_targets</title>
<g id="a_node4"><a xlink:href="../../tables/published_project_indicator_targets.html" xlink:title="published_project_indicator_targets" target="_top">
<polygon fill="#ffffff" stroke="transparent" points="286.5,-489 286.5,-547 543.5,-547 543.5,-489 286.5,-489"/>
<polygon fill="#f5f5f5" stroke="transparent" points="287,-525 287,-547 544,-547 544,-525 287,-525"/>
<polygon fill="none" stroke="black" points="287,-525 287,-547 544,-547 544,-525 287,-525"/>
<text text-anchor="start" x="292" y="-534.2" font-family="Helvetica,sans-Serif" font-weight="bold" font-size="11.00">published_project_indicator_targets</text>
<text text-anchor="start" x="505" y="-533.2" font-family="Helvetica,sans-Serif" font-size="11.00">[table]</text>
<polygon fill="none" stroke="black" points="287,-507 287,-525 544,-525 544,-507 287,-507"/>
<text text-anchor="start" x="290" y="-513.2" font-family="Helvetica,sans-Serif" font-size="11.00">...</text>
<polygon fill="#ffffff" stroke="transparent" points="287,-489 287,-507 413,-507 413,-489 287,-489"/>
<polygon fill="none" stroke="black" points="287,-489 287,-507 413,-507 413,-489 287,-489"/>
<text text-anchor="start" x="290" y="-495.2" font-family="Helvetica,sans-Serif" font-size="11.00">&lt; 2</text>
<polygon fill="#ffffff" stroke="transparent" points="413,-489 413,-507 478,-507 478,-489 413,-489"/>
<polygon fill="none" stroke="black" points="413,-489 413,-507 478,-507 478,-489 413,-489"/>
<text text-anchor="start" x="468" y="-495.2" font-family="Helvetica,sans-Serif" font-size="11.00"> &#160;</text>
<polygon fill="#ffffff" stroke="transparent" points="478,-489 478,-507 544,-507 544,-489 478,-489"/>
<polygon fill="none" stroke="black" points="478,-489 478,-507 544,-507 544,-489 478,-489"/>
<text text-anchor="start" x="534" y="-495.2" font-family="Helvetica,sans-Serif" font-size="11.00"> &#160;</text>
</a>
</g>
</g>
<!-- published_project_indicator_targets&#45;&gt;public.projects -->
<g id="edge3" class="edge">
<title>published_project_indicator_targets:w&#45;&gt;public.projects:e</title>
<path fill="none" stroke="black" d="M271.83,-513.23C258.45,-506.95 255.35,-491.15 239,-478 215.71,-459.27 216.38,-436 186.5,-436"/>
<polygon fill="black" stroke="black" points="278.15,-514.46 285.31,-519.53 282.07,-515.23 286,-516 286,-516 286,-516 282.07,-515.23 286.69,-512.47 278.15,-514.46 278.15,-514.46"/>
<ellipse fill="none" stroke="black" cx="275.01" cy="-513.85" rx="3.2" ry="3.2"/>
</g>
<!-- published_project_indicator_targets&#45;&gt;accelerator.project_indicators -->
<g id="edge4" class="edge">
<title>published_project_indicator_targets:w&#45;&gt;accelerator.project_indicators:e</title>
<path fill="none" stroke="black" d="M271.3,-516.01C260.77,-516.03 250.03,-516.06 239.38,-516.11"/>
<polygon fill="black" stroke="black" points="278,-516.01 286,-519.6 282,-516 286,-516 286,-516 286,-516 282,-516 286,-512.4 278,-516.01 278,-516.01"/>
<ellipse fill="none" stroke="black" cx="274.8" cy="-516.01" rx="3.2" ry="3.2"/>
</g>
<!-- published_report_achievements -->
<g id="node5" class="node">
<title>published_report_achievements</title>
<g id="a_node5"><a xlink:href="../../tables/published_report_achievements.html" xlink:title="published_report_achievements" target="_top">
<polygon fill="#ffffff" stroke="transparent" points="648.5,-195 648.5,-253 882.5,-253 882.5,-195 648.5,-195"/>
<polygon fill="#f5f5f5" stroke="transparent" points="648.5,-231 648.5,-253 882.5,-253 882.5,-231 648.5,-231"/>
<polygon fill="none" stroke="black" points="648.5,-231 648.5,-253 882.5,-253 882.5,-231 648.5,-231"/>
<text text-anchor="start" x="653.5" y="-240.2" font-family="Helvetica,sans-Serif" font-weight="bold" font-size="11.00">published_report_achievements</text>
<text text-anchor="start" x="843.5" y="-239.2" font-family="Helvetica,sans-Serif" font-size="11.00">[table]</text>
<polygon fill="none" stroke="black" points="648.5,-213 648.5,-231 882.5,-231 882.5,-213 648.5,-213"/>
<text text-anchor="start" x="651.5" y="-219.2" font-family="Helvetica,sans-Serif" font-size="11.00">...</text>
<polygon fill="#ffffff" stroke="transparent" points="648.5,-195 648.5,-213 763.5,-213 763.5,-195 648.5,-195"/>
<polygon fill="none" stroke="black" points="648.5,-195 648.5,-213 763.5,-213 763.5,-195 648.5,-195"/>
<text text-anchor="start" x="651.5" y="-201.2" font-family="Helvetica,sans-Serif" font-size="11.00">&lt; 1</text>
<polygon fill="#ffffff" stroke="transparent" points="763.5,-195 763.5,-213 822.5,-213 822.5,-195 763.5,-195"/>
<polygon fill="none" stroke="black" points="763.5,-195 763.5,-213 822.5,-213 822.5,-195 763.5,-195"/>
<text text-anchor="start" x="812.5" y="-201.2" font-family="Helvetica,sans-Serif" font-size="11.00"> &#160;</text>
<polygon fill="#ffffff" stroke="transparent" points="822.5,-195 822.5,-213 882.5,-213 882.5,-195 822.5,-195"/>
<polygon fill="none" stroke="black" points="822.5,-195 822.5,-213 882.5,-213 882.5,-195 822.5,-195"/>
<text text-anchor="start" x="872.5" y="-201.2" font-family="Helvetica,sans-Serif" font-size="11.00"> &#160;</text>
</a>
</g>
</g>
<!-- published_reports -->
<g id="node6" class="node">
<title>published_reports</title>
<g id="a_node6"><a xlink:href="../../tables/published_reports.html" xlink:title="published_reports" target="_top">
<polygon fill="#ffffff" stroke="transparent" points="339,-164 339,-310 491,-310 491,-164 339,-164"/>
<polygon fill="#f5f5f5" stroke="transparent" points="339,-288 339,-310 491,-310 491,-288 339,-288"/>
<polygon fill="none" stroke="black" points="339,-288 339,-310 491,-310 491,-288 339,-288"/>
<text text-anchor="start" x="344" y="-297.2" font-family="Helvetica,sans-Serif" font-weight="bold" font-size="11.00">published_reports</text>
<text text-anchor="start" x="452" y="-296.2" font-family="Helvetica,sans-Serif" font-size="11.00">[table]</text>
<polygon fill="none" stroke="black" points="339,-266 339,-288 491,-288 491,-266 339,-266"/>
<image xlink:href="../../images/primaryKeys.png" width="11px" height="12px" preserveAspectRatio="xMinYMin meet" x="344" y="-283"/>
<text text-anchor="start" x="360" y="-274.2" font-family="Helvetica,sans-Serif" font-size="11.00">report_id</text>
<polygon fill="#ffffff" stroke="transparent" points="339,-244 339,-266 491,-266 491,-244 339,-244"/>
<polygon fill="none" stroke="black" points="339,-244 339,-266 491,-266 491,-244 339,-244"/>
<image xlink:href="../../images/foreignKeys.png" width="11px" height="12px" preserveAspectRatio="xMinYMin meet" x="344" y="-261"/>
<text text-anchor="start" x="360" y="-252.2" font-family="Helvetica,sans-Serif" font-size="11.00">project_id</text>
<polygon fill="none" stroke="black" points="339,-222 339,-244 491,-244 491,-222 339,-222"/>
<image xlink:href="../../images/foreignKeys.png" width="11px" height="12px" preserveAspectRatio="xMinYMin meet" x="344" y="-239"/>
<text text-anchor="start" x="360" y="-230.2" font-family="Helvetica,sans-Serif" font-size="11.00">report_quarter_id</text>
<polygon fill="none" stroke="black" points="339,-200 339,-222 491,-222 491,-200 339,-200"/>
<image xlink:href="../../images/foreignKeys.png" width="11px" height="12px" preserveAspectRatio="xMinYMin meet" x="344" y="-217"/>
<text text-anchor="start" x="360" y="-208.2" font-family="Helvetica,sans-Serif" font-size="11.00">published_by</text>
<polygon fill="none" stroke="black" points="339,-182 339,-200 491,-200 491,-182 339,-182"/>
<text text-anchor="start" x="342" y="-188.2" font-family="Helvetica,sans-Serif" font-size="11.00">...</text>
<polygon fill="#ffffff" stroke="transparent" points="339,-164 339,-182 408,-182 408,-164 339,-164"/>
<polygon fill="none" stroke="black" points="339,-164 339,-182 408,-182 408,-164 339,-164"/>
<text text-anchor="start" x="342" y="-170.2" font-family="Helvetica,sans-Serif" font-size="11.00">&lt; 4</text>
<polygon fill="#ffffff" stroke="transparent" points="408,-164 408,-182 445,-182 445,-164 408,-164"/>
<polygon fill="none" stroke="black" points="408,-164 408,-182 445,-182 445,-164 408,-164"/>
<text text-anchor="start" x="435" y="-170.2" font-family="Helvetica,sans-Serif" font-size="11.00"> &#160;</text>
<polygon fill="#ffffff" stroke="transparent" points="445,-164 445,-182 491,-182 491,-164 445,-164"/>
<polygon fill="none" stroke="black" points="445,-164 445,-182 491,-182 491,-164 445,-164"/>
<text text-anchor="start" x="472" y="-170.2" font-family="Helvetica,sans-Serif" font-size="11.00">6 &gt;</text>
</a>
</g>
</g>
<!-- published_report_achievements&#45;&gt;published_reports -->
<g id="edge5" class="edge">
<title>published_report_achievements:w&#45;&gt;published_reports:e</title>
<path fill="none" stroke="black" d="M632.95,-222.78C572.63,-229.46 560.15,-277 492,-277"/>
<polygon fill="black" stroke="black" points="639.51,-222.43 647.69,-225.59 643.51,-222.21 647.5,-222 647.5,-222 647.5,-222 643.51,-222.21 647.31,-218.41 639.51,-222.43 639.51,-222.43"/>
<ellipse fill="none" stroke="black" cx="636.32" cy="-222.6" rx="3.2" ry="3.2"/>
</g>
<!-- published_reports&#45;&gt;public.projects -->
<g id="edge15" class="edge">
<title>published_reports:w&#45;&gt;public.projects:e</title>
<path fill="none" stroke="black" d="M323.5,-256.3C238.5,-272.58 286.18,-436 186.5,-436"/>
<polygon fill="black" stroke="black" points="330.03,-255.72 338.32,-258.59 334.02,-255.36 338,-255 338,-255 338,-255 334.02,-255.36 337.68,-251.41 330.03,-255.72 330.03,-255.72"/>
<ellipse fill="none" stroke="black" cx="326.84" cy="-256" rx="3.2" ry="3.2"/>
</g>
<!-- public.users -->
<g id="node13" class="node">
<title>public.users</title>
<g id="a_node13"><a xlink:href="../../../public/tables/users.html" xlink:title="public.users" target="_top">
<polygon fill="#ffffff" stroke="transparent" points="61.5,-127 61.5,-185 177.5,-185 177.5,-127 61.5,-127"/>
<polygon fill="#f5f5f5" stroke="transparent" points="61.5,-163 61.5,-185 177.5,-185 177.5,-163 61.5,-163"/>
<polygon fill="none" stroke="black" points="61.5,-163 61.5,-185 177.5,-185 177.5,-163 61.5,-163"/>
<text text-anchor="start" x="66.5" y="-172.2" font-family="Helvetica,sans-Serif" font-weight="bold" font-size="11.00">public.users</text>
<text text-anchor="start" x="138.5" y="-171.2" font-family="Helvetica,sans-Serif" font-size="11.00">[table]</text>
<polygon fill="none" stroke="black" points="61.5,-145 61.5,-163 177.5,-163 177.5,-145 61.5,-145"/>
<text text-anchor="start" x="64.5" y="-151.2" font-family="Helvetica,sans-Serif" font-size="11.00">...</text>
<polygon fill="#ffffff" stroke="transparent" points="61.5,-127 61.5,-145 94.5,-145 94.5,-127 61.5,-127"/>
<polygon fill="none" stroke="black" points="61.5,-127 61.5,-145 94.5,-145 94.5,-127 61.5,-127"/>
<text text-anchor="start" x="64.5" y="-133.2" font-family="Helvetica,sans-Serif" font-size="11.00"> &#160;</text>
<polygon fill="#ffffff" stroke="transparent" points="94.5,-127 94.5,-145 144.5,-145 144.5,-127 94.5,-127"/>
<polygon fill="none" stroke="black" points="94.5,-127 94.5,-145 144.5,-145 144.5,-127 94.5,-127"/>
<text text-anchor="start" x="107.5" y="-133.2" font-family="Helvetica,sans-Serif" font-size="11.00">0 rows</text>
<polygon fill="#ffffff" stroke="transparent" points="144.5,-127 144.5,-145 177.5,-145 177.5,-127 144.5,-127"/>
<polygon fill="none" stroke="black" points="144.5,-127 144.5,-145 177.5,-145 177.5,-127 144.5,-127"/>
<text text-anchor="start" x="158.5" y="-133.2" font-family="Helvetica,sans-Serif" font-size="11.00">6 &gt;</text>
</a>
</g>
</g>
<!-- published_reports&#45;&gt;public.users -->
<g id="edge16" class="edge">
<title>published_reports:w&#45;&gt;public.users:e</title>
<path fill="none" stroke="black" d="M323.45,-210.24C261.19,-203.47 248.63,-154 178.5,-154"/>
<polygon fill="black" stroke="black" points="330.01,-210.58 337.81,-214.6 334.01,-210.79 338,-211 338,-211 338,-211 334.01,-210.79 338.19,-207.4 330.01,-210.58 330.01,-210.58"/>
<ellipse fill="none" stroke="black" cx="326.82" cy="-210.41" rx="3.2" ry="3.2"/>
</g>
<!-- accelerator.reports -->
<g id="node14" class="node">
<title>accelerator.reports</title>
<g id="a_node14"><a xlink:href="../../../accelerator/tables/reports.html" xlink:title="accelerator.reports" target="_top">
<polygon fill="#ffffff" stroke="transparent" points="40,-285 40,-343 199,-343 199,-285 40,-285"/>
<polygon fill="#f5f5f5" stroke="transparent" points="40.5,-321 40.5,-343 199.5,-343 199.5,-321 40.5,-321"/>
<polygon fill="none" stroke="black" points="40.5,-321 40.5,-343 199.5,-343 199.5,-321 40.5,-321"/>
<text text-anchor="start" x="45.5" y="-330.2" font-family="Helvetica,sans-Serif" font-weight="bold" font-size="11.00">accelerator.reports</text>
<text text-anchor="start" x="160.5" y="-329.2" font-family="Helvetica,sans-Serif" font-size="11.00">[table]</text>
<polygon fill="none" stroke="black" points="40.5,-303 40.5,-321 199.5,-321 199.5,-303 40.5,-303"/>
<text text-anchor="start" x="43.5" y="-309.2" font-family="Helvetica,sans-Serif" font-size="11.00">...</text>
<polygon fill="#ffffff" stroke="transparent" points="40.5,-285 40.5,-303 95.5,-303 95.5,-285 40.5,-285"/>
<polygon fill="none" stroke="black" points="40.5,-285 40.5,-303 95.5,-303 95.5,-285 40.5,-285"/>
<text text-anchor="start" x="43.5" y="-291.2" font-family="Helvetica,sans-Serif" font-size="11.00"> &#160;</text>
<polygon fill="#ffffff" stroke="transparent" points="95.5,-285 95.5,-303 156.5,-303 156.5,-285 95.5,-285"/>
<polygon fill="none" stroke="black" points="95.5,-285 95.5,-303 156.5,-303 156.5,-285 95.5,-285"/>
<text text-anchor="start" x="119.5" y="-291.2" font-family="Helvetica,sans-Serif" font-size="11.00">0 rows</text>
<polygon fill="#ffffff" stroke="transparent" points="156.5,-285 156.5,-303 199.5,-303 199.5,-285 156.5,-285"/>
<polygon fill="none" stroke="black" points="156.5,-285 156.5,-303 199.5,-303 199.5,-285 156.5,-285"/>
<text text-anchor="start" x="180.5" y="-291.2" font-family="Helvetica,sans-Serif" font-size="11.00">1 &gt;</text>
</a>
</g>
</g>
<!-- published_reports&#45;&gt;accelerator.reports -->
<g id="edge17" class="edge">
<title>published_reports:w&#45;&gt;accelerator.reports:e</title>
<path fill="none" stroke="black" d="M327.43,-277.35C273.43,-280.98 259.86,-312 200.5,-312"/>
<polygon fill="black" stroke="black" points="337.07,-273.03 337.33,-281.02 335.73,-281.08 335.47,-273.08 337.07,-273.03"/>
<polyline fill="none" stroke="black" points="338,-277 334,-277.13 "/>
<ellipse fill="none" stroke="black" cx="330.8" cy="-277.24" rx="3.2" ry="3.2"/>
</g>
<!-- accelerator.report_quarters -->
<g id="node15" class="node">
<title>accelerator.report_quarters</title>
<g id="a_node15"><a xlink:href="../../../accelerator/tables/report_quarters.html" xlink:title="accelerator.report_quarters" target="_top">
<polygon fill="#ffffff" stroke="transparent" points="14.5,-206 14.5,-264 224.5,-264 224.5,-206 14.5,-206"/>
<polygon fill="#f5f5f5" stroke="transparent" points="14.5,-242 14.5,-264 224.5,-264 224.5,-242 14.5,-242"/>
<polygon fill="none" stroke="black" points="14.5,-242 14.5,-264 224.5,-264 224.5,-242 14.5,-242"/>
<text text-anchor="start" x="19.5" y="-251.2" font-family="Helvetica,sans-Serif" font-weight="bold" font-size="11.00">accelerator.report_quarters</text>
<text text-anchor="start" x="185.5" y="-250.2" font-family="Helvetica,sans-Serif" font-size="11.00">[table]</text>
<polygon fill="none" stroke="black" points="14.5,-224 14.5,-242 224.5,-242 224.5,-224 14.5,-224"/>
<text text-anchor="start" x="17.5" y="-230.2" font-family="Helvetica,sans-Serif" font-size="11.00">...</text>
<polygon fill="#ffffff" stroke="transparent" points="14.5,-206 14.5,-224 94.5,-224 94.5,-206 14.5,-206"/>
<polygon fill="none" stroke="black" points="14.5,-206 14.5,-224 94.5,-224 94.5,-206 14.5,-206"/>
<text text-anchor="start" x="17.5" y="-212.2" font-family="Helvetica,sans-Serif" font-size="11.00"> &#160;</text>
<polygon fill="#ffffff" stroke="transparent" points="94.5,-206 94.5,-224 168.5,-224 168.5,-206 94.5,-206"/>
<polygon fill="none" stroke="black" points="94.5,-206 94.5,-224 168.5,-224 168.5,-206 94.5,-206"/>
<text text-anchor="start" x="131.5" y="-212.2" font-family="Helvetica,sans-Serif" font-size="11.00">0 rows</text>
<polygon fill="#ffffff" stroke="transparent" points="168.5,-206 168.5,-224 224.5,-224 224.5,-206 168.5,-206"/>
<polygon fill="none" stroke="black" points="168.5,-206 168.5,-224 224.5,-224 224.5,-206 168.5,-206"/>
<text text-anchor="start" x="205.5" y="-212.2" font-family="Helvetica,sans-Serif" font-size="11.00">1 &gt;</text>
</a>
</g>
</g>
<!-- published_reports&#45;&gt;accelerator.report_quarters -->
<g id="edge18" class="edge">
<title>published_reports:w&#45;&gt;accelerator.report_quarters:e</title>
<path fill="none" stroke="black" d="M323.59,-233C285.01,-233 270.32,-233 225.5,-233"/>
<polygon fill="black" stroke="black" points="330,-233 338,-236.6 334,-233 338,-233 338,-233 338,-233 334,-233 338,-229.4 330,-233 330,-233"/>
<ellipse fill="none" stroke="black" cx="326.8" cy="-233" rx="3.2" ry="3.2"/>
</g>
<!-- published_report_auto_calculated_indicators -->
<g id="node7" class="node">
<title>published_report_auto_calculated_indicators</title>
<g id="a_node7"><a xlink:href="../../tables/published_report_auto_calculate_964cdeaf.html" xlink:title="published_report_auto_calculated_indicators" target="_top">
<polygon fill="#ffffff" stroke="transparent" points="610.5,-274 610.5,-332 920.5,-332 920.5,-274 610.5,-274"/>
<polygon fill="#f5f5f5" stroke="transparent" points="610.5,-310 610.5,-332 920.5,-332 920.5,-310 610.5,-310"/>
<polygon fill="none" stroke="black" points="610.5,-310 610.5,-332 920.5,-332 920.5,-310 610.5,-310"/>
<text text-anchor="start" x="615.5" y="-319.2" font-family="Helvetica,sans-Serif" font-weight="bold" font-size="11.00">published_report_auto_calculated_indicators</text>
<text text-anchor="start" x="881.5" y="-318.2" font-family="Helvetica,sans-Serif" font-size="11.00">[table]</text>
<polygon fill="none" stroke="black" points="610.5,-292 610.5,-310 920.5,-310 920.5,-292 610.5,-292"/>
<text text-anchor="start" x="613.5" y="-298.2" font-family="Helvetica,sans-Serif" font-size="11.00">...</text>
<polygon fill="#ffffff" stroke="transparent" points="610.5,-274 610.5,-292 763.5,-292 763.5,-274 610.5,-274"/>
<polygon fill="none" stroke="black" points="610.5,-274 610.5,-292 763.5,-292 763.5,-274 610.5,-274"/>
<text text-anchor="start" x="613.5" y="-280.2" font-family="Helvetica,sans-Serif" font-size="11.00">&lt; 3</text>
<polygon fill="#ffffff" stroke="transparent" points="763.5,-274 763.5,-292 841.5,-292 841.5,-274 763.5,-274"/>
<polygon fill="none" stroke="black" points="763.5,-274 763.5,-292 841.5,-292 841.5,-274 763.5,-274"/>
<text text-anchor="start" x="831.5" y="-280.2" font-family="Helvetica,sans-Serif" font-size="11.00"> &#160;</text>
<polygon fill="#ffffff" stroke="transparent" points="841.5,-274 841.5,-292 920.5,-292 920.5,-274 841.5,-274"/>
<polygon fill="none" stroke="black" points="841.5,-274 841.5,-292 920.5,-292 920.5,-274 841.5,-274"/>
<text text-anchor="start" x="910.5" y="-280.2" font-family="Helvetica,sans-Serif" font-size="11.00"> &#160;</text>
</a>
</g>
</g>
<!-- published_report_auto_calculated_indicators&#45;&gt;published_reports -->
<g id="edge6" class="edge">
<title>published_report_auto_calculated_indicators:w&#45;&gt;published_reports:e</title>
<path fill="none" stroke="black" d="M595.02,-300.36C553.67,-296.54 540.1,-277 492,-277"/>
<polygon fill="black" stroke="black" points="601.51,-300.65 609.34,-304.6 605.5,-300.82 609.5,-301 609.5,-301 609.5,-301 605.5,-300.82 609.66,-297.4 601.51,-300.65 601.51,-300.65"/>
<ellipse fill="none" stroke="black" cx="598.31" cy="-300.5" rx="3.2" ry="3.2"/>
</g>
<!-- accelerator.report_indicator_statuses -->
<g id="node8" class="node">
<title>accelerator.report_indicator_statuses</title>
<g id="a_node8"><a xlink:href="../../../accelerator/tables/report_indicator_statuses.html" xlink:title="accelerator.report_indicator_statuses" target="_top">
<polygon fill="#ffffff" stroke="transparent" points="281,-331 281,-389 549,-389 549,-331 281,-331"/>
<polygon fill="#f5f5f5" stroke="transparent" points="281,-367 281,-389 549,-389 549,-367 281,-367"/>
<polygon fill="none" stroke="black" points="281,-367 281,-389 549,-389 549,-367 281,-367"/>
<text text-anchor="start" x="286" y="-376.2" font-family="Helvetica,sans-Serif" font-weight="bold" font-size="11.00">accelerator.report_indicator_statuses</text>
<text text-anchor="start" x="510" y="-375.2" font-family="Helvetica,sans-Serif" font-size="11.00">[table]</text>
<polygon fill="none" stroke="black" points="281,-349 281,-367 549,-367 549,-349 281,-349"/>
<text text-anchor="start" x="284" y="-355.2" font-family="Helvetica,sans-Serif" font-size="11.00">...</text>
<polygon fill="#ffffff" stroke="transparent" points="281,-331 281,-349 390,-349 390,-331 281,-331"/>
<polygon fill="none" stroke="black" points="281,-331 281,-349 390,-349 390,-331 281,-331"/>
<text text-anchor="start" x="284" y="-337.2" font-family="Helvetica,sans-Serif" font-size="11.00"> &#160;</text>
<polygon fill="#ffffff" stroke="transparent" points="390,-331 390,-349 478,-349 478,-331 390,-331"/>
<polygon fill="none" stroke="black" points="390,-331 390,-349 478,-349 478,-331 390,-331"/>
<text text-anchor="start" x="441" y="-337.2" font-family="Helvetica,sans-Serif" font-size="11.00">0 rows</text>
<polygon fill="#ffffff" stroke="transparent" points="478,-331 478,-349 549,-349 549,-331 478,-331"/>
<polygon fill="none" stroke="black" points="478,-331 478,-349 549,-349 549,-331 478,-331"/>
<text text-anchor="start" x="530" y="-337.2" font-family="Helvetica,sans-Serif" font-size="11.00">3 &gt;</text>
</a>
</g>
</g>
<!-- published_report_auto_calculated_indicators&#45;&gt;accelerator.report_indicator_statuses -->
<g id="edge7" class="edge">
<title>published_report_auto_calculated_indicators:w&#45;&gt;accelerator.report_indicator_statuses:e</title>
<path fill="none" stroke="black" d="M595.16,-302.81C582.16,-306.51 575.85,-315.1 558,-321 551.93,-323.01 545.69,-324.99 539.38,-326.94"/>
<polygon fill="black" stroke="black" points="601.56,-302 609.95,-304.57 605.53,-301.5 609.5,-301 609.5,-301 609.5,-301 605.53,-301.5 609.05,-297.43 601.56,-302 601.56,-302"/>
<ellipse fill="none" stroke="black" cx="598.39" cy="-302.4" rx="3.2" ry="3.2"/>
</g>
<!-- published_report_challenges -->
<g id="node9" class="node">
<title>published_report_challenges</title>
<g id="a_node9"><a xlink:href="../../tables/published_report_challenges.html" xlink:title="published_report_challenges" target="_top">
<polygon fill="#ffffff" stroke="transparent" points="658.5,-116 658.5,-174 872.5,-174 872.5,-116 658.5,-116"/>
<polygon fill="#f5f5f5" stroke="transparent" points="658.5,-152 658.5,-174 872.5,-174 872.5,-152 658.5,-152"/>
<polygon fill="none" stroke="black" points="658.5,-152 658.5,-174 872.5,-174 872.5,-152 658.5,-152"/>
<text text-anchor="start" x="663.5" y="-161.2" font-family="Helvetica,sans-Serif" font-weight="bold" font-size="11.00">published_report_challenges</text>
<text text-anchor="start" x="833.5" y="-160.2" font-family="Helvetica,sans-Serif" font-size="11.00">[table]</text>
<polygon fill="none" stroke="black" points="658.5,-134 658.5,-152 872.5,-152 872.5,-134 658.5,-134"/>
<text text-anchor="start" x="661.5" y="-140.2" font-family="Helvetica,sans-Serif" font-size="11.00">...</text>
<polygon fill="#ffffff" stroke="transparent" points="658.5,-116 658.5,-134 763.5,-134 763.5,-116 658.5,-116"/>
<polygon fill="none" stroke="black" points="658.5,-116 658.5,-134 763.5,-134 763.5,-116 658.5,-116"/>
<text text-anchor="start" x="661.5" y="-122.2" font-family="Helvetica,sans-Serif" font-size="11.00">&lt; 1</text>
<polygon fill="#ffffff" stroke="transparent" points="763.5,-116 763.5,-134 817.5,-134 817.5,-116 763.5,-116"/>
<polygon fill="none" stroke="black" points="763.5,-116 763.5,-134 817.5,-134 817.5,-116 763.5,-116"/>
<text text-anchor="start" x="807.5" y="-122.2" font-family="Helvetica,sans-Serif" font-size="11.00"> &#160;</text>
<polygon fill="#ffffff" stroke="transparent" points="817.5,-116 817.5,-134 872.5,-134 872.5,-116 817.5,-116"/>
<polygon fill="none" stroke="black" points="817.5,-116 817.5,-134 872.5,-134 872.5,-116 817.5,-116"/>
<text text-anchor="start" x="862.5" y="-122.2" font-family="Helvetica,sans-Serif" font-size="11.00"> &#160;</text>
</a>
</g>
</g>
<!-- published_report_challenges&#45;&gt;published_reports -->
<g id="edge8" class="edge">
<title>published_report_challenges:w&#45;&gt;published_reports:e</title>
<path fill="none" stroke="black" d="M643,-144.16C565.1,-157.26 581.47,-277 492,-277"/>
<polygon fill="black" stroke="black" points="649.53,-143.64 657.79,-146.59 653.51,-143.32 657.5,-143 657.5,-143 657.5,-143 653.51,-143.32 657.21,-139.41 649.53,-143.64 649.53,-143.64"/>
<ellipse fill="none" stroke="black" cx="646.34" cy="-143.89" rx="3.2" ry="3.2"/>
</g>
<!-- published_report_common_indicators -->
<g id="node10" class="node">
<title>published_report_common_indicators</title>
<g id="a_node10"><a xlink:href="../../tables/published_report_common_indicators.html" xlink:title="published_report_common_indicators" target="_top">
<polygon fill="#ffffff" stroke="transparent" points="631.5,-353 631.5,-411 899.5,-411 899.5,-353 631.5,-353"/>
<polygon fill="#f5f5f5" stroke="transparent" points="631.5,-389 631.5,-411 899.5,-411 899.5,-389 631.5,-389"/>
<polygon fill="none" stroke="black" points="631.5,-389 631.5,-411 899.5,-411 899.5,-389 631.5,-389"/>
<text text-anchor="start" x="636.5" y="-398.2" font-family="Helvetica,sans-Serif" font-weight="bold" font-size="11.00">published_report_common_indicators</text>
<text text-anchor="start" x="860.5" y="-397.2" font-family="Helvetica,sans-Serif" font-size="11.00">[table]</text>
<polygon fill="none" stroke="black" points="631.5,-371 631.5,-389 899.5,-389 899.5,-371 631.5,-371"/>
<text text-anchor="start" x="634.5" y="-377.2" font-family="Helvetica,sans-Serif" font-size="11.00">...</text>
<polygon fill="#ffffff" stroke="transparent" points="631.5,-353 631.5,-371 763.5,-371 763.5,-353 631.5,-353"/>
<polygon fill="none" stroke="black" points="631.5,-353 631.5,-371 763.5,-371 763.5,-353 631.5,-353"/>
<text text-anchor="start" x="634.5" y="-359.2" font-family="Helvetica,sans-Serif" font-size="11.00">&lt; 3</text>
<polygon fill="#ffffff" stroke="transparent" points="763.5,-353 763.5,-371 831.5,-371 831.5,-353 763.5,-353"/>
<polygon fill="none" stroke="black" points="763.5,-353 763.5,-371 831.5,-371 831.5,-353 763.5,-353"/>
<text text-anchor="start" x="821.5" y="-359.2" font-family="Helvetica,sans-Serif" font-size="11.00"> &#160;</text>
<polygon fill="#ffffff" stroke="transparent" points="831.5,-353 831.5,-371 899.5,-371 899.5,-353 831.5,-353"/>
<polygon fill="none" stroke="black" points="831.5,-353 831.5,-371 899.5,-371 899.5,-353 831.5,-353"/>
<text text-anchor="start" x="889.5" y="-359.2" font-family="Helvetica,sans-Serif" font-size="11.00"> &#160;</text>
</a>
</g>
</g>
<!-- published_report_common_indicators&#45;&gt;published_reports -->
<g id="edge9" class="edge">
<title>published_report_common_indicators:w&#45;&gt;published_reports:e</title>
<path fill="none" stroke="black" d="M616.09,-378.29C588.98,-371.05 586.99,-342.39 558,-321 529.63,-300.07 527.25,-277 492,-277"/>
<polygon fill="black" stroke="black" points="622.56,-379.06 630.07,-383.57 626.53,-379.53 630.5,-380 630.5,-380 630.5,-380 626.53,-379.53 630.93,-376.43 622.56,-379.06 622.56,-379.06"/>
<ellipse fill="none" stroke="black" cx="619.38" cy="-378.68" rx="3.2" ry="3.2"/>
</g>
<!-- published_report_common_indicators&#45;&gt;accelerator.report_indicator_statuses -->
<g id="edge10" class="edge">
<title>published_report_common_indicators:w&#45;&gt;accelerator.report_indicator_statuses:e</title>
<path fill="none" stroke="black" d="M615.87,-379.85C596.56,-379.47 576.63,-378.39 557.17,-376.92"/>
<polygon fill="black" stroke="black" points="622.5,-379.92 630.46,-383.6 626.5,-379.96 630.5,-380 630.5,-380 630.5,-380 626.5,-379.96 630.54,-376.4 622.5,-379.92 622.5,-379.92"/>
<ellipse fill="none" stroke="black" cx="619.3" cy="-379.89" rx="3.2" ry="3.2"/>
</g>
<!-- published_report_photos -->
<g id="node11" class="node">
<title>published_report_photos</title>
<g id="a_node11"><a xlink:href="../../tables/published_report_photos.html" xlink:title="published_report_photos" target="_top">
<polygon fill="#ffffff" stroke="transparent" points="669.5,-37 669.5,-95 861.5,-95 861.5,-37 669.5,-37"/>
<polygon fill="#f5f5f5" stroke="transparent" points="669.5,-73 669.5,-95 861.5,-95 861.5,-73 669.5,-73"/>
<polygon fill="none" stroke="black" points="669.5,-73 669.5,-95 861.5,-95 861.5,-73 669.5,-73"/>
<text text-anchor="start" x="674.5" y="-82.2" font-family="Helvetica,sans-Serif" font-weight="bold" font-size="11.00">published_report_photos</text>
<text text-anchor="start" x="822.5" y="-81.2" font-family="Helvetica,sans-Serif" font-size="11.00">[table]</text>
<polygon fill="none" stroke="black" points="669.5,-55 669.5,-73 861.5,-73 861.5,-55 669.5,-55"/>
<text text-anchor="start" x="672.5" y="-61.2" font-family="Helvetica,sans-Serif" font-size="11.00">...</text>
<polygon fill="#ffffff" stroke="transparent" points="669.5,-37 669.5,-55 763.5,-55 763.5,-37 669.5,-37"/>
<polygon fill="none" stroke="black" points="669.5,-37 669.5,-55 763.5,-55 763.5,-37 669.5,-37"/>
<text text-anchor="start" x="672.5" y="-43.2" font-family="Helvetica,sans-Serif" font-size="11.00">&lt; 4</text>
<polygon fill="#ffffff" stroke="transparent" points="763.5,-37 763.5,-55 812.5,-55 812.5,-37 763.5,-37"/>
<polygon fill="none" stroke="black" points="763.5,-37 763.5,-55 812.5,-55 812.5,-37 763.5,-37"/>
<text text-anchor="start" x="802.5" y="-43.2" font-family="Helvetica,sans-Serif" font-size="11.00"> &#160;</text>
<polygon fill="#ffffff" stroke="transparent" points="812.5,-37 812.5,-55 861.5,-55 861.5,-37 812.5,-37"/>
<polygon fill="none" stroke="black" points="812.5,-37 812.5,-55 861.5,-55 861.5,-37 812.5,-37"/>
<text text-anchor="start" x="851.5" y="-43.2" font-family="Helvetica,sans-Serif" font-size="11.00"> &#160;</text>
</a>
</g>
</g>
<!-- published_report_photos&#45;&gt;published_reports -->
<g id="edge11" class="edge">
<title>published_report_photos:w&#45;&gt;published_reports:e</title>
<path fill="none" stroke="black" d="M653.93,-64.82C626.19,-68.25 615.25,-82.42 591,-106 528.04,-167.22 579.82,-277 492,-277"/>
<polygon fill="black" stroke="black" points="660.51,-64.45 668.7,-67.59 664.51,-64.22 668.5,-64 668.5,-64 668.5,-64 664.51,-64.22 668.3,-60.41 660.51,-64.45 660.51,-64.45"/>
<ellipse fill="none" stroke="black" cx="657.32" cy="-64.63" rx="3.2" ry="3.2"/>
</g>
<!-- published_report_project_indicators -->
<g id="node12" class="node">
<title>published_report_project_indicators</title>
<g id="a_node12"><a xlink:href="../../tables/published_report_project_indicators.html" xlink:title="published_report_project_indicators" target="_top">
<polygon fill="#ffffff" stroke="transparent" points="599,-432 599,-608 932,-608 932,-432 599,-432"/>
<polygon fill="#f5f5f5" stroke="transparent" points="601.5,-584 601.5,-606 930.5,-606 930.5,-584 601.5,-584"/>
<polygon fill="none" stroke="black" points="601.5,-584 601.5,-606 930.5,-606 930.5,-584 601.5,-584"/>
<text text-anchor="start" x="606.5" y="-593.2" font-family="Helvetica,sans-Serif" font-weight="bold" font-size="11.00">published_report_project_indicators</text>
<text text-anchor="start" x="891.5" y="-592.2" font-family="Helvetica,sans-Serif" font-size="11.00">[table]</text>
<polygon fill="none" stroke="black" points="601.5,-562 601.5,-584 836.5,-584 836.5,-562 601.5,-562"/>
<image xlink:href="../../images/primaryKeys.png" width="11px" height="12px" preserveAspectRatio="xMinYMin meet" x="606.5" y="-579"/>
<text text-anchor="start" x="621.5" y="-570.2" font-family="Helvetica,sans-Serif" font-size="11.00">report_id</text>
<polygon fill="none" stroke="black" points="836.5,-562 836.5,-584 930.5,-584 930.5,-562 836.5,-562"/>
<text text-anchor="start" x="839.5" y="-570.2" font-family="Helvetica,sans-Serif" font-size="11.00">int8[19]</text>
<polygon fill="none" stroke="black" points="601.5,-540 601.5,-562 836.5,-562 836.5,-540 601.5,-540"/>
<image xlink:href="../../images/primaryKeys.png" width="11px" height="12px" preserveAspectRatio="xMinYMin meet" x="606.5" y="-557"/>
<text text-anchor="start" x="621.5" y="-548.2" font-family="Helvetica,sans-Serif" font-size="11.00">project_indicator_id</text>
<polygon fill="none" stroke="black" points="836.5,-540 836.5,-562 930.5,-562 930.5,-540 836.5,-540"/>
<text text-anchor="start" x="839.5" y="-548.2" font-family="Helvetica,sans-Serif" font-size="11.00">int8[19]</text>
<polygon fill="none" stroke="black" points="601.5,-518 601.5,-540 836.5,-540 836.5,-518 601.5,-518"/>
<text text-anchor="start" x="621.5" y="-526.2" font-family="Helvetica,sans-Serif" font-size="11.00">value</text>
<polygon fill="none" stroke="black" points="836.5,-518 836.5,-540 930.5,-540 930.5,-518 836.5,-518"/>
<text text-anchor="start" x="839.5" y="-526.2" font-family="Helvetica,sans-Serif" font-size="11.00">numeric[0]</text>
<polygon fill="none" stroke="black" points="601.5,-496 601.5,-518 836.5,-518 836.5,-496 601.5,-496"/>
<text text-anchor="start" x="621.5" y="-504.2" font-family="Helvetica,sans-Serif" font-size="11.00">projects_comments</text>
<polygon fill="none" stroke="black" points="836.5,-496 836.5,-518 930.5,-518 930.5,-496 836.5,-496"/>
<text text-anchor="start" x="839.5" y="-504.2" font-family="Helvetica,sans-Serif" font-size="11.00">text[2147483647]</text>
<polygon fill="none" stroke="black" points="601.5,-474 601.5,-496 836.5,-496 836.5,-474 601.5,-474"/>
<image xlink:href="../../images/foreignKeys.png" width="11px" height="12px" preserveAspectRatio="xMinYMin meet" x="606.5" y="-491"/>
<text text-anchor="start" x="621.5" y="-482.2" font-family="Helvetica,sans-Serif" font-size="11.00">status_id</text>
<polygon fill="none" stroke="black" points="836.5,-474 836.5,-496 930.5,-496 930.5,-474 836.5,-474"/>
<text text-anchor="start" x="839.5" y="-482.2" font-family="Helvetica,sans-Serif" font-size="11.00">int4[10]</text>
<polygon fill="none" stroke="black" points="601.5,-452 601.5,-474 836.5,-474 836.5,-452 601.5,-452"/>
<text text-anchor="start" x="621.5" y="-460.2" font-family="Helvetica,sans-Serif" font-size="11.00">progress_notes</text>
<polygon fill="none" stroke="black" points="836.5,-452 836.5,-474 930.5,-474 930.5,-452 836.5,-452"/>
<text text-anchor="start" x="839.5" y="-460.2" font-family="Helvetica,sans-Serif" font-size="11.00">text[2147483647]</text>
<polygon fill="#ffffff" stroke="transparent" points="601.5,-434 601.5,-452 723.5,-452 723.5,-434 601.5,-434"/>
<polygon fill="none" stroke="black" points="601.5,-434 601.5,-452 723.5,-452 723.5,-434 601.5,-434"/>
<text text-anchor="start" x="604.5" y="-440.2" font-family="Helvetica,sans-Serif" font-size="11.00">&lt; 3</text>
<polygon fill="#ffffff" stroke="transparent" points="723.5,-434 723.5,-452 836.5,-452 836.5,-434 723.5,-434"/>
<polygon fill="none" stroke="black" points="723.5,-434 723.5,-452 836.5,-452 836.5,-434 723.5,-434"/>
<text text-anchor="start" x="826.5" y="-440.2" font-family="Helvetica,sans-Serif" font-size="11.00"> &#160;</text>
<polygon fill="#ffffff" stroke="transparent" points="836.5,-434 836.5,-452 930.5,-452 930.5,-434 836.5,-434"/>
<polygon fill="none" stroke="black" points="836.5,-434 836.5,-452 930.5,-452 930.5,-434 836.5,-434"/>
<text text-anchor="start" x="911.5" y="-440.2" font-family="Helvetica,sans-Serif" font-size="11.00">0 &gt;</text>
<polygon fill="none" stroke="black" stroke-width="2" points="600,-433 600,-607 931,-607 931,-433 600,-433"/>
</a>
</g>
</g>
<!-- published_report_project_indicators&#45;&gt;accelerator.project_indicators -->
<g id="edge12" class="edge">
<title>published_report_project_indicators:w&#45;&gt;accelerator.project_indicators:e</title>
<path fill="none" stroke="black" d="M586,-552.31C577.24,-554.02 571.12,-556.93 558,-558 431.31,-568.36 398,-574.75 272,-558 257.95,-556.13 243.36,-553.33 229.03,-550.06"/>
<polygon fill="black" stroke="black" points="592.53,-551.72 600.82,-554.59 596.52,-551.36 600.5,-551 600.5,-551 600.5,-551 596.52,-551.36 600.18,-547.41 592.53,-551.72 592.53,-551.72"/>
<ellipse fill="none" stroke="black" cx="589.35" cy="-552.01" rx="3.2" ry="3.2"/>
</g>
<!-- published_report_project_indicators&#45;&gt;published_reports -->
<g id="edge13" class="edge">
<title>published_report_project_indicators:w&#45;&gt;published_reports:e</title>
<path fill="none" stroke="black" d="M586.61,-567.49C551.81,-534.58 585.87,-364.01 558,-321 538.83,-291.41 527.25,-277 492,-277"/>
<polygon fill="black" stroke="black" points="593.06,-570.05 599.17,-576.35 596.78,-571.52 600.5,-573 600.5,-573 600.5,-573 596.78,-571.52 601.83,-569.65 593.06,-570.05 593.06,-570.05"/>
<ellipse fill="none" stroke="black" cx="590.09" cy="-568.87" rx="3.2" ry="3.2"/>
</g>
<!-- published_report_project_indicators&#45;&gt;accelerator.report_indicator_statuses -->
<g id="edge14" class="edge">
<title>published_report_project_indicators:w&#45;&gt;accelerator.report_indicator_statuses:e</title>
<path fill="none" stroke="black" d="M586.44,-481.63C566.24,-468.86 585.85,-423.02 558,-400 555.04,-397.55 551.94,-395.25 548.72,-393.1"/>
<polygon fill="black" stroke="black" points="592.72,-483.14 599.66,-488.5 596.61,-484.07 600.5,-485 600.5,-485 600.5,-485 596.61,-484.07 601.34,-481.5 592.72,-483.14 592.72,-483.14"/>
<ellipse fill="none" stroke="black" cx="589.61" cy="-482.39" rx="3.2" ry="3.2"/>
</g>
</g>
</svg>
