<?xml version="1.0" encoding="UTF-8" standalone="no"?>
<!DOCTYPE svg PUBLIC "-//W3C//DTD SVG 1.1//EN"
 "http://www.w3.org/Graphics/SVG/1.1/DTD/svg11.dtd">
<!-- Generated by graphviz version 2.47.1 (20210515.0534)
 -->
<!-- Title: oneDegreeRelationshipsDiagram Pages: 1 -->
<svg width="623pt" height="296pt"
 viewBox="0.00 0.00 623.00 296.00" xmlns="http://www.w3.org/2000/svg" xmlns:xlink="http://www.w3.org/1999/xlink">
<g id="graph0" class="graph" transform="scale(1 1) rotate(0) translate(4 292)">
<title>oneDegreeRelationshipsDiagram</title>
<polygon fill="#ffffff" stroke="transparent" points="-4,4 -4,-292 619,-292 619,4 -4,4"/>
<text text-anchor="middle" x="73.5" y="-7.2" font-family="Helvetica,sans-Serif" font-size="11.00">Generated by SchemaSpy</text>
<!-- published_report_standard_metrics -->
<g id="node1" class="node">
<title>published_report_standard_metrics</title>
<g id="a_node1"><a xlink:href="../../tables/published_report_standard_metrics.html" xlink:title="published_report_standard_metrics" target="_top">
<polygon fill="#ffffff" stroke="transparent" points="277,-50 277,-204 607,-204 607,-50 277,-50"/>
<polygon fill="#f5f5f5" stroke="transparent" points="279,-180 279,-202 605,-202 605,-180 279,-180"/>
<polygon fill="none" stroke="black" points="279,-180 279,-202 605,-202 605,-180 279,-180"/>
<text text-anchor="start" x="284" y="-189.2" font-family="Helvetica,sans-Serif" font-weight="bold" font-size="11.00">published_report_standard_metrics</text>
<text text-anchor="start" x="566" y="-188.2" font-family="Helvetica,sans-Serif" font-size="11.00">[table]</text>
<polygon fill="none" stroke="black" points="279,-158 279,-180 511,-180 511,-158 279,-158"/>
<image xlink:href="../../images/primaryKeys.png" width="11px" height="12px" preserveAspectRatio="xMinYMin meet" x="284" y="-175"/>
<text text-anchor="start" x="299" y="-166.2" font-family="Helvetica,sans-Serif" font-size="11.00">report_id</text>
<polygon fill="none" stroke="black" points="511,-158 511,-180 605,-180 605,-158 511,-158"/>
<text text-anchor="start" x="514" y="-166.2" font-family="Helvetica,sans-Serif" font-size="11.00">int8[19]</text>
<polygon fill="none" stroke="black" points="279,-136 279,-158 511,-158 511,-136 279,-136"/>
<image xlink:href="../../images/primaryKeys.png" width="11px" height="12px" preserveAspectRatio="xMinYMin meet" x="284" y="-153"/>
<text text-anchor="start" x="299" y="-144.2" font-family="Helvetica,sans-Serif" font-size="11.00">standard_metric_id</text>
<polygon fill="none" stroke="black" points="511,-136 511,-158 605,-158 605,-136 511,-136"/>
<text text-anchor="start" x="514" y="-144.2" font-family="Helvetica,sans-Serif" font-size="11.00">int8[19]</text>
<polygon fill="none" stroke="black" points="279,-114 279,-136 511,-136 511,-114 279,-114"/>
<text text-anchor="start" x="299" y="-122.2" font-family="Helvetica,sans-Serif" font-size="11.00">target</text>
<polygon fill="none" stroke="black" points="511,-114 511,-136 605,-136 605,-114 511,-114"/>
<text text-anchor="start" x="514" y="-122.2" font-family="Helvetica,sans-Serif" font-size="11.00">int4[10]</text>
<polygon fill="none" stroke="black" points="279,-92 279,-114 511,-114 511,-92 279,-92"/>
<text text-anchor="start" x="299" y="-100.2" font-family="Helvetica,sans-Serif" font-size="11.00">value</text>
<polygon fill="none" stroke="black" points="511,-92 511,-114 605,-114 605,-92 511,-92"/>
<text text-anchor="start" x="514" y="-100.2" font-family="Helvetica,sans-Serif" font-size="11.00">int4[10]</text>
<polygon fill="none" stroke="black" points="279,-70 279,-92 511,-92 511,-70 279,-70"/>
<text text-anchor="start" x="299" y="-78.2" font-family="Helvetica,sans-Serif" font-size="11.00">underperformance_justification</text>
<polygon fill="none" stroke="black" points="511,-70 511,-92 605,-92 605,-70 511,-70"/>
<text text-anchor="start" x="514" y="-78.2" font-family="Helvetica,sans-Serif" font-size="11.00">text[2147483647]</text>
<polygon fill="#ffffff" stroke="transparent" points="279,-52 279,-70 399,-70 399,-52 279,-52"/>
<polygon fill="none" stroke="black" points="279,-52 279,-70 399,-70 399,-52 279,-52"/>
<text text-anchor="start" x="282" y="-58.2" font-family="Helvetica,sans-Serif" font-size="11.00">&lt; 2</text>
<polygon fill="#ffffff" stroke="transparent" points="399,-52 399,-70 511,-70 511,-52 399,-52"/>
<polygon fill="none" stroke="black" points="399,-52 399,-70 511,-70 511,-52 399,-52"/>
<text text-anchor="start" x="501" y="-58.2" font-family="Helvetica,sans-Serif" font-size="11.00"> &#160;</text>
<polygon fill="#ffffff" stroke="transparent" points="511,-52 511,-70 605,-70 605,-52 511,-52"/>
<polygon fill="none" stroke="black" points="511,-52 511,-70 605,-70 605,-52 511,-52"/>
<text text-anchor="start" x="586" y="-58.2" font-family="Helvetica,sans-Serif" font-size="11.00">0 &gt;</text>
<polygon fill="none" stroke="black" stroke-width="2" points="278,-51 278,-203 606,-203 606,-51 278,-51"/>
</a>
</g>
</g>
<!-- published_reports -->
<g id="node2" class="node">
<title>published_reports</title>
<g id="a_node2"><a xlink:href="../../tables/published_reports.html" xlink:title="published_reports" target="_top">
<polygon fill="#ffffff" stroke="transparent" points="42,-116 42,-284 194,-284 194,-116 42,-116"/>
<polygon fill="#f5f5f5" stroke="transparent" points="42,-262 42,-284 194,-284 194,-262 42,-262"/>
<polygon fill="none" stroke="black" points="42,-262 42,-284 194,-284 194,-262 42,-262"/>
<text text-anchor="start" x="47" y="-271.2" font-family="Helvetica,sans-Serif" font-weight="bold" font-size="11.00">published_reports</text>
<text text-anchor="start" x="155" y="-270.2" font-family="Helvetica,sans-Serif" font-size="11.00">[table]</text>
<polygon fill="none" stroke="black" points="42,-240 42,-262 194,-262 194,-240 42,-240"/>
<image xlink:href="../../images/primaryKeys.png" width="11px" height="12px" preserveAspectRatio="xMinYMin meet" x="47" y="-257"/>
<text text-anchor="start" x="68" y="-248.2" font-family="Helvetica,sans-Serif" font-size="11.00">report_id</text>
<polygon fill="#ffffff" stroke="transparent" points="42,-218 42,-240 194,-240 194,-218 42,-218"/>
<polygon fill="none" stroke="black" points="42,-218 42,-240 194,-240 194,-218 42,-218"/>
<image xlink:href="../../images/foreignKeys.png" width="11px" height="12px" preserveAspectRatio="xMinYMin meet" x="47" y="-235"/>
<text text-anchor="start" x="68" y="-226.2" font-family="Helvetica,sans-Serif" font-size="11.00">project_id</text>
<polygon fill="none" stroke="black" points="42,-196 42,-218 194,-218 194,-196 42,-196"/>
<image xlink:href="../../images/foreignKeys.png" width="11px" height="12px" preserveAspectRatio="xMinYMin meet" x="47" y="-213"/>
<text text-anchor="start" x="68" y="-204.2" font-family="Helvetica,sans-Serif" font-size="11.00">report_frequency_id</text>
<polygon fill="none" stroke="black" points="42,-174 42,-196 194,-196 194,-174 42,-174"/>
<image xlink:href="../../images/foreignKeys.png" width="11px" height="12px" preserveAspectRatio="xMinYMin meet" x="47" y="-191"/>
<text text-anchor="start" x="68" y="-182.2" font-family="Helvetica,sans-Serif" font-size="11.00">report_quarter_id</text>
<polygon fill="none" stroke="black" points="42,-152 42,-174 194,-174 194,-152 42,-152"/>
<image xlink:href="../../images/foreignKeys.png" width="11px" height="12px" preserveAspectRatio="xMinYMin meet" x="47" y="-169"/>
<text text-anchor="start" x="68" y="-160.2" font-family="Helvetica,sans-Serif" font-size="11.00">published_by</text>
<polygon fill="none" stroke="black" points="42,-134 42,-152 194,-152 194,-134 42,-134"/>
<text text-anchor="start" x="45" y="-140.2" font-family="Helvetica,sans-Serif" font-size="11.00">...</text>
<polygon fill="#ffffff" stroke="transparent" points="42,-116 42,-134 111,-134 111,-116 42,-116"/>
<polygon fill="none" stroke="black" points="42,-116 42,-134 111,-134 111,-116 42,-116"/>
<text text-anchor="start" x="45" y="-122.2" font-family="Helvetica,sans-Serif" font-size="11.00">&lt; 5</text>
<polygon fill="#ffffff" stroke="transparent" points="111,-116 111,-134 148,-134 148,-116 111,-116"/>
<polygon fill="none" stroke="black" points="111,-116 111,-134 148,-134 148,-116 111,-116"/>
<text text-anchor="start" x="138" y="-122.2" font-family="Helvetica,sans-Serif" font-size="11.00"> &#160;</text>
<polygon fill="#ffffff" stroke="transparent" points="148,-116 148,-134 194,-134 194,-116 148,-116"/>
<polygon fill="none" stroke="black" points="148,-116 148,-134 194,-134 194,-116 148,-116"/>
<text text-anchor="start" x="175" y="-122.2" font-family="Helvetica,sans-Serif" font-size="11.00">5 &gt;</text>
</a>
</g>
</g>
<!-- published_report_standard_metrics&#45;&gt;published_reports -->
<g id="edge1" class="edge">
<title>published_report_standard_metrics:w&#45;&gt;published_reports:e</title>
<path fill="none" stroke="black" d="M263.4,-171.73C229.81,-185.96 241.18,-251 195,-251"/>
<polygon fill="black" stroke="black" points="270.14,-170.47 278.66,-172.54 274.07,-169.73 278,-169 278,-169 278,-169 274.07,-169.73 277.34,-165.46 270.14,-170.47 270.14,-170.47"/>
<ellipse fill="none" stroke="black" cx="266.99" cy="-171.06" rx="3.2" ry="3.2"/>
</g>
<!-- accelerator.standard_metrics -->
<g id="node3" class="node">
<title>accelerator.standard_metrics</title>
<g id="a_node3"><a xlink:href="../../../accelerator/tables/standard_metrics.html" xlink:title="accelerator.standard_metrics" target="_top">
<polygon fill="#ffffff" stroke="transparent" points="8,-37 8,-95 228,-95 228,-37 8,-37"/>
<polygon fill="#f5f5f5" stroke="transparent" points="8,-73 8,-95 228,-95 228,-73 8,-73"/>
<polygon fill="none" stroke="black" points="8,-73 8,-95 228,-95 228,-73 8,-73"/>
<text text-anchor="start" x="13" y="-82.2" font-family="Helvetica,sans-Serif" font-weight="bold" font-size="11.00">accelerator.standard_metrics</text>
<text text-anchor="start" x="189" y="-81.2" font-family="Helvetica,sans-Serif" font-size="11.00">[table]</text>
<polygon fill="none" stroke="black" points="8,-55 8,-73 228,-73 228,-55 8,-55"/>
<text text-anchor="start" x="11" y="-61.2" font-family="Helvetica,sans-Serif" font-size="11.00">...</text>
<polygon fill="#ffffff" stroke="transparent" points="8,-37 8,-55 93,-55 93,-37 8,-37"/>
<polygon fill="none" stroke="black" points="8,-37 8,-55 93,-55 93,-37 8,-37"/>
<text text-anchor="start" x="11" y="-43.2" font-family="Helvetica,sans-Serif" font-size="11.00"> &#160;</text>
<polygon fill="#ffffff" stroke="transparent" points="93,-37 93,-55 169,-55 169,-37 93,-37"/>
<polygon fill="none" stroke="black" points="93,-37 93,-55 169,-55 169,-37 93,-37"/>
<text text-anchor="start" x="132" y="-43.2" font-family="Helvetica,sans-Serif" font-size="11.00">0 rows</text>
<polygon fill="#ffffff" stroke="transparent" points="169,-37 169,-55 228,-55 228,-37 169,-37"/>
<polygon fill="none" stroke="black" points="169,-37 169,-55 228,-55 228,-37 169,-37"/>
<text text-anchor="start" x="209" y="-43.2" font-family="Helvetica,sans-Serif" font-size="11.00">1 &gt;</text>
</a>
</g>
</g>
<!-- published_report_standard_metrics&#45;&gt;accelerator.standard_metrics -->
<g id="edge2" class="edge">
<title>published_report_standard_metrics:w&#45;&gt;accelerator.standard_metrics:e</title>
<path fill="none" stroke="black" d="M263.88,-142.77C253.3,-134.56 252.84,-116.36 236,-106 232.07,-103.58 227.97,-101.29 223.77,-99.11"/>
<polygon fill="black" stroke="black" points="270.34,-144.71 276.97,-150.45 274.17,-145.85 278,-147 278,-147 278,-147 274.17,-145.85 279.03,-143.55 270.34,-144.71 270.34,-144.71"/>
<ellipse fill="none" stroke="black" cx="267.27" cy="-143.79" rx="3.2" ry="3.2"/>
</g>
</g>
</svg>
