<?xml version="1.0" encoding="UTF-8" standalone="no"?>
<!DOCTYPE svg PUBLIC "-//W3C//DTD SVG 1.1//EN"
 "http://www.w3.org/Graphics/SVG/1.1/DTD/svg11.dtd">
<!-- Generated by graphviz version 2.47.1 (20210515.0534)
 -->
<!-- Title: oneDegreeRelationshipsDiagram Pages: 1 -->
<svg width="582pt" height="533pt"
 viewBox="0.00 0.00 582.00 533.00" xmlns="http://www.w3.org/2000/svg" xmlns:xlink="http://www.w3.org/1999/xlink">
<g id="graph0" class="graph" transform="scale(1 1) rotate(0) translate(4 529)">
<title>oneDegreeRelationshipsDiagram</title>
<polygon fill="#ffffff" stroke="transparent" points="-4,4 -4,-529 578,-529 578,4 -4,4"/>
<text text-anchor="middle" x="73.5" y="-7.2" font-family="Helvetica,sans-Serif" font-size="11.00">Generated by SchemaSpy</text>
<!-- published_project_details -->
<g id="node1" class="node">
<title>published_project_details</title>
<g id="a_node1"><a xlink:href="../../tables/published_project_details.html" xlink:title="published_project_details" target="_top">
<polygon fill="#ffffff" stroke="transparent" points="246,-37 246,-521 566,-521 566,-37 246,-37"/>
<polygon fill="#f5f5f5" stroke="transparent" points="248,-497 248,-519 564,-519 564,-497 248,-497"/>
<polygon fill="none" stroke="black" points="248,-497 248,-519 564,-519 564,-497 248,-497"/>
<text text-anchor="start" x="253" y="-506.2" font-family="Helvetica,sans-Serif" font-weight="bold" font-size="11.00">published_project_details</text>
<text text-anchor="start" x="525" y="-505.2" font-family="Helvetica,sans-Serif" font-size="11.00">[table]</text>
<polygon fill="none" stroke="black" points="248,-475 248,-497 464,-497 464,-475 248,-475"/>
<image xlink:href="../../images/primaryKeys.png" width="11px" height="12px" preserveAspectRatio="xMinYMin meet" x="253" y="-492"/>
<text text-anchor="start" x="268" y="-483.2" font-family="Helvetica,sans-Serif" font-size="11.00">project_id</text>
<polygon fill="none" stroke="black" points="464,-475 464,-497 564,-497 564,-475 464,-475"/>
<text text-anchor="start" x="467" y="-483.2" font-family="Helvetica,sans-Serif" font-size="11.00">int8[19]</text>
<polygon fill="none" stroke="black" points="248,-453 248,-475 464,-475 464,-453 248,-453"/>
<text text-anchor="start" x="268" y="-461.2" font-family="Helvetica,sans-Serif" font-size="11.00">accumulation_rate</text>
<polygon fill="none" stroke="black" points="464,-453 464,-475 564,-475 564,-453 464,-453"/>
<text text-anchor="start" x="467" y="-461.2" font-family="Helvetica,sans-Serif" font-size="11.00">numeric[0]</text>
<polygon fill="none" stroke="black" points="248,-431 248,-453 464,-453 464,-431 248,-431"/>
<text text-anchor="start" x="268" y="-439.2" font-family="Helvetica,sans-Serif" font-size="11.00">annual_carbon</text>
<polygon fill="none" stroke="black" points="464,-431 464,-453 564,-453 564,-431 464,-431"/>
<text text-anchor="start" x="467" y="-439.2" font-family="Helvetica,sans-Serif" font-size="11.00">numeric[0]</text>
<polygon fill="none" stroke="black" points="248,-409 248,-431 464,-431 464,-409 248,-409"/>
<image xlink:href="../../images/foreignKeys.png" width="11px" height="12px" preserveAspectRatio="xMinYMin meet" x="253" y="-426"/>
<text text-anchor="start" x="268" y="-417.2" font-family="Helvetica,sans-Serif" font-size="11.00">country_code</text>
<polygon fill="none" stroke="black" points="464,-409 464,-431 564,-431 564,-409 464,-409"/>
<text text-anchor="start" x="467" y="-417.2" font-family="Helvetica,sans-Serif" font-size="11.00">text[2147483647]</text>
<polygon fill="none" stroke="black" points="248,-387 248,-409 464,-409 464,-387 248,-387"/>
<text text-anchor="start" x="268" y="-395.2" font-family="Helvetica,sans-Serif" font-size="11.00">deal_description</text>
<polygon fill="none" stroke="black" points="464,-387 464,-409 564,-409 564,-387 464,-387"/>
<text text-anchor="start" x="467" y="-395.2" font-family="Helvetica,sans-Serif" font-size="11.00">text[2147483647]</text>
<polygon fill="none" stroke="black" points="248,-365 248,-387 464,-387 464,-365 248,-365"/>
<text text-anchor="start" x="268" y="-373.2" font-family="Helvetica,sans-Serif" font-size="11.00">deal_name</text>
<polygon fill="none" stroke="black" points="464,-365 464,-387 564,-387 564,-365 464,-365"/>
<text text-anchor="start" x="467" y="-373.2" font-family="Helvetica,sans-Serif" font-size="11.00">text[2147483647]</text>
<polygon fill="none" stroke="black" points="248,-343 248,-365 464,-365 464,-343 248,-343"/>
<text text-anchor="start" x="268" y="-351.2" font-family="Helvetica,sans-Serif" font-size="11.00">methodology_number</text>
<polygon fill="none" stroke="black" points="464,-343 464,-365 564,-365 564,-343 464,-343"/>
<text text-anchor="start" x="467" y="-351.2" font-family="Helvetica,sans-Serif" font-size="11.00">text[2147483647]</text>
<polygon fill="none" stroke="black" points="248,-321 248,-343 464,-343 464,-321 248,-321"/>
<text text-anchor="start" x="268" y="-329.2" font-family="Helvetica,sans-Serif" font-size="11.00">min_project_area</text>
<polygon fill="none" stroke="black" points="464,-321 464,-343 564,-343 564,-321 464,-321"/>
<text text-anchor="start" x="467" y="-329.2" font-family="Helvetica,sans-Serif" font-size="11.00">numeric[0]</text>
<polygon fill="none" stroke="black" points="248,-299 248,-321 464,-321 464,-299 248,-299"/>
<text text-anchor="start" x="268" y="-307.2" font-family="Helvetica,sans-Serif" font-size="11.00">num_native_species</text>
<polygon fill="none" stroke="black" points="464,-299 464,-321 564,-321 564,-299 464,-299"/>
<text text-anchor="start" x="467" y="-307.2" font-family="Helvetica,sans-Serif" font-size="11.00">int4[10]</text>
<polygon fill="none" stroke="black" points="248,-277 248,-299 464,-299 464,-277 248,-277"/>
<text text-anchor="start" x="268" y="-285.2" font-family="Helvetica,sans-Serif" font-size="11.00">per_hectare_estimated_budget</text>
<polygon fill="none" stroke="black" points="464,-277 464,-299 564,-299 564,-277 464,-277"/>
<text text-anchor="start" x="467" y="-285.2" font-family="Helvetica,sans-Serif" font-size="11.00">numeric[0]</text>
<polygon fill="none" stroke="black" points="248,-255 248,-277 464,-277 464,-255 248,-255"/>
<text text-anchor="start" x="268" y="-263.2" font-family="Helvetica,sans-Serif" font-size="11.00">project_area</text>
<polygon fill="none" stroke="black" points="464,-255 464,-277 564,-277 564,-255 464,-255"/>
<text text-anchor="start" x="467" y="-263.2" font-family="Helvetica,sans-Serif" font-size="11.00">numeric[0]</text>
<polygon fill="none" stroke="black" points="248,-233 248,-255 464,-255 464,-233 248,-233"/>
<image xlink:href="../../images/foreignKeys.png" width="11px" height="12px" preserveAspectRatio="xMinYMin meet" x="253" y="-250"/>
<text text-anchor="start" x="268" y="-241.2" font-family="Helvetica,sans-Serif" font-size="11.00">project_highlight_photo_value_id</text>
<polygon fill="none" stroke="black" points="464,-233 464,-255 564,-255 564,-233 464,-233"/>
<text text-anchor="start" x="467" y="-241.2" font-family="Helvetica,sans-Serif" font-size="11.00">int8[19]</text>
<polygon fill="none" stroke="black" points="248,-211 248,-233 464,-233 464,-211 248,-211"/>
<image xlink:href="../../images/foreignKeys.png" width="11px" height="12px" preserveAspectRatio="xMinYMin meet" x="253" y="-228"/>
<text text-anchor="start" x="268" y="-219.2" font-family="Helvetica,sans-Serif" font-size="11.00">project_zone_figure_value_id</text>
<polygon fill="none" stroke="black" points="464,-211 464,-233 564,-233 564,-211 464,-211"/>
<text text-anchor="start" x="467" y="-219.2" font-family="Helvetica,sans-Serif" font-size="11.00">int8[19]</text>
<polygon fill="none" stroke="black" points="248,-189 248,-211 464,-211 464,-189 248,-189"/>
<text text-anchor="start" x="268" y="-197.2" font-family="Helvetica,sans-Serif" font-size="11.00">standard</text>
<polygon fill="none" stroke="black" points="464,-189 464,-211 564,-211 564,-189 464,-189"/>
<text text-anchor="start" x="467" y="-197.2" font-family="Helvetica,sans-Serif" font-size="11.00">text[2147483647]</text>
<polygon fill="none" stroke="black" points="248,-167 248,-189 464,-189 464,-167 248,-167"/>
<text text-anchor="start" x="268" y="-175.2" font-family="Helvetica,sans-Serif" font-size="11.00">tf_reforestable_land</text>
<polygon fill="none" stroke="black" points="464,-167 464,-189 564,-189 564,-167 464,-167"/>
<text text-anchor="start" x="467" y="-175.2" font-family="Helvetica,sans-Serif" font-size="11.00">numeric[0]</text>
<polygon fill="none" stroke="black" points="248,-145 248,-167 464,-167 464,-145 248,-145"/>
<text text-anchor="start" x="268" y="-153.2" font-family="Helvetica,sans-Serif" font-size="11.00">total_expansion_potential</text>
<polygon fill="none" stroke="black" points="464,-145 464,-167 564,-167 564,-145 464,-145"/>
<text text-anchor="start" x="467" y="-153.2" font-family="Helvetica,sans-Serif" font-size="11.00">numeric[0]</text>
<polygon fill="none" stroke="black" points="248,-123 248,-145 464,-145 464,-123 248,-123"/>
<text text-anchor="start" x="268" y="-131.2" font-family="Helvetica,sans-Serif" font-size="11.00">total_vcu</text>
<polygon fill="none" stroke="black" points="464,-123 464,-145 564,-145 564,-123 464,-123"/>
<text text-anchor="start" x="467" y="-131.2" font-family="Helvetica,sans-Serif" font-size="11.00">numeric[0]</text>
<polygon fill="none" stroke="black" points="248,-101 248,-123 464,-123 464,-101 248,-101"/>
<text text-anchor="start" x="268" y="-109.2" font-family="Helvetica,sans-Serif" font-size="11.00">verra_link</text>
<polygon fill="none" stroke="black" points="464,-101 464,-123 564,-123 564,-101 464,-101"/>
<text text-anchor="start" x="467" y="-109.2" font-family="Helvetica,sans-Serif" font-size="11.00">text[2147483647]</text>
<polygon fill="none" stroke="black" points="248,-79 248,-101 464,-101 464,-79 248,-79"/>
<image xlink:href="../../images/foreignKeys.png" width="11px" height="12px" preserveAspectRatio="xMinYMin meet" x="253" y="-96"/>
<text text-anchor="start" x="268" y="-87.2" font-family="Helvetica,sans-Serif" font-size="11.00">published_by</text>
<polygon fill="none" stroke="black" points="464,-79 464,-101 564,-101 564,-79 464,-79"/>
<text text-anchor="start" x="467" y="-87.2" font-family="Helvetica,sans-Serif" font-size="11.00">int8[19]</text>
<polygon fill="none" stroke="black" points="248,-57 248,-79 464,-79 464,-57 248,-57"/>
<text text-anchor="start" x="268" y="-65.2" font-family="Helvetica,sans-Serif" font-size="11.00">published_time</text>
<polygon fill="none" stroke="black" points="464,-57 464,-79 564,-79 564,-57 464,-57"/>
<text text-anchor="start" x="467" y="-65.2" font-family="Helvetica,sans-Serif" font-size="11.00">timestamptz[35,6]</text>
<polygon fill="#ffffff" stroke="transparent" points="248,-39 248,-57 360,-57 360,-39 248,-39"/>
<polygon fill="none" stroke="black" points="248,-39 248,-57 360,-57 360,-39 248,-39"/>
<text text-anchor="start" x="251" y="-45.2" font-family="Helvetica,sans-Serif" font-size="11.00">&lt; 5</text>
<polygon fill="#ffffff" stroke="transparent" points="360,-39 360,-57 464,-57 464,-39 360,-39"/>
<polygon fill="none" stroke="black" points="360,-39 360,-57 464,-57 464,-39 360,-39"/>
<text text-anchor="start" x="454" y="-45.2" font-family="Helvetica,sans-Serif" font-size="11.00"> &#160;</text>
<polygon fill="#ffffff" stroke="transparent" points="464,-39 464,-57 564,-57 564,-39 464,-39"/>
<polygon fill="none" stroke="black" points="464,-39 464,-57 564,-57 564,-39 464,-39"/>
<text text-anchor="start" x="545" y="-45.2" font-family="Helvetica,sans-Serif" font-size="11.00">0 &gt;</text>
<polygon fill="none" stroke="black" stroke-width="2" points="247,-38 247,-520 565,-520 565,-38 247,-38"/>
</a>
</g>
</g>
<!-- public.countries -->
<g id="node2" class="node">
<title>public.countries</title>
<g id="a_node2"><a xlink:href="../../../public/tables/countries.html" xlink:title="public.countries" target="_top">
<polygon fill="#ffffff" stroke="transparent" points="32.5,-384 32.5,-442 172.5,-442 172.5,-384 32.5,-384"/>
<polygon fill="#f5f5f5" stroke="transparent" points="32.5,-420 32.5,-442 172.5,-442 172.5,-420 32.5,-420"/>
<polygon fill="none" stroke="black" points="32.5,-420 32.5,-442 172.5,-442 172.5,-420 32.5,-420"/>
<text text-anchor="start" x="37.5" y="-429.2" font-family="Helvetica,sans-Serif" font-weight="bold" font-size="11.00">public.countries</text>
<text text-anchor="start" x="133.5" y="-428.2" font-family="Helvetica,sans-Serif" font-size="11.00">[table]</text>
<polygon fill="none" stroke="black" points="32.5,-402 32.5,-420 172.5,-420 172.5,-402 32.5,-402"/>
<text text-anchor="start" x="35.5" y="-408.2" font-family="Helvetica,sans-Serif" font-size="11.00">...</text>
<polygon fill="#ffffff" stroke="transparent" points="32.5,-384 32.5,-402 77.5,-402 77.5,-384 32.5,-384"/>
<polygon fill="none" stroke="black" points="32.5,-384 32.5,-402 77.5,-402 77.5,-384 32.5,-384"/>
<text text-anchor="start" x="35.5" y="-390.2" font-family="Helvetica,sans-Serif" font-size="11.00"> &#160;</text>
<polygon fill="#ffffff" stroke="transparent" points="77.5,-384 77.5,-402 133.5,-402 133.5,-384 77.5,-384"/>
<polygon fill="none" stroke="black" points="77.5,-384 77.5,-402 133.5,-402 133.5,-384 77.5,-384"/>
<text text-anchor="start" x="96.5" y="-390.2" font-family="Helvetica,sans-Serif" font-size="11.00">0 rows</text>
<polygon fill="#ffffff" stroke="transparent" points="133.5,-384 133.5,-402 172.5,-402 172.5,-384 133.5,-384"/>
<polygon fill="none" stroke="black" points="133.5,-384 133.5,-402 172.5,-402 172.5,-384 133.5,-384"/>
<text text-anchor="start" x="153.5" y="-390.2" font-family="Helvetica,sans-Serif" font-size="11.00">1 &gt;</text>
</a>
</g>
</g>
<!-- published_project_details&#45;&gt;public.countries -->
<g id="edge1" class="edge">
<title>published_project_details:w&#45;&gt;public.countries:e</title>
<path fill="none" stroke="black" d="M232.36,-419.89C215.11,-419.63 197.26,-418.97 180.55,-418.14"/>
<polygon fill="black" stroke="black" points="239,-419.94 246.97,-423.6 243,-419.97 247,-420 247,-420 247,-420 243,-419.97 247.03,-416.4 239,-419.94 239,-419.94"/>
<ellipse fill="none" stroke="black" cx="235.8" cy="-419.91" rx="3.2" ry="3.2"/>
</g>
<!-- docprod.variable_values -->
<g id="node3" class="node">
<title>docprod.variable_values</title>
<g id="a_node3"><a xlink:href="../../../docprod/tables/variable_values.html" xlink:title="docprod.variable_values" target="_top">
<polygon fill="#ffffff" stroke="transparent" points="8,-204 8,-262 197,-262 197,-204 8,-204"/>
<polygon fill="#f5f5f5" stroke="transparent" points="8.5,-240 8.5,-262 197.5,-262 197.5,-240 8.5,-240"/>
<polygon fill="none" stroke="black" points="8.5,-240 8.5,-262 197.5,-262 197.5,-240 8.5,-240"/>
<text text-anchor="start" x="13.5" y="-249.2" font-family="Helvetica,sans-Serif" font-weight="bold" font-size="11.00">docprod.variable_values</text>
<text text-anchor="start" x="158.5" y="-248.2" font-family="Helvetica,sans-Serif" font-size="11.00">[table]</text>
<polygon fill="none" stroke="black" points="8.5,-222 8.5,-240 197.5,-240 197.5,-222 8.5,-222"/>
<text text-anchor="start" x="11.5" y="-228.2" font-family="Helvetica,sans-Serif" font-size="11.00">...</text>
<polygon fill="#ffffff" stroke="transparent" points="8.5,-204 8.5,-222 78.5,-222 78.5,-204 8.5,-204"/>
<polygon fill="none" stroke="black" points="8.5,-204 8.5,-222 78.5,-222 78.5,-204 8.5,-204"/>
<text text-anchor="start" x="11.5" y="-210.2" font-family="Helvetica,sans-Serif" font-size="11.00"> &#160;</text>
<polygon fill="#ffffff" stroke="transparent" points="78.5,-204 78.5,-222 146.5,-222 146.5,-204 78.5,-204"/>
<polygon fill="none" stroke="black" points="78.5,-204 78.5,-222 146.5,-222 146.5,-204 78.5,-204"/>
<text text-anchor="start" x="109.5" y="-210.2" font-family="Helvetica,sans-Serif" font-size="11.00">0 rows</text>
<polygon fill="#ffffff" stroke="transparent" points="146.5,-204 146.5,-222 197.5,-222 197.5,-204 146.5,-204"/>
<polygon fill="none" stroke="black" points="146.5,-204 146.5,-222 197.5,-222 197.5,-204 146.5,-204"/>
<text text-anchor="start" x="178.5" y="-210.2" font-family="Helvetica,sans-Serif" font-size="11.00">2 &gt;</text>
</a>
</g>
</g>
<!-- published_project_details&#45;&gt;docprod.variable_values -->
<g id="edge2" class="edge">
<title>published_project_details:w&#45;&gt;docprod.variable_values:e</title>
<path fill="none" stroke="black" d="M232.55,-243.83C223.56,-243.62 214.41,-243.24 205.34,-242.74"/>
<polygon fill="black" stroke="black" points="239,-243.9 246.96,-247.6 243,-243.95 247,-244 247,-244 247,-244 243,-243.95 247.04,-240.4 239,-243.9 239,-243.9"/>
<ellipse fill="none" stroke="black" cx="235.8" cy="-243.87" rx="3.2" ry="3.2"/>
</g>
<!-- published_project_details&#45;&gt;docprod.variable_values -->
<g id="edge4" class="edge">
<title>published_project_details:w&#45;&gt;docprod.variable_values:e</title>
<path fill="none" stroke="black" d="M232.55,-222.17C223.56,-222.38 214.41,-222.76 205.34,-223.26"/>
<polygon fill="black" stroke="black" points="239,-222.1 247.04,-225.6 243,-222.05 247,-222 247,-222 247,-222 243,-222.05 246.96,-218.4 239,-222.1 239,-222.1"/>
<ellipse fill="none" stroke="black" cx="235.8" cy="-222.13" rx="3.2" ry="3.2"/>
</g>
<!-- public.projects -->
<g id="node4" class="node">
<title>public.projects</title>
<g id="a_node4"><a xlink:href="../../../public/tables/projects.html" xlink:title="public.projects" target="_top">
<polygon fill="#ffffff" stroke="transparent" points="36.5,-463 36.5,-521 168.5,-521 168.5,-463 36.5,-463"/>
<polygon fill="#f5f5f5" stroke="transparent" points="36.5,-499 36.5,-521 168.5,-521 168.5,-499 36.5,-499"/>
<polygon fill="none" stroke="black" points="36.5,-499 36.5,-521 168.5,-521 168.5,-499 36.5,-499"/>
<text text-anchor="start" x="41.5" y="-508.2" font-family="Helvetica,sans-Serif" font-weight="bold" font-size="11.00">public.projects</text>
<text text-anchor="start" x="129.5" y="-507.2" font-family="Helvetica,sans-Serif" font-size="11.00">[table]</text>
<polygon fill="none" stroke="black" points="36.5,-481 36.5,-499 168.5,-499 168.5,-481 36.5,-481"/>
<text text-anchor="start" x="39.5" y="-487.2" font-family="Helvetica,sans-Serif" font-size="11.00">...</text>
<polygon fill="#ffffff" stroke="transparent" points="36.5,-463 36.5,-481 74.5,-481 74.5,-463 36.5,-463"/>
<polygon fill="none" stroke="black" points="36.5,-463 36.5,-481 74.5,-481 74.5,-463 36.5,-463"/>
<text text-anchor="start" x="39.5" y="-469.2" font-family="Helvetica,sans-Serif" font-size="11.00"> &#160;</text>
<polygon fill="#ffffff" stroke="transparent" points="74.5,-463 74.5,-481 127.5,-481 127.5,-463 74.5,-463"/>
<polygon fill="none" stroke="black" points="74.5,-463 74.5,-481 127.5,-481 127.5,-463 74.5,-463"/>
<text text-anchor="start" x="90.5" y="-469.2" font-family="Helvetica,sans-Serif" font-size="11.00">0 rows</text>
<polygon fill="#ffffff" stroke="transparent" points="127.5,-463 127.5,-481 168.5,-481 168.5,-463 127.5,-463"/>
<polygon fill="none" stroke="black" points="127.5,-463 127.5,-481 168.5,-481 168.5,-463 127.5,-463"/>
<text text-anchor="start" x="143.5" y="-469.2" font-family="Helvetica,sans-Serif" font-size="11.00">10 &gt;</text>
</a>
</g>
</g>
<!-- published_project_details&#45;&gt;public.projects -->
<g id="edge3" class="edge">
<title>published_project_details:w&#45;&gt;public.projects:e</title>
<path fill="none" stroke="black" d="M236.45,-486.05C216.67,-486.24 195.92,-486.92 176.85,-487.75"/>
<polygon fill="black" stroke="black" points="246.18,-482 246.22,-490 244.62,-490.01 244.58,-482.01 246.18,-482"/>
<polyline fill="none" stroke="black" points="247,-486 243,-486.02 "/>
<ellipse fill="none" stroke="black" cx="239.8" cy="-486.04" rx="3.2" ry="3.2"/>
</g>
<!-- public.users -->
<g id="node5" class="node">
<title>public.users</title>
<g id="a_node5"><a xlink:href="../../../public/tables/users.html" xlink:title="public.users" target="_top">
<polygon fill="#ffffff" stroke="transparent" points="44.5,-61 44.5,-119 160.5,-119 160.5,-61 44.5,-61"/>
<polygon fill="#f5f5f5" stroke="transparent" points="44.5,-97 44.5,-119 160.5,-119 160.5,-97 44.5,-97"/>
<polygon fill="none" stroke="black" points="44.5,-97 44.5,-119 160.5,-119 160.5,-97 44.5,-97"/>
<text text-anchor="start" x="49.5" y="-106.2" font-family="Helvetica,sans-Serif" font-weight="bold" font-size="11.00">public.users</text>
<text text-anchor="start" x="121.5" y="-105.2" font-family="Helvetica,sans-Serif" font-size="11.00">[table]</text>
<polygon fill="none" stroke="black" points="44.5,-79 44.5,-97 160.5,-97 160.5,-79 44.5,-79"/>
<text text-anchor="start" x="47.5" y="-85.2" font-family="Helvetica,sans-Serif" font-size="11.00">...</text>
<polygon fill="#ffffff" stroke="transparent" points="44.5,-61 44.5,-79 77.5,-79 77.5,-61 44.5,-61"/>
<polygon fill="none" stroke="black" points="44.5,-61 44.5,-79 77.5,-79 77.5,-61 44.5,-61"/>
<text text-anchor="start" x="47.5" y="-67.2" font-family="Helvetica,sans-Serif" font-size="11.00"> &#160;</text>
<polygon fill="#ffffff" stroke="transparent" points="77.5,-61 77.5,-79 127.5,-79 127.5,-61 77.5,-61"/>
<polygon fill="none" stroke="black" points="77.5,-61 77.5,-79 127.5,-79 127.5,-61 77.5,-61"/>
<text text-anchor="start" x="90.5" y="-67.2" font-family="Helvetica,sans-Serif" font-size="11.00">0 rows</text>
<polygon fill="#ffffff" stroke="transparent" points="127.5,-61 127.5,-79 160.5,-79 160.5,-61 127.5,-61"/>
<polygon fill="none" stroke="black" points="127.5,-61 127.5,-79 160.5,-79 160.5,-61 127.5,-61"/>
<text text-anchor="start" x="141.5" y="-67.2" font-family="Helvetica,sans-Serif" font-size="11.00">6 &gt;</text>
</a>
</g>
</g>
<!-- published_project_details&#45;&gt;public.users -->
<g id="edge5" class="edge">
<title>published_project_details:w&#45;&gt;public.users:e</title>
<path fill="none" stroke="black" d="M232.33,-90C210.88,-90 188.49,-90 168.51,-90"/>
<polygon fill="black" stroke="black" points="239,-90 247,-93.6 243,-90 247,-90 247,-90 247,-90 243,-90 247,-86.4 239,-90 239,-90"/>
<ellipse fill="none" stroke="black" cx="235.8" cy="-90" rx="3.2" ry="3.2"/>
</g>
</g>
</svg>
