<?xml version="1.0" encoding="UTF-8" standalone="no"?>
<!DOCTYPE svg PUBLIC "-//W3C//DTD SVG 1.1//EN"
 "http://www.w3.org/Graphics/SVG/1.1/DTD/svg11.dtd">
<!-- Generated by graphviz version 2.47.1 (20210515.0534)
 -->
<!-- Title: twoDegreesRelationshipsDiagram Pages: 1 -->
<svg width="923pt" height="576pt"
 viewBox="0.00 0.00 923.00 576.00" xmlns="http://www.w3.org/2000/svg" xmlns:xlink="http://www.w3.org/1999/xlink">
<g id="graph0" class="graph" transform="scale(1 1) rotate(0) translate(4 572)">
<title>twoDegreesRelationshipsDiagram</title>
<polygon fill="#ffffff" stroke="transparent" points="-4,4 -4,-572 919,-572 919,4 -4,4"/>
<text text-anchor="middle" x="73.5" y="-7.2" font-family="Helvetica,sans-Serif" font-size="11.00">Generated by SchemaSpy</text>
<!-- published_report_achievements -->
<g id="node1" class="node">
<title>published_report_achievements</title>
<g id="a_node1"><a xlink:href="../../tables/published_report_achievements.html" xlink:title="published_report_achievements" target="_top">
<polygon fill="#ffffff" stroke="transparent" points="630.5,-392 630.5,-450 864.5,-450 864.5,-392 630.5,-392"/>
<polygon fill="#f5f5f5" stroke="transparent" points="630.5,-428 630.5,-450 864.5,-450 864.5,-428 630.5,-428"/>
<polygon fill="none" stroke="black" points="630.5,-428 630.5,-450 864.5,-450 864.5,-428 630.5,-428"/>
<text text-anchor="start" x="635.5" y="-437.2" font-family="Helvetica,sans-Serif" font-weight="bold" font-size="11.00">published_report_achievements</text>
<text text-anchor="start" x="825.5" y="-436.2" font-family="Helvetica,sans-Serif" font-size="11.00">[table]</text>
<polygon fill="none" stroke="black" points="630.5,-410 630.5,-428 864.5,-428 864.5,-410 630.5,-410"/>
<text text-anchor="start" x="633.5" y="-416.2" font-family="Helvetica,sans-Serif" font-size="11.00">...</text>
<polygon fill="#ffffff" stroke="transparent" points="630.5,-392 630.5,-410 745.5,-410 745.5,-392 630.5,-392"/>
<polygon fill="none" stroke="black" points="630.5,-392 630.5,-410 745.5,-410 745.5,-392 630.5,-392"/>
<text text-anchor="start" x="633.5" y="-398.2" font-family="Helvetica,sans-Serif" font-size="11.00">&lt; 1</text>
<polygon fill="#ffffff" stroke="transparent" points="745.5,-392 745.5,-410 804.5,-410 804.5,-392 745.5,-392"/>
<polygon fill="none" stroke="black" points="745.5,-392 745.5,-410 804.5,-410 804.5,-392 745.5,-392"/>
<text text-anchor="start" x="794.5" y="-398.2" font-family="Helvetica,sans-Serif" font-size="11.00"> &#160;</text>
<polygon fill="#ffffff" stroke="transparent" points="804.5,-392 804.5,-410 864.5,-410 864.5,-392 804.5,-392"/>
<polygon fill="none" stroke="black" points="804.5,-392 804.5,-410 864.5,-410 864.5,-392 804.5,-392"/>
<text text-anchor="start" x="854.5" y="-398.2" font-family="Helvetica,sans-Serif" font-size="11.00"> &#160;</text>
</a>
</g>
</g>
<!-- published_reports -->
<g id="node2" class="node">
<title>published_reports</title>
<g id="a_node2"><a xlink:href="../../tables/published_reports.html" xlink:title="published_reports" target="_top">
<polygon fill="#ffffff" stroke="transparent" points="336.5,-284 336.5,-452 488.5,-452 488.5,-284 336.5,-284"/>
<polygon fill="#f5f5f5" stroke="transparent" points="336.5,-430 336.5,-452 488.5,-452 488.5,-430 336.5,-430"/>
<polygon fill="none" stroke="black" points="336.5,-430 336.5,-452 488.5,-452 488.5,-430 336.5,-430"/>
<text text-anchor="start" x="341.5" y="-439.2" font-family="Helvetica,sans-Serif" font-weight="bold" font-size="11.00">published_reports</text>
<text text-anchor="start" x="449.5" y="-438.2" font-family="Helvetica,sans-Serif" font-size="11.00">[table]</text>
<polygon fill="none" stroke="black" points="336.5,-408 336.5,-430 488.5,-430 488.5,-408 336.5,-408"/>
<image xlink:href="../../images/primaryKeys.png" width="11px" height="12px" preserveAspectRatio="xMinYMin meet" x="341.5" y="-425"/>
<text text-anchor="start" x="362.5" y="-416.2" font-family="Helvetica,sans-Serif" font-size="11.00">report_id</text>
<polygon fill="#ffffff" stroke="transparent" points="336.5,-386 336.5,-408 488.5,-408 488.5,-386 336.5,-386"/>
<polygon fill="none" stroke="black" points="336.5,-386 336.5,-408 488.5,-408 488.5,-386 336.5,-386"/>
<image xlink:href="../../images/foreignKeys.png" width="11px" height="12px" preserveAspectRatio="xMinYMin meet" x="341.5" y="-403"/>
<text text-anchor="start" x="362.5" y="-394.2" font-family="Helvetica,sans-Serif" font-size="11.00">project_id</text>
<polygon fill="none" stroke="black" points="336.5,-364 336.5,-386 488.5,-386 488.5,-364 336.5,-364"/>
<image xlink:href="../../images/foreignKeys.png" width="11px" height="12px" preserveAspectRatio="xMinYMin meet" x="341.5" y="-381"/>
<text text-anchor="start" x="362.5" y="-372.2" font-family="Helvetica,sans-Serif" font-size="11.00">report_frequency_id</text>
<polygon fill="none" stroke="black" points="336.5,-342 336.5,-364 488.5,-364 488.5,-342 336.5,-342"/>
<image xlink:href="../../images/foreignKeys.png" width="11px" height="12px" preserveAspectRatio="xMinYMin meet" x="341.5" y="-359"/>
<text text-anchor="start" x="362.5" y="-350.2" font-family="Helvetica,sans-Serif" font-size="11.00">report_quarter_id</text>
<polygon fill="none" stroke="black" points="336.5,-320 336.5,-342 488.5,-342 488.5,-320 336.5,-320"/>
<image xlink:href="../../images/foreignKeys.png" width="11px" height="12px" preserveAspectRatio="xMinYMin meet" x="341.5" y="-337"/>
<text text-anchor="start" x="362.5" y="-328.2" font-family="Helvetica,sans-Serif" font-size="11.00">published_by</text>
<polygon fill="none" stroke="black" points="336.5,-302 336.5,-320 488.5,-320 488.5,-302 336.5,-302"/>
<text text-anchor="start" x="339.5" y="-308.2" font-family="Helvetica,sans-Serif" font-size="11.00">...</text>
<polygon fill="#ffffff" stroke="transparent" points="336.5,-284 336.5,-302 405.5,-302 405.5,-284 336.5,-284"/>
<polygon fill="none" stroke="black" points="336.5,-284 336.5,-302 405.5,-302 405.5,-284 336.5,-284"/>
<text text-anchor="start" x="339.5" y="-290.2" font-family="Helvetica,sans-Serif" font-size="11.00">&lt; 5</text>
<polygon fill="#ffffff" stroke="transparent" points="405.5,-284 405.5,-302 442.5,-302 442.5,-284 405.5,-284"/>
<polygon fill="none" stroke="black" points="405.5,-284 405.5,-302 442.5,-302 442.5,-284 405.5,-284"/>
<text text-anchor="start" x="432.5" y="-290.2" font-family="Helvetica,sans-Serif" font-size="11.00"> &#160;</text>
<polygon fill="#ffffff" stroke="transparent" points="442.5,-284 442.5,-302 488.5,-302 488.5,-284 442.5,-284"/>
<polygon fill="none" stroke="black" points="442.5,-284 442.5,-302 488.5,-302 488.5,-284 442.5,-284"/>
<text text-anchor="start" x="469.5" y="-290.2" font-family="Helvetica,sans-Serif" font-size="11.00">5 &gt;</text>
</a>
</g>
</g>
<!-- published_report_achievements&#45;&gt;published_reports -->
<g id="edge1" class="edge">
<title>published_report_achievements:w&#45;&gt;published_reports:e</title>
<path fill="none" stroke="black" d="M615.08,-419C564.41,-419 546.62,-419 489.5,-419"/>
<polygon fill="black" stroke="black" points="621.5,-419 629.5,-422.6 625.5,-419 629.5,-419 629.5,-419 629.5,-419 625.5,-419 629.5,-415.4 621.5,-419 621.5,-419"/>
<ellipse fill="none" stroke="black" cx="618.3" cy="-419" rx="3.2" ry="3.2"/>
</g>
<!-- public.projects -->
<g id="node9" class="node">
<title>public.projects</title>
<g id="a_node9"><a xlink:href="../../../public/tables/projects.html" xlink:title="public.projects" target="_top">
<polygon fill="#ffffff" stroke="transparent" points="56.5,-427 56.5,-485 188.5,-485 188.5,-427 56.5,-427"/>
<polygon fill="#f5f5f5" stroke="transparent" points="56.5,-463 56.5,-485 188.5,-485 188.5,-463 56.5,-463"/>
<polygon fill="none" stroke="black" points="56.5,-463 56.5,-485 188.5,-485 188.5,-463 56.5,-463"/>
<text text-anchor="start" x="61.5" y="-472.2" font-family="Helvetica,sans-Serif" font-weight="bold" font-size="11.00">public.projects</text>
<text text-anchor="start" x="149.5" y="-471.2" font-family="Helvetica,sans-Serif" font-size="11.00">[table]</text>
<polygon fill="none" stroke="black" points="56.5,-445 56.5,-463 188.5,-463 188.5,-445 56.5,-445"/>
<text text-anchor="start" x="59.5" y="-451.2" font-family="Helvetica,sans-Serif" font-size="11.00">...</text>
<polygon fill="#ffffff" stroke="transparent" points="56.5,-427 56.5,-445 97.5,-445 97.5,-427 56.5,-427"/>
<polygon fill="none" stroke="black" points="56.5,-427 56.5,-445 97.5,-445 97.5,-427 56.5,-427"/>
<text text-anchor="start" x="59.5" y="-433.2" font-family="Helvetica,sans-Serif" font-size="11.00"> &#160;</text>
<polygon fill="#ffffff" stroke="transparent" points="97.5,-427 97.5,-445 151.5,-445 151.5,-427 97.5,-427"/>
<polygon fill="none" stroke="black" points="97.5,-427 97.5,-445 151.5,-445 151.5,-427 97.5,-427"/>
<text text-anchor="start" x="114.5" y="-433.2" font-family="Helvetica,sans-Serif" font-size="11.00">0 rows</text>
<polygon fill="#ffffff" stroke="transparent" points="151.5,-427 151.5,-445 188.5,-445 188.5,-427 151.5,-427"/>
<polygon fill="none" stroke="black" points="151.5,-427 151.5,-445 188.5,-445 188.5,-427 151.5,-427"/>
<text text-anchor="start" x="169.5" y="-433.2" font-family="Helvetica,sans-Serif" font-size="11.00">2 &gt;</text>
</a>
</g>
</g>
<!-- published_reports&#45;&gt;public.projects -->
<g id="edge10" class="edge">
<title>published_reports:w&#45;&gt;public.projects:e</title>
<path fill="none" stroke="black" d="M320.98,-397.9C264.5,-405.15 253.99,-454 189.5,-454"/>
<polygon fill="black" stroke="black" points="327.52,-397.49 335.72,-400.59 331.51,-397.25 335.5,-397 335.5,-397 335.5,-397 331.51,-397.25 335.28,-393.41 327.52,-397.49 327.52,-397.49"/>
<ellipse fill="none" stroke="black" cx="324.32" cy="-397.69" rx="3.2" ry="3.2"/>
</g>
<!-- public.users -->
<g id="node10" class="node">
<title>public.users</title>
<g id="a_node10"><a xlink:href="../../../public/tables/users.html" xlink:title="public.users" target="_top">
<polygon fill="#ffffff" stroke="transparent" points="64.5,-190 64.5,-248 180.5,-248 180.5,-190 64.5,-190"/>
<polygon fill="#f5f5f5" stroke="transparent" points="64.5,-226 64.5,-248 180.5,-248 180.5,-226 64.5,-226"/>
<polygon fill="none" stroke="black" points="64.5,-226 64.5,-248 180.5,-248 180.5,-226 64.5,-226"/>
<text text-anchor="start" x="69.5" y="-235.2" font-family="Helvetica,sans-Serif" font-weight="bold" font-size="11.00">public.users</text>
<text text-anchor="start" x="141.5" y="-234.2" font-family="Helvetica,sans-Serif" font-size="11.00">[table]</text>
<polygon fill="none" stroke="black" points="64.5,-208 64.5,-226 180.5,-226 180.5,-208 64.5,-208"/>
<text text-anchor="start" x="67.5" y="-214.2" font-family="Helvetica,sans-Serif" font-size="11.00">...</text>
<polygon fill="#ffffff" stroke="transparent" points="64.5,-190 64.5,-208 97.5,-208 97.5,-190 64.5,-190"/>
<polygon fill="none" stroke="black" points="64.5,-190 64.5,-208 97.5,-208 97.5,-190 64.5,-190"/>
<text text-anchor="start" x="67.5" y="-196.2" font-family="Helvetica,sans-Serif" font-size="11.00"> &#160;</text>
<polygon fill="#ffffff" stroke="transparent" points="97.5,-190 97.5,-208 147.5,-208 147.5,-190 97.5,-190"/>
<polygon fill="none" stroke="black" points="97.5,-190 97.5,-208 147.5,-208 147.5,-190 97.5,-190"/>
<text text-anchor="start" x="110.5" y="-196.2" font-family="Helvetica,sans-Serif" font-size="11.00">0 rows</text>
<polygon fill="#ffffff" stroke="transparent" points="147.5,-190 147.5,-208 180.5,-208 180.5,-190 147.5,-190"/>
<polygon fill="none" stroke="black" points="147.5,-190 147.5,-208 180.5,-208 180.5,-190 147.5,-190"/>
<text text-anchor="start" x="161.5" y="-196.2" font-family="Helvetica,sans-Serif" font-size="11.00">4 &gt;</text>
</a>
</g>
</g>
<!-- published_reports&#45;&gt;public.users -->
<g id="edge11" class="edge">
<title>published_reports:w&#45;&gt;public.users:e</title>
<path fill="none" stroke="black" d="M321.1,-329.8C251.95,-317.61 261.5,-217 181.5,-217"/>
<polygon fill="black" stroke="black" points="327.53,-330.33 335.2,-334.59 331.51,-330.67 335.5,-331 335.5,-331 335.5,-331 331.51,-330.67 335.8,-327.41 327.53,-330.33 327.53,-330.33"/>
<ellipse fill="none" stroke="black" cx="324.34" cy="-330.07" rx="3.2" ry="3.2"/>
</g>
<!-- accelerator.report_frequencies -->
<g id="node11" class="node">
<title>accelerator.report_frequencies</title>
<g id="a_node11"><a xlink:href="../../../accelerator/tables/report_frequencies.html" xlink:title="accelerator.report_frequencies" target="_top">
<polygon fill="#ffffff" stroke="transparent" points="8,-348 8,-406 237,-406 237,-348 8,-348"/>
<polygon fill="#f5f5f5" stroke="transparent" points="8.5,-384 8.5,-406 237.5,-406 237.5,-384 8.5,-384"/>
<polygon fill="none" stroke="black" points="8.5,-384 8.5,-406 237.5,-406 237.5,-384 8.5,-384"/>
<text text-anchor="start" x="13.5" y="-393.2" font-family="Helvetica,sans-Serif" font-weight="bold" font-size="11.00">accelerator.report_frequencies</text>
<text text-anchor="start" x="198.5" y="-392.2" font-family="Helvetica,sans-Serif" font-size="11.00">[table]</text>
<polygon fill="none" stroke="black" points="8.5,-366 8.5,-384 237.5,-384 237.5,-366 8.5,-366"/>
<text text-anchor="start" x="11.5" y="-372.2" font-family="Helvetica,sans-Serif" font-size="11.00">...</text>
<polygon fill="#ffffff" stroke="transparent" points="8.5,-348 8.5,-366 98.5,-366 98.5,-348 8.5,-348"/>
<polygon fill="none" stroke="black" points="8.5,-348 8.5,-366 98.5,-366 98.5,-348 8.5,-348"/>
<text text-anchor="start" x="11.5" y="-354.2" font-family="Helvetica,sans-Serif" font-size="11.00"> &#160;</text>
<polygon fill="#ffffff" stroke="transparent" points="98.5,-348 98.5,-366 176.5,-366 176.5,-348 98.5,-348"/>
<polygon fill="none" stroke="black" points="98.5,-348 98.5,-366 176.5,-366 176.5,-348 98.5,-348"/>
<text text-anchor="start" x="139.5" y="-354.2" font-family="Helvetica,sans-Serif" font-size="11.00">0 rows</text>
<polygon fill="#ffffff" stroke="transparent" points="176.5,-348 176.5,-366 237.5,-366 237.5,-348 176.5,-348"/>
<polygon fill="none" stroke="black" points="176.5,-348 176.5,-366 237.5,-366 237.5,-348 176.5,-348"/>
<text text-anchor="start" x="218.5" y="-354.2" font-family="Helvetica,sans-Serif" font-size="11.00">1 &gt;</text>
</a>
</g>
</g>
<!-- published_reports&#45;&gt;accelerator.report_frequencies -->
<g id="edge12" class="edge">
<title>published_reports:w&#45;&gt;accelerator.report_frequencies:e</title>
<path fill="none" stroke="black" d="M320.72,-375C289.19,-375 276.22,-375 238.5,-375"/>
<polygon fill="black" stroke="black" points="327.5,-375 335.5,-378.6 331.5,-375 335.5,-375 335.5,-375 335.5,-375 331.5,-375 335.5,-371.4 327.5,-375 327.5,-375"/>
<ellipse fill="none" stroke="black" cx="324.3" cy="-375" rx="3.2" ry="3.2"/>
</g>
<!-- accelerator.reports -->
<g id="node12" class="node">
<title>accelerator.reports</title>
<g id="a_node12"><a xlink:href="../../../accelerator/tables/reports.html" xlink:title="accelerator.reports" target="_top">
<polygon fill="#ffffff" stroke="transparent" points="43,-506 43,-564 202,-564 202,-506 43,-506"/>
<polygon fill="#f5f5f5" stroke="transparent" points="43.5,-542 43.5,-564 202.5,-564 202.5,-542 43.5,-542"/>
<polygon fill="none" stroke="black" points="43.5,-542 43.5,-564 202.5,-564 202.5,-542 43.5,-542"/>
<text text-anchor="start" x="48.5" y="-551.2" font-family="Helvetica,sans-Serif" font-weight="bold" font-size="11.00">accelerator.reports</text>
<text text-anchor="start" x="163.5" y="-550.2" font-family="Helvetica,sans-Serif" font-size="11.00">[table]</text>
<polygon fill="none" stroke="black" points="43.5,-524 43.5,-542 202.5,-542 202.5,-524 43.5,-524"/>
<text text-anchor="start" x="46.5" y="-530.2" font-family="Helvetica,sans-Serif" font-size="11.00">...</text>
<polygon fill="#ffffff" stroke="transparent" points="43.5,-506 43.5,-524 98.5,-524 98.5,-506 43.5,-506"/>
<polygon fill="none" stroke="black" points="43.5,-506 43.5,-524 98.5,-524 98.5,-506 43.5,-506"/>
<text text-anchor="start" x="46.5" y="-512.2" font-family="Helvetica,sans-Serif" font-size="11.00"> &#160;</text>
<polygon fill="#ffffff" stroke="transparent" points="98.5,-506 98.5,-524 159.5,-524 159.5,-506 98.5,-506"/>
<polygon fill="none" stroke="black" points="98.5,-506 98.5,-524 159.5,-524 159.5,-506 98.5,-506"/>
<text text-anchor="start" x="122.5" y="-512.2" font-family="Helvetica,sans-Serif" font-size="11.00">0 rows</text>
<polygon fill="#ffffff" stroke="transparent" points="159.5,-506 159.5,-524 202.5,-524 202.5,-506 159.5,-506"/>
<polygon fill="none" stroke="black" points="159.5,-506 159.5,-524 202.5,-524 202.5,-506 159.5,-506"/>
<text text-anchor="start" x="183.5" y="-512.2" font-family="Helvetica,sans-Serif" font-size="11.00">1 &gt;</text>
</a>
</g>
</g>
<!-- published_reports&#45;&gt;accelerator.reports -->
<g id="edge13" class="edge">
<title>published_reports:w&#45;&gt;accelerator.reports:e</title>
<path fill="none" stroke="black" d="M324.84,-419.79C259.99,-429.86 277.23,-533 203.5,-533"/>
<polygon fill="black" stroke="black" points="334.41,-415.07 335,-423.05 333.4,-423.17 332.81,-415.19 334.41,-415.07"/>
<polyline fill="none" stroke="black" points="335.5,-419 331.51,-419.3 "/>
<ellipse fill="none" stroke="black" cx="328.32" cy="-419.53" rx="3.2" ry="3.2"/>
</g>
<!-- accelerator.report_quarters -->
<g id="node13" class="node">
<title>accelerator.report_quarters</title>
<g id="a_node13"><a xlink:href="../../../accelerator/tables/report_quarters.html" xlink:title="accelerator.report_quarters" target="_top">
<polygon fill="#ffffff" stroke="transparent" points="17.5,-269 17.5,-327 227.5,-327 227.5,-269 17.5,-269"/>
<polygon fill="#f5f5f5" stroke="transparent" points="17.5,-305 17.5,-327 227.5,-327 227.5,-305 17.5,-305"/>
<polygon fill="none" stroke="black" points="17.5,-305 17.5,-327 227.5,-327 227.5,-305 17.5,-305"/>
<text text-anchor="start" x="22.5" y="-314.2" font-family="Helvetica,sans-Serif" font-weight="bold" font-size="11.00">accelerator.report_quarters</text>
<text text-anchor="start" x="188.5" y="-313.2" font-family="Helvetica,sans-Serif" font-size="11.00">[table]</text>
<polygon fill="none" stroke="black" points="17.5,-287 17.5,-305 227.5,-305 227.5,-287 17.5,-287"/>
<text text-anchor="start" x="20.5" y="-293.2" font-family="Helvetica,sans-Serif" font-size="11.00">...</text>
<polygon fill="#ffffff" stroke="transparent" points="17.5,-269 17.5,-287 97.5,-287 97.5,-269 17.5,-269"/>
<polygon fill="none" stroke="black" points="17.5,-269 17.5,-287 97.5,-287 97.5,-269 17.5,-269"/>
<text text-anchor="start" x="20.5" y="-275.2" font-family="Helvetica,sans-Serif" font-size="11.00"> &#160;</text>
<polygon fill="#ffffff" stroke="transparent" points="97.5,-269 97.5,-287 171.5,-287 171.5,-269 97.5,-269"/>
<polygon fill="none" stroke="black" points="97.5,-269 97.5,-287 171.5,-287 171.5,-269 97.5,-269"/>
<text text-anchor="start" x="134.5" y="-275.2" font-family="Helvetica,sans-Serif" font-size="11.00">0 rows</text>
<polygon fill="#ffffff" stroke="transparent" points="171.5,-269 171.5,-287 227.5,-287 227.5,-269 171.5,-269"/>
<polygon fill="none" stroke="black" points="171.5,-269 171.5,-287 227.5,-287 227.5,-269 171.5,-269"/>
<text text-anchor="start" x="208.5" y="-275.2" font-family="Helvetica,sans-Serif" font-size="11.00">1 &gt;</text>
</a>
</g>
</g>
<!-- published_reports&#45;&gt;accelerator.report_quarters -->
<g id="edge14" class="edge">
<title>published_reports:w&#45;&gt;accelerator.report_quarters:e</title>
<path fill="none" stroke="black" d="M321.18,-351.48C281.25,-342.41 277.12,-296 228.5,-296"/>
<polygon fill="black" stroke="black" points="327.54,-352.15 335.12,-356.58 331.52,-352.58 335.5,-353 335.5,-353 335.5,-353 331.52,-352.58 335.88,-349.42 327.54,-352.15 327.54,-352.15"/>
<ellipse fill="none" stroke="black" cx="324.36" cy="-351.81" rx="3.2" ry="3.2"/>
</g>
<!-- published_report_challenges -->
<g id="node3" class="node">
<title>published_report_challenges</title>
<g id="a_node3"><a xlink:href="../../tables/published_report_challenges.html" xlink:title="published_report_challenges" target="_top">
<polygon fill="#ffffff" stroke="transparent" points="640.5,-471 640.5,-529 854.5,-529 854.5,-471 640.5,-471"/>
<polygon fill="#f5f5f5" stroke="transparent" points="640.5,-507 640.5,-529 854.5,-529 854.5,-507 640.5,-507"/>
<polygon fill="none" stroke="black" points="640.5,-507 640.5,-529 854.5,-529 854.5,-507 640.5,-507"/>
<text text-anchor="start" x="645.5" y="-516.2" font-family="Helvetica,sans-Serif" font-weight="bold" font-size="11.00">published_report_challenges</text>
<text text-anchor="start" x="815.5" y="-515.2" font-family="Helvetica,sans-Serif" font-size="11.00">[table]</text>
<polygon fill="none" stroke="black" points="640.5,-489 640.5,-507 854.5,-507 854.5,-489 640.5,-489"/>
<text text-anchor="start" x="643.5" y="-495.2" font-family="Helvetica,sans-Serif" font-size="11.00">...</text>
<polygon fill="#ffffff" stroke="transparent" points="640.5,-471 640.5,-489 745.5,-489 745.5,-471 640.5,-471"/>
<polygon fill="none" stroke="black" points="640.5,-471 640.5,-489 745.5,-489 745.5,-471 640.5,-471"/>
<text text-anchor="start" x="643.5" y="-477.2" font-family="Helvetica,sans-Serif" font-size="11.00">&lt; 1</text>
<polygon fill="#ffffff" stroke="transparent" points="745.5,-471 745.5,-489 799.5,-489 799.5,-471 745.5,-471"/>
<polygon fill="none" stroke="black" points="745.5,-471 745.5,-489 799.5,-489 799.5,-471 745.5,-471"/>
<text text-anchor="start" x="789.5" y="-477.2" font-family="Helvetica,sans-Serif" font-size="11.00"> &#160;</text>
<polygon fill="#ffffff" stroke="transparent" points="799.5,-471 799.5,-489 854.5,-489 854.5,-471 799.5,-471"/>
<polygon fill="none" stroke="black" points="799.5,-471 799.5,-489 854.5,-489 854.5,-471 799.5,-471"/>
<text text-anchor="start" x="844.5" y="-477.2" font-family="Helvetica,sans-Serif" font-size="11.00"> &#160;</text>
</a>
</g>
</g>
<!-- published_report_challenges&#45;&gt;published_reports -->
<g id="edge2" class="edge">
<title>published_report_challenges:w&#45;&gt;published_reports:e</title>
<path fill="none" stroke="black" d="M625.07,-496.94C563.89,-487.57 559.7,-419 489.5,-419"/>
<polygon fill="black" stroke="black" points="631.52,-497.42 639.24,-501.59 635.51,-497.71 639.5,-498 639.5,-498 639.5,-498 635.51,-497.71 639.76,-494.41 631.52,-497.42 631.52,-497.42"/>
<ellipse fill="none" stroke="black" cx="628.33" cy="-497.18" rx="3.2" ry="3.2"/>
</g>
<!-- published_report_project_metrics -->
<g id="node4" class="node">
<title>published_report_project_metrics</title>
<g id="a_node4"><a xlink:href="../../tables/published_report_project_metrics.html" xlink:title="published_report_project_metrics" target="_top">
<polygon fill="#ffffff" stroke="transparent" points="626,-234 626,-292 869,-292 869,-234 626,-234"/>
<polygon fill="#f5f5f5" stroke="transparent" points="626.5,-270 626.5,-292 869.5,-292 869.5,-270 626.5,-270"/>
<polygon fill="none" stroke="black" points="626.5,-270 626.5,-292 869.5,-292 869.5,-270 626.5,-270"/>
<text text-anchor="start" x="631.5" y="-279.2" font-family="Helvetica,sans-Serif" font-weight="bold" font-size="11.00">published_report_project_metrics</text>
<text text-anchor="start" x="830.5" y="-278.2" font-family="Helvetica,sans-Serif" font-size="11.00">[table]</text>
<polygon fill="none" stroke="black" points="626.5,-252 626.5,-270 869.5,-270 869.5,-252 626.5,-252"/>
<text text-anchor="start" x="629.5" y="-258.2" font-family="Helvetica,sans-Serif" font-size="11.00">...</text>
<polygon fill="#ffffff" stroke="transparent" points="626.5,-234 626.5,-252 745.5,-252 745.5,-234 626.5,-234"/>
<polygon fill="none" stroke="black" points="626.5,-234 626.5,-252 745.5,-252 745.5,-234 626.5,-234"/>
<text text-anchor="start" x="629.5" y="-240.2" font-family="Helvetica,sans-Serif" font-size="11.00">&lt; 3</text>
<polygon fill="#ffffff" stroke="transparent" points="745.5,-234 745.5,-252 807.5,-252 807.5,-234 745.5,-234"/>
<polygon fill="none" stroke="black" points="745.5,-234 745.5,-252 807.5,-252 807.5,-234 745.5,-234"/>
<text text-anchor="start" x="797.5" y="-240.2" font-family="Helvetica,sans-Serif" font-size="11.00"> &#160;</text>
<polygon fill="#ffffff" stroke="transparent" points="807.5,-234 807.5,-252 869.5,-252 869.5,-234 807.5,-234"/>
<polygon fill="none" stroke="black" points="807.5,-234 807.5,-252 869.5,-252 869.5,-234 807.5,-234"/>
<text text-anchor="start" x="859.5" y="-240.2" font-family="Helvetica,sans-Serif" font-size="11.00"> &#160;</text>
</a>
</g>
</g>
<!-- published_report_project_metrics&#45;&gt;published_reports -->
<g id="edge3" class="edge">
<title>published_report_project_metrics:w&#45;&gt;published_reports:e</title>
<path fill="none" stroke="black" d="M611.07,-262.46C537.98,-278.39 576.91,-419 489.5,-419"/>
<polygon fill="black" stroke="black" points="617.54,-261.81 625.86,-264.58 621.52,-261.4 625.5,-261 625.5,-261 625.5,-261 621.52,-261.4 625.14,-257.42 617.54,-261.81 617.54,-261.81"/>
<ellipse fill="none" stroke="black" cx="614.36" cy="-262.13" rx="3.2" ry="3.2"/>
</g>
<!-- accelerator.report_metric_statuses -->
<g id="node5" class="node">
<title>accelerator.report_metric_statuses</title>
<g id="a_node5"><a xlink:href="../../../accelerator/tables/report_metric_statuses.html" xlink:title="accelerator.report_metric_statuses" target="_top">
<polygon fill="#ffffff" stroke="transparent" points="286,-205 286,-263 539,-263 539,-205 286,-205"/>
<polygon fill="#f5f5f5" stroke="transparent" points="286.5,-241 286.5,-263 539.5,-263 539.5,-241 286.5,-241"/>
<polygon fill="none" stroke="black" points="286.5,-241 286.5,-263 539.5,-263 539.5,-241 286.5,-241"/>
<text text-anchor="start" x="291.5" y="-250.2" font-family="Helvetica,sans-Serif" font-weight="bold" font-size="11.00">accelerator.report_metric_statuses</text>
<text text-anchor="start" x="500.5" y="-249.2" font-family="Helvetica,sans-Serif" font-size="11.00">[table]</text>
<polygon fill="none" stroke="black" points="286.5,-223 286.5,-241 539.5,-241 539.5,-223 286.5,-223"/>
<text text-anchor="start" x="289.5" y="-229.2" font-family="Helvetica,sans-Serif" font-size="11.00">...</text>
<polygon fill="#ffffff" stroke="transparent" points="286.5,-205 286.5,-223 388.5,-223 388.5,-205 286.5,-205"/>
<polygon fill="none" stroke="black" points="286.5,-205 286.5,-223 388.5,-223 388.5,-205 286.5,-205"/>
<text text-anchor="start" x="289.5" y="-211.2" font-family="Helvetica,sans-Serif" font-size="11.00"> &#160;</text>
<polygon fill="#ffffff" stroke="transparent" points="388.5,-205 388.5,-223 472.5,-223 472.5,-205 388.5,-205"/>
<polygon fill="none" stroke="black" points="388.5,-205 388.5,-223 472.5,-223 472.5,-205 388.5,-205"/>
<text text-anchor="start" x="435.5" y="-211.2" font-family="Helvetica,sans-Serif" font-size="11.00">0 rows</text>
<polygon fill="#ffffff" stroke="transparent" points="472.5,-205 472.5,-223 539.5,-223 539.5,-205 472.5,-205"/>
<polygon fill="none" stroke="black" points="472.5,-205 472.5,-223 539.5,-223 539.5,-205 472.5,-205"/>
<text text-anchor="start" x="520.5" y="-211.2" font-family="Helvetica,sans-Serif" font-size="11.00">3 &gt;</text>
</a>
</g>
</g>
<!-- published_report_project_metrics&#45;&gt;accelerator.report_metric_statuses -->
<g id="edge4" class="edge">
<title>published_report_project_metrics:w&#45;&gt;accelerator.report_metric_statuses:e</title>
<path fill="none" stroke="black" d="M611.05,-260.8C590,-260.24 568.23,-258.54 547.18,-256.24"/>
<polygon fill="black" stroke="black" points="617.5,-260.89 625.45,-264.6 621.5,-260.95 625.5,-261 625.5,-261 625.5,-261 621.5,-260.95 625.55,-257.4 617.5,-260.89 617.5,-260.89"/>
<ellipse fill="none" stroke="black" cx="614.3" cy="-260.85" rx="3.2" ry="3.2"/>
</g>
<!-- published_report_standard_metrics -->
<g id="node6" class="node">
<title>published_report_standard_metrics</title>
<g id="a_node6"><a xlink:href="../../tables/published_report_standard_metrics.html" xlink:title="published_report_standard_metrics" target="_top">
<polygon fill="#ffffff" stroke="transparent" points="620,-313 620,-371 875,-371 875,-313 620,-313"/>
<polygon fill="#f5f5f5" stroke="transparent" points="620.5,-349 620.5,-371 875.5,-371 875.5,-349 620.5,-349"/>
<polygon fill="none" stroke="black" points="620.5,-349 620.5,-371 875.5,-371 875.5,-349 620.5,-349"/>
<text text-anchor="start" x="625.5" y="-358.2" font-family="Helvetica,sans-Serif" font-weight="bold" font-size="11.00">published_report_standard_metrics</text>
<text text-anchor="start" x="836.5" y="-357.2" font-family="Helvetica,sans-Serif" font-size="11.00">[table]</text>
<polygon fill="none" stroke="black" points="620.5,-331 620.5,-349 875.5,-349 875.5,-331 620.5,-331"/>
<text text-anchor="start" x="623.5" y="-337.2" font-family="Helvetica,sans-Serif" font-size="11.00">...</text>
<polygon fill="#ffffff" stroke="transparent" points="620.5,-313 620.5,-331 745.5,-331 745.5,-313 620.5,-313"/>
<polygon fill="none" stroke="black" points="620.5,-313 620.5,-331 745.5,-331 745.5,-313 620.5,-313"/>
<text text-anchor="start" x="623.5" y="-319.2" font-family="Helvetica,sans-Serif" font-size="11.00">&lt; 3</text>
<polygon fill="#ffffff" stroke="transparent" points="745.5,-313 745.5,-331 810.5,-331 810.5,-313 745.5,-313"/>
<polygon fill="none" stroke="black" points="745.5,-313 745.5,-331 810.5,-331 810.5,-313 745.5,-313"/>
<text text-anchor="start" x="800.5" y="-319.2" font-family="Helvetica,sans-Serif" font-size="11.00"> &#160;</text>
<polygon fill="#ffffff" stroke="transparent" points="810.5,-313 810.5,-331 875.5,-331 875.5,-313 810.5,-313"/>
<polygon fill="none" stroke="black" points="810.5,-313 810.5,-331 875.5,-331 875.5,-313 810.5,-313"/>
<text text-anchor="start" x="865.5" y="-319.2" font-family="Helvetica,sans-Serif" font-size="11.00"> &#160;</text>
</a>
</g>
</g>
<!-- published_report_standard_metrics&#45;&gt;published_reports -->
<g id="edge5" class="edge">
<title>published_report_standard_metrics:w&#45;&gt;published_reports:e</title>
<path fill="none" stroke="black" d="M604.92,-341.37C552.26,-351.86 551.83,-419 489.5,-419"/>
<polygon fill="black" stroke="black" points="611.54,-340.75 619.84,-343.58 615.52,-340.37 619.5,-340 619.5,-340 619.5,-340 615.52,-340.37 619.16,-336.42 611.54,-340.75 611.54,-340.75"/>
<ellipse fill="none" stroke="black" cx="608.35" cy="-341.05" rx="3.2" ry="3.2"/>
</g>
<!-- published_report_standard_metrics&#45;&gt;accelerator.report_metric_statuses -->
<g id="edge6" class="edge">
<title>published_report_standard_metrics:w&#45;&gt;accelerator.report_metric_statuses:e</title>
<path fill="none" stroke="black" d="M605.06,-337.92C577.47,-328.9 580.04,-292.69 547,-274 542.68,-271.56 538.2,-269.25 533.61,-267.07"/>
<polygon fill="black" stroke="black" points="611.58,-338.86 618.99,-343.56 615.54,-339.43 619.5,-340 619.5,-340 619.5,-340 615.54,-339.43 620.01,-336.44 611.58,-338.86 611.58,-338.86"/>
<ellipse fill="none" stroke="black" cx="608.41" cy="-338.41" rx="3.2" ry="3.2"/>
</g>
<!-- published_report_system_metrics -->
<g id="node7" class="node">
<title>published_report_system_metrics</title>
<g id="a_node7"><a xlink:href="../../tables/published_report_system_metrics.html" xlink:title="published_report_system_metrics" target="_top">
<polygon fill="#ffffff" stroke="transparent" points="588,-37 588,-213 907,-213 907,-37 588,-37"/>
<polygon fill="#f5f5f5" stroke="transparent" points="590.5,-189 590.5,-211 905.5,-211 905.5,-189 590.5,-189"/>
<polygon fill="none" stroke="black" points="590.5,-189 590.5,-211 905.5,-211 905.5,-189 590.5,-189"/>
<text text-anchor="start" x="595.5" y="-198.2" font-family="Helvetica,sans-Serif" font-weight="bold" font-size="11.00">published_report_system_metrics</text>
<text text-anchor="start" x="866.5" y="-197.2" font-family="Helvetica,sans-Serif" font-size="11.00">[table]</text>
<polygon fill="none" stroke="black" points="590.5,-167 590.5,-189 811.5,-189 811.5,-167 590.5,-167"/>
<image xlink:href="../../images/primaryKeys.png" width="11px" height="12px" preserveAspectRatio="xMinYMin meet" x="595.5" y="-184"/>
<text text-anchor="start" x="610.5" y="-175.2" font-family="Helvetica,sans-Serif" font-size="11.00">report_id</text>
<polygon fill="none" stroke="black" points="811.5,-167 811.5,-189 905.5,-189 905.5,-167 811.5,-167"/>
<text text-anchor="start" x="814.5" y="-175.2" font-family="Helvetica,sans-Serif" font-size="11.00">int8[19]</text>
<polygon fill="none" stroke="black" points="590.5,-145 590.5,-167 811.5,-167 811.5,-145 590.5,-145"/>
<image xlink:href="../../images/primaryKeys.png" width="11px" height="12px" preserveAspectRatio="xMinYMin meet" x="595.5" y="-162"/>
<text text-anchor="start" x="610.5" y="-153.2" font-family="Helvetica,sans-Serif" font-size="11.00">system_metric_id</text>
<polygon fill="none" stroke="black" points="811.5,-145 811.5,-167 905.5,-167 905.5,-145 811.5,-145"/>
<text text-anchor="start" x="814.5" y="-153.2" font-family="Helvetica,sans-Serif" font-size="11.00">int4[10]</text>
<polygon fill="none" stroke="black" points="590.5,-123 590.5,-145 811.5,-145 811.5,-123 590.5,-123"/>
<text text-anchor="start" x="610.5" y="-131.2" font-family="Helvetica,sans-Serif" font-size="11.00">target</text>
<polygon fill="none" stroke="black" points="811.5,-123 811.5,-145 905.5,-145 905.5,-123 811.5,-123"/>
<text text-anchor="start" x="814.5" y="-131.2" font-family="Helvetica,sans-Serif" font-size="11.00">int4[10]</text>
<polygon fill="none" stroke="black" points="590.5,-101 590.5,-123 811.5,-123 811.5,-101 590.5,-101"/>
<text text-anchor="start" x="610.5" y="-109.2" font-family="Helvetica,sans-Serif" font-size="11.00">value</text>
<polygon fill="none" stroke="black" points="811.5,-101 811.5,-123 905.5,-123 905.5,-101 811.5,-101"/>
<text text-anchor="start" x="814.5" y="-109.2" font-family="Helvetica,sans-Serif" font-size="11.00">int4[10]</text>
<polygon fill="none" stroke="black" points="590.5,-79 590.5,-101 811.5,-101 811.5,-79 590.5,-79"/>
<text text-anchor="start" x="610.5" y="-87.2" font-family="Helvetica,sans-Serif" font-size="11.00">underperformance_justification</text>
<polygon fill="none" stroke="black" points="811.5,-79 811.5,-101 905.5,-101 905.5,-79 811.5,-79"/>
<text text-anchor="start" x="814.5" y="-87.2" font-family="Helvetica,sans-Serif" font-size="11.00">text[2147483647]</text>
<polygon fill="none" stroke="black" points="590.5,-57 590.5,-79 811.5,-79 811.5,-57 590.5,-57"/>
<image xlink:href="../../images/foreignKeys.png" width="11px" height="12px" preserveAspectRatio="xMinYMin meet" x="595.5" y="-74"/>
<text text-anchor="start" x="610.5" y="-65.2" font-family="Helvetica,sans-Serif" font-size="11.00">status_id</text>
<polygon fill="none" stroke="black" points="811.5,-57 811.5,-79 905.5,-79 905.5,-57 811.5,-57"/>
<text text-anchor="start" x="814.5" y="-65.2" font-family="Helvetica,sans-Serif" font-size="11.00">int4[10]</text>
<polygon fill="#ffffff" stroke="transparent" points="590.5,-39 590.5,-57 705.5,-57 705.5,-39 590.5,-39"/>
<polygon fill="none" stroke="black" points="590.5,-39 590.5,-57 705.5,-57 705.5,-39 590.5,-39"/>
<text text-anchor="start" x="593.5" y="-45.2" font-family="Helvetica,sans-Serif" font-size="11.00">&lt; 3</text>
<polygon fill="#ffffff" stroke="transparent" points="705.5,-39 705.5,-57 811.5,-57 811.5,-39 705.5,-39"/>
<polygon fill="none" stroke="black" points="705.5,-39 705.5,-57 811.5,-57 811.5,-39 705.5,-39"/>
<text text-anchor="start" x="801.5" y="-45.2" font-family="Helvetica,sans-Serif" font-size="11.00"> &#160;</text>
<polygon fill="#ffffff" stroke="transparent" points="811.5,-39 811.5,-57 905.5,-57 905.5,-39 811.5,-39"/>
<polygon fill="none" stroke="black" points="811.5,-39 811.5,-57 905.5,-57 905.5,-39 811.5,-39"/>
<text text-anchor="start" x="886.5" y="-45.2" font-family="Helvetica,sans-Serif" font-size="11.00">0 &gt;</text>
<polygon fill="none" stroke="black" stroke-width="2" points="589,-38 589,-212 906,-212 906,-38 589,-38"/>
</a>
</g>
</g>
<!-- published_report_system_metrics&#45;&gt;published_reports -->
<g id="edge7" class="edge">
<title>published_report_system_metrics:w&#45;&gt;published_reports:e</title>
<path fill="none" stroke="black" d="M581,-189.62C557.14,-237.76 502.07,-419 489.5,-419"/>
<polygon fill="black" stroke="black" points="584.78,-184.46 592.41,-180.13 587.14,-181.23 589.5,-178 589.5,-178 589.5,-178 587.14,-181.23 586.59,-175.87 584.78,-184.46 584.78,-184.46"/>
<ellipse fill="none" stroke="black" cx="582.89" cy="-187.04" rx="3.2" ry="3.2"/>
</g>
<!-- published_report_system_metrics&#45;&gt;accelerator.report_metric_statuses -->
<g id="edge8" class="edge">
<title>published_report_system_metrics:w&#45;&gt;accelerator.report_metric_statuses:e</title>
<path fill="none" stroke="black" d="M575.27,-70.33C540.7,-84.32 585.71,-157.76 547,-195 544.82,-197.09 542.54,-199.07 540.17,-200.95"/>
<polygon fill="black" stroke="black" points="581.61,-69.29 590.08,-71.55 585.55,-68.65 589.5,-68 589.5,-68 589.5,-68 585.55,-68.65 588.92,-64.45 581.61,-69.29 581.61,-69.29"/>
<ellipse fill="none" stroke="black" cx="578.45" cy="-69.81" rx="3.2" ry="3.2"/>
</g>
<!-- accelerator.system_metrics -->
<g id="node8" class="node">
<title>accelerator.system_metrics</title>
<g id="a_node8"><a xlink:href="../../../accelerator/tables/system_metrics.html" xlink:title="accelerator.system_metrics" target="_top">
<polygon fill="#ffffff" stroke="transparent" points="308.5,-126 308.5,-184 516.5,-184 516.5,-126 308.5,-126"/>
<polygon fill="#f5f5f5" stroke="transparent" points="308.5,-162 308.5,-184 516.5,-184 516.5,-162 308.5,-162"/>
<polygon fill="none" stroke="black" points="308.5,-162 308.5,-184 516.5,-184 516.5,-162 308.5,-162"/>
<text text-anchor="start" x="313.5" y="-171.2" font-family="Helvetica,sans-Serif" font-weight="bold" font-size="11.00">accelerator.system_metrics</text>
<text text-anchor="start" x="477.5" y="-170.2" font-family="Helvetica,sans-Serif" font-size="11.00">[table]</text>
<polygon fill="none" stroke="black" points="308.5,-144 308.5,-162 516.5,-162 516.5,-144 308.5,-144"/>
<text text-anchor="start" x="311.5" y="-150.2" font-family="Helvetica,sans-Serif" font-size="11.00">...</text>
<polygon fill="#ffffff" stroke="transparent" points="308.5,-126 308.5,-144 387.5,-144 387.5,-126 308.5,-126"/>
<polygon fill="none" stroke="black" points="308.5,-126 308.5,-144 387.5,-144 387.5,-126 308.5,-126"/>
<text text-anchor="start" x="311.5" y="-132.2" font-family="Helvetica,sans-Serif" font-size="11.00"> &#160;</text>
<polygon fill="#ffffff" stroke="transparent" points="387.5,-126 387.5,-144 460.5,-144 460.5,-126 387.5,-126"/>
<polygon fill="none" stroke="black" points="387.5,-126 387.5,-144 460.5,-144 460.5,-126 387.5,-126"/>
<text text-anchor="start" x="423.5" y="-132.2" font-family="Helvetica,sans-Serif" font-size="11.00">0 rows</text>
<polygon fill="#ffffff" stroke="transparent" points="460.5,-126 460.5,-144 516.5,-144 516.5,-126 460.5,-126"/>
<polygon fill="none" stroke="black" points="460.5,-126 460.5,-144 516.5,-144 516.5,-126 460.5,-126"/>
<text text-anchor="start" x="497.5" y="-132.2" font-family="Helvetica,sans-Serif" font-size="11.00">1 &gt;</text>
</a>
</g>
</g>
<!-- published_report_system_metrics&#45;&gt;accelerator.system_metrics -->
<g id="edge9" class="edge">
<title>published_report_system_metrics:w&#45;&gt;accelerator.system_metrics:e</title>
<path fill="none" stroke="black" d="M575.08,-155.99C558.49,-155.97 541.37,-155.9 524.76,-155.82"/>
<polygon fill="black" stroke="black" points="581.5,-155.99 589.5,-159.6 585.5,-156 589.5,-156 589.5,-156 589.5,-156 585.5,-156 589.5,-152.4 581.5,-155.99 581.5,-155.99"/>
<ellipse fill="none" stroke="black" cx="578.3" cy="-155.99" rx="3.2" ry="3.2"/>
</g>
</g>
</svg>
