<?xml version="1.0" encoding="UTF-8" standalone="no"?>
<!DOCTYPE svg PUBLIC "-//W3C//DTD SVG 1.1//EN"
 "http://www.w3.org/Graphics/SVG/1.1/DTD/svg11.dtd">
<!-- Generated by graphviz version 2.38.0 (20140413.2041)
 -->
<!-- Title: twoDegreesRelationshipsDiagram Pages: 1 -->
<svg width="1155pt" height="740pt"
 viewBox="0.00 0.00 1155.00 740.38" xmlns="http://www.w3.org/2000/svg" xmlns:xlink="http://www.w3.org/1999/xlink">
<g id="graph0" class="graph" transform="scale(1 1) rotate(0) translate(4 736.384)">
<title>twoDegreesRelationshipsDiagram</title>
<polygon fill="#ffffff" stroke="none" points="-4,4 -4,-736.384 1151,-736.384 1151,4 -4,4"/>
<text text-anchor="middle" x="74.5" y="-7.2" font-family="Helvetica,sans-Serif" font-size="11.00">Generated by SchemaSpy</text>
<!-- nursery.batches -->
<g id="node1" class="node"><title>nursery.batches</title>
<g id="a_node1"><a xlink:href="../../../nursery/tables/batches.html" xlink:title="nursery.batches" target="_top">
<polygon fill="#ffffff" stroke="none" points="953,-661 953,-719 1094,-719 1094,-661 953,-661"/>
<polygon fill="#f5f5f5" stroke="none" points="953.5,-697 953.5,-719 1094.5,-719 1094.5,-697 953.5,-697"/>
<polygon fill="none" stroke="black" points="953.5,-697 953.5,-719 1094.5,-719 1094.5,-697 953.5,-697"/>
<text text-anchor="start" x="958.5" y="-706.2" font-family="Helvetica,sans-Serif" font-weight="bold" font-size="11.00">nursery.batches</text>
<text text-anchor="start" x="1055.5" y="-705.2" font-family="Helvetica,sans-Serif" font-size="11.00">[table]</text>
<polygon fill="none" stroke="black" points="953.5,-679 953.5,-697 1094.5,-697 1094.5,-679 953.5,-679"/>
<text text-anchor="start" x="956.5" y="-685.2" font-family="Helvetica,sans-Serif" font-size="11.00">...</text>
<polygon fill="#ffffff" stroke="none" points="953.5,-661 953.5,-679 1007.5,-679 1007.5,-661 953.5,-661"/>
<polygon fill="none" stroke="black" points="953.5,-661 953.5,-679 1007.5,-679 1007.5,-661 953.5,-661"/>
<text text-anchor="start" x="956.5" y="-667.2" font-family="Helvetica,sans-Serif" font-size="11.00">&lt; 4</text>
<polygon fill="#ffffff" stroke="none" points="1007.5,-661 1007.5,-679 1065.5,-679 1065.5,-661 1007.5,-661"/>
<polygon fill="none" stroke="black" points="1007.5,-661 1007.5,-679 1065.5,-679 1065.5,-661 1007.5,-661"/>
<text text-anchor="start" x="1026.5" y="-667.2" font-family="Helvetica,sans-Serif" font-size="11.00">0 rows</text>
<polygon fill="#ffffff" stroke="none" points="1065.5,-661 1065.5,-679 1094.5,-679 1094.5,-661 1065.5,-661"/>
<polygon fill="none" stroke="black" points="1065.5,-661 1065.5,-679 1094.5,-679 1094.5,-661 1065.5,-661"/>
<text text-anchor="start" x="1084.5" y="-667.2" font-family="Helvetica,sans-Serif" font-size="11.00"> &#160;</text>
</a>
</g>
</g>
<!-- users -->
<g id="node2" class="node"><title>users</title>
<g id="a_node2"><a xlink:href="../../tables/users.html" xlink:title="users" target="_top">
<polygon fill="#ffffff" stroke="none" points="279.5,-325 279.5,-383 369.5,-383 369.5,-325 279.5,-325"/>
<polygon fill="#f5f5f5" stroke="none" points="279.5,-361 279.5,-383 369.5,-383 369.5,-361 279.5,-361"/>
<polygon fill="none" stroke="black" points="279.5,-361 279.5,-383 369.5,-383 369.5,-361 279.5,-361"/>
<text text-anchor="start" x="284.5" y="-370.2" font-family="Helvetica,sans-Serif" font-weight="bold" font-size="11.00">users</text>
<text text-anchor="start" x="330.5" y="-369.2" font-family="Helvetica,sans-Serif" font-size="11.00">[table]</text>
<polygon fill="none" stroke="black" points="279.5,-343 279.5,-361 369.5,-361 369.5,-343 279.5,-343"/>
<text text-anchor="start" x="282.5" y="-349.2" font-family="Helvetica,sans-Serif" font-size="11.00">...</text>
<polygon fill="#ffffff" stroke="none" points="279.5,-325 279.5,-343 302.5,-343 302.5,-325 279.5,-325"/>
<polygon fill="none" stroke="black" points="279.5,-325 279.5,-343 302.5,-343 302.5,-325 279.5,-325"/>
<text text-anchor="start" x="282.5" y="-331.2" font-family="Helvetica,sans-Serif" font-size="11.00">&lt; 1</text>
<polygon fill="#ffffff" stroke="none" points="302.5,-325 302.5,-343 339.5,-343 339.5,-325 302.5,-325"/>
<polygon fill="none" stroke="black" points="302.5,-325 302.5,-343 339.5,-343 339.5,-325 302.5,-325"/>
<text text-anchor="start" x="305.5" y="-331.2" font-family="Helvetica,sans-Serif" font-size="11.00">1 row</text>
<polygon fill="#ffffff" stroke="none" points="339.5,-325 339.5,-343 369.5,-343 369.5,-325 339.5,-325"/>
<polygon fill="none" stroke="black" points="339.5,-325 339.5,-343 369.5,-343 369.5,-325 339.5,-325"/>
<text text-anchor="start" x="342.5" y="-331.2" font-family="Helvetica,sans-Serif" font-size="11.00">39 &gt;</text>
</a>
</g>
</g>
<!-- nursery.batches&#45;&gt;users -->
<g id="edge1" class="edge"><title>nursery.batches:elipses:w&#45;&gt;users:elipses:e</title>
<path fill="none" stroke="black" d="M937.899,-688.509C911.057,-690.492 899.896,-697.703 867,-700 680.793,-713.003 575.755,-787.942 450,-650 357.651,-548.701 507.577,-352 370.5,-352"/>
<polygon fill="black" stroke="black" points="944.505,-688.279 952.625,-691.598 948.502,-688.139 952.5,-688 952.5,-688 952.5,-688 948.502,-688.139 952.375,-684.402 944.505,-688.279 944.505,-688.279"/>
<ellipse fill="none" stroke="black" cx="941.307" cy="-688.39" rx="3.2" ry="3.2"/>
</g>
<!-- nursery.batches&#45;&gt;users -->
<g id="edge3" class="edge"><title>nursery.batches:elipses:w&#45;&gt;users:elipses:e</title>
<path fill="none" stroke="black" d="M937.956,-688.339C911.172,-689.662 899.763,-694.471 867,-696 680.542,-704.704 575.894,-783.815 450,-646 358.707,-546.061 505.86,-352 370.5,-352"/>
<polygon fill="black" stroke="black" points="944.502,-688.187 952.584,-691.599 948.501,-688.093 952.5,-688 952.5,-688 952.5,-688 948.501,-688.093 952.416,-684.401 944.502,-688.187 944.502,-688.187"/>
<ellipse fill="none" stroke="black" cx="941.303" cy="-688.261" rx="3.2" ry="3.2"/>
</g>
<!-- facilities -->
<g id="node3" class="node"><title>facilities</title>
<g id="a_node3"><a xlink:href="../../tables/facilities.html" xlink:title="facilities" target="_top">
<polygon fill="#ffffff" stroke="none" points="721,-631 721,-689 819,-689 819,-631 721,-631"/>
<polygon fill="#f5f5f5" stroke="none" points="721,-667 721,-689 819,-689 819,-667 721,-667"/>
<polygon fill="none" stroke="black" points="721,-667 721,-689 819,-689 819,-667 721,-667"/>
<text text-anchor="start" x="726" y="-676.2" font-family="Helvetica,sans-Serif" font-weight="bold" font-size="11.00">facilities</text>
<text text-anchor="start" x="780" y="-675.2" font-family="Helvetica,sans-Serif" font-size="11.00">[table]</text>
<polygon fill="none" stroke="black" points="721,-649 721,-667 819,-667 819,-649 721,-649"/>
<text text-anchor="start" x="724" y="-655.2" font-family="Helvetica,sans-Serif" font-size="11.00">...</text>
<polygon fill="#ffffff" stroke="none" points="721,-631 721,-649 749,-649 749,-631 721,-631"/>
<polygon fill="none" stroke="black" points="721,-631 721,-649 749,-649 749,-631 721,-631"/>
<text text-anchor="start" x="724" y="-637.2" font-family="Helvetica,sans-Serif" font-size="11.00">&lt; 5</text>
<polygon fill="#ffffff" stroke="none" points="749,-631 749,-649 793,-649 793,-631 749,-631"/>
<polygon fill="none" stroke="black" points="749,-631 749,-649 793,-649 793,-631 749,-631"/>
<text text-anchor="start" x="754" y="-637.2" font-family="Helvetica,sans-Serif" font-size="11.00">0 rows</text>
<polygon fill="#ffffff" stroke="none" points="793,-631 793,-649 819,-649 819,-631 793,-631"/>
<polygon fill="none" stroke="black" points="793,-631 793,-649 819,-649 819,-631 793,-631"/>
<text text-anchor="start" x="799" y="-637.2" font-family="Helvetica,sans-Serif" font-size="11.00">7 &gt;</text>
</a>
</g>
</g>
<!-- nursery.batches&#45;&gt;facilities -->
<g id="edge2" class="edge"><title>nursery.batches:elipses:w&#45;&gt;facilities:elipses:e</title>
<path fill="none" stroke="black" d="M937.949,-687.373C889.743,-683.065 875.191,-658 820,-658"/>
<polygon fill="black" stroke="black" points="944.507,-687.656 952.345,-691.597 948.504,-687.828 952.5,-688 952.5,-688 952.5,-688 948.504,-687.828 952.655,-684.403 944.507,-687.656 944.507,-687.656"/>
<ellipse fill="none" stroke="black" cx="941.31" cy="-687.518" rx="3.2" ry="3.2"/>
</g>
<!-- organizations -->
<g id="node4" class="node"><title>organizations</title>
<g id="a_node4"><a xlink:href="../../tables/organizations.html" xlink:title="organizations" target="_top">
<polygon fill="#ffffff" stroke="none" points="458,-403 458,-571 632,-571 632,-403 458,-403"/>
<polygon fill="#f5f5f5" stroke="none" points="458,-549 458,-571 632,-571 632,-549 458,-549"/>
<polygon fill="none" stroke="black" points="458,-549 458,-571 632,-571 632,-549 458,-549"/>
<text text-anchor="start" x="463" y="-558.2" font-family="Helvetica,sans-Serif" font-weight="bold" font-size="11.00">organizations</text>
<text text-anchor="start" x="593" y="-557.2" font-family="Helvetica,sans-Serif" font-size="11.00">[table]</text>
<polygon fill="none" stroke="black" points="458,-527 458,-549 632,-549 632,-527 458,-527"/>
<image xlink:href="../../images/primaryKeys.png" width="11px" height="12px" preserveAspectRatio="xMinYMin meet" x="463" y="-544"/>
<text text-anchor="start" x="478" y="-535.2" font-family="Helvetica,sans-Serif" font-size="11.00">id</text>
<polygon fill="none" stroke="black" points="458,-505 458,-527 632,-527 632,-505 458,-505"/>
<image xlink:href="../../images/foreignKeys.png" width="11px" height="12px" preserveAspectRatio="xMinYMin meet" x="463" y="-522"/>
<text text-anchor="start" x="478" y="-513.2" font-family="Helvetica,sans-Serif" font-size="11.00">country_code</text>
<polygon fill="none" stroke="black" points="458,-483 458,-505 632,-505 632,-483 458,-483"/>
<image xlink:href="../../images/foreignKeys.png" width="11px" height="12px" preserveAspectRatio="xMinYMin meet" x="463" y="-500"/>
<text text-anchor="start" x="478" y="-491.2" font-family="Helvetica,sans-Serif" font-size="11.00">country_subdivision_code</text>
<polygon fill="none" stroke="black" points="458,-461 458,-483 632,-483 632,-461 458,-461"/>
<image xlink:href="../../images/foreignKeys.png" width="11px" height="12px" preserveAspectRatio="xMinYMin meet" x="463" y="-478"/>
<text text-anchor="start" x="478" y="-469.2" font-family="Helvetica,sans-Serif" font-size="11.00">created_by</text>
<polygon fill="none" stroke="black" points="458,-439 458,-461 632,-461 632,-439 458,-439"/>
<image xlink:href="../../images/foreignKeys.png" width="11px" height="12px" preserveAspectRatio="xMinYMin meet" x="463" y="-456"/>
<text text-anchor="start" x="478" y="-447.2" font-family="Helvetica,sans-Serif" font-size="11.00">modified_by</text>
<polygon fill="none" stroke="black" points="458,-421 458,-439 632,-439 632,-421 458,-421"/>
<text text-anchor="start" x="461" y="-427.2" font-family="Helvetica,sans-Serif" font-size="11.00">...</text>
<polygon fill="#ffffff" stroke="none" points="458,-403 458,-421 524,-421 524,-403 458,-403"/>
<polygon fill="none" stroke="black" points="458,-403 458,-421 524,-421 524,-403 458,-403"/>
<text text-anchor="start" x="461" y="-409.2" font-family="Helvetica,sans-Serif" font-size="11.00">&lt; 4</text>
<polygon fill="#ffffff" stroke="none" points="524,-403 524,-421 587,-421 587,-403 524,-403"/>
<polygon fill="none" stroke="black" points="524,-403 524,-421 587,-421 587,-403 524,-403"/>
<text text-anchor="start" x="548" y="-409.2" font-family="Helvetica,sans-Serif" font-size="11.00">0 rows</text>
<polygon fill="#ffffff" stroke="none" points="587,-403 587,-421 632,-421 632,-403 587,-403"/>
<polygon fill="none" stroke="black" points="587,-403 587,-421 632,-421 632,-403 587,-403"/>
<text text-anchor="start" x="612" y="-409.2" font-family="Helvetica,sans-Serif" font-size="11.00">8 &gt;</text>
</a>
</g>
</g>
<!-- nursery.batches&#45;&gt;organizations -->
<g id="edge4" class="edge"><title>nursery.batches:elipses:w&#45;&gt;organizations:id:e</title>
<path fill="none" stroke="black" d="M938.137,-686.374C884.572,-672.75 927.225,-577.211 867,-542 777.205,-489.502 737.015,-538 633,-538"/>
<polygon fill="black" stroke="black" points="944.551,-687.1 952.095,-691.577 948.525,-687.55 952.5,-688 952.5,-688 952.5,-688 948.525,-687.55 952.905,-684.423 944.551,-687.1 944.551,-687.1"/>
<ellipse fill="none" stroke="black" cx="941.371" cy="-686.74" rx="3.2" ry="3.2"/>
</g>
<!-- facilities&#45;&gt;users -->
<g id="edge6" class="edge"><title>facilities:elipses:w&#45;&gt;users:elipses:e</title>
<path fill="none" stroke="black" d="M705.276,-658.178C592.757,-660.873 531.501,-691.993 450,-608 367.035,-522.498 489.638,-352 370.5,-352"/>
<polygon fill="black" stroke="black" points="712.001,-658.097 720.044,-661.6 716,-658.049 720,-658 720,-658 720,-658 716,-658.049 719.956,-654.4 712.001,-658.097 712.001,-658.097"/>
<ellipse fill="none" stroke="black" cx="708.801" cy="-658.136" rx="3.2" ry="3.2"/>
</g>
<!-- facilities&#45;&gt;users -->
<g id="edge7" class="edge"><title>facilities:elipses:w&#45;&gt;users:elipses:e</title>
<path fill="none" stroke="black" d="M705.581,-658.155C592.551,-660.551 531.326,-688.775 450,-604 368.699,-519.25 487.941,-352 370.5,-352"/>
<polygon fill="black" stroke="black" points="712,-658.086 720.039,-661.6 716,-658.043 720,-658 720,-658 720,-658 716,-658.043 719.961,-654.4 712,-658.086 712,-658.086"/>
<ellipse fill="none" stroke="black" cx="708.801" cy="-658.12" rx="3.2" ry="3.2"/>
</g>
<!-- facilities&#45;&gt;organizations -->
<g id="edge8" class="edge"><title>facilities:elipses:w&#45;&gt;organizations:id:e</title>
<path fill="none" stroke="black" d="M705.455,-655.788C691.149,-650.669 686.003,-637.196 673,-621 647.363,-589.069 673.949,-538 633,-538"/>
<polygon fill="black" stroke="black" points="712.091,-656.797 719.459,-661.559 716.045,-657.399 720,-658 720,-658 720,-658 716.045,-657.399 720.541,-654.441 712.091,-656.797 712.091,-656.797"/>
<ellipse fill="none" stroke="black" cx="708.927" cy="-656.316" rx="3.2" ry="3.2"/>
</g>
<!-- organizations&#45;&gt;users -->
<g id="edge17" class="edge"><title>organizations:created_by:w&#45;&gt;users:elipses:e</title>
<path fill="none" stroke="black" d="M442.841,-468.792C423.999,-457.676 437.025,-420.068 417,-394 400.035,-371.915 398.349,-352 370.5,-352"/>
<polygon fill="black" stroke="black" points="449.198,-470.232 456.204,-475.511 453.099,-471.116 457,-472 457,-472 457,-472 453.099,-471.116 457.796,-468.489 449.198,-470.232 449.198,-470.232"/>
<ellipse fill="none" stroke="black" cx="446.077" cy="-469.525" rx="3.2" ry="3.2"/>
</g>
<!-- organizations&#45;&gt;users -->
<g id="edge18" class="edge"><title>organizations:modified_by:w&#45;&gt;users:elipses:e</title>
<path fill="none" stroke="black" d="M442.892,-446.259C429.568,-436.951 433.222,-412.191 417,-394 398.465,-373.215 398.349,-352 370.5,-352"/>
<polygon fill="black" stroke="black" points="449.267,-447.949 456.077,-453.48 453.134,-448.975 457,-450 457,-450 457,-450 453.134,-448.975 457.923,-446.52 449.267,-447.949 449.267,-447.949"/>
<ellipse fill="none" stroke="black" cx="446.174" cy="-447.129" rx="3.2" ry="3.2"/>
</g>
<!-- country_subdivisions -->
<g id="node5" class="node"><title>country_subdivisions</title>
<g id="a_node5"><a xlink:href="../../tables/country_subdivisions.html" xlink:title="country_subdivisions" target="_top">
<polygon fill="#ffffff" stroke="none" points="240,-404 240,-506 409,-506 409,-404 240,-404"/>
<polygon fill="#f5f5f5" stroke="none" points="240.5,-484 240.5,-506 409.5,-506 409.5,-484 240.5,-484"/>
<polygon fill="none" stroke="black" points="240.5,-484 240.5,-506 409.5,-506 409.5,-484 240.5,-484"/>
<text text-anchor="start" x="245.5" y="-493.2" font-family="Helvetica,sans-Serif" font-weight="bold" font-size="11.00">country_subdivisions</text>
<text text-anchor="start" x="370.5" y="-492.2" font-family="Helvetica,sans-Serif" font-size="11.00">[table]</text>
<polygon fill="none" stroke="black" points="240.5,-462 240.5,-484 409.5,-484 409.5,-462 240.5,-462"/>
<image xlink:href="../../images/primaryKeys.png" width="11px" height="12px" preserveAspectRatio="xMinYMin meet" x="245.5" y="-479"/>
<text text-anchor="start" x="272.5" y="-470.2" font-family="Helvetica,sans-Serif" font-size="11.00">code</text>
<polygon fill="#ffffff" stroke="none" points="240.5,-440 240.5,-462 409.5,-462 409.5,-440 240.5,-440"/>
<polygon fill="none" stroke="black" points="240.5,-440 240.5,-462 409.5,-462 409.5,-440 240.5,-440"/>
<image xlink:href="../../images/foreignKeys.png" width="11px" height="12px" preserveAspectRatio="xMinYMin meet" x="245.5" y="-457"/>
<text text-anchor="start" x="272.5" y="-448.2" font-family="Helvetica,sans-Serif" font-size="11.00">country_code</text>
<polygon fill="none" stroke="black" points="240.5,-422 240.5,-440 409.5,-440 409.5,-422 240.5,-422"/>
<text text-anchor="start" x="243.5" y="-428.2" font-family="Helvetica,sans-Serif" font-size="11.00">...</text>
<polygon fill="#ffffff" stroke="none" points="240.5,-404 240.5,-422 300.5,-422 300.5,-404 240.5,-404"/>
<polygon fill="none" stroke="black" points="240.5,-404 240.5,-422 300.5,-422 300.5,-404 240.5,-404"/>
<text text-anchor="start" x="243.5" y="-410.2" font-family="Helvetica,sans-Serif" font-size="11.00">&lt; 1</text>
<polygon fill="#ffffff" stroke="none" points="300.5,-404 300.5,-422 367.5,-422 367.5,-404 300.5,-404"/>
<polygon fill="none" stroke="black" points="300.5,-404 300.5,-422 367.5,-422 367.5,-404 300.5,-404"/>
<text text-anchor="start" x="321.5" y="-410.2" font-family="Helvetica,sans-Serif" font-size="11.00">57 rows</text>
<polygon fill="#ffffff" stroke="none" points="367.5,-404 367.5,-422 409.5,-422 409.5,-404 367.5,-404"/>
<polygon fill="none" stroke="black" points="367.5,-404 367.5,-422 409.5,-422 409.5,-404 367.5,-404"/>
<text text-anchor="start" x="389.5" y="-410.2" font-family="Helvetica,sans-Serif" font-size="11.00">1 &gt;</text>
</a>
</g>
</g>
<!-- organizations&#45;&gt;country_subdivisions -->
<g id="edge16" class="edge"><title>organizations:country_subdivision_code:w&#45;&gt;country_subdivisions:code:e</title>
<path fill="none" stroke="black" d="M443.016,-490.532C432.301,-484.568 427.33,-473 410.5,-473"/>
<polygon fill="black" stroke="black" points="449.235,-492.074 456.133,-497.494 453.118,-493.037 457,-494 457,-494 457,-494 453.118,-493.037 457.867,-490.506 449.235,-492.074 449.235,-492.074"/>
<ellipse fill="none" stroke="black" cx="446.129" cy="-491.304" rx="3.2" ry="3.2"/>
</g>
<!-- countries -->
<g id="node6" class="node"><title>countries</title>
<g id="a_node6"><a xlink:href="../../tables/countries.html" xlink:title="countries" target="_top">
<polygon fill="#ffffff" stroke="none" points="8,-398 8,-486 191,-486 191,-398 8,-398"/>
<polygon fill="#f5f5f5" stroke="none" points="10.5,-462 10.5,-484 189.5,-484 189.5,-462 10.5,-462"/>
<polygon fill="none" stroke="black" points="10.5,-462 10.5,-484 189.5,-484 189.5,-462 10.5,-462"/>
<text text-anchor="start" x="15.5" y="-471.2" font-family="Helvetica,sans-Serif" font-weight="bold" font-size="11.00">countries</text>
<text text-anchor="start" x="150.5" y="-470.2" font-family="Helvetica,sans-Serif" font-size="11.00">[table]</text>
<polygon fill="none" stroke="black" points="10.5,-440 10.5,-462 88.5,-462 88.5,-440 10.5,-440"/>
<image xlink:href="../../images/primaryKeys.png" width="11px" height="12px" preserveAspectRatio="xMinYMin meet" x="15.5" y="-457"/>
<text text-anchor="start" x="31.5" y="-448.2" font-family="Helvetica,sans-Serif" font-size="11.00">code</text>
<polygon fill="none" stroke="black" points="88.5,-440 88.5,-462 189.5,-462 189.5,-440 88.5,-440"/>
<text text-anchor="start" x="91.5" y="-448.2" font-family="Helvetica,sans-Serif" font-size="11.00">text[2147483647]</text>
<polygon fill="none" stroke="black" points="10.5,-418 10.5,-440 88.5,-440 88.5,-418 10.5,-418"/>
<text text-anchor="start" x="31.5" y="-426.2" font-family="Helvetica,sans-Serif" font-size="11.00">name</text>
<polygon fill="none" stroke="black" points="88.5,-418 88.5,-440 189.5,-440 189.5,-418 88.5,-418"/>
<text text-anchor="start" x="91.5" y="-426.2" font-family="Helvetica,sans-Serif" font-size="11.00">text[2147483647]</text>
<polygon fill="#ffffff" stroke="none" points="10.5,-400 10.5,-418 33.5,-418 33.5,-400 10.5,-400"/>
<polygon fill="none" stroke="black" points="10.5,-400 10.5,-418 33.5,-418 33.5,-400 10.5,-400"/>
<text text-anchor="start" x="13.5" y="-406.2" font-family="Helvetica,sans-Serif" font-size="11.00">&lt; 0</text>
<polygon fill="#ffffff" stroke="none" points="33.5,-400 33.5,-418 88.5,-418 88.5,-400 33.5,-400"/>
<polygon fill="none" stroke="black" points="33.5,-400 33.5,-418 88.5,-418 88.5,-400 33.5,-400"/>
<text text-anchor="start" x="36.5" y="-406.2" font-family="Helvetica,sans-Serif" font-size="11.00">249 rows</text>
<polygon fill="#ffffff" stroke="none" points="88.5,-400 88.5,-418 189.5,-418 189.5,-400 88.5,-400"/>
<polygon fill="none" stroke="black" points="88.5,-400 88.5,-418 189.5,-418 189.5,-400 88.5,-400"/>
<text text-anchor="start" x="169.5" y="-406.2" font-family="Helvetica,sans-Serif" font-size="11.00">3 &gt;</text>
<polygon fill="none" stroke="black" stroke-width="2" points="9,-399 9,-485 190,-485 190,-399 9,-399"/>
</a>
</g>
</g>
<!-- organizations&#45;&gt;countries -->
<g id="edge15" class="edge"><title>organizations:country_code:w&#45;&gt;countries:code.type:e</title>
<path fill="none" stroke="black" d="M442.51,-516.349C353.143,-520.674 315.171,-562.95 232,-517 201.671,-500.244 225.15,-451 190.5,-451"/>
<polygon fill="black" stroke="black" points="449.002,-516.193 457.087,-519.599 453.001,-516.096 457,-516 457,-516 457,-516 453.001,-516.096 456.913,-512.401 449.002,-516.193 449.002,-516.193"/>
<ellipse fill="none" stroke="black" cx="445.803" cy="-516.27" rx="3.2" ry="3.2"/>
</g>
<!-- country_subdivisions&#45;&gt;countries -->
<g id="edge5" class="edge"><title>country_subdivisions:country_code:w&#45;&gt;countries:code.type:e</title>
<path fill="none" stroke="black" d="M224.991,-451C213.677,-451 206.493,-451 190.5,-451"/>
<polygon fill="black" stroke="black" points="231.5,-451 239.5,-454.6 235.5,-451 239.5,-451 239.5,-451 239.5,-451 235.5,-451 239.5,-447.4 231.5,-451 231.5,-451"/>
<ellipse fill="none" stroke="black" cx="228.3" cy="-451" rx="3.2" ry="3.2"/>
</g>
<!-- notifications -->
<g id="node7" class="node"><title>notifications</title>
<g id="a_node7"><a xlink:href="../../tables/notifications.html" xlink:title="notifications" target="_top">
<polygon fill="#ffffff" stroke="none" points="709.5,-552 709.5,-610 830.5,-610 830.5,-552 709.5,-552"/>
<polygon fill="#f5f5f5" stroke="none" points="710,-588 710,-610 831,-610 831,-588 710,-588"/>
<polygon fill="none" stroke="black" points="710,-588 710,-610 831,-610 831,-588 710,-588"/>
<text text-anchor="start" x="715" y="-597.2" font-family="Helvetica,sans-Serif" font-weight="bold" font-size="11.00">notifications</text>
<text text-anchor="start" x="792" y="-596.2" font-family="Helvetica,sans-Serif" font-size="11.00">[table]</text>
<polygon fill="none" stroke="black" points="710,-570 710,-588 831,-588 831,-570 710,-570"/>
<text text-anchor="start" x="713" y="-576.2" font-family="Helvetica,sans-Serif" font-size="11.00">...</text>
<polygon fill="#ffffff" stroke="none" points="710,-552 710,-570 754,-570 754,-552 710,-552"/>
<polygon fill="none" stroke="black" points="710,-552 710,-570 754,-570 754,-552 710,-552"/>
<text text-anchor="start" x="713" y="-558.2" font-family="Helvetica,sans-Serif" font-size="11.00">&lt; 3</text>
<polygon fill="#ffffff" stroke="none" points="754,-552 754,-570 807,-570 807,-552 754,-552"/>
<polygon fill="none" stroke="black" points="754,-552 754,-570 807,-570 807,-552 754,-552"/>
<text text-anchor="start" x="768" y="-558.2" font-family="Helvetica,sans-Serif" font-size="11.00">0 rows</text>
<polygon fill="#ffffff" stroke="none" points="807,-552 807,-570 831,-570 831,-552 807,-552"/>
<polygon fill="none" stroke="black" points="807,-552 807,-570 831,-570 831,-552 807,-552"/>
<text text-anchor="start" x="821" y="-558.2" font-family="Helvetica,sans-Serif" font-size="11.00"> &#160;</text>
</a>
</g>
</g>
<!-- notifications&#45;&gt;users -->
<g id="edge10" class="edge"><title>notifications:elipses:w&#45;&gt;users:elipses:e</title>
<path fill="none" stroke="black" d="M694.482,-579.409C589.033,-585.341 534.37,-652.85 450,-582 385.035,-527.445 458.041,-468.244 417,-394 403.527,-369.627 398.349,-352 370.5,-352"/>
<polygon fill="black" stroke="black" points="701.003,-579.225 709.101,-582.599 705.002,-579.113 709,-579 709,-579 709,-579 705.002,-579.113 708.899,-575.401 701.003,-579.225 701.003,-579.225"/>
<ellipse fill="none" stroke="black" cx="697.804" cy="-579.315" rx="3.2" ry="3.2"/>
</g>
<!-- notifications&#45;&gt;organizations -->
<g id="edge9" class="edge"><title>notifications:elipses:w&#45;&gt;organizations:id:e</title>
<path fill="none" stroke="black" d="M694.575,-576.678C670.022,-568.005 665.832,-538 633,-538"/>
<polygon fill="black" stroke="black" points="701.102,-577.729 708.428,-582.554 705.051,-578.364 709,-579 709,-579 709,-579 705.051,-578.364 709.572,-575.446 701.102,-577.729 701.102,-577.729"/>
<ellipse fill="none" stroke="black" cx="697.942" cy="-577.22" rx="3.2" ry="3.2"/>
</g>
<!-- organization_users -->
<g id="node8" class="node"><title>organization_users</title>
<g id="a_node8"><a xlink:href="../../tables/organization_users.html" xlink:title="organization_users" target="_top">
<polygon fill="#ffffff" stroke="none" points="693,-419 693,-477 847,-477 847,-419 693,-419"/>
<polygon fill="#f5f5f5" stroke="none" points="693,-455 693,-477 847,-477 847,-455 693,-455"/>
<polygon fill="none" stroke="black" points="693,-455 693,-477 847,-477 847,-455 693,-455"/>
<text text-anchor="start" x="698" y="-464.2" font-family="Helvetica,sans-Serif" font-weight="bold" font-size="11.00">organization_users</text>
<text text-anchor="start" x="808" y="-463.2" font-family="Helvetica,sans-Serif" font-size="11.00">[table]</text>
<polygon fill="none" stroke="black" points="693,-437 693,-455 847,-455 847,-437 693,-437"/>
<text text-anchor="start" x="696" y="-443.2" font-family="Helvetica,sans-Serif" font-size="11.00">...</text>
<polygon fill="#ffffff" stroke="none" points="693,-419 693,-437 754,-437 754,-419 693,-419"/>
<polygon fill="none" stroke="black" points="693,-419 693,-437 754,-437 754,-419 693,-419"/>
<text text-anchor="start" x="696" y="-425.2" font-family="Helvetica,sans-Serif" font-size="11.00">&lt; 5</text>
<polygon fill="#ffffff" stroke="none" points="754,-419 754,-437 815,-437 815,-419 754,-419"/>
<polygon fill="none" stroke="black" points="754,-419 754,-437 815,-437 815,-419 754,-419"/>
<text text-anchor="start" x="776" y="-425.2" font-family="Helvetica,sans-Serif" font-size="11.00">0 rows</text>
<polygon fill="#ffffff" stroke="none" points="815,-419 815,-437 847,-437 847,-419 815,-419"/>
<polygon fill="none" stroke="black" points="815,-419 815,-437 847,-437 847,-419 815,-419"/>
<text text-anchor="start" x="837" y="-425.2" font-family="Helvetica,sans-Serif" font-size="11.00"> &#160;</text>
</a>
</g>
</g>
<!-- organization_users&#45;&gt;users -->
<g id="edge11" class="edge"><title>organization_users:elipses:w&#45;&gt;users:elipses:e</title>
<path fill="none" stroke="black" d="M677.93,-442.676C661.446,-433.096 664.099,-405.331 640,-393 532.143,-337.812 491.656,-352 370.5,-352"/>
<polygon fill="black" stroke="black" points="684.214,-444.16 691.172,-449.504 688.107,-445.08 692,-446 692,-446 692,-446 688.107,-445.08 692.828,-442.496 684.214,-444.16 684.214,-444.16"/>
<ellipse fill="none" stroke="black" cx="681.1" cy="-443.425" rx="3.2" ry="3.2"/>
</g>
<!-- organization_users&#45;&gt;users -->
<g id="edge12" class="edge"><title>organization_users:elipses:w&#45;&gt;users:elipses:e</title>
<path fill="none" stroke="black" d="M678.308,-440.256C662.009,-428.134 663.335,-402.578 640,-391 531.218,-337.026 491.936,-346 370.5,-352"/>
<polygon fill="black" stroke="black" points="684.623,-442.905 690.607,-449.32 688.311,-444.453 692,-446 692,-446 692,-446 688.311,-444.453 693.393,-442.68 684.623,-442.905 684.623,-442.905"/>
<ellipse fill="none" stroke="black" cx="681.672" cy="-441.667" rx="3.20001" ry="3.20001"/>
</g>
<!-- organization_users&#45;&gt;users -->
<g id="edge14" class="edge"><title>organization_users:elipses:w&#45;&gt;users:elipses:e</title>
<path fill="none" stroke="black" d="M677.395,-445.775C662.05,-440.165 662.89,-415.357 640,-404 531.218,-350.026 491.936,-359 370.5,-352"/>
<polygon fill="black" stroke="black" points="684.001,-445.877 691.945,-449.6 688,-445.938 692,-446 692,-446 692,-446 688,-445.938 692.055,-442.4 684.001,-445.877 684.001,-445.877"/>
<ellipse fill="none" stroke="black" cx="680.801" cy="-445.827" rx="3.2" ry="3.2"/>
</g>
<!-- organization_users&#45;&gt;organizations -->
<g id="edge13" class="edge"><title>organization_users:elipses:w&#45;&gt;organizations:id:e</title>
<path fill="none" stroke="black" d="M677.861,-449.72C651.393,-466.932 675.693,-538 633,-538"/>
<polygon fill="black" stroke="black" points="684.263,-448.036 692.916,-449.481 688.132,-447.018 692,-446 692,-446 692,-446 688.132,-447.018 691.084,-442.519 684.263,-448.036 684.263,-448.036"/>
<ellipse fill="none" stroke="black" cx="681.169" cy="-448.85" rx="3.2" ry="3.2"/>
</g>
<!-- reports -->
<g id="node9" class="node"><title>reports</title>
<g id="a_node9"><a xlink:href="../../tables/reports.html" xlink:title="reports" target="_top">
<polygon fill="#ffffff" stroke="none" points="724.5,-340 724.5,-398 815.5,-398 815.5,-340 724.5,-340"/>
<polygon fill="#f5f5f5" stroke="none" points="725,-376 725,-398 816,-398 816,-376 725,-376"/>
<polygon fill="none" stroke="black" points="725,-376 725,-398 816,-398 816,-376 725,-376"/>
<text text-anchor="start" x="730" y="-385.2" font-family="Helvetica,sans-Serif" font-weight="bold" font-size="11.00">reports</text>
<text text-anchor="start" x="777" y="-384.2" font-family="Helvetica,sans-Serif" font-size="11.00">[table]</text>
<polygon fill="none" stroke="black" points="725,-358 725,-376 816,-376 816,-358 725,-358"/>
<text text-anchor="start" x="728" y="-364.2" font-family="Helvetica,sans-Serif" font-size="11.00">...</text>
<polygon fill="#ffffff" stroke="none" points="725,-340 725,-358 749,-358 749,-340 725,-340"/>
<polygon fill="none" stroke="black" points="725,-340 725,-358 749,-358 749,-340 725,-340"/>
<text text-anchor="start" x="728" y="-346.2" font-family="Helvetica,sans-Serif" font-size="11.00">&lt; 5</text>
<polygon fill="#ffffff" stroke="none" points="749,-340 749,-358 792,-358 792,-340 749,-340"/>
<polygon fill="none" stroke="black" points="749,-340 749,-358 792,-358 792,-340 749,-340"/>
<text text-anchor="start" x="753" y="-346.2" font-family="Helvetica,sans-Serif" font-size="11.00">0 rows</text>
<polygon fill="#ffffff" stroke="none" points="792,-340 792,-358 816,-358 816,-340 792,-340"/>
<polygon fill="none" stroke="black" points="792,-340 792,-358 816,-358 816,-340 792,-340"/>
<text text-anchor="start" x="796" y="-346.2" font-family="Helvetica,sans-Serif" font-size="11.00">1 &gt;</text>
</a>
</g>
</g>
<!-- reports&#45;&gt;users -->
<g id="edge19" class="edge"><title>reports:elipses:w&#45;&gt;users:elipses:e</title>
<path fill="none" stroke="black" d="M709.411,-366.068C682.786,-362.439 672.894,-349.236 640,-345 556.247,-334.214 534.363,-341.293 450,-345 414.564,-346.557 405.97,-352 370.5,-352"/>
<polygon fill="black" stroke="black" points="716.016,-366.49 723.771,-370.593 720.008,-366.745 724,-367 724,-367 724,-367 720.008,-366.745 724.229,-363.407 716.016,-366.49 716.016,-366.49"/>
<ellipse fill="none" stroke="black" cx="712.823" cy="-366.286" rx="3.2" ry="3.2"/>
</g>
<!-- reports&#45;&gt;users -->
<g id="edge20" class="edge"><title>reports:elipses:w&#45;&gt;users:elipses:e</title>
<path fill="none" stroke="black" d="M709.886,-364.138C683.109,-357.364 672.777,-346.472 640,-343 556.025,-334.104 534.429,-341.408 450,-343 414.648,-343.667 405.858,-346 370.5,-352"/>
<polygon fill="black" stroke="black" points="716.16,-365.41 723.284,-370.528 720.08,-366.205 724,-367 724,-367 724,-367 720.08,-366.205 724.716,-363.472 716.16,-365.41 716.16,-365.41"/>
<ellipse fill="none" stroke="black" cx="713.023" cy="-364.774" rx="3.2" ry="3.2"/>
</g>
<!-- reports&#45;&gt;users -->
<g id="edge22" class="edge"><title>reports:elipses:w&#45;&gt;users:elipses:e</title>
<path fill="none" stroke="black" d="M709.524,-368.795C683.016,-370.266 672.629,-359.457 640,-356 556.025,-347.104 534.429,-354.408 450,-356 414.648,-356.667 405.858,-359 370.5,-352"/>
<polygon fill="black" stroke="black" points="716.061,-367.984 724.443,-370.573 720.03,-367.492 724,-367 724,-367 724,-367 720.03,-367.492 723.557,-363.427 716.061,-367.984 716.061,-367.984"/>
<ellipse fill="none" stroke="black" cx="712.885" cy="-368.378" rx="3.2" ry="3.2"/>
</g>
<!-- reports&#45;&gt;organizations -->
<g id="edge21" class="edge"><title>reports:elipses:w&#45;&gt;organizations:id:e</title>
<path fill="none" stroke="black" d="M709.29,-368.936C692.155,-374.141 686.171,-389.383 673,-409 639.54,-458.836 693.026,-538 633,-538"/>
<polygon fill="black" stroke="black" points="716.068,-368.044 724.47,-370.569 720.034,-367.522 724,-367 724,-367 724,-367 720.034,-367.522 723.53,-363.431 716.068,-368.044 716.068,-368.044"/>
<ellipse fill="none" stroke="black" cx="712.896" cy="-368.461" rx="3.2" ry="3.2"/>
</g>
<!-- uploads -->
<g id="node10" class="node"><title>uploads</title>
<g id="a_node10"><a xlink:href="../../tables/uploads.html" xlink:title="uploads" target="_top">
<polygon fill="#ffffff" stroke="none" points="976.5,-474 976.5,-532 1070.5,-532 1070.5,-474 976.5,-474"/>
<polygon fill="#f5f5f5" stroke="none" points="976.5,-510 976.5,-532 1070.5,-532 1070.5,-510 976.5,-510"/>
<polygon fill="none" stroke="black" points="976.5,-510 976.5,-532 1070.5,-532 1070.5,-510 976.5,-510"/>
<text text-anchor="start" x="981.5" y="-519.2" font-family="Helvetica,sans-Serif" font-weight="bold" font-size="11.00">uploads</text>
<text text-anchor="start" x="1031.5" y="-518.2" font-family="Helvetica,sans-Serif" font-size="11.00">[table]</text>
<polygon fill="none" stroke="black" points="976.5,-492 976.5,-510 1070.5,-510 1070.5,-492 976.5,-492"/>
<text text-anchor="start" x="979.5" y="-498.2" font-family="Helvetica,sans-Serif" font-size="11.00">...</text>
<polygon fill="#ffffff" stroke="none" points="976.5,-474 976.5,-492 1002.5,-492 1002.5,-474 976.5,-474"/>
<polygon fill="none" stroke="black" points="976.5,-474 976.5,-492 1002.5,-492 1002.5,-474 976.5,-474"/>
<text text-anchor="start" x="979.5" y="-480.2" font-family="Helvetica,sans-Serif" font-size="11.00">&lt; 5</text>
<polygon fill="#ffffff" stroke="none" points="1002.5,-474 1002.5,-492 1045.5,-492 1045.5,-474 1002.5,-474"/>
<polygon fill="none" stroke="black" points="1002.5,-474 1002.5,-492 1045.5,-492 1045.5,-474 1002.5,-474"/>
<text text-anchor="start" x="1006.5" y="-480.2" font-family="Helvetica,sans-Serif" font-size="11.00">0 rows</text>
<polygon fill="#ffffff" stroke="none" points="1045.5,-474 1045.5,-492 1070.5,-492 1070.5,-474 1045.5,-474"/>
<polygon fill="none" stroke="black" points="1045.5,-474 1045.5,-492 1070.5,-492 1070.5,-474 1045.5,-474"/>
<text text-anchor="start" x="1050.5" y="-480.2" font-family="Helvetica,sans-Serif" font-size="11.00">1 &gt;</text>
</a>
</g>
</g>
<!-- uploads&#45;&gt;users -->
<g id="edge23" class="edge"><title>uploads:elipses:w&#45;&gt;users:elipses:e</title>
<path fill="none" stroke="black" d="M960.855,-499.962C863.971,-485.093 963.821,-314.526 867,-251 789.148,-199.92 535.241,-254.528 450,-292 409.476,-309.814 414.767,-352 370.5,-352"/>
<polygon fill="black" stroke="black" points="967.52,-500.434 975.245,-504.591 971.51,-500.717 975.5,-501 975.5,-501 975.5,-501 971.51,-500.717 975.755,-497.409 967.52,-500.434 967.52,-500.434"/>
<ellipse fill="none" stroke="black" cx="964.328" cy="-500.208" rx="3.2" ry="3.2"/>
</g>
<!-- uploads&#45;&gt;facilities -->
<g id="edge24" class="edge"><title>uploads:elipses:w&#45;&gt;facilities:elipses:e</title>
<path fill="none" stroke="black" d="M961.083,-502.264C881.219,-517.122 913.031,-658 820,-658"/>
<polygon fill="black" stroke="black" points="967.531,-501.699 975.814,-504.586 971.515,-501.349 975.5,-501 975.5,-501 975.5,-501 971.515,-501.349 975.186,-497.414 967.531,-501.699 967.531,-501.699"/>
<ellipse fill="none" stroke="black" cx="964.343" cy="-501.978" rx="3.2" ry="3.2"/>
</g>
<!-- uploads&#45;&gt;organizations -->
<g id="edge25" class="edge"><title>uploads:elipses:w&#45;&gt;organizations:id:e</title>
<path fill="none" stroke="black" d="M960.9,-500.931C837.917,-499.765 798.305,-484.68 673,-518 653.791,-523.108 652.876,-538 633,-538"/>
<polygon fill="black" stroke="black" points="967.5,-500.962 975.483,-504.6 971.5,-500.981 975.5,-501 975.5,-501 975.5,-501 971.5,-500.981 975.517,-497.4 967.5,-500.962 967.5,-500.962"/>
<ellipse fill="none" stroke="black" cx="964.3" cy="-500.947" rx="3.2" ry="3.2"/>
</g>
<!-- user_preferences -->
<g id="node11" class="node"><title>user_preferences</title>
<g id="a_node11"><a xlink:href="../../tables/user_preferences.html" xlink:title="user_preferences" target="_top">
<polygon fill="#ffffff" stroke="none" points="697,-261 697,-319 843,-319 843,-261 697,-261"/>
<polygon fill="#f5f5f5" stroke="none" points="697,-297 697,-319 843,-319 843,-297 697,-297"/>
<polygon fill="none" stroke="black" points="697,-297 697,-319 843,-319 843,-297 697,-297"/>
<text text-anchor="start" x="702" y="-306.2" font-family="Helvetica,sans-Serif" font-weight="bold" font-size="11.00">user_preferences</text>
<text text-anchor="start" x="804" y="-305.2" font-family="Helvetica,sans-Serif" font-size="11.00">[table]</text>
<polygon fill="none" stroke="black" points="697,-279 697,-297 843,-297 843,-279 697,-279"/>
<text text-anchor="start" x="700" y="-285.2" font-family="Helvetica,sans-Serif" font-size="11.00">...</text>
<polygon fill="#ffffff" stroke="none" points="697,-261 697,-279 754,-279 754,-261 697,-261"/>
<polygon fill="none" stroke="black" points="697,-261 697,-279 754,-279 754,-261 697,-261"/>
<text text-anchor="start" x="700" y="-267.2" font-family="Helvetica,sans-Serif" font-size="11.00">&lt; 2</text>
<polygon fill="#ffffff" stroke="none" points="754,-261 754,-279 813,-279 813,-261 754,-261"/>
<polygon fill="none" stroke="black" points="754,-261 754,-279 813,-279 813,-261 754,-261"/>
<text text-anchor="start" x="774" y="-267.2" font-family="Helvetica,sans-Serif" font-size="11.00">0 rows</text>
<polygon fill="#ffffff" stroke="none" points="813,-261 813,-279 843,-279 843,-261 813,-261"/>
<polygon fill="none" stroke="black" points="813,-261 813,-279 843,-279 843,-261 813,-261"/>
<text text-anchor="start" x="833" y="-267.2" font-family="Helvetica,sans-Serif" font-size="11.00"> &#160;</text>
</a>
</g>
</g>
<!-- user_preferences&#45;&gt;users -->
<g id="edge27" class="edge"><title>user_preferences:elipses:w&#45;&gt;users:elipses:e</title>
<path fill="none" stroke="black" d="M685.453,-288.376C606.494,-293.621 440.907,-352 370.5,-352"/>
<polygon fill="black" stroke="black" points="695.058,-284.031 695.343,-292.026 693.744,-292.083 693.459,-284.088 695.058,-284.031"/>
<polyline fill="none" stroke="black" points="696,-288 692.003,-288.142 "/>
<ellipse fill="none" stroke="black" cx="688.805" cy="-288.256" rx="3.2" ry="3.2"/>
</g>
<!-- user_preferences&#45;&gt;organizations -->
<g id="edge26" class="edge"><title>user_preferences:elipses:w&#45;&gt;organizations:id:e</title>
<path fill="none" stroke="black" d="M682.578,-294.18C647.423,-332.678 684.921,-538 633,-538"/>
<polygon fill="black" stroke="black" points="688.733,-291.346 697.506,-291.27 692.367,-289.673 696,-288 696,-288 696,-288 692.367,-289.673 694.494,-284.73 688.733,-291.346 688.733,-291.346"/>
<ellipse fill="none" stroke="black" cx="685.827" cy="-292.684" rx="3.20001" ry="3.20001"/>
</g>
<!-- seedbank.accessions -->
<g id="node12" class="node"><title>seedbank.accessions</title>
<g id="a_node12"><a xlink:href="../../../seedbank/tables/accessions.html" xlink:title="seedbank.accessions" target="_top">
<polygon fill="#ffffff" stroke="none" points="908,-37 908,-183 1139,-183 1139,-37 908,-37"/>
<polygon fill="#f5f5f5" stroke="none" points="908.5,-161 908.5,-183 1139.5,-183 1139.5,-161 908.5,-161"/>
<polygon fill="none" stroke="black" points="908.5,-161 908.5,-183 1139.5,-183 1139.5,-161 908.5,-161"/>
<text text-anchor="start" x="913.5" y="-170.2" font-family="Helvetica,sans-Serif" font-weight="bold" font-size="11.00">seedbank.accessions</text>
<text text-anchor="start" x="1100.5" y="-169.2" font-family="Helvetica,sans-Serif" font-size="11.00">[table]</text>
<polygon fill="none" stroke="black" points="908.5,-139 908.5,-161 1139.5,-161 1139.5,-139 908.5,-139"/>
<image xlink:href="../../images/foreignKeys.png" width="11px" height="12px" preserveAspectRatio="xMinYMin meet" x="913.5" y="-156"/>
<text text-anchor="start" x="928.5" y="-147.2" font-family="Helvetica,sans-Serif" font-size="11.00">facility_id</text>
<polygon fill="none" stroke="black" points="908.5,-117 908.5,-139 1139.5,-139 1139.5,-117 908.5,-117"/>
<image xlink:href="../../images/foreignKeys.png" width="11px" height="12px" preserveAspectRatio="xMinYMin meet" x="913.5" y="-134"/>
<text text-anchor="start" x="928.5" y="-125.2" font-family="Helvetica,sans-Serif" font-size="11.00">created_by</text>
<polygon fill="none" stroke="black" points="908.5,-95 908.5,-117 1139.5,-117 1139.5,-95 908.5,-95"/>
<image xlink:href="../../images/foreignKeys.png" width="11px" height="12px" preserveAspectRatio="xMinYMin meet" x="913.5" y="-112"/>
<text text-anchor="start" x="928.5" y="-103.2" font-family="Helvetica,sans-Serif" font-size="11.00">modified_by</text>
<polygon fill="none" stroke="black" points="908.5,-73 908.5,-95 1139.5,-95 1139.5,-73 908.5,-73"/>
<image xlink:href="../../images/foreignKeys.png" width="11px" height="12px" preserveAspectRatio="xMinYMin meet" x="913.5" y="-90"/>
<text text-anchor="start" x="928.5" y="-81.2" font-family="Helvetica,sans-Serif" font-size="11.00">collection_site_country_code</text>
<polygon fill="none" stroke="black" points="908.5,-55 908.5,-73 1139.5,-73 1139.5,-55 908.5,-55"/>
<text text-anchor="start" x="911.5" y="-61.2" font-family="Helvetica,sans-Serif" font-size="11.00">...</text>
<polygon fill="#ffffff" stroke="none" points="908.5,-37 908.5,-55 1007.5,-55 1007.5,-37 908.5,-37"/>
<polygon fill="none" stroke="black" points="908.5,-37 908.5,-55 1007.5,-55 1007.5,-37 908.5,-37"/>
<text text-anchor="start" x="911.5" y="-43.2" font-family="Helvetica,sans-Serif" font-size="11.00">&lt; 4</text>
<polygon fill="#ffffff" stroke="none" points="1007.5,-37 1007.5,-55 1087.5,-55 1087.5,-37 1007.5,-37"/>
<polygon fill="none" stroke="black" points="1007.5,-37 1007.5,-55 1087.5,-55 1087.5,-37 1007.5,-37"/>
<text text-anchor="start" x="1048.5" y="-43.2" font-family="Helvetica,sans-Serif" font-size="11.00">0 rows</text>
<polygon fill="#ffffff" stroke="none" points="1087.5,-37 1087.5,-55 1139.5,-55 1139.5,-37 1087.5,-37"/>
<polygon fill="none" stroke="black" points="1087.5,-37 1087.5,-55 1139.5,-55 1139.5,-37 1087.5,-37"/>
<text text-anchor="start" x="1129.5" y="-43.2" font-family="Helvetica,sans-Serif" font-size="11.00"> &#160;</text>
</a>
</g>
</g>
<!-- seedbank.accessions&#45;&gt;users -->
<g id="edge29" class="edge"><title>seedbank.accessions:created_by:w&#45;&gt;users:elipses:e</title>
<path fill="none" stroke="black" d="M893.055,-127.94C781.551,-127.119 528.03,-119.079 450,-178 382.148,-229.235 455.523,-352 370.5,-352"/>
<polygon fill="black" stroke="black" points="899.5,-127.967 907.485,-131.6 903.5,-127.983 907.5,-128 907.5,-128 907.5,-128 903.5,-127.983 907.515,-124.4 899.5,-127.967 899.5,-127.967"/>
<ellipse fill="none" stroke="black" cx="896.3" cy="-127.953" rx="3.2" ry="3.2"/>
</g>
<!-- seedbank.accessions&#45;&gt;users -->
<g id="edge31" class="edge"><title>seedbank.accessions:modified_by:w&#45;&gt;users:elipses:e</title>
<path fill="none" stroke="black" d="M892.772,-105.784C781.475,-102.809 528.023,-70.995 450,-129 365.558,-191.777 475.721,-352 370.5,-352"/>
<polygon fill="black" stroke="black" points="899.501,-105.883 907.447,-109.6 903.5,-105.941 907.5,-106 907.5,-106 907.5,-106 903.5,-105.941 907.553,-102.4 899.501,-105.883 899.501,-105.883"/>
<ellipse fill="none" stroke="black" cx="896.301" cy="-105.836" rx="3.2" ry="3.2"/>
</g>
<!-- seedbank.accessions&#45;&gt;facilities -->
<g id="edge30" class="edge"><title>seedbank.accessions:facility_id:w&#45;&gt;facilities:elipses:e</title>
<path fill="none" stroke="black" d="M895.845,-158.901C860.871,-220.212 889.8,-578.747 867,-621 854.375,-644.396 846.585,-658 820,-658"/>
<polygon fill="black" stroke="black" points="901.142,-154.856 909.685,-152.861 904.321,-152.428 907.5,-150 907.5,-150 907.5,-150 904.321,-152.428 905.315,-147.139 901.142,-154.856 901.142,-154.856"/>
<ellipse fill="none" stroke="black" cx="898.599" cy="-156.798" rx="3.20001" ry="3.20001"/>
</g>
<!-- seedbank.accessions&#45;&gt;countries -->
<g id="edge28" class="edge"><title>seedbank.accessions:collection_site_country_code:w&#45;&gt;countries:code.type:e</title>
<path fill="none" stroke="black" d="M892.845,-83.8736C700.774,-80.55 632.184,-13.4423 450,-92 322.726,-146.88 302.679,-195.773 232,-315 199.774,-369.362 253.696,-451 190.5,-451"/>
<polygon fill="black" stroke="black" points="899.5,-83.931 907.469,-87.5999 903.5,-83.9655 907.5,-84 907.5,-84 907.5,-84 903.5,-83.9655 907.531,-80.4001 899.5,-83.931 899.5,-83.931"/>
<ellipse fill="none" stroke="black" cx="896.3" cy="-83.9033" rx="3.2" ry="3.2"/>
</g>
<!-- tracking.planting_sites -->
<g id="node13" class="node"><title>tracking.planting_sites</title>
<g id="a_node13"><a xlink:href="../../../tracking/tables/planting_sites.html" xlink:title="tracking.planting_sites" target="_top">
<polygon fill="#ffffff" stroke="none" points="681,-155 681,-213 859,-213 859,-155 681,-155"/>
<polygon fill="#f5f5f5" stroke="none" points="681,-191 681,-213 859,-213 859,-191 681,-191"/>
<polygon fill="none" stroke="black" points="681,-191 681,-213 859,-213 859,-191 681,-191"/>
<text text-anchor="start" x="686" y="-200.2" font-family="Helvetica,sans-Serif" font-weight="bold" font-size="11.00">tracking.planting_sites</text>
<text text-anchor="start" x="820" y="-199.2" font-family="Helvetica,sans-Serif" font-size="11.00">[table]</text>
<polygon fill="none" stroke="black" points="681,-173 681,-191 859,-191 859,-173 681,-173"/>
<text text-anchor="start" x="684" y="-179.2" font-family="Helvetica,sans-Serif" font-size="11.00">...</text>
<polygon fill="#ffffff" stroke="none" points="681,-155 681,-173 754,-173 754,-155 681,-155"/>
<polygon fill="none" stroke="black" points="681,-155 681,-173 754,-173 754,-155 681,-155"/>
<text text-anchor="start" x="684" y="-161.2" font-family="Helvetica,sans-Serif" font-size="11.00">&lt; 3</text>
<polygon fill="#ffffff" stroke="none" points="754,-155 754,-173 821,-173 821,-155 754,-155"/>
<polygon fill="none" stroke="black" points="754,-155 754,-173 821,-173 821,-155 754,-155"/>
<text text-anchor="start" x="782" y="-161.2" font-family="Helvetica,sans-Serif" font-size="11.00">0 rows</text>
<polygon fill="#ffffff" stroke="none" points="821,-155 821,-173 859,-173 859,-155 821,-155"/>
<polygon fill="none" stroke="black" points="821,-155 821,-173 859,-173 859,-155 821,-155"/>
<text text-anchor="start" x="849" y="-161.2" font-family="Helvetica,sans-Serif" font-size="11.00"> &#160;</text>
</a>
</g>
</g>
<!-- tracking.planting_sites&#45;&gt;users -->
<g id="edge32" class="edge"><title>tracking.planting_sites:elipses:w&#45;&gt;users:elipses:e</title>
<path fill="none" stroke="black" d="M665.477,-181.915C571.925,-180.854 531.922,-171.102 450,-227 395.614,-264.109 436.34,-352 370.5,-352"/>
<polygon fill="black" stroke="black" points="672,-181.953 679.979,-185.6 676,-181.977 680,-182 680,-182 680,-182 676,-181.977 680.021,-178.4 672,-181.953 672,-181.953"/>
<ellipse fill="none" stroke="black" cx="668.8" cy="-181.935" rx="3.2" ry="3.2"/>
</g>
<!-- tracking.planting_sites&#45;&gt;users -->
<g id="edge33" class="edge"><title>tracking.planting_sites:elipses:w&#45;&gt;users:elipses:e</title>
<path fill="none" stroke="black" d="M665.433,-181.94C571.624,-181.202 532.15,-174.834 450,-231 396.882,-267.317 434.847,-352 370.5,-352"/>
<polygon fill="black" stroke="black" points="672,-181.967 679.985,-185.6 676,-181.984 680,-182 680,-182 680,-182 676,-181.984 680.015,-178.4 672,-181.967 672,-181.967"/>
<ellipse fill="none" stroke="black" cx="668.8" cy="-181.954" rx="3.2" ry="3.2"/>
</g>
<!-- tracking.planting_sites&#45;&gt;organizations -->
<g id="edge34" class="edge"><title>tracking.planting_sites:elipses:w&#45;&gt;organizations:id:e</title>
<path fill="none" stroke="black" d="M666.21,-186.763C614.697,-229.008 707.343,-538 633,-538"/>
<polygon fill="black" stroke="black" points="672.438,-184.612 681.175,-185.403 676.219,-183.306 680,-182 680,-182 680,-182 676.219,-183.306 678.825,-178.597 672.438,-184.612 672.438,-184.612"/>
<ellipse fill="none" stroke="black" cx="669.414" cy="-185.657" rx="3.20001" ry="3.20001"/>
</g>
</g>
</svg>
