<?xml version="1.0" encoding="UTF-8" standalone="no"?>
<!DOCTYPE svg PUBLIC "-//W3C//DTD SVG 1.1//EN"
 "http://www.w3.org/Graphics/SVG/1.1/DTD/svg11.dtd">
<!-- Generated by graphviz version 2.38.0 (20140413.2041)
 -->
<!-- Title: twoDegreesRelationshipsDiagram Pages: 1 -->
<svg width="825pt" height="617pt"
 viewBox="0.00 0.00 825.00 616.77" xmlns="http://www.w3.org/2000/svg" xmlns:xlink="http://www.w3.org/1999/xlink">
<g id="graph0" class="graph" transform="scale(1 1) rotate(0) translate(4 612.769)">
<title>twoDegreesRelationshipsDiagram</title>
<polygon fill="#ffffff" stroke="none" points="-4,4 -4,-612.769 821,-612.769 821,4 -4,4"/>
<text text-anchor="middle" x="74.5" y="-7.2" font-family="Helvetica,sans-Serif" font-size="11.00">Generated by SchemaSpy</text>
<!-- nursery.batches -->
<g id="node1" class="node"><title>nursery.batches</title>
<g id="a_node1"><a xlink:href="../../../nursery/tables/batches.html" xlink:title="nursery.batches" target="_top">
<polygon fill="#ffffff" stroke="none" points="636,-509 636,-567 777,-567 777,-509 636,-509"/>
<polygon fill="#f5f5f5" stroke="none" points="636.5,-545 636.5,-567 777.5,-567 777.5,-545 636.5,-545"/>
<polygon fill="none" stroke="black" points="636.5,-545 636.5,-567 777.5,-567 777.5,-545 636.5,-545"/>
<text text-anchor="start" x="641.5" y="-554.2" font-family="Helvetica,sans-Serif" font-weight="bold" font-size="11.00">nursery.batches</text>
<text text-anchor="start" x="738.5" y="-553.2" font-family="Helvetica,sans-Serif" font-size="11.00">[table]</text>
<polygon fill="none" stroke="black" points="636.5,-527 636.5,-545 777.5,-545 777.5,-527 636.5,-527"/>
<text text-anchor="start" x="639.5" y="-533.2" font-family="Helvetica,sans-Serif" font-size="11.00">...</text>
<polygon fill="#ffffff" stroke="none" points="636.5,-509 636.5,-527 690.5,-527 690.5,-509 636.5,-509"/>
<polygon fill="none" stroke="black" points="636.5,-509 636.5,-527 690.5,-527 690.5,-509 636.5,-509"/>
<text text-anchor="start" x="639.5" y="-515.2" font-family="Helvetica,sans-Serif" font-size="11.00">&lt; 4</text>
<polygon fill="#ffffff" stroke="none" points="690.5,-509 690.5,-527 748.5,-527 748.5,-509 690.5,-509"/>
<polygon fill="none" stroke="black" points="690.5,-509 690.5,-527 748.5,-527 748.5,-509 690.5,-509"/>
<text text-anchor="start" x="709.5" y="-515.2" font-family="Helvetica,sans-Serif" font-size="11.00">0 rows</text>
<polygon fill="#ffffff" stroke="none" points="748.5,-509 748.5,-527 777.5,-527 777.5,-509 748.5,-509"/>
<polygon fill="none" stroke="black" points="748.5,-509 748.5,-527 777.5,-527 777.5,-509 748.5,-509"/>
<text text-anchor="start" x="767.5" y="-515.2" font-family="Helvetica,sans-Serif" font-size="11.00"> &#160;</text>
</a>
</g>
</g>
<!-- users -->
<g id="node2" class="node"><title>users</title>
<g id="a_node2"><a xlink:href="../../tables/users.html" xlink:title="users" target="_top">
<polygon fill="#ffffff" stroke="none" points="8,-326 8,-384 98,-384 98,-326 8,-326"/>
<polygon fill="#f5f5f5" stroke="none" points="8,-362 8,-384 98,-384 98,-362 8,-362"/>
<polygon fill="none" stroke="black" points="8,-362 8,-384 98,-384 98,-362 8,-362"/>
<text text-anchor="start" x="13" y="-371.2" font-family="Helvetica,sans-Serif" font-weight="bold" font-size="11.00">users</text>
<text text-anchor="start" x="59" y="-370.2" font-family="Helvetica,sans-Serif" font-size="11.00">[table]</text>
<polygon fill="none" stroke="black" points="8,-344 8,-362 98,-362 98,-344 8,-344"/>
<text text-anchor="start" x="11" y="-350.2" font-family="Helvetica,sans-Serif" font-size="11.00">...</text>
<polygon fill="#ffffff" stroke="none" points="8,-326 8,-344 31,-344 31,-326 8,-326"/>
<polygon fill="none" stroke="black" points="8,-326 8,-344 31,-344 31,-326 8,-326"/>
<text text-anchor="start" x="11" y="-332.2" font-family="Helvetica,sans-Serif" font-size="11.00">&lt; 1</text>
<polygon fill="#ffffff" stroke="none" points="31,-326 31,-344 68,-344 68,-326 31,-326"/>
<polygon fill="none" stroke="black" points="31,-326 31,-344 68,-344 68,-326 31,-326"/>
<text text-anchor="start" x="34" y="-332.2" font-family="Helvetica,sans-Serif" font-size="11.00">1 row</text>
<polygon fill="#ffffff" stroke="none" points="68,-326 68,-344 98,-344 98,-326 68,-326"/>
<polygon fill="none" stroke="black" points="68,-326 68,-344 98,-344 98,-326 68,-326"/>
<text text-anchor="start" x="71" y="-332.2" font-family="Helvetica,sans-Serif" font-size="11.00">34 &gt;</text>
</a>
</g>
</g>
<!-- nursery.batches&#45;&gt;users -->
<g id="edge1" class="edge"><title>nursery.batches:elipses:w&#45;&gt;users:elipses:e</title>
<path fill="none" stroke="black" d="M620.798,-536.228C410.003,-542.757 306.084,-686.568 139,-550 69.8251,-493.459 188.342,-353 99,-353"/>
<polygon fill="black" stroke="black" points="627.501,-536.124 635.556,-539.6 631.5,-536.062 635.5,-536 635.5,-536 635.5,-536 631.5,-536.062 635.444,-532.4 627.501,-536.124 627.501,-536.124"/>
<ellipse fill="none" stroke="black" cx="624.301" cy="-536.173" rx="3.2" ry="3.2"/>
</g>
<!-- nursery.batches&#45;&gt;users -->
<g id="edge3" class="edge"><title>nursery.batches:elipses:w&#45;&gt;users:elipses:e</title>
<path fill="none" stroke="black" d="M620.801,-536.221C410.055,-542.563 306.327,-682.204 139,-546 71.0617,-490.698 186.601,-353 99,-353"/>
<polygon fill="black" stroke="black" points="627.501,-536.12 635.554,-539.6 631.5,-536.06 635.5,-536 635.5,-536 635.5,-536 631.5,-536.06 635.446,-532.4 627.501,-536.12 627.501,-536.12"/>
<ellipse fill="none" stroke="black" cx="624.301" cy="-536.168" rx="3.2" ry="3.2"/>
</g>
<!-- facilities -->
<g id="node3" class="node"><title>facilities</title>
<g id="a_node3"><a xlink:href="../../tables/facilities.html" xlink:title="facilities" target="_top">
<polygon fill="#ffffff" stroke="none" points="400,-160 400,-394 555,-394 555,-160 400,-160"/>
<polygon fill="#f5f5f5" stroke="none" points="400.5,-372 400.5,-394 555.5,-394 555.5,-372 400.5,-372"/>
<polygon fill="none" stroke="black" points="400.5,-372 400.5,-394 555.5,-394 555.5,-372 400.5,-372"/>
<text text-anchor="start" x="405.5" y="-381.2" font-family="Helvetica,sans-Serif" font-weight="bold" font-size="11.00">facilities</text>
<text text-anchor="start" x="516.5" y="-380.2" font-family="Helvetica,sans-Serif" font-size="11.00">[table]</text>
<polygon fill="none" stroke="black" points="400.5,-350 400.5,-372 555.5,-372 555.5,-350 400.5,-350"/>
<image xlink:href="../../images/primaryKeys.png" width="11px" height="12px" preserveAspectRatio="xMinYMin meet" x="405.5" y="-367"/>
<text text-anchor="start" x="420.5" y="-358.2" font-family="Helvetica,sans-Serif" font-size="11.00">id</text>
<polygon fill="none" stroke="black" points="400.5,-328 400.5,-350 555.5,-350 555.5,-328 400.5,-328"/>
<image xlink:href="../../images/foreignKeys.png" width="11px" height="12px" preserveAspectRatio="xMinYMin meet" x="405.5" y="-345"/>
<text text-anchor="start" x="420.5" y="-336.2" font-family="Helvetica,sans-Serif" font-size="11.00">type_id</text>
<polygon fill="none" stroke="black" points="400.5,-306 400.5,-328 555.5,-328 555.5,-306 400.5,-306"/>
<image xlink:href="../../images/foreignKeys.png" width="11px" height="12px" preserveAspectRatio="xMinYMin meet" x="405.5" y="-323"/>
<text text-anchor="start" x="420.5" y="-314.2" font-family="Helvetica,sans-Serif" font-size="11.00">created_by</text>
<polygon fill="none" stroke="black" points="400.5,-284 400.5,-306 555.5,-306 555.5,-284 400.5,-284"/>
<image xlink:href="../../images/foreignKeys.png" width="11px" height="12px" preserveAspectRatio="xMinYMin meet" x="405.5" y="-301"/>
<text text-anchor="start" x="420.5" y="-292.2" font-family="Helvetica,sans-Serif" font-size="11.00">modified_by</text>
<polygon fill="#ffffff" stroke="none" points="400.5,-262 400.5,-284 555.5,-284 555.5,-262 400.5,-262"/>
<polygon fill="none" stroke="black" points="400.5,-262 400.5,-284 555.5,-284 555.5,-262 400.5,-262"/>
<text text-anchor="start" x="420.5" y="-270.2" font-family="Helvetica,sans-Serif" font-size="11.00">idle_after_time</text>
<polygon fill="none" stroke="black" points="400.5,-240 400.5,-262 555.5,-262 555.5,-240 400.5,-240"/>
<image xlink:href="../../images/foreignKeys.png" width="11px" height="12px" preserveAspectRatio="xMinYMin meet" x="405.5" y="-257"/>
<text text-anchor="start" x="420.5" y="-248.2" font-family="Helvetica,sans-Serif" font-size="11.00">connection_state_id</text>
<polygon fill="#ffffff" stroke="none" points="400.5,-218 400.5,-240 555.5,-240 555.5,-218 400.5,-218"/>
<polygon fill="none" stroke="black" points="400.5,-218 400.5,-240 555.5,-240 555.5,-218 400.5,-218"/>
<image xlink:href="../../images/foreignKeys.png" width="11px" height="12px" preserveAspectRatio="xMinYMin meet" x="405.5" y="-235"/>
<text text-anchor="start" x="420.5" y="-226.2" font-family="Helvetica,sans-Serif" font-size="11.00">organization_id</text>
<polygon fill="#ffffff" stroke="none" points="400.5,-196 400.5,-218 555.5,-218 555.5,-196 400.5,-196"/>
<polygon fill="none" stroke="black" points="400.5,-196 400.5,-218 555.5,-218 555.5,-196 400.5,-196"/>
<text text-anchor="start" x="420.5" y="-204.2" font-family="Helvetica,sans-Serif" font-size="11.00">next_notification_time</text>
<polygon fill="none" stroke="black" points="400.5,-178 400.5,-196 555.5,-196 555.5,-178 400.5,-178"/>
<text text-anchor="start" x="403.5" y="-184.2" font-family="Helvetica,sans-Serif" font-size="11.00">...</text>
<polygon fill="#ffffff" stroke="none" points="400.5,-160 400.5,-178 456.5,-178 456.5,-160 400.5,-160"/>
<polygon fill="none" stroke="black" points="400.5,-160 400.5,-178 456.5,-178 456.5,-160 400.5,-160"/>
<text text-anchor="start" x="403.5" y="-166.2" font-family="Helvetica,sans-Serif" font-size="11.00">&lt; 5</text>
<polygon fill="#ffffff" stroke="none" points="456.5,-160 456.5,-178 515.5,-178 515.5,-160 456.5,-160"/>
<polygon fill="none" stroke="black" points="456.5,-160 456.5,-178 515.5,-178 515.5,-160 456.5,-160"/>
<text text-anchor="start" x="476.5" y="-166.2" font-family="Helvetica,sans-Serif" font-size="11.00">0 rows</text>
<polygon fill="#ffffff" stroke="none" points="515.5,-160 515.5,-178 555.5,-178 555.5,-160 515.5,-160"/>
<polygon fill="none" stroke="black" points="515.5,-160 515.5,-178 555.5,-178 555.5,-160 515.5,-160"/>
<text text-anchor="start" x="535.5" y="-166.2" font-family="Helvetica,sans-Serif" font-size="11.00">7 &gt;</text>
</a>
</g>
</g>
<!-- nursery.batches&#45;&gt;facilities -->
<g id="edge2" class="edge"><title>nursery.batches:elipses:w&#45;&gt;facilities:id:e</title>
<path fill="none" stroke="black" d="M621.307,-533.278C609.473,-527.783 605.503,-514.555 596,-499 562.74,-444.559 620.296,-361 556.5,-361"/>
<polygon fill="black" stroke="black" points="627.643,-534.493 634.822,-539.536 631.572,-535.246 635.5,-536 635.5,-536 635.5,-536 631.572,-535.246 636.178,-532.464 627.643,-534.493 627.643,-534.493"/>
<ellipse fill="none" stroke="black" cx="624.501" cy="-533.89" rx="3.2" ry="3.2"/>
</g>
<!-- organizations -->
<g id="node4" class="node"><title>organizations</title>
<g id="a_node4"><a xlink:href="../../tables/organizations.html" xlink:title="organizations" target="_top">
<polygon fill="#ffffff" stroke="none" points="186.5,-481 186.5,-539 311.5,-539 311.5,-481 186.5,-481"/>
<polygon fill="#f5f5f5" stroke="none" points="187,-517 187,-539 312,-539 312,-517 187,-517"/>
<polygon fill="none" stroke="black" points="187,-517 187,-539 312,-539 312,-517 187,-517"/>
<text text-anchor="start" x="192" y="-526.2" font-family="Helvetica,sans-Serif" font-weight="bold" font-size="11.00">organizations</text>
<text text-anchor="start" x="273" y="-525.2" font-family="Helvetica,sans-Serif" font-size="11.00">[table]</text>
<polygon fill="none" stroke="black" points="187,-499 187,-517 312,-517 312,-499 187,-499"/>
<text text-anchor="start" x="190" y="-505.2" font-family="Helvetica,sans-Serif" font-size="11.00">...</text>
<polygon fill="#ffffff" stroke="none" points="187,-481 187,-499 228,-499 228,-481 187,-481"/>
<polygon fill="none" stroke="black" points="187,-481 187,-499 228,-499 228,-481 187,-481"/>
<text text-anchor="start" x="190" y="-487.2" font-family="Helvetica,sans-Serif" font-size="11.00">&lt; 4</text>
<polygon fill="#ffffff" stroke="none" points="228,-481 228,-499 279,-499 279,-481 228,-481"/>
<polygon fill="none" stroke="black" points="228,-481 228,-499 279,-499 279,-481 228,-481"/>
<text text-anchor="start" x="240" y="-487.2" font-family="Helvetica,sans-Serif" font-size="11.00">0 rows</text>
<polygon fill="#ffffff" stroke="none" points="279,-481 279,-499 312,-499 312,-481 279,-481"/>
<polygon fill="none" stroke="black" points="279,-481 279,-499 312,-499 312,-481 279,-481"/>
<text text-anchor="start" x="292" y="-487.2" font-family="Helvetica,sans-Serif" font-size="11.00">7 &gt;</text>
</a>
</g>
</g>
<!-- nursery.batches&#45;&gt;organizations -->
<g id="edge4" class="edge"><title>nursery.batches:elipses:w&#45;&gt;organizations:elipses:e</title>
<path fill="none" stroke="black" d="M620.721,-535.899C489.049,-534.066 451.815,-508 313,-508"/>
<polygon fill="black" stroke="black" points="627.5,-535.945 635.475,-539.6 631.5,-535.973 635.5,-536 635.5,-536 635.5,-536 631.5,-535.973 635.525,-532.4 627.5,-535.945 627.5,-535.945"/>
<ellipse fill="none" stroke="black" cx="624.3" cy="-535.923" rx="3.2" ry="3.2"/>
</g>
<!-- facilities&#45;&gt;users -->
<g id="edge12" class="edge"><title>facilities:created_by:w&#45;&gt;users:elipses:e</title>
<path fill="none" stroke="black" d="M385.366,-313.27C377.124,-308.188 372.697,-299.34 359,-296 264.006,-272.836 225.753,-250.896 139,-296 111.541,-310.276 129.949,-353 99,-353"/>
<polygon fill="black" stroke="black" points="391.765,-314.958 398.581,-320.481 395.632,-315.979 399.5,-317 399.5,-317 399.5,-317 395.632,-315.979 400.419,-313.519 391.765,-314.958 391.765,-314.958"/>
<ellipse fill="none" stroke="black" cx="388.671" cy="-314.142" rx="3.2" ry="3.2"/>
</g>
<!-- facilities&#45;&gt;users -->
<g id="edge13" class="edge"><title>facilities:modified_by:w&#45;&gt;users:elipses:e</title>
<path fill="none" stroke="black" d="M385.637,-290.563C377.008,-283.718 374.15,-270.865 359,-266 312.452,-251.053 180.162,-239.621 139,-266 103.169,-288.963 141.558,-353 99,-353"/>
<polygon fill="black" stroke="black" points="391.881,-292.561 398.403,-298.429 395.69,-293.781 399.5,-295 399.5,-295 399.5,-295 395.69,-293.781 400.597,-291.571 391.881,-292.561 391.881,-292.561"/>
<ellipse fill="none" stroke="black" cx="388.833" cy="-291.586" rx="3.20001" ry="3.20001"/>
</g>
<!-- facilities&#45;&gt;organizations -->
<g id="edge14" class="edge"><title>facilities:organization_id:w&#45;&gt;organizations:elipses:e</title>
<path fill="none" stroke="black" d="M386.431,-235.367C362.14,-262.904 370.1,-371.849 359,-405 343.082,-452.541 363.136,-508 313,-508"/>
<polygon fill="black" stroke="black" points="392.308,-232.504 401.077,-232.236 395.904,-230.752 399.5,-229 399.5,-229 399.5,-229 395.904,-230.752 397.923,-225.764 392.308,-232.504 392.308,-232.504"/>
<ellipse fill="none" stroke="black" cx="389.431" cy="-233.905" rx="3.20001" ry="3.20001"/>
</g>
<!-- facility_connection_states -->
<g id="node7" class="node"><title>facility_connection_states</title>
<g id="a_node7"><a xlink:href="../../tables/facility_connection_states.html" xlink:title="facility_connection_states" target="_top">
<polygon fill="#ffffff" stroke="none" points="151,-173 151,-231 347,-231 347,-173 151,-173"/>
<polygon fill="#f5f5f5" stroke="none" points="151,-209 151,-231 347,-231 347,-209 151,-209"/>
<polygon fill="none" stroke="black" points="151,-209 151,-231 347,-231 347,-209 151,-209"/>
<text text-anchor="start" x="156" y="-218.2" font-family="Helvetica,sans-Serif" font-weight="bold" font-size="11.00">facility_connection_states</text>
<text text-anchor="start" x="308" y="-217.2" font-family="Helvetica,sans-Serif" font-size="11.00">[table]</text>
<polygon fill="none" stroke="black" points="151,-191 151,-209 347,-209 347,-191 151,-191"/>
<text text-anchor="start" x="154" y="-197.2" font-family="Helvetica,sans-Serif" font-size="11.00">...</text>
<polygon fill="#ffffff" stroke="none" points="151,-173 151,-191 223,-191 223,-173 151,-173"/>
<polygon fill="none" stroke="black" points="151,-173 151,-191 223,-191 223,-173 151,-173"/>
<text text-anchor="start" x="154" y="-179.2" font-family="Helvetica,sans-Serif" font-size="11.00"> &#160;</text>
<polygon fill="#ffffff" stroke="none" points="223,-173 223,-191 294,-191 294,-173 223,-173"/>
<polygon fill="none" stroke="black" points="223,-173 223,-191 294,-191 294,-173 223,-173"/>
<text text-anchor="start" x="255" y="-179.2" font-family="Helvetica,sans-Serif" font-size="11.00">3 rows</text>
<polygon fill="#ffffff" stroke="none" points="294,-173 294,-191 347,-191 347,-173 294,-173"/>
<polygon fill="none" stroke="black" points="294,-173 294,-191 347,-191 347,-173 294,-173"/>
<text text-anchor="start" x="327" y="-179.2" font-family="Helvetica,sans-Serif" font-size="11.00">1 &gt;</text>
</a>
</g>
</g>
<!-- facilities&#45;&gt;facility_connection_states -->
<g id="edge11" class="edge"><title>facilities:connection_state_id:w&#45;&gt;facility_connection_states:elipses:e</title>
<path fill="none" stroke="black" d="M385.546,-246.293C370.547,-233.668 374.173,-200 348,-200"/>
<polygon fill="black" stroke="black" points="391.92,-248.443 398.349,-254.411 395.71,-249.722 399.5,-251 399.5,-251 399.5,-251 395.71,-249.722 400.651,-247.589 391.92,-248.443 391.92,-248.443"/>
<ellipse fill="none" stroke="black" cx="388.887" cy="-247.42" rx="3.20001" ry="3.20001"/>
</g>
<!-- facility_types -->
<g id="node8" class="node"><title>facility_types</title>
<g id="a_node8"><a xlink:href="../../tables/facility_types.html" xlink:title="facility_types" target="_top">
<polygon fill="#ffffff" stroke="none" points="147,-306 147,-394 351,-394 351,-306 147,-306"/>
<polygon fill="#f5f5f5" stroke="none" points="149,-370 149,-392 349,-392 349,-370 149,-370"/>
<polygon fill="none" stroke="black" points="149,-370 149,-392 349,-392 349,-370 149,-370"/>
<text text-anchor="start" x="154" y="-379.2" font-family="Helvetica,sans-Serif" font-weight="bold" font-size="11.00">facility_types</text>
<text text-anchor="start" x="310" y="-378.2" font-family="Helvetica,sans-Serif" font-size="11.00">[table]</text>
<polygon fill="none" stroke="black" points="149,-348 149,-370 248,-370 248,-348 149,-348"/>
<image xlink:href="../../images/primaryKeys.png" width="11px" height="12px" preserveAspectRatio="xMinYMin meet" x="154" y="-365"/>
<text text-anchor="start" x="169" y="-356.2" font-family="Helvetica,sans-Serif" font-size="11.00">id</text>
<polygon fill="none" stroke="black" points="248,-348 248,-370 349,-370 349,-348 248,-348"/>
<text text-anchor="start" x="251" y="-356.2" font-family="Helvetica,sans-Serif" font-size="11.00">int4[10]</text>
<polygon fill="none" stroke="black" points="149,-326 149,-348 248,-348 248,-326 149,-326"/>
<text text-anchor="start" x="169" y="-334.2" font-family="Helvetica,sans-Serif" font-size="11.00">name</text>
<polygon fill="none" stroke="black" points="248,-326 248,-348 349,-348 349,-326 248,-326"/>
<text text-anchor="start" x="251" y="-334.2" font-family="Helvetica,sans-Serif" font-size="11.00">text[2147483647]</text>
<polygon fill="#ffffff" stroke="none" points="149,-308 149,-326 189,-326 189,-308 149,-308"/>
<polygon fill="none" stroke="black" points="149,-308 149,-326 189,-326 189,-308 149,-308"/>
<text text-anchor="start" x="152" y="-314.2" font-family="Helvetica,sans-Serif" font-size="11.00">&lt; 0</text>
<polygon fill="#ffffff" stroke="none" points="189,-308 189,-326 248,-326 248,-308 189,-308"/>
<polygon fill="none" stroke="black" points="189,-308 189,-326 248,-326 248,-308 189,-308"/>
<text text-anchor="start" x="209" y="-314.2" font-family="Helvetica,sans-Serif" font-size="11.00">4 rows</text>
<polygon fill="#ffffff" stroke="none" points="248,-308 248,-326 349,-326 349,-308 248,-308"/>
<polygon fill="none" stroke="black" points="248,-308 248,-326 349,-326 349,-308 248,-308"/>
<text text-anchor="start" x="329" y="-314.2" font-family="Helvetica,sans-Serif" font-size="11.00">1 &gt;</text>
<polygon fill="none" stroke="black" stroke-width="2" points="148,-307 148,-393 350,-393 350,-307 148,-307"/>
</a>
</g>
</g>
<!-- facilities&#45;&gt;facility_types -->
<g id="edge15" class="edge"><title>facilities:type_id:w&#45;&gt;facility_types:id.type:e</title>
<path fill="none" stroke="black" d="M385.092,-342.125C373.395,-347.75 367.796,-359 350,-359"/>
<polygon fill="black" stroke="black" points="391.682,-340.696 400.263,-342.518 395.591,-339.848 399.5,-339 399.5,-339 399.5,-339 395.591,-339.848 398.737,-335.482 391.682,-340.696 391.682,-340.696"/>
<ellipse fill="none" stroke="black" cx="388.554" cy="-341.374" rx="3.2" ry="3.2"/>
</g>
<!-- organizations&#45;&gt;users -->
<g id="edge16" class="edge"><title>organizations:elipses:w&#45;&gt;users:elipses:e</title>
<path fill="none" stroke="black" d="M172.236,-503.159C156.371,-494.762 151.511,-479.467 139,-461 108.883,-416.547 152.695,-347 99,-353"/>
<polygon fill="black" stroke="black" points="178.453,-505.345 184.805,-511.396 182.227,-506.673 186,-508 186,-508 186,-508 182.227,-506.673 187.195,-504.604 178.453,-505.345 178.453,-505.345"/>
<ellipse fill="none" stroke="black" cx="175.435" cy="-504.284" rx="3.20001" ry="3.20001"/>
</g>
<!-- organizations&#45;&gt;users -->
<g id="edge17" class="edge"><title>organizations:elipses:w&#45;&gt;users:elipses:e</title>
<path fill="none" stroke="black" d="M171.324,-509.275C156.18,-507.167 151.268,-492.108 139,-474 108.883,-429.547 152.695,-360 99,-353"/>
<polygon fill="black" stroke="black" points="178.03,-508.692 186.312,-511.586 182.015,-508.346 186,-508 186,-508 186,-508 182.015,-508.346 185.688,-504.414 178.03,-508.692 178.03,-508.692"/>
<ellipse fill="none" stroke="black" cx="174.842" cy="-508.969" rx="3.2" ry="3.2"/>
</g>
<!-- nursery.withdrawals -->
<g id="node5" class="node"><title>nursery.withdrawals</title>
<g id="a_node5"><a xlink:href="../../../nursery/tables/withdrawals.html" xlink:title="nursery.withdrawals" target="_top">
<polygon fill="#ffffff" stroke="none" points="623,-342 623,-400 790,-400 790,-342 623,-342"/>
<polygon fill="#f5f5f5" stroke="none" points="623.5,-378 623.5,-400 790.5,-400 790.5,-378 623.5,-378"/>
<polygon fill="none" stroke="black" points="623.5,-378 623.5,-400 790.5,-400 790.5,-378 623.5,-378"/>
<text text-anchor="start" x="628.5" y="-387.2" font-family="Helvetica,sans-Serif" font-weight="bold" font-size="11.00">nursery.withdrawals</text>
<text text-anchor="start" x="751.5" y="-386.2" font-family="Helvetica,sans-Serif" font-size="11.00">[table]</text>
<polygon fill="none" stroke="black" points="623.5,-360 623.5,-378 790.5,-378 790.5,-360 623.5,-360"/>
<text text-anchor="start" x="626.5" y="-366.2" font-family="Helvetica,sans-Serif" font-size="11.00">...</text>
<polygon fill="#ffffff" stroke="none" points="623.5,-342 623.5,-360 690.5,-360 690.5,-342 623.5,-342"/>
<polygon fill="none" stroke="black" points="623.5,-342 623.5,-360 690.5,-360 690.5,-342 623.5,-342"/>
<text text-anchor="start" x="626.5" y="-348.2" font-family="Helvetica,sans-Serif" font-size="11.00">&lt; 4</text>
<polygon fill="#ffffff" stroke="none" points="690.5,-342 690.5,-360 754.5,-360 754.5,-342 690.5,-342"/>
<polygon fill="none" stroke="black" points="690.5,-342 690.5,-360 754.5,-360 754.5,-342 690.5,-342"/>
<text text-anchor="start" x="715.5" y="-348.2" font-family="Helvetica,sans-Serif" font-size="11.00">0 rows</text>
<polygon fill="#ffffff" stroke="none" points="754.5,-342 754.5,-360 790.5,-360 790.5,-342 754.5,-342"/>
<polygon fill="none" stroke="black" points="754.5,-342 754.5,-360 790.5,-360 790.5,-342 754.5,-342"/>
<text text-anchor="start" x="780.5" y="-348.2" font-family="Helvetica,sans-Serif" font-size="11.00"> &#160;</text>
</a>
</g>
</g>
<!-- nursery.withdrawals&#45;&gt;users -->
<g id="edge5" class="edge"><title>nursery.withdrawals:elipses:w&#45;&gt;users:elipses:e</title>
<path fill="none" stroke="black" d="M608.083,-371.611C590.946,-378.704 587.189,-398.252 563,-405 472.243,-430.319 223.53,-446.623 139,-405 112.842,-392.12 128.158,-353 99,-353"/>
<polygon fill="black" stroke="black" points="614.628,-370.425 623.141,-372.542 618.564,-369.713 622.5,-369 622.5,-369 622.5,-369 618.564,-369.713 621.859,-365.458 614.628,-370.425 614.628,-370.425"/>
<ellipse fill="none" stroke="black" cx="611.479" cy="-370.996" rx="3.2" ry="3.2"/>
</g>
<!-- nursery.withdrawals&#45;&gt;users -->
<g id="edge8" class="edge"><title>nursery.withdrawals:elipses:w&#45;&gt;users:elipses:e</title>
<path fill="none" stroke="black" d="M607.867,-371.51C591.237,-377.974 586.43,-395.099 563,-401 471.631,-424.011 224.327,-440.965 139,-401 113.852,-389.221 126.77,-353 99,-353"/>
<polygon fill="black" stroke="black" points="614.615,-370.352 623.109,-372.548 618.558,-369.676 622.5,-369 622.5,-369 622.5,-369 618.558,-369.676 621.891,-365.452 614.615,-370.352 614.615,-370.352"/>
<ellipse fill="none" stroke="black" cx="611.461" cy="-370.893" rx="3.2" ry="3.2"/>
</g>
<!-- nursery.withdrawals&#45;&gt;facilities -->
<g id="edge6" class="edge"><title>nursery.withdrawals:elipses:w&#45;&gt;facilities:id:e</title>
<path fill="none" stroke="black" d="M608.235,-365.592C589.654,-360.534 580.623,-356.102 556.5,-361"/>
<polygon fill="black" stroke="black" points="614.719,-367.141 621.663,-372.501 618.609,-368.071 622.5,-369 622.5,-369 622.5,-369 618.609,-368.071 623.337,-365.499 614.719,-367.141 614.719,-367.141"/>
<ellipse fill="none" stroke="black" cx="611.607" cy="-366.397" rx="3.2" ry="3.2"/>
</g>
<!-- nursery.withdrawals&#45;&gt;facilities -->
<g id="edge7" class="edge"><title>nursery.withdrawals:elipses:w&#45;&gt;facilities:id:e</title>
<path fill="none" stroke="black" d="M608.235,-371.438C589.654,-373.096 580.623,-366.715 556.5,-361"/>
<polygon fill="black" stroke="black" points="614.614,-370.348 623.106,-372.549 618.557,-369.674 622.5,-369 622.5,-369 622.5,-369 618.557,-369.674 621.894,-365.451 614.614,-370.348 614.614,-370.348"/>
<ellipse fill="none" stroke="black" cx="611.46" cy="-370.887" rx="3.2" ry="3.2"/>
</g>
<!-- device_managers -->
<g id="node6" class="node"><title>device_managers</title>
<g id="a_node6"><a xlink:href="../../tables/device_managers.html" xlink:title="device_managers" target="_top">
<polygon fill="#ffffff" stroke="none" points="633.5,-233 633.5,-291 779.5,-291 779.5,-233 633.5,-233"/>
<polygon fill="#f5f5f5" stroke="none" points="633.5,-269 633.5,-291 779.5,-291 779.5,-269 633.5,-269"/>
<polygon fill="none" stroke="black" points="633.5,-269 633.5,-291 779.5,-291 779.5,-269 633.5,-269"/>
<text text-anchor="start" x="638.5" y="-278.2" font-family="Helvetica,sans-Serif" font-weight="bold" font-size="11.00">device_managers</text>
<text text-anchor="start" x="740.5" y="-277.2" font-family="Helvetica,sans-Serif" font-size="11.00">[table]</text>
<polygon fill="none" stroke="black" points="633.5,-251 633.5,-269 779.5,-269 779.5,-251 633.5,-251"/>
<text text-anchor="start" x="636.5" y="-257.2" font-family="Helvetica,sans-Serif" font-size="11.00">...</text>
<polygon fill="#ffffff" stroke="none" points="633.5,-233 633.5,-251 690.5,-251 690.5,-233 633.5,-233"/>
<polygon fill="none" stroke="black" points="633.5,-233 633.5,-251 690.5,-251 690.5,-233 633.5,-233"/>
<text text-anchor="start" x="636.5" y="-239.2" font-family="Helvetica,sans-Serif" font-size="11.00">&lt; 2</text>
<polygon fill="#ffffff" stroke="none" points="690.5,-233 690.5,-251 749.5,-251 749.5,-233 690.5,-233"/>
<polygon fill="none" stroke="black" points="690.5,-233 690.5,-251 749.5,-251 749.5,-233 690.5,-233"/>
<text text-anchor="start" x="710.5" y="-239.2" font-family="Helvetica,sans-Serif" font-size="11.00">0 rows</text>
<polygon fill="#ffffff" stroke="none" points="749.5,-233 749.5,-251 779.5,-251 779.5,-233 749.5,-233"/>
<polygon fill="none" stroke="black" points="749.5,-233 749.5,-251 779.5,-251 779.5,-233 749.5,-233"/>
<text text-anchor="start" x="769.5" y="-239.2" font-family="Helvetica,sans-Serif" font-size="11.00"> &#160;</text>
</a>
</g>
</g>
<!-- device_managers&#45;&gt;users -->
<g id="edge10" class="edge"><title>device_managers:elipses:w&#45;&gt;users:elipses:e</title>
<path fill="none" stroke="black" d="M618.154,-257.778C581.429,-244.484 608.702,-175.185 563,-150 515.313,-123.722 159.702,-145.302 139,-163 73.4062,-219.075 185.296,-353 99,-353"/>
<polygon fill="black" stroke="black" points="624.594,-258.776 631.949,-263.558 628.547,-259.388 632.5,-260 632.5,-260 632.5,-260 628.547,-259.388 633.051,-256.442 624.594,-258.776 624.594,-258.776"/>
<ellipse fill="none" stroke="black" cx="621.432" cy="-258.286" rx="3.2" ry="3.2"/>
</g>
<!-- device_managers&#45;&gt;facilities -->
<g id="edge9" class="edge"><title>device_managers:elipses:w&#45;&gt;facilities:id:e</title>
<path fill="none" stroke="black" d="M621.958,-261.428C580.977,-273.704 608.728,-361 556.5,-361"/>
<polygon fill="black" stroke="black" points="631.17,-256.144 632.244,-264.071 630.659,-264.286 629.585,-256.358 631.17,-256.144"/>
<polyline fill="none" stroke="black" points="632.5,-260 628.536,-260.537 "/>
<ellipse fill="none" stroke="black" cx="625.365" cy="-260.966" rx="3.2" ry="3.2"/>
</g>
<!-- uploads -->
<g id="node9" class="node"><title>uploads</title>
<g id="a_node9"><a xlink:href="../../tables/uploads.html" xlink:title="uploads" target="_top">
<polygon fill="#ffffff" stroke="none" points="659.5,-430 659.5,-488 753.5,-488 753.5,-430 659.5,-430"/>
<polygon fill="#f5f5f5" stroke="none" points="659.5,-466 659.5,-488 753.5,-488 753.5,-466 659.5,-466"/>
<polygon fill="none" stroke="black" points="659.5,-466 659.5,-488 753.5,-488 753.5,-466 659.5,-466"/>
<text text-anchor="start" x="664.5" y="-475.2" font-family="Helvetica,sans-Serif" font-weight="bold" font-size="11.00">uploads</text>
<text text-anchor="start" x="714.5" y="-474.2" font-family="Helvetica,sans-Serif" font-size="11.00">[table]</text>
<polygon fill="none" stroke="black" points="659.5,-448 659.5,-466 753.5,-466 753.5,-448 659.5,-448"/>
<text text-anchor="start" x="662.5" y="-454.2" font-family="Helvetica,sans-Serif" font-size="11.00">...</text>
<polygon fill="#ffffff" stroke="none" points="659.5,-430 659.5,-448 685.5,-448 685.5,-430 659.5,-430"/>
<polygon fill="none" stroke="black" points="659.5,-430 659.5,-448 685.5,-448 685.5,-430 659.5,-430"/>
<text text-anchor="start" x="662.5" y="-436.2" font-family="Helvetica,sans-Serif" font-size="11.00">&lt; 5</text>
<polygon fill="#ffffff" stroke="none" points="685.5,-430 685.5,-448 728.5,-448 728.5,-430 685.5,-430"/>
<polygon fill="none" stroke="black" points="685.5,-430 685.5,-448 728.5,-448 728.5,-430 685.5,-430"/>
<text text-anchor="start" x="689.5" y="-436.2" font-family="Helvetica,sans-Serif" font-size="11.00">0 rows</text>
<polygon fill="#ffffff" stroke="none" points="728.5,-430 728.5,-448 753.5,-448 753.5,-430 728.5,-430"/>
<polygon fill="none" stroke="black" points="728.5,-430 728.5,-448 753.5,-448 753.5,-430 728.5,-430"/>
<text text-anchor="start" x="733.5" y="-436.2" font-family="Helvetica,sans-Serif" font-size="11.00">1 &gt;</text>
</a>
</g>
</g>
<!-- uploads&#45;&gt;users -->
<g id="edge18" class="edge"><title>uploads:elipses:w&#45;&gt;users:elipses:e</title>
<path fill="none" stroke="black" d="M643.72,-457.157C518.675,-459.599 232.432,-488.898 139,-429 106.866,-408.399 137.171,-353 99,-353"/>
<polygon fill="black" stroke="black" points="650.5,-457.085 658.538,-460.6 654.5,-457.043 658.5,-457 658.5,-457 658.5,-457 654.5,-457.043 658.462,-453.4 650.5,-457.085 650.5,-457.085"/>
<ellipse fill="none" stroke="black" cx="647.301" cy="-457.119" rx="3.2" ry="3.2"/>
</g>
<!-- uploads&#45;&gt;facilities -->
<g id="edge19" class="edge"><title>uploads:elipses:w&#45;&gt;facilities:id:e</title>
<path fill="none" stroke="black" d="M644.118,-455.387C622.428,-449.893 616.829,-431.13 596,-411 575.636,-391.319 584.82,-361 556.5,-361"/>
<polygon fill="black" stroke="black" points="650.55,-456.108 658.099,-460.578 654.525,-456.554 658.5,-457 658.5,-457 658.5,-457 654.525,-456.554 658.901,-453.422 650.55,-456.108 650.55,-456.108"/>
<ellipse fill="none" stroke="black" cx="647.37" cy="-455.752" rx="3.2" ry="3.2"/>
</g>
<!-- uploads&#45;&gt;organizations -->
<g id="edge20" class="edge"><title>uploads:elipses:w&#45;&gt;organizations:elipses:e</title>
<path fill="none" stroke="black" d="M644.006,-457.488C559.337,-462.708 386.138,-508 313,-508"/>
<polygon fill="black" stroke="black" points="650.505,-457.269 658.621,-460.598 654.502,-457.135 658.5,-457 658.5,-457 658.5,-457 654.502,-457.135 658.379,-453.402 650.505,-457.269 650.505,-457.269"/>
<ellipse fill="none" stroke="black" cx="647.306" cy="-457.377" rx="3.2" ry="3.2"/>
</g>
<!-- seedbank.accessions -->
<g id="node10" class="node"><title>seedbank.accessions</title>
<g id="a_node10"><a xlink:href="../../../seedbank/tables/accessions.html" xlink:title="seedbank.accessions" target="_top">
<polygon fill="#ffffff" stroke="none" points="623.5,-116 623.5,-174 789.5,-174 789.5,-116 623.5,-116"/>
<polygon fill="#f5f5f5" stroke="none" points="623.5,-152 623.5,-174 789.5,-174 789.5,-152 623.5,-152"/>
<polygon fill="none" stroke="black" points="623.5,-152 623.5,-174 789.5,-174 789.5,-152 623.5,-152"/>
<text text-anchor="start" x="628.5" y="-161.2" font-family="Helvetica,sans-Serif" font-weight="bold" font-size="11.00">seedbank.accessions</text>
<text text-anchor="start" x="750.5" y="-160.2" font-family="Helvetica,sans-Serif" font-size="11.00">[table]</text>
<polygon fill="none" stroke="black" points="623.5,-134 623.5,-152 789.5,-152 789.5,-134 623.5,-134"/>
<text text-anchor="start" x="626.5" y="-140.2" font-family="Helvetica,sans-Serif" font-size="11.00">...</text>
<polygon fill="#ffffff" stroke="none" points="623.5,-116 623.5,-134 690.5,-134 690.5,-116 623.5,-116"/>
<polygon fill="none" stroke="black" points="623.5,-116 623.5,-134 690.5,-134 690.5,-116 623.5,-116"/>
<text text-anchor="start" x="626.5" y="-122.2" font-family="Helvetica,sans-Serif" font-size="11.00">&lt; 4</text>
<polygon fill="#ffffff" stroke="none" points="690.5,-116 690.5,-134 754.5,-134 754.5,-116 690.5,-116"/>
<polygon fill="none" stroke="black" points="690.5,-116 690.5,-134 754.5,-134 754.5,-116 690.5,-116"/>
<text text-anchor="start" x="715.5" y="-122.2" font-family="Helvetica,sans-Serif" font-size="11.00">0 rows</text>
<polygon fill="#ffffff" stroke="none" points="754.5,-116 754.5,-134 789.5,-134 789.5,-116 754.5,-116"/>
<polygon fill="none" stroke="black" points="754.5,-116 754.5,-134 789.5,-134 789.5,-116 754.5,-116"/>
<text text-anchor="start" x="779.5" y="-122.2" font-family="Helvetica,sans-Serif" font-size="11.00"> &#160;</text>
</a>
</g>
</g>
<!-- seedbank.accessions&#45;&gt;users -->
<g id="edge21" class="edge"><title>seedbank.accessions:elipses:w&#45;&gt;users:elipses:e</title>
<path fill="none" stroke="black" d="M607.946,-142.179C592.272,-140.271 584.044,-135.583 563,-134 504.518,-129.602 142.86,-132.76 139,-136 63.8794,-199.043 197.069,-353 99,-353"/>
<polygon fill="black" stroke="black" points="614.513,-142.549 622.297,-146.594 618.506,-142.775 622.5,-143 622.5,-143 622.5,-143 618.506,-142.775 622.703,-139.406 614.513,-142.549 614.513,-142.549"/>
<ellipse fill="none" stroke="black" cx="611.318" cy="-142.369" rx="3.2" ry="3.2"/>
</g>
<!-- seedbank.accessions&#45;&gt;users -->
<g id="edge23" class="edge"><title>seedbank.accessions:elipses:w&#45;&gt;users:elipses:e</title>
<path fill="none" stroke="black" d="M608.011,-142.544C592.349,-141.483 583.921,-138.878 563,-138 502.312,-135.455 139.596,-139.501 139,-140 65.1147,-201.796 195.321,-353 99,-353"/>
<polygon fill="black" stroke="black" points="614.504,-142.748 622.387,-146.598 618.502,-142.874 622.5,-143 622.5,-143 622.5,-143 618.502,-142.874 622.613,-139.402 614.504,-142.748 614.504,-142.748"/>
<ellipse fill="none" stroke="black" cx="611.306" cy="-142.647" rx="3.2" ry="3.2"/>
</g>
<!-- seedbank.accessions&#45;&gt;facilities -->
<g id="edge22" class="edge"><title>seedbank.accessions:elipses:w&#45;&gt;facilities:id:e</title>
<path fill="none" stroke="black" d="M609.148,-149.763C578.361,-186.559 601.778,-361 556.5,-361"/>
<polygon fill="black" stroke="black" points="615.363,-146.615 624.127,-146.211 618.932,-144.808 622.5,-143 622.5,-143 622.5,-143 618.932,-144.808 620.873,-139.789 615.363,-146.615 615.363,-146.615"/>
<ellipse fill="none" stroke="black" cx="612.509" cy="-148.061" rx="3.20001" ry="3.20001"/>
</g>
<!-- seedbank.storage_locations -->
<g id="node11" class="node"><title>seedbank.storage_locations</title>
<g id="a_node11"><a xlink:href="../../../seedbank/tables/storage_locations.html" xlink:title="seedbank.storage_locations" target="_top">
<polygon fill="#ffffff" stroke="none" points="604,-37 604,-95 809,-95 809,-37 604,-37"/>
<polygon fill="#f5f5f5" stroke="none" points="604.5,-73 604.5,-95 809.5,-95 809.5,-73 604.5,-73"/>
<polygon fill="none" stroke="black" points="604.5,-73 604.5,-95 809.5,-95 809.5,-73 604.5,-73"/>
<text text-anchor="start" x="609.5" y="-82.2" font-family="Helvetica,sans-Serif" font-weight="bold" font-size="11.00">seedbank.storage_locations</text>
<text text-anchor="start" x="770.5" y="-81.2" font-family="Helvetica,sans-Serif" font-size="11.00">[table]</text>
<polygon fill="none" stroke="black" points="604.5,-55 604.5,-73 809.5,-73 809.5,-55 604.5,-55"/>
<text text-anchor="start" x="607.5" y="-61.2" font-family="Helvetica,sans-Serif" font-size="11.00">...</text>
<polygon fill="#ffffff" stroke="none" points="604.5,-37 604.5,-55 690.5,-55 690.5,-37 604.5,-37"/>
<polygon fill="none" stroke="black" points="604.5,-37 604.5,-55 690.5,-55 690.5,-37 604.5,-37"/>
<text text-anchor="start" x="607.5" y="-43.2" font-family="Helvetica,sans-Serif" font-size="11.00">&lt; 3</text>
<polygon fill="#ffffff" stroke="none" points="690.5,-37 690.5,-55 764.5,-55 764.5,-37 690.5,-37"/>
<polygon fill="none" stroke="black" points="690.5,-37 690.5,-55 764.5,-55 764.5,-37 690.5,-37"/>
<text text-anchor="start" x="725.5" y="-43.2" font-family="Helvetica,sans-Serif" font-size="11.00">0 rows</text>
<polygon fill="#ffffff" stroke="none" points="764.5,-37 764.5,-55 809.5,-55 809.5,-37 764.5,-37"/>
<polygon fill="none" stroke="black" points="764.5,-37 764.5,-55 809.5,-55 809.5,-37 764.5,-37"/>
<text text-anchor="start" x="799.5" y="-43.2" font-family="Helvetica,sans-Serif" font-size="11.00"> &#160;</text>
</a>
</g>
</g>
<!-- seedbank.storage_locations&#45;&gt;users -->
<g id="edge24" class="edge"><title>seedbank.storage_locations:elipses:w&#45;&gt;users:elipses:e</title>
<path fill="none" stroke="black" d="M588.988,-63.8797C389.74,-60.5908 285.39,7.9087 139,-134 67.9575,-202.868 197.944,-353 99,-353"/>
<polygon fill="black" stroke="black" points="595.5,-63.9336 603.47,-67.5999 599.5,-63.9668 603.5,-64 603.5,-64 603.5,-64 599.5,-63.9668 603.53,-60.4001 595.5,-63.9336 595.5,-63.9336"/>
<ellipse fill="none" stroke="black" cx="592.3" cy="-63.9071" rx="3.2" ry="3.2"/>
</g>
<!-- seedbank.storage_locations&#45;&gt;users -->
<g id="edge26" class="edge"><title>seedbank.storage_locations:elipses:w&#45;&gt;users:elipses:e</title>
<path fill="none" stroke="black" d="M588.97,-63.8853C389.472,-60.7499 285.216,4.46879 139,-138 69.3863,-205.83 196.195,-353 99,-353"/>
<polygon fill="black" stroke="black" points="595.5,-63.9368 603.472,-67.5999 599.5,-63.9684 603.5,-64 603.5,-64 603.5,-64 599.5,-63.9684 603.528,-60.4001 595.5,-63.9368 595.5,-63.9368"/>
<ellipse fill="none" stroke="black" cx="592.3" cy="-63.9115" rx="3.2" ry="3.2"/>
</g>
<!-- seedbank.storage_locations&#45;&gt;facilities -->
<g id="edge25" class="edge"><title>seedbank.storage_locations:elipses:w&#45;&gt;facilities:id:e</title>
<path fill="none" stroke="black" d="M589.984,-69.6678C549.861,-110.728 617.84,-361 556.5,-361"/>
<polygon fill="black" stroke="black" points="596.122,-67.0938 604.892,-67.3199 599.811,-65.5469 603.5,-64 603.5,-64 603.5,-64 599.811,-65.5469 602.108,-60.6801 596.122,-67.0938 596.122,-67.0938"/>
<ellipse fill="none" stroke="black" cx="593.171" cy="-68.3313" rx="3.20001" ry="3.20001"/>
</g>
</g>
</svg>
