<?xml version="1.0" encoding="UTF-8" standalone="no"?>
<!DOCTYPE svg PUBLIC "-//W3C//DTD SVG 1.1//EN"
 "http://www.w3.org/Graphics/SVG/1.1/DTD/svg11.dtd">
<!-- Generated by graphviz version 2.47.1 (20210515.0534)
 -->
<!-- Title: oneDegreeRelationshipsDiagram Pages: 1 -->
<svg width="726pt" height="433pt"
 viewBox="0.00 0.00 726.00 433.00" xmlns="http://www.w3.org/2000/svg" xmlns:xlink="http://www.w3.org/1999/xlink">
<g id="graph0" class="graph" transform="scale(1 1) rotate(0) translate(4 429)">
<title>oneDegreeRelationshipsDiagram</title>
<polygon fill="#ffffff" stroke="transparent" points="-4,4 -4,-429 722,-429 722,4 -4,4"/>
<text text-anchor="middle" x="73.5" y="-7.2" font-family="Helvetica,sans-Serif" font-size="11.00">Generated by SchemaSpy</text>
<!-- notifications -->
<g id="node1" class="node">
<title>notifications</title>
<g id="a_node1"><a xlink:href="../../tables/notifications.html" xlink:title="notifications" target="_top">
<polygon fill="#ffffff" stroke="transparent" points="468,-132 468,-374 710,-374 710,-132 468,-132"/>
<polygon fill="#f5f5f5" stroke="transparent" points="470,-350 470,-372 708,-372 708,-350 470,-350"/>
<polygon fill="none" stroke="black" points="470,-350 470,-372 708,-372 708,-350 470,-350"/>
<text text-anchor="start" x="475" y="-359.2" font-family="Helvetica,sans-Serif" font-weight="bold" font-size="11.00">notifications</text>
<text text-anchor="start" x="669" y="-358.2" font-family="Helvetica,sans-Serif" font-size="11.00">[table]</text>
<polygon fill="none" stroke="black" points="470,-328 470,-350 608,-350 608,-328 470,-328"/>
<image xlink:href="../../images/primaryKeys.png" width="11px" height="12px" preserveAspectRatio="xMinYMin meet" x="475" y="-345"/>
<text text-anchor="start" x="490" y="-336.2" font-family="Helvetica,sans-Serif" font-size="11.00">id</text>
<polygon fill="none" stroke="black" points="608,-328 608,-350 708,-350 708,-328 608,-328"/>
<text text-anchor="start" x="611" y="-336.2" font-family="Helvetica,sans-Serif" font-size="11.00">int8[19]</text>
<polygon fill="none" stroke="black" points="470,-306 470,-328 608,-328 608,-306 470,-306"/>
<image xlink:href="../../images/foreignKeys.png" width="11px" height="12px" preserveAspectRatio="xMinYMin meet" x="475" y="-323"/>
<text text-anchor="start" x="490" y="-314.2" font-family="Helvetica,sans-Serif" font-size="11.00">notification_type_id</text>
<polygon fill="none" stroke="black" points="608,-306 608,-328 708,-328 708,-306 608,-306"/>
<text text-anchor="start" x="611" y="-314.2" font-family="Helvetica,sans-Serif" font-size="11.00">int4[10]</text>
<polygon fill="none" stroke="black" points="470,-284 470,-306 608,-306 608,-284 470,-284"/>
<image xlink:href="../../images/foreignKeys.png" width="11px" height="12px" preserveAspectRatio="xMinYMin meet" x="475" y="-301"/>
<text text-anchor="start" x="490" y="-292.2" font-family="Helvetica,sans-Serif" font-size="11.00">user_id</text>
<polygon fill="none" stroke="black" points="608,-284 608,-306 708,-306 708,-284 608,-284"/>
<text text-anchor="start" x="611" y="-292.2" font-family="Helvetica,sans-Serif" font-size="11.00">int8[19]</text>
<polygon fill="none" stroke="black" points="470,-262 470,-284 608,-284 608,-262 470,-262"/>
<image xlink:href="../../images/foreignKeys.png" width="11px" height="12px" preserveAspectRatio="xMinYMin meet" x="475" y="-279"/>
<text text-anchor="start" x="490" y="-270.2" font-family="Helvetica,sans-Serif" font-size="11.00">organization_id</text>
<polygon fill="none" stroke="black" points="608,-262 608,-284 708,-284 708,-262 608,-262"/>
<text text-anchor="start" x="611" y="-270.2" font-family="Helvetica,sans-Serif" font-size="11.00">int8[19]</text>
<polygon fill="none" stroke="black" points="470,-240 470,-262 608,-262 608,-240 470,-240"/>
<text text-anchor="start" x="490" y="-248.2" font-family="Helvetica,sans-Serif" font-size="11.00">title</text>
<polygon fill="none" stroke="black" points="608,-240 608,-262 708,-262 708,-240 608,-240"/>
<text text-anchor="start" x="611" y="-248.2" font-family="Helvetica,sans-Serif" font-size="11.00">text[2147483647]</text>
<polygon fill="none" stroke="black" points="470,-218 470,-240 608,-240 608,-218 470,-218"/>
<text text-anchor="start" x="490" y="-226.2" font-family="Helvetica,sans-Serif" font-size="11.00">body</text>
<polygon fill="none" stroke="black" points="608,-218 608,-240 708,-240 708,-218 608,-218"/>
<text text-anchor="start" x="611" y="-226.2" font-family="Helvetica,sans-Serif" font-size="11.00">text[2147483647]</text>
<polygon fill="none" stroke="black" points="470,-196 470,-218 608,-218 608,-196 470,-196"/>
<text text-anchor="start" x="490" y="-204.2" font-family="Helvetica,sans-Serif" font-size="11.00">local_url</text>
<polygon fill="none" stroke="black" points="608,-196 608,-218 708,-218 708,-196 608,-196"/>
<text text-anchor="start" x="611" y="-204.2" font-family="Helvetica,sans-Serif" font-size="11.00">text[2147483647]</text>
<polygon fill="none" stroke="black" points="470,-174 470,-196 608,-196 608,-174 470,-174"/>
<text text-anchor="start" x="490" y="-182.2" font-family="Helvetica,sans-Serif" font-size="11.00">created_time</text>
<polygon fill="none" stroke="black" points="608,-174 608,-196 708,-196 708,-174 608,-174"/>
<text text-anchor="start" x="611" y="-182.2" font-family="Helvetica,sans-Serif" font-size="11.00">timestamptz[35,6]</text>
<polygon fill="none" stroke="black" points="470,-152 470,-174 608,-174 608,-152 470,-152"/>
<text text-anchor="start" x="490" y="-160.2" font-family="Helvetica,sans-Serif" font-size="11.00">is_read</text>
<polygon fill="none" stroke="black" points="608,-152 608,-174 708,-174 708,-152 608,-152"/>
<text text-anchor="start" x="611" y="-160.2" font-family="Helvetica,sans-Serif" font-size="11.00">bool[1]</text>
<polygon fill="#ffffff" stroke="transparent" points="470,-134 470,-152 543,-152 543,-134 470,-134"/>
<polygon fill="none" stroke="black" points="470,-134 470,-152 543,-152 543,-134 470,-134"/>
<text text-anchor="start" x="473" y="-140.2" font-family="Helvetica,sans-Serif" font-size="11.00">&lt; 3</text>
<polygon fill="#ffffff" stroke="transparent" points="543,-134 543,-152 608,-152 608,-134 543,-134"/>
<polygon fill="none" stroke="black" points="543,-134 543,-152 608,-152 608,-134 543,-134"/>
<text text-anchor="start" x="598" y="-140.2" font-family="Helvetica,sans-Serif" font-size="11.00"> &#160;</text>
<polygon fill="#ffffff" stroke="transparent" points="608,-134 608,-152 708,-152 708,-134 608,-134"/>
<polygon fill="none" stroke="black" points="608,-134 608,-152 708,-152 708,-134 608,-134"/>
<text text-anchor="start" x="689" y="-140.2" font-family="Helvetica,sans-Serif" font-size="11.00">0 &gt;</text>
<polygon fill="none" stroke="black" stroke-width="2" points="469,-133 469,-373 709,-373 709,-133 469,-133"/>
</a>
</g>
</g>
<!-- notification_types -->
<g id="node2" class="node">
<title>notification_types</title>
<g id="a_node2"><a xlink:href="../../tables/notification_types.html" xlink:title="notification_types" target="_top">
<polygon fill="#ffffff" stroke="transparent" points="247.5,-319 247.5,-421 416.5,-421 416.5,-319 247.5,-319"/>
<polygon fill="#f5f5f5" stroke="transparent" points="248,-399 248,-421 417,-421 417,-399 248,-399"/>
<polygon fill="none" stroke="black" points="248,-399 248,-421 417,-421 417,-399 248,-399"/>
<text text-anchor="start" x="253" y="-408.2" font-family="Helvetica,sans-Serif" font-weight="bold" font-size="11.00">notification_types</text>
<text text-anchor="start" x="378" y="-407.2" font-family="Helvetica,sans-Serif" font-size="11.00">[table]</text>
<polygon fill="none" stroke="black" points="248,-377 248,-399 417,-399 417,-377 248,-377"/>
<image xlink:href="../../images/primaryKeys.png" width="11px" height="12px" preserveAspectRatio="xMinYMin meet" x="253" y="-394"/>
<text text-anchor="start" x="268" y="-385.2" font-family="Helvetica,sans-Serif" font-size="11.00">id</text>
<polygon fill="none" stroke="black" points="248,-355 248,-377 417,-377 417,-355 248,-355"/>
<image xlink:href="../../images/foreignKeys.png" width="11px" height="12px" preserveAspectRatio="xMinYMin meet" x="253" y="-372"/>
<text text-anchor="start" x="268" y="-363.2" font-family="Helvetica,sans-Serif" font-size="11.00">notification_criticality_id</text>
<polygon fill="none" stroke="black" points="248,-337 248,-355 417,-355 417,-337 248,-337"/>
<text text-anchor="start" x="251" y="-343.2" font-family="Helvetica,sans-Serif" font-size="11.00">...</text>
<polygon fill="#ffffff" stroke="transparent" points="248,-319 248,-337 326,-337 326,-319 248,-319"/>
<polygon fill="none" stroke="black" points="248,-319 248,-337 326,-337 326,-319 248,-319"/>
<text text-anchor="start" x="251" y="-325.2" font-family="Helvetica,sans-Serif" font-size="11.00">&lt; 1</text>
<polygon fill="#ffffff" stroke="transparent" points="326,-319 326,-337 367,-337 367,-319 326,-319"/>
<polygon fill="none" stroke="black" points="326,-319 326,-337 367,-337 367,-319 326,-319"/>
<text text-anchor="start" x="357" y="-325.2" font-family="Helvetica,sans-Serif" font-size="11.00"> &#160;</text>
<polygon fill="#ffffff" stroke="transparent" points="367,-319 367,-337 417,-337 417,-319 367,-319"/>
<polygon fill="none" stroke="black" points="367,-319 367,-337 417,-337 417,-319 367,-319"/>
<text text-anchor="start" x="398" y="-325.2" font-family="Helvetica,sans-Serif" font-size="11.00">2 &gt;</text>
</a>
</g>
</g>
<!-- notifications&#45;&gt;notification_types -->
<g id="edge1" class="edge">
<title>notifications:w&#45;&gt;notification_types:e</title>
<path fill="none" stroke="black" d="M455.09,-321.66C436.89,-337.45 450.78,-388 418,-388"/>
<polygon fill="black" stroke="black" points="461.41,-319.54 470.14,-320.41 465.21,-318.27 469,-317 469,-317 469,-317 465.21,-318.27 467.86,-313.59 461.41,-319.54 461.41,-319.54"/>
<ellipse fill="none" stroke="black" cx="458.38" cy="-320.56" rx="3.2" ry="3.2"/>
</g>
<!-- organizations -->
<g id="node3" class="node">
<title>organizations</title>
<g id="a_node3"><a xlink:href="../../tables/organizations.html" xlink:title="organizations" target="_top">
<polygon fill="#ffffff" stroke="transparent" points="245,-81 245,-271 419,-271 419,-81 245,-81"/>
<polygon fill="#f5f5f5" stroke="transparent" points="245,-249 245,-271 419,-271 419,-249 245,-249"/>
<polygon fill="none" stroke="black" points="245,-249 245,-271 419,-271 419,-249 245,-249"/>
<text text-anchor="start" x="250" y="-258.2" font-family="Helvetica,sans-Serif" font-weight="bold" font-size="11.00">organizations</text>
<text text-anchor="start" x="380" y="-257.2" font-family="Helvetica,sans-Serif" font-size="11.00">[table]</text>
<polygon fill="none" stroke="black" points="245,-227 245,-249 419,-249 419,-227 245,-227"/>
<image xlink:href="../../images/primaryKeys.png" width="11px" height="12px" preserveAspectRatio="xMinYMin meet" x="250" y="-244"/>
<text text-anchor="start" x="265" y="-235.2" font-family="Helvetica,sans-Serif" font-size="11.00">id</text>
<polygon fill="none" stroke="black" points="245,-205 245,-227 419,-227 419,-205 245,-205"/>
<image xlink:href="../../images/foreignKeys.png" width="11px" height="12px" preserveAspectRatio="xMinYMin meet" x="250" y="-222"/>
<text text-anchor="start" x="265" y="-213.2" font-family="Helvetica,sans-Serif" font-size="11.00">country_code</text>
<polygon fill="none" stroke="black" points="245,-183 245,-205 419,-205 419,-183 245,-183"/>
<image xlink:href="../../images/foreignKeys.png" width="11px" height="12px" preserveAspectRatio="xMinYMin meet" x="250" y="-200"/>
<text text-anchor="start" x="265" y="-191.2" font-family="Helvetica,sans-Serif" font-size="11.00">country_subdivision_code</text>
<polygon fill="none" stroke="black" points="245,-161 245,-183 419,-183 419,-161 245,-161"/>
<image xlink:href="../../images/foreignKeys.png" width="11px" height="12px" preserveAspectRatio="xMinYMin meet" x="250" y="-178"/>
<text text-anchor="start" x="265" y="-169.2" font-family="Helvetica,sans-Serif" font-size="11.00">created_by</text>
<polygon fill="none" stroke="black" points="245,-139 245,-161 419,-161 419,-139 245,-139"/>
<image xlink:href="../../images/foreignKeys.png" width="11px" height="12px" preserveAspectRatio="xMinYMin meet" x="250" y="-156"/>
<text text-anchor="start" x="265" y="-147.2" font-family="Helvetica,sans-Serif" font-size="11.00">modified_by</text>
<polygon fill="none" stroke="black" points="245,-117 245,-139 419,-139 419,-117 245,-117"/>
<image xlink:href="../../images/foreignKeys.png" width="11px" height="12px" preserveAspectRatio="xMinYMin meet" x="250" y="-134"/>
<text text-anchor="start" x="265" y="-125.2" font-family="Helvetica,sans-Serif" font-size="11.00">organization_type_id</text>
<polygon fill="none" stroke="black" points="245,-99 245,-117 419,-117 419,-99 245,-99"/>
<text text-anchor="start" x="248" y="-105.2" font-family="Helvetica,sans-Serif" font-size="11.00">...</text>
<polygon fill="#ffffff" stroke="transparent" points="245,-81 245,-99 322,-99 322,-81 245,-81"/>
<polygon fill="none" stroke="black" points="245,-81 245,-99 322,-99 322,-81 245,-81"/>
<text text-anchor="start" x="248" y="-87.2" font-family="Helvetica,sans-Serif" font-size="11.00">&lt; 5</text>
<polygon fill="#ffffff" stroke="transparent" points="322,-81 322,-99 363,-99 363,-81 322,-81"/>
<polygon fill="none" stroke="black" points="322,-81 322,-99 363,-99 363,-81 322,-81"/>
<text text-anchor="start" x="353" y="-87.2" font-family="Helvetica,sans-Serif" font-size="11.00"> &#160;</text>
<polygon fill="#ffffff" stroke="transparent" points="363,-81 363,-99 419,-99 419,-81 363,-81"/>
<polygon fill="none" stroke="black" points="363,-81 363,-99 419,-99 419,-81 363,-81"/>
<text text-anchor="start" x="394" y="-87.2" font-family="Helvetica,sans-Serif" font-size="11.00">14 &gt;</text>
</a>
</g>
</g>
<!-- notifications&#45;&gt;organizations -->
<g id="edge2" class="edge">
<title>notifications:w&#45;&gt;organizations:e</title>
<path fill="none" stroke="black" d="M454.9,-268.42C442.68,-258.94 440.7,-238 420,-238"/>
<polygon fill="black" stroke="black" points="461.39,-270.53 467.89,-276.42 465.2,-271.77 469,-273 469,-273 469,-273 465.2,-271.77 470.11,-269.58 461.39,-270.53 461.39,-270.53"/>
<ellipse fill="none" stroke="black" cx="458.35" cy="-269.54" rx="3.2" ry="3.2"/>
</g>
<!-- users -->
<g id="node4" class="node">
<title>users</title>
<g id="a_node4"><a xlink:href="../../tables/users.html" xlink:title="users" target="_top">
<polygon fill="#ffffff" stroke="transparent" points="8,-37 8,-205 196,-205 196,-37 8,-37"/>
<polygon fill="#f5f5f5" stroke="transparent" points="8,-183 8,-205 196,-205 196,-183 8,-183"/>
<polygon fill="none" stroke="black" points="8,-183 8,-205 196,-205 196,-183 8,-183"/>
<text text-anchor="start" x="11.5" y="-192.2" font-family="Helvetica,sans-Serif" font-weight="bold" font-size="11.00">users</text>
<text text-anchor="start" x="157" y="-191.2" font-family="Helvetica,sans-Serif" font-size="11.00">[table]</text>
<polygon fill="none" stroke="black" points="8,-161 8,-183 196,-183 196,-161 8,-161"/>
<image xlink:href="../../images/primaryKeys.png" width="11px" height="12px" preserveAspectRatio="xMinYMin meet" x="13" y="-178"/>
<text text-anchor="start" x="28" y="-169.2" font-family="Helvetica,sans-Serif" font-size="11.00">id</text>
<polygon fill="#ffffff" stroke="transparent" points="8,-139 8,-161 196,-161 196,-139 8,-139"/>
<polygon fill="none" stroke="black" points="8,-139 8,-161 196,-161 196,-139 8,-139"/>
<text text-anchor="start" x="28" y="-147.2" font-family="Helvetica,sans-Serif" font-size="11.00">auth_id</text>
<polygon fill="#ffffff" stroke="transparent" points="8,-117 8,-139 196,-139 196,-117 8,-117"/>
<polygon fill="none" stroke="black" points="8,-117 8,-139 196,-139 196,-117 8,-117"/>
<text text-anchor="start" x="28" y="-125.2" font-family="Helvetica,sans-Serif" font-size="11.00">email</text>
<polygon fill="none" stroke="black" points="8,-95 8,-117 196,-117 196,-95 8,-95"/>
<image xlink:href="../../images/foreignKeys.png" width="11px" height="12px" preserveAspectRatio="xMinYMin meet" x="13" y="-112"/>
<text text-anchor="start" x="28" y="-103.2" font-family="Helvetica,sans-Serif" font-size="11.00">user_type_id</text>
<polygon fill="none" stroke="black" points="8,-73 8,-95 196,-95 196,-73 8,-73"/>
<image xlink:href="../../images/foreignKeys.png" width="11px" height="12px" preserveAspectRatio="xMinYMin meet" x="13" y="-90"/>
<text text-anchor="start" x="28" y="-81.2" font-family="Helvetica,sans-Serif" font-size="11.00">country_code</text>
<polygon fill="none" stroke="black" points="8,-55 8,-73 196,-73 196,-55 8,-55"/>
<text text-anchor="start" x="11" y="-61.2" font-family="Helvetica,sans-Serif" font-size="11.00">...</text>
<polygon fill="#ffffff" stroke="transparent" points="8,-37 8,-55 89,-55 89,-37 8,-37"/>
<polygon fill="none" stroke="black" points="8,-37 8,-55 89,-55 89,-37 8,-37"/>
<text text-anchor="start" x="11" y="-43.2" font-family="Helvetica,sans-Serif" font-size="11.00">&lt; 2</text>
<polygon fill="#ffffff" stroke="transparent" points="89,-37 89,-55 132,-55 132,-37 89,-37"/>
<polygon fill="none" stroke="black" points="89,-37 89,-55 132,-55 132,-37 89,-37"/>
<text text-anchor="start" x="122" y="-43.2" font-family="Helvetica,sans-Serif" font-size="11.00"> &#160;</text>
<polygon fill="#ffffff" stroke="transparent" points="132,-37 132,-55 196,-55 196,-37 132,-37"/>
<polygon fill="none" stroke="black" points="132,-37 132,-55 196,-55 196,-37 132,-37"/>
<text text-anchor="start" x="165" y="-43.2" font-family="Helvetica,sans-Serif" font-size="11.00">116 &gt;</text>
</a>
</g>
</g>
<!-- notifications&#45;&gt;users -->
<g id="edge3" class="edge">
<title>notifications:w&#45;&gt;users:e</title>
<path fill="none" stroke="black" d="M454.25,-295.34C394.72,-297.65 274.97,-310.21 237,-282 195.24,-250.98 249.02,-172 197,-172"/>
<polygon fill="black" stroke="black" points="461,-295.18 469.08,-298.6 465,-295.09 469,-295 469,-295 469,-295 465,-295.09 468.92,-291.4 461,-295.18 461,-295.18"/>
<ellipse fill="none" stroke="black" cx="457.8" cy="-295.26" rx="3.2" ry="3.2"/>
</g>
<!-- organizations&#45;&gt;users -->
<g id="edge4" class="edge">
<title>organizations:w&#45;&gt;users:e</title>
<path fill="none" stroke="black" d="M229.4,-172C218.93,-172 212.01,-172 197,-172"/>
<polygon fill="black" stroke="black" points="236,-172 244,-175.6 240,-172 244,-172 244,-172 244,-172 240,-172 244,-168.4 236,-172 236,-172"/>
<ellipse fill="none" stroke="black" cx="232.8" cy="-172" rx="3.2" ry="3.2"/>
</g>
<!-- organizations&#45;&gt;users -->
<g id="edge5" class="edge">
<title>organizations:w&#45;&gt;users:e</title>
<path fill="none" stroke="black" d="M229.83,-153.63C219.01,-159.88 214.12,-172 197,-172"/>
<polygon fill="black" stroke="black" points="236.25,-151.99 244.89,-153.49 240.13,-150.99 244,-150 244,-150 244,-150 240.13,-150.99 243.11,-146.51 236.25,-151.99 236.25,-151.99"/>
<ellipse fill="none" stroke="black" cx="233.15" cy="-152.78" rx="3.2" ry="3.2"/>
</g>
</g>
</svg>
