<?xml version="1.0" encoding="UTF-8" standalone="no"?>
<!DOCTYPE svg PUBLIC "-//W3C//DTD SVG 1.1//EN"
 "http://www.w3.org/Graphics/SVG/1.1/DTD/svg11.dtd">
<!-- Generated by graphviz version 2.38.0 (20140413.2041)
 -->
<!-- Title: oneDegreeRelationshipsDiagram Pages: 1 -->
<svg width="728pt" height="411pt"
 viewBox="0.00 0.00 728.00 411.00" xmlns="http://www.w3.org/2000/svg" xmlns:xlink="http://www.w3.org/1999/xlink">
<g id="graph0" class="graph" transform="scale(1 1) rotate(0) translate(4 407)">
<title>oneDegreeRelationshipsDiagram</title>
<polygon fill="#ffffff" stroke="none" points="-4,4 -4,-407 724,-407 724,4 -4,4"/>
<text text-anchor="middle" x="74.5" y="-7.2" font-family="Helvetica,sans-Serif" font-size="11.00">Generated by SchemaSpy</text>
<!-- notifications -->
<g id="node1" class="node"><title>notifications</title>
<g id="a_node1"><a xlink:href="../../tables/notifications.html" xlink:title="notifications" target="_top">
<polygon fill="#ffffff" stroke="none" points="468,-110 468,-352 712,-352 712,-110 468,-110"/>
<polygon fill="#f5f5f5" stroke="none" points="470,-328 470,-350 710,-350 710,-328 470,-328"/>
<polygon fill="none" stroke="black" points="470,-328 470,-350 710,-350 710,-328 470,-328"/>
<text text-anchor="start" x="475" y="-337.2" font-family="Helvetica,sans-Serif" font-weight="bold" font-size="11.00">notifications</text>
<text text-anchor="start" x="671" y="-336.2" font-family="Helvetica,sans-Serif" font-size="11.00">[table]</text>
<polygon fill="none" stroke="black" points="470,-306 470,-328 608,-328 608,-306 470,-306"/>
<image xlink:href="../../images/primaryKeys.png" width="11px" height="12px" preserveAspectRatio="xMinYMin meet" x="475" y="-323"/>
<text text-anchor="start" x="490" y="-314.2" font-family="Helvetica,sans-Serif" font-size="11.00">id</text>
<polygon fill="none" stroke="black" points="608,-306 608,-328 710,-328 710,-306 608,-306"/>
<text text-anchor="start" x="611" y="-314.2" font-family="Helvetica,sans-Serif" font-size="11.00">int8[19]</text>
<polygon fill="none" stroke="black" points="470,-284 470,-306 608,-306 608,-284 470,-284"/>
<image xlink:href="../../images/foreignKeys.png" width="11px" height="12px" preserveAspectRatio="xMinYMin meet" x="475" y="-301"/>
<text text-anchor="start" x="490" y="-292.2" font-family="Helvetica,sans-Serif" font-size="11.00">notification_type_id</text>
<polygon fill="none" stroke="black" points="608,-284 608,-306 710,-306 710,-284 608,-284"/>
<text text-anchor="start" x="611" y="-292.2" font-family="Helvetica,sans-Serif" font-size="11.00">int4[10]</text>
<polygon fill="none" stroke="black" points="470,-262 470,-284 608,-284 608,-262 470,-262"/>
<image xlink:href="../../images/foreignKeys.png" width="11px" height="12px" preserveAspectRatio="xMinYMin meet" x="475" y="-279"/>
<text text-anchor="start" x="490" y="-270.2" font-family="Helvetica,sans-Serif" font-size="11.00">user_id</text>
<polygon fill="none" stroke="black" points="608,-262 608,-284 710,-284 710,-262 608,-262"/>
<text text-anchor="start" x="611" y="-270.2" font-family="Helvetica,sans-Serif" font-size="11.00">int8[19]</text>
<polygon fill="none" stroke="black" points="470,-240 470,-262 608,-262 608,-240 470,-240"/>
<image xlink:href="../../images/foreignKeys.png" width="11px" height="12px" preserveAspectRatio="xMinYMin meet" x="475" y="-257"/>
<text text-anchor="start" x="490" y="-248.2" font-family="Helvetica,sans-Serif" font-size="11.00">organization_id</text>
<polygon fill="none" stroke="black" points="608,-240 608,-262 710,-262 710,-240 608,-240"/>
<text text-anchor="start" x="611" y="-248.2" font-family="Helvetica,sans-Serif" font-size="11.00">int8[19]</text>
<polygon fill="none" stroke="black" points="470,-218 470,-240 608,-240 608,-218 470,-218"/>
<text text-anchor="start" x="490" y="-226.2" font-family="Helvetica,sans-Serif" font-size="11.00">title</text>
<polygon fill="none" stroke="black" points="608,-218 608,-240 710,-240 710,-218 608,-218"/>
<text text-anchor="start" x="611" y="-226.2" font-family="Helvetica,sans-Serif" font-size="11.00">text[2147483647]</text>
<polygon fill="none" stroke="black" points="470,-196 470,-218 608,-218 608,-196 470,-196"/>
<text text-anchor="start" x="490" y="-204.2" font-family="Helvetica,sans-Serif" font-size="11.00">body</text>
<polygon fill="none" stroke="black" points="608,-196 608,-218 710,-218 710,-196 608,-196"/>
<text text-anchor="start" x="611" y="-204.2" font-family="Helvetica,sans-Serif" font-size="11.00">text[2147483647]</text>
<polygon fill="none" stroke="black" points="470,-174 470,-196 608,-196 608,-174 470,-174"/>
<text text-anchor="start" x="490" y="-182.2" font-family="Helvetica,sans-Serif" font-size="11.00">local_url</text>
<polygon fill="none" stroke="black" points="608,-174 608,-196 710,-196 710,-174 608,-174"/>
<text text-anchor="start" x="611" y="-182.2" font-family="Helvetica,sans-Serif" font-size="11.00">text[2147483647]</text>
<polygon fill="none" stroke="black" points="470,-152 470,-174 608,-174 608,-152 470,-152"/>
<text text-anchor="start" x="490" y="-160.2" font-family="Helvetica,sans-Serif" font-size="11.00">created_time</text>
<polygon fill="none" stroke="black" points="608,-152 608,-174 710,-174 710,-152 608,-152"/>
<text text-anchor="start" x="611" y="-160.2" font-family="Helvetica,sans-Serif" font-size="11.00">timestamptz[35,6]</text>
<polygon fill="none" stroke="black" points="470,-130 470,-152 608,-152 608,-130 470,-130"/>
<text text-anchor="start" x="490" y="-138.2" font-family="Helvetica,sans-Serif" font-size="11.00">is_read</text>
<polygon fill="none" stroke="black" points="608,-130 608,-152 710,-152 710,-130 608,-130"/>
<text text-anchor="start" x="611" y="-138.2" font-family="Helvetica,sans-Serif" font-size="11.00">bool[1]</text>
<polygon fill="#ffffff" stroke="none" points="470,-112 470,-130 529,-130 529,-112 470,-112"/>
<polygon fill="none" stroke="black" points="470,-112 470,-130 529,-130 529,-112 470,-112"/>
<text text-anchor="start" x="473" y="-118.2" font-family="Helvetica,sans-Serif" font-size="11.00">&lt; 3</text>
<polygon fill="#ffffff" stroke="none" points="529,-112 529,-130 608,-130 608,-112 529,-112"/>
<polygon fill="none" stroke="black" points="529,-112 529,-130 608,-130 608,-112 529,-112"/>
<text text-anchor="start" x="569" y="-118.2" font-family="Helvetica,sans-Serif" font-size="11.00">0 rows</text>
<polygon fill="#ffffff" stroke="none" points="608,-112 608,-130 710,-130 710,-112 608,-112"/>
<polygon fill="none" stroke="black" points="608,-112 608,-130 710,-130 710,-112 608,-112"/>
<text text-anchor="start" x="690" y="-118.2" font-family="Helvetica,sans-Serif" font-size="11.00">0 &gt;</text>
<polygon fill="none" stroke="black" stroke-width="2" points="469,-111 469,-351 711,-351 711,-111 469,-111"/>
</a>
</g>
</g>
<!-- notification_types -->
<g id="node2" class="node"><title>notification_types</title>
<g id="a_node2"><a xlink:href="../../tables/notification_types.html" xlink:title="notification_types" target="_top">
<polygon fill="#ffffff" stroke="none" points="247.5,-297 247.5,-399 416.5,-399 416.5,-297 247.5,-297"/>
<polygon fill="#f5f5f5" stroke="none" points="248,-377 248,-399 417,-399 417,-377 248,-377"/>
<polygon fill="none" stroke="black" points="248,-377 248,-399 417,-399 417,-377 248,-377"/>
<text text-anchor="start" x="253" y="-386.2" font-family="Helvetica,sans-Serif" font-weight="bold" font-size="11.00">notification_types</text>
<text text-anchor="start" x="378" y="-385.2" font-family="Helvetica,sans-Serif" font-size="11.00">[table]</text>
<polygon fill="none" stroke="black" points="248,-355 248,-377 417,-377 417,-355 248,-355"/>
<image xlink:href="../../images/primaryKeys.png" width="11px" height="12px" preserveAspectRatio="xMinYMin meet" x="253" y="-372"/>
<text text-anchor="start" x="268" y="-363.2" font-family="Helvetica,sans-Serif" font-size="11.00">id</text>
<polygon fill="none" stroke="black" points="248,-333 248,-355 417,-355 417,-333 248,-333"/>
<image xlink:href="../../images/foreignKeys.png" width="11px" height="12px" preserveAspectRatio="xMinYMin meet" x="253" y="-350"/>
<text text-anchor="start" x="268" y="-341.2" font-family="Helvetica,sans-Serif" font-size="11.00">notification_criticality_id</text>
<polygon fill="none" stroke="black" points="248,-315 248,-333 417,-333 417,-315 248,-315"/>
<text text-anchor="start" x="251" y="-321.2" font-family="Helvetica,sans-Serif" font-size="11.00">...</text>
<polygon fill="#ffffff" stroke="none" points="248,-297 248,-315 311,-315 311,-297 248,-297"/>
<polygon fill="none" stroke="black" points="248,-297 248,-315 311,-315 311,-297 248,-297"/>
<text text-anchor="start" x="251" y="-303.2" font-family="Helvetica,sans-Serif" font-size="11.00">&lt; 1</text>
<polygon fill="#ffffff" stroke="none" points="311,-297 311,-315 373,-315 373,-297 311,-297"/>
<polygon fill="none" stroke="black" points="311,-297 311,-315 373,-315 373,-297 311,-297"/>
<text text-anchor="start" x="334" y="-303.2" font-family="Helvetica,sans-Serif" font-size="11.00">8 rows</text>
<polygon fill="#ffffff" stroke="none" points="373,-297 373,-315 417,-315 417,-297 373,-297"/>
<polygon fill="none" stroke="black" points="373,-297 373,-315 417,-315 417,-297 373,-297"/>
<text text-anchor="start" x="397" y="-303.2" font-family="Helvetica,sans-Serif" font-size="11.00">1 &gt;</text>
</a>
</g>
</g>
<!-- notifications&#45;&gt;notification_types -->
<g id="edge1" class="edge"><title>notifications:notification_type_id:w&#45;&gt;notification_types:id:e</title>
<path fill="none" stroke="black" d="M455.089,-299.659C436.892,-315.454 450.782,-366 418,-366"/>
<polygon fill="black" stroke="black" points="461.414,-297.54 470.143,-298.414 465.207,-296.27 469,-295 469,-295 469,-295 465.207,-296.27 467.857,-291.586 461.414,-297.54 461.414,-297.54"/>
<ellipse fill="none" stroke="black" cx="458.38" cy="-298.557" rx="3.20001" ry="3.20001"/>
</g>
<!-- organizations -->
<g id="node3" class="node"><title>organizations</title>
<g id="a_node3"><a xlink:href="../../tables/organizations.html" xlink:title="organizations" target="_top">
<polygon fill="#ffffff" stroke="none" points="245,-81 245,-249 419,-249 419,-81 245,-81"/>
<polygon fill="#f5f5f5" stroke="none" points="245,-227 245,-249 419,-249 419,-227 245,-227"/>
<polygon fill="none" stroke="black" points="245,-227 245,-249 419,-249 419,-227 245,-227"/>
<text text-anchor="start" x="250" y="-236.2" font-family="Helvetica,sans-Serif" font-weight="bold" font-size="11.00">organizations</text>
<text text-anchor="start" x="380" y="-235.2" font-family="Helvetica,sans-Serif" font-size="11.00">[table]</text>
<polygon fill="none" stroke="black" points="245,-205 245,-227 419,-227 419,-205 245,-205"/>
<image xlink:href="../../images/primaryKeys.png" width="11px" height="12px" preserveAspectRatio="xMinYMin meet" x="250" y="-222"/>
<text text-anchor="start" x="265" y="-213.2" font-family="Helvetica,sans-Serif" font-size="11.00">id</text>
<polygon fill="none" stroke="black" points="245,-183 245,-205 419,-205 419,-183 245,-183"/>
<image xlink:href="../../images/foreignKeys.png" width="11px" height="12px" preserveAspectRatio="xMinYMin meet" x="250" y="-200"/>
<text text-anchor="start" x="265" y="-191.2" font-family="Helvetica,sans-Serif" font-size="11.00">country_code</text>
<polygon fill="none" stroke="black" points="245,-161 245,-183 419,-183 419,-161 245,-161"/>
<image xlink:href="../../images/foreignKeys.png" width="11px" height="12px" preserveAspectRatio="xMinYMin meet" x="250" y="-178"/>
<text text-anchor="start" x="265" y="-169.2" font-family="Helvetica,sans-Serif" font-size="11.00">country_subdivision_code</text>
<polygon fill="none" stroke="black" points="245,-139 245,-161 419,-161 419,-139 245,-139"/>
<image xlink:href="../../images/foreignKeys.png" width="11px" height="12px" preserveAspectRatio="xMinYMin meet" x="250" y="-156"/>
<text text-anchor="start" x="265" y="-147.2" font-family="Helvetica,sans-Serif" font-size="11.00">created_by</text>
<polygon fill="none" stroke="black" points="245,-117 245,-139 419,-139 419,-117 245,-117"/>
<image xlink:href="../../images/foreignKeys.png" width="11px" height="12px" preserveAspectRatio="xMinYMin meet" x="250" y="-134"/>
<text text-anchor="start" x="265" y="-125.2" font-family="Helvetica,sans-Serif" font-size="11.00">modified_by</text>
<polygon fill="none" stroke="black" points="245,-99 245,-117 419,-117 419,-99 245,-99"/>
<text text-anchor="start" x="248" y="-105.2" font-family="Helvetica,sans-Serif" font-size="11.00">...</text>
<polygon fill="#ffffff" stroke="none" points="245,-81 245,-99 311,-99 311,-81 245,-81"/>
<polygon fill="none" stroke="black" points="245,-81 245,-99 311,-99 311,-81 245,-81"/>
<text text-anchor="start" x="248" y="-87.2" font-family="Helvetica,sans-Serif" font-size="11.00">&lt; 4</text>
<polygon fill="#ffffff" stroke="none" points="311,-81 311,-99 374,-99 374,-81 311,-81"/>
<polygon fill="none" stroke="black" points="311,-81 311,-99 374,-99 374,-81 311,-81"/>
<text text-anchor="start" x="335" y="-87.2" font-family="Helvetica,sans-Serif" font-size="11.00">0 rows</text>
<polygon fill="#ffffff" stroke="none" points="374,-81 374,-99 419,-99 419,-81 374,-81"/>
<polygon fill="none" stroke="black" points="374,-81 374,-99 419,-99 419,-81 374,-81"/>
<text text-anchor="start" x="399" y="-87.2" font-family="Helvetica,sans-Serif" font-size="11.00">7 &gt;</text>
</a>
</g>
</g>
<!-- notifications&#45;&gt;organizations -->
<g id="edge2" class="edge"><title>notifications:organization_id:w&#45;&gt;organizations:id:e</title>
<path fill="none" stroke="black" d="M454.9,-246.424C442.682,-236.937 440.699,-216 420,-216"/>
<polygon fill="black" stroke="black" points="461.391,-248.531 467.889,-254.424 465.195,-249.765 469,-251 469,-251 469,-251 465.195,-249.765 470.111,-247.576 461.391,-248.531 461.391,-248.531"/>
<ellipse fill="none" stroke="black" cx="458.347" cy="-247.543" rx="3.20001" ry="3.20001"/>
</g>
<!-- users -->
<g id="node4" class="node"><title>users</title>
<g id="a_node4"><a xlink:href="../../tables/users.html" xlink:title="users" target="_top">
<polygon fill="#ffffff" stroke="none" points="8,-37 8,-183 196,-183 196,-37 8,-37"/>
<polygon fill="#f5f5f5" stroke="none" points="8,-161 8,-183 196,-183 196,-161 8,-161"/>
<polygon fill="none" stroke="black" points="8,-161 8,-183 196,-183 196,-161 8,-161"/>
<text text-anchor="start" x="13" y="-170.2" font-family="Helvetica,sans-Serif" font-weight="bold" font-size="11.00">users</text>
<text text-anchor="start" x="157" y="-169.2" font-family="Helvetica,sans-Serif" font-size="11.00">[table]</text>
<polygon fill="none" stroke="black" points="8,-139 8,-161 196,-161 196,-139 8,-139"/>
<image xlink:href="../../images/primaryKeys.png" width="11px" height="12px" preserveAspectRatio="xMinYMin meet" x="13" y="-156"/>
<text text-anchor="start" x="28" y="-147.2" font-family="Helvetica,sans-Serif" font-size="11.00">id</text>
<polygon fill="#ffffff" stroke="none" points="8,-117 8,-139 196,-139 196,-117 8,-117"/>
<polygon fill="none" stroke="black" points="8,-117 8,-139 196,-139 196,-117 8,-117"/>
<text text-anchor="start" x="28" y="-125.2" font-family="Helvetica,sans-Serif" font-size="11.00">auth_id</text>
<polygon fill="#ffffff" stroke="none" points="8,-95 8,-117 196,-117 196,-95 8,-95"/>
<polygon fill="none" stroke="black" points="8,-95 8,-117 196,-117 196,-95 8,-95"/>
<text text-anchor="start" x="28" y="-103.2" font-family="Helvetica,sans-Serif" font-size="11.00">email</text>
<polygon fill="none" stroke="black" points="8,-73 8,-95 196,-95 196,-73 8,-73"/>
<image xlink:href="../../images/foreignKeys.png" width="11px" height="12px" preserveAspectRatio="xMinYMin meet" x="13" y="-90"/>
<text text-anchor="start" x="28" y="-81.2" font-family="Helvetica,sans-Serif" font-size="11.00">user_type_id</text>
<polygon fill="none" stroke="black" points="8,-55 8,-73 196,-73 196,-55 8,-55"/>
<text text-anchor="start" x="11" y="-61.2" font-family="Helvetica,sans-Serif" font-size="11.00">...</text>
<polygon fill="#ffffff" stroke="none" points="8,-37 8,-55 80,-55 80,-37 8,-37"/>
<polygon fill="none" stroke="black" points="8,-37 8,-55 80,-55 80,-37 8,-37"/>
<text text-anchor="start" x="11" y="-43.2" font-family="Helvetica,sans-Serif" font-size="11.00">&lt; 1</text>
<polygon fill="#ffffff" stroke="none" points="80,-37 80,-55 141,-55 141,-37 80,-37"/>
<polygon fill="none" stroke="black" points="80,-37 80,-55 141,-55 141,-37 80,-37"/>
<text text-anchor="start" x="107" y="-43.2" font-family="Helvetica,sans-Serif" font-size="11.00">1 row</text>
<polygon fill="#ffffff" stroke="none" points="141,-37 141,-55 196,-55 196,-37 141,-37"/>
<polygon fill="none" stroke="black" points="141,-37 141,-55 196,-55 196,-37 141,-37"/>
<text text-anchor="start" x="169" y="-43.2" font-family="Helvetica,sans-Serif" font-size="11.00">30 &gt;</text>
</a>
</g>
</g>
<!-- notifications&#45;&gt;users -->
<g id="edge3" class="edge"><title>notifications:user_id:w&#45;&gt;users:id:e</title>
<path fill="none" stroke="black" d="M454.25,-273.318C394.705,-275.491 274.958,-287.242 237,-259 195.599,-228.196 248.603,-150 197,-150"/>
<polygon fill="black" stroke="black" points="461.002,-273.172 469.078,-276.599 465.001,-273.086 469,-273 469,-273 469,-273 465.001,-273.086 468.922,-269.401 461.002,-273.172 461.002,-273.172"/>
<ellipse fill="none" stroke="black" cx="457.803" cy="-273.241" rx="3.2" ry="3.2"/>
</g>
<!-- organizations&#45;&gt;users -->
<g id="edge4" class="edge"><title>organizations:created_by:w&#45;&gt;users:id:e</title>
<path fill="none" stroke="black" d="M229.396,-150C218.934,-150 212.014,-150 197,-150"/>
<polygon fill="black" stroke="black" points="236,-150 244,-153.6 240,-150 244,-150 244,-150 244,-150 240,-150 244,-146.4 236,-150 236,-150"/>
<ellipse fill="none" stroke="black" cx="232.8" cy="-150" rx="3.2" ry="3.2"/>
</g>
<!-- organizations&#45;&gt;users -->
<g id="edge5" class="edge"><title>organizations:modified_by:w&#45;&gt;users:id:e</title>
<path fill="none" stroke="black" d="M229.826,-131.633C219.011,-137.881 214.118,-150 197,-150"/>
<polygon fill="black" stroke="black" points="236.25,-129.986 244.894,-131.487 240.125,-128.993 244,-128 244,-128 244,-128 240.125,-128.993 243.106,-124.513 236.25,-129.986 236.25,-129.986"/>
<ellipse fill="none" stroke="black" cx="233.151" cy="-130.781" rx="3.2" ry="3.2"/>
</g>
</g>
</svg>
