<?xml version="1.0" encoding="UTF-8" standalone="no"?>
<!DOCTYPE svg PUBLIC "-//W3C//DTD SVG 1.1//EN"
 "http://www.w3.org/Graphics/SVG/1.1/DTD/svg11.dtd">
<!-- Generated by graphviz version 2.47.1 (20210515.0534)
 -->
<!-- Title: oneDegreeRelationshipsDiagram Pages: 1 -->
<svg width="514pt" height="450pt"
 viewBox="0.00 0.00 514.00 450.00" xmlns="http://www.w3.org/2000/svg" xmlns:xlink="http://www.w3.org/1999/xlink">
<g id="graph0" class="graph" transform="scale(1 1) rotate(0) translate(4 446)">
<title>oneDegreeRelationshipsDiagram</title>
<polygon fill="#ffffff" stroke="transparent" points="-4,4 -4,-446 510,-446 510,4 -4,4"/>
<text text-anchor="middle" x="73.5" y="-7.2" font-family="Helvetica,sans-Serif" font-size="11.00">Generated by SchemaSpy</text>
<!-- organization_media_files -->
<g id="node1" class="node">
<title>organization_media_files</title>
<g id="a_node1"><a xlink:href="../../tables/organization_media_files.html" xlink:title="organization_media_files" target="_top">
<polygon fill="#ffffff" stroke="transparent" points="231,-246 231,-356 498,-356 498,-246 231,-246"/>
<polygon fill="#f5f5f5" stroke="transparent" points="233.5,-332 233.5,-354 496.5,-354 496.5,-332 233.5,-332"/>
<polygon fill="none" stroke="black" points="233.5,-332 233.5,-354 496.5,-354 496.5,-332 233.5,-332"/>
<text text-anchor="start" x="238.5" y="-341.2" font-family="Helvetica,sans-Serif" font-weight="bold" font-size="11.00">organization_media_files</text>
<text text-anchor="start" x="457.5" y="-340.2" font-family="Helvetica,sans-Serif" font-size="11.00">[table]</text>
<polygon fill="none" stroke="black" points="233.5,-310 233.5,-332 402.5,-332 402.5,-310 233.5,-310"/>
<image xlink:href="../../images/primaryKeys.png" width="11px" height="12px" preserveAspectRatio="xMinYMin meet" x="238.5" y="-327"/>
<text text-anchor="start" x="253.5" y="-318.2" font-family="Helvetica,sans-Serif" font-size="11.00">file_id</text>
<polygon fill="none" stroke="black" points="402.5,-310 402.5,-332 496.5,-332 496.5,-310 402.5,-310"/>
<text text-anchor="start" x="405.5" y="-318.2" font-family="Helvetica,sans-Serif" font-size="11.00">int8[19]</text>
<polygon fill="#ffffff" stroke="transparent" points="233.5,-288 233.5,-310 402.5,-310 402.5,-288 233.5,-288"/>
<polygon fill="none" stroke="black" points="233.5,-288 233.5,-310 402.5,-310 402.5,-288 233.5,-288"/>
<image xlink:href="../../images/foreignKeys.png" width="11px" height="12px" preserveAspectRatio="xMinYMin meet" x="238.5" y="-305"/>
<text text-anchor="start" x="253.5" y="-296.2" font-family="Helvetica,sans-Serif" font-size="11.00">organization_id</text>
<polygon fill="none" stroke="black" points="402.5,-288 402.5,-310 496.5,-310 496.5,-288 402.5,-288"/>
<text text-anchor="start" x="405.5" y="-296.2" font-family="Helvetica,sans-Serif" font-size="11.00">int8[19]</text>
<polygon fill="none" stroke="black" points="233.5,-266 233.5,-288 402.5,-288 402.5,-266 233.5,-266"/>
<text text-anchor="start" x="253.5" y="-274.2" font-family="Helvetica,sans-Serif" font-size="11.00">caption</text>
<polygon fill="none" stroke="black" points="402.5,-266 402.5,-288 496.5,-288 496.5,-266 402.5,-266"/>
<text text-anchor="start" x="405.5" y="-274.2" font-family="Helvetica,sans-Serif" font-size="11.00">text[2147483647]</text>
<polygon fill="#ffffff" stroke="transparent" points="233.5,-248 233.5,-266 322.5,-266 322.5,-248 233.5,-248"/>
<polygon fill="none" stroke="black" points="233.5,-248 233.5,-266 322.5,-266 322.5,-248 233.5,-248"/>
<text text-anchor="start" x="236.5" y="-254.2" font-family="Helvetica,sans-Serif" font-size="11.00">&lt; 2</text>
<polygon fill="#ffffff" stroke="transparent" points="322.5,-248 322.5,-266 402.5,-266 402.5,-248 322.5,-248"/>
<polygon fill="none" stroke="black" points="322.5,-248 322.5,-266 402.5,-266 402.5,-248 322.5,-248"/>
<text text-anchor="start" x="392.5" y="-254.2" font-family="Helvetica,sans-Serif" font-size="11.00"> &#160;</text>
<polygon fill="#ffffff" stroke="transparent" points="402.5,-248 402.5,-266 496.5,-266 496.5,-248 402.5,-248"/>
<polygon fill="none" stroke="black" points="402.5,-248 402.5,-266 496.5,-266 496.5,-248 402.5,-248"/>
<text text-anchor="start" x="477.5" y="-254.2" font-family="Helvetica,sans-Serif" font-size="11.00">0 &gt;</text>
<polygon fill="none" stroke="black" stroke-width="2" points="232,-247 232,-355 497,-355 497,-247 232,-247"/>
</a>
</g>
</g>
<!-- files -->
<g id="node2" class="node">
<title>files</title>
<g id="a_node2"><a xlink:href="../../tables/files.html" xlink:title="files" target="_top">
<polygon fill="#ffffff" stroke="transparent" points="24.5,-270 24.5,-438 165.5,-438 165.5,-270 24.5,-270"/>
<polygon fill="#f5f5f5" stroke="transparent" points="25,-416 25,-438 166,-438 166,-416 25,-416"/>
<polygon fill="none" stroke="black" points="25,-416 25,-438 166,-438 166,-416 25,-416"/>
<text text-anchor="start" x="29" y="-425.2" font-family="Helvetica,sans-Serif" font-weight="bold" font-size="11.00">files</text>
<text text-anchor="start" x="127" y="-424.2" font-family="Helvetica,sans-Serif" font-size="11.00">[table]</text>
<polygon fill="none" stroke="black" points="25,-394 25,-416 166,-416 166,-394 25,-394"/>
<image xlink:href="../../images/primaryKeys.png" width="11px" height="12px" preserveAspectRatio="xMinYMin meet" x="30" y="-411"/>
<text text-anchor="start" x="45" y="-402.2" font-family="Helvetica,sans-Serif" font-size="11.00">id</text>
<polygon fill="none" stroke="black" points="25,-372 25,-394 166,-394 166,-372 25,-372"/>
<image xlink:href="../../images/foreignKeys.png" width="11px" height="12px" preserveAspectRatio="xMinYMin meet" x="30" y="-389"/>
<text text-anchor="start" x="45" y="-380.2" font-family="Helvetica,sans-Serif" font-size="11.00">created_by</text>
<polygon fill="#ffffff" stroke="transparent" points="25,-350 25,-372 166,-372 166,-350 25,-350"/>
<polygon fill="none" stroke="black" points="25,-350 25,-372 166,-372 166,-350 25,-350"/>
<text text-anchor="start" x="45" y="-358.2" font-family="Helvetica,sans-Serif" font-size="11.00">storage_url</text>
<polygon fill="none" stroke="black" points="25,-328 25,-350 166,-350 166,-328 25,-328"/>
<image xlink:href="../../images/foreignKeys.png" width="11px" height="12px" preserveAspectRatio="xMinYMin meet" x="30" y="-345"/>
<text text-anchor="start" x="45" y="-336.2" font-family="Helvetica,sans-Serif" font-size="11.00">modified_by</text>
<polygon fill="#ffffff" stroke="transparent" points="25,-306 25,-328 166,-328 166,-306 25,-306"/>
<polygon fill="none" stroke="black" points="25,-306 25,-328 166,-328 166,-306 25,-306"/>
<text text-anchor="start" x="45" y="-314.2" font-family="Helvetica,sans-Serif" font-size="11.00">file_batch_id</text>
<polygon fill="none" stroke="black" points="25,-288 25,-306 166,-306 166,-288 25,-288"/>
<text text-anchor="start" x="28" y="-294.2" font-family="Helvetica,sans-Serif" font-size="11.00">...</text>
<polygon fill="#ffffff" stroke="transparent" points="25,-270 25,-288 86,-288 86,-270 25,-270"/>
<polygon fill="none" stroke="black" points="25,-270 25,-288 86,-288 86,-270 25,-270"/>
<text text-anchor="start" x="28" y="-276.2" font-family="Helvetica,sans-Serif" font-size="11.00">&lt; 2</text>
<polygon fill="#ffffff" stroke="transparent" points="86,-270 86,-288 118,-288 118,-270 86,-270"/>
<polygon fill="none" stroke="black" points="86,-270 86,-288 118,-288 118,-270 86,-270"/>
<text text-anchor="start" x="108" y="-276.2" font-family="Helvetica,sans-Serif" font-size="11.00"> &#160;</text>
<polygon fill="#ffffff" stroke="transparent" points="118,-270 118,-288 166,-288 166,-270 118,-270"/>
<polygon fill="none" stroke="black" points="118,-270 118,-288 166,-288 166,-270 118,-270"/>
<text text-anchor="start" x="141" y="-276.2" font-family="Helvetica,sans-Serif" font-size="11.00">14 &gt;</text>
</a>
</g>
</g>
<!-- organization_media_files&#45;&gt;files -->
<g id="edge1" class="edge">
<title>organization_media_files:w&#45;&gt;files:e</title>
<path fill="none" stroke="black" d="M221.89,-322.75C189.61,-334.82 210.27,-405 167,-405"/>
<polygon fill="black" stroke="black" points="231.06,-317.18 232.36,-325.08 230.78,-325.34 229.48,-317.45 231.06,-317.18"/>
<polyline fill="none" stroke="black" points="232.5,-321 228.55,-321.65 "/>
<ellipse fill="none" stroke="black" cx="225.4" cy="-322.18" rx="3.2" ry="3.2"/>
</g>
<!-- organizations -->
<g id="node3" class="node">
<title>organizations</title>
<g id="a_node3"><a xlink:href="../../tables/organizations.html" xlink:title="organizations" target="_top">
<polygon fill="#ffffff" stroke="transparent" points="8,-37 8,-249 182,-249 182,-37 8,-37"/>
<polygon fill="#f5f5f5" stroke="transparent" points="8,-227 8,-249 182,-249 182,-227 8,-227"/>
<polygon fill="none" stroke="black" points="8,-227 8,-249 182,-249 182,-227 8,-227"/>
<text text-anchor="start" x="13" y="-236.2" font-family="Helvetica,sans-Serif" font-weight="bold" font-size="11.00">organizations</text>
<text text-anchor="start" x="143" y="-235.2" font-family="Helvetica,sans-Serif" font-size="11.00">[table]</text>
<polygon fill="none" stroke="black" points="8,-205 8,-227 182,-227 182,-205 8,-205"/>
<image xlink:href="../../images/primaryKeys.png" width="11px" height="12px" preserveAspectRatio="xMinYMin meet" x="13" y="-222"/>
<text text-anchor="start" x="28" y="-213.2" font-family="Helvetica,sans-Serif" font-size="11.00">id</text>
<polygon fill="none" stroke="black" points="8,-183 8,-205 182,-205 182,-183 8,-183"/>
<image xlink:href="../../images/foreignKeys.png" width="11px" height="12px" preserveAspectRatio="xMinYMin meet" x="13" y="-200"/>
<text text-anchor="start" x="28" y="-191.2" font-family="Helvetica,sans-Serif" font-size="11.00">country_code</text>
<polygon fill="none" stroke="black" points="8,-161 8,-183 182,-183 182,-161 8,-161"/>
<image xlink:href="../../images/foreignKeys.png" width="11px" height="12px" preserveAspectRatio="xMinYMin meet" x="13" y="-178"/>
<text text-anchor="start" x="28" y="-169.2" font-family="Helvetica,sans-Serif" font-size="11.00">country_subdivision_code</text>
<polygon fill="none" stroke="black" points="8,-139 8,-161 182,-161 182,-139 8,-139"/>
<image xlink:href="../../images/foreignKeys.png" width="11px" height="12px" preserveAspectRatio="xMinYMin meet" x="13" y="-156"/>
<text text-anchor="start" x="28" y="-147.2" font-family="Helvetica,sans-Serif" font-size="11.00">created_by</text>
<polygon fill="none" stroke="black" points="8,-117 8,-139 182,-139 182,-117 8,-117"/>
<image xlink:href="../../images/foreignKeys.png" width="11px" height="12px" preserveAspectRatio="xMinYMin meet" x="13" y="-134"/>
<text text-anchor="start" x="28" y="-125.2" font-family="Helvetica,sans-Serif" font-size="11.00">modified_by</text>
<polygon fill="none" stroke="black" points="8,-95 8,-117 182,-117 182,-95 8,-95"/>
<image xlink:href="../../images/foreignKeys.png" width="11px" height="12px" preserveAspectRatio="xMinYMin meet" x="13" y="-112"/>
<text text-anchor="start" x="28" y="-103.2" font-family="Helvetica,sans-Serif" font-size="11.00">organization_type_id</text>
<polygon fill="#ffffff" stroke="transparent" points="8,-73 8,-95 182,-95 182,-73 8,-73"/>
<polygon fill="none" stroke="black" points="8,-73 8,-95 182,-95 182,-73 8,-73"/>
<text text-anchor="start" x="28" y="-81.2" font-family="Helvetica,sans-Serif" font-size="11.00">botanical_country_code</text>
<polygon fill="none" stroke="black" points="8,-55 8,-73 182,-73 182,-55 8,-55"/>
<text text-anchor="start" x="11" y="-61.2" font-family="Helvetica,sans-Serif" font-size="11.00">...</text>
<polygon fill="#ffffff" stroke="transparent" points="8,-37 8,-55 85,-55 85,-37 8,-37"/>
<polygon fill="none" stroke="black" points="8,-37 8,-55 85,-55 85,-37 8,-37"/>
<text text-anchor="start" x="11" y="-43.2" font-family="Helvetica,sans-Serif" font-size="11.00">&lt; 5</text>
<polygon fill="#ffffff" stroke="transparent" points="85,-37 85,-55 126,-55 126,-37 85,-37"/>
<polygon fill="none" stroke="black" points="85,-37 85,-55 126,-55 126,-37 85,-37"/>
<text text-anchor="start" x="116" y="-43.2" font-family="Helvetica,sans-Serif" font-size="11.00"> &#160;</text>
<polygon fill="#ffffff" stroke="transparent" points="126,-37 126,-55 182,-55 182,-37 126,-37"/>
<polygon fill="none" stroke="black" points="126,-37 126,-55 182,-55 182,-37 126,-37"/>
<text text-anchor="start" x="157" y="-43.2" font-family="Helvetica,sans-Serif" font-size="11.00">15 &gt;</text>
</a>
</g>
</g>
<!-- organization_media_files&#45;&gt;organizations -->
<g id="edge2" class="edge">
<title>organization_media_files:w&#45;&gt;organizations:e</title>
<path fill="none" stroke="black" d="M218.65,-294.54C198.22,-277.3 219.91,-216 183,-216"/>
<polygon fill="black" stroke="black" points="224.89,-296.55 231.4,-302.43 228.69,-297.77 232.5,-299 232.5,-299 232.5,-299 228.69,-297.77 233.6,-295.57 224.89,-296.55 224.89,-296.55"/>
<ellipse fill="none" stroke="black" cx="221.84" cy="-295.57" rx="3.2" ry="3.2"/>
</g>
</g>
</svg>
