<?xml version="1.0" encoding="UTF-8" standalone="no"?>
<!DOCTYPE svg PUBLIC "-//W3C//DTD SVG 1.1//EN"
 "http://www.w3.org/Graphics/SVG/1.1/DTD/svg11.dtd">
<!-- Generated by graphviz version 2.38.0 (20140413.2041)
 -->
<!-- Title: oneDegreeRelationshipsDiagram Pages: 1 -->
<svg width="1107pt" height="625pt"
 viewBox="0.00 0.00 1107.00 625.15" xmlns="http://www.w3.org/2000/svg" xmlns:xlink="http://www.w3.org/1999/xlink">
<g id="graph0" class="graph" transform="scale(1 1) rotate(0) translate(4 621.146)">
<title>oneDegreeRelationshipsDiagram</title>
<polygon fill="#ffffff" stroke="none" points="-4,4 -4,-621.146 1103,-621.146 1103,4 -4,4"/>
<text text-anchor="middle" x="74.5" y="-7.2" font-family="Helvetica,sans-Serif" font-size="11.00">Generated by SchemaSpy</text>
<!-- facilities -->
<g id="node1" class="node"><title>facilities</title>
<g id="a_node1"><a xlink:href="../../tables/facilities.html" xlink:title="facilities" target="_top">
<polygon fill="#ffffff" stroke="none" points="468,-80.1456 468,-336.146 628,-336.146 628,-80.1456 468,-80.1456"/>
<polygon fill="#f5f5f5" stroke="none" points="468,-314.146 468,-336.146 628,-336.146 628,-314.146 468,-314.146"/>
<polygon fill="none" stroke="black" points="468,-314.146 468,-336.146 628,-336.146 628,-314.146 468,-314.146"/>
<text text-anchor="start" x="473" y="-323.346" font-family="Helvetica,sans-Serif" font-weight="bold" font-size="11.00">facilities</text>
<text text-anchor="start" x="589" y="-322.346" font-family="Helvetica,sans-Serif" font-size="11.00">[table]</text>
<polygon fill="none" stroke="black" points="468,-292.146 468,-314.146 628,-314.146 628,-292.146 468,-292.146"/>
<image xlink:href="../../images/primaryKeys.png" width="11px" height="12px" preserveAspectRatio="xMinYMin meet" x="473" y="-309.146"/>
<text text-anchor="start" x="488" y="-300.346" font-family="Helvetica,sans-Serif" font-size="11.00">id</text>
<polygon fill="#ffffff" stroke="none" points="468,-270.146 468,-292.146 628,-292.146 628,-270.146 468,-270.146"/>
<polygon fill="none" stroke="black" points="468,-270.146 468,-292.146 628,-292.146 628,-270.146 468,-270.146"/>
<image xlink:href="../../images/foreignKeys.png" width="11px" height="12px" preserveAspectRatio="xMinYMin meet" x="473" y="-287.146"/>
<text text-anchor="start" x="488" y="-278.346" font-family="Helvetica,sans-Serif" font-size="11.00">type_id</text>
<polygon fill="none" stroke="black" points="468,-248.146 468,-270.146 628,-270.146 628,-248.146 468,-248.146"/>
<image xlink:href="../../images/foreignKeys.png" width="11px" height="12px" preserveAspectRatio="xMinYMin meet" x="473" y="-265.146"/>
<text text-anchor="start" x="488" y="-256.346" font-family="Helvetica,sans-Serif" font-size="11.00">created_by</text>
<polygon fill="none" stroke="black" points="468,-226.146 468,-248.146 628,-248.146 628,-226.146 468,-226.146"/>
<image xlink:href="../../images/foreignKeys.png" width="11px" height="12px" preserveAspectRatio="xMinYMin meet" x="473" y="-243.146"/>
<text text-anchor="start" x="488" y="-234.346" font-family="Helvetica,sans-Serif" font-size="11.00">modified_by</text>
<polygon fill="#ffffff" stroke="none" points="468,-204.146 468,-226.146 628,-226.146 628,-204.146 468,-204.146"/>
<polygon fill="none" stroke="black" points="468,-204.146 468,-226.146 628,-226.146 628,-204.146 468,-204.146"/>
<text text-anchor="start" x="488" y="-212.346" font-family="Helvetica,sans-Serif" font-size="11.00">idle_after_time</text>
<polygon fill="none" stroke="black" points="468,-182.146 468,-204.146 628,-204.146 628,-182.146 468,-182.146"/>
<image xlink:href="../../images/foreignKeys.png" width="11px" height="12px" preserveAspectRatio="xMinYMin meet" x="473" y="-199.146"/>
<text text-anchor="start" x="488" y="-190.346" font-family="Helvetica,sans-Serif" font-size="11.00">connection_state_id</text>
<polygon fill="#ffffff" stroke="none" points="468,-160.146 468,-182.146 628,-182.146 628,-160.146 468,-160.146"/>
<polygon fill="none" stroke="black" points="468,-160.146 468,-182.146 628,-182.146 628,-160.146 468,-160.146"/>
<image xlink:href="../../images/foreignKeys.png" width="11px" height="12px" preserveAspectRatio="xMinYMin meet" x="473" y="-177.146"/>
<text text-anchor="start" x="488" y="-168.346" font-family="Helvetica,sans-Serif" font-size="11.00">organization_id</text>
<polygon fill="#ffffff" stroke="none" points="468,-138.146 468,-160.146 628,-160.146 628,-138.146 468,-138.146"/>
<polygon fill="none" stroke="black" points="468,-138.146 468,-160.146 628,-160.146 628,-138.146 468,-138.146"/>
<text text-anchor="start" x="488" y="-146.346" font-family="Helvetica,sans-Serif" font-size="11.00">next_notification_time</text>
<polygon fill="#ffffff" stroke="none" points="468,-116.146 468,-138.146 628,-138.146 628,-116.146 468,-116.146"/>
<polygon fill="none" stroke="black" points="468,-116.146 468,-138.146 628,-138.146 628,-116.146 468,-116.146"/>
<text text-anchor="start" x="488" y="-124.346" font-family="Helvetica,sans-Serif" font-size="11.00">facility_number</text>
<polygon fill="none" stroke="black" points="468,-98.1456 468,-116.146 628,-116.146 628,-98.1456 468,-98.1456"/>
<text text-anchor="start" x="471" y="-104.346" font-family="Helvetica,sans-Serif" font-size="11.00">...</text>
<polygon fill="#ffffff" stroke="none" points="468,-80.1456 468,-98.1456 527,-98.1456 527,-80.1456 468,-80.1456"/>
<polygon fill="none" stroke="black" points="468,-80.1456 468,-98.1456 527,-98.1456 527,-80.1456 468,-80.1456"/>
<text text-anchor="start" x="471" y="-86.3456" font-family="Helvetica,sans-Serif" font-size="11.00">&lt; 5</text>
<polygon fill="#ffffff" stroke="none" points="527,-80.1456 527,-98.1456 587,-98.1456 587,-80.1456 527,-80.1456"/>
<polygon fill="none" stroke="black" points="527,-80.1456 527,-98.1456 587,-98.1456 587,-80.1456 527,-80.1456"/>
<text text-anchor="start" x="548" y="-86.3456" font-family="Helvetica,sans-Serif" font-size="11.00">0 rows</text>
<polygon fill="#ffffff" stroke="none" points="587,-80.1456 587,-98.1456 628,-98.1456 628,-80.1456 587,-80.1456"/>
<polygon fill="none" stroke="black" points="587,-80.1456 587,-98.1456 628,-98.1456 628,-80.1456 587,-80.1456"/>
<text text-anchor="start" x="608" y="-86.3456" font-family="Helvetica,sans-Serif" font-size="11.00">6 &gt;</text>
</a>
</g>
</g>
<!-- users -->
<g id="node2" class="node"><title>users</title>
<g id="a_node2"><a xlink:href="../../tables/users.html" xlink:title="users" target="_top">
<polygon fill="#ffffff" stroke="none" points="8,-97.1456 8,-265.146 196,-265.146 196,-97.1456 8,-97.1456"/>
<polygon fill="#f5f5f5" stroke="none" points="8,-243.146 8,-265.146 196,-265.146 196,-243.146 8,-243.146"/>
<polygon fill="none" stroke="black" points="8,-243.146 8,-265.146 196,-265.146 196,-243.146 8,-243.146"/>
<text text-anchor="start" x="13" y="-252.346" font-family="Helvetica,sans-Serif" font-weight="bold" font-size="11.00">users</text>
<text text-anchor="start" x="157" y="-251.346" font-family="Helvetica,sans-Serif" font-size="11.00">[table]</text>
<polygon fill="none" stroke="black" points="8,-221.146 8,-243.146 196,-243.146 196,-221.146 8,-221.146"/>
<image xlink:href="../../images/primaryKeys.png" width="11px" height="12px" preserveAspectRatio="xMinYMin meet" x="13" y="-238.146"/>
<text text-anchor="start" x="28" y="-229.346" font-family="Helvetica,sans-Serif" font-size="11.00">id</text>
<polygon fill="#ffffff" stroke="none" points="8,-199.146 8,-221.146 196,-221.146 196,-199.146 8,-199.146"/>
<polygon fill="none" stroke="black" points="8,-199.146 8,-221.146 196,-221.146 196,-199.146 8,-199.146"/>
<text text-anchor="start" x="28" y="-207.346" font-family="Helvetica,sans-Serif" font-size="11.00">auth_id</text>
<polygon fill="#ffffff" stroke="none" points="8,-177.146 8,-199.146 196,-199.146 196,-177.146 8,-177.146"/>
<polygon fill="none" stroke="black" points="8,-177.146 8,-199.146 196,-199.146 196,-177.146 8,-177.146"/>
<text text-anchor="start" x="28" y="-185.346" font-family="Helvetica,sans-Serif" font-size="11.00">email</text>
<polygon fill="none" stroke="black" points="8,-155.146 8,-177.146 196,-177.146 196,-155.146 8,-155.146"/>
<image xlink:href="../../images/foreignKeys.png" width="11px" height="12px" preserveAspectRatio="xMinYMin meet" x="13" y="-172.146"/>
<text text-anchor="start" x="28" y="-163.346" font-family="Helvetica,sans-Serif" font-size="11.00">user_type_id</text>
<polygon fill="none" stroke="black" points="8,-133.146 8,-155.146 196,-155.146 196,-133.146 8,-133.146"/>
<image xlink:href="../../images/foreignKeys.png" width="11px" height="12px" preserveAspectRatio="xMinYMin meet" x="13" y="-150.146"/>
<text text-anchor="start" x="28" y="-141.346" font-family="Helvetica,sans-Serif" font-size="11.00">country_code</text>
<polygon fill="none" stroke="black" points="8,-115.146 8,-133.146 196,-133.146 196,-115.146 8,-115.146"/>
<text text-anchor="start" x="11" y="-121.346" font-family="Helvetica,sans-Serif" font-size="11.00">...</text>
<polygon fill="#ffffff" stroke="none" points="8,-97.1456 8,-115.146 80,-115.146 80,-97.1456 8,-97.1456"/>
<polygon fill="none" stroke="black" points="8,-97.1456 8,-115.146 80,-115.146 80,-97.1456 8,-97.1456"/>
<text text-anchor="start" x="11" y="-103.346" font-family="Helvetica,sans-Serif" font-size="11.00">&lt; 2</text>
<polygon fill="#ffffff" stroke="none" points="80,-97.1456 80,-115.146 141,-115.146 141,-97.1456 80,-97.1456"/>
<polygon fill="none" stroke="black" points="80,-97.1456 80,-115.146 141,-115.146 141,-97.1456 80,-97.1456"/>
<text text-anchor="start" x="107" y="-103.346" font-family="Helvetica,sans-Serif" font-size="11.00">1 row</text>
<polygon fill="#ffffff" stroke="none" points="141,-97.1456 141,-115.146 196,-115.146 196,-97.1456 141,-97.1456"/>
<polygon fill="none" stroke="black" points="141,-97.1456 141,-115.146 196,-115.146 196,-97.1456 141,-97.1456"/>
<text text-anchor="start" x="169" y="-103.346" font-family="Helvetica,sans-Serif" font-size="11.00">48 &gt;</text>
</a>
</g>
</g>
<!-- facilities&#45;&gt;users -->
<g id="edge1" class="edge"><title>facilities:created_by:w&#45;&gt;users:id:e</title>
<path fill="none" stroke="black" d="M452.513,-259.139C361.752,-259.037 333.26,-257.619 237,-242.146 218.907,-239.237 215.325,-232.146 197,-232.146"/>
<polygon fill="black" stroke="black" points="459,-259.142 466.998,-262.746 463,-259.144 467,-259.146 467,-259.146 467,-259.146 463,-259.144 467.002,-255.546 459,-259.142 459,-259.142"/>
<ellipse fill="none" stroke="black" cx="455.8" cy="-259.14" rx="3.2" ry="3.2"/>
</g>
<!-- facilities&#45;&gt;users -->
<g id="edge2" class="edge"><title>facilities:modified_by:w&#45;&gt;users:id:e</title>
<path fill="none" stroke="black" d="M452.343,-237.12C344.305,-236.734 311.981,-232.146 197,-232.146"/>
<polygon fill="black" stroke="black" points="459,-237.131 466.994,-240.746 463,-237.139 467,-237.146 467,-237.146 467,-237.146 463,-237.139 467.006,-233.546 459,-237.131 459,-237.131"/>
<ellipse fill="none" stroke="black" cx="455.8" cy="-237.126" rx="3.2" ry="3.2"/>
</g>
<!-- organizations -->
<g id="node3" class="node"><title>organizations</title>
<g id="a_node3"><a xlink:href="../../tables/organizations.html" xlink:title="organizations" target="_top">
<polygon fill="#ffffff" stroke="none" points="245,-38.1456 245,-206.146 419,-206.146 419,-38.1456 245,-38.1456"/>
<polygon fill="#f5f5f5" stroke="none" points="245,-184.146 245,-206.146 419,-206.146 419,-184.146 245,-184.146"/>
<polygon fill="none" stroke="black" points="245,-184.146 245,-206.146 419,-206.146 419,-184.146 245,-184.146"/>
<text text-anchor="start" x="250" y="-193.346" font-family="Helvetica,sans-Serif" font-weight="bold" font-size="11.00">organizations</text>
<text text-anchor="start" x="380" y="-192.346" font-family="Helvetica,sans-Serif" font-size="11.00">[table]</text>
<polygon fill="none" stroke="black" points="245,-162.146 245,-184.146 419,-184.146 419,-162.146 245,-162.146"/>
<image xlink:href="../../images/primaryKeys.png" width="11px" height="12px" preserveAspectRatio="xMinYMin meet" x="250" y="-179.146"/>
<text text-anchor="start" x="265" y="-170.346" font-family="Helvetica,sans-Serif" font-size="11.00">id</text>
<polygon fill="none" stroke="black" points="245,-140.146 245,-162.146 419,-162.146 419,-140.146 245,-140.146"/>
<image xlink:href="../../images/foreignKeys.png" width="11px" height="12px" preserveAspectRatio="xMinYMin meet" x="250" y="-157.146"/>
<text text-anchor="start" x="265" y="-148.346" font-family="Helvetica,sans-Serif" font-size="11.00">country_code</text>
<polygon fill="none" stroke="black" points="245,-118.146 245,-140.146 419,-140.146 419,-118.146 245,-118.146"/>
<image xlink:href="../../images/foreignKeys.png" width="11px" height="12px" preserveAspectRatio="xMinYMin meet" x="250" y="-135.146"/>
<text text-anchor="start" x="265" y="-126.346" font-family="Helvetica,sans-Serif" font-size="11.00">country_subdivision_code</text>
<polygon fill="none" stroke="black" points="245,-96.1456 245,-118.146 419,-118.146 419,-96.1456 245,-96.1456"/>
<image xlink:href="../../images/foreignKeys.png" width="11px" height="12px" preserveAspectRatio="xMinYMin meet" x="250" y="-113.146"/>
<text text-anchor="start" x="265" y="-104.346" font-family="Helvetica,sans-Serif" font-size="11.00">created_by</text>
<polygon fill="none" stroke="black" points="245,-74.1456 245,-96.1456 419,-96.1456 419,-74.1456 245,-74.1456"/>
<image xlink:href="../../images/foreignKeys.png" width="11px" height="12px" preserveAspectRatio="xMinYMin meet" x="250" y="-91.1456"/>
<text text-anchor="start" x="265" y="-82.3456" font-family="Helvetica,sans-Serif" font-size="11.00">modified_by</text>
<polygon fill="none" stroke="black" points="245,-56.1456 245,-74.1456 419,-74.1456 419,-56.1456 245,-56.1456"/>
<text text-anchor="start" x="248" y="-62.3456" font-family="Helvetica,sans-Serif" font-size="11.00">...</text>
<polygon fill="#ffffff" stroke="none" points="245,-38.1456 245,-56.1456 307,-56.1456 307,-38.1456 245,-38.1456"/>
<polygon fill="none" stroke="black" points="245,-38.1456 245,-56.1456 307,-56.1456 307,-38.1456 245,-38.1456"/>
<text text-anchor="start" x="248" y="-44.3456" font-family="Helvetica,sans-Serif" font-size="11.00">&lt; 4</text>
<polygon fill="#ffffff" stroke="none" points="307,-38.1456 307,-56.1456 369,-56.1456 369,-38.1456 307,-38.1456"/>
<polygon fill="none" stroke="black" points="307,-38.1456 307,-56.1456 369,-56.1456 369,-38.1456 307,-38.1456"/>
<text text-anchor="start" x="330" y="-44.3456" font-family="Helvetica,sans-Serif" font-size="11.00">0 rows</text>
<polygon fill="#ffffff" stroke="none" points="369,-38.1456 369,-56.1456 419,-56.1456 419,-38.1456 369,-38.1456"/>
<polygon fill="none" stroke="black" points="369,-38.1456 369,-56.1456 419,-56.1456 419,-38.1456 369,-38.1456"/>
<text text-anchor="start" x="392" y="-44.3456" font-family="Helvetica,sans-Serif" font-size="11.00">10 &gt;</text>
</a>
</g>
</g>
<!-- facilities&#45;&gt;organizations -->
<g id="edge3" class="edge"><title>facilities:organization_id:w&#45;&gt;organizations:id:e</title>
<path fill="none" stroke="black" d="M452.391,-171.531C441.932,-172.112 435.027,-173.146 420,-173.146"/>
<polygon fill="black" stroke="black" points="459.003,-171.357 467.095,-174.744 463.001,-171.251 467,-171.146 467,-171.146 467,-171.146 463.001,-171.251 466.905,-167.547 459.003,-171.357 459.003,-171.357"/>
<ellipse fill="none" stroke="black" cx="455.804" cy="-171.441" rx="3.2" ry="3.2"/>
</g>
<!-- organizations&#45;&gt;users -->
<g id="edge4" class="edge"><title>organizations:created_by:w&#45;&gt;users:id:e</title>
<path fill="none" stroke="black" d="M229.697,-110.752C197.86,-131.247 250.325,-232.146 197,-232.146"/>
<polygon fill="black" stroke="black" points="236.243,-109.101 244.88,-110.636 240.121,-108.124 244,-107.146 244,-107.146 244,-107.146 240.121,-108.124 243.12,-103.655 236.243,-109.101 236.243,-109.101"/>
<ellipse fill="none" stroke="black" cx="233.14" cy="-109.884" rx="3.2" ry="3.2"/>
</g>
<!-- organizations&#45;&gt;users -->
<g id="edge5" class="edge"><title>organizations:modified_by:w&#45;&gt;users:id:e</title>
<path fill="none" stroke="black" d="M229.89,-88.082C189.437,-108.8 259.831,-232.146 197,-232.146"/>
<polygon fill="black" stroke="black" points="236.168,-86.7755 244.733,-88.6701 240.084,-85.9605 244,-85.1456 244,-85.1456 244,-85.1456 240.084,-85.9605 243.267,-81.6211 236.168,-86.7755 236.168,-86.7755"/>
<ellipse fill="none" stroke="black" cx="233.035" cy="-87.4275" rx="3.2" ry="3.2"/>
</g>
<!-- upload_problems -->
<g id="node4" class="node"><title>upload_problems</title>
<g id="a_node4"><a xlink:href="../../tables/upload_problems.html" xlink:title="upload_problems" target="_top">
<polygon fill="#ffffff" stroke="none" points="944,-489.146 944,-613.146 1091,-613.146 1091,-489.146 944,-489.146"/>
<polygon fill="#f5f5f5" stroke="none" points="944.5,-591.146 944.5,-613.146 1091.5,-613.146 1091.5,-591.146 944.5,-591.146"/>
<polygon fill="none" stroke="black" points="944.5,-591.146 944.5,-613.146 1091.5,-613.146 1091.5,-591.146 944.5,-591.146"/>
<text text-anchor="start" x="949.5" y="-600.346" font-family="Helvetica,sans-Serif" font-weight="bold" font-size="11.00">upload_problems</text>
<text text-anchor="start" x="1052.5" y="-599.346" font-family="Helvetica,sans-Serif" font-size="11.00">[table]</text>
<polygon fill="none" stroke="black" points="944.5,-569.146 944.5,-591.146 1091.5,-591.146 1091.5,-569.146 944.5,-569.146"/>
<image xlink:href="../../images/primaryKeys.png" width="11px" height="12px" preserveAspectRatio="xMinYMin meet" x="949.5" y="-586.146"/>
<text text-anchor="start" x="976.5" y="-577.346" font-family="Helvetica,sans-Serif" font-size="11.00">id</text>
<polygon fill="#ffffff" stroke="none" points="944.5,-547.146 944.5,-569.146 1091.5,-569.146 1091.5,-547.146 944.5,-547.146"/>
<polygon fill="none" stroke="black" points="944.5,-547.146 944.5,-569.146 1091.5,-569.146 1091.5,-547.146 944.5,-547.146"/>
<image xlink:href="../../images/foreignKeys.png" width="11px" height="12px" preserveAspectRatio="xMinYMin meet" x="949.5" y="-564.146"/>
<text text-anchor="start" x="976.5" y="-555.346" font-family="Helvetica,sans-Serif" font-size="11.00">upload_id</text>
<polygon fill="none" stroke="black" points="944.5,-525.146 944.5,-547.146 1091.5,-547.146 1091.5,-525.146 944.5,-525.146"/>
<image xlink:href="../../images/foreignKeys.png" width="11px" height="12px" preserveAspectRatio="xMinYMin meet" x="949.5" y="-542.146"/>
<text text-anchor="start" x="976.5" y="-533.346" font-family="Helvetica,sans-Serif" font-size="11.00">type_id</text>
<polygon fill="none" stroke="black" points="944.5,-507.146 944.5,-525.146 1091.5,-525.146 1091.5,-507.146 944.5,-507.146"/>
<text text-anchor="start" x="947.5" y="-513.346" font-family="Helvetica,sans-Serif" font-size="11.00">...</text>
<polygon fill="#ffffff" stroke="none" points="944.5,-489.146 944.5,-507.146 1001.5,-507.146 1001.5,-489.146 944.5,-489.146"/>
<polygon fill="none" stroke="black" points="944.5,-489.146 944.5,-507.146 1001.5,-507.146 1001.5,-489.146 944.5,-489.146"/>
<text text-anchor="start" x="947.5" y="-495.346" font-family="Helvetica,sans-Serif" font-size="11.00">&lt; 2</text>
<polygon fill="#ffffff" stroke="none" points="1001.5,-489.146 1001.5,-507.146 1060.5,-507.146 1060.5,-489.146 1001.5,-489.146"/>
<polygon fill="none" stroke="black" points="1001.5,-489.146 1001.5,-507.146 1060.5,-507.146 1060.5,-489.146 1001.5,-489.146"/>
<text text-anchor="start" x="1021.5" y="-495.346" font-family="Helvetica,sans-Serif" font-size="11.00">0 rows</text>
<polygon fill="#ffffff" stroke="none" points="1060.5,-489.146 1060.5,-507.146 1091.5,-507.146 1091.5,-489.146 1060.5,-489.146"/>
<polygon fill="none" stroke="black" points="1060.5,-489.146 1060.5,-507.146 1091.5,-507.146 1091.5,-489.146 1060.5,-489.146"/>
<text text-anchor="start" x="1081.5" y="-495.346" font-family="Helvetica,sans-Serif" font-size="11.00"> &#160;</text>
</a>
</g>
</g>
<!-- uploads -->
<g id="node5" class="node"><title>uploads</title>
<g id="a_node5"><a xlink:href="../../tables/uploads.html" xlink:title="uploads" target="_top">
<polygon fill="#ffffff" stroke="none" points="677,-307.146 677,-593.146 895,-593.146 895,-307.146 677,-307.146"/>
<polygon fill="#f5f5f5" stroke="none" points="679,-569.146 679,-591.146 893,-591.146 893,-569.146 679,-569.146"/>
<polygon fill="none" stroke="black" points="679,-569.146 679,-591.146 893,-591.146 893,-569.146 679,-569.146"/>
<text text-anchor="start" x="684" y="-578.346" font-family="Helvetica,sans-Serif" font-weight="bold" font-size="11.00">uploads</text>
<text text-anchor="start" x="854" y="-577.346" font-family="Helvetica,sans-Serif" font-size="11.00">[table]</text>
<polygon fill="none" stroke="black" points="679,-547.146 679,-569.146 791,-569.146 791,-547.146 679,-547.146"/>
<image xlink:href="../../images/primaryKeys.png" width="11px" height="12px" preserveAspectRatio="xMinYMin meet" x="684" y="-564.146"/>
<text text-anchor="start" x="699" y="-555.346" font-family="Helvetica,sans-Serif" font-size="11.00">id</text>
<polygon fill="none" stroke="black" points="791,-547.146 791,-569.146 893,-569.146 893,-547.146 791,-547.146"/>
<text text-anchor="start" x="794" y="-555.346" font-family="Helvetica,sans-Serif" font-size="11.00">int8[19]</text>
<polygon fill="none" stroke="black" points="679,-525.146 679,-547.146 791,-547.146 791,-525.146 679,-525.146"/>
<image xlink:href="../../images/foreignKeys.png" width="11px" height="12px" preserveAspectRatio="xMinYMin meet" x="684" y="-542.146"/>
<text text-anchor="start" x="699" y="-533.346" font-family="Helvetica,sans-Serif" font-size="11.00">created_by</text>
<polygon fill="none" stroke="black" points="791,-525.146 791,-547.146 893,-547.146 893,-525.146 791,-525.146"/>
<text text-anchor="start" x="794" y="-533.346" font-family="Helvetica,sans-Serif" font-size="11.00">int8[19]</text>
<polygon fill="none" stroke="black" points="679,-503.146 679,-525.146 791,-525.146 791,-503.146 679,-503.146"/>
<text text-anchor="start" x="699" y="-511.346" font-family="Helvetica,sans-Serif" font-size="11.00">created_time</text>
<polygon fill="none" stroke="black" points="791,-503.146 791,-525.146 893,-525.146 893,-503.146 791,-503.146"/>
<text text-anchor="start" x="794" y="-511.346" font-family="Helvetica,sans-Serif" font-size="11.00">timestamptz[35,6]</text>
<polygon fill="none" stroke="black" points="679,-481.146 679,-503.146 791,-503.146 791,-481.146 679,-481.146"/>
<text text-anchor="start" x="699" y="-489.346" font-family="Helvetica,sans-Serif" font-size="11.00">filename</text>
<polygon fill="none" stroke="black" points="791,-481.146 791,-503.146 893,-503.146 893,-481.146 791,-481.146"/>
<text text-anchor="start" x="794" y="-489.346" font-family="Helvetica,sans-Serif" font-size="11.00">text[2147483647]</text>
<polygon fill="none" stroke="black" points="679,-459.146 679,-481.146 791,-481.146 791,-459.146 679,-459.146"/>
<text text-anchor="start" x="699" y="-467.346" font-family="Helvetica,sans-Serif" font-size="11.00">storage_url</text>
<polygon fill="none" stroke="black" points="791,-459.146 791,-481.146 893,-481.146 893,-459.146 791,-459.146"/>
<text text-anchor="start" x="794" y="-467.346" font-family="Helvetica,sans-Serif" font-size="11.00">text[2147483647]</text>
<polygon fill="none" stroke="black" points="679,-437.146 679,-459.146 791,-459.146 791,-437.146 679,-437.146"/>
<text text-anchor="start" x="699" y="-445.346" font-family="Helvetica,sans-Serif" font-size="11.00">content_type</text>
<polygon fill="none" stroke="black" points="791,-437.146 791,-459.146 893,-459.146 893,-437.146 791,-437.146"/>
<text text-anchor="start" x="794" y="-445.346" font-family="Helvetica,sans-Serif" font-size="11.00">text[2147483647]</text>
<polygon fill="none" stroke="black" points="679,-415.146 679,-437.146 791,-437.146 791,-415.146 679,-415.146"/>
<image xlink:href="../../images/foreignKeys.png" width="11px" height="12px" preserveAspectRatio="xMinYMin meet" x="684" y="-432.146"/>
<text text-anchor="start" x="699" y="-423.346" font-family="Helvetica,sans-Serif" font-size="11.00">type_id</text>
<polygon fill="none" stroke="black" points="791,-415.146 791,-437.146 893,-437.146 893,-415.146 791,-415.146"/>
<text text-anchor="start" x="794" y="-423.346" font-family="Helvetica,sans-Serif" font-size="11.00">int4[10]</text>
<polygon fill="none" stroke="black" points="679,-393.146 679,-415.146 791,-415.146 791,-393.146 679,-393.146"/>
<image xlink:href="../../images/foreignKeys.png" width="11px" height="12px" preserveAspectRatio="xMinYMin meet" x="684" y="-410.146"/>
<text text-anchor="start" x="699" y="-401.346" font-family="Helvetica,sans-Serif" font-size="11.00">status_id</text>
<polygon fill="none" stroke="black" points="791,-393.146 791,-415.146 893,-415.146 893,-393.146 791,-393.146"/>
<text text-anchor="start" x="794" y="-401.346" font-family="Helvetica,sans-Serif" font-size="11.00">int4[10]</text>
<polygon fill="none" stroke="black" points="679,-371.146 679,-393.146 791,-393.146 791,-371.146 679,-371.146"/>
<image xlink:href="../../images/foreignKeys.png" width="11px" height="12px" preserveAspectRatio="xMinYMin meet" x="684" y="-388.146"/>
<text text-anchor="start" x="699" y="-379.346" font-family="Helvetica,sans-Serif" font-size="11.00">organization_id</text>
<polygon fill="none" stroke="black" points="791,-371.146 791,-393.146 893,-393.146 893,-371.146 791,-371.146"/>
<text text-anchor="start" x="794" y="-379.346" font-family="Helvetica,sans-Serif" font-size="11.00">int8[19]</text>
<polygon fill="#ffffff" stroke="none" points="679,-349.146 679,-371.146 791,-371.146 791,-349.146 679,-349.146"/>
<polygon fill="none" stroke="black" points="679,-349.146 679,-371.146 791,-371.146 791,-349.146 679,-349.146"/>
<image xlink:href="../../images/foreignKeys.png" width="11px" height="12px" preserveAspectRatio="xMinYMin meet" x="684" y="-366.146"/>
<text text-anchor="start" x="699" y="-357.346" font-family="Helvetica,sans-Serif" font-size="11.00">facility_id</text>
<polygon fill="none" stroke="black" points="791,-349.146 791,-371.146 893,-371.146 893,-349.146 791,-349.146"/>
<text text-anchor="start" x="794" y="-357.346" font-family="Helvetica,sans-Serif" font-size="11.00">int8[19]</text>
<polygon fill="none" stroke="black" points="679,-327.146 679,-349.146 791,-349.146 791,-327.146 679,-327.146"/>
<text text-anchor="start" x="699" y="-335.346" font-family="Helvetica,sans-Serif" font-size="11.00">locale</text>
<polygon fill="none" stroke="black" points="791,-327.146 791,-349.146 893,-349.146 893,-327.146 791,-327.146"/>
<text text-anchor="start" x="794" y="-335.346" font-family="Helvetica,sans-Serif" font-size="11.00">text[2147483647]</text>
<polygon fill="#ffffff" stroke="none" points="679,-309.146 679,-327.146 725,-327.146 725,-309.146 679,-309.146"/>
<polygon fill="none" stroke="black" points="679,-309.146 679,-327.146 725,-327.146 725,-309.146 679,-309.146"/>
<text text-anchor="start" x="682" y="-315.346" font-family="Helvetica,sans-Serif" font-size="11.00">&lt; 5</text>
<polygon fill="#ffffff" stroke="none" points="725,-309.146 725,-327.146 791,-327.146 791,-309.146 725,-309.146"/>
<polygon fill="none" stroke="black" points="725,-309.146 725,-327.146 791,-327.146 791,-309.146 725,-309.146"/>
<text text-anchor="start" x="752" y="-315.346" font-family="Helvetica,sans-Serif" font-size="11.00">0 rows</text>
<polygon fill="#ffffff" stroke="none" points="791,-309.146 791,-327.146 893,-327.146 893,-309.146 791,-309.146"/>
<polygon fill="none" stroke="black" points="791,-309.146 791,-327.146 893,-327.146 893,-309.146 791,-309.146"/>
<text text-anchor="start" x="873" y="-315.346" font-family="Helvetica,sans-Serif" font-size="11.00">1 &gt;</text>
<polygon fill="none" stroke="black" stroke-width="2" points="678,-308.146 678,-592.146 894,-592.146 894,-308.146 678,-308.146"/>
</a>
</g>
</g>
<!-- upload_problems&#45;&gt;uploads -->
<g id="edge6" class="edge"><title>upload_problems:upload_id:w&#45;&gt;uploads:id.type:e</title>
<path fill="none" stroke="black" d="M928.843,-558.146C917.414,-558.146 910.156,-558.146 894,-558.146"/>
<polygon fill="black" stroke="black" points="935.5,-558.146 943.5,-561.746 939.5,-558.146 943.5,-558.146 943.5,-558.146 943.5,-558.146 939.5,-558.146 943.5,-554.546 935.5,-558.146 935.5,-558.146"/>
<ellipse fill="none" stroke="black" cx="932.3" cy="-558.146" rx="3.2" ry="3.2"/>
</g>
<!-- uploads&#45;&gt;facilities -->
<g id="edge8" class="edge"><title>uploads:facility_id:w&#45;&gt;facilities:id:e</title>
<path fill="none" stroke="black" d="M664.359,-355.286C649.341,-341.502 656.404,-303.146 629,-303.146"/>
<polygon fill="black" stroke="black" points="670.464,-357.461 676.792,-363.537 674.232,-358.803 678,-360.146 678,-360.146 678,-360.146 674.232,-358.803 679.208,-356.754 670.464,-357.461 670.464,-357.461"/>
<ellipse fill="none" stroke="black" cx="667.45" cy="-356.387" rx="3.20001" ry="3.20001"/>
</g>
<!-- uploads&#45;&gt;users -->
<g id="edge7" class="edge"><title>uploads:created_by:w&#45;&gt;users:id:e</title>
<path fill="none" stroke="black" d="M663.529,-538.386C654.937,-541.317 649.218,-546.294 636,-548.146 558.534,-558.995 530.827,-581.346 460,-548.146 418.638,-528.757 242.681,-232.146 197,-232.146"/>
<polygon fill="black" stroke="black" points="670.094,-537.37 678.551,-539.703 674.047,-536.758 678,-536.146 678,-536.146 678,-536.146 674.047,-536.758 677.449,-532.588 670.094,-537.37 670.094,-537.37"/>
<ellipse fill="none" stroke="black" cx="666.932" cy="-537.86" rx="3.2" ry="3.2"/>
</g>
<!-- uploads&#45;&gt;organizations -->
<g id="edge9" class="edge"><title>uploads:organization_id:w&#45;&gt;organizations:id:e</title>
<path fill="none" stroke="black" d="M664.184,-377.493C619.66,-341.805 684.694,-111.742 636,-69.1456 577.125,-17.6433 524.479,-24.8611 460,-69.1456 419.177,-97.1824 469.523,-173.146 420,-173.146"/>
<polygon fill="black" stroke="black" points="670.418,-379.592 676.851,-385.557 674.209,-380.869 678,-382.146 678,-382.146 678,-382.146 674.209,-380.869 679.149,-378.734 670.418,-379.592 670.418,-379.592"/>
<ellipse fill="none" stroke="black" cx="667.386" cy="-378.571" rx="3.20001" ry="3.20001"/>
</g>
<!-- upload_statuses -->
<g id="node6" class="node"><title>upload_statuses</title>
<g id="a_node6"><a xlink:href="../../tables/upload_statuses.html" xlink:title="upload_statuses" target="_top">
<polygon fill="#ffffff" stroke="none" points="478,-357.146 478,-437.146 618,-437.146 618,-357.146 478,-357.146"/>
<polygon fill="#f5f5f5" stroke="none" points="478,-415.146 478,-437.146 618,-437.146 618,-415.146 478,-415.146"/>
<polygon fill="none" stroke="black" points="478,-415.146 478,-437.146 618,-437.146 618,-415.146 478,-415.146"/>
<text text-anchor="start" x="483" y="-424.346" font-family="Helvetica,sans-Serif" font-weight="bold" font-size="11.00">upload_statuses</text>
<text text-anchor="start" x="579" y="-423.346" font-family="Helvetica,sans-Serif" font-size="11.00">[table]</text>
<polygon fill="none" stroke="black" points="478,-393.146 478,-415.146 618,-415.146 618,-393.146 478,-393.146"/>
<image xlink:href="../../images/primaryKeys.png" width="11px" height="12px" preserveAspectRatio="xMinYMin meet" x="483" y="-410.146"/>
<text text-anchor="start" x="510" y="-401.346" font-family="Helvetica,sans-Serif" font-size="11.00">id</text>
<polygon fill="none" stroke="black" points="478,-375.146 478,-393.146 618,-393.146 618,-375.146 478,-375.146"/>
<text text-anchor="start" x="481" y="-381.346" font-family="Helvetica,sans-Serif" font-size="11.00">...</text>
<polygon fill="#ffffff" stroke="none" points="478,-357.146 478,-375.146 518,-375.146 518,-357.146 478,-357.146"/>
<polygon fill="none" stroke="black" points="478,-357.146 478,-375.146 518,-375.146 518,-357.146 478,-357.146"/>
<text text-anchor="start" x="481" y="-363.346" font-family="Helvetica,sans-Serif" font-size="11.00"> &#160;</text>
<polygon fill="#ffffff" stroke="none" points="518,-357.146 518,-375.146 581,-375.146 581,-357.146 518,-357.146"/>
<polygon fill="none" stroke="black" points="518,-357.146 518,-375.146 581,-375.146 581,-357.146 518,-357.146"/>
<text text-anchor="start" x="535" y="-363.346" font-family="Helvetica,sans-Serif" font-size="11.00">10 rows</text>
<polygon fill="#ffffff" stroke="none" points="581,-357.146 581,-375.146 618,-375.146 618,-357.146 581,-357.146"/>
<polygon fill="none" stroke="black" points="581,-357.146 581,-375.146 618,-375.146 618,-357.146 581,-357.146"/>
<text text-anchor="start" x="598" y="-363.346" font-family="Helvetica,sans-Serif" font-size="11.00">1 &gt;</text>
</a>
</g>
</g>
<!-- uploads&#45;&gt;upload_statuses -->
<g id="edge10" class="edge"><title>uploads:status_id:w&#45;&gt;upload_statuses:id:e</title>
<path fill="none" stroke="black" d="M663.203,-404.146C647.969,-404.146 639.486,-404.146 619,-404.146"/>
<polygon fill="black" stroke="black" points="670,-404.146 678,-407.746 674,-404.146 678,-404.146 678,-404.146 678,-404.146 674,-404.146 678,-400.546 670,-404.146 670,-404.146"/>
<ellipse fill="none" stroke="black" cx="666.8" cy="-404.146" rx="3.2" ry="3.2"/>
</g>
<!-- upload_types -->
<g id="node7" class="node"><title>upload_types</title>
<g id="a_node7"><a xlink:href="../../tables/upload_types.html" xlink:title="upload_types" target="_top">
<polygon fill="#ffffff" stroke="none" points="486,-458.146 486,-538.146 610,-538.146 610,-458.146 486,-458.146"/>
<polygon fill="#f5f5f5" stroke="none" points="486,-516.146 486,-538.146 610,-538.146 610,-516.146 486,-516.146"/>
<polygon fill="none" stroke="black" points="486,-516.146 486,-538.146 610,-538.146 610,-516.146 486,-516.146"/>
<text text-anchor="start" x="491" y="-525.346" font-family="Helvetica,sans-Serif" font-weight="bold" font-size="11.00">upload_types</text>
<text text-anchor="start" x="571" y="-524.346" font-family="Helvetica,sans-Serif" font-size="11.00">[table]</text>
<polygon fill="none" stroke="black" points="486,-494.146 486,-516.146 610,-516.146 610,-494.146 486,-494.146"/>
<image xlink:href="../../images/primaryKeys.png" width="11px" height="12px" preserveAspectRatio="xMinYMin meet" x="491" y="-511.146"/>
<text text-anchor="start" x="518" y="-502.346" font-family="Helvetica,sans-Serif" font-size="11.00">id</text>
<polygon fill="none" stroke="black" points="486,-476.146 486,-494.146 610,-494.146 610,-476.146 486,-476.146"/>
<text text-anchor="start" x="489" y="-482.346" font-family="Helvetica,sans-Serif" font-size="11.00">...</text>
<polygon fill="#ffffff" stroke="none" points="486,-458.146 486,-476.146 522,-476.146 522,-458.146 486,-458.146"/>
<polygon fill="none" stroke="black" points="486,-458.146 486,-476.146 522,-476.146 522,-458.146 486,-458.146"/>
<text text-anchor="start" x="489" y="-464.346" font-family="Helvetica,sans-Serif" font-size="11.00"> &#160;</text>
<polygon fill="#ffffff" stroke="none" points="522,-458.146 522,-476.146 575,-476.146 575,-458.146 522,-458.146"/>
<polygon fill="none" stroke="black" points="522,-458.146 522,-476.146 575,-476.146 575,-458.146 522,-458.146"/>
<text text-anchor="start" x="536" y="-464.346" font-family="Helvetica,sans-Serif" font-size="11.00">3 rows</text>
<polygon fill="#ffffff" stroke="none" points="575,-458.146 575,-476.146 610,-476.146 610,-458.146 575,-458.146"/>
<polygon fill="none" stroke="black" points="575,-458.146 575,-476.146 610,-476.146 610,-458.146 575,-458.146"/>
<text text-anchor="start" x="590" y="-464.346" font-family="Helvetica,sans-Serif" font-size="11.00">1 &gt;</text>
</a>
</g>
</g>
<!-- uploads&#45;&gt;upload_types -->
<g id="edge11" class="edge"><title>uploads:type_id:w&#45;&gt;upload_types:id:e</title>
<path fill="none" stroke="black" d="M663.791,-429.54C637.12,-444.661 651.283,-505.146 611,-505.146"/>
<polygon fill="black" stroke="black" points="670.219,-428.005 678.837,-429.647 674.109,-427.075 678,-426.146 678,-426.146 678,-426.146 674.109,-427.075 677.163,-422.644 670.219,-428.005 670.219,-428.005"/>
<ellipse fill="none" stroke="black" cx="667.107" cy="-428.748" rx="3.2" ry="3.2"/>
</g>
</g>
</svg>
