<?xml version="1.0" encoding="UTF-8" standalone="no"?>
<!DOCTYPE svg PUBLIC "-//W3C//DTD SVG 1.1//EN"
 "http://www.w3.org/Graphics/SVG/1.1/DTD/svg11.dtd">
<!-- Generated by graphviz version 2.38.0 (20140413.2041)
 -->
<!-- Title: twoDegreesRelationshipsDiagram Pages: 1 -->
<svg width="1219pt" height="503pt"
 viewBox="0.00 0.00 1219.00 503.00" xmlns="http://www.w3.org/2000/svg" xmlns:xlink="http://www.w3.org/1999/xlink">
<g id="graph0" class="graph" transform="scale(1 1) rotate(0) translate(4 499)">
<title>twoDegreesRelationshipsDiagram</title>
<polygon fill="#ffffff" stroke="none" points="-4,4 -4,-499 1215,-499 1215,4 -4,4"/>
<text text-anchor="middle" x="74.5" y="-7.2" font-family="Helvetica,sans-Serif" font-size="11.00">Generated by SchemaSpy</text>
<!-- facilities -->
<g id="node1" class="node"><title>facilities</title>
<g id="a_node1"><a xlink:href="../../tables/facilities.html" xlink:title="facilities" target="_top">
<polygon fill="#ffffff" stroke="none" points="954,-37 954,-411 1203,-411 1203,-37 954,-37"/>
<polygon fill="#f5f5f5" stroke="none" points="956.5,-387 956.5,-409 1201.5,-409 1201.5,-387 956.5,-387"/>
<polygon fill="none" stroke="black" points="956.5,-387 956.5,-409 1201.5,-409 1201.5,-387 956.5,-387"/>
<text text-anchor="start" x="961.5" y="-396.2" font-family="Helvetica,sans-Serif" font-weight="bold" font-size="11.00">facilities</text>
<text text-anchor="start" x="1162.5" y="-395.2" font-family="Helvetica,sans-Serif" font-size="11.00">[table]</text>
<polygon fill="none" stroke="black" points="956.5,-365 956.5,-387 1099.5,-387 1099.5,-365 956.5,-365"/>
<image xlink:href="../../images/primaryKeys.png" width="11px" height="12px" preserveAspectRatio="xMinYMin meet" x="961.5" y="-382"/>
<text text-anchor="start" x="976.5" y="-373.2" font-family="Helvetica,sans-Serif" font-size="11.00">id</text>
<polygon fill="none" stroke="black" points="1099.5,-365 1099.5,-387 1201.5,-387 1201.5,-365 1099.5,-365"/>
<text text-anchor="start" x="1102.5" y="-373.2" font-family="Helvetica,sans-Serif" font-size="11.00">int8[19]</text>
<polygon fill="none" stroke="black" points="956.5,-343 956.5,-365 1099.5,-365 1099.5,-343 956.5,-343"/>
<image xlink:href="../../images/foreignKeys.png" width="11px" height="12px" preserveAspectRatio="xMinYMin meet" x="961.5" y="-360"/>
<text text-anchor="start" x="976.5" y="-351.2" font-family="Helvetica,sans-Serif" font-size="11.00">site_id</text>
<polygon fill="none" stroke="black" points="1099.5,-343 1099.5,-365 1201.5,-365 1201.5,-343 1099.5,-343"/>
<text text-anchor="start" x="1102.5" y="-351.2" font-family="Helvetica,sans-Serif" font-size="11.00">int8[19]</text>
<polygon fill="none" stroke="black" points="956.5,-321 956.5,-343 1099.5,-343 1099.5,-321 956.5,-321"/>
<image xlink:href="../../images/foreignKeys.png" width="11px" height="12px" preserveAspectRatio="xMinYMin meet" x="961.5" y="-338"/>
<text text-anchor="start" x="976.5" y="-329.2" font-family="Helvetica,sans-Serif" font-size="11.00">type_id</text>
<polygon fill="none" stroke="black" points="1099.5,-321 1099.5,-343 1201.5,-343 1201.5,-321 1099.5,-321"/>
<text text-anchor="start" x="1102.5" y="-329.2" font-family="Helvetica,sans-Serif" font-size="11.00">int4[10]</text>
<polygon fill="none" stroke="black" points="956.5,-299 956.5,-321 1099.5,-321 1099.5,-299 956.5,-299"/>
<text text-anchor="start" x="976.5" y="-307.2" font-family="Helvetica,sans-Serif" font-size="11.00">name</text>
<polygon fill="none" stroke="black" points="1099.5,-299 1099.5,-321 1201.5,-321 1201.5,-299 1099.5,-299"/>
<text text-anchor="start" x="1102.5" y="-307.2" font-family="Helvetica,sans-Serif" font-size="11.00">text[2147483647]</text>
<polygon fill="none" stroke="black" points="956.5,-277 956.5,-299 1099.5,-299 1099.5,-277 956.5,-277"/>
<text text-anchor="start" x="976.5" y="-285.2" font-family="Helvetica,sans-Serif" font-size="11.00">latitude</text>
<polygon fill="none" stroke="black" points="1099.5,-277 1099.5,-299 1201.5,-299 1201.5,-277 1099.5,-277"/>
<text text-anchor="start" x="1102.5" y="-285.2" font-family="Helvetica,sans-Serif" font-size="11.00">numeric[10,7]</text>
<polygon fill="none" stroke="black" points="956.5,-255 956.5,-277 1099.5,-277 1099.5,-255 956.5,-255"/>
<text text-anchor="start" x="976.5" y="-263.2" font-family="Helvetica,sans-Serif" font-size="11.00">longitude</text>
<polygon fill="none" stroke="black" points="1099.5,-255 1099.5,-277 1201.5,-277 1201.5,-255 1099.5,-255"/>
<text text-anchor="start" x="1102.5" y="-263.2" font-family="Helvetica,sans-Serif" font-size="11.00">numeric[10,7]</text>
<polygon fill="none" stroke="black" points="956.5,-233 956.5,-255 1099.5,-255 1099.5,-233 956.5,-233"/>
<text text-anchor="start" x="976.5" y="-241.2" font-family="Helvetica,sans-Serif" font-size="11.00">enabled</text>
<polygon fill="none" stroke="black" points="1099.5,-233 1099.5,-255 1201.5,-255 1201.5,-233 1099.5,-233"/>
<text text-anchor="start" x="1102.5" y="-241.2" font-family="Helvetica,sans-Serif" font-size="11.00">bool[1]</text>
<polygon fill="none" stroke="black" points="956.5,-211 956.5,-233 1099.5,-233 1099.5,-211 956.5,-211"/>
<text text-anchor="start" x="976.5" y="-219.2" font-family="Helvetica,sans-Serif" font-size="11.00">created_time</text>
<polygon fill="none" stroke="black" points="1099.5,-211 1099.5,-233 1201.5,-233 1201.5,-211 1099.5,-211"/>
<text text-anchor="start" x="1102.5" y="-219.2" font-family="Helvetica,sans-Serif" font-size="11.00">timestamptz[35,6]</text>
<polygon fill="none" stroke="black" points="956.5,-189 956.5,-211 1099.5,-211 1099.5,-189 956.5,-189"/>
<text text-anchor="start" x="976.5" y="-197.2" font-family="Helvetica,sans-Serif" font-size="11.00">modified_time</text>
<polygon fill="none" stroke="black" points="1099.5,-189 1099.5,-211 1201.5,-211 1201.5,-189 1099.5,-189"/>
<text text-anchor="start" x="1102.5" y="-197.2" font-family="Helvetica,sans-Serif" font-size="11.00">timestamptz[35,6]</text>
<polygon fill="none" stroke="black" points="956.5,-167 956.5,-189 1099.5,-189 1099.5,-167 956.5,-167"/>
<image xlink:href="../../images/foreignKeys.png" width="11px" height="12px" preserveAspectRatio="xMinYMin meet" x="961.5" y="-184"/>
<text text-anchor="start" x="976.5" y="-175.2" font-family="Helvetica,sans-Serif" font-size="11.00">created_by</text>
<polygon fill="none" stroke="black" points="1099.5,-167 1099.5,-189 1201.5,-189 1201.5,-167 1099.5,-167"/>
<text text-anchor="start" x="1102.5" y="-175.2" font-family="Helvetica,sans-Serif" font-size="11.00">int8[19]</text>
<polygon fill="none" stroke="black" points="956.5,-145 956.5,-167 1099.5,-167 1099.5,-145 956.5,-145"/>
<image xlink:href="../../images/foreignKeys.png" width="11px" height="12px" preserveAspectRatio="xMinYMin meet" x="961.5" y="-162"/>
<text text-anchor="start" x="976.5" y="-153.2" font-family="Helvetica,sans-Serif" font-size="11.00">modified_by</text>
<polygon fill="none" stroke="black" points="1099.5,-145 1099.5,-167 1201.5,-167 1201.5,-145 1099.5,-145"/>
<text text-anchor="start" x="1102.5" y="-153.2" font-family="Helvetica,sans-Serif" font-size="11.00">int8[19]</text>
<polygon fill="none" stroke="black" points="956.5,-123 956.5,-145 1099.5,-145 1099.5,-123 956.5,-123"/>
<text text-anchor="start" x="976.5" y="-131.2" font-family="Helvetica,sans-Serif" font-size="11.00">max_idle_minutes</text>
<polygon fill="none" stroke="black" points="1099.5,-123 1099.5,-145 1201.5,-145 1201.5,-123 1099.5,-123"/>
<text text-anchor="start" x="1102.5" y="-131.2" font-family="Helvetica,sans-Serif" font-size="11.00">int4[10]</text>
<polygon fill="none" stroke="black" points="956.5,-101 956.5,-123 1099.5,-123 1099.5,-101 956.5,-101"/>
<text text-anchor="start" x="976.5" y="-109.2" font-family="Helvetica,sans-Serif" font-size="11.00">last_timeseries_time</text>
<polygon fill="none" stroke="black" points="1099.5,-101 1099.5,-123 1201.5,-123 1201.5,-101 1099.5,-101"/>
<text text-anchor="start" x="1102.5" y="-109.2" font-family="Helvetica,sans-Serif" font-size="11.00">timestamptz[35,6]</text>
<polygon fill="#ffffff" stroke="none" points="956.5,-79 956.5,-101 1099.5,-101 1099.5,-79 956.5,-79"/>
<polygon fill="none" stroke="black" points="956.5,-79 956.5,-101 1099.5,-101 1099.5,-79 956.5,-79"/>
<text text-anchor="start" x="976.5" y="-87.2" font-family="Helvetica,sans-Serif" font-size="11.00">idle_after_time</text>
<polygon fill="none" stroke="black" points="1099.5,-79 1099.5,-101 1201.5,-101 1201.5,-79 1099.5,-79"/>
<text text-anchor="start" x="1102.5" y="-87.2" font-family="Helvetica,sans-Serif" font-size="11.00">timestamptz[35,6]</text>
<polygon fill="none" stroke="black" points="956.5,-57 956.5,-79 1099.5,-79 1099.5,-57 956.5,-57"/>
<text text-anchor="start" x="976.5" y="-65.2" font-family="Helvetica,sans-Serif" font-size="11.00">idle_since_time</text>
<polygon fill="none" stroke="black" points="1099.5,-57 1099.5,-79 1201.5,-79 1201.5,-57 1099.5,-57"/>
<text text-anchor="start" x="1102.5" y="-65.2" font-family="Helvetica,sans-Serif" font-size="11.00">timestamptz[35,6]</text>
<polygon fill="#ffffff" stroke="none" points="956.5,-39 956.5,-57 1018.5,-57 1018.5,-39 956.5,-39"/>
<polygon fill="none" stroke="black" points="956.5,-39 956.5,-57 1018.5,-57 1018.5,-39 956.5,-39"/>
<text text-anchor="start" x="959.5" y="-45.2" font-family="Helvetica,sans-Serif" font-size="11.00">&lt; 4</text>
<polygon fill="#ffffff" stroke="none" points="1018.5,-39 1018.5,-57 1099.5,-57 1099.5,-39 1018.5,-39"/>
<polygon fill="none" stroke="black" points="1018.5,-39 1018.5,-57 1099.5,-57 1099.5,-39 1018.5,-39"/>
<text text-anchor="start" x="1060.5" y="-45.2" font-family="Helvetica,sans-Serif" font-size="11.00">0 rows</text>
<polygon fill="#ffffff" stroke="none" points="1099.5,-39 1099.5,-57 1201.5,-57 1201.5,-39 1099.5,-39"/>
<polygon fill="none" stroke="black" points="1099.5,-39 1099.5,-57 1201.5,-57 1201.5,-39 1099.5,-39"/>
<text text-anchor="start" x="1181.5" y="-45.2" font-family="Helvetica,sans-Serif" font-size="11.00">0 &gt;</text>
<polygon fill="none" stroke="black" stroke-width="2" points="955,-38 955,-410 1202,-410 1202,-38 955,-38"/>
</a>
</g>
</g>
<!-- users -->
<g id="node2" class="node"><title>users</title>
<g id="a_node2"><a xlink:href="../../tables/users.html" xlink:title="users" target="_top">
<polygon fill="#ffffff" stroke="none" points="166,-93 166,-239 354,-239 354,-93 166,-93"/>
<polygon fill="#f5f5f5" stroke="none" points="166,-217 166,-239 354,-239 354,-217 166,-217"/>
<polygon fill="none" stroke="black" points="166,-217 166,-239 354,-239 354,-217 166,-217"/>
<text text-anchor="start" x="171" y="-226.2" font-family="Helvetica,sans-Serif" font-weight="bold" font-size="11.00">users</text>
<text text-anchor="start" x="315" y="-225.2" font-family="Helvetica,sans-Serif" font-size="11.00">[table]</text>
<polygon fill="none" stroke="black" points="166,-195 166,-217 354,-217 354,-195 166,-195"/>
<image xlink:href="../../images/primaryKeys.png" width="11px" height="12px" preserveAspectRatio="xMinYMin meet" x="171" y="-212"/>
<text text-anchor="start" x="186" y="-203.2" font-family="Helvetica,sans-Serif" font-size="11.00">id</text>
<polygon fill="#ffffff" stroke="none" points="166,-173 166,-195 354,-195 354,-173 166,-173"/>
<polygon fill="none" stroke="black" points="166,-173 166,-195 354,-195 354,-173 166,-173"/>
<text text-anchor="start" x="186" y="-181.2" font-family="Helvetica,sans-Serif" font-size="11.00">auth_id</text>
<polygon fill="#ffffff" stroke="none" points="166,-151 166,-173 354,-173 354,-151 166,-151"/>
<polygon fill="none" stroke="black" points="166,-151 166,-173 354,-173 354,-151 166,-151"/>
<text text-anchor="start" x="186" y="-159.2" font-family="Helvetica,sans-Serif" font-size="11.00">email</text>
<polygon fill="none" stroke="black" points="166,-129 166,-151 354,-151 354,-129 166,-129"/>
<image xlink:href="../../images/foreignKeys.png" width="11px" height="12px" preserveAspectRatio="xMinYMin meet" x="171" y="-146"/>
<text text-anchor="start" x="186" y="-137.2" font-family="Helvetica,sans-Serif" font-size="11.00">user_type_id</text>
<polygon fill="none" stroke="black" points="166,-111 166,-129 354,-129 354,-111 166,-111"/>
<text text-anchor="start" x="169" y="-117.2" font-family="Helvetica,sans-Serif" font-size="11.00">...</text>
<polygon fill="#ffffff" stroke="none" points="166,-93 166,-111 238,-111 238,-93 166,-93"/>
<polygon fill="none" stroke="black" points="166,-93 166,-111 238,-111 238,-93 166,-93"/>
<text text-anchor="start" x="169" y="-99.2" font-family="Helvetica,sans-Serif" font-size="11.00">&lt; 1</text>
<polygon fill="#ffffff" stroke="none" points="238,-93 238,-111 299,-111 299,-93 238,-93"/>
<polygon fill="none" stroke="black" points="238,-93 238,-111 299,-111 299,-93 238,-93"/>
<text text-anchor="start" x="265" y="-99.2" font-family="Helvetica,sans-Serif" font-size="11.00">1 row</text>
<polygon fill="#ffffff" stroke="none" points="299,-93 299,-111 354,-111 354,-93 299,-93"/>
<polygon fill="none" stroke="black" points="299,-93 299,-111 354,-111 354,-93 299,-93"/>
<text text-anchor="start" x="327" y="-99.2" font-family="Helvetica,sans-Serif" font-size="11.00">15 &gt;</text>
</a>
</g>
</g>
<!-- facilities&#45;&gt;users -->
<g id="edge1" class="edge"><title>facilities:created_by:w&#45;&gt;users:id:e</title>
<path fill="none" stroke="black" d="M940.988,-178.188C855.784,-180.448 830.94,-202.451 739,-209 568.759,-221.126 525.672,-206 355,-206"/>
<polygon fill="black" stroke="black" points="947.501,-178.104 955.547,-181.6 951.5,-178.052 955.5,-178 955.5,-178 955.5,-178 951.5,-178.052 955.453,-174.4 947.501,-178.104 947.501,-178.104"/>
<ellipse fill="none" stroke="black" cx="944.301" cy="-178.145" rx="3.2" ry="3.2"/>
</g>
<!-- facilities&#45;&gt;users -->
<g id="edge2" class="edge"><title>facilities:modified_by:w&#45;&gt;users:id:e</title>
<path fill="none" stroke="black" d="M941.464,-152.23C922.49,-138.453 943.352,-90.6593 913,-72 859.614,-39.1809 834.546,-68.1163 772,-72 603.472,-82.4646 531.245,-19.2571 395,-119 360.661,-144.139 397.558,-206 355,-206"/>
<polygon fill="black" stroke="black" points="947.774,-153.925 954.566,-159.477 951.637,-154.962 955.5,-156 955.5,-156 955.5,-156 951.637,-154.962 956.434,-152.523 947.774,-153.925 947.774,-153.925"/>
<ellipse fill="none" stroke="black" cx="944.683" cy="-153.095" rx="3.2" ry="3.2"/>
</g>
<!-- sites -->
<g id="node3" class="node"><title>sites</title>
<g id="a_node3"><a xlink:href="../../tables/sites.html" xlink:title="sites" target="_top">
<polygon fill="#ffffff" stroke="none" points="789,-345 789,-491 896,-491 896,-345 789,-345"/>
<polygon fill="#f5f5f5" stroke="none" points="789.5,-469 789.5,-491 896.5,-491 896.5,-469 789.5,-469"/>
<polygon fill="none" stroke="black" points="789.5,-469 789.5,-491 896.5,-491 896.5,-469 789.5,-469"/>
<text text-anchor="start" x="794.5" y="-478.2" font-family="Helvetica,sans-Serif" font-weight="bold" font-size="11.00">sites</text>
<text text-anchor="start" x="857.5" y="-477.2" font-family="Helvetica,sans-Serif" font-size="11.00">[table]</text>
<polygon fill="none" stroke="black" points="789.5,-447 789.5,-469 896.5,-469 896.5,-447 789.5,-447"/>
<image xlink:href="../../images/primaryKeys.png" width="11px" height="12px" preserveAspectRatio="xMinYMin meet" x="794.5" y="-464"/>
<text text-anchor="start" x="809.5" y="-455.2" font-family="Helvetica,sans-Serif" font-size="11.00">id</text>
<polygon fill="none" stroke="black" points="789.5,-425 789.5,-447 896.5,-447 896.5,-425 789.5,-425"/>
<image xlink:href="../../images/foreignKeys.png" width="11px" height="12px" preserveAspectRatio="xMinYMin meet" x="794.5" y="-442"/>
<text text-anchor="start" x="809.5" y="-433.2" font-family="Helvetica,sans-Serif" font-size="11.00">project_id</text>
<polygon fill="none" stroke="black" points="789.5,-403 789.5,-425 896.5,-425 896.5,-403 789.5,-403"/>
<image xlink:href="../../images/foreignKeys.png" width="11px" height="12px" preserveAspectRatio="xMinYMin meet" x="794.5" y="-420"/>
<text text-anchor="start" x="809.5" y="-411.2" font-family="Helvetica,sans-Serif" font-size="11.00">created_by</text>
<polygon fill="none" stroke="black" points="789.5,-381 789.5,-403 896.5,-403 896.5,-381 789.5,-381"/>
<image xlink:href="../../images/foreignKeys.png" width="11px" height="12px" preserveAspectRatio="xMinYMin meet" x="794.5" y="-398"/>
<text text-anchor="start" x="809.5" y="-389.2" font-family="Helvetica,sans-Serif" font-size="11.00">modified_by</text>
<polygon fill="none" stroke="black" points="789.5,-363 789.5,-381 896.5,-381 896.5,-363 789.5,-363"/>
<text text-anchor="start" x="792.5" y="-369.2" font-family="Helvetica,sans-Serif" font-size="11.00">...</text>
<polygon fill="#ffffff" stroke="none" points="789.5,-345 789.5,-363 821.5,-363 821.5,-345 789.5,-345"/>
<polygon fill="none" stroke="black" points="789.5,-345 789.5,-363 821.5,-363 821.5,-345 789.5,-345"/>
<text text-anchor="start" x="792.5" y="-351.2" font-family="Helvetica,sans-Serif" font-size="11.00">&lt; 3</text>
<polygon fill="#ffffff" stroke="none" points="821.5,-345 821.5,-363 868.5,-363 868.5,-345 821.5,-345"/>
<polygon fill="none" stroke="black" points="821.5,-345 821.5,-363 868.5,-363 868.5,-345 821.5,-345"/>
<text text-anchor="start" x="829.5" y="-351.2" font-family="Helvetica,sans-Serif" font-size="11.00">0 rows</text>
<polygon fill="#ffffff" stroke="none" points="868.5,-345 868.5,-363 896.5,-363 896.5,-345 868.5,-345"/>
<polygon fill="none" stroke="black" points="868.5,-345 868.5,-363 896.5,-363 896.5,-345 868.5,-345"/>
<text text-anchor="start" x="876.5" y="-351.2" font-family="Helvetica,sans-Serif" font-size="11.00">1 &gt;</text>
</a>
</g>
</g>
<!-- facilities&#45;&gt;sites -->
<g id="edge3" class="edge"><title>facilities:site_id:w&#45;&gt;sites:id:e</title>
<path fill="none" stroke="black" d="M941.487,-357.46C911.837,-375.506 944.636,-458 897.5,-458"/>
<polygon fill="black" stroke="black" points="947.733,-355.918 956.363,-357.495 951.617,-354.959 955.5,-354 955.5,-354 955.5,-354 951.617,-354.959 954.637,-350.505 947.733,-355.918 947.733,-355.918"/>
<ellipse fill="none" stroke="black" cx="944.627" cy="-356.685" rx="3.2" ry="3.2"/>
</g>
<!-- facility_types -->
<g id="node4" class="node"><title>facility_types</title>
<g id="a_node4"><a xlink:href="../../tables/facility_types.html" xlink:title="facility_types" target="_top">
<polygon fill="#ffffff" stroke="none" points="780,-244 780,-324 905,-324 905,-244 780,-244"/>
<polygon fill="#f5f5f5" stroke="none" points="780.5,-302 780.5,-324 905.5,-324 905.5,-302 780.5,-302"/>
<polygon fill="none" stroke="black" points="780.5,-302 780.5,-324 905.5,-324 905.5,-302 780.5,-302"/>
<text text-anchor="start" x="785.5" y="-311.2" font-family="Helvetica,sans-Serif" font-weight="bold" font-size="11.00">facility_types</text>
<text text-anchor="start" x="866.5" y="-310.2" font-family="Helvetica,sans-Serif" font-size="11.00">[table]</text>
<polygon fill="none" stroke="black" points="780.5,-280 780.5,-302 905.5,-302 905.5,-280 780.5,-280"/>
<image xlink:href="../../images/primaryKeys.png" width="11px" height="12px" preserveAspectRatio="xMinYMin meet" x="785.5" y="-297"/>
<text text-anchor="start" x="813.5" y="-288.2" font-family="Helvetica,sans-Serif" font-size="11.00">id</text>
<polygon fill="none" stroke="black" points="780.5,-262 780.5,-280 905.5,-280 905.5,-262 780.5,-262"/>
<text text-anchor="start" x="783.5" y="-268.2" font-family="Helvetica,sans-Serif" font-size="11.00">...</text>
<polygon fill="#ffffff" stroke="none" points="780.5,-244 780.5,-262 816.5,-262 816.5,-244 780.5,-244"/>
<polygon fill="none" stroke="black" points="780.5,-244 780.5,-262 816.5,-262 816.5,-244 780.5,-244"/>
<text text-anchor="start" x="783.5" y="-250.2" font-family="Helvetica,sans-Serif" font-size="11.00"> &#160;</text>
<polygon fill="#ffffff" stroke="none" points="816.5,-244 816.5,-262 870.5,-262 870.5,-244 816.5,-244"/>
<polygon fill="none" stroke="black" points="816.5,-244 816.5,-262 870.5,-262 870.5,-244 816.5,-244"/>
<text text-anchor="start" x="831.5" y="-250.2" font-family="Helvetica,sans-Serif" font-size="11.00">3 rows</text>
<polygon fill="#ffffff" stroke="none" points="870.5,-244 870.5,-262 905.5,-262 905.5,-244 870.5,-244"/>
<polygon fill="none" stroke="black" points="870.5,-244 870.5,-262 905.5,-262 905.5,-244 870.5,-244"/>
<text text-anchor="start" x="885.5" y="-250.2" font-family="Helvetica,sans-Serif" font-size="11.00">1 &gt;</text>
</a>
</g>
</g>
<!-- facilities&#45;&gt;facility_types -->
<g id="edge4" class="edge"><title>facilities:type_id:w&#45;&gt;facility_types:id:e</title>
<path fill="none" stroke="black" d="M941.682,-327.297C928.781,-316.527 928.906,-291 906.5,-291"/>
<polygon fill="black" stroke="black" points="947.927,-329.422 954.34,-335.408 951.713,-330.711 955.5,-332 955.5,-332 955.5,-332 951.713,-330.711 956.66,-328.592 947.927,-329.422 947.927,-329.422"/>
<ellipse fill="none" stroke="black" cx="944.897" cy="-328.391" rx="3.20001" ry="3.20001"/>
</g>
<!-- user_types -->
<g id="node9" class="node"><title>user_types</title>
<g id="a_node9"><a xlink:href="../../tables/user_types.html" xlink:title="user_types" target="_top">
<polygon fill="#ffffff" stroke="none" points="8,-113 8,-171 117,-171 117,-113 8,-113"/>
<polygon fill="#f5f5f5" stroke="none" points="8.5,-149 8.5,-171 117.5,-171 117.5,-149 8.5,-149"/>
<polygon fill="none" stroke="black" points="8.5,-149 8.5,-171 117.5,-171 117.5,-149 8.5,-149"/>
<text text-anchor="start" x="13.5" y="-158.2" font-family="Helvetica,sans-Serif" font-weight="bold" font-size="11.00">user_types</text>
<text text-anchor="start" x="78.5" y="-157.2" font-family="Helvetica,sans-Serif" font-size="11.00">[table]</text>
<polygon fill="none" stroke="black" points="8.5,-131 8.5,-149 117.5,-149 117.5,-131 8.5,-131"/>
<text text-anchor="start" x="11.5" y="-137.2" font-family="Helvetica,sans-Serif" font-size="11.00">...</text>
<polygon fill="#ffffff" stroke="none" points="8.5,-113 8.5,-131 36.5,-131 36.5,-113 8.5,-113"/>
<polygon fill="none" stroke="black" points="8.5,-113 8.5,-131 36.5,-131 36.5,-113 8.5,-113"/>
<text text-anchor="start" x="11.5" y="-119.2" font-family="Helvetica,sans-Serif" font-size="11.00"> &#160;</text>
<polygon fill="#ffffff" stroke="none" points="36.5,-113 36.5,-131 86.5,-131 86.5,-113 36.5,-113"/>
<polygon fill="none" stroke="black" points="36.5,-113 36.5,-131 86.5,-131 86.5,-113 36.5,-113"/>
<text text-anchor="start" x="47.5" y="-119.2" font-family="Helvetica,sans-Serif" font-size="11.00">4 rows</text>
<polygon fill="#ffffff" stroke="none" points="86.5,-113 86.5,-131 117.5,-131 117.5,-113 86.5,-113"/>
<polygon fill="none" stroke="black" points="86.5,-113 86.5,-131 117.5,-131 117.5,-113 86.5,-113"/>
<text text-anchor="start" x="97.5" y="-119.2" font-family="Helvetica,sans-Serif" font-size="11.00">1 &gt;</text>
</a>
</g>
</g>
<!-- users&#45;&gt;user_types -->
<g id="edge22" class="edge"><title>users:user_type_id:w&#45;&gt;user_types:elipses:e</title>
<path fill="none" stroke="black" d="M150.551,-140C140.201,-140 133.354,-140 118.5,-140"/>
<polygon fill="black" stroke="black" points="157,-140 165,-143.6 161,-140 165,-140 165,-140 165,-140 161,-140 165,-136.4 157,-140 157,-140"/>
<ellipse fill="none" stroke="black" cx="153.8" cy="-140" rx="3.2" ry="3.2"/>
</g>
<!-- sites&#45;&gt;users -->
<g id="edge19" class="edge"><title>sites:created_by:w&#45;&gt;users:id:e</title>
<path fill="none" stroke="black" d="M773.829,-414.212C608.446,-418.987 524.301,-501.716 395,-391 331.102,-336.286 439.122,-206 355,-206"/>
<polygon fill="black" stroke="black" points="780.501,-414.116 788.552,-417.6 784.5,-414.058 788.5,-414 788.5,-414 788.5,-414 784.5,-414.058 788.448,-410.4 780.501,-414.116 780.501,-414.116"/>
<ellipse fill="none" stroke="black" cx="777.301" cy="-414.162" rx="3.2" ry="3.2"/>
</g>
<!-- sites&#45;&gt;users -->
<g id="edge20" class="edge"><title>sites:modified_by:w&#45;&gt;users:id:e</title>
<path fill="none" stroke="black" d="M773.912,-391.997C676.288,-391.909 457.806,-389.631 395,-334 350.384,-294.481 414.602,-206 355,-206"/>
<polygon fill="black" stroke="black" points="780.5,-391.998 788.499,-395.6 784.5,-391.999 788.5,-392 788.5,-392 788.5,-392 784.5,-391.999 788.501,-388.4 780.5,-391.998 780.5,-391.998"/>
<ellipse fill="none" stroke="black" cx="777.3" cy="-391.998" rx="3.2" ry="3.2"/>
</g>
<!-- projects -->
<g id="node8" class="node"><title>projects</title>
<g id="a_node8"><a xlink:href="../../tables/projects.html" xlink:title="projects" target="_top">
<polygon fill="#ffffff" stroke="none" points="606.5,-297 606.5,-355 701.5,-355 701.5,-297 606.5,-297"/>
<polygon fill="#f5f5f5" stroke="none" points="607,-333 607,-355 702,-355 702,-333 607,-333"/>
<polygon fill="none" stroke="black" points="607,-333 607,-355 702,-355 702,-333 607,-333"/>
<text text-anchor="start" x="612" y="-342.2" font-family="Helvetica,sans-Serif" font-weight="bold" font-size="11.00">projects</text>
<text text-anchor="start" x="663" y="-341.2" font-family="Helvetica,sans-Serif" font-size="11.00">[table]</text>
<polygon fill="none" stroke="black" points="607,-315 607,-333 702,-333 702,-315 607,-315"/>
<text text-anchor="start" x="610" y="-321.2" font-family="Helvetica,sans-Serif" font-size="11.00">...</text>
<polygon fill="#ffffff" stroke="none" points="607,-297 607,-315 633,-315 633,-297 607,-297"/>
<polygon fill="none" stroke="black" points="607,-297 607,-315 633,-315 633,-297 607,-297"/>
<text text-anchor="start" x="610" y="-303.2" font-family="Helvetica,sans-Serif" font-size="11.00">&lt; 5</text>
<polygon fill="#ffffff" stroke="none" points="633,-297 633,-315 677,-315 677,-297 633,-297"/>
<polygon fill="none" stroke="black" points="633,-297 633,-315 677,-315 677,-297 633,-297"/>
<text text-anchor="start" x="638" y="-303.2" font-family="Helvetica,sans-Serif" font-size="11.00">0 rows</text>
<polygon fill="#ffffff" stroke="none" points="677,-297 677,-315 702,-315 702,-297 677,-297"/>
<polygon fill="none" stroke="black" points="677,-297 677,-315 702,-315 702,-297 677,-297"/>
<text text-anchor="start" x="682" y="-303.2" font-family="Helvetica,sans-Serif" font-size="11.00">3 &gt;</text>
</a>
</g>
</g>
<!-- sites&#45;&gt;projects -->
<g id="edge21" class="edge"><title>sites:project_id:w&#45;&gt;projects:elipses:e</title>
<path fill="none" stroke="black" d="M774.221,-433.557C732.072,-417.178 760.12,-324 703,-324"/>
<polygon fill="black" stroke="black" points="780.615,-434.651 787.893,-439.548 784.557,-435.325 788.5,-436 788.5,-436 788.5,-436 784.557,-435.325 789.107,-432.452 780.615,-434.651 780.615,-434.651"/>
<ellipse fill="none" stroke="black" cx="777.46" cy="-434.111" rx="3.2" ry="3.2"/>
</g>
<!-- organization_users -->
<g id="node5" class="node"><title>organization_users</title>
<g id="a_node5"><a xlink:href="../../tables/organization_users.html" xlink:title="organization_users" target="_top">
<polygon fill="#ffffff" stroke="none" points="577,-140 577,-198 731,-198 731,-140 577,-140"/>
<polygon fill="#f5f5f5" stroke="none" points="577,-176 577,-198 731,-198 731,-176 577,-176"/>
<polygon fill="none" stroke="black" points="577,-176 577,-198 731,-198 731,-176 577,-176"/>
<text text-anchor="start" x="582" y="-185.2" font-family="Helvetica,sans-Serif" font-weight="bold" font-size="11.00">organization_users</text>
<text text-anchor="start" x="692" y="-184.2" font-family="Helvetica,sans-Serif" font-size="11.00">[table]</text>
<polygon fill="none" stroke="black" points="577,-158 577,-176 731,-176 731,-158 577,-158"/>
<text text-anchor="start" x="580" y="-164.2" font-family="Helvetica,sans-Serif" font-size="11.00">...</text>
<polygon fill="#ffffff" stroke="none" points="577,-140 577,-158 638,-158 638,-140 577,-140"/>
<polygon fill="none" stroke="black" points="577,-140 577,-158 638,-158 638,-140 577,-140"/>
<text text-anchor="start" x="580" y="-146.2" font-family="Helvetica,sans-Serif" font-size="11.00">&lt; 5</text>
<polygon fill="#ffffff" stroke="none" points="638,-140 638,-158 699,-158 699,-140 638,-140"/>
<polygon fill="none" stroke="black" points="638,-140 638,-158 699,-158 699,-140 638,-140"/>
<text text-anchor="start" x="660" y="-146.2" font-family="Helvetica,sans-Serif" font-size="11.00">0 rows</text>
<polygon fill="#ffffff" stroke="none" points="699,-140 699,-158 731,-158 731,-140 699,-140"/>
<polygon fill="none" stroke="black" points="699,-140 699,-158 731,-158 731,-140 699,-140"/>
<text text-anchor="start" x="721" y="-146.2" font-family="Helvetica,sans-Serif" font-size="11.00"> &#160;</text>
</a>
</g>
</g>
<!-- organization_users&#45;&gt;users -->
<g id="edge5" class="edge"><title>organization_users:elipses:w&#45;&gt;users:id:e</title>
<path fill="none" stroke="black" d="M561.418,-167.146C491.83,-168.597 469.827,-180.682 395,-196 377.047,-199.675 373.325,-206 355,-206"/>
<polygon fill="black" stroke="black" points="568,-167.08 576.036,-170.6 572,-167.04 576,-167 576,-167 576,-167 572,-167.04 575.964,-163.4 568,-167.08 568,-167.08"/>
<ellipse fill="none" stroke="black" cx="564.801" cy="-167.112" rx="3.2" ry="3.2"/>
</g>
<!-- organization_users&#45;&gt;users -->
<g id="edge6" class="edge"><title>organization_users:elipses:w&#45;&gt;users:id:e</title>
<path fill="none" stroke="black" d="M561.529,-166.863C513.353,-171.047 365.763,-200.82 355,-206"/>
<polygon fill="black" stroke="black" points="568,-166.924 575.966,-170.6 572,-166.962 576,-167 576,-167 576,-167 572,-166.962 576.034,-163.4 568,-166.924 568,-166.924"/>
<ellipse fill="none" stroke="black" cx="564.801" cy="-166.894" rx="3.2" ry="3.2"/>
</g>
<!-- organization_users&#45;&gt;users -->
<g id="edge8" class="edge"><title>organization_users:elipses:w&#45;&gt;users:id:e</title>
<path fill="none" stroke="black" d="M562.177,-171.3C514.691,-183.548 365.812,-212.07 355,-206"/>
<polygon fill="black" stroke="black" points="568.361,-169.376 577.069,-170.438 572.181,-168.188 576,-167 576,-167 576,-167 572.181,-168.188 574.931,-163.562 568.361,-169.376 568.361,-169.376"/>
<ellipse fill="none" stroke="black" cx="565.305" cy="-170.327" rx="3.20001" ry="3.20001"/>
</g>
<!-- organizations -->
<g id="node6" class="node"><title>organizations</title>
<g id="a_node6"><a xlink:href="../../tables/organizations.html" xlink:title="organizations" target="_top">
<polygon fill="#ffffff" stroke="none" points="403,-230 403,-288 528,-288 528,-230 403,-230"/>
<polygon fill="#f5f5f5" stroke="none" points="403.5,-266 403.5,-288 528.5,-288 528.5,-266 403.5,-266"/>
<polygon fill="none" stroke="black" points="403.5,-266 403.5,-288 528.5,-288 528.5,-266 403.5,-266"/>
<text text-anchor="start" x="408.5" y="-275.2" font-family="Helvetica,sans-Serif" font-weight="bold" font-size="11.00">organizations</text>
<text text-anchor="start" x="489.5" y="-274.2" font-family="Helvetica,sans-Serif" font-size="11.00">[table]</text>
<polygon fill="none" stroke="black" points="403.5,-248 403.5,-266 528.5,-266 528.5,-248 403.5,-248"/>
<text text-anchor="start" x="406.5" y="-254.2" font-family="Helvetica,sans-Serif" font-size="11.00">...</text>
<polygon fill="#ffffff" stroke="none" points="403.5,-230 403.5,-248 444.5,-248 444.5,-230 403.5,-230"/>
<polygon fill="none" stroke="black" points="403.5,-230 403.5,-248 444.5,-248 444.5,-230 403.5,-230"/>
<text text-anchor="start" x="406.5" y="-236.2" font-family="Helvetica,sans-Serif" font-size="11.00">&lt; 4</text>
<polygon fill="#ffffff" stroke="none" points="444.5,-230 444.5,-248 495.5,-248 495.5,-230 444.5,-230"/>
<polygon fill="none" stroke="black" points="444.5,-230 444.5,-248 495.5,-248 495.5,-230 444.5,-230"/>
<text text-anchor="start" x="456.5" y="-236.2" font-family="Helvetica,sans-Serif" font-size="11.00">0 rows</text>
<polygon fill="#ffffff" stroke="none" points="495.5,-230 495.5,-248 528.5,-248 528.5,-230 495.5,-230"/>
<polygon fill="none" stroke="black" points="495.5,-230 495.5,-248 528.5,-248 528.5,-230 495.5,-230"/>
<text text-anchor="start" x="508.5" y="-236.2" font-family="Helvetica,sans-Serif" font-size="11.00">2 &gt;</text>
</a>
</g>
</g>
<!-- organization_users&#45;&gt;organizations -->
<g id="edge7" class="edge"><title>organization_users:elipses:w&#45;&gt;organizations:elipses:e</title>
<path fill="none" stroke="black" d="M562.047,-171.587C541.228,-189.927 568.368,-257 529.5,-257"/>
<polygon fill="black" stroke="black" points="568.4,-169.498 577.124,-170.42 572.2,-168.249 576,-167 576,-167 576,-167 572.2,-168.249 574.876,-163.58 568.4,-169.498 568.4,-169.498"/>
<ellipse fill="none" stroke="black" cx="565.36" cy="-170.498" rx="3.20001" ry="3.20001"/>
</g>
<!-- organizations&#45;&gt;users -->
<g id="edge9" class="edge"><title>organizations:elipses:w&#45;&gt;users:id:e</title>
<path fill="none" stroke="black" d="M389.675,-249.999C375.251,-234.512 380.409,-201.078 355,-206"/>
<polygon fill="black" stroke="black" points="395.478,-253.167 400.775,-260.16 398.989,-255.083 402.5,-257 402.5,-257 402.5,-257 398.989,-255.083 404.225,-253.84 395.478,-253.167 395.478,-253.167"/>
<ellipse fill="none" stroke="black" cx="392.67" cy="-251.633" rx="3.20001" ry="3.20001"/>
</g>
<!-- organizations&#45;&gt;users -->
<g id="edge10" class="edge"><title>organizations:elipses:w&#45;&gt;users:id:e</title>
<path fill="none" stroke="black" d="M388.109,-254.645C375.6,-244.442 379.441,-211.523 355,-206"/>
<polygon fill="black" stroke="black" points="394.605,-255.708 401.919,-260.553 398.553,-256.354 402.5,-257 402.5,-257 402.5,-257 398.553,-256.354 403.081,-253.447 394.605,-255.708 394.605,-255.708"/>
<ellipse fill="none" stroke="black" cx="391.447" cy="-255.191" rx="3.2" ry="3.2"/>
</g>
<!-- project_users -->
<g id="node7" class="node"><title>project_users</title>
<g id="a_node7"><a xlink:href="../../tables/project_users.html" xlink:title="project_users" target="_top">
<polygon fill="#ffffff" stroke="none" points="780.5,-83 780.5,-141 904.5,-141 904.5,-83 780.5,-83"/>
<polygon fill="#f5f5f5" stroke="none" points="780.5,-119 780.5,-141 904.5,-141 904.5,-119 780.5,-119"/>
<polygon fill="none" stroke="black" points="780.5,-119 780.5,-141 904.5,-141 904.5,-119 780.5,-119"/>
<text text-anchor="start" x="785.5" y="-128.2" font-family="Helvetica,sans-Serif" font-weight="bold" font-size="11.00">project_users</text>
<text text-anchor="start" x="865.5" y="-127.2" font-family="Helvetica,sans-Serif" font-size="11.00">[table]</text>
<polygon fill="none" stroke="black" points="780.5,-101 780.5,-119 904.5,-119 904.5,-101 780.5,-101"/>
<text text-anchor="start" x="783.5" y="-107.2" font-family="Helvetica,sans-Serif" font-size="11.00">...</text>
<polygon fill="#ffffff" stroke="none" points="780.5,-83 780.5,-101 826.5,-101 826.5,-83 780.5,-83"/>
<polygon fill="none" stroke="black" points="780.5,-83 780.5,-101 826.5,-101 826.5,-83 780.5,-83"/>
<text text-anchor="start" x="783.5" y="-89.2" font-family="Helvetica,sans-Serif" font-size="11.00">&lt; 4</text>
<polygon fill="#ffffff" stroke="none" points="826.5,-83 826.5,-101 879.5,-101 879.5,-83 826.5,-83"/>
<polygon fill="none" stroke="black" points="826.5,-83 826.5,-101 879.5,-101 879.5,-83 826.5,-83"/>
<text text-anchor="start" x="840.5" y="-89.2" font-family="Helvetica,sans-Serif" font-size="11.00">0 rows</text>
<polygon fill="#ffffff" stroke="none" points="879.5,-83 879.5,-101 904.5,-101 904.5,-83 879.5,-83"/>
<polygon fill="none" stroke="black" points="879.5,-83 879.5,-101 904.5,-101 904.5,-83 879.5,-83"/>
<text text-anchor="start" x="894.5" y="-89.2" font-family="Helvetica,sans-Serif" font-size="11.00"> &#160;</text>
</a>
</g>
</g>
<!-- project_users&#45;&gt;users -->
<g id="edge11" class="edge"><title>project_users:elipses:w&#45;&gt;users:id:e</title>
<path fill="none" stroke="black" d="M765.077,-109.954C603.165,-108.937 543.903,-92.0791 395,-170 373.809,-181.089 378.918,-206 355,-206"/>
<polygon fill="black" stroke="black" points="771.5,-109.975 779.489,-113.6 775.5,-109.987 779.5,-110 779.5,-110 779.5,-110 775.5,-109.987 779.511,-106.4 771.5,-109.975 771.5,-109.975"/>
<ellipse fill="none" stroke="black" cx="768.3" cy="-109.964" rx="3.2" ry="3.2"/>
</g>
<!-- project_users&#45;&gt;users -->
<g id="edge12" class="edge"><title>project_users:elipses:w&#45;&gt;users:id:e</title>
<path fill="none" stroke="black" d="M765.058,-109.474C602.99,-103.307 545.543,-92.6796 395,-168 374.64,-178.187 377.767,-200 355,-206"/>
<polygon fill="black" stroke="black" points="771.505,-109.709 779.369,-113.598 775.503,-109.854 779.5,-110 779.5,-110 779.5,-110 775.503,-109.854 779.631,-106.402 771.505,-109.709 771.505,-109.709"/>
<ellipse fill="none" stroke="black" cx="768.307" cy="-109.593" rx="3.2" ry="3.2"/>
</g>
<!-- project_users&#45;&gt;users -->
<g id="edge14" class="edge"><title>project_users:elipses:w&#45;&gt;users:id:e</title>
<path fill="none" stroke="black" d="M765.058,-110.548C602.99,-116.307 545.543,-105.68 395,-181 374.64,-191.187 377.767,-213 355,-206"/>
<polygon fill="black" stroke="black" points="771.506,-110.303 779.636,-113.597 775.503,-110.152 779.5,-110 779.5,-110 779.5,-110 775.503,-110.152 779.364,-106.403 771.506,-110.303 771.506,-110.303"/>
<ellipse fill="none" stroke="black" cx="768.308" cy="-110.425" rx="3.2" ry="3.2"/>
</g>
<!-- project_users&#45;&gt;projects -->
<g id="edge13" class="edge"><title>project_users:elipses:w&#45;&gt;projects:elipses:e</title>
<path fill="none" stroke="black" d="M766.276,-116.174C733.201,-151.261 748.374,-324 703,-324"/>
<polygon fill="black" stroke="black" points="772.251,-113.384 781.023,-113.262 775.876,-111.692 779.5,-110 779.5,-110 779.5,-110 775.876,-111.692 777.977,-106.738 772.251,-113.384 772.251,-113.384"/>
<ellipse fill="none" stroke="black" cx="769.352" cy="-114.738" rx="3.20001" ry="3.20001"/>
</g>
<!-- projects&#45;&gt;users -->
<g id="edge15" class="edge"><title>projects:elipses:w&#45;&gt;users:id:e</title>
<path fill="none" stroke="black" d="M591.494,-324.245C507.157,-327.077 466.683,-352.513 395,-299 358.944,-272.084 399.994,-206 355,-206"/>
<polygon fill="black" stroke="black" points="598.001,-324.135 606.061,-327.599 602.001,-324.068 606,-324 606,-324 606,-324 602.001,-324.068 605.939,-320.401 598.001,-324.135 598.001,-324.135"/>
<ellipse fill="none" stroke="black" cx="594.802" cy="-324.189" rx="3.2" ry="3.2"/>
</g>
<!-- projects&#45;&gt;users -->
<g id="edge16" class="edge"><title>projects:elipses:w&#45;&gt;users:id:e</title>
<path fill="none" stroke="black" d="M591.463,-323.315C506.965,-320.689 466.788,-342.729 395,-289 360.28,-263.015 398.367,-200 355,-206"/>
<polygon fill="black" stroke="black" points="598.009,-323.623 605.83,-327.596 602.004,-323.812 606,-324 606,-324 606,-324 602.004,-323.812 606.17,-320.404 598.009,-323.623 598.009,-323.623"/>
<ellipse fill="none" stroke="black" cx="594.812" cy="-323.473" rx="3.2" ry="3.2"/>
</g>
<!-- projects&#45;&gt;users -->
<g id="edge18" class="edge"><title>projects:elipses:w&#45;&gt;users:id:e</title>
<path fill="none" stroke="black" d="M591.463,-325.265C506.965,-333.689 466.788,-355.729 395,-302 360.28,-276.015 398.367,-213 355,-206"/>
<polygon fill="black" stroke="black" points="598.03,-324.694 606.312,-327.586 602.015,-324.347 606,-324 606,-324 606,-324 602.015,-324.347 605.688,-320.414 598.03,-324.694 598.03,-324.694"/>
<ellipse fill="none" stroke="black" cx="594.842" cy="-324.971" rx="3.2" ry="3.2"/>
</g>
<!-- projects&#45;&gt;organizations -->
<g id="edge17" class="edge"><title>projects:elipses:w&#45;&gt;organizations:elipses:e</title>
<path fill="none" stroke="black" d="M591.59,-321.121C563.354,-308.297 569.047,-257 529.5,-257"/>
<polygon fill="black" stroke="black" points="598.155,-322.433 605.295,-327.53 602.078,-323.216 606,-324 606,-324 606,-324 602.078,-323.216 606.705,-320.47 598.155,-322.433 598.155,-322.433"/>
<ellipse fill="none" stroke="black" cx="595.017" cy="-321.806" rx="3.2" ry="3.2"/>
</g>
</g>
</svg>
