<?xml version="1.0" encoding="UTF-8" standalone="no"?>
<!DOCTYPE svg PUBLIC "-//W3C//DTD SVG 1.1//EN"
 "http://www.w3.org/Graphics/SVG/1.1/DTD/svg11.dtd">
<!-- Generated by graphviz version 2.38.0 (20140413.2041)
 -->
<!-- Title: twoDegreesRelationshipsDiagram Pages: 1 -->
<svg width="1081pt" height="588pt"
 viewBox="0.00 0.00 1081.00 587.80" xmlns="http://www.w3.org/2000/svg" xmlns:xlink="http://www.w3.org/1999/xlink">
<g id="graph0" class="graph" transform="scale(1 1) rotate(0) translate(4 583.801)">
<title>twoDegreesRelationshipsDiagram</title>
<polygon fill="#ffffff" stroke="none" points="-4,4 -4,-583.801 1077,-583.801 1077,4 -4,4"/>
<text text-anchor="middle" x="74.5" y="-7.2" font-family="Helvetica,sans-Serif" font-size="11.00">Generated by SchemaSpy</text>
<!-- country_subdivisions -->
<g id="node1" class="node"><title>country_subdivisions</title>
<g id="a_node1"><a xlink:href="../../tables/country_subdivisions.html" xlink:title="country_subdivisions" target="_top">
<polygon fill="#ffffff" stroke="none" points="175.5,-245 175.5,-303 344.5,-303 344.5,-245 175.5,-245"/>
<polygon fill="#f5f5f5" stroke="none" points="176,-281 176,-303 345,-303 345,-281 176,-281"/>
<polygon fill="none" stroke="black" points="176,-281 176,-303 345,-303 345,-281 176,-281"/>
<text text-anchor="start" x="181" y="-290.2" font-family="Helvetica,sans-Serif" font-weight="bold" font-size="11.00">country_subdivisions</text>
<text text-anchor="start" x="306" y="-289.2" font-family="Helvetica,sans-Serif" font-size="11.00">[table]</text>
<polygon fill="none" stroke="black" points="176,-263 176,-281 345,-281 345,-263 176,-263"/>
<text text-anchor="start" x="179" y="-269.2" font-family="Helvetica,sans-Serif" font-size="11.00">...</text>
<polygon fill="#ffffff" stroke="none" points="176,-245 176,-263 236,-263 236,-245 176,-245"/>
<polygon fill="none" stroke="black" points="176,-245 176,-263 236,-263 236,-245 176,-245"/>
<text text-anchor="start" x="179" y="-251.2" font-family="Helvetica,sans-Serif" font-size="11.00">&lt; 1</text>
<polygon fill="#ffffff" stroke="none" points="236,-245 236,-263 303,-263 303,-245 236,-245"/>
<polygon fill="none" stroke="black" points="236,-245 236,-263 303,-263 303,-245 236,-245"/>
<text text-anchor="start" x="257" y="-251.2" font-family="Helvetica,sans-Serif" font-size="11.00">57 rows</text>
<polygon fill="#ffffff" stroke="none" points="303,-245 303,-263 345,-263 345,-245 303,-245"/>
<polygon fill="none" stroke="black" points="303,-245 303,-263 345,-263 345,-245 303,-245"/>
<text text-anchor="start" x="325" y="-251.2" font-family="Helvetica,sans-Serif" font-size="11.00">1 &gt;</text>
</a>
</g>
</g>
<!-- countries -->
<g id="node2" class="node"><title>countries</title>
<g id="a_node2"><a xlink:href="../../tables/countries.html" xlink:title="countries" target="_top">
<polygon fill="#ffffff" stroke="none" points="11,-272 11,-330 114,-330 114,-272 11,-272"/>
<polygon fill="#f5f5f5" stroke="none" points="11.5,-308 11.5,-330 114.5,-330 114.5,-308 11.5,-308"/>
<polygon fill="none" stroke="black" points="11.5,-308 11.5,-330 114.5,-330 114.5,-308 11.5,-308"/>
<text text-anchor="start" x="16.5" y="-317.2" font-family="Helvetica,sans-Serif" font-weight="bold" font-size="11.00">countries</text>
<text text-anchor="start" x="75.5" y="-316.2" font-family="Helvetica,sans-Serif" font-size="11.00">[table]</text>
<polygon fill="none" stroke="black" points="11.5,-290 11.5,-308 114.5,-308 114.5,-290 11.5,-290"/>
<text text-anchor="start" x="14.5" y="-296.2" font-family="Helvetica,sans-Serif" font-size="11.00">...</text>
<polygon fill="#ffffff" stroke="none" points="11.5,-272 11.5,-290 30.5,-290 30.5,-272 11.5,-272"/>
<polygon fill="none" stroke="black" points="11.5,-272 11.5,-290 30.5,-290 30.5,-272 11.5,-272"/>
<text text-anchor="start" x="14.5" y="-278.2" font-family="Helvetica,sans-Serif" font-size="11.00"> &#160;</text>
<polygon fill="#ffffff" stroke="none" points="30.5,-272 30.5,-290 88.5,-290 88.5,-272 30.5,-272"/>
<polygon fill="none" stroke="black" points="30.5,-272 30.5,-290 88.5,-290 88.5,-272 30.5,-272"/>
<text text-anchor="start" x="36.5" y="-278.2" font-family="Helvetica,sans-Serif" font-size="11.00">249 rows</text>
<polygon fill="#ffffff" stroke="none" points="88.5,-272 88.5,-290 114.5,-290 114.5,-272 88.5,-272"/>
<polygon fill="none" stroke="black" points="88.5,-272 88.5,-290 114.5,-290 114.5,-272 88.5,-272"/>
<text text-anchor="start" x="94.5" y="-278.2" font-family="Helvetica,sans-Serif" font-size="11.00">2 &gt;</text>
</a>
</g>
</g>
<!-- country_subdivisions&#45;&gt;countries -->
<g id="edge1" class="edge"><title>country_subdivisions:elipses:w&#45;&gt;countries:elipses:e</title>
<path fill="none" stroke="black" d="M160.734,-274.688C144.352,-281.517 138.868,-299 115.5,-299"/>
<polygon fill="black" stroke="black" points="167.138,-273.481 175.666,-275.538 171.069,-272.741 175,-272 175,-272 175,-272 171.069,-272.741 174.334,-268.462 167.138,-273.481 167.138,-273.481"/>
<ellipse fill="none" stroke="black" cx="163.994" cy="-274.074" rx="3.2" ry="3.2"/>
</g>
<!-- device_managers -->
<g id="node3" class="node"><title>device_managers</title>
<g id="a_node3"><a xlink:href="../../tables/device_managers.html" xlink:title="device_managers" target="_top">
<polygon fill="#ffffff" stroke="none" points="919,-275 919,-333 1065,-333 1065,-275 919,-275"/>
<polygon fill="#f5f5f5" stroke="none" points="919,-311 919,-333 1065,-333 1065,-311 919,-311"/>
<polygon fill="none" stroke="black" points="919,-311 919,-333 1065,-333 1065,-311 919,-311"/>
<text text-anchor="start" x="924" y="-320.2" font-family="Helvetica,sans-Serif" font-weight="bold" font-size="11.00">device_managers</text>
<text text-anchor="start" x="1026" y="-319.2" font-family="Helvetica,sans-Serif" font-size="11.00">[table]</text>
<polygon fill="none" stroke="black" points="919,-293 919,-311 1065,-311 1065,-293 919,-293"/>
<text text-anchor="start" x="922" y="-299.2" font-family="Helvetica,sans-Serif" font-size="11.00">...</text>
<polygon fill="#ffffff" stroke="none" points="919,-275 919,-293 976,-293 976,-275 919,-275"/>
<polygon fill="none" stroke="black" points="919,-275 919,-293 976,-293 976,-275 919,-275"/>
<text text-anchor="start" x="922" y="-281.2" font-family="Helvetica,sans-Serif" font-size="11.00">&lt; 2</text>
<polygon fill="#ffffff" stroke="none" points="976,-275 976,-293 1035,-293 1035,-275 976,-275"/>
<polygon fill="none" stroke="black" points="976,-275 976,-293 1035,-293 1035,-275 976,-275"/>
<text text-anchor="start" x="996" y="-281.2" font-family="Helvetica,sans-Serif" font-size="11.00">0 rows</text>
<polygon fill="#ffffff" stroke="none" points="1035,-275 1035,-293 1065,-293 1065,-275 1035,-275"/>
<polygon fill="none" stroke="black" points="1035,-275 1035,-293 1065,-293 1065,-275 1035,-275"/>
<text text-anchor="start" x="1055" y="-281.2" font-family="Helvetica,sans-Serif" font-size="11.00"> &#160;</text>
</a>
</g>
</g>
<!-- facilities -->
<g id="node4" class="node"><title>facilities</title>
<g id="a_node4"><a xlink:href="../../tables/facilities.html" xlink:title="facilities" target="_top">
<polygon fill="#ffffff" stroke="none" points="699,-37 699,-95 797,-95 797,-37 699,-37"/>
<polygon fill="#f5f5f5" stroke="none" points="699,-73 699,-95 797,-95 797,-73 699,-73"/>
<polygon fill="none" stroke="black" points="699,-73 699,-95 797,-95 797,-73 699,-73"/>
<text text-anchor="start" x="704" y="-82.2" font-family="Helvetica,sans-Serif" font-weight="bold" font-size="11.00">facilities</text>
<text text-anchor="start" x="758" y="-81.2" font-family="Helvetica,sans-Serif" font-size="11.00">[table]</text>
<polygon fill="none" stroke="black" points="699,-55 699,-73 797,-73 797,-55 699,-55"/>
<text text-anchor="start" x="702" y="-61.2" font-family="Helvetica,sans-Serif" font-size="11.00">...</text>
<polygon fill="#ffffff" stroke="none" points="699,-37 699,-55 727,-55 727,-37 699,-37"/>
<polygon fill="none" stroke="black" points="699,-37 699,-55 727,-55 727,-37 699,-37"/>
<text text-anchor="start" x="702" y="-43.2" font-family="Helvetica,sans-Serif" font-size="11.00">&lt; 5</text>
<polygon fill="#ffffff" stroke="none" points="727,-37 727,-55 771,-55 771,-37 727,-37"/>
<polygon fill="none" stroke="black" points="727,-37 727,-55 771,-55 771,-37 727,-37"/>
<text text-anchor="start" x="732" y="-43.2" font-family="Helvetica,sans-Serif" font-size="11.00">0 rows</text>
<polygon fill="#ffffff" stroke="none" points="771,-37 771,-55 797,-55 797,-37 771,-37"/>
<polygon fill="none" stroke="black" points="771,-37 771,-55 797,-55 797,-37 771,-37"/>
<text text-anchor="start" x="777" y="-43.2" font-family="Helvetica,sans-Serif" font-size="11.00">1 &gt;</text>
</a>
</g>
</g>
<!-- device_managers&#45;&gt;facilities -->
<g id="edge2" class="edge"><title>device_managers:elipses:w&#45;&gt;facilities:elipses:e</title>
<path fill="none" stroke="black" d="M907.571,-301.322C837.598,-291.364 929.108,-174.027 878,-106 853.879,-73.8939 838.158,-64 798,-64"/>
<polygon fill="black" stroke="black" points="917.461,-297.957 916.942,-305.94 915.346,-305.836 915.864,-297.853 917.461,-297.957"/>
<polyline fill="none" stroke="black" points="918,-302 914.008,-301.741 "/>
<ellipse fill="none" stroke="black" cx="910.815" cy="-301.533" rx="3.2" ry="3.2"/>
</g>
<!-- users -->
<g id="node5" class="node"><title>users</title>
<g id="a_node5"><a xlink:href="../../tables/users.html" xlink:title="users" target="_top">
<polygon fill="#ffffff" stroke="none" points="166,-49 166,-195 354,-195 354,-49 166,-49"/>
<polygon fill="#f5f5f5" stroke="none" points="166,-173 166,-195 354,-195 354,-173 166,-173"/>
<polygon fill="none" stroke="black" points="166,-173 166,-195 354,-195 354,-173 166,-173"/>
<text text-anchor="start" x="171" y="-182.2" font-family="Helvetica,sans-Serif" font-weight="bold" font-size="11.00">users</text>
<text text-anchor="start" x="315" y="-181.2" font-family="Helvetica,sans-Serif" font-size="11.00">[table]</text>
<polygon fill="none" stroke="black" points="166,-151 166,-173 354,-173 354,-151 166,-151"/>
<image xlink:href="../../images/primaryKeys.png" width="11px" height="12px" preserveAspectRatio="xMinYMin meet" x="171" y="-168"/>
<text text-anchor="start" x="186" y="-159.2" font-family="Helvetica,sans-Serif" font-size="11.00">id</text>
<polygon fill="#ffffff" stroke="none" points="166,-129 166,-151 354,-151 354,-129 166,-129"/>
<polygon fill="none" stroke="black" points="166,-129 166,-151 354,-151 354,-129 166,-129"/>
<text text-anchor="start" x="186" y="-137.2" font-family="Helvetica,sans-Serif" font-size="11.00">auth_id</text>
<polygon fill="#ffffff" stroke="none" points="166,-107 166,-129 354,-129 354,-107 166,-107"/>
<polygon fill="none" stroke="black" points="166,-107 166,-129 354,-129 354,-107 166,-107"/>
<text text-anchor="start" x="186" y="-115.2" font-family="Helvetica,sans-Serif" font-size="11.00">email</text>
<polygon fill="none" stroke="black" points="166,-85 166,-107 354,-107 354,-85 166,-85"/>
<image xlink:href="../../images/foreignKeys.png" width="11px" height="12px" preserveAspectRatio="xMinYMin meet" x="171" y="-102"/>
<text text-anchor="start" x="186" y="-93.2" font-family="Helvetica,sans-Serif" font-size="11.00">user_type_id</text>
<polygon fill="none" stroke="black" points="166,-67 166,-85 354,-85 354,-67 166,-67"/>
<text text-anchor="start" x="169" y="-73.2" font-family="Helvetica,sans-Serif" font-size="11.00">...</text>
<polygon fill="#ffffff" stroke="none" points="166,-49 166,-67 238,-67 238,-49 166,-49"/>
<polygon fill="none" stroke="black" points="166,-49 166,-67 238,-67 238,-49 166,-49"/>
<text text-anchor="start" x="169" y="-55.2" font-family="Helvetica,sans-Serif" font-size="11.00">&lt; 1</text>
<polygon fill="#ffffff" stroke="none" points="238,-49 238,-67 299,-67 299,-49 238,-49"/>
<polygon fill="none" stroke="black" points="238,-49 238,-67 299,-67 299,-49 238,-49"/>
<text text-anchor="start" x="265" y="-55.2" font-family="Helvetica,sans-Serif" font-size="11.00">1 row</text>
<polygon fill="#ffffff" stroke="none" points="299,-49 299,-67 354,-67 354,-49 299,-49"/>
<polygon fill="none" stroke="black" points="299,-49 299,-67 354,-67 354,-49 299,-49"/>
<text text-anchor="start" x="327" y="-55.2" font-family="Helvetica,sans-Serif" font-size="11.00">10 &gt;</text>
</a>
</g>
</g>
<!-- device_managers&#45;&gt;users -->
<g id="edge3" class="edge"><title>device_managers:elipses:w&#45;&gt;users:id:e</title>
<path fill="none" stroke="black" d="M903.424,-303.392C831.031,-319.192 951.594,-465.335 878,-527 795.729,-595.935 474.923,-598.643 395,-527 334.241,-472.536 436.597,-162 355,-162"/>
<polygon fill="black" stroke="black" points="910.036,-302.761 918.342,-305.584 914.018,-302.38 918,-302 918,-302 918,-302 914.018,-302.38 917.658,-298.416 910.036,-302.761 910.036,-302.761"/>
<ellipse fill="none" stroke="black" cx="906.851" cy="-303.065" rx="3.2" ry="3.2"/>
</g>
<!-- facilities&#45;&gt;users -->
<g id="edge4" class="edge"><title>facilities:elipses:w&#45;&gt;users:id:e</title>
<path fill="none" stroke="black" d="M683.491,-63.9793C557.556,-63.6441 511.777,-60.1225 395,-122 372.784,-133.772 380.142,-162 355,-162"/>
<polygon fill="black" stroke="black" points="690,-63.9886 697.995,-67.6 694,-63.9943 698,-64 698,-64 698,-64 694,-63.9943 698.005,-60.4 690,-63.9886 690,-63.9886"/>
<ellipse fill="none" stroke="black" cx="686.8" cy="-63.984" rx="3.2" ry="3.2"/>
</g>
<!-- facilities&#45;&gt;users -->
<g id="edge5" class="edge"><title>facilities:elipses:w&#45;&gt;users:id:e</title>
<path fill="none" stroke="black" d="M683.462,-64.0032C557.344,-64.0862 513.284,-66.3132 395,-126 373.647,-136.775 378.918,-162 355,-162"/>
<polygon fill="black" stroke="black" points="690,-64.0018 698.001,-67.6 694,-64.0009 698,-64 698,-64 698,-64 694,-64.0009 697.999,-60.4 690,-64.0018 690,-64.0018"/>
<ellipse fill="none" stroke="black" cx="686.8" cy="-64.0026" rx="3.2" ry="3.2"/>
</g>
<!-- organizations -->
<g id="node6" class="node"><title>organizations</title>
<g id="a_node6"><a xlink:href="../../tables/organizations.html" xlink:title="organizations" target="_top">
<polygon fill="#ffffff" stroke="none" points="403,-198 403,-366 577,-366 577,-198 403,-198"/>
<polygon fill="#f5f5f5" stroke="none" points="403,-344 403,-366 577,-366 577,-344 403,-344"/>
<polygon fill="none" stroke="black" points="403,-344 403,-366 577,-366 577,-344 403,-344"/>
<text text-anchor="start" x="408" y="-353.2" font-family="Helvetica,sans-Serif" font-weight="bold" font-size="11.00">organizations</text>
<text text-anchor="start" x="538" y="-352.2" font-family="Helvetica,sans-Serif" font-size="11.00">[table]</text>
<polygon fill="none" stroke="black" points="403,-322 403,-344 577,-344 577,-322 403,-322"/>
<image xlink:href="../../images/primaryKeys.png" width="11px" height="12px" preserveAspectRatio="xMinYMin meet" x="408" y="-339"/>
<text text-anchor="start" x="423" y="-330.2" font-family="Helvetica,sans-Serif" font-size="11.00">id</text>
<polygon fill="none" stroke="black" points="403,-300 403,-322 577,-322 577,-300 403,-300"/>
<image xlink:href="../../images/foreignKeys.png" width="11px" height="12px" preserveAspectRatio="xMinYMin meet" x="408" y="-317"/>
<text text-anchor="start" x="423" y="-308.2" font-family="Helvetica,sans-Serif" font-size="11.00">country_code</text>
<polygon fill="none" stroke="black" points="403,-278 403,-300 577,-300 577,-278 403,-278"/>
<image xlink:href="../../images/foreignKeys.png" width="11px" height="12px" preserveAspectRatio="xMinYMin meet" x="408" y="-295"/>
<text text-anchor="start" x="423" y="-286.2" font-family="Helvetica,sans-Serif" font-size="11.00">country_subdivision_code</text>
<polygon fill="none" stroke="black" points="403,-256 403,-278 577,-278 577,-256 403,-256"/>
<image xlink:href="../../images/foreignKeys.png" width="11px" height="12px" preserveAspectRatio="xMinYMin meet" x="408" y="-273"/>
<text text-anchor="start" x="423" y="-264.2" font-family="Helvetica,sans-Serif" font-size="11.00">created_by</text>
<polygon fill="none" stroke="black" points="403,-234 403,-256 577,-256 577,-234 403,-234"/>
<image xlink:href="../../images/foreignKeys.png" width="11px" height="12px" preserveAspectRatio="xMinYMin meet" x="408" y="-251"/>
<text text-anchor="start" x="423" y="-242.2" font-family="Helvetica,sans-Serif" font-size="11.00">modified_by</text>
<polygon fill="none" stroke="black" points="403,-216 403,-234 577,-234 577,-216 403,-216"/>
<text text-anchor="start" x="406" y="-222.2" font-family="Helvetica,sans-Serif" font-size="11.00">...</text>
<polygon fill="#ffffff" stroke="none" points="403,-198 403,-216 469,-216 469,-198 403,-198"/>
<polygon fill="none" stroke="black" points="403,-198 403,-216 469,-216 469,-198 403,-198"/>
<text text-anchor="start" x="406" y="-204.2" font-family="Helvetica,sans-Serif" font-size="11.00">&lt; 4</text>
<polygon fill="#ffffff" stroke="none" points="469,-198 469,-216 532,-216 532,-198 469,-198"/>
<polygon fill="none" stroke="black" points="469,-198 469,-216 532,-216 532,-198 469,-198"/>
<text text-anchor="start" x="493" y="-204.2" font-family="Helvetica,sans-Serif" font-size="11.00">0 rows</text>
<polygon fill="#ffffff" stroke="none" points="532,-198 532,-216 577,-216 577,-198 532,-198"/>
<polygon fill="none" stroke="black" points="532,-198 532,-216 577,-216 577,-198 532,-198"/>
<text text-anchor="start" x="557" y="-204.2" font-family="Helvetica,sans-Serif" font-size="11.00">4 &gt;</text>
</a>
</g>
</g>
<!-- facilities&#45;&gt;organizations -->
<g id="edge6" class="edge"><title>facilities:elipses:w&#45;&gt;organizations:id:e</title>
<path fill="none" stroke="black" d="M683.599,-64.5056C653.552,-66.8477 638.634,-77.7525 618,-106 587.786,-147.362 629.222,-333 578,-333"/>
<polygon fill="black" stroke="black" points="690.005,-64.2808 698.126,-67.5978 694.002,-64.1404 698,-64 698,-64 698,-64 694.002,-64.1404 697.874,-60.4022 690.005,-64.2808 690.005,-64.2808"/>
<ellipse fill="none" stroke="black" cx="686.807" cy="-64.3931" rx="3.2" ry="3.2"/>
</g>
<!-- user_types -->
<g id="node12" class="node"><title>user_types</title>
<g id="a_node12"><a xlink:href="../../tables/user_types.html" xlink:title="user_types" target="_top">
<polygon fill="#ffffff" stroke="none" points="8,-69 8,-127 117,-127 117,-69 8,-69"/>
<polygon fill="#f5f5f5" stroke="none" points="8.5,-105 8.5,-127 117.5,-127 117.5,-105 8.5,-105"/>
<polygon fill="none" stroke="black" points="8.5,-105 8.5,-127 117.5,-127 117.5,-105 8.5,-105"/>
<text text-anchor="start" x="13.5" y="-114.2" font-family="Helvetica,sans-Serif" font-weight="bold" font-size="11.00">user_types</text>
<text text-anchor="start" x="78.5" y="-113.2" font-family="Helvetica,sans-Serif" font-size="11.00">[table]</text>
<polygon fill="none" stroke="black" points="8.5,-87 8.5,-105 117.5,-105 117.5,-87 8.5,-87"/>
<text text-anchor="start" x="11.5" y="-93.2" font-family="Helvetica,sans-Serif" font-size="11.00">...</text>
<polygon fill="#ffffff" stroke="none" points="8.5,-69 8.5,-87 36.5,-87 36.5,-69 8.5,-69"/>
<polygon fill="none" stroke="black" points="8.5,-69 8.5,-87 36.5,-87 36.5,-69 8.5,-69"/>
<text text-anchor="start" x="11.5" y="-75.2" font-family="Helvetica,sans-Serif" font-size="11.00"> &#160;</text>
<polygon fill="#ffffff" stroke="none" points="36.5,-69 36.5,-87 86.5,-87 86.5,-69 36.5,-69"/>
<polygon fill="none" stroke="black" points="36.5,-69 36.5,-87 86.5,-87 86.5,-69 36.5,-69"/>
<text text-anchor="start" x="47.5" y="-75.2" font-family="Helvetica,sans-Serif" font-size="11.00">4 rows</text>
<polygon fill="#ffffff" stroke="none" points="86.5,-69 86.5,-87 117.5,-87 117.5,-69 86.5,-69"/>
<polygon fill="none" stroke="black" points="86.5,-69 86.5,-87 117.5,-87 117.5,-69 86.5,-69"/>
<text text-anchor="start" x="97.5" y="-75.2" font-family="Helvetica,sans-Serif" font-size="11.00">1 &gt;</text>
</a>
</g>
</g>
<!-- users&#45;&gt;user_types -->
<g id="edge21" class="edge"><title>users:user_type_id:w&#45;&gt;user_types:elipses:e</title>
<path fill="none" stroke="black" d="M150.551,-96C140.201,-96 133.354,-96 118.5,-96"/>
<polygon fill="black" stroke="black" points="157,-96.0001 165,-99.6 161,-96 165,-96 165,-96 165,-96 161,-96 165,-92.4 157,-96.0001 157,-96.0001"/>
<ellipse fill="none" stroke="black" cx="153.8" cy="-96.0001" rx="3.2" ry="3.2"/>
</g>
<!-- organizations&#45;&gt;country_subdivisions -->
<g id="edge16" class="edge"><title>organizations:country_subdivision_code:w&#45;&gt;country_subdivisions:elipses:e</title>
<path fill="none" stroke="black" d="M387.632,-286.915C373.194,-282.376 366.321,-272 346,-272"/>
<polygon fill="black" stroke="black" points="394.083,-287.851 401.483,-292.563 398.041,-288.426 402,-289 402,-289 402,-289 398.041,-288.426 402.517,-285.437 394.083,-287.851 394.083,-287.851"/>
<ellipse fill="none" stroke="black" cx="390.916" cy="-287.392" rx="3.2" ry="3.2"/>
</g>
<!-- organizations&#45;&gt;countries -->
<g id="edge15" class="edge"><title>organizations:country_code:w&#45;&gt;countries:elipses:e</title>
<path fill="none" stroke="black" d="M387.573,-311.638C379.726,-312.379 373.83,-313.557 362,-314 271.397,-317.393 247.365,-329.308 158,-314 138.257,-310.618 135.531,-299 115.5,-299"/>
<polygon fill="black" stroke="black" points="394.008,-311.354 402.159,-314.596 398.004,-311.177 402,-311 402,-311 402,-311 398.004,-311.177 401.841,-307.404 394.008,-311.354 394.008,-311.354"/>
<ellipse fill="none" stroke="black" cx="390.811" cy="-311.495" rx="3.2" ry="3.2"/>
</g>
<!-- organizations&#45;&gt;users -->
<g id="edge17" class="edge"><title>organizations:created_by:w&#45;&gt;users:id:e</title>
<path fill="none" stroke="black" d="M388.066,-263.012C362.361,-243.833 400.137,-162 355,-162"/>
<polygon fill="black" stroke="black" points="394.309,-264.799 401.009,-270.461 398.154,-265.899 402,-267 402,-267 402,-267 398.154,-265.899 402.991,-263.539 394.309,-264.799 394.309,-264.799"/>
<ellipse fill="none" stroke="black" cx="391.232" cy="-263.918" rx="3.20001" ry="3.20001"/>
</g>
<!-- organizations&#45;&gt;users -->
<g id="edge18" class="edge"><title>organizations:modified_by:w&#45;&gt;users:id:e</title>
<path fill="none" stroke="black" d="M388.159,-240.3C368.855,-222.742 391.266,-162 355,-162"/>
<polygon fill="black" stroke="black" points="394.425,-242.427 400.842,-248.409 398.212,-243.714 402,-245 402,-245 402,-245 398.212,-243.714 403.158,-241.591 394.425,-242.427 394.425,-242.427"/>
<ellipse fill="none" stroke="black" cx="391.395" cy="-241.398" rx="3.20001" ry="3.20001"/>
</g>
<!-- notification_types -->
<g id="node7" class="node"><title>notification_types</title>
<g id="a_node7"><a xlink:href="../../tables/notification_types.html" xlink:title="notification_types" target="_top">
<polygon fill="#ffffff" stroke="none" points="405.5,-414 405.5,-516 574.5,-516 574.5,-414 405.5,-414"/>
<polygon fill="#f5f5f5" stroke="none" points="406,-494 406,-516 575,-516 575,-494 406,-494"/>
<polygon fill="none" stroke="black" points="406,-494 406,-516 575,-516 575,-494 406,-494"/>
<text text-anchor="start" x="411" y="-503.2" font-family="Helvetica,sans-Serif" font-weight="bold" font-size="11.00">notification_types</text>
<text text-anchor="start" x="536" y="-502.2" font-family="Helvetica,sans-Serif" font-size="11.00">[table]</text>
<polygon fill="none" stroke="black" points="406,-472 406,-494 575,-494 575,-472 406,-472"/>
<image xlink:href="../../images/primaryKeys.png" width="11px" height="12px" preserveAspectRatio="xMinYMin meet" x="411" y="-489"/>
<text text-anchor="start" x="426" y="-480.2" font-family="Helvetica,sans-Serif" font-size="11.00">id</text>
<polygon fill="none" stroke="black" points="406,-450 406,-472 575,-472 575,-450 406,-450"/>
<image xlink:href="../../images/foreignKeys.png" width="11px" height="12px" preserveAspectRatio="xMinYMin meet" x="411" y="-467"/>
<text text-anchor="start" x="426" y="-458.2" font-family="Helvetica,sans-Serif" font-size="11.00">notification_criticality_id</text>
<polygon fill="none" stroke="black" points="406,-432 406,-450 575,-450 575,-432 406,-432"/>
<text text-anchor="start" x="409" y="-438.2" font-family="Helvetica,sans-Serif" font-size="11.00">...</text>
<polygon fill="#ffffff" stroke="none" points="406,-414 406,-432 466,-432 466,-414 406,-414"/>
<polygon fill="none" stroke="black" points="406,-414 406,-432 466,-432 466,-414 406,-414"/>
<text text-anchor="start" x="409" y="-420.2" font-family="Helvetica,sans-Serif" font-size="11.00">&lt; 1</text>
<polygon fill="#ffffff" stroke="none" points="466,-414 466,-432 533,-432 533,-414 466,-414"/>
<polygon fill="none" stroke="black" points="466,-414 466,-432 533,-432 533,-414 466,-414"/>
<text text-anchor="start" x="487" y="-420.2" font-family="Helvetica,sans-Serif" font-size="11.00">13 rows</text>
<polygon fill="#ffffff" stroke="none" points="533,-414 533,-432 575,-432 575,-414 533,-414"/>
<polygon fill="none" stroke="black" points="533,-414 533,-432 575,-432 575,-414 533,-414"/>
<text text-anchor="start" x="555" y="-420.2" font-family="Helvetica,sans-Serif" font-size="11.00">1 &gt;</text>
</a>
</g>
</g>
<!-- notification_criticalities -->
<g id="node8" class="node"><title>notification_criticalities</title>
<g id="a_node8"><a xlink:href="../../tables/notification_criticalities.html" xlink:title="notification_criticalities" target="_top">
<polygon fill="#ffffff" stroke="none" points="167.5,-434 167.5,-492 352.5,-492 352.5,-434 167.5,-434"/>
<polygon fill="#f5f5f5" stroke="none" points="168,-470 168,-492 353,-492 353,-470 168,-470"/>
<polygon fill="none" stroke="black" points="168,-470 168,-492 353,-492 353,-470 168,-470"/>
<text text-anchor="start" x="173" y="-479.2" font-family="Helvetica,sans-Serif" font-weight="bold" font-size="11.00">notification_criticalities</text>
<text text-anchor="start" x="314" y="-478.2" font-family="Helvetica,sans-Serif" font-size="11.00">[table]</text>
<polygon fill="none" stroke="black" points="168,-452 168,-470 353,-470 353,-452 168,-452"/>
<text text-anchor="start" x="171" y="-458.2" font-family="Helvetica,sans-Serif" font-size="11.00">...</text>
<polygon fill="#ffffff" stroke="none" points="168,-434 168,-452 234,-452 234,-434 168,-434"/>
<polygon fill="none" stroke="black" points="168,-434 168,-452 234,-452 234,-434 168,-434"/>
<text text-anchor="start" x="171" y="-440.2" font-family="Helvetica,sans-Serif" font-size="11.00"> &#160;</text>
<polygon fill="#ffffff" stroke="none" points="234,-434 234,-452 303,-452 303,-434 234,-434"/>
<polygon fill="none" stroke="black" points="234,-434 234,-452 303,-452 303,-434 234,-434"/>
<text text-anchor="start" x="264" y="-440.2" font-family="Helvetica,sans-Serif" font-size="11.00">4 rows</text>
<polygon fill="#ffffff" stroke="none" points="303,-434 303,-452 353,-452 353,-434 303,-434"/>
<polygon fill="none" stroke="black" points="303,-434 303,-452 353,-452 353,-434 303,-434"/>
<text text-anchor="start" x="333" y="-440.2" font-family="Helvetica,sans-Serif" font-size="11.00">1 &gt;</text>
</a>
</g>
</g>
<!-- notification_types&#45;&gt;notification_criticalities -->
<g id="edge7" class="edge"><title>notification_types:notification_criticality_id:w&#45;&gt;notification_criticalities:elipses:e</title>
<path fill="none" stroke="black" d="M390.276,-461C378.282,-461 370.823,-461 354,-461"/>
<polygon fill="black" stroke="black" points="397,-461 405,-464.6 401,-461 405,-461 405,-461 405,-461 401,-461 405,-457.4 397,-461 397,-461"/>
<ellipse fill="none" stroke="black" cx="393.8" cy="-461" rx="3.2" ry="3.2"/>
</g>
<!-- notifications -->
<g id="node9" class="node"><title>notifications</title>
<g id="a_node9"><a xlink:href="../../tables/notifications.html" xlink:title="notifications" target="_top">
<polygon fill="#ffffff" stroke="none" points="626,-274 626,-516 870,-516 870,-274 626,-274"/>
<polygon fill="#f5f5f5" stroke="none" points="628,-492 628,-514 868,-514 868,-492 628,-492"/>
<polygon fill="none" stroke="black" points="628,-492 628,-514 868,-514 868,-492 628,-492"/>
<text text-anchor="start" x="633" y="-501.2" font-family="Helvetica,sans-Serif" font-weight="bold" font-size="11.00">notifications</text>
<text text-anchor="start" x="829" y="-500.2" font-family="Helvetica,sans-Serif" font-size="11.00">[table]</text>
<polygon fill="none" stroke="black" points="628,-470 628,-492 766,-492 766,-470 628,-470"/>
<image xlink:href="../../images/primaryKeys.png" width="11px" height="12px" preserveAspectRatio="xMinYMin meet" x="633" y="-487"/>
<text text-anchor="start" x="648" y="-478.2" font-family="Helvetica,sans-Serif" font-size="11.00">id</text>
<polygon fill="none" stroke="black" points="766,-470 766,-492 868,-492 868,-470 766,-470"/>
<text text-anchor="start" x="769" y="-478.2" font-family="Helvetica,sans-Serif" font-size="11.00">int8[19]</text>
<polygon fill="none" stroke="black" points="628,-448 628,-470 766,-470 766,-448 628,-448"/>
<image xlink:href="../../images/foreignKeys.png" width="11px" height="12px" preserveAspectRatio="xMinYMin meet" x="633" y="-465"/>
<text text-anchor="start" x="648" y="-456.2" font-family="Helvetica,sans-Serif" font-size="11.00">notification_type_id</text>
<polygon fill="none" stroke="black" points="766,-448 766,-470 868,-470 868,-448 766,-448"/>
<text text-anchor="start" x="769" y="-456.2" font-family="Helvetica,sans-Serif" font-size="11.00">int4[10]</text>
<polygon fill="none" stroke="black" points="628,-426 628,-448 766,-448 766,-426 628,-426"/>
<image xlink:href="../../images/foreignKeys.png" width="11px" height="12px" preserveAspectRatio="xMinYMin meet" x="633" y="-443"/>
<text text-anchor="start" x="648" y="-434.2" font-family="Helvetica,sans-Serif" font-size="11.00">user_id</text>
<polygon fill="none" stroke="black" points="766,-426 766,-448 868,-448 868,-426 766,-426"/>
<text text-anchor="start" x="769" y="-434.2" font-family="Helvetica,sans-Serif" font-size="11.00">int8[19]</text>
<polygon fill="none" stroke="black" points="628,-404 628,-426 766,-426 766,-404 628,-404"/>
<image xlink:href="../../images/foreignKeys.png" width="11px" height="12px" preserveAspectRatio="xMinYMin meet" x="633" y="-421"/>
<text text-anchor="start" x="648" y="-412.2" font-family="Helvetica,sans-Serif" font-size="11.00">organization_id</text>
<polygon fill="none" stroke="black" points="766,-404 766,-426 868,-426 868,-404 766,-404"/>
<text text-anchor="start" x="769" y="-412.2" font-family="Helvetica,sans-Serif" font-size="11.00">int8[19]</text>
<polygon fill="none" stroke="black" points="628,-382 628,-404 766,-404 766,-382 628,-382"/>
<text text-anchor="start" x="648" y="-390.2" font-family="Helvetica,sans-Serif" font-size="11.00">title</text>
<polygon fill="none" stroke="black" points="766,-382 766,-404 868,-404 868,-382 766,-382"/>
<text text-anchor="start" x="769" y="-390.2" font-family="Helvetica,sans-Serif" font-size="11.00">text[2147483647]</text>
<polygon fill="none" stroke="black" points="628,-360 628,-382 766,-382 766,-360 628,-360"/>
<text text-anchor="start" x="648" y="-368.2" font-family="Helvetica,sans-Serif" font-size="11.00">body</text>
<polygon fill="none" stroke="black" points="766,-360 766,-382 868,-382 868,-360 766,-360"/>
<text text-anchor="start" x="769" y="-368.2" font-family="Helvetica,sans-Serif" font-size="11.00">text[2147483647]</text>
<polygon fill="none" stroke="black" points="628,-338 628,-360 766,-360 766,-338 628,-338"/>
<text text-anchor="start" x="648" y="-346.2" font-family="Helvetica,sans-Serif" font-size="11.00">local_url</text>
<polygon fill="none" stroke="black" points="766,-338 766,-360 868,-360 868,-338 766,-338"/>
<text text-anchor="start" x="769" y="-346.2" font-family="Helvetica,sans-Serif" font-size="11.00">text[2147483647]</text>
<polygon fill="none" stroke="black" points="628,-316 628,-338 766,-338 766,-316 628,-316"/>
<text text-anchor="start" x="648" y="-324.2" font-family="Helvetica,sans-Serif" font-size="11.00">created_time</text>
<polygon fill="none" stroke="black" points="766,-316 766,-338 868,-338 868,-316 766,-316"/>
<text text-anchor="start" x="769" y="-324.2" font-family="Helvetica,sans-Serif" font-size="11.00">timestamptz[35,6]</text>
<polygon fill="none" stroke="black" points="628,-294 628,-316 766,-316 766,-294 628,-294"/>
<text text-anchor="start" x="648" y="-302.2" font-family="Helvetica,sans-Serif" font-size="11.00">is_read</text>
<polygon fill="none" stroke="black" points="766,-294 766,-316 868,-316 868,-294 766,-294"/>
<text text-anchor="start" x="769" y="-302.2" font-family="Helvetica,sans-Serif" font-size="11.00">bool[1]</text>
<polygon fill="#ffffff" stroke="none" points="628,-276 628,-294 687,-294 687,-276 628,-276"/>
<polygon fill="none" stroke="black" points="628,-276 628,-294 687,-294 687,-276 628,-276"/>
<text text-anchor="start" x="631" y="-282.2" font-family="Helvetica,sans-Serif" font-size="11.00">&lt; 3</text>
<polygon fill="#ffffff" stroke="none" points="687,-276 687,-294 766,-294 766,-276 687,-276"/>
<polygon fill="none" stroke="black" points="687,-276 687,-294 766,-294 766,-276 687,-276"/>
<text text-anchor="start" x="727" y="-282.2" font-family="Helvetica,sans-Serif" font-size="11.00">0 rows</text>
<polygon fill="#ffffff" stroke="none" points="766,-276 766,-294 868,-294 868,-276 766,-276"/>
<polygon fill="none" stroke="black" points="766,-276 766,-294 868,-294 868,-276 766,-276"/>
<text text-anchor="start" x="848" y="-282.2" font-family="Helvetica,sans-Serif" font-size="11.00">0 &gt;</text>
<polygon fill="none" stroke="black" stroke-width="2" points="627,-275 627,-515 869,-515 869,-275 627,-275"/>
</a>
</g>
</g>
<!-- notifications&#45;&gt;users -->
<g id="edge10" class="edge"><title>notifications:user_id:w&#45;&gt;users:id:e</title>
<path fill="none" stroke="black" d="M613.182,-432.93C603.414,-425.745 601.204,-410.919 585,-404 506.559,-370.506 456.587,-436.007 395,-377 324.818,-309.758 452.195,-162 355,-162"/>
<polygon fill="black" stroke="black" points="619.326,-434.74 625.983,-440.453 623.163,-435.87 627,-437 627,-437 627,-437 623.163,-435.87 628.017,-433.547 619.326,-434.74 619.326,-434.74"/>
<ellipse fill="none" stroke="black" cx="616.256" cy="-433.836" rx="3.20001" ry="3.20001"/>
</g>
<!-- notifications&#45;&gt;organizations -->
<g id="edge9" class="edge"><title>notifications:organization_id:w&#45;&gt;organizations:id:e</title>
<path fill="none" stroke="black" d="M613.029,-410.356C593.288,-393.01 614.319,-333 578,-333"/>
<polygon fill="black" stroke="black" points="619.408,-412.477 625.864,-418.416 623.204,-413.738 627,-415 627,-415 627,-415 623.204,-413.738 628.136,-411.584 619.408,-412.477 619.408,-412.477"/>
<ellipse fill="none" stroke="black" cx="616.372" cy="-411.467" rx="3.20001" ry="3.20001"/>
</g>
<!-- notifications&#45;&gt;notification_types -->
<g id="edge8" class="edge"><title>notifications:notification_type_id:w&#45;&gt;notification_types:id:e</title>
<path fill="none" stroke="black" d="M612.744,-462.337C600.201,-468.932 595.18,-483 576,-483"/>
<polygon fill="black" stroke="black" points="619.211,-460.823 627.821,-462.505 623.105,-459.912 627,-459 627,-459 627,-459 623.105,-459.912 626.179,-455.495 619.211,-460.823 619.211,-460.823"/>
<ellipse fill="none" stroke="black" cx="616.095" cy="-461.553" rx="3.2" ry="3.2"/>
</g>
<!-- organization_users -->
<g id="node10" class="node"><title>organization_users</title>
<g id="a_node10"><a xlink:href="../../tables/organization_users.html" xlink:title="organization_users" target="_top">
<polygon fill="#ffffff" stroke="none" points="671,-195 671,-253 825,-253 825,-195 671,-195"/>
<polygon fill="#f5f5f5" stroke="none" points="671,-231 671,-253 825,-253 825,-231 671,-231"/>
<polygon fill="none" stroke="black" points="671,-231 671,-253 825,-253 825,-231 671,-231"/>
<text text-anchor="start" x="676" y="-240.2" font-family="Helvetica,sans-Serif" font-weight="bold" font-size="11.00">organization_users</text>
<text text-anchor="start" x="786" y="-239.2" font-family="Helvetica,sans-Serif" font-size="11.00">[table]</text>
<polygon fill="none" stroke="black" points="671,-213 671,-231 825,-231 825,-213 671,-213"/>
<text text-anchor="start" x="674" y="-219.2" font-family="Helvetica,sans-Serif" font-size="11.00">...</text>
<polygon fill="#ffffff" stroke="none" points="671,-195 671,-213 732,-213 732,-195 671,-195"/>
<polygon fill="none" stroke="black" points="671,-195 671,-213 732,-213 732,-195 671,-195"/>
<text text-anchor="start" x="674" y="-201.2" font-family="Helvetica,sans-Serif" font-size="11.00">&lt; 5</text>
<polygon fill="#ffffff" stroke="none" points="732,-195 732,-213 793,-213 793,-195 732,-195"/>
<polygon fill="none" stroke="black" points="732,-195 732,-213 793,-213 793,-195 732,-195"/>
<text text-anchor="start" x="754" y="-201.2" font-family="Helvetica,sans-Serif" font-size="11.00">0 rows</text>
<polygon fill="#ffffff" stroke="none" points="793,-195 793,-213 825,-213 825,-195 793,-195"/>
<polygon fill="none" stroke="black" points="793,-195 793,-213 825,-213 825,-195 793,-195"/>
<text text-anchor="start" x="815" y="-201.2" font-family="Helvetica,sans-Serif" font-size="11.00"> &#160;</text>
</a>
</g>
</g>
<!-- organization_users&#45;&gt;users -->
<g id="edge11" class="edge"><title>organization_users:elipses:w&#45;&gt;users:id:e</title>
<path fill="none" stroke="black" d="M655.52,-220.816C627.412,-215.856 619.217,-196.611 585,-188 485.237,-162.894 457.873,-162 355,-162"/>
<polygon fill="black" stroke="black" points="662.027,-221.348 669.707,-225.588 666.013,-221.674 670,-222 670,-222 670,-222 666.013,-221.674 670.293,-218.412 662.027,-221.348 662.027,-221.348"/>
<ellipse fill="none" stroke="black" cx="658.837" cy="-221.087" rx="3.2" ry="3.2"/>
</g>
<!-- organization_users&#45;&gt;users -->
<g id="edge12" class="edge"><title>organization_users:elipses:w&#45;&gt;users:id:e</title>
<path fill="none" stroke="black" d="M655.685,-218.893C627.77,-210.705 618.79,-194.072 585,-186 484.733,-162.047 458.088,-156 355,-162"/>
<polygon fill="black" stroke="black" points="662.182,-220.303 669.236,-225.518 666.091,-221.152 670,-222 670,-222 670,-222 666.091,-221.152 670.764,-218.482 662.182,-220.303 662.182,-220.303"/>
<ellipse fill="none" stroke="black" cx="659.055" cy="-219.624" rx="3.2" ry="3.2"/>
</g>
<!-- organization_users&#45;&gt;users -->
<g id="edge14" class="edge"><title>organization_users:elipses:w&#45;&gt;users:id:e</title>
<path fill="none" stroke="black" d="M655.309,-223.418C627.688,-223.555 618.638,-207.036 585,-199 484.733,-175.047 458.088,-169 355,-162"/>
<polygon fill="black" stroke="black" points="662.037,-222.769 670.346,-225.583 666.019,-222.384 670,-222 670,-222 670,-222 666.019,-222.384 669.654,-218.417 662.037,-222.769 662.037,-222.769"/>
<ellipse fill="none" stroke="black" cx="658.852" cy="-223.076" rx="3.2" ry="3.2"/>
</g>
<!-- organization_users&#45;&gt;organizations -->
<g id="edge13" class="edge"><title>organization_users:elipses:w&#45;&gt;organizations:id:e</title>
<path fill="none" stroke="black" d="M655.332,-224.103C638.51,-229.712 633.553,-245.846 618,-264 594.938,-290.919 613.447,-333 578,-333"/>
<polygon fill="black" stroke="black" points="662.081,-223.135 670.511,-225.564 666.04,-222.568 670,-222 670,-222 670,-222 666.04,-222.568 669.489,-218.436 662.081,-223.135 662.081,-223.135"/>
<ellipse fill="none" stroke="black" cx="658.913" cy="-223.59" rx="3.2" ry="3.2"/>
</g>
<!-- uploads -->
<g id="node11" class="node"><title>uploads</title>
<g id="a_node11"><a xlink:href="../../tables/uploads.html" xlink:title="uploads" target="_top">
<polygon fill="#ffffff" stroke="none" points="701,-116 701,-174 795,-174 795,-116 701,-116"/>
<polygon fill="#f5f5f5" stroke="none" points="701,-152 701,-174 795,-174 795,-152 701,-152"/>
<polygon fill="none" stroke="black" points="701,-152 701,-174 795,-174 795,-152 701,-152"/>
<text text-anchor="start" x="706" y="-161.2" font-family="Helvetica,sans-Serif" font-weight="bold" font-size="11.00">uploads</text>
<text text-anchor="start" x="756" y="-160.2" font-family="Helvetica,sans-Serif" font-size="11.00">[table]</text>
<polygon fill="none" stroke="black" points="701,-134 701,-152 795,-152 795,-134 701,-134"/>
<text text-anchor="start" x="704" y="-140.2" font-family="Helvetica,sans-Serif" font-size="11.00">...</text>
<polygon fill="#ffffff" stroke="none" points="701,-116 701,-134 727,-134 727,-116 701,-116"/>
<polygon fill="none" stroke="black" points="701,-116 701,-134 727,-134 727,-116 701,-116"/>
<text text-anchor="start" x="704" y="-122.2" font-family="Helvetica,sans-Serif" font-size="11.00">&lt; 4</text>
<polygon fill="#ffffff" stroke="none" points="727,-116 727,-134 770,-134 770,-116 727,-116"/>
<polygon fill="none" stroke="black" points="727,-116 727,-134 770,-134 770,-116 727,-116"/>
<text text-anchor="start" x="731" y="-122.2" font-family="Helvetica,sans-Serif" font-size="11.00">0 rows</text>
<polygon fill="#ffffff" stroke="none" points="770,-116 770,-134 795,-134 795,-116 770,-116"/>
<polygon fill="none" stroke="black" points="770,-116 770,-134 795,-134 795,-116 770,-116"/>
<text text-anchor="start" x="775" y="-122.2" font-family="Helvetica,sans-Serif" font-size="11.00">1 &gt;</text>
</a>
</g>
</g>
<!-- uploads&#45;&gt;users -->
<g id="edge19" class="edge"><title>uploads:elipses:w&#45;&gt;users:id:e</title>
<path fill="none" stroke="black" d="M685.301,-142.854C561.479,-140.371 521.428,-107.526 395,-140 375.349,-145.048 375.289,-162 355,-162"/>
<polygon fill="black" stroke="black" points="692,-142.92 699.964,-146.6 696,-142.96 700,-143 700,-143 700,-143 696,-142.96 700.036,-139.4 692,-142.92 692,-142.92"/>
<ellipse fill="none" stroke="black" cx="688.801" cy="-142.888" rx="3.2" ry="3.2"/>
</g>
<!-- uploads&#45;&gt;organizations -->
<g id="edge20" class="edge"><title>uploads:elipses:w&#45;&gt;organizations:id:e</title>
<path fill="none" stroke="black" d="M685.367,-143.532C654.939,-145.984 640.448,-157.281 618,-185 575.118,-237.952 646.138,-333 578,-333"/>
<polygon fill="black" stroke="black" points="692.005,-143.291 700.131,-146.598 696.003,-143.145 700,-143 700,-143 700,-143 696.003,-143.145 699.869,-139.402 692.005,-143.291 692.005,-143.291"/>
<ellipse fill="none" stroke="black" cx="688.807" cy="-143.407" rx="3.2" ry="3.2"/>
</g>
</g>
</svg>
