<?xml version="1.0" encoding="UTF-8" standalone="no"?>
<!DOCTYPE svg PUBLIC "-//W3C//DTD SVG 1.1//EN"
 "http://www.w3.org/Graphics/SVG/1.1/DTD/svg11.dtd">
<!-- Generated by graphviz version 2.38.0 (20140413.2041)
 -->
<!-- Title: twoDegreesRelationshipsDiagram Pages: 1 -->
<svg width="1231pt" height="657pt"
 viewBox="0.00 0.00 1231.00 657.00" xmlns="http://www.w3.org/2000/svg" xmlns:xlink="http://www.w3.org/1999/xlink">
<g id="graph0" class="graph" transform="scale(1 1) rotate(0) translate(4 653)">
<title>twoDegreesRelationshipsDiagram</title>
<polygon fill="#ffffff" stroke="none" points="-4,4 -4,-653 1227,-653 1227,4 -4,4"/>
<text text-anchor="middle" x="74.5" y="-7.2" font-family="Helvetica,sans-Serif" font-size="11.00">Generated by SchemaSpy</text>
<!-- country_subdivisions -->
<g id="node1" class="node"><title>country_subdivisions</title>
<g id="a_node1"><a xlink:href="../../tables/country_subdivisions.html" xlink:title="country_subdivisions" target="_top">
<polygon fill="#ffffff" stroke="none" points="160,-524 160,-582 329,-582 329,-524 160,-524"/>
<polygon fill="#f5f5f5" stroke="none" points="160.5,-560 160.5,-582 329.5,-582 329.5,-560 160.5,-560"/>
<polygon fill="none" stroke="black" points="160.5,-560 160.5,-582 329.5,-582 329.5,-560 160.5,-560"/>
<text text-anchor="start" x="165.5" y="-569.2" font-family="Helvetica,sans-Serif" font-weight="bold" font-size="11.00">country_subdivisions</text>
<text text-anchor="start" x="290.5" y="-568.2" font-family="Helvetica,sans-Serif" font-size="11.00">[table]</text>
<polygon fill="none" stroke="black" points="160.5,-542 160.5,-560 329.5,-560 329.5,-542 160.5,-542"/>
<text text-anchor="start" x="163.5" y="-548.2" font-family="Helvetica,sans-Serif" font-size="11.00">...</text>
<polygon fill="#ffffff" stroke="none" points="160.5,-524 160.5,-542 220.5,-542 220.5,-524 160.5,-524"/>
<polygon fill="none" stroke="black" points="160.5,-524 160.5,-542 220.5,-542 220.5,-524 160.5,-524"/>
<text text-anchor="start" x="163.5" y="-530.2" font-family="Helvetica,sans-Serif" font-size="11.00">&lt; 1</text>
<polygon fill="#ffffff" stroke="none" points="220.5,-524 220.5,-542 287.5,-542 287.5,-524 220.5,-524"/>
<polygon fill="none" stroke="black" points="220.5,-524 220.5,-542 287.5,-542 287.5,-524 220.5,-524"/>
<text text-anchor="start" x="241.5" y="-530.2" font-family="Helvetica,sans-Serif" font-size="11.00">57 rows</text>
<polygon fill="#ffffff" stroke="none" points="287.5,-524 287.5,-542 329.5,-542 329.5,-524 287.5,-524"/>
<polygon fill="none" stroke="black" points="287.5,-524 287.5,-542 329.5,-542 329.5,-524 287.5,-524"/>
<text text-anchor="start" x="309.5" y="-530.2" font-family="Helvetica,sans-Serif" font-size="11.00">1 &gt;</text>
</a>
</g>
</g>
<!-- countries -->
<g id="node2" class="node"><title>countries</title>
<g id="a_node2"><a xlink:href="../../tables/countries.html" xlink:title="countries" target="_top">
<polygon fill="#ffffff" stroke="none" points="8,-551 8,-609 111,-609 111,-551 8,-551"/>
<polygon fill="#f5f5f5" stroke="none" points="8.5,-587 8.5,-609 111.5,-609 111.5,-587 8.5,-587"/>
<polygon fill="none" stroke="black" points="8.5,-587 8.5,-609 111.5,-609 111.5,-587 8.5,-587"/>
<text text-anchor="start" x="13.5" y="-596.2" font-family="Helvetica,sans-Serif" font-weight="bold" font-size="11.00">countries</text>
<text text-anchor="start" x="72.5" y="-595.2" font-family="Helvetica,sans-Serif" font-size="11.00">[table]</text>
<polygon fill="none" stroke="black" points="8.5,-569 8.5,-587 111.5,-587 111.5,-569 8.5,-569"/>
<text text-anchor="start" x="11.5" y="-575.2" font-family="Helvetica,sans-Serif" font-size="11.00">...</text>
<polygon fill="#ffffff" stroke="none" points="8.5,-551 8.5,-569 27.5,-569 27.5,-551 8.5,-551"/>
<polygon fill="none" stroke="black" points="8.5,-551 8.5,-569 27.5,-569 27.5,-551 8.5,-551"/>
<text text-anchor="start" x="11.5" y="-557.2" font-family="Helvetica,sans-Serif" font-size="11.00"> &#160;</text>
<polygon fill="#ffffff" stroke="none" points="27.5,-551 27.5,-569 85.5,-569 85.5,-551 27.5,-551"/>
<polygon fill="none" stroke="black" points="27.5,-551 27.5,-569 85.5,-569 85.5,-551 27.5,-551"/>
<text text-anchor="start" x="33.5" y="-557.2" font-family="Helvetica,sans-Serif" font-size="11.00">249 rows</text>
<polygon fill="#ffffff" stroke="none" points="85.5,-551 85.5,-569 111.5,-569 111.5,-551 85.5,-551"/>
<polygon fill="none" stroke="black" points="85.5,-551 85.5,-569 111.5,-569 111.5,-551 85.5,-551"/>
<text text-anchor="start" x="91.5" y="-557.2" font-family="Helvetica,sans-Serif" font-size="11.00">2 &gt;</text>
</a>
</g>
</g>
<!-- country_subdivisions&#45;&gt;countries -->
<g id="edge1" class="edge"><title>country_subdivisions:elipses:w&#45;&gt;countries:elipses:e</title>
<path fill="none" stroke="black" d="M145.381,-555.219C134.421,-562.812 130.568,-578 112.5,-578"/>
<polygon fill="black" stroke="black" points="151.835,-553.29 160.531,-554.449 155.667,-552.145 159.5,-551 159.5,-551 159.5,-551 155.667,-552.145 158.469,-547.551 151.835,-553.29 151.835,-553.29"/>
<ellipse fill="none" stroke="black" cx="148.769" cy="-554.206" rx="3.20001" ry="3.20001"/>
</g>
<!-- facilities -->
<g id="node3" class="node"><title>facilities</title>
<g id="a_node3"><a xlink:href="../../tables/facilities.html" xlink:title="facilities" target="_top">
<polygon fill="#ffffff" stroke="none" points="1117,-342 1117,-400 1215,-400 1215,-342 1117,-342"/>
<polygon fill="#f5f5f5" stroke="none" points="1117,-378 1117,-400 1215,-400 1215,-378 1117,-378"/>
<polygon fill="none" stroke="black" points="1117,-378 1117,-400 1215,-400 1215,-378 1117,-378"/>
<text text-anchor="start" x="1122" y="-387.2" font-family="Helvetica,sans-Serif" font-weight="bold" font-size="11.00">facilities</text>
<text text-anchor="start" x="1176" y="-386.2" font-family="Helvetica,sans-Serif" font-size="11.00">[table]</text>
<polygon fill="none" stroke="black" points="1117,-360 1117,-378 1215,-378 1215,-360 1117,-360"/>
<text text-anchor="start" x="1120" y="-366.2" font-family="Helvetica,sans-Serif" font-size="11.00">...</text>
<polygon fill="#ffffff" stroke="none" points="1117,-342 1117,-360 1145,-360 1145,-342 1117,-342"/>
<polygon fill="none" stroke="black" points="1117,-342 1117,-360 1145,-360 1145,-342 1117,-342"/>
<text text-anchor="start" x="1120" y="-348.2" font-family="Helvetica,sans-Serif" font-size="11.00">&lt; 2</text>
<polygon fill="#ffffff" stroke="none" points="1145,-342 1145,-360 1189,-360 1189,-342 1145,-342"/>
<polygon fill="none" stroke="black" points="1145,-342 1145,-360 1189,-360 1189,-342 1145,-342"/>
<text text-anchor="start" x="1150" y="-348.2" font-family="Helvetica,sans-Serif" font-size="11.00">0 rows</text>
<polygon fill="#ffffff" stroke="none" points="1189,-342 1189,-360 1215,-360 1215,-342 1189,-342"/>
<polygon fill="none" stroke="black" points="1189,-342 1189,-360 1215,-360 1215,-342 1189,-342"/>
<text text-anchor="start" x="1195" y="-348.2" font-family="Helvetica,sans-Serif" font-size="11.00">1 &gt;</text>
</a>
</g>
</g>
<!-- sites -->
<g id="node4" class="node"><title>sites</title>
<g id="a_node4"><a xlink:href="../../tables/sites.html" xlink:title="sites" target="_top">
<polygon fill="#ffffff" stroke="none" points="923.5,-300 923.5,-402 1030.5,-402 1030.5,-300 923.5,-300"/>
<polygon fill="#f5f5f5" stroke="none" points="924,-380 924,-402 1031,-402 1031,-380 924,-380"/>
<polygon fill="none" stroke="black" points="924,-380 924,-402 1031,-402 1031,-380 924,-380"/>
<text text-anchor="start" x="929" y="-389.2" font-family="Helvetica,sans-Serif" font-weight="bold" font-size="11.00">sites</text>
<text text-anchor="start" x="992" y="-388.2" font-family="Helvetica,sans-Serif" font-size="11.00">[table]</text>
<polygon fill="none" stroke="black" points="924,-358 924,-380 1031,-380 1031,-358 924,-358"/>
<image xlink:href="../../images/primaryKeys.png" width="11px" height="12px" preserveAspectRatio="xMinYMin meet" x="929" y="-375"/>
<text text-anchor="start" x="944" y="-366.2" font-family="Helvetica,sans-Serif" font-size="11.00">id</text>
<polygon fill="none" stroke="black" points="924,-336 924,-358 1031,-358 1031,-336 924,-336"/>
<image xlink:href="../../images/foreignKeys.png" width="11px" height="12px" preserveAspectRatio="xMinYMin meet" x="929" y="-353"/>
<text text-anchor="start" x="944" y="-344.2" font-family="Helvetica,sans-Serif" font-size="11.00">project_id</text>
<polygon fill="none" stroke="black" points="924,-318 924,-336 1031,-336 1031,-318 924,-318"/>
<text text-anchor="start" x="927" y="-324.2" font-family="Helvetica,sans-Serif" font-size="11.00">...</text>
<polygon fill="#ffffff" stroke="none" points="924,-300 924,-318 956,-318 956,-300 924,-300"/>
<polygon fill="none" stroke="black" points="924,-300 924,-318 956,-318 956,-300 924,-300"/>
<text text-anchor="start" x="927" y="-306.2" font-family="Helvetica,sans-Serif" font-size="11.00">&lt; 1</text>
<polygon fill="#ffffff" stroke="none" points="956,-300 956,-318 1003,-318 1003,-300 956,-300"/>
<polygon fill="none" stroke="black" points="956,-300 956,-318 1003,-318 1003,-300 956,-300"/>
<text text-anchor="start" x="964" y="-306.2" font-family="Helvetica,sans-Serif" font-size="11.00">0 rows</text>
<polygon fill="#ffffff" stroke="none" points="1003,-300 1003,-318 1031,-318 1031,-300 1003,-300"/>
<polygon fill="none" stroke="black" points="1003,-300 1003,-318 1031,-318 1031,-300 1003,-300"/>
<text text-anchor="start" x="1011" y="-306.2" font-family="Helvetica,sans-Serif" font-size="11.00">1 &gt;</text>
</a>
</g>
</g>
<!-- facilities&#45;&gt;sites -->
<g id="edge2" class="edge"><title>facilities:elipses:w&#45;&gt;sites:id:e</title>
<path fill="none" stroke="black" d="M1101.4,-369C1075.38,-369 1063.94,-369 1032,-369"/>
<polygon fill="black" stroke="black" points="1108,-369 1116,-372.6 1112,-369 1116,-369 1116,-369 1116,-369 1112,-369 1116,-365.4 1108,-369 1108,-369"/>
<ellipse fill="none" stroke="black" cx="1104.8" cy="-369" rx="3.2" ry="3.2"/>
</g>
<!-- projects -->
<g id="node9" class="node"><title>projects</title>
<g id="a_node9"><a xlink:href="../../tables/projects.html" xlink:title="projects" target="_top">
<polygon fill="#ffffff" stroke="none" points="601,-116 601,-468 837,-468 837,-116 601,-116"/>
<polygon fill="#f5f5f5" stroke="none" points="603,-444 603,-466 835,-466 835,-444 603,-444"/>
<polygon fill="none" stroke="black" points="603,-444 603,-466 835,-466 835,-444 603,-444"/>
<text text-anchor="start" x="608" y="-453.2" font-family="Helvetica,sans-Serif" font-weight="bold" font-size="11.00">projects</text>
<text text-anchor="start" x="796" y="-452.2" font-family="Helvetica,sans-Serif" font-size="11.00">[table]</text>
<polygon fill="none" stroke="black" points="603,-422 603,-444 733,-444 733,-422 603,-422"/>
<image xlink:href="../../images/primaryKeys.png" width="11px" height="12px" preserveAspectRatio="xMinYMin meet" x="608" y="-439"/>
<text text-anchor="start" x="623" y="-430.2" font-family="Helvetica,sans-Serif" font-size="11.00">id</text>
<polygon fill="none" stroke="black" points="733,-422 733,-444 835,-444 835,-422 733,-422"/>
<text text-anchor="start" x="736" y="-430.2" font-family="Helvetica,sans-Serif" font-size="11.00">int8[19]</text>
<polygon fill="none" stroke="black" points="603,-400 603,-422 733,-422 733,-400 603,-400"/>
<image xlink:href="../../images/foreignKeys.png" width="11px" height="12px" preserveAspectRatio="xMinYMin meet" x="608" y="-417"/>
<text text-anchor="start" x="623" y="-408.2" font-family="Helvetica,sans-Serif" font-size="11.00">organization_id</text>
<polygon fill="none" stroke="black" points="733,-400 733,-422 835,-422 835,-400 733,-400"/>
<text text-anchor="start" x="736" y="-408.2" font-family="Helvetica,sans-Serif" font-size="11.00">int8[19]</text>
<polygon fill="none" stroke="black" points="603,-378 603,-400 733,-400 733,-378 603,-378"/>
<text text-anchor="start" x="623" y="-386.2" font-family="Helvetica,sans-Serif" font-size="11.00">name</text>
<polygon fill="none" stroke="black" points="733,-378 733,-400 835,-400 835,-378 733,-378"/>
<text text-anchor="start" x="736" y="-386.2" font-family="Helvetica,sans-Serif" font-size="11.00">text[2147483647]</text>
<polygon fill="none" stroke="black" points="603,-356 603,-378 733,-378 733,-356 603,-356"/>
<text text-anchor="start" x="623" y="-364.2" font-family="Helvetica,sans-Serif" font-size="11.00">description</text>
<polygon fill="none" stroke="black" points="733,-356 733,-378 835,-378 835,-356 733,-356"/>
<text text-anchor="start" x="736" y="-364.2" font-family="Helvetica,sans-Serif" font-size="11.00">text[2147483647]</text>
<polygon fill="none" stroke="black" points="603,-334 603,-356 733,-356 733,-334 603,-334"/>
<text text-anchor="start" x="623" y="-342.2" font-family="Helvetica,sans-Serif" font-size="11.00">location</text>
<polygon fill="none" stroke="black" points="733,-334 733,-356 835,-356 835,-334 733,-334"/>
<text text-anchor="start" x="736" y="-342.2" font-family="Helvetica,sans-Serif" font-size="11.00">text[2147483647]</text>
<polygon fill="none" stroke="black" points="603,-312 603,-334 733,-334 733,-312 603,-312"/>
<image xlink:href="../../images/foreignKeys.png" width="11px" height="12px" preserveAspectRatio="xMinYMin meet" x="608" y="-329"/>
<text text-anchor="start" x="623" y="-320.2" font-family="Helvetica,sans-Serif" font-size="11.00">status_id</text>
<polygon fill="none" stroke="black" points="733,-312 733,-334 835,-334 835,-312 733,-312"/>
<text text-anchor="start" x="736" y="-320.2" font-family="Helvetica,sans-Serif" font-size="11.00">int4[10]</text>
<polygon fill="none" stroke="black" points="603,-290 603,-312 733,-312 733,-290 603,-290"/>
<text text-anchor="start" x="623" y="-298.2" font-family="Helvetica,sans-Serif" font-size="11.00">start_date</text>
<polygon fill="none" stroke="black" points="733,-290 733,-312 835,-312 835,-290 733,-290"/>
<text text-anchor="start" x="736" y="-298.2" font-family="Helvetica,sans-Serif" font-size="11.00">date[13]</text>
<polygon fill="none" stroke="black" points="603,-268 603,-290 733,-290 733,-268 603,-268"/>
<text text-anchor="start" x="623" y="-276.2" font-family="Helvetica,sans-Serif" font-size="11.00">end_date</text>
<polygon fill="none" stroke="black" points="733,-268 733,-290 835,-290 835,-268 733,-268"/>
<text text-anchor="start" x="736" y="-276.2" font-family="Helvetica,sans-Serif" font-size="11.00">date[13]</text>
<polygon fill="none" stroke="black" points="603,-246 603,-268 733,-268 733,-246 603,-246"/>
<text text-anchor="start" x="623" y="-254.2" font-family="Helvetica,sans-Serif" font-size="11.00">created_time</text>
<polygon fill="none" stroke="black" points="733,-246 733,-268 835,-268 835,-246 733,-246"/>
<text text-anchor="start" x="736" y="-254.2" font-family="Helvetica,sans-Serif" font-size="11.00">timestamptz[35,6]</text>
<polygon fill="none" stroke="black" points="603,-224 603,-246 733,-246 733,-224 603,-224"/>
<text text-anchor="start" x="623" y="-232.2" font-family="Helvetica,sans-Serif" font-size="11.00">modified_time</text>
<polygon fill="none" stroke="black" points="733,-224 733,-246 835,-246 835,-224 733,-224"/>
<text text-anchor="start" x="736" y="-232.2" font-family="Helvetica,sans-Serif" font-size="11.00">timestamptz[35,6]</text>
<polygon fill="none" stroke="black" points="603,-202 603,-224 733,-224 733,-202 603,-202"/>
<text text-anchor="start" x="623" y="-210.2" font-family="Helvetica,sans-Serif" font-size="11.00">disabled_time</text>
<polygon fill="none" stroke="black" points="733,-202 733,-224 835,-224 835,-202 733,-202"/>
<text text-anchor="start" x="736" y="-210.2" font-family="Helvetica,sans-Serif" font-size="11.00">timestamptz[35,6]</text>
<polygon fill="none" stroke="black" points="603,-180 603,-202 733,-202 733,-180 603,-180"/>
<image xlink:href="../../images/foreignKeys.png" width="11px" height="12px" preserveAspectRatio="xMinYMin meet" x="608" y="-197"/>
<text text-anchor="start" x="623" y="-188.2" font-family="Helvetica,sans-Serif" font-size="11.00">pm_user_id</text>
<polygon fill="none" stroke="black" points="733,-180 733,-202 835,-202 835,-180 733,-180"/>
<text text-anchor="start" x="736" y="-188.2" font-family="Helvetica,sans-Serif" font-size="11.00">int8[19]</text>
<polygon fill="none" stroke="black" points="603,-158 603,-180 733,-180 733,-158 603,-158"/>
<text text-anchor="start" x="623" y="-166.2" font-family="Helvetica,sans-Serif" font-size="11.00">organization_wide</text>
<polygon fill="none" stroke="black" points="733,-158 733,-180 835,-180 835,-158 733,-158"/>
<text text-anchor="start" x="736" y="-166.2" font-family="Helvetica,sans-Serif" font-size="11.00">bool[1]</text>
<polygon fill="none" stroke="black" points="603,-136 603,-158 733,-158 733,-136 603,-136"/>
<text text-anchor="start" x="623" y="-144.2" font-family="Helvetica,sans-Serif" font-size="11.00">hidden</text>
<polygon fill="none" stroke="black" points="733,-136 733,-158 835,-158 835,-136 733,-136"/>
<text text-anchor="start" x="736" y="-144.2" font-family="Helvetica,sans-Serif" font-size="11.00">bool[1]</text>
<polygon fill="#ffffff" stroke="none" points="603,-118 603,-136 658,-136 658,-118 603,-118"/>
<polygon fill="none" stroke="black" points="603,-118 603,-136 658,-136 658,-118 603,-118"/>
<text text-anchor="start" x="606" y="-124.2" font-family="Helvetica,sans-Serif" font-size="11.00">&lt; 3</text>
<polygon fill="#ffffff" stroke="none" points="658,-118 658,-136 733,-136 733,-118 658,-118"/>
<polygon fill="none" stroke="black" points="658,-118 658,-136 733,-136 733,-118 658,-118"/>
<text text-anchor="start" x="694" y="-124.2" font-family="Helvetica,sans-Serif" font-size="11.00">0 rows</text>
<polygon fill="#ffffff" stroke="none" points="733,-118 733,-136 835,-136 835,-118 733,-118"/>
<polygon fill="none" stroke="black" points="733,-118 733,-136 835,-136 835,-118 733,-118"/>
<text text-anchor="start" x="815" y="-124.2" font-family="Helvetica,sans-Serif" font-size="11.00">3 &gt;</text>
<polygon fill="none" stroke="black" stroke-width="2" points="602,-117 602,-467 836,-467 836,-117 602,-117"/>
</a>
</g>
</g>
<!-- sites&#45;&gt;projects -->
<g id="edge14" class="edge"><title>sites:project_id:w&#45;&gt;projects:id.type:e</title>
<path fill="none" stroke="black" d="M908.63,-349.481C872.261,-363.582 884.848,-433 836,-433"/>
<polygon fill="black" stroke="black" points="915.117,-348.361 923.613,-350.548 919.058,-347.681 923,-347 923,-347 923,-347 919.058,-347.681 922.387,-343.452 915.117,-348.361 915.117,-348.361"/>
<ellipse fill="none" stroke="black" cx="911.963" cy="-348.906" rx="3.2" ry="3.2"/>
</g>
<!-- organization_users -->
<g id="node5" class="node"><title>organization_users</title>
<g id="a_node5"><a xlink:href="../../tables/organization_users.html" xlink:title="organization_users" target="_top">
<polygon fill="#ffffff" stroke="none" points="642,-539 642,-597 796,-597 796,-539 642,-539"/>
<polygon fill="#f5f5f5" stroke="none" points="642,-575 642,-597 796,-597 796,-575 642,-575"/>
<polygon fill="none" stroke="black" points="642,-575 642,-597 796,-597 796,-575 642,-575"/>
<text text-anchor="start" x="647" y="-584.2" font-family="Helvetica,sans-Serif" font-weight="bold" font-size="11.00">organization_users</text>
<text text-anchor="start" x="757" y="-583.2" font-family="Helvetica,sans-Serif" font-size="11.00">[table]</text>
<polygon fill="none" stroke="black" points="642,-557 642,-575 796,-575 796,-557 642,-557"/>
<text text-anchor="start" x="645" y="-563.2" font-family="Helvetica,sans-Serif" font-size="11.00">...</text>
<polygon fill="#ffffff" stroke="none" points="642,-539 642,-557 703,-557 703,-539 642,-539"/>
<polygon fill="none" stroke="black" points="642,-539 642,-557 703,-557 703,-539 642,-539"/>
<text text-anchor="start" x="645" y="-545.2" font-family="Helvetica,sans-Serif" font-size="11.00">&lt; 3</text>
<polygon fill="#ffffff" stroke="none" points="703,-539 703,-557 764,-557 764,-539 703,-539"/>
<polygon fill="none" stroke="black" points="703,-539 703,-557 764,-557 764,-539 703,-539"/>
<text text-anchor="start" x="725" y="-545.2" font-family="Helvetica,sans-Serif" font-size="11.00">0 rows</text>
<polygon fill="#ffffff" stroke="none" points="764,-539 764,-557 796,-557 796,-539 764,-539"/>
<polygon fill="none" stroke="black" points="764,-539 764,-557 796,-557 796,-539 764,-539"/>
<text text-anchor="start" x="786" y="-545.2" font-family="Helvetica,sans-Serif" font-size="11.00"> &#160;</text>
</a>
</g>
</g>
<!-- organizations -->
<g id="node6" class="node"><title>organizations</title>
<g id="a_node6"><a xlink:href="../../tables/organizations.html" xlink:title="organizations" target="_top">
<polygon fill="#ffffff" stroke="none" points="378,-521 378,-645 552,-645 552,-521 378,-521"/>
<polygon fill="#f5f5f5" stroke="none" points="378,-623 378,-645 552,-645 552,-623 378,-623"/>
<polygon fill="none" stroke="black" points="378,-623 378,-645 552,-645 552,-623 378,-623"/>
<text text-anchor="start" x="383" y="-632.2" font-family="Helvetica,sans-Serif" font-weight="bold" font-size="11.00">organizations</text>
<text text-anchor="start" x="513" y="-631.2" font-family="Helvetica,sans-Serif" font-size="11.00">[table]</text>
<polygon fill="none" stroke="black" points="378,-601 378,-623 552,-623 552,-601 378,-601"/>
<image xlink:href="../../images/primaryKeys.png" width="11px" height="12px" preserveAspectRatio="xMinYMin meet" x="383" y="-618"/>
<text text-anchor="start" x="398" y="-609.2" font-family="Helvetica,sans-Serif" font-size="11.00">id</text>
<polygon fill="none" stroke="black" points="378,-579 378,-601 552,-601 552,-579 378,-579"/>
<image xlink:href="../../images/foreignKeys.png" width="11px" height="12px" preserveAspectRatio="xMinYMin meet" x="383" y="-596"/>
<text text-anchor="start" x="398" y="-587.2" font-family="Helvetica,sans-Serif" font-size="11.00">country_code</text>
<polygon fill="none" stroke="black" points="378,-557 378,-579 552,-579 552,-557 378,-557"/>
<image xlink:href="../../images/foreignKeys.png" width="11px" height="12px" preserveAspectRatio="xMinYMin meet" x="383" y="-574"/>
<text text-anchor="start" x="398" y="-565.2" font-family="Helvetica,sans-Serif" font-size="11.00">country_subdivision_code</text>
<polygon fill="none" stroke="black" points="378,-539 378,-557 552,-557 552,-539 378,-539"/>
<text text-anchor="start" x="381" y="-545.2" font-family="Helvetica,sans-Serif" font-size="11.00">...</text>
<polygon fill="#ffffff" stroke="none" points="378,-521 378,-539 444,-539 444,-521 378,-521"/>
<polygon fill="none" stroke="black" points="378,-521 378,-539 444,-539 444,-521 378,-521"/>
<text text-anchor="start" x="381" y="-527.2" font-family="Helvetica,sans-Serif" font-size="11.00">&lt; 2</text>
<polygon fill="#ffffff" stroke="none" points="444,-521 444,-539 507,-539 507,-521 444,-521"/>
<polygon fill="none" stroke="black" points="444,-521 444,-539 507,-539 507,-521 444,-521"/>
<text text-anchor="start" x="468" y="-527.2" font-family="Helvetica,sans-Serif" font-size="11.00">0 rows</text>
<polygon fill="#ffffff" stroke="none" points="507,-521 507,-539 552,-539 552,-521 507,-521"/>
<polygon fill="none" stroke="black" points="507,-521 507,-539 552,-539 552,-521 507,-521"/>
<text text-anchor="start" x="532" y="-527.2" font-family="Helvetica,sans-Serif" font-size="11.00">2 &gt;</text>
</a>
</g>
</g>
<!-- organization_users&#45;&gt;organizations -->
<g id="edge3" class="edge"><title>organization_users:elipses:w&#45;&gt;organizations:id:e</title>
<path fill="none" stroke="black" d="M626.358,-567.977C596.24,-576.781 591.616,-612 553,-612"/>
<polygon fill="black" stroke="black" points="633.072,-567.07 641.482,-569.568 637.036,-566.535 641,-566 641,-566 641,-566 637.036,-566.535 640.518,-562.432 633.072,-567.07 633.072,-567.07"/>
<ellipse fill="none" stroke="black" cx="629.901" cy="-567.498" rx="3.2" ry="3.2"/>
</g>
<!-- users -->
<g id="node7" class="node"><title>users</title>
<g id="a_node7"><a xlink:href="../../tables/users.html" xlink:title="users" target="_top">
<polygon fill="#ffffff" stroke="none" points="402.5,-354 402.5,-500 527.5,-500 527.5,-354 402.5,-354"/>
<polygon fill="#f5f5f5" stroke="none" points="403,-478 403,-500 528,-500 528,-478 403,-478"/>
<polygon fill="none" stroke="black" points="403,-478 403,-500 528,-500 528,-478 403,-478"/>
<text text-anchor="start" x="408" y="-487.2" font-family="Helvetica,sans-Serif" font-weight="bold" font-size="11.00">users</text>
<text text-anchor="start" x="489" y="-486.2" font-family="Helvetica,sans-Serif" font-size="11.00">[table]</text>
<polygon fill="none" stroke="black" points="403,-456 403,-478 528,-478 528,-456 403,-456"/>
<image xlink:href="../../images/primaryKeys.png" width="11px" height="12px" preserveAspectRatio="xMinYMin meet" x="408" y="-473"/>
<text text-anchor="start" x="423" y="-464.2" font-family="Helvetica,sans-Serif" font-size="11.00">id</text>
<polygon fill="#ffffff" stroke="none" points="403,-434 403,-456 528,-456 528,-434 403,-434"/>
<polygon fill="none" stroke="black" points="403,-434 403,-456 528,-456 528,-434 403,-434"/>
<text text-anchor="start" x="423" y="-442.2" font-family="Helvetica,sans-Serif" font-size="11.00">auth_id</text>
<polygon fill="#ffffff" stroke="none" points="403,-412 403,-434 528,-434 528,-412 403,-412"/>
<polygon fill="none" stroke="black" points="403,-412 403,-434 528,-434 528,-412 403,-412"/>
<text text-anchor="start" x="423" y="-420.2" font-family="Helvetica,sans-Serif" font-size="11.00">email</text>
<polygon fill="none" stroke="black" points="403,-390 403,-412 528,-412 528,-390 403,-390"/>
<image xlink:href="../../images/foreignKeys.png" width="11px" height="12px" preserveAspectRatio="xMinYMin meet" x="408" y="-407"/>
<text text-anchor="start" x="423" y="-398.2" font-family="Helvetica,sans-Serif" font-size="11.00">user_type_id</text>
<polygon fill="none" stroke="black" points="403,-372 403,-390 528,-390 528,-372 403,-372"/>
<text text-anchor="start" x="406" y="-378.2" font-family="Helvetica,sans-Serif" font-size="11.00">...</text>
<polygon fill="#ffffff" stroke="none" points="403,-354 403,-372 447,-372 447,-354 403,-354"/>
<polygon fill="none" stroke="black" points="403,-354 403,-372 447,-372 447,-354 403,-354"/>
<text text-anchor="start" x="406" y="-360.2" font-family="Helvetica,sans-Serif" font-size="11.00">&lt; 1</text>
<polygon fill="#ffffff" stroke="none" points="447,-354 447,-372 494,-372 494,-354 447,-354"/>
<polygon fill="none" stroke="black" points="447,-354 447,-372 494,-372 494,-354 447,-354"/>
<text text-anchor="start" x="460" y="-360.2" font-family="Helvetica,sans-Serif" font-size="11.00">1 row</text>
<polygon fill="#ffffff" stroke="none" points="494,-354 494,-372 528,-372 528,-354 494,-354"/>
<polygon fill="none" stroke="black" points="494,-354 494,-372 528,-372 528,-354 494,-354"/>
<text text-anchor="start" x="508" y="-360.2" font-family="Helvetica,sans-Serif" font-size="11.00">3 &gt;</text>
</a>
</g>
</g>
<!-- organization_users&#45;&gt;users -->
<g id="edge4" class="edge"><title>organization_users:elipses:w&#45;&gt;users:id:e</title>
<path fill="none" stroke="black" d="M626.63,-564.197C577.346,-550.779 590.117,-467 529,-467"/>
<polygon fill="black" stroke="black" points="633.062,-565.004 640.552,-569.572 637.031,-565.502 641,-566 641,-566 641,-566 637.031,-565.502 641.448,-562.428 633.062,-565.004 633.062,-565.004"/>
<ellipse fill="none" stroke="black" cx="629.887" cy="-564.606" rx="3.2" ry="3.2"/>
</g>
<!-- organizations&#45;&gt;country_subdivisions -->
<g id="edge6" class="edge"><title>organizations:country_subdivision_code:w&#45;&gt;country_subdivisions:elipses:e</title>
<path fill="none" stroke="black" d="M362.864,-565.039C352.295,-560.168 346.66,-551 330.5,-551"/>
<polygon fill="black" stroke="black" points="369.17,-566.36 376.262,-571.524 373.085,-567.18 377,-568 377,-568 377,-568 373.085,-567.18 377.738,-564.476 369.17,-566.36 369.17,-566.36"/>
<ellipse fill="none" stroke="black" cx="366.038" cy="-565.704" rx="3.2" ry="3.2"/>
</g>
<!-- organizations&#45;&gt;countries -->
<g id="edge5" class="edge"><title>organizations:country_code:w&#45;&gt;countries:elipses:e</title>
<path fill="none" stroke="black" d="M362.573,-590.638C354.726,-591.379 348.83,-592.557 337,-593 254.835,-596.077 232.872,-607.839 152,-593 133.53,-589.611 131.279,-578 112.5,-578"/>
<polygon fill="black" stroke="black" points="369.008,-590.354 377.159,-593.596 373.004,-590.177 377,-590 377,-590 377,-590 373.004,-590.177 376.841,-586.404 369.008,-590.354 369.008,-590.354"/>
<ellipse fill="none" stroke="black" cx="365.811" cy="-590.495" rx="3.2" ry="3.2"/>
</g>
<!-- user_types -->
<g id="node13" class="node"><title>user_types</title>
<g id="a_node13"><a xlink:href="../../tables/user_types.html" xlink:title="user_types" target="_top">
<polygon fill="#ffffff" stroke="none" points="190,-374 190,-432 299,-432 299,-374 190,-374"/>
<polygon fill="#f5f5f5" stroke="none" points="190.5,-410 190.5,-432 299.5,-432 299.5,-410 190.5,-410"/>
<polygon fill="none" stroke="black" points="190.5,-410 190.5,-432 299.5,-432 299.5,-410 190.5,-410"/>
<text text-anchor="start" x="195.5" y="-419.2" font-family="Helvetica,sans-Serif" font-weight="bold" font-size="11.00">user_types</text>
<text text-anchor="start" x="260.5" y="-418.2" font-family="Helvetica,sans-Serif" font-size="11.00">[table]</text>
<polygon fill="none" stroke="black" points="190.5,-392 190.5,-410 299.5,-410 299.5,-392 190.5,-392"/>
<text text-anchor="start" x="193.5" y="-398.2" font-family="Helvetica,sans-Serif" font-size="11.00">...</text>
<polygon fill="#ffffff" stroke="none" points="190.5,-374 190.5,-392 218.5,-392 218.5,-374 190.5,-374"/>
<polygon fill="none" stroke="black" points="190.5,-374 190.5,-392 218.5,-392 218.5,-374 190.5,-374"/>
<text text-anchor="start" x="193.5" y="-380.2" font-family="Helvetica,sans-Serif" font-size="11.00"> &#160;</text>
<polygon fill="#ffffff" stroke="none" points="218.5,-374 218.5,-392 268.5,-392 268.5,-374 218.5,-374"/>
<polygon fill="none" stroke="black" points="218.5,-374 218.5,-392 268.5,-392 268.5,-374 218.5,-374"/>
<text text-anchor="start" x="229.5" y="-380.2" font-family="Helvetica,sans-Serif" font-size="11.00">4 rows</text>
<polygon fill="#ffffff" stroke="none" points="268.5,-374 268.5,-392 299.5,-392 299.5,-374 268.5,-374"/>
<polygon fill="none" stroke="black" points="268.5,-374 268.5,-392 299.5,-392 299.5,-374 268.5,-374"/>
<text text-anchor="start" x="279.5" y="-380.2" font-family="Helvetica,sans-Serif" font-size="11.00">1 &gt;</text>
</a>
</g>
</g>
<!-- users&#45;&gt;user_types -->
<g id="edge15" class="edge"><title>users:user_type_id:w&#45;&gt;user_types:elipses:e</title>
<path fill="none" stroke="black" d="M387.426,-401C353.781,-401 340.325,-401 300.5,-401"/>
<polygon fill="black" stroke="black" points="394,-401 402,-404.6 398,-401 402,-401 402,-401 402,-401 398,-401 402,-397.4 394,-401 394,-401"/>
<ellipse fill="none" stroke="black" cx="390.8" cy="-401" rx="3.2" ry="3.2"/>
</g>
<!-- project_type_selections -->
<g id="node8" class="node"><title>project_type_selections</title>
<g id="a_node8"><a xlink:href="../../tables/project_type_selections.html" xlink:title="project_type_selections" target="_top">
<polygon fill="#ffffff" stroke="none" points="886,-115 886,-199 1068,-199 1068,-115 886,-115"/>
<polygon fill="#f5f5f5" stroke="none" points="886,-177 886,-199 1068,-199 1068,-177 886,-177"/>
<polygon fill="none" stroke="black" points="886,-177 886,-199 1068,-199 1068,-177 886,-177"/>
<text text-anchor="start" x="891" y="-186.2" font-family="Helvetica,sans-Serif" font-weight="bold" font-size="11.00">project_type_selections</text>
<text text-anchor="start" x="1029" y="-185.2" font-family="Helvetica,sans-Serif" font-size="11.00">[table]</text>
<polygon fill="none" stroke="black" points="886,-155 886,-177 1068,-177 1068,-155 886,-155"/>
<image xlink:href="../../images/primaryKeys.png" width="11px" height="12px" preserveAspectRatio="xMinYMin meet" x="891" y="-172"/>
<text text-anchor="start" x="917" y="-163.2" font-family="Helvetica,sans-Serif" font-size="11.00">project_id</text>
<polygon fill="none" stroke="black" points="886,-133 886,-155 1068,-155 1068,-133 886,-133"/>
<image xlink:href="../../images/primaryKeys.png" width="11px" height="12px" preserveAspectRatio="xMinYMin meet" x="891" y="-150"/>
<text text-anchor="start" x="917" y="-141.2" font-family="Helvetica,sans-Serif" font-size="11.00">project_type_id</text>
<polygon fill="#ffffff" stroke="none" points="886,-115 886,-133 961,-133 961,-115 886,-115"/>
<polygon fill="none" stroke="black" points="886,-115 886,-133 961,-133 961,-115 886,-115"/>
<text text-anchor="start" x="889" y="-121.2" font-family="Helvetica,sans-Serif" font-size="11.00">&lt; 2</text>
<polygon fill="#ffffff" stroke="none" points="961,-115 961,-133 1029,-133 1029,-115 961,-115"/>
<polygon fill="none" stroke="black" points="961,-115 961,-133 1029,-133 1029,-115 961,-115"/>
<text text-anchor="start" x="990" y="-121.2" font-family="Helvetica,sans-Serif" font-size="11.00">0 rows</text>
<polygon fill="#ffffff" stroke="none" points="1029,-115 1029,-133 1068,-133 1068,-115 1029,-115"/>
<polygon fill="none" stroke="black" points="1029,-115 1029,-133 1068,-133 1068,-115 1029,-115"/>
<text text-anchor="start" x="1058" y="-121.2" font-family="Helvetica,sans-Serif" font-size="11.00"> &#160;</text>
</a>
</g>
</g>
<!-- project_type_selections&#45;&gt;projects -->
<g id="edge7" class="edge"><title>project_type_selections:project_id:w&#45;&gt;projects:id.type:e</title>
<path fill="none" stroke="black" d="M870.579,-167.568C780.997,-189.449 951.229,-433 836,-433"/>
<polygon fill="black" stroke="black" points="877.047,-166.865 885.389,-169.579 881.023,-166.432 885,-166 885,-166 885,-166 881.023,-166.432 884.611,-162.421 877.047,-166.865 877.047,-166.865"/>
<ellipse fill="none" stroke="black" cx="873.866" cy="-167.211" rx="3.2" ry="3.2"/>
</g>
<!-- project_types -->
<g id="node10" class="node"><title>project_types</title>
<g id="a_node10"><a xlink:href="../../tables/project_types.html" xlink:title="project_types" target="_top">
<polygon fill="#ffffff" stroke="none" points="656,-37 656,-95 782,-95 782,-37 656,-37"/>
<polygon fill="#f5f5f5" stroke="none" points="656,-73 656,-95 782,-95 782,-73 656,-73"/>
<polygon fill="none" stroke="black" points="656,-73 656,-95 782,-95 782,-73 656,-73"/>
<text text-anchor="start" x="661" y="-82.2" font-family="Helvetica,sans-Serif" font-weight="bold" font-size="11.00">project_types</text>
<text text-anchor="start" x="743" y="-81.2" font-family="Helvetica,sans-Serif" font-size="11.00">[table]</text>
<polygon fill="none" stroke="black" points="656,-55 656,-73 782,-73 782,-55 656,-55"/>
<text text-anchor="start" x="659" y="-61.2" font-family="Helvetica,sans-Serif" font-size="11.00">...</text>
<polygon fill="#ffffff" stroke="none" points="656,-37 656,-55 693,-55 693,-37 656,-37"/>
<polygon fill="none" stroke="black" points="656,-37 656,-55 693,-55 693,-37 656,-37"/>
<text text-anchor="start" x="659" y="-43.2" font-family="Helvetica,sans-Serif" font-size="11.00"> &#160;</text>
<polygon fill="#ffffff" stroke="none" points="693,-37 693,-55 747,-55 747,-37 693,-37"/>
<polygon fill="none" stroke="black" points="693,-37 693,-55 747,-55 747,-37 693,-37"/>
<text text-anchor="start" x="708" y="-43.2" font-family="Helvetica,sans-Serif" font-size="11.00">4 rows</text>
<polygon fill="#ffffff" stroke="none" points="747,-37 747,-55 782,-55 782,-37 747,-37"/>
<polygon fill="none" stroke="black" points="747,-37 747,-55 782,-55 782,-37 747,-37"/>
<text text-anchor="start" x="762" y="-43.2" font-family="Helvetica,sans-Serif" font-size="11.00">1 &gt;</text>
</a>
</g>
</g>
<!-- project_type_selections&#45;&gt;project_types -->
<g id="edge8" class="edge"><title>project_type_selections:project_type_id:w&#45;&gt;project_types:elipses:e</title>
<path fill="none" stroke="black" d="M870.993,-140.098C860.782,-132.781 859.497,-116.688 845,-105 819.281,-84.2658 816.036,-64 783,-64"/>
<polygon fill="black" stroke="black" points="877.294,-141.853 884.034,-147.468 881.147,-142.926 885,-144 885,-144 885,-144 881.147,-142.926 885.966,-140.532 877.294,-141.853 877.294,-141.853"/>
<ellipse fill="none" stroke="black" cx="874.211" cy="-140.994" rx="3.20001" ry="3.20001"/>
</g>
<!-- projects&#45;&gt;organizations -->
<g id="edge11" class="edge"><title>projects:organization_id:w&#45;&gt;organizations:id:e</title>
<path fill="none" stroke="black" d="M587.692,-413.121C525.554,-434.603 639.382,-612 553,-612"/>
<polygon fill="black" stroke="black" points="594.087,-412.173 602.528,-414.561 598.043,-411.587 602,-411 602,-411 602,-411 598.043,-411.587 601.472,-407.439 594.087,-412.173 594.087,-412.173"/>
<ellipse fill="none" stroke="black" cx="590.921" cy="-412.643" rx="3.2" ry="3.2"/>
</g>
<!-- projects&#45;&gt;users -->
<g id="edge12" class="edge"><title>projects:pm_user_id:w&#45;&gt;users:id:e</title>
<path fill="none" stroke="black" d="M588.359,-196.513C546.781,-235.413 587.114,-467 529,-467"/>
<polygon fill="black" stroke="black" points="594.583,-193.998 603.349,-194.338 598.291,-192.499 602,-191 602,-191 602,-191 598.291,-192.499 600.651,-187.662 594.583,-193.998 594.583,-193.998"/>
<ellipse fill="none" stroke="black" cx="591.616" cy="-195.197" rx="3.20001" ry="3.20001"/>
</g>
<!-- project_statuses -->
<g id="node12" class="node"><title>project_statuses</title>
<g id="a_node12"><a xlink:href="../../tables/project_statuses.html" xlink:title="project_statuses" target="_top">
<polygon fill="#ffffff" stroke="none" points="394,-249 394,-333 536,-333 536,-249 394,-249"/>
<polygon fill="#f5f5f5" stroke="none" points="394,-311 394,-333 536,-333 536,-311 394,-311"/>
<polygon fill="none" stroke="black" points="394,-311 394,-333 536,-333 536,-311 394,-311"/>
<text text-anchor="start" x="399" y="-320.2" font-family="Helvetica,sans-Serif" font-weight="bold" font-size="11.00">project_statuses</text>
<text text-anchor="start" x="497" y="-319.2" font-family="Helvetica,sans-Serif" font-size="11.00">[table]</text>
<polygon fill="none" stroke="black" points="394,-289 394,-311 536,-311 536,-289 394,-289"/>
<image xlink:href="../../images/primaryKeys.png" width="11px" height="12px" preserveAspectRatio="xMinYMin meet" x="399" y="-306"/>
<text text-anchor="start" x="426" y="-297.2" font-family="Helvetica,sans-Serif" font-size="11.00">id</text>
<polygon fill="#ffffff" stroke="none" points="394,-267 394,-289 536,-289 536,-267 394,-267"/>
<polygon fill="none" stroke="black" points="394,-267 394,-289 536,-289 536,-267 394,-267"/>
<text text-anchor="start" x="426" y="-275.2" font-family="Helvetica,sans-Serif" font-size="11.00">name</text>
<polygon fill="#ffffff" stroke="none" points="394,-249 394,-267 439,-267 439,-249 394,-249"/>
<polygon fill="none" stroke="black" points="394,-249 394,-267 439,-267 439,-249 394,-249"/>
<text text-anchor="start" x="397" y="-255.2" font-family="Helvetica,sans-Serif" font-size="11.00"> &#160;</text>
<polygon fill="#ffffff" stroke="none" points="439,-249 439,-267 497,-267 497,-249 439,-249"/>
<polygon fill="none" stroke="black" points="439,-249 439,-267 497,-267 497,-249 439,-249"/>
<text text-anchor="start" x="458" y="-255.2" font-family="Helvetica,sans-Serif" font-size="11.00">3 rows</text>
<polygon fill="#ffffff" stroke="none" points="497,-249 497,-267 536,-267 536,-249 497,-249"/>
<polygon fill="none" stroke="black" points="497,-249 497,-267 536,-267 536,-249 497,-249"/>
<text text-anchor="start" x="516" y="-255.2" font-family="Helvetica,sans-Serif" font-size="11.00">1 &gt;</text>
</a>
</g>
</g>
<!-- projects&#45;&gt;project_statuses -->
<g id="edge13" class="edge"><title>projects:status_id:w&#45;&gt;project_statuses:id:e</title>
<path fill="none" stroke="black" d="M587.512,-320.959C569.085,-315.33 562.018,-300 537,-300"/>
<polygon fill="black" stroke="black" points="594.078,-321.884 601.498,-326.565 598.039,-322.442 602,-323 602,-323 602,-323 598.039,-322.442 602.502,-319.435 594.078,-321.884 594.078,-321.884"/>
<ellipse fill="none" stroke="black" cx="590.91" cy="-321.438" rx="3.2" ry="3.2"/>
</g>
<!-- project_users -->
<g id="node11" class="node"><title>project_users</title>
<g id="a_node11"><a xlink:href="../../tables/project_users.html" xlink:title="project_users" target="_top">
<polygon fill="#ffffff" stroke="none" points="915,-423 915,-525 1039,-525 1039,-423 915,-423"/>
<polygon fill="#f5f5f5" stroke="none" points="915,-503 915,-525 1039,-525 1039,-503 915,-503"/>
<polygon fill="none" stroke="black" points="915,-503 915,-525 1039,-525 1039,-503 915,-503"/>
<text text-anchor="start" x="920" y="-512.2" font-family="Helvetica,sans-Serif" font-weight="bold" font-size="11.00">project_users</text>
<text text-anchor="start" x="1000" y="-511.2" font-family="Helvetica,sans-Serif" font-size="11.00">[table]</text>
<polygon fill="none" stroke="black" points="915,-481 915,-503 1039,-503 1039,-481 915,-481"/>
<image xlink:href="../../images/primaryKeys.png" width="11px" height="12px" preserveAspectRatio="xMinYMin meet" x="920" y="-498"/>
<text text-anchor="start" x="944" y="-489.2" font-family="Helvetica,sans-Serif" font-size="11.00">user_id</text>
<polygon fill="none" stroke="black" points="915,-459 915,-481 1039,-481 1039,-459 915,-459"/>
<image xlink:href="../../images/primaryKeys.png" width="11px" height="12px" preserveAspectRatio="xMinYMin meet" x="920" y="-476"/>
<text text-anchor="start" x="944" y="-467.2" font-family="Helvetica,sans-Serif" font-size="11.00">project_id</text>
<polygon fill="none" stroke="black" points="915,-441 915,-459 1039,-459 1039,-441 915,-441"/>
<text text-anchor="start" x="918" y="-447.2" font-family="Helvetica,sans-Serif" font-size="11.00">...</text>
<polygon fill="#ffffff" stroke="none" points="915,-423 915,-441 961,-441 961,-423 915,-423"/>
<polygon fill="none" stroke="black" points="915,-423 915,-441 961,-441 961,-423 915,-423"/>
<text text-anchor="start" x="918" y="-429.2" font-family="Helvetica,sans-Serif" font-size="11.00">&lt; 2</text>
<polygon fill="#ffffff" stroke="none" points="961,-423 961,-441 1014,-441 1014,-423 961,-423"/>
<polygon fill="none" stroke="black" points="961,-423 961,-441 1014,-441 1014,-423 961,-423"/>
<text text-anchor="start" x="975" y="-429.2" font-family="Helvetica,sans-Serif" font-size="11.00">0 rows</text>
<polygon fill="#ffffff" stroke="none" points="1014,-423 1014,-441 1039,-441 1039,-423 1014,-423"/>
<polygon fill="none" stroke="black" points="1014,-423 1014,-441 1039,-441 1039,-423 1014,-423"/>
<text text-anchor="start" x="1029" y="-429.2" font-family="Helvetica,sans-Serif" font-size="11.00"> &#160;</text>
</a>
</g>
</g>
<!-- project_users&#45;&gt;users -->
<g id="edge10" class="edge"><title>project_users:user_id:w&#45;&gt;users:id:e</title>
<path fill="none" stroke="black" d="M899.325,-492.004C768.521,-492.067 729.995,-492.701 593,-478 564.303,-474.921 557.862,-467 529,-467"/>
<polygon fill="black" stroke="black" points="906,-492.002 914.001,-495.6 910,-492.001 914,-492 914,-492 914,-492 910,-492.001 913.999,-488.4 906,-492.002 906,-492.002"/>
<ellipse fill="none" stroke="black" cx="902.8" cy="-492.003" rx="3.2" ry="3.2"/>
</g>
<!-- project_users&#45;&gt;projects -->
<g id="edge9" class="edge"><title>project_users:project_id:w&#45;&gt;projects:id.type:e</title>
<path fill="none" stroke="black" d="M899.465,-467.905C874.491,-460.078 868.824,-433 836,-433"/>
<polygon fill="black" stroke="black" points="906.082,-468.859 913.486,-473.563 910.041,-469.429 914,-470 914,-470 914,-470 910.041,-469.429 914.514,-466.437 906.082,-468.859 906.082,-468.859"/>
<ellipse fill="none" stroke="black" cx="902.915" cy="-468.402" rx="3.2" ry="3.2"/>
</g>
</g>
</svg>
