<?xml version="1.0" encoding="UTF-8" standalone="no"?>
<!DOCTYPE svg PUBLIC "-//W3C//DTD SVG 1.1//EN"
 "http://www.w3.org/Graphics/SVG/1.1/DTD/svg11.dtd">
<!-- Generated by graphviz version 2.38.0 (20140413.2041)
 -->
<!-- Title: twoDegreesRelationshipsDiagram Pages: 1 -->
<svg width="1368pt" height="712pt"
 viewBox="0.00 0.00 1368.00 711.51" xmlns="http://www.w3.org/2000/svg" xmlns:xlink="http://www.w3.org/1999/xlink">
<g id="graph0" class="graph" transform="scale(1 1) rotate(0) translate(4 707.51)">
<title>twoDegreesRelationshipsDiagram</title>
<polygon fill="#ffffff" stroke="none" points="-4,4 -4,-707.51 1364,-707.51 1364,4 -4,4"/>
<text text-anchor="middle" x="74.5" y="-7.2" font-family="Helvetica,sans-Serif" font-size="11.00">Generated by SchemaSpy</text>
<!-- device_managers -->
<g id="node1" class="node"><title>device_managers</title>
<g id="a_node1"><a xlink:href="../../tables/device_managers.html" xlink:title="device_managers" target="_top">
<polygon fill="#ffffff" stroke="none" points="1206,-641.51 1206,-699.51 1352,-699.51 1352,-641.51 1206,-641.51"/>
<polygon fill="#f5f5f5" stroke="none" points="1206,-677.51 1206,-699.51 1352,-699.51 1352,-677.51 1206,-677.51"/>
<polygon fill="none" stroke="black" points="1206,-677.51 1206,-699.51 1352,-699.51 1352,-677.51 1206,-677.51"/>
<text text-anchor="start" x="1211" y="-686.71" font-family="Helvetica,sans-Serif" font-weight="bold" font-size="11.00">device_managers</text>
<text text-anchor="start" x="1313" y="-685.71" font-family="Helvetica,sans-Serif" font-size="11.00">[table]</text>
<polygon fill="none" stroke="black" points="1206,-659.51 1206,-677.51 1352,-677.51 1352,-659.51 1206,-659.51"/>
<text text-anchor="start" x="1209" y="-665.71" font-family="Helvetica,sans-Serif" font-size="11.00">...</text>
<polygon fill="#ffffff" stroke="none" points="1206,-641.51 1206,-659.51 1263,-659.51 1263,-641.51 1206,-641.51"/>
<polygon fill="none" stroke="black" points="1206,-641.51 1206,-659.51 1263,-659.51 1263,-641.51 1206,-641.51"/>
<text text-anchor="start" x="1209" y="-647.71" font-family="Helvetica,sans-Serif" font-size="11.00">&lt; 2</text>
<polygon fill="#ffffff" stroke="none" points="1263,-641.51 1263,-659.51 1322,-659.51 1322,-641.51 1263,-641.51"/>
<polygon fill="none" stroke="black" points="1263,-641.51 1263,-659.51 1322,-659.51 1322,-641.51 1263,-641.51"/>
<text text-anchor="start" x="1283" y="-647.71" font-family="Helvetica,sans-Serif" font-size="11.00">0 rows</text>
<polygon fill="#ffffff" stroke="none" points="1322,-641.51 1322,-659.51 1352,-659.51 1352,-641.51 1322,-641.51"/>
<polygon fill="none" stroke="black" points="1322,-641.51 1322,-659.51 1352,-659.51 1352,-641.51 1322,-641.51"/>
<text text-anchor="start" x="1342" y="-647.71" font-family="Helvetica,sans-Serif" font-size="11.00"> &#160;</text>
</a>
</g>
</g>
<!-- facilities -->
<g id="node2" class="node"><title>facilities</title>
<g id="a_node2"><a xlink:href="../../tables/facilities.html" xlink:title="facilities" target="_top">
<polygon fill="#ffffff" stroke="none" points="1059,-614.51 1059,-672.51 1157,-672.51 1157,-614.51 1059,-614.51"/>
<polygon fill="#f5f5f5" stroke="none" points="1059,-650.51 1059,-672.51 1157,-672.51 1157,-650.51 1059,-650.51"/>
<polygon fill="none" stroke="black" points="1059,-650.51 1059,-672.51 1157,-672.51 1157,-650.51 1059,-650.51"/>
<text text-anchor="start" x="1064" y="-659.71" font-family="Helvetica,sans-Serif" font-weight="bold" font-size="11.00">facilities</text>
<text text-anchor="start" x="1118" y="-658.71" font-family="Helvetica,sans-Serif" font-size="11.00">[table]</text>
<polygon fill="none" stroke="black" points="1059,-632.51 1059,-650.51 1157,-650.51 1157,-632.51 1059,-632.51"/>
<text text-anchor="start" x="1062" y="-638.71" font-family="Helvetica,sans-Serif" font-size="11.00">...</text>
<polygon fill="#ffffff" stroke="none" points="1059,-614.51 1059,-632.51 1087,-632.51 1087,-614.51 1059,-614.51"/>
<polygon fill="none" stroke="black" points="1059,-614.51 1059,-632.51 1087,-632.51 1087,-614.51 1059,-614.51"/>
<text text-anchor="start" x="1062" y="-620.71" font-family="Helvetica,sans-Serif" font-size="11.00">&lt; 5</text>
<polygon fill="#ffffff" stroke="none" points="1087,-614.51 1087,-632.51 1131,-632.51 1131,-614.51 1087,-614.51"/>
<polygon fill="none" stroke="black" points="1087,-614.51 1087,-632.51 1131,-632.51 1131,-614.51 1087,-614.51"/>
<text text-anchor="start" x="1092" y="-620.71" font-family="Helvetica,sans-Serif" font-size="11.00">0 rows</text>
<polygon fill="#ffffff" stroke="none" points="1131,-614.51 1131,-632.51 1157,-632.51 1157,-614.51 1131,-614.51"/>
<polygon fill="none" stroke="black" points="1131,-614.51 1131,-632.51 1157,-632.51 1157,-614.51 1131,-614.51"/>
<text text-anchor="start" x="1137" y="-620.71" font-family="Helvetica,sans-Serif" font-size="11.00">1 &gt;</text>
</a>
</g>
</g>
<!-- device_managers&#45;&gt;facilities -->
<g id="edge1" class="edge"><title>device_managers:elipses:w&#45;&gt;facilities:elipses:e</title>
<path fill="none" stroke="black" d="M1194.56,-666.391C1180.57,-660.026 1177.95,-641.51 1158,-641.51"/>
<polygon fill="black" stroke="black" points="1205.01,-664.43 1203.42,-672.27 1201.85,-671.952 1203.44,-664.112 1205.01,-664.43"/>
<polyline fill="none" stroke="black" points="1205,-668.51 1201.08,-667.714 "/>
<ellipse fill="none" stroke="black" cx="1197.94" cy="-667.077" rx="3.20001" ry="3.20001"/>
</g>
<!-- users -->
<g id="node3" class="node"><title>users</title>
<g id="a_node3"><a xlink:href="../../tables/users.html" xlink:title="users" target="_top">
<polygon fill="#ffffff" stroke="none" points="166,-329.51 166,-475.51 354,-475.51 354,-329.51 166,-329.51"/>
<polygon fill="#f5f5f5" stroke="none" points="166,-453.51 166,-475.51 354,-475.51 354,-453.51 166,-453.51"/>
<polygon fill="none" stroke="black" points="166,-453.51 166,-475.51 354,-475.51 354,-453.51 166,-453.51"/>
<text text-anchor="start" x="171" y="-462.71" font-family="Helvetica,sans-Serif" font-weight="bold" font-size="11.00">users</text>
<text text-anchor="start" x="315" y="-461.71" font-family="Helvetica,sans-Serif" font-size="11.00">[table]</text>
<polygon fill="none" stroke="black" points="166,-431.51 166,-453.51 354,-453.51 354,-431.51 166,-431.51"/>
<image xlink:href="../../images/primaryKeys.png" width="11px" height="12px" preserveAspectRatio="xMinYMin meet" x="171" y="-448.51"/>
<text text-anchor="start" x="186" y="-439.71" font-family="Helvetica,sans-Serif" font-size="11.00">id</text>
<polygon fill="#ffffff" stroke="none" points="166,-409.51 166,-431.51 354,-431.51 354,-409.51 166,-409.51"/>
<polygon fill="none" stroke="black" points="166,-409.51 166,-431.51 354,-431.51 354,-409.51 166,-409.51"/>
<text text-anchor="start" x="186" y="-417.71" font-family="Helvetica,sans-Serif" font-size="11.00">auth_id</text>
<polygon fill="#ffffff" stroke="none" points="166,-387.51 166,-409.51 354,-409.51 354,-387.51 166,-387.51"/>
<polygon fill="none" stroke="black" points="166,-387.51 166,-409.51 354,-409.51 354,-387.51 166,-387.51"/>
<text text-anchor="start" x="186" y="-395.71" font-family="Helvetica,sans-Serif" font-size="11.00">email</text>
<polygon fill="none" stroke="black" points="166,-365.51 166,-387.51 354,-387.51 354,-365.51 166,-365.51"/>
<image xlink:href="../../images/foreignKeys.png" width="11px" height="12px" preserveAspectRatio="xMinYMin meet" x="171" y="-382.51"/>
<text text-anchor="start" x="186" y="-373.71" font-family="Helvetica,sans-Serif" font-size="11.00">user_type_id</text>
<polygon fill="none" stroke="black" points="166,-347.51 166,-365.51 354,-365.51 354,-347.51 166,-347.51"/>
<text text-anchor="start" x="169" y="-353.71" font-family="Helvetica,sans-Serif" font-size="11.00">...</text>
<polygon fill="#ffffff" stroke="none" points="166,-329.51 166,-347.51 238,-347.51 238,-329.51 166,-329.51"/>
<polygon fill="none" stroke="black" points="166,-329.51 166,-347.51 238,-347.51 238,-329.51 166,-329.51"/>
<text text-anchor="start" x="169" y="-335.71" font-family="Helvetica,sans-Serif" font-size="11.00">&lt; 1</text>
<polygon fill="#ffffff" stroke="none" points="238,-329.51 238,-347.51 299,-347.51 299,-329.51 238,-329.51"/>
<polygon fill="none" stroke="black" points="238,-329.51 238,-347.51 299,-347.51 299,-329.51 238,-329.51"/>
<text text-anchor="start" x="265" y="-335.71" font-family="Helvetica,sans-Serif" font-size="11.00">1 row</text>
<polygon fill="#ffffff" stroke="none" points="299,-329.51 299,-347.51 354,-347.51 354,-329.51 299,-329.51"/>
<polygon fill="none" stroke="black" points="299,-329.51 299,-347.51 354,-347.51 354,-329.51 299,-329.51"/>
<text text-anchor="start" x="327" y="-335.71" font-family="Helvetica,sans-Serif" font-size="11.00">18 &gt;</text>
</a>
</g>
</g>
<!-- device_managers&#45;&gt;users -->
<g id="edge2" class="edge"><title>device_managers:elipses:w&#45;&gt;users:id:e</title>
<path fill="none" stroke="black" d="M1190.78,-671.335C1182.8,-674.903 1177.64,-680.891 1165,-683.51 1051.49,-707.03 1020.42,-696.51 904.5,-696.51 904.5,-696.51 904.5,-696.51 670,-696.51 544.097,-696.51 480.48,-720.948 395,-628.51 337.592,-566.428 439.557,-442.51 355,-442.51"/>
<polygon fill="black" stroke="black" points="1197.15,-670.068 1205.7,-672.041 1201.08,-669.289 1205,-668.51 1205,-668.51 1205,-668.51 1201.08,-669.289 1204.3,-664.979 1197.15,-670.068 1197.15,-670.068"/>
<ellipse fill="none" stroke="black" cx="1194.01" cy="-670.692" rx="3.2" ry="3.2"/>
</g>
<!-- facilities&#45;&gt;users -->
<g id="edge3" class="edge"><title>facilities:elipses:w&#45;&gt;users:id:e</title>
<path fill="none" stroke="black" d="M1043.36,-641.612C756.577,-645.61 610.069,-764.387 395,-567.51 351.974,-528.123 413.331,-442.51 355,-442.51"/>
<polygon fill="black" stroke="black" points="1050,-641.565 1058.03,-645.109 1054,-641.538 1058,-641.51 1058,-641.51 1058,-641.51 1054,-641.538 1057.97,-637.91 1050,-641.565 1050,-641.565"/>
<ellipse fill="none" stroke="black" cx="1046.8" cy="-641.588" rx="3.2" ry="3.2"/>
</g>
<!-- facilities&#45;&gt;users -->
<g id="edge4" class="edge"><title>facilities:elipses:w&#45;&gt;users:id:e</title>
<path fill="none" stroke="black" d="M1043.34,-641.61C756.352,-645.519 609.201,-761.624 395,-563.51 353.418,-525.051 411.64,-442.51 355,-442.51"/>
<polygon fill="black" stroke="black" points="1050,-641.564 1058.02,-645.109 1054,-641.537 1058,-641.51 1058,-641.51 1058,-641.51 1054,-641.537 1057.98,-637.91 1050,-641.564 1050,-641.564"/>
<ellipse fill="none" stroke="black" cx="1046.8" cy="-641.586" rx="3.2" ry="3.2"/>
</g>
<!-- sites -->
<g id="node4" class="node"><title>sites</title>
<g id="a_node4"><a xlink:href="../../tables/sites.html" xlink:title="sites" target="_top">
<polygon fill="#ffffff" stroke="none" points="859.5,-564.51 859.5,-622.51 947.5,-622.51 947.5,-564.51 859.5,-564.51"/>
<polygon fill="#f5f5f5" stroke="none" points="859.5,-600.51 859.5,-622.51 947.5,-622.51 947.5,-600.51 859.5,-600.51"/>
<polygon fill="none" stroke="black" points="859.5,-600.51 859.5,-622.51 947.5,-622.51 947.5,-600.51 859.5,-600.51"/>
<text text-anchor="start" x="864.5" y="-609.71" font-family="Helvetica,sans-Serif" font-weight="bold" font-size="11.00">sites</text>
<text text-anchor="start" x="908.5" y="-608.71" font-family="Helvetica,sans-Serif" font-size="11.00">[table]</text>
<polygon fill="none" stroke="black" points="859.5,-582.51 859.5,-600.51 947.5,-600.51 947.5,-582.51 859.5,-582.51"/>
<text text-anchor="start" x="862.5" y="-588.71" font-family="Helvetica,sans-Serif" font-size="11.00">...</text>
<polygon fill="#ffffff" stroke="none" points="859.5,-564.51 859.5,-582.51 882.5,-582.51 882.5,-564.51 859.5,-564.51"/>
<polygon fill="none" stroke="black" points="859.5,-564.51 859.5,-582.51 882.5,-582.51 882.5,-564.51 859.5,-564.51"/>
<text text-anchor="start" x="862.5" y="-570.71" font-family="Helvetica,sans-Serif" font-size="11.00">&lt; 3</text>
<polygon fill="#ffffff" stroke="none" points="882.5,-564.51 882.5,-582.51 924.5,-582.51 924.5,-564.51 882.5,-564.51"/>
<polygon fill="none" stroke="black" points="882.5,-564.51 882.5,-582.51 924.5,-582.51 924.5,-564.51 882.5,-564.51"/>
<text text-anchor="start" x="885.5" y="-570.71" font-family="Helvetica,sans-Serif" font-size="11.00">0 rows</text>
<polygon fill="#ffffff" stroke="none" points="924.5,-564.51 924.5,-582.51 947.5,-582.51 947.5,-564.51 924.5,-564.51"/>
<polygon fill="none" stroke="black" points="924.5,-564.51 924.5,-582.51 947.5,-582.51 947.5,-564.51 924.5,-564.51"/>
<text text-anchor="start" x="927.5" y="-570.71" font-family="Helvetica,sans-Serif" font-size="11.00">1 &gt;</text>
</a>
</g>
</g>
<!-- facilities&#45;&gt;sites -->
<g id="edge5" class="edge"><title>facilities:elipses:w&#45;&gt;sites:elipses:e</title>
<path fill="none" stroke="black" d="M1043.43,-640.12C1003.5,-632.045 996.671,-591.51 948.5,-591.51"/>
<polygon fill="black" stroke="black" points="1050.04,-640.75 1057.66,-645.093 1054.02,-641.13 1058,-641.51 1058,-641.51 1058,-641.51 1054.02,-641.13 1058.34,-637.926 1050.04,-640.75 1050.04,-640.75"/>
<ellipse fill="none" stroke="black" cx="1046.85" cy="-640.446" rx="3.2" ry="3.2"/>
</g>
<!-- user_types -->
<g id="node13" class="node"><title>user_types</title>
<g id="a_node13"><a xlink:href="../../tables/user_types.html" xlink:title="user_types" target="_top">
<polygon fill="#ffffff" stroke="none" points="8,-349.51 8,-407.51 117,-407.51 117,-349.51 8,-349.51"/>
<polygon fill="#f5f5f5" stroke="none" points="8.5,-385.51 8.5,-407.51 117.5,-407.51 117.5,-385.51 8.5,-385.51"/>
<polygon fill="none" stroke="black" points="8.5,-385.51 8.5,-407.51 117.5,-407.51 117.5,-385.51 8.5,-385.51"/>
<text text-anchor="start" x="13.5" y="-394.71" font-family="Helvetica,sans-Serif" font-weight="bold" font-size="11.00">user_types</text>
<text text-anchor="start" x="78.5" y="-393.71" font-family="Helvetica,sans-Serif" font-size="11.00">[table]</text>
<polygon fill="none" stroke="black" points="8.5,-367.51 8.5,-385.51 117.5,-385.51 117.5,-367.51 8.5,-367.51"/>
<text text-anchor="start" x="11.5" y="-373.71" font-family="Helvetica,sans-Serif" font-size="11.00">...</text>
<polygon fill="#ffffff" stroke="none" points="8.5,-349.51 8.5,-367.51 36.5,-367.51 36.5,-349.51 8.5,-349.51"/>
<polygon fill="none" stroke="black" points="8.5,-349.51 8.5,-367.51 36.5,-367.51 36.5,-349.51 8.5,-349.51"/>
<text text-anchor="start" x="11.5" y="-355.71" font-family="Helvetica,sans-Serif" font-size="11.00"> &#160;</text>
<polygon fill="#ffffff" stroke="none" points="36.5,-349.51 36.5,-367.51 86.5,-367.51 86.5,-349.51 36.5,-349.51"/>
<polygon fill="none" stroke="black" points="36.5,-349.51 36.5,-367.51 86.5,-367.51 86.5,-349.51 36.5,-349.51"/>
<text text-anchor="start" x="47.5" y="-355.71" font-family="Helvetica,sans-Serif" font-size="11.00">4 rows</text>
<polygon fill="#ffffff" stroke="none" points="86.5,-349.51 86.5,-367.51 117.5,-367.51 117.5,-349.51 86.5,-349.51"/>
<polygon fill="none" stroke="black" points="86.5,-349.51 86.5,-367.51 117.5,-367.51 117.5,-349.51 86.5,-349.51"/>
<text text-anchor="start" x="97.5" y="-355.71" font-family="Helvetica,sans-Serif" font-size="11.00">1 &gt;</text>
</a>
</g>
</g>
<!-- users&#45;&gt;user_types -->
<g id="edge29" class="edge"><title>users:user_type_id:w&#45;&gt;user_types:elipses:e</title>
<path fill="none" stroke="black" d="M150.551,-376.51C140.201,-376.51 133.354,-376.51 118.5,-376.51"/>
<polygon fill="black" stroke="black" points="157,-376.51 165,-380.11 161,-376.51 165,-376.51 165,-376.51 165,-376.51 161,-376.51 165,-372.91 157,-376.51 157,-376.51"/>
<ellipse fill="none" stroke="black" cx="153.8" cy="-376.51" rx="3.2" ry="3.2"/>
</g>
<!-- sites&#45;&gt;users -->
<g id="edge24" class="edge"><title>sites:elipses:w&#45;&gt;users:id:e</title>
<path fill="none" stroke="black" d="M844.033,-591.628C734.596,-593.437 700.317,-615.07 586,-594.51 496.866,-578.479 462.244,-584.173 395,-523.51 365.188,-496.615 395.15,-442.51 355,-442.51"/>
<polygon fill="black" stroke="black" points="850.5,-591.575 858.53,-595.109 854.5,-591.542 858.5,-591.51 858.5,-591.51 858.5,-591.51 854.5,-591.542 858.47,-587.91 850.5,-591.575 850.5,-591.575"/>
<ellipse fill="none" stroke="black" cx="847.3" cy="-591.601" rx="3.2" ry="3.2"/>
</g>
<!-- sites&#45;&gt;users -->
<g id="edge25" class="edge"><title>sites:elipses:w&#45;&gt;users:id:e</title>
<path fill="none" stroke="black" d="M844.034,-591.609C734.598,-593.133 700.272,-611.278 586,-590.51 496.895,-574.315 462.86,-579.484 395,-519.51 366.104,-493.971 393.564,-442.51 355,-442.51"/>
<polygon fill="black" stroke="black" points="850.5,-591.565 858.525,-595.109 854.5,-591.537 858.5,-591.51 858.5,-591.51 858.5,-591.51 854.5,-591.537 858.475,-587.91 850.5,-591.565 850.5,-591.565"/>
<ellipse fill="none" stroke="black" cx="847.3" cy="-591.587" rx="3.2" ry="3.2"/>
</g>
<!-- projects -->
<g id="node9" class="node"><title>projects</title>
<g id="a_node9"><a xlink:href="../../tables/projects.html" xlink:title="projects" target="_top">
<polygon fill="#ffffff" stroke="none" points="606,-156.51 606,-346.51 736,-346.51 736,-156.51 606,-156.51"/>
<polygon fill="#f5f5f5" stroke="none" points="606,-324.51 606,-346.51 736,-346.51 736,-324.51 606,-324.51"/>
<polygon fill="none" stroke="black" points="606,-324.51 606,-346.51 736,-346.51 736,-324.51 606,-324.51"/>
<text text-anchor="start" x="611" y="-333.71" font-family="Helvetica,sans-Serif" font-weight="bold" font-size="11.00">projects</text>
<text text-anchor="start" x="697" y="-332.71" font-family="Helvetica,sans-Serif" font-size="11.00">[table]</text>
<polygon fill="none" stroke="black" points="606,-302.51 606,-324.51 736,-324.51 736,-302.51 606,-302.51"/>
<image xlink:href="../../images/primaryKeys.png" width="11px" height="12px" preserveAspectRatio="xMinYMin meet" x="611" y="-319.51"/>
<text text-anchor="start" x="626" y="-310.71" font-family="Helvetica,sans-Serif" font-size="11.00">id</text>
<polygon fill="none" stroke="black" points="606,-280.51 606,-302.51 736,-302.51 736,-280.51 606,-280.51"/>
<image xlink:href="../../images/foreignKeys.png" width="11px" height="12px" preserveAspectRatio="xMinYMin meet" x="611" y="-297.51"/>
<text text-anchor="start" x="626" y="-288.71" font-family="Helvetica,sans-Serif" font-size="11.00">organization_id</text>
<polygon fill="none" stroke="black" points="606,-258.51 606,-280.51 736,-280.51 736,-258.51 606,-258.51"/>
<image xlink:href="../../images/foreignKeys.png" width="11px" height="12px" preserveAspectRatio="xMinYMin meet" x="611" y="-275.51"/>
<text text-anchor="start" x="626" y="-266.71" font-family="Helvetica,sans-Serif" font-size="11.00">status_id</text>
<polygon fill="none" stroke="black" points="606,-236.51 606,-258.51 736,-258.51 736,-236.51 606,-236.51"/>
<image xlink:href="../../images/foreignKeys.png" width="11px" height="12px" preserveAspectRatio="xMinYMin meet" x="611" y="-253.51"/>
<text text-anchor="start" x="626" y="-244.71" font-family="Helvetica,sans-Serif" font-size="11.00">pm_user_id</text>
<polygon fill="none" stroke="black" points="606,-214.51 606,-236.51 736,-236.51 736,-214.51 606,-214.51"/>
<image xlink:href="../../images/foreignKeys.png" width="11px" height="12px" preserveAspectRatio="xMinYMin meet" x="611" y="-231.51"/>
<text text-anchor="start" x="626" y="-222.71" font-family="Helvetica,sans-Serif" font-size="11.00">created_by</text>
<polygon fill="none" stroke="black" points="606,-192.51 606,-214.51 736,-214.51 736,-192.51 606,-192.51"/>
<image xlink:href="../../images/foreignKeys.png" width="11px" height="12px" preserveAspectRatio="xMinYMin meet" x="611" y="-209.51"/>
<text text-anchor="start" x="626" y="-200.71" font-family="Helvetica,sans-Serif" font-size="11.00">modified_by</text>
<polygon fill="none" stroke="black" points="606,-174.51 606,-192.51 736,-192.51 736,-174.51 606,-174.51"/>
<text text-anchor="start" x="609" y="-180.71" font-family="Helvetica,sans-Serif" font-size="11.00">...</text>
<polygon fill="#ffffff" stroke="none" points="606,-156.51 606,-174.51 650,-174.51 650,-156.51 606,-156.51"/>
<polygon fill="none" stroke="black" points="606,-156.51 606,-174.51 650,-174.51 650,-156.51 606,-156.51"/>
<text text-anchor="start" x="609" y="-162.71" font-family="Helvetica,sans-Serif" font-size="11.00">&lt; 5</text>
<polygon fill="#ffffff" stroke="none" points="650,-156.51 650,-174.51 702,-174.51 702,-156.51 650,-156.51"/>
<polygon fill="none" stroke="black" points="650,-156.51 650,-174.51 702,-174.51 702,-156.51 650,-156.51"/>
<text text-anchor="start" x="663" y="-162.71" font-family="Helvetica,sans-Serif" font-size="11.00">0 rows</text>
<polygon fill="#ffffff" stroke="none" points="702,-156.51 702,-174.51 736,-174.51 736,-156.51 702,-156.51"/>
<polygon fill="none" stroke="black" points="702,-156.51 702,-174.51 736,-174.51 736,-156.51 702,-156.51"/>
<text text-anchor="start" x="716" y="-162.71" font-family="Helvetica,sans-Serif" font-size="11.00">3 &gt;</text>
</a>
</g>
</g>
<!-- sites&#45;&gt;projects -->
<g id="edge26" class="edge"><title>sites:elipses:w&#45;&gt;projects:id:e</title>
<path fill="none" stroke="black" d="M844.757,-587.143C792.615,-551.775 799.416,-313.51 737,-313.51"/>
<polygon fill="black" stroke="black" points="850.876,-589.087 857.41,-594.941 854.688,-590.298 858.5,-591.51 858.5,-591.51 858.5,-591.51 854.688,-590.298 859.59,-588.079 850.876,-589.087 850.876,-589.087"/>
<ellipse fill="none" stroke="black" cx="847.826" cy="-588.118" rx="3.20001" ry="3.20001"/>
</g>
<!-- notifications -->
<g id="node5" class="node"><title>notifications</title>
<g id="a_node5"><a xlink:href="../../tables/notifications.html" xlink:title="notifications" target="_top">
<polygon fill="#ffffff" stroke="none" points="610.5,-525.51 610.5,-583.51 731.5,-583.51 731.5,-525.51 610.5,-525.51"/>
<polygon fill="#f5f5f5" stroke="none" points="611,-561.51 611,-583.51 732,-583.51 732,-561.51 611,-561.51"/>
<polygon fill="none" stroke="black" points="611,-561.51 611,-583.51 732,-583.51 732,-561.51 611,-561.51"/>
<text text-anchor="start" x="616" y="-570.71" font-family="Helvetica,sans-Serif" font-weight="bold" font-size="11.00">notifications</text>
<text text-anchor="start" x="693" y="-569.71" font-family="Helvetica,sans-Serif" font-size="11.00">[table]</text>
<polygon fill="none" stroke="black" points="611,-543.51 611,-561.51 732,-561.51 732,-543.51 611,-543.51"/>
<text text-anchor="start" x="614" y="-549.71" font-family="Helvetica,sans-Serif" font-size="11.00">...</text>
<polygon fill="#ffffff" stroke="none" points="611,-525.51 611,-543.51 655,-543.51 655,-525.51 611,-525.51"/>
<polygon fill="none" stroke="black" points="611,-525.51 611,-543.51 655,-543.51 655,-525.51 611,-525.51"/>
<text text-anchor="start" x="614" y="-531.71" font-family="Helvetica,sans-Serif" font-size="11.00">&lt; 3</text>
<polygon fill="#ffffff" stroke="none" points="655,-525.51 655,-543.51 708,-543.51 708,-525.51 655,-525.51"/>
<polygon fill="none" stroke="black" points="655,-525.51 655,-543.51 708,-543.51 708,-525.51 655,-525.51"/>
<text text-anchor="start" x="669" y="-531.71" font-family="Helvetica,sans-Serif" font-size="11.00">0 rows</text>
<polygon fill="#ffffff" stroke="none" points="708,-525.51 708,-543.51 732,-543.51 732,-525.51 708,-525.51"/>
<polygon fill="none" stroke="black" points="708,-525.51 708,-543.51 732,-543.51 732,-525.51 708,-525.51"/>
<text text-anchor="start" x="722" y="-531.71" font-family="Helvetica,sans-Serif" font-size="11.00"> &#160;</text>
</a>
</g>
</g>
<!-- notifications&#45;&gt;users -->
<g id="edge7" class="edge"><title>notifications:elipses:w&#45;&gt;users:id:e</title>
<path fill="none" stroke="black" d="M595.453,-552.349C506.213,-550.304 477.396,-528.553 395,-479.51 374.19,-467.123 379.217,-442.51 355,-442.51"/>
<polygon fill="black" stroke="black" points="602,-552.421 609.96,-556.109 606,-552.465 610,-552.51 610,-552.51 610,-552.51 606,-552.465 610.04,-548.91 602,-552.421 602,-552.421"/>
<ellipse fill="none" stroke="black" cx="598.801" cy="-552.386" rx="3.2" ry="3.2"/>
</g>
<!-- organizations -->
<g id="node6" class="node"><title>organizations</title>
<g id="a_node6"><a xlink:href="../../tables/organizations.html" xlink:title="organizations" target="_top">
<polygon fill="#ffffff" stroke="none" points="411.5,-382.51 411.5,-440.51 536.5,-440.51 536.5,-382.51 411.5,-382.51"/>
<polygon fill="#f5f5f5" stroke="none" points="412,-418.51 412,-440.51 537,-440.51 537,-418.51 412,-418.51"/>
<polygon fill="none" stroke="black" points="412,-418.51 412,-440.51 537,-440.51 537,-418.51 412,-418.51"/>
<text text-anchor="start" x="417" y="-427.71" font-family="Helvetica,sans-Serif" font-weight="bold" font-size="11.00">organizations</text>
<text text-anchor="start" x="498" y="-426.71" font-family="Helvetica,sans-Serif" font-size="11.00">[table]</text>
<polygon fill="none" stroke="black" points="412,-400.51 412,-418.51 537,-418.51 537,-400.51 412,-400.51"/>
<text text-anchor="start" x="415" y="-406.71" font-family="Helvetica,sans-Serif" font-size="11.00">...</text>
<polygon fill="#ffffff" stroke="none" points="412,-382.51 412,-400.51 453,-400.51 453,-382.51 412,-382.51"/>
<polygon fill="none" stroke="black" points="412,-382.51 412,-400.51 453,-400.51 453,-382.51 412,-382.51"/>
<text text-anchor="start" x="415" y="-388.71" font-family="Helvetica,sans-Serif" font-size="11.00">&lt; 4</text>
<polygon fill="#ffffff" stroke="none" points="453,-382.51 453,-400.51 504,-400.51 504,-382.51 453,-382.51"/>
<polygon fill="none" stroke="black" points="453,-382.51 453,-400.51 504,-400.51 504,-382.51 453,-382.51"/>
<text text-anchor="start" x="465" y="-388.71" font-family="Helvetica,sans-Serif" font-size="11.00">0 rows</text>
<polygon fill="#ffffff" stroke="none" points="504,-382.51 504,-400.51 537,-400.51 537,-382.51 504,-382.51"/>
<polygon fill="none" stroke="black" points="504,-382.51 504,-400.51 537,-400.51 537,-382.51 504,-382.51"/>
<text text-anchor="start" x="517" y="-388.71" font-family="Helvetica,sans-Serif" font-size="11.00">4 &gt;</text>
</a>
</g>
</g>
<!-- notifications&#45;&gt;organizations -->
<g id="edge6" class="edge"><title>notifications:elipses:w&#45;&gt;organizations:elipses:e</title>
<path fill="none" stroke="black" d="M595.778,-550.028C548.966,-531.039 603.598,-409.51 538,-409.51"/>
<polygon fill="black" stroke="black" points="602.119,-551.134 609.381,-556.056 606.06,-551.822 610,-552.51 610,-552.51 610,-552.51 606.06,-551.822 610.619,-548.963 602.119,-551.134 602.119,-551.134"/>
<ellipse fill="none" stroke="black" cx="598.967" cy="-550.584" rx="3.2" ry="3.2"/>
</g>
<!-- organizations&#45;&gt;users -->
<g id="edge12" class="edge"><title>organizations:elipses:w&#45;&gt;users:id:e</title>
<path fill="none" stroke="black" d="M396.237,-410.299C381.497,-416.23 377.795,-437.775 355,-442.51"/>
<polygon fill="black" stroke="black" points="403.011,-409.937 411.192,-413.104 407.006,-409.723 411,-409.51 411,-409.51 411,-409.51 407.006,-409.723 410.808,-405.915 403.011,-409.937 403.011,-409.937"/>
<ellipse fill="none" stroke="black" cx="399.816" cy="-410.108" rx="3.2" ry="3.2"/>
</g>
<!-- organizations&#45;&gt;users -->
<g id="edge13" class="edge"><title>organizations:elipses:w&#45;&gt;users:id:e</title>
<path fill="none" stroke="black" d="M397.58,-415.754C381.7,-427.478 378.472,-448.197 355,-442.51"/>
<polygon fill="black" stroke="black" points="403.747,-412.885 412.519,-412.773 407.373,-411.197 411,-409.51 411,-409.51 411,-409.51 407.373,-411.197 409.481,-406.246 403.747,-412.885 403.747,-412.885"/>
<ellipse fill="none" stroke="black" cx="400.846" cy="-414.235" rx="3.20001" ry="3.20001"/>
</g>
<!-- organization_users -->
<g id="node7" class="node"><title>organization_users</title>
<g id="a_node7"><a xlink:href="../../tables/organization_users.html" xlink:title="organization_users" target="_top">
<polygon fill="#ffffff" stroke="none" points="594,-446.51 594,-504.51 748,-504.51 748,-446.51 594,-446.51"/>
<polygon fill="#f5f5f5" stroke="none" points="594,-482.51 594,-504.51 748,-504.51 748,-482.51 594,-482.51"/>
<polygon fill="none" stroke="black" points="594,-482.51 594,-504.51 748,-504.51 748,-482.51 594,-482.51"/>
<text text-anchor="start" x="599" y="-491.71" font-family="Helvetica,sans-Serif" font-weight="bold" font-size="11.00">organization_users</text>
<text text-anchor="start" x="709" y="-490.71" font-family="Helvetica,sans-Serif" font-size="11.00">[table]</text>
<polygon fill="none" stroke="black" points="594,-464.51 594,-482.51 748,-482.51 748,-464.51 594,-464.51"/>
<text text-anchor="start" x="597" y="-470.71" font-family="Helvetica,sans-Serif" font-size="11.00">...</text>
<polygon fill="#ffffff" stroke="none" points="594,-446.51 594,-464.51 655,-464.51 655,-446.51 594,-446.51"/>
<polygon fill="none" stroke="black" points="594,-446.51 594,-464.51 655,-464.51 655,-446.51 594,-446.51"/>
<text text-anchor="start" x="597" y="-452.71" font-family="Helvetica,sans-Serif" font-size="11.00">&lt; 5</text>
<polygon fill="#ffffff" stroke="none" points="655,-446.51 655,-464.51 716,-464.51 716,-446.51 655,-446.51"/>
<polygon fill="none" stroke="black" points="655,-446.51 655,-464.51 716,-464.51 716,-446.51 655,-446.51"/>
<text text-anchor="start" x="677" y="-452.71" font-family="Helvetica,sans-Serif" font-size="11.00">0 rows</text>
<polygon fill="#ffffff" stroke="none" points="716,-446.51 716,-464.51 748,-464.51 748,-446.51 716,-446.51"/>
<polygon fill="none" stroke="black" points="716,-446.51 716,-464.51 748,-464.51 748,-446.51 716,-446.51"/>
<text text-anchor="start" x="738" y="-452.71" font-family="Helvetica,sans-Serif" font-size="11.00"> &#160;</text>
</a>
</g>
</g>
<!-- organization_users&#45;&gt;users -->
<g id="edge8" class="edge"><title>organization_users:elipses:w&#45;&gt;users:id:e</title>
<path fill="none" stroke="black" d="M578.57,-473.439C501.742,-472.651 477.379,-465.31 395,-451.51 377.028,-448.499 373.222,-442.51 355,-442.51"/>
<polygon fill="black" stroke="black" points="585,-473.47 592.982,-477.11 589,-473.49 593,-473.51 593,-473.51 593,-473.51 589,-473.49 593.018,-469.91 585,-473.47 585,-473.47"/>
<ellipse fill="none" stroke="black" cx="581.8" cy="-473.454" rx="3.2" ry="3.2"/>
</g>
<!-- organization_users&#45;&gt;users -->
<g id="edge9" class="edge"><title>organization_users:elipses:w&#45;&gt;users:id:e</title>
<path fill="none" stroke="black" d="M578.991,-469.598C528.335,-459.422 357.858,-437.365 355,-442.51"/>
<polygon fill="black" stroke="black" points="585.295,-471.358 592.032,-476.977 589.147,-472.434 593,-473.51 593,-473.51 593,-473.51 589.147,-472.434 593.968,-470.042 585.295,-471.358 585.295,-471.358"/>
<ellipse fill="none" stroke="black" cx="582.213" cy="-470.498" rx="3.20001" ry="3.20001"/>
</g>
<!-- organization_users&#45;&gt;users -->
<g id="edge11" class="edge"><title>organization_users:elipses:w&#45;&gt;users:id:e</title>
<path fill="none" stroke="black" d="M578.291,-474.334C526.786,-471.942 357.845,-448.484 355,-442.51"/>
<polygon fill="black" stroke="black" points="585.013,-473.958 593.202,-477.104 589.006,-473.734 593,-473.51 593,-473.51 593,-473.51 589.006,-473.734 592.798,-469.915 585.013,-473.958 585.013,-473.958"/>
<ellipse fill="none" stroke="black" cx="581.818" cy="-474.137" rx="3.2" ry="3.2"/>
</g>
<!-- organization_users&#45;&gt;organizations -->
<g id="edge10" class="edge"><title>organization_users:elipses:w&#45;&gt;organizations:elipses:e</title>
<path fill="none" stroke="black" d="M579.193,-469.31C560.344,-455.072 569.645,-409.51 538,-409.51"/>
<polygon fill="black" stroke="black" points="585.346,-471.182 591.952,-476.954 589.173,-472.346 593,-473.51 593,-473.51 593,-473.51 589.173,-472.346 594.048,-470.065 585.346,-471.182 585.346,-471.182"/>
<ellipse fill="none" stroke="black" cx="582.285" cy="-470.25" rx="3.20001" ry="3.20001"/>
</g>
<!-- project_type_selections -->
<g id="node8" class="node"><title>project_type_selections</title>
<g id="a_node8"><a xlink:href="../../tables/project_type_selections.html" xlink:title="project_type_selections" target="_top">
<polygon fill="#ffffff" stroke="none" points="812.5,-286.51 812.5,-344.51 994.5,-344.51 994.5,-286.51 812.5,-286.51"/>
<polygon fill="#f5f5f5" stroke="none" points="812.5,-322.51 812.5,-344.51 994.5,-344.51 994.5,-322.51 812.5,-322.51"/>
<polygon fill="none" stroke="black" points="812.5,-322.51 812.5,-344.51 994.5,-344.51 994.5,-322.51 812.5,-322.51"/>
<text text-anchor="start" x="817.5" y="-331.71" font-family="Helvetica,sans-Serif" font-weight="bold" font-size="11.00">project_type_selections</text>
<text text-anchor="start" x="955.5" y="-330.71" font-family="Helvetica,sans-Serif" font-size="11.00">[table]</text>
<polygon fill="none" stroke="black" points="812.5,-304.51 812.5,-322.51 994.5,-322.51 994.5,-304.51 812.5,-304.51"/>
<text text-anchor="start" x="815.5" y="-310.71" font-family="Helvetica,sans-Serif" font-size="11.00">...</text>
<polygon fill="#ffffff" stroke="none" points="812.5,-286.51 812.5,-304.51 887.5,-304.51 887.5,-286.51 812.5,-286.51"/>
<polygon fill="none" stroke="black" points="812.5,-286.51 812.5,-304.51 887.5,-304.51 887.5,-286.51 812.5,-286.51"/>
<text text-anchor="start" x="815.5" y="-292.71" font-family="Helvetica,sans-Serif" font-size="11.00">&lt; 2</text>
<polygon fill="#ffffff" stroke="none" points="887.5,-286.51 887.5,-304.51 955.5,-304.51 955.5,-286.51 887.5,-286.51"/>
<polygon fill="none" stroke="black" points="887.5,-286.51 887.5,-304.51 955.5,-304.51 955.5,-286.51 887.5,-286.51"/>
<text text-anchor="start" x="916.5" y="-292.71" font-family="Helvetica,sans-Serif" font-size="11.00">0 rows</text>
<polygon fill="#ffffff" stroke="none" points="955.5,-286.51 955.5,-304.51 994.5,-304.51 994.5,-286.51 955.5,-286.51"/>
<polygon fill="none" stroke="black" points="955.5,-286.51 955.5,-304.51 994.5,-304.51 994.5,-286.51 955.5,-286.51"/>
<text text-anchor="start" x="984.5" y="-292.71" font-family="Helvetica,sans-Serif" font-size="11.00"> &#160;</text>
</a>
</g>
</g>
<!-- project_type_selections&#45;&gt;projects -->
<g id="edge14" class="edge"><title>project_type_selections:elipses:w&#45;&gt;projects:id:e</title>
<path fill="none" stroke="black" d="M796.989,-313.51C775.004,-313.51 764.679,-313.51 737,-313.51"/>
<polygon fill="black" stroke="black" points="803.5,-313.51 811.5,-317.11 807.5,-313.51 811.5,-313.51 811.5,-313.51 811.5,-313.51 807.5,-313.51 811.5,-309.91 803.5,-313.51 803.5,-313.51"/>
<ellipse fill="none" stroke="black" cx="800.3" cy="-313.51" rx="3.2" ry="3.2"/>
</g>
<!-- projects&#45;&gt;users -->
<g id="edge19" class="edge"><title>projects:created_by:w&#45;&gt;users:id:e</title>
<path fill="none" stroke="black" d="M590.57,-225.155C506.402,-221.037 461.269,-183.55 395,-242.51 327.275,-302.764 445.649,-442.51 355,-442.51"/>
<polygon fill="black" stroke="black" points="597.002,-225.313 604.911,-229.108 601.001,-225.411 605,-225.51 605,-225.51 605,-225.51 601.001,-225.411 605.089,-221.911 597.002,-225.313 597.002,-225.313"/>
<ellipse fill="none" stroke="black" cx="593.803" cy="-225.234" rx="3.2" ry="3.2"/>
</g>
<!-- projects&#45;&gt;users -->
<g id="edge20" class="edge"><title>projects:modified_by:w&#45;&gt;users:id:e</title>
<path fill="none" stroke="black" d="M590.353,-203.058C506.606,-197.916 461.736,-151.603 395,-209.51 355.32,-243.94 407.535,-442.51 355,-442.51"/>
<polygon fill="black" stroke="black" points="597.004,-203.263 604.889,-207.108 601.002,-203.386 605,-203.51 605,-203.51 605,-203.51 601.002,-203.386 605.111,-199.911 597.004,-203.263 597.004,-203.263"/>
<ellipse fill="none" stroke="black" cx="593.805" cy="-203.165" rx="3.2" ry="3.2"/>
</g>
<!-- projects&#45;&gt;users -->
<g id="edge22" class="edge"><title>projects:pm_user_id:w&#45;&gt;users:id:e</title>
<path fill="none" stroke="black" d="M590.54,-247.241C535.935,-245.565 427.133,-237.496 395,-265.51 334.208,-318.508 435.65,-442.51 355,-442.51"/>
<polygon fill="black" stroke="black" points="597.001,-247.361 604.933,-251.109 601.001,-247.435 605,-247.51 605,-247.51 605,-247.51 601.001,-247.435 605.067,-243.91 597.001,-247.361 597.001,-247.361"/>
<ellipse fill="none" stroke="black" cx="593.802" cy="-247.301" rx="3.2" ry="3.2"/>
</g>
<!-- projects&#45;&gt;organizations -->
<g id="edge21" class="edge"><title>projects:organization_id:w&#45;&gt;organizations:elipses:e</title>
<path fill="none" stroke="black" d="M590.854,-294.426C553.743,-312.597 592.655,-409.51 538,-409.51"/>
<polygon fill="black" stroke="black" points="597.165,-293.125 605.727,-295.035 601.082,-292.317 605,-291.51 605,-291.51 605,-291.51 601.082,-292.317 604.273,-287.984 597.165,-293.125 597.165,-293.125"/>
<ellipse fill="none" stroke="black" cx="594.031" cy="-293.771" rx="3.2" ry="3.2"/>
</g>
<!-- project_statuses -->
<g id="node11" class="node"><title>project_statuses</title>
<g id="a_node11"><a xlink:href="../../tables/project_statuses.html" xlink:title="project_statuses" target="_top">
<polygon fill="#ffffff" stroke="none" points="403,-276.51 403,-334.51 545,-334.51 545,-276.51 403,-276.51"/>
<polygon fill="#f5f5f5" stroke="none" points="403,-312.51 403,-334.51 545,-334.51 545,-312.51 403,-312.51"/>
<polygon fill="none" stroke="black" points="403,-312.51 403,-334.51 545,-334.51 545,-312.51 403,-312.51"/>
<text text-anchor="start" x="408" y="-321.71" font-family="Helvetica,sans-Serif" font-weight="bold" font-size="11.00">project_statuses</text>
<text text-anchor="start" x="506" y="-320.71" font-family="Helvetica,sans-Serif" font-size="11.00">[table]</text>
<polygon fill="none" stroke="black" points="403,-294.51 403,-312.51 545,-312.51 545,-294.51 403,-294.51"/>
<text text-anchor="start" x="406" y="-300.71" font-family="Helvetica,sans-Serif" font-size="11.00">...</text>
<polygon fill="#ffffff" stroke="none" points="403,-276.51 403,-294.51 448,-294.51 448,-276.51 403,-276.51"/>
<polygon fill="none" stroke="black" points="403,-276.51 403,-294.51 448,-294.51 448,-276.51 403,-276.51"/>
<text text-anchor="start" x="406" y="-282.71" font-family="Helvetica,sans-Serif" font-size="11.00"> &#160;</text>
<polygon fill="#ffffff" stroke="none" points="448,-276.51 448,-294.51 506,-294.51 506,-276.51 448,-276.51"/>
<polygon fill="none" stroke="black" points="448,-276.51 448,-294.51 506,-294.51 506,-276.51 448,-276.51"/>
<text text-anchor="start" x="467" y="-282.71" font-family="Helvetica,sans-Serif" font-size="11.00">3 rows</text>
<polygon fill="#ffffff" stroke="none" points="506,-276.51 506,-294.51 545,-294.51 545,-276.51 506,-276.51"/>
<polygon fill="none" stroke="black" points="506,-276.51 506,-294.51 545,-294.51 545,-276.51 506,-276.51"/>
<text text-anchor="start" x="525" y="-282.71" font-family="Helvetica,sans-Serif" font-size="11.00">1 &gt;</text>
</a>
</g>
</g>
<!-- projects&#45;&gt;project_statuses -->
<g id="edge23" class="edge"><title>projects:status_id:w&#45;&gt;project_statuses:elipses:e</title>
<path fill="none" stroke="black" d="M590.91,-272.647C574.191,-281.064 570.59,-303.51 546,-303.51"/>
<polygon fill="black" stroke="black" points="597.191,-271.249 605.783,-273.023 601.096,-270.379 605,-269.51 605,-269.51 605,-269.51 601.096,-270.379 604.217,-265.996 597.191,-271.249 597.191,-271.249"/>
<ellipse fill="none" stroke="black" cx="594.068" cy="-271.944" rx="3.2" ry="3.2"/>
</g>
<!-- project_users -->
<g id="node10" class="node"><title>project_users</title>
<g id="a_node10"><a xlink:href="../../tables/project_users.html" xlink:title="project_users" target="_top">
<polygon fill="#ffffff" stroke="none" points="797,-49.5095 797,-225.51 1010,-225.51 1010,-49.5095 797,-49.5095"/>
<polygon fill="#f5f5f5" stroke="none" points="799.5,-201.51 799.5,-223.51 1008.5,-223.51 1008.5,-201.51 799.5,-201.51"/>
<polygon fill="none" stroke="black" points="799.5,-201.51 799.5,-223.51 1008.5,-223.51 1008.5,-201.51 799.5,-201.51"/>
<text text-anchor="start" x="804.5" y="-210.71" font-family="Helvetica,sans-Serif" font-weight="bold" font-size="11.00">project_users</text>
<text text-anchor="start" x="969.5" y="-209.71" font-family="Helvetica,sans-Serif" font-size="11.00">[table]</text>
<polygon fill="none" stroke="black" points="799.5,-179.51 799.5,-201.51 906.5,-201.51 906.5,-179.51 799.5,-179.51"/>
<image xlink:href="../../images/primaryKeys.png" width="11px" height="12px" preserveAspectRatio="xMinYMin meet" x="804.5" y="-196.51"/>
<text text-anchor="start" x="819.5" y="-187.71" font-family="Helvetica,sans-Serif" font-size="11.00">user_id</text>
<polygon fill="none" stroke="black" points="906.5,-179.51 906.5,-201.51 1008.5,-201.51 1008.5,-179.51 906.5,-179.51"/>
<text text-anchor="start" x="909.5" y="-187.71" font-family="Helvetica,sans-Serif" font-size="11.00">int8[19]</text>
<polygon fill="none" stroke="black" points="799.5,-157.51 799.5,-179.51 906.5,-179.51 906.5,-157.51 799.5,-157.51"/>
<image xlink:href="../../images/primaryKeys.png" width="11px" height="12px" preserveAspectRatio="xMinYMin meet" x="804.5" y="-174.51"/>
<text text-anchor="start" x="819.5" y="-165.71" font-family="Helvetica,sans-Serif" font-size="11.00">project_id</text>
<polygon fill="none" stroke="black" points="906.5,-157.51 906.5,-179.51 1008.5,-179.51 1008.5,-157.51 906.5,-157.51"/>
<text text-anchor="start" x="909.5" y="-165.71" font-family="Helvetica,sans-Serif" font-size="11.00">int8[19]</text>
<polygon fill="none" stroke="black" points="799.5,-135.51 799.5,-157.51 906.5,-157.51 906.5,-135.51 799.5,-135.51"/>
<text text-anchor="start" x="819.5" y="-143.71" font-family="Helvetica,sans-Serif" font-size="11.00">created_time</text>
<polygon fill="none" stroke="black" points="906.5,-135.51 906.5,-157.51 1008.5,-157.51 1008.5,-135.51 906.5,-135.51"/>
<text text-anchor="start" x="909.5" y="-143.71" font-family="Helvetica,sans-Serif" font-size="11.00">timestamptz[35,6]</text>
<polygon fill="none" stroke="black" points="799.5,-113.51 799.5,-135.51 906.5,-135.51 906.5,-113.51 799.5,-113.51"/>
<text text-anchor="start" x="819.5" y="-121.71" font-family="Helvetica,sans-Serif" font-size="11.00">modified_time</text>
<polygon fill="none" stroke="black" points="906.5,-113.51 906.5,-135.51 1008.5,-135.51 1008.5,-113.51 906.5,-113.51"/>
<text text-anchor="start" x="909.5" y="-121.71" font-family="Helvetica,sans-Serif" font-size="11.00">timestamptz[35,6]</text>
<polygon fill="none" stroke="black" points="799.5,-91.5095 799.5,-113.51 906.5,-113.51 906.5,-91.5095 799.5,-91.5095"/>
<image xlink:href="../../images/foreignKeys.png" width="11px" height="12px" preserveAspectRatio="xMinYMin meet" x="804.5" y="-108.51"/>
<text text-anchor="start" x="819.5" y="-99.7095" font-family="Helvetica,sans-Serif" font-size="11.00">created_by</text>
<polygon fill="none" stroke="black" points="906.5,-91.5095 906.5,-113.51 1008.5,-113.51 1008.5,-91.5095 906.5,-91.5095"/>
<text text-anchor="start" x="909.5" y="-99.7095" font-family="Helvetica,sans-Serif" font-size="11.00">int8[19]</text>
<polygon fill="none" stroke="black" points="799.5,-69.5095 799.5,-91.5095 906.5,-91.5095 906.5,-69.5095 799.5,-69.5095"/>
<image xlink:href="../../images/foreignKeys.png" width="11px" height="12px" preserveAspectRatio="xMinYMin meet" x="804.5" y="-86.5095"/>
<text text-anchor="start" x="819.5" y="-77.7095" font-family="Helvetica,sans-Serif" font-size="11.00">modified_by</text>
<polygon fill="none" stroke="black" points="906.5,-69.5095 906.5,-91.5095 1008.5,-91.5095 1008.5,-69.5095 906.5,-69.5095"/>
<text text-anchor="start" x="909.5" y="-77.7095" font-family="Helvetica,sans-Serif" font-size="11.00">int8[19]</text>
<polygon fill="#ffffff" stroke="none" points="799.5,-51.5095 799.5,-69.5095 843.5,-69.5095 843.5,-51.5095 799.5,-51.5095"/>
<polygon fill="none" stroke="black" points="799.5,-51.5095 799.5,-69.5095 843.5,-69.5095 843.5,-51.5095 799.5,-51.5095"/>
<text text-anchor="start" x="802.5" y="-57.7095" font-family="Helvetica,sans-Serif" font-size="11.00">&lt; 4</text>
<polygon fill="#ffffff" stroke="none" points="843.5,-51.5095 843.5,-69.5095 906.5,-69.5095 906.5,-51.5095 843.5,-51.5095"/>
<polygon fill="none" stroke="black" points="843.5,-51.5095 843.5,-69.5095 906.5,-69.5095 906.5,-51.5095 843.5,-51.5095"/>
<text text-anchor="start" x="867.5" y="-57.7095" font-family="Helvetica,sans-Serif" font-size="11.00">0 rows</text>
<polygon fill="#ffffff" stroke="none" points="906.5,-51.5095 906.5,-69.5095 1008.5,-69.5095 1008.5,-51.5095 906.5,-51.5095"/>
<polygon fill="none" stroke="black" points="906.5,-51.5095 906.5,-69.5095 1008.5,-69.5095 1008.5,-51.5095 906.5,-51.5095"/>
<text text-anchor="start" x="988.5" y="-57.7095" font-family="Helvetica,sans-Serif" font-size="11.00">0 &gt;</text>
<polygon fill="none" stroke="black" stroke-width="2" points="798,-50.5095 798,-224.51 1009,-224.51 1009,-50.5095 798,-50.5095"/>
</a>
</g>
</g>
<!-- project_users&#45;&gt;users -->
<g id="edge15" class="edge"><title>project_users:created_by:w&#45;&gt;users:id:e</title>
<path fill="none" stroke="black" d="M783.951,-102.222C684.481,-98.6726 457.534,-64.488 395,-122.51 342.465,-171.253 426.665,-442.51 355,-442.51"/>
<polygon fill="black" stroke="black" points="790.502,-102.351 798.429,-106.109 794.501,-102.43 798.5,-102.51 798.5,-102.51 798.5,-102.51 794.501,-102.43 798.571,-98.9102 790.502,-102.351 790.502,-102.351"/>
<ellipse fill="none" stroke="black" cx="787.302" cy="-102.288" rx="3.2" ry="3.2"/>
</g>
<!-- project_users&#45;&gt;users -->
<g id="edge16" class="edge"><title>project_users:modified_by:w&#45;&gt;users:id:e</title>
<path fill="none" stroke="black" d="M783.98,-80.2654C614.078,-74.5604 523.827,28.1526 395,-89.5095 336.708,-142.75 433.946,-442.51 355,-442.51"/>
<polygon fill="black" stroke="black" points="790.501,-80.375 798.439,-84.109 794.501,-80.4423 798.5,-80.5095 798.5,-80.5095 798.5,-80.5095 794.501,-80.4423 798.561,-76.9101 790.501,-80.375 790.501,-80.375"/>
<ellipse fill="none" stroke="black" cx="787.302" cy="-80.3212" rx="3.2" ry="3.2"/>
</g>
<!-- project_users&#45;&gt;users -->
<g id="edge18" class="edge"><title>project_users:user_id:w&#45;&gt;users:id:e</title>
<path fill="none" stroke="black" d="M784.767,-185.924C773.821,-176.245 775.539,-153.932 756,-145.51 682.023,-113.622 451.369,-120.96 395,-178.51 353.48,-220.899 414.336,-442.51 355,-442.51"/>
<polygon fill="black" stroke="black" points="790.912,-187.975 797.36,-193.924 794.706,-189.243 798.5,-190.51 798.5,-190.51 798.5,-190.51 794.706,-189.243 799.64,-187.095 790.912,-187.975 790.912,-187.975"/>
<ellipse fill="none" stroke="black" cx="787.877" cy="-186.962" rx="3.20001" ry="3.20001"/>
</g>
<!-- project_users&#45;&gt;projects -->
<g id="edge17" class="edge"><title>project_users:project_id:w&#45;&gt;projects:id:e</title>
<path fill="none" stroke="black" d="M784.107,-171.277C740.379,-191.323 801.259,-313.51 737,-313.51"/>
<polygon fill="black" stroke="black" points="790.644,-170.02 799.18,-172.045 794.572,-169.265 798.5,-168.51 798.5,-168.51 798.5,-168.51 794.572,-169.265 797.82,-164.974 790.644,-170.02 790.644,-170.02"/>
<ellipse fill="none" stroke="black" cx="787.501" cy="-170.624" rx="3.2" ry="3.2"/>
</g>
<!-- uploads -->
<g id="node12" class="node"><title>uploads</title>
<g id="a_node12"><a xlink:href="../../tables/uploads.html" xlink:title="uploads" target="_top">
<polygon fill="#ffffff" stroke="none" points="624,-367.51 624,-425.51 718,-425.51 718,-367.51 624,-367.51"/>
<polygon fill="#f5f5f5" stroke="none" points="624,-403.51 624,-425.51 718,-425.51 718,-403.51 624,-403.51"/>
<polygon fill="none" stroke="black" points="624,-403.51 624,-425.51 718,-425.51 718,-403.51 624,-403.51"/>
<text text-anchor="start" x="629" y="-412.71" font-family="Helvetica,sans-Serif" font-weight="bold" font-size="11.00">uploads</text>
<text text-anchor="start" x="679" y="-411.71" font-family="Helvetica,sans-Serif" font-size="11.00">[table]</text>
<polygon fill="none" stroke="black" points="624,-385.51 624,-403.51 718,-403.51 718,-385.51 624,-385.51"/>
<text text-anchor="start" x="627" y="-391.71" font-family="Helvetica,sans-Serif" font-size="11.00">...</text>
<polygon fill="#ffffff" stroke="none" points="624,-367.51 624,-385.51 650,-385.51 650,-367.51 624,-367.51"/>
<polygon fill="none" stroke="black" points="624,-367.51 624,-385.51 650,-385.51 650,-367.51 624,-367.51"/>
<text text-anchor="start" x="627" y="-373.71" font-family="Helvetica,sans-Serif" font-size="11.00">&lt; 4</text>
<polygon fill="#ffffff" stroke="none" points="650,-367.51 650,-385.51 693,-385.51 693,-367.51 650,-367.51"/>
<polygon fill="none" stroke="black" points="650,-367.51 650,-385.51 693,-385.51 693,-367.51 650,-367.51"/>
<text text-anchor="start" x="654" y="-373.71" font-family="Helvetica,sans-Serif" font-size="11.00">0 rows</text>
<polygon fill="#ffffff" stroke="none" points="693,-367.51 693,-385.51 718,-385.51 718,-367.51 693,-367.51"/>
<polygon fill="none" stroke="black" points="693,-367.51 693,-385.51 718,-385.51 718,-367.51 693,-367.51"/>
<text text-anchor="start" x="698" y="-373.71" font-family="Helvetica,sans-Serif" font-size="11.00">1 &gt;</text>
</a>
</g>
</g>
<!-- uploads&#45;&gt;users -->
<g id="edge27" class="edge"><title>uploads:elipses:w&#45;&gt;users:id:e</title>
<path fill="none" stroke="black" d="M608.632,-393.204C587.893,-389.122 579.82,-376.625 553,-372.51 483.59,-361.859 455.736,-337.263 395,-372.51 364.008,-390.495 390.832,-442.51 355,-442.51"/>
<polygon fill="black" stroke="black" points="615.033,-393.786 622.674,-398.095 619.016,-394.148 623,-394.51 623,-394.51 623,-394.51 619.016,-394.148 623.326,-390.924 615.033,-393.786 615.033,-393.786"/>
<ellipse fill="none" stroke="black" cx="611.846" cy="-393.496" rx="3.2" ry="3.2"/>
</g>
<!-- uploads&#45;&gt;organizations -->
<g id="edge28" class="edge"><title>uploads:elipses:w&#45;&gt;organizations:elipses:e</title>
<path fill="none" stroke="black" d="M608.434,-395.316C581.716,-398.432 570.967,-409.51 538,-409.51"/>
<polygon fill="black" stroke="black" points="615.012,-394.952 623.199,-398.104 619.006,-394.731 623,-394.51 623,-394.51 623,-394.51 619.006,-394.731 622.801,-390.915 615.012,-394.952 615.012,-394.952"/>
<ellipse fill="none" stroke="black" cx="611.817" cy="-395.129" rx="3.2" ry="3.2"/>
</g>
</g>
</svg>
