<?xml version="1.0" encoding="UTF-8" standalone="no"?>
<!DOCTYPE svg PUBLIC "-//W3C//DTD SVG 1.1//EN"
 "http://www.w3.org/Graphics/SVG/1.1/DTD/svg11.dtd">
<!-- Generated by graphviz version 2.38.0 (20140413.2041)
 -->
<!-- Title: twoDegreesRelationshipsDiagram Pages: 1 -->
<svg width="1023pt" height="558pt"
 viewBox="0.00 0.00 1023.00 558.00" xmlns="http://www.w3.org/2000/svg" xmlns:xlink="http://www.w3.org/1999/xlink">
<g id="graph0" class="graph" transform="scale(1 1) rotate(0) translate(4 554)">
<title>twoDegreesRelationshipsDiagram</title>
<polygon fill="#ffffff" stroke="none" points="-4,4 -4,-554 1019,-554 1019,4 -4,4"/>
<text text-anchor="middle" x="74.5" y="-7.2" font-family="Helvetica,sans-Serif" font-size="11.00">Generated by SchemaSpy</text>
<!-- device_managers -->
<g id="node1" class="node"><title>device_managers</title>
<g id="a_node1"><a xlink:href="../../tables/device_managers.html" xlink:title="device_managers" target="_top">
<polygon fill="#ffffff" stroke="none" points="861,-488 861,-546 1007,-546 1007,-488 861,-488"/>
<polygon fill="#f5f5f5" stroke="none" points="861,-524 861,-546 1007,-546 1007,-524 861,-524"/>
<polygon fill="none" stroke="black" points="861,-524 861,-546 1007,-546 1007,-524 861,-524"/>
<text text-anchor="start" x="866" y="-533.2" font-family="Helvetica,sans-Serif" font-weight="bold" font-size="11.00">device_managers</text>
<text text-anchor="start" x="968" y="-532.2" font-family="Helvetica,sans-Serif" font-size="11.00">[table]</text>
<polygon fill="none" stroke="black" points="861,-506 861,-524 1007,-524 1007,-506 861,-506"/>
<text text-anchor="start" x="864" y="-512.2" font-family="Helvetica,sans-Serif" font-size="11.00">...</text>
<polygon fill="#ffffff" stroke="none" points="861,-488 861,-506 918,-506 918,-488 861,-488"/>
<polygon fill="none" stroke="black" points="861,-488 861,-506 918,-506 918,-488 861,-488"/>
<text text-anchor="start" x="864" y="-494.2" font-family="Helvetica,sans-Serif" font-size="11.00">&lt; 2</text>
<polygon fill="#ffffff" stroke="none" points="918,-488 918,-506 977,-506 977,-488 918,-488"/>
<polygon fill="none" stroke="black" points="918,-488 918,-506 977,-506 977,-488 918,-488"/>
<text text-anchor="start" x="938" y="-494.2" font-family="Helvetica,sans-Serif" font-size="11.00">0 rows</text>
<polygon fill="#ffffff" stroke="none" points="977,-488 977,-506 1007,-506 1007,-488 977,-488"/>
<polygon fill="none" stroke="black" points="977,-488 977,-506 1007,-506 1007,-488 977,-488"/>
<text text-anchor="start" x="997" y="-494.2" font-family="Helvetica,sans-Serif" font-size="11.00"> &#160;</text>
</a>
</g>
</g>
<!-- facilities -->
<g id="node2" class="node"><title>facilities</title>
<g id="a_node2"><a xlink:href="../../tables/facilities.html" xlink:title="facilities" target="_top">
<polygon fill="#ffffff" stroke="none" points="686,-461 686,-519 784,-519 784,-461 686,-461"/>
<polygon fill="#f5f5f5" stroke="none" points="686,-497 686,-519 784,-519 784,-497 686,-497"/>
<polygon fill="none" stroke="black" points="686,-497 686,-519 784,-519 784,-497 686,-497"/>
<text text-anchor="start" x="691" y="-506.2" font-family="Helvetica,sans-Serif" font-weight="bold" font-size="11.00">facilities</text>
<text text-anchor="start" x="745" y="-505.2" font-family="Helvetica,sans-Serif" font-size="11.00">[table]</text>
<polygon fill="none" stroke="black" points="686,-479 686,-497 784,-497 784,-479 686,-479"/>
<text text-anchor="start" x="689" y="-485.2" font-family="Helvetica,sans-Serif" font-size="11.00">...</text>
<polygon fill="#ffffff" stroke="none" points="686,-461 686,-479 714,-479 714,-461 686,-461"/>
<polygon fill="none" stroke="black" points="686,-461 686,-479 714,-479 714,-461 686,-461"/>
<text text-anchor="start" x="689" y="-467.2" font-family="Helvetica,sans-Serif" font-size="11.00">&lt; 5</text>
<polygon fill="#ffffff" stroke="none" points="714,-461 714,-479 758,-479 758,-461 714,-461"/>
<polygon fill="none" stroke="black" points="714,-461 714,-479 758,-479 758,-461 714,-461"/>
<text text-anchor="start" x="719" y="-467.2" font-family="Helvetica,sans-Serif" font-size="11.00">0 rows</text>
<polygon fill="#ffffff" stroke="none" points="758,-461 758,-479 784,-479 784,-461 758,-461"/>
<polygon fill="none" stroke="black" points="758,-461 758,-479 784,-479 784,-461 758,-461"/>
<text text-anchor="start" x="764" y="-467.2" font-family="Helvetica,sans-Serif" font-size="11.00">1 &gt;</text>
</a>
</g>
</g>
<!-- device_managers&#45;&gt;facilities -->
<g id="edge1" class="edge"><title>device_managers:elipses:w&#45;&gt;facilities:elipses:e</title>
<path fill="none" stroke="black" d="M849.416,-514.102C823.292,-509.417 816.553,-488 785,-488"/>
<polygon fill="black" stroke="black" points="859.541,-510.947 858.865,-518.918 857.27,-518.783 857.947,-510.811 859.541,-510.947"/>
<polyline fill="none" stroke="black" points="860,-515 856.014,-514.662 "/>
<ellipse fill="none" stroke="black" cx="852.826" cy="-514.391" rx="3.2" ry="3.2"/>
</g>
<!-- users -->
<g id="node3" class="node"><title>users</title>
<g id="a_node3"><a xlink:href="../../tables/users.html" xlink:title="users" target="_top">
<polygon fill="#ffffff" stroke="none" points="247,-139 247,-285 435,-285 435,-139 247,-139"/>
<polygon fill="#f5f5f5" stroke="none" points="247,-263 247,-285 435,-285 435,-263 247,-263"/>
<polygon fill="none" stroke="black" points="247,-263 247,-285 435,-285 435,-263 247,-263"/>
<text text-anchor="start" x="252" y="-272.2" font-family="Helvetica,sans-Serif" font-weight="bold" font-size="11.00">users</text>
<text text-anchor="start" x="396" y="-271.2" font-family="Helvetica,sans-Serif" font-size="11.00">[table]</text>
<polygon fill="none" stroke="black" points="247,-241 247,-263 435,-263 435,-241 247,-241"/>
<image xlink:href="../../images/primaryKeys.png" width="11px" height="12px" preserveAspectRatio="xMinYMin meet" x="252" y="-258"/>
<text text-anchor="start" x="267" y="-249.2" font-family="Helvetica,sans-Serif" font-size="11.00">id</text>
<polygon fill="#ffffff" stroke="none" points="247,-219 247,-241 435,-241 435,-219 247,-219"/>
<polygon fill="none" stroke="black" points="247,-219 247,-241 435,-241 435,-219 247,-219"/>
<text text-anchor="start" x="267" y="-227.2" font-family="Helvetica,sans-Serif" font-size="11.00">auth_id</text>
<polygon fill="#ffffff" stroke="none" points="247,-197 247,-219 435,-219 435,-197 247,-197"/>
<polygon fill="none" stroke="black" points="247,-197 247,-219 435,-219 435,-197 247,-197"/>
<text text-anchor="start" x="267" y="-205.2" font-family="Helvetica,sans-Serif" font-size="11.00">email</text>
<polygon fill="none" stroke="black" points="247,-175 247,-197 435,-197 435,-175 247,-175"/>
<image xlink:href="../../images/foreignKeys.png" width="11px" height="12px" preserveAspectRatio="xMinYMin meet" x="252" y="-192"/>
<text text-anchor="start" x="267" y="-183.2" font-family="Helvetica,sans-Serif" font-size="11.00">user_type_id</text>
<polygon fill="none" stroke="black" points="247,-157 247,-175 435,-175 435,-157 247,-157"/>
<text text-anchor="start" x="250" y="-163.2" font-family="Helvetica,sans-Serif" font-size="11.00">...</text>
<polygon fill="#ffffff" stroke="none" points="247,-139 247,-157 319,-157 319,-139 247,-139"/>
<polygon fill="none" stroke="black" points="247,-139 247,-157 319,-157 319,-139 247,-139"/>
<text text-anchor="start" x="250" y="-145.2" font-family="Helvetica,sans-Serif" font-size="11.00">&lt; 1</text>
<polygon fill="#ffffff" stroke="none" points="319,-139 319,-157 380,-157 380,-139 319,-139"/>
<polygon fill="none" stroke="black" points="319,-139 319,-157 380,-157 380,-139 319,-139"/>
<text text-anchor="start" x="346" y="-145.2" font-family="Helvetica,sans-Serif" font-size="11.00">1 row</text>
<polygon fill="#ffffff" stroke="none" points="380,-139 380,-157 435,-157 435,-139 380,-139"/>
<polygon fill="none" stroke="black" points="380,-139 380,-157 435,-157 435,-139 380,-139"/>
<text text-anchor="start" x="408" y="-145.2" font-family="Helvetica,sans-Serif" font-size="11.00">18 &gt;</text>
</a>
</g>
</g>
<!-- device_managers&#45;&gt;users -->
<g id="edge2" class="edge"><title>device_managers:elipses:w&#45;&gt;users:id:e</title>
<path fill="none" stroke="black" d="M845.797,-517.922C837.842,-521.595 832.698,-527.697 820,-530 745.657,-543.481 723.77,-546.329 650,-530 566.714,-511.564 528.819,-515.982 476,-449 420.68,-378.845 525.342,-252 436,-252"/>
<polygon fill="black" stroke="black" points="852.164,-516.612 860.726,-518.526 856.082,-515.806 860,-515 860,-515 860,-515 856.082,-515.806 859.274,-511.474 852.164,-516.612 852.164,-516.612"/>
<ellipse fill="none" stroke="black" cx="849.03" cy="-517.257" rx="3.2" ry="3.2"/>
</g>
<!-- facilities&#45;&gt;users -->
<g id="edge3" class="edge"><title>facilities:elipses:w&#45;&gt;users:id:e</title>
<path fill="none" stroke="black" d="M670.361,-487.841C578.125,-485.756 539.494,-462.579 476,-388 435.157,-340.027 499.005,-252 436,-252"/>
<polygon fill="black" stroke="black" points="677,-487.913 684.961,-491.6 681,-487.957 685,-488 685,-488 685,-488 681,-487.957 685.039,-484.4 677,-487.913 677,-487.913"/>
<ellipse fill="none" stroke="black" cx="673.801" cy="-487.879" rx="3.2" ry="3.2"/>
</g>
<!-- facilities&#45;&gt;users -->
<g id="edge4" class="edge"><title>facilities:elipses:w&#45;&gt;users:id:e</title>
<path fill="none" stroke="black" d="M670.545,-487.827C577.517,-485.506 539.766,-459.453 476,-384 436.431,-337.18 497.301,-252 436,-252"/>
<polygon fill="black" stroke="black" points="677.001,-487.904 684.957,-491.6 681,-487.952 685,-488 685,-488 685,-488 681,-487.952 685.043,-484.4 677.001,-487.904 677.001,-487.904"/>
<ellipse fill="none" stroke="black" cx="673.801" cy="-487.866" rx="3.2" ry="3.2"/>
</g>
<!-- organizations -->
<g id="node4" class="node"><title>organizations</title>
<g id="a_node4"><a xlink:href="../../tables/organizations.html" xlink:title="organizations" target="_top">
<polygon fill="#ffffff" stroke="none" points="484,-251 484,-309 609,-309 609,-251 484,-251"/>
<polygon fill="#f5f5f5" stroke="none" points="484.5,-287 484.5,-309 609.5,-309 609.5,-287 484.5,-287"/>
<polygon fill="none" stroke="black" points="484.5,-287 484.5,-309 609.5,-309 609.5,-287 484.5,-287"/>
<text text-anchor="start" x="489.5" y="-296.2" font-family="Helvetica,sans-Serif" font-weight="bold" font-size="11.00">organizations</text>
<text text-anchor="start" x="570.5" y="-295.2" font-family="Helvetica,sans-Serif" font-size="11.00">[table]</text>
<polygon fill="none" stroke="black" points="484.5,-269 484.5,-287 609.5,-287 609.5,-269 484.5,-269"/>
<text text-anchor="start" x="487.5" y="-275.2" font-family="Helvetica,sans-Serif" font-size="11.00">...</text>
<polygon fill="#ffffff" stroke="none" points="484.5,-251 484.5,-269 525.5,-269 525.5,-251 484.5,-251"/>
<polygon fill="none" stroke="black" points="484.5,-251 484.5,-269 525.5,-269 525.5,-251 484.5,-251"/>
<text text-anchor="start" x="487.5" y="-257.2" font-family="Helvetica,sans-Serif" font-size="11.00">&lt; 4</text>
<polygon fill="#ffffff" stroke="none" points="525.5,-251 525.5,-269 576.5,-269 576.5,-251 525.5,-251"/>
<polygon fill="none" stroke="black" points="525.5,-251 525.5,-269 576.5,-269 576.5,-251 525.5,-251"/>
<text text-anchor="start" x="537.5" y="-257.2" font-family="Helvetica,sans-Serif" font-size="11.00">0 rows</text>
<polygon fill="#ffffff" stroke="none" points="576.5,-251 576.5,-269 609.5,-269 609.5,-251 576.5,-251"/>
<polygon fill="none" stroke="black" points="576.5,-251 576.5,-269 609.5,-269 609.5,-251 576.5,-251"/>
<text text-anchor="start" x="589.5" y="-257.2" font-family="Helvetica,sans-Serif" font-size="11.00">5 &gt;</text>
</a>
</g>
</g>
<!-- facilities&#45;&gt;organizations -->
<g id="edge5" class="edge"><title>facilities:elipses:w&#45;&gt;organizations:elipses:e</title>
<path fill="none" stroke="black" d="M670.835,-484.658C660.832,-478.742 657.839,-465.659 650,-451 612.81,-381.452 689.368,-278 610.5,-278"/>
<polygon fill="black" stroke="black" points="677.214,-486.163 684.173,-491.504 681.107,-487.081 685,-488 685,-488 685,-488 681.107,-487.081 685.827,-484.496 677.214,-486.163 677.214,-486.163"/>
<ellipse fill="none" stroke="black" cx="674.099" cy="-485.428" rx="3.2" ry="3.2"/>
</g>
<!-- user_types -->
<g id="node11" class="node"><title>user_types</title>
<g id="a_node11"><a xlink:href="../../tables/user_types.html" xlink:title="user_types" target="_top">
<polygon fill="#ffffff" stroke="none" points="8,-133 8,-221 198,-221 198,-133 8,-133"/>
<polygon fill="#f5f5f5" stroke="none" points="10,-197 10,-219 196,-219 196,-197 10,-197"/>
<polygon fill="none" stroke="black" points="10,-197 10,-219 196,-219 196,-197 10,-197"/>
<text text-anchor="start" x="15" y="-206.2" font-family="Helvetica,sans-Serif" font-weight="bold" font-size="11.00">user_types</text>
<text text-anchor="start" x="157" y="-205.2" font-family="Helvetica,sans-Serif" font-size="11.00">[table]</text>
<polygon fill="none" stroke="black" points="10,-175 10,-197 95,-197 95,-175 10,-175"/>
<image xlink:href="../../images/primaryKeys.png" width="11px" height="12px" preserveAspectRatio="xMinYMin meet" x="15" y="-192"/>
<text text-anchor="start" x="30" y="-183.2" font-family="Helvetica,sans-Serif" font-size="11.00">id</text>
<polygon fill="none" stroke="black" points="95,-175 95,-197 196,-197 196,-175 95,-175"/>
<text text-anchor="start" x="98" y="-183.2" font-family="Helvetica,sans-Serif" font-size="11.00">int4[10]</text>
<polygon fill="#ffffff" stroke="none" points="10,-153 10,-175 95,-175 95,-153 10,-153"/>
<polygon fill="none" stroke="black" points="10,-153 10,-175 95,-175 95,-153 10,-153"/>
<text text-anchor="start" x="30" y="-161.2" font-family="Helvetica,sans-Serif" font-size="11.00">name</text>
<polygon fill="none" stroke="black" points="95,-153 95,-175 196,-175 196,-153 95,-153"/>
<text text-anchor="start" x="98" y="-161.2" font-family="Helvetica,sans-Serif" font-size="11.00">text[2147483647]</text>
<polygon fill="#ffffff" stroke="none" points="10,-135 10,-153 43,-153 43,-135 10,-135"/>
<polygon fill="none" stroke="black" points="10,-135 10,-153 43,-153 43,-135 10,-135"/>
<text text-anchor="start" x="13" y="-141.2" font-family="Helvetica,sans-Serif" font-size="11.00">&lt; 0</text>
<polygon fill="#ffffff" stroke="none" points="43,-135 43,-153 95,-153 95,-135 43,-135"/>
<polygon fill="none" stroke="black" points="43,-135 43,-153 95,-153 95,-135 43,-135"/>
<text text-anchor="start" x="56" y="-141.2" font-family="Helvetica,sans-Serif" font-size="11.00">4 rows</text>
<polygon fill="#ffffff" stroke="none" points="95,-135 95,-153 196,-153 196,-135 95,-135"/>
<polygon fill="none" stroke="black" points="95,-135 95,-153 196,-153 196,-135 95,-135"/>
<text text-anchor="start" x="176" y="-141.2" font-family="Helvetica,sans-Serif" font-size="11.00">1 &gt;</text>
<polygon fill="none" stroke="black" stroke-width="2" points="9,-134 9,-220 197,-220 197,-134 9,-134"/>
</a>
</g>
</g>
<!-- users&#45;&gt;user_types -->
<g id="edge27" class="edge"><title>users:user_type_id:w&#45;&gt;user_types:id.type:e</title>
<path fill="none" stroke="black" d="M231.491,-186C220.177,-186 212.993,-186 197,-186"/>
<polygon fill="black" stroke="black" points="238,-186 246,-189.6 242,-186 246,-186 246,-186 246,-186 242,-186 246,-182.4 238,-186 238,-186"/>
<ellipse fill="none" stroke="black" cx="234.8" cy="-186" rx="3.2" ry="3.2"/>
</g>
<!-- organizations&#45;&gt;users -->
<g id="edge12" class="edge"><title>organizations:elipses:w&#45;&gt;users:id:e</title>
<path fill="none" stroke="black" d="M470.371,-271.447C458.452,-261.861 454.614,-247.359 436,-252"/>
<polygon fill="black" stroke="black" points="476.342,-274.427 481.892,-281.221 479.921,-276.214 483.5,-278 483.5,-278 483.5,-278 479.921,-276.214 485.108,-274.779 476.342,-274.427 476.342,-274.427"/>
<ellipse fill="none" stroke="black" cx="473.479" cy="-272.998" rx="3.20001" ry="3.20001"/>
</g>
<!-- organizations&#45;&gt;users -->
<g id="edge13" class="edge"><title>organizations:elipses:w&#45;&gt;users:id:e</title>
<path fill="none" stroke="black" d="M468.965,-277.725C458.118,-272.857 453.862,-257.195 436,-252"/>
<polygon fill="black" stroke="black" points="475.501,-277.849 483.432,-281.599 479.501,-277.924 483.5,-278 483.5,-278 483.5,-278 479.501,-277.924 483.568,-274.401 475.501,-277.849 475.501,-277.849"/>
<ellipse fill="none" stroke="black" cx="472.302" cy="-277.788" rx="3.2" ry="3.2"/>
</g>
<!-- notifications -->
<g id="node5" class="node"><title>notifications</title>
<g id="a_node5"><a xlink:href="../../tables/notifications.html" xlink:title="notifications" target="_top">
<polygon fill="#ffffff" stroke="none" points="674.5,-382 674.5,-440 795.5,-440 795.5,-382 674.5,-382"/>
<polygon fill="#f5f5f5" stroke="none" points="675,-418 675,-440 796,-440 796,-418 675,-418"/>
<polygon fill="none" stroke="black" points="675,-418 675,-440 796,-440 796,-418 675,-418"/>
<text text-anchor="start" x="680" y="-427.2" font-family="Helvetica,sans-Serif" font-weight="bold" font-size="11.00">notifications</text>
<text text-anchor="start" x="757" y="-426.2" font-family="Helvetica,sans-Serif" font-size="11.00">[table]</text>
<polygon fill="none" stroke="black" points="675,-400 675,-418 796,-418 796,-400 675,-400"/>
<text text-anchor="start" x="678" y="-406.2" font-family="Helvetica,sans-Serif" font-size="11.00">...</text>
<polygon fill="#ffffff" stroke="none" points="675,-382 675,-400 719,-400 719,-382 675,-382"/>
<polygon fill="none" stroke="black" points="675,-382 675,-400 719,-400 719,-382 675,-382"/>
<text text-anchor="start" x="678" y="-388.2" font-family="Helvetica,sans-Serif" font-size="11.00">&lt; 3</text>
<polygon fill="#ffffff" stroke="none" points="719,-382 719,-400 772,-400 772,-382 719,-382"/>
<polygon fill="none" stroke="black" points="719,-382 719,-400 772,-400 772,-382 719,-382"/>
<text text-anchor="start" x="733" y="-388.2" font-family="Helvetica,sans-Serif" font-size="11.00">0 rows</text>
<polygon fill="#ffffff" stroke="none" points="772,-382 772,-400 796,-400 796,-382 772,-382"/>
<polygon fill="none" stroke="black" points="772,-382 772,-400 796,-400 796,-382 772,-382"/>
<text text-anchor="start" x="786" y="-388.2" font-family="Helvetica,sans-Serif" font-size="11.00"> &#160;</text>
</a>
</g>
</g>
<!-- notifications&#45;&gt;users -->
<g id="edge7" class="edge"><title>notifications:elipses:w&#45;&gt;users:id:e</title>
<path fill="none" stroke="black" d="M659.385,-409.005C577.807,-409.006 540.368,-407.415 476,-349 441.467,-317.661 482.633,-252 436,-252"/>
<polygon fill="black" stroke="black" points="666,-409.003 674.001,-412.6 670,-409.002 674,-409 674,-409 674,-409 670,-409.002 673.999,-405.4 666,-409.003 666,-409.003"/>
<ellipse fill="none" stroke="black" cx="662.8" cy="-409.004" rx="3.2" ry="3.2"/>
</g>
<!-- notifications&#45;&gt;organizations -->
<g id="edge6" class="edge"><title>notifications:elipses:w&#45;&gt;organizations:elipses:e</title>
<path fill="none" stroke="black" d="M659.789,-406.142C619.874,-386.985 669.515,-278 610.5,-278"/>
<polygon fill="black" stroke="black" points="666.157,-407.423 673.29,-412.529 670.079,-408.211 674,-409 674,-409 674,-409 670.079,-408.211 674.71,-405.471 666.157,-407.423 666.157,-407.423"/>
<ellipse fill="none" stroke="black" cx="663.02" cy="-406.792" rx="3.2" ry="3.2"/>
</g>
<!-- organization_users -->
<g id="node6" class="node"><title>organization_users</title>
<g id="a_node6"><a xlink:href="../../tables/organization_users.html" xlink:title="organization_users" target="_top">
<polygon fill="#ffffff" stroke="none" points="658,-303 658,-361 812,-361 812,-303 658,-303"/>
<polygon fill="#f5f5f5" stroke="none" points="658,-339 658,-361 812,-361 812,-339 658,-339"/>
<polygon fill="none" stroke="black" points="658,-339 658,-361 812,-361 812,-339 658,-339"/>
<text text-anchor="start" x="663" y="-348.2" font-family="Helvetica,sans-Serif" font-weight="bold" font-size="11.00">organization_users</text>
<text text-anchor="start" x="773" y="-347.2" font-family="Helvetica,sans-Serif" font-size="11.00">[table]</text>
<polygon fill="none" stroke="black" points="658,-321 658,-339 812,-339 812,-321 658,-321"/>
<text text-anchor="start" x="661" y="-327.2" font-family="Helvetica,sans-Serif" font-size="11.00">...</text>
<polygon fill="#ffffff" stroke="none" points="658,-303 658,-321 719,-321 719,-303 658,-303"/>
<polygon fill="none" stroke="black" points="658,-303 658,-321 719,-321 719,-303 658,-303"/>
<text text-anchor="start" x="661" y="-309.2" font-family="Helvetica,sans-Serif" font-size="11.00">&lt; 5</text>
<polygon fill="#ffffff" stroke="none" points="719,-303 719,-321 780,-321 780,-303 719,-303"/>
<polygon fill="none" stroke="black" points="719,-303 719,-321 780,-321 780,-303 719,-303"/>
<text text-anchor="start" x="741" y="-309.2" font-family="Helvetica,sans-Serif" font-size="11.00">0 rows</text>
<polygon fill="#ffffff" stroke="none" points="780,-303 780,-321 812,-321 812,-303 780,-303"/>
<polygon fill="none" stroke="black" points="780,-303 780,-321 812,-321 812,-303 780,-303"/>
<text text-anchor="start" x="802" y="-309.2" font-family="Helvetica,sans-Serif" font-size="11.00"> &#160;</text>
</a>
</g>
</g>
<!-- organization_users&#45;&gt;users -->
<g id="edge8" class="edge"><title>organization_users:elipses:w&#45;&gt;users:id:e</title>
<path fill="none" stroke="black" d="M642.446,-330.348C572.334,-333.701 540.506,-359.295 476,-320 446.055,-301.759 471.063,-252 436,-252"/>
<polygon fill="black" stroke="black" points="649.002,-330.191 657.086,-333.599 653.001,-330.096 657,-330 657,-330 657,-330 653.001,-330.096 656.914,-326.401 649.002,-330.191 649.002,-330.191"/>
<ellipse fill="none" stroke="black" cx="645.803" cy="-330.268" rx="3.2" ry="3.2"/>
</g>
<!-- organization_users&#45;&gt;users -->
<g id="edge9" class="edge"><title>organization_users:elipses:w&#45;&gt;users:id:e</title>
<path fill="none" stroke="black" d="M642.429,-329.246C572.255,-327.204 540.695,-349.194 476,-310 447.311,-292.619 469.543,-246 436,-252"/>
<polygon fill="black" stroke="black" points="649.011,-329.586 656.814,-333.595 653.005,-329.793 657,-330 657,-330 657,-330 653.005,-329.793 657.186,-326.405 649.011,-329.586 649.011,-329.586"/>
<ellipse fill="none" stroke="black" cx="645.815" cy="-329.421" rx="3.2" ry="3.2"/>
</g>
<!-- organization_users&#45;&gt;users -->
<g id="edge11" class="edge"><title>organization_users:elipses:w&#45;&gt;users:id:e</title>
<path fill="none" stroke="black" d="M642.429,-331.534C572.255,-340.204 540.695,-362.194 476,-323 447.311,-305.619 469.543,-259 436,-252"/>
<polygon fill="black" stroke="black" points="649.044,-330.838 657.377,-333.58 653.022,-330.419 657,-330 657,-330 657,-330 653.022,-330.419 656.623,-326.42 649.044,-330.838 649.044,-330.838"/>
<ellipse fill="none" stroke="black" cx="645.862" cy="-331.173" rx="3.2" ry="3.2"/>
</g>
<!-- organization_users&#45;&gt;organizations -->
<g id="edge10" class="edge"><title>organization_users:elipses:w&#45;&gt;organizations:elipses:e</title>
<path fill="none" stroke="black" d="M643.463,-324.824C630.28,-311.671 635.448,-278 610.5,-278"/>
<polygon fill="black" stroke="black" points="649.528,-327.143 655.714,-333.363 653.264,-328.571 657,-330 657,-330 657,-330 653.264,-328.571 658.286,-326.637 649.528,-327.143 649.528,-327.143"/>
<ellipse fill="none" stroke="black" cx="646.539" cy="-326" rx="3.20001" ry="3.20001"/>
</g>
<!-- project_users -->
<g id="node7" class="node"><title>project_users</title>
<g id="a_node7"><a xlink:href="../../tables/project_users.html" xlink:title="project_users" target="_top">
<polygon fill="#ffffff" stroke="none" points="872,-161 872,-219 996,-219 996,-161 872,-161"/>
<polygon fill="#f5f5f5" stroke="none" points="872,-197 872,-219 996,-219 996,-197 872,-197"/>
<polygon fill="none" stroke="black" points="872,-197 872,-219 996,-219 996,-197 872,-197"/>
<text text-anchor="start" x="877" y="-206.2" font-family="Helvetica,sans-Serif" font-weight="bold" font-size="11.00">project_users</text>
<text text-anchor="start" x="957" y="-205.2" font-family="Helvetica,sans-Serif" font-size="11.00">[table]</text>
<polygon fill="none" stroke="black" points="872,-179 872,-197 996,-197 996,-179 872,-179"/>
<text text-anchor="start" x="875" y="-185.2" font-family="Helvetica,sans-Serif" font-size="11.00">...</text>
<polygon fill="#ffffff" stroke="none" points="872,-161 872,-179 918,-179 918,-161 872,-161"/>
<polygon fill="none" stroke="black" points="872,-161 872,-179 918,-179 918,-161 872,-161"/>
<text text-anchor="start" x="875" y="-167.2" font-family="Helvetica,sans-Serif" font-size="11.00">&lt; 4</text>
<polygon fill="#ffffff" stroke="none" points="918,-161 918,-179 971,-179 971,-161 918,-161"/>
<polygon fill="none" stroke="black" points="918,-161 918,-179 971,-179 971,-161 918,-161"/>
<text text-anchor="start" x="932" y="-167.2" font-family="Helvetica,sans-Serif" font-size="11.00">0 rows</text>
<polygon fill="#ffffff" stroke="none" points="971,-161 971,-179 996,-179 996,-161 971,-161"/>
<polygon fill="none" stroke="black" points="971,-161 971,-179 996,-179 996,-161 971,-161"/>
<text text-anchor="start" x="986" y="-167.2" font-family="Helvetica,sans-Serif" font-size="11.00"> &#160;</text>
</a>
</g>
</g>
<!-- project_users&#45;&gt;users -->
<g id="edge14" class="edge"><title>project_users:elipses:w&#45;&gt;users:id:e</title>
<path fill="none" stroke="black" d="M856.291,-187.993C691.469,-187.84 641.075,-185.81 476,-233 457.077,-238.41 455.681,-252 436,-252"/>
<polygon fill="black" stroke="black" points="863,-187.996 870.998,-191.6 867,-187.998 871,-188 871,-188 871,-188 867,-187.998 871.002,-184.4 863,-187.996 863,-187.996"/>
<ellipse fill="none" stroke="black" cx="859.8" cy="-187.994" rx="3.2" ry="3.2"/>
</g>
<!-- project_users&#45;&gt;users -->
<g id="edge15" class="edge"><title>project_users:elipses:w&#45;&gt;users:id:e</title>
<path fill="none" stroke="black" d="M856.278,-187.52C691.366,-182.374 642.754,-189.291 476,-231 457.581,-235.607 454.987,-246 436,-252"/>
<polygon fill="black" stroke="black" points="863.004,-187.739 870.883,-191.598 867.002,-187.87 871,-188 871,-188 871,-188 867.002,-187.87 871.117,-184.402 863.004,-187.739 863.004,-187.739"/>
<ellipse fill="none" stroke="black" cx="859.806" cy="-187.635" rx="3.2" ry="3.2"/>
</g>
<!-- project_users&#45;&gt;users -->
<g id="edge17" class="edge"><title>project_users:elipses:w&#45;&gt;users:id:e</title>
<path fill="none" stroke="black" d="M856.278,-188.593C691.366,-195.374 642.754,-202.291 476,-244 457.581,-248.607 454.987,-259 436,-252"/>
<polygon fill="black" stroke="black" points="863.006,-188.322 871.145,-191.597 867.003,-188.161 871,-188 871,-188 871,-188 867.003,-188.161 870.855,-184.403 863.006,-188.322 863.006,-188.322"/>
<ellipse fill="none" stroke="black" cx="859.809" cy="-188.451" rx="3.2" ry="3.2"/>
</g>
<!-- projects -->
<g id="node8" class="node"><title>projects</title>
<g id="a_node8"><a xlink:href="../../tables/projects.html" xlink:title="projects" target="_top">
<polygon fill="#ffffff" stroke="none" points="687.5,-94 687.5,-152 782.5,-152 782.5,-94 687.5,-94"/>
<polygon fill="#f5f5f5" stroke="none" points="688,-130 688,-152 783,-152 783,-130 688,-130"/>
<polygon fill="none" stroke="black" points="688,-130 688,-152 783,-152 783,-130 688,-130"/>
<text text-anchor="start" x="693" y="-139.2" font-family="Helvetica,sans-Serif" font-weight="bold" font-size="11.00">projects</text>
<text text-anchor="start" x="744" y="-138.2" font-family="Helvetica,sans-Serif" font-size="11.00">[table]</text>
<polygon fill="none" stroke="black" points="688,-112 688,-130 783,-130 783,-112 688,-112"/>
<text text-anchor="start" x="691" y="-118.2" font-family="Helvetica,sans-Serif" font-size="11.00">...</text>
<polygon fill="#ffffff" stroke="none" points="688,-94 688,-112 714,-112 714,-94 688,-94"/>
<polygon fill="none" stroke="black" points="688,-94 688,-112 714,-112 714,-94 688,-94"/>
<text text-anchor="start" x="691" y="-100.2" font-family="Helvetica,sans-Serif" font-size="11.00">&lt; 5</text>
<polygon fill="#ffffff" stroke="none" points="714,-94 714,-112 758,-112 758,-94 714,-94"/>
<polygon fill="none" stroke="black" points="714,-94 714,-112 758,-112 758,-94 714,-94"/>
<text text-anchor="start" x="719" y="-100.2" font-family="Helvetica,sans-Serif" font-size="11.00">0 rows</text>
<polygon fill="#ffffff" stroke="none" points="758,-94 758,-112 783,-112 783,-94 758,-94"/>
<polygon fill="none" stroke="black" points="758,-94 758,-112 783,-112 783,-94 758,-94"/>
<text text-anchor="start" x="763" y="-100.2" font-family="Helvetica,sans-Serif" font-size="11.00">3 &gt;</text>
</a>
</g>
</g>
<!-- project_users&#45;&gt;projects -->
<g id="edge16" class="edge"><title>project_users:elipses:w&#45;&gt;projects:elipses:e</title>
<path fill="none" stroke="black" d="M856.529,-185.615C823.837,-173.68 827.275,-121 784,-121"/>
<polygon fill="black" stroke="black" points="863.106,-186.699 870.415,-191.552 867.053,-187.35 871,-188 871,-188 871,-188 867.053,-187.35 871.585,-184.448 863.106,-186.699 863.106,-186.699"/>
<ellipse fill="none" stroke="black" cx="859.949" cy="-186.179" rx="3.2" ry="3.2"/>
</g>
<!-- projects&#45;&gt;users -->
<g id="edge18" class="edge"><title>projects:elipses:w&#45;&gt;users:id:e</title>
<path fill="none" stroke="black" d="M672.547,-120.894C586.867,-119.672 547.111,-109.339 476,-166 443.031,-192.269 478.154,-252 436,-252"/>
<polygon fill="black" stroke="black" points="679,-120.941 686.974,-124.6 683,-120.971 687,-121 687,-121 687,-121 683,-120.971 687.026,-117.4 679,-120.941 679,-120.941"/>
<ellipse fill="none" stroke="black" cx="675.8" cy="-120.918" rx="3.2" ry="3.2"/>
</g>
<!-- projects&#45;&gt;users -->
<g id="edge19" class="edge"><title>projects:elipses:w&#45;&gt;users:id:e</title>
<path fill="none" stroke="black" d="M672.495,-120.039C586.55,-114.054 547.41,-107.126 476,-164 444.281,-189.262 476.549,-246 436,-252"/>
<polygon fill="black" stroke="black" points="679.018,-120.471 686.762,-124.592 683.009,-120.736 687,-121 687,-121 687,-121 683.009,-120.736 687.238,-117.408 679.018,-120.471 679.018,-120.471"/>
<ellipse fill="none" stroke="black" cx="675.825" cy="-120.259" rx="3.2" ry="3.2"/>
</g>
<!-- projects&#45;&gt;users -->
<g id="edge21" class="edge"><title>projects:elipses:w&#45;&gt;users:id:e</title>
<path fill="none" stroke="black" d="M672.495,-121.955C586.55,-127.054 547.41,-120.126 476,-177 444.281,-202.262 476.549,-259 436,-252"/>
<polygon fill="black" stroke="black" points="679.017,-121.526 687.236,-124.592 683.009,-121.263 687,-121 687,-121 687,-121 683.009,-121.263 686.764,-117.408 679.017,-121.526 679.017,-121.526"/>
<ellipse fill="none" stroke="black" cx="675.824" cy="-121.736" rx="3.2" ry="3.2"/>
</g>
<!-- projects&#45;&gt;organizations -->
<g id="edge20" class="edge"><title>projects:elipses:w&#45;&gt;organizations:elipses:e</title>
<path fill="none" stroke="black" d="M672.504,-123.341C619.943,-142.872 682.511,-278 610.5,-278"/>
<polygon fill="black" stroke="black" points="679.102,-122.276 687.574,-124.554 683.051,-121.638 687,-121 687,-121 687,-121 683.051,-121.638 686.426,-117.446 679.102,-122.276 679.102,-122.276"/>
<ellipse fill="none" stroke="black" cx="675.943" cy="-122.786" rx="3.2" ry="3.2"/>
</g>
<!-- sites -->
<g id="node9" class="node"><title>sites</title>
<g id="a_node9"><a xlink:href="../../tables/sites.html" xlink:title="sites" target="_top">
<polygon fill="#ffffff" stroke="none" points="895,-37 895,-95 973,-95 973,-37 895,-37"/>
<polygon fill="#f5f5f5" stroke="none" points="895,-73 895,-95 973,-95 973,-73 895,-73"/>
<polygon fill="none" stroke="black" points="895,-73 895,-95 973,-95 973,-73 895,-73"/>
<text text-anchor="start" x="900" y="-82.2" font-family="Helvetica,sans-Serif" font-weight="bold" font-size="11.00">sites</text>
<text text-anchor="start" x="934" y="-81.2" font-family="Helvetica,sans-Serif" font-size="11.00">[table]</text>
<polygon fill="none" stroke="black" points="895,-55 895,-73 973,-73 973,-55 895,-55"/>
<text text-anchor="start" x="898" y="-61.2" font-family="Helvetica,sans-Serif" font-size="11.00">...</text>
<polygon fill="#ffffff" stroke="none" points="895,-37 895,-55 918,-55 918,-37 895,-37"/>
<polygon fill="none" stroke="black" points="895,-37 895,-55 918,-55 918,-37 895,-37"/>
<text text-anchor="start" x="898" y="-43.2" font-family="Helvetica,sans-Serif" font-size="11.00">&lt; 3</text>
<polygon fill="#ffffff" stroke="none" points="918,-37 918,-55 960,-55 960,-37 918,-37"/>
<polygon fill="none" stroke="black" points="918,-37 918,-55 960,-55 960,-37 918,-37"/>
<text text-anchor="start" x="921" y="-43.2" font-family="Helvetica,sans-Serif" font-size="11.00">0 rows</text>
<polygon fill="#ffffff" stroke="none" points="960,-37 960,-55 973,-55 973,-37 960,-37"/>
<polygon fill="none" stroke="black" points="960,-37 960,-55 973,-55 973,-37 960,-37"/>
<text text-anchor="start" x="963" y="-43.2" font-family="Helvetica,sans-Serif" font-size="11.00"> &#160;</text>
</a>
</g>
</g>
<!-- sites&#45;&gt;users -->
<g id="edge22" class="edge"><title>sites:elipses:w&#45;&gt;users:id:e</title>
<path fill="none" stroke="black" d="M879.378,-63.8543C701.779,-60.3277 610.732,4.92507 476,-118 430.086,-159.89 498.152,-252 436,-252"/>
<polygon fill="black" stroke="black" points="886,-63.9202 893.964,-67.5998 890,-63.9601 894,-64 894,-64 894,-64 890,-63.9601 894.036,-60.4002 886,-63.9202 886,-63.9202"/>
<ellipse fill="none" stroke="black" cx="882.801" cy="-63.8883" rx="3.2" ry="3.2"/>
</g>
<!-- sites&#45;&gt;users -->
<g id="edge23" class="edge"><title>sites:elipses:w&#45;&gt;users:id:e</title>
<path fill="none" stroke="black" d="M879.359,-63.8602C701.52,-60.4796 610.063,1.9932 476,-122 431.62,-163.046 496.451,-252 436,-252"/>
<polygon fill="black" stroke="black" points="886,-63.9236 893.966,-67.5998 890,-63.9618 894,-64 894,-64 894,-64 890,-63.9618 894.034,-60.4002 886,-63.9236 886,-63.9236"/>
<ellipse fill="none" stroke="black" cx="882.801" cy="-63.893" rx="3.2" ry="3.2"/>
</g>
<!-- sites&#45;&gt;projects -->
<g id="edge24" class="edge"><title>sites:elipses:w&#45;&gt;projects:elipses:e</title>
<path fill="none" stroke="black" d="M879.611,-65.4663C838.456,-74.3881 833.793,-121 784,-121"/>
<polygon fill="black" stroke="black" points="886.041,-64.8111 894.365,-67.5815 890.021,-64.4055 894,-64 894,-64 894,-64 890.021,-64.4055 893.635,-60.4185 886.041,-64.8111 886.041,-64.8111"/>
<ellipse fill="none" stroke="black" cx="882.858" cy="-65.1355" rx="3.2" ry="3.2"/>
</g>
<!-- uploads -->
<g id="node10" class="node"><title>uploads</title>
<g id="a_node10"><a xlink:href="../../tables/uploads.html" xlink:title="uploads" target="_top">
<polygon fill="#ffffff" stroke="none" points="688,-224 688,-282 782,-282 782,-224 688,-224"/>
<polygon fill="#f5f5f5" stroke="none" points="688,-260 688,-282 782,-282 782,-260 688,-260"/>
<polygon fill="none" stroke="black" points="688,-260 688,-282 782,-282 782,-260 688,-260"/>
<text text-anchor="start" x="693" y="-269.2" font-family="Helvetica,sans-Serif" font-weight="bold" font-size="11.00">uploads</text>
<text text-anchor="start" x="743" y="-268.2" font-family="Helvetica,sans-Serif" font-size="11.00">[table]</text>
<polygon fill="none" stroke="black" points="688,-242 688,-260 782,-260 782,-242 688,-242"/>
<text text-anchor="start" x="691" y="-248.2" font-family="Helvetica,sans-Serif" font-size="11.00">...</text>
<polygon fill="#ffffff" stroke="none" points="688,-224 688,-242 714,-242 714,-224 688,-224"/>
<polygon fill="none" stroke="black" points="688,-224 688,-242 714,-242 714,-224 688,-224"/>
<text text-anchor="start" x="691" y="-230.2" font-family="Helvetica,sans-Serif" font-size="11.00">&lt; 4</text>
<polygon fill="#ffffff" stroke="none" points="714,-224 714,-242 757,-242 757,-224 714,-224"/>
<polygon fill="none" stroke="black" points="714,-224 714,-242 757,-242 757,-224 714,-224"/>
<text text-anchor="start" x="718" y="-230.2" font-family="Helvetica,sans-Serif" font-size="11.00">0 rows</text>
<polygon fill="#ffffff" stroke="none" points="757,-224 757,-242 782,-242 782,-224 757,-224"/>
<polygon fill="none" stroke="black" points="757,-224 757,-242 782,-242 782,-224 757,-224"/>
<text text-anchor="start" x="762" y="-230.2" font-family="Helvetica,sans-Serif" font-size="11.00">1 &gt;</text>
</a>
</g>
</g>
<!-- uploads&#45;&gt;users -->
<g id="edge25" class="edge"><title>uploads:elipses:w&#45;&gt;users:id:e</title>
<path fill="none" stroke="black" d="M672.408,-250.352C652.288,-248.439 642.838,-242.836 617,-241 554.491,-236.558 538.103,-232.616 476,-241 457.728,-243.467 454.438,-252 436,-252"/>
<polygon fill="black" stroke="black" points="679.008,-250.645 686.84,-254.596 683.004,-250.822 687,-251 687,-251 687,-251 683.004,-250.822 687.16,-247.404 679.008,-250.645 679.008,-250.645"/>
<ellipse fill="none" stroke="black" cx="675.811" cy="-250.503" rx="3.2" ry="3.2"/>
</g>
<!-- uploads&#45;&gt;organizations -->
<g id="edge26" class="edge"><title>uploads:elipses:w&#45;&gt;organizations:elipses:e</title>
<path fill="none" stroke="black" d="M672.502,-252.689C648.872,-258.6 641.063,-278 610.5,-278"/>
<polygon fill="black" stroke="black" points="679.054,-251.926 687.417,-254.576 683.027,-251.463 687,-251 687,-251 687,-251 683.027,-251.463 686.583,-247.424 679.054,-251.926 679.054,-251.926"/>
<ellipse fill="none" stroke="black" cx="675.875" cy="-252.296" rx="3.2" ry="3.2"/>
</g>
</g>
</svg>
