<?xml version="1.0" encoding="UTF-8" standalone="no"?>
<!DOCTYPE svg PUBLIC "-//W3C//DTD SVG 1.1//EN"
 "http://www.w3.org/Graphics/SVG/1.1/DTD/svg11.dtd">
<!-- Generated by graphviz version 2.47.1 (20210515.0534)
 -->
<!-- Title: oneDegreeRelationshipsDiagram Pages: 1 -->
<svg width="761pt" height="580pt"
 viewBox="0.00 0.00 761.00 580.00" xmlns="http://www.w3.org/2000/svg" xmlns:xlink="http://www.w3.org/1999/xlink">
<g id="graph0" class="graph" transform="scale(1 1) rotate(0) translate(4 576)">
<title>oneDegreeRelationshipsDiagram</title>
<polygon fill="#ffffff" stroke="transparent" points="-4,4 -4,-576 757,-576 757,4 -4,4"/>
<text text-anchor="middle" x="73.5" y="-7.2" font-family="Helvetica,sans-Serif" font-size="11.00">Generated by SchemaSpy</text>
<!-- accession_state_history -->
<g id="node1" class="node">
<title>accession_state_history</title>
<g id="a_node1"><a xlink:href="../../tables/accession_state_history.html" xlink:title="accession_state_history" target="_top">
<polygon fill="#ffffff" stroke="transparent" points="480,-37 480,-213 745,-213 745,-37 480,-37"/>
<polygon fill="#f5f5f5" stroke="transparent" points="482.5,-189 482.5,-211 743.5,-211 743.5,-189 482.5,-189"/>
<polygon fill="none" stroke="black" points="482.5,-189 482.5,-211 743.5,-211 743.5,-189 482.5,-189"/>
<text text-anchor="start" x="487.5" y="-198.2" font-family="Helvetica,sans-Serif" font-weight="bold" font-size="11.00">accession_state_history</text>
<text text-anchor="start" x="704.5" y="-197.2" font-family="Helvetica,sans-Serif" font-size="11.00">[table]</text>
<polygon fill="#ffffff" stroke="transparent" points="482.5,-167 482.5,-189 643.5,-189 643.5,-167 482.5,-167"/>
<polygon fill="none" stroke="black" points="482.5,-167 482.5,-189 643.5,-189 643.5,-167 482.5,-167"/>
<image xlink:href="../../images/foreignKeys.png" width="11px" height="12px" preserveAspectRatio="xMinYMin meet" x="487.5" y="-184"/>
<text text-anchor="start" x="502.5" y="-175.2" font-family="Helvetica,sans-Serif" font-size="11.00">accession_id</text>
<polygon fill="none" stroke="black" points="643.5,-167 643.5,-189 743.5,-189 743.5,-167 643.5,-167"/>
<text text-anchor="start" x="646.5" y="-175.2" font-family="Helvetica,sans-Serif" font-size="11.00">int8[19]</text>
<polygon fill="#ffffff" stroke="transparent" points="482.5,-145 482.5,-167 643.5,-167 643.5,-145 482.5,-145"/>
<polygon fill="none" stroke="black" points="482.5,-145 482.5,-167 643.5,-167 643.5,-145 482.5,-145"/>
<text text-anchor="start" x="502.5" y="-153.2" font-family="Helvetica,sans-Serif" font-size="11.00">updated_time</text>
<polygon fill="none" stroke="black" points="643.5,-145 643.5,-167 743.5,-167 743.5,-145 643.5,-145"/>
<text text-anchor="start" x="646.5" y="-153.2" font-family="Helvetica,sans-Serif" font-size="11.00">timestamptz[35,6]</text>
<polygon fill="none" stroke="black" points="482.5,-123 482.5,-145 643.5,-145 643.5,-123 482.5,-123"/>
<image xlink:href="../../images/foreignKeys.png" width="11px" height="12px" preserveAspectRatio="xMinYMin meet" x="487.5" y="-140"/>
<text text-anchor="start" x="502.5" y="-131.2" font-family="Helvetica,sans-Serif" font-size="11.00">old_state_id</text>
<polygon fill="none" stroke="black" points="643.5,-123 643.5,-145 743.5,-145 743.5,-123 643.5,-123"/>
<text text-anchor="start" x="646.5" y="-131.2" font-family="Helvetica,sans-Serif" font-size="11.00">int4[10]</text>
<polygon fill="#ffffff" stroke="transparent" points="482.5,-101 482.5,-123 643.5,-123 643.5,-101 482.5,-101"/>
<polygon fill="none" stroke="black" points="482.5,-101 482.5,-123 643.5,-123 643.5,-101 482.5,-101"/>
<image xlink:href="../../images/foreignKeys.png" width="11px" height="12px" preserveAspectRatio="xMinYMin meet" x="487.5" y="-118"/>
<text text-anchor="start" x="502.5" y="-109.2" font-family="Helvetica,sans-Serif" font-size="11.00">new_state_id</text>
<polygon fill="none" stroke="black" points="643.5,-101 643.5,-123 743.5,-123 743.5,-101 643.5,-101"/>
<text text-anchor="start" x="646.5" y="-109.2" font-family="Helvetica,sans-Serif" font-size="11.00">int4[10]</text>
<polygon fill="none" stroke="black" points="482.5,-79 482.5,-101 643.5,-101 643.5,-79 482.5,-79"/>
<text text-anchor="start" x="502.5" y="-87.2" font-family="Helvetica,sans-Serif" font-size="11.00">reason</text>
<polygon fill="none" stroke="black" points="643.5,-79 643.5,-101 743.5,-101 743.5,-79 643.5,-79"/>
<text text-anchor="start" x="646.5" y="-87.2" font-family="Helvetica,sans-Serif" font-size="11.00">text[2147483647]</text>
<polygon fill="none" stroke="black" points="482.5,-57 482.5,-79 643.5,-79 643.5,-57 482.5,-57"/>
<text text-anchor="start" x="502.5" y="-65.2" font-family="Helvetica,sans-Serif" font-size="11.00">updated_by</text>
<polygon fill="none" stroke="black" points="643.5,-57 643.5,-79 743.5,-79 743.5,-57 643.5,-57"/>
<text text-anchor="start" x="646.5" y="-65.2" font-family="Helvetica,sans-Serif" font-size="11.00">int8[19]</text>
<polygon fill="#ffffff" stroke="transparent" points="482.5,-39 482.5,-57 567.5,-57 567.5,-39 482.5,-39"/>
<polygon fill="none" stroke="black" points="482.5,-39 482.5,-57 567.5,-57 567.5,-39 482.5,-39"/>
<text text-anchor="start" x="485.5" y="-45.2" font-family="Helvetica,sans-Serif" font-size="11.00">&lt; 3</text>
<polygon fill="#ffffff" stroke="transparent" points="567.5,-39 567.5,-57 643.5,-57 643.5,-39 567.5,-39"/>
<polygon fill="none" stroke="black" points="567.5,-39 567.5,-57 643.5,-57 643.5,-39 567.5,-39"/>
<text text-anchor="start" x="633.5" y="-45.2" font-family="Helvetica,sans-Serif" font-size="11.00"> &#160;</text>
<polygon fill="#ffffff" stroke="transparent" points="643.5,-39 643.5,-57 743.5,-57 743.5,-39 643.5,-39"/>
<polygon fill="none" stroke="black" points="643.5,-39 643.5,-57 743.5,-57 743.5,-39 643.5,-39"/>
<text text-anchor="start" x="724.5" y="-45.2" font-family="Helvetica,sans-Serif" font-size="11.00">0 &gt;</text>
<polygon fill="none" stroke="black" stroke-width="2" points="481,-38 481,-212 744,-212 744,-38 481,-38"/>
</a>
</g>
</g>
<!-- accessions -->
<g id="node2" class="node">
<title>accessions</title>
<g id="a_node2"><a xlink:href="../../tables/accessions.html" xlink:title="accessions" target="_top">
<polygon fill="#ffffff" stroke="transparent" points="200,-158 200,-568 431,-568 431,-158 200,-158"/>
<polygon fill="#f5f5f5" stroke="transparent" points="200.5,-546 200.5,-568 431.5,-568 431.5,-546 200.5,-546"/>
<polygon fill="none" stroke="black" points="200.5,-546 200.5,-568 431.5,-568 431.5,-546 200.5,-546"/>
<text text-anchor="start" x="205.5" y="-555.2" font-family="Helvetica,sans-Serif" font-weight="bold" font-size="11.00">accessions</text>
<text text-anchor="start" x="392.5" y="-554.2" font-family="Helvetica,sans-Serif" font-size="11.00">[table]</text>
<polygon fill="none" stroke="black" points="200.5,-524 200.5,-546 431.5,-546 431.5,-524 200.5,-524"/>
<image xlink:href="../../images/primaryKeys.png" width="11px" height="12px" preserveAspectRatio="xMinYMin meet" x="205.5" y="-541"/>
<text text-anchor="start" x="220.5" y="-532.2" font-family="Helvetica,sans-Serif" font-size="11.00">id</text>
<polygon fill="#ffffff" stroke="transparent" points="200.5,-502 200.5,-524 431.5,-524 431.5,-502 200.5,-502"/>
<polygon fill="none" stroke="black" points="200.5,-502 200.5,-524 431.5,-524 431.5,-502 200.5,-502"/>
<image xlink:href="../../images/foreignKeys.png" width="11px" height="12px" preserveAspectRatio="xMinYMin meet" x="205.5" y="-519"/>
<text text-anchor="start" x="220.5" y="-510.2" font-family="Helvetica,sans-Serif" font-size="11.00">facility_id</text>
<polygon fill="#ffffff" stroke="transparent" points="200.5,-480 200.5,-502 431.5,-502 431.5,-480 200.5,-480"/>
<polygon fill="none" stroke="black" points="200.5,-480 200.5,-502 431.5,-502 431.5,-480 200.5,-480"/>
<text text-anchor="start" x="220.5" y="-488.2" font-family="Helvetica,sans-Serif" font-size="11.00">number</text>
<polygon fill="#ffffff" stroke="transparent" points="200.5,-458 200.5,-480 431.5,-480 431.5,-458 200.5,-458"/>
<polygon fill="none" stroke="black" points="200.5,-458 200.5,-480 431.5,-480 431.5,-458 200.5,-458"/>
<text text-anchor="start" x="220.5" y="-466.2" font-family="Helvetica,sans-Serif" font-size="11.00">received_date</text>
<polygon fill="none" stroke="black" points="200.5,-436 200.5,-458 431.5,-458 431.5,-436 200.5,-436"/>
<image xlink:href="../../images/foreignKeys.png" width="11px" height="12px" preserveAspectRatio="xMinYMin meet" x="205.5" y="-453"/>
<text text-anchor="start" x="220.5" y="-444.2" font-family="Helvetica,sans-Serif" font-size="11.00">state_id</text>
<polygon fill="none" stroke="black" points="200.5,-414 200.5,-436 431.5,-436 431.5,-414 200.5,-414"/>
<image xlink:href="../../images/foreignKeys.png" width="11px" height="12px" preserveAspectRatio="xMinYMin meet" x="205.5" y="-431"/>
<text text-anchor="start" x="220.5" y="-422.2" font-family="Helvetica,sans-Serif" font-size="11.00">sub_location_id</text>
<polygon fill="#ffffff" stroke="transparent" points="200.5,-392 200.5,-414 431.5,-414 431.5,-392 200.5,-392"/>
<polygon fill="none" stroke="black" points="200.5,-392 200.5,-414 431.5,-414 431.5,-392 200.5,-392"/>
<text text-anchor="start" x="220.5" y="-400.2" font-family="Helvetica,sans-Serif" font-size="11.00">created_time</text>
<polygon fill="none" stroke="black" points="200.5,-370 200.5,-392 431.5,-392 431.5,-370 200.5,-370"/>
<image xlink:href="../../images/foreignKeys.png" width="11px" height="12px" preserveAspectRatio="xMinYMin meet" x="205.5" y="-387"/>
<text text-anchor="start" x="220.5" y="-378.2" font-family="Helvetica,sans-Serif" font-size="11.00">remaining_units_id</text>
<polygon fill="none" stroke="black" points="200.5,-348 200.5,-370 431.5,-370 431.5,-348 200.5,-348"/>
<image xlink:href="../../images/foreignKeys.png" width="11px" height="12px" preserveAspectRatio="xMinYMin meet" x="205.5" y="-365"/>
<text text-anchor="start" x="220.5" y="-356.2" font-family="Helvetica,sans-Serif" font-size="11.00">subset_weight_units_id</text>
<polygon fill="#ffffff" stroke="transparent" points="200.5,-326 200.5,-348 431.5,-348 431.5,-326 200.5,-326"/>
<polygon fill="none" stroke="black" points="200.5,-326 200.5,-348 431.5,-348 431.5,-326 200.5,-326"/>
<image xlink:href="../../images/foreignKeys.png" width="11px" height="12px" preserveAspectRatio="xMinYMin meet" x="205.5" y="-343"/>
<text text-anchor="start" x="220.5" y="-334.2" font-family="Helvetica,sans-Serif" font-size="11.00">species_id</text>
<polygon fill="none" stroke="black" points="200.5,-304 200.5,-326 431.5,-326 431.5,-304 200.5,-304"/>
<image xlink:href="../../images/foreignKeys.png" width="11px" height="12px" preserveAspectRatio="xMinYMin meet" x="205.5" y="-321"/>
<text text-anchor="start" x="220.5" y="-312.2" font-family="Helvetica,sans-Serif" font-size="11.00">collection_source_id</text>
<polygon fill="none" stroke="black" points="200.5,-282 200.5,-304 431.5,-304 431.5,-282 200.5,-282"/>
<image xlink:href="../../images/foreignKeys.png" width="11px" height="12px" preserveAspectRatio="xMinYMin meet" x="205.5" y="-299"/>
<text text-anchor="start" x="220.5" y="-290.2" font-family="Helvetica,sans-Serif" font-size="11.00">data_source_id</text>
<polygon fill="none" stroke="black" points="200.5,-260 200.5,-282 431.5,-282 431.5,-260 200.5,-260"/>
<image xlink:href="../../images/foreignKeys.png" width="11px" height="12px" preserveAspectRatio="xMinYMin meet" x="205.5" y="-277"/>
<text text-anchor="start" x="220.5" y="-268.2" font-family="Helvetica,sans-Serif" font-size="11.00">latest_observed_units_id</text>
<polygon fill="none" stroke="black" points="200.5,-238 200.5,-260 431.5,-260 431.5,-238 200.5,-238"/>
<image xlink:href="../../images/foreignKeys.png" width="11px" height="12px" preserveAspectRatio="xMinYMin meet" x="205.5" y="-255"/>
<text text-anchor="start" x="220.5" y="-246.2" font-family="Helvetica,sans-Serif" font-size="11.00">est_weight_units_id</text>
<polygon fill="none" stroke="black" points="200.5,-216 200.5,-238 431.5,-238 431.5,-216 200.5,-216"/>
<image xlink:href="../../images/foreignKeys.png" width="11px" height="12px" preserveAspectRatio="xMinYMin meet" x="205.5" y="-233"/>
<text text-anchor="start" x="220.5" y="-224.2" font-family="Helvetica,sans-Serif" font-size="11.00">total_withdrawn_weight_units_id</text>
<polygon fill="#ffffff" stroke="transparent" points="200.5,-194 200.5,-216 431.5,-216 431.5,-194 200.5,-194"/>
<polygon fill="none" stroke="black" points="200.5,-194 200.5,-216 431.5,-216 431.5,-194 200.5,-194"/>
<text text-anchor="start" x="220.5" y="-202.2" font-family="Helvetica,sans-Serif" font-size="11.00">project_id</text>
<polygon fill="none" stroke="black" points="200.5,-176 200.5,-194 431.5,-194 431.5,-176 200.5,-176"/>
<text text-anchor="start" x="203.5" y="-182.2" font-family="Helvetica,sans-Serif" font-size="11.00">...</text>
<polygon fill="#ffffff" stroke="transparent" points="200.5,-158 200.5,-176 312.5,-176 312.5,-158 200.5,-158"/>
<polygon fill="none" stroke="black" points="200.5,-158 200.5,-176 312.5,-176 312.5,-158 200.5,-158"/>
<text text-anchor="start" x="203.5" y="-164.2" font-family="Helvetica,sans-Serif" font-size="11.00">&lt; 11</text>
<polygon fill="#ffffff" stroke="transparent" points="312.5,-158 312.5,-176 367.5,-176 367.5,-158 312.5,-158"/>
<polygon fill="none" stroke="black" points="312.5,-158 312.5,-176 367.5,-176 367.5,-158 312.5,-158"/>
<text text-anchor="start" x="357.5" y="-164.2" font-family="Helvetica,sans-Serif" font-size="11.00"> &#160;</text>
<polygon fill="#ffffff" stroke="transparent" points="367.5,-158 367.5,-176 431.5,-176 431.5,-158 367.5,-158"/>
<polygon fill="none" stroke="black" points="367.5,-158 367.5,-176 431.5,-176 431.5,-158 367.5,-158"/>
<text text-anchor="start" x="412.5" y="-164.2" font-family="Helvetica,sans-Serif" font-size="11.00">9 &gt;</text>
</a>
</g>
</g>
<!-- accession_state_history&#45;&gt;accessions -->
<g id="edge1" class="edge">
<title>accession_state_history:w&#45;&gt;accessions:e</title>
<path fill="none" stroke="black" d="M466.94,-179.15C338.89,-201.31 587.34,-535 432.5,-535"/>
<polygon fill="black" stroke="black" points="473.53,-178.63 481.78,-181.59 477.51,-178.32 481.5,-178 481.5,-178 481.5,-178 477.51,-178.32 481.22,-174.41 473.53,-178.63 473.53,-178.63"/>
<ellipse fill="none" stroke="black" cx="470.34" cy="-178.89" rx="3.2" ry="3.2"/>
</g>
<!-- accession_states -->
<g id="node3" class="node">
<title>accession_states</title>
<g id="a_node3"><a xlink:href="../../tables/accession_states.html" xlink:title="accession_states" target="_top">
<polygon fill="#ffffff" stroke="transparent" points="8,-87 8,-167 151,-167 151,-87 8,-87"/>
<polygon fill="#f5f5f5" stroke="transparent" points="8.5,-145 8.5,-167 151.5,-167 151.5,-145 8.5,-145"/>
<polygon fill="none" stroke="black" points="8.5,-145 8.5,-167 151.5,-167 151.5,-145 8.5,-145"/>
<text text-anchor="start" x="13.5" y="-154.2" font-family="Helvetica,sans-Serif" font-weight="bold" font-size="11.00">accession_states</text>
<text text-anchor="start" x="112.5" y="-153.2" font-family="Helvetica,sans-Serif" font-size="11.00">[table]</text>
<polygon fill="none" stroke="black" points="8.5,-123 8.5,-145 151.5,-145 151.5,-123 8.5,-123"/>
<image xlink:href="../../images/primaryKeys.png" width="11px" height="12px" preserveAspectRatio="xMinYMin meet" x="13.5" y="-140"/>
<text text-anchor="start" x="40.5" y="-131.2" font-family="Helvetica,sans-Serif" font-size="11.00">id</text>
<polygon fill="none" stroke="black" points="8.5,-105 8.5,-123 151.5,-123 151.5,-105 8.5,-105"/>
<text text-anchor="start" x="11.5" y="-111.2" font-family="Helvetica,sans-Serif" font-size="11.00">...</text>
<polygon fill="#ffffff" stroke="transparent" points="8.5,-87 8.5,-105 68.5,-105 68.5,-87 8.5,-87"/>
<polygon fill="none" stroke="black" points="8.5,-87 8.5,-105 68.5,-105 68.5,-87 8.5,-87"/>
<text text-anchor="start" x="11.5" y="-93.2" font-family="Helvetica,sans-Serif" font-size="11.00"> &#160;</text>
<polygon fill="#ffffff" stroke="transparent" points="68.5,-87 68.5,-105 105.5,-105 105.5,-87 68.5,-87"/>
<polygon fill="none" stroke="black" points="68.5,-87 68.5,-105 105.5,-105 105.5,-87 68.5,-87"/>
<text text-anchor="start" x="95.5" y="-93.2" font-family="Helvetica,sans-Serif" font-size="11.00"> &#160;</text>
<polygon fill="#ffffff" stroke="transparent" points="105.5,-87 105.5,-105 151.5,-105 151.5,-87 105.5,-87"/>
<polygon fill="none" stroke="black" points="105.5,-87 105.5,-105 151.5,-105 151.5,-87 105.5,-87"/>
<text text-anchor="start" x="132.5" y="-93.2" font-family="Helvetica,sans-Serif" font-size="11.00">3 &gt;</text>
</a>
</g>
</g>
<!-- accession_state_history&#45;&gt;accession_states -->
<g id="edge2" class="edge">
<title>accession_state_history:w&#45;&gt;accession_states:e</title>
<path fill="none" stroke="black" d="M466.83,-111.97C349.98,-111.53 314.45,-106.16 192,-124 174.08,-126.61 170.61,-134 152.5,-134"/>
<polygon fill="black" stroke="black" points="473.5,-111.98 481.49,-115.6 477.5,-111.99 481.5,-112 481.5,-112 481.5,-112 477.5,-111.99 481.51,-108.4 473.5,-111.98 473.5,-111.98"/>
<ellipse fill="none" stroke="black" cx="470.3" cy="-111.98" rx="3.2" ry="3.2"/>
</g>
<!-- accession_state_history&#45;&gt;accession_states -->
<g id="edge3" class="edge">
<title>accession_state_history:w&#45;&gt;accession_states:e</title>
<path fill="none" stroke="black" d="M466.88,-134C332.65,-134 293.72,-134 152.5,-134"/>
<polygon fill="black" stroke="black" points="473.5,-134 481.5,-137.6 477.5,-134 481.5,-134 481.5,-134 481.5,-134 477.5,-134 481.5,-130.4 473.5,-134 473.5,-134"/>
<ellipse fill="none" stroke="black" cx="470.3" cy="-134" rx="3.2" ry="3.2"/>
</g>
<!-- accessions&#45;&gt;accession_states -->
<g id="edge4" class="edge">
<title>accessions:w&#45;&gt;accession_states:e</title>
<path fill="none" stroke="black" d="M185.02,-445.67C76.14,-423.61 287.81,-134 152.5,-134"/>
<polygon fill="black" stroke="black" points="191.53,-446.27 199.17,-450.58 195.52,-446.63 199.5,-447 199.5,-447 199.5,-447 195.52,-446.63 199.83,-443.42 191.53,-446.27 191.53,-446.27"/>
<ellipse fill="none" stroke="black" cx="188.35" cy="-445.98" rx="3.2" ry="3.2"/>
</g>
</g>
</svg>
