<?xml version="1.0" encoding="UTF-8" standalone="no"?>
<!DOCTYPE svg PUBLIC "-//W3C//DTD SVG 1.1//EN"
 "http://www.w3.org/Graphics/SVG/1.1/DTD/svg11.dtd">
<!-- Generated by graphviz version 2.38.0 (20140413.2041)
 -->
<!-- Title: twoDegreesRelationshipsDiagram Pages: 1 -->
<svg width="1028pt" height="640pt"
 viewBox="0.00 0.00 1028.00 639.68" xmlns="http://www.w3.org/2000/svg" xmlns:xlink="http://www.w3.org/1999/xlink">
<g id="graph0" class="graph" transform="scale(1 1) rotate(0) translate(4 635.682)">
<title>twoDegreesRelationshipsDiagram</title>
<polygon fill="#ffffff" stroke="none" points="-4,4 -4,-635.682 1024,-635.682 1024,4 -4,4"/>
<text text-anchor="middle" x="74.5" y="-7.2" font-family="Helvetica,sans-Serif" font-size="11.00">Generated by SchemaSpy</text>
<!-- document_saved_versions -->
<g id="node1" class="node"><title>document_saved_versions</title>
<g id="a_node1"><a xlink:href="../../tables/document_saved_versions.html" xlink:title="document_saved_versions" target="_top">
<polygon fill="#ffffff" stroke="none" points="816,-303.682 816,-361.682 1012,-361.682 1012,-303.682 816,-303.682"/>
<polygon fill="#f5f5f5" stroke="none" points="816,-339.682 816,-361.682 1012,-361.682 1012,-339.682 816,-339.682"/>
<polygon fill="none" stroke="black" points="816,-339.682 816,-361.682 1012,-361.682 1012,-339.682 816,-339.682"/>
<text text-anchor="start" x="821" y="-348.882" font-family="Helvetica,sans-Serif" font-weight="bold" font-size="11.00">document_saved_versions</text>
<text text-anchor="start" x="973" y="-347.882" font-family="Helvetica,sans-Serif" font-size="11.00">[table]</text>
<polygon fill="none" stroke="black" points="816,-321.682 816,-339.682 1012,-339.682 1012,-321.682 816,-321.682"/>
<text text-anchor="start" x="819" y="-327.882" font-family="Helvetica,sans-Serif" font-size="11.00">...</text>
<polygon fill="#ffffff" stroke="none" points="816,-303.682 816,-321.682 898,-321.682 898,-303.682 816,-303.682"/>
<polygon fill="none" stroke="black" points="816,-303.682 816,-321.682 898,-321.682 898,-303.682 816,-303.682"/>
<text text-anchor="start" x="819" y="-309.882" font-family="Helvetica,sans-Serif" font-size="11.00">&lt; 3</text>
<polygon fill="#ffffff" stroke="none" points="898,-303.682 898,-321.682 969,-321.682 969,-303.682 898,-303.682"/>
<polygon fill="none" stroke="black" points="898,-303.682 898,-321.682 969,-321.682 969,-303.682 898,-303.682"/>
<text text-anchor="start" x="930" y="-309.882" font-family="Helvetica,sans-Serif" font-size="11.00">0 rows</text>
<polygon fill="#ffffff" stroke="none" points="969,-303.682 969,-321.682 1012,-321.682 1012,-303.682 969,-303.682"/>
<polygon fill="none" stroke="black" points="969,-303.682 969,-321.682 1012,-321.682 1012,-303.682 969,-303.682"/>
<text text-anchor="start" x="1002" y="-309.882" font-family="Helvetica,sans-Serif" font-size="11.00"> &#160;</text>
</a>
</g>
</g>
<!-- public.users -->
<g id="node2" class="node"><title>public.users</title>
<g id="a_node2"><a xlink:href="../../../public/tables/users.html" xlink:title="public.users" target="_top">
<polygon fill="#ffffff" stroke="none" points="75,-113.682 75,-171.682 193,-171.682 193,-113.682 75,-113.682"/>
<polygon fill="#f5f5f5" stroke="none" points="75,-149.682 75,-171.682 193,-171.682 193,-149.682 75,-149.682"/>
<polygon fill="none" stroke="black" points="75,-149.682 75,-171.682 193,-171.682 193,-149.682 75,-149.682"/>
<text text-anchor="start" x="80" y="-158.882" font-family="Helvetica,sans-Serif" font-weight="bold" font-size="11.00">public.users</text>
<text text-anchor="start" x="154" y="-157.882" font-family="Helvetica,sans-Serif" font-size="11.00">[table]</text>
<polygon fill="none" stroke="black" points="75,-131.682 75,-149.682 193,-149.682 193,-131.682 75,-131.682"/>
<text text-anchor="start" x="78" y="-137.882" font-family="Helvetica,sans-Serif" font-size="11.00">...</text>
<polygon fill="#ffffff" stroke="none" points="75,-113.682 75,-131.682 108,-131.682 108,-113.682 75,-113.682"/>
<polygon fill="none" stroke="black" points="75,-113.682 75,-131.682 108,-131.682 108,-113.682 75,-113.682"/>
<text text-anchor="start" x="78" y="-119.882" font-family="Helvetica,sans-Serif" font-size="11.00"> &#160;</text>
<polygon fill="#ffffff" stroke="none" points="108,-113.682 108,-131.682 160,-131.682 160,-113.682 108,-113.682"/>
<polygon fill="none" stroke="black" points="108,-113.682 108,-131.682 160,-131.682 160,-113.682 108,-113.682"/>
<text text-anchor="start" x="121" y="-119.882" font-family="Helvetica,sans-Serif" font-size="11.00">0 rows</text>
<polygon fill="#ffffff" stroke="none" points="160,-113.682 160,-131.682 193,-131.682 193,-113.682 160,-113.682"/>
<polygon fill="none" stroke="black" points="160,-113.682 160,-131.682 193,-131.682 193,-113.682 160,-113.682"/>
<text text-anchor="start" x="173" y="-119.882" font-family="Helvetica,sans-Serif" font-size="11.00">8 &gt;</text>
</a>
</g>
</g>
<!-- document_saved_versions&#45;&gt;public.users -->
<g id="edge1" class="edge"><title>document_saved_versions:elipses:w&#45;&gt;public.users:elipses:e</title>
<path fill="none" stroke="black" d="M800.397,-329.342C724.638,-313.521 851.099,-161.831 775,-97.6821 577.026,69.2014 452.928,-140.682 194,-140.682"/>
<polygon fill="black" stroke="black" points="807.033,-329.951 814.671,-334.267 811.017,-330.316 815,-330.682 815,-330.682 815,-330.682 811.017,-330.316 815.329,-327.097 807.033,-329.951 807.033,-329.951"/>
<ellipse fill="none" stroke="black" cx="803.847" cy="-329.658" rx="3.2" ry="3.2"/>
</g>
<!-- documents -->
<g id="node3" class="node"><title>documents</title>
<g id="a_node3"><a xlink:href="../../tables/documents.html" xlink:title="documents" target="_top">
<polygon fill="#ffffff" stroke="none" points="563,-107.682 563,-363.682 721,-363.682 721,-107.682 563,-107.682"/>
<polygon fill="#f5f5f5" stroke="none" points="563,-341.682 563,-363.682 721,-363.682 721,-341.682 563,-341.682"/>
<polygon fill="none" stroke="black" points="563,-341.682 563,-363.682 721,-363.682 721,-341.682 563,-341.682"/>
<text text-anchor="start" x="568" y="-350.882" font-family="Helvetica,sans-Serif" font-weight="bold" font-size="11.00">documents</text>
<text text-anchor="start" x="682" y="-349.882" font-family="Helvetica,sans-Serif" font-size="11.00">[table]</text>
<polygon fill="none" stroke="black" points="563,-319.682 563,-341.682 721,-341.682 721,-319.682 563,-319.682"/>
<image xlink:href="../../images/primaryKeys.png" width="11px" height="12px" preserveAspectRatio="xMinYMin meet" x="568" y="-336.682"/>
<text text-anchor="start" x="583" y="-327.882" font-family="Helvetica,sans-Serif" font-size="11.00">id</text>
<polygon fill="none" stroke="black" points="563,-297.682 563,-319.682 721,-319.682 721,-297.682 563,-297.682"/>
<image xlink:href="../../images/foreignKeys.png" width="11px" height="12px" preserveAspectRatio="xMinYMin meet" x="568" y="-314.682"/>
<text text-anchor="start" x="583" y="-305.882" font-family="Helvetica,sans-Serif" font-size="11.00">document_template_id</text>
<polygon fill="none" stroke="black" points="563,-275.682 563,-297.682 721,-297.682 721,-275.682 563,-275.682"/>
<image xlink:href="../../images/foreignKeys.png" width="11px" height="12px" preserveAspectRatio="xMinYMin meet" x="568" y="-292.682"/>
<text text-anchor="start" x="583" y="-283.882" font-family="Helvetica,sans-Serif" font-size="11.00">variable_manifest_id</text>
<polygon fill="#ffffff" stroke="none" points="563,-253.682 563,-275.682 721,-275.682 721,-253.682 563,-253.682"/>
<polygon fill="none" stroke="black" points="563,-253.682 563,-275.682 721,-275.682 721,-253.682 563,-253.682"/>
<image xlink:href="../../images/foreignKeys.png" width="11px" height="12px" preserveAspectRatio="xMinYMin meet" x="568" y="-270.682"/>
<text text-anchor="start" x="583" y="-261.882" font-family="Helvetica,sans-Serif" font-size="11.00">project_id</text>
<polygon fill="#ffffff" stroke="none" points="563,-231.682 563,-253.682 721,-253.682 721,-231.682 563,-231.682"/>
<polygon fill="none" stroke="black" points="563,-231.682 563,-253.682 721,-253.682 721,-231.682 563,-231.682"/>
<text text-anchor="start" x="583" y="-239.882" font-family="Helvetica,sans-Serif" font-size="11.00">name</text>
<polygon fill="none" stroke="black" points="563,-209.682 563,-231.682 721,-231.682 721,-209.682 563,-209.682"/>
<image xlink:href="../../images/foreignKeys.png" width="11px" height="12px" preserveAspectRatio="xMinYMin meet" x="568" y="-226.682"/>
<text text-anchor="start" x="583" y="-217.882" font-family="Helvetica,sans-Serif" font-size="11.00">status_id</text>
<polygon fill="none" stroke="black" points="563,-187.682 563,-209.682 721,-209.682 721,-187.682 563,-187.682"/>
<image xlink:href="../../images/foreignKeys.png" width="11px" height="12px" preserveAspectRatio="xMinYMin meet" x="568" y="-204.682"/>
<text text-anchor="start" x="583" y="-195.882" font-family="Helvetica,sans-Serif" font-size="11.00">owned_by</text>
<polygon fill="none" stroke="black" points="563,-165.682 563,-187.682 721,-187.682 721,-165.682 563,-165.682"/>
<image xlink:href="../../images/foreignKeys.png" width="11px" height="12px" preserveAspectRatio="xMinYMin meet" x="568" y="-182.682"/>
<text text-anchor="start" x="583" y="-173.882" font-family="Helvetica,sans-Serif" font-size="11.00">created_by</text>
<polygon fill="none" stroke="black" points="563,-143.682 563,-165.682 721,-165.682 721,-143.682 563,-143.682"/>
<image xlink:href="../../images/foreignKeys.png" width="11px" height="12px" preserveAspectRatio="xMinYMin meet" x="568" y="-160.682"/>
<text text-anchor="start" x="583" y="-151.882" font-family="Helvetica,sans-Serif" font-size="11.00">modified_by</text>
<polygon fill="none" stroke="black" points="563,-125.682 563,-143.682 721,-143.682 721,-125.682 563,-125.682"/>
<text text-anchor="start" x="566" y="-131.882" font-family="Helvetica,sans-Serif" font-size="11.00">...</text>
<polygon fill="#ffffff" stroke="none" points="563,-107.682 563,-125.682 621,-125.682 621,-107.682 563,-107.682"/>
<polygon fill="none" stroke="black" points="563,-107.682 563,-125.682 621,-125.682 621,-107.682 563,-107.682"/>
<text text-anchor="start" x="566" y="-113.882" font-family="Helvetica,sans-Serif" font-size="11.00">&lt; 7</text>
<polygon fill="#ffffff" stroke="none" points="621,-107.682 621,-125.682 680,-125.682 680,-107.682 621,-107.682"/>
<polygon fill="none" stroke="black" points="621,-107.682 621,-125.682 680,-125.682 680,-107.682 621,-107.682"/>
<text text-anchor="start" x="641" y="-113.882" font-family="Helvetica,sans-Serif" font-size="11.00">0 rows</text>
<polygon fill="#ffffff" stroke="none" points="680,-107.682 680,-125.682 721,-125.682 721,-107.682 680,-107.682"/>
<polygon fill="none" stroke="black" points="680,-107.682 680,-125.682 721,-125.682 721,-107.682 680,-107.682"/>
<text text-anchor="start" x="701" y="-113.882" font-family="Helvetica,sans-Serif" font-size="11.00">1 &gt;</text>
</a>
</g>
</g>
<!-- document_saved_versions&#45;&gt;documents -->
<g id="edge2" class="edge"><title>document_saved_versions:elipses:w&#45;&gt;documents:id:e</title>
<path fill="none" stroke="black" d="M800.428,-330.682C770.487,-330.682 758.005,-330.682 722,-330.682"/>
<polygon fill="black" stroke="black" points="807,-330.682 815,-334.282 811,-330.682 815,-330.682 815,-330.682 815,-330.682 811,-330.682 815,-327.082 807,-330.682 807,-330.682"/>
<ellipse fill="none" stroke="black" cx="803.8" cy="-330.682" rx="3.2" ry="3.2"/>
</g>
<!-- variable_manifests -->
<g id="node4" class="node"><title>variable_manifests</title>
<g id="a_node4"><a xlink:href="../../tables/variable_manifests.html" xlink:title="variable_manifests" target="_top">
<polygon fill="#ffffff" stroke="none" points="309.5,-376.682 309.5,-500.682 467.5,-500.682 467.5,-376.682 309.5,-376.682"/>
<polygon fill="#f5f5f5" stroke="none" points="309.5,-478.682 309.5,-500.682 467.5,-500.682 467.5,-478.682 309.5,-478.682"/>
<polygon fill="none" stroke="black" points="309.5,-478.682 309.5,-500.682 467.5,-500.682 467.5,-478.682 309.5,-478.682"/>
<text text-anchor="start" x="314.5" y="-487.882" font-family="Helvetica,sans-Serif" font-weight="bold" font-size="11.00">variable_manifests</text>
<text text-anchor="start" x="428.5" y="-486.882" font-family="Helvetica,sans-Serif" font-size="11.00">[table]</text>
<polygon fill="none" stroke="black" points="309.5,-456.682 309.5,-478.682 467.5,-478.682 467.5,-456.682 309.5,-456.682"/>
<image xlink:href="../../images/primaryKeys.png" width="11px" height="12px" preserveAspectRatio="xMinYMin meet" x="314.5" y="-473.682"/>
<text text-anchor="start" x="329.5" y="-464.882" font-family="Helvetica,sans-Serif" font-size="11.00">id</text>
<polygon fill="none" stroke="black" points="309.5,-434.682 309.5,-456.682 467.5,-456.682 467.5,-434.682 309.5,-434.682"/>
<image xlink:href="../../images/foreignKeys.png" width="11px" height="12px" preserveAspectRatio="xMinYMin meet" x="314.5" y="-451.682"/>
<text text-anchor="start" x="329.5" y="-442.882" font-family="Helvetica,sans-Serif" font-size="11.00">document_template_id</text>
<polygon fill="none" stroke="black" points="309.5,-412.682 309.5,-434.682 467.5,-434.682 467.5,-412.682 309.5,-412.682"/>
<image xlink:href="../../images/foreignKeys.png" width="11px" height="12px" preserveAspectRatio="xMinYMin meet" x="314.5" y="-429.682"/>
<text text-anchor="start" x="329.5" y="-420.882" font-family="Helvetica,sans-Serif" font-size="11.00">created_by</text>
<polygon fill="none" stroke="black" points="309.5,-394.682 309.5,-412.682 467.5,-412.682 467.5,-394.682 309.5,-394.682"/>
<text text-anchor="start" x="312.5" y="-400.882" font-family="Helvetica,sans-Serif" font-size="11.00">...</text>
<polygon fill="#ffffff" stroke="none" points="309.5,-376.682 309.5,-394.682 367.5,-394.682 367.5,-376.682 309.5,-376.682"/>
<polygon fill="none" stroke="black" points="309.5,-376.682 309.5,-394.682 367.5,-394.682 367.5,-376.682 309.5,-376.682"/>
<text text-anchor="start" x="312.5" y="-382.882" font-family="Helvetica,sans-Serif" font-size="11.00">&lt; 2</text>
<polygon fill="#ffffff" stroke="none" points="367.5,-376.682 367.5,-394.682 426.5,-394.682 426.5,-376.682 367.5,-376.682"/>
<polygon fill="none" stroke="black" points="367.5,-376.682 367.5,-394.682 426.5,-394.682 426.5,-376.682 367.5,-376.682"/>
<text text-anchor="start" x="387.5" y="-382.882" font-family="Helvetica,sans-Serif" font-size="11.00">0 rows</text>
<polygon fill="#ffffff" stroke="none" points="426.5,-376.682 426.5,-394.682 467.5,-394.682 467.5,-376.682 426.5,-376.682"/>
<polygon fill="none" stroke="black" points="426.5,-376.682 426.5,-394.682 467.5,-394.682 467.5,-376.682 426.5,-376.682"/>
<text text-anchor="start" x="447.5" y="-382.882" font-family="Helvetica,sans-Serif" font-size="11.00">5 &gt;</text>
</a>
</g>
</g>
<!-- document_saved_versions&#45;&gt;variable_manifests -->
<g id="edge3" class="edge"><title>document_saved_versions:elipses:w&#45;&gt;variable_manifests:id:e</title>
<path fill="none" stroke="black" d="M800.57,-333.458C769.637,-348.686 815.905,-422.521 775,-453.682 720.763,-495 536.682,-467.682 468.5,-467.682"/>
<polygon fill="black" stroke="black" points="807.144,-332.193 815.68,-334.217 811.072,-331.438 815,-330.682 815,-330.682 815,-330.682 811.072,-331.438 814.32,-327.147 807.144,-332.193 807.144,-332.193"/>
<ellipse fill="none" stroke="black" cx="804.002" cy="-332.798" rx="3.2" ry="3.2"/>
</g>
<!-- documents&#45;&gt;public.users -->
<g id="edge4" class="edge"><title>documents:created_by:w&#45;&gt;public.users:elipses:e</title>
<path fill="none" stroke="black" d="M547.529,-175.976C520.071,-173.121 509.467,-162.358 476,-157.682 351.647,-140.307 319.561,-140.682 194,-140.682"/>
<polygon fill="black" stroke="black" points="554.01,-176.292 561.825,-180.278 558.005,-176.487 562,-176.682 562,-176.682 562,-176.682 558.005,-176.487 562.175,-173.086 554.01,-176.292 554.01,-176.292"/>
<ellipse fill="none" stroke="black" cx="550.813" cy="-176.136" rx="3.2" ry="3.2"/>
</g>
<!-- documents&#45;&gt;public.users -->
<g id="edge6" class="edge"><title>documents:modified_by:w&#45;&gt;public.users:elipses:e</title>
<path fill="none" stroke="black" d="M547.585,-153.999C520.209,-151.247 509.475,-140.959 476,-137.682 351.256,-125.471 319.34,-140.682 194,-140.682"/>
<polygon fill="black" stroke="black" points="554.009,-154.304 561.83,-158.278 558.004,-154.493 562,-154.682 562,-154.682 562,-154.682 558.004,-154.493 562.17,-151.086 554.009,-154.304 554.009,-154.304"/>
<ellipse fill="none" stroke="black" cx="550.813" cy="-154.152" rx="3.2" ry="3.2"/>
</g>
<!-- documents&#45;&gt;public.users -->
<g id="edge7" class="edge"><title>documents:owned_by:w&#45;&gt;public.users:elipses:e</title>
<path fill="none" stroke="black" d="M547.567,-198.132C520.122,-195.894 509.159,-187.324 476,-181.682 398.546,-168.504 378.741,-168.047 301,-156.682 253.421,-149.726 242.084,-140.682 194,-140.682"/>
<polygon fill="black" stroke="black" points="554.006,-198.377 561.863,-202.279 558.003,-198.53 562,-198.682 562,-198.682 562,-198.682 558.003,-198.53 562.137,-195.085 554.006,-198.377 554.006,-198.377"/>
<ellipse fill="none" stroke="black" cx="550.808" cy="-198.255" rx="3.2" ry="3.2"/>
</g>
<!-- documents&#45;&gt;variable_manifests -->
<g id="edge10" class="edge"><title>documents:variable_manifest_id:w&#45;&gt;variable_manifests:id:e</title>
<path fill="none" stroke="black" d="M547.473,-288.799C519.202,-298.432 527.32,-339.181 509,-374.682 488.326,-414.745 513.583,-467.682 468.5,-467.682"/>
<polygon fill="black" stroke="black" points="554.084,-287.836 562.519,-290.244 558.042,-287.259 562,-286.682 562,-286.682 562,-286.682 558.042,-287.259 561.481,-283.12 554.084,-287.836 554.084,-287.836"/>
<ellipse fill="none" stroke="black" cx="550.917" cy="-288.297" rx="3.2" ry="3.2"/>
</g>
<!-- document_templates -->
<g id="node5" class="node"><title>document_templates</title>
<g id="a_node5"><a xlink:href="../../tables/document_templates.html" xlink:title="document_templates" target="_top">
<polygon fill="#ffffff" stroke="none" points="8,-345.682 8,-433.682 260,-433.682 260,-345.682 8,-345.682"/>
<polygon fill="#f5f5f5" stroke="none" points="10,-409.682 10,-431.682 258,-431.682 258,-409.682 10,-409.682"/>
<polygon fill="none" stroke="black" points="10,-409.682 10,-431.682 258,-431.682 258,-409.682 10,-409.682"/>
<text text-anchor="start" x="15" y="-418.882" font-family="Helvetica,sans-Serif" font-weight="bold" font-size="11.00">document_templates</text>
<text text-anchor="start" x="219" y="-417.882" font-family="Helvetica,sans-Serif" font-size="11.00">[table]</text>
<polygon fill="none" stroke="black" points="10,-387.682 10,-409.682 157,-409.682 157,-387.682 10,-387.682"/>
<image xlink:href="../../images/primaryKeys.png" width="11px" height="12px" preserveAspectRatio="xMinYMin meet" x="15" y="-404.682"/>
<text text-anchor="start" x="30" y="-395.882" font-family="Helvetica,sans-Serif" font-size="11.00">id</text>
<polygon fill="none" stroke="black" points="157,-387.682 157,-409.682 258,-409.682 258,-387.682 157,-387.682"/>
<text text-anchor="start" x="160" y="-395.882" font-family="Helvetica,sans-Serif" font-size="11.00">int8[19]</text>
<polygon fill="#ffffff" stroke="none" points="10,-365.682 10,-387.682 157,-387.682 157,-365.682 10,-365.682"/>
<polygon fill="none" stroke="black" points="10,-365.682 10,-387.682 157,-387.682 157,-365.682 10,-365.682"/>
<text text-anchor="start" x="30" y="-373.882" font-family="Helvetica,sans-Serif" font-size="11.00">name</text>
<polygon fill="none" stroke="black" points="157,-365.682 157,-387.682 258,-387.682 258,-365.682 157,-365.682"/>
<text text-anchor="start" x="160" y="-373.882" font-family="Helvetica,sans-Serif" font-size="11.00">text[2147483647]</text>
<polygon fill="#ffffff" stroke="none" points="10,-347.682 10,-365.682 74,-365.682 74,-347.682 10,-347.682"/>
<polygon fill="none" stroke="black" points="10,-347.682 10,-365.682 74,-365.682 74,-347.682 10,-347.682"/>
<text text-anchor="start" x="13" y="-353.882" font-family="Helvetica,sans-Serif" font-size="11.00">&lt; 0</text>
<polygon fill="#ffffff" stroke="none" points="74,-347.682 74,-365.682 157,-365.682 157,-347.682 74,-347.682"/>
<polygon fill="none" stroke="black" points="74,-347.682 74,-365.682 157,-365.682 157,-347.682 74,-347.682"/>
<text text-anchor="start" x="118" y="-353.882" font-family="Helvetica,sans-Serif" font-size="11.00">0 rows</text>
<polygon fill="#ffffff" stroke="none" points="157,-347.682 157,-365.682 258,-365.682 258,-347.682 157,-347.682"/>
<polygon fill="none" stroke="black" points="157,-347.682 157,-365.682 258,-365.682 258,-347.682 157,-347.682"/>
<text text-anchor="start" x="238" y="-353.882" font-family="Helvetica,sans-Serif" font-size="11.00">2 &gt;</text>
<polygon fill="none" stroke="black" stroke-width="2" points="9,-346.682 9,-432.682 259,-432.682 259,-346.682 9,-346.682"/>
</a>
</g>
</g>
<!-- documents&#45;&gt;document_templates -->
<g id="edge5" class="edge"><title>documents:document_template_id:w&#45;&gt;document_templates:id.type:e</title>
<path fill="none" stroke="black" d="M547.485,-309.717C519.188,-314.059 510.142,-330.981 476,-339.682 399.739,-359.116 373.422,-335.885 301,-366.682 279.404,-375.866 282.467,-398.682 259,-398.682"/>
<polygon fill="black" stroke="black" points="554.02,-309.251 562.256,-312.273 558.01,-308.967 562,-308.682 562,-308.682 562,-308.682 558.01,-308.967 561.744,-305.091 554.02,-309.251 554.02,-309.251"/>
<ellipse fill="none" stroke="black" cx="550.828" cy="-309.479" rx="3.2" ry="3.2"/>
</g>
<!-- public.projects -->
<g id="node6" class="node"><title>public.projects</title>
<g id="a_node6"><a xlink:href="../../../public/tables/projects.html" xlink:title="public.projects" target="_top">
<polygon fill="#ffffff" stroke="none" points="321.5,-270.682 321.5,-328.682 455.5,-328.682 455.5,-270.682 321.5,-270.682"/>
<polygon fill="#f5f5f5" stroke="none" points="321.5,-306.682 321.5,-328.682 455.5,-328.682 455.5,-306.682 321.5,-306.682"/>
<polygon fill="none" stroke="black" points="321.5,-306.682 321.5,-328.682 455.5,-328.682 455.5,-306.682 321.5,-306.682"/>
<text text-anchor="start" x="326.5" y="-315.882" font-family="Helvetica,sans-Serif" font-weight="bold" font-size="11.00">public.projects</text>
<text text-anchor="start" x="416.5" y="-314.882" font-family="Helvetica,sans-Serif" font-size="11.00">[table]</text>
<polygon fill="none" stroke="black" points="321.5,-288.682 321.5,-306.682 455.5,-306.682 455.5,-288.682 321.5,-288.682"/>
<text text-anchor="start" x="324.5" y="-294.882" font-family="Helvetica,sans-Serif" font-size="11.00">...</text>
<polygon fill="#ffffff" stroke="none" points="321.5,-270.682 321.5,-288.682 362.5,-288.682 362.5,-270.682 321.5,-270.682"/>
<polygon fill="none" stroke="black" points="321.5,-270.682 321.5,-288.682 362.5,-288.682 362.5,-270.682 321.5,-270.682"/>
<text text-anchor="start" x="324.5" y="-276.882" font-family="Helvetica,sans-Serif" font-size="11.00"> &#160;</text>
<polygon fill="#ffffff" stroke="none" points="362.5,-270.682 362.5,-288.682 418.5,-288.682 418.5,-270.682 362.5,-270.682"/>
<polygon fill="none" stroke="black" points="362.5,-270.682 362.5,-288.682 418.5,-288.682 418.5,-270.682 362.5,-270.682"/>
<text text-anchor="start" x="379.5" y="-276.882" font-family="Helvetica,sans-Serif" font-size="11.00">0 rows</text>
<polygon fill="#ffffff" stroke="none" points="418.5,-270.682 418.5,-288.682 455.5,-288.682 455.5,-270.682 418.5,-270.682"/>
<polygon fill="none" stroke="black" points="418.5,-270.682 418.5,-288.682 455.5,-288.682 455.5,-270.682 418.5,-270.682"/>
<text text-anchor="start" x="435.5" y="-276.882" font-family="Helvetica,sans-Serif" font-size="11.00">4 &gt;</text>
</a>
</g>
</g>
<!-- documents&#45;&gt;public.projects -->
<g id="edge8" class="edge"><title>documents:project_id:w&#45;&gt;public.projects:elipses:e</title>
<path fill="none" stroke="black" d="M547.273,-265.78C510.786,-271.506 500.256,-297.682 456.5,-297.682"/>
<polygon fill="black" stroke="black" points="554.022,-265.277 562.268,-268.272 558.011,-264.98 562,-264.682 562,-264.682 562,-264.682 558.011,-264.98 561.732,-261.092 554.022,-265.277 554.022,-265.277"/>
<ellipse fill="none" stroke="black" cx="550.831" cy="-265.515" rx="3.2" ry="3.2"/>
</g>
<!-- document_statuses -->
<g id="node7" class="node"><title>document_statuses</title>
<g id="a_node7"><a xlink:href="../../tables/document_statuses.html" xlink:title="document_statuses" target="_top">
<polygon fill="#ffffff" stroke="none" points="309,-191.682 309,-249.682 468,-249.682 468,-191.682 309,-191.682"/>
<polygon fill="#f5f5f5" stroke="none" points="309.5,-227.682 309.5,-249.682 468.5,-249.682 468.5,-227.682 309.5,-227.682"/>
<polygon fill="none" stroke="black" points="309.5,-227.682 309.5,-249.682 468.5,-249.682 468.5,-227.682 309.5,-227.682"/>
<text text-anchor="start" x="314.5" y="-236.882" font-family="Helvetica,sans-Serif" font-weight="bold" font-size="11.00">document_statuses</text>
<text text-anchor="start" x="429.5" y="-235.882" font-family="Helvetica,sans-Serif" font-size="11.00">[table]</text>
<polygon fill="none" stroke="black" points="309.5,-209.682 309.5,-227.682 468.5,-227.682 468.5,-209.682 309.5,-209.682"/>
<text text-anchor="start" x="312.5" y="-215.882" font-family="Helvetica,sans-Serif" font-size="11.00">...</text>
<polygon fill="#ffffff" stroke="none" points="309.5,-191.682 309.5,-209.682 362.5,-209.682 362.5,-191.682 309.5,-191.682"/>
<polygon fill="none" stroke="black" points="309.5,-191.682 309.5,-209.682 362.5,-209.682 362.5,-191.682 309.5,-191.682"/>
<text text-anchor="start" x="312.5" y="-197.882" font-family="Helvetica,sans-Serif" font-size="11.00"> &#160;</text>
<polygon fill="#ffffff" stroke="none" points="362.5,-191.682 362.5,-209.682 424.5,-209.682 424.5,-191.682 362.5,-191.682"/>
<polygon fill="none" stroke="black" points="362.5,-191.682 362.5,-209.682 424.5,-209.682 424.5,-191.682 362.5,-191.682"/>
<text text-anchor="start" x="385.5" y="-197.882" font-family="Helvetica,sans-Serif" font-size="11.00">5 rows</text>
<polygon fill="#ffffff" stroke="none" points="424.5,-191.682 424.5,-209.682 468.5,-209.682 468.5,-191.682 424.5,-191.682"/>
<polygon fill="none" stroke="black" points="424.5,-191.682 424.5,-209.682 468.5,-209.682 468.5,-191.682 424.5,-191.682"/>
<text text-anchor="start" x="448.5" y="-197.882" font-family="Helvetica,sans-Serif" font-size="11.00">1 &gt;</text>
</a>
</g>
</g>
<!-- documents&#45;&gt;document_statuses -->
<g id="edge9" class="edge"><title>documents:status_id:w&#45;&gt;document_statuses:elipses:e</title>
<path fill="none" stroke="black" d="M547.504,-220.591C517.722,-220.2 505.32,-218.682 469.5,-218.682"/>
<polygon fill="black" stroke="black" points="554,-220.632 561.977,-224.282 558,-220.657 562,-220.682 562,-220.682 562,-220.682 558,-220.657 562.023,-217.082 554,-220.632 554,-220.632"/>
<ellipse fill="none" stroke="black" cx="550.8" cy="-220.612" rx="3.2" ry="3.2"/>
</g>
<!-- variable_manifests&#45;&gt;public.users -->
<g id="edge12" class="edge"><title>variable_manifests:created_by:w&#45;&gt;public.users:elipses:e</title>
<path fill="none" stroke="black" d="M299.587,-411.882C272.673,-358.322 208.873,-140.682 194,-140.682"/>
<polygon fill="black" stroke="black" points="303.678,-417.299 305.627,-425.852 306.089,-420.49 308.5,-423.682 308.5,-423.682 308.5,-423.682 306.089,-420.49 311.373,-421.512 303.678,-417.299 303.678,-417.299"/>
<ellipse fill="none" stroke="black" cx="301.749" cy="-414.745" rx="3.20001" ry="3.20001"/>
</g>
<!-- variable_manifests&#45;&gt;document_templates -->
<g id="edge13" class="edge"><title>variable_manifests:document_template_id:w&#45;&gt;document_templates:id.type:e</title>
<path fill="none" stroke="black" d="M294.856,-441.004C280.944,-429.116 283.412,-398.682 259,-398.682"/>
<polygon fill="black" stroke="black" points="300.933,-443.087 307.332,-449.087 304.716,-444.385 308.5,-445.682 308.5,-445.682 308.5,-445.682 304.716,-444.385 309.668,-442.277 300.933,-443.087 300.933,-443.087"/>
<ellipse fill="none" stroke="black" cx="297.906" cy="-442.049" rx="3.20001" ry="3.20001"/>
</g>
<!-- variable_manifest_entries -->
<g id="node8" class="node"><title>variable_manifest_entries</title>
<g id="a_node8"><a xlink:href="../../tables/variable_manifest_entries.html" xlink:title="variable_manifest_entries" target="_top">
<polygon fill="#ffffff" stroke="none" points="544,-384.682 544,-442.682 740,-442.682 740,-384.682 544,-384.682"/>
<polygon fill="#f5f5f5" stroke="none" points="544,-420.682 544,-442.682 740,-442.682 740,-420.682 544,-420.682"/>
<polygon fill="none" stroke="black" points="544,-420.682 544,-442.682 740,-442.682 740,-420.682 544,-420.682"/>
<text text-anchor="start" x="549" y="-429.882" font-family="Helvetica,sans-Serif" font-weight="bold" font-size="11.00">variable_manifest_entries</text>
<text text-anchor="start" x="701" y="-428.882" font-family="Helvetica,sans-Serif" font-size="11.00">[table]</text>
<polygon fill="none" stroke="black" points="544,-402.682 544,-420.682 740,-420.682 740,-402.682 544,-402.682"/>
<text text-anchor="start" x="547" y="-408.882" font-family="Helvetica,sans-Serif" font-size="11.00">...</text>
<polygon fill="#ffffff" stroke="none" points="544,-384.682 544,-402.682 626,-402.682 626,-384.682 544,-384.682"/>
<polygon fill="none" stroke="black" points="544,-384.682 544,-402.682 626,-402.682 626,-384.682 544,-384.682"/>
<text text-anchor="start" x="547" y="-390.882" font-family="Helvetica,sans-Serif" font-size="11.00">&lt; 2</text>
<polygon fill="#ffffff" stroke="none" points="626,-384.682 626,-402.682 697,-402.682 697,-384.682 626,-384.682"/>
<polygon fill="none" stroke="black" points="626,-384.682 626,-402.682 697,-402.682 697,-384.682 626,-384.682"/>
<text text-anchor="start" x="658" y="-390.882" font-family="Helvetica,sans-Serif" font-size="11.00">0 rows</text>
<polygon fill="#ffffff" stroke="none" points="697,-384.682 697,-402.682 740,-402.682 740,-384.682 697,-384.682"/>
<polygon fill="none" stroke="black" points="697,-384.682 697,-402.682 740,-402.682 740,-384.682 697,-384.682"/>
<text text-anchor="start" x="730" y="-390.882" font-family="Helvetica,sans-Serif" font-size="11.00"> &#160;</text>
</a>
</g>
</g>
<!-- variable_manifest_entries&#45;&gt;variable_manifests -->
<g id="edge11" class="edge"><title>variable_manifest_entries:elipses:w&#45;&gt;variable_manifests:id:e</title>
<path fill="none" stroke="black" d="M528.547,-414.536C502.929,-425.948 504.259,-467.682 468.5,-467.682"/>
<polygon fill="black" stroke="black" points="535.152,-413.232 543.697,-415.214 539.076,-412.457 543,-411.682 543,-411.682 543,-411.682 539.076,-412.457 542.303,-408.15 535.152,-413.232 535.152,-413.232"/>
<ellipse fill="none" stroke="black" cx="532.012" cy="-413.852" rx="3.2" ry="3.2"/>
</g>
<!-- variable_section_default_values -->
<g id="node9" class="node"><title>variable_section_default_values</title>
<g id="a_node9"><a xlink:href="../../tables/variable_section_default_values.html" xlink:title="variable_section_default_values" target="_top">
<polygon fill="#ffffff" stroke="none" points="527.5,-569.682 527.5,-627.682 756.5,-627.682 756.5,-569.682 527.5,-569.682"/>
<polygon fill="#f5f5f5" stroke="none" points="528,-605.682 528,-627.682 757,-627.682 757,-605.682 528,-605.682"/>
<polygon fill="none" stroke="black" points="528,-605.682 528,-627.682 757,-627.682 757,-605.682 528,-605.682"/>
<text text-anchor="start" x="533" y="-614.882" font-family="Helvetica,sans-Serif" font-weight="bold" font-size="11.00">variable_section_default_values</text>
<text text-anchor="start" x="718" y="-613.882" font-family="Helvetica,sans-Serif" font-size="11.00">[table]</text>
<polygon fill="none" stroke="black" points="528,-587.682 528,-605.682 757,-605.682 757,-587.682 528,-587.682"/>
<text text-anchor="start" x="531" y="-593.882" font-family="Helvetica,sans-Serif" font-size="11.00">...</text>
<polygon fill="#ffffff" stroke="none" points="528,-569.682 528,-587.682 626,-587.682 626,-569.682 528,-569.682"/>
<polygon fill="none" stroke="black" points="528,-569.682 528,-587.682 626,-587.682 626,-569.682 528,-569.682"/>
<text text-anchor="start" x="531" y="-575.882" font-family="Helvetica,sans-Serif" font-size="11.00">&lt; 9</text>
<polygon fill="#ffffff" stroke="none" points="626,-569.682 626,-587.682 706,-587.682 706,-569.682 626,-569.682"/>
<polygon fill="none" stroke="black" points="626,-569.682 626,-587.682 706,-587.682 706,-569.682 626,-569.682"/>
<text text-anchor="start" x="667" y="-575.882" font-family="Helvetica,sans-Serif" font-size="11.00">0 rows</text>
<polygon fill="#ffffff" stroke="none" points="706,-569.682 706,-587.682 757,-587.682 757,-569.682 706,-569.682"/>
<polygon fill="none" stroke="black" points="706,-569.682 706,-587.682 757,-587.682 757,-569.682 706,-569.682"/>
<text text-anchor="start" x="747" y="-575.882" font-family="Helvetica,sans-Serif" font-size="11.00"> &#160;</text>
</a>
</g>
</g>
<!-- variable_section_default_values&#45;&gt;variable_manifests -->
<g id="edge14" class="edge"><title>variable_section_default_values:elipses:w&#45;&gt;variable_manifests:id:e</title>
<path fill="none" stroke="black" d="M512.517,-593.493C475.54,-573.628 525.551,-467.682 468.5,-467.682"/>
<polygon fill="black" stroke="black" points="519.187,-594.962 526.226,-600.198 523.094,-595.822 527,-596.682 527,-596.682 527,-596.682 523.094,-595.822 527.774,-593.166 519.187,-594.962 519.187,-594.962"/>
<ellipse fill="none" stroke="black" cx="516.062" cy="-594.274" rx="3.2" ry="3.2"/>
</g>
<!-- variable_section_recommendations -->
<g id="node10" class="node"><title>variable_section_recommendations</title>
<g id="a_node10"><a xlink:href="../../tables/variable_section_recommendations.html" xlink:title="variable_section_recommendations" target="_top">
<polygon fill="#ffffff" stroke="none" points="517,-490.682 517,-548.682 767,-548.682 767,-490.682 517,-490.682"/>
<polygon fill="#f5f5f5" stroke="none" points="517,-526.682 517,-548.682 767,-548.682 767,-526.682 517,-526.682"/>
<polygon fill="none" stroke="black" points="517,-526.682 517,-548.682 767,-548.682 767,-526.682 517,-526.682"/>
<text text-anchor="start" x="522" y="-535.882" font-family="Helvetica,sans-Serif" font-weight="bold" font-size="11.00">variable_section_recommendations</text>
<text text-anchor="start" x="728" y="-534.882" font-family="Helvetica,sans-Serif" font-size="11.00">[table]</text>
<polygon fill="none" stroke="black" points="517,-508.682 517,-526.682 767,-526.682 767,-508.682 517,-508.682"/>
<text text-anchor="start" x="520" y="-514.882" font-family="Helvetica,sans-Serif" font-size="11.00">...</text>
<polygon fill="#ffffff" stroke="none" points="517,-490.682 517,-508.682 626,-508.682 626,-490.682 517,-490.682"/>
<polygon fill="none" stroke="black" points="517,-490.682 517,-508.682 626,-508.682 626,-490.682 517,-490.682"/>
<text text-anchor="start" x="520" y="-496.882" font-family="Helvetica,sans-Serif" font-size="11.00">&lt; 4</text>
<polygon fill="#ffffff" stroke="none" points="626,-490.682 626,-508.682 711,-508.682 711,-490.682 626,-490.682"/>
<polygon fill="none" stroke="black" points="626,-490.682 626,-508.682 711,-508.682 711,-490.682 626,-490.682"/>
<text text-anchor="start" x="672" y="-496.882" font-family="Helvetica,sans-Serif" font-size="11.00">0 rows</text>
<polygon fill="#ffffff" stroke="none" points="711,-490.682 711,-508.682 767,-508.682 767,-490.682 711,-490.682"/>
<polygon fill="none" stroke="black" points="711,-490.682 711,-508.682 767,-508.682 767,-490.682 711,-490.682"/>
<text text-anchor="start" x="757" y="-496.882" font-family="Helvetica,sans-Serif" font-size="11.00"> &#160;</text>
</a>
</g>
</g>
<!-- variable_section_recommendations&#45;&gt;variable_manifests -->
<g id="edge15" class="edge"><title>variable_section_recommendations:elipses:w&#45;&gt;variable_manifests:id:e</title>
<path fill="none" stroke="black" d="M502.465,-512.705C489.045,-500.058 493.165,-467.682 468.5,-467.682"/>
<polygon fill="black" stroke="black" points="508.492,-514.921 514.758,-521.061 512.246,-516.302 516,-517.682 516,-517.682 516,-517.682 512.246,-516.302 517.242,-514.303 508.492,-514.921 508.492,-514.921"/>
<ellipse fill="none" stroke="black" cx="505.488" cy="-513.817" rx="3.20001" ry="3.20001"/>
</g>
</g>
</svg>
