<?xml version="1.0" encoding="UTF-8" standalone="no"?>
<!DOCTYPE svg PUBLIC "-//W3C//DTD SVG 1.1//EN"
 "http://www.w3.org/Graphics/SVG/1.1/DTD/svg11.dtd">
<!-- Generated by graphviz version 2.47.1 (20210515.0534)
 -->
<!-- Title: twoDegreesRelationshipsDiagram Pages: 1 -->
<svg width="627pt" height="374pt"
 viewBox="0.00 0.00 627.00 374.00" xmlns="http://www.w3.org/2000/svg" xmlns:xlink="http://www.w3.org/1999/xlink">
<g id="graph0" class="graph" transform="scale(1 1) rotate(0) translate(4 370)">
<title>twoDegreesRelationshipsDiagram</title>
<polygon fill="#ffffff" stroke="transparent" points="-4,4 -4,-370 623,-370 623,4 -4,4"/>
<text text-anchor="middle" x="73.5" y="-7.2" font-family="Helvetica,sans-Serif" font-size="11.00">Generated by SchemaSpy</text>
<!-- activities -->
<g id="node1" class="node">
<title>activities</title>
<g id="a_node1"><a xlink:href="../../tables/activities.html" xlink:title="activities" target="_top">
<polygon fill="#ffffff" stroke="transparent" points="258,-114 258,-172 356,-172 356,-114 258,-114"/>
<polygon fill="#f5f5f5" stroke="transparent" points="258,-150 258,-172 356,-172 356,-150 258,-150"/>
<polygon fill="none" stroke="black" points="258,-150 258,-172 356,-172 356,-150 258,-150"/>
<text text-anchor="start" x="263" y="-159.2" font-family="Helvetica,sans-Serif" font-weight="bold" font-size="11.00">activities</text>
<text text-anchor="start" x="317" y="-158.2" font-family="Helvetica,sans-Serif" font-size="11.00">[table]</text>
<polygon fill="none" stroke="black" points="258,-132 258,-150 356,-150 356,-132 258,-132"/>
<text text-anchor="start" x="261" y="-138.2" font-family="Helvetica,sans-Serif" font-size="11.00">...</text>
<polygon fill="#ffffff" stroke="transparent" points="258,-114 258,-132 300,-132 300,-114 258,-114"/>
<polygon fill="none" stroke="black" points="258,-114 258,-132 300,-132 300,-114 258,-114"/>
<text text-anchor="start" x="261" y="-120.2" font-family="Helvetica,sans-Serif" font-size="11.00">&lt; 6</text>
<polygon fill="#ffffff" stroke="transparent" points="300,-114 300,-132 323,-132 323,-114 300,-114"/>
<polygon fill="none" stroke="black" points="300,-114 300,-132 323,-132 323,-114 300,-114"/>
<text text-anchor="start" x="313" y="-120.2" font-family="Helvetica,sans-Serif" font-size="11.00"> &#160;</text>
<polygon fill="#ffffff" stroke="transparent" points="323,-114 323,-132 356,-132 356,-114 323,-114"/>
<polygon fill="none" stroke="black" points="323,-114 323,-132 356,-132 356,-114 323,-114"/>
<text text-anchor="start" x="337" y="-120.2" font-family="Helvetica,sans-Serif" font-size="11.00">2 &gt;</text>
</a>
</g>
</g>
<!-- activity_statuses -->
<g id="node2" class="node">
<title>activity_statuses</title>
<g id="a_node2"><a xlink:href="../../tables/activity_statuses.html" xlink:title="activity_statuses" target="_top">
<polygon fill="#ffffff" stroke="transparent" points="36.5,-195 36.5,-253 180.5,-253 180.5,-195 36.5,-195"/>
<polygon fill="#f5f5f5" stroke="transparent" points="36.5,-231 36.5,-253 180.5,-253 180.5,-231 36.5,-231"/>
<polygon fill="none" stroke="black" points="36.5,-231 36.5,-253 180.5,-253 180.5,-231 36.5,-231"/>
<text text-anchor="start" x="41.5" y="-240.2" font-family="Helvetica,sans-Serif" font-weight="bold" font-size="11.00">activity_statuses</text>
<text text-anchor="start" x="141.5" y="-239.2" font-family="Helvetica,sans-Serif" font-size="11.00">[table]</text>
<polygon fill="none" stroke="black" points="36.5,-213 36.5,-231 180.5,-231 180.5,-213 36.5,-213"/>
<text text-anchor="start" x="39.5" y="-219.2" font-family="Helvetica,sans-Serif" font-size="11.00">...</text>
<polygon fill="#ffffff" stroke="transparent" points="36.5,-195 36.5,-213 97.5,-213 97.5,-195 36.5,-195"/>
<polygon fill="none" stroke="black" points="36.5,-195 36.5,-213 97.5,-213 97.5,-195 36.5,-195"/>
<text text-anchor="start" x="39.5" y="-201.2" font-family="Helvetica,sans-Serif" font-size="11.00"> &#160;</text>
<polygon fill="#ffffff" stroke="transparent" points="97.5,-195 97.5,-213 134.5,-213 134.5,-195 97.5,-195"/>
<polygon fill="none" stroke="black" points="97.5,-195 97.5,-213 134.5,-213 134.5,-195 97.5,-195"/>
<text text-anchor="start" x="124.5" y="-201.2" font-family="Helvetica,sans-Serif" font-size="11.00"> &#160;</text>
<polygon fill="#ffffff" stroke="transparent" points="134.5,-195 134.5,-213 180.5,-213 180.5,-195 134.5,-195"/>
<polygon fill="none" stroke="black" points="134.5,-195 134.5,-213 180.5,-213 180.5,-195 134.5,-195"/>
<text text-anchor="start" x="161.5" y="-201.2" font-family="Helvetica,sans-Serif" font-size="11.00">1 &gt;</text>
</a>
</g>
</g>
<!-- activities&#45;&gt;activity_statuses -->
<g id="edge1" class="edge">
<title>activities:w&#45;&gt;activity_statuses:e</title>
<path fill="none" stroke="black" d="M264.45,-185.77C241.94,-204.37 212.45,-222 181.5,-222"/>
<polygon fill="black" stroke="black" points="269.53,-181.32 277.92,-178.75 272.54,-178.68 275.55,-176.05 275.55,-176.05 275.55,-176.05 272.54,-178.68 273.17,-173.34 269.53,-181.32 269.53,-181.32"/>
<ellipse fill="none" stroke="black" cx="267.12" cy="-183.43" rx="3.2" ry="3.2"/>
</g>
<!-- activity_types -->
<g id="node3" class="node">
<title>activity_types</title>
<g id="a_node3"><a xlink:href="../../tables/activity_types.html" xlink:title="activity_types" target="_top">
<polygon fill="#ffffff" stroke="transparent" points="8,-274 8,-362 209,-362 209,-274 8,-274"/>
<polygon fill="#f5f5f5" stroke="transparent" points="10.5,-338 10.5,-360 207.5,-360 207.5,-338 10.5,-338"/>
<polygon fill="none" stroke="black" points="10.5,-338 10.5,-360 207.5,-360 207.5,-338 10.5,-338"/>
<text text-anchor="start" x="15.5" y="-347.2" font-family="Helvetica,sans-Serif" font-weight="bold" font-size="11.00">activity_types</text>
<text text-anchor="start" x="168.5" y="-346.2" font-family="Helvetica,sans-Serif" font-size="11.00">[table]</text>
<polygon fill="none" stroke="black" points="10.5,-316 10.5,-338 113.5,-338 113.5,-316 10.5,-316"/>
<image xlink:href="../../images/primaryKeys.png" width="11px" height="12px" preserveAspectRatio="xMinYMin meet" x="15.5" y="-333"/>
<text text-anchor="start" x="30.5" y="-324.2" font-family="Helvetica,sans-Serif" font-size="11.00">id</text>
<polygon fill="none" stroke="black" points="113.5,-316 113.5,-338 207.5,-338 207.5,-316 113.5,-316"/>
<text text-anchor="start" x="116.5" y="-324.2" font-family="Helvetica,sans-Serif" font-size="11.00">int4[10]</text>
<polygon fill="#ffffff" stroke="transparent" points="10.5,-294 10.5,-316 113.5,-316 113.5,-294 10.5,-294"/>
<polygon fill="none" stroke="black" points="10.5,-294 10.5,-316 113.5,-316 113.5,-294 10.5,-294"/>
<text text-anchor="start" x="30.5" y="-302.2" font-family="Helvetica,sans-Serif" font-size="11.00">name</text>
<polygon fill="none" stroke="black" points="113.5,-294 113.5,-316 207.5,-316 207.5,-294 113.5,-294"/>
<text text-anchor="start" x="116.5" y="-302.2" font-family="Helvetica,sans-Serif" font-size="11.00">text[2147483647]</text>
<polygon fill="#ffffff" stroke="transparent" points="10.5,-276 10.5,-294 66.5,-294 66.5,-276 10.5,-276"/>
<polygon fill="none" stroke="black" points="10.5,-276 10.5,-294 66.5,-294 66.5,-276 10.5,-276"/>
<text text-anchor="start" x="13.5" y="-282.2" font-family="Helvetica,sans-Serif" font-size="11.00">&lt; 0</text>
<polygon fill="#ffffff" stroke="transparent" points="66.5,-276 66.5,-294 113.5,-294 113.5,-276 66.5,-276"/>
<polygon fill="none" stroke="black" points="66.5,-276 66.5,-294 113.5,-294 113.5,-276 66.5,-276"/>
<text text-anchor="start" x="103.5" y="-282.2" font-family="Helvetica,sans-Serif" font-size="11.00"> &#160;</text>
<polygon fill="#ffffff" stroke="transparent" points="113.5,-276 113.5,-294 207.5,-294 207.5,-276 113.5,-276"/>
<polygon fill="none" stroke="black" points="113.5,-276 113.5,-294 207.5,-294 207.5,-276 113.5,-276"/>
<text text-anchor="start" x="188.5" y="-282.2" font-family="Helvetica,sans-Serif" font-size="11.00">2 &gt;</text>
<polygon fill="none" stroke="black" stroke-width="2" points="9,-275 9,-361 208,-361 208,-275 9,-275"/>
</a>
</g>
</g>
<!-- activities&#45;&gt;activity_types -->
<g id="edge2" class="edge">
<title>activities:w&#45;&gt;activity_types:e</title>
<path fill="none" stroke="black" d="M291.18,-190.19C272.61,-244.71 239.45,-327 208.5,-327"/>
<polygon fill="black" stroke="black" points="293.27,-183.91 299.21,-177.46 294.53,-180.12 295.8,-176.32 295.8,-176.32 295.8,-176.32 294.53,-180.12 292.38,-175.18 293.27,-183.91 293.27,-183.91"/>
<ellipse fill="none" stroke="black" cx="292.26" cy="-186.95" rx="3.2" ry="3.2"/>
</g>
<!-- public.users -->
<g id="node4" class="node">
<title>public.users</title>
<g id="a_node4"><a xlink:href="../../../public/tables/users.html" xlink:title="public.users" target="_top">
<polygon fill="#ffffff" stroke="transparent" points="50.5,-116 50.5,-174 166.5,-174 166.5,-116 50.5,-116"/>
<polygon fill="#f5f5f5" stroke="transparent" points="50.5,-152 50.5,-174 166.5,-174 166.5,-152 50.5,-152"/>
<polygon fill="none" stroke="black" points="50.5,-152 50.5,-174 166.5,-174 166.5,-152 50.5,-152"/>
<text text-anchor="start" x="55.5" y="-161.2" font-family="Helvetica,sans-Serif" font-weight="bold" font-size="11.00">public.users</text>
<text text-anchor="start" x="127.5" y="-160.2" font-family="Helvetica,sans-Serif" font-size="11.00">[table]</text>
<polygon fill="none" stroke="black" points="50.5,-134 50.5,-152 166.5,-152 166.5,-134 50.5,-134"/>
<text text-anchor="start" x="53.5" y="-140.2" font-family="Helvetica,sans-Serif" font-size="11.00">...</text>
<polygon fill="#ffffff" stroke="transparent" points="50.5,-116 50.5,-134 80.5,-134 80.5,-116 50.5,-116"/>
<polygon fill="none" stroke="black" points="50.5,-116 50.5,-134 80.5,-134 80.5,-116 50.5,-116"/>
<text text-anchor="start" x="53.5" y="-122.2" font-family="Helvetica,sans-Serif" font-size="11.00"> &#160;</text>
<polygon fill="#ffffff" stroke="transparent" points="80.5,-116 80.5,-134 129.5,-134 129.5,-116 80.5,-116"/>
<polygon fill="none" stroke="black" points="80.5,-116 80.5,-134 129.5,-134 129.5,-116 80.5,-116"/>
<text text-anchor="start" x="92.5" y="-122.2" font-family="Helvetica,sans-Serif" font-size="11.00">0 rows</text>
<polygon fill="#ffffff" stroke="transparent" points="129.5,-116 129.5,-134 166.5,-134 166.5,-116 129.5,-116"/>
<polygon fill="none" stroke="black" points="129.5,-116 129.5,-134 166.5,-134 166.5,-116 129.5,-116"/>
<text text-anchor="start" x="141.5" y="-122.2" font-family="Helvetica,sans-Serif" font-size="11.00">37 &gt;</text>
</a>
</g>
</g>
<!-- activities&#45;&gt;public.users -->
<g id="edge3" class="edge">
<title>activities:w&#45;&gt;public.users:e</title>
<path fill="none" stroke="black" d="M235.12,-134.05C213.42,-135.37 189.48,-138.36 167.5,-143"/>
<polygon fill="black" stroke="black" points="241.74,-133.75 249.89,-136.99 245.74,-133.57 249.73,-133.39 249.73,-133.39 249.73,-133.39 245.74,-133.57 249.57,-129.8 241.74,-133.75 241.74,-133.75"/>
<ellipse fill="none" stroke="black" cx="238.54" cy="-133.89" rx="3.2" ry="3.2"/>
</g>
<!-- activities&#45;&gt;public.users -->
<g id="edge4" class="edge">
<title>activities:w&#45;&gt;public.users:e</title>
<path fill="none" stroke="black" d="M235.12,-143C213.42,-143 189.48,-143 167.5,-143"/>
<polygon fill="black" stroke="black" points="241.73,-143 249.73,-146.6 245.73,-143 249.73,-143 249.73,-143 249.73,-143 245.73,-143 249.73,-139.4 241.73,-143 241.73,-143"/>
<ellipse fill="none" stroke="black" cx="238.53" cy="-143" rx="3.2" ry="3.2"/>
</g>
<!-- activities&#45;&gt;public.users -->
<g id="edge6" class="edge">
<title>activities:w&#45;&gt;public.users:e</title>
<path fill="none" stroke="black" d="M235.12,-151.95C213.42,-150.63 189.48,-147.64 167.5,-143"/>
<polygon fill="black" stroke="black" points="241.74,-152.25 249.57,-156.2 245.74,-152.43 249.73,-152.61 249.73,-152.61 249.73,-152.61 245.74,-152.43 249.89,-149.01 241.74,-152.25 241.74,-152.25"/>
<ellipse fill="none" stroke="black" cx="238.54" cy="-152.11" rx="3.2" ry="3.2"/>
</g>
<!-- public.projects -->
<g id="node5" class="node">
<title>public.projects</title>
<g id="a_node5"><a xlink:href="../../../public/tables/projects.html" xlink:title="public.projects" target="_top">
<polygon fill="#ffffff" stroke="transparent" points="42.5,-37 42.5,-95 174.5,-95 174.5,-37 42.5,-37"/>
<polygon fill="#f5f5f5" stroke="transparent" points="42.5,-73 42.5,-95 174.5,-95 174.5,-73 42.5,-73"/>
<polygon fill="none" stroke="black" points="42.5,-73 42.5,-95 174.5,-95 174.5,-73 42.5,-73"/>
<text text-anchor="start" x="47.5" y="-82.2" font-family="Helvetica,sans-Serif" font-weight="bold" font-size="11.00">public.projects</text>
<text text-anchor="start" x="135.5" y="-81.2" font-family="Helvetica,sans-Serif" font-size="11.00">[table]</text>
<polygon fill="none" stroke="black" points="42.5,-55 42.5,-73 174.5,-73 174.5,-55 42.5,-55"/>
<text text-anchor="start" x="45.5" y="-61.2" font-family="Helvetica,sans-Serif" font-size="11.00">...</text>
<polygon fill="#ffffff" stroke="transparent" points="42.5,-37 42.5,-55 85.5,-55 85.5,-37 42.5,-37"/>
<polygon fill="none" stroke="black" points="42.5,-37 42.5,-55 85.5,-55 85.5,-37 42.5,-37"/>
<text text-anchor="start" x="45.5" y="-43.2" font-family="Helvetica,sans-Serif" font-size="11.00">&lt; 3</text>
<polygon fill="#ffffff" stroke="transparent" points="85.5,-37 85.5,-55 135.5,-55 135.5,-37 85.5,-37"/>
<polygon fill="none" stroke="black" points="85.5,-37 85.5,-55 135.5,-55 135.5,-37 85.5,-37"/>
<text text-anchor="start" x="98.5" y="-43.2" font-family="Helvetica,sans-Serif" font-size="11.00">0 rows</text>
<polygon fill="#ffffff" stroke="transparent" points="135.5,-37 135.5,-55 174.5,-55 174.5,-37 135.5,-37"/>
<polygon fill="none" stroke="black" points="135.5,-37 135.5,-55 174.5,-55 174.5,-37 135.5,-37"/>
<text text-anchor="start" x="149.5" y="-43.2" font-family="Helvetica,sans-Serif" font-size="11.00">15 &gt;</text>
</a>
</g>
</g>
<!-- activities&#45;&gt;public.projects -->
<g id="edge5" class="edge">
<title>activities:w&#45;&gt;public.projects:e</title>
<path fill="none" stroke="black" d="M262.42,-100.48C238.7,-81.79 207.67,-64 175.5,-64"/>
<polygon fill="black" stroke="black" points="267.64,-104.83 271.48,-112.72 270.71,-107.39 273.79,-109.95 273.79,-109.95 273.79,-109.95 270.71,-107.39 276.09,-107.19 267.64,-104.83 267.64,-104.83"/>
<ellipse fill="none" stroke="black" cx="265.18" cy="-102.79" rx="3.2" ry="3.2"/>
</g>
<!-- activity_media_files -->
<g id="node6" class="node">
<title>activity_media_files</title>
<g id="a_node6"><a xlink:href="../../tables/activity_media_files.html" xlink:title="activity_media_files" target="_top">
<polygon fill="#ffffff" stroke="transparent" points="427.5,-116 427.5,-174 588.5,-174 588.5,-116 427.5,-116"/>
<polygon fill="#f5f5f5" stroke="transparent" points="428,-152 428,-174 589,-174 589,-152 428,-152"/>
<polygon fill="none" stroke="black" points="428,-152 428,-174 589,-174 589,-152 428,-152"/>
<text text-anchor="start" x="433" y="-161.2" font-family="Helvetica,sans-Serif" font-weight="bold" font-size="11.00">activity_media_files</text>
<text text-anchor="start" x="550" y="-160.2" font-family="Helvetica,sans-Serif" font-size="11.00">[table]</text>
<polygon fill="none" stroke="black" points="428,-134 428,-152 589,-152 589,-134 428,-134"/>
<text text-anchor="start" x="431" y="-140.2" font-family="Helvetica,sans-Serif" font-size="11.00">...</text>
<polygon fill="#ffffff" stroke="transparent" points="428,-116 428,-134 506,-134 506,-116 428,-116"/>
<polygon fill="none" stroke="black" points="428,-116 428,-134 506,-134 506,-116 428,-116"/>
<text text-anchor="start" x="431" y="-122.2" font-family="Helvetica,sans-Serif" font-size="11.00">&lt; 3</text>
<polygon fill="#ffffff" stroke="transparent" points="506,-116 506,-134 547,-134 547,-116 506,-116"/>
<polygon fill="none" stroke="black" points="506,-116 506,-134 547,-134 547,-116 506,-116"/>
<text text-anchor="start" x="537" y="-122.2" font-family="Helvetica,sans-Serif" font-size="11.00"> &#160;</text>
<polygon fill="#ffffff" stroke="transparent" points="547,-116 547,-134 589,-134 589,-116 547,-116"/>
<polygon fill="none" stroke="black" points="547,-116 547,-134 589,-134 589,-116 547,-116"/>
<text text-anchor="start" x="579" y="-122.2" font-family="Helvetica,sans-Serif" font-size="11.00"> &#160;</text>
</a>
</g>
</g>
<!-- activity_media_files&#45;&gt;activities -->
<g id="edge7" class="edge">
<title>activity_media_files:w&#45;&gt;activities:e</title>
<path fill="none" stroke="black" d="M416.3,-143C398.91,-143 380.71,-143 364.3,-143"/>
<polygon fill="black" stroke="black" points="426.2,-139 426.2,-147 424.6,-147 424.6,-139 426.2,-139"/>
<polyline fill="none" stroke="black" points="427,-143 423,-143 "/>
<ellipse fill="none" stroke="black" cx="419.8" cy="-143" rx="3.2" ry="3.2"/>
</g>
<!-- funder.published_activities -->
<g id="node7" class="node">
<title>funder.published_activities</title>
<g id="a_node7"><a xlink:href="../../../funder/tables/published_activities.html" xlink:title="funder.published_activities" target="_top">
<polygon fill="#ffffff" stroke="transparent" points="405,-246 405,-304 611,-304 611,-246 405,-246"/>
<polygon fill="#f5f5f5" stroke="transparent" points="405,-282 405,-304 611,-304 611,-282 405,-282"/>
<polygon fill="none" stroke="black" points="405,-282 405,-304 611,-304 611,-282 405,-282"/>
<text text-anchor="start" x="410" y="-291.2" font-family="Helvetica,sans-Serif" font-weight="bold" font-size="11.00">funder.published_activities</text>
<text text-anchor="start" x="572" y="-290.2" font-family="Helvetica,sans-Serif" font-size="11.00">[table]</text>
<polygon fill="none" stroke="black" points="405,-264 405,-282 611,-282 611,-264 405,-264"/>
<text text-anchor="start" x="408" y="-270.2" font-family="Helvetica,sans-Serif" font-size="11.00">...</text>
<polygon fill="#ffffff" stroke="transparent" points="405,-246 405,-264 492,-264 492,-246 405,-246"/>
<polygon fill="none" stroke="black" points="405,-246 405,-264 492,-264 492,-246 405,-246"/>
<text text-anchor="start" x="408" y="-252.2" font-family="Helvetica,sans-Serif" font-size="11.00">&lt; 2</text>
<polygon fill="#ffffff" stroke="transparent" points="492,-246 492,-264 565,-264 565,-246 492,-246"/>
<polygon fill="none" stroke="black" points="492,-246 492,-264 565,-264 565,-246 492,-246"/>
<text text-anchor="start" x="528" y="-252.2" font-family="Helvetica,sans-Serif" font-size="11.00">0 rows</text>
<polygon fill="#ffffff" stroke="transparent" points="565,-246 565,-264 611,-264 611,-246 565,-246"/>
<polygon fill="none" stroke="black" points="565,-246 565,-264 611,-264 611,-246 565,-246"/>
<text text-anchor="start" x="601" y="-252.2" font-family="Helvetica,sans-Serif" font-size="11.00"> &#160;</text>
</a>
</g>
</g>
<!-- funder.published_activities&#45;&gt;activities -->
<g id="edge8" class="edge">
<title>funder.published_activities:w&#45;&gt;activities:e</title>
<path fill="none" stroke="black" d="M444.96,-233.85C416.97,-215.28 384.36,-193.65 357.98,-176.15"/>
<polygon fill="black" stroke="black" points="450.37,-237.44 455.05,-244.86 453.71,-239.65 457.04,-241.86 457.04,-241.86 457.04,-241.86 453.71,-239.65 459.03,-238.86 450.37,-237.44 450.37,-237.44"/>
<ellipse fill="none" stroke="black" cx="447.71" cy="-235.67" rx="3.2" ry="3.2"/>
</g>
<!-- funder.published_activities&#45;&gt;activity_types -->
<g id="edge9" class="edge">
<title>funder.published_activities:w&#45;&gt;activity_types:e</title>
<path fill="none" stroke="black" d="M382.49,-306.54C329.26,-317.45 266.2,-327 208.5,-327"/>
<polygon fill="black" stroke="black" points="389.04,-305.16 397.61,-307.03 392.96,-304.33 396.87,-303.51 396.87,-303.51 396.87,-303.51 392.96,-304.33 396.13,-299.99 389.04,-305.16 389.04,-305.16"/>
<ellipse fill="none" stroke="black" cx="385.91" cy="-305.82" rx="3.2" ry="3.2"/>
</g>
</g>
</svg>
