<?xml version="1.0" encoding="UTF-8" standalone="no"?>
<!DOCTYPE svg PUBLIC "-//W3C//DTD SVG 1.1//EN"
 "http://www.w3.org/Graphics/SVG/1.1/DTD/svg11.dtd">
<!-- Generated by graphviz version 2.47.1 (20210515.0534)
 -->
<!-- Title: oneDegreeRelationshipsDiagram Pages: 1 -->
<svg width="653pt" height="290pt"
 viewBox="0.00 0.00 653.00 290.41" xmlns="http://www.w3.org/2000/svg" xmlns:xlink="http://www.w3.org/1999/xlink">
<g id="graph0" class="graph" transform="scale(1 1) rotate(0) translate(4 286.41)">
<title>oneDegreeRelationshipsDiagram</title>
<polygon fill="#ffffff" stroke="transparent" points="-4,4 -4,-286.41 649,-286.41 649,4 -4,4"/>
<text text-anchor="middle" x="73.5" y="-7.2" font-family="Helvetica,sans-Serif" font-size="11.00">Generated by SchemaSpy</text>
<!-- activities -->
<g id="node1" class="node">
<title>activities</title>
<g id="a_node1"><a xlink:href="../../tables/activities.html" xlink:title="activities" target="_top">
<polygon fill="#ffffff" stroke="transparent" points="258,-66.41 258,-278.41 382,-278.41 382,-66.41 258,-66.41"/>
<polygon fill="#f5f5f5" stroke="transparent" points="258,-256.41 258,-278.41 382,-278.41 382,-256.41 258,-256.41"/>
<polygon fill="none" stroke="black" points="258,-256.41 258,-278.41 382,-278.41 382,-256.41 258,-256.41"/>
<text text-anchor="start" x="263" y="-265.61" font-family="Helvetica,sans-Serif" font-weight="bold" font-size="11.00">activities</text>
<text text-anchor="start" x="343" y="-264.61" font-family="Helvetica,sans-Serif" font-size="11.00">[table]</text>
<polygon fill="none" stroke="black" points="258,-234.41 258,-256.41 382,-256.41 382,-234.41 258,-234.41"/>
<image xlink:href="../../images/primaryKeys.png" width="11px" height="12px" preserveAspectRatio="xMinYMin meet" x="263" y="-251.414"/>
<text text-anchor="start" x="278" y="-242.61" font-family="Helvetica,sans-Serif" font-size="11.00">id</text>
<polygon fill="#ffffff" stroke="transparent" points="258,-212.41 258,-234.41 382,-234.41 382,-212.41 258,-212.41"/>
<polygon fill="none" stroke="black" points="258,-212.41 258,-234.41 382,-234.41 382,-212.41 258,-212.41"/>
<image xlink:href="../../images/foreignKeys.png" width="11px" height="12px" preserveAspectRatio="xMinYMin meet" x="263" y="-229.414"/>
<text text-anchor="start" x="278" y="-220.61" font-family="Helvetica,sans-Serif" font-size="11.00">project_id</text>
<polygon fill="none" stroke="black" points="258,-190.41 258,-212.41 382,-212.41 382,-190.41 258,-190.41"/>
<image xlink:href="../../images/foreignKeys.png" width="11px" height="12px" preserveAspectRatio="xMinYMin meet" x="263" y="-207.414"/>
<text text-anchor="start" x="278" y="-198.61" font-family="Helvetica,sans-Serif" font-size="11.00">activity_type_id</text>
<polygon fill="none" stroke="black" points="258,-168.41 258,-190.41 382,-190.41 382,-168.41 258,-168.41"/>
<image xlink:href="../../images/foreignKeys.png" width="11px" height="12px" preserveAspectRatio="xMinYMin meet" x="263" y="-185.414"/>
<text text-anchor="start" x="278" y="-176.61" font-family="Helvetica,sans-Serif" font-size="11.00">created_by</text>
<polygon fill="none" stroke="black" points="258,-146.41 258,-168.41 382,-168.41 382,-146.41 258,-146.41"/>
<image xlink:href="../../images/foreignKeys.png" width="11px" height="12px" preserveAspectRatio="xMinYMin meet" x="263" y="-163.414"/>
<text text-anchor="start" x="278" y="-154.61" font-family="Helvetica,sans-Serif" font-size="11.00">modified_by</text>
<polygon fill="none" stroke="black" points="258,-124.41 258,-146.41 382,-146.41 382,-124.41 258,-124.41"/>
<image xlink:href="../../images/foreignKeys.png" width="11px" height="12px" preserveAspectRatio="xMinYMin meet" x="263" y="-141.414"/>
<text text-anchor="start" x="278" y="-132.61" font-family="Helvetica,sans-Serif" font-size="11.00">verified_by</text>
<polygon fill="none" stroke="black" points="258,-102.41 258,-124.41 382,-124.41 382,-102.41 258,-102.41"/>
<image xlink:href="../../images/foreignKeys.png" width="11px" height="12px" preserveAspectRatio="xMinYMin meet" x="263" y="-119.414"/>
<text text-anchor="start" x="278" y="-110.61" font-family="Helvetica,sans-Serif" font-size="11.00">activity_status_id</text>
<polygon fill="none" stroke="black" points="258,-84.41 258,-102.41 382,-102.41 382,-84.41 258,-84.41"/>
<text text-anchor="start" x="261" y="-90.61" font-family="Helvetica,sans-Serif" font-size="11.00">...</text>
<polygon fill="#ffffff" stroke="transparent" points="258,-66.41 258,-84.41 313,-84.41 313,-66.41 258,-66.41"/>
<polygon fill="none" stroke="black" points="258,-66.41 258,-84.41 313,-84.41 313,-66.41 258,-66.41"/>
<text text-anchor="start" x="261" y="-72.61" font-family="Helvetica,sans-Serif" font-size="11.00">&lt; 6</text>
<polygon fill="#ffffff" stroke="transparent" points="313,-66.41 313,-84.41 343,-84.41 343,-66.41 313,-66.41"/>
<polygon fill="none" stroke="black" points="313,-66.41 313,-84.41 343,-84.41 343,-66.41 313,-66.41"/>
<text text-anchor="start" x="333" y="-72.61" font-family="Helvetica,sans-Serif" font-size="11.00"> &#160;</text>
<polygon fill="#ffffff" stroke="transparent" points="343,-66.41 343,-84.41 382,-84.41 382,-66.41 343,-66.41"/>
<polygon fill="none" stroke="black" points="343,-66.41 343,-84.41 382,-84.41 382,-66.41 343,-66.41"/>
<text text-anchor="start" x="363" y="-72.61" font-family="Helvetica,sans-Serif" font-size="11.00">2 &gt;</text>
</a>
</g>
</g>
<!-- activity_types -->
<g id="node2" class="node">
<title>activity_types</title>
<g id="a_node2"><a xlink:href="../../tables/activity_types.html" xlink:title="activity_types" target="_top">
<polygon fill="#ffffff" stroke="transparent" points="8,-68.41 8,-156.41 209,-156.41 209,-68.41 8,-68.41"/>
<polygon fill="#f5f5f5" stroke="transparent" points="10.5,-132.41 10.5,-154.41 207.5,-154.41 207.5,-132.41 10.5,-132.41"/>
<polygon fill="none" stroke="black" points="10.5,-132.41 10.5,-154.41 207.5,-154.41 207.5,-132.41 10.5,-132.41"/>
<text text-anchor="start" x="15.5" y="-141.61" font-family="Helvetica,sans-Serif" font-weight="bold" font-size="11.00">activity_types</text>
<text text-anchor="start" x="168.5" y="-140.61" font-family="Helvetica,sans-Serif" font-size="11.00">[table]</text>
<polygon fill="none" stroke="black" points="10.5,-110.41 10.5,-132.41 113.5,-132.41 113.5,-110.41 10.5,-110.41"/>
<image xlink:href="../../images/primaryKeys.png" width="11px" height="12px" preserveAspectRatio="xMinYMin meet" x="15.5" y="-127.414"/>
<text text-anchor="start" x="30.5" y="-118.61" font-family="Helvetica,sans-Serif" font-size="11.00">id</text>
<polygon fill="none" stroke="black" points="113.5,-110.41 113.5,-132.41 207.5,-132.41 207.5,-110.41 113.5,-110.41"/>
<text text-anchor="start" x="116.5" y="-118.61" font-family="Helvetica,sans-Serif" font-size="11.00">int4[10]</text>
<polygon fill="#ffffff" stroke="transparent" points="10.5,-88.41 10.5,-110.41 113.5,-110.41 113.5,-88.41 10.5,-88.41"/>
<polygon fill="none" stroke="black" points="10.5,-88.41 10.5,-110.41 113.5,-110.41 113.5,-88.41 10.5,-88.41"/>
<text text-anchor="start" x="30.5" y="-96.61" font-family="Helvetica,sans-Serif" font-size="11.00">name</text>
<polygon fill="none" stroke="black" points="113.5,-88.41 113.5,-110.41 207.5,-110.41 207.5,-88.41 113.5,-88.41"/>
<text text-anchor="start" x="116.5" y="-96.61" font-family="Helvetica,sans-Serif" font-size="11.00">text[2147483647]</text>
<polygon fill="#ffffff" stroke="transparent" points="10.5,-70.41 10.5,-88.41 66.5,-88.41 66.5,-70.41 10.5,-70.41"/>
<polygon fill="none" stroke="black" points="10.5,-70.41 10.5,-88.41 66.5,-88.41 66.5,-70.41 10.5,-70.41"/>
<text text-anchor="start" x="13.5" y="-76.61" font-family="Helvetica,sans-Serif" font-size="11.00">&lt; 0</text>
<polygon fill="#ffffff" stroke="transparent" points="66.5,-70.41 66.5,-88.41 113.5,-88.41 113.5,-70.41 66.5,-70.41"/>
<polygon fill="none" stroke="black" points="66.5,-70.41 66.5,-88.41 113.5,-88.41 113.5,-70.41 66.5,-70.41"/>
<text text-anchor="start" x="103.5" y="-76.61" font-family="Helvetica,sans-Serif" font-size="11.00"> &#160;</text>
<polygon fill="#ffffff" stroke="transparent" points="113.5,-70.41 113.5,-88.41 207.5,-88.41 207.5,-70.41 113.5,-70.41"/>
<polygon fill="none" stroke="black" points="113.5,-70.41 113.5,-88.41 207.5,-88.41 207.5,-70.41 113.5,-70.41"/>
<text text-anchor="start" x="188.5" y="-76.61" font-family="Helvetica,sans-Serif" font-size="11.00">2 &gt;</text>
<polygon fill="none" stroke="black" stroke-width="2" points="9,-69.41 9,-155.41 208,-155.41 208,-69.41 9,-69.41"/>
</a>
</g>
</g>
<!-- activities&#45;&gt;activity_types -->
<g id="edge1" class="edge">
<title>activities:w&#45;&gt;activity_types:e</title>
<path fill="none" stroke="black" d="M243.29,-196.88C223.85,-179.96 244.07,-121.41 208.5,-121.41"/>
<polygon fill="black" stroke="black" points="249.4,-198.9 255.87,-204.83 253.2,-200.16 257,-201.41 257,-201.41 257,-201.41 253.2,-200.16 258.13,-198 249.4,-198.9 249.4,-198.9"/>
<ellipse fill="none" stroke="black" cx="246.37" cy="-197.9" rx="3.2" ry="3.2"/>
</g>
<!-- funder.published_activities -->
<g id="node3" class="node">
<title>funder.published_activities</title>
<g id="a_node3"><a xlink:href="../../../funder/tables/published_activities.html" xlink:title="funder.published_activities" target="_top">
<polygon fill="#ffffff" stroke="transparent" points="431,-85.41 431,-187.41 637,-187.41 637,-85.41 431,-85.41"/>
<polygon fill="#f5f5f5" stroke="transparent" points="431,-165.41 431,-187.41 637,-187.41 637,-165.41 431,-165.41"/>
<polygon fill="none" stroke="black" points="431,-165.41 431,-187.41 637,-187.41 637,-165.41 431,-165.41"/>
<text text-anchor="start" x="436" y="-174.61" font-family="Helvetica,sans-Serif" font-weight="bold" font-size="11.00">funder.published_activities</text>
<text text-anchor="start" x="598" y="-173.61" font-family="Helvetica,sans-Serif" font-size="11.00">[table]</text>
<polygon fill="none" stroke="black" points="431,-143.41 431,-165.41 637,-165.41 637,-143.41 431,-143.41"/>
<image xlink:href="../../images/foreignKeys.png" width="11px" height="12px" preserveAspectRatio="xMinYMin meet" x="436" y="-160.414"/>
<text text-anchor="start" x="485" y="-151.61" font-family="Helvetica,sans-Serif" font-size="11.00">activity_id</text>
<polygon fill="none" stroke="black" points="431,-121.41 431,-143.41 637,-143.41 637,-121.41 431,-121.41"/>
<image xlink:href="../../images/foreignKeys.png" width="11px" height="12px" preserveAspectRatio="xMinYMin meet" x="436" y="-138.414"/>
<text text-anchor="start" x="485" y="-129.61" font-family="Helvetica,sans-Serif" font-size="11.00">activity_type_id</text>
<polygon fill="none" stroke="black" points="431,-103.41 431,-121.41 637,-121.41 637,-103.41 431,-103.41"/>
<text text-anchor="start" x="434" y="-109.61" font-family="Helvetica,sans-Serif" font-size="11.00">...</text>
<polygon fill="#ffffff" stroke="transparent" points="431,-85.41 431,-103.41 518,-103.41 518,-85.41 431,-85.41"/>
<polygon fill="none" stroke="black" points="431,-85.41 431,-103.41 518,-103.41 518,-85.41 431,-85.41"/>
<text text-anchor="start" x="434" y="-91.61" font-family="Helvetica,sans-Serif" font-size="11.00">&lt; 2</text>
<polygon fill="#ffffff" stroke="transparent" points="518,-85.41 518,-103.41 591,-103.41 591,-85.41 518,-85.41"/>
<polygon fill="none" stroke="black" points="518,-85.41 518,-103.41 591,-103.41 591,-85.41 518,-85.41"/>
<text text-anchor="start" x="554" y="-91.61" font-family="Helvetica,sans-Serif" font-size="11.00">0 rows</text>
<polygon fill="#ffffff" stroke="transparent" points="591,-85.41 591,-103.41 637,-103.41 637,-85.41 591,-85.41"/>
<polygon fill="none" stroke="black" points="591,-85.41 591,-103.41 637,-103.41 637,-85.41 591,-85.41"/>
<text text-anchor="start" x="627" y="-91.61" font-family="Helvetica,sans-Serif" font-size="11.00"> &#160;</text>
</a>
</g>
</g>
<!-- funder.published_activities&#45;&gt;activities -->
<g id="edge2" class="edge">
<title>funder.published_activities:w&#45;&gt;activities:e</title>
<path fill="none" stroke="black" d="M416.18,-158.8C394.6,-176.98 422.47,-245.41 383,-245.41"/>
<polygon fill="black" stroke="black" points="422.38,-156.84 431.09,-157.84 426.19,-155.62 430,-154.41 430,-154.41 430,-154.41 426.19,-155.62 428.91,-150.98 422.38,-156.84 422.38,-156.84"/>
<ellipse fill="none" stroke="black" cx="419.33" cy="-157.8" rx="3.2" ry="3.2"/>
</g>
<!-- funder.published_activities&#45;&gt;activity_types -->
<g id="edge3" class="edge">
<title>funder.published_activities:w&#45;&gt;activity_types:e</title>
<path fill="none" stroke="black" d="M416.2,-128.28C400.24,-114.93 417.32,-72.91 390,-56.41 336.73,-24.25 304.57,-26.51 250,-56.41 219.94,-72.88 242.77,-121.41 208.5,-121.41"/>
<polygon fill="black" stroke="black" points="422.34,-130.12 428.97,-135.86 426.17,-131.27 430,-132.41 430,-132.41 430,-132.41 426.17,-131.27 431.03,-128.97 422.34,-130.12 422.34,-130.12"/>
<ellipse fill="none" stroke="black" cx="419.27" cy="-129.2" rx="3.2" ry="3.2"/>
</g>
</g>
</svg>
