<?xml version="1.0" encoding="UTF-8" standalone="no"?>
<!DOCTYPE svg PUBLIC "-//W3C//DTD SVG 1.1//EN"
 "http://www.w3.org/Graphics/SVG/1.1/DTD/svg11.dtd">
<!-- Generated by graphviz version 2.47.1 (20210515.0534)
 -->
<!-- Title: oneDegreeRelationshipsDiagram Pages: 1 -->
<svg width="927pt" height="752pt"
 viewBox="0.00 0.00 927.00 752.00" xmlns="http://www.w3.org/2000/svg" xmlns:xlink="http://www.w3.org/1999/xlink">
<g id="graph0" class="graph" transform="scale(1 1) rotate(0) translate(4 748)">
<title>oneDegreeRelationshipsDiagram</title>
<polygon fill="#ffffff" stroke="transparent" points="-4,4 -4,-748 923,-748 923,4 -4,4"/>
<text text-anchor="middle" x="73.5" y="-7.2" font-family="Helvetica,sans-Serif" font-size="11.00">Generated by SchemaSpy</text>
<!-- auto_calculated_indicator_targets -->
<g id="node1" class="node">
<title>auto_calculated_indicator_targets</title>
<g id="a_node1"><a xlink:href="../../tables/auto_calculated_indicator_targets.html" xlink:title="auto_calculated_indicator_targets" target="_top">
<polygon fill="#ffffff" stroke="transparent" points="611.5,-638 611.5,-740 856.5,-740 856.5,-638 611.5,-638"/>
<polygon fill="#f5f5f5" stroke="transparent" points="612,-718 612,-740 857,-740 857,-718 612,-718"/>
<polygon fill="none" stroke="black" points="612,-718 612,-740 857,-740 857,-718 612,-718"/>
<text text-anchor="start" x="617" y="-727.2" font-family="Helvetica,sans-Serif" font-weight="bold" font-size="11.00">auto_calculated_indicator_targets</text>
<text text-anchor="start" x="818" y="-726.2" font-family="Helvetica,sans-Serif" font-size="11.00">[table]</text>
<polygon fill="none" stroke="black" points="612,-696 612,-718 857,-718 857,-696 612,-696"/>
<image xlink:href="../../images/primaryKeys.png" width="11px" height="12px" preserveAspectRatio="xMinYMin meet" x="617" y="-713"/>
<text text-anchor="start" x="644" y="-704.2" font-family="Helvetica,sans-Serif" font-size="11.00">project_id</text>
<polygon fill="none" stroke="black" points="612,-674 612,-696 857,-696 857,-674 612,-674"/>
<image xlink:href="../../images/primaryKeys.png" width="11px" height="12px" preserveAspectRatio="xMinYMin meet" x="617" y="-691"/>
<text text-anchor="start" x="644" y="-682.2" font-family="Helvetica,sans-Serif" font-size="11.00">auto_calculated_indicator_id</text>
<polygon fill="none" stroke="black" points="612,-656 612,-674 857,-674 857,-656 612,-656"/>
<text text-anchor="start" x="615" y="-662.2" font-family="Helvetica,sans-Serif" font-size="11.00">...</text>
<polygon fill="#ffffff" stroke="transparent" points="612,-638 612,-656 732,-656 732,-638 612,-638"/>
<polygon fill="none" stroke="black" points="612,-638 612,-656 732,-656 732,-638 612,-638"/>
<text text-anchor="start" x="615" y="-644.2" font-family="Helvetica,sans-Serif" font-size="11.00">&lt; 2</text>
<polygon fill="#ffffff" stroke="transparent" points="732,-638 732,-656 794,-656 794,-638 732,-638"/>
<polygon fill="none" stroke="black" points="732,-638 732,-656 794,-656 794,-638 732,-638"/>
<text text-anchor="start" x="784" y="-644.2" font-family="Helvetica,sans-Serif" font-size="11.00"> &#160;</text>
<polygon fill="#ffffff" stroke="transparent" points="794,-638 794,-656 857,-656 857,-638 794,-638"/>
<polygon fill="none" stroke="black" points="794,-638 794,-656 857,-656 857,-638 794,-638"/>
<text text-anchor="start" x="847" y="-644.2" font-family="Helvetica,sans-Serif" font-size="11.00"> &#160;</text>
</a>
</g>
</g>
<!-- auto_calculated_indicators -->
<g id="node2" class="node">
<title>auto_calculated_indicators</title>
<g id="a_node2"><a xlink:href="../../tables/auto_calculated_indicators.html" xlink:title="auto_calculated_indicators" target="_top">
<polygon fill="#ffffff" stroke="transparent" points="230,-100 230,-452 508,-452 508,-100 230,-100"/>
<polygon fill="#f5f5f5" stroke="transparent" points="232,-428 232,-450 506,-450 506,-428 232,-428"/>
<polygon fill="none" stroke="black" points="232,-428 232,-450 506,-450 506,-428 232,-428"/>
<text text-anchor="start" x="237" y="-437.2" font-family="Helvetica,sans-Serif" font-weight="bold" font-size="11.00">auto_calculated_indicators</text>
<text text-anchor="start" x="467" y="-436.2" font-family="Helvetica,sans-Serif" font-size="11.00">[table]</text>
<polygon fill="none" stroke="black" points="232,-406 232,-428 412,-428 412,-406 232,-406"/>
<image xlink:href="../../images/primaryKeys.png" width="11px" height="12px" preserveAspectRatio="xMinYMin meet" x="237" y="-423"/>
<text text-anchor="start" x="252" y="-414.2" font-family="Helvetica,sans-Serif" font-size="11.00">id</text>
<polygon fill="none" stroke="black" points="412,-406 412,-428 506,-428 506,-406 412,-406"/>
<text text-anchor="start" x="415" y="-414.2" font-family="Helvetica,sans-Serif" font-size="11.00">int4[10]</text>
<polygon fill="none" stroke="black" points="232,-384 232,-406 412,-406 412,-384 232,-384"/>
<text text-anchor="start" x="252" y="-392.2" font-family="Helvetica,sans-Serif" font-size="11.00">name</text>
<polygon fill="none" stroke="black" points="412,-384 412,-406 506,-406 506,-384 412,-384"/>
<text text-anchor="start" x="415" y="-392.2" font-family="Helvetica,sans-Serif" font-size="11.00">text[2147483647]</text>
<polygon fill="none" stroke="black" points="232,-362 232,-384 412,-384 412,-362 232,-362"/>
<image xlink:href="../../images/foreignKeys.png" width="11px" height="12px" preserveAspectRatio="xMinYMin meet" x="237" y="-379"/>
<text text-anchor="start" x="252" y="-370.2" font-family="Helvetica,sans-Serif" font-size="11.00">level_id</text>
<polygon fill="none" stroke="black" points="412,-362 412,-384 506,-384 506,-362 412,-362"/>
<text text-anchor="start" x="415" y="-370.2" font-family="Helvetica,sans-Serif" font-size="11.00">int4[10]</text>
<polygon fill="none" stroke="black" points="232,-340 232,-362 412,-362 412,-340 232,-340"/>
<image xlink:href="../../images/foreignKeys.png" width="11px" height="12px" preserveAspectRatio="xMinYMin meet" x="237" y="-357"/>
<text text-anchor="start" x="252" y="-348.2" font-family="Helvetica,sans-Serif" font-size="11.00">category_id</text>
<polygon fill="none" stroke="black" points="412,-340 412,-362 506,-362 506,-340 412,-340"/>
<text text-anchor="start" x="415" y="-348.2" font-family="Helvetica,sans-Serif" font-size="11.00">int4[10]</text>
<polygon fill="none" stroke="black" points="232,-318 232,-340 412,-340 412,-318 232,-318"/>
<text text-anchor="start" x="252" y="-326.2" font-family="Helvetica,sans-Serif" font-size="11.00">description</text>
<polygon fill="none" stroke="black" points="412,-318 412,-340 506,-340 506,-318 412,-318"/>
<text text-anchor="start" x="415" y="-326.2" font-family="Helvetica,sans-Serif" font-size="11.00">text[2147483647]</text>
<polygon fill="none" stroke="black" points="232,-296 232,-318 412,-318 412,-296 232,-296"/>
<text text-anchor="start" x="252" y="-304.2" font-family="Helvetica,sans-Serif" font-size="11.00">ref_id</text>
<polygon fill="none" stroke="black" points="412,-296 412,-318 506,-318 506,-296 412,-296"/>
<text text-anchor="start" x="415" y="-304.2" font-family="Helvetica,sans-Serif" font-size="11.00">text[2147483647]</text>
<polygon fill="none" stroke="black" points="232,-274 232,-296 412,-296 412,-274 232,-274"/>
<text text-anchor="start" x="252" y="-282.2" font-family="Helvetica,sans-Serif" font-size="11.00">is_publishable</text>
<polygon fill="none" stroke="black" points="412,-274 412,-296 506,-296 506,-274 412,-274"/>
<text text-anchor="start" x="415" y="-282.2" font-family="Helvetica,sans-Serif" font-size="11.00">bool[1]</text>
<polygon fill="none" stroke="black" points="232,-252 232,-274 412,-274 412,-252 232,-252"/>
<text text-anchor="start" x="252" y="-260.2" font-family="Helvetica,sans-Serif" font-size="11.00">unit</text>
<polygon fill="none" stroke="black" points="412,-252 412,-274 506,-274 506,-252 412,-252"/>
<text text-anchor="start" x="415" y="-260.2" font-family="Helvetica,sans-Serif" font-size="11.00">text[2147483647]</text>
<polygon fill="none" stroke="black" points="232,-230 232,-252 412,-252 412,-230 232,-230"/>
<text text-anchor="start" x="252" y="-238.2" font-family="Helvetica,sans-Serif" font-size="11.00">primary_data_source</text>
<polygon fill="none" stroke="black" points="412,-230 412,-252 506,-252 506,-230 412,-230"/>
<text text-anchor="start" x="415" y="-238.2" font-family="Helvetica,sans-Serif" font-size="11.00">text[2147483647]</text>
<polygon fill="none" stroke="black" points="232,-208 232,-230 412,-230 412,-208 232,-208"/>
<text text-anchor="start" x="252" y="-216.2" font-family="Helvetica,sans-Serif" font-size="11.00">notes</text>
<polygon fill="none" stroke="black" points="412,-208 412,-230 506,-230 506,-208 412,-208"/>
<text text-anchor="start" x="415" y="-216.2" font-family="Helvetica,sans-Serif" font-size="11.00">text[2147483647]</text>
<polygon fill="none" stroke="black" points="232,-186 232,-208 412,-208 412,-186 232,-186"/>
<text text-anchor="start" x="252" y="-194.2" font-family="Helvetica,sans-Serif" font-size="11.00">active</text>
<polygon fill="none" stroke="black" points="412,-186 412,-208 506,-208 506,-186 412,-186"/>
<text text-anchor="start" x="415" y="-194.2" font-family="Helvetica,sans-Serif" font-size="11.00">bool[1]</text>
<polygon fill="none" stroke="black" points="232,-164 232,-186 412,-186 412,-164 232,-164"/>
<image xlink:href="../../images/foreignKeys.png" width="11px" height="12px" preserveAspectRatio="xMinYMin meet" x="237" y="-181"/>
<text text-anchor="start" x="252" y="-172.2" font-family="Helvetica,sans-Serif" font-size="11.00">class_id</text>
<polygon fill="none" stroke="black" points="412,-164 412,-186 506,-186 506,-164 412,-164"/>
<text text-anchor="start" x="415" y="-172.2" font-family="Helvetica,sans-Serif" font-size="11.00">int4[10]</text>
<polygon fill="none" stroke="black" points="232,-142 232,-164 412,-164 412,-142 232,-142"/>
<image xlink:href="../../images/foreignKeys.png" width="11px" height="12px" preserveAspectRatio="xMinYMin meet" x="237" y="-159"/>
<text text-anchor="start" x="252" y="-150.2" font-family="Helvetica,sans-Serif" font-size="11.00">frequency_id</text>
<polygon fill="none" stroke="black" points="412,-142 412,-164 506,-164 506,-142 412,-142"/>
<text text-anchor="start" x="415" y="-150.2" font-family="Helvetica,sans-Serif" font-size="11.00">int4[10]</text>
<polygon fill="none" stroke="black" points="232,-120 232,-142 412,-142 412,-120 232,-120"/>
<text text-anchor="start" x="252" y="-128.2" font-family="Helvetica,sans-Serif" font-size="11.00">tf_owner</text>
<polygon fill="none" stroke="black" points="412,-120 412,-142 506,-142 506,-120 412,-120"/>
<text text-anchor="start" x="415" y="-128.2" font-family="Helvetica,sans-Serif" font-size="11.00">text[2147483647]</text>
<polygon fill="#ffffff" stroke="transparent" points="232,-102 232,-120 326,-120 326,-102 232,-102"/>
<polygon fill="none" stroke="black" points="232,-102 232,-120 326,-120 326,-102 232,-102"/>
<text text-anchor="start" x="235" y="-108.2" font-family="Helvetica,sans-Serif" font-size="11.00">&lt; 4</text>
<polygon fill="#ffffff" stroke="transparent" points="326,-102 326,-120 412,-120 412,-102 326,-102"/>
<polygon fill="none" stroke="black" points="326,-102 326,-120 412,-120 412,-102 326,-102"/>
<text text-anchor="start" x="402" y="-108.2" font-family="Helvetica,sans-Serif" font-size="11.00"> &#160;</text>
<polygon fill="#ffffff" stroke="transparent" points="412,-102 412,-120 506,-120 506,-102 412,-102"/>
<polygon fill="none" stroke="black" points="412,-102 412,-120 506,-120 506,-102 412,-102"/>
<text text-anchor="start" x="487" y="-108.2" font-family="Helvetica,sans-Serif" font-size="11.00">5 &gt;</text>
<polygon fill="none" stroke="black" stroke-width="2" points="231,-101 231,-451 507,-451 507,-101 231,-101"/>
</a>
</g>
</g>
<!-- auto_calculated_indicator_targets&#45;&gt;auto_calculated_indicators -->
<g id="edge1" class="edge">
<title>auto_calculated_indicator_targets:w&#45;&gt;auto_calculated_indicators:e</title>
<path fill="none" stroke="black" d="M596.59,-683.52C571.51,-677.78 564.69,-655.92 549,-628 525.58,-586.32 554.81,-417 507,-417"/>
<polygon fill="black" stroke="black" points="603.04,-684.18 610.63,-688.58 607.02,-684.59 611,-685 611,-685 611,-685 607.02,-684.59 611.37,-681.42 603.04,-684.18 603.04,-684.18"/>
<ellipse fill="none" stroke="black" cx="599.86" cy="-683.86" rx="3.2" ry="3.2"/>
</g>
<!-- indicator_categories -->
<g id="node3" class="node">
<title>indicator_categories</title>
<g id="a_node3"><a xlink:href="../../tables/indicator_categories.html" xlink:title="indicator_categories" target="_top">
<polygon fill="#ffffff" stroke="transparent" points="12,-265 12,-349 177,-349 177,-265 12,-265"/>
<polygon fill="#f5f5f5" stroke="transparent" points="12.5,-327 12.5,-349 177.5,-349 177.5,-327 12.5,-327"/>
<polygon fill="none" stroke="black" points="12.5,-327 12.5,-349 177.5,-349 177.5,-327 12.5,-327"/>
<text text-anchor="start" x="17.5" y="-336.2" font-family="Helvetica,sans-Serif" font-weight="bold" font-size="11.00">indicator_categories</text>
<text text-anchor="start" x="138.5" y="-335.2" font-family="Helvetica,sans-Serif" font-size="11.00">[table]</text>
<polygon fill="none" stroke="black" points="12.5,-305 12.5,-327 177.5,-327 177.5,-305 12.5,-305"/>
<image xlink:href="../../images/primaryKeys.png" width="11px" height="12px" preserveAspectRatio="xMinYMin meet" x="17.5" y="-322"/>
<text text-anchor="start" x="44.5" y="-313.2" font-family="Helvetica,sans-Serif" font-size="11.00">id</text>
<polygon fill="#ffffff" stroke="transparent" points="12.5,-283 12.5,-305 177.5,-305 177.5,-283 12.5,-283"/>
<polygon fill="none" stroke="black" points="12.5,-283 12.5,-305 177.5,-305 177.5,-283 12.5,-283"/>
<text text-anchor="start" x="44.5" y="-291.2" font-family="Helvetica,sans-Serif" font-size="11.00">name</text>
<polygon fill="#ffffff" stroke="transparent" points="12.5,-265 12.5,-283 83.5,-283 83.5,-265 12.5,-265"/>
<polygon fill="none" stroke="black" points="12.5,-265 12.5,-283 83.5,-283 83.5,-265 12.5,-265"/>
<text text-anchor="start" x="15.5" y="-271.2" font-family="Helvetica,sans-Serif" font-size="11.00"> &#160;</text>
<polygon fill="#ffffff" stroke="transparent" points="83.5,-265 83.5,-283 125.5,-283 125.5,-265 83.5,-265"/>
<polygon fill="none" stroke="black" points="83.5,-265 83.5,-283 125.5,-283 125.5,-265 83.5,-265"/>
<text text-anchor="start" x="115.5" y="-271.2" font-family="Helvetica,sans-Serif" font-size="11.00"> &#160;</text>
<polygon fill="#ffffff" stroke="transparent" points="125.5,-265 125.5,-283 177.5,-283 177.5,-265 125.5,-265"/>
<polygon fill="none" stroke="black" points="125.5,-265 125.5,-283 177.5,-283 177.5,-265 125.5,-265"/>
<text text-anchor="start" x="158.5" y="-271.2" font-family="Helvetica,sans-Serif" font-size="11.00">3 &gt;</text>
</a>
</g>
</g>
<!-- auto_calculated_indicators&#45;&gt;indicator_categories -->
<g id="edge2" class="edge">
<title>auto_calculated_indicators:w&#45;&gt;indicator_categories:e</title>
<path fill="none" stroke="black" d="M216.88,-346.99C203.06,-337.79 200.63,-316 178.5,-316"/>
<polygon fill="black" stroke="black" points="223.31,-348.81 230.02,-354.46 227.15,-349.91 231,-351 231,-351 231,-351 227.15,-349.91 231.98,-347.54 223.31,-348.81 223.31,-348.81"/>
<ellipse fill="none" stroke="black" cx="220.23" cy="-347.94" rx="3.2" ry="3.2"/>
</g>
<!-- indicator_classes -->
<g id="node4" class="node">
<title>indicator_classes</title>
<g id="a_node4"><a xlink:href="../../tables/indicator_classes.html" xlink:title="indicator_classes" target="_top">
<polygon fill="#ffffff" stroke="transparent" points="22,-142 22,-226 167,-226 167,-142 22,-142"/>
<polygon fill="#f5f5f5" stroke="transparent" points="22.5,-204 22.5,-226 167.5,-226 167.5,-204 22.5,-204"/>
<polygon fill="none" stroke="black" points="22.5,-204 22.5,-226 167.5,-226 167.5,-204 22.5,-204"/>
<text text-anchor="start" x="27.5" y="-213.2" font-family="Helvetica,sans-Serif" font-weight="bold" font-size="11.00">indicator_classes</text>
<text text-anchor="start" x="128.5" y="-212.2" font-family="Helvetica,sans-Serif" font-size="11.00">[table]</text>
<polygon fill="none" stroke="black" points="22.5,-182 22.5,-204 167.5,-204 167.5,-182 22.5,-182"/>
<image xlink:href="../../images/primaryKeys.png" width="11px" height="12px" preserveAspectRatio="xMinYMin meet" x="27.5" y="-199"/>
<text text-anchor="start" x="54.5" y="-190.2" font-family="Helvetica,sans-Serif" font-size="11.00">id</text>
<polygon fill="#ffffff" stroke="transparent" points="22.5,-160 22.5,-182 167.5,-182 167.5,-160 22.5,-160"/>
<polygon fill="none" stroke="black" points="22.5,-160 22.5,-182 167.5,-182 167.5,-160 22.5,-160"/>
<text text-anchor="start" x="54.5" y="-168.2" font-family="Helvetica,sans-Serif" font-size="11.00">name</text>
<polygon fill="#ffffff" stroke="transparent" points="22.5,-142 22.5,-160 83.5,-160 83.5,-142 22.5,-142"/>
<polygon fill="none" stroke="black" points="22.5,-142 22.5,-160 83.5,-160 83.5,-142 22.5,-142"/>
<text text-anchor="start" x="25.5" y="-148.2" font-family="Helvetica,sans-Serif" font-size="11.00"> &#160;</text>
<polygon fill="#ffffff" stroke="transparent" points="83.5,-142 83.5,-160 120.5,-160 120.5,-142 83.5,-142"/>
<polygon fill="none" stroke="black" points="83.5,-142 83.5,-160 120.5,-160 120.5,-142 83.5,-142"/>
<text text-anchor="start" x="110.5" y="-148.2" font-family="Helvetica,sans-Serif" font-size="11.00"> &#160;</text>
<polygon fill="#ffffff" stroke="transparent" points="120.5,-142 120.5,-160 167.5,-160 167.5,-142 120.5,-142"/>
<polygon fill="none" stroke="black" points="120.5,-142 120.5,-160 167.5,-160 167.5,-142 120.5,-142"/>
<text text-anchor="start" x="148.5" y="-148.2" font-family="Helvetica,sans-Serif" font-size="11.00">3 &gt;</text>
</a>
</g>
</g>
<!-- auto_calculated_indicators&#45;&gt;indicator_classes -->
<g id="edge3" class="edge">
<title>auto_calculated_indicators:w&#45;&gt;indicator_classes:e</title>
<path fill="none" stroke="black" d="M216.47,-176.79C199.34,-181.34 191.76,-193 168.5,-193"/>
<polygon fill="black" stroke="black" points="223.06,-175.98 231.44,-178.57 227.03,-175.49 231,-175 231,-175 231,-175 227.03,-175.49 230.56,-171.43 223.06,-175.98 223.06,-175.98"/>
<ellipse fill="none" stroke="black" cx="219.88" cy="-176.37" rx="3.2" ry="3.2"/>
</g>
<!-- indicator_frequencies -->
<g id="node5" class="node">
<title>indicator_frequencies</title>
<g id="a_node5"><a xlink:href="../../tables/indicator_frequencies.html" xlink:title="indicator_frequencies" target="_top">
<polygon fill="#ffffff" stroke="transparent" points="8,-37 8,-121 181,-121 181,-37 8,-37"/>
<polygon fill="#f5f5f5" stroke="transparent" points="8.5,-99 8.5,-121 181.5,-121 181.5,-99 8.5,-99"/>
<polygon fill="none" stroke="black" points="8.5,-99 8.5,-121 181.5,-121 181.5,-99 8.5,-99"/>
<text text-anchor="start" x="13.5" y="-108.2" font-family="Helvetica,sans-Serif" font-weight="bold" font-size="11.00">indicator_frequencies</text>
<text text-anchor="start" x="142.5" y="-107.2" font-family="Helvetica,sans-Serif" font-size="11.00">[table]</text>
<polygon fill="none" stroke="black" points="8.5,-77 8.5,-99 181.5,-99 181.5,-77 8.5,-77"/>
<image xlink:href="../../images/primaryKeys.png" width="11px" height="12px" preserveAspectRatio="xMinYMin meet" x="13.5" y="-94"/>
<text text-anchor="start" x="40.5" y="-85.2" font-family="Helvetica,sans-Serif" font-size="11.00">id</text>
<polygon fill="#ffffff" stroke="transparent" points="8.5,-55 8.5,-77 181.5,-77 181.5,-55 8.5,-55"/>
<polygon fill="none" stroke="black" points="8.5,-55 8.5,-77 181.5,-77 181.5,-55 8.5,-55"/>
<text text-anchor="start" x="40.5" y="-63.2" font-family="Helvetica,sans-Serif" font-size="11.00">name</text>
<polygon fill="#ffffff" stroke="transparent" points="8.5,-37 8.5,-55 83.5,-55 83.5,-37 8.5,-37"/>
<polygon fill="none" stroke="black" points="8.5,-37 8.5,-55 83.5,-55 83.5,-37 8.5,-37"/>
<text text-anchor="start" x="11.5" y="-43.2" font-family="Helvetica,sans-Serif" font-size="11.00"> &#160;</text>
<polygon fill="#ffffff" stroke="transparent" points="83.5,-37 83.5,-55 127.5,-55 127.5,-37 83.5,-37"/>
<polygon fill="none" stroke="black" points="83.5,-37 83.5,-55 127.5,-55 127.5,-37 83.5,-37"/>
<text text-anchor="start" x="117.5" y="-43.2" font-family="Helvetica,sans-Serif" font-size="11.00"> &#160;</text>
<polygon fill="#ffffff" stroke="transparent" points="127.5,-37 127.5,-55 181.5,-55 181.5,-37 127.5,-37"/>
<polygon fill="none" stroke="black" points="127.5,-37 127.5,-55 181.5,-55 181.5,-37 127.5,-37"/>
<text text-anchor="start" x="162.5" y="-43.2" font-family="Helvetica,sans-Serif" font-size="11.00">3 &gt;</text>
</a>
</g>
</g>
<!-- auto_calculated_indicators&#45;&gt;indicator_frequencies -->
<g id="edge4" class="edge">
<title>auto_calculated_indicators:w&#45;&gt;indicator_frequencies:e</title>
<path fill="none" stroke="black" d="M217.09,-147.9C201.3,-132.58 212.35,-88 182.5,-88"/>
<polygon fill="black" stroke="black" points="223.49,-150.25 229.76,-156.38 227.24,-151.62 231,-153 231,-153 231,-153 227.24,-151.62 232.24,-149.62 223.49,-150.25 223.49,-150.25"/>
<ellipse fill="none" stroke="black" cx="220.48" cy="-149.14" rx="3.2" ry="3.2"/>
</g>
<!-- indicator_levels -->
<g id="node6" class="node">
<title>indicator_levels</title>
<g id="a_node6"><a xlink:href="../../tables/indicator_levels.html" xlink:title="indicator_levels" target="_top">
<polygon fill="#ffffff" stroke="transparent" points="26,-370 26,-454 163,-454 163,-370 26,-370"/>
<polygon fill="#f5f5f5" stroke="transparent" points="26.5,-432 26.5,-454 163.5,-454 163.5,-432 26.5,-432"/>
<polygon fill="none" stroke="black" points="26.5,-432 26.5,-454 163.5,-454 163.5,-432 26.5,-432"/>
<text text-anchor="start" x="31.5" y="-441.2" font-family="Helvetica,sans-Serif" font-weight="bold" font-size="11.00">indicator_levels</text>
<text text-anchor="start" x="124.5" y="-440.2" font-family="Helvetica,sans-Serif" font-size="11.00">[table]</text>
<polygon fill="none" stroke="black" points="26.5,-410 26.5,-432 163.5,-432 163.5,-410 26.5,-410"/>
<image xlink:href="../../images/primaryKeys.png" width="11px" height="12px" preserveAspectRatio="xMinYMin meet" x="31.5" y="-427"/>
<text text-anchor="start" x="58.5" y="-418.2" font-family="Helvetica,sans-Serif" font-size="11.00">id</text>
<polygon fill="#ffffff" stroke="transparent" points="26.5,-388 26.5,-410 163.5,-410 163.5,-388 26.5,-388"/>
<polygon fill="none" stroke="black" points="26.5,-388 26.5,-410 163.5,-410 163.5,-388 26.5,-388"/>
<text text-anchor="start" x="58.5" y="-396.2" font-family="Helvetica,sans-Serif" font-size="11.00">name</text>
<polygon fill="#ffffff" stroke="transparent" points="26.5,-370 26.5,-388 83.5,-388 83.5,-370 26.5,-370"/>
<polygon fill="none" stroke="black" points="26.5,-370 26.5,-388 83.5,-388 83.5,-370 26.5,-370"/>
<text text-anchor="start" x="29.5" y="-376.2" font-family="Helvetica,sans-Serif" font-size="11.00"> &#160;</text>
<polygon fill="#ffffff" stroke="transparent" points="83.5,-370 83.5,-388 118.5,-388 118.5,-370 83.5,-370"/>
<polygon fill="none" stroke="black" points="83.5,-370 83.5,-388 118.5,-388 118.5,-370 83.5,-370"/>
<text text-anchor="start" x="108.5" y="-376.2" font-family="Helvetica,sans-Serif" font-size="11.00"> &#160;</text>
<polygon fill="#ffffff" stroke="transparent" points="118.5,-370 118.5,-388 163.5,-388 163.5,-370 118.5,-370"/>
<polygon fill="none" stroke="black" points="118.5,-370 118.5,-388 163.5,-388 163.5,-370 118.5,-370"/>
<text text-anchor="start" x="144.5" y="-376.2" font-family="Helvetica,sans-Serif" font-size="11.00">3 &gt;</text>
</a>
</g>
</g>
<!-- auto_calculated_indicators&#45;&gt;indicator_levels -->
<g id="edge5" class="edge">
<title>auto_calculated_indicators:w&#45;&gt;indicator_levels:e</title>
<path fill="none" stroke="black" d="M216.73,-376.15C195.5,-386.83 195.26,-421 164.5,-421"/>
<polygon fill="black" stroke="black" points="223.19,-374.72 231.78,-376.52 227.09,-373.86 231,-373 231,-373 231,-373 227.09,-373.86 230.22,-369.48 223.19,-374.72 223.19,-374.72"/>
<ellipse fill="none" stroke="black" cx="220.06" cy="-375.41" rx="3.2" ry="3.2"/>
</g>
<!-- report_auto_calculated_indicator_targets -->
<g id="node7" class="node">
<title>report_auto_calculated_indicator_targets</title>
<g id="a_node7"><a xlink:href="../../tables/report_auto_calculated_indicator_targets.html" xlink:title="report_auto_calculated_indicator_targets" target="_top">
<polygon fill="#ffffff" stroke="transparent" points="590,-493 590,-617 878,-617 878,-493 590,-493"/>
<polygon fill="#f5f5f5" stroke="transparent" points="590,-595 590,-617 878,-617 878,-595 590,-595"/>
<polygon fill="none" stroke="black" points="590,-595 590,-617 878,-617 878,-595 590,-595"/>
<text text-anchor="start" x="595" y="-604.2" font-family="Helvetica,sans-Serif" font-weight="bold" font-size="11.00">report_auto_calculated_indicator_targets</text>
<text text-anchor="start" x="839" y="-603.2" font-family="Helvetica,sans-Serif" font-size="11.00">[table]</text>
<polygon fill="none" stroke="black" points="590,-573 590,-595 878,-595 878,-573 590,-573"/>
<image xlink:href="../../images/primaryKeys.png" width="11px" height="12px" preserveAspectRatio="xMinYMin meet" x="595" y="-590"/>
<text text-anchor="start" x="622" y="-581.2" font-family="Helvetica,sans-Serif" font-size="11.00">project_id</text>
<polygon fill="none" stroke="black" points="590,-551 590,-573 878,-573 878,-551 590,-551"/>
<image xlink:href="../../images/primaryKeys.png" width="11px" height="12px" preserveAspectRatio="xMinYMin meet" x="595" y="-568"/>
<text text-anchor="start" x="622" y="-559.2" font-family="Helvetica,sans-Serif" font-size="11.00">auto_calculated_indicator_id</text>
<polygon fill="none" stroke="black" points="590,-529 590,-551 878,-551 878,-529 590,-529"/>
<image xlink:href="../../images/primaryKeys.png" width="11px" height="12px" preserveAspectRatio="xMinYMin meet" x="595" y="-546"/>
<text text-anchor="start" x="622" y="-537.2" font-family="Helvetica,sans-Serif" font-size="11.00">year</text>
<polygon fill="none" stroke="black" points="590,-511 590,-529 878,-529 878,-511 590,-511"/>
<text text-anchor="start" x="593" y="-517.2" font-family="Helvetica,sans-Serif" font-size="11.00">...</text>
<polygon fill="#ffffff" stroke="transparent" points="590,-493 590,-511 732,-511 732,-493 590,-493"/>
<polygon fill="none" stroke="black" points="590,-493 590,-511 732,-511 732,-493 590,-493"/>
<text text-anchor="start" x="593" y="-499.2" font-family="Helvetica,sans-Serif" font-size="11.00">&lt; 2</text>
<polygon fill="#ffffff" stroke="transparent" points="732,-493 732,-511 805,-511 805,-493 732,-493"/>
<polygon fill="none" stroke="black" points="732,-493 732,-511 805,-511 805,-493 732,-493"/>
<text text-anchor="start" x="795" y="-499.2" font-family="Helvetica,sans-Serif" font-size="11.00"> &#160;</text>
<polygon fill="#ffffff" stroke="transparent" points="805,-493 805,-511 878,-511 878,-493 805,-493"/>
<polygon fill="none" stroke="black" points="805,-493 805,-511 878,-511 878,-493 805,-493"/>
<text text-anchor="start" x="868" y="-499.2" font-family="Helvetica,sans-Serif" font-size="11.00"> &#160;</text>
</a>
</g>
</g>
<!-- report_auto_calculated_indicator_targets&#45;&gt;auto_calculated_indicators -->
<g id="edge6" class="edge">
<title>report_auto_calculated_indicator_targets:w&#45;&gt;auto_calculated_indicators:e</title>
<path fill="none" stroke="black" d="M574.72,-559.72C524,-541.28 575.54,-417 507,-417"/>
<polygon fill="black" stroke="black" points="581.1,-560.74 588.43,-565.56 585.05,-561.37 589,-562 589,-562 589,-562 585.05,-561.37 589.57,-558.44 581.1,-560.74 581.1,-560.74"/>
<ellipse fill="none" stroke="black" cx="577.94" cy="-560.24" rx="3.2" ry="3.2"/>
</g>
<!-- report_auto_calculated_indicators -->
<g id="node8" class="node">
<title>report_auto_calculated_indicators</title>
<g id="a_node8"><a xlink:href="../../tables/report_auto_calculated_indicators.html" xlink:title="report_auto_calculated_indicators" target="_top">
<polygon fill="#ffffff" stroke="transparent" points="610.5,-326 610.5,-472 857.5,-472 857.5,-326 610.5,-326"/>
<polygon fill="#f5f5f5" stroke="transparent" points="611,-450 611,-472 858,-472 858,-450 611,-450"/>
<polygon fill="none" stroke="black" points="611,-450 611,-472 858,-472 858,-450 611,-450"/>
<text text-anchor="start" x="616" y="-459.2" font-family="Helvetica,sans-Serif" font-weight="bold" font-size="11.00">report_auto_calculated_indicators</text>
<text text-anchor="start" x="819" y="-458.2" font-family="Helvetica,sans-Serif" font-size="11.00">[table]</text>
<polygon fill="none" stroke="black" points="611,-428 611,-450 858,-450 858,-428 611,-428"/>
<image xlink:href="../../images/primaryKeys.png" width="11px" height="12px" preserveAspectRatio="xMinYMin meet" x="616" y="-445"/>
<text text-anchor="start" x="643" y="-436.2" font-family="Helvetica,sans-Serif" font-size="11.00">report_id</text>
<polygon fill="none" stroke="black" points="611,-406 611,-428 858,-428 858,-406 611,-406"/>
<image xlink:href="../../images/primaryKeys.png" width="11px" height="12px" preserveAspectRatio="xMinYMin meet" x="616" y="-423"/>
<text text-anchor="start" x="643" y="-414.2" font-family="Helvetica,sans-Serif" font-size="11.00">auto_calculated_indicator_id</text>
<polygon fill="none" stroke="black" points="611,-384 611,-406 858,-406 858,-384 611,-384"/>
<image xlink:href="../../images/foreignKeys.png" width="11px" height="12px" preserveAspectRatio="xMinYMin meet" x="616" y="-401"/>
<text text-anchor="start" x="643" y="-392.2" font-family="Helvetica,sans-Serif" font-size="11.00">modified_by</text>
<polygon fill="none" stroke="black" points="611,-362 611,-384 858,-384 858,-362 611,-362"/>
<image xlink:href="../../images/foreignKeys.png" width="11px" height="12px" preserveAspectRatio="xMinYMin meet" x="616" y="-379"/>
<text text-anchor="start" x="643" y="-370.2" font-family="Helvetica,sans-Serif" font-size="11.00">status_id</text>
<polygon fill="none" stroke="black" points="611,-344 611,-362 858,-362 858,-344 611,-344"/>
<text text-anchor="start" x="614" y="-350.2" font-family="Helvetica,sans-Serif" font-size="11.00">...</text>
<polygon fill="#ffffff" stroke="transparent" points="611,-326 611,-344 732,-344 732,-326 611,-326"/>
<polygon fill="none" stroke="black" points="611,-326 611,-344 732,-344 732,-326 611,-326"/>
<text text-anchor="start" x="614" y="-332.2" font-family="Helvetica,sans-Serif" font-size="11.00">&lt; 4</text>
<polygon fill="#ffffff" stroke="transparent" points="732,-326 732,-344 795,-344 795,-326 732,-326"/>
<polygon fill="none" stroke="black" points="732,-326 732,-344 795,-344 795,-326 732,-326"/>
<text text-anchor="start" x="785" y="-332.2" font-family="Helvetica,sans-Serif" font-size="11.00"> &#160;</text>
<polygon fill="#ffffff" stroke="transparent" points="795,-326 795,-344 858,-344 858,-326 795,-326"/>
<polygon fill="none" stroke="black" points="795,-326 795,-344 858,-344 858,-326 795,-326"/>
<text text-anchor="start" x="848" y="-332.2" font-family="Helvetica,sans-Serif" font-size="11.00"> &#160;</text>
</a>
</g>
</g>
<!-- report_auto_calculated_indicators&#45;&gt;auto_calculated_indicators -->
<g id="edge7" class="edge">
<title>report_auto_calculated_indicators:w&#45;&gt;auto_calculated_indicators:e</title>
<path fill="none" stroke="black" d="M595.21,-417C561.07,-417 547.41,-417 507,-417"/>
<polygon fill="black" stroke="black" points="602,-417 610,-420.6 606,-417 610,-417 610,-417 610,-417 606,-417 610,-413.4 602,-417 602,-417"/>
<ellipse fill="none" stroke="black" cx="598.8" cy="-417" rx="3.2" ry="3.2"/>
</g>
<!-- funder.published_auto_calculated_indicator_targets -->
<g id="node9" class="node">
<title>funder.published_auto_calculated_indicator_targets</title>
<g id="a_node9"><a xlink:href="../../../funder/tables/published_auto_calculated_indic_3b9a1510.html" xlink:title="funder.published_auto_calculated_indicator_targets" target="_top">
<polygon fill="#ffffff" stroke="transparent" points="557.5,-225 557.5,-305 910.5,-305 910.5,-225 557.5,-225"/>
<polygon fill="#f5f5f5" stroke="transparent" points="558,-283 558,-305 911,-305 911,-283 558,-283"/>
<polygon fill="none" stroke="black" points="558,-283 558,-305 911,-305 911,-283 558,-283"/>
<text text-anchor="start" x="563" y="-292.2" font-family="Helvetica,sans-Serif" font-weight="bold" font-size="11.00">funder.published_auto_calculated_indicator_targets</text>
<text text-anchor="start" x="872" y="-291.2" font-family="Helvetica,sans-Serif" font-size="11.00">[table]</text>
<polygon fill="none" stroke="black" points="558,-261 558,-283 911,-283 911,-261 558,-261"/>
<image xlink:href="../../images/foreignKeys.png" width="11px" height="12px" preserveAspectRatio="xMinYMin meet" x="563" y="-278"/>
<text text-anchor="start" x="612" y="-269.2" font-family="Helvetica,sans-Serif" font-size="11.00">auto_calculated_indicator_id</text>
<polygon fill="none" stroke="black" points="558,-243 558,-261 911,-261 911,-243 558,-243"/>
<text text-anchor="start" x="561" y="-249.2" font-family="Helvetica,sans-Serif" font-size="11.00">...</text>
<polygon fill="#ffffff" stroke="transparent" points="558,-225 558,-243 719,-243 719,-225 558,-225"/>
<polygon fill="none" stroke="black" points="558,-225 558,-243 719,-243 719,-225 558,-225"/>
<text text-anchor="start" x="561" y="-231.2" font-family="Helvetica,sans-Serif" font-size="11.00">&lt; 1</text>
<polygon fill="#ffffff" stroke="transparent" points="719,-225 719,-243 828,-243 828,-225 719,-225"/>
<polygon fill="none" stroke="black" points="719,-225 719,-243 828,-243 828,-225 719,-225"/>
<text text-anchor="start" x="791" y="-231.2" font-family="Helvetica,sans-Serif" font-size="11.00">0 rows</text>
<polygon fill="#ffffff" stroke="transparent" points="828,-225 828,-243 911,-243 911,-225 828,-225"/>
<polygon fill="none" stroke="black" points="828,-225 828,-243 911,-243 911,-225 828,-225"/>
<text text-anchor="start" x="901" y="-231.2" font-family="Helvetica,sans-Serif" font-size="11.00"> &#160;</text>
</a>
</g>
</g>
<!-- funder.published_auto_calculated_indicator_targets&#45;&gt;auto_calculated_indicators -->
<g id="edge8" class="edge">
<title>funder.published_auto_calculated_indicator_targets:w&#45;&gt;auto_calculated_indicators:e</title>
<path fill="none" stroke="black" d="M542.65,-275.03C502.53,-295.85 569.31,-417 507,-417"/>
<polygon fill="black" stroke="black" points="549.17,-273.65 557.74,-275.52 553.09,-272.83 557,-272 557,-272 557,-272 553.09,-272.83 556.26,-268.48 549.17,-273.65 549.17,-273.65"/>
<ellipse fill="none" stroke="black" cx="546.04" cy="-274.31" rx="3.2" ry="3.2"/>
</g>
<!-- funder.published_report_auto_calculated_indicators -->
<g id="node10" class="node">
<title>funder.published_report_auto_calculated_indicators</title>
<g id="a_node10"><a xlink:href="../../../funder/tables/published_report_auto_calculate_964cdeaf.html" xlink:title="funder.published_report_auto_calculated_indicators" target="_top">
<polygon fill="#ffffff" stroke="transparent" points="557,-102 557,-204 911,-204 911,-102 557,-102"/>
<polygon fill="#f5f5f5" stroke="transparent" points="557,-182 557,-204 911,-204 911,-182 557,-182"/>
<polygon fill="none" stroke="black" points="557,-182 557,-204 911,-204 911,-182 557,-182"/>
<text text-anchor="start" x="562" y="-191.2" font-family="Helvetica,sans-Serif" font-weight="bold" font-size="11.00">funder.published_report_auto_calculated_indicators</text>
<text text-anchor="start" x="872" y="-190.2" font-family="Helvetica,sans-Serif" font-size="11.00">[table]</text>
<polygon fill="none" stroke="black" points="557,-160 557,-182 911,-182 911,-160 557,-160"/>
<image xlink:href="../../images/foreignKeys.png" width="11px" height="12px" preserveAspectRatio="xMinYMin meet" x="562" y="-177"/>
<text text-anchor="start" x="611" y="-168.2" font-family="Helvetica,sans-Serif" font-size="11.00">auto_calculated_indicator_id</text>
<polygon fill="none" stroke="black" points="557,-138 557,-160 911,-160 911,-138 557,-138"/>
<image xlink:href="../../images/foreignKeys.png" width="11px" height="12px" preserveAspectRatio="xMinYMin meet" x="562" y="-155"/>
<text text-anchor="start" x="611" y="-146.2" font-family="Helvetica,sans-Serif" font-size="11.00">status_id</text>
<polygon fill="none" stroke="black" points="557,-120 557,-138 911,-138 911,-120 557,-120"/>
<text text-anchor="start" x="560" y="-126.2" font-family="Helvetica,sans-Serif" font-size="11.00">...</text>
<polygon fill="#ffffff" stroke="transparent" points="557,-102 557,-120 718,-120 718,-102 557,-102"/>
<polygon fill="none" stroke="black" points="557,-102 557,-120 718,-120 718,-102 557,-102"/>
<text text-anchor="start" x="560" y="-108.2" font-family="Helvetica,sans-Serif" font-size="11.00">&lt; 2</text>
<polygon fill="#ffffff" stroke="transparent" points="718,-102 718,-120 828,-120 828,-102 718,-102"/>
<polygon fill="none" stroke="black" points="718,-102 718,-120 828,-120 828,-102 718,-102"/>
<text text-anchor="start" x="791" y="-108.2" font-family="Helvetica,sans-Serif" font-size="11.00">0 rows</text>
<polygon fill="#ffffff" stroke="transparent" points="828,-102 828,-120 911,-120 911,-102 828,-102"/>
<polygon fill="none" stroke="black" points="828,-102 828,-120 911,-120 911,-102 828,-102"/>
<text text-anchor="start" x="901" y="-108.2" font-family="Helvetica,sans-Serif" font-size="11.00"> &#160;</text>
</a>
</g>
</g>
<!-- funder.published_report_auto_calculated_indicators&#45;&gt;auto_calculated_indicators -->
<g id="edge9" class="edge">
<title>funder.published_report_auto_calculated_indicators:w&#45;&gt;auto_calculated_indicators:e</title>
<path fill="none" stroke="black" d="M541.64,-172.7C460.83,-194.44 613.04,-417 507,-417"/>
<polygon fill="black" stroke="black" points="548.06,-171.94 556.42,-174.57 552.03,-171.47 556,-171 556,-171 556,-171 552.03,-171.47 555.58,-167.43 548.06,-171.94 548.06,-171.94"/>
<ellipse fill="none" stroke="black" cx="544.88" cy="-172.32" rx="3.2" ry="3.2"/>
</g>
</g>
</svg>
