<?xml version="1.0" encoding="UTF-8" standalone="no"?>
<!DOCTYPE svg PUBLIC "-//W3C//DTD SVG 1.1//EN"
 "http://www.w3.org/Graphics/SVG/1.1/DTD/svg11.dtd">
<!-- Generated by graphviz version 2.47.1 (20210515.0534)
 -->
<!-- Title: twoDegreesRelationshipsDiagram Pages: 1 -->
<svg width="1367pt" height="1351pt"
 viewBox="0.00 0.00 1367.00 1350.64" xmlns="http://www.w3.org/2000/svg" xmlns:xlink="http://www.w3.org/1999/xlink">
<g id="graph0" class="graph" transform="scale(1 1) rotate(0) translate(4 1346.64)">
<title>twoDegreesRelationshipsDiagram</title>
<polygon fill="#ffffff" stroke="transparent" points="-4,4 -4,-1346.64 1363,-1346.64 1363,4 -4,4"/>
<text text-anchor="middle" x="73.5" y="-7.2" font-family="Helvetica,sans-Serif" font-size="11.00">Generated by SchemaSpy</text>
<!-- activities -->
<g id="node1" class="node">
<title>activities</title>
<g id="a_node1"><a xlink:href="../../tables/activities.html" xlink:title="activities" target="_top">
<polygon fill="#ffffff" stroke="transparent" points="959,-936.96 959,-994.96 1057,-994.96 1057,-936.96 959,-936.96"/>
<polygon fill="#f5f5f5" stroke="transparent" points="959,-972.96 959,-994.96 1057,-994.96 1057,-972.96 959,-972.96"/>
<polygon fill="none" stroke="black" points="959,-972.96 959,-994.96 1057,-994.96 1057,-972.96 959,-972.96"/>
<text text-anchor="start" x="964" y="-982.16" font-family="Helvetica,sans-Serif" font-weight="bold" font-size="11.00">activities</text>
<text text-anchor="start" x="1018" y="-981.16" font-family="Helvetica,sans-Serif" font-size="11.00">[table]</text>
<polygon fill="none" stroke="black" points="959,-954.96 959,-972.96 1057,-972.96 1057,-954.96 959,-954.96"/>
<text text-anchor="start" x="962" y="-961.16" font-family="Helvetica,sans-Serif" font-size="11.00">...</text>
<polygon fill="#ffffff" stroke="transparent" points="959,-936.96 959,-954.96 1001,-954.96 1001,-936.96 959,-936.96"/>
<polygon fill="none" stroke="black" points="959,-936.96 959,-954.96 1001,-954.96 1001,-936.96 959,-936.96"/>
<text text-anchor="start" x="962" y="-943.16" font-family="Helvetica,sans-Serif" font-size="11.00">&lt; 5</text>
<polygon fill="#ffffff" stroke="transparent" points="1001,-936.96 1001,-954.96 1024,-954.96 1024,-936.96 1001,-936.96"/>
<polygon fill="none" stroke="black" points="1001,-936.96 1001,-954.96 1024,-954.96 1024,-936.96 1001,-936.96"/>
<text text-anchor="start" x="1014" y="-943.16" font-family="Helvetica,sans-Serif" font-size="11.00"> &#160;</text>
<polygon fill="#ffffff" stroke="transparent" points="1024,-936.96 1024,-954.96 1057,-954.96 1057,-936.96 1024,-936.96"/>
<polygon fill="none" stroke="black" points="1024,-936.96 1024,-954.96 1057,-954.96 1057,-936.96 1024,-936.96"/>
<text text-anchor="start" x="1038" y="-943.16" font-family="Helvetica,sans-Serif" font-size="11.00">1 &gt;</text>
</a>
</g>
</g>
<!-- public.users -->
<g id="node2" class="node">
<title>public.users</title>
<g id="a_node2"><a xlink:href="../../../public/tables/users.html" xlink:title="public.users" target="_top">
<polygon fill="#ffffff" stroke="transparent" points="15,-812.96 15,-870.96 131,-870.96 131,-812.96 15,-812.96"/>
<polygon fill="#f5f5f5" stroke="transparent" points="15,-848.96 15,-870.96 131,-870.96 131,-848.96 15,-848.96"/>
<polygon fill="none" stroke="black" points="15,-848.96 15,-870.96 131,-870.96 131,-848.96 15,-848.96"/>
<text text-anchor="start" x="20" y="-858.16" font-family="Helvetica,sans-Serif" font-weight="bold" font-size="11.00">public.users</text>
<text text-anchor="start" x="92" y="-857.16" font-family="Helvetica,sans-Serif" font-size="11.00">[table]</text>
<polygon fill="none" stroke="black" points="15,-830.96 15,-848.96 131,-848.96 131,-830.96 15,-830.96"/>
<text text-anchor="start" x="18" y="-837.16" font-family="Helvetica,sans-Serif" font-size="11.00">...</text>
<polygon fill="#ffffff" stroke="transparent" points="15,-812.96 15,-830.96 45,-830.96 45,-812.96 15,-812.96"/>
<polygon fill="none" stroke="black" points="15,-812.96 15,-830.96 45,-830.96 45,-812.96 15,-812.96"/>
<text text-anchor="start" x="18" y="-819.16" font-family="Helvetica,sans-Serif" font-size="11.00"> &#160;</text>
<polygon fill="#ffffff" stroke="transparent" points="45,-812.96 45,-830.96 94,-830.96 94,-812.96 45,-812.96"/>
<polygon fill="none" stroke="black" points="45,-812.96 45,-830.96 94,-830.96 94,-812.96 45,-812.96"/>
<text text-anchor="start" x="57" y="-819.16" font-family="Helvetica,sans-Serif" font-size="11.00">0 rows</text>
<polygon fill="#ffffff" stroke="transparent" points="94,-812.96 94,-830.96 131,-830.96 131,-812.96 94,-812.96"/>
<polygon fill="none" stroke="black" points="94,-812.96 94,-830.96 131,-830.96 131,-812.96 94,-812.96"/>
<text text-anchor="start" x="106" y="-819.16" font-family="Helvetica,sans-Serif" font-size="11.00">37 &gt;</text>
</a>
</g>
</g>
<!-- activities&#45;&gt;public.users -->
<g id="edge1" class="edge">
<title>activities:w&#45;&gt;public.users:e</title>
<path fill="none" stroke="black" d="M944.08,-959.95C913.2,-951.86 900.76,-954.98 864,-955.96 711.83,-960 316.73,-1020.79 179,-955.96 142.76,-938.9 114.76,-902.52 96.82,-875.18"/>
<polygon fill="black" stroke="black" points="950.31,-961.74 957,-967.42 954.16,-962.85 958,-963.96 958,-963.96 958,-963.96 954.16,-962.85 959,-960.5 950.31,-961.74 950.31,-961.74"/>
<ellipse fill="none" stroke="black" cx="947.24" cy="-960.86" rx="3.2" ry="3.2"/>
</g>
<!-- activities&#45;&gt;public.users -->
<g id="edge2" class="edge">
<title>activities:w&#45;&gt;public.users:e</title>
<path fill="none" stroke="black" d="M943.26,-964.14C912.97,-964.92 900.43,-967.99 864,-968.96 711.83,-973 316.73,-1033.79 179,-968.96 138.1,-949.71 107.69,-905.84 90.4,-875.08"/>
<polygon fill="black" stroke="black" points="950,-964.06 958.04,-967.56 954,-964.01 958,-963.96 958,-963.96 958,-963.96 954,-964.01 957.96,-960.36 950,-964.06 950,-964.06"/>
<ellipse fill="none" stroke="black" cx="946.8" cy="-964.1" rx="3.2" ry="3.2"/>
</g>
<!-- activities&#45;&gt;public.users -->
<g id="edge4" class="edge">
<title>activities:w&#45;&gt;public.users:e</title>
<path fill="none" stroke="black" d="M944.08,-968.29C913.2,-977.86 900.76,-980.98 864,-981.96 711.83,-986 316.73,-1046.79 179,-981.96 133.96,-960.76 101.64,-909.71 85.55,-875.1"/>
<polygon fill="black" stroke="black" points="950.36,-966.34 959.07,-967.4 954.18,-965.15 958,-963.96 958,-963.96 958,-963.96 954.18,-965.15 956.93,-960.52 950.36,-966.34 950.36,-966.34"/>
<ellipse fill="none" stroke="black" cx="947.31" cy="-967.29" rx="3.2" ry="3.2"/>
</g>
<!-- public.projects -->
<g id="node3" class="node">
<title>public.projects</title>
<g id="a_node3"><a xlink:href="../../../public/tables/projects.html" xlink:title="public.projects" target="_top">
<polygon fill="#ffffff" stroke="transparent" points="679.5,-837.96 679.5,-895.96 811.5,-895.96 811.5,-837.96 679.5,-837.96"/>
<polygon fill="#f5f5f5" stroke="transparent" points="679.5,-873.96 679.5,-895.96 811.5,-895.96 811.5,-873.96 679.5,-873.96"/>
<polygon fill="none" stroke="black" points="679.5,-873.96 679.5,-895.96 811.5,-895.96 811.5,-873.96 679.5,-873.96"/>
<text text-anchor="start" x="684.5" y="-883.16" font-family="Helvetica,sans-Serif" font-weight="bold" font-size="11.00">public.projects</text>
<text text-anchor="start" x="772.5" y="-882.16" font-family="Helvetica,sans-Serif" font-size="11.00">[table]</text>
<polygon fill="none" stroke="black" points="679.5,-855.96 679.5,-873.96 811.5,-873.96 811.5,-855.96 679.5,-855.96"/>
<text text-anchor="start" x="682.5" y="-862.16" font-family="Helvetica,sans-Serif" font-size="11.00">...</text>
<polygon fill="#ffffff" stroke="transparent" points="679.5,-837.96 679.5,-855.96 722.5,-855.96 722.5,-837.96 679.5,-837.96"/>
<polygon fill="none" stroke="black" points="679.5,-837.96 679.5,-855.96 722.5,-855.96 722.5,-837.96 679.5,-837.96"/>
<text text-anchor="start" x="682.5" y="-844.16" font-family="Helvetica,sans-Serif" font-size="11.00">&lt; 1</text>
<polygon fill="#ffffff" stroke="transparent" points="722.5,-837.96 722.5,-855.96 772.5,-855.96 772.5,-837.96 722.5,-837.96"/>
<polygon fill="none" stroke="black" points="722.5,-837.96 722.5,-855.96 772.5,-855.96 772.5,-837.96 722.5,-837.96"/>
<text text-anchor="start" x="735.5" y="-844.16" font-family="Helvetica,sans-Serif" font-size="11.00">0 rows</text>
<polygon fill="#ffffff" stroke="transparent" points="772.5,-837.96 772.5,-855.96 811.5,-855.96 811.5,-837.96 772.5,-837.96"/>
<polygon fill="none" stroke="black" points="772.5,-837.96 772.5,-855.96 811.5,-855.96 811.5,-837.96 772.5,-837.96"/>
<text text-anchor="start" x="786.5" y="-844.16" font-family="Helvetica,sans-Serif" font-size="11.00">15 &gt;</text>
</a>
</g>
</g>
<!-- activities&#45;&gt;public.projects -->
<g id="edge3" class="edge">
<title>activities:w&#45;&gt;public.projects:e</title>
<path fill="none" stroke="black" d="M943.55,-962.71C880.84,-951.25 885.52,-864.96 812.5,-864.96"/>
<polygon fill="black" stroke="black" points="950.03,-963.27 957.69,-967.55 954.01,-963.62 958,-963.96 958,-963.96 958,-963.96 954.01,-963.62 958.31,-960.37 950.03,-963.27 950.03,-963.27"/>
<ellipse fill="none" stroke="black" cx="946.84" cy="-962.99" rx="3.2" ry="3.2"/>
</g>
<!-- participants -->
<g id="node15" class="node">
<title>participants</title>
<g id="a_node15"><a xlink:href="../../tables/participants.html" xlink:title="participants" target="_top">
<polygon fill="#ffffff" stroke="transparent" points="458.5,-837.96 458.5,-895.96 574.5,-895.96 574.5,-837.96 458.5,-837.96"/>
<polygon fill="#f5f5f5" stroke="transparent" points="458.5,-873.96 458.5,-895.96 574.5,-895.96 574.5,-873.96 458.5,-873.96"/>
<polygon fill="none" stroke="black" points="458.5,-873.96 458.5,-895.96 574.5,-895.96 574.5,-873.96 458.5,-873.96"/>
<text text-anchor="start" x="463.5" y="-883.16" font-family="Helvetica,sans-Serif" font-weight="bold" font-size="11.00">participants</text>
<text text-anchor="start" x="535.5" y="-882.16" font-family="Helvetica,sans-Serif" font-size="11.00">[table]</text>
<polygon fill="none" stroke="black" points="458.5,-855.96 458.5,-873.96 574.5,-873.96 574.5,-855.96 458.5,-855.96"/>
<text text-anchor="start" x="461.5" y="-862.16" font-family="Helvetica,sans-Serif" font-size="11.00">...</text>
<polygon fill="#ffffff" stroke="transparent" points="458.5,-837.96 458.5,-855.96 509.5,-855.96 509.5,-837.96 458.5,-837.96"/>
<polygon fill="none" stroke="black" points="458.5,-837.96 458.5,-855.96 509.5,-855.96 509.5,-837.96 458.5,-837.96"/>
<text text-anchor="start" x="461.5" y="-844.16" font-family="Helvetica,sans-Serif" font-size="11.00">&lt; 3</text>
<polygon fill="#ffffff" stroke="transparent" points="509.5,-837.96 509.5,-855.96 537.5,-855.96 537.5,-837.96 509.5,-837.96"/>
<polygon fill="none" stroke="black" points="509.5,-837.96 509.5,-855.96 537.5,-855.96 537.5,-837.96 509.5,-837.96"/>
<text text-anchor="start" x="527.5" y="-844.16" font-family="Helvetica,sans-Serif" font-size="11.00"> &#160;</text>
<polygon fill="#ffffff" stroke="transparent" points="537.5,-837.96 537.5,-855.96 574.5,-855.96 574.5,-837.96 537.5,-837.96"/>
<polygon fill="none" stroke="black" points="537.5,-837.96 537.5,-855.96 574.5,-855.96 574.5,-837.96 537.5,-837.96"/>
<text text-anchor="start" x="555.5" y="-844.16" font-family="Helvetica,sans-Serif" font-size="11.00">1 &gt;</text>
</a>
</g>
</g>
<!-- public.projects&#45;&gt;participants -->
<g id="edge66" class="edge">
<title>public.projects:w&#45;&gt;participants:e</title>
<path fill="none" stroke="black" d="M663.85,-864.99C636.36,-865.08 607.37,-865.42 582.52,-865.79"/>
<polygon fill="black" stroke="black" points="670.5,-864.97 678.51,-868.56 674.5,-864.97 678.5,-864.96 678.5,-864.96 678.5,-864.96 674.5,-864.97 678.49,-861.36 670.5,-864.97 670.5,-864.97"/>
<ellipse fill="none" stroke="black" cx="667.3" cy="-864.98" rx="3.2" ry="3.2"/>
</g>
<!-- application_histories -->
<g id="node4" class="node">
<title>application_histories</title>
<g id="a_node4"><a xlink:href="../../tables/application_histories.html" xlink:title="application_histories" target="_top">
<polygon fill="#ffffff" stroke="transparent" points="1171.5,-1239.96 1171.5,-1297.96 1339.5,-1297.96 1339.5,-1239.96 1171.5,-1239.96"/>
<polygon fill="#f5f5f5" stroke="transparent" points="1171.5,-1275.96 1171.5,-1297.96 1339.5,-1297.96 1339.5,-1275.96 1171.5,-1275.96"/>
<polygon fill="none" stroke="black" points="1171.5,-1275.96 1171.5,-1297.96 1339.5,-1297.96 1339.5,-1275.96 1171.5,-1275.96"/>
<text text-anchor="start" x="1176.5" y="-1285.16" font-family="Helvetica,sans-Serif" font-weight="bold" font-size="11.00">application_histories</text>
<text text-anchor="start" x="1300.5" y="-1284.16" font-family="Helvetica,sans-Serif" font-size="11.00">[table]</text>
<polygon fill="none" stroke="black" points="1171.5,-1257.96 1171.5,-1275.96 1339.5,-1275.96 1339.5,-1257.96 1171.5,-1257.96"/>
<text text-anchor="start" x="1174.5" y="-1264.16" font-family="Helvetica,sans-Serif" font-size="11.00">...</text>
<polygon fill="#ffffff" stroke="transparent" points="1171.5,-1239.96 1171.5,-1257.96 1253.5,-1257.96 1253.5,-1239.96 1171.5,-1239.96"/>
<polygon fill="none" stroke="black" points="1171.5,-1239.96 1171.5,-1257.96 1253.5,-1257.96 1253.5,-1239.96 1171.5,-1239.96"/>
<text text-anchor="start" x="1174.5" y="-1246.16" font-family="Helvetica,sans-Serif" font-size="11.00">&lt; 3</text>
<polygon fill="#ffffff" stroke="transparent" points="1253.5,-1239.96 1253.5,-1257.96 1296.5,-1257.96 1296.5,-1239.96 1253.5,-1239.96"/>
<polygon fill="none" stroke="black" points="1253.5,-1239.96 1253.5,-1257.96 1296.5,-1257.96 1296.5,-1239.96 1253.5,-1239.96"/>
<text text-anchor="start" x="1286.5" y="-1246.16" font-family="Helvetica,sans-Serif" font-size="11.00"> &#160;</text>
<polygon fill="#ffffff" stroke="transparent" points="1296.5,-1239.96 1296.5,-1257.96 1339.5,-1257.96 1339.5,-1239.96 1296.5,-1239.96"/>
<polygon fill="none" stroke="black" points="1296.5,-1239.96 1296.5,-1257.96 1339.5,-1257.96 1339.5,-1239.96 1296.5,-1239.96"/>
<text text-anchor="start" x="1329.5" y="-1246.16" font-family="Helvetica,sans-Serif" font-size="11.00"> &#160;</text>
</a>
</g>
</g>
<!-- application_histories&#45;&gt;public.users -->
<g id="edge6" class="edge">
<title>application_histories:w&#45;&gt;public.users:e</title>
<path fill="none" stroke="black" d="M1156.51,-1263.49C1141.01,-1254.05 1142.65,-1227.93 1119,-1217.96 966.34,-1153.59 912.17,-1203.96 746.5,-1203.96 746.5,-1203.96 746.5,-1203.96 515.5,-1203.96 364.17,-1203.96 294.86,-1249.31 179,-1151.96 94.6,-1081.05 77.82,-939.59 74.64,-875.22"/>
<polygon fill="black" stroke="black" points="1162.74,-1265.03 1169.63,-1270.45 1166.62,-1266 1170.5,-1266.96 1170.5,-1266.96 1170.5,-1266.96 1166.62,-1266 1171.37,-1263.47 1162.74,-1265.03 1162.74,-1265.03"/>
<ellipse fill="none" stroke="black" cx="1159.63" cy="-1264.26" rx="3.2" ry="3.2"/>
</g>
<!-- applications -->
<g id="node5" class="node">
<title>applications</title>
<g id="a_node5"><a xlink:href="../../tables/applications.html" xlink:title="applications" target="_top">
<polygon fill="#ffffff" stroke="transparent" points="949.5,-1227.96 949.5,-1285.96 1066.5,-1285.96 1066.5,-1227.96 949.5,-1227.96"/>
<polygon fill="#f5f5f5" stroke="transparent" points="950,-1263.96 950,-1285.96 1067,-1285.96 1067,-1263.96 950,-1263.96"/>
<polygon fill="none" stroke="black" points="950,-1263.96 950,-1285.96 1067,-1285.96 1067,-1263.96 950,-1263.96"/>
<text text-anchor="start" x="955" y="-1273.16" font-family="Helvetica,sans-Serif" font-weight="bold" font-size="11.00">applications</text>
<text text-anchor="start" x="1028" y="-1272.16" font-family="Helvetica,sans-Serif" font-size="11.00">[table]</text>
<polygon fill="none" stroke="black" points="950,-1245.96 950,-1263.96 1067,-1263.96 1067,-1245.96 950,-1245.96"/>
<text text-anchor="start" x="953" y="-1252.16" font-family="Helvetica,sans-Serif" font-size="11.00">...</text>
<polygon fill="#ffffff" stroke="transparent" points="950,-1227.96 950,-1245.96 1002,-1245.96 1002,-1227.96 950,-1227.96"/>
<polygon fill="none" stroke="black" points="950,-1227.96 950,-1245.96 1002,-1245.96 1002,-1227.96 950,-1227.96"/>
<text text-anchor="start" x="953" y="-1234.16" font-family="Helvetica,sans-Serif" font-size="11.00">&lt; 5</text>
<polygon fill="#ffffff" stroke="transparent" points="1002,-1227.96 1002,-1245.96 1030,-1245.96 1030,-1227.96 1002,-1227.96"/>
<polygon fill="none" stroke="black" points="1002,-1227.96 1002,-1245.96 1030,-1245.96 1030,-1227.96 1002,-1227.96"/>
<text text-anchor="start" x="1020" y="-1234.16" font-family="Helvetica,sans-Serif" font-size="11.00"> &#160;</text>
<polygon fill="#ffffff" stroke="transparent" points="1030,-1227.96 1030,-1245.96 1067,-1245.96 1067,-1227.96 1030,-1227.96"/>
<polygon fill="none" stroke="black" points="1030,-1227.96 1030,-1245.96 1067,-1245.96 1067,-1227.96 1030,-1227.96"/>
<text text-anchor="start" x="1048" y="-1234.16" font-family="Helvetica,sans-Serif" font-size="11.00">2 &gt;</text>
</a>
</g>
</g>
<!-- application_histories&#45;&gt;applications -->
<g id="edge5" class="edge">
<title>application_histories:w&#45;&gt;applications:e</title>
<path fill="none" stroke="black" d="M1155.71,-1266.5C1121.63,-1264.31 1108.49,-1254.96 1068,-1254.96"/>
<polygon fill="black" stroke="black" points="1162.5,-1266.71 1170.39,-1270.56 1166.5,-1266.84 1170.5,-1266.96 1170.5,-1266.96 1170.5,-1266.96 1166.5,-1266.84 1170.61,-1263.36 1162.5,-1266.71 1162.5,-1266.71"/>
<ellipse fill="none" stroke="black" cx="1159.31" cy="-1266.62" rx="3.2" ry="3.2"/>
</g>
<!-- applications&#45;&gt;public.users -->
<g id="edge7" class="edge">
<title>applications:w&#45;&gt;public.users:e</title>
<path fill="none" stroke="black" d="M934.57,-1254.63C752.92,-1252.38 309.24,-1312.09 179,-1207.96 125.87,-1165.48 91.03,-956.95 78.84,-875.02"/>
<polygon fill="black" stroke="black" points="941,-1254.78 948.92,-1258.56 945,-1254.87 949,-1254.96 949,-1254.96 949,-1254.96 945,-1254.87 949.08,-1251.36 941,-1254.78 941,-1254.78"/>
<ellipse fill="none" stroke="black" cx="937.8" cy="-1254.7" rx="3.2" ry="3.2"/>
</g>
<!-- applications&#45;&gt;public.users -->
<g id="edge8" class="edge">
<title>applications:w&#45;&gt;public.users:e</title>
<path fill="none" stroke="black" d="M934.57,-1255.65C752.92,-1265.38 309.24,-1325.09 179,-1220.96 124.56,-1177.43 89.33,-959.56 77.98,-875.24"/>
<polygon fill="black" stroke="black" points="941.01,-1255.34 949.17,-1258.56 945,-1255.15 949,-1254.96 949,-1254.96 949,-1254.96 945,-1255.15 948.83,-1251.36 941.01,-1255.34 941.01,-1255.34"/>
<ellipse fill="none" stroke="black" cx="937.81" cy="-1255.49" rx="3.2" ry="3.2"/>
</g>
<!-- applications&#45;&gt;public.projects -->
<g id="edge9" class="edge">
<title>applications:w&#45;&gt;public.projects:e</title>
<path fill="none" stroke="black" d="M938.22,-1254.47C774.65,-1239.13 992.38,-864.96 812.5,-864.96"/>
<polygon fill="black" stroke="black" points="948.38,-1250.93 948.02,-1258.92 946.42,-1258.85 946.78,-1250.86 948.38,-1250.93"/>
<polyline fill="none" stroke="black" points="949,-1254.96 945,-1254.78 "/>
<ellipse fill="none" stroke="black" cx="941.81" cy="-1254.64" rx="3.2" ry="3.2"/>
</g>
<!-- cohort_modules -->
<g id="node6" class="node">
<title>cohort_modules</title>
<g id="a_node6"><a xlink:href="../../tables/cohort_modules.html" xlink:title="cohort_modules" target="_top">
<polygon fill="#ffffff" stroke="transparent" points="447,-544.96 447,-668.96 586,-668.96 586,-544.96 447,-544.96"/>
<polygon fill="#f5f5f5" stroke="transparent" points="447.5,-646.96 447.5,-668.96 586.5,-668.96 586.5,-646.96 447.5,-646.96"/>
<polygon fill="none" stroke="black" points="447.5,-646.96 447.5,-668.96 586.5,-668.96 586.5,-646.96 447.5,-646.96"/>
<text text-anchor="start" x="452.5" y="-656.16" font-family="Helvetica,sans-Serif" font-weight="bold" font-size="11.00">cohort_modules</text>
<text text-anchor="start" x="547.5" y="-655.16" font-family="Helvetica,sans-Serif" font-size="11.00">[table]</text>
<polygon fill="none" stroke="black" points="447.5,-624.96 447.5,-646.96 586.5,-646.96 586.5,-624.96 447.5,-624.96"/>
<image xlink:href="../../images/primaryKeys.png" width="11px" height="12px" preserveAspectRatio="xMinYMin meet" x="452.5" y="-641.96"/>
<text text-anchor="start" x="479.5" y="-633.16" font-family="Helvetica,sans-Serif" font-size="11.00">cohort_id</text>
<polygon fill="none" stroke="black" points="447.5,-602.96 447.5,-624.96 586.5,-624.96 586.5,-602.96 447.5,-602.96"/>
<image xlink:href="../../images/primaryKeys.png" width="11px" height="12px" preserveAspectRatio="xMinYMin meet" x="452.5" y="-619.96"/>
<text text-anchor="start" x="479.5" y="-611.16" font-family="Helvetica,sans-Serif" font-size="11.00">module_id</text>
<polygon fill="#ffffff" stroke="transparent" points="447.5,-580.96 447.5,-602.96 586.5,-602.96 586.5,-580.96 447.5,-580.96"/>
<polygon fill="none" stroke="black" points="447.5,-580.96 447.5,-602.96 586.5,-602.96 586.5,-580.96 447.5,-580.96"/>
<text text-anchor="start" x="479.5" y="-589.16" font-family="Helvetica,sans-Serif" font-size="11.00">start_date</text>
<polygon fill="none" stroke="black" points="447.5,-562.96 447.5,-580.96 586.5,-580.96 586.5,-562.96 447.5,-562.96"/>
<text text-anchor="start" x="450.5" y="-569.16" font-family="Helvetica,sans-Serif" font-size="11.00">...</text>
<polygon fill="#ffffff" stroke="transparent" points="447.5,-544.96 447.5,-562.96 514.5,-562.96 514.5,-544.96 447.5,-544.96"/>
<polygon fill="none" stroke="black" points="447.5,-544.96 447.5,-562.96 514.5,-562.96 514.5,-544.96 447.5,-544.96"/>
<text text-anchor="start" x="450.5" y="-551.16" font-family="Helvetica,sans-Serif" font-size="11.00">&lt; 2</text>
<polygon fill="#ffffff" stroke="transparent" points="514.5,-544.96 514.5,-562.96 550.5,-562.96 550.5,-544.96 514.5,-544.96"/>
<polygon fill="none" stroke="black" points="514.5,-544.96 514.5,-562.96 550.5,-562.96 550.5,-544.96 514.5,-544.96"/>
<text text-anchor="start" x="540.5" y="-551.16" font-family="Helvetica,sans-Serif" font-size="11.00"> &#160;</text>
<polygon fill="#ffffff" stroke="transparent" points="550.5,-544.96 550.5,-562.96 586.5,-562.96 586.5,-544.96 550.5,-544.96"/>
<polygon fill="none" stroke="black" points="550.5,-544.96 550.5,-562.96 586.5,-562.96 586.5,-544.96 550.5,-544.96"/>
<text text-anchor="start" x="576.5" y="-551.16" font-family="Helvetica,sans-Serif" font-size="11.00"> &#160;</text>
</a>
</g>
</g>
<!-- cohorts -->
<g id="node7" class="node">
<title>cohorts</title>
<g id="a_node7"><a xlink:href="../../tables/cohorts.html" xlink:title="cohorts" target="_top">
<polygon fill="#ffffff" stroke="transparent" points="187,-568.96 187,-766.96 398,-766.96 398,-568.96 187,-568.96"/>
<polygon fill="#f5f5f5" stroke="transparent" points="189.5,-742.96 189.5,-764.96 396.5,-764.96 396.5,-742.96 189.5,-742.96"/>
<polygon fill="none" stroke="black" points="189.5,-742.96 189.5,-764.96 396.5,-764.96 396.5,-742.96 189.5,-742.96"/>
<text text-anchor="start" x="193.5" y="-752.16" font-family="Helvetica,sans-Serif" font-weight="bold" font-size="11.00">cohorts</text>
<text text-anchor="start" x="357.5" y="-751.16" font-family="Helvetica,sans-Serif" font-size="11.00">[table]</text>
<polygon fill="none" stroke="black" points="189.5,-720.96 189.5,-742.96 296.5,-742.96 296.5,-720.96 189.5,-720.96"/>
<image xlink:href="../../images/primaryKeys.png" width="11px" height="12px" preserveAspectRatio="xMinYMin meet" x="194.5" y="-737.96"/>
<text text-anchor="start" x="209.5" y="-729.16" font-family="Helvetica,sans-Serif" font-size="11.00">id</text>
<polygon fill="none" stroke="black" points="296.5,-720.96 296.5,-742.96 396.5,-742.96 396.5,-720.96 296.5,-720.96"/>
<text text-anchor="start" x="299.5" y="-729.16" font-family="Helvetica,sans-Serif" font-size="11.00">int8[19]</text>
<polygon fill="#ffffff" stroke="transparent" points="189.5,-698.96 189.5,-720.96 296.5,-720.96 296.5,-698.96 189.5,-698.96"/>
<polygon fill="none" stroke="black" points="189.5,-698.96 189.5,-720.96 296.5,-720.96 296.5,-698.96 189.5,-698.96"/>
<text text-anchor="start" x="209.5" y="-707.16" font-family="Helvetica,sans-Serif" font-size="11.00">name</text>
<polygon fill="none" stroke="black" points="296.5,-698.96 296.5,-720.96 396.5,-720.96 396.5,-698.96 296.5,-698.96"/>
<text text-anchor="start" x="299.5" y="-707.16" font-family="Helvetica,sans-Serif" font-size="11.00">text[2147483647]</text>
<polygon fill="#ffffff" stroke="transparent" points="189.5,-676.96 189.5,-698.96 296.5,-698.96 296.5,-676.96 189.5,-676.96"/>
<polygon fill="none" stroke="black" points="189.5,-676.96 189.5,-698.96 296.5,-698.96 296.5,-676.96 189.5,-676.96"/>
<image xlink:href="../../images/foreignKeys.png" width="11px" height="12px" preserveAspectRatio="xMinYMin meet" x="194.5" y="-693.96"/>
<text text-anchor="start" x="209.5" y="-685.16" font-family="Helvetica,sans-Serif" font-size="11.00">created_by</text>
<polygon fill="none" stroke="black" points="296.5,-676.96 296.5,-698.96 396.5,-698.96 396.5,-676.96 296.5,-676.96"/>
<text text-anchor="start" x="299.5" y="-685.16" font-family="Helvetica,sans-Serif" font-size="11.00">int8[19]</text>
<polygon fill="none" stroke="black" points="189.5,-654.96 189.5,-676.96 296.5,-676.96 296.5,-654.96 189.5,-654.96"/>
<text text-anchor="start" x="209.5" y="-663.16" font-family="Helvetica,sans-Serif" font-size="11.00">created_time</text>
<polygon fill="none" stroke="black" points="296.5,-654.96 296.5,-676.96 396.5,-676.96 396.5,-654.96 296.5,-654.96"/>
<text text-anchor="start" x="299.5" y="-663.16" font-family="Helvetica,sans-Serif" font-size="11.00">timestamptz[35,6]</text>
<polygon fill="#ffffff" stroke="transparent" points="189.5,-632.96 189.5,-654.96 296.5,-654.96 296.5,-632.96 189.5,-632.96"/>
<polygon fill="none" stroke="black" points="189.5,-632.96 189.5,-654.96 296.5,-654.96 296.5,-632.96 189.5,-632.96"/>
<image xlink:href="../../images/foreignKeys.png" width="11px" height="12px" preserveAspectRatio="xMinYMin meet" x="194.5" y="-649.96"/>
<text text-anchor="start" x="209.5" y="-641.16" font-family="Helvetica,sans-Serif" font-size="11.00">modified_by</text>
<polygon fill="none" stroke="black" points="296.5,-632.96 296.5,-654.96 396.5,-654.96 396.5,-632.96 296.5,-632.96"/>
<text text-anchor="start" x="299.5" y="-641.16" font-family="Helvetica,sans-Serif" font-size="11.00">int8[19]</text>
<polygon fill="none" stroke="black" points="189.5,-610.96 189.5,-632.96 296.5,-632.96 296.5,-610.96 189.5,-610.96"/>
<text text-anchor="start" x="209.5" y="-619.16" font-family="Helvetica,sans-Serif" font-size="11.00">modified_time</text>
<polygon fill="none" stroke="black" points="296.5,-610.96 296.5,-632.96 396.5,-632.96 396.5,-610.96 296.5,-610.96"/>
<text text-anchor="start" x="299.5" y="-619.16" font-family="Helvetica,sans-Serif" font-size="11.00">timestamptz[35,6]</text>
<polygon fill="none" stroke="black" points="189.5,-588.96 189.5,-610.96 296.5,-610.96 296.5,-588.96 189.5,-588.96"/>
<image xlink:href="../../images/foreignKeys.png" width="11px" height="12px" preserveAspectRatio="xMinYMin meet" x="194.5" y="-605.96"/>
<text text-anchor="start" x="209.5" y="-597.16" font-family="Helvetica,sans-Serif" font-size="11.00">phase_id</text>
<polygon fill="none" stroke="black" points="296.5,-588.96 296.5,-610.96 396.5,-610.96 396.5,-588.96 296.5,-588.96"/>
<text text-anchor="start" x="299.5" y="-597.16" font-family="Helvetica,sans-Serif" font-size="11.00">int4[10]</text>
<polygon fill="#ffffff" stroke="transparent" points="189.5,-570.96 189.5,-588.96 247.5,-588.96 247.5,-570.96 189.5,-570.96"/>
<polygon fill="none" stroke="black" points="189.5,-570.96 189.5,-588.96 247.5,-588.96 247.5,-570.96 189.5,-570.96"/>
<text text-anchor="start" x="192.5" y="-577.16" font-family="Helvetica,sans-Serif" font-size="11.00">&lt; 3</text>
<polygon fill="#ffffff" stroke="transparent" points="247.5,-570.96 247.5,-588.96 296.5,-588.96 296.5,-570.96 247.5,-570.96"/>
<polygon fill="none" stroke="black" points="247.5,-570.96 247.5,-588.96 296.5,-588.96 296.5,-570.96 247.5,-570.96"/>
<text text-anchor="start" x="286.5" y="-577.16" font-family="Helvetica,sans-Serif" font-size="11.00"> &#160;</text>
<polygon fill="#ffffff" stroke="transparent" points="296.5,-570.96 296.5,-588.96 396.5,-588.96 396.5,-570.96 296.5,-570.96"/>
<polygon fill="none" stroke="black" points="296.5,-570.96 296.5,-588.96 396.5,-588.96 396.5,-570.96 296.5,-570.96"/>
<text text-anchor="start" x="377.5" y="-577.16" font-family="Helvetica,sans-Serif" font-size="11.00">3 &gt;</text>
<polygon fill="none" stroke="black" stroke-width="2" points="188,-569.96 188,-765.96 397,-765.96 397,-569.96 188,-569.96"/>
</a>
</g>
</g>
<!-- cohort_modules&#45;&gt;cohorts -->
<g id="edge10" class="edge">
<title>cohort_modules:w&#45;&gt;cohorts:e</title>
<path fill="none" stroke="black" d="M432.61,-640.09C408.82,-658.46 439.42,-731.96 397.5,-731.96"/>
<polygon fill="black" stroke="black" points="438.83,-638.24 447.52,-639.41 442.67,-637.1 446.5,-635.96 446.5,-635.96 446.5,-635.96 442.67,-637.1 445.48,-632.51 438.83,-638.24 438.83,-638.24"/>
<ellipse fill="none" stroke="black" cx="435.76" cy="-639.15" rx="3.2" ry="3.2"/>
</g>
<!-- modules -->
<g id="node8" class="node">
<title>modules</title>
<g id="a_node8"><a xlink:href="../../tables/modules.html" xlink:title="modules" target="_top">
<polygon fill="#ffffff" stroke="transparent" points="245,-292.96 245,-350.96 340,-350.96 340,-292.96 245,-292.96"/>
<polygon fill="#f5f5f5" stroke="transparent" points="245.5,-328.96 245.5,-350.96 340.5,-350.96 340.5,-328.96 245.5,-328.96"/>
<polygon fill="none" stroke="black" points="245.5,-328.96 245.5,-350.96 340.5,-350.96 340.5,-328.96 245.5,-328.96"/>
<text text-anchor="start" x="250.5" y="-338.16" font-family="Helvetica,sans-Serif" font-weight="bold" font-size="11.00">modules</text>
<text text-anchor="start" x="301.5" y="-337.16" font-family="Helvetica,sans-Serif" font-size="11.00">[table]</text>
<polygon fill="none" stroke="black" points="245.5,-310.96 245.5,-328.96 340.5,-328.96 340.5,-310.96 245.5,-310.96"/>
<text text-anchor="start" x="248.5" y="-317.16" font-family="Helvetica,sans-Serif" font-size="11.00">...</text>
<polygon fill="#ffffff" stroke="transparent" points="245.5,-292.96 245.5,-310.96 286.5,-310.96 286.5,-292.96 245.5,-292.96"/>
<polygon fill="none" stroke="black" points="245.5,-292.96 245.5,-310.96 286.5,-310.96 286.5,-292.96 245.5,-292.96"/>
<text text-anchor="start" x="248.5" y="-299.16" font-family="Helvetica,sans-Serif" font-size="11.00">&lt; 3</text>
<polygon fill="#ffffff" stroke="transparent" points="286.5,-292.96 286.5,-310.96 308.5,-310.96 308.5,-292.96 286.5,-292.96"/>
<polygon fill="none" stroke="black" points="286.5,-292.96 286.5,-310.96 308.5,-310.96 308.5,-292.96 286.5,-292.96"/>
<text text-anchor="start" x="298.5" y="-299.16" font-family="Helvetica,sans-Serif" font-size="11.00"> &#160;</text>
<polygon fill="#ffffff" stroke="transparent" points="308.5,-292.96 308.5,-310.96 340.5,-310.96 340.5,-292.96 308.5,-292.96"/>
<polygon fill="none" stroke="black" points="308.5,-292.96 308.5,-310.96 340.5,-310.96 340.5,-292.96 308.5,-292.96"/>
<text text-anchor="start" x="321.5" y="-299.16" font-family="Helvetica,sans-Serif" font-size="11.00">4 &gt;</text>
</a>
</g>
</g>
<!-- cohort_modules&#45;&gt;modules -->
<g id="edge11" class="edge">
<title>cohort_modules:w&#45;&gt;modules:e</title>
<path fill="none" stroke="black" d="M432.69,-608.45C398.24,-575.53 433.9,-404.87 406,-361.96 387.35,-333.28 375.71,-319.96 341.5,-319.96"/>
<polygon fill="black" stroke="black" points="439.07,-611 445.17,-617.3 442.78,-612.48 446.5,-613.96 446.5,-613.96 446.5,-613.96 442.78,-612.48 447.83,-610.62 439.07,-611 439.07,-611"/>
<ellipse fill="none" stroke="black" cx="436.1" cy="-609.81" rx="3.2" ry="3.2"/>
</g>
<!-- cohorts&#45;&gt;public.users -->
<g id="edge12" class="edge">
<title>cohorts:w&#45;&gt;public.users:e</title>
<path fill="none" stroke="black" d="M174.01,-689.5C123.41,-700.46 95.3,-767.47 82.54,-808.92"/>
<polygon fill="black" stroke="black" points="180.54,-688.81 188.88,-691.54 184.52,-688.38 188.5,-687.96 188.5,-687.96 188.5,-687.96 184.52,-688.38 188.12,-684.38 180.54,-688.81 180.54,-688.81"/>
<ellipse fill="none" stroke="black" cx="177.36" cy="-689.14" rx="3.2" ry="3.2"/>
</g>
<!-- cohorts&#45;&gt;public.users -->
<g id="edge13" class="edge">
<title>cohorts:w&#45;&gt;public.users:e</title>
<path fill="none" stroke="black" d="M174.14,-645.35C109.8,-658.14 86.09,-756.2 77.93,-808.82"/>
<polygon fill="black" stroke="black" points="180.54,-644.73 188.85,-647.54 184.52,-644.35 188.5,-643.96 188.5,-643.96 188.5,-643.96 184.52,-644.35 188.15,-640.38 180.54,-644.73 180.54,-644.73"/>
<ellipse fill="none" stroke="black" cx="177.35" cy="-645.04" rx="3.2" ry="3.2"/>
</g>
<!-- cohort_phases -->
<g id="node9" class="node">
<title>cohort_phases</title>
<g id="a_node9"><a xlink:href="../../tables/cohort_phases.html" xlink:title="cohort_phases" target="_top">
<polygon fill="#ffffff" stroke="transparent" points="8,-178.96 8,-262.96 138,-262.96 138,-178.96 8,-178.96"/>
<polygon fill="#f5f5f5" stroke="transparent" points="8,-240.96 8,-262.96 138,-262.96 138,-240.96 8,-240.96"/>
<polygon fill="none" stroke="black" points="8,-240.96 8,-262.96 138,-262.96 138,-240.96 8,-240.96"/>
<text text-anchor="start" x="13" y="-250.16" font-family="Helvetica,sans-Serif" font-weight="bold" font-size="11.00">cohort_phases</text>
<text text-anchor="start" x="99" y="-249.16" font-family="Helvetica,sans-Serif" font-size="11.00">[table]</text>
<polygon fill="none" stroke="black" points="8,-218.96 8,-240.96 138,-240.96 138,-218.96 8,-218.96"/>
<image xlink:href="../../images/primaryKeys.png" width="11px" height="12px" preserveAspectRatio="xMinYMin meet" x="13" y="-235.96"/>
<text text-anchor="start" x="40" y="-227.16" font-family="Helvetica,sans-Serif" font-size="11.00">id</text>
<polygon fill="#ffffff" stroke="transparent" points="8,-196.96 8,-218.96 138,-218.96 138,-196.96 8,-196.96"/>
<polygon fill="none" stroke="black" points="8,-196.96 8,-218.96 138,-218.96 138,-196.96 8,-196.96"/>
<text text-anchor="start" x="40" y="-205.16" font-family="Helvetica,sans-Serif" font-size="11.00">name</text>
<polygon fill="#ffffff" stroke="transparent" points="8,-178.96 8,-196.96 62,-196.96 62,-178.96 8,-178.96"/>
<polygon fill="none" stroke="black" points="8,-178.96 8,-196.96 62,-196.96 62,-178.96 8,-178.96"/>
<text text-anchor="start" x="11" y="-185.16" font-family="Helvetica,sans-Serif" font-size="11.00"> &#160;</text>
<polygon fill="#ffffff" stroke="transparent" points="62,-178.96 62,-196.96 95,-196.96 95,-178.96 62,-178.96"/>
<polygon fill="none" stroke="black" points="62,-178.96 62,-196.96 95,-196.96 95,-178.96 62,-178.96"/>
<text text-anchor="start" x="85" y="-185.16" font-family="Helvetica,sans-Serif" font-size="11.00"> &#160;</text>
<polygon fill="#ffffff" stroke="transparent" points="95,-178.96 95,-196.96 138,-196.96 138,-178.96 95,-178.96"/>
<polygon fill="none" stroke="black" points="95,-178.96 95,-196.96 138,-196.96 138,-178.96 95,-178.96"/>
<text text-anchor="start" x="119" y="-185.16" font-family="Helvetica,sans-Serif" font-size="11.00">5 &gt;</text>
</a>
</g>
</g>
<!-- cohorts&#45;&gt;cohort_phases -->
<g id="edge14" class="edge">
<title>cohorts:w&#45;&gt;cohort_phases:e</title>
<path fill="none" stroke="black" d="M174.49,-595.28C120.13,-552.45 216.45,-229.96 139,-229.96"/>
<polygon fill="black" stroke="black" points="180.91,-597.43 187.36,-603.37 184.71,-598.69 188.5,-599.96 188.5,-599.96 188.5,-599.96 184.71,-598.69 189.64,-596.55 180.91,-597.43 180.91,-597.43"/>
<ellipse fill="none" stroke="black" cx="177.88" cy="-596.41" rx="3.2" ry="3.2"/>
</g>
<!-- modules&#45;&gt;public.users -->
<g id="edge24" class="edge">
<title>modules:w&#45;&gt;public.users:e</title>
<path fill="none" stroke="black" d="M229.88,-318.57C206.22,-318.58 195.67,-332.01 179,-355.96 127.29,-430.27 89.15,-711.31 77.62,-808.62"/>
<polygon fill="black" stroke="black" points="236.54,-319.2 244.16,-323.54 240.52,-319.58 244.5,-319.96 244.5,-319.96 244.5,-319.96 240.52,-319.58 244.84,-316.38 236.54,-319.2 236.54,-319.2"/>
<ellipse fill="none" stroke="black" cx="233.35" cy="-318.9" rx="3.2" ry="3.2"/>
</g>
<!-- modules&#45;&gt;public.users -->
<g id="edge25" class="edge">
<title>modules:w&#45;&gt;public.users:e</title>
<path fill="none" stroke="black" d="M230.54,-323.54C206.41,-331.33 195.82,-344.79 179,-368.96 128.26,-441.87 90.59,-713.79 78.3,-808.93"/>
<polygon fill="black" stroke="black" points="236.75,-321.95 245.39,-323.45 240.63,-320.95 244.5,-319.96 244.5,-319.96 244.5,-319.96 240.63,-320.95 243.61,-316.47 236.75,-321.95 236.75,-321.95"/>
<ellipse fill="none" stroke="black" cx="233.65" cy="-322.74" rx="3.2" ry="3.2"/>
</g>
<!-- modules&#45;&gt;cohort_phases -->
<g id="edge26" class="edge">
<title>modules:w&#45;&gt;cohort_phases:e</title>
<path fill="none" stroke="black" d="M229.98,-318C185.38,-304.84 195.22,-229.96 139,-229.96"/>
<polygon fill="black" stroke="black" points="236.57,-318.89 244.02,-323.53 240.54,-319.42 244.5,-319.96 244.5,-319.96 244.5,-319.96 240.54,-319.42 244.98,-316.39 236.57,-318.89 236.57,-318.89"/>
<ellipse fill="none" stroke="black" cx="233.4" cy="-318.46" rx="3.2" ry="3.2"/>
</g>
<!-- default_voters -->
<g id="node10" class="node">
<title>default_voters</title>
<g id="a_node10"><a xlink:href="../../tables/default_voters.html" xlink:title="default_voters" target="_top">
<polygon fill="#ffffff" stroke="transparent" points="227.5,-450.96 227.5,-508.96 357.5,-508.96 357.5,-450.96 227.5,-450.96"/>
<polygon fill="#f5f5f5" stroke="transparent" points="227.5,-486.96 227.5,-508.96 357.5,-508.96 357.5,-486.96 227.5,-486.96"/>
<polygon fill="none" stroke="black" points="227.5,-486.96 227.5,-508.96 357.5,-508.96 357.5,-486.96 227.5,-486.96"/>
<text text-anchor="start" x="232.5" y="-496.16" font-family="Helvetica,sans-Serif" font-weight="bold" font-size="11.00">default_voters</text>
<text text-anchor="start" x="318.5" y="-495.16" font-family="Helvetica,sans-Serif" font-size="11.00">[table]</text>
<polygon fill="none" stroke="black" points="227.5,-468.96 227.5,-486.96 357.5,-486.96 357.5,-468.96 227.5,-468.96"/>
<text text-anchor="start" x="230.5" y="-475.16" font-family="Helvetica,sans-Serif" font-size="11.00">...</text>
<polygon fill="#ffffff" stroke="transparent" points="227.5,-450.96 227.5,-468.96 290.5,-468.96 290.5,-450.96 227.5,-450.96"/>
<polygon fill="none" stroke="black" points="227.5,-450.96 227.5,-468.96 290.5,-468.96 290.5,-450.96 227.5,-450.96"/>
<text text-anchor="start" x="230.5" y="-457.16" font-family="Helvetica,sans-Serif" font-size="11.00">&lt; 1</text>
<polygon fill="#ffffff" stroke="transparent" points="290.5,-450.96 290.5,-468.96 323.5,-468.96 323.5,-450.96 290.5,-450.96"/>
<polygon fill="none" stroke="black" points="290.5,-450.96 290.5,-468.96 323.5,-468.96 323.5,-450.96 290.5,-450.96"/>
<text text-anchor="start" x="313.5" y="-457.16" font-family="Helvetica,sans-Serif" font-size="11.00"> &#160;</text>
<polygon fill="#ffffff" stroke="transparent" points="323.5,-450.96 323.5,-468.96 357.5,-468.96 357.5,-450.96 323.5,-450.96"/>
<polygon fill="none" stroke="black" points="323.5,-450.96 323.5,-468.96 357.5,-468.96 357.5,-450.96 323.5,-450.96"/>
<text text-anchor="start" x="347.5" y="-457.16" font-family="Helvetica,sans-Serif" font-size="11.00"> &#160;</text>
</a>
</g>
</g>
<!-- default_voters&#45;&gt;public.users -->
<g id="edge15" class="edge">
<title>default_voters:w&#45;&gt;public.users:e</title>
<path fill="none" stroke="black" d="M215.88,-478.42C83.24,-490.09 72.37,-721.12 73.05,-808.69"/>
<polygon fill="black" stroke="black" points="225.53,-474 225.87,-481.99 224.28,-482.06 223.93,-474.07 225.53,-474"/>
<polyline fill="none" stroke="black" points="226.5,-477.96 222.5,-478.13 "/>
<ellipse fill="none" stroke="black" cx="219.31" cy="-478.27" rx="3.2" ry="3.2"/>
</g>
<!-- deliverable_cohort_due_dates -->
<g id="node11" class="node">
<title>deliverable_cohort_due_dates</title>
<g id="a_node11"><a xlink:href="../../tables/deliverable_cohort_due_dates.html" xlink:title="deliverable_cohort_due_dates" target="_top">
<polygon fill="#ffffff" stroke="transparent" points="635,-663.96 635,-765.96 856,-765.96 856,-663.96 635,-663.96"/>
<polygon fill="#f5f5f5" stroke="transparent" points="635.5,-743.96 635.5,-765.96 856.5,-765.96 856.5,-743.96 635.5,-743.96"/>
<polygon fill="none" stroke="black" points="635.5,-743.96 635.5,-765.96 856.5,-765.96 856.5,-743.96 635.5,-743.96"/>
<text text-anchor="start" x="640.5" y="-753.16" font-family="Helvetica,sans-Serif" font-weight="bold" font-size="11.00">deliverable_cohort_due_dates</text>
<text text-anchor="start" x="817.5" y="-752.16" font-family="Helvetica,sans-Serif" font-size="11.00">[table]</text>
<polygon fill="none" stroke="black" points="635.5,-721.96 635.5,-743.96 856.5,-743.96 856.5,-721.96 635.5,-721.96"/>
<image xlink:href="../../images/primaryKeys.png" width="11px" height="12px" preserveAspectRatio="xMinYMin meet" x="640.5" y="-738.96"/>
<text text-anchor="start" x="667.5" y="-730.16" font-family="Helvetica,sans-Serif" font-size="11.00">deliverable_id</text>
<polygon fill="none" stroke="black" points="635.5,-699.96 635.5,-721.96 856.5,-721.96 856.5,-699.96 635.5,-699.96"/>
<image xlink:href="../../images/primaryKeys.png" width="11px" height="12px" preserveAspectRatio="xMinYMin meet" x="640.5" y="-716.96"/>
<text text-anchor="start" x="667.5" y="-708.16" font-family="Helvetica,sans-Serif" font-size="11.00">cohort_id</text>
<polygon fill="none" stroke="black" points="635.5,-681.96 635.5,-699.96 856.5,-699.96 856.5,-681.96 635.5,-681.96"/>
<text text-anchor="start" x="638.5" y="-688.16" font-family="Helvetica,sans-Serif" font-size="11.00">...</text>
<polygon fill="#ffffff" stroke="transparent" points="635.5,-663.96 635.5,-681.96 743.5,-681.96 743.5,-663.96 635.5,-663.96"/>
<polygon fill="none" stroke="black" points="635.5,-663.96 635.5,-681.96 743.5,-681.96 743.5,-663.96 635.5,-663.96"/>
<text text-anchor="start" x="638.5" y="-670.16" font-family="Helvetica,sans-Serif" font-size="11.00">&lt; 2</text>
<polygon fill="#ffffff" stroke="transparent" points="743.5,-663.96 743.5,-681.96 799.5,-681.96 799.5,-663.96 743.5,-663.96"/>
<polygon fill="none" stroke="black" points="743.5,-663.96 743.5,-681.96 799.5,-681.96 799.5,-663.96 743.5,-663.96"/>
<text text-anchor="start" x="789.5" y="-670.16" font-family="Helvetica,sans-Serif" font-size="11.00"> &#160;</text>
<polygon fill="#ffffff" stroke="transparent" points="799.5,-663.96 799.5,-681.96 856.5,-681.96 856.5,-663.96 799.5,-663.96"/>
<polygon fill="none" stroke="black" points="799.5,-663.96 799.5,-681.96 856.5,-681.96 856.5,-663.96 799.5,-663.96"/>
<text text-anchor="start" x="846.5" y="-670.16" font-family="Helvetica,sans-Serif" font-size="11.00"> &#160;</text>
</a>
</g>
</g>
<!-- deliverable_cohort_due_dates&#45;&gt;cohorts -->
<g id="edge16" class="edge">
<title>deliverable_cohort_due_dates:w&#45;&gt;cohorts:e</title>
<path fill="none" stroke="black" d="M619.85,-711.1C526.13,-712.92 498.19,-731.96 397.5,-731.96"/>
<polygon fill="black" stroke="black" points="626.5,-711.04 634.53,-714.56 630.5,-711 634.5,-710.96 634.5,-710.96 634.5,-710.96 630.5,-711 634.47,-707.36 626.5,-711.04 626.5,-711.04"/>
<ellipse fill="none" stroke="black" cx="623.3" cy="-711.07" rx="3.2" ry="3.2"/>
</g>
<!-- deliverables -->
<g id="node12" class="node">
<title>deliverables</title>
<g id="a_node12"><a xlink:href="../../tables/deliverables.html" xlink:title="deliverables" target="_top">
<polygon fill="#ffffff" stroke="transparent" points="458.5,-465.96 458.5,-523.96 574.5,-523.96 574.5,-465.96 458.5,-465.96"/>
<polygon fill="#f5f5f5" stroke="transparent" points="458.5,-501.96 458.5,-523.96 574.5,-523.96 574.5,-501.96 458.5,-501.96"/>
<polygon fill="none" stroke="black" points="458.5,-501.96 458.5,-523.96 574.5,-523.96 574.5,-501.96 458.5,-501.96"/>
<text text-anchor="start" x="463.5" y="-511.16" font-family="Helvetica,sans-Serif" font-weight="bold" font-size="11.00">deliverables</text>
<text text-anchor="start" x="535.5" y="-510.16" font-family="Helvetica,sans-Serif" font-size="11.00">[table]</text>
<polygon fill="none" stroke="black" points="458.5,-483.96 458.5,-501.96 574.5,-501.96 574.5,-483.96 458.5,-483.96"/>
<text text-anchor="start" x="461.5" y="-490.16" font-family="Helvetica,sans-Serif" font-size="11.00">...</text>
<polygon fill="#ffffff" stroke="transparent" points="458.5,-465.96 458.5,-483.96 509.5,-483.96 509.5,-465.96 458.5,-465.96"/>
<polygon fill="none" stroke="black" points="458.5,-465.96 458.5,-483.96 509.5,-483.96 509.5,-465.96 458.5,-465.96"/>
<text text-anchor="start" x="461.5" y="-472.16" font-family="Helvetica,sans-Serif" font-size="11.00">&lt; 5</text>
<polygon fill="#ffffff" stroke="transparent" points="509.5,-465.96 509.5,-483.96 537.5,-483.96 537.5,-465.96 509.5,-465.96"/>
<polygon fill="none" stroke="black" points="509.5,-465.96 509.5,-483.96 537.5,-483.96 537.5,-465.96 509.5,-465.96"/>
<text text-anchor="start" x="527.5" y="-472.16" font-family="Helvetica,sans-Serif" font-size="11.00"> &#160;</text>
<polygon fill="#ffffff" stroke="transparent" points="537.5,-465.96 537.5,-483.96 574.5,-483.96 574.5,-465.96 537.5,-465.96"/>
<polygon fill="none" stroke="black" points="537.5,-465.96 537.5,-483.96 574.5,-483.96 574.5,-465.96 537.5,-465.96"/>
<text text-anchor="start" x="555.5" y="-472.16" font-family="Helvetica,sans-Serif" font-size="11.00">6 &gt;</text>
</a>
</g>
</g>
<!-- deliverable_cohort_due_dates&#45;&gt;deliverables -->
<g id="edge17" class="edge">
<title>deliverable_cohort_due_dates:w&#45;&gt;deliverables:e</title>
<path fill="none" stroke="black" d="M621.45,-726.79C588.34,-689.22 625.17,-492.96 575.5,-492.96"/>
<polygon fill="black" stroke="black" points="627.27,-729.54 632.96,-736.21 630.88,-731.25 634.5,-732.96 634.5,-732.96 634.5,-732.96 630.88,-731.25 636.04,-729.71 627.27,-729.54 627.27,-729.54"/>
<ellipse fill="none" stroke="black" cx="624.38" cy="-728.17" rx="3.2" ry="3.2"/>
</g>
<!-- deliverables&#45;&gt;public.users -->
<g id="edge18" class="edge">
<title>deliverables:w&#45;&gt;public.users:e</title>
<path fill="none" stroke="black" d="M442.78,-492.36C429.82,-495.16 424.74,-507.61 406,-513.96 309.04,-546.79 257.77,-487.58 179,-552.96 100.57,-618.06 80.71,-747.6 75.69,-808.71"/>
<polygon fill="black" stroke="black" points="449.51,-492.64 457.35,-496.56 453.5,-492.8 457.5,-492.96 457.5,-492.96 457.5,-492.96 453.5,-492.8 457.65,-489.36 449.51,-492.64 449.51,-492.64"/>
<ellipse fill="none" stroke="black" cx="446.31" cy="-492.5" rx="3.2" ry="3.2"/>
</g>
<!-- deliverables&#45;&gt;public.users -->
<g id="edge19" class="edge">
<title>deliverables:w&#45;&gt;public.users:e</title>
<path fill="none" stroke="black" d="M443.99,-498.75C430.12,-507.39 425.31,-520.42 406,-526.96 309.04,-559.79 257.77,-500.58 179,-565.96 103.8,-628.39 82.44,-750.05 76.39,-808.81"/>
<polygon fill="black" stroke="black" points="450.15,-496.11 458.92,-496.27 453.82,-494.53 457.5,-492.96 457.5,-492.96 457.5,-492.96 453.82,-494.53 456.08,-489.65 450.15,-496.11 450.15,-496.11"/>
<ellipse fill="none" stroke="black" cx="447.2" cy="-497.37" rx="3.2" ry="3.2"/>
</g>
<!-- deliverables&#45;&gt;modules -->
<g id="edge20" class="edge">
<title>deliverables:w&#45;&gt;modules:e</title>
<path fill="none" stroke="black" d="M442.97,-490.96C403.47,-478.1 441.91,-405.99 406,-361.96 384.38,-335.45 375.71,-319.96 341.5,-319.96"/>
<polygon fill="black" stroke="black" points="449.57,-491.87 457.01,-496.53 453.54,-492.42 457.5,-492.96 457.5,-492.96 457.5,-492.96 453.54,-492.42 457.99,-489.39 449.57,-491.87 449.57,-491.87"/>
<ellipse fill="none" stroke="black" cx="446.4" cy="-491.44" rx="3.2" ry="3.2"/>
</g>
<!-- events -->
<g id="node13" class="node">
<title>events</title>
<g id="a_node13"><a xlink:href="../../tables/events.html" xlink:title="events" target="_top">
<polygon fill="#ffffff" stroke="transparent" points="474.5,-280.96 474.5,-338.96 558.5,-338.96 558.5,-280.96 474.5,-280.96"/>
<polygon fill="#f5f5f5" stroke="transparent" points="474.5,-316.96 474.5,-338.96 558.5,-338.96 558.5,-316.96 474.5,-316.96"/>
<polygon fill="none" stroke="black" points="474.5,-316.96 474.5,-338.96 558.5,-338.96 558.5,-316.96 474.5,-316.96"/>
<text text-anchor="start" x="479" y="-326.16" font-family="Helvetica,sans-Serif" font-weight="bold" font-size="11.00">events</text>
<text text-anchor="start" x="519.5" y="-325.16" font-family="Helvetica,sans-Serif" font-size="11.00">[table]</text>
<polygon fill="none" stroke="black" points="474.5,-298.96 474.5,-316.96 558.5,-316.96 558.5,-298.96 474.5,-298.96"/>
<text text-anchor="start" x="477.5" y="-305.16" font-family="Helvetica,sans-Serif" font-size="11.00">...</text>
<polygon fill="#ffffff" stroke="transparent" points="474.5,-280.96 474.5,-298.96 509.5,-298.96 509.5,-280.96 474.5,-280.96"/>
<polygon fill="none" stroke="black" points="474.5,-280.96 474.5,-298.96 509.5,-298.96 509.5,-280.96 474.5,-280.96"/>
<text text-anchor="start" x="477.5" y="-287.16" font-family="Helvetica,sans-Serif" font-size="11.00">&lt; 5</text>
<polygon fill="#ffffff" stroke="transparent" points="509.5,-280.96 509.5,-298.96 529.5,-298.96 529.5,-280.96 509.5,-280.96"/>
<polygon fill="none" stroke="black" points="509.5,-280.96 509.5,-298.96 529.5,-298.96 529.5,-280.96 509.5,-280.96"/>
<text text-anchor="start" x="519.5" y="-287.16" font-family="Helvetica,sans-Serif" font-size="11.00"> &#160;</text>
<polygon fill="#ffffff" stroke="transparent" points="529.5,-280.96 529.5,-298.96 558.5,-298.96 558.5,-280.96 529.5,-280.96"/>
<polygon fill="none" stroke="black" points="529.5,-280.96 529.5,-298.96 558.5,-298.96 558.5,-280.96 529.5,-280.96"/>
<text text-anchor="start" x="539.5" y="-287.16" font-family="Helvetica,sans-Serif" font-size="11.00">1 &gt;</text>
</a>
</g>
</g>
<!-- events&#45;&gt;public.users -->
<g id="edge21" class="edge">
<title>events:w&#45;&gt;public.users:e</title>
<path fill="none" stroke="black" d="M459.44,-303.88C439.31,-295.6 432.3,-280.85 406,-275.96 306.81,-257.52 256.63,-211.53 179,-275.96 96.6,-344.34 78.48,-697.58 74.84,-808.59"/>
<polygon fill="black" stroke="black" points="465.82,-305.73 472.5,-311.42 469.66,-306.84 473.5,-307.96 473.5,-307.96 473.5,-307.96 469.66,-306.84 474.5,-304.5 465.82,-305.73 465.82,-305.73"/>
<ellipse fill="none" stroke="black" cx="462.74" cy="-304.84" rx="3.2" ry="3.2"/>
</g>
<!-- events&#45;&gt;public.users -->
<g id="edge22" class="edge">
<title>events:w&#45;&gt;public.users:e</title>
<path fill="none" stroke="black" d="M459.15,-309.38C439.24,-308.46 432.17,-293.83 406,-288.96 306.81,-270.52 256.63,-224.53 179,-288.96 97.84,-356.32 79.03,-700.04 75.02,-808.92"/>
<polygon fill="black" stroke="black" points="465.54,-308.75 473.85,-311.54 469.52,-308.35 473.5,-307.96 473.5,-307.96 473.5,-307.96 469.52,-308.35 473.15,-304.38 465.54,-308.75 465.54,-308.75"/>
<ellipse fill="none" stroke="black" cx="462.35" cy="-309.06" rx="3.2" ry="3.2"/>
</g>
<!-- events&#45;&gt;modules -->
<g id="edge23" class="edge">
<title>events:w&#45;&gt;modules:e</title>
<path fill="none" stroke="black" d="M458.94,-308.22C411.75,-309.98 395.23,-319.96 341.5,-319.96"/>
<polygon fill="black" stroke="black" points="465.5,-308.1 473.56,-311.56 469.5,-308.03 473.5,-307.96 473.5,-307.96 473.5,-307.96 469.5,-308.03 473.44,-304.36 465.5,-308.1 465.5,-308.1"/>
<ellipse fill="none" stroke="black" cx="462.3" cy="-308.16" rx="3.2" ry="3.2"/>
</g>
<!-- participant_project_species -->
<g id="node14" class="node">
<title>participant_project_species</title>
<g id="a_node14"><a xlink:href="../../tables/participant_project_species.html" xlink:title="participant_project_species" target="_top">
<polygon fill="#ffffff" stroke="transparent" points="905,-1015.96 905,-1073.96 1111,-1073.96 1111,-1015.96 905,-1015.96"/>
<polygon fill="#f5f5f5" stroke="transparent" points="905,-1051.96 905,-1073.96 1111,-1073.96 1111,-1051.96 905,-1051.96"/>
<polygon fill="none" stroke="black" points="905,-1051.96 905,-1073.96 1111,-1073.96 1111,-1051.96 905,-1051.96"/>
<text text-anchor="start" x="910" y="-1061.16" font-family="Helvetica,sans-Serif" font-weight="bold" font-size="11.00">participant_project_species</text>
<text text-anchor="start" x="1072" y="-1060.16" font-family="Helvetica,sans-Serif" font-size="11.00">[table]</text>
<polygon fill="none" stroke="black" points="905,-1033.96 905,-1051.96 1111,-1051.96 1111,-1033.96 905,-1033.96"/>
<text text-anchor="start" x="908" y="-1040.16" font-family="Helvetica,sans-Serif" font-size="11.00">...</text>
<polygon fill="#ffffff" stroke="transparent" points="905,-1015.96 905,-1033.96 1006,-1033.96 1006,-1015.96 905,-1015.96"/>
<polygon fill="none" stroke="black" points="905,-1015.96 905,-1033.96 1006,-1033.96 1006,-1015.96 905,-1015.96"/>
<text text-anchor="start" x="908" y="-1022.16" font-family="Helvetica,sans-Serif" font-size="11.00">&lt; 6</text>
<polygon fill="#ffffff" stroke="transparent" points="1006,-1015.96 1006,-1033.96 1058,-1033.96 1058,-1015.96 1006,-1015.96"/>
<polygon fill="none" stroke="black" points="1006,-1015.96 1006,-1033.96 1058,-1033.96 1058,-1015.96 1006,-1015.96"/>
<text text-anchor="start" x="1048" y="-1022.16" font-family="Helvetica,sans-Serif" font-size="11.00"> &#160;</text>
<polygon fill="#ffffff" stroke="transparent" points="1058,-1015.96 1058,-1033.96 1111,-1033.96 1111,-1015.96 1058,-1015.96"/>
<polygon fill="none" stroke="black" points="1058,-1015.96 1058,-1033.96 1111,-1033.96 1111,-1015.96 1058,-1015.96"/>
<text text-anchor="start" x="1101" y="-1022.16" font-family="Helvetica,sans-Serif" font-size="11.00"> &#160;</text>
</a>
</g>
</g>
<!-- participant_project_species&#45;&gt;public.users -->
<g id="edge27" class="edge">
<title>participant_project_species:w&#45;&gt;public.users:e</title>
<path fill="none" stroke="black" d="M889.42,-1042.56C718.47,-1039.33 314.55,-1077.55 179,-998.96 131.39,-971.35 101.76,-912.52 86.57,-875.17"/>
<polygon fill="black" stroke="black" points="896,-1042.74 903.9,-1046.56 900,-1042.85 904,-1042.96 904,-1042.96 904,-1042.96 900,-1042.85 904.1,-1039.36 896,-1042.74 896,-1042.74"/>
<ellipse fill="none" stroke="black" cx="892.8" cy="-1042.65" rx="3.2" ry="3.2"/>
</g>
<!-- participant_project_species&#45;&gt;public.users -->
<g id="edge28" class="edge">
<title>participant_project_species:w&#45;&gt;public.users:e</title>
<path fill="none" stroke="black" d="M889.42,-1043.65C718.47,-1052.33 314.55,-1090.55 179,-1011.96 127.46,-982.07 96.99,-915.59 83.1,-875.1"/>
<polygon fill="black" stroke="black" points="896.01,-1043.34 904.17,-1046.56 900,-1043.15 904,-1042.96 904,-1042.96 904,-1042.96 900,-1043.15 903.83,-1039.36 896.01,-1043.34 896.01,-1043.34"/>
<ellipse fill="none" stroke="black" cx="892.81" cy="-1043.49" rx="3.2" ry="3.2"/>
</g>
<!-- participant_project_species&#45;&gt;public.projects -->
<g id="edge29" class="edge">
<title>participant_project_species:w&#45;&gt;public.projects:e</title>
<path fill="none" stroke="black" d="M889.69,-1041.08C824.87,-1022.06 896.07,-864.96 812.5,-864.96"/>
<polygon fill="black" stroke="black" points="896.07,-1041.92 903.53,-1046.53 900.03,-1042.44 904,-1042.96 904,-1042.96 904,-1042.96 900.03,-1042.44 904.47,-1039.39 896.07,-1041.92 896.07,-1041.92"/>
<ellipse fill="none" stroke="black" cx="892.9" cy="-1041.5" rx="3.2" ry="3.2"/>
</g>
<!-- participants&#45;&gt;public.users -->
<g id="edge31" class="edge">
<title>participants:w&#45;&gt;public.users:e</title>
<path fill="none" stroke="black" d="M435.96,-865.88C367.61,-866.79 266.53,-867.43 179,-857.96 166.04,-856.56 152.31,-854.28 139.21,-851.83"/>
<polygon fill="black" stroke="black" points="442.46,-865.79 450.51,-869.28 446.46,-865.74 450.46,-865.68 450.46,-865.68 450.46,-865.68 446.46,-865.74 450.41,-862.08 442.46,-865.79 442.46,-865.79"/>
<ellipse fill="none" stroke="black" cx="439.26" cy="-865.84" rx="3.2" ry="3.2"/>
</g>
<!-- participants&#45;&gt;public.users -->
<g id="edge32" class="edge">
<title>participants:w&#45;&gt;public.users:e</title>
<path fill="none" stroke="black" d="M435.96,-876.23C367.61,-879.79 266.53,-880.43 179,-870.96 166.04,-869.56 152.31,-867.28 139.21,-864.56"/>
<polygon fill="black" stroke="black" points="442.47,-875.86 450.66,-879 446.46,-875.63 450.46,-875.41 450.46,-875.41 450.46,-875.41 446.46,-875.63 450.25,-871.81 442.47,-875.86 442.47,-875.86"/>
<ellipse fill="none" stroke="black" cx="439.27" cy="-876.04" rx="3.2" ry="3.2"/>
</g>
<!-- participants&#45;&gt;cohorts -->
<g id="edge30" class="edge">
<title>participants:w&#45;&gt;cohorts:e</title>
<path fill="none" stroke="black" d="M497.49,-820.65C478.92,-781.58 445.81,-731.96 397.5,-731.96"/>
<polygon fill="black" stroke="black" points="500.18,-826.64 500.18,-835.41 501.82,-830.29 503.46,-833.94 503.46,-833.94 503.46,-833.94 501.82,-830.29 506.74,-832.46 500.18,-826.64 500.18,-826.64"/>
<ellipse fill="none" stroke="black" cx="498.87" cy="-823.72" rx="3.2" ry="3.2"/>
</g>
<!-- project_overall_scores -->
<g id="node16" class="node">
<title>project_overall_scores</title>
<g id="a_node16"><a xlink:href="../../tables/project_overall_scores.html" xlink:title="project_overall_scores" target="_top">
<polygon fill="#ffffff" stroke="transparent" points="920.5,-147.96 920.5,-205.96 1095.5,-205.96 1095.5,-147.96 920.5,-147.96"/>
<polygon fill="#f5f5f5" stroke="transparent" points="921,-183.96 921,-205.96 1096,-205.96 1096,-183.96 921,-183.96"/>
<polygon fill="none" stroke="black" points="921,-183.96 921,-205.96 1096,-205.96 1096,-183.96 921,-183.96"/>
<text text-anchor="start" x="926" y="-193.16" font-family="Helvetica,sans-Serif" font-weight="bold" font-size="11.00">project_overall_scores</text>
<text text-anchor="start" x="1057" y="-192.16" font-family="Helvetica,sans-Serif" font-size="11.00">[table]</text>
<polygon fill="none" stroke="black" points="921,-165.96 921,-183.96 1096,-183.96 1096,-165.96 921,-165.96"/>
<text text-anchor="start" x="924" y="-172.16" font-family="Helvetica,sans-Serif" font-size="11.00">...</text>
<polygon fill="#ffffff" stroke="transparent" points="921,-147.96 921,-165.96 1006,-165.96 1006,-147.96 921,-147.96"/>
<polygon fill="none" stroke="black" points="921,-147.96 921,-165.96 1006,-165.96 1006,-147.96 921,-147.96"/>
<text text-anchor="start" x="924" y="-154.16" font-family="Helvetica,sans-Serif" font-size="11.00">&lt; 3</text>
<polygon fill="#ffffff" stroke="transparent" points="1006,-147.96 1006,-165.96 1051,-165.96 1051,-147.96 1006,-147.96"/>
<polygon fill="none" stroke="black" points="1006,-147.96 1006,-165.96 1051,-165.96 1051,-147.96 1006,-147.96"/>
<text text-anchor="start" x="1041" y="-154.16" font-family="Helvetica,sans-Serif" font-size="11.00"> &#160;</text>
<polygon fill="#ffffff" stroke="transparent" points="1051,-147.96 1051,-165.96 1096,-165.96 1096,-147.96 1051,-147.96"/>
<polygon fill="none" stroke="black" points="1051,-147.96 1051,-165.96 1096,-165.96 1096,-147.96 1051,-147.96"/>
<text text-anchor="start" x="1086" y="-154.16" font-family="Helvetica,sans-Serif" font-size="11.00"> &#160;</text>
</a>
</g>
</g>
<!-- project_overall_scores&#45;&gt;public.users -->
<g id="edge33" class="edge">
<title>project_overall_scores:w&#45;&gt;public.users:e</title>
<path fill="none" stroke="black" d="M905.15,-174.56C585.61,-163.04 423.49,26.32 179,-186.96 131.53,-228.37 87.85,-680.94 76.72,-808.64"/>
<polygon fill="black" stroke="black" points="912,-174.74 919.9,-178.56 916,-174.85 920,-174.96 920,-174.96 920,-174.96 916,-174.85 920.1,-171.36 912,-174.74 912,-174.74"/>
<ellipse fill="none" stroke="black" cx="908.8" cy="-174.66" rx="3.2" ry="3.2"/>
</g>
<!-- project_overall_scores&#45;&gt;public.users -->
<g id="edge34" class="edge">
<title>project_overall_scores:w&#45;&gt;public.users:e</title>
<path fill="none" stroke="black" d="M905.15,-175.14C585.61,-176.04 423.49,13.32 179,-199.96 132.12,-240.85 88.94,-682.73 77.16,-808.69"/>
<polygon fill="black" stroke="black" points="912,-175.06 920.04,-178.56 916,-175.01 920,-174.96 920,-174.96 920,-174.96 916,-175.01 919.96,-171.36 912,-175.06 912,-175.06"/>
<ellipse fill="none" stroke="black" cx="908.8" cy="-175.1" rx="3.2" ry="3.2"/>
</g>
<!-- project_overall_scores&#45;&gt;public.projects -->
<g id="edge35" class="edge">
<title>project_overall_scores:w&#45;&gt;public.projects:e</title>
<path fill="none" stroke="black" d="M910.18,-179.3C856.02,-230.39 883.48,-716.38 864,-776.96 850.13,-820.1 857.82,-864.96 812.5,-864.96"/>
<polygon fill="black" stroke="black" points="917.65,-171.62 920.88,-178.94 919.42,-179.59 916.19,-172.27 917.65,-171.62"/>
<polyline fill="none" stroke="black" points="920,-174.96 916.34,-176.58 "/>
<ellipse fill="none" stroke="black" cx="913.41" cy="-177.87" rx="3.2" ry="3.2"/>
</g>
<!-- project_scores -->
<g id="node17" class="node">
<title>project_scores</title>
<g id="a_node17"><a xlink:href="../../tables/project_scores.html" xlink:title="project_scores" target="_top">
<polygon fill="#ffffff" stroke="transparent" points="943.5,-830.96 943.5,-888.96 1072.5,-888.96 1072.5,-830.96 943.5,-830.96"/>
<polygon fill="#f5f5f5" stroke="transparent" points="944,-866.96 944,-888.96 1073,-888.96 1073,-866.96 944,-866.96"/>
<polygon fill="none" stroke="black" points="944,-866.96 944,-888.96 1073,-888.96 1073,-866.96 944,-866.96"/>
<text text-anchor="start" x="949" y="-876.16" font-family="Helvetica,sans-Serif" font-weight="bold" font-size="11.00">project_scores</text>
<text text-anchor="start" x="1034" y="-875.16" font-family="Helvetica,sans-Serif" font-size="11.00">[table]</text>
<polygon fill="none" stroke="black" points="944,-848.96 944,-866.96 1073,-866.96 1073,-848.96 944,-848.96"/>
<text text-anchor="start" x="947" y="-855.16" font-family="Helvetica,sans-Serif" font-size="11.00">...</text>
<polygon fill="#ffffff" stroke="transparent" points="944,-830.96 944,-848.96 1006,-848.96 1006,-830.96 944,-830.96"/>
<polygon fill="none" stroke="black" points="944,-830.96 944,-848.96 1006,-848.96 1006,-830.96 944,-830.96"/>
<text text-anchor="start" x="947" y="-837.16" font-family="Helvetica,sans-Serif" font-size="11.00">&lt; 5</text>
<polygon fill="#ffffff" stroke="transparent" points="1006,-830.96 1006,-848.96 1039,-848.96 1039,-830.96 1006,-830.96"/>
<polygon fill="none" stroke="black" points="1006,-830.96 1006,-848.96 1039,-848.96 1039,-830.96 1006,-830.96"/>
<text text-anchor="start" x="1029" y="-837.16" font-family="Helvetica,sans-Serif" font-size="11.00"> &#160;</text>
<polygon fill="#ffffff" stroke="transparent" points="1039,-830.96 1039,-848.96 1073,-848.96 1073,-830.96 1039,-830.96"/>
<polygon fill="none" stroke="black" points="1039,-830.96 1039,-848.96 1073,-848.96 1073,-830.96 1039,-830.96"/>
<text text-anchor="start" x="1063" y="-837.16" font-family="Helvetica,sans-Serif" font-size="11.00"> &#160;</text>
</a>
</g>
</g>
<!-- project_scores&#45;&gt;public.users -->
<g id="edge36" class="edge">
<title>project_scores:w&#45;&gt;public.users:e</title>
<path fill="none" stroke="black" d="M928.27,-857.77C901.46,-861.77 898.3,-891.19 864,-900.96 682.34,-952.72 627.71,-909.29 439,-900.96 323.11,-895.84 291.84,-904.9 179,-877.96 165.82,-874.81 152.12,-870.31 139.14,-865.53"/>
<polygon fill="black" stroke="black" points="935,-857.86 942.95,-861.56 939,-857.91 943,-857.96 943,-857.96 943,-857.96 939,-857.91 943.05,-854.36 935,-857.86 935,-857.86"/>
<ellipse fill="none" stroke="black" cx="931.8" cy="-857.82" rx="3.2" ry="3.2"/>
</g>
<!-- project_scores&#45;&gt;public.users -->
<g id="edge37" class="edge">
<title>project_scores:w&#45;&gt;public.users:e</title>
<path fill="none" stroke="black" d="M929,-862.07C901.52,-874.24 898.61,-904.1 864,-913.96 682.34,-965.72 627.71,-922.29 439,-913.96 323.11,-908.84 291.84,-917.9 179,-890.96 163.05,-887.15 146.34,-881.36 131.05,-875.04"/>
<polygon fill="black" stroke="black" points="935.32,-860.22 944.02,-861.41 939.16,-859.09 943,-857.96 943,-857.96 943,-857.96 939.16,-859.09 941.98,-854.51 935.32,-860.22 935.32,-860.22"/>
<ellipse fill="none" stroke="black" cx="932.25" cy="-861.12" rx="3.2" ry="3.2"/>
</g>
<!-- project_scores&#45;&gt;public.projects -->
<g id="edge39" class="edge">
<title>project_scores:w&#45;&gt;public.projects:e</title>
<path fill="none" stroke="black" d="M928.34,-858.12C881.99,-859.16 865.36,-864.96 812.5,-864.96"/>
<polygon fill="black" stroke="black" points="935,-858.05 943.04,-861.56 939,-858 943,-857.96 943,-857.96 943,-857.96 939,-858 942.96,-854.36 935,-858.05 935,-858.05"/>
<ellipse fill="none" stroke="black" cx="931.8" cy="-858.08" rx="3.2" ry="3.2"/>
</g>
<!-- project_scores&#45;&gt;cohort_phases -->
<g id="edge38" class="edge">
<title>project_scores:w&#45;&gt;cohort_phases:e</title>
<path fill="none" stroke="black" d="M928.82,-854.3C882.85,-829.07 881,-681.11 864,-653.96 791.91,-538.83 695.58,-578.22 627,-460.96 583.51,-386.6 656.24,-329.52 594,-269.96 564.35,-241.59 177.27,-229.96 139,-229.96"/>
<polygon fill="black" stroke="black" points="935.25,-855.96 942.1,-861.45 939.13,-856.96 943,-857.96 943,-857.96 943,-857.96 939.13,-856.96 943.9,-854.47 935.25,-855.96 935.25,-855.96"/>
<ellipse fill="none" stroke="black" cx="932.16" cy="-855.16" rx="3.2" ry="3.2"/>
</g>
<!-- project_vote_decisions -->
<g id="node18" class="node">
<title>project_vote_decisions</title>
<g id="a_node18"><a xlink:href="../../tables/project_vote_decisions.html" xlink:title="project_vote_decisions" target="_top">
<polygon fill="#ffffff" stroke="transparent" points="919,-68.96 919,-126.96 1097,-126.96 1097,-68.96 919,-68.96"/>
<polygon fill="#f5f5f5" stroke="transparent" points="919,-104.96 919,-126.96 1097,-126.96 1097,-104.96 919,-104.96"/>
<polygon fill="none" stroke="black" points="919,-104.96 919,-126.96 1097,-126.96 1097,-104.96 919,-104.96"/>
<text text-anchor="start" x="924" y="-114.16" font-family="Helvetica,sans-Serif" font-weight="bold" font-size="11.00">project_vote_decisions</text>
<text text-anchor="start" x="1058" y="-113.16" font-family="Helvetica,sans-Serif" font-size="11.00">[table]</text>
<polygon fill="none" stroke="black" points="919,-86.96 919,-104.96 1097,-104.96 1097,-86.96 919,-86.96"/>
<text text-anchor="start" x="922" y="-93.16" font-family="Helvetica,sans-Serif" font-size="11.00">...</text>
<polygon fill="#ffffff" stroke="transparent" points="919,-68.96 919,-86.96 1006,-86.96 1006,-68.96 919,-68.96"/>
<polygon fill="none" stroke="black" points="919,-68.96 919,-86.96 1006,-86.96 1006,-68.96 919,-68.96"/>
<text text-anchor="start" x="922" y="-75.16" font-family="Helvetica,sans-Serif" font-size="11.00">&lt; 3</text>
<polygon fill="#ffffff" stroke="transparent" points="1006,-68.96 1006,-86.96 1051,-86.96 1051,-68.96 1006,-68.96"/>
<polygon fill="none" stroke="black" points="1006,-68.96 1006,-86.96 1051,-86.96 1051,-68.96 1006,-68.96"/>
<text text-anchor="start" x="1041" y="-75.16" font-family="Helvetica,sans-Serif" font-size="11.00"> &#160;</text>
<polygon fill="#ffffff" stroke="transparent" points="1051,-68.96 1051,-86.96 1097,-86.96 1097,-68.96 1051,-68.96"/>
<polygon fill="none" stroke="black" points="1051,-68.96 1051,-86.96 1097,-86.96 1097,-68.96 1051,-68.96"/>
<text text-anchor="start" x="1087" y="-75.16" font-family="Helvetica,sans-Serif" font-size="11.00"> &#160;</text>
</a>
</g>
</g>
<!-- project_vote_decisions&#45;&gt;public.projects -->
<g id="edge41" class="edge">
<title>project_vote_decisions:w&#45;&gt;public.projects:e</title>
<path fill="none" stroke="black" d="M904.76,-102.02C899.58,-109.73 900.57,-123.68 897,-136.96 823.11,-412.03 945.58,-504.07 864,-776.96 851.02,-820.38 857.82,-864.96 812.5,-864.96"/>
<polygon fill="black" stroke="black" points="910.72,-99.29 919.5,-99.23 914.36,-97.62 918,-95.96 918,-95.96 918,-95.96 914.36,-97.62 916.5,-92.69 910.72,-99.29 910.72,-99.29"/>
<ellipse fill="none" stroke="black" cx="907.81" cy="-100.62" rx="3.2" ry="3.2"/>
</g>
<!-- project_vote_decisions&#45;&gt;cohort_phases -->
<g id="edge40" class="edge">
<title>project_vote_decisions:w&#45;&gt;cohort_phases:e</title>
<path fill="none" stroke="black" d="M903.2,-95.85C584.91,-91.19 442.28,61.46 179,-126.96 139.06,-155.54 188.11,-229.96 139,-229.96"/>
<polygon fill="black" stroke="black" points="910,-95.9 917.97,-99.56 914,-95.93 918,-95.96 918,-95.96 918,-95.96 914,-95.93 918.03,-92.36 910,-95.9 910,-95.9"/>
<ellipse fill="none" stroke="black" cx="906.8" cy="-95.88" rx="3.2" ry="3.2"/>
</g>
<!-- project_votes -->
<g id="node19" class="node">
<title>project_votes</title>
<g id="a_node19"><a xlink:href="../../tables/project_votes.html" xlink:title="project_votes" target="_top">
<polygon fill="#ffffff" stroke="transparent" points="946,-724.96 946,-782.96 1070,-782.96 1070,-724.96 946,-724.96"/>
<polygon fill="#f5f5f5" stroke="transparent" points="946,-760.96 946,-782.96 1070,-782.96 1070,-760.96 946,-760.96"/>
<polygon fill="none" stroke="black" points="946,-760.96 946,-782.96 1070,-782.96 1070,-760.96 946,-760.96"/>
<text text-anchor="start" x="951" y="-770.16" font-family="Helvetica,sans-Serif" font-weight="bold" font-size="11.00">project_votes</text>
<text text-anchor="start" x="1031" y="-769.16" font-family="Helvetica,sans-Serif" font-size="11.00">[table]</text>
<polygon fill="none" stroke="black" points="946,-742.96 946,-760.96 1070,-760.96 1070,-742.96 946,-742.96"/>
<text text-anchor="start" x="949" y="-749.16" font-family="Helvetica,sans-Serif" font-size="11.00">...</text>
<polygon fill="#ffffff" stroke="transparent" points="946,-724.96 946,-742.96 1006,-742.96 1006,-724.96 946,-724.96"/>
<polygon fill="none" stroke="black" points="946,-724.96 946,-742.96 1006,-742.96 1006,-724.96 946,-724.96"/>
<text text-anchor="start" x="949" y="-731.16" font-family="Helvetica,sans-Serif" font-size="11.00">&lt; 6</text>
<polygon fill="#ffffff" stroke="transparent" points="1006,-724.96 1006,-742.96 1038,-742.96 1038,-724.96 1006,-724.96"/>
<polygon fill="none" stroke="black" points="1006,-724.96 1006,-742.96 1038,-742.96 1038,-724.96 1006,-724.96"/>
<text text-anchor="start" x="1028" y="-731.16" font-family="Helvetica,sans-Serif" font-size="11.00"> &#160;</text>
<polygon fill="#ffffff" stroke="transparent" points="1038,-724.96 1038,-742.96 1070,-742.96 1070,-724.96 1038,-724.96"/>
<polygon fill="none" stroke="black" points="1038,-724.96 1038,-742.96 1070,-742.96 1070,-724.96 1038,-724.96"/>
<text text-anchor="start" x="1060" y="-731.16" font-family="Helvetica,sans-Serif" font-size="11.00"> &#160;</text>
</a>
</g>
</g>
<!-- project_votes&#45;&gt;public.users -->
<g id="edge42" class="edge">
<title>project_votes:w&#45;&gt;public.users:e</title>
<path fill="none" stroke="black" d="M930.79,-748.19C904.94,-743.77 895.79,-757.82 864,-763.96 725.5,-790.7 302.23,-816.3 139.08,-832.11"/>
<polygon fill="black" stroke="black" points="937.27,-749.91 944.08,-755.44 941.13,-750.93 945,-751.96 945,-751.96 945,-751.96 941.13,-750.93 945.92,-748.48 937.27,-749.91 937.27,-749.91"/>
<ellipse fill="none" stroke="black" cx="934.17" cy="-749.09" rx="3.2" ry="3.2"/>
</g>
<!-- project_votes&#45;&gt;public.users -->
<g id="edge43" class="edge">
<title>project_votes:w&#45;&gt;public.users:e</title>
<path fill="none" stroke="black" d="M930.44,-752.99C904.85,-756.9 895.65,-770.85 864,-776.96 725.5,-803.7 302.23,-829.3 139.08,-838.43"/>
<polygon fill="black" stroke="black" points="937.02,-752.53 945.25,-755.55 941.01,-752.24 945,-751.96 945,-751.96 945,-751.96 941.01,-752.24 944.75,-748.37 937.02,-752.53 937.02,-752.53"/>
<ellipse fill="none" stroke="black" cx="933.83" cy="-752.75" rx="3.2" ry="3.2"/>
</g>
<!-- project_votes&#45;&gt;public.users -->
<g id="edge46" class="edge">
<title>project_votes:w&#45;&gt;public.users:e</title>
<path fill="none" stroke="black" d="M931.5,-757.36C905.1,-769.51 896.08,-783.77 864,-789.96 725.5,-816.7 302.23,-842.3 139.08,-844.76"/>
<polygon fill="black" stroke="black" points="937.57,-754.93 946.34,-755.3 941.29,-753.45 945,-751.96 945,-751.96 945,-751.96 941.29,-753.45 943.66,-748.62 937.57,-754.93 937.57,-754.93"/>
<ellipse fill="none" stroke="black" cx="934.6" cy="-756.12" rx="3.2" ry="3.2"/>
</g>
<!-- project_votes&#45;&gt;public.projects -->
<g id="edge45" class="edge">
<title>project_votes:w&#45;&gt;public.projects:e</title>
<path fill="none" stroke="black" d="M930.46,-753.47C870.19,-766.88 884.61,-864.96 812.5,-864.96"/>
<polygon fill="black" stroke="black" points="937.04,-752.79 945.37,-755.54 941.02,-752.37 945,-751.96 945,-751.96 945,-751.96 941.02,-752.37 944.63,-748.38 937.04,-752.79 937.04,-752.79"/>
<ellipse fill="none" stroke="black" cx="933.86" cy="-753.12" rx="3.2" ry="3.2"/>
</g>
<!-- project_votes&#45;&gt;cohort_phases -->
<g id="edge44" class="edge">
<title>project_votes:w&#45;&gt;cohort_phases:e</title>
<path fill="none" stroke="black" d="M930.64,-750.63C882.95,-740.86 897.74,-679.27 864,-629.96 746.39,-458.08 771.59,-355.77 594,-246.96 436.39,-150.4 362.45,-197.38 179,-219.96 160.81,-222.2 157.32,-229.96 139,-229.96"/>
<polygon fill="black" stroke="black" points="937.03,-751.22 944.67,-755.54 941.02,-751.59 945,-751.96 945,-751.96 945,-751.96 941.02,-751.59 945.33,-748.38 937.03,-751.22 937.03,-751.22"/>
<ellipse fill="none" stroke="black" cx="933.85" cy="-750.93" rx="3.2" ry="3.2"/>
</g>
<!-- report_project_metrics -->
<g id="node20" class="node">
<title>report_project_metrics</title>
<g id="a_node20"><a xlink:href="../../tables/report_project_metrics.html" xlink:title="report_project_metrics" target="_top">
<polygon fill="#ffffff" stroke="transparent" points="1165.5,-1160.96 1165.5,-1218.96 1345.5,-1218.96 1345.5,-1160.96 1165.5,-1160.96"/>
<polygon fill="#f5f5f5" stroke="transparent" points="1165.5,-1196.96 1165.5,-1218.96 1345.5,-1218.96 1345.5,-1196.96 1165.5,-1196.96"/>
<polygon fill="none" stroke="black" points="1165.5,-1196.96 1165.5,-1218.96 1345.5,-1218.96 1345.5,-1196.96 1165.5,-1196.96"/>
<text text-anchor="start" x="1170.5" y="-1206.16" font-family="Helvetica,sans-Serif" font-weight="bold" font-size="11.00">report_project_metrics</text>
<text text-anchor="start" x="1306.5" y="-1205.16" font-family="Helvetica,sans-Serif" font-size="11.00">[table]</text>
<polygon fill="none" stroke="black" points="1165.5,-1178.96 1165.5,-1196.96 1345.5,-1196.96 1345.5,-1178.96 1165.5,-1178.96"/>
<text text-anchor="start" x="1168.5" y="-1185.16" font-family="Helvetica,sans-Serif" font-size="11.00">...</text>
<polygon fill="#ffffff" stroke="transparent" points="1165.5,-1160.96 1165.5,-1178.96 1253.5,-1178.96 1253.5,-1160.96 1165.5,-1160.96"/>
<polygon fill="none" stroke="black" points="1165.5,-1160.96 1165.5,-1178.96 1253.5,-1178.96 1253.5,-1160.96 1165.5,-1160.96"/>
<text text-anchor="start" x="1168.5" y="-1167.16" font-family="Helvetica,sans-Serif" font-size="11.00">&lt; 4</text>
<polygon fill="#ffffff" stroke="transparent" points="1253.5,-1160.96 1253.5,-1178.96 1299.5,-1178.96 1299.5,-1160.96 1253.5,-1160.96"/>
<polygon fill="none" stroke="black" points="1253.5,-1160.96 1253.5,-1178.96 1299.5,-1178.96 1299.5,-1160.96 1253.5,-1160.96"/>
<text text-anchor="start" x="1289.5" y="-1167.16" font-family="Helvetica,sans-Serif" font-size="11.00"> &#160;</text>
<polygon fill="#ffffff" stroke="transparent" points="1299.5,-1160.96 1299.5,-1178.96 1345.5,-1178.96 1345.5,-1160.96 1299.5,-1160.96"/>
<polygon fill="none" stroke="black" points="1299.5,-1160.96 1299.5,-1178.96 1345.5,-1178.96 1345.5,-1160.96 1299.5,-1160.96"/>
<text text-anchor="start" x="1335.5" y="-1167.16" font-family="Helvetica,sans-Serif" font-size="11.00"> &#160;</text>
</a>
</g>
</g>
<!-- report_project_metrics&#45;&gt;public.users -->
<g id="edge47" class="edge">
<title>report_project_metrics:w&#45;&gt;public.users:e</title>
<path fill="none" stroke="black" d="M1150.33,-1190.82C1122.17,-1205.26 1157.28,-1270.48 1119,-1296.96 982.76,-1391.2 912.16,-1309.96 746.5,-1309.96 746.5,-1309.96 746.5,-1309.96 515.5,-1309.96 364.24,-1309.96 290.98,-1360.65 179,-1258.96 121.59,-1206.83 88.21,-964.68 77.67,-875.26"/>
<polygon fill="black" stroke="black" points="1156.66,-1189.54 1165.21,-1191.49 1160.58,-1188.75 1164.5,-1187.96 1164.5,-1187.96 1164.5,-1187.96 1160.58,-1188.75 1163.79,-1184.43 1156.66,-1189.54 1156.66,-1189.54"/>
<ellipse fill="none" stroke="black" cx="1153.52" cy="-1190.18" rx="3.2" ry="3.2"/>
</g>
<!-- reports -->
<g id="node21" class="node">
<title>reports</title>
<g id="a_node21"><a xlink:href="../../tables/reports.html" xlink:title="reports" target="_top">
<polygon fill="#ffffff" stroke="transparent" points="964,-1094.96 964,-1152.96 1052,-1152.96 1052,-1094.96 964,-1094.96"/>
<polygon fill="#f5f5f5" stroke="transparent" points="964,-1130.96 964,-1152.96 1052,-1152.96 1052,-1130.96 964,-1130.96"/>
<polygon fill="none" stroke="black" points="964,-1130.96 964,-1152.96 1052,-1152.96 1052,-1130.96 964,-1130.96"/>
<text text-anchor="start" x="968.5" y="-1140.16" font-family="Helvetica,sans-Serif" font-weight="bold" font-size="11.00">reports</text>
<text text-anchor="start" x="1013" y="-1139.16" font-family="Helvetica,sans-Serif" font-size="11.00">[table]</text>
<polygon fill="none" stroke="black" points="964,-1112.96 964,-1130.96 1052,-1130.96 1052,-1112.96 964,-1112.96"/>
<text text-anchor="start" x="967" y="-1119.16" font-family="Helvetica,sans-Serif" font-size="11.00">...</text>
<polygon fill="#ffffff" stroke="transparent" points="964,-1094.96 964,-1112.96 1004,-1112.96 1004,-1094.96 964,-1094.96"/>
<polygon fill="none" stroke="black" points="964,-1094.96 964,-1112.96 1004,-1112.96 1004,-1094.96 964,-1094.96"/>
<text text-anchor="start" x="967" y="-1101.16" font-family="Helvetica,sans-Serif" font-size="11.00">&lt; 10</text>
<polygon fill="#ffffff" stroke="transparent" points="1004,-1094.96 1004,-1112.96 1023,-1112.96 1023,-1094.96 1004,-1094.96"/>
<polygon fill="none" stroke="black" points="1004,-1094.96 1004,-1112.96 1023,-1112.96 1023,-1094.96 1004,-1094.96"/>
<text text-anchor="start" x="1013" y="-1101.16" font-family="Helvetica,sans-Serif" font-size="11.00"> &#160;</text>
<polygon fill="#ffffff" stroke="transparent" points="1023,-1094.96 1023,-1112.96 1052,-1112.96 1052,-1094.96 1023,-1094.96"/>
<polygon fill="none" stroke="black" points="1023,-1094.96 1023,-1112.96 1052,-1112.96 1052,-1094.96 1023,-1094.96"/>
<text text-anchor="start" x="1033" y="-1101.16" font-family="Helvetica,sans-Serif" font-size="11.00">6 &gt;</text>
</a>
</g>
</g>
<!-- report_project_metrics&#45;&gt;reports -->
<g id="edge48" class="edge">
<title>report_project_metrics:w&#45;&gt;reports:e</title>
<path fill="none" stroke="black" d="M1150.1,-1186.39C1107.07,-1176.4 1105.3,-1121.96 1053,-1121.96"/>
<polygon fill="black" stroke="black" points="1156.55,-1187.1 1164.11,-1191.54 1160.52,-1187.53 1164.5,-1187.96 1164.5,-1187.96 1164.5,-1187.96 1160.52,-1187.53 1164.89,-1184.38 1156.55,-1187.1 1156.55,-1187.1"/>
<ellipse fill="none" stroke="black" cx="1153.37" cy="-1186.75" rx="3.2" ry="3.2"/>
</g>
<!-- reports&#45;&gt;public.users -->
<g id="edge53" class="edge">
<title>reports:w&#45;&gt;public.users:e</title>
<path fill="none" stroke="black" d="M948.5,-1121.49C608.8,-1112.19 464.9,-1224.58 179,-1030.96 124.19,-993.84 96.15,-918.82 83.32,-875.02"/>
<polygon fill="black" stroke="black" points="955,-1121.7 962.88,-1125.56 959,-1121.83 963,-1121.96 963,-1121.96 963,-1121.96 959,-1121.83 963.12,-1118.36 955,-1121.7 955,-1121.7"/>
<ellipse fill="none" stroke="black" cx="951.81" cy="-1121.6" rx="3.2" ry="3.2"/>
</g>
<!-- reports&#45;&gt;public.users -->
<g id="edge54" class="edge">
<title>reports:w&#45;&gt;public.users:e</title>
<path fill="none" stroke="black" d="M948.5,-1122.03C608.8,-1125.19 464.9,-1237.58 179,-1043.96 120.42,-1004.29 92.43,-921.34 80.88,-875.02"/>
<polygon fill="black" stroke="black" points="955,-1122 963.02,-1125.56 959,-1121.98 963,-1121.96 963,-1121.96 963,-1121.96 959,-1121.98 962.98,-1118.36 955,-1122 955,-1122"/>
<ellipse fill="none" stroke="black" cx="951.8" cy="-1122.01" rx="3.2" ry="3.2"/>
</g>
<!-- reports&#45;&gt;public.users -->
<g id="edge56" class="edge">
<title>reports:w&#45;&gt;public.users:e</title>
<path fill="none" stroke="black" d="M948.5,-1122.56C608.8,-1138.19 464.9,-1250.58 179,-1056.96 116.99,-1014.96 89.25,-924.45 79.02,-875"/>
<polygon fill="black" stroke="black" points="955.01,-1122.29 963.15,-1125.56 959,-1122.13 963,-1121.96 963,-1121.96 963,-1121.96 959,-1122.13 962.85,-1118.36 955.01,-1122.29 955.01,-1122.29"/>
<ellipse fill="none" stroke="black" cx="951.81" cy="-1122.43" rx="3.2" ry="3.2"/>
</g>
<!-- reports&#45;&gt;public.projects -->
<g id="edge55" class="edge">
<title>reports:w&#45;&gt;public.projects:e</title>
<path fill="none" stroke="black" d="M948.49,-1121.06C925.75,-1117.9 915.48,-1106.32 897,-1084.96 828.47,-1005.75 917.24,-864.96 812.5,-864.96"/>
<polygon fill="black" stroke="black" points="955.02,-1121.47 962.78,-1125.55 959.01,-1121.71 963,-1121.96 963,-1121.96 963,-1121.96 959.01,-1121.71 963.22,-1118.37 955.02,-1121.47 955.02,-1121.47"/>
<ellipse fill="none" stroke="black" cx="951.82" cy="-1121.27" rx="3.2" ry="3.2"/>
</g>
<!-- report_standard_metrics -->
<g id="node22" class="node">
<title>report_standard_metrics</title>
<g id="a_node22"><a xlink:href="../../tables/report_standard_metrics.html" xlink:title="report_standard_metrics" target="_top">
<polygon fill="#ffffff" stroke="transparent" points="1160,-1081.96 1160,-1139.96 1351,-1139.96 1351,-1081.96 1160,-1081.96"/>
<polygon fill="#f5f5f5" stroke="transparent" points="1160.5,-1117.96 1160.5,-1139.96 1351.5,-1139.96 1351.5,-1117.96 1160.5,-1117.96"/>
<polygon fill="none" stroke="black" points="1160.5,-1117.96 1160.5,-1139.96 1351.5,-1139.96 1351.5,-1117.96 1160.5,-1117.96"/>
<text text-anchor="start" x="1165.5" y="-1127.16" font-family="Helvetica,sans-Serif" font-weight="bold" font-size="11.00">report_standard_metrics</text>
<text text-anchor="start" x="1312.5" y="-1126.16" font-family="Helvetica,sans-Serif" font-size="11.00">[table]</text>
<polygon fill="none" stroke="black" points="1160.5,-1099.96 1160.5,-1117.96 1351.5,-1117.96 1351.5,-1099.96 1160.5,-1099.96"/>
<text text-anchor="start" x="1163.5" y="-1106.16" font-family="Helvetica,sans-Serif" font-size="11.00">...</text>
<polygon fill="#ffffff" stroke="transparent" points="1160.5,-1081.96 1160.5,-1099.96 1253.5,-1099.96 1253.5,-1081.96 1160.5,-1081.96"/>
<polygon fill="none" stroke="black" points="1160.5,-1081.96 1160.5,-1099.96 1253.5,-1099.96 1253.5,-1081.96 1160.5,-1081.96"/>
<text text-anchor="start" x="1163.5" y="-1088.16" font-family="Helvetica,sans-Serif" font-size="11.00">&lt; 4</text>
<polygon fill="#ffffff" stroke="transparent" points="1253.5,-1081.96 1253.5,-1099.96 1302.5,-1099.96 1302.5,-1081.96 1253.5,-1081.96"/>
<polygon fill="none" stroke="black" points="1253.5,-1081.96 1253.5,-1099.96 1302.5,-1099.96 1302.5,-1081.96 1253.5,-1081.96"/>
<text text-anchor="start" x="1292.5" y="-1088.16" font-family="Helvetica,sans-Serif" font-size="11.00"> &#160;</text>
<polygon fill="#ffffff" stroke="transparent" points="1302.5,-1081.96 1302.5,-1099.96 1351.5,-1099.96 1351.5,-1081.96 1302.5,-1081.96"/>
<polygon fill="none" stroke="black" points="1302.5,-1081.96 1302.5,-1099.96 1351.5,-1099.96 1351.5,-1081.96 1302.5,-1081.96"/>
<text text-anchor="start" x="1341.5" y="-1088.16" font-family="Helvetica,sans-Serif" font-size="11.00"> &#160;</text>
</a>
</g>
</g>
<!-- report_standard_metrics&#45;&gt;public.users -->
<g id="edge49" class="edge">
<title>report_standard_metrics:w&#45;&gt;public.users:e</title>
<path fill="none" stroke="black" d="M1145.72,-1113.78C1134.25,-1125 1140.19,-1152.78 1119,-1163.96 1045.74,-1202.61 829.33,-1176.96 746.5,-1176.96 746.5,-1176.96 746.5,-1176.96 515.5,-1176.96 420.07,-1176.96 220.13,-1150.43 179,-1115.96 105,-1053.96 83.02,-933.61 76.6,-875.27"/>
<polygon fill="black" stroke="black" points="1151.95,-1111.6 1160.69,-1112.36 1155.72,-1110.28 1159.5,-1108.96 1159.5,-1108.96 1159.5,-1108.96 1155.72,-1110.28 1158.31,-1105.56 1151.95,-1111.6 1151.95,-1111.6"/>
<ellipse fill="none" stroke="black" cx="1148.93" cy="-1112.66" rx="3.2" ry="3.2"/>
</g>
<!-- report_standard_metrics&#45;&gt;reports -->
<g id="edge50" class="edge">
<title>report_standard_metrics:w&#45;&gt;reports:e</title>
<path fill="none" stroke="black" d="M1145.07,-1109.39C1108.94,-1111.65 1095.47,-1121.96 1053,-1121.96"/>
<polygon fill="black" stroke="black" points="1151.5,-1109.2 1159.61,-1112.56 1155.5,-1109.08 1159.5,-1108.96 1159.5,-1108.96 1159.5,-1108.96 1155.5,-1109.08 1159.39,-1105.36 1151.5,-1109.2 1151.5,-1109.2"/>
<ellipse fill="none" stroke="black" cx="1148.31" cy="-1109.3" rx="3.2" ry="3.2"/>
</g>
<!-- report_system_metrics -->
<g id="node23" class="node">
<title>report_system_metrics</title>
<g id="a_node23"><a xlink:href="../../tables/report_system_metrics.html" xlink:title="report_system_metrics" target="_top">
<polygon fill="#ffffff" stroke="transparent" points="1165.5,-451.96 1165.5,-509.96 1345.5,-509.96 1345.5,-451.96 1165.5,-451.96"/>
<polygon fill="#f5f5f5" stroke="transparent" points="1165.5,-487.96 1165.5,-509.96 1345.5,-509.96 1345.5,-487.96 1165.5,-487.96"/>
<polygon fill="none" stroke="black" points="1165.5,-487.96 1165.5,-509.96 1345.5,-509.96 1345.5,-487.96 1165.5,-487.96"/>
<text text-anchor="start" x="1170.5" y="-497.16" font-family="Helvetica,sans-Serif" font-weight="bold" font-size="11.00">report_system_metrics</text>
<text text-anchor="start" x="1306.5" y="-496.16" font-family="Helvetica,sans-Serif" font-size="11.00">[table]</text>
<polygon fill="none" stroke="black" points="1165.5,-469.96 1165.5,-487.96 1345.5,-487.96 1345.5,-469.96 1165.5,-469.96"/>
<text text-anchor="start" x="1168.5" y="-476.16" font-family="Helvetica,sans-Serif" font-size="11.00">...</text>
<polygon fill="#ffffff" stroke="transparent" points="1165.5,-451.96 1165.5,-469.96 1253.5,-469.96 1253.5,-451.96 1165.5,-451.96"/>
<polygon fill="none" stroke="black" points="1165.5,-451.96 1165.5,-469.96 1253.5,-469.96 1253.5,-451.96 1165.5,-451.96"/>
<text text-anchor="start" x="1168.5" y="-458.16" font-family="Helvetica,sans-Serif" font-size="11.00">&lt; 4</text>
<polygon fill="#ffffff" stroke="transparent" points="1253.5,-451.96 1253.5,-469.96 1299.5,-469.96 1299.5,-451.96 1253.5,-451.96"/>
<polygon fill="none" stroke="black" points="1253.5,-451.96 1253.5,-469.96 1299.5,-469.96 1299.5,-451.96 1253.5,-451.96"/>
<text text-anchor="start" x="1289.5" y="-458.16" font-family="Helvetica,sans-Serif" font-size="11.00"> &#160;</text>
<polygon fill="#ffffff" stroke="transparent" points="1299.5,-451.96 1299.5,-469.96 1345.5,-469.96 1345.5,-451.96 1299.5,-451.96"/>
<polygon fill="none" stroke="black" points="1299.5,-451.96 1299.5,-469.96 1345.5,-469.96 1345.5,-451.96 1299.5,-451.96"/>
<text text-anchor="start" x="1335.5" y="-458.16" font-family="Helvetica,sans-Serif" font-size="11.00"> &#160;</text>
</a>
</g>
</g>
<!-- report_system_metrics&#45;&gt;public.users -->
<g id="edge51" class="edge">
<title>report_system_metrics:w&#45;&gt;public.users:e</title>
<path fill="none" stroke="black" d="M1150.09,-478.82C893.02,-473.75 851.61,-332.75 594,-269.96 512.16,-250.01 490.06,-251.3 406,-245.96 305.31,-239.56 256.28,-181.1 179,-245.96 91.98,-318.99 77.05,-693.92 74.51,-808.6"/>
<polygon fill="black" stroke="black" points="1156.5,-478.88 1164.46,-482.56 1160.5,-478.92 1164.5,-478.96 1164.5,-478.96 1164.5,-478.96 1160.5,-478.92 1164.54,-475.36 1156.5,-478.88 1156.5,-478.88"/>
<ellipse fill="none" stroke="black" cx="1153.3" cy="-478.85" rx="3.2" ry="3.2"/>
</g>
<!-- report_system_metrics&#45;&gt;reports -->
<g id="edge52" class="edge">
<title>report_system_metrics:w&#45;&gt;reports:e</title>
<path fill="none" stroke="black" d="M1152.05,-486.74C1104.71,-553.74 1152.74,-1032.02 1119,-1084.96 1100.93,-1113.32 1086.63,-1121.96 1053,-1121.96"/>
<polygon fill="black" stroke="black" points="1157.72,-483.2 1166.41,-482.01 1161.11,-481.08 1164.5,-478.96 1164.5,-478.96 1164.5,-478.96 1161.11,-481.08 1162.59,-475.91 1157.72,-483.2 1157.72,-483.2"/>
<ellipse fill="none" stroke="black" cx="1155" cy="-484.9" rx="3.2" ry="3.2"/>
</g>
<!-- submission_documents -->
<g id="node24" class="node">
<title>submission_documents</title>
<g id="a_node24"><a xlink:href="../../tables/submission_documents.html" xlink:title="submission_documents" target="_top">
<polygon fill="#ffffff" stroke="transparent" points="1164,-779.96 1164,-837.96 1347,-837.96 1347,-779.96 1164,-779.96"/>
<polygon fill="#f5f5f5" stroke="transparent" points="1164.5,-815.96 1164.5,-837.96 1347.5,-837.96 1347.5,-815.96 1164.5,-815.96"/>
<polygon fill="none" stroke="black" points="1164.5,-815.96 1164.5,-837.96 1347.5,-837.96 1347.5,-815.96 1164.5,-815.96"/>
<text text-anchor="start" x="1169.5" y="-825.16" font-family="Helvetica,sans-Serif" font-weight="bold" font-size="11.00">submission_documents</text>
<text text-anchor="start" x="1308.5" y="-824.16" font-family="Helvetica,sans-Serif" font-size="11.00">[table]</text>
<polygon fill="none" stroke="black" points="1164.5,-797.96 1164.5,-815.96 1347.5,-815.96 1347.5,-797.96 1164.5,-797.96"/>
<text text-anchor="start" x="1167.5" y="-804.16" font-family="Helvetica,sans-Serif" font-size="11.00">...</text>
<polygon fill="#ffffff" stroke="transparent" points="1164.5,-779.96 1164.5,-797.96 1253.5,-797.96 1253.5,-779.96 1164.5,-779.96"/>
<polygon fill="none" stroke="black" points="1164.5,-779.96 1164.5,-797.96 1253.5,-797.96 1253.5,-779.96 1164.5,-779.96"/>
<text text-anchor="start" x="1167.5" y="-786.16" font-family="Helvetica,sans-Serif" font-size="11.00">&lt; 4</text>
<polygon fill="#ffffff" stroke="transparent" points="1253.5,-779.96 1253.5,-797.96 1300.5,-797.96 1300.5,-779.96 1253.5,-779.96"/>
<polygon fill="none" stroke="black" points="1253.5,-779.96 1253.5,-797.96 1300.5,-797.96 1300.5,-779.96 1253.5,-779.96"/>
<text text-anchor="start" x="1290.5" y="-786.16" font-family="Helvetica,sans-Serif" font-size="11.00"> &#160;</text>
<polygon fill="#ffffff" stroke="transparent" points="1300.5,-779.96 1300.5,-797.96 1347.5,-797.96 1347.5,-779.96 1300.5,-779.96"/>
<polygon fill="none" stroke="black" points="1300.5,-779.96 1300.5,-797.96 1347.5,-797.96 1347.5,-779.96 1300.5,-779.96"/>
<text text-anchor="start" x="1337.5" y="-786.16" font-family="Helvetica,sans-Serif" font-size="11.00"> &#160;</text>
</a>
</g>
</g>
<!-- submission_documents&#45;&gt;public.users -->
<g id="edge57" class="edge">
<title>submission_documents:w&#45;&gt;public.users:e</title>
<path fill="none" stroke="black" d="M1149.33,-810.22C1126.58,-823.87 1151.28,-876.78 1119,-899.96 1078.63,-928.95 945.9,-918.09 897,-926.96 882.15,-929.65 878.98,-933.17 864,-934.96 676.43,-957.37 627.65,-939.72 439,-929.96 323.26,-923.97 288.8,-947.05 179,-909.96 156.06,-902.21 133.18,-888.31 114.67,-875.09"/>
<polygon fill="black" stroke="black" points="1155.7,-808.75 1164.31,-810.47 1159.6,-807.86 1163.5,-806.96 1163.5,-806.96 1163.5,-806.96 1159.6,-807.86 1162.69,-803.45 1155.7,-808.75 1155.7,-808.75"/>
<ellipse fill="none" stroke="black" cx="1152.59" cy="-809.47" rx="3.2" ry="3.2"/>
</g>
<!-- submission_documents&#45;&gt;public.projects -->
<g id="edge58" class="edge">
<title>submission_documents:w&#45;&gt;public.projects:e</title>
<path fill="none" stroke="black" d="M1149,-806.87C1041.94,-805.6 1006.62,-791.06 897,-820.96 856.15,-832.1 854.84,-864.96 812.5,-864.96"/>
<polygon fill="black" stroke="black" points="1155.5,-806.91 1163.48,-810.56 1159.5,-806.94 1163.5,-806.96 1163.5,-806.96 1163.5,-806.96 1159.5,-806.94 1163.52,-803.36 1155.5,-806.91 1155.5,-806.91"/>
<ellipse fill="none" stroke="black" cx="1152.3" cy="-806.89" rx="3.2" ry="3.2"/>
</g>
<!-- submissions -->
<g id="node25" class="node">
<title>submissions</title>
<g id="a_node25"><a xlink:href="../../tables/submissions.html" xlink:title="submissions" target="_top">
<polygon fill="#ffffff" stroke="transparent" points="949.5,-579.96 949.5,-637.96 1066.5,-637.96 1066.5,-579.96 949.5,-579.96"/>
<polygon fill="#f5f5f5" stroke="transparent" points="950,-615.96 950,-637.96 1067,-637.96 1067,-615.96 950,-615.96"/>
<polygon fill="none" stroke="black" points="950,-615.96 950,-637.96 1067,-637.96 1067,-615.96 950,-615.96"/>
<text text-anchor="start" x="955" y="-625.16" font-family="Helvetica,sans-Serif" font-weight="bold" font-size="11.00">submissions</text>
<text text-anchor="start" x="1028" y="-624.16" font-family="Helvetica,sans-Serif" font-size="11.00">[table]</text>
<polygon fill="none" stroke="black" points="950,-597.96 950,-615.96 1067,-615.96 1067,-597.96 950,-597.96"/>
<text text-anchor="start" x="953" y="-604.16" font-family="Helvetica,sans-Serif" font-size="11.00">...</text>
<polygon fill="#ffffff" stroke="transparent" points="950,-579.96 950,-597.96 1002,-597.96 1002,-579.96 950,-579.96"/>
<polygon fill="none" stroke="black" points="950,-579.96 950,-597.96 1002,-597.96 1002,-579.96 950,-579.96"/>
<text text-anchor="start" x="953" y="-586.16" font-family="Helvetica,sans-Serif" font-size="11.00">&lt; 5</text>
<polygon fill="#ffffff" stroke="transparent" points="1002,-579.96 1002,-597.96 1030,-597.96 1030,-579.96 1002,-579.96"/>
<polygon fill="none" stroke="black" points="1002,-579.96 1002,-597.96 1030,-597.96 1030,-579.96 1002,-579.96"/>
<text text-anchor="start" x="1020" y="-586.16" font-family="Helvetica,sans-Serif" font-size="11.00"> &#160;</text>
<polygon fill="#ffffff" stroke="transparent" points="1030,-579.96 1030,-597.96 1067,-597.96 1067,-579.96 1030,-579.96"/>
<polygon fill="none" stroke="black" points="1030,-579.96 1030,-597.96 1067,-597.96 1067,-579.96 1030,-579.96"/>
<text text-anchor="start" x="1048" y="-586.16" font-family="Helvetica,sans-Serif" font-size="11.00">2 &gt;</text>
</a>
</g>
</g>
<!-- submission_documents&#45;&gt;submissions -->
<g id="edge59" class="edge">
<title>submission_documents:w&#45;&gt;submissions:e</title>
<path fill="none" stroke="black" d="M1154.69,-795.34C1131.68,-752.66 1078.51,-606.96 1068,-606.96"/>
<polygon fill="black" stroke="black" points="1158.67,-800.59 1160.63,-809.14 1161.08,-803.77 1163.5,-806.96 1163.5,-806.96 1163.5,-806.96 1161.08,-803.77 1166.37,-804.78 1158.67,-800.59 1158.67,-800.59"/>
<ellipse fill="none" stroke="black" cx="1156.73" cy="-798.04" rx="3.2" ry="3.2"/>
</g>
<!-- submissions&#45;&gt;public.users -->
<g id="edge60" class="edge">
<title>submissions:w&#45;&gt;public.users:e</title>
<path fill="none" stroke="black" d="M934.51,-606.33C801.23,-600.35 755.32,-592.78 627,-647.96 609.85,-655.34 609.68,-663.82 594,-673.96 514.87,-725.12 495.15,-741.46 406,-771.96 309,-805.14 279.54,-792.88 179,-812.96 166.1,-815.54 152.34,-818.44 139.17,-821.42"/>
<polygon fill="black" stroke="black" points="941.01,-606.61 948.84,-610.56 945,-606.79 949,-606.96 949,-606.96 949,-606.96 945,-606.79 949.16,-603.36 941.01,-606.61 941.01,-606.61"/>
<ellipse fill="none" stroke="black" cx="937.81" cy="-606.48" rx="3.2" ry="3.2"/>
</g>
<!-- submissions&#45;&gt;public.users -->
<g id="edge62" class="edge">
<title>submissions:w&#45;&gt;public.users:e</title>
<path fill="none" stroke="black" d="M934.51,-607.62C801.23,-613.35 755.32,-605.78 627,-660.96 609.85,-668.34 609.68,-676.82 594,-686.96 514.87,-738.12 495.15,-754.46 406,-784.96 309,-818.14 279.54,-805.88 179,-825.96 166.1,-828.54 152.34,-831.44 139.17,-834.15"/>
<polygon fill="black" stroke="black" points="941.01,-607.32 949.16,-610.56 945,-607.14 949,-606.96 949,-606.96 949,-606.96 945,-607.14 948.84,-603.36 941.01,-607.32 941.01,-607.32"/>
<ellipse fill="none" stroke="black" cx="937.81" cy="-607.47" rx="3.2" ry="3.2"/>
</g>
<!-- submissions&#45;&gt;public.projects -->
<g id="edge63" class="edge">
<title>submissions:w&#45;&gt;public.projects:e</title>
<path fill="none" stroke="black" d="M934.6,-608.17C828.71,-627.21 937.03,-864.96 812.5,-864.96"/>
<polygon fill="black" stroke="black" points="941.03,-607.63 949.3,-610.55 945.01,-607.29 949,-606.96 949,-606.96 949,-606.96 945.01,-607.29 948.7,-603.37 941.03,-607.63 941.03,-607.63"/>
<ellipse fill="none" stroke="black" cx="937.84" cy="-607.9" rx="3.2" ry="3.2"/>
</g>
<!-- submissions&#45;&gt;deliverables -->
<g id="edge61" class="edge">
<title>submissions:w&#45;&gt;deliverables:e</title>
<path fill="none" stroke="black" d="M934.36,-606.04C841.45,-595.25 657.7,-492.96 575.5,-492.96"/>
<polygon fill="black" stroke="black" points="941.02,-606.46 948.77,-610.55 945.01,-606.71 949,-606.96 949,-606.96 949,-606.96 945.01,-606.71 949.23,-603.37 941.02,-606.46 941.02,-606.46"/>
<ellipse fill="none" stroke="black" cx="937.82" cy="-606.26" rx="3.2" ry="3.2"/>
</g>
<!-- user_internal_interests -->
<g id="node26" class="node">
<title>user_internal_interests</title>
<g id="a_node26"><a xlink:href="../../tables/user_internal_interests.html" xlink:title="user_internal_interests" target="_top">
<polygon fill="#ffffff" stroke="transparent" points="202,-371.96 202,-429.96 383,-429.96 383,-371.96 202,-371.96"/>
<polygon fill="#f5f5f5" stroke="transparent" points="202.5,-407.96 202.5,-429.96 383.5,-429.96 383.5,-407.96 202.5,-407.96"/>
<polygon fill="none" stroke="black" points="202.5,-407.96 202.5,-429.96 383.5,-429.96 383.5,-407.96 202.5,-407.96"/>
<text text-anchor="start" x="207.5" y="-417.16" font-family="Helvetica,sans-Serif" font-weight="bold" font-size="11.00">user_internal_interests</text>
<text text-anchor="start" x="344.5" y="-416.16" font-family="Helvetica,sans-Serif" font-size="11.00">[table]</text>
<polygon fill="none" stroke="black" points="202.5,-389.96 202.5,-407.96 383.5,-407.96 383.5,-389.96 202.5,-389.96"/>
<text text-anchor="start" x="205.5" y="-396.16" font-family="Helvetica,sans-Serif" font-size="11.00">...</text>
<polygon fill="#ffffff" stroke="transparent" points="202.5,-371.96 202.5,-389.96 290.5,-389.96 290.5,-371.96 202.5,-371.96"/>
<polygon fill="none" stroke="black" points="202.5,-371.96 202.5,-389.96 290.5,-389.96 290.5,-371.96 202.5,-371.96"/>
<text text-anchor="start" x="205.5" y="-378.16" font-family="Helvetica,sans-Serif" font-size="11.00">&lt; 3</text>
<polygon fill="#ffffff" stroke="transparent" points="290.5,-371.96 290.5,-389.96 336.5,-389.96 336.5,-371.96 290.5,-371.96"/>
<polygon fill="none" stroke="black" points="290.5,-371.96 290.5,-389.96 336.5,-389.96 336.5,-371.96 290.5,-371.96"/>
<text text-anchor="start" x="326.5" y="-378.16" font-family="Helvetica,sans-Serif" font-size="11.00"> &#160;</text>
<polygon fill="#ffffff" stroke="transparent" points="336.5,-371.96 336.5,-389.96 383.5,-389.96 383.5,-371.96 336.5,-371.96"/>
<polygon fill="none" stroke="black" points="336.5,-371.96 336.5,-389.96 383.5,-389.96 383.5,-371.96 336.5,-371.96"/>
<text text-anchor="start" x="373.5" y="-378.16" font-family="Helvetica,sans-Serif" font-size="11.00"> &#160;</text>
</a>
</g>
</g>
<!-- user_internal_interests&#45;&gt;public.users -->
<g id="edge64" class="edge">
<title>user_internal_interests:w&#45;&gt;public.users:e</title>
<path fill="none" stroke="black" d="M186.95,-401.22C111.96,-429.65 83.62,-710.94 76.17,-808.73"/>
<polygon fill="black" stroke="black" points="193.6,-400.19 202.05,-402.52 197.55,-399.58 201.5,-398.96 201.5,-398.96 201.5,-398.96 197.55,-399.58 200.95,-395.4 193.6,-400.19 193.6,-400.19"/>
<ellipse fill="none" stroke="black" cx="190.43" cy="-400.68" rx="3.2" ry="3.2"/>
</g>
<!-- user_internal_interests&#45;&gt;public.users -->
<g id="edge65" class="edge">
<title>user_internal_interests:w&#45;&gt;public.users:e</title>
<path fill="none" stroke="black" d="M187.19,-402.93C113.41,-439.43 84.7,-712.67 76.61,-808.75"/>
<polygon fill="black" stroke="black" points="193.79,-401.1 202.46,-402.43 197.65,-400.03 201.5,-398.96 201.5,-398.96 201.5,-398.96 197.65,-400.03 200.54,-395.49 193.79,-401.1 193.79,-401.1"/>
<ellipse fill="none" stroke="black" cx="190.71" cy="-401.95" rx="3.2" ry="3.2"/>
</g>
</g>
</svg>
