<?xml version="1.0" encoding="UTF-8" standalone="no"?>
<!DOCTYPE svg PUBLIC "-//W3C//DTD SVG 1.1//EN"
 "http://www.w3.org/Graphics/SVG/1.1/DTD/svg11.dtd">
<!-- Generated by graphviz version 2.47.1 (20210515.0534)
 -->
<!-- Title: twoDegreesRelationshipsDiagram Pages: 1 -->
<svg width="958pt" height="512pt"
 viewBox="0.00 0.00 958.00 512.08" xmlns="http://www.w3.org/2000/svg" xmlns:xlink="http://www.w3.org/1999/xlink">
<g id="graph0" class="graph" transform="scale(1 1) rotate(0) translate(4 508.08)">
<title>twoDegreesRelationshipsDiagram</title>
<polygon fill="#ffffff" stroke="transparent" points="-4,4 -4,-508.08 954,-508.08 954,4 -4,4"/>
<text text-anchor="middle" x="73.5" y="-7.2" font-family="Helvetica,sans-Serif" font-size="11.00">Generated by SchemaSpy</text>
<!-- deliverable_categories -->
<g id="node1" class="node">
<title>deliverable_categories</title>
<g id="a_node1"><a xlink:href="../../tables/deliverable_categories.html" xlink:title="deliverable_categories" target="_top">
<polygon fill="#ffffff" stroke="transparent" points="207,-311.08 207,-421.08 459,-421.08 459,-311.08 207,-311.08"/>
<polygon fill="#f5f5f5" stroke="transparent" points="209,-397.08 209,-419.08 457,-419.08 457,-397.08 209,-397.08"/>
<polygon fill="none" stroke="black" points="209,-397.08 209,-419.08 457,-419.08 457,-397.08 209,-397.08"/>
<text text-anchor="start" x="214" y="-406.28" font-family="Helvetica,sans-Serif" font-weight="bold" font-size="11.00">deliverable_categories</text>
<text text-anchor="start" x="418" y="-405.28" font-family="Helvetica,sans-Serif" font-size="11.00">[table]</text>
<polygon fill="none" stroke="black" points="209,-375.08 209,-397.08 363,-397.08 363,-375.08 209,-375.08"/>
<image xlink:href="../../images/primaryKeys.png" width="11px" height="12px" preserveAspectRatio="xMinYMin meet" x="214" y="-392.077"/>
<text text-anchor="start" x="229" y="-383.28" font-family="Helvetica,sans-Serif" font-size="11.00">id</text>
<polygon fill="none" stroke="black" points="363,-375.08 363,-397.08 457,-397.08 457,-375.08 363,-375.08"/>
<text text-anchor="start" x="366" y="-383.28" font-family="Helvetica,sans-Serif" font-size="11.00">int4[10]</text>
<polygon fill="#ffffff" stroke="transparent" points="209,-353.08 209,-375.08 363,-375.08 363,-353.08 209,-353.08"/>
<polygon fill="none" stroke="black" points="209,-353.08 209,-375.08 363,-375.08 363,-353.08 209,-353.08"/>
<text text-anchor="start" x="229" y="-361.28" font-family="Helvetica,sans-Serif" font-size="11.00">name</text>
<polygon fill="none" stroke="black" points="363,-353.08 363,-375.08 457,-375.08 457,-353.08 363,-353.08"/>
<text text-anchor="start" x="366" y="-361.28" font-family="Helvetica,sans-Serif" font-size="11.00">text[2147483647]</text>
<polygon fill="none" stroke="black" points="209,-331.08 209,-353.08 363,-353.08 363,-331.08 209,-331.08"/>
<image xlink:href="../../images/foreignKeys.png" width="11px" height="12px" preserveAspectRatio="xMinYMin meet" x="214" y="-348.077"/>
<text text-anchor="start" x="229" y="-339.28" font-family="Helvetica,sans-Serif" font-size="11.00">internal_interest_id</text>
<polygon fill="none" stroke="black" points="363,-331.08 363,-353.08 457,-353.08 457,-331.08 363,-331.08"/>
<text text-anchor="start" x="366" y="-339.28" font-family="Helvetica,sans-Serif" font-size="11.00">int4[10]</text>
<polygon fill="#ffffff" stroke="transparent" points="209,-313.08 209,-331.08 290,-331.08 290,-313.08 209,-313.08"/>
<polygon fill="none" stroke="black" points="209,-313.08 209,-331.08 290,-331.08 290,-313.08 209,-313.08"/>
<text text-anchor="start" x="212" y="-319.28" font-family="Helvetica,sans-Serif" font-size="11.00">&lt; 1</text>
<polygon fill="#ffffff" stroke="transparent" points="290,-313.08 290,-331.08 363,-331.08 363,-313.08 290,-313.08"/>
<polygon fill="none" stroke="black" points="290,-313.08 290,-331.08 363,-331.08 363,-313.08 290,-313.08"/>
<text text-anchor="start" x="353" y="-319.28" font-family="Helvetica,sans-Serif" font-size="11.00"> &#160;</text>
<polygon fill="#ffffff" stroke="transparent" points="363,-313.08 363,-331.08 457,-331.08 457,-313.08 363,-313.08"/>
<polygon fill="none" stroke="black" points="363,-313.08 363,-331.08 457,-331.08 457,-313.08 363,-313.08"/>
<text text-anchor="start" x="438" y="-319.28" font-family="Helvetica,sans-Serif" font-size="11.00">1 &gt;</text>
<polygon fill="none" stroke="black" stroke-width="2" points="208,-312.08 208,-420.08 458,-420.08 458,-312.08 208,-312.08"/>
</a>
</g>
</g>
<!-- internal_interests -->
<g id="node2" class="node">
<title>internal_interests</title>
<g id="a_node2"><a xlink:href="../../tables/internal_interests.html" xlink:title="internal_interests" target="_top">
<polygon fill="#ffffff" stroke="transparent" points="8,-226.08 8,-310.08 158,-310.08 158,-226.08 8,-226.08"/>
<polygon fill="#f5f5f5" stroke="transparent" points="8,-288.08 8,-310.08 158,-310.08 158,-288.08 8,-288.08"/>
<polygon fill="none" stroke="black" points="8,-288.08 8,-310.08 158,-310.08 158,-288.08 8,-288.08"/>
<text text-anchor="start" x="13" y="-297.28" font-family="Helvetica,sans-Serif" font-weight="bold" font-size="11.00">internal_interests</text>
<text text-anchor="start" x="119" y="-296.28" font-family="Helvetica,sans-Serif" font-size="11.00">[table]</text>
<polygon fill="none" stroke="black" points="8,-266.08 8,-288.08 158,-288.08 158,-266.08 8,-266.08"/>
<image xlink:href="../../images/primaryKeys.png" width="11px" height="12px" preserveAspectRatio="xMinYMin meet" x="13" y="-283.077"/>
<text text-anchor="start" x="40" y="-274.28" font-family="Helvetica,sans-Serif" font-size="11.00">id</text>
<polygon fill="#ffffff" stroke="transparent" points="8,-244.08 8,-266.08 158,-266.08 158,-244.08 8,-244.08"/>
<polygon fill="none" stroke="black" points="8,-244.08 8,-266.08 158,-266.08 158,-244.08 8,-244.08"/>
<text text-anchor="start" x="40" y="-252.28" font-family="Helvetica,sans-Serif" font-size="11.00">name</text>
<polygon fill="#ffffff" stroke="transparent" points="8,-226.08 8,-244.08 72,-244.08 72,-226.08 8,-226.08"/>
<polygon fill="none" stroke="black" points="8,-226.08 8,-244.08 72,-244.08 72,-226.08 8,-226.08"/>
<text text-anchor="start" x="11" y="-232.28" font-family="Helvetica,sans-Serif" font-size="11.00"> &#160;</text>
<polygon fill="#ffffff" stroke="transparent" points="72,-226.08 72,-244.08 110,-244.08 110,-226.08 72,-226.08"/>
<polygon fill="none" stroke="black" points="72,-226.08 72,-244.08 110,-244.08 110,-226.08 72,-226.08"/>
<text text-anchor="start" x="100" y="-232.28" font-family="Helvetica,sans-Serif" font-size="11.00"> &#160;</text>
<polygon fill="#ffffff" stroke="transparent" points="110,-226.08 110,-244.08 158,-244.08 158,-226.08 110,-226.08"/>
<polygon fill="none" stroke="black" points="110,-226.08 110,-244.08 158,-244.08 158,-226.08 110,-226.08"/>
<text text-anchor="start" x="139" y="-232.28" font-family="Helvetica,sans-Serif" font-size="11.00">2 &gt;</text>
</a>
</g>
</g>
<!-- deliverable_categories&#45;&gt;internal_interests -->
<g id="edge1" class="edge">
<title>deliverable_categories:w&#45;&gt;internal_interests:e</title>
<path fill="none" stroke="black" d="M194.02,-336.98C178.09,-321.65 188.96,-277.08 159,-277.08"/>
<polygon fill="black" stroke="black" points="200.48,-339.34 206.77,-345.46 204.24,-340.71 208,-342.08 208,-342.08 208,-342.08 204.24,-340.71 209.23,-338.69 200.48,-339.34 200.48,-339.34"/>
<ellipse fill="none" stroke="black" cx="197.48" cy="-338.24" rx="3.2" ry="3.2"/>
</g>
<!-- deliverable_cohort_due_dates -->
<g id="node3" class="node">
<title>deliverable_cohort_due_dates</title>
<g id="a_node3"><a xlink:href="../../tables/deliverable_cohort_due_dates.html" xlink:title="deliverable_cohort_due_dates" target="_top">
<polygon fill="#ffffff" stroke="transparent" points="719.5,-383.08 719.5,-441.08 940.5,-441.08 940.5,-383.08 719.5,-383.08"/>
<polygon fill="#f5f5f5" stroke="transparent" points="720,-419.08 720,-441.08 941,-441.08 941,-419.08 720,-419.08"/>
<polygon fill="none" stroke="black" points="720,-419.08 720,-441.08 941,-441.08 941,-419.08 720,-419.08"/>
<text text-anchor="start" x="725" y="-428.28" font-family="Helvetica,sans-Serif" font-weight="bold" font-size="11.00">deliverable_cohort_due_dates</text>
<text text-anchor="start" x="902" y="-427.28" font-family="Helvetica,sans-Serif" font-size="11.00">[table]</text>
<polygon fill="none" stroke="black" points="720,-401.08 720,-419.08 941,-419.08 941,-401.08 720,-401.08"/>
<text text-anchor="start" x="723" y="-407.28" font-family="Helvetica,sans-Serif" font-size="11.00">...</text>
<polygon fill="#ffffff" stroke="transparent" points="720,-383.08 720,-401.08 828,-401.08 828,-383.08 720,-383.08"/>
<polygon fill="none" stroke="black" points="720,-383.08 720,-401.08 828,-401.08 828,-383.08 720,-383.08"/>
<text text-anchor="start" x="723" y="-389.28" font-family="Helvetica,sans-Serif" font-size="11.00">&lt; 2</text>
<polygon fill="#ffffff" stroke="transparent" points="828,-383.08 828,-401.08 884,-401.08 884,-383.08 828,-383.08"/>
<polygon fill="none" stroke="black" points="828,-383.08 828,-401.08 884,-401.08 884,-383.08 828,-383.08"/>
<text text-anchor="start" x="874" y="-389.28" font-family="Helvetica,sans-Serif" font-size="11.00"> &#160;</text>
<polygon fill="#ffffff" stroke="transparent" points="884,-383.08 884,-401.08 941,-401.08 941,-383.08 884,-383.08"/>
<polygon fill="none" stroke="black" points="884,-383.08 884,-401.08 941,-401.08 941,-383.08 884,-383.08"/>
<text text-anchor="start" x="931" y="-389.28" font-family="Helvetica,sans-Serif" font-size="11.00"> &#160;</text>
</a>
</g>
</g>
<!-- deliverables -->
<g id="node4" class="node">
<title>deliverables</title>
<g id="a_node4"><a xlink:href="../../tables/deliverables.html" xlink:title="deliverables" target="_top">
<polygon fill="#ffffff" stroke="transparent" points="508,-99.08 508,-311.08 669,-311.08 669,-99.08 508,-99.08"/>
<polygon fill="#f5f5f5" stroke="transparent" points="508.5,-289.08 508.5,-311.08 669.5,-311.08 669.5,-289.08 508.5,-289.08"/>
<polygon fill="none" stroke="black" points="508.5,-289.08 508.5,-311.08 669.5,-311.08 669.5,-289.08 508.5,-289.08"/>
<text text-anchor="start" x="513.5" y="-298.28" font-family="Helvetica,sans-Serif" font-weight="bold" font-size="11.00">deliverables</text>
<text text-anchor="start" x="630.5" y="-297.28" font-family="Helvetica,sans-Serif" font-size="11.00">[table]</text>
<polygon fill="none" stroke="black" points="508.5,-267.08 508.5,-289.08 669.5,-289.08 669.5,-267.08 508.5,-267.08"/>
<image xlink:href="../../images/primaryKeys.png" width="11px" height="12px" preserveAspectRatio="xMinYMin meet" x="513.5" y="-284.077"/>
<text text-anchor="start" x="528.5" y="-275.28" font-family="Helvetica,sans-Serif" font-size="11.00">id</text>
<polygon fill="none" stroke="black" points="508.5,-245.08 508.5,-267.08 669.5,-267.08 669.5,-245.08 508.5,-245.08"/>
<image xlink:href="../../images/foreignKeys.png" width="11px" height="12px" preserveAspectRatio="xMinYMin meet" x="513.5" y="-262.077"/>
<text text-anchor="start" x="528.5" y="-253.28" font-family="Helvetica,sans-Serif" font-size="11.00">deliverable_category_id</text>
<polygon fill="#ffffff" stroke="transparent" points="508.5,-223.08 508.5,-245.08 669.5,-245.08 669.5,-223.08 508.5,-223.08"/>
<polygon fill="none" stroke="black" points="508.5,-223.08 508.5,-245.08 669.5,-245.08 669.5,-223.08 508.5,-223.08"/>
<image xlink:href="../../images/foreignKeys.png" width="11px" height="12px" preserveAspectRatio="xMinYMin meet" x="513.5" y="-240.077"/>
<text text-anchor="start" x="528.5" y="-231.28" font-family="Helvetica,sans-Serif" font-size="11.00">deliverable_type_id</text>
<polygon fill="#ffffff" stroke="transparent" points="508.5,-201.08 508.5,-223.08 669.5,-223.08 669.5,-201.08 508.5,-201.08"/>
<polygon fill="none" stroke="black" points="508.5,-201.08 508.5,-223.08 669.5,-223.08 669.5,-201.08 508.5,-201.08"/>
<image xlink:href="../../images/foreignKeys.png" width="11px" height="12px" preserveAspectRatio="xMinYMin meet" x="513.5" y="-218.077"/>
<text text-anchor="start" x="528.5" y="-209.28" font-family="Helvetica,sans-Serif" font-size="11.00">module_id</text>
<polygon fill="#ffffff" stroke="transparent" points="508.5,-179.08 508.5,-201.08 669.5,-201.08 669.5,-179.08 508.5,-179.08"/>
<polygon fill="none" stroke="black" points="508.5,-179.08 508.5,-201.08 669.5,-201.08 669.5,-179.08 508.5,-179.08"/>
<text text-anchor="start" x="528.5" y="-187.28" font-family="Helvetica,sans-Serif" font-size="11.00">position</text>
<polygon fill="none" stroke="black" points="508.5,-157.08 508.5,-179.08 669.5,-179.08 669.5,-157.08 508.5,-157.08"/>
<image xlink:href="../../images/foreignKeys.png" width="11px" height="12px" preserveAspectRatio="xMinYMin meet" x="513.5" y="-174.077"/>
<text text-anchor="start" x="528.5" y="-165.28" font-family="Helvetica,sans-Serif" font-size="11.00">created_by</text>
<polygon fill="none" stroke="black" points="508.5,-135.08 508.5,-157.08 669.5,-157.08 669.5,-135.08 508.5,-135.08"/>
<image xlink:href="../../images/foreignKeys.png" width="11px" height="12px" preserveAspectRatio="xMinYMin meet" x="513.5" y="-152.077"/>
<text text-anchor="start" x="528.5" y="-143.28" font-family="Helvetica,sans-Serif" font-size="11.00">modified_by</text>
<polygon fill="none" stroke="black" points="508.5,-117.08 508.5,-135.08 669.5,-135.08 669.5,-117.08 508.5,-117.08"/>
<text text-anchor="start" x="511.5" y="-123.28" font-family="Helvetica,sans-Serif" font-size="11.00">...</text>
<polygon fill="#ffffff" stroke="transparent" points="508.5,-99.08 508.5,-117.08 582.5,-117.08 582.5,-99.08 508.5,-99.08"/>
<polygon fill="none" stroke="black" points="508.5,-99.08 508.5,-117.08 582.5,-117.08 582.5,-99.08 508.5,-99.08"/>
<text text-anchor="start" x="511.5" y="-105.28" font-family="Helvetica,sans-Serif" font-size="11.00">&lt; 5</text>
<polygon fill="#ffffff" stroke="transparent" points="582.5,-99.08 582.5,-117.08 621.5,-117.08 621.5,-99.08 582.5,-99.08"/>
<polygon fill="none" stroke="black" points="582.5,-99.08 582.5,-117.08 621.5,-117.08 621.5,-99.08 582.5,-99.08"/>
<text text-anchor="start" x="611.5" y="-105.28" font-family="Helvetica,sans-Serif" font-size="11.00"> &#160;</text>
<polygon fill="#ffffff" stroke="transparent" points="621.5,-99.08 621.5,-117.08 669.5,-117.08 669.5,-99.08 621.5,-99.08"/>
<polygon fill="none" stroke="black" points="621.5,-99.08 621.5,-117.08 669.5,-117.08 669.5,-99.08 621.5,-99.08"/>
<text text-anchor="start" x="650.5" y="-105.28" font-family="Helvetica,sans-Serif" font-size="11.00">6 &gt;</text>
</a>
</g>
</g>
<!-- deliverable_cohort_due_dates&#45;&gt;deliverables -->
<g id="edge2" class="edge">
<title>deliverable_cohort_due_dates:w&#45;&gt;deliverables:e</title>
<path fill="none" stroke="black" d="M704.86,-406.81C669.62,-386.49 727.14,-278.08 670.5,-278.08"/>
<polygon fill="black" stroke="black" points="711.2,-408.28 718.19,-413.58 715.1,-409.18 719,-410.08 719,-410.08 719,-410.08 715.1,-409.18 719.81,-406.57 711.2,-408.28 711.2,-408.28"/>
<ellipse fill="none" stroke="black" cx="708.09" cy="-407.56" rx="3.2" ry="3.2"/>
</g>
<!-- deliverables&#45;&gt;deliverable_categories -->
<g id="edge9" class="edge">
<title>deliverables:w&#45;&gt;deliverable_categories:e</title>
<path fill="none" stroke="black" d="M493.02,-259.55C458.86,-280.23 513.79,-386.08 458,-386.08"/>
<polygon fill="black" stroke="black" points="499.72,-257.95 508.34,-259.58 503.61,-257.01 507.5,-256.08 507.5,-256.08 507.5,-256.08 503.61,-257.01 506.66,-252.58 499.72,-257.95 499.72,-257.95"/>
<ellipse fill="none" stroke="black" cx="496.61" cy="-258.69" rx="3.2" ry="3.2"/>
</g>
<!-- deliverable_types -->
<g id="node6" class="node">
<title>deliverable_types</title>
<g id="a_node6"><a xlink:href="../../tables/deliverable_types.html" xlink:title="deliverable_types" target="_top">
<polygon fill="#ffffff" stroke="transparent" points="259,-442.08 259,-500.08 407,-500.08 407,-442.08 259,-442.08"/>
<polygon fill="#f5f5f5" stroke="transparent" points="259,-478.08 259,-500.08 407,-500.08 407,-478.08 259,-478.08"/>
<polygon fill="none" stroke="black" points="259,-478.08 259,-500.08 407,-500.08 407,-478.08 259,-478.08"/>
<text text-anchor="start" x="264" y="-487.28" font-family="Helvetica,sans-Serif" font-weight="bold" font-size="11.00">deliverable_types</text>
<text text-anchor="start" x="368" y="-486.28" font-family="Helvetica,sans-Serif" font-size="11.00">[table]</text>
<polygon fill="none" stroke="black" points="259,-460.08 259,-478.08 407,-478.08 407,-460.08 259,-460.08"/>
<text text-anchor="start" x="262" y="-466.28" font-family="Helvetica,sans-Serif" font-size="11.00">...</text>
<polygon fill="#ffffff" stroke="transparent" points="259,-442.08 259,-460.08 322,-460.08 322,-442.08 259,-442.08"/>
<polygon fill="none" stroke="black" points="259,-442.08 259,-460.08 322,-460.08 322,-442.08 259,-442.08"/>
<text text-anchor="start" x="262" y="-448.28" font-family="Helvetica,sans-Serif" font-size="11.00"> &#160;</text>
<polygon fill="#ffffff" stroke="transparent" points="322,-442.08 322,-460.08 360,-460.08 360,-442.08 322,-442.08"/>
<polygon fill="none" stroke="black" points="322,-442.08 322,-460.08 360,-460.08 360,-442.08 322,-442.08"/>
<text text-anchor="start" x="350" y="-448.28" font-family="Helvetica,sans-Serif" font-size="11.00"> &#160;</text>
<polygon fill="#ffffff" stroke="transparent" points="360,-442.08 360,-460.08 407,-460.08 407,-442.08 360,-442.08"/>
<polygon fill="none" stroke="black" points="360,-442.08 360,-460.08 407,-460.08 407,-442.08 360,-442.08"/>
<text text-anchor="start" x="388" y="-448.28" font-family="Helvetica,sans-Serif" font-size="11.00">2 &gt;</text>
</a>
</g>
</g>
<!-- deliverables&#45;&gt;deliverable_types -->
<g id="edge10" class="edge">
<title>deliverables:w&#45;&gt;deliverable_types:e</title>
<path fill="none" stroke="black" d="M492.81,-235.49C429.65,-249.4 514.98,-362.87 467,-432.08 449.36,-457.51 438.95,-469.08 408,-469.08"/>
<polygon fill="black" stroke="black" points="499.54,-234.84 507.84,-237.66 503.52,-234.46 507.5,-234.08 507.5,-234.08 507.5,-234.08 503.52,-234.46 507.16,-230.49 499.54,-234.84 499.54,-234.84"/>
<ellipse fill="none" stroke="black" cx="496.35" cy="-235.15" rx="3.2" ry="3.2"/>
</g>
<!-- public.users -->
<g id="node9" class="node">
<title>public.users</title>
<g id="a_node9"><a xlink:href="../../../public/tables/users.html" xlink:title="public.users" target="_top">
<polygon fill="#ffffff" stroke="transparent" points="25,-134.08 25,-192.08 141,-192.08 141,-134.08 25,-134.08"/>
<polygon fill="#f5f5f5" stroke="transparent" points="25,-170.08 25,-192.08 141,-192.08 141,-170.08 25,-170.08"/>
<polygon fill="none" stroke="black" points="25,-170.08 25,-192.08 141,-192.08 141,-170.08 25,-170.08"/>
<text text-anchor="start" x="30" y="-179.28" font-family="Helvetica,sans-Serif" font-weight="bold" font-size="11.00">public.users</text>
<text text-anchor="start" x="102" y="-178.28" font-family="Helvetica,sans-Serif" font-size="11.00">[table]</text>
<polygon fill="none" stroke="black" points="25,-152.08 25,-170.08 141,-170.08 141,-152.08 25,-152.08"/>
<text text-anchor="start" x="28" y="-158.28" font-family="Helvetica,sans-Serif" font-size="11.00">...</text>
<polygon fill="#ffffff" stroke="transparent" points="25,-134.08 25,-152.08 55,-152.08 55,-134.08 25,-134.08"/>
<polygon fill="none" stroke="black" points="25,-134.08 25,-152.08 55,-152.08 55,-134.08 25,-134.08"/>
<text text-anchor="start" x="28" y="-140.28" font-family="Helvetica,sans-Serif" font-size="11.00"> &#160;</text>
<polygon fill="#ffffff" stroke="transparent" points="55,-134.08 55,-152.08 104,-152.08 104,-134.08 55,-134.08"/>
<polygon fill="none" stroke="black" points="55,-134.08 55,-152.08 104,-152.08 104,-134.08 55,-134.08"/>
<text text-anchor="start" x="67" y="-140.28" font-family="Helvetica,sans-Serif" font-size="11.00">0 rows</text>
<polygon fill="#ffffff" stroke="transparent" points="104,-134.08 104,-152.08 141,-152.08 141,-134.08 104,-134.08"/>
<polygon fill="none" stroke="black" points="104,-134.08 104,-152.08 141,-152.08 141,-134.08 104,-134.08"/>
<text text-anchor="start" x="116" y="-140.28" font-family="Helvetica,sans-Serif" font-size="11.00">35 &gt;</text>
</a>
</g>
</g>
<!-- deliverables&#45;&gt;public.users -->
<g id="edge8" class="edge">
<title>deliverables:w&#45;&gt;public.users:e</title>
<path fill="none" stroke="black" d="M493.66,-164.05C485.14,-158.09 481.47,-147.18 467,-143.08 352.41,-110.56 316.72,-124.93 199,-143.08 172.74,-147.12 168.57,-161.08 142,-161.08"/>
<polygon fill="black" stroke="black" points="499.82,-165.84 506.49,-171.53 503.66,-166.96 507.5,-168.08 507.5,-168.08 507.5,-168.08 503.66,-166.96 508.51,-164.62 499.82,-165.84 499.82,-165.84"/>
<ellipse fill="none" stroke="black" cx="496.75" cy="-164.95" rx="3.2" ry="3.2"/>
</g>
<!-- deliverables&#45;&gt;public.users -->
<g id="edge11" class="edge">
<title>deliverables:w&#45;&gt;public.users:e</title>
<path fill="none" stroke="black" d="M493.59,-141.89C485.09,-135.69 481.59,-124.36 467,-120.08 352.71,-86.55 312.37,-83.54 199,-120.08 169.3,-129.65 173.21,-161.08 142,-161.08"/>
<polygon fill="black" stroke="black" points="499.84,-143.77 506.46,-149.52 503.67,-144.92 507.5,-146.08 507.5,-146.08 507.5,-146.08 503.67,-144.92 508.54,-142.63 499.84,-143.77 499.84,-143.77"/>
<ellipse fill="none" stroke="black" cx="496.78" cy="-142.85" rx="3.2" ry="3.2"/>
</g>
<!-- modules -->
<g id="node10" class="node">
<title>modules</title>
<g id="a_node10"><a xlink:href="../../tables/modules.html" xlink:title="modules" target="_top">
<polygon fill="#ffffff" stroke="transparent" points="285.5,-153.08 285.5,-211.08 380.5,-211.08 380.5,-153.08 285.5,-153.08"/>
<polygon fill="#f5f5f5" stroke="transparent" points="286,-189.08 286,-211.08 381,-211.08 381,-189.08 286,-189.08"/>
<polygon fill="none" stroke="black" points="286,-189.08 286,-211.08 381,-211.08 381,-189.08 286,-189.08"/>
<text text-anchor="start" x="291" y="-198.28" font-family="Helvetica,sans-Serif" font-weight="bold" font-size="11.00">modules</text>
<text text-anchor="start" x="342" y="-197.28" font-family="Helvetica,sans-Serif" font-size="11.00">[table]</text>
<polygon fill="none" stroke="black" points="286,-171.08 286,-189.08 381,-189.08 381,-171.08 286,-171.08"/>
<text text-anchor="start" x="289" y="-177.28" font-family="Helvetica,sans-Serif" font-size="11.00">...</text>
<polygon fill="#ffffff" stroke="transparent" points="286,-153.08 286,-171.08 327,-171.08 327,-153.08 286,-153.08"/>
<polygon fill="none" stroke="black" points="286,-153.08 286,-171.08 327,-171.08 327,-153.08 286,-153.08"/>
<text text-anchor="start" x="289" y="-159.28" font-family="Helvetica,sans-Serif" font-size="11.00">&lt; 3</text>
<polygon fill="#ffffff" stroke="transparent" points="327,-153.08 327,-171.08 349,-171.08 349,-153.08 327,-153.08"/>
<polygon fill="none" stroke="black" points="327,-153.08 327,-171.08 349,-171.08 349,-153.08 327,-153.08"/>
<text text-anchor="start" x="339" y="-159.28" font-family="Helvetica,sans-Serif" font-size="11.00"> &#160;</text>
<polygon fill="#ffffff" stroke="transparent" points="349,-153.08 349,-171.08 381,-171.08 381,-153.08 349,-153.08"/>
<polygon fill="none" stroke="black" points="349,-153.08 349,-171.08 381,-171.08 381,-153.08 349,-153.08"/>
<text text-anchor="start" x="362" y="-159.28" font-family="Helvetica,sans-Serif" font-size="11.00">4 &gt;</text>
</a>
</g>
</g>
<!-- deliverables&#45;&gt;modules -->
<g id="edge12" class="edge">
<title>deliverables:w&#45;&gt;modules:e</title>
<path fill="none" stroke="black" d="M493.06,-211.35C447.69,-206.58 434.39,-180.08 382,-180.08"/>
<polygon fill="black" stroke="black" points="499.51,-211.67 507.32,-215.67 503.51,-211.88 507.5,-212.08 507.5,-212.08 507.5,-212.08 503.51,-211.88 507.68,-208.48 499.51,-211.67 499.51,-211.67"/>
<ellipse fill="none" stroke="black" cx="496.31" cy="-211.51" rx="3.2" ry="3.2"/>
</g>
<!-- deliverable_documents -->
<g id="node5" class="node">
<title>deliverable_documents</title>
<g id="a_node5"><a xlink:href="../../tables/deliverable_documents.html" xlink:title="deliverable_documents" target="_top">
<polygon fill="#ffffff" stroke="transparent" points="739,-304.08 739,-362.08 921,-362.08 921,-304.08 739,-304.08"/>
<polygon fill="#f5f5f5" stroke="transparent" points="739,-340.08 739,-362.08 921,-362.08 921,-340.08 739,-340.08"/>
<polygon fill="none" stroke="black" points="739,-340.08 739,-362.08 921,-362.08 921,-340.08 739,-340.08"/>
<text text-anchor="start" x="744" y="-349.28" font-family="Helvetica,sans-Serif" font-weight="bold" font-size="11.00">deliverable_documents</text>
<text text-anchor="start" x="882" y="-348.28" font-family="Helvetica,sans-Serif" font-size="11.00">[table]</text>
<polygon fill="none" stroke="black" points="739,-322.08 739,-340.08 921,-340.08 921,-322.08 739,-322.08"/>
<text text-anchor="start" x="742" y="-328.28" font-family="Helvetica,sans-Serif" font-size="11.00">...</text>
<polygon fill="#ffffff" stroke="transparent" points="739,-304.08 739,-322.08 828,-322.08 828,-304.08 739,-304.08"/>
<polygon fill="none" stroke="black" points="739,-304.08 739,-322.08 828,-322.08 828,-304.08 739,-304.08"/>
<text text-anchor="start" x="742" y="-310.28" font-family="Helvetica,sans-Serif" font-size="11.00">&lt; 3</text>
<polygon fill="#ffffff" stroke="transparent" points="828,-304.08 828,-322.08 874,-322.08 874,-304.08 828,-304.08"/>
<polygon fill="none" stroke="black" points="828,-304.08 828,-322.08 874,-322.08 874,-304.08 828,-304.08"/>
<text text-anchor="start" x="864" y="-310.28" font-family="Helvetica,sans-Serif" font-size="11.00"> &#160;</text>
<polygon fill="#ffffff" stroke="transparent" points="874,-304.08 874,-322.08 921,-322.08 921,-304.08 874,-304.08"/>
<polygon fill="none" stroke="black" points="874,-304.08 874,-322.08 921,-322.08 921,-304.08 874,-304.08"/>
<text text-anchor="start" x="911" y="-310.28" font-family="Helvetica,sans-Serif" font-size="11.00"> &#160;</text>
</a>
</g>
</g>
<!-- deliverable_documents&#45;&gt;deliverables -->
<g id="edge3" class="edge">
<title>deliverable_documents:w&#45;&gt;deliverables:e</title>
<path fill="none" stroke="black" d="M727.39,-329.43C701.19,-320.49 704.62,-278.08 670.5,-278.08"/>
<polygon fill="black" stroke="black" points="737.82,-327 736.6,-334.91 735.02,-334.66 736.24,-326.76 737.82,-327"/>
<polyline fill="none" stroke="black" points="738,-331.08 734.05,-330.46 "/>
<ellipse fill="none" stroke="black" cx="730.88" cy="-329.97" rx="3.2" ry="3.2"/>
</g>
<!-- deliverable_documents&#45;&gt;deliverables -->
<g id="edge5" class="edge">
<title>deliverable_documents:w&#45;&gt;deliverables:e</title>
<path fill="none" stroke="black" d="M723.76,-327.85C692.61,-311.02 717.28,-234.08 670.5,-234.08"/>
<polygon fill="black" stroke="black" points="730.2,-329.31 737.2,-334.59 734.1,-330.19 738,-331.08 738,-331.08 738,-331.08 734.1,-330.19 738.8,-327.57 730.2,-329.31 730.2,-329.31"/>
<ellipse fill="none" stroke="black" cx="727.08" cy="-328.6" rx="3.2" ry="3.2"/>
</g>
<!-- deliverable_documents&#45;&gt;deliverable_types -->
<g id="edge4" class="edge">
<title>deliverable_documents:w&#45;&gt;deliverable_types:e</title>
<path fill="none" stroke="black" d="M723.52,-331.47C578.13,-339.57 562.01,-469.08 408,-469.08"/>
<polygon fill="black" stroke="black" points="730,-331.3 738.1,-334.68 734,-331.19 738,-331.08 738,-331.08 738,-331.08 734,-331.19 737.9,-327.48 730,-331.3 730,-331.3"/>
<ellipse fill="none" stroke="black" cx="726.8" cy="-331.38" rx="3.2" ry="3.2"/>
</g>
<!-- deliverable_project_due_dates -->
<g id="node7" class="node">
<title>deliverable_project_due_dates</title>
<g id="a_node7"><a xlink:href="../../tables/deliverable_project_due_dates.html" xlink:title="deliverable_project_due_dates" target="_top">
<polygon fill="#ffffff" stroke="transparent" points="718,-225.08 718,-283.08 942,-283.08 942,-225.08 718,-225.08"/>
<polygon fill="#f5f5f5" stroke="transparent" points="718,-261.08 718,-283.08 942,-283.08 942,-261.08 718,-261.08"/>
<polygon fill="none" stroke="black" points="718,-261.08 718,-283.08 942,-283.08 942,-261.08 718,-261.08"/>
<text text-anchor="start" x="723" y="-270.28" font-family="Helvetica,sans-Serif" font-weight="bold" font-size="11.00">deliverable_project_due_dates</text>
<text text-anchor="start" x="903" y="-269.28" font-family="Helvetica,sans-Serif" font-size="11.00">[table]</text>
<polygon fill="none" stroke="black" points="718,-243.08 718,-261.08 942,-261.08 942,-243.08 718,-243.08"/>
<text text-anchor="start" x="721" y="-249.28" font-family="Helvetica,sans-Serif" font-size="11.00">...</text>
<polygon fill="#ffffff" stroke="transparent" points="718,-225.08 718,-243.08 828,-243.08 828,-225.08 718,-225.08"/>
<polygon fill="none" stroke="black" points="718,-225.08 718,-243.08 828,-243.08 828,-225.08 718,-225.08"/>
<text text-anchor="start" x="721" y="-231.28" font-family="Helvetica,sans-Serif" font-size="11.00">&lt; 2</text>
<polygon fill="#ffffff" stroke="transparent" points="828,-225.08 828,-243.08 885,-243.08 885,-225.08 828,-225.08"/>
<polygon fill="none" stroke="black" points="828,-225.08 828,-243.08 885,-243.08 885,-225.08 828,-225.08"/>
<text text-anchor="start" x="875" y="-231.28" font-family="Helvetica,sans-Serif" font-size="11.00"> &#160;</text>
<polygon fill="#ffffff" stroke="transparent" points="885,-225.08 885,-243.08 942,-243.08 942,-225.08 885,-225.08"/>
<polygon fill="none" stroke="black" points="885,-225.08 885,-243.08 942,-243.08 942,-225.08 885,-225.08"/>
<text text-anchor="start" x="932" y="-231.28" font-family="Helvetica,sans-Serif" font-size="11.00"> &#160;</text>
</a>
</g>
</g>
<!-- deliverable_project_due_dates&#45;&gt;deliverables -->
<g id="edge6" class="edge">
<title>deliverable_project_due_dates:w&#45;&gt;deliverables:e</title>
<path fill="none" stroke="black" d="M703.07,-256.14C692.22,-263.45 688.26,-278.08 670.5,-278.08"/>
<polygon fill="black" stroke="black" points="709.32,-254.32 718.01,-255.53 713.16,-253.2 717,-252.08 717,-252.08 717,-252.08 713.16,-253.2 715.99,-248.62 709.32,-254.32 709.32,-254.32"/>
<ellipse fill="none" stroke="black" cx="706.25" cy="-255.21" rx="3.2" ry="3.2"/>
</g>
<!-- deliverable_variables -->
<g id="node8" class="node">
<title>deliverable_variables</title>
<g id="a_node8"><a xlink:href="../../tables/deliverable_variables.html" xlink:title="deliverable_variables" target="_top">
<polygon fill="#ffffff" stroke="transparent" points="745,-146.08 745,-204.08 915,-204.08 915,-146.08 745,-146.08"/>
<polygon fill="#f5f5f5" stroke="transparent" points="745,-182.08 745,-204.08 915,-204.08 915,-182.08 745,-182.08"/>
<polygon fill="none" stroke="black" points="745,-182.08 745,-204.08 915,-204.08 915,-182.08 745,-182.08"/>
<text text-anchor="start" x="750" y="-191.28" font-family="Helvetica,sans-Serif" font-weight="bold" font-size="11.00">deliverable_variables</text>
<text text-anchor="start" x="876" y="-190.28" font-family="Helvetica,sans-Serif" font-size="11.00">[table]</text>
<polygon fill="none" stroke="black" points="745,-164.08 745,-182.08 915,-182.08 915,-164.08 745,-164.08"/>
<text text-anchor="start" x="748" y="-170.28" font-family="Helvetica,sans-Serif" font-size="11.00">...</text>
<polygon fill="#ffffff" stroke="transparent" points="745,-146.08 745,-164.08 828,-164.08 828,-146.08 745,-146.08"/>
<polygon fill="none" stroke="black" points="745,-146.08 745,-164.08 828,-164.08 828,-146.08 745,-146.08"/>
<text text-anchor="start" x="748" y="-152.28" font-family="Helvetica,sans-Serif" font-size="11.00">&lt; 2</text>
<polygon fill="#ffffff" stroke="transparent" points="828,-146.08 828,-164.08 871,-164.08 871,-146.08 828,-146.08"/>
<polygon fill="none" stroke="black" points="828,-146.08 828,-164.08 871,-164.08 871,-146.08 828,-146.08"/>
<text text-anchor="start" x="861" y="-152.28" font-family="Helvetica,sans-Serif" font-size="11.00"> &#160;</text>
<polygon fill="#ffffff" stroke="transparent" points="871,-146.08 871,-164.08 915,-164.08 915,-146.08 871,-146.08"/>
<polygon fill="none" stroke="black" points="871,-146.08 871,-164.08 915,-164.08 915,-146.08 871,-146.08"/>
<text text-anchor="start" x="905" y="-152.28" font-family="Helvetica,sans-Serif" font-size="11.00"> &#160;</text>
</a>
</g>
</g>
<!-- deliverable_variables&#45;&gt;deliverables -->
<g id="edge7" class="edge">
<title>deliverable_variables:w&#45;&gt;deliverables:e</title>
<path fill="none" stroke="black" d="M729.45,-176.11C694.24,-193.32 721.68,-278.08 670.5,-278.08"/>
<polygon fill="black" stroke="black" points="736.17,-174.71 744.73,-176.6 740.08,-173.89 744,-173.08 744,-173.08 744,-173.08 740.08,-173.89 743.27,-169.55 736.17,-174.71 736.17,-174.71"/>
<ellipse fill="none" stroke="black" cx="733.04" cy="-175.36" rx="3.2" ry="3.2"/>
</g>
<!-- modules&#45;&gt;public.users -->
<g id="edge13" class="edge">
<title>modules:w&#45;&gt;public.users:e</title>
<path fill="none" stroke="black" d="M270.5,-178.4C218.2,-171.19 200.98,-155.56 142,-161.08"/>
<polygon fill="black" stroke="black" points="277.05,-179.16 284.59,-183.65 281.03,-179.62 285,-180.08 285,-180.08 285,-180.08 281.03,-179.62 285.41,-176.5 277.05,-179.16 277.05,-179.16"/>
<ellipse fill="none" stroke="black" cx="273.87" cy="-178.79" rx="3.2" ry="3.2"/>
</g>
<!-- modules&#45;&gt;public.users -->
<g id="edge14" class="edge">
<title>modules:w&#45;&gt;public.users:e</title>
<path fill="none" stroke="black" d="M270.5,-181.28C218.2,-184.11 200.98,-167.52 142,-161.08"/>
<polygon fill="black" stroke="black" points="277.03,-180.74 285.3,-183.66 281.01,-180.41 285,-180.08 285,-180.08 285,-180.08 281.01,-180.41 284.7,-176.49 277.03,-180.74 277.03,-180.74"/>
<ellipse fill="none" stroke="black" cx="273.84" cy="-181" rx="3.2" ry="3.2"/>
</g>
<!-- submissions -->
<g id="node11" class="node">
<title>submissions</title>
<g id="a_node11"><a xlink:href="../../tables/submissions.html" xlink:title="submissions" target="_top">
<polygon fill="#ffffff" stroke="transparent" points="771.5,-42.08 771.5,-100.08 888.5,-100.08 888.5,-42.08 771.5,-42.08"/>
<polygon fill="#f5f5f5" stroke="transparent" points="772,-78.08 772,-100.08 889,-100.08 889,-78.08 772,-78.08"/>
<polygon fill="none" stroke="black" points="772,-78.08 772,-100.08 889,-100.08 889,-78.08 772,-78.08"/>
<text text-anchor="start" x="777" y="-87.28" font-family="Helvetica,sans-Serif" font-weight="bold" font-size="11.00">submissions</text>
<text text-anchor="start" x="850" y="-86.28" font-family="Helvetica,sans-Serif" font-size="11.00">[table]</text>
<polygon fill="none" stroke="black" points="772,-60.08 772,-78.08 889,-78.08 889,-60.08 772,-60.08"/>
<text text-anchor="start" x="775" y="-66.28" font-family="Helvetica,sans-Serif" font-size="11.00">...</text>
<polygon fill="#ffffff" stroke="transparent" points="772,-42.08 772,-60.08 824,-60.08 824,-42.08 772,-42.08"/>
<polygon fill="none" stroke="black" points="772,-42.08 772,-60.08 824,-60.08 824,-42.08 772,-42.08"/>
<text text-anchor="start" x="775" y="-48.28" font-family="Helvetica,sans-Serif" font-size="11.00">&lt; 5</text>
<polygon fill="#ffffff" stroke="transparent" points="824,-42.08 824,-60.08 852,-60.08 852,-42.08 824,-42.08"/>
<polygon fill="none" stroke="black" points="824,-42.08 824,-60.08 852,-60.08 852,-42.08 824,-42.08"/>
<text text-anchor="start" x="842" y="-48.28" font-family="Helvetica,sans-Serif" font-size="11.00"> &#160;</text>
<polygon fill="#ffffff" stroke="transparent" points="852,-42.08 852,-60.08 889,-60.08 889,-42.08 852,-42.08"/>
<polygon fill="none" stroke="black" points="852,-42.08 852,-60.08 889,-60.08 889,-42.08 852,-42.08"/>
<text text-anchor="start" x="870" y="-48.28" font-family="Helvetica,sans-Serif" font-size="11.00">2 &gt;</text>
</a>
</g>
</g>
<!-- submissions&#45;&gt;deliverables -->
<g id="edge16" class="edge">
<title>submissions:w&#45;&gt;deliverables:e</title>
<path fill="none" stroke="black" d="M756.52,-70.79C730.05,-77.82 726.82,-105.65 710,-136.08 678.31,-193.41 736.01,-278.08 670.5,-278.08"/>
<polygon fill="black" stroke="black" points="763.06,-70.01 771.42,-72.65 767.03,-69.55 771,-69.08 771,-69.08 771,-69.08 767.03,-69.55 770.58,-65.5 763.06,-70.01 763.06,-70.01"/>
<ellipse fill="none" stroke="black" cx="759.88" cy="-70.39" rx="3.2" ry="3.2"/>
</g>
<!-- submissions&#45;&gt;public.users -->
<g id="edge15" class="edge">
<title>submissions:w&#45;&gt;public.users:e</title>
<path fill="none" stroke="black" d="M756.28,-68.97C513.03,-65.52 421.88,21.89 199,-90.08 162.84,-108.24 182.47,-161.08 142,-161.08"/>
<polygon fill="black" stroke="black" points="763,-69.02 770.97,-72.68 767,-69.05 771,-69.08 771,-69.08 771,-69.08 767,-69.05 771.03,-65.48 763,-69.02 763,-69.02"/>
<ellipse fill="none" stroke="black" cx="759.8" cy="-69" rx="3.2" ry="3.2"/>
</g>
<!-- submissions&#45;&gt;public.users -->
<g id="edge17" class="edge">
<title>submissions:w&#45;&gt;public.users:e</title>
<path fill="none" stroke="black" d="M756.28,-68.98C513.01,-65.76 423.14,15.52 199,-94.08 163.88,-111.25 181.1,-161.08 142,-161.08"/>
<polygon fill="black" stroke="black" points="763,-69.02 770.98,-72.68 767,-69.05 771,-69.08 771,-69.08 771,-69.08 767,-69.05 771.02,-65.48 763,-69.02 763,-69.02"/>
<ellipse fill="none" stroke="black" cx="759.8" cy="-69" rx="3.2" ry="3.2"/>
</g>
<!-- user_internal_interests -->
<g id="node12" class="node">
<title>user_internal_interests</title>
<g id="a_node12"><a xlink:href="../../tables/user_internal_interests.html" xlink:title="user_internal_interests" target="_top">
<polygon fill="#ffffff" stroke="transparent" points="242.5,-232.08 242.5,-290.08 423.5,-290.08 423.5,-232.08 242.5,-232.08"/>
<polygon fill="#f5f5f5" stroke="transparent" points="243,-268.08 243,-290.08 424,-290.08 424,-268.08 243,-268.08"/>
<polygon fill="none" stroke="black" points="243,-268.08 243,-290.08 424,-290.08 424,-268.08 243,-268.08"/>
<text text-anchor="start" x="248" y="-277.28" font-family="Helvetica,sans-Serif" font-weight="bold" font-size="11.00">user_internal_interests</text>
<text text-anchor="start" x="385" y="-276.28" font-family="Helvetica,sans-Serif" font-size="11.00">[table]</text>
<polygon fill="none" stroke="black" points="243,-250.08 243,-268.08 424,-268.08 424,-250.08 243,-250.08"/>
<text text-anchor="start" x="246" y="-256.28" font-family="Helvetica,sans-Serif" font-size="11.00">...</text>
<polygon fill="#ffffff" stroke="transparent" points="243,-232.08 243,-250.08 331,-250.08 331,-232.08 243,-232.08"/>
<polygon fill="none" stroke="black" points="243,-232.08 243,-250.08 331,-250.08 331,-232.08 243,-232.08"/>
<text text-anchor="start" x="246" y="-238.28" font-family="Helvetica,sans-Serif" font-size="11.00">&lt; 3</text>
<polygon fill="#ffffff" stroke="transparent" points="331,-232.08 331,-250.08 377,-250.08 377,-232.08 331,-232.08"/>
<polygon fill="none" stroke="black" points="331,-232.08 331,-250.08 377,-250.08 377,-232.08 331,-232.08"/>
<text text-anchor="start" x="367" y="-238.28" font-family="Helvetica,sans-Serif" font-size="11.00"> &#160;</text>
<polygon fill="#ffffff" stroke="transparent" points="377,-232.08 377,-250.08 424,-250.08 424,-232.08 377,-232.08"/>
<polygon fill="none" stroke="black" points="377,-232.08 377,-250.08 424,-250.08 424,-232.08 377,-232.08"/>
<text text-anchor="start" x="414" y="-238.28" font-family="Helvetica,sans-Serif" font-size="11.00"> &#160;</text>
</a>
</g>
</g>
<!-- user_internal_interests&#45;&gt;internal_interests -->
<g id="edge19" class="edge">
<title>user_internal_interests:w&#45;&gt;internal_interests:e</title>
<path fill="none" stroke="black" d="M227.35,-260.1C201.45,-263.9 191.29,-277.08 159,-277.08"/>
<polygon fill="black" stroke="black" points="234.02,-259.63 242.25,-262.67 238.01,-259.35 242,-259.08 242,-259.08 242,-259.08 238.01,-259.35 241.75,-255.49 234.02,-259.63 234.02,-259.63"/>
<ellipse fill="none" stroke="black" cx="230.83" cy="-259.85" rx="3.2" ry="3.2"/>
</g>
<!-- user_internal_interests&#45;&gt;public.users -->
<g id="edge18" class="edge">
<title>user_internal_interests:w&#45;&gt;public.users:e</title>
<path fill="none" stroke="black" d="M227.77,-255.62C183.33,-237 198.88,-155.59 142,-161.08"/>
<polygon fill="black" stroke="black" points="234.23,-257.19 241.15,-262.57 238.11,-258.13 242,-259.08 242,-259.08 242,-259.08 238.11,-258.13 242.85,-255.58 234.23,-257.19 234.23,-257.19"/>
<ellipse fill="none" stroke="black" cx="231.12" cy="-256.43" rx="3.2" ry="3.2"/>
</g>
<!-- user_internal_interests&#45;&gt;public.users -->
<g id="edge20" class="edge">
<title>user_internal_interests:w&#45;&gt;public.users:e</title>
<path fill="none" stroke="black" d="M227.48,-258.62C183.4,-249.55 198.76,-167.46 142,-161.08"/>
<polygon fill="black" stroke="black" points="234,-258.83 241.89,-262.67 238,-258.95 242,-259.08 242,-259.08 242,-259.08 238,-258.95 242.11,-255.48 234,-258.83 234,-258.83"/>
<ellipse fill="none" stroke="black" cx="230.81" cy="-258.73" rx="3.2" ry="3.2"/>
</g>
</g>
</svg>
