<?xml version="1.0" encoding="UTF-8" standalone="no"?>
<!DOCTYPE svg PUBLIC "-//W3C//DTD SVG 1.1//EN"
 "http://www.w3.org/Graphics/SVG/1.1/DTD/svg11.dtd">
<!-- Generated by graphviz version 2.47.1 (20210515.0534)
 -->
<!-- Title: oneDegreeRelationshipsDiagram Pages: 1 -->
<svg width="393pt" height="340pt"
 viewBox="0.00 0.00 393.00 340.00" xmlns="http://www.w3.org/2000/svg" xmlns:xlink="http://www.w3.org/1999/xlink">
<g id="graph0" class="graph" transform="scale(1 1) rotate(0) translate(4 336)">
<title>oneDegreeRelationshipsDiagram</title>
<polygon fill="#ffffff" stroke="transparent" points="-4,4 -4,-336 389,-336 389,4 -4,4"/>
<text text-anchor="middle" x="73.5" y="-7.2" font-family="Helvetica,sans-Serif" font-size="11.00">Generated by SchemaSpy</text>
<!-- event_projects -->
<g id="node1" class="node">
<title>event_projects</title>
<g id="a_node1"><a xlink:href="../../tables/event_projects.html" xlink:title="event_projects" target="_top">
<polygon fill="#ffffff" stroke="transparent" points="219,-144 219,-232 377,-232 377,-144 219,-144"/>
<polygon fill="#f5f5f5" stroke="transparent" points="221,-208 221,-230 375,-230 375,-208 221,-208"/>
<polygon fill="none" stroke="black" points="221,-208 221,-230 375,-230 375,-208 221,-208"/>
<text text-anchor="start" x="226" y="-217.2" font-family="Helvetica,sans-Serif" font-weight="bold" font-size="11.00">event_projects</text>
<text text-anchor="start" x="336" y="-216.2" font-family="Helvetica,sans-Serif" font-size="11.00">[table]</text>
<polygon fill="none" stroke="black" points="221,-186 221,-208 329,-208 329,-186 221,-186"/>
<image xlink:href="../../images/primaryKeys.png" width="11px" height="12px" preserveAspectRatio="xMinYMin meet" x="226" y="-203"/>
<text text-anchor="start" x="241" y="-194.2" font-family="Helvetica,sans-Serif" font-size="11.00">event_id</text>
<polygon fill="none" stroke="black" points="329,-186 329,-208 375,-208 375,-186 329,-186"/>
<text text-anchor="start" x="332" y="-194.2" font-family="Helvetica,sans-Serif" font-size="11.00">int8[19]</text>
<polygon fill="none" stroke="black" points="221,-164 221,-186 329,-186 329,-164 221,-164"/>
<image xlink:href="../../images/primaryKeys.png" width="11px" height="12px" preserveAspectRatio="xMinYMin meet" x="226" y="-181"/>
<text text-anchor="start" x="241" y="-172.2" font-family="Helvetica,sans-Serif" font-size="11.00">project_id</text>
<polygon fill="none" stroke="black" points="329,-164 329,-186 375,-186 375,-164 329,-164"/>
<text text-anchor="start" x="332" y="-172.2" font-family="Helvetica,sans-Serif" font-size="11.00">int8[19]</text>
<polygon fill="#ffffff" stroke="transparent" points="221,-146 221,-164 279,-164 279,-146 221,-146"/>
<polygon fill="none" stroke="black" points="221,-146 221,-164 279,-164 279,-146 221,-146"/>
<text text-anchor="start" x="224" y="-152.2" font-family="Helvetica,sans-Serif" font-size="11.00">&lt; 2</text>
<polygon fill="#ffffff" stroke="transparent" points="279,-146 279,-164 329,-164 329,-146 279,-146"/>
<polygon fill="none" stroke="black" points="279,-146 279,-164 329,-164 329,-146 279,-146"/>
<text text-anchor="start" x="319" y="-152.2" font-family="Helvetica,sans-Serif" font-size="11.00"> &#160;</text>
<polygon fill="#ffffff" stroke="transparent" points="329,-146 329,-164 375,-164 375,-146 329,-146"/>
<polygon fill="none" stroke="black" points="329,-146 329,-164 375,-164 375,-146 329,-146"/>
<text text-anchor="start" x="356" y="-152.2" font-family="Helvetica,sans-Serif" font-size="11.00">0 &gt;</text>
<polygon fill="none" stroke="black" stroke-width="2" points="220,-145 220,-231 376,-231 376,-145 220,-145"/>
</a>
</g>
</g>
<!-- events -->
<g id="node2" class="node">
<title>events</title>
<g id="a_node2"><a xlink:href="../../tables/events.html" xlink:title="events" target="_top">
<polygon fill="#ffffff" stroke="transparent" points="32.5,-138 32.5,-328 145.5,-328 145.5,-138 32.5,-138"/>
<polygon fill="#f5f5f5" stroke="transparent" points="33,-306 33,-328 146,-328 146,-306 33,-306"/>
<polygon fill="none" stroke="black" points="33,-306 33,-328 146,-328 146,-306 33,-306"/>
<text text-anchor="start" x="37.5" y="-315.2" font-family="Helvetica,sans-Serif" font-weight="bold" font-size="11.00">events</text>
<text text-anchor="start" x="107" y="-314.2" font-family="Helvetica,sans-Serif" font-size="11.00">[table]</text>
<polygon fill="none" stroke="black" points="33,-284 33,-306 146,-306 146,-284 33,-284"/>
<image xlink:href="../../images/primaryKeys.png" width="11px" height="12px" preserveAspectRatio="xMinYMin meet" x="38" y="-301"/>
<text text-anchor="start" x="53" y="-292.2" font-family="Helvetica,sans-Serif" font-size="11.00">id</text>
<polygon fill="none" stroke="black" points="33,-262 33,-284 146,-284 146,-262 33,-262"/>
<image xlink:href="../../images/foreignKeys.png" width="11px" height="12px" preserveAspectRatio="xMinYMin meet" x="38" y="-279"/>
<text text-anchor="start" x="53" y="-270.2" font-family="Helvetica,sans-Serif" font-size="11.00">module_id</text>
<polygon fill="none" stroke="black" points="33,-240 33,-262 146,-262 146,-240 33,-240"/>
<image xlink:href="../../images/foreignKeys.png" width="11px" height="12px" preserveAspectRatio="xMinYMin meet" x="38" y="-257"/>
<text text-anchor="start" x="53" y="-248.2" font-family="Helvetica,sans-Serif" font-size="11.00">event_type_id</text>
<polygon fill="none" stroke="black" points="33,-218 33,-240 146,-240 146,-218 33,-218"/>
<image xlink:href="../../images/foreignKeys.png" width="11px" height="12px" preserveAspectRatio="xMinYMin meet" x="38" y="-235"/>
<text text-anchor="start" x="53" y="-226.2" font-family="Helvetica,sans-Serif" font-size="11.00">created_by</text>
<polygon fill="none" stroke="black" points="33,-196 33,-218 146,-218 146,-196 33,-196"/>
<image xlink:href="../../images/foreignKeys.png" width="11px" height="12px" preserveAspectRatio="xMinYMin meet" x="38" y="-213"/>
<text text-anchor="start" x="53" y="-204.2" font-family="Helvetica,sans-Serif" font-size="11.00">modified_by</text>
<polygon fill="none" stroke="black" points="33,-174 33,-196 146,-196 146,-174 33,-174"/>
<image xlink:href="../../images/foreignKeys.png" width="11px" height="12px" preserveAspectRatio="xMinYMin meet" x="38" y="-191"/>
<text text-anchor="start" x="53" y="-182.2" font-family="Helvetica,sans-Serif" font-size="11.00">event_status_id</text>
<polygon fill="none" stroke="black" points="33,-156 33,-174 146,-174 146,-156 33,-156"/>
<text text-anchor="start" x="36" y="-162.2" font-family="Helvetica,sans-Serif" font-size="11.00">...</text>
<polygon fill="#ffffff" stroke="transparent" points="33,-138 33,-156 83,-156 83,-138 33,-138"/>
<polygon fill="none" stroke="black" points="33,-138 33,-156 83,-156 83,-138 33,-138"/>
<text text-anchor="start" x="36" y="-144.2" font-family="Helvetica,sans-Serif" font-size="11.00">&lt; 5</text>
<polygon fill="#ffffff" stroke="transparent" points="83,-138 83,-156 110,-156 110,-138 83,-138"/>
<polygon fill="none" stroke="black" points="83,-138 83,-156 110,-156 110,-138 83,-138"/>
<text text-anchor="start" x="100" y="-144.2" font-family="Helvetica,sans-Serif" font-size="11.00"> &#160;</text>
<polygon fill="#ffffff" stroke="transparent" points="110,-138 110,-156 146,-156 146,-138 110,-138"/>
<polygon fill="none" stroke="black" points="110,-138 110,-156 146,-156 146,-138 110,-138"/>
<text text-anchor="start" x="127" y="-144.2" font-family="Helvetica,sans-Serif" font-size="11.00">1 &gt;</text>
</a>
</g>
</g>
<!-- event_projects&#45;&gt;events -->
<g id="edge1" class="edge">
<title>event_projects:w&#45;&gt;events:e</title>
<path fill="none" stroke="black" d="M205.61,-200.04C172.2,-216.58 195.58,-295 147,-295"/>
<polygon fill="black" stroke="black" points="212.17,-198.65 220.74,-200.52 216.09,-197.83 220,-197 220,-197 220,-197 216.09,-197.83 219.26,-193.48 212.17,-198.65 212.17,-198.65"/>
<ellipse fill="none" stroke="black" cx="209.04" cy="-199.31" rx="3.2" ry="3.2"/>
</g>
<!-- public.projects -->
<g id="node3" class="node">
<title>public.projects</title>
<g id="a_node3"><a xlink:href="../../../public/tables/projects.html" xlink:title="public.projects" target="_top">
<polygon fill="#ffffff" stroke="transparent" points="8,-37 8,-117 170,-117 170,-37 8,-37"/>
<polygon fill="#f5f5f5" stroke="transparent" points="8,-95 8,-117 170,-117 170,-95 8,-95"/>
<polygon fill="none" stroke="black" points="8,-95 8,-117 170,-117 170,-95 8,-95"/>
<text text-anchor="start" x="13" y="-104.2" font-family="Helvetica,sans-Serif" font-weight="bold" font-size="11.00">public.projects</text>
<text text-anchor="start" x="131" y="-103.2" font-family="Helvetica,sans-Serif" font-size="11.00">[table]</text>
<polygon fill="none" stroke="black" points="8,-73 8,-95 170,-95 170,-73 8,-73"/>
<image xlink:href="../../images/foreignKeys.png" width="11px" height="12px" preserveAspectRatio="xMinYMin meet" x="13" y="-90"/>
<text text-anchor="start" x="28" y="-81.2" font-family="Helvetica,sans-Serif" font-size="11.00">phase_id</text>
<polygon fill="none" stroke="black" points="8,-55 8,-73 170,-73 170,-55 8,-55"/>
<text text-anchor="start" x="11" y="-61.2" font-family="Helvetica,sans-Serif" font-size="11.00">...</text>
<polygon fill="#ffffff" stroke="transparent" points="8,-37 8,-55 66,-55 66,-37 8,-37"/>
<polygon fill="none" stroke="black" points="8,-37 8,-55 66,-55 66,-37 8,-37"/>
<text text-anchor="start" x="11" y="-43.2" font-family="Helvetica,sans-Serif" font-size="11.00">&lt; 1</text>
<polygon fill="#ffffff" stroke="transparent" points="66,-37 66,-55 124,-55 124,-37 66,-37"/>
<polygon fill="none" stroke="black" points="66,-37 66,-55 124,-55 124,-37 66,-37"/>
<text text-anchor="start" x="87" y="-43.2" font-family="Helvetica,sans-Serif" font-size="11.00">0 rows</text>
<polygon fill="#ffffff" stroke="transparent" points="124,-37 124,-55 170,-55 170,-37 124,-37"/>
<polygon fill="none" stroke="black" points="124,-37 124,-55 170,-55 170,-37 124,-37"/>
<text text-anchor="start" x="145" y="-43.2" font-family="Helvetica,sans-Serif" font-size="11.00">22 &gt;</text>
</a>
</g>
</g>
<!-- event_projects&#45;&gt;public.projects -->
<g id="edge2" class="edge">
<title>event_projects:w&#45;&gt;public.projects:e</title>
<path fill="none" stroke="black" d="M206.07,-171.22C193.96,-162.73 194.97,-141.82 178,-128 175.12,-125.66 172.13,-123.36 169.05,-121.11"/>
<polygon fill="black" stroke="black" points="212.28,-172.91 219.06,-178.47 216.14,-173.95 220,-175 220,-175 220,-175 216.14,-173.95 220.94,-171.53 212.28,-172.91 212.28,-172.91"/>
<ellipse fill="none" stroke="black" cx="209.19" cy="-172.07" rx="3.2" ry="3.2"/>
</g>
</g>
</svg>
