<?xml version="1.0" encoding="UTF-8" standalone="no"?>
<!DOCTYPE svg PUBLIC "-//W3C//DTD SVG 1.1//EN"
 "http://www.w3.org/Graphics/SVG/1.1/DTD/svg11.dtd">
<!-- Generated by graphviz version 2.38.0 (20140413.2041)
 -->
<!-- Title: twoDegreesRelationshipsDiagram Pages: 1 -->
<svg width="1075pt" height="717pt"
 viewBox="0.00 0.00 1075.00 717.00" xmlns="http://www.w3.org/2000/svg" xmlns:xlink="http://www.w3.org/1999/xlink">
<g id="graph0" class="graph" transform="scale(1 1) rotate(0) translate(4 713)">
<title>twoDegreesRelationshipsDiagram</title>
<polygon fill="#ffffff" stroke="none" points="-4,4 -4,-713 1071,-713 1071,4 -4,4"/>
<text text-anchor="middle" x="74.5" y="-7.2" font-family="Helvetica,sans-Serif" font-size="11.00">Generated by SchemaSpy</text>
<!-- cohort_modules -->
<g id="node1" class="node"><title>cohort_modules</title>
<g id="a_node1"><a xlink:href="../../tables/cohort_modules.html" xlink:title="cohort_modules" target="_top">
<polygon fill="#ffffff" stroke="none" points="448,-358 448,-504 587,-504 587,-358 448,-358"/>
<polygon fill="#f5f5f5" stroke="none" points="448.5,-482 448.5,-504 587.5,-504 587.5,-482 448.5,-482"/>
<polygon fill="none" stroke="black" points="448.5,-482 448.5,-504 587.5,-504 587.5,-482 448.5,-482"/>
<text text-anchor="start" x="453.5" y="-491.2" font-family="Helvetica,sans-Serif" font-weight="bold" font-size="11.00">cohort_modules</text>
<text text-anchor="start" x="548.5" y="-490.2" font-family="Helvetica,sans-Serif" font-size="11.00">[table]</text>
<polygon fill="none" stroke="black" points="448.5,-460 448.5,-482 587.5,-482 587.5,-460 448.5,-460"/>
<image xlink:href="../../images/primaryKeys.png" width="11px" height="12px" preserveAspectRatio="xMinYMin meet" x="453.5" y="-477"/>
<text text-anchor="start" x="480.5" y="-468.2" font-family="Helvetica,sans-Serif" font-size="11.00">id</text>
<polygon fill="#ffffff" stroke="none" points="448.5,-438 448.5,-460 587.5,-460 587.5,-438 448.5,-438"/>
<polygon fill="none" stroke="black" points="448.5,-438 448.5,-460 587.5,-460 587.5,-438 448.5,-438"/>
<image xlink:href="../../images/foreignKeys.png" width="11px" height="12px" preserveAspectRatio="xMinYMin meet" x="453.5" y="-455"/>
<text text-anchor="start" x="480.5" y="-446.2" font-family="Helvetica,sans-Serif" font-size="11.00">cohort_id</text>
<polygon fill="none" stroke="black" points="448.5,-416 448.5,-438 587.5,-438 587.5,-416 448.5,-416"/>
<image xlink:href="../../images/foreignKeys.png" width="11px" height="12px" preserveAspectRatio="xMinYMin meet" x="453.5" y="-433"/>
<text text-anchor="start" x="480.5" y="-424.2" font-family="Helvetica,sans-Serif" font-size="11.00">module_id</text>
<polygon fill="#ffffff" stroke="none" points="448.5,-394 448.5,-416 587.5,-416 587.5,-394 448.5,-394"/>
<polygon fill="none" stroke="black" points="448.5,-394 448.5,-416 587.5,-416 587.5,-394 448.5,-394"/>
<text text-anchor="start" x="480.5" y="-402.2" font-family="Helvetica,sans-Serif" font-size="11.00">start_date</text>
<polygon fill="none" stroke="black" points="448.5,-376 448.5,-394 587.5,-394 587.5,-376 448.5,-376"/>
<text text-anchor="start" x="451.5" y="-382.2" font-family="Helvetica,sans-Serif" font-size="11.00">...</text>
<polygon fill="#ffffff" stroke="none" points="448.5,-358 448.5,-376 501.5,-376 501.5,-358 448.5,-358"/>
<polygon fill="none" stroke="black" points="448.5,-358 448.5,-376 501.5,-376 501.5,-358 448.5,-358"/>
<text text-anchor="start" x="451.5" y="-364.2" font-family="Helvetica,sans-Serif" font-size="11.00">&lt; 2</text>
<polygon fill="#ffffff" stroke="none" points="501.5,-358 501.5,-376 558.5,-376 558.5,-358 501.5,-358"/>
<polygon fill="none" stroke="black" points="501.5,-358 501.5,-376 558.5,-376 558.5,-358 501.5,-358"/>
<text text-anchor="start" x="519.5" y="-364.2" font-family="Helvetica,sans-Serif" font-size="11.00">0 rows</text>
<polygon fill="#ffffff" stroke="none" points="558.5,-358 558.5,-376 587.5,-376 587.5,-358 558.5,-358"/>
<polygon fill="none" stroke="black" points="558.5,-358 558.5,-376 587.5,-376 587.5,-358 558.5,-358"/>
<text text-anchor="start" x="577.5" y="-364.2" font-family="Helvetica,sans-Serif" font-size="11.00"> &#160;</text>
</a>
</g>
</g>
<!-- cohorts -->
<g id="node2" class="node"><title>cohorts</title>
<g id="a_node2"><a xlink:href="../../tables/cohorts.html" xlink:title="cohorts" target="_top">
<polygon fill="#ffffff" stroke="none" points="236,-452 236,-510 327,-510 327,-452 236,-452"/>
<polygon fill="#f5f5f5" stroke="none" points="236.5,-488 236.5,-510 327.5,-510 327.5,-488 236.5,-488"/>
<polygon fill="none" stroke="black" points="236.5,-488 236.5,-510 327.5,-510 327.5,-488 236.5,-488"/>
<text text-anchor="start" x="241.5" y="-497.2" font-family="Helvetica,sans-Serif" font-weight="bold" font-size="11.00">cohorts</text>
<text text-anchor="start" x="288.5" y="-496.2" font-family="Helvetica,sans-Serif" font-size="11.00">[table]</text>
<polygon fill="none" stroke="black" points="236.5,-470 236.5,-488 327.5,-488 327.5,-470 236.5,-470"/>
<text text-anchor="start" x="239.5" y="-476.2" font-family="Helvetica,sans-Serif" font-size="11.00">...</text>
<polygon fill="#ffffff" stroke="none" points="236.5,-452 236.5,-470 260.5,-470 260.5,-452 236.5,-452"/>
<polygon fill="none" stroke="black" points="236.5,-452 236.5,-470 260.5,-470 260.5,-452 236.5,-452"/>
<text text-anchor="start" x="239.5" y="-458.2" font-family="Helvetica,sans-Serif" font-size="11.00">&lt; 3</text>
<polygon fill="#ffffff" stroke="none" points="260.5,-452 260.5,-470 303.5,-470 303.5,-452 260.5,-452"/>
<polygon fill="none" stroke="black" points="260.5,-452 260.5,-470 303.5,-470 303.5,-452 260.5,-452"/>
<text text-anchor="start" x="264.5" y="-458.2" font-family="Helvetica,sans-Serif" font-size="11.00">0 rows</text>
<polygon fill="#ffffff" stroke="none" points="303.5,-452 303.5,-470 327.5,-470 327.5,-452 303.5,-452"/>
<polygon fill="none" stroke="black" points="303.5,-452 303.5,-470 327.5,-470 327.5,-452 303.5,-452"/>
<text text-anchor="start" x="307.5" y="-458.2" font-family="Helvetica,sans-Serif" font-size="11.00">2 &gt;</text>
</a>
</g>
</g>
<!-- cohort_modules&#45;&gt;cohorts -->
<g id="edge1" class="edge"><title>cohort_modules:cohort_id:w&#45;&gt;cohorts:elipses:e</title>
<path fill="none" stroke="black" d="M432.988,-449.772C390.65,-454.467 377.824,-479 328.5,-479"/>
<polygon fill="black" stroke="black" points="439.511,-449.425 447.691,-452.595 443.506,-449.212 447.5,-449 447.5,-449 447.5,-449 443.506,-449.212 447.309,-445.405 439.511,-449.425 439.511,-449.425"/>
<ellipse fill="none" stroke="black" cx="436.316" cy="-449.595" rx="3.2" ry="3.2"/>
</g>
<!-- modules -->
<g id="node3" class="node"><title>modules</title>
<g id="a_node3"><a xlink:href="../../tables/modules.html" xlink:title="modules" target="_top">
<polygon fill="#ffffff" stroke="none" points="175,-255 175,-431 388,-431 388,-255 175,-255"/>
<polygon fill="#f5f5f5" stroke="none" points="177.5,-407 177.5,-429 386.5,-429 386.5,-407 177.5,-407"/>
<polygon fill="none" stroke="black" points="177.5,-407 177.5,-429 386.5,-429 386.5,-407 177.5,-407"/>
<text text-anchor="start" x="182.5" y="-416.2" font-family="Helvetica,sans-Serif" font-weight="bold" font-size="11.00">modules</text>
<text text-anchor="start" x="347.5" y="-415.2" font-family="Helvetica,sans-Serif" font-size="11.00">[table]</text>
<polygon fill="none" stroke="black" points="177.5,-385 177.5,-407 284.5,-407 284.5,-385 177.5,-385"/>
<image xlink:href="../../images/primaryKeys.png" width="11px" height="12px" preserveAspectRatio="xMinYMin meet" x="182.5" y="-402"/>
<text text-anchor="start" x="197.5" y="-393.2" font-family="Helvetica,sans-Serif" font-size="11.00">id</text>
<polygon fill="none" stroke="black" points="284.5,-385 284.5,-407 386.5,-407 386.5,-385 284.5,-385"/>
<text text-anchor="start" x="287.5" y="-393.2" font-family="Helvetica,sans-Serif" font-size="11.00">int8[19]</text>
<polygon fill="none" stroke="black" points="177.5,-363 177.5,-385 284.5,-385 284.5,-363 177.5,-363"/>
<text text-anchor="start" x="197.5" y="-371.2" font-family="Helvetica,sans-Serif" font-size="11.00">name</text>
<polygon fill="none" stroke="black" points="284.5,-363 284.5,-385 386.5,-385 386.5,-363 284.5,-363"/>
<text text-anchor="start" x="287.5" y="-371.2" font-family="Helvetica,sans-Serif" font-size="11.00">text[2147483647]</text>
<polygon fill="none" stroke="black" points="177.5,-341 177.5,-363 284.5,-363 284.5,-341 177.5,-341"/>
<image xlink:href="../../images/foreignKeys.png" width="11px" height="12px" preserveAspectRatio="xMinYMin meet" x="182.5" y="-358"/>
<text text-anchor="start" x="197.5" y="-349.2" font-family="Helvetica,sans-Serif" font-size="11.00">created_by</text>
<polygon fill="none" stroke="black" points="284.5,-341 284.5,-363 386.5,-363 386.5,-341 284.5,-341"/>
<text text-anchor="start" x="287.5" y="-349.2" font-family="Helvetica,sans-Serif" font-size="11.00">int8[19]</text>
<polygon fill="none" stroke="black" points="177.5,-319 177.5,-341 284.5,-341 284.5,-319 177.5,-319"/>
<text text-anchor="start" x="197.5" y="-327.2" font-family="Helvetica,sans-Serif" font-size="11.00">created_time</text>
<polygon fill="none" stroke="black" points="284.5,-319 284.5,-341 386.5,-341 386.5,-319 284.5,-319"/>
<text text-anchor="start" x="287.5" y="-327.2" font-family="Helvetica,sans-Serif" font-size="11.00">timestamptz[35,6]</text>
<polygon fill="none" stroke="black" points="177.5,-297 177.5,-319 284.5,-319 284.5,-297 177.5,-297"/>
<image xlink:href="../../images/foreignKeys.png" width="11px" height="12px" preserveAspectRatio="xMinYMin meet" x="182.5" y="-314"/>
<text text-anchor="start" x="197.5" y="-305.2" font-family="Helvetica,sans-Serif" font-size="11.00">modified_by</text>
<polygon fill="none" stroke="black" points="284.5,-297 284.5,-319 386.5,-319 386.5,-297 284.5,-297"/>
<text text-anchor="start" x="287.5" y="-305.2" font-family="Helvetica,sans-Serif" font-size="11.00">int8[19]</text>
<polygon fill="none" stroke="black" points="177.5,-275 177.5,-297 284.5,-297 284.5,-275 177.5,-275"/>
<text text-anchor="start" x="197.5" y="-283.2" font-family="Helvetica,sans-Serif" font-size="11.00">modified_time</text>
<polygon fill="none" stroke="black" points="284.5,-275 284.5,-297 386.5,-297 386.5,-275 284.5,-275"/>
<text text-anchor="start" x="287.5" y="-283.2" font-family="Helvetica,sans-Serif" font-size="11.00">timestamptz[35,6]</text>
<polygon fill="#ffffff" stroke="none" points="177.5,-257 177.5,-275 221.5,-275 221.5,-257 177.5,-257"/>
<polygon fill="none" stroke="black" points="177.5,-257 177.5,-275 221.5,-275 221.5,-257 177.5,-257"/>
<text text-anchor="start" x="180.5" y="-263.2" font-family="Helvetica,sans-Serif" font-size="11.00">&lt; 2</text>
<polygon fill="#ffffff" stroke="none" points="221.5,-257 221.5,-275 284.5,-275 284.5,-257 221.5,-257"/>
<polygon fill="none" stroke="black" points="221.5,-257 221.5,-275 284.5,-275 284.5,-257 221.5,-257"/>
<text text-anchor="start" x="245.5" y="-263.2" font-family="Helvetica,sans-Serif" font-size="11.00">0 rows</text>
<polygon fill="#ffffff" stroke="none" points="284.5,-257 284.5,-275 386.5,-275 386.5,-257 284.5,-257"/>
<polygon fill="none" stroke="black" points="284.5,-257 284.5,-275 386.5,-275 386.5,-257 284.5,-257"/>
<text text-anchor="start" x="366.5" y="-263.2" font-family="Helvetica,sans-Serif" font-size="11.00">2 &gt;</text>
<polygon fill="none" stroke="black" stroke-width="2" points="176,-256 176,-430 387,-430 387,-256 176,-256"/>
</a>
</g>
</g>
<!-- cohort_modules&#45;&gt;modules -->
<g id="edge2" class="edge"><title>cohort_modules:module_id:w&#45;&gt;modules:id.type:e</title>
<path fill="none" stroke="black" d="M432.904,-423.914C416.35,-416.073 411.653,-396 387.5,-396"/>
<polygon fill="black" stroke="black" points="439.673,-425.345 446.755,-430.522 443.586,-426.173 447.5,-427 447.5,-427 447.5,-427 443.586,-426.173 448.245,-423.478 439.673,-425.345 439.673,-425.345"/>
<ellipse fill="none" stroke="black" cx="436.542" cy="-424.683" rx="3.2" ry="3.2"/>
</g>
<!-- public.users -->
<g id="node4" class="node"><title>public.users</title>
<g id="a_node4"><a xlink:href="../../../public/tables/users.html" xlink:title="public.users" target="_top">
<polygon fill="#ffffff" stroke="none" points="8,-529 8,-587 126,-587 126,-529 8,-529"/>
<polygon fill="#f5f5f5" stroke="none" points="8,-565 8,-587 126,-587 126,-565 8,-565"/>
<polygon fill="none" stroke="black" points="8,-565 8,-587 126,-587 126,-565 8,-565"/>
<text text-anchor="start" x="13" y="-574.2" font-family="Helvetica,sans-Serif" font-weight="bold" font-size="11.00">public.users</text>
<text text-anchor="start" x="87" y="-573.2" font-family="Helvetica,sans-Serif" font-size="11.00">[table]</text>
<polygon fill="none" stroke="black" points="8,-547 8,-565 126,-565 126,-547 8,-547"/>
<text text-anchor="start" x="11" y="-553.2" font-family="Helvetica,sans-Serif" font-size="11.00">...</text>
<polygon fill="#ffffff" stroke="none" points="8,-529 8,-547 37,-547 37,-529 8,-529"/>
<polygon fill="none" stroke="black" points="8,-529 8,-547 37,-547 37,-529 8,-529"/>
<text text-anchor="start" x="11" y="-535.2" font-family="Helvetica,sans-Serif" font-size="11.00"> &#160;</text>
<polygon fill="#ffffff" stroke="none" points="37,-529 37,-547 87,-547 87,-529 37,-529"/>
<polygon fill="none" stroke="black" points="37,-529 37,-547 87,-547 87,-529 37,-529"/>
<text text-anchor="start" x="48" y="-535.2" font-family="Helvetica,sans-Serif" font-size="11.00">0 rows</text>
<polygon fill="#ffffff" stroke="none" points="87,-529 87,-547 126,-547 126,-529 87,-529"/>
<polygon fill="none" stroke="black" points="87,-529 87,-547 126,-547 126,-529 87,-529"/>
<text text-anchor="start" x="99" y="-535.2" font-family="Helvetica,sans-Serif" font-size="11.00">14 &gt;</text>
</a>
</g>
</g>
<!-- cohorts&#45;&gt;public.users -->
<g id="edge3" class="edge"><title>cohorts:elipses:w&#45;&gt;public.users:id:e</title>
<path fill="none" stroke="black" d="M220.932,-478.793C177.056,-480.643 133.835,-503.982 104.595,-524.907"/>
<polygon fill="black" stroke="black" points="227.501,-478.886 235.449,-482.6 231.5,-478.943 235.5,-479 235.5,-479 235.5,-479 231.5,-478.943 235.551,-475.4 227.501,-478.886 227.501,-478.886"/>
<ellipse fill="none" stroke="black" cx="224.301" cy="-478.841" rx="3.2" ry="3.2"/>
</g>
<!-- cohorts&#45;&gt;public.users -->
<g id="edge4" class="edge"><title>cohorts:elipses:w&#45;&gt;public.users:id:e</title>
<path fill="none" stroke="black" d="M220.737,-480.992C183.682,-487.759 147.109,-507.197 119.045,-524.905"/>
<polygon fill="black" stroke="black" points="227.572,-480.07 235.981,-482.568 231.536,-479.535 235.5,-479 235.5,-479 235.5,-479 231.536,-479.535 235.019,-475.432 227.572,-480.07 227.572,-480.07"/>
<ellipse fill="none" stroke="black" cx="224.401" cy="-480.497" rx="3.2" ry="3.2"/>
</g>
<!-- modules&#45;&gt;public.users -->
<g id="edge13" class="edge"><title>modules:created_by:w&#45;&gt;public.users:id:e</title>
<path fill="none" stroke="black" d="M161.833,-353.467C96.3912,-366.981 76.4726,-470.538 70.5006,-524.903"/>
<polygon fill="black" stroke="black" points="168.54,-352.796 176.858,-355.582 172.52,-352.398 176.5,-352 176.5,-352 176.5,-352 172.52,-352.398 176.142,-348.418 168.54,-352.796 168.54,-352.796"/>
<ellipse fill="none" stroke="black" cx="165.356" cy="-353.115" rx="3.2" ry="3.2"/>
</g>
<!-- modules&#45;&gt;public.users -->
<g id="edge14" class="edge"><title>modules:modified_by:w&#45;&gt;public.users:id:e</title>
<path fill="none" stroke="black" d="M162.121,-309.252C81.6036,-323.751 69.137,-460.45 67.769,-524.802"/>
<polygon fill="black" stroke="black" points="168.53,-308.694 176.812,-311.586 172.515,-308.347 176.5,-308 176.5,-308 176.5,-308 172.515,-308.347 176.188,-304.414 168.53,-308.694 168.53,-308.694"/>
<ellipse fill="none" stroke="black" cx="165.342" cy="-308.972" rx="3.2" ry="3.2"/>
</g>
<!-- deliverable_documents -->
<g id="node5" class="node"><title>deliverable_documents</title>
<g id="a_node5"><a xlink:href="../../tables/deliverable_documents.html" xlink:title="deliverable_documents" target="_top">
<polygon fill="#ffffff" stroke="none" points="647,-191 647,-249 829,-249 829,-191 647,-191"/>
<polygon fill="#f5f5f5" stroke="none" points="647,-227 647,-249 829,-249 829,-227 647,-227"/>
<polygon fill="none" stroke="black" points="647,-227 647,-249 829,-249 829,-227 647,-227"/>
<text text-anchor="start" x="652" y="-236.2" font-family="Helvetica,sans-Serif" font-weight="bold" font-size="11.00">deliverable_documents</text>
<text text-anchor="start" x="790" y="-235.2" font-family="Helvetica,sans-Serif" font-size="11.00">[table]</text>
<polygon fill="none" stroke="black" points="647,-209 647,-227 829,-227 829,-209 647,-209"/>
<text text-anchor="start" x="650" y="-215.2" font-family="Helvetica,sans-Serif" font-size="11.00">...</text>
<polygon fill="#ffffff" stroke="none" points="647,-191 647,-209 722,-209 722,-191 647,-191"/>
<polygon fill="none" stroke="black" points="647,-191 647,-209 722,-209 722,-191 647,-191"/>
<text text-anchor="start" x="650" y="-197.2" font-family="Helvetica,sans-Serif" font-size="11.00">&lt; 3</text>
<polygon fill="#ffffff" stroke="none" points="722,-191 722,-209 790,-209 790,-191 722,-191"/>
<polygon fill="none" stroke="black" points="722,-191 722,-209 790,-209 790,-191 722,-191"/>
<text text-anchor="start" x="751" y="-197.2" font-family="Helvetica,sans-Serif" font-size="11.00">0 rows</text>
<polygon fill="#ffffff" stroke="none" points="790,-191 790,-209 829,-209 829,-191 790,-191"/>
<polygon fill="none" stroke="black" points="790,-191 790,-209 829,-209 829,-191 790,-191"/>
<text text-anchor="start" x="819" y="-197.2" font-family="Helvetica,sans-Serif" font-size="11.00"> &#160;</text>
</a>
</g>
</g>
<!-- deliverables -->
<g id="node6" class="node"><title>deliverables</title>
<g id="a_node6"><a xlink:href="../../tables/deliverables.html" xlink:title="deliverables" target="_top">
<polygon fill="#ffffff" stroke="none" points="437,-83 437,-295 598,-295 598,-83 437,-83"/>
<polygon fill="#f5f5f5" stroke="none" points="437.5,-273 437.5,-295 598.5,-295 598.5,-273 437.5,-273"/>
<polygon fill="none" stroke="black" points="437.5,-273 437.5,-295 598.5,-295 598.5,-273 437.5,-273"/>
<text text-anchor="start" x="442.5" y="-282.2" font-family="Helvetica,sans-Serif" font-weight="bold" font-size="11.00">deliverables</text>
<text text-anchor="start" x="559.5" y="-281.2" font-family="Helvetica,sans-Serif" font-size="11.00">[table]</text>
<polygon fill="none" stroke="black" points="437.5,-251 437.5,-273 598.5,-273 598.5,-251 437.5,-251"/>
<image xlink:href="../../images/primaryKeys.png" width="11px" height="12px" preserveAspectRatio="xMinYMin meet" x="442.5" y="-268"/>
<text text-anchor="start" x="457.5" y="-259.2" font-family="Helvetica,sans-Serif" font-size="11.00">id</text>
<polygon fill="none" stroke="black" points="437.5,-229 437.5,-251 598.5,-251 598.5,-229 437.5,-229"/>
<image xlink:href="../../images/foreignKeys.png" width="11px" height="12px" preserveAspectRatio="xMinYMin meet" x="442.5" y="-246"/>
<text text-anchor="start" x="457.5" y="-237.2" font-family="Helvetica,sans-Serif" font-size="11.00">deliverable_category_id</text>
<polygon fill="#ffffff" stroke="none" points="437.5,-207 437.5,-229 598.5,-229 598.5,-207 437.5,-207"/>
<polygon fill="none" stroke="black" points="437.5,-207 437.5,-229 598.5,-229 598.5,-207 437.5,-207"/>
<image xlink:href="../../images/foreignKeys.png" width="11px" height="12px" preserveAspectRatio="xMinYMin meet" x="442.5" y="-224"/>
<text text-anchor="start" x="457.5" y="-215.2" font-family="Helvetica,sans-Serif" font-size="11.00">deliverable_type_id</text>
<polygon fill="#ffffff" stroke="none" points="437.5,-185 437.5,-207 598.5,-207 598.5,-185 437.5,-185"/>
<polygon fill="none" stroke="black" points="437.5,-185 437.5,-207 598.5,-207 598.5,-185 437.5,-185"/>
<image xlink:href="../../images/foreignKeys.png" width="11px" height="12px" preserveAspectRatio="xMinYMin meet" x="442.5" y="-202"/>
<text text-anchor="start" x="457.5" y="-193.2" font-family="Helvetica,sans-Serif" font-size="11.00">module_id</text>
<polygon fill="#ffffff" stroke="none" points="437.5,-163 437.5,-185 598.5,-185 598.5,-163 437.5,-163"/>
<polygon fill="none" stroke="black" points="437.5,-163 437.5,-185 598.5,-185 598.5,-163 437.5,-163"/>
<text text-anchor="start" x="457.5" y="-171.2" font-family="Helvetica,sans-Serif" font-size="11.00">position</text>
<polygon fill="none" stroke="black" points="437.5,-141 437.5,-163 598.5,-163 598.5,-141 437.5,-141"/>
<image xlink:href="../../images/foreignKeys.png" width="11px" height="12px" preserveAspectRatio="xMinYMin meet" x="442.5" y="-158"/>
<text text-anchor="start" x="457.5" y="-149.2" font-family="Helvetica,sans-Serif" font-size="11.00">created_by</text>
<polygon fill="none" stroke="black" points="437.5,-119 437.5,-141 598.5,-141 598.5,-119 437.5,-119"/>
<image xlink:href="../../images/foreignKeys.png" width="11px" height="12px" preserveAspectRatio="xMinYMin meet" x="442.5" y="-136"/>
<text text-anchor="start" x="457.5" y="-127.2" font-family="Helvetica,sans-Serif" font-size="11.00">modified_by</text>
<polygon fill="none" stroke="black" points="437.5,-101 437.5,-119 598.5,-119 598.5,-101 437.5,-101"/>
<text text-anchor="start" x="440.5" y="-107.2" font-family="Helvetica,sans-Serif" font-size="11.00">...</text>
<polygon fill="#ffffff" stroke="none" points="437.5,-83 437.5,-101 496.5,-101 496.5,-83 437.5,-83"/>
<polygon fill="none" stroke="black" points="437.5,-83 437.5,-101 496.5,-101 496.5,-83 437.5,-83"/>
<text text-anchor="start" x="440.5" y="-89.2" font-family="Helvetica,sans-Serif" font-size="11.00">&lt; 5</text>
<polygon fill="#ffffff" stroke="none" points="496.5,-83 496.5,-101 556.5,-101 556.5,-83 496.5,-83"/>
<polygon fill="none" stroke="black" points="496.5,-83 496.5,-101 556.5,-101 556.5,-83 496.5,-83"/>
<text text-anchor="start" x="517.5" y="-89.2" font-family="Helvetica,sans-Serif" font-size="11.00">0 rows</text>
<polygon fill="#ffffff" stroke="none" points="556.5,-83 556.5,-101 598.5,-101 598.5,-83 556.5,-83"/>
<polygon fill="none" stroke="black" points="556.5,-83 556.5,-101 598.5,-101 598.5,-83 556.5,-83"/>
<text text-anchor="start" x="578.5" y="-89.2" font-family="Helvetica,sans-Serif" font-size="11.00">3 &gt;</text>
</a>
</g>
</g>
<!-- deliverable_documents&#45;&gt;deliverables -->
<g id="edge5" class="edge"><title>deliverable_documents:elipses:w&#45;&gt;deliverables:id:e</title>
<path fill="none" stroke="black" d="M635.644,-220.621C619.78,-230.093 623.729,-262 599.5,-262"/>
<polygon fill="black" stroke="black" points="644.243,-214.319 646.206,-222.074 644.655,-222.467 642.692,-214.711 644.243,-214.319"/>
<polyline fill="none" stroke="black" points="646,-218 642.122,-218.981 "/>
<ellipse fill="none" stroke="black" cx="639.02" cy="-219.766" rx="3.20001" ry="3.20001"/>
</g>
<!-- deliverable_documents&#45;&gt;deliverables -->
<g id="edge7" class="edge"><title>deliverable_documents:elipses:w&#45;&gt;deliverables:deliverable_type_id:e</title>
<path fill="none" stroke="black" d="M631.551,-218C621.201,-218 614.354,-218 599.5,-218"/>
<polygon fill="black" stroke="black" points="638,-218 646,-221.6 642,-218 646,-218 646,-218 646,-218 642,-218 646,-214.4 638,-218 638,-218"/>
<ellipse fill="none" stroke="black" cx="634.8" cy="-218" rx="3.2" ry="3.2"/>
</g>
<!-- deliverable_types -->
<g id="node7" class="node"><title>deliverable_types</title>
<g id="a_node7"><a xlink:href="../../tables/deliverable_types.html" xlink:title="deliverable_types" target="_top">
<polygon fill="#ffffff" stroke="none" points="206.5,-37 206.5,-95 356.5,-95 356.5,-37 206.5,-37"/>
<polygon fill="#f5f5f5" stroke="none" points="206.5,-73 206.5,-95 356.5,-95 356.5,-73 206.5,-73"/>
<polygon fill="none" stroke="black" points="206.5,-73 206.5,-95 356.5,-95 356.5,-73 206.5,-73"/>
<text text-anchor="start" x="211.5" y="-82.2" font-family="Helvetica,sans-Serif" font-weight="bold" font-size="11.00">deliverable_types</text>
<text text-anchor="start" x="317.5" y="-81.2" font-family="Helvetica,sans-Serif" font-size="11.00">[table]</text>
<polygon fill="none" stroke="black" points="206.5,-55 206.5,-73 356.5,-73 356.5,-55 206.5,-55"/>
<text text-anchor="start" x="209.5" y="-61.2" font-family="Helvetica,sans-Serif" font-size="11.00">...</text>
<polygon fill="#ffffff" stroke="none" points="206.5,-37 206.5,-55 257.5,-55 257.5,-37 206.5,-37"/>
<polygon fill="none" stroke="black" points="206.5,-37 206.5,-55 257.5,-55 257.5,-37 206.5,-37"/>
<text text-anchor="start" x="209.5" y="-43.2" font-family="Helvetica,sans-Serif" font-size="11.00"> &#160;</text>
<polygon fill="#ffffff" stroke="none" points="257.5,-37 257.5,-55 313.5,-55 313.5,-37 257.5,-37"/>
<polygon fill="none" stroke="black" points="257.5,-37 257.5,-55 313.5,-55 313.5,-37 257.5,-37"/>
<text text-anchor="start" x="279.5" y="-43.2" font-family="Helvetica,sans-Serif" font-size="11.00">1 row</text>
<polygon fill="#ffffff" stroke="none" points="313.5,-37 313.5,-55 356.5,-55 356.5,-37 313.5,-37"/>
<polygon fill="none" stroke="black" points="313.5,-37 313.5,-55 356.5,-55 356.5,-37 313.5,-37"/>
<text text-anchor="start" x="336.5" y="-43.2" font-family="Helvetica,sans-Serif" font-size="11.00">2 &gt;</text>
</a>
</g>
</g>
<!-- deliverable_documents&#45;&gt;deliverable_types -->
<g id="edge6" class="edge"><title>deliverable_documents:elipses:w&#45;&gt;deliverable_types:elipses:e</title>
<path fill="none" stroke="black" d="M631.742,-215.794C591.507,-200.53 654.288,-110.083 606,-72 519.235,-3.57214 468.002,-64 357.5,-64"/>
<polygon fill="black" stroke="black" points="638.094,-216.777 645.45,-221.558 642.047,-217.388 646,-218 646,-218 646,-218 642.047,-217.388 646.55,-214.442 638.094,-216.777 638.094,-216.777"/>
<ellipse fill="none" stroke="black" cx="634.932" cy="-216.288" rx="3.2" ry="3.2"/>
</g>
<!-- deliverables&#45;&gt;modules -->
<g id="edge12" class="edge"><title>deliverables:module_id:w&#45;&gt;modules:id.type:e</title>
<path fill="none" stroke="black" d="M421.873,-198.246C360.856,-220.219 473.298,-396 387.5,-396"/>
<polygon fill="black" stroke="black" points="428.593,-197.214 437.046,-199.558 432.546,-196.607 436.5,-196 436.5,-196 436.5,-196 432.546,-196.607 435.954,-192.442 428.593,-197.214 428.593,-197.214"/>
<ellipse fill="none" stroke="black" cx="425.43" cy="-197.7" rx="3.2" ry="3.2"/>
</g>
<!-- deliverables&#45;&gt;public.users -->
<g id="edge8" class="edge"><title>deliverables:created_by:w&#45;&gt;public.users:id:e</title>
<path fill="none" stroke="black" d="M421.967,-151.642C353.571,-148.718 210.038,-129.759 167,-165 110.792,-211.025 80.8469,-438.512 71.3683,-524.764"/>
<polygon fill="black" stroke="black" points="428.502,-151.803 436.411,-155.599 432.501,-151.901 436.5,-152 436.5,-152 436.5,-152 432.501,-151.901 436.589,-148.401 428.502,-151.803 428.502,-151.803"/>
<ellipse fill="none" stroke="black" cx="425.303" cy="-151.724" rx="3.2" ry="3.2"/>
</g>
<!-- deliverables&#45;&gt;public.users -->
<g id="edge11" class="edge"><title>deliverables:modified_by:w&#45;&gt;public.users:id:e</title>
<path fill="none" stroke="black" d="M421.969,-129.61C353.57,-126.421 209.913,-105.636 167,-141 107.281,-190.213 79.2497,-434.74 70.8377,-524.708"/>
<polygon fill="black" stroke="black" points="428.503,-129.785 436.403,-133.599 432.501,-129.893 436.5,-130 436.5,-130 436.5,-130 432.501,-129.893 436.597,-126.401 428.503,-129.785 428.503,-129.785"/>
<ellipse fill="none" stroke="black" cx="425.304" cy="-129.699" rx="3.2" ry="3.2"/>
</g>
<!-- deliverables&#45;&gt;deliverable_types -->
<g id="edge10" class="edge"><title>deliverables:deliverable_type_id:w&#45;&gt;deliverable_types:elipses:e</title>
<path fill="none" stroke="black" d="M422.086,-215.704C369.601,-196.546 428.866,-64 357.5,-64"/>
<polygon fill="black" stroke="black" points="428.6,-216.741 435.934,-221.555 432.55,-217.371 436.5,-218 436.5,-218 436.5,-218 432.55,-217.371 437.066,-214.445 428.6,-216.741 428.6,-216.741"/>
<ellipse fill="none" stroke="black" cx="425.44" cy="-216.238" rx="3.2" ry="3.2"/>
</g>
<!-- deliverable_categories -->
<g id="node8" class="node"><title>deliverable_categories</title>
<g id="a_node8"><a xlink:href="../../tables/deliverable_categories.html" xlink:title="deliverable_categories" target="_top">
<polygon fill="#ffffff" stroke="none" points="193,-176 193,-234 370,-234 370,-176 193,-176"/>
<polygon fill="#f5f5f5" stroke="none" points="193.5,-212 193.5,-234 370.5,-234 370.5,-212 193.5,-212"/>
<polygon fill="none" stroke="black" points="193.5,-212 193.5,-234 370.5,-234 370.5,-212 193.5,-212"/>
<text text-anchor="start" x="198.5" y="-221.2" font-family="Helvetica,sans-Serif" font-weight="bold" font-size="11.00">deliverable_categories</text>
<text text-anchor="start" x="331.5" y="-220.2" font-family="Helvetica,sans-Serif" font-size="11.00">[table]</text>
<polygon fill="none" stroke="black" points="193.5,-194 193.5,-212 370.5,-212 370.5,-194 193.5,-194"/>
<text text-anchor="start" x="196.5" y="-200.2" font-family="Helvetica,sans-Serif" font-size="11.00">...</text>
<polygon fill="#ffffff" stroke="none" points="193.5,-176 193.5,-194 255.5,-194 255.5,-176 193.5,-176"/>
<polygon fill="none" stroke="black" points="193.5,-176 193.5,-194 255.5,-194 255.5,-176 193.5,-176"/>
<text text-anchor="start" x="196.5" y="-182.2" font-family="Helvetica,sans-Serif" font-size="11.00"> &#160;</text>
<polygon fill="#ffffff" stroke="none" points="255.5,-176 255.5,-194 322.5,-194 322.5,-176 255.5,-176"/>
<polygon fill="none" stroke="black" points="255.5,-176 255.5,-194 322.5,-194 322.5,-176 255.5,-176"/>
<text text-anchor="start" x="283.5" y="-182.2" font-family="Helvetica,sans-Serif" font-size="11.00">8 rows</text>
<polygon fill="#ffffff" stroke="none" points="322.5,-176 322.5,-194 370.5,-194 370.5,-176 322.5,-176"/>
<polygon fill="none" stroke="black" points="322.5,-176 322.5,-194 370.5,-194 370.5,-176 322.5,-176"/>
<text text-anchor="start" x="350.5" y="-182.2" font-family="Helvetica,sans-Serif" font-size="11.00">1 &gt;</text>
</a>
</g>
</g>
<!-- deliverables&#45;&gt;deliverable_categories -->
<g id="edge9" class="edge"><title>deliverables:deliverable_category_id:w&#45;&gt;deliverable_categories:elipses:e</title>
<path fill="none" stroke="black" d="M422.359,-237.219C402.777,-228.614 399.158,-203 371.5,-203"/>
<polygon fill="black" stroke="black" points="428.65,-238.456 435.805,-243.532 432.575,-239.228 436.5,-240 436.5,-240 436.5,-240 432.575,-239.228 437.195,-236.468 428.65,-238.456 428.65,-238.456"/>
<ellipse fill="none" stroke="black" cx="425.511" cy="-237.839" rx="3.2" ry="3.2"/>
</g>
<!-- participants -->
<g id="node9" class="node"><title>participants</title>
<g id="a_node9"><a xlink:href="../../tables/participants.html" xlink:title="participants" target="_top">
<polygon fill="#ffffff" stroke="none" points="458,-570 458,-628 577,-628 577,-570 458,-570"/>
<polygon fill="#f5f5f5" stroke="none" points="458.5,-606 458.5,-628 577.5,-628 577.5,-606 458.5,-606"/>
<polygon fill="none" stroke="black" points="458.5,-606 458.5,-628 577.5,-628 577.5,-606 458.5,-606"/>
<text text-anchor="start" x="463.5" y="-615.2" font-family="Helvetica,sans-Serif" font-weight="bold" font-size="11.00">participants</text>
<text text-anchor="start" x="538.5" y="-614.2" font-family="Helvetica,sans-Serif" font-size="11.00">[table]</text>
<polygon fill="none" stroke="black" points="458.5,-588 458.5,-606 577.5,-606 577.5,-588 458.5,-588"/>
<text text-anchor="start" x="461.5" y="-594.2" font-family="Helvetica,sans-Serif" font-size="11.00">...</text>
<polygon fill="#ffffff" stroke="none" points="458.5,-570 458.5,-588 496.5,-588 496.5,-570 458.5,-570"/>
<polygon fill="none" stroke="black" points="458.5,-570 458.5,-588 496.5,-588 496.5,-570 458.5,-570"/>
<text text-anchor="start" x="461.5" y="-576.2" font-family="Helvetica,sans-Serif" font-size="11.00">&lt; 3</text>
<polygon fill="#ffffff" stroke="none" points="496.5,-570 496.5,-588 546.5,-588 546.5,-570 496.5,-570"/>
<polygon fill="none" stroke="black" points="496.5,-570 496.5,-588 546.5,-588 546.5,-570 496.5,-570"/>
<text text-anchor="start" x="507.5" y="-576.2" font-family="Helvetica,sans-Serif" font-size="11.00">0 rows</text>
<polygon fill="#ffffff" stroke="none" points="546.5,-570 546.5,-588 577.5,-588 577.5,-570 546.5,-570"/>
<polygon fill="none" stroke="black" points="546.5,-570 546.5,-588 577.5,-588 577.5,-570 546.5,-570"/>
<text text-anchor="start" x="557.5" y="-576.2" font-family="Helvetica,sans-Serif" font-size="11.00">1 &gt;</text>
</a>
</g>
</g>
<!-- participants&#45;&gt;cohorts -->
<g id="edge15" class="edge"><title>participants:elipses:w&#45;&gt;cohorts:elipses:e</title>
<path fill="none" stroke="black" d="M443.274,-594.747C416.818,-584.924 424.649,-545.196 396,-520 369.642,-496.82 363.601,-479 328.5,-479"/>
<polygon fill="black" stroke="black" points="449.598,-595.749 456.937,-600.556 453.549,-596.374 457.5,-597 457.5,-597 457.5,-597 453.549,-596.374 458.063,-593.444 449.598,-595.749 449.598,-595.749"/>
<ellipse fill="none" stroke="black" cx="446.438" cy="-595.248" rx="3.2" ry="3.2"/>
</g>
<!-- participants&#45;&gt;public.users -->
<g id="edge16" class="edge"><title>participants:elipses:w&#45;&gt;public.users:id:e</title>
<path fill="none" stroke="black" d="M443.027,-594.291C426.532,-591.879 417.801,-593.469 396,-594 294.252,-596.48 266.737,-614.281 167,-594 156.114,-591.786 144.94,-588.333 134.201,-584.411"/>
<polygon fill="black" stroke="black" points="449.637,-595.528 456.838,-600.539 453.568,-596.264 457.5,-597 457.5,-597 457.5,-597 453.568,-596.264 458.162,-593.461 449.637,-595.528 449.637,-595.528"/>
<ellipse fill="none" stroke="black" cx="446.491" cy="-594.94" rx="3.2" ry="3.2"/>
</g>
<!-- participants&#45;&gt;public.users -->
<g id="edge17" class="edge"><title>participants:elipses:w&#45;&gt;public.users:id:e</title>
<path fill="none" stroke="black" d="M443.515,-600.59C426.702,-604.848 418.014,-606.463 396,-607 294.252,-609.48 266.737,-627.281 167,-607 150.9,-603.726 134.17,-597.74 119.146,-591.009"/>
<polygon fill="black" stroke="black" points="449.751,-598.989 458.395,-600.487 453.626,-597.995 457.5,-597 457.5,-597 457.5,-597 453.626,-597.995 456.605,-593.513 449.751,-598.989 449.751,-598.989"/>
<ellipse fill="none" stroke="black" cx="446.652" cy="-599.785" rx="3.2" ry="3.2"/>
</g>
<!-- project_votes -->
<g id="node10" class="node"><title>project_votes</title>
<g id="a_node10"><a xlink:href="../../tables/project_votes.html" xlink:title="project_votes" target="_top">
<polygon fill="#ffffff" stroke="none" points="219,-531 219,-589 344,-589 344,-531 219,-531"/>
<polygon fill="#f5f5f5" stroke="none" points="219.5,-567 219.5,-589 344.5,-589 344.5,-567 219.5,-567"/>
<polygon fill="none" stroke="black" points="219.5,-567 219.5,-589 344.5,-589 344.5,-567 219.5,-567"/>
<text text-anchor="start" x="224.5" y="-576.2" font-family="Helvetica,sans-Serif" font-weight="bold" font-size="11.00">project_votes</text>
<text text-anchor="start" x="305.5" y="-575.2" font-family="Helvetica,sans-Serif" font-size="11.00">[table]</text>
<polygon fill="none" stroke="black" points="219.5,-549 219.5,-567 344.5,-567 344.5,-549 219.5,-549"/>
<text text-anchor="start" x="222.5" y="-555.2" font-family="Helvetica,sans-Serif" font-size="11.00">...</text>
<polygon fill="#ffffff" stroke="none" points="219.5,-531 219.5,-549 265.5,-549 265.5,-531 219.5,-531"/>
<polygon fill="none" stroke="black" points="219.5,-531 219.5,-549 265.5,-549 265.5,-531 219.5,-531"/>
<text text-anchor="start" x="222.5" y="-537.2" font-family="Helvetica,sans-Serif" font-size="11.00">&lt; 6</text>
<polygon fill="#ffffff" stroke="none" points="265.5,-531 265.5,-549 319.5,-549 319.5,-531 265.5,-531"/>
<polygon fill="none" stroke="black" points="265.5,-531 265.5,-549 319.5,-549 319.5,-531 265.5,-531"/>
<text text-anchor="start" x="280.5" y="-537.2" font-family="Helvetica,sans-Serif" font-size="11.00">0 rows</text>
<polygon fill="#ffffff" stroke="none" points="319.5,-531 319.5,-549 344.5,-549 344.5,-531 319.5,-531"/>
<polygon fill="none" stroke="black" points="319.5,-531 319.5,-549 344.5,-549 344.5,-531 319.5,-531"/>
<text text-anchor="start" x="334.5" y="-537.2" font-family="Helvetica,sans-Serif" font-size="11.00"> &#160;</text>
</a>
</g>
</g>
<!-- project_votes&#45;&gt;public.users -->
<g id="edge18" class="edge"><title>project_votes:elipses:w&#45;&gt;public.users:id:e</title>
<path fill="none" stroke="black" d="M204.07,-555.433C180.606,-551.625 156.022,-549.331 134.306,-548.551"/>
<polygon fill="black" stroke="black" points="210.624,-556.599 217.87,-561.544 214.562,-557.299 218.5,-558 218.5,-558 218.5,-558 214.562,-557.299 219.13,-554.456 210.624,-556.599 210.624,-556.599"/>
<ellipse fill="none" stroke="black" cx="207.473" cy="-556.038" rx="3.2" ry="3.2"/>
</g>
<!-- project_votes&#45;&gt;public.users -->
<g id="edge19" class="edge"><title>project_votes:elipses:w&#45;&gt;public.users:id:e</title>
<path fill="none" stroke="black" d="M204.07,-558C180.606,-558 156.022,-558 134.306,-558"/>
<polygon fill="black" stroke="black" points="210.5,-558 218.5,-561.6 214.5,-558 218.5,-558 218.5,-558 218.5,-558 214.5,-558 218.5,-554.4 210.5,-558 210.5,-558"/>
<ellipse fill="none" stroke="black" cx="207.3" cy="-558" rx="3.2" ry="3.2"/>
</g>
<!-- project_votes&#45;&gt;public.users -->
<g id="edge20" class="edge"><title>project_votes:elipses:w&#45;&gt;public.users:id:e</title>
<path fill="none" stroke="black" d="M204.07,-560.567C180.606,-564.375 156.022,-566.669 134.306,-567.449"/>
<polygon fill="black" stroke="black" points="210.624,-559.401 219.13,-561.544 214.562,-558.701 218.5,-558 218.5,-558 218.5,-558 214.562,-558.701 217.87,-554.456 210.624,-559.401 210.624,-559.401"/>
<ellipse fill="none" stroke="black" cx="207.473" cy="-559.962" rx="3.2" ry="3.2"/>
</g>
<!-- submission_documents -->
<g id="node11" class="node"><title>submission_documents</title>
<g id="a_node11"><a xlink:href="../../tables/submission_documents.html" xlink:title="submission_documents" target="_top">
<polygon fill="#ffffff" stroke="none" points="878,-647 878,-705 1059,-705 1059,-647 878,-647"/>
<polygon fill="#f5f5f5" stroke="none" points="878.5,-683 878.5,-705 1059.5,-705 1059.5,-683 878.5,-683"/>
<polygon fill="none" stroke="black" points="878.5,-683 878.5,-705 1059.5,-705 1059.5,-683 878.5,-683"/>
<text text-anchor="start" x="883.5" y="-692.2" font-family="Helvetica,sans-Serif" font-weight="bold" font-size="11.00">submission_documents</text>
<text text-anchor="start" x="1020.5" y="-691.2" font-family="Helvetica,sans-Serif" font-size="11.00">[table]</text>
<polygon fill="none" stroke="black" points="878.5,-665 878.5,-683 1059.5,-683 1059.5,-665 878.5,-665"/>
<text text-anchor="start" x="881.5" y="-671.2" font-family="Helvetica,sans-Serif" font-size="11.00">...</text>
<polygon fill="#ffffff" stroke="none" points="878.5,-647 878.5,-665 952.5,-665 952.5,-647 878.5,-647"/>
<polygon fill="none" stroke="black" points="878.5,-647 878.5,-665 952.5,-665 952.5,-647 878.5,-647"/>
<text text-anchor="start" x="881.5" y="-653.2" font-family="Helvetica,sans-Serif" font-size="11.00">&lt; 4</text>
<polygon fill="#ffffff" stroke="none" points="952.5,-647 952.5,-665 1020.5,-665 1020.5,-647 952.5,-647"/>
<polygon fill="none" stroke="black" points="952.5,-647 952.5,-665 1020.5,-665 1020.5,-647 952.5,-647"/>
<text text-anchor="start" x="981.5" y="-653.2" font-family="Helvetica,sans-Serif" font-size="11.00">0 rows</text>
<polygon fill="#ffffff" stroke="none" points="1020.5,-647 1020.5,-665 1059.5,-665 1059.5,-647 1020.5,-647"/>
<polygon fill="none" stroke="black" points="1020.5,-647 1020.5,-665 1059.5,-665 1059.5,-647 1020.5,-647"/>
<text text-anchor="start" x="1049.5" y="-653.2" font-family="Helvetica,sans-Serif" font-size="11.00"> &#160;</text>
</a>
</g>
</g>
<!-- submission_documents&#45;&gt;public.users -->
<g id="edge21" class="edge"><title>submission_documents:elipses:w&#45;&gt;public.users:id:e</title>
<path fill="none" stroke="black" d="M863.128,-676.923C855.069,-680.596 849.842,-686.698 837,-689 750.38,-704.525 726.946,-692.071 639,-689 428.838,-681.662 358.577,-742.719 167,-656 135.935,-641.938 109.057,-613.637 91.1781,-591.048"/>
<polygon fill="black" stroke="black" points="869.66,-675.594 878.217,-677.528 873.58,-674.797 877.5,-674 877.5,-674 877.5,-674 873.58,-674.797 876.783,-670.472 869.66,-675.594 869.66,-675.594"/>
<ellipse fill="none" stroke="black" cx="866.525" cy="-676.232" rx="3.2" ry="3.2"/>
</g>
<!-- submissions -->
<g id="node12" class="node"><title>submissions</title>
<g id="a_node12"><a xlink:href="../../tables/submissions.html" xlink:title="submissions" target="_top">
<polygon fill="#ffffff" stroke="none" points="679,-620 679,-678 797,-678 797,-620 679,-620"/>
<polygon fill="#f5f5f5" stroke="none" points="679,-656 679,-678 797,-678 797,-656 679,-656"/>
<polygon fill="none" stroke="black" points="679,-656 679,-678 797,-678 797,-656 679,-656"/>
<text text-anchor="start" x="684" y="-665.2" font-family="Helvetica,sans-Serif" font-weight="bold" font-size="11.00">submissions</text>
<text text-anchor="start" x="758" y="-664.2" font-family="Helvetica,sans-Serif" font-size="11.00">[table]</text>
<polygon fill="none" stroke="black" points="679,-638 679,-656 797,-656 797,-638 679,-638"/>
<text text-anchor="start" x="682" y="-644.2" font-family="Helvetica,sans-Serif" font-size="11.00">...</text>
<polygon fill="#ffffff" stroke="none" points="679,-620 679,-638 717,-638 717,-620 679,-620"/>
<polygon fill="none" stroke="black" points="679,-620 679,-638 717,-638 717,-620 679,-620"/>
<text text-anchor="start" x="682" y="-626.2" font-family="Helvetica,sans-Serif" font-size="11.00">&lt; 5</text>
<polygon fill="#ffffff" stroke="none" points="717,-620 717,-638 766,-638 766,-620 717,-620"/>
<polygon fill="none" stroke="black" points="717,-620 717,-638 766,-638 766,-620 717,-620"/>
<text text-anchor="start" x="727" y="-626.2" font-family="Helvetica,sans-Serif" font-size="11.00">0 rows</text>
<polygon fill="#ffffff" stroke="none" points="766,-620 766,-638 797,-638 797,-620 766,-620"/>
<polygon fill="none" stroke="black" points="766,-620 766,-638 797,-638 797,-620 766,-620"/>
<text text-anchor="start" x="777" y="-626.2" font-family="Helvetica,sans-Serif" font-size="11.00">1 &gt;</text>
</a>
</g>
</g>
<!-- submission_documents&#45;&gt;submissions -->
<g id="edge22" class="edge"><title>submission_documents:elipses:w&#45;&gt;submissions:elipses:e</title>
<path fill="none" stroke="black" d="M863.158,-672.471C838.099,-666.759 829.922,-647 798,-647"/>
<polygon fill="black" stroke="black" points="869.545,-673.152 877.118,-677.58 873.523,-673.576 877.5,-674 877.5,-674 877.5,-674 873.523,-673.576 877.882,-670.42 869.545,-673.152 869.545,-673.152"/>
<ellipse fill="none" stroke="black" cx="866.363" cy="-672.813" rx="3.2" ry="3.2"/>
</g>
<!-- submissions&#45;&gt;public.users -->
<g id="edge23" class="edge"><title>submissions:elipses:w&#45;&gt;public.users:id:e</title>
<path fill="none" stroke="black" d="M663.56,-646.68C447.607,-642.824 378.526,-683.148 167,-614 150.615,-608.644 134.197,-600.009 119.573,-591.084"/>
<polygon fill="black" stroke="black" points="670.002,-646.823 677.92,-650.599 674.001,-646.911 678,-647 678,-647 678,-647 674.001,-646.911 678.08,-643.401 670.002,-646.823 670.002,-646.823"/>
<ellipse fill="none" stroke="black" cx="666.803" cy="-646.752" rx="3.2" ry="3.2"/>
</g>
<!-- submissions&#45;&gt;public.users -->
<g id="edge25" class="edge"><title>submissions:elipses:w&#45;&gt;public.users:id:e</title>
<path fill="none" stroke="black" d="M663.56,-647.5C447.607,-655.824 378.526,-696.148 167,-627 143.483,-619.312 119.897,-604.871 101.648,-591.102"/>
<polygon fill="black" stroke="black" points="670.005,-647.277 678.125,-650.598 674.002,-647.139 678,-647 678,-647 678,-647 674.002,-647.139 677.875,-643.402 670.005,-647.277 670.005,-647.277"/>
<ellipse fill="none" stroke="black" cx="666.807" cy="-647.388" rx="3.2" ry="3.2"/>
</g>
<!-- submissions&#45;&gt;deliverables -->
<g id="edge24" class="edge"><title>submissions:elipses:w&#45;&gt;deliverables:id:e</title>
<path fill="none" stroke="black" d="M663.34,-645.963C519.354,-624.042 768.845,-262 599.5,-262"/>
<polygon fill="black" stroke="black" points="670.02,-646.435 677.746,-650.591 674.01,-646.718 678,-647 678,-647 678,-647 674.01,-646.718 678.254,-643.409 670.02,-646.435 670.02,-646.435"/>
<ellipse fill="none" stroke="black" cx="666.828" cy="-646.21" rx="3.2" ry="3.2"/>
</g>
</g>
</svg>
