<?xml version="1.0" encoding="UTF-8" standalone="no"?>
<!DOCTYPE svg PUBLIC "-//W3C//DTD SVG 1.1//EN"
 "http://www.w3.org/Graphics/SVG/1.1/DTD/svg11.dtd">
<!-- Generated by graphviz version 2.38.0 (20140413.2041)
 -->
<!-- Title: twoDegreesRelationshipsDiagram Pages: 1 -->
<svg width="1153pt" height="549pt"
 viewBox="0.00 0.00 1153.00 548.78" xmlns="http://www.w3.org/2000/svg" xmlns:xlink="http://www.w3.org/1999/xlink">
<g id="graph0" class="graph" transform="scale(1 1) rotate(0) translate(4 544.783)">
<title>twoDegreesRelationshipsDiagram</title>
<polygon fill="#ffffff" stroke="none" points="-4,4 -4,-544.783 1149,-544.783 1149,4 -4,4"/>
<text text-anchor="middle" x="74.5" y="-7.2" font-family="Helvetica,sans-Serif" font-size="11.00">Generated by SchemaSpy</text>
<!-- cohorts -->
<g id="node1" class="node"><title>cohorts</title>
<g id="a_node1"><a xlink:href="../../tables/cohorts.html" xlink:title="cohorts" target="_top">
<polygon fill="#ffffff" stroke="none" points="190,-169 190,-227 281,-227 281,-169 190,-169"/>
<polygon fill="#f5f5f5" stroke="none" points="190.5,-205 190.5,-227 281.5,-227 281.5,-205 190.5,-205"/>
<polygon fill="none" stroke="black" points="190.5,-205 190.5,-227 281.5,-227 281.5,-205 190.5,-205"/>
<text text-anchor="start" x="195.5" y="-214.2" font-family="Helvetica,sans-Serif" font-weight="bold" font-size="11.00">cohorts</text>
<text text-anchor="start" x="242.5" y="-213.2" font-family="Helvetica,sans-Serif" font-size="11.00">[table]</text>
<polygon fill="none" stroke="black" points="190.5,-187 190.5,-205 281.5,-205 281.5,-187 190.5,-187"/>
<text text-anchor="start" x="193.5" y="-193.2" font-family="Helvetica,sans-Serif" font-size="11.00">...</text>
<polygon fill="#ffffff" stroke="none" points="190.5,-169 190.5,-187 214.5,-187 214.5,-169 190.5,-169"/>
<polygon fill="none" stroke="black" points="190.5,-169 190.5,-187 214.5,-187 214.5,-169 190.5,-169"/>
<text text-anchor="start" x="193.5" y="-175.2" font-family="Helvetica,sans-Serif" font-size="11.00">&lt; 3</text>
<polygon fill="#ffffff" stroke="none" points="214.5,-169 214.5,-187 257.5,-187 257.5,-169 214.5,-169"/>
<polygon fill="none" stroke="black" points="214.5,-169 214.5,-187 257.5,-187 257.5,-169 214.5,-169"/>
<text text-anchor="start" x="218.5" y="-175.2" font-family="Helvetica,sans-Serif" font-size="11.00">0 rows</text>
<polygon fill="#ffffff" stroke="none" points="257.5,-169 257.5,-187 281.5,-187 281.5,-169 257.5,-169"/>
<polygon fill="none" stroke="black" points="257.5,-169 257.5,-187 281.5,-187 281.5,-169 257.5,-169"/>
<text text-anchor="start" x="261.5" y="-175.2" font-family="Helvetica,sans-Serif" font-size="11.00">2 &gt;</text>
</a>
</g>
</g>
<!-- public.users -->
<g id="node2" class="node"><title>public.users</title>
<g id="a_node2"><a xlink:href="../../../public/tables/users.html" xlink:title="public.users" target="_top">
<polygon fill="#ffffff" stroke="none" points="14,-313 14,-371 132,-371 132,-313 14,-313"/>
<polygon fill="#f5f5f5" stroke="none" points="14,-349 14,-371 132,-371 132,-349 14,-349"/>
<polygon fill="none" stroke="black" points="14,-349 14,-371 132,-371 132,-349 14,-349"/>
<text text-anchor="start" x="19" y="-358.2" font-family="Helvetica,sans-Serif" font-weight="bold" font-size="11.00">public.users</text>
<text text-anchor="start" x="93" y="-357.2" font-family="Helvetica,sans-Serif" font-size="11.00">[table]</text>
<polygon fill="none" stroke="black" points="14,-331 14,-349 132,-349 132,-331 14,-331"/>
<text text-anchor="start" x="17" y="-337.2" font-family="Helvetica,sans-Serif" font-size="11.00">...</text>
<polygon fill="#ffffff" stroke="none" points="14,-313 14,-331 43,-331 43,-313 14,-313"/>
<polygon fill="none" stroke="black" points="14,-313 14,-331 43,-331 43,-313 14,-313"/>
<text text-anchor="start" x="17" y="-319.2" font-family="Helvetica,sans-Serif" font-size="11.00"> &#160;</text>
<polygon fill="#ffffff" stroke="none" points="43,-313 43,-331 93,-331 93,-313 43,-313"/>
<polygon fill="none" stroke="black" points="43,-313 43,-331 93,-331 93,-313 43,-313"/>
<text text-anchor="start" x="54" y="-319.2" font-family="Helvetica,sans-Serif" font-size="11.00">0 rows</text>
<polygon fill="#ffffff" stroke="none" points="93,-313 93,-331 132,-331 132,-313 93,-313"/>
<polygon fill="none" stroke="black" points="93,-313 93,-331 132,-331 132,-313 93,-313"/>
<text text-anchor="start" x="105" y="-319.2" font-family="Helvetica,sans-Serif" font-size="11.00">14 &gt;</text>
</a>
</g>
</g>
<!-- cohorts&#45;&gt;public.users -->
<g id="edge1" class="edge"><title>cohorts:elipses:w&#45;&gt;public.users:id:e</title>
<path fill="none" stroke="black" d="M174.891,-196.536C125.05,-203.998 95.8711,-268.115 82.6282,-308.756"/>
<polygon fill="black" stroke="black" points="181.505,-196.293 189.632,-199.598 185.503,-196.147 189.5,-196 189.5,-196 189.5,-196 185.503,-196.147 189.368,-192.402 181.505,-196.293 181.505,-196.293"/>
<ellipse fill="none" stroke="black" cx="178.308" cy="-196.411" rx="3.2" ry="3.2"/>
</g>
<!-- cohorts&#45;&gt;public.users -->
<g id="edge2" class="edge"><title>cohorts:elipses:w&#45;&gt;public.users:id:e</title>
<path fill="none" stroke="black" d="M175.181,-198.687C128.614,-212.38 100.034,-270.729 85.6045,-308.693"/>
<polygon fill="black" stroke="black" points="181.637,-197.476 190.164,-199.538 185.569,-196.738 189.5,-196 189.5,-196 189.5,-196 185.569,-196.738 188.836,-192.462 181.637,-197.476 181.637,-197.476"/>
<ellipse fill="none" stroke="black" cx="178.492" cy="-198.066" rx="3.2" ry="3.2"/>
</g>
<!-- cohort_phases -->
<g id="node3" class="node"><title>cohort_phases</title>
<g id="a_node3"><a xlink:href="../../tables/cohort_phases.html" xlink:title="cohort_phases" target="_top">
<polygon fill="#ffffff" stroke="none" points="8,-106 8,-190 138,-190 138,-106 8,-106"/>
<polygon fill="#f5f5f5" stroke="none" points="8,-168 8,-190 138,-190 138,-168 8,-168"/>
<polygon fill="none" stroke="black" points="8,-168 8,-190 138,-190 138,-168 8,-168"/>
<text text-anchor="start" x="13" y="-177.2" font-family="Helvetica,sans-Serif" font-weight="bold" font-size="11.00">cohort_phases</text>
<text text-anchor="start" x="99" y="-176.2" font-family="Helvetica,sans-Serif" font-size="11.00">[table]</text>
<polygon fill="none" stroke="black" points="8,-146 8,-168 138,-168 138,-146 8,-146"/>
<image xlink:href="../../images/primaryKeys.png" width="11px" height="12px" preserveAspectRatio="xMinYMin meet" x="13" y="-163"/>
<text text-anchor="start" x="40" y="-154.2" font-family="Helvetica,sans-Serif" font-size="11.00">id</text>
<polygon fill="#ffffff" stroke="none" points="8,-124 8,-146 138,-146 138,-124 8,-124"/>
<polygon fill="none" stroke="black" points="8,-124 8,-146 138,-146 138,-124 8,-124"/>
<text text-anchor="start" x="40" y="-132.2" font-family="Helvetica,sans-Serif" font-size="11.00">name</text>
<polygon fill="#ffffff" stroke="none" points="8,-106 8,-124 47,-124 47,-106 8,-106"/>
<polygon fill="none" stroke="black" points="8,-106 8,-124 47,-124 47,-106 8,-106"/>
<text text-anchor="start" x="11" y="-112.2" font-family="Helvetica,sans-Serif" font-size="11.00"> &#160;</text>
<polygon fill="#ffffff" stroke="none" points="47,-106 47,-124 102,-124 102,-106 47,-106"/>
<polygon fill="none" stroke="black" points="47,-106 47,-124 102,-124 102,-106 47,-106"/>
<text text-anchor="start" x="63" y="-112.2" font-family="Helvetica,sans-Serif" font-size="11.00">4 rows</text>
<polygon fill="#ffffff" stroke="none" points="102,-106 102,-124 138,-124 138,-106 102,-106"/>
<polygon fill="none" stroke="black" points="102,-106 102,-124 138,-124 138,-106 102,-106"/>
<text text-anchor="start" x="118" y="-112.2" font-family="Helvetica,sans-Serif" font-size="11.00">2 &gt;</text>
</a>
</g>
</g>
<!-- cohorts&#45;&gt;cohort_phases -->
<g id="edge3" class="edge"><title>cohorts:elipses:w&#45;&gt;cohort_phases:id:e</title>
<path fill="none" stroke="black" d="M175.521,-191.526C162.226,-181.282 161.377,-157 139,-157"/>
<polygon fill="black" stroke="black" points="181.881,-193.562 188.403,-199.429 185.69,-194.781 189.5,-196 189.5,-196 189.5,-196 185.69,-194.781 190.597,-192.571 181.881,-193.562 181.881,-193.562"/>
<ellipse fill="none" stroke="black" cx="178.833" cy="-192.586" rx="3.20001" ry="3.20001"/>
</g>
<!-- deliverables -->
<g id="node4" class="node"><title>deliverables</title>
<g id="a_node4"><a xlink:href="../../tables/deliverables.html" xlink:title="deliverables" target="_top">
<polygon fill="#ffffff" stroke="none" points="333,-414 333,-472 452,-472 452,-414 333,-414"/>
<polygon fill="#f5f5f5" stroke="none" points="333.5,-450 333.5,-472 452.5,-472 452.5,-450 333.5,-450"/>
<polygon fill="none" stroke="black" points="333.5,-450 333.5,-472 452.5,-472 452.5,-450 333.5,-450"/>
<text text-anchor="start" x="338.5" y="-459.2" font-family="Helvetica,sans-Serif" font-weight="bold" font-size="11.00">deliverables</text>
<text text-anchor="start" x="413.5" y="-458.2" font-family="Helvetica,sans-Serif" font-size="11.00">[table]</text>
<polygon fill="none" stroke="black" points="333.5,-432 333.5,-450 452.5,-450 452.5,-432 333.5,-432"/>
<text text-anchor="start" x="336.5" y="-438.2" font-family="Helvetica,sans-Serif" font-size="11.00">...</text>
<polygon fill="#ffffff" stroke="none" points="333.5,-414 333.5,-432 371.5,-432 371.5,-414 333.5,-414"/>
<polygon fill="none" stroke="black" points="333.5,-414 333.5,-432 371.5,-432 371.5,-414 333.5,-414"/>
<text text-anchor="start" x="336.5" y="-420.2" font-family="Helvetica,sans-Serif" font-size="11.00">&lt; 5</text>
<polygon fill="#ffffff" stroke="none" points="371.5,-414 371.5,-432 421.5,-432 421.5,-414 371.5,-414"/>
<polygon fill="none" stroke="black" points="371.5,-414 371.5,-432 421.5,-432 421.5,-414 371.5,-414"/>
<text text-anchor="start" x="382.5" y="-420.2" font-family="Helvetica,sans-Serif" font-size="11.00">0 rows</text>
<polygon fill="#ffffff" stroke="none" points="421.5,-414 421.5,-432 452.5,-432 452.5,-414 421.5,-414"/>
<polygon fill="none" stroke="black" points="421.5,-414 421.5,-432 452.5,-432 452.5,-414 421.5,-414"/>
<text text-anchor="start" x="432.5" y="-420.2" font-family="Helvetica,sans-Serif" font-size="11.00">3 &gt;</text>
</a>
</g>
</g>
<!-- deliverables&#45;&gt;public.users -->
<g id="edge4" class="edge"><title>deliverables:elipses:w&#45;&gt;public.users:id:e</title>
<path fill="none" stroke="black" d="M319.527,-434.276C309.663,-425.695 306.963,-412.639 292,-405 265.262,-391.349 194.021,-369.743 140.198,-355.584"/>
<polygon fill="black" stroke="black" points="325.397,-437.319 330.843,-444.196 328.949,-439.159 332.5,-441 332.5,-441 332.5,-441 328.949,-439.159 334.157,-437.804 325.397,-437.319 325.397,-437.319"/>
<ellipse fill="none" stroke="black" cx="322.556" cy="-435.846" rx="3.20001" ry="3.20001"/>
</g>
<!-- deliverables&#45;&gt;public.users -->
<g id="edge5" class="edge"><title>deliverables:elipses:w&#45;&gt;public.users:id:e</title>
<path fill="none" stroke="black" d="M318.041,-441.229C309.348,-437.349 306.184,-425.241 292,-418 265.262,-404.349 194.021,-382.743 140.198,-365.903"/>
<polygon fill="black" stroke="black" points="324.501,-441.127 332.557,-444.6 328.501,-441.063 332.5,-441 332.5,-441 332.5,-441 328.501,-441.063 332.443,-437.4 324.501,-441.127 324.501,-441.127"/>
<ellipse fill="none" stroke="black" cx="321.301" cy="-441.177" rx="3.2" ry="3.2"/>
</g>
<!-- modules -->
<g id="node5" class="node"><title>modules</title>
<g id="a_node5"><a xlink:href="../../tables/modules.html" xlink:title="modules" target="_top">
<polygon fill="#ffffff" stroke="none" points="187,-422 187,-480 284,-480 284,-422 187,-422"/>
<polygon fill="#f5f5f5" stroke="none" points="187.5,-458 187.5,-480 284.5,-480 284.5,-458 187.5,-458"/>
<polygon fill="none" stroke="black" points="187.5,-458 187.5,-480 284.5,-480 284.5,-458 187.5,-458"/>
<text text-anchor="start" x="192.5" y="-467.2" font-family="Helvetica,sans-Serif" font-weight="bold" font-size="11.00">modules</text>
<text text-anchor="start" x="245.5" y="-466.2" font-family="Helvetica,sans-Serif" font-size="11.00">[table]</text>
<polygon fill="none" stroke="black" points="187.5,-440 187.5,-458 284.5,-458 284.5,-440 187.5,-440"/>
<text text-anchor="start" x="190.5" y="-446.2" font-family="Helvetica,sans-Serif" font-size="11.00">...</text>
<polygon fill="#ffffff" stroke="none" points="187.5,-422 187.5,-440 214.5,-440 214.5,-422 187.5,-422"/>
<polygon fill="none" stroke="black" points="187.5,-422 187.5,-440 214.5,-440 214.5,-422 187.5,-422"/>
<text text-anchor="start" x="190.5" y="-428.2" font-family="Helvetica,sans-Serif" font-size="11.00">&lt; 2</text>
<polygon fill="#ffffff" stroke="none" points="214.5,-422 214.5,-440 258.5,-440 258.5,-422 214.5,-422"/>
<polygon fill="none" stroke="black" points="214.5,-422 214.5,-440 258.5,-440 258.5,-422 214.5,-422"/>
<text text-anchor="start" x="219.5" y="-428.2" font-family="Helvetica,sans-Serif" font-size="11.00">0 rows</text>
<polygon fill="#ffffff" stroke="none" points="258.5,-422 258.5,-440 284.5,-440 284.5,-422 258.5,-422"/>
<polygon fill="none" stroke="black" points="258.5,-422 258.5,-440 284.5,-440 284.5,-422 258.5,-422"/>
<text text-anchor="start" x="264.5" y="-428.2" font-family="Helvetica,sans-Serif" font-size="11.00">2 &gt;</text>
</a>
</g>
</g>
<!-- deliverables&#45;&gt;modules -->
<g id="edge6" class="edge"><title>deliverables:elipses:w&#45;&gt;modules:elipses:e</title>
<path fill="none" stroke="black" d="M318.157,-442.467C307.545,-444.777 300.895,-449 285.5,-449"/>
<polygon fill="black" stroke="black" points="324.542,-441.814 332.866,-444.581 328.521,-441.407 332.5,-441 332.5,-441 332.5,-441 328.521,-441.407 332.134,-437.419 324.542,-441.814 324.542,-441.814"/>
<ellipse fill="none" stroke="black" cx="321.358" cy="-442.14" rx="3.2" ry="3.2"/>
</g>
<!-- modules&#45;&gt;public.users -->
<g id="edge7" class="edge"><title>modules:elipses:w&#45;&gt;public.users:id:e</title>
<path fill="none" stroke="black" d="M172.293,-446.3C137.605,-436.116 110.468,-401.702 93.5775,-375.109"/>
<polygon fill="black" stroke="black" points="178.641,-447.506 185.828,-452.537 182.57,-448.253 186.5,-449 186.5,-449 186.5,-449 182.57,-448.253 187.172,-445.463 178.641,-447.506 178.641,-447.506"/>
<ellipse fill="none" stroke="black" cx="175.497" cy="-446.909" rx="3.2" ry="3.2"/>
</g>
<!-- modules&#45;&gt;public.users -->
<g id="edge8" class="edge"><title>modules:elipses:w&#45;&gt;public.users:id:e</title>
<path fill="none" stroke="black" d="M171.917,-448.808C133.46,-443.862 104.326,-404.662 88.2039,-375.091"/>
<polygon fill="black" stroke="black" points="178.501,-448.895 186.453,-452.6 182.5,-448.947 186.5,-449 186.5,-449 186.5,-449 182.5,-448.947 186.547,-445.4 178.501,-448.895 178.501,-448.895"/>
<ellipse fill="none" stroke="black" cx="175.301" cy="-448.853" rx="3.2" ry="3.2"/>
</g>
<!-- participants -->
<g id="node6" class="node"><title>participants</title>
<g id="a_node6"><a xlink:href="../../tables/participants.html" xlink:title="participants" target="_top">
<polygon fill="#ffffff" stroke="none" points="333,-302 333,-360 452,-360 452,-302 333,-302"/>
<polygon fill="#f5f5f5" stroke="none" points="333.5,-338 333.5,-360 452.5,-360 452.5,-338 333.5,-338"/>
<polygon fill="none" stroke="black" points="333.5,-338 333.5,-360 452.5,-360 452.5,-338 333.5,-338"/>
<text text-anchor="start" x="338.5" y="-347.2" font-family="Helvetica,sans-Serif" font-weight="bold" font-size="11.00">participants</text>
<text text-anchor="start" x="413.5" y="-346.2" font-family="Helvetica,sans-Serif" font-size="11.00">[table]</text>
<polygon fill="none" stroke="black" points="333.5,-320 333.5,-338 452.5,-338 452.5,-320 333.5,-320"/>
<text text-anchor="start" x="336.5" y="-326.2" font-family="Helvetica,sans-Serif" font-size="11.00">...</text>
<polygon fill="#ffffff" stroke="none" points="333.5,-302 333.5,-320 371.5,-320 371.5,-302 333.5,-302"/>
<polygon fill="none" stroke="black" points="333.5,-302 333.5,-320 371.5,-320 371.5,-302 333.5,-302"/>
<text text-anchor="start" x="336.5" y="-308.2" font-family="Helvetica,sans-Serif" font-size="11.00">&lt; 3</text>
<polygon fill="#ffffff" stroke="none" points="371.5,-302 371.5,-320 421.5,-320 421.5,-302 371.5,-302"/>
<polygon fill="none" stroke="black" points="371.5,-302 371.5,-320 421.5,-320 421.5,-302 371.5,-302"/>
<text text-anchor="start" x="382.5" y="-308.2" font-family="Helvetica,sans-Serif" font-size="11.00">0 rows</text>
<polygon fill="#ffffff" stroke="none" points="421.5,-302 421.5,-320 452.5,-320 452.5,-302 421.5,-302"/>
<polygon fill="none" stroke="black" points="421.5,-302 421.5,-320 452.5,-320 452.5,-302 421.5,-302"/>
<text text-anchor="start" x="432.5" y="-308.2" font-family="Helvetica,sans-Serif" font-size="11.00">1 &gt;</text>
</a>
</g>
</g>
<!-- participants&#45;&gt;cohorts -->
<g id="edge9" class="edge"><title>participants:elipses:w&#45;&gt;cohorts:elipses:e</title>
<path fill="none" stroke="black" d="M318.186,-325.712C282.43,-305.231 339.73,-196 282.5,-196"/>
<polygon fill="black" stroke="black" points="324.703,-327.209 331.694,-332.509 328.602,-328.105 332.5,-329 332.5,-329 332.5,-329 328.602,-328.105 333.306,-325.491 324.703,-327.209 324.703,-327.209"/>
<ellipse fill="none" stroke="black" cx="321.584" cy="-326.493" rx="3.2" ry="3.2"/>
</g>
<!-- participants&#45;&gt;public.users -->
<g id="edge10" class="edge"><title>participants:elipses:w&#45;&gt;public.users:id:e</title>
<path fill="none" stroke="black" d="M317.778,-328.339C256.041,-325.999 188.424,-328.631 140.096,-332.43"/>
<polygon fill="black" stroke="black" points="324.508,-328.641 332.339,-332.596 328.504,-328.821 332.5,-329 332.5,-329 332.5,-329 328.504,-328.821 332.661,-325.404 324.508,-328.641 324.508,-328.641"/>
<ellipse fill="none" stroke="black" cx="321.311" cy="-328.498" rx="3.2" ry="3.2"/>
</g>
<!-- participants&#45;&gt;public.users -->
<g id="edge11" class="edge"><title>participants:elipses:w&#45;&gt;public.users:id:e</title>
<path fill="none" stroke="black" d="M317.778,-329.918C256.041,-333.85 188.424,-339.144 140.096,-341.992"/>
<polygon fill="black" stroke="black" points="324.515,-329.498 332.724,-332.593 328.508,-329.249 332.5,-329 332.5,-329 332.5,-329 328.508,-329.249 332.276,-325.407 324.515,-329.498 324.515,-329.498"/>
<ellipse fill="none" stroke="black" cx="321.322" cy="-329.697" rx="3.2" ry="3.2"/>
</g>
<!-- project_document_settings -->
<g id="node7" class="node"><title>project_document_settings</title>
<g id="a_node7"><a xlink:href="../../tables/project_document_settings.html" xlink:title="project_document_settings" target="_top">
<polygon fill="#ffffff" stroke="none" points="694.5,-300 694.5,-358 896.5,-358 896.5,-300 694.5,-300"/>
<polygon fill="#f5f5f5" stroke="none" points="694.5,-336 694.5,-358 896.5,-358 896.5,-336 694.5,-336"/>
<polygon fill="none" stroke="black" points="694.5,-336 694.5,-358 896.5,-358 896.5,-336 694.5,-336"/>
<text text-anchor="start" x="699.5" y="-345.2" font-family="Helvetica,sans-Serif" font-weight="bold" font-size="11.00">project_document_settings</text>
<text text-anchor="start" x="857.5" y="-344.2" font-family="Helvetica,sans-Serif" font-size="11.00">[table]</text>
<polygon fill="none" stroke="black" points="694.5,-318 694.5,-336 896.5,-336 896.5,-318 694.5,-318"/>
<text text-anchor="start" x="697.5" y="-324.2" font-family="Helvetica,sans-Serif" font-size="11.00">...</text>
<polygon fill="#ffffff" stroke="none" points="694.5,-300 694.5,-318 779.5,-318 779.5,-300 694.5,-300"/>
<polygon fill="none" stroke="black" points="694.5,-300 694.5,-318 779.5,-318 779.5,-300 694.5,-300"/>
<text text-anchor="start" x="697.5" y="-306.2" font-family="Helvetica,sans-Serif" font-size="11.00">&lt; 1</text>
<polygon fill="#ffffff" stroke="none" points="779.5,-300 779.5,-318 852.5,-318 852.5,-300 779.5,-300"/>
<polygon fill="none" stroke="black" points="779.5,-300 779.5,-318 852.5,-318 852.5,-300 779.5,-300"/>
<text text-anchor="start" x="813.5" y="-306.2" font-family="Helvetica,sans-Serif" font-size="11.00">0 rows</text>
<polygon fill="#ffffff" stroke="none" points="852.5,-300 852.5,-318 896.5,-318 896.5,-300 852.5,-300"/>
<polygon fill="none" stroke="black" points="852.5,-300 852.5,-318 896.5,-318 896.5,-300 852.5,-300"/>
<text text-anchor="start" x="886.5" y="-306.2" font-family="Helvetica,sans-Serif" font-size="11.00"> &#160;</text>
</a>
</g>
</g>
<!-- public.projects -->
<g id="node8" class="node"><title>public.projects</title>
<g id="a_node8"><a xlink:href="../../../public/tables/projects.html" xlink:title="public.projects" target="_top">
<polygon fill="#ffffff" stroke="none" points="501,-302 501,-382 635,-382 635,-302 501,-302"/>
<polygon fill="#f5f5f5" stroke="none" points="501,-360 501,-382 635,-382 635,-360 501,-360"/>
<polygon fill="none" stroke="black" points="501,-360 501,-382 635,-382 635,-360 501,-360"/>
<text text-anchor="start" x="506" y="-369.2" font-family="Helvetica,sans-Serif" font-weight="bold" font-size="11.00">public.projects</text>
<text text-anchor="start" x="596" y="-368.2" font-family="Helvetica,sans-Serif" font-size="11.00">[table]</text>
<polygon fill="none" stroke="black" points="501,-338 501,-360 635,-360 635,-338 501,-338"/>
<image xlink:href="../../images/foreignKeys.png" width="11px" height="12px" preserveAspectRatio="xMinYMin meet" x="506" y="-355"/>
<text text-anchor="start" x="532" y="-346.2" font-family="Helvetica,sans-Serif" font-size="11.00">participant_id</text>
<polygon fill="none" stroke="black" points="501,-320 501,-338 635,-338 635,-320 501,-320"/>
<text text-anchor="start" x="504" y="-326.2" font-family="Helvetica,sans-Serif" font-size="11.00">...</text>
<polygon fill="#ffffff" stroke="none" points="501,-302 501,-320 547,-320 547,-302 501,-302"/>
<polygon fill="none" stroke="black" points="501,-302 501,-320 547,-320 547,-302 501,-302"/>
<text text-anchor="start" x="504" y="-308.2" font-family="Helvetica,sans-Serif" font-size="11.00">&lt; 1</text>
<polygon fill="#ffffff" stroke="none" points="547,-302 547,-320 600,-320 600,-302 547,-302"/>
<polygon fill="none" stroke="black" points="547,-302 547,-320 600,-320 600,-302 547,-302"/>
<text text-anchor="start" x="561" y="-308.2" font-family="Helvetica,sans-Serif" font-size="11.00">0 rows</text>
<polygon fill="#ffffff" stroke="none" points="600,-302 600,-320 635,-320 635,-302 600,-302"/>
<polygon fill="none" stroke="black" points="600,-302 600,-320 635,-320 635,-302 600,-302"/>
<text text-anchor="start" x="615" y="-308.2" font-family="Helvetica,sans-Serif" font-size="11.00">4 &gt;</text>
</a>
</g>
</g>
<!-- project_document_settings&#45;&gt;public.projects -->
<g id="edge12" class="edge"><title>project_document_settings:elipses:w&#45;&gt;public.projects:id:e</title>
<path fill="none" stroke="black" d="M683.037,-327.165C669.853,-327.567 656.243,-328.671 643.216,-330.108"/>
<polygon fill="black" stroke="black" points="692.637,-323.013 692.763,-331.012 691.163,-331.037 691.037,-323.038 692.637,-323.013"/>
<polyline fill="none" stroke="black" points="693.5,-327 689.5,-327.063 "/>
<ellipse fill="none" stroke="black" cx="686.301" cy="-327.113" rx="3.2" ry="3.2"/>
</g>
<!-- public.projects&#45;&gt;participants -->
<g id="edge26" class="edge"><title>public.projects:participant_id:w&#45;&gt;participants:elipses:e</title>
<path fill="none" stroke="black" d="M485.729,-345.516C475.222,-339.786 470.021,-329 453.5,-329"/>
<polygon fill="black" stroke="black" points="492.228,-347.103 499.146,-352.497 496.114,-348.051 500,-349 500,-349 500,-349 496.114,-348.051 500.854,-345.503 492.228,-347.103 492.228,-347.103"/>
<ellipse fill="none" stroke="black" cx="489.119" cy="-346.344" rx="3.2" ry="3.2"/>
</g>
<!-- project_votes -->
<g id="node9" class="node"><title>project_votes</title>
<g id="a_node9"><a xlink:href="../../tables/project_votes.html" xlink:title="project_votes" target="_top">
<polygon fill="#ffffff" stroke="none" points="684,-37 684,-279 907,-279 907,-37 684,-37"/>
<polygon fill="#f5f5f5" stroke="none" points="686.5,-255 686.5,-277 905.5,-277 905.5,-255 686.5,-255"/>
<polygon fill="none" stroke="black" points="686.5,-255 686.5,-277 905.5,-277 905.5,-255 686.5,-255"/>
<text text-anchor="start" x="691.5" y="-264.2" font-family="Helvetica,sans-Serif" font-weight="bold" font-size="11.00">project_votes</text>
<text text-anchor="start" x="866.5" y="-263.2" font-family="Helvetica,sans-Serif" font-size="11.00">[table]</text>
<polygon fill="none" stroke="black" points="686.5,-233 686.5,-255 803.5,-255 803.5,-233 686.5,-233"/>
<image xlink:href="../../images/primaryKeys.png" width="11px" height="12px" preserveAspectRatio="xMinYMin meet" x="691.5" y="-250"/>
<text text-anchor="start" x="706.5" y="-241.2" font-family="Helvetica,sans-Serif" font-size="11.00">user_id</text>
<polygon fill="none" stroke="black" points="803.5,-233 803.5,-255 905.5,-255 905.5,-233 803.5,-233"/>
<text text-anchor="start" x="806.5" y="-241.2" font-family="Helvetica,sans-Serif" font-size="11.00">int8[19]</text>
<polygon fill="none" stroke="black" points="686.5,-211 686.5,-233 803.5,-233 803.5,-211 686.5,-211"/>
<image xlink:href="../../images/primaryKeys.png" width="11px" height="12px" preserveAspectRatio="xMinYMin meet" x="691.5" y="-228"/>
<text text-anchor="start" x="706.5" y="-219.2" font-family="Helvetica,sans-Serif" font-size="11.00">project_id</text>
<polygon fill="none" stroke="black" points="803.5,-211 803.5,-233 905.5,-233 905.5,-211 803.5,-211"/>
<text text-anchor="start" x="806.5" y="-219.2" font-family="Helvetica,sans-Serif" font-size="11.00">int8[19]</text>
<polygon fill="none" stroke="black" points="686.5,-189 686.5,-211 803.5,-211 803.5,-189 686.5,-189"/>
<image xlink:href="../../images/primaryKeys.png" width="11px" height="12px" preserveAspectRatio="xMinYMin meet" x="691.5" y="-206"/>
<text text-anchor="start" x="706.5" y="-197.2" font-family="Helvetica,sans-Serif" font-size="11.00">phase_id</text>
<polygon fill="none" stroke="black" points="803.5,-189 803.5,-211 905.5,-211 905.5,-189 803.5,-189"/>
<text text-anchor="start" x="806.5" y="-197.2" font-family="Helvetica,sans-Serif" font-size="11.00">int4[10]</text>
<polygon fill="none" stroke="black" points="686.5,-167 686.5,-189 803.5,-189 803.5,-167 686.5,-167"/>
<image xlink:href="../../images/foreignKeys.png" width="11px" height="12px" preserveAspectRatio="xMinYMin meet" x="691.5" y="-184"/>
<text text-anchor="start" x="706.5" y="-175.2" font-family="Helvetica,sans-Serif" font-size="11.00">vote_option_id</text>
<polygon fill="none" stroke="black" points="803.5,-167 803.5,-189 905.5,-189 905.5,-167 803.5,-167"/>
<text text-anchor="start" x="806.5" y="-175.2" font-family="Helvetica,sans-Serif" font-size="11.00">int4[10]</text>
<polygon fill="none" stroke="black" points="686.5,-145 686.5,-167 803.5,-167 803.5,-145 686.5,-145"/>
<text text-anchor="start" x="706.5" y="-153.2" font-family="Helvetica,sans-Serif" font-size="11.00">conditional_info</text>
<polygon fill="none" stroke="black" points="803.5,-145 803.5,-167 905.5,-167 905.5,-145 803.5,-145"/>
<text text-anchor="start" x="806.5" y="-153.2" font-family="Helvetica,sans-Serif" font-size="11.00">text[2147483647]</text>
<polygon fill="none" stroke="black" points="686.5,-123 686.5,-145 803.5,-145 803.5,-123 686.5,-123"/>
<image xlink:href="../../images/foreignKeys.png" width="11px" height="12px" preserveAspectRatio="xMinYMin meet" x="691.5" y="-140"/>
<text text-anchor="start" x="706.5" y="-131.2" font-family="Helvetica,sans-Serif" font-size="11.00">created_by</text>
<polygon fill="none" stroke="black" points="803.5,-123 803.5,-145 905.5,-145 905.5,-123 803.5,-123"/>
<text text-anchor="start" x="806.5" y="-131.2" font-family="Helvetica,sans-Serif" font-size="11.00">int8[19]</text>
<polygon fill="none" stroke="black" points="686.5,-101 686.5,-123 803.5,-123 803.5,-101 686.5,-101"/>
<text text-anchor="start" x="706.5" y="-109.2" font-family="Helvetica,sans-Serif" font-size="11.00">created_time</text>
<polygon fill="none" stroke="black" points="803.5,-101 803.5,-123 905.5,-123 905.5,-101 803.5,-101"/>
<text text-anchor="start" x="806.5" y="-109.2" font-family="Helvetica,sans-Serif" font-size="11.00">timestamptz[35,6]</text>
<polygon fill="none" stroke="black" points="686.5,-79 686.5,-101 803.5,-101 803.5,-79 686.5,-79"/>
<image xlink:href="../../images/foreignKeys.png" width="11px" height="12px" preserveAspectRatio="xMinYMin meet" x="691.5" y="-96"/>
<text text-anchor="start" x="706.5" y="-87.2" font-family="Helvetica,sans-Serif" font-size="11.00">modified_by</text>
<polygon fill="none" stroke="black" points="803.5,-79 803.5,-101 905.5,-101 905.5,-79 803.5,-79"/>
<text text-anchor="start" x="806.5" y="-87.2" font-family="Helvetica,sans-Serif" font-size="11.00">int8[19]</text>
<polygon fill="none" stroke="black" points="686.5,-57 686.5,-79 803.5,-79 803.5,-57 686.5,-57"/>
<text text-anchor="start" x="706.5" y="-65.2" font-family="Helvetica,sans-Serif" font-size="11.00">modified_time</text>
<polygon fill="none" stroke="black" points="803.5,-57 803.5,-79 905.5,-79 905.5,-57 803.5,-57"/>
<text text-anchor="start" x="806.5" y="-65.2" font-family="Helvetica,sans-Serif" font-size="11.00">timestamptz[35,6]</text>
<polygon fill="#ffffff" stroke="none" points="686.5,-39 686.5,-57 735.5,-57 735.5,-39 686.5,-39"/>
<polygon fill="none" stroke="black" points="686.5,-39 686.5,-57 735.5,-57 735.5,-39 686.5,-39"/>
<text text-anchor="start" x="689.5" y="-45.2" font-family="Helvetica,sans-Serif" font-size="11.00">&lt; 6</text>
<polygon fill="#ffffff" stroke="none" points="735.5,-39 735.5,-57 803.5,-57 803.5,-39 735.5,-39"/>
<polygon fill="none" stroke="black" points="735.5,-39 735.5,-57 803.5,-57 803.5,-39 735.5,-39"/>
<text text-anchor="start" x="764.5" y="-45.2" font-family="Helvetica,sans-Serif" font-size="11.00">0 rows</text>
<polygon fill="#ffffff" stroke="none" points="803.5,-39 803.5,-57 905.5,-57 905.5,-39 803.5,-39"/>
<polygon fill="none" stroke="black" points="803.5,-39 803.5,-57 905.5,-57 905.5,-39 803.5,-39"/>
<text text-anchor="start" x="885.5" y="-45.2" font-family="Helvetica,sans-Serif" font-size="11.00">0 &gt;</text>
<polygon fill="none" stroke="black" stroke-width="2" points="685,-38 685,-278 906,-278 906,-38 685,-38"/>
</a>
</g>
</g>
<!-- project_votes&#45;&gt;public.users -->
<g id="edge13" class="edge"><title>project_votes:created_by:w&#45;&gt;public.users:id:e</title>
<path fill="none" stroke="black" d="M671.071,-133.626C662.273,-133.136 655.997,-132.306 643,-132 576.352,-130.433 557.745,-116.108 493,-132 395.118,-156.026 385.8,-200.124 292,-237 243.533,-256.054 226.099,-245.779 179,-268 156.007,-278.848 132.67,-294.709 113.856,-308.967"/>
<polygon fill="black" stroke="black" points="677.503,-133.792 685.407,-137.599 681.501,-133.896 685.5,-134 685.5,-134 685.5,-134 681.501,-133.896 685.593,-130.401 677.503,-133.792 677.503,-133.792"/>
<ellipse fill="none" stroke="black" cx="674.304" cy="-133.709" rx="3.2" ry="3.2"/>
</g>
<!-- project_votes&#45;&gt;public.users -->
<g id="edge14" class="edge"><title>project_votes:modified_by:w&#45;&gt;public.users:id:e</title>
<path fill="none" stroke="black" d="M671.047,-89.9209C454.414,-87.5548 363.325,-33.8231 179,-158 164.968,-167.453 116.864,-258.372 90.9153,-308.766"/>
<polygon fill="black" stroke="black" points="677.5,-89.9561 685.48,-93.5999 681.5,-89.9781 685.5,-90 685.5,-90 685.5,-90 681.5,-89.9781 685.52,-86.4001 677.5,-89.9561 677.5,-89.9561"/>
<ellipse fill="none" stroke="black" cx="674.3" cy="-89.9386" rx="3.2" ry="3.2"/>
</g>
<!-- project_votes&#45;&gt;public.users -->
<g id="edge17" class="edge"><title>project_votes:user_id:w&#45;&gt;public.users:id:e</title>
<path fill="none" stroke="black" d="M670.894,-245.645C662.129,-247.834 656.141,-251.697 643,-254 502.848,-278.558 465.511,-268.592 325,-291 261.877,-301.067 190.501,-315.909 140.045,-326.989"/>
<polygon fill="black" stroke="black" points="677.55,-244.895 685.903,-247.577 681.525,-244.448 685.5,-244 685.5,-244 685.5,-244 681.525,-244.448 685.097,-240.423 677.55,-244.895 677.55,-244.895"/>
<ellipse fill="none" stroke="black" cx="674.37" cy="-245.253" rx="3.2" ry="3.2"/>
</g>
<!-- project_votes&#45;&gt;cohort_phases -->
<g id="edge15" class="edge"><title>project_votes:phase_id:w&#45;&gt;cohort_phases:id:e</title>
<path fill="none" stroke="black" d="M671.592,-204.547C661.615,-212.895 660.591,-230.415 643,-237 580.564,-260.37 558.501,-249.41 493,-237 398.692,-219.132 386.249,-176.176 292,-158 225.229,-145.123 207.001,-157 139,-157"/>
<polygon fill="black" stroke="black" points="677.896,-202.486 686.619,-203.422 681.698,-201.243 685.5,-200 685.5,-200 685.5,-200 681.698,-201.243 684.381,-196.578 677.896,-202.486 677.896,-202.486"/>
<ellipse fill="none" stroke="black" cx="674.854" cy="-203.48" rx="3.20001" ry="3.20001"/>
</g>
<!-- project_votes&#45;&gt;public.projects -->
<g id="edge16" class="edge"><title>project_votes:project_id:w&#45;&gt;public.projects:id:e</title>
<path fill="none" stroke="black" d="M671.123,-225.611C655.179,-236.106 662.639,-267.182 643,-288 639.835,-291.355 636.438,-294.643 632.901,-297.836"/>
<polygon fill="black" stroke="black" points="677.741,-223.949 686.377,-225.492 681.62,-222.974 685.5,-222 685.5,-222 685.5,-222 681.62,-222.974 684.623,-218.508 677.741,-223.949 677.741,-223.949"/>
<ellipse fill="none" stroke="black" cx="674.637" cy="-224.728" rx="3.2" ry="3.2"/>
</g>
<!-- vote_options -->
<g id="node10" class="node"><title>vote_options</title>
<g id="a_node10"><a xlink:href="../../tables/vote_options.html" xlink:title="vote_options" target="_top">
<polygon fill="#ffffff" stroke="none" points="507.5,-143 507.5,-227 628.5,-227 628.5,-143 507.5,-143"/>
<polygon fill="#f5f5f5" stroke="none" points="508,-205 508,-227 629,-227 629,-205 508,-205"/>
<polygon fill="none" stroke="black" points="508,-205 508,-227 629,-227 629,-205 508,-205"/>
<text text-anchor="start" x="513" y="-214.2" font-family="Helvetica,sans-Serif" font-weight="bold" font-size="11.00">vote_options</text>
<text text-anchor="start" x="590" y="-213.2" font-family="Helvetica,sans-Serif" font-size="11.00">[table]</text>
<polygon fill="none" stroke="black" points="508,-183 508,-205 629,-205 629,-183 508,-183"/>
<image xlink:href="../../images/primaryKeys.png" width="11px" height="12px" preserveAspectRatio="xMinYMin meet" x="513" y="-200"/>
<text text-anchor="start" x="540" y="-191.2" font-family="Helvetica,sans-Serif" font-size="11.00">id</text>
<polygon fill="#ffffff" stroke="none" points="508,-161 508,-183 629,-183 629,-161 508,-161"/>
<polygon fill="none" stroke="black" points="508,-161 508,-183 629,-183 629,-161 508,-161"/>
<text text-anchor="start" x="540" y="-169.2" font-family="Helvetica,sans-Serif" font-size="11.00">name</text>
<polygon fill="#ffffff" stroke="none" points="508,-143 508,-161 542,-161 542,-143 508,-143"/>
<polygon fill="none" stroke="black" points="508,-143 508,-161 542,-161 542,-143 508,-143"/>
<text text-anchor="start" x="511" y="-149.2" font-family="Helvetica,sans-Serif" font-size="11.00"> &#160;</text>
<polygon fill="#ffffff" stroke="none" points="542,-143 542,-161 595,-161 595,-143 542,-143"/>
<polygon fill="none" stroke="black" points="542,-143 542,-161 595,-161 595,-143 542,-143"/>
<text text-anchor="start" x="556" y="-149.2" font-family="Helvetica,sans-Serif" font-size="11.00">3 rows</text>
<polygon fill="#ffffff" stroke="none" points="595,-143 595,-161 629,-161 629,-143 595,-143"/>
<polygon fill="none" stroke="black" points="595,-143 595,-161 629,-161 629,-143 595,-143"/>
<text text-anchor="start" x="609" y="-149.2" font-family="Helvetica,sans-Serif" font-size="11.00">1 &gt;</text>
</a>
</g>
</g>
<!-- project_votes&#45;&gt;vote_options -->
<g id="edge18" class="edge"><title>project_votes:vote_option_id:w&#45;&gt;vote_options:id:e</title>
<path fill="none" stroke="black" d="M670.864,-180.092C656.841,-184.429 649.855,-194 630,-194"/>
<polygon fill="black" stroke="black" points="677.58,-179.132 686.009,-181.564 681.54,-178.566 685.5,-178 685.5,-178 685.5,-178 681.54,-178.566 684.991,-174.436 677.58,-179.132 677.58,-179.132"/>
<ellipse fill="none" stroke="black" cx="674.413" cy="-179.585" rx="3.2" ry="3.2"/>
</g>
<!-- submission_documents -->
<g id="node11" class="node"><title>submission_documents</title>
<g id="a_node11"><a xlink:href="../../tables/submission_documents.html" xlink:title="submission_documents" target="_top">
<polygon fill="#ffffff" stroke="none" points="956,-382 956,-440 1137,-440 1137,-382 956,-382"/>
<polygon fill="#f5f5f5" stroke="none" points="956.5,-418 956.5,-440 1137.5,-440 1137.5,-418 956.5,-418"/>
<polygon fill="none" stroke="black" points="956.5,-418 956.5,-440 1137.5,-440 1137.5,-418 956.5,-418"/>
<text text-anchor="start" x="961.5" y="-427.2" font-family="Helvetica,sans-Serif" font-weight="bold" font-size="11.00">submission_documents</text>
<text text-anchor="start" x="1098.5" y="-426.2" font-family="Helvetica,sans-Serif" font-size="11.00">[table]</text>
<polygon fill="none" stroke="black" points="956.5,-400 956.5,-418 1137.5,-418 1137.5,-400 956.5,-400"/>
<text text-anchor="start" x="959.5" y="-406.2" font-family="Helvetica,sans-Serif" font-size="11.00">...</text>
<polygon fill="#ffffff" stroke="none" points="956.5,-382 956.5,-400 1030.5,-400 1030.5,-382 956.5,-382"/>
<polygon fill="none" stroke="black" points="956.5,-382 956.5,-400 1030.5,-400 1030.5,-382 956.5,-382"/>
<text text-anchor="start" x="959.5" y="-388.2" font-family="Helvetica,sans-Serif" font-size="11.00">&lt; 4</text>
<polygon fill="#ffffff" stroke="none" points="1030.5,-382 1030.5,-400 1098.5,-400 1098.5,-382 1030.5,-382"/>
<polygon fill="none" stroke="black" points="1030.5,-382 1030.5,-400 1098.5,-400 1098.5,-382 1030.5,-382"/>
<text text-anchor="start" x="1059.5" y="-388.2" font-family="Helvetica,sans-Serif" font-size="11.00">0 rows</text>
<polygon fill="#ffffff" stroke="none" points="1098.5,-382 1098.5,-400 1137.5,-400 1137.5,-382 1098.5,-382"/>
<polygon fill="none" stroke="black" points="1098.5,-382 1098.5,-400 1137.5,-400 1137.5,-382 1098.5,-382"/>
<text text-anchor="start" x="1127.5" y="-388.2" font-family="Helvetica,sans-Serif" font-size="11.00"> &#160;</text>
</a>
</g>
</g>
<!-- submission_documents&#45;&gt;public.users -->
<g id="edge19" class="edge"><title>submission_documents:elipses:w&#45;&gt;public.users:id:e</title>
<path fill="none" stroke="black" d="M940.996,-408.998C747.242,-408.943 693.166,-407.595 493,-392 426.079,-386.786 240.27,-363.417 140.068,-350.556"/>
<polygon fill="black" stroke="black" points="947.5,-408.999 955.499,-412.6 951.5,-408.999 955.5,-409 955.5,-409 955.5,-409 951.5,-408.999 955.501,-405.4 947.5,-408.999 947.5,-408.999"/>
<ellipse fill="none" stroke="black" cx="944.3" cy="-408.998" rx="3.2" ry="3.2"/>
</g>
<!-- submission_documents&#45;&gt;public.projects -->
<g id="edge20" class="edge"><title>submission_documents:elipses:w&#45;&gt;public.projects:id:e</title>
<path fill="none" stroke="black" d="M940.996,-407.219C932.947,-405.022 927.243,-401.298 915,-399 809.726,-379.241 781.31,-387.564 676,-368 665.287,-366.01 654.039,-363.617 643.027,-361.099"/>
<polygon fill="black" stroke="black" points="947.56,-408.025 955.061,-412.573 951.53,-408.512 955.5,-409 955.5,-409 955.5,-409 951.53,-408.512 955.939,-405.427 947.56,-408.025 947.56,-408.025"/>
<ellipse fill="none" stroke="black" cx="944.384" cy="-407.635" rx="3.2" ry="3.2"/>
</g>
<!-- submissions -->
<g id="node12" class="node"><title>submissions</title>
<g id="a_node12"><a xlink:href="../../tables/submissions.html" xlink:title="submissions" target="_top">
<polygon fill="#ffffff" stroke="none" points="736.5,-433 736.5,-491 854.5,-491 854.5,-433 736.5,-433"/>
<polygon fill="#f5f5f5" stroke="none" points="736.5,-469 736.5,-491 854.5,-491 854.5,-469 736.5,-469"/>
<polygon fill="none" stroke="black" points="736.5,-469 736.5,-491 854.5,-491 854.5,-469 736.5,-469"/>
<text text-anchor="start" x="741.5" y="-478.2" font-family="Helvetica,sans-Serif" font-weight="bold" font-size="11.00">submissions</text>
<text text-anchor="start" x="815.5" y="-477.2" font-family="Helvetica,sans-Serif" font-size="11.00">[table]</text>
<polygon fill="none" stroke="black" points="736.5,-451 736.5,-469 854.5,-469 854.5,-451 736.5,-451"/>
<text text-anchor="start" x="739.5" y="-457.2" font-family="Helvetica,sans-Serif" font-size="11.00">...</text>
<polygon fill="#ffffff" stroke="none" points="736.5,-433 736.5,-451 774.5,-451 774.5,-433 736.5,-433"/>
<polygon fill="none" stroke="black" points="736.5,-433 736.5,-451 774.5,-451 774.5,-433 736.5,-433"/>
<text text-anchor="start" x="739.5" y="-439.2" font-family="Helvetica,sans-Serif" font-size="11.00">&lt; 5</text>
<polygon fill="#ffffff" stroke="none" points="774.5,-433 774.5,-451 823.5,-451 823.5,-433 774.5,-433"/>
<polygon fill="none" stroke="black" points="774.5,-433 774.5,-451 823.5,-451 823.5,-433 774.5,-433"/>
<text text-anchor="start" x="784.5" y="-439.2" font-family="Helvetica,sans-Serif" font-size="11.00">0 rows</text>
<polygon fill="#ffffff" stroke="none" points="823.5,-433 823.5,-451 854.5,-451 854.5,-433 823.5,-433"/>
<polygon fill="none" stroke="black" points="823.5,-433 823.5,-451 854.5,-451 854.5,-433 823.5,-433"/>
<text text-anchor="start" x="834.5" y="-439.2" font-family="Helvetica,sans-Serif" font-size="11.00">1 &gt;</text>
</a>
</g>
</g>
<!-- submission_documents&#45;&gt;submissions -->
<g id="edge21" class="edge"><title>submission_documents:elipses:w&#45;&gt;submissions:elipses:e</title>
<path fill="none" stroke="black" d="M940.782,-410.697C904.967,-419.546 899.934,-460 855.5,-460"/>
<polygon fill="black" stroke="black" points="947.553,-409.916 955.912,-412.576 951.526,-409.458 955.5,-409 955.5,-409 955.5,-409 951.526,-409.458 955.088,-405.424 947.553,-409.916 947.553,-409.916"/>
<ellipse fill="none" stroke="black" cx="944.374" cy="-410.283" rx="3.2" ry="3.2"/>
</g>
<!-- submissions&#45;&gt;public.users -->
<g id="edge22" class="edge"><title>submissions:elipses:w&#45;&gt;public.users:id:e</title>
<path fill="none" stroke="black" d="M720.813,-459.816C484.201,-459.65 394.653,-595.416 179,-484 134.497,-461.008 104.771,-409.484 88.6328,-375.177"/>
<polygon fill="black" stroke="black" points="727.501,-459.9 735.455,-463.6 731.5,-459.95 735.5,-460 735.5,-460 735.5,-460 731.5,-459.95 735.545,-456.4 727.501,-459.9 727.501,-459.9"/>
<ellipse fill="none" stroke="black" cx="724.301" cy="-459.86" rx="3.2" ry="3.2"/>
</g>
<!-- submissions&#45;&gt;public.users -->
<g id="edge24" class="edge"><title>submissions:elipses:w&#45;&gt;public.users:id:e</title>
<path fill="none" stroke="black" d="M720.813,-460.582C484.201,-472.65 394.653,-608.416 179,-497 130.439,-471.911 99.4716,-412.849 84.5558,-375.209"/>
<polygon fill="black" stroke="black" points="727.506,-460.317 735.642,-463.597 731.503,-460.158 735.5,-460 735.5,-460 735.5,-460 731.503,-460.158 735.358,-456.403 727.506,-460.317 727.506,-460.317"/>
<ellipse fill="none" stroke="black" cx="724.309" cy="-460.443" rx="3.2" ry="3.2"/>
</g>
<!-- submissions&#45;&gt;deliverables -->
<g id="edge23" class="edge"><title>submissions:elipses:w&#45;&gt;deliverables:elipses:e</title>
<path fill="none" stroke="black" d="M720.855,-459.911C607.267,-458.509 574.088,-441 453.5,-441"/>
<polygon fill="black" stroke="black" points="727.5,-459.951 735.478,-463.6 731.5,-459.976 735.5,-460 735.5,-460 735.5,-460 731.5,-459.976 735.522,-456.4 727.5,-459.951 727.5,-459.951"/>
<ellipse fill="none" stroke="black" cx="724.3" cy="-459.932" rx="3.2" ry="3.2"/>
</g>
<!-- submissions&#45;&gt;public.projects -->
<g id="edge25" class="edge"><title>submissions:elipses:w&#45;&gt;public.projects:id:e</title>
<path fill="none" stroke="black" d="M721.051,-459.019C673.886,-452.669 631.831,-416.684 603.971,-386.275"/>
<polygon fill="black" stroke="black" points="727.518,-459.458 735.256,-463.592 731.509,-459.729 735.5,-460 735.5,-460 735.5,-460 731.509,-459.729 735.744,-456.408 727.518,-459.458 727.518,-459.458"/>
<ellipse fill="none" stroke="black" cx="724.326" cy="-459.241" rx="3.2" ry="3.2"/>
</g>
</g>
</svg>
