<?xml version="1.0" encoding="UTF-8" standalone="no"?>
<!DOCTYPE svg PUBLIC "-//W3C//DTD SVG 1.1//EN"
 "http://www.w3.org/Graphics/SVG/1.1/DTD/svg11.dtd">
<!-- Generated by graphviz version 2.47.1 (20210515.0534)
 -->
<!-- Title: oneDegreeRelationshipsDiagram Pages: 1 -->
<svg width="503pt" height="327pt"
 viewBox="0.00 0.00 503.00 327.00" xmlns="http://www.w3.org/2000/svg" xmlns:xlink="http://www.w3.org/1999/xlink">
<g id="graph0" class="graph" transform="scale(1 1) rotate(0) translate(4 323)">
<title>oneDegreeRelationshipsDiagram</title>
<polygon fill="#ffffff" stroke="transparent" points="-4,4 -4,-323 499,-323 499,4 -4,4"/>
<text text-anchor="middle" x="73.5" y="-7.2" font-family="Helvetica,sans-Serif" font-size="11.00">Generated by SchemaSpy</text>
<!-- reports -->
<g id="node1" class="node">
<title>reports</title>
<g id="a_node1"><a xlink:href="../../tables/reports.html" xlink:title="reports" target="_top">
<polygon fill="#ffffff" stroke="transparent" points="269,-37 269,-315 487,-315 487,-37 269,-37"/>
<polygon fill="#f5f5f5" stroke="transparent" points="269,-293 269,-315 487,-315 487,-293 269,-293"/>
<polygon fill="none" stroke="black" points="269,-293 269,-315 487,-315 487,-293 269,-293"/>
<text text-anchor="start" x="273.5" y="-302.2" font-family="Helvetica,sans-Serif" font-weight="bold" font-size="11.00">reports</text>
<text text-anchor="start" x="448" y="-301.2" font-family="Helvetica,sans-Serif" font-size="11.00">[table]</text>
<polygon fill="none" stroke="black" points="269,-271 269,-293 487,-293 487,-271 269,-271"/>
<image xlink:href="../../images/primaryKeys.png" width="11px" height="12px" preserveAspectRatio="xMinYMin meet" x="274" y="-288"/>
<text text-anchor="start" x="289" y="-279.2" font-family="Helvetica,sans-Serif" font-size="11.00">id</text>
<polygon fill="none" stroke="black" points="269,-249 269,-271 487,-271 487,-249 269,-249"/>
<image xlink:href="../../images/foreignKeys.png" width="11px" height="12px" preserveAspectRatio="xMinYMin meet" x="274" y="-266"/>
<text text-anchor="start" x="289" y="-257.2" font-family="Helvetica,sans-Serif" font-size="11.00">config_id</text>
<polygon fill="#ffffff" stroke="transparent" points="269,-227 269,-249 487,-249 487,-227 269,-227"/>
<polygon fill="none" stroke="black" points="269,-227 269,-249 487,-249 487,-227 269,-227"/>
<image xlink:href="../../images/foreignKeys.png" width="11px" height="12px" preserveAspectRatio="xMinYMin meet" x="274" y="-244"/>
<text text-anchor="start" x="289" y="-235.2" font-family="Helvetica,sans-Serif" font-size="11.00">project_id</text>
<polygon fill="none" stroke="black" points="269,-205 269,-227 487,-227 487,-205 269,-205"/>
<image xlink:href="../../images/foreignKeys.png" width="11px" height="12px" preserveAspectRatio="xMinYMin meet" x="274" y="-222"/>
<text text-anchor="start" x="289" y="-213.2" font-family="Helvetica,sans-Serif" font-size="11.00">status_id</text>
<polygon fill="#ffffff" stroke="transparent" points="269,-183 269,-205 487,-205 487,-183 269,-183"/>
<polygon fill="none" stroke="black" points="269,-183 269,-205 487,-205 487,-183 269,-183"/>
<text text-anchor="start" x="289" y="-191.2" font-family="Helvetica,sans-Serif" font-size="11.00">end_date</text>
<polygon fill="none" stroke="black" points="269,-161 269,-183 487,-183 487,-161 269,-161"/>
<image xlink:href="../../images/foreignKeys.png" width="11px" height="12px" preserveAspectRatio="xMinYMin meet" x="274" y="-178"/>
<text text-anchor="start" x="289" y="-169.2" font-family="Helvetica,sans-Serif" font-size="11.00">created_by</text>
<polygon fill="none" stroke="black" points="269,-139 269,-161 487,-161 487,-139 269,-139"/>
<image xlink:href="../../images/foreignKeys.png" width="11px" height="12px" preserveAspectRatio="xMinYMin meet" x="274" y="-156"/>
<text text-anchor="start" x="289" y="-147.2" font-family="Helvetica,sans-Serif" font-size="11.00">modified_by</text>
<polygon fill="none" stroke="black" points="269,-117 269,-139 487,-139 487,-117 269,-117"/>
<image xlink:href="../../images/foreignKeys.png" width="11px" height="12px" preserveAspectRatio="xMinYMin meet" x="274" y="-134"/>
<text text-anchor="start" x="289" y="-125.2" font-family="Helvetica,sans-Serif" font-size="11.00">submitted_by</text>
<polygon fill="none" stroke="black" points="269,-95 269,-117 487,-117 487,-95 269,-95"/>
<image xlink:href="../../images/foreignKeys.png" width="11px" height="12px" preserveAspectRatio="xMinYMin meet" x="274" y="-112"/>
<text text-anchor="start" x="289" y="-103.2" font-family="Helvetica,sans-Serif" font-size="11.00">report_frequency_id</text>
<polygon fill="none" stroke="black" points="269,-73 269,-95 487,-95 487,-73 269,-73"/>
<image xlink:href="../../images/foreignKeys.png" width="11px" height="12px" preserveAspectRatio="xMinYMin meet" x="274" y="-90"/>
<text text-anchor="start" x="289" y="-81.2" font-family="Helvetica,sans-Serif" font-size="11.00">report_quarter_id</text>
<polygon fill="none" stroke="black" points="269,-55 269,-73 487,-73 487,-55 269,-55"/>
<text text-anchor="start" x="272" y="-61.2" font-family="Helvetica,sans-Serif" font-size="11.00">...</text>
<polygon fill="#ffffff" stroke="transparent" points="269,-37 269,-55 374,-55 374,-37 269,-37"/>
<polygon fill="none" stroke="black" points="269,-37 269,-55 374,-55 374,-37 269,-37"/>
<text text-anchor="start" x="272" y="-43.2" font-family="Helvetica,sans-Serif" font-size="11.00">&lt; 10</text>
<polygon fill="#ffffff" stroke="transparent" points="374,-37 374,-55 426,-55 426,-37 374,-37"/>
<polygon fill="none" stroke="black" points="374,-37 374,-55 426,-55 426,-37 374,-37"/>
<text text-anchor="start" x="416" y="-43.2" font-family="Helvetica,sans-Serif" font-size="11.00"> &#160;</text>
<polygon fill="#ffffff" stroke="transparent" points="426,-37 426,-55 487,-55 487,-37 426,-37"/>
<polygon fill="none" stroke="black" points="426,-37 426,-55 487,-55 487,-37 426,-37"/>
<text text-anchor="start" x="468" y="-43.2" font-family="Helvetica,sans-Serif" font-size="11.00">7 &gt;</text>
</a>
</g>
</g>
<!-- report_statuses -->
<g id="node2" class="node">
<title>report_statuses</title>
<g id="a_node2"><a xlink:href="../../tables/report_statuses.html" xlink:title="report_statuses" target="_top">
<polygon fill="#ffffff" stroke="transparent" points="8,-163 8,-251 220,-251 220,-163 8,-163"/>
<polygon fill="#f5f5f5" stroke="transparent" points="10,-227 10,-249 218,-249 218,-227 10,-227"/>
<polygon fill="none" stroke="black" points="10,-227 10,-249 218,-249 218,-227 10,-227"/>
<text text-anchor="start" x="15" y="-236.2" font-family="Helvetica,sans-Serif" font-weight="bold" font-size="11.00">report_statuses</text>
<text text-anchor="start" x="179" y="-235.2" font-family="Helvetica,sans-Serif" font-size="11.00">[table]</text>
<polygon fill="none" stroke="black" points="10,-205 10,-227 124,-227 124,-205 10,-205"/>
<image xlink:href="../../images/primaryKeys.png" width="11px" height="12px" preserveAspectRatio="xMinYMin meet" x="15" y="-222"/>
<text text-anchor="start" x="30" y="-213.2" font-family="Helvetica,sans-Serif" font-size="11.00">id</text>
<polygon fill="none" stroke="black" points="124,-205 124,-227 218,-227 218,-205 124,-205"/>
<text text-anchor="start" x="127" y="-213.2" font-family="Helvetica,sans-Serif" font-size="11.00">int4[10]</text>
<polygon fill="#ffffff" stroke="transparent" points="10,-183 10,-205 124,-205 124,-183 10,-183"/>
<polygon fill="none" stroke="black" points="10,-183 10,-205 124,-205 124,-183 10,-183"/>
<text text-anchor="start" x="30" y="-191.2" font-family="Helvetica,sans-Serif" font-size="11.00">name</text>
<polygon fill="none" stroke="black" points="124,-183 124,-205 218,-205 218,-183 124,-183"/>
<text text-anchor="start" x="127" y="-191.2" font-family="Helvetica,sans-Serif" font-size="11.00">text[2147483647]</text>
<polygon fill="#ffffff" stroke="transparent" points="10,-165 10,-183 71,-183 71,-165 10,-165"/>
<polygon fill="none" stroke="black" points="10,-165 10,-183 71,-183 71,-165 10,-165"/>
<text text-anchor="start" x="13" y="-171.2" font-family="Helvetica,sans-Serif" font-size="11.00">&lt; 0</text>
<polygon fill="#ffffff" stroke="transparent" points="71,-165 71,-183 124,-183 124,-165 71,-165"/>
<polygon fill="none" stroke="black" points="71,-165 71,-183 124,-183 124,-165 71,-165"/>
<text text-anchor="start" x="114" y="-171.2" font-family="Helvetica,sans-Serif" font-size="11.00"> &#160;</text>
<polygon fill="#ffffff" stroke="transparent" points="124,-165 124,-183 218,-183 218,-165 124,-165"/>
<polygon fill="none" stroke="black" points="124,-165 124,-183 218,-183 218,-165 124,-165"/>
<text text-anchor="start" x="199" y="-171.2" font-family="Helvetica,sans-Serif" font-size="11.00">1 &gt;</text>
<polygon fill="none" stroke="black" stroke-width="2" points="9,-164 9,-250 219,-250 219,-164 9,-164"/>
</a>
</g>
</g>
<!-- reports&#45;&gt;report_statuses -->
<g id="edge1" class="edge">
<title>reports:w&#45;&gt;report_statuses:e</title>
<path fill="none" stroke="black" d="M253.49,-216C242.18,-216 234.99,-216 219,-216"/>
<polygon fill="black" stroke="black" points="260,-216 268,-219.6 264,-216 268,-216 268,-216 268,-216 264,-216 268,-212.4 260,-216 260,-216"/>
<ellipse fill="none" stroke="black" cx="256.8" cy="-216" rx="3.2" ry="3.2"/>
</g>
</g>
</svg>
