<?xml version="1.0" encoding="UTF-8" standalone="no"?>
<!DOCTYPE svg PUBLIC "-//W3C//DTD SVG 1.1//EN"
 "http://www.w3.org/Graphics/SVG/1.1/DTD/svg11.dtd">
<!-- Generated by graphviz version 2.47.1 (20210515.0534)
 -->
<!-- Title: oneDegreeRelationshipsDiagram Pages: 1 -->
<svg width="482pt" height="179pt"
 viewBox="0.00 0.00 482.00 179.00" xmlns="http://www.w3.org/2000/svg" xmlns:xlink="http://www.w3.org/1999/xlink">
<g id="graph0" class="graph" transform="scale(1 1) rotate(0) translate(4 175)">
<title>oneDegreeRelationshipsDiagram</title>
<polygon fill="#ffffff" stroke="transparent" points="-4,4 -4,-175 478,-175 478,4 -4,4"/>
<text text-anchor="middle" x="73.5" y="-7.2" font-family="Helvetica,sans-Serif" font-size="11.00">Generated by SchemaSpy</text>
<!-- project_report_configs -->
<g id="node1" class="node">
<title>project_report_configs</title>
<g id="a_node1"><a xlink:href="../../tables/project_report_configs.html" xlink:title="project_report_configs" target="_top">
<polygon fill="#ffffff" stroke="transparent" points="289,-43 289,-167 466,-167 466,-43 289,-43"/>
<polygon fill="#f5f5f5" stroke="transparent" points="289.5,-145 289.5,-167 466.5,-167 466.5,-145 289.5,-145"/>
<polygon fill="none" stroke="black" points="289.5,-145 289.5,-167 466.5,-167 466.5,-145 289.5,-145"/>
<text text-anchor="start" x="294.5" y="-154.2" font-family="Helvetica,sans-Serif" font-weight="bold" font-size="11.00">project_report_configs</text>
<text text-anchor="start" x="427.5" y="-153.2" font-family="Helvetica,sans-Serif" font-size="11.00">[table]</text>
<polygon fill="none" stroke="black" points="289.5,-123 289.5,-145 466.5,-145 466.5,-123 289.5,-123"/>
<image xlink:href="../../images/primaryKeys.png" width="11px" height="12px" preserveAspectRatio="xMinYMin meet" x="294.5" y="-140"/>
<text text-anchor="start" x="321.5" y="-131.2" font-family="Helvetica,sans-Serif" font-size="11.00">id</text>
<polygon fill="#ffffff" stroke="transparent" points="289.5,-101 289.5,-123 466.5,-123 466.5,-101 289.5,-101"/>
<polygon fill="none" stroke="black" points="289.5,-101 289.5,-123 466.5,-123 466.5,-101 289.5,-101"/>
<image xlink:href="../../images/foreignKeys.png" width="11px" height="12px" preserveAspectRatio="xMinYMin meet" x="294.5" y="-118"/>
<text text-anchor="start" x="321.5" y="-109.2" font-family="Helvetica,sans-Serif" font-size="11.00">project_id</text>
<polygon fill="none" stroke="black" points="289.5,-79 289.5,-101 466.5,-101 466.5,-79 289.5,-79"/>
<image xlink:href="../../images/foreignKeys.png" width="11px" height="12px" preserveAspectRatio="xMinYMin meet" x="294.5" y="-96"/>
<text text-anchor="start" x="321.5" y="-87.2" font-family="Helvetica,sans-Serif" font-size="11.00">report_frequency_id</text>
<polygon fill="none" stroke="black" points="289.5,-61 289.5,-79 466.5,-79 466.5,-61 289.5,-61"/>
<text text-anchor="start" x="292.5" y="-67.2" font-family="Helvetica,sans-Serif" font-size="11.00">...</text>
<polygon fill="#ffffff" stroke="transparent" points="289.5,-43 289.5,-61 371.5,-61 371.5,-43 289.5,-43"/>
<polygon fill="none" stroke="black" points="289.5,-43 289.5,-61 371.5,-61 371.5,-43 289.5,-43"/>
<text text-anchor="start" x="292.5" y="-49.2" font-family="Helvetica,sans-Serif" font-size="11.00">&lt; 2</text>
<polygon fill="#ffffff" stroke="transparent" points="371.5,-43 371.5,-61 414.5,-61 414.5,-43 371.5,-43"/>
<polygon fill="none" stroke="black" points="371.5,-43 371.5,-61 414.5,-61 414.5,-43 371.5,-43"/>
<text text-anchor="start" x="404.5" y="-49.2" font-family="Helvetica,sans-Serif" font-size="11.00"> &#160;</text>
<polygon fill="#ffffff" stroke="transparent" points="414.5,-43 414.5,-61 466.5,-61 466.5,-43 414.5,-43"/>
<polygon fill="none" stroke="black" points="414.5,-43 414.5,-61 466.5,-61 466.5,-43 414.5,-43"/>
<text text-anchor="start" x="447.5" y="-49.2" font-family="Helvetica,sans-Serif" font-size="11.00">2 &gt;</text>
</a>
</g>
</g>
<!-- report_frequencies -->
<g id="node2" class="node">
<title>report_frequencies</title>
<g id="a_node2"><a xlink:href="../../tables/report_frequencies.html" xlink:title="report_frequencies" target="_top">
<polygon fill="#ffffff" stroke="transparent" points="8,-37 8,-125 240,-125 240,-37 8,-37"/>
<polygon fill="#f5f5f5" stroke="transparent" points="10,-101 10,-123 238,-123 238,-101 10,-101"/>
<polygon fill="none" stroke="black" points="10,-101 10,-123 238,-123 238,-101 10,-101"/>
<text text-anchor="start" x="15" y="-110.2" font-family="Helvetica,sans-Serif" font-weight="bold" font-size="11.00">report_frequencies</text>
<text text-anchor="start" x="199" y="-109.2" font-family="Helvetica,sans-Serif" font-size="11.00">[table]</text>
<polygon fill="none" stroke="black" points="10,-79 10,-101 144,-101 144,-79 10,-79"/>
<image xlink:href="../../images/primaryKeys.png" width="11px" height="12px" preserveAspectRatio="xMinYMin meet" x="15" y="-96"/>
<text text-anchor="start" x="30" y="-87.2" font-family="Helvetica,sans-Serif" font-size="11.00">id</text>
<polygon fill="none" stroke="black" points="144,-79 144,-101 238,-101 238,-79 144,-79"/>
<text text-anchor="start" x="147" y="-87.2" font-family="Helvetica,sans-Serif" font-size="11.00">int4[10]</text>
<polygon fill="#ffffff" stroke="transparent" points="10,-57 10,-79 144,-79 144,-57 10,-57"/>
<polygon fill="none" stroke="black" points="10,-57 10,-79 144,-79 144,-57 10,-57"/>
<text text-anchor="start" x="30" y="-65.2" font-family="Helvetica,sans-Serif" font-size="11.00">name</text>
<polygon fill="none" stroke="black" points="144,-57 144,-79 238,-79 238,-57 144,-57"/>
<text text-anchor="start" x="147" y="-65.2" font-family="Helvetica,sans-Serif" font-size="11.00">text[2147483647]</text>
<polygon fill="#ffffff" stroke="transparent" points="10,-39 10,-57 81,-57 81,-39 10,-39"/>
<polygon fill="none" stroke="black" points="10,-39 10,-57 81,-57 81,-39 10,-39"/>
<text text-anchor="start" x="13" y="-45.2" font-family="Helvetica,sans-Serif" font-size="11.00">&lt; 0</text>
<polygon fill="#ffffff" stroke="transparent" points="81,-39 81,-57 144,-57 144,-39 81,-39"/>
<polygon fill="none" stroke="black" points="81,-39 81,-57 144,-57 144,-39 81,-39"/>
<text text-anchor="start" x="134" y="-45.2" font-family="Helvetica,sans-Serif" font-size="11.00"> &#160;</text>
<polygon fill="#ffffff" stroke="transparent" points="144,-39 144,-57 238,-57 238,-39 144,-39"/>
<polygon fill="none" stroke="black" points="144,-39 144,-57 238,-57 238,-39 144,-39"/>
<text text-anchor="start" x="219" y="-45.2" font-family="Helvetica,sans-Serif" font-size="11.00">1 &gt;</text>
<polygon fill="none" stroke="black" stroke-width="2" points="9,-38 9,-124 239,-124 239,-38 9,-38"/>
</a>
</g>
</g>
<!-- project_report_configs&#45;&gt;report_frequencies -->
<g id="edge1" class="edge">
<title>project_report_configs:w&#45;&gt;report_frequencies:e</title>
<path fill="none" stroke="black" d="M273.84,-90C262.41,-90 255.16,-90 239,-90"/>
<polygon fill="black" stroke="black" points="280.5,-90 288.5,-93.6 284.5,-90 288.5,-90 288.5,-90 288.5,-90 284.5,-90 288.5,-86.4 280.5,-90 280.5,-90"/>
<ellipse fill="none" stroke="black" cx="277.3" cy="-90" rx="3.2" ry="3.2"/>
</g>
</g>
</svg>
