<?xml version="1.0" encoding="UTF-8" standalone="no"?>
<!DOCTYPE svg PUBLIC "-//W3C//DTD SVG 1.1//EN"
 "http://www.w3.org/Graphics/SVG/1.1/DTD/svg11.dtd">
<!-- Generated by graphviz version 2.47.1 (20210515.0534)
 -->
<!-- Title: twoDegreesRelationshipsDiagram Pages: 1 -->
<svg width="852pt" height="581pt"
 viewBox="0.00 0.00 852.00 581.00" xmlns="http://www.w3.org/2000/svg" xmlns:xlink="http://www.w3.org/1999/xlink">
<g id="graph0" class="graph" transform="scale(1 1) rotate(0) translate(4 577)">
<title>twoDegreesRelationshipsDiagram</title>
<polygon fill="#ffffff" stroke="transparent" points="-4,4 -4,-577 848,-577 848,4 -4,4"/>
<text text-anchor="middle" x="73.5" y="-7.2" font-family="Helvetica,sans-Serif" font-size="11.00">Generated by SchemaSpy</text>
<!-- project_report_configs -->
<g id="node1" class="node">
<title>project_report_configs</title>
<g id="a_node1"><a xlink:href="../../tables/project_report_configs.html" xlink:title="project_report_configs" target="_top">
<polygon fill="#ffffff" stroke="transparent" points="207.5,-353 207.5,-411 384.5,-411 384.5,-353 207.5,-353"/>
<polygon fill="#f5f5f5" stroke="transparent" points="208,-389 208,-411 385,-411 385,-389 208,-389"/>
<polygon fill="none" stroke="black" points="208,-389 208,-411 385,-411 385,-389 208,-389"/>
<text text-anchor="start" x="213" y="-398.2" font-family="Helvetica,sans-Serif" font-weight="bold" font-size="11.00">project_report_configs</text>
<text text-anchor="start" x="346" y="-397.2" font-family="Helvetica,sans-Serif" font-size="11.00">[table]</text>
<polygon fill="none" stroke="black" points="208,-371 208,-389 385,-389 385,-371 208,-371"/>
<text text-anchor="start" x="211" y="-377.2" font-family="Helvetica,sans-Serif" font-size="11.00">...</text>
<polygon fill="#ffffff" stroke="transparent" points="208,-353 208,-371 290,-371 290,-353 208,-353"/>
<polygon fill="none" stroke="black" points="208,-353 208,-371 290,-371 290,-353 208,-353"/>
<text text-anchor="start" x="211" y="-359.2" font-family="Helvetica,sans-Serif" font-size="11.00">&lt; 1</text>
<polygon fill="#ffffff" stroke="transparent" points="290,-353 290,-371 333,-371 333,-353 290,-353"/>
<polygon fill="none" stroke="black" points="290,-353 290,-371 333,-371 333,-353 290,-353"/>
<text text-anchor="start" x="323" y="-359.2" font-family="Helvetica,sans-Serif" font-size="11.00"> &#160;</text>
<polygon fill="#ffffff" stroke="transparent" points="333,-353 333,-371 385,-371 385,-353 333,-353"/>
<polygon fill="none" stroke="black" points="333,-353 333,-371 385,-371 385,-353 333,-353"/>
<text text-anchor="start" x="366" y="-359.2" font-family="Helvetica,sans-Serif" font-size="11.00">2 &gt;</text>
</a>
</g>
</g>
<!-- public.projects -->
<g id="node2" class="node">
<title>public.projects</title>
<g id="a_node2"><a xlink:href="../../../public/tables/projects.html" xlink:title="public.projects" target="_top">
<polygon fill="#ffffff" stroke="transparent" points="8,-380 8,-438 140,-438 140,-380 8,-380"/>
<polygon fill="#f5f5f5" stroke="transparent" points="8,-416 8,-438 140,-438 140,-416 8,-416"/>
<polygon fill="none" stroke="black" points="8,-416 8,-438 140,-438 140,-416 8,-416"/>
<text text-anchor="start" x="13" y="-425.2" font-family="Helvetica,sans-Serif" font-weight="bold" font-size="11.00">public.projects</text>
<text text-anchor="start" x="101" y="-424.2" font-family="Helvetica,sans-Serif" font-size="11.00">[table]</text>
<polygon fill="none" stroke="black" points="8,-398 8,-416 140,-416 140,-398 8,-398"/>
<text text-anchor="start" x="11" y="-404.2" font-family="Helvetica,sans-Serif" font-size="11.00">...</text>
<polygon fill="#ffffff" stroke="transparent" points="8,-380 8,-398 51,-398 51,-380 8,-380"/>
<polygon fill="none" stroke="black" points="8,-380 8,-398 51,-398 51,-380 8,-380"/>
<text text-anchor="start" x="11" y="-386.2" font-family="Helvetica,sans-Serif" font-size="11.00">&lt; 1</text>
<polygon fill="#ffffff" stroke="transparent" points="51,-380 51,-398 101,-398 101,-380 51,-380"/>
<polygon fill="none" stroke="black" points="51,-380 51,-398 101,-398 101,-380 51,-380"/>
<text text-anchor="start" x="64" y="-386.2" font-family="Helvetica,sans-Serif" font-size="11.00">0 rows</text>
<polygon fill="#ffffff" stroke="transparent" points="101,-380 101,-398 140,-398 140,-380 101,-380"/>
<polygon fill="none" stroke="black" points="101,-380 101,-398 140,-398 140,-380 101,-380"/>
<text text-anchor="start" x="115" y="-386.2" font-family="Helvetica,sans-Serif" font-size="11.00">22 &gt;</text>
</a>
</g>
</g>
<!-- project_report_configs&#45;&gt;public.projects -->
<g id="edge1" class="edge">
<title>project_report_configs:w&#45;&gt;public.projects:e</title>
<path fill="none" stroke="black" d="M192.67,-382.21C173.49,-388.66 167.12,-407 141,-407"/>
<polygon fill="black" stroke="black" points="199.09,-381.22 207.55,-383.56 203.05,-380.61 207,-380 207,-380 207,-380 203.05,-380.61 206.45,-376.44 199.09,-381.22 199.09,-381.22"/>
<ellipse fill="none" stroke="black" cx="195.93" cy="-381.71" rx="3.2" ry="3.2"/>
</g>
<!-- report_achievements -->
<g id="node3" class="node">
<title>report_achievements</title>
<g id="a_node3"><a xlink:href="../../tables/report_achievements.html" xlink:title="report_achievements" target="_top">
<polygon fill="#ffffff" stroke="transparent" points="627,-511 627,-569 798,-569 798,-511 627,-511"/>
<polygon fill="#f5f5f5" stroke="transparent" points="627.5,-547 627.5,-569 798.5,-569 798.5,-547 627.5,-547"/>
<polygon fill="none" stroke="black" points="627.5,-547 627.5,-569 798.5,-569 798.5,-547 627.5,-547"/>
<text text-anchor="start" x="632.5" y="-556.2" font-family="Helvetica,sans-Serif" font-weight="bold" font-size="11.00">report_achievements</text>
<text text-anchor="start" x="759.5" y="-555.2" font-family="Helvetica,sans-Serif" font-size="11.00">[table]</text>
<polygon fill="none" stroke="black" points="627.5,-529 627.5,-547 798.5,-547 798.5,-529 627.5,-529"/>
<text text-anchor="start" x="630.5" y="-535.2" font-family="Helvetica,sans-Serif" font-size="11.00">...</text>
<polygon fill="#ffffff" stroke="transparent" points="627.5,-511 627.5,-529 710.5,-529 710.5,-511 627.5,-511"/>
<polygon fill="none" stroke="black" points="627.5,-511 627.5,-529 710.5,-529 710.5,-511 627.5,-511"/>
<text text-anchor="start" x="630.5" y="-517.2" font-family="Helvetica,sans-Serif" font-size="11.00">&lt; 1</text>
<polygon fill="#ffffff" stroke="transparent" points="710.5,-511 710.5,-529 754.5,-529 754.5,-511 710.5,-511"/>
<polygon fill="none" stroke="black" points="710.5,-511 710.5,-529 754.5,-529 754.5,-511 710.5,-511"/>
<text text-anchor="start" x="744.5" y="-517.2" font-family="Helvetica,sans-Serif" font-size="11.00"> &#160;</text>
<polygon fill="#ffffff" stroke="transparent" points="754.5,-511 754.5,-529 798.5,-529 798.5,-511 754.5,-511"/>
<polygon fill="none" stroke="black" points="754.5,-511 754.5,-529 798.5,-529 798.5,-511 754.5,-511"/>
<text text-anchor="start" x="788.5" y="-517.2" font-family="Helvetica,sans-Serif" font-size="11.00"> &#160;</text>
</a>
</g>
</g>
<!-- reports -->
<g id="node4" class="node">
<title>reports</title>
<g id="a_node4"><a xlink:href="../../tables/reports.html" xlink:title="reports" target="_top">
<polygon fill="#ffffff" stroke="transparent" points="452,-272 452,-330 540,-330 540,-272 452,-272"/>
<polygon fill="#f5f5f5" stroke="transparent" points="452,-308 452,-330 540,-330 540,-308 452,-308"/>
<polygon fill="none" stroke="black" points="452,-308 452,-330 540,-330 540,-308 452,-308"/>
<text text-anchor="start" x="456.5" y="-317.2" font-family="Helvetica,sans-Serif" font-weight="bold" font-size="11.00">reports</text>
<text text-anchor="start" x="501" y="-316.2" font-family="Helvetica,sans-Serif" font-size="11.00">[table]</text>
<polygon fill="none" stroke="black" points="452,-290 452,-308 540,-308 540,-290 452,-290"/>
<text text-anchor="start" x="455" y="-296.2" font-family="Helvetica,sans-Serif" font-size="11.00">...</text>
<polygon fill="#ffffff" stroke="transparent" points="452,-272 452,-290 489,-290 489,-272 452,-272"/>
<polygon fill="none" stroke="black" points="452,-272 452,-290 489,-290 489,-272 452,-272"/>
<text text-anchor="start" x="455" y="-278.2" font-family="Helvetica,sans-Serif" font-size="11.00">&lt; 8</text>
<polygon fill="#ffffff" stroke="transparent" points="489,-272 489,-290 510,-290 510,-272 489,-272"/>
<polygon fill="none" stroke="black" points="489,-272 489,-290 510,-290 510,-272 489,-272"/>
<text text-anchor="start" x="500" y="-278.2" font-family="Helvetica,sans-Serif" font-size="11.00"> &#160;</text>
<polygon fill="#ffffff" stroke="transparent" points="510,-272 510,-290 540,-290 540,-272 510,-272"/>
<polygon fill="none" stroke="black" points="510,-272 510,-290 540,-290 540,-272 510,-272"/>
<text text-anchor="start" x="521" y="-278.2" font-family="Helvetica,sans-Serif" font-size="11.00">7 &gt;</text>
</a>
</g>
</g>
<!-- report_achievements&#45;&gt;reports -->
<g id="edge2" class="edge">
<title>report_achievements:w&#45;&gt;reports:e</title>
<path fill="none" stroke="black" d="M612.01,-536.79C531.81,-523.06 507.16,-395.86 499.89,-334.2"/>
<polygon fill="black" stroke="black" points="618.53,-537.33 626.2,-541.59 622.51,-537.67 626.5,-538 626.5,-538 626.5,-538 622.51,-537.67 626.8,-534.41 618.53,-537.33 618.53,-537.33"/>
<ellipse fill="none" stroke="black" cx="615.34" cy="-537.07" rx="3.2" ry="3.2"/>
</g>
<!-- reports&#45;&gt;project_report_configs -->
<g id="edge11" class="edge">
<title>reports:w&#45;&gt;project_report_configs:e</title>
<path fill="none" stroke="black" d="M454.34,-344.21C435.6,-361.27 411.79,-377.41 386,-380"/>
<polygon fill="black" stroke="black" points="459.01,-339.71 467.27,-336.75 461.89,-336.93 464.77,-334.15 464.77,-334.15 464.77,-334.15 461.89,-336.93 462.27,-331.56 459.01,-339.71 459.01,-339.71"/>
<ellipse fill="none" stroke="black" cx="456.7" cy="-341.93" rx="3.2" ry="3.2"/>
</g>
<!-- reports&#45;&gt;project_report_configs -->
<g id="edge14" class="edge">
<title>reports:w&#45;&gt;project_report_configs:e</title>
<path fill="none" stroke="black" d="M463.72,-344.97C443.88,-365.02 416.31,-383.55 386,-380"/>
<polygon fill="black" stroke="black" points="468.23,-340.03 476.29,-336.55 470.93,-337.08 473.63,-334.12 473.63,-334.12 473.63,-334.12 470.93,-337.08 470.97,-331.7 468.23,-340.03 468.23,-340.03"/>
<ellipse fill="none" stroke="black" cx="466.07" cy="-342.39" rx="3.2" ry="3.2"/>
</g>
<!-- reports&#45;&gt;public.projects -->
<g id="edge15" class="edge">
<title>reports:w&#45;&gt;public.projects:e</title>
<path fill="none" stroke="black" d="M476.21,-347.28C462.5,-374.38 441.05,-406.28 411,-422 320.42,-469.38 281.58,-440.24 181,-422 162.32,-418.61 159.99,-407 141,-407"/>
<polygon fill="black" stroke="black" points="479.06,-341.29 485.74,-335.61 480.78,-337.67 482.49,-334.06 482.49,-334.06 482.49,-334.06 480.78,-337.67 479.24,-332.52 479.06,-341.29 479.06,-341.29"/>
<ellipse fill="none" stroke="black" cx="477.68" cy="-344.18" rx="3.2" ry="3.2"/>
</g>
<!-- public.users -->
<g id="node6" class="node">
<title>public.users</title>
<g id="a_node6"><a xlink:href="../../../public/tables/users.html" xlink:title="public.users" target="_top">
<polygon fill="#ffffff" stroke="transparent" points="238,-195 238,-253 354,-253 354,-195 238,-195"/>
<polygon fill="#f5f5f5" stroke="transparent" points="238,-231 238,-253 354,-253 354,-231 238,-231"/>
<polygon fill="none" stroke="black" points="238,-231 238,-253 354,-253 354,-231 238,-231"/>
<text text-anchor="start" x="243" y="-240.2" font-family="Helvetica,sans-Serif" font-weight="bold" font-size="11.00">public.users</text>
<text text-anchor="start" x="315" y="-239.2" font-family="Helvetica,sans-Serif" font-size="11.00">[table]</text>
<polygon fill="none" stroke="black" points="238,-213 238,-231 354,-231 354,-213 238,-213"/>
<text text-anchor="start" x="241" y="-219.2" font-family="Helvetica,sans-Serif" font-size="11.00">...</text>
<polygon fill="#ffffff" stroke="transparent" points="238,-195 238,-213 268,-213 268,-195 238,-195"/>
<polygon fill="none" stroke="black" points="238,-195 238,-213 268,-213 268,-195 238,-195"/>
<text text-anchor="start" x="241" y="-201.2" font-family="Helvetica,sans-Serif" font-size="11.00"> &#160;</text>
<polygon fill="#ffffff" stroke="transparent" points="268,-195 268,-213 317,-213 317,-195 268,-195"/>
<polygon fill="none" stroke="black" points="268,-195 268,-213 317,-213 317,-195 268,-195"/>
<text text-anchor="start" x="280" y="-201.2" font-family="Helvetica,sans-Serif" font-size="11.00">0 rows</text>
<polygon fill="#ffffff" stroke="transparent" points="317,-195 317,-213 354,-213 354,-195 317,-195"/>
<polygon fill="none" stroke="black" points="317,-195 317,-213 354,-213 354,-195 317,-195"/>
<text text-anchor="start" x="329" y="-201.2" font-family="Helvetica,sans-Serif" font-size="11.00">33 &gt;</text>
</a>
</g>
</g>
<!-- reports&#45;&gt;public.users -->
<g id="edge12" class="edge">
<title>reports:w&#45;&gt;public.users:e</title>
<path fill="none" stroke="black" d="M449.36,-259.1C416.68,-236.38 375.04,-214.71 355,-222"/>
<polygon fill="black" stroke="black" points="454.9,-263.12 459.27,-270.72 458.14,-265.46 461.38,-267.81 461.38,-267.81 461.38,-267.81 458.14,-265.46 463.49,-264.89 454.9,-263.12 454.9,-263.12"/>
<ellipse fill="none" stroke="black" cx="452.31" cy="-261.24" rx="3.2" ry="3.2"/>
</g>
<!-- reports&#45;&gt;public.users -->
<g id="edge13" class="edge">
<title>reports:w&#45;&gt;public.users:e</title>
<path fill="none" stroke="black" d="M436.1,-260.02C406.12,-240.78 372.42,-222 355,-222"/>
<polygon fill="black" stroke="black" points="441.53,-263.57 446.26,-270.97 444.88,-265.76 448.23,-267.95 448.23,-267.95 448.23,-267.95 444.88,-265.76 450.2,-264.94 441.53,-263.57 441.53,-263.57"/>
<ellipse fill="none" stroke="black" cx="438.85" cy="-261.82" rx="3.2" ry="3.2"/>
</g>
<!-- reports&#45;&gt;public.users -->
<g id="edge18" class="edge">
<title>reports:w&#45;&gt;public.users:e</title>
<path fill="none" stroke="black" d="M431.58,-266.84C402.79,-248.2 371.54,-228.02 355,-222"/>
<polygon fill="black" stroke="black" points="437,-270.34 441.76,-277.71 440.35,-272.51 443.71,-274.68 443.71,-274.68 443.71,-274.68 440.35,-272.51 445.67,-271.66 437,-270.34 437,-270.34"/>
<ellipse fill="none" stroke="black" cx="434.31" cy="-268.6" rx="3.2" ry="3.2"/>
</g>
<!-- report_quarters -->
<g id="node11" class="node">
<title>report_quarters</title>
<g id="a_node11"><a xlink:href="../../tables/report_quarters.html" xlink:title="report_quarters" target="_top">
<polygon fill="#ffffff" stroke="transparent" points="189,-68 189,-156 403,-156 403,-68 189,-68"/>
<polygon fill="#f5f5f5" stroke="transparent" points="191,-132 191,-154 401,-154 401,-132 191,-132"/>
<polygon fill="none" stroke="black" points="191,-132 191,-154 401,-154 401,-132 191,-132"/>
<text text-anchor="start" x="196" y="-141.2" font-family="Helvetica,sans-Serif" font-weight="bold" font-size="11.00">report_quarters</text>
<text text-anchor="start" x="362" y="-140.2" font-family="Helvetica,sans-Serif" font-size="11.00">[table]</text>
<polygon fill="none" stroke="black" points="191,-110 191,-132 307,-132 307,-110 191,-110"/>
<image xlink:href="../../images/primaryKeys.png" width="11px" height="12px" preserveAspectRatio="xMinYMin meet" x="196" y="-127"/>
<text text-anchor="start" x="211" y="-118.2" font-family="Helvetica,sans-Serif" font-size="11.00">id</text>
<polygon fill="none" stroke="black" points="307,-110 307,-132 401,-132 401,-110 307,-110"/>
<text text-anchor="start" x="310" y="-118.2" font-family="Helvetica,sans-Serif" font-size="11.00">int4[10]</text>
<polygon fill="#ffffff" stroke="transparent" points="191,-88 191,-110 307,-110 307,-88 191,-88"/>
<polygon fill="none" stroke="black" points="191,-88 191,-110 307,-110 307,-88 191,-88"/>
<text text-anchor="start" x="211" y="-96.2" font-family="Helvetica,sans-Serif" font-size="11.00">name</text>
<polygon fill="none" stroke="black" points="307,-88 307,-110 401,-110 401,-88 307,-88"/>
<text text-anchor="start" x="310" y="-96.2" font-family="Helvetica,sans-Serif" font-size="11.00">text[2147483647]</text>
<polygon fill="#ffffff" stroke="transparent" points="191,-70 191,-88 253,-88 253,-70 191,-70"/>
<polygon fill="none" stroke="black" points="191,-70 191,-88 253,-88 253,-70 191,-70"/>
<text text-anchor="start" x="194" y="-76.2" font-family="Helvetica,sans-Serif" font-size="11.00">&lt; 0</text>
<polygon fill="#ffffff" stroke="transparent" points="253,-70 253,-88 307,-88 307,-70 253,-70"/>
<polygon fill="none" stroke="black" points="253,-70 253,-88 307,-88 307,-70 253,-70"/>
<text text-anchor="start" x="297" y="-76.2" font-family="Helvetica,sans-Serif" font-size="11.00"> &#160;</text>
<polygon fill="#ffffff" stroke="transparent" points="307,-70 307,-88 401,-88 401,-70 307,-70"/>
<polygon fill="none" stroke="black" points="307,-70 307,-88 401,-88 401,-70 307,-70"/>
<text text-anchor="start" x="382" y="-76.2" font-family="Helvetica,sans-Serif" font-size="11.00">2 &gt;</text>
<polygon fill="none" stroke="black" stroke-width="2" points="190,-69 190,-155 402,-155 402,-69 190,-69"/>
</a>
</g>
</g>
<!-- reports&#45;&gt;report_quarters -->
<g id="edge16" class="edge">
<title>reports:w&#45;&gt;report_quarters:e</title>
<path fill="none" stroke="black" d="M490.76,-253.38C483.1,-200.05 461.67,-121 402,-121"/>
<polygon fill="black" stroke="black" points="491.61,-260.05 489.05,-268.44 492.11,-264.02 492.62,-267.99 492.62,-267.99 492.62,-267.99 492.11,-264.02 496.19,-267.53 491.61,-260.05 491.61,-260.05"/>
<ellipse fill="none" stroke="black" cx="491.21" cy="-256.87" rx="3.2" ry="3.2"/>
</g>
<!-- report_statuses -->
<g id="node12" class="node">
<title>report_statuses</title>
<g id="a_node12"><a xlink:href="../../tables/report_statuses.html" xlink:title="report_statuses" target="_top">
<polygon fill="#ffffff" stroke="transparent" points="227.5,-274 227.5,-332 364.5,-332 364.5,-274 227.5,-274"/>
<polygon fill="#f5f5f5" stroke="transparent" points="228,-310 228,-332 365,-332 365,-310 228,-310"/>
<polygon fill="none" stroke="black" points="228,-310 228,-332 365,-332 365,-310 228,-310"/>
<text text-anchor="start" x="233" y="-319.2" font-family="Helvetica,sans-Serif" font-weight="bold" font-size="11.00">report_statuses</text>
<text text-anchor="start" x="326" y="-318.2" font-family="Helvetica,sans-Serif" font-size="11.00">[table]</text>
<polygon fill="none" stroke="black" points="228,-292 228,-310 365,-310 365,-292 228,-292"/>
<text text-anchor="start" x="231" y="-298.2" font-family="Helvetica,sans-Serif" font-size="11.00">...</text>
<polygon fill="#ffffff" stroke="transparent" points="228,-274 228,-292 285,-292 285,-274 228,-274"/>
<polygon fill="none" stroke="black" points="228,-274 228,-292 285,-292 285,-274 228,-274"/>
<text text-anchor="start" x="231" y="-280.2" font-family="Helvetica,sans-Serif" font-size="11.00"> &#160;</text>
<polygon fill="#ffffff" stroke="transparent" points="285,-274 285,-292 320,-292 320,-274 285,-274"/>
<polygon fill="none" stroke="black" points="285,-274 285,-292 320,-292 320,-274 285,-274"/>
<text text-anchor="start" x="310" y="-280.2" font-family="Helvetica,sans-Serif" font-size="11.00"> &#160;</text>
<polygon fill="#ffffff" stroke="transparent" points="320,-274 320,-292 365,-292 365,-274 320,-274"/>
<polygon fill="none" stroke="black" points="320,-274 320,-292 365,-292 365,-274 320,-274"/>
<text text-anchor="start" x="346" y="-280.2" font-family="Helvetica,sans-Serif" font-size="11.00">1 &gt;</text>
</a>
</g>
</g>
<!-- reports&#45;&gt;report_statuses -->
<g id="edge17" class="edge">
<title>reports:w&#45;&gt;report_statuses:e</title>
<path fill="none" stroke="black" d="M429.17,-301C408.91,-301 386.53,-301 366,-301"/>
<polygon fill="black" stroke="black" points="435.84,-301 443.84,-304.6 439.84,-301 443.84,-301 443.84,-301 443.84,-301 439.84,-301 443.84,-297.4 435.84,-301 435.84,-301"/>
<ellipse fill="none" stroke="black" cx="432.64" cy="-301" rx="3.2" ry="3.2"/>
</g>
<!-- report_auto_calculated_indicators -->
<g id="node5" class="node">
<title>report_auto_calculated_indicators</title>
<g id="a_node5"><a xlink:href="../../tables/report_auto_calculated_indicators.html" xlink:title="report_auto_calculated_indicators" target="_top">
<polygon fill="#ffffff" stroke="transparent" points="589,-195 589,-253 836,-253 836,-195 589,-195"/>
<polygon fill="#f5f5f5" stroke="transparent" points="589.5,-231 589.5,-253 836.5,-253 836.5,-231 589.5,-231"/>
<polygon fill="none" stroke="black" points="589.5,-231 589.5,-253 836.5,-253 836.5,-231 589.5,-231"/>
<text text-anchor="start" x="594.5" y="-240.2" font-family="Helvetica,sans-Serif" font-weight="bold" font-size="11.00">report_auto_calculated_indicators</text>
<text text-anchor="start" x="797.5" y="-239.2" font-family="Helvetica,sans-Serif" font-size="11.00">[table]</text>
<polygon fill="none" stroke="black" points="589.5,-213 589.5,-231 836.5,-231 836.5,-213 589.5,-213"/>
<text text-anchor="start" x="592.5" y="-219.2" font-family="Helvetica,sans-Serif" font-size="11.00">...</text>
<polygon fill="#ffffff" stroke="transparent" points="589.5,-195 589.5,-213 710.5,-213 710.5,-195 589.5,-195"/>
<polygon fill="none" stroke="black" points="589.5,-195 589.5,-213 710.5,-213 710.5,-195 589.5,-195"/>
<text text-anchor="start" x="592.5" y="-201.2" font-family="Helvetica,sans-Serif" font-size="11.00">&lt; 4</text>
<polygon fill="#ffffff" stroke="transparent" points="710.5,-195 710.5,-213 773.5,-213 773.5,-195 710.5,-195"/>
<polygon fill="none" stroke="black" points="710.5,-195 710.5,-213 773.5,-213 773.5,-195 710.5,-195"/>
<text text-anchor="start" x="763.5" y="-201.2" font-family="Helvetica,sans-Serif" font-size="11.00"> &#160;</text>
<polygon fill="#ffffff" stroke="transparent" points="773.5,-195 773.5,-213 836.5,-213 836.5,-195 773.5,-195"/>
<polygon fill="none" stroke="black" points="773.5,-195 773.5,-213 836.5,-213 836.5,-195 773.5,-195"/>
<text text-anchor="start" x="826.5" y="-201.2" font-family="Helvetica,sans-Serif" font-size="11.00"> &#160;</text>
</a>
</g>
</g>
<!-- report_auto_calculated_indicators&#45;&gt;reports -->
<g id="edge4" class="edge">
<title>report_auto_calculated_indicators:w&#45;&gt;reports:e</title>
<path fill="none" stroke="black" d="M573.92,-223.93C550.58,-230.09 531.07,-249.94 517.54,-267.95"/>
<polygon fill="black" stroke="black" points="580.57,-223.05 588.97,-225.57 584.53,-222.52 588.5,-222 588.5,-222 588.5,-222 584.53,-222.52 588.03,-218.43 580.57,-223.05 580.57,-223.05"/>
<ellipse fill="none" stroke="black" cx="577.4" cy="-223.47" rx="3.2" ry="3.2"/>
</g>
<!-- report_auto_calculated_indicators&#45;&gt;public.users -->
<g id="edge3" class="edge">
<title>report_auto_calculated_indicators:w&#45;&gt;public.users:e</title>
<path fill="none" stroke="black" d="M573.84,-222C482,-222 453.71,-222 355,-222"/>
<polygon fill="black" stroke="black" points="580.5,-222 588.5,-225.6 584.5,-222 588.5,-222 588.5,-222 588.5,-222 584.5,-222 588.5,-218.4 580.5,-222 580.5,-222"/>
<ellipse fill="none" stroke="black" cx="577.3" cy="-222" rx="3.2" ry="3.2"/>
</g>
<!-- report_challenges -->
<g id="node7" class="node">
<title>report_challenges</title>
<g id="a_node7"><a xlink:href="../../tables/report_challenges.html" xlink:title="report_challenges" target="_top">
<polygon fill="#ffffff" stroke="transparent" points="637.5,-432 637.5,-490 787.5,-490 787.5,-432 637.5,-432"/>
<polygon fill="#f5f5f5" stroke="transparent" points="637.5,-468 637.5,-490 787.5,-490 787.5,-468 637.5,-468"/>
<polygon fill="none" stroke="black" points="637.5,-468 637.5,-490 787.5,-490 787.5,-468 637.5,-468"/>
<text text-anchor="start" x="642.5" y="-477.2" font-family="Helvetica,sans-Serif" font-weight="bold" font-size="11.00">report_challenges</text>
<text text-anchor="start" x="748.5" y="-476.2" font-family="Helvetica,sans-Serif" font-size="11.00">[table]</text>
<polygon fill="none" stroke="black" points="637.5,-450 637.5,-468 787.5,-468 787.5,-450 637.5,-450"/>
<text text-anchor="start" x="640.5" y="-456.2" font-family="Helvetica,sans-Serif" font-size="11.00">...</text>
<polygon fill="#ffffff" stroke="transparent" points="637.5,-432 637.5,-450 710.5,-450 710.5,-432 637.5,-432"/>
<polygon fill="none" stroke="black" points="637.5,-432 637.5,-450 710.5,-450 710.5,-432 637.5,-432"/>
<text text-anchor="start" x="640.5" y="-438.2" font-family="Helvetica,sans-Serif" font-size="11.00">&lt; 1</text>
<polygon fill="#ffffff" stroke="transparent" points="710.5,-432 710.5,-450 748.5,-450 748.5,-432 710.5,-432"/>
<polygon fill="none" stroke="black" points="710.5,-432 710.5,-450 748.5,-450 748.5,-432 710.5,-432"/>
<text text-anchor="start" x="738.5" y="-438.2" font-family="Helvetica,sans-Serif" font-size="11.00"> &#160;</text>
<polygon fill="#ffffff" stroke="transparent" points="748.5,-432 748.5,-450 787.5,-450 787.5,-432 748.5,-432"/>
<polygon fill="none" stroke="black" points="748.5,-432 748.5,-450 787.5,-450 787.5,-432 748.5,-432"/>
<text text-anchor="start" x="777.5" y="-438.2" font-family="Helvetica,sans-Serif" font-size="11.00"> &#160;</text>
</a>
</g>
</g>
<!-- report_challenges&#45;&gt;reports -->
<g id="edge5" class="edge">
<title>report_challenges:w&#45;&gt;reports:e</title>
<path fill="none" stroke="black" d="M621.82,-457.68C564.15,-447.22 526.73,-376.92 509.01,-334.12"/>
<polygon fill="black" stroke="black" points="628.53,-458.28 636.18,-462.59 632.52,-458.64 636.5,-459 636.5,-459 636.5,-459 632.52,-458.64 636.82,-455.41 628.53,-458.28 628.53,-458.28"/>
<ellipse fill="none" stroke="black" cx="625.34" cy="-458" rx="3.2" ry="3.2"/>
</g>
<!-- report_common_indicators -->
<g id="node8" class="node">
<title>report_common_indicators</title>
<g id="a_node8"><a xlink:href="../../tables/report_common_indicators.html" xlink:title="report_common_indicators" target="_top">
<polygon fill="#ffffff" stroke="transparent" points="610.5,-274 610.5,-332 814.5,-332 814.5,-274 610.5,-274"/>
<polygon fill="#f5f5f5" stroke="transparent" points="610.5,-310 610.5,-332 814.5,-332 814.5,-310 610.5,-310"/>
<polygon fill="none" stroke="black" points="610.5,-310 610.5,-332 814.5,-332 814.5,-310 610.5,-310"/>
<text text-anchor="start" x="615.5" y="-319.2" font-family="Helvetica,sans-Serif" font-weight="bold" font-size="11.00">report_common_indicators</text>
<text text-anchor="start" x="775.5" y="-318.2" font-family="Helvetica,sans-Serif" font-size="11.00">[table]</text>
<polygon fill="none" stroke="black" points="610.5,-292 610.5,-310 814.5,-310 814.5,-292 610.5,-292"/>
<text text-anchor="start" x="613.5" y="-298.2" font-family="Helvetica,sans-Serif" font-size="11.00">...</text>
<polygon fill="#ffffff" stroke="transparent" points="610.5,-274 610.5,-292 710.5,-292 710.5,-274 610.5,-274"/>
<polygon fill="none" stroke="black" points="610.5,-274 610.5,-292 710.5,-292 710.5,-274 610.5,-274"/>
<text text-anchor="start" x="613.5" y="-280.2" font-family="Helvetica,sans-Serif" font-size="11.00">&lt; 4</text>
<polygon fill="#ffffff" stroke="transparent" points="710.5,-274 710.5,-292 762.5,-292 762.5,-274 710.5,-274"/>
<polygon fill="none" stroke="black" points="710.5,-274 710.5,-292 762.5,-292 762.5,-274 710.5,-274"/>
<text text-anchor="start" x="752.5" y="-280.2" font-family="Helvetica,sans-Serif" font-size="11.00"> &#160;</text>
<polygon fill="#ffffff" stroke="transparent" points="762.5,-274 762.5,-292 814.5,-292 814.5,-274 762.5,-274"/>
<polygon fill="none" stroke="black" points="762.5,-274 762.5,-292 814.5,-292 814.5,-274 762.5,-274"/>
<text text-anchor="start" x="804.5" y="-280.2" font-family="Helvetica,sans-Serif" font-size="11.00"> &#160;</text>
</a>
</g>
</g>
<!-- report_common_indicators&#45;&gt;reports -->
<g id="edge7" class="edge">
<title>report_common_indicators:w&#45;&gt;reports:e</title>
<path fill="none" stroke="black" d="M594.67,-301C578.98,-301 562.8,-301 548.24,-301"/>
<polygon fill="black" stroke="black" points="601.5,-301 609.5,-304.6 605.5,-301 609.5,-301 609.5,-301 609.5,-301 605.5,-301 609.5,-297.4 601.5,-301 601.5,-301"/>
<ellipse fill="none" stroke="black" cx="598.3" cy="-301" rx="3.2" ry="3.2"/>
</g>
<!-- report_common_indicators&#45;&gt;public.users -->
<g id="edge6" class="edge">
<title>report_common_indicators:w&#45;&gt;public.users:e</title>
<path fill="none" stroke="black" d="M595.16,-298.74C576.48,-292.01 572.73,-272.01 548,-262 507.4,-245.56 398.8,-222 355,-222"/>
<polygon fill="black" stroke="black" points="601.6,-299.75 608.94,-304.56 605.55,-300.38 609.5,-301 609.5,-301 609.5,-301 605.55,-300.38 610.06,-297.44 601.6,-299.75 601.6,-299.75"/>
<ellipse fill="none" stroke="black" cx="598.44" cy="-299.25" rx="3.2" ry="3.2"/>
</g>
<!-- report_photos -->
<g id="node9" class="node">
<title>report_photos</title>
<g id="a_node9"><a xlink:href="../../tables/report_photos.html" xlink:title="report_photos" target="_top">
<polygon fill="#ffffff" stroke="transparent" points="648.5,-353 648.5,-411 776.5,-411 776.5,-353 648.5,-353"/>
<polygon fill="#f5f5f5" stroke="transparent" points="648.5,-389 648.5,-411 776.5,-411 776.5,-389 648.5,-389"/>
<polygon fill="none" stroke="black" points="648.5,-389 648.5,-411 776.5,-411 776.5,-389 648.5,-389"/>
<text text-anchor="start" x="653.5" y="-398.2" font-family="Helvetica,sans-Serif" font-weight="bold" font-size="11.00">report_photos</text>
<text text-anchor="start" x="737.5" y="-397.2" font-family="Helvetica,sans-Serif" font-size="11.00">[table]</text>
<polygon fill="none" stroke="black" points="648.5,-371 648.5,-389 776.5,-389 776.5,-371 648.5,-371"/>
<text text-anchor="start" x="651.5" y="-377.2" font-family="Helvetica,sans-Serif" font-size="11.00">...</text>
<polygon fill="#ffffff" stroke="transparent" points="648.5,-353 648.5,-371 705.5,-371 705.5,-353 648.5,-353"/>
<polygon fill="none" stroke="black" points="648.5,-353 648.5,-371 705.5,-371 705.5,-353 648.5,-353"/>
<text text-anchor="start" x="651.5" y="-359.2" font-family="Helvetica,sans-Serif" font-size="11.00">&lt; 2</text>
<polygon fill="#ffffff" stroke="transparent" points="705.5,-353 705.5,-371 736.5,-371 736.5,-353 705.5,-353"/>
<polygon fill="none" stroke="black" points="705.5,-353 705.5,-371 736.5,-371 736.5,-353 705.5,-353"/>
<text text-anchor="start" x="726.5" y="-359.2" font-family="Helvetica,sans-Serif" font-size="11.00"> &#160;</text>
<polygon fill="#ffffff" stroke="transparent" points="736.5,-353 736.5,-371 776.5,-371 776.5,-353 736.5,-353"/>
<polygon fill="none" stroke="black" points="736.5,-353 736.5,-371 776.5,-371 776.5,-353 736.5,-353"/>
<text text-anchor="start" x="757.5" y="-359.2" font-family="Helvetica,sans-Serif" font-size="11.00">2 &gt;</text>
</a>
</g>
</g>
<!-- report_photos&#45;&gt;reports -->
<g id="edge8" class="edge">
<title>report_photos:w&#45;&gt;reports:e</title>
<path fill="none" stroke="black" d="M632.8,-379.04C595.99,-374.34 560.49,-353.16 535.02,-334.05"/>
<polygon fill="black" stroke="black" points="639.52,-379.48 647.27,-383.59 643.51,-379.74 647.5,-380 647.5,-380 647.5,-380 643.51,-379.74 647.73,-376.41 639.52,-379.48 639.52,-379.48"/>
<ellipse fill="none" stroke="black" cx="636.32" cy="-379.27" rx="3.2" ry="3.2"/>
</g>
<!-- report_project_indicators -->
<g id="node10" class="node">
<title>report_project_indicators</title>
<g id="a_node10"><a xlink:href="../../tables/report_project_indicators.html" xlink:title="report_project_indicators" target="_top">
<polygon fill="#ffffff" stroke="transparent" points="615.5,-116 615.5,-174 809.5,-174 809.5,-116 615.5,-116"/>
<polygon fill="#f5f5f5" stroke="transparent" points="615.5,-152 615.5,-174 809.5,-174 809.5,-152 615.5,-152"/>
<polygon fill="none" stroke="black" points="615.5,-152 615.5,-174 809.5,-174 809.5,-152 615.5,-152"/>
<text text-anchor="start" x="620.5" y="-161.2" font-family="Helvetica,sans-Serif" font-weight="bold" font-size="11.00">report_project_indicators</text>
<text text-anchor="start" x="770.5" y="-160.2" font-family="Helvetica,sans-Serif" font-size="11.00">[table]</text>
<polygon fill="none" stroke="black" points="615.5,-134 615.5,-152 809.5,-152 809.5,-134 615.5,-134"/>
<text text-anchor="start" x="618.5" y="-140.2" font-family="Helvetica,sans-Serif" font-size="11.00">...</text>
<polygon fill="#ffffff" stroke="transparent" points="615.5,-116 615.5,-134 710.5,-134 710.5,-116 615.5,-116"/>
<polygon fill="none" stroke="black" points="615.5,-116 615.5,-134 710.5,-134 710.5,-116 615.5,-116"/>
<text text-anchor="start" x="618.5" y="-122.2" font-family="Helvetica,sans-Serif" font-size="11.00">&lt; 4</text>
<polygon fill="#ffffff" stroke="transparent" points="710.5,-116 710.5,-134 759.5,-134 759.5,-116 710.5,-116"/>
<polygon fill="none" stroke="black" points="710.5,-116 710.5,-134 759.5,-134 759.5,-116 710.5,-116"/>
<text text-anchor="start" x="749.5" y="-122.2" font-family="Helvetica,sans-Serif" font-size="11.00"> &#160;</text>
<polygon fill="#ffffff" stroke="transparent" points="759.5,-116 759.5,-134 809.5,-134 809.5,-116 759.5,-116"/>
<polygon fill="none" stroke="black" points="759.5,-116 759.5,-134 809.5,-134 809.5,-116 759.5,-116"/>
<text text-anchor="start" x="799.5" y="-122.2" font-family="Helvetica,sans-Serif" font-size="11.00"> &#160;</text>
</a>
</g>
</g>
<!-- report_project_indicators&#45;&gt;reports -->
<g id="edge10" class="edge">
<title>report_project_indicators:w&#45;&gt;reports:e</title>
<path fill="none" stroke="black" d="M599.89,-144.52C547.49,-155.67 518.53,-225.35 505.53,-267.88"/>
<polygon fill="black" stroke="black" points="606.54,-143.83 614.87,-146.58 610.52,-143.42 614.5,-143 614.5,-143 614.5,-143 610.52,-143.42 614.13,-139.42 606.54,-143.83 606.54,-143.83"/>
<ellipse fill="none" stroke="black" cx="603.36" cy="-144.16" rx="3.2" ry="3.2"/>
</g>
<!-- report_project_indicators&#45;&gt;public.users -->
<g id="edge9" class="edge">
<title>report_project_indicators:w&#45;&gt;public.users:e</title>
<path fill="none" stroke="black" d="M599.84,-143.41C492.22,-149.5 470.5,-222 355,-222"/>
<polygon fill="black" stroke="black" points="606.5,-143.22 614.6,-146.6 610.5,-143.11 614.5,-143 614.5,-143 614.5,-143 610.5,-143.11 614.4,-139.4 606.5,-143.22 606.5,-143.22"/>
<ellipse fill="none" stroke="black" cx="603.3" cy="-143.31" rx="3.2" ry="3.2"/>
</g>
<!-- funder.published_reports -->
<g id="node13" class="node">
<title>funder.published_reports</title>
<g id="a_node13"><a xlink:href="../../../funder/tables/published_reports.html" xlink:title="funder.published_reports" target="_top">
<polygon fill="#ffffff" stroke="transparent" points="614.5,-37 614.5,-95 810.5,-95 810.5,-37 614.5,-37"/>
<polygon fill="#f5f5f5" stroke="transparent" points="614.5,-73 614.5,-95 810.5,-95 810.5,-73 614.5,-73"/>
<polygon fill="none" stroke="black" points="614.5,-73 614.5,-95 810.5,-95 810.5,-73 614.5,-73"/>
<text text-anchor="start" x="619.5" y="-82.2" font-family="Helvetica,sans-Serif" font-weight="bold" font-size="11.00">funder.published_reports</text>
<text text-anchor="start" x="771.5" y="-81.2" font-family="Helvetica,sans-Serif" font-size="11.00">[table]</text>
<polygon fill="none" stroke="black" points="614.5,-55 614.5,-73 810.5,-73 810.5,-55 614.5,-55"/>
<text text-anchor="start" x="617.5" y="-61.2" font-family="Helvetica,sans-Serif" font-size="11.00">...</text>
<polygon fill="#ffffff" stroke="transparent" points="614.5,-37 614.5,-55 696.5,-55 696.5,-37 614.5,-37"/>
<polygon fill="none" stroke="black" points="614.5,-37 614.5,-55 696.5,-55 696.5,-37 614.5,-37"/>
<text text-anchor="start" x="617.5" y="-43.2" font-family="Helvetica,sans-Serif" font-size="11.00">&lt; 2</text>
<polygon fill="#ffffff" stroke="transparent" points="696.5,-37 696.5,-55 766.5,-55 766.5,-37 696.5,-37"/>
<polygon fill="none" stroke="black" points="696.5,-37 696.5,-55 766.5,-55 766.5,-37 696.5,-37"/>
<text text-anchor="start" x="729.5" y="-43.2" font-family="Helvetica,sans-Serif" font-size="11.00">0 rows</text>
<polygon fill="#ffffff" stroke="transparent" points="766.5,-37 766.5,-55 810.5,-55 810.5,-37 766.5,-37"/>
<polygon fill="none" stroke="black" points="766.5,-37 766.5,-55 810.5,-55 810.5,-37 766.5,-37"/>
<text text-anchor="start" x="800.5" y="-43.2" font-family="Helvetica,sans-Serif" font-size="11.00"> &#160;</text>
</a>
</g>
</g>
<!-- funder.published_reports&#45;&gt;reports -->
<g id="edge19" class="edge">
<title>funder.published_reports:w&#45;&gt;reports:e</title>
<path fill="none" stroke="black" d="M593.41,-95.54C589.03,-98.41 584.87,-101.55 581,-105 532.5,-148.24 511.02,-224.31 502.31,-267.87"/>
<polygon fill="black" stroke="black" points="599.31,-92.16 608.04,-91.3 602.78,-90.17 606.25,-88.18 606.25,-88.18 606.25,-88.18 602.78,-90.17 604.46,-85.05 599.31,-92.16 599.31,-92.16"/>
<ellipse fill="none" stroke="black" cx="596.53" cy="-93.75" rx="3.2" ry="3.2"/>
</g>
<!-- funder.published_reports&#45;&gt;report_quarters -->
<g id="edge20" class="edge">
<title>funder.published_reports:w&#45;&gt;report_quarters:e</title>
<path fill="none" stroke="black" d="M592.08,-97.31C534.98,-109.68 465.39,-121 402,-121"/>
<polygon fill="black" stroke="black" points="598.51,-95.88 607.1,-97.66 602.42,-95.01 606.32,-94.14 606.32,-94.14 606.32,-94.14 602.42,-95.01 605.54,-90.63 598.51,-95.88 598.51,-95.88"/>
<ellipse fill="none" stroke="black" cx="595.39" cy="-96.57" rx="3.2" ry="3.2"/>
</g>
</g>
</svg>
