<?xml version="1.0" encoding="UTF-8" standalone="no"?>
<!DOCTYPE svg PUBLIC "-//W3C//DTD SVG 1.1//EN"
 "http://www.w3.org/Graphics/SVG/1.1/DTD/svg11.dtd">
<!-- Generated by graphviz version 2.47.1 (20210515.0534)
 -->
<!-- Title: oneDegreeRelationshipsDiagram Pages: 1 -->
<svg width="717pt" height="626pt"
 viewBox="0.00 0.00 717.00 626.00" xmlns="http://www.w3.org/2000/svg" xmlns:xlink="http://www.w3.org/1999/xlink">
<g id="graph0" class="graph" transform="scale(1 1) rotate(0) translate(4 622)">
<title>oneDegreeRelationshipsDiagram</title>
<polygon fill="#ffffff" stroke="transparent" points="-4,4 -4,-622 713,-622 713,4 -4,4"/>
<text text-anchor="middle" x="73.5" y="-7.2" font-family="Helvetica,sans-Serif" font-size="11.00">Generated by SchemaSpy</text>
<!-- report_project_metrics -->
<g id="node1" class="node">
<title>report_project_metrics</title>
<g id="a_node1"><a xlink:href="../../tables/report_project_metrics.html" xlink:title="report_project_metrics" target="_top">
<polygon fill="#ffffff" stroke="transparent" points="440,-83 440,-325 701,-325 701,-83 440,-83"/>
<polygon fill="#f5f5f5" stroke="transparent" points="442.5,-301 442.5,-323 699.5,-323 699.5,-301 442.5,-301"/>
<polygon fill="none" stroke="black" points="442.5,-301 442.5,-323 699.5,-323 699.5,-301 442.5,-301"/>
<text text-anchor="start" x="447.5" y="-310.2" font-family="Helvetica,sans-Serif" font-weight="bold" font-size="11.00">report_project_metrics</text>
<text text-anchor="start" x="660.5" y="-309.2" font-family="Helvetica,sans-Serif" font-size="11.00">[table]</text>
<polygon fill="none" stroke="black" points="442.5,-279 442.5,-301 599.5,-301 599.5,-279 442.5,-279"/>
<image xlink:href="../../images/primaryKeys.png" width="11px" height="12px" preserveAspectRatio="xMinYMin meet" x="447.5" y="-296"/>
<text text-anchor="start" x="462.5" y="-287.2" font-family="Helvetica,sans-Serif" font-size="11.00">report_id</text>
<polygon fill="none" stroke="black" points="599.5,-279 599.5,-301 699.5,-301 699.5,-279 599.5,-279"/>
<text text-anchor="start" x="602.5" y="-287.2" font-family="Helvetica,sans-Serif" font-size="11.00">int8[19]</text>
<polygon fill="none" stroke="black" points="442.5,-257 442.5,-279 599.5,-279 599.5,-257 442.5,-257"/>
<image xlink:href="../../images/primaryKeys.png" width="11px" height="12px" preserveAspectRatio="xMinYMin meet" x="447.5" y="-274"/>
<text text-anchor="start" x="462.5" y="-265.2" font-family="Helvetica,sans-Serif" font-size="11.00">project_metric_id</text>
<polygon fill="none" stroke="black" points="599.5,-257 599.5,-279 699.5,-279 699.5,-257 599.5,-257"/>
<text text-anchor="start" x="602.5" y="-265.2" font-family="Helvetica,sans-Serif" font-size="11.00">int8[19]</text>
<polygon fill="none" stroke="black" points="442.5,-235 442.5,-257 599.5,-257 599.5,-235 442.5,-235"/>
<text text-anchor="start" x="462.5" y="-243.2" font-family="Helvetica,sans-Serif" font-size="11.00">target</text>
<polygon fill="none" stroke="black" points="599.5,-235 599.5,-257 699.5,-257 699.5,-235 599.5,-235"/>
<text text-anchor="start" x="602.5" y="-243.2" font-family="Helvetica,sans-Serif" font-size="11.00">int4[10]</text>
<polygon fill="none" stroke="black" points="442.5,-213 442.5,-235 599.5,-235 599.5,-213 442.5,-213"/>
<text text-anchor="start" x="462.5" y="-221.2" font-family="Helvetica,sans-Serif" font-size="11.00">value</text>
<polygon fill="none" stroke="black" points="599.5,-213 599.5,-235 699.5,-235 699.5,-213 599.5,-213"/>
<text text-anchor="start" x="602.5" y="-221.2" font-family="Helvetica,sans-Serif" font-size="11.00">int4[10]</text>
<polygon fill="none" stroke="black" points="442.5,-191 442.5,-213 599.5,-213 599.5,-191 442.5,-191"/>
<text text-anchor="start" x="462.5" y="-199.2" font-family="Helvetica,sans-Serif" font-size="11.00">projects_comments</text>
<polygon fill="none" stroke="black" points="599.5,-191 599.5,-213 699.5,-213 699.5,-191 599.5,-191"/>
<text text-anchor="start" x="602.5" y="-199.2" font-family="Helvetica,sans-Serif" font-size="11.00">text[2147483647]</text>
<polygon fill="none" stroke="black" points="442.5,-169 442.5,-191 599.5,-191 599.5,-169 442.5,-169"/>
<text text-anchor="start" x="462.5" y="-177.2" font-family="Helvetica,sans-Serif" font-size="11.00">progress_notes</text>
<polygon fill="none" stroke="black" points="599.5,-169 599.5,-191 699.5,-191 699.5,-169 599.5,-169"/>
<text text-anchor="start" x="602.5" y="-177.2" font-family="Helvetica,sans-Serif" font-size="11.00">text[2147483647]</text>
<polygon fill="none" stroke="black" points="442.5,-147 442.5,-169 599.5,-169 599.5,-147 442.5,-147"/>
<image xlink:href="../../images/foreignKeys.png" width="11px" height="12px" preserveAspectRatio="xMinYMin meet" x="447.5" y="-164"/>
<text text-anchor="start" x="462.5" y="-155.2" font-family="Helvetica,sans-Serif" font-size="11.00">modified_by</text>
<polygon fill="none" stroke="black" points="599.5,-147 599.5,-169 699.5,-169 699.5,-147 599.5,-147"/>
<text text-anchor="start" x="602.5" y="-155.2" font-family="Helvetica,sans-Serif" font-size="11.00">int8[19]</text>
<polygon fill="none" stroke="black" points="442.5,-125 442.5,-147 599.5,-147 599.5,-125 442.5,-125"/>
<text text-anchor="start" x="462.5" y="-133.2" font-family="Helvetica,sans-Serif" font-size="11.00">modified_time</text>
<polygon fill="none" stroke="black" points="599.5,-125 599.5,-147 699.5,-147 699.5,-125 599.5,-125"/>
<text text-anchor="start" x="602.5" y="-133.2" font-family="Helvetica,sans-Serif" font-size="11.00">timestamptz[35,6]</text>
<polygon fill="none" stroke="black" points="442.5,-103 442.5,-125 599.5,-125 599.5,-103 442.5,-103"/>
<image xlink:href="../../images/foreignKeys.png" width="11px" height="12px" preserveAspectRatio="xMinYMin meet" x="447.5" y="-120"/>
<text text-anchor="start" x="462.5" y="-111.2" font-family="Helvetica,sans-Serif" font-size="11.00">status_id</text>
<polygon fill="none" stroke="black" points="599.5,-103 599.5,-125 699.5,-125 699.5,-103 599.5,-103"/>
<text text-anchor="start" x="602.5" y="-111.2" font-family="Helvetica,sans-Serif" font-size="11.00">int4[10]</text>
<polygon fill="#ffffff" stroke="transparent" points="442.5,-85 442.5,-103 525.5,-103 525.5,-85 442.5,-85"/>
<polygon fill="none" stroke="black" points="442.5,-85 442.5,-103 525.5,-103 525.5,-85 442.5,-85"/>
<text text-anchor="start" x="445.5" y="-91.2" font-family="Helvetica,sans-Serif" font-size="11.00">&lt; 4</text>
<polygon fill="#ffffff" stroke="transparent" points="525.5,-85 525.5,-103 599.5,-103 599.5,-85 525.5,-85"/>
<polygon fill="none" stroke="black" points="525.5,-85 525.5,-103 599.5,-103 599.5,-85 525.5,-85"/>
<text text-anchor="start" x="589.5" y="-91.2" font-family="Helvetica,sans-Serif" font-size="11.00"> &#160;</text>
<polygon fill="#ffffff" stroke="transparent" points="599.5,-85 599.5,-103 699.5,-103 699.5,-85 599.5,-85"/>
<polygon fill="none" stroke="black" points="599.5,-85 599.5,-103 699.5,-103 699.5,-85 599.5,-85"/>
<text text-anchor="start" x="680.5" y="-91.2" font-family="Helvetica,sans-Serif" font-size="11.00">0 &gt;</text>
<polygon fill="none" stroke="black" stroke-width="2" points="441,-84 441,-324 700,-324 700,-84 441,-84"/>
</a>
</g>
</g>
<!-- public.users -->
<g id="node2" class="node">
<title>public.users</title>
<g id="a_node2"><a xlink:href="../../../public/tables/users.html" xlink:title="public.users" target="_top">
<polygon fill="#ffffff" stroke="transparent" points="8,-409 8,-467 124,-467 124,-409 8,-409"/>
<polygon fill="#f5f5f5" stroke="transparent" points="8,-445 8,-467 124,-467 124,-445 8,-445"/>
<polygon fill="none" stroke="black" points="8,-445 8,-467 124,-467 124,-445 8,-445"/>
<text text-anchor="start" x="13" y="-454.2" font-family="Helvetica,sans-Serif" font-weight="bold" font-size="11.00">public.users</text>
<text text-anchor="start" x="85" y="-453.2" font-family="Helvetica,sans-Serif" font-size="11.00">[table]</text>
<polygon fill="none" stroke="black" points="8,-427 8,-445 124,-445 124,-427 8,-427"/>
<text text-anchor="start" x="11" y="-433.2" font-family="Helvetica,sans-Serif" font-size="11.00">...</text>
<polygon fill="#ffffff" stroke="transparent" points="8,-409 8,-427 38,-427 38,-409 8,-409"/>
<polygon fill="none" stroke="black" points="8,-409 8,-427 38,-427 38,-409 8,-409"/>
<text text-anchor="start" x="11" y="-415.2" font-family="Helvetica,sans-Serif" font-size="11.00"> &#160;</text>
<polygon fill="#ffffff" stroke="transparent" points="38,-409 38,-427 87,-427 87,-409 38,-409"/>
<polygon fill="none" stroke="black" points="38,-409 38,-427 87,-427 87,-409 38,-409"/>
<text text-anchor="start" x="50" y="-415.2" font-family="Helvetica,sans-Serif" font-size="11.00">0 rows</text>
<polygon fill="#ffffff" stroke="transparent" points="87,-409 87,-427 124,-427 124,-409 87,-409"/>
<polygon fill="none" stroke="black" points="87,-409 87,-427 124,-427 124,-409 87,-409"/>
<text text-anchor="start" x="99" y="-415.2" font-family="Helvetica,sans-Serif" font-size="11.00">37 &gt;</text>
</a>
</g>
</g>
<!-- report_project_metrics&#45;&gt;public.users -->
<g id="edge1" class="edge">
<title>report_project_metrics:w&#45;&gt;public.users:e</title>
<path fill="none" stroke="black" d="M427.08,-157.51C357.43,-153.35 211.59,-124.95 165,-158 84.35,-215.22 69.55,-344.11 67.19,-404.98"/>
<polygon fill="black" stroke="black" points="433.5,-157.73 441.38,-161.6 437.5,-157.86 441.5,-158 441.5,-158 441.5,-158 437.5,-157.86 441.62,-154.4 433.5,-157.73 433.5,-157.73"/>
<ellipse fill="none" stroke="black" cx="430.31" cy="-157.62" rx="3.2" ry="3.2"/>
</g>
<!-- project_metrics -->
<g id="node3" class="node">
<title>project_metrics</title>
<g id="a_node3"><a xlink:href="../../tables/project_metrics.html" xlink:title="project_metrics" target="_top">
<polygon fill="#ffffff" stroke="transparent" points="214,-169 214,-315 350,-315 350,-169 214,-169"/>
<polygon fill="#f5f5f5" stroke="transparent" points="214,-293 214,-315 350,-315 350,-293 214,-293"/>
<polygon fill="none" stroke="black" points="214,-293 214,-315 350,-315 350,-293 214,-293"/>
<text text-anchor="start" x="219" y="-302.2" font-family="Helvetica,sans-Serif" font-weight="bold" font-size="11.00">project_metrics</text>
<text text-anchor="start" x="311" y="-301.2" font-family="Helvetica,sans-Serif" font-size="11.00">[table]</text>
<polygon fill="none" stroke="black" points="214,-271 214,-293 350,-293 350,-271 214,-271"/>
<image xlink:href="../../images/primaryKeys.png" width="11px" height="12px" preserveAspectRatio="xMinYMin meet" x="219" y="-288"/>
<text text-anchor="start" x="246" y="-279.2" font-family="Helvetica,sans-Serif" font-size="11.00">id</text>
<polygon fill="#ffffff" stroke="transparent" points="214,-249 214,-271 350,-271 350,-249 214,-249"/>
<polygon fill="none" stroke="black" points="214,-249 214,-271 350,-271 350,-249 214,-249"/>
<image xlink:href="../../images/foreignKeys.png" width="11px" height="12px" preserveAspectRatio="xMinYMin meet" x="219" y="-266"/>
<text text-anchor="start" x="246" y="-257.2" font-family="Helvetica,sans-Serif" font-size="11.00">project_id</text>
<polygon fill="none" stroke="black" points="214,-227 214,-249 350,-249 350,-227 214,-227"/>
<image xlink:href="../../images/foreignKeys.png" width="11px" height="12px" preserveAspectRatio="xMinYMin meet" x="219" y="-244"/>
<text text-anchor="start" x="246" y="-235.2" font-family="Helvetica,sans-Serif" font-size="11.00">type_id</text>
<polygon fill="none" stroke="black" points="214,-205 214,-227 350,-227 350,-205 214,-205"/>
<image xlink:href="../../images/foreignKeys.png" width="11px" height="12px" preserveAspectRatio="xMinYMin meet" x="219" y="-222"/>
<text text-anchor="start" x="246" y="-213.2" font-family="Helvetica,sans-Serif" font-size="11.00">component_id</text>
<polygon fill="none" stroke="black" points="214,-187 214,-205 350,-205 350,-187 214,-187"/>
<text text-anchor="start" x="217" y="-193.2" font-family="Helvetica,sans-Serif" font-size="11.00">...</text>
<polygon fill="#ffffff" stroke="transparent" points="214,-169 214,-187 275,-187 275,-169 214,-169"/>
<polygon fill="none" stroke="black" points="214,-169 214,-187 275,-187 275,-169 214,-169"/>
<text text-anchor="start" x="217" y="-175.2" font-family="Helvetica,sans-Serif" font-size="11.00">&lt; 3</text>
<polygon fill="#ffffff" stroke="transparent" points="275,-169 275,-187 308,-187 308,-169 275,-169"/>
<polygon fill="none" stroke="black" points="275,-169 275,-187 308,-187 308,-169 275,-169"/>
<text text-anchor="start" x="298" y="-175.2" font-family="Helvetica,sans-Serif" font-size="11.00"> &#160;</text>
<polygon fill="#ffffff" stroke="transparent" points="308,-169 308,-187 350,-187 350,-169 308,-169"/>
<polygon fill="none" stroke="black" points="308,-169 308,-187 350,-187 350,-169 308,-169"/>
<text text-anchor="start" x="331" y="-175.2" font-family="Helvetica,sans-Serif" font-size="11.00">2 &gt;</text>
</a>
</g>
</g>
<!-- report_project_metrics&#45;&gt;project_metrics -->
<g id="edge2" class="edge">
<title>report_project_metrics:w&#45;&gt;project_metrics:e</title>
<path fill="none" stroke="black" d="M426.81,-268.68C397.83,-271.47 386.3,-282 351,-282"/>
<polygon fill="black" stroke="black" points="433.51,-268.37 441.67,-271.6 437.5,-268.18 441.5,-268 441.5,-268 441.5,-268 437.5,-268.18 441.33,-264.4 433.51,-268.37 433.51,-268.37"/>
<ellipse fill="none" stroke="black" cx="430.31" cy="-268.51" rx="3.2" ry="3.2"/>
</g>
<!-- reports -->
<g id="node4" class="node">
<title>reports</title>
<g id="a_node4"><a xlink:href="../../tables/reports.html" xlink:title="reports" target="_top">
<polygon fill="#ffffff" stroke="transparent" points="173,-336 173,-614 391,-614 391,-336 173,-336"/>
<polygon fill="#f5f5f5" stroke="transparent" points="173,-592 173,-614 391,-614 391,-592 173,-592"/>
<polygon fill="none" stroke="black" points="173,-592 173,-614 391,-614 391,-592 173,-592"/>
<text text-anchor="start" x="177.5" y="-601.2" font-family="Helvetica,sans-Serif" font-weight="bold" font-size="11.00">reports</text>
<text text-anchor="start" x="352" y="-600.2" font-family="Helvetica,sans-Serif" font-size="11.00">[table]</text>
<polygon fill="none" stroke="black" points="173,-570 173,-592 391,-592 391,-570 173,-570"/>
<image xlink:href="../../images/primaryKeys.png" width="11px" height="12px" preserveAspectRatio="xMinYMin meet" x="178" y="-587"/>
<text text-anchor="start" x="193" y="-578.2" font-family="Helvetica,sans-Serif" font-size="11.00">id</text>
<polygon fill="none" stroke="black" points="173,-548 173,-570 391,-570 391,-548 173,-548"/>
<image xlink:href="../../images/foreignKeys.png" width="11px" height="12px" preserveAspectRatio="xMinYMin meet" x="178" y="-565"/>
<text text-anchor="start" x="193" y="-556.2" font-family="Helvetica,sans-Serif" font-size="11.00">config_id</text>
<polygon fill="#ffffff" stroke="transparent" points="173,-526 173,-548 391,-548 391,-526 173,-526"/>
<polygon fill="none" stroke="black" points="173,-526 173,-548 391,-548 391,-526 173,-526"/>
<image xlink:href="../../images/foreignKeys.png" width="11px" height="12px" preserveAspectRatio="xMinYMin meet" x="178" y="-543"/>
<text text-anchor="start" x="193" y="-534.2" font-family="Helvetica,sans-Serif" font-size="11.00">project_id</text>
<polygon fill="none" stroke="black" points="173,-504 173,-526 391,-526 391,-504 173,-504"/>
<image xlink:href="../../images/foreignKeys.png" width="11px" height="12px" preserveAspectRatio="xMinYMin meet" x="178" y="-521"/>
<text text-anchor="start" x="193" y="-512.2" font-family="Helvetica,sans-Serif" font-size="11.00">status_id</text>
<polygon fill="#ffffff" stroke="transparent" points="173,-482 173,-504 391,-504 391,-482 173,-482"/>
<polygon fill="none" stroke="black" points="173,-482 173,-504 391,-504 391,-482 173,-482"/>
<text text-anchor="start" x="193" y="-490.2" font-family="Helvetica,sans-Serif" font-size="11.00">end_date</text>
<polygon fill="none" stroke="black" points="173,-460 173,-482 391,-482 391,-460 173,-460"/>
<image xlink:href="../../images/foreignKeys.png" width="11px" height="12px" preserveAspectRatio="xMinYMin meet" x="178" y="-477"/>
<text text-anchor="start" x="193" y="-468.2" font-family="Helvetica,sans-Serif" font-size="11.00">created_by</text>
<polygon fill="none" stroke="black" points="173,-438 173,-460 391,-460 391,-438 173,-438"/>
<image xlink:href="../../images/foreignKeys.png" width="11px" height="12px" preserveAspectRatio="xMinYMin meet" x="178" y="-455"/>
<text text-anchor="start" x="193" y="-446.2" font-family="Helvetica,sans-Serif" font-size="11.00">modified_by</text>
<polygon fill="none" stroke="black" points="173,-416 173,-438 391,-438 391,-416 173,-416"/>
<image xlink:href="../../images/foreignKeys.png" width="11px" height="12px" preserveAspectRatio="xMinYMin meet" x="178" y="-433"/>
<text text-anchor="start" x="193" y="-424.2" font-family="Helvetica,sans-Serif" font-size="11.00">submitted_by</text>
<polygon fill="none" stroke="black" points="173,-394 173,-416 391,-416 391,-394 173,-394"/>
<image xlink:href="../../images/foreignKeys.png" width="11px" height="12px" preserveAspectRatio="xMinYMin meet" x="178" y="-411"/>
<text text-anchor="start" x="193" y="-402.2" font-family="Helvetica,sans-Serif" font-size="11.00">report_frequency_id</text>
<polygon fill="none" stroke="black" points="173,-372 173,-394 391,-394 391,-372 173,-372"/>
<image xlink:href="../../images/foreignKeys.png" width="11px" height="12px" preserveAspectRatio="xMinYMin meet" x="178" y="-389"/>
<text text-anchor="start" x="193" y="-380.2" font-family="Helvetica,sans-Serif" font-size="11.00">report_quarter_id</text>
<polygon fill="none" stroke="black" points="173,-354 173,-372 391,-372 391,-354 173,-354"/>
<text text-anchor="start" x="176" y="-360.2" font-family="Helvetica,sans-Serif" font-size="11.00">...</text>
<polygon fill="#ffffff" stroke="transparent" points="173,-336 173,-354 278,-354 278,-336 173,-336"/>
<polygon fill="none" stroke="black" points="173,-336 173,-354 278,-354 278,-336 173,-336"/>
<text text-anchor="start" x="176" y="-342.2" font-family="Helvetica,sans-Serif" font-size="11.00">&lt; 10</text>
<polygon fill="#ffffff" stroke="transparent" points="278,-336 278,-354 330,-354 330,-336 278,-336"/>
<polygon fill="none" stroke="black" points="278,-336 278,-354 330,-354 330,-336 278,-336"/>
<text text-anchor="start" x="320" y="-342.2" font-family="Helvetica,sans-Serif" font-size="11.00"> &#160;</text>
<polygon fill="#ffffff" stroke="transparent" points="330,-336 330,-354 391,-354 391,-336 330,-336"/>
<polygon fill="none" stroke="black" points="330,-336 330,-354 391,-354 391,-336 330,-336"/>
<text text-anchor="start" x="372" y="-342.2" font-family="Helvetica,sans-Serif" font-size="11.00">7 &gt;</text>
</a>
</g>
</g>
<!-- report_project_metrics&#45;&gt;reports -->
<g id="edge3" class="edge">
<title>report_project_metrics:w&#45;&gt;reports:e</title>
<path fill="none" stroke="black" d="M428.17,-295.55C388.32,-335.78 452.21,-581 392,-581"/>
<polygon fill="black" stroke="black" points="434.12,-293.08 442.88,-293.32 437.81,-291.54 441.5,-290 441.5,-290 441.5,-290 437.81,-291.54 440.12,-286.68 434.12,-293.08 434.12,-293.08"/>
<ellipse fill="none" stroke="black" cx="431.16" cy="-294.31" rx="3.2" ry="3.2"/>
</g>
<!-- report_metric_statuses -->
<g id="node5" class="node">
<title>report_metric_statuses</title>
<g id="a_node5"><a xlink:href="../../tables/report_metric_statuses.html" xlink:title="report_metric_statuses" target="_top">
<polygon fill="#ffffff" stroke="transparent" points="191.5,-37 191.5,-121 372.5,-121 372.5,-37 191.5,-37"/>
<polygon fill="#f5f5f5" stroke="transparent" points="192,-99 192,-121 373,-121 373,-99 192,-99"/>
<polygon fill="none" stroke="black" points="192,-99 192,-121 373,-121 373,-99 192,-99"/>
<text text-anchor="start" x="197" y="-108.2" font-family="Helvetica,sans-Serif" font-weight="bold" font-size="11.00">report_metric_statuses</text>
<text text-anchor="start" x="334" y="-107.2" font-family="Helvetica,sans-Serif" font-size="11.00">[table]</text>
<polygon fill="none" stroke="black" points="192,-77 192,-99 373,-99 373,-77 192,-77"/>
<image xlink:href="../../images/primaryKeys.png" width="11px" height="12px" preserveAspectRatio="xMinYMin meet" x="197" y="-94"/>
<text text-anchor="start" x="224" y="-85.2" font-family="Helvetica,sans-Serif" font-size="11.00">id</text>
<polygon fill="#ffffff" stroke="transparent" points="192,-55 192,-77 373,-77 373,-55 192,-55"/>
<polygon fill="none" stroke="black" points="192,-55 192,-77 373,-77 373,-55 192,-55"/>
<text text-anchor="start" x="224" y="-63.2" font-family="Helvetica,sans-Serif" font-size="11.00">name</text>
<polygon fill="#ffffff" stroke="transparent" points="192,-37 192,-55 271,-55 271,-37 192,-37"/>
<polygon fill="none" stroke="black" points="192,-37 192,-55 271,-55 271,-37 192,-37"/>
<text text-anchor="start" x="195" y="-43.2" font-family="Helvetica,sans-Serif" font-size="11.00"> &#160;</text>
<polygon fill="#ffffff" stroke="transparent" points="271,-37 271,-55 317,-55 317,-37 271,-37"/>
<polygon fill="none" stroke="black" points="271,-37 271,-55 317,-55 317,-37 271,-37"/>
<text text-anchor="start" x="307" y="-43.2" font-family="Helvetica,sans-Serif" font-size="11.00"> &#160;</text>
<polygon fill="#ffffff" stroke="transparent" points="317,-37 317,-55 373,-55 373,-37 317,-37"/>
<polygon fill="none" stroke="black" points="317,-37 317,-55 373,-55 373,-37 317,-37"/>
<text text-anchor="start" x="354" y="-43.2" font-family="Helvetica,sans-Serif" font-size="11.00">6 &gt;</text>
</a>
</g>
</g>
<!-- report_project_metrics&#45;&gt;report_metric_statuses -->
<g id="edge4" class="edge">
<title>report_project_metrics:w&#45;&gt;report_metric_statuses:e</title>
<path fill="none" stroke="black" d="M427.19,-111.96C407.4,-105.83 400.62,-88 374,-88"/>
<polygon fill="black" stroke="black" points="433.58,-112.87 440.99,-117.56 437.54,-113.44 441.5,-114 441.5,-114 441.5,-114 437.54,-113.44 442.01,-110.44 433.58,-112.87 433.58,-112.87"/>
<ellipse fill="none" stroke="black" cx="430.41" cy="-112.42" rx="3.2" ry="3.2"/>
</g>
<!-- reports&#45;&gt;public.users -->
<g id="edge5" class="edge">
<title>reports:w&#45;&gt;public.users:e</title>
<path fill="none" stroke="black" d="M157.33,-470.09C148.85,-469.09 140.34,-467.32 132.12,-465.1"/>
<polygon fill="black" stroke="black" points="164.02,-470.51 171.78,-474.59 168.01,-470.75 172,-471 172,-471 172,-471 168.01,-470.75 172.22,-467.41 164.02,-470.51 164.02,-470.51"/>
<ellipse fill="none" stroke="black" cx="160.82" cy="-470.31" rx="3.2" ry="3.2"/>
</g>
<!-- reports&#45;&gt;public.users -->
<g id="edge6" class="edge">
<title>reports:w&#45;&gt;public.users:e</title>
<path fill="none" stroke="black" d="M157.5,-448.69C149.05,-448.34 140.48,-447.72 132.14,-446.96"/>
<polygon fill="black" stroke="black" points="164,-448.83 171.92,-452.6 168,-448.91 172,-449 172,-449 172,-449 168,-448.91 172.08,-445.4 164,-448.83 164,-448.83"/>
<ellipse fill="none" stroke="black" cx="160.8" cy="-448.76" rx="3.2" ry="3.2"/>
</g>
<!-- reports&#45;&gt;public.users -->
<g id="edge7" class="edge">
<title>reports:w&#45;&gt;public.users:e</title>
<path fill="none" stroke="black" d="M157.5,-427.31C149.05,-427.66 140.48,-428.28 132.14,-429.04"/>
<polygon fill="black" stroke="black" points="164,-427.17 172.08,-430.6 168,-427.09 172,-427 172,-427 172,-427 168,-427.09 171.92,-423.4 164,-427.17 164,-427.17"/>
<ellipse fill="none" stroke="black" cx="160.8" cy="-427.24" rx="3.2" ry="3.2"/>
</g>
</g>
</svg>
