<?xml version="1.0" encoding="UTF-8" standalone="no"?>
<!DOCTYPE svg PUBLIC "-//W3C//DTD SVG 1.1//EN"
 "http://www.w3.org/Graphics/SVG/1.1/DTD/svg11.dtd">
<!-- Generated by graphviz version 2.47.1 (20210515.0534)
 -->
<!-- Title: oneDegreeRelationshipsDiagram Pages: 1 -->
<svg width="806pt" height="340pt"
 viewBox="0.00 0.00 806.00 340.00" xmlns="http://www.w3.org/2000/svg" xmlns:xlink="http://www.w3.org/1999/xlink">
<g id="graph0" class="graph" transform="scale(1 1) rotate(0) translate(4 336)">
<title>oneDegreeRelationshipsDiagram</title>
<polygon fill="#ffffff" stroke="transparent" points="-4,4 -4,-336 802,-336 802,4 -4,4"/>
<text text-anchor="middle" x="73.5" y="-7.2" font-family="Helvetica,sans-Serif" font-size="11.00">Generated by SchemaSpy</text>
<!-- report_standard_metrics -->
<g id="node1" class="node">
<title>report_standard_metrics</title>
<g id="a_node1"><a xlink:href="../../tables/report_standard_metrics.html" xlink:title="report_standard_metrics" target="_top">
<polygon fill="#ffffff" stroke="transparent" points="545,-182 545,-328 736,-328 736,-182 545,-182"/>
<polygon fill="#f5f5f5" stroke="transparent" points="545.5,-306 545.5,-328 736.5,-328 736.5,-306 545.5,-306"/>
<polygon fill="none" stroke="black" points="545.5,-306 545.5,-328 736.5,-328 736.5,-306 545.5,-306"/>
<text text-anchor="start" x="550.5" y="-315.2" font-family="Helvetica,sans-Serif" font-weight="bold" font-size="11.00">report_standard_metrics</text>
<text text-anchor="start" x="697.5" y="-314.2" font-family="Helvetica,sans-Serif" font-size="11.00">[table]</text>
<polygon fill="none" stroke="black" points="545.5,-284 545.5,-306 736.5,-306 736.5,-284 545.5,-284"/>
<image xlink:href="../../images/primaryKeys.png" width="11px" height="12px" preserveAspectRatio="xMinYMin meet" x="550.5" y="-301"/>
<text text-anchor="start" x="577.5" y="-292.2" font-family="Helvetica,sans-Serif" font-size="11.00">report_id</text>
<polygon fill="none" stroke="black" points="545.5,-262 545.5,-284 736.5,-284 736.5,-262 545.5,-262"/>
<image xlink:href="../../images/primaryKeys.png" width="11px" height="12px" preserveAspectRatio="xMinYMin meet" x="550.5" y="-279"/>
<text text-anchor="start" x="577.5" y="-270.2" font-family="Helvetica,sans-Serif" font-size="11.00">standard_metric_id</text>
<polygon fill="none" stroke="black" points="545.5,-240 545.5,-262 736.5,-262 736.5,-240 545.5,-240"/>
<image xlink:href="../../images/foreignKeys.png" width="11px" height="12px" preserveAspectRatio="xMinYMin meet" x="550.5" y="-257"/>
<text text-anchor="start" x="577.5" y="-248.2" font-family="Helvetica,sans-Serif" font-size="11.00">modified_by</text>
<polygon fill="none" stroke="black" points="545.5,-218 545.5,-240 736.5,-240 736.5,-218 545.5,-218"/>
<image xlink:href="../../images/foreignKeys.png" width="11px" height="12px" preserveAspectRatio="xMinYMin meet" x="550.5" y="-235"/>
<text text-anchor="start" x="577.5" y="-226.2" font-family="Helvetica,sans-Serif" font-size="11.00">status_id</text>
<polygon fill="none" stroke="black" points="545.5,-200 545.5,-218 736.5,-218 736.5,-200 545.5,-200"/>
<text text-anchor="start" x="548.5" y="-206.2" font-family="Helvetica,sans-Serif" font-size="11.00">...</text>
<polygon fill="#ffffff" stroke="transparent" points="545.5,-182 545.5,-200 638.5,-200 638.5,-182 545.5,-182"/>
<polygon fill="none" stroke="black" points="545.5,-182 545.5,-200 638.5,-200 638.5,-182 545.5,-182"/>
<text text-anchor="start" x="548.5" y="-188.2" font-family="Helvetica,sans-Serif" font-size="11.00">&lt; 4</text>
<polygon fill="#ffffff" stroke="transparent" points="638.5,-182 638.5,-200 687.5,-200 687.5,-182 638.5,-182"/>
<polygon fill="none" stroke="black" points="638.5,-182 638.5,-200 687.5,-200 687.5,-182 638.5,-182"/>
<text text-anchor="start" x="677.5" y="-188.2" font-family="Helvetica,sans-Serif" font-size="11.00"> &#160;</text>
<polygon fill="#ffffff" stroke="transparent" points="687.5,-182 687.5,-200 736.5,-200 736.5,-182 687.5,-182"/>
<polygon fill="none" stroke="black" points="687.5,-182 687.5,-200 736.5,-200 736.5,-182 687.5,-182"/>
<text text-anchor="start" x="726.5" y="-188.2" font-family="Helvetica,sans-Serif" font-size="11.00"> &#160;</text>
</a>
</g>
</g>
<!-- standard_metrics -->
<g id="node2" class="node">
<title>standard_metrics</title>
<g id="a_node2"><a xlink:href="../../tables/standard_metrics.html" xlink:title="standard_metrics" target="_top">
<polygon fill="#ffffff" stroke="transparent" points="219,-37 219,-235 442,-235 442,-37 219,-37"/>
<polygon fill="#f5f5f5" stroke="transparent" points="221.5,-211 221.5,-233 440.5,-233 440.5,-211 221.5,-211"/>
<polygon fill="none" stroke="black" points="221.5,-211 221.5,-233 440.5,-233 440.5,-211 221.5,-211"/>
<text text-anchor="start" x="226.5" y="-220.2" font-family="Helvetica,sans-Serif" font-weight="bold" font-size="11.00">standard_metrics</text>
<text text-anchor="start" x="401.5" y="-219.2" font-family="Helvetica,sans-Serif" font-size="11.00">[table]</text>
<polygon fill="none" stroke="black" points="221.5,-189 221.5,-211 346.5,-211 346.5,-189 221.5,-189"/>
<image xlink:href="../../images/primaryKeys.png" width="11px" height="12px" preserveAspectRatio="xMinYMin meet" x="226.5" y="-206"/>
<text text-anchor="start" x="241.5" y="-197.2" font-family="Helvetica,sans-Serif" font-size="11.00">id</text>
<polygon fill="none" stroke="black" points="346.5,-189 346.5,-211 440.5,-211 440.5,-189 346.5,-189"/>
<text text-anchor="start" x="349.5" y="-197.2" font-family="Helvetica,sans-Serif" font-size="11.00">int8[19]</text>
<polygon fill="none" stroke="black" points="221.5,-167 221.5,-189 346.5,-189 346.5,-167 221.5,-167"/>
<image xlink:href="../../images/foreignKeys.png" width="11px" height="12px" preserveAspectRatio="xMinYMin meet" x="226.5" y="-184"/>
<text text-anchor="start" x="241.5" y="-175.2" font-family="Helvetica,sans-Serif" font-size="11.00">type_id</text>
<polygon fill="none" stroke="black" points="346.5,-167 346.5,-189 440.5,-189 440.5,-167 346.5,-167"/>
<text text-anchor="start" x="349.5" y="-175.2" font-family="Helvetica,sans-Serif" font-size="11.00">int4[10]</text>
<polygon fill="none" stroke="black" points="221.5,-145 221.5,-167 346.5,-167 346.5,-145 221.5,-145"/>
<image xlink:href="../../images/foreignKeys.png" width="11px" height="12px" preserveAspectRatio="xMinYMin meet" x="226.5" y="-162"/>
<text text-anchor="start" x="241.5" y="-153.2" font-family="Helvetica,sans-Serif" font-size="11.00">component_id</text>
<polygon fill="none" stroke="black" points="346.5,-145 346.5,-167 440.5,-167 440.5,-145 346.5,-145"/>
<text text-anchor="start" x="349.5" y="-153.2" font-family="Helvetica,sans-Serif" font-size="11.00">int4[10]</text>
<polygon fill="none" stroke="black" points="221.5,-123 221.5,-145 346.5,-145 346.5,-123 221.5,-123"/>
<text text-anchor="start" x="241.5" y="-131.2" font-family="Helvetica,sans-Serif" font-size="11.00">name</text>
<polygon fill="none" stroke="black" points="346.5,-123 346.5,-145 440.5,-145 440.5,-123 346.5,-123"/>
<text text-anchor="start" x="349.5" y="-131.2" font-family="Helvetica,sans-Serif" font-size="11.00">text[2147483647]</text>
<polygon fill="none" stroke="black" points="221.5,-101 221.5,-123 346.5,-123 346.5,-101 221.5,-101"/>
<text text-anchor="start" x="241.5" y="-109.2" font-family="Helvetica,sans-Serif" font-size="11.00">description</text>
<polygon fill="none" stroke="black" points="346.5,-101 346.5,-123 440.5,-123 440.5,-101 346.5,-101"/>
<text text-anchor="start" x="349.5" y="-109.2" font-family="Helvetica,sans-Serif" font-size="11.00">text[2147483647]</text>
<polygon fill="none" stroke="black" points="221.5,-79 221.5,-101 346.5,-101 346.5,-79 221.5,-79"/>
<text text-anchor="start" x="241.5" y="-87.2" font-family="Helvetica,sans-Serif" font-size="11.00">reference</text>
<polygon fill="none" stroke="black" points="346.5,-79 346.5,-101 440.5,-101 440.5,-79 346.5,-79"/>
<text text-anchor="start" x="349.5" y="-87.2" font-family="Helvetica,sans-Serif" font-size="11.00">text[2147483647]</text>
<polygon fill="none" stroke="black" points="221.5,-57 221.5,-79 346.5,-79 346.5,-57 221.5,-57"/>
<text text-anchor="start" x="241.5" y="-65.2" font-family="Helvetica,sans-Serif" font-size="11.00">is_publishable</text>
<polygon fill="none" stroke="black" points="346.5,-57 346.5,-79 440.5,-79 440.5,-57 346.5,-57"/>
<text text-anchor="start" x="349.5" y="-65.2" font-family="Helvetica,sans-Serif" font-size="11.00">bool[1]</text>
<polygon fill="#ffffff" stroke="transparent" points="221.5,-39 221.5,-57 288.5,-57 288.5,-39 221.5,-39"/>
<polygon fill="none" stroke="black" points="221.5,-39 221.5,-57 288.5,-57 288.5,-39 221.5,-39"/>
<text text-anchor="start" x="224.5" y="-45.2" font-family="Helvetica,sans-Serif" font-size="11.00">&lt; 2</text>
<polygon fill="#ffffff" stroke="transparent" points="288.5,-39 288.5,-57 346.5,-57 346.5,-39 288.5,-39"/>
<polygon fill="none" stroke="black" points="288.5,-39 288.5,-57 346.5,-57 346.5,-39 288.5,-39"/>
<text text-anchor="start" x="336.5" y="-45.2" font-family="Helvetica,sans-Serif" font-size="11.00"> &#160;</text>
<polygon fill="#ffffff" stroke="transparent" points="346.5,-39 346.5,-57 440.5,-57 440.5,-39 346.5,-39"/>
<polygon fill="none" stroke="black" points="346.5,-39 346.5,-57 440.5,-57 440.5,-39 346.5,-39"/>
<text text-anchor="start" x="421.5" y="-45.2" font-family="Helvetica,sans-Serif" font-size="11.00">2 &gt;</text>
<polygon fill="none" stroke="black" stroke-width="2" points="220,-38 220,-234 441,-234 441,-38 220,-38"/>
</a>
</g>
</g>
<!-- report_standard_metrics&#45;&gt;standard_metrics -->
<g id="edge1" class="edge">
<title>report_standard_metrics:w&#45;&gt;standard_metrics:e</title>
<path fill="none" stroke="black" d="M530.07,-271.12C489.56,-259.7 492.24,-200 441.5,-200"/>
<polygon fill="black" stroke="black" points="536.57,-271.97 544.04,-276.57 540.53,-272.48 544.5,-273 544.5,-273 544.5,-273 540.53,-272.48 544.96,-269.43 536.57,-271.97 536.57,-271.97"/>
<ellipse fill="none" stroke="black" cx="533.39" cy="-271.55" rx="3.2" ry="3.2"/>
</g>
<!-- metric_components -->
<g id="node3" class="node">
<title>metric_components</title>
<g id="a_node3"><a xlink:href="../../tables/metric_components.html" xlink:title="metric_components" target="_top">
<polygon fill="#ffffff" stroke="transparent" points="8,-64 8,-148 170,-148 170,-64 8,-64"/>
<polygon fill="#f5f5f5" stroke="transparent" points="8,-126 8,-148 170,-148 170,-126 8,-126"/>
<polygon fill="none" stroke="black" points="8,-126 8,-148 170,-148 170,-126 8,-126"/>
<text text-anchor="start" x="13" y="-135.2" font-family="Helvetica,sans-Serif" font-weight="bold" font-size="11.00">metric_components</text>
<text text-anchor="start" x="131" y="-134.2" font-family="Helvetica,sans-Serif" font-size="11.00">[table]</text>
<polygon fill="none" stroke="black" points="8,-104 8,-126 170,-126 170,-104 8,-104"/>
<image xlink:href="../../images/primaryKeys.png" width="11px" height="12px" preserveAspectRatio="xMinYMin meet" x="13" y="-121"/>
<text text-anchor="start" x="40" y="-112.2" font-family="Helvetica,sans-Serif" font-size="11.00">id</text>
<polygon fill="#ffffff" stroke="transparent" points="8,-82 8,-104 170,-104 170,-82 8,-82"/>
<polygon fill="none" stroke="black" points="8,-82 8,-104 170,-104 170,-82 8,-82"/>
<text text-anchor="start" x="40" y="-90.2" font-family="Helvetica,sans-Serif" font-size="11.00">name</text>
<polygon fill="#ffffff" stroke="transparent" points="8,-64 8,-82 78,-82 78,-64 8,-64"/>
<polygon fill="none" stroke="black" points="8,-64 8,-82 78,-82 78,-64 8,-64"/>
<text text-anchor="start" x="11" y="-70.2" font-family="Helvetica,sans-Serif" font-size="11.00"> &#160;</text>
<polygon fill="#ffffff" stroke="transparent" points="78,-64 78,-82 119,-82 119,-64 78,-64"/>
<polygon fill="none" stroke="black" points="78,-64 78,-82 119,-82 119,-64 78,-64"/>
<text text-anchor="start" x="109" y="-70.2" font-family="Helvetica,sans-Serif" font-size="11.00"> &#160;</text>
<polygon fill="#ffffff" stroke="transparent" points="119,-64 119,-82 170,-82 170,-64 119,-64"/>
<polygon fill="none" stroke="black" points="119,-64 119,-82 170,-82 170,-64 119,-64"/>
<text text-anchor="start" x="151" y="-70.2" font-family="Helvetica,sans-Serif" font-size="11.00">3 &gt;</text>
</a>
</g>
</g>
<!-- standard_metrics&#45;&gt;metric_components -->
<g id="edge2" class="edge">
<title>standard_metrics:w&#45;&gt;metric_components:e</title>
<path fill="none" stroke="black" d="M206.58,-151.3C193.54,-140.53 193.54,-115 171,-115"/>
<polygon fill="black" stroke="black" points="212.92,-153.44 219.35,-159.41 216.71,-154.72 220.5,-156 220.5,-156 220.5,-156 216.71,-154.72 221.65,-152.59 212.92,-153.44 212.92,-153.44"/>
<ellipse fill="none" stroke="black" cx="209.89" cy="-152.42" rx="3.2" ry="3.2"/>
</g>
<!-- metric_types -->
<g id="node4" class="node">
<title>metric_types</title>
<g id="a_node4"><a xlink:href="../../tables/metric_types.html" xlink:title="metric_types" target="_top">
<polygon fill="#ffffff" stroke="transparent" points="29,-169 29,-253 149,-253 149,-169 29,-169"/>
<polygon fill="#f5f5f5" stroke="transparent" points="29,-231 29,-253 149,-253 149,-231 29,-231"/>
<polygon fill="none" stroke="black" points="29,-231 29,-253 149,-253 149,-231 29,-231"/>
<text text-anchor="start" x="34" y="-240.2" font-family="Helvetica,sans-Serif" font-weight="bold" font-size="11.00">metric_types</text>
<text text-anchor="start" x="110" y="-239.2" font-family="Helvetica,sans-Serif" font-size="11.00">[table]</text>
<polygon fill="none" stroke="black" points="29,-209 29,-231 149,-231 149,-209 29,-209"/>
<image xlink:href="../../images/primaryKeys.png" width="11px" height="12px" preserveAspectRatio="xMinYMin meet" x="34" y="-226"/>
<text text-anchor="start" x="61" y="-217.2" font-family="Helvetica,sans-Serif" font-size="11.00">id</text>
<polygon fill="#ffffff" stroke="transparent" points="29,-187 29,-209 149,-209 149,-187 29,-187"/>
<polygon fill="none" stroke="black" points="29,-187 29,-209 149,-209 149,-187 29,-187"/>
<text text-anchor="start" x="61" y="-195.2" font-family="Helvetica,sans-Serif" font-size="11.00">name</text>
<polygon fill="#ffffff" stroke="transparent" points="29,-169 29,-187 78,-187 78,-169 29,-169"/>
<polygon fill="none" stroke="black" points="29,-169 29,-187 78,-187 78,-169 29,-169"/>
<text text-anchor="start" x="32" y="-175.2" font-family="Helvetica,sans-Serif" font-size="11.00"> &#160;</text>
<polygon fill="#ffffff" stroke="transparent" points="78,-169 78,-187 109,-187 109,-169 78,-169"/>
<polygon fill="none" stroke="black" points="78,-169 78,-187 109,-187 109,-169 78,-169"/>
<text text-anchor="start" x="99" y="-175.2" font-family="Helvetica,sans-Serif" font-size="11.00"> &#160;</text>
<polygon fill="#ffffff" stroke="transparent" points="109,-169 109,-187 149,-187 149,-169 109,-169"/>
<polygon fill="none" stroke="black" points="109,-169 109,-187 149,-187 149,-169 109,-169"/>
<text text-anchor="start" x="130" y="-175.2" font-family="Helvetica,sans-Serif" font-size="11.00">3 &gt;</text>
</a>
</g>
</g>
<!-- standard_metrics&#45;&gt;metric_types -->
<g id="edge3" class="edge">
<title>standard_metrics:w&#45;&gt;metric_types:e</title>
<path fill="none" stroke="black" d="M206.27,-180.63C183.87,-189.82 180.92,-220 150,-220"/>
<polygon fill="black" stroke="black" points="212.63,-179.45 221.15,-181.54 216.57,-178.73 220.5,-178 220.5,-178 220.5,-178 216.57,-178.73 219.85,-174.46 212.63,-179.45 212.63,-179.45"/>
<ellipse fill="none" stroke="black" cx="209.49" cy="-180.03" rx="3.2" ry="3.2"/>
</g>
<!-- funder.published_report_standard_metrics -->
<g id="node5" class="node">
<title>funder.published_report_standard_metrics</title>
<g id="a_node5"><a xlink:href="../../../funder/tables/published_report_standard_metrics.html" xlink:title="funder.published_report_standard_metrics" target="_top">
<polygon fill="#ffffff" stroke="transparent" points="491,-59 491,-161 790,-161 790,-59 491,-59"/>
<polygon fill="#f5f5f5" stroke="transparent" points="491.5,-139 491.5,-161 790.5,-161 790.5,-139 491.5,-139"/>
<polygon fill="none" stroke="black" points="491.5,-139 491.5,-161 790.5,-161 790.5,-139 491.5,-139"/>
<text text-anchor="start" x="496.5" y="-148.2" font-family="Helvetica,sans-Serif" font-weight="bold" font-size="11.00">funder.published_report_standard_metrics</text>
<text text-anchor="start" x="751.5" y="-147.2" font-family="Helvetica,sans-Serif" font-size="11.00">[table]</text>
<polygon fill="none" stroke="black" points="491.5,-117 491.5,-139 790.5,-139 790.5,-117 491.5,-117"/>
<image xlink:href="../../images/foreignKeys.png" width="11px" height="12px" preserveAspectRatio="xMinYMin meet" x="496.5" y="-134"/>
<text text-anchor="start" x="545.5" y="-125.2" font-family="Helvetica,sans-Serif" font-size="11.00">standard_metric_id</text>
<polygon fill="none" stroke="black" points="491.5,-95 491.5,-117 790.5,-117 790.5,-95 491.5,-95"/>
<image xlink:href="../../images/foreignKeys.png" width="11px" height="12px" preserveAspectRatio="xMinYMin meet" x="496.5" y="-112"/>
<text text-anchor="start" x="545.5" y="-103.2" font-family="Helvetica,sans-Serif" font-size="11.00">status_id</text>
<polygon fill="none" stroke="black" points="491.5,-77 491.5,-95 790.5,-95 790.5,-77 491.5,-77"/>
<text text-anchor="start" x="494.5" y="-83.2" font-family="Helvetica,sans-Serif" font-size="11.00">...</text>
<polygon fill="#ffffff" stroke="transparent" points="491.5,-59 491.5,-77 625.5,-77 625.5,-59 491.5,-59"/>
<polygon fill="none" stroke="black" points="491.5,-59 491.5,-77 625.5,-77 625.5,-59 491.5,-59"/>
<text text-anchor="start" x="494.5" y="-65.2" font-family="Helvetica,sans-Serif" font-size="11.00">&lt; 2</text>
<polygon fill="#ffffff" stroke="transparent" points="625.5,-59 625.5,-77 721.5,-77 721.5,-59 625.5,-59"/>
<polygon fill="none" stroke="black" points="625.5,-59 625.5,-77 721.5,-77 721.5,-59 625.5,-59"/>
<text text-anchor="start" x="684.5" y="-65.2" font-family="Helvetica,sans-Serif" font-size="11.00">0 rows</text>
<polygon fill="#ffffff" stroke="transparent" points="721.5,-59 721.5,-77 790.5,-77 790.5,-59 721.5,-59"/>
<polygon fill="none" stroke="black" points="721.5,-59 721.5,-77 790.5,-77 790.5,-59 721.5,-59"/>
<text text-anchor="start" x="780.5" y="-65.2" font-family="Helvetica,sans-Serif" font-size="11.00"> &#160;</text>
</a>
</g>
</g>
<!-- funder.published_report_standard_metrics&#45;&gt;standard_metrics -->
<g id="edge4" class="edge">
<title>funder.published_report_standard_metrics:w&#45;&gt;standard_metrics:e</title>
<path fill="none" stroke="black" d="M476.76,-132.72C459.03,-148.74 474.16,-200 441.5,-200"/>
<polygon fill="black" stroke="black" points="482.93,-130.6 491.67,-131.4 486.72,-129.3 490.5,-128 490.5,-128 490.5,-128 486.72,-129.3 489.33,-124.6 482.93,-130.6 482.93,-130.6"/>
<ellipse fill="none" stroke="black" cx="479.91" cy="-131.64" rx="3.2" ry="3.2"/>
</g>
</g>
</svg>
