<?xml version="1.0" encoding="UTF-8" standalone="no"?>
<!DOCTYPE svg PUBLIC "-//W3C//DTD SVG 1.1//EN"
 "http://www.w3.org/Graphics/SVG/1.1/DTD/svg11.dtd">
<!-- Generated by graphviz version 2.47.1 (20210515.0534)
 -->
<!-- Title: oneDegreeRelationshipsDiagram Pages: 1 -->
<svg width="718pt" height="267pt"
 viewBox="0.00 0.00 718.00 267.00" xmlns="http://www.w3.org/2000/svg" xmlns:xlink="http://www.w3.org/1999/xlink">
<g id="graph0" class="graph" transform="scale(1 1) rotate(0) translate(4 263)">
<title>oneDegreeRelationshipsDiagram</title>
<polygon fill="#ffffff" stroke="transparent" points="-4,4 -4,-263 714,-263 714,4 -4,4"/>
<text text-anchor="middle" x="73.5" y="-7.2" font-family="Helvetica,sans-Serif" font-size="11.00">Generated by SchemaSpy</text>
<!-- report_standard_metrics -->
<g id="node1" class="node">
<title>report_standard_metrics</title>
<g id="a_node1"><a xlink:href="../../tables/report_standard_metrics.html" xlink:title="report_standard_metrics" target="_top">
<polygon fill="#ffffff" stroke="transparent" points="491,-109 491,-255 702,-255 702,-109 491,-109"/>
<polygon fill="#f5f5f5" stroke="transparent" points="491.5,-233 491.5,-255 702.5,-255 702.5,-233 491.5,-233"/>
<polygon fill="none" stroke="black" points="491.5,-233 491.5,-255 702.5,-255 702.5,-233 491.5,-233"/>
<text text-anchor="start" x="496.5" y="-242.2" font-family="Helvetica,sans-Serif" font-weight="bold" font-size="11.00">report_standard_metrics</text>
<text text-anchor="start" x="663.5" y="-241.2" font-family="Helvetica,sans-Serif" font-size="11.00">[table]</text>
<polygon fill="none" stroke="black" points="491.5,-211 491.5,-233 702.5,-233 702.5,-211 491.5,-211"/>
<image xlink:href="../../images/primaryKeys.png" width="11px" height="12px" preserveAspectRatio="xMinYMin meet" x="496.5" y="-228"/>
<text text-anchor="start" x="511.5" y="-219.2" font-family="Helvetica,sans-Serif" font-size="11.00">report_id</text>
<polygon fill="none" stroke="black" points="491.5,-189 491.5,-211 702.5,-211 702.5,-189 491.5,-189"/>
<image xlink:href="../../images/primaryKeys.png" width="11px" height="12px" preserveAspectRatio="xMinYMin meet" x="496.5" y="-206"/>
<text text-anchor="start" x="511.5" y="-197.2" font-family="Helvetica,sans-Serif" font-size="11.00">standard_metric_id</text>
<polygon fill="none" stroke="black" points="491.5,-167 491.5,-189 702.5,-189 702.5,-167 491.5,-167"/>
<image xlink:href="../../images/foreignKeys.png" width="11px" height="12px" preserveAspectRatio="xMinYMin meet" x="496.5" y="-184"/>
<text text-anchor="start" x="511.5" y="-175.2" font-family="Helvetica,sans-Serif" font-size="11.00">modified_by</text>
<polygon fill="none" stroke="black" points="491.5,-145 491.5,-167 702.5,-167 702.5,-145 491.5,-145"/>
<image xlink:href="../../images/foreignKeys.png" width="11px" height="12px" preserveAspectRatio="xMinYMin meet" x="496.5" y="-162"/>
<text text-anchor="start" x="511.5" y="-153.2" font-family="Helvetica,sans-Serif" font-size="11.00">status_id</text>
<polygon fill="none" stroke="black" points="491.5,-127 491.5,-145 702.5,-145 702.5,-127 491.5,-127"/>
<text text-anchor="start" x="494.5" y="-133.2" font-family="Helvetica,sans-Serif" font-size="11.00">...</text>
<polygon fill="#ffffff" stroke="transparent" points="491.5,-109 491.5,-127 594.5,-127 594.5,-109 491.5,-109"/>
<polygon fill="none" stroke="black" points="491.5,-109 491.5,-127 594.5,-127 594.5,-109 491.5,-109"/>
<text text-anchor="start" x="494.5" y="-115.2" font-family="Helvetica,sans-Serif" font-size="11.00">&lt; 4</text>
<polygon fill="#ffffff" stroke="transparent" points="594.5,-109 594.5,-127 648.5,-127 648.5,-109 594.5,-109"/>
<polygon fill="none" stroke="black" points="594.5,-109 594.5,-127 648.5,-127 648.5,-109 594.5,-109"/>
<text text-anchor="start" x="638.5" y="-115.2" font-family="Helvetica,sans-Serif" font-size="11.00"> &#160;</text>
<polygon fill="#ffffff" stroke="transparent" points="648.5,-109 648.5,-127 702.5,-127 702.5,-109 648.5,-109"/>
<polygon fill="none" stroke="black" points="648.5,-109 648.5,-127 702.5,-127 702.5,-109 648.5,-109"/>
<text text-anchor="start" x="692.5" y="-115.2" font-family="Helvetica,sans-Serif" font-size="11.00"> &#160;</text>
</a>
</g>
</g>
<!-- standard_metrics -->
<g id="node2" class="node">
<title>standard_metrics</title>
<g id="a_node2"><a xlink:href="../../tables/standard_metrics.html" xlink:title="standard_metrics" target="_top">
<polygon fill="#ffffff" stroke="transparent" points="219,-37 219,-235 442,-235 442,-37 219,-37"/>
<polygon fill="#f5f5f5" stroke="transparent" points="221.5,-211 221.5,-233 440.5,-233 440.5,-211 221.5,-211"/>
<polygon fill="none" stroke="black" points="221.5,-211 221.5,-233 440.5,-233 440.5,-211 221.5,-211"/>
<text text-anchor="start" x="226.5" y="-220.2" font-family="Helvetica,sans-Serif" font-weight="bold" font-size="11.00">standard_metrics</text>
<text text-anchor="start" x="401.5" y="-219.2" font-family="Helvetica,sans-Serif" font-size="11.00">[table]</text>
<polygon fill="none" stroke="black" points="221.5,-189 221.5,-211 346.5,-211 346.5,-189 221.5,-189"/>
<image xlink:href="../../images/primaryKeys.png" width="11px" height="12px" preserveAspectRatio="xMinYMin meet" x="226.5" y="-206"/>
<text text-anchor="start" x="241.5" y="-197.2" font-family="Helvetica,sans-Serif" font-size="11.00">id</text>
<polygon fill="none" stroke="black" points="346.5,-189 346.5,-211 440.5,-211 440.5,-189 346.5,-189"/>
<text text-anchor="start" x="349.5" y="-197.2" font-family="Helvetica,sans-Serif" font-size="11.00">int8[19]</text>
<polygon fill="none" stroke="black" points="221.5,-167 221.5,-189 346.5,-189 346.5,-167 221.5,-167"/>
<image xlink:href="../../images/foreignKeys.png" width="11px" height="12px" preserveAspectRatio="xMinYMin meet" x="226.5" y="-184"/>
<text text-anchor="start" x="241.5" y="-175.2" font-family="Helvetica,sans-Serif" font-size="11.00">type_id</text>
<polygon fill="none" stroke="black" points="346.5,-167 346.5,-189 440.5,-189 440.5,-167 346.5,-167"/>
<text text-anchor="start" x="349.5" y="-175.2" font-family="Helvetica,sans-Serif" font-size="11.00">int4[10]</text>
<polygon fill="none" stroke="black" points="221.5,-145 221.5,-167 346.5,-167 346.5,-145 221.5,-145"/>
<image xlink:href="../../images/foreignKeys.png" width="11px" height="12px" preserveAspectRatio="xMinYMin meet" x="226.5" y="-162"/>
<text text-anchor="start" x="241.5" y="-153.2" font-family="Helvetica,sans-Serif" font-size="11.00">component_id</text>
<polygon fill="none" stroke="black" points="346.5,-145 346.5,-167 440.5,-167 440.5,-145 346.5,-145"/>
<text text-anchor="start" x="349.5" y="-153.2" font-family="Helvetica,sans-Serif" font-size="11.00">int4[10]</text>
<polygon fill="none" stroke="black" points="221.5,-123 221.5,-145 346.5,-145 346.5,-123 221.5,-123"/>
<text text-anchor="start" x="241.5" y="-131.2" font-family="Helvetica,sans-Serif" font-size="11.00">name</text>
<polygon fill="none" stroke="black" points="346.5,-123 346.5,-145 440.5,-145 440.5,-123 346.5,-123"/>
<text text-anchor="start" x="349.5" y="-131.2" font-family="Helvetica,sans-Serif" font-size="11.00">text[2147483647]</text>
<polygon fill="none" stroke="black" points="221.5,-101 221.5,-123 346.5,-123 346.5,-101 221.5,-101"/>
<text text-anchor="start" x="241.5" y="-109.2" font-family="Helvetica,sans-Serif" font-size="11.00">description</text>
<polygon fill="none" stroke="black" points="346.5,-101 346.5,-123 440.5,-123 440.5,-101 346.5,-101"/>
<text text-anchor="start" x="349.5" y="-109.2" font-family="Helvetica,sans-Serif" font-size="11.00">text[2147483647]</text>
<polygon fill="none" stroke="black" points="221.5,-79 221.5,-101 346.5,-101 346.5,-79 221.5,-79"/>
<text text-anchor="start" x="241.5" y="-87.2" font-family="Helvetica,sans-Serif" font-size="11.00">reference</text>
<polygon fill="none" stroke="black" points="346.5,-79 346.5,-101 440.5,-101 440.5,-79 346.5,-79"/>
<text text-anchor="start" x="349.5" y="-87.2" font-family="Helvetica,sans-Serif" font-size="11.00">text[2147483647]</text>
<polygon fill="none" stroke="black" points="221.5,-57 221.5,-79 346.5,-79 346.5,-57 221.5,-57"/>
<text text-anchor="start" x="241.5" y="-65.2" font-family="Helvetica,sans-Serif" font-size="11.00">is_publishable</text>
<polygon fill="none" stroke="black" points="346.5,-57 346.5,-79 440.5,-79 440.5,-57 346.5,-57"/>
<text text-anchor="start" x="349.5" y="-65.2" font-family="Helvetica,sans-Serif" font-size="11.00">bool[1]</text>
<polygon fill="#ffffff" stroke="transparent" points="221.5,-39 221.5,-57 288.5,-57 288.5,-39 221.5,-39"/>
<polygon fill="none" stroke="black" points="221.5,-39 221.5,-57 288.5,-57 288.5,-39 221.5,-39"/>
<text text-anchor="start" x="224.5" y="-45.2" font-family="Helvetica,sans-Serif" font-size="11.00">&lt; 2</text>
<polygon fill="#ffffff" stroke="transparent" points="288.5,-39 288.5,-57 346.5,-57 346.5,-39 288.5,-39"/>
<polygon fill="none" stroke="black" points="288.5,-39 288.5,-57 346.5,-57 346.5,-39 288.5,-39"/>
<text text-anchor="start" x="336.5" y="-45.2" font-family="Helvetica,sans-Serif" font-size="11.00"> &#160;</text>
<polygon fill="#ffffff" stroke="transparent" points="346.5,-39 346.5,-57 440.5,-57 440.5,-39 346.5,-39"/>
<polygon fill="none" stroke="black" points="346.5,-39 346.5,-57 440.5,-57 440.5,-39 346.5,-39"/>
<text text-anchor="start" x="421.5" y="-45.2" font-family="Helvetica,sans-Serif" font-size="11.00">1 &gt;</text>
<polygon fill="none" stroke="black" stroke-width="2" points="220,-38 220,-234 441,-234 441,-38 220,-38"/>
</a>
</g>
</g>
<!-- report_standard_metrics&#45;&gt;standard_metrics -->
<g id="edge1" class="edge">
<title>report_standard_metrics:w&#45;&gt;standard_metrics:e</title>
<path fill="none" stroke="black" d="M475.99,-200C464.68,-200 457.49,-200 441.5,-200"/>
<polygon fill="black" stroke="black" points="482.5,-200 490.5,-203.6 486.5,-200 490.5,-200 490.5,-200 490.5,-200 486.5,-200 490.5,-196.4 482.5,-200 482.5,-200"/>
<ellipse fill="none" stroke="black" cx="479.3" cy="-200" rx="3.2" ry="3.2"/>
</g>
<!-- metric_components -->
<g id="node3" class="node">
<title>metric_components</title>
<g id="a_node3"><a xlink:href="../../tables/metric_components.html" xlink:title="metric_components" target="_top">
<polygon fill="#ffffff" stroke="transparent" points="8,-64 8,-148 170,-148 170,-64 8,-64"/>
<polygon fill="#f5f5f5" stroke="transparent" points="8,-126 8,-148 170,-148 170,-126 8,-126"/>
<polygon fill="none" stroke="black" points="8,-126 8,-148 170,-148 170,-126 8,-126"/>
<text text-anchor="start" x="13" y="-135.2" font-family="Helvetica,sans-Serif" font-weight="bold" font-size="11.00">metric_components</text>
<text text-anchor="start" x="131" y="-134.2" font-family="Helvetica,sans-Serif" font-size="11.00">[table]</text>
<polygon fill="none" stroke="black" points="8,-104 8,-126 170,-126 170,-104 8,-104"/>
<image xlink:href="../../images/primaryKeys.png" width="11px" height="12px" preserveAspectRatio="xMinYMin meet" x="13" y="-121"/>
<text text-anchor="start" x="40" y="-112.2" font-family="Helvetica,sans-Serif" font-size="11.00">id</text>
<polygon fill="#ffffff" stroke="transparent" points="8,-82 8,-104 170,-104 170,-82 8,-82"/>
<polygon fill="none" stroke="black" points="8,-82 8,-104 170,-104 170,-82 8,-82"/>
<text text-anchor="start" x="40" y="-90.2" font-family="Helvetica,sans-Serif" font-size="11.00">name</text>
<polygon fill="#ffffff" stroke="transparent" points="8,-64 8,-82 78,-82 78,-64 8,-64"/>
<polygon fill="none" stroke="black" points="8,-64 8,-82 78,-82 78,-64 8,-64"/>
<text text-anchor="start" x="11" y="-70.2" font-family="Helvetica,sans-Serif" font-size="11.00"> &#160;</text>
<polygon fill="#ffffff" stroke="transparent" points="78,-64 78,-82 119,-82 119,-64 78,-64"/>
<polygon fill="none" stroke="black" points="78,-64 78,-82 119,-82 119,-64 78,-64"/>
<text text-anchor="start" x="109" y="-70.2" font-family="Helvetica,sans-Serif" font-size="11.00"> &#160;</text>
<polygon fill="#ffffff" stroke="transparent" points="119,-64 119,-82 170,-82 170,-64 119,-64"/>
<polygon fill="none" stroke="black" points="119,-64 119,-82 170,-82 170,-64 119,-64"/>
<text text-anchor="start" x="151" y="-70.2" font-family="Helvetica,sans-Serif" font-size="11.00">3 &gt;</text>
</a>
</g>
</g>
<!-- standard_metrics&#45;&gt;metric_components -->
<g id="edge2" class="edge">
<title>standard_metrics:w&#45;&gt;metric_components:e</title>
<path fill="none" stroke="black" d="M206.58,-151.3C193.54,-140.53 193.54,-115 171,-115"/>
<polygon fill="black" stroke="black" points="212.92,-153.44 219.35,-159.41 216.71,-154.72 220.5,-156 220.5,-156 220.5,-156 216.71,-154.72 221.65,-152.59 212.92,-153.44 212.92,-153.44"/>
<ellipse fill="none" stroke="black" cx="209.89" cy="-152.42" rx="3.2" ry="3.2"/>
</g>
<!-- metric_types -->
<g id="node4" class="node">
<title>metric_types</title>
<g id="a_node4"><a xlink:href="../../tables/metric_types.html" xlink:title="metric_types" target="_top">
<polygon fill="#ffffff" stroke="transparent" points="29,-169 29,-253 149,-253 149,-169 29,-169"/>
<polygon fill="#f5f5f5" stroke="transparent" points="29,-231 29,-253 149,-253 149,-231 29,-231"/>
<polygon fill="none" stroke="black" points="29,-231 29,-253 149,-253 149,-231 29,-231"/>
<text text-anchor="start" x="34" y="-240.2" font-family="Helvetica,sans-Serif" font-weight="bold" font-size="11.00">metric_types</text>
<text text-anchor="start" x="110" y="-239.2" font-family="Helvetica,sans-Serif" font-size="11.00">[table]</text>
<polygon fill="none" stroke="black" points="29,-209 29,-231 149,-231 149,-209 29,-209"/>
<image xlink:href="../../images/primaryKeys.png" width="11px" height="12px" preserveAspectRatio="xMinYMin meet" x="34" y="-226"/>
<text text-anchor="start" x="61" y="-217.2" font-family="Helvetica,sans-Serif" font-size="11.00">id</text>
<polygon fill="#ffffff" stroke="transparent" points="29,-187 29,-209 149,-209 149,-187 29,-187"/>
<polygon fill="none" stroke="black" points="29,-187 29,-209 149,-209 149,-187 29,-187"/>
<text text-anchor="start" x="61" y="-195.2" font-family="Helvetica,sans-Serif" font-size="11.00">name</text>
<polygon fill="#ffffff" stroke="transparent" points="29,-169 29,-187 78,-187 78,-169 29,-169"/>
<polygon fill="none" stroke="black" points="29,-169 29,-187 78,-187 78,-169 29,-169"/>
<text text-anchor="start" x="32" y="-175.2" font-family="Helvetica,sans-Serif" font-size="11.00"> &#160;</text>
<polygon fill="#ffffff" stroke="transparent" points="78,-169 78,-187 109,-187 109,-169 78,-169"/>
<polygon fill="none" stroke="black" points="78,-169 78,-187 109,-187 109,-169 78,-169"/>
<text text-anchor="start" x="99" y="-175.2" font-family="Helvetica,sans-Serif" font-size="11.00"> &#160;</text>
<polygon fill="#ffffff" stroke="transparent" points="109,-169 109,-187 149,-187 149,-169 109,-169"/>
<polygon fill="none" stroke="black" points="109,-169 109,-187 149,-187 149,-169 109,-169"/>
<text text-anchor="start" x="130" y="-175.2" font-family="Helvetica,sans-Serif" font-size="11.00">3 &gt;</text>
</a>
</g>
</g>
<!-- standard_metrics&#45;&gt;metric_types -->
<g id="edge3" class="edge">
<title>standard_metrics:w&#45;&gt;metric_types:e</title>
<path fill="none" stroke="black" d="M206.27,-180.63C183.87,-189.82 180.92,-220 150,-220"/>
<polygon fill="black" stroke="black" points="212.63,-179.45 221.15,-181.54 216.57,-178.73 220.5,-178 220.5,-178 220.5,-178 216.57,-178.73 219.85,-174.46 212.63,-179.45 212.63,-179.45"/>
<ellipse fill="none" stroke="black" cx="209.49" cy="-180.03" rx="3.2" ry="3.2"/>
</g>
</g>
</svg>
