<?xml version="1.0" encoding="UTF-8" standalone="no"?>
<!DOCTYPE svg PUBLIC "-//W3C//DTD SVG 1.1//EN"
 "http://www.w3.org/Graphics/SVG/1.1/DTD/svg11.dtd">
<!-- Generated by graphviz version 2.47.1 (20210515.0534)
 -->
<!-- Title: oneDegreeRelationshipsDiagram Pages: 1 -->
<svg width="521pt" height="472pt"
 viewBox="0.00 0.00 521.00 472.00" xmlns="http://www.w3.org/2000/svg" xmlns:xlink="http://www.w3.org/1999/xlink">
<g id="graph0" class="graph" transform="scale(1 1) rotate(0) translate(4 468)">
<title>oneDegreeRelationshipsDiagram</title>
<polygon fill="#ffffff" stroke="transparent" points="-4,4 -4,-468 517,-468 517,4 -4,4"/>
<text text-anchor="middle" x="73.5" y="-7.2" font-family="Helvetica,sans-Serif" font-size="11.00">Generated by SchemaSpy</text>
<!-- participant_project_species -->
<g id="node1" class="node">
<title>participant_project_species</title>
<g id="a_node1"><a xlink:href="../../tables/participant_project_species.html" xlink:title="participant_project_species" target="_top">
<polygon fill="#ffffff" stroke="transparent" points="299,-248 299,-460 505,-460 505,-248 299,-248"/>
<polygon fill="#f5f5f5" stroke="transparent" points="299,-438 299,-460 505,-460 505,-438 299,-438"/>
<polygon fill="none" stroke="black" points="299,-438 299,-460 505,-460 505,-438 299,-438"/>
<text text-anchor="start" x="304" y="-447.2" font-family="Helvetica,sans-Serif" font-weight="bold" font-size="11.00">participant_project_species</text>
<text text-anchor="start" x="466" y="-446.2" font-family="Helvetica,sans-Serif" font-size="11.00">[table]</text>
<polygon fill="none" stroke="black" points="299,-416 299,-438 505,-438 505,-416 299,-416"/>
<image xlink:href="../../images/primaryKeys.png" width="11px" height="12px" preserveAspectRatio="xMinYMin meet" x="304" y="-433"/>
<text text-anchor="start" x="331" y="-424.2" font-family="Helvetica,sans-Serif" font-size="11.00">id</text>
<polygon fill="#ffffff" stroke="transparent" points="299,-394 299,-416 505,-416 505,-394 299,-394"/>
<polygon fill="none" stroke="black" points="299,-394 299,-416 505,-416 505,-394 299,-394"/>
<image xlink:href="../../images/foreignKeys.png" width="11px" height="12px" preserveAspectRatio="xMinYMin meet" x="304" y="-411"/>
<text text-anchor="start" x="331" y="-402.2" font-family="Helvetica,sans-Serif" font-size="11.00">project_id</text>
<polygon fill="#ffffff" stroke="transparent" points="299,-372 299,-394 505,-394 505,-372 299,-372"/>
<polygon fill="none" stroke="black" points="299,-372 299,-394 505,-394 505,-372 299,-372"/>
<image xlink:href="../../images/foreignKeys.png" width="11px" height="12px" preserveAspectRatio="xMinYMin meet" x="304" y="-389"/>
<text text-anchor="start" x="331" y="-380.2" font-family="Helvetica,sans-Serif" font-size="11.00">species_id</text>
<polygon fill="none" stroke="black" points="299,-350 299,-372 505,-372 505,-350 299,-350"/>
<image xlink:href="../../images/foreignKeys.png" width="11px" height="12px" preserveAspectRatio="xMinYMin meet" x="304" y="-367"/>
<text text-anchor="start" x="331" y="-358.2" font-family="Helvetica,sans-Serif" font-size="11.00">submission_status_id</text>
<polygon fill="none" stroke="black" points="299,-328 299,-350 505,-350 505,-328 299,-328"/>
<image xlink:href="../../images/foreignKeys.png" width="11px" height="12px" preserveAspectRatio="xMinYMin meet" x="304" y="-345"/>
<text text-anchor="start" x="331" y="-336.2" font-family="Helvetica,sans-Serif" font-size="11.00">created_by</text>
<polygon fill="none" stroke="black" points="299,-306 299,-328 505,-328 505,-306 299,-306"/>
<image xlink:href="../../images/foreignKeys.png" width="11px" height="12px" preserveAspectRatio="xMinYMin meet" x="304" y="-323"/>
<text text-anchor="start" x="331" y="-314.2" font-family="Helvetica,sans-Serif" font-size="11.00">modified_by</text>
<polygon fill="none" stroke="black" points="299,-284 299,-306 505,-306 505,-284 299,-284"/>
<image xlink:href="../../images/foreignKeys.png" width="11px" height="12px" preserveAspectRatio="xMinYMin meet" x="304" y="-301"/>
<text text-anchor="start" x="331" y="-292.2" font-family="Helvetica,sans-Serif" font-size="11.00">species_native_category_id</text>
<polygon fill="none" stroke="black" points="299,-266 299,-284 505,-284 505,-266 299,-266"/>
<text text-anchor="start" x="302" y="-272.2" font-family="Helvetica,sans-Serif" font-size="11.00">...</text>
<polygon fill="#ffffff" stroke="transparent" points="299,-248 299,-266 400,-266 400,-248 299,-248"/>
<polygon fill="none" stroke="black" points="299,-248 299,-266 400,-266 400,-248 299,-248"/>
<text text-anchor="start" x="302" y="-254.2" font-family="Helvetica,sans-Serif" font-size="11.00">&lt; 6</text>
<polygon fill="#ffffff" stroke="transparent" points="400,-248 400,-266 452,-266 452,-248 400,-248"/>
<polygon fill="none" stroke="black" points="400,-248 400,-266 452,-266 452,-248 400,-248"/>
<text text-anchor="start" x="442" y="-254.2" font-family="Helvetica,sans-Serif" font-size="11.00"> &#160;</text>
<polygon fill="#ffffff" stroke="transparent" points="452,-248 452,-266 505,-266 505,-248 452,-248"/>
<polygon fill="none" stroke="black" points="452,-248 452,-266 505,-266 505,-248 452,-248"/>
<text text-anchor="start" x="495" y="-254.2" font-family="Helvetica,sans-Serif" font-size="11.00"> &#160;</text>
</a>
</g>
</g>
<!-- submission_statuses -->
<g id="node2" class="node">
<title>submission_statuses</title>
<g id="a_node2"><a xlink:href="../../tables/submission_statuses.html" xlink:title="submission_statuses" target="_top">
<polygon fill="#ffffff" stroke="transparent" points="8,-191 8,-279 250,-279 250,-191 8,-191"/>
<polygon fill="#f5f5f5" stroke="transparent" points="10,-255 10,-277 248,-277 248,-255 10,-255"/>
<polygon fill="none" stroke="black" points="10,-255 10,-277 248,-277 248,-255 10,-255"/>
<text text-anchor="start" x="15" y="-264.2" font-family="Helvetica,sans-Serif" font-weight="bold" font-size="11.00">submission_statuses</text>
<text text-anchor="start" x="209" y="-263.2" font-family="Helvetica,sans-Serif" font-size="11.00">[table]</text>
<polygon fill="none" stroke="black" points="10,-233 10,-255 154,-255 154,-233 10,-233"/>
<image xlink:href="../../images/primaryKeys.png" width="11px" height="12px" preserveAspectRatio="xMinYMin meet" x="15" y="-250"/>
<text text-anchor="start" x="30" y="-241.2" font-family="Helvetica,sans-Serif" font-size="11.00">id</text>
<polygon fill="none" stroke="black" points="154,-233 154,-255 248,-255 248,-233 154,-233"/>
<text text-anchor="start" x="157" y="-241.2" font-family="Helvetica,sans-Serif" font-size="11.00">int4[10]</text>
<polygon fill="#ffffff" stroke="transparent" points="10,-211 10,-233 154,-233 154,-211 10,-211"/>
<polygon fill="none" stroke="black" points="10,-211 10,-233 154,-233 154,-211 10,-211"/>
<text text-anchor="start" x="30" y="-219.2" font-family="Helvetica,sans-Serif" font-size="11.00">name</text>
<polygon fill="none" stroke="black" points="154,-211 154,-233 248,-233 248,-211 154,-211"/>
<text text-anchor="start" x="157" y="-219.2" font-family="Helvetica,sans-Serif" font-size="11.00">text[2147483647]</text>
<polygon fill="#ffffff" stroke="transparent" points="10,-193 10,-211 86,-211 86,-193 10,-193"/>
<polygon fill="none" stroke="black" points="10,-193 10,-211 86,-211 86,-193 10,-193"/>
<text text-anchor="start" x="13" y="-199.2" font-family="Helvetica,sans-Serif" font-size="11.00">&lt; 0</text>
<polygon fill="#ffffff" stroke="transparent" points="86,-193 86,-211 154,-211 154,-193 86,-193"/>
<polygon fill="none" stroke="black" points="86,-193 86,-211 154,-211 154,-193 86,-193"/>
<text text-anchor="start" x="144" y="-199.2" font-family="Helvetica,sans-Serif" font-size="11.00"> &#160;</text>
<polygon fill="#ffffff" stroke="transparent" points="154,-193 154,-211 248,-211 248,-193 154,-193"/>
<polygon fill="none" stroke="black" points="154,-193 154,-211 248,-211 248,-193 154,-193"/>
<text text-anchor="start" x="229" y="-199.2" font-family="Helvetica,sans-Serif" font-size="11.00">2 &gt;</text>
<polygon fill="none" stroke="black" stroke-width="2" points="9,-192 9,-278 249,-278 249,-192 9,-192"/>
</a>
</g>
</g>
<!-- participant_project_species&#45;&gt;submission_statuses -->
<g id="edge1" class="edge">
<title>participant_project_species:w&#45;&gt;submission_statuses:e</title>
<path fill="none" stroke="black" d="M283.89,-357.37C253.74,-337.62 299.43,-244 249,-244"/>
<polygon fill="black" stroke="black" points="290.25,-359.01 297.1,-364.49 294.13,-360 298,-361 298,-361 298,-361 294.13,-360 298.9,-357.51 290.25,-359.01 290.25,-359.01"/>
<ellipse fill="none" stroke="black" cx="287.15" cy="-358.21" rx="3.2" ry="3.2"/>
</g>
<!-- submissions -->
<g id="node3" class="node">
<title>submissions</title>
<g id="a_node3"><a xlink:href="../../tables/submissions.html" xlink:title="submissions" target="_top">
<polygon fill="#ffffff" stroke="transparent" points="328.5,-37 328.5,-227 475.5,-227 475.5,-37 328.5,-37"/>
<polygon fill="#f5f5f5" stroke="transparent" points="329,-205 329,-227 476,-227 476,-205 329,-205"/>
<polygon fill="none" stroke="black" points="329,-205 329,-227 476,-227 476,-205 329,-205"/>
<text text-anchor="start" x="334" y="-214.2" font-family="Helvetica,sans-Serif" font-weight="bold" font-size="11.00">submissions</text>
<text text-anchor="start" x="437" y="-213.2" font-family="Helvetica,sans-Serif" font-size="11.00">[table]</text>
<polygon fill="none" stroke="black" points="329,-183 329,-205 476,-205 476,-183 329,-183"/>
<image xlink:href="../../images/primaryKeys.png" width="11px" height="12px" preserveAspectRatio="xMinYMin meet" x="334" y="-200"/>
<text text-anchor="start" x="349" y="-191.2" font-family="Helvetica,sans-Serif" font-size="11.00">id</text>
<polygon fill="#ffffff" stroke="transparent" points="329,-161 329,-183 476,-183 476,-161 329,-161"/>
<polygon fill="none" stroke="black" points="329,-161 329,-183 476,-183 476,-161 329,-161"/>
<image xlink:href="../../images/foreignKeys.png" width="11px" height="12px" preserveAspectRatio="xMinYMin meet" x="334" y="-178"/>
<text text-anchor="start" x="349" y="-169.2" font-family="Helvetica,sans-Serif" font-size="11.00">project_id</text>
<polygon fill="#ffffff" stroke="transparent" points="329,-139 329,-161 476,-161 476,-139 329,-139"/>
<polygon fill="none" stroke="black" points="329,-139 329,-161 476,-161 476,-139 329,-139"/>
<image xlink:href="../../images/foreignKeys.png" width="11px" height="12px" preserveAspectRatio="xMinYMin meet" x="334" y="-156"/>
<text text-anchor="start" x="349" y="-147.2" font-family="Helvetica,sans-Serif" font-size="11.00">deliverable_id</text>
<polygon fill="none" stroke="black" points="329,-117 329,-139 476,-139 476,-117 329,-117"/>
<image xlink:href="../../images/foreignKeys.png" width="11px" height="12px" preserveAspectRatio="xMinYMin meet" x="334" y="-134"/>
<text text-anchor="start" x="349" y="-125.2" font-family="Helvetica,sans-Serif" font-size="11.00">submission_status_id</text>
<polygon fill="none" stroke="black" points="329,-95 329,-117 476,-117 476,-95 329,-95"/>
<image xlink:href="../../images/foreignKeys.png" width="11px" height="12px" preserveAspectRatio="xMinYMin meet" x="334" y="-112"/>
<text text-anchor="start" x="349" y="-103.2" font-family="Helvetica,sans-Serif" font-size="11.00">created_by</text>
<polygon fill="none" stroke="black" points="329,-73 329,-95 476,-95 476,-73 329,-73"/>
<image xlink:href="../../images/foreignKeys.png" width="11px" height="12px" preserveAspectRatio="xMinYMin meet" x="334" y="-90"/>
<text text-anchor="start" x="349" y="-81.2" font-family="Helvetica,sans-Serif" font-size="11.00">modified_by</text>
<polygon fill="none" stroke="black" points="329,-55 329,-73 476,-73 476,-55 329,-55"/>
<text text-anchor="start" x="332" y="-61.2" font-family="Helvetica,sans-Serif" font-size="11.00">...</text>
<polygon fill="#ffffff" stroke="transparent" points="329,-37 329,-55 396,-55 396,-37 329,-37"/>
<polygon fill="none" stroke="black" points="329,-37 329,-55 396,-55 396,-37 329,-37"/>
<text text-anchor="start" x="332" y="-43.2" font-family="Helvetica,sans-Serif" font-size="11.00">&lt; 5</text>
<polygon fill="#ffffff" stroke="transparent" points="396,-37 396,-55 431,-55 431,-37 396,-37"/>
<polygon fill="none" stroke="black" points="396,-37 396,-55 431,-55 431,-37 396,-37"/>
<text text-anchor="start" x="421" y="-43.2" font-family="Helvetica,sans-Serif" font-size="11.00"> &#160;</text>
<polygon fill="#ffffff" stroke="transparent" points="431,-37 431,-55 476,-55 476,-37 431,-37"/>
<polygon fill="none" stroke="black" points="431,-37 431,-55 476,-55 476,-37 431,-37"/>
<text text-anchor="start" x="457" y="-43.2" font-family="Helvetica,sans-Serif" font-size="11.00">2 &gt;</text>
</a>
</g>
</g>
<!-- submissions&#45;&gt;submission_statuses -->
<g id="edge2" class="edge">
<title>submissions:w&#45;&gt;submission_statuses:e</title>
<path fill="none" stroke="black" d="M313.65,-130.64C272.97,-147.91 305.77,-244 249,-244"/>
<polygon fill="black" stroke="black" points="320.13,-129.45 328.65,-131.54 324.07,-128.72 328,-128 328,-128 328,-128 324.07,-128.72 327.35,-124.46 320.13,-129.45 320.13,-129.45"/>
<ellipse fill="none" stroke="black" cx="316.98" cy="-130.03" rx="3.2" ry="3.2"/>
</g>
</g>
</svg>
