<?xml version="1.0" encoding="UTF-8" standalone="no"?>
<!DOCTYPE svg PUBLIC "-//W3C//DTD SVG 1.1//EN"
 "http://www.w3.org/Graphics/SVG/1.1/DTD/svg11.dtd">
<!-- Generated by graphviz version 2.47.1 (20210515.0534)
 -->
<!-- Title: oneDegreeRelationshipsDiagram Pages: 1 -->
<svg width="784pt" height="340pt"
 viewBox="0.00 0.00 784.00 340.00" xmlns="http://www.w3.org/2000/svg" xmlns:xlink="http://www.w3.org/1999/xlink">
<g id="graph0" class="graph" transform="scale(1 1) rotate(0) translate(4 336)">
<title>oneDegreeRelationshipsDiagram</title>
<polygon fill="#ffffff" stroke="transparent" points="-4,4 -4,-336 780,-336 780,4 -4,4"/>
<text text-anchor="middle" x="73.5" y="-7.2" font-family="Helvetica,sans-Serif" font-size="11.00">Generated by SchemaSpy</text>
<!-- report_system_metrics -->
<g id="node1" class="node">
<title>report_system_metrics</title>
<g id="a_node1"><a xlink:href="../../tables/report_system_metrics.html" xlink:title="report_system_metrics" target="_top">
<polygon fill="#ffffff" stroke="transparent" points="534,-182 534,-328 714,-328 714,-182 534,-182"/>
<polygon fill="#f5f5f5" stroke="transparent" points="534,-306 534,-328 714,-328 714,-306 534,-306"/>
<polygon fill="none" stroke="black" points="534,-306 534,-328 714,-328 714,-306 534,-306"/>
<text text-anchor="start" x="539" y="-315.2" font-family="Helvetica,sans-Serif" font-weight="bold" font-size="11.00">report_system_metrics</text>
<text text-anchor="start" x="675" y="-314.2" font-family="Helvetica,sans-Serif" font-size="11.00">[table]</text>
<polygon fill="none" stroke="black" points="534,-284 534,-306 714,-306 714,-284 534,-284"/>
<image xlink:href="../../images/primaryKeys.png" width="11px" height="12px" preserveAspectRatio="xMinYMin meet" x="539" y="-301"/>
<text text-anchor="start" x="566" y="-292.2" font-family="Helvetica,sans-Serif" font-size="11.00">report_id</text>
<polygon fill="none" stroke="black" points="534,-262 534,-284 714,-284 714,-262 534,-262"/>
<image xlink:href="../../images/primaryKeys.png" width="11px" height="12px" preserveAspectRatio="xMinYMin meet" x="539" y="-279"/>
<text text-anchor="start" x="566" y="-270.2" font-family="Helvetica,sans-Serif" font-size="11.00">system_metric_id</text>
<polygon fill="none" stroke="black" points="534,-240 534,-262 714,-262 714,-240 534,-240"/>
<image xlink:href="../../images/foreignKeys.png" width="11px" height="12px" preserveAspectRatio="xMinYMin meet" x="539" y="-257"/>
<text text-anchor="start" x="566" y="-248.2" font-family="Helvetica,sans-Serif" font-size="11.00">modified_by</text>
<polygon fill="none" stroke="black" points="534,-218 534,-240 714,-240 714,-218 534,-218"/>
<image xlink:href="../../images/foreignKeys.png" width="11px" height="12px" preserveAspectRatio="xMinYMin meet" x="539" y="-235"/>
<text text-anchor="start" x="566" y="-226.2" font-family="Helvetica,sans-Serif" font-size="11.00">status_id</text>
<polygon fill="none" stroke="black" points="534,-200 534,-218 714,-218 714,-200 534,-200"/>
<text text-anchor="start" x="537" y="-206.2" font-family="Helvetica,sans-Serif" font-size="11.00">...</text>
<polygon fill="#ffffff" stroke="transparent" points="534,-182 534,-200 622,-200 622,-182 534,-182"/>
<polygon fill="none" stroke="black" points="534,-182 534,-200 622,-200 622,-182 534,-182"/>
<text text-anchor="start" x="537" y="-188.2" font-family="Helvetica,sans-Serif" font-size="11.00">&lt; 4</text>
<polygon fill="#ffffff" stroke="transparent" points="622,-182 622,-200 668,-200 668,-182 622,-182"/>
<polygon fill="none" stroke="black" points="622,-182 622,-200 668,-200 668,-182 622,-182"/>
<text text-anchor="start" x="658" y="-188.2" font-family="Helvetica,sans-Serif" font-size="11.00"> &#160;</text>
<polygon fill="#ffffff" stroke="transparent" points="668,-182 668,-200 714,-200 714,-182 668,-182"/>
<polygon fill="none" stroke="black" points="668,-182 668,-200 714,-200 714,-182 668,-182"/>
<text text-anchor="start" x="704" y="-188.2" font-family="Helvetica,sans-Serif" font-size="11.00"> &#160;</text>
</a>
</g>
</g>
<!-- system_metrics -->
<g id="node2" class="node">
<title>system_metrics</title>
<g id="a_node2"><a xlink:href="../../tables/system_metrics.html" xlink:title="system_metrics" target="_top">
<polygon fill="#ffffff" stroke="transparent" points="219,-37 219,-235 431,-235 431,-37 219,-37"/>
<polygon fill="#f5f5f5" stroke="transparent" points="221,-211 221,-233 429,-233 429,-211 221,-211"/>
<polygon fill="none" stroke="black" points="221,-211 221,-233 429,-233 429,-211 221,-211"/>
<text text-anchor="start" x="226" y="-220.2" font-family="Helvetica,sans-Serif" font-weight="bold" font-size="11.00">system_metrics</text>
<text text-anchor="start" x="390" y="-219.2" font-family="Helvetica,sans-Serif" font-size="11.00">[table]</text>
<polygon fill="none" stroke="black" points="221,-189 221,-211 335,-211 335,-189 221,-189"/>
<image xlink:href="../../images/primaryKeys.png" width="11px" height="12px" preserveAspectRatio="xMinYMin meet" x="226" y="-206"/>
<text text-anchor="start" x="241" y="-197.2" font-family="Helvetica,sans-Serif" font-size="11.00">id</text>
<polygon fill="none" stroke="black" points="335,-189 335,-211 429,-211 429,-189 335,-189"/>
<text text-anchor="start" x="338" y="-197.2" font-family="Helvetica,sans-Serif" font-size="11.00">int4[10]</text>
<polygon fill="none" stroke="black" points="221,-167 221,-189 335,-189 335,-167 221,-167"/>
<text text-anchor="start" x="241" y="-175.2" font-family="Helvetica,sans-Serif" font-size="11.00">name</text>
<polygon fill="none" stroke="black" points="335,-167 335,-189 429,-189 429,-167 335,-167"/>
<text text-anchor="start" x="338" y="-175.2" font-family="Helvetica,sans-Serif" font-size="11.00">text[2147483647]</text>
<polygon fill="none" stroke="black" points="221,-145 221,-167 335,-167 335,-145 221,-145"/>
<image xlink:href="../../images/foreignKeys.png" width="11px" height="12px" preserveAspectRatio="xMinYMin meet" x="226" y="-162"/>
<text text-anchor="start" x="241" y="-153.2" font-family="Helvetica,sans-Serif" font-size="11.00">type_id</text>
<polygon fill="none" stroke="black" points="335,-145 335,-167 429,-167 429,-145 335,-145"/>
<text text-anchor="start" x="338" y="-153.2" font-family="Helvetica,sans-Serif" font-size="11.00">int4[10]</text>
<polygon fill="none" stroke="black" points="221,-123 221,-145 335,-145 335,-123 221,-123"/>
<image xlink:href="../../images/foreignKeys.png" width="11px" height="12px" preserveAspectRatio="xMinYMin meet" x="226" y="-140"/>
<text text-anchor="start" x="241" y="-131.2" font-family="Helvetica,sans-Serif" font-size="11.00">component_id</text>
<polygon fill="none" stroke="black" points="335,-123 335,-145 429,-145 429,-123 335,-123"/>
<text text-anchor="start" x="338" y="-131.2" font-family="Helvetica,sans-Serif" font-size="11.00">int4[10]</text>
<polygon fill="none" stroke="black" points="221,-101 221,-123 335,-123 335,-101 221,-101"/>
<text text-anchor="start" x="241" y="-109.2" font-family="Helvetica,sans-Serif" font-size="11.00">description</text>
<polygon fill="none" stroke="black" points="335,-101 335,-123 429,-123 429,-101 335,-101"/>
<text text-anchor="start" x="338" y="-109.2" font-family="Helvetica,sans-Serif" font-size="11.00">text[2147483647]</text>
<polygon fill="none" stroke="black" points="221,-79 221,-101 335,-101 335,-79 221,-79"/>
<text text-anchor="start" x="241" y="-87.2" font-family="Helvetica,sans-Serif" font-size="11.00">reference</text>
<polygon fill="none" stroke="black" points="335,-79 335,-101 429,-101 429,-79 335,-79"/>
<text text-anchor="start" x="338" y="-87.2" font-family="Helvetica,sans-Serif" font-size="11.00">text[2147483647]</text>
<polygon fill="none" stroke="black" points="221,-57 221,-79 335,-79 335,-57 221,-57"/>
<text text-anchor="start" x="241" y="-65.2" font-family="Helvetica,sans-Serif" font-size="11.00">is_publishable</text>
<polygon fill="none" stroke="black" points="335,-57 335,-79 429,-79 429,-57 335,-57"/>
<text text-anchor="start" x="338" y="-65.2" font-family="Helvetica,sans-Serif" font-size="11.00">bool[1]</text>
<polygon fill="#ffffff" stroke="transparent" points="221,-39 221,-57 282,-57 282,-39 221,-39"/>
<polygon fill="none" stroke="black" points="221,-39 221,-57 282,-57 282,-39 221,-39"/>
<text text-anchor="start" x="224" y="-45.2" font-family="Helvetica,sans-Serif" font-size="11.00">&lt; 2</text>
<polygon fill="#ffffff" stroke="transparent" points="282,-39 282,-57 335,-57 335,-39 282,-39"/>
<polygon fill="none" stroke="black" points="282,-39 282,-57 335,-57 335,-39 282,-39"/>
<text text-anchor="start" x="325" y="-45.2" font-family="Helvetica,sans-Serif" font-size="11.00"> &#160;</text>
<polygon fill="#ffffff" stroke="transparent" points="335,-39 335,-57 429,-57 429,-39 335,-39"/>
<polygon fill="none" stroke="black" points="335,-39 335,-57 429,-57 429,-39 335,-39"/>
<text text-anchor="start" x="410" y="-45.2" font-family="Helvetica,sans-Serif" font-size="11.00">2 &gt;</text>
<polygon fill="none" stroke="black" stroke-width="2" points="220,-38 220,-234 430,-234 430,-38 220,-38"/>
</a>
</g>
</g>
<!-- report_system_metrics&#45;&gt;system_metrics -->
<g id="edge1" class="edge">
<title>report_system_metrics:w&#45;&gt;system_metrics:e</title>
<path fill="none" stroke="black" d="M518.57,-271.12C478.06,-259.7 480.74,-200 430,-200"/>
<polygon fill="black" stroke="black" points="525.07,-271.97 532.54,-276.57 529.03,-272.48 533,-273 533,-273 533,-273 529.03,-272.48 533.46,-269.43 525.07,-271.97 525.07,-271.97"/>
<ellipse fill="none" stroke="black" cx="521.89" cy="-271.55" rx="3.2" ry="3.2"/>
</g>
<!-- metric_components -->
<g id="node3" class="node">
<title>metric_components</title>
<g id="a_node3"><a xlink:href="../../tables/metric_components.html" xlink:title="metric_components" target="_top">
<polygon fill="#ffffff" stroke="transparent" points="8,-42 8,-126 170,-126 170,-42 8,-42"/>
<polygon fill="#f5f5f5" stroke="transparent" points="8,-104 8,-126 170,-126 170,-104 8,-104"/>
<polygon fill="none" stroke="black" points="8,-104 8,-126 170,-126 170,-104 8,-104"/>
<text text-anchor="start" x="13" y="-113.2" font-family="Helvetica,sans-Serif" font-weight="bold" font-size="11.00">metric_components</text>
<text text-anchor="start" x="131" y="-112.2" font-family="Helvetica,sans-Serif" font-size="11.00">[table]</text>
<polygon fill="none" stroke="black" points="8,-82 8,-104 170,-104 170,-82 8,-82"/>
<image xlink:href="../../images/primaryKeys.png" width="11px" height="12px" preserveAspectRatio="xMinYMin meet" x="13" y="-99"/>
<text text-anchor="start" x="40" y="-90.2" font-family="Helvetica,sans-Serif" font-size="11.00">id</text>
<polygon fill="#ffffff" stroke="transparent" points="8,-60 8,-82 170,-82 170,-60 8,-60"/>
<polygon fill="none" stroke="black" points="8,-60 8,-82 170,-82 170,-60 8,-60"/>
<text text-anchor="start" x="40" y="-68.2" font-family="Helvetica,sans-Serif" font-size="11.00">name</text>
<polygon fill="#ffffff" stroke="transparent" points="8,-42 8,-60 78,-60 78,-42 8,-42"/>
<polygon fill="none" stroke="black" points="8,-42 8,-60 78,-60 78,-42 8,-42"/>
<text text-anchor="start" x="11" y="-48.2" font-family="Helvetica,sans-Serif" font-size="11.00"> &#160;</text>
<polygon fill="#ffffff" stroke="transparent" points="78,-42 78,-60 119,-60 119,-42 78,-42"/>
<polygon fill="none" stroke="black" points="78,-42 78,-60 119,-60 119,-42 78,-42"/>
<text text-anchor="start" x="109" y="-48.2" font-family="Helvetica,sans-Serif" font-size="11.00"> &#160;</text>
<polygon fill="#ffffff" stroke="transparent" points="119,-42 119,-60 170,-60 170,-42 119,-42"/>
<polygon fill="none" stroke="black" points="119,-42 119,-60 170,-60 170,-42 119,-42"/>
<text text-anchor="start" x="151" y="-48.2" font-family="Helvetica,sans-Serif" font-size="11.00">3 &gt;</text>
</a>
</g>
</g>
<!-- system_metrics&#45;&gt;metric_components -->
<g id="edge2" class="edge">
<title>system_metrics:w&#45;&gt;metric_components:e</title>
<path fill="none" stroke="black" d="M206.18,-129.3C193.28,-118.53 193.41,-93 171,-93"/>
<polygon fill="black" stroke="black" points="212.43,-131.42 218.84,-137.41 216.21,-132.71 220,-134 220,-134 220,-134 216.21,-132.71 221.16,-130.59 212.43,-131.42 212.43,-131.42"/>
<ellipse fill="none" stroke="black" cx="209.4" cy="-130.39" rx="3.2" ry="3.2"/>
</g>
<!-- metric_types -->
<g id="node4" class="node">
<title>metric_types</title>
<g id="a_node4"><a xlink:href="../../tables/metric_types.html" xlink:title="metric_types" target="_top">
<polygon fill="#ffffff" stroke="transparent" points="29,-147 29,-231 149,-231 149,-147 29,-147"/>
<polygon fill="#f5f5f5" stroke="transparent" points="29,-209 29,-231 149,-231 149,-209 29,-209"/>
<polygon fill="none" stroke="black" points="29,-209 29,-231 149,-231 149,-209 29,-209"/>
<text text-anchor="start" x="34" y="-218.2" font-family="Helvetica,sans-Serif" font-weight="bold" font-size="11.00">metric_types</text>
<text text-anchor="start" x="110" y="-217.2" font-family="Helvetica,sans-Serif" font-size="11.00">[table]</text>
<polygon fill="none" stroke="black" points="29,-187 29,-209 149,-209 149,-187 29,-187"/>
<image xlink:href="../../images/primaryKeys.png" width="11px" height="12px" preserveAspectRatio="xMinYMin meet" x="34" y="-204"/>
<text text-anchor="start" x="61" y="-195.2" font-family="Helvetica,sans-Serif" font-size="11.00">id</text>
<polygon fill="#ffffff" stroke="transparent" points="29,-165 29,-187 149,-187 149,-165 29,-165"/>
<polygon fill="none" stroke="black" points="29,-165 29,-187 149,-187 149,-165 29,-165"/>
<text text-anchor="start" x="61" y="-173.2" font-family="Helvetica,sans-Serif" font-size="11.00">name</text>
<polygon fill="#ffffff" stroke="transparent" points="29,-147 29,-165 78,-165 78,-147 29,-147"/>
<polygon fill="none" stroke="black" points="29,-147 29,-165 78,-165 78,-147 29,-147"/>
<text text-anchor="start" x="32" y="-153.2" font-family="Helvetica,sans-Serif" font-size="11.00"> &#160;</text>
<polygon fill="#ffffff" stroke="transparent" points="78,-147 78,-165 109,-165 109,-147 78,-147"/>
<polygon fill="none" stroke="black" points="78,-147 78,-165 109,-165 109,-147 78,-147"/>
<text text-anchor="start" x="99" y="-153.2" font-family="Helvetica,sans-Serif" font-size="11.00"> &#160;</text>
<polygon fill="#ffffff" stroke="transparent" points="109,-147 109,-165 149,-165 149,-147 109,-147"/>
<polygon fill="none" stroke="black" points="109,-147 109,-165 149,-165 149,-147 109,-147"/>
<text text-anchor="start" x="130" y="-153.2" font-family="Helvetica,sans-Serif" font-size="11.00">3 &gt;</text>
</a>
</g>
</g>
<!-- system_metrics&#45;&gt;metric_types -->
<g id="edge3" class="edge">
<title>system_metrics:w&#45;&gt;metric_types:e</title>
<path fill="none" stroke="black" d="M205.54,-158.76C183.57,-168.1 180.61,-198 150,-198"/>
<polygon fill="black" stroke="black" points="212.14,-157.5 220.67,-159.54 216.07,-156.75 220,-156 220,-156 220,-156 216.07,-156.75 219.33,-152.46 212.14,-157.5 212.14,-157.5"/>
<ellipse fill="none" stroke="black" cx="209" cy="-158.1" rx="3.2" ry="3.2"/>
</g>
<!-- funder.published_report_system_metrics -->
<g id="node5" class="node">
<title>funder.published_report_system_metrics</title>
<g id="a_node5"><a xlink:href="../../../funder/tables/published_report_system_metrics.html" xlink:title="funder.published_report_system_metrics" target="_top">
<polygon fill="#ffffff" stroke="transparent" points="480,-59 480,-161 768,-161 768,-59 480,-59"/>
<polygon fill="#f5f5f5" stroke="transparent" points="480,-139 480,-161 768,-161 768,-139 480,-139"/>
<polygon fill="none" stroke="black" points="480,-139 480,-161 768,-161 768,-139 480,-139"/>
<text text-anchor="start" x="485" y="-148.2" font-family="Helvetica,sans-Serif" font-weight="bold" font-size="11.00">funder.published_report_system_metrics</text>
<text text-anchor="start" x="729" y="-147.2" font-family="Helvetica,sans-Serif" font-size="11.00">[table]</text>
<polygon fill="none" stroke="black" points="480,-117 480,-139 768,-139 768,-117 480,-117"/>
<image xlink:href="../../images/foreignKeys.png" width="11px" height="12px" preserveAspectRatio="xMinYMin meet" x="485" y="-134"/>
<text text-anchor="start" x="534" y="-125.2" font-family="Helvetica,sans-Serif" font-size="11.00">system_metric_id</text>
<polygon fill="none" stroke="black" points="480,-95 480,-117 768,-117 768,-95 480,-95"/>
<image xlink:href="../../images/foreignKeys.png" width="11px" height="12px" preserveAspectRatio="xMinYMin meet" x="485" y="-112"/>
<text text-anchor="start" x="534" y="-103.2" font-family="Helvetica,sans-Serif" font-size="11.00">status_id</text>
<polygon fill="none" stroke="black" points="480,-77 480,-95 768,-95 768,-77 480,-77"/>
<text text-anchor="start" x="483" y="-83.2" font-family="Helvetica,sans-Serif" font-size="11.00">...</text>
<polygon fill="#ffffff" stroke="transparent" points="480,-59 480,-77 608,-77 608,-59 480,-59"/>
<polygon fill="none" stroke="black" points="480,-59 480,-77 608,-77 608,-59 480,-59"/>
<text text-anchor="start" x="483" y="-65.2" font-family="Helvetica,sans-Serif" font-size="11.00">&lt; 2</text>
<polygon fill="#ffffff" stroke="transparent" points="608,-59 608,-77 701,-77 701,-59 608,-59"/>
<polygon fill="none" stroke="black" points="608,-59 608,-77 701,-77 701,-59 608,-59"/>
<text text-anchor="start" x="664" y="-65.2" font-family="Helvetica,sans-Serif" font-size="11.00">0 rows</text>
<polygon fill="#ffffff" stroke="transparent" points="701,-59 701,-77 768,-77 768,-59 701,-59"/>
<polygon fill="none" stroke="black" points="701,-59 701,-77 768,-77 768,-59 701,-59"/>
<text text-anchor="start" x="758" y="-65.2" font-family="Helvetica,sans-Serif" font-size="11.00"> &#160;</text>
</a>
</g>
</g>
<!-- funder.published_report_system_metrics&#45;&gt;system_metrics -->
<g id="edge4" class="edge">
<title>funder.published_report_system_metrics:w&#45;&gt;system_metrics:e</title>
<path fill="none" stroke="black" d="M465.26,-132.72C447.53,-148.74 462.66,-200 430,-200"/>
<polygon fill="black" stroke="black" points="471.43,-130.6 480.17,-131.4 475.22,-129.3 479,-128 479,-128 479,-128 475.22,-129.3 477.83,-124.6 471.43,-130.6 471.43,-130.6"/>
<ellipse fill="none" stroke="black" cx="468.41" cy="-131.64" rx="3.2" ry="3.2"/>
</g>
</g>
</svg>
