<?xml version="1.0" encoding="UTF-8" standalone="no"?>
<!DOCTYPE svg PUBLIC "-//W3C//DTD SVG 1.1//EN"
 "http://www.w3.org/Graphics/SVG/1.1/DTD/svg11.dtd">
<!-- Generated by graphviz version 2.47.1 (20210515.0534)
 -->
<!-- Title: oneDegreeRelationshipsDiagram Pages: 1 -->
<svg width="446pt" height="384pt"
 viewBox="0.00 0.00 446.00 384.00" xmlns="http://www.w3.org/2000/svg" xmlns:xlink="http://www.w3.org/1999/xlink">
<g id="graph0" class="graph" transform="scale(1 1) rotate(0) translate(4 380)">
<title>oneDegreeRelationshipsDiagram</title>
<polygon fill="#ffffff" stroke="transparent" points="-4,4 -4,-380 442,-380 442,4 -4,4"/>
<text text-anchor="middle" x="73.5" y="-7.2" font-family="Helvetica,sans-Serif" font-size="11.00">Generated by SchemaSpy</text>
<!-- project_vote_decisions -->
<g id="node1" class="node">
<title>project_vote_decisions</title>
<g id="a_node1"><a xlink:href="../../tables/project_vote_decisions.html" xlink:title="project_vote_decisions" target="_top">
<polygon fill="#ffffff" stroke="transparent" points="252,-248 252,-372 430,-372 430,-248 252,-248"/>
<polygon fill="#f5f5f5" stroke="transparent" points="252,-350 252,-372 430,-372 430,-350 252,-350"/>
<polygon fill="none" stroke="black" points="252,-350 252,-372 430,-372 430,-350 252,-350"/>
<text text-anchor="start" x="257" y="-359.2" font-family="Helvetica,sans-Serif" font-weight="bold" font-size="11.00">project_vote_decisions</text>
<text text-anchor="start" x="391" y="-358.2" font-family="Helvetica,sans-Serif" font-size="11.00">[table]</text>
<polygon fill="none" stroke="black" points="252,-328 252,-350 430,-350 430,-328 252,-328"/>
<image xlink:href="../../images/primaryKeys.png" width="11px" height="12px" preserveAspectRatio="xMinYMin meet" x="257" y="-345"/>
<text text-anchor="start" x="284" y="-336.2" font-family="Helvetica,sans-Serif" font-size="11.00">project_id</text>
<polygon fill="none" stroke="black" points="252,-306 252,-328 430,-328 430,-306 252,-306"/>
<image xlink:href="../../images/primaryKeys.png" width="11px" height="12px" preserveAspectRatio="xMinYMin meet" x="257" y="-323"/>
<text text-anchor="start" x="284" y="-314.2" font-family="Helvetica,sans-Serif" font-size="11.00">phase_id</text>
<polygon fill="none" stroke="black" points="252,-284 252,-306 430,-306 430,-284 252,-284"/>
<image xlink:href="../../images/foreignKeys.png" width="11px" height="12px" preserveAspectRatio="xMinYMin meet" x="257" y="-301"/>
<text text-anchor="start" x="284" y="-292.2" font-family="Helvetica,sans-Serif" font-size="11.00">vote_option_id</text>
<polygon fill="none" stroke="black" points="252,-266 252,-284 430,-284 430,-266 252,-266"/>
<text text-anchor="start" x="255" y="-272.2" font-family="Helvetica,sans-Serif" font-size="11.00">...</text>
<polygon fill="#ffffff" stroke="transparent" points="252,-248 252,-266 339,-266 339,-248 252,-248"/>
<polygon fill="none" stroke="black" points="252,-248 252,-266 339,-266 339,-248 252,-248"/>
<text text-anchor="start" x="255" y="-254.2" font-family="Helvetica,sans-Serif" font-size="11.00">&lt; 3</text>
<polygon fill="#ffffff" stroke="transparent" points="339,-248 339,-266 384,-266 384,-248 339,-248"/>
<polygon fill="none" stroke="black" points="339,-248 339,-266 384,-266 384,-248 339,-248"/>
<text text-anchor="start" x="374" y="-254.2" font-family="Helvetica,sans-Serif" font-size="11.00"> &#160;</text>
<polygon fill="#ffffff" stroke="transparent" points="384,-248 384,-266 430,-266 430,-248 384,-248"/>
<polygon fill="none" stroke="black" points="384,-248 384,-266 430,-266 430,-248 384,-248"/>
<text text-anchor="start" x="420" y="-254.2" font-family="Helvetica,sans-Serif" font-size="11.00"> &#160;</text>
</a>
</g>
</g>
<!-- vote_options -->
<g id="node2" class="node">
<title>vote_options</title>
<g id="a_node2"><a xlink:href="../../tables/vote_options.html" xlink:title="vote_options" target="_top">
<polygon fill="#ffffff" stroke="transparent" points="8,-158 8,-246 203,-246 203,-158 8,-158"/>
<polygon fill="#f5f5f5" stroke="transparent" points="10.5,-222 10.5,-244 201.5,-244 201.5,-222 10.5,-222"/>
<polygon fill="none" stroke="black" points="10.5,-222 10.5,-244 201.5,-244 201.5,-222 10.5,-222"/>
<text text-anchor="start" x="15.5" y="-231.2" font-family="Helvetica,sans-Serif" font-weight="bold" font-size="11.00">vote_options</text>
<text text-anchor="start" x="162.5" y="-230.2" font-family="Helvetica,sans-Serif" font-size="11.00">[table]</text>
<polygon fill="none" stroke="black" points="10.5,-200 10.5,-222 107.5,-222 107.5,-200 10.5,-200"/>
<image xlink:href="../../images/primaryKeys.png" width="11px" height="12px" preserveAspectRatio="xMinYMin meet" x="15.5" y="-217"/>
<text text-anchor="start" x="30.5" y="-208.2" font-family="Helvetica,sans-Serif" font-size="11.00">id</text>
<polygon fill="none" stroke="black" points="107.5,-200 107.5,-222 201.5,-222 201.5,-200 107.5,-200"/>
<text text-anchor="start" x="110.5" y="-208.2" font-family="Helvetica,sans-Serif" font-size="11.00">int4[10]</text>
<polygon fill="#ffffff" stroke="transparent" points="10.5,-178 10.5,-200 107.5,-200 107.5,-178 10.5,-178"/>
<polygon fill="none" stroke="black" points="10.5,-178 10.5,-200 107.5,-200 107.5,-178 10.5,-178"/>
<text text-anchor="start" x="30.5" y="-186.2" font-family="Helvetica,sans-Serif" font-size="11.00">name</text>
<polygon fill="none" stroke="black" points="107.5,-178 107.5,-200 201.5,-200 201.5,-178 107.5,-178"/>
<text text-anchor="start" x="110.5" y="-186.2" font-family="Helvetica,sans-Serif" font-size="11.00">text[2147483647]</text>
<polygon fill="#ffffff" stroke="transparent" points="10.5,-160 10.5,-178 63.5,-178 63.5,-160 10.5,-160"/>
<polygon fill="none" stroke="black" points="10.5,-160 10.5,-178 63.5,-178 63.5,-160 10.5,-160"/>
<text text-anchor="start" x="13.5" y="-166.2" font-family="Helvetica,sans-Serif" font-size="11.00">&lt; 0</text>
<polygon fill="#ffffff" stroke="transparent" points="63.5,-160 63.5,-178 107.5,-178 107.5,-160 63.5,-160"/>
<polygon fill="none" stroke="black" points="63.5,-160 63.5,-178 107.5,-178 107.5,-160 63.5,-160"/>
<text text-anchor="start" x="97.5" y="-166.2" font-family="Helvetica,sans-Serif" font-size="11.00"> &#160;</text>
<polygon fill="#ffffff" stroke="transparent" points="107.5,-160 107.5,-178 201.5,-178 201.5,-160 107.5,-160"/>
<polygon fill="none" stroke="black" points="107.5,-160 107.5,-178 201.5,-178 201.5,-160 107.5,-160"/>
<text text-anchor="start" x="182.5" y="-166.2" font-family="Helvetica,sans-Serif" font-size="11.00">2 &gt;</text>
<polygon fill="none" stroke="black" stroke-width="2" points="9,-159 9,-245 202,-245 202,-159 9,-159"/>
</a>
</g>
</g>
<!-- project_vote_decisions&#45;&gt;vote_options -->
<g id="edge1" class="edge">
<title>project_vote_decisions:w&#45;&gt;vote_options:e</title>
<path fill="none" stroke="black" d="M237.16,-290.48C216.9,-273.04 239.55,-211 202.5,-211"/>
<polygon fill="black" stroke="black" points="243.39,-292.52 249.88,-298.42 247.2,-293.76 251,-295 251,-295 251,-295 247.2,-293.76 252.12,-291.58 243.39,-292.52 243.39,-292.52"/>
<ellipse fill="none" stroke="black" cx="240.35" cy="-291.53" rx="3.2" ry="3.2"/>
</g>
<!-- project_votes -->
<g id="node3" class="node">
<title>project_votes</title>
<g id="a_node3"><a xlink:href="../../tables/project_votes.html" xlink:title="project_votes" target="_top">
<polygon fill="#ffffff" stroke="transparent" points="279,-37 279,-227 403,-227 403,-37 279,-37"/>
<polygon fill="#f5f5f5" stroke="transparent" points="279,-205 279,-227 403,-227 403,-205 279,-205"/>
<polygon fill="none" stroke="black" points="279,-205 279,-227 403,-227 403,-205 279,-205"/>
<text text-anchor="start" x="284" y="-214.2" font-family="Helvetica,sans-Serif" font-weight="bold" font-size="11.00">project_votes</text>
<text text-anchor="start" x="364" y="-213.2" font-family="Helvetica,sans-Serif" font-size="11.00">[table]</text>
<polygon fill="none" stroke="black" points="279,-183 279,-205 403,-205 403,-183 279,-183"/>
<image xlink:href="../../images/primaryKeys.png" width="11px" height="12px" preserveAspectRatio="xMinYMin meet" x="284" y="-200"/>
<text text-anchor="start" x="303" y="-191.2" font-family="Helvetica,sans-Serif" font-size="11.00">user_id</text>
<polygon fill="none" stroke="black" points="279,-161 279,-183 403,-183 403,-161 279,-161"/>
<image xlink:href="../../images/primaryKeys.png" width="11px" height="12px" preserveAspectRatio="xMinYMin meet" x="284" y="-178"/>
<text text-anchor="start" x="303" y="-169.2" font-family="Helvetica,sans-Serif" font-size="11.00">project_id</text>
<polygon fill="none" stroke="black" points="279,-139 279,-161 403,-161 403,-139 279,-139"/>
<image xlink:href="../../images/primaryKeys.png" width="11px" height="12px" preserveAspectRatio="xMinYMin meet" x="284" y="-156"/>
<text text-anchor="start" x="303" y="-147.2" font-family="Helvetica,sans-Serif" font-size="11.00">phase_id</text>
<polygon fill="none" stroke="black" points="279,-117 279,-139 403,-139 403,-117 279,-117"/>
<image xlink:href="../../images/foreignKeys.png" width="11px" height="12px" preserveAspectRatio="xMinYMin meet" x="284" y="-134"/>
<text text-anchor="start" x="303" y="-125.2" font-family="Helvetica,sans-Serif" font-size="11.00">vote_option_id</text>
<polygon fill="none" stroke="black" points="279,-95 279,-117 403,-117 403,-95 279,-95"/>
<image xlink:href="../../images/foreignKeys.png" width="11px" height="12px" preserveAspectRatio="xMinYMin meet" x="284" y="-112"/>
<text text-anchor="start" x="303" y="-103.2" font-family="Helvetica,sans-Serif" font-size="11.00">created_by</text>
<polygon fill="none" stroke="black" points="279,-73 279,-95 403,-95 403,-73 279,-73"/>
<image xlink:href="../../images/foreignKeys.png" width="11px" height="12px" preserveAspectRatio="xMinYMin meet" x="284" y="-90"/>
<text text-anchor="start" x="303" y="-81.2" font-family="Helvetica,sans-Serif" font-size="11.00">modified_by</text>
<polygon fill="none" stroke="black" points="279,-55 279,-73 403,-73 403,-55 279,-55"/>
<text text-anchor="start" x="282" y="-61.2" font-family="Helvetica,sans-Serif" font-size="11.00">...</text>
<polygon fill="#ffffff" stroke="transparent" points="279,-37 279,-55 339,-55 339,-37 279,-37"/>
<polygon fill="none" stroke="black" points="279,-37 279,-55 339,-55 339,-37 279,-37"/>
<text text-anchor="start" x="282" y="-43.2" font-family="Helvetica,sans-Serif" font-size="11.00">&lt; 6</text>
<polygon fill="#ffffff" stroke="transparent" points="339,-37 339,-55 371,-55 371,-37 339,-37"/>
<polygon fill="none" stroke="black" points="339,-37 339,-55 371,-55 371,-37 339,-37"/>
<text text-anchor="start" x="361" y="-43.2" font-family="Helvetica,sans-Serif" font-size="11.00"> &#160;</text>
<polygon fill="#ffffff" stroke="transparent" points="371,-37 371,-55 403,-55 403,-37 371,-37"/>
<polygon fill="none" stroke="black" points="371,-37 371,-55 403,-55 403,-37 371,-37"/>
<text text-anchor="start" x="393" y="-43.2" font-family="Helvetica,sans-Serif" font-size="11.00"> &#160;</text>
</a>
</g>
</g>
<!-- project_votes&#45;&gt;vote_options -->
<g id="edge2" class="edge">
<title>project_votes:w&#45;&gt;vote_options:e</title>
<path fill="none" stroke="black" d="M263.69,-130.95C232.67,-145.74 246.72,-211 202.5,-211"/>
<polygon fill="black" stroke="black" points="270.17,-129.62 278.73,-131.53 274.08,-128.81 278,-128 278,-128 278,-128 274.08,-128.81 277.27,-124.47 270.17,-129.62 270.17,-129.62"/>
<ellipse fill="none" stroke="black" cx="267.03" cy="-130.26" rx="3.2" ry="3.2"/>
</g>
</g>
</svg>
