<?xml version="1.0" encoding="UTF-8" standalone="no"?>
<!DOCTYPE svg PUBLIC "-//W3C//DTD SVG 1.1//EN"
 "http://www.w3.org/Graphics/SVG/1.1/DTD/svg11.dtd">
<!-- Generated by graphviz version 2.38.0 (20140413.2041)
 -->
<!-- Title: twoDegreesRelationshipsDiagram Pages: 1 -->
<svg width="541pt" height="295pt"
 viewBox="0.00 0.00 541.00 295.00" xmlns="http://www.w3.org/2000/svg" xmlns:xlink="http://www.w3.org/1999/xlink">
<g id="graph0" class="graph" transform="scale(1 1) rotate(0) translate(4 291)">
<title>twoDegreesRelationshipsDiagram</title>
<polygon fill="#ffffff" stroke="none" points="-4,4 -4,-291 537,-291 537,4 -4,4"/>
<text text-anchor="middle" x="74.5" y="-7.2" font-family="Helvetica,sans-Serif" font-size="11.00">Generated by SchemaSpy</text>
<!-- observation_plot_conditions -->
<g id="node1" class="node"><title>observation_plot_conditions</title>
<g id="a_node1"><a xlink:href="../../tables/observation_plot_conditions.html" xlink:title="observation_plot_conditions" target="_top">
<polygon fill="#ffffff" stroke="none" points="316,-122 316,-228 525,-228 525,-122 316,-122"/>
<polygon fill="#f5f5f5" stroke="none" points="316.5,-206 316.5,-228 525.5,-228 525.5,-206 316.5,-206"/>
<polygon fill="none" stroke="black" points="316.5,-206 316.5,-228 525.5,-228 525.5,-206 316.5,-206"/>
<text text-anchor="start" x="321.5" y="-215.2" font-family="Helvetica,sans-Serif" font-weight="bold" font-size="11.00">observation_plot_conditions</text>
<text text-anchor="start" x="486.5" y="-214.2" font-family="Helvetica,sans-Serif" font-size="11.00">[table]</text>
<polygon fill="none" stroke="black" points="316.5,-184 316.5,-206 525.5,-206 525.5,-184 316.5,-184"/>
<image xlink:href="../../images/primaryKeys.png" width="11px" height="12px" preserveAspectRatio="xMinYMin meet" x="321.5" y="-201"/>
<text text-anchor="start" x="346.5" y="-192.2" font-family="Helvetica,sans-Serif" font-size="11.00">observation_id</text>
<polygon fill="none" stroke="black" points="316.5,-162 316.5,-184 525.5,-184 525.5,-162 316.5,-162"/>
<image xlink:href="../../images/primaryKeys.png" width="11px" height="12px" preserveAspectRatio="xMinYMin meet" x="321.5" y="-179"/>
<text text-anchor="start" x="346.5" y="-170.2" font-family="Helvetica,sans-Serif" font-size="11.00">monitoring_plot_id</text>
<polygon fill="none" stroke="black" points="316.5,-140 316.5,-162 525.5,-162 525.5,-140 316.5,-140"/>
<image xlink:href="../../images/primaryKeys.png" width="11px" height="12px" preserveAspectRatio="xMinYMin meet" x="321.5" y="-157"/>
<text text-anchor="start" x="346.5" y="-148.2" font-family="Helvetica,sans-Serif" font-size="11.00">condition_id</text>
<polygon fill="#ffffff" stroke="none" points="316.5,-122 316.5,-140 404.5,-140 404.5,-122 316.5,-122"/>
<polygon fill="none" stroke="black" points="316.5,-122 316.5,-140 404.5,-140 404.5,-122 316.5,-122"/>
<text text-anchor="start" x="319.5" y="-128.2" font-family="Helvetica,sans-Serif" font-size="11.00">&lt; 3</text>
<polygon fill="#ffffff" stroke="none" points="404.5,-122 404.5,-140 479.5,-140 479.5,-122 404.5,-122"/>
<polygon fill="none" stroke="black" points="404.5,-122 404.5,-140 479.5,-140 479.5,-122 404.5,-122"/>
<text text-anchor="start" x="440.5" y="-128.2" font-family="Helvetica,sans-Serif" font-size="11.00">0 rows</text>
<polygon fill="#ffffff" stroke="none" points="479.5,-122 479.5,-140 525.5,-140 525.5,-122 479.5,-122"/>
<polygon fill="none" stroke="black" points="479.5,-122 479.5,-140 525.5,-140 525.5,-122 479.5,-122"/>
<text text-anchor="start" x="515.5" y="-128.2" font-family="Helvetica,sans-Serif" font-size="11.00"> &#160;</text>
</a>
</g>
</g>
<!-- observable_conditions -->
<g id="node2" class="node"><title>observable_conditions</title>
<g id="a_node2"><a xlink:href="../../tables/observable_conditions.html" xlink:title="observable_conditions" target="_top">
<polygon fill="#ffffff" stroke="none" points="8,-37 8,-125 267,-125 267,-37 8,-37"/>
<polygon fill="#f5f5f5" stroke="none" points="10.5,-101 10.5,-123 265.5,-123 265.5,-101 10.5,-101"/>
<polygon fill="none" stroke="black" points="10.5,-101 10.5,-123 265.5,-123 265.5,-101 10.5,-101"/>
<text text-anchor="start" x="15.5" y="-110.2" font-family="Helvetica,sans-Serif" font-weight="bold" font-size="11.00">observable_conditions</text>
<text text-anchor="start" x="226.5" y="-109.2" font-family="Helvetica,sans-Serif" font-size="11.00">[table]</text>
<polygon fill="none" stroke="black" points="10.5,-79 10.5,-101 164.5,-101 164.5,-79 10.5,-79"/>
<image xlink:href="../../images/primaryKeys.png" width="11px" height="12px" preserveAspectRatio="xMinYMin meet" x="15.5" y="-96"/>
<text text-anchor="start" x="30.5" y="-87.2" font-family="Helvetica,sans-Serif" font-size="11.00">id</text>
<polygon fill="none" stroke="black" points="164.5,-79 164.5,-101 265.5,-101 265.5,-79 164.5,-79"/>
<text text-anchor="start" x="167.5" y="-87.2" font-family="Helvetica,sans-Serif" font-size="11.00">int4[10]</text>
<polygon fill="#ffffff" stroke="none" points="10.5,-57 10.5,-79 164.5,-79 164.5,-57 10.5,-57"/>
<polygon fill="none" stroke="black" points="10.5,-57 10.5,-79 164.5,-79 164.5,-57 10.5,-57"/>
<text text-anchor="start" x="30.5" y="-65.2" font-family="Helvetica,sans-Serif" font-size="11.00">name</text>
<polygon fill="none" stroke="black" points="164.5,-57 164.5,-79 265.5,-79 265.5,-57 164.5,-57"/>
<text text-anchor="start" x="167.5" y="-65.2" font-family="Helvetica,sans-Serif" font-size="11.00">text[2147483647]</text>
<polygon fill="#ffffff" stroke="none" points="10.5,-39 10.5,-57 77.5,-57 77.5,-39 10.5,-39"/>
<polygon fill="none" stroke="black" points="10.5,-39 10.5,-57 77.5,-57 77.5,-39 10.5,-39"/>
<text text-anchor="start" x="13.5" y="-45.2" font-family="Helvetica,sans-Serif" font-size="11.00">&lt; 0</text>
<polygon fill="#ffffff" stroke="none" points="77.5,-39 77.5,-57 164.5,-57 164.5,-39 77.5,-39"/>
<polygon fill="none" stroke="black" points="77.5,-39 77.5,-57 164.5,-57 164.5,-39 77.5,-39"/>
<text text-anchor="start" x="125.5" y="-45.2" font-family="Helvetica,sans-Serif" font-size="11.00">7 rows</text>
<polygon fill="#ffffff" stroke="none" points="164.5,-39 164.5,-57 265.5,-57 265.5,-39 164.5,-39"/>
<polygon fill="none" stroke="black" points="164.5,-39 164.5,-57 265.5,-57 265.5,-39 164.5,-39"/>
<text text-anchor="start" x="245.5" y="-45.2" font-family="Helvetica,sans-Serif" font-size="11.00">1 &gt;</text>
<polygon fill="none" stroke="black" stroke-width="2" points="9,-38 9,-124 266,-124 266,-38 9,-38"/>
</a>
</g>
</g>
<!-- observation_plot_conditions&#45;&gt;observable_conditions -->
<g id="edge1" class="edge"><title>observation_plot_conditions:condition_id:w&#45;&gt;observable_conditions:id.type:e</title>
<path fill="none" stroke="black" d="M301.91,-146.213C286.155,-131.833 295.298,-90 266.5,-90"/>
<polygon fill="black" stroke="black" points="307.954,-148.342 314.304,-154.396 311.727,-149.671 315.5,-151 315.5,-151 315.5,-151 311.727,-149.671 316.696,-147.604 307.954,-148.342 307.954,-148.342"/>
<ellipse fill="none" stroke="black" cx="304.936" cy="-147.279" rx="3.20001" ry="3.20001"/>
</g>
<!-- monitoring_plots -->
<g id="node3" class="node"><title>monitoring_plots</title>
<g id="a_node3"><a xlink:href="../../tables/monitoring_plots.html" xlink:title="monitoring_plots" target="_top">
<polygon fill="#ffffff" stroke="none" points="65,-146 65,-204 210,-204 210,-146 65,-146"/>
<polygon fill="#f5f5f5" stroke="none" points="65.5,-182 65.5,-204 210.5,-204 210.5,-182 65.5,-182"/>
<polygon fill="none" stroke="black" points="65.5,-182 65.5,-204 210.5,-204 210.5,-182 65.5,-182"/>
<text text-anchor="start" x="70.5" y="-191.2" font-family="Helvetica,sans-Serif" font-weight="bold" font-size="11.00">monitoring_plots</text>
<text text-anchor="start" x="171.5" y="-190.2" font-family="Helvetica,sans-Serif" font-size="11.00">[table]</text>
<polygon fill="none" stroke="black" points="65.5,-164 65.5,-182 210.5,-182 210.5,-164 65.5,-164"/>
<text text-anchor="start" x="68.5" y="-170.2" font-family="Helvetica,sans-Serif" font-size="11.00">...</text>
<polygon fill="#ffffff" stroke="none" points="65.5,-146 65.5,-164 116.5,-164 116.5,-146 65.5,-146"/>
<polygon fill="none" stroke="black" points="65.5,-146 65.5,-164 116.5,-164 116.5,-146 65.5,-146"/>
<text text-anchor="start" x="68.5" y="-152.2" font-family="Helvetica,sans-Serif" font-size="11.00">&lt; 3</text>
<polygon fill="#ffffff" stroke="none" points="116.5,-146 116.5,-164 172.5,-164 172.5,-146 116.5,-146"/>
<polygon fill="none" stroke="black" points="116.5,-146 116.5,-164 172.5,-164 172.5,-146 116.5,-146"/>
<text text-anchor="start" x="133.5" y="-152.2" font-family="Helvetica,sans-Serif" font-size="11.00">0 rows</text>
<polygon fill="#ffffff" stroke="none" points="172.5,-146 172.5,-164 210.5,-164 210.5,-146 172.5,-146"/>
<polygon fill="none" stroke="black" points="172.5,-146 172.5,-164 210.5,-164 210.5,-146 172.5,-146"/>
<text text-anchor="start" x="190.5" y="-152.2" font-family="Helvetica,sans-Serif" font-size="11.00">6 &gt;</text>
</a>
</g>
</g>
<!-- observation_plot_conditions&#45;&gt;monitoring_plots -->
<g id="edge2" class="edge"><title>observation_plot_conditions:monitoring_plot_id:w&#45;&gt;monitoring_plots:elipses:e</title>
<path fill="none" stroke="black" d="M301.025,-173C266.215,-173 252.486,-173 211.5,-173"/>
<polygon fill="black" stroke="black" points="307.5,-173 315.5,-176.6 311.5,-173 315.5,-173 315.5,-173 315.5,-173 311.5,-173 315.5,-169.4 307.5,-173 307.5,-173"/>
<ellipse fill="none" stroke="black" cx="304.3" cy="-173" rx="3.2" ry="3.2"/>
</g>
<!-- observations -->
<g id="node4" class="node"><title>observations</title>
<g id="a_node4"><a xlink:href="../../tables/observations.html" xlink:title="observations" target="_top">
<polygon fill="#ffffff" stroke="none" points="76.5,-225 76.5,-283 198.5,-283 198.5,-225 76.5,-225"/>
<polygon fill="#f5f5f5" stroke="none" points="76.5,-261 76.5,-283 198.5,-283 198.5,-261 76.5,-261"/>
<polygon fill="none" stroke="black" points="76.5,-261 76.5,-283 198.5,-283 198.5,-261 76.5,-261"/>
<text text-anchor="start" x="81.5" y="-270.2" font-family="Helvetica,sans-Serif" font-weight="bold" font-size="11.00">observations</text>
<text text-anchor="start" x="159.5" y="-269.2" font-family="Helvetica,sans-Serif" font-size="11.00">[table]</text>
<polygon fill="none" stroke="black" points="76.5,-243 76.5,-261 198.5,-261 198.5,-243 76.5,-243"/>
<text text-anchor="start" x="79.5" y="-249.2" font-family="Helvetica,sans-Serif" font-size="11.00">...</text>
<polygon fill="#ffffff" stroke="none" points="76.5,-225 76.5,-243 116.5,-243 116.5,-225 76.5,-225"/>
<polygon fill="none" stroke="black" points="76.5,-225 76.5,-243 116.5,-243 116.5,-225 76.5,-225"/>
<text text-anchor="start" x="79.5" y="-231.2" font-family="Helvetica,sans-Serif" font-size="11.00">&lt; 2</text>
<polygon fill="#ffffff" stroke="none" points="116.5,-225 116.5,-243 166.5,-243 166.5,-225 116.5,-225"/>
<polygon fill="none" stroke="black" points="116.5,-225 116.5,-243 166.5,-243 166.5,-225 116.5,-225"/>
<text text-anchor="start" x="127.5" y="-231.2" font-family="Helvetica,sans-Serif" font-size="11.00">0 rows</text>
<polygon fill="#ffffff" stroke="none" points="166.5,-225 166.5,-243 198.5,-243 198.5,-225 166.5,-225"/>
<polygon fill="none" stroke="black" points="166.5,-225 166.5,-243 198.5,-243 198.5,-225 166.5,-225"/>
<text text-anchor="start" x="178.5" y="-231.2" font-family="Helvetica,sans-Serif" font-size="11.00">8 &gt;</text>
</a>
</g>
</g>
<!-- observation_plot_conditions&#45;&gt;observations -->
<g id="edge3" class="edge"><title>observation_plot_conditions:observation_id:w&#45;&gt;observations:elipses:e</title>
<path fill="none" stroke="black" d="M301.129,-197.723C292.507,-201.576 287.525,-208.838 275,-215 241.469,-231.495 236.868,-252 199.5,-252"/>
<polygon fill="black" stroke="black" points="307.64,-196.489 316.17,-198.537 311.57,-195.745 315.5,-195 315.5,-195 315.5,-195 311.57,-195.745 314.83,-191.463 307.64,-196.489 307.64,-196.489"/>
<ellipse fill="none" stroke="black" cx="304.496" cy="-197.085" rx="3.2" ry="3.2"/>
</g>
</g>
</svg>
