<?xml version="1.0" encoding="UTF-8" standalone="no"?>
<!DOCTYPE svg PUBLIC "-//W3C//DTD SVG 1.1//EN"
 "http://www.w3.org/Graphics/SVG/1.1/DTD/svg11.dtd">
<!-- Generated by graphviz version 2.38.0 (20140413.2041)
 -->
<!-- Title: oneDegreeRelationshipsDiagram Pages: 1 -->
<svg width="815pt" height="486pt"
 viewBox="0.00 0.00 815.00 486.00" xmlns="http://www.w3.org/2000/svg" xmlns:xlink="http://www.w3.org/1999/xlink">
<g id="graph0" class="graph" transform="scale(1 1) rotate(0) translate(4 482)">
<title>oneDegreeRelationshipsDiagram</title>
<polygon fill="#ffffff" stroke="none" points="-4,4 -4,-482 811,-482 811,4 -4,4"/>
<text text-anchor="middle" x="74.5" y="-7.2" font-family="Helvetica,sans-Serif" font-size="11.00">Generated by SchemaSpy</text>
<!-- observation_photos -->
<g id="node1" class="node"><title>observation_photos</title>
<g id="a_node1"><a xlink:href="../../tables/observation_photos.html" xlink:title="observation_photos" target="_top">
<polygon fill="#ffffff" stroke="none" points="525,-238 525,-392 799,-392 799,-238 525,-238"/>
<polygon fill="#f5f5f5" stroke="none" points="527,-368 527,-390 797,-390 797,-368 527,-368"/>
<polygon fill="none" stroke="black" points="527,-368 527,-390 797,-390 797,-368 527,-368"/>
<text text-anchor="start" x="532" y="-377.2" font-family="Helvetica,sans-Serif" font-weight="bold" font-size="11.00">observation_photos</text>
<text text-anchor="start" x="758" y="-376.2" font-family="Helvetica,sans-Serif" font-size="11.00">[table]</text>
<polygon fill="none" stroke="black" points="527,-346 527,-368 666,-368 666,-346 527,-346"/>
<image xlink:href="../../images/primaryKeys.png" width="11px" height="12px" preserveAspectRatio="xMinYMin meet" x="532" y="-363"/>
<text text-anchor="start" x="547" y="-354.2" font-family="Helvetica,sans-Serif" font-size="11.00">file_id</text>
<polygon fill="none" stroke="black" points="666,-346 666,-368 797,-368 797,-346 666,-346"/>
<text text-anchor="start" x="669" y="-354.2" font-family="Helvetica,sans-Serif" font-size="11.00">int8[19]</text>
<polygon fill="none" stroke="black" points="527,-324 527,-346 666,-346 666,-324 527,-324"/>
<image xlink:href="../../images/foreignKeys.png" width="11px" height="12px" preserveAspectRatio="xMinYMin meet" x="532" y="-341"/>
<text text-anchor="start" x="547" y="-332.2" font-family="Helvetica,sans-Serif" font-size="11.00">observation_id</text>
<polygon fill="none" stroke="black" points="666,-324 666,-346 797,-346 797,-324 666,-324"/>
<text text-anchor="start" x="669" y="-332.2" font-family="Helvetica,sans-Serif" font-size="11.00">int8[19]</text>
<polygon fill="#ffffff" stroke="none" points="527,-302 527,-324 666,-324 666,-302 527,-302"/>
<polygon fill="none" stroke="black" points="527,-302 527,-324 666,-324 666,-302 527,-302"/>
<image xlink:href="../../images/foreignKeys.png" width="11px" height="12px" preserveAspectRatio="xMinYMin meet" x="532" y="-319"/>
<text text-anchor="start" x="547" y="-310.2" font-family="Helvetica,sans-Serif" font-size="11.00">monitoring_plot_id</text>
<polygon fill="none" stroke="black" points="666,-302 666,-324 797,-324 797,-302 666,-302"/>
<text text-anchor="start" x="669" y="-310.2" font-family="Helvetica,sans-Serif" font-size="11.00">int8[19]</text>
<polygon fill="none" stroke="black" points="527,-280 527,-302 666,-302 666,-280 527,-280"/>
<image xlink:href="../../images/foreignKeys.png" width="11px" height="12px" preserveAspectRatio="xMinYMin meet" x="532" y="-297"/>
<text text-anchor="start" x="547" y="-288.2" font-family="Helvetica,sans-Serif" font-size="11.00">position_id</text>
<polygon fill="none" stroke="black" points="666,-280 666,-302 797,-302 797,-280 666,-280"/>
<text text-anchor="start" x="669" y="-288.2" font-family="Helvetica,sans-Serif" font-size="11.00">int4[10]</text>
<polygon fill="none" stroke="black" points="527,-258 527,-280 666,-280 666,-258 527,-258"/>
<text text-anchor="start" x="547" y="-266.2" font-family="Helvetica,sans-Serif" font-size="11.00">gps_coordinates</text>
<polygon fill="none" stroke="black" points="666,-258 666,-280 797,-280 797,-258 666,-258"/>
<text text-anchor="start" x="669" y="-266.2" font-family="Helvetica,sans-Serif" font-size="11.00">geometry[2147483647]</text>
<polygon fill="#ffffff" stroke="none" points="527,-240 527,-258 587,-258 587,-240 527,-240"/>
<polygon fill="none" stroke="black" points="527,-240 527,-258 587,-258 587,-240 527,-240"/>
<text text-anchor="start" x="530" y="-246.2" font-family="Helvetica,sans-Serif" font-size="11.00">&lt; 6</text>
<polygon fill="#ffffff" stroke="none" points="587,-240 587,-258 666,-258 666,-240 587,-240"/>
<polygon fill="none" stroke="black" points="587,-240 587,-258 666,-258 666,-240 587,-240"/>
<text text-anchor="start" x="627" y="-246.2" font-family="Helvetica,sans-Serif" font-size="11.00">0 rows</text>
<polygon fill="#ffffff" stroke="none" points="666,-240 666,-258 797,-258 797,-240 666,-240"/>
<polygon fill="none" stroke="black" points="666,-240 666,-258 797,-258 797,-240 666,-240"/>
<text text-anchor="start" x="777" y="-246.2" font-family="Helvetica,sans-Serif" font-size="11.00">0 &gt;</text>
<polygon fill="none" stroke="black" stroke-width="2" points="526,-239 526,-391 798,-391 798,-239 526,-239"/>
</a>
</g>
</g>
<!-- public.files -->
<g id="node2" class="node"><title>public.files</title>
<g id="a_node2"><a xlink:href="../../../public/tables/files.html" xlink:title="public.files" target="_top">
<polygon fill="#ffffff" stroke="none" points="320,-416 320,-474 431,-474 431,-416 320,-416"/>
<polygon fill="#f5f5f5" stroke="none" points="320.5,-452 320.5,-474 431.5,-474 431.5,-452 320.5,-452"/>
<polygon fill="none" stroke="black" points="320.5,-452 320.5,-474 431.5,-474 431.5,-452 320.5,-452"/>
<text text-anchor="start" x="325.5" y="-461.2" font-family="Helvetica,sans-Serif" font-weight="bold" font-size="11.00">public.files</text>
<text text-anchor="start" x="392.5" y="-460.2" font-family="Helvetica,sans-Serif" font-size="11.00">[table]</text>
<polygon fill="none" stroke="black" points="320.5,-434 320.5,-452 431.5,-452 431.5,-434 320.5,-434"/>
<text text-anchor="start" x="323.5" y="-440.2" font-family="Helvetica,sans-Serif" font-size="11.00">...</text>
<polygon fill="#ffffff" stroke="none" points="320.5,-416 320.5,-434 349.5,-434 349.5,-416 320.5,-416"/>
<polygon fill="none" stroke="black" points="320.5,-416 320.5,-434 349.5,-434 349.5,-416 320.5,-416"/>
<text text-anchor="start" x="323.5" y="-422.2" font-family="Helvetica,sans-Serif" font-size="11.00"> &#160;</text>
<polygon fill="#ffffff" stroke="none" points="349.5,-416 349.5,-434 399.5,-434 399.5,-416 349.5,-416"/>
<polygon fill="none" stroke="black" points="349.5,-416 349.5,-434 399.5,-434 399.5,-416 349.5,-416"/>
<text text-anchor="start" x="360.5" y="-422.2" font-family="Helvetica,sans-Serif" font-size="11.00">0 rows</text>
<polygon fill="#ffffff" stroke="none" points="399.5,-416 399.5,-434 431.5,-434 431.5,-416 399.5,-416"/>
<polygon fill="none" stroke="black" points="399.5,-416 399.5,-434 431.5,-434 431.5,-416 399.5,-416"/>
<text text-anchor="start" x="411.5" y="-422.2" font-family="Helvetica,sans-Serif" font-size="11.00">1 &gt;</text>
</a>
</g>
</g>
<!-- observation_photos&#45;&gt;public.files -->
<g id="edge1" class="edge"><title>observation_photos:file_id:w&#45;&gt;public.files:id:e</title>
<path fill="none" stroke="black" d="M515.51,-358.998C500.377,-365.89 503.049,-388.963 484,-402 470.398,-411.309 454.48,-419.067 439.126,-425.311"/>
<polygon fill="black" stroke="black" points="524.466,-353.22 525.962,-361.079 524.391,-361.378 522.894,-353.52 524.466,-353.22"/>
<polyline fill="none" stroke="black" points="526,-357 522.071,-357.748 "/>
<ellipse fill="none" stroke="black" cx="518.927" cy="-358.347" rx="3.20001" ry="3.20001"/>
</g>
<!-- monitoring_plots -->
<g id="node3" class="node"><title>monitoring_plots</title>
<g id="a_node3"><a xlink:href="../../tables/monitoring_plots.html" xlink:title="monitoring_plots" target="_top">
<polygon fill="#ffffff" stroke="none" points="25,-37 25,-205 209,-205 209,-37 25,-37"/>
<polygon fill="#f5f5f5" stroke="none" points="25,-183 25,-205 209,-205 209,-183 25,-183"/>
<polygon fill="none" stroke="black" points="25,-183 25,-205 209,-205 209,-183 25,-183"/>
<text text-anchor="start" x="30" y="-192.2" font-family="Helvetica,sans-Serif" font-weight="bold" font-size="11.00">monitoring_plots</text>
<text text-anchor="start" x="170" y="-191.2" font-family="Helvetica,sans-Serif" font-size="11.00">[table]</text>
<polygon fill="none" stroke="black" points="25,-161 25,-183 209,-183 209,-161 25,-161"/>
<image xlink:href="../../images/primaryKeys.png" width="11px" height="12px" preserveAspectRatio="xMinYMin meet" x="30" y="-178"/>
<text text-anchor="start" x="45" y="-169.2" font-family="Helvetica,sans-Serif" font-size="11.00">id</text>
<polygon fill="#ffffff" stroke="none" points="25,-139 25,-161 209,-161 209,-139 25,-139"/>
<polygon fill="none" stroke="black" points="25,-139 25,-161 209,-161 209,-139 25,-139"/>
<image xlink:href="../../images/foreignKeys.png" width="11px" height="12px" preserveAspectRatio="xMinYMin meet" x="30" y="-156"/>
<text text-anchor="start" x="45" y="-147.2" font-family="Helvetica,sans-Serif" font-size="11.00">planting_subzone_id</text>
<polygon fill="#ffffff" stroke="none" points="25,-117 25,-139 209,-139 209,-117 25,-117"/>
<polygon fill="none" stroke="black" points="25,-117 25,-139 209,-139 209,-117 25,-117"/>
<text text-anchor="start" x="45" y="-125.2" font-family="Helvetica,sans-Serif" font-size="11.00">name</text>
<polygon fill="none" stroke="black" points="25,-95 25,-117 209,-117 209,-95 25,-95"/>
<image xlink:href="../../images/foreignKeys.png" width="11px" height="12px" preserveAspectRatio="xMinYMin meet" x="30" y="-112"/>
<text text-anchor="start" x="45" y="-103.2" font-family="Helvetica,sans-Serif" font-size="11.00">created_by</text>
<polygon fill="none" stroke="black" points="25,-73 25,-95 209,-95 209,-73 25,-73"/>
<image xlink:href="../../images/foreignKeys.png" width="11px" height="12px" preserveAspectRatio="xMinYMin meet" x="30" y="-90"/>
<text text-anchor="start" x="45" y="-81.2" font-family="Helvetica,sans-Serif" font-size="11.00">modified_by</text>
<polygon fill="none" stroke="black" points="25,-55 25,-73 209,-73 209,-55 25,-55"/>
<text text-anchor="start" x="28" y="-61.2" font-family="Helvetica,sans-Serif" font-size="11.00">...</text>
<polygon fill="#ffffff" stroke="none" points="25,-37 25,-55 96,-55 96,-37 25,-37"/>
<polygon fill="none" stroke="black" points="25,-37 25,-55 96,-55 96,-37 25,-37"/>
<text text-anchor="start" x="28" y="-43.2" font-family="Helvetica,sans-Serif" font-size="11.00">&lt; 3</text>
<polygon fill="#ffffff" stroke="none" points="96,-37 96,-55 162,-55 162,-37 96,-37"/>
<polygon fill="none" stroke="black" points="96,-37 96,-55 162,-55 162,-37 96,-37"/>
<text text-anchor="start" x="123" y="-43.2" font-family="Helvetica,sans-Serif" font-size="11.00">0 rows</text>
<polygon fill="#ffffff" stroke="none" points="162,-37 162,-55 209,-55 209,-37 162,-37"/>
<polygon fill="none" stroke="black" points="162,-37 162,-55 209,-55 209,-37 162,-37"/>
<text text-anchor="start" x="189" y="-43.2" font-family="Helvetica,sans-Serif" font-size="11.00">6 &gt;</text>
</a>
</g>
</g>
<!-- observation_photos&#45;&gt;monitoring_plots -->
<g id="edge2" class="edge"><title>observation_photos:monitoring_plot_id:w&#45;&gt;monitoring_plots:id:e</title>
<path fill="none" stroke="black" d="M511.671,-310.773C471.152,-295.365 533.306,-204.122 484,-167 435.348,-130.371 270.899,-172 210,-172"/>
<polygon fill="black" stroke="black" points="518.095,-311.771 525.447,-316.557 522.047,-312.386 526,-313 526,-313 526,-313 522.047,-312.386 526.553,-309.443 518.095,-311.771 518.095,-311.771"/>
<ellipse fill="none" stroke="black" cx="514.933" cy="-311.28" rx="3.2" ry="3.2"/>
</g>
<!-- observation_plots -->
<g id="node4" class="node"><title>observation_plots</title>
<g id="a_node4"><a xlink:href="../../tables/observation_plots.html" xlink:title="observation_plots" target="_top">
<polygon fill="#ffffff" stroke="none" points="300.5,-178 300.5,-368 450.5,-368 450.5,-178 300.5,-178"/>
<polygon fill="#f5f5f5" stroke="none" points="300.5,-346 300.5,-368 450.5,-368 450.5,-346 300.5,-346"/>
<polygon fill="none" stroke="black" points="300.5,-346 300.5,-368 450.5,-368 450.5,-346 300.5,-346"/>
<text text-anchor="start" x="305.5" y="-355.2" font-family="Helvetica,sans-Serif" font-weight="bold" font-size="11.00">observation_plots</text>
<text text-anchor="start" x="411.5" y="-354.2" font-family="Helvetica,sans-Serif" font-size="11.00">[table]</text>
<polygon fill="none" stroke="black" points="300.5,-324 300.5,-346 450.5,-346 450.5,-324 300.5,-324"/>
<image xlink:href="../../images/primaryKeys.png" width="11px" height="12px" preserveAspectRatio="xMinYMin meet" x="305.5" y="-341"/>
<text text-anchor="start" x="329.5" y="-332.2" font-family="Helvetica,sans-Serif" font-size="11.00">observation_id</text>
<polygon fill="none" stroke="black" points="300.5,-302 300.5,-324 450.5,-324 450.5,-302 300.5,-302"/>
<image xlink:href="../../images/primaryKeys.png" width="11px" height="12px" preserveAspectRatio="xMinYMin meet" x="305.5" y="-319"/>
<text text-anchor="start" x="329.5" y="-310.2" font-family="Helvetica,sans-Serif" font-size="11.00">monitoring_plot_id</text>
<polygon fill="none" stroke="black" points="300.5,-280 300.5,-302 450.5,-302 450.5,-280 300.5,-280"/>
<image xlink:href="../../images/foreignKeys.png" width="11px" height="12px" preserveAspectRatio="xMinYMin meet" x="305.5" y="-297"/>
<text text-anchor="start" x="329.5" y="-288.2" font-family="Helvetica,sans-Serif" font-size="11.00">claimed_by</text>
<polygon fill="none" stroke="black" points="300.5,-258 300.5,-280 450.5,-280 450.5,-258 300.5,-258"/>
<image xlink:href="../../images/foreignKeys.png" width="11px" height="12px" preserveAspectRatio="xMinYMin meet" x="305.5" y="-275"/>
<text text-anchor="start" x="329.5" y="-266.2" font-family="Helvetica,sans-Serif" font-size="11.00">completed_by</text>
<polygon fill="none" stroke="black" points="300.5,-236 300.5,-258 450.5,-258 450.5,-236 300.5,-236"/>
<image xlink:href="../../images/foreignKeys.png" width="11px" height="12px" preserveAspectRatio="xMinYMin meet" x="305.5" y="-253"/>
<text text-anchor="start" x="329.5" y="-244.2" font-family="Helvetica,sans-Serif" font-size="11.00">created_by</text>
<polygon fill="none" stroke="black" points="300.5,-214 300.5,-236 450.5,-236 450.5,-214 300.5,-214"/>
<image xlink:href="../../images/foreignKeys.png" width="11px" height="12px" preserveAspectRatio="xMinYMin meet" x="305.5" y="-231"/>
<text text-anchor="start" x="329.5" y="-222.2" font-family="Helvetica,sans-Serif" font-size="11.00">modified_by</text>
<polygon fill="none" stroke="black" points="300.5,-196 300.5,-214 450.5,-214 450.5,-196 300.5,-196"/>
<text text-anchor="start" x="303.5" y="-202.2" font-family="Helvetica,sans-Serif" font-size="11.00">...</text>
<polygon fill="#ffffff" stroke="none" points="300.5,-178 300.5,-196 354.5,-196 354.5,-178 300.5,-178"/>
<polygon fill="none" stroke="black" points="300.5,-178 300.5,-196 354.5,-196 354.5,-178 300.5,-178"/>
<text text-anchor="start" x="303.5" y="-184.2" font-family="Helvetica,sans-Serif" font-size="11.00">&lt; 6</text>
<polygon fill="#ffffff" stroke="none" points="354.5,-178 354.5,-196 411.5,-196 411.5,-178 354.5,-178"/>
<polygon fill="none" stroke="black" points="354.5,-178 354.5,-196 411.5,-196 411.5,-178 354.5,-178"/>
<text text-anchor="start" x="372.5" y="-184.2" font-family="Helvetica,sans-Serif" font-size="11.00">0 rows</text>
<polygon fill="#ffffff" stroke="none" points="411.5,-178 411.5,-196 450.5,-196 450.5,-178 411.5,-178"/>
<polygon fill="none" stroke="black" points="411.5,-178 411.5,-196 450.5,-196 450.5,-178 411.5,-178"/>
<text text-anchor="start" x="430.5" y="-184.2" font-family="Helvetica,sans-Serif" font-size="11.00">6 &gt;</text>
</a>
</g>
</g>
<!-- observation_photos&#45;&gt;observation_plots -->
<g id="edge3" class="edge"><title>observation_photos:monitoring_plot_id:w&#45;&gt;observation_plots:monitoring_plot_id:e</title>
<path fill="none" stroke="black" d="M511.489,-313C489.504,-313 479.179,-313 451.5,-313"/>
<polygon fill="black" stroke="black" points="518,-313 526,-316.6 522,-313 526,-313 526,-313 526,-313 522,-313 526,-309.4 518,-313 518,-313"/>
<ellipse fill="none" stroke="black" cx="514.8" cy="-313" rx="3.2" ry="3.2"/>
</g>
<!-- observation_photos&#45;&gt;observation_plots -->
<g id="edge4" class="edge"><title>observation_photos:observation_id:w&#45;&gt;observation_plots:observation_id:e</title>
<path fill="none" stroke="black" d="M511.489,-335C489.504,-335 479.179,-335 451.5,-335"/>
<polygon fill="black" stroke="black" points="518,-335 526,-338.6 522,-335 526,-335 526,-335 526,-335 522,-335 526,-331.4 518,-335 518,-335"/>
<ellipse fill="none" stroke="black" cx="514.8" cy="-335" rx="3.2" ry="3.2"/>
</g>
<!-- observations -->
<g id="node5" class="node"><title>observations</title>
<g id="a_node5"><a xlink:href="../../tables/observations.html" xlink:title="observations" target="_top">
<polygon fill="#ffffff" stroke="none" points="8,-272 8,-396 226,-396 226,-272 8,-272"/>
<polygon fill="#f5f5f5" stroke="none" points="8,-374 8,-396 226,-396 226,-374 8,-374"/>
<polygon fill="none" stroke="black" points="8,-374 8,-396 226,-396 226,-374 8,-374"/>
<text text-anchor="start" x="13" y="-383.2" font-family="Helvetica,sans-Serif" font-weight="bold" font-size="11.00">observations</text>
<text text-anchor="start" x="187" y="-382.2" font-family="Helvetica,sans-Serif" font-size="11.00">[table]</text>
<polygon fill="none" stroke="black" points="8,-352 8,-374 226,-374 226,-352 8,-352"/>
<image xlink:href="../../images/primaryKeys.png" width="11px" height="12px" preserveAspectRatio="xMinYMin meet" x="13" y="-369"/>
<text text-anchor="start" x="28" y="-360.2" font-family="Helvetica,sans-Serif" font-size="11.00">id</text>
<polygon fill="#ffffff" stroke="none" points="8,-330 8,-352 226,-352 226,-330 8,-330"/>
<polygon fill="none" stroke="black" points="8,-330 8,-352 226,-352 226,-330 8,-330"/>
<image xlink:href="../../images/foreignKeys.png" width="11px" height="12px" preserveAspectRatio="xMinYMin meet" x="13" y="-347"/>
<text text-anchor="start" x="28" y="-338.2" font-family="Helvetica,sans-Serif" font-size="11.00">planting_site_id</text>
<polygon fill="none" stroke="black" points="8,-308 8,-330 226,-330 226,-308 8,-308"/>
<image xlink:href="../../images/foreignKeys.png" width="11px" height="12px" preserveAspectRatio="xMinYMin meet" x="13" y="-325"/>
<text text-anchor="start" x="28" y="-316.2" font-family="Helvetica,sans-Serif" font-size="11.00">state_id</text>
<polygon fill="none" stroke="black" points="8,-290 8,-308 226,-308 226,-290 8,-290"/>
<text text-anchor="start" x="11" y="-296.2" font-family="Helvetica,sans-Serif" font-size="11.00">...</text>
<polygon fill="#ffffff" stroke="none" points="8,-272 8,-290 96,-290 96,-272 8,-272"/>
<polygon fill="none" stroke="black" points="8,-272 8,-290 96,-290 96,-272 8,-272"/>
<text text-anchor="start" x="11" y="-278.2" font-family="Helvetica,sans-Serif" font-size="11.00">&lt; 2</text>
<polygon fill="#ffffff" stroke="none" points="96,-272 96,-290 170,-290 170,-272 96,-272"/>
<polygon fill="none" stroke="black" points="96,-272 96,-290 170,-290 170,-272 96,-272"/>
<text text-anchor="start" x="131" y="-278.2" font-family="Helvetica,sans-Serif" font-size="11.00">0 rows</text>
<polygon fill="#ffffff" stroke="none" points="170,-272 170,-290 226,-290 226,-272 170,-272"/>
<polygon fill="none" stroke="black" points="170,-272 170,-290 226,-290 226,-272 170,-272"/>
<text text-anchor="start" x="206" y="-278.2" font-family="Helvetica,sans-Serif" font-size="11.00">8 &gt;</text>
</a>
</g>
</g>
<!-- observation_photos&#45;&gt;observations -->
<g id="edge5" class="edge"><title>observation_photos:observation_id:w&#45;&gt;observations:id:e</title>
<path fill="none" stroke="black" d="M512.154,-339.776C501.693,-349.391 503.029,-370.857 484,-379 395.332,-416.941 361.704,-397.238 267,-379 248.198,-375.379 246.147,-363 227,-363"/>
<polygon fill="black" stroke="black" points="518.437,-337.609 527.174,-338.403 522.219,-336.304 526,-335 526,-335 526,-335 522.219,-336.304 524.826,-331.597 518.437,-337.609 518.437,-337.609"/>
<ellipse fill="none" stroke="black" cx="515.412" cy="-338.652" rx="3.20001" ry="3.20001"/>
</g>
<!-- observation_plot_positions -->
<g id="node6" class="node"><title>observation_plot_positions</title>
<g id="a_node6"><a xlink:href="../../tables/observation_plot_positions.html" xlink:title="observation_plot_positions" target="_top">
<polygon fill="#ffffff" stroke="none" points="275,-46 275,-130 476,-130 476,-46 275,-46"/>
<polygon fill="#f5f5f5" stroke="none" points="275.5,-108 275.5,-130 476.5,-130 476.5,-108 275.5,-108"/>
<polygon fill="none" stroke="black" points="275.5,-108 275.5,-130 476.5,-130 476.5,-108 275.5,-108"/>
<text text-anchor="start" x="280.5" y="-117.2" font-family="Helvetica,sans-Serif" font-weight="bold" font-size="11.00">observation_plot_positions</text>
<text text-anchor="start" x="437.5" y="-116.2" font-family="Helvetica,sans-Serif" font-size="11.00">[table]</text>
<polygon fill="none" stroke="black" points="275.5,-86 275.5,-108 476.5,-108 476.5,-86 275.5,-86"/>
<image xlink:href="../../images/primaryKeys.png" width="11px" height="12px" preserveAspectRatio="xMinYMin meet" x="280.5" y="-103"/>
<text text-anchor="start" x="305.5" y="-94.2" font-family="Helvetica,sans-Serif" font-size="11.00">id</text>
<polygon fill="#ffffff" stroke="none" points="275.5,-64 275.5,-86 476.5,-86 476.5,-64 275.5,-64"/>
<polygon fill="none" stroke="black" points="275.5,-64 275.5,-86 476.5,-86 476.5,-64 275.5,-64"/>
<text text-anchor="start" x="305.5" y="-72.2" font-family="Helvetica,sans-Serif" font-size="11.00">name</text>
<polygon fill="#ffffff" stroke="none" points="275.5,-46 275.5,-64 349.5,-64 349.5,-46 275.5,-46"/>
<polygon fill="none" stroke="black" points="275.5,-46 275.5,-64 349.5,-64 349.5,-46 275.5,-46"/>
<text text-anchor="start" x="278.5" y="-52.2" font-family="Helvetica,sans-Serif" font-size="11.00"> &#160;</text>
<polygon fill="#ffffff" stroke="none" points="349.5,-46 349.5,-64 422.5,-64 422.5,-46 349.5,-46"/>
<polygon fill="none" stroke="black" points="349.5,-46 349.5,-64 422.5,-64 422.5,-46 349.5,-46"/>
<text text-anchor="start" x="383.5" y="-52.2" font-family="Helvetica,sans-Serif" font-size="11.00">4 rows</text>
<polygon fill="#ffffff" stroke="none" points="422.5,-46 422.5,-64 476.5,-64 476.5,-46 422.5,-46"/>
<polygon fill="none" stroke="black" points="422.5,-46 422.5,-64 476.5,-64 476.5,-46 422.5,-46"/>
<text text-anchor="start" x="456.5" y="-52.2" font-family="Helvetica,sans-Serif" font-size="11.00">2 &gt;</text>
</a>
</g>
</g>
<!-- observation_photos&#45;&gt;observation_plot_positions -->
<g id="edge6" class="edge"><title>observation_photos:position_id:w&#45;&gt;observation_plot_positions:id:e</title>
<path fill="none" stroke="black" d="M511.417,-288.686C452.879,-266.798 560.648,-97 477.5,-97"/>
<polygon fill="black" stroke="black" points="518.099,-289.746 525.436,-294.556 522.049,-290.373 526,-291 526,-291 526,-291 522.049,-290.373 526.564,-287.444 518.099,-289.746 518.099,-289.746"/>
<ellipse fill="none" stroke="black" cx="514.938" cy="-289.245" rx="3.2" ry="3.2"/>
</g>
<!-- observation_plots&#45;&gt;monitoring_plots -->
<g id="edge7" class="edge"><title>observation_plots:monitoring_plot_id:w&#45;&gt;monitoring_plots:id:e</title>
<path fill="none" stroke="black" d="M285.065,-310.785C233.292,-292.847 278.716,-172 210,-172"/>
<polygon fill="black" stroke="black" points="291.593,-311.787 298.954,-316.558 295.546,-312.393 299.5,-313 299.5,-313 299.5,-313 295.546,-312.393 300.046,-309.442 291.593,-311.787 291.593,-311.787"/>
<ellipse fill="none" stroke="black" cx="288.43" cy="-311.301" rx="3.2" ry="3.2"/>
</g>
<!-- observation_plots&#45;&gt;observations -->
<g id="edge8" class="edge"><title>observation_plots:observation_id:w&#45;&gt;observations:id:e</title>
<path fill="none" stroke="black" d="M285.043,-336.925C263.066,-343.251 256.01,-363 227,-363"/>
<polygon fill="black" stroke="black" points="291.57,-336.056 299.975,-338.569 295.535,-335.528 299.5,-335 299.5,-335 299.5,-335 295.535,-335.528 299.025,-331.431 291.57,-336.056 291.57,-336.056"/>
<ellipse fill="none" stroke="black" cx="288.398" cy="-336.478" rx="3.2" ry="3.2"/>
</g>
</g>
</svg>
