<?xml version="1.0" encoding="UTF-8" standalone="no"?>
<!DOCTYPE svg PUBLIC "-//W3C//DTD SVG 1.1//EN"
 "http://www.w3.org/Graphics/SVG/1.1/DTD/svg11.dtd">
<!-- Generated by graphviz version 2.38.0 (20140413.2041)
 -->
<!-- Title: oneDegreeRelationshipsDiagram Pages: 1 -->
<svg width="1066pt" height="987pt"
 viewBox="0.00 0.00 1066.00 987.00" xmlns="http://www.w3.org/2000/svg" xmlns:xlink="http://www.w3.org/1999/xlink">
<g id="graph0" class="graph" transform="scale(1 1) rotate(0) translate(4 983)">
<title>oneDegreeRelationshipsDiagram</title>
<polygon fill="#ffffff" stroke="none" points="-4,4 -4,-983 1062,-983 1062,4 -4,4"/>
<text text-anchor="middle" x="74.5" y="-7.2" font-family="Helvetica,sans-Serif" font-size="11.00">Generated by SchemaSpy</text>
<!-- observation_photos -->
<g id="node1" class="node"><title>observation_photos</title>
<g id="a_node1"><a xlink:href="../../tables/observation_photos.html" xlink:title="observation_photos" target="_top">
<polygon fill="#ffffff" stroke="none" points="890,-89 890,-235 1050,-235 1050,-89 890,-89"/>
<polygon fill="#f5f5f5" stroke="none" points="890,-213 890,-235 1050,-235 1050,-213 890,-213"/>
<polygon fill="none" stroke="black" points="890,-213 890,-235 1050,-235 1050,-213 890,-213"/>
<text text-anchor="start" x="895" y="-222.2" font-family="Helvetica,sans-Serif" font-weight="bold" font-size="11.00">observation_photos</text>
<text text-anchor="start" x="1011" y="-221.2" font-family="Helvetica,sans-Serif" font-size="11.00">[table]</text>
<polygon fill="none" stroke="black" points="890,-191 890,-213 1050,-213 1050,-191 890,-191"/>
<image xlink:href="../../images/primaryKeys.png" width="11px" height="12px" preserveAspectRatio="xMinYMin meet" x="895" y="-208"/>
<text text-anchor="start" x="921" y="-199.2" font-family="Helvetica,sans-Serif" font-size="11.00">file_id</text>
<polygon fill="none" stroke="black" points="890,-169 890,-191 1050,-191 1050,-169 890,-169"/>
<image xlink:href="../../images/foreignKeys.png" width="11px" height="12px" preserveAspectRatio="xMinYMin meet" x="895" y="-186"/>
<text text-anchor="start" x="921" y="-177.2" font-family="Helvetica,sans-Serif" font-size="11.00">observation_id</text>
<polygon fill="#ffffff" stroke="none" points="890,-147 890,-169 1050,-169 1050,-147 890,-147"/>
<polygon fill="none" stroke="black" points="890,-147 890,-169 1050,-169 1050,-147 890,-147"/>
<image xlink:href="../../images/foreignKeys.png" width="11px" height="12px" preserveAspectRatio="xMinYMin meet" x="895" y="-164"/>
<text text-anchor="start" x="921" y="-155.2" font-family="Helvetica,sans-Serif" font-size="11.00">monitoring_plot_id</text>
<polygon fill="none" stroke="black" points="890,-125 890,-147 1050,-147 1050,-125 890,-125"/>
<image xlink:href="../../images/foreignKeys.png" width="11px" height="12px" preserveAspectRatio="xMinYMin meet" x="895" y="-142"/>
<text text-anchor="start" x="921" y="-133.2" font-family="Helvetica,sans-Serif" font-size="11.00">position_id</text>
<polygon fill="none" stroke="black" points="890,-107 890,-125 1050,-125 1050,-107 890,-107"/>
<text text-anchor="start" x="893" y="-113.2" font-family="Helvetica,sans-Serif" font-size="11.00">...</text>
<polygon fill="#ffffff" stroke="none" points="890,-89 890,-107 954,-107 954,-89 890,-89"/>
<polygon fill="none" stroke="black" points="890,-89 890,-107 954,-107 954,-89 890,-89"/>
<text text-anchor="start" x="893" y="-95.2" font-family="Helvetica,sans-Serif" font-size="11.00">&lt; 6</text>
<polygon fill="#ffffff" stroke="none" points="954,-89 954,-107 1016,-107 1016,-89 954,-89"/>
<polygon fill="none" stroke="black" points="954,-89 954,-107 1016,-107 1016,-89 954,-89"/>
<text text-anchor="start" x="977" y="-95.2" font-family="Helvetica,sans-Serif" font-size="11.00">0 rows</text>
<polygon fill="#ffffff" stroke="none" points="1016,-89 1016,-107 1050,-107 1050,-89 1016,-89"/>
<polygon fill="none" stroke="black" points="1016,-89 1016,-107 1050,-107 1050,-89 1016,-89"/>
<text text-anchor="start" x="1040" y="-95.2" font-family="Helvetica,sans-Serif" font-size="11.00"> &#160;</text>
</a>
</g>
</g>
<!-- observation_plots -->
<g id="node2" class="node"><title>observation_plots</title>
<g id="a_node2"><a xlink:href="../../tables/observation_plots.html" xlink:title="observation_plots" target="_top">
<polygon fill="#ffffff" stroke="none" points="658.5,-191 658.5,-381 808.5,-381 808.5,-191 658.5,-191"/>
<polygon fill="#f5f5f5" stroke="none" points="658.5,-359 658.5,-381 808.5,-381 808.5,-359 658.5,-359"/>
<polygon fill="none" stroke="black" points="658.5,-359 658.5,-381 808.5,-381 808.5,-359 658.5,-359"/>
<text text-anchor="start" x="663.5" y="-368.2" font-family="Helvetica,sans-Serif" font-weight="bold" font-size="11.00">observation_plots</text>
<text text-anchor="start" x="769.5" y="-367.2" font-family="Helvetica,sans-Serif" font-size="11.00">[table]</text>
<polygon fill="none" stroke="black" points="658.5,-337 658.5,-359 808.5,-359 808.5,-337 658.5,-337"/>
<image xlink:href="../../images/primaryKeys.png" width="11px" height="12px" preserveAspectRatio="xMinYMin meet" x="663.5" y="-354"/>
<text text-anchor="start" x="687.5" y="-345.2" font-family="Helvetica,sans-Serif" font-size="11.00">observation_id</text>
<polygon fill="none" stroke="black" points="658.5,-315 658.5,-337 808.5,-337 808.5,-315 658.5,-315"/>
<image xlink:href="../../images/primaryKeys.png" width="11px" height="12px" preserveAspectRatio="xMinYMin meet" x="663.5" y="-332"/>
<text text-anchor="start" x="687.5" y="-323.2" font-family="Helvetica,sans-Serif" font-size="11.00">monitoring_plot_id</text>
<polygon fill="none" stroke="black" points="658.5,-293 658.5,-315 808.5,-315 808.5,-293 658.5,-293"/>
<image xlink:href="../../images/foreignKeys.png" width="11px" height="12px" preserveAspectRatio="xMinYMin meet" x="663.5" y="-310"/>
<text text-anchor="start" x="687.5" y="-301.2" font-family="Helvetica,sans-Serif" font-size="11.00">claimed_by</text>
<polygon fill="none" stroke="black" points="658.5,-271 658.5,-293 808.5,-293 808.5,-271 658.5,-271"/>
<image xlink:href="../../images/foreignKeys.png" width="11px" height="12px" preserveAspectRatio="xMinYMin meet" x="663.5" y="-288"/>
<text text-anchor="start" x="687.5" y="-279.2" font-family="Helvetica,sans-Serif" font-size="11.00">completed_by</text>
<polygon fill="none" stroke="black" points="658.5,-249 658.5,-271 808.5,-271 808.5,-249 658.5,-249"/>
<image xlink:href="../../images/foreignKeys.png" width="11px" height="12px" preserveAspectRatio="xMinYMin meet" x="663.5" y="-266"/>
<text text-anchor="start" x="687.5" y="-257.2" font-family="Helvetica,sans-Serif" font-size="11.00">created_by</text>
<polygon fill="none" stroke="black" points="658.5,-227 658.5,-249 808.5,-249 808.5,-227 658.5,-227"/>
<image xlink:href="../../images/foreignKeys.png" width="11px" height="12px" preserveAspectRatio="xMinYMin meet" x="663.5" y="-244"/>
<text text-anchor="start" x="687.5" y="-235.2" font-family="Helvetica,sans-Serif" font-size="11.00">modified_by</text>
<polygon fill="none" stroke="black" points="658.5,-209 658.5,-227 808.5,-227 808.5,-209 658.5,-209"/>
<text text-anchor="start" x="661.5" y="-215.2" font-family="Helvetica,sans-Serif" font-size="11.00">...</text>
<polygon fill="#ffffff" stroke="none" points="658.5,-191 658.5,-209 712.5,-209 712.5,-191 658.5,-191"/>
<polygon fill="none" stroke="black" points="658.5,-191 658.5,-209 712.5,-209 712.5,-191 658.5,-191"/>
<text text-anchor="start" x="661.5" y="-197.2" font-family="Helvetica,sans-Serif" font-size="11.00">&lt; 6</text>
<polygon fill="#ffffff" stroke="none" points="712.5,-191 712.5,-209 769.5,-209 769.5,-191 712.5,-191"/>
<polygon fill="none" stroke="black" points="712.5,-191 712.5,-209 769.5,-209 769.5,-191 712.5,-191"/>
<text text-anchor="start" x="730.5" y="-197.2" font-family="Helvetica,sans-Serif" font-size="11.00">0 rows</text>
<polygon fill="#ffffff" stroke="none" points="769.5,-191 769.5,-209 808.5,-209 808.5,-191 769.5,-191"/>
<polygon fill="none" stroke="black" points="769.5,-191 769.5,-209 808.5,-209 808.5,-191 769.5,-191"/>
<text text-anchor="start" x="788.5" y="-197.2" font-family="Helvetica,sans-Serif" font-size="11.00">4 &gt;</text>
</a>
</g>
</g>
<!-- observation_photos&#45;&gt;observation_plots -->
<g id="edge1" class="edge"><title>observation_photos:monitoring_plot_id:w&#45;&gt;observation_plots:monitoring_plot_id:e</title>
<path fill="none" stroke="black" d="M874.672,-160.124C817.036,-179.572 886.619,-326 809.5,-326"/>
<polygon fill="black" stroke="black" points="881.086,-159.173 889.528,-161.561 885.043,-158.587 889,-158 889,-158 889,-158 885.043,-158.587 888.472,-154.439 881.086,-159.173 881.086,-159.173"/>
<ellipse fill="none" stroke="black" cx="877.921" cy="-159.642" rx="3.2" ry="3.2"/>
</g>
<!-- observation_photos&#45;&gt;observation_plots -->
<g id="edge2" class="edge"><title>observation_photos:observation_id:w&#45;&gt;observation_plots:observation_id:e</title>
<path fill="none" stroke="black" d="M874.672,-182.124C817.036,-201.572 886.619,-348 809.5,-348"/>
<polygon fill="black" stroke="black" points="881.086,-181.173 889.528,-183.561 885.043,-180.587 889,-180 889,-180 889,-180 885.043,-180.587 888.472,-176.439 881.086,-181.173 881.086,-181.173"/>
<ellipse fill="none" stroke="black" cx="877.921" cy="-181.642" rx="3.2" ry="3.2"/>
</g>
<!-- observations -->
<g id="node3" class="node"><title>observations</title>
<g id="a_node3"><a xlink:href="../../tables/observations.html" xlink:title="observations" target="_top">
<polygon fill="#ffffff" stroke="none" points="253,-272 253,-492 577,-492 577,-272 253,-272"/>
<polygon fill="#f5f5f5" stroke="none" points="255,-468 255,-490 575,-490 575,-468 255,-468"/>
<polygon fill="none" stroke="black" points="255,-468 255,-490 575,-490 575,-468 255,-468"/>
<text text-anchor="start" x="260" y="-477.2" font-family="Helvetica,sans-Serif" font-weight="bold" font-size="11.00">observations</text>
<text text-anchor="start" x="536" y="-476.2" font-family="Helvetica,sans-Serif" font-size="11.00">[table]</text>
<polygon fill="none" stroke="black" points="255,-446 255,-468 473,-468 473,-446 255,-446"/>
<image xlink:href="../../images/primaryKeys.png" width="11px" height="12px" preserveAspectRatio="xMinYMin meet" x="260" y="-463"/>
<text text-anchor="start" x="275" y="-454.2" font-family="Helvetica,sans-Serif" font-size="11.00">id</text>
<polygon fill="none" stroke="black" points="473,-446 473,-468 575,-468 575,-446 473,-446"/>
<text text-anchor="start" x="476" y="-454.2" font-family="Helvetica,sans-Serif" font-size="11.00">int8[19]</text>
<polygon fill="#ffffff" stroke="none" points="255,-424 255,-446 473,-446 473,-424 255,-424"/>
<polygon fill="none" stroke="black" points="255,-424 255,-446 473,-446 473,-424 255,-424"/>
<image xlink:href="../../images/foreignKeys.png" width="11px" height="12px" preserveAspectRatio="xMinYMin meet" x="260" y="-441"/>
<text text-anchor="start" x="275" y="-432.2" font-family="Helvetica,sans-Serif" font-size="11.00">planting_site_id</text>
<polygon fill="none" stroke="black" points="473,-424 473,-446 575,-446 575,-424 473,-424"/>
<text text-anchor="start" x="476" y="-432.2" font-family="Helvetica,sans-Serif" font-size="11.00">int8[19]</text>
<polygon fill="none" stroke="black" points="255,-402 255,-424 473,-424 473,-402 255,-402"/>
<text text-anchor="start" x="275" y="-410.2" font-family="Helvetica,sans-Serif" font-size="11.00">created_time</text>
<polygon fill="none" stroke="black" points="473,-402 473,-424 575,-424 575,-402 473,-402"/>
<text text-anchor="start" x="476" y="-410.2" font-family="Helvetica,sans-Serif" font-size="11.00">timestamptz[35,6]</text>
<polygon fill="none" stroke="black" points="255,-380 255,-402 473,-402 473,-380 255,-380"/>
<text text-anchor="start" x="275" y="-388.2" font-family="Helvetica,sans-Serif" font-size="11.00">start_date</text>
<polygon fill="none" stroke="black" points="473,-380 473,-402 575,-402 575,-380 473,-380"/>
<text text-anchor="start" x="476" y="-388.2" font-family="Helvetica,sans-Serif" font-size="11.00">date[13]</text>
<polygon fill="none" stroke="black" points="255,-358 255,-380 473,-380 473,-358 255,-358"/>
<text text-anchor="start" x="275" y="-366.2" font-family="Helvetica,sans-Serif" font-size="11.00">end_date</text>
<polygon fill="none" stroke="black" points="473,-358 473,-380 575,-380 575,-358 473,-358"/>
<text text-anchor="start" x="476" y="-366.2" font-family="Helvetica,sans-Serif" font-size="11.00">date[13]</text>
<polygon fill="none" stroke="black" points="255,-336 255,-358 473,-358 473,-336 255,-336"/>
<text text-anchor="start" x="275" y="-344.2" font-family="Helvetica,sans-Serif" font-size="11.00">completed_time</text>
<polygon fill="none" stroke="black" points="473,-336 473,-358 575,-358 575,-336 473,-336"/>
<text text-anchor="start" x="476" y="-344.2" font-family="Helvetica,sans-Serif" font-size="11.00">timestamptz[35,6]</text>
<polygon fill="none" stroke="black" points="255,-314 255,-336 473,-336 473,-314 255,-314"/>
<image xlink:href="../../images/foreignKeys.png" width="11px" height="12px" preserveAspectRatio="xMinYMin meet" x="260" y="-331"/>
<text text-anchor="start" x="275" y="-322.2" font-family="Helvetica,sans-Serif" font-size="11.00">state_id</text>
<polygon fill="none" stroke="black" points="473,-314 473,-336 575,-336 575,-314 473,-314"/>
<text text-anchor="start" x="476" y="-322.2" font-family="Helvetica,sans-Serif" font-size="11.00">int4[10]</text>
<polygon fill="none" stroke="black" points="255,-292 255,-314 473,-314 473,-292 255,-292"/>
<text text-anchor="start" x="275" y="-300.2" font-family="Helvetica,sans-Serif" font-size="11.00">upcoming_notification_sent_time</text>
<polygon fill="none" stroke="black" points="473,-292 473,-314 575,-314 575,-292 473,-292"/>
<text text-anchor="start" x="476" y="-300.2" font-family="Helvetica,sans-Serif" font-size="11.00">timestamptz[35,6]</text>
<polygon fill="#ffffff" stroke="none" points="255,-274 255,-292 354,-292 354,-274 255,-274"/>
<polygon fill="none" stroke="black" points="255,-274 255,-292 354,-292 354,-274 255,-274"/>
<text text-anchor="start" x="258" y="-280.2" font-family="Helvetica,sans-Serif" font-size="11.00">&lt; 2</text>
<polygon fill="#ffffff" stroke="none" points="354,-274 354,-292 473,-292 473,-274 354,-274"/>
<polygon fill="none" stroke="black" points="354,-274 354,-292 473,-292 473,-274 354,-274"/>
<text text-anchor="start" x="434" y="-280.2" font-family="Helvetica,sans-Serif" font-size="11.00">0 rows</text>
<polygon fill="#ffffff" stroke="none" points="473,-274 473,-292 575,-292 575,-274 473,-274"/>
<polygon fill="none" stroke="black" points="473,-274 473,-292 575,-292 575,-274 473,-274"/>
<text text-anchor="start" x="555" y="-280.2" font-family="Helvetica,sans-Serif" font-size="11.00">7 &gt;</text>
<polygon fill="none" stroke="black" stroke-width="2" points="254,-273 254,-491 576,-491 576,-273 254,-273"/>
</a>
</g>
</g>
<!-- observation_photos&#45;&gt;observations -->
<g id="edge3" class="edge"><title>observation_photos:observation_id:w&#45;&gt;observations:id.type:e</title>
<path fill="none" stroke="black" d="M874.384,-179.443C805.529,-174.865 660.307,-144.508 618,-181 571.022,-221.521 638.039,-457 576,-457"/>
<polygon fill="black" stroke="black" points="881.006,-179.695 888.863,-183.597 885.003,-179.848 889,-180 889,-180 889,-180 885.003,-179.848 889.137,-176.403 881.006,-179.695 881.006,-179.695"/>
<ellipse fill="none" stroke="black" cx="877.808" cy="-179.574" rx="3.2" ry="3.2"/>
</g>
<!-- observation_plots&#45;&gt;observations -->
<g id="edge5" class="edge"><title>observation_plots:observation_id:w&#45;&gt;observations:id.type:e</title>
<path fill="none" stroke="black" d="M643.201,-351.552C631.072,-359.255 630.724,-378.163 618,-395 597.933,-421.553 609.283,-457 576,-457"/>
<polygon fill="black" stroke="black" points="649.736,-349.929 658.368,-351.494 653.618,-348.964 657.5,-348 657.5,-348 657.5,-348 653.618,-348.964 656.632,-344.506 649.736,-349.929 649.736,-349.929"/>
<ellipse fill="none" stroke="black" cx="646.63" cy="-350.7" rx="3.2" ry="3.2"/>
</g>
<!-- planting_sites -->
<g id="node5" class="node"><title>planting_sites</title>
<g id="a_node5"><a xlink:href="../../tables/planting_sites.html" xlink:title="planting_sites" target="_top">
<polygon fill="#ffffff" stroke="none" points="8,-482 8,-694 204,-694 204,-482 8,-482"/>
<polygon fill="#f5f5f5" stroke="none" points="8,-672 8,-694 204,-694 204,-672 8,-672"/>
<polygon fill="none" stroke="black" points="8,-672 8,-694 204,-694 204,-672 8,-672"/>
<text text-anchor="start" x="13" y="-681.2" font-family="Helvetica,sans-Serif" font-weight="bold" font-size="11.00">planting_sites</text>
<text text-anchor="start" x="165" y="-680.2" font-family="Helvetica,sans-Serif" font-size="11.00">[table]</text>
<polygon fill="none" stroke="black" points="8,-650 8,-672 204,-672 204,-650 8,-650"/>
<image xlink:href="../../images/primaryKeys.png" width="11px" height="12px" preserveAspectRatio="xMinYMin meet" x="13" y="-667"/>
<text text-anchor="start" x="28" y="-658.2" font-family="Helvetica,sans-Serif" font-size="11.00">id</text>
<polygon fill="#ffffff" stroke="none" points="8,-628 8,-650 204,-650 204,-628 8,-628"/>
<polygon fill="none" stroke="black" points="8,-628 8,-650 204,-650 204,-628 8,-628"/>
<image xlink:href="../../images/foreignKeys.png" width="11px" height="12px" preserveAspectRatio="xMinYMin meet" x="13" y="-645"/>
<text text-anchor="start" x="28" y="-636.2" font-family="Helvetica,sans-Serif" font-size="11.00">organization_id</text>
<polygon fill="#ffffff" stroke="none" points="8,-606 8,-628 204,-628 204,-606 8,-606"/>
<polygon fill="none" stroke="black" points="8,-606 8,-628 204,-628 204,-606 8,-606"/>
<text text-anchor="start" x="28" y="-614.2" font-family="Helvetica,sans-Serif" font-size="11.00">name</text>
<polygon fill="none" stroke="black" points="8,-584 8,-606 204,-606 204,-584 8,-584"/>
<image xlink:href="../../images/foreignKeys.png" width="11px" height="12px" preserveAspectRatio="xMinYMin meet" x="13" y="-601"/>
<text text-anchor="start" x="28" y="-592.2" font-family="Helvetica,sans-Serif" font-size="11.00">created_by</text>
<polygon fill="none" stroke="black" points="8,-562 8,-584 204,-584 204,-562 8,-562"/>
<image xlink:href="../../images/foreignKeys.png" width="11px" height="12px" preserveAspectRatio="xMinYMin meet" x="13" y="-579"/>
<text text-anchor="start" x="28" y="-570.2" font-family="Helvetica,sans-Serif" font-size="11.00">modified_by</text>
<polygon fill="none" stroke="black" points="8,-540 8,-562 204,-562 204,-540 8,-540"/>
<image xlink:href="../../images/foreignKeys.png" width="11px" height="12px" preserveAspectRatio="xMinYMin meet" x="13" y="-557"/>
<text text-anchor="start" x="28" y="-548.2" font-family="Helvetica,sans-Serif" font-size="11.00">time_zone</text>
<polygon fill="#ffffff" stroke="none" points="8,-518 8,-540 204,-540 204,-518 8,-518"/>
<polygon fill="none" stroke="black" points="8,-518 8,-540 204,-540 204,-518 8,-518"/>
<image xlink:href="../../images/foreignKeys.png" width="11px" height="12px" preserveAspectRatio="xMinYMin meet" x="13" y="-535"/>
<text text-anchor="start" x="28" y="-526.2" font-family="Helvetica,sans-Serif" font-size="11.00">project_id</text>
<polygon fill="none" stroke="black" points="8,-500 8,-518 204,-518 204,-500 8,-500"/>
<text text-anchor="start" x="11" y="-506.2" font-family="Helvetica,sans-Serif" font-size="11.00">...</text>
<polygon fill="#ffffff" stroke="none" points="8,-482 8,-500 85,-500 85,-482 8,-482"/>
<polygon fill="none" stroke="black" points="8,-482 8,-500 85,-500 85,-482 8,-482"/>
<text text-anchor="start" x="11" y="-488.2" font-family="Helvetica,sans-Serif" font-size="11.00">&lt; 5</text>
<polygon fill="#ffffff" stroke="none" points="85,-482 85,-500 154,-500 154,-482 85,-482"/>
<polygon fill="none" stroke="black" points="85,-482 85,-500 154,-500 154,-482 85,-482"/>
<text text-anchor="start" x="115" y="-488.2" font-family="Helvetica,sans-Serif" font-size="11.00">0 rows</text>
<polygon fill="#ffffff" stroke="none" points="154,-482 154,-500 204,-500 204,-482 154,-482"/>
<polygon fill="none" stroke="black" points="154,-482 154,-500 204,-500 204,-482 154,-482"/>
<text text-anchor="start" x="184" y="-488.2" font-family="Helvetica,sans-Serif" font-size="11.00">7 &gt;</text>
</a>
</g>
</g>
<!-- observations&#45;&gt;planting_sites -->
<g id="edge6" class="edge"><title>observations:planting_site_id:w&#45;&gt;planting_sites:id:e</title>
<path fill="none" stroke="black" d="M239.38,-436.954C167.57,-459.043 302.158,-661 205,-661"/>
<polygon fill="black" stroke="black" points="246.07,-436.06 254.477,-438.568 250.035,-435.53 254,-435 254,-435 254,-435 250.035,-435.53 253.523,-431.432 246.07,-436.06 246.07,-436.06"/>
<ellipse fill="none" stroke="black" cx="242.899" cy="-436.484" rx="3.2" ry="3.2"/>
</g>
<!-- observation_states -->
<g id="node6" class="node"><title>observation_states</title>
<g id="a_node6"><a xlink:href="../../tables/observation_states.html" xlink:title="observation_states" target="_top">
<polygon fill="#ffffff" stroke="none" points="28,-274 28,-358 184,-358 184,-274 28,-274"/>
<polygon fill="#f5f5f5" stroke="none" points="28,-336 28,-358 184,-358 184,-336 28,-336"/>
<polygon fill="none" stroke="black" points="28,-336 28,-358 184,-358 184,-336 28,-336"/>
<text text-anchor="start" x="33" y="-345.2" font-family="Helvetica,sans-Serif" font-weight="bold" font-size="11.00">observation_states</text>
<text text-anchor="start" x="145" y="-344.2" font-family="Helvetica,sans-Serif" font-size="11.00">[table]</text>
<polygon fill="none" stroke="black" points="28,-314 28,-336 184,-336 184,-314 28,-314"/>
<image xlink:href="../../images/primaryKeys.png" width="11px" height="12px" preserveAspectRatio="xMinYMin meet" x="33" y="-331"/>
<text text-anchor="start" x="59" y="-322.2" font-family="Helvetica,sans-Serif" font-size="11.00">id</text>
<polygon fill="#ffffff" stroke="none" points="28,-292 28,-314 184,-314 184,-292 28,-292"/>
<polygon fill="none" stroke="black" points="28,-292 28,-314 184,-314 184,-292 28,-292"/>
<text text-anchor="start" x="59" y="-300.2" font-family="Helvetica,sans-Serif" font-size="11.00">name</text>
<polygon fill="#ffffff" stroke="none" points="28,-274 28,-292 80,-292 80,-274 28,-274"/>
<polygon fill="none" stroke="black" points="28,-274 28,-292 80,-292 80,-274 28,-274"/>
<text text-anchor="start" x="31" y="-280.2" font-family="Helvetica,sans-Serif" font-size="11.00"> &#160;</text>
<polygon fill="#ffffff" stroke="none" points="80,-274 80,-292 141,-292 141,-274 80,-274"/>
<polygon fill="none" stroke="black" points="80,-274 80,-292 141,-292 141,-274 80,-274"/>
<text text-anchor="start" x="102" y="-280.2" font-family="Helvetica,sans-Serif" font-size="11.00">4 rows</text>
<polygon fill="#ffffff" stroke="none" points="141,-274 141,-292 184,-292 184,-274 141,-274"/>
<polygon fill="none" stroke="black" points="141,-274 141,-292 184,-292 184,-274 141,-274"/>
<text text-anchor="start" x="164" y="-280.2" font-family="Helvetica,sans-Serif" font-size="11.00">1 &gt;</text>
</a>
</g>
</g>
<!-- observations&#45;&gt;observation_states -->
<g id="edge7" class="edge"><title>observations:state_id:w&#45;&gt;observation_states:id:e</title>
<path fill="none" stroke="black" d="M239.43,-325C219.836,-325 210.156,-325 185,-325"/>
<polygon fill="black" stroke="black" points="246,-325 254,-328.6 250,-325 254,-325 254,-325 254,-325 250,-325 254,-321.4 246,-325 246,-325"/>
<ellipse fill="none" stroke="black" cx="242.8" cy="-325" rx="3.2" ry="3.2"/>
</g>
<!-- observation_plot_conditions -->
<g id="node4" class="node"><title>observation_plot_conditions</title>
<g id="a_node4"><a xlink:href="../../tables/observation_plot_conditions.html" xlink:title="observation_plot_conditions" target="_top">
<polygon fill="#ffffff" stroke="none" points="629,-37 629,-143 838,-143 838,-37 629,-37"/>
<polygon fill="#f5f5f5" stroke="none" points="629.5,-121 629.5,-143 838.5,-143 838.5,-121 629.5,-121"/>
<polygon fill="none" stroke="black" points="629.5,-121 629.5,-143 838.5,-143 838.5,-121 629.5,-121"/>
<text text-anchor="start" x="634.5" y="-130.2" font-family="Helvetica,sans-Serif" font-weight="bold" font-size="11.00">observation_plot_conditions</text>
<text text-anchor="start" x="799.5" y="-129.2" font-family="Helvetica,sans-Serif" font-size="11.00">[table]</text>
<polygon fill="none" stroke="black" points="629.5,-99 629.5,-121 838.5,-121 838.5,-99 629.5,-99"/>
<image xlink:href="../../images/primaryKeys.png" width="11px" height="12px" preserveAspectRatio="xMinYMin meet" x="634.5" y="-116"/>
<text text-anchor="start" x="659.5" y="-107.2" font-family="Helvetica,sans-Serif" font-size="11.00">observation_id</text>
<polygon fill="none" stroke="black" points="629.5,-77 629.5,-99 838.5,-99 838.5,-77 629.5,-77"/>
<image xlink:href="../../images/primaryKeys.png" width="11px" height="12px" preserveAspectRatio="xMinYMin meet" x="634.5" y="-94"/>
<text text-anchor="start" x="659.5" y="-85.2" font-family="Helvetica,sans-Serif" font-size="11.00">monitoring_plot_id</text>
<polygon fill="none" stroke="black" points="629.5,-55 629.5,-77 838.5,-77 838.5,-55 629.5,-55"/>
<image xlink:href="../../images/primaryKeys.png" width="11px" height="12px" preserveAspectRatio="xMinYMin meet" x="634.5" y="-72"/>
<text text-anchor="start" x="659.5" y="-63.2" font-family="Helvetica,sans-Serif" font-size="11.00">condition_id</text>
<polygon fill="#ffffff" stroke="none" points="629.5,-37 629.5,-55 717.5,-55 717.5,-37 629.5,-37"/>
<polygon fill="none" stroke="black" points="629.5,-37 629.5,-55 717.5,-55 717.5,-37 629.5,-37"/>
<text text-anchor="start" x="632.5" y="-43.2" font-family="Helvetica,sans-Serif" font-size="11.00">&lt; 3</text>
<polygon fill="#ffffff" stroke="none" points="717.5,-37 717.5,-55 792.5,-55 792.5,-37 717.5,-37"/>
<polygon fill="none" stroke="black" points="717.5,-37 717.5,-55 792.5,-55 792.5,-37 717.5,-37"/>
<text text-anchor="start" x="753.5" y="-43.2" font-family="Helvetica,sans-Serif" font-size="11.00">0 rows</text>
<polygon fill="#ffffff" stroke="none" points="792.5,-37 792.5,-55 838.5,-55 838.5,-37 792.5,-37"/>
<polygon fill="none" stroke="black" points="792.5,-37 792.5,-55 838.5,-55 838.5,-37 792.5,-37"/>
<text text-anchor="start" x="828.5" y="-43.2" font-family="Helvetica,sans-Serif" font-size="11.00"> &#160;</text>
</a>
</g>
</g>
<!-- observation_plot_conditions&#45;&gt;observations -->
<g id="edge4" class="edge"><title>observation_plot_conditions:observation_id:w&#45;&gt;observations:id.type:e</title>
<path fill="none" stroke="black" d="M614.615,-114.905C564.166,-157.081 648.505,-457 576,-457"/>
<polygon fill="black" stroke="black" points="620.957,-112.665 629.699,-113.394 624.728,-111.332 628.5,-110 628.5,-110 628.5,-110 624.728,-111.332 627.301,-106.606 620.957,-112.665 620.957,-112.665"/>
<ellipse fill="none" stroke="black" cx="617.94" cy="-113.731" rx="3.20001" ry="3.20001"/>
</g>
<!-- observed_plot_species_totals -->
<g id="node7" class="node"><title>observed_plot_species_totals</title>
<g id="a_node7"><a xlink:href="../../tables/observed_plot_species_totals.html" xlink:title="observed_plot_species_totals" target="_top">
<polygon fill="#ffffff" stroke="none" points="627.5,-618 627.5,-786 839.5,-786 839.5,-618 627.5,-618"/>
<polygon fill="#f5f5f5" stroke="none" points="627.5,-764 627.5,-786 839.5,-786 839.5,-764 627.5,-764"/>
<polygon fill="none" stroke="black" points="627.5,-764 627.5,-786 839.5,-786 839.5,-764 627.5,-764"/>
<text text-anchor="start" x="632.5" y="-773.2" font-family="Helvetica,sans-Serif" font-weight="bold" font-size="11.00">observed_plot_species_totals</text>
<text text-anchor="start" x="800.5" y="-772.2" font-family="Helvetica,sans-Serif" font-size="11.00">[table]</text>
<polygon fill="#ffffff" stroke="none" points="627.5,-742 627.5,-764 839.5,-764 839.5,-742 627.5,-742"/>
<polygon fill="none" stroke="black" points="627.5,-742 627.5,-764 839.5,-764 839.5,-742 627.5,-742"/>
<image xlink:href="../../images/foreignKeys.png" width="11px" height="12px" preserveAspectRatio="xMinYMin meet" x="632.5" y="-759"/>
<text text-anchor="start" x="657.5" y="-750.2" font-family="Helvetica,sans-Serif" font-size="11.00">observation_id</text>
<polygon fill="#ffffff" stroke="none" points="627.5,-720 627.5,-742 839.5,-742 839.5,-720 627.5,-720"/>
<polygon fill="none" stroke="black" points="627.5,-720 627.5,-742 839.5,-742 839.5,-720 627.5,-720"/>
<image xlink:href="../../images/foreignKeys.png" width="11px" height="12px" preserveAspectRatio="xMinYMin meet" x="632.5" y="-737"/>
<text text-anchor="start" x="657.5" y="-728.2" font-family="Helvetica,sans-Serif" font-size="11.00">monitoring_plot_id</text>
<polygon fill="#ffffff" stroke="none" points="627.5,-698 627.5,-720 839.5,-720 839.5,-698 627.5,-698"/>
<polygon fill="none" stroke="black" points="627.5,-698 627.5,-720 839.5,-720 839.5,-698 627.5,-698"/>
<image xlink:href="../../images/foreignKeys.png" width="11px" height="12px" preserveAspectRatio="xMinYMin meet" x="632.5" y="-715"/>
<text text-anchor="start" x="657.5" y="-706.2" font-family="Helvetica,sans-Serif" font-size="11.00">species_id</text>
<polygon fill="#ffffff" stroke="none" points="627.5,-676 627.5,-698 839.5,-698 839.5,-676 627.5,-676"/>
<polygon fill="none" stroke="black" points="627.5,-676 627.5,-698 839.5,-698 839.5,-676 627.5,-676"/>
<text text-anchor="start" x="657.5" y="-684.2" font-family="Helvetica,sans-Serif" font-size="11.00">species_name</text>
<polygon fill="none" stroke="black" points="627.5,-654 627.5,-676 839.5,-676 839.5,-654 627.5,-654"/>
<image xlink:href="../../images/foreignKeys.png" width="11px" height="12px" preserveAspectRatio="xMinYMin meet" x="632.5" y="-671"/>
<text text-anchor="start" x="657.5" y="-662.2" font-family="Helvetica,sans-Serif" font-size="11.00">certainty_id</text>
<polygon fill="none" stroke="black" points="627.5,-636 627.5,-654 839.5,-654 839.5,-636 627.5,-636"/>
<text text-anchor="start" x="630.5" y="-642.2" font-family="Helvetica,sans-Serif" font-size="11.00">...</text>
<polygon fill="#ffffff" stroke="none" points="627.5,-618 627.5,-636 717.5,-636 717.5,-618 627.5,-618"/>
<polygon fill="none" stroke="black" points="627.5,-618 627.5,-636 717.5,-636 717.5,-618 627.5,-618"/>
<text text-anchor="start" x="630.5" y="-624.2" font-family="Helvetica,sans-Serif" font-size="11.00">&lt; 4</text>
<polygon fill="#ffffff" stroke="none" points="717.5,-618 717.5,-636 792.5,-636 792.5,-618 717.5,-618"/>
<polygon fill="none" stroke="black" points="717.5,-618 717.5,-636 792.5,-636 792.5,-618 717.5,-618"/>
<text text-anchor="start" x="753.5" y="-624.2" font-family="Helvetica,sans-Serif" font-size="11.00">0 rows</text>
<polygon fill="#ffffff" stroke="none" points="792.5,-618 792.5,-636 839.5,-636 839.5,-618 792.5,-618"/>
<polygon fill="none" stroke="black" points="792.5,-618 792.5,-636 839.5,-636 839.5,-618 792.5,-618"/>
<text text-anchor="start" x="829.5" y="-624.2" font-family="Helvetica,sans-Serif" font-size="11.00"> &#160;</text>
</a>
</g>
</g>
<!-- observed_plot_species_totals&#45;&gt;observations -->
<g id="edge8" class="edge"><title>observed_plot_species_totals:observation_id:w&#45;&gt;observations:id.type:e</title>
<path fill="none" stroke="black" d="M612.935,-747.351C572.375,-706.429 637.254,-457 576,-457"/>
<polygon fill="black" stroke="black" points="619.115,-749.925 625.116,-756.323 622.807,-751.462 626.5,-753 626.5,-753 626.5,-753 622.807,-751.462 627.884,-749.677 619.115,-749.925 619.115,-749.925"/>
<ellipse fill="none" stroke="black" cx="616.161" cy="-748.694" rx="3.20001" ry="3.20001"/>
</g>
<!-- observed_site_species_totals -->
<g id="node8" class="node"><title>observed_site_species_totals</title>
<g id="a_node8"><a xlink:href="../../tables/observed_site_species_totals.html" xlink:title="observed_site_species_totals" target="_top">
<polygon fill="#ffffff" stroke="none" points="628.5,-807 628.5,-975 838.5,-975 838.5,-807 628.5,-807"/>
<polygon fill="#f5f5f5" stroke="none" points="628.5,-953 628.5,-975 838.5,-975 838.5,-953 628.5,-953"/>
<polygon fill="none" stroke="black" points="628.5,-953 628.5,-975 838.5,-975 838.5,-953 628.5,-953"/>
<text text-anchor="start" x="633.5" y="-962.2" font-family="Helvetica,sans-Serif" font-weight="bold" font-size="11.00">observed_site_species_totals</text>
<text text-anchor="start" x="799.5" y="-961.2" font-family="Helvetica,sans-Serif" font-size="11.00">[table]</text>
<polygon fill="#ffffff" stroke="none" points="628.5,-931 628.5,-953 838.5,-953 838.5,-931 628.5,-931"/>
<polygon fill="none" stroke="black" points="628.5,-931 628.5,-953 838.5,-953 838.5,-931 628.5,-931"/>
<image xlink:href="../../images/foreignKeys.png" width="11px" height="12px" preserveAspectRatio="xMinYMin meet" x="633.5" y="-948"/>
<text text-anchor="start" x="658.5" y="-939.2" font-family="Helvetica,sans-Serif" font-size="11.00">observation_id</text>
<polygon fill="#ffffff" stroke="none" points="628.5,-909 628.5,-931 838.5,-931 838.5,-909 628.5,-909"/>
<polygon fill="none" stroke="black" points="628.5,-909 628.5,-931 838.5,-931 838.5,-909 628.5,-909"/>
<image xlink:href="../../images/foreignKeys.png" width="11px" height="12px" preserveAspectRatio="xMinYMin meet" x="633.5" y="-926"/>
<text text-anchor="start" x="658.5" y="-917.2" font-family="Helvetica,sans-Serif" font-size="11.00">planting_site_id</text>
<polygon fill="#ffffff" stroke="none" points="628.5,-887 628.5,-909 838.5,-909 838.5,-887 628.5,-887"/>
<polygon fill="none" stroke="black" points="628.5,-887 628.5,-909 838.5,-909 838.5,-887 628.5,-887"/>
<image xlink:href="../../images/foreignKeys.png" width="11px" height="12px" preserveAspectRatio="xMinYMin meet" x="633.5" y="-904"/>
<text text-anchor="start" x="658.5" y="-895.2" font-family="Helvetica,sans-Serif" font-size="11.00">species_id</text>
<polygon fill="#ffffff" stroke="none" points="628.5,-865 628.5,-887 838.5,-887 838.5,-865 628.5,-865"/>
<polygon fill="none" stroke="black" points="628.5,-865 628.5,-887 838.5,-887 838.5,-865 628.5,-865"/>
<text text-anchor="start" x="658.5" y="-873.2" font-family="Helvetica,sans-Serif" font-size="11.00">species_name</text>
<polygon fill="none" stroke="black" points="628.5,-843 628.5,-865 838.5,-865 838.5,-843 628.5,-843"/>
<image xlink:href="../../images/foreignKeys.png" width="11px" height="12px" preserveAspectRatio="xMinYMin meet" x="633.5" y="-860"/>
<text text-anchor="start" x="658.5" y="-851.2" font-family="Helvetica,sans-Serif" font-size="11.00">certainty_id</text>
<polygon fill="none" stroke="black" points="628.5,-825 628.5,-843 838.5,-843 838.5,-825 628.5,-825"/>
<text text-anchor="start" x="631.5" y="-831.2" font-family="Helvetica,sans-Serif" font-size="11.00">...</text>
<polygon fill="#ffffff" stroke="none" points="628.5,-807 628.5,-825 717.5,-825 717.5,-807 628.5,-807"/>
<polygon fill="none" stroke="black" points="628.5,-807 628.5,-825 717.5,-825 717.5,-807 628.5,-807"/>
<text text-anchor="start" x="631.5" y="-813.2" font-family="Helvetica,sans-Serif" font-size="11.00">&lt; 4</text>
<polygon fill="#ffffff" stroke="none" points="717.5,-807 717.5,-825 792.5,-825 792.5,-807 717.5,-807"/>
<polygon fill="none" stroke="black" points="717.5,-807 717.5,-825 792.5,-825 792.5,-807 717.5,-807"/>
<text text-anchor="start" x="753.5" y="-813.2" font-family="Helvetica,sans-Serif" font-size="11.00">0 rows</text>
<polygon fill="#ffffff" stroke="none" points="792.5,-807 792.5,-825 838.5,-825 838.5,-807 792.5,-807"/>
<polygon fill="none" stroke="black" points="792.5,-807 792.5,-825 838.5,-825 838.5,-807 792.5,-807"/>
<text text-anchor="start" x="828.5" y="-813.2" font-family="Helvetica,sans-Serif" font-size="11.00"> &#160;</text>
</a>
</g>
</g>
<!-- observed_site_species_totals&#45;&gt;observations -->
<g id="edge9" class="edge"><title>observed_site_species_totals:observation_id:w&#45;&gt;observations:id.type:e</title>
<path fill="none" stroke="black" d="M613.034,-938.375C535.196,-893.993 678.88,-457 576,-457"/>
<polygon fill="black" stroke="black" points="619.74,-940.055 626.625,-945.492 623.62,-941.028 627.5,-942 627.5,-942 627.5,-942 623.62,-941.028 628.375,-938.508 619.74,-940.055 619.74,-940.055"/>
<ellipse fill="none" stroke="black" cx="616.636" cy="-939.278" rx="3.2" ry="3.2"/>
</g>
<!-- observed_site_species_totals&#45;&gt;planting_sites -->
<g id="edge10" class="edge"><title>observed_site_species_totals:planting_site_id:w&#45;&gt;planting_sites:id:e</title>
<path fill="none" stroke="black" d="M613.014,-919.614C407.936,-908.496 420.305,-661 205,-661"/>
<polygon fill="black" stroke="black" points="619.503,-919.787 627.404,-923.599 623.501,-919.893 627.5,-920 627.5,-920 627.5,-920 623.501,-919.893 627.596,-916.401 619.503,-919.787 619.503,-919.787"/>
<ellipse fill="none" stroke="black" cx="616.304" cy="-919.701" rx="3.2" ry="3.2"/>
</g>
<!-- observed_zone_species_totals -->
<g id="node9" class="node"><title>observed_zone_species_totals</title>
<g id="a_node9"><a xlink:href="../../tables/observed_zone_species_totals.html" xlink:title="observed_zone_species_totals" target="_top">
<polygon fill="#ffffff" stroke="none" points="626,-429 626,-597 841,-597 841,-429 626,-429"/>
<polygon fill="#f5f5f5" stroke="none" points="626.5,-575 626.5,-597 841.5,-597 841.5,-575 626.5,-575"/>
<polygon fill="none" stroke="black" points="626.5,-575 626.5,-597 841.5,-597 841.5,-575 626.5,-575"/>
<text text-anchor="start" x="631.5" y="-584.2" font-family="Helvetica,sans-Serif" font-weight="bold" font-size="11.00">observed_zone_species_totals</text>
<text text-anchor="start" x="802.5" y="-583.2" font-family="Helvetica,sans-Serif" font-size="11.00">[table]</text>
<polygon fill="#ffffff" stroke="none" points="626.5,-553 626.5,-575 841.5,-575 841.5,-553 626.5,-553"/>
<polygon fill="none" stroke="black" points="626.5,-553 626.5,-575 841.5,-575 841.5,-553 626.5,-553"/>
<image xlink:href="../../images/foreignKeys.png" width="11px" height="12px" preserveAspectRatio="xMinYMin meet" x="631.5" y="-570"/>
<text text-anchor="start" x="655.5" y="-561.2" font-family="Helvetica,sans-Serif" font-size="11.00">observation_id</text>
<polygon fill="#ffffff" stroke="none" points="626.5,-531 626.5,-553 841.5,-553 841.5,-531 626.5,-531"/>
<polygon fill="none" stroke="black" points="626.5,-531 626.5,-553 841.5,-553 841.5,-531 626.5,-531"/>
<image xlink:href="../../images/foreignKeys.png" width="11px" height="12px" preserveAspectRatio="xMinYMin meet" x="631.5" y="-548"/>
<text text-anchor="start" x="655.5" y="-539.2" font-family="Helvetica,sans-Serif" font-size="11.00">planting_zone_id</text>
<polygon fill="#ffffff" stroke="none" points="626.5,-509 626.5,-531 841.5,-531 841.5,-509 626.5,-509"/>
<polygon fill="none" stroke="black" points="626.5,-509 626.5,-531 841.5,-531 841.5,-509 626.5,-509"/>
<image xlink:href="../../images/foreignKeys.png" width="11px" height="12px" preserveAspectRatio="xMinYMin meet" x="631.5" y="-526"/>
<text text-anchor="start" x="655.5" y="-517.2" font-family="Helvetica,sans-Serif" font-size="11.00">species_id</text>
<polygon fill="#ffffff" stroke="none" points="626.5,-487 626.5,-509 841.5,-509 841.5,-487 626.5,-487"/>
<polygon fill="none" stroke="black" points="626.5,-487 626.5,-509 841.5,-509 841.5,-487 626.5,-487"/>
<text text-anchor="start" x="655.5" y="-495.2" font-family="Helvetica,sans-Serif" font-size="11.00">species_name</text>
<polygon fill="none" stroke="black" points="626.5,-465 626.5,-487 841.5,-487 841.5,-465 626.5,-465"/>
<image xlink:href="../../images/foreignKeys.png" width="11px" height="12px" preserveAspectRatio="xMinYMin meet" x="631.5" y="-482"/>
<text text-anchor="start" x="655.5" y="-473.2" font-family="Helvetica,sans-Serif" font-size="11.00">certainty_id</text>
<polygon fill="none" stroke="black" points="626.5,-447 626.5,-465 841.5,-465 841.5,-447 626.5,-447"/>
<text text-anchor="start" x="629.5" y="-453.2" font-family="Helvetica,sans-Serif" font-size="11.00">...</text>
<polygon fill="#ffffff" stroke="none" points="626.5,-429 626.5,-447 717.5,-447 717.5,-429 626.5,-429"/>
<polygon fill="none" stroke="black" points="626.5,-429 626.5,-447 717.5,-447 717.5,-429 626.5,-429"/>
<text text-anchor="start" x="629.5" y="-435.2" font-family="Helvetica,sans-Serif" font-size="11.00">&lt; 4</text>
<polygon fill="#ffffff" stroke="none" points="717.5,-429 717.5,-447 793.5,-447 793.5,-429 717.5,-429"/>
<polygon fill="none" stroke="black" points="717.5,-429 717.5,-447 793.5,-447 793.5,-429 717.5,-429"/>
<text text-anchor="start" x="754.5" y="-435.2" font-family="Helvetica,sans-Serif" font-size="11.00">0 rows</text>
<polygon fill="#ffffff" stroke="none" points="793.5,-429 793.5,-447 841.5,-447 841.5,-429 793.5,-429"/>
<polygon fill="none" stroke="black" points="793.5,-429 793.5,-447 841.5,-447 841.5,-429 793.5,-429"/>
<text text-anchor="start" x="831.5" y="-435.2" font-family="Helvetica,sans-Serif" font-size="11.00"> &#160;</text>
</a>
</g>
</g>
<!-- observed_zone_species_totals&#45;&gt;observations -->
<g id="edge11" class="edge"><title>observed_zone_species_totals:observation_id:w&#45;&gt;observations:id.type:e</title>
<path fill="none" stroke="black" d="M611.526,-560.192C584.248,-541.131 622.462,-457 576,-457"/>
<polygon fill="black" stroke="black" points="617.781,-561.897 624.553,-567.473 621.641,-562.948 625.5,-564 625.5,-564 625.5,-564 621.641,-562.948 626.447,-560.527 617.781,-561.897 617.781,-561.897"/>
<ellipse fill="none" stroke="black" cx="614.694" cy="-561.055" rx="3.20001" ry="3.20001"/>
</g>
<!-- recorded_plants -->
<g id="node10" class="node"><title>recorded_plants</title>
<g id="a_node10"><a xlink:href="../../tables/recorded_plants.html" xlink:title="recorded_plants" target="_top">
<polygon fill="#ffffff" stroke="none" points="899.5,-256 899.5,-446 1040.5,-446 1040.5,-256 899.5,-256"/>
<polygon fill="#f5f5f5" stroke="none" points="900,-424 900,-446 1041,-446 1041,-424 900,-424"/>
<polygon fill="none" stroke="black" points="900,-424 900,-446 1041,-446 1041,-424 900,-424"/>
<text text-anchor="start" x="905" y="-433.2" font-family="Helvetica,sans-Serif" font-weight="bold" font-size="11.00">recorded_plants</text>
<text text-anchor="start" x="1002" y="-432.2" font-family="Helvetica,sans-Serif" font-size="11.00">[table]</text>
<polygon fill="none" stroke="black" points="900,-402 900,-424 1041,-424 1041,-402 900,-402"/>
<image xlink:href="../../images/primaryKeys.png" width="11px" height="12px" preserveAspectRatio="xMinYMin meet" x="905" y="-419"/>
<text text-anchor="start" x="924" y="-410.2" font-family="Helvetica,sans-Serif" font-size="11.00">id</text>
<polygon fill="#ffffff" stroke="none" points="900,-380 900,-402 1041,-402 1041,-380 900,-380"/>
<polygon fill="none" stroke="black" points="900,-380 900,-402 1041,-402 1041,-380 900,-380"/>
<image xlink:href="../../images/foreignKeys.png" width="11px" height="12px" preserveAspectRatio="xMinYMin meet" x="905" y="-397"/>
<text text-anchor="start" x="924" y="-388.2" font-family="Helvetica,sans-Serif" font-size="11.00">observation_id</text>
<polygon fill="#ffffff" stroke="none" points="900,-358 900,-380 1041,-380 1041,-358 900,-358"/>
<polygon fill="none" stroke="black" points="900,-358 900,-380 1041,-380 1041,-358 900,-358"/>
<image xlink:href="../../images/foreignKeys.png" width="11px" height="12px" preserveAspectRatio="xMinYMin meet" x="905" y="-375"/>
<text text-anchor="start" x="924" y="-366.2" font-family="Helvetica,sans-Serif" font-size="11.00">monitoring_plot_id</text>
<polygon fill="none" stroke="black" points="900,-336 900,-358 1041,-358 1041,-336 900,-336"/>
<image xlink:href="../../images/foreignKeys.png" width="11px" height="12px" preserveAspectRatio="xMinYMin meet" x="905" y="-353"/>
<text text-anchor="start" x="924" y="-344.2" font-family="Helvetica,sans-Serif" font-size="11.00">certainty_id</text>
<polygon fill="#ffffff" stroke="none" points="900,-314 900,-336 1041,-336 1041,-314 900,-314"/>
<polygon fill="none" stroke="black" points="900,-314 900,-336 1041,-336 1041,-314 900,-314"/>
<image xlink:href="../../images/foreignKeys.png" width="11px" height="12px" preserveAspectRatio="xMinYMin meet" x="905" y="-331"/>
<text text-anchor="start" x="924" y="-322.2" font-family="Helvetica,sans-Serif" font-size="11.00">species_id</text>
<polygon fill="none" stroke="black" points="900,-292 900,-314 1041,-314 1041,-292 900,-292"/>
<image xlink:href="../../images/foreignKeys.png" width="11px" height="12px" preserveAspectRatio="xMinYMin meet" x="905" y="-309"/>
<text text-anchor="start" x="924" y="-300.2" font-family="Helvetica,sans-Serif" font-size="11.00">status_id</text>
<polygon fill="none" stroke="black" points="900,-274 900,-292 1041,-292 1041,-274 900,-274"/>
<text text-anchor="start" x="903" y="-280.2" font-family="Helvetica,sans-Serif" font-size="11.00">...</text>
<polygon fill="#ffffff" stroke="none" points="900,-256 900,-274 954,-274 954,-256 900,-256"/>
<polygon fill="none" stroke="black" points="900,-256 900,-274 954,-274 954,-256 900,-256"/>
<text text-anchor="start" x="903" y="-262.2" font-family="Helvetica,sans-Serif" font-size="11.00">&lt; 7</text>
<polygon fill="#ffffff" stroke="none" points="954,-256 954,-274 1012,-274 1012,-256 954,-256"/>
<polygon fill="none" stroke="black" points="954,-256 954,-274 1012,-274 1012,-256 954,-256"/>
<text text-anchor="start" x="973" y="-262.2" font-family="Helvetica,sans-Serif" font-size="11.00">0 rows</text>
<polygon fill="#ffffff" stroke="none" points="1012,-256 1012,-274 1041,-274 1041,-256 1012,-256"/>
<polygon fill="none" stroke="black" points="1012,-256 1012,-274 1041,-274 1041,-256 1012,-256"/>
<text text-anchor="start" x="1031" y="-262.2" font-family="Helvetica,sans-Serif" font-size="11.00"> &#160;</text>
</a>
</g>
</g>
<!-- recorded_plants&#45;&gt;observation_plots -->
<g id="edge12" class="edge"><title>recorded_plants:monitoring_plot_id:w&#45;&gt;observation_plots:monitoring_plot_id:e</title>
<path fill="none" stroke="black" d="M884.703,-367.261C853.94,-359.216 848.287,-326 809.5,-326"/>
<polygon fill="black" stroke="black" points="891.059,-368.034 898.565,-372.574 895.029,-368.517 899,-369 899,-369 899,-369 895.029,-368.517 899.435,-365.426 891.059,-368.034 891.059,-368.034"/>
<ellipse fill="none" stroke="black" cx="887.882" cy="-367.648" rx="3.2" ry="3.2"/>
</g>
<!-- recorded_plants&#45;&gt;observation_plots -->
<g id="edge13" class="edge"><title>recorded_plants:observation_id:w&#45;&gt;observation_plots:observation_id:e</title>
<path fill="none" stroke="black" d="M884.703,-389.261C853.94,-381.216 848.287,-348 809.5,-348"/>
<polygon fill="black" stroke="black" points="891.059,-390.034 898.565,-394.574 895.029,-390.517 899,-391 899,-391 899,-391 895.029,-390.517 899.435,-387.426 891.059,-390.034 891.059,-390.034"/>
<ellipse fill="none" stroke="black" cx="887.882" cy="-389.648" rx="3.2" ry="3.2"/>
</g>
<!-- recorded_plants&#45;&gt;observations -->
<g id="edge14" class="edge"><title>recorded_plants:observation_id:w&#45;&gt;observations:id.type:e</title>
<path fill="none" stroke="black" d="M884.359,-391.437C825.515,-394.019 643.826,-407.548 618,-419 594.988,-429.204 601.173,-457 576,-457"/>
<polygon fill="black" stroke="black" points="891.004,-391.239 899.107,-394.598 895.002,-391.119 899,-391 899,-391 899,-391 895.002,-391.119 898.893,-387.402 891.004,-391.239 891.004,-391.239"/>
<ellipse fill="none" stroke="black" cx="887.805" cy="-391.334" rx="3.2" ry="3.2"/>
</g>
</g>
</svg>
