<?xml version="1.0" encoding="UTF-8" standalone="no"?>
<!DOCTYPE svg PUBLIC "-//W3C//DTD SVG 1.1//EN"
 "http://www.w3.org/Graphics/SVG/1.1/DTD/svg11.dtd">
<!-- Generated by graphviz version 2.38.0 (20140413.2041)
 -->
<!-- Title: oneDegreeRelationshipsDiagram Pages: 1 -->
<svg width="1129pt" height="677pt"
 viewBox="0.00 0.00 1129.00 677.30" xmlns="http://www.w3.org/2000/svg" xmlns:xlink="http://www.w3.org/1999/xlink">
<g id="graph0" class="graph" transform="scale(1 1) rotate(0) translate(4 673.297)">
<title>oneDegreeRelationshipsDiagram</title>
<polygon fill="#ffffff" stroke="none" points="-4,4 -4,-673.297 1125,-673.297 1125,4 -4,4"/>
<text text-anchor="middle" x="74.5" y="-7.2" font-family="Helvetica,sans-Serif" font-size="11.00">Generated by SchemaSpy</text>
<!-- observation_biomass_details -->
<g id="node1" class="node"><title>observation_biomass_details</title>
<g id="a_node1"><a xlink:href="../../tables/observation_biomass_details.html" xlink:title="observation_biomass_details" target="_top">
<polygon fill="#ffffff" stroke="none" points="504,-184.939 504,-514.939 802,-514.939 802,-184.939 504,-184.939"/>
<polygon fill="#f5f5f5" stroke="none" points="506,-490.939 506,-512.939 800,-512.939 800,-490.939 506,-490.939"/>
<polygon fill="none" stroke="black" points="506,-490.939 506,-512.939 800,-512.939 800,-490.939 506,-490.939"/>
<text text-anchor="start" x="511" y="-500.139" font-family="Helvetica,sans-Serif" font-weight="bold" font-size="11.00">observation_biomass_details</text>
<text text-anchor="start" x="761" y="-499.139" font-family="Helvetica,sans-Serif" font-size="11.00">[table]</text>
<polygon fill="none" stroke="black" points="506,-468.939 506,-490.939 698,-490.939 698,-468.939 506,-468.939"/>
<image xlink:href="../../images/primaryKeys.png" width="11px" height="12px" preserveAspectRatio="xMinYMin meet" x="511" y="-485.939"/>
<text text-anchor="start" x="526" y="-477.139" font-family="Helvetica,sans-Serif" font-size="11.00">observation_id</text>
<polygon fill="none" stroke="black" points="698,-468.939 698,-490.939 800,-490.939 800,-468.939 698,-468.939"/>
<text text-anchor="start" x="701" y="-477.139" font-family="Helvetica,sans-Serif" font-size="11.00">int8[19]</text>
<polygon fill="none" stroke="black" points="506,-446.939 506,-468.939 698,-468.939 698,-446.939 506,-446.939"/>
<image xlink:href="../../images/primaryKeys.png" width="11px" height="12px" preserveAspectRatio="xMinYMin meet" x="511" y="-463.939"/>
<text text-anchor="start" x="526" y="-455.139" font-family="Helvetica,sans-Serif" font-size="11.00">monitoring_plot_id</text>
<polygon fill="none" stroke="black" points="698,-446.939 698,-468.939 800,-468.939 800,-446.939 698,-446.939"/>
<text text-anchor="start" x="701" y="-455.139" font-family="Helvetica,sans-Serif" font-size="11.00">int8[19]</text>
<polygon fill="none" stroke="black" points="506,-424.939 506,-446.939 698,-446.939 698,-424.939 506,-424.939"/>
<text text-anchor="start" x="526" y="-433.139" font-family="Helvetica,sans-Serif" font-size="11.00">description</text>
<polygon fill="none" stroke="black" points="698,-424.939 698,-446.939 800,-446.939 800,-424.939 698,-424.939"/>
<text text-anchor="start" x="701" y="-433.139" font-family="Helvetica,sans-Serif" font-size="11.00">text[2147483647]</text>
<polygon fill="none" stroke="black" points="506,-402.939 506,-424.939 698,-424.939 698,-402.939 506,-402.939"/>
<image xlink:href="../../images/foreignKeys.png" width="11px" height="12px" preserveAspectRatio="xMinYMin meet" x="511" y="-419.939"/>
<text text-anchor="start" x="526" y="-411.139" font-family="Helvetica,sans-Serif" font-size="11.00">forest_type_id</text>
<polygon fill="none" stroke="black" points="698,-402.939 698,-424.939 800,-424.939 800,-402.939 698,-402.939"/>
<text text-anchor="start" x="701" y="-411.139" font-family="Helvetica,sans-Serif" font-size="11.00">int4[10]</text>
<polygon fill="none" stroke="black" points="506,-380.939 506,-402.939 698,-402.939 698,-380.939 506,-380.939"/>
<text text-anchor="start" x="526" y="-389.139" font-family="Helvetica,sans-Serif" font-size="11.00">small_trees_count_low</text>
<polygon fill="none" stroke="black" points="698,-380.939 698,-402.939 800,-402.939 800,-380.939 698,-380.939"/>
<text text-anchor="start" x="701" y="-389.139" font-family="Helvetica,sans-Serif" font-size="11.00">int4[10]</text>
<polygon fill="none" stroke="black" points="506,-358.939 506,-380.939 698,-380.939 698,-358.939 506,-358.939"/>
<text text-anchor="start" x="526" y="-367.139" font-family="Helvetica,sans-Serif" font-size="11.00">small_trees_count_high</text>
<polygon fill="none" stroke="black" points="698,-358.939 698,-380.939 800,-380.939 800,-358.939 698,-358.939"/>
<text text-anchor="start" x="701" y="-367.139" font-family="Helvetica,sans-Serif" font-size="11.00">int4[10]</text>
<polygon fill="none" stroke="black" points="506,-336.939 506,-358.939 698,-358.939 698,-336.939 506,-336.939"/>
<text text-anchor="start" x="526" y="-345.139" font-family="Helvetica,sans-Serif" font-size="11.00">herbaceous_cover_percent</text>
<polygon fill="none" stroke="black" points="698,-336.939 698,-358.939 800,-358.939 800,-336.939 698,-336.939"/>
<text text-anchor="start" x="701" y="-345.139" font-family="Helvetica,sans-Serif" font-size="11.00">int4[10]</text>
<polygon fill="none" stroke="black" points="506,-314.939 506,-336.939 698,-336.939 698,-314.939 506,-314.939"/>
<text text-anchor="start" x="526" y="-323.139" font-family="Helvetica,sans-Serif" font-size="11.00">soil_assessment</text>
<polygon fill="none" stroke="black" points="698,-314.939 698,-336.939 800,-336.939 800,-314.939 698,-314.939"/>
<text text-anchor="start" x="701" y="-323.139" font-family="Helvetica,sans-Serif" font-size="11.00">text[2147483647]</text>
<polygon fill="none" stroke="black" points="506,-292.939 506,-314.939 698,-314.939 698,-292.939 506,-292.939"/>
<text text-anchor="start" x="526" y="-301.139" font-family="Helvetica,sans-Serif" font-size="11.00">water_depth_cm</text>
<polygon fill="none" stroke="black" points="698,-292.939 698,-314.939 800,-314.939 800,-292.939 698,-292.939"/>
<text text-anchor="start" x="701" y="-301.139" font-family="Helvetica,sans-Serif" font-size="11.00">int4[10]</text>
<polygon fill="none" stroke="black" points="506,-270.939 506,-292.939 698,-292.939 698,-270.939 506,-270.939"/>
<text text-anchor="start" x="526" y="-279.139" font-family="Helvetica,sans-Serif" font-size="11.00">salinity_ppt</text>
<polygon fill="none" stroke="black" points="698,-270.939 698,-292.939 800,-292.939 800,-270.939 698,-270.939"/>
<text text-anchor="start" x="701" y="-279.139" font-family="Helvetica,sans-Serif" font-size="11.00">numeric[131089]</text>
<polygon fill="none" stroke="black" points="506,-248.939 506,-270.939 698,-270.939 698,-248.939 506,-248.939"/>
<text text-anchor="start" x="526" y="-257.139" font-family="Helvetica,sans-Serif" font-size="11.00">ph</text>
<polygon fill="none" stroke="black" points="698,-248.939 698,-270.939 800,-270.939 800,-248.939 698,-248.939"/>
<text text-anchor="start" x="701" y="-257.139" font-family="Helvetica,sans-Serif" font-size="11.00">numeric[131089]</text>
<polygon fill="none" stroke="black" points="506,-226.939 506,-248.939 698,-248.939 698,-226.939 506,-226.939"/>
<image xlink:href="../../images/foreignKeys.png" width="11px" height="12px" preserveAspectRatio="xMinYMin meet" x="511" y="-243.939"/>
<text text-anchor="start" x="526" y="-235.139" font-family="Helvetica,sans-Serif" font-size="11.00">tide_id</text>
<polygon fill="none" stroke="black" points="698,-226.939 698,-248.939 800,-248.939 800,-226.939 698,-226.939"/>
<text text-anchor="start" x="701" y="-235.139" font-family="Helvetica,sans-Serif" font-size="11.00">int4[10]</text>
<polygon fill="none" stroke="black" points="506,-204.939 506,-226.939 698,-226.939 698,-204.939 506,-204.939"/>
<text text-anchor="start" x="526" y="-213.139" font-family="Helvetica,sans-Serif" font-size="11.00">tide_time</text>
<polygon fill="none" stroke="black" points="698,-204.939 698,-226.939 800,-226.939 800,-204.939 698,-204.939"/>
<text text-anchor="start" x="701" y="-213.139" font-family="Helvetica,sans-Serif" font-size="11.00">timestamptz[35,6]</text>
<polygon fill="#ffffff" stroke="none" points="506,-186.939 506,-204.939 592,-204.939 592,-186.939 506,-186.939"/>
<polygon fill="none" stroke="black" points="506,-186.939 506,-204.939 592,-204.939 592,-186.939 506,-186.939"/>
<text text-anchor="start" x="509" y="-193.139" font-family="Helvetica,sans-Serif" font-size="11.00">&lt; 6</text>
<polygon fill="#ffffff" stroke="none" points="592,-186.939 592,-204.939 698,-204.939 698,-186.939 592,-186.939"/>
<polygon fill="none" stroke="black" points="592,-186.939 592,-204.939 698,-204.939 698,-186.939 592,-186.939"/>
<text text-anchor="start" x="659" y="-193.139" font-family="Helvetica,sans-Serif" font-size="11.00">0 rows</text>
<polygon fill="#ffffff" stroke="none" points="698,-186.939 698,-204.939 800,-204.939 800,-186.939 698,-186.939"/>
<polygon fill="none" stroke="black" points="698,-186.939 698,-204.939 800,-204.939 800,-186.939 698,-186.939"/>
<text text-anchor="start" x="780" y="-193.139" font-family="Helvetica,sans-Serif" font-size="11.00">4 &gt;</text>
<polygon fill="none" stroke="black" stroke-width="2" points="505,-185.939 505,-513.939 801,-513.939 801,-185.939 505,-185.939"/>
</a>
</g>
</g>
<!-- biomass_forest_types -->
<g id="node2" class="node"><title>biomass_forest_types</title>
<g id="a_node2"><a xlink:href="../../tables/biomass_forest_types.html" xlink:title="biomass_forest_types" target="_top">
<polygon fill="#ffffff" stroke="none" points="280.5,-176.939 280.5,-260.939 449.5,-260.939 449.5,-176.939 280.5,-176.939"/>
<polygon fill="#f5f5f5" stroke="none" points="281,-238.939 281,-260.939 450,-260.939 450,-238.939 281,-238.939"/>
<polygon fill="none" stroke="black" points="281,-238.939 281,-260.939 450,-260.939 450,-238.939 281,-238.939"/>
<text text-anchor="start" x="286" y="-248.139" font-family="Helvetica,sans-Serif" font-weight="bold" font-size="11.00">biomass_forest_types</text>
<text text-anchor="start" x="411" y="-247.139" font-family="Helvetica,sans-Serif" font-size="11.00">[table]</text>
<polygon fill="none" stroke="black" points="281,-216.939 281,-238.939 450,-238.939 450,-216.939 281,-216.939"/>
<image xlink:href="../../images/primaryKeys.png" width="11px" height="12px" preserveAspectRatio="xMinYMin meet" x="286" y="-233.939"/>
<text text-anchor="start" x="312" y="-225.139" font-family="Helvetica,sans-Serif" font-size="11.00">id</text>
<polygon fill="#ffffff" stroke="none" points="281,-194.939 281,-216.939 450,-216.939 450,-194.939 281,-194.939"/>
<polygon fill="none" stroke="black" points="281,-194.939 281,-216.939 450,-216.939 450,-194.939 281,-194.939"/>
<text text-anchor="start" x="312" y="-203.139" font-family="Helvetica,sans-Serif" font-size="11.00">name</text>
<polygon fill="#ffffff" stroke="none" points="281,-176.939 281,-194.939 339,-194.939 339,-176.939 281,-176.939"/>
<polygon fill="none" stroke="black" points="281,-176.939 281,-194.939 339,-194.939 339,-176.939 281,-176.939"/>
<text text-anchor="start" x="284" y="-183.139" font-family="Helvetica,sans-Serif" font-size="11.00"> &#160;</text>
<polygon fill="#ffffff" stroke="none" points="339,-176.939 339,-194.939 404,-194.939 404,-176.939 339,-176.939"/>
<polygon fill="none" stroke="black" points="339,-176.939 339,-194.939 404,-194.939 404,-176.939 339,-176.939"/>
<text text-anchor="start" x="365" y="-183.139" font-family="Helvetica,sans-Serif" font-size="11.00">2 rows</text>
<polygon fill="#ffffff" stroke="none" points="404,-176.939 404,-194.939 450,-194.939 450,-176.939 404,-176.939"/>
<polygon fill="none" stroke="black" points="404,-176.939 404,-194.939 450,-194.939 450,-176.939 404,-176.939"/>
<text text-anchor="start" x="430" y="-183.139" font-family="Helvetica,sans-Serif" font-size="11.00">1 &gt;</text>
</a>
</g>
</g>
<!-- observation_biomass_details&#45;&gt;biomass_forest_types -->
<g id="edge1" class="edge"><title>observation_biomass_details:forest_type_id:w&#45;&gt;biomass_forest_types:id:e</title>
<path fill="none" stroke="black" d="M490.434,-411.587C433.712,-390.056 531.364,-227.939 451,-227.939"/>
<polygon fill="black" stroke="black" points="497.102,-412.664 504.426,-417.493 501.051,-413.302 505,-413.939 505,-413.939 505,-413.939 501.051,-413.302 505.574,-410.385 497.102,-412.664 497.102,-412.664"/>
<ellipse fill="none" stroke="black" cx="493.943" cy="-412.154" rx="3.2" ry="3.2"/>
</g>
<!-- monitoring_plots -->
<g id="node3" class="node"><title>monitoring_plots</title>
<g id="a_node3"><a xlink:href="../../tables/monitoring_plots.html" xlink:title="monitoring_plots" target="_top">
<polygon fill="#ffffff" stroke="none" points="25,-171.939 25,-383.939 209,-383.939 209,-171.939 25,-171.939"/>
<polygon fill="#f5f5f5" stroke="none" points="25,-361.939 25,-383.939 209,-383.939 209,-361.939 25,-361.939"/>
<polygon fill="none" stroke="black" points="25,-361.939 25,-383.939 209,-383.939 209,-361.939 25,-361.939"/>
<text text-anchor="start" x="30" y="-371.139" font-family="Helvetica,sans-Serif" font-weight="bold" font-size="11.00">monitoring_plots</text>
<text text-anchor="start" x="170" y="-370.139" font-family="Helvetica,sans-Serif" font-size="11.00">[table]</text>
<polygon fill="none" stroke="black" points="25,-339.939 25,-361.939 209,-361.939 209,-339.939 25,-339.939"/>
<image xlink:href="../../images/primaryKeys.png" width="11px" height="12px" preserveAspectRatio="xMinYMin meet" x="30" y="-356.939"/>
<text text-anchor="start" x="45" y="-348.139" font-family="Helvetica,sans-Serif" font-size="11.00">id</text>
<polygon fill="none" stroke="black" points="25,-317.939 25,-339.939 209,-339.939 209,-317.939 25,-317.939"/>
<image xlink:href="../../images/foreignKeys.png" width="11px" height="12px" preserveAspectRatio="xMinYMin meet" x="30" y="-334.939"/>
<text text-anchor="start" x="45" y="-326.139" font-family="Helvetica,sans-Serif" font-size="11.00">planting_subzone_id</text>
<polygon fill="none" stroke="black" points="25,-295.939 25,-317.939 209,-317.939 209,-295.939 25,-295.939"/>
<image xlink:href="../../images/foreignKeys.png" width="11px" height="12px" preserveAspectRatio="xMinYMin meet" x="30" y="-312.939"/>
<text text-anchor="start" x="45" y="-304.139" font-family="Helvetica,sans-Serif" font-size="11.00">created_by</text>
<polygon fill="none" stroke="black" points="25,-273.939 25,-295.939 209,-295.939 209,-273.939 25,-273.939"/>
<image xlink:href="../../images/foreignKeys.png" width="11px" height="12px" preserveAspectRatio="xMinYMin meet" x="30" y="-290.939"/>
<text text-anchor="start" x="45" y="-282.139" font-family="Helvetica,sans-Serif" font-size="11.00">modified_by</text>
<polygon fill="#ffffff" stroke="none" points="25,-251.939 25,-273.939 209,-273.939 209,-251.939 25,-251.939"/>
<polygon fill="none" stroke="black" points="25,-251.939 25,-273.939 209,-273.939 209,-251.939 25,-251.939"/>
<image xlink:href="../../images/foreignKeys.png" width="11px" height="12px" preserveAspectRatio="xMinYMin meet" x="30" y="-268.939"/>
<text text-anchor="start" x="45" y="-260.139" font-family="Helvetica,sans-Serif" font-size="11.00">planting_site_id</text>
<polygon fill="#ffffff" stroke="none" points="25,-229.939 25,-251.939 209,-251.939 209,-229.939 25,-229.939"/>
<polygon fill="none" stroke="black" points="25,-229.939 25,-251.939 209,-251.939 209,-229.939 25,-229.939"/>
<image xlink:href="../../images/foreignKeys.png" width="11px" height="12px" preserveAspectRatio="xMinYMin meet" x="30" y="-246.939"/>
<text text-anchor="start" x="45" y="-238.139" font-family="Helvetica,sans-Serif" font-size="11.00">organization_id</text>
<polygon fill="#ffffff" stroke="none" points="25,-207.939 25,-229.939 209,-229.939 209,-207.939 25,-207.939"/>
<polygon fill="none" stroke="black" points="25,-207.939 25,-229.939 209,-229.939 209,-207.939 25,-207.939"/>
<text text-anchor="start" x="45" y="-216.139" font-family="Helvetica,sans-Serif" font-size="11.00">plot_number</text>
<polygon fill="none" stroke="black" points="25,-189.939 25,-207.939 209,-207.939 209,-189.939 25,-189.939"/>
<text text-anchor="start" x="28" y="-196.139" font-family="Helvetica,sans-Serif" font-size="11.00">...</text>
<polygon fill="#ffffff" stroke="none" points="25,-171.939 25,-189.939 92,-189.939 92,-171.939 25,-171.939"/>
<polygon fill="none" stroke="black" points="25,-171.939 25,-189.939 92,-189.939 92,-171.939 25,-171.939"/>
<text text-anchor="start" x="28" y="-178.139" font-family="Helvetica,sans-Serif" font-size="11.00">&lt; 5</text>
<polygon fill="#ffffff" stroke="none" points="92,-171.939 92,-189.939 156,-189.939 156,-171.939 92,-171.939"/>
<polygon fill="none" stroke="black" points="92,-171.939 92,-189.939 156,-189.939 156,-171.939 92,-171.939"/>
<text text-anchor="start" x="117" y="-178.139" font-family="Helvetica,sans-Serif" font-size="11.00">0 rows</text>
<polygon fill="#ffffff" stroke="none" points="156,-171.939 156,-189.939 209,-189.939 209,-171.939 156,-171.939"/>
<polygon fill="none" stroke="black" points="156,-171.939 156,-189.939 209,-189.939 209,-171.939 156,-171.939"/>
<text text-anchor="start" x="182" y="-178.139" font-family="Helvetica,sans-Serif" font-size="11.00">14 &gt;</text>
</a>
</g>
</g>
<!-- observation_biomass_details&#45;&gt;monitoring_plots -->
<g id="edge2" class="edge"><title>observation_biomass_details:monitoring_plot_id:w&#45;&gt;monitoring_plots:id:e</title>
<path fill="none" stroke="black" d="M490.61,-455.92C444.598,-440.384 516.666,-339.336 463,-297.939 428.513,-271.336 307.536,-282.005 267,-297.939 234.805,-310.594 244.593,-350.939 210,-350.939"/>
<polygon fill="black" stroke="black" points="497.078,-456.828 504.5,-461.504 501.039,-457.383 505,-457.939 505,-457.939 505,-457.939 501.039,-457.383 505.5,-454.374 497.078,-456.828 497.078,-456.828"/>
<ellipse fill="none" stroke="black" cx="493.909" cy="-456.383" rx="3.2" ry="3.2"/>
</g>
<!-- observation_plots -->
<g id="node4" class="node"><title>observation_plots</title>
<g id="a_node4"><a xlink:href="../../tables/observation_plots.html" xlink:title="observation_plots" target="_top">
<polygon fill="#ffffff" stroke="none" points="275,-308.939 275,-542.939 455,-542.939 455,-308.939 275,-308.939"/>
<polygon fill="#f5f5f5" stroke="none" points="275,-520.939 275,-542.939 455,-542.939 455,-520.939 275,-520.939"/>
<polygon fill="none" stroke="black" points="275,-520.939 275,-542.939 455,-542.939 455,-520.939 275,-520.939"/>
<text text-anchor="start" x="280" y="-530.139" font-family="Helvetica,sans-Serif" font-weight="bold" font-size="11.00">observation_plots</text>
<text text-anchor="start" x="416" y="-529.139" font-family="Helvetica,sans-Serif" font-size="11.00">[table]</text>
<polygon fill="none" stroke="black" points="275,-498.939 275,-520.939 455,-520.939 455,-498.939 275,-498.939"/>
<image xlink:href="../../images/primaryKeys.png" width="11px" height="12px" preserveAspectRatio="xMinYMin meet" x="280" y="-515.939"/>
<text text-anchor="start" x="295" y="-507.139" font-family="Helvetica,sans-Serif" font-size="11.00">observation_id</text>
<polygon fill="none" stroke="black" points="275,-476.939 275,-498.939 455,-498.939 455,-476.939 275,-476.939"/>
<image xlink:href="../../images/primaryKeys.png" width="11px" height="12px" preserveAspectRatio="xMinYMin meet" x="280" y="-493.939"/>
<text text-anchor="start" x="295" y="-485.139" font-family="Helvetica,sans-Serif" font-size="11.00">monitoring_plot_id</text>
<polygon fill="none" stroke="black" points="275,-454.939 275,-476.939 455,-476.939 455,-454.939 275,-454.939"/>
<image xlink:href="../../images/foreignKeys.png" width="11px" height="12px" preserveAspectRatio="xMinYMin meet" x="280" y="-471.939"/>
<text text-anchor="start" x="295" y="-463.139" font-family="Helvetica,sans-Serif" font-size="11.00">claimed_by</text>
<polygon fill="none" stroke="black" points="275,-432.939 275,-454.939 455,-454.939 455,-432.939 275,-432.939"/>
<image xlink:href="../../images/foreignKeys.png" width="11px" height="12px" preserveAspectRatio="xMinYMin meet" x="280" y="-449.939"/>
<text text-anchor="start" x="295" y="-441.139" font-family="Helvetica,sans-Serif" font-size="11.00">completed_by</text>
<polygon fill="none" stroke="black" points="275,-410.939 275,-432.939 455,-432.939 455,-410.939 275,-410.939"/>
<image xlink:href="../../images/foreignKeys.png" width="11px" height="12px" preserveAspectRatio="xMinYMin meet" x="280" y="-427.939"/>
<text text-anchor="start" x="295" y="-419.139" font-family="Helvetica,sans-Serif" font-size="11.00">created_by</text>
<polygon fill="none" stroke="black" points="275,-388.939 275,-410.939 455,-410.939 455,-388.939 275,-388.939"/>
<image xlink:href="../../images/foreignKeys.png" width="11px" height="12px" preserveAspectRatio="xMinYMin meet" x="280" y="-405.939"/>
<text text-anchor="start" x="295" y="-397.139" font-family="Helvetica,sans-Serif" font-size="11.00">modified_by</text>
<polygon fill="none" stroke="black" points="275,-366.939 275,-388.939 455,-388.939 455,-366.939 275,-366.939"/>
<image xlink:href="../../images/foreignKeys.png" width="11px" height="12px" preserveAspectRatio="xMinYMin meet" x="280" y="-383.939"/>
<text text-anchor="start" x="295" y="-375.139" font-family="Helvetica,sans-Serif" font-size="11.00">status_id</text>
<polygon fill="#ffffff" stroke="none" points="275,-344.939 275,-366.939 455,-366.939 455,-344.939 275,-344.939"/>
<polygon fill="none" stroke="black" points="275,-344.939 275,-366.939 455,-366.939 455,-344.939 275,-344.939"/>
<image xlink:href="../../images/foreignKeys.png" width="11px" height="12px" preserveAspectRatio="xMinYMin meet" x="280" y="-361.939"/>
<text text-anchor="start" x="295" y="-353.139" font-family="Helvetica,sans-Serif" font-size="11.00">monitoring_plot_history_id</text>
<polygon fill="none" stroke="black" points="275,-326.939 275,-344.939 455,-344.939 455,-326.939 275,-326.939"/>
<text text-anchor="start" x="278" y="-333.139" font-family="Helvetica,sans-Serif" font-size="11.00">...</text>
<polygon fill="#ffffff" stroke="none" points="275,-308.939 275,-326.939 344,-326.939 344,-308.939 275,-308.939"/>
<polygon fill="none" stroke="black" points="275,-308.939 275,-326.939 344,-326.939 344,-308.939 275,-308.939"/>
<text text-anchor="start" x="278" y="-315.139" font-family="Helvetica,sans-Serif" font-size="11.00">&lt; 8</text>
<polygon fill="#ffffff" stroke="none" points="344,-308.939 344,-326.939 409,-326.939 409,-308.939 344,-308.939"/>
<polygon fill="none" stroke="black" points="344,-308.939 344,-326.939 409,-326.939 409,-308.939 344,-308.939"/>
<text text-anchor="start" x="370" y="-315.139" font-family="Helvetica,sans-Serif" font-size="11.00">0 rows</text>
<polygon fill="#ffffff" stroke="none" points="409,-308.939 409,-326.939 455,-326.939 455,-308.939 409,-308.939"/>
<polygon fill="none" stroke="black" points="409,-308.939 409,-326.939 455,-326.939 455,-308.939 409,-308.939"/>
<text text-anchor="start" x="435" y="-315.139" font-family="Helvetica,sans-Serif" font-size="11.00">8 &gt;</text>
</a>
</g>
</g>
<!-- observation_biomass_details&#45;&gt;observation_plots -->
<g id="edge3" class="edge"><title>observation_biomass_details:monitoring_plot_id:w&#45;&gt;observation_plots:monitoring_plot_id:e</title>
<path fill="none" stroke="black" d="M490.884,-462.111C478.919,-470.354 475.55,-487.939 456,-487.939"/>
<polygon fill="black" stroke="black" points="497.328,-460.206 506.02,-461.392 501.164,-459.073 505,-457.939 505,-457.939 505,-457.939 501.164,-459.073 503.98,-454.487 497.328,-460.206 497.328,-460.206"/>
<ellipse fill="none" stroke="black" cx="494.259" cy="-461.113" rx="3.20001" ry="3.20001"/>
</g>
<!-- observation_biomass_details&#45;&gt;observation_plots -->
<g id="edge4" class="edge"><title>observation_biomass_details:observation_id:w&#45;&gt;observation_plots:observation_id:e</title>
<path fill="none" stroke="black" d="M490.884,-484.111C478.919,-492.354 475.55,-509.939 456,-509.939"/>
<polygon fill="black" stroke="black" points="497.328,-482.206 506.02,-483.392 501.164,-481.073 505,-479.939 505,-479.939 505,-479.939 501.164,-481.073 503.98,-476.487 497.328,-482.206 497.328,-482.206"/>
<ellipse fill="none" stroke="black" cx="494.259" cy="-483.113" rx="3.20001" ry="3.20001"/>
</g>
<!-- observations -->
<g id="node5" class="node"><title>observations</title>
<g id="a_node5"><a xlink:href="../../tables/observations.html" xlink:title="observations" target="_top">
<polygon fill="#ffffff" stroke="none" points="8,-471.939 8,-639.939 226,-639.939 226,-471.939 8,-471.939"/>
<polygon fill="#f5f5f5" stroke="none" points="8,-617.939 8,-639.939 226,-639.939 226,-617.939 8,-617.939"/>
<polygon fill="none" stroke="black" points="8,-617.939 8,-639.939 226,-639.939 226,-617.939 8,-617.939"/>
<text text-anchor="start" x="13" y="-627.139" font-family="Helvetica,sans-Serif" font-weight="bold" font-size="11.00">observations</text>
<text text-anchor="start" x="187" y="-626.139" font-family="Helvetica,sans-Serif" font-size="11.00">[table]</text>
<polygon fill="none" stroke="black" points="8,-595.939 8,-617.939 226,-617.939 226,-595.939 8,-595.939"/>
<image xlink:href="../../images/primaryKeys.png" width="11px" height="12px" preserveAspectRatio="xMinYMin meet" x="13" y="-612.939"/>
<text text-anchor="start" x="28" y="-604.139" font-family="Helvetica,sans-Serif" font-size="11.00">id</text>
<polygon fill="#ffffff" stroke="none" points="8,-573.939 8,-595.939 226,-595.939 226,-573.939 8,-573.939"/>
<polygon fill="none" stroke="black" points="8,-573.939 8,-595.939 226,-595.939 226,-573.939 8,-573.939"/>
<image xlink:href="../../images/foreignKeys.png" width="11px" height="12px" preserveAspectRatio="xMinYMin meet" x="13" y="-590.939"/>
<text text-anchor="start" x="28" y="-582.139" font-family="Helvetica,sans-Serif" font-size="11.00">planting_site_id</text>
<polygon fill="none" stroke="black" points="8,-551.939 8,-573.939 226,-573.939 226,-551.939 8,-551.939"/>
<image xlink:href="../../images/foreignKeys.png" width="11px" height="12px" preserveAspectRatio="xMinYMin meet" x="13" y="-568.939"/>
<text text-anchor="start" x="28" y="-560.139" font-family="Helvetica,sans-Serif" font-size="11.00">state_id</text>
<polygon fill="#ffffff" stroke="none" points="8,-529.939 8,-551.939 226,-551.939 226,-529.939 8,-529.939"/>
<polygon fill="none" stroke="black" points="8,-529.939 8,-551.939 226,-551.939 226,-529.939 8,-529.939"/>
<image xlink:href="../../images/foreignKeys.png" width="11px" height="12px" preserveAspectRatio="xMinYMin meet" x="13" y="-546.939"/>
<text text-anchor="start" x="28" y="-538.139" font-family="Helvetica,sans-Serif" font-size="11.00">planting_site_history_id</text>
<polygon fill="none" stroke="black" points="8,-507.939 8,-529.939 226,-529.939 226,-507.939 8,-507.939"/>
<image xlink:href="../../images/foreignKeys.png" width="11px" height="12px" preserveAspectRatio="xMinYMin meet" x="13" y="-524.939"/>
<text text-anchor="start" x="28" y="-516.139" font-family="Helvetica,sans-Serif" font-size="11.00">observation_type_id</text>
<polygon fill="none" stroke="black" points="8,-489.939 8,-507.939 226,-507.939 226,-489.939 8,-489.939"/>
<text text-anchor="start" x="11" y="-496.139" font-family="Helvetica,sans-Serif" font-size="11.00">...</text>
<polygon fill="#ffffff" stroke="none" points="8,-471.939 8,-489.939 92,-489.939 92,-471.939 8,-471.939"/>
<polygon fill="none" stroke="black" points="8,-471.939 8,-489.939 92,-489.939 92,-471.939 8,-471.939"/>
<text text-anchor="start" x="11" y="-478.139" font-family="Helvetica,sans-Serif" font-size="11.00">&lt; 4</text>
<polygon fill="#ffffff" stroke="none" points="92,-471.939 92,-489.939 165,-489.939 165,-471.939 92,-471.939"/>
<polygon fill="none" stroke="black" points="92,-471.939 92,-489.939 165,-489.939 165,-471.939 92,-471.939"/>
<text text-anchor="start" x="126" y="-478.139" font-family="Helvetica,sans-Serif" font-size="11.00">0 rows</text>
<polygon fill="#ffffff" stroke="none" points="165,-471.939 165,-489.939 226,-489.939 226,-471.939 165,-471.939"/>
<polygon fill="none" stroke="black" points="165,-471.939 165,-489.939 226,-489.939 226,-471.939 165,-471.939"/>
<text text-anchor="start" x="199" y="-478.139" font-family="Helvetica,sans-Serif" font-size="11.00">15 &gt;</text>
</a>
</g>
</g>
<!-- observation_biomass_details&#45;&gt;observations -->
<g id="edge5" class="edge"><title>observation_biomass_details:observation_id:w&#45;&gt;observations:id:e</title>
<path fill="none" stroke="black" d="M490.677,-484.034C474.7,-496.54 487.922,-534.507 463,-552.939 376.491,-616.923 334.6,-606.939 227,-606.939"/>
<polygon fill="black" stroke="black" points="497.308,-482.138 505.99,-483.401 501.154,-481.039 505,-479.939 505,-479.939 505,-479.939 501.154,-481.039 504.01,-476.478 497.308,-482.138 497.308,-482.138"/>
<ellipse fill="none" stroke="black" cx="494.231" cy="-483.018" rx="3.20001" ry="3.20001"/>
</g>
<!-- mangrove_tides -->
<g id="node6" class="node"><title>mangrove_tides</title>
<g id="a_node6"><a xlink:href="../../tables/mangrove_tides.html" xlink:title="mangrove_tides" target="_top">
<polygon fill="#ffffff" stroke="none" points="295.5,-71.9392 295.5,-155.939 434.5,-155.939 434.5,-71.9392 295.5,-71.9392"/>
<polygon fill="#f5f5f5" stroke="none" points="296,-133.939 296,-155.939 435,-155.939 435,-133.939 296,-133.939"/>
<polygon fill="none" stroke="black" points="296,-133.939 296,-155.939 435,-155.939 435,-133.939 296,-133.939"/>
<text text-anchor="start" x="301" y="-143.139" font-family="Helvetica,sans-Serif" font-weight="bold" font-size="11.00">mangrove_tides</text>
<text text-anchor="start" x="396" y="-142.139" font-family="Helvetica,sans-Serif" font-size="11.00">[table]</text>
<polygon fill="none" stroke="black" points="296,-111.939 296,-133.939 435,-133.939 435,-111.939 296,-111.939"/>
<image xlink:href="../../images/primaryKeys.png" width="11px" height="12px" preserveAspectRatio="xMinYMin meet" x="301" y="-128.939"/>
<text text-anchor="start" x="328" y="-120.139" font-family="Helvetica,sans-Serif" font-size="11.00">id</text>
<polygon fill="#ffffff" stroke="none" points="296,-89.9392 296,-111.939 435,-111.939 435,-89.9392 296,-89.9392"/>
<polygon fill="none" stroke="black" points="296,-89.9392 296,-111.939 435,-111.939 435,-89.9392 296,-89.9392"/>
<text text-anchor="start" x="328" y="-98.1392" font-family="Helvetica,sans-Serif" font-size="11.00">name</text>
<polygon fill="#ffffff" stroke="none" points="296,-71.9392 296,-89.9392 339,-89.9392 339,-71.9392 296,-71.9392"/>
<polygon fill="none" stroke="black" points="296,-71.9392 296,-89.9392 339,-89.9392 339,-71.9392 296,-71.9392"/>
<text text-anchor="start" x="299" y="-78.1392" font-family="Helvetica,sans-Serif" font-size="11.00"> &#160;</text>
<polygon fill="#ffffff" stroke="none" points="339,-71.9392 339,-89.9392 396,-89.9392 396,-71.9392 339,-71.9392"/>
<polygon fill="none" stroke="black" points="339,-71.9392 339,-89.9392 396,-89.9392 396,-71.9392 339,-71.9392"/>
<text text-anchor="start" x="357" y="-78.1392" font-family="Helvetica,sans-Serif" font-size="11.00">2 rows</text>
<polygon fill="#ffffff" stroke="none" points="396,-71.9392 396,-89.9392 435,-89.9392 435,-71.9392 396,-71.9392"/>
<polygon fill="none" stroke="black" points="396,-71.9392 396,-89.9392 435,-89.9392 435,-71.9392 396,-71.9392"/>
<text text-anchor="start" x="415" y="-78.1392" font-family="Helvetica,sans-Serif" font-size="11.00">1 &gt;</text>
</a>
</g>
</g>
<!-- observation_biomass_details&#45;&gt;mangrove_tides -->
<g id="edge6" class="edge"><title>observation_biomass_details:tide_id:w&#45;&gt;mangrove_tides:id:e</title>
<path fill="none" stroke="black" d="M490.475,-234.863C454.154,-216.575 489.784,-122.939 436,-122.939"/>
<polygon fill="black" stroke="black" points="497.174,-236.282 504.254,-241.461 501.087,-237.11 505,-237.939 505,-237.939 505,-237.939 501.087,-237.11 505.746,-234.417 497.174,-236.282 497.174,-236.282"/>
<ellipse fill="none" stroke="black" cx="494.043" cy="-235.619" rx="3.2" ry="3.2"/>
</g>
<!-- observation_plots&#45;&gt;monitoring_plots -->
<g id="edge15" class="edge"><title>observation_plots:monitoring_plot_id:w&#45;&gt;monitoring_plots:id:e</title>
<path fill="none" stroke="black" d="M259.816,-485.203C217.651,-465.894 271.561,-350.939 210,-350.939"/>
<polygon fill="black" stroke="black" points="266.145,-486.424 273.318,-491.474 270.072,-487.181 274,-487.939 274,-487.939 274,-487.939 270.072,-487.181 274.682,-484.404 266.145,-486.424 266.145,-486.424"/>
<ellipse fill="none" stroke="black" cx="263.003" cy="-485.817" rx="3.2" ry="3.2"/>
</g>
<!-- observation_plots&#45;&gt;observations -->
<g id="edge16" class="edge"><title>observation_plots:observation_id:w&#45;&gt;observations:id:e</title>
<path fill="none" stroke="black" d="M260.191,-514.107C236.786,-532.674 268.917,-606.939 227,-606.939"/>
<polygon fill="black" stroke="black" points="266.341,-512.251 275.04,-513.386 270.171,-511.095 274,-509.939 274,-509.939 274,-509.939 270.171,-511.095 272.96,-506.493 266.341,-512.251 266.341,-512.251"/>
<ellipse fill="none" stroke="black" cx="263.278" cy="-513.176" rx="3.20001" ry="3.20001"/>
</g>
<!-- observation_biomass_quadrat_details -->
<g id="node7" class="node"><title>observation_biomass_quadrat_details</title>
<g id="a_node7"><a xlink:href="../../tables/observation_biomass_quadrat_details.html" xlink:title="observation_biomass_quadrat_details" target="_top">
<polygon fill="#ffffff" stroke="none" points="851,-527.939 851,-651.939 1113,-651.939 1113,-527.939 851,-527.939"/>
<polygon fill="#f5f5f5" stroke="none" points="851,-629.939 851,-651.939 1113,-651.939 1113,-629.939 851,-629.939"/>
<polygon fill="none" stroke="black" points="851,-629.939 851,-651.939 1113,-651.939 1113,-629.939 851,-629.939"/>
<text text-anchor="start" x="856" y="-639.139" font-family="Helvetica,sans-Serif" font-weight="bold" font-size="11.00">observation_biomass_quadrat_details</text>
<text text-anchor="start" x="1074" y="-638.139" font-family="Helvetica,sans-Serif" font-size="11.00">[table]</text>
<polygon fill="none" stroke="black" points="851,-607.939 851,-629.939 1113,-629.939 1113,-607.939 851,-607.939"/>
<image xlink:href="../../images/primaryKeys.png" width="11px" height="12px" preserveAspectRatio="xMinYMin meet" x="856" y="-624.939"/>
<text text-anchor="start" x="880" y="-616.139" font-family="Helvetica,sans-Serif" font-size="11.00">observation_id</text>
<polygon fill="none" stroke="black" points="851,-585.939 851,-607.939 1113,-607.939 1113,-585.939 851,-585.939"/>
<image xlink:href="../../images/primaryKeys.png" width="11px" height="12px" preserveAspectRatio="xMinYMin meet" x="856" y="-602.939"/>
<text text-anchor="start" x="880" y="-594.139" font-family="Helvetica,sans-Serif" font-size="11.00">monitoring_plot_id</text>
<polygon fill="none" stroke="black" points="851,-563.939 851,-585.939 1113,-585.939 1113,-563.939 851,-563.939"/>
<image xlink:href="../../images/primaryKeys.png" width="11px" height="12px" preserveAspectRatio="xMinYMin meet" x="856" y="-580.939"/>
<text text-anchor="start" x="880" y="-572.139" font-family="Helvetica,sans-Serif" font-size="11.00">position_id</text>
<polygon fill="none" stroke="black" points="851,-545.939 851,-563.939 1113,-563.939 1113,-545.939 851,-545.939"/>
<text text-anchor="start" x="854" y="-552.139" font-family="Helvetica,sans-Serif" font-size="11.00">...</text>
<polygon fill="#ffffff" stroke="none" points="851,-527.939 851,-545.939 966,-545.939 966,-527.939 851,-527.939"/>
<polygon fill="none" stroke="black" points="851,-527.939 851,-545.939 966,-545.939 966,-527.939 851,-527.939"/>
<text text-anchor="start" x="854" y="-534.139" font-family="Helvetica,sans-Serif" font-size="11.00">&lt; 5</text>
<polygon fill="#ffffff" stroke="none" points="966,-527.939 966,-545.939 1054,-545.939 1054,-527.939 966,-527.939"/>
<polygon fill="none" stroke="black" points="966,-527.939 966,-545.939 1054,-545.939 1054,-527.939 966,-527.939"/>
<text text-anchor="start" x="1015" y="-534.139" font-family="Helvetica,sans-Serif" font-size="11.00">0 rows</text>
<polygon fill="#ffffff" stroke="none" points="1054,-527.939 1054,-545.939 1113,-545.939 1113,-527.939 1054,-527.939"/>
<polygon fill="none" stroke="black" points="1054,-527.939 1054,-545.939 1113,-545.939 1113,-527.939 1054,-527.939"/>
<text text-anchor="start" x="1103" y="-534.139" font-family="Helvetica,sans-Serif" font-size="11.00"> &#160;</text>
</a>
</g>
</g>
<!-- observation_biomass_quadrat_details&#45;&gt;observation_biomass_details -->
<g id="edge8" class="edge"><title>observation_biomass_quadrat_details:monitoring_plot_id:w&#45;&gt;observation_biomass_details:monitoring_plot_id.type:e</title>
<path fill="none" stroke="black" d="M835.703,-593.775C798.041,-573.085 860.619,-457.939 801,-457.939"/>
<polygon fill="black" stroke="black" points="842.189,-595.21 849.222,-600.454 846.095,-596.075 850,-596.939 850,-596.939 850,-596.939 846.095,-596.075 850.778,-593.424 842.189,-595.21 842.189,-595.21"/>
<ellipse fill="none" stroke="black" cx="839.065" cy="-594.519" rx="3.2" ry="3.2"/>
</g>
<!-- observation_biomass_quadrat_details&#45;&gt;observation_biomass_details -->
<g id="edge9" class="edge"><title>observation_biomass_quadrat_details:observation_id:w&#45;&gt;observation_biomass_details:observation_id.type:e</title>
<path fill="none" stroke="black" d="M835.703,-615.775C798.041,-595.085 860.619,-479.939 801,-479.939"/>
<polygon fill="black" stroke="black" points="842.189,-617.21 849.222,-622.454 846.095,-618.075 850,-618.939 850,-618.939 850,-618.939 846.095,-618.075 850.778,-615.424 842.189,-617.21 842.189,-617.21"/>
<ellipse fill="none" stroke="black" cx="839.065" cy="-616.519" rx="3.2" ry="3.2"/>
</g>
<!-- observation_biomass_quadrat_details&#45;&gt;monitoring_plots -->
<g id="edge7" class="edge"><title>observation_biomass_quadrat_details:monitoring_plot_id:w&#45;&gt;monitoring_plots:id:e</title>
<path fill="none" stroke="black" d="M835.492,-597.074C695.602,-599.48 364.035,-632.302 267,-552.939 194.792,-493.882 303.284,-350.939 210,-350.939"/>
<polygon fill="black" stroke="black" points="842,-597.014 850.034,-600.539 846,-596.976 850,-596.939 850,-596.939 850,-596.939 846,-596.976 849.966,-593.339 842,-597.014 842,-597.014"/>
<ellipse fill="none" stroke="black" cx="838.8" cy="-597.043" rx="3.2" ry="3.2"/>
</g>
<!-- observation_biomass_quadrat_details&#45;&gt;observations -->
<g id="edge10" class="edge"><title>observation_biomass_quadrat_details:observation_id:w&#45;&gt;observations:id:e</title>
<path fill="none" stroke="black" d="M835.644,-621.382C827.775,-624.334 822.338,-629.128 810,-630.939 571.225,-665.984 499.577,-695.359 267,-630.939 247.02,-625.405 247.732,-606.939 227,-606.939"/>
<polygon fill="black" stroke="black" points="842.113,-620.281 850.604,-622.488 846.057,-619.61 850,-618.939 850,-618.939 850,-618.939 846.057,-619.61 849.396,-615.39 842.113,-620.281 842.113,-620.281"/>
<ellipse fill="none" stroke="black" cx="838.959" cy="-620.818" rx="3.2" ry="3.2"/>
</g>
<!-- observation_biomass_species -->
<g id="node8" class="node"><title>observation_biomass_species</title>
<g id="a_node8"><a xlink:href="../../tables/observation_biomass_species.html" xlink:title="observation_biomass_species" target="_top">
<polygon fill="#ffffff" stroke="none" points="875,-338.939 875,-506.939 1089,-506.939 1089,-338.939 875,-338.939"/>
<polygon fill="#f5f5f5" stroke="none" points="875,-484.939 875,-506.939 1089,-506.939 1089,-484.939 875,-484.939"/>
<polygon fill="none" stroke="black" points="875,-484.939 875,-506.939 1089,-506.939 1089,-484.939 875,-484.939"/>
<text text-anchor="start" x="880" y="-494.139" font-family="Helvetica,sans-Serif" font-weight="bold" font-size="11.00">observation_biomass_species</text>
<text text-anchor="start" x="1050" y="-493.139" font-family="Helvetica,sans-Serif" font-size="11.00">[table]</text>
<polygon fill="none" stroke="black" points="875,-462.939 875,-484.939 1089,-484.939 1089,-462.939 875,-462.939"/>
<image xlink:href="../../images/primaryKeys.png" width="11px" height="12px" preserveAspectRatio="xMinYMin meet" x="880" y="-479.939"/>
<text text-anchor="start" x="905" y="-471.139" font-family="Helvetica,sans-Serif" font-size="11.00">id</text>
<polygon fill="#ffffff" stroke="none" points="875,-440.939 875,-462.939 1089,-462.939 1089,-440.939 875,-440.939"/>
<polygon fill="none" stroke="black" points="875,-440.939 875,-462.939 1089,-462.939 1089,-440.939 875,-440.939"/>
<image xlink:href="../../images/foreignKeys.png" width="11px" height="12px" preserveAspectRatio="xMinYMin meet" x="880" y="-457.939"/>
<text text-anchor="start" x="905" y="-449.139" font-family="Helvetica,sans-Serif" font-size="11.00">observation_id</text>
<polygon fill="#ffffff" stroke="none" points="875,-418.939 875,-440.939 1089,-440.939 1089,-418.939 875,-418.939"/>
<polygon fill="none" stroke="black" points="875,-418.939 875,-440.939 1089,-440.939 1089,-418.939 875,-418.939"/>
<image xlink:href="../../images/foreignKeys.png" width="11px" height="12px" preserveAspectRatio="xMinYMin meet" x="880" y="-435.939"/>
<text text-anchor="start" x="905" y="-427.139" font-family="Helvetica,sans-Serif" font-size="11.00">monitoring_plot_id</text>
<polygon fill="#ffffff" stroke="none" points="875,-396.939 875,-418.939 1089,-418.939 1089,-396.939 875,-396.939"/>
<polygon fill="none" stroke="black" points="875,-396.939 875,-418.939 1089,-418.939 1089,-396.939 875,-396.939"/>
<image xlink:href="../../images/foreignKeys.png" width="11px" height="12px" preserveAspectRatio="xMinYMin meet" x="880" y="-413.939"/>
<text text-anchor="start" x="905" y="-405.139" font-family="Helvetica,sans-Serif" font-size="11.00">species_id</text>
<polygon fill="#ffffff" stroke="none" points="875,-374.939 875,-396.939 1089,-396.939 1089,-374.939 875,-374.939"/>
<polygon fill="none" stroke="black" points="875,-374.939 875,-396.939 1089,-396.939 1089,-374.939 875,-374.939"/>
<text text-anchor="start" x="905" y="-383.139" font-family="Helvetica,sans-Serif" font-size="11.00">scientific_name</text>
<polygon fill="none" stroke="black" points="875,-356.939 875,-374.939 1089,-374.939 1089,-356.939 875,-356.939"/>
<text text-anchor="start" x="878" y="-363.139" font-family="Helvetica,sans-Serif" font-size="11.00">...</text>
<polygon fill="#ffffff" stroke="none" points="875,-338.939 875,-356.939 961,-356.939 961,-338.939 875,-338.939"/>
<polygon fill="none" stroke="black" points="875,-338.939 875,-356.939 961,-356.939 961,-338.939 875,-338.939"/>
<text text-anchor="start" x="878" y="-345.139" font-family="Helvetica,sans-Serif" font-size="11.00">&lt; 5</text>
<polygon fill="#ffffff" stroke="none" points="961,-338.939 961,-356.939 1034,-356.939 1034,-338.939 961,-338.939"/>
<polygon fill="none" stroke="black" points="961,-338.939 961,-356.939 1034,-356.939 1034,-338.939 961,-338.939"/>
<text text-anchor="start" x="995" y="-345.139" font-family="Helvetica,sans-Serif" font-size="11.00">0 rows</text>
<polygon fill="#ffffff" stroke="none" points="1034,-338.939 1034,-356.939 1089,-356.939 1089,-338.939 1034,-338.939"/>
<polygon fill="none" stroke="black" points="1034,-338.939 1034,-356.939 1089,-356.939 1089,-338.939 1034,-338.939"/>
<text text-anchor="start" x="1069" y="-345.139" font-family="Helvetica,sans-Serif" font-size="11.00">6 &gt;</text>
</a>
</g>
</g>
<!-- observation_biomass_species&#45;&gt;observation_biomass_details -->
<g id="edge12" class="edge"><title>observation_biomass_species:monitoring_plot_id:w&#45;&gt;observation_biomass_details:monitoring_plot_id.type:e</title>
<path fill="none" stroke="black" d="M859.452,-431.864C837.328,-438.19 830.184,-457.939 801,-457.939"/>
<polygon fill="black" stroke="black" points="866.069,-430.988 874.472,-433.508 870.035,-430.464 874,-429.939 874,-429.939 874,-429.939 870.035,-430.464 873.528,-426.37 866.069,-430.988 866.069,-430.988"/>
<ellipse fill="none" stroke="black" cx="862.897" cy="-431.408" rx="3.2" ry="3.2"/>
</g>
<!-- observation_biomass_species&#45;&gt;observation_biomass_details -->
<g id="edge13" class="edge"><title>observation_biomass_species:observation_id:w&#45;&gt;observation_biomass_details:observation_id.type:e</title>
<path fill="none" stroke="black" d="M859.452,-453.864C837.328,-460.19 830.184,-479.939 801,-479.939"/>
<polygon fill="black" stroke="black" points="866.069,-452.988 874.472,-455.508 870.035,-452.464 874,-451.939 874,-451.939 874,-451.939 870.035,-452.464 873.528,-448.37 866.069,-452.988 866.069,-452.988"/>
<ellipse fill="none" stroke="black" cx="862.897" cy="-453.408" rx="3.2" ry="3.2"/>
</g>
<!-- observation_biomass_species&#45;&gt;monitoring_plots -->
<g id="edge11" class="edge"><title>observation_biomass_species:monitoring_plot_id:w&#45;&gt;monitoring_plots:id:e</title>
<path fill="none" stroke="black" d="M859.39,-428.888C768.504,-414.491 886.312,-255.776 810,-173.939 699.386,-55.3169 623.188,-86.3647 463,-60.9392 376.966,-47.2837 334.275,-5.60006 267,-60.9392 165.556,-144.385 341.355,-350.939 210,-350.939"/>
<polygon fill="black" stroke="black" points="866.021,-429.365 873.742,-433.53 870.01,-429.652 874,-429.939 874,-429.939 874,-429.939 870.01,-429.652 874.258,-426.348 866.021,-429.365 866.021,-429.365"/>
<ellipse fill="none" stroke="black" cx="862.829" cy="-429.135" rx="3.2" ry="3.2"/>
</g>
<!-- observation_biomass_species&#45;&gt;observations -->
<g id="edge14" class="edge"><title>observation_biomass_species:observation_id:w&#45;&gt;observations:id:e</title>
<path fill="none" stroke="black" d="M859.705,-454.48C834.316,-465.12 842.507,-506.41 810,-524.939 582.677,-654.519 488.662,-606.939 227,-606.939"/>
<polygon fill="black" stroke="black" points="866.123,-453.339 874.63,-455.484 870.062,-452.639 874,-451.939 874,-451.939 874,-451.939 870.062,-452.639 873.37,-448.395 866.123,-453.339 866.123,-453.339"/>
<ellipse fill="none" stroke="black" cx="862.973" cy="-453.899" rx="3.2" ry="3.2"/>
</g>
</g>
</svg>
