<?xml version="1.0" encoding="UTF-8" standalone="no"?>
<!DOCTYPE svg PUBLIC "-//W3C//DTD SVG 1.1//EN"
 "http://www.w3.org/Graphics/SVG/1.1/DTD/svg11.dtd">
<!-- Generated by graphviz version 2.38.0 (20140413.2041)
 -->
<!-- Title: oneDegreeRelationshipsDiagram Pages: 1 -->
<svg width="959pt" height="468pt"
 viewBox="0.00 0.00 959.00 467.68" xmlns="http://www.w3.org/2000/svg" xmlns:xlink="http://www.w3.org/1999/xlink">
<g id="graph0" class="graph" transform="scale(1 1) rotate(0) translate(4 463.677)">
<title>oneDegreeRelationshipsDiagram</title>
<polygon fill="#ffffff" stroke="none" points="-4,4 -4,-463.677 955,-463.677 955,4 -4,4"/>
<text text-anchor="middle" x="74.5" y="-7.2" font-family="Helvetica,sans-Serif" font-size="11.00">Generated by SchemaSpy</text>
<!-- observation_photos -->
<g id="node1" class="node"><title>observation_photos</title>
<g id="a_node1"><a xlink:href="../../tables/observation_photos.html" xlink:title="observation_photos" target="_top">
<polygon fill="#ffffff" stroke="none" points="783,-309.677 783,-455.677 943,-455.677 943,-309.677 783,-309.677"/>
<polygon fill="#f5f5f5" stroke="none" points="783,-433.677 783,-455.677 943,-455.677 943,-433.677 783,-433.677"/>
<polygon fill="none" stroke="black" points="783,-433.677 783,-455.677 943,-455.677 943,-433.677 783,-433.677"/>
<text text-anchor="start" x="788" y="-442.877" font-family="Helvetica,sans-Serif" font-weight="bold" font-size="11.00">observation_photos</text>
<text text-anchor="start" x="904" y="-441.877" font-family="Helvetica,sans-Serif" font-size="11.00">[table]</text>
<polygon fill="none" stroke="black" points="783,-411.677 783,-433.677 943,-433.677 943,-411.677 783,-411.677"/>
<image xlink:href="../../images/primaryKeys.png" width="11px" height="12px" preserveAspectRatio="xMinYMin meet" x="788" y="-428.677"/>
<text text-anchor="start" x="814" y="-419.877" font-family="Helvetica,sans-Serif" font-size="11.00">file_id</text>
<polygon fill="none" stroke="black" points="783,-389.677 783,-411.677 943,-411.677 943,-389.677 783,-389.677"/>
<image xlink:href="../../images/foreignKeys.png" width="11px" height="12px" preserveAspectRatio="xMinYMin meet" x="788" y="-406.677"/>
<text text-anchor="start" x="814" y="-397.877" font-family="Helvetica,sans-Serif" font-size="11.00">observation_id</text>
<polygon fill="#ffffff" stroke="none" points="783,-367.677 783,-389.677 943,-389.677 943,-367.677 783,-367.677"/>
<polygon fill="none" stroke="black" points="783,-367.677 783,-389.677 943,-389.677 943,-367.677 783,-367.677"/>
<image xlink:href="../../images/foreignKeys.png" width="11px" height="12px" preserveAspectRatio="xMinYMin meet" x="788" y="-384.677"/>
<text text-anchor="start" x="814" y="-375.877" font-family="Helvetica,sans-Serif" font-size="11.00">monitoring_plot_id</text>
<polygon fill="none" stroke="black" points="783,-345.677 783,-367.677 943,-367.677 943,-345.677 783,-345.677"/>
<image xlink:href="../../images/foreignKeys.png" width="11px" height="12px" preserveAspectRatio="xMinYMin meet" x="788" y="-362.677"/>
<text text-anchor="start" x="814" y="-353.877" font-family="Helvetica,sans-Serif" font-size="11.00">position_id</text>
<polygon fill="none" stroke="black" points="783,-327.677 783,-345.677 943,-345.677 943,-327.677 783,-327.677"/>
<text text-anchor="start" x="786" y="-333.877" font-family="Helvetica,sans-Serif" font-size="11.00">...</text>
<polygon fill="#ffffff" stroke="none" points="783,-309.677 783,-327.677 847,-327.677 847,-309.677 783,-309.677"/>
<polygon fill="none" stroke="black" points="783,-309.677 783,-327.677 847,-327.677 847,-309.677 783,-309.677"/>
<text text-anchor="start" x="786" y="-315.877" font-family="Helvetica,sans-Serif" font-size="11.00">&lt; 6</text>
<polygon fill="#ffffff" stroke="none" points="847,-309.677 847,-327.677 909,-327.677 909,-309.677 847,-309.677"/>
<polygon fill="none" stroke="black" points="847,-309.677 847,-327.677 909,-327.677 909,-309.677 847,-309.677"/>
<text text-anchor="start" x="870" y="-315.877" font-family="Helvetica,sans-Serif" font-size="11.00">0 rows</text>
<polygon fill="#ffffff" stroke="none" points="909,-309.677 909,-327.677 943,-327.677 943,-309.677 909,-309.677"/>
<polygon fill="none" stroke="black" points="909,-309.677 909,-327.677 943,-327.677 943,-309.677 909,-309.677"/>
<text text-anchor="start" x="933" y="-315.877" font-family="Helvetica,sans-Serif" font-size="11.00"> &#160;</text>
</a>
</g>
</g>
<!-- observation_plots -->
<g id="node2" class="node"><title>observation_plots</title>
<g id="a_node2"><a xlink:href="../../tables/observation_plots.html" xlink:title="observation_plots" target="_top">
<polygon fill="#ffffff" stroke="none" points="554.5,-215.677 554.5,-405.677 704.5,-405.677 704.5,-215.677 554.5,-215.677"/>
<polygon fill="#f5f5f5" stroke="none" points="554.5,-383.677 554.5,-405.677 704.5,-405.677 704.5,-383.677 554.5,-383.677"/>
<polygon fill="none" stroke="black" points="554.5,-383.677 554.5,-405.677 704.5,-405.677 704.5,-383.677 554.5,-383.677"/>
<text text-anchor="start" x="559.5" y="-392.877" font-family="Helvetica,sans-Serif" font-weight="bold" font-size="11.00">observation_plots</text>
<text text-anchor="start" x="665.5" y="-391.877" font-family="Helvetica,sans-Serif" font-size="11.00">[table]</text>
<polygon fill="none" stroke="black" points="554.5,-361.677 554.5,-383.677 704.5,-383.677 704.5,-361.677 554.5,-361.677"/>
<image xlink:href="../../images/primaryKeys.png" width="11px" height="12px" preserveAspectRatio="xMinYMin meet" x="559.5" y="-378.677"/>
<text text-anchor="start" x="583.5" y="-369.877" font-family="Helvetica,sans-Serif" font-size="11.00">observation_id</text>
<polygon fill="none" stroke="black" points="554.5,-339.677 554.5,-361.677 704.5,-361.677 704.5,-339.677 554.5,-339.677"/>
<image xlink:href="../../images/primaryKeys.png" width="11px" height="12px" preserveAspectRatio="xMinYMin meet" x="559.5" y="-356.677"/>
<text text-anchor="start" x="583.5" y="-347.877" font-family="Helvetica,sans-Serif" font-size="11.00">monitoring_plot_id</text>
<polygon fill="none" stroke="black" points="554.5,-317.677 554.5,-339.677 704.5,-339.677 704.5,-317.677 554.5,-317.677"/>
<image xlink:href="../../images/foreignKeys.png" width="11px" height="12px" preserveAspectRatio="xMinYMin meet" x="559.5" y="-334.677"/>
<text text-anchor="start" x="583.5" y="-325.877" font-family="Helvetica,sans-Serif" font-size="11.00">claimed_by</text>
<polygon fill="none" stroke="black" points="554.5,-295.677 554.5,-317.677 704.5,-317.677 704.5,-295.677 554.5,-295.677"/>
<image xlink:href="../../images/foreignKeys.png" width="11px" height="12px" preserveAspectRatio="xMinYMin meet" x="559.5" y="-312.677"/>
<text text-anchor="start" x="583.5" y="-303.877" font-family="Helvetica,sans-Serif" font-size="11.00">completed_by</text>
<polygon fill="none" stroke="black" points="554.5,-273.677 554.5,-295.677 704.5,-295.677 704.5,-273.677 554.5,-273.677"/>
<image xlink:href="../../images/foreignKeys.png" width="11px" height="12px" preserveAspectRatio="xMinYMin meet" x="559.5" y="-290.677"/>
<text text-anchor="start" x="583.5" y="-281.877" font-family="Helvetica,sans-Serif" font-size="11.00">created_by</text>
<polygon fill="none" stroke="black" points="554.5,-251.677 554.5,-273.677 704.5,-273.677 704.5,-251.677 554.5,-251.677"/>
<image xlink:href="../../images/foreignKeys.png" width="11px" height="12px" preserveAspectRatio="xMinYMin meet" x="559.5" y="-268.677"/>
<text text-anchor="start" x="583.5" y="-259.877" font-family="Helvetica,sans-Serif" font-size="11.00">modified_by</text>
<polygon fill="none" stroke="black" points="554.5,-233.677 554.5,-251.677 704.5,-251.677 704.5,-233.677 554.5,-233.677"/>
<text text-anchor="start" x="557.5" y="-239.877" font-family="Helvetica,sans-Serif" font-size="11.00">...</text>
<polygon fill="#ffffff" stroke="none" points="554.5,-215.677 554.5,-233.677 608.5,-233.677 608.5,-215.677 554.5,-215.677"/>
<polygon fill="none" stroke="black" points="554.5,-215.677 554.5,-233.677 608.5,-233.677 608.5,-215.677 554.5,-215.677"/>
<text text-anchor="start" x="557.5" y="-221.877" font-family="Helvetica,sans-Serif" font-size="11.00">&lt; 6</text>
<polygon fill="#ffffff" stroke="none" points="608.5,-215.677 608.5,-233.677 665.5,-233.677 665.5,-215.677 608.5,-215.677"/>
<polygon fill="none" stroke="black" points="608.5,-215.677 608.5,-233.677 665.5,-233.677 665.5,-215.677 608.5,-215.677"/>
<text text-anchor="start" x="626.5" y="-221.877" font-family="Helvetica,sans-Serif" font-size="11.00">0 rows</text>
<polygon fill="#ffffff" stroke="none" points="665.5,-215.677 665.5,-233.677 704.5,-233.677 704.5,-215.677 665.5,-215.677"/>
<polygon fill="none" stroke="black" points="665.5,-215.677 665.5,-233.677 704.5,-233.677 704.5,-215.677 665.5,-215.677"/>
<text text-anchor="start" x="684.5" y="-221.877" font-family="Helvetica,sans-Serif" font-size="11.00">4 &gt;</text>
</a>
</g>
</g>
<!-- observation_photos&#45;&gt;observation_plots -->
<g id="edge1" class="edge"><title>observation_photos:monitoring_plot_id:w&#45;&gt;observation_plots:monitoring_plot_id:e</title>
<path fill="none" stroke="black" d="M767.462,-376.926C743.803,-370.796 736.19,-350.677 705.5,-350.677"/>
<polygon fill="black" stroke="black" points="774.057,-377.72 781.569,-382.251 778.029,-378.199 782,-378.677 782,-378.677 782,-378.677 778.029,-378.199 782.431,-375.103 774.057,-377.72 774.057,-377.72"/>
<ellipse fill="none" stroke="black" cx="770.88" cy="-377.337" rx="3.2" ry="3.2"/>
</g>
<!-- observation_photos&#45;&gt;observation_plots -->
<g id="edge2" class="edge"><title>observation_photos:observation_id:w&#45;&gt;observation_plots:observation_id:e</title>
<path fill="none" stroke="black" d="M767.462,-398.926C743.803,-392.796 736.19,-372.677 705.5,-372.677"/>
<polygon fill="black" stroke="black" points="774.057,-399.72 781.569,-404.251 778.029,-400.199 782,-400.677 782,-400.677 782,-400.677 778.029,-400.199 782.431,-397.103 774.057,-399.72 774.057,-399.72"/>
<ellipse fill="none" stroke="black" cx="770.88" cy="-399.337" rx="3.2" ry="3.2"/>
</g>
<!-- observations -->
<g id="node3" class="node"><title>observations</title>
<g id="a_node3"><a xlink:href="../../tables/observations.html" xlink:title="observations" target="_top">
<polygon fill="#ffffff" stroke="none" points="253,-125.677 253,-301.677 476,-301.677 476,-125.677 253,-125.677"/>
<polygon fill="#f5f5f5" stroke="none" points="255.5,-277.677 255.5,-299.677 474.5,-299.677 474.5,-277.677 255.5,-277.677"/>
<polygon fill="none" stroke="black" points="255.5,-277.677 255.5,-299.677 474.5,-299.677 474.5,-277.677 255.5,-277.677"/>
<text text-anchor="start" x="260.5" y="-286.877" font-family="Helvetica,sans-Serif" font-weight="bold" font-size="11.00">observations</text>
<text text-anchor="start" x="435.5" y="-285.877" font-family="Helvetica,sans-Serif" font-size="11.00">[table]</text>
<polygon fill="none" stroke="black" points="255.5,-255.677 255.5,-277.677 372.5,-277.677 372.5,-255.677 255.5,-255.677"/>
<image xlink:href="../../images/primaryKeys.png" width="11px" height="12px" preserveAspectRatio="xMinYMin meet" x="260.5" y="-272.677"/>
<text text-anchor="start" x="275.5" y="-263.877" font-family="Helvetica,sans-Serif" font-size="11.00">id</text>
<polygon fill="none" stroke="black" points="372.5,-255.677 372.5,-277.677 474.5,-277.677 474.5,-255.677 372.5,-255.677"/>
<text text-anchor="start" x="375.5" y="-263.877" font-family="Helvetica,sans-Serif" font-size="11.00">int8[19]</text>
<polygon fill="#ffffff" stroke="none" points="255.5,-233.677 255.5,-255.677 372.5,-255.677 372.5,-233.677 255.5,-233.677"/>
<polygon fill="none" stroke="black" points="255.5,-233.677 255.5,-255.677 372.5,-255.677 372.5,-233.677 255.5,-233.677"/>
<image xlink:href="../../images/foreignKeys.png" width="11px" height="12px" preserveAspectRatio="xMinYMin meet" x="260.5" y="-250.677"/>
<text text-anchor="start" x="275.5" y="-241.877" font-family="Helvetica,sans-Serif" font-size="11.00">planting_site_id</text>
<polygon fill="none" stroke="black" points="372.5,-233.677 372.5,-255.677 474.5,-255.677 474.5,-233.677 372.5,-233.677"/>
<text text-anchor="start" x="375.5" y="-241.877" font-family="Helvetica,sans-Serif" font-size="11.00">int8[19]</text>
<polygon fill="none" stroke="black" points="255.5,-211.677 255.5,-233.677 372.5,-233.677 372.5,-211.677 255.5,-211.677"/>
<text text-anchor="start" x="275.5" y="-219.877" font-family="Helvetica,sans-Serif" font-size="11.00">created_time</text>
<polygon fill="none" stroke="black" points="372.5,-211.677 372.5,-233.677 474.5,-233.677 474.5,-211.677 372.5,-211.677"/>
<text text-anchor="start" x="375.5" y="-219.877" font-family="Helvetica,sans-Serif" font-size="11.00">timestamptz[35,6]</text>
<polygon fill="none" stroke="black" points="255.5,-189.677 255.5,-211.677 372.5,-211.677 372.5,-189.677 255.5,-189.677"/>
<text text-anchor="start" x="275.5" y="-197.877" font-family="Helvetica,sans-Serif" font-size="11.00">start_date</text>
<polygon fill="none" stroke="black" points="372.5,-189.677 372.5,-211.677 474.5,-211.677 474.5,-189.677 372.5,-189.677"/>
<text text-anchor="start" x="375.5" y="-197.877" font-family="Helvetica,sans-Serif" font-size="11.00">date[13]</text>
<polygon fill="none" stroke="black" points="255.5,-167.677 255.5,-189.677 372.5,-189.677 372.5,-167.677 255.5,-167.677"/>
<text text-anchor="start" x="275.5" y="-175.877" font-family="Helvetica,sans-Serif" font-size="11.00">end_date</text>
<polygon fill="none" stroke="black" points="372.5,-167.677 372.5,-189.677 474.5,-189.677 474.5,-167.677 372.5,-167.677"/>
<text text-anchor="start" x="375.5" y="-175.877" font-family="Helvetica,sans-Serif" font-size="11.00">date[13]</text>
<polygon fill="none" stroke="black" points="255.5,-145.677 255.5,-167.677 372.5,-167.677 372.5,-145.677 255.5,-145.677"/>
<text text-anchor="start" x="275.5" y="-153.877" font-family="Helvetica,sans-Serif" font-size="11.00">completed_time</text>
<polygon fill="none" stroke="black" points="372.5,-145.677 372.5,-167.677 474.5,-167.677 474.5,-145.677 372.5,-145.677"/>
<text text-anchor="start" x="375.5" y="-153.877" font-family="Helvetica,sans-Serif" font-size="11.00">timestamptz[35,6]</text>
<polygon fill="#ffffff" stroke="none" points="255.5,-127.677 255.5,-145.677 304.5,-145.677 304.5,-127.677 255.5,-127.677"/>
<polygon fill="none" stroke="black" points="255.5,-127.677 255.5,-145.677 304.5,-145.677 304.5,-127.677 255.5,-127.677"/>
<text text-anchor="start" x="258.5" y="-133.877" font-family="Helvetica,sans-Serif" font-size="11.00">&lt; 1</text>
<polygon fill="#ffffff" stroke="none" points="304.5,-127.677 304.5,-145.677 372.5,-145.677 372.5,-127.677 304.5,-127.677"/>
<polygon fill="none" stroke="black" points="304.5,-127.677 304.5,-145.677 372.5,-145.677 372.5,-127.677 304.5,-127.677"/>
<text text-anchor="start" x="333.5" y="-133.877" font-family="Helvetica,sans-Serif" font-size="11.00">0 rows</text>
<polygon fill="#ffffff" stroke="none" points="372.5,-127.677 372.5,-145.677 474.5,-145.677 474.5,-127.677 372.5,-127.677"/>
<polygon fill="none" stroke="black" points="372.5,-127.677 372.5,-145.677 474.5,-145.677 474.5,-127.677 372.5,-127.677"/>
<text text-anchor="start" x="454.5" y="-133.877" font-family="Helvetica,sans-Serif" font-size="11.00">4 &gt;</text>
<polygon fill="none" stroke="black" stroke-width="2" points="254,-126.677 254,-300.677 475,-300.677 475,-126.677 254,-126.677"/>
</a>
</g>
</g>
<!-- observation_photos&#45;&gt;observations -->
<g id="edge3" class="edge"><title>observation_photos:observation_id:w&#45;&gt;observations:id.type:e</title>
<path fill="none" stroke="black" d="M767.751,-403.793C759.82,-407.709 754.779,-414.216 742,-416.677 643.804,-435.588 596.582,-477.231 517,-416.677 461.952,-374.791 544.671,-266.677 475.5,-266.677"/>
<polygon fill="black" stroke="black" points="774.185,-402.386 782.769,-404.194 778.092,-401.531 782,-400.677 782,-400.677 782,-400.677 778.092,-401.531 781.231,-397.16 774.185,-402.386 774.185,-402.386"/>
<ellipse fill="none" stroke="black" cx="771.058" cy="-403.069" rx="3.2" ry="3.2"/>
</g>
<!-- observation_plots&#45;&gt;observations -->
<g id="edge5" class="edge"><title>observation_plots:observation_id:w&#45;&gt;observations:id.type:e</title>
<path fill="none" stroke="black" d="M538.971,-369.842C501.693,-352.985 528.279,-266.677 475.5,-266.677"/>
<polygon fill="black" stroke="black" points="545.648,-371.145 552.81,-376.21 549.574,-371.911 553.5,-372.677 553.5,-372.677 553.5,-372.677 549.574,-371.911 554.19,-369.144 545.648,-371.145 545.648,-371.145"/>
<ellipse fill="none" stroke="black" cx="542.507" cy="-370.532" rx="3.2" ry="3.2"/>
</g>
<!-- planting_sites -->
<g id="node5" class="node"><title>planting_sites</title>
<g id="a_node5"><a xlink:href="../../tables/planting_sites.html" xlink:title="planting_sites" target="_top">
<polygon fill="#ffffff" stroke="none" points="8,-87.677 8,-277.677 204,-277.677 204,-87.677 8,-87.677"/>
<polygon fill="#f5f5f5" stroke="none" points="8,-255.677 8,-277.677 204,-277.677 204,-255.677 8,-255.677"/>
<polygon fill="none" stroke="black" points="8,-255.677 8,-277.677 204,-277.677 204,-255.677 8,-255.677"/>
<text text-anchor="start" x="13" y="-264.877" font-family="Helvetica,sans-Serif" font-weight="bold" font-size="11.00">planting_sites</text>
<text text-anchor="start" x="165" y="-263.877" font-family="Helvetica,sans-Serif" font-size="11.00">[table]</text>
<polygon fill="none" stroke="black" points="8,-233.677 8,-255.677 204,-255.677 204,-233.677 8,-233.677"/>
<image xlink:href="../../images/primaryKeys.png" width="11px" height="12px" preserveAspectRatio="xMinYMin meet" x="13" y="-250.677"/>
<text text-anchor="start" x="28" y="-241.877" font-family="Helvetica,sans-Serif" font-size="11.00">id</text>
<polygon fill="#ffffff" stroke="none" points="8,-211.677 8,-233.677 204,-233.677 204,-211.677 8,-211.677"/>
<polygon fill="none" stroke="black" points="8,-211.677 8,-233.677 204,-233.677 204,-211.677 8,-211.677"/>
<image xlink:href="../../images/foreignKeys.png" width="11px" height="12px" preserveAspectRatio="xMinYMin meet" x="13" y="-228.677"/>
<text text-anchor="start" x="28" y="-219.877" font-family="Helvetica,sans-Serif" font-size="11.00">organization_id</text>
<polygon fill="#ffffff" stroke="none" points="8,-189.677 8,-211.677 204,-211.677 204,-189.677 8,-189.677"/>
<polygon fill="none" stroke="black" points="8,-189.677 8,-211.677 204,-211.677 204,-189.677 8,-189.677"/>
<text text-anchor="start" x="28" y="-197.877" font-family="Helvetica,sans-Serif" font-size="11.00">name</text>
<polygon fill="none" stroke="black" points="8,-167.677 8,-189.677 204,-189.677 204,-167.677 8,-167.677"/>
<image xlink:href="../../images/foreignKeys.png" width="11px" height="12px" preserveAspectRatio="xMinYMin meet" x="13" y="-184.677"/>
<text text-anchor="start" x="28" y="-175.877" font-family="Helvetica,sans-Serif" font-size="11.00">created_by</text>
<polygon fill="none" stroke="black" points="8,-145.677 8,-167.677 204,-167.677 204,-145.677 8,-145.677"/>
<image xlink:href="../../images/foreignKeys.png" width="11px" height="12px" preserveAspectRatio="xMinYMin meet" x="13" y="-162.677"/>
<text text-anchor="start" x="28" y="-153.877" font-family="Helvetica,sans-Serif" font-size="11.00">modified_by</text>
<polygon fill="none" stroke="black" points="8,-123.677 8,-145.677 204,-145.677 204,-123.677 8,-123.677"/>
<image xlink:href="../../images/foreignKeys.png" width="11px" height="12px" preserveAspectRatio="xMinYMin meet" x="13" y="-140.677"/>
<text text-anchor="start" x="28" y="-131.877" font-family="Helvetica,sans-Serif" font-size="11.00">time_zone</text>
<polygon fill="none" stroke="black" points="8,-105.677 8,-123.677 204,-123.677 204,-105.677 8,-105.677"/>
<text text-anchor="start" x="11" y="-111.877" font-family="Helvetica,sans-Serif" font-size="11.00">...</text>
<polygon fill="#ffffff" stroke="none" points="8,-87.677 8,-105.677 85,-105.677 85,-87.677 8,-87.677"/>
<polygon fill="none" stroke="black" points="8,-87.677 8,-105.677 85,-105.677 85,-87.677 8,-87.677"/>
<text text-anchor="start" x="11" y="-93.877" font-family="Helvetica,sans-Serif" font-size="11.00">&lt; 4</text>
<polygon fill="#ffffff" stroke="none" points="85,-87.677 85,-105.677 154,-105.677 154,-87.677 85,-87.677"/>
<polygon fill="none" stroke="black" points="85,-87.677 85,-105.677 154,-105.677 154,-87.677 85,-87.677"/>
<text text-anchor="start" x="115" y="-93.877" font-family="Helvetica,sans-Serif" font-size="11.00">0 rows</text>
<polygon fill="#ffffff" stroke="none" points="154,-87.677 154,-105.677 204,-105.677 204,-87.677 154,-87.677"/>
<polygon fill="none" stroke="black" points="154,-87.677 154,-105.677 204,-105.677 204,-87.677 154,-87.677"/>
<text text-anchor="start" x="184" y="-93.877" font-family="Helvetica,sans-Serif" font-size="11.00">5 &gt;</text>
</a>
</g>
</g>
<!-- observations&#45;&gt;planting_sites -->
<g id="edge6" class="edge"><title>observations:planting_site_id:w&#45;&gt;planting_sites:id:e</title>
<path fill="none" stroke="black" d="M239.843,-244.677C228.414,-244.677 221.156,-244.677 205,-244.677"/>
<polygon fill="black" stroke="black" points="246.5,-244.677 254.5,-248.277 250.5,-244.677 254.5,-244.677 254.5,-244.677 254.5,-244.677 250.5,-244.677 254.5,-241.077 246.5,-244.677 246.5,-244.677"/>
<ellipse fill="none" stroke="black" cx="243.3" cy="-244.677" rx="3.2" ry="3.2"/>
</g>
<!-- observation_plot_conditions -->
<g id="node4" class="node"><title>observation_plot_conditions</title>
<g id="a_node4"><a xlink:href="../../tables/observation_plot_conditions.html" xlink:title="observation_plot_conditions" target="_top">
<polygon fill="#ffffff" stroke="none" points="525,-88.677 525,-194.677 734,-194.677 734,-88.677 525,-88.677"/>
<polygon fill="#f5f5f5" stroke="none" points="525.5,-172.677 525.5,-194.677 734.5,-194.677 734.5,-172.677 525.5,-172.677"/>
<polygon fill="none" stroke="black" points="525.5,-172.677 525.5,-194.677 734.5,-194.677 734.5,-172.677 525.5,-172.677"/>
<text text-anchor="start" x="530.5" y="-181.877" font-family="Helvetica,sans-Serif" font-weight="bold" font-size="11.00">observation_plot_conditions</text>
<text text-anchor="start" x="695.5" y="-180.877" font-family="Helvetica,sans-Serif" font-size="11.00">[table]</text>
<polygon fill="none" stroke="black" points="525.5,-150.677 525.5,-172.677 734.5,-172.677 734.5,-150.677 525.5,-150.677"/>
<image xlink:href="../../images/primaryKeys.png" width="11px" height="12px" preserveAspectRatio="xMinYMin meet" x="530.5" y="-167.677"/>
<text text-anchor="start" x="555.5" y="-158.877" font-family="Helvetica,sans-Serif" font-size="11.00">observation_id</text>
<polygon fill="none" stroke="black" points="525.5,-128.677 525.5,-150.677 734.5,-150.677 734.5,-128.677 525.5,-128.677"/>
<image xlink:href="../../images/primaryKeys.png" width="11px" height="12px" preserveAspectRatio="xMinYMin meet" x="530.5" y="-145.677"/>
<text text-anchor="start" x="555.5" y="-136.877" font-family="Helvetica,sans-Serif" font-size="11.00">monitoring_plot_id</text>
<polygon fill="none" stroke="black" points="525.5,-106.677 525.5,-128.677 734.5,-128.677 734.5,-106.677 525.5,-106.677"/>
<image xlink:href="../../images/primaryKeys.png" width="11px" height="12px" preserveAspectRatio="xMinYMin meet" x="530.5" y="-123.677"/>
<text text-anchor="start" x="555.5" y="-114.877" font-family="Helvetica,sans-Serif" font-size="11.00">condition_id</text>
<polygon fill="#ffffff" stroke="none" points="525.5,-88.677 525.5,-106.677 613.5,-106.677 613.5,-88.677 525.5,-88.677"/>
<polygon fill="none" stroke="black" points="525.5,-88.677 525.5,-106.677 613.5,-106.677 613.5,-88.677 525.5,-88.677"/>
<text text-anchor="start" x="528.5" y="-94.877" font-family="Helvetica,sans-Serif" font-size="11.00">&lt; 3</text>
<polygon fill="#ffffff" stroke="none" points="613.5,-88.677 613.5,-106.677 688.5,-106.677 688.5,-88.677 613.5,-88.677"/>
<polygon fill="none" stroke="black" points="613.5,-88.677 613.5,-106.677 688.5,-106.677 688.5,-88.677 613.5,-88.677"/>
<text text-anchor="start" x="649.5" y="-94.877" font-family="Helvetica,sans-Serif" font-size="11.00">0 rows</text>
<polygon fill="#ffffff" stroke="none" points="688.5,-88.677 688.5,-106.677 734.5,-106.677 734.5,-88.677 688.5,-88.677"/>
<polygon fill="none" stroke="black" points="688.5,-88.677 688.5,-106.677 734.5,-106.677 734.5,-88.677 688.5,-88.677"/>
<text text-anchor="start" x="724.5" y="-94.877" font-family="Helvetica,sans-Serif" font-size="11.00"> &#160;</text>
</a>
</g>
</g>
<!-- observation_plot_conditions&#45;&gt;observations -->
<g id="edge4" class="edge"><title>observation_plot_conditions:observation_id:w&#45;&gt;observations:id.type:e</title>
<path fill="none" stroke="black" d="M510.402,-165.665C484.209,-184.844 520.963,-266.677 475.5,-266.677"/>
<polygon fill="black" stroke="black" points="516.802,-163.855 525.48,-165.141 520.651,-162.766 524.5,-161.677 524.5,-161.677 524.5,-161.677 520.651,-162.766 523.52,-158.213 516.802,-163.855 516.802,-163.855"/>
<ellipse fill="none" stroke="black" cx="513.723" cy="-164.726" rx="3.20001" ry="3.20001"/>
</g>
<!-- recorded_plants -->
<g id="node6" class="node"><title>recorded_plants</title>
<g id="a_node6"><a xlink:href="../../tables/recorded_plants.html" xlink:title="recorded_plants" target="_top">
<polygon fill="#ffffff" stroke="none" points="792.5,-98.677 792.5,-288.677 933.5,-288.677 933.5,-98.677 792.5,-98.677"/>
<polygon fill="#f5f5f5" stroke="none" points="793,-266.677 793,-288.677 934,-288.677 934,-266.677 793,-266.677"/>
<polygon fill="none" stroke="black" points="793,-266.677 793,-288.677 934,-288.677 934,-266.677 793,-266.677"/>
<text text-anchor="start" x="798" y="-275.877" font-family="Helvetica,sans-Serif" font-weight="bold" font-size="11.00">recorded_plants</text>
<text text-anchor="start" x="895" y="-274.877" font-family="Helvetica,sans-Serif" font-size="11.00">[table]</text>
<polygon fill="none" stroke="black" points="793,-244.677 793,-266.677 934,-266.677 934,-244.677 793,-244.677"/>
<image xlink:href="../../images/primaryKeys.png" width="11px" height="12px" preserveAspectRatio="xMinYMin meet" x="798" y="-261.677"/>
<text text-anchor="start" x="817" y="-252.877" font-family="Helvetica,sans-Serif" font-size="11.00">id</text>
<polygon fill="#ffffff" stroke="none" points="793,-222.677 793,-244.677 934,-244.677 934,-222.677 793,-222.677"/>
<polygon fill="none" stroke="black" points="793,-222.677 793,-244.677 934,-244.677 934,-222.677 793,-222.677"/>
<image xlink:href="../../images/foreignKeys.png" width="11px" height="12px" preserveAspectRatio="xMinYMin meet" x="798" y="-239.677"/>
<text text-anchor="start" x="817" y="-230.877" font-family="Helvetica,sans-Serif" font-size="11.00">observation_id</text>
<polygon fill="#ffffff" stroke="none" points="793,-200.677 793,-222.677 934,-222.677 934,-200.677 793,-200.677"/>
<polygon fill="none" stroke="black" points="793,-200.677 793,-222.677 934,-222.677 934,-200.677 793,-200.677"/>
<image xlink:href="../../images/foreignKeys.png" width="11px" height="12px" preserveAspectRatio="xMinYMin meet" x="798" y="-217.677"/>
<text text-anchor="start" x="817" y="-208.877" font-family="Helvetica,sans-Serif" font-size="11.00">monitoring_plot_id</text>
<polygon fill="none" stroke="black" points="793,-178.677 793,-200.677 934,-200.677 934,-178.677 793,-178.677"/>
<image xlink:href="../../images/foreignKeys.png" width="11px" height="12px" preserveAspectRatio="xMinYMin meet" x="798" y="-195.677"/>
<text text-anchor="start" x="817" y="-186.877" font-family="Helvetica,sans-Serif" font-size="11.00">certainty_id</text>
<polygon fill="#ffffff" stroke="none" points="793,-156.677 793,-178.677 934,-178.677 934,-156.677 793,-156.677"/>
<polygon fill="none" stroke="black" points="793,-156.677 793,-178.677 934,-178.677 934,-156.677 793,-156.677"/>
<image xlink:href="../../images/foreignKeys.png" width="11px" height="12px" preserveAspectRatio="xMinYMin meet" x="798" y="-173.677"/>
<text text-anchor="start" x="817" y="-164.877" font-family="Helvetica,sans-Serif" font-size="11.00">species_id</text>
<polygon fill="none" stroke="black" points="793,-134.677 793,-156.677 934,-156.677 934,-134.677 793,-134.677"/>
<image xlink:href="../../images/foreignKeys.png" width="11px" height="12px" preserveAspectRatio="xMinYMin meet" x="798" y="-151.677"/>
<text text-anchor="start" x="817" y="-142.877" font-family="Helvetica,sans-Serif" font-size="11.00">status_id</text>
<polygon fill="none" stroke="black" points="793,-116.677 793,-134.677 934,-134.677 934,-116.677 793,-116.677"/>
<text text-anchor="start" x="796" y="-122.877" font-family="Helvetica,sans-Serif" font-size="11.00">...</text>
<polygon fill="#ffffff" stroke="none" points="793,-98.677 793,-116.677 847,-116.677 847,-98.677 793,-98.677"/>
<polygon fill="none" stroke="black" points="793,-98.677 793,-116.677 847,-116.677 847,-98.677 793,-98.677"/>
<text text-anchor="start" x="796" y="-104.877" font-family="Helvetica,sans-Serif" font-size="11.00">&lt; 7</text>
<polygon fill="#ffffff" stroke="none" points="847,-98.677 847,-116.677 905,-116.677 905,-98.677 847,-98.677"/>
<polygon fill="none" stroke="black" points="847,-98.677 847,-116.677 905,-116.677 905,-98.677 847,-98.677"/>
<text text-anchor="start" x="866" y="-104.877" font-family="Helvetica,sans-Serif" font-size="11.00">0 rows</text>
<polygon fill="#ffffff" stroke="none" points="905,-98.677 905,-116.677 934,-116.677 934,-98.677 905,-98.677"/>
<polygon fill="none" stroke="black" points="905,-98.677 905,-116.677 934,-116.677 934,-98.677 905,-98.677"/>
<text text-anchor="start" x="924" y="-104.877" font-family="Helvetica,sans-Serif" font-size="11.00"> &#160;</text>
</a>
</g>
</g>
<!-- recorded_plants&#45;&gt;observation_plots -->
<g id="edge7" class="edge"><title>recorded_plants:monitoring_plot_id:w&#45;&gt;observation_plots:monitoring_plot_id:e</title>
<path fill="none" stroke="black" d="M777.55,-213.974C727.465,-232.046 772.721,-350.677 705.5,-350.677"/>
<polygon fill="black" stroke="black" points="784.099,-212.933 792.565,-215.232 788.05,-212.305 792,-211.677 792,-211.677 792,-211.677 788.05,-212.305 791.435,-208.122 784.099,-212.933 784.099,-212.933"/>
<ellipse fill="none" stroke="black" cx="780.939" cy="-213.435" rx="3.2" ry="3.2"/>
</g>
<!-- recorded_plants&#45;&gt;observation_plots -->
<g id="edge8" class="edge"><title>recorded_plants:observation_id:w&#45;&gt;observation_plots:observation_id:e</title>
<path fill="none" stroke="black" d="M777.55,-235.974C727.465,-254.046 772.721,-372.677 705.5,-372.677"/>
<polygon fill="black" stroke="black" points="784.099,-234.933 792.565,-237.232 788.05,-234.305 792,-233.677 792,-233.677 792,-233.677 788.05,-234.305 791.435,-230.122 784.099,-234.933 784.099,-234.933"/>
<ellipse fill="none" stroke="black" cx="780.939" cy="-235.435" rx="3.2" ry="3.2"/>
</g>
<!-- recorded_plants&#45;&gt;observations -->
<g id="edge9" class="edge"><title>recorded_plants:observation_id:w&#45;&gt;observations:id.type:e</title>
<path fill="none" stroke="black" d="M777.702,-231.706C731.405,-216.542 795.944,-117.957 742,-78.677 661.161,-19.8129 594.96,-16.0494 517,-78.677 450.292,-132.266 561.067,-266.677 475.5,-266.677"/>
<polygon fill="black" stroke="black" points="784.075,-232.584 791.508,-237.243 788.037,-233.131 792,-233.677 792,-233.677 792,-233.677 788.037,-233.131 792.492,-230.111 784.075,-232.584 784.075,-232.584"/>
<ellipse fill="none" stroke="black" cx="780.905" cy="-232.147" rx="3.2" ry="3.2"/>
</g>
</g>
</svg>
