<?xml version="1.0" encoding="UTF-8" standalone="no"?>
<!DOCTYPE svg PUBLIC "-//W3C//DTD SVG 1.1//EN"
 "http://www.w3.org/Graphics/SVG/1.1/DTD/svg11.dtd">
<!-- Generated by graphviz version 2.38.0 (20140413.2041)
 -->
<!-- Title: oneDegreeRelationshipsDiagram Pages: 1 -->
<svg width="1220pt" height="987pt"
 viewBox="0.00 0.00 1220.00 987.00" xmlns="http://www.w3.org/2000/svg" xmlns:xlink="http://www.w3.org/1999/xlink">
<g id="graph0" class="graph" transform="scale(1 1) rotate(0) translate(4 983)">
<title>oneDegreeRelationshipsDiagram</title>
<polygon fill="#ffffff" stroke="none" points="-4,4 -4,-983 1216,-983 1216,4 -4,4"/>
<text text-anchor="middle" x="74.5" y="-7.2" font-family="Helvetica,sans-Serif" font-size="11.00">Generated by SchemaSpy</text>
<!-- observation_photos -->
<g id="node1" class="node"><title>observation_photos</title>
<g id="a_node1"><a xlink:href="../../tables/observation_photos.html" xlink:title="observation_photos" target="_top">
<polygon fill="#ffffff" stroke="none" points="1044,-89 1044,-235 1204,-235 1204,-89 1044,-89"/>
<polygon fill="#f5f5f5" stroke="none" points="1044,-213 1044,-235 1204,-235 1204,-213 1044,-213"/>
<polygon fill="none" stroke="black" points="1044,-213 1044,-235 1204,-235 1204,-213 1044,-213"/>
<text text-anchor="start" x="1049" y="-222.2" font-family="Helvetica,sans-Serif" font-weight="bold" font-size="11.00">observation_photos</text>
<text text-anchor="start" x="1165" y="-221.2" font-family="Helvetica,sans-Serif" font-size="11.00">[table]</text>
<polygon fill="none" stroke="black" points="1044,-191 1044,-213 1204,-213 1204,-191 1044,-191"/>
<image xlink:href="../../images/primaryKeys.png" width="11px" height="12px" preserveAspectRatio="xMinYMin meet" x="1049" y="-208"/>
<text text-anchor="start" x="1075" y="-199.2" font-family="Helvetica,sans-Serif" font-size="11.00">file_id</text>
<polygon fill="none" stroke="black" points="1044,-169 1044,-191 1204,-191 1204,-169 1044,-169"/>
<image xlink:href="../../images/foreignKeys.png" width="11px" height="12px" preserveAspectRatio="xMinYMin meet" x="1049" y="-186"/>
<text text-anchor="start" x="1075" y="-177.2" font-family="Helvetica,sans-Serif" font-size="11.00">observation_id</text>
<polygon fill="#ffffff" stroke="none" points="1044,-147 1044,-169 1204,-169 1204,-147 1044,-147"/>
<polygon fill="none" stroke="black" points="1044,-147 1044,-169 1204,-169 1204,-147 1044,-147"/>
<image xlink:href="../../images/foreignKeys.png" width="11px" height="12px" preserveAspectRatio="xMinYMin meet" x="1049" y="-164"/>
<text text-anchor="start" x="1075" y="-155.2" font-family="Helvetica,sans-Serif" font-size="11.00">monitoring_plot_id</text>
<polygon fill="none" stroke="black" points="1044,-125 1044,-147 1204,-147 1204,-125 1044,-125"/>
<image xlink:href="../../images/foreignKeys.png" width="11px" height="12px" preserveAspectRatio="xMinYMin meet" x="1049" y="-142"/>
<text text-anchor="start" x="1075" y="-133.2" font-family="Helvetica,sans-Serif" font-size="11.00">position_id</text>
<polygon fill="none" stroke="black" points="1044,-107 1044,-125 1204,-125 1204,-107 1044,-107"/>
<text text-anchor="start" x="1047" y="-113.2" font-family="Helvetica,sans-Serif" font-size="11.00">...</text>
<polygon fill="#ffffff" stroke="none" points="1044,-89 1044,-107 1108,-107 1108,-89 1044,-89"/>
<polygon fill="none" stroke="black" points="1044,-89 1044,-107 1108,-107 1108,-89 1044,-89"/>
<text text-anchor="start" x="1047" y="-95.2" font-family="Helvetica,sans-Serif" font-size="11.00">&lt; 6</text>
<polygon fill="#ffffff" stroke="none" points="1108,-89 1108,-107 1170,-107 1170,-89 1108,-89"/>
<polygon fill="none" stroke="black" points="1108,-89 1108,-107 1170,-107 1170,-89 1108,-89"/>
<text text-anchor="start" x="1131" y="-95.2" font-family="Helvetica,sans-Serif" font-size="11.00">0 rows</text>
<polygon fill="#ffffff" stroke="none" points="1170,-89 1170,-107 1204,-107 1204,-89 1170,-89"/>
<polygon fill="none" stroke="black" points="1170,-89 1170,-107 1204,-107 1204,-89 1170,-89"/>
<text text-anchor="start" x="1194" y="-95.2" font-family="Helvetica,sans-Serif" font-size="11.00"> &#160;</text>
</a>
</g>
</g>
<!-- observation_plots -->
<g id="node2" class="node"><title>observation_plots</title>
<g id="a_node2"><a xlink:href="../../tables/observation_plots.html" xlink:title="observation_plots" target="_top">
<polygon fill="#ffffff" stroke="none" points="812.5,-191 812.5,-381 962.5,-381 962.5,-191 812.5,-191"/>
<polygon fill="#f5f5f5" stroke="none" points="812.5,-359 812.5,-381 962.5,-381 962.5,-359 812.5,-359"/>
<polygon fill="none" stroke="black" points="812.5,-359 812.5,-381 962.5,-381 962.5,-359 812.5,-359"/>
<text text-anchor="start" x="817.5" y="-368.2" font-family="Helvetica,sans-Serif" font-weight="bold" font-size="11.00">observation_plots</text>
<text text-anchor="start" x="923.5" y="-367.2" font-family="Helvetica,sans-Serif" font-size="11.00">[table]</text>
<polygon fill="none" stroke="black" points="812.5,-337 812.5,-359 962.5,-359 962.5,-337 812.5,-337"/>
<image xlink:href="../../images/primaryKeys.png" width="11px" height="12px" preserveAspectRatio="xMinYMin meet" x="817.5" y="-354"/>
<text text-anchor="start" x="841.5" y="-345.2" font-family="Helvetica,sans-Serif" font-size="11.00">observation_id</text>
<polygon fill="none" stroke="black" points="812.5,-315 812.5,-337 962.5,-337 962.5,-315 812.5,-315"/>
<image xlink:href="../../images/primaryKeys.png" width="11px" height="12px" preserveAspectRatio="xMinYMin meet" x="817.5" y="-332"/>
<text text-anchor="start" x="841.5" y="-323.2" font-family="Helvetica,sans-Serif" font-size="11.00">monitoring_plot_id</text>
<polygon fill="none" stroke="black" points="812.5,-293 812.5,-315 962.5,-315 962.5,-293 812.5,-293"/>
<image xlink:href="../../images/foreignKeys.png" width="11px" height="12px" preserveAspectRatio="xMinYMin meet" x="817.5" y="-310"/>
<text text-anchor="start" x="841.5" y="-301.2" font-family="Helvetica,sans-Serif" font-size="11.00">claimed_by</text>
<polygon fill="none" stroke="black" points="812.5,-271 812.5,-293 962.5,-293 962.5,-271 812.5,-271"/>
<image xlink:href="../../images/foreignKeys.png" width="11px" height="12px" preserveAspectRatio="xMinYMin meet" x="817.5" y="-288"/>
<text text-anchor="start" x="841.5" y="-279.2" font-family="Helvetica,sans-Serif" font-size="11.00">completed_by</text>
<polygon fill="none" stroke="black" points="812.5,-249 812.5,-271 962.5,-271 962.5,-249 812.5,-249"/>
<image xlink:href="../../images/foreignKeys.png" width="11px" height="12px" preserveAspectRatio="xMinYMin meet" x="817.5" y="-266"/>
<text text-anchor="start" x="841.5" y="-257.2" font-family="Helvetica,sans-Serif" font-size="11.00">created_by</text>
<polygon fill="none" stroke="black" points="812.5,-227 812.5,-249 962.5,-249 962.5,-227 812.5,-227"/>
<image xlink:href="../../images/foreignKeys.png" width="11px" height="12px" preserveAspectRatio="xMinYMin meet" x="817.5" y="-244"/>
<text text-anchor="start" x="841.5" y="-235.2" font-family="Helvetica,sans-Serif" font-size="11.00">modified_by</text>
<polygon fill="none" stroke="black" points="812.5,-209 812.5,-227 962.5,-227 962.5,-209 812.5,-209"/>
<text text-anchor="start" x="815.5" y="-215.2" font-family="Helvetica,sans-Serif" font-size="11.00">...</text>
<polygon fill="#ffffff" stroke="none" points="812.5,-191 812.5,-209 866.5,-209 866.5,-191 812.5,-191"/>
<polygon fill="none" stroke="black" points="812.5,-191 812.5,-209 866.5,-209 866.5,-191 812.5,-191"/>
<text text-anchor="start" x="815.5" y="-197.2" font-family="Helvetica,sans-Serif" font-size="11.00">&lt; 6</text>
<polygon fill="#ffffff" stroke="none" points="866.5,-191 866.5,-209 923.5,-209 923.5,-191 866.5,-191"/>
<polygon fill="none" stroke="black" points="866.5,-191 866.5,-209 923.5,-209 923.5,-191 866.5,-191"/>
<text text-anchor="start" x="884.5" y="-197.2" font-family="Helvetica,sans-Serif" font-size="11.00">0 rows</text>
<polygon fill="#ffffff" stroke="none" points="923.5,-191 923.5,-209 962.5,-209 962.5,-191 923.5,-191"/>
<polygon fill="none" stroke="black" points="923.5,-191 923.5,-209 962.5,-209 962.5,-191 923.5,-191"/>
<text text-anchor="start" x="942.5" y="-197.2" font-family="Helvetica,sans-Serif" font-size="11.00">4 &gt;</text>
</a>
</g>
</g>
<!-- observation_photos&#45;&gt;observation_plots -->
<g id="edge1" class="edge"><title>observation_photos:monitoring_plot_id:w&#45;&gt;observation_plots:monitoring_plot_id:e</title>
<path fill="none" stroke="black" d="M1028.67,-160.124C971.036,-179.572 1040.62,-326 963.5,-326"/>
<polygon fill="black" stroke="black" points="1035.09,-159.173 1043.53,-161.561 1039.04,-158.587 1043,-158 1043,-158 1043,-158 1039.04,-158.587 1042.47,-154.439 1035.09,-159.173 1035.09,-159.173"/>
<ellipse fill="none" stroke="black" cx="1031.92" cy="-159.642" rx="3.2" ry="3.2"/>
</g>
<!-- observation_photos&#45;&gt;observation_plots -->
<g id="edge2" class="edge"><title>observation_photos:observation_id:w&#45;&gt;observation_plots:observation_id:e</title>
<path fill="none" stroke="black" d="M1028.67,-182.124C971.036,-201.572 1040.62,-348 963.5,-348"/>
<polygon fill="black" stroke="black" points="1035.09,-181.173 1043.53,-183.561 1039.04,-180.587 1043,-180 1043,-180 1043,-180 1039.04,-180.587 1042.47,-176.439 1035.09,-181.173 1035.09,-181.173"/>
<ellipse fill="none" stroke="black" cx="1031.92" cy="-181.642" rx="3.2" ry="3.2"/>
</g>
<!-- observations -->
<g id="node3" class="node"><title>observations</title>
<g id="a_node3"><a xlink:href="../../tables/observations.html" xlink:title="observations" target="_top">
<polygon fill="#ffffff" stroke="none" points="407,-272 407,-492 731,-492 731,-272 407,-272"/>
<polygon fill="#f5f5f5" stroke="none" points="409,-468 409,-490 729,-490 729,-468 409,-468"/>
<polygon fill="none" stroke="black" points="409,-468 409,-490 729,-490 729,-468 409,-468"/>
<text text-anchor="start" x="414" y="-477.2" font-family="Helvetica,sans-Serif" font-weight="bold" font-size="11.00">observations</text>
<text text-anchor="start" x="690" y="-476.2" font-family="Helvetica,sans-Serif" font-size="11.00">[table]</text>
<polygon fill="none" stroke="black" points="409,-446 409,-468 627,-468 627,-446 409,-446"/>
<image xlink:href="../../images/primaryKeys.png" width="11px" height="12px" preserveAspectRatio="xMinYMin meet" x="414" y="-463"/>
<text text-anchor="start" x="429" y="-454.2" font-family="Helvetica,sans-Serif" font-size="11.00">id</text>
<polygon fill="none" stroke="black" points="627,-446 627,-468 729,-468 729,-446 627,-446"/>
<text text-anchor="start" x="630" y="-454.2" font-family="Helvetica,sans-Serif" font-size="11.00">int8[19]</text>
<polygon fill="#ffffff" stroke="none" points="409,-424 409,-446 627,-446 627,-424 409,-424"/>
<polygon fill="none" stroke="black" points="409,-424 409,-446 627,-446 627,-424 409,-424"/>
<image xlink:href="../../images/foreignKeys.png" width="11px" height="12px" preserveAspectRatio="xMinYMin meet" x="414" y="-441"/>
<text text-anchor="start" x="429" y="-432.2" font-family="Helvetica,sans-Serif" font-size="11.00">planting_site_id</text>
<polygon fill="none" stroke="black" points="627,-424 627,-446 729,-446 729,-424 627,-424"/>
<text text-anchor="start" x="630" y="-432.2" font-family="Helvetica,sans-Serif" font-size="11.00">int8[19]</text>
<polygon fill="none" stroke="black" points="409,-402 409,-424 627,-424 627,-402 409,-402"/>
<text text-anchor="start" x="429" y="-410.2" font-family="Helvetica,sans-Serif" font-size="11.00">created_time</text>
<polygon fill="none" stroke="black" points="627,-402 627,-424 729,-424 729,-402 627,-402"/>
<text text-anchor="start" x="630" y="-410.2" font-family="Helvetica,sans-Serif" font-size="11.00">timestamptz[35,6]</text>
<polygon fill="none" stroke="black" points="409,-380 409,-402 627,-402 627,-380 409,-380"/>
<text text-anchor="start" x="429" y="-388.2" font-family="Helvetica,sans-Serif" font-size="11.00">start_date</text>
<polygon fill="none" stroke="black" points="627,-380 627,-402 729,-402 729,-380 627,-380"/>
<text text-anchor="start" x="630" y="-388.2" font-family="Helvetica,sans-Serif" font-size="11.00">date[13]</text>
<polygon fill="none" stroke="black" points="409,-358 409,-380 627,-380 627,-358 409,-358"/>
<text text-anchor="start" x="429" y="-366.2" font-family="Helvetica,sans-Serif" font-size="11.00">end_date</text>
<polygon fill="none" stroke="black" points="627,-358 627,-380 729,-380 729,-358 627,-358"/>
<text text-anchor="start" x="630" y="-366.2" font-family="Helvetica,sans-Serif" font-size="11.00">date[13]</text>
<polygon fill="none" stroke="black" points="409,-336 409,-358 627,-358 627,-336 409,-336"/>
<text text-anchor="start" x="429" y="-344.2" font-family="Helvetica,sans-Serif" font-size="11.00">completed_time</text>
<polygon fill="none" stroke="black" points="627,-336 627,-358 729,-358 729,-336 627,-336"/>
<text text-anchor="start" x="630" y="-344.2" font-family="Helvetica,sans-Serif" font-size="11.00">timestamptz[35,6]</text>
<polygon fill="none" stroke="black" points="409,-314 409,-336 627,-336 627,-314 409,-314"/>
<image xlink:href="../../images/foreignKeys.png" width="11px" height="12px" preserveAspectRatio="xMinYMin meet" x="414" y="-331"/>
<text text-anchor="start" x="429" y="-322.2" font-family="Helvetica,sans-Serif" font-size="11.00">state_id</text>
<polygon fill="none" stroke="black" points="627,-314 627,-336 729,-336 729,-314 627,-314"/>
<text text-anchor="start" x="630" y="-322.2" font-family="Helvetica,sans-Serif" font-size="11.00">int4[10]</text>
<polygon fill="none" stroke="black" points="409,-292 409,-314 627,-314 627,-292 409,-292"/>
<text text-anchor="start" x="429" y="-300.2" font-family="Helvetica,sans-Serif" font-size="11.00">upcoming_notification_sent_time</text>
<polygon fill="none" stroke="black" points="627,-292 627,-314 729,-314 729,-292 627,-292"/>
<text text-anchor="start" x="630" y="-300.2" font-family="Helvetica,sans-Serif" font-size="11.00">timestamptz[35,6]</text>
<polygon fill="#ffffff" stroke="none" points="409,-274 409,-292 508,-292 508,-274 409,-274"/>
<polygon fill="none" stroke="black" points="409,-274 409,-292 508,-292 508,-274 409,-274"/>
<text text-anchor="start" x="412" y="-280.2" font-family="Helvetica,sans-Serif" font-size="11.00">&lt; 2</text>
<polygon fill="#ffffff" stroke="none" points="508,-274 508,-292 627,-292 627,-274 508,-274"/>
<polygon fill="none" stroke="black" points="508,-274 508,-292 627,-292 627,-274 508,-274"/>
<text text-anchor="start" x="588" y="-280.2" font-family="Helvetica,sans-Serif" font-size="11.00">0 rows</text>
<polygon fill="#ffffff" stroke="none" points="627,-274 627,-292 729,-292 729,-274 627,-274"/>
<polygon fill="none" stroke="black" points="627,-274 627,-292 729,-292 729,-274 627,-274"/>
<text text-anchor="start" x="709" y="-280.2" font-family="Helvetica,sans-Serif" font-size="11.00">7 &gt;</text>
<polygon fill="none" stroke="black" stroke-width="2" points="408,-273 408,-491 730,-491 730,-273 408,-273"/>
</a>
</g>
</g>
<!-- observation_photos&#45;&gt;observations -->
<g id="edge3" class="edge"><title>observation_photos:observation_id:w&#45;&gt;observations:id.type:e</title>
<path fill="none" stroke="black" d="M1028.38,-179.443C959.529,-174.865 814.307,-144.508 772,-181 725.022,-221.521 792.039,-457 730,-457"/>
<polygon fill="black" stroke="black" points="1035.01,-179.695 1042.86,-183.597 1039,-179.848 1043,-180 1043,-180 1043,-180 1039,-179.848 1043.14,-176.403 1035.01,-179.695 1035.01,-179.695"/>
<ellipse fill="none" stroke="black" cx="1031.81" cy="-179.574" rx="3.2" ry="3.2"/>
</g>
<!-- observation_plots&#45;&gt;observations -->
<g id="edge5" class="edge"><title>observation_plots:observation_id:w&#45;&gt;observations:id.type:e</title>
<path fill="none" stroke="black" d="M797.201,-351.552C785.072,-359.255 784.724,-378.163 772,-395 751.933,-421.553 763.283,-457 730,-457"/>
<polygon fill="black" stroke="black" points="803.736,-349.929 812.368,-351.494 807.618,-348.964 811.5,-348 811.5,-348 811.5,-348 807.618,-348.964 810.632,-344.506 803.736,-349.929 803.736,-349.929"/>
<ellipse fill="none" stroke="black" cx="800.63" cy="-350.7" rx="3.2" ry="3.2"/>
</g>
<!-- planting_sites -->
<g id="node5" class="node"><title>planting_sites</title>
<g id="a_node5"><a xlink:href="../../tables/planting_sites.html" xlink:title="planting_sites" target="_top">
<polygon fill="#ffffff" stroke="none" points="8,-482 8,-694 358,-694 358,-482 8,-482"/>
<polygon fill="#f5f5f5" stroke="none" points="8,-672 8,-694 358,-694 358,-672 8,-672"/>
<polygon fill="none" stroke="black" points="8,-672 8,-694 358,-694 358,-672 8,-672"/>
<text text-anchor="start" x="13" y="-681.2" font-family="Helvetica,sans-Serif" font-weight="bold" font-size="11.00">planting_sites</text>
<text text-anchor="start" x="319" y="-680.2" font-family="Helvetica,sans-Serif" font-size="11.00">[table]</text>
<polygon fill="none" stroke="black" points="8,-650 8,-672 358,-672 358,-650 8,-650"/>
<image xlink:href="../../images/primaryKeys.png" width="11px" height="12px" preserveAspectRatio="xMinYMin meet" x="13" y="-667"/>
<text text-anchor="start" x="28" y="-658.2" font-family="Helvetica,sans-Serif" font-size="11.00">id</text>
<polygon fill="#ffffff" stroke="none" points="8,-628 8,-650 358,-650 358,-628 8,-628"/>
<polygon fill="none" stroke="black" points="8,-628 8,-650 358,-650 358,-628 8,-628"/>
<image xlink:href="../../images/foreignKeys.png" width="11px" height="12px" preserveAspectRatio="xMinYMin meet" x="13" y="-645"/>
<text text-anchor="start" x="28" y="-636.2" font-family="Helvetica,sans-Serif" font-size="11.00">organization_id</text>
<polygon fill="#ffffff" stroke="none" points="8,-606 8,-628 358,-628 358,-606 8,-606"/>
<polygon fill="none" stroke="black" points="8,-606 8,-628 358,-628 358,-606 8,-606"/>
<text text-anchor="start" x="28" y="-614.2" font-family="Helvetica,sans-Serif" font-size="11.00">name</text>
<polygon fill="none" stroke="black" points="8,-584 8,-606 358,-606 358,-584 8,-584"/>
<image xlink:href="../../images/foreignKeys.png" width="11px" height="12px" preserveAspectRatio="xMinYMin meet" x="13" y="-601"/>
<text text-anchor="start" x="28" y="-592.2" font-family="Helvetica,sans-Serif" font-size="11.00">created_by</text>
<polygon fill="none" stroke="black" points="8,-562 8,-584 358,-584 358,-562 8,-562"/>
<image xlink:href="../../images/foreignKeys.png" width="11px" height="12px" preserveAspectRatio="xMinYMin meet" x="13" y="-579"/>
<text text-anchor="start" x="28" y="-570.2" font-family="Helvetica,sans-Serif" font-size="11.00">modified_by</text>
<polygon fill="none" stroke="black" points="8,-540 8,-562 358,-562 358,-540 8,-540"/>
<image xlink:href="../../images/foreignKeys.png" width="11px" height="12px" preserveAspectRatio="xMinYMin meet" x="13" y="-557"/>
<text text-anchor="start" x="28" y="-548.2" font-family="Helvetica,sans-Serif" font-size="11.00">time_zone</text>
<polygon fill="#ffffff" stroke="none" points="8,-518 8,-540 358,-540 358,-518 8,-518"/>
<polygon fill="none" stroke="black" points="8,-518 8,-540 358,-540 358,-518 8,-518"/>
<image xlink:href="../../images/foreignKeys.png" width="11px" height="12px" preserveAspectRatio="xMinYMin meet" x="13" y="-535"/>
<text text-anchor="start" x="28" y="-526.2" font-family="Helvetica,sans-Serif" font-size="11.00">project_id</text>
<polygon fill="none" stroke="black" points="8,-500 8,-518 358,-518 358,-500 8,-500"/>
<text text-anchor="start" x="11" y="-506.2" font-family="Helvetica,sans-Serif" font-size="11.00">...</text>
<polygon fill="#ffffff" stroke="none" points="8,-482 8,-500 162,-500 162,-482 8,-482"/>
<polygon fill="none" stroke="black" points="8,-482 8,-500 162,-500 162,-482 8,-482"/>
<text text-anchor="start" x="11" y="-488.2" font-family="Helvetica,sans-Serif" font-size="11.00">&lt; 5</text>
<polygon fill="#ffffff" stroke="none" points="162,-482 162,-500 269,-500 269,-482 162,-482"/>
<polygon fill="none" stroke="black" points="162,-482 162,-500 269,-500 269,-482 162,-482"/>
<text text-anchor="start" x="230" y="-488.2" font-family="Helvetica,sans-Serif" font-size="11.00">0 rows</text>
<polygon fill="#ffffff" stroke="none" points="269,-482 269,-500 358,-500 358,-482 269,-482"/>
<polygon fill="none" stroke="black" points="269,-482 269,-500 358,-500 358,-482 269,-482"/>
<text text-anchor="start" x="338" y="-488.2" font-family="Helvetica,sans-Serif" font-size="11.00">7 &gt;</text>
</a>
</g>
</g>
<!-- observations&#45;&gt;planting_sites -->
<g id="edge6" class="edge"><title>observations:planting_site_id:w&#45;&gt;planting_sites:id:e</title>
<path fill="none" stroke="black" d="M393.38,-436.954C321.57,-459.043 456.158,-661 359,-661"/>
<polygon fill="black" stroke="black" points="400.07,-436.06 408.477,-438.568 404.035,-435.53 408,-435 408,-435 408,-435 404.035,-435.53 407.523,-431.432 400.07,-436.06 400.07,-436.06"/>
<ellipse fill="none" stroke="black" cx="396.899" cy="-436.484" rx="3.2" ry="3.2"/>
</g>
<!-- observation_states -->
<g id="node6" class="node"><title>observation_states</title>
<g id="a_node6"><a xlink:href="../../tables/observation_states.html" xlink:title="observation_states" target="_top">
<polygon fill="#ffffff" stroke="none" points="105,-274 105,-358 261,-358 261,-274 105,-274"/>
<polygon fill="#f5f5f5" stroke="none" points="105,-336 105,-358 261,-358 261,-336 105,-336"/>
<polygon fill="none" stroke="black" points="105,-336 105,-358 261,-358 261,-336 105,-336"/>
<text text-anchor="start" x="110" y="-345.2" font-family="Helvetica,sans-Serif" font-weight="bold" font-size="11.00">observation_states</text>
<text text-anchor="start" x="222" y="-344.2" font-family="Helvetica,sans-Serif" font-size="11.00">[table]</text>
<polygon fill="none" stroke="black" points="105,-314 105,-336 261,-336 261,-314 105,-314"/>
<image xlink:href="../../images/primaryKeys.png" width="11px" height="12px" preserveAspectRatio="xMinYMin meet" x="110" y="-331"/>
<text text-anchor="start" x="136" y="-322.2" font-family="Helvetica,sans-Serif" font-size="11.00">id</text>
<polygon fill="#ffffff" stroke="none" points="105,-292 105,-314 261,-314 261,-292 105,-292"/>
<polygon fill="none" stroke="black" points="105,-292 105,-314 261,-314 261,-292 105,-292"/>
<text text-anchor="start" x="136" y="-300.2" font-family="Helvetica,sans-Serif" font-size="11.00">name</text>
<polygon fill="#ffffff" stroke="none" points="105,-274 105,-292 157,-292 157,-274 105,-274"/>
<polygon fill="none" stroke="black" points="105,-274 105,-292 157,-292 157,-274 105,-274"/>
<text text-anchor="start" x="108" y="-280.2" font-family="Helvetica,sans-Serif" font-size="11.00"> &#160;</text>
<polygon fill="#ffffff" stroke="none" points="157,-274 157,-292 218,-292 218,-274 157,-274"/>
<polygon fill="none" stroke="black" points="157,-274 157,-292 218,-292 218,-274 157,-274"/>
<text text-anchor="start" x="179" y="-280.2" font-family="Helvetica,sans-Serif" font-size="11.00">4 rows</text>
<polygon fill="#ffffff" stroke="none" points="218,-274 218,-292 261,-292 261,-274 218,-274"/>
<polygon fill="none" stroke="black" points="218,-274 218,-292 261,-292 261,-274 218,-274"/>
<text text-anchor="start" x="241" y="-280.2" font-family="Helvetica,sans-Serif" font-size="11.00">1 &gt;</text>
</a>
</g>
</g>
<!-- observations&#45;&gt;observation_states -->
<g id="edge7" class="edge"><title>observations:state_id:w&#45;&gt;observation_states:id:e</title>
<path fill="none" stroke="black" d="M393.298,-325C340.201,-325 321.693,-325 262,-325"/>
<polygon fill="black" stroke="black" points="400,-325 408,-328.6 404,-325 408,-325 408,-325 408,-325 404,-325 408,-321.4 400,-325 400,-325"/>
<ellipse fill="none" stroke="black" cx="396.8" cy="-325" rx="3.2" ry="3.2"/>
</g>
<!-- observation_plot_conditions -->
<g id="node4" class="node"><title>observation_plot_conditions</title>
<g id="a_node4"><a xlink:href="../../tables/observation_plot_conditions.html" xlink:title="observation_plot_conditions" target="_top">
<polygon fill="#ffffff" stroke="none" points="783,-37 783,-143 992,-143 992,-37 783,-37"/>
<polygon fill="#f5f5f5" stroke="none" points="783.5,-121 783.5,-143 992.5,-143 992.5,-121 783.5,-121"/>
<polygon fill="none" stroke="black" points="783.5,-121 783.5,-143 992.5,-143 992.5,-121 783.5,-121"/>
<text text-anchor="start" x="788.5" y="-130.2" font-family="Helvetica,sans-Serif" font-weight="bold" font-size="11.00">observation_plot_conditions</text>
<text text-anchor="start" x="953.5" y="-129.2" font-family="Helvetica,sans-Serif" font-size="11.00">[table]</text>
<polygon fill="none" stroke="black" points="783.5,-99 783.5,-121 992.5,-121 992.5,-99 783.5,-99"/>
<image xlink:href="../../images/primaryKeys.png" width="11px" height="12px" preserveAspectRatio="xMinYMin meet" x="788.5" y="-116"/>
<text text-anchor="start" x="813.5" y="-107.2" font-family="Helvetica,sans-Serif" font-size="11.00">observation_id</text>
<polygon fill="none" stroke="black" points="783.5,-77 783.5,-99 992.5,-99 992.5,-77 783.5,-77"/>
<image xlink:href="../../images/primaryKeys.png" width="11px" height="12px" preserveAspectRatio="xMinYMin meet" x="788.5" y="-94"/>
<text text-anchor="start" x="813.5" y="-85.2" font-family="Helvetica,sans-Serif" font-size="11.00">monitoring_plot_id</text>
<polygon fill="none" stroke="black" points="783.5,-55 783.5,-77 992.5,-77 992.5,-55 783.5,-55"/>
<image xlink:href="../../images/primaryKeys.png" width="11px" height="12px" preserveAspectRatio="xMinYMin meet" x="788.5" y="-72"/>
<text text-anchor="start" x="813.5" y="-63.2" font-family="Helvetica,sans-Serif" font-size="11.00">condition_id</text>
<polygon fill="#ffffff" stroke="none" points="783.5,-37 783.5,-55 871.5,-55 871.5,-37 783.5,-37"/>
<polygon fill="none" stroke="black" points="783.5,-37 783.5,-55 871.5,-55 871.5,-37 783.5,-37"/>
<text text-anchor="start" x="786.5" y="-43.2" font-family="Helvetica,sans-Serif" font-size="11.00">&lt; 3</text>
<polygon fill="#ffffff" stroke="none" points="871.5,-37 871.5,-55 946.5,-55 946.5,-37 871.5,-37"/>
<polygon fill="none" stroke="black" points="871.5,-37 871.5,-55 946.5,-55 946.5,-37 871.5,-37"/>
<text text-anchor="start" x="907.5" y="-43.2" font-family="Helvetica,sans-Serif" font-size="11.00">0 rows</text>
<polygon fill="#ffffff" stroke="none" points="946.5,-37 946.5,-55 992.5,-55 992.5,-37 946.5,-37"/>
<polygon fill="none" stroke="black" points="946.5,-37 946.5,-55 992.5,-55 992.5,-37 946.5,-37"/>
<text text-anchor="start" x="982.5" y="-43.2" font-family="Helvetica,sans-Serif" font-size="11.00"> &#160;</text>
</a>
</g>
</g>
<!-- observation_plot_conditions&#45;&gt;observations -->
<g id="edge4" class="edge"><title>observation_plot_conditions:observation_id:w&#45;&gt;observations:id.type:e</title>
<path fill="none" stroke="black" d="M768.615,-114.905C718.166,-157.081 802.505,-457 730,-457"/>
<polygon fill="black" stroke="black" points="774.957,-112.665 783.699,-113.394 778.728,-111.332 782.5,-110 782.5,-110 782.5,-110 778.728,-111.332 781.301,-106.606 774.957,-112.665 774.957,-112.665"/>
<ellipse fill="none" stroke="black" cx="771.94" cy="-113.731" rx="3.20001" ry="3.20001"/>
</g>
<!-- observed_plot_species_totals -->
<g id="node7" class="node"><title>observed_plot_species_totals</title>
<g id="a_node7"><a xlink:href="../../tables/observed_plot_species_totals.html" xlink:title="observed_plot_species_totals" target="_top">
<polygon fill="#ffffff" stroke="none" points="781.5,-618 781.5,-786 993.5,-786 993.5,-618 781.5,-618"/>
<polygon fill="#f5f5f5" stroke="none" points="781.5,-764 781.5,-786 993.5,-786 993.5,-764 781.5,-764"/>
<polygon fill="none" stroke="black" points="781.5,-764 781.5,-786 993.5,-786 993.5,-764 781.5,-764"/>
<text text-anchor="start" x="786.5" y="-773.2" font-family="Helvetica,sans-Serif" font-weight="bold" font-size="11.00">observed_plot_species_totals</text>
<text text-anchor="start" x="954.5" y="-772.2" font-family="Helvetica,sans-Serif" font-size="11.00">[table]</text>
<polygon fill="#ffffff" stroke="none" points="781.5,-742 781.5,-764 993.5,-764 993.5,-742 781.5,-742"/>
<polygon fill="none" stroke="black" points="781.5,-742 781.5,-764 993.5,-764 993.5,-742 781.5,-742"/>
<image xlink:href="../../images/foreignKeys.png" width="11px" height="12px" preserveAspectRatio="xMinYMin meet" x="786.5" y="-759"/>
<text text-anchor="start" x="811.5" y="-750.2" font-family="Helvetica,sans-Serif" font-size="11.00">observation_id</text>
<polygon fill="#ffffff" stroke="none" points="781.5,-720 781.5,-742 993.5,-742 993.5,-720 781.5,-720"/>
<polygon fill="none" stroke="black" points="781.5,-720 781.5,-742 993.5,-742 993.5,-720 781.5,-720"/>
<image xlink:href="../../images/foreignKeys.png" width="11px" height="12px" preserveAspectRatio="xMinYMin meet" x="786.5" y="-737"/>
<text text-anchor="start" x="811.5" y="-728.2" font-family="Helvetica,sans-Serif" font-size="11.00">monitoring_plot_id</text>
<polygon fill="#ffffff" stroke="none" points="781.5,-698 781.5,-720 993.5,-720 993.5,-698 781.5,-698"/>
<polygon fill="none" stroke="black" points="781.5,-698 781.5,-720 993.5,-720 993.5,-698 781.5,-698"/>
<image xlink:href="../../images/foreignKeys.png" width="11px" height="12px" preserveAspectRatio="xMinYMin meet" x="786.5" y="-715"/>
<text text-anchor="start" x="811.5" y="-706.2" font-family="Helvetica,sans-Serif" font-size="11.00">species_id</text>
<polygon fill="#ffffff" stroke="none" points="781.5,-676 781.5,-698 993.5,-698 993.5,-676 781.5,-676"/>
<polygon fill="none" stroke="black" points="781.5,-676 781.5,-698 993.5,-698 993.5,-676 781.5,-676"/>
<text text-anchor="start" x="811.5" y="-684.2" font-family="Helvetica,sans-Serif" font-size="11.00">species_name</text>
<polygon fill="none" stroke="black" points="781.5,-654 781.5,-676 993.5,-676 993.5,-654 781.5,-654"/>
<image xlink:href="../../images/foreignKeys.png" width="11px" height="12px" preserveAspectRatio="xMinYMin meet" x="786.5" y="-671"/>
<text text-anchor="start" x="811.5" y="-662.2" font-family="Helvetica,sans-Serif" font-size="11.00">certainty_id</text>
<polygon fill="none" stroke="black" points="781.5,-636 781.5,-654 993.5,-654 993.5,-636 781.5,-636"/>
<text text-anchor="start" x="784.5" y="-642.2" font-family="Helvetica,sans-Serif" font-size="11.00">...</text>
<polygon fill="#ffffff" stroke="none" points="781.5,-618 781.5,-636 871.5,-636 871.5,-618 781.5,-618"/>
<polygon fill="none" stroke="black" points="781.5,-618 781.5,-636 871.5,-636 871.5,-618 781.5,-618"/>
<text text-anchor="start" x="784.5" y="-624.2" font-family="Helvetica,sans-Serif" font-size="11.00">&lt; 4</text>
<polygon fill="#ffffff" stroke="none" points="871.5,-618 871.5,-636 946.5,-636 946.5,-618 871.5,-618"/>
<polygon fill="none" stroke="black" points="871.5,-618 871.5,-636 946.5,-636 946.5,-618 871.5,-618"/>
<text text-anchor="start" x="907.5" y="-624.2" font-family="Helvetica,sans-Serif" font-size="11.00">0 rows</text>
<polygon fill="#ffffff" stroke="none" points="946.5,-618 946.5,-636 993.5,-636 993.5,-618 946.5,-618"/>
<polygon fill="none" stroke="black" points="946.5,-618 946.5,-636 993.5,-636 993.5,-618 946.5,-618"/>
<text text-anchor="start" x="983.5" y="-624.2" font-family="Helvetica,sans-Serif" font-size="11.00"> &#160;</text>
</a>
</g>
</g>
<!-- observed_plot_species_totals&#45;&gt;observations -->
<g id="edge8" class="edge"><title>observed_plot_species_totals:observation_id:w&#45;&gt;observations:id.type:e</title>
<path fill="none" stroke="black" d="M766.935,-747.351C726.375,-706.429 791.254,-457 730,-457"/>
<polygon fill="black" stroke="black" points="773.115,-749.925 779.116,-756.323 776.807,-751.462 780.5,-753 780.5,-753 780.5,-753 776.807,-751.462 781.884,-749.677 773.115,-749.925 773.115,-749.925"/>
<ellipse fill="none" stroke="black" cx="770.161" cy="-748.694" rx="3.20001" ry="3.20001"/>
</g>
<!-- observed_site_species_totals -->
<g id="node8" class="node"><title>observed_site_species_totals</title>
<g id="a_node8"><a xlink:href="../../tables/observed_site_species_totals.html" xlink:title="observed_site_species_totals" target="_top">
<polygon fill="#ffffff" stroke="none" points="782.5,-807 782.5,-975 992.5,-975 992.5,-807 782.5,-807"/>
<polygon fill="#f5f5f5" stroke="none" points="782.5,-953 782.5,-975 992.5,-975 992.5,-953 782.5,-953"/>
<polygon fill="none" stroke="black" points="782.5,-953 782.5,-975 992.5,-975 992.5,-953 782.5,-953"/>
<text text-anchor="start" x="787.5" y="-962.2" font-family="Helvetica,sans-Serif" font-weight="bold" font-size="11.00">observed_site_species_totals</text>
<text text-anchor="start" x="953.5" y="-961.2" font-family="Helvetica,sans-Serif" font-size="11.00">[table]</text>
<polygon fill="#ffffff" stroke="none" points="782.5,-931 782.5,-953 992.5,-953 992.5,-931 782.5,-931"/>
<polygon fill="none" stroke="black" points="782.5,-931 782.5,-953 992.5,-953 992.5,-931 782.5,-931"/>
<image xlink:href="../../images/foreignKeys.png" width="11px" height="12px" preserveAspectRatio="xMinYMin meet" x="787.5" y="-948"/>
<text text-anchor="start" x="812.5" y="-939.2" font-family="Helvetica,sans-Serif" font-size="11.00">observation_id</text>
<polygon fill="#ffffff" stroke="none" points="782.5,-909 782.5,-931 992.5,-931 992.5,-909 782.5,-909"/>
<polygon fill="none" stroke="black" points="782.5,-909 782.5,-931 992.5,-931 992.5,-909 782.5,-909"/>
<image xlink:href="../../images/foreignKeys.png" width="11px" height="12px" preserveAspectRatio="xMinYMin meet" x="787.5" y="-926"/>
<text text-anchor="start" x="812.5" y="-917.2" font-family="Helvetica,sans-Serif" font-size="11.00">planting_site_id</text>
<polygon fill="#ffffff" stroke="none" points="782.5,-887 782.5,-909 992.5,-909 992.5,-887 782.5,-887"/>
<polygon fill="none" stroke="black" points="782.5,-887 782.5,-909 992.5,-909 992.5,-887 782.5,-887"/>
<image xlink:href="../../images/foreignKeys.png" width="11px" height="12px" preserveAspectRatio="xMinYMin meet" x="787.5" y="-904"/>
<text text-anchor="start" x="812.5" y="-895.2" font-family="Helvetica,sans-Serif" font-size="11.00">species_id</text>
<polygon fill="#ffffff" stroke="none" points="782.5,-865 782.5,-887 992.5,-887 992.5,-865 782.5,-865"/>
<polygon fill="none" stroke="black" points="782.5,-865 782.5,-887 992.5,-887 992.5,-865 782.5,-865"/>
<text text-anchor="start" x="812.5" y="-873.2" font-family="Helvetica,sans-Serif" font-size="11.00">species_name</text>
<polygon fill="none" stroke="black" points="782.5,-843 782.5,-865 992.5,-865 992.5,-843 782.5,-843"/>
<image xlink:href="../../images/foreignKeys.png" width="11px" height="12px" preserveAspectRatio="xMinYMin meet" x="787.5" y="-860"/>
<text text-anchor="start" x="812.5" y="-851.2" font-family="Helvetica,sans-Serif" font-size="11.00">certainty_id</text>
<polygon fill="none" stroke="black" points="782.5,-825 782.5,-843 992.5,-843 992.5,-825 782.5,-825"/>
<text text-anchor="start" x="785.5" y="-831.2" font-family="Helvetica,sans-Serif" font-size="11.00">...</text>
<polygon fill="#ffffff" stroke="none" points="782.5,-807 782.5,-825 871.5,-825 871.5,-807 782.5,-807"/>
<polygon fill="none" stroke="black" points="782.5,-807 782.5,-825 871.5,-825 871.5,-807 782.5,-807"/>
<text text-anchor="start" x="785.5" y="-813.2" font-family="Helvetica,sans-Serif" font-size="11.00">&lt; 4</text>
<polygon fill="#ffffff" stroke="none" points="871.5,-807 871.5,-825 946.5,-825 946.5,-807 871.5,-807"/>
<polygon fill="none" stroke="black" points="871.5,-807 871.5,-825 946.5,-825 946.5,-807 871.5,-807"/>
<text text-anchor="start" x="907.5" y="-813.2" font-family="Helvetica,sans-Serif" font-size="11.00">0 rows</text>
<polygon fill="#ffffff" stroke="none" points="946.5,-807 946.5,-825 992.5,-825 992.5,-807 946.5,-807"/>
<polygon fill="none" stroke="black" points="946.5,-807 946.5,-825 992.5,-825 992.5,-807 946.5,-807"/>
<text text-anchor="start" x="982.5" y="-813.2" font-family="Helvetica,sans-Serif" font-size="11.00"> &#160;</text>
</a>
</g>
</g>
<!-- observed_site_species_totals&#45;&gt;observations -->
<g id="edge9" class="edge"><title>observed_site_species_totals:observation_id:w&#45;&gt;observations:id.type:e</title>
<path fill="none" stroke="black" d="M767.034,-938.375C689.196,-893.993 832.88,-457 730,-457"/>
<polygon fill="black" stroke="black" points="773.74,-940.055 780.625,-945.492 777.62,-941.028 781.5,-942 781.5,-942 781.5,-942 777.62,-941.028 782.375,-938.508 773.74,-940.055 773.74,-940.055"/>
<ellipse fill="none" stroke="black" cx="770.636" cy="-939.278" rx="3.2" ry="3.2"/>
</g>
<!-- observed_site_species_totals&#45;&gt;planting_sites -->
<g id="edge10" class="edge"><title>observed_site_species_totals:planting_site_id:w&#45;&gt;planting_sites:id:e</title>
<path fill="none" stroke="black" d="M767.014,-919.614C561.936,-908.496 574.305,-661 359,-661"/>
<polygon fill="black" stroke="black" points="773.503,-919.787 781.404,-923.599 777.501,-919.893 781.5,-920 781.5,-920 781.5,-920 777.501,-919.893 781.596,-916.401 773.503,-919.787 773.503,-919.787"/>
<ellipse fill="none" stroke="black" cx="770.304" cy="-919.701" rx="3.2" ry="3.2"/>
</g>
<!-- observed_zone_species_totals -->
<g id="node9" class="node"><title>observed_zone_species_totals</title>
<g id="a_node9"><a xlink:href="../../tables/observed_zone_species_totals.html" xlink:title="observed_zone_species_totals" target="_top">
<polygon fill="#ffffff" stroke="none" points="780,-429 780,-597 995,-597 995,-429 780,-429"/>
<polygon fill="#f5f5f5" stroke="none" points="780.5,-575 780.5,-597 995.5,-597 995.5,-575 780.5,-575"/>
<polygon fill="none" stroke="black" points="780.5,-575 780.5,-597 995.5,-597 995.5,-575 780.5,-575"/>
<text text-anchor="start" x="785.5" y="-584.2" font-family="Helvetica,sans-Serif" font-weight="bold" font-size="11.00">observed_zone_species_totals</text>
<text text-anchor="start" x="956.5" y="-583.2" font-family="Helvetica,sans-Serif" font-size="11.00">[table]</text>
<polygon fill="#ffffff" stroke="none" points="780.5,-553 780.5,-575 995.5,-575 995.5,-553 780.5,-553"/>
<polygon fill="none" stroke="black" points="780.5,-553 780.5,-575 995.5,-575 995.5,-553 780.5,-553"/>
<image xlink:href="../../images/foreignKeys.png" width="11px" height="12px" preserveAspectRatio="xMinYMin meet" x="785.5" y="-570"/>
<text text-anchor="start" x="809.5" y="-561.2" font-family="Helvetica,sans-Serif" font-size="11.00">observation_id</text>
<polygon fill="#ffffff" stroke="none" points="780.5,-531 780.5,-553 995.5,-553 995.5,-531 780.5,-531"/>
<polygon fill="none" stroke="black" points="780.5,-531 780.5,-553 995.5,-553 995.5,-531 780.5,-531"/>
<image xlink:href="../../images/foreignKeys.png" width="11px" height="12px" preserveAspectRatio="xMinYMin meet" x="785.5" y="-548"/>
<text text-anchor="start" x="809.5" y="-539.2" font-family="Helvetica,sans-Serif" font-size="11.00">planting_zone_id</text>
<polygon fill="#ffffff" stroke="none" points="780.5,-509 780.5,-531 995.5,-531 995.5,-509 780.5,-509"/>
<polygon fill="none" stroke="black" points="780.5,-509 780.5,-531 995.5,-531 995.5,-509 780.5,-509"/>
<image xlink:href="../../images/foreignKeys.png" width="11px" height="12px" preserveAspectRatio="xMinYMin meet" x="785.5" y="-526"/>
<text text-anchor="start" x="809.5" y="-517.2" font-family="Helvetica,sans-Serif" font-size="11.00">species_id</text>
<polygon fill="#ffffff" stroke="none" points="780.5,-487 780.5,-509 995.5,-509 995.5,-487 780.5,-487"/>
<polygon fill="none" stroke="black" points="780.5,-487 780.5,-509 995.5,-509 995.5,-487 780.5,-487"/>
<text text-anchor="start" x="809.5" y="-495.2" font-family="Helvetica,sans-Serif" font-size="11.00">species_name</text>
<polygon fill="none" stroke="black" points="780.5,-465 780.5,-487 995.5,-487 995.5,-465 780.5,-465"/>
<image xlink:href="../../images/foreignKeys.png" width="11px" height="12px" preserveAspectRatio="xMinYMin meet" x="785.5" y="-482"/>
<text text-anchor="start" x="809.5" y="-473.2" font-family="Helvetica,sans-Serif" font-size="11.00">certainty_id</text>
<polygon fill="none" stroke="black" points="780.5,-447 780.5,-465 995.5,-465 995.5,-447 780.5,-447"/>
<text text-anchor="start" x="783.5" y="-453.2" font-family="Helvetica,sans-Serif" font-size="11.00">...</text>
<polygon fill="#ffffff" stroke="none" points="780.5,-429 780.5,-447 871.5,-447 871.5,-429 780.5,-429"/>
<polygon fill="none" stroke="black" points="780.5,-429 780.5,-447 871.5,-447 871.5,-429 780.5,-429"/>
<text text-anchor="start" x="783.5" y="-435.2" font-family="Helvetica,sans-Serif" font-size="11.00">&lt; 4</text>
<polygon fill="#ffffff" stroke="none" points="871.5,-429 871.5,-447 947.5,-447 947.5,-429 871.5,-429"/>
<polygon fill="none" stroke="black" points="871.5,-429 871.5,-447 947.5,-447 947.5,-429 871.5,-429"/>
<text text-anchor="start" x="908.5" y="-435.2" font-family="Helvetica,sans-Serif" font-size="11.00">0 rows</text>
<polygon fill="#ffffff" stroke="none" points="947.5,-429 947.5,-447 995.5,-447 995.5,-429 947.5,-429"/>
<polygon fill="none" stroke="black" points="947.5,-429 947.5,-447 995.5,-447 995.5,-429 947.5,-429"/>
<text text-anchor="start" x="985.5" y="-435.2" font-family="Helvetica,sans-Serif" font-size="11.00"> &#160;</text>
</a>
</g>
</g>
<!-- observed_zone_species_totals&#45;&gt;observations -->
<g id="edge11" class="edge"><title>observed_zone_species_totals:observation_id:w&#45;&gt;observations:id.type:e</title>
<path fill="none" stroke="black" d="M765.526,-560.192C738.248,-541.131 776.462,-457 730,-457"/>
<polygon fill="black" stroke="black" points="771.781,-561.897 778.553,-567.473 775.641,-562.948 779.5,-564 779.5,-564 779.5,-564 775.641,-562.948 780.447,-560.527 771.781,-561.897 771.781,-561.897"/>
<ellipse fill="none" stroke="black" cx="768.694" cy="-561.055" rx="3.20001" ry="3.20001"/>
</g>
<!-- recorded_plants -->
<g id="node10" class="node"><title>recorded_plants</title>
<g id="a_node10"><a xlink:href="../../tables/recorded_plants.html" xlink:title="recorded_plants" target="_top">
<polygon fill="#ffffff" stroke="none" points="1053.5,-256 1053.5,-446 1194.5,-446 1194.5,-256 1053.5,-256"/>
<polygon fill="#f5f5f5" stroke="none" points="1054,-424 1054,-446 1195,-446 1195,-424 1054,-424"/>
<polygon fill="none" stroke="black" points="1054,-424 1054,-446 1195,-446 1195,-424 1054,-424"/>
<text text-anchor="start" x="1059" y="-433.2" font-family="Helvetica,sans-Serif" font-weight="bold" font-size="11.00">recorded_plants</text>
<text text-anchor="start" x="1156" y="-432.2" font-family="Helvetica,sans-Serif" font-size="11.00">[table]</text>
<polygon fill="none" stroke="black" points="1054,-402 1054,-424 1195,-424 1195,-402 1054,-402"/>
<image xlink:href="../../images/primaryKeys.png" width="11px" height="12px" preserveAspectRatio="xMinYMin meet" x="1059" y="-419"/>
<text text-anchor="start" x="1078" y="-410.2" font-family="Helvetica,sans-Serif" font-size="11.00">id</text>
<polygon fill="#ffffff" stroke="none" points="1054,-380 1054,-402 1195,-402 1195,-380 1054,-380"/>
<polygon fill="none" stroke="black" points="1054,-380 1054,-402 1195,-402 1195,-380 1054,-380"/>
<image xlink:href="../../images/foreignKeys.png" width="11px" height="12px" preserveAspectRatio="xMinYMin meet" x="1059" y="-397"/>
<text text-anchor="start" x="1078" y="-388.2" font-family="Helvetica,sans-Serif" font-size="11.00">observation_id</text>
<polygon fill="#ffffff" stroke="none" points="1054,-358 1054,-380 1195,-380 1195,-358 1054,-358"/>
<polygon fill="none" stroke="black" points="1054,-358 1054,-380 1195,-380 1195,-358 1054,-358"/>
<image xlink:href="../../images/foreignKeys.png" width="11px" height="12px" preserveAspectRatio="xMinYMin meet" x="1059" y="-375"/>
<text text-anchor="start" x="1078" y="-366.2" font-family="Helvetica,sans-Serif" font-size="11.00">monitoring_plot_id</text>
<polygon fill="none" stroke="black" points="1054,-336 1054,-358 1195,-358 1195,-336 1054,-336"/>
<image xlink:href="../../images/foreignKeys.png" width="11px" height="12px" preserveAspectRatio="xMinYMin meet" x="1059" y="-353"/>
<text text-anchor="start" x="1078" y="-344.2" font-family="Helvetica,sans-Serif" font-size="11.00">certainty_id</text>
<polygon fill="#ffffff" stroke="none" points="1054,-314 1054,-336 1195,-336 1195,-314 1054,-314"/>
<polygon fill="none" stroke="black" points="1054,-314 1054,-336 1195,-336 1195,-314 1054,-314"/>
<image xlink:href="../../images/foreignKeys.png" width="11px" height="12px" preserveAspectRatio="xMinYMin meet" x="1059" y="-331"/>
<text text-anchor="start" x="1078" y="-322.2" font-family="Helvetica,sans-Serif" font-size="11.00">species_id</text>
<polygon fill="none" stroke="black" points="1054,-292 1054,-314 1195,-314 1195,-292 1054,-292"/>
<image xlink:href="../../images/foreignKeys.png" width="11px" height="12px" preserveAspectRatio="xMinYMin meet" x="1059" y="-309"/>
<text text-anchor="start" x="1078" y="-300.2" font-family="Helvetica,sans-Serif" font-size="11.00">status_id</text>
<polygon fill="none" stroke="black" points="1054,-274 1054,-292 1195,-292 1195,-274 1054,-274"/>
<text text-anchor="start" x="1057" y="-280.2" font-family="Helvetica,sans-Serif" font-size="11.00">...</text>
<polygon fill="#ffffff" stroke="none" points="1054,-256 1054,-274 1108,-274 1108,-256 1054,-256"/>
<polygon fill="none" stroke="black" points="1054,-256 1054,-274 1108,-274 1108,-256 1054,-256"/>
<text text-anchor="start" x="1057" y="-262.2" font-family="Helvetica,sans-Serif" font-size="11.00">&lt; 7</text>
<polygon fill="#ffffff" stroke="none" points="1108,-256 1108,-274 1166,-274 1166,-256 1108,-256"/>
<polygon fill="none" stroke="black" points="1108,-256 1108,-274 1166,-274 1166,-256 1108,-256"/>
<text text-anchor="start" x="1127" y="-262.2" font-family="Helvetica,sans-Serif" font-size="11.00">0 rows</text>
<polygon fill="#ffffff" stroke="none" points="1166,-256 1166,-274 1195,-274 1195,-256 1166,-256"/>
<polygon fill="none" stroke="black" points="1166,-256 1166,-274 1195,-274 1195,-256 1166,-256"/>
<text text-anchor="start" x="1185" y="-262.2" font-family="Helvetica,sans-Serif" font-size="11.00"> &#160;</text>
</a>
</g>
</g>
<!-- recorded_plants&#45;&gt;observation_plots -->
<g id="edge12" class="edge"><title>recorded_plants:monitoring_plot_id:w&#45;&gt;observation_plots:monitoring_plot_id:e</title>
<path fill="none" stroke="black" d="M1038.7,-367.261C1007.94,-359.216 1002.29,-326 963.5,-326"/>
<polygon fill="black" stroke="black" points="1045.06,-368.034 1052.57,-372.574 1049.03,-368.517 1053,-369 1053,-369 1053,-369 1049.03,-368.517 1053.43,-365.426 1045.06,-368.034 1045.06,-368.034"/>
<ellipse fill="none" stroke="black" cx="1041.88" cy="-367.648" rx="3.2" ry="3.2"/>
</g>
<!-- recorded_plants&#45;&gt;observation_plots -->
<g id="edge13" class="edge"><title>recorded_plants:observation_id:w&#45;&gt;observation_plots:observation_id:e</title>
<path fill="none" stroke="black" d="M1038.7,-389.261C1007.94,-381.216 1002.29,-348 963.5,-348"/>
<polygon fill="black" stroke="black" points="1045.06,-390.034 1052.57,-394.574 1049.03,-390.517 1053,-391 1053,-391 1053,-391 1049.03,-390.517 1053.43,-387.426 1045.06,-390.034 1045.06,-390.034"/>
<ellipse fill="none" stroke="black" cx="1041.88" cy="-389.648" rx="3.2" ry="3.2"/>
</g>
<!-- recorded_plants&#45;&gt;observations -->
<g id="edge14" class="edge"><title>recorded_plants:observation_id:w&#45;&gt;observations:id.type:e</title>
<path fill="none" stroke="black" d="M1038.36,-391.437C979.515,-394.019 797.826,-407.548 772,-419 748.988,-429.204 755.173,-457 730,-457"/>
<polygon fill="black" stroke="black" points="1045,-391.239 1053.11,-394.598 1049,-391.119 1053,-391 1053,-391 1053,-391 1049,-391.119 1052.89,-387.402 1045,-391.239 1045,-391.239"/>
<ellipse fill="none" stroke="black" cx="1041.8" cy="-391.334" rx="3.2" ry="3.2"/>
</g>
</g>
</svg>
