<?xml version="1.0" encoding="UTF-8" standalone="no"?>
<!DOCTYPE svg PUBLIC "-//W3C//DTD SVG 1.1//EN"
 "http://www.w3.org/Graphics/SVG/1.1/DTD/svg11.dtd">
<!-- Generated by graphviz version 2.47.1 (20210515.0534)
 -->
<!-- Title: twoDegreesRelationshipsDiagram Pages: 1 -->
<svg width="697pt" height="428pt"
 viewBox="0.00 0.00 697.00 428.00" xmlns="http://www.w3.org/2000/svg" xmlns:xlink="http://www.w3.org/1999/xlink">
<g id="graph0" class="graph" transform="scale(1 1) rotate(0) translate(4 424)">
<title>twoDegreesRelationshipsDiagram</title>
<polygon fill="#ffffff" stroke="transparent" points="-4,4 -4,-424 693,-424 693,4 -4,4"/>
<text text-anchor="middle" x="73.5" y="-7.2" font-family="Helvetica,sans-Serif" font-size="11.00">Generated by SchemaSpy</text>
<!-- observation_photos -->
<g id="node1" class="node">
<title>observation_photos</title>
<g id="a_node1"><a xlink:href="../../tables/observation_photos.html" xlink:title="observation_photos" target="_top">
<polygon fill="#ffffff" stroke="transparent" points="519,-166 519,-334 681,-334 681,-166 519,-166"/>
<polygon fill="#f5f5f5" stroke="transparent" points="519,-312 519,-334 681,-334 681,-312 519,-312"/>
<polygon fill="none" stroke="black" points="519,-312 519,-334 681,-334 681,-312 519,-312"/>
<text text-anchor="start" x="524" y="-321.2" font-family="Helvetica,sans-Serif" font-weight="bold" font-size="11.00">observation_photos</text>
<text text-anchor="start" x="642" y="-320.2" font-family="Helvetica,sans-Serif" font-size="11.00">[table]</text>
<polygon fill="none" stroke="black" points="519,-290 519,-312 681,-312 681,-290 519,-290"/>
<image xlink:href="../../images/primaryKeys.png" width="11px" height="12px" preserveAspectRatio="xMinYMin meet" x="524" y="-307"/>
<text text-anchor="start" x="551" y="-298.2" font-family="Helvetica,sans-Serif" font-size="11.00">file_id</text>
<polygon fill="none" stroke="black" points="519,-268 519,-290 681,-290 681,-268 519,-268"/>
<image xlink:href="../../images/foreignKeys.png" width="11px" height="12px" preserveAspectRatio="xMinYMin meet" x="524" y="-285"/>
<text text-anchor="start" x="551" y="-276.2" font-family="Helvetica,sans-Serif" font-size="11.00">observation_id</text>
<polygon fill="#ffffff" stroke="transparent" points="519,-246 519,-268 681,-268 681,-246 519,-246"/>
<polygon fill="none" stroke="black" points="519,-246 519,-268 681,-268 681,-246 519,-246"/>
<image xlink:href="../../images/foreignKeys.png" width="11px" height="12px" preserveAspectRatio="xMinYMin meet" x="524" y="-263"/>
<text text-anchor="start" x="551" y="-254.2" font-family="Helvetica,sans-Serif" font-size="11.00">monitoring_plot_id</text>
<polygon fill="none" stroke="black" points="519,-224 519,-246 681,-246 681,-224 519,-224"/>
<image xlink:href="../../images/foreignKeys.png" width="11px" height="12px" preserveAspectRatio="xMinYMin meet" x="524" y="-241"/>
<text text-anchor="start" x="551" y="-232.2" font-family="Helvetica,sans-Serif" font-size="11.00">position_id</text>
<polygon fill="none" stroke="black" points="519,-202 519,-224 681,-224 681,-202 519,-202"/>
<image xlink:href="../../images/foreignKeys.png" width="11px" height="12px" preserveAspectRatio="xMinYMin meet" x="524" y="-219"/>
<text text-anchor="start" x="551" y="-210.2" font-family="Helvetica,sans-Serif" font-size="11.00">type_id</text>
<polygon fill="none" stroke="black" points="519,-184 519,-202 681,-202 681,-184 519,-184"/>
<text text-anchor="start" x="522" y="-190.2" font-family="Helvetica,sans-Serif" font-size="11.00">...</text>
<polygon fill="#ffffff" stroke="transparent" points="519,-166 519,-184 598,-184 598,-166 519,-166"/>
<polygon fill="none" stroke="black" points="519,-166 519,-184 598,-184 598,-166 519,-166"/>
<text text-anchor="start" x="522" y="-172.2" font-family="Helvetica,sans-Serif" font-size="11.00">&lt; 7</text>
<polygon fill="#ffffff" stroke="transparent" points="598,-166 598,-184 639,-184 639,-166 598,-166"/>
<polygon fill="none" stroke="black" points="598,-166 598,-184 639,-184 639,-166 598,-166"/>
<text text-anchor="start" x="629" y="-172.2" font-family="Helvetica,sans-Serif" font-size="11.00"> &#160;</text>
<polygon fill="#ffffff" stroke="transparent" points="639,-166 639,-184 681,-184 681,-166 639,-166"/>
<polygon fill="none" stroke="black" points="639,-166 639,-184 681,-184 681,-166 639,-166"/>
<text text-anchor="start" x="671" y="-172.2" font-family="Helvetica,sans-Serif" font-size="11.00"> &#160;</text>
</a>
</g>
</g>
<!-- public.files -->
<g id="node2" class="node">
<title>public.files</title>
<g id="a_node2"><a xlink:href="../../../public/tables/files.html" xlink:title="public.files" target="_top">
<polygon fill="#ffffff" stroke="transparent" points="281.5,-358 281.5,-416 390.5,-416 390.5,-358 281.5,-358"/>
<polygon fill="#f5f5f5" stroke="transparent" points="282,-394 282,-416 391,-416 391,-394 282,-394"/>
<polygon fill="none" stroke="black" points="282,-394 282,-416 391,-416 391,-394 282,-394"/>
<text text-anchor="start" x="287" y="-403.2" font-family="Helvetica,sans-Serif" font-weight="bold" font-size="11.00">public.files</text>
<text text-anchor="start" x="352" y="-402.2" font-family="Helvetica,sans-Serif" font-size="11.00">[table]</text>
<polygon fill="none" stroke="black" points="282,-376 282,-394 391,-394 391,-376 282,-376"/>
<text text-anchor="start" x="285" y="-382.2" font-family="Helvetica,sans-Serif" font-size="11.00">...</text>
<polygon fill="#ffffff" stroke="transparent" points="282,-358 282,-376 312,-376 312,-358 282,-358"/>
<polygon fill="none" stroke="black" points="282,-358 282,-376 312,-376 312,-358 282,-358"/>
<text text-anchor="start" x="285" y="-364.2" font-family="Helvetica,sans-Serif" font-size="11.00"> &#160;</text>
<polygon fill="#ffffff" stroke="transparent" points="312,-358 312,-376 360,-376 360,-358 312,-358"/>
<polygon fill="none" stroke="black" points="312,-358 312,-376 360,-376 360,-358 312,-358"/>
<text text-anchor="start" x="323" y="-364.2" font-family="Helvetica,sans-Serif" font-size="11.00">0 rows</text>
<polygon fill="#ffffff" stroke="transparent" points="360,-358 360,-376 391,-376 391,-358 360,-358"/>
<polygon fill="none" stroke="black" points="360,-358 360,-376 391,-376 391,-358 360,-358"/>
<text text-anchor="start" x="372" y="-364.2" font-family="Helvetica,sans-Serif" font-size="11.00">1 &gt;</text>
</a>
</g>
</g>
<!-- observation_photos&#45;&gt;public.files -->
<g id="edge1" class="edge">
<title>observation_photos:w&#45;&gt;public.files:e</title>
<path fill="none" stroke="black" d="M507.57,-303.05C493.48,-309.72 495.59,-331.09 478,-344 443.87,-369.06 434.34,-385 392,-385"/>
<polygon fill="black" stroke="black" points="516.44,-297.23 517.99,-305.08 516.42,-305.39 514.87,-297.54 516.44,-297.23"/>
<polyline fill="none" stroke="black" points="518,-301 514.08,-301.77 "/>
<ellipse fill="none" stroke="black" cx="510.94" cy="-302.39" rx="3.2" ry="3.2"/>
</g>
<!-- monitoring_plots -->
<g id="node3" class="node">
<title>monitoring_plots</title>
<g id="a_node3"><a xlink:href="../../tables/monitoring_plots.html" xlink:title="monitoring_plots" target="_top">
<polygon fill="#ffffff" stroke="transparent" points="8,-208 8,-266 153,-266 153,-208 8,-208"/>
<polygon fill="#f5f5f5" stroke="transparent" points="8.5,-244 8.5,-266 153.5,-266 153.5,-244 8.5,-244"/>
<polygon fill="none" stroke="black" points="8.5,-244 8.5,-266 153.5,-266 153.5,-244 8.5,-244"/>
<text text-anchor="start" x="13.5" y="-253.2" font-family="Helvetica,sans-Serif" font-weight="bold" font-size="11.00">monitoring_plots</text>
<text text-anchor="start" x="114.5" y="-252.2" font-family="Helvetica,sans-Serif" font-size="11.00">[table]</text>
<polygon fill="none" stroke="black" points="8.5,-226 8.5,-244 153.5,-244 153.5,-226 8.5,-226"/>
<text text-anchor="start" x="11.5" y="-232.2" font-family="Helvetica,sans-Serif" font-size="11.00">...</text>
<polygon fill="#ffffff" stroke="transparent" points="8.5,-208 8.5,-226 71.5,-226 71.5,-208 8.5,-208"/>
<polygon fill="none" stroke="black" points="8.5,-208 8.5,-226 71.5,-226 71.5,-208 8.5,-208"/>
<text text-anchor="start" x="11.5" y="-214.2" font-family="Helvetica,sans-Serif" font-size="11.00">&lt; 5</text>
<polygon fill="#ffffff" stroke="transparent" points="71.5,-208 71.5,-226 104.5,-226 104.5,-208 71.5,-208"/>
<polygon fill="none" stroke="black" points="71.5,-208 71.5,-226 104.5,-226 104.5,-208 71.5,-208"/>
<text text-anchor="start" x="94.5" y="-214.2" font-family="Helvetica,sans-Serif" font-size="11.00"> &#160;</text>
<polygon fill="#ffffff" stroke="transparent" points="104.5,-208 104.5,-226 153.5,-226 153.5,-208 104.5,-208"/>
<polygon fill="none" stroke="black" points="104.5,-208 104.5,-226 153.5,-226 153.5,-208 104.5,-208"/>
<text text-anchor="start" x="128.5" y="-214.2" font-family="Helvetica,sans-Serif" font-size="11.00">16 &gt;</text>
</a>
</g>
</g>
<!-- observation_photos&#45;&gt;monitoring_plots -->
<g id="edge2" class="edge">
<title>observation_photos:w&#45;&gt;monitoring_plots:e</title>
<path fill="none" stroke="black" d="M503.79,-254.12C495.83,-250.49 490.67,-244.44 478,-242 336.78,-214.81 298.31,-235 154.5,-235"/>
<polygon fill="black" stroke="black" points="510.16,-255.41 517.28,-260.53 514.08,-256.21 518,-257 518,-257 518,-257 514.08,-256.21 518.72,-253.47 510.16,-255.41 510.16,-255.41"/>
<ellipse fill="none" stroke="black" cx="507.02" cy="-254.78" rx="3.2" ry="3.2"/>
</g>
<!-- observation_plots -->
<g id="node4" class="node">
<title>observation_plots</title>
<g id="a_node4"><a xlink:href="../../tables/observation_plots.html" xlink:title="observation_plots" target="_top">
<polygon fill="#ffffff" stroke="transparent" points="261,-252 261,-310 411,-310 411,-252 261,-252"/>
<polygon fill="#f5f5f5" stroke="transparent" points="261,-288 261,-310 411,-310 411,-288 261,-288"/>
<polygon fill="none" stroke="black" points="261,-288 261,-310 411,-310 411,-288 261,-288"/>
<text text-anchor="start" x="266" y="-297.2" font-family="Helvetica,sans-Serif" font-weight="bold" font-size="11.00">observation_plots</text>
<text text-anchor="start" x="372" y="-296.2" font-family="Helvetica,sans-Serif" font-size="11.00">[table]</text>
<polygon fill="none" stroke="black" points="261,-270 261,-288 411,-288 411,-270 261,-270"/>
<text text-anchor="start" x="264" y="-276.2" font-family="Helvetica,sans-Serif" font-size="11.00">...</text>
<polygon fill="#ffffff" stroke="transparent" points="261,-252 261,-270 326,-270 326,-252 261,-252"/>
<polygon fill="none" stroke="black" points="261,-252 261,-270 326,-270 326,-252 261,-252"/>
<text text-anchor="start" x="264" y="-258.2" font-family="Helvetica,sans-Serif" font-size="11.00">&lt; 8</text>
<polygon fill="#ffffff" stroke="transparent" points="326,-252 326,-270 361,-270 361,-252 326,-252"/>
<polygon fill="none" stroke="black" points="326,-252 326,-270 361,-270 361,-252 326,-252"/>
<text text-anchor="start" x="351" y="-258.2" font-family="Helvetica,sans-Serif" font-size="11.00"> &#160;</text>
<polygon fill="#ffffff" stroke="transparent" points="361,-252 361,-270 411,-270 411,-252 361,-252"/>
<polygon fill="none" stroke="black" points="361,-252 361,-270 411,-270 411,-252 361,-252"/>
<text text-anchor="start" x="386" y="-258.2" font-family="Helvetica,sans-Serif" font-size="11.00">10 &gt;</text>
</a>
</g>
</g>
<!-- observation_photos&#45;&gt;observation_plots -->
<g id="edge3" class="edge">
<title>observation_photos:w&#45;&gt;observation_plots:e</title>
<path fill="none" stroke="black" d="M503.49,-257.73C467.29,-261.55 454.85,-279 412,-279"/>
<polygon fill="black" stroke="black" points="510.01,-257.4 518.18,-260.6 514.01,-257.2 518,-257 518,-257 518,-257 514.01,-257.2 517.82,-253.4 510.01,-257.4 510.01,-257.4"/>
<ellipse fill="none" stroke="black" cx="506.81" cy="-257.56" rx="3.2" ry="3.2"/>
</g>
<!-- observation_photos&#45;&gt;observation_plots -->
<g id="edge4" class="edge">
<title>observation_photos:w&#45;&gt;observation_plots:e</title>
<path fill="none" stroke="black" d="M503.25,-279C467.77,-279 453.77,-279 412,-279"/>
<polygon fill="black" stroke="black" points="510,-279 518,-282.6 514,-279 518,-279 518,-279 518,-279 514,-279 518,-275.4 510,-279 510,-279"/>
<ellipse fill="none" stroke="black" cx="506.8" cy="-279" rx="3.2" ry="3.2"/>
</g>
<!-- observations -->
<g id="node5" class="node">
<title>observations</title>
<g id="a_node5"><a xlink:href="../../tables/observations.html" xlink:title="observations" target="_top">
<polygon fill="#ffffff" stroke="transparent" points="20,-300 20,-358 141,-358 141,-300 20,-300"/>
<polygon fill="#f5f5f5" stroke="transparent" points="20.5,-336 20.5,-358 141.5,-358 141.5,-336 20.5,-336"/>
<polygon fill="none" stroke="black" points="20.5,-336 20.5,-358 141.5,-358 141.5,-336 20.5,-336"/>
<text text-anchor="start" x="25.5" y="-345.2" font-family="Helvetica,sans-Serif" font-weight="bold" font-size="11.00">observations</text>
<text text-anchor="start" x="102.5" y="-344.2" font-family="Helvetica,sans-Serif" font-size="11.00">[table]</text>
<polygon fill="none" stroke="black" points="20.5,-318 20.5,-336 141.5,-336 141.5,-318 20.5,-318"/>
<text text-anchor="start" x="23.5" y="-324.2" font-family="Helvetica,sans-Serif" font-size="11.00">...</text>
<polygon fill="#ffffff" stroke="transparent" points="20.5,-300 20.5,-318 71.5,-318 71.5,-300 20.5,-300"/>
<polygon fill="none" stroke="black" points="20.5,-300 20.5,-318 71.5,-318 71.5,-300 20.5,-300"/>
<text text-anchor="start" x="23.5" y="-306.2" font-family="Helvetica,sans-Serif" font-size="11.00">&lt; 4</text>
<polygon fill="#ffffff" stroke="transparent" points="71.5,-300 71.5,-318 98.5,-318 98.5,-300 71.5,-300"/>
<polygon fill="none" stroke="black" points="71.5,-300 71.5,-318 98.5,-318 98.5,-300 71.5,-300"/>
<text text-anchor="start" x="88.5" y="-306.2" font-family="Helvetica,sans-Serif" font-size="11.00"> &#160;</text>
<polygon fill="#ffffff" stroke="transparent" points="98.5,-300 98.5,-318 141.5,-318 141.5,-300 98.5,-300"/>
<polygon fill="none" stroke="black" points="98.5,-300 98.5,-318 141.5,-318 141.5,-300 98.5,-300"/>
<text text-anchor="start" x="116.5" y="-306.2" font-family="Helvetica,sans-Serif" font-size="11.00">16 &gt;</text>
</a>
</g>
</g>
<!-- observation_photos&#45;&gt;observations -->
<g id="edge5" class="edge">
<title>observation_photos:w&#45;&gt;observations:e</title>
<path fill="none" stroke="black" d="M504.19,-284.1C494.85,-293.49 495.7,-313.23 478,-321 409.73,-350.99 217.07,-327 142.5,-327"/>
<polygon fill="black" stroke="black" points="510.5,-281.77 519.25,-282.38 514.25,-280.39 518,-279 518,-279 518,-279 514.25,-280.39 516.75,-275.62 510.5,-281.77 510.5,-281.77"/>
<ellipse fill="none" stroke="black" cx="507.5" cy="-282.88" rx="3.2" ry="3.2"/>
</g>
<!-- observation_plot_positions -->
<g id="node6" class="node">
<title>observation_plot_positions</title>
<g id="a_node6"><a xlink:href="../../tables/observation_plot_positions.html" xlink:title="observation_plot_positions" target="_top">
<polygon fill="#ffffff" stroke="transparent" points="234,-146 234,-204 438,-204 438,-146 234,-146"/>
<polygon fill="#f5f5f5" stroke="transparent" points="234,-182 234,-204 438,-204 438,-182 234,-182"/>
<polygon fill="none" stroke="black" points="234,-182 234,-204 438,-204 438,-182 234,-182"/>
<text text-anchor="start" x="239" y="-191.2" font-family="Helvetica,sans-Serif" font-weight="bold" font-size="11.00">observation_plot_positions</text>
<text text-anchor="start" x="399" y="-190.2" font-family="Helvetica,sans-Serif" font-size="11.00">[table]</text>
<polygon fill="none" stroke="black" points="234,-164 234,-182 438,-182 438,-164 234,-164"/>
<text text-anchor="start" x="237" y="-170.2" font-family="Helvetica,sans-Serif" font-size="11.00">...</text>
<polygon fill="#ffffff" stroke="transparent" points="234,-146 234,-164 325,-164 325,-146 234,-146"/>
<polygon fill="none" stroke="black" points="234,-146 234,-164 325,-164 325,-146 234,-146"/>
<text text-anchor="start" x="237" y="-152.2" font-family="Helvetica,sans-Serif" font-size="11.00"> &#160;</text>
<polygon fill="#ffffff" stroke="transparent" points="325,-146 325,-164 377,-164 377,-146 325,-146"/>
<polygon fill="none" stroke="black" points="325,-146 325,-164 377,-164 377,-146 325,-146"/>
<text text-anchor="start" x="367" y="-152.2" font-family="Helvetica,sans-Serif" font-size="11.00"> &#160;</text>
<polygon fill="#ffffff" stroke="transparent" points="377,-146 377,-164 438,-164 438,-146 377,-146"/>
<polygon fill="none" stroke="black" points="377,-146 377,-164 438,-164 438,-146 377,-146"/>
<text text-anchor="start" x="419" y="-152.2" font-family="Helvetica,sans-Serif" font-size="11.00">4 &gt;</text>
</a>
</g>
</g>
<!-- observation_photos&#45;&gt;observation_plot_positions -->
<g id="edge6" class="edge">
<title>observation_photos:w&#45;&gt;observation_plot_positions:e</title>
<path fill="none" stroke="black" d="M503.62,-232.34C475.08,-220.47 478.05,-173 439,-173"/>
<polygon fill="black" stroke="black" points="510.13,-233.54 517.34,-238.54 514.07,-234.27 518,-235 518,-235 518,-235 514.07,-234.27 518.66,-231.46 510.13,-233.54 510.13,-233.54"/>
<ellipse fill="none" stroke="black" cx="506.99" cy="-232.96" rx="3.2" ry="3.2"/>
</g>
<!-- observation_photo_types -->
<g id="node7" class="node">
<title>observation_photo_types</title>
<g id="a_node7"><a xlink:href="../../tables/observation_photo_types.html" xlink:title="observation_photo_types" target="_top">
<polygon fill="#ffffff" stroke="transparent" points="202,-37 202,-125 470,-125 470,-37 202,-37"/>
<polygon fill="#f5f5f5" stroke="transparent" points="204,-101 204,-123 468,-123 468,-101 204,-101"/>
<polygon fill="none" stroke="black" points="204,-101 204,-123 468,-123 468,-101 204,-101"/>
<text text-anchor="start" x="209" y="-110.2" font-family="Helvetica,sans-Serif" font-weight="bold" font-size="11.00">observation_photo_types</text>
<text text-anchor="start" x="429" y="-109.2" font-family="Helvetica,sans-Serif" font-size="11.00">[table]</text>
<polygon fill="none" stroke="black" points="204,-79 204,-101 374,-101 374,-79 204,-79"/>
<image xlink:href="../../images/primaryKeys.png" width="11px" height="12px" preserveAspectRatio="xMinYMin meet" x="209" y="-96"/>
<text text-anchor="start" x="224" y="-87.2" font-family="Helvetica,sans-Serif" font-size="11.00">id</text>
<polygon fill="none" stroke="black" points="374,-79 374,-101 468,-101 468,-79 374,-79"/>
<text text-anchor="start" x="377" y="-87.2" font-family="Helvetica,sans-Serif" font-size="11.00">int4[10]</text>
<polygon fill="#ffffff" stroke="transparent" points="204,-57 204,-79 374,-79 374,-57 204,-57"/>
<polygon fill="none" stroke="black" points="204,-57 204,-79 374,-79 374,-57 204,-57"/>
<text text-anchor="start" x="224" y="-65.2" font-family="Helvetica,sans-Serif" font-size="11.00">name</text>
<polygon fill="none" stroke="black" points="374,-57 374,-79 468,-79 468,-57 374,-57"/>
<text text-anchor="start" x="377" y="-65.2" font-family="Helvetica,sans-Serif" font-size="11.00">text[2147483647]</text>
<polygon fill="#ffffff" stroke="transparent" points="204,-39 204,-57 293,-57 293,-39 204,-39"/>
<polygon fill="none" stroke="black" points="204,-39 204,-57 293,-57 293,-39 204,-39"/>
<text text-anchor="start" x="207" y="-45.2" font-family="Helvetica,sans-Serif" font-size="11.00">&lt; 0</text>
<polygon fill="#ffffff" stroke="transparent" points="293,-39 293,-57 374,-57 374,-39 293,-39"/>
<polygon fill="none" stroke="black" points="293,-39 293,-57 374,-57 374,-39 293,-39"/>
<text text-anchor="start" x="364" y="-45.2" font-family="Helvetica,sans-Serif" font-size="11.00"> &#160;</text>
<polygon fill="#ffffff" stroke="transparent" points="374,-39 374,-57 468,-57 468,-39 374,-39"/>
<polygon fill="none" stroke="black" points="374,-39 374,-57 468,-57 468,-39 374,-39"/>
<text text-anchor="start" x="449" y="-45.2" font-family="Helvetica,sans-Serif" font-size="11.00">1 &gt;</text>
<polygon fill="none" stroke="black" stroke-width="2" points="203,-38 203,-124 469,-124 469,-38 203,-38"/>
</a>
</g>
</g>
<!-- observation_photos&#45;&gt;observation_photo_types -->
<g id="edge7" class="edge">
<title>observation_photos:w&#45;&gt;observation_photo_types:e</title>
<path fill="none" stroke="black" d="M503.75,-209.45C471.79,-189.28 521.87,-90 469,-90"/>
<polygon fill="black" stroke="black" points="510.24,-211.07 517.13,-216.49 514.12,-212.03 518,-213 518,-213 518,-213 514.12,-212.03 518.87,-209.51 510.24,-211.07 510.24,-211.07"/>
<ellipse fill="none" stroke="black" cx="507.13" cy="-210.29" rx="3.2" ry="3.2"/>
</g>
<!-- observation_plots&#45;&gt;monitoring_plots -->
<g id="edge8" class="edge">
<title>observation_plots:w&#45;&gt;monitoring_plots:e</title>
<path fill="none" stroke="black" d="M245.38,-277.63C207.85,-270.21 199.95,-235 154.5,-235"/>
<polygon fill="black" stroke="black" points="252.03,-278.26 259.67,-282.58 256.02,-278.63 260,-279 260,-279 260,-279 256.02,-278.63 260.33,-275.42 252.03,-278.26 252.03,-278.26"/>
<ellipse fill="none" stroke="black" cx="248.85" cy="-277.96" rx="3.2" ry="3.2"/>
</g>
<!-- observation_plots&#45;&gt;observations -->
<g id="edge9" class="edge">
<title>observation_plots:w&#45;&gt;observations:e</title>
<path fill="none" stroke="black" d="M245.41,-280.19C202.26,-287.58 193.62,-327 142.5,-327"/>
<polygon fill="black" stroke="black" points="252.03,-279.65 260.29,-282.59 256.01,-279.32 260,-279 260,-279 260,-279 256.01,-279.32 259.71,-275.41 252.03,-279.65 252.03,-279.65"/>
<ellipse fill="none" stroke="black" cx="248.84" cy="-279.91" rx="3.2" ry="3.2"/>
</g>
</g>
</svg>
