<?xml version="1.0" encoding="UTF-8" standalone="no"?>
<!DOCTYPE svg PUBLIC "-//W3C//DTD SVG 1.1//EN"
 "http://www.w3.org/Graphics/SVG/1.1/DTD/svg11.dtd">
<!-- Generated by graphviz version 2.38.0 (20140413.2041)
 -->
<!-- Title: oneDegreeRelationshipsDiagram Pages: 1 -->
<svg width="583pt" height="546pt"
 viewBox="0.00 0.00 583.00 546.00" xmlns="http://www.w3.org/2000/svg" xmlns:xlink="http://www.w3.org/1999/xlink">
<g id="graph0" class="graph" transform="scale(1 1) rotate(0) translate(4 542)">
<title>oneDegreeRelationshipsDiagram</title>
<polygon fill="#ffffff" stroke="none" points="-4,4 -4,-542 579,-542 579,4 -4,4"/>
<text text-anchor="middle" x="74.5" y="-7.2" font-family="Helvetica,sans-Serif" font-size="11.00">Generated by SchemaSpy</text>
<!-- observed_plot_species_totals -->
<g id="node1" class="node"><title>observed_plot_species_totals</title>
<g id="a_node1"><a xlink:href="../../tables/observed_plot_species_totals.html" xlink:title="observed_plot_species_totals" target="_top">
<polygon fill="#ffffff" stroke="none" points="270,-89 270,-331 567,-331 567,-89 270,-89"/>
<polygon fill="#f5f5f5" stroke="none" points="272.5,-307 272.5,-329 565.5,-329 565.5,-307 272.5,-307"/>
<polygon fill="none" stroke="black" points="272.5,-307 272.5,-329 565.5,-329 565.5,-307 272.5,-307"/>
<text text-anchor="start" x="277.5" y="-316.2" font-family="Helvetica,sans-Serif" font-weight="bold" font-size="11.00">observed_plot_species_totals</text>
<text text-anchor="start" x="526.5" y="-315.2" font-family="Helvetica,sans-Serif" font-size="11.00">[table]</text>
<polygon fill="#ffffff" stroke="none" points="272.5,-285 272.5,-307 464.5,-307 464.5,-285 272.5,-285"/>
<polygon fill="none" stroke="black" points="272.5,-285 272.5,-307 464.5,-307 464.5,-285 272.5,-285"/>
<image xlink:href="../../images/foreignKeys.png" width="11px" height="12px" preserveAspectRatio="xMinYMin meet" x="277.5" y="-302"/>
<text text-anchor="start" x="292.5" y="-293.2" font-family="Helvetica,sans-Serif" font-size="11.00">observation_id</text>
<polygon fill="none" stroke="black" points="464.5,-285 464.5,-307 565.5,-307 565.5,-285 464.5,-285"/>
<text text-anchor="start" x="467.5" y="-293.2" font-family="Helvetica,sans-Serif" font-size="11.00">int8[19]</text>
<polygon fill="#ffffff" stroke="none" points="272.5,-263 272.5,-285 464.5,-285 464.5,-263 272.5,-263"/>
<polygon fill="none" stroke="black" points="272.5,-263 272.5,-285 464.5,-285 464.5,-263 272.5,-263"/>
<image xlink:href="../../images/foreignKeys.png" width="11px" height="12px" preserveAspectRatio="xMinYMin meet" x="277.5" y="-280"/>
<text text-anchor="start" x="292.5" y="-271.2" font-family="Helvetica,sans-Serif" font-size="11.00">monitoring_plot_id</text>
<polygon fill="none" stroke="black" points="464.5,-263 464.5,-285 565.5,-285 565.5,-263 464.5,-263"/>
<text text-anchor="start" x="467.5" y="-271.2" font-family="Helvetica,sans-Serif" font-size="11.00">int8[19]</text>
<polygon fill="#ffffff" stroke="none" points="272.5,-241 272.5,-263 464.5,-263 464.5,-241 272.5,-241"/>
<polygon fill="none" stroke="black" points="272.5,-241 272.5,-263 464.5,-263 464.5,-241 272.5,-241"/>
<image xlink:href="../../images/foreignKeys.png" width="11px" height="12px" preserveAspectRatio="xMinYMin meet" x="277.5" y="-258"/>
<text text-anchor="start" x="292.5" y="-249.2" font-family="Helvetica,sans-Serif" font-size="11.00">species_id</text>
<polygon fill="none" stroke="black" points="464.5,-241 464.5,-263 565.5,-263 565.5,-241 464.5,-241"/>
<text text-anchor="start" x="467.5" y="-249.2" font-family="Helvetica,sans-Serif" font-size="11.00">int8[19]</text>
<polygon fill="#ffffff" stroke="none" points="272.5,-219 272.5,-241 464.5,-241 464.5,-219 272.5,-219"/>
<polygon fill="none" stroke="black" points="272.5,-219 272.5,-241 464.5,-241 464.5,-219 272.5,-219"/>
<text text-anchor="start" x="292.5" y="-227.2" font-family="Helvetica,sans-Serif" font-size="11.00">species_name</text>
<polygon fill="none" stroke="black" points="464.5,-219 464.5,-241 565.5,-241 565.5,-219 464.5,-219"/>
<text text-anchor="start" x="467.5" y="-227.2" font-family="Helvetica,sans-Serif" font-size="11.00">text[2147483647]</text>
<polygon fill="none" stroke="black" points="272.5,-197 272.5,-219 464.5,-219 464.5,-197 272.5,-197"/>
<image xlink:href="../../images/foreignKeys.png" width="11px" height="12px" preserveAspectRatio="xMinYMin meet" x="277.5" y="-214"/>
<text text-anchor="start" x="292.5" y="-205.2" font-family="Helvetica,sans-Serif" font-size="11.00">certainty_id</text>
<polygon fill="none" stroke="black" points="464.5,-197 464.5,-219 565.5,-219 565.5,-197 464.5,-197"/>
<text text-anchor="start" x="467.5" y="-205.2" font-family="Helvetica,sans-Serif" font-size="11.00">int4[10]</text>
<polygon fill="none" stroke="black" points="272.5,-175 272.5,-197 464.5,-197 464.5,-175 272.5,-175"/>
<text text-anchor="start" x="292.5" y="-183.2" font-family="Helvetica,sans-Serif" font-size="11.00">total_live</text>
<polygon fill="none" stroke="black" points="464.5,-175 464.5,-197 565.5,-197 565.5,-175 464.5,-175"/>
<text text-anchor="start" x="467.5" y="-183.2" font-family="Helvetica,sans-Serif" font-size="11.00">int4[10]</text>
<polygon fill="none" stroke="black" points="272.5,-153 272.5,-175 464.5,-175 464.5,-153 272.5,-153"/>
<text text-anchor="start" x="292.5" y="-161.2" font-family="Helvetica,sans-Serif" font-size="11.00">total_dead</text>
<polygon fill="none" stroke="black" points="464.5,-153 464.5,-175 565.5,-175 565.5,-153 464.5,-153"/>
<text text-anchor="start" x="467.5" y="-161.2" font-family="Helvetica,sans-Serif" font-size="11.00">int4[10]</text>
<polygon fill="none" stroke="black" points="272.5,-131 272.5,-153 464.5,-153 464.5,-131 272.5,-131"/>
<text text-anchor="start" x="292.5" y="-139.2" font-family="Helvetica,sans-Serif" font-size="11.00">total_existing</text>
<polygon fill="none" stroke="black" points="464.5,-131 464.5,-153 565.5,-153 565.5,-131 464.5,-131"/>
<text text-anchor="start" x="467.5" y="-139.2" font-family="Helvetica,sans-Serif" font-size="11.00">int4[10]</text>
<polygon fill="none" stroke="black" points="272.5,-109 272.5,-131 464.5,-131 464.5,-109 272.5,-109"/>
<text text-anchor="start" x="292.5" y="-117.2" font-family="Helvetica,sans-Serif" font-size="11.00">mortality_rate</text>
<polygon fill="none" stroke="black" points="464.5,-109 464.5,-131 565.5,-131 565.5,-109 464.5,-109"/>
<text text-anchor="start" x="467.5" y="-117.2" font-family="Helvetica,sans-Serif" font-size="11.00">int4[10]</text>
<polygon fill="#ffffff" stroke="none" points="272.5,-91 272.5,-109 358.5,-109 358.5,-91 272.5,-91"/>
<polygon fill="none" stroke="black" points="272.5,-91 272.5,-109 358.5,-109 358.5,-91 272.5,-91"/>
<text text-anchor="start" x="275.5" y="-97.2" font-family="Helvetica,sans-Serif" font-size="11.00">&lt; 4</text>
<polygon fill="#ffffff" stroke="none" points="358.5,-91 358.5,-109 464.5,-109 464.5,-91 358.5,-91"/>
<polygon fill="none" stroke="black" points="358.5,-91 358.5,-109 464.5,-109 464.5,-91 358.5,-91"/>
<text text-anchor="start" x="425.5" y="-97.2" font-family="Helvetica,sans-Serif" font-size="11.00">0 rows</text>
<polygon fill="#ffffff" stroke="none" points="464.5,-91 464.5,-109 565.5,-109 565.5,-91 464.5,-91"/>
<polygon fill="none" stroke="black" points="464.5,-91 464.5,-109 565.5,-109 565.5,-91 464.5,-91"/>
<text text-anchor="start" x="545.5" y="-97.2" font-family="Helvetica,sans-Serif" font-size="11.00">0 &gt;</text>
<polygon fill="none" stroke="black" stroke-width="2" points="271,-90 271,-330 566,-330 566,-90 271,-90"/>
</a>
</g>
</g>
<!-- recorded_species_certainties -->
<g id="node2" class="node"><title>recorded_species_certainties</title>
<g id="a_node2"><a xlink:href="../../tables/recorded_species_certainties.html" xlink:title="recorded_species_certainties" target="_top">
<polygon fill="#ffffff" stroke="none" points="8,-37 8,-121 221,-121 221,-37 8,-37"/>
<polygon fill="#f5f5f5" stroke="none" points="8.5,-99 8.5,-121 221.5,-121 221.5,-99 8.5,-99"/>
<polygon fill="none" stroke="black" points="8.5,-99 8.5,-121 221.5,-121 221.5,-99 8.5,-99"/>
<text text-anchor="start" x="13.5" y="-108.2" font-family="Helvetica,sans-Serif" font-weight="bold" font-size="11.00">recorded_species_certainties</text>
<text text-anchor="start" x="182.5" y="-107.2" font-family="Helvetica,sans-Serif" font-size="11.00">[table]</text>
<polygon fill="none" stroke="black" points="8.5,-77 8.5,-99 221.5,-99 221.5,-77 8.5,-77"/>
<image xlink:href="../../images/primaryKeys.png" width="11px" height="12px" preserveAspectRatio="xMinYMin meet" x="13.5" y="-94"/>
<text text-anchor="start" x="39.5" y="-85.2" font-family="Helvetica,sans-Serif" font-size="11.00">id</text>
<polygon fill="#ffffff" stroke="none" points="8.5,-55 8.5,-77 221.5,-77 221.5,-55 8.5,-55"/>
<polygon fill="none" stroke="black" points="8.5,-55 8.5,-77 221.5,-77 221.5,-55 8.5,-55"/>
<text text-anchor="start" x="39.5" y="-63.2" font-family="Helvetica,sans-Serif" font-size="11.00">name</text>
<polygon fill="#ffffff" stroke="none" points="8.5,-37 8.5,-55 88.5,-55 88.5,-37 8.5,-37"/>
<polygon fill="none" stroke="black" points="8.5,-37 8.5,-55 88.5,-55 88.5,-37 8.5,-37"/>
<text text-anchor="start" x="11.5" y="-43.2" font-family="Helvetica,sans-Serif" font-size="11.00"> &#160;</text>
<polygon fill="#ffffff" stroke="none" points="88.5,-37 88.5,-55 164.5,-55 164.5,-37 88.5,-37"/>
<polygon fill="none" stroke="black" points="88.5,-37 88.5,-55 164.5,-55 164.5,-37 88.5,-37"/>
<text text-anchor="start" x="125.5" y="-43.2" font-family="Helvetica,sans-Serif" font-size="11.00">3 rows</text>
<polygon fill="#ffffff" stroke="none" points="164.5,-37 164.5,-55 221.5,-55 221.5,-37 164.5,-37"/>
<polygon fill="none" stroke="black" points="164.5,-37 164.5,-55 221.5,-55 221.5,-37 164.5,-37"/>
<text text-anchor="start" x="201.5" y="-43.2" font-family="Helvetica,sans-Serif" font-size="11.00">4 &gt;</text>
</a>
</g>
</g>
<!-- observed_plot_species_totals&#45;&gt;recorded_species_certainties -->
<g id="edge1" class="edge"><title>observed_plot_species_totals:certainty_id:w&#45;&gt;recorded_species_certainties:id:e</title>
<path fill="none" stroke="black" d="M257.52,-204.538C226.065,-184.863 274.257,-88 222.5,-88"/>
<polygon fill="black" stroke="black" points="263.735,-206.077 270.635,-211.494 267.617,-207.038 271.5,-208 271.5,-208 271.5,-208 267.617,-207.038 272.365,-204.506 263.735,-206.077 263.735,-206.077"/>
<ellipse fill="none" stroke="black" cx="260.628" cy="-205.308" rx="3.2" ry="3.2"/>
</g>
<!-- monitoring_plots -->
<g id="node3" class="node"><title>monitoring_plots</title>
<g id="a_node3"><a xlink:href="../../tables/monitoring_plots.html" xlink:title="monitoring_plots" target="_top">
<polygon fill="#ffffff" stroke="none" points="22.5,-221 22.5,-389 206.5,-389 206.5,-221 22.5,-221"/>
<polygon fill="#f5f5f5" stroke="none" points="22.5,-367 22.5,-389 206.5,-389 206.5,-367 22.5,-367"/>
<polygon fill="none" stroke="black" points="22.5,-367 22.5,-389 206.5,-389 206.5,-367 22.5,-367"/>
<text text-anchor="start" x="27.5" y="-376.2" font-family="Helvetica,sans-Serif" font-weight="bold" font-size="11.00">monitoring_plots</text>
<text text-anchor="start" x="167.5" y="-375.2" font-family="Helvetica,sans-Serif" font-size="11.00">[table]</text>
<polygon fill="none" stroke="black" points="22.5,-345 22.5,-367 206.5,-367 206.5,-345 22.5,-345"/>
<image xlink:href="../../images/primaryKeys.png" width="11px" height="12px" preserveAspectRatio="xMinYMin meet" x="27.5" y="-362"/>
<text text-anchor="start" x="42.5" y="-353.2" font-family="Helvetica,sans-Serif" font-size="11.00">id</text>
<polygon fill="#ffffff" stroke="none" points="22.5,-323 22.5,-345 206.5,-345 206.5,-323 22.5,-323"/>
<polygon fill="none" stroke="black" points="22.5,-323 22.5,-345 206.5,-345 206.5,-323 22.5,-323"/>
<image xlink:href="../../images/foreignKeys.png" width="11px" height="12px" preserveAspectRatio="xMinYMin meet" x="27.5" y="-340"/>
<text text-anchor="start" x="42.5" y="-331.2" font-family="Helvetica,sans-Serif" font-size="11.00">planting_subzone_id</text>
<polygon fill="#ffffff" stroke="none" points="22.5,-301 22.5,-323 206.5,-323 206.5,-301 22.5,-301"/>
<polygon fill="none" stroke="black" points="22.5,-301 22.5,-323 206.5,-323 206.5,-301 22.5,-301"/>
<text text-anchor="start" x="42.5" y="-309.2" font-family="Helvetica,sans-Serif" font-size="11.00">name</text>
<polygon fill="none" stroke="black" points="22.5,-279 22.5,-301 206.5,-301 206.5,-279 22.5,-279"/>
<image xlink:href="../../images/foreignKeys.png" width="11px" height="12px" preserveAspectRatio="xMinYMin meet" x="27.5" y="-296"/>
<text text-anchor="start" x="42.5" y="-287.2" font-family="Helvetica,sans-Serif" font-size="11.00">created_by</text>
<polygon fill="none" stroke="black" points="22.5,-257 22.5,-279 206.5,-279 206.5,-257 22.5,-257"/>
<image xlink:href="../../images/foreignKeys.png" width="11px" height="12px" preserveAspectRatio="xMinYMin meet" x="27.5" y="-274"/>
<text text-anchor="start" x="42.5" y="-265.2" font-family="Helvetica,sans-Serif" font-size="11.00">modified_by</text>
<polygon fill="none" stroke="black" points="22.5,-239 22.5,-257 206.5,-257 206.5,-239 22.5,-239"/>
<text text-anchor="start" x="25.5" y="-245.2" font-family="Helvetica,sans-Serif" font-size="11.00">...</text>
<polygon fill="#ffffff" stroke="none" points="22.5,-221 22.5,-239 93.5,-239 93.5,-221 22.5,-221"/>
<polygon fill="none" stroke="black" points="22.5,-221 22.5,-239 93.5,-239 93.5,-221 22.5,-221"/>
<text text-anchor="start" x="25.5" y="-227.2" font-family="Helvetica,sans-Serif" font-size="11.00">&lt; 3</text>
<polygon fill="#ffffff" stroke="none" points="93.5,-221 93.5,-239 159.5,-239 159.5,-221 93.5,-221"/>
<polygon fill="none" stroke="black" points="93.5,-221 93.5,-239 159.5,-239 159.5,-221 93.5,-221"/>
<text text-anchor="start" x="120.5" y="-227.2" font-family="Helvetica,sans-Serif" font-size="11.00">0 rows</text>
<polygon fill="#ffffff" stroke="none" points="159.5,-221 159.5,-239 206.5,-239 206.5,-221 159.5,-221"/>
<polygon fill="none" stroke="black" points="159.5,-221 159.5,-239 206.5,-239 206.5,-221 159.5,-221"/>
<text text-anchor="start" x="186.5" y="-227.2" font-family="Helvetica,sans-Serif" font-size="11.00">5 &gt;</text>
</a>
</g>
</g>
<!-- observed_plot_species_totals&#45;&gt;monitoring_plots -->
<g id="edge2" class="edge"><title>observed_plot_species_totals:monitoring_plot_id:w&#45;&gt;monitoring_plots:id:e</title>
<path fill="none" stroke="black" d="M257.373,-277.523C231.218,-293.219 247.952,-356 207.5,-356"/>
<polygon fill="black" stroke="black" points="263.738,-275.936 272.371,-277.493 267.619,-274.968 271.5,-274 271.5,-274 271.5,-274 267.619,-274.968 270.629,-270.507 263.738,-275.936 263.738,-275.936"/>
<ellipse fill="none" stroke="black" cx="260.633" cy="-276.71" rx="3.2" ry="3.2"/>
</g>
<!-- observations -->
<g id="node4" class="node"><title>observations</title>
<g id="a_node4"><a xlink:href="../../tables/observations.html" xlink:title="observations" target="_top">
<polygon fill="#ffffff" stroke="none" points="53.5,-410 53.5,-534 175.5,-534 175.5,-410 53.5,-410"/>
<polygon fill="#f5f5f5" stroke="none" points="53.5,-512 53.5,-534 175.5,-534 175.5,-512 53.5,-512"/>
<polygon fill="none" stroke="black" points="53.5,-512 53.5,-534 175.5,-534 175.5,-512 53.5,-512"/>
<text text-anchor="start" x="58.5" y="-521.2" font-family="Helvetica,sans-Serif" font-weight="bold" font-size="11.00">observations</text>
<text text-anchor="start" x="136.5" y="-520.2" font-family="Helvetica,sans-Serif" font-size="11.00">[table]</text>
<polygon fill="none" stroke="black" points="53.5,-490 53.5,-512 175.5,-512 175.5,-490 53.5,-490"/>
<image xlink:href="../../images/primaryKeys.png" width="11px" height="12px" preserveAspectRatio="xMinYMin meet" x="58.5" y="-507"/>
<text text-anchor="start" x="76.5" y="-498.2" font-family="Helvetica,sans-Serif" font-size="11.00">id</text>
<polygon fill="#ffffff" stroke="none" points="53.5,-468 53.5,-490 175.5,-490 175.5,-468 53.5,-468"/>
<polygon fill="none" stroke="black" points="53.5,-468 53.5,-490 175.5,-490 175.5,-468 53.5,-468"/>
<image xlink:href="../../images/foreignKeys.png" width="11px" height="12px" preserveAspectRatio="xMinYMin meet" x="58.5" y="-485"/>
<text text-anchor="start" x="76.5" y="-476.2" font-family="Helvetica,sans-Serif" font-size="11.00">planting_site_id</text>
<polygon fill="none" stroke="black" points="53.5,-446 53.5,-468 175.5,-468 175.5,-446 53.5,-446"/>
<image xlink:href="../../images/foreignKeys.png" width="11px" height="12px" preserveAspectRatio="xMinYMin meet" x="58.5" y="-463"/>
<text text-anchor="start" x="76.5" y="-454.2" font-family="Helvetica,sans-Serif" font-size="11.00">state_id</text>
<polygon fill="none" stroke="black" points="53.5,-428 53.5,-446 175.5,-446 175.5,-428 53.5,-428"/>
<text text-anchor="start" x="56.5" y="-434.2" font-family="Helvetica,sans-Serif" font-size="11.00">...</text>
<polygon fill="#ffffff" stroke="none" points="53.5,-410 53.5,-428 93.5,-428 93.5,-410 53.5,-410"/>
<polygon fill="none" stroke="black" points="53.5,-410 53.5,-428 93.5,-428 93.5,-410 53.5,-410"/>
<text text-anchor="start" x="56.5" y="-416.2" font-family="Helvetica,sans-Serif" font-size="11.00">&lt; 2</text>
<polygon fill="#ffffff" stroke="none" points="93.5,-410 93.5,-428 143.5,-428 143.5,-410 93.5,-410"/>
<polygon fill="none" stroke="black" points="93.5,-410 93.5,-428 143.5,-428 143.5,-410 93.5,-410"/>
<text text-anchor="start" x="104.5" y="-416.2" font-family="Helvetica,sans-Serif" font-size="11.00">0 rows</text>
<polygon fill="#ffffff" stroke="none" points="143.5,-410 143.5,-428 175.5,-428 175.5,-410 143.5,-410"/>
<polygon fill="none" stroke="black" points="143.5,-410 143.5,-428 175.5,-428 175.5,-410 143.5,-410"/>
<text text-anchor="start" x="155.5" y="-416.2" font-family="Helvetica,sans-Serif" font-size="11.00">7 &gt;</text>
</a>
</g>
</g>
<!-- observed_plot_species_totals&#45;&gt;observations -->
<g id="edge3" class="edge"><title>observed_plot_species_totals:observation_id:w&#45;&gt;observations:id:e</title>
<path fill="none" stroke="black" d="M256.968,-298.302C227.548,-309.572 247.522,-359.999 229,-400 207.742,-445.908 227.091,-501 176.5,-501"/>
<polygon fill="black" stroke="black" points="263.599,-297.252 272.063,-299.556 267.549,-296.626 271.5,-296 271.5,-296 271.5,-296 267.549,-296.626 270.937,-292.444 263.599,-297.252 263.599,-297.252"/>
<ellipse fill="none" stroke="black" cx="260.438" cy="-297.752" rx="3.2" ry="3.2"/>
</g>
<!-- public.species -->
<g id="node5" class="node"><title>public.species</title>
<g id="a_node5"><a xlink:href="../../../public/tables/species.html" xlink:title="public.species" target="_top">
<polygon fill="#ffffff" stroke="none" points="50,-142 50,-200 179,-200 179,-142 50,-142"/>
<polygon fill="#f5f5f5" stroke="none" points="50.5,-178 50.5,-200 179.5,-200 179.5,-178 50.5,-178"/>
<polygon fill="none" stroke="black" points="50.5,-178 50.5,-200 179.5,-200 179.5,-178 50.5,-178"/>
<text text-anchor="start" x="55.5" y="-187.2" font-family="Helvetica,sans-Serif" font-weight="bold" font-size="11.00">public.species</text>
<text text-anchor="start" x="140.5" y="-186.2" font-family="Helvetica,sans-Serif" font-size="11.00">[table]</text>
<polygon fill="none" stroke="black" points="50.5,-160 50.5,-178 179.5,-178 179.5,-160 50.5,-160"/>
<text text-anchor="start" x="53.5" y="-166.2" font-family="Helvetica,sans-Serif" font-size="11.00">...</text>
<polygon fill="#ffffff" stroke="none" points="50.5,-142 50.5,-160 88.5,-160 88.5,-142 50.5,-142"/>
<polygon fill="none" stroke="black" points="50.5,-142 50.5,-160 88.5,-160 88.5,-142 50.5,-142"/>
<text text-anchor="start" x="53.5" y="-148.2" font-family="Helvetica,sans-Serif" font-size="11.00"> &#160;</text>
<polygon fill="#ffffff" stroke="none" points="88.5,-142 88.5,-160 143.5,-160 143.5,-142 88.5,-142"/>
<polygon fill="none" stroke="black" points="88.5,-142 88.5,-160 143.5,-160 143.5,-142 88.5,-142"/>
<text text-anchor="start" x="104.5" y="-148.2" font-family="Helvetica,sans-Serif" font-size="11.00">0 rows</text>
<polygon fill="#ffffff" stroke="none" points="143.5,-142 143.5,-160 179.5,-160 179.5,-142 143.5,-142"/>
<polygon fill="none" stroke="black" points="143.5,-142 143.5,-160 179.5,-160 179.5,-142 143.5,-142"/>
<text text-anchor="start" x="159.5" y="-148.2" font-family="Helvetica,sans-Serif" font-size="11.00">8 &gt;</text>
</a>
</g>
</g>
<!-- observed_plot_species_totals&#45;&gt;public.species -->
<g id="edge4" class="edge"><title>observed_plot_species_totals:species_id:w&#45;&gt;public.species:id:e</title>
<path fill="none" stroke="black" d="M257.591,-248.039C246.543,-239.982 246.098,-221.557 229,-211 216.2,-203.097 201.622,-196.476 187.279,-191.04"/>
<polygon fill="black" stroke="black" points="263.806,-249.809 270.514,-255.462 267.653,-250.904 271.5,-252 271.5,-252 271.5,-252 267.653,-250.904 272.486,-248.538 263.806,-249.809 263.806,-249.809"/>
<ellipse fill="none" stroke="black" cx="260.728" cy="-248.932" rx="3.20001" ry="3.20001"/>
</g>
</g>
</svg>
