<?xml version="1.0" encoding="UTF-8" standalone="no"?>
<!DOCTYPE svg PUBLIC "-//W3C//DTD SVG 1.1//EN"
 "http://www.w3.org/Graphics/SVG/1.1/DTD/svg11.dtd">
<!-- Generated by graphviz version 2.38.0 (20140413.2041)
 -->
<!-- Title: oneDegreeRelationshipsDiagram Pages: 1 -->
<svg width="1157pt" height="518pt"
 viewBox="0.00 0.00 1157.00 517.72" xmlns="http://www.w3.org/2000/svg" xmlns:xlink="http://www.w3.org/1999/xlink">
<g id="graph0" class="graph" transform="scale(1 1) rotate(0) translate(4 513.717)">
<title>oneDegreeRelationshipsDiagram</title>
<polygon fill="#ffffff" stroke="none" points="-4,4 -4,-513.717 1153,-513.717 1153,4 -4,4"/>
<text text-anchor="middle" x="74.5" y="-7.2" font-family="Helvetica,sans-Serif" font-size="11.00">Generated by SchemaSpy</text>
<!-- monitoring_plots -->
<g id="node1" class="node"><title>monitoring_plots</title>
<g id="a_node1"><a xlink:href="../../tables/monitoring_plots.html" xlink:title="monitoring_plots" target="_top">
<polygon fill="#ffffff" stroke="none" points="957,-337.717 957,-505.717 1141,-505.717 1141,-337.717 957,-337.717"/>
<polygon fill="#f5f5f5" stroke="none" points="957,-483.717 957,-505.717 1141,-505.717 1141,-483.717 957,-483.717"/>
<polygon fill="none" stroke="black" points="957,-483.717 957,-505.717 1141,-505.717 1141,-483.717 957,-483.717"/>
<text text-anchor="start" x="962" y="-492.917" font-family="Helvetica,sans-Serif" font-weight="bold" font-size="11.00">monitoring_plots</text>
<text text-anchor="start" x="1102" y="-491.917" font-family="Helvetica,sans-Serif" font-size="11.00">[table]</text>
<polygon fill="none" stroke="black" points="957,-461.717 957,-483.717 1141,-483.717 1141,-461.717 957,-461.717"/>
<image xlink:href="../../images/primaryKeys.png" width="11px" height="12px" preserveAspectRatio="xMinYMin meet" x="962" y="-478.717"/>
<text text-anchor="start" x="977" y="-469.917" font-family="Helvetica,sans-Serif" font-size="11.00">id</text>
<polygon fill="#ffffff" stroke="none" points="957,-439.717 957,-461.717 1141,-461.717 1141,-439.717 957,-439.717"/>
<polygon fill="none" stroke="black" points="957,-439.717 957,-461.717 1141,-461.717 1141,-439.717 957,-439.717"/>
<image xlink:href="../../images/foreignKeys.png" width="11px" height="12px" preserveAspectRatio="xMinYMin meet" x="962" y="-456.717"/>
<text text-anchor="start" x="977" y="-447.917" font-family="Helvetica,sans-Serif" font-size="11.00">planting_subzone_id</text>
<polygon fill="#ffffff" stroke="none" points="957,-417.717 957,-439.717 1141,-439.717 1141,-417.717 957,-417.717"/>
<polygon fill="none" stroke="black" points="957,-417.717 957,-439.717 1141,-439.717 1141,-417.717 957,-417.717"/>
<text text-anchor="start" x="977" y="-425.917" font-family="Helvetica,sans-Serif" font-size="11.00">name</text>
<polygon fill="none" stroke="black" points="957,-395.717 957,-417.717 1141,-417.717 1141,-395.717 957,-395.717"/>
<image xlink:href="../../images/foreignKeys.png" width="11px" height="12px" preserveAspectRatio="xMinYMin meet" x="962" y="-412.717"/>
<text text-anchor="start" x="977" y="-403.917" font-family="Helvetica,sans-Serif" font-size="11.00">created_by</text>
<polygon fill="none" stroke="black" points="957,-373.717 957,-395.717 1141,-395.717 1141,-373.717 957,-373.717"/>
<image xlink:href="../../images/foreignKeys.png" width="11px" height="12px" preserveAspectRatio="xMinYMin meet" x="962" y="-390.717"/>
<text text-anchor="start" x="977" y="-381.917" font-family="Helvetica,sans-Serif" font-size="11.00">modified_by</text>
<polygon fill="none" stroke="black" points="957,-355.717 957,-373.717 1141,-373.717 1141,-355.717 957,-355.717"/>
<text text-anchor="start" x="960" y="-361.917" font-family="Helvetica,sans-Serif" font-size="11.00">...</text>
<polygon fill="#ffffff" stroke="none" points="957,-337.717 957,-355.717 1033,-355.717 1033,-337.717 957,-337.717"/>
<polygon fill="none" stroke="black" points="957,-337.717 957,-355.717 1033,-355.717 1033,-337.717 957,-337.717"/>
<text text-anchor="start" x="960" y="-343.917" font-family="Helvetica,sans-Serif" font-size="11.00">&lt; 3</text>
<polygon fill="#ffffff" stroke="none" points="1033,-337.717 1033,-355.717 1101,-355.717 1101,-337.717 1033,-337.717"/>
<polygon fill="none" stroke="black" points="1033,-337.717 1033,-355.717 1101,-355.717 1101,-337.717 1033,-337.717"/>
<text text-anchor="start" x="1062" y="-343.917" font-family="Helvetica,sans-Serif" font-size="11.00">0 rows</text>
<polygon fill="#ffffff" stroke="none" points="1101,-337.717 1101,-355.717 1141,-355.717 1141,-337.717 1101,-337.717"/>
<polygon fill="none" stroke="black" points="1101,-337.717 1101,-355.717 1141,-355.717 1141,-337.717 1101,-337.717"/>
<text text-anchor="start" x="1131" y="-343.917" font-family="Helvetica,sans-Serif" font-size="11.00"> &#160;</text>
</a>
</g>
</g>
<!-- public.users -->
<g id="node2" class="node"><title>public.users</title>
<g id="a_node2"><a xlink:href="../../../public/tables/users.html" xlink:title="public.users" target="_top">
<polygon fill="#ffffff" stroke="none" points="8,-117.717 8,-175.717 126,-175.717 126,-117.717 8,-117.717"/>
<polygon fill="#f5f5f5" stroke="none" points="8,-153.717 8,-175.717 126,-175.717 126,-153.717 8,-153.717"/>
<polygon fill="none" stroke="black" points="8,-153.717 8,-175.717 126,-175.717 126,-153.717 8,-153.717"/>
<text text-anchor="start" x="13" y="-162.917" font-family="Helvetica,sans-Serif" font-weight="bold" font-size="11.00">public.users</text>
<text text-anchor="start" x="87" y="-161.917" font-family="Helvetica,sans-Serif" font-size="11.00">[table]</text>
<polygon fill="none" stroke="black" points="8,-135.717 8,-153.717 126,-153.717 126,-135.717 8,-135.717"/>
<text text-anchor="start" x="11" y="-141.917" font-family="Helvetica,sans-Serif" font-size="11.00">...</text>
<polygon fill="#ffffff" stroke="none" points="8,-117.717 8,-135.717 37,-135.717 37,-117.717 8,-117.717"/>
<polygon fill="none" stroke="black" points="8,-117.717 8,-135.717 37,-135.717 37,-117.717 8,-117.717"/>
<text text-anchor="start" x="11" y="-123.917" font-family="Helvetica,sans-Serif" font-size="11.00"> &#160;</text>
<polygon fill="#ffffff" stroke="none" points="37,-117.717 37,-135.717 87,-135.717 87,-117.717 37,-117.717"/>
<polygon fill="none" stroke="black" points="37,-117.717 37,-135.717 87,-135.717 87,-117.717 37,-117.717"/>
<text text-anchor="start" x="48" y="-123.917" font-family="Helvetica,sans-Serif" font-size="11.00">0 rows</text>
<polygon fill="#ffffff" stroke="none" points="87,-117.717 87,-135.717 126,-135.717 126,-117.717 87,-117.717"/>
<polygon fill="none" stroke="black" points="87,-117.717 87,-135.717 126,-135.717 126,-117.717 87,-117.717"/>
<text text-anchor="start" x="99" y="-123.917" font-family="Helvetica,sans-Serif" font-size="11.00">12 &gt;</text>
</a>
</g>
</g>
<!-- monitoring_plots&#45;&gt;public.users -->
<g id="edge1" class="edge"><title>monitoring_plots:created_by:w&#45;&gt;public.users:id:e</title>
<path fill="none" stroke="black" d="M941.475,-406.824C601.106,-411.844 451.817,-590.868 167,-394.717 95.411,-345.414 75.581,-235.295 70.0944,-179.893"/>
<polygon fill="black" stroke="black" points="948,-406.776 956.027,-410.317 952,-406.746 956,-406.717 956,-406.717 956,-406.717 952,-406.746 955.973,-403.117 948,-406.776 948,-406.776"/>
<ellipse fill="none" stroke="black" cx="944.8" cy="-406.799" rx="3.2" ry="3.2"/>
</g>
<!-- monitoring_plots&#45;&gt;public.users -->
<g id="edge2" class="edge"><title>monitoring_plots:modified_by:w&#45;&gt;public.users:id:e</title>
<path fill="none" stroke="black" d="M941.371,-384.827C830.117,-385.932 201.341,-394.53 167,-371.717 101.593,-328.265 79.0649,-231.04 71.5668,-179.788"/>
<polygon fill="black" stroke="black" points="948,-384.777 956.027,-388.317 952,-384.747 956,-384.717 956,-384.717 956,-384.717 952,-384.747 955.973,-381.117 948,-384.777 948,-384.777"/>
<ellipse fill="none" stroke="black" cx="944.8" cy="-384.801" rx="3.2" ry="3.2"/>
</g>
<!-- planting_subzones -->
<g id="node3" class="node"><title>planting_subzones</title>
<g id="a_node3"><a xlink:href="../../tables/planting_subzones.html" xlink:title="planting_subzones" target="_top">
<polygon fill="#ffffff" stroke="none" points="642,-55.7168 642,-319.717 908,-319.717 908,-55.7168 642,-55.7168"/>
<polygon fill="#f5f5f5" stroke="none" points="644,-295.717 644,-317.717 906,-317.717 906,-295.717 644,-295.717"/>
<polygon fill="none" stroke="black" points="644,-295.717 644,-317.717 906,-317.717 906,-295.717 644,-295.717"/>
<text text-anchor="start" x="649" y="-304.917" font-family="Helvetica,sans-Serif" font-weight="bold" font-size="11.00">planting_subzones</text>
<text text-anchor="start" x="867" y="-303.917" font-family="Helvetica,sans-Serif" font-size="11.00">[table]</text>
<polygon fill="none" stroke="black" points="644,-273.717 644,-295.717 775,-295.717 775,-273.717 644,-273.717"/>
<image xlink:href="../../images/primaryKeys.png" width="11px" height="12px" preserveAspectRatio="xMinYMin meet" x="649" y="-290.717"/>
<text text-anchor="start" x="664" y="-281.917" font-family="Helvetica,sans-Serif" font-size="11.00">id</text>
<polygon fill="none" stroke="black" points="775,-273.717 775,-295.717 906,-295.717 906,-273.717 775,-273.717"/>
<text text-anchor="start" x="778" y="-281.917" font-family="Helvetica,sans-Serif" font-size="11.00">int8[19]</text>
<polygon fill="#ffffff" stroke="none" points="644,-251.717 644,-273.717 775,-273.717 775,-251.717 644,-251.717"/>
<polygon fill="none" stroke="black" points="644,-251.717 644,-273.717 775,-273.717 775,-251.717 644,-251.717"/>
<image xlink:href="../../images/foreignKeys.png" width="11px" height="12px" preserveAspectRatio="xMinYMin meet" x="649" y="-268.717"/>
<text text-anchor="start" x="664" y="-259.917" font-family="Helvetica,sans-Serif" font-size="11.00">planting_zone_id</text>
<polygon fill="none" stroke="black" points="775,-251.717 775,-273.717 906,-273.717 906,-251.717 775,-251.717"/>
<text text-anchor="start" x="778" y="-259.917" font-family="Helvetica,sans-Serif" font-size="11.00">int8[19]</text>
<polygon fill="#ffffff" stroke="none" points="644,-229.717 644,-251.717 775,-251.717 775,-229.717 644,-229.717"/>
<polygon fill="none" stroke="black" points="644,-229.717 644,-251.717 775,-251.717 775,-229.717 644,-229.717"/>
<text text-anchor="start" x="664" y="-237.917" font-family="Helvetica,sans-Serif" font-size="11.00">name</text>
<polygon fill="none" stroke="black" points="775,-229.717 775,-251.717 906,-251.717 906,-229.717 775,-229.717"/>
<text text-anchor="start" x="778" y="-237.917" font-family="Helvetica,sans-Serif" font-size="11.00">text[2147483647]</text>
<polygon fill="none" stroke="black" points="644,-207.717 644,-229.717 775,-229.717 775,-207.717 644,-207.717"/>
<text text-anchor="start" x="664" y="-215.917" font-family="Helvetica,sans-Serif" font-size="11.00">full_name</text>
<polygon fill="none" stroke="black" points="775,-207.717 775,-229.717 906,-229.717 906,-207.717 775,-207.717"/>
<text text-anchor="start" x="778" y="-215.917" font-family="Helvetica,sans-Serif" font-size="11.00">text[2147483647]</text>
<polygon fill="none" stroke="black" points="644,-185.717 644,-207.717 775,-207.717 775,-185.717 644,-185.717"/>
<text text-anchor="start" x="664" y="-193.917" font-family="Helvetica,sans-Serif" font-size="11.00">boundary</text>
<polygon fill="none" stroke="black" points="775,-185.717 775,-207.717 906,-207.717 906,-185.717 775,-185.717"/>
<text text-anchor="start" x="778" y="-193.917" font-family="Helvetica,sans-Serif" font-size="11.00">geometry[2147483647]</text>
<polygon fill="none" stroke="black" points="644,-163.717 644,-185.717 775,-185.717 775,-163.717 644,-163.717"/>
<image xlink:href="../../images/foreignKeys.png" width="11px" height="12px" preserveAspectRatio="xMinYMin meet" x="649" y="-180.717"/>
<text text-anchor="start" x="664" y="-171.917" font-family="Helvetica,sans-Serif" font-size="11.00">created_by</text>
<polygon fill="none" stroke="black" points="775,-163.717 775,-185.717 906,-185.717 906,-163.717 775,-163.717"/>
<text text-anchor="start" x="778" y="-171.917" font-family="Helvetica,sans-Serif" font-size="11.00">int8[19]</text>
<polygon fill="none" stroke="black" points="644,-141.717 644,-163.717 775,-163.717 775,-141.717 644,-141.717"/>
<text text-anchor="start" x="664" y="-149.917" font-family="Helvetica,sans-Serif" font-size="11.00">created_time</text>
<polygon fill="none" stroke="black" points="775,-141.717 775,-163.717 906,-163.717 906,-141.717 775,-141.717"/>
<text text-anchor="start" x="778" y="-149.917" font-family="Helvetica,sans-Serif" font-size="11.00">timestamptz[35,6]</text>
<polygon fill="none" stroke="black" points="644,-119.717 644,-141.717 775,-141.717 775,-119.717 644,-119.717"/>
<image xlink:href="../../images/foreignKeys.png" width="11px" height="12px" preserveAspectRatio="xMinYMin meet" x="649" y="-136.717"/>
<text text-anchor="start" x="664" y="-127.917" font-family="Helvetica,sans-Serif" font-size="11.00">modified_by</text>
<polygon fill="none" stroke="black" points="775,-119.717 775,-141.717 906,-141.717 906,-119.717 775,-119.717"/>
<text text-anchor="start" x="778" y="-127.917" font-family="Helvetica,sans-Serif" font-size="11.00">int8[19]</text>
<polygon fill="none" stroke="black" points="644,-97.7168 644,-119.717 775,-119.717 775,-97.7168 644,-97.7168"/>
<text text-anchor="start" x="664" y="-105.917" font-family="Helvetica,sans-Serif" font-size="11.00">modified_time</text>
<polygon fill="none" stroke="black" points="775,-97.7168 775,-119.717 906,-119.717 906,-97.7168 775,-97.7168"/>
<text text-anchor="start" x="778" y="-105.917" font-family="Helvetica,sans-Serif" font-size="11.00">timestamptz[35,6]</text>
<polygon fill="#ffffff" stroke="none" points="644,-75.7168 644,-97.7168 775,-97.7168 775,-75.7168 644,-75.7168"/>
<polygon fill="none" stroke="black" points="644,-75.7168 644,-97.7168 775,-97.7168 775,-75.7168 644,-75.7168"/>
<image xlink:href="../../images/foreignKeys.png" width="11px" height="12px" preserveAspectRatio="xMinYMin meet" x="649" y="-92.7168"/>
<text text-anchor="start" x="664" y="-83.9168" font-family="Helvetica,sans-Serif" font-size="11.00">planting_site_id</text>
<polygon fill="none" stroke="black" points="775,-75.7168 775,-97.7168 906,-97.7168 906,-75.7168 775,-75.7168"/>
<text text-anchor="start" x="778" y="-83.9168" font-family="Helvetica,sans-Serif" font-size="11.00">int8[19]</text>
<polygon fill="#ffffff" stroke="none" points="644,-57.7168 644,-75.7168 700,-75.7168 700,-57.7168 644,-57.7168"/>
<polygon fill="none" stroke="black" points="644,-57.7168 644,-75.7168 700,-75.7168 700,-57.7168 644,-57.7168"/>
<text text-anchor="start" x="647" y="-63.9168" font-family="Helvetica,sans-Serif" font-size="11.00">&lt; 5</text>
<polygon fill="#ffffff" stroke="none" points="700,-57.7168 700,-75.7168 775,-75.7168 775,-57.7168 700,-57.7168"/>
<polygon fill="none" stroke="black" points="700,-57.7168 700,-75.7168 775,-75.7168 775,-57.7168 700,-57.7168"/>
<text text-anchor="start" x="736" y="-63.9168" font-family="Helvetica,sans-Serif" font-size="11.00">0 rows</text>
<polygon fill="#ffffff" stroke="none" points="775,-57.7168 775,-75.7168 906,-75.7168 906,-57.7168 775,-57.7168"/>
<polygon fill="none" stroke="black" points="775,-57.7168 775,-75.7168 906,-75.7168 906,-57.7168 775,-57.7168"/>
<text text-anchor="start" x="886" y="-63.9168" font-family="Helvetica,sans-Serif" font-size="11.00">3 &gt;</text>
<polygon fill="none" stroke="black" stroke-width="2" points="643,-56.7168 643,-318.717 907,-318.717 907,-56.7168 643,-56.7168"/>
</a>
</g>
</g>
<!-- monitoring_plots&#45;&gt;planting_subzones -->
<g id="edge3" class="edge"><title>monitoring_plots:planting_subzone_id:w&#45;&gt;planting_subzones:id.type:e</title>
<path fill="none" stroke="black" d="M941.727,-448.109C893.637,-426.991 978.216,-284.717 907,-284.717"/>
<polygon fill="black" stroke="black" points="948.13,-449.279 955.353,-454.258 952.065,-449.998 956,-450.717 956,-450.717 956,-450.717 952.065,-449.998 956.647,-447.175 948.13,-449.279 948.13,-449.279"/>
<ellipse fill="none" stroke="black" cx="944.982" cy="-448.704" rx="3.2" ry="3.2"/>
</g>
<!-- planting_subzones&#45;&gt;public.users -->
<g id="edge6" class="edge"><title>planting_subzones:created_by:w&#45;&gt;public.users:id:e</title>
<path fill="none" stroke="black" d="M628.999,-170.294C614.505,-157.576 626.449,-120.91 601,-106.717 572.875,-91.0307 188.24,-113.125 167,-116.717 156.198,-118.543 144.923,-121.203 134.014,-124.194"/>
<polygon fill="black" stroke="black" points="635.372,-172.307 641.916,-178.15 639.186,-173.512 643,-174.717 643,-174.717 643,-174.717 639.186,-173.512 644.084,-171.284 635.372,-172.307 635.372,-172.307"/>
<ellipse fill="none" stroke="black" cx="632.32" cy="-171.343" rx="3.20001" ry="3.20001"/>
</g>
<!-- planting_subzones&#45;&gt;public.users -->
<g id="edge7" class="edge"><title>planting_subzones:modified_by:w&#45;&gt;public.users:id:e</title>
<path fill="none" stroke="black" d="M628.969,-126.175C619.601,-118.541 617.476,-103.415 601,-97.7168 574.533,-88.5628 189.931,-96.5535 167,-101.717 154.844,-104.454 142.375,-108.771 130.564,-113.671"/>
<polygon fill="black" stroke="black" points="635.389,-128.253 641.891,-134.142 639.194,-129.485 643,-130.717 643,-130.717 643,-130.717 639.194,-129.485 644.109,-127.292 635.389,-128.253 635.389,-128.253"/>
<ellipse fill="none" stroke="black" cx="632.344" cy="-127.267" rx="3.20001" ry="3.20001"/>
</g>
<!-- planting_sites -->
<g id="node4" class="node"><title>planting_sites</title>
<g id="a_node4"><a xlink:href="../../tables/planting_sites.html" xlink:title="planting_sites" target="_top">
<polygon fill="#ffffff" stroke="none" points="175,-170.717 175,-360.717 371,-360.717 371,-170.717 175,-170.717"/>
<polygon fill="#f5f5f5" stroke="none" points="175,-338.717 175,-360.717 371,-360.717 371,-338.717 175,-338.717"/>
<polygon fill="none" stroke="black" points="175,-338.717 175,-360.717 371,-360.717 371,-338.717 175,-338.717"/>
<text text-anchor="start" x="180" y="-347.917" font-family="Helvetica,sans-Serif" font-weight="bold" font-size="11.00">planting_sites</text>
<text text-anchor="start" x="332" y="-346.917" font-family="Helvetica,sans-Serif" font-size="11.00">[table]</text>
<polygon fill="none" stroke="black" points="175,-316.717 175,-338.717 371,-338.717 371,-316.717 175,-316.717"/>
<image xlink:href="../../images/primaryKeys.png" width="11px" height="12px" preserveAspectRatio="xMinYMin meet" x="180" y="-333.717"/>
<text text-anchor="start" x="195" y="-324.917" font-family="Helvetica,sans-Serif" font-size="11.00">id</text>
<polygon fill="#ffffff" stroke="none" points="175,-294.717 175,-316.717 371,-316.717 371,-294.717 175,-294.717"/>
<polygon fill="none" stroke="black" points="175,-294.717 175,-316.717 371,-316.717 371,-294.717 175,-294.717"/>
<image xlink:href="../../images/foreignKeys.png" width="11px" height="12px" preserveAspectRatio="xMinYMin meet" x="180" y="-311.717"/>
<text text-anchor="start" x="195" y="-302.917" font-family="Helvetica,sans-Serif" font-size="11.00">organization_id</text>
<polygon fill="#ffffff" stroke="none" points="175,-272.717 175,-294.717 371,-294.717 371,-272.717 175,-272.717"/>
<polygon fill="none" stroke="black" points="175,-272.717 175,-294.717 371,-294.717 371,-272.717 175,-272.717"/>
<text text-anchor="start" x="195" y="-280.917" font-family="Helvetica,sans-Serif" font-size="11.00">name</text>
<polygon fill="none" stroke="black" points="175,-250.717 175,-272.717 371,-272.717 371,-250.717 175,-250.717"/>
<image xlink:href="../../images/foreignKeys.png" width="11px" height="12px" preserveAspectRatio="xMinYMin meet" x="180" y="-267.717"/>
<text text-anchor="start" x="195" y="-258.917" font-family="Helvetica,sans-Serif" font-size="11.00">created_by</text>
<polygon fill="none" stroke="black" points="175,-228.717 175,-250.717 371,-250.717 371,-228.717 175,-228.717"/>
<image xlink:href="../../images/foreignKeys.png" width="11px" height="12px" preserveAspectRatio="xMinYMin meet" x="180" y="-245.717"/>
<text text-anchor="start" x="195" y="-236.917" font-family="Helvetica,sans-Serif" font-size="11.00">modified_by</text>
<polygon fill="none" stroke="black" points="175,-206.717 175,-228.717 371,-228.717 371,-206.717 175,-206.717"/>
<image xlink:href="../../images/foreignKeys.png" width="11px" height="12px" preserveAspectRatio="xMinYMin meet" x="180" y="-223.717"/>
<text text-anchor="start" x="195" y="-214.917" font-family="Helvetica,sans-Serif" font-size="11.00">time_zone</text>
<polygon fill="none" stroke="black" points="175,-188.717 175,-206.717 371,-206.717 371,-188.717 175,-188.717"/>
<text text-anchor="start" x="178" y="-194.917" font-family="Helvetica,sans-Serif" font-size="11.00">...</text>
<polygon fill="#ffffff" stroke="none" points="175,-170.717 175,-188.717 252,-188.717 252,-170.717 175,-170.717"/>
<polygon fill="none" stroke="black" points="175,-170.717 175,-188.717 252,-188.717 252,-170.717 175,-170.717"/>
<text text-anchor="start" x="178" y="-176.917" font-family="Helvetica,sans-Serif" font-size="11.00">&lt; 4</text>
<polygon fill="#ffffff" stroke="none" points="252,-170.717 252,-188.717 321,-188.717 321,-170.717 252,-170.717"/>
<polygon fill="none" stroke="black" points="252,-170.717 252,-188.717 321,-188.717 321,-170.717 252,-170.717"/>
<text text-anchor="start" x="282" y="-176.917" font-family="Helvetica,sans-Serif" font-size="11.00">0 rows</text>
<polygon fill="#ffffff" stroke="none" points="321,-170.717 321,-188.717 371,-188.717 371,-170.717 321,-170.717"/>
<polygon fill="none" stroke="black" points="321,-170.717 321,-188.717 371,-188.717 371,-170.717 321,-170.717"/>
<text text-anchor="start" x="351" y="-176.917" font-family="Helvetica,sans-Serif" font-size="11.00">4 &gt;</text>
</a>
</g>
</g>
<!-- planting_subzones&#45;&gt;planting_sites -->
<g id="edge8" class="edge"><title>planting_subzones:planting_site_id:w&#45;&gt;planting_sites:id:e</title>
<path fill="none" stroke="black" d="M628.493,-88.1553C561.862,-103.323 665.917,-234.55 601,-295.717 563.602,-330.954 423.383,-327.717 372,-327.717"/>
<polygon fill="black" stroke="black" points="635.039,-87.5063 643.355,-90.2992 639.02,-87.1115 643,-86.7168 643,-86.7168 643,-86.7168 639.02,-87.1115 642.645,-83.1344 635.039,-87.5063 635.039,-87.5063"/>
<ellipse fill="none" stroke="black" cx="631.855" cy="-87.822" rx="3.2" ry="3.2"/>
</g>
<!-- planting_zones -->
<g id="node5" class="node"><title>planting_zones</title>
<g id="a_node5"><a xlink:href="../../tables/planting_zones.html" xlink:title="planting_zones" target="_top">
<polygon fill="#ffffff" stroke="none" points="420,-116.717 420,-284.717 593,-284.717 593,-116.717 420,-116.717"/>
<polygon fill="#f5f5f5" stroke="none" points="420.5,-262.717 420.5,-284.717 593.5,-284.717 593.5,-262.717 420.5,-262.717"/>
<polygon fill="none" stroke="black" points="420.5,-262.717 420.5,-284.717 593.5,-284.717 593.5,-262.717 420.5,-262.717"/>
<text text-anchor="start" x="425.5" y="-271.917" font-family="Helvetica,sans-Serif" font-weight="bold" font-size="11.00">planting_zones</text>
<text text-anchor="start" x="554.5" y="-270.917" font-family="Helvetica,sans-Serif" font-size="11.00">[table]</text>
<polygon fill="none" stroke="black" points="420.5,-240.717 420.5,-262.717 593.5,-262.717 593.5,-240.717 420.5,-240.717"/>
<image xlink:href="../../images/primaryKeys.png" width="11px" height="12px" preserveAspectRatio="xMinYMin meet" x="425.5" y="-257.717"/>
<text text-anchor="start" x="440.5" y="-248.917" font-family="Helvetica,sans-Serif" font-size="11.00">id</text>
<polygon fill="#ffffff" stroke="none" points="420.5,-218.717 420.5,-240.717 593.5,-240.717 593.5,-218.717 420.5,-218.717"/>
<polygon fill="none" stroke="black" points="420.5,-218.717 420.5,-240.717 593.5,-240.717 593.5,-218.717 420.5,-218.717"/>
<image xlink:href="../../images/foreignKeys.png" width="11px" height="12px" preserveAspectRatio="xMinYMin meet" x="425.5" y="-235.717"/>
<text text-anchor="start" x="440.5" y="-226.917" font-family="Helvetica,sans-Serif" font-size="11.00">planting_site_id</text>
<polygon fill="#ffffff" stroke="none" points="420.5,-196.717 420.5,-218.717 593.5,-218.717 593.5,-196.717 420.5,-196.717"/>
<polygon fill="none" stroke="black" points="420.5,-196.717 420.5,-218.717 593.5,-218.717 593.5,-196.717 420.5,-196.717"/>
<text text-anchor="start" x="440.5" y="-204.917" font-family="Helvetica,sans-Serif" font-size="11.00">name</text>
<polygon fill="none" stroke="black" points="420.5,-174.717 420.5,-196.717 593.5,-196.717 593.5,-174.717 420.5,-174.717"/>
<image xlink:href="../../images/foreignKeys.png" width="11px" height="12px" preserveAspectRatio="xMinYMin meet" x="425.5" y="-191.717"/>
<text text-anchor="start" x="440.5" y="-182.917" font-family="Helvetica,sans-Serif" font-size="11.00">created_by</text>
<polygon fill="none" stroke="black" points="420.5,-152.717 420.5,-174.717 593.5,-174.717 593.5,-152.717 420.5,-152.717"/>
<image xlink:href="../../images/foreignKeys.png" width="11px" height="12px" preserveAspectRatio="xMinYMin meet" x="425.5" y="-169.717"/>
<text text-anchor="start" x="440.5" y="-160.917" font-family="Helvetica,sans-Serif" font-size="11.00">modified_by</text>
<polygon fill="none" stroke="black" points="420.5,-134.717 420.5,-152.717 593.5,-152.717 593.5,-134.717 420.5,-134.717"/>
<text text-anchor="start" x="423.5" y="-140.917" font-family="Helvetica,sans-Serif" font-size="11.00">...</text>
<polygon fill="#ffffff" stroke="none" points="420.5,-116.717 420.5,-134.717 485.5,-134.717 485.5,-116.717 420.5,-116.717"/>
<polygon fill="none" stroke="black" points="420.5,-116.717 420.5,-134.717 485.5,-134.717 485.5,-116.717 420.5,-116.717"/>
<text text-anchor="start" x="423.5" y="-122.917" font-family="Helvetica,sans-Serif" font-size="11.00">&lt; 3</text>
<polygon fill="#ffffff" stroke="none" points="485.5,-116.717 485.5,-134.717 548.5,-134.717 548.5,-116.717 485.5,-116.717"/>
<polygon fill="none" stroke="black" points="485.5,-116.717 485.5,-134.717 548.5,-134.717 548.5,-116.717 485.5,-116.717"/>
<text text-anchor="start" x="509.5" y="-122.917" font-family="Helvetica,sans-Serif" font-size="11.00">0 rows</text>
<polygon fill="#ffffff" stroke="none" points="548.5,-116.717 548.5,-134.717 593.5,-134.717 593.5,-116.717 548.5,-116.717"/>
<polygon fill="none" stroke="black" points="548.5,-116.717 548.5,-134.717 593.5,-134.717 593.5,-116.717 548.5,-116.717"/>
<text text-anchor="start" x="573.5" y="-122.917" font-family="Helvetica,sans-Serif" font-size="11.00">2 &gt;</text>
</a>
</g>
</g>
<!-- planting_subzones&#45;&gt;planting_zones -->
<g id="edge9" class="edge"><title>planting_subzones:planting_site_id:w&#45;&gt;planting_zones:planting_site_id:e</title>
<path fill="none" stroke="black" d="M628.89,-89.7035C589.493,-110.239 655.844,-229.717 594.5,-229.717"/>
<polygon fill="black" stroke="black" points="635.173,-88.3735 643.746,-90.2387 639.087,-87.5452 643,-86.7168 643,-86.7168 643,-86.7168 639.087,-87.5452 642.254,-83.1948 635.173,-88.3735 635.173,-88.3735"/>
<ellipse fill="none" stroke="black" cx="632.043" cy="-89.0362" rx="3.2" ry="3.2"/>
</g>
<!-- planting_subzones&#45;&gt;planting_zones -->
<g id="edge10" class="edge"><title>planting_subzones:planting_zone_id:w&#45;&gt;planting_zones:id:e</title>
<path fill="none" stroke="black" d="M628.489,-260.801C617.359,-257.649 610.732,-251.717 594.5,-251.717"/>
<polygon fill="black" stroke="black" points="635.069,-261.67 642.529,-266.286 639.034,-262.193 643,-262.717 643,-262.717 643,-262.717 639.034,-262.193 643.471,-259.148 635.069,-261.67 635.069,-261.67"/>
<ellipse fill="none" stroke="black" cx="631.896" cy="-261.251" rx="3.2" ry="3.2"/>
</g>
<!-- planting_sites&#45;&gt;public.users -->
<g id="edge4" class="edge"><title>planting_sites:created_by:w&#45;&gt;public.users:id:e</title>
<path fill="none" stroke="black" d="M159.304,-259.967C122.343,-251.07 96.2518,-210.096 81.6763,-179.98"/>
<polygon fill="black" stroke="black" points="166.056,-260.771 173.574,-265.292 170.028,-261.244 174,-261.717 174,-261.717 174,-261.717 170.028,-261.244 174.426,-258.142 166.056,-260.771 166.056,-260.771"/>
<ellipse fill="none" stroke="black" cx="162.879" cy="-260.393" rx="3.2" ry="3.2"/>
</g>
<!-- planting_sites&#45;&gt;public.users -->
<g id="edge5" class="edge"><title>planting_sites:modified_by:w&#45;&gt;public.users:id:e</title>
<path fill="none" stroke="black" d="M159.453,-238.052C128.641,-231.007 103.537,-202.948 87.4795,-179.767"/>
<polygon fill="black" stroke="black" points="166.052,-238.807 173.591,-243.293 170.026,-239.262 174,-239.717 174,-239.717 174,-239.717 170.026,-239.262 174.409,-236.14 166.052,-238.807 166.052,-238.807"/>
<ellipse fill="none" stroke="black" cx="162.873" cy="-238.443" rx="3.2" ry="3.2"/>
</g>
<!-- planting_zones&#45;&gt;public.users -->
<g id="edge11" class="edge"><title>planting_zones:created_by:w&#45;&gt;public.users:id:e</title>
<path fill="none" stroke="black" d="M405.635,-181.768C397.087,-175.914 393.371,-165.147 379,-160.717 297.523,-135.601 198.368,-136.123 134.26,-140.222"/>
<polygon fill="black" stroke="black" points="411.806,-183.526 418.514,-189.179 415.653,-184.621 419.5,-185.717 419.5,-185.717 419.5,-185.717 415.653,-184.621 420.486,-182.254 411.806,-183.526 411.806,-183.526"/>
<ellipse fill="none" stroke="black" cx="408.728" cy="-182.649" rx="3.20001" ry="3.20001"/>
</g>
<!-- planting_zones&#45;&gt;public.users -->
<g id="edge12" class="edge"><title>planting_zones:modified_by:w&#45;&gt;public.users:id:e</title>
<path fill="none" stroke="black" d="M405.637,-159.28C397.008,-152.435 394.15,-139.582 379,-134.717 289.289,-105.91 261.051,-129.038 167,-134.717 156.372,-135.359 145.136,-136.385 134.199,-137.573"/>
<polygon fill="black" stroke="black" points="411.881,-161.278 418.403,-167.145 415.69,-162.497 419.5,-163.717 419.5,-163.717 419.5,-163.717 415.69,-162.497 420.597,-160.288 411.881,-161.278 411.881,-161.278"/>
<ellipse fill="none" stroke="black" cx="408.833" cy="-160.303" rx="3.20001" ry="3.20001"/>
</g>
<!-- planting_zones&#45;&gt;planting_sites -->
<g id="edge13" class="edge"><title>planting_zones:planting_site_id:w&#45;&gt;planting_sites:id:e</title>
<path fill="none" stroke="black" d="M405.548,-233.928C381.897,-252.686 414.352,-327.717 372,-327.717"/>
<polygon fill="black" stroke="black" points="411.841,-232.028 420.54,-233.163 415.671,-230.873 419.5,-229.717 419.5,-229.717 419.5,-229.717 415.671,-230.873 418.46,-226.27 411.841,-232.028 411.841,-232.028"/>
<ellipse fill="none" stroke="black" cx="408.778" cy="-232.953" rx="3.20001" ry="3.20001"/>
</g>
<!-- plantings -->
<g id="node6" class="node"><title>plantings</title>
<g id="a_node6"><a xlink:href="../../tables/plantings.html" xlink:title="plantings" target="_top">
<polygon fill="#ffffff" stroke="none" points="978.5,-44.7168 978.5,-256.717 1119.5,-256.717 1119.5,-44.7168 978.5,-44.7168"/>
<polygon fill="#f5f5f5" stroke="none" points="979,-234.717 979,-256.717 1120,-256.717 1120,-234.717 979,-234.717"/>
<polygon fill="none" stroke="black" points="979,-234.717 979,-256.717 1120,-256.717 1120,-234.717 979,-234.717"/>
<text text-anchor="start" x="984" y="-243.917" font-family="Helvetica,sans-Serif" font-weight="bold" font-size="11.00">plantings</text>
<text text-anchor="start" x="1081" y="-242.917" font-family="Helvetica,sans-Serif" font-size="11.00">[table]</text>
<polygon fill="none" stroke="black" points="979,-212.717 979,-234.717 1120,-234.717 1120,-212.717 979,-212.717"/>
<image xlink:href="../../images/primaryKeys.png" width="11px" height="12px" preserveAspectRatio="xMinYMin meet" x="984" y="-229.717"/>
<text text-anchor="start" x="999" y="-220.917" font-family="Helvetica,sans-Serif" font-size="11.00">id</text>
<polygon fill="#ffffff" stroke="none" points="979,-190.717 979,-212.717 1120,-212.717 1120,-190.717 979,-190.717"/>
<polygon fill="none" stroke="black" points="979,-190.717 979,-212.717 1120,-212.717 1120,-190.717 979,-190.717"/>
<image xlink:href="../../images/foreignKeys.png" width="11px" height="12px" preserveAspectRatio="xMinYMin meet" x="984" y="-207.717"/>
<text text-anchor="start" x="999" y="-198.917" font-family="Helvetica,sans-Serif" font-size="11.00">delivery_id</text>
<polygon fill="#ffffff" stroke="none" points="979,-168.717 979,-190.717 1120,-190.717 1120,-168.717 979,-168.717"/>
<polygon fill="none" stroke="black" points="979,-168.717 979,-190.717 1120,-190.717 1120,-168.717 979,-168.717"/>
<image xlink:href="../../images/foreignKeys.png" width="11px" height="12px" preserveAspectRatio="xMinYMin meet" x="984" y="-185.717"/>
<text text-anchor="start" x="999" y="-176.917" font-family="Helvetica,sans-Serif" font-size="11.00">planting_type_id</text>
<polygon fill="none" stroke="black" points="979,-146.717 979,-168.717 1120,-168.717 1120,-146.717 979,-146.717"/>
<image xlink:href="../../images/foreignKeys.png" width="11px" height="12px" preserveAspectRatio="xMinYMin meet" x="984" y="-163.717"/>
<text text-anchor="start" x="999" y="-154.917" font-family="Helvetica,sans-Serif" font-size="11.00">planting_site_id</text>
<polygon fill="#ffffff" stroke="none" points="979,-124.717 979,-146.717 1120,-146.717 1120,-124.717 979,-124.717"/>
<polygon fill="none" stroke="black" points="979,-124.717 979,-146.717 1120,-146.717 1120,-124.717 979,-124.717"/>
<image xlink:href="../../images/foreignKeys.png" width="11px" height="12px" preserveAspectRatio="xMinYMin meet" x="984" y="-141.717"/>
<text text-anchor="start" x="999" y="-132.917" font-family="Helvetica,sans-Serif" font-size="11.00">planting_subzone_id</text>
<polygon fill="#ffffff" stroke="none" points="979,-102.717 979,-124.717 1120,-124.717 1120,-102.717 979,-102.717"/>
<polygon fill="none" stroke="black" points="979,-102.717 979,-124.717 1120,-124.717 1120,-102.717 979,-102.717"/>
<image xlink:href="../../images/foreignKeys.png" width="11px" height="12px" preserveAspectRatio="xMinYMin meet" x="984" y="-119.717"/>
<text text-anchor="start" x="999" y="-110.917" font-family="Helvetica,sans-Serif" font-size="11.00">species_id</text>
<polygon fill="none" stroke="black" points="979,-80.7168 979,-102.717 1120,-102.717 1120,-80.7168 979,-80.7168"/>
<image xlink:href="../../images/foreignKeys.png" width="11px" height="12px" preserveAspectRatio="xMinYMin meet" x="984" y="-97.7168"/>
<text text-anchor="start" x="999" y="-88.9168" font-family="Helvetica,sans-Serif" font-size="11.00">created_by</text>
<polygon fill="none" stroke="black" points="979,-62.7168 979,-80.7168 1120,-80.7168 1120,-62.7168 979,-62.7168"/>
<text text-anchor="start" x="982" y="-68.9168" font-family="Helvetica,sans-Serif" font-size="11.00">...</text>
<polygon fill="#ffffff" stroke="none" points="979,-44.7168 979,-62.7168 1033,-62.7168 1033,-44.7168 979,-44.7168"/>
<polygon fill="none" stroke="black" points="979,-44.7168 979,-62.7168 1033,-62.7168 1033,-44.7168 979,-44.7168"/>
<text text-anchor="start" x="982" y="-50.9168" font-family="Helvetica,sans-Serif" font-size="11.00">&lt; 8</text>
<polygon fill="#ffffff" stroke="none" points="1033,-44.7168 1033,-62.7168 1091,-62.7168 1091,-44.7168 1033,-44.7168"/>
<polygon fill="none" stroke="black" points="1033,-44.7168 1033,-62.7168 1091,-62.7168 1091,-44.7168 1033,-44.7168"/>
<text text-anchor="start" x="1052" y="-50.9168" font-family="Helvetica,sans-Serif" font-size="11.00">0 rows</text>
<polygon fill="#ffffff" stroke="none" points="1091,-44.7168 1091,-62.7168 1120,-62.7168 1120,-44.7168 1091,-44.7168"/>
<polygon fill="none" stroke="black" points="1091,-44.7168 1091,-62.7168 1120,-62.7168 1120,-44.7168 1091,-44.7168"/>
<text text-anchor="start" x="1110" y="-50.9168" font-family="Helvetica,sans-Serif" font-size="11.00"> &#160;</text>
</a>
</g>
</g>
<!-- plantings&#45;&gt;public.users -->
<g id="edge14" class="edge"><title>plantings:created_by:w&#45;&gt;public.users:id:e</title>
<path fill="none" stroke="black" d="M963.665,-89.0175C944.274,-80.5707 943.107,-54.6744 916,-45.7168 782.918,-1.73894 170.63,-89.5723 167,-90.7168 149.862,-96.1202 132.399,-104.758 117.007,-113.648"/>
<polygon fill="black" stroke="black" points="970.138,-90.2364 977.334,-95.2546 974.069,-90.9766 978,-91.7168 978,-91.7168 978,-91.7168 974.069,-90.9766 978.666,-88.179 970.138,-90.2364 970.138,-90.2364"/>
<ellipse fill="none" stroke="black" cx="966.993" cy="-89.6442" rx="3.2" ry="3.2"/>
</g>
<!-- plantings&#45;&gt;planting_subzones -->
<g id="edge16" class="edge"><title>plantings:planting_site_id:w&#45;&gt;planting_subzones:planting_site_id.type:e</title>
<path fill="none" stroke="black" d="M963.607,-154.482C937.035,-140.592 945.874,-86.7168 907,-86.7168"/>
<polygon fill="black" stroke="black" points="970.195,-155.962 977.21,-161.229 974.097,-156.84 978,-157.717 978,-157.717 978,-157.717 974.097,-156.84 978.79,-154.204 970.195,-155.962 970.195,-155.962"/>
<ellipse fill="none" stroke="black" cx="967.073" cy="-155.26" rx="3.2" ry="3.2"/>
</g>
<!-- plantings&#45;&gt;planting_subzones -->
<g id="edge17" class="edge"><title>plantings:planting_subzone_id:w&#45;&gt;planting_subzones:id.type:e</title>
<path fill="none" stroke="black" d="M963.7,-138.179C915.313,-157.551 974.769,-284.717 907,-284.717"/>
<polygon fill="black" stroke="black" points="970.116,-137.074 978.611,-139.265 974.058,-136.395 978,-135.717 978,-135.717 978,-135.717 974.058,-136.395 977.389,-132.169 970.116,-137.074 970.116,-137.074"/>
<ellipse fill="none" stroke="black" cx="966.962" cy="-137.617" rx="3.2" ry="3.2"/>
</g>
<!-- plantings&#45;&gt;planting_sites -->
<g id="edge15" class="edge"><title>plantings:planting_site_id:w&#45;&gt;planting_sites:id:e</title>
<path fill="none" stroke="black" d="M963.504,-159.418C907.428,-174.572 978.225,-286.917 916,-330.717 817.144,-400.301 492.891,-327.717 372,-327.717"/>
<polygon fill="black" stroke="black" points="970.054,-158.649 978.42,-161.292 974.027,-158.183 978,-157.717 978,-157.717 978,-157.717 974.027,-158.183 977.58,-154.141 970.054,-158.649 970.054,-158.649"/>
<ellipse fill="none" stroke="black" cx="966.876" cy="-159.022" rx="3.2" ry="3.2"/>
</g>
</g>
</svg>
