<?xml version="1.0" encoding="UTF-8" standalone="no"?>
<!DOCTYPE svg PUBLIC "-//W3C//DTD SVG 1.1//EN"
 "http://www.w3.org/Graphics/SVG/1.1/DTD/svg11.dtd">
<!-- Generated by graphviz version 2.47.1 (20210515.0534)
 -->
<!-- Title: oneDegreeRelationshipsDiagram Pages: 1 -->
<svg width="987pt" height="717pt"
 viewBox="0.00 0.00 987.00 717.00" xmlns="http://www.w3.org/2000/svg" xmlns:xlink="http://www.w3.org/1999/xlink">
<g id="graph0" class="graph" transform="scale(1 1) rotate(0) translate(4 713)">
<title>oneDegreeRelationshipsDiagram</title>
<polygon fill="#ffffff" stroke="transparent" points="-4,4 -4,-713 983,-713 983,4 -4,4"/>
<text text-anchor="middle" x="73.5" y="-7.2" font-family="Helvetica,sans-Serif" font-size="11.00">Generated by SchemaSpy</text>
<!-- nursery.withdrawals -->
<g id="node1" class="node">
<title>nursery.withdrawals</title>
<g id="a_node1"><a xlink:href="../../../nursery/tables/withdrawals.html" xlink:title="nursery.withdrawals" target="_top">
<polygon fill="#ffffff" stroke="transparent" points="728.5,-415 728.5,-517 964.5,-517 964.5,-415 728.5,-415"/>
<polygon fill="#f5f5f5" stroke="transparent" points="728.5,-495 728.5,-517 964.5,-517 964.5,-495 728.5,-495"/>
<polygon fill="none" stroke="black" points="728.5,-495 728.5,-517 964.5,-517 964.5,-495 728.5,-495"/>
<text text-anchor="start" x="733.5" y="-504.2" font-family="Helvetica,sans-Serif" font-weight="bold" font-size="11.00">nursery.withdrawals</text>
<text text-anchor="start" x="925.5" y="-503.2" font-family="Helvetica,sans-Serif" font-size="11.00">[table]</text>
<polygon fill="none" stroke="black" points="728.5,-473 728.5,-495 964.5,-495 964.5,-473 728.5,-473"/>
<image xlink:href="../../images/foreignKeys.png" width="11px" height="12px" preserveAspectRatio="xMinYMin meet" x="733.5" y="-490"/>
<text text-anchor="start" x="748.5" y="-481.2" font-family="Helvetica,sans-Serif" font-size="11.00">planting_season_id</text>
<polygon fill="none" stroke="black" points="728.5,-451 728.5,-473 964.5,-473 964.5,-451 728.5,-451"/>
<image xlink:href="../../images/foreignKeys.png" width="11px" height="12px" preserveAspectRatio="xMinYMin meet" x="733.5" y="-468"/>
<text text-anchor="start" x="748.5" y="-459.2" font-family="Helvetica,sans-Serif" font-size="11.00">scheduled_planting_date_request_id</text>
<polygon fill="none" stroke="black" points="728.5,-433 728.5,-451 964.5,-451 964.5,-433 728.5,-433"/>
<text text-anchor="start" x="731.5" y="-439.2" font-family="Helvetica,sans-Serif" font-size="11.00">...</text>
<polygon fill="#ffffff" stroke="transparent" points="728.5,-415 728.5,-433 826.5,-433 826.5,-415 728.5,-415"/>
<polygon fill="none" stroke="black" points="728.5,-415 728.5,-433 826.5,-433 826.5,-415 728.5,-415"/>
<text text-anchor="start" x="731.5" y="-421.2" font-family="Helvetica,sans-Serif" font-size="11.00">&lt; 2</text>
<polygon fill="#ffffff" stroke="transparent" points="826.5,-415 826.5,-433 904.5,-433 904.5,-415 826.5,-415"/>
<polygon fill="none" stroke="black" points="826.5,-415 826.5,-433 904.5,-433 904.5,-415 826.5,-415"/>
<text text-anchor="start" x="867.5" y="-421.2" font-family="Helvetica,sans-Serif" font-size="11.00">0 rows</text>
<polygon fill="#ffffff" stroke="transparent" points="904.5,-415 904.5,-433 964.5,-433 964.5,-415 904.5,-415"/>
<polygon fill="none" stroke="black" points="904.5,-415 904.5,-433 964.5,-433 964.5,-415 904.5,-415"/>
<text text-anchor="start" x="945.5" y="-421.2" font-family="Helvetica,sans-Serif" font-size="11.00">1 &gt;</text>
</a>
</g>
</g>
<!-- planting_seasons -->
<g id="node2" class="node">
<title>planting_seasons</title>
<g id="a_node2"><a xlink:href="../../tables/planting_seasons.html" xlink:title="planting_seasons" target="_top">
<polygon fill="#ffffff" stroke="transparent" points="446,-189 446,-453 673,-453 673,-189 446,-189"/>
<polygon fill="#f5f5f5" stroke="transparent" points="448.5,-429 448.5,-451 671.5,-451 671.5,-429 448.5,-429"/>
<polygon fill="none" stroke="black" points="448.5,-429 448.5,-451 671.5,-451 671.5,-429 448.5,-429"/>
<text text-anchor="start" x="453.5" y="-438.2" font-family="Helvetica,sans-Serif" font-weight="bold" font-size="11.00">planting_seasons</text>
<text text-anchor="start" x="632.5" y="-437.2" font-family="Helvetica,sans-Serif" font-size="11.00">[table]</text>
<polygon fill="none" stroke="black" points="448.5,-407 448.5,-429 571.5,-429 571.5,-407 448.5,-407"/>
<image xlink:href="../../images/primaryKeys.png" width="11px" height="12px" preserveAspectRatio="xMinYMin meet" x="453.5" y="-424"/>
<text text-anchor="start" x="468.5" y="-415.2" font-family="Helvetica,sans-Serif" font-size="11.00">id</text>
<polygon fill="none" stroke="black" points="571.5,-407 571.5,-429 671.5,-429 671.5,-407 571.5,-407"/>
<text text-anchor="start" x="574.5" y="-415.2" font-family="Helvetica,sans-Serif" font-size="11.00">int8[19]</text>
<polygon fill="#ffffff" stroke="transparent" points="448.5,-385 448.5,-407 571.5,-407 571.5,-385 448.5,-385"/>
<polygon fill="none" stroke="black" points="448.5,-385 448.5,-407 571.5,-407 571.5,-385 448.5,-385"/>
<image xlink:href="../../images/foreignKeys.png" width="11px" height="12px" preserveAspectRatio="xMinYMin meet" x="453.5" y="-402"/>
<text text-anchor="start" x="468.5" y="-393.2" font-family="Helvetica,sans-Serif" font-size="11.00">planting_site_id</text>
<polygon fill="none" stroke="black" points="571.5,-385 571.5,-407 671.5,-407 671.5,-385 571.5,-385"/>
<text text-anchor="start" x="574.5" y="-393.2" font-family="Helvetica,sans-Serif" font-size="11.00">int8[19]</text>
<polygon fill="#ffffff" stroke="transparent" points="448.5,-363 448.5,-385 571.5,-385 571.5,-363 448.5,-363"/>
<polygon fill="none" stroke="black" points="448.5,-363 448.5,-385 571.5,-385 571.5,-363 448.5,-363"/>
<text text-anchor="start" x="468.5" y="-371.2" font-family="Helvetica,sans-Serif" font-size="11.00">name</text>
<polygon fill="none" stroke="black" points="571.5,-363 571.5,-385 671.5,-385 671.5,-363 571.5,-363"/>
<text text-anchor="start" x="574.5" y="-371.2" font-family="Helvetica,sans-Serif" font-size="11.00">text[2147483647]</text>
<polygon fill="none" stroke="black" points="448.5,-341 448.5,-363 571.5,-363 571.5,-341 448.5,-341"/>
<text text-anchor="start" x="468.5" y="-349.2" font-family="Helvetica,sans-Serif" font-size="11.00">start_date</text>
<polygon fill="none" stroke="black" points="571.5,-341 571.5,-363 671.5,-363 671.5,-341 571.5,-341"/>
<text text-anchor="start" x="574.5" y="-349.2" font-family="Helvetica,sans-Serif" font-size="11.00">date[13]</text>
<polygon fill="none" stroke="black" points="448.5,-319 448.5,-341 571.5,-341 571.5,-319 448.5,-319"/>
<text text-anchor="start" x="468.5" y="-327.2" font-family="Helvetica,sans-Serif" font-size="11.00">end_date</text>
<polygon fill="none" stroke="black" points="571.5,-319 571.5,-341 671.5,-341 671.5,-319 571.5,-319"/>
<text text-anchor="start" x="574.5" y="-327.2" font-family="Helvetica,sans-Serif" font-size="11.00">date[13]</text>
<polygon fill="none" stroke="black" points="448.5,-297 448.5,-319 571.5,-319 571.5,-297 448.5,-297"/>
<image xlink:href="../../images/foreignKeys.png" width="11px" height="12px" preserveAspectRatio="xMinYMin meet" x="453.5" y="-314"/>
<text text-anchor="start" x="468.5" y="-305.2" font-family="Helvetica,sans-Serif" font-size="11.00">status_id</text>
<polygon fill="none" stroke="black" points="571.5,-297 571.5,-319 671.5,-319 671.5,-297 571.5,-297"/>
<text text-anchor="start" x="574.5" y="-305.2" font-family="Helvetica,sans-Serif" font-size="11.00">int4[10]</text>
<polygon fill="none" stroke="black" points="448.5,-275 448.5,-297 571.5,-297 571.5,-275 448.5,-275"/>
<image xlink:href="../../images/foreignKeys.png" width="11px" height="12px" preserveAspectRatio="xMinYMin meet" x="453.5" y="-292"/>
<text text-anchor="start" x="468.5" y="-283.2" font-family="Helvetica,sans-Serif" font-size="11.00">created_by</text>
<polygon fill="none" stroke="black" points="571.5,-275 571.5,-297 671.5,-297 671.5,-275 571.5,-275"/>
<text text-anchor="start" x="574.5" y="-283.2" font-family="Helvetica,sans-Serif" font-size="11.00">int8[19]</text>
<polygon fill="none" stroke="black" points="448.5,-253 448.5,-275 571.5,-275 571.5,-253 448.5,-253"/>
<text text-anchor="start" x="468.5" y="-261.2" font-family="Helvetica,sans-Serif" font-size="11.00">created_time</text>
<polygon fill="none" stroke="black" points="571.5,-253 571.5,-275 671.5,-275 671.5,-253 571.5,-253"/>
<text text-anchor="start" x="574.5" y="-261.2" font-family="Helvetica,sans-Serif" font-size="11.00">timestamptz[35,6]</text>
<polygon fill="none" stroke="black" points="448.5,-231 448.5,-253 571.5,-253 571.5,-231 448.5,-231"/>
<image xlink:href="../../images/foreignKeys.png" width="11px" height="12px" preserveAspectRatio="xMinYMin meet" x="453.5" y="-248"/>
<text text-anchor="start" x="468.5" y="-239.2" font-family="Helvetica,sans-Serif" font-size="11.00">modified_by</text>
<polygon fill="none" stroke="black" points="571.5,-231 571.5,-253 671.5,-253 671.5,-231 571.5,-231"/>
<text text-anchor="start" x="574.5" y="-239.2" font-family="Helvetica,sans-Serif" font-size="11.00">int8[19]</text>
<polygon fill="none" stroke="black" points="448.5,-209 448.5,-231 571.5,-231 571.5,-209 448.5,-209"/>
<text text-anchor="start" x="468.5" y="-217.2" font-family="Helvetica,sans-Serif" font-size="11.00">modified_time</text>
<polygon fill="none" stroke="black" points="571.5,-209 571.5,-231 671.5,-231 671.5,-209 571.5,-209"/>
<text text-anchor="start" x="574.5" y="-217.2" font-family="Helvetica,sans-Serif" font-size="11.00">timestamptz[35,6]</text>
<polygon fill="#ffffff" stroke="transparent" points="448.5,-191 448.5,-209 514.5,-209 514.5,-191 448.5,-191"/>
<polygon fill="none" stroke="black" points="448.5,-191 448.5,-209 514.5,-209 514.5,-191 448.5,-191"/>
<text text-anchor="start" x="451.5" y="-197.2" font-family="Helvetica,sans-Serif" font-size="11.00">&lt; 4</text>
<polygon fill="#ffffff" stroke="transparent" points="514.5,-191 514.5,-209 571.5,-209 571.5,-191 514.5,-191"/>
<polygon fill="none" stroke="black" points="514.5,-191 514.5,-209 571.5,-209 571.5,-191 514.5,-191"/>
<text text-anchor="start" x="561.5" y="-197.2" font-family="Helvetica,sans-Serif" font-size="11.00"> &#160;</text>
<polygon fill="#ffffff" stroke="transparent" points="571.5,-191 571.5,-209 671.5,-209 671.5,-191 571.5,-191"/>
<polygon fill="none" stroke="black" points="571.5,-191 571.5,-209 671.5,-209 671.5,-191 571.5,-191"/>
<text text-anchor="start" x="652.5" y="-197.2" font-family="Helvetica,sans-Serif" font-size="11.00">4 &gt;</text>
<polygon fill="none" stroke="black" stroke-width="2" points="447,-190 447,-452 672,-452 672,-190 447,-190"/>
</a>
</g>
</g>
<!-- nursery.withdrawals&#45;&gt;planting_seasons -->
<g id="edge1" class="edge">
<title>nursery.withdrawals:w&#45;&gt;planting_seasons:e</title>
<path fill="none" stroke="black" d="M713.51,-479.67C694.54,-464.99 704.72,-418 672.5,-418"/>
<polygon fill="black" stroke="black" points="719.86,-481.63 726.44,-487.44 723.68,-482.82 727.5,-484 727.5,-484 727.5,-484 723.68,-482.82 728.56,-480.56 719.86,-481.63 719.86,-481.63"/>
<ellipse fill="none" stroke="black" cx="716.8" cy="-480.69" rx="3.2" ry="3.2"/>
</g>
<!-- public.users -->
<g id="node4" class="node">
<title>public.users</title>
<g id="a_node4"><a xlink:href="../../../public/tables/users.html" xlink:title="public.users" target="_top">
<polygon fill="#ffffff" stroke="transparent" points="8,-176 8,-234 124,-234 124,-176 8,-176"/>
<polygon fill="#f5f5f5" stroke="transparent" points="8,-212 8,-234 124,-234 124,-212 8,-212"/>
<polygon fill="none" stroke="black" points="8,-212 8,-234 124,-234 124,-212 8,-212"/>
<text text-anchor="start" x="13" y="-221.2" font-family="Helvetica,sans-Serif" font-weight="bold" font-size="11.00">public.users</text>
<text text-anchor="start" x="85" y="-220.2" font-family="Helvetica,sans-Serif" font-size="11.00">[table]</text>
<polygon fill="none" stroke="black" points="8,-194 8,-212 124,-212 124,-194 8,-194"/>
<text text-anchor="start" x="11" y="-200.2" font-family="Helvetica,sans-Serif" font-size="11.00">...</text>
<polygon fill="#ffffff" stroke="transparent" points="8,-176 8,-194 38,-194 38,-176 8,-176"/>
<polygon fill="none" stroke="black" points="8,-176 8,-194 38,-194 38,-176 8,-176"/>
<text text-anchor="start" x="11" y="-182.2" font-family="Helvetica,sans-Serif" font-size="11.00"> &#160;</text>
<polygon fill="#ffffff" stroke="transparent" points="38,-176 38,-194 87,-194 87,-176 38,-176"/>
<polygon fill="none" stroke="black" points="38,-176 38,-194 87,-194 87,-176 38,-176"/>
<text text-anchor="start" x="50" y="-182.2" font-family="Helvetica,sans-Serif" font-size="11.00">0 rows</text>
<polygon fill="#ffffff" stroke="transparent" points="87,-176 87,-194 124,-194 124,-176 87,-176"/>
<polygon fill="none" stroke="black" points="87,-176 87,-194 124,-194 124,-176 87,-176"/>
<text text-anchor="start" x="99" y="-182.2" font-family="Helvetica,sans-Serif" font-size="11.00">37 &gt;</text>
</a>
</g>
</g>
<!-- planting_seasons&#45;&gt;public.users -->
<g id="edge8" class="edge">
<title>planting_seasons:w&#45;&gt;public.users:e</title>
<path fill="none" stroke="black" d="M433.54,-281.41C421.54,-270.72 426.03,-244.19 405,-233 359.32,-208.7 217.05,-204.57 132.35,-204.37"/>
<polygon fill="black" stroke="black" points="439.9,-283.5 446.38,-289.42 443.7,-284.75 447.5,-286 447.5,-286 447.5,-286 443.7,-284.75 448.62,-282.58 439.9,-283.5 439.9,-283.5"/>
<ellipse fill="none" stroke="black" cx="436.86" cy="-282.5" rx="3.2" ry="3.2"/>
</g>
<!-- planting_seasons&#45;&gt;public.users -->
<g id="edge9" class="edge">
<title>planting_seasons:w&#45;&gt;public.users:e</title>
<path fill="none" stroke="black" d="M433.72,-237.49C423.45,-228.81 423.1,-210.05 405,-203 305.6,-164.3 271.66,-201.91 165,-203 154.36,-203.11 143.08,-203.28 132.1,-203.49"/>
<polygon fill="black" stroke="black" points="439.9,-239.51 446.38,-245.42 443.7,-240.75 447.5,-242 447.5,-242 447.5,-242 443.7,-240.75 448.62,-238.58 439.9,-239.51 439.9,-239.51"/>
<ellipse fill="none" stroke="black" cx="436.86" cy="-238.51" rx="3.2" ry="3.2"/>
</g>
<!-- planting_sites -->
<g id="node6" class="node">
<title>planting_sites</title>
<g id="a_node6"><a xlink:href="../../tables/planting_sites.html" xlink:title="planting_sites" target="_top">
<polygon fill="#ffffff" stroke="transparent" points="173,-348 173,-582 397,-582 397,-348 173,-348"/>
<polygon fill="#f5f5f5" stroke="transparent" points="173,-560 173,-582 397,-582 397,-560 173,-560"/>
<polygon fill="none" stroke="black" points="173,-560 173,-582 397,-582 397,-560 173,-560"/>
<text text-anchor="start" x="178" y="-569.2" font-family="Helvetica,sans-Serif" font-weight="bold" font-size="11.00">planting_sites</text>
<text text-anchor="start" x="358" y="-568.2" font-family="Helvetica,sans-Serif" font-size="11.00">[table]</text>
<polygon fill="none" stroke="black" points="173,-538 173,-560 397,-560 397,-538 173,-538"/>
<image xlink:href="../../images/primaryKeys.png" width="11px" height="12px" preserveAspectRatio="xMinYMin meet" x="178" y="-555"/>
<text text-anchor="start" x="193" y="-546.2" font-family="Helvetica,sans-Serif" font-size="11.00">id</text>
<polygon fill="#ffffff" stroke="transparent" points="173,-516 173,-538 397,-538 397,-516 173,-516"/>
<polygon fill="none" stroke="black" points="173,-516 173,-538 397,-538 397,-516 173,-516"/>
<image xlink:href="../../images/foreignKeys.png" width="11px" height="12px" preserveAspectRatio="xMinYMin meet" x="178" y="-533"/>
<text text-anchor="start" x="193" y="-524.2" font-family="Helvetica,sans-Serif" font-size="11.00">organization_id</text>
<polygon fill="#ffffff" stroke="transparent" points="173,-494 173,-516 397,-516 397,-494 173,-494"/>
<polygon fill="none" stroke="black" points="173,-494 173,-516 397,-516 397,-494 173,-494"/>
<text text-anchor="start" x="193" y="-502.2" font-family="Helvetica,sans-Serif" font-size="11.00">name</text>
<polygon fill="none" stroke="black" points="173,-472 173,-494 397,-494 397,-472 173,-472"/>
<image xlink:href="../../images/foreignKeys.png" width="11px" height="12px" preserveAspectRatio="xMinYMin meet" x="178" y="-489"/>
<text text-anchor="start" x="193" y="-480.2" font-family="Helvetica,sans-Serif" font-size="11.00">created_by</text>
<polygon fill="none" stroke="black" points="173,-450 173,-472 397,-472 397,-450 173,-450"/>
<image xlink:href="../../images/foreignKeys.png" width="11px" height="12px" preserveAspectRatio="xMinYMin meet" x="178" y="-467"/>
<text text-anchor="start" x="193" y="-458.2" font-family="Helvetica,sans-Serif" font-size="11.00">modified_by</text>
<polygon fill="none" stroke="black" points="173,-428 173,-450 397,-450 397,-428 173,-428"/>
<image xlink:href="../../images/foreignKeys.png" width="11px" height="12px" preserveAspectRatio="xMinYMin meet" x="178" y="-445"/>
<text text-anchor="start" x="193" y="-436.2" font-family="Helvetica,sans-Serif" font-size="11.00">time_zone</text>
<polygon fill="#ffffff" stroke="transparent" points="173,-406 173,-428 397,-428 397,-406 173,-406"/>
<polygon fill="none" stroke="black" points="173,-406 173,-428 397,-428 397,-406 173,-406"/>
<image xlink:href="../../images/foreignKeys.png" width="11px" height="12px" preserveAspectRatio="xMinYMin meet" x="178" y="-423"/>
<text text-anchor="start" x="193" y="-414.2" font-family="Helvetica,sans-Serif" font-size="11.00">project_id</text>
<polygon fill="none" stroke="black" points="173,-384 173,-406 397,-406 397,-384 173,-384"/>
<image xlink:href="../../images/foreignKeys.png" width="11px" height="12px" preserveAspectRatio="xMinYMin meet" x="178" y="-401"/>
<text text-anchor="start" x="193" y="-392.2" font-family="Helvetica,sans-Serif" font-size="11.00">country_code</text>
<polygon fill="none" stroke="black" points="173,-366 173,-384 397,-384 397,-366 173,-366"/>
<text text-anchor="start" x="176" y="-372.2" font-family="Helvetica,sans-Serif" font-size="11.00">...</text>
<polygon fill="#ffffff" stroke="transparent" points="173,-348 173,-366 275,-366 275,-348 173,-348"/>
<polygon fill="none" stroke="black" points="173,-348 173,-366 275,-366 275,-348 173,-348"/>
<text text-anchor="start" x="176" y="-354.2" font-family="Helvetica,sans-Serif" font-size="11.00">&lt; 6</text>
<polygon fill="#ffffff" stroke="transparent" points="275,-348 275,-366 328,-366 328,-348 275,-348"/>
<polygon fill="none" stroke="black" points="275,-348 275,-366 328,-366 328,-348 275,-348"/>
<text text-anchor="start" x="318" y="-354.2" font-family="Helvetica,sans-Serif" font-size="11.00"> &#160;</text>
<polygon fill="#ffffff" stroke="transparent" points="328,-348 328,-366 397,-366 397,-348 328,-348"/>
<polygon fill="none" stroke="black" points="328,-348 328,-366 397,-366 397,-348 328,-348"/>
<text text-anchor="start" x="372" y="-354.2" font-family="Helvetica,sans-Serif" font-size="11.00">15 &gt;</text>
</a>
</g>
</g>
<!-- planting_seasons&#45;&gt;planting_sites -->
<g id="edge10" class="edge">
<title>planting_seasons:w&#45;&gt;planting_sites:e</title>
<path fill="none" stroke="black" d="M433.33,-398.79C389.94,-419.52 463.75,-549 398,-549"/>
<polygon fill="black" stroke="black" points="439.65,-397.54 448.19,-399.53 443.58,-396.77 447.5,-396 447.5,-396 447.5,-396 443.58,-396.77 446.81,-392.47 439.65,-397.54 439.65,-397.54"/>
<ellipse fill="none" stroke="black" cx="436.51" cy="-398.16" rx="3.2" ry="3.2"/>
</g>
<!-- planting_season_statuses -->
<g id="node7" class="node">
<title>planting_season_statuses</title>
<g id="a_node7"><a xlink:href="../../tables/planting_season_statuses.html" xlink:title="planting_season_statuses" target="_top">
<polygon fill="#ffffff" stroke="transparent" points="187.5,-243 187.5,-327 382.5,-327 382.5,-243 187.5,-243"/>
<polygon fill="#f5f5f5" stroke="transparent" points="188,-305 188,-327 383,-327 383,-305 188,-305"/>
<polygon fill="none" stroke="black" points="188,-305 188,-327 383,-327 383,-305 188,-305"/>
<text text-anchor="start" x="193" y="-314.2" font-family="Helvetica,sans-Serif" font-weight="bold" font-size="11.00">planting_season_statuses</text>
<text text-anchor="start" x="344" y="-313.2" font-family="Helvetica,sans-Serif" font-size="11.00">[table]</text>
<polygon fill="none" stroke="black" points="188,-283 188,-305 383,-305 383,-283 188,-283"/>
<image xlink:href="../../images/primaryKeys.png" width="11px" height="12px" preserveAspectRatio="xMinYMin meet" x="193" y="-300"/>
<text text-anchor="start" x="220" y="-291.2" font-family="Helvetica,sans-Serif" font-size="11.00">id</text>
<polygon fill="#ffffff" stroke="transparent" points="188,-261 188,-283 383,-283 383,-261 188,-261"/>
<polygon fill="none" stroke="black" points="188,-261 188,-283 383,-283 383,-261 188,-261"/>
<text text-anchor="start" x="220" y="-269.2" font-family="Helvetica,sans-Serif" font-size="11.00">name</text>
<polygon fill="#ffffff" stroke="transparent" points="188,-243 188,-261 274,-261 274,-243 188,-243"/>
<polygon fill="none" stroke="black" points="188,-243 188,-261 274,-261 274,-243 188,-243"/>
<text text-anchor="start" x="191" y="-249.2" font-family="Helvetica,sans-Serif" font-size="11.00"> &#160;</text>
<polygon fill="#ffffff" stroke="transparent" points="274,-243 274,-261 324,-261 324,-243 274,-243"/>
<polygon fill="none" stroke="black" points="274,-243 274,-261 324,-261 324,-243 274,-243"/>
<text text-anchor="start" x="314" y="-249.2" font-family="Helvetica,sans-Serif" font-size="11.00"> &#160;</text>
<polygon fill="#ffffff" stroke="transparent" points="324,-243 324,-261 383,-261 383,-243 324,-243"/>
<polygon fill="none" stroke="black" points="324,-243 324,-261 383,-261 383,-243 324,-243"/>
<text text-anchor="start" x="364" y="-249.2" font-family="Helvetica,sans-Serif" font-size="11.00">1 &gt;</text>
</a>
</g>
</g>
<!-- planting_seasons&#45;&gt;planting_season_statuses -->
<g id="edge11" class="edge">
<title>planting_seasons:w&#45;&gt;planting_season_statuses:e</title>
<path fill="none" stroke="black" d="M433.13,-306.66C415.57,-303.15 407.37,-294 384,-294"/>
<polygon fill="black" stroke="black" points="439.53,-307.26 447.17,-311.58 443.52,-307.63 447.5,-308 447.5,-308 447.5,-308 443.52,-307.63 447.83,-304.42 439.53,-307.26 439.53,-307.26"/>
<ellipse fill="none" stroke="black" cx="436.35" cy="-306.96" rx="3.2" ry="3.2"/>
</g>
<!-- planting_season_allocated_species -->
<g id="node3" class="node">
<title>planting_season_allocated_species</title>
<g id="a_node3"><a xlink:href="../../tables/planting_season_allocated_species.html" xlink:title="planting_season_allocated_species" target="_top">
<polygon fill="#ffffff" stroke="transparent" points="722,-559 722,-705 971,-705 971,-559 722,-559"/>
<polygon fill="#f5f5f5" stroke="transparent" points="722.5,-683 722.5,-705 971.5,-705 971.5,-683 722.5,-683"/>
<polygon fill="none" stroke="black" points="722.5,-683 722.5,-705 971.5,-705 971.5,-683 722.5,-683"/>
<text text-anchor="start" x="727.5" y="-692.2" font-family="Helvetica,sans-Serif" font-weight="bold" font-size="11.00">planting_season_allocated_species</text>
<text text-anchor="start" x="932.5" y="-691.2" font-family="Helvetica,sans-Serif" font-size="11.00">[table]</text>
<polygon fill="none" stroke="black" points="722.5,-661 722.5,-683 971.5,-683 971.5,-661 722.5,-661"/>
<image xlink:href="../../images/primaryKeys.png" width="11px" height="12px" preserveAspectRatio="xMinYMin meet" x="727.5" y="-678"/>
<text text-anchor="start" x="754.5" y="-669.2" font-family="Helvetica,sans-Serif" font-size="11.00">planting_season_id</text>
<polygon fill="none" stroke="black" points="722.5,-639 722.5,-661 971.5,-661 971.5,-639 722.5,-639"/>
<image xlink:href="../../images/primaryKeys.png" width="11px" height="12px" preserveAspectRatio="xMinYMin meet" x="727.5" y="-656"/>
<text text-anchor="start" x="754.5" y="-647.2" font-family="Helvetica,sans-Serif" font-size="11.00">species_id</text>
<polygon fill="none" stroke="black" points="722.5,-617 722.5,-639 971.5,-639 971.5,-617 722.5,-617"/>
<image xlink:href="../../images/foreignKeys.png" width="11px" height="12px" preserveAspectRatio="xMinYMin meet" x="727.5" y="-634"/>
<text text-anchor="start" x="754.5" y="-625.2" font-family="Helvetica,sans-Serif" font-size="11.00">created_by</text>
<polygon fill="none" stroke="black" points="722.5,-595 722.5,-617 971.5,-617 971.5,-595 722.5,-595"/>
<image xlink:href="../../images/foreignKeys.png" width="11px" height="12px" preserveAspectRatio="xMinYMin meet" x="727.5" y="-612"/>
<text text-anchor="start" x="754.5" y="-603.2" font-family="Helvetica,sans-Serif" font-size="11.00">modified_by</text>
<polygon fill="none" stroke="black" points="722.5,-577 722.5,-595 971.5,-595 971.5,-577 722.5,-577"/>
<text text-anchor="start" x="725.5" y="-583.2" font-family="Helvetica,sans-Serif" font-size="11.00">...</text>
<polygon fill="#ffffff" stroke="transparent" points="722.5,-559 722.5,-577 844.5,-577 844.5,-559 722.5,-559"/>
<polygon fill="none" stroke="black" points="722.5,-559 722.5,-577 844.5,-577 844.5,-559 722.5,-559"/>
<text text-anchor="start" x="725.5" y="-565.2" font-family="Helvetica,sans-Serif" font-size="11.00">&lt; 4</text>
<polygon fill="#ffffff" stroke="transparent" points="844.5,-559 844.5,-577 907.5,-577 907.5,-559 844.5,-559"/>
<polygon fill="none" stroke="black" points="844.5,-559 844.5,-577 907.5,-577 907.5,-559 844.5,-559"/>
<text text-anchor="start" x="897.5" y="-565.2" font-family="Helvetica,sans-Serif" font-size="11.00"> &#160;</text>
<polygon fill="#ffffff" stroke="transparent" points="907.5,-559 907.5,-577 971.5,-577 971.5,-559 907.5,-559"/>
<polygon fill="none" stroke="black" points="907.5,-559 907.5,-577 971.5,-577 971.5,-559 907.5,-559"/>
<text text-anchor="start" x="961.5" y="-565.2" font-family="Helvetica,sans-Serif" font-size="11.00"> &#160;</text>
</a>
</g>
</g>
<!-- planting_season_allocated_species&#45;&gt;planting_seasons -->
<g id="edge4" class="edge">
<title>planting_season_allocated_species:w&#45;&gt;planting_seasons:e</title>
<path fill="none" stroke="black" d="M706.96,-670.31C623.17,-648.27 781.97,-418 672.5,-418"/>
<polygon fill="black" stroke="black" points="713.55,-671.08 721.08,-675.58 717.53,-671.54 721.5,-672 721.5,-672 721.5,-672 717.53,-671.54 721.92,-668.42 713.55,-671.08 713.55,-671.08"/>
<ellipse fill="none" stroke="black" cx="710.37" cy="-670.71" rx="3.2" ry="3.2"/>
</g>
<!-- planting_season_allocated_species&#45;&gt;public.users -->
<g id="edge2" class="edge">
<title>planting_season_allocated_species:w&#45;&gt;public.users:e</title>
<path fill="none" stroke="black" d="M706.8,-628.17C469.41,-633.62 353.64,-768.28 165,-616 105.71,-568.14 78.11,-327.29 69.81,-238.2"/>
<polygon fill="black" stroke="black" points="713.5,-628.09 721.54,-631.6 717.5,-628.05 721.5,-628 721.5,-628 721.5,-628 717.5,-628.05 721.46,-624.4 713.5,-628.09 713.5,-628.09"/>
<ellipse fill="none" stroke="black" cx="710.3" cy="-628.13" rx="3.2" ry="3.2"/>
</g>
<!-- planting_season_allocated_species&#45;&gt;public.users -->
<g id="edge3" class="edge">
<title>planting_season_allocated_species:w&#45;&gt;public.users:e</title>
<path fill="none" stroke="black" d="M706.83,-606.25C608.72,-608.78 210.52,-629.31 165,-593 108.99,-548.32 79.62,-323.78 70.32,-238.2"/>
<polygon fill="black" stroke="black" points="713.5,-606.13 721.56,-609.6 717.5,-606.07 721.5,-606 721.5,-606 721.5,-606 717.5,-606.07 721.44,-602.4 713.5,-606.13 713.5,-606.13"/>
<ellipse fill="none" stroke="black" cx="710.3" cy="-606.19" rx="3.2" ry="3.2"/>
</g>
<!-- planting_season_species_targets -->
<g id="node5" class="node">
<title>planting_season_species_targets</title>
<g id="a_node5"><a xlink:href="../../tables/planting_season_species_targets.html" xlink:title="planting_season_species_targets" target="_top">
<polygon fill="#ffffff" stroke="transparent" points="728.5,-37 728.5,-205 964.5,-205 964.5,-37 728.5,-37"/>
<polygon fill="#f5f5f5" stroke="transparent" points="728.5,-183 728.5,-205 964.5,-205 964.5,-183 728.5,-183"/>
<polygon fill="none" stroke="black" points="728.5,-183 728.5,-205 964.5,-205 964.5,-183 728.5,-183"/>
<text text-anchor="start" x="733.5" y="-192.2" font-family="Helvetica,sans-Serif" font-weight="bold" font-size="11.00">planting_season_species_targets</text>
<text text-anchor="start" x="925.5" y="-191.2" font-family="Helvetica,sans-Serif" font-size="11.00">[table]</text>
<polygon fill="none" stroke="black" points="728.5,-161 728.5,-183 964.5,-183 964.5,-161 728.5,-161"/>
<image xlink:href="../../images/primaryKeys.png" width="11px" height="12px" preserveAspectRatio="xMinYMin meet" x="733.5" y="-178"/>
<text text-anchor="start" x="760.5" y="-169.2" font-family="Helvetica,sans-Serif" font-size="11.00">planting_season_id</text>
<polygon fill="none" stroke="black" points="728.5,-139 728.5,-161 964.5,-161 964.5,-139 728.5,-139"/>
<image xlink:href="../../images/primaryKeys.png" width="11px" height="12px" preserveAspectRatio="xMinYMin meet" x="733.5" y="-156"/>
<text text-anchor="start" x="760.5" y="-147.2" font-family="Helvetica,sans-Serif" font-size="11.00">substratum_id</text>
<polygon fill="none" stroke="black" points="728.5,-117 728.5,-139 964.5,-139 964.5,-117 728.5,-117"/>
<image xlink:href="../../images/primaryKeys.png" width="11px" height="12px" preserveAspectRatio="xMinYMin meet" x="733.5" y="-134"/>
<text text-anchor="start" x="760.5" y="-125.2" font-family="Helvetica,sans-Serif" font-size="11.00">species_id</text>
<polygon fill="none" stroke="black" points="728.5,-95 728.5,-117 964.5,-117 964.5,-95 728.5,-95"/>
<image xlink:href="../../images/foreignKeys.png" width="11px" height="12px" preserveAspectRatio="xMinYMin meet" x="733.5" y="-112"/>
<text text-anchor="start" x="760.5" y="-103.2" font-family="Helvetica,sans-Serif" font-size="11.00">created_by</text>
<polygon fill="none" stroke="black" points="728.5,-73 728.5,-95 964.5,-95 964.5,-73 728.5,-73"/>
<image xlink:href="../../images/foreignKeys.png" width="11px" height="12px" preserveAspectRatio="xMinYMin meet" x="733.5" y="-90"/>
<text text-anchor="start" x="760.5" y="-81.2" font-family="Helvetica,sans-Serif" font-size="11.00">modified_by</text>
<polygon fill="none" stroke="black" points="728.5,-55 728.5,-73 964.5,-73 964.5,-55 728.5,-55"/>
<text text-anchor="start" x="731.5" y="-61.2" font-family="Helvetica,sans-Serif" font-size="11.00">...</text>
<polygon fill="#ffffff" stroke="transparent" points="728.5,-37 728.5,-55 844.5,-55 844.5,-37 728.5,-37"/>
<polygon fill="none" stroke="black" points="728.5,-37 728.5,-55 844.5,-55 844.5,-37 728.5,-37"/>
<text text-anchor="start" x="731.5" y="-43.2" font-family="Helvetica,sans-Serif" font-size="11.00">&lt; 5</text>
<polygon fill="#ffffff" stroke="transparent" points="844.5,-37 844.5,-55 904.5,-55 904.5,-37 844.5,-37"/>
<polygon fill="none" stroke="black" points="844.5,-37 844.5,-55 904.5,-55 904.5,-37 844.5,-37"/>
<text text-anchor="start" x="894.5" y="-43.2" font-family="Helvetica,sans-Serif" font-size="11.00"> &#160;</text>
<polygon fill="#ffffff" stroke="transparent" points="904.5,-37 904.5,-55 964.5,-55 964.5,-37 904.5,-37"/>
<polygon fill="none" stroke="black" points="904.5,-37 904.5,-55 964.5,-55 964.5,-37 904.5,-37"/>
<text text-anchor="start" x="954.5" y="-43.2" font-family="Helvetica,sans-Serif" font-size="11.00"> &#160;</text>
</a>
</g>
</g>
<!-- planting_season_species_targets&#45;&gt;planting_seasons -->
<g id="edge7" class="edge">
<title>planting_season_species_targets:w&#45;&gt;planting_seasons:e</title>
<path fill="none" stroke="black" d="M713.03,-173.7C631.31,-195.44 779.06,-418 672.5,-418"/>
<polygon fill="black" stroke="black" points="719.55,-172.93 727.92,-175.58 723.53,-172.47 727.5,-172 727.5,-172 727.5,-172 723.53,-172.47 727.08,-168.42 719.55,-172.93 719.55,-172.93"/>
<ellipse fill="none" stroke="black" cx="716.38" cy="-173.31" rx="3.2" ry="3.2"/>
</g>
<!-- planting_season_species_targets&#45;&gt;public.users -->
<g id="edge5" class="edge">
<title>planting_season_species_targets:w&#45;&gt;public.users:e</title>
<path fill="none" stroke="black" d="M712.79,-105.92C578.93,-104.52 278.05,-86.41 165,-128 140.02,-137.19 116.42,-155.32 98.64,-171.69"/>
<polygon fill="black" stroke="black" points="719.5,-105.95 727.48,-109.6 723.5,-105.98 727.5,-106 727.5,-106 727.5,-106 723.5,-105.98 727.52,-102.4 719.5,-105.95 719.5,-105.95"/>
<ellipse fill="none" stroke="black" cx="716.3" cy="-105.94" rx="3.2" ry="3.2"/>
</g>
<!-- planting_season_species_targets&#45;&gt;public.users -->
<g id="edge6" class="edge">
<title>planting_season_species_targets:w&#45;&gt;public.users:e</title>
<path fill="none" stroke="black" d="M713.03,-83.9C474.05,-80.63 388.33,2.24 165,-99 131.45,-114.21 104.11,-146.9 86.92,-171.99"/>
<polygon fill="black" stroke="black" points="719.5,-83.95 727.48,-87.6 723.5,-83.97 727.5,-84 727.5,-84 727.5,-84 723.5,-83.97 727.52,-80.4 719.5,-83.95 719.5,-83.95"/>
<ellipse fill="none" stroke="black" cx="716.3" cy="-83.92" rx="3.2" ry="3.2"/>
</g>
<!-- planting_sites&#45;&gt;public.users -->
<g id="edge12" class="edge">
<title>planting_sites:w&#45;&gt;public.users:e</title>
<path fill="none" stroke="black" d="M158.16,-478.89C113.95,-452.43 83.91,-305.27 72.32,-238.26"/>
<polygon fill="black" stroke="black" points="164.33,-480.72 170.97,-486.45 168.17,-481.86 172,-483 172,-483 172,-483 168.17,-481.86 173.03,-479.55 164.33,-480.72 164.33,-480.72"/>
<ellipse fill="none" stroke="black" cx="161.26" cy="-479.81" rx="3.2" ry="3.2"/>
</g>
<!-- planting_sites&#45;&gt;public.users -->
<g id="edge13" class="edge">
<title>planting_sites:w&#45;&gt;public.users:e</title>
<path fill="none" stroke="black" d="M157.63,-459.75C75.67,-445.04 66.06,-303.82 66.08,-238.21"/>
<polygon fill="black" stroke="black" points="164.03,-460.31 171.69,-464.59 168.01,-460.65 172,-461 172,-461 172,-461 168.01,-460.65 172.31,-457.41 164.03,-460.31 164.03,-460.31"/>
<ellipse fill="none" stroke="black" cx="160.84" cy="-460.03" rx="3.2" ry="3.2"/>
</g>
<!-- scheduled_planting_dates -->
<g id="node8" class="node">
<title>scheduled_planting_dates</title>
<g id="a_node8"><a xlink:href="../../tables/scheduled_planting_dates.html" xlink:title="scheduled_planting_dates" target="_top">
<polygon fill="#ffffff" stroke="transparent" points="748,-226 748,-394 945,-394 945,-226 748,-226"/>
<polygon fill="#f5f5f5" stroke="transparent" points="748.5,-372 748.5,-394 945.5,-394 945.5,-372 748.5,-372"/>
<polygon fill="none" stroke="black" points="748.5,-372 748.5,-394 945.5,-394 945.5,-372 748.5,-372"/>
<text text-anchor="start" x="753.5" y="-381.2" font-family="Helvetica,sans-Serif" font-weight="bold" font-size="11.00">scheduled_planting_dates</text>
<text text-anchor="start" x="906.5" y="-380.2" font-family="Helvetica,sans-Serif" font-size="11.00">[table]</text>
<polygon fill="none" stroke="black" points="748.5,-350 748.5,-372 945.5,-372 945.5,-350 748.5,-350"/>
<image xlink:href="../../images/primaryKeys.png" width="11px" height="12px" preserveAspectRatio="xMinYMin meet" x="753.5" y="-367"/>
<text text-anchor="start" x="780.5" y="-358.2" font-family="Helvetica,sans-Serif" font-size="11.00">id</text>
<polygon fill="#ffffff" stroke="transparent" points="748.5,-328 748.5,-350 945.5,-350 945.5,-328 748.5,-328"/>
<polygon fill="none" stroke="black" points="748.5,-328 748.5,-350 945.5,-350 945.5,-328 748.5,-328"/>
<image xlink:href="../../images/foreignKeys.png" width="11px" height="12px" preserveAspectRatio="xMinYMin meet" x="753.5" y="-345"/>
<text text-anchor="start" x="780.5" y="-336.2" font-family="Helvetica,sans-Serif" font-size="11.00">planting_season_id</text>
<polygon fill="#ffffff" stroke="transparent" points="748.5,-306 748.5,-328 945.5,-328 945.5,-306 748.5,-306"/>
<polygon fill="none" stroke="black" points="748.5,-306 748.5,-328 945.5,-328 945.5,-306 748.5,-306"/>
<text text-anchor="start" x="780.5" y="-314.2" font-family="Helvetica,sans-Serif" font-size="11.00">date</text>
<polygon fill="none" stroke="black" points="748.5,-284 748.5,-306 945.5,-306 945.5,-284 748.5,-284"/>
<image xlink:href="../../images/foreignKeys.png" width="11px" height="12px" preserveAspectRatio="xMinYMin meet" x="753.5" y="-301"/>
<text text-anchor="start" x="780.5" y="-292.2" font-family="Helvetica,sans-Serif" font-size="11.00">created_by</text>
<polygon fill="none" stroke="black" points="748.5,-262 748.5,-284 945.5,-284 945.5,-262 748.5,-262"/>
<image xlink:href="../../images/foreignKeys.png" width="11px" height="12px" preserveAspectRatio="xMinYMin meet" x="753.5" y="-279"/>
<text text-anchor="start" x="780.5" y="-270.2" font-family="Helvetica,sans-Serif" font-size="11.00">modified_by</text>
<polygon fill="none" stroke="black" points="748.5,-244 748.5,-262 945.5,-262 945.5,-244 748.5,-244"/>
<text text-anchor="start" x="751.5" y="-250.2" font-family="Helvetica,sans-Serif" font-size="11.00">...</text>
<polygon fill="#ffffff" stroke="transparent" points="748.5,-226 748.5,-244 840.5,-244 840.5,-226 748.5,-226"/>
<polygon fill="none" stroke="black" points="748.5,-226 748.5,-244 840.5,-244 840.5,-226 748.5,-226"/>
<text text-anchor="start" x="751.5" y="-232.2" font-family="Helvetica,sans-Serif" font-size="11.00">&lt; 3</text>
<polygon fill="#ffffff" stroke="transparent" points="840.5,-226 840.5,-244 888.5,-244 888.5,-226 840.5,-226"/>
<polygon fill="none" stroke="black" points="840.5,-226 840.5,-244 888.5,-244 888.5,-226 840.5,-226"/>
<text text-anchor="start" x="878.5" y="-232.2" font-family="Helvetica,sans-Serif" font-size="11.00"> &#160;</text>
<polygon fill="#ffffff" stroke="transparent" points="888.5,-226 888.5,-244 945.5,-244 945.5,-226 888.5,-226"/>
<polygon fill="none" stroke="black" points="888.5,-226 888.5,-244 945.5,-244 945.5,-226 888.5,-226"/>
<text text-anchor="start" x="926.5" y="-232.2" font-family="Helvetica,sans-Serif" font-size="11.00">2 &gt;</text>
</a>
</g>
</g>
<!-- scheduled_planting_dates&#45;&gt;planting_seasons -->
<g id="edge16" class="edge">
<title>scheduled_planting_dates:w&#45;&gt;planting_seasons:e</title>
<path fill="none" stroke="black" d="M733.15,-342C703.24,-356.43 715.24,-418 672.5,-418"/>
<polygon fill="black" stroke="black" points="739.67,-340.64 748.24,-342.52 743.58,-339.82 747.5,-339 747.5,-339 747.5,-339 743.58,-339.82 746.76,-335.48 739.67,-340.64 739.67,-340.64"/>
<ellipse fill="none" stroke="black" cx="736.54" cy="-341.29" rx="3.2" ry="3.2"/>
</g>
<!-- scheduled_planting_dates&#45;&gt;public.users -->
<g id="edge14" class="edge">
<title>scheduled_planting_dates:w&#45;&gt;public.users:e</title>
<path fill="none" stroke="black" d="M732.87,-292.67C695.82,-278.7 727.4,-205.88 681,-179 670.04,-172.65 181.05,-180.05 165,-182 154.24,-183.31 142.95,-185.33 132.01,-187.64"/>
<polygon fill="black" stroke="black" points="739.6,-293.74 746.93,-298.56 743.55,-294.37 747.5,-295 747.5,-295 747.5,-295 743.55,-294.37 748.07,-291.44 739.6,-293.74 739.6,-293.74"/>
<ellipse fill="none" stroke="black" cx="736.44" cy="-293.24" rx="3.2" ry="3.2"/>
</g>
<!-- scheduled_planting_dates&#45;&gt;public.users -->
<g id="edge15" class="edge">
<title>scheduled_planting_dates:w&#45;&gt;public.users:e</title>
<path fill="none" stroke="black" d="M732.9,-270.48C700.58,-257.23 722.9,-195.45 681,-173 673.09,-168.76 184.43,-170.96 165,-174 154.25,-175.68 143.05,-178.32 132.24,-181.37"/>
<polygon fill="black" stroke="black" points="739.62,-271.64 746.89,-276.55 743.56,-272.32 747.5,-273 747.5,-273 747.5,-273 743.56,-272.32 748.11,-269.45 739.62,-271.64 739.62,-271.64"/>
<ellipse fill="none" stroke="black" cx="736.46" cy="-271.09" rx="3.2" ry="3.2"/>
</g>
</g>
</svg>
