<?xml version="1.0" encoding="UTF-8" standalone="no"?>
<!DOCTYPE svg PUBLIC "-//W3C//DTD SVG 1.1//EN"
 "http://www.w3.org/Graphics/SVG/1.1/DTD/svg11.dtd">
<!-- Generated by graphviz version 2.38.0 (20140413.2041)
 -->
<!-- Title: oneDegreeRelationshipsDiagram Pages: 1 -->
<svg width="835pt" height="696pt"
 viewBox="0.00 0.00 835.00 695.53" xmlns="http://www.w3.org/2000/svg" xmlns:xlink="http://www.w3.org/1999/xlink">
<g id="graph0" class="graph" transform="scale(1 1) rotate(0) translate(4 691.533)">
<title>oneDegreeRelationshipsDiagram</title>
<polygon fill="#ffffff" stroke="none" points="-4,4 -4,-691.533 831,-691.533 831,4 -4,4"/>
<text text-anchor="middle" x="74.5" y="-7.2" font-family="Helvetica,sans-Serif" font-size="11.00">Generated by SchemaSpy</text>
<!-- deliveries -->
<g id="node1" class="node"><title>deliveries</title>
<g id="a_node1"><a xlink:href="../../tables/deliveries.html" xlink:title="deliveries" target="_top">
<polygon fill="#ffffff" stroke="none" points="378,-493.533 378,-683.533 496,-683.533 496,-493.533 378,-493.533"/>
<polygon fill="#f5f5f5" stroke="none" points="378,-661.533 378,-683.533 496,-683.533 496,-661.533 378,-661.533"/>
<polygon fill="none" stroke="black" points="378,-661.533 378,-683.533 496,-683.533 496,-661.533 378,-661.533"/>
<text text-anchor="start" x="383" y="-670.733" font-family="Helvetica,sans-Serif" font-weight="bold" font-size="11.00">deliveries</text>
<text text-anchor="start" x="457" y="-669.733" font-family="Helvetica,sans-Serif" font-size="11.00">[table]</text>
<polygon fill="none" stroke="black" points="378,-639.533 378,-661.533 496,-661.533 496,-639.533 378,-639.533"/>
<image xlink:href="../../images/primaryKeys.png" width="11px" height="12px" preserveAspectRatio="xMinYMin meet" x="383" y="-656.533"/>
<text text-anchor="start" x="398" y="-647.733" font-family="Helvetica,sans-Serif" font-size="11.00">id</text>
<polygon fill="#ffffff" stroke="none" points="378,-617.533 378,-639.533 496,-639.533 496,-617.533 378,-617.533"/>
<polygon fill="none" stroke="black" points="378,-617.533 378,-639.533 496,-639.533 496,-617.533 378,-617.533"/>
<image xlink:href="../../images/foreignKeys.png" width="11px" height="12px" preserveAspectRatio="xMinYMin meet" x="383" y="-634.533"/>
<text text-anchor="start" x="398" y="-625.733" font-family="Helvetica,sans-Serif" font-size="11.00">withdrawal_id</text>
<polygon fill="#ffffff" stroke="none" points="378,-595.533 378,-617.533 496,-617.533 496,-595.533 378,-595.533"/>
<polygon fill="none" stroke="black" points="378,-595.533 378,-617.533 496,-617.533 496,-595.533 378,-595.533"/>
<image xlink:href="../../images/foreignKeys.png" width="11px" height="12px" preserveAspectRatio="xMinYMin meet" x="383" y="-612.533"/>
<text text-anchor="start" x="398" y="-603.733" font-family="Helvetica,sans-Serif" font-size="11.00">planting_site_id</text>
<polygon fill="none" stroke="black" points="378,-573.533 378,-595.533 496,-595.533 496,-573.533 378,-573.533"/>
<image xlink:href="../../images/foreignKeys.png" width="11px" height="12px" preserveAspectRatio="xMinYMin meet" x="383" y="-590.533"/>
<text text-anchor="start" x="398" y="-581.733" font-family="Helvetica,sans-Serif" font-size="11.00">created_by</text>
<polygon fill="none" stroke="black" points="378,-551.533 378,-573.533 496,-573.533 496,-551.533 378,-551.533"/>
<image xlink:href="../../images/foreignKeys.png" width="11px" height="12px" preserveAspectRatio="xMinYMin meet" x="383" y="-568.533"/>
<text text-anchor="start" x="398" y="-559.733" font-family="Helvetica,sans-Serif" font-size="11.00">modified_by</text>
<polygon fill="none" stroke="black" points="378,-529.533 378,-551.533 496,-551.533 496,-529.533 378,-529.533"/>
<image xlink:href="../../images/foreignKeys.png" width="11px" height="12px" preserveAspectRatio="xMinYMin meet" x="383" y="-546.533"/>
<text text-anchor="start" x="398" y="-537.733" font-family="Helvetica,sans-Serif" font-size="11.00">reassigned_by</text>
<polygon fill="none" stroke="black" points="378,-511.533 378,-529.533 496,-529.533 496,-511.533 378,-511.533"/>
<text text-anchor="start" x="381" y="-517.733" font-family="Helvetica,sans-Serif" font-size="11.00">...</text>
<polygon fill="#ffffff" stroke="none" points="378,-493.533 378,-511.533 416,-511.533 416,-493.533 378,-493.533"/>
<polygon fill="none" stroke="black" points="378,-493.533 378,-511.533 416,-511.533 416,-493.533 378,-493.533"/>
<text text-anchor="start" x="381" y="-499.733" font-family="Helvetica,sans-Serif" font-size="11.00">&lt; 5</text>
<polygon fill="#ffffff" stroke="none" points="416,-493.533 416,-511.533 465,-511.533 465,-493.533 416,-493.533"/>
<polygon fill="none" stroke="black" points="416,-493.533 416,-511.533 465,-511.533 465,-493.533 416,-493.533"/>
<text text-anchor="start" x="426" y="-499.733" font-family="Helvetica,sans-Serif" font-size="11.00">0 rows</text>
<polygon fill="#ffffff" stroke="none" points="465,-493.533 465,-511.533 496,-511.533 496,-493.533 465,-493.533"/>
<polygon fill="none" stroke="black" points="465,-493.533 465,-511.533 496,-511.533 496,-493.533 465,-493.533"/>
<text text-anchor="start" x="476" y="-499.733" font-family="Helvetica,sans-Serif" font-size="11.00">2 &gt;</text>
</a>
</g>
</g>
<!-- public.users -->
<g id="node2" class="node"><title>public.users</title>
<g id="a_node2"><a xlink:href="../../../public/tables/users.html" xlink:title="public.users" target="_top">
<polygon fill="#ffffff" stroke="none" points="8,-347.533 8,-405.533 126,-405.533 126,-347.533 8,-347.533"/>
<polygon fill="#f5f5f5" stroke="none" points="8,-383.533 8,-405.533 126,-405.533 126,-383.533 8,-383.533"/>
<polygon fill="none" stroke="black" points="8,-383.533 8,-405.533 126,-405.533 126,-383.533 8,-383.533"/>
<text text-anchor="start" x="13" y="-392.733" font-family="Helvetica,sans-Serif" font-weight="bold" font-size="11.00">public.users</text>
<text text-anchor="start" x="87" y="-391.733" font-family="Helvetica,sans-Serif" font-size="11.00">[table]</text>
<polygon fill="none" stroke="black" points="8,-365.533 8,-383.533 126,-383.533 126,-365.533 8,-365.533"/>
<text text-anchor="start" x="11" y="-371.733" font-family="Helvetica,sans-Serif" font-size="11.00">...</text>
<polygon fill="#ffffff" stroke="none" points="8,-347.533 8,-365.533 37,-365.533 37,-347.533 8,-347.533"/>
<polygon fill="none" stroke="black" points="8,-347.533 8,-365.533 37,-365.533 37,-347.533 8,-347.533"/>
<text text-anchor="start" x="11" y="-353.733" font-family="Helvetica,sans-Serif" font-size="11.00"> &#160;</text>
<polygon fill="#ffffff" stroke="none" points="37,-347.533 37,-365.533 87,-365.533 87,-347.533 37,-347.533"/>
<polygon fill="none" stroke="black" points="37,-347.533 37,-365.533 87,-365.533 87,-347.533 37,-347.533"/>
<text text-anchor="start" x="48" y="-353.733" font-family="Helvetica,sans-Serif" font-size="11.00">0 rows</text>
<polygon fill="#ffffff" stroke="none" points="87,-347.533 87,-365.533 126,-365.533 126,-347.533 87,-347.533"/>
<polygon fill="none" stroke="black" points="87,-347.533 87,-365.533 126,-365.533 126,-347.533 87,-347.533"/>
<text text-anchor="start" x="99" y="-353.733" font-family="Helvetica,sans-Serif" font-size="11.00">16 &gt;</text>
</a>
</g>
</g>
<!-- deliveries&#45;&gt;public.users -->
<g id="edge1" class="edge"><title>deliveries:created_by:w&#45;&gt;public.users:id:e</title>
<path fill="none" stroke="black" d="M362.344,-584.779C278.924,-587.565 240.641,-612.163 167,-562.533 113.914,-526.756 87.1439,-452.975 75.5179,-409.867"/>
<polygon fill="black" stroke="black" points="369.001,-584.667 377.06,-588.132 373.001,-584.6 377,-584.533 377,-584.533 377,-584.533 373.001,-584.6 376.94,-580.934 369.001,-584.667 369.001,-584.667"/>
<ellipse fill="none" stroke="black" cx="365.802" cy="-584.721" rx="3.2" ry="3.2"/>
</g>
<!-- deliveries&#45;&gt;public.users -->
<g id="edge2" class="edge"><title>deliveries:modified_by:w&#45;&gt;public.users:id:e</title>
<path fill="none" stroke="black" d="M362.552,-562.371C308.334,-561.242 203.047,-553.911 167,-530.533 122.733,-501.824 94.2478,-445.595 79.6908,-409.606"/>
<polygon fill="black" stroke="black" points="369.001,-562.443 376.96,-566.133 373,-562.488 377,-562.533 377,-562.533 377,-562.533 373,-562.488 377.04,-558.933 369.001,-562.443 369.001,-562.443"/>
<ellipse fill="none" stroke="black" cx="365.801" cy="-562.407" rx="3.2" ry="3.2"/>
</g>
<!-- deliveries&#45;&gt;public.users -->
<g id="edge4" class="edge"><title>deliveries:reassigned_by:w&#45;&gt;public.users:id:e</title>
<path fill="none" stroke="black" d="M362.612,-539.27C315.161,-533.371 184.917,-508.359 167,-497.533 131.689,-476.197 103.408,-437.541 86.2582,-409.653"/>
<polygon fill="black" stroke="black" points="369.031,-539.834 376.685,-544.119 373.015,-540.183 377,-540.533 377,-540.533 377,-540.533 373.015,-540.183 377.315,-536.947 369.031,-539.834 369.031,-539.834"/>
<ellipse fill="none" stroke="black" cx="365.843" cy="-539.554" rx="3.2" ry="3.2"/>
</g>
<!-- planting_sites -->
<g id="node3" class="node"><title>planting_sites</title>
<g id="a_node3"><a xlink:href="../../tables/planting_sites.html" xlink:title="planting_sites" target="_top">
<polygon fill="#ffffff" stroke="none" points="175,-274.533 175,-486.533 302,-486.533 302,-274.533 175,-274.533"/>
<polygon fill="#f5f5f5" stroke="none" points="175.5,-464.533 175.5,-486.533 302.5,-486.533 302.5,-464.533 175.5,-464.533"/>
<polygon fill="none" stroke="black" points="175.5,-464.533 175.5,-486.533 302.5,-486.533 302.5,-464.533 175.5,-464.533"/>
<text text-anchor="start" x="180.5" y="-473.733" font-family="Helvetica,sans-Serif" font-weight="bold" font-size="11.00">planting_sites</text>
<text text-anchor="start" x="263.5" y="-472.733" font-family="Helvetica,sans-Serif" font-size="11.00">[table]</text>
<polygon fill="none" stroke="black" points="175.5,-442.533 175.5,-464.533 302.5,-464.533 302.5,-442.533 175.5,-442.533"/>
<image xlink:href="../../images/primaryKeys.png" width="11px" height="12px" preserveAspectRatio="xMinYMin meet" x="180.5" y="-459.533"/>
<text text-anchor="start" x="203.5" y="-450.733" font-family="Helvetica,sans-Serif" font-size="11.00">id</text>
<polygon fill="#ffffff" stroke="none" points="175.5,-420.533 175.5,-442.533 302.5,-442.533 302.5,-420.533 175.5,-420.533"/>
<polygon fill="none" stroke="black" points="175.5,-420.533 175.5,-442.533 302.5,-442.533 302.5,-420.533 175.5,-420.533"/>
<image xlink:href="../../images/foreignKeys.png" width="11px" height="12px" preserveAspectRatio="xMinYMin meet" x="180.5" y="-437.533"/>
<text text-anchor="start" x="203.5" y="-428.733" font-family="Helvetica,sans-Serif" font-size="11.00">organization_id</text>
<polygon fill="#ffffff" stroke="none" points="175.5,-398.533 175.5,-420.533 302.5,-420.533 302.5,-398.533 175.5,-398.533"/>
<polygon fill="none" stroke="black" points="175.5,-398.533 175.5,-420.533 302.5,-420.533 302.5,-398.533 175.5,-398.533"/>
<text text-anchor="start" x="203.5" y="-406.733" font-family="Helvetica,sans-Serif" font-size="11.00">name</text>
<polygon fill="none" stroke="black" points="175.5,-376.533 175.5,-398.533 302.5,-398.533 302.5,-376.533 175.5,-376.533"/>
<image xlink:href="../../images/foreignKeys.png" width="11px" height="12px" preserveAspectRatio="xMinYMin meet" x="180.5" y="-393.533"/>
<text text-anchor="start" x="203.5" y="-384.733" font-family="Helvetica,sans-Serif" font-size="11.00">created_by</text>
<polygon fill="none" stroke="black" points="175.5,-354.533 175.5,-376.533 302.5,-376.533 302.5,-354.533 175.5,-354.533"/>
<image xlink:href="../../images/foreignKeys.png" width="11px" height="12px" preserveAspectRatio="xMinYMin meet" x="180.5" y="-371.533"/>
<text text-anchor="start" x="203.5" y="-362.733" font-family="Helvetica,sans-Serif" font-size="11.00">modified_by</text>
<polygon fill="none" stroke="black" points="175.5,-332.533 175.5,-354.533 302.5,-354.533 302.5,-332.533 175.5,-332.533"/>
<image xlink:href="../../images/foreignKeys.png" width="11px" height="12px" preserveAspectRatio="xMinYMin meet" x="180.5" y="-349.533"/>
<text text-anchor="start" x="203.5" y="-340.733" font-family="Helvetica,sans-Serif" font-size="11.00">time_zone</text>
<polygon fill="#ffffff" stroke="none" points="175.5,-310.533 175.5,-332.533 302.5,-332.533 302.5,-310.533 175.5,-310.533"/>
<polygon fill="none" stroke="black" points="175.5,-310.533 175.5,-332.533 302.5,-332.533 302.5,-310.533 175.5,-310.533"/>
<image xlink:href="../../images/foreignKeys.png" width="11px" height="12px" preserveAspectRatio="xMinYMin meet" x="180.5" y="-327.533"/>
<text text-anchor="start" x="203.5" y="-318.733" font-family="Helvetica,sans-Serif" font-size="11.00">project_id</text>
<polygon fill="none" stroke="black" points="175.5,-292.533 175.5,-310.533 302.5,-310.533 302.5,-292.533 175.5,-292.533"/>
<text text-anchor="start" x="178.5" y="-298.733" font-family="Helvetica,sans-Serif" font-size="11.00">...</text>
<polygon fill="#ffffff" stroke="none" points="175.5,-274.533 175.5,-292.533 217.5,-292.533 217.5,-274.533 175.5,-274.533"/>
<polygon fill="none" stroke="black" points="175.5,-274.533 175.5,-292.533 217.5,-292.533 217.5,-274.533 175.5,-274.533"/>
<text text-anchor="start" x="178.5" y="-280.733" font-family="Helvetica,sans-Serif" font-size="11.00">&lt; 5</text>
<polygon fill="#ffffff" stroke="none" points="217.5,-274.533 217.5,-292.533 269.5,-292.533 269.5,-274.533 217.5,-274.533"/>
<polygon fill="none" stroke="black" points="217.5,-274.533 217.5,-292.533 269.5,-292.533 269.5,-274.533 217.5,-274.533"/>
<text text-anchor="start" x="230.5" y="-280.733" font-family="Helvetica,sans-Serif" font-size="11.00">0 rows</text>
<polygon fill="#ffffff" stroke="none" points="269.5,-274.533 269.5,-292.533 302.5,-292.533 302.5,-274.533 269.5,-274.533"/>
<polygon fill="none" stroke="black" points="269.5,-274.533 269.5,-292.533 302.5,-292.533 302.5,-274.533 269.5,-274.533"/>
<text text-anchor="start" x="282.5" y="-280.733" font-family="Helvetica,sans-Serif" font-size="11.00">9 &gt;</text>
</a>
</g>
</g>
<!-- deliveries&#45;&gt;planting_sites -->
<g id="edge3" class="edge"><title>deliveries:planting_site_id:w&#45;&gt;planting_sites:id:e</title>
<path fill="none" stroke="black" d="M362.603,-604.13C312.205,-584.665 373.34,-453.533 303.5,-453.533"/>
<polygon fill="black" stroke="black" points="369.109,-605.216 376.407,-610.084 373.055,-605.874 377,-606.533 377,-606.533 377,-606.533 373.055,-605.874 377.593,-602.982 369.109,-605.216 369.109,-605.216"/>
<ellipse fill="none" stroke="black" cx="365.953" cy="-604.689" rx="3.2" ry="3.2"/>
</g>
<!-- planting_sites&#45;&gt;public.users -->
<g id="edge5" class="edge"><title>planting_sites:created_by:w&#45;&gt;public.users:id:e</title>
<path fill="none" stroke="black" d="M159.79,-387.218C151.223,-386.87 142.528,-386.255 134.076,-385.49"/>
<polygon fill="black" stroke="black" points="166.502,-387.362 174.423,-391.132 170.501,-387.447 174.5,-387.533 174.5,-387.533 174.5,-387.533 170.501,-387.447 174.577,-383.934 166.502,-387.362 166.502,-387.362"/>
<ellipse fill="none" stroke="black" cx="163.303" cy="-387.293" rx="3.2" ry="3.2"/>
</g>
<!-- planting_sites&#45;&gt;public.users -->
<g id="edge6" class="edge"><title>planting_sites:modified_by:w&#45;&gt;public.users:id:e</title>
<path fill="none" stroke="black" d="M159.79,-365.848C151.223,-366.196 142.528,-366.811 134.076,-367.576"/>
<polygon fill="black" stroke="black" points="166.502,-365.704 174.577,-369.132 170.501,-365.619 174.5,-365.533 174.5,-365.533 174.5,-365.533 170.501,-365.619 174.423,-361.934 166.502,-365.704 166.502,-365.704"/>
<ellipse fill="none" stroke="black" cx="163.303" cy="-365.773" rx="3.2" ry="3.2"/>
</g>
<!-- planting_subzones -->
<g id="node4" class="node"><title>planting_subzones</title>
<g id="a_node4"><a xlink:href="../../tables/planting_subzones.html" xlink:title="planting_subzones" target="_top">
<polygon fill="#ffffff" stroke="none" points="351,-154.533 351,-344.533 523,-344.533 523,-154.533 351,-154.533"/>
<polygon fill="#f5f5f5" stroke="none" points="351,-322.533 351,-344.533 523,-344.533 523,-322.533 351,-322.533"/>
<polygon fill="none" stroke="black" points="351,-322.533 351,-344.533 523,-344.533 523,-322.533 351,-322.533"/>
<text text-anchor="start" x="356" y="-331.733" font-family="Helvetica,sans-Serif" font-weight="bold" font-size="11.00">planting_subzones</text>
<text text-anchor="start" x="484" y="-330.733" font-family="Helvetica,sans-Serif" font-size="11.00">[table]</text>
<polygon fill="none" stroke="black" points="351,-300.533 351,-322.533 523,-322.533 523,-300.533 351,-300.533"/>
<image xlink:href="../../images/primaryKeys.png" width="11px" height="12px" preserveAspectRatio="xMinYMin meet" x="356" y="-317.533"/>
<text text-anchor="start" x="371" y="-308.733" font-family="Helvetica,sans-Serif" font-size="11.00">id</text>
<polygon fill="#ffffff" stroke="none" points="351,-278.533 351,-300.533 523,-300.533 523,-278.533 351,-278.533"/>
<polygon fill="none" stroke="black" points="351,-278.533 351,-300.533 523,-300.533 523,-278.533 351,-278.533"/>
<image xlink:href="../../images/foreignKeys.png" width="11px" height="12px" preserveAspectRatio="xMinYMin meet" x="356" y="-295.533"/>
<text text-anchor="start" x="371" y="-286.733" font-family="Helvetica,sans-Serif" font-size="11.00">planting_zone_id</text>
<polygon fill="#ffffff" stroke="none" points="351,-256.533 351,-278.533 523,-278.533 523,-256.533 351,-256.533"/>
<polygon fill="none" stroke="black" points="351,-256.533 351,-278.533 523,-278.533 523,-256.533 351,-256.533"/>
<text text-anchor="start" x="371" y="-264.733" font-family="Helvetica,sans-Serif" font-size="11.00">name</text>
<polygon fill="none" stroke="black" points="351,-234.533 351,-256.533 523,-256.533 523,-234.533 351,-234.533"/>
<image xlink:href="../../images/foreignKeys.png" width="11px" height="12px" preserveAspectRatio="xMinYMin meet" x="356" y="-251.533"/>
<text text-anchor="start" x="371" y="-242.733" font-family="Helvetica,sans-Serif" font-size="11.00">created_by</text>
<polygon fill="none" stroke="black" points="351,-212.533 351,-234.533 523,-234.533 523,-212.533 351,-212.533"/>
<image xlink:href="../../images/foreignKeys.png" width="11px" height="12px" preserveAspectRatio="xMinYMin meet" x="356" y="-229.533"/>
<text text-anchor="start" x="371" y="-220.733" font-family="Helvetica,sans-Serif" font-size="11.00">modified_by</text>
<polygon fill="#ffffff" stroke="none" points="351,-190.533 351,-212.533 523,-212.533 523,-190.533 351,-190.533"/>
<polygon fill="none" stroke="black" points="351,-190.533 351,-212.533 523,-212.533 523,-190.533 351,-190.533"/>
<image xlink:href="../../images/foreignKeys.png" width="11px" height="12px" preserveAspectRatio="xMinYMin meet" x="356" y="-207.533"/>
<text text-anchor="start" x="371" y="-198.733" font-family="Helvetica,sans-Serif" font-size="11.00">planting_site_id</text>
<polygon fill="none" stroke="black" points="351,-172.533 351,-190.533 523,-190.533 523,-172.533 351,-172.533"/>
<text text-anchor="start" x="354" y="-178.733" font-family="Helvetica,sans-Serif" font-size="11.00">...</text>
<polygon fill="#ffffff" stroke="none" points="351,-154.533 351,-172.533 416,-172.533 416,-154.533 351,-154.533"/>
<polygon fill="none" stroke="black" points="351,-154.533 351,-172.533 416,-172.533 416,-154.533 351,-154.533"/>
<text text-anchor="start" x="354" y="-160.733" font-family="Helvetica,sans-Serif" font-size="11.00">&lt; 5</text>
<polygon fill="#ffffff" stroke="none" points="416,-154.533 416,-172.533 479,-172.533 479,-154.533 416,-154.533"/>
<polygon fill="none" stroke="black" points="416,-154.533 416,-172.533 479,-172.533 479,-154.533 416,-154.533"/>
<text text-anchor="start" x="440" y="-160.733" font-family="Helvetica,sans-Serif" font-size="11.00">0 rows</text>
<polygon fill="#ffffff" stroke="none" points="479,-154.533 479,-172.533 523,-172.533 523,-154.533 479,-154.533"/>
<polygon fill="none" stroke="black" points="479,-154.533 479,-172.533 523,-172.533 523,-154.533 479,-154.533"/>
<text text-anchor="start" x="503" y="-160.733" font-family="Helvetica,sans-Serif" font-size="11.00">4 &gt;</text>
</a>
</g>
</g>
<!-- planting_subzones&#45;&gt;public.users -->
<g id="edge7" class="edge"><title>planting_subzones:created_by:w&#45;&gt;public.users:id:e</title>
<path fill="none" stroke="black" d="M335.268,-245.335C264.492,-243.45 235.166,-229.46 167,-264.533 132.616,-282.224 104.72,-317.263 87.4073,-343.462"/>
<polygon fill="black" stroke="black" points="342.001,-245.426 349.952,-249.133 346,-245.479 350,-245.533 350,-245.533 350,-245.533 346,-245.479 350.048,-241.933 342.001,-245.426 342.001,-245.426"/>
<ellipse fill="none" stroke="black" cx="338.801" cy="-245.383" rx="3.2" ry="3.2"/>
</g>
<!-- planting_subzones&#45;&gt;public.users -->
<g id="edge8" class="edge"><title>planting_subzones:modified_by:w&#45;&gt;public.users:id:e</title>
<path fill="none" stroke="black" d="M335.283,-223.25C264.47,-220.527 233.586,-199.925 167,-237.533 125.338,-261.063 96.8414,-310.225 81.4799,-343.313"/>
<polygon fill="black" stroke="black" points="342.001,-223.379 349.931,-227.132 346.001,-223.456 350,-223.533 350,-223.533 350,-223.533 346.001,-223.456 350.069,-219.934 342.001,-223.379 342.001,-223.379"/>
<ellipse fill="none" stroke="black" cx="338.802" cy="-223.317" rx="3.2" ry="3.2"/>
</g>
<!-- planting_subzones&#45;&gt;planting_sites -->
<g id="edge9" class="edge"><title>planting_subzones:planting_site_id:w&#45;&gt;planting_sites:id:e</title>
<path fill="none" stroke="black" d="M335.613,-203.209C252.783,-225.073 411.941,-453.533 303.5,-453.533"/>
<polygon fill="black" stroke="black" points="342.054,-202.459 350.417,-205.109 346.027,-201.996 350,-201.533 350,-201.533 350,-201.533 346.027,-201.996 349.583,-197.957 342.054,-202.459 342.054,-202.459"/>
<ellipse fill="none" stroke="black" cx="338.875" cy="-202.829" rx="3.2" ry="3.2"/>
</g>
<!-- plantings -->
<g id="node5" class="node"><title>plantings</title>
<g id="a_node5"><a xlink:href="../../tables/plantings.html" xlink:title="plantings" target="_top">
<polygon fill="#ffffff" stroke="none" points="572,-187.533 572,-451.533 819,-451.533 819,-187.533 572,-187.533"/>
<polygon fill="#f5f5f5" stroke="none" points="574.5,-427.533 574.5,-449.533 817.5,-449.533 817.5,-427.533 574.5,-427.533"/>
<polygon fill="none" stroke="black" points="574.5,-427.533 574.5,-449.533 817.5,-449.533 817.5,-427.533 574.5,-427.533"/>
<text text-anchor="start" x="579.5" y="-436.733" font-family="Helvetica,sans-Serif" font-weight="bold" font-size="11.00">plantings</text>
<text text-anchor="start" x="778.5" y="-435.733" font-family="Helvetica,sans-Serif" font-size="11.00">[table]</text>
<polygon fill="none" stroke="black" points="574.5,-405.533 574.5,-427.533 715.5,-427.533 715.5,-405.533 574.5,-405.533"/>
<image xlink:href="../../images/primaryKeys.png" width="11px" height="12px" preserveAspectRatio="xMinYMin meet" x="579.5" y="-422.533"/>
<text text-anchor="start" x="594.5" y="-413.733" font-family="Helvetica,sans-Serif" font-size="11.00">id</text>
<polygon fill="none" stroke="black" points="715.5,-405.533 715.5,-427.533 817.5,-427.533 817.5,-405.533 715.5,-405.533"/>
<text text-anchor="start" x="718.5" y="-413.733" font-family="Helvetica,sans-Serif" font-size="11.00">int8[19]</text>
<polygon fill="#ffffff" stroke="none" points="574.5,-383.533 574.5,-405.533 715.5,-405.533 715.5,-383.533 574.5,-383.533"/>
<polygon fill="none" stroke="black" points="574.5,-383.533 574.5,-405.533 715.5,-405.533 715.5,-383.533 574.5,-383.533"/>
<image xlink:href="../../images/foreignKeys.png" width="11px" height="12px" preserveAspectRatio="xMinYMin meet" x="579.5" y="-400.533"/>
<text text-anchor="start" x="594.5" y="-391.733" font-family="Helvetica,sans-Serif" font-size="11.00">delivery_id</text>
<polygon fill="none" stroke="black" points="715.5,-383.533 715.5,-405.533 817.5,-405.533 817.5,-383.533 715.5,-383.533"/>
<text text-anchor="start" x="718.5" y="-391.733" font-family="Helvetica,sans-Serif" font-size="11.00">int8[19]</text>
<polygon fill="#ffffff" stroke="none" points="574.5,-361.533 574.5,-383.533 715.5,-383.533 715.5,-361.533 574.5,-361.533"/>
<polygon fill="none" stroke="black" points="574.5,-361.533 574.5,-383.533 715.5,-383.533 715.5,-361.533 574.5,-361.533"/>
<image xlink:href="../../images/foreignKeys.png" width="11px" height="12px" preserveAspectRatio="xMinYMin meet" x="579.5" y="-378.533"/>
<text text-anchor="start" x="594.5" y="-369.733" font-family="Helvetica,sans-Serif" font-size="11.00">planting_type_id</text>
<polygon fill="none" stroke="black" points="715.5,-361.533 715.5,-383.533 817.5,-383.533 817.5,-361.533 715.5,-361.533"/>
<text text-anchor="start" x="718.5" y="-369.733" font-family="Helvetica,sans-Serif" font-size="11.00">int4[10]</text>
<polygon fill="none" stroke="black" points="574.5,-339.533 574.5,-361.533 715.5,-361.533 715.5,-339.533 574.5,-339.533"/>
<image xlink:href="../../images/foreignKeys.png" width="11px" height="12px" preserveAspectRatio="xMinYMin meet" x="579.5" y="-356.533"/>
<text text-anchor="start" x="594.5" y="-347.733" font-family="Helvetica,sans-Serif" font-size="11.00">planting_site_id</text>
<polygon fill="none" stroke="black" points="715.5,-339.533 715.5,-361.533 817.5,-361.533 817.5,-339.533 715.5,-339.533"/>
<text text-anchor="start" x="718.5" y="-347.733" font-family="Helvetica,sans-Serif" font-size="11.00">int8[19]</text>
<polygon fill="#ffffff" stroke="none" points="574.5,-317.533 574.5,-339.533 715.5,-339.533 715.5,-317.533 574.5,-317.533"/>
<polygon fill="none" stroke="black" points="574.5,-317.533 574.5,-339.533 715.5,-339.533 715.5,-317.533 574.5,-317.533"/>
<image xlink:href="../../images/foreignKeys.png" width="11px" height="12px" preserveAspectRatio="xMinYMin meet" x="579.5" y="-334.533"/>
<text text-anchor="start" x="594.5" y="-325.733" font-family="Helvetica,sans-Serif" font-size="11.00">planting_subzone_id</text>
<polygon fill="none" stroke="black" points="715.5,-317.533 715.5,-339.533 817.5,-339.533 817.5,-317.533 715.5,-317.533"/>
<text text-anchor="start" x="718.5" y="-325.733" font-family="Helvetica,sans-Serif" font-size="11.00">int8[19]</text>
<polygon fill="#ffffff" stroke="none" points="574.5,-295.533 574.5,-317.533 715.5,-317.533 715.5,-295.533 574.5,-295.533"/>
<polygon fill="none" stroke="black" points="574.5,-295.533 574.5,-317.533 715.5,-317.533 715.5,-295.533 574.5,-295.533"/>
<image xlink:href="../../images/foreignKeys.png" width="11px" height="12px" preserveAspectRatio="xMinYMin meet" x="579.5" y="-312.533"/>
<text text-anchor="start" x="594.5" y="-303.733" font-family="Helvetica,sans-Serif" font-size="11.00">species_id</text>
<polygon fill="none" stroke="black" points="715.5,-295.533 715.5,-317.533 817.5,-317.533 817.5,-295.533 715.5,-295.533"/>
<text text-anchor="start" x="718.5" y="-303.733" font-family="Helvetica,sans-Serif" font-size="11.00">int8[19]</text>
<polygon fill="none" stroke="black" points="574.5,-273.533 574.5,-295.533 715.5,-295.533 715.5,-273.533 574.5,-273.533"/>
<image xlink:href="../../images/foreignKeys.png" width="11px" height="12px" preserveAspectRatio="xMinYMin meet" x="579.5" y="-290.533"/>
<text text-anchor="start" x="594.5" y="-281.733" font-family="Helvetica,sans-Serif" font-size="11.00">created_by</text>
<polygon fill="none" stroke="black" points="715.5,-273.533 715.5,-295.533 817.5,-295.533 817.5,-273.533 715.5,-273.533"/>
<text text-anchor="start" x="718.5" y="-281.733" font-family="Helvetica,sans-Serif" font-size="11.00">int8[19]</text>
<polygon fill="none" stroke="black" points="574.5,-251.533 574.5,-273.533 715.5,-273.533 715.5,-251.533 574.5,-251.533"/>
<text text-anchor="start" x="594.5" y="-259.733" font-family="Helvetica,sans-Serif" font-size="11.00">created_time</text>
<polygon fill="none" stroke="black" points="715.5,-251.533 715.5,-273.533 817.5,-273.533 817.5,-251.533 715.5,-251.533"/>
<text text-anchor="start" x="718.5" y="-259.733" font-family="Helvetica,sans-Serif" font-size="11.00">timestamptz[35,6]</text>
<polygon fill="none" stroke="black" points="574.5,-229.533 574.5,-251.533 715.5,-251.533 715.5,-229.533 574.5,-229.533"/>
<text text-anchor="start" x="594.5" y="-237.733" font-family="Helvetica,sans-Serif" font-size="11.00">num_plants</text>
<polygon fill="none" stroke="black" points="715.5,-229.533 715.5,-251.533 817.5,-251.533 817.5,-229.533 715.5,-229.533"/>
<text text-anchor="start" x="718.5" y="-237.733" font-family="Helvetica,sans-Serif" font-size="11.00">int4[10]</text>
<polygon fill="none" stroke="black" points="574.5,-207.533 574.5,-229.533 715.5,-229.533 715.5,-207.533 574.5,-207.533"/>
<text text-anchor="start" x="594.5" y="-215.733" font-family="Helvetica,sans-Serif" font-size="11.00">notes</text>
<polygon fill="none" stroke="black" points="715.5,-207.533 715.5,-229.533 817.5,-229.533 817.5,-207.533 715.5,-207.533"/>
<text text-anchor="start" x="718.5" y="-215.733" font-family="Helvetica,sans-Serif" font-size="11.00">text[2147483647]</text>
<polygon fill="#ffffff" stroke="none" points="574.5,-189.533 574.5,-207.533 635.5,-207.533 635.5,-189.533 574.5,-189.533"/>
<polygon fill="none" stroke="black" points="574.5,-189.533 574.5,-207.533 635.5,-207.533 635.5,-189.533 574.5,-189.533"/>
<text text-anchor="start" x="577.5" y="-195.733" font-family="Helvetica,sans-Serif" font-size="11.00">&lt; 8</text>
<polygon fill="#ffffff" stroke="none" points="635.5,-189.533 635.5,-207.533 715.5,-207.533 715.5,-189.533 635.5,-189.533"/>
<polygon fill="none" stroke="black" points="635.5,-189.533 635.5,-207.533 715.5,-207.533 715.5,-189.533 635.5,-189.533"/>
<text text-anchor="start" x="676.5" y="-195.733" font-family="Helvetica,sans-Serif" font-size="11.00">0 rows</text>
<polygon fill="#ffffff" stroke="none" points="715.5,-189.533 715.5,-207.533 817.5,-207.533 817.5,-189.533 715.5,-189.533"/>
<polygon fill="none" stroke="black" points="715.5,-189.533 715.5,-207.533 817.5,-207.533 817.5,-189.533 715.5,-189.533"/>
<text text-anchor="start" x="797.5" y="-195.733" font-family="Helvetica,sans-Serif" font-size="11.00">0 &gt;</text>
<polygon fill="none" stroke="black" stroke-width="2" points="573,-188.533 573,-450.533 818,-450.533 818,-188.533 573,-188.533"/>
</a>
</g>
</g>
<!-- plantings&#45;&gt;deliveries -->
<g id="edge11" class="edge"><title>plantings:delivery_id:w&#45;&gt;deliveries:id:e</title>
<path fill="none" stroke="black" d="M560.062,-400.118C520.767,-437.555 551.156,-650.533 497,-650.533"/>
<polygon fill="black" stroke="black" points="566.113,-397.603 574.882,-397.857 569.806,-396.068 573.5,-394.533 573.5,-394.533 573.5,-394.533 569.806,-396.068 572.118,-391.209 566.113,-397.603 566.113,-397.603"/>
<ellipse fill="none" stroke="black" cx="563.158" cy="-398.831" rx="3.20001" ry="3.20001"/>
</g>
<!-- plantings&#45;&gt;deliveries -->
<g id="edge12" class="edge"><title>plantings:planting_site_id:w&#45;&gt;deliveries:planting_site_id:e</title>
<path fill="none" stroke="black" d="M560.062,-356.118C520.767,-393.555 551.156,-606.533 497,-606.533"/>
<polygon fill="black" stroke="black" points="566.113,-353.603 574.882,-353.857 569.806,-352.068 573.5,-350.533 573.5,-350.533 573.5,-350.533 569.806,-352.068 572.118,-347.209 566.113,-353.603 566.113,-353.603"/>
<ellipse fill="none" stroke="black" cx="563.158" cy="-354.831" rx="3.20001" ry="3.20001"/>
</g>
<!-- plantings&#45;&gt;public.users -->
<g id="edge10" class="edge"><title>plantings:created_by:w&#45;&gt;public.users:id:e</title>
<path fill="none" stroke="black" d="M558.745,-283.071C488.406,-267.091 603.456,-124.331 531,-64.533 466.557,-11.3479 421.549,-36.0447 343,-64.533 208.432,-113.338 117.365,-273.664 83.1255,-343.515"/>
<polygon fill="black" stroke="black" points="565.539,-283.744 573.145,-288.115 569.519,-284.139 573.5,-284.533 573.5,-284.533 573.5,-284.533 569.519,-284.139 573.855,-280.951 565.539,-283.744 565.539,-283.744"/>
<ellipse fill="none" stroke="black" cx="562.355" cy="-283.429" rx="3.2" ry="3.2"/>
</g>
<!-- plantings&#45;&gt;planting_sites -->
<g id="edge13" class="edge"><title>plantings:planting_site_id:w&#45;&gt;planting_sites:id:e</title>
<path fill="none" stroke="black" d="M559.025,-352.108C509.009,-358.114 347.573,-379.401 343,-382.533 313.208,-402.938 339.61,-453.533 303.5,-453.533"/>
<polygon fill="black" stroke="black" points="565.547,-351.398 573.889,-354.112 569.523,-350.966 573.5,-350.533 573.5,-350.533 573.5,-350.533 569.523,-350.966 573.111,-346.954 565.547,-351.398 565.547,-351.398"/>
<ellipse fill="none" stroke="black" cx="562.366" cy="-351.745" rx="3.2" ry="3.2"/>
</g>
<!-- plantings&#45;&gt;planting_subzones -->
<g id="edge14" class="edge"><title>plantings:planting_site_id:w&#45;&gt;planting_subzones:planting_site_id:e</title>
<path fill="none" stroke="black" d="M559.378,-347.69C517.419,-327.09 588.057,-201.533 524,-201.533"/>
<polygon fill="black" stroke="black" points="565.657,-348.954 572.789,-354.062 569.579,-349.743 573.5,-350.533 573.5,-350.533 573.5,-350.533 569.579,-349.743 574.211,-347.004 565.657,-348.954 565.657,-348.954"/>
<ellipse fill="none" stroke="black" cx="562.52" cy="-348.322" rx="3.2" ry="3.2"/>
</g>
<!-- plantings&#45;&gt;planting_subzones -->
<g id="edge15" class="edge"><title>plantings:planting_subzone_id:w&#45;&gt;planting_subzones:id:e</title>
<path fill="none" stroke="black" d="M559.223,-325.877C547.482,-321.095 541.446,-311.533 524,-311.533"/>
<polygon fill="black" stroke="black" points="565.635,-327.07 572.841,-332.072 569.567,-327.801 573.5,-328.533 573.5,-328.533 573.5,-328.533 569.567,-327.801 574.159,-324.994 565.635,-327.07 565.635,-327.07"/>
<ellipse fill="none" stroke="black" cx="562.489" cy="-326.484" rx="3.2" ry="3.2"/>
</g>
<!-- planting_types -->
<g id="node6" class="node"><title>planting_types</title>
<g id="a_node6"><a xlink:href="../../tables/planting_types.html" xlink:title="planting_types" target="_top">
<polygon fill="#ffffff" stroke="none" points="370.5,-392.533 370.5,-472.533 503.5,-472.533 503.5,-392.533 370.5,-392.533"/>
<polygon fill="#f5f5f5" stroke="none" points="371,-450.533 371,-472.533 504,-472.533 504,-450.533 371,-450.533"/>
<polygon fill="none" stroke="black" points="371,-450.533 371,-472.533 504,-472.533 504,-450.533 371,-450.533"/>
<text text-anchor="start" x="376" y="-459.733" font-family="Helvetica,sans-Serif" font-weight="bold" font-size="11.00">planting_types</text>
<text text-anchor="start" x="465" y="-458.733" font-family="Helvetica,sans-Serif" font-size="11.00">[table]</text>
<polygon fill="none" stroke="black" points="371,-428.533 371,-450.533 504,-450.533 504,-428.533 371,-428.533"/>
<image xlink:href="../../images/primaryKeys.png" width="11px" height="12px" preserveAspectRatio="xMinYMin meet" x="376" y="-445.533"/>
<text text-anchor="start" x="404" y="-436.733" font-family="Helvetica,sans-Serif" font-size="11.00">id</text>
<polygon fill="none" stroke="black" points="371,-410.533 371,-428.533 504,-428.533 504,-410.533 371,-410.533"/>
<text text-anchor="start" x="374" y="-416.733" font-family="Helvetica,sans-Serif" font-size="11.00">...</text>
<polygon fill="#ffffff" stroke="none" points="371,-392.533 371,-410.533 411,-410.533 411,-392.533 371,-392.533"/>
<polygon fill="none" stroke="black" points="371,-392.533 371,-410.533 411,-410.533 411,-392.533 371,-392.533"/>
<text text-anchor="start" x="374" y="-398.733" font-family="Helvetica,sans-Serif" font-size="11.00"> &#160;</text>
<polygon fill="#ffffff" stroke="none" points="411,-392.533 411,-410.533 467,-410.533 467,-392.533 411,-392.533"/>
<polygon fill="none" stroke="black" points="411,-392.533 411,-410.533 467,-410.533 467,-392.533 411,-392.533"/>
<text text-anchor="start" x="428" y="-398.733" font-family="Helvetica,sans-Serif" font-size="11.00">3 rows</text>
<polygon fill="#ffffff" stroke="none" points="467,-392.533 467,-410.533 504,-410.533 504,-392.533 467,-392.533"/>
<polygon fill="none" stroke="black" points="467,-392.533 467,-410.533 504,-410.533 504,-392.533 467,-392.533"/>
<text text-anchor="start" x="484" y="-398.733" font-family="Helvetica,sans-Serif" font-size="11.00">1 &gt;</text>
</a>
</g>
</g>
<!-- plantings&#45;&gt;planting_types -->
<g id="edge16" class="edge"><title>plantings:planting_type_id:w&#45;&gt;planting_types:id:e</title>
<path fill="none" stroke="black" d="M559.39,-375.765C534.297,-389.148 541.93,-439.533 505,-439.533"/>
<polygon fill="black" stroke="black" points="565.702,-374.319 574.304,-376.042 569.601,-373.426 573.5,-372.533 573.5,-372.533 573.5,-372.533 569.601,-373.426 572.696,-369.024 565.702,-374.319 565.702,-374.319"/>
<ellipse fill="none" stroke="black" cx="562.583" cy="-375.033" rx="3.2" ry="3.2"/>
</g>
<!-- public.species -->
<g id="node7" class="node"><title>public.species</title>
<g id="a_node7"><a xlink:href="../../../public/tables/species.html" xlink:title="public.species" target="_top">
<polygon fill="#ffffff" stroke="none" points="372.5,-75.533 372.5,-133.533 501.5,-133.533 501.5,-75.533 372.5,-75.533"/>
<polygon fill="#f5f5f5" stroke="none" points="373,-111.533 373,-133.533 502,-133.533 502,-111.533 373,-111.533"/>
<polygon fill="none" stroke="black" points="373,-111.533 373,-133.533 502,-133.533 502,-111.533 373,-111.533"/>
<text text-anchor="start" x="378" y="-120.733" font-family="Helvetica,sans-Serif" font-weight="bold" font-size="11.00">public.species</text>
<text text-anchor="start" x="463" y="-119.733" font-family="Helvetica,sans-Serif" font-size="11.00">[table]</text>
<polygon fill="none" stroke="black" points="373,-93.533 373,-111.533 502,-111.533 502,-93.533 373,-93.533"/>
<text text-anchor="start" x="376" y="-99.733" font-family="Helvetica,sans-Serif" font-size="11.00">...</text>
<polygon fill="#ffffff" stroke="none" points="373,-75.533 373,-93.533 411,-93.533 411,-75.533 373,-75.533"/>
<polygon fill="none" stroke="black" points="373,-75.533 373,-93.533 411,-93.533 411,-75.533 373,-75.533"/>
<text text-anchor="start" x="376" y="-81.733" font-family="Helvetica,sans-Serif" font-size="11.00"> &#160;</text>
<polygon fill="#ffffff" stroke="none" points="411,-75.533 411,-93.533 466,-93.533 466,-75.533 411,-75.533"/>
<polygon fill="none" stroke="black" points="411,-75.533 411,-93.533 466,-93.533 466,-75.533 411,-75.533"/>
<text text-anchor="start" x="427" y="-81.733" font-family="Helvetica,sans-Serif" font-size="11.00">0 rows</text>
<polygon fill="#ffffff" stroke="none" points="466,-75.533 466,-93.533 502,-93.533 502,-75.533 466,-75.533"/>
<polygon fill="none" stroke="black" points="466,-75.533 466,-93.533 502,-93.533 502,-75.533 466,-75.533"/>
<text text-anchor="start" x="482" y="-81.733" font-family="Helvetica,sans-Serif" font-size="11.00">8 &gt;</text>
</a>
</g>
</g>
<!-- plantings&#45;&gt;public.species -->
<g id="edge17" class="edge"><title>plantings:species_id:w&#45;&gt;public.species:id:e</title>
<path fill="none" stroke="black" d="M558.985,-304.749C510.28,-290.607 576.313,-195.786 531,-143.533 525.035,-136.655 517.657,-130.962 509.685,-126.256"/>
<polygon fill="black" stroke="black" points="565.56,-305.557 573.061,-310.106 569.53,-306.045 573.5,-306.533 573.5,-306.533 573.5,-306.533 569.53,-306.045 573.939,-302.96 565.56,-305.557 565.56,-305.557"/>
<ellipse fill="none" stroke="black" cx="562.384" cy="-305.167" rx="3.2" ry="3.2"/>
</g>
</g>
</svg>
