<?xml version="1.0" encoding="UTF-8" standalone="no"?>
<!DOCTYPE svg PUBLIC "-//W3C//DTD SVG 1.1//EN"
 "http://www.w3.org/Graphics/SVG/1.1/DTD/svg11.dtd">
<!-- Generated by graphviz version 2.47.1 (20210515.0534)
 -->
<!-- Title: oneDegreeRelationshipsDiagram Pages: 1 -->
<svg width="497pt" height="318pt"
 viewBox="0.00 0.00 497.00 318.00" xmlns="http://www.w3.org/2000/svg" xmlns:xlink="http://www.w3.org/1999/xlink">
<g id="graph0" class="graph" transform="scale(1 1) rotate(0) translate(4 314)">
<title>oneDegreeRelationshipsDiagram</title>
<polygon fill="#ffffff" stroke="transparent" points="-4,4 -4,-314 493,-314 493,4 -4,4"/>
<text text-anchor="middle" x="73.5" y="-7.2" font-family="Helvetica,sans-Serif" font-size="11.00">Generated by SchemaSpy</text>
<!-- planting_subzone_populations -->
<g id="node1" class="node">
<title>planting_subzone_populations</title>
<g id="a_node1"><a xlink:href="../../tables/planting_subzone_populations.html" xlink:title="planting_subzone_populations" target="_top">
<polygon fill="#ffffff" stroke="transparent" points="229,-83 229,-215 481,-215 481,-83 229,-83"/>
<polygon fill="#f5f5f5" stroke="transparent" points="231,-191 231,-213 479,-213 479,-191 231,-191"/>
<polygon fill="none" stroke="black" points="231,-191 231,-213 479,-213 479,-191 231,-191"/>
<text text-anchor="start" x="236" y="-200.2" font-family="Helvetica,sans-Serif" font-weight="bold" font-size="11.00">planting_subzone_populations</text>
<text text-anchor="start" x="440" y="-199.2" font-family="Helvetica,sans-Serif" font-size="11.00">[table]</text>
<polygon fill="none" stroke="black" points="231,-169 231,-191 433,-191 433,-169 231,-169"/>
<image xlink:href="../../images/primaryKeys.png" width="11px" height="12px" preserveAspectRatio="xMinYMin meet" x="236" y="-186"/>
<text text-anchor="start" x="251" y="-177.2" font-family="Helvetica,sans-Serif" font-size="11.00">planting_subzone_id</text>
<polygon fill="none" stroke="black" points="433,-169 433,-191 479,-191 479,-169 433,-169"/>
<text text-anchor="start" x="436" y="-177.2" font-family="Helvetica,sans-Serif" font-size="11.00">int8[19]</text>
<polygon fill="none" stroke="black" points="231,-147 231,-169 433,-169 433,-147 231,-147"/>
<image xlink:href="../../images/primaryKeys.png" width="11px" height="12px" preserveAspectRatio="xMinYMin meet" x="236" y="-164"/>
<text text-anchor="start" x="251" y="-155.2" font-family="Helvetica,sans-Serif" font-size="11.00">species_id</text>
<polygon fill="none" stroke="black" points="433,-147 433,-169 479,-169 479,-147 433,-147"/>
<text text-anchor="start" x="436" y="-155.2" font-family="Helvetica,sans-Serif" font-size="11.00">int8[19]</text>
<polygon fill="none" stroke="black" points="231,-125 231,-147 433,-147 433,-125 231,-125"/>
<text text-anchor="start" x="251" y="-133.2" font-family="Helvetica,sans-Serif" font-size="11.00">total_plants</text>
<polygon fill="none" stroke="black" points="433,-125 433,-147 479,-147 479,-125 433,-125"/>
<text text-anchor="start" x="436" y="-133.2" font-family="Helvetica,sans-Serif" font-size="11.00">int4[10]</text>
<polygon fill="none" stroke="black" points="231,-103 231,-125 433,-125 433,-103 231,-103"/>
<text text-anchor="start" x="251" y="-111.2" font-family="Helvetica,sans-Serif" font-size="11.00">plants_since_last_observation</text>
<polygon fill="none" stroke="black" points="433,-103 433,-125 479,-125 479,-103 433,-103"/>
<text text-anchor="start" x="436" y="-111.2" font-family="Helvetica,sans-Serif" font-size="11.00">int4[10]</text>
<polygon fill="#ffffff" stroke="transparent" points="231,-85 231,-103 336,-103 336,-85 231,-85"/>
<polygon fill="none" stroke="black" points="231,-85 231,-103 336,-103 336,-85 231,-85"/>
<text text-anchor="start" x="234" y="-91.2" font-family="Helvetica,sans-Serif" font-size="11.00">&lt; 2</text>
<polygon fill="#ffffff" stroke="transparent" points="336,-85 336,-103 433,-103 433,-85 336,-85"/>
<polygon fill="none" stroke="black" points="336,-85 336,-103 433,-103 433,-85 336,-85"/>
<text text-anchor="start" x="423" y="-91.2" font-family="Helvetica,sans-Serif" font-size="11.00"> &#160;</text>
<polygon fill="#ffffff" stroke="transparent" points="433,-85 433,-103 479,-103 479,-85 433,-85"/>
<polygon fill="none" stroke="black" points="433,-85 433,-103 479,-103 479,-85 433,-85"/>
<text text-anchor="start" x="460" y="-91.2" font-family="Helvetica,sans-Serif" font-size="11.00">0 &gt;</text>
<polygon fill="none" stroke="black" stroke-width="2" points="230,-84 230,-214 480,-214 480,-84 230,-84"/>
</a>
</g>
</g>
<!-- planting_subzones -->
<g id="node2" class="node">
<title>planting_subzones</title>
<g id="a_node2"><a xlink:href="../../tables/planting_subzones.html" xlink:title="planting_subzones" target="_top">
<polygon fill="#ffffff" stroke="transparent" points="8,-116 8,-306 180,-306 180,-116 8,-116"/>
<polygon fill="#f5f5f5" stroke="transparent" points="8,-284 8,-306 180,-306 180,-284 8,-284"/>
<polygon fill="none" stroke="black" points="8,-284 8,-306 180,-306 180,-284 8,-284"/>
<text text-anchor="start" x="13" y="-293.2" font-family="Helvetica,sans-Serif" font-weight="bold" font-size="11.00">planting_subzones</text>
<text text-anchor="start" x="141" y="-292.2" font-family="Helvetica,sans-Serif" font-size="11.00">[table]</text>
<polygon fill="none" stroke="black" points="8,-262 8,-284 180,-284 180,-262 8,-262"/>
<image xlink:href="../../images/primaryKeys.png" width="11px" height="12px" preserveAspectRatio="xMinYMin meet" x="13" y="-279"/>
<text text-anchor="start" x="28" y="-270.2" font-family="Helvetica,sans-Serif" font-size="11.00">id</text>
<polygon fill="#ffffff" stroke="transparent" points="8,-240 8,-262 180,-262 180,-240 8,-240"/>
<polygon fill="none" stroke="black" points="8,-240 8,-262 180,-262 180,-240 8,-240"/>
<image xlink:href="../../images/foreignKeys.png" width="11px" height="12px" preserveAspectRatio="xMinYMin meet" x="13" y="-257"/>
<text text-anchor="start" x="28" y="-248.2" font-family="Helvetica,sans-Serif" font-size="11.00">planting_zone_id</text>
<polygon fill="#ffffff" stroke="transparent" points="8,-218 8,-240 180,-240 180,-218 8,-218"/>
<polygon fill="none" stroke="black" points="8,-218 8,-240 180,-240 180,-218 8,-218"/>
<text text-anchor="start" x="28" y="-226.2" font-family="Helvetica,sans-Serif" font-size="11.00">name</text>
<polygon fill="none" stroke="black" points="8,-196 8,-218 180,-218 180,-196 8,-196"/>
<image xlink:href="../../images/foreignKeys.png" width="11px" height="12px" preserveAspectRatio="xMinYMin meet" x="13" y="-213"/>
<text text-anchor="start" x="28" y="-204.2" font-family="Helvetica,sans-Serif" font-size="11.00">created_by</text>
<polygon fill="none" stroke="black" points="8,-174 8,-196 180,-196 180,-174 8,-174"/>
<image xlink:href="../../images/foreignKeys.png" width="11px" height="12px" preserveAspectRatio="xMinYMin meet" x="13" y="-191"/>
<text text-anchor="start" x="28" y="-182.2" font-family="Helvetica,sans-Serif" font-size="11.00">modified_by</text>
<polygon fill="#ffffff" stroke="transparent" points="8,-152 8,-174 180,-174 180,-152 8,-152"/>
<polygon fill="none" stroke="black" points="8,-152 8,-174 180,-174 180,-152 8,-152"/>
<image xlink:href="../../images/foreignKeys.png" width="11px" height="12px" preserveAspectRatio="xMinYMin meet" x="13" y="-169"/>
<text text-anchor="start" x="28" y="-160.2" font-family="Helvetica,sans-Serif" font-size="11.00">planting_site_id</text>
<polygon fill="none" stroke="black" points="8,-134 8,-152 180,-152 180,-134 8,-134"/>
<text text-anchor="start" x="11" y="-140.2" font-family="Helvetica,sans-Serif" font-size="11.00">...</text>
<polygon fill="#ffffff" stroke="transparent" points="8,-116 8,-134 87,-134 87,-116 8,-116"/>
<polygon fill="none" stroke="black" points="8,-116 8,-134 87,-134 87,-116 8,-116"/>
<text text-anchor="start" x="11" y="-122.2" font-family="Helvetica,sans-Serif" font-size="11.00">&lt; 5</text>
<polygon fill="#ffffff" stroke="transparent" points="87,-116 87,-134 129,-134 129,-116 87,-116"/>
<polygon fill="none" stroke="black" points="87,-116 87,-134 129,-134 129,-116 87,-116"/>
<text text-anchor="start" x="119" y="-122.2" font-family="Helvetica,sans-Serif" font-size="11.00"> &#160;</text>
<polygon fill="#ffffff" stroke="transparent" points="129,-116 129,-134 180,-134 180,-116 129,-116"/>
<polygon fill="none" stroke="black" points="129,-116 129,-134 180,-134 180,-116 129,-116"/>
<text text-anchor="start" x="161" y="-122.2" font-family="Helvetica,sans-Serif" font-size="11.00">8 &gt;</text>
</a>
</g>
</g>
<!-- planting_subzone_populations&#45;&gt;planting_subzones -->
<g id="edge1" class="edge">
<title>planting_subzone_populations:w&#45;&gt;planting_subzones:e</title>
<path fill="none" stroke="black" d="M216.09,-184.24C193.22,-202.43 221.7,-273 181,-273"/>
<polygon fill="black" stroke="black" points="222.35,-182.33 231.05,-183.44 226.17,-181.17 230,-180 230,-180 230,-180 226.17,-181.17 228.95,-176.56 222.35,-182.33 222.35,-182.33"/>
<ellipse fill="none" stroke="black" cx="219.29" cy="-183.26" rx="3.2" ry="3.2"/>
</g>
<!-- public.species -->
<g id="node3" class="node">
<title>public.species</title>
<g id="a_node3"><a xlink:href="../../../public/tables/species.html" xlink:title="public.species" target="_top">
<polygon fill="#ffffff" stroke="transparent" points="30.5,-37 30.5,-95 157.5,-95 157.5,-37 30.5,-37"/>
<polygon fill="#f5f5f5" stroke="transparent" points="31,-73 31,-95 158,-95 158,-73 31,-73"/>
<polygon fill="none" stroke="black" points="31,-73 31,-95 158,-95 158,-73 31,-73"/>
<text text-anchor="start" x="36" y="-82.2" font-family="Helvetica,sans-Serif" font-weight="bold" font-size="11.00">public.species</text>
<text text-anchor="start" x="119" y="-81.2" font-family="Helvetica,sans-Serif" font-size="11.00">[table]</text>
<polygon fill="none" stroke="black" points="31,-55 31,-73 158,-73 158,-55 31,-55"/>
<text text-anchor="start" x="34" y="-61.2" font-family="Helvetica,sans-Serif" font-size="11.00">...</text>
<polygon fill="#ffffff" stroke="transparent" points="31,-37 31,-55 67,-55 67,-37 31,-37"/>
<polygon fill="none" stroke="black" points="31,-37 31,-55 67,-55 67,-37 31,-37"/>
<text text-anchor="start" x="34" y="-43.2" font-family="Helvetica,sans-Serif" font-size="11.00"> &#160;</text>
<polygon fill="#ffffff" stroke="transparent" points="67,-37 67,-55 118,-55 118,-37 67,-37"/>
<polygon fill="none" stroke="black" points="67,-37 67,-55 118,-55 118,-37 67,-37"/>
<text text-anchor="start" x="81" y="-43.2" font-family="Helvetica,sans-Serif" font-size="11.00">0 rows</text>
<polygon fill="#ffffff" stroke="transparent" points="118,-37 118,-55 158,-55 158,-37 118,-37"/>
<polygon fill="none" stroke="black" points="118,-37 118,-55 158,-55 158,-37 118,-37"/>
<text text-anchor="start" x="133" y="-43.2" font-family="Helvetica,sans-Serif" font-size="11.00">10 &gt;</text>
</a>
</g>
</g>
<!-- planting_subzone_populations&#45;&gt;public.species -->
<g id="edge2" class="edge">
<title>planting_subzone_populations:w&#45;&gt;public.species:e</title>
<path fill="none" stroke="black" d="M215.97,-153.93C203.53,-144.35 206.68,-120.16 188,-106 181.14,-100.8 173.5,-96.12 165.62,-91.96"/>
<polygon fill="black" stroke="black" points="222.32,-155.77 229,-161.46 226.16,-156.88 230,-158 230,-158 230,-158 226.16,-156.88 231,-154.54 222.32,-155.77 222.32,-155.77"/>
<ellipse fill="none" stroke="black" cx="219.24" cy="-154.88" rx="3.2" ry="3.2"/>
</g>
</g>
</svg>
