<?xml version="1.0" encoding="UTF-8" standalone="no"?>
<!DOCTYPE svg PUBLIC "-//W3C//DTD SVG 1.1//EN"
 "http://www.w3.org/Graphics/SVG/1.1/DTD/svg11.dtd">
<!-- Generated by graphviz version 2.38.0 (20140413.2041)
 -->
<!-- Title: oneDegreeRelationshipsDiagram Pages: 1 -->
<svg width="814pt" height="420pt"
 viewBox="0.00 0.00 814.00 420.00" xmlns="http://www.w3.org/2000/svg" xmlns:xlink="http://www.w3.org/1999/xlink">
<g id="graph0" class="graph" transform="scale(1 1) rotate(0) translate(4 416)">
<title>oneDegreeRelationshipsDiagram</title>
<polygon fill="#ffffff" stroke="none" points="-4,4 -4,-416 810,-416 810,4 -4,4"/>
<text text-anchor="middle" x="74.5" y="-7.2" font-family="Helvetica,sans-Serif" font-size="11.00">Generated by SchemaSpy</text>
<!-- monitoring_plot_histories -->
<g id="node1" class="node"><title>monitoring_plot_histories</title>
<g id="a_node1"><a xlink:href="../../tables/monitoring_plot_histories.html" xlink:title="monitoring_plot_histories" target="_top">
<polygon fill="#ffffff" stroke="none" points="604,-196 604,-408 798,-408 798,-196 604,-196"/>
<polygon fill="#f5f5f5" stroke="none" points="604,-386 604,-408 798,-408 798,-386 604,-386"/>
<polygon fill="none" stroke="black" points="604,-386 604,-408 798,-408 798,-386 604,-386"/>
<text text-anchor="start" x="609" y="-395.2" font-family="Helvetica,sans-Serif" font-weight="bold" font-size="11.00">monitoring_plot_histories</text>
<text text-anchor="start" x="759" y="-394.2" font-family="Helvetica,sans-Serif" font-size="11.00">[table]</text>
<polygon fill="none" stroke="black" points="604,-364 604,-386 798,-386 798,-364 604,-364"/>
<image xlink:href="../../images/primaryKeys.png" width="11px" height="12px" preserveAspectRatio="xMinYMin meet" x="609" y="-381"/>
<text text-anchor="start" x="627" y="-372.2" font-family="Helvetica,sans-Serif" font-size="11.00">id</text>
<polygon fill="#ffffff" stroke="none" points="604,-342 604,-364 798,-364 798,-342 604,-342"/>
<polygon fill="none" stroke="black" points="604,-342 604,-364 798,-364 798,-342 604,-342"/>
<image xlink:href="../../images/foreignKeys.png" width="11px" height="12px" preserveAspectRatio="xMinYMin meet" x="609" y="-359"/>
<text text-anchor="start" x="627" y="-350.2" font-family="Helvetica,sans-Serif" font-size="11.00">monitoring_plot_id</text>
<polygon fill="#ffffff" stroke="none" points="604,-320 604,-342 798,-342 798,-320 604,-320"/>
<polygon fill="none" stroke="black" points="604,-320 604,-342 798,-342 798,-320 604,-320"/>
<image xlink:href="../../images/foreignKeys.png" width="11px" height="12px" preserveAspectRatio="xMinYMin meet" x="609" y="-337"/>
<text text-anchor="start" x="627" y="-328.2" font-family="Helvetica,sans-Serif" font-size="11.00">planting_subzone_id</text>
<polygon fill="#ffffff" stroke="none" points="604,-298 604,-320 798,-320 798,-298 604,-298"/>
<polygon fill="none" stroke="black" points="604,-298 604,-320 798,-320 798,-298 604,-298"/>
<image xlink:href="../../images/foreignKeys.png" width="11px" height="12px" preserveAspectRatio="xMinYMin meet" x="609" y="-315"/>
<text text-anchor="start" x="627" y="-306.2" font-family="Helvetica,sans-Serif" font-size="11.00">planting_site_id</text>
<polygon fill="#ffffff" stroke="none" points="604,-276 604,-298 798,-298 798,-276 604,-276"/>
<polygon fill="none" stroke="black" points="604,-276 604,-298 798,-298 798,-276 604,-276"/>
<image xlink:href="../../images/foreignKeys.png" width="11px" height="12px" preserveAspectRatio="xMinYMin meet" x="609" y="-293"/>
<text text-anchor="start" x="627" y="-284.2" font-family="Helvetica,sans-Serif" font-size="11.00">planting_subzone_history_id</text>
<polygon fill="#ffffff" stroke="none" points="604,-254 604,-276 798,-276 798,-254 604,-254"/>
<polygon fill="none" stroke="black" points="604,-254 604,-276 798,-276 798,-254 604,-254"/>
<image xlink:href="../../images/foreignKeys.png" width="11px" height="12px" preserveAspectRatio="xMinYMin meet" x="609" y="-271"/>
<text text-anchor="start" x="627" y="-262.2" font-family="Helvetica,sans-Serif" font-size="11.00">planting_site_history_id</text>
<polygon fill="#ffffff" stroke="none" points="604,-232 604,-254 798,-254 798,-232 604,-232"/>
<polygon fill="none" stroke="black" points="604,-232 604,-254 798,-254 798,-232 604,-232"/>
<image xlink:href="../../images/foreignKeys.png" width="11px" height="12px" preserveAspectRatio="xMinYMin meet" x="609" y="-249"/>
<text text-anchor="start" x="627" y="-240.2" font-family="Helvetica,sans-Serif" font-size="11.00">created_by</text>
<polygon fill="none" stroke="black" points="604,-214 604,-232 798,-232 798,-214 604,-214"/>
<text text-anchor="start" x="607" y="-220.2" font-family="Helvetica,sans-Serif" font-size="11.00">...</text>
<polygon fill="#ffffff" stroke="none" points="604,-196 604,-214 680,-214 680,-196 604,-196"/>
<polygon fill="none" stroke="black" points="604,-196 604,-214 680,-214 680,-196 604,-196"/>
<text text-anchor="start" x="607" y="-202.2" font-family="Helvetica,sans-Serif" font-size="11.00">&lt; 6</text>
<polygon fill="#ffffff" stroke="none" points="680,-196 680,-214 748,-214 748,-196 680,-196"/>
<polygon fill="none" stroke="black" points="680,-196 680,-214 748,-214 748,-196 680,-196"/>
<text text-anchor="start" x="709" y="-202.2" font-family="Helvetica,sans-Serif" font-size="11.00">0 rows</text>
<polygon fill="#ffffff" stroke="none" points="748,-196 748,-214 798,-214 798,-196 748,-196"/>
<polygon fill="none" stroke="black" points="748,-196 748,-214 798,-214 798,-196 748,-196"/>
<text text-anchor="start" x="778" y="-202.2" font-family="Helvetica,sans-Serif" font-size="11.00">1 &gt;</text>
</a>
</g>
</g>
<!-- planting_subzone_histories -->
<g id="node2" class="node"><title>planting_subzone_histories</title>
<g id="a_node2"><a xlink:href="../../tables/planting_subzone_histories.html" xlink:title="planting_subzone_histories" target="_top">
<polygon fill="#ffffff" stroke="none" points="238,-139 238,-315 555,-315 555,-139 238,-139"/>
<polygon fill="#f5f5f5" stroke="none" points="240.5,-291 240.5,-313 553.5,-313 553.5,-291 240.5,-291"/>
<polygon fill="none" stroke="black" points="240.5,-291 240.5,-313 553.5,-313 553.5,-291 240.5,-291"/>
<text text-anchor="start" x="245.5" y="-300.2" font-family="Helvetica,sans-Serif" font-weight="bold" font-size="11.00">planting_subzone_histories</text>
<text text-anchor="start" x="514.5" y="-299.2" font-family="Helvetica,sans-Serif" font-size="11.00">[table]</text>
<polygon fill="none" stroke="black" points="240.5,-269 240.5,-291 422.5,-291 422.5,-269 240.5,-269"/>
<image xlink:href="../../images/primaryKeys.png" width="11px" height="12px" preserveAspectRatio="xMinYMin meet" x="245.5" y="-286"/>
<text text-anchor="start" x="260.5" y="-277.2" font-family="Helvetica,sans-Serif" font-size="11.00">id</text>
<polygon fill="none" stroke="black" points="422.5,-269 422.5,-291 553.5,-291 553.5,-269 422.5,-269"/>
<text text-anchor="start" x="425.5" y="-277.2" font-family="Helvetica,sans-Serif" font-size="11.00">int8[19]</text>
<polygon fill="#ffffff" stroke="none" points="240.5,-247 240.5,-269 422.5,-269 422.5,-247 240.5,-247"/>
<polygon fill="none" stroke="black" points="240.5,-247 240.5,-269 422.5,-269 422.5,-247 240.5,-247"/>
<image xlink:href="../../images/foreignKeys.png" width="11px" height="12px" preserveAspectRatio="xMinYMin meet" x="245.5" y="-264"/>
<text text-anchor="start" x="260.5" y="-255.2" font-family="Helvetica,sans-Serif" font-size="11.00">planting_zone_history_id</text>
<polygon fill="none" stroke="black" points="422.5,-247 422.5,-269 553.5,-269 553.5,-247 422.5,-247"/>
<text text-anchor="start" x="425.5" y="-255.2" font-family="Helvetica,sans-Serif" font-size="11.00">int8[19]</text>
<polygon fill="#ffffff" stroke="none" points="240.5,-225 240.5,-247 422.5,-247 422.5,-225 240.5,-225"/>
<polygon fill="none" stroke="black" points="240.5,-225 240.5,-247 422.5,-247 422.5,-225 240.5,-225"/>
<image xlink:href="../../images/foreignKeys.png" width="11px" height="12px" preserveAspectRatio="xMinYMin meet" x="245.5" y="-242"/>
<text text-anchor="start" x="260.5" y="-233.2" font-family="Helvetica,sans-Serif" font-size="11.00">planting_subzone_id</text>
<polygon fill="none" stroke="black" points="422.5,-225 422.5,-247 553.5,-247 553.5,-225 422.5,-225"/>
<text text-anchor="start" x="425.5" y="-233.2" font-family="Helvetica,sans-Serif" font-size="11.00">int8[19]</text>
<polygon fill="none" stroke="black" points="240.5,-203 240.5,-225 422.5,-225 422.5,-203 240.5,-203"/>
<text text-anchor="start" x="260.5" y="-211.2" font-family="Helvetica,sans-Serif" font-size="11.00">name</text>
<polygon fill="none" stroke="black" points="422.5,-203 422.5,-225 553.5,-225 553.5,-203 422.5,-203"/>
<text text-anchor="start" x="425.5" y="-211.2" font-family="Helvetica,sans-Serif" font-size="11.00">text[2147483647]</text>
<polygon fill="none" stroke="black" points="240.5,-181 240.5,-203 422.5,-203 422.5,-181 240.5,-181"/>
<text text-anchor="start" x="260.5" y="-189.2" font-family="Helvetica,sans-Serif" font-size="11.00">full_name</text>
<polygon fill="none" stroke="black" points="422.5,-181 422.5,-203 553.5,-203 553.5,-181 422.5,-181"/>
<text text-anchor="start" x="425.5" y="-189.2" font-family="Helvetica,sans-Serif" font-size="11.00">text[2147483647]</text>
<polygon fill="none" stroke="black" points="240.5,-159 240.5,-181 422.5,-181 422.5,-159 240.5,-159"/>
<text text-anchor="start" x="260.5" y="-167.2" font-family="Helvetica,sans-Serif" font-size="11.00">boundary</text>
<polygon fill="none" stroke="black" points="422.5,-159 422.5,-181 553.5,-181 553.5,-159 422.5,-159"/>
<text text-anchor="start" x="425.5" y="-167.2" font-family="Helvetica,sans-Serif" font-size="11.00">geometry[2147483647]</text>
<polygon fill="#ffffff" stroke="none" points="240.5,-141 240.5,-159 321.5,-159 321.5,-141 240.5,-141"/>
<polygon fill="none" stroke="black" points="240.5,-141 240.5,-159 321.5,-159 321.5,-141 240.5,-141"/>
<text text-anchor="start" x="243.5" y="-147.2" font-family="Helvetica,sans-Serif" font-size="11.00">&lt; 2</text>
<polygon fill="#ffffff" stroke="none" points="321.5,-141 321.5,-159 422.5,-159 422.5,-141 321.5,-141"/>
<polygon fill="none" stroke="black" points="321.5,-141 321.5,-159 422.5,-159 422.5,-141 321.5,-141"/>
<text text-anchor="start" x="383.5" y="-147.2" font-family="Helvetica,sans-Serif" font-size="11.00">0 rows</text>
<polygon fill="#ffffff" stroke="none" points="422.5,-141 422.5,-159 553.5,-159 553.5,-141 422.5,-141"/>
<polygon fill="none" stroke="black" points="422.5,-141 422.5,-159 553.5,-159 553.5,-141 422.5,-141"/>
<text text-anchor="start" x="533.5" y="-147.2" font-family="Helvetica,sans-Serif" font-size="11.00">1 &gt;</text>
<polygon fill="none" stroke="black" stroke-width="2" points="239,-140 239,-314 554,-314 554,-140 239,-140"/>
</a>
</g>
</g>
<!-- monitoring_plot_histories&#45;&gt;planting_subzone_histories -->
<g id="edge1" class="edge"><title>monitoring_plot_histories:planting_subzone_history_id:w&#45;&gt;planting_subzone_histories:id.type:e</title>
<path fill="none" stroke="black" d="M588.578,-285.781C577.408,-283.775 570.494,-280 554.5,-280"/>
<polygon fill="black" stroke="black" points="595.028,-286.326 602.697,-290.587 599.014,-286.663 603,-287 603,-287 603,-287 599.014,-286.663 603.303,-283.413 595.028,-286.326 595.028,-286.326"/>
<ellipse fill="none" stroke="black" cx="591.84" cy="-286.056" rx="3.2" ry="3.2"/>
</g>
<!-- planting_subzones -->
<g id="node3" class="node"><title>planting_subzones</title>
<g id="a_node3"><a xlink:href="../../tables/planting_subzones.html" xlink:title="planting_subzones" target="_top">
<polygon fill="#ffffff" stroke="none" points="12.5,-182 12.5,-372 184.5,-372 184.5,-182 12.5,-182"/>
<polygon fill="#f5f5f5" stroke="none" points="12.5,-350 12.5,-372 184.5,-372 184.5,-350 12.5,-350"/>
<polygon fill="none" stroke="black" points="12.5,-350 12.5,-372 184.5,-372 184.5,-350 12.5,-350"/>
<text text-anchor="start" x="17.5" y="-359.2" font-family="Helvetica,sans-Serif" font-weight="bold" font-size="11.00">planting_subzones</text>
<text text-anchor="start" x="145.5" y="-358.2" font-family="Helvetica,sans-Serif" font-size="11.00">[table]</text>
<polygon fill="none" stroke="black" points="12.5,-328 12.5,-350 184.5,-350 184.5,-328 12.5,-328"/>
<image xlink:href="../../images/primaryKeys.png" width="11px" height="12px" preserveAspectRatio="xMinYMin meet" x="17.5" y="-345"/>
<text text-anchor="start" x="32.5" y="-336.2" font-family="Helvetica,sans-Serif" font-size="11.00">id</text>
<polygon fill="#ffffff" stroke="none" points="12.5,-306 12.5,-328 184.5,-328 184.5,-306 12.5,-306"/>
<polygon fill="none" stroke="black" points="12.5,-306 12.5,-328 184.5,-328 184.5,-306 12.5,-306"/>
<image xlink:href="../../images/foreignKeys.png" width="11px" height="12px" preserveAspectRatio="xMinYMin meet" x="17.5" y="-323"/>
<text text-anchor="start" x="32.5" y="-314.2" font-family="Helvetica,sans-Serif" font-size="11.00">planting_zone_id</text>
<polygon fill="#ffffff" stroke="none" points="12.5,-284 12.5,-306 184.5,-306 184.5,-284 12.5,-284"/>
<polygon fill="none" stroke="black" points="12.5,-284 12.5,-306 184.5,-306 184.5,-284 12.5,-284"/>
<text text-anchor="start" x="32.5" y="-292.2" font-family="Helvetica,sans-Serif" font-size="11.00">name</text>
<polygon fill="none" stroke="black" points="12.5,-262 12.5,-284 184.5,-284 184.5,-262 12.5,-262"/>
<image xlink:href="../../images/foreignKeys.png" width="11px" height="12px" preserveAspectRatio="xMinYMin meet" x="17.5" y="-279"/>
<text text-anchor="start" x="32.5" y="-270.2" font-family="Helvetica,sans-Serif" font-size="11.00">created_by</text>
<polygon fill="none" stroke="black" points="12.5,-240 12.5,-262 184.5,-262 184.5,-240 12.5,-240"/>
<image xlink:href="../../images/foreignKeys.png" width="11px" height="12px" preserveAspectRatio="xMinYMin meet" x="17.5" y="-257"/>
<text text-anchor="start" x="32.5" y="-248.2" font-family="Helvetica,sans-Serif" font-size="11.00">modified_by</text>
<polygon fill="#ffffff" stroke="none" points="12.5,-218 12.5,-240 184.5,-240 184.5,-218 12.5,-218"/>
<polygon fill="none" stroke="black" points="12.5,-218 12.5,-240 184.5,-240 184.5,-218 12.5,-218"/>
<image xlink:href="../../images/foreignKeys.png" width="11px" height="12px" preserveAspectRatio="xMinYMin meet" x="17.5" y="-235"/>
<text text-anchor="start" x="32.5" y="-226.2" font-family="Helvetica,sans-Serif" font-size="11.00">planting_site_id</text>
<polygon fill="none" stroke="black" points="12.5,-200 12.5,-218 184.5,-218 184.5,-200 12.5,-200"/>
<text text-anchor="start" x="15.5" y="-206.2" font-family="Helvetica,sans-Serif" font-size="11.00">...</text>
<polygon fill="#ffffff" stroke="none" points="12.5,-182 12.5,-200 77.5,-200 77.5,-182 12.5,-182"/>
<polygon fill="none" stroke="black" points="12.5,-182 12.5,-200 77.5,-200 77.5,-182 12.5,-182"/>
<text text-anchor="start" x="15.5" y="-188.2" font-family="Helvetica,sans-Serif" font-size="11.00">&lt; 5</text>
<polygon fill="#ffffff" stroke="none" points="77.5,-182 77.5,-200 140.5,-200 140.5,-182 77.5,-182"/>
<polygon fill="none" stroke="black" points="77.5,-182 77.5,-200 140.5,-200 140.5,-182 77.5,-182"/>
<text text-anchor="start" x="101.5" y="-188.2" font-family="Helvetica,sans-Serif" font-size="11.00">0 rows</text>
<polygon fill="#ffffff" stroke="none" points="140.5,-182 140.5,-200 184.5,-200 184.5,-182 140.5,-182"/>
<polygon fill="none" stroke="black" points="140.5,-182 140.5,-200 184.5,-200 184.5,-182 140.5,-182"/>
<text text-anchor="start" x="164.5" y="-188.2" font-family="Helvetica,sans-Serif" font-size="11.00">7 &gt;</text>
</a>
</g>
</g>
<!-- monitoring_plot_histories&#45;&gt;planting_subzones -->
<g id="edge2" class="edge"><title>monitoring_plot_histories:planting_subzone_id:w&#45;&gt;planting_subzones:id:e</title>
<path fill="none" stroke="black" d="M588.344,-331.017C414.822,-331.424 366.106,-339 185.5,-339"/>
<polygon fill="black" stroke="black" points="595,-331.009 603.004,-334.6 599,-331.005 603,-331 603,-331 603,-331 599,-331.005 602.996,-327.4 595,-331.009 595,-331.009"/>
<ellipse fill="none" stroke="black" cx="591.8" cy="-331.013" rx="3.2" ry="3.2"/>
</g>
<!-- planting_subzone_histories&#45;&gt;planting_subzones -->
<g id="edge3" class="edge"><title>planting_subzone_histories:planting_subzone_id:w&#45;&gt;planting_subzones:id:e</title>
<path fill="none" stroke="black" d="M225.531,-239.666C197.702,-258.014 231.332,-339 185.5,-339"/>
<polygon fill="black" stroke="black" points="231.762,-238.031 240.414,-239.482 235.631,-237.015 239.5,-236 239.5,-236 239.5,-236 235.631,-237.015 238.586,-232.518 231.762,-238.031 231.762,-238.031"/>
<ellipse fill="none" stroke="black" cx="228.667" cy="-238.843" rx="3.2" ry="3.2"/>
</g>
<!-- planting_zone_histories -->
<g id="node4" class="node"><title>planting_zone_histories</title>
<g id="a_node4"><a xlink:href="../../tables/planting_zone_histories.html" xlink:title="planting_zone_histories" target="_top">
<polygon fill="#ffffff" stroke="none" points="8,-37 8,-161 189,-161 189,-37 8,-37"/>
<polygon fill="#f5f5f5" stroke="none" points="8.5,-139 8.5,-161 189.5,-161 189.5,-139 8.5,-139"/>
<polygon fill="none" stroke="black" points="8.5,-139 8.5,-161 189.5,-161 189.5,-139 8.5,-139"/>
<text text-anchor="start" x="13.5" y="-148.2" font-family="Helvetica,sans-Serif" font-weight="bold" font-size="11.00">planting_zone_histories</text>
<text text-anchor="start" x="150.5" y="-147.2" font-family="Helvetica,sans-Serif" font-size="11.00">[table]</text>
<polygon fill="none" stroke="black" points="8.5,-117 8.5,-139 189.5,-139 189.5,-117 8.5,-117"/>
<image xlink:href="../../images/primaryKeys.png" width="11px" height="12px" preserveAspectRatio="xMinYMin meet" x="13.5" y="-134"/>
<text text-anchor="start" x="38.5" y="-125.2" font-family="Helvetica,sans-Serif" font-size="11.00">id</text>
<polygon fill="#ffffff" stroke="none" points="8.5,-95 8.5,-117 189.5,-117 189.5,-95 8.5,-95"/>
<polygon fill="none" stroke="black" points="8.5,-95 8.5,-117 189.5,-117 189.5,-95 8.5,-95"/>
<image xlink:href="../../images/foreignKeys.png" width="11px" height="12px" preserveAspectRatio="xMinYMin meet" x="13.5" y="-112"/>
<text text-anchor="start" x="38.5" y="-103.2" font-family="Helvetica,sans-Serif" font-size="11.00">planting_site_history_id</text>
<polygon fill="#ffffff" stroke="none" points="8.5,-73 8.5,-95 189.5,-95 189.5,-73 8.5,-73"/>
<polygon fill="none" stroke="black" points="8.5,-73 8.5,-95 189.5,-95 189.5,-73 8.5,-73"/>
<image xlink:href="../../images/foreignKeys.png" width="11px" height="12px" preserveAspectRatio="xMinYMin meet" x="13.5" y="-90"/>
<text text-anchor="start" x="38.5" y="-81.2" font-family="Helvetica,sans-Serif" font-size="11.00">planting_zone_id</text>
<polygon fill="none" stroke="black" points="8.5,-55 8.5,-73 189.5,-73 189.5,-55 8.5,-55"/>
<text text-anchor="start" x="11.5" y="-61.2" font-family="Helvetica,sans-Serif" font-size="11.00">...</text>
<polygon fill="#ffffff" stroke="none" points="8.5,-37 8.5,-55 77.5,-55 77.5,-37 8.5,-37"/>
<polygon fill="none" stroke="black" points="8.5,-37 8.5,-55 77.5,-55 77.5,-37 8.5,-37"/>
<text text-anchor="start" x="11.5" y="-43.2" font-family="Helvetica,sans-Serif" font-size="11.00">&lt; 2</text>
<polygon fill="#ffffff" stroke="none" points="77.5,-37 77.5,-55 142.5,-55 142.5,-37 77.5,-37"/>
<polygon fill="none" stroke="black" points="77.5,-37 77.5,-55 142.5,-55 142.5,-37 77.5,-37"/>
<text text-anchor="start" x="103.5" y="-43.2" font-family="Helvetica,sans-Serif" font-size="11.00">0 rows</text>
<polygon fill="#ffffff" stroke="none" points="142.5,-37 142.5,-55 189.5,-55 189.5,-37 142.5,-37"/>
<polygon fill="none" stroke="black" points="142.5,-37 142.5,-55 189.5,-55 189.5,-37 142.5,-37"/>
<text text-anchor="start" x="169.5" y="-43.2" font-family="Helvetica,sans-Serif" font-size="11.00">1 &gt;</text>
</a>
</g>
</g>
<!-- planting_subzone_histories&#45;&gt;planting_zone_histories -->
<g id="edge4" class="edge"><title>planting_subzone_histories:planting_zone_history_id:w&#45;&gt;planting_zone_histories:id:e</title>
<path fill="none" stroke="black" d="M225.054,-254.523C191.004,-233.849 246.216,-128 190.5,-128"/>
<polygon fill="black" stroke="black" points="231.722,-256.128 238.657,-261.5 235.611,-257.064 239.5,-258 239.5,-258 239.5,-258 235.611,-257.064 240.343,-254.5 231.722,-256.128 231.722,-256.128"/>
<ellipse fill="none" stroke="black" cx="228.611" cy="-255.379" rx="3.2" ry="3.2"/>
</g>
</g>
</svg>
