<?xml version="1.0" encoding="UTF-8" standalone="no"?>
<!DOCTYPE svg PUBLIC "-//W3C//DTD SVG 1.1//EN"
 "http://www.w3.org/Graphics/SVG/1.1/DTD/svg11.dtd">
<!-- Generated by graphviz version 2.38.0 (20140413.2041)
 -->
<!-- Title: twoDegreesRelationshipsDiagram Pages: 1 -->
<svg width="1701pt" height="894pt"
 viewBox="0.00 0.00 1701.00 893.87" xmlns="http://www.w3.org/2000/svg" xmlns:xlink="http://www.w3.org/1999/xlink">
<g id="graph0" class="graph" transform="scale(1 1) rotate(0) translate(4 889.866)">
<title>twoDegreesRelationshipsDiagram</title>
<polygon fill="#ffffff" stroke="none" points="-4,4 -4,-889.866 1697,-889.866 1697,4 -4,4"/>
<text text-anchor="middle" x="74.5" y="-7.2" font-family="Helvetica,sans-Serif" font-size="11.00">Generated by SchemaSpy</text>
<!-- deliveries -->
<g id="node1" class="node"><title>deliveries</title>
<g id="a_node1"><a xlink:href="../../tables/deliveries.html" xlink:title="deliveries" target="_top">
<polygon fill="#ffffff" stroke="none" points="781,-823.866 781,-881.866 886,-881.866 886,-823.866 781,-823.866"/>
<polygon fill="#f5f5f5" stroke="none" points="781.5,-859.866 781.5,-881.866 886.5,-881.866 886.5,-859.866 781.5,-859.866"/>
<polygon fill="none" stroke="black" points="781.5,-859.866 781.5,-881.866 886.5,-881.866 886.5,-859.866 781.5,-859.866"/>
<text text-anchor="start" x="786.5" y="-869.066" font-family="Helvetica,sans-Serif" font-weight="bold" font-size="11.00">deliveries</text>
<text text-anchor="start" x="847.5" y="-868.066" font-family="Helvetica,sans-Serif" font-size="11.00">[table]</text>
<polygon fill="none" stroke="black" points="781.5,-841.866 781.5,-859.866 886.5,-859.866 886.5,-841.866 781.5,-841.866"/>
<text text-anchor="start" x="784.5" y="-848.066" font-family="Helvetica,sans-Serif" font-size="11.00">...</text>
<polygon fill="#ffffff" stroke="none" points="781.5,-823.866 781.5,-841.866 812.5,-841.866 812.5,-823.866 781.5,-823.866"/>
<polygon fill="none" stroke="black" points="781.5,-823.866 781.5,-841.866 812.5,-841.866 812.5,-823.866 781.5,-823.866"/>
<text text-anchor="start" x="784.5" y="-830.066" font-family="Helvetica,sans-Serif" font-size="11.00">&lt; 5</text>
<polygon fill="#ffffff" stroke="none" points="812.5,-823.866 812.5,-841.866 858.5,-841.866 858.5,-823.866 812.5,-823.866"/>
<polygon fill="none" stroke="black" points="812.5,-823.866 812.5,-841.866 858.5,-841.866 858.5,-823.866 812.5,-823.866"/>
<text text-anchor="start" x="819.5" y="-830.066" font-family="Helvetica,sans-Serif" font-size="11.00">0 rows</text>
<polygon fill="#ffffff" stroke="none" points="858.5,-823.866 858.5,-841.866 886.5,-841.866 886.5,-823.866 858.5,-823.866"/>
<polygon fill="none" stroke="black" points="858.5,-823.866 858.5,-841.866 886.5,-841.866 886.5,-823.866 858.5,-823.866"/>
<text text-anchor="start" x="866.5" y="-830.066" font-family="Helvetica,sans-Serif" font-size="11.00">2 &gt;</text>
</a>
</g>
</g>
<!-- public.users -->
<g id="node2" class="node"><title>public.users</title>
<g id="a_node2"><a xlink:href="../../../public/tables/users.html" xlink:title="public.users" target="_top">
<polygon fill="#ffffff" stroke="none" points="31,-295.866 31,-353.866 149,-353.866 149,-295.866 31,-295.866"/>
<polygon fill="#f5f5f5" stroke="none" points="31,-331.866 31,-353.866 149,-353.866 149,-331.866 31,-331.866"/>
<polygon fill="none" stroke="black" points="31,-331.866 31,-353.866 149,-353.866 149,-331.866 31,-331.866"/>
<text text-anchor="start" x="36" y="-341.066" font-family="Helvetica,sans-Serif" font-weight="bold" font-size="11.00">public.users</text>
<text text-anchor="start" x="110" y="-340.066" font-family="Helvetica,sans-Serif" font-size="11.00">[table]</text>
<polygon fill="none" stroke="black" points="31,-313.866 31,-331.866 149,-331.866 149,-313.866 31,-313.866"/>
<text text-anchor="start" x="34" y="-320.066" font-family="Helvetica,sans-Serif" font-size="11.00">...</text>
<polygon fill="#ffffff" stroke="none" points="31,-295.866 31,-313.866 60,-313.866 60,-295.866 31,-295.866"/>
<polygon fill="none" stroke="black" points="31,-295.866 31,-313.866 60,-313.866 60,-295.866 31,-295.866"/>
<text text-anchor="start" x="34" y="-302.066" font-family="Helvetica,sans-Serif" font-size="11.00"> &#160;</text>
<polygon fill="#ffffff" stroke="none" points="60,-295.866 60,-313.866 110,-313.866 110,-295.866 60,-295.866"/>
<polygon fill="none" stroke="black" points="60,-295.866 60,-313.866 110,-313.866 110,-295.866 60,-295.866"/>
<text text-anchor="start" x="71" y="-302.066" font-family="Helvetica,sans-Serif" font-size="11.00">0 rows</text>
<polygon fill="#ffffff" stroke="none" points="110,-295.866 110,-313.866 149,-313.866 149,-295.866 110,-295.866"/>
<polygon fill="none" stroke="black" points="110,-295.866 110,-313.866 149,-313.866 149,-295.866 110,-295.866"/>
<text text-anchor="start" x="122" y="-302.066" font-family="Helvetica,sans-Serif" font-size="11.00">16 &gt;</text>
</a>
</g>
</g>
<!-- deliveries&#45;&gt;public.users -->
<g id="edge1" class="edge"><title>deliveries:elipses:w&#45;&gt;public.users:id:e</title>
<path fill="none" stroke="black" d="M765.931,-850.225C517.862,-840.907 376.903,-916.645 213,-724.866 156.746,-659.045 203.639,-616.161 180,-532.866 161.932,-469.2 131.683,-398.789 111.538,-358.107"/>
<polygon fill="black" stroke="black" points="772.508,-850.514 780.342,-854.463 776.504,-850.69 780.5,-850.866 780.5,-850.866 780.5,-850.866 776.504,-850.69 780.658,-847.27 772.508,-850.514 772.508,-850.514"/>
<ellipse fill="none" stroke="black" cx="769.311" cy="-850.373" rx="3.2" ry="3.2"/>
</g>
<!-- deliveries&#45;&gt;public.users -->
<g id="edge2" class="edge"><title>deliveries:elipses:w&#45;&gt;public.users:id:e</title>
<path fill="none" stroke="black" d="M765.931,-850.953C517.862,-853.907 376.903,-929.645 213,-737.866 156.746,-672.045 203.639,-629.161 180,-545.866 160.52,-477.226 126.882,-400.746 107.012,-358.156"/>
<polygon fill="black" stroke="black" points="772.5,-850.914 780.522,-854.466 776.5,-850.89 780.5,-850.866 780.5,-850.866 780.5,-850.866 776.5,-850.89 780.478,-847.266 772.5,-850.914 772.5,-850.914"/>
<ellipse fill="none" stroke="black" cx="769.3" cy="-850.933" rx="3.2" ry="3.2"/>
</g>
<!-- deliveries&#45;&gt;public.users -->
<g id="edge4" class="edge"><title>deliveries:elipses:w&#45;&gt;public.users:id:e</title>
<path fill="none" stroke="black" d="M765.931,-851.682C517.862,-866.907 376.903,-942.645 213,-750.866 156.746,-685.045 203.639,-642.161 180,-558.866 159.165,-485.452 122.134,-403.067 103.074,-357.908"/>
<polygon fill="black" stroke="black" points="772.513,-851.313 780.701,-854.46 776.506,-851.09 780.5,-850.866 780.5,-850.866 780.5,-850.866 776.506,-851.09 780.299,-847.272 772.513,-851.313 772.513,-851.313"/>
<ellipse fill="none" stroke="black" cx="769.318" cy="-851.492" rx="3.2" ry="3.2"/>
</g>
<!-- planting_sites -->
<g id="node3" class="node"><title>planting_sites</title>
<g id="a_node3"><a xlink:href="../../tables/planting_sites.html" xlink:title="planting_sites" target="_top">
<polygon fill="#ffffff" stroke="none" points="221,-536.866 221,-726.866 417,-726.866 417,-536.866 221,-536.866"/>
<polygon fill="#f5f5f5" stroke="none" points="221,-704.866 221,-726.866 417,-726.866 417,-704.866 221,-704.866"/>
<polygon fill="none" stroke="black" points="221,-704.866 221,-726.866 417,-726.866 417,-704.866 221,-704.866"/>
<text text-anchor="start" x="226" y="-714.066" font-family="Helvetica,sans-Serif" font-weight="bold" font-size="11.00">planting_sites</text>
<text text-anchor="start" x="378" y="-713.066" font-family="Helvetica,sans-Serif" font-size="11.00">[table]</text>
<polygon fill="none" stroke="black" points="221,-682.866 221,-704.866 417,-704.866 417,-682.866 221,-682.866"/>
<image xlink:href="../../images/primaryKeys.png" width="11px" height="12px" preserveAspectRatio="xMinYMin meet" x="226" y="-699.866"/>
<text text-anchor="start" x="241" y="-691.066" font-family="Helvetica,sans-Serif" font-size="11.00">id</text>
<polygon fill="#ffffff" stroke="none" points="221,-660.866 221,-682.866 417,-682.866 417,-660.866 221,-660.866"/>
<polygon fill="none" stroke="black" points="221,-660.866 221,-682.866 417,-682.866 417,-660.866 221,-660.866"/>
<image xlink:href="../../images/foreignKeys.png" width="11px" height="12px" preserveAspectRatio="xMinYMin meet" x="226" y="-677.866"/>
<text text-anchor="start" x="241" y="-669.066" font-family="Helvetica,sans-Serif" font-size="11.00">organization_id</text>
<polygon fill="#ffffff" stroke="none" points="221,-638.866 221,-660.866 417,-660.866 417,-638.866 221,-638.866"/>
<polygon fill="none" stroke="black" points="221,-638.866 221,-660.866 417,-660.866 417,-638.866 221,-638.866"/>
<text text-anchor="start" x="241" y="-647.066" font-family="Helvetica,sans-Serif" font-size="11.00">name</text>
<polygon fill="none" stroke="black" points="221,-616.866 221,-638.866 417,-638.866 417,-616.866 221,-616.866"/>
<image xlink:href="../../images/foreignKeys.png" width="11px" height="12px" preserveAspectRatio="xMinYMin meet" x="226" y="-633.866"/>
<text text-anchor="start" x="241" y="-625.066" font-family="Helvetica,sans-Serif" font-size="11.00">created_by</text>
<polygon fill="none" stroke="black" points="221,-594.866 221,-616.866 417,-616.866 417,-594.866 221,-594.866"/>
<image xlink:href="../../images/foreignKeys.png" width="11px" height="12px" preserveAspectRatio="xMinYMin meet" x="226" y="-611.866"/>
<text text-anchor="start" x="241" y="-603.066" font-family="Helvetica,sans-Serif" font-size="11.00">modified_by</text>
<polygon fill="none" stroke="black" points="221,-572.866 221,-594.866 417,-594.866 417,-572.866 221,-572.866"/>
<image xlink:href="../../images/foreignKeys.png" width="11px" height="12px" preserveAspectRatio="xMinYMin meet" x="226" y="-589.866"/>
<text text-anchor="start" x="241" y="-581.066" font-family="Helvetica,sans-Serif" font-size="11.00">time_zone</text>
<polygon fill="none" stroke="black" points="221,-554.866 221,-572.866 417,-572.866 417,-554.866 221,-554.866"/>
<text text-anchor="start" x="224" y="-561.066" font-family="Helvetica,sans-Serif" font-size="11.00">...</text>
<polygon fill="#ffffff" stroke="none" points="221,-536.866 221,-554.866 298,-554.866 298,-536.866 221,-536.866"/>
<polygon fill="none" stroke="black" points="221,-536.866 221,-554.866 298,-554.866 298,-536.866 221,-536.866"/>
<text text-anchor="start" x="224" y="-543.066" font-family="Helvetica,sans-Serif" font-size="11.00">&lt; 4</text>
<polygon fill="#ffffff" stroke="none" points="298,-536.866 298,-554.866 367,-554.866 367,-536.866 298,-536.866"/>
<polygon fill="none" stroke="black" points="298,-536.866 298,-554.866 367,-554.866 367,-536.866 298,-536.866"/>
<text text-anchor="start" x="328" y="-543.066" font-family="Helvetica,sans-Serif" font-size="11.00">0 rows</text>
<polygon fill="#ffffff" stroke="none" points="367,-536.866 367,-554.866 417,-554.866 417,-536.866 367,-536.866"/>
<polygon fill="none" stroke="black" points="367,-536.866 367,-554.866 417,-554.866 417,-536.866 367,-536.866"/>
<text text-anchor="start" x="397" y="-543.066" font-family="Helvetica,sans-Serif" font-size="11.00">6 &gt;</text>
</a>
</g>
</g>
<!-- deliveries&#45;&gt;planting_sites -->
<g id="edge3" class="edge"><title>deliveries:elipses:w&#45;&gt;planting_sites:id:e</title>
<path fill="none" stroke="black" d="M765.903,-848.645C703.283,-838.552 461.093,-797.382 458,-794.866 420.544,-764.402 466.281,-693.866 418,-693.866"/>
<polygon fill="black" stroke="black" points="772.591,-849.663 779.959,-854.425 776.546,-850.264 780.5,-850.866 780.5,-850.866 780.5,-850.866 776.546,-850.264 781.041,-847.307 772.591,-849.663 772.591,-849.663"/>
<ellipse fill="none" stroke="black" cx="769.427" cy="-849.181" rx="3.2" ry="3.2"/>
</g>
<!-- planting_sites&#45;&gt;public.users -->
<g id="edge30" class="edge"><title>planting_sites:created_by:w&#45;&gt;public.users:id:e</title>
<path fill="none" stroke="black" d="M212.215,-615.611C190.263,-572.15 130.723,-424.436 104.133,-357.869"/>
<polygon fill="black" stroke="black" points="215.71,-621.113 216.961,-629.796 217.855,-624.49 220,-627.866 220,-627.866 220,-627.866 217.855,-624.49 223.039,-625.936 215.71,-621.113 215.71,-621.113"/>
<ellipse fill="none" stroke="black" cx="213.995" cy="-618.412" rx="3.20001" ry="3.20001"/>
</g>
<!-- planting_sites&#45;&gt;public.users -->
<g id="edge31" class="edge"><title>planting_sites:modified_by:w&#45;&gt;public.users:id:e</title>
<path fill="none" stroke="black" d="M210.28,-595.012C185.787,-555.88 129.963,-421.036 104.324,-357.927"/>
<polygon fill="black" stroke="black" points="214.663,-599.906 217.318,-608.268 217.332,-602.886 220,-605.866 220,-605.866 220,-605.866 217.332,-602.886 222.682,-603.464 214.663,-599.906 214.663,-599.906"/>
<ellipse fill="none" stroke="black" cx="212.528" cy="-597.522" rx="3.20001" ry="3.20001"/>
</g>
<!-- public.organizations -->
<g id="node15" class="node"><title>public.organizations</title>
<g id="a_node15"><a xlink:href="../../../public/tables/organizations.html" xlink:title="public.organizations" target="_top">
<polygon fill="#ffffff" stroke="none" points="8,-644.866 8,-702.866 172,-702.866 172,-644.866 8,-644.866"/>
<polygon fill="#f5f5f5" stroke="none" points="8,-680.866 8,-702.866 172,-702.866 172,-680.866 8,-680.866"/>
<polygon fill="none" stroke="black" points="8,-680.866 8,-702.866 172,-702.866 172,-680.866 8,-680.866"/>
<text text-anchor="start" x="13" y="-690.066" font-family="Helvetica,sans-Serif" font-weight="bold" font-size="11.00">public.organizations</text>
<text text-anchor="start" x="133" y="-689.066" font-family="Helvetica,sans-Serif" font-size="11.00">[table]</text>
<polygon fill="none" stroke="black" points="8,-662.866 8,-680.866 172,-680.866 172,-662.866 8,-662.866"/>
<text text-anchor="start" x="11" y="-669.066" font-family="Helvetica,sans-Serif" font-size="11.00">...</text>
<polygon fill="#ffffff" stroke="none" points="8,-644.866 8,-662.866 64,-662.866 64,-644.866 8,-644.866"/>
<polygon fill="none" stroke="black" points="8,-644.866 8,-662.866 64,-662.866 64,-644.866 8,-644.866"/>
<text text-anchor="start" x="11" y="-651.066" font-family="Helvetica,sans-Serif" font-size="11.00"> &#160;</text>
<polygon fill="#ffffff" stroke="none" points="64,-644.866 64,-662.866 127,-662.866 127,-644.866 64,-644.866"/>
<polygon fill="none" stroke="black" points="64,-644.866 64,-662.866 127,-662.866 127,-644.866 64,-644.866"/>
<text text-anchor="start" x="88" y="-651.066" font-family="Helvetica,sans-Serif" font-size="11.00">0 rows</text>
<polygon fill="#ffffff" stroke="none" points="127,-644.866 127,-662.866 172,-662.866 172,-644.866 127,-644.866"/>
<polygon fill="none" stroke="black" points="127,-644.866 127,-662.866 172,-662.866 172,-644.866 127,-644.866"/>
<text text-anchor="start" x="152" y="-651.066" font-family="Helvetica,sans-Serif" font-size="11.00">1 &gt;</text>
</a>
</g>
</g>
<!-- planting_sites&#45;&gt;public.organizations -->
<g id="edge32" class="edge"><title>planting_sites:organization_id:w&#45;&gt;public.organizations:elipses:e</title>
<path fill="none" stroke="black" d="M205.396,-671.866C194.934,-671.866 188.014,-671.866 173,-671.866"/>
<polygon fill="black" stroke="black" points="212,-671.866 220,-675.466 216,-671.866 220,-671.866 220,-671.866 220,-671.866 216,-671.866 220,-668.266 212,-671.866 212,-671.866"/>
<ellipse fill="none" stroke="black" cx="208.8" cy="-671.866" rx="3.2" ry="3.2"/>
</g>
<!-- public.time_zones -->
<g id="node16" class="node"><title>public.time_zones</title>
<g id="a_node16"><a xlink:href="../../../public/tables/time_zones.html" xlink:title="public.time_zones" target="_top">
<polygon fill="#ffffff" stroke="none" points="14.5,-556.866 14.5,-614.866 165.5,-614.866 165.5,-556.866 14.5,-556.866"/>
<polygon fill="#f5f5f5" stroke="none" points="15,-592.866 15,-614.866 166,-614.866 166,-592.866 15,-592.866"/>
<polygon fill="none" stroke="black" points="15,-592.866 15,-614.866 166,-614.866 166,-592.866 15,-592.866"/>
<text text-anchor="start" x="20" y="-602.066" font-family="Helvetica,sans-Serif" font-weight="bold" font-size="11.00">public.time_zones</text>
<text text-anchor="start" x="127" y="-601.066" font-family="Helvetica,sans-Serif" font-size="11.00">[table]</text>
<polygon fill="none" stroke="black" points="15,-574.866 15,-592.866 166,-592.866 166,-574.866 15,-574.866"/>
<text text-anchor="start" x="18" y="-581.066" font-family="Helvetica,sans-Serif" font-size="11.00">...</text>
<polygon fill="#ffffff" stroke="none" points="15,-556.866 15,-574.866 64,-574.866 64,-556.866 15,-556.866"/>
<polygon fill="none" stroke="black" points="15,-556.866 15,-574.866 64,-574.866 64,-556.866 15,-556.866"/>
<text text-anchor="start" x="18" y="-563.066" font-family="Helvetica,sans-Serif" font-size="11.00"> &#160;</text>
<polygon fill="#ffffff" stroke="none" points="64,-556.866 64,-574.866 124,-574.866 124,-556.866 64,-556.866"/>
<polygon fill="none" stroke="black" points="64,-556.866 64,-574.866 124,-574.866 124,-556.866 64,-556.866"/>
<text text-anchor="start" x="85" y="-563.066" font-family="Helvetica,sans-Serif" font-size="11.00">0 rows</text>
<polygon fill="#ffffff" stroke="none" points="124,-556.866 124,-574.866 166,-574.866 166,-556.866 124,-556.866"/>
<polygon fill="none" stroke="black" points="124,-556.866 124,-574.866 166,-574.866 166,-556.866 124,-556.866"/>
<text text-anchor="start" x="146" y="-563.066" font-family="Helvetica,sans-Serif" font-size="11.00">1 &gt;</text>
</a>
</g>
</g>
<!-- planting_sites&#45;&gt;public.time_zones -->
<g id="edge33" class="edge"><title>planting_sites:time_zone:w&#45;&gt;public.time_zones:elipses:e</title>
<path fill="none" stroke="black" d="M205.492,-583.866C192.556,-583.866 184.851,-583.866 167,-583.866"/>
<polygon fill="black" stroke="black" points="212,-583.866 220,-587.466 216,-583.866 220,-583.866 220,-583.866 220,-583.866 216,-583.866 220,-580.266 212,-583.866 212,-583.866"/>
<ellipse fill="none" stroke="black" cx="208.8" cy="-583.866" rx="3.2" ry="3.2"/>
</g>
<!-- monitoring_plots -->
<g id="node4" class="node"><title>monitoring_plots</title>
<g id="a_node4"><a xlink:href="../../tables/monitoring_plots.html" xlink:title="monitoring_plots" target="_top">
<polygon fill="#ffffff" stroke="none" points="1028,-103.866 1028,-271.866 1212,-271.866 1212,-103.866 1028,-103.866"/>
<polygon fill="#f5f5f5" stroke="none" points="1028,-249.866 1028,-271.866 1212,-271.866 1212,-249.866 1028,-249.866"/>
<polygon fill="none" stroke="black" points="1028,-249.866 1028,-271.866 1212,-271.866 1212,-249.866 1028,-249.866"/>
<text text-anchor="start" x="1033" y="-259.066" font-family="Helvetica,sans-Serif" font-weight="bold" font-size="11.00">monitoring_plots</text>
<text text-anchor="start" x="1173" y="-258.066" font-family="Helvetica,sans-Serif" font-size="11.00">[table]</text>
<polygon fill="none" stroke="black" points="1028,-227.866 1028,-249.866 1212,-249.866 1212,-227.866 1028,-227.866"/>
<image xlink:href="../../images/primaryKeys.png" width="11px" height="12px" preserveAspectRatio="xMinYMin meet" x="1033" y="-244.866"/>
<text text-anchor="start" x="1048" y="-236.066" font-family="Helvetica,sans-Serif" font-size="11.00">id</text>
<polygon fill="#ffffff" stroke="none" points="1028,-205.866 1028,-227.866 1212,-227.866 1212,-205.866 1028,-205.866"/>
<polygon fill="none" stroke="black" points="1028,-205.866 1028,-227.866 1212,-227.866 1212,-205.866 1028,-205.866"/>
<image xlink:href="../../images/foreignKeys.png" width="11px" height="12px" preserveAspectRatio="xMinYMin meet" x="1033" y="-222.866"/>
<text text-anchor="start" x="1048" y="-214.066" font-family="Helvetica,sans-Serif" font-size="11.00">planting_subzone_id</text>
<polygon fill="#ffffff" stroke="none" points="1028,-183.866 1028,-205.866 1212,-205.866 1212,-183.866 1028,-183.866"/>
<polygon fill="none" stroke="black" points="1028,-183.866 1028,-205.866 1212,-205.866 1212,-183.866 1028,-183.866"/>
<text text-anchor="start" x="1048" y="-192.066" font-family="Helvetica,sans-Serif" font-size="11.00">name</text>
<polygon fill="none" stroke="black" points="1028,-161.866 1028,-183.866 1212,-183.866 1212,-161.866 1028,-161.866"/>
<image xlink:href="../../images/foreignKeys.png" width="11px" height="12px" preserveAspectRatio="xMinYMin meet" x="1033" y="-178.866"/>
<text text-anchor="start" x="1048" y="-170.066" font-family="Helvetica,sans-Serif" font-size="11.00">created_by</text>
<polygon fill="none" stroke="black" points="1028,-139.866 1028,-161.866 1212,-161.866 1212,-139.866 1028,-139.866"/>
<image xlink:href="../../images/foreignKeys.png" width="11px" height="12px" preserveAspectRatio="xMinYMin meet" x="1033" y="-156.866"/>
<text text-anchor="start" x="1048" y="-148.066" font-family="Helvetica,sans-Serif" font-size="11.00">modified_by</text>
<polygon fill="none" stroke="black" points="1028,-121.866 1028,-139.866 1212,-139.866 1212,-121.866 1028,-121.866"/>
<text text-anchor="start" x="1031" y="-128.066" font-family="Helvetica,sans-Serif" font-size="11.00">...</text>
<polygon fill="#ffffff" stroke="none" points="1028,-103.866 1028,-121.866 1099,-121.866 1099,-103.866 1028,-103.866"/>
<polygon fill="none" stroke="black" points="1028,-103.866 1028,-121.866 1099,-121.866 1099,-103.866 1028,-103.866"/>
<text text-anchor="start" x="1031" y="-110.066" font-family="Helvetica,sans-Serif" font-size="11.00">&lt; 3</text>
<polygon fill="#ffffff" stroke="none" points="1099,-103.866 1099,-121.866 1165,-121.866 1165,-103.866 1099,-103.866"/>
<polygon fill="none" stroke="black" points="1099,-103.866 1099,-121.866 1165,-121.866 1165,-103.866 1099,-103.866"/>
<text text-anchor="start" x="1126" y="-110.066" font-family="Helvetica,sans-Serif" font-size="11.00">0 rows</text>
<polygon fill="#ffffff" stroke="none" points="1165,-103.866 1165,-121.866 1212,-121.866 1212,-103.866 1165,-103.866"/>
<polygon fill="none" stroke="black" points="1165,-103.866 1165,-121.866 1212,-121.866 1212,-103.866 1165,-103.866"/>
<text text-anchor="start" x="1192" y="-110.066" font-family="Helvetica,sans-Serif" font-size="11.00">5 &gt;</text>
</a>
</g>
</g>
<!-- monitoring_plots&#45;&gt;public.users -->
<g id="edge5" class="edge"><title>monitoring_plots:created_by:w&#45;&gt;public.users:id:e</title>
<path fill="none" stroke="black" d="M1012.36,-172.857C821.834,-172.642 377.862,-169.319 213,-232.866 179.336,-245.842 147.009,-270.996 124.098,-291.726"/>
<polygon fill="black" stroke="black" points="1019,-172.861 1027,-176.466 1023,-172.863 1027,-172.866 1027,-172.866 1027,-172.866 1023,-172.863 1027,-169.266 1019,-172.861 1019,-172.861"/>
<ellipse fill="none" stroke="black" cx="1015.8" cy="-172.859" rx="3.2" ry="3.2"/>
</g>
<!-- monitoring_plots&#45;&gt;public.users -->
<g id="edge6" class="edge"><title>monitoring_plots:modified_by:w&#45;&gt;public.users:id:e</title>
<path fill="none" stroke="black" d="M1012.54,-150.803C661.402,-147.745 534.982,-34.9089 213,-189.866 167.313,-211.853 130.959,-259.335 110.193,-291.701"/>
<polygon fill="black" stroke="black" points="1019,-150.831 1026.98,-154.466 1023,-150.849 1027,-150.866 1027,-150.866 1027,-150.866 1023,-150.849 1027.02,-147.266 1019,-150.831 1019,-150.831"/>
<ellipse fill="none" stroke="black" cx="1015.8" cy="-150.817" rx="3.2" ry="3.2"/>
</g>
<!-- planting_subzones -->
<g id="node5" class="node"><title>planting_subzones</title>
<g id="a_node5"><a xlink:href="../../tables/planting_subzones.html" xlink:title="planting_subzones" target="_top">
<polygon fill="#ffffff" stroke="none" points="688,-334.866 688,-642.866 979,-642.866 979,-334.866 688,-334.866"/>
<polygon fill="#f5f5f5" stroke="none" points="690.5,-618.866 690.5,-640.866 977.5,-640.866 977.5,-618.866 690.5,-618.866"/>
<polygon fill="none" stroke="black" points="690.5,-618.866 690.5,-640.866 977.5,-640.866 977.5,-618.866 690.5,-618.866"/>
<text text-anchor="start" x="695.5" y="-628.066" font-family="Helvetica,sans-Serif" font-weight="bold" font-size="11.00">planting_subzones</text>
<text text-anchor="start" x="938.5" y="-627.066" font-family="Helvetica,sans-Serif" font-size="11.00">[table]</text>
<polygon fill="none" stroke="black" points="690.5,-596.866 690.5,-618.866 846.5,-618.866 846.5,-596.866 690.5,-596.866"/>
<image xlink:href="../../images/primaryKeys.png" width="11px" height="12px" preserveAspectRatio="xMinYMin meet" x="695.5" y="-613.866"/>
<text text-anchor="start" x="710.5" y="-605.066" font-family="Helvetica,sans-Serif" font-size="11.00">id</text>
<polygon fill="none" stroke="black" points="846.5,-596.866 846.5,-618.866 977.5,-618.866 977.5,-596.866 846.5,-596.866"/>
<text text-anchor="start" x="849.5" y="-605.066" font-family="Helvetica,sans-Serif" font-size="11.00">int8[19]</text>
<polygon fill="#ffffff" stroke="none" points="690.5,-574.866 690.5,-596.866 846.5,-596.866 846.5,-574.866 690.5,-574.866"/>
<polygon fill="none" stroke="black" points="690.5,-574.866 690.5,-596.866 846.5,-596.866 846.5,-574.866 690.5,-574.866"/>
<image xlink:href="../../images/foreignKeys.png" width="11px" height="12px" preserveAspectRatio="xMinYMin meet" x="695.5" y="-591.866"/>
<text text-anchor="start" x="710.5" y="-583.066" font-family="Helvetica,sans-Serif" font-size="11.00">planting_zone_id</text>
<polygon fill="none" stroke="black" points="846.5,-574.866 846.5,-596.866 977.5,-596.866 977.5,-574.866 846.5,-574.866"/>
<text text-anchor="start" x="849.5" y="-583.066" font-family="Helvetica,sans-Serif" font-size="11.00">int8[19]</text>
<polygon fill="#ffffff" stroke="none" points="690.5,-552.866 690.5,-574.866 846.5,-574.866 846.5,-552.866 690.5,-552.866"/>
<polygon fill="none" stroke="black" points="690.5,-552.866 690.5,-574.866 846.5,-574.866 846.5,-552.866 690.5,-552.866"/>
<text text-anchor="start" x="710.5" y="-561.066" font-family="Helvetica,sans-Serif" font-size="11.00">name</text>
<polygon fill="none" stroke="black" points="846.5,-552.866 846.5,-574.866 977.5,-574.866 977.5,-552.866 846.5,-552.866"/>
<text text-anchor="start" x="849.5" y="-561.066" font-family="Helvetica,sans-Serif" font-size="11.00">text[2147483647]</text>
<polygon fill="none" stroke="black" points="690.5,-530.866 690.5,-552.866 846.5,-552.866 846.5,-530.866 690.5,-530.866"/>
<text text-anchor="start" x="710.5" y="-539.066" font-family="Helvetica,sans-Serif" font-size="11.00">full_name</text>
<polygon fill="none" stroke="black" points="846.5,-530.866 846.5,-552.866 977.5,-552.866 977.5,-530.866 846.5,-530.866"/>
<text text-anchor="start" x="849.5" y="-539.066" font-family="Helvetica,sans-Serif" font-size="11.00">text[2147483647]</text>
<polygon fill="none" stroke="black" points="690.5,-508.866 690.5,-530.866 846.5,-530.866 846.5,-508.866 690.5,-508.866"/>
<text text-anchor="start" x="710.5" y="-517.066" font-family="Helvetica,sans-Serif" font-size="11.00">boundary</text>
<polygon fill="none" stroke="black" points="846.5,-508.866 846.5,-530.866 977.5,-530.866 977.5,-508.866 846.5,-508.866"/>
<text text-anchor="start" x="849.5" y="-517.066" font-family="Helvetica,sans-Serif" font-size="11.00">geometry[2147483647]</text>
<polygon fill="none" stroke="black" points="690.5,-486.866 690.5,-508.866 846.5,-508.866 846.5,-486.866 690.5,-486.866"/>
<image xlink:href="../../images/foreignKeys.png" width="11px" height="12px" preserveAspectRatio="xMinYMin meet" x="695.5" y="-503.866"/>
<text text-anchor="start" x="710.5" y="-495.066" font-family="Helvetica,sans-Serif" font-size="11.00">created_by</text>
<polygon fill="none" stroke="black" points="846.5,-486.866 846.5,-508.866 977.5,-508.866 977.5,-486.866 846.5,-486.866"/>
<text text-anchor="start" x="849.5" y="-495.066" font-family="Helvetica,sans-Serif" font-size="11.00">int8[19]</text>
<polygon fill="none" stroke="black" points="690.5,-464.866 690.5,-486.866 846.5,-486.866 846.5,-464.866 690.5,-464.866"/>
<text text-anchor="start" x="710.5" y="-473.066" font-family="Helvetica,sans-Serif" font-size="11.00">created_time</text>
<polygon fill="none" stroke="black" points="846.5,-464.866 846.5,-486.866 977.5,-486.866 977.5,-464.866 846.5,-464.866"/>
<text text-anchor="start" x="849.5" y="-473.066" font-family="Helvetica,sans-Serif" font-size="11.00">timestamptz[35,6]</text>
<polygon fill="none" stroke="black" points="690.5,-442.866 690.5,-464.866 846.5,-464.866 846.5,-442.866 690.5,-442.866"/>
<image xlink:href="../../images/foreignKeys.png" width="11px" height="12px" preserveAspectRatio="xMinYMin meet" x="695.5" y="-459.866"/>
<text text-anchor="start" x="710.5" y="-451.066" font-family="Helvetica,sans-Serif" font-size="11.00">modified_by</text>
<polygon fill="none" stroke="black" points="846.5,-442.866 846.5,-464.866 977.5,-464.866 977.5,-442.866 846.5,-442.866"/>
<text text-anchor="start" x="849.5" y="-451.066" font-family="Helvetica,sans-Serif" font-size="11.00">int8[19]</text>
<polygon fill="none" stroke="black" points="690.5,-420.866 690.5,-442.866 846.5,-442.866 846.5,-420.866 690.5,-420.866"/>
<text text-anchor="start" x="710.5" y="-429.066" font-family="Helvetica,sans-Serif" font-size="11.00">modified_time</text>
<polygon fill="none" stroke="black" points="846.5,-420.866 846.5,-442.866 977.5,-442.866 977.5,-420.866 846.5,-420.866"/>
<text text-anchor="start" x="849.5" y="-429.066" font-family="Helvetica,sans-Serif" font-size="11.00">timestamptz[35,6]</text>
<polygon fill="#ffffff" stroke="none" points="690.5,-398.866 690.5,-420.866 846.5,-420.866 846.5,-398.866 690.5,-398.866"/>
<polygon fill="none" stroke="black" points="690.5,-398.866 690.5,-420.866 846.5,-420.866 846.5,-398.866 690.5,-398.866"/>
<image xlink:href="../../images/foreignKeys.png" width="11px" height="12px" preserveAspectRatio="xMinYMin meet" x="695.5" y="-415.866"/>
<text text-anchor="start" x="710.5" y="-407.066" font-family="Helvetica,sans-Serif" font-size="11.00">planting_site_id</text>
<polygon fill="none" stroke="black" points="846.5,-398.866 846.5,-420.866 977.5,-420.866 977.5,-398.866 846.5,-398.866"/>
<text text-anchor="start" x="849.5" y="-407.066" font-family="Helvetica,sans-Serif" font-size="11.00">int8[19]</text>
<polygon fill="none" stroke="black" points="690.5,-376.866 690.5,-398.866 846.5,-398.866 846.5,-376.866 690.5,-376.866"/>
<text text-anchor="start" x="710.5" y="-385.066" font-family="Helvetica,sans-Serif" font-size="11.00">area_ha</text>
<polygon fill="none" stroke="black" points="846.5,-376.866 846.5,-398.866 977.5,-398.866 977.5,-376.866 846.5,-376.866"/>
<text text-anchor="start" x="849.5" y="-385.066" font-family="Helvetica,sans-Serif" font-size="11.00">numeric[131089]</text>
<polygon fill="none" stroke="black" points="690.5,-354.866 690.5,-376.866 846.5,-376.866 846.5,-354.866 690.5,-354.866"/>
<text text-anchor="start" x="710.5" y="-363.066" font-family="Helvetica,sans-Serif" font-size="11.00">finished_planting_time</text>
<polygon fill="none" stroke="black" points="846.5,-354.866 846.5,-376.866 977.5,-376.866 977.5,-354.866 846.5,-354.866"/>
<text text-anchor="start" x="849.5" y="-363.066" font-family="Helvetica,sans-Serif" font-size="11.00">timestamptz[35,6]</text>
<polygon fill="#ffffff" stroke="none" points="690.5,-336.866 690.5,-354.866 758.5,-354.866 758.5,-336.866 690.5,-336.866"/>
<polygon fill="none" stroke="black" points="690.5,-336.866 690.5,-354.866 758.5,-354.866 758.5,-336.866 690.5,-336.866"/>
<text text-anchor="start" x="693.5" y="-343.066" font-family="Helvetica,sans-Serif" font-size="11.00">&lt; 5</text>
<polygon fill="#ffffff" stroke="none" points="758.5,-336.866 758.5,-354.866 846.5,-354.866 846.5,-336.866 758.5,-336.866"/>
<polygon fill="none" stroke="black" points="758.5,-336.866 758.5,-354.866 846.5,-354.866 846.5,-336.866 758.5,-336.866"/>
<text text-anchor="start" x="807.5" y="-343.066" font-family="Helvetica,sans-Serif" font-size="11.00">0 rows</text>
<polygon fill="#ffffff" stroke="none" points="846.5,-336.866 846.5,-354.866 977.5,-354.866 977.5,-336.866 846.5,-336.866"/>
<polygon fill="none" stroke="black" points="846.5,-336.866 846.5,-354.866 977.5,-354.866 977.5,-336.866 846.5,-336.866"/>
<text text-anchor="start" x="957.5" y="-343.066" font-family="Helvetica,sans-Serif" font-size="11.00">3 &gt;</text>
<polygon fill="none" stroke="black" stroke-width="2" points="689,-335.866 689,-641.866 978,-641.866 978,-335.866 689,-335.866"/>
</a>
</g>
</g>
<!-- monitoring_plots&#45;&gt;planting_subzones -->
<g id="edge7" class="edge"><title>monitoring_plots:planting_subzone_id:w&#45;&gt;planting_subzones:id.type:e</title>
<path fill="none" stroke="black" d="M1012.99,-221.257C954.435,-264.214 1060.58,-607.866 978.5,-607.866"/>
<polygon fill="black" stroke="black" points="1019.37,-219.259 1028.08,-220.301 1023.18,-218.062 1027,-216.866 1027,-216.866 1027,-216.866 1023.18,-218.062 1025.92,-213.431 1019.37,-219.259 1019.37,-219.259"/>
<ellipse fill="none" stroke="black" cx="1016.31" cy="-220.215" rx="3.20001" ry="3.20001"/>
</g>
<!-- planting_subzones&#45;&gt;public.users -->
<g id="edge34" class="edge"><title>planting_subzones:created_by:w&#45;&gt;public.users:id:e</title>
<path fill="none" stroke="black" d="M674.933,-498.113C560.179,-501.701 302.998,-542.451 213,-495.866 156.97,-466.864 120.953,-398.967 103.488,-357.99"/>
<polygon fill="black" stroke="black" points="681.501,-498.002 689.561,-501.466 685.501,-497.934 689.5,-497.866 689.5,-497.866 689.5,-497.866 685.501,-497.934 689.439,-494.267 681.501,-498.002 681.501,-498.002"/>
<ellipse fill="none" stroke="black" cx="678.302" cy="-498.056" rx="3.2" ry="3.2"/>
</g>
<!-- planting_subzones&#45;&gt;public.users -->
<g id="edge35" class="edge"><title>planting_subzones:modified_by:w&#45;&gt;public.users:id:e</title>
<path fill="none" stroke="black" d="M674.942,-453.927C583.702,-454.697 554.401,-462.153 458,-444.866 349.789,-425.461 229.606,-381.671 157.201,-352.703"/>
<polygon fill="black" stroke="black" points="681.5,-453.9 689.515,-457.466 685.5,-453.883 689.5,-453.866 689.5,-453.866 689.5,-453.866 685.5,-453.883 689.485,-450.266 681.5,-453.9 681.5,-453.9"/>
<ellipse fill="none" stroke="black" cx="678.3" cy="-453.913" rx="3.2" ry="3.2"/>
</g>
<!-- planting_subzones&#45;&gt;planting_sites -->
<g id="edge36" class="edge"><title>planting_subzones:planting_site_id:w&#45;&gt;planting_sites:id:e</title>
<path fill="none" stroke="black" d="M678.309,-418.994C627.701,-467.604 427.741,-693.866 418,-693.866"/>
<polygon fill="black" stroke="black" points="683.301,-414.923 691.775,-412.656 686.4,-412.394 689.5,-409.866 689.5,-409.866 689.5,-409.866 686.4,-412.394 687.225,-407.076 683.301,-414.923 683.301,-414.923"/>
<ellipse fill="none" stroke="black" cx="680.821" cy="-416.945" rx="3.20001" ry="3.20001"/>
</g>
<!-- planting_zones -->
<g id="node14" class="node"><title>planting_zones</title>
<g id="a_node14"><a xlink:href="../../tables/planting_zones.html" xlink:title="planting_zones" target="_top">
<polygon fill="#ffffff" stroke="none" points="466,-266.866 466,-434.866 639,-434.866 639,-266.866 466,-266.866"/>
<polygon fill="#f5f5f5" stroke="none" points="466.5,-412.866 466.5,-434.866 639.5,-434.866 639.5,-412.866 466.5,-412.866"/>
<polygon fill="none" stroke="black" points="466.5,-412.866 466.5,-434.866 639.5,-434.866 639.5,-412.866 466.5,-412.866"/>
<text text-anchor="start" x="471.5" y="-422.066" font-family="Helvetica,sans-Serif" font-weight="bold" font-size="11.00">planting_zones</text>
<text text-anchor="start" x="600.5" y="-421.066" font-family="Helvetica,sans-Serif" font-size="11.00">[table]</text>
<polygon fill="none" stroke="black" points="466.5,-390.866 466.5,-412.866 639.5,-412.866 639.5,-390.866 466.5,-390.866"/>
<image xlink:href="../../images/primaryKeys.png" width="11px" height="12px" preserveAspectRatio="xMinYMin meet" x="471.5" y="-407.866"/>
<text text-anchor="start" x="486.5" y="-399.066" font-family="Helvetica,sans-Serif" font-size="11.00">id</text>
<polygon fill="#ffffff" stroke="none" points="466.5,-368.866 466.5,-390.866 639.5,-390.866 639.5,-368.866 466.5,-368.866"/>
<polygon fill="none" stroke="black" points="466.5,-368.866 466.5,-390.866 639.5,-390.866 639.5,-368.866 466.5,-368.866"/>
<image xlink:href="../../images/foreignKeys.png" width="11px" height="12px" preserveAspectRatio="xMinYMin meet" x="471.5" y="-385.866"/>
<text text-anchor="start" x="486.5" y="-377.066" font-family="Helvetica,sans-Serif" font-size="11.00">planting_site_id</text>
<polygon fill="#ffffff" stroke="none" points="466.5,-346.866 466.5,-368.866 639.5,-368.866 639.5,-346.866 466.5,-346.866"/>
<polygon fill="none" stroke="black" points="466.5,-346.866 466.5,-368.866 639.5,-368.866 639.5,-346.866 466.5,-346.866"/>
<text text-anchor="start" x="486.5" y="-355.066" font-family="Helvetica,sans-Serif" font-size="11.00">name</text>
<polygon fill="none" stroke="black" points="466.5,-324.866 466.5,-346.866 639.5,-346.866 639.5,-324.866 466.5,-324.866"/>
<image xlink:href="../../images/foreignKeys.png" width="11px" height="12px" preserveAspectRatio="xMinYMin meet" x="471.5" y="-341.866"/>
<text text-anchor="start" x="486.5" y="-333.066" font-family="Helvetica,sans-Serif" font-size="11.00">created_by</text>
<polygon fill="none" stroke="black" points="466.5,-302.866 466.5,-324.866 639.5,-324.866 639.5,-302.866 466.5,-302.866"/>
<image xlink:href="../../images/foreignKeys.png" width="11px" height="12px" preserveAspectRatio="xMinYMin meet" x="471.5" y="-319.866"/>
<text text-anchor="start" x="486.5" y="-311.066" font-family="Helvetica,sans-Serif" font-size="11.00">modified_by</text>
<polygon fill="none" stroke="black" points="466.5,-284.866 466.5,-302.866 639.5,-302.866 639.5,-284.866 466.5,-284.866"/>
<text text-anchor="start" x="469.5" y="-291.066" font-family="Helvetica,sans-Serif" font-size="11.00">...</text>
<polygon fill="#ffffff" stroke="none" points="466.5,-266.866 466.5,-284.866 531.5,-284.866 531.5,-266.866 466.5,-266.866"/>
<polygon fill="none" stroke="black" points="466.5,-266.866 466.5,-284.866 531.5,-284.866 531.5,-266.866 466.5,-266.866"/>
<text text-anchor="start" x="469.5" y="-273.066" font-family="Helvetica,sans-Serif" font-size="11.00">&lt; 3</text>
<polygon fill="#ffffff" stroke="none" points="531.5,-266.866 531.5,-284.866 594.5,-284.866 594.5,-266.866 531.5,-266.866"/>
<polygon fill="none" stroke="black" points="531.5,-266.866 531.5,-284.866 594.5,-284.866 594.5,-266.866 531.5,-266.866"/>
<text text-anchor="start" x="555.5" y="-273.066" font-family="Helvetica,sans-Serif" font-size="11.00">0 rows</text>
<polygon fill="#ffffff" stroke="none" points="594.5,-266.866 594.5,-284.866 639.5,-284.866 639.5,-266.866 594.5,-266.866"/>
<polygon fill="none" stroke="black" points="594.5,-266.866 594.5,-284.866 639.5,-284.866 639.5,-266.866 594.5,-266.866"/>
<text text-anchor="start" x="619.5" y="-273.066" font-family="Helvetica,sans-Serif" font-size="11.00">3 &gt;</text>
</a>
</g>
</g>
<!-- planting_subzones&#45;&gt;planting_zones -->
<g id="edge37" class="edge"><title>planting_subzones:planting_site_id:w&#45;&gt;planting_zones:planting_site_id:e</title>
<path fill="none" stroke="black" d="M675.384,-405.695C663.419,-397.451 660.05,-379.866 640.5,-379.866"/>
<polygon fill="black" stroke="black" points="681.828,-407.599 688.48,-413.318 685.664,-408.732 689.5,-409.866 689.5,-409.866 689.5,-409.866 685.664,-408.732 690.52,-406.414 681.828,-407.599 681.828,-407.599"/>
<ellipse fill="none" stroke="black" cx="678.759" cy="-406.692" rx="3.20001" ry="3.20001"/>
</g>
<!-- planting_subzones&#45;&gt;planting_zones -->
<g id="edge38" class="edge"><title>planting_subzones:planting_zone_id:w&#45;&gt;planting_zones:id:e</title>
<path fill="none" stroke="black" d="M675.231,-583.54C619.94,-562.24 719.508,-401.866 640.5,-401.866"/>
<polygon fill="black" stroke="black" points="681.604,-584.579 688.921,-589.419 685.552,-585.222 689.5,-585.866 689.5,-585.866 689.5,-585.866 685.552,-585.222 690.079,-582.313 681.604,-584.579 681.604,-584.579"/>
<ellipse fill="none" stroke="black" cx="678.446" cy="-584.064" rx="3.2" ry="3.2"/>
</g>
<!-- observation_photos -->
<g id="node6" class="node"><title>observation_photos</title>
<g id="a_node6"><a xlink:href="../../tables/observation_photos.html" xlink:title="observation_photos" target="_top">
<polygon fill="#ffffff" stroke="none" points="1525,-131.866 1525,-189.866 1685,-189.866 1685,-131.866 1525,-131.866"/>
<polygon fill="#f5f5f5" stroke="none" points="1525,-167.866 1525,-189.866 1685,-189.866 1685,-167.866 1525,-167.866"/>
<polygon fill="none" stroke="black" points="1525,-167.866 1525,-189.866 1685,-189.866 1685,-167.866 1525,-167.866"/>
<text text-anchor="start" x="1530" y="-177.066" font-family="Helvetica,sans-Serif" font-weight="bold" font-size="11.00">observation_photos</text>
<text text-anchor="start" x="1646" y="-176.066" font-family="Helvetica,sans-Serif" font-size="11.00">[table]</text>
<polygon fill="none" stroke="black" points="1525,-149.866 1525,-167.866 1685,-167.866 1685,-149.866 1525,-149.866"/>
<text text-anchor="start" x="1528" y="-156.066" font-family="Helvetica,sans-Serif" font-size="11.00">...</text>
<polygon fill="#ffffff" stroke="none" points="1525,-131.866 1525,-149.866 1589,-149.866 1589,-131.866 1525,-131.866"/>
<polygon fill="none" stroke="black" points="1525,-131.866 1525,-149.866 1589,-149.866 1589,-131.866 1525,-131.866"/>
<text text-anchor="start" x="1528" y="-138.066" font-family="Helvetica,sans-Serif" font-size="11.00">&lt; 6</text>
<polygon fill="#ffffff" stroke="none" points="1589,-131.866 1589,-149.866 1651,-149.866 1651,-131.866 1589,-131.866"/>
<polygon fill="none" stroke="black" points="1589,-131.866 1589,-149.866 1651,-149.866 1651,-131.866 1589,-131.866"/>
<text text-anchor="start" x="1612" y="-138.066" font-family="Helvetica,sans-Serif" font-size="11.00">0 rows</text>
<polygon fill="#ffffff" stroke="none" points="1651,-131.866 1651,-149.866 1685,-149.866 1685,-131.866 1651,-131.866"/>
<polygon fill="none" stroke="black" points="1651,-131.866 1651,-149.866 1685,-149.866 1685,-131.866 1651,-131.866"/>
<text text-anchor="start" x="1675" y="-138.066" font-family="Helvetica,sans-Serif" font-size="11.00"> &#160;</text>
</a>
</g>
</g>
<!-- observation_photos&#45;&gt;monitoring_plots -->
<g id="edge8" class="edge"><title>observation_photos:elipses:w&#45;&gt;monitoring_plots:id:e</title>
<path fill="none" stroke="black" d="M1510.12,-163.698C1500.9,-172.224 1500.57,-189.8 1484,-197.866 1390.86,-243.209 1354.74,-209.385 1253,-228.866 1235,-232.312 1231.32,-238.866 1213,-238.866"/>
<polygon fill="black" stroke="black" points="1516.44,-161.496 1525.18,-162.266 1520.22,-160.181 1524,-158.866 1524,-158.866 1524,-158.866 1520.22,-160.181 1522.82,-155.466 1516.44,-161.496 1516.44,-161.496"/>
<ellipse fill="none" stroke="black" cx="1513.42" cy="-162.548" rx="3.20001" ry="3.20001"/>
</g>
<!-- observation_plots -->
<g id="node7" class="node"><title>observation_plots</title>
<g id="a_node7"><a xlink:href="../../tables/observation_plots.html" xlink:title="observation_plots" target="_top">
<polygon fill="#ffffff" stroke="none" points="1293.5,-129.866 1293.5,-187.866 1443.5,-187.866 1443.5,-129.866 1293.5,-129.866"/>
<polygon fill="#f5f5f5" stroke="none" points="1293.5,-165.866 1293.5,-187.866 1443.5,-187.866 1443.5,-165.866 1293.5,-165.866"/>
<polygon fill="none" stroke="black" points="1293.5,-165.866 1293.5,-187.866 1443.5,-187.866 1443.5,-165.866 1293.5,-165.866"/>
<text text-anchor="start" x="1298.5" y="-175.066" font-family="Helvetica,sans-Serif" font-weight="bold" font-size="11.00">observation_plots</text>
<text text-anchor="start" x="1404.5" y="-174.066" font-family="Helvetica,sans-Serif" font-size="11.00">[table]</text>
<polygon fill="none" stroke="black" points="1293.5,-147.866 1293.5,-165.866 1443.5,-165.866 1443.5,-147.866 1293.5,-147.866"/>
<text text-anchor="start" x="1296.5" y="-154.066" font-family="Helvetica,sans-Serif" font-size="11.00">...</text>
<polygon fill="#ffffff" stroke="none" points="1293.5,-129.866 1293.5,-147.866 1347.5,-147.866 1347.5,-129.866 1293.5,-129.866"/>
<polygon fill="none" stroke="black" points="1293.5,-129.866 1293.5,-147.866 1347.5,-147.866 1347.5,-129.866 1293.5,-129.866"/>
<text text-anchor="start" x="1296.5" y="-136.066" font-family="Helvetica,sans-Serif" font-size="11.00">&lt; 6</text>
<polygon fill="#ffffff" stroke="none" points="1347.5,-129.866 1347.5,-147.866 1404.5,-147.866 1404.5,-129.866 1347.5,-129.866"/>
<polygon fill="none" stroke="black" points="1347.5,-129.866 1347.5,-147.866 1404.5,-147.866 1404.5,-129.866 1347.5,-129.866"/>
<text text-anchor="start" x="1365.5" y="-136.066" font-family="Helvetica,sans-Serif" font-size="11.00">0 rows</text>
<polygon fill="#ffffff" stroke="none" points="1404.5,-129.866 1404.5,-147.866 1443.5,-147.866 1443.5,-129.866 1404.5,-129.866"/>
<polygon fill="none" stroke="black" points="1404.5,-129.866 1404.5,-147.866 1443.5,-147.866 1443.5,-129.866 1404.5,-129.866"/>
<text text-anchor="start" x="1423.5" y="-136.066" font-family="Helvetica,sans-Serif" font-size="11.00">4 &gt;</text>
</a>
</g>
</g>
<!-- observation_photos&#45;&gt;observation_plots -->
<g id="edge9" class="edge"><title>observation_photos:elipses:w&#45;&gt;observation_plots:elipses:e</title>
<path fill="none" stroke="black" d="M1509.51,-156.416C1485.36,-152.442 1474.46,-151.78 1444.5,-156.866"/>
<polygon fill="black" stroke="black" points="1516.11,-157.533 1523.4,-162.416 1520.06,-158.199 1524,-158.866 1524,-158.866 1524,-158.866 1520.06,-158.199 1524.6,-155.316 1516.11,-157.533 1516.11,-157.533"/>
<ellipse fill="none" stroke="black" cx="1512.96" cy="-157" rx="3.2" ry="3.2"/>
</g>
<!-- observation_photos&#45;&gt;observation_plots -->
<g id="edge10" class="edge"><title>observation_photos:elipses:w&#45;&gt;observation_plots:elipses:e</title>
<path fill="none" stroke="black" d="M1509.51,-161.453C1485.36,-165.141 1474.46,-162.8 1444.5,-156.866"/>
<polygon fill="black" stroke="black" points="1516.12,-160.272 1524.63,-162.41 1520.06,-159.569 1524,-158.866 1524,-158.866 1524,-158.866 1520.06,-159.569 1523.37,-155.322 1516.12,-160.272 1516.12,-160.272"/>
<ellipse fill="none" stroke="black" cx="1512.97" cy="-160.834" rx="3.2" ry="3.2"/>
</g>
<!-- observations -->
<g id="node8" class="node"><title>observations</title>
<g id="a_node8"><a xlink:href="../../tables/observations.html" xlink:title="observations" target="_top">
<polygon fill="#ffffff" stroke="none" points="1059,-449.866 1059,-507.866 1181,-507.866 1181,-449.866 1059,-449.866"/>
<polygon fill="#f5f5f5" stroke="none" points="1059,-485.866 1059,-507.866 1181,-507.866 1181,-485.866 1059,-485.866"/>
<polygon fill="none" stroke="black" points="1059,-485.866 1059,-507.866 1181,-507.866 1181,-485.866 1059,-485.866"/>
<text text-anchor="start" x="1064" y="-495.066" font-family="Helvetica,sans-Serif" font-weight="bold" font-size="11.00">observations</text>
<text text-anchor="start" x="1142" y="-494.066" font-family="Helvetica,sans-Serif" font-size="11.00">[table]</text>
<polygon fill="none" stroke="black" points="1059,-467.866 1059,-485.866 1181,-485.866 1181,-467.866 1059,-467.866"/>
<text text-anchor="start" x="1062" y="-474.066" font-family="Helvetica,sans-Serif" font-size="11.00">...</text>
<polygon fill="#ffffff" stroke="none" points="1059,-449.866 1059,-467.866 1099,-467.866 1099,-449.866 1059,-449.866"/>
<polygon fill="none" stroke="black" points="1059,-449.866 1059,-467.866 1099,-467.866 1099,-449.866 1059,-449.866"/>
<text text-anchor="start" x="1062" y="-456.066" font-family="Helvetica,sans-Serif" font-size="11.00">&lt; 2</text>
<polygon fill="#ffffff" stroke="none" points="1099,-449.866 1099,-467.866 1149,-467.866 1149,-449.866 1099,-449.866"/>
<polygon fill="none" stroke="black" points="1099,-449.866 1099,-467.866 1149,-467.866 1149,-449.866 1099,-449.866"/>
<text text-anchor="start" x="1110" y="-456.066" font-family="Helvetica,sans-Serif" font-size="11.00">0 rows</text>
<polygon fill="#ffffff" stroke="none" points="1149,-449.866 1149,-467.866 1181,-467.866 1181,-449.866 1149,-449.866"/>
<polygon fill="none" stroke="black" points="1149,-449.866 1149,-467.866 1181,-467.866 1181,-449.866 1149,-449.866"/>
<text text-anchor="start" x="1161" y="-456.066" font-family="Helvetica,sans-Serif" font-size="11.00">7 &gt;</text>
</a>
</g>
</g>
<!-- observation_photos&#45;&gt;observations -->
<g id="edge11" class="edge"><title>observation_photos:elipses:w&#45;&gt;observations:elipses:e</title>
<path fill="none" stroke="black" d="M1510.03,-162.945C1456.98,-199.201 1539.26,-466.092 1484,-515.866 1445.86,-550.221 1302.72,-528.623 1253,-515.866 1218.13,-506.919 1218,-476.866 1182,-476.866"/>
<polygon fill="black" stroke="black" points="1516.32,-161.108 1525.01,-162.322 1520.16,-159.987 1524,-158.866 1524,-158.866 1524,-158.866 1520.16,-159.987 1522.99,-155.41 1516.32,-161.108 1516.32,-161.108"/>
<ellipse fill="none" stroke="black" cx="1513.25" cy="-162.005" rx="3.20001" ry="3.20001"/>
</g>
<!-- observation_plots&#45;&gt;public.users -->
<g id="edge14" class="edge"><title>observation_plots:elipses:w&#45;&gt;public.users:id:e</title>
<path fill="none" stroke="black" d="M1279.79,-149.409C1251.16,-127.564 1255.08,-88.7681 1220,-73.866 1061.8,-6.65733 1006.39,-42.866 834.5,-42.866 834.5,-42.866 834.5,-42.866 551.5,-42.866 399.153,-42.866 338.711,-10.8057 213,-96.866 145.57,-143.028 110.178,-239.689 97.0651,-291.801"/>
<polygon fill="black" stroke="black" points="1285.6,-152.819 1290.68,-159.971 1289.05,-154.842 1292.5,-156.866 1292.5,-156.866 1292.5,-156.866 1289.05,-154.842 1294.32,-153.761 1285.6,-152.819 1285.6,-152.819"/>
<ellipse fill="none" stroke="black" cx="1282.84" cy="-151.2" rx="3.20001" ry="3.20001"/>
</g>
<!-- observation_plots&#45;&gt;public.users -->
<g id="edge15" class="edge"><title>observation_plots:elipses:w&#45;&gt;public.users:id:e</title>
<path fill="none" stroke="black" d="M1278.67,-152.825C1251.25,-139.542 1254.61,-101.571 1220,-86.866 1061.8,-19.6573 1006.39,-55.866 834.5,-55.866 834.5,-55.866 834.5,-55.866 551.5,-55.866 399.153,-55.866 338.711,-23.8057 213,-109.866 149.037,-153.655 113.902,-242.883 99.2657,-291.556"/>
<polygon fill="black" stroke="black" points="1284.82,-154.623 1291.49,-160.322 1288.66,-155.744 1292.5,-156.866 1292.5,-156.866 1292.5,-156.866 1288.66,-155.744 1293.51,-153.41 1284.82,-154.623 1284.82,-154.623"/>
<ellipse fill="none" stroke="black" cx="1281.75" cy="-153.725" rx="3.20001" ry="3.20001"/>
</g>
<!-- observation_plots&#45;&gt;public.users -->
<g id="edge16" class="edge"><title>observation_plots:elipses:w&#45;&gt;public.users:id:e</title>
<path fill="none" stroke="black" d="M1277.94,-156.985C1251.31,-151.866 1254.31,-114.44 1220,-99.866 1061.8,-32.6573 1006.39,-68.866 834.5,-68.866 834.5,-68.866 834.5,-68.866 551.5,-68.866 399.153,-68.866 338.711,-36.8057 213,-122.866 152.677,-164.163 117.994,-245.875 101.965,-291.786"/>
<polygon fill="black" stroke="black" points="1284.5,-156.932 1292.53,-160.466 1288.5,-156.899 1292.5,-156.866 1292.5,-156.866 1292.5,-156.866 1288.5,-156.899 1292.47,-153.266 1284.5,-156.932 1284.5,-156.932"/>
<ellipse fill="none" stroke="black" cx="1281.3" cy="-156.958" rx="3.2" ry="3.2"/>
</g>
<!-- observation_plots&#45;&gt;public.users -->
<g id="edge17" class="edge"><title>observation_plots:elipses:w&#45;&gt;public.users:id:e</title>
<path fill="none" stroke="black" d="M1278.67,-161.407C1251.25,-165.542 1254.61,-127.571 1220,-112.866 1061.8,-45.6573 1006.39,-81.866 834.5,-81.866 834.5,-81.866 834.5,-81.866 551.5,-81.866 399.153,-81.866 338.711,-49.8057 213,-135.866 156.837,-174.315 122.9,-247.796 105.55,-291.507"/>
<polygon fill="black" stroke="black" points="1284.9,-159.361 1293.62,-160.286 1288.7,-158.114 1292.5,-156.866 1292.5,-156.866 1292.5,-156.866 1288.7,-158.114 1291.38,-153.446 1284.9,-159.361 1284.9,-159.361"/>
<ellipse fill="none" stroke="black" cx="1281.86" cy="-160.359" rx="3.20001" ry="3.20001"/>
</g>
<!-- observation_plots&#45;&gt;monitoring_plots -->
<g id="edge18" class="edge"><title>observation_plots:elipses:w&#45;&gt;monitoring_plots:id:e</title>
<path fill="none" stroke="black" d="M1278.27,-159.594C1245.69,-173.823 1258.21,-238.866 1213,-238.866"/>
<polygon fill="black" stroke="black" points="1284.64,-158.372 1293.18,-160.402 1288.57,-157.619 1292.5,-156.866 1292.5,-156.866 1292.5,-156.866 1288.57,-157.619 1291.82,-153.33 1284.64,-158.372 1284.64,-158.372"/>
<ellipse fill="none" stroke="black" cx="1281.5" cy="-158.974" rx="3.2" ry="3.2"/>
</g>
<!-- observation_plots&#45;&gt;observations -->
<g id="edge19" class="edge"><title>observation_plots:elipses:w&#45;&gt;observations:elipses:e</title>
<path fill="none" stroke="black" d="M1277.87,-158.025C1155.01,-178.971 1327.17,-476.866 1182,-476.866"/>
<polygon fill="black" stroke="black" points="1284.52,-157.498 1292.78,-160.455 1288.51,-157.182 1292.5,-156.866 1292.5,-156.866 1292.5,-156.866 1288.51,-157.182 1292.22,-153.277 1284.52,-157.498 1284.52,-157.498"/>
<ellipse fill="none" stroke="black" cx="1281.33" cy="-157.75" rx="3.2" ry="3.2"/>
</g>
<!-- observations&#45;&gt;planting_sites -->
<g id="edge20" class="edge"><title>observations:elipses:w&#45;&gt;planting_sites:id:e</title>
<path fill="none" stroke="black" d="M1043.65,-479.79C1024.29,-489.677 1032,-522.868 1020,-551.866 1001.94,-595.501 1024.35,-623.962 987,-652.866 963.714,-670.888 487.198,-682.053 458,-685.866 440.023,-688.214 436.13,-693.866 418,-693.866"/>
<polygon fill="black" stroke="black" points="1050.16,-478.463 1058.72,-480.394 1054.08,-477.664 1058,-476.866 1058,-476.866 1058,-476.866 1054.08,-477.664 1057.28,-473.338 1050.16,-478.463 1050.16,-478.463"/>
<ellipse fill="none" stroke="black" cx="1047.03" cy="-479.102" rx="3.2" ry="3.2"/>
</g>
<!-- observation_plot_conditions -->
<g id="node9" class="node"><title>observation_plot_conditions</title>
<g id="a_node9"><a xlink:href="../../tables/observation_plot_conditions.html" xlink:title="observation_plot_conditions" target="_top">
<polygon fill="#ffffff" stroke="none" points="1264,-368.866 1264,-426.866 1473,-426.866 1473,-368.866 1264,-368.866"/>
<polygon fill="#f5f5f5" stroke="none" points="1264.5,-404.866 1264.5,-426.866 1473.5,-426.866 1473.5,-404.866 1264.5,-404.866"/>
<polygon fill="none" stroke="black" points="1264.5,-404.866 1264.5,-426.866 1473.5,-426.866 1473.5,-404.866 1264.5,-404.866"/>
<text text-anchor="start" x="1269.5" y="-414.066" font-family="Helvetica,sans-Serif" font-weight="bold" font-size="11.00">observation_plot_conditions</text>
<text text-anchor="start" x="1434.5" y="-413.066" font-family="Helvetica,sans-Serif" font-size="11.00">[table]</text>
<polygon fill="none" stroke="black" points="1264.5,-386.866 1264.5,-404.866 1473.5,-404.866 1473.5,-386.866 1264.5,-386.866"/>
<text text-anchor="start" x="1267.5" y="-393.066" font-family="Helvetica,sans-Serif" font-size="11.00">...</text>
<polygon fill="#ffffff" stroke="none" points="1264.5,-368.866 1264.5,-386.866 1352.5,-386.866 1352.5,-368.866 1264.5,-368.866"/>
<polygon fill="none" stroke="black" points="1264.5,-368.866 1264.5,-386.866 1352.5,-386.866 1352.5,-368.866 1264.5,-368.866"/>
<text text-anchor="start" x="1267.5" y="-375.066" font-family="Helvetica,sans-Serif" font-size="11.00">&lt; 3</text>
<polygon fill="#ffffff" stroke="none" points="1352.5,-368.866 1352.5,-386.866 1427.5,-386.866 1427.5,-368.866 1352.5,-368.866"/>
<polygon fill="none" stroke="black" points="1352.5,-368.866 1352.5,-386.866 1427.5,-386.866 1427.5,-368.866 1352.5,-368.866"/>
<text text-anchor="start" x="1388.5" y="-375.066" font-family="Helvetica,sans-Serif" font-size="11.00">0 rows</text>
<polygon fill="#ffffff" stroke="none" points="1427.5,-368.866 1427.5,-386.866 1473.5,-386.866 1473.5,-368.866 1427.5,-368.866"/>
<polygon fill="none" stroke="black" points="1427.5,-368.866 1427.5,-386.866 1473.5,-386.866 1473.5,-368.866 1427.5,-368.866"/>
<text text-anchor="start" x="1463.5" y="-375.066" font-family="Helvetica,sans-Serif" font-size="11.00"> &#160;</text>
</a>
</g>
</g>
<!-- observation_plot_conditions&#45;&gt;monitoring_plots -->
<g id="edge12" class="edge"><title>observation_plot_conditions:elipses:w&#45;&gt;monitoring_plots:id:e</title>
<path fill="none" stroke="black" d="M1249.26,-393.141C1204.18,-372.293 1280.57,-238.866 1213,-238.866"/>
<polygon fill="black" stroke="black" points="1255.64,-394.362 1262.82,-399.402 1259.57,-395.114 1263.5,-395.866 1263.5,-395.866 1263.5,-395.866 1259.57,-395.114 1264.18,-392.33 1255.64,-394.362 1255.64,-394.362"/>
<ellipse fill="none" stroke="black" cx="1252.5" cy="-393.761" rx="3.2" ry="3.2"/>
</g>
<!-- observation_plot_conditions&#45;&gt;observations -->
<g id="edge13" class="edge"><title>observation_plot_conditions:elipses:w&#45;&gt;observations:elipses:e</title>
<path fill="none" stroke="black" d="M1249.13,-398.561C1216.09,-412.616 1227.48,-476.866 1182,-476.866"/>
<polygon fill="black" stroke="black" points="1255.64,-397.341 1264.16,-399.404 1259.57,-396.603 1263.5,-395.866 1263.5,-395.866 1263.5,-395.866 1259.57,-396.603 1262.84,-392.328 1255.64,-397.341 1255.64,-397.341"/>
<ellipse fill="none" stroke="black" cx="1252.49" cy="-397.93" rx="3.2" ry="3.2"/>
</g>
<!-- observed_plot_species_totals -->
<g id="node10" class="node"><title>observed_plot_species_totals</title>
<g id="a_node10"><a xlink:href="../../tables/observed_plot_species_totals.html" xlink:title="observed_plot_species_totals" target="_top">
<polygon fill="#ffffff" stroke="none" points="1262.5,-289.866 1262.5,-347.866 1474.5,-347.866 1474.5,-289.866 1262.5,-289.866"/>
<polygon fill="#f5f5f5" stroke="none" points="1262.5,-325.866 1262.5,-347.866 1474.5,-347.866 1474.5,-325.866 1262.5,-325.866"/>
<polygon fill="none" stroke="black" points="1262.5,-325.866 1262.5,-347.866 1474.5,-347.866 1474.5,-325.866 1262.5,-325.866"/>
<text text-anchor="start" x="1267.5" y="-335.066" font-family="Helvetica,sans-Serif" font-weight="bold" font-size="11.00">observed_plot_species_totals</text>
<text text-anchor="start" x="1435.5" y="-334.066" font-family="Helvetica,sans-Serif" font-size="11.00">[table]</text>
<polygon fill="none" stroke="black" points="1262.5,-307.866 1262.5,-325.866 1474.5,-325.866 1474.5,-307.866 1262.5,-307.866"/>
<text text-anchor="start" x="1265.5" y="-314.066" font-family="Helvetica,sans-Serif" font-size="11.00">...</text>
<polygon fill="#ffffff" stroke="none" points="1262.5,-289.866 1262.5,-307.866 1352.5,-307.866 1352.5,-289.866 1262.5,-289.866"/>
<polygon fill="none" stroke="black" points="1262.5,-289.866 1262.5,-307.866 1352.5,-307.866 1352.5,-289.866 1262.5,-289.866"/>
<text text-anchor="start" x="1265.5" y="-296.066" font-family="Helvetica,sans-Serif" font-size="11.00">&lt; 4</text>
<polygon fill="#ffffff" stroke="none" points="1352.5,-289.866 1352.5,-307.866 1427.5,-307.866 1427.5,-289.866 1352.5,-289.866"/>
<polygon fill="none" stroke="black" points="1352.5,-289.866 1352.5,-307.866 1427.5,-307.866 1427.5,-289.866 1352.5,-289.866"/>
<text text-anchor="start" x="1388.5" y="-296.066" font-family="Helvetica,sans-Serif" font-size="11.00">0 rows</text>
<polygon fill="#ffffff" stroke="none" points="1427.5,-289.866 1427.5,-307.866 1474.5,-307.866 1474.5,-289.866 1427.5,-289.866"/>
<polygon fill="none" stroke="black" points="1427.5,-289.866 1427.5,-307.866 1474.5,-307.866 1474.5,-289.866 1427.5,-289.866"/>
<text text-anchor="start" x="1464.5" y="-296.066" font-family="Helvetica,sans-Serif" font-size="11.00"> &#160;</text>
</a>
</g>
</g>
<!-- observed_plot_species_totals&#45;&gt;monitoring_plots -->
<g id="edge21" class="edge"><title>observed_plot_species_totals:elipses:w&#45;&gt;monitoring_plots:id:e</title>
<path fill="none" stroke="black" d="M1247.73,-312.22C1228.89,-295.428 1247.76,-238.866 1213,-238.866"/>
<polygon fill="black" stroke="black" points="1253.92,-314.309 1260.35,-320.277 1257.71,-315.588 1261.5,-316.866 1261.5,-316.866 1261.5,-316.866 1257.71,-315.588 1262.65,-313.455 1253.92,-314.309 1253.92,-314.309"/>
<ellipse fill="none" stroke="black" cx="1250.89" cy="-313.286" rx="3.20001" ry="3.20001"/>
</g>
<!-- observed_plot_species_totals&#45;&gt;observations -->
<g id="edge22" class="edge"><title>observed_plot_species_totals:elipses:w&#45;&gt;observations:elipses:e</title>
<path fill="none" stroke="black" d="M1246.99,-319.128C1192.46,-338.575 1255.82,-476.866 1182,-476.866"/>
<polygon fill="black" stroke="black" points="1253.6,-318.099 1262.05,-320.423 1257.55,-317.482 1261.5,-316.866 1261.5,-316.866 1261.5,-316.866 1257.55,-317.482 1260.95,-313.309 1253.6,-318.099 1253.6,-318.099"/>
<ellipse fill="none" stroke="black" cx="1250.43" cy="-318.592" rx="3.2" ry="3.2"/>
</g>
<!-- public.species -->
<g id="node11" class="node"><title>public.species</title>
<g id="a_node11"><a xlink:href="../../../public/tables/species.html" xlink:title="public.species" target="_top">
<polygon fill="#ffffff" stroke="none" points="769,-201.866 769,-259.866 898,-259.866 898,-201.866 769,-201.866"/>
<polygon fill="#f5f5f5" stroke="none" points="769.5,-237.866 769.5,-259.866 898.5,-259.866 898.5,-237.866 769.5,-237.866"/>
<polygon fill="none" stroke="black" points="769.5,-237.866 769.5,-259.866 898.5,-259.866 898.5,-237.866 769.5,-237.866"/>
<text text-anchor="start" x="774.5" y="-247.066" font-family="Helvetica,sans-Serif" font-weight="bold" font-size="11.00">public.species</text>
<text text-anchor="start" x="859.5" y="-246.066" font-family="Helvetica,sans-Serif" font-size="11.00">[table]</text>
<polygon fill="none" stroke="black" points="769.5,-219.866 769.5,-237.866 898.5,-237.866 898.5,-219.866 769.5,-219.866"/>
<text text-anchor="start" x="772.5" y="-226.066" font-family="Helvetica,sans-Serif" font-size="11.00">...</text>
<polygon fill="#ffffff" stroke="none" points="769.5,-201.866 769.5,-219.866 807.5,-219.866 807.5,-201.866 769.5,-201.866"/>
<polygon fill="none" stroke="black" points="769.5,-201.866 769.5,-219.866 807.5,-219.866 807.5,-201.866 769.5,-201.866"/>
<text text-anchor="start" x="772.5" y="-208.066" font-family="Helvetica,sans-Serif" font-size="11.00"> &#160;</text>
<polygon fill="#ffffff" stroke="none" points="807.5,-201.866 807.5,-219.866 862.5,-219.866 862.5,-201.866 807.5,-201.866"/>
<polygon fill="none" stroke="black" points="807.5,-201.866 807.5,-219.866 862.5,-219.866 862.5,-201.866 807.5,-201.866"/>
<text text-anchor="start" x="823.5" y="-208.066" font-family="Helvetica,sans-Serif" font-size="11.00">0 rows</text>
<polygon fill="#ffffff" stroke="none" points="862.5,-201.866 862.5,-219.866 898.5,-219.866 898.5,-201.866 862.5,-201.866"/>
<polygon fill="none" stroke="black" points="862.5,-201.866 862.5,-219.866 898.5,-219.866 898.5,-201.866 862.5,-201.866"/>
<text text-anchor="start" x="878.5" y="-208.066" font-family="Helvetica,sans-Serif" font-size="11.00">5 &gt;</text>
</a>
</g>
</g>
<!-- observed_plot_species_totals&#45;&gt;public.species -->
<g id="edge23" class="edge"><title>observed_plot_species_totals:elipses:w&#45;&gt;public.species:elipses:e</title>
<path fill="none" stroke="black" d="M1246.85,-317.063C1150.6,-319.666 1114.01,-346.477 1020,-305.866 1001.25,-297.764 1003.6,-285.778 987,-273.866 951.473,-248.368 943.23,-228.866 899.5,-228.866"/>
<polygon fill="black" stroke="black" points="1253.5,-316.974 1261.55,-320.466 1257.5,-316.92 1261.5,-316.866 1261.5,-316.866 1261.5,-316.866 1257.5,-316.92 1261.45,-313.266 1253.5,-316.974 1253.5,-316.974"/>
<ellipse fill="none" stroke="black" cx="1250.3" cy="-317.017" rx="3.2" ry="3.2"/>
</g>
<!-- observed_site_species_totals -->
<g id="node12" class="node"><title>observed_site_species_totals</title>
<g id="a_node12"><a xlink:href="../../tables/observed_site_species_totals.html" xlink:title="observed_site_species_totals" target="_top">
<polygon fill="#ffffff" stroke="none" points="1263.5,-580.866 1263.5,-638.866 1473.5,-638.866 1473.5,-580.866 1263.5,-580.866"/>
<polygon fill="#f5f5f5" stroke="none" points="1263.5,-616.866 1263.5,-638.866 1473.5,-638.866 1473.5,-616.866 1263.5,-616.866"/>
<polygon fill="none" stroke="black" points="1263.5,-616.866 1263.5,-638.866 1473.5,-638.866 1473.5,-616.866 1263.5,-616.866"/>
<text text-anchor="start" x="1268.5" y="-626.066" font-family="Helvetica,sans-Serif" font-weight="bold" font-size="11.00">observed_site_species_totals</text>
<text text-anchor="start" x="1434.5" y="-625.066" font-family="Helvetica,sans-Serif" font-size="11.00">[table]</text>
<polygon fill="none" stroke="black" points="1263.5,-598.866 1263.5,-616.866 1473.5,-616.866 1473.5,-598.866 1263.5,-598.866"/>
<text text-anchor="start" x="1266.5" y="-605.066" font-family="Helvetica,sans-Serif" font-size="11.00">...</text>
<polygon fill="#ffffff" stroke="none" points="1263.5,-580.866 1263.5,-598.866 1352.5,-598.866 1352.5,-580.866 1263.5,-580.866"/>
<polygon fill="none" stroke="black" points="1263.5,-580.866 1263.5,-598.866 1352.5,-598.866 1352.5,-580.866 1263.5,-580.866"/>
<text text-anchor="start" x="1266.5" y="-587.066" font-family="Helvetica,sans-Serif" font-size="11.00">&lt; 4</text>
<polygon fill="#ffffff" stroke="none" points="1352.5,-580.866 1352.5,-598.866 1427.5,-598.866 1427.5,-580.866 1352.5,-580.866"/>
<polygon fill="none" stroke="black" points="1352.5,-580.866 1352.5,-598.866 1427.5,-598.866 1427.5,-580.866 1352.5,-580.866"/>
<text text-anchor="start" x="1388.5" y="-587.066" font-family="Helvetica,sans-Serif" font-size="11.00">0 rows</text>
<polygon fill="#ffffff" stroke="none" points="1427.5,-580.866 1427.5,-598.866 1473.5,-598.866 1473.5,-580.866 1427.5,-580.866"/>
<polygon fill="none" stroke="black" points="1427.5,-580.866 1427.5,-598.866 1473.5,-598.866 1473.5,-580.866 1427.5,-580.866"/>
<text text-anchor="start" x="1463.5" y="-587.066" font-family="Helvetica,sans-Serif" font-size="11.00"> &#160;</text>
</a>
</g>
</g>
<!-- observed_site_species_totals&#45;&gt;planting_sites -->
<g id="edge25" class="edge"><title>observed_site_species_totals:elipses:w&#45;&gt;planting_sites:id:e</title>
<path fill="none" stroke="black" d="M1247.95,-609.686C1194.77,-625.411 1279.25,-738.888 1220,-785.866 1207.69,-795.627 739.994,-797.198 680,-786.866 619.115,-776.381 479.781,-693.866 418,-693.866"/>
<polygon fill="black" stroke="black" points="1254.56,-608.859 1262.95,-611.438 1258.53,-608.362 1262.5,-607.866 1262.5,-607.866 1262.5,-607.866 1258.53,-608.362 1262.05,-604.294 1254.56,-608.859 1254.56,-608.859"/>
<ellipse fill="none" stroke="black" cx="1251.39" cy="-609.256" rx="3.2" ry="3.2"/>
</g>
<!-- observed_site_species_totals&#45;&gt;observations -->
<g id="edge24" class="edge"><title>observed_site_species_totals:elipses:w&#45;&gt;observations:elipses:e</title>
<path fill="none" stroke="black" d="M1248.06,-605.366C1202.54,-587.255 1244.73,-476.866 1182,-476.866"/>
<polygon fill="black" stroke="black" points="1254.62,-606.501 1261.89,-611.413 1258.56,-607.184 1262.5,-607.866 1262.5,-607.866 1262.5,-607.866 1258.56,-607.184 1263.11,-604.319 1254.62,-606.501 1254.62,-606.501"/>
<ellipse fill="none" stroke="black" cx="1251.46" cy="-605.956" rx="3.2" ry="3.2"/>
</g>
<!-- observed_site_species_totals&#45;&gt;public.species -->
<g id="edge26" class="edge"><title>observed_site_species_totals:elipses:w&#45;&gt;public.species:elipses:e</title>
<path fill="none" stroke="black" d="M1248.5,-603.471C1235.8,-592.67 1241.29,-564.774 1220,-551.866 1142.9,-505.123 1083.2,-582.176 1020,-517.866 951.625,-448.285 1035.18,-385.689 987,-300.866 962.125,-257.076 949.862,-228.866 899.5,-228.866"/>
<polygon fill="black" stroke="black" points="1254.87,-605.47 1261.42,-611.301 1258.68,-606.668 1262.5,-607.866 1262.5,-607.866 1262.5,-607.866 1258.68,-606.668 1263.58,-604.431 1254.87,-605.47 1254.87,-605.47"/>
<ellipse fill="none" stroke="black" cx="1251.81" cy="-604.512" rx="3.20001" ry="3.20001"/>
</g>
<!-- observed_zone_species_totals -->
<g id="node13" class="node"><title>observed_zone_species_totals</title>
<g id="a_node13"><a xlink:href="../../tables/observed_zone_species_totals.html" xlink:title="observed_zone_species_totals" target="_top">
<polygon fill="#ffffff" stroke="none" points="1261,-447.866 1261,-505.866 1476,-505.866 1476,-447.866 1261,-447.866"/>
<polygon fill="#f5f5f5" stroke="none" points="1261.5,-483.866 1261.5,-505.866 1476.5,-505.866 1476.5,-483.866 1261.5,-483.866"/>
<polygon fill="none" stroke="black" points="1261.5,-483.866 1261.5,-505.866 1476.5,-505.866 1476.5,-483.866 1261.5,-483.866"/>
<text text-anchor="start" x="1266.5" y="-493.066" font-family="Helvetica,sans-Serif" font-weight="bold" font-size="11.00">observed_zone_species_totals</text>
<text text-anchor="start" x="1437.5" y="-492.066" font-family="Helvetica,sans-Serif" font-size="11.00">[table]</text>
<polygon fill="none" stroke="black" points="1261.5,-465.866 1261.5,-483.866 1476.5,-483.866 1476.5,-465.866 1261.5,-465.866"/>
<text text-anchor="start" x="1264.5" y="-472.066" font-family="Helvetica,sans-Serif" font-size="11.00">...</text>
<polygon fill="#ffffff" stroke="none" points="1261.5,-447.866 1261.5,-465.866 1352.5,-465.866 1352.5,-447.866 1261.5,-447.866"/>
<polygon fill="none" stroke="black" points="1261.5,-447.866 1261.5,-465.866 1352.5,-465.866 1352.5,-447.866 1261.5,-447.866"/>
<text text-anchor="start" x="1264.5" y="-454.066" font-family="Helvetica,sans-Serif" font-size="11.00">&lt; 4</text>
<polygon fill="#ffffff" stroke="none" points="1352.5,-447.866 1352.5,-465.866 1428.5,-465.866 1428.5,-447.866 1352.5,-447.866"/>
<polygon fill="none" stroke="black" points="1352.5,-447.866 1352.5,-465.866 1428.5,-465.866 1428.5,-447.866 1352.5,-447.866"/>
<text text-anchor="start" x="1389.5" y="-454.066" font-family="Helvetica,sans-Serif" font-size="11.00">0 rows</text>
<polygon fill="#ffffff" stroke="none" points="1428.5,-447.866 1428.5,-465.866 1476.5,-465.866 1476.5,-447.866 1428.5,-447.866"/>
<polygon fill="none" stroke="black" points="1428.5,-447.866 1428.5,-465.866 1476.5,-465.866 1476.5,-447.866 1428.5,-447.866"/>
<text text-anchor="start" x="1466.5" y="-454.066" font-family="Helvetica,sans-Serif" font-size="11.00"> &#160;</text>
</a>
</g>
</g>
<!-- observed_zone_species_totals&#45;&gt;observations -->
<g id="edge27" class="edge"><title>observed_zone_species_totals:elipses:w&#45;&gt;observations:elipses:e</title>
<path fill="none" stroke="black" d="M1245.86,-474.997C1222.24,-475.442 1211.45,-476.866 1182,-476.866"/>
<polygon fill="black" stroke="black" points="1252.5,-474.938 1260.53,-478.466 1256.5,-474.902 1260.5,-474.866 1260.5,-474.866 1260.5,-474.866 1256.5,-474.902 1260.47,-471.266 1252.5,-474.938 1252.5,-474.938"/>
<ellipse fill="none" stroke="black" cx="1249.3" cy="-474.966" rx="3.2" ry="3.2"/>
</g>
<!-- observed_zone_species_totals&#45;&gt;public.species -->
<g id="edge29" class="edge"><title>observed_zone_species_totals:elipses:w&#45;&gt;public.species:elipses:e</title>
<path fill="none" stroke="black" d="M1246.34,-471.969C1219.71,-457.889 1254.55,-396.101 1220,-366.866 1150.87,-308.364 1094.36,-379.555 1020,-327.866 996.904,-311.813 1007.61,-293.01 987,-273.866 954.962,-244.102 943.23,-228.866 899.5,-228.866"/>
<polygon fill="black" stroke="black" points="1252.66,-473.262 1259.78,-478.393 1256.58,-474.064 1260.5,-474.866 1260.5,-474.866 1260.5,-474.866 1256.58,-474.064 1261.22,-471.339 1252.66,-473.262 1252.66,-473.262"/>
<ellipse fill="none" stroke="black" cx="1249.53" cy="-472.621" rx="3.2" ry="3.2"/>
</g>
<!-- observed_zone_species_totals&#45;&gt;planting_zones -->
<g id="edge28" class="edge"><title>observed_zone_species_totals:elipses:w&#45;&gt;planting_zones:id:e</title>
<path fill="none" stroke="black" d="M1246.58,-470.802C1236.87,-463.559 1235.18,-448.296 1220,-438.866 1138.53,-388.272 1099.55,-411.427 1020,-357.866 1002.53,-346.105 1006.39,-332.07 987,-323.866 861.335,-270.712 796.25,-252.43 680,-323.866 646.893,-344.211 679.358,-401.866 640.5,-401.866"/>
<polygon fill="black" stroke="black" points="1252.82,-472.624 1259.49,-478.322 1256.66,-473.745 1260.5,-474.866 1260.5,-474.866 1260.5,-474.866 1256.66,-473.745 1261.51,-471.41 1252.82,-472.624 1252.82,-472.624"/>
<ellipse fill="none" stroke="black" cx="1249.75" cy="-471.727" rx="3.20001" ry="3.20001"/>
</g>
<!-- planting_zones&#45;&gt;public.users -->
<g id="edge39" class="edge"><title>planting_zones:created_by:w&#45;&gt;public.users:id:e</title>
<path fill="none" stroke="black" d="M450.849,-335.839C346.359,-335.453 228.752,-331.095 157.279,-327.989"/>
<polygon fill="black" stroke="black" points="457.5,-335.851 465.493,-339.466 461.5,-335.859 465.5,-335.866 465.5,-335.866 465.5,-335.866 461.5,-335.859 465.507,-332.266 457.5,-335.851 457.5,-335.851"/>
<ellipse fill="none" stroke="black" cx="454.3" cy="-335.845" rx="3.2" ry="3.2"/>
</g>
<!-- planting_zones&#45;&gt;public.users -->
<g id="edge40" class="edge"><title>planting_zones:modified_by:w&#45;&gt;public.users:id:e</title>
<path fill="none" stroke="black" d="M450.849,-313.893C346.359,-314.279 228.752,-318.637 157.279,-321.743"/>
<polygon fill="black" stroke="black" points="457.5,-313.881 465.507,-317.466 461.5,-313.874 465.5,-313.866 465.5,-313.866 465.5,-313.866 461.5,-313.874 465.493,-310.266 457.5,-313.881 457.5,-313.881"/>
<ellipse fill="none" stroke="black" cx="454.3" cy="-313.887" rx="3.2" ry="3.2"/>
</g>
<!-- planting_zones&#45;&gt;planting_sites -->
<g id="edge41" class="edge"><title>planting_zones:planting_site_id:w&#45;&gt;planting_sites:id:e</title>
<path fill="none" stroke="black" d="M451.81,-385.316C408.558,-427.012 483.058,-693.866 418,-693.866"/>
<polygon fill="black" stroke="black" points="458.067,-382.825 466.832,-383.211 461.784,-381.346 465.5,-379.866 465.5,-379.866 465.5,-379.866 461.784,-381.346 464.168,-376.521 458.067,-382.825 458.067,-382.825"/>
<ellipse fill="none" stroke="black" cx="455.094" cy="-384.009" rx="3.20001" ry="3.20001"/>
</g>
<!-- plantings -->
<g id="node17" class="node"><title>plantings</title>
<g id="a_node17"><a xlink:href="../../tables/plantings.html" xlink:title="plantings" target="_top">
<polygon fill="#ffffff" stroke="none" points="1049.5,-562.866 1049.5,-774.866 1190.5,-774.866 1190.5,-562.866 1049.5,-562.866"/>
<polygon fill="#f5f5f5" stroke="none" points="1050,-752.866 1050,-774.866 1191,-774.866 1191,-752.866 1050,-752.866"/>
<polygon fill="none" stroke="black" points="1050,-752.866 1050,-774.866 1191,-774.866 1191,-752.866 1050,-752.866"/>
<text text-anchor="start" x="1055" y="-762.066" font-family="Helvetica,sans-Serif" font-weight="bold" font-size="11.00">plantings</text>
<text text-anchor="start" x="1152" y="-761.066" font-family="Helvetica,sans-Serif" font-size="11.00">[table]</text>
<polygon fill="none" stroke="black" points="1050,-730.866 1050,-752.866 1191,-752.866 1191,-730.866 1050,-730.866"/>
<image xlink:href="../../images/primaryKeys.png" width="11px" height="12px" preserveAspectRatio="xMinYMin meet" x="1055" y="-747.866"/>
<text text-anchor="start" x="1070" y="-739.066" font-family="Helvetica,sans-Serif" font-size="11.00">id</text>
<polygon fill="#ffffff" stroke="none" points="1050,-708.866 1050,-730.866 1191,-730.866 1191,-708.866 1050,-708.866"/>
<polygon fill="none" stroke="black" points="1050,-708.866 1050,-730.866 1191,-730.866 1191,-708.866 1050,-708.866"/>
<image xlink:href="../../images/foreignKeys.png" width="11px" height="12px" preserveAspectRatio="xMinYMin meet" x="1055" y="-725.866"/>
<text text-anchor="start" x="1070" y="-717.066" font-family="Helvetica,sans-Serif" font-size="11.00">delivery_id</text>
<polygon fill="#ffffff" stroke="none" points="1050,-686.866 1050,-708.866 1191,-708.866 1191,-686.866 1050,-686.866"/>
<polygon fill="none" stroke="black" points="1050,-686.866 1050,-708.866 1191,-708.866 1191,-686.866 1050,-686.866"/>
<image xlink:href="../../images/foreignKeys.png" width="11px" height="12px" preserveAspectRatio="xMinYMin meet" x="1055" y="-703.866"/>
<text text-anchor="start" x="1070" y="-695.066" font-family="Helvetica,sans-Serif" font-size="11.00">planting_type_id</text>
<polygon fill="none" stroke="black" points="1050,-664.866 1050,-686.866 1191,-686.866 1191,-664.866 1050,-664.866"/>
<image xlink:href="../../images/foreignKeys.png" width="11px" height="12px" preserveAspectRatio="xMinYMin meet" x="1055" y="-681.866"/>
<text text-anchor="start" x="1070" y="-673.066" font-family="Helvetica,sans-Serif" font-size="11.00">planting_site_id</text>
<polygon fill="#ffffff" stroke="none" points="1050,-642.866 1050,-664.866 1191,-664.866 1191,-642.866 1050,-642.866"/>
<polygon fill="none" stroke="black" points="1050,-642.866 1050,-664.866 1191,-664.866 1191,-642.866 1050,-642.866"/>
<image xlink:href="../../images/foreignKeys.png" width="11px" height="12px" preserveAspectRatio="xMinYMin meet" x="1055" y="-659.866"/>
<text text-anchor="start" x="1070" y="-651.066" font-family="Helvetica,sans-Serif" font-size="11.00">planting_subzone_id</text>
<polygon fill="#ffffff" stroke="none" points="1050,-620.866 1050,-642.866 1191,-642.866 1191,-620.866 1050,-620.866"/>
<polygon fill="none" stroke="black" points="1050,-620.866 1050,-642.866 1191,-642.866 1191,-620.866 1050,-620.866"/>
<image xlink:href="../../images/foreignKeys.png" width="11px" height="12px" preserveAspectRatio="xMinYMin meet" x="1055" y="-637.866"/>
<text text-anchor="start" x="1070" y="-629.066" font-family="Helvetica,sans-Serif" font-size="11.00">species_id</text>
<polygon fill="none" stroke="black" points="1050,-598.866 1050,-620.866 1191,-620.866 1191,-598.866 1050,-598.866"/>
<image xlink:href="../../images/foreignKeys.png" width="11px" height="12px" preserveAspectRatio="xMinYMin meet" x="1055" y="-615.866"/>
<text text-anchor="start" x="1070" y="-607.066" font-family="Helvetica,sans-Serif" font-size="11.00">created_by</text>
<polygon fill="none" stroke="black" points="1050,-580.866 1050,-598.866 1191,-598.866 1191,-580.866 1050,-580.866"/>
<text text-anchor="start" x="1053" y="-587.066" font-family="Helvetica,sans-Serif" font-size="11.00">...</text>
<polygon fill="#ffffff" stroke="none" points="1050,-562.866 1050,-580.866 1104,-580.866 1104,-562.866 1050,-562.866"/>
<polygon fill="none" stroke="black" points="1050,-562.866 1050,-580.866 1104,-580.866 1104,-562.866 1050,-562.866"/>
<text text-anchor="start" x="1053" y="-569.066" font-family="Helvetica,sans-Serif" font-size="11.00">&lt; 8</text>
<polygon fill="#ffffff" stroke="none" points="1104,-562.866 1104,-580.866 1162,-580.866 1162,-562.866 1104,-562.866"/>
<polygon fill="none" stroke="black" points="1104,-562.866 1104,-580.866 1162,-580.866 1162,-562.866 1104,-562.866"/>
<text text-anchor="start" x="1123" y="-569.066" font-family="Helvetica,sans-Serif" font-size="11.00">0 rows</text>
<polygon fill="#ffffff" stroke="none" points="1162,-562.866 1162,-580.866 1191,-580.866 1191,-562.866 1162,-562.866"/>
<polygon fill="none" stroke="black" points="1162,-562.866 1162,-580.866 1191,-580.866 1191,-562.866 1162,-562.866"/>
<text text-anchor="start" x="1181" y="-569.066" font-family="Helvetica,sans-Serif" font-size="11.00"> &#160;</text>
</a>
</g>
</g>
<!-- plantings&#45;&gt;deliveries -->
<g id="edge43" class="edge"><title>plantings:delivery_id:w&#45;&gt;deliveries:elipses:e</title>
<path fill="none" stroke="black" d="M1034.61,-722.139C1010.34,-731.084 1013.71,-764.462 987,-786.866 946.712,-820.653 940.08,-850.866 887.5,-850.866"/>
<polygon fill="black" stroke="black" points="1041.1,-721.114 1049.56,-723.422 1045.05,-720.49 1049,-719.866 1049,-719.866 1049,-719.866 1045.05,-720.49 1048.44,-716.31 1041.1,-721.114 1041.1,-721.114"/>
<ellipse fill="none" stroke="black" cx="1037.94" cy="-721.614" rx="3.2" ry="3.2"/>
</g>
<!-- plantings&#45;&gt;deliveries -->
<g id="edge44" class="edge"><title>plantings:planting_site_id:w&#45;&gt;deliveries:elipses:e</title>
<path fill="none" stroke="black" d="M1034.39,-677.923C998.495,-689.753 1021.77,-749.868 987,-786.866 950.994,-825.184 940.08,-850.866 887.5,-850.866"/>
<polygon fill="black" stroke="black" points="1041.08,-676.982 1049.5,-679.431 1045.04,-676.424 1049,-675.866 1049,-675.866 1049,-675.866 1045.04,-676.424 1048.5,-672.301 1041.08,-676.982 1041.08,-676.982"/>
<ellipse fill="none" stroke="black" cx="1037.91" cy="-677.428" rx="3.2" ry="3.2"/>
</g>
<!-- plantings&#45;&gt;public.users -->
<g id="edge42" class="edge"><title>plantings:created_by:w&#45;&gt;public.users:id:e</title>
<path fill="none" stroke="black" d="M1034.42,-608.913C931.546,-594.214 1074.05,-413.197 987,-323.866 890.314,-224.644 812.846,-309.172 680,-269.866 664.723,-265.346 662.612,-259.041 647,-255.866 564.685,-239.127 541.638,-248.072 458,-255.866 351.651,-265.777 230.187,-291.508 157.109,-308.593"/>
<polygon fill="black" stroke="black" points="1041.02,-609.344 1048.77,-613.458 1045.01,-609.605 1049,-609.866 1049,-609.866 1049,-609.866 1045.01,-609.605 1049.23,-606.274 1041.02,-609.344 1041.02,-609.344"/>
<ellipse fill="none" stroke="black" cx="1037.82" cy="-609.136" rx="3.2" ry="3.2"/>
</g>
<!-- plantings&#45;&gt;planting_sites -->
<g id="edge45" class="edge"><title>plantings:planting_site_id:w&#45;&gt;planting_sites:id:e</title>
<path fill="none" stroke="black" d="M1034.52,-676.011C928.274,-677.714 484.441,-693.866 418,-693.866"/>
<polygon fill="black" stroke="black" points="1041,-675.946 1049.04,-679.466 1045,-675.906 1049,-675.866 1049,-675.866 1049,-675.866 1045,-675.906 1048.96,-672.266 1041,-675.946 1041,-675.946"/>
<ellipse fill="none" stroke="black" cx="1037.8" cy="-675.978" rx="3.2" ry="3.2"/>
</g>
<!-- plantings&#45;&gt;planting_subzones -->
<g id="edge46" class="edge"><title>plantings:planting_site_id:w&#45;&gt;planting_subzones:planting_site_id.type:e</title>
<path fill="none" stroke="black" d="M1035.59,-670.31C995.918,-632.112 1034.4,-409.866 978.5,-409.866"/>
<polygon fill="black" stroke="black" points="1041.61,-672.803 1047.62,-679.192 1045.3,-674.335 1049,-675.866 1049,-675.866 1049,-675.866 1045.3,-674.335 1050.38,-672.54 1041.61,-672.803 1041.61,-672.803"/>
<ellipse fill="none" stroke="black" cx="1038.65" cy="-671.578" rx="3.20001" ry="3.20001"/>
</g>
<!-- plantings&#45;&gt;planting_subzones -->
<g id="edge47" class="edge"><title>plantings:planting_subzone_id:w&#45;&gt;planting_subzones:id.type:e</title>
<path fill="none" stroke="black" d="M1034.83,-651.126C1011.95,-641.223 1010.36,-607.866 978.5,-607.866"/>
<polygon fill="black" stroke="black" points="1041.15,-652.348 1048.32,-657.401 1045.07,-653.107 1049,-653.866 1049,-653.866 1049,-653.866 1045.07,-653.107 1049.68,-650.331 1041.15,-652.348 1041.15,-652.348"/>
<ellipse fill="none" stroke="black" cx="1038" cy="-651.741" rx="3.2" ry="3.2"/>
</g>
<!-- plantings&#45;&gt;public.species -->
<g id="edge49" class="edge"><title>plantings:species_id:w&#45;&gt;public.species:elipses:e</title>
<path fill="none" stroke="black" d="M1034.62,-628.842C1014.52,-617.975 1027.75,-579.802 1020,-546.866 994.736,-439.485 1040.64,-397.258 987,-300.866 962.511,-256.859 949.862,-228.866 899.5,-228.866"/>
<polygon fill="black" stroke="black" points="1041.17,-630.22 1048.26,-635.389 1045.09,-631.043 1049,-631.866 1049,-631.866 1049,-631.866 1045.09,-631.043 1049.74,-628.343 1041.17,-630.22 1041.17,-630.22"/>
<ellipse fill="none" stroke="black" cx="1038.04" cy="-629.562" rx="3.2" ry="3.2"/>
</g>
<!-- planting_types -->
<g id="node18" class="node"><title>planting_types</title>
<g id="a_node18"><a xlink:href="../../tables/planting_types.html" xlink:title="planting_types" target="_top">
<polygon fill="#ffffff" stroke="none" points="767,-717.866 767,-775.866 900,-775.866 900,-717.866 767,-717.866"/>
<polygon fill="#f5f5f5" stroke="none" points="767.5,-753.866 767.5,-775.866 900.5,-775.866 900.5,-753.866 767.5,-753.866"/>
<polygon fill="none" stroke="black" points="767.5,-753.866 767.5,-775.866 900.5,-775.866 900.5,-753.866 767.5,-753.866"/>
<text text-anchor="start" x="772.5" y="-763.066" font-family="Helvetica,sans-Serif" font-weight="bold" font-size="11.00">planting_types</text>
<text text-anchor="start" x="861.5" y="-762.066" font-family="Helvetica,sans-Serif" font-size="11.00">[table]</text>
<polygon fill="none" stroke="black" points="767.5,-735.866 767.5,-753.866 900.5,-753.866 900.5,-735.866 767.5,-735.866"/>
<text text-anchor="start" x="770.5" y="-742.066" font-family="Helvetica,sans-Serif" font-size="11.00">...</text>
<polygon fill="#ffffff" stroke="none" points="767.5,-717.866 767.5,-735.866 807.5,-735.866 807.5,-717.866 767.5,-717.866"/>
<polygon fill="none" stroke="black" points="767.5,-717.866 767.5,-735.866 807.5,-735.866 807.5,-717.866 767.5,-717.866"/>
<text text-anchor="start" x="770.5" y="-724.066" font-family="Helvetica,sans-Serif" font-size="11.00"> &#160;</text>
<polygon fill="#ffffff" stroke="none" points="807.5,-717.866 807.5,-735.866 863.5,-735.866 863.5,-717.866 807.5,-717.866"/>
<polygon fill="none" stroke="black" points="807.5,-717.866 807.5,-735.866 863.5,-735.866 863.5,-717.866 807.5,-717.866"/>
<text text-anchor="start" x="824.5" y="-724.066" font-family="Helvetica,sans-Serif" font-size="11.00">3 rows</text>
<polygon fill="#ffffff" stroke="none" points="863.5,-717.866 863.5,-735.866 900.5,-735.866 900.5,-717.866 863.5,-717.866"/>
<polygon fill="none" stroke="black" points="863.5,-717.866 863.5,-735.866 900.5,-735.866 900.5,-717.866 863.5,-717.866"/>
<text text-anchor="start" x="880.5" y="-724.066" font-family="Helvetica,sans-Serif" font-size="11.00">1 &gt;</text>
</a>
</g>
</g>
<!-- plantings&#45;&gt;planting_types -->
<g id="edge48" class="edge"><title>plantings:planting_type_id:w&#45;&gt;planting_types:elipses:e</title>
<path fill="none" stroke="black" d="M1034.61,-698.604C978.404,-704.584 965.197,-744.866 901.5,-744.866"/>
<polygon fill="black" stroke="black" points="1041.01,-698.276 1049.18,-701.461 1045.01,-698.071 1049,-697.866 1049,-697.866 1049,-697.866 1045.01,-698.071 1048.82,-694.271 1041.01,-698.276 1041.01,-698.276"/>
<ellipse fill="none" stroke="black" cx="1037.81" cy="-698.44" rx="3.2" ry="3.2"/>
</g>
<!-- recorded_plants -->
<g id="node19" class="node"><title>recorded_plants</title>
<g id="a_node19"><a xlink:href="../../tables/recorded_plants.html" xlink:title="recorded_plants" target="_top">
<polygon fill="#ffffff" stroke="none" points="1534.5,-211.866 1534.5,-269.866 1675.5,-269.866 1675.5,-211.866 1534.5,-211.866"/>
<polygon fill="#f5f5f5" stroke="none" points="1535,-247.866 1535,-269.866 1676,-269.866 1676,-247.866 1535,-247.866"/>
<polygon fill="none" stroke="black" points="1535,-247.866 1535,-269.866 1676,-269.866 1676,-247.866 1535,-247.866"/>
<text text-anchor="start" x="1540" y="-257.066" font-family="Helvetica,sans-Serif" font-weight="bold" font-size="11.00">recorded_plants</text>
<text text-anchor="start" x="1637" y="-256.066" font-family="Helvetica,sans-Serif" font-size="11.00">[table]</text>
<polygon fill="none" stroke="black" points="1535,-229.866 1535,-247.866 1676,-247.866 1676,-229.866 1535,-229.866"/>
<text text-anchor="start" x="1538" y="-236.066" font-family="Helvetica,sans-Serif" font-size="11.00">...</text>
<polygon fill="#ffffff" stroke="none" points="1535,-211.866 1535,-229.866 1589,-229.866 1589,-211.866 1535,-211.866"/>
<polygon fill="none" stroke="black" points="1535,-211.866 1535,-229.866 1589,-229.866 1589,-211.866 1535,-211.866"/>
<text text-anchor="start" x="1538" y="-218.066" font-family="Helvetica,sans-Serif" font-size="11.00">&lt; 7</text>
<polygon fill="#ffffff" stroke="none" points="1589,-211.866 1589,-229.866 1647,-229.866 1647,-211.866 1589,-211.866"/>
<polygon fill="none" stroke="black" points="1589,-211.866 1589,-229.866 1647,-229.866 1647,-211.866 1589,-211.866"/>
<text text-anchor="start" x="1608" y="-218.066" font-family="Helvetica,sans-Serif" font-size="11.00">0 rows</text>
<polygon fill="#ffffff" stroke="none" points="1647,-211.866 1647,-229.866 1676,-229.866 1676,-211.866 1647,-211.866"/>
<polygon fill="none" stroke="black" points="1647,-211.866 1647,-229.866 1676,-229.866 1676,-211.866 1647,-211.866"/>
<text text-anchor="start" x="1666" y="-218.066" font-family="Helvetica,sans-Serif" font-size="11.00"> &#160;</text>
</a>
</g>
</g>
<!-- recorded_plants&#45;&gt;monitoring_plots -->
<g id="edge50" class="edge"><title>recorded_plants:elipses:w&#45;&gt;monitoring_plots:id:e</title>
<path fill="none" stroke="black" d="M1519.34,-238.866C1388.69,-238.866 1350.65,-238.866 1213,-238.866"/>
<polygon fill="black" stroke="black" points="1526,-238.866 1534,-242.466 1530,-238.866 1534,-238.866 1534,-238.866 1534,-238.866 1530,-238.866 1534,-235.266 1526,-238.866 1526,-238.866"/>
<ellipse fill="none" stroke="black" cx="1522.8" cy="-238.866" rx="3.2" ry="3.2"/>
</g>
<!-- recorded_plants&#45;&gt;observation_plots -->
<g id="edge51" class="edge"><title>recorded_plants:elipses:w&#45;&gt;observation_plots:elipses:e</title>
<path fill="none" stroke="black" d="M1519.65,-234.858C1483.04,-217.118 1492.97,-151.475 1444.5,-156.866"/>
<polygon fill="black" stroke="black" points="1526.29,-236.714 1533.03,-242.333 1530.15,-237.79 1534,-238.866 1534,-238.866 1534,-238.866 1530.15,-237.79 1534.97,-235.399 1526.29,-236.714 1526.29,-236.714"/>
<ellipse fill="none" stroke="black" cx="1523.21" cy="-235.853" rx="3.2" ry="3.2"/>
</g>
<!-- recorded_plants&#45;&gt;observation_plots -->
<g id="edge52" class="edge"><title>recorded_plants:elipses:w&#45;&gt;observation_plots:elipses:e</title>
<path fill="none" stroke="black" d="M1519.17,-238.303C1483.13,-229.403 1492.76,-163.128 1444.5,-156.866"/>
<polygon fill="black" stroke="black" points="1526.01,-238.563 1533.86,-242.463 1530,-238.714 1534,-238.866 1534,-238.866 1534,-238.866 1530,-238.714 1534.14,-235.269 1526.01,-238.563 1526.01,-238.563"/>
<ellipse fill="none" stroke="black" cx="1522.81" cy="-238.441" rx="3.2" ry="3.2"/>
</g>
<!-- recorded_plants&#45;&gt;observations -->
<g id="edge53" class="edge"><title>recorded_plants:elipses:w&#45;&gt;observations:elipses:e</title>
<path fill="none" stroke="black" d="M1520.22,-243.572C1476.55,-278.684 1531.58,-499.535 1484,-539.866 1444.84,-573.057 1300.99,-558.088 1253,-539.866 1213.56,-524.891 1224.19,-476.866 1182,-476.866"/>
<polygon fill="black" stroke="black" points="1526.43,-241.451 1535.16,-242.273 1530.21,-240.159 1534,-238.866 1534,-238.866 1534,-238.866 1530.21,-240.159 1532.84,-235.459 1526.43,-241.451 1526.43,-241.451"/>
<ellipse fill="none" stroke="black" cx="1523.4" cy="-242.485" rx="3.20001" ry="3.20001"/>
</g>
<!-- recorded_plants&#45;&gt;public.species -->
<g id="edge54" class="edge"><title>recorded_plants:elipses:w&#45;&gt;public.species:elipses:e</title>
<path fill="none" stroke="black" d="M1519.4,-239.98C1507.62,-241.968 1500.6,-246.172 1484,-248.866 1454.82,-253.601 1249.5,-280.029 1220,-281.866 1131.28,-287.389 1106.99,-300.151 1020,-281.866 962.744,-269.831 958.007,-228.866 899.5,-228.866"/>
<polygon fill="black" stroke="black" points="1526.02,-239.475 1534.27,-242.456 1530.01,-239.17 1534,-238.866 1534,-238.866 1534,-238.866 1530.01,-239.17 1533.73,-235.276 1526.02,-239.475 1526.02,-239.475"/>
<ellipse fill="none" stroke="black" cx="1522.83" cy="-239.718" rx="3.2" ry="3.2"/>
</g>
</g>
</svg>
