<?xml version="1.0" encoding="UTF-8" standalone="no"?>
<!DOCTYPE svg PUBLIC "-//W3C//DTD SVG 1.1//EN"
 "http://www.w3.org/Graphics/SVG/1.1/DTD/svg11.dtd">
<!-- Generated by graphviz version 2.38.0 (20140413.2041)
 -->
<!-- Title: twoDegreesRelationshipsDiagram Pages: 1 -->
<svg width="951pt" height="851pt"
 viewBox="0.00 0.00 951.00 850.92" xmlns="http://www.w3.org/2000/svg" xmlns:xlink="http://www.w3.org/1999/xlink">
<g id="graph0" class="graph" transform="scale(1 1) rotate(0) translate(4 846.921)">
<title>twoDegreesRelationshipsDiagram</title>
<polygon fill="#ffffff" stroke="none" points="-4,4 -4,-846.921 947,-846.921 947,4 -4,4"/>
<text text-anchor="middle" x="74.5" y="-7.2" font-family="Helvetica,sans-Serif" font-size="11.00">Generated by SchemaSpy</text>
<!-- observation_plots -->
<g id="node1" class="node"><title>observation_plots</title>
<g id="a_node1"><a xlink:href="../../tables/observation_plots.html" xlink:title="observation_plots" target="_top">
<polygon fill="#ffffff" stroke="none" points="562.5,-737 562.5,-795 712.5,-795 712.5,-737 562.5,-737"/>
<polygon fill="#f5f5f5" stroke="none" points="562.5,-773 562.5,-795 712.5,-795 712.5,-773 562.5,-773"/>
<polygon fill="none" stroke="black" points="562.5,-773 562.5,-795 712.5,-795 712.5,-773 562.5,-773"/>
<text text-anchor="start" x="567.5" y="-782.2" font-family="Helvetica,sans-Serif" font-weight="bold" font-size="11.00">observation_plots</text>
<text text-anchor="start" x="673.5" y="-781.2" font-family="Helvetica,sans-Serif" font-size="11.00">[table]</text>
<polygon fill="none" stroke="black" points="562.5,-755 562.5,-773 712.5,-773 712.5,-755 562.5,-755"/>
<text text-anchor="start" x="565.5" y="-761.2" font-family="Helvetica,sans-Serif" font-size="11.00">...</text>
<polygon fill="#ffffff" stroke="none" points="562.5,-737 562.5,-755 616.5,-755 616.5,-737 562.5,-737"/>
<polygon fill="none" stroke="black" points="562.5,-737 562.5,-755 616.5,-755 616.5,-737 562.5,-737"/>
<text text-anchor="start" x="565.5" y="-743.2" font-family="Helvetica,sans-Serif" font-size="11.00">&lt; 6</text>
<polygon fill="#ffffff" stroke="none" points="616.5,-737 616.5,-755 673.5,-755 673.5,-737 616.5,-737"/>
<polygon fill="none" stroke="black" points="616.5,-737 616.5,-755 673.5,-755 673.5,-737 616.5,-737"/>
<text text-anchor="start" x="634.5" y="-743.2" font-family="Helvetica,sans-Serif" font-size="11.00">0 rows</text>
<polygon fill="#ffffff" stroke="none" points="673.5,-737 673.5,-755 712.5,-755 712.5,-737 673.5,-737"/>
<polygon fill="none" stroke="black" points="673.5,-737 673.5,-755 712.5,-755 712.5,-737 673.5,-737"/>
<text text-anchor="start" x="692.5" y="-743.2" font-family="Helvetica,sans-Serif" font-size="11.00">4 &gt;</text>
</a>
</g>
</g>
<!-- monitoring_plots -->
<g id="node2" class="node"><title>monitoring_plots</title>
<g id="a_node2"><a xlink:href="../../tables/monitoring_plots.html" xlink:title="monitoring_plots" target="_top">
<polygon fill="#ffffff" stroke="none" points="260,-737 260,-795 405,-795 405,-737 260,-737"/>
<polygon fill="#f5f5f5" stroke="none" points="260.5,-773 260.5,-795 405.5,-795 405.5,-773 260.5,-773"/>
<polygon fill="none" stroke="black" points="260.5,-773 260.5,-795 405.5,-795 405.5,-773 260.5,-773"/>
<text text-anchor="start" x="265.5" y="-782.2" font-family="Helvetica,sans-Serif" font-weight="bold" font-size="11.00">monitoring_plots</text>
<text text-anchor="start" x="366.5" y="-781.2" font-family="Helvetica,sans-Serif" font-size="11.00">[table]</text>
<polygon fill="none" stroke="black" points="260.5,-755 260.5,-773 405.5,-773 405.5,-755 260.5,-755"/>
<text text-anchor="start" x="263.5" y="-761.2" font-family="Helvetica,sans-Serif" font-size="11.00">...</text>
<polygon fill="#ffffff" stroke="none" points="260.5,-737 260.5,-755 311.5,-755 311.5,-737 260.5,-737"/>
<polygon fill="none" stroke="black" points="260.5,-737 260.5,-755 311.5,-755 311.5,-737 260.5,-737"/>
<text text-anchor="start" x="263.5" y="-743.2" font-family="Helvetica,sans-Serif" font-size="11.00">&lt; 3</text>
<polygon fill="#ffffff" stroke="none" points="311.5,-737 311.5,-755 367.5,-755 367.5,-737 311.5,-737"/>
<polygon fill="none" stroke="black" points="311.5,-737 311.5,-755 367.5,-755 367.5,-737 311.5,-737"/>
<text text-anchor="start" x="328.5" y="-743.2" font-family="Helvetica,sans-Serif" font-size="11.00">0 rows</text>
<polygon fill="#ffffff" stroke="none" points="367.5,-737 367.5,-755 405.5,-755 405.5,-737 367.5,-737"/>
<polygon fill="none" stroke="black" points="367.5,-737 367.5,-755 405.5,-755 405.5,-737 367.5,-737"/>
<text text-anchor="start" x="385.5" y="-743.2" font-family="Helvetica,sans-Serif" font-size="11.00">5 &gt;</text>
</a>
</g>
</g>
<!-- observation_plots&#45;&gt;monitoring_plots -->
<g id="edge1" class="edge"><title>observation_plots:elipses:w&#45;&gt;monitoring_plots:elipses:e</title>
<path fill="none" stroke="black" d="M546.973,-764C489.77,-764 470.276,-764 406.5,-764"/>
<polygon fill="black" stroke="black" points="553.5,-764 561.5,-767.6 557.5,-764 561.5,-764 561.5,-764 561.5,-764 557.5,-764 561.5,-760.4 553.5,-764 553.5,-764"/>
<ellipse fill="none" stroke="black" cx="550.3" cy="-764" rx="3.2" ry="3.2"/>
</g>
<!-- observations -->
<g id="node3" class="node"><title>observations</title>
<g id="a_node3"><a xlink:href="../../tables/observations.html" xlink:title="observations" target="_top">
<polygon fill="#ffffff" stroke="none" points="271.5,-576 271.5,-634 393.5,-634 393.5,-576 271.5,-576"/>
<polygon fill="#f5f5f5" stroke="none" points="271.5,-612 271.5,-634 393.5,-634 393.5,-612 271.5,-612"/>
<polygon fill="none" stroke="black" points="271.5,-612 271.5,-634 393.5,-634 393.5,-612 271.5,-612"/>
<text text-anchor="start" x="276.5" y="-621.2" font-family="Helvetica,sans-Serif" font-weight="bold" font-size="11.00">observations</text>
<text text-anchor="start" x="354.5" y="-620.2" font-family="Helvetica,sans-Serif" font-size="11.00">[table]</text>
<polygon fill="none" stroke="black" points="271.5,-594 271.5,-612 393.5,-612 393.5,-594 271.5,-594"/>
<text text-anchor="start" x="274.5" y="-600.2" font-family="Helvetica,sans-Serif" font-size="11.00">...</text>
<polygon fill="#ffffff" stroke="none" points="271.5,-576 271.5,-594 311.5,-594 311.5,-576 271.5,-576"/>
<polygon fill="none" stroke="black" points="271.5,-576 271.5,-594 311.5,-594 311.5,-576 271.5,-576"/>
<text text-anchor="start" x="274.5" y="-582.2" font-family="Helvetica,sans-Serif" font-size="11.00">&lt; 2</text>
<polygon fill="#ffffff" stroke="none" points="311.5,-576 311.5,-594 361.5,-594 361.5,-576 311.5,-576"/>
<polygon fill="none" stroke="black" points="311.5,-576 311.5,-594 361.5,-594 361.5,-576 311.5,-576"/>
<text text-anchor="start" x="322.5" y="-582.2" font-family="Helvetica,sans-Serif" font-size="11.00">0 rows</text>
<polygon fill="#ffffff" stroke="none" points="361.5,-576 361.5,-594 393.5,-594 393.5,-576 361.5,-576"/>
<polygon fill="none" stroke="black" points="361.5,-576 361.5,-594 393.5,-594 393.5,-576 361.5,-576"/>
<text text-anchor="start" x="373.5" y="-582.2" font-family="Helvetica,sans-Serif" font-size="11.00">7 &gt;</text>
</a>
</g>
</g>
<!-- observation_plots&#45;&gt;observations -->
<g id="edge2" class="edge"><title>observation_plots:elipses:w&#45;&gt;observations:elipses:e</title>
<path fill="none" stroke="black" d="M547.119,-762.842C461.954,-748.362 492.463,-603 394.5,-603"/>
<polygon fill="black" stroke="black" points="553.526,-763.358 561.211,-767.588 557.513,-763.679 561.5,-764 561.5,-764 561.5,-764 557.513,-763.679 561.789,-760.412 553.526,-763.358 553.526,-763.358"/>
<ellipse fill="none" stroke="black" cx="550.336" cy="-763.101" rx="3.2" ry="3.2"/>
</g>
<!-- planting_sites -->
<g id="node4" class="node"><title>planting_sites</title>
<g id="a_node4"><a xlink:href="../../tables/planting_sites.html" xlink:title="planting_sites" target="_top">
<polygon fill="#ffffff" stroke="none" points="8,-445 8,-503 135,-503 135,-445 8,-445"/>
<polygon fill="#f5f5f5" stroke="none" points="8.5,-481 8.5,-503 135.5,-503 135.5,-481 8.5,-481"/>
<polygon fill="none" stroke="black" points="8.5,-481 8.5,-503 135.5,-503 135.5,-481 8.5,-481"/>
<text text-anchor="start" x="13.5" y="-490.2" font-family="Helvetica,sans-Serif" font-weight="bold" font-size="11.00">planting_sites</text>
<text text-anchor="start" x="96.5" y="-489.2" font-family="Helvetica,sans-Serif" font-size="11.00">[table]</text>
<polygon fill="none" stroke="black" points="8.5,-463 8.5,-481 135.5,-481 135.5,-463 8.5,-463"/>
<text text-anchor="start" x="11.5" y="-469.2" font-family="Helvetica,sans-Serif" font-size="11.00">...</text>
<polygon fill="#ffffff" stroke="none" points="8.5,-445 8.5,-463 50.5,-463 50.5,-445 8.5,-445"/>
<polygon fill="none" stroke="black" points="8.5,-445 8.5,-463 50.5,-463 50.5,-445 8.5,-445"/>
<text text-anchor="start" x="11.5" y="-451.2" font-family="Helvetica,sans-Serif" font-size="11.00">&lt; 5</text>
<polygon fill="#ffffff" stroke="none" points="50.5,-445 50.5,-463 102.5,-463 102.5,-445 50.5,-445"/>
<polygon fill="none" stroke="black" points="50.5,-445 50.5,-463 102.5,-463 102.5,-445 50.5,-445"/>
<text text-anchor="start" x="63.5" y="-451.2" font-family="Helvetica,sans-Serif" font-size="11.00">0 rows</text>
<polygon fill="#ffffff" stroke="none" points="102.5,-445 102.5,-463 135.5,-463 135.5,-445 102.5,-445"/>
<polygon fill="none" stroke="black" points="102.5,-445 102.5,-463 135.5,-463 135.5,-445 102.5,-445"/>
<text text-anchor="start" x="115.5" y="-451.2" font-family="Helvetica,sans-Serif" font-size="11.00">7 &gt;</text>
</a>
</g>
</g>
<!-- observations&#45;&gt;planting_sites -->
<g id="edge3" class="edge"><title>observations:elipses:w&#45;&gt;planting_sites:elipses:e</title>
<path fill="none" stroke="black" d="M255.778,-601.438C190.931,-586.657 214.419,-472 136.5,-472"/>
<polygon fill="black" stroke="black" points="262.545,-602.156 270.12,-606.58 266.522,-602.578 270.5,-603 270.5,-603 270.5,-603 266.522,-602.578 270.88,-599.42 262.545,-602.156 262.545,-602.156"/>
<ellipse fill="none" stroke="black" cx="259.363" cy="-601.818" rx="3.2" ry="3.2"/>
</g>
<!-- observed_plot_species_totals -->
<g id="node5" class="node"><title>observed_plot_species_totals</title>
<g id="a_node5"><a xlink:href="../../tables/observed_plot_species_totals.html" xlink:title="observed_plot_species_totals" target="_top">
<polygon fill="#ffffff" stroke="none" points="531.5,-548 531.5,-716 743.5,-716 743.5,-548 531.5,-548"/>
<polygon fill="#f5f5f5" stroke="none" points="531.5,-694 531.5,-716 743.5,-716 743.5,-694 531.5,-694"/>
<polygon fill="none" stroke="black" points="531.5,-694 531.5,-716 743.5,-716 743.5,-694 531.5,-694"/>
<text text-anchor="start" x="536.5" y="-703.2" font-family="Helvetica,sans-Serif" font-weight="bold" font-size="11.00">observed_plot_species_totals</text>
<text text-anchor="start" x="704.5" y="-702.2" font-family="Helvetica,sans-Serif" font-size="11.00">[table]</text>
<polygon fill="#ffffff" stroke="none" points="531.5,-672 531.5,-694 743.5,-694 743.5,-672 531.5,-672"/>
<polygon fill="none" stroke="black" points="531.5,-672 531.5,-694 743.5,-694 743.5,-672 531.5,-672"/>
<image xlink:href="../../images/foreignKeys.png" width="11px" height="12px" preserveAspectRatio="xMinYMin meet" x="536.5" y="-689"/>
<text text-anchor="start" x="561.5" y="-680.2" font-family="Helvetica,sans-Serif" font-size="11.00">observation_id</text>
<polygon fill="#ffffff" stroke="none" points="531.5,-650 531.5,-672 743.5,-672 743.5,-650 531.5,-650"/>
<polygon fill="none" stroke="black" points="531.5,-650 531.5,-672 743.5,-672 743.5,-650 531.5,-650"/>
<image xlink:href="../../images/foreignKeys.png" width="11px" height="12px" preserveAspectRatio="xMinYMin meet" x="536.5" y="-667"/>
<text text-anchor="start" x="561.5" y="-658.2" font-family="Helvetica,sans-Serif" font-size="11.00">monitoring_plot_id</text>
<polygon fill="#ffffff" stroke="none" points="531.5,-628 531.5,-650 743.5,-650 743.5,-628 531.5,-628"/>
<polygon fill="none" stroke="black" points="531.5,-628 531.5,-650 743.5,-650 743.5,-628 531.5,-628"/>
<image xlink:href="../../images/foreignKeys.png" width="11px" height="12px" preserveAspectRatio="xMinYMin meet" x="536.5" y="-645"/>
<text text-anchor="start" x="561.5" y="-636.2" font-family="Helvetica,sans-Serif" font-size="11.00">species_id</text>
<polygon fill="#ffffff" stroke="none" points="531.5,-606 531.5,-628 743.5,-628 743.5,-606 531.5,-606"/>
<polygon fill="none" stroke="black" points="531.5,-606 531.5,-628 743.5,-628 743.5,-606 531.5,-606"/>
<text text-anchor="start" x="561.5" y="-614.2" font-family="Helvetica,sans-Serif" font-size="11.00">species_name</text>
<polygon fill="none" stroke="black" points="531.5,-584 531.5,-606 743.5,-606 743.5,-584 531.5,-584"/>
<image xlink:href="../../images/foreignKeys.png" width="11px" height="12px" preserveAspectRatio="xMinYMin meet" x="536.5" y="-601"/>
<text text-anchor="start" x="561.5" y="-592.2" font-family="Helvetica,sans-Serif" font-size="11.00">certainty_id</text>
<polygon fill="none" stroke="black" points="531.5,-566 531.5,-584 743.5,-584 743.5,-566 531.5,-566"/>
<text text-anchor="start" x="534.5" y="-572.2" font-family="Helvetica,sans-Serif" font-size="11.00">...</text>
<polygon fill="#ffffff" stroke="none" points="531.5,-548 531.5,-566 621.5,-566 621.5,-548 531.5,-548"/>
<polygon fill="none" stroke="black" points="531.5,-548 531.5,-566 621.5,-566 621.5,-548 531.5,-548"/>
<text text-anchor="start" x="534.5" y="-554.2" font-family="Helvetica,sans-Serif" font-size="11.00">&lt; 4</text>
<polygon fill="#ffffff" stroke="none" points="621.5,-548 621.5,-566 696.5,-566 696.5,-548 621.5,-548"/>
<polygon fill="none" stroke="black" points="621.5,-548 621.5,-566 696.5,-566 696.5,-548 621.5,-548"/>
<text text-anchor="start" x="657.5" y="-554.2" font-family="Helvetica,sans-Serif" font-size="11.00">0 rows</text>
<polygon fill="#ffffff" stroke="none" points="696.5,-548 696.5,-566 743.5,-566 743.5,-548 696.5,-548"/>
<polygon fill="none" stroke="black" points="696.5,-548 696.5,-566 743.5,-566 743.5,-548 696.5,-548"/>
<text text-anchor="start" x="733.5" y="-554.2" font-family="Helvetica,sans-Serif" font-size="11.00"> &#160;</text>
</a>
</g>
</g>
<!-- observed_plot_species_totals&#45;&gt;monitoring_plots -->
<g id="edge5" class="edge"><title>observed_plot_species_totals:monitoring_plot_id:w&#45;&gt;monitoring_plots:elipses:e</title>
<path fill="none" stroke="black" d="M515.976,-662.618C461.218,-675.722 472.827,-764 406.5,-764"/>
<polygon fill="black" stroke="black" points="522.549,-661.886 530.899,-664.578 526.525,-661.443 530.5,-661 530.5,-661 530.5,-661 526.525,-661.443 530.101,-657.422 522.549,-661.886 522.549,-661.886"/>
<ellipse fill="none" stroke="black" cx="519.369" cy="-662.24" rx="3.2" ry="3.2"/>
</g>
<!-- observed_plot_species_totals&#45;&gt;observations -->
<g id="edge6" class="edge"><title>observed_plot_species_totals:observation_id:w&#45;&gt;observations:elipses:e</title>
<path fill="none" stroke="black" d="M516.054,-681.743C460.595,-671.566 459.422,-603 394.5,-603"/>
<polygon fill="black" stroke="black" points="522.53,-682.307 530.188,-686.586 526.515,-682.653 530.5,-683 530.5,-683 530.5,-683 526.515,-682.653 530.812,-679.414 522.53,-682.307 522.53,-682.307"/>
<ellipse fill="none" stroke="black" cx="519.342" cy="-682.029" rx="3.2" ry="3.2"/>
</g>
<!-- recorded_species_certainties -->
<g id="node6" class="node"><title>recorded_species_certainties</title>
<g id="a_node6"><a xlink:href="../../tables/recorded_species_certainties.html" xlink:title="recorded_species_certainties" target="_top">
<polygon fill="#ffffff" stroke="none" points="184,-145 184,-233 481,-233 481,-145 184,-145"/>
<polygon fill="#f5f5f5" stroke="none" points="186.5,-209 186.5,-231 479.5,-231 479.5,-209 186.5,-209"/>
<polygon fill="none" stroke="black" points="186.5,-209 186.5,-231 479.5,-231 479.5,-209 186.5,-209"/>
<text text-anchor="start" x="191.5" y="-218.2" font-family="Helvetica,sans-Serif" font-weight="bold" font-size="11.00">recorded_species_certainties</text>
<text text-anchor="start" x="440.5" y="-217.2" font-family="Helvetica,sans-Serif" font-size="11.00">[table]</text>
<polygon fill="none" stroke="black" points="186.5,-187 186.5,-209 378.5,-209 378.5,-187 186.5,-187"/>
<image xlink:href="../../images/primaryKeys.png" width="11px" height="12px" preserveAspectRatio="xMinYMin meet" x="191.5" y="-204"/>
<text text-anchor="start" x="206.5" y="-195.2" font-family="Helvetica,sans-Serif" font-size="11.00">id</text>
<polygon fill="none" stroke="black" points="378.5,-187 378.5,-209 479.5,-209 479.5,-187 378.5,-187"/>
<text text-anchor="start" x="381.5" y="-195.2" font-family="Helvetica,sans-Serif" font-size="11.00">int4[10]</text>
<polygon fill="#ffffff" stroke="none" points="186.5,-165 186.5,-187 378.5,-187 378.5,-165 186.5,-165"/>
<polygon fill="none" stroke="black" points="186.5,-165 186.5,-187 378.5,-187 378.5,-165 186.5,-165"/>
<text text-anchor="start" x="206.5" y="-173.2" font-family="Helvetica,sans-Serif" font-size="11.00">name</text>
<polygon fill="none" stroke="black" points="378.5,-165 378.5,-187 479.5,-187 479.5,-165 378.5,-165"/>
<text text-anchor="start" x="381.5" y="-173.2" font-family="Helvetica,sans-Serif" font-size="11.00">text[2147483647]</text>
<polygon fill="#ffffff" stroke="none" points="186.5,-147 186.5,-165 272.5,-165 272.5,-147 186.5,-147"/>
<polygon fill="none" stroke="black" points="186.5,-147 186.5,-165 272.5,-165 272.5,-147 186.5,-147"/>
<text text-anchor="start" x="189.5" y="-153.2" font-family="Helvetica,sans-Serif" font-size="11.00">&lt; 0</text>
<polygon fill="#ffffff" stroke="none" points="272.5,-147 272.5,-165 378.5,-165 378.5,-147 272.5,-147"/>
<polygon fill="none" stroke="black" points="272.5,-147 272.5,-165 378.5,-165 378.5,-147 272.5,-147"/>
<text text-anchor="start" x="339.5" y="-153.2" font-family="Helvetica,sans-Serif" font-size="11.00">3 rows</text>
<polygon fill="#ffffff" stroke="none" points="378.5,-147 378.5,-165 479.5,-165 479.5,-147 378.5,-147"/>
<polygon fill="none" stroke="black" points="378.5,-147 378.5,-165 479.5,-165 479.5,-147 378.5,-147"/>
<text text-anchor="start" x="459.5" y="-153.2" font-family="Helvetica,sans-Serif" font-size="11.00">4 &gt;</text>
<polygon fill="none" stroke="black" stroke-width="2" points="185,-146 185,-232 480,-232 480,-146 185,-146"/>
</a>
</g>
</g>
<!-- observed_plot_species_totals&#45;&gt;recorded_species_certainties -->
<g id="edge4" class="edge"><title>observed_plot_species_totals:certainty_id:w&#45;&gt;recorded_species_certainties:id.type:e</title>
<path fill="none" stroke="black" d="M516.636,-590.81C456.267,-548.381 564.035,-198 480.5,-198"/>
<polygon fill="black" stroke="black" points="522.842,-592.686 529.459,-598.446 526.671,-593.843 530.5,-595 530.5,-595 530.5,-595 526.671,-593.843 531.541,-591.554 522.842,-592.686 522.842,-592.686"/>
<ellipse fill="none" stroke="black" cx="519.779" cy="-591.76" rx="3.20001" ry="3.20001"/>
</g>
<!-- public.species -->
<g id="node7" class="node"><title>public.species</title>
<g id="a_node7"><a xlink:href="../../../public/tables/species.html" xlink:title="public.species" target="_top">
<polygon fill="#ffffff" stroke="none" points="268,-374 268,-432 397,-432 397,-374 268,-374"/>
<polygon fill="#f5f5f5" stroke="none" points="268.5,-410 268.5,-432 397.5,-432 397.5,-410 268.5,-410"/>
<polygon fill="none" stroke="black" points="268.5,-410 268.5,-432 397.5,-432 397.5,-410 268.5,-410"/>
<text text-anchor="start" x="273.5" y="-419.2" font-family="Helvetica,sans-Serif" font-weight="bold" font-size="11.00">public.species</text>
<text text-anchor="start" x="358.5" y="-418.2" font-family="Helvetica,sans-Serif" font-size="11.00">[table]</text>
<polygon fill="none" stroke="black" points="268.5,-392 268.5,-410 397.5,-410 397.5,-392 268.5,-392"/>
<text text-anchor="start" x="271.5" y="-398.2" font-family="Helvetica,sans-Serif" font-size="11.00">...</text>
<polygon fill="#ffffff" stroke="none" points="268.5,-374 268.5,-392 306.5,-392 306.5,-374 268.5,-374"/>
<polygon fill="none" stroke="black" points="268.5,-374 268.5,-392 306.5,-392 306.5,-374 268.5,-374"/>
<text text-anchor="start" x="271.5" y="-380.2" font-family="Helvetica,sans-Serif" font-size="11.00"> &#160;</text>
<polygon fill="#ffffff" stroke="none" points="306.5,-374 306.5,-392 361.5,-392 361.5,-374 306.5,-374"/>
<polygon fill="none" stroke="black" points="306.5,-374 306.5,-392 361.5,-392 361.5,-374 306.5,-374"/>
<text text-anchor="start" x="322.5" y="-380.2" font-family="Helvetica,sans-Serif" font-size="11.00">0 rows</text>
<polygon fill="#ffffff" stroke="none" points="361.5,-374 361.5,-392 397.5,-392 397.5,-374 361.5,-374"/>
<polygon fill="none" stroke="black" points="361.5,-374 361.5,-392 397.5,-392 397.5,-374 361.5,-374"/>
<text text-anchor="start" x="377.5" y="-380.2" font-family="Helvetica,sans-Serif" font-size="11.00">8 &gt;</text>
</a>
</g>
</g>
<!-- observed_plot_species_totals&#45;&gt;public.species -->
<g id="edge7" class="edge"><title>observed_plot_species_totals:species_id:w&#45;&gt;public.species:elipses:e</title>
<path fill="none" stroke="black" d="M522.61,-626.539C494.528,-577.569 401.756,-401 398.5,-401"/>
<polygon fill="black" stroke="black" points="526.22,-632.241 527.458,-640.926 528.36,-635.62 530.5,-639 530.5,-639 530.5,-639 528.36,-635.62 533.542,-637.074 526.22,-632.241 526.22,-632.241"/>
<ellipse fill="none" stroke="black" cx="524.508" cy="-629.537" rx="3.20001" ry="3.20001"/>
</g>
<!-- observed_site_species_totals -->
<g id="node8" class="node"><title>observed_site_species_totals</title>
<g id="a_node8"><a xlink:href="../../tables/observed_site_species_totals.html" xlink:title="observed_site_species_totals" target="_top">
<polygon fill="#ffffff" stroke="none" points="532.5,-359 532.5,-527 742.5,-527 742.5,-359 532.5,-359"/>
<polygon fill="#f5f5f5" stroke="none" points="532.5,-505 532.5,-527 742.5,-527 742.5,-505 532.5,-505"/>
<polygon fill="none" stroke="black" points="532.5,-505 532.5,-527 742.5,-527 742.5,-505 532.5,-505"/>
<text text-anchor="start" x="537.5" y="-514.2" font-family="Helvetica,sans-Serif" font-weight="bold" font-size="11.00">observed_site_species_totals</text>
<text text-anchor="start" x="703.5" y="-513.2" font-family="Helvetica,sans-Serif" font-size="11.00">[table]</text>
<polygon fill="#ffffff" stroke="none" points="532.5,-483 532.5,-505 742.5,-505 742.5,-483 532.5,-483"/>
<polygon fill="none" stroke="black" points="532.5,-483 532.5,-505 742.5,-505 742.5,-483 532.5,-483"/>
<image xlink:href="../../images/foreignKeys.png" width="11px" height="12px" preserveAspectRatio="xMinYMin meet" x="537.5" y="-500"/>
<text text-anchor="start" x="562.5" y="-491.2" font-family="Helvetica,sans-Serif" font-size="11.00">observation_id</text>
<polygon fill="#ffffff" stroke="none" points="532.5,-461 532.5,-483 742.5,-483 742.5,-461 532.5,-461"/>
<polygon fill="none" stroke="black" points="532.5,-461 532.5,-483 742.5,-483 742.5,-461 532.5,-461"/>
<image xlink:href="../../images/foreignKeys.png" width="11px" height="12px" preserveAspectRatio="xMinYMin meet" x="537.5" y="-478"/>
<text text-anchor="start" x="562.5" y="-469.2" font-family="Helvetica,sans-Serif" font-size="11.00">planting_site_id</text>
<polygon fill="#ffffff" stroke="none" points="532.5,-439 532.5,-461 742.5,-461 742.5,-439 532.5,-439"/>
<polygon fill="none" stroke="black" points="532.5,-439 532.5,-461 742.5,-461 742.5,-439 532.5,-439"/>
<image xlink:href="../../images/foreignKeys.png" width="11px" height="12px" preserveAspectRatio="xMinYMin meet" x="537.5" y="-456"/>
<text text-anchor="start" x="562.5" y="-447.2" font-family="Helvetica,sans-Serif" font-size="11.00">species_id</text>
<polygon fill="#ffffff" stroke="none" points="532.5,-417 532.5,-439 742.5,-439 742.5,-417 532.5,-417"/>
<polygon fill="none" stroke="black" points="532.5,-417 532.5,-439 742.5,-439 742.5,-417 532.5,-417"/>
<text text-anchor="start" x="562.5" y="-425.2" font-family="Helvetica,sans-Serif" font-size="11.00">species_name</text>
<polygon fill="none" stroke="black" points="532.5,-395 532.5,-417 742.5,-417 742.5,-395 532.5,-395"/>
<image xlink:href="../../images/foreignKeys.png" width="11px" height="12px" preserveAspectRatio="xMinYMin meet" x="537.5" y="-412"/>
<text text-anchor="start" x="562.5" y="-403.2" font-family="Helvetica,sans-Serif" font-size="11.00">certainty_id</text>
<polygon fill="none" stroke="black" points="532.5,-377 532.5,-395 742.5,-395 742.5,-377 532.5,-377"/>
<text text-anchor="start" x="535.5" y="-383.2" font-family="Helvetica,sans-Serif" font-size="11.00">...</text>
<polygon fill="#ffffff" stroke="none" points="532.5,-359 532.5,-377 621.5,-377 621.5,-359 532.5,-359"/>
<polygon fill="none" stroke="black" points="532.5,-359 532.5,-377 621.5,-377 621.5,-359 532.5,-359"/>
<text text-anchor="start" x="535.5" y="-365.2" font-family="Helvetica,sans-Serif" font-size="11.00">&lt; 4</text>
<polygon fill="#ffffff" stroke="none" points="621.5,-359 621.5,-377 696.5,-377 696.5,-359 621.5,-359"/>
<polygon fill="none" stroke="black" points="621.5,-359 621.5,-377 696.5,-377 696.5,-359 621.5,-359"/>
<text text-anchor="start" x="657.5" y="-365.2" font-family="Helvetica,sans-Serif" font-size="11.00">0 rows</text>
<polygon fill="#ffffff" stroke="none" points="696.5,-359 696.5,-377 742.5,-377 742.5,-359 696.5,-359"/>
<polygon fill="none" stroke="black" points="696.5,-359 696.5,-377 742.5,-377 742.5,-359 696.5,-359"/>
<text text-anchor="start" x="732.5" y="-365.2" font-family="Helvetica,sans-Serif" font-size="11.00"> &#160;</text>
</a>
</g>
</g>
<!-- observed_site_species_totals&#45;&gt;observations -->
<g id="edge9" class="edge"><title>observed_site_species_totals:observation_id:w&#45;&gt;observations:elipses:e</title>
<path fill="none" stroke="black" d="M516.833,-495.458C455.785,-508.393 466.991,-603 394.5,-603"/>
<polygon fill="black" stroke="black" points="523.539,-494.792 531.856,-497.582 527.52,-494.396 531.5,-494 531.5,-494 531.5,-494 527.52,-494.396 531.144,-490.418 523.539,-494.792 523.539,-494.792"/>
<ellipse fill="none" stroke="black" cx="520.355" cy="-495.108" rx="3.2" ry="3.2"/>
</g>
<!-- observed_site_species_totals&#45;&gt;planting_sites -->
<g id="edge10" class="edge"><title>observed_site_species_totals:planting_site_id:w&#45;&gt;planting_sites:elipses:e</title>
<path fill="none" stroke="black" d="M516.895,-472C353.353,-472 307.084,-472 136.5,-472"/>
<polygon fill="black" stroke="black" points="523.5,-472 531.5,-475.6 527.5,-472 531.5,-472 531.5,-472 531.5,-472 527.5,-472 531.5,-468.4 523.5,-472 523.5,-472"/>
<ellipse fill="none" stroke="black" cx="520.3" cy="-472" rx="3.2" ry="3.2"/>
</g>
<!-- observed_site_species_totals&#45;&gt;recorded_species_certainties -->
<g id="edge8" class="edge"><title>observed_site_species_totals:certainty_id:w&#45;&gt;recorded_species_certainties:id.type:e</title>
<path fill="none" stroke="black" d="M517.09,-403.941C451.844,-382.339 570.106,-198 480.5,-198"/>
<polygon fill="black" stroke="black" points="523.58,-404.869 530.991,-409.564 527.54,-405.434 531.5,-406 531.5,-406 531.5,-406 527.54,-405.434 532.009,-402.436 523.58,-404.869 523.58,-404.869"/>
<ellipse fill="none" stroke="black" cx="520.413" cy="-404.416" rx="3.2" ry="3.2"/>
</g>
<!-- observed_site_species_totals&#45;&gt;public.species -->
<g id="edge11" class="edge"><title>observed_site_species_totals:species_id:w&#45;&gt;public.species:elipses:e</title>
<path fill="none" stroke="black" d="M517.066,-449.065C466.978,-442.291 456.328,-401 398.5,-401"/>
<polygon fill="black" stroke="black" points="523.517,-449.483 531.267,-453.592 527.508,-449.741 531.5,-450 531.5,-450 531.5,-450 527.508,-449.741 531.733,-446.408 523.517,-449.483 523.517,-449.483"/>
<ellipse fill="none" stroke="black" cx="520.323" cy="-449.276" rx="3.2" ry="3.2"/>
</g>
<!-- observed_zone_species_totals -->
<g id="node9" class="node"><title>observed_zone_species_totals</title>
<g id="a_node9"><a xlink:href="../../tables/observed_zone_species_totals.html" xlink:title="observed_zone_species_totals" target="_top">
<polygon fill="#ffffff" stroke="none" points="530,-143 530,-311 745,-311 745,-143 530,-143"/>
<polygon fill="#f5f5f5" stroke="none" points="530.5,-289 530.5,-311 745.5,-311 745.5,-289 530.5,-289"/>
<polygon fill="none" stroke="black" points="530.5,-289 530.5,-311 745.5,-311 745.5,-289 530.5,-289"/>
<text text-anchor="start" x="535.5" y="-298.2" font-family="Helvetica,sans-Serif" font-weight="bold" font-size="11.00">observed_zone_species_totals</text>
<text text-anchor="start" x="706.5" y="-297.2" font-family="Helvetica,sans-Serif" font-size="11.00">[table]</text>
<polygon fill="#ffffff" stroke="none" points="530.5,-267 530.5,-289 745.5,-289 745.5,-267 530.5,-267"/>
<polygon fill="none" stroke="black" points="530.5,-267 530.5,-289 745.5,-289 745.5,-267 530.5,-267"/>
<image xlink:href="../../images/foreignKeys.png" width="11px" height="12px" preserveAspectRatio="xMinYMin meet" x="535.5" y="-284"/>
<text text-anchor="start" x="559.5" y="-275.2" font-family="Helvetica,sans-Serif" font-size="11.00">observation_id</text>
<polygon fill="#ffffff" stroke="none" points="530.5,-245 530.5,-267 745.5,-267 745.5,-245 530.5,-245"/>
<polygon fill="none" stroke="black" points="530.5,-245 530.5,-267 745.5,-267 745.5,-245 530.5,-245"/>
<image xlink:href="../../images/foreignKeys.png" width="11px" height="12px" preserveAspectRatio="xMinYMin meet" x="535.5" y="-262"/>
<text text-anchor="start" x="559.5" y="-253.2" font-family="Helvetica,sans-Serif" font-size="11.00">planting_zone_id</text>
<polygon fill="#ffffff" stroke="none" points="530.5,-223 530.5,-245 745.5,-245 745.5,-223 530.5,-223"/>
<polygon fill="none" stroke="black" points="530.5,-223 530.5,-245 745.5,-245 745.5,-223 530.5,-223"/>
<image xlink:href="../../images/foreignKeys.png" width="11px" height="12px" preserveAspectRatio="xMinYMin meet" x="535.5" y="-240"/>
<text text-anchor="start" x="559.5" y="-231.2" font-family="Helvetica,sans-Serif" font-size="11.00">species_id</text>
<polygon fill="#ffffff" stroke="none" points="530.5,-201 530.5,-223 745.5,-223 745.5,-201 530.5,-201"/>
<polygon fill="none" stroke="black" points="530.5,-201 530.5,-223 745.5,-223 745.5,-201 530.5,-201"/>
<text text-anchor="start" x="559.5" y="-209.2" font-family="Helvetica,sans-Serif" font-size="11.00">species_name</text>
<polygon fill="none" stroke="black" points="530.5,-179 530.5,-201 745.5,-201 745.5,-179 530.5,-179"/>
<image xlink:href="../../images/foreignKeys.png" width="11px" height="12px" preserveAspectRatio="xMinYMin meet" x="535.5" y="-196"/>
<text text-anchor="start" x="559.5" y="-187.2" font-family="Helvetica,sans-Serif" font-size="11.00">certainty_id</text>
<polygon fill="none" stroke="black" points="530.5,-161 530.5,-179 745.5,-179 745.5,-161 530.5,-161"/>
<text text-anchor="start" x="533.5" y="-167.2" font-family="Helvetica,sans-Serif" font-size="11.00">...</text>
<polygon fill="#ffffff" stroke="none" points="530.5,-143 530.5,-161 621.5,-161 621.5,-143 530.5,-143"/>
<polygon fill="none" stroke="black" points="530.5,-143 530.5,-161 621.5,-161 621.5,-143 530.5,-143"/>
<text text-anchor="start" x="533.5" y="-149.2" font-family="Helvetica,sans-Serif" font-size="11.00">&lt; 4</text>
<polygon fill="#ffffff" stroke="none" points="621.5,-143 621.5,-161 697.5,-161 697.5,-143 621.5,-143"/>
<polygon fill="none" stroke="black" points="621.5,-143 621.5,-161 697.5,-161 697.5,-143 621.5,-143"/>
<text text-anchor="start" x="658.5" y="-149.2" font-family="Helvetica,sans-Serif" font-size="11.00">0 rows</text>
<polygon fill="#ffffff" stroke="none" points="697.5,-143 697.5,-161 745.5,-161 745.5,-143 697.5,-143"/>
<polygon fill="none" stroke="black" points="697.5,-143 697.5,-161 745.5,-161 745.5,-143 697.5,-143"/>
<text text-anchor="start" x="735.5" y="-149.2" font-family="Helvetica,sans-Serif" font-size="11.00"> &#160;</text>
</a>
</g>
</g>
<!-- observed_zone_species_totals&#45;&gt;observations -->
<g id="edge13" class="edge"><title>observed_zone_species_totals:observation_id:w&#45;&gt;observations:elipses:e</title>
<path fill="none" stroke="black" d="M514.89,-279.522C462.911,-291.974 515.39,-378.267 489,-443 457.823,-519.477 477.088,-603 394.5,-603"/>
<polygon fill="black" stroke="black" points="521.543,-278.829 529.873,-281.581 525.522,-278.414 529.5,-278 529.5,-278 529.5,-278 525.522,-278.414 529.127,-274.419 521.543,-278.829 521.543,-278.829"/>
<ellipse fill="none" stroke="black" cx="518.36" cy="-279.161" rx="3.2" ry="3.2"/>
</g>
<!-- observed_zone_species_totals&#45;&gt;recorded_species_certainties -->
<g id="edge12" class="edge"><title>observed_zone_species_totals:certainty_id:w&#45;&gt;recorded_species_certainties:id.type:e</title>
<path fill="none" stroke="black" d="M514.912,-191.393C503.634,-193.686 496.705,-198 480.5,-198"/>
<polygon fill="black" stroke="black" points="521.536,-190.761 529.842,-193.584 525.518,-190.38 529.5,-190 529.5,-190 529.5,-190 525.518,-190.38 529.158,-186.416 521.536,-190.761 521.536,-190.761"/>
<ellipse fill="none" stroke="black" cx="518.351" cy="-191.065" rx="3.2" ry="3.2"/>
</g>
<!-- observed_zone_species_totals&#45;&gt;public.species -->
<g id="edge15" class="edge"><title>observed_zone_species_totals:species_id:w&#45;&gt;public.species:elipses:e</title>
<path fill="none" stroke="black" d="M515.073,-236.843C490.423,-249.248 514.029,-299.459 489,-332 458.164,-372.092 449.079,-401 398.5,-401"/>
<polygon fill="black" stroke="black" points="521.651,-235.547 530.196,-237.532 525.575,-234.773 529.5,-234 529.5,-234 529.5,-234 525.575,-234.773 528.804,-230.468 521.651,-235.547 521.651,-235.547"/>
<ellipse fill="none" stroke="black" cx="518.511" cy="-236.166" rx="3.2" ry="3.2"/>
</g>
<!-- planting_zones -->
<g id="node10" class="node"><title>planting_zones</title>
<g id="a_node10"><a xlink:href="../../tables/planting_zones.html" xlink:title="planting_zones" target="_top">
<polygon fill="#ffffff" stroke="none" points="266,-263 266,-321 399,-321 399,-263 266,-263"/>
<polygon fill="#f5f5f5" stroke="none" points="266.5,-299 266.5,-321 399.5,-321 399.5,-299 266.5,-299"/>
<polygon fill="none" stroke="black" points="266.5,-299 266.5,-321 399.5,-321 399.5,-299 266.5,-299"/>
<text text-anchor="start" x="271.5" y="-308.2" font-family="Helvetica,sans-Serif" font-weight="bold" font-size="11.00">planting_zones</text>
<text text-anchor="start" x="360.5" y="-307.2" font-family="Helvetica,sans-Serif" font-size="11.00">[table]</text>
<polygon fill="none" stroke="black" points="266.5,-281 266.5,-299 399.5,-299 399.5,-281 266.5,-281"/>
<text text-anchor="start" x="269.5" y="-287.2" font-family="Helvetica,sans-Serif" font-size="11.00">...</text>
<polygon fill="#ffffff" stroke="none" points="266.5,-263 266.5,-281 311.5,-281 311.5,-263 266.5,-263"/>
<polygon fill="none" stroke="black" points="266.5,-263 266.5,-281 311.5,-281 311.5,-263 266.5,-263"/>
<text text-anchor="start" x="269.5" y="-269.2" font-family="Helvetica,sans-Serif" font-size="11.00">&lt; 3</text>
<polygon fill="#ffffff" stroke="none" points="311.5,-263 311.5,-281 364.5,-281 364.5,-263 311.5,-263"/>
<polygon fill="none" stroke="black" points="311.5,-263 311.5,-281 364.5,-281 364.5,-263 311.5,-263"/>
<text text-anchor="start" x="325.5" y="-269.2" font-family="Helvetica,sans-Serif" font-size="11.00">0 rows</text>
<polygon fill="#ffffff" stroke="none" points="364.5,-263 364.5,-281 399.5,-281 399.5,-263 364.5,-263"/>
<polygon fill="none" stroke="black" points="364.5,-263 364.5,-281 399.5,-281 399.5,-263 364.5,-263"/>
<text text-anchor="start" x="379.5" y="-269.2" font-family="Helvetica,sans-Serif" font-size="11.00">4 &gt;</text>
</a>
</g>
</g>
<!-- observed_zone_species_totals&#45;&gt;planting_zones -->
<g id="edge14" class="edge"><title>observed_zone_species_totals:planting_zone_id:w&#45;&gt;planting_zones:elipses:e</title>
<path fill="none" stroke="black" d="M514.933,-256.742C468,-261.714 454.58,-290 400.5,-290"/>
<polygon fill="black" stroke="black" points="521.51,-256.407 529.683,-259.595 525.505,-256.203 529.5,-256 529.5,-256 529.5,-256 525.505,-256.203 529.317,-252.405 521.51,-256.407 521.51,-256.407"/>
<ellipse fill="none" stroke="black" cx="518.314" cy="-256.57" rx="3.2" ry="3.2"/>
</g>
<!-- planting_zones&#45;&gt;planting_sites -->
<g id="edge16" class="edge"><title>planting_zones:elipses:w&#45;&gt;planting_sites:elipses:e</title>
<path fill="none" stroke="black" d="M251.052,-290.963C212.018,-296.576 202.765,-326.132 176,-364 146.5,-405.737 187.61,-472 136.5,-472"/>
<polygon fill="black" stroke="black" points="257.518,-290.532 265.739,-293.592 261.509,-290.266 265.5,-290 265.5,-290 265.5,-290 261.509,-290.266 265.261,-286.408 257.518,-290.532 257.518,-290.532"/>
<ellipse fill="none" stroke="black" cx="254.325" cy="-290.745" rx="3.2" ry="3.2"/>
</g>
<!-- recorded_plants -->
<g id="node11" class="node"><title>recorded_plants</title>
<g id="a_node11"><a xlink:href="../../tables/recorded_plants.html" xlink:title="recorded_plants" target="_top">
<polygon fill="#ffffff" stroke="none" points="794,-629 794,-819 935,-819 935,-629 794,-629"/>
<polygon fill="#f5f5f5" stroke="none" points="794.5,-797 794.5,-819 935.5,-819 935.5,-797 794.5,-797"/>
<polygon fill="none" stroke="black" points="794.5,-797 794.5,-819 935.5,-819 935.5,-797 794.5,-797"/>
<text text-anchor="start" x="799.5" y="-806.2" font-family="Helvetica,sans-Serif" font-weight="bold" font-size="11.00">recorded_plants</text>
<text text-anchor="start" x="896.5" y="-805.2" font-family="Helvetica,sans-Serif" font-size="11.00">[table]</text>
<polygon fill="none" stroke="black" points="794.5,-775 794.5,-797 935.5,-797 935.5,-775 794.5,-775"/>
<image xlink:href="../../images/primaryKeys.png" width="11px" height="12px" preserveAspectRatio="xMinYMin meet" x="799.5" y="-792"/>
<text text-anchor="start" x="818.5" y="-783.2" font-family="Helvetica,sans-Serif" font-size="11.00">id</text>
<polygon fill="#ffffff" stroke="none" points="794.5,-753 794.5,-775 935.5,-775 935.5,-753 794.5,-753"/>
<polygon fill="none" stroke="black" points="794.5,-753 794.5,-775 935.5,-775 935.5,-753 794.5,-753"/>
<image xlink:href="../../images/foreignKeys.png" width="11px" height="12px" preserveAspectRatio="xMinYMin meet" x="799.5" y="-770"/>
<text text-anchor="start" x="818.5" y="-761.2" font-family="Helvetica,sans-Serif" font-size="11.00">observation_id</text>
<polygon fill="#ffffff" stroke="none" points="794.5,-731 794.5,-753 935.5,-753 935.5,-731 794.5,-731"/>
<polygon fill="none" stroke="black" points="794.5,-731 794.5,-753 935.5,-753 935.5,-731 794.5,-731"/>
<image xlink:href="../../images/foreignKeys.png" width="11px" height="12px" preserveAspectRatio="xMinYMin meet" x="799.5" y="-748"/>
<text text-anchor="start" x="818.5" y="-739.2" font-family="Helvetica,sans-Serif" font-size="11.00">monitoring_plot_id</text>
<polygon fill="none" stroke="black" points="794.5,-709 794.5,-731 935.5,-731 935.5,-709 794.5,-709"/>
<image xlink:href="../../images/foreignKeys.png" width="11px" height="12px" preserveAspectRatio="xMinYMin meet" x="799.5" y="-726"/>
<text text-anchor="start" x="818.5" y="-717.2" font-family="Helvetica,sans-Serif" font-size="11.00">certainty_id</text>
<polygon fill="#ffffff" stroke="none" points="794.5,-687 794.5,-709 935.5,-709 935.5,-687 794.5,-687"/>
<polygon fill="none" stroke="black" points="794.5,-687 794.5,-709 935.5,-709 935.5,-687 794.5,-687"/>
<image xlink:href="../../images/foreignKeys.png" width="11px" height="12px" preserveAspectRatio="xMinYMin meet" x="799.5" y="-704"/>
<text text-anchor="start" x="818.5" y="-695.2" font-family="Helvetica,sans-Serif" font-size="11.00">species_id</text>
<polygon fill="none" stroke="black" points="794.5,-665 794.5,-687 935.5,-687 935.5,-665 794.5,-665"/>
<image xlink:href="../../images/foreignKeys.png" width="11px" height="12px" preserveAspectRatio="xMinYMin meet" x="799.5" y="-682"/>
<text text-anchor="start" x="818.5" y="-673.2" font-family="Helvetica,sans-Serif" font-size="11.00">status_id</text>
<polygon fill="none" stroke="black" points="794.5,-647 794.5,-665 935.5,-665 935.5,-647 794.5,-647"/>
<text text-anchor="start" x="797.5" y="-653.2" font-family="Helvetica,sans-Serif" font-size="11.00">...</text>
<polygon fill="#ffffff" stroke="none" points="794.5,-629 794.5,-647 848.5,-647 848.5,-629 794.5,-629"/>
<polygon fill="none" stroke="black" points="794.5,-629 794.5,-647 848.5,-647 848.5,-629 794.5,-629"/>
<text text-anchor="start" x="797.5" y="-635.2" font-family="Helvetica,sans-Serif" font-size="11.00">&lt; 7</text>
<polygon fill="#ffffff" stroke="none" points="848.5,-629 848.5,-647 906.5,-647 906.5,-629 848.5,-629"/>
<polygon fill="none" stroke="black" points="848.5,-629 848.5,-647 906.5,-647 906.5,-629 848.5,-629"/>
<text text-anchor="start" x="867.5" y="-635.2" font-family="Helvetica,sans-Serif" font-size="11.00">0 rows</text>
<polygon fill="#ffffff" stroke="none" points="906.5,-629 906.5,-647 935.5,-647 935.5,-629 906.5,-629"/>
<polygon fill="none" stroke="black" points="906.5,-629 906.5,-647 935.5,-647 935.5,-629 906.5,-629"/>
<text text-anchor="start" x="925.5" y="-635.2" font-family="Helvetica,sans-Serif" font-size="11.00"> &#160;</text>
</a>
</g>
</g>
<!-- recorded_plants&#45;&gt;observation_plots -->
<g id="edge19" class="edge"><title>recorded_plants:monitoring_plot_id:w&#45;&gt;observation_plots:elipses:e</title>
<path fill="none" stroke="black" d="M778.903,-743.31C754.095,-748.047 744.902,-764 713.5,-764"/>
<polygon fill="black" stroke="black" points="785.532,-742.715 793.822,-745.586 789.516,-742.358 793.5,-742 793.5,-742 793.5,-742 789.516,-742.358 793.178,-738.414 785.532,-742.715 785.532,-742.715"/>
<ellipse fill="none" stroke="black" cx="782.345" cy="-743.001" rx="3.2" ry="3.2"/>
</g>
<!-- recorded_plants&#45;&gt;observation_plots -->
<g id="edge20" class="edge"><title>recorded_plants:observation_id:w&#45;&gt;observation_plots:elipses:e</title>
<path fill="none" stroke="black" d="M778.918,-764C754.617,-764 743.639,-764 713.5,-764"/>
<polygon fill="black" stroke="black" points="785.5,-764 793.5,-767.6 789.5,-764 793.5,-764 793.5,-764 793.5,-764 789.5,-764 793.5,-760.4 785.5,-764 785.5,-764"/>
<ellipse fill="none" stroke="black" cx="782.3" cy="-764" rx="3.2" ry="3.2"/>
</g>
<!-- recorded_plants&#45;&gt;monitoring_plots -->
<g id="edge18" class="edge"><title>recorded_plants:monitoring_plot_id:w&#45;&gt;monitoring_plots:elipses:e</title>
<path fill="none" stroke="black" d="M779.79,-746.515C766.499,-758.803 776.958,-792.809 753,-806 663.064,-855.518 623.11,-823.813 522,-806 468.206,-796.523 461.122,-764 406.5,-764"/>
<polygon fill="black" stroke="black" points="785.901,-744.502 794.626,-745.419 789.701,-743.251 793.5,-742 793.5,-742 793.5,-742 789.701,-743.251 792.374,-738.581 785.901,-744.502 785.901,-744.502"/>
<ellipse fill="none" stroke="black" cx="782.862" cy="-745.503" rx="3.20001" ry="3.20001"/>
</g>
<!-- recorded_plants&#45;&gt;observations -->
<g id="edge21" class="edge"><title>recorded_plants:observation_id:w&#45;&gt;observations:elipses:e</title>
<path fill="none" stroke="black" d="M779.887,-768.845C770.127,-778.158 771.086,-798.315 753,-806 658.509,-846.149 607.449,-862.911 522,-806 490.33,-784.907 508.021,-759.956 489,-727 454.364,-666.987 463.791,-603 394.5,-603"/>
<polygon fill="black" stroke="black" points="785.963,-766.682 794.707,-767.392 789.732,-765.341 793.5,-764 793.5,-764 793.5,-764 789.732,-765.341 792.293,-760.608 785.963,-766.682 785.963,-766.682"/>
<ellipse fill="none" stroke="black" cx="782.948" cy="-767.755" rx="3.20001" ry="3.20001"/>
</g>
<!-- recorded_plants&#45;&gt;recorded_species_certainties -->
<g id="edge17" class="edge"><title>recorded_plants:certainty_id:w&#45;&gt;recorded_species_certainties:id.type:e</title>
<path fill="none" stroke="black" d="M781.392,-711.895C737.997,-644.207 797.339,-174.386 753,-133 715.473,-97.9733 567.018,-108.332 522,-133 491.942,-149.471 514.775,-198 480.5,-198"/>
<polygon fill="black" stroke="black" points="786.852,-715.55 791.497,-722.992 790.176,-717.775 793.5,-720 793.5,-720 793.5,-720 790.176,-717.775 795.503,-717.008 786.852,-715.55 786.852,-715.55"/>
<ellipse fill="none" stroke="black" cx="784.193" cy="-713.77" rx="3.20001" ry="3.20001"/>
</g>
<!-- recorded_plants&#45;&gt;public.species -->
<g id="edge22" class="edge"><title>recorded_plants:species_id:w&#45;&gt;public.species:elipses:e</title>
<path fill="none" stroke="black" d="M779.497,-693.782C728.145,-657.436 807.204,-397.277 753,-349 714.667,-314.858 572.318,-338.839 522,-349 463.622,-360.789 458.056,-401 398.5,-401"/>
<polygon fill="black" stroke="black" points="785.84,-695.693 792.462,-701.447 789.67,-696.846 793.5,-698 793.5,-698 793.5,-698 789.67,-696.846 794.538,-694.553 785.84,-695.693 785.84,-695.693"/>
<ellipse fill="none" stroke="black" cx="782.776" cy="-694.77" rx="3.20001" ry="3.20001"/>
</g>
<!-- recorded_plant_statuses -->
<g id="node12" class="node"><title>recorded_plant_statuses</title>
<g id="a_node12"><a xlink:href="../../tables/recorded_plant_statuses.html" xlink:title="recorded_plant_statuses" target="_top">
<polygon fill="#ffffff" stroke="none" points="544,-37 544,-95 731,-95 731,-37 544,-37"/>
<polygon fill="#f5f5f5" stroke="none" points="544.5,-73 544.5,-95 731.5,-95 731.5,-73 544.5,-73"/>
<polygon fill="none" stroke="black" points="544.5,-73 544.5,-95 731.5,-95 731.5,-73 544.5,-73"/>
<text text-anchor="start" x="549.5" y="-82.2" font-family="Helvetica,sans-Serif" font-weight="bold" font-size="11.00">recorded_plant_statuses</text>
<text text-anchor="start" x="692.5" y="-81.2" font-family="Helvetica,sans-Serif" font-size="11.00">[table]</text>
<polygon fill="none" stroke="black" points="544.5,-55 544.5,-73 731.5,-73 731.5,-55 544.5,-55"/>
<text text-anchor="start" x="547.5" y="-61.2" font-family="Helvetica,sans-Serif" font-size="11.00">...</text>
<polygon fill="#ffffff" stroke="none" points="544.5,-37 544.5,-55 611.5,-55 611.5,-37 544.5,-37"/>
<polygon fill="none" stroke="black" points="544.5,-37 544.5,-55 611.5,-55 611.5,-37 544.5,-37"/>
<text text-anchor="start" x="547.5" y="-43.2" font-family="Helvetica,sans-Serif" font-size="11.00"> &#160;</text>
<polygon fill="#ffffff" stroke="none" points="611.5,-37 611.5,-55 680.5,-55 680.5,-37 611.5,-37"/>
<polygon fill="none" stroke="black" points="611.5,-37 611.5,-55 680.5,-55 680.5,-37 611.5,-37"/>
<text text-anchor="start" x="641.5" y="-43.2" font-family="Helvetica,sans-Serif" font-size="11.00">3 rows</text>
<polygon fill="#ffffff" stroke="none" points="680.5,-37 680.5,-55 731.5,-55 731.5,-37 680.5,-37"/>
<polygon fill="none" stroke="black" points="680.5,-37 680.5,-55 731.5,-55 731.5,-37 680.5,-37"/>
<text text-anchor="start" x="711.5" y="-43.2" font-family="Helvetica,sans-Serif" font-size="11.00">1 &gt;</text>
</a>
</g>
</g>
<!-- recorded_plants&#45;&gt;recorded_plant_statuses -->
<g id="edge23" class="edge"><title>recorded_plants:status_id:w&#45;&gt;recorded_plant_statuses:elipses:e</title>
<path fill="none" stroke="black" d="M781.412,-667.811C734.836,-595.188 796.165,-64 732.5,-64"/>
<polygon fill="black" stroke="black" points="786.877,-671.513 791.481,-678.98 790.188,-673.757 793.5,-676 793.5,-676 793.5,-676 790.188,-673.757 795.519,-673.02 786.877,-671.513 786.877,-671.513"/>
<ellipse fill="none" stroke="black" cx="784.227" cy="-669.718" rx="3.20001" ry="3.20001"/>
</g>
</g>
</svg>
