<?xml version="1.0" encoding="UTF-8" standalone="no"?>
<!DOCTYPE svg PUBLIC "-//W3C//DTD SVG 1.1//EN"
 "http://www.w3.org/Graphics/SVG/1.1/DTD/svg11.dtd">
<!-- Generated by graphviz version 2.47.1 (20210515.0534)
 -->
<!-- Title: twoDegreesRelationshipsDiagram Pages: 1 -->
<svg width="1888pt" height="1196pt"
 viewBox="0.00 0.00 1888.00 1195.92" xmlns="http://www.w3.org/2000/svg" xmlns:xlink="http://www.w3.org/1999/xlink">
<g id="graph0" class="graph" transform="scale(1 1) rotate(0) translate(4 1191.92)">
<title>twoDegreesRelationshipsDiagram</title>
<polygon fill="#ffffff" stroke="transparent" points="-4,4 -4,-1191.92 1884,-1191.92 1884,4 -4,4"/>
<text text-anchor="middle" x="73.5" y="-7.2" font-family="Helvetica,sans-Serif" font-size="11.00">Generated by SchemaSpy</text>
<!-- nursery.withdrawals -->
<g id="node1" class="node">
<title>nursery.withdrawals</title>
<g id="a_node1"><a xlink:href="../../../nursery/tables/withdrawals.html" xlink:title="nursery.withdrawals" target="_top">
<polygon fill="#ffffff" stroke="transparent" points="699,-934.38 699,-992.38 867,-992.38 867,-934.38 699,-934.38"/>
<polygon fill="#f5f5f5" stroke="transparent" points="699,-970.38 699,-992.38 867,-992.38 867,-970.38 699,-970.38"/>
<polygon fill="none" stroke="black" points="699,-970.38 699,-992.38 867,-992.38 867,-970.38 699,-970.38"/>
<text text-anchor="start" x="704" y="-979.58" font-family="Helvetica,sans-Serif" font-weight="bold" font-size="11.00">nursery.withdrawals</text>
<text text-anchor="start" x="828" y="-978.58" font-family="Helvetica,sans-Serif" font-size="11.00">[table]</text>
<polygon fill="none" stroke="black" points="699,-952.38 699,-970.38 867,-970.38 867,-952.38 699,-952.38"/>
<text text-anchor="start" x="702" y="-958.58" font-family="Helvetica,sans-Serif" font-size="11.00">...</text>
<polygon fill="#ffffff" stroke="transparent" points="699,-934.38 699,-952.38 763,-952.38 763,-934.38 699,-934.38"/>
<polygon fill="none" stroke="black" points="699,-934.38 699,-952.38 763,-952.38 763,-934.38 699,-934.38"/>
<text text-anchor="start" x="702" y="-940.58" font-family="Helvetica,sans-Serif" font-size="11.00">&lt; 1</text>
<polygon fill="#ffffff" stroke="transparent" points="763,-934.38 763,-952.38 824,-952.38 824,-934.38 763,-934.38"/>
<polygon fill="none" stroke="black" points="763,-934.38 763,-952.38 824,-952.38 824,-934.38 763,-934.38"/>
<text text-anchor="start" x="787" y="-940.58" font-family="Helvetica,sans-Serif" font-size="11.00">0 rows</text>
<polygon fill="#ffffff" stroke="transparent" points="824,-934.38 824,-952.38 867,-952.38 867,-934.38 824,-934.38"/>
<polygon fill="none" stroke="black" points="824,-934.38 824,-952.38 867,-952.38 867,-934.38 824,-934.38"/>
<text text-anchor="start" x="848" y="-940.58" font-family="Helvetica,sans-Serif" font-size="11.00">1 &gt;</text>
</a>
</g>
</g>
<!-- planting_seasons -->
<g id="node2" class="node">
<title>planting_seasons</title>
<g id="a_node2"><a xlink:href="../../tables/planting_seasons.html" xlink:title="planting_seasons" target="_top">
<polygon fill="#ffffff" stroke="transparent" points="433,-914.38 433,-972.38 579,-972.38 579,-914.38 433,-914.38"/>
<polygon fill="#f5f5f5" stroke="transparent" points="433,-950.38 433,-972.38 579,-972.38 579,-950.38 433,-950.38"/>
<polygon fill="none" stroke="black" points="433,-950.38 433,-972.38 579,-972.38 579,-950.38 433,-950.38"/>
<text text-anchor="start" x="438" y="-959.58" font-family="Helvetica,sans-Serif" font-weight="bold" font-size="11.00">planting_seasons</text>
<text text-anchor="start" x="540" y="-958.58" font-family="Helvetica,sans-Serif" font-size="11.00">[table]</text>
<polygon fill="none" stroke="black" points="433,-932.38 433,-950.38 579,-950.38 579,-932.38 433,-932.38"/>
<text text-anchor="start" x="436" y="-938.58" font-family="Helvetica,sans-Serif" font-size="11.00">...</text>
<polygon fill="#ffffff" stroke="transparent" points="433,-914.38 433,-932.38 499,-932.38 499,-914.38 433,-914.38"/>
<polygon fill="none" stroke="black" points="433,-914.38 433,-932.38 499,-932.38 499,-914.38 433,-914.38"/>
<text text-anchor="start" x="436" y="-920.58" font-family="Helvetica,sans-Serif" font-size="11.00">&lt; 4</text>
<polygon fill="#ffffff" stroke="transparent" points="499,-914.38 499,-932.38 534,-932.38 534,-914.38 499,-914.38"/>
<polygon fill="none" stroke="black" points="499,-914.38 499,-932.38 534,-932.38 534,-914.38 499,-914.38"/>
<text text-anchor="start" x="524" y="-920.58" font-family="Helvetica,sans-Serif" font-size="11.00"> &#160;</text>
<polygon fill="#ffffff" stroke="transparent" points="534,-914.38 534,-932.38 579,-932.38 579,-914.38 534,-914.38"/>
<polygon fill="none" stroke="black" points="534,-914.38 534,-932.38 579,-932.38 579,-914.38 534,-914.38"/>
<text text-anchor="start" x="560" y="-920.58" font-family="Helvetica,sans-Serif" font-size="11.00">4 &gt;</text>
</a>
</g>
</g>
<!-- nursery.withdrawals&#45;&gt;planting_seasons -->
<g id="edge1" class="edge">
<title>nursery.withdrawals:w&#45;&gt;planting_seasons:e</title>
<path fill="none" stroke="black" d="M683.29,-961.21C650.96,-960.49 616.79,-957.58 587.23,-954.31"/>
<polygon fill="black" stroke="black" points="690,-961.28 697.96,-964.97 694,-961.33 698,-961.38 698,-961.38 698,-961.38 694,-961.33 698.04,-957.78 690,-961.28 690,-961.28"/>
<ellipse fill="none" stroke="black" cx="686.8" cy="-961.25" rx="3.2" ry="3.2"/>
</g>
<!-- public.users -->
<g id="node4" class="node">
<title>public.users</title>
<g id="a_node4"><a xlink:href="../../../public/tables/users.html" xlink:title="public.users" target="_top">
<polygon fill="#ffffff" stroke="transparent" points="8,-473.38 8,-531.38 124,-531.38 124,-473.38 8,-473.38"/>
<polygon fill="#f5f5f5" stroke="transparent" points="8,-509.38 8,-531.38 124,-531.38 124,-509.38 8,-509.38"/>
<polygon fill="none" stroke="black" points="8,-509.38 8,-531.38 124,-531.38 124,-509.38 8,-509.38"/>
<text text-anchor="start" x="13" y="-518.58" font-family="Helvetica,sans-Serif" font-weight="bold" font-size="11.00">public.users</text>
<text text-anchor="start" x="85" y="-517.58" font-family="Helvetica,sans-Serif" font-size="11.00">[table]</text>
<polygon fill="none" stroke="black" points="8,-491.38 8,-509.38 124,-509.38 124,-491.38 8,-491.38"/>
<text text-anchor="start" x="11" y="-497.58" font-family="Helvetica,sans-Serif" font-size="11.00">...</text>
<polygon fill="#ffffff" stroke="transparent" points="8,-473.38 8,-491.38 38,-491.38 38,-473.38 8,-473.38"/>
<polygon fill="none" stroke="black" points="8,-473.38 8,-491.38 38,-491.38 38,-473.38 8,-473.38"/>
<text text-anchor="start" x="11" y="-479.58" font-family="Helvetica,sans-Serif" font-size="11.00"> &#160;</text>
<polygon fill="#ffffff" stroke="transparent" points="38,-473.38 38,-491.38 87,-491.38 87,-473.38 38,-473.38"/>
<polygon fill="none" stroke="black" points="38,-473.38 38,-491.38 87,-491.38 87,-473.38 38,-473.38"/>
<text text-anchor="start" x="50" y="-479.58" font-family="Helvetica,sans-Serif" font-size="11.00">0 rows</text>
<polygon fill="#ffffff" stroke="transparent" points="87,-473.38 87,-491.38 124,-491.38 124,-473.38 87,-473.38"/>
<polygon fill="none" stroke="black" points="87,-473.38 87,-491.38 124,-491.38 124,-473.38 87,-473.38"/>
<text text-anchor="start" x="99" y="-479.58" font-family="Helvetica,sans-Serif" font-size="11.00">35 &gt;</text>
</a>
</g>
</g>
<!-- planting_seasons&#45;&gt;public.users -->
<g id="edge33" class="edge">
<title>planting_seasons:w&#45;&gt;public.users:e</title>
<path fill="none" stroke="black" d="M457.21,-901.63C433.83,-884.89 404.6,-866.92 376,-855.38 287.25,-819.55 235.96,-876.59 165,-812.38 83.66,-738.76 69.14,-599.09 67.01,-535.4"/>
<polygon fill="black" stroke="black" points="462.44,-905.48 466.74,-913.12 465.65,-907.85 468.87,-910.23 468.87,-910.23 468.87,-910.23 465.65,-907.85 471.01,-907.33 462.44,-905.48 462.44,-905.48"/>
<ellipse fill="none" stroke="black" cx="459.86" cy="-903.58" rx="3.2" ry="3.2"/>
</g>
<!-- planting_seasons&#45;&gt;public.users -->
<g id="edge34" class="edge">
<title>planting_seasons:w&#45;&gt;public.users:e</title>
<path fill="none" stroke="black" d="M440.18,-902.39C420.38,-889.94 398.01,-877.26 376,-868.38 287.25,-832.55 235.96,-889.59 165,-825.38 80.67,-749.06 68.17,-601.76 66.83,-535.7"/>
<polygon fill="black" stroke="black" points="445.73,-905.96 450.52,-913.31 449.1,-908.12 452.47,-910.28 452.47,-910.28 452.47,-910.28 449.1,-908.12 454.41,-907.25 445.73,-905.96 445.73,-905.96"/>
<ellipse fill="none" stroke="black" cx="443.04" cy="-904.23" rx="3.2" ry="3.2"/>
</g>
<!-- planting_sites -->
<g id="node5" class="node">
<title>planting_sites</title>
<g id="a_node5"><a xlink:href="../../tables/planting_sites.html" xlink:title="planting_sites" target="_top">
<polygon fill="#ffffff" stroke="transparent" points="207.5,-414.38 207.5,-472.38 333.5,-472.38 333.5,-414.38 207.5,-414.38"/>
<polygon fill="#f5f5f5" stroke="transparent" points="207.5,-450.38 207.5,-472.38 333.5,-472.38 333.5,-450.38 207.5,-450.38"/>
<polygon fill="none" stroke="black" points="207.5,-450.38 207.5,-472.38 333.5,-472.38 333.5,-450.38 207.5,-450.38"/>
<text text-anchor="start" x="212.5" y="-459.58" font-family="Helvetica,sans-Serif" font-weight="bold" font-size="11.00">planting_sites</text>
<text text-anchor="start" x="294.5" y="-458.58" font-family="Helvetica,sans-Serif" font-size="11.00">[table]</text>
<polygon fill="none" stroke="black" points="207.5,-432.38 207.5,-450.38 333.5,-450.38 333.5,-432.38 207.5,-432.38"/>
<text text-anchor="start" x="210.5" y="-438.58" font-family="Helvetica,sans-Serif" font-size="11.00">...</text>
<polygon fill="#ffffff" stroke="transparent" points="207.5,-414.38 207.5,-432.38 260.5,-432.38 260.5,-414.38 207.5,-414.38"/>
<polygon fill="none" stroke="black" points="207.5,-414.38 207.5,-432.38 260.5,-432.38 260.5,-414.38 207.5,-414.38"/>
<text text-anchor="start" x="210.5" y="-420.58" font-family="Helvetica,sans-Serif" font-size="11.00">&lt; 6</text>
<polygon fill="#ffffff" stroke="transparent" points="260.5,-414.38 260.5,-432.38 289.5,-432.38 289.5,-414.38 260.5,-414.38"/>
<polygon fill="none" stroke="black" points="260.5,-414.38 260.5,-432.38 289.5,-432.38 289.5,-414.38 260.5,-414.38"/>
<text text-anchor="start" x="279.5" y="-420.58" font-family="Helvetica,sans-Serif" font-size="11.00"> &#160;</text>
<polygon fill="#ffffff" stroke="transparent" points="289.5,-414.38 289.5,-432.38 333.5,-432.38 333.5,-414.38 289.5,-414.38"/>
<polygon fill="none" stroke="black" points="289.5,-414.38 289.5,-432.38 333.5,-432.38 333.5,-414.38 289.5,-414.38"/>
<text text-anchor="start" x="308.5" y="-420.58" font-family="Helvetica,sans-Serif" font-size="11.00">14 &gt;</text>
</a>
</g>
</g>
<!-- planting_seasons&#45;&gt;planting_sites -->
<g id="edge35" class="edge">
<title>planting_seasons:w&#45;&gt;planting_sites:e</title>
<path fill="none" stroke="black" d="M487.32,-896.49C467.58,-843.69 434.99,-755.23 409,-678.38 373.63,-573.78 444.91,-441.38 334.5,-441.38"/>
<polygon fill="black" stroke="black" points="489.61,-902.58 489.04,-911.33 491.01,-906.33 492.41,-910.07 492.41,-910.07 492.41,-910.07 491.01,-906.33 495.78,-908.81 489.61,-902.58 489.61,-902.58"/>
<ellipse fill="none" stroke="black" cx="488.48" cy="-899.58" rx="3.2" ry="3.2"/>
</g>
<!-- planting_season_statuses -->
<g id="node15" class="node">
<title>planting_season_statuses</title>
<g id="a_node15"><a xlink:href="../../tables/planting_season_statuses.html" xlink:title="planting_season_statuses" target="_top">
<polygon fill="#ffffff" stroke="transparent" points="173,-950.38 173,-1008.38 368,-1008.38 368,-950.38 173,-950.38"/>
<polygon fill="#f5f5f5" stroke="transparent" points="173.5,-986.38 173.5,-1008.38 368.5,-1008.38 368.5,-986.38 173.5,-986.38"/>
<polygon fill="none" stroke="black" points="173.5,-986.38 173.5,-1008.38 368.5,-1008.38 368.5,-986.38 173.5,-986.38"/>
<text text-anchor="start" x="178.5" y="-995.58" font-family="Helvetica,sans-Serif" font-weight="bold" font-size="11.00">planting_season_statuses</text>
<text text-anchor="start" x="329.5" y="-994.58" font-family="Helvetica,sans-Serif" font-size="11.00">[table]</text>
<polygon fill="none" stroke="black" points="173.5,-968.38 173.5,-986.38 368.5,-986.38 368.5,-968.38 173.5,-968.38"/>
<text text-anchor="start" x="176.5" y="-974.58" font-family="Helvetica,sans-Serif" font-size="11.00">...</text>
<polygon fill="#ffffff" stroke="transparent" points="173.5,-950.38 173.5,-968.38 259.5,-968.38 259.5,-950.38 173.5,-950.38"/>
<polygon fill="none" stroke="black" points="173.5,-950.38 173.5,-968.38 259.5,-968.38 259.5,-950.38 173.5,-950.38"/>
<text text-anchor="start" x="176.5" y="-956.58" font-family="Helvetica,sans-Serif" font-size="11.00"> &#160;</text>
<polygon fill="#ffffff" stroke="transparent" points="259.5,-950.38 259.5,-968.38 309.5,-968.38 309.5,-950.38 259.5,-950.38"/>
<polygon fill="none" stroke="black" points="259.5,-950.38 259.5,-968.38 309.5,-968.38 309.5,-950.38 259.5,-950.38"/>
<text text-anchor="start" x="299.5" y="-956.58" font-family="Helvetica,sans-Serif" font-size="11.00"> &#160;</text>
<polygon fill="#ffffff" stroke="transparent" points="309.5,-950.38 309.5,-968.38 368.5,-968.38 368.5,-950.38 309.5,-950.38"/>
<polygon fill="none" stroke="black" points="309.5,-950.38 309.5,-968.38 368.5,-968.38 368.5,-950.38 309.5,-950.38"/>
<text text-anchor="start" x="349.5" y="-956.58" font-family="Helvetica,sans-Serif" font-size="11.00">1 &gt;</text>
</a>
</g>
</g>
<!-- planting_seasons&#45;&gt;planting_season_statuses -->
<g id="edge36" class="edge">
<title>planting_seasons:w&#45;&gt;planting_season_statuses:e</title>
<path fill="none" stroke="black" d="M410.74,-973.25C397.04,-975.77 383,-977.38 369.5,-977.38"/>
<polygon fill="black" stroke="black" points="417.02,-971.95 425.58,-973.86 420.94,-971.14 424.86,-970.33 424.86,-970.33 424.86,-970.33 420.94,-971.14 424.13,-966.81 417.02,-971.95 417.02,-971.95"/>
<ellipse fill="none" stroke="black" cx="413.89" cy="-972.6" rx="3.2" ry="3.2"/>
</g>
<!-- deliveries -->
<g id="node3" class="node">
<title>deliveries</title>
<g id="a_node3"><a xlink:href="../../tables/deliveries.html" xlink:title="deliveries" target="_top">
<polygon fill="#ffffff" stroke="transparent" points="1040,-871.38 1040,-929.38 1142,-929.38 1142,-871.38 1040,-871.38"/>
<polygon fill="#f5f5f5" stroke="transparent" points="1040,-907.38 1040,-929.38 1142,-929.38 1142,-907.38 1040,-907.38"/>
<polygon fill="none" stroke="black" points="1040,-907.38 1040,-929.38 1142,-929.38 1142,-907.38 1040,-907.38"/>
<text text-anchor="start" x="1045" y="-916.58" font-family="Helvetica,sans-Serif" font-weight="bold" font-size="11.00">deliveries</text>
<text text-anchor="start" x="1103" y="-915.58" font-family="Helvetica,sans-Serif" font-size="11.00">[table]</text>
<polygon fill="none" stroke="black" points="1040,-889.38 1040,-907.38 1142,-907.38 1142,-889.38 1040,-889.38"/>
<text text-anchor="start" x="1043" y="-895.58" font-family="Helvetica,sans-Serif" font-size="11.00">...</text>
<polygon fill="#ffffff" stroke="transparent" points="1040,-871.38 1040,-889.38 1084,-889.38 1084,-871.38 1040,-871.38"/>
<polygon fill="none" stroke="black" points="1040,-871.38 1040,-889.38 1084,-889.38 1084,-871.38 1040,-871.38"/>
<text text-anchor="start" x="1043" y="-877.58" font-family="Helvetica,sans-Serif" font-size="11.00">&lt; 5</text>
<polygon fill="#ffffff" stroke="transparent" points="1084,-871.38 1084,-889.38 1108,-889.38 1108,-871.38 1084,-871.38"/>
<polygon fill="none" stroke="black" points="1084,-871.38 1084,-889.38 1108,-889.38 1108,-871.38 1084,-871.38"/>
<text text-anchor="start" x="1098" y="-877.58" font-family="Helvetica,sans-Serif" font-size="11.00"> &#160;</text>
<polygon fill="#ffffff" stroke="transparent" points="1108,-871.38 1108,-889.38 1142,-889.38 1142,-871.38 1108,-871.38"/>
<polygon fill="none" stroke="black" points="1108,-871.38 1108,-889.38 1142,-889.38 1142,-871.38 1108,-871.38"/>
<text text-anchor="start" x="1123" y="-877.58" font-family="Helvetica,sans-Serif" font-size="11.00">2 &gt;</text>
</a>
</g>
</g>
<!-- deliveries&#45;&gt;nursery.withdrawals -->
<g id="edge6" class="edge">
<title>deliveries:w&#45;&gt;nursery.withdrawals:e</title>
<path fill="none" stroke="black" d="M1028.51,-898.75C957.05,-903.91 945.36,-961.38 868,-961.38"/>
<polygon fill="black" stroke="black" points="1038.06,-894.41 1038.34,-902.4 1036.74,-902.46 1036.46,-894.46 1038.06,-894.41"/>
<polyline fill="none" stroke="black" points="1039,-898.38 1035,-898.52 "/>
<ellipse fill="none" stroke="black" cx="1031.8" cy="-898.63" rx="3.2" ry="3.2"/>
</g>
<!-- deliveries&#45;&gt;public.users -->
<g id="edge2" class="edge">
<title>deliveries:w&#45;&gt;public.users:e</title>
<path fill="none" stroke="black" d="M1024.57,-897.35C856.91,-885.55 808.3,-888.3 636,-860.38 582.55,-851.71 205.51,-771.3 165,-735.38 104.81,-681.99 81.12,-586.64 72.15,-535.79"/>
<polygon fill="black" stroke="black" points="1031.02,-897.81 1038.74,-901.97 1035.01,-898.09 1039,-898.38 1039,-898.38 1039,-898.38 1035.01,-898.09 1039.26,-894.78 1031.02,-897.81 1031.02,-897.81"/>
<ellipse fill="none" stroke="black" cx="1027.83" cy="-897.58" rx="3.2" ry="3.2"/>
</g>
<!-- deliveries&#45;&gt;public.users -->
<g id="edge3" class="edge">
<title>deliveries:w&#45;&gt;public.users:e</title>
<path fill="none" stroke="black" d="M1024.57,-898.38C856.91,-898.55 808.3,-901.3 636,-873.38 582.55,-864.71 205.51,-784.3 165,-748.38 101.37,-691.94 78.53,-588.6 70.75,-535.62"/>
<polygon fill="black" stroke="black" points="1031,-898.38 1039,-901.98 1035,-898.38 1039,-898.38 1039,-898.38 1039,-898.38 1035,-898.38 1039,-894.78 1031,-898.38 1031,-898.38"/>
<ellipse fill="none" stroke="black" cx="1027.8" cy="-898.38" rx="3.2" ry="3.2"/>
</g>
<!-- deliveries&#45;&gt;public.users -->
<g id="edge5" class="edge">
<title>deliveries:w&#45;&gt;public.users:e</title>
<path fill="none" stroke="black" d="M1024.57,-899.42C856.91,-911.55 808.3,-914.3 636,-886.38 582.55,-877.71 205.51,-797.3 165,-761.38 98.28,-702.2 76.4,-591.44 69.72,-535.6"/>
<polygon fill="black" stroke="black" points="1031.02,-898.95 1039.26,-901.97 1035.01,-898.66 1039,-898.38 1039,-898.38 1039,-898.38 1035.01,-898.66 1038.74,-894.78 1031.02,-898.95 1031.02,-898.95"/>
<ellipse fill="none" stroke="black" cx="1027.83" cy="-899.18" rx="3.2" ry="3.2"/>
</g>
<!-- deliveries&#45;&gt;planting_sites -->
<g id="edge4" class="edge">
<title>deliveries:w&#45;&gt;planting_sites:e</title>
<path fill="none" stroke="black" d="M1025.23,-894.13C979.3,-864.08 975.64,-683.97 930,-654.38 808.06,-575.3 748.32,-653.17 603,-655.38 516.79,-656.68 479.28,-705.33 409,-655.38 367.96,-626.2 384.85,-441.38 334.5,-441.38"/>
<polygon fill="black" stroke="black" points="1031.36,-896.02 1037.94,-901.82 1035.18,-897.2 1039,-898.38 1039,-898.38 1039,-898.38 1035.18,-897.2 1040.06,-894.94 1031.36,-896.02 1031.36,-896.02"/>
<ellipse fill="none" stroke="black" cx="1028.3" cy="-895.07" rx="3.2" ry="3.2"/>
</g>
<!-- planting_sites&#45;&gt;public.users -->
<g id="edge39" class="edge">
<title>planting_sites:w&#45;&gt;public.users:e</title>
<path fill="none" stroke="black" d="M191.99,-441.07C161.43,-442.39 131.13,-455.53 108.02,-469.35"/>
<polygon fill="black" stroke="black" points="198.5,-441.21 206.42,-444.97 202.5,-441.29 206.5,-441.38 206.5,-441.38 206.5,-441.38 202.5,-441.29 206.58,-437.78 198.5,-441.21 198.5,-441.21"/>
<ellipse fill="none" stroke="black" cx="195.3" cy="-441.14" rx="3.2" ry="3.2"/>
</g>
<!-- planting_sites&#45;&gt;public.users -->
<g id="edge40" class="edge">
<title>planting_sites:w&#45;&gt;public.users:e</title>
<path fill="none" stroke="black" d="M191.95,-443.66C168.56,-448.52 145.33,-458.75 125.36,-469.36"/>
<polygon fill="black" stroke="black" points="198.6,-442.62 207.06,-444.93 202.55,-442 206.5,-441.38 206.5,-441.38 206.5,-441.38 202.55,-442 205.94,-437.82 198.6,-442.62 198.6,-442.62"/>
<ellipse fill="none" stroke="black" cx="195.44" cy="-443.11" rx="3.2" ry="3.2"/>
</g>
<!-- draft_planting_sites -->
<g id="node6" class="node">
<title>draft_planting_sites</title>
<g id="a_node6"><a xlink:href="../../tables/draft_planting_sites.html" xlink:title="draft_planting_sites" target="_top">
<polygon fill="#ffffff" stroke="transparent" points="190,-871.38 190,-929.38 351,-929.38 351,-871.38 190,-871.38"/>
<polygon fill="#f5f5f5" stroke="transparent" points="190.5,-907.38 190.5,-929.38 351.5,-929.38 351.5,-907.38 190.5,-907.38"/>
<polygon fill="none" stroke="black" points="190.5,-907.38 190.5,-929.38 351.5,-929.38 351.5,-907.38 190.5,-907.38"/>
<text text-anchor="start" x="195.5" y="-916.58" font-family="Helvetica,sans-Serif" font-weight="bold" font-size="11.00">draft_planting_sites</text>
<text text-anchor="start" x="312.5" y="-915.58" font-family="Helvetica,sans-Serif" font-size="11.00">[table]</text>
<polygon fill="none" stroke="black" points="190.5,-889.38 190.5,-907.38 351.5,-907.38 351.5,-889.38 190.5,-889.38"/>
<text text-anchor="start" x="193.5" y="-895.58" font-family="Helvetica,sans-Serif" font-size="11.00">...</text>
<polygon fill="#ffffff" stroke="transparent" points="190.5,-871.38 190.5,-889.38 268.5,-889.38 268.5,-871.38 190.5,-871.38"/>
<polygon fill="none" stroke="black" points="190.5,-871.38 190.5,-889.38 268.5,-889.38 268.5,-871.38 190.5,-871.38"/>
<text text-anchor="start" x="193.5" y="-877.58" font-family="Helvetica,sans-Serif" font-size="11.00">&lt; 6</text>
<polygon fill="#ffffff" stroke="transparent" points="268.5,-871.38 268.5,-889.38 309.5,-889.38 309.5,-871.38 268.5,-871.38"/>
<polygon fill="none" stroke="black" points="268.5,-871.38 268.5,-889.38 309.5,-889.38 309.5,-871.38 268.5,-871.38"/>
<text text-anchor="start" x="299.5" y="-877.58" font-family="Helvetica,sans-Serif" font-size="11.00"> &#160;</text>
<polygon fill="#ffffff" stroke="transparent" points="309.5,-871.38 309.5,-889.38 351.5,-889.38 351.5,-871.38 309.5,-871.38"/>
<polygon fill="none" stroke="black" points="309.5,-871.38 309.5,-889.38 351.5,-889.38 351.5,-871.38 309.5,-871.38"/>
<text text-anchor="start" x="341.5" y="-877.58" font-family="Helvetica,sans-Serif" font-size="11.00"> &#160;</text>
</a>
</g>
</g>
<!-- draft_planting_sites&#45;&gt;public.users -->
<g id="edge7" class="edge">
<title>draft_planting_sites:w&#45;&gt;public.users:e</title>
<path fill="none" stroke="black" d="M175.5,-894.32C110.18,-860.21 79.75,-623.82 70.34,-535.5"/>
<polygon fill="black" stroke="black" points="181.82,-896.15 188.5,-901.83 185.66,-897.26 189.5,-898.38 189.5,-898.38 189.5,-898.38 185.66,-897.26 190.5,-894.92 181.82,-896.15 181.82,-896.15"/>
<ellipse fill="none" stroke="black" cx="178.74" cy="-895.26" rx="3.2" ry="3.2"/>
</g>
<!-- draft_planting_sites&#45;&gt;public.users -->
<g id="edge8" class="edge">
<title>draft_planting_sites:w&#45;&gt;public.users:e</title>
<path fill="none" stroke="black" d="M175.22,-896.15C108.68,-869.8 78.43,-625.47 69.75,-535.41"/>
<polygon fill="black" stroke="black" points="181.6,-897.14 188.95,-901.93 185.55,-897.76 189.5,-898.38 189.5,-898.38 189.5,-898.38 185.55,-897.76 190.05,-894.82 181.6,-897.14 181.6,-897.14"/>
<ellipse fill="none" stroke="black" cx="178.43" cy="-896.65" rx="3.2" ry="3.2"/>
</g>
<!-- monitoring_plot_histories -->
<g id="node7" class="node">
<title>monitoring_plot_histories</title>
<g id="a_node7"><a xlink:href="../../tables/monitoring_plot_histories.html" xlink:title="monitoring_plot_histories" target="_top">
<polygon fill="#ffffff" stroke="transparent" points="1260,-274.38 1260,-332.38 1457,-332.38 1457,-274.38 1260,-274.38"/>
<polygon fill="#f5f5f5" stroke="transparent" points="1260.5,-310.38 1260.5,-332.38 1457.5,-332.38 1457.5,-310.38 1260.5,-310.38"/>
<polygon fill="none" stroke="black" points="1260.5,-310.38 1260.5,-332.38 1457.5,-332.38 1457.5,-310.38 1260.5,-310.38"/>
<text text-anchor="start" x="1265.5" y="-319.58" font-family="Helvetica,sans-Serif" font-weight="bold" font-size="11.00">monitoring_plot_histories</text>
<text text-anchor="start" x="1418.5" y="-318.58" font-family="Helvetica,sans-Serif" font-size="11.00">[table]</text>
<polygon fill="none" stroke="black" points="1260.5,-292.38 1260.5,-310.38 1457.5,-310.38 1457.5,-292.38 1260.5,-292.38"/>
<text text-anchor="start" x="1263.5" y="-298.58" font-family="Helvetica,sans-Serif" font-size="11.00">...</text>
<polygon fill="#ffffff" stroke="transparent" points="1260.5,-274.38 1260.5,-292.38 1352.5,-292.38 1352.5,-274.38 1260.5,-274.38"/>
<polygon fill="none" stroke="black" points="1260.5,-274.38 1260.5,-292.38 1352.5,-292.38 1352.5,-274.38 1260.5,-274.38"/>
<text text-anchor="start" x="1263.5" y="-280.58" font-family="Helvetica,sans-Serif" font-size="11.00">&lt; 6</text>
<polygon fill="#ffffff" stroke="transparent" points="1352.5,-274.38 1352.5,-292.38 1400.5,-292.38 1400.5,-274.38 1352.5,-274.38"/>
<polygon fill="none" stroke="black" points="1352.5,-274.38 1352.5,-292.38 1400.5,-292.38 1400.5,-274.38 1352.5,-274.38"/>
<text text-anchor="start" x="1390.5" y="-280.58" font-family="Helvetica,sans-Serif" font-size="11.00"> &#160;</text>
<polygon fill="#ffffff" stroke="transparent" points="1400.5,-274.38 1400.5,-292.38 1457.5,-292.38 1457.5,-274.38 1400.5,-274.38"/>
<polygon fill="none" stroke="black" points="1400.5,-274.38 1400.5,-292.38 1457.5,-292.38 1457.5,-274.38 1400.5,-274.38"/>
<text text-anchor="start" x="1438.5" y="-280.58" font-family="Helvetica,sans-Serif" font-size="11.00">3 &gt;</text>
</a>
</g>
</g>
<!-- monitoring_plot_histories&#45;&gt;public.users -->
<g id="edge9" class="edge">
<title>monitoring_plot_histories:w&#45;&gt;public.users:e</title>
<path fill="none" stroke="black" d="M1244.97,-298.69C1212.15,-283.34 1261.47,-206.09 1219,-173.38 1142.33,-114.32 880.78,-152.38 784,-152.38 784,-152.38 784,-152.38 505,-152.38 429.19,-152.38 224.01,-132.78 165,-180.38 119.29,-217.25 84.94,-394.72 72.3,-469.28"/>
<polygon fill="black" stroke="black" points="1251.63,-299.92 1258.85,-304.92 1255.57,-300.65 1259.5,-301.38 1259.5,-301.38 1259.5,-301.38 1255.57,-300.65 1260.15,-297.83 1251.63,-299.92 1251.63,-299.92"/>
<ellipse fill="none" stroke="black" cx="1248.49" cy="-299.34" rx="3.2" ry="3.2"/>
</g>
<!-- monitoring_plot_histories&#45;&gt;planting_sites -->
<g id="edge12" class="edge">
<title>monitoring_plot_histories:w&#45;&gt;planting_sites:e</title>
<path fill="none" stroke="black" d="M1245.37,-304.72C1237.04,-309.32 1232.4,-317.46 1219,-321.38 1211.18,-323.66 643.1,-381.38 636,-385.38 615.01,-397.19 624.34,-417.2 603,-428.38 550.08,-456.08 394.24,-441.38 334.5,-441.38"/>
<polygon fill="black" stroke="black" points="1251.72,-303.22 1260.33,-304.88 1255.61,-302.3 1259.5,-301.38 1259.5,-301.38 1259.5,-301.38 1255.61,-302.3 1258.67,-297.87 1251.72,-303.22 1251.72,-303.22"/>
<ellipse fill="none" stroke="black" cx="1248.6" cy="-303.96" rx="3.2" ry="3.2"/>
</g>
<!-- monitoring_plots -->
<g id="node8" class="node">
<title>monitoring_plots</title>
<g id="a_node8"><a xlink:href="../../tables/monitoring_plots.html" xlink:title="monitoring_plots" target="_top">
<polygon fill="#ffffff" stroke="transparent" points="1018.5,-184.38 1018.5,-242.38 1163.5,-242.38 1163.5,-184.38 1018.5,-184.38"/>
<polygon fill="#f5f5f5" stroke="transparent" points="1019,-220.38 1019,-242.38 1164,-242.38 1164,-220.38 1019,-220.38"/>
<polygon fill="none" stroke="black" points="1019,-220.38 1019,-242.38 1164,-242.38 1164,-220.38 1019,-220.38"/>
<text text-anchor="start" x="1024" y="-229.58" font-family="Helvetica,sans-Serif" font-weight="bold" font-size="11.00">monitoring_plots</text>
<text text-anchor="start" x="1125" y="-228.58" font-family="Helvetica,sans-Serif" font-size="11.00">[table]</text>
<polygon fill="none" stroke="black" points="1019,-202.38 1019,-220.38 1164,-220.38 1164,-202.38 1019,-202.38"/>
<text text-anchor="start" x="1022" y="-208.58" font-family="Helvetica,sans-Serif" font-size="11.00">...</text>
<polygon fill="#ffffff" stroke="transparent" points="1019,-184.38 1019,-202.38 1082,-202.38 1082,-184.38 1019,-184.38"/>
<polygon fill="none" stroke="black" points="1019,-184.38 1019,-202.38 1082,-202.38 1082,-184.38 1019,-184.38"/>
<text text-anchor="start" x="1022" y="-190.58" font-family="Helvetica,sans-Serif" font-size="11.00">&lt; 5</text>
<polygon fill="#ffffff" stroke="transparent" points="1082,-184.38 1082,-202.38 1115,-202.38 1115,-184.38 1082,-184.38"/>
<polygon fill="none" stroke="black" points="1082,-184.38 1082,-202.38 1115,-202.38 1115,-184.38 1082,-184.38"/>
<text text-anchor="start" x="1105" y="-190.58" font-family="Helvetica,sans-Serif" font-size="11.00"> &#160;</text>
<polygon fill="#ffffff" stroke="transparent" points="1115,-184.38 1115,-202.38 1164,-202.38 1164,-184.38 1115,-184.38"/>
<polygon fill="none" stroke="black" points="1115,-184.38 1115,-202.38 1164,-202.38 1164,-184.38 1115,-184.38"/>
<text text-anchor="start" x="1139" y="-190.58" font-family="Helvetica,sans-Serif" font-size="11.00">18 &gt;</text>
</a>
</g>
</g>
<!-- monitoring_plot_histories&#45;&gt;monitoring_plots -->
<g id="edge10" class="edge">
<title>monitoring_plot_histories:w&#45;&gt;monitoring_plots:e</title>
<path fill="none" stroke="black" d="M1245.15,-299.15C1204.83,-285.29 1217.56,-211.38 1165,-211.38"/>
<polygon fill="black" stroke="black" points="1251.59,-300.15 1258.95,-304.93 1255.55,-300.76 1259.5,-301.38 1259.5,-301.38 1259.5,-301.38 1255.55,-300.76 1260.05,-297.82 1251.59,-300.15 1251.59,-300.15"/>
<ellipse fill="none" stroke="black" cx="1248.43" cy="-299.66" rx="3.2" ry="3.2"/>
</g>
<!-- planting_site_histories -->
<g id="node9" class="node">
<title>planting_site_histories</title>
<g id="a_node9"><a xlink:href="../../tables/planting_site_histories.html" xlink:title="planting_site_histories" target="_top">
<polygon fill="#ffffff" stroke="transparent" points="417,-360.38 417,-418.38 595,-418.38 595,-360.38 417,-360.38"/>
<polygon fill="#f5f5f5" stroke="transparent" points="417,-396.38 417,-418.38 595,-418.38 595,-396.38 417,-396.38"/>
<polygon fill="none" stroke="black" points="417,-396.38 417,-418.38 595,-418.38 595,-396.38 417,-396.38"/>
<text text-anchor="start" x="422" y="-405.58" font-family="Helvetica,sans-Serif" font-weight="bold" font-size="11.00">planting_site_histories</text>
<text text-anchor="start" x="556" y="-404.58" font-family="Helvetica,sans-Serif" font-size="11.00">[table]</text>
<polygon fill="none" stroke="black" points="417,-378.38 417,-396.38 595,-396.38 595,-378.38 417,-378.38"/>
<text text-anchor="start" x="420" y="-384.58" font-family="Helvetica,sans-Serif" font-size="11.00">...</text>
<polygon fill="#ffffff" stroke="transparent" points="417,-360.38 417,-378.38 499,-378.38 499,-360.38 417,-360.38"/>
<polygon fill="none" stroke="black" points="417,-360.38 417,-378.38 499,-378.38 499,-360.38 417,-360.38"/>
<text text-anchor="start" x="420" y="-366.58" font-family="Helvetica,sans-Serif" font-size="11.00">&lt; 2</text>
<polygon fill="#ffffff" stroke="transparent" points="499,-360.38 499,-378.38 542,-378.38 542,-360.38 499,-360.38"/>
<polygon fill="none" stroke="black" points="499,-360.38 499,-378.38 542,-378.38 542,-360.38 499,-360.38"/>
<text text-anchor="start" x="532" y="-366.58" font-family="Helvetica,sans-Serif" font-size="11.00"> &#160;</text>
<polygon fill="#ffffff" stroke="transparent" points="542,-360.38 542,-378.38 595,-378.38 595,-360.38 542,-360.38"/>
<polygon fill="none" stroke="black" points="542,-360.38 542,-378.38 595,-378.38 595,-360.38 542,-360.38"/>
<text text-anchor="start" x="576" y="-366.58" font-family="Helvetica,sans-Serif" font-size="11.00">6 &gt;</text>
</a>
</g>
</g>
<!-- monitoring_plot_histories&#45;&gt;planting_site_histories -->
<g id="edge11" class="edge">
<title>monitoring_plot_histories:w&#45;&gt;planting_site_histories:e</title>
<path fill="none" stroke="black" d="M1244.79,-301.66C1138.66,-305 697.81,-336.69 636,-359.38 615.63,-366.85 617.7,-387.38 596,-387.38"/>
<polygon fill="black" stroke="black" points="1251.5,-301.53 1259.57,-304.97 1255.5,-301.45 1259.5,-301.38 1259.5,-301.38 1259.5,-301.38 1255.5,-301.45 1259.43,-297.78 1251.5,-301.53 1251.5,-301.53"/>
<ellipse fill="none" stroke="black" cx="1248.3" cy="-301.59" rx="3.2" ry="3.2"/>
</g>
<!-- substrata -->
<g id="node10" class="node">
<title>substrata</title>
<g id="a_node10"><a xlink:href="../../tables/substrata.html" xlink:title="substrata" target="_top">
<polygon fill="#ffffff" stroke="transparent" points="732.5,-396.38 732.5,-454.38 833.5,-454.38 833.5,-396.38 732.5,-396.38"/>
<polygon fill="#f5f5f5" stroke="transparent" points="733,-432.38 733,-454.38 834,-454.38 834,-432.38 733,-432.38"/>
<polygon fill="none" stroke="black" points="733,-432.38 733,-454.38 834,-454.38 834,-432.38 733,-432.38"/>
<text text-anchor="start" x="738" y="-441.58" font-family="Helvetica,sans-Serif" font-weight="bold" font-size="11.00">substrata</text>
<text text-anchor="start" x="795" y="-440.58" font-family="Helvetica,sans-Serif" font-size="11.00">[table]</text>
<polygon fill="none" stroke="black" points="733,-414.38 733,-432.38 834,-432.38 834,-414.38 733,-414.38"/>
<text text-anchor="start" x="736" y="-420.58" font-family="Helvetica,sans-Serif" font-size="11.00">...</text>
<polygon fill="#ffffff" stroke="transparent" points="733,-396.38 733,-414.38 774,-414.38 774,-396.38 733,-396.38"/>
<polygon fill="none" stroke="black" points="733,-396.38 733,-414.38 774,-414.38 774,-396.38 733,-396.38"/>
<text text-anchor="start" x="736" y="-402.58" font-family="Helvetica,sans-Serif" font-size="11.00">&lt; 5</text>
<polygon fill="#ffffff" stroke="transparent" points="774,-396.38 774,-414.38 796,-414.38 796,-396.38 774,-396.38"/>
<polygon fill="none" stroke="black" points="774,-396.38 774,-414.38 796,-414.38 796,-396.38 774,-396.38"/>
<text text-anchor="start" x="786" y="-402.58" font-family="Helvetica,sans-Serif" font-size="11.00"> &#160;</text>
<polygon fill="#ffffff" stroke="transparent" points="796,-396.38 796,-414.38 834,-414.38 834,-396.38 796,-396.38"/>
<polygon fill="none" stroke="black" points="796,-396.38 796,-414.38 834,-414.38 834,-396.38 796,-396.38"/>
<text text-anchor="start" x="809" y="-402.58" font-family="Helvetica,sans-Serif" font-size="11.00">12 &gt;</text>
</a>
</g>
</g>
<!-- monitoring_plot_histories&#45;&gt;substrata -->
<g id="edge13" class="edge">
<title>monitoring_plot_histories:w&#45;&gt;substrata:e</title>
<path fill="none" stroke="black" d="M1245.33,-305.91C1231.61,-318.29 1242.58,-352.77 1219,-368.38 1147.12,-415.95 921.2,-423.38 835,-423.38"/>
<polygon fill="black" stroke="black" points="1251.88,-303.81 1260.6,-304.8 1255.69,-302.59 1259.5,-301.38 1259.5,-301.38 1259.5,-301.38 1255.69,-302.59 1258.4,-297.95 1251.88,-303.81 1251.88,-303.81"/>
<ellipse fill="none" stroke="black" cx="1248.83" cy="-304.79" rx="3.2" ry="3.2"/>
</g>
<!-- monitoring_plots&#45;&gt;public.users -->
<g id="edge14" class="edge">
<title>monitoring_plots:w&#45;&gt;public.users:e</title>
<path fill="none" stroke="black" d="M1003.46,-210.37C868.34,-200.61 238.68,-147.15 165,-200.38 78.55,-262.82 67.12,-404.44 66.44,-469.14"/>
<polygon fill="black" stroke="black" points="1010.02,-210.83 1017.75,-214.97 1014.01,-211.1 1018,-211.38 1018,-211.38 1018,-211.38 1014.01,-211.1 1018.25,-207.78 1010.02,-210.83 1010.02,-210.83"/>
<ellipse fill="none" stroke="black" cx="1006.83" cy="-210.61" rx="3.2" ry="3.2"/>
</g>
<!-- monitoring_plots&#45;&gt;public.users -->
<g id="edge15" class="edge">
<title>monitoring_plots:w&#45;&gt;public.users:e</title>
<path fill="none" stroke="black" d="M1003.46,-211.91C868.34,-213.61 238.68,-160.15 165,-213.38 81.84,-273.44 68.1,-406.77 66.57,-469.15"/>
<polygon fill="black" stroke="black" points="1010.01,-211.67 1018.13,-214.97 1014,-211.52 1018,-211.38 1018,-211.38 1018,-211.38 1014,-211.52 1017.87,-207.78 1010.01,-211.67 1010.01,-211.67"/>
<ellipse fill="none" stroke="black" cx="1006.81" cy="-211.79" rx="3.2" ry="3.2"/>
</g>
<!-- monitoring_plots&#45;&gt;planting_sites -->
<g id="edge16" class="edge">
<title>monitoring_plots:w&#45;&gt;planting_sites:e</title>
<path fill="none" stroke="black" d="M1003.66,-213.09C968.18,-222.48 972.12,-267.96 930,-286.38 903.29,-298.05 434.5,-335.23 409,-349.38 362.99,-374.9 387.11,-441.38 334.5,-441.38"/>
<polygon fill="black" stroke="black" points="1010.06,-212.32 1018.43,-214.95 1014.03,-211.85 1018,-211.38 1018,-211.38 1018,-211.38 1014.03,-211.85 1017.57,-207.8 1010.06,-212.32 1010.06,-212.32"/>
<ellipse fill="none" stroke="black" cx="1006.88" cy="-212.7" rx="3.2" ry="3.2"/>
</g>
<!-- monitoring_plots&#45;&gt;substrata -->
<g id="edge17" class="edge">
<title>monitoring_plots:w&#45;&gt;substrata:e</title>
<path fill="none" stroke="black" d="M1003.57,-212.7C957.9,-221.9 967.19,-277.29 930,-320.38 889.31,-367.52 897.28,-423.38 835,-423.38"/>
<polygon fill="black" stroke="black" points="1010.03,-212.11 1018.33,-214.96 1014.02,-211.74 1018,-211.38 1018,-211.38 1018,-211.38 1014.02,-211.74 1017.67,-207.79 1010.03,-212.11 1010.03,-212.11"/>
<ellipse fill="none" stroke="black" cx="1006.85" cy="-212.4" rx="3.2" ry="3.2"/>
</g>
<!-- planting_site_histories&#45;&gt;public.users -->
<g id="edge37" class="edge">
<title>planting_site_histories:w&#45;&gt;public.users:e</title>
<path fill="none" stroke="black" d="M401.37,-387.2C300.72,-384.81 262.17,-359.15 165,-403.38 133.96,-417.5 107.39,-446.1 89.77,-468.94"/>
<polygon fill="black" stroke="black" points="408,-387.28 415.96,-390.97 412,-387.33 416,-387.38 416,-387.38 416,-387.38 412,-387.33 416.04,-383.78 408,-387.28 408,-387.28"/>
<ellipse fill="none" stroke="black" cx="404.8" cy="-387.24" rx="3.2" ry="3.2"/>
</g>
<!-- planting_site_histories&#45;&gt;planting_sites -->
<g id="edge38" class="edge">
<title>planting_site_histories:w&#45;&gt;planting_sites:e</title>
<path fill="none" stroke="black" d="M401.42,-389.84C373.13,-400.4 372.35,-441.38 334.5,-441.38"/>
<polygon fill="black" stroke="black" points="408.11,-388.71 416.6,-390.92 412.06,-388.04 416,-387.38 416,-387.38 416,-387.38 412.06,-388.04 415.4,-383.83 408.11,-388.71 408.11,-388.71"/>
<ellipse fill="none" stroke="black" cx="404.96" cy="-389.24" rx="3.2" ry="3.2"/>
</g>
<!-- substrata&#45;&gt;public.users -->
<g id="edge71" class="edge">
<title>substrata:w&#45;&gt;public.users:e</title>
<path fill="none" stroke="black" d="M717.52,-422.6C669.7,-422.45 657.07,-448.71 603,-459.38 435.53,-492.41 233.59,-497.12 132.04,-499.32"/>
<polygon fill="black" stroke="black" points="724.01,-422.95 731.81,-426.97 728.01,-423.16 732,-423.38 732,-423.38 732,-423.38 728.01,-423.16 732.19,-419.78 724.01,-422.95 724.01,-422.95"/>
<ellipse fill="none" stroke="black" cx="720.82" cy="-422.78" rx="3.2" ry="3.2"/>
</g>
<!-- substrata&#45;&gt;public.users -->
<g id="edge72" class="edge">
<title>substrata:w&#45;&gt;public.users:e</title>
<path fill="none" stroke="black" d="M717.52,-425.67C669.7,-435.45 657.07,-461.71 603,-472.38 435.53,-505.41 233.59,-510.12 132.04,-507.57"/>
<polygon fill="black" stroke="black" points="724.1,-424.63 732.56,-426.93 728.05,-424 732,-423.38 732,-423.38 732,-423.38 728.05,-424 731.44,-419.82 724.1,-424.63 724.1,-424.63"/>
<ellipse fill="none" stroke="black" cx="720.94" cy="-425.13" rx="3.2" ry="3.2"/>
</g>
<!-- substrata&#45;&gt;planting_sites -->
<g id="edge73" class="edge">
<title>substrata:w&#45;&gt;planting_sites:e</title>
<path fill="none" stroke="black" d="M717.53,-423.87C670.8,-427.21 656.27,-446.46 603,-452.38 517.3,-461.89 494.99,-458.69 409,-452.38 375.62,-449.92 367.97,-441.38 334.5,-441.38"/>
<polygon fill="black" stroke="black" points="724,-423.65 732.12,-426.97 728,-423.51 732,-423.38 732,-423.38 732,-423.38 728,-423.51 731.88,-419.78 724,-423.65 724,-423.65"/>
<ellipse fill="none" stroke="black" cx="720.81" cy="-423.76" rx="3.2" ry="3.2"/>
</g>
<!-- strata -->
<g id="node21" class="node">
<title>strata</title>
<g id="a_node21"><a xlink:href="../../tables/strata.html" xlink:title="strata" target="_top">
<polygon fill="#ffffff" stroke="transparent" points="466,-254.38 466,-312.38 546,-312.38 546,-254.38 466,-254.38"/>
<polygon fill="#f5f5f5" stroke="transparent" points="466,-290.38 466,-312.38 546,-312.38 546,-290.38 466,-290.38"/>
<polygon fill="none" stroke="black" points="466,-290.38 466,-312.38 546,-312.38 546,-290.38 466,-290.38"/>
<text text-anchor="start" x="470" y="-299.58" font-family="Helvetica,sans-Serif" font-weight="bold" font-size="11.00">strata</text>
<text text-anchor="start" x="507" y="-298.58" font-family="Helvetica,sans-Serif" font-size="11.00">[table]</text>
<polygon fill="none" stroke="black" points="466,-272.38 466,-290.38 546,-290.38 546,-272.38 466,-272.38"/>
<text text-anchor="start" x="469" y="-278.58" font-family="Helvetica,sans-Serif" font-size="11.00">...</text>
<polygon fill="#ffffff" stroke="transparent" points="466,-254.38 466,-272.38 499,-272.38 499,-254.38 466,-254.38"/>
<polygon fill="none" stroke="black" points="466,-254.38 466,-272.38 499,-272.38 499,-254.38 466,-254.38"/>
<text text-anchor="start" x="469" y="-260.58" font-family="Helvetica,sans-Serif" font-size="11.00">&lt; 4</text>
<polygon fill="#ffffff" stroke="transparent" points="499,-254.38 499,-272.38 518,-272.38 518,-254.38 499,-254.38"/>
<polygon fill="none" stroke="black" points="499,-254.38 499,-272.38 518,-272.38 518,-254.38 499,-254.38"/>
<text text-anchor="start" x="508" y="-260.58" font-family="Helvetica,sans-Serif" font-size="11.00"> &#160;</text>
<polygon fill="#ffffff" stroke="transparent" points="518,-254.38 518,-272.38 546,-272.38 546,-254.38 518,-254.38"/>
<polygon fill="none" stroke="black" points="518,-254.38 518,-272.38 546,-272.38 546,-254.38 518,-254.38"/>
<text text-anchor="start" x="527" y="-260.58" font-family="Helvetica,sans-Serif" font-size="11.00">8 &gt;</text>
</a>
</g>
</g>
<!-- substrata&#45;&gt;strata -->
<g id="edge74" class="edge">
<title>substrata:w&#45;&gt;strata:e</title>
<path fill="none" stroke="black" d="M717.69,-421.56C630.23,-403.86 645.59,-275.67 547,-281.38"/>
<polygon fill="black" stroke="black" points="724.06,-422.37 731.55,-426.95 728.03,-422.87 732,-423.38 732,-423.38 732,-423.38 728.03,-422.87 732.45,-419.8 724.06,-422.37 724.06,-422.37"/>
<ellipse fill="none" stroke="black" cx="720.89" cy="-421.96" rx="3.2" ry="3.2"/>
</g>
<!-- substrata&#45;&gt;strata -->
<g id="edge75" class="edge">
<title>substrata:w&#45;&gt;strata:e</title>
<path fill="none" stroke="black" d="M717.42,-423.35C630.26,-416.57 645.49,-288.03 547,-281.38"/>
<polygon fill="black" stroke="black" points="724,-423.36 731.99,-426.98 728,-423.37 732,-423.38 732,-423.38 732,-423.38 728,-423.37 732.01,-419.78 724,-423.36 724,-423.36"/>
<ellipse fill="none" stroke="black" cx="720.8" cy="-423.35" rx="3.2" ry="3.2"/>
</g>
<!-- observation_plots -->
<g id="node11" class="node">
<title>observation_plots</title>
<g id="a_node11"><a xlink:href="../../tables/observation_plots.html" xlink:title="observation_plots" target="_top">
<polygon fill="#ffffff" stroke="transparent" points="1506,-89.38 1506,-147.38 1656,-147.38 1656,-89.38 1506,-89.38"/>
<polygon fill="#f5f5f5" stroke="transparent" points="1506,-125.38 1506,-147.38 1656,-147.38 1656,-125.38 1506,-125.38"/>
<polygon fill="none" stroke="black" points="1506,-125.38 1506,-147.38 1656,-147.38 1656,-125.38 1506,-125.38"/>
<text text-anchor="start" x="1511" y="-134.58" font-family="Helvetica,sans-Serif" font-weight="bold" font-size="11.00">observation_plots</text>
<text text-anchor="start" x="1617" y="-133.58" font-family="Helvetica,sans-Serif" font-size="11.00">[table]</text>
<polygon fill="none" stroke="black" points="1506,-107.38 1506,-125.38 1656,-125.38 1656,-107.38 1506,-107.38"/>
<text text-anchor="start" x="1509" y="-113.58" font-family="Helvetica,sans-Serif" font-size="11.00">...</text>
<polygon fill="#ffffff" stroke="transparent" points="1506,-89.38 1506,-107.38 1571,-107.38 1571,-89.38 1506,-89.38"/>
<polygon fill="none" stroke="black" points="1506,-89.38 1506,-107.38 1571,-107.38 1571,-89.38 1506,-89.38"/>
<text text-anchor="start" x="1509" y="-95.58" font-family="Helvetica,sans-Serif" font-size="11.00">&lt; 8</text>
<polygon fill="#ffffff" stroke="transparent" points="1571,-89.38 1571,-107.38 1606,-107.38 1606,-89.38 1571,-89.38"/>
<polygon fill="none" stroke="black" points="1571,-89.38 1571,-107.38 1606,-107.38 1606,-89.38 1571,-89.38"/>
<text text-anchor="start" x="1596" y="-95.58" font-family="Helvetica,sans-Serif" font-size="11.00"> &#160;</text>
<polygon fill="#ffffff" stroke="transparent" points="1606,-89.38 1606,-107.38 1656,-107.38 1656,-89.38 1606,-89.38"/>
<polygon fill="none" stroke="black" points="1606,-89.38 1606,-107.38 1656,-107.38 1656,-89.38 1606,-89.38"/>
<text text-anchor="start" x="1631" y="-95.58" font-family="Helvetica,sans-Serif" font-size="11.00">12 &gt;</text>
</a>
</g>
</g>
<!-- observation_plots&#45;&gt;public.users -->
<g id="edge18" class="edge">
<title>observation_plots:w&#45;&gt;public.users:e</title>
<path fill="none" stroke="black" d="M1495.09,-105.63C1484.2,-92.67 1479.94,-84.07 1465,-80.38 1303.51,-40.45 1258.35,-49.38 1092,-49.38 1092,-49.38 1092,-49.38 505,-49.38 352.63,-49.38 278.88,7.86 165,-93.38 109.43,-142.77 78.49,-379.96 69.66,-469.19"/>
<polygon fill="black" stroke="black" points="1499.58,-110.49 1502.35,-118.82 1502.29,-113.43 1505,-116.38 1505,-116.38 1505,-116.38 1502.29,-113.43 1507.65,-113.94 1499.58,-110.49 1499.58,-110.49"/>
<ellipse fill="none" stroke="black" cx="1497.41" cy="-108.14" rx="3.2" ry="3.2"/>
</g>
<!-- observation_plots&#45;&gt;public.users -->
<g id="edge19" class="edge">
<title>observation_plots:w&#45;&gt;public.users:e</title>
<path fill="none" stroke="black" d="M1491.78,-109.92C1483.16,-103.87 1478.33,-96.67 1465,-93.38 1303.51,-53.45 1258.35,-62.38 1092,-62.38 1092,-62.38 1092,-62.38 505,-62.38 352.63,-62.38 278.88,-5.14 165,-106.38 110.6,-154.73 79.81,-383.02 70.25,-469.31"/>
<polygon fill="black" stroke="black" points="1497.81,-112.86 1503.42,-119.61 1501.41,-114.62 1505,-116.38 1505,-116.38 1505,-116.38 1501.41,-114.62 1506.58,-113.14 1497.81,-112.86 1497.81,-112.86"/>
<ellipse fill="none" stroke="black" cx="1494.94" cy="-111.46" rx="3.2" ry="3.2"/>
</g>
<!-- observation_plots&#45;&gt;public.users -->
<g id="edge20" class="edge">
<title>observation_plots:w&#45;&gt;public.users:e</title>
<path fill="none" stroke="black" d="M1490.66,-118.03C1482.72,-116.25 1477.75,-109.53 1465,-106.38 1303.51,-66.45 1258.35,-75.38 1092,-75.38 1092,-75.38 1092,-75.38 505,-75.38 352.63,-75.38 278.88,-18.14 165,-119.38 111.91,-166.57 81.3,-385.17 70.98,-469.33"/>
<polygon fill="black" stroke="black" points="1497.05,-117.29 1505.41,-119.95 1501.03,-116.83 1505,-116.38 1505,-116.38 1505,-116.38 1501.03,-116.83 1504.59,-112.8 1497.05,-117.29 1497.05,-117.29"/>
<ellipse fill="none" stroke="black" cx="1493.87" cy="-117.66" rx="3.2" ry="3.2"/>
</g>
<!-- observation_plots&#45;&gt;public.users -->
<g id="edge21" class="edge">
<title>observation_plots:w&#45;&gt;public.users:e</title>
<path fill="none" stroke="black" d="M1493.84,-125.62C1483.85,-131 1479.36,-122.93 1465,-119.38 1303.51,-79.45 1258.35,-88.38 1092,-88.38 1092,-88.38 1092,-88.38 505,-88.38 352.63,-88.38 278.88,-31.14 165,-132.38 113.34,-178.29 82.97,-386.48 71.86,-469.21"/>
<polygon fill="black" stroke="black" points="1498.84,-121.48 1507.3,-119.15 1501.92,-118.93 1505,-116.38 1505,-116.38 1505,-116.38 1501.92,-118.93 1502.7,-113.6 1498.84,-121.48 1498.84,-121.48"/>
<ellipse fill="none" stroke="black" cx="1496.38" cy="-123.52" rx="3.2" ry="3.2"/>
</g>
<!-- observation_plots&#45;&gt;monitoring_plot_histories -->
<g id="edge22" class="edge">
<title>observation_plots:w&#45;&gt;monitoring_plot_histories:e</title>
<path fill="none" stroke="black" d="M1490.74,-118.71C1435.65,-140.13 1537.65,-301.38 1458.5,-301.38"/>
<polygon fill="black" stroke="black" points="1497.11,-117.67 1505.58,-119.93 1501.05,-117.02 1505,-116.38 1505,-116.38 1505,-116.38 1501.05,-117.02 1504.42,-112.82 1497.11,-117.67 1497.11,-117.67"/>
<ellipse fill="none" stroke="black" cx="1493.95" cy="-118.19" rx="3.2" ry="3.2"/>
</g>
<!-- observation_plots&#45;&gt;monitoring_plots -->
<g id="edge23" class="edge">
<title>observation_plots:w&#45;&gt;monitoring_plots:e</title>
<path fill="none" stroke="black" d="M1491.15,-120.96C1478.43,-132.81 1487.45,-164.5 1465,-178.38 1436.48,-196.01 1198.53,-211.38 1165,-211.38"/>
<polygon fill="black" stroke="black" points="1497.4,-118.89 1506.13,-119.79 1501.2,-117.63 1505,-116.38 1505,-116.38 1505,-116.38 1501.2,-117.63 1503.87,-112.96 1497.4,-118.89 1497.4,-118.89"/>
<ellipse fill="none" stroke="black" cx="1494.37" cy="-119.89" rx="3.2" ry="3.2"/>
</g>
<!-- planting_season_allocated_species -->
<g id="node12" class="node">
<title>planting_season_allocated_species</title>
<g id="a_node12"><a xlink:href="../../tables/planting_season_allocated_species.html" xlink:title="planting_season_allocated_species" target="_top">
<polygon fill="#ffffff" stroke="transparent" points="658.5,-1040.38 658.5,-1098.38 907.5,-1098.38 907.5,-1040.38 658.5,-1040.38"/>
<polygon fill="#f5f5f5" stroke="transparent" points="659,-1076.38 659,-1098.38 908,-1098.38 908,-1076.38 659,-1076.38"/>
<polygon fill="none" stroke="black" points="659,-1076.38 659,-1098.38 908,-1098.38 908,-1076.38 659,-1076.38"/>
<text text-anchor="start" x="664" y="-1085.58" font-family="Helvetica,sans-Serif" font-weight="bold" font-size="11.00">planting_season_allocated_species</text>
<text text-anchor="start" x="869" y="-1084.58" font-family="Helvetica,sans-Serif" font-size="11.00">[table]</text>
<polygon fill="none" stroke="black" points="659,-1058.38 659,-1076.38 908,-1076.38 908,-1058.38 659,-1058.38"/>
<text text-anchor="start" x="662" y="-1064.58" font-family="Helvetica,sans-Serif" font-size="11.00">...</text>
<polygon fill="#ffffff" stroke="transparent" points="659,-1040.38 659,-1058.38 781,-1058.38 781,-1040.38 659,-1040.38"/>
<polygon fill="none" stroke="black" points="659,-1040.38 659,-1058.38 781,-1058.38 781,-1040.38 659,-1040.38"/>
<text text-anchor="start" x="662" y="-1046.58" font-family="Helvetica,sans-Serif" font-size="11.00">&lt; 4</text>
<polygon fill="#ffffff" stroke="transparent" points="781,-1040.38 781,-1058.38 844,-1058.38 844,-1040.38 781,-1040.38"/>
<polygon fill="none" stroke="black" points="781,-1040.38 781,-1058.38 844,-1058.38 844,-1040.38 781,-1040.38"/>
<text text-anchor="start" x="834" y="-1046.58" font-family="Helvetica,sans-Serif" font-size="11.00"> &#160;</text>
<polygon fill="#ffffff" stroke="transparent" points="844,-1040.38 844,-1058.38 908,-1058.38 908,-1040.38 844,-1040.38"/>
<polygon fill="none" stroke="black" points="844,-1040.38 844,-1058.38 908,-1058.38 908,-1040.38 844,-1040.38"/>
<text text-anchor="start" x="898" y="-1046.58" font-family="Helvetica,sans-Serif" font-size="11.00"> &#160;</text>
</a>
</g>
</g>
<!-- planting_season_allocated_species&#45;&gt;planting_seasons -->
<g id="edge26" class="edge">
<title>planting_season_allocated_species:w&#45;&gt;planting_seasons:e</title>
<path fill="none" stroke="black" d="M644.74,-1061.72C620.57,-1046.93 574.65,-1006.16 542.5,-976.6"/>
<polygon fill="black" stroke="black" points="650.64,-1064.24 656.59,-1070.69 654.32,-1065.81 658,-1067.38 658,-1067.38 658,-1067.38 654.32,-1065.81 659.41,-1064.06 650.64,-1064.24 650.64,-1064.24"/>
<ellipse fill="none" stroke="black" cx="647.7" cy="-1062.98" rx="3.2" ry="3.2"/>
</g>
<!-- planting_season_allocated_species&#45;&gt;public.users -->
<g id="edge24" class="edge">
<title>planting_season_allocated_species:w&#45;&gt;public.users:e</title>
<path fill="none" stroke="black" d="M643.33,-1067.13C432.87,-1065.76 323.88,-1158.53 165,-1013.38 93.76,-948.29 73.36,-638.57 68.41,-535.65"/>
<polygon fill="black" stroke="black" points="650,-1067.24 657.94,-1070.97 654,-1067.31 658,-1067.38 658,-1067.38 658,-1067.38 654,-1067.31 658.06,-1063.78 650,-1067.24 650,-1067.24"/>
<ellipse fill="none" stroke="black" cx="646.8" cy="-1067.19" rx="3.2" ry="3.2"/>
</g>
<!-- planting_season_allocated_species&#45;&gt;public.users -->
<g id="edge25" class="edge">
<title>planting_season_allocated_species:w&#45;&gt;public.users:e</title>
<path fill="none" stroke="black" d="M643.33,-1067.98C432.87,-1078.76 323.88,-1171.53 165,-1026.38 92.49,-960.14 72.65,-640.5 68.16,-535.67"/>
<polygon fill="black" stroke="black" points="650.01,-1067.71 658.15,-1070.97 654,-1067.54 658,-1067.38 658,-1067.38 658,-1067.38 654,-1067.54 657.85,-1063.78 650.01,-1067.71 650.01,-1067.71"/>
<ellipse fill="none" stroke="black" cx="646.81" cy="-1067.84" rx="3.2" ry="3.2"/>
</g>
<!-- public.species -->
<g id="node13" class="node">
<title>public.species</title>
<g id="a_node13"><a xlink:href="../../../public/tables/species.html" xlink:title="public.species" target="_top">
<polygon fill="#ffffff" stroke="transparent" points="442.5,-586.38 442.5,-644.38 569.5,-644.38 569.5,-586.38 442.5,-586.38"/>
<polygon fill="#f5f5f5" stroke="transparent" points="443,-622.38 443,-644.38 570,-644.38 570,-622.38 443,-622.38"/>
<polygon fill="none" stroke="black" points="443,-622.38 443,-644.38 570,-644.38 570,-622.38 443,-622.38"/>
<text text-anchor="start" x="448" y="-631.58" font-family="Helvetica,sans-Serif" font-weight="bold" font-size="11.00">public.species</text>
<text text-anchor="start" x="531" y="-630.58" font-family="Helvetica,sans-Serif" font-size="11.00">[table]</text>
<polygon fill="none" stroke="black" points="443,-604.38 443,-622.38 570,-622.38 570,-604.38 443,-604.38"/>
<text text-anchor="start" x="446" y="-610.58" font-family="Helvetica,sans-Serif" font-size="11.00">...</text>
<polygon fill="#ffffff" stroke="transparent" points="443,-586.38 443,-604.38 479,-604.38 479,-586.38 443,-586.38"/>
<polygon fill="none" stroke="black" points="443,-586.38 443,-604.38 479,-604.38 479,-586.38 443,-586.38"/>
<text text-anchor="start" x="446" y="-592.58" font-family="Helvetica,sans-Serif" font-size="11.00"> &#160;</text>
<polygon fill="#ffffff" stroke="transparent" points="479,-586.38 479,-604.38 530,-604.38 530,-586.38 479,-586.38"/>
<polygon fill="none" stroke="black" points="479,-586.38 479,-604.38 530,-604.38 530,-586.38 479,-586.38"/>
<text text-anchor="start" x="493" y="-592.58" font-family="Helvetica,sans-Serif" font-size="11.00">0 rows</text>
<polygon fill="#ffffff" stroke="transparent" points="530,-586.38 530,-604.38 570,-604.38 570,-586.38 530,-586.38"/>
<polygon fill="none" stroke="black" points="530,-586.38 530,-604.38 570,-604.38 570,-586.38 530,-586.38"/>
<text text-anchor="start" x="545" y="-592.58" font-family="Helvetica,sans-Serif" font-size="11.00">15 &gt;</text>
</a>
</g>
</g>
<!-- planting_season_allocated_species&#45;&gt;public.species -->
<g id="edge27" class="edge">
<title>planting_season_allocated_species:w&#45;&gt;public.species:e</title>
<path fill="none" stroke="black" d="M644,-1063.98C566.74,-1022.44 668.51,-613.38 571,-613.38"/>
<polygon fill="black" stroke="black" points="650.23,-1065.49 657.15,-1070.87 654.11,-1066.43 658,-1067.38 658,-1067.38 658,-1067.38 654.11,-1066.43 658.85,-1063.88 650.23,-1065.49 650.23,-1065.49"/>
<ellipse fill="none" stroke="black" cx="647.12" cy="-1064.74" rx="3.2" ry="3.2"/>
</g>
<!-- planting_season_species_targets -->
<g id="node14" class="node">
<title>planting_season_species_targets</title>
<g id="a_node14"><a xlink:href="../../tables/planting_season_species_targets.html" xlink:title="planting_season_species_targets" target="_top">
<polygon fill="#ffffff" stroke="transparent" points="973,-989.38 973,-1047.38 1209,-1047.38 1209,-989.38 973,-989.38"/>
<polygon fill="#f5f5f5" stroke="transparent" points="973,-1025.38 973,-1047.38 1209,-1047.38 1209,-1025.38 973,-1025.38"/>
<polygon fill="none" stroke="black" points="973,-1025.38 973,-1047.38 1209,-1047.38 1209,-1025.38 973,-1025.38"/>
<text text-anchor="start" x="978" y="-1034.58" font-family="Helvetica,sans-Serif" font-weight="bold" font-size="11.00">planting_season_species_targets</text>
<text text-anchor="start" x="1170" y="-1033.58" font-family="Helvetica,sans-Serif" font-size="11.00">[table]</text>
<polygon fill="none" stroke="black" points="973,-1007.38 973,-1025.38 1209,-1025.38 1209,-1007.38 973,-1007.38"/>
<text text-anchor="start" x="976" y="-1013.58" font-family="Helvetica,sans-Serif" font-size="11.00">...</text>
<polygon fill="#ffffff" stroke="transparent" points="973,-989.38 973,-1007.38 1089,-1007.38 1089,-989.38 973,-989.38"/>
<polygon fill="none" stroke="black" points="973,-989.38 973,-1007.38 1089,-1007.38 1089,-989.38 973,-989.38"/>
<text text-anchor="start" x="976" y="-995.58" font-family="Helvetica,sans-Serif" font-size="11.00">&lt; 5</text>
<polygon fill="#ffffff" stroke="transparent" points="1089,-989.38 1089,-1007.38 1149,-1007.38 1149,-989.38 1089,-989.38"/>
<polygon fill="none" stroke="black" points="1089,-989.38 1089,-1007.38 1149,-1007.38 1149,-989.38 1089,-989.38"/>
<text text-anchor="start" x="1139" y="-995.58" font-family="Helvetica,sans-Serif" font-size="11.00"> &#160;</text>
<polygon fill="#ffffff" stroke="transparent" points="1149,-989.38 1149,-1007.38 1209,-1007.38 1209,-989.38 1149,-989.38"/>
<polygon fill="none" stroke="black" points="1149,-989.38 1149,-1007.38 1209,-1007.38 1209,-989.38 1149,-989.38"/>
<text text-anchor="start" x="1199" y="-995.58" font-family="Helvetica,sans-Serif" font-size="11.00"> &#160;</text>
</a>
</g>
</g>
<!-- planting_season_species_targets&#45;&gt;planting_seasons -->
<g id="edge30" class="edge">
<title>planting_season_species_targets:w&#45;&gt;planting_seasons:e</title>
<path fill="none" stroke="black" d="M957.46,-1016.45C819.7,-1017.78 776.44,-1037.3 636,-1003.38 611.87,-997.55 586.81,-987.05 565.26,-976.44"/>
<polygon fill="black" stroke="black" points="964,-1016.41 972.02,-1019.98 968,-1016.39 972,-1016.38 972,-1016.38 972,-1016.38 968,-1016.39 971.98,-1012.78 964,-1016.41 964,-1016.41"/>
<ellipse fill="none" stroke="black" cx="960.8" cy="-1016.43" rx="3.2" ry="3.2"/>
</g>
<!-- planting_season_species_targets&#45;&gt;public.users -->
<g id="edge28" class="edge">
<title>planting_season_species_targets:w&#45;&gt;public.users:e</title>
<path fill="none" stroke="black" d="M957.55,-1017.93C936.73,-1028.75 962.74,-1082.23 930,-1103.38 858.52,-1149.53 227.27,-1127.35 165,-1069.38 86.06,-995.87 70.62,-645.64 67.68,-535.53"/>
<polygon fill="black" stroke="black" points="964.05,-1017.23 972.39,-1019.95 968.02,-1016.8 972,-1016.38 972,-1016.38 972,-1016.38 968.02,-1016.8 971.61,-1012.8 964.05,-1017.23 964.05,-1017.23"/>
<ellipse fill="none" stroke="black" cx="960.86" cy="-1017.57" rx="3.2" ry="3.2"/>
</g>
<!-- planting_season_species_targets&#45;&gt;public.users -->
<g id="edge29" class="edge">
<title>planting_season_species_targets:w&#45;&gt;public.users:e</title>
<path fill="none" stroke="black" d="M958.43,-1021.92C936.01,-1040.28 963.19,-1094.95 930,-1116.38 858.52,-1162.53 227.27,-1140.35 165,-1082.38 84.86,-1007.76 70.17,-647.93 67.55,-535.76"/>
<polygon fill="black" stroke="black" points="964.59,-1019.4 973.36,-1019.71 968.3,-1017.89 972,-1016.38 972,-1016.38 972,-1016.38 968.3,-1017.89 970.64,-1013.04 964.59,-1019.4 964.59,-1019.4"/>
<ellipse fill="none" stroke="black" cx="961.63" cy="-1020.61" rx="3.2" ry="3.2"/>
</g>
<!-- planting_season_species_targets&#45;&gt;substrata -->
<g id="edge32" class="edge">
<title>planting_season_species_targets:w&#45;&gt;substrata:e</title>
<path fill="none" stroke="black" d="M960.62,-1007.22C928.87,-950.07 942.02,-643.41 930,-603.38 903.99,-516.74 925.46,-423.38 835,-423.38"/>
<polygon fill="black" stroke="black" points="965.77,-1011.36 969.74,-1019.18 968.88,-1013.87 972,-1016.38 972,-1016.38 972,-1016.38 968.88,-1013.87 974.26,-1013.57 965.77,-1011.36 965.77,-1011.36"/>
<ellipse fill="none" stroke="black" cx="963.27" cy="-1009.35" rx="3.2" ry="3.2"/>
</g>
<!-- planting_season_species_targets&#45;&gt;public.species -->
<g id="edge31" class="edge">
<title>planting_season_species_targets:w&#45;&gt;public.species:e</title>
<path fill="none" stroke="black" d="M958.11,-1012.51C903.13,-976.99 983.49,-707.81 930,-654.38 873.19,-597.63 651.3,-613.38 571,-613.38"/>
<polygon fill="black" stroke="black" points="964.29,-1014.23 971.03,-1019.84 968.15,-1015.3 972,-1016.38 972,-1016.38 972,-1016.38 968.15,-1015.3 972.97,-1012.91 964.29,-1014.23 964.29,-1014.23"/>
<ellipse fill="none" stroke="black" cx="961.21" cy="-1013.37" rx="3.2" ry="3.2"/>
</g>
<!-- plantings -->
<g id="node16" class="node">
<title>plantings</title>
<g id="a_node16"><a xlink:href="../../tables/plantings.html" xlink:title="plantings" target="_top">
<polygon fill="#ffffff" stroke="transparent" points="1309,-478.38 1309,-536.38 1408,-536.38 1408,-478.38 1309,-478.38"/>
<polygon fill="#f5f5f5" stroke="transparent" points="1309.5,-514.38 1309.5,-536.38 1408.5,-536.38 1408.5,-514.38 1309.5,-514.38"/>
<polygon fill="none" stroke="black" points="1309.5,-514.38 1309.5,-536.38 1408.5,-536.38 1408.5,-514.38 1309.5,-514.38"/>
<text text-anchor="start" x="1314.5" y="-523.58" font-family="Helvetica,sans-Serif" font-weight="bold" font-size="11.00">plantings</text>
<text text-anchor="start" x="1369.5" y="-522.58" font-family="Helvetica,sans-Serif" font-size="11.00">[table]</text>
<polygon fill="none" stroke="black" points="1309.5,-496.38 1309.5,-514.38 1408.5,-514.38 1408.5,-496.38 1309.5,-496.38"/>
<text text-anchor="start" x="1312.5" y="-502.58" font-family="Helvetica,sans-Serif" font-size="11.00">...</text>
<polygon fill="#ffffff" stroke="transparent" points="1309.5,-478.38 1309.5,-496.38 1356.5,-496.38 1356.5,-478.38 1309.5,-478.38"/>
<polygon fill="none" stroke="black" points="1309.5,-478.38 1309.5,-496.38 1356.5,-496.38 1356.5,-478.38 1309.5,-478.38"/>
<text text-anchor="start" x="1312.5" y="-484.58" font-family="Helvetica,sans-Serif" font-size="11.00">&lt; 8</text>
<polygon fill="#ffffff" stroke="transparent" points="1356.5,-478.38 1356.5,-496.38 1382.5,-496.38 1382.5,-478.38 1356.5,-478.38"/>
<polygon fill="none" stroke="black" points="1356.5,-478.38 1356.5,-496.38 1382.5,-496.38 1382.5,-478.38 1356.5,-478.38"/>
<text text-anchor="start" x="1372.5" y="-484.58" font-family="Helvetica,sans-Serif" font-size="11.00"> &#160;</text>
<polygon fill="#ffffff" stroke="transparent" points="1382.5,-478.38 1382.5,-496.38 1408.5,-496.38 1408.5,-478.38 1382.5,-478.38"/>
<polygon fill="none" stroke="black" points="1382.5,-478.38 1382.5,-496.38 1408.5,-496.38 1408.5,-478.38 1382.5,-478.38"/>
<text text-anchor="start" x="1398.5" y="-484.58" font-family="Helvetica,sans-Serif" font-size="11.00"> &#160;</text>
</a>
</g>
</g>
<!-- plantings&#45;&gt;deliveries -->
<g id="edge42" class="edge">
<title>plantings:w&#45;&gt;deliveries:e</title>
<path fill="none" stroke="black" d="M1293.84,-505.76C1130.35,-520.58 1327.34,-892.54 1143,-898.38"/>
<polygon fill="black" stroke="black" points="1300.5,-505.59 1308.59,-508.97 1304.5,-505.48 1308.5,-505.38 1308.5,-505.38 1308.5,-505.38 1304.5,-505.48 1308.41,-501.78 1300.5,-505.59 1300.5,-505.59"/>
<ellipse fill="none" stroke="black" cx="1297.3" cy="-505.67" rx="3.2" ry="3.2"/>
</g>
<!-- plantings&#45;&gt;deliveries -->
<g id="edge43" class="edge">
<title>plantings:w&#45;&gt;deliveries:e</title>
<path fill="none" stroke="black" d="M1293.84,-506.8C1130.35,-533.57 1327.34,-905.18 1143,-898.38"/>
<polygon fill="black" stroke="black" points="1300.54,-506.15 1308.85,-508.96 1304.52,-505.76 1308.5,-505.38 1308.5,-505.38 1308.5,-505.38 1304.52,-505.76 1308.15,-501.79 1300.54,-506.15 1300.54,-506.15"/>
<ellipse fill="none" stroke="black" cx="1297.35" cy="-506.46" rx="3.2" ry="3.2"/>
</g>
<!-- plantings&#45;&gt;public.users -->
<g id="edge41" class="edge">
<title>plantings:w&#45;&gt;public.users:e</title>
<path fill="none" stroke="black" d="M1294.06,-505.38C891.56,-505.56 785.61,-513.18 376,-515.38 282.22,-515.88 258.57,-521.55 165,-515.38 154.38,-514.67 143.16,-513.55 132.25,-512.25"/>
<polygon fill="black" stroke="black" points="1300.5,-505.38 1308.5,-508.98 1304.5,-505.38 1308.5,-505.38 1308.5,-505.38 1308.5,-505.38 1304.5,-505.38 1308.5,-501.78 1300.5,-505.38 1300.5,-505.38"/>
<ellipse fill="none" stroke="black" cx="1297.3" cy="-505.38" rx="3.2" ry="3.2"/>
</g>
<!-- plantings&#45;&gt;planting_sites -->
<g id="edge44" class="edge">
<title>plantings:w&#45;&gt;planting_sites:e</title>
<path fill="none" stroke="black" d="M1294.02,-505.03C1265.4,-503.58 1253.61,-497.95 1219,-495.38 859.74,-468.69 763.79,-527.86 409,-465.38 374.74,-459.34 369.29,-441.38 334.5,-441.38"/>
<polygon fill="black" stroke="black" points="1300.5,-505.18 1308.41,-508.97 1304.5,-505.28 1308.5,-505.38 1308.5,-505.38 1308.5,-505.38 1304.5,-505.28 1308.59,-501.78 1300.5,-505.18 1300.5,-505.18"/>
<ellipse fill="none" stroke="black" cx="1297.3" cy="-505.11" rx="3.2" ry="3.2"/>
</g>
<!-- plantings&#45;&gt;substrata -->
<g id="edge45" class="edge">
<title>plantings:w&#45;&gt;substrata:e</title>
<path fill="none" stroke="black" d="M1294,-504.23C1263.68,-499.07 1255.45,-477.85 1219,-468.38 1052.69,-425.14 1006.83,-423.38 835,-423.38"/>
<polygon fill="black" stroke="black" points="1300.52,-504.74 1308.22,-508.96 1304.51,-505.06 1308.5,-505.38 1308.5,-505.38 1308.5,-505.38 1304.51,-505.06 1308.78,-501.79 1300.52,-504.74 1300.52,-504.74"/>
<ellipse fill="none" stroke="black" cx="1297.33" cy="-504.49" rx="3.2" ry="3.2"/>
</g>
<!-- plantings&#45;&gt;substrata -->
<g id="edge47" class="edge">
<title>plantings:w&#45;&gt;substrata:e</title>
<path fill="none" stroke="black" d="M1293.77,-504.31C1263.99,-499.68 1254.87,-481.16 1219,-472.38 1051.88,-431.46 1007.05,-423.38 835,-423.38"/>
<polygon fill="black" stroke="black" points="1300.52,-504.8 1308.24,-508.97 1304.51,-505.09 1308.5,-505.38 1308.5,-505.38 1308.5,-505.38 1304.51,-505.09 1308.76,-501.78 1300.52,-504.8 1300.52,-504.8"/>
<ellipse fill="none" stroke="black" cx="1297.33" cy="-504.57" rx="3.2" ry="3.2"/>
</g>
<!-- plantings&#45;&gt;public.species -->
<g id="edge46" class="edge">
<title>plantings:w&#45;&gt;public.species:e</title>
<path fill="none" stroke="black" d="M1294.15,-506.88C1235.01,-520.72 1284.36,-626.16 1219,-664.38 1120.78,-721.8 1061.57,-721.21 963,-664.38 937.64,-649.75 955.36,-622 930,-607.38 816.8,-542.11 766.53,-601.36 636,-607.38 607.02,-608.71 600.01,-613.38 571,-613.38"/>
<polygon fill="black" stroke="black" points="1300.54,-506.21 1308.88,-508.96 1304.52,-505.79 1308.5,-505.38 1308.5,-505.38 1308.5,-505.38 1304.52,-505.79 1308.12,-501.79 1300.54,-506.21 1300.54,-506.21"/>
<ellipse fill="none" stroke="black" cx="1297.36" cy="-506.54" rx="3.2" ry="3.2"/>
</g>
<!-- plot_t0_densities -->
<g id="node17" class="node">
<title>plot_t0_densities</title>
<g id="a_node17"><a xlink:href="../../tables/plot_t0_densities.html" xlink:title="plot_t0_densities" target="_top">
<polygon fill="#ffffff" stroke="transparent" points="1287,-110.38 1287,-168.38 1430,-168.38 1430,-110.38 1287,-110.38"/>
<polygon fill="#f5f5f5" stroke="transparent" points="1287.5,-146.38 1287.5,-168.38 1430.5,-168.38 1430.5,-146.38 1287.5,-146.38"/>
<polygon fill="none" stroke="black" points="1287.5,-146.38 1287.5,-168.38 1430.5,-168.38 1430.5,-146.38 1287.5,-146.38"/>
<text text-anchor="start" x="1292.5" y="-155.58" font-family="Helvetica,sans-Serif" font-weight="bold" font-size="11.00">plot_t0_densities</text>
<text text-anchor="start" x="1391.5" y="-154.58" font-family="Helvetica,sans-Serif" font-size="11.00">[table]</text>
<polygon fill="none" stroke="black" points="1287.5,-128.38 1287.5,-146.38 1430.5,-146.38 1430.5,-128.38 1287.5,-128.38"/>
<text text-anchor="start" x="1290.5" y="-134.58" font-family="Helvetica,sans-Serif" font-size="11.00">...</text>
<polygon fill="#ffffff" stroke="transparent" points="1287.5,-110.38 1287.5,-128.38 1356.5,-128.38 1356.5,-110.38 1287.5,-110.38"/>
<polygon fill="none" stroke="black" points="1287.5,-110.38 1287.5,-128.38 1356.5,-128.38 1356.5,-110.38 1287.5,-110.38"/>
<text text-anchor="start" x="1290.5" y="-116.58" font-family="Helvetica,sans-Serif" font-size="11.00">&lt; 4</text>
<polygon fill="#ffffff" stroke="transparent" points="1356.5,-110.38 1356.5,-128.38 1393.5,-128.38 1393.5,-110.38 1356.5,-110.38"/>
<polygon fill="none" stroke="black" points="1356.5,-110.38 1356.5,-128.38 1393.5,-128.38 1393.5,-110.38 1356.5,-110.38"/>
<text text-anchor="start" x="1383.5" y="-116.58" font-family="Helvetica,sans-Serif" font-size="11.00"> &#160;</text>
<polygon fill="#ffffff" stroke="transparent" points="1393.5,-110.38 1393.5,-128.38 1430.5,-128.38 1430.5,-110.38 1393.5,-110.38"/>
<polygon fill="none" stroke="black" points="1393.5,-110.38 1393.5,-128.38 1430.5,-128.38 1430.5,-110.38 1393.5,-110.38"/>
<text text-anchor="start" x="1420.5" y="-116.58" font-family="Helvetica,sans-Serif" font-size="11.00"> &#160;</text>
</a>
</g>
</g>
<!-- plot_t0_densities&#45;&gt;public.users -->
<g id="edge48" class="edge">
<title>plot_t0_densities:w&#45;&gt;public.users:e</title>
<path fill="none" stroke="black" d="M1272.01,-136.96C1060.5,-130.59 1002.57,-113.38 784,-113.38 784,-113.38 784,-113.38 505,-113.38 429.21,-113.38 223.42,-92.09 165,-140.38 114.04,-182.49 81.58,-387.82 70.89,-469.18"/>
<polygon fill="black" stroke="black" points="1278.5,-137.15 1286.4,-140.97 1282.5,-137.26 1286.5,-137.38 1286.5,-137.38 1286.5,-137.38 1282.5,-137.26 1286.6,-133.78 1278.5,-137.15 1278.5,-137.15"/>
<ellipse fill="none" stroke="black" cx="1275.3" cy="-137.06" rx="3.2" ry="3.2"/>
</g>
<!-- plot_t0_densities&#45;&gt;public.users -->
<g id="edge49" class="edge">
<title>plot_t0_densities:w&#45;&gt;public.users:e</title>
<path fill="none" stroke="black" d="M1272.01,-137.8C1060.5,-143.59 1002.57,-126.38 784,-126.38 784,-126.38 784,-126.38 505,-126.38 429.21,-126.38 223.42,-105.09 165,-153.38 115.4,-194.37 83.33,-389.99 71.79,-469.14"/>
<polygon fill="black" stroke="black" points="1278.5,-137.61 1286.61,-140.97 1282.5,-137.49 1286.5,-137.38 1286.5,-137.38 1286.5,-137.38 1282.5,-137.49 1286.39,-133.78 1278.5,-137.61 1278.5,-137.61"/>
<ellipse fill="none" stroke="black" cx="1275.3" cy="-137.7" rx="3.2" ry="3.2"/>
</g>
<!-- plot_t0_densities&#45;&gt;monitoring_plots -->
<g id="edge50" class="edge">
<title>plot_t0_densities:w&#45;&gt;monitoring_plots:e</title>
<path fill="none" stroke="black" d="M1271.93,-138.85C1223.62,-149.28 1222.92,-211.38 1165,-211.38"/>
<polygon fill="black" stroke="black" points="1278.54,-138.18 1286.86,-140.96 1282.52,-137.78 1286.5,-137.38 1286.5,-137.38 1286.5,-137.38 1282.52,-137.78 1286.14,-133.79 1278.54,-138.18 1278.54,-138.18"/>
<ellipse fill="none" stroke="black" cx="1275.36" cy="-138.51" rx="3.2" ry="3.2"/>
</g>
<!-- plot_t0_densities&#45;&gt;public.species -->
<g id="edge51" class="edge">
<title>plot_t0_densities:w&#45;&gt;public.species:e</title>
<path fill="none" stroke="black" d="M1272.09,-139.17C1232.51,-150.45 1254.99,-212.51 1219,-252.38 1112.26,-370.62 1072.16,-392.5 930,-464.38 807.81,-526.15 755.38,-489.35 636,-556.38 602.5,-575.19 609.42,-613.38 571,-613.38"/>
<polygon fill="black" stroke="black" points="1278.56,-138.36 1286.94,-140.95 1282.53,-137.87 1286.5,-137.38 1286.5,-137.38 1286.5,-137.38 1282.53,-137.87 1286.06,-133.8 1278.56,-138.36 1278.56,-138.36"/>
<ellipse fill="none" stroke="black" cx="1275.39" cy="-138.76" rx="3.2" ry="3.2"/>
</g>
<!-- plot_t0_observations -->
<g id="node18" class="node">
<title>plot_t0_observations</title>
<g id="a_node18"><a xlink:href="../../tables/plot_t0_observations.html" xlink:title="plot_t0_observations" target="_top">
<polygon fill="#ffffff" stroke="transparent" points="1705,-192.38 1705,-250.38 1872,-250.38 1872,-192.38 1705,-192.38"/>
<polygon fill="#f5f5f5" stroke="transparent" points="1705.5,-228.38 1705.5,-250.38 1872.5,-250.38 1872.5,-228.38 1705.5,-228.38"/>
<polygon fill="none" stroke="black" points="1705.5,-228.38 1705.5,-250.38 1872.5,-250.38 1872.5,-228.38 1705.5,-228.38"/>
<text text-anchor="start" x="1710.5" y="-237.58" font-family="Helvetica,sans-Serif" font-weight="bold" font-size="11.00">plot_t0_observations</text>
<text text-anchor="start" x="1833.5" y="-236.58" font-family="Helvetica,sans-Serif" font-size="11.00">[table]</text>
<polygon fill="none" stroke="black" points="1705.5,-210.38 1705.5,-228.38 1872.5,-228.38 1872.5,-210.38 1705.5,-210.38"/>
<text text-anchor="start" x="1708.5" y="-216.58" font-family="Helvetica,sans-Serif" font-size="11.00">...</text>
<polygon fill="#ffffff" stroke="transparent" points="1705.5,-192.38 1705.5,-210.38 1786.5,-210.38 1786.5,-192.38 1705.5,-192.38"/>
<polygon fill="none" stroke="black" points="1705.5,-192.38 1705.5,-210.38 1786.5,-210.38 1786.5,-192.38 1705.5,-192.38"/>
<text text-anchor="start" x="1708.5" y="-198.58" font-family="Helvetica,sans-Serif" font-size="11.00">&lt; 6</text>
<polygon fill="#ffffff" stroke="transparent" points="1786.5,-192.38 1786.5,-210.38 1829.5,-210.38 1829.5,-192.38 1786.5,-192.38"/>
<polygon fill="none" stroke="black" points="1786.5,-192.38 1786.5,-210.38 1829.5,-210.38 1829.5,-192.38 1786.5,-192.38"/>
<text text-anchor="start" x="1819.5" y="-198.58" font-family="Helvetica,sans-Serif" font-size="11.00"> &#160;</text>
<polygon fill="#ffffff" stroke="transparent" points="1829.5,-192.38 1829.5,-210.38 1872.5,-210.38 1872.5,-192.38 1829.5,-192.38"/>
<polygon fill="none" stroke="black" points="1829.5,-192.38 1829.5,-210.38 1872.5,-210.38 1872.5,-192.38 1829.5,-192.38"/>
<text text-anchor="start" x="1862.5" y="-198.58" font-family="Helvetica,sans-Serif" font-size="11.00"> &#160;</text>
</a>
</g>
</g>
<!-- plot_t0_observations&#45;&gt;public.users -->
<g id="edge52" class="edge">
<title>plot_t0_observations:w&#45;&gt;public.users:e</title>
<path fill="none" stroke="black" d="M1689.88,-220.39C1484.79,-255.48 1578.65,-1161.38 1359.5,-1161.38 1359.5,-1161.38 1359.5,-1161.38 505,-1161.38 351.99,-1161.38 273.27,-1215.48 165,-1107.38 83.27,-1025.77 69.7,-650.28 67.45,-535.65"/>
<polygon fill="black" stroke="black" points="1696.52,-219.93 1704.75,-222.97 1700.51,-219.65 1704.5,-219.38 1704.5,-219.38 1704.5,-219.38 1700.51,-219.65 1704.25,-215.78 1696.52,-219.93 1696.52,-219.93"/>
<ellipse fill="none" stroke="black" cx="1693.33" cy="-220.15" rx="3.2" ry="3.2"/>
</g>
<!-- plot_t0_observations&#45;&gt;public.users -->
<g id="edge53" class="edge">
<title>plot_t0_observations:w&#45;&gt;public.users:e</title>
<path fill="none" stroke="black" d="M1690.19,-221.18C1484.7,-267.58 1578.76,-1174.38 1359.5,-1174.38 1359.5,-1174.38 1359.5,-1174.38 505,-1174.38 351.99,-1174.38 273.27,-1228.48 165,-1120.38 82.04,-1037.54 69.3,-651.86 67.35,-535.57"/>
<polygon fill="black" stroke="black" points="1696.56,-220.38 1704.95,-222.95 1700.53,-219.88 1704.5,-219.38 1704.5,-219.38 1704.5,-219.38 1700.53,-219.88 1704.05,-215.8 1696.56,-220.38 1696.56,-220.38"/>
<ellipse fill="none" stroke="black" cx="1693.39" cy="-220.78" rx="3.2" ry="3.2"/>
</g>
<!-- plot_t0_observations&#45;&gt;monitoring_plots -->
<g id="edge54" class="edge">
<title>plot_t0_observations:w&#45;&gt;monitoring_plots:e</title>
<path fill="none" stroke="black" d="M1694.08,-219.37C1462.9,-219.14 1401.29,-211.38 1165,-211.38"/>
<polygon fill="black" stroke="black" points="1703.7,-215.37 1703.7,-223.37 1702.1,-223.37 1702.1,-215.37 1703.7,-215.37"/>
<polyline fill="none" stroke="black" points="1704.5,-219.38 1700.5,-219.37 "/>
<ellipse fill="none" stroke="black" cx="1697.3" cy="-219.37" rx="3.2" ry="3.2"/>
</g>
<!-- plot_t0_observations&#45;&gt;observation_plots -->
<g id="edge55" class="edge">
<title>plot_t0_observations:w&#45;&gt;observation_plots:e</title>
<path fill="none" stroke="black" d="M1694.49,-216.29C1661.79,-197.95 1703.47,-110.84 1657,-116.38"/>
<polygon fill="black" stroke="black" points="1704.91,-215.32 1702.56,-222.96 1701.03,-222.49 1703.38,-214.85 1704.91,-215.32"/>
<polyline fill="none" stroke="black" points="1704.5,-219.38 1700.68,-218.2 "/>
<ellipse fill="none" stroke="black" cx="1697.62" cy="-217.26" rx="3.2" ry="3.2"/>
</g>
<!-- plot_t0_observations&#45;&gt;observation_plots -->
<g id="edge56" class="edge">
<title>plot_t0_observations:w&#45;&gt;observation_plots:e</title>
<path fill="none" stroke="black" d="M1690.05,-217.25C1665.8,-202.13 1701.11,-122.5 1657,-116.38"/>
<polygon fill="black" stroke="black" points="1696.59,-218.21 1703.98,-222.94 1700.54,-218.79 1704.5,-219.38 1704.5,-219.38 1704.5,-219.38 1700.54,-218.79 1705.02,-215.81 1696.59,-218.21 1696.59,-218.21"/>
<ellipse fill="none" stroke="black" cx="1693.42" cy="-217.74" rx="3.2" ry="3.2"/>
</g>
<!-- scheduled_planting_date_species -->
<g id="node19" class="node">
<title>scheduled_planting_date_species</title>
<g id="a_node19"><a xlink:href="../../tables/scheduled_planting_date_species.html" xlink:title="scheduled_planting_date_species" target="_top">
<polygon fill="#ffffff" stroke="transparent" points="971,-529.38 971,-653.38 1211,-653.38 1211,-529.38 971,-529.38"/>
<polygon fill="#f5f5f5" stroke="transparent" points="971,-631.38 971,-653.38 1211,-653.38 1211,-631.38 971,-631.38"/>
<polygon fill="none" stroke="black" points="971,-631.38 971,-653.38 1211,-653.38 1211,-631.38 971,-631.38"/>
<text text-anchor="start" x="976" y="-640.58" font-family="Helvetica,sans-Serif" font-weight="bold" font-size="11.00">scheduled_planting_date_species</text>
<text text-anchor="start" x="1172" y="-639.58" font-family="Helvetica,sans-Serif" font-size="11.00">[table]</text>
<polygon fill="none" stroke="black" points="971,-609.38 971,-631.38 1211,-631.38 1211,-609.38 971,-609.38"/>
<image xlink:href="../../images/primaryKeys.png" width="11px" height="12px" preserveAspectRatio="xMinYMin meet" x="976" y="-626.375"/>
<text text-anchor="start" x="1003" y="-617.58" font-family="Helvetica,sans-Serif" font-size="11.00">scheduled_planting_date_id</text>
<polygon fill="none" stroke="black" points="971,-587.38 971,-609.38 1211,-609.38 1211,-587.38 971,-587.38"/>
<image xlink:href="../../images/primaryKeys.png" width="11px" height="12px" preserveAspectRatio="xMinYMin meet" x="976" y="-604.375"/>
<text text-anchor="start" x="1003" y="-595.58" font-family="Helvetica,sans-Serif" font-size="11.00">substratum_id</text>
<polygon fill="none" stroke="black" points="971,-565.38 971,-587.38 1211,-587.38 1211,-565.38 971,-565.38"/>
<image xlink:href="../../images/primaryKeys.png" width="11px" height="12px" preserveAspectRatio="xMinYMin meet" x="976" y="-582.375"/>
<text text-anchor="start" x="1003" y="-573.58" font-family="Helvetica,sans-Serif" font-size="11.00">species_id</text>
<polygon fill="none" stroke="black" points="971,-547.38 971,-565.38 1211,-565.38 1211,-547.38 971,-547.38"/>
<text text-anchor="start" x="974" y="-553.58" font-family="Helvetica,sans-Serif" font-size="11.00">...</text>
<polygon fill="#ffffff" stroke="transparent" points="971,-529.38 971,-547.38 1089,-547.38 1089,-529.38 971,-529.38"/>
<polygon fill="none" stroke="black" points="971,-529.38 971,-547.38 1089,-547.38 1089,-529.38 971,-529.38"/>
<text text-anchor="start" x="974" y="-535.58" font-family="Helvetica,sans-Serif" font-size="11.00">&lt; 3</text>
<polygon fill="#ffffff" stroke="transparent" points="1089,-529.38 1089,-547.38 1150,-547.38 1150,-529.38 1089,-529.38"/>
<polygon fill="none" stroke="black" points="1089,-529.38 1089,-547.38 1150,-547.38 1150,-529.38 1089,-529.38"/>
<text text-anchor="start" x="1140" y="-535.58" font-family="Helvetica,sans-Serif" font-size="11.00"> &#160;</text>
<polygon fill="#ffffff" stroke="transparent" points="1150,-529.38 1150,-547.38 1211,-547.38 1211,-529.38 1150,-529.38"/>
<polygon fill="none" stroke="black" points="1150,-529.38 1150,-547.38 1211,-547.38 1211,-529.38 1150,-529.38"/>
<text text-anchor="start" x="1201" y="-535.58" font-family="Helvetica,sans-Serif" font-size="11.00"> &#160;</text>
</a>
</g>
</g>
<!-- scheduled_planting_date_species&#45;&gt;substrata -->
<g id="edge59" class="edge">
<title>scheduled_planting_date_species:w&#45;&gt;substrata:e</title>
<path fill="none" stroke="black" d="M960.11,-587.69C929.59,-549.7 840.22,-423.38 835,-423.38"/>
<polygon fill="black" stroke="black" points="964.57,-592.5 967.36,-600.82 967.28,-595.44 970,-598.38 970,-598.38 970,-598.38 967.28,-595.44 972.64,-595.93 964.57,-592.5 964.57,-592.5"/>
<ellipse fill="none" stroke="black" cx="962.39" cy="-590.16" rx="3.2" ry="3.2"/>
</g>
<!-- scheduled_planting_date_species&#45;&gt;public.species -->
<g id="edge58" class="edge">
<title>scheduled_planting_date_species:w&#45;&gt;public.species:e</title>
<path fill="none" stroke="black" d="M955.56,-576.25C818.65,-573.94 774.74,-539.65 636,-576.38 603.87,-584.88 604.24,-613.38 571,-613.38"/>
<polygon fill="black" stroke="black" points="962,-576.31 969.97,-579.98 966,-576.34 970,-576.38 970,-576.38 970,-576.38 966,-576.34 970.03,-572.78 962,-576.31 962,-576.31"/>
<ellipse fill="none" stroke="black" cx="958.8" cy="-576.28" rx="3.2" ry="3.2"/>
</g>
<!-- scheduled_planting_dates -->
<g id="node20" class="node">
<title>scheduled_planting_dates</title>
<g id="a_node20"><a xlink:href="../../tables/scheduled_planting_dates.html" xlink:title="scheduled_planting_dates" target="_top">
<polygon fill="#ffffff" stroke="transparent" points="644,-664.38 644,-862.38 922,-862.38 922,-664.38 644,-664.38"/>
<polygon fill="#f5f5f5" stroke="transparent" points="646,-838.38 646,-860.38 920,-860.38 920,-838.38 646,-838.38"/>
<polygon fill="none" stroke="black" points="646,-838.38 646,-860.38 920,-860.38 920,-838.38 646,-838.38"/>
<text text-anchor="start" x="651" y="-847.58" font-family="Helvetica,sans-Serif" font-weight="bold" font-size="11.00">scheduled_planting_dates</text>
<text text-anchor="start" x="881" y="-846.58" font-family="Helvetica,sans-Serif" font-size="11.00">[table]</text>
<polygon fill="none" stroke="black" points="646,-816.38 646,-838.38 820,-838.38 820,-816.38 646,-816.38"/>
<image xlink:href="../../images/primaryKeys.png" width="11px" height="12px" preserveAspectRatio="xMinYMin meet" x="651" y="-833.375"/>
<text text-anchor="start" x="666" y="-824.58" font-family="Helvetica,sans-Serif" font-size="11.00">id</text>
<polygon fill="none" stroke="black" points="820,-816.38 820,-838.38 920,-838.38 920,-816.38 820,-816.38"/>
<text text-anchor="start" x="823" y="-824.58" font-family="Helvetica,sans-Serif" font-size="11.00">int8[19]</text>
<polygon fill="#ffffff" stroke="transparent" points="646,-794.38 646,-816.38 820,-816.38 820,-794.38 646,-794.38"/>
<polygon fill="none" stroke="black" points="646,-794.38 646,-816.38 820,-816.38 820,-794.38 646,-794.38"/>
<image xlink:href="../../images/foreignKeys.png" width="11px" height="12px" preserveAspectRatio="xMinYMin meet" x="651" y="-811.375"/>
<text text-anchor="start" x="666" y="-802.58" font-family="Helvetica,sans-Serif" font-size="11.00">planting_season_id</text>
<polygon fill="none" stroke="black" points="820,-794.38 820,-816.38 920,-816.38 920,-794.38 820,-794.38"/>
<text text-anchor="start" x="823" y="-802.58" font-family="Helvetica,sans-Serif" font-size="11.00">int8[19]</text>
<polygon fill="#ffffff" stroke="transparent" points="646,-772.38 646,-794.38 820,-794.38 820,-772.38 646,-772.38"/>
<polygon fill="none" stroke="black" points="646,-772.38 646,-794.38 820,-794.38 820,-772.38 646,-772.38"/>
<text text-anchor="start" x="666" y="-780.58" font-family="Helvetica,sans-Serif" font-size="11.00">date</text>
<polygon fill="none" stroke="black" points="820,-772.38 820,-794.38 920,-794.38 920,-772.38 820,-772.38"/>
<text text-anchor="start" x="823" y="-780.58" font-family="Helvetica,sans-Serif" font-size="11.00">date[13]</text>
<polygon fill="none" stroke="black" points="646,-750.38 646,-772.38 820,-772.38 820,-750.38 646,-750.38"/>
<image xlink:href="../../images/foreignKeys.png" width="11px" height="12px" preserveAspectRatio="xMinYMin meet" x="651" y="-767.375"/>
<text text-anchor="start" x="666" y="-758.58" font-family="Helvetica,sans-Serif" font-size="11.00">created_by</text>
<polygon fill="none" stroke="black" points="820,-750.38 820,-772.38 920,-772.38 920,-750.38 820,-750.38"/>
<text text-anchor="start" x="823" y="-758.58" font-family="Helvetica,sans-Serif" font-size="11.00">int8[19]</text>
<polygon fill="none" stroke="black" points="646,-728.38 646,-750.38 820,-750.38 820,-728.38 646,-728.38"/>
<text text-anchor="start" x="666" y="-736.58" font-family="Helvetica,sans-Serif" font-size="11.00">created_time</text>
<polygon fill="none" stroke="black" points="820,-728.38 820,-750.38 920,-750.38 920,-728.38 820,-728.38"/>
<text text-anchor="start" x="823" y="-736.58" font-family="Helvetica,sans-Serif" font-size="11.00">timestamptz[35,6]</text>
<polygon fill="none" stroke="black" points="646,-706.38 646,-728.38 820,-728.38 820,-706.38 646,-706.38"/>
<image xlink:href="../../images/foreignKeys.png" width="11px" height="12px" preserveAspectRatio="xMinYMin meet" x="651" y="-723.375"/>
<text text-anchor="start" x="666" y="-714.58" font-family="Helvetica,sans-Serif" font-size="11.00">modified_by</text>
<polygon fill="none" stroke="black" points="820,-706.38 820,-728.38 920,-728.38 920,-706.38 820,-706.38"/>
<text text-anchor="start" x="823" y="-714.58" font-family="Helvetica,sans-Serif" font-size="11.00">int8[19]</text>
<polygon fill="none" stroke="black" points="646,-684.38 646,-706.38 820,-706.38 820,-684.38 646,-684.38"/>
<text text-anchor="start" x="666" y="-692.58" font-family="Helvetica,sans-Serif" font-size="11.00">modified_time</text>
<polygon fill="none" stroke="black" points="820,-684.38 820,-706.38 920,-706.38 920,-684.38 820,-684.38"/>
<text text-anchor="start" x="823" y="-692.58" font-family="Helvetica,sans-Serif" font-size="11.00">timestamptz[35,6]</text>
<polygon fill="#ffffff" stroke="transparent" points="646,-666.38 646,-684.38 737,-684.38 737,-666.38 646,-666.38"/>
<polygon fill="none" stroke="black" points="646,-666.38 646,-684.38 737,-684.38 737,-666.38 646,-666.38"/>
<text text-anchor="start" x="649" y="-672.58" font-family="Helvetica,sans-Serif" font-size="11.00">&lt; 3</text>
<polygon fill="#ffffff" stroke="transparent" points="737,-666.38 737,-684.38 820,-684.38 820,-666.38 737,-666.38"/>
<polygon fill="none" stroke="black" points="737,-666.38 737,-684.38 820,-684.38 820,-666.38 737,-666.38"/>
<text text-anchor="start" x="810" y="-672.58" font-family="Helvetica,sans-Serif" font-size="11.00"> &#160;</text>
<polygon fill="#ffffff" stroke="transparent" points="820,-666.38 820,-684.38 920,-684.38 920,-666.38 820,-666.38"/>
<polygon fill="none" stroke="black" points="820,-666.38 820,-684.38 920,-684.38 920,-666.38 820,-666.38"/>
<text text-anchor="start" x="901" y="-672.58" font-family="Helvetica,sans-Serif" font-size="11.00">1 &gt;</text>
<polygon fill="none" stroke="black" stroke-width="2" points="645,-665.38 645,-861.38 921,-861.38 921,-665.38 645,-665.38"/>
</a>
</g>
</g>
<!-- scheduled_planting_date_species&#45;&gt;scheduled_planting_dates -->
<g id="edge57" class="edge">
<title>scheduled_planting_date_species:w&#45;&gt;scheduled_planting_dates:e</title>
<path fill="none" stroke="black" d="M955.7,-622.42C891.07,-643.92 1010,-827.38 921,-827.38"/>
<polygon fill="black" stroke="black" points="962.08,-621.51 970.51,-623.94 966.04,-620.94 970,-620.38 970,-620.38 970,-620.38 966.04,-620.94 969.49,-616.81 962.08,-621.51 962.08,-621.51"/>
<ellipse fill="none" stroke="black" cx="958.91" cy="-621.96" rx="3.2" ry="3.2"/>
</g>
<!-- scheduled_planting_dates&#45;&gt;planting_seasons -->
<g id="edge62" class="edge">
<title>scheduled_planting_dates:w&#45;&gt;planting_seasons:e</title>
<path fill="none" stroke="black" d="M630.46,-806.68C578.86,-815.98 541.46,-872.92 522.08,-910.32"/>
<polygon fill="black" stroke="black" points="637.03,-806.09 645.32,-808.96 641.02,-805.73 645,-805.38 645,-805.38 645,-805.38 641.02,-805.73 644.68,-801.79 637.03,-806.09 637.03,-806.09"/>
<ellipse fill="none" stroke="black" cx="633.84" cy="-806.38" rx="3.2" ry="3.2"/>
</g>
<!-- scheduled_planting_dates&#45;&gt;public.users -->
<g id="edge60" class="edge">
<title>scheduled_planting_dates:w&#45;&gt;public.users:e</title>
<path fill="none" stroke="black" d="M630.59,-761.46C514.24,-762.67 248.69,-775.79 165,-716.38 104.69,-673.56 80.67,-584.31 71.78,-535.69"/>
<polygon fill="black" stroke="black" points="637,-761.42 645.02,-764.98 641,-761.4 645,-761.38 645,-761.38 645,-761.38 641,-761.4 644.98,-757.78 637,-761.42 637,-761.42"/>
<ellipse fill="none" stroke="black" cx="633.8" cy="-761.44" rx="3.2" ry="3.2"/>
</g>
<!-- scheduled_planting_dates&#45;&gt;public.users -->
<g id="edge61" class="edge">
<title>scheduled_planting_dates:w&#45;&gt;public.users:e</title>
<path fill="none" stroke="black" d="M630.54,-717.32C419.3,-715.79 354.68,-679.73 165,-572.38 145.89,-561.56 125.97,-547.84 109.12,-535.42"/>
<polygon fill="black" stroke="black" points="637,-717.35 644.99,-720.98 641,-717.36 645,-717.38 645,-717.38 645,-717.38 641,-717.36 645.01,-713.78 637,-717.35 637,-717.35"/>
<ellipse fill="none" stroke="black" cx="633.8" cy="-717.34" rx="3.2" ry="3.2"/>
</g>
<!-- strata&#45;&gt;public.users -->
<g id="edge63" class="edge">
<title>strata:w&#45;&gt;public.users:e</title>
<path fill="none" stroke="black" d="M450.61,-280.11C321.98,-269.45 275.61,-285.3 165,-362.38 126.04,-389.52 95.51,-436.84 79.46,-469.26"/>
<polygon fill="black" stroke="black" points="457.03,-280.67 464.68,-284.96 461.02,-281.02 465,-281.38 465,-281.38 465,-281.38 461.02,-281.02 465.32,-277.79 457.03,-280.67 457.03,-280.67"/>
<ellipse fill="none" stroke="black" cx="453.84" cy="-280.39" rx="3.2" ry="3.2"/>
</g>
<!-- strata&#45;&gt;public.users -->
<g id="edge64" class="edge">
<title>strata:w&#45;&gt;public.users:e</title>
<path fill="none" stroke="black" d="M450.21,-281.43C321.89,-282.48 275.49,-298.38 165,-375.38 129.93,-399.82 101.68,-440.61 84.68,-469.35"/>
<polygon fill="black" stroke="black" points="457,-281.41 465.01,-284.98 461,-281.39 465,-281.38 465,-281.38 465,-281.38 461,-281.39 464.99,-277.78 457,-281.41 457,-281.41"/>
<ellipse fill="none" stroke="black" cx="453.8" cy="-281.42" rx="3.2" ry="3.2"/>
</g>
<!-- strata&#45;&gt;public.users -->
<g id="edge65" class="edge">
<title>strata:w&#45;&gt;public.users:e</title>
<path fill="none" stroke="black" d="M450.61,-282.75C321.98,-295.45 275.61,-311.3 165,-388.38 134.27,-409.79 108.78,-443.76 91.5,-469.29"/>
<polygon fill="black" stroke="black" points="457.04,-282.14 465.34,-284.96 461.02,-281.76 465,-281.38 465,-281.38 465,-281.38 461.02,-281.76 464.66,-277.79 457.04,-282.14 457.04,-282.14"/>
<ellipse fill="none" stroke="black" cx="453.85" cy="-282.44" rx="3.2" ry="3.2"/>
</g>
<!-- strata&#45;&gt;planting_sites -->
<g id="edge66" class="edge">
<title>strata:w&#45;&gt;planting_sites:e</title>
<path fill="none" stroke="black" d="M450.61,-283.25C431.55,-288.94 426.64,-306.84 409,-326.38 368.19,-371.58 395.4,-441.38 334.5,-441.38"/>
<polygon fill="black" stroke="black" points="457.07,-282.41 465.46,-284.95 461.03,-281.89 465,-281.38 465,-281.38 465,-281.38 461.03,-281.89 464.54,-277.81 457.07,-282.41 457.07,-282.41"/>
<ellipse fill="none" stroke="black" cx="453.89" cy="-282.82" rx="3.2" ry="3.2"/>
</g>
<!-- stratum_t0_temp_densities -->
<g id="node22" class="node">
<title>stratum_t0_temp_densities</title>
<g id="a_node22"><a xlink:href="../../tables/stratum_t0_temp_densities.html" xlink:title="stratum_t0_temp_densities" target="_top">
<polygon fill="#ffffff" stroke="transparent" points="680.5,-218.38 680.5,-276.38 885.5,-276.38 885.5,-218.38 680.5,-218.38"/>
<polygon fill="#f5f5f5" stroke="transparent" points="681,-254.38 681,-276.38 886,-276.38 886,-254.38 681,-254.38"/>
<polygon fill="none" stroke="black" points="681,-254.38 681,-276.38 886,-276.38 886,-254.38 681,-254.38"/>
<text text-anchor="start" x="686" y="-263.58" font-family="Helvetica,sans-Serif" font-weight="bold" font-size="11.00">stratum_t0_temp_densities</text>
<text text-anchor="start" x="847" y="-262.58" font-family="Helvetica,sans-Serif" font-size="11.00">[table]</text>
<polygon fill="none" stroke="black" points="681,-236.38 681,-254.38 886,-254.38 886,-236.38 681,-236.38"/>
<text text-anchor="start" x="684" y="-242.58" font-family="Helvetica,sans-Serif" font-size="11.00">...</text>
<polygon fill="#ffffff" stroke="transparent" points="681,-218.38 681,-236.38 781,-236.38 781,-218.38 681,-218.38"/>
<polygon fill="none" stroke="black" points="681,-218.38 681,-236.38 781,-236.38 781,-218.38 681,-218.38"/>
<text text-anchor="start" x="684" y="-224.58" font-family="Helvetica,sans-Serif" font-size="11.00">&lt; 4</text>
<polygon fill="#ffffff" stroke="transparent" points="781,-218.38 781,-236.38 833,-236.38 833,-218.38 781,-218.38"/>
<polygon fill="none" stroke="black" points="781,-218.38 781,-236.38 833,-236.38 833,-218.38 781,-218.38"/>
<text text-anchor="start" x="823" y="-224.58" font-family="Helvetica,sans-Serif" font-size="11.00"> &#160;</text>
<polygon fill="#ffffff" stroke="transparent" points="833,-218.38 833,-236.38 886,-236.38 886,-218.38 833,-218.38"/>
<polygon fill="none" stroke="black" points="833,-218.38 833,-236.38 886,-236.38 886,-218.38 833,-218.38"/>
<text text-anchor="start" x="876" y="-224.58" font-family="Helvetica,sans-Serif" font-size="11.00"> &#160;</text>
</a>
</g>
</g>
<!-- stratum_t0_temp_densities&#45;&gt;public.users -->
<g id="edge67" class="edge">
<title>stratum_t0_temp_densities:w&#45;&gt;public.users:e</title>
<path fill="none" stroke="black" d="M665.38,-244.86C446.04,-235.07 343.06,-139.57 165,-276.38 103.16,-323.88 79.41,-418.93 71.07,-469.36"/>
<polygon fill="black" stroke="black" points="672.01,-245.09 679.87,-248.97 676,-245.23 680,-245.38 680,-245.38 680,-245.38 676,-245.23 680.13,-241.78 672.01,-245.09 672.01,-245.09"/>
<ellipse fill="none" stroke="black" cx="668.81" cy="-244.98" rx="3.2" ry="3.2"/>
</g>
<!-- stratum_t0_temp_densities&#45;&gt;public.users -->
<g id="edge68" class="edge">
<title>stratum_t0_temp_densities:w&#45;&gt;public.users:e</title>
<path fill="none" stroke="black" d="M665.38,-245.68C446.04,-248.07 343.06,-152.57 165,-289.38 106.64,-334.21 82.21,-421.38 72.63,-469.21"/>
<polygon fill="black" stroke="black" points="672,-245.54 680.07,-248.97 676,-245.46 680,-245.38 680,-245.38 680,-245.38 676,-245.46 679.93,-241.78 672,-245.54 672,-245.54"/>
<ellipse fill="none" stroke="black" cx="668.8" cy="-245.61" rx="3.2" ry="3.2"/>
</g>
<!-- stratum_t0_temp_densities&#45;&gt;public.species -->
<g id="edge69" class="edge">
<title>stratum_t0_temp_densities:w&#45;&gt;public.species:e</title>
<path fill="none" stroke="black" d="M666.06,-249.26C601.63,-288.59 651.13,-613.38 571,-613.38"/>
<polygon fill="black" stroke="black" points="672.29,-247.52 680.97,-248.84 676.15,-246.45 680,-245.38 680,-245.38 680,-245.38 676.15,-246.45 679.03,-241.91 672.29,-247.52 672.29,-247.52"/>
<ellipse fill="none" stroke="black" cx="669.21" cy="-248.38" rx="3.2" ry="3.2"/>
</g>
<!-- stratum_t0_temp_densities&#45;&gt;strata -->
<g id="edge70" class="edge">
<title>stratum_t0_temp_densities:w&#45;&gt;strata:e</title>
<path fill="none" stroke="black" d="M665.58,-246.09C616.64,-251.17 603.1,-281.38 547,-281.38"/>
<polygon fill="black" stroke="black" points="672.01,-245.77 680.18,-248.97 676,-245.57 680,-245.38 680,-245.38 680,-245.38 676,-245.57 679.82,-241.78 672.01,-245.77 672.01,-245.77"/>
<ellipse fill="none" stroke="black" cx="668.81" cy="-245.93" rx="3.2" ry="3.2"/>
</g>
</g>
</svg>
