<?xml version="1.0" encoding="UTF-8" standalone="no"?>
<!DOCTYPE svg PUBLIC "-//W3C//DTD SVG 1.1//EN"
 "http://www.w3.org/Graphics/SVG/1.1/DTD/svg11.dtd">
<!-- Generated by graphviz version 2.47.1 (20210515.0534)
 -->
<!-- Title: twoDegreesRelationshipsDiagram Pages: 1 -->
<svg width="937pt" height="396pt"
 viewBox="0.00 0.00 937.00 396.00" xmlns="http://www.w3.org/2000/svg" xmlns:xlink="http://www.w3.org/1999/xlink">
<g id="graph0" class="graph" transform="scale(1 1) rotate(0) translate(4 392)">
<title>twoDegreesRelationshipsDiagram</title>
<polygon fill="#ffffff" stroke="transparent" points="-4,4 -4,-392 933,-392 933,4 -4,4"/>
<text text-anchor="middle" x="73.5" y="-7.2" font-family="Helvetica,sans-Serif" font-size="11.00">Generated by SchemaSpy</text>
<!-- monitoring_plot_histories -->
<g id="node1" class="node">
<title>monitoring_plot_histories</title>
<g id="a_node1"><a xlink:href="../../tables/monitoring_plot_histories.html" xlink:title="monitoring_plot_histories" target="_top">
<polygon fill="#ffffff" stroke="transparent" points="649.5,-326 649.5,-384 846.5,-384 846.5,-326 649.5,-326"/>
<polygon fill="#f5f5f5" stroke="transparent" points="650,-362 650,-384 847,-384 847,-362 650,-362"/>
<polygon fill="none" stroke="black" points="650,-362 650,-384 847,-384 847,-362 650,-362"/>
<text text-anchor="start" x="655" y="-371.2" font-family="Helvetica,sans-Serif" font-weight="bold" font-size="11.00">monitoring_plot_histories</text>
<text text-anchor="start" x="808" y="-370.2" font-family="Helvetica,sans-Serif" font-size="11.00">[table]</text>
<polygon fill="none" stroke="black" points="650,-344 650,-362 847,-362 847,-344 650,-344"/>
<text text-anchor="start" x="653" y="-350.2" font-family="Helvetica,sans-Serif" font-size="11.00">...</text>
<polygon fill="#ffffff" stroke="transparent" points="650,-326 650,-344 742,-344 742,-326 650,-326"/>
<polygon fill="none" stroke="black" points="650,-326 650,-344 742,-344 742,-326 650,-326"/>
<text text-anchor="start" x="653" y="-332.2" font-family="Helvetica,sans-Serif" font-size="11.00">&lt; 6</text>
<polygon fill="#ffffff" stroke="transparent" points="742,-326 742,-344 790,-344 790,-326 742,-326"/>
<polygon fill="none" stroke="black" points="742,-326 742,-344 790,-344 790,-326 742,-326"/>
<text text-anchor="start" x="780" y="-332.2" font-family="Helvetica,sans-Serif" font-size="11.00"> &#160;</text>
<polygon fill="#ffffff" stroke="transparent" points="790,-326 790,-344 847,-344 847,-326 790,-326"/>
<polygon fill="none" stroke="black" points="790,-326 790,-344 847,-344 847,-326 790,-326"/>
<text text-anchor="start" x="828" y="-332.2" font-family="Helvetica,sans-Serif" font-size="11.00">1 &gt;</text>
</a>
</g>
</g>
<!-- public.users -->
<g id="node2" class="node">
<title>public.users</title>
<g id="a_node2"><a xlink:href="../../../public/tables/users.html" xlink:title="public.users" target="_top">
<polygon fill="#ffffff" stroke="transparent" points="8,-271 8,-329 124,-329 124,-271 8,-271"/>
<polygon fill="#f5f5f5" stroke="transparent" points="8,-307 8,-329 124,-329 124,-307 8,-307"/>
<polygon fill="none" stroke="black" points="8,-307 8,-329 124,-329 124,-307 8,-307"/>
<text text-anchor="start" x="13" y="-316.2" font-family="Helvetica,sans-Serif" font-weight="bold" font-size="11.00">public.users</text>
<text text-anchor="start" x="85" y="-315.2" font-family="Helvetica,sans-Serif" font-size="11.00">[table]</text>
<polygon fill="none" stroke="black" points="8,-289 8,-307 124,-307 124,-289 8,-289"/>
<text text-anchor="start" x="11" y="-295.2" font-family="Helvetica,sans-Serif" font-size="11.00">...</text>
<polygon fill="#ffffff" stroke="transparent" points="8,-271 8,-289 38,-289 38,-271 8,-271"/>
<polygon fill="none" stroke="black" points="8,-271 8,-289 38,-289 38,-271 8,-271"/>
<text text-anchor="start" x="11" y="-277.2" font-family="Helvetica,sans-Serif" font-size="11.00"> &#160;</text>
<polygon fill="#ffffff" stroke="transparent" points="38,-271 38,-289 87,-289 87,-271 38,-271"/>
<polygon fill="none" stroke="black" points="38,-271 38,-289 87,-289 87,-271 38,-271"/>
<text text-anchor="start" x="50" y="-277.2" font-family="Helvetica,sans-Serif" font-size="11.00">0 rows</text>
<polygon fill="#ffffff" stroke="transparent" points="87,-271 87,-289 124,-289 124,-271 87,-271"/>
<polygon fill="none" stroke="black" points="87,-271 87,-289 124,-289 124,-271 87,-271"/>
<text text-anchor="start" x="99" y="-277.2" font-family="Helvetica,sans-Serif" font-size="11.00">27 &gt;</text>
</a>
</g>
</g>
<!-- monitoring_plot_histories&#45;&gt;public.users -->
<g id="edge1" class="edge">
<title>monitoring_plot_histories:w&#45;&gt;public.users:e</title>
<path fill="none" stroke="black" d="M634.41,-353.11C430.43,-356.33 357.12,-425.41 165,-340 141.44,-329.53 150.78,-298 125,-298"/>
<polygon fill="black" stroke="black" points="641,-353.06 649.03,-356.6 645,-353.03 649,-353 649,-353 649,-353 645,-353.03 648.97,-349.4 641,-353.06 641,-353.06"/>
<ellipse fill="none" stroke="black" cx="637.8" cy="-353.09" rx="3.2" ry="3.2"/>
</g>
<!-- planting_site_histories -->
<g id="node3" class="node">
<title>planting_site_histories</title>
<g id="a_node3"><a xlink:href="../../tables/planting_site_histories.html" xlink:title="planting_site_histories" target="_top">
<polygon fill="#ffffff" stroke="transparent" points="348,-151 348,-275 526,-275 526,-151 348,-151"/>
<polygon fill="#f5f5f5" stroke="transparent" points="348,-253 348,-275 526,-275 526,-253 348,-253"/>
<polygon fill="none" stroke="black" points="348,-253 348,-275 526,-275 526,-253 348,-253"/>
<text text-anchor="start" x="353" y="-262.2" font-family="Helvetica,sans-Serif" font-weight="bold" font-size="11.00">planting_site_histories</text>
<text text-anchor="start" x="487" y="-261.2" font-family="Helvetica,sans-Serif" font-size="11.00">[table]</text>
<polygon fill="none" stroke="black" points="348,-231 348,-253 526,-253 526,-231 348,-231"/>
<image xlink:href="../../images/primaryKeys.png" width="11px" height="12px" preserveAspectRatio="xMinYMin meet" x="353" y="-248"/>
<text text-anchor="start" x="380" y="-239.2" font-family="Helvetica,sans-Serif" font-size="11.00">id</text>
<polygon fill="#ffffff" stroke="transparent" points="348,-209 348,-231 526,-231 526,-209 348,-209"/>
<polygon fill="none" stroke="black" points="348,-209 348,-231 526,-231 526,-209 348,-209"/>
<image xlink:href="../../images/foreignKeys.png" width="11px" height="12px" preserveAspectRatio="xMinYMin meet" x="353" y="-226"/>
<text text-anchor="start" x="380" y="-217.2" font-family="Helvetica,sans-Serif" font-size="11.00">planting_site_id</text>
<polygon fill="none" stroke="black" points="348,-187 348,-209 526,-209 526,-187 348,-187"/>
<image xlink:href="../../images/foreignKeys.png" width="11px" height="12px" preserveAspectRatio="xMinYMin meet" x="353" y="-204"/>
<text text-anchor="start" x="380" y="-195.2" font-family="Helvetica,sans-Serif" font-size="11.00">created_by</text>
<polygon fill="none" stroke="black" points="348,-169 348,-187 526,-187 526,-169 348,-169"/>
<text text-anchor="start" x="351" y="-175.2" font-family="Helvetica,sans-Serif" font-size="11.00">...</text>
<polygon fill="#ffffff" stroke="transparent" points="348,-151 348,-169 430,-169 430,-151 348,-151"/>
<polygon fill="none" stroke="black" points="348,-151 348,-169 430,-169 430,-151 348,-151"/>
<text text-anchor="start" x="351" y="-157.2" font-family="Helvetica,sans-Serif" font-size="11.00">&lt; 2</text>
<polygon fill="#ffffff" stroke="transparent" points="430,-151 430,-169 473,-169 473,-151 430,-151"/>
<polygon fill="none" stroke="black" points="430,-151 430,-169 473,-169 473,-151 430,-151"/>
<text text-anchor="start" x="463" y="-157.2" font-family="Helvetica,sans-Serif" font-size="11.00"> &#160;</text>
<polygon fill="#ffffff" stroke="transparent" points="473,-151 473,-169 526,-169 526,-151 473,-151"/>
<polygon fill="none" stroke="black" points="473,-151 473,-169 526,-169 526,-151 473,-151"/>
<text text-anchor="start" x="507" y="-157.2" font-family="Helvetica,sans-Serif" font-size="11.00">4 &gt;</text>
</a>
</g>
</g>
<!-- monitoring_plot_histories&#45;&gt;planting_site_histories -->
<g id="edge2" class="edge">
<title>monitoring_plot_histories:w&#45;&gt;planting_site_histories:e</title>
<path fill="none" stroke="black" d="M634.41,-352.47C605.34,-350.1 592.38,-339.62 567,-316 539.63,-290.53 564.39,-242 527,-242"/>
<polygon fill="black" stroke="black" points="641.01,-352.71 648.87,-356.6 645,-352.85 649,-353 649,-353 649,-353 645,-352.85 649.13,-349.4 641.01,-352.71 641.01,-352.71"/>
<ellipse fill="none" stroke="black" cx="637.81" cy="-352.59" rx="3.2" ry="3.2"/>
</g>
<!-- planting_sites -->
<g id="node4" class="node">
<title>planting_sites</title>
<g id="a_node4"><a xlink:href="../../tables/planting_sites.html" xlink:title="planting_sites" target="_top">
<polygon fill="#ffffff" stroke="transparent" points="173,-271 173,-329 299,-329 299,-271 173,-271"/>
<polygon fill="#f5f5f5" stroke="transparent" points="173,-307 173,-329 299,-329 299,-307 173,-307"/>
<polygon fill="none" stroke="black" points="173,-307 173,-329 299,-329 299,-307 173,-307"/>
<text text-anchor="start" x="178" y="-316.2" font-family="Helvetica,sans-Serif" font-weight="bold" font-size="11.00">planting_sites</text>
<text text-anchor="start" x="260" y="-315.2" font-family="Helvetica,sans-Serif" font-size="11.00">[table]</text>
<polygon fill="none" stroke="black" points="173,-289 173,-307 299,-307 299,-289 173,-289"/>
<text text-anchor="start" x="176" y="-295.2" font-family="Helvetica,sans-Serif" font-size="11.00">...</text>
<polygon fill="#ffffff" stroke="transparent" points="173,-271 173,-289 226,-289 226,-271 173,-271"/>
<polygon fill="none" stroke="black" points="173,-271 173,-289 226,-289 226,-271 173,-271"/>
<text text-anchor="start" x="176" y="-277.2" font-family="Helvetica,sans-Serif" font-size="11.00">&lt; 6</text>
<polygon fill="#ffffff" stroke="transparent" points="226,-271 226,-289 255,-289 255,-271 226,-271"/>
<polygon fill="none" stroke="black" points="226,-271 226,-289 255,-289 255,-271 226,-271"/>
<text text-anchor="start" x="245" y="-277.2" font-family="Helvetica,sans-Serif" font-size="11.00"> &#160;</text>
<polygon fill="#ffffff" stroke="transparent" points="255,-271 255,-289 299,-289 299,-271 255,-271"/>
<polygon fill="none" stroke="black" points="255,-271 255,-289 299,-289 299,-271 255,-271"/>
<text text-anchor="start" x="274" y="-277.2" font-family="Helvetica,sans-Serif" font-size="11.00">13 &gt;</text>
</a>
</g>
</g>
<!-- monitoring_plot_histories&#45;&gt;planting_sites -->
<g id="edge3" class="edge">
<title>monitoring_plot_histories:w&#45;&gt;planting_sites:e</title>
<path fill="none" stroke="black" d="M634.61,-352.49C549.1,-346.95 374.07,-298 300,-298"/>
<polygon fill="black" stroke="black" points="641.01,-352.72 648.87,-356.6 645,-352.86 649,-353 649,-353 649,-353 645,-352.86 649.13,-349.4 641.01,-352.72 641.01,-352.72"/>
<ellipse fill="none" stroke="black" cx="637.81" cy="-352.6" rx="3.2" ry="3.2"/>
</g>
<!-- planting_site_histories&#45;&gt;public.users -->
<g id="edge6" class="edge">
<title>planting_site_histories:w&#45;&gt;public.users:e</title>
<path fill="none" stroke="black" d="M332.58,-198.2C258.54,-200.31 234.12,-219.58 165,-261 144.23,-273.45 149.22,-298 125,-298"/>
<polygon fill="black" stroke="black" points="339,-198.11 347.05,-201.6 343,-198.05 347,-198 347,-198 347,-198 343,-198.05 346.95,-194.4 339,-198.11 339,-198.11"/>
<ellipse fill="none" stroke="black" cx="335.8" cy="-198.15" rx="3.2" ry="3.2"/>
</g>
<!-- planting_site_histories&#45;&gt;planting_sites -->
<g id="edge7" class="edge">
<title>planting_site_histories:w&#45;&gt;planting_sites:e</title>
<path fill="none" stroke="black" d="M333.16,-224.88C315.14,-241.96 334.31,-298 300,-298"/>
<polygon fill="black" stroke="black" points="339.45,-222.66 348.2,-223.4 343.23,-221.33 347,-220 347,-220 347,-220 343.23,-221.33 345.8,-216.6 339.45,-222.66 339.45,-222.66"/>
<ellipse fill="none" stroke="black" cx="336.44" cy="-223.72" rx="3.2" ry="3.2"/>
</g>
<!-- planting_sites&#45;&gt;public.users -->
<g id="edge8" class="edge">
<title>planting_sites:w&#45;&gt;public.users:e</title>
<path fill="none" stroke="black" d="M157.74,-294.42C147.08,-292.45 140.18,-293.64 125,-298"/>
<polygon fill="black" stroke="black" points="164.24,-296.05 171.12,-301.49 168.12,-297.03 172,-298 172,-298 172,-298 168.12,-297.03 172.88,-294.51 164.24,-296.05 164.24,-296.05"/>
<ellipse fill="none" stroke="black" cx="161.14" cy="-295.28" rx="3.2" ry="3.2"/>
</g>
<!-- planting_sites&#45;&gt;public.users -->
<g id="edge9" class="edge">
<title>planting_sites:w&#45;&gt;public.users:e</title>
<path fill="none" stroke="black" d="M158.08,-302.1C147.23,-304.51 140.34,-303.14 125,-298"/>
<polygon fill="black" stroke="black" points="164.33,-300.26 173.02,-301.45 168.16,-299.13 172,-298 172,-298 172,-298 168.16,-299.13 170.98,-294.55 164.33,-300.26 164.33,-300.26"/>
<ellipse fill="none" stroke="black" cx="161.26" cy="-301.16" rx="3.2" ry="3.2"/>
</g>
<!-- observations -->
<g id="node5" class="node">
<title>observations</title>
<g id="a_node5"><a xlink:href="../../tables/observations.html" xlink:title="observations" target="_top">
<polygon fill="#ffffff" stroke="transparent" points="687.5,-247 687.5,-305 808.5,-305 808.5,-247 687.5,-247"/>
<polygon fill="#f5f5f5" stroke="transparent" points="688,-283 688,-305 809,-305 809,-283 688,-283"/>
<polygon fill="none" stroke="black" points="688,-283 688,-305 809,-305 809,-283 688,-283"/>
<text text-anchor="start" x="693" y="-292.2" font-family="Helvetica,sans-Serif" font-weight="bold" font-size="11.00">observations</text>
<text text-anchor="start" x="770" y="-291.2" font-family="Helvetica,sans-Serif" font-size="11.00">[table]</text>
<polygon fill="none" stroke="black" points="688,-265 688,-283 809,-283 809,-265 688,-265"/>
<text text-anchor="start" x="691" y="-271.2" font-family="Helvetica,sans-Serif" font-size="11.00">...</text>
<polygon fill="#ffffff" stroke="transparent" points="688,-247 688,-265 739,-265 739,-247 688,-247"/>
<polygon fill="none" stroke="black" points="688,-247 688,-265 739,-265 739,-247 688,-247"/>
<text text-anchor="start" x="691" y="-253.2" font-family="Helvetica,sans-Serif" font-size="11.00">&lt; 4</text>
<polygon fill="#ffffff" stroke="transparent" points="739,-247 739,-265 766,-265 766,-247 739,-247"/>
<polygon fill="none" stroke="black" points="739,-247 739,-265 766,-265 766,-247 739,-247"/>
<text text-anchor="start" x="756" y="-253.2" font-family="Helvetica,sans-Serif" font-size="11.00"> &#160;</text>
<polygon fill="#ffffff" stroke="transparent" points="766,-247 766,-265 809,-265 809,-247 766,-247"/>
<polygon fill="none" stroke="black" points="766,-247 766,-265 809,-265 809,-247 766,-247"/>
<text text-anchor="start" x="784" y="-253.2" font-family="Helvetica,sans-Serif" font-size="11.00">16 &gt;</text>
</a>
</g>
</g>
<!-- observations&#45;&gt;planting_site_histories -->
<g id="edge4" class="edge">
<title>observations:w&#45;&gt;planting_site_histories:e</title>
<path fill="none" stroke="black" d="M672.52,-273.55C612.09,-269.66 594.42,-242 527,-242"/>
<polygon fill="black" stroke="black" points="679,-273.75 686.89,-277.6 683,-273.88 687,-274 687,-274 687,-274 683,-273.88 687.11,-270.4 679,-273.75 679,-273.75"/>
<ellipse fill="none" stroke="black" cx="675.81" cy="-273.65" rx="3.2" ry="3.2"/>
</g>
<!-- observations&#45;&gt;planting_sites -->
<g id="edge5" class="edge">
<title>observations:w&#45;&gt;planting_sites:e</title>
<path fill="none" stroke="black" d="M672.26,-274.13C615.95,-275.14 596.88,-281.92 534,-286 430.08,-292.74 404.14,-298 300,-298"/>
<polygon fill="black" stroke="black" points="679,-274.07 687.03,-277.6 683,-274.03 687,-274 687,-274 687,-274 683,-274.03 686.97,-270.4 679,-274.07 679,-274.07"/>
<ellipse fill="none" stroke="black" cx="675.8" cy="-274.1" rx="3.2" ry="3.2"/>
</g>
<!-- simplified_planting_site_histories -->
<g id="node6" class="node">
<title>simplified_planting_site_histories</title>
<g id="a_node6"><a xlink:href="../../tables/simplified_planting_site_histories.html" xlink:title="simplified_planting_site_histories" target="_top">
<polygon fill="#ffffff" stroke="transparent" points="575,-37 575,-147 921,-147 921,-37 575,-37"/>
<polygon fill="#f5f5f5" stroke="transparent" points="577,-123 577,-145 919,-145 919,-123 577,-123"/>
<polygon fill="none" stroke="black" points="577,-123 577,-145 919,-145 919,-123 577,-123"/>
<text text-anchor="start" x="582" y="-132.2" font-family="Helvetica,sans-Serif" font-weight="bold" font-size="11.00">simplified_planting_site_histories</text>
<text text-anchor="start" x="880" y="-131.2" font-family="Helvetica,sans-Serif" font-size="11.00">[table]</text>
<polygon fill="none" stroke="black" points="577,-101 577,-123 796,-123 796,-101 577,-101"/>
<image xlink:href="../../images/primaryKeys.png" width="11px" height="12px" preserveAspectRatio="xMinYMin meet" x="582" y="-118"/>
<text text-anchor="start" x="597" y="-109.2" font-family="Helvetica,sans-Serif" font-size="11.00">planting_site_history_id</text>
<polygon fill="none" stroke="black" points="796,-101 796,-123 919,-123 919,-101 796,-101"/>
<text text-anchor="start" x="799" y="-109.2" font-family="Helvetica,sans-Serif" font-size="11.00">int8[19]</text>
<polygon fill="none" stroke="black" points="577,-79 577,-101 796,-101 796,-79 577,-79"/>
<text text-anchor="start" x="597" y="-87.2" font-family="Helvetica,sans-Serif" font-size="11.00">boundary</text>
<polygon fill="none" stroke="black" points="796,-79 796,-101 919,-101 919,-79 796,-79"/>
<text text-anchor="start" x="799" y="-87.2" font-family="Helvetica,sans-Serif" font-size="11.00">geometry[2147483647]</text>
<polygon fill="none" stroke="black" points="577,-57 577,-79 796,-79 796,-57 577,-57"/>
<text text-anchor="start" x="597" y="-65.2" font-family="Helvetica,sans-Serif" font-size="11.00">exclusion</text>
<polygon fill="none" stroke="black" points="796,-57 796,-79 919,-79 919,-57 796,-57"/>
<text text-anchor="start" x="799" y="-65.2" font-family="Helvetica,sans-Serif" font-size="11.00">geometry[2147483647]</text>
<polygon fill="#ffffff" stroke="transparent" points="577,-39 577,-57 691,-57 691,-39 577,-39"/>
<polygon fill="none" stroke="black" points="577,-39 577,-57 691,-57 691,-39 577,-39"/>
<text text-anchor="start" x="580" y="-45.2" font-family="Helvetica,sans-Serif" font-size="11.00">&lt; 1</text>
<polygon fill="#ffffff" stroke="transparent" points="691,-39 691,-57 796,-57 796,-39 691,-39"/>
<polygon fill="none" stroke="black" points="691,-39 691,-57 796,-57 796,-39 691,-39"/>
<text text-anchor="start" x="786" y="-45.2" font-family="Helvetica,sans-Serif" font-size="11.00"> &#160;</text>
<polygon fill="#ffffff" stroke="transparent" points="796,-39 796,-57 919,-57 919,-39 796,-39"/>
<polygon fill="none" stroke="black" points="796,-39 796,-57 919,-57 919,-39 796,-39"/>
<text text-anchor="start" x="900" y="-45.2" font-family="Helvetica,sans-Serif" font-size="11.00">0 &gt;</text>
<polygon fill="none" stroke="black" stroke-width="2" points="576,-38 576,-146 920,-146 920,-38 576,-38"/>
</a>
</g>
</g>
<!-- simplified_planting_site_histories&#45;&gt;planting_site_histories -->
<g id="edge10" class="edge">
<title>simplified_planting_site_histories:w&#45;&gt;planting_site_histories:e</title>
<path fill="none" stroke="black" d="M565.69,-113.55C523.29,-128.22 584.77,-242 527,-242"/>
<polygon fill="black" stroke="black" points="574.61,-108.16 575.8,-116.07 574.22,-116.31 573.03,-108.4 574.61,-108.16"/>
<polyline fill="none" stroke="black" points="576,-112 572.04,-112.59 "/>
<ellipse fill="none" stroke="black" cx="568.88" cy="-113.07" rx="3.2" ry="3.2"/>
</g>
<!-- stratum_histories -->
<g id="node7" class="node">
<title>stratum_histories</title>
<g id="a_node7"><a xlink:href="../../tables/stratum_histories.html" xlink:title="stratum_histories" target="_top">
<polygon fill="#ffffff" stroke="transparent" points="673,-168 673,-226 823,-226 823,-168 673,-168"/>
<polygon fill="#f5f5f5" stroke="transparent" points="673,-204 673,-226 823,-226 823,-204 673,-204"/>
<polygon fill="none" stroke="black" points="673,-204 673,-226 823,-226 823,-204 673,-204"/>
<text text-anchor="start" x="678" y="-213.2" font-family="Helvetica,sans-Serif" font-weight="bold" font-size="11.00">stratum_histories</text>
<text text-anchor="start" x="784" y="-212.2" font-family="Helvetica,sans-Serif" font-size="11.00">[table]</text>
<polygon fill="none" stroke="black" points="673,-186 673,-204 823,-204 823,-186 673,-186"/>
<text text-anchor="start" x="676" y="-192.2" font-family="Helvetica,sans-Serif" font-size="11.00">...</text>
<polygon fill="#ffffff" stroke="transparent" points="673,-168 673,-186 741,-186 741,-168 673,-168"/>
<polygon fill="none" stroke="black" points="673,-168 673,-186 741,-186 741,-168 673,-168"/>
<text text-anchor="start" x="676" y="-174.2" font-family="Helvetica,sans-Serif" font-size="11.00">&lt; 2</text>
<polygon fill="#ffffff" stroke="transparent" points="741,-168 741,-186 777,-186 777,-168 741,-168"/>
<polygon fill="none" stroke="black" points="741,-168 741,-186 777,-186 777,-168 741,-168"/>
<text text-anchor="start" x="767" y="-174.2" font-family="Helvetica,sans-Serif" font-size="11.00"> &#160;</text>
<polygon fill="#ffffff" stroke="transparent" points="777,-168 777,-186 823,-186 823,-168 777,-168"/>
<polygon fill="none" stroke="black" points="777,-168 777,-186 823,-186 823,-168 777,-168"/>
<text text-anchor="start" x="804" y="-174.2" font-family="Helvetica,sans-Serif" font-size="11.00">2 &gt;</text>
</a>
</g>
</g>
<!-- stratum_histories&#45;&gt;planting_site_histories -->
<g id="edge11" class="edge">
<title>stratum_histories:w&#45;&gt;planting_site_histories:e</title>
<path fill="none" stroke="black" d="M657.48,-195.78C602.47,-201.89 589.59,-242 527,-242"/>
<polygon fill="black" stroke="black" points="664.01,-195.43 672.19,-198.59 668.01,-195.21 672,-195 672,-195 672,-195 668.01,-195.21 671.81,-191.41 664.01,-195.43 664.01,-195.43"/>
<ellipse fill="none" stroke="black" cx="660.82" cy="-195.6" rx="3.2" ry="3.2"/>
</g>
</g>
</svg>
