<?xml version="1.0" encoding="UTF-8" standalone="no"?>
<!DOCTYPE svg PUBLIC "-//W3C//DTD SVG 1.1//EN"
 "http://www.w3.org/Graphics/SVG/1.1/DTD/svg11.dtd">
<!-- Generated by graphviz version 2.47.1 (20210515.0534)
 -->
<!-- Title: twoDegreesRelationshipsDiagram Pages: 1 -->
<svg width="1230pt" height="782pt"
 viewBox="0.00 0.00 1230.00 781.65" xmlns="http://www.w3.org/2000/svg" xmlns:xlink="http://www.w3.org/1999/xlink">
<g id="graph0" class="graph" transform="scale(1 1) rotate(0) translate(4 777.65)">
<title>twoDegreesRelationshipsDiagram</title>
<polygon fill="#ffffff" stroke="transparent" points="-4,4 -4,-777.65 1226,-777.65 1226,4 -4,4"/>
<text text-anchor="middle" x="73.5" y="-7.2" font-family="Helvetica,sans-Serif" font-size="11.00">Generated by SchemaSpy</text>
<!-- monitoring_plot_histories -->
<g id="node1" class="node">
<title>monitoring_plot_histories</title>
<g id="a_node1"><a xlink:href="../../tables/monitoring_plot_histories.html" xlink:title="monitoring_plot_histories" target="_top">
<polygon fill="#ffffff" stroke="transparent" points="1017,-299.47 1017,-357.47 1214,-357.47 1214,-299.47 1017,-299.47"/>
<polygon fill="#f5f5f5" stroke="transparent" points="1017.5,-335.47 1017.5,-357.47 1214.5,-357.47 1214.5,-335.47 1017.5,-335.47"/>
<polygon fill="none" stroke="black" points="1017.5,-335.47 1017.5,-357.47 1214.5,-357.47 1214.5,-335.47 1017.5,-335.47"/>
<text text-anchor="start" x="1022.5" y="-344.67" font-family="Helvetica,sans-Serif" font-weight="bold" font-size="11.00">monitoring_plot_histories</text>
<text text-anchor="start" x="1175.5" y="-343.67" font-family="Helvetica,sans-Serif" font-size="11.00">[table]</text>
<polygon fill="none" stroke="black" points="1017.5,-317.47 1017.5,-335.47 1214.5,-335.47 1214.5,-317.47 1017.5,-317.47"/>
<text text-anchor="start" x="1020.5" y="-323.67" font-family="Helvetica,sans-Serif" font-size="11.00">...</text>
<polygon fill="#ffffff" stroke="transparent" points="1017.5,-299.47 1017.5,-317.47 1109.5,-317.47 1109.5,-299.47 1017.5,-299.47"/>
<polygon fill="none" stroke="black" points="1017.5,-299.47 1017.5,-317.47 1109.5,-317.47 1109.5,-299.47 1017.5,-299.47"/>
<text text-anchor="start" x="1020.5" y="-305.67" font-family="Helvetica,sans-Serif" font-size="11.00">&lt; 6</text>
<polygon fill="#ffffff" stroke="transparent" points="1109.5,-299.47 1109.5,-317.47 1157.5,-317.47 1157.5,-299.47 1109.5,-299.47"/>
<polygon fill="none" stroke="black" points="1109.5,-299.47 1109.5,-317.47 1157.5,-317.47 1157.5,-299.47 1109.5,-299.47"/>
<text text-anchor="start" x="1147.5" y="-305.67" font-family="Helvetica,sans-Serif" font-size="11.00"> &#160;</text>
<polygon fill="#ffffff" stroke="transparent" points="1157.5,-299.47 1157.5,-317.47 1214.5,-317.47 1214.5,-299.47 1157.5,-299.47"/>
<polygon fill="none" stroke="black" points="1157.5,-299.47 1157.5,-317.47 1214.5,-317.47 1214.5,-299.47 1157.5,-299.47"/>
<text text-anchor="start" x="1195.5" y="-305.67" font-family="Helvetica,sans-Serif" font-size="11.00">1 &gt;</text>
</a>
</g>
</g>
<!-- public.users -->
<g id="node2" class="node">
<title>public.users</title>
<g id="a_node2"><a xlink:href="../../../public/tables/users.html" xlink:title="public.users" target="_top">
<polygon fill="#ffffff" stroke="transparent" points="8,-359.47 8,-417.47 124,-417.47 124,-359.47 8,-359.47"/>
<polygon fill="#f5f5f5" stroke="transparent" points="8,-395.47 8,-417.47 124,-417.47 124,-395.47 8,-395.47"/>
<polygon fill="none" stroke="black" points="8,-395.47 8,-417.47 124,-417.47 124,-395.47 8,-395.47"/>
<text text-anchor="start" x="13" y="-404.67" font-family="Helvetica,sans-Serif" font-weight="bold" font-size="11.00">public.users</text>
<text text-anchor="start" x="85" y="-403.67" font-family="Helvetica,sans-Serif" font-size="11.00">[table]</text>
<polygon fill="none" stroke="black" points="8,-377.47 8,-395.47 124,-395.47 124,-377.47 8,-377.47"/>
<text text-anchor="start" x="11" y="-383.67" font-family="Helvetica,sans-Serif" font-size="11.00">...</text>
<polygon fill="#ffffff" stroke="transparent" points="8,-359.47 8,-377.47 38,-377.47 38,-359.47 8,-359.47"/>
<polygon fill="none" stroke="black" points="8,-359.47 8,-377.47 38,-377.47 38,-359.47 8,-359.47"/>
<text text-anchor="start" x="11" y="-365.67" font-family="Helvetica,sans-Serif" font-size="11.00"> &#160;</text>
<polygon fill="#ffffff" stroke="transparent" points="38,-359.47 38,-377.47 87,-377.47 87,-359.47 38,-359.47"/>
<polygon fill="none" stroke="black" points="38,-359.47 38,-377.47 87,-377.47 87,-359.47 38,-359.47"/>
<text text-anchor="start" x="50" y="-365.67" font-family="Helvetica,sans-Serif" font-size="11.00">0 rows</text>
<polygon fill="#ffffff" stroke="transparent" points="87,-359.47 87,-377.47 124,-377.47 124,-359.47 87,-359.47"/>
<polygon fill="none" stroke="black" points="87,-359.47 87,-377.47 124,-377.47 124,-359.47 87,-359.47"/>
<text text-anchor="start" x="99" y="-365.67" font-family="Helvetica,sans-Serif" font-size="11.00">27 &gt;</text>
</a>
</g>
</g>
<!-- monitoring_plot_histories&#45;&gt;public.users -->
<g id="edge1" class="edge">
<title>monitoring_plot_histories:w&#45;&gt;public.users:e</title>
<path fill="none" stroke="black" d="M1002.46,-330.18C942.84,-366.54 1035.51,-659.13 976,-714.47 841.85,-839.24 747.2,-727.47 564,-727.47 564,-727.47 564,-727.47 387,-727.47 242.02,-727.47 242.15,-611.22 165,-488.47 139.09,-447.25 173.69,-386.47 125,-386.47"/>
<polygon fill="black" stroke="black" points="1008.77,-328.52 1017.42,-329.96 1012.63,-327.5 1016.5,-326.47 1016.5,-326.47 1016.5,-326.47 1012.63,-327.5 1015.58,-322.99 1008.77,-328.52 1008.77,-328.52"/>
<ellipse fill="none" stroke="black" cx="1005.67" cy="-329.33" rx="3.2" ry="3.2"/>
</g>
<!-- monitoring_plots -->
<g id="node3" class="node">
<title>monitoring_plots</title>
<g id="a_node3"><a xlink:href="../../tables/monitoring_plots.html" xlink:title="monitoring_plots" target="_top">
<polygon fill="#ffffff" stroke="transparent" points="760.5,-645.47 760.5,-703.47 905.5,-703.47 905.5,-645.47 760.5,-645.47"/>
<polygon fill="#f5f5f5" stroke="transparent" points="761,-681.47 761,-703.47 906,-703.47 906,-681.47 761,-681.47"/>
<polygon fill="none" stroke="black" points="761,-681.47 761,-703.47 906,-703.47 906,-681.47 761,-681.47"/>
<text text-anchor="start" x="766" y="-690.67" font-family="Helvetica,sans-Serif" font-weight="bold" font-size="11.00">monitoring_plots</text>
<text text-anchor="start" x="867" y="-689.67" font-family="Helvetica,sans-Serif" font-size="11.00">[table]</text>
<polygon fill="none" stroke="black" points="761,-663.47 761,-681.47 906,-681.47 906,-663.47 761,-663.47"/>
<text text-anchor="start" x="764" y="-669.67" font-family="Helvetica,sans-Serif" font-size="11.00">...</text>
<polygon fill="#ffffff" stroke="transparent" points="761,-645.47 761,-663.47 824,-663.47 824,-645.47 761,-645.47"/>
<polygon fill="none" stroke="black" points="761,-645.47 761,-663.47 824,-663.47 824,-645.47 761,-645.47"/>
<text text-anchor="start" x="764" y="-651.67" font-family="Helvetica,sans-Serif" font-size="11.00">&lt; 5</text>
<polygon fill="#ffffff" stroke="transparent" points="824,-645.47 824,-663.47 857,-663.47 857,-645.47 824,-645.47"/>
<polygon fill="none" stroke="black" points="824,-645.47 824,-663.47 857,-663.47 857,-645.47 824,-645.47"/>
<text text-anchor="start" x="847" y="-651.67" font-family="Helvetica,sans-Serif" font-size="11.00"> &#160;</text>
<polygon fill="#ffffff" stroke="transparent" points="857,-645.47 857,-663.47 906,-663.47 906,-645.47 857,-645.47"/>
<polygon fill="none" stroke="black" points="857,-645.47 857,-663.47 906,-663.47 906,-645.47 857,-645.47"/>
<text text-anchor="start" x="881" y="-651.67" font-family="Helvetica,sans-Serif" font-size="11.00">16 &gt;</text>
</a>
</g>
</g>
<!-- monitoring_plot_histories&#45;&gt;monitoring_plots -->
<g id="edge2" class="edge">
<title>monitoring_plot_histories:w&#45;&gt;monitoring_plots:e</title>
<path fill="none" stroke="black" d="M1002.67,-330.88C957.23,-364.66 1012.28,-582.94 976,-635.47 956.22,-664.11 941.8,-672.47 907,-672.47"/>
<polygon fill="black" stroke="black" points="1008.88,-328.9 1017.59,-329.91 1012.69,-327.69 1016.5,-326.47 1016.5,-326.47 1016.5,-326.47 1012.69,-327.69 1015.41,-323.04 1008.88,-328.9 1008.88,-328.9"/>
<ellipse fill="none" stroke="black" cx="1005.83" cy="-329.87" rx="3.2" ry="3.2"/>
</g>
<!-- planting_sites -->
<g id="node4" class="node">
<title>planting_sites</title>
<g id="a_node4"><a xlink:href="../../tables/planting_sites.html" xlink:title="planting_sites" target="_top">
<polygon fill="#ffffff" stroke="transparent" points="173,-253.47 173,-311.47 299,-311.47 299,-253.47 173,-253.47"/>
<polygon fill="#f5f5f5" stroke="transparent" points="173,-289.47 173,-311.47 299,-311.47 299,-289.47 173,-289.47"/>
<polygon fill="none" stroke="black" points="173,-289.47 173,-311.47 299,-311.47 299,-289.47 173,-289.47"/>
<text text-anchor="start" x="178" y="-298.67" font-family="Helvetica,sans-Serif" font-weight="bold" font-size="11.00">planting_sites</text>
<text text-anchor="start" x="260" y="-297.67" font-family="Helvetica,sans-Serif" font-size="11.00">[table]</text>
<polygon fill="none" stroke="black" points="173,-271.47 173,-289.47 299,-289.47 299,-271.47 173,-271.47"/>
<text text-anchor="start" x="176" y="-277.67" font-family="Helvetica,sans-Serif" font-size="11.00">...</text>
<polygon fill="#ffffff" stroke="transparent" points="173,-253.47 173,-271.47 226,-271.47 226,-253.47 173,-253.47"/>
<polygon fill="none" stroke="black" points="173,-253.47 173,-271.47 226,-271.47 226,-253.47 173,-253.47"/>
<text text-anchor="start" x="176" y="-259.67" font-family="Helvetica,sans-Serif" font-size="11.00">&lt; 6</text>
<polygon fill="#ffffff" stroke="transparent" points="226,-253.47 226,-271.47 255,-271.47 255,-253.47 226,-253.47"/>
<polygon fill="none" stroke="black" points="226,-253.47 226,-271.47 255,-271.47 255,-253.47 226,-253.47"/>
<text text-anchor="start" x="245" y="-259.67" font-family="Helvetica,sans-Serif" font-size="11.00"> &#160;</text>
<polygon fill="#ffffff" stroke="transparent" points="255,-253.47 255,-271.47 299,-271.47 299,-253.47 255,-253.47"/>
<polygon fill="none" stroke="black" points="255,-253.47 255,-271.47 299,-271.47 299,-253.47 255,-253.47"/>
<text text-anchor="start" x="274" y="-259.67" font-family="Helvetica,sans-Serif" font-size="11.00">13 &gt;</text>
</a>
</g>
</g>
<!-- monitoring_plot_histories&#45;&gt;planting_sites -->
<g id="edge3" class="edge">
<title>monitoring_plot_histories:w&#45;&gt;planting_sites:e</title>
<path fill="none" stroke="black" d="M1002.04,-325.09C930.17,-309.43 1049.1,-164.5 976,-103.47 802.42,41.42 682.43,-70.83 469,-145.47 407.82,-166.87 387.03,-168.88 340,-213.47 314.83,-237.34 334.68,-280.47 300,-280.47"/>
<polygon fill="black" stroke="black" points="1008.54,-325.71 1016.16,-330.06 1012.52,-326.09 1016.5,-326.47 1016.5,-326.47 1016.5,-326.47 1012.52,-326.09 1016.84,-322.89 1008.54,-325.71 1008.54,-325.71"/>
<ellipse fill="none" stroke="black" cx="1005.35" cy="-325.41" rx="3.2" ry="3.2"/>
</g>
<!-- substratum_histories -->
<g id="node5" class="node">
<title>substratum_histories</title>
<g id="a_node5"><a xlink:href="../../tables/substratum_histories.html" xlink:title="substratum_histories" target="_top">
<polygon fill="#ffffff" stroke="transparent" points="747.5,-299.47 747.5,-357.47 918.5,-357.47 918.5,-299.47 747.5,-299.47"/>
<polygon fill="#f5f5f5" stroke="transparent" points="748,-335.47 748,-357.47 919,-357.47 919,-335.47 748,-335.47"/>
<polygon fill="none" stroke="black" points="748,-335.47 748,-357.47 919,-357.47 919,-335.47 748,-335.47"/>
<text text-anchor="start" x="753" y="-344.67" font-family="Helvetica,sans-Serif" font-weight="bold" font-size="11.00">substratum_histories</text>
<text text-anchor="start" x="880" y="-343.67" font-family="Helvetica,sans-Serif" font-size="11.00">[table]</text>
<polygon fill="none" stroke="black" points="748,-317.47 748,-335.47 919,-335.47 919,-317.47 748,-317.47"/>
<text text-anchor="start" x="751" y="-323.67" font-family="Helvetica,sans-Serif" font-size="11.00">...</text>
<polygon fill="#ffffff" stroke="transparent" points="748,-299.47 748,-317.47 827,-317.47 827,-299.47 748,-299.47"/>
<polygon fill="none" stroke="black" points="748,-299.47 748,-317.47 827,-317.47 827,-299.47 748,-299.47"/>
<text text-anchor="start" x="751" y="-305.67" font-family="Helvetica,sans-Serif" font-size="11.00">&lt; 2</text>
<polygon fill="#ffffff" stroke="transparent" points="827,-299.47 827,-317.47 868,-317.47 868,-299.47 827,-299.47"/>
<polygon fill="none" stroke="black" points="827,-299.47 827,-317.47 868,-317.47 868,-299.47 827,-299.47"/>
<text text-anchor="start" x="858" y="-305.67" font-family="Helvetica,sans-Serif" font-size="11.00"> &#160;</text>
<polygon fill="#ffffff" stroke="transparent" points="868,-299.47 868,-317.47 919,-317.47 919,-299.47 868,-299.47"/>
<polygon fill="none" stroke="black" points="868,-299.47 868,-317.47 919,-317.47 919,-299.47 868,-299.47"/>
<text text-anchor="start" x="900" y="-305.67" font-family="Helvetica,sans-Serif" font-size="11.00">2 &gt;</text>
</a>
</g>
</g>
<!-- monitoring_plot_histories&#45;&gt;substratum_histories -->
<g id="edge4" class="edge">
<title>monitoring_plot_histories:w&#45;&gt;substratum_histories:e</title>
<path fill="none" stroke="black" d="M1001.8,-326.47C970.43,-326.47 957.53,-326.47 920,-326.47"/>
<polygon fill="black" stroke="black" points="1008.5,-326.47 1016.5,-330.07 1012.5,-326.47 1016.5,-326.47 1016.5,-326.47 1016.5,-326.47 1012.5,-326.47 1016.5,-322.87 1008.5,-326.47 1008.5,-326.47"/>
<ellipse fill="none" stroke="black" cx="1005.3" cy="-326.47" rx="3.2" ry="3.2"/>
</g>
<!-- substrata -->
<g id="node6" class="node">
<title>substrata</title>
<g id="a_node6"><a xlink:href="../../tables/substrata.html" xlink:title="substrata" target="_top">
<polygon fill="#ffffff" stroke="transparent" points="477,-211.47 477,-423.47 649,-423.47 649,-211.47 477,-211.47"/>
<polygon fill="#f5f5f5" stroke="transparent" points="477,-401.47 477,-423.47 649,-423.47 649,-401.47 477,-401.47"/>
<polygon fill="none" stroke="black" points="477,-401.47 477,-423.47 649,-423.47 649,-401.47 477,-401.47"/>
<text text-anchor="start" x="482" y="-410.67" font-family="Helvetica,sans-Serif" font-weight="bold" font-size="11.00">substrata</text>
<text text-anchor="start" x="610" y="-409.67" font-family="Helvetica,sans-Serif" font-size="11.00">[table]</text>
<polygon fill="none" stroke="black" points="477,-379.47 477,-401.47 649,-401.47 649,-379.47 477,-379.47"/>
<image xlink:href="../../images/primaryKeys.png" width="11px" height="12px" preserveAspectRatio="xMinYMin meet" x="482" y="-396.475"/>
<text text-anchor="start" x="497" y="-387.67" font-family="Helvetica,sans-Serif" font-size="11.00">id</text>
<polygon fill="#ffffff" stroke="transparent" points="477,-357.47 477,-379.47 649,-379.47 649,-357.47 477,-357.47"/>
<polygon fill="none" stroke="black" points="477,-357.47 477,-379.47 649,-379.47 649,-357.47 477,-357.47"/>
<image xlink:href="../../images/foreignKeys.png" width="11px" height="12px" preserveAspectRatio="xMinYMin meet" x="482" y="-374.475"/>
<text text-anchor="start" x="497" y="-365.67" font-family="Helvetica,sans-Serif" font-size="11.00">stratum_id</text>
<polygon fill="#ffffff" stroke="transparent" points="477,-335.47 477,-357.47 649,-357.47 649,-335.47 477,-335.47"/>
<polygon fill="none" stroke="black" points="477,-335.47 477,-357.47 649,-357.47 649,-335.47 477,-335.47"/>
<text text-anchor="start" x="497" y="-343.67" font-family="Helvetica,sans-Serif" font-size="11.00">name</text>
<polygon fill="none" stroke="black" points="477,-313.47 477,-335.47 649,-335.47 649,-313.47 477,-313.47"/>
<image xlink:href="../../images/foreignKeys.png" width="11px" height="12px" preserveAspectRatio="xMinYMin meet" x="482" y="-330.475"/>
<text text-anchor="start" x="497" y="-321.67" font-family="Helvetica,sans-Serif" font-size="11.00">created_by</text>
<polygon fill="none" stroke="black" points="477,-291.47 477,-313.47 649,-313.47 649,-291.47 477,-291.47"/>
<image xlink:href="../../images/foreignKeys.png" width="11px" height="12px" preserveAspectRatio="xMinYMin meet" x="482" y="-308.475"/>
<text text-anchor="start" x="497" y="-299.67" font-family="Helvetica,sans-Serif" font-size="11.00">modified_by</text>
<polygon fill="#ffffff" stroke="transparent" points="477,-269.47 477,-291.47 649,-291.47 649,-269.47 477,-269.47"/>
<polygon fill="none" stroke="black" points="477,-269.47 477,-291.47 649,-291.47 649,-269.47 477,-269.47"/>
<image xlink:href="../../images/foreignKeys.png" width="11px" height="12px" preserveAspectRatio="xMinYMin meet" x="482" y="-286.475"/>
<text text-anchor="start" x="497" y="-277.67" font-family="Helvetica,sans-Serif" font-size="11.00">planting_site_id</text>
<polygon fill="#ffffff" stroke="transparent" points="477,-247.47 477,-269.47 649,-269.47 649,-247.47 477,-247.47"/>
<polygon fill="none" stroke="black" points="477,-247.47 477,-269.47 649,-269.47 649,-247.47 477,-247.47"/>
<text text-anchor="start" x="497" y="-255.67" font-family="Helvetica,sans-Serif" font-size="11.00">stable_id</text>
<polygon fill="none" stroke="black" points="477,-229.47 477,-247.47 649,-247.47 649,-229.47 477,-229.47"/>
<text text-anchor="start" x="480" y="-235.67" font-family="Helvetica,sans-Serif" font-size="11.00">...</text>
<polygon fill="#ffffff" stroke="transparent" points="477,-211.47 477,-229.47 556,-229.47 556,-211.47 477,-211.47"/>
<polygon fill="none" stroke="black" points="477,-211.47 477,-229.47 556,-229.47 556,-211.47 477,-211.47"/>
<text text-anchor="start" x="480" y="-217.67" font-family="Helvetica,sans-Serif" font-size="11.00">&lt; 5</text>
<polygon fill="#ffffff" stroke="transparent" points="556,-211.47 556,-229.47 598,-229.47 598,-211.47 556,-211.47"/>
<polygon fill="none" stroke="black" points="556,-211.47 556,-229.47 598,-229.47 598,-211.47 556,-211.47"/>
<text text-anchor="start" x="588" y="-217.67" font-family="Helvetica,sans-Serif" font-size="11.00"> &#160;</text>
<polygon fill="#ffffff" stroke="transparent" points="598,-211.47 598,-229.47 649,-229.47 649,-211.47 598,-211.47"/>
<polygon fill="none" stroke="black" points="598,-211.47 598,-229.47 649,-229.47 649,-211.47 598,-211.47"/>
<text text-anchor="start" x="630" y="-217.67" font-family="Helvetica,sans-Serif" font-size="11.00">9 &gt;</text>
</a>
</g>
</g>
<!-- monitoring_plot_histories&#45;&gt;substrata -->
<g id="edge5" class="edge">
<title>monitoring_plot_histories:w&#45;&gt;substrata:e</title>
<path fill="none" stroke="black" d="M1002.79,-321.67C993.58,-313.23 992.87,-296.02 976,-289.47 916.75,-266.48 742.57,-253.75 690,-289.47 650.07,-316.61 698.28,-390.47 650,-390.47"/>
<polygon fill="black" stroke="black" points="1008.95,-323.83 1015.31,-329.87 1012.73,-325.15 1016.5,-326.47 1016.5,-326.47 1016.5,-326.47 1012.73,-325.15 1017.69,-323.08 1008.95,-323.83 1008.95,-323.83"/>
<ellipse fill="none" stroke="black" cx="1005.93" cy="-322.77" rx="3.2" ry="3.2"/>
</g>
<!-- monitoring_plots&#45;&gt;public.users -->
<g id="edge6" class="edge">
<title>monitoring_plots:w&#45;&gt;public.users:e</title>
<path fill="none" stroke="black" d="M745.54,-672.4C471.76,-669.7 395.99,-589.08 165,-429.47 143.53,-414.64 151.1,-386.47 125,-386.47"/>
<polygon fill="black" stroke="black" points="752,-672.44 759.98,-676.07 756,-672.45 760,-672.47 760,-672.47 760,-672.47 756,-672.45 760.02,-668.87 752,-672.44 752,-672.44"/>
<ellipse fill="none" stroke="black" cx="748.8" cy="-672.42" rx="3.2" ry="3.2"/>
</g>
<!-- monitoring_plots&#45;&gt;public.users -->
<g id="edge7" class="edge">
<title>monitoring_plots:w&#45;&gt;public.users:e</title>
<path fill="none" stroke="black" d="M745.51,-672.4C471.24,-669.4 399.93,-580.44 165,-425.47 144.27,-411.8 149.83,-386.47 125,-386.47"/>
<polygon fill="black" stroke="black" points="752,-672.43 759.98,-676.07 756,-672.45 760,-672.47 760,-672.47 760,-672.47 756,-672.45 760.02,-668.87 752,-672.43 752,-672.43"/>
<ellipse fill="none" stroke="black" cx="748.8" cy="-672.41" rx="3.2" ry="3.2"/>
</g>
<!-- monitoring_plots&#45;&gt;planting_sites -->
<g id="edge8" class="edge">
<title>monitoring_plots:w&#45;&gt;planting_sites:e</title>
<path fill="none" stroke="black" d="M745.48,-671.68C721.2,-668.71 710.32,-657.31 690,-635.47 665.19,-608.82 680.39,-588.39 657,-560.47 592.4,-483.38 531.88,-512.98 469,-434.47 443.67,-402.84 463.2,-379.52 436,-349.47 413.25,-324.35 333.89,-280.47 300,-280.47"/>
<polygon fill="black" stroke="black" points="752.01,-672.04 759.8,-676.07 756.01,-672.26 760,-672.47 760,-672.47 760,-672.47 756.01,-672.26 760.2,-668.88 752.01,-672.04 752.01,-672.04"/>
<ellipse fill="none" stroke="black" cx="748.82" cy="-671.86" rx="3.2" ry="3.2"/>
</g>
<!-- monitoring_plots&#45;&gt;substrata -->
<g id="edge9" class="edge">
<title>monitoring_plots:w&#45;&gt;substrata:e</title>
<path fill="none" stroke="black" d="M745.28,-671.85C720.32,-669.44 707.41,-659.7 690,-635.47 657.8,-590.68 705.17,-390.47 650,-390.47"/>
<polygon fill="black" stroke="black" points="752.01,-672.13 759.85,-676.07 756,-672.3 760,-672.47 760,-672.47 760,-672.47 756,-672.3 760.15,-668.88 752.01,-672.13 752.01,-672.13"/>
<ellipse fill="none" stroke="black" cx="748.81" cy="-672" rx="3.2" ry="3.2"/>
</g>
<!-- planting_sites&#45;&gt;public.users -->
<g id="edge12" class="edge">
<title>planting_sites:w&#45;&gt;public.users:e</title>
<path fill="none" stroke="black" d="M157.63,-282.85C132.47,-298.68 170.29,-381.2 125,-386.47"/>
<polygon fill="black" stroke="black" points="164.11,-281.78 172.59,-284.03 168.05,-281.13 172,-280.47 172,-280.47 172,-280.47 168.05,-281.13 171.41,-276.92 164.11,-281.78 164.11,-281.78"/>
<ellipse fill="none" stroke="black" cx="160.95" cy="-282.3" rx="3.2" ry="3.2"/>
</g>
<!-- planting_sites&#45;&gt;public.users -->
<g id="edge13" class="edge">
<title>planting_sites:w&#45;&gt;public.users:e</title>
<path fill="none" stroke="black" d="M158.67,-286.05C131.44,-309.31 170.9,-392.71 125,-386.47"/>
<polygon fill="black" stroke="black" points="164.62,-283.56 173.39,-283.8 168.31,-282.02 172,-280.47 172,-280.47 172,-280.47 168.31,-282.02 170.61,-277.15 164.62,-283.56 164.62,-283.56"/>
<ellipse fill="none" stroke="black" cx="161.67" cy="-284.79" rx="3.2" ry="3.2"/>
</g>
<!-- substratum_histories&#45;&gt;substrata -->
<g id="edge28" class="edge">
<title>substratum_histories:w&#45;&gt;substrata:e</title>
<path fill="none" stroke="black" d="M733.25,-330.87C707.15,-345.33 671.69,-390.47 650,-390.47"/>
<polygon fill="black" stroke="black" points="739.38,-328.91 748.1,-329.9 743.19,-327.69 747,-326.47 747,-326.47 747,-326.47 743.19,-327.69 745.9,-323.05 739.38,-328.91 739.38,-328.91"/>
<ellipse fill="none" stroke="black" cx="736.33" cy="-329.89" rx="3.2" ry="3.2"/>
</g>
<!-- substrata&#45;&gt;public.users -->
<g id="edge23" class="edge">
<title>substrata:w&#45;&gt;public.users:e</title>
<path fill="none" stroke="black" d="M461.74,-327.79C437.64,-342.72 471.72,-403.94 436,-428.47 401.17,-452.39 203.86,-420.85 165,-408.47 145.67,-402.32 145.29,-386.47 125,-386.47"/>
<polygon fill="black" stroke="black" points="468.21,-326.29 476.82,-327.98 472.1,-325.38 476,-324.47 476,-324.47 476,-324.47 472.1,-325.38 475.18,-320.97 468.21,-326.29 468.21,-326.29"/>
<ellipse fill="none" stroke="black" cx="465.09" cy="-327.01" rx="3.2" ry="3.2"/>
</g>
<!-- substrata&#45;&gt;public.users -->
<g id="edge24" class="edge">
<title>substrata:w&#45;&gt;public.users:e</title>
<path fill="none" stroke="black" d="M461.62,-303.23C374.92,-311.57 200.74,-386.47 125,-386.47"/>
<polygon fill="black" stroke="black" points="468.01,-302.89 476.19,-306.07 472.01,-302.68 476,-302.47 476,-302.47 476,-302.47 472.01,-302.68 475.81,-298.88 468.01,-302.89 468.01,-302.89"/>
<ellipse fill="none" stroke="black" cx="464.82" cy="-303.06" rx="3.2" ry="3.2"/>
</g>
<!-- substrata&#45;&gt;planting_sites -->
<g id="edge25" class="edge">
<title>substrata:w&#45;&gt;planting_sites:e</title>
<path fill="none" stroke="black" d="M461.57,-280.47C395.01,-280.47 373.18,-280.47 300,-280.47"/>
<polygon fill="black" stroke="black" points="468,-280.47 476,-284.07 472,-280.47 476,-280.47 476,-280.47 476,-280.47 472,-280.47 476,-276.87 468,-280.47 468,-280.47"/>
<ellipse fill="none" stroke="black" cx="464.8" cy="-280.47" rx="3.2" ry="3.2"/>
</g>
<!-- strata -->
<g id="node11" class="node">
<title>strata</title>
<g id="a_node11"><a xlink:href="../../tables/strata.html" xlink:title="strata" target="_top">
<polygon fill="#ffffff" stroke="transparent" points="348,-359.47 348,-417.47 428,-417.47 428,-359.47 348,-359.47"/>
<polygon fill="#f5f5f5" stroke="transparent" points="348,-395.47 348,-417.47 428,-417.47 428,-395.47 348,-395.47"/>
<polygon fill="none" stroke="black" points="348,-395.47 348,-417.47 428,-417.47 428,-395.47 348,-395.47"/>
<text text-anchor="start" x="352" y="-404.67" font-family="Helvetica,sans-Serif" font-weight="bold" font-size="11.00">strata</text>
<text text-anchor="start" x="389" y="-403.67" font-family="Helvetica,sans-Serif" font-size="11.00">[table]</text>
<polygon fill="none" stroke="black" points="348,-377.47 348,-395.47 428,-395.47 428,-377.47 348,-377.47"/>
<text text-anchor="start" x="351" y="-383.67" font-family="Helvetica,sans-Serif" font-size="11.00">...</text>
<polygon fill="#ffffff" stroke="transparent" points="348,-359.47 348,-377.47 381,-377.47 381,-359.47 348,-359.47"/>
<polygon fill="none" stroke="black" points="348,-359.47 348,-377.47 381,-377.47 381,-359.47 348,-359.47"/>
<text text-anchor="start" x="351" y="-365.67" font-family="Helvetica,sans-Serif" font-size="11.00">&lt; 4</text>
<polygon fill="#ffffff" stroke="transparent" points="381,-359.47 381,-377.47 400,-377.47 400,-359.47 381,-359.47"/>
<polygon fill="none" stroke="black" points="381,-359.47 381,-377.47 400,-377.47 400,-359.47 381,-359.47"/>
<text text-anchor="start" x="390" y="-365.67" font-family="Helvetica,sans-Serif" font-size="11.00"> &#160;</text>
<polygon fill="#ffffff" stroke="transparent" points="400,-359.47 400,-377.47 428,-377.47 428,-359.47 400,-359.47"/>
<polygon fill="none" stroke="black" points="400,-359.47 400,-377.47 428,-377.47 428,-359.47 400,-359.47"/>
<text text-anchor="start" x="409" y="-365.67" font-family="Helvetica,sans-Serif" font-size="11.00">7 &gt;</text>
</a>
</g>
</g>
<!-- substrata&#45;&gt;strata -->
<g id="edge26" class="edge">
<title>substrata:w&#45;&gt;strata:e</title>
<path fill="none" stroke="black" d="M461.97,-284.5C436.13,-303.86 474.5,-386.47 429,-386.47"/>
<polygon fill="black" stroke="black" points="468.31,-282.68 476.99,-283.93 472.16,-281.58 476,-280.47 476,-280.47 476,-280.47 472.16,-281.58 475.01,-277.01 468.31,-282.68 468.31,-282.68"/>
<ellipse fill="none" stroke="black" cx="465.23" cy="-283.56" rx="3.2" ry="3.2"/>
</g>
<!-- substrata&#45;&gt;strata -->
<g id="edge27" class="edge">
<title>substrata:w&#45;&gt;strata:e</title>
<path fill="none" stroke="black" d="M461.68,-371.61C451.01,-376.77 445.43,-386.47 429,-386.47"/>
<polygon fill="black" stroke="black" points="468.19,-370.19 476.77,-371.99 472.09,-369.33 476,-368.47 476,-368.47 476,-368.47 472.09,-369.33 475.23,-364.96 468.19,-370.19 468.19,-370.19"/>
<ellipse fill="none" stroke="black" cx="465.06" cy="-370.87" rx="3.2" ry="3.2"/>
</g>
<!-- observation_requested_substrata -->
<g id="node7" class="node">
<title>observation_requested_substrata</title>
<g id="a_node7"><a xlink:href="../../tables/observation_requested_substrata.html" xlink:title="observation_requested_substrata" target="_top">
<polygon fill="#ffffff" stroke="transparent" points="711,-193.47 711,-251.47 955,-251.47 955,-193.47 711,-193.47"/>
<polygon fill="#f5f5f5" stroke="transparent" points="711,-229.47 711,-251.47 955,-251.47 955,-229.47 711,-229.47"/>
<polygon fill="none" stroke="black" points="711,-229.47 711,-251.47 955,-251.47 955,-229.47 711,-229.47"/>
<text text-anchor="start" x="716" y="-238.67" font-family="Helvetica,sans-Serif" font-weight="bold" font-size="11.00">observation_requested_substrata</text>
<text text-anchor="start" x="916" y="-237.67" font-family="Helvetica,sans-Serif" font-size="11.00">[table]</text>
<polygon fill="none" stroke="black" points="711,-211.47 711,-229.47 955,-229.47 955,-211.47 711,-211.47"/>
<text text-anchor="start" x="714" y="-217.67" font-family="Helvetica,sans-Serif" font-size="11.00">...</text>
<polygon fill="#ffffff" stroke="transparent" points="711,-193.47 711,-211.47 831,-211.47 831,-193.47 711,-193.47"/>
<polygon fill="none" stroke="black" points="711,-193.47 711,-211.47 831,-211.47 831,-193.47 711,-193.47"/>
<text text-anchor="start" x="714" y="-199.67" font-family="Helvetica,sans-Serif" font-size="11.00">&lt; 2</text>
<polygon fill="#ffffff" stroke="transparent" points="831,-193.47 831,-211.47 893,-211.47 893,-193.47 831,-193.47"/>
<polygon fill="none" stroke="black" points="831,-193.47 831,-211.47 893,-211.47 893,-193.47 831,-193.47"/>
<text text-anchor="start" x="883" y="-199.67" font-family="Helvetica,sans-Serif" font-size="11.00"> &#160;</text>
<polygon fill="#ffffff" stroke="transparent" points="893,-193.47 893,-211.47 955,-211.47 955,-193.47 893,-193.47"/>
<polygon fill="none" stroke="black" points="893,-193.47 893,-211.47 955,-211.47 955,-193.47 893,-193.47"/>
<text text-anchor="start" x="945" y="-199.67" font-family="Helvetica,sans-Serif" font-size="11.00"> &#160;</text>
</a>
</g>
</g>
<!-- observation_requested_substrata&#45;&gt;substrata -->
<g id="edge10" class="edge">
<title>observation_requested_substrata:w&#45;&gt;substrata:e</title>
<path fill="none" stroke="black" d="M695.65,-222.88C643.08,-243.54 724.49,-390.47 650,-390.47"/>
<polygon fill="black" stroke="black" points="702.11,-221.8 710.59,-224.03 706.05,-221.14 710,-220.47 710,-220.47 710,-220.47 706.05,-221.14 709.41,-216.92 702.11,-221.8 702.11,-221.8"/>
<ellipse fill="none" stroke="black" cx="698.95" cy="-222.32" rx="3.2" ry="3.2"/>
</g>
<!-- observed_substratum_species_totals -->
<g id="node8" class="node">
<title>observed_substratum_species_totals</title>
<g id="a_node8"><a xlink:href="../../tables/observed_substratum_species_totals.html" xlink:title="observed_substratum_species_totals" target="_top">
<polygon fill="#ffffff" stroke="transparent" points="702,-566.47 702,-624.47 964,-624.47 964,-566.47 702,-566.47"/>
<polygon fill="#f5f5f5" stroke="transparent" points="702,-602.47 702,-624.47 964,-624.47 964,-602.47 702,-602.47"/>
<polygon fill="none" stroke="black" points="702,-602.47 702,-624.47 964,-624.47 964,-602.47 702,-602.47"/>
<text text-anchor="start" x="707" y="-611.67" font-family="Helvetica,sans-Serif" font-weight="bold" font-size="11.00">observed_substratum_species_totals</text>
<text text-anchor="start" x="925" y="-610.67" font-family="Helvetica,sans-Serif" font-size="11.00">[table]</text>
<polygon fill="none" stroke="black" points="702,-584.47 702,-602.47 964,-602.47 964,-584.47 702,-584.47"/>
<text text-anchor="start" x="705" y="-590.67" font-family="Helvetica,sans-Serif" font-size="11.00">...</text>
<polygon fill="#ffffff" stroke="transparent" points="702,-566.47 702,-584.47 831,-584.47 831,-566.47 702,-566.47"/>
<polygon fill="none" stroke="black" points="702,-566.47 702,-584.47 831,-584.47 831,-566.47 702,-566.47"/>
<text text-anchor="start" x="705" y="-572.67" font-family="Helvetica,sans-Serif" font-size="11.00">&lt; 4</text>
<polygon fill="#ffffff" stroke="transparent" points="831,-566.47 831,-584.47 897,-584.47 897,-566.47 831,-566.47"/>
<polygon fill="none" stroke="black" points="831,-566.47 831,-584.47 897,-584.47 897,-566.47 831,-566.47"/>
<text text-anchor="start" x="887" y="-572.67" font-family="Helvetica,sans-Serif" font-size="11.00"> &#160;</text>
<polygon fill="#ffffff" stroke="transparent" points="897,-566.47 897,-584.47 964,-584.47 964,-566.47 897,-566.47"/>
<polygon fill="none" stroke="black" points="897,-566.47 897,-584.47 964,-584.47 964,-566.47 897,-566.47"/>
<text text-anchor="start" x="954" y="-572.67" font-family="Helvetica,sans-Serif" font-size="11.00"> &#160;</text>
</a>
</g>
</g>
<!-- observed_substratum_species_totals&#45;&gt;substrata -->
<g id="edge11" class="edge">
<title>observed_substratum_species_totals:w&#45;&gt;substrata:e</title>
<path fill="none" stroke="black" d="M686.51,-591.33C623.49,-569.64 737.39,-390.47 650,-390.47"/>
<polygon fill="black" stroke="black" points="693.09,-592.3 700.47,-597.04 697.04,-592.89 701,-593.47 701,-593.47 701,-593.47 697.04,-592.89 701.53,-589.91 693.09,-592.3 693.09,-592.3"/>
<ellipse fill="none" stroke="black" cx="689.92" cy="-591.84" rx="3.2" ry="3.2"/>
</g>
<!-- plantings -->
<g id="node9" class="node">
<title>plantings</title>
<g id="a_node9"><a xlink:href="../../tables/plantings.html" xlink:title="plantings" target="_top">
<polygon fill="#ffffff" stroke="transparent" points="783.5,-114.47 783.5,-172.47 882.5,-172.47 882.5,-114.47 783.5,-114.47"/>
<polygon fill="#f5f5f5" stroke="transparent" points="784,-150.47 784,-172.47 883,-172.47 883,-150.47 784,-150.47"/>
<polygon fill="none" stroke="black" points="784,-150.47 784,-172.47 883,-172.47 883,-150.47 784,-150.47"/>
<text text-anchor="start" x="789" y="-159.67" font-family="Helvetica,sans-Serif" font-weight="bold" font-size="11.00">plantings</text>
<text text-anchor="start" x="844" y="-158.67" font-family="Helvetica,sans-Serif" font-size="11.00">[table]</text>
<polygon fill="none" stroke="black" points="784,-132.47 784,-150.47 883,-150.47 883,-132.47 784,-132.47"/>
<text text-anchor="start" x="787" y="-138.67" font-family="Helvetica,sans-Serif" font-size="11.00">...</text>
<polygon fill="#ffffff" stroke="transparent" points="784,-114.47 784,-132.47 831,-132.47 831,-114.47 784,-114.47"/>
<polygon fill="none" stroke="black" points="784,-114.47 784,-132.47 831,-132.47 831,-114.47 784,-114.47"/>
<text text-anchor="start" x="787" y="-120.67" font-family="Helvetica,sans-Serif" font-size="11.00">&lt; 8</text>
<polygon fill="#ffffff" stroke="transparent" points="831,-114.47 831,-132.47 857,-132.47 857,-114.47 831,-114.47"/>
<polygon fill="none" stroke="black" points="831,-114.47 831,-132.47 857,-132.47 857,-114.47 831,-114.47"/>
<text text-anchor="start" x="847" y="-120.67" font-family="Helvetica,sans-Serif" font-size="11.00"> &#160;</text>
<polygon fill="#ffffff" stroke="transparent" points="857,-114.47 857,-132.47 883,-132.47 883,-114.47 857,-114.47"/>
<polygon fill="none" stroke="black" points="857,-114.47 857,-132.47 883,-132.47 883,-114.47 857,-114.47"/>
<text text-anchor="start" x="873" y="-120.67" font-family="Helvetica,sans-Serif" font-size="11.00"> &#160;</text>
</a>
</g>
</g>
<!-- plantings&#45;&gt;public.users -->
<g id="edge14" class="edge">
<title>plantings:w&#45;&gt;public.users:e</title>
<path fill="none" stroke="black" d="M768.44,-141.39C499.45,-138.1 354.57,-46.34 165,-243.47 119.26,-291.04 191,-386.47 125,-386.47"/>
<polygon fill="black" stroke="black" points="775,-141.43 782.98,-145.07 779,-141.45 783,-141.47 783,-141.47 783,-141.47 779,-141.45 783.02,-137.87 775,-141.43 775,-141.43"/>
<ellipse fill="none" stroke="black" cx="771.8" cy="-141.41" rx="3.2" ry="3.2"/>
</g>
<!-- plantings&#45;&gt;planting_sites -->
<g id="edge15" class="edge">
<title>plantings:w&#45;&gt;planting_sites:e</title>
<path fill="none" stroke="black" d="M768.4,-141.54C638.21,-142.65 599.42,-159.26 469,-201.47 390.12,-227.01 382.91,-280.47 300,-280.47"/>
<polygon fill="black" stroke="black" points="775,-141.51 783.01,-145.07 779,-141.49 783,-141.47 783,-141.47 783,-141.47 779,-141.49 782.99,-137.87 775,-141.51 775,-141.51"/>
<ellipse fill="none" stroke="black" cx="771.8" cy="-141.52" rx="3.2" ry="3.2"/>
</g>
<!-- plantings&#45;&gt;substrata -->
<g id="edge16" class="edge">
<title>plantings:w&#45;&gt;substrata:e</title>
<path fill="none" stroke="black" d="M768.19,-141.88C733.66,-144 717.84,-154.7 690,-183.47 657.58,-216.99 696.63,-280.47 650,-280.47"/>
<polygon fill="black" stroke="black" points="775,-141.7 783.1,-145.07 779,-141.59 783,-141.47 783,-141.47 783,-141.47 779,-141.59 782.9,-137.88 775,-141.7 775,-141.7"/>
<ellipse fill="none" stroke="black" cx="771.8" cy="-141.78" rx="3.2" ry="3.2"/>
</g>
<!-- plantings&#45;&gt;substrata -->
<g id="edge17" class="edge">
<title>plantings:w&#45;&gt;substrata:e</title>
<path fill="none" stroke="black" d="M768.53,-141.75C733.11,-143.3 714.93,-151.92 690,-183.47 631.9,-256.99 743.7,-390.47 650,-390.47"/>
<polygon fill="black" stroke="black" points="775,-141.63 783.07,-145.07 779,-141.55 783,-141.47 783,-141.47 783,-141.47 779,-141.55 782.93,-137.88 775,-141.63 775,-141.63"/>
<ellipse fill="none" stroke="black" cx="771.8" cy="-141.69" rx="3.2" ry="3.2"/>
</g>
<!-- simplified_substrata -->
<g id="node10" class="node">
<title>simplified_substrata</title>
<g id="a_node10"><a xlink:href="../../tables/simplified_substrata.html" xlink:title="simplified_substrata" target="_top">
<polygon fill="#ffffff" stroke="transparent" points="698,-457.47 698,-545.47 968,-545.47 968,-457.47 698,-457.47"/>
<polygon fill="#f5f5f5" stroke="transparent" points="700,-521.47 700,-543.47 966,-543.47 966,-521.47 700,-521.47"/>
<polygon fill="none" stroke="black" points="700,-521.47 700,-543.47 966,-543.47 966,-521.47 700,-521.47"/>
<text text-anchor="start" x="705" y="-530.67" font-family="Helvetica,sans-Serif" font-weight="bold" font-size="11.00">simplified_substrata</text>
<text text-anchor="start" x="927" y="-529.67" font-family="Helvetica,sans-Serif" font-size="11.00">[table]</text>
<polygon fill="none" stroke="black" points="700,-499.47 700,-521.47 843,-521.47 843,-499.47 700,-499.47"/>
<image xlink:href="../../images/primaryKeys.png" width="11px" height="12px" preserveAspectRatio="xMinYMin meet" x="705" y="-516.475"/>
<text text-anchor="start" x="720" y="-507.67" font-family="Helvetica,sans-Serif" font-size="11.00">substratum_id</text>
<polygon fill="none" stroke="black" points="843,-499.47 843,-521.47 966,-521.47 966,-499.47 843,-499.47"/>
<text text-anchor="start" x="846" y="-507.67" font-family="Helvetica,sans-Serif" font-size="11.00">int8[19]</text>
<polygon fill="none" stroke="black" points="700,-477.47 700,-499.47 843,-499.47 843,-477.47 700,-477.47"/>
<text text-anchor="start" x="720" y="-485.67" font-family="Helvetica,sans-Serif" font-size="11.00">boundary</text>
<polygon fill="none" stroke="black" points="843,-477.47 843,-499.47 966,-499.47 966,-477.47 843,-477.47"/>
<text text-anchor="start" x="846" y="-485.67" font-family="Helvetica,sans-Serif" font-size="11.00">geometry[2147483647]</text>
<polygon fill="#ffffff" stroke="transparent" points="700,-459.47 700,-477.47 776,-477.47 776,-459.47 700,-459.47"/>
<polygon fill="none" stroke="black" points="700,-459.47 700,-477.47 776,-477.47 776,-459.47 700,-459.47"/>
<text text-anchor="start" x="703" y="-465.67" font-family="Helvetica,sans-Serif" font-size="11.00">&lt; 1</text>
<polygon fill="#ffffff" stroke="transparent" points="776,-459.47 776,-477.47 843,-477.47 843,-459.47 776,-459.47"/>
<polygon fill="none" stroke="black" points="776,-459.47 776,-477.47 843,-477.47 843,-459.47 776,-459.47"/>
<text text-anchor="start" x="833" y="-465.67" font-family="Helvetica,sans-Serif" font-size="11.00"> &#160;</text>
<polygon fill="#ffffff" stroke="transparent" points="843,-459.47 843,-477.47 966,-477.47 966,-459.47 843,-459.47"/>
<polygon fill="none" stroke="black" points="843,-459.47 843,-477.47 966,-477.47 966,-459.47 843,-459.47"/>
<text text-anchor="start" x="947" y="-465.67" font-family="Helvetica,sans-Serif" font-size="11.00">0 &gt;</text>
<polygon fill="none" stroke="black" stroke-width="2" points="699,-458.47 699,-544.47 967,-544.47 967,-458.47 699,-458.47"/>
</a>
</g>
</g>
<!-- simplified_substrata&#45;&gt;substrata -->
<g id="edge18" class="edge">
<title>simplified_substrata:w&#45;&gt;substrata:e</title>
<path fill="none" stroke="black" d="M688.6,-508.78C650.09,-494.19 703.56,-390.47 650,-390.47"/>
<polygon fill="black" stroke="black" points="698.85,-506.4 697.57,-514.29 695.99,-514.04 697.28,-506.14 698.85,-506.4"/>
<polyline fill="none" stroke="black" points="699,-510.47 695.05,-509.83 "/>
<ellipse fill="none" stroke="black" cx="691.89" cy="-509.32" rx="3.2" ry="3.2"/>
</g>
<!-- strata&#45;&gt;public.users -->
<g id="edge19" class="edge">
<title>strata:w&#45;&gt;public.users:e</title>
<path fill="none" stroke="black" d="M332.52,-386.47C245.64,-386.47 218.66,-386.47 125,-386.47"/>
<polygon fill="black" stroke="black" points="339,-386.47 347,-390.07 343,-386.47 347,-386.47 347,-386.47 347,-386.47 343,-386.47 347,-382.87 339,-386.47 339,-386.47"/>
<ellipse fill="none" stroke="black" cx="335.8" cy="-386.47" rx="3.2" ry="3.2"/>
</g>
<!-- strata&#45;&gt;public.users -->
<g id="edge20" class="edge">
<title>strata:w&#45;&gt;public.users:e</title>
<path fill="none" stroke="black" d="M332.52,-385.61C245.64,-380.49 218.66,-380.78 125,-386.47"/>
<polygon fill="black" stroke="black" points="339.01,-386 346.78,-390.07 343.01,-386.24 347,-386.47 347,-386.47 347,-386.47 343.01,-386.24 347.22,-382.88 339.01,-386 339.01,-386"/>
<ellipse fill="none" stroke="black" cx="335.82" cy="-385.8" rx="3.2" ry="3.2"/>
</g>
<!-- strata&#45;&gt;public.users -->
<g id="edge21" class="edge">
<title>strata:w&#45;&gt;public.users:e</title>
<path fill="none" stroke="black" d="M332.52,-387.49C245.64,-393.46 218.66,-393.12 125,-386.47"/>
<polygon fill="black" stroke="black" points="339.02,-387.03 347.25,-390.07 343.01,-386.75 347,-386.47 347,-386.47 347,-386.47 343.01,-386.75 346.75,-382.88 339.02,-387.03 339.02,-387.03"/>
<ellipse fill="none" stroke="black" cx="335.83" cy="-387.26" rx="3.2" ry="3.2"/>
</g>
<!-- strata&#45;&gt;planting_sites -->
<g id="edge22" class="edge">
<title>strata:w&#45;&gt;planting_sites:e</title>
<path fill="none" stroke="black" d="M332.97,-382.45C307.13,-363.09 345.5,-280.47 300,-280.47"/>
<polygon fill="black" stroke="black" points="339.31,-384.27 346.01,-389.93 343.16,-385.37 347,-386.47 347,-386.47 347,-386.47 343.16,-385.37 347.99,-383.01 339.31,-384.27 339.31,-384.27"/>
<ellipse fill="none" stroke="black" cx="336.23" cy="-383.39" rx="3.2" ry="3.2"/>
</g>
<!-- substratum_populations -->
<g id="node12" class="node">
<title>substratum_populations</title>
<g id="a_node12"><a xlink:href="../../tables/substratum_populations.html" xlink:title="substratum_populations" target="_top">
<polygon fill="#ffffff" stroke="transparent" points="738,-378.47 738,-436.47 928,-436.47 928,-378.47 738,-378.47"/>
<polygon fill="#f5f5f5" stroke="transparent" points="738,-414.47 738,-436.47 928,-436.47 928,-414.47 738,-414.47"/>
<polygon fill="none" stroke="black" points="738,-414.47 738,-436.47 928,-436.47 928,-414.47 738,-414.47"/>
<text text-anchor="start" x="743" y="-423.67" font-family="Helvetica,sans-Serif" font-weight="bold" font-size="11.00">substratum_populations</text>
<text text-anchor="start" x="889" y="-422.67" font-family="Helvetica,sans-Serif" font-size="11.00">[table]</text>
<polygon fill="none" stroke="black" points="738,-396.47 738,-414.47 928,-414.47 928,-396.47 738,-396.47"/>
<text text-anchor="start" x="741" y="-402.67" font-family="Helvetica,sans-Serif" font-size="11.00">...</text>
<polygon fill="#ffffff" stroke="transparent" points="738,-378.47 738,-396.47 831,-396.47 831,-378.47 738,-378.47"/>
<polygon fill="none" stroke="black" points="738,-378.47 738,-396.47 831,-396.47 831,-378.47 738,-378.47"/>
<text text-anchor="start" x="741" y="-384.67" font-family="Helvetica,sans-Serif" font-size="11.00">&lt; 2</text>
<polygon fill="#ffffff" stroke="transparent" points="831,-378.47 831,-396.47 879,-396.47 879,-378.47 831,-378.47"/>
<polygon fill="none" stroke="black" points="831,-378.47 831,-396.47 879,-396.47 879,-378.47 831,-378.47"/>
<text text-anchor="start" x="869" y="-384.67" font-family="Helvetica,sans-Serif" font-size="11.00"> &#160;</text>
<polygon fill="#ffffff" stroke="transparent" points="879,-378.47 879,-396.47 928,-396.47 928,-378.47 879,-378.47"/>
<polygon fill="none" stroke="black" points="879,-378.47 879,-396.47 928,-396.47 928,-378.47 879,-378.47"/>
<text text-anchor="start" x="918" y="-384.67" font-family="Helvetica,sans-Serif" font-size="11.00"> &#160;</text>
</a>
</g>
</g>
<!-- substratum_populations&#45;&gt;substrata -->
<g id="edge29" class="edge">
<title>substratum_populations:w&#45;&gt;substrata:e</title>
<path fill="none" stroke="black" d="M722.47,-404.71C694.86,-401.65 683.87,-390.47 650,-390.47"/>
<polygon fill="black" stroke="black" points="729.01,-405.05 736.81,-409.07 733.01,-405.26 737,-405.47 737,-405.47 737,-405.47 733.01,-405.26 737.19,-401.88 729.01,-405.05 729.01,-405.05"/>
<ellipse fill="none" stroke="black" cx="725.82" cy="-404.89" rx="3.2" ry="3.2"/>
</g>
</g>
</svg>
