<?xml version="1.0" encoding="UTF-8" standalone="no"?>
<!DOCTYPE svg PUBLIC "-//W3C//DTD SVG 1.1//EN"
 "http://www.w3.org/Graphics/SVG/1.1/DTD/svg11.dtd">
<!-- Generated by graphviz version 2.47.1 (20210515.0534)
 -->
<!-- Title: twoDegreesRelationshipsDiagram Pages: 1 -->
<svg width="1295pt" height="688pt"
 viewBox="0.00 0.00 1295.00 687.51" xmlns="http://www.w3.org/2000/svg" xmlns:xlink="http://www.w3.org/1999/xlink">
<g id="graph0" class="graph" transform="scale(1 1) rotate(0) translate(4 683.51)">
<title>twoDegreesRelationshipsDiagram</title>
<polygon fill="#ffffff" stroke="transparent" points="-4,4 -4,-683.51 1291,-683.51 1291,4 -4,4"/>
<text text-anchor="middle" x="73.5" y="-7.2" font-family="Helvetica,sans-Serif" font-size="11.00">Generated by SchemaSpy</text>
<!-- monitoring_plot_histories -->
<g id="node1" class="node">
<title>monitoring_plot_histories</title>
<g id="a_node1"><a xlink:href="../../tables/monitoring_plot_histories.html" xlink:title="monitoring_plot_histories" target="_top">
<polygon fill="#ffffff" stroke="transparent" points="1049.5,-519 1049.5,-577 1246.5,-577 1246.5,-519 1049.5,-519"/>
<polygon fill="#f5f5f5" stroke="transparent" points="1050,-555 1050,-577 1247,-577 1247,-555 1050,-555"/>
<polygon fill="none" stroke="black" points="1050,-555 1050,-577 1247,-577 1247,-555 1050,-555"/>
<text text-anchor="start" x="1055" y="-564.2" font-family="Helvetica,sans-Serif" font-weight="bold" font-size="11.00">monitoring_plot_histories</text>
<text text-anchor="start" x="1208" y="-563.2" font-family="Helvetica,sans-Serif" font-size="11.00">[table]</text>
<polygon fill="none" stroke="black" points="1050,-537 1050,-555 1247,-555 1247,-537 1050,-537"/>
<text text-anchor="start" x="1053" y="-543.2" font-family="Helvetica,sans-Serif" font-size="11.00">...</text>
<polygon fill="#ffffff" stroke="transparent" points="1050,-519 1050,-537 1142,-537 1142,-519 1050,-519"/>
<polygon fill="none" stroke="black" points="1050,-519 1050,-537 1142,-537 1142,-519 1050,-519"/>
<text text-anchor="start" x="1053" y="-525.2" font-family="Helvetica,sans-Serif" font-size="11.00">&lt; 6</text>
<polygon fill="#ffffff" stroke="transparent" points="1142,-519 1142,-537 1190,-537 1190,-519 1142,-519"/>
<polygon fill="none" stroke="black" points="1142,-519 1142,-537 1190,-537 1190,-519 1142,-519"/>
<text text-anchor="start" x="1180" y="-525.2" font-family="Helvetica,sans-Serif" font-size="11.00"> &#160;</text>
<polygon fill="#ffffff" stroke="transparent" points="1190,-519 1190,-537 1247,-537 1247,-519 1190,-519"/>
<polygon fill="none" stroke="black" points="1190,-519 1190,-537 1247,-537 1247,-519 1190,-519"/>
<text text-anchor="start" x="1228" y="-525.2" font-family="Helvetica,sans-Serif" font-size="11.00">3 &gt;</text>
</a>
</g>
</g>
<!-- public.users -->
<g id="node2" class="node">
<title>public.users</title>
<g id="a_node2"><a xlink:href="../../../public/tables/users.html" xlink:title="public.users" target="_top">
<polygon fill="#ffffff" stroke="transparent" points="8,-281 8,-339 124,-339 124,-281 8,-281"/>
<polygon fill="#f5f5f5" stroke="transparent" points="8,-317 8,-339 124,-339 124,-317 8,-317"/>
<polygon fill="none" stroke="black" points="8,-317 8,-339 124,-339 124,-317 8,-317"/>
<text text-anchor="start" x="13" y="-326.2" font-family="Helvetica,sans-Serif" font-weight="bold" font-size="11.00">public.users</text>
<text text-anchor="start" x="85" y="-325.2" font-family="Helvetica,sans-Serif" font-size="11.00">[table]</text>
<polygon fill="none" stroke="black" points="8,-299 8,-317 124,-317 124,-299 8,-299"/>
<text text-anchor="start" x="11" y="-305.2" font-family="Helvetica,sans-Serif" font-size="11.00">...</text>
<polygon fill="#ffffff" stroke="transparent" points="8,-281 8,-299 38,-299 38,-281 8,-281"/>
<polygon fill="none" stroke="black" points="8,-281 8,-299 38,-299 38,-281 8,-281"/>
<text text-anchor="start" x="11" y="-287.2" font-family="Helvetica,sans-Serif" font-size="11.00"> &#160;</text>
<polygon fill="#ffffff" stroke="transparent" points="38,-281 38,-299 87,-299 87,-281 38,-281"/>
<polygon fill="none" stroke="black" points="38,-281 38,-299 87,-299 87,-281 38,-281"/>
<text text-anchor="start" x="50" y="-287.2" font-family="Helvetica,sans-Serif" font-size="11.00">0 rows</text>
<polygon fill="#ffffff" stroke="transparent" points="87,-281 87,-299 124,-299 124,-281 87,-281"/>
<polygon fill="none" stroke="black" points="87,-281 87,-299 124,-299 124,-281 87,-281"/>
<text text-anchor="start" x="99" y="-287.2" font-family="Helvetica,sans-Serif" font-size="11.00">27 &gt;</text>
</a>
</g>
</g>
<!-- monitoring_plot_histories&#45;&gt;public.users -->
<g id="edge1" class="edge">
<title>monitoring_plot_histories:w&#45;&gt;public.users:e</title>
<path fill="none" stroke="black" d="M1034.39,-548.34C1001.36,-560.61 1017.76,-617.87 976,-639 812.53,-721.71 747.2,-652 564,-652 564,-652 564,-652 387,-652 259.13,-652 233.19,-577.17 165,-469 125.68,-406.63 198.73,-308 125,-308"/>
<polygon fill="black" stroke="black" points="1041.1,-547.26 1049.57,-549.55 1045.05,-546.63 1049,-546 1049,-546 1049,-546 1045.05,-546.63 1048.43,-542.45 1041.1,-547.26 1041.1,-547.26"/>
<ellipse fill="none" stroke="black" cx="1037.94" cy="-547.77" rx="3.2" ry="3.2"/>
</g>
<!-- monitoring_plots -->
<g id="node3" class="node">
<title>monitoring_plots</title>
<g id="a_node3"><a xlink:href="../../tables/monitoring_plots.html" xlink:title="monitoring_plots" target="_top">
<polygon fill="#ffffff" stroke="transparent" points="760.5,-570 760.5,-628 905.5,-628 905.5,-570 760.5,-570"/>
<polygon fill="#f5f5f5" stroke="transparent" points="761,-606 761,-628 906,-628 906,-606 761,-606"/>
<polygon fill="none" stroke="black" points="761,-606 761,-628 906,-628 906,-606 761,-606"/>
<text text-anchor="start" x="766" y="-615.2" font-family="Helvetica,sans-Serif" font-weight="bold" font-size="11.00">monitoring_plots</text>
<text text-anchor="start" x="867" y="-614.2" font-family="Helvetica,sans-Serif" font-size="11.00">[table]</text>
<polygon fill="none" stroke="black" points="761,-588 761,-606 906,-606 906,-588 761,-588"/>
<text text-anchor="start" x="764" y="-594.2" font-family="Helvetica,sans-Serif" font-size="11.00">...</text>
<polygon fill="#ffffff" stroke="transparent" points="761,-570 761,-588 824,-588 824,-570 761,-570"/>
<polygon fill="none" stroke="black" points="761,-570 761,-588 824,-588 824,-570 761,-570"/>
<text text-anchor="start" x="764" y="-576.2" font-family="Helvetica,sans-Serif" font-size="11.00">&lt; 5</text>
<polygon fill="#ffffff" stroke="transparent" points="824,-570 824,-588 857,-588 857,-570 824,-570"/>
<polygon fill="none" stroke="black" points="824,-570 824,-588 857,-588 857,-570 824,-570"/>
<text text-anchor="start" x="847" y="-576.2" font-family="Helvetica,sans-Serif" font-size="11.00"> &#160;</text>
<polygon fill="#ffffff" stroke="transparent" points="857,-570 857,-588 906,-588 906,-570 857,-570"/>
<polygon fill="none" stroke="black" points="857,-570 857,-588 906,-588 906,-570 857,-570"/>
<text text-anchor="start" x="881" y="-576.2" font-family="Helvetica,sans-Serif" font-size="11.00">17 &gt;</text>
</a>
</g>
</g>
<!-- monitoring_plot_histories&#45;&gt;monitoring_plots -->
<g id="edge2" class="edge">
<title>monitoring_plot_histories:w&#45;&gt;monitoring_plots:e</title>
<path fill="none" stroke="black" d="M1034.31,-546.89C980.35,-553.66 968.82,-597 907,-597"/>
<polygon fill="black" stroke="black" points="1041.01,-546.48 1049.22,-549.59 1045.01,-546.24 1049,-546 1049,-546 1049,-546 1045.01,-546.24 1048.78,-542.41 1041.01,-546.48 1041.01,-546.48"/>
<ellipse fill="none" stroke="black" cx="1037.82" cy="-546.67" rx="3.2" ry="3.2"/>
</g>
<!-- planting_sites -->
<g id="node4" class="node">
<title>planting_sites</title>
<g id="a_node4"><a xlink:href="../../tables/planting_sites.html" xlink:title="planting_sites" target="_top">
<polygon fill="#ffffff" stroke="transparent" points="173,-281 173,-339 299,-339 299,-281 173,-281"/>
<polygon fill="#f5f5f5" stroke="transparent" points="173,-317 173,-339 299,-339 299,-317 173,-317"/>
<polygon fill="none" stroke="black" points="173,-317 173,-339 299,-339 299,-317 173,-317"/>
<text text-anchor="start" x="178" y="-326.2" font-family="Helvetica,sans-Serif" font-weight="bold" font-size="11.00">planting_sites</text>
<text text-anchor="start" x="260" y="-325.2" font-family="Helvetica,sans-Serif" font-size="11.00">[table]</text>
<polygon fill="none" stroke="black" points="173,-299 173,-317 299,-317 299,-299 173,-299"/>
<text text-anchor="start" x="176" y="-305.2" font-family="Helvetica,sans-Serif" font-size="11.00">...</text>
<polygon fill="#ffffff" stroke="transparent" points="173,-281 173,-299 226,-299 226,-281 173,-281"/>
<polygon fill="none" stroke="black" points="173,-281 173,-299 226,-299 226,-281 173,-281"/>
<text text-anchor="start" x="176" y="-287.2" font-family="Helvetica,sans-Serif" font-size="11.00">&lt; 6</text>
<polygon fill="#ffffff" stroke="transparent" points="226,-281 226,-299 255,-299 255,-281 226,-281"/>
<polygon fill="none" stroke="black" points="226,-281 226,-299 255,-299 255,-281 226,-281"/>
<text text-anchor="start" x="245" y="-287.2" font-family="Helvetica,sans-Serif" font-size="11.00"> &#160;</text>
<polygon fill="#ffffff" stroke="transparent" points="255,-281 255,-299 299,-299 299,-281 255,-281"/>
<polygon fill="none" stroke="black" points="255,-281 255,-299 299,-299 299,-281 255,-281"/>
<text text-anchor="start" x="274" y="-287.2" font-family="Helvetica,sans-Serif" font-size="11.00">14 &gt;</text>
</a>
</g>
</g>
<!-- monitoring_plot_histories&#45;&gt;planting_sites -->
<g id="edge3" class="edge">
<title>monitoring_plot_histories:w&#45;&gt;planting_sites:e</title>
<path fill="none" stroke="black" d="M1034.36,-546.09C886.37,-547.87 838.66,-575.71 690,-533 665.96,-526.09 325.01,-308 300,-308"/>
<polygon fill="black" stroke="black" points="1041,-546.05 1049.02,-549.6 1045,-546.02 1049,-546 1049,-546 1049,-546 1045,-546.02 1048.98,-542.4 1041,-546.05 1041,-546.05"/>
<ellipse fill="none" stroke="black" cx="1037.8" cy="-546.07" rx="3.2" ry="3.2"/>
</g>
<!-- substratum_histories -->
<g id="node5" class="node">
<title>substratum_histories</title>
<g id="a_node5"><a xlink:href="../../tables/substratum_histories.html" xlink:title="substratum_histories" target="_top">
<polygon fill="#ffffff" stroke="transparent" points="747.5,-249 747.5,-307 918.5,-307 918.5,-249 747.5,-249"/>
<polygon fill="#f5f5f5" stroke="transparent" points="748,-285 748,-307 919,-307 919,-285 748,-285"/>
<polygon fill="none" stroke="black" points="748,-285 748,-307 919,-307 919,-285 748,-285"/>
<text text-anchor="start" x="753" y="-294.2" font-family="Helvetica,sans-Serif" font-weight="bold" font-size="11.00">substratum_histories</text>
<text text-anchor="start" x="880" y="-293.2" font-family="Helvetica,sans-Serif" font-size="11.00">[table]</text>
<polygon fill="none" stroke="black" points="748,-267 748,-285 919,-285 919,-267 748,-267"/>
<text text-anchor="start" x="751" y="-273.2" font-family="Helvetica,sans-Serif" font-size="11.00">...</text>
<polygon fill="#ffffff" stroke="transparent" points="748,-249 748,-267 827,-267 827,-249 748,-249"/>
<polygon fill="none" stroke="black" points="748,-249 748,-267 827,-267 827,-249 748,-249"/>
<text text-anchor="start" x="751" y="-255.2" font-family="Helvetica,sans-Serif" font-size="11.00">&lt; 2</text>
<polygon fill="#ffffff" stroke="transparent" points="827,-249 827,-267 868,-267 868,-249 827,-249"/>
<polygon fill="none" stroke="black" points="827,-249 827,-267 868,-267 868,-249 827,-249"/>
<text text-anchor="start" x="858" y="-255.2" font-family="Helvetica,sans-Serif" font-size="11.00"> &#160;</text>
<polygon fill="#ffffff" stroke="transparent" points="868,-249 868,-267 919,-267 919,-249 868,-249"/>
<polygon fill="none" stroke="black" points="868,-249 868,-267 919,-267 919,-249 868,-249"/>
<text text-anchor="start" x="900" y="-255.2" font-family="Helvetica,sans-Serif" font-size="11.00">4 &gt;</text>
</a>
</g>
</g>
<!-- monitoring_plot_histories&#45;&gt;substratum_histories -->
<g id="edge4" class="edge">
<title>monitoring_plot_histories:w&#45;&gt;substratum_histories:e</title>
<path fill="none" stroke="black" d="M1034.62,-544.8C926.3,-525.32 1047.8,-276 920,-276"/>
<polygon fill="black" stroke="black" points="1041.03,-545.33 1048.7,-549.59 1045.01,-545.67 1049,-546 1049,-546 1049,-546 1045.01,-545.67 1049.3,-542.41 1041.03,-545.33 1041.03,-545.33"/>
<ellipse fill="none" stroke="black" cx="1037.84" cy="-545.07" rx="3.2" ry="3.2"/>
</g>
<!-- substrata -->
<g id="node6" class="node">
<title>substrata</title>
<g id="a_node6"><a xlink:href="../../tables/substrata.html" xlink:title="substrata" target="_top">
<polygon fill="#ffffff" stroke="transparent" points="477,-176 477,-388 649,-388 649,-176 477,-176"/>
<polygon fill="#f5f5f5" stroke="transparent" points="477,-366 477,-388 649,-388 649,-366 477,-366"/>
<polygon fill="none" stroke="black" points="477,-366 477,-388 649,-388 649,-366 477,-366"/>
<text text-anchor="start" x="482" y="-375.2" font-family="Helvetica,sans-Serif" font-weight="bold" font-size="11.00">substrata</text>
<text text-anchor="start" x="610" y="-374.2" font-family="Helvetica,sans-Serif" font-size="11.00">[table]</text>
<polygon fill="none" stroke="black" points="477,-344 477,-366 649,-366 649,-344 477,-344"/>
<image xlink:href="../../images/primaryKeys.png" width="11px" height="12px" preserveAspectRatio="xMinYMin meet" x="482" y="-361"/>
<text text-anchor="start" x="497" y="-352.2" font-family="Helvetica,sans-Serif" font-size="11.00">id</text>
<polygon fill="#ffffff" stroke="transparent" points="477,-322 477,-344 649,-344 649,-322 477,-322"/>
<polygon fill="none" stroke="black" points="477,-322 477,-344 649,-344 649,-322 477,-322"/>
<image xlink:href="../../images/foreignKeys.png" width="11px" height="12px" preserveAspectRatio="xMinYMin meet" x="482" y="-339"/>
<text text-anchor="start" x="497" y="-330.2" font-family="Helvetica,sans-Serif" font-size="11.00">stratum_id</text>
<polygon fill="#ffffff" stroke="transparent" points="477,-300 477,-322 649,-322 649,-300 477,-300"/>
<polygon fill="none" stroke="black" points="477,-300 477,-322 649,-322 649,-300 477,-300"/>
<text text-anchor="start" x="497" y="-308.2" font-family="Helvetica,sans-Serif" font-size="11.00">name</text>
<polygon fill="none" stroke="black" points="477,-278 477,-300 649,-300 649,-278 477,-278"/>
<image xlink:href="../../images/foreignKeys.png" width="11px" height="12px" preserveAspectRatio="xMinYMin meet" x="482" y="-295"/>
<text text-anchor="start" x="497" y="-286.2" font-family="Helvetica,sans-Serif" font-size="11.00">created_by</text>
<polygon fill="none" stroke="black" points="477,-256 477,-278 649,-278 649,-256 477,-256"/>
<image xlink:href="../../images/foreignKeys.png" width="11px" height="12px" preserveAspectRatio="xMinYMin meet" x="482" y="-273"/>
<text text-anchor="start" x="497" y="-264.2" font-family="Helvetica,sans-Serif" font-size="11.00">modified_by</text>
<polygon fill="#ffffff" stroke="transparent" points="477,-234 477,-256 649,-256 649,-234 477,-234"/>
<polygon fill="none" stroke="black" points="477,-234 477,-256 649,-256 649,-234 477,-234"/>
<image xlink:href="../../images/foreignKeys.png" width="11px" height="12px" preserveAspectRatio="xMinYMin meet" x="482" y="-251"/>
<text text-anchor="start" x="497" y="-242.2" font-family="Helvetica,sans-Serif" font-size="11.00">planting_site_id</text>
<polygon fill="#ffffff" stroke="transparent" points="477,-212 477,-234 649,-234 649,-212 477,-212"/>
<polygon fill="none" stroke="black" points="477,-212 477,-234 649,-234 649,-212 477,-212"/>
<text text-anchor="start" x="497" y="-220.2" font-family="Helvetica,sans-Serif" font-size="11.00">stable_id</text>
<polygon fill="none" stroke="black" points="477,-194 477,-212 649,-212 649,-194 477,-194"/>
<text text-anchor="start" x="480" y="-200.2" font-family="Helvetica,sans-Serif" font-size="11.00">...</text>
<polygon fill="#ffffff" stroke="transparent" points="477,-176 477,-194 553,-194 553,-176 477,-176"/>
<polygon fill="none" stroke="black" points="477,-176 477,-194 553,-194 553,-176 477,-176"/>
<text text-anchor="start" x="480" y="-182.2" font-family="Helvetica,sans-Serif" font-size="11.00">&lt; 5</text>
<polygon fill="#ffffff" stroke="transparent" points="553,-176 553,-194 593,-194 593,-176 553,-176"/>
<polygon fill="none" stroke="black" points="553,-176 553,-194 593,-194 593,-176 553,-176"/>
<text text-anchor="start" x="583" y="-182.2" font-family="Helvetica,sans-Serif" font-size="11.00"> &#160;</text>
<polygon fill="#ffffff" stroke="transparent" points="593,-176 593,-194 649,-194 649,-176 593,-176"/>
<polygon fill="none" stroke="black" points="593,-176 593,-194 649,-194 649,-176 593,-176"/>
<text text-anchor="start" x="624" y="-182.2" font-family="Helvetica,sans-Serif" font-size="11.00">10 &gt;</text>
</a>
</g>
</g>
<!-- monitoring_plot_histories&#45;&gt;substrata -->
<g id="edge5" class="edge">
<title>monitoring_plot_histories:w&#45;&gt;substrata:e</title>
<path fill="none" stroke="black" d="M1034.68,-544.05C992.73,-530.9 1024.74,-454.75 976,-424 868.02,-355.87 804.86,-452.76 690,-397 666.81,-385.74 675.78,-355 650,-355"/>
<polygon fill="black" stroke="black" points="1041.07,-544.92 1048.51,-549.57 1045.04,-545.46 1049,-546 1049,-546 1049,-546 1045.04,-545.46 1049.49,-542.43 1041.07,-544.92 1041.07,-544.92"/>
<ellipse fill="none" stroke="black" cx="1037.9" cy="-544.49" rx="3.2" ry="3.2"/>
</g>
<!-- monitoring_plots&#45;&gt;public.users -->
<g id="edge6" class="edge">
<title>monitoring_plots:w&#45;&gt;public.users:e</title>
<path fill="none" stroke="black" d="M745.45,-597.12C569.43,-599.97 502.6,-652.97 340,-571 233.03,-517.08 237.99,-460.99 165,-366 145.92,-341.17 156.31,-308 125,-308"/>
<polygon fill="black" stroke="black" points="752,-597.06 760.03,-600.6 756,-597.03 760,-597 760,-597 760,-597 756,-597.03 759.97,-593.4 752,-597.06 752,-597.06"/>
<ellipse fill="none" stroke="black" cx="748.8" cy="-597.09" rx="3.2" ry="3.2"/>
</g>
<!-- monitoring_plots&#45;&gt;public.users -->
<g id="edge7" class="edge">
<title>monitoring_plots:w&#45;&gt;public.users:e</title>
<path fill="none" stroke="black" d="M745.44,-597.13C569.09,-600.18 498.43,-656.99 340,-567 235.84,-507.84 239.59,-455.74 165,-362 146.4,-338.63 154.87,-308 125,-308"/>
<polygon fill="black" stroke="black" points="752,-597.07 760.03,-600.6 756,-597.03 760,-597 760,-597 760,-597 756,-597.03 759.97,-593.4 752,-597.07 752,-597.07"/>
<ellipse fill="none" stroke="black" cx="748.8" cy="-597.1" rx="3.2" ry="3.2"/>
</g>
<!-- monitoring_plots&#45;&gt;planting_sites -->
<g id="edge8" class="edge">
<title>monitoring_plots:w&#45;&gt;planting_sites:e</title>
<path fill="none" stroke="black" d="M745.52,-596.64C710.79,-594.79 697.73,-586.34 657,-581 586.75,-571.78 391.55,-595.6 340,-547 300.82,-510.06 353.85,-308 300,-308"/>
<polygon fill="black" stroke="black" points="752,-596.8 759.91,-600.6 756,-596.9 760,-597 760,-597 760,-597 756,-596.9 760.09,-593.4 752,-596.8 752,-596.8"/>
<ellipse fill="none" stroke="black" cx="748.8" cy="-596.72" rx="3.2" ry="3.2"/>
</g>
<!-- monitoring_plots&#45;&gt;substrata -->
<g id="edge9" class="edge">
<title>monitoring_plots:w&#45;&gt;substrata:e</title>
<path fill="none" stroke="black" d="M745.36,-595.67C715.88,-589.75 708.42,-564.76 690,-533 649.32,-462.86 731.08,-355 650,-355"/>
<polygon fill="black" stroke="black" points="752.03,-596.27 759.67,-600.59 756.02,-596.64 760,-597 760,-597 760,-597 756.02,-596.64 760.33,-593.41 752.03,-596.27 752.03,-596.27"/>
<ellipse fill="none" stroke="black" cx="748.85" cy="-595.98" rx="3.2" ry="3.2"/>
</g>
<!-- planting_sites&#45;&gt;public.users -->
<g id="edge15" class="edge">
<title>planting_sites:w&#45;&gt;public.users:e</title>
<path fill="none" stroke="black" d="M157.74,-304.42C147.08,-302.45 140.18,-303.64 125,-308"/>
<polygon fill="black" stroke="black" points="164.24,-306.05 171.12,-311.49 168.12,-307.03 172,-308 172,-308 172,-308 168.12,-307.03 172.88,-304.51 164.24,-306.05 164.24,-306.05"/>
<ellipse fill="none" stroke="black" cx="161.14" cy="-305.28" rx="3.2" ry="3.2"/>
</g>
<!-- planting_sites&#45;&gt;public.users -->
<g id="edge16" class="edge">
<title>planting_sites:w&#45;&gt;public.users:e</title>
<path fill="none" stroke="black" d="M158.08,-312.1C147.23,-314.51 140.34,-313.14 125,-308"/>
<polygon fill="black" stroke="black" points="164.33,-310.26 173.02,-311.45 168.16,-309.13 172,-308 172,-308 172,-308 168.16,-309.13 170.98,-304.55 164.33,-310.26 164.33,-310.26"/>
<ellipse fill="none" stroke="black" cx="161.26" cy="-311.16" rx="3.2" ry="3.2"/>
</g>
<!-- substratum_histories&#45;&gt;substrata -->
<g id="edge31" class="edge">
<title>substratum_histories:w&#45;&gt;substrata:e</title>
<path fill="none" stroke="black" d="M732.65,-277.99C714.33,-283.83 709.9,-301.55 690,-318 671.33,-333.43 674.22,-355 650,-355"/>
<polygon fill="black" stroke="black" points="739.08,-277.1 747.49,-279.57 743.04,-276.55 747,-276 747,-276 747,-276 743.04,-276.55 746.51,-272.43 739.08,-277.1 739.08,-277.1"/>
<ellipse fill="none" stroke="black" cx="735.91" cy="-277.54" rx="3.2" ry="3.2"/>
</g>
<!-- substrata&#45;&gt;public.users -->
<g id="edge26" class="edge">
<title>substrata:w&#45;&gt;public.users:e</title>
<path fill="none" stroke="black" d="M462.28,-293.5C452.98,-301.46 452.06,-317.94 436,-326 383.88,-352.16 365.07,-344.64 307,-350 244.16,-355.8 223.01,-374.86 165,-350 141.31,-339.85 150.78,-308 125,-308"/>
<polygon fill="black" stroke="black" points="468.4,-291.49 477.12,-292.42 472.2,-290.25 476,-289 476,-289 476,-289 472.2,-290.25 474.88,-285.58 468.4,-291.49 468.4,-291.49"/>
<ellipse fill="none" stroke="black" cx="465.36" cy="-292.49" rx="3.2" ry="3.2"/>
</g>
<!-- substrata&#45;&gt;public.users -->
<g id="edge27" class="edge">
<title>substrata:w&#45;&gt;public.users:e</title>
<path fill="none" stroke="black" d="M462.22,-262.15C450.34,-250.27 458.3,-219.83 436,-208 398.3,-188.01 382.48,-204.03 340,-208 261.19,-215.37 229.9,-195.69 165,-241 136.56,-260.85 159.68,-308 125,-308"/>
<polygon fill="black" stroke="black" points="468.45,-264.34 474.8,-270.4 472.23,-265.67 476,-267 476,-267 476,-267 472.23,-265.67 477.2,-263.6 468.45,-264.34 468.45,-264.34"/>
<ellipse fill="none" stroke="black" cx="465.44" cy="-263.28" rx="3.2" ry="3.2"/>
</g>
<!-- substrata&#45;&gt;planting_sites -->
<g id="edge28" class="edge">
<title>substrata:w&#45;&gt;planting_sites:e</title>
<path fill="none" stroke="black" d="M462.25,-249.58C449.04,-262.05 460.06,-296.56 436,-310 383.23,-339.49 360.45,-308 300,-308"/>
<polygon fill="black" stroke="black" points="468.41,-247.53 477.14,-248.42 472.21,-246.26 476,-245 476,-245 476,-245 472.21,-246.26 474.86,-241.58 468.41,-247.53 468.41,-247.53"/>
<ellipse fill="none" stroke="black" cx="465.37" cy="-248.54" rx="3.2" ry="3.2"/>
</g>
<!-- strata -->
<g id="node12" class="node">
<title>strata</title>
<g id="a_node12"><a xlink:href="../../tables/strata.html" xlink:title="strata" target="_top">
<polygon fill="#ffffff" stroke="transparent" points="348,-218 348,-276 428,-276 428,-218 348,-218"/>
<polygon fill="#f5f5f5" stroke="transparent" points="348,-254 348,-276 428,-276 428,-254 348,-254"/>
<polygon fill="none" stroke="black" points="348,-254 348,-276 428,-276 428,-254 348,-254"/>
<text text-anchor="start" x="352" y="-263.2" font-family="Helvetica,sans-Serif" font-weight="bold" font-size="11.00">strata</text>
<text text-anchor="start" x="389" y="-262.2" font-family="Helvetica,sans-Serif" font-size="11.00">[table]</text>
<polygon fill="none" stroke="black" points="348,-236 348,-254 428,-254 428,-236 348,-236"/>
<text text-anchor="start" x="351" y="-242.2" font-family="Helvetica,sans-Serif" font-size="11.00">...</text>
<polygon fill="#ffffff" stroke="transparent" points="348,-218 348,-236 381,-236 381,-218 348,-218"/>
<polygon fill="none" stroke="black" points="348,-218 348,-236 381,-236 381,-218 348,-218"/>
<text text-anchor="start" x="351" y="-224.2" font-family="Helvetica,sans-Serif" font-size="11.00">&lt; 4</text>
<polygon fill="#ffffff" stroke="transparent" points="381,-218 381,-236 400,-236 400,-218 381,-218"/>
<polygon fill="none" stroke="black" points="381,-218 381,-236 400,-236 400,-218 381,-218"/>
<text text-anchor="start" x="390" y="-224.2" font-family="Helvetica,sans-Serif" font-size="11.00"> &#160;</text>
<polygon fill="#ffffff" stroke="transparent" points="400,-218 400,-236 428,-236 428,-218 400,-218"/>
<polygon fill="none" stroke="black" points="400,-218 400,-236 428,-236 428,-218 400,-218"/>
<text text-anchor="start" x="409" y="-224.2" font-family="Helvetica,sans-Serif" font-size="11.00">8 &gt;</text>
</a>
</g>
</g>
<!-- substrata&#45;&gt;strata -->
<g id="edge29" class="edge">
<title>substrata:w&#45;&gt;strata:e</title>
<path fill="none" stroke="black" d="M461.4,-245C450.93,-245 444.01,-245 429,-245"/>
<polygon fill="black" stroke="black" points="468,-245 476,-248.6 472,-245 476,-245 476,-245 476,-245 472,-245 476,-241.4 468,-245 468,-245"/>
<ellipse fill="none" stroke="black" cx="464.8" cy="-245" rx="3.2" ry="3.2"/>
</g>
<!-- substrata&#45;&gt;strata -->
<g id="edge30" class="edge">
<title>substrata:w&#45;&gt;strata:e</title>
<path fill="none" stroke="black" d="M462.2,-328.52C441.45,-310.58 467.28,-245 429,-245"/>
<polygon fill="black" stroke="black" points="468.39,-330.53 474.89,-336.42 472.2,-331.76 476,-333 476,-333 476,-333 472.2,-331.76 477.11,-329.58 468.39,-330.53 468.39,-330.53"/>
<ellipse fill="none" stroke="black" cx="465.35" cy="-329.54" rx="3.2" ry="3.2"/>
</g>
<!-- observation_requested_substrata -->
<g id="node7" class="node">
<title>observation_requested_substrata</title>
<g id="a_node7"><a xlink:href="../../tables/observation_requested_substrata.html" xlink:title="observation_requested_substrata" target="_top">
<polygon fill="#ffffff" stroke="transparent" points="711,-143 711,-201 955,-201 955,-143 711,-143"/>
<polygon fill="#f5f5f5" stroke="transparent" points="711,-179 711,-201 955,-201 955,-179 711,-179"/>
<polygon fill="none" stroke="black" points="711,-179 711,-201 955,-201 955,-179 711,-179"/>
<text text-anchor="start" x="716" y="-188.2" font-family="Helvetica,sans-Serif" font-weight="bold" font-size="11.00">observation_requested_substrata</text>
<text text-anchor="start" x="916" y="-187.2" font-family="Helvetica,sans-Serif" font-size="11.00">[table]</text>
<polygon fill="none" stroke="black" points="711,-161 711,-179 955,-179 955,-161 711,-161"/>
<text text-anchor="start" x="714" y="-167.2" font-family="Helvetica,sans-Serif" font-size="11.00">...</text>
<polygon fill="#ffffff" stroke="transparent" points="711,-143 711,-161 831,-161 831,-143 711,-143"/>
<polygon fill="none" stroke="black" points="711,-143 711,-161 831,-161 831,-143 711,-143"/>
<text text-anchor="start" x="714" y="-149.2" font-family="Helvetica,sans-Serif" font-size="11.00">&lt; 2</text>
<polygon fill="#ffffff" stroke="transparent" points="831,-143 831,-161 893,-161 893,-143 831,-143"/>
<polygon fill="none" stroke="black" points="831,-143 831,-161 893,-161 893,-143 831,-143"/>
<text text-anchor="start" x="883" y="-149.2" font-family="Helvetica,sans-Serif" font-size="11.00"> &#160;</text>
<polygon fill="#ffffff" stroke="transparent" points="893,-143 893,-161 955,-161 955,-143 893,-143"/>
<polygon fill="none" stroke="black" points="893,-143 893,-161 955,-161 955,-143 893,-143"/>
<text text-anchor="start" x="945" y="-149.2" font-family="Helvetica,sans-Serif" font-size="11.00"> &#160;</text>
</a>
</g>
</g>
<!-- observation_requested_substrata&#45;&gt;substrata -->
<g id="edge10" class="edge">
<title>observation_requested_substrata:w&#45;&gt;substrata:e</title>
<path fill="none" stroke="black" d="M695.66,-172.21C637.28,-193.08 730.87,-355 650,-355"/>
<polygon fill="black" stroke="black" points="702.09,-171.22 710.55,-173.56 706.05,-170.61 710,-170 710,-170 710,-170 706.05,-170.61 709.45,-166.44 702.09,-171.22 702.09,-171.22"/>
<ellipse fill="none" stroke="black" cx="698.93" cy="-171.7" rx="3.2" ry="3.2"/>
</g>
<!-- observation_substratum_results -->
<g id="node8" class="node">
<title>observation_substratum_results</title>
<g id="a_node8"><a xlink:href="../../tables/observation_substratum_results.html" xlink:title="observation_substratum_results" target="_top">
<polygon fill="#ffffff" stroke="transparent" points="1029.5,-230 1029.5,-288 1266.5,-288 1266.5,-230 1029.5,-230"/>
<polygon fill="#f5f5f5" stroke="transparent" points="1030,-266 1030,-288 1267,-288 1267,-266 1030,-266"/>
<polygon fill="none" stroke="black" points="1030,-266 1030,-288 1267,-288 1267,-266 1030,-266"/>
<text text-anchor="start" x="1035" y="-275.2" font-family="Helvetica,sans-Serif" font-weight="bold" font-size="11.00">observation_substratum_results</text>
<text text-anchor="start" x="1228" y="-274.2" font-family="Helvetica,sans-Serif" font-size="11.00">[table]</text>
<polygon fill="none" stroke="black" points="1030,-248 1030,-266 1267,-266 1267,-248 1030,-248"/>
<text text-anchor="start" x="1033" y="-254.2" font-family="Helvetica,sans-Serif" font-size="11.00">...</text>
<polygon fill="#ffffff" stroke="transparent" points="1030,-230 1030,-248 1146,-248 1146,-230 1030,-230"/>
<polygon fill="none" stroke="black" points="1030,-230 1030,-248 1146,-248 1146,-230 1030,-230"/>
<text text-anchor="start" x="1033" y="-236.2" font-family="Helvetica,sans-Serif" font-size="11.00">&lt; 3</text>
<polygon fill="#ffffff" stroke="transparent" points="1146,-230 1146,-248 1206,-248 1206,-230 1146,-230"/>
<polygon fill="none" stroke="black" points="1146,-230 1146,-248 1206,-248 1206,-230 1146,-230"/>
<text text-anchor="start" x="1196" y="-236.2" font-family="Helvetica,sans-Serif" font-size="11.00"> &#160;</text>
<polygon fill="#ffffff" stroke="transparent" points="1206,-230 1206,-248 1267,-248 1267,-230 1206,-230"/>
<polygon fill="none" stroke="black" points="1206,-230 1206,-248 1267,-248 1267,-230 1206,-230"/>
<text text-anchor="start" x="1257" y="-236.2" font-family="Helvetica,sans-Serif" font-size="11.00"> &#160;</text>
</a>
</g>
</g>
<!-- observation_substratum_results&#45;&gt;substratum_histories -->
<g id="edge11" class="edge">
<title>observation_substratum_results:w&#45;&gt;substratum_histories:e</title>
<path fill="none" stroke="black" d="M1014.15,-257.63C977.03,-260.93 963.8,-276 920,-276"/>
<polygon fill="black" stroke="black" points="1021.01,-257.34 1029.15,-260.6 1025,-257.17 1029,-257 1029,-257 1029,-257 1025,-257.17 1028.85,-253.4 1021.01,-257.34 1021.01,-257.34"/>
<ellipse fill="none" stroke="black" cx="1017.81" cy="-257.48" rx="3.2" ry="3.2"/>
</g>
<!-- observation_substratum_results&#45;&gt;substrata -->
<g id="edge12" class="edge">
<title>observation_substratum_results:w&#45;&gt;substrata:e</title>
<path fill="none" stroke="black" d="M1014.47,-255.01C1001.29,-251.01 994.79,-242.1 976,-239 913.29,-228.64 741.75,-202.1 690,-239 645.6,-270.66 704.53,-355 650,-355"/>
<polygon fill="black" stroke="black" points="1021.07,-255.91 1028.51,-260.57 1025.04,-256.46 1029,-257 1029,-257 1029,-257 1025.04,-256.46 1029.49,-253.43 1021.07,-255.91 1021.07,-255.91"/>
<ellipse fill="none" stroke="black" cx="1017.9" cy="-255.48" rx="3.2" ry="3.2"/>
</g>
<!-- observed_substratum_species_totals -->
<g id="node9" class="node">
<title>observed_substratum_species_totals</title>
<g id="a_node9"><a xlink:href="../../tables/observed_substratum_species_totals.html" xlink:title="observed_substratum_species_totals" target="_top">
<polygon fill="#ffffff" stroke="transparent" points="1017,-112 1017,-170 1279,-170 1279,-112 1017,-112"/>
<polygon fill="#f5f5f5" stroke="transparent" points="1017,-148 1017,-170 1279,-170 1279,-148 1017,-148"/>
<polygon fill="none" stroke="black" points="1017,-148 1017,-170 1279,-170 1279,-148 1017,-148"/>
<text text-anchor="start" x="1022" y="-157.2" font-family="Helvetica,sans-Serif" font-weight="bold" font-size="11.00">observed_substratum_species_totals</text>
<text text-anchor="start" x="1240" y="-156.2" font-family="Helvetica,sans-Serif" font-size="11.00">[table]</text>
<polygon fill="none" stroke="black" points="1017,-130 1017,-148 1279,-148 1279,-130 1017,-130"/>
<text text-anchor="start" x="1020" y="-136.2" font-family="Helvetica,sans-Serif" font-size="11.00">...</text>
<polygon fill="#ffffff" stroke="transparent" points="1017,-112 1017,-130 1146,-130 1146,-112 1017,-112"/>
<polygon fill="none" stroke="black" points="1017,-112 1017,-130 1146,-130 1146,-112 1017,-112"/>
<text text-anchor="start" x="1020" y="-118.2" font-family="Helvetica,sans-Serif" font-size="11.00">&lt; 5</text>
<polygon fill="#ffffff" stroke="transparent" points="1146,-112 1146,-130 1212,-130 1212,-112 1146,-112"/>
<polygon fill="none" stroke="black" points="1146,-112 1146,-130 1212,-130 1212,-112 1146,-112"/>
<text text-anchor="start" x="1202" y="-118.2" font-family="Helvetica,sans-Serif" font-size="11.00"> &#160;</text>
<polygon fill="#ffffff" stroke="transparent" points="1212,-112 1212,-130 1279,-130 1279,-112 1212,-112"/>
<polygon fill="none" stroke="black" points="1212,-112 1212,-130 1279,-130 1279,-112 1212,-112"/>
<text text-anchor="start" x="1269" y="-118.2" font-family="Helvetica,sans-Serif" font-size="11.00"> &#160;</text>
</a>
</g>
</g>
<!-- observed_substratum_species_totals&#45;&gt;substratum_histories -->
<g id="edge13" class="edge">
<title>observed_substratum_species_totals:w&#45;&gt;substratum_histories:e</title>
<path fill="none" stroke="black" d="M1001.83,-142.2C983.91,-152.67 993.72,-186.65 976,-212 954.35,-242.98 957.8,-276 920,-276"/>
<polygon fill="black" stroke="black" points="1008.2,-140.76 1016.79,-142.51 1012.1,-139.88 1016,-139 1016,-139 1016,-139 1012.1,-139.88 1015.21,-135.49 1008.2,-140.76 1008.2,-140.76"/>
<ellipse fill="none" stroke="black" cx="1005.08" cy="-141.47" rx="3.2" ry="3.2"/>
</g>
<!-- observed_substratum_species_totals&#45;&gt;substrata -->
<g id="edge14" class="edge">
<title>observed_substratum_species_totals:w&#45;&gt;substrata:e</title>
<path fill="none" stroke="black" d="M1001.53,-137.72C993.71,-136.24 987.9,-133.89 976,-133 912.62,-128.27 738.76,-92.24 690,-133 613.08,-197.3 750.26,-355 650,-355"/>
<polygon fill="black" stroke="black" points="1008.03,-138.3 1015.68,-142.59 1012.02,-138.65 1016,-139 1016,-139 1016,-139 1012.02,-138.65 1016.32,-135.41 1008.03,-138.3 1008.03,-138.3"/>
<ellipse fill="none" stroke="black" cx="1004.84" cy="-138.02" rx="3.2" ry="3.2"/>
</g>
<!-- plantings -->
<g id="node10" class="node">
<title>plantings</title>
<g id="a_node10"><a xlink:href="../../tables/plantings.html" xlink:title="plantings" target="_top">
<polygon fill="#ffffff" stroke="transparent" points="783.5,-37 783.5,-95 882.5,-95 882.5,-37 783.5,-37"/>
<polygon fill="#f5f5f5" stroke="transparent" points="784,-73 784,-95 883,-95 883,-73 784,-73"/>
<polygon fill="none" stroke="black" points="784,-73 784,-95 883,-95 883,-73 784,-73"/>
<text text-anchor="start" x="789" y="-82.2" font-family="Helvetica,sans-Serif" font-weight="bold" font-size="11.00">plantings</text>
<text text-anchor="start" x="844" y="-81.2" font-family="Helvetica,sans-Serif" font-size="11.00">[table]</text>
<polygon fill="none" stroke="black" points="784,-55 784,-73 883,-73 883,-55 784,-55"/>
<text text-anchor="start" x="787" y="-61.2" font-family="Helvetica,sans-Serif" font-size="11.00">...</text>
<polygon fill="#ffffff" stroke="transparent" points="784,-37 784,-55 831,-55 831,-37 784,-37"/>
<polygon fill="none" stroke="black" points="784,-37 784,-55 831,-55 831,-37 784,-37"/>
<text text-anchor="start" x="787" y="-43.2" font-family="Helvetica,sans-Serif" font-size="11.00">&lt; 8</text>
<polygon fill="#ffffff" stroke="transparent" points="831,-37 831,-55 857,-55 857,-37 831,-37"/>
<polygon fill="none" stroke="black" points="831,-37 831,-55 857,-55 857,-37 831,-37"/>
<text text-anchor="start" x="847" y="-43.2" font-family="Helvetica,sans-Serif" font-size="11.00"> &#160;</text>
<polygon fill="#ffffff" stroke="transparent" points="857,-37 857,-55 883,-55 883,-37 857,-37"/>
<polygon fill="none" stroke="black" points="857,-37 857,-55 883,-55 883,-37 857,-37"/>
<text text-anchor="start" x="873" y="-43.2" font-family="Helvetica,sans-Serif" font-size="11.00"> &#160;</text>
</a>
</g>
</g>
<!-- plantings&#45;&gt;public.users -->
<g id="edge17" class="edge">
<title>plantings:w&#45;&gt;public.users:e</title>
<path fill="none" stroke="black" d="M768.28,-63.95C496.53,-62.26 366.17,-15.77 165,-206 129.62,-239.46 173.69,-308 125,-308"/>
<polygon fill="black" stroke="black" points="775,-63.97 782.99,-67.6 779,-63.99 783,-64 783,-64 783,-64 779,-63.99 783.01,-60.4 775,-63.97 775,-63.97"/>
<ellipse fill="none" stroke="black" cx="771.8" cy="-63.96" rx="3.2" ry="3.2"/>
</g>
<!-- plantings&#45;&gt;planting_sites -->
<g id="edge18" class="edge">
<title>plantings:w&#45;&gt;planting_sites:e</title>
<path fill="none" stroke="black" d="M768.52,-64.51C721.81,-67.97 708.09,-88.4 657,-105 573.46,-132.15 529.62,-102.43 469,-166 430.53,-206.34 477.58,-249.87 436,-287 413.19,-307.37 330.58,-308 300,-308"/>
<polygon fill="black" stroke="black" points="775,-64.28 783.13,-67.6 779,-64.14 783,-64 783,-64 783,-64 779,-64.14 782.87,-60.4 775,-64.28 775,-64.28"/>
<ellipse fill="none" stroke="black" cx="771.81" cy="-64.39" rx="3.2" ry="3.2"/>
</g>
<!-- plantings&#45;&gt;substrata -->
<g id="edge19" class="edge">
<title>plantings:w&#45;&gt;substrata:e</title>
<path fill="none" stroke="black" d="M768.43,-64.41C732.98,-66.58 716.33,-77.94 690,-109 649.26,-157.06 713,-245 650,-245"/>
<polygon fill="black" stroke="black" points="775,-64.22 783.1,-67.6 779,-64.11 783,-64 783,-64 783,-64 779,-64.11 782.9,-60.4 775,-64.22 775,-64.22"/>
<ellipse fill="none" stroke="black" cx="771.8" cy="-64.31" rx="3.2" ry="3.2"/>
</g>
<!-- plantings&#45;&gt;substrata -->
<g id="edge20" class="edge">
<title>plantings:w&#45;&gt;substrata:e</title>
<path fill="none" stroke="black" d="M768.36,-64.34C732.53,-66.22 714.34,-76.36 690,-109 656.9,-153.4 705.38,-355 650,-355"/>
<polygon fill="black" stroke="black" points="775,-64.19 783.08,-67.6 779,-64.09 783,-64 783,-64 783,-64 779,-64.09 782.92,-60.4 775,-64.19 775,-64.19"/>
<ellipse fill="none" stroke="black" cx="771.8" cy="-64.26" rx="3.2" ry="3.2"/>
</g>
<!-- simplified_substrata -->
<g id="node11" class="node">
<title>simplified_substrata</title>
<g id="a_node11"><a xlink:href="../../tables/simplified_substrata.html" xlink:title="simplified_substrata" target="_top">
<polygon fill="#ffffff" stroke="transparent" points="698,-434 698,-522 968,-522 968,-434 698,-434"/>
<polygon fill="#f5f5f5" stroke="transparent" points="700,-498 700,-520 966,-520 966,-498 700,-498"/>
<polygon fill="none" stroke="black" points="700,-498 700,-520 966,-520 966,-498 700,-498"/>
<text text-anchor="start" x="705" y="-507.2" font-family="Helvetica,sans-Serif" font-weight="bold" font-size="11.00">simplified_substrata</text>
<text text-anchor="start" x="927" y="-506.2" font-family="Helvetica,sans-Serif" font-size="11.00">[table]</text>
<polygon fill="none" stroke="black" points="700,-476 700,-498 843,-498 843,-476 700,-476"/>
<image xlink:href="../../images/primaryKeys.png" width="11px" height="12px" preserveAspectRatio="xMinYMin meet" x="705" y="-493"/>
<text text-anchor="start" x="720" y="-484.2" font-family="Helvetica,sans-Serif" font-size="11.00">substratum_id</text>
<polygon fill="none" stroke="black" points="843,-476 843,-498 966,-498 966,-476 843,-476"/>
<text text-anchor="start" x="846" y="-484.2" font-family="Helvetica,sans-Serif" font-size="11.00">int8[19]</text>
<polygon fill="none" stroke="black" points="700,-454 700,-476 843,-476 843,-454 700,-454"/>
<text text-anchor="start" x="720" y="-462.2" font-family="Helvetica,sans-Serif" font-size="11.00">boundary</text>
<polygon fill="none" stroke="black" points="843,-454 843,-476 966,-476 966,-454 843,-454"/>
<text text-anchor="start" x="846" y="-462.2" font-family="Helvetica,sans-Serif" font-size="11.00">geometry[2147483647]</text>
<polygon fill="#ffffff" stroke="transparent" points="700,-436 700,-454 776,-454 776,-436 700,-436"/>
<polygon fill="none" stroke="black" points="700,-436 700,-454 776,-454 776,-436 700,-436"/>
<text text-anchor="start" x="703" y="-442.2" font-family="Helvetica,sans-Serif" font-size="11.00">&lt; 1</text>
<polygon fill="#ffffff" stroke="transparent" points="776,-436 776,-454 843,-454 843,-436 776,-436"/>
<polygon fill="none" stroke="black" points="776,-436 776,-454 843,-454 843,-436 776,-436"/>
<text text-anchor="start" x="833" y="-442.2" font-family="Helvetica,sans-Serif" font-size="11.00"> &#160;</text>
<polygon fill="#ffffff" stroke="transparent" points="843,-436 843,-454 966,-454 966,-436 843,-436"/>
<polygon fill="none" stroke="black" points="843,-436 843,-454 966,-454 966,-436 843,-436"/>
<text text-anchor="start" x="947" y="-442.2" font-family="Helvetica,sans-Serif" font-size="11.00">0 &gt;</text>
<polygon fill="none" stroke="black" stroke-width="2" points="699,-435 699,-521 967,-521 967,-435 699,-435"/>
</a>
</g>
</g>
<!-- simplified_substrata&#45;&gt;substrata -->
<g id="edge21" class="edge">
<title>simplified_substrata:w&#45;&gt;substrata:e</title>
<path fill="none" stroke="black" d="M688.55,-485.43C645.66,-470.53 708.54,-355 650,-355"/>
<polygon fill="black" stroke="black" points="698.81,-482.93 697.61,-490.84 696.03,-490.6 697.22,-482.69 698.81,-482.93"/>
<polyline fill="none" stroke="black" points="699,-487 695.04,-486.4 "/>
<ellipse fill="none" stroke="black" cx="691.88" cy="-485.93" rx="3.2" ry="3.2"/>
</g>
<!-- strata&#45;&gt;public.users -->
<g id="edge22" class="edge">
<title>strata:w&#45;&gt;public.users:e</title>
<path fill="none" stroke="black" d="M332.3,-244.91C261.79,-244.03 234.17,-238.08 165,-271 143.13,-281.41 149.22,-308 125,-308"/>
<polygon fill="black" stroke="black" points="339,-244.95 346.98,-248.6 343,-244.97 347,-245 347,-245 347,-245 343,-244.97 347.02,-241.4 339,-244.95 339,-244.95"/>
<ellipse fill="none" stroke="black" cx="335.8" cy="-244.93" rx="3.2" ry="3.2"/>
</g>
<!-- strata&#45;&gt;public.users -->
<g id="edge23" class="edge">
<title>strata:w&#45;&gt;public.users:e</title>
<path fill="none" stroke="black" d="M332.27,-243.91C261.65,-238.66 234.97,-237.2 165,-269 144.02,-278.54 148.05,-302 125,-308"/>
<polygon fill="black" stroke="black" points="339.02,-244.41 346.73,-248.59 343.01,-244.7 347,-245 347,-245 347,-245 343.01,-244.7 347.27,-241.41 339.02,-244.41 339.02,-244.41"/>
<ellipse fill="none" stroke="black" cx="335.83" cy="-244.17" rx="3.2" ry="3.2"/>
</g>
<!-- strata&#45;&gt;public.users -->
<g id="edge24" class="edge">
<title>strata:w&#45;&gt;public.users:e</title>
<path fill="none" stroke="black" d="M332.27,-246.2C261.65,-251.66 234.97,-250.2 165,-282 144.02,-291.54 148.05,-315 125,-308"/>
<polygon fill="black" stroke="black" points="339.03,-245.65 347.29,-248.59 343.01,-245.32 347,-245 347,-245 347,-245 343.01,-245.32 346.71,-241.41 339.03,-245.65 339.03,-245.65"/>
<ellipse fill="none" stroke="black" cx="335.84" cy="-245.91" rx="3.2" ry="3.2"/>
</g>
<!-- strata&#45;&gt;planting_sites -->
<g id="edge25" class="edge">
<title>strata:w&#45;&gt;planting_sites:e</title>
<path fill="none" stroke="black" d="M333.1,-250.37C318.42,-265.61 328.66,-308 300,-308"/>
<polygon fill="black" stroke="black" points="339.54,-247.88 348.3,-248.36 343.27,-246.44 347,-245 347,-245 347,-245 343.27,-246.44 345.7,-241.64 339.54,-247.88 339.54,-247.88"/>
<ellipse fill="none" stroke="black" cx="336.55" cy="-249.04" rx="3.2" ry="3.2"/>
</g>
<!-- substratum_populations -->
<g id="node13" class="node">
<title>substratum_populations</title>
<g id="a_node13"><a xlink:href="../../tables/substratum_populations.html" xlink:title="substratum_populations" target="_top">
<polygon fill="#ffffff" stroke="transparent" points="738,-328 738,-386 928,-386 928,-328 738,-328"/>
<polygon fill="#f5f5f5" stroke="transparent" points="738,-364 738,-386 928,-386 928,-364 738,-364"/>
<polygon fill="none" stroke="black" points="738,-364 738,-386 928,-386 928,-364 738,-364"/>
<text text-anchor="start" x="743" y="-373.2" font-family="Helvetica,sans-Serif" font-weight="bold" font-size="11.00">substratum_populations</text>
<text text-anchor="start" x="889" y="-372.2" font-family="Helvetica,sans-Serif" font-size="11.00">[table]</text>
<polygon fill="none" stroke="black" points="738,-346 738,-364 928,-364 928,-346 738,-346"/>
<text text-anchor="start" x="741" y="-352.2" font-family="Helvetica,sans-Serif" font-size="11.00">...</text>
<polygon fill="#ffffff" stroke="transparent" points="738,-328 738,-346 831,-346 831,-328 738,-328"/>
<polygon fill="none" stroke="black" points="738,-328 738,-346 831,-346 831,-328 738,-328"/>
<text text-anchor="start" x="741" y="-334.2" font-family="Helvetica,sans-Serif" font-size="11.00">&lt; 2</text>
<polygon fill="#ffffff" stroke="transparent" points="831,-328 831,-346 879,-346 879,-328 831,-328"/>
<polygon fill="none" stroke="black" points="831,-328 831,-346 879,-346 879,-328 831,-328"/>
<text text-anchor="start" x="869" y="-334.2" font-family="Helvetica,sans-Serif" font-size="11.00"> &#160;</text>
<polygon fill="#ffffff" stroke="transparent" points="879,-328 879,-346 928,-346 928,-328 879,-328"/>
<polygon fill="none" stroke="black" points="879,-328 879,-346 928,-346 928,-328 879,-328"/>
<text text-anchor="start" x="918" y="-334.2" font-family="Helvetica,sans-Serif" font-size="11.00"> &#160;</text>
</a>
</g>
</g>
<!-- substratum_populations&#45;&gt;substrata -->
<g id="edge32" class="edge">
<title>substratum_populations:w&#45;&gt;substrata:e</title>
<path fill="none" stroke="black" d="M722.25,-355C695.04,-355 683.23,-355 650,-355"/>
<polygon fill="black" stroke="black" points="729,-355 737,-358.6 733,-355 737,-355 737,-355 737,-355 733,-355 737,-351.4 729,-355 729,-355"/>
<ellipse fill="none" stroke="black" cx="725.8" cy="-355" rx="3.2" ry="3.2"/>
</g>
</g>
</svg>
