<?xml version="1.0" encoding="UTF-8" standalone="no"?>
<!DOCTYPE svg PUBLIC "-//W3C//DTD SVG 1.1//EN"
 "http://www.w3.org/Graphics/SVG/1.1/DTD/svg11.dtd">
<!-- Generated by graphviz version 2.47.1 (20210515.0534)
 -->
<!-- Title: twoDegreesRelationshipsDiagram Pages: 1 -->
<svg width="782pt" height="453pt"
 viewBox="0.00 0.00 782.00 453.00" xmlns="http://www.w3.org/2000/svg" xmlns:xlink="http://www.w3.org/1999/xlink">
<g id="graph0" class="graph" transform="scale(1 1) rotate(0) translate(4 449)">
<title>twoDegreesRelationshipsDiagram</title>
<polygon fill="#ffffff" stroke="transparent" points="-4,4 -4,-449 778,-449 778,4 -4,4"/>
<text text-anchor="middle" x="73.5" y="-7.2" font-family="Helvetica,sans-Serif" font-size="11.00">Generated by SchemaSpy</text>
<!-- monitoring_plot_histories -->
<g id="node1" class="node">
<title>monitoring_plot_histories</title>
<g id="a_node1"><a xlink:href="../../tables/monitoring_plot_histories.html" xlink:title="monitoring_plot_histories" target="_top">
<polygon fill="#ffffff" stroke="transparent" points="498,-383 498,-441 695,-441 695,-383 498,-383"/>
<polygon fill="#f5f5f5" stroke="transparent" points="498.5,-419 498.5,-441 695.5,-441 695.5,-419 498.5,-419"/>
<polygon fill="none" stroke="black" points="498.5,-419 498.5,-441 695.5,-441 695.5,-419 498.5,-419"/>
<text text-anchor="start" x="503.5" y="-428.2" font-family="Helvetica,sans-Serif" font-weight="bold" font-size="11.00">monitoring_plot_histories</text>
<text text-anchor="start" x="656.5" y="-427.2" font-family="Helvetica,sans-Serif" font-size="11.00">[table]</text>
<polygon fill="none" stroke="black" points="498.5,-401 498.5,-419 695.5,-419 695.5,-401 498.5,-401"/>
<text text-anchor="start" x="501.5" y="-407.2" font-family="Helvetica,sans-Serif" font-size="11.00">...</text>
<polygon fill="#ffffff" stroke="transparent" points="498.5,-383 498.5,-401 590.5,-401 590.5,-383 498.5,-383"/>
<polygon fill="none" stroke="black" points="498.5,-383 498.5,-401 590.5,-401 590.5,-383 498.5,-383"/>
<text text-anchor="start" x="501.5" y="-389.2" font-family="Helvetica,sans-Serif" font-size="11.00">&lt; 6</text>
<polygon fill="#ffffff" stroke="transparent" points="590.5,-383 590.5,-401 638.5,-401 638.5,-383 590.5,-383"/>
<polygon fill="none" stroke="black" points="590.5,-383 590.5,-401 638.5,-401 638.5,-383 590.5,-383"/>
<text text-anchor="start" x="628.5" y="-389.2" font-family="Helvetica,sans-Serif" font-size="11.00"> &#160;</text>
<polygon fill="#ffffff" stroke="transparent" points="638.5,-383 638.5,-401 695.5,-401 695.5,-383 638.5,-383"/>
<polygon fill="none" stroke="black" points="638.5,-383 638.5,-401 695.5,-401 695.5,-383 638.5,-383"/>
<text text-anchor="start" x="676.5" y="-389.2" font-family="Helvetica,sans-Serif" font-size="11.00">3 &gt;</text>
</a>
</g>
</g>
<!-- substratum_histories -->
<g id="node2" class="node">
<title>substratum_histories</title>
<g id="a_node2"><a xlink:href="../../tables/substratum_histories.html" xlink:title="substratum_histories" target="_top">
<polygon fill="#ffffff" stroke="transparent" points="207,-167 207,-291 378,-291 378,-167 207,-167"/>
<polygon fill="#f5f5f5" stroke="transparent" points="207.5,-269 207.5,-291 378.5,-291 378.5,-269 207.5,-269"/>
<polygon fill="none" stroke="black" points="207.5,-269 207.5,-291 378.5,-291 378.5,-269 207.5,-269"/>
<text text-anchor="start" x="212.5" y="-278.2" font-family="Helvetica,sans-Serif" font-weight="bold" font-size="11.00">substratum_histories</text>
<text text-anchor="start" x="339.5" y="-277.2" font-family="Helvetica,sans-Serif" font-size="11.00">[table]</text>
<polygon fill="none" stroke="black" points="207.5,-247 207.5,-269 378.5,-269 378.5,-247 207.5,-247"/>
<image xlink:href="../../images/primaryKeys.png" width="11px" height="12px" preserveAspectRatio="xMinYMin meet" x="212.5" y="-264"/>
<text text-anchor="start" x="239.5" y="-255.2" font-family="Helvetica,sans-Serif" font-size="11.00">id</text>
<polygon fill="#ffffff" stroke="transparent" points="207.5,-225 207.5,-247 378.5,-247 378.5,-225 207.5,-225"/>
<polygon fill="none" stroke="black" points="207.5,-225 207.5,-247 378.5,-247 378.5,-225 207.5,-225"/>
<image xlink:href="../../images/foreignKeys.png" width="11px" height="12px" preserveAspectRatio="xMinYMin meet" x="212.5" y="-242"/>
<text text-anchor="start" x="239.5" y="-233.2" font-family="Helvetica,sans-Serif" font-size="11.00">stratum_history_id</text>
<polygon fill="#ffffff" stroke="transparent" points="207.5,-203 207.5,-225 378.5,-225 378.5,-203 207.5,-203"/>
<polygon fill="none" stroke="black" points="207.5,-203 207.5,-225 378.5,-225 378.5,-203 207.5,-203"/>
<image xlink:href="../../images/foreignKeys.png" width="11px" height="12px" preserveAspectRatio="xMinYMin meet" x="212.5" y="-220"/>
<text text-anchor="start" x="239.5" y="-211.2" font-family="Helvetica,sans-Serif" font-size="11.00">substratum_id</text>
<polygon fill="none" stroke="black" points="207.5,-185 207.5,-203 378.5,-203 378.5,-185 207.5,-185"/>
<text text-anchor="start" x="210.5" y="-191.2" font-family="Helvetica,sans-Serif" font-size="11.00">...</text>
<polygon fill="#ffffff" stroke="transparent" points="207.5,-167 207.5,-185 286.5,-185 286.5,-167 207.5,-167"/>
<polygon fill="none" stroke="black" points="207.5,-167 207.5,-185 286.5,-185 286.5,-167 207.5,-167"/>
<text text-anchor="start" x="210.5" y="-173.2" font-family="Helvetica,sans-Serif" font-size="11.00">&lt; 2</text>
<polygon fill="#ffffff" stroke="transparent" points="286.5,-167 286.5,-185 327.5,-185 327.5,-167 286.5,-167"/>
<polygon fill="none" stroke="black" points="286.5,-167 286.5,-185 327.5,-185 327.5,-167 286.5,-167"/>
<text text-anchor="start" x="317.5" y="-173.2" font-family="Helvetica,sans-Serif" font-size="11.00"> &#160;</text>
<polygon fill="#ffffff" stroke="transparent" points="327.5,-167 327.5,-185 378.5,-185 378.5,-167 327.5,-167"/>
<polygon fill="none" stroke="black" points="327.5,-167 327.5,-185 378.5,-185 378.5,-167 327.5,-167"/>
<text text-anchor="start" x="359.5" y="-173.2" font-family="Helvetica,sans-Serif" font-size="11.00">6 &gt;</text>
</a>
</g>
</g>
<!-- monitoring_plot_histories&#45;&gt;substratum_histories -->
<g id="edge1" class="edge">
<title>monitoring_plot_histories:w&#45;&gt;substratum_histories:e</title>
<path fill="none" stroke="black" d="M482.96,-409.5C454.83,-407.36 441.22,-397.8 419,-373 382.94,-332.75 433.54,-258 379.5,-258"/>
<polygon fill="black" stroke="black" points="489.5,-409.73 497.38,-413.6 493.5,-409.86 497.5,-410 497.5,-410 497.5,-410 493.5,-409.86 497.62,-406.4 489.5,-409.73 489.5,-409.73"/>
<ellipse fill="none" stroke="black" cx="486.31" cy="-409.62" rx="3.2" ry="3.2"/>
</g>
<!-- substrata -->
<g id="node3" class="node">
<title>substrata</title>
<g id="a_node3"><a xlink:href="../../tables/substrata.html" xlink:title="substrata" target="_top">
<polygon fill="#ffffff" stroke="transparent" points="32.5,-123 32.5,-181 133.5,-181 133.5,-123 32.5,-123"/>
<polygon fill="#f5f5f5" stroke="transparent" points="33,-159 33,-181 134,-181 134,-159 33,-159"/>
<polygon fill="none" stroke="black" points="33,-159 33,-181 134,-181 134,-159 33,-159"/>
<text text-anchor="start" x="38" y="-168.2" font-family="Helvetica,sans-Serif" font-weight="bold" font-size="11.00">substrata</text>
<text text-anchor="start" x="95" y="-167.2" font-family="Helvetica,sans-Serif" font-size="11.00">[table]</text>
<polygon fill="none" stroke="black" points="33,-141 33,-159 134,-159 134,-141 33,-141"/>
<text text-anchor="start" x="36" y="-147.2" font-family="Helvetica,sans-Serif" font-size="11.00">...</text>
<polygon fill="#ffffff" stroke="transparent" points="33,-123 33,-141 74,-141 74,-123 33,-123"/>
<polygon fill="none" stroke="black" points="33,-123 33,-141 74,-141 74,-123 33,-123"/>
<text text-anchor="start" x="36" y="-129.2" font-family="Helvetica,sans-Serif" font-size="11.00">&lt; 5</text>
<polygon fill="#ffffff" stroke="transparent" points="74,-123 74,-141 96,-141 96,-123 74,-123"/>
<polygon fill="none" stroke="black" points="74,-123 74,-141 96,-141 96,-123 74,-123"/>
<text text-anchor="start" x="86" y="-129.2" font-family="Helvetica,sans-Serif" font-size="11.00"> &#160;</text>
<polygon fill="#ffffff" stroke="transparent" points="96,-123 96,-141 134,-141 134,-123 96,-123"/>
<polygon fill="none" stroke="black" points="96,-123 96,-141 134,-141 134,-123 96,-123"/>
<text text-anchor="start" x="109" y="-129.2" font-family="Helvetica,sans-Serif" font-size="11.00">13 &gt;</text>
</a>
</g>
</g>
<!-- monitoring_plot_histories&#45;&gt;substrata -->
<g id="edge2" class="edge">
<title>monitoring_plot_histories:w&#45;&gt;substrata:e</title>
<path fill="none" stroke="black" d="M482.92,-409.97C352.18,-409.43 293.45,-400.02 199,-302 148.14,-249.22 208.3,-150 135,-150"/>
<polygon fill="black" stroke="black" points="489.5,-409.98 497.49,-413.6 493.5,-409.99 497.5,-410 497.5,-410 497.5,-410 493.5,-409.99 497.51,-406.4 489.5,-409.98 489.5,-409.98"/>
<ellipse fill="none" stroke="black" cx="486.3" cy="-409.98" rx="3.2" ry="3.2"/>
</g>
<!-- substratum_histories&#45;&gt;substrata -->
<g id="edge11" class="edge">
<title>substratum_histories:w&#45;&gt;substrata:e</title>
<path fill="none" stroke="black" d="M192.23,-210.91C166.52,-198.13 171.98,-150 135,-150"/>
<polygon fill="black" stroke="black" points="198.68,-212.31 205.74,-217.52 202.59,-213.15 206.5,-214 206.5,-214 206.5,-214 202.59,-213.15 207.26,-210.48 198.68,-212.31 198.68,-212.31"/>
<ellipse fill="none" stroke="black" cx="195.55" cy="-211.63" rx="3.2" ry="3.2"/>
</g>
<!-- stratum_histories -->
<g id="node8" class="node">
<title>stratum_histories</title>
<g id="a_node8"><a xlink:href="../../tables/stratum_histories.html" xlink:title="stratum_histories" target="_top">
<polygon fill="#ffffff" stroke="transparent" points="8,-209 8,-267 158,-267 158,-209 8,-209"/>
<polygon fill="#f5f5f5" stroke="transparent" points="8,-245 8,-267 158,-267 158,-245 8,-245"/>
<polygon fill="none" stroke="black" points="8,-245 8,-267 158,-267 158,-245 8,-245"/>
<text text-anchor="start" x="13" y="-254.2" font-family="Helvetica,sans-Serif" font-weight="bold" font-size="11.00">stratum_histories</text>
<text text-anchor="start" x="119" y="-253.2" font-family="Helvetica,sans-Serif" font-size="11.00">[table]</text>
<polygon fill="none" stroke="black" points="8,-227 8,-245 158,-245 158,-227 8,-227"/>
<text text-anchor="start" x="11" y="-233.2" font-family="Helvetica,sans-Serif" font-size="11.00">...</text>
<polygon fill="#ffffff" stroke="transparent" points="8,-209 8,-227 76,-227 76,-209 8,-209"/>
<polygon fill="none" stroke="black" points="8,-209 8,-227 76,-227 76,-209 8,-209"/>
<text text-anchor="start" x="11" y="-215.2" font-family="Helvetica,sans-Serif" font-size="11.00">&lt; 2</text>
<polygon fill="#ffffff" stroke="transparent" points="76,-209 76,-227 112,-227 112,-209 76,-209"/>
<polygon fill="none" stroke="black" points="76,-209 76,-227 112,-227 112,-209 76,-209"/>
<text text-anchor="start" x="102" y="-215.2" font-family="Helvetica,sans-Serif" font-size="11.00"> &#160;</text>
<polygon fill="#ffffff" stroke="transparent" points="112,-209 112,-227 158,-227 158,-209 112,-209"/>
<polygon fill="none" stroke="black" points="112,-209 112,-227 158,-227 158,-209 112,-209"/>
<text text-anchor="start" x="139" y="-215.2" font-family="Helvetica,sans-Serif" font-size="11.00">4 &gt;</text>
</a>
</g>
</g>
<!-- substratum_histories&#45;&gt;stratum_histories -->
<g id="edge10" class="edge">
<title>substratum_histories:w&#45;&gt;stratum_histories:e</title>
<path fill="none" stroke="black" d="M192.09,-236C181.32,-236 174.34,-236 159,-236"/>
<polygon fill="black" stroke="black" points="198.5,-236 206.5,-239.6 202.5,-236 206.5,-236 206.5,-236 206.5,-236 202.5,-236 206.5,-232.4 198.5,-236 198.5,-236"/>
<ellipse fill="none" stroke="black" cx="195.3" cy="-236" rx="3.2" ry="3.2"/>
</g>
<!-- observation_dependent_substrata -->
<g id="node4" class="node">
<title>observation_dependent_substrata</title>
<g id="a_node4"><a xlink:href="../../tables/observation_dependent_substrata.html" xlink:title="observation_dependent_substrata" target="_top">
<polygon fill="#ffffff" stroke="transparent" points="472.5,-304 472.5,-362 720.5,-362 720.5,-304 472.5,-304"/>
<polygon fill="#f5f5f5" stroke="transparent" points="472.5,-340 472.5,-362 720.5,-362 720.5,-340 472.5,-340"/>
<polygon fill="none" stroke="black" points="472.5,-340 472.5,-362 720.5,-362 720.5,-340 472.5,-340"/>
<text text-anchor="start" x="477.5" y="-349.2" font-family="Helvetica,sans-Serif" font-weight="bold" font-size="11.00">observation_dependent_substrata</text>
<text text-anchor="start" x="681.5" y="-348.2" font-family="Helvetica,sans-Serif" font-size="11.00">[table]</text>
<polygon fill="none" stroke="black" points="472.5,-322 472.5,-340 720.5,-340 720.5,-322 472.5,-322"/>
<text text-anchor="start" x="475.5" y="-328.2" font-family="Helvetica,sans-Serif" font-size="11.00">...</text>
<polygon fill="#ffffff" stroke="transparent" points="472.5,-304 472.5,-322 594.5,-322 594.5,-304 472.5,-304"/>
<polygon fill="none" stroke="black" points="472.5,-304 472.5,-322 594.5,-322 594.5,-304 472.5,-304"/>
<text text-anchor="start" x="475.5" y="-310.2" font-family="Helvetica,sans-Serif" font-size="11.00">&lt; 4</text>
<polygon fill="#ffffff" stroke="transparent" points="594.5,-304 594.5,-322 657.5,-322 657.5,-304 594.5,-304"/>
<polygon fill="none" stroke="black" points="594.5,-304 594.5,-322 657.5,-322 657.5,-304 594.5,-304"/>
<text text-anchor="start" x="647.5" y="-310.2" font-family="Helvetica,sans-Serif" font-size="11.00"> &#160;</text>
<polygon fill="#ffffff" stroke="transparent" points="657.5,-304 657.5,-322 720.5,-322 720.5,-304 657.5,-304"/>
<polygon fill="none" stroke="black" points="657.5,-304 657.5,-322 720.5,-322 720.5,-304 657.5,-304"/>
<text text-anchor="start" x="710.5" y="-310.2" font-family="Helvetica,sans-Serif" font-size="11.00"> &#160;</text>
</a>
</g>
</g>
<!-- observation_dependent_substrata&#45;&gt;substratum_histories -->
<g id="edge3" class="edge">
<title>observation_dependent_substrata:w&#45;&gt;substratum_histories:e</title>
<path fill="none" stroke="black" d="M457.49,-326.09C441.51,-317.58 436.91,-302.38 419,-288 400.48,-273.13 403.25,-252 379.5,-258"/>
<polygon fill="black" stroke="black" points="463.95,-328.35 470.31,-334.4 467.73,-329.68 471.5,-331 471.5,-331 471.5,-331 467.73,-329.68 472.69,-327.6 463.95,-328.35 463.95,-328.35"/>
<ellipse fill="none" stroke="black" cx="460.93" cy="-327.29" rx="3.2" ry="3.2"/>
</g>
<!-- observation_dependent_substrata&#45;&gt;substratum_histories -->
<g id="edge4" class="edge">
<title>observation_dependent_substrata:w&#45;&gt;substratum_histories:e</title>
<path fill="none" stroke="black" d="M457.03,-332.26C441.42,-330.28 436.74,-315.24 419,-301 400.48,-286.13 403.25,-265 379.5,-258"/>
<polygon fill="black" stroke="black" points="463.53,-331.69 471.81,-334.59 467.52,-331.35 471.5,-331 471.5,-331 471.5,-331 467.52,-331.35 471.19,-327.41 463.53,-331.69 463.53,-331.69"/>
<ellipse fill="none" stroke="black" cx="460.34" cy="-331.97" rx="3.2" ry="3.2"/>
</g>
<!-- observation_substratum_results -->
<g id="node5" class="node">
<title>observation_substratum_results</title>
<g id="a_node5"><a xlink:href="../../tables/observation_substratum_results.html" xlink:title="observation_substratum_results" target="_top">
<polygon fill="#ffffff" stroke="transparent" points="478,-116 478,-174 715,-174 715,-116 478,-116"/>
<polygon fill="#f5f5f5" stroke="transparent" points="478.5,-152 478.5,-174 715.5,-174 715.5,-152 478.5,-152"/>
<polygon fill="none" stroke="black" points="478.5,-152 478.5,-174 715.5,-174 715.5,-152 478.5,-152"/>
<text text-anchor="start" x="483.5" y="-161.2" font-family="Helvetica,sans-Serif" font-weight="bold" font-size="11.00">observation_substratum_results</text>
<text text-anchor="start" x="676.5" y="-160.2" font-family="Helvetica,sans-Serif" font-size="11.00">[table]</text>
<polygon fill="none" stroke="black" points="478.5,-134 478.5,-152 715.5,-152 715.5,-134 478.5,-134"/>
<text text-anchor="start" x="481.5" y="-140.2" font-family="Helvetica,sans-Serif" font-size="11.00">...</text>
<polygon fill="#ffffff" stroke="transparent" points="478.5,-116 478.5,-134 594.5,-134 594.5,-116 478.5,-116"/>
<polygon fill="none" stroke="black" points="478.5,-116 478.5,-134 594.5,-134 594.5,-116 478.5,-116"/>
<text text-anchor="start" x="481.5" y="-122.2" font-family="Helvetica,sans-Serif" font-size="11.00">&lt; 3</text>
<polygon fill="#ffffff" stroke="transparent" points="594.5,-116 594.5,-134 654.5,-134 654.5,-116 594.5,-116"/>
<polygon fill="none" stroke="black" points="594.5,-116 594.5,-134 654.5,-134 654.5,-116 594.5,-116"/>
<text text-anchor="start" x="644.5" y="-122.2" font-family="Helvetica,sans-Serif" font-size="11.00"> &#160;</text>
<polygon fill="#ffffff" stroke="transparent" points="654.5,-116 654.5,-134 715.5,-134 715.5,-116 654.5,-116"/>
<polygon fill="none" stroke="black" points="654.5,-116 654.5,-134 715.5,-134 715.5,-116 654.5,-116"/>
<text text-anchor="start" x="705.5" y="-122.2" font-family="Helvetica,sans-Serif" font-size="11.00"> &#160;</text>
</a>
</g>
</g>
<!-- observation_substratum_results&#45;&gt;substratum_histories -->
<g id="edge5" class="edge">
<title>observation_substratum_results:w&#45;&gt;substratum_histories:e</title>
<path fill="none" stroke="black" d="M463.14,-144.53C443.19,-149.36 436.52,-165.11 419,-185 394.62,-212.68 416.39,-258 379.5,-258"/>
<polygon fill="black" stroke="black" points="469.55,-143.85 477.88,-146.58 473.52,-143.42 477.5,-143 477.5,-143 477.5,-143 473.52,-143.42 477.12,-139.42 469.55,-143.85 469.55,-143.85"/>
<ellipse fill="none" stroke="black" cx="466.36" cy="-144.19" rx="3.2" ry="3.2"/>
</g>
<!-- observation_substratum_results&#45;&gt;substrata -->
<g id="edge6" class="edge">
<title>observation_substratum_results:w&#45;&gt;substrata:e</title>
<path fill="none" stroke="black" d="M462.7,-143.02C322.6,-143.46 282.2,-150 135,-150"/>
<polygon fill="black" stroke="black" points="469.5,-143.01 477.51,-146.6 473.5,-143.01 477.5,-143 477.5,-143 477.5,-143 473.5,-143.01 477.49,-139.4 469.5,-143.01 469.5,-143.01"/>
<ellipse fill="none" stroke="black" cx="466.3" cy="-143.02" rx="3.2" ry="3.2"/>
</g>
<!-- observed_substratum_species_totals -->
<g id="node6" class="node">
<title>observed_substratum_species_totals</title>
<g id="a_node6"><a xlink:href="../../tables/observed_substratum_species_totals.html" xlink:title="observed_substratum_species_totals" target="_top">
<polygon fill="#ffffff" stroke="transparent" points="465.5,-37 465.5,-95 727.5,-95 727.5,-37 465.5,-37"/>
<polygon fill="#f5f5f5" stroke="transparent" points="465.5,-73 465.5,-95 727.5,-95 727.5,-73 465.5,-73"/>
<polygon fill="none" stroke="black" points="465.5,-73 465.5,-95 727.5,-95 727.5,-73 465.5,-73"/>
<text text-anchor="start" x="470.5" y="-82.2" font-family="Helvetica,sans-Serif" font-weight="bold" font-size="11.00">observed_substratum_species_totals</text>
<text text-anchor="start" x="688.5" y="-81.2" font-family="Helvetica,sans-Serif" font-size="11.00">[table]</text>
<polygon fill="none" stroke="black" points="465.5,-55 465.5,-73 727.5,-73 727.5,-55 465.5,-55"/>
<text text-anchor="start" x="468.5" y="-61.2" font-family="Helvetica,sans-Serif" font-size="11.00">...</text>
<polygon fill="#ffffff" stroke="transparent" points="465.5,-37 465.5,-55 594.5,-55 594.5,-37 465.5,-37"/>
<polygon fill="none" stroke="black" points="465.5,-37 465.5,-55 594.5,-55 594.5,-37 465.5,-37"/>
<text text-anchor="start" x="468.5" y="-43.2" font-family="Helvetica,sans-Serif" font-size="11.00">&lt; 5</text>
<polygon fill="#ffffff" stroke="transparent" points="594.5,-37 594.5,-55 660.5,-55 660.5,-37 594.5,-37"/>
<polygon fill="none" stroke="black" points="594.5,-37 594.5,-55 660.5,-55 660.5,-37 594.5,-37"/>
<text text-anchor="start" x="650.5" y="-43.2" font-family="Helvetica,sans-Serif" font-size="11.00"> &#160;</text>
<polygon fill="#ffffff" stroke="transparent" points="660.5,-37 660.5,-55 727.5,-55 727.5,-37 660.5,-37"/>
<polygon fill="none" stroke="black" points="660.5,-37 660.5,-55 727.5,-55 727.5,-37 660.5,-37"/>
<text text-anchor="start" x="717.5" y="-43.2" font-family="Helvetica,sans-Serif" font-size="11.00"> &#160;</text>
</a>
</g>
</g>
<!-- observed_substratum_species_totals&#45;&gt;substratum_histories -->
<g id="edge7" class="edge">
<title>observed_substratum_species_totals:w&#45;&gt;substratum_histories:e</title>
<path fill="none" stroke="black" d="M450.04,-66.25C435.08,-71.72 430.14,-86.63 419,-105 382.59,-165.05 449.73,-258 379.5,-258"/>
<polygon fill="black" stroke="black" points="456.6,-65.23 465.05,-67.56 460.55,-64.62 464.5,-64 464.5,-64 464.5,-64 460.55,-64.62 463.95,-60.44 456.6,-65.23 456.6,-65.23"/>
<ellipse fill="none" stroke="black" cx="453.43" cy="-65.72" rx="3.2" ry="3.2"/>
</g>
<!-- observed_substratum_species_totals&#45;&gt;substrata -->
<g id="edge8" class="edge">
<title>observed_substratum_species_totals:w&#45;&gt;substrata:e</title>
<path fill="none" stroke="black" d="M449.93,-64.88C367.96,-73.94 206.17,-150 135,-150"/>
<polygon fill="black" stroke="black" points="456.51,-64.48 464.72,-67.59 460.51,-64.24 464.5,-64 464.5,-64 464.5,-64 460.51,-64.24 464.28,-60.41 456.51,-64.48 456.51,-64.48"/>
<ellipse fill="none" stroke="black" cx="453.32" cy="-64.67" rx="3.2" ry="3.2"/>
</g>
<!-- simplified_substratum_histories -->
<g id="node7" class="node">
<title>simplified_substratum_histories</title>
<g id="a_node7"><a xlink:href="../../tables/simplified_substratum_histories.html" xlink:title="simplified_substratum_histories" target="_top">
<polygon fill="#ffffff" stroke="transparent" points="427,-195 427,-283 766,-283 766,-195 427,-195"/>
<polygon fill="#f5f5f5" stroke="transparent" points="429.5,-259 429.5,-281 764.5,-281 764.5,-259 429.5,-259"/>
<polygon fill="none" stroke="black" points="429.5,-259 429.5,-281 764.5,-281 764.5,-259 429.5,-259"/>
<text text-anchor="start" x="434.5" y="-268.2" font-family="Helvetica,sans-Serif" font-weight="bold" font-size="11.00">simplified_substratum_histories</text>
<text text-anchor="start" x="725.5" y="-267.2" font-family="Helvetica,sans-Serif" font-size="11.00">[table]</text>
<polygon fill="none" stroke="black" points="429.5,-237 429.5,-259 641.5,-259 641.5,-237 429.5,-237"/>
<image xlink:href="../../images/primaryKeys.png" width="11px" height="12px" preserveAspectRatio="xMinYMin meet" x="434.5" y="-254"/>
<text text-anchor="start" x="449.5" y="-245.2" font-family="Helvetica,sans-Serif" font-size="11.00">substratum_history_id</text>
<polygon fill="none" stroke="black" points="641.5,-237 641.5,-259 764.5,-259 764.5,-237 641.5,-237"/>
<text text-anchor="start" x="644.5" y="-245.2" font-family="Helvetica,sans-Serif" font-size="11.00">int8[19]</text>
<polygon fill="none" stroke="black" points="429.5,-215 429.5,-237 641.5,-237 641.5,-215 429.5,-215"/>
<text text-anchor="start" x="449.5" y="-223.2" font-family="Helvetica,sans-Serif" font-size="11.00">boundary</text>
<polygon fill="none" stroke="black" points="641.5,-215 641.5,-237 764.5,-237 764.5,-215 641.5,-215"/>
<text text-anchor="start" x="644.5" y="-223.2" font-family="Helvetica,sans-Serif" font-size="11.00">geometry[2147483647]</text>
<polygon fill="#ffffff" stroke="transparent" points="429.5,-197 429.5,-215 539.5,-215 539.5,-197 429.5,-197"/>
<polygon fill="none" stroke="black" points="429.5,-197 429.5,-215 539.5,-215 539.5,-197 429.5,-197"/>
<text text-anchor="start" x="432.5" y="-203.2" font-family="Helvetica,sans-Serif" font-size="11.00">&lt; 1</text>
<polygon fill="#ffffff" stroke="transparent" points="539.5,-197 539.5,-215 641.5,-215 641.5,-197 539.5,-197"/>
<polygon fill="none" stroke="black" points="539.5,-197 539.5,-215 641.5,-215 641.5,-197 539.5,-197"/>
<text text-anchor="start" x="631.5" y="-203.2" font-family="Helvetica,sans-Serif" font-size="11.00"> &#160;</text>
<polygon fill="#ffffff" stroke="transparent" points="641.5,-197 641.5,-215 764.5,-215 764.5,-197 641.5,-197"/>
<polygon fill="none" stroke="black" points="641.5,-197 641.5,-215 764.5,-215 764.5,-197 641.5,-197"/>
<text text-anchor="start" x="745.5" y="-203.2" font-family="Helvetica,sans-Serif" font-size="11.00">0 &gt;</text>
<polygon fill="none" stroke="black" stroke-width="2" points="428,-196 428,-282 765,-282 765,-196 428,-196"/>
</a>
</g>
</g>
<!-- simplified_substratum_histories&#45;&gt;substratum_histories -->
<g id="edge9" class="edge">
<title>simplified_substratum_histories:w&#45;&gt;substratum_histories:e</title>
<path fill="none" stroke="black" d="M418.03,-248.85C404.07,-251.27 397.73,-258 379.5,-258"/>
<polygon fill="black" stroke="black" points="427.38,-244.08 428.03,-252.05 426.43,-252.18 425.78,-244.21 427.38,-244.08"/>
<polyline fill="none" stroke="black" points="428.5,-248 424.51,-248.32 "/>
<ellipse fill="none" stroke="black" cx="421.32" cy="-248.58" rx="3.2" ry="3.2"/>
</g>
</g>
</svg>
