<?xml version="1.0" encoding="UTF-8" standalone="no"?>
<!DOCTYPE svg PUBLIC "-//W3C//DTD SVG 1.1//EN"
 "http://www.w3.org/Graphics/SVG/1.1/DTD/svg11.dtd">
<!-- Generated by graphviz version 2.47.1 (20210515.0534)
 -->
<!-- Title: twoDegreesRelationshipsDiagram Pages: 1 -->
<svg width="493pt" height="305pt"
 viewBox="0.00 0.00 493.00 305.00" xmlns="http://www.w3.org/2000/svg" xmlns:xlink="http://www.w3.org/1999/xlink">
<g id="graph0" class="graph" transform="scale(1 1) rotate(0) translate(4 301)">
<title>twoDegreesRelationshipsDiagram</title>
<polygon fill="#ffffff" stroke="transparent" points="-4,4 -4,-301 489,-301 489,4 -4,4"/>
<text text-anchor="middle" x="73.5" y="-7.2" font-family="Helvetica,sans-Serif" font-size="11.00">Generated by SchemaSpy</text>
<!-- country_botanical_countries -->
<g id="node1" class="node">
<title>country_botanical_countries</title>
<g id="a_node1"><a xlink:href="../../tables/country_botanical_countries.html" xlink:title="country_botanical_countries" target="_top">
<polygon fill="#ffffff" stroke="transparent" points="245.5,-38 245.5,-96 458.5,-96 458.5,-38 245.5,-38"/>
<polygon fill="#f5f5f5" stroke="transparent" points="246,-74 246,-96 459,-96 459,-74 246,-74"/>
<polygon fill="none" stroke="black" points="246,-74 246,-96 459,-96 459,-74 246,-74"/>
<text text-anchor="start" x="251" y="-83.2" font-family="Helvetica,sans-Serif" font-weight="bold" font-size="11.00">country_botanical_countries</text>
<text text-anchor="start" x="420" y="-82.2" font-family="Helvetica,sans-Serif" font-size="11.00">[table]</text>
<polygon fill="none" stroke="black" points="246,-56 246,-74 459,-74 459,-56 246,-56"/>
<text text-anchor="start" x="249" y="-62.2" font-family="Helvetica,sans-Serif" font-size="11.00">...</text>
<polygon fill="#ffffff" stroke="transparent" points="246,-38 246,-56 350,-56 350,-38 246,-38"/>
<polygon fill="none" stroke="black" points="246,-38 246,-56 350,-56 350,-38 246,-38"/>
<text text-anchor="start" x="249" y="-44.2" font-family="Helvetica,sans-Serif" font-size="11.00">&lt; 1</text>
<polygon fill="#ffffff" stroke="transparent" points="350,-38 350,-56 404,-56 404,-38 350,-38"/>
<polygon fill="none" stroke="black" points="350,-38 350,-56 404,-56 404,-38 350,-38"/>
<text text-anchor="start" x="394" y="-44.2" font-family="Helvetica,sans-Serif" font-size="11.00"> &#160;</text>
<polygon fill="#ffffff" stroke="transparent" points="404,-38 404,-56 459,-56 459,-38 404,-38"/>
<polygon fill="none" stroke="black" points="404,-38 404,-56 459,-56 459,-38 404,-38"/>
<text text-anchor="start" x="449" y="-44.2" font-family="Helvetica,sans-Serif" font-size="11.00"> &#160;</text>
</a>
</g>
</g>
<!-- botanical_countries -->
<g id="node2" class="node">
<title>botanical_countries</title>
<g id="a_node2"><a xlink:href="../../tables/botanical_countries.html" xlink:title="botanical_countries" target="_top">
<polygon fill="#ffffff" stroke="transparent" points="12.5,-37 12.5,-139 173.5,-139 173.5,-37 12.5,-37"/>
<polygon fill="#f5f5f5" stroke="transparent" points="13,-117 13,-139 174,-139 174,-117 13,-117"/>
<polygon fill="none" stroke="black" points="13,-117 13,-139 174,-139 174,-117 13,-117"/>
<text text-anchor="start" x="18" y="-126.2" font-family="Helvetica,sans-Serif" font-weight="bold" font-size="11.00">botanical_countries</text>
<text text-anchor="start" x="135" y="-125.2" font-family="Helvetica,sans-Serif" font-size="11.00">[table]</text>
<polygon fill="none" stroke="black" points="13,-95 13,-117 174,-117 174,-95 13,-95"/>
<image xlink:href="../../images/primaryKeys.png" width="11px" height="12px" preserveAspectRatio="xMinYMin meet" x="18" y="-112"/>
<text text-anchor="start" x="45" y="-103.2" font-family="Helvetica,sans-Serif" font-size="11.00">id</text>
<polygon fill="#ffffff" stroke="transparent" points="13,-73 13,-95 174,-95 174,-73 13,-73"/>
<polygon fill="none" stroke="black" points="13,-73 13,-95 174,-95 174,-73 13,-73"/>
<text text-anchor="start" x="45" y="-81.2" font-family="Helvetica,sans-Serif" font-size="11.00">level3_code</text>
<polygon fill="none" stroke="black" points="13,-55 13,-73 174,-73 174,-55 13,-55"/>
<text text-anchor="start" x="16" y="-61.2" font-family="Helvetica,sans-Serif" font-size="11.00">...</text>
<polygon fill="#ffffff" stroke="transparent" points="13,-37 13,-55 82,-55 82,-37 13,-37"/>
<polygon fill="none" stroke="black" points="13,-37 13,-55 82,-55 82,-37 13,-37"/>
<text text-anchor="start" x="16" y="-43.2" font-family="Helvetica,sans-Serif" font-size="11.00"> &#160;</text>
<polygon fill="#ffffff" stroke="transparent" points="82,-37 82,-55 123,-55 123,-37 82,-37"/>
<polygon fill="none" stroke="black" points="82,-37 82,-55 123,-55 123,-37 82,-37"/>
<text text-anchor="start" x="113" y="-43.2" font-family="Helvetica,sans-Serif" font-size="11.00"> &#160;</text>
<polygon fill="#ffffff" stroke="transparent" points="123,-37 123,-55 174,-55 174,-37 123,-37"/>
<polygon fill="none" stroke="black" points="123,-37 123,-55 174,-55 174,-37 123,-37"/>
<text text-anchor="start" x="155" y="-43.2" font-family="Helvetica,sans-Serif" font-size="11.00">2 &gt;</text>
</a>
</g>
</g>
<!-- country_botanical_countries&#45;&gt;botanical_countries -->
<g id="edge1" class="edge">
<title>country_botanical_countries:w&#45;&gt;botanical_countries:e</title>
<path fill="none" stroke="black" d="M230.6,-67.69C208.67,-76.81 205.42,-106 175,-106"/>
<polygon fill="black" stroke="black" points="237.14,-66.47 245.66,-68.54 241.07,-65.73 245,-65 245,-65 245,-65 241.07,-65.73 244.34,-61.46 237.14,-66.47 237.14,-66.47"/>
<ellipse fill="none" stroke="black" cx="233.99" cy="-67.06" rx="3.2" ry="3.2"/>
</g>
<!-- wcvp_distributions -->
<g id="node3" class="node">
<title>wcvp_distributions</title>
<g id="a_node3"><a xlink:href="../../tables/wcvp_distributions.html" xlink:title="wcvp_distributions" target="_top">
<polygon fill="#ffffff" stroke="transparent" points="227,-117 227,-293 477,-293 477,-117 227,-117"/>
<polygon fill="#f5f5f5" stroke="transparent" points="229,-269 229,-291 475,-291 475,-269 229,-269"/>
<polygon fill="none" stroke="black" points="229,-269 229,-291 475,-291 475,-269 229,-269"/>
<text text-anchor="start" x="234" y="-278.2" font-family="Helvetica,sans-Serif" font-weight="bold" font-size="11.00">wcvp_distributions</text>
<text text-anchor="start" x="436" y="-277.2" font-family="Helvetica,sans-Serif" font-size="11.00">[table]</text>
<polygon fill="none" stroke="black" points="229,-247 229,-269 381,-269 381,-247 229,-247"/>
<image xlink:href="../../images/primaryKeys.png" width="11px" height="12px" preserveAspectRatio="xMinYMin meet" x="234" y="-264"/>
<text text-anchor="start" x="249" y="-255.2" font-family="Helvetica,sans-Serif" font-size="11.00">taxon_id</text>
<polygon fill="none" stroke="black" points="381,-247 381,-269 475,-269 475,-247 381,-247"/>
<text text-anchor="start" x="384" y="-255.2" font-family="Helvetica,sans-Serif" font-size="11.00">int8[19]</text>
<polygon fill="none" stroke="black" points="229,-225 229,-247 381,-247 381,-225 229,-225"/>
<image xlink:href="../../images/primaryKeys.png" width="11px" height="12px" preserveAspectRatio="xMinYMin meet" x="234" y="-242"/>
<text text-anchor="start" x="249" y="-233.2" font-family="Helvetica,sans-Serif" font-size="11.00">level3_code</text>
<polygon fill="none" stroke="black" points="381,-225 381,-247 475,-247 475,-225 381,-225"/>
<text text-anchor="start" x="384" y="-233.2" font-family="Helvetica,sans-Serif" font-size="11.00">text[2147483647]</text>
<polygon fill="none" stroke="black" points="229,-203 229,-225 381,-225 381,-203 229,-203"/>
<text text-anchor="start" x="249" y="-211.2" font-family="Helvetica,sans-Serif" font-size="11.00">establishment_means</text>
<polygon fill="none" stroke="black" points="381,-203 381,-225 475,-225 475,-203 381,-203"/>
<text text-anchor="start" x="384" y="-211.2" font-family="Helvetica,sans-Serif" font-size="11.00">text[2147483647]</text>
<polygon fill="none" stroke="black" points="229,-181 229,-203 381,-203 381,-181 229,-181"/>
<text text-anchor="start" x="249" y="-189.2" font-family="Helvetica,sans-Serif" font-size="11.00">occurrence_status</text>
<polygon fill="none" stroke="black" points="381,-181 381,-203 475,-203 475,-181 381,-181"/>
<text text-anchor="start" x="384" y="-189.2" font-family="Helvetica,sans-Serif" font-size="11.00">text[2147483647]</text>
<polygon fill="none" stroke="black" points="229,-159 229,-181 381,-181 381,-159 229,-159"/>
<text text-anchor="start" x="249" y="-167.2" font-family="Helvetica,sans-Serif" font-size="11.00">threat_status</text>
<polygon fill="none" stroke="black" points="381,-159 381,-181 475,-181 475,-159 381,-159"/>
<text text-anchor="start" x="384" y="-167.2" font-family="Helvetica,sans-Serif" font-size="11.00">text[2147483647]</text>
<polygon fill="#ffffff" stroke="transparent" points="229,-137 229,-159 381,-159 381,-137 229,-137"/>
<polygon fill="none" stroke="black" points="229,-137 229,-159 381,-159 381,-137 229,-137"/>
<image xlink:href="../../images/foreignKeys.png" width="11px" height="12px" preserveAspectRatio="xMinYMin meet" x="234" y="-154"/>
<text text-anchor="start" x="249" y="-145.2" font-family="Helvetica,sans-Serif" font-size="11.00">botanical_country_id</text>
<polygon fill="none" stroke="black" points="381,-137 381,-159 475,-159 475,-137 381,-137"/>
<text text-anchor="start" x="384" y="-145.2" font-family="Helvetica,sans-Serif" font-size="11.00">int8[19]</text>
<polygon fill="#ffffff" stroke="transparent" points="229,-119 229,-137 309,-137 309,-119 229,-119"/>
<polygon fill="none" stroke="black" points="229,-119 229,-137 309,-137 309,-119 229,-119"/>
<text text-anchor="start" x="232" y="-125.2" font-family="Helvetica,sans-Serif" font-size="11.00">&lt; 2</text>
<polygon fill="#ffffff" stroke="transparent" points="309,-119 309,-137 381,-137 381,-119 309,-119"/>
<polygon fill="none" stroke="black" points="309,-119 309,-137 381,-137 381,-119 309,-119"/>
<text text-anchor="start" x="371" y="-125.2" font-family="Helvetica,sans-Serif" font-size="11.00"> &#160;</text>
<polygon fill="#ffffff" stroke="transparent" points="381,-119 381,-137 475,-137 475,-119 381,-119"/>
<polygon fill="none" stroke="black" points="381,-119 381,-137 475,-137 475,-119 381,-119"/>
<text text-anchor="start" x="456" y="-125.2" font-family="Helvetica,sans-Serif" font-size="11.00">0 &gt;</text>
<polygon fill="none" stroke="black" stroke-width="2" points="228,-118 228,-292 476,-292 476,-118 228,-118"/>
</a>
</g>
</g>
<!-- wcvp_distributions&#45;&gt;botanical_countries -->
<g id="edge2" class="edge">
<title>wcvp_distributions:w&#45;&gt;botanical_countries:e</title>
<path fill="none" stroke="black" d="M214.09,-143.82C199.3,-133.2 199.18,-106 175,-106"/>
<polygon fill="black" stroke="black" points="220.34,-145.7 226.96,-151.45 224.17,-146.85 228,-148 228,-148 228,-148 224.17,-146.85 229.04,-144.55 220.34,-145.7 220.34,-145.7"/>
<ellipse fill="none" stroke="black" cx="217.27" cy="-144.78" rx="3.2" ry="3.2"/>
</g>
<!-- wcvp_taxa -->
<g id="node4" class="node">
<title>wcvp_taxa</title>
<g id="a_node4"><a xlink:href="../../tables/wcvp_taxa.html" xlink:title="wcvp_taxa" target="_top">
<polygon fill="#ffffff" stroke="transparent" points="8,-211 8,-291 178,-291 178,-211 8,-211"/>
<polygon fill="#f5f5f5" stroke="transparent" points="8,-269 8,-291 178,-291 178,-269 8,-269"/>
<polygon fill="none" stroke="black" points="8,-269 8,-291 178,-291 178,-269 8,-269"/>
<text text-anchor="start" x="13" y="-278.2" font-family="Helvetica,sans-Serif" font-weight="bold" font-size="11.00">wcvp_taxa</text>
<text text-anchor="start" x="139" y="-277.2" font-family="Helvetica,sans-Serif" font-size="11.00">[table]</text>
<polygon fill="none" stroke="black" points="8,-247 8,-269 178,-269 178,-247 8,-247"/>
<image xlink:href="../../images/primaryKeys.png" width="11px" height="12px" preserveAspectRatio="xMinYMin meet" x="13" y="-264"/>
<text text-anchor="start" x="28" y="-255.2" font-family="Helvetica,sans-Serif" font-size="11.00">taxon_id</text>
<polygon fill="none" stroke="black" points="8,-229 8,-247 178,-247 178,-229 8,-229"/>
<text text-anchor="start" x="11" y="-235.2" font-family="Helvetica,sans-Serif" font-size="11.00">...</text>
<polygon fill="#ffffff" stroke="transparent" points="8,-211 8,-229 82,-229 82,-211 8,-211"/>
<polygon fill="none" stroke="black" points="8,-211 8,-229 82,-229 82,-211 8,-211"/>
<text text-anchor="start" x="11" y="-217.2" font-family="Helvetica,sans-Serif" font-size="11.00"> &#160;</text>
<polygon fill="#ffffff" stroke="transparent" points="82,-211 82,-229 125,-229 125,-211 82,-211"/>
<polygon fill="none" stroke="black" points="82,-211 82,-229 125,-229 125,-211 82,-211"/>
<text text-anchor="start" x="115" y="-217.2" font-family="Helvetica,sans-Serif" font-size="11.00"> &#160;</text>
<polygon fill="#ffffff" stroke="transparent" points="125,-211 125,-229 178,-229 178,-211 125,-211"/>
<polygon fill="none" stroke="black" points="125,-211 125,-229 178,-229 178,-211 125,-211"/>
<text text-anchor="start" x="159" y="-217.2" font-family="Helvetica,sans-Serif" font-size="11.00">1 &gt;</text>
</a>
</g>
</g>
<!-- wcvp_distributions&#45;&gt;wcvp_taxa -->
<g id="edge3" class="edge">
<title>wcvp_distributions:w&#45;&gt;wcvp_taxa:e</title>
<path fill="none" stroke="black" d="M213.49,-258C202.18,-258 194.99,-258 179,-258"/>
<polygon fill="black" stroke="black" points="220,-258 228,-261.6 224,-258 228,-258 228,-258 228,-258 224,-258 228,-254.4 220,-258 220,-258"/>
<ellipse fill="none" stroke="black" cx="216.8" cy="-258" rx="3.2" ry="3.2"/>
</g>
</g>
</svg>
