<?xml version="1.0" encoding="UTF-8" standalone="no"?>
<!DOCTYPE svg PUBLIC "-//W3C//DTD SVG 1.1//EN"
 "http://www.w3.org/Graphics/SVG/1.1/DTD/svg11.dtd">
<!-- Generated by graphviz version 2.38.0 (20140413.2041)
 -->
<!-- Title: twoDegreesRelationshipsDiagram Pages: 1 -->
<svg width="843pt" height="897pt"
 viewBox="0.00 0.00 843.00 897.00" xmlns="http://www.w3.org/2000/svg" xmlns:xlink="http://www.w3.org/1999/xlink">
<g id="graph0" class="graph" transform="scale(1 1) rotate(0) translate(4 893)">
<title>twoDegreesRelationshipsDiagram</title>
<polygon fill="#ffffff" stroke="none" points="-4,4 -4,-893 839,-893 839,4 -4,4"/>
<text text-anchor="middle" x="74.5" y="-7.2" font-family="Helvetica,sans-Serif" font-size="11.00">Generated by SchemaSpy</text>
<!-- accelerator.participant_project_species -->
<g id="node1" class="node"><title>accelerator.participant_project_species</title>
<g id="a_node1"><a xlink:href="../../../accelerator/tables/participant_project_species.html" xlink:title="accelerator.participant_project_species" target="_top">
<polygon fill="#ffffff" stroke="none" points="553,-748 553,-806 827,-806 827,-748 553,-748"/>
<polygon fill="#f5f5f5" stroke="none" points="553,-784 553,-806 827,-806 827,-784 553,-784"/>
<polygon fill="none" stroke="black" points="553,-784 553,-806 827,-806 827,-784 553,-784"/>
<text text-anchor="start" x="558" y="-793.2" font-family="Helvetica,sans-Serif" font-weight="bold" font-size="11.00">accelerator.participant_project_species</text>
<text text-anchor="start" x="788" y="-792.2" font-family="Helvetica,sans-Serif" font-size="11.00">[table]</text>
<polygon fill="none" stroke="black" points="553,-766 553,-784 827,-784 827,-766 553,-766"/>
<text text-anchor="start" x="556" y="-772.2" font-family="Helvetica,sans-Serif" font-size="11.00">...</text>
<polygon fill="#ffffff" stroke="none" points="553,-748 553,-766 674,-766 674,-748 553,-748"/>
<polygon fill="none" stroke="black" points="553,-748 553,-766 674,-766 674,-748 553,-748"/>
<text text-anchor="start" x="556" y="-754.2" font-family="Helvetica,sans-Serif" font-size="11.00">&lt; 1</text>
<polygon fill="#ffffff" stroke="none" points="674,-748 674,-766 765,-766 765,-748 674,-748"/>
<polygon fill="none" stroke="black" points="674,-748 674,-766 765,-766 765,-748 674,-748"/>
<text text-anchor="start" x="726" y="-754.2" font-family="Helvetica,sans-Serif" font-size="11.00">0 rows</text>
<polygon fill="#ffffff" stroke="none" points="765,-748 765,-766 827,-766 827,-748 765,-748"/>
<polygon fill="none" stroke="black" points="765,-748 765,-766 827,-766 827,-748 765,-748"/>
<text text-anchor="start" x="817" y="-754.2" font-family="Helvetica,sans-Serif" font-size="11.00"> &#160;</text>
</a>
</g>
</g>
<!-- species -->
<g id="node2" class="node"><title>species</title>
<g id="a_node2"><a xlink:href="../../tables/species.html" xlink:title="species" target="_top">
<polygon fill="#ffffff" stroke="none" points="324,-363 324,-531 504,-531 504,-363 324,-363"/>
<polygon fill="#f5f5f5" stroke="none" points="324,-509 324,-531 504,-531 504,-509 324,-509"/>
<polygon fill="none" stroke="black" points="324,-509 324,-531 504,-531 504,-509 324,-509"/>
<text text-anchor="start" x="329" y="-518.2" font-family="Helvetica,sans-Serif" font-weight="bold" font-size="11.00">species</text>
<text text-anchor="start" x="465" y="-517.2" font-family="Helvetica,sans-Serif" font-size="11.00">[table]</text>
<polygon fill="none" stroke="black" points="324,-487 324,-509 504,-509 504,-487 324,-487"/>
<image xlink:href="../../images/primaryKeys.png" width="11px" height="12px" preserveAspectRatio="xMinYMin meet" x="329" y="-504"/>
<text text-anchor="start" x="344" y="-495.2" font-family="Helvetica,sans-Serif" font-size="11.00">id</text>
<polygon fill="#ffffff" stroke="none" points="324,-465 324,-487 504,-487 504,-465 324,-465"/>
<polygon fill="none" stroke="black" points="324,-465 324,-487 504,-487 504,-465 324,-465"/>
<image xlink:href="../../images/foreignKeys.png" width="11px" height="12px" preserveAspectRatio="xMinYMin meet" x="329" y="-482"/>
<text text-anchor="start" x="344" y="-473.2" font-family="Helvetica,sans-Serif" font-size="11.00">organization_id</text>
<polygon fill="#ffffff" stroke="none" points="324,-443 324,-465 504,-465 504,-443 324,-443"/>
<polygon fill="none" stroke="black" points="324,-443 324,-465 504,-465 504,-443 324,-443"/>
<text text-anchor="start" x="344" y="-451.2" font-family="Helvetica,sans-Serif" font-size="11.00">scientific_name</text>
<polygon fill="none" stroke="black" points="324,-421 324,-443 504,-443 504,-421 324,-421"/>
<image xlink:href="../../images/foreignKeys.png" width="11px" height="12px" preserveAspectRatio="xMinYMin meet" x="329" y="-438"/>
<text text-anchor="start" x="344" y="-429.2" font-family="Helvetica,sans-Serif" font-size="11.00">seed_storage_behavior_id</text>
<polygon fill="#ffffff" stroke="none" points="324,-399 324,-421 504,-421 504,-399 324,-399"/>
<polygon fill="none" stroke="black" points="324,-399 324,-421 504,-421 504,-399 324,-399"/>
<text text-anchor="start" x="344" y="-407.2" font-family="Helvetica,sans-Serif" font-size="11.00">initial_scientific_name</text>
<polygon fill="none" stroke="black" points="324,-381 324,-399 504,-399 504,-381 324,-381"/>
<text text-anchor="start" x="327" y="-387.2" font-family="Helvetica,sans-Serif" font-size="11.00">...</text>
<polygon fill="#ffffff" stroke="none" points="324,-363 324,-381 389,-381 389,-363 324,-363"/>
<polygon fill="none" stroke="black" points="324,-363 324,-381 389,-381 389,-363 324,-363"/>
<text text-anchor="start" x="327" y="-369.2" font-family="Helvetica,sans-Serif" font-size="11.00">&lt; 2</text>
<polygon fill="#ffffff" stroke="none" points="389,-363 389,-381 452,-381 452,-363 389,-363"/>
<polygon fill="none" stroke="black" points="389,-363 389,-381 452,-381 452,-363 389,-363"/>
<text text-anchor="start" x="413" y="-369.2" font-family="Helvetica,sans-Serif" font-size="11.00">0 rows</text>
<polygon fill="#ffffff" stroke="none" points="452,-363 452,-381 504,-381 504,-363 452,-363"/>
<polygon fill="none" stroke="black" points="452,-363 452,-381 504,-381 504,-363 452,-363"/>
<text text-anchor="start" x="477" y="-369.2" font-family="Helvetica,sans-Serif" font-size="11.00">11 &gt;</text>
</a>
</g>
</g>
<!-- accelerator.participant_project_species&#45;&gt;species -->
<g id="edge1" class="edge"><title>accelerator.participant_project_species:elipses:w&#45;&gt;species:id:e</title>
<path fill="none" stroke="black" d="M538.599,-768.957C502.169,-728.448 561.948,-498 505,-498"/>
<polygon fill="black" stroke="black" points="544.707,-771.711 550.52,-778.282 548.354,-773.356 552,-775 552,-775 552,-775 548.354,-773.356 553.48,-771.718 544.707,-771.711 544.707,-771.711"/>
<ellipse fill="none" stroke="black" cx="541.79" cy="-770.396" rx="3.20001" ry="3.20001"/>
</g>
<!-- organizations -->
<g id="node4" class="node"><title>organizations</title>
<g id="a_node4"><a xlink:href="../../tables/organizations.html" xlink:title="organizations" target="_top">
<polygon fill="#ffffff" stroke="none" points="79,-592 79,-650 204,-650 204,-592 79,-592"/>
<polygon fill="#f5f5f5" stroke="none" points="79.5,-628 79.5,-650 204.5,-650 204.5,-628 79.5,-628"/>
<polygon fill="none" stroke="black" points="79.5,-628 79.5,-650 204.5,-650 204.5,-628 79.5,-628"/>
<text text-anchor="start" x="84.5" y="-637.2" font-family="Helvetica,sans-Serif" font-weight="bold" font-size="11.00">organizations</text>
<text text-anchor="start" x="165.5" y="-636.2" font-family="Helvetica,sans-Serif" font-size="11.00">[table]</text>
<polygon fill="none" stroke="black" points="79.5,-610 79.5,-628 204.5,-628 204.5,-610 79.5,-610"/>
<text text-anchor="start" x="82.5" y="-616.2" font-family="Helvetica,sans-Serif" font-size="11.00">...</text>
<polygon fill="#ffffff" stroke="none" points="79.5,-592 79.5,-610 115.5,-610 115.5,-592 79.5,-592"/>
<polygon fill="none" stroke="black" points="79.5,-592 79.5,-610 115.5,-610 115.5,-592 79.5,-592"/>
<text text-anchor="start" x="82.5" y="-598.2" font-family="Helvetica,sans-Serif" font-size="11.00"> &#160;</text>
<polygon fill="#ffffff" stroke="none" points="115.5,-592 115.5,-610 169.5,-610 169.5,-592 115.5,-592"/>
<polygon fill="none" stroke="black" points="115.5,-592 115.5,-610 169.5,-610 169.5,-592 115.5,-592"/>
<text text-anchor="start" x="130.5" y="-598.2" font-family="Helvetica,sans-Serif" font-size="11.00">0 rows</text>
<polygon fill="#ffffff" stroke="none" points="169.5,-592 169.5,-610 204.5,-610 204.5,-592 169.5,-592"/>
<polygon fill="none" stroke="black" points="169.5,-592 169.5,-610 204.5,-610 204.5,-592 169.5,-592"/>
<text text-anchor="start" x="184.5" y="-598.2" font-family="Helvetica,sans-Serif" font-size="11.00">6 &gt;</text>
</a>
</g>
</g>
<!-- species&#45;&gt;organizations -->
<g id="edge4" class="edge"><title>species:organization_id:w&#45;&gt;organizations:elipses:e</title>
<path fill="none" stroke="black" d="M308.636,-477.706C246.265,-493.84 282.457,-619 205.5,-619"/>
<polygon fill="black" stroke="black" points="315.056,-476.943 323.425,-479.575 319.028,-476.472 323,-476 323,-476 323,-476 319.028,-476.472 322.575,-472.425 315.056,-476.943 315.056,-476.943"/>
<ellipse fill="none" stroke="black" cx="311.878" cy="-477.321" rx="3.2" ry="3.2"/>
</g>
<!-- seed_storage_behaviors -->
<g id="node5" class="node"><title>seed_storage_behaviors</title>
<g id="a_node5"><a xlink:href="../../tables/seed_storage_behaviors.html" xlink:title="seed_storage_behaviors" target="_top">
<polygon fill="#ffffff" stroke="none" points="8,-379 8,-467 275,-467 275,-379 8,-379"/>
<polygon fill="#f5f5f5" stroke="none" points="10.5,-443 10.5,-465 273.5,-465 273.5,-443 10.5,-443"/>
<polygon fill="none" stroke="black" points="10.5,-443 10.5,-465 273.5,-465 273.5,-443 10.5,-443"/>
<text text-anchor="start" x="15.5" y="-452.2" font-family="Helvetica,sans-Serif" font-weight="bold" font-size="11.00">seed_storage_behaviors</text>
<text text-anchor="start" x="234.5" y="-451.2" font-family="Helvetica,sans-Serif" font-size="11.00">[table]</text>
<polygon fill="none" stroke="black" points="10.5,-421 10.5,-443 172.5,-443 172.5,-421 10.5,-421"/>
<image xlink:href="../../images/primaryKeys.png" width="11px" height="12px" preserveAspectRatio="xMinYMin meet" x="15.5" y="-438"/>
<text text-anchor="start" x="30.5" y="-429.2" font-family="Helvetica,sans-Serif" font-size="11.00">id</text>
<polygon fill="none" stroke="black" points="172.5,-421 172.5,-443 273.5,-443 273.5,-421 172.5,-421"/>
<text text-anchor="start" x="175.5" y="-429.2" font-family="Helvetica,sans-Serif" font-size="11.00">int4[10]</text>
<polygon fill="none" stroke="black" points="10.5,-399 10.5,-421 172.5,-421 172.5,-399 10.5,-399"/>
<text text-anchor="start" x="30.5" y="-407.2" font-family="Helvetica,sans-Serif" font-size="11.00">name</text>
<polygon fill="none" stroke="black" points="172.5,-399 172.5,-421 273.5,-421 273.5,-399 172.5,-399"/>
<text text-anchor="start" x="175.5" y="-407.2" font-family="Helvetica,sans-Serif" font-size="11.00">text[2147483647]</text>
<polygon fill="#ffffff" stroke="none" points="10.5,-381 10.5,-399 81.5,-399 81.5,-381 10.5,-381"/>
<polygon fill="none" stroke="black" points="10.5,-381 10.5,-399 81.5,-399 81.5,-381 10.5,-381"/>
<text text-anchor="start" x="13.5" y="-387.2" font-family="Helvetica,sans-Serif" font-size="11.00">&lt; 0</text>
<polygon fill="#ffffff" stroke="none" points="81.5,-381 81.5,-399 172.5,-399 172.5,-381 81.5,-381"/>
<polygon fill="none" stroke="black" points="81.5,-381 81.5,-399 172.5,-399 172.5,-381 81.5,-381"/>
<text text-anchor="start" x="133.5" y="-387.2" font-family="Helvetica,sans-Serif" font-size="11.00">7 rows</text>
<polygon fill="#ffffff" stroke="none" points="172.5,-381 172.5,-399 273.5,-399 273.5,-381 172.5,-381"/>
<polygon fill="none" stroke="black" points="172.5,-381 172.5,-399 273.5,-399 273.5,-381 172.5,-381"/>
<text text-anchor="start" x="253.5" y="-387.2" font-family="Helvetica,sans-Serif" font-size="11.00">1 &gt;</text>
<polygon fill="none" stroke="black" stroke-width="2" points="9,-380 9,-466 274,-466 274,-380 9,-380"/>
</a>
</g>
</g>
<!-- species&#45;&gt;seed_storage_behaviors -->
<g id="edge5" class="edge"><title>species:seed_storage_behavior_id:w&#45;&gt;seed_storage_behaviors:id.type:e</title>
<path fill="none" stroke="black" d="M308.283,-432C297.289,-432 290.161,-432 274.5,-432"/>
<polygon fill="black" stroke="black" points="315,-432 323,-435.6 319,-432 323,-432 323,-432 323,-432 319,-432 323,-428.4 315,-432 315,-432"/>
<ellipse fill="none" stroke="black" cx="311.8" cy="-432" rx="3.2" ry="3.2"/>
</g>
<!-- nursery.batches -->
<g id="node3" class="node"><title>nursery.batches</title>
<g id="a_node3"><a xlink:href="../../../nursery/tables/batches.html" xlink:title="nursery.batches" target="_top">
<polygon fill="#ffffff" stroke="none" points="619.5,-827 619.5,-885 760.5,-885 760.5,-827 619.5,-827"/>
<polygon fill="#f5f5f5" stroke="none" points="620,-863 620,-885 761,-885 761,-863 620,-863"/>
<polygon fill="none" stroke="black" points="620,-863 620,-885 761,-885 761,-863 620,-863"/>
<text text-anchor="start" x="625" y="-872.2" font-family="Helvetica,sans-Serif" font-weight="bold" font-size="11.00">nursery.batches</text>
<text text-anchor="start" x="722" y="-871.2" font-family="Helvetica,sans-Serif" font-size="11.00">[table]</text>
<polygon fill="none" stroke="black" points="620,-845 620,-863 761,-863 761,-845 620,-845"/>
<text text-anchor="start" x="623" y="-851.2" font-family="Helvetica,sans-Serif" font-size="11.00">...</text>
<polygon fill="#ffffff" stroke="none" points="620,-827 620,-845 674,-845 674,-827 620,-827"/>
<polygon fill="none" stroke="black" points="620,-827 620,-845 674,-845 674,-827 620,-827"/>
<text text-anchor="start" x="623" y="-833.2" font-family="Helvetica,sans-Serif" font-size="11.00">&lt; 4</text>
<polygon fill="#ffffff" stroke="none" points="674,-827 674,-845 732,-845 732,-827 674,-827"/>
<polygon fill="none" stroke="black" points="674,-827 674,-845 732,-845 732,-827 674,-827"/>
<text text-anchor="start" x="693" y="-833.2" font-family="Helvetica,sans-Serif" font-size="11.00">0 rows</text>
<polygon fill="#ffffff" stroke="none" points="732,-827 732,-845 761,-845 761,-827 732,-827"/>
<polygon fill="none" stroke="black" points="732,-827 732,-845 761,-845 761,-827 732,-827"/>
<text text-anchor="start" x="751" y="-833.2" font-family="Helvetica,sans-Serif" font-size="11.00"> &#160;</text>
</a>
</g>
</g>
<!-- nursery.batches&#45;&gt;species -->
<g id="edge3" class="edge"><title>nursery.batches:elipses:w&#45;&gt;species:id:e</title>
<path fill="none" stroke="black" d="M604.28,-853.514C577.498,-851.499 563.173,-842.676 545,-817 503.725,-758.685 576.444,-498 505,-498"/>
<polygon fill="black" stroke="black" points="611.004,-853.736 618.881,-857.598 615.002,-853.868 619,-854 619,-854 619,-854 615.002,-853.868 619.119,-850.402 611.004,-853.736 611.004,-853.736"/>
<ellipse fill="none" stroke="black" cx="607.806" cy="-853.63" rx="3.2" ry="3.2"/>
</g>
<!-- nursery.batches&#45;&gt;organizations -->
<g id="edge2" class="edge"><title>nursery.batches:elipses:w&#45;&gt;organizations:elipses:e</title>
<path fill="none" stroke="black" d="M604.495,-853.619C407.93,-843.113 411.929,-619 205.5,-619"/>
<polygon fill="black" stroke="black" points="611.003,-853.79 618.905,-857.599 615.001,-853.895 619,-854 619,-854 619,-854 615.001,-853.895 619.095,-850.401 611.003,-853.79 611.003,-853.79"/>
<ellipse fill="none" stroke="black" cx="607.804" cy="-853.706" rx="3.2" ry="3.2"/>
</g>
<!-- seedbank.accessions -->
<g id="node6" class="node"><title>seedbank.accessions</title>
<g id="a_node6"><a xlink:href="../../../seedbank/tables/accessions.html" xlink:title="seedbank.accessions" target="_top">
<polygon fill="#ffffff" stroke="none" points="607,-669 607,-727 773,-727 773,-669 607,-669"/>
<polygon fill="#f5f5f5" stroke="none" points="607,-705 607,-727 773,-727 773,-705 607,-705"/>
<polygon fill="none" stroke="black" points="607,-705 607,-727 773,-727 773,-705 607,-705"/>
<text text-anchor="start" x="612" y="-714.2" font-family="Helvetica,sans-Serif" font-weight="bold" font-size="11.00">seedbank.accessions</text>
<text text-anchor="start" x="734" y="-713.2" font-family="Helvetica,sans-Serif" font-size="11.00">[table]</text>
<polygon fill="none" stroke="black" points="607,-687 607,-705 773,-705 773,-687 607,-687"/>
<text text-anchor="start" x="610" y="-693.2" font-family="Helvetica,sans-Serif" font-size="11.00">...</text>
<polygon fill="#ffffff" stroke="none" points="607,-669 607,-687 674,-687 674,-669 607,-669"/>
<polygon fill="none" stroke="black" points="607,-669 607,-687 674,-687 674,-669 607,-669"/>
<text text-anchor="start" x="610" y="-675.2" font-family="Helvetica,sans-Serif" font-size="11.00">&lt; 3</text>
<polygon fill="#ffffff" stroke="none" points="674,-669 674,-687 738,-687 738,-669 674,-669"/>
<polygon fill="none" stroke="black" points="674,-669 674,-687 738,-687 738,-669 674,-669"/>
<text text-anchor="start" x="699" y="-675.2" font-family="Helvetica,sans-Serif" font-size="11.00">0 rows</text>
<polygon fill="#ffffff" stroke="none" points="738,-669 738,-687 773,-687 773,-669 738,-669"/>
<polygon fill="none" stroke="black" points="738,-669 738,-687 773,-687 773,-669 738,-669"/>
<text text-anchor="start" x="763" y="-675.2" font-family="Helvetica,sans-Serif" font-size="11.00"> &#160;</text>
</a>
</g>
</g>
<!-- seedbank.accessions&#45;&gt;species -->
<g id="edge6" class="edge"><title>seedbank.accessions:elipses:w&#45;&gt;species:id:e</title>
<path fill="none" stroke="black" d="M591.38,-694.971C570.439,-691.644 560.566,-680.147 545,-659 501.292,-599.621 578.731,-498 505,-498"/>
<polygon fill="black" stroke="black" points="598.02,-695.438 605.747,-699.591 602.01,-695.719 606,-696 606,-696 606,-696 602.01,-695.719 606.253,-692.409 598.02,-695.438 598.02,-695.438"/>
<ellipse fill="none" stroke="black" cx="594.828" cy="-695.213" rx="3.2" ry="3.2"/>
</g>
<!-- tracking.observed_plot_species_totals -->
<g id="node7" class="node"><title>tracking.observed_plot_species_totals</title>
<g id="a_node7"><a xlink:href="../../../tracking/tables/observed_plot_species_totals.html" xlink:title="tracking.observed_plot_species_totals" target="_top">
<polygon fill="#ffffff" stroke="none" points="559,-590 559,-648 821,-648 821,-590 559,-590"/>
<polygon fill="#f5f5f5" stroke="none" points="559,-626 559,-648 821,-648 821,-626 559,-626"/>
<polygon fill="none" stroke="black" points="559,-626 559,-648 821,-648 821,-626 559,-626"/>
<text text-anchor="start" x="564" y="-635.2" font-family="Helvetica,sans-Serif" font-weight="bold" font-size="11.00">tracking.observed_plot_species_totals</text>
<text text-anchor="start" x="782" y="-634.2" font-family="Helvetica,sans-Serif" font-size="11.00">[table]</text>
<polygon fill="none" stroke="black" points="559,-608 559,-626 821,-626 821,-608 559,-608"/>
<text text-anchor="start" x="562" y="-614.2" font-family="Helvetica,sans-Serif" font-size="11.00">...</text>
<polygon fill="#ffffff" stroke="none" points="559,-590 559,-608 674,-608 674,-590 559,-590"/>
<polygon fill="none" stroke="black" points="559,-590 559,-608 674,-608 674,-590 559,-590"/>
<text text-anchor="start" x="562" y="-596.2" font-family="Helvetica,sans-Serif" font-size="11.00">&lt; 1</text>
<polygon fill="#ffffff" stroke="none" points="674,-590 674,-608 762,-608 762,-590 674,-590"/>
<polygon fill="none" stroke="black" points="674,-590 674,-608 762,-608 762,-590 674,-590"/>
<text text-anchor="start" x="723" y="-596.2" font-family="Helvetica,sans-Serif" font-size="11.00">0 rows</text>
<polygon fill="#ffffff" stroke="none" points="762,-590 762,-608 821,-608 821,-590 762,-590"/>
<polygon fill="none" stroke="black" points="762,-590 762,-608 821,-608 821,-590 762,-590"/>
<text text-anchor="start" x="811" y="-596.2" font-family="Helvetica,sans-Serif" font-size="11.00"> &#160;</text>
</a>
</g>
</g>
<!-- tracking.observed_plot_species_totals&#45;&gt;species -->
<g id="edge7" class="edge"><title>tracking.observed_plot_species_totals:elipses:w&#45;&gt;species:id:e</title>
<path fill="none" stroke="black" d="M543.841,-613.567C511.613,-594.056 557.017,-498 505,-498"/>
<polygon fill="black" stroke="black" points="550.225,-615.115 557.152,-620.499 554.113,-616.057 558,-617 558,-617 558,-617 554.113,-616.057 558.848,-613.501 550.225,-615.115 550.225,-615.115"/>
<ellipse fill="none" stroke="black" cx="547.115" cy="-614.361" rx="3.2" ry="3.2"/>
</g>
<!-- tracking.observed_site_species_totals -->
<g id="node8" class="node"><title>tracking.observed_site_species_totals</title>
<g id="a_node8"><a xlink:href="../../../tracking/tables/observed_site_species_totals.html" xlink:title="tracking.observed_site_species_totals" target="_top">
<polygon fill="#ffffff" stroke="none" points="560,-511 560,-569 820,-569 820,-511 560,-511"/>
<polygon fill="#f5f5f5" stroke="none" points="560,-547 560,-569 820,-569 820,-547 560,-547"/>
<polygon fill="none" stroke="black" points="560,-547 560,-569 820,-569 820,-547 560,-547"/>
<text text-anchor="start" x="565" y="-556.2" font-family="Helvetica,sans-Serif" font-weight="bold" font-size="11.00">tracking.observed_site_species_totals</text>
<text text-anchor="start" x="781" y="-555.2" font-family="Helvetica,sans-Serif" font-size="11.00">[table]</text>
<polygon fill="none" stroke="black" points="560,-529 560,-547 820,-547 820,-529 560,-529"/>
<text text-anchor="start" x="563" y="-535.2" font-family="Helvetica,sans-Serif" font-size="11.00">...</text>
<polygon fill="#ffffff" stroke="none" points="560,-511 560,-529 674,-529 674,-511 560,-511"/>
<polygon fill="none" stroke="black" points="560,-511 560,-529 674,-529 674,-511 560,-511"/>
<text text-anchor="start" x="563" y="-517.2" font-family="Helvetica,sans-Serif" font-size="11.00">&lt; 1</text>
<polygon fill="#ffffff" stroke="none" points="674,-511 674,-529 761,-529 761,-511 674,-511"/>
<polygon fill="none" stroke="black" points="674,-511 674,-529 761,-529 761,-511 674,-511"/>
<text text-anchor="start" x="722" y="-517.2" font-family="Helvetica,sans-Serif" font-size="11.00">0 rows</text>
<polygon fill="#ffffff" stroke="none" points="761,-511 761,-529 820,-529 820,-511 761,-511"/>
<polygon fill="none" stroke="black" points="761,-511 761,-529 820,-529 820,-511 761,-511"/>
<text text-anchor="start" x="810" y="-517.2" font-family="Helvetica,sans-Serif" font-size="11.00"> &#160;</text>
</a>
</g>
</g>
<!-- tracking.observed_site_species_totals&#45;&gt;species -->
<g id="edge8" class="edge"><title>tracking.observed_site_species_totals:elipses:w&#45;&gt;species:id:e</title>
<path fill="none" stroke="black" d="M545.043,-534.018C530.015,-523.901 529.034,-498 505,-498"/>
<polygon fill="black" stroke="black" points="551.307,-535.805 558.012,-541.462 555.153,-536.903 559,-538 559,-538 559,-538 555.153,-536.903 559.988,-534.538 551.307,-535.805 551.307,-535.805"/>
<ellipse fill="none" stroke="black" cx="548.23" cy="-534.927" rx="3.20001" ry="3.20001"/>
</g>
<!-- tracking.observed_zone_species_totals -->
<g id="node9" class="node"><title>tracking.observed_zone_species_totals</title>
<g id="a_node9"><a xlink:href="../../../tracking/tables/observed_zone_species_totals.html" xlink:title="tracking.observed_zone_species_totals" target="_top">
<polygon fill="#ffffff" stroke="none" points="557.5,-432 557.5,-490 822.5,-490 822.5,-432 557.5,-432"/>
<polygon fill="#f5f5f5" stroke="none" points="558,-468 558,-490 823,-490 823,-468 558,-468"/>
<polygon fill="none" stroke="black" points="558,-468 558,-490 823,-490 823,-468 558,-468"/>
<text text-anchor="start" x="563" y="-477.2" font-family="Helvetica,sans-Serif" font-weight="bold" font-size="11.00">tracking.observed_zone_species_totals</text>
<text text-anchor="start" x="784" y="-476.2" font-family="Helvetica,sans-Serif" font-size="11.00">[table]</text>
<polygon fill="none" stroke="black" points="558,-450 558,-468 823,-468 823,-450 558,-450"/>
<text text-anchor="start" x="561" y="-456.2" font-family="Helvetica,sans-Serif" font-size="11.00">...</text>
<polygon fill="#ffffff" stroke="none" points="558,-432 558,-450 674,-450 674,-432 558,-432"/>
<polygon fill="none" stroke="black" points="558,-432 558,-450 674,-450 674,-432 558,-432"/>
<text text-anchor="start" x="561" y="-438.2" font-family="Helvetica,sans-Serif" font-size="11.00">&lt; 1</text>
<polygon fill="#ffffff" stroke="none" points="674,-432 674,-450 763,-450 763,-432 674,-432"/>
<polygon fill="none" stroke="black" points="674,-432 674,-450 763,-450 763,-432 674,-432"/>
<text text-anchor="start" x="724" y="-438.2" font-family="Helvetica,sans-Serif" font-size="11.00">0 rows</text>
<polygon fill="#ffffff" stroke="none" points="763,-432 763,-450 823,-450 823,-432 763,-432"/>
<polygon fill="none" stroke="black" points="763,-432 763,-450 823,-450 823,-432 763,-432"/>
<text text-anchor="start" x="813" y="-438.2" font-family="Helvetica,sans-Serif" font-size="11.00"> &#160;</text>
</a>
</g>
</g>
<!-- tracking.observed_zone_species_totals&#45;&gt;species -->
<g id="edge9" class="edge"><title>tracking.observed_zone_species_totals:elipses:w&#45;&gt;species:id:e</title>
<path fill="none" stroke="black" d="M543.106,-463.174C529.028,-473.235 528.021,-498 505,-498"/>
<polygon fill="black" stroke="black" points="549.338,-461.302 558.036,-462.448 553.169,-460.151 557,-459 557,-459 557,-459 553.169,-460.151 555.964,-455.552 549.338,-461.302 549.338,-461.302"/>
<ellipse fill="none" stroke="black" cx="546.273" cy="-462.222" rx="3.20001" ry="3.20001"/>
</g>
<!-- tracking.planting_site_populations -->
<g id="node10" class="node"><title>tracking.planting_site_populations</title>
<g id="a_node10"><a xlink:href="../../../tracking/tables/planting_site_populations.html" xlink:title="tracking.planting_site_populations" target="_top">
<polygon fill="#ffffff" stroke="none" points="567.5,-353 567.5,-411 812.5,-411 812.5,-353 567.5,-353"/>
<polygon fill="#f5f5f5" stroke="none" points="568,-389 568,-411 813,-411 813,-389 568,-389"/>
<polygon fill="none" stroke="black" points="568,-389 568,-411 813,-411 813,-389 568,-389"/>
<text text-anchor="start" x="573" y="-398.2" font-family="Helvetica,sans-Serif" font-weight="bold" font-size="11.00">tracking.planting_site_populations</text>
<text text-anchor="start" x="774" y="-397.2" font-family="Helvetica,sans-Serif" font-size="11.00">[table]</text>
<polygon fill="none" stroke="black" points="568,-371 568,-389 813,-389 813,-371 568,-371"/>
<text text-anchor="start" x="571" y="-377.2" font-family="Helvetica,sans-Serif" font-size="11.00">...</text>
<polygon fill="#ffffff" stroke="none" points="568,-353 568,-371 674,-371 674,-353 568,-353"/>
<polygon fill="none" stroke="black" points="568,-353 568,-371 674,-371 674,-353 568,-353"/>
<text text-anchor="start" x="571" y="-359.2" font-family="Helvetica,sans-Serif" font-size="11.00">&lt; 1</text>
<polygon fill="#ffffff" stroke="none" points="674,-353 674,-371 758,-371 758,-353 674,-353"/>
<polygon fill="none" stroke="black" points="674,-353 674,-371 758,-371 758,-353 674,-353"/>
<text text-anchor="start" x="719" y="-359.2" font-family="Helvetica,sans-Serif" font-size="11.00">0 rows</text>
<polygon fill="#ffffff" stroke="none" points="758,-353 758,-371 813,-371 813,-353 758,-353"/>
<polygon fill="none" stroke="black" points="758,-353 758,-371 813,-371 813,-353 758,-353"/>
<text text-anchor="start" x="803" y="-359.2" font-family="Helvetica,sans-Serif" font-size="11.00"> &#160;</text>
</a>
</g>
</g>
<!-- tracking.planting_site_populations&#45;&gt;species -->
<g id="edge10" class="edge"><title>tracking.planting_site_populations:elipses:w&#45;&gt;species:id:e</title>
<path fill="none" stroke="black" d="M552.739,-383.156C517.686,-401.922 558.458,-498 505,-498"/>
<polygon fill="black" stroke="black" points="559.189,-381.729 567.778,-383.515 563.095,-380.864 567,-380 567,-380 567,-380 563.095,-380.864 566.222,-376.485 559.189,-381.729 559.189,-381.729"/>
<ellipse fill="none" stroke="black" cx="556.065" cy="-382.42" rx="3.2" ry="3.2"/>
</g>
<!-- tracking.planting_subzone_populations -->
<g id="node11" class="node"><title>tracking.planting_subzone_populations</title>
<g id="a_node11"><a xlink:href="../../../tracking/tables/planting_subzone_populations.html" xlink:title="tracking.planting_subzone_populations" target="_top">
<polygon fill="#ffffff" stroke="none" points="554.5,-274 554.5,-332 825.5,-332 825.5,-274 554.5,-274"/>
<polygon fill="#f5f5f5" stroke="none" points="555,-310 555,-332 826,-332 826,-310 555,-310"/>
<polygon fill="none" stroke="black" points="555,-310 555,-332 826,-332 826,-310 555,-310"/>
<text text-anchor="start" x="560" y="-319.2" font-family="Helvetica,sans-Serif" font-weight="bold" font-size="11.00">tracking.planting_subzone_populations</text>
<text text-anchor="start" x="787" y="-318.2" font-family="Helvetica,sans-Serif" font-size="11.00">[table]</text>
<polygon fill="none" stroke="black" points="555,-292 555,-310 826,-310 826,-292 555,-292"/>
<text text-anchor="start" x="558" y="-298.2" font-family="Helvetica,sans-Serif" font-size="11.00">...</text>
<polygon fill="#ffffff" stroke="none" points="555,-274 555,-292 674,-292 674,-274 555,-274"/>
<polygon fill="none" stroke="black" points="555,-274 555,-292 674,-292 674,-274 555,-274"/>
<text text-anchor="start" x="558" y="-280.2" font-family="Helvetica,sans-Serif" font-size="11.00">&lt; 1</text>
<polygon fill="#ffffff" stroke="none" points="674,-274 674,-292 764,-292 764,-274 674,-274"/>
<polygon fill="none" stroke="black" points="674,-274 674,-292 764,-292 764,-274 674,-274"/>
<text text-anchor="start" x="725" y="-280.2" font-family="Helvetica,sans-Serif" font-size="11.00">0 rows</text>
<polygon fill="#ffffff" stroke="none" points="764,-274 764,-292 826,-292 826,-274 764,-274"/>
<polygon fill="none" stroke="black" points="764,-274 764,-292 826,-292 826,-274 764,-274"/>
<text text-anchor="start" x="816" y="-280.2" font-family="Helvetica,sans-Serif" font-size="11.00"> &#160;</text>
</a>
</g>
</g>
<!-- tracking.planting_subzone_populations&#45;&gt;species -->
<g id="edge11" class="edge"><title>tracking.planting_subzone_populations:elipses:w&#45;&gt;species:id:e</title>
<path fill="none" stroke="black" d="M539.573,-303.212C479.342,-324.855 589.584,-498 505,-498"/>
<polygon fill="black" stroke="black" points="546.092,-302.213 554.546,-304.558 550.046,-301.606 554,-301 554,-301 554,-301 550.046,-301.606 553.454,-297.442 546.092,-302.213 546.092,-302.213"/>
<ellipse fill="none" stroke="black" cx="542.929" cy="-302.698" rx="3.2" ry="3.2"/>
</g>
<!-- tracking.planting_zone_populations -->
<g id="node12" class="node"><title>tracking.planting_zone_populations</title>
<g id="a_node12"><a xlink:href="../../../tracking/tables/planting_zone_populations.html" xlink:title="tracking.planting_zone_populations" target="_top">
<polygon fill="#ffffff" stroke="none" points="565,-195 565,-253 815,-253 815,-195 565,-195"/>
<polygon fill="#f5f5f5" stroke="none" points="565,-231 565,-253 815,-253 815,-231 565,-231"/>
<polygon fill="none" stroke="black" points="565,-231 565,-253 815,-253 815,-231 565,-231"/>
<text text-anchor="start" x="570" y="-240.2" font-family="Helvetica,sans-Serif" font-weight="bold" font-size="11.00">tracking.planting_zone_populations</text>
<text text-anchor="start" x="776" y="-239.2" font-family="Helvetica,sans-Serif" font-size="11.00">[table]</text>
<polygon fill="none" stroke="black" points="565,-213 565,-231 815,-231 815,-213 565,-213"/>
<text text-anchor="start" x="568" y="-219.2" font-family="Helvetica,sans-Serif" font-size="11.00">...</text>
<polygon fill="#ffffff" stroke="none" points="565,-195 565,-213 674,-213 674,-195 565,-195"/>
<polygon fill="none" stroke="black" points="565,-195 565,-213 674,-213 674,-195 565,-195"/>
<text text-anchor="start" x="568" y="-201.2" font-family="Helvetica,sans-Serif" font-size="11.00">&lt; 1</text>
<polygon fill="#ffffff" stroke="none" points="674,-195 674,-213 759,-213 759,-195 674,-195"/>
<polygon fill="none" stroke="black" points="674,-195 674,-213 759,-213 759,-195 674,-195"/>
<text text-anchor="start" x="720" y="-201.2" font-family="Helvetica,sans-Serif" font-size="11.00">0 rows</text>
<polygon fill="#ffffff" stroke="none" points="759,-195 759,-213 815,-213 815,-195 759,-195"/>
<polygon fill="none" stroke="black" points="759,-195 759,-213 815,-213 815,-195 759,-195"/>
<text text-anchor="start" x="805" y="-201.2" font-family="Helvetica,sans-Serif" font-size="11.00"> &#160;</text>
</a>
</g>
</g>
<!-- tracking.planting_zone_populations&#45;&gt;species -->
<g id="edge12" class="edge"><title>tracking.planting_zone_populations:elipses:w&#45;&gt;species:id:e</title>
<path fill="none" stroke="black" d="M550.528,-227.765C511.746,-267.399 562.329,-498 505,-498"/>
<polygon fill="black" stroke="black" points="556.645,-225.147 565.416,-225.31 560.323,-223.574 564,-222 564,-222 564,-222 560.323,-223.574 562.584,-218.69 556.645,-225.147 556.645,-225.147"/>
<ellipse fill="none" stroke="black" cx="553.703" cy="-226.406" rx="3.20001" ry="3.20001"/>
</g>
<!-- tracking.plantings -->
<g id="node13" class="node"><title>tracking.plantings</title>
<g id="a_node13"><a xlink:href="../../../tracking/tables/plantings.html" xlink:title="tracking.plantings" target="_top">
<polygon fill="#ffffff" stroke="none" points="614,-116 614,-174 766,-174 766,-116 614,-116"/>
<polygon fill="#f5f5f5" stroke="none" points="614,-152 614,-174 766,-174 766,-152 614,-152"/>
<polygon fill="none" stroke="black" points="614,-152 614,-174 766,-174 766,-152 614,-152"/>
<text text-anchor="start" x="619" y="-161.2" font-family="Helvetica,sans-Serif" font-weight="bold" font-size="11.00">tracking.plantings</text>
<text text-anchor="start" x="727" y="-160.2" font-family="Helvetica,sans-Serif" font-size="11.00">[table]</text>
<polygon fill="none" stroke="black" points="614,-134 614,-152 766,-152 766,-134 614,-134"/>
<text text-anchor="start" x="617" y="-140.2" font-family="Helvetica,sans-Serif" font-size="11.00">...</text>
<polygon fill="#ffffff" stroke="none" points="614,-116 614,-134 674,-134 674,-116 614,-116"/>
<polygon fill="none" stroke="black" points="614,-116 614,-134 674,-134 674,-116 614,-116"/>
<text text-anchor="start" x="617" y="-122.2" font-family="Helvetica,sans-Serif" font-size="11.00">&lt; 1</text>
<polygon fill="#ffffff" stroke="none" points="674,-116 674,-134 734,-134 734,-116 674,-116"/>
<polygon fill="none" stroke="black" points="674,-116 674,-134 734,-134 734,-116 674,-116"/>
<text text-anchor="start" x="695" y="-122.2" font-family="Helvetica,sans-Serif" font-size="11.00">0 rows</text>
<polygon fill="#ffffff" stroke="none" points="734,-116 734,-134 766,-134 766,-116 734,-116"/>
<polygon fill="none" stroke="black" points="734,-116 734,-134 766,-134 766,-116 734,-116"/>
<text text-anchor="start" x="756" y="-122.2" font-family="Helvetica,sans-Serif" font-size="11.00"> &#160;</text>
</a>
</g>
</g>
<!-- tracking.plantings&#45;&gt;species -->
<g id="edge13" class="edge"><title>tracking.plantings:elipses:w&#45;&gt;species:id:e</title>
<path fill="none" stroke="black" d="M598.562,-143.821C573.415,-146.994 561.382,-159.571 545,-185 507.024,-243.948 575.121,-498 505,-498"/>
<polygon fill="black" stroke="black" points="605.013,-143.454 613.204,-146.594 609.006,-143.227 613,-143 613,-143 613,-143 609.006,-143.227 612.796,-139.406 605.013,-143.454 605.013,-143.454"/>
<ellipse fill="none" stroke="black" cx="601.818" cy="-143.636" rx="3.2" ry="3.2"/>
</g>
<!-- tracking.recorded_plants -->
<g id="node14" class="node"><title>tracking.recorded_plants</title>
<g id="a_node14"><a xlink:href="../../../tracking/tables/recorded_plants.html" xlink:title="tracking.recorded_plants" target="_top">
<polygon fill="#ffffff" stroke="none" points="594.5,-37 594.5,-95 785.5,-95 785.5,-37 594.5,-37"/>
<polygon fill="#f5f5f5" stroke="none" points="595,-73 595,-95 786,-95 786,-73 595,-73"/>
<polygon fill="none" stroke="black" points="595,-73 595,-95 786,-95 786,-73 595,-73"/>
<text text-anchor="start" x="600" y="-82.2" font-family="Helvetica,sans-Serif" font-weight="bold" font-size="11.00">tracking.recorded_plants</text>
<text text-anchor="start" x="747" y="-81.2" font-family="Helvetica,sans-Serif" font-size="11.00">[table]</text>
<polygon fill="none" stroke="black" points="595,-55 595,-73 786,-73 786,-55 595,-55"/>
<text text-anchor="start" x="598" y="-61.2" font-family="Helvetica,sans-Serif" font-size="11.00">...</text>
<polygon fill="#ffffff" stroke="none" points="595,-37 595,-55 674,-55 674,-37 595,-37"/>
<polygon fill="none" stroke="black" points="595,-37 595,-55 674,-55 674,-37 595,-37"/>
<text text-anchor="start" x="598" y="-43.2" font-family="Helvetica,sans-Serif" font-size="11.00">&lt; 1</text>
<polygon fill="#ffffff" stroke="none" points="674,-37 674,-55 744,-55 744,-37 674,-37"/>
<polygon fill="none" stroke="black" points="674,-37 674,-55 744,-55 744,-37 674,-37"/>
<text text-anchor="start" x="705" y="-43.2" font-family="Helvetica,sans-Serif" font-size="11.00">0 rows</text>
<polygon fill="#ffffff" stroke="none" points="744,-37 744,-55 786,-55 786,-37 744,-37"/>
<polygon fill="none" stroke="black" points="744,-37 744,-55 786,-55 786,-37 744,-37"/>
<text text-anchor="start" x="776" y="-43.2" font-family="Helvetica,sans-Serif" font-size="11.00"> &#160;</text>
</a>
</g>
</g>
<!-- tracking.recorded_plants&#45;&gt;species -->
<g id="edge14" class="edge"><title>tracking.recorded_plants:elipses:w&#45;&gt;species:id:e</title>
<path fill="none" stroke="black" d="M579.574,-65.7711C562.525,-70.5667 555.708,-84.8147 545,-105 524.431,-143.774 548.892,-498 505,-498"/>
<polygon fill="black" stroke="black" points="586.06,-64.9749 594.439,-67.5732 590.03,-64.4875 594,-64 594,-64 594,-64 590.03,-64.4875 593.561,-60.4268 586.06,-64.9749 586.06,-64.9749"/>
<ellipse fill="none" stroke="black" cx="582.883" cy="-65.3649" rx="3.2" ry="3.2"/>
</g>
</g>
</svg>
