<?xml version="1.0" encoding="UTF-8" standalone="no"?>
<!DOCTYPE svg PUBLIC "-//W3C//DTD SVG 1.1//EN"
 "http://www.w3.org/Graphics/SVG/1.1/DTD/svg11.dtd">
<!-- Generated by graphviz version 2.38.0 (20140413.2041)
 -->
<!-- Title: oneDegreeRelationshipsDiagram Pages: 1 -->
<svg width="739pt" height="491pt"
 viewBox="0.00 0.00 739.00 491.00" xmlns="http://www.w3.org/2000/svg" xmlns:xlink="http://www.w3.org/1999/xlink">
<g id="graph0" class="graph" transform="scale(1 1) rotate(0) translate(4 487)">
<title>oneDegreeRelationshipsDiagram</title>
<polygon fill="#ffffff" stroke="none" points="-4,4 -4,-487 735,-487 735,4 -4,4"/>
<text text-anchor="middle" x="74.5" y="-7.2" font-family="Helvetica,sans-Serif" font-size="11.00">Generated by SchemaSpy</text>
<!-- accessions -->
<g id="node1" class="node"><title>accessions</title>
<g id="a_node1"><a xlink:href="../../tables/accessions.html" xlink:title="accessions" target="_top">
<polygon fill="#ffffff" stroke="none" points="492,-37 492,-469 723,-469 723,-37 492,-37"/>
<polygon fill="#f5f5f5" stroke="none" points="492.5,-447 492.5,-469 723.5,-469 723.5,-447 492.5,-447"/>
<polygon fill="none" stroke="black" points="492.5,-447 492.5,-469 723.5,-469 723.5,-447 492.5,-447"/>
<text text-anchor="start" x="497.5" y="-456.2" font-family="Helvetica,sans-Serif" font-weight="bold" font-size="11.00">accessions</text>
<text text-anchor="start" x="684.5" y="-455.2" font-family="Helvetica,sans-Serif" font-size="11.00">[table]</text>
<polygon fill="none" stroke="black" points="492.5,-425 492.5,-447 723.5,-447 723.5,-425 492.5,-425"/>
<image xlink:href="../../images/primaryKeys.png" width="11px" height="12px" preserveAspectRatio="xMinYMin meet" x="497.5" y="-442"/>
<text text-anchor="start" x="512.5" y="-433.2" font-family="Helvetica,sans-Serif" font-size="11.00">id</text>
<polygon fill="#ffffff" stroke="none" points="492.5,-403 492.5,-425 723.5,-425 723.5,-403 492.5,-403"/>
<polygon fill="none" stroke="black" points="492.5,-403 492.5,-425 723.5,-425 723.5,-403 492.5,-403"/>
<image xlink:href="../../images/foreignKeys.png" width="11px" height="12px" preserveAspectRatio="xMinYMin meet" x="497.5" y="-420"/>
<text text-anchor="start" x="512.5" y="-411.2" font-family="Helvetica,sans-Serif" font-size="11.00">facility_id</text>
<polygon fill="#ffffff" stroke="none" points="492.5,-381 492.5,-403 723.5,-403 723.5,-381 492.5,-381"/>
<polygon fill="none" stroke="black" points="492.5,-381 492.5,-403 723.5,-403 723.5,-381 492.5,-381"/>
<text text-anchor="start" x="512.5" y="-389.2" font-family="Helvetica,sans-Serif" font-size="11.00">number</text>
<polygon fill="#ffffff" stroke="none" points="492.5,-359 492.5,-381 723.5,-381 723.5,-359 492.5,-359"/>
<polygon fill="none" stroke="black" points="492.5,-359 492.5,-381 723.5,-381 723.5,-359 492.5,-359"/>
<text text-anchor="start" x="512.5" y="-367.2" font-family="Helvetica,sans-Serif" font-size="11.00">received_date</text>
<polygon fill="none" stroke="black" points="492.5,-337 492.5,-359 723.5,-359 723.5,-337 492.5,-337"/>
<image xlink:href="../../images/foreignKeys.png" width="11px" height="12px" preserveAspectRatio="xMinYMin meet" x="497.5" y="-354"/>
<text text-anchor="start" x="512.5" y="-345.2" font-family="Helvetica,sans-Serif" font-size="11.00">state_id</text>
<polygon fill="none" stroke="black" points="492.5,-315 492.5,-337 723.5,-337 723.5,-315 492.5,-315"/>
<image xlink:href="../../images/foreignKeys.png" width="11px" height="12px" preserveAspectRatio="xMinYMin meet" x="497.5" y="-332"/>
<text text-anchor="start" x="512.5" y="-323.2" font-family="Helvetica,sans-Serif" font-size="11.00">storage_location_id</text>
<polygon fill="#ffffff" stroke="none" points="492.5,-293 492.5,-315 723.5,-315 723.5,-293 492.5,-293"/>
<polygon fill="none" stroke="black" points="492.5,-293 492.5,-315 723.5,-315 723.5,-293 492.5,-293"/>
<text text-anchor="start" x="512.5" y="-301.2" font-family="Helvetica,sans-Serif" font-size="11.00">created_time</text>
<polygon fill="none" stroke="black" points="492.5,-271 492.5,-293 723.5,-293 723.5,-271 492.5,-271"/>
<image xlink:href="../../images/foreignKeys.png" width="11px" height="12px" preserveAspectRatio="xMinYMin meet" x="497.5" y="-288"/>
<text text-anchor="start" x="512.5" y="-279.2" font-family="Helvetica,sans-Serif" font-size="11.00">remaining_units_id</text>
<polygon fill="none" stroke="black" points="492.5,-249 492.5,-271 723.5,-271 723.5,-249 492.5,-249"/>
<image xlink:href="../../images/foreignKeys.png" width="11px" height="12px" preserveAspectRatio="xMinYMin meet" x="497.5" y="-266"/>
<text text-anchor="start" x="512.5" y="-257.2" font-family="Helvetica,sans-Serif" font-size="11.00">subset_weight_units_id</text>
<polygon fill="none" stroke="black" points="492.5,-227 492.5,-249 723.5,-249 723.5,-227 492.5,-227"/>
<image xlink:href="../../images/foreignKeys.png" width="11px" height="12px" preserveAspectRatio="xMinYMin meet" x="497.5" y="-244"/>
<text text-anchor="start" x="512.5" y="-235.2" font-family="Helvetica,sans-Serif" font-size="11.00">created_by</text>
<polygon fill="none" stroke="black" points="492.5,-205 492.5,-227 723.5,-227 723.5,-205 492.5,-205"/>
<image xlink:href="../../images/foreignKeys.png" width="11px" height="12px" preserveAspectRatio="xMinYMin meet" x="497.5" y="-222"/>
<text text-anchor="start" x="512.5" y="-213.2" font-family="Helvetica,sans-Serif" font-size="11.00">modified_by</text>
<polygon fill="none" stroke="black" points="492.5,-183 492.5,-205 723.5,-205 723.5,-183 492.5,-183"/>
<image xlink:href="../../images/foreignKeys.png" width="11px" height="12px" preserveAspectRatio="xMinYMin meet" x="497.5" y="-200"/>
<text text-anchor="start" x="512.5" y="-191.2" font-family="Helvetica,sans-Serif" font-size="11.00">species_id</text>
<polygon fill="none" stroke="black" points="492.5,-161 492.5,-183 723.5,-183 723.5,-161 492.5,-161"/>
<image xlink:href="../../images/foreignKeys.png" width="11px" height="12px" preserveAspectRatio="xMinYMin meet" x="497.5" y="-178"/>
<text text-anchor="start" x="512.5" y="-169.2" font-family="Helvetica,sans-Serif" font-size="11.00">collection_site_country_code</text>
<polygon fill="none" stroke="black" points="492.5,-139 492.5,-161 723.5,-161 723.5,-139 492.5,-139"/>
<image xlink:href="../../images/foreignKeys.png" width="11px" height="12px" preserveAspectRatio="xMinYMin meet" x="497.5" y="-156"/>
<text text-anchor="start" x="512.5" y="-147.2" font-family="Helvetica,sans-Serif" font-size="11.00">collection_source_id</text>
<polygon fill="none" stroke="black" points="492.5,-117 492.5,-139 723.5,-139 723.5,-117 492.5,-117"/>
<image xlink:href="../../images/foreignKeys.png" width="11px" height="12px" preserveAspectRatio="xMinYMin meet" x="497.5" y="-134"/>
<text text-anchor="start" x="512.5" y="-125.2" font-family="Helvetica,sans-Serif" font-size="11.00">data_source_id</text>
<polygon fill="none" stroke="black" points="492.5,-95 492.5,-117 723.5,-117 723.5,-95 492.5,-95"/>
<image xlink:href="../../images/foreignKeys.png" width="11px" height="12px" preserveAspectRatio="xMinYMin meet" x="497.5" y="-112"/>
<text text-anchor="start" x="512.5" y="-103.2" font-family="Helvetica,sans-Serif" font-size="11.00">latest_observed_units_id</text>
<polygon fill="none" stroke="black" points="492.5,-73 492.5,-95 723.5,-95 723.5,-73 492.5,-73"/>
<image xlink:href="../../images/foreignKeys.png" width="11px" height="12px" preserveAspectRatio="xMinYMin meet" x="497.5" y="-90"/>
<text text-anchor="start" x="512.5" y="-81.2" font-family="Helvetica,sans-Serif" font-size="11.00">est_weight_units_id</text>
<polygon fill="none" stroke="black" points="492.5,-55 492.5,-73 723.5,-73 723.5,-55 492.5,-55"/>
<text text-anchor="start" x="495.5" y="-61.2" font-family="Helvetica,sans-Serif" font-size="11.00">...</text>
<polygon fill="#ffffff" stroke="none" points="492.5,-37 492.5,-55 590.5,-55 590.5,-37 492.5,-37"/>
<polygon fill="none" stroke="black" points="492.5,-37 492.5,-55 590.5,-55 590.5,-37 492.5,-37"/>
<text text-anchor="start" x="495.5" y="-43.2" font-family="Helvetica,sans-Serif" font-size="11.00">&lt; 13</text>
<polygon fill="#ffffff" stroke="none" points="590.5,-37 590.5,-55 666.5,-55 666.5,-37 590.5,-37"/>
<polygon fill="none" stroke="black" points="590.5,-37 590.5,-55 666.5,-55 666.5,-37 590.5,-37"/>
<text text-anchor="start" x="627.5" y="-43.2" font-family="Helvetica,sans-Serif" font-size="11.00">0 rows</text>
<polygon fill="#ffffff" stroke="none" points="666.5,-37 666.5,-55 723.5,-55 723.5,-37 666.5,-37"/>
<polygon fill="none" stroke="black" points="666.5,-37 666.5,-55 723.5,-55 723.5,-37 666.5,-37"/>
<text text-anchor="start" x="703.5" y="-43.2" font-family="Helvetica,sans-Serif" font-size="11.00">9 &gt;</text>
</a>
</g>
</g>
<!-- public.users -->
<g id="node2" class="node"><title>public.users</title>
<g id="a_node2"><a xlink:href="../../../public/tables/users.html" xlink:title="public.users" target="_top">
<polygon fill="#ffffff" stroke="none" points="26.5,-179 26.5,-237 144.5,-237 144.5,-179 26.5,-179"/>
<polygon fill="#f5f5f5" stroke="none" points="26.5,-215 26.5,-237 144.5,-237 144.5,-215 26.5,-215"/>
<polygon fill="none" stroke="black" points="26.5,-215 26.5,-237 144.5,-237 144.5,-215 26.5,-215"/>
<text text-anchor="start" x="31.5" y="-224.2" font-family="Helvetica,sans-Serif" font-weight="bold" font-size="11.00">public.users</text>
<text text-anchor="start" x="105.5" y="-223.2" font-family="Helvetica,sans-Serif" font-size="11.00">[table]</text>
<polygon fill="none" stroke="black" points="26.5,-197 26.5,-215 144.5,-215 144.5,-197 26.5,-197"/>
<text text-anchor="start" x="29.5" y="-203.2" font-family="Helvetica,sans-Serif" font-size="11.00">...</text>
<polygon fill="#ffffff" stroke="none" points="26.5,-179 26.5,-197 59.5,-197 59.5,-179 26.5,-179"/>
<polygon fill="none" stroke="black" points="26.5,-179 26.5,-197 59.5,-197 59.5,-179 26.5,-179"/>
<text text-anchor="start" x="29.5" y="-185.2" font-family="Helvetica,sans-Serif" font-size="11.00"> &#160;</text>
<polygon fill="#ffffff" stroke="none" points="59.5,-179 59.5,-197 111.5,-197 111.5,-179 59.5,-179"/>
<polygon fill="none" stroke="black" points="59.5,-179 59.5,-197 111.5,-197 111.5,-179 59.5,-179"/>
<text text-anchor="start" x="72.5" y="-185.2" font-family="Helvetica,sans-Serif" font-size="11.00">0 rows</text>
<polygon fill="#ffffff" stroke="none" points="111.5,-179 111.5,-197 144.5,-197 144.5,-179 111.5,-179"/>
<polygon fill="none" stroke="black" points="111.5,-179 111.5,-197 144.5,-197 144.5,-179 111.5,-179"/>
<text text-anchor="start" x="124.5" y="-185.2" font-family="Helvetica,sans-Serif" font-size="11.00">8 &gt;</text>
</a>
</g>
</g>
<!-- accessions&#45;&gt;public.users -->
<g id="edge1" class="edge"><title>accessions:created_by:w&#45;&gt;public.users:id:e</title>
<path fill="none" stroke="black" d="M477.784,-233.043C468.029,-223.515 469.265,-202.888 451,-195 350.219,-151.477 313.611,-188.955 204,-195 187.299,-195.921 169.322,-197.573 152.576,-199.398"/>
<polygon fill="black" stroke="black" points="483.976,-235.281 490.276,-241.386 487.738,-236.64 491.5,-238 491.5,-238 491.5,-238 487.738,-236.64 492.724,-234.614 483.976,-235.281 483.976,-235.281"/>
<ellipse fill="none" stroke="black" cx="480.967" cy="-234.193" rx="3.20001" ry="3.20001"/>
</g>
<!-- accessions&#45;&gt;public.users -->
<g id="edge3" class="edge"><title>accessions:modified_by:w&#45;&gt;public.users:id:e</title>
<path fill="none" stroke="black" d="M477.68,-210.931C467.929,-201.188 469.445,-180.091 451,-172 350.47,-127.9 312.567,-155.741 204,-172 187.015,-174.544 169.093,-179.047 152.503,-184.027"/>
<polygon fill="black" stroke="black" points="483.989,-213.245 490.26,-219.38 487.745,-214.623 491.5,-216 491.5,-216 491.5,-216 487.745,-214.623 492.74,-212.62 483.989,-213.245 483.989,-213.245"/>
<ellipse fill="none" stroke="black" cx="480.985" cy="-212.144" rx="3.20001" ry="3.20001"/>
</g>
<!-- public.facilities -->
<g id="node3" class="node"><title>public.facilities</title>
<g id="a_node3"><a xlink:href="../../../public/tables/facilities.html" xlink:title="public.facilities" target="_top">
<polygon fill="#ffffff" stroke="none" points="17,-421 17,-479 154,-479 154,-421 17,-421"/>
<polygon fill="#f5f5f5" stroke="none" points="17.5,-457 17.5,-479 154.5,-479 154.5,-457 17.5,-457"/>
<polygon fill="none" stroke="black" points="17.5,-457 17.5,-479 154.5,-479 154.5,-457 17.5,-457"/>
<text text-anchor="start" x="22.5" y="-466.2" font-family="Helvetica,sans-Serif" font-weight="bold" font-size="11.00">public.facilities</text>
<text text-anchor="start" x="115.5" y="-465.2" font-family="Helvetica,sans-Serif" font-size="11.00">[table]</text>
<polygon fill="none" stroke="black" points="17.5,-439 17.5,-457 154.5,-457 154.5,-439 17.5,-439"/>
<text text-anchor="start" x="20.5" y="-445.2" font-family="Helvetica,sans-Serif" font-size="11.00">...</text>
<polygon fill="#ffffff" stroke="none" points="17.5,-421 17.5,-439 59.5,-439 59.5,-421 17.5,-421"/>
<polygon fill="none" stroke="black" points="17.5,-421 17.5,-439 59.5,-439 59.5,-421 17.5,-421"/>
<text text-anchor="start" x="20.5" y="-427.2" font-family="Helvetica,sans-Serif" font-size="11.00"> &#160;</text>
<polygon fill="#ffffff" stroke="none" points="59.5,-421 59.5,-439 116.5,-439 116.5,-421 59.5,-421"/>
<polygon fill="none" stroke="black" points="59.5,-421 59.5,-439 116.5,-439 116.5,-421 59.5,-421"/>
<text text-anchor="start" x="77.5" y="-427.2" font-family="Helvetica,sans-Serif" font-size="11.00">0 rows</text>
<polygon fill="#ffffff" stroke="none" points="116.5,-421 116.5,-439 154.5,-439 154.5,-421 116.5,-421"/>
<polygon fill="none" stroke="black" points="116.5,-421 116.5,-439 154.5,-439 154.5,-421 116.5,-421"/>
<text text-anchor="start" x="134.5" y="-427.2" font-family="Helvetica,sans-Serif" font-size="11.00">2 &gt;</text>
</a>
</g>
</g>
<!-- accessions&#45;&gt;public.facilities -->
<g id="edge2" class="edge"><title>accessions:facility_id:w&#45;&gt;public.facilities:id:e</title>
<path fill="none" stroke="black" d="M477.68,-419.069C467.929,-428.812 469.445,-449.909 451,-458 350.47,-502.1 313.714,-461.731 204,-458 190.513,-457.541 176.17,-456.788 162.31,-455.921"/>
<polygon fill="black" stroke="black" points="483.989,-416.755 492.74,-417.38 487.745,-415.377 491.5,-414 491.5,-414 491.5,-414 487.745,-415.377 490.26,-410.62 483.989,-416.755 483.989,-416.755"/>
<ellipse fill="none" stroke="black" cx="480.985" cy="-417.856" rx="3.20001" ry="3.20001"/>
</g>
<!-- storage_locations -->
<g id="node4" class="node"><title>storage_locations</title>
<g id="a_node4"><a xlink:href="../../tables/storage_locations.html" xlink:title="storage_locations" target="_top">
<polygon fill="#ffffff" stroke="none" points="212,-205 212,-447 443,-447 443,-205 212,-205"/>
<polygon fill="#f5f5f5" stroke="none" points="214.5,-423 214.5,-445 441.5,-445 441.5,-423 214.5,-423"/>
<polygon fill="none" stroke="black" points="214.5,-423 214.5,-445 441.5,-445 441.5,-423 214.5,-423"/>
<text text-anchor="start" x="219.5" y="-432.2" font-family="Helvetica,sans-Serif" font-weight="bold" font-size="11.00">storage_locations</text>
<text text-anchor="start" x="402.5" y="-431.2" font-family="Helvetica,sans-Serif" font-size="11.00">[table]</text>
<polygon fill="none" stroke="black" points="214.5,-401 214.5,-423 339.5,-423 339.5,-401 214.5,-401"/>
<image xlink:href="../../images/primaryKeys.png" width="11px" height="12px" preserveAspectRatio="xMinYMin meet" x="219.5" y="-418"/>
<text text-anchor="start" x="234.5" y="-409.2" font-family="Helvetica,sans-Serif" font-size="11.00">id</text>
<polygon fill="none" stroke="black" points="339.5,-401 339.5,-423 441.5,-423 441.5,-401 339.5,-401"/>
<text text-anchor="start" x="342.5" y="-409.2" font-family="Helvetica,sans-Serif" font-size="11.00">int8[19]</text>
<polygon fill="none" stroke="black" points="214.5,-379 214.5,-401 339.5,-401 339.5,-379 214.5,-379"/>
<image xlink:href="../../images/foreignKeys.png" width="11px" height="12px" preserveAspectRatio="xMinYMin meet" x="219.5" y="-396"/>
<text text-anchor="start" x="234.5" y="-387.2" font-family="Helvetica,sans-Serif" font-size="11.00">facility_id</text>
<polygon fill="none" stroke="black" points="339.5,-379 339.5,-401 441.5,-401 441.5,-379 339.5,-379"/>
<text text-anchor="start" x="342.5" y="-387.2" font-family="Helvetica,sans-Serif" font-size="11.00">int8[19]</text>
<polygon fill="none" stroke="black" points="214.5,-357 214.5,-379 339.5,-379 339.5,-357 214.5,-357"/>
<text text-anchor="start" x="234.5" y="-365.2" font-family="Helvetica,sans-Serif" font-size="11.00">name</text>
<polygon fill="none" stroke="black" points="339.5,-357 339.5,-379 441.5,-379 441.5,-357 339.5,-357"/>
<text text-anchor="start" x="342.5" y="-365.2" font-family="Helvetica,sans-Serif" font-size="11.00">text[2147483647]</text>
<polygon fill="none" stroke="black" points="214.5,-335 214.5,-357 339.5,-357 339.5,-335 214.5,-335"/>
<image xlink:href="../../images/foreignKeys.png" width="11px" height="12px" preserveAspectRatio="xMinYMin meet" x="219.5" y="-352"/>
<text text-anchor="start" x="234.5" y="-343.2" font-family="Helvetica,sans-Serif" font-size="11.00">condition_id</text>
<polygon fill="none" stroke="black" points="339.5,-335 339.5,-357 441.5,-357 441.5,-335 339.5,-335"/>
<text text-anchor="start" x="342.5" y="-343.2" font-family="Helvetica,sans-Serif" font-size="11.00">int4[10]</text>
<polygon fill="none" stroke="black" points="214.5,-313 214.5,-335 339.5,-335 339.5,-313 214.5,-313"/>
<text text-anchor="start" x="234.5" y="-321.2" font-family="Helvetica,sans-Serif" font-size="11.00">enabled</text>
<polygon fill="none" stroke="black" points="339.5,-313 339.5,-335 441.5,-335 441.5,-313 339.5,-313"/>
<text text-anchor="start" x="342.5" y="-321.2" font-family="Helvetica,sans-Serif" font-size="11.00">bool[1]</text>
<polygon fill="none" stroke="black" points="214.5,-291 214.5,-313 339.5,-313 339.5,-291 214.5,-291"/>
<text text-anchor="start" x="234.5" y="-299.2" font-family="Helvetica,sans-Serif" font-size="11.00">created_time</text>
<polygon fill="none" stroke="black" points="339.5,-291 339.5,-313 441.5,-313 441.5,-291 339.5,-291"/>
<text text-anchor="start" x="342.5" y="-299.2" font-family="Helvetica,sans-Serif" font-size="11.00">timestamptz[35,6]</text>
<polygon fill="none" stroke="black" points="214.5,-269 214.5,-291 339.5,-291 339.5,-269 214.5,-269"/>
<text text-anchor="start" x="234.5" y="-277.2" font-family="Helvetica,sans-Serif" font-size="11.00">modified_time</text>
<polygon fill="none" stroke="black" points="339.5,-269 339.5,-291 441.5,-291 441.5,-269 339.5,-269"/>
<text text-anchor="start" x="342.5" y="-277.2" font-family="Helvetica,sans-Serif" font-size="11.00">timestamptz[35,6]</text>
<polygon fill="none" stroke="black" points="214.5,-247 214.5,-269 339.5,-269 339.5,-247 214.5,-247"/>
<image xlink:href="../../images/foreignKeys.png" width="11px" height="12px" preserveAspectRatio="xMinYMin meet" x="219.5" y="-264"/>
<text text-anchor="start" x="234.5" y="-255.2" font-family="Helvetica,sans-Serif" font-size="11.00">created_by</text>
<polygon fill="none" stroke="black" points="339.5,-247 339.5,-269 441.5,-269 441.5,-247 339.5,-247"/>
<text text-anchor="start" x="342.5" y="-255.2" font-family="Helvetica,sans-Serif" font-size="11.00">int8[19]</text>
<polygon fill="none" stroke="black" points="214.5,-225 214.5,-247 339.5,-247 339.5,-225 214.5,-225"/>
<image xlink:href="../../images/foreignKeys.png" width="11px" height="12px" preserveAspectRatio="xMinYMin meet" x="219.5" y="-242"/>
<text text-anchor="start" x="234.5" y="-233.2" font-family="Helvetica,sans-Serif" font-size="11.00">modified_by</text>
<polygon fill="none" stroke="black" points="339.5,-225 339.5,-247 441.5,-247 441.5,-225 339.5,-225"/>
<text text-anchor="start" x="342.5" y="-233.2" font-family="Helvetica,sans-Serif" font-size="11.00">int8[19]</text>
<polygon fill="#ffffff" stroke="none" points="214.5,-207 214.5,-225 267.5,-225 267.5,-207 214.5,-207"/>
<polygon fill="none" stroke="black" points="214.5,-207 214.5,-225 267.5,-225 267.5,-207 214.5,-207"/>
<text text-anchor="start" x="217.5" y="-213.2" font-family="Helvetica,sans-Serif" font-size="11.00">&lt; 4</text>
<polygon fill="#ffffff" stroke="none" points="267.5,-207 267.5,-225 339.5,-225 339.5,-207 267.5,-207"/>
<polygon fill="none" stroke="black" points="267.5,-207 267.5,-225 339.5,-225 339.5,-207 267.5,-207"/>
<text text-anchor="start" x="300.5" y="-213.2" font-family="Helvetica,sans-Serif" font-size="11.00">0 rows</text>
<polygon fill="#ffffff" stroke="none" points="339.5,-207 339.5,-225 441.5,-225 441.5,-207 339.5,-207"/>
<polygon fill="none" stroke="black" points="339.5,-207 339.5,-225 441.5,-225 441.5,-207 339.5,-207"/>
<text text-anchor="start" x="421.5" y="-213.2" font-family="Helvetica,sans-Serif" font-size="11.00">1 &gt;</text>
<polygon fill="none" stroke="black" stroke-width="2" points="213,-206 213,-446 442,-446 442,-206 213,-206"/>
</a>
</g>
</g>
<!-- accessions&#45;&gt;storage_locations -->
<g id="edge4" class="edge"><title>accessions:storage_location_id:w&#45;&gt;storage_locations:id.type:e</title>
<path fill="none" stroke="black" d="M477.686,-330.383C456.617,-347.908 480.477,-412 442.5,-412"/>
<polygon fill="black" stroke="black" points="483.875,-328.419 492.589,-329.431 487.687,-327.21 491.5,-326 491.5,-326 491.5,-326 487.687,-327.21 490.411,-322.569 483.875,-328.419 483.875,-328.419"/>
<ellipse fill="none" stroke="black" cx="480.824" cy="-329.387" rx="3.20001" ry="3.20001"/>
</g>
<!-- storage_locations&#45;&gt;public.users -->
<g id="edge6" class="edge"><title>storage_locations:created_by:w&#45;&gt;public.users:id:e</title>
<path fill="none" stroke="black" d="M198.989,-257.106C179.967,-254.832 160.949,-248.482 144.106,-241.072"/>
<polygon fill="black" stroke="black" points="205.515,-257.508 213.279,-261.593 209.508,-257.754 213.5,-258 213.5,-258 213.5,-258 209.508,-257.754 213.721,-254.407 205.515,-257.508 205.515,-257.508"/>
<ellipse fill="none" stroke="black" cx="202.321" cy="-257.311" rx="3.2" ry="3.2"/>
</g>
<!-- storage_locations&#45;&gt;public.users -->
<g id="edge8" class="edge"><title>storage_locations:modified_by:w&#45;&gt;public.users:id:e</title>
<path fill="none" stroke="black" d="M198.79,-235.444C183.295,-234.319 167.482,-231.593 152.798,-228.275"/>
<polygon fill="black" stroke="black" points="205.506,-235.698 213.364,-239.597 209.503,-235.849 213.5,-236 213.5,-236 213.5,-236 209.503,-235.849 213.636,-232.403 205.506,-235.698 205.506,-235.698"/>
<ellipse fill="none" stroke="black" cx="202.308" cy="-235.577" rx="3.2" ry="3.2"/>
</g>
<!-- storage_locations&#45;&gt;public.facilities -->
<g id="edge7" class="edge"><title>storage_locations:facility_id:w&#45;&gt;public.facilities:id:e</title>
<path fill="none" stroke="black" d="M198.87,-391.04C174.753,-394.381 151.094,-405.296 131.754,-416.841"/>
<polygon fill="black" stroke="black" points="205.52,-390.567 213.755,-393.591 209.51,-390.284 213.5,-390 213.5,-390 213.5,-390 209.51,-390.284 213.245,-386.409 205.52,-390.567 205.52,-390.567"/>
<ellipse fill="none" stroke="black" cx="202.328" cy="-390.794" rx="3.2" ry="3.2"/>
</g>
<!-- storage_conditions -->
<g id="node5" class="node"><title>storage_conditions</title>
<g id="a_node5"><a xlink:href="../../tables/storage_conditions.html" xlink:title="storage_conditions" target="_top">
<polygon fill="#ffffff" stroke="none" points="8,-295 8,-379 163,-379 163,-295 8,-295"/>
<polygon fill="#f5f5f5" stroke="none" points="8.5,-357 8.5,-379 163.5,-379 163.5,-357 8.5,-357"/>
<polygon fill="none" stroke="black" points="8.5,-357 8.5,-379 163.5,-379 163.5,-357 8.5,-357"/>
<text text-anchor="start" x="13.5" y="-366.2" font-family="Helvetica,sans-Serif" font-weight="bold" font-size="11.00">storage_conditions</text>
<text text-anchor="start" x="124.5" y="-365.2" font-family="Helvetica,sans-Serif" font-size="11.00">[table]</text>
<polygon fill="none" stroke="black" points="8.5,-335 8.5,-357 163.5,-357 163.5,-335 8.5,-335"/>
<image xlink:href="../../images/primaryKeys.png" width="11px" height="12px" preserveAspectRatio="xMinYMin meet" x="13.5" y="-352"/>
<text text-anchor="start" x="39.5" y="-343.2" font-family="Helvetica,sans-Serif" font-size="11.00">id</text>
<polygon fill="#ffffff" stroke="none" points="8.5,-313 8.5,-335 163.5,-335 163.5,-313 8.5,-313"/>
<polygon fill="none" stroke="black" points="8.5,-313 8.5,-335 163.5,-335 163.5,-313 8.5,-313"/>
<text text-anchor="start" x="39.5" y="-321.2" font-family="Helvetica,sans-Serif" font-size="11.00">name</text>
<polygon fill="#ffffff" stroke="none" points="8.5,-295 8.5,-313 59.5,-313 59.5,-295 8.5,-295"/>
<polygon fill="none" stroke="black" points="8.5,-295 8.5,-313 59.5,-313 59.5,-295 8.5,-295"/>
<text text-anchor="start" x="11.5" y="-301.2" font-family="Helvetica,sans-Serif" font-size="11.00"> &#160;</text>
<polygon fill="#ffffff" stroke="none" points="59.5,-295 59.5,-313 120.5,-313 120.5,-295 59.5,-295"/>
<polygon fill="none" stroke="black" points="59.5,-295 59.5,-313 120.5,-313 120.5,-295 59.5,-295"/>
<text text-anchor="start" x="81.5" y="-301.2" font-family="Helvetica,sans-Serif" font-size="11.00">2 rows</text>
<polygon fill="#ffffff" stroke="none" points="120.5,-295 120.5,-313 163.5,-313 163.5,-295 120.5,-295"/>
<polygon fill="none" stroke="black" points="120.5,-295 120.5,-313 163.5,-313 163.5,-295 120.5,-295"/>
<text text-anchor="start" x="143.5" y="-301.2" font-family="Helvetica,sans-Serif" font-size="11.00">1 &gt;</text>
</a>
</g>
</g>
<!-- storage_locations&#45;&gt;storage_conditions -->
<g id="edge5" class="edge"><title>storage_locations:condition_id:w&#45;&gt;storage_conditions:id:e</title>
<path fill="none" stroke="black" d="M198.991,-346C187.677,-346 180.493,-346 164.5,-346"/>
<polygon fill="black" stroke="black" points="205.5,-346 213.5,-349.6 209.5,-346 213.5,-346 213.5,-346 213.5,-346 209.5,-346 213.5,-342.4 205.5,-346 205.5,-346"/>
<ellipse fill="none" stroke="black" cx="202.3" cy="-346" rx="3.2" ry="3.2"/>
</g>
</g>
</svg>
