<?xml version="1.0" encoding="UTF-8" standalone="no"?>
<!DOCTYPE svg PUBLIC "-//W3C//DTD SVG 1.1//EN"
 "http://www.w3.org/Graphics/SVG/1.1/DTD/svg11.dtd">
<!-- Generated by graphviz version 2.47.1 (20210515.0534)
 -->
<!-- Title: twoDegreesRelationshipsDiagram Pages: 1 -->
<svg width="543pt" height="541pt"
 viewBox="0.00 0.00 543.00 541.00" xmlns="http://www.w3.org/2000/svg" xmlns:xlink="http://www.w3.org/1999/xlink">
<g id="graph0" class="graph" transform="scale(1 1) rotate(0) translate(4 537)">
<title>twoDegreesRelationshipsDiagram</title>
<polygon fill="#ffffff" stroke="transparent" points="-4,4 -4,-537 539,-537 539,4 -4,4"/>
<text text-anchor="middle" x="73.5" y="-7.2" font-family="Helvetica,sans-Serif" font-size="11.00">Generated by SchemaSpy</text>
<!-- published_report_achievements -->
<g id="node1" class="node">
<title>published_report_achievements</title>
<g id="a_node1"><a xlink:href="../../tables/published_report_achievements.html" xlink:title="published_report_achievements" target="_top">
<polygon fill="#ffffff" stroke="transparent" points="251,-471 251,-529 485,-529 485,-471 251,-471"/>
<polygon fill="#f5f5f5" stroke="transparent" points="251,-507 251,-529 485,-529 485,-507 251,-507"/>
<polygon fill="none" stroke="black" points="251,-507 251,-529 485,-529 485,-507 251,-507"/>
<text text-anchor="start" x="256" y="-516.2" font-family="Helvetica,sans-Serif" font-weight="bold" font-size="11.00">published_report_achievements</text>
<text text-anchor="start" x="446" y="-515.2" font-family="Helvetica,sans-Serif" font-size="11.00">[table]</text>
<polygon fill="none" stroke="black" points="251,-489 251,-507 485,-507 485,-489 251,-489"/>
<text text-anchor="start" x="254" y="-495.2" font-family="Helvetica,sans-Serif" font-size="11.00">...</text>
<polygon fill="#ffffff" stroke="transparent" points="251,-471 251,-489 366,-489 366,-471 251,-471"/>
<polygon fill="none" stroke="black" points="251,-471 251,-489 366,-489 366,-471 251,-471"/>
<text text-anchor="start" x="254" y="-477.2" font-family="Helvetica,sans-Serif" font-size="11.00">&lt; 1</text>
<polygon fill="#ffffff" stroke="transparent" points="366,-471 366,-489 425,-489 425,-471 366,-471"/>
<polygon fill="none" stroke="black" points="366,-471 366,-489 425,-489 425,-471 366,-471"/>
<text text-anchor="start" x="415" y="-477.2" font-family="Helvetica,sans-Serif" font-size="11.00"> &#160;</text>
<polygon fill="#ffffff" stroke="transparent" points="425,-471 425,-489 485,-489 485,-471 425,-471"/>
<polygon fill="none" stroke="black" points="425,-471 425,-489 485,-489 485,-471 425,-471"/>
<text text-anchor="start" x="475" y="-477.2" font-family="Helvetica,sans-Serif" font-size="11.00"> &#160;</text>
</a>
</g>
</g>
<!-- published_reports -->
<g id="node2" class="node">
<title>published_reports</title>
<g id="a_node2"><a xlink:href="../../tables/published_reports.html" xlink:title="published_reports" target="_top">
<polygon fill="#ffffff" stroke="transparent" points="8,-267 8,-369 160,-369 160,-267 8,-267"/>
<polygon fill="#f5f5f5" stroke="transparent" points="8,-347 8,-369 160,-369 160,-347 8,-347"/>
<polygon fill="none" stroke="black" points="8,-347 8,-369 160,-369 160,-347 8,-347"/>
<text text-anchor="start" x="13" y="-356.2" font-family="Helvetica,sans-Serif" font-weight="bold" font-size="11.00">published_reports</text>
<text text-anchor="start" x="121" y="-355.2" font-family="Helvetica,sans-Serif" font-size="11.00">[table]</text>
<polygon fill="none" stroke="black" points="8,-325 8,-347 160,-347 160,-325 8,-325"/>
<image xlink:href="../../images/primaryKeys.png" width="11px" height="12px" preserveAspectRatio="xMinYMin meet" x="13" y="-342"/>
<text text-anchor="start" x="34" y="-333.2" font-family="Helvetica,sans-Serif" font-size="11.00">report_id</text>
<polygon fill="#ffffff" stroke="transparent" points="8,-303 8,-325 160,-325 160,-303 8,-303"/>
<polygon fill="none" stroke="black" points="8,-303 8,-325 160,-325 160,-303 8,-303"/>
<text text-anchor="start" x="34" y="-311.2" font-family="Helvetica,sans-Serif" font-size="11.00">project_id</text>
<polygon fill="none" stroke="black" points="8,-285 8,-303 160,-303 160,-285 8,-285"/>
<text text-anchor="start" x="11" y="-291.2" font-family="Helvetica,sans-Serif" font-size="11.00">...</text>
<polygon fill="#ffffff" stroke="transparent" points="8,-267 8,-285 73,-285 73,-267 8,-267"/>
<polygon fill="none" stroke="black" points="8,-267 8,-285 73,-285 73,-267 8,-267"/>
<text text-anchor="start" x="11" y="-273.2" font-family="Helvetica,sans-Serif" font-size="11.00"> &#160;</text>
<polygon fill="#ffffff" stroke="transparent" points="73,-267 73,-285 112,-285 112,-267 73,-267"/>
<polygon fill="none" stroke="black" points="73,-267 73,-285 112,-285 112,-267 73,-267"/>
<text text-anchor="start" x="102" y="-273.2" font-family="Helvetica,sans-Serif" font-size="11.00"> &#160;</text>
<polygon fill="#ffffff" stroke="transparent" points="112,-267 112,-285 160,-285 160,-267 112,-267"/>
<polygon fill="none" stroke="black" points="112,-267 112,-285 160,-285 160,-267 112,-267"/>
<text text-anchor="start" x="141" y="-273.2" font-family="Helvetica,sans-Serif" font-size="11.00">5 &gt;</text>
</a>
</g>
</g>
<!-- published_report_achievements&#45;&gt;published_reports -->
<g id="edge1" class="edge">
<title>published_report_achievements:w&#45;&gt;published_reports:e</title>
<path fill="none" stroke="black" d="M235.29,-496.1C219.77,-491.45 213.46,-478.56 201,-461 167.26,-413.42 219.33,-336 161,-336"/>
<polygon fill="black" stroke="black" points="242.07,-496.98 249.54,-501.57 246.03,-497.49 250,-498 250,-498 250,-498 246.03,-497.49 250.46,-494.43 242.07,-496.98 242.07,-496.98"/>
<ellipse fill="none" stroke="black" cx="238.89" cy="-496.57" rx="3.2" ry="3.2"/>
</g>
<!-- published_report_challenges -->
<g id="node3" class="node">
<title>published_report_challenges</title>
<g id="a_node3"><a xlink:href="../../tables/published_report_challenges.html" xlink:title="published_report_challenges" target="_top">
<polygon fill="#ffffff" stroke="transparent" points="261,-392 261,-450 475,-450 475,-392 261,-392"/>
<polygon fill="#f5f5f5" stroke="transparent" points="261,-428 261,-450 475,-450 475,-428 261,-428"/>
<polygon fill="none" stroke="black" points="261,-428 261,-450 475,-450 475,-428 261,-428"/>
<text text-anchor="start" x="266" y="-437.2" font-family="Helvetica,sans-Serif" font-weight="bold" font-size="11.00">published_report_challenges</text>
<text text-anchor="start" x="436" y="-436.2" font-family="Helvetica,sans-Serif" font-size="11.00">[table]</text>
<polygon fill="none" stroke="black" points="261,-410 261,-428 475,-428 475,-410 261,-410"/>
<text text-anchor="start" x="264" y="-416.2" font-family="Helvetica,sans-Serif" font-size="11.00">...</text>
<polygon fill="#ffffff" stroke="transparent" points="261,-392 261,-410 366,-410 366,-392 261,-392"/>
<polygon fill="none" stroke="black" points="261,-392 261,-410 366,-410 366,-392 261,-392"/>
<text text-anchor="start" x="264" y="-398.2" font-family="Helvetica,sans-Serif" font-size="11.00">&lt; 1</text>
<polygon fill="#ffffff" stroke="transparent" points="366,-392 366,-410 420,-410 420,-392 366,-392"/>
<polygon fill="none" stroke="black" points="366,-392 366,-410 420,-410 420,-392 366,-392"/>
<text text-anchor="start" x="410" y="-398.2" font-family="Helvetica,sans-Serif" font-size="11.00"> &#160;</text>
<polygon fill="#ffffff" stroke="transparent" points="420,-392 420,-410 475,-410 475,-392 420,-392"/>
<polygon fill="none" stroke="black" points="420,-392 420,-410 475,-410 475,-392 420,-392"/>
<text text-anchor="start" x="465" y="-398.2" font-family="Helvetica,sans-Serif" font-size="11.00"> &#160;</text>
</a>
</g>
</g>
<!-- published_report_challenges&#45;&gt;published_reports -->
<g id="edge2" class="edge">
<title>published_report_challenges:w&#45;&gt;published_reports:e</title>
<path fill="none" stroke="black" d="M245.61,-417.44C226.81,-412.83 220.29,-398.5 201,-382 180.41,-364.39 188.09,-336 161,-336"/>
<polygon fill="black" stroke="black" points="252.05,-418.14 259.61,-422.58 256.02,-418.57 260,-419 260,-419 260,-419 256.02,-418.57 260.39,-415.42 252.05,-418.14 252.05,-418.14"/>
<ellipse fill="none" stroke="black" cx="248.86" cy="-417.8" rx="3.2" ry="3.2"/>
</g>
<!-- published_report_project_metrics -->
<g id="node4" class="node">
<title>published_report_project_metrics</title>
<g id="a_node4"><a xlink:href="../../tables/published_report_project_metrics.html" xlink:title="published_report_project_metrics" target="_top">
<polygon fill="#ffffff" stroke="transparent" points="209,-195 209,-371 527,-371 527,-195 209,-195"/>
<polygon fill="#f5f5f5" stroke="transparent" points="211,-347 211,-369 525,-369 525,-347 211,-347"/>
<polygon fill="none" stroke="black" points="211,-347 211,-369 525,-369 525,-347 211,-347"/>
<text text-anchor="start" x="216" y="-356.2" font-family="Helvetica,sans-Serif" font-weight="bold" font-size="11.00">published_report_project_metrics</text>
<text text-anchor="start" x="486" y="-355.2" font-family="Helvetica,sans-Serif" font-size="11.00">[table]</text>
<polygon fill="none" stroke="black" points="211,-325 211,-347 431,-347 431,-325 211,-325"/>
<image xlink:href="../../images/primaryKeys.png" width="11px" height="12px" preserveAspectRatio="xMinYMin meet" x="216" y="-342"/>
<text text-anchor="start" x="231" y="-333.2" font-family="Helvetica,sans-Serif" font-size="11.00">report_id</text>
<polygon fill="none" stroke="black" points="431,-325 431,-347 525,-347 525,-325 431,-325"/>
<text text-anchor="start" x="434" y="-333.2" font-family="Helvetica,sans-Serif" font-size="11.00">int8[19]</text>
<polygon fill="none" stroke="black" points="211,-303 211,-325 431,-325 431,-303 211,-303"/>
<image xlink:href="../../images/primaryKeys.png" width="11px" height="12px" preserveAspectRatio="xMinYMin meet" x="216" y="-320"/>
<text text-anchor="start" x="231" y="-311.2" font-family="Helvetica,sans-Serif" font-size="11.00">project_metric_id</text>
<polygon fill="none" stroke="black" points="431,-303 431,-325 525,-325 525,-303 431,-303"/>
<text text-anchor="start" x="434" y="-311.2" font-family="Helvetica,sans-Serif" font-size="11.00">int8[19]</text>
<polygon fill="none" stroke="black" points="211,-281 211,-303 431,-303 431,-281 211,-281"/>
<text text-anchor="start" x="231" y="-289.2" font-family="Helvetica,sans-Serif" font-size="11.00">target</text>
<polygon fill="none" stroke="black" points="431,-281 431,-303 525,-303 525,-281 431,-281"/>
<text text-anchor="start" x="434" y="-289.2" font-family="Helvetica,sans-Serif" font-size="11.00">int4[10]</text>
<polygon fill="none" stroke="black" points="211,-259 211,-281 431,-281 431,-259 211,-259"/>
<text text-anchor="start" x="231" y="-267.2" font-family="Helvetica,sans-Serif" font-size="11.00">value</text>
<polygon fill="none" stroke="black" points="431,-259 431,-281 525,-281 525,-259 431,-259"/>
<text text-anchor="start" x="434" y="-267.2" font-family="Helvetica,sans-Serif" font-size="11.00">int4[10]</text>
<polygon fill="none" stroke="black" points="211,-237 211,-259 431,-259 431,-237 211,-237"/>
<text text-anchor="start" x="231" y="-245.2" font-family="Helvetica,sans-Serif" font-size="11.00">underperformance_justification</text>
<polygon fill="none" stroke="black" points="431,-237 431,-259 525,-259 525,-237 431,-237"/>
<text text-anchor="start" x="434" y="-245.2" font-family="Helvetica,sans-Serif" font-size="11.00">text[2147483647]</text>
<polygon fill="none" stroke="black" points="211,-215 211,-237 431,-237 431,-215 211,-215"/>
<text text-anchor="start" x="231" y="-223.2" font-family="Helvetica,sans-Serif" font-size="11.00">status_id</text>
<polygon fill="none" stroke="black" points="431,-215 431,-237 525,-237 525,-215 431,-215"/>
<text text-anchor="start" x="434" y="-223.2" font-family="Helvetica,sans-Serif" font-size="11.00">int4[10]</text>
<polygon fill="#ffffff" stroke="transparent" points="211,-197 211,-215 325,-215 325,-197 211,-197"/>
<polygon fill="none" stroke="black" points="211,-197 211,-215 325,-215 325,-197 211,-197"/>
<text text-anchor="start" x="214" y="-203.2" font-family="Helvetica,sans-Serif" font-size="11.00">&lt; 1</text>
<polygon fill="#ffffff" stroke="transparent" points="325,-197 325,-215 431,-215 431,-197 325,-197"/>
<polygon fill="none" stroke="black" points="325,-197 325,-215 431,-215 431,-197 325,-197"/>
<text text-anchor="start" x="421" y="-203.2" font-family="Helvetica,sans-Serif" font-size="11.00"> &#160;</text>
<polygon fill="#ffffff" stroke="transparent" points="431,-197 431,-215 525,-215 525,-197 431,-197"/>
<polygon fill="none" stroke="black" points="431,-197 431,-215 525,-215 525,-197 431,-197"/>
<text text-anchor="start" x="506" y="-203.2" font-family="Helvetica,sans-Serif" font-size="11.00">0 &gt;</text>
<polygon fill="none" stroke="black" stroke-width="2" points="210,-196 210,-370 526,-370 526,-196 210,-196"/>
</a>
</g>
</g>
<!-- published_report_project_metrics&#45;&gt;published_reports -->
<g id="edge3" class="edge">
<title>published_report_project_metrics:w&#45;&gt;published_reports:e</title>
<path fill="none" stroke="black" d="M195.49,-336C184.18,-336 176.99,-336 161,-336"/>
<polygon fill="black" stroke="black" points="202,-336 210,-339.6 206,-336 210,-336 210,-336 210,-336 206,-336 210,-332.4 202,-336 202,-336"/>
<ellipse fill="none" stroke="black" cx="198.8" cy="-336" rx="3.2" ry="3.2"/>
</g>
<!-- published_report_standard_metrics -->
<g id="node5" class="node">
<title>published_report_standard_metrics</title>
<g id="a_node5"><a xlink:href="../../tables/published_report_standard_metrics.html" xlink:title="published_report_standard_metrics" target="_top">
<polygon fill="#ffffff" stroke="transparent" points="240.5,-116 240.5,-174 495.5,-174 495.5,-116 240.5,-116"/>
<polygon fill="#f5f5f5" stroke="transparent" points="241,-152 241,-174 496,-174 496,-152 241,-152"/>
<polygon fill="none" stroke="black" points="241,-152 241,-174 496,-174 496,-152 241,-152"/>
<text text-anchor="start" x="246" y="-161.2" font-family="Helvetica,sans-Serif" font-weight="bold" font-size="11.00">published_report_standard_metrics</text>
<text text-anchor="start" x="457" y="-160.2" font-family="Helvetica,sans-Serif" font-size="11.00">[table]</text>
<polygon fill="none" stroke="black" points="241,-134 241,-152 496,-152 496,-134 241,-134"/>
<text text-anchor="start" x="244" y="-140.2" font-family="Helvetica,sans-Serif" font-size="11.00">...</text>
<polygon fill="#ffffff" stroke="transparent" points="241,-116 241,-134 366,-134 366,-116 241,-116"/>
<polygon fill="none" stroke="black" points="241,-116 241,-134 366,-134 366,-116 241,-116"/>
<text text-anchor="start" x="244" y="-122.2" font-family="Helvetica,sans-Serif" font-size="11.00">&lt; 1</text>
<polygon fill="#ffffff" stroke="transparent" points="366,-116 366,-134 431,-134 431,-116 366,-116"/>
<polygon fill="none" stroke="black" points="366,-116 366,-134 431,-134 431,-116 366,-116"/>
<text text-anchor="start" x="421" y="-122.2" font-family="Helvetica,sans-Serif" font-size="11.00"> &#160;</text>
<polygon fill="#ffffff" stroke="transparent" points="431,-116 431,-134 496,-134 496,-116 431,-116"/>
<polygon fill="none" stroke="black" points="431,-116 431,-134 496,-134 496,-116 431,-116"/>
<text text-anchor="start" x="486" y="-122.2" font-family="Helvetica,sans-Serif" font-size="11.00"> &#160;</text>
</a>
</g>
</g>
<!-- published_report_standard_metrics&#45;&gt;published_reports -->
<g id="edge4" class="edge">
<title>published_report_standard_metrics:w&#45;&gt;published_reports:e</title>
<path fill="none" stroke="black" d="M225.63,-146.03C213.34,-152.37 210.41,-167.92 201,-185 167.49,-245.8 230.43,-336 161,-336"/>
<polygon fill="black" stroke="black" points="232.17,-144.65 240.74,-146.52 236.09,-143.82 240,-143 240,-143 240,-143 236.09,-143.82 239.26,-139.48 232.17,-144.65 232.17,-144.65"/>
<ellipse fill="none" stroke="black" cx="229.04" cy="-145.31" rx="3.2" ry="3.2"/>
</g>
<!-- published_report_system_metrics -->
<g id="node6" class="node">
<title>published_report_system_metrics</title>
<g id="a_node6"><a xlink:href="../../tables/published_report_system_metrics.html" xlink:title="published_report_system_metrics" target="_top">
<polygon fill="#ffffff" stroke="transparent" points="246,-37 246,-95 490,-95 490,-37 246,-37"/>
<polygon fill="#f5f5f5" stroke="transparent" points="246,-73 246,-95 490,-95 490,-73 246,-73"/>
<polygon fill="none" stroke="black" points="246,-73 246,-95 490,-95 490,-73 246,-73"/>
<text text-anchor="start" x="251" y="-82.2" font-family="Helvetica,sans-Serif" font-weight="bold" font-size="11.00">published_report_system_metrics</text>
<text text-anchor="start" x="451" y="-81.2" font-family="Helvetica,sans-Serif" font-size="11.00">[table]</text>
<polygon fill="none" stroke="black" points="246,-55 246,-73 490,-73 490,-55 246,-55"/>
<text text-anchor="start" x="249" y="-61.2" font-family="Helvetica,sans-Serif" font-size="11.00">...</text>
<polygon fill="#ffffff" stroke="transparent" points="246,-37 246,-55 366,-55 366,-37 246,-37"/>
<polygon fill="none" stroke="black" points="246,-37 246,-55 366,-55 366,-37 246,-37"/>
<text text-anchor="start" x="249" y="-43.2" font-family="Helvetica,sans-Serif" font-size="11.00">&lt; 1</text>
<polygon fill="#ffffff" stroke="transparent" points="366,-37 366,-55 428,-55 428,-37 366,-37"/>
<polygon fill="none" stroke="black" points="366,-37 366,-55 428,-55 428,-37 366,-37"/>
<text text-anchor="start" x="418" y="-43.2" font-family="Helvetica,sans-Serif" font-size="11.00"> &#160;</text>
<polygon fill="#ffffff" stroke="transparent" points="428,-37 428,-55 490,-55 490,-37 428,-37"/>
<polygon fill="none" stroke="black" points="428,-37 428,-55 490,-55 490,-37 428,-37"/>
<text text-anchor="start" x="480" y="-43.2" font-family="Helvetica,sans-Serif" font-size="11.00"> &#160;</text>
</a>
</g>
</g>
<!-- published_report_system_metrics&#45;&gt;published_reports -->
<g id="edge5" class="edge">
<title>published_report_system_metrics:w&#45;&gt;published_reports:e</title>
<path fill="none" stroke="black" d="M230.64,-66.31C215.8,-71.91 211.05,-87.18 201,-106 176.57,-151.76 212.88,-336 161,-336"/>
<polygon fill="black" stroke="black" points="237.1,-65.27 245.57,-67.55 241.05,-64.63 245,-64 245,-64 245,-64 241.05,-64.63 244.43,-60.45 237.1,-65.27 237.1,-65.27"/>
<ellipse fill="none" stroke="black" cx="233.94" cy="-65.78" rx="3.2" ry="3.2"/>
</g>
</g>
</svg>
