<?xml version="1.0" encoding="UTF-8" standalone="no"?>
<!DOCTYPE svg PUBLIC "-//W3C//DTD SVG 1.1//EN"
 "http://www.w3.org/Graphics/SVG/1.1/DTD/svg11.dtd">
<!-- Generated by graphviz version 2.47.1 (20210515.0534)
 -->
<!-- Title: oneDegreeRelationshipsDiagram Pages: 1 -->
<svg width="348pt" height="181pt"
 viewBox="0.00 0.00 348.00 181.00" xmlns="http://www.w3.org/2000/svg" xmlns:xlink="http://www.w3.org/1999/xlink">
<g id="graph0" class="graph" transform="scale(1 1) rotate(0) translate(4 177)">
<title>oneDegreeRelationshipsDiagram</title>
<polygon fill="#ffffff" stroke="transparent" points="-4,4 -4,-177 344,-177 344,4 -4,4"/>
<text text-anchor="middle" x="73.5" y="-7.2" font-family="Helvetica,sans-Serif" font-size="11.00">Generated by SchemaSpy</text>
<!-- published_common_indicator_baselines -->
<g id="node1" class="node">
<title>published_common_indicator_baselines</title>
<g id="a_node1"><a xlink:href="../../tables/published_common_indicator_baselines.html" xlink:title="published_common_indicator_baselines" target="_top">
<polygon fill="#ffffff" stroke="transparent" points="8,-37 8,-169 332,-169 332,-37 8,-37"/>
<polygon fill="#f5f5f5" stroke="transparent" points="10,-145 10,-167 330,-167 330,-145 10,-145"/>
<polygon fill="none" stroke="black" points="10,-145 10,-167 330,-167 330,-145 10,-145"/>
<text text-anchor="start" x="15" y="-154.2" font-family="Helvetica,sans-Serif" font-weight="bold" font-size="11.00">published_common_indicator_baselines</text>
<text text-anchor="start" x="291" y="-153.2" font-family="Helvetica,sans-Serif" font-size="11.00">[table]</text>
<polygon fill="none" stroke="black" points="10,-123 10,-145 267,-145 267,-123 10,-123"/>
<image xlink:href="../../images/primaryKeys.png" width="11px" height="12px" preserveAspectRatio="xMinYMin meet" x="15" y="-140"/>
<text text-anchor="start" x="30" y="-131.2" font-family="Helvetica,sans-Serif" font-size="11.00">project_id</text>
<polygon fill="none" stroke="black" points="267,-123 267,-145 330,-145 330,-123 267,-123"/>
<text text-anchor="start" x="270" y="-131.2" font-family="Helvetica,sans-Serif" font-size="11.00">int8[19]</text>
<polygon fill="none" stroke="black" points="10,-101 10,-123 267,-123 267,-101 10,-101"/>
<image xlink:href="../../images/primaryKeys.png" width="11px" height="12px" preserveAspectRatio="xMinYMin meet" x="15" y="-118"/>
<text text-anchor="start" x="30" y="-109.2" font-family="Helvetica,sans-Serif" font-size="11.00">common_indicator_id</text>
<polygon fill="none" stroke="black" points="267,-101 267,-123 330,-123 330,-101 267,-101"/>
<text text-anchor="start" x="270" y="-109.2" font-family="Helvetica,sans-Serif" font-size="11.00">int8[19]</text>
<polygon fill="none" stroke="black" points="10,-79 10,-101 267,-101 267,-79 10,-79"/>
<text text-anchor="start" x="30" y="-87.2" font-family="Helvetica,sans-Serif" font-size="11.00">baseline</text>
<polygon fill="none" stroke="black" points="267,-79 267,-101 330,-101 330,-79 267,-79"/>
<text text-anchor="start" x="270" y="-87.2" font-family="Helvetica,sans-Serif" font-size="11.00">numeric[0]</text>
<polygon fill="none" stroke="black" points="10,-57 10,-79 267,-79 267,-57 10,-57"/>
<text text-anchor="start" x="30" y="-65.2" font-family="Helvetica,sans-Serif" font-size="11.00">end_target</text>
<polygon fill="none" stroke="black" points="267,-57 267,-79 330,-79 330,-57 267,-57"/>
<text text-anchor="start" x="270" y="-65.2" font-family="Helvetica,sans-Serif" font-size="11.00">numeric[0]</text>
<polygon fill="#ffffff" stroke="transparent" points="10,-39 10,-57 143,-57 143,-39 10,-39"/>
<polygon fill="none" stroke="black" points="10,-39 10,-57 143,-57 143,-39 10,-39"/>
<text text-anchor="start" x="13" y="-45.2" font-family="Helvetica,sans-Serif" font-size="11.00">&lt; 0</text>
<polygon fill="#ffffff" stroke="transparent" points="143,-39 143,-57 267,-57 267,-39 143,-39"/>
<polygon fill="none" stroke="black" points="143,-39 143,-57 267,-57 267,-39 143,-39"/>
<text text-anchor="start" x="257" y="-45.2" font-family="Helvetica,sans-Serif" font-size="11.00"> &#160;</text>
<polygon fill="#ffffff" stroke="transparent" points="267,-39 267,-57 330,-57 330,-39 267,-39"/>
<polygon fill="none" stroke="black" points="267,-39 267,-57 330,-57 330,-39 267,-39"/>
<text text-anchor="start" x="311" y="-45.2" font-family="Helvetica,sans-Serif" font-size="11.00">0 &gt;</text>
<polygon fill="none" stroke="black" stroke-width="2" points="9,-38 9,-168 331,-168 331,-38 9,-38"/>
</a>
</g>
</g>
</g>
</svg>
