<?xml version="1.0" encoding="UTF-8" standalone="no"?>
<!DOCTYPE svg PUBLIC "-//W3C//DTD SVG 1.1//EN"
 "http://www.w3.org/Graphics/SVG/1.1/DTD/svg11.dtd">
<!-- Generated by graphviz version 2.47.1 (20210515.0534)
 -->
<!-- Title: oneDegreeRelationshipsDiagram Pages: 1 -->
<svg width="617pt" height="441pt"
 viewBox="0.00 0.00 617.00 441.00" xmlns="http://www.w3.org/2000/svg" xmlns:xlink="http://www.w3.org/1999/xlink">
<g id="graph0" class="graph" transform="scale(1 1) rotate(0) translate(4 437)">
<title>oneDegreeRelationshipsDiagram</title>
<polygon fill="#ffffff" stroke="transparent" points="-4,4 -4,-437 613,-437 613,4 -4,4"/>
<text text-anchor="middle" x="73.5" y="-7.2" font-family="Helvetica,sans-Serif" font-size="11.00">Generated by SchemaSpy</text>
<!-- published_activity_media_files -->
<g id="node1" class="node">
<title>published_activity_media_files</title>
<g id="a_node1"><a xlink:href="../../tables/published_activity_media_files.html" xlink:title="published_activity_media_files" target="_top">
<polygon fill="#ffffff" stroke="transparent" points="338.5,-305 338.5,-429 562.5,-429 562.5,-305 338.5,-305"/>
<polygon fill="#f5f5f5" stroke="transparent" points="338.5,-407 338.5,-429 562.5,-429 562.5,-407 338.5,-407"/>
<polygon fill="none" stroke="black" points="338.5,-407 338.5,-429 562.5,-429 562.5,-407 338.5,-407"/>
<text text-anchor="start" x="343.5" y="-416.2" font-family="Helvetica,sans-Serif" font-weight="bold" font-size="11.00">published_activity_media_files</text>
<text text-anchor="start" x="523.5" y="-415.2" font-family="Helvetica,sans-Serif" font-size="11.00">[table]</text>
<polygon fill="none" stroke="black" points="338.5,-385 338.5,-407 562.5,-407 562.5,-385 338.5,-385"/>
<image xlink:href="../../images/primaryKeys.png" width="11px" height="12px" preserveAspectRatio="xMinYMin meet" x="343.5" y="-402"/>
<text text-anchor="start" x="370.5" y="-393.2" font-family="Helvetica,sans-Serif" font-size="11.00">file_id</text>
<polygon fill="#ffffff" stroke="transparent" points="338.5,-363 338.5,-385 562.5,-385 562.5,-363 338.5,-363"/>
<polygon fill="none" stroke="black" points="338.5,-363 338.5,-385 562.5,-385 562.5,-363 338.5,-363"/>
<image xlink:href="../../images/foreignKeys.png" width="11px" height="12px" preserveAspectRatio="xMinYMin meet" x="343.5" y="-380"/>
<text text-anchor="start" x="370.5" y="-371.2" font-family="Helvetica,sans-Serif" font-size="11.00">activity_id</text>
<polygon fill="#ffffff" stroke="transparent" points="338.5,-341 338.5,-363 562.5,-363 562.5,-341 338.5,-341"/>
<polygon fill="none" stroke="black" points="338.5,-341 338.5,-363 562.5,-363 562.5,-341 338.5,-341"/>
<text text-anchor="start" x="370.5" y="-349.2" font-family="Helvetica,sans-Serif" font-size="11.00">list_position</text>
<polygon fill="none" stroke="black" points="338.5,-323 338.5,-341 562.5,-341 562.5,-323 338.5,-323"/>
<text text-anchor="start" x="341.5" y="-329.2" font-family="Helvetica,sans-Serif" font-size="11.00">...</text>
<polygon fill="#ffffff" stroke="transparent" points="338.5,-305 338.5,-323 448.5,-323 448.5,-305 338.5,-305"/>
<polygon fill="none" stroke="black" points="338.5,-305 338.5,-323 448.5,-323 448.5,-305 338.5,-305"/>
<text text-anchor="start" x="341.5" y="-311.2" font-family="Helvetica,sans-Serif" font-size="11.00">&lt; 1</text>
<polygon fill="#ffffff" stroke="transparent" points="448.5,-305 448.5,-323 505.5,-323 505.5,-305 448.5,-305"/>
<polygon fill="none" stroke="black" points="448.5,-305 448.5,-323 505.5,-323 505.5,-305 448.5,-305"/>
<text text-anchor="start" x="495.5" y="-311.2" font-family="Helvetica,sans-Serif" font-size="11.00"> &#160;</text>
<polygon fill="#ffffff" stroke="transparent" points="505.5,-305 505.5,-323 562.5,-323 562.5,-305 505.5,-305"/>
<polygon fill="none" stroke="black" points="505.5,-305 505.5,-323 562.5,-323 562.5,-305 505.5,-305"/>
<text text-anchor="start" x="552.5" y="-311.2" font-family="Helvetica,sans-Serif" font-size="11.00"> &#160;</text>
</a>
</g>
</g>
<!-- published_activities -->
<g id="node2" class="node">
<title>published_activities</title>
<g id="a_node2"><a xlink:href="../../tables/published_activities.html" xlink:title="published_activities" target="_top">
<polygon fill="#ffffff" stroke="transparent" points="8,-44 8,-264 251,-264 251,-44 8,-44"/>
<polygon fill="#f5f5f5" stroke="transparent" points="10.5,-240 10.5,-262 249.5,-262 249.5,-240 10.5,-240"/>
<polygon fill="none" stroke="black" points="10.5,-240 10.5,-262 249.5,-262 249.5,-240 10.5,-240"/>
<text text-anchor="start" x="15.5" y="-249.2" font-family="Helvetica,sans-Serif" font-weight="bold" font-size="11.00">published_activities</text>
<text text-anchor="start" x="210.5" y="-248.2" font-family="Helvetica,sans-Serif" font-size="11.00">[table]</text>
<polygon fill="none" stroke="black" points="10.5,-218 10.5,-240 149.5,-240 149.5,-218 10.5,-218"/>
<image xlink:href="../../images/primaryKeys.png" width="11px" height="12px" preserveAspectRatio="xMinYMin meet" x="15.5" y="-235"/>
<text text-anchor="start" x="30.5" y="-226.2" font-family="Helvetica,sans-Serif" font-size="11.00">activity_id</text>
<polygon fill="none" stroke="black" points="149.5,-218 149.5,-240 249.5,-240 249.5,-218 149.5,-218"/>
<text text-anchor="start" x="152.5" y="-226.2" font-family="Helvetica,sans-Serif" font-size="11.00">int8[19]</text>
<polygon fill="#ffffff" stroke="transparent" points="10.5,-196 10.5,-218 149.5,-218 149.5,-196 10.5,-196"/>
<polygon fill="none" stroke="black" points="10.5,-196 10.5,-218 149.5,-218 149.5,-196 10.5,-196"/>
<text text-anchor="start" x="30.5" y="-204.2" font-family="Helvetica,sans-Serif" font-size="11.00">project_id</text>
<polygon fill="none" stroke="black" points="149.5,-196 149.5,-218 249.5,-218 249.5,-196 149.5,-196"/>
<text text-anchor="start" x="152.5" y="-204.2" font-family="Helvetica,sans-Serif" font-size="11.00">int8[19]</text>
<polygon fill="none" stroke="black" points="10.5,-174 10.5,-196 149.5,-196 149.5,-174 10.5,-174"/>
<text text-anchor="start" x="30.5" y="-182.2" font-family="Helvetica,sans-Serif" font-size="11.00">activity_type_id</text>
<polygon fill="none" stroke="black" points="149.5,-174 149.5,-196 249.5,-196 249.5,-174 149.5,-174"/>
<text text-anchor="start" x="152.5" y="-182.2" font-family="Helvetica,sans-Serif" font-size="11.00">int4[10]</text>
<polygon fill="none" stroke="black" points="10.5,-152 10.5,-174 149.5,-174 149.5,-152 10.5,-152"/>
<text text-anchor="start" x="30.5" y="-160.2" font-family="Helvetica,sans-Serif" font-size="11.00">activity_date</text>
<polygon fill="none" stroke="black" points="149.5,-152 149.5,-174 249.5,-174 249.5,-152 149.5,-152"/>
<text text-anchor="start" x="152.5" y="-160.2" font-family="Helvetica,sans-Serif" font-size="11.00">date[13]</text>
<polygon fill="none" stroke="black" points="10.5,-130 10.5,-152 149.5,-152 149.5,-130 10.5,-130"/>
<text text-anchor="start" x="30.5" y="-138.2" font-family="Helvetica,sans-Serif" font-size="11.00">description</text>
<polygon fill="none" stroke="black" points="149.5,-130 149.5,-152 249.5,-152 249.5,-130 149.5,-130"/>
<text text-anchor="start" x="152.5" y="-138.2" font-family="Helvetica,sans-Serif" font-size="11.00">text[2147483647]</text>
<polygon fill="none" stroke="black" points="10.5,-108 10.5,-130 149.5,-130 149.5,-108 10.5,-108"/>
<text text-anchor="start" x="30.5" y="-116.2" font-family="Helvetica,sans-Serif" font-size="11.00">is_highlight</text>
<polygon fill="none" stroke="black" points="149.5,-108 149.5,-130 249.5,-130 249.5,-108 149.5,-108"/>
<text text-anchor="start" x="152.5" y="-116.2" font-family="Helvetica,sans-Serif" font-size="11.00">bool[1]</text>
<polygon fill="none" stroke="black" points="10.5,-86 10.5,-108 149.5,-108 149.5,-86 10.5,-86"/>
<text text-anchor="start" x="30.5" y="-94.2" font-family="Helvetica,sans-Serif" font-size="11.00">published_by</text>
<polygon fill="none" stroke="black" points="149.5,-86 149.5,-108 249.5,-108 249.5,-86 149.5,-86"/>
<text text-anchor="start" x="152.5" y="-94.2" font-family="Helvetica,sans-Serif" font-size="11.00">int8[19]</text>
<polygon fill="none" stroke="black" points="10.5,-64 10.5,-86 149.5,-86 149.5,-64 10.5,-64"/>
<text text-anchor="start" x="30.5" y="-72.2" font-family="Helvetica,sans-Serif" font-size="11.00">published_time</text>
<polygon fill="none" stroke="black" points="149.5,-64 149.5,-86 249.5,-86 249.5,-64 149.5,-64"/>
<text text-anchor="start" x="152.5" y="-72.2" font-family="Helvetica,sans-Serif" font-size="11.00">timestamptz[35,6]</text>
<polygon fill="#ffffff" stroke="transparent" points="10.5,-46 10.5,-64 84.5,-64 84.5,-46 10.5,-46"/>
<polygon fill="none" stroke="black" points="10.5,-46 10.5,-64 84.5,-64 84.5,-46 10.5,-46"/>
<text text-anchor="start" x="13.5" y="-52.2" font-family="Helvetica,sans-Serif" font-size="11.00">&lt; 0</text>
<polygon fill="#ffffff" stroke="transparent" points="84.5,-46 84.5,-64 149.5,-64 149.5,-46 84.5,-46"/>
<polygon fill="none" stroke="black" points="84.5,-46 84.5,-64 149.5,-64 149.5,-46 84.5,-46"/>
<text text-anchor="start" x="139.5" y="-52.2" font-family="Helvetica,sans-Serif" font-size="11.00"> &#160;</text>
<polygon fill="#ffffff" stroke="transparent" points="149.5,-46 149.5,-64 249.5,-64 249.5,-46 149.5,-46"/>
<polygon fill="none" stroke="black" points="149.5,-46 149.5,-64 249.5,-64 249.5,-46 149.5,-46"/>
<text text-anchor="start" x="230.5" y="-52.2" font-family="Helvetica,sans-Serif" font-size="11.00">3 &gt;</text>
<polygon fill="none" stroke="black" stroke-width="2" points="9,-45 9,-263 250,-263 250,-45 9,-45"/>
</a>
</g>
</g>
<!-- published_activity_media_files&#45;&gt;published_activities -->
<g id="edge1" class="edge">
<title>published_activity_media_files:w&#45;&gt;published_activities:e</title>
<path fill="none" stroke="black" d="M324.51,-367.77C296.56,-340.02 283.38,-229 250.5,-229"/>
<polygon fill="black" stroke="black" points="330.29,-370.54 335.94,-377.25 333.89,-372.27 337.5,-374 337.5,-374 337.5,-374 333.89,-372.27 339.06,-370.75 330.29,-370.54 330.29,-370.54"/>
<ellipse fill="none" stroke="black" cx="327.4" cy="-369.16" rx="3.2" ry="3.2"/>
</g>
<!-- published_activity_observation_media_files -->
<g id="node3" class="node">
<title>published_activity_observation_media_files</title>
<g id="a_node3"><a xlink:href="../../tables/published_activity_observation__dee579ca.html" xlink:title="published_activity_observation_media_files" target="_top">
<polygon fill="#ffffff" stroke="transparent" points="300,-160 300,-284 601,-284 601,-160 300,-160"/>
<polygon fill="#f5f5f5" stroke="transparent" points="300.5,-262 300.5,-284 601.5,-284 601.5,-262 300.5,-262"/>
<polygon fill="none" stroke="black" points="300.5,-262 300.5,-284 601.5,-284 601.5,-262 300.5,-262"/>
<text text-anchor="start" x="305.5" y="-271.2" font-family="Helvetica,sans-Serif" font-weight="bold" font-size="11.00">published_activity_observation_media_files</text>
<text text-anchor="start" x="562.5" y="-270.2" font-family="Helvetica,sans-Serif" font-size="11.00">[table]</text>
<polygon fill="none" stroke="black" points="300.5,-240 300.5,-262 601.5,-262 601.5,-240 300.5,-240"/>
<image xlink:href="../../images/primaryKeys.png" width="11px" height="12px" preserveAspectRatio="xMinYMin meet" x="305.5" y="-257"/>
<text text-anchor="start" x="332.5" y="-248.2" font-family="Helvetica,sans-Serif" font-size="11.00">file_id</text>
<polygon fill="#ffffff" stroke="transparent" points="300.5,-218 300.5,-240 601.5,-240 601.5,-218 300.5,-218"/>
<polygon fill="none" stroke="black" points="300.5,-218 300.5,-240 601.5,-240 601.5,-218 300.5,-218"/>
<image xlink:href="../../images/foreignKeys.png" width="11px" height="12px" preserveAspectRatio="xMinYMin meet" x="305.5" y="-235"/>
<text text-anchor="start" x="332.5" y="-226.2" font-family="Helvetica,sans-Serif" font-size="11.00">activity_id</text>
<polygon fill="#ffffff" stroke="transparent" points="300.5,-196 300.5,-218 601.5,-218 601.5,-196 300.5,-196"/>
<polygon fill="none" stroke="black" points="300.5,-196 300.5,-218 601.5,-218 601.5,-196 300.5,-196"/>
<text text-anchor="start" x="332.5" y="-204.2" font-family="Helvetica,sans-Serif" font-size="11.00">monitoring_plot_id</text>
<polygon fill="none" stroke="black" points="300.5,-178 300.5,-196 601.5,-196 601.5,-178 300.5,-178"/>
<text text-anchor="start" x="303.5" y="-184.2" font-family="Helvetica,sans-Serif" font-size="11.00">...</text>
<polygon fill="#ffffff" stroke="transparent" points="300.5,-160 300.5,-178 448.5,-178 448.5,-160 300.5,-160"/>
<polygon fill="none" stroke="black" points="300.5,-160 300.5,-178 448.5,-178 448.5,-160 300.5,-160"/>
<text text-anchor="start" x="303.5" y="-166.2" font-family="Helvetica,sans-Serif" font-size="11.00">&lt; 1</text>
<polygon fill="#ffffff" stroke="transparent" points="448.5,-160 448.5,-178 524.5,-178 524.5,-160 448.5,-160"/>
<polygon fill="none" stroke="black" points="448.5,-160 448.5,-178 524.5,-178 524.5,-160 448.5,-160"/>
<text text-anchor="start" x="514.5" y="-166.2" font-family="Helvetica,sans-Serif" font-size="11.00"> &#160;</text>
<polygon fill="#ffffff" stroke="transparent" points="524.5,-160 524.5,-178 601.5,-178 601.5,-160 524.5,-160"/>
<polygon fill="none" stroke="black" points="524.5,-160 524.5,-178 601.5,-178 601.5,-160 524.5,-160"/>
<text text-anchor="start" x="591.5" y="-166.2" font-family="Helvetica,sans-Serif" font-size="11.00"> &#160;</text>
</a>
</g>
</g>
<!-- published_activity_observation_media_files&#45;&gt;published_activities -->
<g id="edge2" class="edge">
<title>published_activity_observation_media_files:w&#45;&gt;published_activities:e</title>
<path fill="none" stroke="black" d="M284.99,-229C273.68,-229 266.49,-229 250.5,-229"/>
<polygon fill="black" stroke="black" points="291.5,-229 299.5,-232.6 295.5,-229 299.5,-229 299.5,-229 299.5,-229 295.5,-229 299.5,-225.4 291.5,-229 291.5,-229"/>
<ellipse fill="none" stroke="black" cx="288.3" cy="-229" rx="3.2" ry="3.2"/>
</g>
<!-- published_activity_observations -->
<g id="node4" class="node">
<title>published_activity_observations</title>
<g id="a_node4"><a xlink:href="../../tables/published_activity_observations.html" xlink:title="published_activity_observations" target="_top">
<polygon fill="#ffffff" stroke="transparent" points="333,-37 333,-139 568,-139 568,-37 333,-37"/>
<polygon fill="#f5f5f5" stroke="transparent" points="333.5,-117 333.5,-139 568.5,-139 568.5,-117 333.5,-117"/>
<polygon fill="none" stroke="black" points="333.5,-117 333.5,-139 568.5,-139 568.5,-117 333.5,-117"/>
<text text-anchor="start" x="338.5" y="-126.2" font-family="Helvetica,sans-Serif" font-weight="bold" font-size="11.00">published_activity_observations</text>
<text text-anchor="start" x="529.5" y="-125.2" font-family="Helvetica,sans-Serif" font-size="11.00">[table]</text>
<polygon fill="none" stroke="black" points="333.5,-95 333.5,-117 568.5,-117 568.5,-95 333.5,-95"/>
<image xlink:href="../../images/primaryKeys.png" width="11px" height="12px" preserveAspectRatio="xMinYMin meet" x="338.5" y="-112"/>
<text text-anchor="start" x="365.5" y="-103.2" font-family="Helvetica,sans-Serif" font-size="11.00">activity_id</text>
<polygon fill="#ffffff" stroke="transparent" points="333.5,-73 333.5,-95 568.5,-95 568.5,-73 333.5,-73"/>
<polygon fill="none" stroke="black" points="333.5,-73 333.5,-95 568.5,-95 568.5,-73 333.5,-73"/>
<text text-anchor="start" x="365.5" y="-81.2" font-family="Helvetica,sans-Serif" font-size="11.00">observation_id</text>
<polygon fill="none" stroke="black" points="333.5,-55 333.5,-73 568.5,-73 568.5,-55 333.5,-55"/>
<text text-anchor="start" x="336.5" y="-61.2" font-family="Helvetica,sans-Serif" font-size="11.00">...</text>
<polygon fill="#ffffff" stroke="transparent" points="333.5,-37 333.5,-55 448.5,-55 448.5,-37 333.5,-37"/>
<polygon fill="none" stroke="black" points="333.5,-37 333.5,-55 448.5,-55 448.5,-37 333.5,-37"/>
<text text-anchor="start" x="336.5" y="-43.2" font-family="Helvetica,sans-Serif" font-size="11.00">&lt; 1</text>
<polygon fill="#ffffff" stroke="transparent" points="448.5,-37 448.5,-55 508.5,-55 508.5,-37 448.5,-37"/>
<polygon fill="none" stroke="black" points="448.5,-37 448.5,-55 508.5,-55 508.5,-37 448.5,-37"/>
<text text-anchor="start" x="498.5" y="-43.2" font-family="Helvetica,sans-Serif" font-size="11.00"> &#160;</text>
<polygon fill="#ffffff" stroke="transparent" points="508.5,-37 508.5,-55 568.5,-55 568.5,-37 508.5,-37"/>
<polygon fill="none" stroke="black" points="508.5,-37 508.5,-55 568.5,-55 568.5,-37 508.5,-37"/>
<text text-anchor="start" x="558.5" y="-43.2" font-family="Helvetica,sans-Serif" font-size="11.00"> &#160;</text>
</a>
</g>
</g>
<!-- published_activity_observations&#45;&gt;published_activities -->
<g id="edge3" class="edge">
<title>published_activity_observations:w&#45;&gt;published_activities:e</title>
<path fill="none" stroke="black" d="M321.92,-107.54C305.95,-112.95 304.92,-131.67 292,-150 269.15,-182.42 290.16,-229 250.5,-229"/>
<polygon fill="black" stroke="black" points="331.13,-102.16 332.29,-110.07 330.7,-110.3 329.55,-102.39 331.13,-102.16"/>
<polyline fill="none" stroke="black" points="332.5,-106 328.54,-106.58 "/>
<ellipse fill="none" stroke="black" cx="325.38" cy="-107.04" rx="3.2" ry="3.2"/>
</g>
</g>
</svg>
