<?xml version="1.0" encoding="UTF-8" standalone="no"?>
<!DOCTYPE svg PUBLIC "-//W3C//DTD SVG 1.1//EN"
 "http://www.w3.org/Graphics/SVG/1.1/DTD/svg11.dtd">
<!-- Generated by graphviz version 2.38.0 (20140413.2041)
 -->
<!-- Title: oneDegreeRelationshipsDiagram Pages: 1 -->
<svg width="798pt" height="1367pt"
 viewBox="0.00 0.00 798.00 1367.00" xmlns="http://www.w3.org/2000/svg" xmlns:xlink="http://www.w3.org/1999/xlink">
<g id="graph0" class="graph" transform="scale(1 1) rotate(0) translate(4 1363)">
<title>oneDegreeRelationshipsDiagram</title>
<polygon fill="#ffffff" stroke="none" points="-4,4 -4,-1363 794,-1363 794,4 -4,4"/>
<text text-anchor="middle" x="74.5" y="-7.2" font-family="Helvetica,sans-Serif" font-size="11.00">Generated by SchemaSpy</text>
<!-- accelerator.project_accelerator_details -->
<g id="node1" class="node"><title>accelerator.project_accelerator_details</title>
<g id="a_node1"><a xlink:href="../../../accelerator/tables/project_accelerator_details.html" xlink:title="accelerator.project_accelerator_details" target="_top">
<polygon fill="#ffffff" stroke="none" points="511,-1275 511,-1355 782,-1355 782,-1275 511,-1275"/>
<polygon fill="#f5f5f5" stroke="none" points="511.5,-1333 511.5,-1355 782.5,-1355 782.5,-1333 511.5,-1333"/>
<polygon fill="none" stroke="black" points="511.5,-1333 511.5,-1355 782.5,-1355 782.5,-1333 511.5,-1333"/>
<text text-anchor="start" x="516.5" y="-1342.2" font-family="Helvetica,sans-Serif" font-weight="bold" font-size="11.00">accelerator.project_accelerator_details</text>
<text text-anchor="start" x="743.5" y="-1341.2" font-family="Helvetica,sans-Serif" font-size="11.00">[table]</text>
<polygon fill="none" stroke="black" points="511.5,-1311 511.5,-1333 782.5,-1333 782.5,-1311 511.5,-1311"/>
<image xlink:href="../../images/foreignKeys.png" width="11px" height="12px" preserveAspectRatio="xMinYMin meet" x="516.5" y="-1328"/>
<text text-anchor="start" x="568.5" y="-1319.2" font-family="Helvetica,sans-Serif" font-size="11.00">project_id</text>
<polygon fill="none" stroke="black" points="511.5,-1293 511.5,-1311 782.5,-1311 782.5,-1293 511.5,-1293"/>
<text text-anchor="start" x="514.5" y="-1299.2" font-family="Helvetica,sans-Serif" font-size="11.00">...</text>
<polygon fill="#ffffff" stroke="none" points="511.5,-1275 511.5,-1293 630.5,-1293 630.5,-1275 511.5,-1275"/>
<polygon fill="none" stroke="black" points="511.5,-1275 511.5,-1293 630.5,-1293 630.5,-1275 511.5,-1275"/>
<text text-anchor="start" x="514.5" y="-1281.2" font-family="Helvetica,sans-Serif" font-size="11.00">&lt; 1</text>
<polygon fill="#ffffff" stroke="none" points="630.5,-1275 630.5,-1293 720.5,-1293 720.5,-1275 630.5,-1275"/>
<polygon fill="none" stroke="black" points="630.5,-1275 630.5,-1293 720.5,-1293 720.5,-1275 630.5,-1275"/>
<text text-anchor="start" x="681.5" y="-1281.2" font-family="Helvetica,sans-Serif" font-size="11.00">0 rows</text>
<polygon fill="#ffffff" stroke="none" points="720.5,-1275 720.5,-1293 782.5,-1293 782.5,-1275 720.5,-1275"/>
<polygon fill="none" stroke="black" points="720.5,-1275 720.5,-1293 782.5,-1293 782.5,-1275 720.5,-1275"/>
<text text-anchor="start" x="772.5" y="-1281.2" font-family="Helvetica,sans-Serif" font-size="11.00"> &#160;</text>
</a>
</g>
</g>
<!-- projects -->
<g id="node2" class="node"><title>projects</title>
<g id="a_node2"><a xlink:href="../../tables/projects.html" xlink:title="projects" target="_top">
<polygon fill="#ffffff" stroke="none" points="244,-436 244,-700 462,-700 462,-436 244,-436"/>
<polygon fill="#f5f5f5" stroke="none" points="246,-676 246,-698 460,-698 460,-676 246,-676"/>
<polygon fill="none" stroke="black" points="246,-676 246,-698 460,-698 460,-676 246,-676"/>
<text text-anchor="start" x="251" y="-685.2" font-family="Helvetica,sans-Serif" font-weight="bold" font-size="11.00">projects</text>
<text text-anchor="start" x="421" y="-684.2" font-family="Helvetica,sans-Serif" font-size="11.00">[table]</text>
<polygon fill="none" stroke="black" points="246,-654 246,-676 358,-676 358,-654 246,-654"/>
<image xlink:href="../../images/primaryKeys.png" width="11px" height="12px" preserveAspectRatio="xMinYMin meet" x="251" y="-671"/>
<text text-anchor="start" x="266" y="-662.2" font-family="Helvetica,sans-Serif" font-size="11.00">id</text>
<polygon fill="none" stroke="black" points="358,-654 358,-676 460,-676 460,-654 358,-654"/>
<text text-anchor="start" x="361" y="-662.2" font-family="Helvetica,sans-Serif" font-size="11.00">int8[19]</text>
<polygon fill="#ffffff" stroke="none" points="246,-632 246,-654 358,-654 358,-632 246,-632"/>
<polygon fill="none" stroke="black" points="246,-632 246,-654 358,-654 358,-632 246,-632"/>
<text text-anchor="start" x="266" y="-640.2" font-family="Helvetica,sans-Serif" font-size="11.00">created_by</text>
<polygon fill="none" stroke="black" points="358,-632 358,-654 460,-654 460,-632 358,-632"/>
<text text-anchor="start" x="361" y="-640.2" font-family="Helvetica,sans-Serif" font-size="11.00">int8[19]</text>
<polygon fill="none" stroke="black" points="246,-610 246,-632 358,-632 358,-610 246,-610"/>
<text text-anchor="start" x="266" y="-618.2" font-family="Helvetica,sans-Serif" font-size="11.00">created_time</text>
<polygon fill="none" stroke="black" points="358,-610 358,-632 460,-632 460,-610 358,-610"/>
<text text-anchor="start" x="361" y="-618.2" font-family="Helvetica,sans-Serif" font-size="11.00">timestamptz[35,6]</text>
<polygon fill="#ffffff" stroke="none" points="246,-588 246,-610 358,-610 358,-588 246,-588"/>
<polygon fill="none" stroke="black" points="246,-588 246,-610 358,-610 358,-588 246,-588"/>
<text text-anchor="start" x="266" y="-596.2" font-family="Helvetica,sans-Serif" font-size="11.00">modified_by</text>
<polygon fill="none" stroke="black" points="358,-588 358,-610 460,-610 460,-588 358,-588"/>
<text text-anchor="start" x="361" y="-596.2" font-family="Helvetica,sans-Serif" font-size="11.00">int8[19]</text>
<polygon fill="none" stroke="black" points="246,-566 246,-588 358,-588 358,-566 246,-566"/>
<text text-anchor="start" x="266" y="-574.2" font-family="Helvetica,sans-Serif" font-size="11.00">modified_time</text>
<polygon fill="none" stroke="black" points="358,-566 358,-588 460,-588 460,-566 358,-566"/>
<text text-anchor="start" x="361" y="-574.2" font-family="Helvetica,sans-Serif" font-size="11.00">timestamptz[35,6]</text>
<polygon fill="#ffffff" stroke="none" points="246,-544 246,-566 358,-566 358,-544 246,-544"/>
<polygon fill="none" stroke="black" points="246,-544 246,-566 358,-566 358,-544 246,-544"/>
<text text-anchor="start" x="266" y="-552.2" font-family="Helvetica,sans-Serif" font-size="11.00">organization_id</text>
<polygon fill="none" stroke="black" points="358,-544 358,-566 460,-566 460,-544 358,-544"/>
<text text-anchor="start" x="361" y="-552.2" font-family="Helvetica,sans-Serif" font-size="11.00">int8[19]</text>
<polygon fill="#ffffff" stroke="none" points="246,-522 246,-544 358,-544 358,-522 246,-522"/>
<polygon fill="none" stroke="black" points="246,-522 246,-544 358,-544 358,-522 246,-522"/>
<text text-anchor="start" x="266" y="-530.2" font-family="Helvetica,sans-Serif" font-size="11.00">name</text>
<polygon fill="none" stroke="black" points="358,-522 358,-544 460,-544 460,-522 358,-522"/>
<text text-anchor="start" x="361" y="-530.2" font-family="Helvetica,sans-Serif" font-size="11.00">text[2147483647]</text>
<polygon fill="none" stroke="black" points="246,-500 246,-522 358,-522 358,-500 246,-500"/>
<text text-anchor="start" x="266" y="-508.2" font-family="Helvetica,sans-Serif" font-size="11.00">description</text>
<polygon fill="none" stroke="black" points="358,-500 358,-522 460,-522 460,-500 358,-500"/>
<text text-anchor="start" x="361" y="-508.2" font-family="Helvetica,sans-Serif" font-size="11.00">text[2147483647]</text>
<polygon fill="#ffffff" stroke="none" points="246,-478 246,-500 358,-500 358,-478 246,-478"/>
<polygon fill="none" stroke="black" points="246,-478 246,-500 358,-500 358,-478 246,-478"/>
<image xlink:href="../../images/foreignKeys.png" width="11px" height="12px" preserveAspectRatio="xMinYMin meet" x="251" y="-495"/>
<text text-anchor="start" x="266" y="-486.2" font-family="Helvetica,sans-Serif" font-size="11.00">participant_id</text>
<polygon fill="none" stroke="black" points="358,-478 358,-500 460,-500 460,-478 358,-478"/>
<text text-anchor="start" x="361" y="-486.2" font-family="Helvetica,sans-Serif" font-size="11.00">int8[19]</text>
<polygon fill="none" stroke="black" points="246,-456 246,-478 358,-478 358,-456 246,-456"/>
<text text-anchor="start" x="266" y="-464.2" font-family="Helvetica,sans-Serif" font-size="11.00">country_code</text>
<polygon fill="none" stroke="black" points="358,-456 358,-478 460,-478 460,-456 358,-456"/>
<text text-anchor="start" x="361" y="-464.2" font-family="Helvetica,sans-Serif" font-size="11.00">text[2147483647]</text>
<polygon fill="#ffffff" stroke="none" points="246,-438 246,-456 292,-456 292,-438 246,-438"/>
<polygon fill="none" stroke="black" points="246,-438 246,-456 292,-456 292,-438 246,-438"/>
<text text-anchor="start" x="249" y="-444.2" font-family="Helvetica,sans-Serif" font-size="11.00">&lt; 1</text>
<polygon fill="#ffffff" stroke="none" points="292,-438 292,-456 358,-456 358,-438 292,-438"/>
<polygon fill="none" stroke="black" points="292,-438 292,-456 358,-456 358,-438 292,-438"/>
<text text-anchor="start" x="319" y="-444.2" font-family="Helvetica,sans-Serif" font-size="11.00">0 rows</text>
<polygon fill="#ffffff" stroke="none" points="358,-438 358,-456 460,-456 460,-438 358,-438"/>
<polygon fill="none" stroke="black" points="358,-438 358,-456 460,-456 460,-438 358,-438"/>
<text text-anchor="start" x="433" y="-444.2" font-family="Helvetica,sans-Serif" font-size="11.00">14 &gt;</text>
<polygon fill="none" stroke="black" stroke-width="2" points="245,-437 245,-699 461,-699 461,-437 245,-437"/>
</a>
</g>
</g>
<!-- accelerator.project_accelerator_details&#45;&gt;projects -->
<g id="edge1" class="edge"><title>accelerator.project_accelerator_details:project_id:w&#45;&gt;projects:id.type:e</title>
<path fill="none" stroke="black" d="M498.374,-1314.16C449.079,-1240.04 529.488,-665 461,-665"/>
<polygon fill="black" stroke="black" points="503.781,-1317.66 508.546,-1325.02 507.14,-1319.83 510.5,-1322 510.5,-1322 510.5,-1322 507.14,-1319.83 512.454,-1318.98 503.781,-1317.66 503.781,-1317.66"/>
<ellipse fill="none" stroke="black" cx="501.093" cy="-1315.92" rx="3.20001" ry="3.20001"/>
</g>
<!-- accelerator.participants -->
<g id="node12" class="node"><title>accelerator.participants</title>
<g id="a_node12"><a xlink:href="../../../accelerator/tables/participants.html" xlink:title="accelerator.participants" target="_top">
<polygon fill="#ffffff" stroke="none" points="8,-460 8,-518 195,-518 195,-460 8,-460"/>
<polygon fill="#f5f5f5" stroke="none" points="8.5,-496 8.5,-518 195.5,-518 195.5,-496 8.5,-496"/>
<polygon fill="none" stroke="black" points="8.5,-496 8.5,-518 195.5,-518 195.5,-496 8.5,-496"/>
<text text-anchor="start" x="13.5" y="-505.2" font-family="Helvetica,sans-Serif" font-weight="bold" font-size="11.00">accelerator.participants</text>
<text text-anchor="start" x="156.5" y="-504.2" font-family="Helvetica,sans-Serif" font-size="11.00">[table]</text>
<polygon fill="none" stroke="black" points="8.5,-478 8.5,-496 195.5,-496 195.5,-478 8.5,-478"/>
<text text-anchor="start" x="11.5" y="-484.2" font-family="Helvetica,sans-Serif" font-size="11.00">...</text>
<polygon fill="#ffffff" stroke="none" points="8.5,-460 8.5,-478 75.5,-478 75.5,-460 8.5,-460"/>
<polygon fill="none" stroke="black" points="8.5,-460 8.5,-478 75.5,-478 75.5,-460 8.5,-460"/>
<text text-anchor="start" x="11.5" y="-466.2" font-family="Helvetica,sans-Serif" font-size="11.00"> &#160;</text>
<polygon fill="#ffffff" stroke="none" points="75.5,-460 75.5,-478 144.5,-478 144.5,-460 75.5,-460"/>
<polygon fill="none" stroke="black" points="75.5,-460 75.5,-478 144.5,-478 144.5,-460 75.5,-460"/>
<text text-anchor="start" x="105.5" y="-466.2" font-family="Helvetica,sans-Serif" font-size="11.00">0 rows</text>
<polygon fill="#ffffff" stroke="none" points="144.5,-460 144.5,-478 195.5,-478 195.5,-460 144.5,-460"/>
<polygon fill="none" stroke="black" points="144.5,-460 144.5,-478 195.5,-478 195.5,-460 144.5,-460"/>
<text text-anchor="start" x="175.5" y="-466.2" font-family="Helvetica,sans-Serif" font-size="11.00">1 &gt;</text>
</a>
</g>
</g>
<!-- projects&#45;&gt;accelerator.participants -->
<g id="edge11" class="edge"><title>projects:participant_id:w&#45;&gt;accelerator.participants:id:e</title>
<path fill="none" stroke="black" d="M230.553,-489C221.557,-489 212.394,-489 203.315,-489"/>
<polygon fill="black" stroke="black" points="237,-489 245,-492.6 241,-489 245,-489 245,-489 245,-489 241,-489 245,-485.4 237,-489 237,-489"/>
<ellipse fill="none" stroke="black" cx="233.8" cy="-489" rx="3.2" ry="3.2"/>
</g>
<!-- accelerator.project_document_settings -->
<g id="node3" class="node"><title>accelerator.project_document_settings</title>
<g id="a_node3"><a xlink:href="../../../accelerator/tables/project_document_settings.html" xlink:title="accelerator.project_document_settings" target="_top">
<polygon fill="#ffffff" stroke="none" points="511,-1174 511,-1254 782,-1254 782,-1174 511,-1174"/>
<polygon fill="#f5f5f5" stroke="none" points="511.5,-1232 511.5,-1254 782.5,-1254 782.5,-1232 511.5,-1232"/>
<polygon fill="none" stroke="black" points="511.5,-1232 511.5,-1254 782.5,-1254 782.5,-1232 511.5,-1232"/>
<text text-anchor="start" x="516.5" y="-1241.2" font-family="Helvetica,sans-Serif" font-weight="bold" font-size="11.00">accelerator.project_document_settings</text>
<text text-anchor="start" x="743.5" y="-1240.2" font-family="Helvetica,sans-Serif" font-size="11.00">[table]</text>
<polygon fill="none" stroke="black" points="511.5,-1210 511.5,-1232 782.5,-1232 782.5,-1210 511.5,-1210"/>
<image xlink:href="../../images/foreignKeys.png" width="11px" height="12px" preserveAspectRatio="xMinYMin meet" x="516.5" y="-1227"/>
<text text-anchor="start" x="576.5" y="-1218.2" font-family="Helvetica,sans-Serif" font-size="11.00">project_id</text>
<polygon fill="none" stroke="black" points="511.5,-1192 511.5,-1210 782.5,-1210 782.5,-1192 511.5,-1192"/>
<text text-anchor="start" x="514.5" y="-1198.2" font-family="Helvetica,sans-Serif" font-size="11.00">...</text>
<polygon fill="#ffffff" stroke="none" points="511.5,-1174 511.5,-1192 630.5,-1192 630.5,-1174 511.5,-1174"/>
<polygon fill="none" stroke="black" points="511.5,-1174 511.5,-1192 630.5,-1192 630.5,-1174 511.5,-1174"/>
<text text-anchor="start" x="514.5" y="-1180.2" font-family="Helvetica,sans-Serif" font-size="11.00">&lt; 1</text>
<polygon fill="#ffffff" stroke="none" points="630.5,-1174 630.5,-1192 720.5,-1192 720.5,-1174 630.5,-1174"/>
<polygon fill="none" stroke="black" points="630.5,-1174 630.5,-1192 720.5,-1192 720.5,-1174 630.5,-1174"/>
<text text-anchor="start" x="681.5" y="-1180.2" font-family="Helvetica,sans-Serif" font-size="11.00">0 rows</text>
<polygon fill="#ffffff" stroke="none" points="720.5,-1174 720.5,-1192 782.5,-1192 782.5,-1174 720.5,-1174"/>
<polygon fill="none" stroke="black" points="720.5,-1174 720.5,-1192 782.5,-1192 782.5,-1174 720.5,-1174"/>
<text text-anchor="start" x="772.5" y="-1180.2" font-family="Helvetica,sans-Serif" font-size="11.00"> &#160;</text>
</a>
</g>
</g>
<!-- accelerator.project_document_settings&#45;&gt;projects -->
<g id="edge2" class="edge"><title>accelerator.project_document_settings:project_id:w&#45;&gt;projects:id.type:e</title>
<path fill="none" stroke="black" d="M498.836,-1212.27C458.791,-1141.53 518.419,-665 461,-665"/>
<polygon fill="black" stroke="black" points="504.096,-1216.21 508.342,-1223.88 507.298,-1218.6 510.5,-1221 510.5,-1221 510.5,-1221 507.298,-1218.6 512.658,-1218.12 504.096,-1216.21 504.096,-1216.21"/>
<ellipse fill="none" stroke="black" cx="501.534" cy="-1214.29" rx="3.20001" ry="3.20001"/>
</g>
<!-- accelerator.project_scores -->
<g id="node4" class="node"><title>accelerator.project_scores</title>
<g id="a_node4"><a xlink:href="../../../accelerator/tables/project_scores.html" xlink:title="accelerator.project_scores" target="_top">
<polygon fill="#ffffff" stroke="none" points="547.5,-1073 547.5,-1153 745.5,-1153 745.5,-1073 547.5,-1073"/>
<polygon fill="#f5f5f5" stroke="none" points="547.5,-1131 547.5,-1153 745.5,-1153 745.5,-1131 547.5,-1131"/>
<polygon fill="none" stroke="black" points="547.5,-1131 547.5,-1153 745.5,-1153 745.5,-1131 547.5,-1131"/>
<text text-anchor="start" x="552.5" y="-1140.2" font-family="Helvetica,sans-Serif" font-weight="bold" font-size="11.00">accelerator.project_scores</text>
<text text-anchor="start" x="706.5" y="-1139.2" font-family="Helvetica,sans-Serif" font-size="11.00">[table]</text>
<polygon fill="none" stroke="black" points="547.5,-1109 547.5,-1131 745.5,-1131 745.5,-1109 547.5,-1109"/>
<image xlink:href="../../images/foreignKeys.png" width="11px" height="12px" preserveAspectRatio="xMinYMin meet" x="552.5" y="-1126"/>
<text text-anchor="start" x="603.5" y="-1117.2" font-family="Helvetica,sans-Serif" font-size="11.00">project_id</text>
<polygon fill="none" stroke="black" points="547.5,-1091 547.5,-1109 745.5,-1109 745.5,-1091 547.5,-1091"/>
<text text-anchor="start" x="550.5" y="-1097.2" font-family="Helvetica,sans-Serif" font-size="11.00">...</text>
<polygon fill="#ffffff" stroke="none" points="547.5,-1073 547.5,-1091 630.5,-1091 630.5,-1073 547.5,-1073"/>
<polygon fill="none" stroke="black" points="547.5,-1073 547.5,-1091 630.5,-1091 630.5,-1073 547.5,-1073"/>
<text text-anchor="start" x="550.5" y="-1079.2" font-family="Helvetica,sans-Serif" font-size="11.00">&lt; 1</text>
<polygon fill="#ffffff" stroke="none" points="630.5,-1073 630.5,-1091 702.5,-1091 702.5,-1073 630.5,-1073"/>
<polygon fill="none" stroke="black" points="630.5,-1073 630.5,-1091 702.5,-1091 702.5,-1073 630.5,-1073"/>
<text text-anchor="start" x="663.5" y="-1079.2" font-family="Helvetica,sans-Serif" font-size="11.00">0 rows</text>
<polygon fill="#ffffff" stroke="none" points="702.5,-1073 702.5,-1091 745.5,-1091 745.5,-1073 702.5,-1073"/>
<polygon fill="none" stroke="black" points="702.5,-1073 702.5,-1091 745.5,-1091 745.5,-1073 702.5,-1073"/>
<text text-anchor="start" x="735.5" y="-1079.2" font-family="Helvetica,sans-Serif" font-size="11.00"> &#160;</text>
</a>
</g>
</g>
<!-- accelerator.project_scores&#45;&gt;projects -->
<g id="edge3" class="edge"><title>accelerator.project_scores:project_id:w&#45;&gt;projects:id.type:e</title>
<path fill="none" stroke="black" d="M532.167,-1117.49C514.299,-1110.09 512.66,-1087.29 503,-1063 486.568,-1021.68 505.468,-665 461,-665"/>
<polygon fill="black" stroke="black" points="538.62,-1118.62 545.88,-1123.55 542.56,-1119.31 546.5,-1120 546.5,-1120 546.5,-1120 542.56,-1119.31 547.12,-1116.45 538.62,-1118.62 538.62,-1118.62"/>
<ellipse fill="none" stroke="black" cx="535.467" cy="-1118.07" rx="3.2" ry="3.2"/>
</g>
<!-- accelerator.project_vote_decisions -->
<g id="node5" class="node"><title>accelerator.project_vote_decisions</title>
<g id="a_node5"><a xlink:href="../../../accelerator/tables/project_vote_decisions.html" xlink:title="accelerator.project_vote_decisions" target="_top">
<polygon fill="#ffffff" stroke="none" points="524,-972 524,-1052 769,-1052 769,-972 524,-972"/>
<polygon fill="#f5f5f5" stroke="none" points="524.5,-1030 524.5,-1052 769.5,-1052 769.5,-1030 524.5,-1030"/>
<polygon fill="none" stroke="black" points="524.5,-1030 524.5,-1052 769.5,-1052 769.5,-1030 524.5,-1030"/>
<text text-anchor="start" x="529.5" y="-1039.2" font-family="Helvetica,sans-Serif" font-weight="bold" font-size="11.00">accelerator.project_vote_decisions</text>
<text text-anchor="start" x="730.5" y="-1038.2" font-family="Helvetica,sans-Serif" font-size="11.00">[table]</text>
<polygon fill="none" stroke="black" points="524.5,-1008 524.5,-1030 769.5,-1030 769.5,-1008 524.5,-1008"/>
<image xlink:href="../../images/foreignKeys.png" width="11px" height="12px" preserveAspectRatio="xMinYMin meet" x="529.5" y="-1025"/>
<text text-anchor="start" x="589.5" y="-1016.2" font-family="Helvetica,sans-Serif" font-size="11.00">project_id</text>
<polygon fill="none" stroke="black" points="524.5,-990 524.5,-1008 769.5,-1008 769.5,-990 524.5,-990"/>
<text text-anchor="start" x="527.5" y="-996.2" font-family="Helvetica,sans-Serif" font-size="11.00">...</text>
<polygon fill="#ffffff" stroke="none" points="524.5,-972 524.5,-990 630.5,-990 630.5,-972 524.5,-972"/>
<polygon fill="none" stroke="black" points="524.5,-972 524.5,-990 630.5,-990 630.5,-972 524.5,-972"/>
<text text-anchor="start" x="527.5" y="-978.2" font-family="Helvetica,sans-Serif" font-size="11.00">&lt; 1</text>
<polygon fill="#ffffff" stroke="none" points="630.5,-972 630.5,-990 714.5,-990 714.5,-972 630.5,-972"/>
<polygon fill="none" stroke="black" points="630.5,-972 630.5,-990 714.5,-990 714.5,-972 630.5,-972"/>
<text text-anchor="start" x="675.5" y="-978.2" font-family="Helvetica,sans-Serif" font-size="11.00">0 rows</text>
<polygon fill="#ffffff" stroke="none" points="714.5,-972 714.5,-990 769.5,-990 769.5,-972 714.5,-972"/>
<polygon fill="none" stroke="black" points="714.5,-972 714.5,-990 769.5,-990 769.5,-972 714.5,-972"/>
<text text-anchor="start" x="759.5" y="-978.2" font-family="Helvetica,sans-Serif" font-size="11.00"> &#160;</text>
</a>
</g>
</g>
<!-- accelerator.project_vote_decisions&#45;&gt;projects -->
<g id="edge4" class="edge"><title>accelerator.project_vote_decisions:project_id:w&#45;&gt;projects:id.type:e</title>
<path fill="none" stroke="black" d="M509.488,-1014.26C456.087,-972.256 535.423,-665 461,-665"/>
<polygon fill="black" stroke="black" points="515.921,-1016.44 522.347,-1022.41 519.711,-1017.72 523.5,-1019 523.5,-1019 523.5,-1019 519.711,-1017.72 524.653,-1015.59 515.921,-1016.44 515.921,-1016.44"/>
<ellipse fill="none" stroke="black" cx="512.89" cy="-1015.41" rx="3.20001" ry="3.20001"/>
</g>
<!-- accelerator.project_votes -->
<g id="node6" class="node"><title>accelerator.project_votes</title>
<g id="a_node6"><a xlink:href="../../../accelerator/tables/project_votes.html" xlink:title="accelerator.project_votes" target="_top">
<polygon fill="#ffffff" stroke="none" points="550,-871 550,-951 743,-951 743,-871 550,-871"/>
<polygon fill="#f5f5f5" stroke="none" points="550.5,-929 550.5,-951 743.5,-951 743.5,-929 550.5,-929"/>
<polygon fill="none" stroke="black" points="550.5,-929 550.5,-951 743.5,-951 743.5,-929 550.5,-929"/>
<text text-anchor="start" x="555.5" y="-938.2" font-family="Helvetica,sans-Serif" font-weight="bold" font-size="11.00">accelerator.project_votes</text>
<text text-anchor="start" x="704.5" y="-937.2" font-family="Helvetica,sans-Serif" font-size="11.00">[table]</text>
<polygon fill="none" stroke="black" points="550.5,-907 550.5,-929 743.5,-929 743.5,-907 550.5,-907"/>
<image xlink:href="../../images/foreignKeys.png" width="11px" height="12px" preserveAspectRatio="xMinYMin meet" x="555.5" y="-924"/>
<text text-anchor="start" x="608.5" y="-915.2" font-family="Helvetica,sans-Serif" font-size="11.00">project_id</text>
<polygon fill="none" stroke="black" points="550.5,-889 550.5,-907 743.5,-907 743.5,-889 550.5,-889"/>
<text text-anchor="start" x="553.5" y="-895.2" font-family="Helvetica,sans-Serif" font-size="11.00">...</text>
<polygon fill="#ffffff" stroke="none" points="550.5,-871 550.5,-889 630.5,-889 630.5,-871 550.5,-871"/>
<polygon fill="none" stroke="black" points="550.5,-871 550.5,-889 630.5,-889 630.5,-871 550.5,-871"/>
<text text-anchor="start" x="553.5" y="-877.2" font-family="Helvetica,sans-Serif" font-size="11.00">&lt; 1</text>
<polygon fill="#ffffff" stroke="none" points="630.5,-871 630.5,-889 701.5,-889 701.5,-871 630.5,-871"/>
<polygon fill="none" stroke="black" points="630.5,-871 630.5,-889 701.5,-889 701.5,-871 630.5,-871"/>
<text text-anchor="start" x="662.5" y="-877.2" font-family="Helvetica,sans-Serif" font-size="11.00">0 rows</text>
<polygon fill="#ffffff" stroke="none" points="701.5,-871 701.5,-889 743.5,-889 743.5,-871 701.5,-871"/>
<polygon fill="none" stroke="black" points="701.5,-871 701.5,-889 743.5,-889 743.5,-871 701.5,-871"/>
<text text-anchor="start" x="733.5" y="-877.2" font-family="Helvetica,sans-Serif" font-size="11.00"> &#160;</text>
</a>
</g>
</g>
<!-- accelerator.project_votes&#45;&gt;projects -->
<g id="edge5" class="edge"><title>accelerator.project_votes:project_id:w&#45;&gt;projects:id.type:e</title>
<path fill="none" stroke="black" d="M535.064,-915.587C516.48,-908.262 514.665,-885.291 503,-861 483.717,-820.846 505.544,-665 461,-665"/>
<polygon fill="black" stroke="black" points="541.609,-916.681 548.907,-921.551 545.555,-917.341 549.5,-918 549.5,-918 549.5,-918 545.555,-917.341 550.093,-914.449 541.609,-916.681 541.609,-916.681"/>
<ellipse fill="none" stroke="black" cx="538.453" cy="-916.154" rx="3.2" ry="3.2"/>
</g>
<!-- accelerator.submission_documents -->
<g id="node7" class="node"><title>accelerator.submission_documents</title>
<g id="a_node7"><a xlink:href="../../../accelerator/tables/submission_documents.html" xlink:title="accelerator.submission_documents" target="_top">
<polygon fill="#ffffff" stroke="none" points="522,-770 522,-850 771,-850 771,-770 522,-770"/>
<polygon fill="#f5f5f5" stroke="none" points="522.5,-828 522.5,-850 771.5,-850 771.5,-828 522.5,-828"/>
<polygon fill="none" stroke="black" points="522.5,-828 522.5,-850 771.5,-850 771.5,-828 522.5,-828"/>
<text text-anchor="start" x="527.5" y="-837.2" font-family="Helvetica,sans-Serif" font-weight="bold" font-size="11.00">accelerator.submission_documents</text>
<text text-anchor="start" x="732.5" y="-836.2" font-family="Helvetica,sans-Serif" font-size="11.00">[table]</text>
<polygon fill="none" stroke="black" points="522.5,-806 522.5,-828 771.5,-828 771.5,-806 522.5,-806"/>
<image xlink:href="../../images/foreignKeys.png" width="11px" height="12px" preserveAspectRatio="xMinYMin meet" x="527.5" y="-823"/>
<text text-anchor="start" x="587.5" y="-814.2" font-family="Helvetica,sans-Serif" font-size="11.00">project_id</text>
<polygon fill="none" stroke="black" points="522.5,-788 522.5,-806 771.5,-806 771.5,-788 522.5,-788"/>
<text text-anchor="start" x="525.5" y="-794.2" font-family="Helvetica,sans-Serif" font-size="11.00">...</text>
<polygon fill="#ffffff" stroke="none" points="522.5,-770 522.5,-788 630.5,-788 630.5,-770 522.5,-770"/>
<polygon fill="none" stroke="black" points="522.5,-770 522.5,-788 630.5,-788 630.5,-770 522.5,-770"/>
<text text-anchor="start" x="525.5" y="-776.2" font-family="Helvetica,sans-Serif" font-size="11.00">&lt; 1</text>
<polygon fill="#ffffff" stroke="none" points="630.5,-770 630.5,-788 715.5,-788 715.5,-770 630.5,-770"/>
<polygon fill="none" stroke="black" points="630.5,-770 630.5,-788 715.5,-788 715.5,-770 630.5,-770"/>
<text text-anchor="start" x="676.5" y="-776.2" font-family="Helvetica,sans-Serif" font-size="11.00">0 rows</text>
<polygon fill="#ffffff" stroke="none" points="715.5,-770 715.5,-788 771.5,-788 771.5,-770 715.5,-770"/>
<polygon fill="none" stroke="black" points="715.5,-770 715.5,-788 771.5,-788 771.5,-770 715.5,-770"/>
<text text-anchor="start" x="761.5" y="-776.2" font-family="Helvetica,sans-Serif" font-size="11.00"> &#160;</text>
</a>
</g>
</g>
<!-- accelerator.submission_documents&#45;&gt;projects -->
<g id="edge6" class="edge"><title>accelerator.submission_documents:project_id:w&#45;&gt;projects:id.type:e</title>
<path fill="none" stroke="black" d="M507.195,-814.362C461.097,-794.178 528.03,-665 461,-665"/>
<polygon fill="black" stroke="black" points="513.633,-815.549 520.847,-820.54 517.566,-816.275 521.5,-817 521.5,-817 521.5,-817 517.566,-816.275 522.153,-813.46 513.633,-815.549 513.633,-815.549"/>
<ellipse fill="none" stroke="black" cx="510.486" cy="-814.969" rx="3.2" ry="3.2"/>
</g>
<!-- accelerator.submissions -->
<g id="node8" class="node"><title>accelerator.submissions</title>
<g id="a_node8"><a xlink:href="../../../accelerator/tables/submissions.html" xlink:title="accelerator.submissions" target="_top">
<polygon fill="#ffffff" stroke="none" points="553.5,-669 553.5,-749 739.5,-749 739.5,-669 553.5,-669"/>
<polygon fill="#f5f5f5" stroke="none" points="553.5,-727 553.5,-749 739.5,-749 739.5,-727 553.5,-727"/>
<polygon fill="none" stroke="black" points="553.5,-727 553.5,-749 739.5,-749 739.5,-727 553.5,-727"/>
<text text-anchor="start" x="558.5" y="-736.2" font-family="Helvetica,sans-Serif" font-weight="bold" font-size="11.00">accelerator.submissions</text>
<text text-anchor="start" x="700.5" y="-735.2" font-family="Helvetica,sans-Serif" font-size="11.00">[table]</text>
<polygon fill="none" stroke="black" points="553.5,-705 553.5,-727 739.5,-727 739.5,-705 553.5,-705"/>
<image xlink:href="../../images/foreignKeys.png" width="11px" height="12px" preserveAspectRatio="xMinYMin meet" x="558.5" y="-722"/>
<text text-anchor="start" x="593.5" y="-713.2" font-family="Helvetica,sans-Serif" font-size="11.00">project_id</text>
<polygon fill="none" stroke="black" points="553.5,-687 553.5,-705 739.5,-705 739.5,-687 553.5,-687"/>
<text text-anchor="start" x="556.5" y="-693.2" font-family="Helvetica,sans-Serif" font-size="11.00">...</text>
<polygon fill="#ffffff" stroke="none" points="553.5,-669 553.5,-687 630.5,-687 630.5,-669 553.5,-669"/>
<polygon fill="none" stroke="black" points="553.5,-669 553.5,-687 630.5,-687 630.5,-669 553.5,-669"/>
<text text-anchor="start" x="556.5" y="-675.2" font-family="Helvetica,sans-Serif" font-size="11.00">&lt; 1</text>
<polygon fill="#ffffff" stroke="none" points="630.5,-669 630.5,-687 699.5,-687 699.5,-669 630.5,-669"/>
<polygon fill="none" stroke="black" points="630.5,-669 630.5,-687 699.5,-687 699.5,-669 630.5,-669"/>
<text text-anchor="start" x="660.5" y="-675.2" font-family="Helvetica,sans-Serif" font-size="11.00">0 rows</text>
<polygon fill="#ffffff" stroke="none" points="699.5,-669 699.5,-687 739.5,-687 739.5,-669 699.5,-669"/>
<polygon fill="none" stroke="black" points="699.5,-669 699.5,-687 739.5,-687 739.5,-669 699.5,-669"/>
<text text-anchor="start" x="729.5" y="-675.2" font-family="Helvetica,sans-Serif" font-size="11.00"> &#160;</text>
</a>
</g>
</g>
<!-- accelerator.submissions&#45;&gt;projects -->
<g id="edge7" class="edge"><title>accelerator.submissions:project_id:w&#45;&gt;projects:id.type:e</title>
<path fill="none" stroke="black" d="M537.962,-714.063C505.66,-704.747 502.101,-665 461,-665"/>
<polygon fill="black" stroke="black" points="544.57,-714.943 552.025,-719.568 548.535,-715.472 552.5,-716 552.5,-716 552.5,-716 548.535,-715.472 552.975,-712.432 544.57,-714.943 544.57,-714.943"/>
<ellipse fill="none" stroke="black" cx="541.398" cy="-714.521" rx="3.2" ry="3.2"/>
</g>
<!-- nursery.batch_details_history -->
<g id="node9" class="node"><title>nursery.batch_details_history</title>
<g id="a_node9"><a xlink:href="../../../nursery/tables/batch_details_history.html" xlink:title="nursery.batch_details_history" target="_top">
<polygon fill="#ffffff" stroke="none" points="538,-568 538,-648 755,-648 755,-568 538,-568"/>
<polygon fill="#f5f5f5" stroke="none" points="538.5,-626 538.5,-648 755.5,-648 755.5,-626 538.5,-626"/>
<polygon fill="none" stroke="black" points="538.5,-626 538.5,-648 755.5,-648 755.5,-626 538.5,-626"/>
<text text-anchor="start" x="543.5" y="-635.2" font-family="Helvetica,sans-Serif" font-weight="bold" font-size="11.00">nursery.batch_details_history</text>
<text text-anchor="start" x="716.5" y="-634.2" font-family="Helvetica,sans-Serif" font-size="11.00">[table]</text>
<polygon fill="none" stroke="black" points="538.5,-604 538.5,-626 755.5,-626 755.5,-604 538.5,-604"/>
<image xlink:href="../../images/foreignKeys.png" width="11px" height="12px" preserveAspectRatio="xMinYMin meet" x="543.5" y="-621"/>
<text text-anchor="start" x="593.5" y="-612.2" font-family="Helvetica,sans-Serif" font-size="11.00">project_id</text>
<polygon fill="none" stroke="black" points="538.5,-586 538.5,-604 755.5,-604 755.5,-586 538.5,-586"/>
<text text-anchor="start" x="541.5" y="-592.2" font-family="Helvetica,sans-Serif" font-size="11.00">...</text>
<polygon fill="#ffffff" stroke="none" points="538.5,-568 538.5,-586 630.5,-586 630.5,-568 538.5,-568"/>
<polygon fill="none" stroke="black" points="538.5,-568 538.5,-586 630.5,-586 630.5,-568 538.5,-568"/>
<text text-anchor="start" x="541.5" y="-574.2" font-family="Helvetica,sans-Serif" font-size="11.00">&lt; 1</text>
<polygon fill="#ffffff" stroke="none" points="630.5,-568 630.5,-586 707.5,-586 707.5,-568 630.5,-568"/>
<polygon fill="none" stroke="black" points="630.5,-568 630.5,-586 707.5,-586 707.5,-568 630.5,-568"/>
<text text-anchor="start" x="668.5" y="-574.2" font-family="Helvetica,sans-Serif" font-size="11.00">0 rows</text>
<polygon fill="#ffffff" stroke="none" points="707.5,-568 707.5,-586 755.5,-586 755.5,-568 707.5,-568"/>
<polygon fill="none" stroke="black" points="707.5,-568 707.5,-586 755.5,-586 755.5,-568 707.5,-568"/>
<text text-anchor="start" x="745.5" y="-574.2" font-family="Helvetica,sans-Serif" font-size="11.00"> &#160;</text>
</a>
</g>
</g>
<!-- nursery.batch_details_history&#45;&gt;projects -->
<g id="edge8" class="edge"><title>nursery.batch_details_history:project_id:w&#45;&gt;projects:id.type:e</title>
<path fill="none" stroke="black" d="M523.152,-617.548C497.329,-627.737 496.065,-665 461,-665"/>
<polygon fill="black" stroke="black" points="529.623,-616.399 538.13,-618.545 533.562,-615.699 537.5,-615 537.5,-615 537.5,-615 533.562,-615.699 536.87,-611.455 529.623,-616.399 529.623,-616.399"/>
<ellipse fill="none" stroke="black" cx="526.473" cy="-616.959" rx="3.2" ry="3.2"/>
</g>
<!-- nursery.batches -->
<g id="node10" class="node"><title>nursery.batches</title>
<g id="a_node10"><a xlink:href="../../../nursery/tables/batches.html" xlink:title="nursery.batches" target="_top">
<polygon fill="#ffffff" stroke="none" points="521.5,-467 521.5,-547 771.5,-547 771.5,-467 521.5,-467"/>
<polygon fill="#f5f5f5" stroke="none" points="521.5,-525 521.5,-547 771.5,-547 771.5,-525 521.5,-525"/>
<polygon fill="none" stroke="black" points="521.5,-525 521.5,-547 771.5,-547 771.5,-525 521.5,-525"/>
<text text-anchor="start" x="526.5" y="-534.2" font-family="Helvetica,sans-Serif" font-weight="bold" font-size="11.00">nursery.batches</text>
<text text-anchor="start" x="732.5" y="-533.2" font-family="Helvetica,sans-Serif" font-size="11.00">[table]</text>
<polygon fill="none" stroke="black" points="521.5,-503 521.5,-525 771.5,-525 771.5,-503 521.5,-503"/>
<image xlink:href="../../images/foreignKeys.png" width="11px" height="12px" preserveAspectRatio="xMinYMin meet" x="526.5" y="-520"/>
<text text-anchor="start" x="541.5" y="-511.2" font-family="Helvetica,sans-Serif" font-size="11.00">project_id</text>
<polygon fill="none" stroke="black" points="521.5,-485 521.5,-503 771.5,-503 771.5,-485 521.5,-485"/>
<text text-anchor="start" x="524.5" y="-491.2" font-family="Helvetica,sans-Serif" font-size="11.00">...</text>
<polygon fill="#ffffff" stroke="none" points="521.5,-467 521.5,-485 630.5,-485 630.5,-467 521.5,-467"/>
<polygon fill="none" stroke="black" points="521.5,-467 521.5,-485 630.5,-485 630.5,-467 521.5,-467"/>
<text text-anchor="start" x="524.5" y="-473.2" font-family="Helvetica,sans-Serif" font-size="11.00">&lt; 1</text>
<polygon fill="#ffffff" stroke="none" points="630.5,-467 630.5,-485 715.5,-485 715.5,-467 630.5,-467"/>
<polygon fill="none" stroke="black" points="630.5,-467 630.5,-485 715.5,-485 715.5,-467 630.5,-467"/>
<text text-anchor="start" x="676.5" y="-473.2" font-family="Helvetica,sans-Serif" font-size="11.00">0 rows</text>
<polygon fill="#ffffff" stroke="none" points="715.5,-467 715.5,-485 771.5,-485 771.5,-467 715.5,-467"/>
<polygon fill="none" stroke="black" points="715.5,-467 715.5,-485 771.5,-485 771.5,-467 715.5,-467"/>
<text text-anchor="start" x="761.5" y="-473.2" font-family="Helvetica,sans-Serif" font-size="11.00"> &#160;</text>
</a>
</g>
</g>
<!-- nursery.batches&#45;&gt;projects -->
<g id="edge9" class="edge"><title>nursery.batches:project_id:w&#45;&gt;projects:id.type:e</title>
<path fill="none" stroke="black" d="M506.317,-516.621C460.654,-536.672 527.498,-665 461,-665"/>
<polygon fill="black" stroke="black" points="512.633,-515.454 521.154,-517.54 516.567,-514.727 520.5,-514 520.5,-514 520.5,-514 516.567,-514.727 519.846,-510.46 512.633,-515.454 512.633,-515.454"/>
<ellipse fill="none" stroke="black" cx="509.486" cy="-516.035" rx="3.2" ry="3.2"/>
</g>
<!-- project_land_use_model_types -->
<g id="node11" class="node"><title>project_land_use_model_types</title>
<g id="a_node11"><a xlink:href="../../tables/project_land_use_model_types.html" xlink:title="project_land_use_model_types" target="_top">
<polygon fill="#ffffff" stroke="none" points="536.5,-362 536.5,-446 756.5,-446 756.5,-362 536.5,-362"/>
<polygon fill="#f5f5f5" stroke="none" points="536.5,-424 536.5,-446 756.5,-446 756.5,-424 536.5,-424"/>
<polygon fill="none" stroke="black" points="536.5,-424 536.5,-446 756.5,-446 756.5,-424 536.5,-424"/>
<text text-anchor="start" x="541.5" y="-433.2" font-family="Helvetica,sans-Serif" font-weight="bold" font-size="11.00">project_land_use_model_types</text>
<text text-anchor="start" x="717.5" y="-432.2" font-family="Helvetica,sans-Serif" font-size="11.00">[table]</text>
<polygon fill="none" stroke="black" points="536.5,-402 536.5,-424 756.5,-424 756.5,-402 536.5,-402"/>
<image xlink:href="../../images/primaryKeys.png" width="11px" height="12px" preserveAspectRatio="xMinYMin meet" x="541.5" y="-419"/>
<text text-anchor="start" x="566.5" y="-410.2" font-family="Helvetica,sans-Serif" font-size="11.00">project_id</text>
<polygon fill="none" stroke="black" points="536.5,-380 536.5,-402 756.5,-402 756.5,-380 536.5,-380"/>
<image xlink:href="../../images/primaryKeys.png" width="11px" height="12px" preserveAspectRatio="xMinYMin meet" x="541.5" y="-397"/>
<text text-anchor="start" x="566.5" y="-388.2" font-family="Helvetica,sans-Serif" font-size="11.00">land_use_model_type_id</text>
<polygon fill="#ffffff" stroke="none" points="536.5,-362 536.5,-380 630.5,-380 630.5,-362 536.5,-362"/>
<polygon fill="none" stroke="black" points="536.5,-362 536.5,-380 630.5,-380 630.5,-362 536.5,-362"/>
<text text-anchor="start" x="539.5" y="-368.2" font-family="Helvetica,sans-Serif" font-size="11.00">&lt; 2</text>
<polygon fill="#ffffff" stroke="none" points="630.5,-362 630.5,-380 707.5,-380 707.5,-362 630.5,-362"/>
<polygon fill="none" stroke="black" points="630.5,-362 630.5,-380 707.5,-380 707.5,-362 630.5,-362"/>
<text text-anchor="start" x="668.5" y="-368.2" font-family="Helvetica,sans-Serif" font-size="11.00">0 rows</text>
<polygon fill="#ffffff" stroke="none" points="707.5,-362 707.5,-380 756.5,-380 756.5,-362 707.5,-362"/>
<polygon fill="none" stroke="black" points="707.5,-362 707.5,-380 756.5,-380 756.5,-362 707.5,-362"/>
<text text-anchor="start" x="746.5" y="-368.2" font-family="Helvetica,sans-Serif" font-size="11.00"> &#160;</text>
</a>
</g>
</g>
<!-- project_land_use_model_types&#45;&gt;projects -->
<g id="edge10" class="edge"><title>project_land_use_model_types:project_id:w&#45;&gt;projects:id.type:e</title>
<path fill="none" stroke="black" d="M521.552,-416.75C511.304,-423.917 510.397,-440.334 503,-457 483.87,-500.101 508.155,-665 461,-665"/>
<polygon fill="black" stroke="black" points="527.774,-415.077 536.435,-416.477 531.637,-414.039 535.5,-413 535.5,-413 535.5,-413 531.637,-414.039 534.565,-409.523 527.774,-415.077 527.774,-415.077"/>
<ellipse fill="none" stroke="black" cx="524.684" cy="-415.908" rx="3.2" ry="3.2"/>
</g>
<!-- seedbank.accessions -->
<g id="node13" class="node"><title>seedbank.accessions</title>
<g id="a_node13"><a xlink:href="../../../seedbank/tables/accessions.html" xlink:title="seedbank.accessions" target="_top">
<polygon fill="#ffffff" stroke="none" points="531,-261 531,-341 762,-341 762,-261 531,-261"/>
<polygon fill="#f5f5f5" stroke="none" points="531.5,-319 531.5,-341 762.5,-341 762.5,-319 531.5,-319"/>
<polygon fill="none" stroke="black" points="531.5,-319 531.5,-341 762.5,-341 762.5,-319 531.5,-319"/>
<text text-anchor="start" x="536.5" y="-328.2" font-family="Helvetica,sans-Serif" font-weight="bold" font-size="11.00">seedbank.accessions</text>
<text text-anchor="start" x="723.5" y="-327.2" font-family="Helvetica,sans-Serif" font-size="11.00">[table]</text>
<polygon fill="none" stroke="black" points="531.5,-297 531.5,-319 762.5,-319 762.5,-297 531.5,-297"/>
<image xlink:href="../../images/foreignKeys.png" width="11px" height="12px" preserveAspectRatio="xMinYMin meet" x="536.5" y="-314"/>
<text text-anchor="start" x="551.5" y="-305.2" font-family="Helvetica,sans-Serif" font-size="11.00">project_id</text>
<polygon fill="none" stroke="black" points="531.5,-279 531.5,-297 762.5,-297 762.5,-279 531.5,-279"/>
<text text-anchor="start" x="534.5" y="-285.2" font-family="Helvetica,sans-Serif" font-size="11.00">...</text>
<polygon fill="#ffffff" stroke="none" points="531.5,-261 531.5,-279 630.5,-279 630.5,-261 531.5,-261"/>
<polygon fill="none" stroke="black" points="531.5,-261 531.5,-279 630.5,-279 630.5,-261 531.5,-261"/>
<text text-anchor="start" x="534.5" y="-267.2" font-family="Helvetica,sans-Serif" font-size="11.00">&lt; 1</text>
<polygon fill="#ffffff" stroke="none" points="630.5,-261 630.5,-279 710.5,-279 710.5,-261 630.5,-261"/>
<polygon fill="none" stroke="black" points="630.5,-261 630.5,-279 710.5,-279 710.5,-261 630.5,-261"/>
<text text-anchor="start" x="671.5" y="-267.2" font-family="Helvetica,sans-Serif" font-size="11.00">0 rows</text>
<polygon fill="#ffffff" stroke="none" points="710.5,-261 710.5,-279 762.5,-279 762.5,-261 710.5,-261"/>
<polygon fill="none" stroke="black" points="710.5,-261 710.5,-279 762.5,-279 762.5,-261 710.5,-261"/>
<text text-anchor="start" x="752.5" y="-267.2" font-family="Helvetica,sans-Serif" font-size="11.00"> &#160;</text>
</a>
</g>
</g>
<!-- seedbank.accessions&#45;&gt;projects -->
<g id="edge12" class="edge"><title>seedbank.accessions:project_id:w&#45;&gt;projects:id.type:e</title>
<path fill="none" stroke="black" d="M516.586,-312.514C461.153,-353.84 536.456,-665 461,-665"/>
<polygon fill="black" stroke="black" points="522.89,-310.469 531.611,-311.424 526.695,-309.234 530.5,-308 530.5,-308 530.5,-308 526.695,-309.234 529.389,-304.576 522.89,-310.469 522.89,-310.469"/>
<ellipse fill="none" stroke="black" cx="519.847" cy="-311.456" rx="3.20001" ry="3.20001"/>
</g>
<!-- tracking.draft_planting_sites -->
<g id="node14" class="node"><title>tracking.draft_planting_sites</title>
<g id="a_node14"><a xlink:href="../../../tracking/tables/draft_planting_sites.html" xlink:title="tracking.draft_planting_sites" target="_top">
<polygon fill="#ffffff" stroke="none" points="541,-37 541,-139 752,-139 752,-37 541,-37"/>
<polygon fill="#f5f5f5" stroke="none" points="541.5,-117 541.5,-139 752.5,-139 752.5,-117 541.5,-117"/>
<polygon fill="none" stroke="black" points="541.5,-117 541.5,-139 752.5,-139 752.5,-117 541.5,-117"/>
<text text-anchor="start" x="546.5" y="-126.2" font-family="Helvetica,sans-Serif" font-weight="bold" font-size="11.00">tracking.draft_planting_sites</text>
<text text-anchor="start" x="713.5" y="-125.2" font-family="Helvetica,sans-Serif" font-size="11.00">[table]</text>
<polygon fill="none" stroke="black" points="541.5,-95 541.5,-117 752.5,-117 752.5,-95 541.5,-95"/>
<image xlink:href="../../images/foreignKeys.png" width="11px" height="12px" preserveAspectRatio="xMinYMin meet" x="546.5" y="-112"/>
<text text-anchor="start" x="585.5" y="-103.2" font-family="Helvetica,sans-Serif" font-size="11.00">organization_id</text>
<polygon fill="none" stroke="black" points="541.5,-73 541.5,-95 752.5,-95 752.5,-73 541.5,-73"/>
<image xlink:href="../../images/foreignKeys.png" width="11px" height="12px" preserveAspectRatio="xMinYMin meet" x="546.5" y="-90"/>
<text text-anchor="start" x="585.5" y="-81.2" font-family="Helvetica,sans-Serif" font-size="11.00">project_id</text>
<polygon fill="none" stroke="black" points="541.5,-55 541.5,-73 752.5,-73 752.5,-55 541.5,-55"/>
<text text-anchor="start" x="544.5" y="-61.2" font-family="Helvetica,sans-Serif" font-size="11.00">...</text>
<polygon fill="#ffffff" stroke="none" points="541.5,-37 541.5,-55 630.5,-55 630.5,-37 541.5,-37"/>
<polygon fill="none" stroke="black" points="541.5,-37 541.5,-55 630.5,-55 630.5,-37 541.5,-37"/>
<text text-anchor="start" x="544.5" y="-43.2" font-family="Helvetica,sans-Serif" font-size="11.00">&lt; 2</text>
<polygon fill="#ffffff" stroke="none" points="630.5,-37 630.5,-55 705.5,-55 705.5,-37 630.5,-37"/>
<polygon fill="none" stroke="black" points="630.5,-37 630.5,-55 705.5,-55 705.5,-37 630.5,-37"/>
<text text-anchor="start" x="666.5" y="-43.2" font-family="Helvetica,sans-Serif" font-size="11.00">0 rows</text>
<polygon fill="#ffffff" stroke="none" points="705.5,-37 705.5,-55 752.5,-55 752.5,-37 705.5,-37"/>
<polygon fill="none" stroke="black" points="705.5,-37 705.5,-55 752.5,-55 752.5,-37 705.5,-37"/>
<text text-anchor="start" x="742.5" y="-43.2" font-family="Helvetica,sans-Serif" font-size="11.00"> &#160;</text>
</a>
</g>
</g>
<!-- tracking.draft_planting_sites&#45;&gt;projects -->
<g id="edge13" class="edge"><title>tracking.draft_planting_sites:organization_id:w&#45;&gt;projects:organization_id.type:e</title>
<path fill="none" stroke="black" d="M526.355,-108.939C513.607,-115.401 510.823,-131.731 503,-150 485.192,-191.589 506.241,-555 461,-555"/>
<polygon fill="black" stroke="black" points="532.667,-107.628 541.232,-109.525 536.584,-106.814 540.5,-106 540.5,-106 540.5,-106 536.584,-106.814 539.768,-102.475 532.667,-107.628 532.667,-107.628"/>
<ellipse fill="none" stroke="black" cx="529.534" cy="-108.279" rx="3.2" ry="3.2"/>
</g>
<!-- tracking.draft_planting_sites&#45;&gt;projects -->
<g id="edge14" class="edge"><title>tracking.draft_planting_sites:project_id:w&#45;&gt;projects:id.type:e</title>
<path fill="none" stroke="black" d="M526.357,-86.8128C508.41,-95.56 511.231,-123.301 503,-150 486.087,-204.864 518.412,-665 461,-665"/>
<polygon fill="black" stroke="black" points="532.654,-85.5605 541.202,-87.5309 536.577,-84.7803 540.5,-84 540.5,-84 540.5,-84 536.577,-84.7803 539.798,-80.4691 532.654,-85.5605 532.654,-85.5605"/>
<ellipse fill="none" stroke="black" cx="529.515" cy="-86.1847" rx="3.2" ry="3.2"/>
</g>
<!-- tracking.planting_sites -->
<g id="node15" class="node"><title>tracking.planting_sites</title>
<g id="a_node15"><a xlink:href="../../../tracking/tables/planting_sites.html" xlink:title="tracking.planting_sites" target="_top">
<polygon fill="#ffffff" stroke="none" points="557.5,-160 557.5,-240 735.5,-240 735.5,-160 557.5,-160"/>
<polygon fill="#f5f5f5" stroke="none" points="557.5,-218 557.5,-240 735.5,-240 735.5,-218 557.5,-218"/>
<polygon fill="none" stroke="black" points="557.5,-218 557.5,-240 735.5,-240 735.5,-218 557.5,-218"/>
<text text-anchor="start" x="562.5" y="-227.2" font-family="Helvetica,sans-Serif" font-weight="bold" font-size="11.00">tracking.planting_sites</text>
<text text-anchor="start" x="696.5" y="-226.2" font-family="Helvetica,sans-Serif" font-size="11.00">[table]</text>
<polygon fill="none" stroke="black" points="557.5,-196 557.5,-218 735.5,-218 735.5,-196 557.5,-196"/>
<image xlink:href="../../images/foreignKeys.png" width="11px" height="12px" preserveAspectRatio="xMinYMin meet" x="562.5" y="-213"/>
<text text-anchor="start" x="610.5" y="-204.2" font-family="Helvetica,sans-Serif" font-size="11.00">project_id</text>
<polygon fill="none" stroke="black" points="557.5,-178 557.5,-196 735.5,-196 735.5,-178 557.5,-178"/>
<text text-anchor="start" x="560.5" y="-184.2" font-family="Helvetica,sans-Serif" font-size="11.00">...</text>
<polygon fill="#ffffff" stroke="none" points="557.5,-160 557.5,-178 630.5,-178 630.5,-160 557.5,-160"/>
<polygon fill="none" stroke="black" points="557.5,-160 557.5,-178 630.5,-178 630.5,-160 557.5,-160"/>
<text text-anchor="start" x="560.5" y="-166.2" font-family="Helvetica,sans-Serif" font-size="11.00">&lt; 1</text>
<polygon fill="#ffffff" stroke="none" points="630.5,-160 630.5,-178 697.5,-178 697.5,-160 630.5,-160"/>
<polygon fill="none" stroke="black" points="630.5,-160 630.5,-178 697.5,-178 697.5,-160 630.5,-160"/>
<text text-anchor="start" x="658.5" y="-166.2" font-family="Helvetica,sans-Serif" font-size="11.00">0 rows</text>
<polygon fill="#ffffff" stroke="none" points="697.5,-160 697.5,-178 735.5,-178 735.5,-160 697.5,-160"/>
<polygon fill="none" stroke="black" points="697.5,-160 697.5,-178 735.5,-178 735.5,-160 697.5,-160"/>
<text text-anchor="start" x="725.5" y="-166.2" font-family="Helvetica,sans-Serif" font-size="11.00"> &#160;</text>
</a>
</g>
</g>
<!-- tracking.planting_sites&#45;&gt;projects -->
<g id="edge15" class="edge"><title>tracking.planting_sites:project_id:w&#45;&gt;projects:id.type:e</title>
<path fill="none" stroke="black" d="M541.926,-208.595C522.57,-213.392 514.926,-228.739 503,-251 481.166,-291.756 507.236,-665 461,-665"/>
<polygon fill="black" stroke="black" points="548.547,-207.87 556.892,-210.579 552.524,-207.435 556.5,-207 556.5,-207 556.5,-207 552.524,-207.435 556.108,-203.421 548.547,-207.87 548.547,-207.87"/>
<ellipse fill="none" stroke="black" cx="545.366" cy="-208.219" rx="3.2" ry="3.2"/>
</g>
</g>
</svg>
