<?xml version="1.0" encoding="UTF-8" standalone="no"?>
<!DOCTYPE svg PUBLIC "-//W3C//DTD SVG 1.1//EN"
 "http://www.w3.org/Graphics/SVG/1.1/DTD/svg11.dtd">
<!-- Generated by graphviz version 2.38.0 (20140413.2041)
 -->
<!-- Title: twoDegreesRelationshipsDiagram Pages: 1 -->
<svg width="393pt" height="326pt"
 viewBox="0.00 0.00 393.00 326.00" xmlns="http://www.w3.org/2000/svg" xmlns:xlink="http://www.w3.org/1999/xlink">
<g id="graph0" class="graph" transform="scale(1 1) rotate(0) translate(4 322)">
<title>twoDegreesRelationshipsDiagram</title>
<polygon fill="#ffffff" stroke="none" points="-4,4 -4,-322 389,-322 389,4 -4,4"/>
<text text-anchor="middle" x="74.5" y="-7.2" font-family="Helvetica,sans-Serif" font-size="11.00">Generated by SchemaSpy</text>
<!-- family_names -->
<g id="node1" class="node"><title>family_names</title>
<g id="a_node1"><a xlink:href="../../tables/family_names.html" xlink:title="family_names" target="_top">
<polygon fill="#ffffff" stroke="none" points="164,-116 164,-314 377,-314 377,-116 164,-116"/>
<polygon fill="#f5f5f5" stroke="none" points="166.5,-290 166.5,-312 375.5,-312 375.5,-290 166.5,-290"/>
<polygon fill="none" stroke="black" points="166.5,-290 166.5,-312 375.5,-312 375.5,-290 166.5,-290"/>
<text text-anchor="start" x="171.5" y="-299.2" font-family="Helvetica,sans-Serif" font-weight="bold" font-size="11.00">family_names</text>
<text text-anchor="start" x="336.5" y="-298.2" font-family="Helvetica,sans-Serif" font-size="11.00">[table]</text>
<polygon fill="none" stroke="black" points="166.5,-268 166.5,-290 273.5,-290 273.5,-268 166.5,-268"/>
<image xlink:href="../../images/primaryKeys.png" width="11px" height="12px" preserveAspectRatio="xMinYMin meet" x="171.5" y="-285"/>
<text text-anchor="start" x="186.5" y="-276.2" font-family="Helvetica,sans-Serif" font-size="11.00">id</text>
<polygon fill="none" stroke="black" points="273.5,-268 273.5,-290 375.5,-290 375.5,-268 273.5,-268"/>
<text text-anchor="start" x="276.5" y="-276.2" font-family="Helvetica,sans-Serif" font-size="11.00">int8[19]</text>
<polygon fill="#ffffff" stroke="none" points="166.5,-246 166.5,-268 273.5,-268 273.5,-246 166.5,-246"/>
<polygon fill="none" stroke="black" points="166.5,-246 166.5,-268 273.5,-268 273.5,-246 166.5,-246"/>
<image xlink:href="../../images/foreignKeys.png" width="11px" height="12px" preserveAspectRatio="xMinYMin meet" x="171.5" y="-263"/>
<text text-anchor="start" x="186.5" y="-254.2" font-family="Helvetica,sans-Serif" font-size="11.00">family_id</text>
<polygon fill="none" stroke="black" points="273.5,-246 273.5,-268 375.5,-268 375.5,-246 273.5,-246"/>
<text text-anchor="start" x="276.5" y="-254.2" font-family="Helvetica,sans-Serif" font-size="11.00">int8[19]</text>
<polygon fill="#ffffff" stroke="none" points="166.5,-224 166.5,-246 273.5,-246 273.5,-224 166.5,-224"/>
<polygon fill="none" stroke="black" points="166.5,-224 166.5,-246 273.5,-246 273.5,-224 166.5,-224"/>
<text text-anchor="start" x="186.5" y="-232.2" font-family="Helvetica,sans-Serif" font-size="11.00">name</text>
<polygon fill="none" stroke="black" points="273.5,-224 273.5,-246 375.5,-246 375.5,-224 273.5,-224"/>
<text text-anchor="start" x="276.5" y="-232.2" font-family="Helvetica,sans-Serif" font-size="11.00">text[2147483647]</text>
<polygon fill="none" stroke="black" points="166.5,-202 166.5,-224 273.5,-224 273.5,-202 166.5,-202"/>
<text text-anchor="start" x="186.5" y="-210.2" font-family="Helvetica,sans-Serif" font-size="11.00">locale</text>
<polygon fill="none" stroke="black" points="273.5,-202 273.5,-224 375.5,-224 375.5,-202 273.5,-202"/>
<text text-anchor="start" x="276.5" y="-210.2" font-family="Helvetica,sans-Serif" font-size="11.00">text[2147483647]</text>
<polygon fill="none" stroke="black" points="166.5,-180 166.5,-202 273.5,-202 273.5,-180 166.5,-180"/>
<text text-anchor="start" x="186.5" y="-188.2" font-family="Helvetica,sans-Serif" font-size="11.00">created_time</text>
<polygon fill="none" stroke="black" points="273.5,-180 273.5,-202 375.5,-202 375.5,-180 273.5,-180"/>
<text text-anchor="start" x="276.5" y="-188.2" font-family="Helvetica,sans-Serif" font-size="11.00">timestamptz[35,6]</text>
<polygon fill="none" stroke="black" points="166.5,-158 166.5,-180 273.5,-180 273.5,-158 166.5,-158"/>
<text text-anchor="start" x="186.5" y="-166.2" font-family="Helvetica,sans-Serif" font-size="11.00">modified_time</text>
<polygon fill="none" stroke="black" points="273.5,-158 273.5,-180 375.5,-180 375.5,-158 273.5,-158"/>
<text text-anchor="start" x="276.5" y="-166.2" font-family="Helvetica,sans-Serif" font-size="11.00">timestamptz[35,6]</text>
<polygon fill="none" stroke="black" points="166.5,-136 166.5,-158 273.5,-158 273.5,-136 166.5,-136"/>
<text text-anchor="start" x="186.5" y="-144.2" font-family="Helvetica,sans-Serif" font-size="11.00">is_scientific</text>
<polygon fill="none" stroke="black" points="273.5,-136 273.5,-158 375.5,-158 375.5,-136 273.5,-136"/>
<text text-anchor="start" x="276.5" y="-144.2" font-family="Helvetica,sans-Serif" font-size="11.00">bool[1]</text>
<polygon fill="#ffffff" stroke="none" points="166.5,-118 166.5,-136 210.5,-136 210.5,-118 166.5,-118"/>
<polygon fill="none" stroke="black" points="166.5,-118 166.5,-136 210.5,-136 210.5,-118 166.5,-118"/>
<text text-anchor="start" x="169.5" y="-124.2" font-family="Helvetica,sans-Serif" font-size="11.00">&lt; 1</text>
<polygon fill="#ffffff" stroke="none" points="210.5,-118 210.5,-136 273.5,-136 273.5,-118 210.5,-118"/>
<polygon fill="none" stroke="black" points="210.5,-118 210.5,-136 273.5,-136 273.5,-118 210.5,-118"/>
<text text-anchor="start" x="234.5" y="-124.2" font-family="Helvetica,sans-Serif" font-size="11.00">0 rows</text>
<polygon fill="#ffffff" stroke="none" points="273.5,-118 273.5,-136 375.5,-136 375.5,-118 273.5,-118"/>
<polygon fill="none" stroke="black" points="273.5,-118 273.5,-136 375.5,-136 375.5,-118 273.5,-118"/>
<text text-anchor="start" x="355.5" y="-124.2" font-family="Helvetica,sans-Serif" font-size="11.00">0 &gt;</text>
<polygon fill="none" stroke="black" stroke-width="2" points="165,-117 165,-313 376,-313 376,-117 165,-117"/>
</a>
</g>
</g>
<!-- families -->
<g id="node2" class="node"><title>families</title>
<g id="a_node2"><a xlink:href="../../tables/families.html" xlink:title="families" target="_top">
<polygon fill="#ffffff" stroke="none" points="8,-91 8,-193 115,-193 115,-91 8,-91"/>
<polygon fill="#f5f5f5" stroke="none" points="8.5,-171 8.5,-193 115.5,-193 115.5,-171 8.5,-171"/>
<polygon fill="none" stroke="black" points="8.5,-171 8.5,-193 115.5,-193 115.5,-171 8.5,-171"/>
<text text-anchor="start" x="13.5" y="-180.2" font-family="Helvetica,sans-Serif" font-weight="bold" font-size="11.00">families</text>
<text text-anchor="start" x="76.5" y="-179.2" font-family="Helvetica,sans-Serif" font-size="11.00">[table]</text>
<polygon fill="none" stroke="black" points="8.5,-149 8.5,-171 115.5,-171 115.5,-149 8.5,-149"/>
<image xlink:href="../../images/primaryKeys.png" width="11px" height="12px" preserveAspectRatio="xMinYMin meet" x="13.5" y="-166"/>
<text text-anchor="start" x="28.5" y="-157.2" font-family="Helvetica,sans-Serif" font-size="11.00">id</text>
<polygon fill="#ffffff" stroke="none" points="8.5,-127 8.5,-149 115.5,-149 115.5,-127 8.5,-127"/>
<polygon fill="none" stroke="black" points="8.5,-127 8.5,-149 115.5,-149 115.5,-127 8.5,-127"/>
<text text-anchor="start" x="28.5" y="-135.2" font-family="Helvetica,sans-Serif" font-size="11.00">name</text>
<polygon fill="none" stroke="black" points="8.5,-109 8.5,-127 115.5,-127 115.5,-109 8.5,-109"/>
<text text-anchor="start" x="11.5" y="-115.2" font-family="Helvetica,sans-Serif" font-size="11.00">...</text>
<polygon fill="#ffffff" stroke="none" points="8.5,-91 8.5,-109 35.5,-109 35.5,-91 8.5,-91"/>
<polygon fill="none" stroke="black" points="8.5,-91 8.5,-109 35.5,-109 35.5,-91 8.5,-91"/>
<text text-anchor="start" x="11.5" y="-97.2" font-family="Helvetica,sans-Serif" font-size="11.00"> &#160;</text>
<polygon fill="#ffffff" stroke="none" points="35.5,-91 35.5,-109 84.5,-109 84.5,-91 35.5,-91"/>
<polygon fill="none" stroke="black" points="35.5,-91 35.5,-109 84.5,-109 84.5,-91 35.5,-91"/>
<text text-anchor="start" x="45.5" y="-97.2" font-family="Helvetica,sans-Serif" font-size="11.00">0 rows</text>
<polygon fill="#ffffff" stroke="none" points="84.5,-91 84.5,-109 115.5,-109 115.5,-91 84.5,-91"/>
<polygon fill="none" stroke="black" points="84.5,-91 84.5,-109 115.5,-109 115.5,-91 84.5,-91"/>
<text text-anchor="start" x="95.5" y="-97.2" font-family="Helvetica,sans-Serif" font-size="11.00">2 &gt;</text>
</a>
</g>
</g>
<!-- family_names&#45;&gt;families -->
<g id="edge1" class="edge"><title>family_names:family_id:w&#45;&gt;families:id:e</title>
<path fill="none" stroke="black" d="M151.508,-252.832C127.602,-234.266 158.762,-160 116.5,-160"/>
<polygon fill="black" stroke="black" points="157.833,-254.716 164.472,-260.45 161.666,-255.858 165.5,-257 165.5,-257 165.5,-257 161.666,-255.858 166.528,-253.55 157.833,-254.716 157.833,-254.716"/>
<ellipse fill="none" stroke="black" cx="154.766" cy="-253.802" rx="3.20001" ry="3.20001"/>
</g>
<!-- species -->
<g id="node3" class="node"><title>species</title>
<g id="a_node3"><a xlink:href="../../tables/species.html" xlink:title="species" target="_top">
<polygon fill="#ffffff" stroke="none" points="225.5,-37 225.5,-95 315.5,-95 315.5,-37 225.5,-37"/>
<polygon fill="#f5f5f5" stroke="none" points="225.5,-73 225.5,-95 315.5,-95 315.5,-73 225.5,-73"/>
<polygon fill="none" stroke="black" points="225.5,-73 225.5,-95 315.5,-95 315.5,-73 225.5,-73"/>
<text text-anchor="start" x="230.5" y="-82.2" font-family="Helvetica,sans-Serif" font-weight="bold" font-size="11.00">species</text>
<text text-anchor="start" x="276.5" y="-81.2" font-family="Helvetica,sans-Serif" font-size="11.00">[table]</text>
<polygon fill="none" stroke="black" points="225.5,-55 225.5,-73 315.5,-73 315.5,-55 225.5,-55"/>
<text text-anchor="start" x="228.5" y="-61.2" font-family="Helvetica,sans-Serif" font-size="11.00">...</text>
<polygon fill="#ffffff" stroke="none" points="225.5,-37 225.5,-55 249.5,-55 249.5,-37 225.5,-37"/>
<polygon fill="none" stroke="black" points="225.5,-37 225.5,-55 249.5,-55 249.5,-37 225.5,-37"/>
<text text-anchor="start" x="228.5" y="-43.2" font-family="Helvetica,sans-Serif" font-size="11.00">&lt; 4</text>
<polygon fill="#ffffff" stroke="none" points="249.5,-37 249.5,-55 291.5,-55 291.5,-37 249.5,-37"/>
<polygon fill="none" stroke="black" points="249.5,-37 249.5,-55 291.5,-55 291.5,-37 249.5,-37"/>
<text text-anchor="start" x="252.5" y="-43.2" font-family="Helvetica,sans-Serif" font-size="11.00">0 rows</text>
<polygon fill="#ffffff" stroke="none" points="291.5,-37 291.5,-55 315.5,-55 315.5,-37 291.5,-37"/>
<polygon fill="none" stroke="black" points="291.5,-37 291.5,-55 315.5,-55 315.5,-37 291.5,-37"/>
<text text-anchor="start" x="295.5" y="-43.2" font-family="Helvetica,sans-Serif" font-size="11.00">2 &gt;</text>
</a>
</g>
</g>
<!-- species&#45;&gt;families -->
<g id="edge2" class="edge"><title>species:elipses:w&#45;&gt;families:id:e</title>
<path fill="none" stroke="black" d="M210.038,-65.1989C186.341,-69.5715 178.259,-85.4851 156,-106 134.135,-126.152 146.235,-160 116.5,-160"/>
<polygon fill="black" stroke="black" points="216.527,-64.661 224.797,-67.5877 220.514,-64.3305 224.5,-64 224.5,-64 224.5,-64 220.514,-64.3305 224.203,-60.4123 216.527,-64.661 216.527,-64.661"/>
<ellipse fill="none" stroke="black" cx="213.338" cy="-64.9254" rx="3.2" ry="3.2"/>
</g>
</g>
</svg>
