<?xml version="1.0" encoding="UTF-8" standalone="no"?>
<!DOCTYPE svg PUBLIC "-//W3C//DTD SVG 1.1//EN"
 "http://www.w3.org/Graphics/SVG/1.1/DTD/svg11.dtd">
<!-- Generated by graphviz version 2.38.0 (20140413.2041)
 -->
<!-- Title: twoDegreesRelationshipsDiagram Pages: 1 -->
<svg width="825pt" height="546pt"
 viewBox="0.00 0.00 825.00 546.00" xmlns="http://www.w3.org/2000/svg" xmlns:xlink="http://www.w3.org/1999/xlink">
<g id="graph0" class="graph" transform="scale(1 1) rotate(0) translate(4 542)">
<title>twoDegreesRelationshipsDiagram</title>
<polygon fill="#ffffff" stroke="none" points="-4,4 -4,-542 821,-542 821,4 -4,4"/>
<text text-anchor="middle" x="74.5" y="-7.2" font-family="Helvetica,sans-Serif" font-size="11.00">Generated by SchemaSpy</text>
<!-- projects -->
<g id="node1" class="node"><title>projects</title>
<g id="a_node1"><a xlink:href="../../tables/projects.html" xlink:title="projects" target="_top">
<polygon fill="#ffffff" stroke="none" points="231,-37 231,-367 467,-367 467,-37 231,-37"/>
<polygon fill="#f5f5f5" stroke="none" points="233,-343 233,-365 465,-365 465,-343 233,-343"/>
<polygon fill="none" stroke="black" points="233,-343 233,-365 465,-365 465,-343 233,-343"/>
<text text-anchor="start" x="238" y="-352.2" font-family="Helvetica,sans-Serif" font-weight="bold" font-size="11.00">projects</text>
<text text-anchor="start" x="426" y="-351.2" font-family="Helvetica,sans-Serif" font-size="11.00">[table]</text>
<polygon fill="none" stroke="black" points="233,-321 233,-343 363,-343 363,-321 233,-321"/>
<image xlink:href="../../images/primaryKeys.png" width="11px" height="12px" preserveAspectRatio="xMinYMin meet" x="238" y="-338"/>
<text text-anchor="start" x="253" y="-329.2" font-family="Helvetica,sans-Serif" font-size="11.00">id</text>
<polygon fill="none" stroke="black" points="363,-321 363,-343 465,-343 465,-321 363,-321"/>
<text text-anchor="start" x="366" y="-329.2" font-family="Helvetica,sans-Serif" font-size="11.00">int8[19]</text>
<polygon fill="none" stroke="black" points="233,-299 233,-321 363,-321 363,-299 233,-299"/>
<image xlink:href="../../images/foreignKeys.png" width="11px" height="12px" preserveAspectRatio="xMinYMin meet" x="238" y="-316"/>
<text text-anchor="start" x="253" y="-307.2" font-family="Helvetica,sans-Serif" font-size="11.00">organization_id</text>
<polygon fill="none" stroke="black" points="363,-299 363,-321 465,-321 465,-299 363,-299"/>
<text text-anchor="start" x="366" y="-307.2" font-family="Helvetica,sans-Serif" font-size="11.00">int8[19]</text>
<polygon fill="none" stroke="black" points="233,-277 233,-299 363,-299 363,-277 233,-277"/>
<text text-anchor="start" x="253" y="-285.2" font-family="Helvetica,sans-Serif" font-size="11.00">name</text>
<polygon fill="none" stroke="black" points="363,-277 363,-299 465,-299 465,-277 363,-277"/>
<text text-anchor="start" x="366" y="-285.2" font-family="Helvetica,sans-Serif" font-size="11.00">text[2147483647]</text>
<polygon fill="none" stroke="black" points="233,-255 233,-277 363,-277 363,-255 233,-255"/>
<text text-anchor="start" x="253" y="-263.2" font-family="Helvetica,sans-Serif" font-size="11.00">description</text>
<polygon fill="none" stroke="black" points="363,-255 363,-277 465,-277 465,-255 363,-255"/>
<text text-anchor="start" x="366" y="-263.2" font-family="Helvetica,sans-Serif" font-size="11.00">text[2147483647]</text>
<polygon fill="none" stroke="black" points="233,-233 233,-255 363,-255 363,-233 233,-233"/>
<text text-anchor="start" x="253" y="-241.2" font-family="Helvetica,sans-Serif" font-size="11.00">location</text>
<polygon fill="none" stroke="black" points="363,-233 363,-255 465,-255 465,-233 363,-233"/>
<text text-anchor="start" x="366" y="-241.2" font-family="Helvetica,sans-Serif" font-size="11.00">text[2147483647]</text>
<polygon fill="none" stroke="black" points="233,-211 233,-233 363,-233 363,-211 233,-211"/>
<text text-anchor="start" x="253" y="-219.2" font-family="Helvetica,sans-Serif" font-size="11.00">status_id</text>
<polygon fill="none" stroke="black" points="363,-211 363,-233 465,-233 465,-211 363,-211"/>
<text text-anchor="start" x="366" y="-219.2" font-family="Helvetica,sans-Serif" font-size="11.00">int4[10]</text>
<polygon fill="none" stroke="black" points="233,-189 233,-211 363,-211 363,-189 233,-189"/>
<text text-anchor="start" x="253" y="-197.2" font-family="Helvetica,sans-Serif" font-size="11.00">start_date</text>
<polygon fill="none" stroke="black" points="363,-189 363,-211 465,-211 465,-189 363,-189"/>
<text text-anchor="start" x="366" y="-197.2" font-family="Helvetica,sans-Serif" font-size="11.00">date[13]</text>
<polygon fill="none" stroke="black" points="233,-167 233,-189 363,-189 363,-167 233,-167"/>
<text text-anchor="start" x="253" y="-175.2" font-family="Helvetica,sans-Serif" font-size="11.00">end_date</text>
<polygon fill="none" stroke="black" points="363,-167 363,-189 465,-189 465,-167 363,-167"/>
<text text-anchor="start" x="366" y="-175.2" font-family="Helvetica,sans-Serif" font-size="11.00">date[13]</text>
<polygon fill="none" stroke="black" points="233,-145 233,-167 363,-167 363,-145 233,-145"/>
<text text-anchor="start" x="253" y="-153.2" font-family="Helvetica,sans-Serif" font-size="11.00">created_time</text>
<polygon fill="none" stroke="black" points="363,-145 363,-167 465,-167 465,-145 363,-145"/>
<text text-anchor="start" x="366" y="-153.2" font-family="Helvetica,sans-Serif" font-size="11.00">timestamptz[35,6]</text>
<polygon fill="none" stroke="black" points="233,-123 233,-145 363,-145 363,-123 233,-123"/>
<text text-anchor="start" x="253" y="-131.2" font-family="Helvetica,sans-Serif" font-size="11.00">modified_time</text>
<polygon fill="none" stroke="black" points="363,-123 363,-145 465,-145 465,-123 363,-123"/>
<text text-anchor="start" x="366" y="-131.2" font-family="Helvetica,sans-Serif" font-size="11.00">timestamptz[35,6]</text>
<polygon fill="none" stroke="black" points="233,-101 233,-123 363,-123 363,-101 233,-101"/>
<text text-anchor="start" x="253" y="-109.2" font-family="Helvetica,sans-Serif" font-size="11.00">disabled_time</text>
<polygon fill="none" stroke="black" points="363,-101 363,-123 465,-123 465,-101 363,-101"/>
<text text-anchor="start" x="366" y="-109.2" font-family="Helvetica,sans-Serif" font-size="11.00">timestamptz[35,6]</text>
<polygon fill="none" stroke="black" points="233,-79 233,-101 363,-101 363,-79 233,-79"/>
<text text-anchor="start" x="253" y="-87.2" font-family="Helvetica,sans-Serif" font-size="11.00">pm_user_id</text>
<polygon fill="none" stroke="black" points="363,-79 363,-101 465,-101 465,-79 363,-79"/>
<text text-anchor="start" x="366" y="-87.2" font-family="Helvetica,sans-Serif" font-size="11.00">int8[19]</text>
<polygon fill="none" stroke="black" points="233,-57 233,-79 363,-79 363,-57 233,-57"/>
<text text-anchor="start" x="253" y="-65.2" font-family="Helvetica,sans-Serif" font-size="11.00">organization_wide</text>
<polygon fill="none" stroke="black" points="363,-57 363,-79 465,-79 465,-57 363,-57"/>
<text text-anchor="start" x="366" y="-65.2" font-family="Helvetica,sans-Serif" font-size="11.00">bool[1]</text>
<polygon fill="#ffffff" stroke="none" points="233,-39 233,-57 288,-57 288,-39 233,-39"/>
<polygon fill="none" stroke="black" points="233,-39 233,-57 288,-57 288,-39 233,-39"/>
<text text-anchor="start" x="236" y="-45.2" font-family="Helvetica,sans-Serif" font-size="11.00">&lt; 1</text>
<polygon fill="#ffffff" stroke="none" points="288,-39 288,-57 363,-57 363,-39 288,-39"/>
<polygon fill="none" stroke="black" points="288,-39 288,-57 363,-57 363,-39 288,-39"/>
<text text-anchor="start" x="324" y="-45.2" font-family="Helvetica,sans-Serif" font-size="11.00">0 rows</text>
<polygon fill="#ffffff" stroke="none" points="363,-39 363,-57 465,-57 465,-39 363,-39"/>
<polygon fill="none" stroke="black" points="363,-39 363,-57 465,-57 465,-39 363,-39"/>
<text text-anchor="start" x="445" y="-45.2" font-family="Helvetica,sans-Serif" font-size="11.00">2 &gt;</text>
<polygon fill="none" stroke="black" stroke-width="2" points="232,-38 232,-366 466,-366 466,-38 232,-38"/>
</a>
</g>
</g>
<!-- organizations -->
<g id="node2" class="node"><title>organizations</title>
<g id="a_node2"><a xlink:href="../../tables/organizations.html" xlink:title="organizations" target="_top">
<polygon fill="#ffffff" stroke="none" points="8,-344 8,-424 182,-424 182,-344 8,-344"/>
<polygon fill="#f5f5f5" stroke="none" points="8,-402 8,-424 182,-424 182,-402 8,-402"/>
<polygon fill="none" stroke="black" points="8,-402 8,-424 182,-424 182,-402 8,-402"/>
<text text-anchor="start" x="13" y="-411.2" font-family="Helvetica,sans-Serif" font-weight="bold" font-size="11.00">organizations</text>
<text text-anchor="start" x="143" y="-410.2" font-family="Helvetica,sans-Serif" font-size="11.00">[table]</text>
<polygon fill="none" stroke="black" points="8,-380 8,-402 182,-402 182,-380 8,-380"/>
<image xlink:href="../../images/primaryKeys.png" width="11px" height="12px" preserveAspectRatio="xMinYMin meet" x="13" y="-397"/>
<text text-anchor="start" x="28" y="-388.2" font-family="Helvetica,sans-Serif" font-size="11.00">id</text>
<polygon fill="none" stroke="black" points="8,-362 8,-380 182,-380 182,-362 8,-362"/>
<text text-anchor="start" x="11" y="-368.2" font-family="Helvetica,sans-Serif" font-size="11.00">...</text>
<polygon fill="#ffffff" stroke="none" points="8,-344 8,-362 69,-362 69,-344 8,-344"/>
<polygon fill="none" stroke="black" points="8,-344 8,-362 69,-362 69,-344 8,-344"/>
<text text-anchor="start" x="11" y="-350.2" font-family="Helvetica,sans-Serif" font-size="11.00"> &#160;</text>
<polygon fill="#ffffff" stroke="none" points="69,-344 69,-362 135,-362 135,-344 69,-344"/>
<polygon fill="none" stroke="black" points="69,-344 69,-362 135,-362 135,-344 69,-344"/>
<text text-anchor="start" x="96" y="-350.2" font-family="Helvetica,sans-Serif" font-size="11.00">0 rows</text>
<polygon fill="#ffffff" stroke="none" points="135,-344 135,-362 182,-362 182,-344 135,-344"/>
<polygon fill="none" stroke="black" points="135,-344 135,-362 182,-362 182,-344 135,-344"/>
<text text-anchor="start" x="162" y="-350.2" font-family="Helvetica,sans-Serif" font-size="11.00">3 &gt;</text>
</a>
</g>
</g>
<!-- projects&#45;&gt;organizations -->
<g id="edge1" class="edge"><title>projects:organization_id:w&#45;&gt;organizations:id:e</title>
<path fill="none" stroke="black" d="M218.13,-314.587C198.473,-331.722 218.994,-391 183,-391"/>
<polygon fill="black" stroke="black" points="224.405,-312.512 233.13,-313.418 228.202,-311.256 232,-310 232,-310 232,-310 228.202,-311.256 230.87,-306.582 224.405,-312.512 224.405,-312.512"/>
<ellipse fill="none" stroke="black" cx="221.366" cy="-313.517" rx="3.20001" ry="3.20001"/>
</g>
<!-- sites -->
<g id="node3" class="node"><title>sites</title>
<g id="a_node3"><a xlink:href="../../tables/sites.html" xlink:title="sites" target="_top">
<polygon fill="#ffffff" stroke="none" points="516,-231 516,-333 623,-333 623,-231 516,-231"/>
<polygon fill="#f5f5f5" stroke="none" points="516.5,-311 516.5,-333 623.5,-333 623.5,-311 516.5,-311"/>
<polygon fill="none" stroke="black" points="516.5,-311 516.5,-333 623.5,-333 623.5,-311 516.5,-311"/>
<text text-anchor="start" x="521.5" y="-320.2" font-family="Helvetica,sans-Serif" font-weight="bold" font-size="11.00">sites</text>
<text text-anchor="start" x="584.5" y="-319.2" font-family="Helvetica,sans-Serif" font-size="11.00">[table]</text>
<polygon fill="none" stroke="black" points="516.5,-289 516.5,-311 623.5,-311 623.5,-289 516.5,-289"/>
<image xlink:href="../../images/primaryKeys.png" width="11px" height="12px" preserveAspectRatio="xMinYMin meet" x="521.5" y="-306"/>
<text text-anchor="start" x="536.5" y="-297.2" font-family="Helvetica,sans-Serif" font-size="11.00">id</text>
<polygon fill="none" stroke="black" points="516.5,-267 516.5,-289 623.5,-289 623.5,-267 516.5,-267"/>
<image xlink:href="../../images/foreignKeys.png" width="11px" height="12px" preserveAspectRatio="xMinYMin meet" x="521.5" y="-284"/>
<text text-anchor="start" x="536.5" y="-275.2" font-family="Helvetica,sans-Serif" font-size="11.00">project_id</text>
<polygon fill="none" stroke="black" points="516.5,-249 516.5,-267 623.5,-267 623.5,-249 516.5,-249"/>
<text text-anchor="start" x="519.5" y="-255.2" font-family="Helvetica,sans-Serif" font-size="11.00">...</text>
<polygon fill="#ffffff" stroke="none" points="516.5,-231 516.5,-249 548.5,-249 548.5,-231 516.5,-231"/>
<polygon fill="none" stroke="black" points="516.5,-231 516.5,-249 548.5,-249 548.5,-231 516.5,-231"/>
<text text-anchor="start" x="519.5" y="-237.2" font-family="Helvetica,sans-Serif" font-size="11.00">&lt; 1</text>
<polygon fill="#ffffff" stroke="none" points="548.5,-231 548.5,-249 595.5,-249 595.5,-231 548.5,-231"/>
<polygon fill="none" stroke="black" points="548.5,-231 548.5,-249 595.5,-249 595.5,-231 548.5,-231"/>
<text text-anchor="start" x="556.5" y="-237.2" font-family="Helvetica,sans-Serif" font-size="11.00">0 rows</text>
<polygon fill="#ffffff" stroke="none" points="595.5,-231 595.5,-249 623.5,-249 623.5,-231 595.5,-231"/>
<polygon fill="none" stroke="black" points="595.5,-231 595.5,-249 623.5,-249 623.5,-231 595.5,-231"/>
<text text-anchor="start" x="603.5" y="-237.2" font-family="Helvetica,sans-Serif" font-size="11.00">1 &gt;</text>
</a>
</g>
</g>
<!-- sites&#45;&gt;projects -->
<g id="edge2" class="edge"><title>sites:project_id:w&#45;&gt;projects:id.type:e</title>
<path fill="none" stroke="black" d="M501.632,-282.983C487.105,-296.352 492.453,-332 466,-332"/>
<polygon fill="black" stroke="black" points="507.971,-280.705 516.717,-281.388 511.736,-279.353 515.5,-278 515.5,-278 515.5,-278 511.736,-279.353 514.283,-274.612 507.971,-280.705 507.971,-280.705"/>
<ellipse fill="none" stroke="black" cx="504.96" cy="-281.788" rx="3.20001" ry="3.20001"/>
</g>
<!-- species_names -->
<g id="node4" class="node"><title>species_names</title>
<g id="a_node4"><a xlink:href="../../tables/species_names.html" xlink:title="species_names" target="_top">
<polygon fill="#ffffff" stroke="none" points="674.5,-476 674.5,-534 806.5,-534 806.5,-476 674.5,-476"/>
<polygon fill="#f5f5f5" stroke="none" points="674.5,-512 674.5,-534 806.5,-534 806.5,-512 674.5,-512"/>
<polygon fill="none" stroke="black" points="674.5,-512 674.5,-534 806.5,-534 806.5,-512 674.5,-512"/>
<text text-anchor="start" x="679.5" y="-521.2" font-family="Helvetica,sans-Serif" font-weight="bold" font-size="11.00">species_names</text>
<text text-anchor="start" x="767.5" y="-520.2" font-family="Helvetica,sans-Serif" font-size="11.00">[table]</text>
<polygon fill="none" stroke="black" points="674.5,-494 674.5,-512 806.5,-512 806.5,-494 674.5,-494"/>
<text text-anchor="start" x="677.5" y="-500.2" font-family="Helvetica,sans-Serif" font-size="11.00">...</text>
<polygon fill="#ffffff" stroke="none" points="674.5,-476 674.5,-494 724.5,-494 724.5,-476 674.5,-476"/>
<polygon fill="none" stroke="black" points="674.5,-476 674.5,-494 724.5,-494 724.5,-476 674.5,-476"/>
<text text-anchor="start" x="677.5" y="-482.2" font-family="Helvetica,sans-Serif" font-size="11.00">&lt; 2</text>
<polygon fill="#ffffff" stroke="none" points="724.5,-476 724.5,-494 779.5,-494 779.5,-476 724.5,-476"/>
<polygon fill="none" stroke="black" points="724.5,-476 724.5,-494 779.5,-494 779.5,-476 724.5,-476"/>
<text text-anchor="start" x="740.5" y="-482.2" font-family="Helvetica,sans-Serif" font-size="11.00">0 rows</text>
<polygon fill="#ffffff" stroke="none" points="779.5,-476 779.5,-494 806.5,-494 806.5,-476 779.5,-476"/>
<polygon fill="none" stroke="black" points="779.5,-476 779.5,-494 806.5,-494 806.5,-476 779.5,-476"/>
<text text-anchor="start" x="796.5" y="-482.2" font-family="Helvetica,sans-Serif" font-size="11.00"> &#160;</text>
</a>
</g>
</g>
<!-- species_names&#45;&gt;organizations -->
<g id="edge3" class="edge"><title>species_names:elipses:w&#45;&gt;organizations:id:e</title>
<path fill="none" stroke="black" d="M659.079,-502.97C596.746,-502.682 575.584,-500.124 508,-487 471.037,-479.822 220.654,-391 183,-391"/>
<polygon fill="black" stroke="black" points="665.5,-502.983 673.492,-506.6 669.5,-502.992 673.5,-503 673.5,-503 673.5,-503 669.5,-502.992 673.508,-499.4 665.5,-502.983 665.5,-502.983"/>
<ellipse fill="none" stroke="black" cx="662.3" cy="-502.977" rx="3.2" ry="3.2"/>
</g>
<!-- species -->
<g id="node5" class="node"><title>species</title>
<g id="a_node5"><a xlink:href="../../tables/species.html" xlink:title="species" target="_top">
<polygon fill="#ffffff" stroke="none" points="524.5,-418 524.5,-476 614.5,-476 614.5,-418 524.5,-418"/>
<polygon fill="#f5f5f5" stroke="none" points="524.5,-454 524.5,-476 614.5,-476 614.5,-454 524.5,-454"/>
<polygon fill="none" stroke="black" points="524.5,-454 524.5,-476 614.5,-476 614.5,-454 524.5,-454"/>
<text text-anchor="start" x="529.5" y="-463.2" font-family="Helvetica,sans-Serif" font-weight="bold" font-size="11.00">species</text>
<text text-anchor="start" x="575.5" y="-462.2" font-family="Helvetica,sans-Serif" font-size="11.00">[table]</text>
<polygon fill="none" stroke="black" points="524.5,-436 524.5,-454 614.5,-454 614.5,-436 524.5,-436"/>
<text text-anchor="start" x="527.5" y="-442.2" font-family="Helvetica,sans-Serif" font-size="11.00">...</text>
<polygon fill="#ffffff" stroke="none" points="524.5,-418 524.5,-436 548.5,-436 548.5,-418 524.5,-418"/>
<polygon fill="none" stroke="black" points="524.5,-418 524.5,-436 548.5,-436 548.5,-418 524.5,-418"/>
<text text-anchor="start" x="527.5" y="-424.2" font-family="Helvetica,sans-Serif" font-size="11.00">&lt; 3</text>
<polygon fill="#ffffff" stroke="none" points="548.5,-418 548.5,-436 590.5,-436 590.5,-418 548.5,-418"/>
<polygon fill="none" stroke="black" points="548.5,-418 548.5,-436 590.5,-436 590.5,-418 548.5,-418"/>
<text text-anchor="start" x="551.5" y="-424.2" font-family="Helvetica,sans-Serif" font-size="11.00">0 rows</text>
<polygon fill="#ffffff" stroke="none" points="590.5,-418 590.5,-436 614.5,-436 614.5,-418 590.5,-418"/>
<polygon fill="none" stroke="black" points="590.5,-418 590.5,-436 614.5,-436 614.5,-418 590.5,-418"/>
<text text-anchor="start" x="594.5" y="-424.2" font-family="Helvetica,sans-Serif" font-size="11.00">2 &gt;</text>
</a>
</g>
</g>
<!-- species_names&#45;&gt;species -->
<g id="edge4" class="edge"><title>species_names:elipses:w&#45;&gt;species:elipses:e</title>
<path fill="none" stroke="black" d="M659.515,-499.013C640.503,-485.91 646.117,-445 615.5,-445"/>
<polygon fill="black" stroke="black" points="665.806,-500.807 672.513,-506.462 669.653,-501.903 673.5,-503 673.5,-503 673.5,-503 669.653,-501.903 674.487,-499.538 665.806,-500.807 665.806,-500.807"/>
<ellipse fill="none" stroke="black" cx="662.729" cy="-499.93" rx="3.20001" ry="3.20001"/>
</g>
<!-- species_options -->
<g id="node6" class="node"><title>species_options</title>
<g id="a_node6"><a xlink:href="../../tables/species_options.html" xlink:title="species_options" target="_top">
<polygon fill="#ffffff" stroke="none" points="672,-287 672,-455 809,-455 809,-287 672,-287"/>
<polygon fill="#f5f5f5" stroke="none" points="672.5,-433 672.5,-455 809.5,-455 809.5,-433 672.5,-433"/>
<polygon fill="none" stroke="black" points="672.5,-433 672.5,-455 809.5,-455 809.5,-433 672.5,-433"/>
<text text-anchor="start" x="677.5" y="-442.2" font-family="Helvetica,sans-Serif" font-weight="bold" font-size="11.00">species_options</text>
<text text-anchor="start" x="770.5" y="-441.2" font-family="Helvetica,sans-Serif" font-size="11.00">[table]</text>
<polygon fill="none" stroke="black" points="672.5,-411 672.5,-433 809.5,-433 809.5,-411 672.5,-411"/>
<image xlink:href="../../images/primaryKeys.png" width="11px" height="12px" preserveAspectRatio="xMinYMin meet" x="677.5" y="-428"/>
<text text-anchor="start" x="704.5" y="-419.2" font-family="Helvetica,sans-Serif" font-size="11.00">id</text>
<polygon fill="none" stroke="black" points="672.5,-389 672.5,-411 809.5,-411 809.5,-389 672.5,-389"/>
<image xlink:href="../../images/foreignKeys.png" width="11px" height="12px" preserveAspectRatio="xMinYMin meet" x="677.5" y="-406"/>
<text text-anchor="start" x="704.5" y="-397.2" font-family="Helvetica,sans-Serif" font-size="11.00">species_id</text>
<polygon fill="none" stroke="black" points="672.5,-367 672.5,-389 809.5,-389 809.5,-367 672.5,-367"/>
<image xlink:href="../../images/foreignKeys.png" width="11px" height="12px" preserveAspectRatio="xMinYMin meet" x="677.5" y="-384"/>
<text text-anchor="start" x="704.5" y="-375.2" font-family="Helvetica,sans-Serif" font-size="11.00">organization_id</text>
<polygon fill="none" stroke="black" points="672.5,-345 672.5,-367 809.5,-367 809.5,-345 672.5,-345"/>
<image xlink:href="../../images/foreignKeys.png" width="11px" height="12px" preserveAspectRatio="xMinYMin meet" x="677.5" y="-362"/>
<text text-anchor="start" x="704.5" y="-353.2" font-family="Helvetica,sans-Serif" font-size="11.00">project_id</text>
<polygon fill="none" stroke="black" points="672.5,-323 672.5,-345 809.5,-345 809.5,-323 672.5,-323"/>
<image xlink:href="../../images/foreignKeys.png" width="11px" height="12px" preserveAspectRatio="xMinYMin meet" x="677.5" y="-340"/>
<text text-anchor="start" x="704.5" y="-331.2" font-family="Helvetica,sans-Serif" font-size="11.00">site_id</text>
<polygon fill="none" stroke="black" points="672.5,-305 672.5,-323 809.5,-323 809.5,-305 672.5,-305"/>
<text text-anchor="start" x="675.5" y="-311.2" font-family="Helvetica,sans-Serif" font-size="11.00">...</text>
<polygon fill="#ffffff" stroke="none" points="672.5,-287 672.5,-305 724.5,-305 724.5,-287 672.5,-287"/>
<polygon fill="none" stroke="black" points="672.5,-287 672.5,-305 724.5,-305 724.5,-287 672.5,-287"/>
<text text-anchor="start" x="675.5" y="-293.2" font-family="Helvetica,sans-Serif" font-size="11.00">&lt; 4</text>
<polygon fill="#ffffff" stroke="none" points="724.5,-287 724.5,-305 781.5,-305 781.5,-287 724.5,-287"/>
<polygon fill="none" stroke="black" points="724.5,-287 724.5,-305 781.5,-305 781.5,-287 724.5,-287"/>
<text text-anchor="start" x="742.5" y="-293.2" font-family="Helvetica,sans-Serif" font-size="11.00">0 rows</text>
<polygon fill="#ffffff" stroke="none" points="781.5,-287 781.5,-305 809.5,-305 809.5,-287 781.5,-287"/>
<polygon fill="none" stroke="black" points="781.5,-287 781.5,-305 809.5,-305 809.5,-287 781.5,-287"/>
<text text-anchor="start" x="799.5" y="-293.2" font-family="Helvetica,sans-Serif" font-size="11.00"> &#160;</text>
</a>
</g>
</g>
<!-- species_options&#45;&gt;projects -->
<g id="edge6" class="edge"><title>species_options:project_id:w&#45;&gt;projects:id.type:e</title>
<path fill="none" stroke="black" d="M656.89,-355.984C595.707,-355.827 574.819,-354.315 508,-343 488.975,-339.778 485.296,-332 466,-332"/>
<polygon fill="black" stroke="black" points="663.5,-355.991 671.496,-359.6 667.5,-355.996 671.5,-356 671.5,-356 671.5,-356 667.5,-355.996 671.504,-352.4 663.5,-355.991 663.5,-355.991"/>
<ellipse fill="none" stroke="black" cx="660.3" cy="-355.988" rx="3.2" ry="3.2"/>
</g>
<!-- species_options&#45;&gt;organizations -->
<g id="edge5" class="edge"><title>species_options:organization_id:w&#45;&gt;organizations:id:e</title>
<path fill="none" stroke="black" d="M656.801,-378.02C451.742,-378.59 395.204,-391 183,-391"/>
<polygon fill="black" stroke="black" points="663.5,-378.011 671.505,-381.6 667.5,-378.006 671.5,-378 671.5,-378 671.5,-378 667.5,-378.006 671.495,-374.4 663.5,-378.011 663.5,-378.011"/>
<ellipse fill="none" stroke="black" cx="660.3" cy="-378.015" rx="3.2" ry="3.2"/>
</g>
<!-- species_options&#45;&gt;sites -->
<g id="edge7" class="edge"><title>species_options:site_id:w&#45;&gt;sites:id:e</title>
<path fill="none" stroke="black" d="M657.592,-329.272C646.191,-319.93 644.239,-300 624.5,-300"/>
<polygon fill="black" stroke="black" points="663.926,-331.425 670.341,-337.408 667.713,-332.713 671.5,-334 671.5,-334 671.5,-334 667.713,-332.713 672.659,-330.592 663.926,-331.425 663.926,-331.425"/>
<ellipse fill="none" stroke="black" cx="660.896" cy="-330.396" rx="3.20001" ry="3.20001"/>
</g>
<!-- species_options&#45;&gt;species -->
<g id="edge8" class="edge"><title>species_options:species_id:w&#45;&gt;species:elipses:e</title>
<path fill="none" stroke="black" d="M657.212,-404.153C641.119,-415.293 641.442,-445 615.5,-445"/>
<polygon fill="black" stroke="black" points="663.818,-402.233 672.505,-403.457 667.659,-401.116 671.5,-400 671.5,-400 671.5,-400 667.659,-401.116 670.495,-396.543 663.818,-402.233 663.818,-402.233"/>
<ellipse fill="none" stroke="black" cx="660.745" cy="-403.126" rx="3.20001" ry="3.20001"/>
</g>
</g>
</svg>
