<?xml version="1.0" encoding="UTF-8" standalone="no"?>
<!DOCTYPE svg PUBLIC "-//W3C//DTD SVG 1.1//EN"
 "http://www.w3.org/Graphics/SVG/1.1/DTD/svg11.dtd">
<!-- Generated by graphviz version 2.38.0 (20140413.2041)
 -->
<!-- Title: largeRelationshipsDiagram Pages: 1 -->
<svg width="764pt" height="937pt"
 viewBox="0.00 0.00 764.00 937.00" xmlns="http://www.w3.org/2000/svg" xmlns:xlink="http://www.w3.org/1999/xlink">
<g id="graph0" class="graph" transform="scale(1 1) rotate(0) translate(4 933)">
<title>largeRelationshipsDiagram</title>
<polygon fill="#ffffff" stroke="none" points="-4,4 -4,-933 760,-933 760,4 -4,4"/>
<text text-anchor="middle" x="74.5" y="-7.2" font-family="Helvetica,sans-Serif" font-size="11.00">Generated by SchemaSpy</text>
<!-- batch_quantity_history -->
<g id="node1" class="node"><title>batch_quantity_history</title>
<g id="a_node1"><a xlink:href="../../tables/batch_quantity_history.html" xlink:title="batch_quantity_history" target="_top">
<polygon fill="#ffffff" stroke="none" points="547,-638 547,-876 728,-876 728,-638 547,-638"/>
<polygon fill="#f5f5f5" stroke="none" points="547.5,-854 547.5,-876 728.5,-876 728.5,-854 547.5,-854"/>
<polygon fill="none" stroke="black" points="547.5,-854 547.5,-876 728.5,-876 728.5,-854 547.5,-854"/>
<text text-anchor="start" x="552.5" y="-863.2" font-family="Helvetica,sans-Serif" font-weight="bold" font-size="11.00">batch_quantity_history</text>
<text text-anchor="start" x="689.5" y="-862.2" font-family="Helvetica,sans-Serif" font-size="11.00">[table]</text>
<polygon fill="none" stroke="black" points="547.5,-832 547.5,-854 728.5,-854 728.5,-832 547.5,-832"/>
<image xlink:href="../../images/primaryKeys.png" width="11px" height="12px" preserveAspectRatio="xMinYMin meet" x="552.5" y="-849"/>
<text text-anchor="start" x="579.5" y="-840.2" font-family="Helvetica,sans-Serif" font-size="11.00">id</text>
<polygon fill="#ffffff" stroke="none" points="547.5,-810 547.5,-832 728.5,-832 728.5,-810 547.5,-810"/>
<polygon fill="none" stroke="black" points="547.5,-810 547.5,-832 728.5,-832 728.5,-810 547.5,-810"/>
<image xlink:href="../../images/foreignKeys.png" width="11px" height="12px" preserveAspectRatio="xMinYMin meet" x="552.5" y="-827"/>
<text text-anchor="start" x="579.5" y="-818.2" font-family="Helvetica,sans-Serif" font-size="11.00">batch_id</text>
<polygon fill="none" stroke="black" points="547.5,-788 547.5,-810 728.5,-810 728.5,-788 547.5,-788"/>
<image xlink:href="../../images/foreignKeys.png" width="11px" height="12px" preserveAspectRatio="xMinYMin meet" x="552.5" y="-805"/>
<text text-anchor="start" x="579.5" y="-796.2" font-family="Helvetica,sans-Serif" font-size="11.00">history_type_id</text>
<polygon fill="none" stroke="black" points="547.5,-766 547.5,-788 728.5,-788 728.5,-766 547.5,-766"/>
<text text-anchor="start" x="579.5" y="-774.2" font-family="Helvetica,sans-Serif" font-size="11.00">created_by</text>
<polygon fill="none" stroke="black" points="547.5,-744 547.5,-766 728.5,-766 728.5,-744 547.5,-744"/>
<text text-anchor="start" x="579.5" y="-752.2" font-family="Helvetica,sans-Serif" font-size="11.00">created_time</text>
<polygon fill="none" stroke="black" points="547.5,-722 547.5,-744 728.5,-744 728.5,-722 547.5,-722"/>
<text text-anchor="start" x="579.5" y="-730.2" font-family="Helvetica,sans-Serif" font-size="11.00">germinating_quantity</text>
<polygon fill="none" stroke="black" points="547.5,-700 547.5,-722 728.5,-722 728.5,-700 547.5,-700"/>
<text text-anchor="start" x="579.5" y="-708.2" font-family="Helvetica,sans-Serif" font-size="11.00">not_ready_quantity</text>
<polygon fill="none" stroke="black" points="547.5,-678 547.5,-700 728.5,-700 728.5,-678 547.5,-678"/>
<text text-anchor="start" x="579.5" y="-686.2" font-family="Helvetica,sans-Serif" font-size="11.00">ready_quantity</text>
<polygon fill="none" stroke="black" points="547.5,-656 547.5,-678 728.5,-678 728.5,-656 547.5,-656"/>
<image xlink:href="../../images/foreignKeys.png" width="11px" height="12px" preserveAspectRatio="xMinYMin meet" x="552.5" y="-673"/>
<text text-anchor="start" x="579.5" y="-664.2" font-family="Helvetica,sans-Serif" font-size="11.00">withdrawal_id</text>
<polygon fill="#ffffff" stroke="none" points="547.5,-638 547.5,-656 621.5,-656 621.5,-638 547.5,-638"/>
<polygon fill="none" stroke="black" points="547.5,-638 547.5,-656 621.5,-656 621.5,-638 547.5,-638"/>
<text text-anchor="start" x="550.5" y="-644.2" font-family="Helvetica,sans-Serif" font-size="11.00">&lt; 3</text>
<polygon fill="#ffffff" stroke="none" points="621.5,-638 621.5,-656 689.5,-656 689.5,-638 621.5,-638"/>
<polygon fill="none" stroke="black" points="621.5,-638 621.5,-656 689.5,-656 689.5,-638 621.5,-638"/>
<text text-anchor="start" x="650.5" y="-644.2" font-family="Helvetica,sans-Serif" font-size="11.00">0 rows</text>
<polygon fill="#ffffff" stroke="none" points="689.5,-638 689.5,-656 728.5,-656 728.5,-638 689.5,-638"/>
<polygon fill="none" stroke="black" points="689.5,-638 689.5,-656 728.5,-656 728.5,-638 689.5,-638"/>
<text text-anchor="start" x="718.5" y="-644.2" font-family="Helvetica,sans-Serif" font-size="11.00"> &#160;</text>
</a>
</g>
</g>
<!-- batch_quantity_history_types -->
<g id="node2" class="node"><title>batch_quantity_history_types</title>
<g id="a_node2"><a xlink:href="../../tables/batch_quantity_history_types.html" xlink:title="batch_quantity_history_types" target="_top">
<polygon fill="#ffffff" stroke="none" points="244.5,-841 244.5,-925 461.5,-925 461.5,-841 244.5,-841"/>
<polygon fill="#f5f5f5" stroke="none" points="245,-903 245,-925 462,-925 462,-903 245,-903"/>
<polygon fill="none" stroke="black" points="245,-903 245,-925 462,-925 462,-903 245,-903"/>
<text text-anchor="start" x="250" y="-912.2" font-family="Helvetica,sans-Serif" font-weight="bold" font-size="11.00">batch_quantity_history_types</text>
<text text-anchor="start" x="423" y="-911.2" font-family="Helvetica,sans-Serif" font-size="11.00">[table]</text>
<polygon fill="none" stroke="black" points="245,-881 245,-903 462,-903 462,-881 245,-881"/>
<image xlink:href="../../images/primaryKeys.png" width="11px" height="12px" preserveAspectRatio="xMinYMin meet" x="250" y="-898"/>
<text text-anchor="start" x="276" y="-889.2" font-family="Helvetica,sans-Serif" font-size="11.00">id</text>
<polygon fill="none" stroke="black" points="245,-859 245,-881 462,-881 462,-859 245,-859"/>
<text text-anchor="start" x="276" y="-867.2" font-family="Helvetica,sans-Serif" font-size="11.00">name</text>
<polygon fill="#ffffff" stroke="none" points="245,-841 245,-859 327,-859 327,-841 245,-841"/>
<polygon fill="none" stroke="black" points="245,-841 245,-859 327,-859 327,-841 245,-841"/>
<text text-anchor="start" x="248" y="-847.2" font-family="Helvetica,sans-Serif" font-size="11.00"> &#160;</text>
<polygon fill="#ffffff" stroke="none" points="327,-841 327,-859 404,-859 404,-841 327,-841"/>
<polygon fill="none" stroke="black" points="327,-841 327,-859 404,-859 404,-841 327,-841"/>
<text text-anchor="start" x="365" y="-847.2" font-family="Helvetica,sans-Serif" font-size="11.00">2 rows</text>
<polygon fill="#ffffff" stroke="none" points="404,-841 404,-859 462,-859 462,-841 404,-841"/>
<polygon fill="none" stroke="black" points="404,-841 404,-859 462,-859 462,-841 404,-841"/>
<text text-anchor="start" x="442" y="-847.2" font-family="Helvetica,sans-Serif" font-size="11.00">1 &gt;</text>
</a>
</g>
</g>
<!-- batch_quantity_history&#45;&gt;batch_quantity_history_types -->
<g id="edge2" class="edge"><title>batch_quantity_history:history_type_id:w&#45;&gt;batch_quantity_history_types:id:e</title>
<path fill="none" stroke="black" d="M531.974,-801.683C495.699,-816.931 512.907,-892 463,-892"/>
<polygon fill="black" stroke="black" points="538.633,-800.453 547.154,-802.54 542.567,-799.727 546.5,-799 546.5,-799 546.5,-799 542.567,-799.727 545.846,-795.46 538.633,-800.453 538.633,-800.453"/>
<ellipse fill="none" stroke="black" cx="535.486" cy="-801.034" rx="3.2" ry="3.2"/>
</g>
<!-- batches -->
<g id="node4" class="node"><title>batches</title>
<g id="a_node4"><a xlink:href="../../tables/batches.html" xlink:title="batches" target="_top">
<polygon fill="#ffffff" stroke="none" points="228,-318 228,-820 478,-820 478,-318 228,-318"/>
<polygon fill="#f5f5f5" stroke="none" points="228,-798 228,-820 478,-820 478,-798 228,-798"/>
<polygon fill="none" stroke="black" points="228,-798 228,-820 478,-820 478,-798 228,-798"/>
<text text-anchor="start" x="233" y="-807.2" font-family="Helvetica,sans-Serif" font-weight="bold" font-size="11.00">batches</text>
<text text-anchor="start" x="439" y="-806.2" font-family="Helvetica,sans-Serif" font-size="11.00">[table]</text>
<polygon fill="none" stroke="black" points="228,-776 228,-798 478,-798 478,-776 228,-776"/>
<image xlink:href="../../images/primaryKeys.png" width="11px" height="12px" preserveAspectRatio="xMinYMin meet" x="233" y="-793"/>
<text text-anchor="start" x="248" y="-784.2" font-family="Helvetica,sans-Serif" font-size="11.00">id</text>
<polygon fill="none" stroke="black" points="228,-754 228,-776 478,-776 478,-754 228,-754"/>
<text text-anchor="start" x="248" y="-762.2" font-family="Helvetica,sans-Serif" font-size="11.00">version</text>
<polygon fill="#ffffff" stroke="none" points="228,-732 228,-754 478,-754 478,-732 228,-732"/>
<polygon fill="none" stroke="black" points="228,-732 228,-754 478,-754 478,-732 228,-732"/>
<text text-anchor="start" x="248" y="-740.2" font-family="Helvetica,sans-Serif" font-size="11.00">organization_id</text>
<polygon fill="none" stroke="black" points="228,-710 228,-732 478,-732 478,-710 228,-710"/>
<text text-anchor="start" x="248" y="-718.2" font-family="Helvetica,sans-Serif" font-size="11.00">facility_id</text>
<polygon fill="#ffffff" stroke="none" points="228,-688 228,-710 478,-710 478,-688 228,-688"/>
<polygon fill="none" stroke="black" points="228,-688 228,-710 478,-710 478,-688 228,-688"/>
<text text-anchor="start" x="248" y="-696.2" font-family="Helvetica,sans-Serif" font-size="11.00">species_id</text>
<polygon fill="#ffffff" stroke="none" points="228,-666 228,-688 478,-688 478,-666 228,-666"/>
<polygon fill="none" stroke="black" points="228,-666 228,-688 478,-688 478,-666 228,-666"/>
<text text-anchor="start" x="248" y="-674.2" font-family="Helvetica,sans-Serif" font-size="11.00">batch_number</text>
<polygon fill="none" stroke="black" points="228,-644 228,-666 478,-666 478,-644 228,-644"/>
<text text-anchor="start" x="248" y="-652.2" font-family="Helvetica,sans-Serif" font-size="11.00">added_date</text>
<polygon fill="none" stroke="black" points="228,-622 228,-644 478,-644 478,-622 228,-622"/>
<text text-anchor="start" x="248" y="-630.2" font-family="Helvetica,sans-Serif" font-size="11.00">germinating_quantity</text>
<polygon fill="none" stroke="black" points="228,-600 228,-622 478,-622 478,-600 228,-600"/>
<text text-anchor="start" x="248" y="-608.2" font-family="Helvetica,sans-Serif" font-size="11.00">not_ready_quantity</text>
<polygon fill="none" stroke="black" points="228,-578 228,-600 478,-600 478,-578 228,-578"/>
<text text-anchor="start" x="248" y="-586.2" font-family="Helvetica,sans-Serif" font-size="11.00">ready_quantity</text>
<polygon fill="none" stroke="black" points="228,-556 228,-578 478,-578 478,-556 228,-556"/>
<text text-anchor="start" x="248" y="-564.2" font-family="Helvetica,sans-Serif" font-size="11.00">latest_observed_germinating_quantity</text>
<polygon fill="none" stroke="black" points="228,-534 228,-556 478,-556 478,-534 228,-534"/>
<text text-anchor="start" x="248" y="-542.2" font-family="Helvetica,sans-Serif" font-size="11.00">latest_observed_not_ready_quantity</text>
<polygon fill="none" stroke="black" points="228,-512 228,-534 478,-534 478,-512 228,-512"/>
<text text-anchor="start" x="248" y="-520.2" font-family="Helvetica,sans-Serif" font-size="11.00">latest_observed_ready_quantity</text>
<polygon fill="none" stroke="black" points="228,-490 228,-512 478,-512 478,-490 228,-490"/>
<text text-anchor="start" x="248" y="-498.2" font-family="Helvetica,sans-Serif" font-size="11.00">latest_observed_time</text>
<polygon fill="none" stroke="black" points="228,-468 228,-490 478,-490 478,-468 228,-468"/>
<text text-anchor="start" x="248" y="-476.2" font-family="Helvetica,sans-Serif" font-size="11.00">created_by</text>
<polygon fill="none" stroke="black" points="228,-446 228,-468 478,-468 478,-446 228,-446"/>
<text text-anchor="start" x="248" y="-454.2" font-family="Helvetica,sans-Serif" font-size="11.00">created_time</text>
<polygon fill="none" stroke="black" points="228,-424 228,-446 478,-446 478,-424 228,-424"/>
<text text-anchor="start" x="248" y="-432.2" font-family="Helvetica,sans-Serif" font-size="11.00">modified_by</text>
<polygon fill="none" stroke="black" points="228,-402 228,-424 478,-424 478,-402 228,-402"/>
<text text-anchor="start" x="248" y="-410.2" font-family="Helvetica,sans-Serif" font-size="11.00">modified_time</text>
<polygon fill="none" stroke="black" points="228,-380 228,-402 478,-402 478,-380 228,-380"/>
<text text-anchor="start" x="248" y="-388.2" font-family="Helvetica,sans-Serif" font-size="11.00">notes</text>
<polygon fill="none" stroke="black" points="228,-358 228,-380 478,-380 478,-358 228,-358"/>
<text text-anchor="start" x="248" y="-366.2" font-family="Helvetica,sans-Serif" font-size="11.00">ready_by_date</text>
<polygon fill="none" stroke="black" points="228,-336 228,-358 478,-358 478,-336 228,-336"/>
<text text-anchor="start" x="248" y="-344.2" font-family="Helvetica,sans-Serif" font-size="11.00">accession_id</text>
<polygon fill="#ffffff" stroke="none" points="228,-318 228,-336 327,-336 327,-318 228,-318"/>
<polygon fill="none" stroke="black" points="228,-318 228,-336 327,-336 327,-318 228,-318"/>
<text text-anchor="start" x="231" y="-324.2" font-family="Helvetica,sans-Serif" font-size="11.00"> &#160;</text>
<polygon fill="#ffffff" stroke="none" points="327,-318 327,-336 412,-336 412,-318 327,-318"/>
<polygon fill="none" stroke="black" points="327,-318 327,-336 412,-336 412,-318 327,-318"/>
<text text-anchor="start" x="373" y="-324.2" font-family="Helvetica,sans-Serif" font-size="11.00">0 rows</text>
<polygon fill="#ffffff" stroke="none" points="412,-318 412,-336 478,-336 478,-318 412,-318"/>
<polygon fill="none" stroke="black" points="412,-318 412,-336 478,-336 478,-318 412,-318"/>
<text text-anchor="start" x="458" y="-324.2" font-family="Helvetica,sans-Serif" font-size="11.00">3 &gt;</text>
</a>
</g>
</g>
<!-- batch_quantity_history&#45;&gt;batches -->
<g id="edge1" class="edge"><title>batch_quantity_history:batch_id:w&#45;&gt;batches:id:e</title>
<path fill="none" stroke="black" d="M532.074,-818.444C511.863,-810.537 506.949,-787 479,-787"/>
<polygon fill="black" stroke="black" points="538.623,-819.604 545.872,-824.545 542.561,-820.302 546.5,-821 546.5,-821 546.5,-821 542.561,-820.302 547.128,-817.455 538.623,-819.604 538.623,-819.604"/>
<ellipse fill="none" stroke="black" cx="535.472" cy="-819.046" rx="3.2" ry="3.2"/>
</g>
<!-- withdrawals -->
<g id="node7" class="node"><title>withdrawals</title>
<g id="a_node7"><a xlink:href="../../tables/withdrawals.html" xlink:title="withdrawals" target="_top">
<polygon fill="#ffffff" stroke="none" points="277,-37 277,-297 429,-297 429,-37 277,-37"/>
<polygon fill="#f5f5f5" stroke="none" points="277,-275 277,-297 429,-297 429,-275 277,-275"/>
<polygon fill="none" stroke="black" points="277,-275 277,-297 429,-297 429,-275 277,-275"/>
<text text-anchor="start" x="282" y="-284.2" font-family="Helvetica,sans-Serif" font-weight="bold" font-size="11.00">withdrawals</text>
<text text-anchor="start" x="390" y="-283.2" font-family="Helvetica,sans-Serif" font-size="11.00">[table]</text>
<polygon fill="none" stroke="black" points="277,-253 277,-275 429,-275 429,-253 277,-253"/>
<image xlink:href="../../images/primaryKeys.png" width="11px" height="12px" preserveAspectRatio="xMinYMin meet" x="282" y="-270"/>
<text text-anchor="start" x="297" y="-261.2" font-family="Helvetica,sans-Serif" font-size="11.00">id</text>
<polygon fill="#ffffff" stroke="none" points="277,-231 277,-253 429,-253 429,-231 277,-231"/>
<polygon fill="none" stroke="black" points="277,-231 277,-253 429,-253 429,-231 277,-231"/>
<text text-anchor="start" x="297" y="-239.2" font-family="Helvetica,sans-Serif" font-size="11.00">facility_id</text>
<polygon fill="none" stroke="black" points="277,-209 277,-231 429,-231 429,-209 277,-209"/>
<image xlink:href="../../images/foreignKeys.png" width="11px" height="12px" preserveAspectRatio="xMinYMin meet" x="282" y="-226"/>
<text text-anchor="start" x="297" y="-217.2" font-family="Helvetica,sans-Serif" font-size="11.00">purpose_id</text>
<polygon fill="none" stroke="black" points="277,-187 277,-209 429,-209 429,-187 277,-187"/>
<text text-anchor="start" x="297" y="-195.2" font-family="Helvetica,sans-Serif" font-size="11.00">withdrawn_date</text>
<polygon fill="none" stroke="black" points="277,-165 277,-187 429,-187 429,-165 277,-165"/>
<text text-anchor="start" x="297" y="-173.2" font-family="Helvetica,sans-Serif" font-size="11.00">created_by</text>
<polygon fill="none" stroke="black" points="277,-143 277,-165 429,-165 429,-143 277,-143"/>
<text text-anchor="start" x="297" y="-151.2" font-family="Helvetica,sans-Serif" font-size="11.00">created_time</text>
<polygon fill="none" stroke="black" points="277,-121 277,-143 429,-143 429,-121 277,-121"/>
<text text-anchor="start" x="297" y="-129.2" font-family="Helvetica,sans-Serif" font-size="11.00">modified_by</text>
<polygon fill="none" stroke="black" points="277,-99 277,-121 429,-121 429,-99 277,-99"/>
<text text-anchor="start" x="297" y="-107.2" font-family="Helvetica,sans-Serif" font-size="11.00">modified_time</text>
<polygon fill="#ffffff" stroke="none" points="277,-77 277,-99 429,-99 429,-77 277,-77"/>
<polygon fill="none" stroke="black" points="277,-77 277,-99 429,-99 429,-77 277,-77"/>
<text text-anchor="start" x="297" y="-85.2" font-family="Helvetica,sans-Serif" font-size="11.00">destination_facility_id</text>
<polygon fill="none" stroke="black" points="277,-55 277,-77 429,-77 429,-55 277,-55"/>
<text text-anchor="start" x="297" y="-63.2" font-family="Helvetica,sans-Serif" font-size="11.00">notes</text>
<polygon fill="#ffffff" stroke="none" points="277,-37 277,-55 332,-55 332,-37 277,-37"/>
<polygon fill="none" stroke="black" points="277,-37 277,-55 332,-55 332,-37 277,-37"/>
<text text-anchor="start" x="280" y="-43.2" font-family="Helvetica,sans-Serif" font-size="11.00">&lt; 1</text>
<polygon fill="#ffffff" stroke="none" points="332,-37 332,-55 390,-55 390,-37 332,-37"/>
<polygon fill="none" stroke="black" points="332,-37 332,-55 390,-55 390,-37 332,-37"/>
<text text-anchor="start" x="351" y="-43.2" font-family="Helvetica,sans-Serif" font-size="11.00">0 rows</text>
<polygon fill="#ffffff" stroke="none" points="390,-37 390,-55 429,-55 429,-37 390,-37"/>
<polygon fill="none" stroke="black" points="390,-37 390,-55 429,-55 429,-37 390,-37"/>
<text text-anchor="start" x="409" y="-43.2" font-family="Helvetica,sans-Serif" font-size="11.00">4 &gt;</text>
</a>
</g>
</g>
<!-- batch_quantity_history&#45;&gt;withdrawals -->
<g id="edge3" class="edge"><title>batch_quantity_history:withdrawal_id:w&#45;&gt;withdrawals:id:e</title>
<path fill="none" stroke="black" d="M532.713,-662.421C525.217,-655.573 524.232,-641.965 519,-628 468.839,-494.111 555.022,-433.213 486,-308 470.72,-280.28 461.652,-264 430,-264"/>
<polygon fill="black" stroke="black" points="538.908,-664.479 545.365,-670.417 542.704,-665.739 546.5,-667 546.5,-667 546.5,-667 542.704,-665.739 547.635,-663.583 538.908,-664.479 538.908,-664.479"/>
<ellipse fill="none" stroke="black" cx="535.871" cy="-663.47" rx="3.20001" ry="3.20001"/>
</g>
<!-- batch_withdrawals -->
<g id="node3" class="node"><title>batch_withdrawals</title>
<g id="a_node3"><a xlink:href="../../tables/batch_withdrawals.html" xlink:title="batch_withdrawals" target="_top">
<polygon fill="#ffffff" stroke="none" points="527,-445 527,-617 748,-617 748,-445 527,-445"/>
<polygon fill="#f5f5f5" stroke="none" points="527.5,-595 527.5,-617 748.5,-617 748.5,-595 527.5,-595"/>
<polygon fill="none" stroke="black" points="527.5,-595 527.5,-617 748.5,-617 748.5,-595 527.5,-595"/>
<text text-anchor="start" x="532.5" y="-604.2" font-family="Helvetica,sans-Serif" font-weight="bold" font-size="11.00">batch_withdrawals</text>
<text text-anchor="start" x="709.5" y="-603.2" font-family="Helvetica,sans-Serif" font-size="11.00">[table]</text>
<polygon fill="none" stroke="black" points="527.5,-573 527.5,-595 748.5,-595 748.5,-573 527.5,-573"/>
<image xlink:href="../../images/primaryKeys.png" width="11px" height="12px" preserveAspectRatio="xMinYMin meet" x="532.5" y="-590"/>
<text text-anchor="start" x="547.5" y="-581.2" font-family="Helvetica,sans-Serif" font-size="11.00">batch_id</text>
<polygon fill="none" stroke="black" points="527.5,-551 527.5,-573 748.5,-573 748.5,-551 527.5,-551"/>
<image xlink:href="../../images/primaryKeys.png" width="11px" height="12px" preserveAspectRatio="xMinYMin meet" x="532.5" y="-568"/>
<text text-anchor="start" x="547.5" y="-559.2" font-family="Helvetica,sans-Serif" font-size="11.00">withdrawal_id</text>
<polygon fill="none" stroke="black" points="527.5,-529 527.5,-551 748.5,-551 748.5,-529 527.5,-529"/>
<text text-anchor="start" x="547.5" y="-537.2" font-family="Helvetica,sans-Serif" font-size="11.00">germinating_quantity_withdrawn</text>
<polygon fill="none" stroke="black" points="527.5,-507 527.5,-529 748.5,-529 748.5,-507 527.5,-507"/>
<text text-anchor="start" x="547.5" y="-515.2" font-family="Helvetica,sans-Serif" font-size="11.00">not_ready_quantity_withdrawn</text>
<polygon fill="none" stroke="black" points="527.5,-485 527.5,-507 748.5,-507 748.5,-485 527.5,-485"/>
<text text-anchor="start" x="547.5" y="-493.2" font-family="Helvetica,sans-Serif" font-size="11.00">ready_quantity_withdrawn</text>
<polygon fill="#ffffff" stroke="none" points="527.5,-463 527.5,-485 748.5,-485 748.5,-463 527.5,-463"/>
<polygon fill="none" stroke="black" points="527.5,-463 527.5,-485 748.5,-485 748.5,-463 527.5,-463"/>
<image xlink:href="../../images/foreignKeys.png" width="11px" height="12px" preserveAspectRatio="xMinYMin meet" x="532.5" y="-480"/>
<text text-anchor="start" x="547.5" y="-471.2" font-family="Helvetica,sans-Serif" font-size="11.00">destination_batch_id</text>
<polygon fill="#ffffff" stroke="none" points="527.5,-445 527.5,-463 621.5,-463 621.5,-445 527.5,-445"/>
<polygon fill="none" stroke="black" points="527.5,-445 527.5,-463 621.5,-463 621.5,-445 527.5,-445"/>
<text text-anchor="start" x="530.5" y="-451.2" font-family="Helvetica,sans-Serif" font-size="11.00">&lt; 3</text>
<polygon fill="#ffffff" stroke="none" points="621.5,-445 621.5,-463 699.5,-463 699.5,-445 621.5,-445"/>
<polygon fill="none" stroke="black" points="621.5,-445 621.5,-463 699.5,-463 699.5,-445 621.5,-445"/>
<text text-anchor="start" x="660.5" y="-451.2" font-family="Helvetica,sans-Serif" font-size="11.00">0 rows</text>
<polygon fill="#ffffff" stroke="none" points="699.5,-445 699.5,-463 748.5,-463 748.5,-445 699.5,-445"/>
<polygon fill="none" stroke="black" points="699.5,-445 699.5,-463 748.5,-463 748.5,-445 699.5,-445"/>
<text text-anchor="start" x="738.5" y="-451.2" font-family="Helvetica,sans-Serif" font-size="11.00"> &#160;</text>
</a>
</g>
</g>
<!-- batch_withdrawals&#45;&gt;batches -->
<g id="edge4" class="edge"><title>batch_withdrawals:batch_id:w&#45;&gt;batches:id:e</title>
<path fill="none" stroke="black" d="M512.102,-586.142C449.685,-607.838 566.049,-787 479,-787"/>
<polygon fill="black" stroke="black" points="518.587,-585.177 527.03,-587.561 522.544,-584.589 526.5,-584 526.5,-584 526.5,-584 522.544,-584.589 525.97,-580.439 518.587,-585.177 518.587,-585.177"/>
<ellipse fill="none" stroke="black" cx="515.422" cy="-585.648" rx="3.2" ry="3.2"/>
</g>
<!-- batch_withdrawals&#45;&gt;batches -->
<g id="edge5" class="edge"><title>batch_withdrawals:destination_batch_id:w&#45;&gt;batches:id:e</title>
<path fill="none" stroke="black" d="M512.85,-479.433C469.713,-520.996 543.856,-787 479,-787"/>
<polygon fill="black" stroke="black" points="519.067,-476.958 527.831,-477.345 522.784,-475.479 526.5,-474 526.5,-474 526.5,-474 522.784,-475.479 525.169,-470.655 519.067,-476.958 519.067,-476.958"/>
<ellipse fill="none" stroke="black" cx="516.094" cy="-478.142" rx="3.20001" ry="3.20001"/>
</g>
<!-- batch_withdrawals&#45;&gt;withdrawals -->
<g id="edge6" class="edge"><title>batch_withdrawals:withdrawal_id:w&#45;&gt;withdrawals:id:e</title>
<path fill="none" stroke="black" d="M512.988,-556.899C477.242,-524.98 512.252,-352.654 486,-308 469.958,-280.714 461.652,-264 430,-264"/>
<polygon fill="black" stroke="black" points="519.016,-559.174 525.228,-565.368 522.758,-560.587 526.5,-562 526.5,-562 526.5,-562 522.758,-560.587 527.772,-558.632 519.016,-559.174 519.016,-559.174"/>
<ellipse fill="none" stroke="black" cx="516.022" cy="-558.044" rx="3.20001" ry="3.20001"/>
</g>
<!-- withdrawal_photos -->
<g id="node5" class="node"><title>withdrawal_photos</title>
<g id="a_node5"><a xlink:href="../../tables/withdrawal_photos.html" xlink:title="withdrawal_photos" target="_top">
<polygon fill="#ffffff" stroke="none" points="558.5,-305 558.5,-389 716.5,-389 716.5,-305 558.5,-305"/>
<polygon fill="#f5f5f5" stroke="none" points="558.5,-367 558.5,-389 716.5,-389 716.5,-367 558.5,-367"/>
<polygon fill="none" stroke="black" points="558.5,-367 558.5,-389 716.5,-389 716.5,-367 558.5,-367"/>
<text text-anchor="start" x="563.5" y="-376.2" font-family="Helvetica,sans-Serif" font-weight="bold" font-size="11.00">withdrawal_photos</text>
<text text-anchor="start" x="677.5" y="-375.2" font-family="Helvetica,sans-Serif" font-size="11.00">[table]</text>
<polygon fill="none" stroke="black" points="558.5,-345 558.5,-367 716.5,-367 716.5,-345 558.5,-345"/>
<image xlink:href="../../images/primaryKeys.png" width="11px" height="12px" preserveAspectRatio="xMinYMin meet" x="563.5" y="-362"/>
<text text-anchor="start" x="590.5" y="-353.2" font-family="Helvetica,sans-Serif" font-size="11.00">photo_id</text>
<polygon fill="#ffffff" stroke="none" points="558.5,-323 558.5,-345 716.5,-345 716.5,-323 558.5,-323"/>
<polygon fill="none" stroke="black" points="558.5,-323 558.5,-345 716.5,-345 716.5,-323 558.5,-323"/>
<image xlink:href="../../images/foreignKeys.png" width="11px" height="12px" preserveAspectRatio="xMinYMin meet" x="563.5" y="-340"/>
<text text-anchor="start" x="590.5" y="-331.2" font-family="Helvetica,sans-Serif" font-size="11.00">withdrawal_id</text>
<polygon fill="#ffffff" stroke="none" points="558.5,-305 558.5,-323 621.5,-323 621.5,-305 558.5,-305"/>
<polygon fill="none" stroke="black" points="558.5,-305 558.5,-323 621.5,-323 621.5,-305 558.5,-305"/>
<text text-anchor="start" x="561.5" y="-311.2" font-family="Helvetica,sans-Serif" font-size="11.00">&lt; 1</text>
<polygon fill="#ffffff" stroke="none" points="621.5,-305 621.5,-323 683.5,-323 683.5,-305 621.5,-305"/>
<polygon fill="none" stroke="black" points="621.5,-305 621.5,-323 683.5,-323 683.5,-305 621.5,-305"/>
<text text-anchor="start" x="644.5" y="-311.2" font-family="Helvetica,sans-Serif" font-size="11.00">0 rows</text>
<polygon fill="#ffffff" stroke="none" points="683.5,-305 683.5,-323 716.5,-323 716.5,-305 683.5,-305"/>
<polygon fill="none" stroke="black" points="683.5,-305 683.5,-323 716.5,-323 716.5,-305 683.5,-305"/>
<text text-anchor="start" x="706.5" y="-311.2" font-family="Helvetica,sans-Serif" font-size="11.00"> &#160;</text>
</a>
</g>
</g>
<!-- withdrawal_photos&#45;&gt;withdrawals -->
<g id="edge7" class="edge"><title>withdrawal_photos:withdrawal_id:w&#45;&gt;withdrawals:id:e</title>
<path fill="none" stroke="black" d="M542.859,-332.664C492.701,-322.987 489.342,-264 430,-264"/>
<polygon fill="black" stroke="black" points="549.533,-333.273 557.173,-337.585 553.517,-333.637 557.5,-334 557.5,-334 557.5,-334 553.517,-333.637 557.827,-330.415 549.533,-333.273 549.533,-333.273"/>
<ellipse fill="none" stroke="black" cx="546.346" cy="-332.982" rx="3.2" ry="3.2"/>
</g>
<!-- withdrawal_purposes -->
<g id="node6" class="node"><title>withdrawal_purposes</title>
<g id="a_node6"><a xlink:href="../../tables/withdrawal_purposes.html" xlink:title="withdrawal_purposes" target="_top">
<polygon fill="#ffffff" stroke="none" points="8,-169 8,-253 179,-253 179,-169 8,-169"/>
<polygon fill="#f5f5f5" stroke="none" points="8.5,-231 8.5,-253 179.5,-253 179.5,-231 8.5,-231"/>
<polygon fill="none" stroke="black" points="8.5,-231 8.5,-253 179.5,-253 179.5,-231 8.5,-231"/>
<text text-anchor="start" x="13.5" y="-240.2" font-family="Helvetica,sans-Serif" font-weight="bold" font-size="11.00">withdrawal_purposes</text>
<text text-anchor="start" x="140.5" y="-239.2" font-family="Helvetica,sans-Serif" font-size="11.00">[table]</text>
<polygon fill="none" stroke="black" points="8.5,-209 8.5,-231 179.5,-231 179.5,-209 8.5,-209"/>
<image xlink:href="../../images/primaryKeys.png" width="11px" height="12px" preserveAspectRatio="xMinYMin meet" x="13.5" y="-226"/>
<text text-anchor="start" x="39.5" y="-217.2" font-family="Helvetica,sans-Serif" font-size="11.00">id</text>
<polygon fill="none" stroke="black" points="8.5,-187 8.5,-209 179.5,-209 179.5,-187 8.5,-187"/>
<text text-anchor="start" x="39.5" y="-195.2" font-family="Helvetica,sans-Serif" font-size="11.00">name</text>
<polygon fill="#ffffff" stroke="none" points="8.5,-169 8.5,-187 67.5,-187 67.5,-169 8.5,-169"/>
<polygon fill="none" stroke="black" points="8.5,-169 8.5,-187 67.5,-187 67.5,-169 8.5,-169"/>
<text text-anchor="start" x="11.5" y="-175.2" font-family="Helvetica,sans-Serif" font-size="11.00"> &#160;</text>
<polygon fill="#ffffff" stroke="none" points="67.5,-169 67.5,-187 132.5,-187 132.5,-169 67.5,-169"/>
<polygon fill="none" stroke="black" points="67.5,-169 67.5,-187 132.5,-187 132.5,-169 67.5,-169"/>
<text text-anchor="start" x="93.5" y="-175.2" font-family="Helvetica,sans-Serif" font-size="11.00">4 rows</text>
<polygon fill="#ffffff" stroke="none" points="132.5,-169 132.5,-187 179.5,-187 179.5,-169 132.5,-169"/>
<polygon fill="none" stroke="black" points="132.5,-169 132.5,-187 179.5,-187 179.5,-169 132.5,-169"/>
<text text-anchor="start" x="159.5" y="-175.2" font-family="Helvetica,sans-Serif" font-size="11.00">1 &gt;</text>
</a>
</g>
</g>
<!-- withdrawals&#45;&gt;withdrawal_purposes -->
<g id="edge8" class="edge"><title>withdrawals:purpose_id:w&#45;&gt;withdrawal_purposes:id:e</title>
<path fill="none" stroke="black" d="M261.451,-220C230.405,-220 217.639,-220 180.5,-220"/>
<polygon fill="black" stroke="black" points="268,-220 276,-223.6 272,-220 276,-220 276,-220 276,-220 272,-220 276,-216.4 268,-220 268,-220"/>
<ellipse fill="none" stroke="black" cx="264.8" cy="-220" rx="3.2" ry="3.2"/>
</g>
<!-- tracking.deliveries -->
<g id="node8" class="node"><title>tracking.deliveries</title>
<g id="a_node8"><a xlink:href="../../../tracking/tables/deliveries.html" xlink:title="tracking.deliveries" target="_top">
<polygon fill="#ffffff" stroke="none" points="560,-46 560,-284 715,-284 715,-46 560,-46"/>
<polygon fill="#f5f5f5" stroke="none" points="560.5,-262 560.5,-284 715.5,-284 715.5,-262 560.5,-262"/>
<polygon fill="none" stroke="black" points="560.5,-262 560.5,-284 715.5,-284 715.5,-262 560.5,-262"/>
<text text-anchor="start" x="565.5" y="-271.2" font-family="Helvetica,sans-Serif" font-weight="bold" font-size="11.00">tracking.deliveries</text>
<text text-anchor="start" x="676.5" y="-270.2" font-family="Helvetica,sans-Serif" font-size="11.00">[table]</text>
<polygon fill="none" stroke="black" points="560.5,-240 560.5,-262 715.5,-262 715.5,-240 560.5,-240"/>
<text text-anchor="start" x="599.5" y="-248.2" font-family="Helvetica,sans-Serif" font-size="11.00">id</text>
<polygon fill="none" stroke="black" points="560.5,-218 560.5,-240 715.5,-240 715.5,-218 560.5,-218"/>
<image xlink:href="../../images/foreignKeys.png" width="11px" height="12px" preserveAspectRatio="xMinYMin meet" x="565.5" y="-235"/>
<text text-anchor="start" x="599.5" y="-226.2" font-family="Helvetica,sans-Serif" font-size="11.00">withdrawal_id</text>
<polygon fill="none" stroke="black" points="560.5,-196 560.5,-218 715.5,-218 715.5,-196 560.5,-196"/>
<text text-anchor="start" x="599.5" y="-204.2" font-family="Helvetica,sans-Serif" font-size="11.00">planting_site_id</text>
<polygon fill="none" stroke="black" points="560.5,-174 560.5,-196 715.5,-196 715.5,-174 560.5,-174"/>
<text text-anchor="start" x="599.5" y="-182.2" font-family="Helvetica,sans-Serif" font-size="11.00">created_by</text>
<polygon fill="none" stroke="black" points="560.5,-152 560.5,-174 715.5,-174 715.5,-152 560.5,-152"/>
<text text-anchor="start" x="599.5" y="-160.2" font-family="Helvetica,sans-Serif" font-size="11.00">created_time</text>
<polygon fill="none" stroke="black" points="560.5,-130 560.5,-152 715.5,-152 715.5,-130 560.5,-130"/>
<text text-anchor="start" x="599.5" y="-138.2" font-family="Helvetica,sans-Serif" font-size="11.00">modified_by</text>
<polygon fill="none" stroke="black" points="560.5,-108 560.5,-130 715.5,-130 715.5,-108 560.5,-108"/>
<text text-anchor="start" x="599.5" y="-116.2" font-family="Helvetica,sans-Serif" font-size="11.00">modified_time</text>
<polygon fill="none" stroke="black" points="560.5,-86 560.5,-108 715.5,-108 715.5,-86 560.5,-86"/>
<text text-anchor="start" x="599.5" y="-94.2" font-family="Helvetica,sans-Serif" font-size="11.00">reassigned_by</text>
<polygon fill="none" stroke="black" points="560.5,-64 560.5,-86 715.5,-86 715.5,-64 560.5,-64"/>
<text text-anchor="start" x="599.5" y="-72.2" font-family="Helvetica,sans-Serif" font-size="11.00">reassigned_time</text>
<polygon fill="#ffffff" stroke="none" points="560.5,-46 560.5,-64 621.5,-64 621.5,-46 560.5,-46"/>
<polygon fill="none" stroke="black" points="560.5,-46 560.5,-64 621.5,-64 621.5,-46 560.5,-46"/>
<text text-anchor="start" x="563.5" y="-52.2" font-family="Helvetica,sans-Serif" font-size="11.00">&lt; 1</text>
<polygon fill="#ffffff" stroke="none" points="621.5,-46 621.5,-64 682.5,-64 682.5,-46 621.5,-46"/>
<polygon fill="none" stroke="black" points="621.5,-46 621.5,-64 682.5,-64 682.5,-46 621.5,-46"/>
<text text-anchor="start" x="643.5" y="-52.2" font-family="Helvetica,sans-Serif" font-size="11.00">0 rows</text>
<polygon fill="#ffffff" stroke="none" points="682.5,-46 682.5,-64 715.5,-64 715.5,-46 682.5,-46"/>
<polygon fill="none" stroke="black" points="682.5,-46 682.5,-64 715.5,-64 715.5,-46 682.5,-46"/>
<text text-anchor="start" x="705.5" y="-52.2" font-family="Helvetica,sans-Serif" font-size="11.00"> &#160;</text>
</a>
</g>
</g>
<!-- tracking.deliveries&#45;&gt;withdrawals -->
<g id="edge9" class="edge"><title>tracking.deliveries:withdrawal_id:w&#45;&gt;withdrawals:id:e</title>
<path fill="none" stroke="black" d="M544.857,-229.764C497.695,-234.882 484.381,-264 430,-264"/>
<polygon fill="black" stroke="black" points="551.511,-229.417 559.687,-232.595 555.505,-229.208 559.5,-229 559.5,-229 559.5,-229 555.505,-229.208 559.313,-225.405 551.511,-229.417 551.511,-229.417"/>
<ellipse fill="none" stroke="black" cx="548.315" cy="-229.583" rx="3.2" ry="3.2"/>
</g>
</g>
</svg>
