<?xml version="1.0" encoding="UTF-8" standalone="no"?>
<!DOCTYPE svg PUBLIC "-//W3C//DTD SVG 1.1//EN"
 "http://www.w3.org/Graphics/SVG/1.1/DTD/svg11.dtd">
<!-- Generated by graphviz version 2.38.0 (20140413.2041)
 -->
<!-- Title: twoDegreesRelationshipsDiagram Pages: 1 -->
<svg width="574pt" height="449pt"
 viewBox="0.00 0.00 574.00 449.00" xmlns="http://www.w3.org/2000/svg" xmlns:xlink="http://www.w3.org/1999/xlink">
<g id="graph0" class="graph" transform="scale(1 1) rotate(0) translate(4 445)">
<title>twoDegreesRelationshipsDiagram</title>
<polygon fill="#ffffff" stroke="none" points="-4,4 -4,-445 570,-445 570,4 -4,4"/>
<text text-anchor="middle" x="74.5" y="-7.2" font-family="Helvetica,sans-Serif" font-size="11.00">Generated by SchemaSpy</text>
<!-- automations -->
<g id="node1" class="node"><title>automations</title>
<g id="a_node1"><a xlink:href="../../tables/automations.html" xlink:title="automations" target="_top">
<polygon fill="#ffffff" stroke="none" points="337,-195 337,-437 558,-437 558,-195 337,-195"/>
<polygon fill="#f5f5f5" stroke="none" points="339.5,-413 339.5,-435 556.5,-435 556.5,-413 339.5,-413"/>
<polygon fill="none" stroke="black" points="339.5,-413 339.5,-435 556.5,-435 556.5,-413 339.5,-413"/>
<text text-anchor="start" x="344.5" y="-422.2" font-family="Helvetica,sans-Serif" font-weight="bold" font-size="11.00">automations</text>
<text text-anchor="start" x="517.5" y="-421.2" font-family="Helvetica,sans-Serif" font-size="11.00">[table]</text>
<polygon fill="none" stroke="black" points="339.5,-391 339.5,-413 446.5,-413 446.5,-391 339.5,-391"/>
<image xlink:href="../../images/primaryKeys.png" width="11px" height="12px" preserveAspectRatio="xMinYMin meet" x="344.5" y="-408"/>
<text text-anchor="start" x="359.5" y="-399.2" font-family="Helvetica,sans-Serif" font-size="11.00">id</text>
<polygon fill="none" stroke="black" points="446.5,-391 446.5,-413 556.5,-413 556.5,-391 446.5,-391"/>
<text text-anchor="start" x="449.5" y="-399.2" font-family="Helvetica,sans-Serif" font-size="11.00">int8[19]</text>
<polygon fill="#ffffff" stroke="none" points="339.5,-369 339.5,-391 446.5,-391 446.5,-369 339.5,-369"/>
<polygon fill="none" stroke="black" points="339.5,-369 339.5,-391 446.5,-391 446.5,-369 339.5,-369"/>
<image xlink:href="../../images/foreignKeys.png" width="11px" height="12px" preserveAspectRatio="xMinYMin meet" x="344.5" y="-386"/>
<text text-anchor="start" x="359.5" y="-377.2" font-family="Helvetica,sans-Serif" font-size="11.00">facility_id</text>
<polygon fill="none" stroke="black" points="446.5,-369 446.5,-391 556.5,-391 556.5,-369 446.5,-369"/>
<text text-anchor="start" x="449.5" y="-377.2" font-family="Helvetica,sans-Serif" font-size="11.00">int8[19]</text>
<polygon fill="#ffffff" stroke="none" points="339.5,-347 339.5,-369 446.5,-369 446.5,-347 339.5,-347"/>
<polygon fill="none" stroke="black" points="339.5,-347 339.5,-369 446.5,-369 446.5,-347 339.5,-347"/>
<text text-anchor="start" x="359.5" y="-355.2" font-family="Helvetica,sans-Serif" font-size="11.00">name</text>
<polygon fill="none" stroke="black" points="446.5,-347 446.5,-369 556.5,-369 556.5,-347 446.5,-347"/>
<text text-anchor="start" x="449.5" y="-355.2" font-family="Helvetica,sans-Serif" font-size="11.00">text[2147483647]</text>
<polygon fill="none" stroke="black" points="339.5,-325 339.5,-347 446.5,-347 446.5,-325 339.5,-325"/>
<text text-anchor="start" x="359.5" y="-333.2" font-family="Helvetica,sans-Serif" font-size="11.00">description</text>
<polygon fill="none" stroke="black" points="446.5,-325 446.5,-347 556.5,-347 556.5,-325 446.5,-325"/>
<text text-anchor="start" x="449.5" y="-333.2" font-family="Helvetica,sans-Serif" font-size="11.00">text[2147483647]</text>
<polygon fill="none" stroke="black" points="339.5,-303 339.5,-325 446.5,-325 446.5,-303 339.5,-303"/>
<text text-anchor="start" x="359.5" y="-311.2" font-family="Helvetica,sans-Serif" font-size="11.00">created_time</text>
<polygon fill="none" stroke="black" points="446.5,-303 446.5,-325 556.5,-325 556.5,-303 446.5,-303"/>
<text text-anchor="start" x="449.5" y="-311.2" font-family="Helvetica,sans-Serif" font-size="11.00">timestamptz[35,6]</text>
<polygon fill="none" stroke="black" points="339.5,-281 339.5,-303 446.5,-303 446.5,-281 339.5,-281"/>
<text text-anchor="start" x="359.5" y="-289.2" font-family="Helvetica,sans-Serif" font-size="11.00">modified_time</text>
<polygon fill="none" stroke="black" points="446.5,-281 446.5,-303 556.5,-303 556.5,-281 446.5,-281"/>
<text text-anchor="start" x="449.5" y="-289.2" font-family="Helvetica,sans-Serif" font-size="11.00">timestamptz[35,6]</text>
<polygon fill="none" stroke="black" points="339.5,-259 339.5,-281 446.5,-281 446.5,-259 339.5,-259"/>
<text text-anchor="start" x="359.5" y="-267.2" font-family="Helvetica,sans-Serif" font-size="11.00">configuration</text>
<polygon fill="none" stroke="black" points="446.5,-259 446.5,-281 556.5,-281 556.5,-259 446.5,-259"/>
<text text-anchor="start" x="449.5" y="-267.2" font-family="Helvetica,sans-Serif" font-size="11.00">jsonb[2147483647]</text>
<polygon fill="none" stroke="black" points="339.5,-237 339.5,-259 446.5,-259 446.5,-237 339.5,-237"/>
<text text-anchor="start" x="359.5" y="-245.2" font-family="Helvetica,sans-Serif" font-size="11.00">created_by</text>
<polygon fill="none" stroke="black" points="446.5,-237 446.5,-259 556.5,-259 556.5,-237 446.5,-237"/>
<text text-anchor="start" x="449.5" y="-245.2" font-family="Helvetica,sans-Serif" font-size="11.00">int8[19]</text>
<polygon fill="none" stroke="black" points="339.5,-215 339.5,-237 446.5,-237 446.5,-215 339.5,-215"/>
<text text-anchor="start" x="359.5" y="-223.2" font-family="Helvetica,sans-Serif" font-size="11.00">modified_by</text>
<polygon fill="none" stroke="black" points="446.5,-215 446.5,-237 556.5,-237 556.5,-215 446.5,-215"/>
<text text-anchor="start" x="449.5" y="-223.2" font-family="Helvetica,sans-Serif" font-size="11.00">int8[19]</text>
<polygon fill="#ffffff" stroke="none" points="339.5,-197 339.5,-215 383.5,-215 383.5,-197 339.5,-197"/>
<polygon fill="none" stroke="black" points="339.5,-197 339.5,-215 383.5,-215 383.5,-197 339.5,-197"/>
<text text-anchor="start" x="342.5" y="-203.2" font-family="Helvetica,sans-Serif" font-size="11.00">&lt; 1</text>
<polygon fill="#ffffff" stroke="none" points="383.5,-197 383.5,-215 446.5,-215 446.5,-197 383.5,-197"/>
<polygon fill="none" stroke="black" points="383.5,-197 383.5,-215 446.5,-215 446.5,-197 383.5,-197"/>
<text text-anchor="start" x="407.5" y="-203.2" font-family="Helvetica,sans-Serif" font-size="11.00">0 rows</text>
<polygon fill="#ffffff" stroke="none" points="446.5,-197 446.5,-215 556.5,-215 556.5,-197 446.5,-197"/>
<polygon fill="none" stroke="black" points="446.5,-197 446.5,-215 556.5,-215 556.5,-197 446.5,-197"/>
<text text-anchor="start" x="536.5" y="-203.2" font-family="Helvetica,sans-Serif" font-size="11.00">0 &gt;</text>
<polygon fill="none" stroke="black" stroke-width="2" points="338,-196 338,-436 557,-436 557,-196 338,-196"/>
</a>
</g>
</g>
<!-- facilities -->
<g id="node2" class="node"><title>facilities</title>
<g id="a_node2"><a xlink:href="../../tables/facilities.html" xlink:title="facilities" target="_top">
<polygon fill="#ffffff" stroke="none" points="145,-52 145,-176 288,-176 288,-52 145,-52"/>
<polygon fill="#f5f5f5" stroke="none" points="145.5,-154 145.5,-176 288.5,-176 288.5,-154 145.5,-154"/>
<polygon fill="none" stroke="black" points="145.5,-154 145.5,-176 288.5,-176 288.5,-154 145.5,-154"/>
<text text-anchor="start" x="150.5" y="-163.2" font-family="Helvetica,sans-Serif" font-weight="bold" font-size="11.00">facilities</text>
<text text-anchor="start" x="249.5" y="-162.2" font-family="Helvetica,sans-Serif" font-size="11.00">[table]</text>
<polygon fill="none" stroke="black" points="145.5,-132 145.5,-154 288.5,-154 288.5,-132 145.5,-132"/>
<image xlink:href="../../images/primaryKeys.png" width="11px" height="12px" preserveAspectRatio="xMinYMin meet" x="150.5" y="-149"/>
<text text-anchor="start" x="165.5" y="-140.2" font-family="Helvetica,sans-Serif" font-size="11.00">id</text>
<polygon fill="none" stroke="black" points="145.5,-110 145.5,-132 288.5,-132 288.5,-110 145.5,-110"/>
<image xlink:href="../../images/foreignKeys.png" width="11px" height="12px" preserveAspectRatio="xMinYMin meet" x="150.5" y="-127"/>
<text text-anchor="start" x="165.5" y="-118.2" font-family="Helvetica,sans-Serif" font-size="11.00">site_id</text>
<polygon fill="#ffffff" stroke="none" points="145.5,-88 145.5,-110 288.5,-110 288.5,-88 145.5,-88"/>
<polygon fill="none" stroke="black" points="145.5,-88 145.5,-110 288.5,-110 288.5,-88 145.5,-88"/>
<text text-anchor="start" x="165.5" y="-96.2" font-family="Helvetica,sans-Serif" font-size="11.00">idle_after_time</text>
<polygon fill="none" stroke="black" points="145.5,-70 145.5,-88 288.5,-88 288.5,-70 145.5,-70"/>
<text text-anchor="start" x="148.5" y="-76.2" font-family="Helvetica,sans-Serif" font-size="11.00">...</text>
<polygon fill="#ffffff" stroke="none" points="145.5,-52 145.5,-70 195.5,-70 195.5,-52 145.5,-52"/>
<polygon fill="none" stroke="black" points="145.5,-52 145.5,-70 195.5,-70 195.5,-52 145.5,-52"/>
<text text-anchor="start" x="148.5" y="-58.2" font-family="Helvetica,sans-Serif" font-size="11.00">&lt; 1</text>
<polygon fill="#ffffff" stroke="none" points="195.5,-52 195.5,-70 251.5,-70 251.5,-52 195.5,-52"/>
<polygon fill="none" stroke="black" points="195.5,-52 195.5,-70 251.5,-70 251.5,-52 195.5,-52"/>
<text text-anchor="start" x="212.5" y="-58.2" font-family="Helvetica,sans-Serif" font-size="11.00">0 rows</text>
<polygon fill="#ffffff" stroke="none" points="251.5,-52 251.5,-70 288.5,-70 288.5,-52 251.5,-52"/>
<polygon fill="none" stroke="black" points="251.5,-52 251.5,-70 288.5,-70 288.5,-52 251.5,-52"/>
<text text-anchor="start" x="268.5" y="-58.2" font-family="Helvetica,sans-Serif" font-size="11.00">3 &gt;</text>
</a>
</g>
</g>
<!-- automations&#45;&gt;facilities -->
<g id="edge1" class="edge"><title>automations:facility_id:w&#45;&gt;facilities:id:e</title>
<path fill="none" stroke="black" d="M324.159,-378.229C247.105,-356.541 391.599,-143 289.5,-143"/>
<polygon fill="black" stroke="black" points="330.56,-379.019 338.059,-383.573 334.53,-379.51 338.5,-380 338.5,-380 338.5,-380 334.53,-379.51 338.941,-376.427 330.56,-379.019 330.56,-379.019"/>
<ellipse fill="none" stroke="black" cx="327.384" cy="-378.627" rx="3.2" ry="3.2"/>
</g>
<!-- sites -->
<g id="node4" class="node"><title>sites</title>
<g id="a_node4"><a xlink:href="../../tables/sites.html" xlink:title="sites" target="_top">
<polygon fill="#ffffff" stroke="none" points="8,-94 8,-152 96,-152 96,-94 8,-94"/>
<polygon fill="#f5f5f5" stroke="none" points="8,-130 8,-152 96,-152 96,-130 8,-130"/>
<polygon fill="none" stroke="black" points="8,-130 8,-152 96,-152 96,-130 8,-130"/>
<text text-anchor="start" x="13" y="-139.2" font-family="Helvetica,sans-Serif" font-weight="bold" font-size="11.00">sites</text>
<text text-anchor="start" x="57" y="-138.2" font-family="Helvetica,sans-Serif" font-size="11.00">[table]</text>
<polygon fill="none" stroke="black" points="8,-112 8,-130 96,-130 96,-112 8,-112"/>
<text text-anchor="start" x="11" y="-118.2" font-family="Helvetica,sans-Serif" font-size="11.00">...</text>
<polygon fill="#ffffff" stroke="none" points="8,-94 8,-112 31,-112 31,-94 8,-94"/>
<polygon fill="none" stroke="black" points="8,-94 8,-112 31,-112 31,-94 8,-94"/>
<text text-anchor="start" x="11" y="-100.2" font-family="Helvetica,sans-Serif" font-size="11.00">&lt; 1</text>
<polygon fill="#ffffff" stroke="none" points="31,-94 31,-112 73,-112 73,-94 31,-94"/>
<polygon fill="none" stroke="black" points="31,-94 31,-112 73,-112 73,-94 31,-94"/>
<text text-anchor="start" x="34" y="-100.2" font-family="Helvetica,sans-Serif" font-size="11.00">0 rows</text>
<polygon fill="#ffffff" stroke="none" points="73,-94 73,-112 96,-112 96,-94 73,-94"/>
<polygon fill="none" stroke="black" points="73,-94 73,-112 96,-112 96,-94 73,-94"/>
<text text-anchor="start" x="76" y="-100.2" font-family="Helvetica,sans-Serif" font-size="11.00">1 &gt;</text>
</a>
</g>
</g>
<!-- facilities&#45;&gt;sites -->
<g id="edge3" class="edge"><title>facilities:site_id:w&#45;&gt;sites:elipses:e</title>
<path fill="none" stroke="black" d="M130.086,-121C119.319,-121 112.339,-121 97,-121"/>
<polygon fill="black" stroke="black" points="136.5,-121 144.5,-124.6 140.5,-121 144.5,-121 144.5,-121 144.5,-121 140.5,-121 144.5,-117.4 136.5,-121 136.5,-121"/>
<ellipse fill="none" stroke="black" cx="133.3" cy="-121" rx="3.2" ry="3.2"/>
</g>
<!-- devices -->
<g id="node3" class="node"><title>devices</title>
<g id="a_node3"><a xlink:href="../../tables/devices.html" xlink:title="devices" target="_top">
<polygon fill="#ffffff" stroke="none" points="402,-116 402,-174 493,-174 493,-116 402,-116"/>
<polygon fill="#f5f5f5" stroke="none" points="402.5,-152 402.5,-174 493.5,-174 493.5,-152 402.5,-152"/>
<polygon fill="none" stroke="black" points="402.5,-152 402.5,-174 493.5,-174 493.5,-152 402.5,-152"/>
<text text-anchor="start" x="407.5" y="-161.2" font-family="Helvetica,sans-Serif" font-weight="bold" font-size="11.00">devices</text>
<text text-anchor="start" x="454.5" y="-160.2" font-family="Helvetica,sans-Serif" font-size="11.00">[table]</text>
<polygon fill="none" stroke="black" points="402.5,-134 402.5,-152 493.5,-152 493.5,-134 402.5,-134"/>
<text text-anchor="start" x="405.5" y="-140.2" font-family="Helvetica,sans-Serif" font-size="11.00">...</text>
<polygon fill="#ffffff" stroke="none" points="402.5,-116 402.5,-134 426.5,-134 426.5,-116 402.5,-116"/>
<polygon fill="none" stroke="black" points="402.5,-116 402.5,-134 426.5,-134 426.5,-116 402.5,-116"/>
<text text-anchor="start" x="405.5" y="-122.2" font-family="Helvetica,sans-Serif" font-size="11.00">&lt; 2</text>
<polygon fill="#ffffff" stroke="none" points="426.5,-116 426.5,-134 469.5,-134 469.5,-116 426.5,-116"/>
<polygon fill="none" stroke="black" points="426.5,-116 426.5,-134 469.5,-134 469.5,-116 426.5,-116"/>
<text text-anchor="start" x="430.5" y="-122.2" font-family="Helvetica,sans-Serif" font-size="11.00">0 rows</text>
<polygon fill="#ffffff" stroke="none" points="469.5,-116 469.5,-134 493.5,-134 493.5,-116 469.5,-116"/>
<polygon fill="none" stroke="black" points="469.5,-116 469.5,-134 493.5,-134 493.5,-116 469.5,-116"/>
<text text-anchor="start" x="473.5" y="-122.2" font-family="Helvetica,sans-Serif" font-size="11.00">2 &gt;</text>
</a>
</g>
</g>
<!-- devices&#45;&gt;facilities -->
<g id="edge2" class="edge"><title>devices:elipses:w&#45;&gt;facilities:id:e</title>
<path fill="none" stroke="black" d="M386.908,-143C348.682,-143 334.028,-143 289.5,-143"/>
<polygon fill="black" stroke="black" points="393.5,-143 401.5,-146.6 397.5,-143 401.5,-143 401.5,-143 401.5,-143 397.5,-143 401.5,-139.4 393.5,-143 393.5,-143"/>
<ellipse fill="none" stroke="black" cx="390.3" cy="-143" rx="3.2" ry="3.2"/>
</g>
<!-- facility_alert_recipients -->
<g id="node5" class="node"><title>facility_alert_recipients</title>
<g id="a_node5"><a xlink:href="../../tables/facility_alert_recipients.html" xlink:title="facility_alert_recipients" target="_top">
<polygon fill="#ffffff" stroke="none" points="355.5,-37 355.5,-95 539.5,-95 539.5,-37 355.5,-37"/>
<polygon fill="#f5f5f5" stroke="none" points="355.5,-73 355.5,-95 539.5,-95 539.5,-73 355.5,-73"/>
<polygon fill="none" stroke="black" points="355.5,-73 355.5,-95 539.5,-95 539.5,-73 355.5,-73"/>
<text text-anchor="start" x="360.5" y="-82.2" font-family="Helvetica,sans-Serif" font-weight="bold" font-size="11.00">facility_alert_recipients</text>
<text text-anchor="start" x="500.5" y="-81.2" font-family="Helvetica,sans-Serif" font-size="11.00">[table]</text>
<polygon fill="none" stroke="black" points="355.5,-55 355.5,-73 539.5,-73 539.5,-55 355.5,-55"/>
<text text-anchor="start" x="358.5" y="-61.2" font-family="Helvetica,sans-Serif" font-size="11.00">...</text>
<polygon fill="#ffffff" stroke="none" points="355.5,-37 355.5,-55 431.5,-55 431.5,-37 355.5,-37"/>
<polygon fill="none" stroke="black" points="355.5,-37 355.5,-55 431.5,-55 431.5,-37 355.5,-37"/>
<text text-anchor="start" x="358.5" y="-43.2" font-family="Helvetica,sans-Serif" font-size="11.00">&lt; 1</text>
<polygon fill="#ffffff" stroke="none" points="431.5,-37 431.5,-55 499.5,-55 499.5,-37 431.5,-37"/>
<polygon fill="none" stroke="black" points="431.5,-37 431.5,-55 499.5,-55 499.5,-37 431.5,-37"/>
<text text-anchor="start" x="460.5" y="-43.2" font-family="Helvetica,sans-Serif" font-size="11.00">0 rows</text>
<polygon fill="#ffffff" stroke="none" points="499.5,-37 499.5,-55 539.5,-55 539.5,-37 499.5,-37"/>
<polygon fill="none" stroke="black" points="499.5,-37 499.5,-55 539.5,-55 539.5,-37 499.5,-37"/>
<text text-anchor="start" x="529.5" y="-43.2" font-family="Helvetica,sans-Serif" font-size="11.00"> &#160;</text>
</a>
</g>
</g>
<!-- facility_alert_recipients&#45;&gt;facilities -->
<g id="edge4" class="edge"><title>facility_alert_recipients:elipses:w&#45;&gt;facilities:id:e</title>
<path fill="none" stroke="black" d="M340.17,-67.5997C314.532,-83.0545 329.107,-143 289.5,-143"/>
<polygon fill="black" stroke="black" points="346.741,-65.9491 355.377,-67.4915 350.621,-64.9746 354.5,-64 354.5,-64 354.5,-64 350.621,-64.9746 353.623,-60.5085 346.741,-65.9491 346.741,-65.9491"/>
<ellipse fill="none" stroke="black" cx="343.637" cy="-66.7288" rx="3.2" ry="3.2"/>
</g>
</g>
</svg>
