<?xml version="1.0" encoding="UTF-8" standalone="no"?>
<!DOCTYPE svg PUBLIC "-//W3C//DTD SVG 1.1//EN"
 "http://www.w3.org/Graphics/SVG/1.1/DTD/svg11.dtd">
<!-- Generated by graphviz version 2.38.0 (20140413.2041)
 -->
<!-- Title: oneDegreeRelationshipsDiagram Pages: 1 -->
<svg width="398pt" height="245pt"
 viewBox="0.00 0.00 398.00 245.00" xmlns="http://www.w3.org/2000/svg" xmlns:xlink="http://www.w3.org/1999/xlink">
<g id="graph0" class="graph" transform="scale(1 1) rotate(0) translate(4 241)">
<title>oneDegreeRelationshipsDiagram</title>
<polygon fill="#ffffff" stroke="none" points="-4,4 -4,-241 394,-241 394,4 -4,4"/>
<text text-anchor="middle" x="74.5" y="-7.2" font-family="Helvetica,sans-Serif" font-size="11.00">Generated by SchemaSpy</text>
<!-- projects -->
<g id="node1" class="node"><title>projects</title>
<g id="a_node1"><a xlink:href="../../tables/projects.html" xlink:title="projects" target="_top">
<polygon fill="#ffffff" stroke="none" points="270,-131 270,-233 382,-233 382,-131 270,-131"/>
<polygon fill="#f5f5f5" stroke="none" points="270,-211 270,-233 382,-233 382,-211 270,-211"/>
<polygon fill="none" stroke="black" points="270,-211 270,-233 382,-233 382,-211 270,-211"/>
<text text-anchor="start" x="275" y="-220.2" font-family="Helvetica,sans-Serif" font-weight="bold" font-size="11.00">projects</text>
<text text-anchor="start" x="343" y="-219.2" font-family="Helvetica,sans-Serif" font-size="11.00">[table]</text>
<polygon fill="none" stroke="black" points="270,-189 270,-211 382,-211 382,-189 270,-189"/>
<image xlink:href="../../images/primaryKeys.png" width="11px" height="12px" preserveAspectRatio="xMinYMin meet" x="275" y="-206"/>
<text text-anchor="start" x="290" y="-197.2" font-family="Helvetica,sans-Serif" font-size="11.00">id</text>
<polygon fill="none" stroke="black" points="270,-167 270,-189 382,-189 382,-167 270,-167"/>
<image xlink:href="../../images/foreignKeys.png" width="11px" height="12px" preserveAspectRatio="xMinYMin meet" x="275" y="-184"/>
<text text-anchor="start" x="290" y="-175.2" font-family="Helvetica,sans-Serif" font-size="11.00">organization_id</text>
<polygon fill="none" stroke="black" points="270,-149 270,-167 382,-167 382,-149 270,-149"/>
<text text-anchor="start" x="273" y="-155.2" font-family="Helvetica,sans-Serif" font-size="11.00">...</text>
<polygon fill="#ffffff" stroke="none" points="270,-131 270,-149 305,-149 305,-131 270,-131"/>
<polygon fill="none" stroke="black" points="270,-131 270,-149 305,-149 305,-131 270,-131"/>
<text text-anchor="start" x="273" y="-137.2" font-family="Helvetica,sans-Serif" font-size="11.00">&lt; 1</text>
<polygon fill="#ffffff" stroke="none" points="305,-131 305,-149 353,-149 353,-131 305,-131"/>
<polygon fill="none" stroke="black" points="305,-131 305,-149 353,-149 353,-131 305,-131"/>
<text text-anchor="start" x="314" y="-137.2" font-family="Helvetica,sans-Serif" font-size="11.00">0 rows</text>
<polygon fill="#ffffff" stroke="none" points="353,-131 353,-149 382,-149 382,-131 353,-131"/>
<polygon fill="none" stroke="black" points="353,-131 353,-149 382,-149 382,-131 353,-131"/>
<text text-anchor="start" x="362" y="-137.2" font-family="Helvetica,sans-Serif" font-size="11.00">1 &gt;</text>
</a>
</g>
</g>
<!-- organizations -->
<g id="node2" class="node"><title>organizations</title>
<g id="a_node2"><a xlink:href="../../tables/organizations.html" xlink:title="organizations" target="_top">
<polygon fill="#ffffff" stroke="none" points="8,-37 8,-213 221,-213 221,-37 8,-37"/>
<polygon fill="#f5f5f5" stroke="none" points="10.5,-189 10.5,-211 219.5,-211 219.5,-189 10.5,-189"/>
<polygon fill="none" stroke="black" points="10.5,-189 10.5,-211 219.5,-211 219.5,-189 10.5,-189"/>
<text text-anchor="start" x="15.5" y="-198.2" font-family="Helvetica,sans-Serif" font-weight="bold" font-size="11.00">organizations</text>
<text text-anchor="start" x="180.5" y="-197.2" font-family="Helvetica,sans-Serif" font-size="11.00">[table]</text>
<polygon fill="none" stroke="black" points="10.5,-167 10.5,-189 117.5,-189 117.5,-167 10.5,-167"/>
<image xlink:href="../../images/primaryKeys.png" width="11px" height="12px" preserveAspectRatio="xMinYMin meet" x="15.5" y="-184"/>
<text text-anchor="start" x="30.5" y="-175.2" font-family="Helvetica,sans-Serif" font-size="11.00">id</text>
<polygon fill="none" stroke="black" points="117.5,-167 117.5,-189 219.5,-189 219.5,-167 117.5,-167"/>
<text text-anchor="start" x="120.5" y="-175.2" font-family="Helvetica,sans-Serif" font-size="11.00">int8[19]</text>
<polygon fill="none" stroke="black" points="10.5,-145 10.5,-167 117.5,-167 117.5,-145 10.5,-145"/>
<text text-anchor="start" x="30.5" y="-153.2" font-family="Helvetica,sans-Serif" font-size="11.00">name</text>
<polygon fill="none" stroke="black" points="117.5,-145 117.5,-167 219.5,-167 219.5,-145 117.5,-145"/>
<text text-anchor="start" x="120.5" y="-153.2" font-family="Helvetica,sans-Serif" font-size="11.00">text[2147483647]</text>
<polygon fill="none" stroke="black" points="10.5,-123 10.5,-145 117.5,-145 117.5,-123 10.5,-123"/>
<text text-anchor="start" x="30.5" y="-131.2" font-family="Helvetica,sans-Serif" font-size="11.00">location</text>
<polygon fill="none" stroke="black" points="117.5,-123 117.5,-145 219.5,-145 219.5,-123 117.5,-123"/>
<text text-anchor="start" x="120.5" y="-131.2" font-family="Helvetica,sans-Serif" font-size="11.00">text[2147483647]</text>
<polygon fill="none" stroke="black" points="10.5,-101 10.5,-123 117.5,-123 117.5,-101 10.5,-101"/>
<text text-anchor="start" x="30.5" y="-109.2" font-family="Helvetica,sans-Serif" font-size="11.00">created_time</text>
<polygon fill="none" stroke="black" points="117.5,-101 117.5,-123 219.5,-123 219.5,-101 117.5,-101"/>
<text text-anchor="start" x="120.5" y="-109.2" font-family="Helvetica,sans-Serif" font-size="11.00">timestamptz[35,6]</text>
<polygon fill="none" stroke="black" points="10.5,-79 10.5,-101 117.5,-101 117.5,-79 10.5,-79"/>
<text text-anchor="start" x="30.5" y="-87.2" font-family="Helvetica,sans-Serif" font-size="11.00">modified_time</text>
<polygon fill="none" stroke="black" points="117.5,-79 117.5,-101 219.5,-101 219.5,-79 117.5,-79"/>
<text text-anchor="start" x="120.5" y="-87.2" font-family="Helvetica,sans-Serif" font-size="11.00">timestamptz[35,6]</text>
<polygon fill="none" stroke="black" points="10.5,-57 10.5,-79 117.5,-79 117.5,-57 10.5,-57"/>
<text text-anchor="start" x="30.5" y="-65.2" font-family="Helvetica,sans-Serif" font-size="11.00">disabled_time</text>
<polygon fill="none" stroke="black" points="117.5,-57 117.5,-79 219.5,-79 219.5,-57 117.5,-57"/>
<text text-anchor="start" x="120.5" y="-65.2" font-family="Helvetica,sans-Serif" font-size="11.00">timestamptz[35,6]</text>
<polygon fill="#ffffff" stroke="none" points="10.5,-39 10.5,-57 54.5,-57 54.5,-39 10.5,-39"/>
<polygon fill="none" stroke="black" points="10.5,-39 10.5,-57 54.5,-57 54.5,-39 10.5,-39"/>
<text text-anchor="start" x="13.5" y="-45.2" font-family="Helvetica,sans-Serif" font-size="11.00">&lt; 0</text>
<polygon fill="#ffffff" stroke="none" points="54.5,-39 54.5,-57 117.5,-57 117.5,-39 54.5,-39"/>
<polygon fill="none" stroke="black" points="54.5,-39 54.5,-57 117.5,-57 117.5,-39 54.5,-39"/>
<text text-anchor="start" x="78.5" y="-45.2" font-family="Helvetica,sans-Serif" font-size="11.00">0 rows</text>
<polygon fill="#ffffff" stroke="none" points="117.5,-39 117.5,-57 219.5,-57 219.5,-39 117.5,-39"/>
<polygon fill="none" stroke="black" points="117.5,-39 117.5,-57 219.5,-57 219.5,-39 117.5,-39"/>
<text text-anchor="start" x="199.5" y="-45.2" font-family="Helvetica,sans-Serif" font-size="11.00">1 &gt;</text>
<polygon fill="none" stroke="black" stroke-width="2" points="9,-38 9,-212 220,-212 220,-38 9,-38"/>
</a>
</g>
</g>
<!-- projects&#45;&gt;organizations -->
<g id="edge1" class="edge"><title>projects:organization_id:w&#45;&gt;organizations:id.type:e</title>
<path fill="none" stroke="black" d="M254.283,-178C243.289,-178 236.161,-178 220.5,-178"/>
<polygon fill="black" stroke="black" points="261,-178 269,-181.6 265,-178 269,-178 269,-178 269,-178 265,-178 269,-174.4 261,-178 261,-178"/>
<ellipse fill="none" stroke="black" cx="257.8" cy="-178" rx="3.2" ry="3.2"/>
</g>
</g>
</svg>
