<?xml version="1.0" encoding="UTF-8" standalone="no"?>
<!DOCTYPE svg PUBLIC "-//W3C//DTD SVG 1.1//EN"
 "http://www.w3.org/Graphics/SVG/1.1/DTD/svg11.dtd">
<!-- Generated by graphviz version 2.38.0 (20140413.2041)
 -->
<!-- Title: twoDegreesRelationshipsDiagram Pages: 1 -->
<svg width="1008pt" height="410pt"
 viewBox="0.00 0.00 1008.00 410.00" xmlns="http://www.w3.org/2000/svg" xmlns:xlink="http://www.w3.org/1999/xlink">
<g id="graph0" class="graph" transform="scale(1 1) rotate(0) translate(4 406)">
<title>twoDegreesRelationshipsDiagram</title>
<polygon fill="#ffffff" stroke="none" points="-4,4 -4,-406 1004,-406 1004,4 -4,4"/>
<text text-anchor="middle" x="74.5" y="-7.2" font-family="Helvetica,sans-Serif" font-size="11.00">Generated by SchemaSpy</text>
<!-- automations -->
<g id="node1" class="node"><title>automations</title>
<g id="a_node1"><a xlink:href="../../tables/automations.html" xlink:title="automations" target="_top">
<polygon fill="#ffffff" stroke="none" points="839.5,-340 839.5,-398 960.5,-398 960.5,-340 839.5,-340"/>
<polygon fill="#f5f5f5" stroke="none" points="840,-376 840,-398 961,-398 961,-376 840,-376"/>
<polygon fill="none" stroke="black" points="840,-376 840,-398 961,-398 961,-376 840,-376"/>
<text text-anchor="start" x="845" y="-385.2" font-family="Helvetica,sans-Serif" font-weight="bold" font-size="11.00">automations</text>
<text text-anchor="start" x="922" y="-384.2" font-family="Helvetica,sans-Serif" font-size="11.00">[table]</text>
<polygon fill="none" stroke="black" points="840,-358 840,-376 961,-376 961,-358 840,-358"/>
<text text-anchor="start" x="843" y="-364.2" font-family="Helvetica,sans-Serif" font-size="11.00">...</text>
<polygon fill="#ffffff" stroke="none" points="840,-340 840,-358 884,-358 884,-340 840,-340"/>
<polygon fill="none" stroke="black" points="840,-340 840,-358 884,-358 884,-340 840,-340"/>
<text text-anchor="start" x="843" y="-346.2" font-family="Helvetica,sans-Serif" font-size="11.00">&lt; 1</text>
<polygon fill="#ffffff" stroke="none" points="884,-340 884,-358 937,-358 937,-340 884,-340"/>
<polygon fill="none" stroke="black" points="884,-340 884,-358 937,-358 937,-340 884,-340"/>
<text text-anchor="start" x="898" y="-346.2" font-family="Helvetica,sans-Serif" font-size="11.00">0 rows</text>
<polygon fill="#ffffff" stroke="none" points="937,-340 937,-358 961,-358 961,-340 937,-340"/>
<polygon fill="none" stroke="black" points="937,-340 937,-358 961,-358 961,-340 937,-340"/>
<text text-anchor="start" x="951" y="-346.2" font-family="Helvetica,sans-Serif" font-size="11.00"> &#160;</text>
</a>
</g>
</g>
<!-- facilities -->
<g id="node2" class="node"><title>facilities</title>
<g id="a_node2"><a xlink:href="../../tables/facilities.html" xlink:title="facilities" target="_top">
<polygon fill="#ffffff" stroke="none" points="652,-219 652,-321 759,-321 759,-219 652,-219"/>
<polygon fill="#f5f5f5" stroke="none" points="652.5,-299 652.5,-321 759.5,-321 759.5,-299 652.5,-299"/>
<polygon fill="none" stroke="black" points="652.5,-299 652.5,-321 759.5,-321 759.5,-299 652.5,-299"/>
<text text-anchor="start" x="657.5" y="-308.2" font-family="Helvetica,sans-Serif" font-weight="bold" font-size="11.00">facilities</text>
<text text-anchor="start" x="720.5" y="-307.2" font-family="Helvetica,sans-Serif" font-size="11.00">[table]</text>
<polygon fill="none" stroke="black" points="652.5,-277 652.5,-299 759.5,-299 759.5,-277 652.5,-277"/>
<image xlink:href="../../images/primaryKeys.png" width="11px" height="12px" preserveAspectRatio="xMinYMin meet" x="657.5" y="-294"/>
<text text-anchor="start" x="672.5" y="-285.2" font-family="Helvetica,sans-Serif" font-size="11.00">id</text>
<polygon fill="none" stroke="black" points="652.5,-255 652.5,-277 759.5,-277 759.5,-255 652.5,-255"/>
<image xlink:href="../../images/foreignKeys.png" width="11px" height="12px" preserveAspectRatio="xMinYMin meet" x="657.5" y="-272"/>
<text text-anchor="start" x="672.5" y="-263.2" font-family="Helvetica,sans-Serif" font-size="11.00">site_id</text>
<polygon fill="none" stroke="black" points="652.5,-237 652.5,-255 759.5,-255 759.5,-237 652.5,-237"/>
<text text-anchor="start" x="655.5" y="-243.2" font-family="Helvetica,sans-Serif" font-size="11.00">...</text>
<polygon fill="#ffffff" stroke="none" points="652.5,-219 652.5,-237 684.5,-237 684.5,-219 652.5,-219"/>
<polygon fill="none" stroke="black" points="652.5,-219 652.5,-237 684.5,-237 684.5,-219 652.5,-219"/>
<text text-anchor="start" x="655.5" y="-225.2" font-family="Helvetica,sans-Serif" font-size="11.00">&lt; 1</text>
<polygon fill="#ffffff" stroke="none" points="684.5,-219 684.5,-237 731.5,-237 731.5,-219 684.5,-219"/>
<polygon fill="none" stroke="black" points="684.5,-219 684.5,-237 731.5,-237 731.5,-219 684.5,-219"/>
<text text-anchor="start" x="692.5" y="-225.2" font-family="Helvetica,sans-Serif" font-size="11.00">0 rows</text>
<polygon fill="#ffffff" stroke="none" points="731.5,-219 731.5,-237 759.5,-237 759.5,-219 731.5,-219"/>
<polygon fill="none" stroke="black" points="731.5,-219 731.5,-237 759.5,-237 759.5,-219 731.5,-219"/>
<text text-anchor="start" x="739.5" y="-225.2" font-family="Helvetica,sans-Serif" font-size="11.00">3 &gt;</text>
</a>
</g>
</g>
<!-- automations&#45;&gt;facilities -->
<g id="edge1" class="edge"><title>automations:elipses:w&#45;&gt;facilities:id:e</title>
<path fill="none" stroke="black" d="M824.875,-363.396C814.773,-356.861 812.512,-342.566 800,-330 781.92,-311.841 786.125,-288 760.5,-288"/>
<polygon fill="black" stroke="black" points="831.248,-365.022 838.11,-370.488 835.124,-366.011 839,-367 839,-367 839,-367 835.124,-366.011 839.89,-363.512 831.248,-365.022 831.248,-365.022"/>
<ellipse fill="none" stroke="black" cx="828.148" cy="-364.231" rx="3.2" ry="3.2"/>
</g>
<!-- sites -->
<g id="node4" class="node"><title>sites</title>
<g id="a_node4"><a xlink:href="../../tables/sites.html" xlink:title="sites" target="_top">
<polygon fill="#ffffff" stroke="none" points="361,-37 361,-301 603,-301 603,-37 361,-37"/>
<polygon fill="#f5f5f5" stroke="none" points="363,-277 363,-299 601,-299 601,-277 363,-277"/>
<polygon fill="none" stroke="black" points="363,-277 363,-299 601,-299 601,-277 363,-277"/>
<text text-anchor="start" x="368" y="-286.2" font-family="Helvetica,sans-Serif" font-weight="bold" font-size="11.00">sites</text>
<text text-anchor="start" x="562" y="-285.2" font-family="Helvetica,sans-Serif" font-size="11.00">[table]</text>
<polygon fill="none" stroke="black" points="363,-255 363,-277 470,-277 470,-255 363,-255"/>
<image xlink:href="../../images/primaryKeys.png" width="11px" height="12px" preserveAspectRatio="xMinYMin meet" x="368" y="-272"/>
<text text-anchor="start" x="383" y="-263.2" font-family="Helvetica,sans-Serif" font-size="11.00">id</text>
<polygon fill="none" stroke="black" points="470,-255 470,-277 601,-277 601,-255 470,-255"/>
<text text-anchor="start" x="473" y="-263.2" font-family="Helvetica,sans-Serif" font-size="11.00">int8[19]</text>
<polygon fill="none" stroke="black" points="363,-233 363,-255 470,-255 470,-233 363,-233"/>
<text text-anchor="start" x="383" y="-241.2" font-family="Helvetica,sans-Serif" font-size="11.00">name</text>
<polygon fill="none" stroke="black" points="470,-233 470,-255 601,-255 601,-233 470,-233"/>
<text text-anchor="start" x="473" y="-241.2" font-family="Helvetica,sans-Serif" font-size="11.00">text[2147483647]</text>
<polygon fill="none" stroke="black" points="363,-211 363,-233 470,-233 470,-211 363,-211"/>
<text text-anchor="start" x="383" y="-219.2" font-family="Helvetica,sans-Serif" font-size="11.00">locale</text>
<polygon fill="none" stroke="black" points="470,-211 470,-233 601,-233 601,-211 470,-211"/>
<text text-anchor="start" x="473" y="-219.2" font-family="Helvetica,sans-Serif" font-size="11.00">text[2147483647]</text>
<polygon fill="none" stroke="black" points="363,-189 363,-211 470,-211 470,-189 363,-189"/>
<text text-anchor="start" x="383" y="-197.2" font-family="Helvetica,sans-Serif" font-size="11.00">timezone</text>
<polygon fill="none" stroke="black" points="470,-189 470,-211 601,-211 601,-189 470,-189"/>
<text text-anchor="start" x="473" y="-197.2" font-family="Helvetica,sans-Serif" font-size="11.00">text[2147483647]</text>
<polygon fill="none" stroke="black" points="363,-167 363,-189 470,-189 470,-167 363,-167"/>
<text text-anchor="start" x="383" y="-175.2" font-family="Helvetica,sans-Serif" font-size="11.00">enabled</text>
<polygon fill="none" stroke="black" points="470,-167 470,-189 601,-189 601,-167 470,-167"/>
<text text-anchor="start" x="473" y="-175.2" font-family="Helvetica,sans-Serif" font-size="11.00">bool[1]</text>
<polygon fill="none" stroke="black" points="363,-145 363,-167 470,-167 470,-145 363,-145"/>
<image xlink:href="../../images/foreignKeys.png" width="11px" height="12px" preserveAspectRatio="xMinYMin meet" x="368" y="-162"/>
<text text-anchor="start" x="383" y="-153.2" font-family="Helvetica,sans-Serif" font-size="11.00">project_id</text>
<polygon fill="none" stroke="black" points="470,-145 470,-167 601,-167 601,-145 470,-145"/>
<text text-anchor="start" x="473" y="-153.2" font-family="Helvetica,sans-Serif" font-size="11.00">int8[19]</text>
<polygon fill="none" stroke="black" points="363,-123 363,-145 470,-145 470,-123 363,-123"/>
<text text-anchor="start" x="383" y="-131.2" font-family="Helvetica,sans-Serif" font-size="11.00">location</text>
<polygon fill="none" stroke="black" points="470,-123 470,-145 601,-145 601,-123 470,-123"/>
<text text-anchor="start" x="473" y="-131.2" font-family="Helvetica,sans-Serif" font-size="11.00">geometry[2147483647]</text>
<polygon fill="none" stroke="black" points="363,-101 363,-123 470,-123 470,-101 363,-101"/>
<text text-anchor="start" x="383" y="-109.2" font-family="Helvetica,sans-Serif" font-size="11.00">created_time</text>
<polygon fill="none" stroke="black" points="470,-101 470,-123 601,-123 601,-101 470,-101"/>
<text text-anchor="start" x="473" y="-109.2" font-family="Helvetica,sans-Serif" font-size="11.00">timestamptz[35,6]</text>
<polygon fill="none" stroke="black" points="363,-79 363,-101 470,-101 470,-79 363,-79"/>
<text text-anchor="start" x="383" y="-87.2" font-family="Helvetica,sans-Serif" font-size="11.00">modified_time</text>
<polygon fill="none" stroke="black" points="470,-79 470,-101 601,-101 601,-79 470,-79"/>
<text text-anchor="start" x="473" y="-87.2" font-family="Helvetica,sans-Serif" font-size="11.00">timestamptz[35,6]</text>
<polygon fill="none" stroke="black" points="363,-57 363,-79 470,-79 470,-57 363,-57"/>
<text text-anchor="start" x="383" y="-65.2" font-family="Helvetica,sans-Serif" font-size="11.00">description</text>
<polygon fill="none" stroke="black" points="470,-57 470,-79 601,-79 601,-57 470,-57"/>
<text text-anchor="start" x="473" y="-65.2" font-family="Helvetica,sans-Serif" font-size="11.00">text[2147483647]</text>
<polygon fill="#ffffff" stroke="none" points="363,-39 363,-57 407,-57 407,-39 363,-39"/>
<polygon fill="none" stroke="black" points="363,-39 363,-57 407,-57 407,-39 363,-39"/>
<text text-anchor="start" x="366" y="-45.2" font-family="Helvetica,sans-Serif" font-size="11.00">&lt; 1</text>
<polygon fill="#ffffff" stroke="none" points="407,-39 407,-57 470,-57 470,-39 407,-39"/>
<polygon fill="none" stroke="black" points="407,-39 407,-57 470,-57 470,-39 407,-39"/>
<text text-anchor="start" x="431" y="-45.2" font-family="Helvetica,sans-Serif" font-size="11.00">0 rows</text>
<polygon fill="#ffffff" stroke="none" points="470,-39 470,-57 601,-57 601,-39 470,-39"/>
<polygon fill="none" stroke="black" points="470,-39 470,-57 601,-57 601,-39 470,-39"/>
<text text-anchor="start" x="581" y="-45.2" font-family="Helvetica,sans-Serif" font-size="11.00">1 &gt;</text>
<polygon fill="none" stroke="black" stroke-width="2" points="362,-38 362,-300 602,-300 602,-38 362,-38"/>
</a>
</g>
</g>
<!-- facilities&#45;&gt;sites -->
<g id="edge3" class="edge"><title>facilities:site_id:w&#45;&gt;sites:id.type:e</title>
<path fill="none" stroke="black" d="M636.843,-266C625.414,-266 618.156,-266 602,-266"/>
<polygon fill="black" stroke="black" points="643.5,-266 651.5,-269.6 647.5,-266 651.5,-266 651.5,-266 651.5,-266 647.5,-266 651.5,-262.4 643.5,-266 643.5,-266"/>
<ellipse fill="none" stroke="black" cx="640.3" cy="-266" rx="3.2" ry="3.2"/>
</g>
<!-- devices -->
<g id="node3" class="node"><title>devices</title>
<g id="a_node3"><a xlink:href="../../tables/devices.html" xlink:title="devices" target="_top">
<polygon fill="#ffffff" stroke="none" points="854.5,-261 854.5,-319 945.5,-319 945.5,-261 854.5,-261"/>
<polygon fill="#f5f5f5" stroke="none" points="855,-297 855,-319 946,-319 946,-297 855,-297"/>
<polygon fill="none" stroke="black" points="855,-297 855,-319 946,-319 946,-297 855,-297"/>
<text text-anchor="start" x="860" y="-306.2" font-family="Helvetica,sans-Serif" font-weight="bold" font-size="11.00">devices</text>
<text text-anchor="start" x="907" y="-305.2" font-family="Helvetica,sans-Serif" font-size="11.00">[table]</text>
<polygon fill="none" stroke="black" points="855,-279 855,-297 946,-297 946,-279 855,-279"/>
<text text-anchor="start" x="858" y="-285.2" font-family="Helvetica,sans-Serif" font-size="11.00">...</text>
<polygon fill="#ffffff" stroke="none" points="855,-261 855,-279 879,-279 879,-261 855,-261"/>
<polygon fill="none" stroke="black" points="855,-261 855,-279 879,-279 879,-261 855,-261"/>
<text text-anchor="start" x="858" y="-267.2" font-family="Helvetica,sans-Serif" font-size="11.00">&lt; 2</text>
<polygon fill="#ffffff" stroke="none" points="879,-261 879,-279 922,-279 922,-261 879,-261"/>
<polygon fill="none" stroke="black" points="879,-261 879,-279 922,-279 922,-261 879,-261"/>
<text text-anchor="start" x="883" y="-267.2" font-family="Helvetica,sans-Serif" font-size="11.00">0 rows</text>
<polygon fill="#ffffff" stroke="none" points="922,-261 922,-279 946,-279 946,-261 922,-261"/>
<polygon fill="none" stroke="black" points="922,-261 922,-279 946,-279 946,-261 922,-261"/>
<text text-anchor="start" x="926" y="-267.2" font-family="Helvetica,sans-Serif" font-size="11.00">2 &gt;</text>
</a>
</g>
</g>
<!-- devices&#45;&gt;facilities -->
<g id="edge2" class="edge"><title>devices:elipses:w&#45;&gt;facilities:id:e</title>
<path fill="none" stroke="black" d="M839.35,-288C809.248,-288 796.699,-288 760.5,-288"/>
<polygon fill="black" stroke="black" points="846,-288 854,-291.6 850,-288 854,-288 854,-288 854,-288 850,-288 854,-284.4 846,-288 846,-288"/>
<ellipse fill="none" stroke="black" cx="842.8" cy="-288" rx="3.2" ry="3.2"/>
</g>
<!-- projects -->
<g id="node6" class="node"><title>projects</title>
<g id="a_node6"><a xlink:href="../../tables/projects.html" xlink:title="projects" target="_top">
<polygon fill="#ffffff" stroke="none" points="182,-87 182,-189 312,-189 312,-87 182,-87"/>
<polygon fill="#f5f5f5" stroke="none" points="182,-167 182,-189 312,-189 312,-167 182,-167"/>
<polygon fill="none" stroke="black" points="182,-167 182,-189 312,-189 312,-167 182,-167"/>
<text text-anchor="start" x="187" y="-176.2" font-family="Helvetica,sans-Serif" font-weight="bold" font-size="11.00">projects</text>
<text text-anchor="start" x="273" y="-175.2" font-family="Helvetica,sans-Serif" font-size="11.00">[table]</text>
<polygon fill="none" stroke="black" points="182,-145 182,-167 312,-167 312,-145 182,-145"/>
<image xlink:href="../../images/primaryKeys.png" width="11px" height="12px" preserveAspectRatio="xMinYMin meet" x="187" y="-162"/>
<text text-anchor="start" x="202" y="-153.2" font-family="Helvetica,sans-Serif" font-size="11.00">id</text>
<polygon fill="none" stroke="black" points="182,-123 182,-145 312,-145 312,-123 182,-123"/>
<image xlink:href="../../images/foreignKeys.png" width="11px" height="12px" preserveAspectRatio="xMinYMin meet" x="187" y="-140"/>
<text text-anchor="start" x="202" y="-131.2" font-family="Helvetica,sans-Serif" font-size="11.00">organization_id</text>
<polygon fill="none" stroke="black" points="182,-105 182,-123 312,-123 312,-105 182,-105"/>
<text text-anchor="start" x="185" y="-111.2" font-family="Helvetica,sans-Serif" font-size="11.00">...</text>
<polygon fill="#ffffff" stroke="none" points="182,-87 182,-105 226,-105 226,-87 182,-87"/>
<polygon fill="none" stroke="black" points="182,-87 182,-105 226,-105 226,-87 182,-87"/>
<text text-anchor="start" x="185" y="-93.2" font-family="Helvetica,sans-Serif" font-size="11.00">&lt; 1</text>
<polygon fill="#ffffff" stroke="none" points="226,-87 226,-105 278,-105 278,-87 226,-87"/>
<polygon fill="none" stroke="black" points="226,-87 226,-105 278,-105 278,-87 226,-87"/>
<text text-anchor="start" x="239" y="-93.2" font-family="Helvetica,sans-Serif" font-size="11.00">0 rows</text>
<polygon fill="#ffffff" stroke="none" points="278,-87 278,-105 312,-105 312,-87 278,-87"/>
<polygon fill="none" stroke="black" points="278,-87 278,-105 312,-105 312,-87 278,-87"/>
<text text-anchor="start" x="292" y="-93.2" font-family="Helvetica,sans-Serif" font-size="11.00">1 &gt;</text>
</a>
</g>
</g>
<!-- sites&#45;&gt;projects -->
<g id="edge6" class="edge"><title>sites:project_id:w&#45;&gt;projects:id:e</title>
<path fill="none" stroke="black" d="M347.491,-156C336.177,-156 328.993,-156 313,-156"/>
<polygon fill="black" stroke="black" points="354,-156 362,-159.6 358,-156 362,-156 362,-156 362,-156 358,-156 362,-152.4 354,-156 354,-156"/>
<ellipse fill="none" stroke="black" cx="350.8" cy="-156" rx="3.2" ry="3.2"/>
</g>
<!-- facility_alert_recipients -->
<g id="node5" class="node"><title>facility_alert_recipients</title>
<g id="a_node5"><a xlink:href="../../tables/facility_alert_recipients.html" xlink:title="facility_alert_recipients" target="_top">
<polygon fill="#ffffff" stroke="none" points="808,-182 808,-240 992,-240 992,-182 808,-182"/>
<polygon fill="#f5f5f5" stroke="none" points="808,-218 808,-240 992,-240 992,-218 808,-218"/>
<polygon fill="none" stroke="black" points="808,-218 808,-240 992,-240 992,-218 808,-218"/>
<text text-anchor="start" x="813" y="-227.2" font-family="Helvetica,sans-Serif" font-weight="bold" font-size="11.00">facility_alert_recipients</text>
<text text-anchor="start" x="953" y="-226.2" font-family="Helvetica,sans-Serif" font-size="11.00">[table]</text>
<polygon fill="none" stroke="black" points="808,-200 808,-218 992,-218 992,-200 808,-200"/>
<text text-anchor="start" x="811" y="-206.2" font-family="Helvetica,sans-Serif" font-size="11.00">...</text>
<polygon fill="#ffffff" stroke="none" points="808,-182 808,-200 884,-200 884,-182 808,-182"/>
<polygon fill="none" stroke="black" points="808,-182 808,-200 884,-200 884,-182 808,-182"/>
<text text-anchor="start" x="811" y="-188.2" font-family="Helvetica,sans-Serif" font-size="11.00">&lt; 1</text>
<polygon fill="#ffffff" stroke="none" points="884,-182 884,-200 952,-200 952,-182 884,-182"/>
<polygon fill="none" stroke="black" points="884,-182 884,-200 952,-200 952,-182 884,-182"/>
<text text-anchor="start" x="913" y="-188.2" font-family="Helvetica,sans-Serif" font-size="11.00">0 rows</text>
<polygon fill="#ffffff" stroke="none" points="952,-182 952,-200 992,-200 992,-182 952,-182"/>
<polygon fill="none" stroke="black" points="952,-182 952,-200 992,-200 992,-182 952,-182"/>
<text text-anchor="start" x="982" y="-188.2" font-family="Helvetica,sans-Serif" font-size="11.00"> &#160;</text>
</a>
</g>
</g>
<!-- facility_alert_recipients&#45;&gt;facilities -->
<g id="edge4" class="edge"><title>facility_alert_recipients:elipses:w&#45;&gt;facilities:id:e</title>
<path fill="none" stroke="black" d="M793.367,-213.705C774.975,-230.712 795.194,-288 760.5,-288"/>
<polygon fill="black" stroke="black" points="799.438,-211.61 808.175,-212.403 803.219,-210.305 807,-209 807,-209 807,-209 803.219,-210.305 805.825,-205.597 799.438,-211.61 799.438,-211.61"/>
<ellipse fill="none" stroke="black" cx="796.413" cy="-212.654" rx="3.20001" ry="3.20001"/>
</g>
<!-- organizations -->
<g id="node7" class="node"><title>organizations</title>
<g id="a_node7"><a xlink:href="../../tables/organizations.html" xlink:title="organizations" target="_top">
<polygon fill="#ffffff" stroke="none" points="8,-107 8,-165 133,-165 133,-107 8,-107"/>
<polygon fill="#f5f5f5" stroke="none" points="8.5,-143 8.5,-165 133.5,-165 133.5,-143 8.5,-143"/>
<polygon fill="none" stroke="black" points="8.5,-143 8.5,-165 133.5,-165 133.5,-143 8.5,-143"/>
<text text-anchor="start" x="13.5" y="-152.2" font-family="Helvetica,sans-Serif" font-weight="bold" font-size="11.00">organizations</text>
<text text-anchor="start" x="94.5" y="-151.2" font-family="Helvetica,sans-Serif" font-size="11.00">[table]</text>
<polygon fill="none" stroke="black" points="8.5,-125 8.5,-143 133.5,-143 133.5,-125 8.5,-125"/>
<text text-anchor="start" x="11.5" y="-131.2" font-family="Helvetica,sans-Serif" font-size="11.00">...</text>
<polygon fill="#ffffff" stroke="none" points="8.5,-107 8.5,-125 44.5,-125 44.5,-107 8.5,-107"/>
<polygon fill="none" stroke="black" points="8.5,-107 8.5,-125 44.5,-125 44.5,-107 8.5,-107"/>
<text text-anchor="start" x="11.5" y="-113.2" font-family="Helvetica,sans-Serif" font-size="11.00"> &#160;</text>
<polygon fill="#ffffff" stroke="none" points="44.5,-107 44.5,-125 98.5,-125 98.5,-107 44.5,-107"/>
<polygon fill="none" stroke="black" points="44.5,-107 44.5,-125 98.5,-125 98.5,-107 44.5,-107"/>
<text text-anchor="start" x="59.5" y="-113.2" font-family="Helvetica,sans-Serif" font-size="11.00">0 rows</text>
<polygon fill="#ffffff" stroke="none" points="98.5,-107 98.5,-125 133.5,-125 133.5,-107 98.5,-107"/>
<polygon fill="none" stroke="black" points="98.5,-107 98.5,-125 133.5,-125 133.5,-107 98.5,-107"/>
<text text-anchor="start" x="113.5" y="-113.2" font-family="Helvetica,sans-Serif" font-size="11.00">1 &gt;</text>
</a>
</g>
</g>
<!-- projects&#45;&gt;organizations -->
<g id="edge5" class="edge"><title>projects:organization_id:w&#45;&gt;organizations:elipses:e</title>
<path fill="none" stroke="black" d="M166.551,-134C156.201,-134 149.354,-134 134.5,-134"/>
<polygon fill="black" stroke="black" points="173,-134 181,-137.6 177,-134 181,-134 181,-134 181,-134 177,-134 181,-130.4 173,-134 173,-134"/>
<ellipse fill="none" stroke="black" cx="169.8" cy="-134" rx="3.2" ry="3.2"/>
</g>
</g>
</svg>
