<?xml version="1.0" encoding="UTF-8" standalone="no"?>
<!DOCTYPE svg PUBLIC "-//W3C//DTD SVG 1.1//EN"
 "http://www.w3.org/Graphics/SVG/1.1/DTD/svg11.dtd">
<!-- Generated by graphviz version 2.38.0 (20140413.2041)
 -->
<!-- Title: species_endangered_types Pages: 1 -->
<svg width="307pt" height="104pt"
 viewBox="0.00 0.00 307.00 104.00" xmlns="http://www.w3.org/2000/svg" xmlns:xlink="http://www.w3.org/1999/xlink">
<g id="graph0" class="graph" transform="scale(1 1) rotate(0) translate(4 100)">
<title>species_endangered_types</title>
<polygon fill="#ffffff" stroke="none" points="-4,4 -4,-100 303,-100 303,4 -4,4"/>
<!-- species_endangered_types -->
<g id="node1" class="node"><title>species_endangered_types</title>
<g id="a_node1"><a xlink:href="../../tables/species_endangered_types.html" xlink:title="species_endangered_types" target="_top">
<polygon fill="#ffffff" stroke="none" points="8,-4 8,-92 291,-92 291,-4 8,-4"/>
<polygon fill="#f5f5f5" stroke="none" points="10.5,-68 10.5,-90 289.5,-90 289.5,-68 10.5,-68"/>
<polygon fill="none" stroke="black" points="10.5,-68 10.5,-90 289.5,-90 289.5,-68 10.5,-68"/>
<text text-anchor="start" x="15.5" y="-77.2" font-family="Helvetica,sans-Serif" font-weight="bold" font-size="11.00">species_endangered_types</text>
<text text-anchor="start" x="250.5" y="-76.2" font-family="Helvetica,sans-Serif" font-size="11.00">[table]</text>
<polygon fill="none" stroke="black" points="10.5,-46 10.5,-68 188.5,-68 188.5,-46 10.5,-46"/>
<image xlink:href="../../images/primaryKeys.png" width="11px" height="12px" preserveAspectRatio="xMinYMin meet" x="15.5" y="-63"/>
<text text-anchor="start" x="30.5" y="-54.2" font-family="Helvetica,sans-Serif" font-size="11.00">id</text>
<polygon fill="none" stroke="black" points="188.5,-46 188.5,-68 289.5,-68 289.5,-46 188.5,-46"/>
<text text-anchor="start" x="191.5" y="-54.2" font-family="Helvetica,sans-Serif" font-size="11.00">int4[10]</text>
<polygon fill="none" stroke="black" points="10.5,-24 10.5,-46 188.5,-46 188.5,-24 10.5,-24"/>
<text text-anchor="start" x="30.5" y="-32.2" font-family="Helvetica,sans-Serif" font-size="11.00">name</text>
<polygon fill="none" stroke="black" points="188.5,-24 188.5,-46 289.5,-46 289.5,-24 188.5,-24"/>
<text text-anchor="start" x="191.5" y="-32.2" font-family="Helvetica,sans-Serif" font-size="11.00">text[2147483647]</text>
<polygon fill="#ffffff" stroke="none" points="10.5,-6 10.5,-24 89.5,-24 89.5,-6 10.5,-6"/>
<polygon fill="none" stroke="black" points="10.5,-6 10.5,-24 89.5,-24 89.5,-6 10.5,-6"/>
<text text-anchor="start" x="13.5" y="-12.2" font-family="Helvetica,sans-Serif" font-size="11.00">&lt; 0</text>
<polygon fill="#ffffff" stroke="none" points="89.5,-6 89.5,-24 188.5,-24 188.5,-6 89.5,-6"/>
<polygon fill="none" stroke="black" points="89.5,-6 89.5,-24 188.5,-24 188.5,-6 89.5,-6"/>
<text text-anchor="start" x="149.5" y="-12.2" font-family="Helvetica,sans-Serif" font-size="11.00">3 rows</text>
<polygon fill="#ffffff" stroke="none" points="188.5,-6 188.5,-24 289.5,-24 289.5,-6 188.5,-6"/>
<polygon fill="none" stroke="black" points="188.5,-6 188.5,-24 289.5,-24 289.5,-6 188.5,-6"/>
<text text-anchor="start" x="269.5" y="-12.2" font-family="Helvetica,sans-Serif" font-size="11.00">0 &gt;</text>
<polygon fill="none" stroke="black" stroke-width="2" points="9,-5 9,-91 290,-91 290,-5 9,-5"/>
</a>
</g>
</g>
</g>
</svg>
