<?xml version="1.0" encoding="UTF-8" standalone="no"?>
<!DOCTYPE svg PUBLIC "-//W3C//DTD SVG 1.1//EN"
 "http://www.w3.org/Graphics/SVG/1.1/DTD/svg11.dtd">
<!-- Generated by graphviz version 2.38.0 (20140413.2041)
 -->
<!-- Title: twoDegreesRelationshipsDiagram Pages: 1 -->
<svg width="915pt" height="801pt"
 viewBox="0.00 0.00 915.00 801.00" xmlns="http://www.w3.org/2000/svg" xmlns:xlink="http://www.w3.org/1999/xlink">
<g id="graph0" class="graph" transform="scale(1 1) rotate(0) translate(4 797)">
<title>twoDegreesRelationshipsDiagram</title>
<polygon fill="#ffffff" stroke="none" points="-4,4 -4,-797 911,-797 911,4 -4,4"/>
<text text-anchor="middle" x="74.5" y="-7.2" font-family="Helvetica,sans-Serif" font-size="11.00">Generated by SchemaSpy</text>
<!-- nursery.batches -->
<g id="node1" class="node"><title>nursery.batches</title>
<g id="a_node1"><a xlink:href="../../../nursery/tables/batches.html" xlink:title="nursery.batches" target="_top">
<polygon fill="#ffffff" stroke="none" points="525,-37 525,-95 666,-95 666,-37 525,-37"/>
<polygon fill="#f5f5f5" stroke="none" points="525.5,-73 525.5,-95 666.5,-95 666.5,-73 525.5,-73"/>
<polygon fill="none" stroke="black" points="525.5,-73 525.5,-95 666.5,-95 666.5,-73 525.5,-73"/>
<text text-anchor="start" x="530.5" y="-82.2" font-family="Helvetica,sans-Serif" font-weight="bold" font-size="11.00">nursery.batches</text>
<text text-anchor="start" x="627.5" y="-81.2" font-family="Helvetica,sans-Serif" font-size="11.00">[table]</text>
<polygon fill="none" stroke="black" points="525.5,-55 525.5,-73 666.5,-73 666.5,-55 525.5,-55"/>
<text text-anchor="start" x="528.5" y="-61.2" font-family="Helvetica,sans-Serif" font-size="11.00">...</text>
<polygon fill="#ffffff" stroke="none" points="525.5,-37 525.5,-55 579.5,-55 579.5,-37 525.5,-37"/>
<polygon fill="none" stroke="black" points="525.5,-37 525.5,-55 579.5,-55 579.5,-37 525.5,-37"/>
<text text-anchor="start" x="528.5" y="-43.2" font-family="Helvetica,sans-Serif" font-size="11.00">&lt; 2</text>
<polygon fill="#ffffff" stroke="none" points="579.5,-37 579.5,-55 637.5,-55 637.5,-37 579.5,-37"/>
<polygon fill="none" stroke="black" points="579.5,-37 579.5,-55 637.5,-55 637.5,-37 579.5,-37"/>
<text text-anchor="start" x="598.5" y="-43.2" font-family="Helvetica,sans-Serif" font-size="11.00">0 rows</text>
<polygon fill="#ffffff" stroke="none" points="637.5,-37 637.5,-55 666.5,-55 666.5,-37 637.5,-37"/>
<polygon fill="none" stroke="black" points="637.5,-37 637.5,-55 666.5,-55 666.5,-37 637.5,-37"/>
<text text-anchor="start" x="656.5" y="-43.2" font-family="Helvetica,sans-Serif" font-size="11.00"> &#160;</text>
</a>
</g>
</g>
<!-- facilities -->
<g id="node2" class="node"><title>facilities</title>
<g id="a_node2"><a xlink:href="../../tables/facilities.html" xlink:title="facilities" target="_top">
<polygon fill="#ffffff" stroke="none" points="253,-414 253,-582 413,-582 413,-414 253,-414"/>
<polygon fill="#f5f5f5" stroke="none" points="253,-560 253,-582 413,-582 413,-560 253,-560"/>
<polygon fill="none" stroke="black" points="253,-560 253,-582 413,-582 413,-560 253,-560"/>
<text text-anchor="start" x="258" y="-569.2" font-family="Helvetica,sans-Serif" font-weight="bold" font-size="11.00">facilities</text>
<text text-anchor="start" x="374" y="-568.2" font-family="Helvetica,sans-Serif" font-size="11.00">[table]</text>
<polygon fill="none" stroke="black" points="253,-538 253,-560 413,-560 413,-538 253,-538"/>
<image xlink:href="../../images/primaryKeys.png" width="11px" height="12px" preserveAspectRatio="xMinYMin meet" x="258" y="-555"/>
<text text-anchor="start" x="273" y="-546.2" font-family="Helvetica,sans-Serif" font-size="11.00">id</text>
<polygon fill="#ffffff" stroke="none" points="253,-516 253,-538 413,-538 413,-516 253,-516"/>
<polygon fill="none" stroke="black" points="253,-516 253,-538 413,-538 413,-516 253,-516"/>
<text text-anchor="start" x="273" y="-524.2" font-family="Helvetica,sans-Serif" font-size="11.00">idle_after_time</text>
<polygon fill="none" stroke="black" points="253,-494 253,-516 413,-516 413,-494 253,-494"/>
<image xlink:href="../../images/foreignKeys.png" width="11px" height="12px" preserveAspectRatio="xMinYMin meet" x="258" y="-511"/>
<text text-anchor="start" x="273" y="-502.2" font-family="Helvetica,sans-Serif" font-size="11.00">connection_state_id</text>
<polygon fill="#ffffff" stroke="none" points="253,-472 253,-494 413,-494 413,-472 253,-472"/>
<polygon fill="none" stroke="black" points="253,-472 253,-494 413,-494 413,-472 253,-472"/>
<image xlink:href="../../images/foreignKeys.png" width="11px" height="12px" preserveAspectRatio="xMinYMin meet" x="258" y="-489"/>
<text text-anchor="start" x="273" y="-480.2" font-family="Helvetica,sans-Serif" font-size="11.00">organization_id</text>
<polygon fill="#ffffff" stroke="none" points="253,-450 253,-472 413,-472 413,-450 253,-450"/>
<polygon fill="none" stroke="black" points="253,-450 253,-472 413,-472 413,-450 253,-450"/>
<text text-anchor="start" x="273" y="-458.2" font-family="Helvetica,sans-Serif" font-size="11.00">next_notification_time</text>
<polygon fill="none" stroke="black" points="253,-432 253,-450 413,-450 413,-432 253,-432"/>
<text text-anchor="start" x="256" y="-438.2" font-family="Helvetica,sans-Serif" font-size="11.00">...</text>
<polygon fill="#ffffff" stroke="none" points="253,-414 253,-432 312,-432 312,-414 253,-414"/>
<polygon fill="none" stroke="black" points="253,-414 253,-432 312,-432 312,-414 253,-414"/>
<text text-anchor="start" x="256" y="-420.2" font-family="Helvetica,sans-Serif" font-size="11.00">&lt; 2</text>
<polygon fill="#ffffff" stroke="none" points="312,-414 312,-432 372,-432 372,-414 312,-414"/>
<polygon fill="none" stroke="black" points="312,-414 312,-432 372,-432 372,-414 312,-414"/>
<text text-anchor="start" x="333" y="-420.2" font-family="Helvetica,sans-Serif" font-size="11.00">0 rows</text>
<polygon fill="#ffffff" stroke="none" points="372,-414 372,-432 413,-432 413,-414 372,-414"/>
<polygon fill="none" stroke="black" points="372,-414 372,-432 413,-432 413,-414 372,-414"/>
<text text-anchor="start" x="393" y="-420.2" font-family="Helvetica,sans-Serif" font-size="11.00">8 &gt;</text>
</a>
</g>
</g>
<!-- nursery.batches&#45;&gt;facilities -->
<g id="edge1" class="edge"><title>nursery.batches:elipses:w&#45;&gt;facilities:id:e</title>
<path fill="none" stroke="black" d="M510.05,-64.6826C483.881,-67.4342 470.653,-78.8434 454,-105 427.398,-146.783 463.533,-549 414,-549"/>
<polygon fill="black" stroke="black" points="516.509,-64.3775 524.67,-67.596 520.504,-64.1888 524.5,-64 524.5,-64 524.5,-64 520.504,-64.1888 524.33,-60.404 516.509,-64.3775 516.509,-64.3775"/>
<ellipse fill="none" stroke="black" cx="513.312" cy="-64.5286" rx="3.2" ry="3.2"/>
</g>
<!-- organizations -->
<g id="node3" class="node"><title>organizations</title>
<g id="a_node3"><a xlink:href="../../tables/organizations.html" xlink:title="organizations" target="_top">
<polygon fill="#ffffff" stroke="none" points="43.5,-300 43.5,-358 168.5,-358 168.5,-300 43.5,-300"/>
<polygon fill="#f5f5f5" stroke="none" points="44,-336 44,-358 169,-358 169,-336 44,-336"/>
<polygon fill="none" stroke="black" points="44,-336 44,-358 169,-358 169,-336 44,-336"/>
<text text-anchor="start" x="49" y="-345.2" font-family="Helvetica,sans-Serif" font-weight="bold" font-size="11.00">organizations</text>
<text text-anchor="start" x="130" y="-344.2" font-family="Helvetica,sans-Serif" font-size="11.00">[table]</text>
<polygon fill="none" stroke="black" points="44,-318 44,-336 169,-336 169,-318 44,-318"/>
<text text-anchor="start" x="47" y="-324.2" font-family="Helvetica,sans-Serif" font-size="11.00">...</text>
<polygon fill="#ffffff" stroke="none" points="44,-300 44,-318 80,-318 80,-300 44,-300"/>
<polygon fill="none" stroke="black" points="44,-300 44,-318 80,-318 80,-300 44,-300"/>
<text text-anchor="start" x="47" y="-306.2" font-family="Helvetica,sans-Serif" font-size="11.00"> &#160;</text>
<polygon fill="#ffffff" stroke="none" points="80,-300 80,-318 134,-318 134,-300 80,-300"/>
<polygon fill="none" stroke="black" points="80,-300 80,-318 134,-318 134,-300 80,-300"/>
<text text-anchor="start" x="95" y="-306.2" font-family="Helvetica,sans-Serif" font-size="11.00">0 rows</text>
<polygon fill="#ffffff" stroke="none" points="134,-300 134,-318 169,-318 169,-300 134,-300"/>
<polygon fill="none" stroke="black" points="134,-300 134,-318 169,-318 169,-300 134,-300"/>
<text text-anchor="start" x="149" y="-306.2" font-family="Helvetica,sans-Serif" font-size="11.00">3 &gt;</text>
</a>
</g>
</g>
<!-- nursery.batches&#45;&gt;organizations -->
<g id="edge2" class="edge"><title>nursery.batches:elipses:w&#45;&gt;organizations:elipses:e</title>
<path fill="none" stroke="black" d="M510.002,-64.5C330.091,-77.1859 361.199,-327 170,-327"/>
<polygon fill="black" stroke="black" points="516.505,-64.2758 524.624,-67.5979 520.502,-64.1379 524.5,-64 524.5,-64 524.5,-64 520.502,-64.1379 524.376,-60.4021 516.505,-64.2758 516.505,-64.2758"/>
<ellipse fill="none" stroke="black" cx="513.307" cy="-64.3861" rx="3.2" ry="3.2"/>
</g>
<!-- facilities&#45;&gt;organizations -->
<g id="edge10" class="edge"><title>facilities:organization_id:w&#45;&gt;organizations:elipses:e</title>
<path fill="none" stroke="black" d="M237.64,-480.795C183.414,-461.834 242.821,-327 170,-327"/>
<polygon fill="black" stroke="black" points="244.093,-481.786 251.454,-486.558 248.046,-482.393 252,-483 252,-483 252,-483 248.046,-482.393 252.546,-479.442 244.093,-481.786 244.093,-481.786"/>
<ellipse fill="none" stroke="black" cx="240.93" cy="-481.3" rx="3.2" ry="3.2"/>
</g>
<!-- facility_connection_states -->
<g id="node8" class="node"><title>facility_connection_states</title>
<g id="a_node8"><a xlink:href="../../tables/facility_connection_states.html" xlink:title="facility_connection_states" target="_top">
<polygon fill="#ffffff" stroke="none" points="8,-478 8,-536 204,-536 204,-478 8,-478"/>
<polygon fill="#f5f5f5" stroke="none" points="8,-514 8,-536 204,-536 204,-514 8,-514"/>
<polygon fill="none" stroke="black" points="8,-514 8,-536 204,-536 204,-514 8,-514"/>
<text text-anchor="start" x="13" y="-523.2" font-family="Helvetica,sans-Serif" font-weight="bold" font-size="11.00">facility_connection_states</text>
<text text-anchor="start" x="165" y="-522.2" font-family="Helvetica,sans-Serif" font-size="11.00">[table]</text>
<polygon fill="none" stroke="black" points="8,-496 8,-514 204,-514 204,-496 8,-496"/>
<text text-anchor="start" x="11" y="-502.2" font-family="Helvetica,sans-Serif" font-size="11.00">...</text>
<polygon fill="#ffffff" stroke="none" points="8,-478 8,-496 80,-496 80,-478 8,-478"/>
<polygon fill="none" stroke="black" points="8,-478 8,-496 80,-496 80,-478 8,-478"/>
<text text-anchor="start" x="11" y="-484.2" font-family="Helvetica,sans-Serif" font-size="11.00"> &#160;</text>
<polygon fill="#ffffff" stroke="none" points="80,-478 80,-496 151,-496 151,-478 80,-478"/>
<polygon fill="none" stroke="black" points="80,-478 80,-496 151,-496 151,-478 80,-478"/>
<text text-anchor="start" x="112" y="-484.2" font-family="Helvetica,sans-Serif" font-size="11.00">3 rows</text>
<polygon fill="#ffffff" stroke="none" points="151,-478 151,-496 204,-496 204,-478 151,-478"/>
<polygon fill="none" stroke="black" points="151,-478 151,-496 204,-496 204,-478 151,-478"/>
<text text-anchor="start" x="184" y="-484.2" font-family="Helvetica,sans-Serif" font-size="11.00">1 &gt;</text>
</a>
</g>
</g>
<!-- facilities&#45;&gt;facility_connection_states -->
<g id="edge9" class="edge"><title>facilities:connection_state_id:w&#45;&gt;facility_connection_states:elipses:e</title>
<path fill="none" stroke="black" d="M237.396,-505C226.934,-505 220.014,-505 205,-505"/>
<polygon fill="black" stroke="black" points="244,-505 252,-508.6 248,-505 252,-505 252,-505 252,-505 248,-505 252,-501.4 244,-505 244,-505"/>
<ellipse fill="none" stroke="black" cx="240.8" cy="-505" rx="3.2" ry="3.2"/>
</g>
<!-- nursery.withdrawals -->
<g id="node4" class="node"><title>nursery.withdrawals</title>
<g id="a_node4"><a xlink:href="../../../nursery/tables/withdrawals.html" xlink:title="nursery.withdrawals" target="_top">
<polygon fill="#ffffff" stroke="none" points="512,-652 512,-710 679,-710 679,-652 512,-652"/>
<polygon fill="#f5f5f5" stroke="none" points="512.5,-688 512.5,-710 679.5,-710 679.5,-688 512.5,-688"/>
<polygon fill="none" stroke="black" points="512.5,-688 512.5,-710 679.5,-710 679.5,-688 512.5,-688"/>
<text text-anchor="start" x="517.5" y="-697.2" font-family="Helvetica,sans-Serif" font-weight="bold" font-size="11.00">nursery.withdrawals</text>
<text text-anchor="start" x="640.5" y="-696.2" font-family="Helvetica,sans-Serif" font-size="11.00">[table]</text>
<polygon fill="none" stroke="black" points="512.5,-670 512.5,-688 679.5,-688 679.5,-670 512.5,-670"/>
<text text-anchor="start" x="515.5" y="-676.2" font-family="Helvetica,sans-Serif" font-size="11.00">...</text>
<polygon fill="#ffffff" stroke="none" points="512.5,-652 512.5,-670 579.5,-670 579.5,-652 512.5,-652"/>
<polygon fill="none" stroke="black" points="512.5,-652 512.5,-670 579.5,-670 579.5,-652 512.5,-652"/>
<text text-anchor="start" x="515.5" y="-658.2" font-family="Helvetica,sans-Serif" font-size="11.00">&lt; 2</text>
<polygon fill="#ffffff" stroke="none" points="579.5,-652 579.5,-670 643.5,-670 643.5,-652 579.5,-652"/>
<polygon fill="none" stroke="black" points="579.5,-652 579.5,-670 643.5,-670 643.5,-652 579.5,-652"/>
<text text-anchor="start" x="604.5" y="-658.2" font-family="Helvetica,sans-Serif" font-size="11.00">0 rows</text>
<polygon fill="#ffffff" stroke="none" points="643.5,-652 643.5,-670 679.5,-670 679.5,-652 643.5,-652"/>
<polygon fill="none" stroke="black" points="643.5,-652 643.5,-670 679.5,-670 679.5,-652 643.5,-652"/>
<text text-anchor="start" x="669.5" y="-658.2" font-family="Helvetica,sans-Serif" font-size="11.00"> &#160;</text>
</a>
</g>
</g>
<!-- nursery.withdrawals&#45;&gt;facilities -->
<g id="edge3" class="edge"><title>nursery.withdrawals:elipses:w&#45;&gt;facilities:id:e</title>
<path fill="none" stroke="black" d="M497.408,-675.104C478.108,-667.856 470.186,-655.115 454,-636 424.924,-601.662 458.994,-543 414,-549"/>
<polygon fill="black" stroke="black" points="503.789,-676.868 510.541,-682.47 507.645,-677.934 511.5,-679 511.5,-679 511.5,-679 507.645,-677.934 512.459,-675.53 503.789,-676.868 503.789,-676.868"/>
<ellipse fill="none" stroke="black" cx="500.705" cy="-676.015" rx="3.20001" ry="3.20001"/>
</g>
<!-- nursery.withdrawals&#45;&gt;facilities -->
<g id="edge4" class="edge"><title>nursery.withdrawals:elipses:w&#45;&gt;facilities:id:e</title>
<path fill="none" stroke="black" d="M497.135,-680.824C478.032,-680.735 470.109,-668.025 454,-649 424.924,-614.662 458.994,-556 414,-549"/>
<polygon fill="black" stroke="black" points="503.564,-680.008 511.954,-682.571 507.532,-679.504 511.5,-679 511.5,-679 511.5,-679 507.532,-679.504 511.046,-675.429 503.564,-680.008 503.564,-680.008"/>
<ellipse fill="none" stroke="black" cx="500.389" cy="-680.411" rx="3.2" ry="3.2"/>
</g>
<!-- automations -->
<g id="node5" class="node"><title>automations</title>
<g id="a_node5"><a xlink:href="../../tables/automations.html" xlink:title="automations" target="_top">
<polygon fill="#ffffff" stroke="none" points="778,-547 778,-605 899,-605 899,-547 778,-547"/>
<polygon fill="#f5f5f5" stroke="none" points="778.5,-583 778.5,-605 899.5,-605 899.5,-583 778.5,-583"/>
<polygon fill="none" stroke="black" points="778.5,-583 778.5,-605 899.5,-605 899.5,-583 778.5,-583"/>
<text text-anchor="start" x="783.5" y="-592.2" font-family="Helvetica,sans-Serif" font-weight="bold" font-size="11.00">automations</text>
<text text-anchor="start" x="860.5" y="-591.2" font-family="Helvetica,sans-Serif" font-size="11.00">[table]</text>
<polygon fill="none" stroke="black" points="778.5,-565 778.5,-583 899.5,-583 899.5,-565 778.5,-565"/>
<text text-anchor="start" x="781.5" y="-571.2" font-family="Helvetica,sans-Serif" font-size="11.00">...</text>
<polygon fill="#ffffff" stroke="none" points="778.5,-547 778.5,-565 822.5,-565 822.5,-547 778.5,-547"/>
<polygon fill="none" stroke="black" points="778.5,-547 778.5,-565 822.5,-565 822.5,-547 778.5,-547"/>
<text text-anchor="start" x="781.5" y="-553.2" font-family="Helvetica,sans-Serif" font-size="11.00">&lt; 2</text>
<polygon fill="#ffffff" stroke="none" points="822.5,-547 822.5,-565 875.5,-565 875.5,-547 822.5,-547"/>
<polygon fill="none" stroke="black" points="822.5,-547 822.5,-565 875.5,-565 875.5,-547 822.5,-547"/>
<text text-anchor="start" x="836.5" y="-553.2" font-family="Helvetica,sans-Serif" font-size="11.00">0 rows</text>
<polygon fill="#ffffff" stroke="none" points="875.5,-547 875.5,-565 899.5,-565 899.5,-547 875.5,-547"/>
<polygon fill="none" stroke="black" points="875.5,-547 875.5,-565 899.5,-565 899.5,-547 875.5,-547"/>
<text text-anchor="start" x="889.5" y="-553.2" font-family="Helvetica,sans-Serif" font-size="11.00"> &#160;</text>
</a>
</g>
</g>
<!-- automations&#45;&gt;facilities -->
<g id="edge6" class="edge"><title>automations:elipses:w&#45;&gt;facilities:id:e</title>
<path fill="none" stroke="black" d="M762.992,-571.846C754.989,-569.229 749.383,-564.926 737,-563 595.016,-540.922 557.69,-549 414,-549"/>
<polygon fill="black" stroke="black" points="769.587,-572.825 776.971,-577.561 773.543,-573.413 777.5,-574 777.5,-574 777.5,-574 773.543,-573.413 778.029,-570.439 769.587,-572.825 769.587,-572.825"/>
<ellipse fill="none" stroke="black" cx="766.421" cy="-572.355" rx="3.2" ry="3.2"/>
</g>
<!-- devices -->
<g id="node6" class="node"><title>devices</title>
<g id="a_node6"><a xlink:href="../../tables/devices.html" xlink:title="devices" target="_top">
<polygon fill="#ffffff" stroke="none" points="550,-573 550,-631 641,-631 641,-573 550,-573"/>
<polygon fill="#f5f5f5" stroke="none" points="550.5,-609 550.5,-631 641.5,-631 641.5,-609 550.5,-609"/>
<polygon fill="none" stroke="black" points="550.5,-609 550.5,-631 641.5,-631 641.5,-609 550.5,-609"/>
<text text-anchor="start" x="555.5" y="-618.2" font-family="Helvetica,sans-Serif" font-weight="bold" font-size="11.00">devices</text>
<text text-anchor="start" x="602.5" y="-617.2" font-family="Helvetica,sans-Serif" font-size="11.00">[table]</text>
<polygon fill="none" stroke="black" points="550.5,-591 550.5,-609 641.5,-609 641.5,-591 550.5,-591"/>
<text text-anchor="start" x="553.5" y="-597.2" font-family="Helvetica,sans-Serif" font-size="11.00">...</text>
<polygon fill="#ffffff" stroke="none" points="550.5,-573 550.5,-591 574.5,-591 574.5,-573 550.5,-573"/>
<polygon fill="none" stroke="black" points="550.5,-573 550.5,-591 574.5,-591 574.5,-573 550.5,-573"/>
<text text-anchor="start" x="553.5" y="-579.2" font-family="Helvetica,sans-Serif" font-size="11.00">&lt; 2</text>
<polygon fill="#ffffff" stroke="none" points="574.5,-573 574.5,-591 617.5,-591 617.5,-573 574.5,-573"/>
<polygon fill="none" stroke="black" points="574.5,-573 574.5,-591 617.5,-591 617.5,-573 574.5,-573"/>
<text text-anchor="start" x="578.5" y="-579.2" font-family="Helvetica,sans-Serif" font-size="11.00">0 rows</text>
<polygon fill="#ffffff" stroke="none" points="617.5,-573 617.5,-591 641.5,-591 641.5,-573 617.5,-573"/>
<polygon fill="none" stroke="black" points="617.5,-573 617.5,-591 641.5,-591 641.5,-573 617.5,-573"/>
<text text-anchor="start" x="621.5" y="-579.2" font-family="Helvetica,sans-Serif" font-size="11.00">3 &gt;</text>
</a>
</g>
</g>
<!-- automations&#45;&gt;devices -->
<g id="edge5" class="edge"><title>automations:elipses:w&#45;&gt;devices:elipses:e</title>
<path fill="none" stroke="black" d="M763.07,-574.519C713.908,-578.184 698.471,-600 642.5,-600"/>
<polygon fill="black" stroke="black" points="769.505,-574.288 777.63,-577.598 773.503,-574.144 777.5,-574 777.5,-574 777.5,-574 773.503,-574.144 777.37,-570.402 769.505,-574.288 769.505,-574.288"/>
<ellipse fill="none" stroke="black" cx="766.307" cy="-574.403" rx="3.2" ry="3.2"/>
</g>
<!-- devices&#45;&gt;facilities -->
<g id="edge8" class="edge"><title>devices:elipses:w&#45;&gt;facilities:id:e</title>
<path fill="none" stroke="black" d="M535.282,-597.676C499.63,-587.699 442.026,-549 414,-549"/>
<polygon fill="black" stroke="black" points="541.605,-598.71 548.919,-603.553 545.552,-599.355 549.5,-600 549.5,-600 549.5,-600 545.552,-599.355 550.081,-596.447 541.605,-598.71 541.605,-598.71"/>
<ellipse fill="none" stroke="black" cx="538.447" cy="-598.193" rx="3.2" ry="3.2"/>
</g>
<!-- device_managers -->
<g id="node7" class="node"><title>device_managers</title>
<g id="a_node7"><a xlink:href="../../tables/device_managers.html" xlink:title="device_managers" target="_top">
<polygon fill="#ffffff" stroke="none" points="462,-195 462,-525 729,-525 729,-195 462,-195"/>
<polygon fill="#f5f5f5" stroke="none" points="464.5,-501 464.5,-523 727.5,-523 727.5,-501 464.5,-501"/>
<polygon fill="none" stroke="black" points="464.5,-501 464.5,-523 727.5,-523 727.5,-501 464.5,-501"/>
<text text-anchor="start" x="469.5" y="-510.2" font-family="Helvetica,sans-Serif" font-weight="bold" font-size="11.00">device_managers</text>
<text text-anchor="start" x="688.5" y="-509.2" font-family="Helvetica,sans-Serif" font-size="11.00">[table]</text>
<polygon fill="none" stroke="black" points="464.5,-479 464.5,-501 625.5,-501 625.5,-479 464.5,-479"/>
<image xlink:href="../../images/primaryKeys.png" width="11px" height="12px" preserveAspectRatio="xMinYMin meet" x="469.5" y="-496"/>
<text text-anchor="start" x="484.5" y="-487.2" font-family="Helvetica,sans-Serif" font-size="11.00">id</text>
<polygon fill="none" stroke="black" points="625.5,-479 625.5,-501 727.5,-501 727.5,-479 625.5,-479"/>
<text text-anchor="start" x="628.5" y="-487.2" font-family="Helvetica,sans-Serif" font-size="11.00">int8[19]</text>
<polygon fill="#ffffff" stroke="none" points="464.5,-457 464.5,-479 625.5,-479 625.5,-457 464.5,-457"/>
<polygon fill="none" stroke="black" points="464.5,-457 464.5,-479 625.5,-479 625.5,-457 464.5,-457"/>
<text text-anchor="start" x="484.5" y="-465.2" font-family="Helvetica,sans-Serif" font-size="11.00">balena_id</text>
<polygon fill="none" stroke="black" points="625.5,-457 625.5,-479 727.5,-479 727.5,-457 625.5,-457"/>
<text text-anchor="start" x="628.5" y="-465.2" font-family="Helvetica,sans-Serif" font-size="11.00">int8[19]</text>
<polygon fill="none" stroke="black" points="464.5,-435 464.5,-457 625.5,-457 625.5,-435 464.5,-435"/>
<text text-anchor="start" x="484.5" y="-443.2" font-family="Helvetica,sans-Serif" font-size="11.00">balena_modified_time</text>
<polygon fill="none" stroke="black" points="625.5,-435 625.5,-457 727.5,-457 727.5,-435 625.5,-435"/>
<text text-anchor="start" x="628.5" y="-443.2" font-family="Helvetica,sans-Serif" font-size="11.00">timestamptz[35,6]</text>
<polygon fill="none" stroke="black" points="464.5,-413 464.5,-435 625.5,-435 625.5,-413 464.5,-413"/>
<text text-anchor="start" x="484.5" y="-421.2" font-family="Helvetica,sans-Serif" font-size="11.00">device_name</text>
<polygon fill="none" stroke="black" points="625.5,-413 625.5,-435 727.5,-435 727.5,-413 625.5,-413"/>
<text text-anchor="start" x="628.5" y="-421.2" font-family="Helvetica,sans-Serif" font-size="11.00">text[2147483647]</text>
<polygon fill="none" stroke="black" points="464.5,-391 464.5,-413 625.5,-413 625.5,-391 464.5,-391"/>
<text text-anchor="start" x="484.5" y="-399.2" font-family="Helvetica,sans-Serif" font-size="11.00">is_online</text>
<polygon fill="none" stroke="black" points="625.5,-391 625.5,-413 727.5,-413 727.5,-391 625.5,-391"/>
<text text-anchor="start" x="628.5" y="-399.2" font-family="Helvetica,sans-Serif" font-size="11.00">bool[1]</text>
<polygon fill="none" stroke="black" points="464.5,-369 464.5,-391 625.5,-391 625.5,-369 464.5,-369"/>
<text text-anchor="start" x="484.5" y="-377.2" font-family="Helvetica,sans-Serif" font-size="11.00">last_connectivity_event</text>
<polygon fill="none" stroke="black" points="625.5,-369 625.5,-391 727.5,-391 727.5,-369 625.5,-369"/>
<text text-anchor="start" x="628.5" y="-377.2" font-family="Helvetica,sans-Serif" font-size="11.00">timestamptz[35,6]</text>
<polygon fill="none" stroke="black" points="464.5,-347 464.5,-369 625.5,-369 625.5,-347 464.5,-347"/>
<text text-anchor="start" x="484.5" y="-355.2" font-family="Helvetica,sans-Serif" font-size="11.00">update_progress</text>
<polygon fill="none" stroke="black" points="625.5,-347 625.5,-369 727.5,-369 727.5,-347 625.5,-347"/>
<text text-anchor="start" x="628.5" y="-355.2" font-family="Helvetica,sans-Serif" font-size="11.00">int4[10]</text>
<polygon fill="#ffffff" stroke="none" points="464.5,-325 464.5,-347 625.5,-347 625.5,-325 464.5,-325"/>
<polygon fill="none" stroke="black" points="464.5,-325 464.5,-347 625.5,-347 625.5,-325 464.5,-325"/>
<text text-anchor="start" x="484.5" y="-333.2" font-family="Helvetica,sans-Serif" font-size="11.00">sensor_kit_id</text>
<polygon fill="none" stroke="black" points="625.5,-325 625.5,-347 727.5,-347 727.5,-325 625.5,-325"/>
<text text-anchor="start" x="628.5" y="-333.2" font-family="Helvetica,sans-Serif" font-size="11.00">text[2147483647]</text>
<polygon fill="#ffffff" stroke="none" points="464.5,-303 464.5,-325 625.5,-325 625.5,-303 464.5,-303"/>
<polygon fill="none" stroke="black" points="464.5,-303 464.5,-325 625.5,-325 625.5,-303 464.5,-303"/>
<text text-anchor="start" x="484.5" y="-311.2" font-family="Helvetica,sans-Serif" font-size="11.00">user_id</text>
<polygon fill="none" stroke="black" points="625.5,-303 625.5,-325 727.5,-325 727.5,-303 625.5,-303"/>
<text text-anchor="start" x="628.5" y="-311.2" font-family="Helvetica,sans-Serif" font-size="11.00">int8[19]</text>
<polygon fill="#ffffff" stroke="none" points="464.5,-281 464.5,-303 625.5,-303 625.5,-281 464.5,-281"/>
<polygon fill="none" stroke="black" points="464.5,-281 464.5,-303 625.5,-303 625.5,-281 464.5,-281"/>
<image xlink:href="../../images/foreignKeys.png" width="11px" height="12px" preserveAspectRatio="xMinYMin meet" x="469.5" y="-298"/>
<text text-anchor="start" x="484.5" y="-289.2" font-family="Helvetica,sans-Serif" font-size="11.00">facility_id</text>
<polygon fill="none" stroke="black" points="625.5,-281 625.5,-303 727.5,-303 727.5,-281 625.5,-281"/>
<text text-anchor="start" x="628.5" y="-289.2" font-family="Helvetica,sans-Serif" font-size="11.00">int8[19]</text>
<polygon fill="none" stroke="black" points="464.5,-259 464.5,-281 625.5,-281 625.5,-259 464.5,-259"/>
<text text-anchor="start" x="484.5" y="-267.2" font-family="Helvetica,sans-Serif" font-size="11.00">created_time</text>
<polygon fill="none" stroke="black" points="625.5,-259 625.5,-281 727.5,-281 727.5,-259 625.5,-259"/>
<text text-anchor="start" x="628.5" y="-267.2" font-family="Helvetica,sans-Serif" font-size="11.00">timestamptz[35,6]</text>
<polygon fill="none" stroke="black" points="464.5,-237 464.5,-259 625.5,-259 625.5,-237 464.5,-237"/>
<text text-anchor="start" x="484.5" y="-245.2" font-family="Helvetica,sans-Serif" font-size="11.00">refreshed_time</text>
<polygon fill="none" stroke="black" points="625.5,-237 625.5,-259 727.5,-259 727.5,-237 625.5,-237"/>
<text text-anchor="start" x="628.5" y="-245.2" font-family="Helvetica,sans-Serif" font-size="11.00">timestamptz[35,6]</text>
<polygon fill="#ffffff" stroke="none" points="464.5,-215 464.5,-237 625.5,-237 625.5,-215 464.5,-215"/>
<polygon fill="none" stroke="black" points="464.5,-215 464.5,-237 625.5,-237 625.5,-215 464.5,-215"/>
<text text-anchor="start" x="484.5" y="-223.2" font-family="Helvetica,sans-Serif" font-size="11.00">balena_uuid</text>
<polygon fill="none" stroke="black" points="625.5,-215 625.5,-237 727.5,-237 727.5,-215 625.5,-215"/>
<text text-anchor="start" x="628.5" y="-223.2" font-family="Helvetica,sans-Serif" font-size="11.00">text[2147483647]</text>
<polygon fill="#ffffff" stroke="none" points="464.5,-197 464.5,-215 535.5,-215 535.5,-197 464.5,-197"/>
<polygon fill="none" stroke="black" points="464.5,-197 464.5,-215 535.5,-215 535.5,-197 464.5,-197"/>
<text text-anchor="start" x="467.5" y="-203.2" font-family="Helvetica,sans-Serif" font-size="11.00">&lt; 1</text>
<polygon fill="#ffffff" stroke="none" points="535.5,-197 535.5,-215 625.5,-215 625.5,-197 535.5,-197"/>
<polygon fill="none" stroke="black" points="535.5,-197 535.5,-215 625.5,-215 625.5,-197 535.5,-197"/>
<text text-anchor="start" x="586.5" y="-203.2" font-family="Helvetica,sans-Serif" font-size="11.00">0 rows</text>
<polygon fill="#ffffff" stroke="none" points="625.5,-197 625.5,-215 727.5,-215 727.5,-197 625.5,-197"/>
<polygon fill="none" stroke="black" points="625.5,-197 625.5,-215 727.5,-215 727.5,-197 625.5,-197"/>
<text text-anchor="start" x="707.5" y="-203.2" font-family="Helvetica,sans-Serif" font-size="11.00">0 &gt;</text>
<polygon fill="none" stroke="black" stroke-width="2" points="463,-196 463,-524 728,-524 728,-196 463,-196"/>
</a>
</g>
</g>
<!-- device_managers&#45;&gt;facilities -->
<g id="edge7" class="edge"><title>device_managers:facility_id:w&#45;&gt;facilities:id:e</title>
<path fill="none" stroke="black" d="M452.882,-292.831C359.01,-308.783 526.459,-549 414,-549"/>
<polygon fill="black" stroke="black" points="462.39,-288.075 463.015,-296.05 461.42,-296.175 460.795,-288.2 462.39,-288.075"/>
<polyline fill="none" stroke="black" points="463.5,-292 459.512,-292.312 "/>
<ellipse fill="none" stroke="black" cx="456.322" cy="-292.562" rx="3.2" ry="3.2"/>
</g>
<!-- seedbank.accessions -->
<g id="node9" class="node"><title>seedbank.accessions</title>
<g id="a_node9"><a xlink:href="../../../seedbank/tables/accessions.html" xlink:title="seedbank.accessions" target="_top">
<polygon fill="#ffffff" stroke="none" points="512.5,-116 512.5,-174 678.5,-174 678.5,-116 512.5,-116"/>
<polygon fill="#f5f5f5" stroke="none" points="512.5,-152 512.5,-174 678.5,-174 678.5,-152 512.5,-152"/>
<polygon fill="none" stroke="black" points="512.5,-152 512.5,-174 678.5,-174 678.5,-152 512.5,-152"/>
<text text-anchor="start" x="517.5" y="-161.2" font-family="Helvetica,sans-Serif" font-weight="bold" font-size="11.00">seedbank.accessions</text>
<text text-anchor="start" x="639.5" y="-160.2" font-family="Helvetica,sans-Serif" font-size="11.00">[table]</text>
<polygon fill="none" stroke="black" points="512.5,-134 512.5,-152 678.5,-152 678.5,-134 512.5,-134"/>
<text text-anchor="start" x="515.5" y="-140.2" font-family="Helvetica,sans-Serif" font-size="11.00">...</text>
<polygon fill="#ffffff" stroke="none" points="512.5,-116 512.5,-134 579.5,-134 579.5,-116 512.5,-116"/>
<polygon fill="none" stroke="black" points="512.5,-116 512.5,-134 579.5,-134 579.5,-116 512.5,-116"/>
<text text-anchor="start" x="515.5" y="-122.2" font-family="Helvetica,sans-Serif" font-size="11.00">&lt; 1</text>
<polygon fill="#ffffff" stroke="none" points="579.5,-116 579.5,-134 643.5,-134 643.5,-116 579.5,-116"/>
<polygon fill="none" stroke="black" points="579.5,-116 579.5,-134 643.5,-134 643.5,-116 579.5,-116"/>
<text text-anchor="start" x="604.5" y="-122.2" font-family="Helvetica,sans-Serif" font-size="11.00">0 rows</text>
<polygon fill="#ffffff" stroke="none" points="643.5,-116 643.5,-134 678.5,-134 678.5,-116 643.5,-116"/>
<polygon fill="none" stroke="black" points="643.5,-116 643.5,-134 678.5,-134 678.5,-116 643.5,-116"/>
<text text-anchor="start" x="668.5" y="-122.2" font-family="Helvetica,sans-Serif" font-size="11.00"> &#160;</text>
</a>
</g>
</g>
<!-- seedbank.accessions&#45;&gt;facilities -->
<g id="edge11" class="edge"><title>seedbank.accessions:elipses:w&#45;&gt;facilities:id:e</title>
<path fill="none" stroke="black" d="M497.054,-144.23C476.427,-148.175 467.146,-161.577 454,-184 412.732,-254.391 495.597,-549 414,-549"/>
<polygon fill="black" stroke="black" points="503.529,-143.679 511.805,-146.587 507.514,-143.339 511.5,-143 511.5,-143 511.5,-143 507.514,-143.339 511.195,-139.413 503.529,-143.679 503.529,-143.679"/>
<ellipse fill="none" stroke="black" cx="500.34" cy="-143.95" rx="3.2" ry="3.2"/>
</g>
<!-- seedbank.storage_locations -->
<g id="node10" class="node"><title>seedbank.storage_locations</title>
<g id="a_node10"><a xlink:href="../../../seedbank/tables/storage_locations.html" xlink:title="seedbank.storage_locations" target="_top">
<polygon fill="#ffffff" stroke="none" points="493,-731 493,-789 698,-789 698,-731 493,-731"/>
<polygon fill="#f5f5f5" stroke="none" points="493.5,-767 493.5,-789 698.5,-789 698.5,-767 493.5,-767"/>
<polygon fill="none" stroke="black" points="493.5,-767 493.5,-789 698.5,-789 698.5,-767 493.5,-767"/>
<text text-anchor="start" x="498.5" y="-776.2" font-family="Helvetica,sans-Serif" font-weight="bold" font-size="11.00">seedbank.storage_locations</text>
<text text-anchor="start" x="659.5" y="-775.2" font-family="Helvetica,sans-Serif" font-size="11.00">[table]</text>
<polygon fill="none" stroke="black" points="493.5,-749 493.5,-767 698.5,-767 698.5,-749 493.5,-749"/>
<text text-anchor="start" x="496.5" y="-755.2" font-family="Helvetica,sans-Serif" font-size="11.00">...</text>
<polygon fill="#ffffff" stroke="none" points="493.5,-731 493.5,-749 579.5,-749 579.5,-731 493.5,-731"/>
<polygon fill="none" stroke="black" points="493.5,-731 493.5,-749 579.5,-749 579.5,-731 493.5,-731"/>
<text text-anchor="start" x="496.5" y="-737.2" font-family="Helvetica,sans-Serif" font-size="11.00">&lt; 1</text>
<polygon fill="#ffffff" stroke="none" points="579.5,-731 579.5,-749 653.5,-749 653.5,-731 579.5,-731"/>
<polygon fill="none" stroke="black" points="579.5,-731 579.5,-749 653.5,-749 653.5,-731 579.5,-731"/>
<text text-anchor="start" x="614.5" y="-737.2" font-family="Helvetica,sans-Serif" font-size="11.00">0 rows</text>
<polygon fill="#ffffff" stroke="none" points="653.5,-731 653.5,-749 698.5,-749 698.5,-731 653.5,-731"/>
<polygon fill="none" stroke="black" points="653.5,-731 653.5,-749 698.5,-749 698.5,-731 653.5,-731"/>
<text text-anchor="start" x="688.5" y="-737.2" font-family="Helvetica,sans-Serif" font-size="11.00"> &#160;</text>
</a>
</g>
</g>
<!-- seedbank.storage_locations&#45;&gt;facilities -->
<g id="edge12" class="edge"><title>seedbank.storage_locations:elipses:w&#45;&gt;facilities:id:e</title>
<path fill="none" stroke="black" d="M478.122,-755.12C466.705,-749.549 462.796,-736.474 454,-721 415.215,-652.768 492.484,-549 414,-549"/>
<polygon fill="black" stroke="black" points="484.656,-756.429 491.793,-761.53 488.578,-757.214 492.5,-758 492.5,-758 492.5,-758 488.578,-757.214 493.207,-754.47 484.656,-756.429 484.656,-756.429"/>
<ellipse fill="none" stroke="black" cx="481.518" cy="-755.8" rx="3.2" ry="3.2"/>
</g>
</g>
</svg>
