<?xml version="1.0" encoding="UTF-8" standalone="no"?>
<!DOCTYPE svg PUBLIC "-//W3C//DTD SVG 1.1//EN"
 "http://www.w3.org/Graphics/SVG/1.1/DTD/svg11.dtd">
<!-- Generated by graphviz version 2.38.0 (20140413.2041)
 -->
<!-- Title: oneDegreeRelationshipsDiagram Pages: 1 -->
<svg width="1021pt" height="450pt"
 viewBox="0.00 0.00 1021.00 450.40" xmlns="http://www.w3.org/2000/svg" xmlns:xlink="http://www.w3.org/1999/xlink">
<g id="graph0" class="graph" transform="scale(1 1) rotate(0) translate(4 446.395)">
<title>oneDegreeRelationshipsDiagram</title>
<polygon fill="#ffffff" stroke="none" points="-4,4 -4,-446.395 1017,-446.395 1017,4 -4,4"/>
<text text-anchor="middle" x="74.5" y="-7.2" font-family="Helvetica,sans-Serif" font-size="11.00">Generated by SchemaSpy</text>
<!-- nursery.batches -->
<g id="node1" class="node"><title>nursery.batches</title>
<g id="a_node1"><a xlink:href="../../../nursery/tables/batches.html" xlink:title="nursery.batches" target="_top">
<polygon fill="#ffffff" stroke="none" points="755,-324 755,-426 1005,-426 1005,-324 755,-324"/>
<polygon fill="#f5f5f5" stroke="none" points="755,-404 755,-426 1005,-426 1005,-404 755,-404"/>
<polygon fill="none" stroke="black" points="755,-404 755,-426 1005,-426 1005,-404 755,-404"/>
<text text-anchor="start" x="760" y="-413.2" font-family="Helvetica,sans-Serif" font-weight="bold" font-size="11.00">nursery.batches</text>
<text text-anchor="start" x="966" y="-412.2" font-family="Helvetica,sans-Serif" font-size="11.00">[table]</text>
<polygon fill="none" stroke="black" points="755,-382 755,-404 1005,-404 1005,-382 755,-382"/>
<image xlink:href="../../images/foreignKeys.png" width="11px" height="12px" preserveAspectRatio="xMinYMin meet" x="760" y="-399"/>
<text text-anchor="start" x="775" y="-390.2" font-family="Helvetica,sans-Serif" font-size="11.00">organization_id</text>
<polygon fill="none" stroke="black" points="755,-360 755,-382 1005,-382 1005,-360 755,-360"/>
<image xlink:href="../../images/foreignKeys.png" width="11px" height="12px" preserveAspectRatio="xMinYMin meet" x="760" y="-377"/>
<text text-anchor="start" x="775" y="-368.2" font-family="Helvetica,sans-Serif" font-size="11.00">facility_id</text>
<polygon fill="none" stroke="black" points="755,-342 755,-360 1005,-360 1005,-342 755,-342"/>
<text text-anchor="start" x="758" y="-348.2" font-family="Helvetica,sans-Serif" font-size="11.00">...</text>
<polygon fill="#ffffff" stroke="none" points="755,-324 755,-342 864,-342 864,-324 755,-324"/>
<polygon fill="none" stroke="black" points="755,-324 755,-342 864,-342 864,-324 755,-324"/>
<text text-anchor="start" x="758" y="-330.2" font-family="Helvetica,sans-Serif" font-size="11.00">&lt; 2</text>
<polygon fill="#ffffff" stroke="none" points="864,-324 864,-342 949,-342 949,-324 864,-324"/>
<polygon fill="none" stroke="black" points="864,-324 864,-342 949,-342 949,-324 864,-324"/>
<text text-anchor="start" x="910" y="-330.2" font-family="Helvetica,sans-Serif" font-size="11.00">0 rows</text>
<polygon fill="#ffffff" stroke="none" points="949,-324 949,-342 1005,-342 1005,-324 949,-324"/>
<polygon fill="none" stroke="black" points="949,-324 949,-342 1005,-342 1005,-324 949,-324"/>
<text text-anchor="start" x="995" y="-330.2" font-family="Helvetica,sans-Serif" font-size="11.00"> &#160;</text>
</a>
</g>
</g>
<!-- facilities -->
<g id="node2" class="node"><title>facilities</title>
<g id="a_node2"><a xlink:href="../../tables/facilities.html" xlink:title="facilities" target="_top">
<polygon fill="#ffffff" stroke="none" points="441.5,-219 441.5,-387 601.5,-387 601.5,-219 441.5,-219"/>
<polygon fill="#f5f5f5" stroke="none" points="441.5,-365 441.5,-387 601.5,-387 601.5,-365 441.5,-365"/>
<polygon fill="none" stroke="black" points="441.5,-365 441.5,-387 601.5,-387 601.5,-365 441.5,-365"/>
<text text-anchor="start" x="446.5" y="-374.2" font-family="Helvetica,sans-Serif" font-weight="bold" font-size="11.00">facilities</text>
<text text-anchor="start" x="562.5" y="-373.2" font-family="Helvetica,sans-Serif" font-size="11.00">[table]</text>
<polygon fill="none" stroke="black" points="441.5,-343 441.5,-365 601.5,-365 601.5,-343 441.5,-343"/>
<image xlink:href="../../images/primaryKeys.png" width="11px" height="12px" preserveAspectRatio="xMinYMin meet" x="446.5" y="-360"/>
<text text-anchor="start" x="461.5" y="-351.2" font-family="Helvetica,sans-Serif" font-size="11.00">id</text>
<polygon fill="#ffffff" stroke="none" points="441.5,-321 441.5,-343 601.5,-343 601.5,-321 441.5,-321"/>
<polygon fill="none" stroke="black" points="441.5,-321 441.5,-343 601.5,-343 601.5,-321 441.5,-321"/>
<text text-anchor="start" x="461.5" y="-329.2" font-family="Helvetica,sans-Serif" font-size="11.00">idle_after_time</text>
<polygon fill="none" stroke="black" points="441.5,-299 441.5,-321 601.5,-321 601.5,-299 441.5,-299"/>
<image xlink:href="../../images/foreignKeys.png" width="11px" height="12px" preserveAspectRatio="xMinYMin meet" x="446.5" y="-316"/>
<text text-anchor="start" x="461.5" y="-307.2" font-family="Helvetica,sans-Serif" font-size="11.00">connection_state_id</text>
<polygon fill="#ffffff" stroke="none" points="441.5,-277 441.5,-299 601.5,-299 601.5,-277 441.5,-277"/>
<polygon fill="none" stroke="black" points="441.5,-277 441.5,-299 601.5,-299 601.5,-277 441.5,-277"/>
<image xlink:href="../../images/foreignKeys.png" width="11px" height="12px" preserveAspectRatio="xMinYMin meet" x="446.5" y="-294"/>
<text text-anchor="start" x="461.5" y="-285.2" font-family="Helvetica,sans-Serif" font-size="11.00">organization_id</text>
<polygon fill="#ffffff" stroke="none" points="441.5,-255 441.5,-277 601.5,-277 601.5,-255 441.5,-255"/>
<polygon fill="none" stroke="black" points="441.5,-255 441.5,-277 601.5,-277 601.5,-255 441.5,-255"/>
<text text-anchor="start" x="461.5" y="-263.2" font-family="Helvetica,sans-Serif" font-size="11.00">next_notification_time</text>
<polygon fill="none" stroke="black" points="441.5,-237 441.5,-255 601.5,-255 601.5,-237 441.5,-237"/>
<text text-anchor="start" x="444.5" y="-243.2" font-family="Helvetica,sans-Serif" font-size="11.00">...</text>
<polygon fill="#ffffff" stroke="none" points="441.5,-219 441.5,-237 500.5,-237 500.5,-219 441.5,-219"/>
<polygon fill="none" stroke="black" points="441.5,-219 441.5,-237 500.5,-237 500.5,-219 441.5,-219"/>
<text text-anchor="start" x="444.5" y="-225.2" font-family="Helvetica,sans-Serif" font-size="11.00">&lt; 2</text>
<polygon fill="#ffffff" stroke="none" points="500.5,-219 500.5,-237 560.5,-237 560.5,-219 500.5,-219"/>
<polygon fill="none" stroke="black" points="500.5,-219 500.5,-237 560.5,-237 560.5,-219 500.5,-219"/>
<text text-anchor="start" x="521.5" y="-225.2" font-family="Helvetica,sans-Serif" font-size="11.00">0 rows</text>
<polygon fill="#ffffff" stroke="none" points="560.5,-219 560.5,-237 601.5,-237 601.5,-219 560.5,-219"/>
<polygon fill="none" stroke="black" points="560.5,-219 560.5,-237 601.5,-237 601.5,-219 560.5,-219"/>
<text text-anchor="start" x="581.5" y="-225.2" font-family="Helvetica,sans-Serif" font-size="11.00">8 &gt;</text>
</a>
</g>
</g>
<!-- nursery.batches&#45;&gt;facilities -->
<g id="edge1" class="edge"><title>nursery.batches:facility_id:w&#45;&gt;facilities:id:e</title>
<path fill="none" stroke="black" d="M739.372,-370.719C683.508,-368.509 665.095,-354 602.5,-354"/>
<polygon fill="black" stroke="black" points="746.001,-370.846 753.931,-374.599 750.001,-370.923 754,-371 754,-371 754,-371 750.001,-370.923 754.069,-367.401 746.001,-370.846 746.001,-370.846"/>
<ellipse fill="none" stroke="black" cx="742.802" cy="-370.785" rx="3.2" ry="3.2"/>
</g>
<!-- organizations -->
<g id="node3" class="node"><title>organizations</title>
<g id="a_node3"><a xlink:href="../../tables/organizations.html" xlink:title="organizations" target="_top">
<polygon fill="#ffffff" stroke="none" points="8,-37 8,-323 288,-323 288,-37 8,-37"/>
<polygon fill="#f5f5f5" stroke="none" points="10,-299 10,-321 286,-321 286,-299 10,-299"/>
<polygon fill="none" stroke="black" points="10,-299 10,-321 286,-321 286,-299 10,-299"/>
<text text-anchor="start" x="15" y="-308.2" font-family="Helvetica,sans-Serif" font-weight="bold" font-size="11.00">organizations</text>
<text text-anchor="start" x="247" y="-307.2" font-family="Helvetica,sans-Serif" font-size="11.00">[table]</text>
<polygon fill="none" stroke="black" points="10,-277 10,-299 184,-299 184,-277 10,-277"/>
<image xlink:href="../../images/primaryKeys.png" width="11px" height="12px" preserveAspectRatio="xMinYMin meet" x="15" y="-294"/>
<text text-anchor="start" x="30" y="-285.2" font-family="Helvetica,sans-Serif" font-size="11.00">id</text>
<polygon fill="none" stroke="black" points="184,-277 184,-299 286,-299 286,-277 184,-277"/>
<text text-anchor="start" x="187" y="-285.2" font-family="Helvetica,sans-Serif" font-size="11.00">int8[19]</text>
<polygon fill="none" stroke="black" points="10,-255 10,-277 184,-277 184,-255 10,-255"/>
<text text-anchor="start" x="30" y="-263.2" font-family="Helvetica,sans-Serif" font-size="11.00">name</text>
<polygon fill="none" stroke="black" points="184,-255 184,-277 286,-277 286,-255 184,-255"/>
<text text-anchor="start" x="187" y="-263.2" font-family="Helvetica,sans-Serif" font-size="11.00">text[2147483647]</text>
<polygon fill="none" stroke="black" points="10,-233 10,-255 184,-255 184,-233 10,-233"/>
<text text-anchor="start" x="30" y="-241.2" font-family="Helvetica,sans-Serif" font-size="11.00">created_time</text>
<polygon fill="none" stroke="black" points="184,-233 184,-255 286,-255 286,-233 184,-233"/>
<text text-anchor="start" x="187" y="-241.2" font-family="Helvetica,sans-Serif" font-size="11.00">timestamptz[35,6]</text>
<polygon fill="none" stroke="black" points="10,-211 10,-233 184,-233 184,-211 10,-211"/>
<text text-anchor="start" x="30" y="-219.2" font-family="Helvetica,sans-Serif" font-size="11.00">modified_time</text>
<polygon fill="none" stroke="black" points="184,-211 184,-233 286,-233 286,-211 184,-211"/>
<text text-anchor="start" x="187" y="-219.2" font-family="Helvetica,sans-Serif" font-size="11.00">timestamptz[35,6]</text>
<polygon fill="none" stroke="black" points="10,-189 10,-211 184,-211 184,-189 10,-189"/>
<text text-anchor="start" x="30" y="-197.2" font-family="Helvetica,sans-Serif" font-size="11.00">disabled_time</text>
<polygon fill="none" stroke="black" points="184,-189 184,-211 286,-211 286,-189 184,-189"/>
<text text-anchor="start" x="187" y="-197.2" font-family="Helvetica,sans-Serif" font-size="11.00">timestamptz[35,6]</text>
<polygon fill="none" stroke="black" points="10,-167 10,-189 184,-189 184,-167 10,-167"/>
<text text-anchor="start" x="30" y="-175.2" font-family="Helvetica,sans-Serif" font-size="11.00">country_code</text>
<polygon fill="none" stroke="black" points="184,-167 184,-189 286,-189 286,-167 184,-167"/>
<text text-anchor="start" x="187" y="-175.2" font-family="Helvetica,sans-Serif" font-size="11.00">text[2147483647]</text>
<polygon fill="none" stroke="black" points="10,-145 10,-167 184,-167 184,-145 10,-145"/>
<text text-anchor="start" x="30" y="-153.2" font-family="Helvetica,sans-Serif" font-size="11.00">country_subdivision_code</text>
<polygon fill="none" stroke="black" points="184,-145 184,-167 286,-167 286,-145 184,-145"/>
<text text-anchor="start" x="187" y="-153.2" font-family="Helvetica,sans-Serif" font-size="11.00">text[2147483647]</text>
<polygon fill="none" stroke="black" points="10,-123 10,-145 184,-145 184,-123 10,-123"/>
<text text-anchor="start" x="30" y="-131.2" font-family="Helvetica,sans-Serif" font-size="11.00">description</text>
<polygon fill="none" stroke="black" points="184,-123 184,-145 286,-145 286,-123 184,-123"/>
<text text-anchor="start" x="187" y="-131.2" font-family="Helvetica,sans-Serif" font-size="11.00">text[2147483647]</text>
<polygon fill="none" stroke="black" points="10,-101 10,-123 184,-123 184,-101 10,-101"/>
<text text-anchor="start" x="30" y="-109.2" font-family="Helvetica,sans-Serif" font-size="11.00">created_by</text>
<polygon fill="none" stroke="black" points="184,-101 184,-123 286,-123 286,-101 184,-101"/>
<text text-anchor="start" x="187" y="-109.2" font-family="Helvetica,sans-Serif" font-size="11.00">int8[19]</text>
<polygon fill="none" stroke="black" points="10,-79 10,-101 184,-101 184,-79 10,-79"/>
<text text-anchor="start" x="30" y="-87.2" font-family="Helvetica,sans-Serif" font-size="11.00">modified_by</text>
<polygon fill="none" stroke="black" points="184,-79 184,-101 286,-101 286,-79 184,-79"/>
<text text-anchor="start" x="187" y="-87.2" font-family="Helvetica,sans-Serif" font-size="11.00">int8[19]</text>
<polygon fill="none" stroke="black" points="10,-57 10,-79 184,-79 184,-57 10,-57"/>
<text text-anchor="start" x="30" y="-65.2" font-family="Helvetica,sans-Serif" font-size="11.00">time_zone</text>
<polygon fill="none" stroke="black" points="184,-57 184,-79 286,-79 286,-57 184,-57"/>
<text text-anchor="start" x="187" y="-65.2" font-family="Helvetica,sans-Serif" font-size="11.00">text[2147483647]</text>
<polygon fill="#ffffff" stroke="none" points="10,-39 10,-57 87,-57 87,-39 10,-39"/>
<polygon fill="none" stroke="black" points="10,-39 10,-57 87,-57 87,-39 10,-39"/>
<text text-anchor="start" x="13" y="-45.2" font-family="Helvetica,sans-Serif" font-size="11.00">&lt; 0</text>
<polygon fill="#ffffff" stroke="none" points="87,-39 87,-57 184,-57 184,-39 87,-39"/>
<polygon fill="none" stroke="black" points="87,-39 87,-57 184,-57 184,-39 87,-39"/>
<text text-anchor="start" x="145" y="-45.2" font-family="Helvetica,sans-Serif" font-size="11.00">0 rows</text>
<polygon fill="#ffffff" stroke="none" points="184,-39 184,-57 286,-57 286,-39 184,-39"/>
<polygon fill="none" stroke="black" points="184,-39 184,-57 286,-57 286,-39 184,-39"/>
<text text-anchor="start" x="266" y="-45.2" font-family="Helvetica,sans-Serif" font-size="11.00">3 &gt;</text>
<polygon fill="none" stroke="black" stroke-width="2" points="9,-38 9,-322 287,-322 287,-38 9,-38"/>
</a>
</g>
</g>
<!-- nursery.batches&#45;&gt;organizations -->
<g id="edge2" class="edge"><title>nursery.batches:organization_id:w&#45;&gt;organizations:id.type:e</title>
<path fill="none" stroke="black" d="M739.562,-393.851C731.722,-394.839 725.85,-396.409 714,-397 543.101,-405.524 470.079,-493.829 329,-397 286.196,-367.621 338.916,-288 287,-288"/>
<polygon fill="black" stroke="black" points="746.014,-393.471 754.212,-396.594 750.007,-393.235 754,-393 754,-393 754,-393 750.007,-393.235 753.788,-389.406 746.014,-393.471 746.014,-393.471"/>
<ellipse fill="none" stroke="black" cx="742.819" cy="-393.659" rx="3.2" ry="3.2"/>
</g>
<!-- facilities&#45;&gt;organizations -->
<g id="edge3" class="edge"><title>facilities:organization_id:w&#45;&gt;organizations:id.type:e</title>
<path fill="none" stroke="black" d="M425.756,-288C369.383,-288 350.026,-288 287,-288"/>
<polygon fill="black" stroke="black" points="432.5,-288 440.5,-291.6 436.5,-288 440.5,-288 440.5,-288 440.5,-288 436.5,-288 440.5,-284.4 432.5,-288 432.5,-288"/>
<ellipse fill="none" stroke="black" cx="429.3" cy="-288" rx="3.2" ry="3.2"/>
</g>
<!-- tracking.planting_sites -->
<g id="node4" class="node"><title>tracking.planting_sites</title>
<g id="a_node4"><a xlink:href="../../../tracking/tables/planting_sites.html" xlink:title="tracking.planting_sites" target="_top">
<polygon fill="#ffffff" stroke="none" points="337,-118 337,-198 706,-198 706,-118 337,-118"/>
<polygon fill="#f5f5f5" stroke="none" points="337.5,-176 337.5,-198 706.5,-198 706.5,-176 337.5,-176"/>
<polygon fill="none" stroke="black" points="337.5,-176 337.5,-198 706.5,-198 706.5,-176 337.5,-176"/>
<text text-anchor="start" x="342.5" y="-185.2" font-family="Helvetica,sans-Serif" font-weight="bold" font-size="11.00">tracking.planting_sites</text>
<text text-anchor="start" x="667.5" y="-184.2" font-family="Helvetica,sans-Serif" font-size="11.00">[table]</text>
<polygon fill="none" stroke="black" points="337.5,-154 337.5,-176 706.5,-176 706.5,-154 337.5,-154"/>
<image xlink:href="../../images/foreignKeys.png" width="11px" height="12px" preserveAspectRatio="xMinYMin meet" x="342.5" y="-171"/>
<text text-anchor="start" x="357.5" y="-162.2" font-family="Helvetica,sans-Serif" font-size="11.00">organization_id</text>
<polygon fill="none" stroke="black" points="337.5,-136 337.5,-154 706.5,-154 706.5,-136 337.5,-136"/>
<text text-anchor="start" x="340.5" y="-142.2" font-family="Helvetica,sans-Serif" font-size="11.00">...</text>
<polygon fill="#ffffff" stroke="none" points="337.5,-118 337.5,-136 505.5,-136 505.5,-118 337.5,-118"/>
<polygon fill="none" stroke="black" points="337.5,-118 337.5,-136 505.5,-136 505.5,-118 337.5,-118"/>
<text text-anchor="start" x="340.5" y="-124.2" font-family="Helvetica,sans-Serif" font-size="11.00">&lt; 1</text>
<polygon fill="#ffffff" stroke="none" points="505.5,-118 505.5,-136 620.5,-136 620.5,-118 505.5,-118"/>
<polygon fill="none" stroke="black" points="505.5,-118 505.5,-136 620.5,-136 620.5,-118 505.5,-118"/>
<text text-anchor="start" x="581.5" y="-124.2" font-family="Helvetica,sans-Serif" font-size="11.00">0 rows</text>
<polygon fill="#ffffff" stroke="none" points="620.5,-118 620.5,-136 706.5,-136 706.5,-118 620.5,-118"/>
<polygon fill="none" stroke="black" points="620.5,-118 620.5,-136 706.5,-136 706.5,-118 620.5,-118"/>
<text text-anchor="start" x="696.5" y="-124.2" font-family="Helvetica,sans-Serif" font-size="11.00"> &#160;</text>
</a>
</g>
</g>
<!-- tracking.planting_sites&#45;&gt;organizations -->
<g id="edge4" class="edge"><title>tracking.planting_sites:organization_id:w&#45;&gt;organizations:id.type:e</title>
<path fill="none" stroke="black" d="M322.218,-168.549C290.144,-188.716 339.943,-288 287,-288"/>
<polygon fill="black" stroke="black" points="328.736,-166.929 337.368,-168.494 332.618,-165.965 336.5,-165 336.5,-165 336.5,-165 332.618,-165.965 335.632,-161.506 328.736,-166.929 328.736,-166.929"/>
<ellipse fill="none" stroke="black" cx="325.63" cy="-167.701" rx="3.2" ry="3.2"/>
</g>
</g>
</svg>
