<?xml version="1.0" encoding="UTF-8" standalone="no"?>
<!DOCTYPE svg PUBLIC "-//W3C//DTD SVG 1.1//EN"
 "http://www.w3.org/Graphics/SVG/1.1/DTD/svg11.dtd">
<!-- Generated by graphviz version 2.38.0 (20140413.2041)
 -->
<!-- Title: oneDegreeRelationshipsDiagram Pages: 1 -->
<svg width="866pt" height="459pt"
 viewBox="0.00 0.00 866.00 459.00" xmlns="http://www.w3.org/2000/svg" xmlns:xlink="http://www.w3.org/1999/xlink">
<g id="graph0" class="graph" transform="scale(1 1) rotate(0) translate(4 455)">
<title>oneDegreeRelationshipsDiagram</title>
<polygon fill="#ffffff" stroke="none" points="-4,4 -4,-455 862,-455 862,4 -4,4"/>
<text text-anchor="middle" x="74.5" y="-7.2" font-family="Helvetica,sans-Serif" font-size="11.00">Generated by SchemaSpy</text>
<!-- accessions -->
<g id="node1" class="node"><title>accessions</title>
<g id="a_node1"><a xlink:href="../../tables/accessions.html" xlink:title="accessions" target="_top">
<polygon fill="#ffffff" stroke="none" points="622,-37 622,-447 850,-447 850,-37 622,-37"/>
<polygon fill="#f5f5f5" stroke="none" points="622,-425 622,-447 850,-447 850,-425 622,-425"/>
<polygon fill="none" stroke="black" points="622,-425 622,-447 850,-447 850,-425 622,-425"/>
<text text-anchor="start" x="627" y="-434.2" font-family="Helvetica,sans-Serif" font-weight="bold" font-size="11.00">accessions</text>
<text text-anchor="start" x="811" y="-433.2" font-family="Helvetica,sans-Serif" font-size="11.00">[table]</text>
<polygon fill="none" stroke="black" points="622,-403 622,-425 850,-425 850,-403 622,-403"/>
<image xlink:href="../../images/primaryKeys.png" width="11px" height="12px" preserveAspectRatio="xMinYMin meet" x="627" y="-420"/>
<text text-anchor="start" x="642" y="-411.2" font-family="Helvetica,sans-Serif" font-size="11.00">id</text>
<polygon fill="none" stroke="black" points="622,-381 622,-403 850,-403 850,-381 622,-381"/>
<image xlink:href="../../images/foreignKeys.png" width="11px" height="12px" preserveAspectRatio="xMinYMin meet" x="627" y="-398"/>
<text text-anchor="start" x="642" y="-389.2" font-family="Helvetica,sans-Serif" font-size="11.00">facility_id</text>
<polygon fill="none" stroke="black" points="622,-359 622,-381 850,-381 850,-359 622,-359"/>
<image xlink:href="../../images/foreignKeys.png" width="11px" height="12px" preserveAspectRatio="xMinYMin meet" x="627" y="-376"/>
<text text-anchor="start" x="642" y="-367.2" font-family="Helvetica,sans-Serif" font-size="11.00">app_device_id</text>
<polygon fill="#ffffff" stroke="none" points="622,-337 622,-359 850,-359 850,-337 622,-337"/>
<polygon fill="none" stroke="black" points="622,-337 622,-359 850,-359 850,-337 622,-337"/>
<text text-anchor="start" x="642" y="-345.2" font-family="Helvetica,sans-Serif" font-size="11.00">number</text>
<polygon fill="none" stroke="black" points="622,-315 622,-337 850,-337 850,-315 622,-315"/>
<image xlink:href="../../images/foreignKeys.png" width="11px" height="12px" preserveAspectRatio="xMinYMin meet" x="627" y="-332"/>
<text text-anchor="start" x="642" y="-323.2" font-family="Helvetica,sans-Serif" font-size="11.00">species_id</text>
<polygon fill="#ffffff" stroke="none" points="622,-293 622,-315 850,-315 850,-293 622,-293"/>
<polygon fill="none" stroke="black" points="622,-293 622,-315 850,-315 850,-293 622,-293"/>
<text text-anchor="start" x="642" y="-301.2" font-family="Helvetica,sans-Serif" font-size="11.00">received_date</text>
<polygon fill="none" stroke="black" points="622,-271 622,-293 850,-293 850,-271 622,-271"/>
<image xlink:href="../../images/foreignKeys.png" width="11px" height="12px" preserveAspectRatio="xMinYMin meet" x="627" y="-288"/>
<text text-anchor="start" x="642" y="-279.2" font-family="Helvetica,sans-Serif" font-size="11.00">state_id</text>
<polygon fill="none" stroke="black" points="622,-249 622,-271 850,-271 850,-249 622,-249"/>
<image xlink:href="../../images/foreignKeys.png" width="11px" height="12px" preserveAspectRatio="xMinYMin meet" x="627" y="-266"/>
<text text-anchor="start" x="642" y="-257.2" font-family="Helvetica,sans-Serif" font-size="11.00">primary_collector_id</text>
<polygon fill="none" stroke="black" points="622,-227 622,-249 850,-249 850,-227 622,-227"/>
<image xlink:href="../../images/foreignKeys.png" width="11px" height="12px" preserveAspectRatio="xMinYMin meet" x="627" y="-244"/>
<text text-anchor="start" x="642" y="-235.2" font-family="Helvetica,sans-Serif" font-size="11.00">storage_location_id</text>
<polygon fill="#ffffff" stroke="none" points="622,-205 622,-227 850,-227 850,-205 622,-205"/>
<polygon fill="none" stroke="black" points="622,-205 622,-227 850,-227 850,-205 622,-205"/>
<text text-anchor="start" x="642" y="-213.2" font-family="Helvetica,sans-Serif" font-size="11.00">created_time</text>
<polygon fill="none" stroke="black" points="622,-183 622,-205 850,-205 850,-183 622,-183"/>
<image xlink:href="../../images/foreignKeys.png" width="11px" height="12px" preserveAspectRatio="xMinYMin meet" x="627" y="-200"/>
<text text-anchor="start" x="642" y="-191.2" font-family="Helvetica,sans-Serif" font-size="11.00">processing_method_id</text>
<polygon fill="none" stroke="black" points="622,-161 622,-183 850,-183 850,-161 622,-161"/>
<image xlink:href="../../images/foreignKeys.png" width="11px" height="12px" preserveAspectRatio="xMinYMin meet" x="627" y="-178"/>
<text text-anchor="start" x="642" y="-169.2" font-family="Helvetica,sans-Serif" font-size="11.00">target_storage_condition</text>
<polygon fill="none" stroke="black" points="622,-139 622,-161 850,-161 850,-139 622,-139"/>
<image xlink:href="../../images/foreignKeys.png" width="11px" height="12px" preserveAspectRatio="xMinYMin meet" x="627" y="-156"/>
<text text-anchor="start" x="642" y="-147.2" font-family="Helvetica,sans-Serif" font-size="11.00">source_plant_origin_id</text>
<polygon fill="none" stroke="black" points="622,-117 622,-139 850,-139 850,-117 622,-117"/>
<image xlink:href="../../images/foreignKeys.png" width="11px" height="12px" preserveAspectRatio="xMinYMin meet" x="627" y="-134"/>
<text text-anchor="start" x="642" y="-125.2" font-family="Helvetica,sans-Serif" font-size="11.00">remaining_units_id</text>
<polygon fill="none" stroke="black" points="622,-95 622,-117 850,-117 850,-95 622,-95"/>
<image xlink:href="../../images/foreignKeys.png" width="11px" height="12px" preserveAspectRatio="xMinYMin meet" x="627" y="-112"/>
<text text-anchor="start" x="642" y="-103.2" font-family="Helvetica,sans-Serif" font-size="11.00">subset_weight_units_id</text>
<polygon fill="none" stroke="black" points="622,-73 622,-95 850,-95 850,-73 622,-73"/>
<image xlink:href="../../images/foreignKeys.png" width="11px" height="12px" preserveAspectRatio="xMinYMin meet" x="627" y="-90"/>
<text text-anchor="start" x="642" y="-81.2" font-family="Helvetica,sans-Serif" font-size="11.00">total_units_id</text>
<polygon fill="none" stroke="black" points="622,-55 622,-73 850,-73 850,-55 622,-55"/>
<text text-anchor="start" x="625" y="-61.2" font-family="Helvetica,sans-Serif" font-size="11.00">...</text>
<polygon fill="#ffffff" stroke="none" points="622,-37 622,-55 718,-55 718,-37 622,-37"/>
<polygon fill="none" stroke="black" points="622,-37 622,-55 718,-55 718,-37 622,-37"/>
<text text-anchor="start" x="625" y="-43.2" font-family="Helvetica,sans-Serif" font-size="11.00">&lt; 12</text>
<polygon fill="#ffffff" stroke="none" points="718,-37 718,-55 793,-55 793,-37 718,-37"/>
<polygon fill="none" stroke="black" points="718,-37 718,-55 793,-55 793,-37 718,-37"/>
<text text-anchor="start" x="754" y="-43.2" font-family="Helvetica,sans-Serif" font-size="11.00">0 rows</text>
<polygon fill="#ffffff" stroke="none" points="793,-37 793,-55 850,-55 850,-37 793,-37"/>
<polygon fill="none" stroke="black" points="793,-37 793,-55 850,-55 850,-37 793,-37"/>
<text text-anchor="start" x="830" y="-43.2" font-family="Helvetica,sans-Serif" font-size="11.00">9 &gt;</text>
</a>
</g>
</g>
<!-- facilities -->
<g id="node2" class="node"><title>facilities</title>
<g id="a_node2"><a xlink:href="../../tables/facilities.html" xlink:title="facilities" target="_top">
<polygon fill="#ffffff" stroke="none" points="164,-106 164,-348 377,-348 377,-106 164,-106"/>
<polygon fill="#f5f5f5" stroke="none" points="166.5,-324 166.5,-346 375.5,-346 375.5,-324 166.5,-324"/>
<polygon fill="none" stroke="black" points="166.5,-324 166.5,-346 375.5,-346 375.5,-324 166.5,-324"/>
<text text-anchor="start" x="171.5" y="-333.2" font-family="Helvetica,sans-Serif" font-weight="bold" font-size="11.00">facilities</text>
<text text-anchor="start" x="336.5" y="-332.2" font-family="Helvetica,sans-Serif" font-size="11.00">[table]</text>
<polygon fill="none" stroke="black" points="166.5,-302 166.5,-324 273.5,-324 273.5,-302 166.5,-302"/>
<image xlink:href="../../images/primaryKeys.png" width="11px" height="12px" preserveAspectRatio="xMinYMin meet" x="171.5" y="-319"/>
<text text-anchor="start" x="186.5" y="-310.2" font-family="Helvetica,sans-Serif" font-size="11.00">id</text>
<polygon fill="none" stroke="black" points="273.5,-302 273.5,-324 375.5,-324 375.5,-302 273.5,-302"/>
<text text-anchor="start" x="276.5" y="-310.2" font-family="Helvetica,sans-Serif" font-size="11.00">int8[19]</text>
<polygon fill="none" stroke="black" points="166.5,-280 166.5,-302 273.5,-302 273.5,-280 166.5,-280"/>
<image xlink:href="../../images/foreignKeys.png" width="11px" height="12px" preserveAspectRatio="xMinYMin meet" x="171.5" y="-297"/>
<text text-anchor="start" x="186.5" y="-288.2" font-family="Helvetica,sans-Serif" font-size="11.00">site_id</text>
<polygon fill="none" stroke="black" points="273.5,-280 273.5,-302 375.5,-302 375.5,-280 273.5,-280"/>
<text text-anchor="start" x="276.5" y="-288.2" font-family="Helvetica,sans-Serif" font-size="11.00">int8[19]</text>
<polygon fill="none" stroke="black" points="166.5,-258 166.5,-280 273.5,-280 273.5,-258 166.5,-258"/>
<text text-anchor="start" x="186.5" y="-266.2" font-family="Helvetica,sans-Serif" font-size="11.00">type_id</text>
<polygon fill="none" stroke="black" points="273.5,-258 273.5,-280 375.5,-280 375.5,-258 273.5,-258"/>
<text text-anchor="start" x="276.5" y="-266.2" font-family="Helvetica,sans-Serif" font-size="11.00">int4[10]</text>
<polygon fill="none" stroke="black" points="166.5,-236 166.5,-258 273.5,-258 273.5,-236 166.5,-236"/>
<text text-anchor="start" x="186.5" y="-244.2" font-family="Helvetica,sans-Serif" font-size="11.00">name</text>
<polygon fill="none" stroke="black" points="273.5,-236 273.5,-258 375.5,-258 375.5,-236 273.5,-236"/>
<text text-anchor="start" x="276.5" y="-244.2" font-family="Helvetica,sans-Serif" font-size="11.00">text[2147483647]</text>
<polygon fill="none" stroke="black" points="166.5,-214 166.5,-236 273.5,-236 273.5,-214 166.5,-214"/>
<text text-anchor="start" x="186.5" y="-222.2" font-family="Helvetica,sans-Serif" font-size="11.00">latitude</text>
<polygon fill="none" stroke="black" points="273.5,-214 273.5,-236 375.5,-236 375.5,-214 273.5,-214"/>
<text text-anchor="start" x="276.5" y="-222.2" font-family="Helvetica,sans-Serif" font-size="11.00">numeric[10,7]</text>
<polygon fill="none" stroke="black" points="166.5,-192 166.5,-214 273.5,-214 273.5,-192 166.5,-192"/>
<text text-anchor="start" x="186.5" y="-200.2" font-family="Helvetica,sans-Serif" font-size="11.00">longitude</text>
<polygon fill="none" stroke="black" points="273.5,-192 273.5,-214 375.5,-214 375.5,-192 273.5,-192"/>
<text text-anchor="start" x="276.5" y="-200.2" font-family="Helvetica,sans-Serif" font-size="11.00">numeric[10,7]</text>
<polygon fill="none" stroke="black" points="166.5,-170 166.5,-192 273.5,-192 273.5,-170 166.5,-170"/>
<text text-anchor="start" x="186.5" y="-178.2" font-family="Helvetica,sans-Serif" font-size="11.00">enabled</text>
<polygon fill="none" stroke="black" points="273.5,-170 273.5,-192 375.5,-192 375.5,-170 273.5,-170"/>
<text text-anchor="start" x="276.5" y="-178.2" font-family="Helvetica,sans-Serif" font-size="11.00">bool[1]</text>
<polygon fill="none" stroke="black" points="166.5,-148 166.5,-170 273.5,-170 273.5,-148 166.5,-148"/>
<text text-anchor="start" x="186.5" y="-156.2" font-family="Helvetica,sans-Serif" font-size="11.00">created_time</text>
<polygon fill="none" stroke="black" points="273.5,-148 273.5,-170 375.5,-170 375.5,-148 273.5,-148"/>
<text text-anchor="start" x="276.5" y="-156.2" font-family="Helvetica,sans-Serif" font-size="11.00">timestamptz[35,6]</text>
<polygon fill="none" stroke="black" points="166.5,-126 166.5,-148 273.5,-148 273.5,-126 166.5,-126"/>
<text text-anchor="start" x="186.5" y="-134.2" font-family="Helvetica,sans-Serif" font-size="11.00">modified_time</text>
<polygon fill="none" stroke="black" points="273.5,-126 273.5,-148 375.5,-148 375.5,-126 273.5,-126"/>
<text text-anchor="start" x="276.5" y="-134.2" font-family="Helvetica,sans-Serif" font-size="11.00">timestamptz[35,6]</text>
<polygon fill="#ffffff" stroke="none" points="166.5,-108 166.5,-126 210.5,-126 210.5,-108 166.5,-108"/>
<polygon fill="none" stroke="black" points="166.5,-108 166.5,-126 210.5,-126 210.5,-108 166.5,-108"/>
<text text-anchor="start" x="169.5" y="-114.2" font-family="Helvetica,sans-Serif" font-size="11.00">&lt; 1</text>
<polygon fill="#ffffff" stroke="none" points="210.5,-108 210.5,-126 273.5,-126 273.5,-108 210.5,-108"/>
<polygon fill="none" stroke="black" points="210.5,-108 210.5,-126 273.5,-126 273.5,-108 210.5,-108"/>
<text text-anchor="start" x="234.5" y="-114.2" font-family="Helvetica,sans-Serif" font-size="11.00">0 rows</text>
<polygon fill="#ffffff" stroke="none" points="273.5,-108 273.5,-126 375.5,-126 375.5,-108 273.5,-108"/>
<polygon fill="none" stroke="black" points="273.5,-108 273.5,-126 375.5,-126 375.5,-108 273.5,-108"/>
<text text-anchor="start" x="355.5" y="-114.2" font-family="Helvetica,sans-Serif" font-size="11.00">3 &gt;</text>
<polygon fill="none" stroke="black" stroke-width="2" points="165,-107 165,-347 376,-347 376,-107 165,-107"/>
</a>
</g>
</g>
<!-- accessions&#45;&gt;facilities -->
<g id="edge1" class="edge"><title>accessions:facility_id:w&#45;&gt;facilities:id.type:e</title>
<path fill="none" stroke="black" d="M606.154,-392.299C526.502,-395.509 491.294,-422.608 418,-379 388.222,-361.283 411.15,-313 376.5,-313"/>
<polygon fill="black" stroke="black" points="613.002,-392.161 621.073,-395.599 617.001,-392.081 621,-392 621,-392 621,-392 617.001,-392.081 620.927,-388.401 613.002,-392.161 613.002,-392.161"/>
<ellipse fill="none" stroke="black" cx="609.802" cy="-392.226" rx="3.2" ry="3.2"/>
</g>
<!-- collectors -->
<g id="node3" class="node"><title>collectors</title>
<g id="a_node3"><a xlink:href="../../tables/collectors.html" xlink:title="collectors" target="_top">
<polygon fill="#ffffff" stroke="none" points="447.5,-266 447.5,-368 551.5,-368 551.5,-266 447.5,-266"/>
<polygon fill="#f5f5f5" stroke="none" points="447.5,-346 447.5,-368 551.5,-368 551.5,-346 447.5,-346"/>
<polygon fill="none" stroke="black" points="447.5,-346 447.5,-368 551.5,-368 551.5,-346 447.5,-346"/>
<text text-anchor="start" x="452.5" y="-355.2" font-family="Helvetica,sans-Serif" font-weight="bold" font-size="11.00">collectors</text>
<text text-anchor="start" x="512.5" y="-354.2" font-family="Helvetica,sans-Serif" font-size="11.00">[table]</text>
<polygon fill="none" stroke="black" points="447.5,-324 447.5,-346 551.5,-346 551.5,-324 447.5,-324"/>
<image xlink:href="../../images/primaryKeys.png" width="11px" height="12px" preserveAspectRatio="xMinYMin meet" x="452.5" y="-341"/>
<text text-anchor="start" x="480.5" y="-332.2" font-family="Helvetica,sans-Serif" font-size="11.00">id</text>
<polygon fill="none" stroke="black" points="447.5,-302 447.5,-324 551.5,-324 551.5,-302 447.5,-302"/>
<image xlink:href="../../images/foreignKeys.png" width="11px" height="12px" preserveAspectRatio="xMinYMin meet" x="452.5" y="-319"/>
<text text-anchor="start" x="480.5" y="-310.2" font-family="Helvetica,sans-Serif" font-size="11.00">facility_id</text>
<polygon fill="none" stroke="black" points="447.5,-284 447.5,-302 551.5,-302 551.5,-284 447.5,-284"/>
<text text-anchor="start" x="450.5" y="-290.2" font-family="Helvetica,sans-Serif" font-size="11.00">...</text>
<polygon fill="#ffffff" stroke="none" points="447.5,-266 447.5,-284 478.5,-284 478.5,-266 447.5,-266"/>
<polygon fill="none" stroke="black" points="447.5,-266 447.5,-284 478.5,-284 478.5,-266 447.5,-266"/>
<text text-anchor="start" x="450.5" y="-272.2" font-family="Helvetica,sans-Serif" font-size="11.00">&lt; 1</text>
<polygon fill="#ffffff" stroke="none" points="478.5,-266 478.5,-284 524.5,-284 524.5,-266 478.5,-266"/>
<polygon fill="none" stroke="black" points="478.5,-266 478.5,-284 524.5,-284 524.5,-266 478.5,-266"/>
<text text-anchor="start" x="485.5" y="-272.2" font-family="Helvetica,sans-Serif" font-size="11.00">0 rows</text>
<polygon fill="#ffffff" stroke="none" points="524.5,-266 524.5,-284 551.5,-284 551.5,-266 524.5,-266"/>
<polygon fill="none" stroke="black" points="524.5,-266 524.5,-284 551.5,-284 551.5,-266 524.5,-266"/>
<text text-anchor="start" x="531.5" y="-272.2" font-family="Helvetica,sans-Serif" font-size="11.00">2 &gt;</text>
</a>
</g>
</g>
<!-- accessions&#45;&gt;collectors -->
<g id="edge2" class="edge"><title>accessions:primary_collector_id:w&#45;&gt;collectors:id:e</title>
<path fill="none" stroke="black" d="M606.947,-263.223C580.257,-277.578 592.001,-335 552.5,-335"/>
<polygon fill="black" stroke="black" points="613.202,-261.788 621.805,-263.509 617.101,-260.894 621,-260 621,-260 621,-260 617.101,-260.894 620.195,-256.491 613.202,-261.788 613.202,-261.788"/>
<ellipse fill="none" stroke="black" cx="610.083" cy="-262.503" rx="3.2" ry="3.2"/>
</g>
<!-- storage_locations -->
<g id="node4" class="node"><title>storage_locations</title>
<g id="a_node4"><a xlink:href="../../tables/storage_locations.html" xlink:title="storage_locations" target="_top">
<polygon fill="#ffffff" stroke="none" points="426,-121 426,-245 573,-245 573,-121 426,-121"/>
<polygon fill="#f5f5f5" stroke="none" points="426.5,-223 426.5,-245 573.5,-245 573.5,-223 426.5,-223"/>
<polygon fill="none" stroke="black" points="426.5,-223 426.5,-245 573.5,-245 573.5,-223 426.5,-223"/>
<text text-anchor="start" x="431.5" y="-232.2" font-family="Helvetica,sans-Serif" font-weight="bold" font-size="11.00">storage_locations</text>
<text text-anchor="start" x="534.5" y="-231.2" font-family="Helvetica,sans-Serif" font-size="11.00">[table]</text>
<polygon fill="none" stroke="black" points="426.5,-201 426.5,-223 573.5,-223 573.5,-201 426.5,-201"/>
<image xlink:href="../../images/primaryKeys.png" width="11px" height="12px" preserveAspectRatio="xMinYMin meet" x="431.5" y="-218"/>
<text text-anchor="start" x="457.5" y="-209.2" font-family="Helvetica,sans-Serif" font-size="11.00">id</text>
<polygon fill="none" stroke="black" points="426.5,-179 426.5,-201 573.5,-201 573.5,-179 426.5,-179"/>
<image xlink:href="../../images/foreignKeys.png" width="11px" height="12px" preserveAspectRatio="xMinYMin meet" x="431.5" y="-196"/>
<text text-anchor="start" x="457.5" y="-187.2" font-family="Helvetica,sans-Serif" font-size="11.00">facility_id</text>
<polygon fill="none" stroke="black" points="426.5,-157 426.5,-179 573.5,-179 573.5,-157 426.5,-157"/>
<image xlink:href="../../images/foreignKeys.png" width="11px" height="12px" preserveAspectRatio="xMinYMin meet" x="431.5" y="-174"/>
<text text-anchor="start" x="457.5" y="-165.2" font-family="Helvetica,sans-Serif" font-size="11.00">condition_id</text>
<polygon fill="none" stroke="black" points="426.5,-139 426.5,-157 573.5,-157 573.5,-139 426.5,-139"/>
<text text-anchor="start" x="429.5" y="-145.2" font-family="Helvetica,sans-Serif" font-size="11.00">...</text>
<polygon fill="#ffffff" stroke="none" points="426.5,-121 426.5,-139 478.5,-139 478.5,-121 426.5,-121"/>
<polygon fill="none" stroke="black" points="426.5,-121 426.5,-139 478.5,-139 478.5,-121 426.5,-121"/>
<text text-anchor="start" x="429.5" y="-127.2" font-family="Helvetica,sans-Serif" font-size="11.00">&lt; 2</text>
<polygon fill="#ffffff" stroke="none" points="478.5,-121 478.5,-139 535.5,-139 535.5,-121 478.5,-121"/>
<polygon fill="none" stroke="black" points="478.5,-121 478.5,-139 535.5,-139 535.5,-121 478.5,-121"/>
<text text-anchor="start" x="496.5" y="-127.2" font-family="Helvetica,sans-Serif" font-size="11.00">0 rows</text>
<polygon fill="#ffffff" stroke="none" points="535.5,-121 535.5,-139 573.5,-139 573.5,-121 535.5,-121"/>
<polygon fill="none" stroke="black" points="535.5,-121 535.5,-139 573.5,-139 573.5,-121 535.5,-121"/>
<text text-anchor="start" x="553.5" y="-127.2" font-family="Helvetica,sans-Serif" font-size="11.00">1 &gt;</text>
</a>
</g>
</g>
<!-- accessions&#45;&gt;storage_locations -->
<g id="edge3" class="edge"><title>accessions:storage_location_id:w&#45;&gt;storage_locations:id:e</title>
<path fill="none" stroke="black" d="M607.075,-233.938C596.217,-226.625 592.258,-212 574.5,-212"/>
<polygon fill="black" stroke="black" points="613.32,-235.759 619.992,-241.456 617.16,-236.88 621,-238 621,-238 621,-238 617.16,-236.88 622.008,-234.544 613.32,-235.759 613.32,-235.759"/>
<ellipse fill="none" stroke="black" cx="610.248" cy="-234.863" rx="3.20001" ry="3.20001"/>
</g>
<!-- sites -->
<g id="node5" class="node"><title>sites</title>
<g id="a_node5"><a xlink:href="../../tables/sites.html" xlink:title="sites" target="_top">
<polygon fill="#ffffff" stroke="none" points="8,-222 8,-324 115,-324 115,-222 8,-222"/>
<polygon fill="#f5f5f5" stroke="none" points="8.5,-302 8.5,-324 115.5,-324 115.5,-302 8.5,-302"/>
<polygon fill="none" stroke="black" points="8.5,-302 8.5,-324 115.5,-324 115.5,-302 8.5,-302"/>
<text text-anchor="start" x="13.5" y="-311.2" font-family="Helvetica,sans-Serif" font-weight="bold" font-size="11.00">sites</text>
<text text-anchor="start" x="76.5" y="-310.2" font-family="Helvetica,sans-Serif" font-size="11.00">[table]</text>
<polygon fill="none" stroke="black" points="8.5,-280 8.5,-302 115.5,-302 115.5,-280 8.5,-280"/>
<image xlink:href="../../images/primaryKeys.png" width="11px" height="12px" preserveAspectRatio="xMinYMin meet" x="13.5" y="-297"/>
<text text-anchor="start" x="28.5" y="-288.2" font-family="Helvetica,sans-Serif" font-size="11.00">id</text>
<polygon fill="none" stroke="black" points="8.5,-258 8.5,-280 115.5,-280 115.5,-258 8.5,-258"/>
<image xlink:href="../../images/foreignKeys.png" width="11px" height="12px" preserveAspectRatio="xMinYMin meet" x="13.5" y="-275"/>
<text text-anchor="start" x="28.5" y="-266.2" font-family="Helvetica,sans-Serif" font-size="11.00">project_id</text>
<polygon fill="none" stroke="black" points="8.5,-240 8.5,-258 115.5,-258 115.5,-240 8.5,-240"/>
<text text-anchor="start" x="11.5" y="-246.2" font-family="Helvetica,sans-Serif" font-size="11.00">...</text>
<polygon fill="#ffffff" stroke="none" points="8.5,-222 8.5,-240 40.5,-240 40.5,-222 8.5,-222"/>
<polygon fill="none" stroke="black" points="8.5,-222 8.5,-240 40.5,-240 40.5,-222 8.5,-222"/>
<text text-anchor="start" x="11.5" y="-228.2" font-family="Helvetica,sans-Serif" font-size="11.00">&lt; 1</text>
<polygon fill="#ffffff" stroke="none" points="40.5,-222 40.5,-240 87.5,-240 87.5,-222 40.5,-222"/>
<polygon fill="none" stroke="black" points="40.5,-222 40.5,-240 87.5,-240 87.5,-222 40.5,-222"/>
<text text-anchor="start" x="48.5" y="-228.2" font-family="Helvetica,sans-Serif" font-size="11.00">0 rows</text>
<polygon fill="#ffffff" stroke="none" points="87.5,-222 87.5,-240 115.5,-240 115.5,-222 87.5,-222"/>
<polygon fill="none" stroke="black" points="87.5,-222 87.5,-240 115.5,-240 115.5,-222 87.5,-222"/>
<text text-anchor="start" x="95.5" y="-228.2" font-family="Helvetica,sans-Serif" font-size="11.00">2 &gt;</text>
</a>
</g>
</g>
<!-- facilities&#45;&gt;sites -->
<g id="edge5" class="edge"><title>facilities:site_id:w&#45;&gt;sites:id:e</title>
<path fill="none" stroke="black" d="M150.991,-291C139.677,-291 132.493,-291 116.5,-291"/>
<polygon fill="black" stroke="black" points="157.5,-291 165.5,-294.6 161.5,-291 165.5,-291 165.5,-291 165.5,-291 161.5,-291 165.5,-287.4 157.5,-291 157.5,-291"/>
<ellipse fill="none" stroke="black" cx="154.3" cy="-291" rx="3.2" ry="3.2"/>
</g>
<!-- collectors&#45;&gt;facilities -->
<g id="edge4" class="edge"><title>collectors:facility_id:w&#45;&gt;facilities:id.type:e</title>
<path fill="none" stroke="black" d="M432.003,-313C411.934,-313 402.142,-313 376.5,-313"/>
<polygon fill="black" stroke="black" points="438.5,-313 446.5,-316.6 442.5,-313 446.5,-313 446.5,-313 446.5,-313 442.5,-313 446.5,-309.4 438.5,-313 438.5,-313"/>
<ellipse fill="none" stroke="black" cx="435.3" cy="-313" rx="3.2" ry="3.2"/>
</g>
<!-- storage_locations&#45;&gt;facilities -->
<g id="edge6" class="edge"><title>storage_locations:facility_id:w&#45;&gt;facilities:id.type:e</title>
<path fill="none" stroke="black" d="M411.25,-193.549C379.292,-213.716 429.368,-313 376.5,-313"/>
<polygon fill="black" stroke="black" points="417.737,-191.933 426.37,-193.493 421.619,-190.967 425.5,-190 425.5,-190 425.5,-190 421.619,-190.967 424.63,-186.507 417.737,-191.933 417.737,-191.933"/>
<ellipse fill="none" stroke="black" cx="414.632" cy="-192.706" rx="3.2" ry="3.2"/>
</g>
</g>
</svg>
