<?xml version="1.0" encoding="UTF-8" standalone="no"?>
<!DOCTYPE svg PUBLIC "-//W3C//DTD SVG 1.1//EN"
 "http://www.w3.org/Graphics/SVG/1.1/DTD/svg11.dtd">
<!-- Generated by graphviz version 2.38.0 (20140413.2041)
 -->
<!-- Title: twoDegreesRelationshipsDiagram Pages: 1 -->
<svg width="612pt" height="295pt"
 viewBox="0.00 0.00 612.00 295.00" xmlns="http://www.w3.org/2000/svg" xmlns:xlink="http://www.w3.org/1999/xlink">
<g id="graph0" class="graph" transform="scale(1 1) rotate(0) translate(4 291)">
<title>twoDegreesRelationshipsDiagram</title>
<polygon fill="#ffffff" stroke="none" points="-4,4 -4,-291 608,-291 608,4 -4,4"/>
<text text-anchor="middle" x="74.5" y="-7.2" font-family="Helvetica,sans-Serif" font-size="11.00">Generated by SchemaSpy</text>
<!-- accessions -->
<g id="node1" class="node"><title>accessions</title>
<g id="a_node1"><a xlink:href="../../tables/accessions.html" xlink:title="accessions" target="_top">
<polygon fill="#ffffff" stroke="none" points="488,-208 488,-266 596,-266 596,-208 488,-208"/>
<polygon fill="#f5f5f5" stroke="none" points="488,-244 488,-266 596,-266 596,-244 488,-244"/>
<polygon fill="none" stroke="black" points="488,-244 488,-266 596,-266 596,-244 488,-244"/>
<text text-anchor="start" x="493" y="-253.2" font-family="Helvetica,sans-Serif" font-weight="bold" font-size="11.00">accessions</text>
<text text-anchor="start" x="557" y="-252.2" font-family="Helvetica,sans-Serif" font-size="11.00">[table]</text>
<polygon fill="none" stroke="black" points="488,-226 488,-244 596,-244 596,-226 488,-226"/>
<text text-anchor="start" x="491" y="-232.2" font-family="Helvetica,sans-Serif" font-size="11.00">...</text>
<polygon fill="#ffffff" stroke="none" points="488,-208 488,-226 524,-226 524,-208 488,-208"/>
<polygon fill="none" stroke="black" points="488,-208 488,-226 524,-226 524,-208 488,-208"/>
<text text-anchor="start" x="491" y="-214.2" font-family="Helvetica,sans-Serif" font-size="11.00">&lt; 14</text>
<polygon fill="#ffffff" stroke="none" points="524,-208 524,-226 569,-226 569,-208 524,-208"/>
<polygon fill="none" stroke="black" points="524,-208 524,-226 569,-226 569,-208 524,-208"/>
<text text-anchor="start" x="530" y="-214.2" font-family="Helvetica,sans-Serif" font-size="11.00">0 rows</text>
<polygon fill="#ffffff" stroke="none" points="569,-208 569,-226 596,-226 596,-208 569,-208"/>
<polygon fill="none" stroke="black" points="569,-208 569,-226 596,-226 596,-208 569,-208"/>
<text text-anchor="start" x="576" y="-214.2" font-family="Helvetica,sans-Serif" font-size="11.00">8 &gt;</text>
</a>
</g>
</g>
<!-- species -->
<g id="node2" class="node"><title>species</title>
<g id="a_node2"><a xlink:href="../../tables/species.html" xlink:title="species" target="_top">
<polygon fill="#ffffff" stroke="none" points="266,-78 266,-268 439,-268 439,-78 266,-78"/>
<polygon fill="#f5f5f5" stroke="none" points="266.5,-246 266.5,-268 439.5,-268 439.5,-246 266.5,-246"/>
<polygon fill="none" stroke="black" points="266.5,-246 266.5,-268 439.5,-268 439.5,-246 266.5,-246"/>
<text text-anchor="start" x="271.5" y="-255.2" font-family="Helvetica,sans-Serif" font-weight="bold" font-size="11.00">species</text>
<text text-anchor="start" x="400.5" y="-254.2" font-family="Helvetica,sans-Serif" font-size="11.00">[table]</text>
<polygon fill="none" stroke="black" points="266.5,-224 266.5,-246 439.5,-246 439.5,-224 266.5,-224"/>
<image xlink:href="../../images/primaryKeys.png" width="11px" height="12px" preserveAspectRatio="xMinYMin meet" x="271.5" y="-241"/>
<text text-anchor="start" x="286.5" y="-232.2" font-family="Helvetica,sans-Serif" font-size="11.00">id</text>
<polygon fill="#ffffff" stroke="none" points="266.5,-202 266.5,-224 439.5,-224 439.5,-202 266.5,-202"/>
<polygon fill="none" stroke="black" points="266.5,-202 266.5,-224 439.5,-224 439.5,-202 266.5,-202"/>
<image xlink:href="../../images/foreignKeys.png" width="11px" height="12px" preserveAspectRatio="xMinYMin meet" x="271.5" y="-219"/>
<text text-anchor="start" x="286.5" y="-210.2" font-family="Helvetica,sans-Serif" font-size="11.00">organization_id</text>
<polygon fill="#ffffff" stroke="none" points="266.5,-180 266.5,-202 439.5,-202 439.5,-180 266.5,-180"/>
<polygon fill="none" stroke="black" points="266.5,-180 266.5,-202 439.5,-202 439.5,-180 266.5,-180"/>
<text text-anchor="start" x="286.5" y="-188.2" font-family="Helvetica,sans-Serif" font-size="11.00">scientific_name</text>
<polygon fill="none" stroke="black" points="266.5,-158 266.5,-180 439.5,-180 439.5,-158 266.5,-158"/>
<image xlink:href="../../images/foreignKeys.png" width="11px" height="12px" preserveAspectRatio="xMinYMin meet" x="271.5" y="-175"/>
<text text-anchor="start" x="286.5" y="-166.2" font-family="Helvetica,sans-Serif" font-size="11.00">growth_form_id</text>
<polygon fill="none" stroke="black" points="266.5,-136 266.5,-158 439.5,-158 439.5,-136 266.5,-136"/>
<image xlink:href="../../images/foreignKeys.png" width="11px" height="12px" preserveAspectRatio="xMinYMin meet" x="271.5" y="-153"/>
<text text-anchor="start" x="286.5" y="-144.2" font-family="Helvetica,sans-Serif" font-size="11.00">seed_storage_behavior_id</text>
<polygon fill="#ffffff" stroke="none" points="266.5,-114 266.5,-136 439.5,-136 439.5,-114 266.5,-114"/>
<polygon fill="none" stroke="black" points="266.5,-114 266.5,-136 439.5,-136 439.5,-114 266.5,-114"/>
<text text-anchor="start" x="286.5" y="-122.2" font-family="Helvetica,sans-Serif" font-size="11.00">initial_scientific_name</text>
<polygon fill="none" stroke="black" points="266.5,-96 266.5,-114 439.5,-114 439.5,-96 266.5,-96"/>
<text text-anchor="start" x="269.5" y="-102.2" font-family="Helvetica,sans-Serif" font-size="11.00">...</text>
<polygon fill="#ffffff" stroke="none" points="266.5,-78 266.5,-96 331.5,-96 331.5,-78 266.5,-78"/>
<polygon fill="none" stroke="black" points="266.5,-78 266.5,-96 331.5,-96 331.5,-78 266.5,-78"/>
<text text-anchor="start" x="269.5" y="-84.2" font-family="Helvetica,sans-Serif" font-size="11.00">&lt; 3</text>
<polygon fill="#ffffff" stroke="none" points="331.5,-78 331.5,-96 394.5,-96 394.5,-78 331.5,-78"/>
<polygon fill="none" stroke="black" points="331.5,-78 331.5,-96 394.5,-96 394.5,-78 331.5,-78"/>
<text text-anchor="start" x="355.5" y="-84.2" font-family="Helvetica,sans-Serif" font-size="11.00">0 rows</text>
<polygon fill="#ffffff" stroke="none" points="394.5,-78 394.5,-96 439.5,-96 439.5,-78 394.5,-78"/>
<polygon fill="none" stroke="black" points="394.5,-78 394.5,-96 439.5,-96 439.5,-78 394.5,-78"/>
<text text-anchor="start" x="419.5" y="-84.2" font-family="Helvetica,sans-Serif" font-size="11.00">1 &gt;</text>
</a>
</g>
</g>
<!-- accessions&#45;&gt;species -->
<g id="edge1" class="edge"><title>accessions:elipses:w&#45;&gt;species:id:e</title>
<path fill="none" stroke="black" d="M472.551,-235C462.201,-235 455.354,-235 440.5,-235"/>
<polygon fill="black" stroke="black" points="479,-235 487,-238.6 483,-235 487,-235 487,-235 487,-235 483,-235 487,-231.4 479,-235 479,-235"/>
<ellipse fill="none" stroke="black" cx="475.8" cy="-235" rx="3.2" ry="3.2"/>
</g>
<!-- growth_forms -->
<g id="node3" class="node"><title>growth_forms</title>
<g id="a_node3"><a xlink:href="../../tables/growth_forms.html" xlink:title="growth_forms" target="_top">
<polygon fill="#ffffff" stroke="none" points="8,-116 8,-204 217,-204 217,-116 8,-116"/>
<polygon fill="#f5f5f5" stroke="none" points="10.5,-180 10.5,-202 215.5,-202 215.5,-180 10.5,-180"/>
<polygon fill="none" stroke="black" points="10.5,-180 10.5,-202 215.5,-202 215.5,-180 10.5,-180"/>
<text text-anchor="start" x="15.5" y="-189.2" font-family="Helvetica,sans-Serif" font-weight="bold" font-size="11.00">growth_forms</text>
<text text-anchor="start" x="176.5" y="-188.2" font-family="Helvetica,sans-Serif" font-size="11.00">[table]</text>
<polygon fill="none" stroke="black" points="10.5,-158 10.5,-180 114.5,-180 114.5,-158 10.5,-158"/>
<image xlink:href="../../images/primaryKeys.png" width="11px" height="12px" preserveAspectRatio="xMinYMin meet" x="15.5" y="-175"/>
<text text-anchor="start" x="30.5" y="-166.2" font-family="Helvetica,sans-Serif" font-size="11.00">id</text>
<polygon fill="none" stroke="black" points="114.5,-158 114.5,-180 215.5,-180 215.5,-158 114.5,-158"/>
<text text-anchor="start" x="117.5" y="-166.2" font-family="Helvetica,sans-Serif" font-size="11.00">int4[10]</text>
<polygon fill="none" stroke="black" points="10.5,-136 10.5,-158 114.5,-158 114.5,-136 10.5,-136"/>
<text text-anchor="start" x="30.5" y="-144.2" font-family="Helvetica,sans-Serif" font-size="11.00">name</text>
<polygon fill="none" stroke="black" points="114.5,-136 114.5,-158 215.5,-158 215.5,-136 114.5,-136"/>
<text text-anchor="start" x="117.5" y="-144.2" font-family="Helvetica,sans-Serif" font-size="11.00">text[2147483647]</text>
<polygon fill="#ffffff" stroke="none" points="10.5,-118 10.5,-136 52.5,-136 52.5,-118 10.5,-118"/>
<polygon fill="none" stroke="black" points="10.5,-118 10.5,-136 52.5,-136 52.5,-118 10.5,-118"/>
<text text-anchor="start" x="13.5" y="-124.2" font-family="Helvetica,sans-Serif" font-size="11.00">&lt; 0</text>
<polygon fill="#ffffff" stroke="none" points="52.5,-118 52.5,-136 114.5,-136 114.5,-118 52.5,-118"/>
<polygon fill="none" stroke="black" points="52.5,-118 52.5,-136 114.5,-136 114.5,-118 52.5,-118"/>
<text text-anchor="start" x="75.5" y="-124.2" font-family="Helvetica,sans-Serif" font-size="11.00">5 rows</text>
<polygon fill="#ffffff" stroke="none" points="114.5,-118 114.5,-136 215.5,-136 215.5,-118 114.5,-118"/>
<polygon fill="none" stroke="black" points="114.5,-118 114.5,-136 215.5,-136 215.5,-118 114.5,-118"/>
<text text-anchor="start" x="195.5" y="-124.2" font-family="Helvetica,sans-Serif" font-size="11.00">1 &gt;</text>
<polygon fill="none" stroke="black" stroke-width="2" points="9,-117 9,-203 216,-203 216,-117 9,-117"/>
</a>
</g>
</g>
<!-- species&#45;&gt;growth_forms -->
<g id="edge2" class="edge"><title>species:growth_form_id:w&#45;&gt;growth_forms:id.type:e</title>
<path fill="none" stroke="black" d="M250.991,-169C239.677,-169 232.493,-169 216.5,-169"/>
<polygon fill="black" stroke="black" points="257.5,-169 265.5,-172.6 261.5,-169 265.5,-169 265.5,-169 265.5,-169 261.5,-169 265.5,-165.4 257.5,-169 257.5,-169"/>
<ellipse fill="none" stroke="black" cx="254.3" cy="-169" rx="3.2" ry="3.2"/>
</g>
<!-- organizations -->
<g id="node4" class="node"><title>organizations</title>
<g id="a_node4"><a xlink:href="../../tables/organizations.html" xlink:title="organizations" target="_top">
<polygon fill="#ffffff" stroke="none" points="50,-225 50,-283 175,-283 175,-225 50,-225"/>
<polygon fill="#f5f5f5" stroke="none" points="50.5,-261 50.5,-283 175.5,-283 175.5,-261 50.5,-261"/>
<polygon fill="none" stroke="black" points="50.5,-261 50.5,-283 175.5,-283 175.5,-261 50.5,-261"/>
<text text-anchor="start" x="55.5" y="-270.2" font-family="Helvetica,sans-Serif" font-weight="bold" font-size="11.00">organizations</text>
<text text-anchor="start" x="136.5" y="-269.2" font-family="Helvetica,sans-Serif" font-size="11.00">[table]</text>
<polygon fill="none" stroke="black" points="50.5,-243 50.5,-261 175.5,-261 175.5,-243 50.5,-243"/>
<text text-anchor="start" x="53.5" y="-249.2" font-family="Helvetica,sans-Serif" font-size="11.00">...</text>
<polygon fill="#ffffff" stroke="none" points="50.5,-225 50.5,-243 86.5,-243 86.5,-225 50.5,-225"/>
<polygon fill="none" stroke="black" points="50.5,-225 50.5,-243 86.5,-243 86.5,-225 50.5,-225"/>
<text text-anchor="start" x="53.5" y="-231.2" font-family="Helvetica,sans-Serif" font-size="11.00"> &#160;</text>
<polygon fill="#ffffff" stroke="none" points="86.5,-225 86.5,-243 140.5,-243 140.5,-225 86.5,-225"/>
<polygon fill="none" stroke="black" points="86.5,-225 86.5,-243 140.5,-243 140.5,-225 86.5,-225"/>
<text text-anchor="start" x="101.5" y="-231.2" font-family="Helvetica,sans-Serif" font-size="11.00">0 rows</text>
<polygon fill="#ffffff" stroke="none" points="140.5,-225 140.5,-243 175.5,-243 175.5,-225 140.5,-225"/>
<polygon fill="none" stroke="black" points="140.5,-225 140.5,-243 175.5,-243 175.5,-225 140.5,-225"/>
<text text-anchor="start" x="155.5" y="-231.2" font-family="Helvetica,sans-Serif" font-size="11.00">2 &gt;</text>
</a>
</g>
</g>
<!-- species&#45;&gt;organizations -->
<g id="edge3" class="edge"><title>species:organization_id:w&#45;&gt;organizations:elipses:e</title>
<path fill="none" stroke="black" d="M251.048,-214.676C221.023,-222.141 214.288,-252 176.5,-252"/>
<polygon fill="black" stroke="black" points="257.553,-213.922 265.915,-216.576 261.527,-213.461 265.5,-213 265.5,-213 265.5,-213 261.527,-213.461 265.085,-209.424 257.553,-213.922 257.553,-213.922"/>
<ellipse fill="none" stroke="black" cx="254.375" cy="-214.29" rx="3.2" ry="3.2"/>
</g>
<!-- seed_storage_behaviors -->
<g id="node5" class="node"><title>seed_storage_behaviors</title>
<g id="a_node5"><a xlink:href="../../tables/seed_storage_behaviors.html" xlink:title="seed_storage_behaviors" target="_top">
<polygon fill="#ffffff" stroke="none" points="21.5,-37 21.5,-95 203.5,-95 203.5,-37 21.5,-37"/>
<polygon fill="#f5f5f5" stroke="none" points="21.5,-73 21.5,-95 203.5,-95 203.5,-73 21.5,-73"/>
<polygon fill="none" stroke="black" points="21.5,-73 21.5,-95 203.5,-95 203.5,-73 21.5,-73"/>
<text text-anchor="start" x="26.5" y="-82.2" font-family="Helvetica,sans-Serif" font-weight="bold" font-size="11.00">seed_storage_behaviors</text>
<text text-anchor="start" x="164.5" y="-81.2" font-family="Helvetica,sans-Serif" font-size="11.00">[table]</text>
<polygon fill="none" stroke="black" points="21.5,-55 21.5,-73 203.5,-73 203.5,-55 21.5,-55"/>
<text text-anchor="start" x="24.5" y="-61.2" font-family="Helvetica,sans-Serif" font-size="11.00">...</text>
<polygon fill="#ffffff" stroke="none" points="21.5,-37 21.5,-55 86.5,-55 86.5,-37 21.5,-37"/>
<polygon fill="none" stroke="black" points="21.5,-37 21.5,-55 86.5,-55 86.5,-37 21.5,-37"/>
<text text-anchor="start" x="24.5" y="-43.2" font-family="Helvetica,sans-Serif" font-size="11.00"> &#160;</text>
<polygon fill="#ffffff" stroke="none" points="86.5,-37 86.5,-55 154.5,-55 154.5,-37 86.5,-37"/>
<polygon fill="none" stroke="black" points="86.5,-37 86.5,-55 154.5,-55 154.5,-37 86.5,-37"/>
<text text-anchor="start" x="115.5" y="-43.2" font-family="Helvetica,sans-Serif" font-size="11.00">4 rows</text>
<polygon fill="#ffffff" stroke="none" points="154.5,-37 154.5,-55 203.5,-55 203.5,-37 154.5,-37"/>
<polygon fill="none" stroke="black" points="154.5,-37 154.5,-55 203.5,-55 203.5,-37 154.5,-37"/>
<text text-anchor="start" x="183.5" y="-43.2" font-family="Helvetica,sans-Serif" font-size="11.00">1 &gt;</text>
</a>
</g>
</g>
<!-- species&#45;&gt;seed_storage_behaviors -->
<g id="edge4" class="edge"><title>species:seed_storage_behavior_id:w&#45;&gt;seed_storage_behaviors:elipses:e</title>
<path fill="none" stroke="black" d="M251.275,-143.218C226.33,-126.981 244.379,-64 204.5,-64"/>
<polygon fill="black" stroke="black" points="257.769,-144.944 264.575,-150.479 261.634,-145.972 265.5,-147 265.5,-147 265.5,-147 261.634,-145.972 266.425,-143.521 257.769,-144.944 257.769,-144.944"/>
<ellipse fill="none" stroke="black" cx="254.676" cy="-144.122" rx="3.2" ry="3.2"/>
</g>
</g>
</svg>
