<?xml version="1.0" encoding="UTF-8" standalone="no"?>
<!DOCTYPE svg PUBLIC "-//W3C//DTD SVG 1.1//EN"
 "http://www.w3.org/Graphics/SVG/1.1/DTD/svg11.dtd">
<!-- Generated by graphviz version 2.38.0 (20140413.2041)
 -->
<!-- Title: twoDegreesRelationshipsDiagram Pages: 1 -->
<svg width="1230pt" height="423pt"
 viewBox="0.00 0.00 1230.00 423.00" xmlns="http://www.w3.org/2000/svg" xmlns:xlink="http://www.w3.org/1999/xlink">
<g id="graph0" class="graph" transform="scale(1 1) rotate(0) translate(4 419)">
<title>twoDegreesRelationshipsDiagram</title>
<polygon fill="#ffffff" stroke="none" points="-4,4 -4,-419 1226,-419 1226,4 -4,4"/>
<text text-anchor="middle" x="74.5" y="-7.2" font-family="Helvetica,sans-Serif" font-size="11.00">Generated by SchemaSpy</text>
<!-- accessions -->
<g id="node1" class="node"><title>accessions</title>
<g id="a_node1"><a xlink:href="../../tables/accessions.html" xlink:title="accessions" target="_top">
<polygon fill="#ffffff" stroke="none" points="1106,-304 1106,-362 1214,-362 1214,-304 1106,-304"/>
<polygon fill="#f5f5f5" stroke="none" points="1106,-340 1106,-362 1214,-362 1214,-340 1106,-340"/>
<polygon fill="none" stroke="black" points="1106,-340 1106,-362 1214,-362 1214,-340 1106,-340"/>
<text text-anchor="start" x="1111" y="-349.2" font-family="Helvetica,sans-Serif" font-weight="bold" font-size="11.00">accessions</text>
<text text-anchor="start" x="1175" y="-348.2" font-family="Helvetica,sans-Serif" font-size="11.00">[table]</text>
<polygon fill="none" stroke="black" points="1106,-322 1106,-340 1214,-340 1214,-322 1106,-322"/>
<text text-anchor="start" x="1109" y="-328.2" font-family="Helvetica,sans-Serif" font-size="11.00">...</text>
<polygon fill="#ffffff" stroke="none" points="1106,-304 1106,-322 1142,-322 1142,-304 1106,-304"/>
<polygon fill="none" stroke="black" points="1106,-304 1106,-322 1142,-322 1142,-304 1106,-304"/>
<text text-anchor="start" x="1109" y="-310.2" font-family="Helvetica,sans-Serif" font-size="11.00">&lt; 11</text>
<polygon fill="#ffffff" stroke="none" points="1142,-304 1142,-322 1187,-322 1187,-304 1142,-304"/>
<polygon fill="none" stroke="black" points="1142,-304 1142,-322 1187,-322 1187,-304 1142,-304"/>
<text text-anchor="start" x="1148" y="-310.2" font-family="Helvetica,sans-Serif" font-size="11.00">0 rows</text>
<polygon fill="#ffffff" stroke="none" points="1187,-304 1187,-322 1214,-322 1214,-304 1187,-304"/>
<polygon fill="none" stroke="black" points="1187,-304 1187,-322 1214,-322 1214,-304 1187,-304"/>
<text text-anchor="start" x="1194" y="-310.2" font-family="Helvetica,sans-Serif" font-size="11.00">8 &gt;</text>
</a>
</g>
</g>
<!-- facilities -->
<g id="node2" class="node"><title>facilities</title>
<g id="a_node2"><a xlink:href="../../tables/facilities.html" xlink:title="facilities" target="_top">
<polygon fill="#ffffff" stroke="none" points="672.5,-265 672.5,-411 815.5,-411 815.5,-265 672.5,-265"/>
<polygon fill="#f5f5f5" stroke="none" points="673,-389 673,-411 816,-411 816,-389 673,-389"/>
<polygon fill="none" stroke="black" points="673,-389 673,-411 816,-411 816,-389 673,-389"/>
<text text-anchor="start" x="678" y="-398.2" font-family="Helvetica,sans-Serif" font-weight="bold" font-size="11.00">facilities</text>
<text text-anchor="start" x="777" y="-397.2" font-family="Helvetica,sans-Serif" font-size="11.00">[table]</text>
<polygon fill="none" stroke="black" points="673,-367 673,-389 816,-389 816,-367 673,-367"/>
<image xlink:href="../../images/primaryKeys.png" width="11px" height="12px" preserveAspectRatio="xMinYMin meet" x="678" y="-384"/>
<text text-anchor="start" x="693" y="-375.2" font-family="Helvetica,sans-Serif" font-size="11.00">id</text>
<polygon fill="none" stroke="black" points="673,-345 673,-367 816,-367 816,-345 673,-345"/>
<image xlink:href="../../images/foreignKeys.png" width="11px" height="12px" preserveAspectRatio="xMinYMin meet" x="678" y="-362"/>
<text text-anchor="start" x="693" y="-353.2" font-family="Helvetica,sans-Serif" font-size="11.00">site_id</text>
<polygon fill="#ffffff" stroke="none" points="673,-323 673,-345 816,-345 816,-323 673,-323"/>
<polygon fill="none" stroke="black" points="673,-323 673,-345 816,-345 816,-323 673,-323"/>
<text text-anchor="start" x="693" y="-331.2" font-family="Helvetica,sans-Serif" font-size="11.00">idle_after_time</text>
<polygon fill="#ffffff" stroke="none" points="673,-301 673,-323 816,-323 816,-301 673,-301"/>
<polygon fill="none" stroke="black" points="673,-301 673,-323 816,-323 816,-301 673,-301"/>
<image xlink:href="../../images/foreignKeys.png" width="11px" height="12px" preserveAspectRatio="xMinYMin meet" x="678" y="-318"/>
<text text-anchor="start" x="693" y="-309.2" font-family="Helvetica,sans-Serif" font-size="11.00">organization_id</text>
<polygon fill="none" stroke="black" points="673,-283 673,-301 816,-301 816,-283 673,-283"/>
<text text-anchor="start" x="676" y="-289.2" font-family="Helvetica,sans-Serif" font-size="11.00">...</text>
<polygon fill="#ffffff" stroke="none" points="673,-265 673,-283 723,-283 723,-265 673,-265"/>
<polygon fill="none" stroke="black" points="673,-265 673,-283 723,-283 723,-265 673,-265"/>
<text text-anchor="start" x="676" y="-271.2" font-family="Helvetica,sans-Serif" font-size="11.00">&lt; 2</text>
<polygon fill="#ffffff" stroke="none" points="723,-265 723,-283 779,-283 779,-265 723,-265"/>
<polygon fill="none" stroke="black" points="723,-265 723,-283 779,-283 779,-265 723,-265"/>
<text text-anchor="start" x="740" y="-271.2" font-family="Helvetica,sans-Serif" font-size="11.00">0 rows</text>
<polygon fill="#ffffff" stroke="none" points="779,-265 779,-283 816,-283 816,-265 779,-265"/>
<polygon fill="none" stroke="black" points="779,-265 779,-283 816,-283 816,-265 779,-265"/>
<text text-anchor="start" x="796" y="-271.2" font-family="Helvetica,sans-Serif" font-size="11.00">2 &gt;</text>
</a>
</g>
</g>
<!-- accessions&#45;&gt;facilities -->
<g id="edge1" class="edge"><title>accessions:elipses:w&#45;&gt;facilities:id:e</title>
<path fill="none" stroke="black" d="M1091.19,-336.101C1081.85,-345.478 1082.69,-365.206 1065,-373 964.112,-417.447 927.245,-378 817,-378"/>
<polygon fill="black" stroke="black" points="1097.5,-333.772 1106.25,-334.377 1101.25,-332.386 1105,-331 1105,-331 1105,-331 1101.25,-332.386 1103.75,-327.623 1097.5,-333.772 1097.5,-333.772"/>
<ellipse fill="none" stroke="black" cx="1094.49" cy="-334.881" rx="3.20001" ry="3.20001"/>
</g>
<!-- species -->
<g id="node3" class="node"><title>species</title>
<g id="a_node3"><a xlink:href="../../tables/species.html" xlink:title="species" target="_top">
<polygon fill="#ffffff" stroke="none" points="884,-93 884,-283 1057,-283 1057,-93 884,-93"/>
<polygon fill="#f5f5f5" stroke="none" points="884.5,-261 884.5,-283 1057.5,-283 1057.5,-261 884.5,-261"/>
<polygon fill="none" stroke="black" points="884.5,-261 884.5,-283 1057.5,-283 1057.5,-261 884.5,-261"/>
<text text-anchor="start" x="889.5" y="-270.2" font-family="Helvetica,sans-Serif" font-weight="bold" font-size="11.00">species</text>
<text text-anchor="start" x="1018.5" y="-269.2" font-family="Helvetica,sans-Serif" font-size="11.00">[table]</text>
<polygon fill="none" stroke="black" points="884.5,-239 884.5,-261 1057.5,-261 1057.5,-239 884.5,-239"/>
<image xlink:href="../../images/primaryKeys.png" width="11px" height="12px" preserveAspectRatio="xMinYMin meet" x="889.5" y="-256"/>
<text text-anchor="start" x="904.5" y="-247.2" font-family="Helvetica,sans-Serif" font-size="11.00">id</text>
<polygon fill="#ffffff" stroke="none" points="884.5,-217 884.5,-239 1057.5,-239 1057.5,-217 884.5,-217"/>
<polygon fill="none" stroke="black" points="884.5,-217 884.5,-239 1057.5,-239 1057.5,-217 884.5,-217"/>
<image xlink:href="../../images/foreignKeys.png" width="11px" height="12px" preserveAspectRatio="xMinYMin meet" x="889.5" y="-234"/>
<text text-anchor="start" x="904.5" y="-225.2" font-family="Helvetica,sans-Serif" font-size="11.00">organization_id</text>
<polygon fill="#ffffff" stroke="none" points="884.5,-195 884.5,-217 1057.5,-217 1057.5,-195 884.5,-195"/>
<polygon fill="none" stroke="black" points="884.5,-195 884.5,-217 1057.5,-217 1057.5,-195 884.5,-195"/>
<text text-anchor="start" x="904.5" y="-203.2" font-family="Helvetica,sans-Serif" font-size="11.00">scientific_name</text>
<polygon fill="none" stroke="black" points="884.5,-173 884.5,-195 1057.5,-195 1057.5,-173 884.5,-173"/>
<image xlink:href="../../images/foreignKeys.png" width="11px" height="12px" preserveAspectRatio="xMinYMin meet" x="889.5" y="-190"/>
<text text-anchor="start" x="904.5" y="-181.2" font-family="Helvetica,sans-Serif" font-size="11.00">growth_form_id</text>
<polygon fill="none" stroke="black" points="884.5,-151 884.5,-173 1057.5,-173 1057.5,-151 884.5,-151"/>
<image xlink:href="../../images/foreignKeys.png" width="11px" height="12px" preserveAspectRatio="xMinYMin meet" x="889.5" y="-168"/>
<text text-anchor="start" x="904.5" y="-159.2" font-family="Helvetica,sans-Serif" font-size="11.00">seed_storage_behavior_id</text>
<polygon fill="#ffffff" stroke="none" points="884.5,-129 884.5,-151 1057.5,-151 1057.5,-129 884.5,-129"/>
<polygon fill="none" stroke="black" points="884.5,-129 884.5,-151 1057.5,-151 1057.5,-129 884.5,-129"/>
<text text-anchor="start" x="904.5" y="-137.2" font-family="Helvetica,sans-Serif" font-size="11.00">initial_scientific_name</text>
<polygon fill="none" stroke="black" points="884.5,-111 884.5,-129 1057.5,-129 1057.5,-111 884.5,-111"/>
<text text-anchor="start" x="887.5" y="-117.2" font-family="Helvetica,sans-Serif" font-size="11.00">...</text>
<polygon fill="#ffffff" stroke="none" points="884.5,-93 884.5,-111 949.5,-111 949.5,-93 884.5,-93"/>
<polygon fill="none" stroke="black" points="884.5,-93 884.5,-111 949.5,-111 949.5,-93 884.5,-93"/>
<text text-anchor="start" x="887.5" y="-99.2" font-family="Helvetica,sans-Serif" font-size="11.00">&lt; 3</text>
<polygon fill="#ffffff" stroke="none" points="949.5,-93 949.5,-111 1012.5,-111 1012.5,-93 949.5,-93"/>
<polygon fill="none" stroke="black" points="949.5,-93 949.5,-111 1012.5,-111 1012.5,-93 949.5,-93"/>
<text text-anchor="start" x="973.5" y="-99.2" font-family="Helvetica,sans-Serif" font-size="11.00">0 rows</text>
<polygon fill="#ffffff" stroke="none" points="1012.5,-93 1012.5,-111 1057.5,-111 1057.5,-93 1012.5,-93"/>
<polygon fill="none" stroke="black" points="1012.5,-93 1012.5,-111 1057.5,-111 1057.5,-93 1012.5,-93"/>
<text text-anchor="start" x="1037.5" y="-99.2" font-family="Helvetica,sans-Serif" font-size="11.00">1 &gt;</text>
</a>
</g>
</g>
<!-- accessions&#45;&gt;species -->
<g id="edge2" class="edge"><title>accessions:elipses:w&#45;&gt;species:id:e</title>
<path fill="none" stroke="black" d="M1091.16,-326.176C1072.61,-308.738 1093.85,-250 1058.5,-250"/>
<polygon fill="black" stroke="black" points="1097.45,-328.366 1103.81,-334.399 1101.22,-329.683 1105,-331 1105,-331 1105,-331 1101.22,-329.683 1106.19,-327.601 1097.45,-328.366 1097.45,-328.366"/>
<ellipse fill="none" stroke="black" cx="1094.42" cy="-327.313" rx="3.20001" ry="3.20001"/>
</g>
<!-- storage_locations -->
<g id="node4" class="node"><title>storage_locations</title>
<g id="a_node4"><a xlink:href="../../tables/storage_locations.html" xlink:title="storage_locations" target="_top">
<polygon fill="#ffffff" stroke="none" points="897,-304 897,-362 1044,-362 1044,-304 897,-304"/>
<polygon fill="#f5f5f5" stroke="none" points="897.5,-340 897.5,-362 1044.5,-362 1044.5,-340 897.5,-340"/>
<polygon fill="none" stroke="black" points="897.5,-340 897.5,-362 1044.5,-362 1044.5,-340 897.5,-340"/>
<text text-anchor="start" x="902.5" y="-349.2" font-family="Helvetica,sans-Serif" font-weight="bold" font-size="11.00">storage_locations</text>
<text text-anchor="start" x="1005.5" y="-348.2" font-family="Helvetica,sans-Serif" font-size="11.00">[table]</text>
<polygon fill="none" stroke="black" points="897.5,-322 897.5,-340 1044.5,-340 1044.5,-322 897.5,-322"/>
<text text-anchor="start" x="900.5" y="-328.2" font-family="Helvetica,sans-Serif" font-size="11.00">...</text>
<polygon fill="#ffffff" stroke="none" points="897.5,-304 897.5,-322 949.5,-322 949.5,-304 897.5,-304"/>
<polygon fill="none" stroke="black" points="897.5,-304 897.5,-322 949.5,-322 949.5,-304 897.5,-304"/>
<text text-anchor="start" x="900.5" y="-310.2" font-family="Helvetica,sans-Serif" font-size="11.00">&lt; 2</text>
<polygon fill="#ffffff" stroke="none" points="949.5,-304 949.5,-322 1006.5,-322 1006.5,-304 949.5,-304"/>
<polygon fill="none" stroke="black" points="949.5,-304 949.5,-322 1006.5,-322 1006.5,-304 949.5,-304"/>
<text text-anchor="start" x="967.5" y="-310.2" font-family="Helvetica,sans-Serif" font-size="11.00">0 rows</text>
<polygon fill="#ffffff" stroke="none" points="1006.5,-304 1006.5,-322 1044.5,-322 1044.5,-304 1006.5,-304"/>
<polygon fill="none" stroke="black" points="1006.5,-304 1006.5,-322 1044.5,-322 1044.5,-304 1006.5,-304"/>
<text text-anchor="start" x="1024.5" y="-310.2" font-family="Helvetica,sans-Serif" font-size="11.00">1 &gt;</text>
</a>
</g>
</g>
<!-- accessions&#45;&gt;storage_locations -->
<g id="edge3" class="edge"><title>accessions:elipses:w&#45;&gt;storage_locations:elipses:e</title>
<path fill="none" stroke="black" d="M1090.54,-331C1074.88,-331 1066.37,-331 1045.5,-331"/>
<polygon fill="black" stroke="black" points="1097,-331 1105,-334.6 1101,-331 1105,-331 1105,-331 1105,-331 1101,-331 1105,-327.4 1097,-331 1097,-331"/>
<ellipse fill="none" stroke="black" cx="1093.8" cy="-331" rx="3.2" ry="3.2"/>
</g>
<!-- organizations -->
<g id="node5" class="node"><title>organizations</title>
<g id="a_node5"><a xlink:href="../../tables/organizations.html" xlink:title="organizations" target="_top">
<polygon fill="#ffffff" stroke="none" points="8,-37 8,-301 288,-301 288,-37 8,-37"/>
<polygon fill="#f5f5f5" stroke="none" points="10,-277 10,-299 286,-299 286,-277 10,-277"/>
<polygon fill="none" stroke="black" points="10,-277 10,-299 286,-299 286,-277 10,-277"/>
<text text-anchor="start" x="15" y="-286.2" font-family="Helvetica,sans-Serif" font-weight="bold" font-size="11.00">organizations</text>
<text text-anchor="start" x="247" y="-285.2" font-family="Helvetica,sans-Serif" font-size="11.00">[table]</text>
<polygon fill="none" stroke="black" points="10,-255 10,-277 184,-277 184,-255 10,-255"/>
<image xlink:href="../../images/primaryKeys.png" width="11px" height="12px" preserveAspectRatio="xMinYMin meet" x="15" y="-272"/>
<text text-anchor="start" x="30" y="-263.2" font-family="Helvetica,sans-Serif" font-size="11.00">id</text>
<polygon fill="none" stroke="black" points="184,-255 184,-277 286,-277 286,-255 184,-255"/>
<text text-anchor="start" x="187" y="-263.2" font-family="Helvetica,sans-Serif" font-size="11.00">int8[19]</text>
<polygon fill="none" stroke="black" points="10,-233 10,-255 184,-255 184,-233 10,-233"/>
<text text-anchor="start" x="30" y="-241.2" font-family="Helvetica,sans-Serif" font-size="11.00">name</text>
<polygon fill="none" stroke="black" points="184,-233 184,-255 286,-255 286,-233 184,-233"/>
<text text-anchor="start" x="187" y="-241.2" font-family="Helvetica,sans-Serif" font-size="11.00">text[2147483647]</text>
<polygon fill="none" stroke="black" points="10,-211 10,-233 184,-233 184,-211 10,-211"/>
<text text-anchor="start" x="30" y="-219.2" font-family="Helvetica,sans-Serif" font-size="11.00">created_time</text>
<polygon fill="none" stroke="black" points="184,-211 184,-233 286,-233 286,-211 184,-211"/>
<text text-anchor="start" x="187" y="-219.2" font-family="Helvetica,sans-Serif" font-size="11.00">timestamptz[35,6]</text>
<polygon fill="none" stroke="black" points="10,-189 10,-211 184,-211 184,-189 10,-189"/>
<text text-anchor="start" x="30" y="-197.2" font-family="Helvetica,sans-Serif" font-size="11.00">modified_time</text>
<polygon fill="none" stroke="black" points="184,-189 184,-211 286,-211 286,-189 184,-189"/>
<text text-anchor="start" x="187" y="-197.2" font-family="Helvetica,sans-Serif" font-size="11.00">timestamptz[35,6]</text>
<polygon fill="none" stroke="black" points="10,-167 10,-189 184,-189 184,-167 10,-167"/>
<text text-anchor="start" x="30" y="-175.2" font-family="Helvetica,sans-Serif" font-size="11.00">disabled_time</text>
<polygon fill="none" stroke="black" points="184,-167 184,-189 286,-189 286,-167 184,-167"/>
<text text-anchor="start" x="187" y="-175.2" font-family="Helvetica,sans-Serif" font-size="11.00">timestamptz[35,6]</text>
<polygon fill="none" stroke="black" points="10,-145 10,-167 184,-167 184,-145 10,-145"/>
<text text-anchor="start" x="30" y="-153.2" font-family="Helvetica,sans-Serif" font-size="11.00">country_code</text>
<polygon fill="none" stroke="black" points="184,-145 184,-167 286,-167 286,-145 184,-145"/>
<text text-anchor="start" x="187" y="-153.2" font-family="Helvetica,sans-Serif" font-size="11.00">text[2147483647]</text>
<polygon fill="none" stroke="black" points="10,-123 10,-145 184,-145 184,-123 10,-123"/>
<text text-anchor="start" x="30" y="-131.2" font-family="Helvetica,sans-Serif" font-size="11.00">country_subdivision_code</text>
<polygon fill="none" stroke="black" points="184,-123 184,-145 286,-145 286,-123 184,-123"/>
<text text-anchor="start" x="187" y="-131.2" font-family="Helvetica,sans-Serif" font-size="11.00">text[2147483647]</text>
<polygon fill="none" stroke="black" points="10,-101 10,-123 184,-123 184,-101 10,-101"/>
<text text-anchor="start" x="30" y="-109.2" font-family="Helvetica,sans-Serif" font-size="11.00">description</text>
<polygon fill="none" stroke="black" points="184,-101 184,-123 286,-123 286,-101 184,-101"/>
<text text-anchor="start" x="187" y="-109.2" font-family="Helvetica,sans-Serif" font-size="11.00">text[2147483647]</text>
<polygon fill="none" stroke="black" points="10,-79 10,-101 184,-101 184,-79 10,-79"/>
<text text-anchor="start" x="30" y="-87.2" font-family="Helvetica,sans-Serif" font-size="11.00">created_by</text>
<polygon fill="none" stroke="black" points="184,-79 184,-101 286,-101 286,-79 184,-79"/>
<text text-anchor="start" x="187" y="-87.2" font-family="Helvetica,sans-Serif" font-size="11.00">int8[19]</text>
<polygon fill="none" stroke="black" points="10,-57 10,-79 184,-79 184,-57 10,-57"/>
<text text-anchor="start" x="30" y="-65.2" font-family="Helvetica,sans-Serif" font-size="11.00">modified_by</text>
<polygon fill="none" stroke="black" points="184,-57 184,-79 286,-79 286,-57 184,-57"/>
<text text-anchor="start" x="187" y="-65.2" font-family="Helvetica,sans-Serif" font-size="11.00">int8[19]</text>
<polygon fill="#ffffff" stroke="none" points="10,-39 10,-57 87,-57 87,-39 10,-39"/>
<polygon fill="none" stroke="black" points="10,-39 10,-57 87,-57 87,-39 10,-39"/>
<text text-anchor="start" x="13" y="-45.2" font-family="Helvetica,sans-Serif" font-size="11.00">&lt; 0</text>
<polygon fill="#ffffff" stroke="none" points="87,-39 87,-57 184,-57 184,-39 87,-39"/>
<polygon fill="none" stroke="black" points="87,-39 87,-57 184,-57 184,-39 87,-39"/>
<text text-anchor="start" x="145" y="-45.2" font-family="Helvetica,sans-Serif" font-size="11.00">0 rows</text>
<polygon fill="#ffffff" stroke="none" points="184,-39 184,-57 286,-57 286,-39 184,-39"/>
<polygon fill="none" stroke="black" points="184,-39 184,-57 286,-57 286,-39 184,-39"/>
<text text-anchor="start" x="266" y="-45.2" font-family="Helvetica,sans-Serif" font-size="11.00">3 &gt;</text>
<polygon fill="none" stroke="black" stroke-width="2" points="9,-38 9,-300 287,-300 287,-38 9,-38"/>
</a>
</g>
</g>
<!-- facilities&#45;&gt;organizations -->
<g id="edge4" class="edge"><title>facilities:organization_id:w&#45;&gt;organizations:id.type:e</title>
<path fill="none" stroke="black" d="M657.552,-311.789C580.733,-309.48 558.17,-288.818 475,-279 391.822,-269.181 370.755,-266 287,-266"/>
<polygon fill="black" stroke="black" points="664.001,-311.883 671.947,-315.6 668,-311.942 672,-312 672,-312 672,-312 668,-311.942 672.053,-308.4 664.001,-311.883 664.001,-311.883"/>
<ellipse fill="none" stroke="black" cx="660.801" cy="-311.836" rx="3.2" ry="3.2"/>
</g>
<!-- sites -->
<g id="node6" class="node"><title>sites</title>
<g id="a_node6"><a xlink:href="../../tables/sites.html" xlink:title="sites" target="_top">
<polygon fill="#ffffff" stroke="none" points="516,-330 516,-388 604,-388 604,-330 516,-330"/>
<polygon fill="#f5f5f5" stroke="none" points="516,-366 516,-388 604,-388 604,-366 516,-366"/>
<polygon fill="none" stroke="black" points="516,-366 516,-388 604,-388 604,-366 516,-366"/>
<text text-anchor="start" x="521" y="-375.2" font-family="Helvetica,sans-Serif" font-weight="bold" font-size="11.00">sites</text>
<text text-anchor="start" x="565" y="-374.2" font-family="Helvetica,sans-Serif" font-size="11.00">[table]</text>
<polygon fill="none" stroke="black" points="516,-348 516,-366 604,-366 604,-348 516,-348"/>
<text text-anchor="start" x="519" y="-354.2" font-family="Helvetica,sans-Serif" font-size="11.00">...</text>
<polygon fill="#ffffff" stroke="none" points="516,-330 516,-348 539,-348 539,-330 516,-330"/>
<polygon fill="none" stroke="black" points="516,-330 516,-348 539,-348 539,-330 516,-330"/>
<text text-anchor="start" x="519" y="-336.2" font-family="Helvetica,sans-Serif" font-size="11.00">&lt; 1</text>
<polygon fill="#ffffff" stroke="none" points="539,-330 539,-348 581,-348 581,-330 539,-330"/>
<polygon fill="none" stroke="black" points="539,-330 539,-348 581,-348 581,-330 539,-330"/>
<text text-anchor="start" x="542" y="-336.2" font-family="Helvetica,sans-Serif" font-size="11.00">0 rows</text>
<polygon fill="#ffffff" stroke="none" points="581,-330 581,-348 604,-348 604,-330 581,-330"/>
<polygon fill="none" stroke="black" points="581,-330 581,-348 604,-348 604,-330 581,-330"/>
<text text-anchor="start" x="584" y="-336.2" font-family="Helvetica,sans-Serif" font-size="11.00">1 &gt;</text>
</a>
</g>
</g>
<!-- facilities&#45;&gt;sites -->
<g id="edge5" class="edge"><title>facilities:site_id:w&#45;&gt;sites:elipses:e</title>
<path fill="none" stroke="black" d="M657.58,-356.089C638.735,-356.333 629.313,-357 605,-357"/>
<polygon fill="black" stroke="black" points="664,-356.049 672.022,-359.6 668,-356.025 672,-356 672,-356 672,-356 668,-356.025 671.978,-352.4 664,-356.049 664,-356.049"/>
<ellipse fill="none" stroke="black" cx="660.8" cy="-356.069" rx="3.2" ry="3.2"/>
</g>
<!-- species&#45;&gt;organizations -->
<g id="edge9" class="edge"><title>species:organization_id:w&#45;&gt;organizations:id.type:e</title>
<path fill="none" stroke="black" d="M868.891,-228.567C776.275,-233.294 317.806,-266 287,-266"/>
<polygon fill="black" stroke="black" points="875.506,-228.31 883.64,-231.597 879.503,-228.155 883.5,-228 883.5,-228 883.5,-228 879.503,-228.155 883.36,-224.403 875.506,-228.31 875.506,-228.31"/>
<ellipse fill="none" stroke="black" cx="872.308" cy="-228.434" rx="3.2" ry="3.2"/>
</g>
<!-- growth_forms -->
<g id="node8" class="node"><title>growth_forms</title>
<g id="a_node8"><a xlink:href="../../tables/growth_forms.html" xlink:title="growth_forms" target="_top">
<polygon fill="#ffffff" stroke="none" points="680.5,-157 680.5,-215 807.5,-215 807.5,-157 680.5,-157"/>
<polygon fill="#f5f5f5" stroke="none" points="681,-193 681,-215 808,-215 808,-193 681,-193"/>
<polygon fill="none" stroke="black" points="681,-193 681,-215 808,-215 808,-193 681,-193"/>
<text text-anchor="start" x="686" y="-202.2" font-family="Helvetica,sans-Serif" font-weight="bold" font-size="11.00">growth_forms</text>
<text text-anchor="start" x="769" y="-201.2" font-family="Helvetica,sans-Serif" font-size="11.00">[table]</text>
<polygon fill="none" stroke="black" points="681,-175 681,-193 808,-193 808,-175 681,-175"/>
<text text-anchor="start" x="684" y="-181.2" font-family="Helvetica,sans-Serif" font-size="11.00">...</text>
<polygon fill="#ffffff" stroke="none" points="681,-157 681,-175 718,-175 718,-157 681,-157"/>
<polygon fill="none" stroke="black" points="681,-157 681,-175 718,-175 718,-157 681,-157"/>
<text text-anchor="start" x="684" y="-163.2" font-family="Helvetica,sans-Serif" font-size="11.00"> &#160;</text>
<polygon fill="#ffffff" stroke="none" points="718,-157 718,-175 772,-175 772,-157 718,-157"/>
<polygon fill="none" stroke="black" points="718,-157 718,-175 772,-175 772,-157 718,-157"/>
<text text-anchor="start" x="733" y="-163.2" font-family="Helvetica,sans-Serif" font-size="11.00">5 rows</text>
<polygon fill="#ffffff" stroke="none" points="772,-157 772,-175 808,-175 808,-157 772,-157"/>
<polygon fill="none" stroke="black" points="772,-157 772,-175 808,-175 808,-157 772,-157"/>
<text text-anchor="start" x="788" y="-163.2" font-family="Helvetica,sans-Serif" font-size="11.00">1 &gt;</text>
</a>
</g>
</g>
<!-- species&#45;&gt;growth_forms -->
<g id="edge8" class="edge"><title>species:growth_form_id:w&#45;&gt;growth_forms:elipses:e</title>
<path fill="none" stroke="black" d="M868.989,-184C847.004,-184 836.679,-184 809,-184"/>
<polygon fill="black" stroke="black" points="875.5,-184 883.5,-187.6 879.5,-184 883.5,-184 883.5,-184 883.5,-184 879.5,-184 883.5,-180.4 875.5,-184 875.5,-184"/>
<ellipse fill="none" stroke="black" cx="872.3" cy="-184" rx="3.2" ry="3.2"/>
</g>
<!-- seed_storage_behaviors -->
<g id="node9" class="node"><title>seed_storage_behaviors</title>
<g id="a_node9"><a xlink:href="../../tables/seed_storage_behaviors.html" xlink:title="seed_storage_behaviors" target="_top">
<polygon fill="#ffffff" stroke="none" points="653,-78 653,-136 835,-136 835,-78 653,-78"/>
<polygon fill="#f5f5f5" stroke="none" points="653,-114 653,-136 835,-136 835,-114 653,-114"/>
<polygon fill="none" stroke="black" points="653,-114 653,-136 835,-136 835,-114 653,-114"/>
<text text-anchor="start" x="658" y="-123.2" font-family="Helvetica,sans-Serif" font-weight="bold" font-size="11.00">seed_storage_behaviors</text>
<text text-anchor="start" x="796" y="-122.2" font-family="Helvetica,sans-Serif" font-size="11.00">[table]</text>
<polygon fill="none" stroke="black" points="653,-96 653,-114 835,-114 835,-96 653,-96"/>
<text text-anchor="start" x="656" y="-102.2" font-family="Helvetica,sans-Serif" font-size="11.00">...</text>
<polygon fill="#ffffff" stroke="none" points="653,-78 653,-96 718,-96 718,-78 653,-78"/>
<polygon fill="none" stroke="black" points="653,-78 653,-96 718,-96 718,-78 653,-78"/>
<text text-anchor="start" x="656" y="-84.2" font-family="Helvetica,sans-Serif" font-size="11.00"> &#160;</text>
<polygon fill="#ffffff" stroke="none" points="718,-78 718,-96 786,-96 786,-78 718,-78"/>
<polygon fill="none" stroke="black" points="718,-78 718,-96 786,-96 786,-78 718,-78"/>
<text text-anchor="start" x="747" y="-84.2" font-family="Helvetica,sans-Serif" font-size="11.00">4 rows</text>
<polygon fill="#ffffff" stroke="none" points="786,-78 786,-96 835,-96 835,-78 786,-78"/>
<polygon fill="none" stroke="black" points="786,-78 786,-96 835,-96 835,-78 786,-78"/>
<text text-anchor="start" x="815" y="-84.2" font-family="Helvetica,sans-Serif" font-size="11.00">1 &gt;</text>
</a>
</g>
</g>
<!-- species&#45;&gt;seed_storage_behaviors -->
<g id="edge10" class="edge"><title>species:seed_storage_behavior_id:w&#45;&gt;seed_storage_behaviors:elipses:e</title>
<path fill="none" stroke="black" d="M869.697,-156.74C855.635,-142.629 862.793,-105 836,-105"/>
<polygon fill="black" stroke="black" points="876.024,-159.151 882.218,-165.364 879.762,-160.576 883.5,-162 883.5,-162 883.5,-162 879.762,-160.576 884.782,-158.636 876.024,-159.151 876.024,-159.151"/>
<ellipse fill="none" stroke="black" cx="873.034" cy="-158.012" rx="3.20001" ry="3.20001"/>
</g>
<!-- storage_locations&#45;&gt;facilities -->
<g id="edge11" class="edge"><title>storage_locations:elipses:w&#45;&gt;facilities:id:e</title>
<path fill="none" stroke="black" d="M882.25,-333.267C855.373,-342.655 852.595,-378 817,-378"/>
<polygon fill="black" stroke="black" points="888.599,-332.257 897.066,-334.555 892.55,-331.628 896.5,-331 896.5,-331 896.5,-331 892.55,-331.628 895.934,-327.445 888.599,-332.257 888.599,-332.257"/>
<ellipse fill="none" stroke="black" cx="885.439" cy="-332.76" rx="3.2" ry="3.2"/>
</g>
<!-- projects -->
<g id="node7" class="node"><title>projects</title>
<g id="a_node7"><a xlink:href="../../tables/projects.html" xlink:title="projects" target="_top">
<polygon fill="#ffffff" stroke="none" points="337,-290 337,-392 467,-392 467,-290 337,-290"/>
<polygon fill="#f5f5f5" stroke="none" points="337,-370 337,-392 467,-392 467,-370 337,-370"/>
<polygon fill="none" stroke="black" points="337,-370 337,-392 467,-392 467,-370 337,-370"/>
<text text-anchor="start" x="342" y="-379.2" font-family="Helvetica,sans-Serif" font-weight="bold" font-size="11.00">projects</text>
<text text-anchor="start" x="428" y="-378.2" font-family="Helvetica,sans-Serif" font-size="11.00">[table]</text>
<polygon fill="none" stroke="black" points="337,-348 337,-370 467,-370 467,-348 337,-348"/>
<image xlink:href="../../images/primaryKeys.png" width="11px" height="12px" preserveAspectRatio="xMinYMin meet" x="342" y="-365"/>
<text text-anchor="start" x="357" y="-356.2" font-family="Helvetica,sans-Serif" font-size="11.00">id</text>
<polygon fill="none" stroke="black" points="337,-326 337,-348 467,-348 467,-326 337,-326"/>
<image xlink:href="../../images/foreignKeys.png" width="11px" height="12px" preserveAspectRatio="xMinYMin meet" x="342" y="-343"/>
<text text-anchor="start" x="357" y="-334.2" font-family="Helvetica,sans-Serif" font-size="11.00">organization_id</text>
<polygon fill="none" stroke="black" points="337,-308 337,-326 467,-326 467,-308 337,-308"/>
<text text-anchor="start" x="340" y="-314.2" font-family="Helvetica,sans-Serif" font-size="11.00">...</text>
<polygon fill="#ffffff" stroke="none" points="337,-290 337,-308 381,-308 381,-290 337,-290"/>
<polygon fill="none" stroke="black" points="337,-290 337,-308 381,-308 381,-290 337,-290"/>
<text text-anchor="start" x="340" y="-296.2" font-family="Helvetica,sans-Serif" font-size="11.00">&lt; 1</text>
<polygon fill="#ffffff" stroke="none" points="381,-290 381,-308 433,-308 433,-290 381,-290"/>
<polygon fill="none" stroke="black" points="381,-290 381,-308 433,-308 433,-290 381,-290"/>
<text text-anchor="start" x="394" y="-296.2" font-family="Helvetica,sans-Serif" font-size="11.00">0 rows</text>
<polygon fill="#ffffff" stroke="none" points="433,-290 433,-308 467,-308 467,-290 433,-290"/>
<polygon fill="none" stroke="black" points="433,-290 433,-308 467,-308 467,-290 433,-290"/>
<text text-anchor="start" x="447" y="-296.2" font-family="Helvetica,sans-Serif" font-size="11.00">1 &gt;</text>
</a>
</g>
</g>
<!-- sites&#45;&gt;projects -->
<g id="edge7" class="edge"><title>sites:elipses:w&#45;&gt;projects:id:e</title>
<path fill="none" stroke="black" d="M500.391,-357.386C489.932,-357.967 483.027,-359 468,-359"/>
<polygon fill="black" stroke="black" points="507.003,-357.211 515.095,-360.599 511.001,-357.106 515,-357 515,-357 515,-357 511.001,-357.106 514.905,-353.401 507.003,-357.211 507.003,-357.211"/>
<ellipse fill="none" stroke="black" cx="503.804" cy="-357.296" rx="3.2" ry="3.2"/>
</g>
<!-- projects&#45;&gt;organizations -->
<g id="edge6" class="edge"><title>projects:organization_id:w&#45;&gt;organizations:id.type:e</title>
<path fill="none" stroke="black" d="M322.36,-332.341C304.698,-316.546 319.35,-266 287,-266"/>
<polygon fill="black" stroke="black" points="328.429,-334.414 334.836,-340.407 332.215,-335.707 336,-337 336,-337 336,-337 332.215,-335.707 337.164,-333.593 328.429,-334.414 328.429,-334.414"/>
<ellipse fill="none" stroke="black" cx="325.401" cy="-333.38" rx="3.20001" ry="3.20001"/>
</g>
</g>
</svg>
