<?xml version="1.0" encoding="UTF-8" standalone="no"?>
<!DOCTYPE svg PUBLIC "-//W3C//DTD SVG 1.1//EN"
 "http://www.w3.org/Graphics/SVG/1.1/DTD/svg11.dtd">
<!-- Generated by graphviz version 2.38.0 (20140413.2041)
 -->
<!-- Title: twoDegreesRelationshipsDiagram Pages: 1 -->
<svg width="1323pt" height="330pt"
 viewBox="0.00 0.00 1323.00 330.30" xmlns="http://www.w3.org/2000/svg" xmlns:xlink="http://www.w3.org/1999/xlink">
<g id="graph0" class="graph" transform="scale(1 1) rotate(0) translate(4 326.303)">
<title>twoDegreesRelationshipsDiagram</title>
<polygon fill="#ffffff" stroke="none" points="-4,4 -4,-326.303 1319,-326.303 1319,4 -4,4"/>
<text text-anchor="middle" x="74.5" y="-7.2" font-family="Helvetica,sans-Serif" font-size="11.00">Generated by SchemaSpy</text>
<!-- accessions -->
<g id="node1" class="node"><title>accessions</title>
<g id="a_node1"><a xlink:href="../../tables/accessions.html" xlink:title="accessions" target="_top">
<polygon fill="#ffffff" stroke="none" points="998.5,-133 998.5,-191 1106.5,-191 1106.5,-133 998.5,-133"/>
<polygon fill="#f5f5f5" stroke="none" points="998.5,-169 998.5,-191 1106.5,-191 1106.5,-169 998.5,-169"/>
<polygon fill="none" stroke="black" points="998.5,-169 998.5,-191 1106.5,-191 1106.5,-169 998.5,-169"/>
<text text-anchor="start" x="1003.5" y="-178.2" font-family="Helvetica,sans-Serif" font-weight="bold" font-size="11.00">accessions</text>
<text text-anchor="start" x="1067.5" y="-177.2" font-family="Helvetica,sans-Serif" font-size="11.00">[table]</text>
<polygon fill="none" stroke="black" points="998.5,-151 998.5,-169 1106.5,-169 1106.5,-151 998.5,-151"/>
<text text-anchor="start" x="1001.5" y="-157.2" font-family="Helvetica,sans-Serif" font-size="11.00">...</text>
<polygon fill="#ffffff" stroke="none" points="998.5,-133 998.5,-151 1034.5,-151 1034.5,-133 998.5,-133"/>
<polygon fill="none" stroke="black" points="998.5,-133 998.5,-151 1034.5,-151 1034.5,-133 998.5,-133"/>
<text text-anchor="start" x="1001.5" y="-139.2" font-family="Helvetica,sans-Serif" font-size="11.00">&lt; 12</text>
<polygon fill="#ffffff" stroke="none" points="1034.5,-133 1034.5,-151 1079.5,-151 1079.5,-133 1034.5,-133"/>
<polygon fill="none" stroke="black" points="1034.5,-133 1034.5,-151 1079.5,-151 1079.5,-133 1034.5,-133"/>
<text text-anchor="start" x="1040.5" y="-139.2" font-family="Helvetica,sans-Serif" font-size="11.00">0 rows</text>
<polygon fill="#ffffff" stroke="none" points="1079.5,-133 1079.5,-151 1106.5,-151 1106.5,-133 1079.5,-133"/>
<polygon fill="none" stroke="black" points="1079.5,-133 1079.5,-151 1106.5,-151 1106.5,-133 1079.5,-133"/>
<text text-anchor="start" x="1086.5" y="-139.2" font-family="Helvetica,sans-Serif" font-size="11.00">9 &gt;</text>
</a>
</g>
</g>
<!-- facilities -->
<g id="node2" class="node"><title>facilities</title>
<g id="a_node2"><a xlink:href="../../tables/facilities.html" xlink:title="facilities" target="_top">
<polygon fill="#ffffff" stroke="none" points="634,-157 634,-259 732,-259 732,-157 634,-157"/>
<polygon fill="#f5f5f5" stroke="none" points="634,-237 634,-259 732,-259 732,-237 634,-237"/>
<polygon fill="none" stroke="black" points="634,-237 634,-259 732,-259 732,-237 634,-237"/>
<text text-anchor="start" x="639" y="-246.2" font-family="Helvetica,sans-Serif" font-weight="bold" font-size="11.00">facilities</text>
<text text-anchor="start" x="693" y="-245.2" font-family="Helvetica,sans-Serif" font-size="11.00">[table]</text>
<polygon fill="none" stroke="black" points="634,-215 634,-237 732,-237 732,-215 634,-215"/>
<image xlink:href="../../images/primaryKeys.png" width="11px" height="12px" preserveAspectRatio="xMinYMin meet" x="639" y="-232"/>
<text text-anchor="start" x="664" y="-223.2" font-family="Helvetica,sans-Serif" font-size="11.00">id</text>
<polygon fill="none" stroke="black" points="634,-193 634,-215 732,-215 732,-193 634,-193"/>
<image xlink:href="../../images/foreignKeys.png" width="11px" height="12px" preserveAspectRatio="xMinYMin meet" x="639" y="-210"/>
<text text-anchor="start" x="664" y="-201.2" font-family="Helvetica,sans-Serif" font-size="11.00">site_id</text>
<polygon fill="none" stroke="black" points="634,-175 634,-193 732,-193 732,-175 634,-175"/>
<text text-anchor="start" x="637" y="-181.2" font-family="Helvetica,sans-Serif" font-size="11.00">...</text>
<polygon fill="#ffffff" stroke="none" points="634,-157 634,-175 662,-175 662,-157 634,-157"/>
<polygon fill="none" stroke="black" points="634,-157 634,-175 662,-175 662,-157 634,-157"/>
<text text-anchor="start" x="637" y="-163.2" font-family="Helvetica,sans-Serif" font-size="11.00">&lt; 1</text>
<polygon fill="#ffffff" stroke="none" points="662,-157 662,-175 706,-175 706,-157 662,-157"/>
<polygon fill="none" stroke="black" points="662,-157 662,-175 706,-175 706,-157 662,-157"/>
<text text-anchor="start" x="667" y="-163.2" font-family="Helvetica,sans-Serif" font-size="11.00">0 rows</text>
<polygon fill="#ffffff" stroke="none" points="706,-157 706,-175 732,-175 732,-157 706,-157"/>
<polygon fill="none" stroke="black" points="706,-157 706,-175 732,-175 732,-157 706,-157"/>
<text text-anchor="start" x="712" y="-163.2" font-family="Helvetica,sans-Serif" font-size="11.00">3 &gt;</text>
</a>
</g>
</g>
<!-- accessions&#45;&gt;facilities -->
<g id="edge1" class="edge"><title>accessions:elipses:w&#45;&gt;facilities:id:e</title>
<path fill="none" stroke="black" d="M983.075,-161.905C965.44,-167.113 959.44,-181.688 936,-189 865.9,-210.868 844.9,-201.083 773,-216 755.057,-219.723 751.325,-226 733,-226"/>
<polygon fill="black" stroke="black" points="989.569,-161.047 997.971,-163.569 993.534,-160.524 997.5,-160 997.5,-160 997.5,-160 993.534,-160.524 997.029,-156.431 989.569,-161.047 989.569,-161.047"/>
<ellipse fill="none" stroke="black" cx="986.396" cy="-161.466" rx="3.2" ry="3.2"/>
</g>
<!-- collectors -->
<g id="node3" class="node"><title>collectors</title>
<g id="a_node3"><a xlink:href="../../tables/collectors.html" xlink:title="collectors" target="_top">
<polygon fill="#ffffff" stroke="none" points="802.5,-120 802.5,-178 906.5,-178 906.5,-120 802.5,-120"/>
<polygon fill="#f5f5f5" stroke="none" points="802.5,-156 802.5,-178 906.5,-178 906.5,-156 802.5,-156"/>
<polygon fill="none" stroke="black" points="802.5,-156 802.5,-178 906.5,-178 906.5,-156 802.5,-156"/>
<text text-anchor="start" x="807.5" y="-165.2" font-family="Helvetica,sans-Serif" font-weight="bold" font-size="11.00">collectors</text>
<text text-anchor="start" x="867.5" y="-164.2" font-family="Helvetica,sans-Serif" font-size="11.00">[table]</text>
<polygon fill="none" stroke="black" points="802.5,-138 802.5,-156 906.5,-156 906.5,-138 802.5,-138"/>
<text text-anchor="start" x="805.5" y="-144.2" font-family="Helvetica,sans-Serif" font-size="11.00">...</text>
<polygon fill="#ffffff" stroke="none" points="802.5,-120 802.5,-138 833.5,-138 833.5,-120 802.5,-120"/>
<polygon fill="none" stroke="black" points="802.5,-120 802.5,-138 833.5,-138 833.5,-120 802.5,-120"/>
<text text-anchor="start" x="805.5" y="-126.2" font-family="Helvetica,sans-Serif" font-size="11.00">&lt; 1</text>
<polygon fill="#ffffff" stroke="none" points="833.5,-120 833.5,-138 879.5,-138 879.5,-120 833.5,-120"/>
<polygon fill="none" stroke="black" points="833.5,-120 833.5,-138 879.5,-138 879.5,-120 833.5,-120"/>
<text text-anchor="start" x="840.5" y="-126.2" font-family="Helvetica,sans-Serif" font-size="11.00">0 rows</text>
<polygon fill="#ffffff" stroke="none" points="879.5,-120 879.5,-138 906.5,-138 906.5,-120 879.5,-120"/>
<polygon fill="none" stroke="black" points="879.5,-120 879.5,-138 906.5,-138 906.5,-120 879.5,-120"/>
<text text-anchor="start" x="886.5" y="-126.2" font-family="Helvetica,sans-Serif" font-size="11.00">2 &gt;</text>
</a>
</g>
</g>
<!-- accessions&#45;&gt;collectors -->
<g id="edge2" class="edge"><title>accessions:elipses:w&#45;&gt;collectors:elipses:e</title>
<path fill="none" stroke="black" d="M982.904,-159.373C954.098,-156.776 942.547,-147 907.5,-147"/>
<polygon fill="black" stroke="black" points="989.507,-159.657 997.345,-163.597 993.504,-159.828 997.5,-160 997.5,-160 997.5,-160 993.504,-159.828 997.655,-156.403 989.507,-159.657 989.507,-159.657"/>
<ellipse fill="none" stroke="black" cx="986.31" cy="-159.519" rx="3.2" ry="3.2"/>
</g>
<!-- accession_states -->
<g id="node4" class="node"><title>accession_states</title>
<g id="a_node4"><a xlink:href="../../tables/accession_states.html" xlink:title="accession_states" target="_top">
<polygon fill="#ffffff" stroke="none" points="783.5,-41 783.5,-99 925.5,-99 925.5,-41 783.5,-41"/>
<polygon fill="#f5f5f5" stroke="none" points="783.5,-77 783.5,-99 925.5,-99 925.5,-77 783.5,-77"/>
<polygon fill="none" stroke="black" points="783.5,-77 783.5,-99 925.5,-99 925.5,-77 783.5,-77"/>
<text text-anchor="start" x="788.5" y="-86.2" font-family="Helvetica,sans-Serif" font-weight="bold" font-size="11.00">accession_states</text>
<text text-anchor="start" x="886.5" y="-85.2" font-family="Helvetica,sans-Serif" font-size="11.00">[table]</text>
<polygon fill="none" stroke="black" points="783.5,-59 783.5,-77 925.5,-77 925.5,-59 783.5,-59"/>
<text text-anchor="start" x="786.5" y="-65.2" font-family="Helvetica,sans-Serif" font-size="11.00">...</text>
<polygon fill="#ffffff" stroke="none" points="783.5,-41 783.5,-59 828.5,-59 828.5,-41 783.5,-41"/>
<polygon fill="none" stroke="black" points="783.5,-41 783.5,-59 828.5,-59 828.5,-41 783.5,-41"/>
<text text-anchor="start" x="786.5" y="-47.2" font-family="Helvetica,sans-Serif" font-size="11.00"> &#160;</text>
<polygon fill="#ffffff" stroke="none" points="828.5,-41 828.5,-59 886.5,-59 886.5,-41 828.5,-41"/>
<polygon fill="none" stroke="black" points="828.5,-41 828.5,-59 886.5,-59 886.5,-41 828.5,-41"/>
<text text-anchor="start" x="847.5" y="-47.2" font-family="Helvetica,sans-Serif" font-size="11.00">9 rows</text>
<polygon fill="#ffffff" stroke="none" points="886.5,-41 886.5,-59 925.5,-59 925.5,-41 886.5,-41"/>
<polygon fill="none" stroke="black" points="886.5,-41 886.5,-59 925.5,-59 925.5,-41 886.5,-41"/>
<text text-anchor="start" x="905.5" y="-47.2" font-family="Helvetica,sans-Serif" font-size="11.00">4 &gt;</text>
</a>
</g>
</g>
<!-- accessions&#45;&gt;accession_states -->
<g id="edge3" class="edge"><title>accessions:elipses:w&#45;&gt;accession_states:elipses:e</title>
<path fill="none" stroke="black" d="M983.346,-156.939C951.912,-140.976 972.5,-68 926.5,-68"/>
<polygon fill="black" stroke="black" points="989.681,-158.309 996.739,-163.519 993.59,-159.154 997.5,-160 997.5,-160 997.5,-160 993.59,-159.154 998.261,-156.481 989.681,-158.309 989.681,-158.309"/>
<ellipse fill="none" stroke="black" cx="986.553" cy="-157.633" rx="3.2" ry="3.2"/>
</g>
<!-- storage_locations -->
<g id="node5" class="node"><title>storage_locations</title>
<g id="a_node5"><a xlink:href="../../tables/storage_locations.html" xlink:title="storage_locations" target="_top">
<polygon fill="#ffffff" stroke="none" points="781,-226 781,-284 928,-284 928,-226 781,-226"/>
<polygon fill="#f5f5f5" stroke="none" points="781.5,-262 781.5,-284 928.5,-284 928.5,-262 781.5,-262"/>
<polygon fill="none" stroke="black" points="781.5,-262 781.5,-284 928.5,-284 928.5,-262 781.5,-262"/>
<text text-anchor="start" x="786.5" y="-271.2" font-family="Helvetica,sans-Serif" font-weight="bold" font-size="11.00">storage_locations</text>
<text text-anchor="start" x="889.5" y="-270.2" font-family="Helvetica,sans-Serif" font-size="11.00">[table]</text>
<polygon fill="none" stroke="black" points="781.5,-244 781.5,-262 928.5,-262 928.5,-244 781.5,-244"/>
<text text-anchor="start" x="784.5" y="-250.2" font-family="Helvetica,sans-Serif" font-size="11.00">...</text>
<polygon fill="#ffffff" stroke="none" points="781.5,-226 781.5,-244 833.5,-244 833.5,-226 781.5,-226"/>
<polygon fill="none" stroke="black" points="781.5,-226 781.5,-244 833.5,-244 833.5,-226 781.5,-226"/>
<text text-anchor="start" x="784.5" y="-232.2" font-family="Helvetica,sans-Serif" font-size="11.00">&lt; 2</text>
<polygon fill="#ffffff" stroke="none" points="833.5,-226 833.5,-244 890.5,-244 890.5,-226 833.5,-226"/>
<polygon fill="none" stroke="black" points="833.5,-226 833.5,-244 890.5,-244 890.5,-226 833.5,-226"/>
<text text-anchor="start" x="851.5" y="-232.2" font-family="Helvetica,sans-Serif" font-size="11.00">0 rows</text>
<polygon fill="#ffffff" stroke="none" points="890.5,-226 890.5,-244 928.5,-244 928.5,-226 890.5,-226"/>
<polygon fill="none" stroke="black" points="890.5,-226 890.5,-244 928.5,-244 928.5,-226 890.5,-226"/>
<text text-anchor="start" x="908.5" y="-232.2" font-family="Helvetica,sans-Serif" font-size="11.00">1 &gt;</text>
</a>
</g>
</g>
<!-- accessions&#45;&gt;storage_locations -->
<g id="edge4" class="edge"><title>accessions:elipses:w&#45;&gt;storage_locations:elipses:e</title>
<path fill="none" stroke="black" d="M983.146,-163.31C952.993,-179.877 974.903,-253 929.5,-253"/>
<polygon fill="black" stroke="black" points="989.705,-161.798 998.309,-163.508 993.602,-160.899 997.5,-160 997.5,-160 997.5,-160 993.602,-160.899 996.691,-156.492 989.705,-161.798 989.705,-161.798"/>
<ellipse fill="none" stroke="black" cx="986.586" cy="-162.517" rx="3.2" ry="3.2"/>
</g>
<!-- sites -->
<g id="node6" class="node"><title>sites</title>
<g id="a_node6"><a xlink:href="../../tables/sites.html" xlink:title="sites" target="_top">
<polygon fill="#ffffff" stroke="none" points="343,-37 343,-279 585,-279 585,-37 343,-37"/>
<polygon fill="#f5f5f5" stroke="none" points="345,-255 345,-277 583,-277 583,-255 345,-255"/>
<polygon fill="none" stroke="black" points="345,-255 345,-277 583,-277 583,-255 345,-255"/>
<text text-anchor="start" x="350" y="-264.2" font-family="Helvetica,sans-Serif" font-weight="bold" font-size="11.00">sites</text>
<text text-anchor="start" x="544" y="-263.2" font-family="Helvetica,sans-Serif" font-size="11.00">[table]</text>
<polygon fill="none" stroke="black" points="345,-233 345,-255 452,-255 452,-233 345,-233"/>
<image xlink:href="../../images/primaryKeys.png" width="11px" height="12px" preserveAspectRatio="xMinYMin meet" x="350" y="-250"/>
<text text-anchor="start" x="365" y="-241.2" font-family="Helvetica,sans-Serif" font-size="11.00">id</text>
<polygon fill="none" stroke="black" points="452,-233 452,-255 583,-255 583,-233 452,-233"/>
<text text-anchor="start" x="455" y="-241.2" font-family="Helvetica,sans-Serif" font-size="11.00">int8[19]</text>
<polygon fill="none" stroke="black" points="345,-211 345,-233 452,-233 452,-211 345,-211"/>
<text text-anchor="start" x="365" y="-219.2" font-family="Helvetica,sans-Serif" font-size="11.00">name</text>
<polygon fill="none" stroke="black" points="452,-211 452,-233 583,-233 583,-211 452,-211"/>
<text text-anchor="start" x="455" y="-219.2" font-family="Helvetica,sans-Serif" font-size="11.00">text[2147483647]</text>
<polygon fill="none" stroke="black" points="345,-189 345,-211 452,-211 452,-189 345,-189"/>
<text text-anchor="start" x="365" y="-197.2" font-family="Helvetica,sans-Serif" font-size="11.00">locale</text>
<polygon fill="none" stroke="black" points="452,-189 452,-211 583,-211 583,-189 452,-189"/>
<text text-anchor="start" x="455" y="-197.2" font-family="Helvetica,sans-Serif" font-size="11.00">text[2147483647]</text>
<polygon fill="none" stroke="black" points="345,-167 345,-189 452,-189 452,-167 345,-167"/>
<text text-anchor="start" x="365" y="-175.2" font-family="Helvetica,sans-Serif" font-size="11.00">timezone</text>
<polygon fill="none" stroke="black" points="452,-167 452,-189 583,-189 583,-167 452,-167"/>
<text text-anchor="start" x="455" y="-175.2" font-family="Helvetica,sans-Serif" font-size="11.00">text[2147483647]</text>
<polygon fill="none" stroke="black" points="345,-145 345,-167 452,-167 452,-145 345,-145"/>
<text text-anchor="start" x="365" y="-153.2" font-family="Helvetica,sans-Serif" font-size="11.00">enabled</text>
<polygon fill="none" stroke="black" points="452,-145 452,-167 583,-167 583,-145 452,-145"/>
<text text-anchor="start" x="455" y="-153.2" font-family="Helvetica,sans-Serif" font-size="11.00">bool[1]</text>
<polygon fill="none" stroke="black" points="345,-123 345,-145 452,-145 452,-123 345,-123"/>
<image xlink:href="../../images/foreignKeys.png" width="11px" height="12px" preserveAspectRatio="xMinYMin meet" x="350" y="-140"/>
<text text-anchor="start" x="365" y="-131.2" font-family="Helvetica,sans-Serif" font-size="11.00">project_id</text>
<polygon fill="none" stroke="black" points="452,-123 452,-145 583,-145 583,-123 452,-123"/>
<text text-anchor="start" x="455" y="-131.2" font-family="Helvetica,sans-Serif" font-size="11.00">int8[19]</text>
<polygon fill="none" stroke="black" points="345,-101 345,-123 452,-123 452,-101 345,-101"/>
<text text-anchor="start" x="365" y="-109.2" font-family="Helvetica,sans-Serif" font-size="11.00">location</text>
<polygon fill="none" stroke="black" points="452,-101 452,-123 583,-123 583,-101 452,-101"/>
<text text-anchor="start" x="455" y="-109.2" font-family="Helvetica,sans-Serif" font-size="11.00">geometry[2147483647]</text>
<polygon fill="none" stroke="black" points="345,-79 345,-101 452,-101 452,-79 345,-79"/>
<text text-anchor="start" x="365" y="-87.2" font-family="Helvetica,sans-Serif" font-size="11.00">created_time</text>
<polygon fill="none" stroke="black" points="452,-79 452,-101 583,-101 583,-79 452,-79"/>
<text text-anchor="start" x="455" y="-87.2" font-family="Helvetica,sans-Serif" font-size="11.00">timestamptz[35,6]</text>
<polygon fill="none" stroke="black" points="345,-57 345,-79 452,-79 452,-57 345,-57"/>
<text text-anchor="start" x="365" y="-65.2" font-family="Helvetica,sans-Serif" font-size="11.00">modified_time</text>
<polygon fill="none" stroke="black" points="452,-57 452,-79 583,-79 583,-57 452,-57"/>
<text text-anchor="start" x="455" y="-65.2" font-family="Helvetica,sans-Serif" font-size="11.00">timestamptz[35,6]</text>
<polygon fill="#ffffff" stroke="none" points="345,-39 345,-57 389,-57 389,-39 345,-39"/>
<polygon fill="none" stroke="black" points="345,-39 345,-57 389,-57 389,-39 345,-39"/>
<text text-anchor="start" x="348" y="-45.2" font-family="Helvetica,sans-Serif" font-size="11.00">&lt; 1</text>
<polygon fill="#ffffff" stroke="none" points="389,-39 389,-57 452,-57 452,-39 389,-39"/>
<polygon fill="none" stroke="black" points="389,-39 389,-57 452,-57 452,-39 389,-39"/>
<text text-anchor="start" x="413" y="-45.2" font-family="Helvetica,sans-Serif" font-size="11.00">0 rows</text>
<polygon fill="#ffffff" stroke="none" points="452,-39 452,-57 583,-57 583,-39 452,-39"/>
<polygon fill="none" stroke="black" points="452,-39 452,-57 583,-57 583,-39 452,-39"/>
<text text-anchor="start" x="563" y="-45.2" font-family="Helvetica,sans-Serif" font-size="11.00">2 &gt;</text>
<polygon fill="none" stroke="black" stroke-width="2" points="344,-38 344,-278 584,-278 584,-38 344,-38"/>
</a>
</g>
</g>
<!-- facilities&#45;&gt;sites -->
<g id="edge6" class="edge"><title>facilities:site_id:w&#45;&gt;sites:id.type:e</title>
<path fill="none" stroke="black" d="M619.264,-208.589C606.363,-219.095 606.183,-244 584,-244"/>
<polygon fill="black" stroke="black" points="625.412,-206.535 634.141,-207.415 629.206,-205.267 633,-204 633,-204 633,-204 629.206,-205.267 631.859,-200.585 625.412,-206.535 625.412,-206.535"/>
<ellipse fill="none" stroke="black" cx="622.377" cy="-207.549" rx="3.20001" ry="3.20001"/>
</g>
<!-- collectors&#45;&gt;facilities -->
<g id="edge5" class="edge"><title>collectors:elipses:w&#45;&gt;facilities:id:e</title>
<path fill="none" stroke="black" d="M787.12,-150.395C760.031,-165.516 773.663,-226 733,-226"/>
<polygon fill="black" stroke="black" points="793.714,-148.838 802.327,-150.504 797.607,-147.919 801.5,-147 801.5,-147 801.5,-147 797.607,-147.919 800.673,-143.496 793.714,-148.838 793.714,-148.838"/>
<ellipse fill="none" stroke="black" cx="790.6" cy="-149.573" rx="3.2" ry="3.2"/>
</g>
<!-- storage_locations&#45;&gt;facilities -->
<g id="edge13" class="edge"><title>storage_locations:elipses:w&#45;&gt;facilities:id:e</title>
<path fill="none" stroke="black" d="M766.597,-249.016C755.246,-241.506 751.402,-226 733,-226"/>
<polygon fill="black" stroke="black" points="772.81,-250.796 779.508,-256.461 776.655,-251.898 780.5,-253 780.5,-253 780.5,-253 776.655,-251.898 781.492,-249.539 772.81,-250.796 772.81,-250.796"/>
<ellipse fill="none" stroke="black" cx="769.733" cy="-249.915" rx="3.20001" ry="3.20001"/>
</g>
<!-- projects -->
<g id="node9" class="node"><title>projects</title>
<g id="a_node9"><a xlink:href="../../tables/projects.html" xlink:title="projects" target="_top">
<polygon fill="#ffffff" stroke="none" points="182,-65 182,-167 294,-167 294,-65 182,-65"/>
<polygon fill="#f5f5f5" stroke="none" points="182,-145 182,-167 294,-167 294,-145 182,-145"/>
<polygon fill="none" stroke="black" points="182,-145 182,-167 294,-167 294,-145 182,-145"/>
<text text-anchor="start" x="187" y="-154.2" font-family="Helvetica,sans-Serif" font-weight="bold" font-size="11.00">projects</text>
<text text-anchor="start" x="255" y="-153.2" font-family="Helvetica,sans-Serif" font-size="11.00">[table]</text>
<polygon fill="none" stroke="black" points="182,-123 182,-145 294,-145 294,-123 182,-123"/>
<image xlink:href="../../images/primaryKeys.png" width="11px" height="12px" preserveAspectRatio="xMinYMin meet" x="187" y="-140"/>
<text text-anchor="start" x="202" y="-131.2" font-family="Helvetica,sans-Serif" font-size="11.00">id</text>
<polygon fill="none" stroke="black" points="182,-101 182,-123 294,-123 294,-101 182,-101"/>
<image xlink:href="../../images/foreignKeys.png" width="11px" height="12px" preserveAspectRatio="xMinYMin meet" x="187" y="-118"/>
<text text-anchor="start" x="202" y="-109.2" font-family="Helvetica,sans-Serif" font-size="11.00">organization_id</text>
<polygon fill="none" stroke="black" points="182,-83 182,-101 294,-101 294,-83 182,-83"/>
<text text-anchor="start" x="185" y="-89.2" font-family="Helvetica,sans-Serif" font-size="11.00">...</text>
<polygon fill="#ffffff" stroke="none" points="182,-65 182,-83 217,-83 217,-65 182,-65"/>
<polygon fill="none" stroke="black" points="182,-65 182,-83 217,-83 217,-65 182,-65"/>
<text text-anchor="start" x="185" y="-71.2" font-family="Helvetica,sans-Serif" font-size="11.00">&lt; 1</text>
<polygon fill="#ffffff" stroke="none" points="217,-65 217,-83 265,-83 265,-65 217,-65"/>
<polygon fill="none" stroke="black" points="217,-65 217,-83 265,-83 265,-65 217,-65"/>
<text text-anchor="start" x="226" y="-71.2" font-family="Helvetica,sans-Serif" font-size="11.00">0 rows</text>
<polygon fill="#ffffff" stroke="none" points="265,-65 265,-83 294,-83 294,-65 265,-65"/>
<polygon fill="none" stroke="black" points="265,-65 265,-83 294,-83 294,-65 265,-65"/>
<text text-anchor="start" x="274" y="-71.2" font-family="Helvetica,sans-Serif" font-size="11.00">1 &gt;</text>
</a>
</g>
</g>
<!-- sites&#45;&gt;projects -->
<g id="edge12" class="edge"><title>sites:project_id:w&#45;&gt;projects:id:e</title>
<path fill="none" stroke="black" d="M329.491,-134C318.177,-134 310.993,-134 295,-134"/>
<polygon fill="black" stroke="black" points="336,-134 344,-137.6 340,-134 344,-134 344,-134 344,-134 340,-134 344,-130.4 336,-134 336,-134"/>
<ellipse fill="none" stroke="black" cx="332.8" cy="-134" rx="3.2" ry="3.2"/>
</g>
<!-- notifications -->
<g id="node7" class="node"><title>notifications</title>
<g id="a_node7"><a xlink:href="../../tables/notifications.html" xlink:title="notifications" target="_top">
<polygon fill="#ffffff" stroke="none" points="1177,-119 1177,-287 1307,-287 1307,-119 1177,-119"/>
<polygon fill="#f5f5f5" stroke="none" points="1177,-265 1177,-287 1307,-287 1307,-265 1177,-265"/>
<polygon fill="none" stroke="black" points="1177,-265 1177,-287 1307,-287 1307,-265 1177,-265"/>
<text text-anchor="start" x="1182" y="-274.2" font-family="Helvetica,sans-Serif" font-weight="bold" font-size="11.00">notifications</text>
<text text-anchor="start" x="1268" y="-273.2" font-family="Helvetica,sans-Serif" font-size="11.00">[table]</text>
<polygon fill="none" stroke="black" points="1177,-243 1177,-265 1307,-265 1307,-243 1177,-243"/>
<image xlink:href="../../images/primaryKeys.png" width="11px" height="12px" preserveAspectRatio="xMinYMin meet" x="1182" y="-260"/>
<text text-anchor="start" x="1197" y="-251.2" font-family="Helvetica,sans-Serif" font-size="11.00">id</text>
<polygon fill="none" stroke="black" points="1177,-221 1177,-243 1307,-243 1307,-221 1177,-221"/>
<image xlink:href="../../images/foreignKeys.png" width="11px" height="12px" preserveAspectRatio="xMinYMin meet" x="1182" y="-238"/>
<text text-anchor="start" x="1197" y="-229.2" font-family="Helvetica,sans-Serif" font-size="11.00">site_id</text>
<polygon fill="none" stroke="black" points="1177,-199 1177,-221 1307,-221 1307,-199 1177,-199"/>
<image xlink:href="../../images/foreignKeys.png" width="11px" height="12px" preserveAspectRatio="xMinYMin meet" x="1182" y="-216"/>
<text text-anchor="start" x="1197" y="-207.2" font-family="Helvetica,sans-Serif" font-size="11.00">type_id</text>
<polygon fill="none" stroke="black" points="1177,-177 1177,-199 1307,-199 1307,-177 1177,-177"/>
<image xlink:href="../../images/foreignKeys.png" width="11px" height="12px" preserveAspectRatio="xMinYMin meet" x="1182" y="-194"/>
<text text-anchor="start" x="1197" y="-185.2" font-family="Helvetica,sans-Serif" font-size="11.00">accession_id</text>
<polygon fill="none" stroke="black" points="1177,-155 1177,-177 1307,-177 1307,-155 1177,-155"/>
<image xlink:href="../../images/foreignKeys.png" width="11px" height="12px" preserveAspectRatio="xMinYMin meet" x="1182" y="-172"/>
<text text-anchor="start" x="1197" y="-163.2" font-family="Helvetica,sans-Serif" font-size="11.00">accession_state_id</text>
<polygon fill="none" stroke="black" points="1177,-137 1177,-155 1307,-155 1307,-137 1177,-137"/>
<text text-anchor="start" x="1180" y="-143.2" font-family="Helvetica,sans-Serif" font-size="11.00">...</text>
<polygon fill="#ffffff" stroke="none" points="1177,-119 1177,-137 1226,-137 1226,-119 1177,-119"/>
<polygon fill="none" stroke="black" points="1177,-119 1177,-137 1226,-137 1226,-119 1177,-119"/>
<text text-anchor="start" x="1180" y="-125.2" font-family="Helvetica,sans-Serif" font-size="11.00">&lt; 4</text>
<polygon fill="#ffffff" stroke="none" points="1226,-119 1226,-137 1281,-137 1281,-119 1226,-119"/>
<polygon fill="none" stroke="black" points="1226,-119 1226,-137 1281,-137 1281,-119 1226,-119"/>
<text text-anchor="start" x="1242" y="-125.2" font-family="Helvetica,sans-Serif" font-size="11.00">0 rows</text>
<polygon fill="#ffffff" stroke="none" points="1281,-119 1281,-137 1307,-137 1307,-119 1281,-119"/>
<polygon fill="none" stroke="black" points="1281,-119 1281,-137 1307,-137 1307,-119 1281,-119"/>
<text text-anchor="start" x="1297" y="-125.2" font-family="Helvetica,sans-Serif" font-size="11.00"> &#160;</text>
</a>
</g>
</g>
<!-- notifications&#45;&gt;accessions -->
<g id="edge7" class="edge"><title>notifications:accession_id:w&#45;&gt;accessions:elipses:e</title>
<path fill="none" stroke="black" d="M1161.69,-185.895C1141.35,-179.384 1134.87,-160 1107.5,-160"/>
<polygon fill="black" stroke="black" points="1168.09,-186.836 1175.48,-191.562 1172.04,-187.418 1176,-188 1176,-188 1176,-188 1172.04,-187.418 1176.52,-184.438 1168.09,-186.836 1168.09,-186.836"/>
<ellipse fill="none" stroke="black" cx="1164.92" cy="-186.37" rx="3.2" ry="3.2"/>
</g>
<!-- notifications&#45;&gt;accession_states -->
<g id="edge8" class="edge"><title>notifications:accession_state_id:w&#45;&gt;accession_states:elipses:e</title>
<path fill="none" stroke="black" d="M1162.09,-161.327C1152.1,-152.278 1153.15,-132.342 1136,-122 1053.66,-72.3473 1022.65,-68 926.5,-68"/>
<polygon fill="black" stroke="black" points="1168.42,-163.453 1174.85,-169.413 1172.21,-164.726 1176,-166 1176,-166 1176,-166 1172.21,-164.726 1177.15,-162.587 1168.42,-163.453 1168.42,-163.453"/>
<ellipse fill="none" stroke="black" cx="1165.38" cy="-162.434" rx="3.20001" ry="3.20001"/>
</g>
<!-- notifications&#45;&gt;sites -->
<g id="edge9" class="edge"><title>notifications:site_id:w&#45;&gt;sites:id.type:e</title>
<path fill="none" stroke="black" d="M1162.31,-236.866C1151.86,-247.155 1155.31,-270.997 1136,-281 992.645,-355.274 933.881,-308.583 773,-295 706.964,-289.425 687.991,-293.431 626,-270 605.464,-262.238 605.954,-244 584,-244"/>
<polygon fill="black" stroke="black" points="1168.46,-234.68 1177.21,-235.392 1172.23,-233.34 1176,-232 1176,-232 1176,-232 1172.23,-233.34 1174.79,-228.608 1168.46,-234.68 1168.46,-234.68"/>
<ellipse fill="none" stroke="black" cx="1165.45" cy="-235.752" rx="3.20001" ry="3.20001"/>
</g>
<!-- notification_types -->
<g id="node8" class="node"><title>notification_types</title>
<g id="a_node8"><a xlink:href="../../tables/notification_types.html" xlink:title="notification_types" target="_top">
<polygon fill="#ffffff" stroke="none" points="977,-212 977,-270 1128,-270 1128,-212 977,-212"/>
<polygon fill="#f5f5f5" stroke="none" points="977.5,-248 977.5,-270 1128.5,-270 1128.5,-248 977.5,-248"/>
<polygon fill="none" stroke="black" points="977.5,-248 977.5,-270 1128.5,-270 1128.5,-248 977.5,-248"/>
<text text-anchor="start" x="982.5" y="-257.2" font-family="Helvetica,sans-Serif" font-weight="bold" font-size="11.00">notification_types</text>
<text text-anchor="start" x="1089.5" y="-256.2" font-family="Helvetica,sans-Serif" font-size="11.00">[table]</text>
<polygon fill="none" stroke="black" points="977.5,-230 977.5,-248 1128.5,-248 1128.5,-230 977.5,-230"/>
<text text-anchor="start" x="980.5" y="-236.2" font-family="Helvetica,sans-Serif" font-size="11.00">...</text>
<polygon fill="#ffffff" stroke="none" points="977.5,-212 977.5,-230 1026.5,-230 1026.5,-212 977.5,-212"/>
<polygon fill="none" stroke="black" points="977.5,-212 977.5,-230 1026.5,-230 1026.5,-212 977.5,-212"/>
<text text-anchor="start" x="980.5" y="-218.2" font-family="Helvetica,sans-Serif" font-size="11.00"> &#160;</text>
<polygon fill="#ffffff" stroke="none" points="1026.5,-212 1026.5,-230 1086.5,-230 1086.5,-212 1026.5,-212"/>
<polygon fill="none" stroke="black" points="1026.5,-212 1026.5,-230 1086.5,-230 1086.5,-212 1026.5,-212"/>
<text text-anchor="start" x="1047.5" y="-218.2" font-family="Helvetica,sans-Serif" font-size="11.00">3 rows</text>
<polygon fill="#ffffff" stroke="none" points="1086.5,-212 1086.5,-230 1128.5,-230 1128.5,-212 1086.5,-212"/>
<polygon fill="none" stroke="black" points="1086.5,-212 1086.5,-230 1128.5,-230 1128.5,-212 1086.5,-212"/>
<text text-anchor="start" x="1108.5" y="-218.2" font-family="Helvetica,sans-Serif" font-size="11.00">1 &gt;</text>
</a>
</g>
</g>
<!-- notifications&#45;&gt;notification_types -->
<g id="edge10" class="edge"><title>notifications:type_id:w&#45;&gt;notification_types:elipses:e</title>
<path fill="none" stroke="black" d="M1162.22,-214.279C1151.16,-222.346 1147.96,-239 1129.5,-239"/>
<polygon fill="black" stroke="black" points="1168.36,-212.373 1177.07,-213.438 1172.18,-211.187 1176,-210 1176,-210 1176,-210 1172.18,-211.187 1174.93,-206.562 1168.36,-212.373 1168.36,-212.373"/>
<ellipse fill="none" stroke="black" cx="1165.3" cy="-213.322" rx="3.20001" ry="3.20001"/>
</g>
<!-- organizations -->
<g id="node10" class="node"><title>organizations</title>
<g id="a_node10"><a xlink:href="../../tables/organizations.html" xlink:title="organizations" target="_top">
<polygon fill="#ffffff" stroke="none" points="8,-85 8,-143 133,-143 133,-85 8,-85"/>
<polygon fill="#f5f5f5" stroke="none" points="8.5,-121 8.5,-143 133.5,-143 133.5,-121 8.5,-121"/>
<polygon fill="none" stroke="black" points="8.5,-121 8.5,-143 133.5,-143 133.5,-121 8.5,-121"/>
<text text-anchor="start" x="13.5" y="-130.2" font-family="Helvetica,sans-Serif" font-weight="bold" font-size="11.00">organizations</text>
<text text-anchor="start" x="94.5" y="-129.2" font-family="Helvetica,sans-Serif" font-size="11.00">[table]</text>
<polygon fill="none" stroke="black" points="8.5,-103 8.5,-121 133.5,-121 133.5,-103 8.5,-103"/>
<text text-anchor="start" x="11.5" y="-109.2" font-family="Helvetica,sans-Serif" font-size="11.00">...</text>
<polygon fill="#ffffff" stroke="none" points="8.5,-85 8.5,-103 44.5,-103 44.5,-85 8.5,-85"/>
<polygon fill="none" stroke="black" points="8.5,-85 8.5,-103 44.5,-103 44.5,-85 8.5,-85"/>
<text text-anchor="start" x="11.5" y="-91.2" font-family="Helvetica,sans-Serif" font-size="11.00"> &#160;</text>
<polygon fill="#ffffff" stroke="none" points="44.5,-85 44.5,-103 98.5,-103 98.5,-85 44.5,-85"/>
<polygon fill="none" stroke="black" points="44.5,-85 44.5,-103 98.5,-103 98.5,-85 44.5,-85"/>
<text text-anchor="start" x="59.5" y="-91.2" font-family="Helvetica,sans-Serif" font-size="11.00">0 rows</text>
<polygon fill="#ffffff" stroke="none" points="98.5,-85 98.5,-103 133.5,-103 133.5,-85 98.5,-85"/>
<polygon fill="none" stroke="black" points="98.5,-85 98.5,-103 133.5,-103 133.5,-85 98.5,-85"/>
<text text-anchor="start" x="113.5" y="-91.2" font-family="Helvetica,sans-Serif" font-size="11.00">1 &gt;</text>
</a>
</g>
</g>
<!-- projects&#45;&gt;organizations -->
<g id="edge11" class="edge"><title>projects:organization_id:w&#45;&gt;organizations:elipses:e</title>
<path fill="none" stroke="black" d="M166.551,-112C156.201,-112 149.354,-112 134.5,-112"/>
<polygon fill="black" stroke="black" points="173,-112 181,-115.6 177,-112 181,-112 181,-112 181,-112 177,-112 181,-108.4 173,-112 173,-112"/>
<ellipse fill="none" stroke="black" cx="169.8" cy="-112" rx="3.2" ry="3.2"/>
</g>
</g>
</svg>
