<?xml version="1.0" encoding="UTF-8" standalone="no"?>
<!DOCTYPE svg PUBLIC "-//W3C//DTD SVG 1.1//EN"
 "http://www.w3.org/Graphics/SVG/1.1/DTD/svg11.dtd">
<!-- Generated by graphviz version 2.38.0 (20140413.2041)
 -->
<!-- Title: oneDegreeRelationshipsDiagram Pages: 1 -->
<svg width="624pt" height="394pt"
 viewBox="0.00 0.00 624.00 394.00" xmlns="http://www.w3.org/2000/svg" xmlns:xlink="http://www.w3.org/1999/xlink">
<g id="graph0" class="graph" transform="scale(1 1) rotate(0) translate(4 390)">
<title>oneDegreeRelationshipsDiagram</title>
<polygon fill="#ffffff" stroke="none" points="-4,4 -4,-390 620,-390 620,4 -4,4"/>
<text text-anchor="middle" x="74.5" y="-7.2" font-family="Helvetica,sans-Serif" font-size="11.00">Generated by SchemaSpy</text>
<!-- facilities -->
<g id="node1" class="node"><title>facilities</title>
<g id="a_node1"><a xlink:href="../../tables/facilities.html" xlink:title="facilities" target="_top">
<polygon fill="#ffffff" stroke="none" points="489.5,-280 489.5,-382 596.5,-382 596.5,-280 489.5,-280"/>
<polygon fill="#f5f5f5" stroke="none" points="490,-360 490,-382 597,-382 597,-360 490,-360"/>
<polygon fill="none" stroke="black" points="490,-360 490,-382 597,-382 597,-360 490,-360"/>
<text text-anchor="start" x="495" y="-369.2" font-family="Helvetica,sans-Serif" font-weight="bold" font-size="11.00">facilities</text>
<text text-anchor="start" x="558" y="-368.2" font-family="Helvetica,sans-Serif" font-size="11.00">[table]</text>
<polygon fill="none" stroke="black" points="490,-338 490,-360 597,-360 597,-338 490,-338"/>
<image xlink:href="../../images/primaryKeys.png" width="11px" height="12px" preserveAspectRatio="xMinYMin meet" x="495" y="-355"/>
<text text-anchor="start" x="510" y="-346.2" font-family="Helvetica,sans-Serif" font-size="11.00">id</text>
<polygon fill="none" stroke="black" points="490,-316 490,-338 597,-338 597,-316 490,-316"/>
<image xlink:href="../../images/foreignKeys.png" width="11px" height="12px" preserveAspectRatio="xMinYMin meet" x="495" y="-333"/>
<text text-anchor="start" x="510" y="-324.2" font-family="Helvetica,sans-Serif" font-size="11.00">site_id</text>
<polygon fill="none" stroke="black" points="490,-298 490,-316 597,-316 597,-298 490,-298"/>
<text text-anchor="start" x="493" y="-304.2" font-family="Helvetica,sans-Serif" font-size="11.00">...</text>
<polygon fill="#ffffff" stroke="none" points="490,-280 490,-298 522,-298 522,-280 490,-280"/>
<polygon fill="none" stroke="black" points="490,-280 490,-298 522,-298 522,-280 490,-280"/>
<text text-anchor="start" x="493" y="-286.2" font-family="Helvetica,sans-Serif" font-size="11.00">&lt; 1</text>
<polygon fill="#ffffff" stroke="none" points="522,-280 522,-298 569,-298 569,-280 522,-280"/>
<polygon fill="none" stroke="black" points="522,-280 522,-298 569,-298 569,-280 522,-280"/>
<text text-anchor="start" x="530" y="-286.2" font-family="Helvetica,sans-Serif" font-size="11.00">0 rows</text>
<polygon fill="#ffffff" stroke="none" points="569,-280 569,-298 597,-298 597,-280 569,-280"/>
<polygon fill="none" stroke="black" points="569,-280 569,-298 597,-298 597,-280 569,-280"/>
<text text-anchor="start" x="577" y="-286.2" font-family="Helvetica,sans-Serif" font-size="11.00">3 &gt;</text>
</a>
</g>
</g>
<!-- sites -->
<g id="node2" class="node"><title>sites</title>
<g id="a_node2"><a xlink:href="../../tables/sites.html" xlink:title="sites" target="_top">
<polygon fill="#ffffff" stroke="none" points="187,-37 187,-301 429,-301 429,-37 187,-37"/>
<polygon fill="#f5f5f5" stroke="none" points="189,-277 189,-299 427,-299 427,-277 189,-277"/>
<polygon fill="none" stroke="black" points="189,-277 189,-299 427,-299 427,-277 189,-277"/>
<text text-anchor="start" x="194" y="-286.2" font-family="Helvetica,sans-Serif" font-weight="bold" font-size="11.00">sites</text>
<text text-anchor="start" x="388" y="-285.2" font-family="Helvetica,sans-Serif" font-size="11.00">[table]</text>
<polygon fill="none" stroke="black" points="189,-255 189,-277 296,-277 296,-255 189,-255"/>
<image xlink:href="../../images/primaryKeys.png" width="11px" height="12px" preserveAspectRatio="xMinYMin meet" x="194" y="-272"/>
<text text-anchor="start" x="209" y="-263.2" font-family="Helvetica,sans-Serif" font-size="11.00">id</text>
<polygon fill="none" stroke="black" points="296,-255 296,-277 427,-277 427,-255 296,-255"/>
<text text-anchor="start" x="299" y="-263.2" font-family="Helvetica,sans-Serif" font-size="11.00">int8[19]</text>
<polygon fill="none" stroke="black" points="189,-233 189,-255 296,-255 296,-233 189,-233"/>
<text text-anchor="start" x="209" y="-241.2" font-family="Helvetica,sans-Serif" font-size="11.00">name</text>
<polygon fill="none" stroke="black" points="296,-233 296,-255 427,-255 427,-233 296,-233"/>
<text text-anchor="start" x="299" y="-241.2" font-family="Helvetica,sans-Serif" font-size="11.00">text[2147483647]</text>
<polygon fill="none" stroke="black" points="189,-211 189,-233 296,-233 296,-211 189,-211"/>
<text text-anchor="start" x="209" y="-219.2" font-family="Helvetica,sans-Serif" font-size="11.00">locale</text>
<polygon fill="none" stroke="black" points="296,-211 296,-233 427,-233 427,-211 296,-211"/>
<text text-anchor="start" x="299" y="-219.2" font-family="Helvetica,sans-Serif" font-size="11.00">text[2147483647]</text>
<polygon fill="none" stroke="black" points="189,-189 189,-211 296,-211 296,-189 189,-189"/>
<text text-anchor="start" x="209" y="-197.2" font-family="Helvetica,sans-Serif" font-size="11.00">timezone</text>
<polygon fill="none" stroke="black" points="296,-189 296,-211 427,-211 427,-189 296,-189"/>
<text text-anchor="start" x="299" y="-197.2" font-family="Helvetica,sans-Serif" font-size="11.00">text[2147483647]</text>
<polygon fill="none" stroke="black" points="189,-167 189,-189 296,-189 296,-167 189,-167"/>
<text text-anchor="start" x="209" y="-175.2" font-family="Helvetica,sans-Serif" font-size="11.00">enabled</text>
<polygon fill="none" stroke="black" points="296,-167 296,-189 427,-189 427,-167 296,-167"/>
<text text-anchor="start" x="299" y="-175.2" font-family="Helvetica,sans-Serif" font-size="11.00">bool[1]</text>
<polygon fill="none" stroke="black" points="189,-145 189,-167 296,-167 296,-145 189,-145"/>
<image xlink:href="../../images/foreignKeys.png" width="11px" height="12px" preserveAspectRatio="xMinYMin meet" x="194" y="-162"/>
<text text-anchor="start" x="209" y="-153.2" font-family="Helvetica,sans-Serif" font-size="11.00">project_id</text>
<polygon fill="none" stroke="black" points="296,-145 296,-167 427,-167 427,-145 296,-145"/>
<text text-anchor="start" x="299" y="-153.2" font-family="Helvetica,sans-Serif" font-size="11.00">int8[19]</text>
<polygon fill="none" stroke="black" points="189,-123 189,-145 296,-145 296,-123 189,-123"/>
<text text-anchor="start" x="209" y="-131.2" font-family="Helvetica,sans-Serif" font-size="11.00">location</text>
<polygon fill="none" stroke="black" points="296,-123 296,-145 427,-145 427,-123 296,-123"/>
<text text-anchor="start" x="299" y="-131.2" font-family="Helvetica,sans-Serif" font-size="11.00">geometry[2147483647]</text>
<polygon fill="none" stroke="black" points="189,-101 189,-123 296,-123 296,-101 189,-101"/>
<text text-anchor="start" x="209" y="-109.2" font-family="Helvetica,sans-Serif" font-size="11.00">created_time</text>
<polygon fill="none" stroke="black" points="296,-101 296,-123 427,-123 427,-101 296,-101"/>
<text text-anchor="start" x="299" y="-109.2" font-family="Helvetica,sans-Serif" font-size="11.00">timestamptz[35,6]</text>
<polygon fill="none" stroke="black" points="189,-79 189,-101 296,-101 296,-79 189,-79"/>
<text text-anchor="start" x="209" y="-87.2" font-family="Helvetica,sans-Serif" font-size="11.00">modified_time</text>
<polygon fill="none" stroke="black" points="296,-79 296,-101 427,-101 427,-79 296,-79"/>
<text text-anchor="start" x="299" y="-87.2" font-family="Helvetica,sans-Serif" font-size="11.00">timestamptz[35,6]</text>
<polygon fill="none" stroke="black" points="189,-57 189,-79 296,-79 296,-57 189,-57"/>
<text text-anchor="start" x="209" y="-65.2" font-family="Helvetica,sans-Serif" font-size="11.00">description</text>
<polygon fill="none" stroke="black" points="296,-57 296,-79 427,-79 427,-57 296,-57"/>
<text text-anchor="start" x="299" y="-65.2" font-family="Helvetica,sans-Serif" font-size="11.00">text[2147483647]</text>
<polygon fill="#ffffff" stroke="none" points="189,-39 189,-57 233,-57 233,-39 189,-39"/>
<polygon fill="none" stroke="black" points="189,-39 189,-57 233,-57 233,-39 189,-39"/>
<text text-anchor="start" x="192" y="-45.2" font-family="Helvetica,sans-Serif" font-size="11.00">&lt; 1</text>
<polygon fill="#ffffff" stroke="none" points="233,-39 233,-57 296,-57 296,-39 233,-39"/>
<polygon fill="none" stroke="black" points="233,-39 233,-57 296,-57 296,-39 233,-39"/>
<text text-anchor="start" x="257" y="-45.2" font-family="Helvetica,sans-Serif" font-size="11.00">0 rows</text>
<polygon fill="#ffffff" stroke="none" points="296,-39 296,-57 427,-57 427,-39 296,-39"/>
<polygon fill="none" stroke="black" points="296,-39 296,-57 427,-57 427,-39 296,-39"/>
<text text-anchor="start" x="407" y="-45.2" font-family="Helvetica,sans-Serif" font-size="11.00">2 &gt;</text>
<polygon fill="none" stroke="black" stroke-width="2" points="188,-38 188,-300 428,-300 428,-38 188,-38"/>
</a>
</g>
</g>
<!-- facilities&#45;&gt;sites -->
<g id="edge1" class="edge"><title>facilities:site_id:w&#45;&gt;sites:id.type:e</title>
<path fill="none" stroke="black" d="M474.856,-323.184C454.183,-309.83 460.5,-266 428,-266"/>
<polygon fill="black" stroke="black" points="481.276,-324.916 488.062,-330.476 485.138,-325.958 489,-327 489,-327 489,-327 485.138,-325.958 489.938,-323.524 481.276,-324.916 481.276,-324.916"/>
<ellipse fill="none" stroke="black" cx="478.187" cy="-324.083" rx="3.2" ry="3.2"/>
</g>
<!-- projects -->
<g id="node4" class="node"><title>projects</title>
<g id="a_node4"><a xlink:href="../../tables/projects.html" xlink:title="projects" target="_top">
<polygon fill="#ffffff" stroke="none" points="8,-87 8,-189 138,-189 138,-87 8,-87"/>
<polygon fill="#f5f5f5" stroke="none" points="8,-167 8,-189 138,-189 138,-167 8,-167"/>
<polygon fill="none" stroke="black" points="8,-167 8,-189 138,-189 138,-167 8,-167"/>
<text text-anchor="start" x="13" y="-176.2" font-family="Helvetica,sans-Serif" font-weight="bold" font-size="11.00">projects</text>
<text text-anchor="start" x="99" y="-175.2" font-family="Helvetica,sans-Serif" font-size="11.00">[table]</text>
<polygon fill="none" stroke="black" points="8,-145 8,-167 138,-167 138,-145 8,-145"/>
<image xlink:href="../../images/primaryKeys.png" width="11px" height="12px" preserveAspectRatio="xMinYMin meet" x="13" y="-162"/>
<text text-anchor="start" x="28" y="-153.2" font-family="Helvetica,sans-Serif" font-size="11.00">id</text>
<polygon fill="none" stroke="black" points="8,-123 8,-145 138,-145 138,-123 8,-123"/>
<image xlink:href="../../images/foreignKeys.png" width="11px" height="12px" preserveAspectRatio="xMinYMin meet" x="13" y="-140"/>
<text text-anchor="start" x="28" y="-131.2" font-family="Helvetica,sans-Serif" font-size="11.00">organization_id</text>
<polygon fill="none" stroke="black" points="8,-105 8,-123 138,-123 138,-105 8,-105"/>
<text text-anchor="start" x="11" y="-111.2" font-family="Helvetica,sans-Serif" font-size="11.00">...</text>
<polygon fill="#ffffff" stroke="none" points="8,-87 8,-105 52,-105 52,-87 8,-87"/>
<polygon fill="none" stroke="black" points="8,-87 8,-105 52,-105 52,-87 8,-87"/>
<text text-anchor="start" x="11" y="-93.2" font-family="Helvetica,sans-Serif" font-size="11.00">&lt; 1</text>
<polygon fill="#ffffff" stroke="none" points="52,-87 52,-105 104,-105 104,-87 52,-87"/>
<polygon fill="none" stroke="black" points="52,-87 52,-105 104,-105 104,-87 52,-87"/>
<text text-anchor="start" x="65" y="-93.2" font-family="Helvetica,sans-Serif" font-size="11.00">0 rows</text>
<polygon fill="#ffffff" stroke="none" points="104,-87 104,-105 138,-105 138,-87 104,-87"/>
<polygon fill="none" stroke="black" points="104,-87 104,-105 138,-105 138,-87 104,-87"/>
<text text-anchor="start" x="118" y="-93.2" font-family="Helvetica,sans-Serif" font-size="11.00">1 &gt;</text>
</a>
</g>
</g>
<!-- sites&#45;&gt;projects -->
<g id="edge3" class="edge"><title>sites:project_id:w&#45;&gt;projects:id:e</title>
<path fill="none" stroke="black" d="M173.491,-156C162.177,-156 154.993,-156 139,-156"/>
<polygon fill="black" stroke="black" points="180,-156 188,-159.6 184,-156 188,-156 188,-156 188,-156 184,-156 188,-152.4 180,-156 180,-156"/>
<ellipse fill="none" stroke="black" cx="176.8" cy="-156" rx="3.2" ry="3.2"/>
</g>
<!-- notifications -->
<g id="node3" class="node"><title>notifications</title>
<g id="a_node3"><a xlink:href="../../tables/notifications.html" xlink:title="notifications" target="_top">
<polygon fill="#ffffff" stroke="none" points="478,-91 478,-259 608,-259 608,-91 478,-91"/>
<polygon fill="#f5f5f5" stroke="none" points="478,-237 478,-259 608,-259 608,-237 478,-237"/>
<polygon fill="none" stroke="black" points="478,-237 478,-259 608,-259 608,-237 478,-237"/>
<text text-anchor="start" x="483" y="-246.2" font-family="Helvetica,sans-Serif" font-weight="bold" font-size="11.00">notifications</text>
<text text-anchor="start" x="569" y="-245.2" font-family="Helvetica,sans-Serif" font-size="11.00">[table]</text>
<polygon fill="none" stroke="black" points="478,-215 478,-237 608,-237 608,-215 478,-215"/>
<image xlink:href="../../images/primaryKeys.png" width="11px" height="12px" preserveAspectRatio="xMinYMin meet" x="483" y="-232"/>
<text text-anchor="start" x="498" y="-223.2" font-family="Helvetica,sans-Serif" font-size="11.00">id</text>
<polygon fill="none" stroke="black" points="478,-193 478,-215 608,-215 608,-193 478,-193"/>
<image xlink:href="../../images/foreignKeys.png" width="11px" height="12px" preserveAspectRatio="xMinYMin meet" x="483" y="-210"/>
<text text-anchor="start" x="498" y="-201.2" font-family="Helvetica,sans-Serif" font-size="11.00">site_id</text>
<polygon fill="none" stroke="black" points="478,-171 478,-193 608,-193 608,-171 478,-171"/>
<image xlink:href="../../images/foreignKeys.png" width="11px" height="12px" preserveAspectRatio="xMinYMin meet" x="483" y="-188"/>
<text text-anchor="start" x="498" y="-179.2" font-family="Helvetica,sans-Serif" font-size="11.00">type_id</text>
<polygon fill="none" stroke="black" points="478,-149 478,-171 608,-171 608,-149 478,-149"/>
<image xlink:href="../../images/foreignKeys.png" width="11px" height="12px" preserveAspectRatio="xMinYMin meet" x="483" y="-166"/>
<text text-anchor="start" x="498" y="-157.2" font-family="Helvetica,sans-Serif" font-size="11.00">accession_id</text>
<polygon fill="none" stroke="black" points="478,-127 478,-149 608,-149 608,-127 478,-127"/>
<image xlink:href="../../images/foreignKeys.png" width="11px" height="12px" preserveAspectRatio="xMinYMin meet" x="483" y="-144"/>
<text text-anchor="start" x="498" y="-135.2" font-family="Helvetica,sans-Serif" font-size="11.00">accession_state_id</text>
<polygon fill="none" stroke="black" points="478,-109 478,-127 608,-127 608,-109 478,-109"/>
<text text-anchor="start" x="481" y="-115.2" font-family="Helvetica,sans-Serif" font-size="11.00">...</text>
<polygon fill="#ffffff" stroke="none" points="478,-91 478,-109 527,-109 527,-91 478,-91"/>
<polygon fill="none" stroke="black" points="478,-91 478,-109 527,-109 527,-91 478,-91"/>
<text text-anchor="start" x="481" y="-97.2" font-family="Helvetica,sans-Serif" font-size="11.00">&lt; 4</text>
<polygon fill="#ffffff" stroke="none" points="527,-91 527,-109 582,-109 582,-91 527,-91"/>
<polygon fill="none" stroke="black" points="527,-91 527,-109 582,-109 582,-91 527,-91"/>
<text text-anchor="start" x="543" y="-97.2" font-family="Helvetica,sans-Serif" font-size="11.00">0 rows</text>
<polygon fill="#ffffff" stroke="none" points="582,-91 582,-109 608,-109 608,-91 582,-91"/>
<polygon fill="none" stroke="black" points="582,-91 582,-109 608,-109 608,-91 582,-91"/>
<text text-anchor="start" x="598" y="-97.2" font-family="Helvetica,sans-Serif" font-size="11.00"> &#160;</text>
</a>
</g>
</g>
<!-- notifications&#45;&gt;sites -->
<g id="edge2" class="edge"><title>notifications:site_id:w&#45;&gt;sites:id.type:e</title>
<path fill="none" stroke="black" d="M463.313,-208.865C447.515,-223.481 457.086,-266 428,-266"/>
<polygon fill="black" stroke="black" points="469.462,-206.679 478.206,-207.392 473.231,-205.34 477,-204 477,-204 477,-204 473.231,-205.34 475.794,-200.608 469.462,-206.679 469.462,-206.679"/>
<ellipse fill="none" stroke="black" cx="466.447" cy="-207.751" rx="3.20001" ry="3.20001"/>
</g>
</g>
</svg>
