<?xml version="1.0" encoding="UTF-8" standalone="no"?>
<!DOCTYPE svg PUBLIC "-//W3C//DTD SVG 1.1//EN"
 "http://www.w3.org/Graphics/SVG/1.1/DTD/svg11.dtd">
<!-- Generated by graphviz version 2.38.0 (20140413.2041)
 -->
<!-- Title: largeRelationshipsDiagram Pages: 1 -->
<svg width="1165pt" height="713pt"
 viewBox="0.00 0.00 1165.00 713.00" xmlns="http://www.w3.org/2000/svg" xmlns:xlink="http://www.w3.org/1999/xlink">
<g id="graph0" class="graph" transform="scale(1 1) rotate(0) translate(4 709)">
<title>largeRelationshipsDiagram</title>
<polygon fill="#ffffff" stroke="none" points="-4,4 -4,-709 1161,-709 1161,4 -4,4"/>
<text text-anchor="middle" x="74.5" y="-7.2" font-family="Helvetica,sans-Serif" font-size="11.00">Generated by SchemaSpy</text>
<!-- automations -->
<g id="node1" class="node"><title>automations</title>
<g id="a_node1"><a xlink:href="../../tables/automations.html" xlink:title="automations" target="_top">
<polygon fill="#ffffff" stroke="none" points="658,-507 658,-701 779,-701 779,-507 658,-507"/>
<polygon fill="#f5f5f5" stroke="none" points="658.5,-679 658.5,-701 779.5,-701 779.5,-679 658.5,-679"/>
<polygon fill="none" stroke="black" points="658.5,-679 658.5,-701 779.5,-701 779.5,-679 658.5,-679"/>
<text text-anchor="start" x="663.5" y="-688.2" font-family="Helvetica,sans-Serif" font-weight="bold" font-size="11.00">automations</text>
<text text-anchor="start" x="740.5" y="-687.2" font-family="Helvetica,sans-Serif" font-size="11.00">[table]</text>
<polygon fill="none" stroke="black" points="658.5,-657 658.5,-679 779.5,-679 779.5,-657 658.5,-657"/>
<image xlink:href="../../images/primaryKeys.png" width="11px" height="12px" preserveAspectRatio="xMinYMin meet" x="663.5" y="-674"/>
<text text-anchor="start" x="685.5" y="-665.2" font-family="Helvetica,sans-Serif" font-size="11.00">id</text>
<polygon fill="#ffffff" stroke="none" points="658.5,-635 658.5,-657 779.5,-657 779.5,-635 658.5,-635"/>
<polygon fill="none" stroke="black" points="658.5,-635 658.5,-657 779.5,-657 779.5,-635 658.5,-635"/>
<image xlink:href="../../images/foreignKeys.png" width="11px" height="12px" preserveAspectRatio="xMinYMin meet" x="663.5" y="-652"/>
<text text-anchor="start" x="685.5" y="-643.2" font-family="Helvetica,sans-Serif" font-size="11.00">facility_id</text>
<polygon fill="#ffffff" stroke="none" points="658.5,-613 658.5,-635 779.5,-635 779.5,-613 658.5,-613"/>
<polygon fill="none" stroke="black" points="658.5,-613 658.5,-635 779.5,-635 779.5,-613 658.5,-613"/>
<text text-anchor="start" x="685.5" y="-621.2" font-family="Helvetica,sans-Serif" font-size="11.00">name</text>
<polygon fill="none" stroke="black" points="658.5,-591 658.5,-613 779.5,-613 779.5,-591 658.5,-591"/>
<text text-anchor="start" x="685.5" y="-599.2" font-family="Helvetica,sans-Serif" font-size="11.00">description</text>
<polygon fill="none" stroke="black" points="658.5,-569 658.5,-591 779.5,-591 779.5,-569 658.5,-569"/>
<text text-anchor="start" x="685.5" y="-577.2" font-family="Helvetica,sans-Serif" font-size="11.00">created_time</text>
<polygon fill="none" stroke="black" points="658.5,-547 658.5,-569 779.5,-569 779.5,-547 658.5,-547"/>
<text text-anchor="start" x="685.5" y="-555.2" font-family="Helvetica,sans-Serif" font-size="11.00">modified_time</text>
<polygon fill="none" stroke="black" points="658.5,-525 658.5,-547 779.5,-547 779.5,-525 658.5,-525"/>
<text text-anchor="start" x="685.5" y="-533.2" font-family="Helvetica,sans-Serif" font-size="11.00">configuration</text>
<polygon fill="#ffffff" stroke="none" points="658.5,-507 658.5,-525 702.5,-525 702.5,-507 658.5,-507"/>
<polygon fill="none" stroke="black" points="658.5,-507 658.5,-525 702.5,-525 702.5,-507 658.5,-507"/>
<text text-anchor="start" x="661.5" y="-513.2" font-family="Helvetica,sans-Serif" font-size="11.00">&lt; 1</text>
<polygon fill="#ffffff" stroke="none" points="702.5,-507 702.5,-525 755.5,-525 755.5,-507 702.5,-507"/>
<polygon fill="none" stroke="black" points="702.5,-507 702.5,-525 755.5,-525 755.5,-507 702.5,-507"/>
<text text-anchor="start" x="716.5" y="-513.2" font-family="Helvetica,sans-Serif" font-size="11.00">0 rows</text>
<polygon fill="#ffffff" stroke="none" points="755.5,-507 755.5,-525 779.5,-525 779.5,-507 755.5,-507"/>
<polygon fill="none" stroke="black" points="755.5,-507 755.5,-525 779.5,-525 779.5,-507 755.5,-507"/>
<text text-anchor="start" x="769.5" y="-513.2" font-family="Helvetica,sans-Serif" font-size="11.00"> &#160;</text>
</a>
</g>
</g>
<!-- facilities -->
<g id="node3" class="node"><title>facilities</title>
<g id="a_node3"><a xlink:href="../../tables/facilities.html" xlink:title="facilities" target="_top">
<polygon fill="#ffffff" stroke="none" points="499,-316 499,-510 597,-510 597,-316 499,-316"/>
<polygon fill="#f5f5f5" stroke="none" points="499,-488 499,-510 597,-510 597,-488 499,-488"/>
<polygon fill="none" stroke="black" points="499,-488 499,-510 597,-510 597,-488 499,-488"/>
<text text-anchor="start" x="504" y="-497.2" font-family="Helvetica,sans-Serif" font-weight="bold" font-size="11.00">facilities</text>
<text text-anchor="start" x="558" y="-496.2" font-family="Helvetica,sans-Serif" font-size="11.00">[table]</text>
<polygon fill="none" stroke="black" points="499,-466 499,-488 597,-488 597,-466 499,-466"/>
<image xlink:href="../../images/primaryKeys.png" width="11px" height="12px" preserveAspectRatio="xMinYMin meet" x="504" y="-483"/>
<text text-anchor="start" x="529" y="-474.2" font-family="Helvetica,sans-Serif" font-size="11.00">id</text>
<polygon fill="none" stroke="black" points="499,-444 499,-466 597,-466 597,-444 499,-444"/>
<image xlink:href="../../images/foreignKeys.png" width="11px" height="12px" preserveAspectRatio="xMinYMin meet" x="504" y="-461"/>
<text text-anchor="start" x="529" y="-452.2" font-family="Helvetica,sans-Serif" font-size="11.00">site_id</text>
<polygon fill="none" stroke="black" points="499,-422 499,-444 597,-444 597,-422 499,-422"/>
<text text-anchor="start" x="529" y="-430.2" font-family="Helvetica,sans-Serif" font-size="11.00">type_id</text>
<polygon fill="none" stroke="black" points="499,-400 499,-422 597,-422 597,-400 499,-400"/>
<text text-anchor="start" x="529" y="-408.2" font-family="Helvetica,sans-Serif" font-size="11.00">name</text>
<polygon fill="none" stroke="black" points="499,-378 499,-400 597,-400 597,-378 499,-378"/>
<text text-anchor="start" x="529" y="-386.2" font-family="Helvetica,sans-Serif" font-size="11.00">latitude</text>
<polygon fill="none" stroke="black" points="499,-356 499,-378 597,-378 597,-356 499,-356"/>
<text text-anchor="start" x="529" y="-364.2" font-family="Helvetica,sans-Serif" font-size="11.00">longitude</text>
<polygon fill="none" stroke="black" points="499,-334 499,-356 597,-356 597,-334 499,-334"/>
<text text-anchor="start" x="529" y="-342.2" font-family="Helvetica,sans-Serif" font-size="11.00">enabled</text>
<polygon fill="#ffffff" stroke="none" points="499,-316 499,-334 527,-334 527,-316 499,-316"/>
<polygon fill="none" stroke="black" points="499,-316 499,-334 527,-334 527,-316 499,-316"/>
<text text-anchor="start" x="502" y="-322.2" font-family="Helvetica,sans-Serif" font-size="11.00">&lt; 1</text>
<polygon fill="#ffffff" stroke="none" points="527,-316 527,-334 571,-334 571,-316 527,-316"/>
<polygon fill="none" stroke="black" points="527,-316 527,-334 571,-334 571,-316 527,-316"/>
<text text-anchor="start" x="532" y="-322.2" font-family="Helvetica,sans-Serif" font-size="11.00">0 rows</text>
<polygon fill="#ffffff" stroke="none" points="571,-316 571,-334 597,-334 597,-316 571,-316"/>
<polygon fill="none" stroke="black" points="571,-316 571,-334 597,-334 597,-316 571,-316"/>
<text text-anchor="start" x="577" y="-322.2" font-family="Helvetica,sans-Serif" font-size="11.00">2 &gt;</text>
</a>
</g>
</g>
<!-- automations&#45;&gt;facilities -->
<g id="edge1" class="edge"><title>automations:facility_id:w&#45;&gt;facilities:id:e</title>
<path fill="none" stroke="black" d="M643.239,-643.611C591.012,-623.07 672.031,-477 598,-477"/>
<polygon fill="black" stroke="black" points="649.61,-644.678 656.905,-649.551 653.555,-645.339 657.5,-646 657.5,-646 657.5,-646 653.555,-645.339 658.095,-642.449 649.61,-644.678 649.61,-644.678"/>
<ellipse fill="none" stroke="black" cx="646.454" cy="-644.149" rx="3.2" ry="3.2"/>
</g>
<!-- devices -->
<g id="node2" class="node"><title>devices</title>
<g id="a_node2"><a xlink:href="../../tables/devices.html" xlink:title="devices" target="_top">
<polygon fill="#ffffff" stroke="none" points="662,-37 662,-363 775,-363 775,-37 662,-37"/>
<polygon fill="#f5f5f5" stroke="none" points="662.5,-341 662.5,-363 775.5,-363 775.5,-341 662.5,-341"/>
<polygon fill="none" stroke="black" points="662.5,-341 662.5,-363 775.5,-363 775.5,-341 662.5,-341"/>
<text text-anchor="start" x="667.5" y="-350.2" font-family="Helvetica,sans-Serif" font-weight="bold" font-size="11.00">devices</text>
<text text-anchor="start" x="736.5" y="-349.2" font-family="Helvetica,sans-Serif" font-size="11.00">[table]</text>
<polygon fill="none" stroke="black" points="662.5,-319 662.5,-341 775.5,-341 775.5,-319 662.5,-319"/>
<image xlink:href="../../images/primaryKeys.png" width="11px" height="12px" preserveAspectRatio="xMinYMin meet" x="667.5" y="-336"/>
<text text-anchor="start" x="682.5" y="-327.2" font-family="Helvetica,sans-Serif" font-size="11.00">id</text>
<polygon fill="none" stroke="black" points="662.5,-297 662.5,-319 775.5,-319 775.5,-297 662.5,-297"/>
<image xlink:href="../../images/foreignKeys.png" width="11px" height="12px" preserveAspectRatio="xMinYMin meet" x="667.5" y="-314"/>
<text text-anchor="start" x="682.5" y="-305.2" font-family="Helvetica,sans-Serif" font-size="11.00">facility_id</text>
<polygon fill="none" stroke="black" points="662.5,-275 662.5,-297 775.5,-297 775.5,-275 662.5,-275"/>
<text text-anchor="start" x="682.5" y="-283.2" font-family="Helvetica,sans-Serif" font-size="11.00">name</text>
<polygon fill="none" stroke="black" points="662.5,-253 662.5,-275 775.5,-275 775.5,-253 662.5,-253"/>
<text text-anchor="start" x="682.5" y="-261.2" font-family="Helvetica,sans-Serif" font-size="11.00">device_type</text>
<polygon fill="none" stroke="black" points="662.5,-231 662.5,-253 775.5,-253 775.5,-231 662.5,-231"/>
<text text-anchor="start" x="682.5" y="-239.2" font-family="Helvetica,sans-Serif" font-size="11.00">make</text>
<polygon fill="none" stroke="black" points="662.5,-209 662.5,-231 775.5,-231 775.5,-209 662.5,-209"/>
<text text-anchor="start" x="682.5" y="-217.2" font-family="Helvetica,sans-Serif" font-size="11.00">model</text>
<polygon fill="none" stroke="black" points="662.5,-187 662.5,-209 775.5,-209 775.5,-187 662.5,-187"/>
<text text-anchor="start" x="682.5" y="-195.2" font-family="Helvetica,sans-Serif" font-size="11.00">protocol</text>
<polygon fill="none" stroke="black" points="662.5,-165 662.5,-187 775.5,-187 775.5,-165 662.5,-165"/>
<text text-anchor="start" x="682.5" y="-173.2" font-family="Helvetica,sans-Serif" font-size="11.00">address</text>
<polygon fill="none" stroke="black" points="662.5,-143 662.5,-165 775.5,-165 775.5,-143 662.5,-143"/>
<text text-anchor="start" x="682.5" y="-151.2" font-family="Helvetica,sans-Serif" font-size="11.00">port</text>
<polygon fill="none" stroke="black" points="662.5,-121 662.5,-143 775.5,-143 775.5,-121 662.5,-121"/>
<text text-anchor="start" x="682.5" y="-129.2" font-family="Helvetica,sans-Serif" font-size="11.00">polling_interval</text>
<polygon fill="none" stroke="black" points="662.5,-99 662.5,-121 775.5,-121 775.5,-99 662.5,-99"/>
<text text-anchor="start" x="682.5" y="-107.2" font-family="Helvetica,sans-Serif" font-size="11.00">enabled</text>
<polygon fill="none" stroke="black" points="662.5,-77 662.5,-99 775.5,-99 775.5,-77 662.5,-77"/>
<text text-anchor="start" x="682.5" y="-85.2" font-family="Helvetica,sans-Serif" font-size="11.00">settings</text>
<polygon fill="none" stroke="black" points="662.5,-55 662.5,-77 775.5,-77 775.5,-55 662.5,-55"/>
<image xlink:href="../../images/foreignKeys.png" width="11px" height="12px" preserveAspectRatio="xMinYMin meet" x="667.5" y="-72"/>
<text text-anchor="start" x="682.5" y="-63.2" font-family="Helvetica,sans-Serif" font-size="11.00">parent_id</text>
<polygon fill="#ffffff" stroke="none" points="662.5,-37 662.5,-55 697.5,-55 697.5,-37 662.5,-37"/>
<polygon fill="none" stroke="black" points="662.5,-37 662.5,-55 697.5,-55 697.5,-37 662.5,-37"/>
<text text-anchor="start" x="665.5" y="-43.2" font-family="Helvetica,sans-Serif" font-size="11.00">&lt; 2</text>
<polygon fill="#ffffff" stroke="none" points="697.5,-37 697.5,-55 745.5,-55 745.5,-37 697.5,-37"/>
<polygon fill="none" stroke="black" points="697.5,-37 697.5,-55 745.5,-55 745.5,-37 697.5,-37"/>
<text text-anchor="start" x="706.5" y="-43.2" font-family="Helvetica,sans-Serif" font-size="11.00">0 rows</text>
<polygon fill="#ffffff" stroke="none" points="745.5,-37 745.5,-55 775.5,-55 775.5,-37 745.5,-37"/>
<polygon fill="none" stroke="black" points="745.5,-37 745.5,-55 775.5,-55 775.5,-37 745.5,-37"/>
<text text-anchor="start" x="755.5" y="-43.2" font-family="Helvetica,sans-Serif" font-size="11.00">2 &gt;</text>
</a>
</g>
</g>
<!-- devices&#45;&gt;devices -->
<g id="edge3" class="edge"><title>devices:parent_id:w&#45;&gt;devices:id:e</title>
<path fill="none" stroke="black" d="M655.26,-78.9326C620.363,-155.827 625.994,-380 719,-380 818,-380 818,-371.333 775.5,-330"/>
<polygon fill="black" stroke="black" points="658.592,-72.9806 665.641,-67.7585 660.546,-69.4903 662.5,-66 662.5,-66 662.5,-66 660.546,-69.4903 659.359,-64.2415 658.592,-72.9806 658.592,-72.9806"/>
<ellipse fill="none" stroke="black" cx="657.029" cy="-75.7729" rx="3.20001" ry="3.20001"/>
</g>
<!-- devices&#45;&gt;facilities -->
<g id="edge2" class="edge"><title>devices:facility_id:w&#45;&gt;facilities:id:e</title>
<path fill="none" stroke="black" d="M647.08,-310.389C594.023,-330.93 672.596,-477 598,-477"/>
<polygon fill="black" stroke="black" points="653.608,-309.308 662.088,-311.552 657.554,-308.654 661.5,-308 661.5,-308 661.5,-308 657.554,-308.654 660.912,-304.448 653.608,-309.308 653.608,-309.308"/>
<ellipse fill="none" stroke="black" cx="650.451" cy="-309.831" rx="3.2" ry="3.2"/>
</g>
<!-- sites -->
<g id="node6" class="node"><title>sites</title>
<g id="a_node6"><a xlink:href="../../tables/sites.html" xlink:title="sites" target="_top">
<polygon fill="#ffffff" stroke="none" points="343,-250 343,-488 450,-488 450,-250 343,-250"/>
<polygon fill="#f5f5f5" stroke="none" points="343.5,-466 343.5,-488 450.5,-488 450.5,-466 343.5,-466"/>
<polygon fill="none" stroke="black" points="343.5,-466 343.5,-488 450.5,-488 450.5,-466 343.5,-466"/>
<text text-anchor="start" x="348.5" y="-475.2" font-family="Helvetica,sans-Serif" font-weight="bold" font-size="11.00">sites</text>
<text text-anchor="start" x="411.5" y="-474.2" font-family="Helvetica,sans-Serif" font-size="11.00">[table]</text>
<polygon fill="none" stroke="black" points="343.5,-444 343.5,-466 450.5,-466 450.5,-444 343.5,-444"/>
<image xlink:href="../../images/primaryKeys.png" width="11px" height="12px" preserveAspectRatio="xMinYMin meet" x="348.5" y="-461"/>
<text text-anchor="start" x="363.5" y="-452.2" font-family="Helvetica,sans-Serif" font-size="11.00">id</text>
<polygon fill="none" stroke="black" points="343.5,-422 343.5,-444 450.5,-444 450.5,-422 343.5,-422"/>
<text text-anchor="start" x="363.5" y="-430.2" font-family="Helvetica,sans-Serif" font-size="11.00">name</text>
<polygon fill="none" stroke="black" points="343.5,-400 343.5,-422 450.5,-422 450.5,-400 343.5,-400"/>
<text text-anchor="start" x="363.5" y="-408.2" font-family="Helvetica,sans-Serif" font-size="11.00">locale</text>
<polygon fill="none" stroke="black" points="343.5,-378 343.5,-400 450.5,-400 450.5,-378 343.5,-378"/>
<text text-anchor="start" x="363.5" y="-386.2" font-family="Helvetica,sans-Serif" font-size="11.00">timezone</text>
<polygon fill="none" stroke="black" points="343.5,-356 343.5,-378 450.5,-378 450.5,-356 343.5,-356"/>
<text text-anchor="start" x="363.5" y="-364.2" font-family="Helvetica,sans-Serif" font-size="11.00">enabled</text>
<polygon fill="none" stroke="black" points="343.5,-334 343.5,-356 450.5,-356 450.5,-334 343.5,-334"/>
<image xlink:href="../../images/foreignKeys.png" width="11px" height="12px" preserveAspectRatio="xMinYMin meet" x="348.5" y="-351"/>
<text text-anchor="start" x="363.5" y="-342.2" font-family="Helvetica,sans-Serif" font-size="11.00">project_id</text>
<polygon fill="none" stroke="black" points="343.5,-312 343.5,-334 450.5,-334 450.5,-312 343.5,-312"/>
<text text-anchor="start" x="363.5" y="-320.2" font-family="Helvetica,sans-Serif" font-size="11.00">location</text>
<polygon fill="none" stroke="black" points="343.5,-290 343.5,-312 450.5,-312 450.5,-290 343.5,-290"/>
<text text-anchor="start" x="363.5" y="-298.2" font-family="Helvetica,sans-Serif" font-size="11.00">created_time</text>
<polygon fill="none" stroke="black" points="343.5,-268 343.5,-290 450.5,-290 450.5,-268 343.5,-268"/>
<text text-anchor="start" x="363.5" y="-276.2" font-family="Helvetica,sans-Serif" font-size="11.00">modified_time</text>
<polygon fill="#ffffff" stroke="none" points="343.5,-250 343.5,-268 375.5,-268 375.5,-250 343.5,-250"/>
<polygon fill="none" stroke="black" points="343.5,-250 343.5,-268 375.5,-268 375.5,-250 343.5,-250"/>
<text text-anchor="start" x="346.5" y="-256.2" font-family="Helvetica,sans-Serif" font-size="11.00">&lt; 1</text>
<polygon fill="#ffffff" stroke="none" points="375.5,-250 375.5,-268 422.5,-268 422.5,-250 375.5,-250"/>
<polygon fill="none" stroke="black" points="375.5,-250 375.5,-268 422.5,-268 422.5,-250 375.5,-250"/>
<text text-anchor="start" x="383.5" y="-256.2" font-family="Helvetica,sans-Serif" font-size="11.00">0 rows</text>
<polygon fill="#ffffff" stroke="none" points="422.5,-250 422.5,-268 450.5,-268 450.5,-250 422.5,-250"/>
<polygon fill="none" stroke="black" points="422.5,-250 422.5,-268 450.5,-268 450.5,-250 422.5,-250"/>
<text text-anchor="start" x="430.5" y="-256.2" font-family="Helvetica,sans-Serif" font-size="11.00">1 &gt;</text>
</a>
</g>
</g>
<!-- facilities&#45;&gt;sites -->
<g id="edge4" class="edge"><title>facilities:site_id:w&#45;&gt;sites:id:e</title>
<path fill="none" stroke="black" d="M483.551,-455C473.201,-455 466.354,-455 451.5,-455"/>
<polygon fill="black" stroke="black" points="490,-455 498,-458.6 494,-455 498,-455 498,-455 498,-455 494,-455 498,-451.4 490,-455 490,-455"/>
<ellipse fill="none" stroke="black" cx="486.8" cy="-455" rx="3.2" ry="3.2"/>
</g>
<!-- organizations -->
<g id="node4" class="node"><title>organizations</title>
<g id="a_node4"><a xlink:href="../../tables/organizations.html" xlink:title="organizations" target="_top">
<polygon fill="#ffffff" stroke="none" points="8,-184 8,-356 133,-356 133,-184 8,-184"/>
<polygon fill="#f5f5f5" stroke="none" points="8.5,-334 8.5,-356 133.5,-356 133.5,-334 8.5,-334"/>
<polygon fill="none" stroke="black" points="8.5,-334 8.5,-356 133.5,-356 133.5,-334 8.5,-334"/>
<text text-anchor="start" x="13.5" y="-343.2" font-family="Helvetica,sans-Serif" font-weight="bold" font-size="11.00">organizations</text>
<text text-anchor="start" x="94.5" y="-342.2" font-family="Helvetica,sans-Serif" font-size="11.00">[table]</text>
<polygon fill="none" stroke="black" points="8.5,-312 8.5,-334 133.5,-334 133.5,-312 8.5,-312"/>
<image xlink:href="../../images/primaryKeys.png" width="11px" height="12px" preserveAspectRatio="xMinYMin meet" x="13.5" y="-329"/>
<text text-anchor="start" x="37.5" y="-320.2" font-family="Helvetica,sans-Serif" font-size="11.00">id</text>
<polygon fill="none" stroke="black" points="8.5,-290 8.5,-312 133.5,-312 133.5,-290 8.5,-290"/>
<text text-anchor="start" x="37.5" y="-298.2" font-family="Helvetica,sans-Serif" font-size="11.00">name</text>
<polygon fill="none" stroke="black" points="8.5,-268 8.5,-290 133.5,-290 133.5,-268 8.5,-268"/>
<text text-anchor="start" x="37.5" y="-276.2" font-family="Helvetica,sans-Serif" font-size="11.00">location</text>
<polygon fill="none" stroke="black" points="8.5,-246 8.5,-268 133.5,-268 133.5,-246 8.5,-246"/>
<text text-anchor="start" x="37.5" y="-254.2" font-family="Helvetica,sans-Serif" font-size="11.00">created_time</text>
<polygon fill="none" stroke="black" points="8.5,-224 8.5,-246 133.5,-246 133.5,-224 8.5,-224"/>
<text text-anchor="start" x="37.5" y="-232.2" font-family="Helvetica,sans-Serif" font-size="11.00">modified_time</text>
<polygon fill="none" stroke="black" points="8.5,-202 8.5,-224 133.5,-224 133.5,-202 8.5,-202"/>
<text text-anchor="start" x="37.5" y="-210.2" font-family="Helvetica,sans-Serif" font-size="11.00">disabled_time</text>
<polygon fill="#ffffff" stroke="none" points="8.5,-184 8.5,-202 44.5,-202 44.5,-184 8.5,-184"/>
<polygon fill="none" stroke="black" points="8.5,-184 8.5,-202 44.5,-202 44.5,-184 8.5,-184"/>
<text text-anchor="start" x="11.5" y="-190.2" font-family="Helvetica,sans-Serif" font-size="11.00"> &#160;</text>
<polygon fill="#ffffff" stroke="none" points="44.5,-184 44.5,-202 98.5,-202 98.5,-184 44.5,-184"/>
<polygon fill="none" stroke="black" points="44.5,-184 44.5,-202 98.5,-202 98.5,-184 44.5,-184"/>
<text text-anchor="start" x="59.5" y="-190.2" font-family="Helvetica,sans-Serif" font-size="11.00">0 rows</text>
<polygon fill="#ffffff" stroke="none" points="98.5,-184 98.5,-202 133.5,-202 133.5,-184 98.5,-184"/>
<polygon fill="none" stroke="black" points="98.5,-184 98.5,-202 133.5,-202 133.5,-184 98.5,-184"/>
<text text-anchor="start" x="113.5" y="-190.2" font-family="Helvetica,sans-Serif" font-size="11.00">1 &gt;</text>
</a>
</g>
</g>
<!-- projects -->
<g id="node5" class="node"><title>projects</title>
<g id="a_node5"><a xlink:href="../../tables/projects.html" xlink:title="projects" target="_top">
<polygon fill="#ffffff" stroke="none" points="182,-52 182,-378 294,-378 294,-52 182,-52"/>
<polygon fill="#f5f5f5" stroke="none" points="182,-356 182,-378 294,-378 294,-356 182,-356"/>
<polygon fill="none" stroke="black" points="182,-356 182,-378 294,-378 294,-356 182,-356"/>
<text text-anchor="start" x="187" y="-365.2" font-family="Helvetica,sans-Serif" font-weight="bold" font-size="11.00">projects</text>
<text text-anchor="start" x="255" y="-364.2" font-family="Helvetica,sans-Serif" font-size="11.00">[table]</text>
<polygon fill="none" stroke="black" points="182,-334 182,-356 294,-356 294,-334 182,-334"/>
<image xlink:href="../../images/primaryKeys.png" width="11px" height="12px" preserveAspectRatio="xMinYMin meet" x="187" y="-351"/>
<text text-anchor="start" x="202" y="-342.2" font-family="Helvetica,sans-Serif" font-size="11.00">id</text>
<polygon fill="none" stroke="black" points="182,-312 182,-334 294,-334 294,-312 182,-312"/>
<image xlink:href="../../images/foreignKeys.png" width="11px" height="12px" preserveAspectRatio="xMinYMin meet" x="187" y="-329"/>
<text text-anchor="start" x="202" y="-320.2" font-family="Helvetica,sans-Serif" font-size="11.00">organization_id</text>
<polygon fill="none" stroke="black" points="182,-290 182,-312 294,-312 294,-290 182,-290"/>
<text text-anchor="start" x="202" y="-298.2" font-family="Helvetica,sans-Serif" font-size="11.00">name</text>
<polygon fill="none" stroke="black" points="182,-268 182,-290 294,-290 294,-268 182,-268"/>
<text text-anchor="start" x="202" y="-276.2" font-family="Helvetica,sans-Serif" font-size="11.00">description</text>
<polygon fill="none" stroke="black" points="182,-246 182,-268 294,-268 294,-246 182,-246"/>
<text text-anchor="start" x="202" y="-254.2" font-family="Helvetica,sans-Serif" font-size="11.00">location</text>
<polygon fill="none" stroke="black" points="182,-224 182,-246 294,-246 294,-224 182,-224"/>
<text text-anchor="start" x="202" y="-232.2" font-family="Helvetica,sans-Serif" font-size="11.00">type_id</text>
<polygon fill="none" stroke="black" points="182,-202 182,-224 294,-224 294,-202 182,-202"/>
<text text-anchor="start" x="202" y="-210.2" font-family="Helvetica,sans-Serif" font-size="11.00">status_id</text>
<polygon fill="none" stroke="black" points="182,-180 182,-202 294,-202 294,-180 182,-180"/>
<text text-anchor="start" x="202" y="-188.2" font-family="Helvetica,sans-Serif" font-size="11.00">start_date</text>
<polygon fill="none" stroke="black" points="182,-158 182,-180 294,-180 294,-158 182,-158"/>
<text text-anchor="start" x="202" y="-166.2" font-family="Helvetica,sans-Serif" font-size="11.00">end_date</text>
<polygon fill="none" stroke="black" points="182,-136 182,-158 294,-158 294,-136 182,-136"/>
<text text-anchor="start" x="202" y="-144.2" font-family="Helvetica,sans-Serif" font-size="11.00">created_time</text>
<polygon fill="none" stroke="black" points="182,-114 182,-136 294,-136 294,-114 182,-114"/>
<text text-anchor="start" x="202" y="-122.2" font-family="Helvetica,sans-Serif" font-size="11.00">modified_time</text>
<polygon fill="none" stroke="black" points="182,-92 182,-114 294,-114 294,-92 182,-92"/>
<text text-anchor="start" x="202" y="-100.2" font-family="Helvetica,sans-Serif" font-size="11.00">disabled_time</text>
<polygon fill="none" stroke="black" points="182,-70 182,-92 294,-92 294,-70 182,-70"/>
<text text-anchor="start" x="202" y="-78.2" font-family="Helvetica,sans-Serif" font-size="11.00">pm_user_id</text>
<polygon fill="#ffffff" stroke="none" points="182,-52 182,-70 217,-70 217,-52 182,-52"/>
<polygon fill="none" stroke="black" points="182,-52 182,-70 217,-70 217,-52 182,-52"/>
<text text-anchor="start" x="185" y="-58.2" font-family="Helvetica,sans-Serif" font-size="11.00">&lt; 1</text>
<polygon fill="#ffffff" stroke="none" points="217,-52 217,-70 265,-70 265,-52 217,-52"/>
<polygon fill="none" stroke="black" points="217,-52 217,-70 265,-70 265,-52 217,-52"/>
<text text-anchor="start" x="226" y="-58.2" font-family="Helvetica,sans-Serif" font-size="11.00">0 rows</text>
<polygon fill="#ffffff" stroke="none" points="265,-52 265,-70 294,-70 294,-52 265,-52"/>
<polygon fill="none" stroke="black" points="265,-52 265,-70 294,-70 294,-52 265,-52"/>
<text text-anchor="start" x="274" y="-58.2" font-family="Helvetica,sans-Serif" font-size="11.00">1 &gt;</text>
</a>
</g>
</g>
<!-- projects&#45;&gt;organizations -->
<g id="edge5" class="edge"><title>projects:organization_id:w&#45;&gt;organizations:id:e</title>
<path fill="none" stroke="black" d="M166.551,-323C156.201,-323 149.354,-323 134.5,-323"/>
<polygon fill="black" stroke="black" points="173,-323 181,-326.6 177,-323 181,-323 181,-323 181,-323 177,-323 181,-319.4 173,-323 173,-323"/>
<ellipse fill="none" stroke="black" cx="169.8" cy="-323" rx="3.2" ry="3.2"/>
</g>
<!-- sites&#45;&gt;projects -->
<g id="edge6" class="edge"><title>sites:project_id:w&#45;&gt;projects:id:e</title>
<path fill="none" stroke="black" d="M328.086,-345C317.319,-345 310.339,-345 295,-345"/>
<polygon fill="black" stroke="black" points="334.5,-345 342.5,-348.6 338.5,-345 342.5,-345 342.5,-345 342.5,-345 338.5,-345 342.5,-341.4 334.5,-345 334.5,-345"/>
<ellipse fill="none" stroke="black" cx="331.3" cy="-345" rx="3.2" ry="3.2"/>
</g>
<!-- timeseries -->
<g id="node7" class="node"><title>timeseries</title>
<g id="a_node7"><a xlink:href="../../tables/timeseries.html" xlink:title="timeseries" target="_top">
<polygon fill="#ffffff" stroke="none" points="840,-285 840,-457 950,-457 950,-285 840,-285"/>
<polygon fill="#f5f5f5" stroke="none" points="840,-435 840,-457 950,-457 950,-435 840,-435"/>
<polygon fill="none" stroke="black" points="840,-435 840,-457 950,-457 950,-435 840,-435"/>
<text text-anchor="start" x="845" y="-444.2" font-family="Helvetica,sans-Serif" font-weight="bold" font-size="11.00">timeseries</text>
<text text-anchor="start" x="911" y="-443.2" font-family="Helvetica,sans-Serif" font-size="11.00">[table]</text>
<polygon fill="none" stroke="black" points="840,-413 840,-435 950,-435 950,-413 840,-413"/>
<image xlink:href="../../images/primaryKeys.png" width="11px" height="12px" preserveAspectRatio="xMinYMin meet" x="845" y="-430"/>
<text text-anchor="start" x="860" y="-421.2" font-family="Helvetica,sans-Serif" font-size="11.00">id</text>
<polygon fill="none" stroke="black" points="840,-391 840,-413 950,-413 950,-391 840,-391"/>
<image xlink:href="../../images/foreignKeys.png" width="11px" height="12px" preserveAspectRatio="xMinYMin meet" x="845" y="-408"/>
<text text-anchor="start" x="860" y="-399.2" font-family="Helvetica,sans-Serif" font-size="11.00">type_id</text>
<polygon fill="#ffffff" stroke="none" points="840,-369 840,-391 950,-391 950,-369 840,-369"/>
<polygon fill="none" stroke="black" points="840,-369 840,-391 950,-391 950,-369 840,-369"/>
<image xlink:href="../../images/foreignKeys.png" width="11px" height="12px" preserveAspectRatio="xMinYMin meet" x="845" y="-386"/>
<text text-anchor="start" x="860" y="-377.2" font-family="Helvetica,sans-Serif" font-size="11.00">device_id</text>
<polygon fill="#ffffff" stroke="none" points="840,-347 840,-369 950,-369 950,-347 840,-347"/>
<polygon fill="none" stroke="black" points="840,-347 840,-369 950,-369 950,-347 840,-347"/>
<text text-anchor="start" x="860" y="-355.2" font-family="Helvetica,sans-Serif" font-size="11.00">name</text>
<polygon fill="none" stroke="black" points="840,-325 840,-347 950,-347 950,-325 840,-325"/>
<text text-anchor="start" x="860" y="-333.2" font-family="Helvetica,sans-Serif" font-size="11.00">units</text>
<polygon fill="none" stroke="black" points="840,-303 840,-325 950,-325 950,-303 840,-303"/>
<text text-anchor="start" x="860" y="-311.2" font-family="Helvetica,sans-Serif" font-size="11.00">decimal_places</text>
<polygon fill="#ffffff" stroke="none" points="840,-285 840,-303 874,-303 874,-285 840,-285"/>
<polygon fill="none" stroke="black" points="840,-285 840,-303 874,-303 874,-285 840,-285"/>
<text text-anchor="start" x="843" y="-291.2" font-family="Helvetica,sans-Serif" font-size="11.00">&lt; 2</text>
<polygon fill="#ffffff" stroke="none" points="874,-285 874,-303 921,-303 921,-285 874,-285"/>
<polygon fill="none" stroke="black" points="874,-285 874,-303 921,-303 921,-285 874,-285"/>
<text text-anchor="start" x="882" y="-291.2" font-family="Helvetica,sans-Serif" font-size="11.00">0 rows</text>
<polygon fill="#ffffff" stroke="none" points="921,-285 921,-303 950,-303 950,-285 921,-285"/>
<polygon fill="none" stroke="black" points="921,-285 921,-303 950,-303 950,-285 921,-285"/>
<text text-anchor="start" x="930" y="-291.2" font-family="Helvetica,sans-Serif" font-size="11.00">1 &gt;</text>
</a>
</g>
</g>
<!-- timeseries&#45;&gt;devices -->
<g id="edge7" class="edge"><title>timeseries:device_id:w&#45;&gt;devices:id:e</title>
<path fill="none" stroke="black" d="M824.948,-376.563C805.062,-365.267 806.376,-330 776.5,-330"/>
<polygon fill="black" stroke="black" points="831.229,-378.099 838.145,-383.497 835.115,-379.05 839,-380 839,-380 839,-380 835.115,-379.05 839.855,-376.503 831.229,-378.099 831.229,-378.099"/>
<ellipse fill="none" stroke="black" cx="828.121" cy="-377.339" rx="3.2" ry="3.2"/>
</g>
<!-- timeseries_types -->
<g id="node8" class="node"><title>timeseries_types</title>
<g id="a_node8"><a xlink:href="../../tables/timeseries_types.html" xlink:title="timeseries_types" target="_top">
<polygon fill="#ffffff" stroke="none" points="646,-402 646,-486 791,-486 791,-402 646,-402"/>
<polygon fill="#f5f5f5" stroke="none" points="646.5,-464 646.5,-486 791.5,-486 791.5,-464 646.5,-464"/>
<polygon fill="none" stroke="black" points="646.5,-464 646.5,-486 791.5,-486 791.5,-464 646.5,-464"/>
<text text-anchor="start" x="651.5" y="-473.2" font-family="Helvetica,sans-Serif" font-weight="bold" font-size="11.00">timeseries_types</text>
<text text-anchor="start" x="752.5" y="-472.2" font-family="Helvetica,sans-Serif" font-size="11.00">[table]</text>
<polygon fill="none" stroke="black" points="646.5,-442 646.5,-464 791.5,-464 791.5,-442 646.5,-442"/>
<image xlink:href="../../images/primaryKeys.png" width="11px" height="12px" preserveAspectRatio="xMinYMin meet" x="651.5" y="-459"/>
<text text-anchor="start" x="678.5" y="-450.2" font-family="Helvetica,sans-Serif" font-size="11.00">id</text>
<polygon fill="none" stroke="black" points="646.5,-420 646.5,-442 791.5,-442 791.5,-420 646.5,-420"/>
<text text-anchor="start" x="678.5" y="-428.2" font-family="Helvetica,sans-Serif" font-size="11.00">name</text>
<polygon fill="#ffffff" stroke="none" points="646.5,-402 646.5,-420 692.5,-420 692.5,-402 646.5,-402"/>
<polygon fill="none" stroke="black" points="646.5,-402 646.5,-420 692.5,-420 692.5,-402 646.5,-402"/>
<text text-anchor="start" x="649.5" y="-408.2" font-family="Helvetica,sans-Serif" font-size="11.00"> &#160;</text>
<polygon fill="#ffffff" stroke="none" points="692.5,-402 692.5,-420 751.5,-420 751.5,-402 692.5,-402"/>
<polygon fill="none" stroke="black" points="692.5,-402 692.5,-420 751.5,-420 751.5,-402 692.5,-402"/>
<text text-anchor="start" x="712.5" y="-408.2" font-family="Helvetica,sans-Serif" font-size="11.00">2 rows</text>
<polygon fill="#ffffff" stroke="none" points="751.5,-402 751.5,-420 791.5,-420 791.5,-402 751.5,-402"/>
<polygon fill="none" stroke="black" points="751.5,-402 751.5,-420 791.5,-420 791.5,-402 751.5,-402"/>
<text text-anchor="start" x="771.5" y="-408.2" font-family="Helvetica,sans-Serif" font-size="11.00">1 &gt;</text>
</a>
</g>
</g>
<!-- timeseries&#45;&gt;timeseries_types -->
<g id="edge8" class="edge"><title>timeseries:type_id:w&#45;&gt;timeseries_types:id:e</title>
<path fill="none" stroke="black" d="M825.18,-407.458C812.48,-420.615 816.943,-453 792.5,-453"/>
<polygon fill="black" stroke="black" points="831.559,-404.939 840.322,-405.348 835.28,-403.469 839,-402 839,-402 839,-402 835.28,-403.469 837.678,-398.652 831.559,-404.939 831.559,-404.939"/>
<ellipse fill="none" stroke="black" cx="828.583" cy="-406.114" rx="3.20001" ry="3.20001"/>
</g>
<!-- timeseries_values -->
<g id="node9" class="node"><title>timeseries_values</title>
<g id="a_node9"><a xlink:href="../../tables/timeseries_values.html" xlink:title="timeseries_values" target="_top">
<polygon fill="#ffffff" stroke="none" points="999,-351 999,-457 1149,-457 1149,-351 999,-351"/>
<polygon fill="#f5f5f5" stroke="none" points="999,-435 999,-457 1149,-457 1149,-435 999,-435"/>
<polygon fill="none" stroke="black" points="999,-435 999,-457 1149,-457 1149,-435 999,-435"/>
<text text-anchor="start" x="1004" y="-444.2" font-family="Helvetica,sans-Serif" font-weight="bold" font-size="11.00">timeseries_values</text>
<text text-anchor="start" x="1110" y="-443.2" font-family="Helvetica,sans-Serif" font-size="11.00">[table]</text>
<polygon fill="#ffffff" stroke="none" points="999,-413 999,-435 1149,-435 1149,-413 999,-413"/>
<polygon fill="none" stroke="black" points="999,-413 999,-435 1149,-435 1149,-413 999,-413"/>
<image xlink:href="../../images/foreignKeys.png" width="11px" height="12px" preserveAspectRatio="xMinYMin meet" x="1004" y="-430"/>
<text text-anchor="start" x="1031" y="-421.2" font-family="Helvetica,sans-Serif" font-size="11.00">timeseries_id</text>
<polygon fill="#ffffff" stroke="none" points="999,-391 999,-413 1149,-413 1149,-391 999,-391"/>
<polygon fill="none" stroke="black" points="999,-391 999,-413 1149,-413 1149,-391 999,-391"/>
<text text-anchor="start" x="1031" y="-399.2" font-family="Helvetica,sans-Serif" font-size="11.00">created_time</text>
<polygon fill="none" stroke="black" points="999,-369 999,-391 1149,-391 1149,-369 999,-369"/>
<text text-anchor="start" x="1031" y="-377.2" font-family="Helvetica,sans-Serif" font-size="11.00">value</text>
<polygon fill="#ffffff" stroke="none" points="999,-351 999,-369 1058,-369 1058,-351 999,-351"/>
<polygon fill="none" stroke="black" points="999,-351 999,-369 1058,-369 1058,-351 999,-351"/>
<text text-anchor="start" x="1002" y="-357.2" font-family="Helvetica,sans-Serif" font-size="11.00">&lt; 1</text>
<polygon fill="#ffffff" stroke="none" points="1058,-351 1058,-369 1118,-369 1118,-351 1058,-351"/>
<polygon fill="none" stroke="black" points="1058,-351 1058,-369 1118,-369 1118,-351 1058,-351"/>
<text text-anchor="start" x="1079" y="-357.2" font-family="Helvetica,sans-Serif" font-size="11.00">0 rows</text>
<polygon fill="#ffffff" stroke="none" points="1118,-351 1118,-369 1149,-369 1149,-351 1118,-351"/>
<polygon fill="none" stroke="black" points="1118,-351 1118,-369 1149,-369 1149,-351 1118,-351"/>
<text text-anchor="start" x="1139" y="-357.2" font-family="Helvetica,sans-Serif" font-size="11.00"> &#160;</text>
</a>
</g>
</g>
<!-- timeseries_values&#45;&gt;timeseries -->
<g id="edge9" class="edge"><title>timeseries_values:timeseries_id:w&#45;&gt;timeseries:id:e</title>
<path fill="none" stroke="black" d="M983.396,-424C972.934,-424 966.014,-424 951,-424"/>
<polygon fill="black" stroke="black" points="990,-424 998,-427.6 994,-424 998,-424 998,-424 998,-424 994,-424 998,-420.4 990,-424 990,-424"/>
<ellipse fill="none" stroke="black" cx="986.8" cy="-424" rx="3.2" ry="3.2"/>
</g>
</g>
</svg>
