<?xml version="1.0" encoding="UTF-8" standalone="no"?>
<!DOCTYPE svg PUBLIC "-//W3C//DTD SVG 1.1//EN"
 "http://www.w3.org/Graphics/SVG/1.1/DTD/svg11.dtd">
<!-- Generated by graphviz version 2.38.0 (20140413.2041)
 -->
<!-- Title: oneDegreeRelationshipsDiagram Pages: 1 -->
<svg width="555pt" height="239pt"
 viewBox="0.00 0.00 555.00 239.00" xmlns="http://www.w3.org/2000/svg" xmlns:xlink="http://www.w3.org/1999/xlink">
<g id="graph0" class="graph" transform="scale(1 1) rotate(0) translate(4 235)">
<title>oneDegreeRelationshipsDiagram</title>
<polygon fill="#ffffff" stroke="none" points="-4,4 -4,-235 551,-235 551,4 -4,4"/>
<text text-anchor="middle" x="74.5" y="-7.2" font-family="Helvetica,sans-Serif" font-size="11.00">Generated by SchemaSpy</text>
<!-- batch_quantity_history -->
<g id="node1" class="node"><title>batch_quantity_history</title>
<g id="a_node1"><a xlink:href="../../tables/batch_quantity_history.html" xlink:title="batch_quantity_history" target="_top">
<polygon fill="#ffffff" stroke="none" points="358,-37 358,-227 539,-227 539,-37 358,-37"/>
<polygon fill="#f5f5f5" stroke="none" points="358.5,-205 358.5,-227 539.5,-227 539.5,-205 358.5,-205"/>
<polygon fill="none" stroke="black" points="358.5,-205 358.5,-227 539.5,-227 539.5,-205 358.5,-205"/>
<text text-anchor="start" x="363.5" y="-214.2" font-family="Helvetica,sans-Serif" font-weight="bold" font-size="11.00">batch_quantity_history</text>
<text text-anchor="start" x="500.5" y="-213.2" font-family="Helvetica,sans-Serif" font-size="11.00">[table]</text>
<polygon fill="none" stroke="black" points="358.5,-183 358.5,-205 539.5,-205 539.5,-183 358.5,-183"/>
<image xlink:href="../../images/primaryKeys.png" width="11px" height="12px" preserveAspectRatio="xMinYMin meet" x="363.5" y="-200"/>
<text text-anchor="start" x="390.5" y="-191.2" font-family="Helvetica,sans-Serif" font-size="11.00">id</text>
<polygon fill="#ffffff" stroke="none" points="358.5,-161 358.5,-183 539.5,-183 539.5,-161 358.5,-161"/>
<polygon fill="none" stroke="black" points="358.5,-161 358.5,-183 539.5,-183 539.5,-161 358.5,-161"/>
<image xlink:href="../../images/foreignKeys.png" width="11px" height="12px" preserveAspectRatio="xMinYMin meet" x="363.5" y="-178"/>
<text text-anchor="start" x="390.5" y="-169.2" font-family="Helvetica,sans-Serif" font-size="11.00">batch_id</text>
<polygon fill="none" stroke="black" points="358.5,-139 358.5,-161 539.5,-161 539.5,-139 358.5,-139"/>
<image xlink:href="../../images/foreignKeys.png" width="11px" height="12px" preserveAspectRatio="xMinYMin meet" x="363.5" y="-156"/>
<text text-anchor="start" x="390.5" y="-147.2" font-family="Helvetica,sans-Serif" font-size="11.00">history_type_id</text>
<polygon fill="none" stroke="black" points="358.5,-117 358.5,-139 539.5,-139 539.5,-117 358.5,-117"/>
<image xlink:href="../../images/foreignKeys.png" width="11px" height="12px" preserveAspectRatio="xMinYMin meet" x="363.5" y="-134"/>
<text text-anchor="start" x="390.5" y="-125.2" font-family="Helvetica,sans-Serif" font-size="11.00">created_by</text>
<polygon fill="none" stroke="black" points="358.5,-95 358.5,-117 539.5,-117 539.5,-95 358.5,-95"/>
<image xlink:href="../../images/foreignKeys.png" width="11px" height="12px" preserveAspectRatio="xMinYMin meet" x="363.5" y="-112"/>
<text text-anchor="start" x="390.5" y="-103.2" font-family="Helvetica,sans-Serif" font-size="11.00">withdrawal_id</text>
<polygon fill="#ffffff" stroke="none" points="358.5,-73 358.5,-95 539.5,-95 539.5,-73 358.5,-73"/>
<polygon fill="none" stroke="black" points="358.5,-73 358.5,-95 539.5,-95 539.5,-73 358.5,-73"/>
<text text-anchor="start" x="390.5" y="-81.2" font-family="Helvetica,sans-Serif" font-size="11.00">version</text>
<polygon fill="none" stroke="black" points="358.5,-55 358.5,-73 539.5,-73 539.5,-55 358.5,-55"/>
<text text-anchor="start" x="361.5" y="-61.2" font-family="Helvetica,sans-Serif" font-size="11.00">...</text>
<polygon fill="#ffffff" stroke="none" points="358.5,-37 358.5,-55 432.5,-55 432.5,-37 358.5,-37"/>
<polygon fill="none" stroke="black" points="358.5,-37 358.5,-55 432.5,-55 432.5,-37 358.5,-37"/>
<text text-anchor="start" x="361.5" y="-43.2" font-family="Helvetica,sans-Serif" font-size="11.00">&lt; 4</text>
<polygon fill="#ffffff" stroke="none" points="432.5,-37 432.5,-55 500.5,-55 500.5,-37 432.5,-37"/>
<polygon fill="none" stroke="black" points="432.5,-37 432.5,-55 500.5,-55 500.5,-37 432.5,-37"/>
<text text-anchor="start" x="461.5" y="-43.2" font-family="Helvetica,sans-Serif" font-size="11.00">0 rows</text>
<polygon fill="#ffffff" stroke="none" points="500.5,-37 500.5,-55 539.5,-55 539.5,-37 500.5,-37"/>
<polygon fill="none" stroke="black" points="500.5,-37 500.5,-55 539.5,-55 539.5,-37 500.5,-37"/>
<text text-anchor="start" x="529.5" y="-43.2" font-family="Helvetica,sans-Serif" font-size="11.00"> &#160;</text>
</a>
</g>
</g>
<!-- batch_quantity_history_types -->
<g id="node2" class="node"><title>batch_quantity_history_types</title>
<g id="a_node2"><a xlink:href="../../tables/batch_quantity_history_types.html" xlink:title="batch_quantity_history_types" target="_top">
<polygon fill="#ffffff" stroke="none" points="8,-97 8,-185 309,-185 309,-97 8,-97"/>
<polygon fill="#f5f5f5" stroke="none" points="10.5,-161 10.5,-183 307.5,-183 307.5,-161 10.5,-161"/>
<polygon fill="none" stroke="black" points="10.5,-161 10.5,-183 307.5,-183 307.5,-161 10.5,-161"/>
<text text-anchor="start" x="15.5" y="-170.2" font-family="Helvetica,sans-Serif" font-weight="bold" font-size="11.00">batch_quantity_history_types</text>
<text text-anchor="start" x="268.5" y="-169.2" font-family="Helvetica,sans-Serif" font-size="11.00">[table]</text>
<polygon fill="none" stroke="black" points="10.5,-139 10.5,-161 206.5,-161 206.5,-139 10.5,-139"/>
<image xlink:href="../../images/primaryKeys.png" width="11px" height="12px" preserveAspectRatio="xMinYMin meet" x="15.5" y="-156"/>
<text text-anchor="start" x="30.5" y="-147.2" font-family="Helvetica,sans-Serif" font-size="11.00">id</text>
<polygon fill="none" stroke="black" points="206.5,-139 206.5,-161 307.5,-161 307.5,-139 206.5,-139"/>
<text text-anchor="start" x="209.5" y="-147.2" font-family="Helvetica,sans-Serif" font-size="11.00">int4[10]</text>
<polygon fill="none" stroke="black" points="10.5,-117 10.5,-139 206.5,-139 206.5,-117 10.5,-117"/>
<text text-anchor="start" x="30.5" y="-125.2" font-family="Helvetica,sans-Serif" font-size="11.00">name</text>
<polygon fill="none" stroke="black" points="206.5,-117 206.5,-139 307.5,-139 307.5,-117 206.5,-117"/>
<text text-anchor="start" x="209.5" y="-125.2" font-family="Helvetica,sans-Serif" font-size="11.00">text[2147483647]</text>
<polygon fill="#ffffff" stroke="none" points="10.5,-99 10.5,-117 98.5,-117 98.5,-99 10.5,-99"/>
<polygon fill="none" stroke="black" points="10.5,-99 10.5,-117 98.5,-117 98.5,-99 10.5,-99"/>
<text text-anchor="start" x="13.5" y="-105.2" font-family="Helvetica,sans-Serif" font-size="11.00">&lt; 0</text>
<polygon fill="#ffffff" stroke="none" points="98.5,-99 98.5,-117 206.5,-117 206.5,-99 98.5,-99"/>
<polygon fill="none" stroke="black" points="98.5,-99 98.5,-117 206.5,-117 206.5,-99 98.5,-99"/>
<text text-anchor="start" x="167.5" y="-105.2" font-family="Helvetica,sans-Serif" font-size="11.00">3 rows</text>
<polygon fill="#ffffff" stroke="none" points="206.5,-99 206.5,-117 307.5,-117 307.5,-99 206.5,-99"/>
<polygon fill="none" stroke="black" points="206.5,-99 206.5,-117 307.5,-117 307.5,-99 206.5,-99"/>
<text text-anchor="start" x="287.5" y="-105.2" font-family="Helvetica,sans-Serif" font-size="11.00">1 &gt;</text>
<polygon fill="none" stroke="black" stroke-width="2" points="9,-98 9,-184 308,-184 308,-98 9,-98"/>
</a>
</g>
</g>
<!-- batch_quantity_history&#45;&gt;batch_quantity_history_types -->
<g id="edge1" class="edge"><title>batch_quantity_history:history_type_id:w&#45;&gt;batch_quantity_history_types:id.type:e</title>
<path fill="none" stroke="black" d="M342.991,-150C331.677,-150 324.493,-150 308.5,-150"/>
<polygon fill="black" stroke="black" points="349.5,-150 357.5,-153.6 353.5,-150 357.5,-150 357.5,-150 357.5,-150 353.5,-150 357.5,-146.4 349.5,-150 349.5,-150"/>
<ellipse fill="none" stroke="black" cx="346.3" cy="-150" rx="3.2" ry="3.2"/>
</g>
</g>
</svg>
