<?xml version="1.0" encoding="UTF-8" standalone="no"?>
<!DOCTYPE svg PUBLIC "-//W3C//DTD SVG 1.1//EN"
 "http://www.w3.org/Graphics/SVG/1.1/DTD/svg11.dtd">
<!-- Generated by graphviz version 2.38.0 (20140413.2041)
 -->
<!-- Title: oneDegreeRelationshipsDiagram Pages: 1 -->
<svg width="754pt" height="732pt"
 viewBox="0.00 0.00 754.00 732.00" xmlns="http://www.w3.org/2000/svg" xmlns:xlink="http://www.w3.org/1999/xlink">
<g id="graph0" class="graph" transform="scale(1 1) rotate(0) translate(4 728)">
<title>oneDegreeRelationshipsDiagram</title>
<polygon fill="#ffffff" stroke="none" points="-4,4 -4,-728 750,-728 750,4 -4,4"/>
<text text-anchor="middle" x="74.5" y="-7.2" font-family="Helvetica,sans-Serif" font-size="11.00">Generated by SchemaSpy</text>
<!-- batch_quantity_history -->
<g id="node1" class="node"><title>batch_quantity_history</title>
<g id="a_node1"><a xlink:href="../../tables/batch_quantity_history.html" xlink:title="batch_quantity_history" target="_top">
<polygon fill="#ffffff" stroke="none" points="474,-161 474,-425 738,-425 738,-161 474,-161"/>
<polygon fill="#f5f5f5" stroke="none" points="476,-401 476,-423 736,-423 736,-401 476,-401"/>
<polygon fill="none" stroke="black" points="476,-401 476,-423 736,-423 736,-401 476,-401"/>
<text text-anchor="start" x="481" y="-410.2" font-family="Helvetica,sans-Serif" font-weight="bold" font-size="11.00">batch_quantity_history</text>
<text text-anchor="start" x="697" y="-409.2" font-family="Helvetica,sans-Serif" font-size="11.00">[table]</text>
<polygon fill="none" stroke="black" points="476,-379 476,-401 634,-401 634,-379 476,-379"/>
<image xlink:href="../../images/primaryKeys.png" width="11px" height="12px" preserveAspectRatio="xMinYMin meet" x="481" y="-396"/>
<text text-anchor="start" x="496" y="-387.2" font-family="Helvetica,sans-Serif" font-size="11.00">id</text>
<polygon fill="none" stroke="black" points="634,-379 634,-401 736,-401 736,-379 634,-379"/>
<text text-anchor="start" x="637" y="-387.2" font-family="Helvetica,sans-Serif" font-size="11.00">int8[19]</text>
<polygon fill="#ffffff" stroke="none" points="476,-357 476,-379 634,-379 634,-357 476,-357"/>
<polygon fill="none" stroke="black" points="476,-357 476,-379 634,-379 634,-357 476,-357"/>
<image xlink:href="../../images/foreignKeys.png" width="11px" height="12px" preserveAspectRatio="xMinYMin meet" x="481" y="-374"/>
<text text-anchor="start" x="496" y="-365.2" font-family="Helvetica,sans-Serif" font-size="11.00">batch_id</text>
<polygon fill="none" stroke="black" points="634,-357 634,-379 736,-379 736,-357 634,-357"/>
<text text-anchor="start" x="637" y="-365.2" font-family="Helvetica,sans-Serif" font-size="11.00">int8[19]</text>
<polygon fill="none" stroke="black" points="476,-335 476,-357 634,-357 634,-335 476,-335"/>
<image xlink:href="../../images/foreignKeys.png" width="11px" height="12px" preserveAspectRatio="xMinYMin meet" x="481" y="-352"/>
<text text-anchor="start" x="496" y="-343.2" font-family="Helvetica,sans-Serif" font-size="11.00">history_type_id</text>
<polygon fill="none" stroke="black" points="634,-335 634,-357 736,-357 736,-335 634,-335"/>
<text text-anchor="start" x="637" y="-343.2" font-family="Helvetica,sans-Serif" font-size="11.00">int4[10]</text>
<polygon fill="none" stroke="black" points="476,-313 476,-335 634,-335 634,-313 476,-313"/>
<image xlink:href="../../images/foreignKeys.png" width="11px" height="12px" preserveAspectRatio="xMinYMin meet" x="481" y="-330"/>
<text text-anchor="start" x="496" y="-321.2" font-family="Helvetica,sans-Serif" font-size="11.00">created_by</text>
<polygon fill="none" stroke="black" points="634,-313 634,-335 736,-335 736,-313 634,-313"/>
<text text-anchor="start" x="637" y="-321.2" font-family="Helvetica,sans-Serif" font-size="11.00">int8[19]</text>
<polygon fill="none" stroke="black" points="476,-291 476,-313 634,-313 634,-291 476,-291"/>
<text text-anchor="start" x="496" y="-299.2" font-family="Helvetica,sans-Serif" font-size="11.00">created_time</text>
<polygon fill="none" stroke="black" points="634,-291 634,-313 736,-313 736,-291 634,-291"/>
<text text-anchor="start" x="637" y="-299.2" font-family="Helvetica,sans-Serif" font-size="11.00">timestamptz[35,6]</text>
<polygon fill="none" stroke="black" points="476,-269 476,-291 634,-291 634,-269 476,-269"/>
<text text-anchor="start" x="496" y="-277.2" font-family="Helvetica,sans-Serif" font-size="11.00">germinating_quantity</text>
<polygon fill="none" stroke="black" points="634,-269 634,-291 736,-291 736,-269 634,-269"/>
<text text-anchor="start" x="637" y="-277.2" font-family="Helvetica,sans-Serif" font-size="11.00">int4[10]</text>
<polygon fill="none" stroke="black" points="476,-247 476,-269 634,-269 634,-247 476,-247"/>
<text text-anchor="start" x="496" y="-255.2" font-family="Helvetica,sans-Serif" font-size="11.00">not_ready_quantity</text>
<polygon fill="none" stroke="black" points="634,-247 634,-269 736,-269 736,-247 634,-247"/>
<text text-anchor="start" x="637" y="-255.2" font-family="Helvetica,sans-Serif" font-size="11.00">int4[10]</text>
<polygon fill="none" stroke="black" points="476,-225 476,-247 634,-247 634,-225 476,-225"/>
<text text-anchor="start" x="496" y="-233.2" font-family="Helvetica,sans-Serif" font-size="11.00">ready_quantity</text>
<polygon fill="none" stroke="black" points="634,-225 634,-247 736,-247 736,-225 634,-225"/>
<text text-anchor="start" x="637" y="-233.2" font-family="Helvetica,sans-Serif" font-size="11.00">int4[10]</text>
<polygon fill="none" stroke="black" points="476,-203 476,-225 634,-225 634,-203 476,-203"/>
<image xlink:href="../../images/foreignKeys.png" width="11px" height="12px" preserveAspectRatio="xMinYMin meet" x="481" y="-220"/>
<text text-anchor="start" x="496" y="-211.2" font-family="Helvetica,sans-Serif" font-size="11.00">withdrawal_id</text>
<polygon fill="none" stroke="black" points="634,-203 634,-225 736,-225 736,-203 634,-203"/>
<text text-anchor="start" x="637" y="-211.2" font-family="Helvetica,sans-Serif" font-size="11.00">int8[19]</text>
<polygon fill="#ffffff" stroke="none" points="476,-181 476,-203 634,-203 634,-181 476,-181"/>
<polygon fill="none" stroke="black" points="476,-181 476,-203 634,-203 634,-181 476,-181"/>
<text text-anchor="start" x="496" y="-189.2" font-family="Helvetica,sans-Serif" font-size="11.00">version</text>
<polygon fill="none" stroke="black" points="634,-181 634,-203 736,-203 736,-181 634,-181"/>
<text text-anchor="start" x="637" y="-189.2" font-family="Helvetica,sans-Serif" font-size="11.00">int4[10]</text>
<polygon fill="#ffffff" stroke="none" points="476,-163 476,-181 545,-181 545,-163 476,-163"/>
<polygon fill="none" stroke="black" points="476,-163 476,-181 545,-181 545,-163 476,-163"/>
<text text-anchor="start" x="479" y="-169.2" font-family="Helvetica,sans-Serif" font-size="11.00">&lt; 4</text>
<polygon fill="#ffffff" stroke="none" points="545,-163 545,-181 634,-181 634,-163 545,-163"/>
<polygon fill="none" stroke="black" points="545,-163 545,-181 634,-181 634,-163 545,-163"/>
<text text-anchor="start" x="595" y="-169.2" font-family="Helvetica,sans-Serif" font-size="11.00">0 rows</text>
<polygon fill="#ffffff" stroke="none" points="634,-163 634,-181 736,-181 736,-163 634,-163"/>
<polygon fill="none" stroke="black" points="634,-163 634,-181 736,-181 736,-163 634,-163"/>
<text text-anchor="start" x="716" y="-169.2" font-family="Helvetica,sans-Serif" font-size="11.00">0 &gt;</text>
<polygon fill="none" stroke="black" stroke-width="2" points="475,-162 475,-424 737,-424 737,-162 475,-162"/>
</a>
</g>
</g>
<!-- batches -->
<g id="node2" class="node"><title>batches</title>
<g id="a_node2"><a xlink:href="../../tables/batches.html" xlink:title="batches" target="_top">
<polygon fill="#ffffff" stroke="none" points="175,-398 175,-720 425,-720 425,-398 175,-398"/>
<polygon fill="#f5f5f5" stroke="none" points="175,-698 175,-720 425,-720 425,-698 175,-698"/>
<polygon fill="none" stroke="black" points="175,-698 175,-720 425,-720 425,-698 175,-698"/>
<text text-anchor="start" x="180" y="-707.2" font-family="Helvetica,sans-Serif" font-weight="bold" font-size="11.00">batches</text>
<text text-anchor="start" x="386" y="-706.2" font-family="Helvetica,sans-Serif" font-size="11.00">[table]</text>
<polygon fill="none" stroke="black" points="175,-676 175,-698 425,-698 425,-676 175,-676"/>
<image xlink:href="../../images/primaryKeys.png" width="11px" height="12px" preserveAspectRatio="xMinYMin meet" x="180" y="-693"/>
<text text-anchor="start" x="195" y="-684.2" font-family="Helvetica,sans-Serif" font-size="11.00">id</text>
<polygon fill="#ffffff" stroke="none" points="175,-654 175,-676 425,-676 425,-654 175,-654"/>
<polygon fill="none" stroke="black" points="175,-654 175,-676 425,-676 425,-654 175,-654"/>
<image xlink:href="../../images/foreignKeys.png" width="11px" height="12px" preserveAspectRatio="xMinYMin meet" x="180" y="-671"/>
<text text-anchor="start" x="195" y="-662.2" font-family="Helvetica,sans-Serif" font-size="11.00">organization_id</text>
<polygon fill="#ffffff" stroke="none" points="175,-632 175,-654 425,-654 425,-632 175,-632"/>
<polygon fill="none" stroke="black" points="175,-632 175,-654 425,-654 425,-632 175,-632"/>
<image xlink:href="../../images/foreignKeys.png" width="11px" height="12px" preserveAspectRatio="xMinYMin meet" x="180" y="-649"/>
<text text-anchor="start" x="195" y="-640.2" font-family="Helvetica,sans-Serif" font-size="11.00">facility_id</text>
<polygon fill="#ffffff" stroke="none" points="175,-610 175,-632 425,-632 425,-610 175,-610"/>
<polygon fill="none" stroke="black" points="175,-610 175,-632 425,-632 425,-610 175,-610"/>
<image xlink:href="../../images/foreignKeys.png" width="11px" height="12px" preserveAspectRatio="xMinYMin meet" x="180" y="-627"/>
<text text-anchor="start" x="195" y="-618.2" font-family="Helvetica,sans-Serif" font-size="11.00">species_id</text>
<polygon fill="#ffffff" stroke="none" points="175,-588 175,-610 425,-610 425,-588 175,-588"/>
<polygon fill="none" stroke="black" points="175,-588 175,-610 425,-610 425,-588 175,-588"/>
<text text-anchor="start" x="195" y="-596.2" font-family="Helvetica,sans-Serif" font-size="11.00">batch_number</text>
<polygon fill="none" stroke="black" points="175,-566 175,-588 425,-588 425,-566 175,-566"/>
<image xlink:href="../../images/foreignKeys.png" width="11px" height="12px" preserveAspectRatio="xMinYMin meet" x="180" y="-583"/>
<text text-anchor="start" x="195" y="-574.2" font-family="Helvetica,sans-Serif" font-size="11.00">created_by</text>
<polygon fill="none" stroke="black" points="175,-544 175,-566 425,-566 425,-544 175,-544"/>
<image xlink:href="../../images/foreignKeys.png" width="11px" height="12px" preserveAspectRatio="xMinYMin meet" x="180" y="-561"/>
<text text-anchor="start" x="195" y="-552.2" font-family="Helvetica,sans-Serif" font-size="11.00">modified_by</text>
<polygon fill="none" stroke="black" points="175,-522 175,-544 425,-544 425,-522 175,-522"/>
<image xlink:href="../../images/foreignKeys.png" width="11px" height="12px" preserveAspectRatio="xMinYMin meet" x="180" y="-539"/>
<text text-anchor="start" x="195" y="-530.2" font-family="Helvetica,sans-Serif" font-size="11.00">accession_id</text>
<polygon fill="#ffffff" stroke="none" points="175,-500 175,-522 425,-522 425,-500 175,-500"/>
<polygon fill="none" stroke="black" points="175,-500 175,-522 425,-522 425,-500 175,-500"/>
<image xlink:href="../../images/foreignKeys.png" width="11px" height="12px" preserveAspectRatio="xMinYMin meet" x="180" y="-517"/>
<text text-anchor="start" x="195" y="-508.2" font-family="Helvetica,sans-Serif" font-size="11.00">project_id</text>
<polygon fill="none" stroke="black" points="175,-478 175,-500 425,-500 425,-478 175,-478"/>
<image xlink:href="../../images/foreignKeys.png" width="11px" height="12px" preserveAspectRatio="xMinYMin meet" x="180" y="-495"/>
<text text-anchor="start" x="195" y="-486.2" font-family="Helvetica,sans-Serif" font-size="11.00">substrate_id</text>
<polygon fill="none" stroke="black" points="175,-456 175,-478 425,-478 425,-456 175,-456"/>
<image xlink:href="../../images/foreignKeys.png" width="11px" height="12px" preserveAspectRatio="xMinYMin meet" x="180" y="-473"/>
<text text-anchor="start" x="195" y="-464.2" font-family="Helvetica,sans-Serif" font-size="11.00">treatment_id</text>
<polygon fill="#ffffff" stroke="none" points="175,-434 175,-456 425,-456 425,-434 175,-434"/>
<polygon fill="none" stroke="black" points="175,-434 175,-456 425,-456 425,-434 175,-434"/>
<image xlink:href="../../images/foreignKeys.png" width="11px" height="12px" preserveAspectRatio="xMinYMin meet" x="180" y="-451"/>
<text text-anchor="start" x="195" y="-442.2" font-family="Helvetica,sans-Serif" font-size="11.00">initial_batch_id</text>
<polygon fill="none" stroke="black" points="175,-416 175,-434 425,-434 425,-416 175,-416"/>
<text text-anchor="start" x="178" y="-422.2" font-family="Helvetica,sans-Serif" font-size="11.00">...</text>
<polygon fill="#ffffff" stroke="none" points="175,-398 175,-416 282,-416 282,-398 175,-398"/>
<polygon fill="none" stroke="black" points="175,-398 175,-416 282,-416 282,-398 175,-398"/>
<text text-anchor="start" x="178" y="-404.2" font-family="Helvetica,sans-Serif" font-size="11.00">&lt; 10</text>
<polygon fill="#ffffff" stroke="none" points="282,-398 282,-416 363,-416 363,-398 282,-398"/>
<polygon fill="none" stroke="black" points="282,-398 282,-416 363,-416 363,-398 282,-398"/>
<text text-anchor="start" x="324" y="-404.2" font-family="Helvetica,sans-Serif" font-size="11.00">0 rows</text>
<polygon fill="#ffffff" stroke="none" points="363,-398 363,-416 425,-416 425,-398 363,-398"/>
<polygon fill="none" stroke="black" points="363,-398 363,-416 425,-416 425,-398 363,-398"/>
<text text-anchor="start" x="405" y="-404.2" font-family="Helvetica,sans-Serif" font-size="11.00">9 &gt;</text>
</a>
</g>
</g>
<!-- batch_quantity_history&#45;&gt;batches -->
<g id="edge1" class="edge"><title>batch_quantity_history:batch_id:w&#45;&gt;batches:id:e</title>
<path fill="none" stroke="black" d="M460.567,-369.285C348.69,-391.236 564.118,-687 426,-687"/>
<polygon fill="black" stroke="black" points="467.032,-368.71 475.319,-371.586 471.016,-368.355 475,-368 475,-368 475,-368 471.016,-368.355 474.681,-364.414 467.032,-368.71 467.032,-368.71"/>
<ellipse fill="none" stroke="black" cx="463.844" cy="-368.994" rx="3.2" ry="3.2"/>
</g>
<!-- public.users -->
<g id="node3" class="node"><title>public.users</title>
<g id="a_node3"><a xlink:href="../../../public/tables/users.html" xlink:title="public.users" target="_top">
<polygon fill="#ffffff" stroke="none" points="8,-244 8,-302 126,-302 126,-244 8,-244"/>
<polygon fill="#f5f5f5" stroke="none" points="8,-280 8,-302 126,-302 126,-280 8,-280"/>
<polygon fill="none" stroke="black" points="8,-280 8,-302 126,-302 126,-280 8,-280"/>
<text text-anchor="start" x="13" y="-289.2" font-family="Helvetica,sans-Serif" font-weight="bold" font-size="11.00">public.users</text>
<text text-anchor="start" x="87" y="-288.2" font-family="Helvetica,sans-Serif" font-size="11.00">[table]</text>
<polygon fill="none" stroke="black" points="8,-262 8,-280 126,-280 126,-262 8,-262"/>
<text text-anchor="start" x="11" y="-268.2" font-family="Helvetica,sans-Serif" font-size="11.00">...</text>
<polygon fill="#ffffff" stroke="none" points="8,-244 8,-262 41,-262 41,-244 8,-244"/>
<polygon fill="none" stroke="black" points="8,-244 8,-262 41,-262 41,-244 8,-244"/>
<text text-anchor="start" x="11" y="-250.2" font-family="Helvetica,sans-Serif" font-size="11.00"> &#160;</text>
<polygon fill="#ffffff" stroke="none" points="41,-244 41,-262 93,-262 93,-244 41,-244"/>
<polygon fill="none" stroke="black" points="41,-244 41,-262 93,-262 93,-244 41,-244"/>
<text text-anchor="start" x="54" y="-250.2" font-family="Helvetica,sans-Serif" font-size="11.00">0 rows</text>
<polygon fill="#ffffff" stroke="none" points="93,-244 93,-262 126,-262 126,-244 93,-244"/>
<polygon fill="none" stroke="black" points="93,-244 93,-262 126,-262 126,-244 93,-244"/>
<text text-anchor="start" x="106" y="-250.2" font-family="Helvetica,sans-Serif" font-size="11.00">8 &gt;</text>
</a>
</g>
</g>
<!-- batch_quantity_history&#45;&gt;public.users -->
<g id="edge2" class="edge"><title>batch_quantity_history:created_by:w&#45;&gt;public.users:id:e</title>
<path fill="none" stroke="black" d="M461.191,-319.517C451.294,-311.275 450.325,-293.925 433,-287 380.519,-266.022 224.163,-267.47 134.03,-270.285"/>
<polygon fill="black" stroke="black" points="467.391,-321.53 473.888,-327.424 471.195,-322.765 475,-324 475,-324 475,-324 471.195,-322.765 476.112,-320.576 467.391,-321.53 467.391,-321.53"/>
<ellipse fill="none" stroke="black" cx="464.347" cy="-320.542" rx="3.20001" ry="3.20001"/>
</g>
<!-- batch_quantity_history_types -->
<g id="node4" class="node"><title>batch_quantity_history_types</title>
<g id="a_node4"><a xlink:href="../../tables/batch_quantity_history_types.html" xlink:title="batch_quantity_history_types" target="_top">
<polygon fill="#ffffff" stroke="none" points="191.5,-297 191.5,-377 408.5,-377 408.5,-297 191.5,-297"/>
<polygon fill="#f5f5f5" stroke="none" points="192,-355 192,-377 409,-377 409,-355 192,-355"/>
<polygon fill="none" stroke="black" points="192,-355 192,-377 409,-377 409,-355 192,-355"/>
<text text-anchor="start" x="197" y="-364.2" font-family="Helvetica,sans-Serif" font-weight="bold" font-size="11.00">batch_quantity_history_types</text>
<text text-anchor="start" x="370" y="-363.2" font-family="Helvetica,sans-Serif" font-size="11.00">[table]</text>
<polygon fill="none" stroke="black" points="192,-333 192,-355 409,-355 409,-333 192,-333"/>
<image xlink:href="../../images/primaryKeys.png" width="11px" height="12px" preserveAspectRatio="xMinYMin meet" x="197" y="-350"/>
<text text-anchor="start" x="223" y="-341.2" font-family="Helvetica,sans-Serif" font-size="11.00">id</text>
<polygon fill="none" stroke="black" points="192,-315 192,-333 409,-333 409,-315 192,-315"/>
<text text-anchor="start" x="195" y="-321.2" font-family="Helvetica,sans-Serif" font-size="11.00">...</text>
<polygon fill="#ffffff" stroke="none" points="192,-297 192,-315 274,-315 274,-297 192,-297"/>
<polygon fill="none" stroke="black" points="192,-297 192,-315 274,-315 274,-297 192,-297"/>
<text text-anchor="start" x="195" y="-303.2" font-family="Helvetica,sans-Serif" font-size="11.00"> &#160;</text>
<polygon fill="#ffffff" stroke="none" points="274,-297 274,-315 351,-315 351,-297 274,-297"/>
<polygon fill="none" stroke="black" points="274,-297 274,-315 351,-315 351,-297 274,-297"/>
<text text-anchor="start" x="312" y="-303.2" font-family="Helvetica,sans-Serif" font-size="11.00">3 rows</text>
<polygon fill="#ffffff" stroke="none" points="351,-297 351,-315 409,-315 409,-297 351,-297"/>
<polygon fill="none" stroke="black" points="351,-297 351,-315 409,-315 409,-297 351,-297"/>
<text text-anchor="start" x="389" y="-303.2" font-family="Helvetica,sans-Serif" font-size="11.00">1 &gt;</text>
</a>
</g>
</g>
<!-- batch_quantity_history&#45;&gt;batch_quantity_history_types -->
<g id="edge3" class="edge"><title>batch_quantity_history:history_type_id:w&#45;&gt;batch_quantity_history_types:id:e</title>
<path fill="none" stroke="black" d="M460.485,-345.808C442.548,-345.308 433.37,-344 410,-344"/>
<polygon fill="black" stroke="black" points="467.001,-345.894 474.952,-349.6 471,-345.947 475,-346 475,-346 475,-346 471,-345.947 475.048,-342.4 467.001,-345.894 467.001,-345.894"/>
<ellipse fill="none" stroke="black" cx="463.801" cy="-345.852" rx="3.2" ry="3.2"/>
</g>
<!-- withdrawals -->
<g id="node5" class="node"><title>withdrawals</title>
<g id="a_node5"><a xlink:href="../../tables/withdrawals.html" xlink:title="withdrawals" target="_top">
<polygon fill="#ffffff" stroke="none" points="223,-37 223,-249 377,-249 377,-37 223,-37"/>
<polygon fill="#f5f5f5" stroke="none" points="223,-227 223,-249 377,-249 377,-227 223,-227"/>
<polygon fill="none" stroke="black" points="223,-227 223,-249 377,-249 377,-227 223,-227"/>
<text text-anchor="start" x="228" y="-236.2" font-family="Helvetica,sans-Serif" font-weight="bold" font-size="11.00">withdrawals</text>
<text text-anchor="start" x="338" y="-235.2" font-family="Helvetica,sans-Serif" font-size="11.00">[table]</text>
<polygon fill="none" stroke="black" points="223,-205 223,-227 377,-227 377,-205 223,-205"/>
<image xlink:href="../../images/primaryKeys.png" width="11px" height="12px" preserveAspectRatio="xMinYMin meet" x="228" y="-222"/>
<text text-anchor="start" x="243" y="-213.2" font-family="Helvetica,sans-Serif" font-size="11.00">id</text>
<polygon fill="#ffffff" stroke="none" points="223,-183 223,-205 377,-205 377,-183 223,-183"/>
<polygon fill="none" stroke="black" points="223,-183 223,-205 377,-205 377,-183 223,-183"/>
<image xlink:href="../../images/foreignKeys.png" width="11px" height="12px" preserveAspectRatio="xMinYMin meet" x="228" y="-200"/>
<text text-anchor="start" x="243" y="-191.2" font-family="Helvetica,sans-Serif" font-size="11.00">facility_id</text>
<polygon fill="none" stroke="black" points="223,-161 223,-183 377,-183 377,-161 223,-161"/>
<image xlink:href="../../images/foreignKeys.png" width="11px" height="12px" preserveAspectRatio="xMinYMin meet" x="228" y="-178"/>
<text text-anchor="start" x="243" y="-169.2" font-family="Helvetica,sans-Serif" font-size="11.00">purpose_id</text>
<polygon fill="none" stroke="black" points="223,-139 223,-161 377,-161 377,-139 223,-139"/>
<image xlink:href="../../images/foreignKeys.png" width="11px" height="12px" preserveAspectRatio="xMinYMin meet" x="228" y="-156"/>
<text text-anchor="start" x="243" y="-147.2" font-family="Helvetica,sans-Serif" font-size="11.00">created_by</text>
<polygon fill="none" stroke="black" points="223,-117 223,-139 377,-139 377,-117 223,-117"/>
<image xlink:href="../../images/foreignKeys.png" width="11px" height="12px" preserveAspectRatio="xMinYMin meet" x="228" y="-134"/>
<text text-anchor="start" x="243" y="-125.2" font-family="Helvetica,sans-Serif" font-size="11.00">modified_by</text>
<polygon fill="#ffffff" stroke="none" points="223,-95 223,-117 377,-117 377,-95 223,-95"/>
<polygon fill="none" stroke="black" points="223,-95 223,-117 377,-117 377,-95 223,-95"/>
<image xlink:href="../../images/foreignKeys.png" width="11px" height="12px" preserveAspectRatio="xMinYMin meet" x="228" y="-112"/>
<text text-anchor="start" x="243" y="-103.2" font-family="Helvetica,sans-Serif" font-size="11.00">destination_facility_id</text>
<polygon fill="#ffffff" stroke="none" points="223,-73 223,-95 377,-95 377,-73 223,-73"/>
<polygon fill="none" stroke="black" points="223,-73 223,-95 377,-95 377,-73 223,-73"/>
<image xlink:href="../../images/foreignKeys.png" width="11px" height="12px" preserveAspectRatio="xMinYMin meet" x="228" y="-90"/>
<text text-anchor="start" x="243" y="-81.2" font-family="Helvetica,sans-Serif" font-size="11.00">undoes_withdrawal_id</text>
<polygon fill="none" stroke="black" points="223,-55 223,-73 377,-73 377,-55 223,-55"/>
<text text-anchor="start" x="226" y="-61.2" font-family="Helvetica,sans-Serif" font-size="11.00">...</text>
<polygon fill="#ffffff" stroke="none" points="223,-37 223,-55 279,-55 279,-37 223,-37"/>
<polygon fill="none" stroke="black" points="223,-37 223,-55 279,-55 279,-37 223,-37"/>
<text text-anchor="start" x="226" y="-43.2" font-family="Helvetica,sans-Serif" font-size="11.00">&lt; 6</text>
<polygon fill="#ffffff" stroke="none" points="279,-37 279,-55 337,-55 337,-37 279,-37"/>
<polygon fill="none" stroke="black" points="279,-37 279,-55 337,-55 337,-37 279,-37"/>
<text text-anchor="start" x="298" y="-43.2" font-family="Helvetica,sans-Serif" font-size="11.00">0 rows</text>
<polygon fill="#ffffff" stroke="none" points="337,-37 337,-55 377,-55 377,-37 337,-37"/>
<polygon fill="none" stroke="black" points="337,-37 337,-55 377,-55 377,-37 337,-37"/>
<text text-anchor="start" x="357" y="-43.2" font-family="Helvetica,sans-Serif" font-size="11.00">5 &gt;</text>
</a>
</g>
</g>
<!-- batch_quantity_history&#45;&gt;withdrawals -->
<g id="edge4" class="edge"><title>batch_quantity_history:withdrawal_id:w&#45;&gt;withdrawals:id:e</title>
<path fill="none" stroke="black" d="M460.22,-214.086C428.684,-214.469 415.73,-216 378,-216"/>
<polygon fill="black" stroke="black" points="467,-214.047 475.021,-217.6 471,-214.023 475,-214 475,-214 475,-214 471,-214.023 474.979,-210.4 467,-214.047 467,-214.047"/>
<ellipse fill="none" stroke="black" cx="463.8" cy="-214.065" rx="3.2" ry="3.2"/>
</g>
<!-- batches&#45;&gt;public.users -->
<g id="edge5" class="edge"><title>batches:created_by:w&#45;&gt;public.users:id:e</title>
<path fill="none" stroke="black" d="M159.856,-572.938C111.544,-544.82 82.719,-378.131 72.37,-306.112"/>
<polygon fill="black" stroke="black" points="166.311,-574.792 173.006,-580.46 170.155,-575.896 174,-577 174,-577 174,-577 170.155,-575.896 174.994,-573.54 166.311,-574.792 166.311,-574.792"/>
<ellipse fill="none" stroke="black" cx="163.235" cy="-573.908" rx="3.20001" ry="3.20001"/>
</g>
<!-- batches&#45;&gt;public.users -->
<g id="edge6" class="edge"><title>batches:modified_by:w&#45;&gt;public.users:id:e</title>
<path fill="none" stroke="black" d="M159.946,-550.806C115.064,-523.844 84.8114,-373.88 73.2495,-306.178"/>
<polygon fill="black" stroke="black" points="166.334,-552.712 172.971,-558.45 170.167,-553.856 174,-555 174,-555 174,-555 170.167,-553.856 175.029,-551.55 166.334,-552.712 166.334,-552.712"/>
<ellipse fill="none" stroke="black" cx="163.268" cy="-551.797" rx="3.20001" ry="3.20001"/>
</g>
<!-- withdrawals&#45;&gt;public.users -->
<g id="edge7" class="edge"><title>withdrawals:created_by:w&#45;&gt;public.users:id:e</title>
<path fill="none" stroke="black" d="M207.347,-151.136C156.175,-159.034 113.6,-206.418 89.4676,-239.714"/>
<polygon fill="black" stroke="black" points="214.024,-150.618 222.278,-153.589 218.012,-150.309 222,-150 222,-150 222,-150 218.012,-150.309 221.722,-146.411 214.024,-150.618 214.024,-150.618"/>
<ellipse fill="none" stroke="black" cx="210.834" cy="-150.866" rx="3.2" ry="3.2"/>
</g>
<!-- withdrawals&#45;&gt;public.users -->
<g id="edge8" class="edge"><title>withdrawals:modified_by:w&#45;&gt;public.users:id:e</title>
<path fill="none" stroke="black" d="M207.474,-129.158C149.918,-138.349 106.715,-200.186 84.5786,-239.734"/>
<polygon fill="black" stroke="black" points="214.025,-128.636 222.286,-131.589 218.013,-128.318 222,-128 222,-128 222,-128 218.013,-128.318 221.714,-124.411 214.025,-128.636 214.025,-128.636"/>
<ellipse fill="none" stroke="black" cx="210.835" cy="-128.89" rx="3.2" ry="3.2"/>
</g>
</g>
</svg>
