<?xml version="1.0" encoding="UTF-8" standalone="no"?>
<!DOCTYPE svg PUBLIC "-//W3C//DTD SVG 1.1//EN"
 "http://www.w3.org/Graphics/SVG/1.1/DTD/svg11.dtd">
<!-- Generated by graphviz version 2.38.0 (20140413.2041)
 -->
<!-- Title: largeRelationshipsDiagram Pages: 1 -->
<svg width="848pt" height="798pt"
 viewBox="0.00 0.00 848.00 798.00" xmlns="http://www.w3.org/2000/svg" xmlns:xlink="http://www.w3.org/1999/xlink">
<g id="graph0" class="graph" transform="scale(1 1) rotate(0) translate(4 794)">
<title>largeRelationshipsDiagram</title>
<polygon fill="#ffffff" stroke="none" points="-4,4 -4,-794 844,-794 844,4 -4,4"/>
<text text-anchor="middle" x="74.5" y="-7.2" font-family="Helvetica,sans-Serif" font-size="11.00">Generated by SchemaSpy</text>
<!-- facilities -->
<g id="node1" class="node"><title>facilities</title>
<g id="a_node1"><a xlink:href="../../tables/facilities.html" xlink:title="facilities" target="_top">
<polygon fill="#ffffff" stroke="none" points="734,-496 734,-690 832,-690 832,-496 734,-496"/>
<polygon fill="#f5f5f5" stroke="none" points="734,-668 734,-690 832,-690 832,-668 734,-668"/>
<polygon fill="none" stroke="black" points="734,-668 734,-690 832,-690 832,-668 734,-668"/>
<text text-anchor="start" x="739" y="-677.2" font-family="Helvetica,sans-Serif" font-weight="bold" font-size="11.00">facilities</text>
<text text-anchor="start" x="793" y="-676.2" font-family="Helvetica,sans-Serif" font-size="11.00">[table]</text>
<polygon fill="none" stroke="black" points="734,-646 734,-668 832,-668 832,-646 734,-646"/>
<image xlink:href="../../images/primaryKeys.png" width="11px" height="12px" preserveAspectRatio="xMinYMin meet" x="739" y="-663"/>
<text text-anchor="start" x="764" y="-654.2" font-family="Helvetica,sans-Serif" font-size="11.00">id</text>
<polygon fill="none" stroke="black" points="734,-624 734,-646 832,-646 832,-624 734,-624"/>
<image xlink:href="../../images/foreignKeys.png" width="11px" height="12px" preserveAspectRatio="xMinYMin meet" x="739" y="-641"/>
<text text-anchor="start" x="764" y="-632.2" font-family="Helvetica,sans-Serif" font-size="11.00">site_id</text>
<polygon fill="none" stroke="black" points="734,-602 734,-624 832,-624 832,-602 734,-602"/>
<image xlink:href="../../images/foreignKeys.png" width="11px" height="12px" preserveAspectRatio="xMinYMin meet" x="739" y="-619"/>
<text text-anchor="start" x="764" y="-610.2" font-family="Helvetica,sans-Serif" font-size="11.00">type_id</text>
<polygon fill="none" stroke="black" points="734,-580 734,-602 832,-602 832,-580 734,-580"/>
<text text-anchor="start" x="764" y="-588.2" font-family="Helvetica,sans-Serif" font-size="11.00">name</text>
<polygon fill="none" stroke="black" points="734,-558 734,-580 832,-580 832,-558 734,-558"/>
<text text-anchor="start" x="764" y="-566.2" font-family="Helvetica,sans-Serif" font-size="11.00">latitude</text>
<polygon fill="none" stroke="black" points="734,-536 734,-558 832,-558 832,-536 734,-536"/>
<text text-anchor="start" x="764" y="-544.2" font-family="Helvetica,sans-Serif" font-size="11.00">longitude</text>
<polygon fill="none" stroke="black" points="734,-514 734,-536 832,-536 832,-514 734,-514"/>
<text text-anchor="start" x="764" y="-522.2" font-family="Helvetica,sans-Serif" font-size="11.00">enabled</text>
<polygon fill="#ffffff" stroke="none" points="734,-496 734,-514 767,-514 767,-496 734,-496"/>
<polygon fill="none" stroke="black" points="734,-496 734,-514 767,-514 767,-496 734,-496"/>
<text text-anchor="start" x="737" y="-502.2" font-family="Helvetica,sans-Serif" font-size="11.00">&lt; 2</text>
<polygon fill="#ffffff" stroke="none" points="767,-496 767,-514 814,-514 814,-496 767,-496"/>
<polygon fill="none" stroke="black" points="767,-496 767,-514 814,-514 814,-496 767,-496"/>
<text text-anchor="start" x="775" y="-502.2" font-family="Helvetica,sans-Serif" font-size="11.00">0 rows</text>
<polygon fill="#ffffff" stroke="none" points="814,-496 814,-514 832,-514 832,-496 814,-496"/>
<polygon fill="none" stroke="black" points="814,-496 814,-514 832,-514 832,-496 814,-496"/>
<text text-anchor="start" x="822" y="-502.2" font-family="Helvetica,sans-Serif" font-size="11.00"> &#160;</text>
</a>
</g>
</g>
<!-- facility_types -->
<g id="node2" class="node"><title>facility_types</title>
<g id="a_node2"><a xlink:href="../../tables/facility_types.html" xlink:title="facility_types" target="_top">
<polygon fill="#ffffff" stroke="none" points="560,-443 560,-527 685,-527 685,-443 560,-443"/>
<polygon fill="#f5f5f5" stroke="none" points="560.5,-505 560.5,-527 685.5,-527 685.5,-505 560.5,-505"/>
<polygon fill="none" stroke="black" points="560.5,-505 560.5,-527 685.5,-527 685.5,-505 560.5,-505"/>
<text text-anchor="start" x="565.5" y="-514.2" font-family="Helvetica,sans-Serif" font-weight="bold" font-size="11.00">facility_types</text>
<text text-anchor="start" x="646.5" y="-513.2" font-family="Helvetica,sans-Serif" font-size="11.00">[table]</text>
<polygon fill="none" stroke="black" points="560.5,-483 560.5,-505 685.5,-505 685.5,-483 560.5,-483"/>
<image xlink:href="../../images/primaryKeys.png" width="11px" height="12px" preserveAspectRatio="xMinYMin meet" x="565.5" y="-500"/>
<text text-anchor="start" x="593.5" y="-491.2" font-family="Helvetica,sans-Serif" font-size="11.00">id</text>
<polygon fill="none" stroke="black" points="560.5,-461 560.5,-483 685.5,-483 685.5,-461 560.5,-461"/>
<text text-anchor="start" x="593.5" y="-469.2" font-family="Helvetica,sans-Serif" font-size="11.00">name</text>
<polygon fill="#ffffff" stroke="none" points="560.5,-443 560.5,-461 596.5,-461 596.5,-443 560.5,-443"/>
<polygon fill="none" stroke="black" points="560.5,-443 560.5,-461 596.5,-461 596.5,-443 560.5,-443"/>
<text text-anchor="start" x="563.5" y="-449.2" font-family="Helvetica,sans-Serif" font-size="11.00"> &#160;</text>
<polygon fill="#ffffff" stroke="none" points="596.5,-443 596.5,-461 650.5,-461 650.5,-443 596.5,-443"/>
<polygon fill="none" stroke="black" points="596.5,-443 596.5,-461 650.5,-461 650.5,-443 596.5,-443"/>
<text text-anchor="start" x="611.5" y="-449.2" font-family="Helvetica,sans-Serif" font-size="11.00">3 rows</text>
<polygon fill="#ffffff" stroke="none" points="650.5,-443 650.5,-461 685.5,-461 685.5,-443 650.5,-443"/>
<polygon fill="none" stroke="black" points="650.5,-443 650.5,-461 685.5,-461 685.5,-443 650.5,-443"/>
<text text-anchor="start" x="665.5" y="-449.2" font-family="Helvetica,sans-Serif" font-size="11.00">1 &gt;</text>
</a>
</g>
</g>
<!-- facilities&#45;&gt;facility_types -->
<g id="edge2" class="edge"><title>facilities:type_id:w&#45;&gt;facility_types:id:e</title>
<path fill="none" stroke="black" d="M718.876,-609.308C688.986,-589.222 737.294,-494 686.5,-494"/>
<polygon fill="black" stroke="black" points="725.26,-610.977 732.09,-616.483 729.13,-611.988 733,-613 733,-613 733,-613 729.13,-611.988 733.91,-609.517 725.26,-610.977 725.26,-610.977"/>
<ellipse fill="none" stroke="black" cx="722.164" cy="-610.168" rx="3.2" ry="3.2"/>
</g>
<!-- sites -->
<g id="node10" class="node"><title>sites</title>
<g id="a_node10"><a xlink:href="../../tables/sites.html" xlink:title="sites" target="_top">
<polygon fill="#ffffff" stroke="none" points="569,-548 569,-786 676,-786 676,-548 569,-548"/>
<polygon fill="#f5f5f5" stroke="none" points="569.5,-764 569.5,-786 676.5,-786 676.5,-764 569.5,-764"/>
<polygon fill="none" stroke="black" points="569.5,-764 569.5,-786 676.5,-786 676.5,-764 569.5,-764"/>
<text text-anchor="start" x="574.5" y="-773.2" font-family="Helvetica,sans-Serif" font-weight="bold" font-size="11.00">sites</text>
<text text-anchor="start" x="637.5" y="-772.2" font-family="Helvetica,sans-Serif" font-size="11.00">[table]</text>
<polygon fill="none" stroke="black" points="569.5,-742 569.5,-764 676.5,-764 676.5,-742 569.5,-742"/>
<image xlink:href="../../images/primaryKeys.png" width="11px" height="12px" preserveAspectRatio="xMinYMin meet" x="574.5" y="-759"/>
<text text-anchor="start" x="589.5" y="-750.2" font-family="Helvetica,sans-Serif" font-size="11.00">id</text>
<polygon fill="none" stroke="black" points="569.5,-720 569.5,-742 676.5,-742 676.5,-720 569.5,-720"/>
<text text-anchor="start" x="589.5" y="-728.2" font-family="Helvetica,sans-Serif" font-size="11.00">name</text>
<polygon fill="none" stroke="black" points="569.5,-698 569.5,-720 676.5,-720 676.5,-698 569.5,-698"/>
<text text-anchor="start" x="589.5" y="-706.2" font-family="Helvetica,sans-Serif" font-size="11.00">locale</text>
<polygon fill="none" stroke="black" points="569.5,-676 569.5,-698 676.5,-698 676.5,-676 569.5,-676"/>
<text text-anchor="start" x="589.5" y="-684.2" font-family="Helvetica,sans-Serif" font-size="11.00">timezone</text>
<polygon fill="none" stroke="black" points="569.5,-654 569.5,-676 676.5,-676 676.5,-654 569.5,-654"/>
<text text-anchor="start" x="589.5" y="-662.2" font-family="Helvetica,sans-Serif" font-size="11.00">enabled</text>
<polygon fill="none" stroke="black" points="569.5,-632 569.5,-654 676.5,-654 676.5,-632 569.5,-632"/>
<image xlink:href="../../images/foreignKeys.png" width="11px" height="12px" preserveAspectRatio="xMinYMin meet" x="574.5" y="-649"/>
<text text-anchor="start" x="589.5" y="-640.2" font-family="Helvetica,sans-Serif" font-size="11.00">project_id</text>
<polygon fill="none" stroke="black" points="569.5,-610 569.5,-632 676.5,-632 676.5,-610 569.5,-610"/>
<text text-anchor="start" x="589.5" y="-618.2" font-family="Helvetica,sans-Serif" font-size="11.00">location</text>
<polygon fill="none" stroke="black" points="569.5,-588 569.5,-610 676.5,-610 676.5,-588 569.5,-588"/>
<text text-anchor="start" x="589.5" y="-596.2" font-family="Helvetica,sans-Serif" font-size="11.00">created_time</text>
<polygon fill="none" stroke="black" points="569.5,-566 569.5,-588 676.5,-588 676.5,-566 569.5,-566"/>
<text text-anchor="start" x="589.5" y="-574.2" font-family="Helvetica,sans-Serif" font-size="11.00">modified_time</text>
<polygon fill="#ffffff" stroke="none" points="569.5,-548 569.5,-566 601.5,-566 601.5,-548 569.5,-548"/>
<polygon fill="none" stroke="black" points="569.5,-548 569.5,-566 601.5,-566 601.5,-548 569.5,-548"/>
<text text-anchor="start" x="572.5" y="-554.2" font-family="Helvetica,sans-Serif" font-size="11.00">&lt; 1</text>
<polygon fill="#ffffff" stroke="none" points="601.5,-548 601.5,-566 648.5,-566 648.5,-548 601.5,-548"/>
<polygon fill="none" stroke="black" points="601.5,-548 601.5,-566 648.5,-566 648.5,-548 601.5,-548"/>
<text text-anchor="start" x="609.5" y="-554.2" font-family="Helvetica,sans-Serif" font-size="11.00">0 rows</text>
<polygon fill="#ffffff" stroke="none" points="648.5,-548 648.5,-566 676.5,-566 676.5,-548 648.5,-548"/>
<polygon fill="none" stroke="black" points="648.5,-548 648.5,-566 676.5,-566 676.5,-548 648.5,-548"/>
<text text-anchor="start" x="656.5" y="-554.2" font-family="Helvetica,sans-Serif" font-size="11.00">1 &gt;</text>
</a>
</g>
</g>
<!-- facilities&#45;&gt;sites -->
<g id="edge1" class="edge"><title>facilities:site_id:w&#45;&gt;sites:id:e</title>
<path fill="none" stroke="black" d="M718.756,-638.404C686.094,-657.752 729.57,-753 677.5,-753"/>
<polygon fill="black" stroke="black" points="725.219,-636.86 733.837,-638.501 729.11,-635.93 733,-635 733,-635 733,-635 729.11,-635.93 732.163,-631.499 725.219,-636.86 725.219,-636.86"/>
<ellipse fill="none" stroke="black" cx="722.107" cy="-637.604" rx="3.2" ry="3.2"/>
</g>
<!-- organization_users -->
<g id="node3" class="node"><title>organization_users</title>
<g id="a_node3"><a xlink:href="../../tables/organization_users.html" xlink:title="organization_users" target="_top">
<polygon fill="#ffffff" stroke="none" points="357,-152 357,-302 511,-302 511,-152 357,-152"/>
<polygon fill="#f5f5f5" stroke="none" points="357,-280 357,-302 511,-302 511,-280 357,-280"/>
<polygon fill="none" stroke="black" points="357,-280 357,-302 511,-302 511,-280 357,-280"/>
<text text-anchor="start" x="362" y="-289.2" font-family="Helvetica,sans-Serif" font-weight="bold" font-size="11.00">organization_users</text>
<text text-anchor="start" x="472" y="-288.2" font-family="Helvetica,sans-Serif" font-size="11.00">[table]</text>
<polygon fill="none" stroke="black" points="357,-258 357,-280 511,-280 511,-258 357,-258"/>
<image xlink:href="../../images/primaryKeys.png" width="11px" height="12px" preserveAspectRatio="xMinYMin meet" x="362" y="-275"/>
<text text-anchor="start" x="387" y="-266.2" font-family="Helvetica,sans-Serif" font-size="11.00">user_id</text>
<polygon fill="none" stroke="black" points="357,-236 357,-258 511,-258 511,-236 357,-236"/>
<image xlink:href="../../images/primaryKeys.png" width="11px" height="12px" preserveAspectRatio="xMinYMin meet" x="362" y="-253"/>
<text text-anchor="start" x="387" y="-244.2" font-family="Helvetica,sans-Serif" font-size="11.00">organization_id</text>
<polygon fill="none" stroke="black" points="357,-214 357,-236 511,-236 511,-214 357,-214"/>
<image xlink:href="../../images/foreignKeys.png" width="11px" height="12px" preserveAspectRatio="xMinYMin meet" x="362" y="-231"/>
<text text-anchor="start" x="387" y="-222.2" font-family="Helvetica,sans-Serif" font-size="11.00">role_id</text>
<polygon fill="none" stroke="black" points="357,-192 357,-214 511,-214 511,-192 357,-192"/>
<text text-anchor="start" x="387" y="-200.2" font-family="Helvetica,sans-Serif" font-size="11.00">created_time</text>
<polygon fill="none" stroke="black" points="357,-170 357,-192 511,-192 511,-170 357,-170"/>
<text text-anchor="start" x="387" y="-178.2" font-family="Helvetica,sans-Serif" font-size="11.00">modified_time</text>
<polygon fill="#ffffff" stroke="none" points="357,-152 357,-170 418,-170 418,-152 357,-152"/>
<polygon fill="none" stroke="black" points="357,-152 357,-170 418,-170 418,-152 357,-152"/>
<text text-anchor="start" x="360" y="-158.2" font-family="Helvetica,sans-Serif" font-size="11.00">&lt; 3</text>
<polygon fill="#ffffff" stroke="none" points="418,-152 418,-170 479,-170 479,-152 418,-152"/>
<polygon fill="none" stroke="black" points="418,-152 418,-170 479,-170 479,-152 418,-152"/>
<text text-anchor="start" x="440" y="-158.2" font-family="Helvetica,sans-Serif" font-size="11.00">0 rows</text>
<polygon fill="#ffffff" stroke="none" points="479,-152 479,-170 511,-170 511,-152 479,-152"/>
<polygon fill="none" stroke="black" points="479,-152 479,-170 511,-170 511,-152 479,-152"/>
<text text-anchor="start" x="501" y="-158.2" font-family="Helvetica,sans-Serif" font-size="11.00"> &#160;</text>
</a>
</g>
</g>
<!-- organizations -->
<g id="node4" class="node"><title>organizations</title>
<g id="a_node4"><a xlink:href="../../tables/organizations.html" xlink:title="organizations" target="_top">
<polygon fill="#ffffff" stroke="none" points="174.5,-589 174.5,-761 299.5,-761 299.5,-589 174.5,-589"/>
<polygon fill="#f5f5f5" stroke="none" points="175,-739 175,-761 300,-761 300,-739 175,-739"/>
<polygon fill="none" stroke="black" points="175,-739 175,-761 300,-761 300,-739 175,-739"/>
<text text-anchor="start" x="180" y="-748.2" font-family="Helvetica,sans-Serif" font-weight="bold" font-size="11.00">organizations</text>
<text text-anchor="start" x="261" y="-747.2" font-family="Helvetica,sans-Serif" font-size="11.00">[table]</text>
<polygon fill="none" stroke="black" points="175,-717 175,-739 300,-739 300,-717 175,-717"/>
<image xlink:href="../../images/primaryKeys.png" width="11px" height="12px" preserveAspectRatio="xMinYMin meet" x="180" y="-734"/>
<text text-anchor="start" x="204" y="-725.2" font-family="Helvetica,sans-Serif" font-size="11.00">id</text>
<polygon fill="none" stroke="black" points="175,-695 175,-717 300,-717 300,-695 175,-695"/>
<text text-anchor="start" x="204" y="-703.2" font-family="Helvetica,sans-Serif" font-size="11.00">name</text>
<polygon fill="none" stroke="black" points="175,-673 175,-695 300,-695 300,-673 175,-673"/>
<text text-anchor="start" x="204" y="-681.2" font-family="Helvetica,sans-Serif" font-size="11.00">location</text>
<polygon fill="none" stroke="black" points="175,-651 175,-673 300,-673 300,-651 175,-651"/>
<text text-anchor="start" x="204" y="-659.2" font-family="Helvetica,sans-Serif" font-size="11.00">created_time</text>
<polygon fill="none" stroke="black" points="175,-629 175,-651 300,-651 300,-629 175,-629"/>
<text text-anchor="start" x="204" y="-637.2" font-family="Helvetica,sans-Serif" font-size="11.00">modified_time</text>
<polygon fill="none" stroke="black" points="175,-607 175,-629 300,-629 300,-607 175,-607"/>
<text text-anchor="start" x="204" y="-615.2" font-family="Helvetica,sans-Serif" font-size="11.00">disabled_time</text>
<polygon fill="#ffffff" stroke="none" points="175,-589 175,-607 211,-607 211,-589 175,-589"/>
<polygon fill="none" stroke="black" points="175,-589 175,-607 211,-607 211,-589 175,-589"/>
<text text-anchor="start" x="178" y="-595.2" font-family="Helvetica,sans-Serif" font-size="11.00"> &#160;</text>
<polygon fill="#ffffff" stroke="none" points="211,-589 211,-607 265,-607 265,-589 211,-589"/>
<polygon fill="none" stroke="black" points="211,-589 211,-607 265,-607 265,-589 211,-589"/>
<text text-anchor="start" x="226" y="-595.2" font-family="Helvetica,sans-Serif" font-size="11.00">0 rows</text>
<polygon fill="#ffffff" stroke="none" points="265,-589 265,-607 300,-607 300,-589 265,-589"/>
<polygon fill="none" stroke="black" points="265,-589 265,-607 300,-607 300,-589 265,-589"/>
<text text-anchor="start" x="280" y="-595.2" font-family="Helvetica,sans-Serif" font-size="11.00">2 &gt;</text>
</a>
</g>
</g>
<!-- organization_users&#45;&gt;organizations -->
<g id="edge3" class="edge"><title>organization_users:organization_id:w&#45;&gt;organizations:id:e</title>
<path fill="none" stroke="black" d="M341.611,-250.595C263.991,-294.611 403.122,-728 301,-728"/>
<polygon fill="black" stroke="black" points="348.239,-248.939 356.873,-250.493 352.119,-247.97 356,-247 356,-247 356,-247 352.119,-247.97 355.127,-243.507 348.239,-248.939 348.239,-248.939"/>
<ellipse fill="none" stroke="black" cx="345.134" cy="-249.715" rx="3.2" ry="3.2"/>
</g>
<!-- roles -->
<g id="node9" class="node"><title>roles</title>
<g id="a_node9"><a xlink:href="../../tables/roles.html" xlink:title="roles" target="_top">
<polygon fill="#ffffff" stroke="none" points="198,-37 198,-121 276,-121 276,-37 198,-37"/>
<polygon fill="#f5f5f5" stroke="none" points="198,-99 198,-121 276,-121 276,-99 198,-99"/>
<polygon fill="none" stroke="black" points="198,-99 198,-121 276,-121 276,-99 198,-99"/>
<text text-anchor="start" x="203" y="-108.2" font-family="Helvetica,sans-Serif" font-weight="bold" font-size="11.00">roles</text>
<text text-anchor="start" x="237" y="-107.2" font-family="Helvetica,sans-Serif" font-size="11.00">[table]</text>
<polygon fill="none" stroke="black" points="198,-77 198,-99 276,-99 276,-77 198,-77"/>
<image xlink:href="../../images/primaryKeys.png" width="11px" height="12px" preserveAspectRatio="xMinYMin meet" x="203" y="-94"/>
<text text-anchor="start" x="230" y="-85.2" font-family="Helvetica,sans-Serif" font-size="11.00">id</text>
<polygon fill="#ffffff" stroke="none" points="198,-55 198,-77 276,-77 276,-55 198,-55"/>
<polygon fill="none" stroke="black" points="198,-55 198,-77 276,-77 276,-55 198,-55"/>
<text text-anchor="start" x="230" y="-63.2" font-family="Helvetica,sans-Serif" font-size="11.00">name</text>
<polygon fill="#ffffff" stroke="none" points="198,-37 198,-55 211,-55 211,-37 198,-37"/>
<polygon fill="none" stroke="black" points="198,-37 198,-55 211,-55 211,-37 198,-37"/>
<text text-anchor="start" x="201" y="-43.2" font-family="Helvetica,sans-Serif" font-size="11.00"> &#160;</text>
<polygon fill="#ffffff" stroke="none" points="211,-37 211,-55 253,-55 253,-37 211,-37"/>
<polygon fill="none" stroke="black" points="211,-37 211,-55 253,-55 253,-37 211,-37"/>
<text text-anchor="start" x="214" y="-43.2" font-family="Helvetica,sans-Serif" font-size="11.00">4 rows</text>
<polygon fill="#ffffff" stroke="none" points="253,-37 253,-55 276,-55 276,-37 253,-37"/>
<polygon fill="none" stroke="black" points="253,-37 253,-55 276,-55 276,-37 253,-37"/>
<text text-anchor="start" x="256" y="-43.2" font-family="Helvetica,sans-Serif" font-size="11.00">1 &gt;</text>
</a>
</g>
</g>
<!-- organization_users&#45;&gt;roles -->
<g id="edge4" class="edge"><title>organization_users:role_id:w&#45;&gt;roles:id:e</title>
<path fill="none" stroke="black" d="M341.59,-222.221C317.576,-210.497 337.23,-164.159 316,-131 302.088,-109.271 302.801,-88 277,-88"/>
<polygon fill="black" stroke="black" points="348.145,-223.485 355.318,-228.535 352.072,-224.242 356,-225 356,-225 356,-225 352.072,-224.242 356.682,-221.465 348.145,-223.485 348.145,-223.485"/>
<ellipse fill="none" stroke="black" cx="345.003" cy="-222.879" rx="3.2" ry="3.2"/>
</g>
<!-- users -->
<g id="node12" class="node"><title>users</title>
<g id="a_node12"><a xlink:href="../../tables/users.html" xlink:title="users" target="_top">
<polygon fill="#ffffff" stroke="none" points="183.5,-142 183.5,-358 290.5,-358 290.5,-142 183.5,-142"/>
<polygon fill="#f5f5f5" stroke="none" points="184,-336 184,-358 291,-358 291,-336 184,-336"/>
<polygon fill="none" stroke="black" points="184,-336 184,-358 291,-358 291,-336 184,-336"/>
<text text-anchor="start" x="189" y="-345.2" font-family="Helvetica,sans-Serif" font-weight="bold" font-size="11.00">users</text>
<text text-anchor="start" x="252" y="-344.2" font-family="Helvetica,sans-Serif" font-size="11.00">[table]</text>
<polygon fill="none" stroke="black" points="184,-314 184,-336 291,-336 291,-314 184,-314"/>
<image xlink:href="../../images/primaryKeys.png" width="11px" height="12px" preserveAspectRatio="xMinYMin meet" x="189" y="-331"/>
<text text-anchor="start" x="204" y="-322.2" font-family="Helvetica,sans-Serif" font-size="11.00">id</text>
<polygon fill="#ffffff" stroke="none" points="184,-292 184,-314 291,-314 291,-292 184,-292"/>
<polygon fill="none" stroke="black" points="184,-292 184,-314 291,-314 291,-292 184,-292"/>
<text text-anchor="start" x="204" y="-300.2" font-family="Helvetica,sans-Serif" font-size="11.00">auth_id</text>
<polygon fill="#ffffff" stroke="none" points="184,-270 184,-292 291,-292 291,-270 184,-270"/>
<polygon fill="none" stroke="black" points="184,-270 184,-292 291,-292 291,-270 184,-270"/>
<text text-anchor="start" x="204" y="-278.2" font-family="Helvetica,sans-Serif" font-size="11.00">email</text>
<polygon fill="none" stroke="black" points="184,-248 184,-270 291,-270 291,-248 184,-248"/>
<text text-anchor="start" x="204" y="-256.2" font-family="Helvetica,sans-Serif" font-size="11.00">first_name</text>
<polygon fill="none" stroke="black" points="184,-226 184,-248 291,-248 291,-226 184,-226"/>
<text text-anchor="start" x="204" y="-234.2" font-family="Helvetica,sans-Serif" font-size="11.00">last_name</text>
<polygon fill="none" stroke="black" points="184,-204 184,-226 291,-226 291,-204 184,-204"/>
<text text-anchor="start" x="204" y="-212.2" font-family="Helvetica,sans-Serif" font-size="11.00">created_time</text>
<polygon fill="none" stroke="black" points="184,-182 184,-204 291,-204 291,-182 184,-182"/>
<text text-anchor="start" x="204" y="-190.2" font-family="Helvetica,sans-Serif" font-size="11.00">modified_time</text>
<polygon fill="none" stroke="black" points="184,-160 184,-182 291,-182 291,-160 184,-160"/>
<image xlink:href="../../images/foreignKeys.png" width="11px" height="12px" preserveAspectRatio="xMinYMin meet" x="189" y="-177"/>
<text text-anchor="start" x="204" y="-168.2" font-family="Helvetica,sans-Serif" font-size="11.00">user_type_id</text>
<polygon fill="#ffffff" stroke="none" points="184,-142 184,-160 216,-160 216,-142 184,-142"/>
<polygon fill="none" stroke="black" points="184,-142 184,-160 216,-160 216,-142 184,-142"/>
<text text-anchor="start" x="187" y="-148.2" font-family="Helvetica,sans-Serif" font-size="11.00">&lt; 1</text>
<polygon fill="#ffffff" stroke="none" points="216,-142 216,-160 263,-160 263,-142 216,-142"/>
<polygon fill="none" stroke="black" points="216,-142 216,-160 263,-160 263,-142 216,-142"/>
<text text-anchor="start" x="224" y="-148.2" font-family="Helvetica,sans-Serif" font-size="11.00">0 rows</text>
<polygon fill="#ffffff" stroke="none" points="263,-142 263,-160 291,-160 291,-142 263,-142"/>
<polygon fill="none" stroke="black" points="263,-142 263,-160 291,-160 291,-142 263,-142"/>
<text text-anchor="start" x="271" y="-148.2" font-family="Helvetica,sans-Serif" font-size="11.00">3 &gt;</text>
</a>
</g>
</g>
<!-- organization_users&#45;&gt;users -->
<g id="edge5" class="edge"><title>organization_users:user_id:w&#45;&gt;users:id:e</title>
<path fill="none" stroke="black" d="M341.815,-272.503C320.59,-284.763 324.038,-325 292,-325"/>
<polygon fill="black" stroke="black" points="348.233,-270.918 356.863,-272.495 352.117,-269.959 356,-269 356,-269 356,-269 352.117,-269.959 355.137,-265.505 348.233,-270.918 348.233,-270.918"/>
<ellipse fill="none" stroke="black" cx="345.127" cy="-271.685" rx="3.2" ry="3.2"/>
</g>
<!-- project_statuses -->
<g id="node5" class="node"><title>project_statuses</title>
<g id="a_node5"><a xlink:href="../../tables/project_statuses.html" xlink:title="project_statuses" target="_top">
<polygon fill="#ffffff" stroke="none" points="166,-379 166,-463 308,-463 308,-379 166,-379"/>
<polygon fill="#f5f5f5" stroke="none" points="166,-441 166,-463 308,-463 308,-441 166,-441"/>
<polygon fill="none" stroke="black" points="166,-441 166,-463 308,-463 308,-441 166,-441"/>
<text text-anchor="start" x="171" y="-450.2" font-family="Helvetica,sans-Serif" font-weight="bold" font-size="11.00">project_statuses</text>
<text text-anchor="start" x="269" y="-449.2" font-family="Helvetica,sans-Serif" font-size="11.00">[table]</text>
<polygon fill="none" stroke="black" points="166,-419 166,-441 308,-441 308,-419 166,-419"/>
<image xlink:href="../../images/primaryKeys.png" width="11px" height="12px" preserveAspectRatio="xMinYMin meet" x="171" y="-436"/>
<text text-anchor="start" x="198" y="-427.2" font-family="Helvetica,sans-Serif" font-size="11.00">id</text>
<polygon fill="#ffffff" stroke="none" points="166,-397 166,-419 308,-419 308,-397 166,-397"/>
<polygon fill="none" stroke="black" points="166,-397 166,-419 308,-419 308,-397 166,-397"/>
<text text-anchor="start" x="198" y="-405.2" font-family="Helvetica,sans-Serif" font-size="11.00">name</text>
<polygon fill="#ffffff" stroke="none" points="166,-379 166,-397 211,-397 211,-379 166,-379"/>
<polygon fill="none" stroke="black" points="166,-379 166,-397 211,-397 211,-379 166,-379"/>
<text text-anchor="start" x="169" y="-385.2" font-family="Helvetica,sans-Serif" font-size="11.00"> &#160;</text>
<polygon fill="#ffffff" stroke="none" points="211,-379 211,-397 269,-397 269,-379 211,-379"/>
<polygon fill="none" stroke="black" points="211,-379 211,-397 269,-397 269,-379 211,-379"/>
<text text-anchor="start" x="230" y="-385.2" font-family="Helvetica,sans-Serif" font-size="11.00">0 rows</text>
<polygon fill="#ffffff" stroke="none" points="269,-379 269,-397 308,-397 308,-379 269,-379"/>
<polygon fill="none" stroke="black" points="269,-379 269,-397 308,-397 308,-379 269,-379"/>
<text text-anchor="start" x="288" y="-385.2" font-family="Helvetica,sans-Serif" font-size="11.00">1 &gt;</text>
</a>
</g>
</g>
<!-- project_types -->
<g id="node6" class="node"><title>project_types</title>
<g id="a_node6"><a xlink:href="../../tables/project_types.html" xlink:title="project_types" target="_top">
<polygon fill="#ffffff" stroke="none" points="174,-484 174,-568 300,-568 300,-484 174,-484"/>
<polygon fill="#f5f5f5" stroke="none" points="174,-546 174,-568 300,-568 300,-546 174,-546"/>
<polygon fill="none" stroke="black" points="174,-546 174,-568 300,-568 300,-546 174,-546"/>
<text text-anchor="start" x="179" y="-555.2" font-family="Helvetica,sans-Serif" font-weight="bold" font-size="11.00">project_types</text>
<text text-anchor="start" x="261" y="-554.2" font-family="Helvetica,sans-Serif" font-size="11.00">[table]</text>
<polygon fill="none" stroke="black" points="174,-524 174,-546 300,-546 300,-524 174,-524"/>
<image xlink:href="../../images/primaryKeys.png" width="11px" height="12px" preserveAspectRatio="xMinYMin meet" x="179" y="-541"/>
<text text-anchor="start" x="207" y="-532.2" font-family="Helvetica,sans-Serif" font-size="11.00">id</text>
<polygon fill="#ffffff" stroke="none" points="174,-502 174,-524 300,-524 300,-502 174,-502"/>
<polygon fill="none" stroke="black" points="174,-502 174,-524 300,-524 300,-502 174,-502"/>
<text text-anchor="start" x="207" y="-510.2" font-family="Helvetica,sans-Serif" font-size="11.00">name</text>
<polygon fill="#ffffff" stroke="none" points="174,-484 174,-502 211,-502 211,-484 174,-484"/>
<polygon fill="none" stroke="black" points="174,-484 174,-502 211,-502 211,-484 174,-484"/>
<text text-anchor="start" x="177" y="-490.2" font-family="Helvetica,sans-Serif" font-size="11.00"> &#160;</text>
<polygon fill="#ffffff" stroke="none" points="211,-484 211,-502 265,-502 265,-484 211,-484"/>
<polygon fill="none" stroke="black" points="211,-484 211,-502 265,-502 265,-484 211,-484"/>
<text text-anchor="start" x="226" y="-490.2" font-family="Helvetica,sans-Serif" font-size="11.00">0 rows</text>
<polygon fill="#ffffff" stroke="none" points="265,-484 265,-502 300,-502 300,-484 265,-484"/>
<polygon fill="none" stroke="black" points="265,-484 265,-502 300,-502 300,-484 265,-484"/>
<text text-anchor="start" x="280" y="-490.2" font-family="Helvetica,sans-Serif" font-size="11.00">1 &gt;</text>
</a>
</g>
</g>
<!-- project_users -->
<g id="node7" class="node"><title>project_users</title>
<g id="a_node7"><a xlink:href="../../tables/project_users.html" xlink:title="project_users" target="_top">
<polygon fill="#ffffff" stroke="none" points="560.5,-263 560.5,-391 684.5,-391 684.5,-263 560.5,-263"/>
<polygon fill="#f5f5f5" stroke="none" points="560.5,-369 560.5,-391 684.5,-391 684.5,-369 560.5,-369"/>
<polygon fill="none" stroke="black" points="560.5,-369 560.5,-391 684.5,-391 684.5,-369 560.5,-369"/>
<text text-anchor="start" x="565.5" y="-378.2" font-family="Helvetica,sans-Serif" font-weight="bold" font-size="11.00">project_users</text>
<text text-anchor="start" x="645.5" y="-377.2" font-family="Helvetica,sans-Serif" font-size="11.00">[table]</text>
<polygon fill="none" stroke="black" points="560.5,-347 560.5,-369 684.5,-369 684.5,-347 560.5,-347"/>
<image xlink:href="../../images/primaryKeys.png" width="11px" height="12px" preserveAspectRatio="xMinYMin meet" x="565.5" y="-364"/>
<text text-anchor="start" x="589.5" y="-355.2" font-family="Helvetica,sans-Serif" font-size="11.00">user_id</text>
<polygon fill="none" stroke="black" points="560.5,-325 560.5,-347 684.5,-347 684.5,-325 560.5,-325"/>
<image xlink:href="../../images/primaryKeys.png" width="11px" height="12px" preserveAspectRatio="xMinYMin meet" x="565.5" y="-342"/>
<text text-anchor="start" x="589.5" y="-333.2" font-family="Helvetica,sans-Serif" font-size="11.00">project_id</text>
<polygon fill="none" stroke="black" points="560.5,-303 560.5,-325 684.5,-325 684.5,-303 560.5,-303"/>
<text text-anchor="start" x="589.5" y="-311.2" font-family="Helvetica,sans-Serif" font-size="11.00">created_time</text>
<polygon fill="none" stroke="black" points="560.5,-281 560.5,-303 684.5,-303 684.5,-281 560.5,-281"/>
<text text-anchor="start" x="589.5" y="-289.2" font-family="Helvetica,sans-Serif" font-size="11.00">modified_time</text>
<polygon fill="#ffffff" stroke="none" points="560.5,-263 560.5,-281 606.5,-281 606.5,-263 560.5,-263"/>
<polygon fill="none" stroke="black" points="560.5,-263 560.5,-281 606.5,-281 606.5,-263 560.5,-263"/>
<text text-anchor="start" x="563.5" y="-269.2" font-family="Helvetica,sans-Serif" font-size="11.00">&lt; 2</text>
<polygon fill="#ffffff" stroke="none" points="606.5,-263 606.5,-281 659.5,-281 659.5,-263 606.5,-263"/>
<polygon fill="none" stroke="black" points="606.5,-263 606.5,-281 659.5,-281 659.5,-263 606.5,-263"/>
<text text-anchor="start" x="620.5" y="-269.2" font-family="Helvetica,sans-Serif" font-size="11.00">0 rows</text>
<polygon fill="#ffffff" stroke="none" points="659.5,-263 659.5,-281 684.5,-281 684.5,-263 659.5,-263"/>
<polygon fill="none" stroke="black" points="659.5,-263 659.5,-281 684.5,-281 684.5,-263 659.5,-263"/>
<text text-anchor="start" x="674.5" y="-269.2" font-family="Helvetica,sans-Serif" font-size="11.00"> &#160;</text>
</a>
</g>
</g>
<!-- projects -->
<g id="node8" class="node"><title>projects</title>
<g id="a_node8"><a xlink:href="../../tables/projects.html" xlink:title="projects" target="_top">
<polygon fill="#ffffff" stroke="none" points="378,-350 378,-676 490,-676 490,-350 378,-350"/>
<polygon fill="#f5f5f5" stroke="none" points="378,-654 378,-676 490,-676 490,-654 378,-654"/>
<polygon fill="none" stroke="black" points="378,-654 378,-676 490,-676 490,-654 378,-654"/>
<text text-anchor="start" x="383" y="-663.2" font-family="Helvetica,sans-Serif" font-weight="bold" font-size="11.00">projects</text>
<text text-anchor="start" x="451" y="-662.2" font-family="Helvetica,sans-Serif" font-size="11.00">[table]</text>
<polygon fill="none" stroke="black" points="378,-632 378,-654 490,-654 490,-632 378,-632"/>
<image xlink:href="../../images/primaryKeys.png" width="11px" height="12px" preserveAspectRatio="xMinYMin meet" x="383" y="-649"/>
<text text-anchor="start" x="398" y="-640.2" font-family="Helvetica,sans-Serif" font-size="11.00">id</text>
<polygon fill="none" stroke="black" points="378,-610 378,-632 490,-632 490,-610 378,-610"/>
<image xlink:href="../../images/foreignKeys.png" width="11px" height="12px" preserveAspectRatio="xMinYMin meet" x="383" y="-627"/>
<text text-anchor="start" x="398" y="-618.2" font-family="Helvetica,sans-Serif" font-size="11.00">organization_id</text>
<polygon fill="none" stroke="black" points="378,-588 378,-610 490,-610 490,-588 378,-588"/>
<text text-anchor="start" x="398" y="-596.2" font-family="Helvetica,sans-Serif" font-size="11.00">name</text>
<polygon fill="none" stroke="black" points="378,-566 378,-588 490,-588 490,-566 378,-566"/>
<text text-anchor="start" x="398" y="-574.2" font-family="Helvetica,sans-Serif" font-size="11.00">description</text>
<polygon fill="none" stroke="black" points="378,-544 378,-566 490,-566 490,-544 378,-544"/>
<text text-anchor="start" x="398" y="-552.2" font-family="Helvetica,sans-Serif" font-size="11.00">location</text>
<polygon fill="none" stroke="black" points="378,-522 378,-544 490,-544 490,-522 378,-522"/>
<image xlink:href="../../images/foreignKeys.png" width="11px" height="12px" preserveAspectRatio="xMinYMin meet" x="383" y="-539"/>
<text text-anchor="start" x="398" y="-530.2" font-family="Helvetica,sans-Serif" font-size="11.00">type_id</text>
<polygon fill="none" stroke="black" points="378,-500 378,-522 490,-522 490,-500 378,-500"/>
<image xlink:href="../../images/foreignKeys.png" width="11px" height="12px" preserveAspectRatio="xMinYMin meet" x="383" y="-517"/>
<text text-anchor="start" x="398" y="-508.2" font-family="Helvetica,sans-Serif" font-size="11.00">status_id</text>
<polygon fill="none" stroke="black" points="378,-478 378,-500 490,-500 490,-478 378,-478"/>
<text text-anchor="start" x="398" y="-486.2" font-family="Helvetica,sans-Serif" font-size="11.00">start_date</text>
<polygon fill="none" stroke="black" points="378,-456 378,-478 490,-478 490,-456 378,-456"/>
<text text-anchor="start" x="398" y="-464.2" font-family="Helvetica,sans-Serif" font-size="11.00">end_date</text>
<polygon fill="none" stroke="black" points="378,-434 378,-456 490,-456 490,-434 378,-434"/>
<text text-anchor="start" x="398" y="-442.2" font-family="Helvetica,sans-Serif" font-size="11.00">created_time</text>
<polygon fill="none" stroke="black" points="378,-412 378,-434 490,-434 490,-412 378,-412"/>
<text text-anchor="start" x="398" y="-420.2" font-family="Helvetica,sans-Serif" font-size="11.00">modified_time</text>
<polygon fill="none" stroke="black" points="378,-390 378,-412 490,-412 490,-390 378,-390"/>
<text text-anchor="start" x="398" y="-398.2" font-family="Helvetica,sans-Serif" font-size="11.00">disabled_time</text>
<polygon fill="none" stroke="black" points="378,-368 378,-390 490,-390 490,-368 378,-368"/>
<image xlink:href="../../images/foreignKeys.png" width="11px" height="12px" preserveAspectRatio="xMinYMin meet" x="383" y="-385"/>
<text text-anchor="start" x="398" y="-376.2" font-family="Helvetica,sans-Serif" font-size="11.00">pm_user_id</text>
<polygon fill="#ffffff" stroke="none" points="378,-350 378,-368 413,-368 413,-350 378,-350"/>
<polygon fill="none" stroke="black" points="378,-350 378,-368 413,-368 413,-350 378,-350"/>
<text text-anchor="start" x="381" y="-356.2" font-family="Helvetica,sans-Serif" font-size="11.00">&lt; 4</text>
<polygon fill="#ffffff" stroke="none" points="413,-350 413,-368 461,-368 461,-350 413,-350"/>
<polygon fill="none" stroke="black" points="413,-350 413,-368 461,-368 461,-350 413,-350"/>
<text text-anchor="start" x="422" y="-356.2" font-family="Helvetica,sans-Serif" font-size="11.00">0 rows</text>
<polygon fill="#ffffff" stroke="none" points="461,-350 461,-368 490,-368 490,-350 461,-350"/>
<polygon fill="none" stroke="black" points="461,-350 461,-368 490,-368 490,-350 461,-350"/>
<text text-anchor="start" x="470" y="-356.2" font-family="Helvetica,sans-Serif" font-size="11.00">2 &gt;</text>
</a>
</g>
</g>
<!-- project_users&#45;&gt;projects -->
<g id="edge6" class="edge"><title>project_users:project_id:w&#45;&gt;projects:id:e</title>
<path fill="none" stroke="black" d="M545.015,-337.302C435.271,-358.939 625.475,-643 491,-643"/>
<polygon fill="black" stroke="black" points="551.532,-336.716 559.822,-339.586 555.516,-336.358 559.5,-336 559.5,-336 559.5,-336 555.516,-336.358 559.178,-332.414 551.532,-336.716 551.532,-336.716"/>
<ellipse fill="none" stroke="black" cx="548.345" cy="-337.003" rx="3.2" ry="3.2"/>
</g>
<!-- project_users&#45;&gt;users -->
<g id="edge7" class="edge"><title>project_users:user_id:w&#45;&gt;users:id:e</title>
<path fill="none" stroke="black" d="M545.456,-354.736C537.13,-350.271 532.394,-342.422 519,-339 421.065,-313.98 393.081,-325 292,-325"/>
<polygon fill="black" stroke="black" points="551.708,-356.189 558.685,-361.507 555.604,-357.095 559.5,-358 559.5,-358 559.5,-358 555.604,-357.095 560.315,-354.493 551.708,-356.189 551.708,-356.189"/>
<ellipse fill="none" stroke="black" cx="548.591" cy="-355.465" rx="3.2" ry="3.2"/>
</g>
<!-- projects&#45;&gt;organizations -->
<g id="edge8" class="edge"><title>projects:organization_id:w&#45;&gt;organizations:id:e</title>
<path fill="none" stroke="black" d="M362.559,-623.862C325.667,-640.878 353.634,-728 301,-728"/>
<polygon fill="black" stroke="black" points="369.153,-622.555 377.7,-624.531 373.076,-621.778 377,-621 377,-621 377,-621 373.076,-621.778 376.3,-617.469 369.153,-622.555 369.153,-622.555"/>
<ellipse fill="none" stroke="black" cx="366.014" cy="-623.177" rx="3.2" ry="3.2"/>
</g>
<!-- projects&#45;&gt;project_statuses -->
<g id="edge10" class="edge"><title>projects:status_id:w&#45;&gt;project_statuses:id:e</title>
<path fill="none" stroke="black" d="M362.877,-507.724C335.224,-492.571 350.312,-430 309,-430"/>
<polygon fill="black" stroke="black" points="369.207,-509.192 376.187,-514.507 373.103,-510.096 377,-511 377,-511 377,-511 373.103,-510.096 377.813,-507.493 369.207,-509.192 369.207,-509.192"/>
<ellipse fill="none" stroke="black" cx="366.09" cy="-508.469" rx="3.2" ry="3.2"/>
</g>
<!-- projects&#45;&gt;project_types -->
<g id="edge11" class="edge"><title>projects:type_id:w&#45;&gt;project_types:id:e</title>
<path fill="none" stroke="black" d="M362.509,-533.137C339.862,-533.589 329.378,-535 301,-535"/>
<polygon fill="black" stroke="black" points="369,-533.076 377.034,-536.6 373,-533.038 377,-533 377,-533 377,-533 373,-533.038 376.966,-529.4 369,-533.076 369,-533.076"/>
<ellipse fill="none" stroke="black" cx="365.801" cy="-533.106" rx="3.2" ry="3.2"/>
</g>
<!-- projects&#45;&gt;users -->
<g id="edge9" class="edge"><title>projects:pm_user_id:w&#45;&gt;users:id:e</title>
<path fill="none" stroke="black" d="M362.733,-376.816C332.614,-366.714 331.337,-325 292,-325"/>
<polygon fill="black" stroke="black" points="369.092,-377.79 376.455,-382.559 373.046,-378.395 377,-379 377,-379 377,-379 373.046,-378.395 377.545,-375.441 369.092,-377.79 369.092,-377.79"/>
<ellipse fill="none" stroke="black" cx="365.929" cy="-377.305" rx="3.2" ry="3.2"/>
</g>
<!-- sites&#45;&gt;projects -->
<g id="edge12" class="edge"><title>sites:project_id:w&#45;&gt;projects:id:e</title>
<path fill="none" stroke="black" d="M554.049,-643C530.734,-643 520.062,-643 491,-643"/>
<polygon fill="black" stroke="black" points="560.5,-643 568.5,-646.6 564.5,-643 568.5,-643 568.5,-643 568.5,-643 564.5,-643 568.5,-639.4 560.5,-643 560.5,-643"/>
<ellipse fill="none" stroke="black" cx="557.3" cy="-643" rx="3.2" ry="3.2"/>
</g>
<!-- user_types -->
<g id="node11" class="node"><title>user_types</title>
<g id="a_node11"><a xlink:href="../../tables/user_types.html" xlink:title="user_types" target="_top">
<polygon fill="#ffffff" stroke="none" points="8,-120 8,-204 117,-204 117,-120 8,-120"/>
<polygon fill="#f5f5f5" stroke="none" points="8.5,-182 8.5,-204 117.5,-204 117.5,-182 8.5,-182"/>
<polygon fill="none" stroke="black" points="8.5,-182 8.5,-204 117.5,-204 117.5,-182 8.5,-182"/>
<text text-anchor="start" x="13.5" y="-191.2" font-family="Helvetica,sans-Serif" font-weight="bold" font-size="11.00">user_types</text>
<text text-anchor="start" x="78.5" y="-190.2" font-family="Helvetica,sans-Serif" font-size="11.00">[table]</text>
<polygon fill="none" stroke="black" points="8.5,-160 8.5,-182 117.5,-182 117.5,-160 8.5,-160"/>
<image xlink:href="../../images/primaryKeys.png" width="11px" height="12px" preserveAspectRatio="xMinYMin meet" x="13.5" y="-177"/>
<text text-anchor="start" x="40.5" y="-168.2" font-family="Helvetica,sans-Serif" font-size="11.00">id</text>
<polygon fill="#ffffff" stroke="none" points="8.5,-138 8.5,-160 117.5,-160 117.5,-138 8.5,-138"/>
<polygon fill="none" stroke="black" points="8.5,-138 8.5,-160 117.5,-160 117.5,-138 8.5,-138"/>
<text text-anchor="start" x="40.5" y="-146.2" font-family="Helvetica,sans-Serif" font-size="11.00">name</text>
<polygon fill="#ffffff" stroke="none" points="8.5,-120 8.5,-138 36.5,-138 36.5,-120 8.5,-120"/>
<polygon fill="none" stroke="black" points="8.5,-120 8.5,-138 36.5,-138 36.5,-120 8.5,-120"/>
<text text-anchor="start" x="11.5" y="-126.2" font-family="Helvetica,sans-Serif" font-size="11.00"> &#160;</text>
<polygon fill="#ffffff" stroke="none" points="36.5,-120 36.5,-138 86.5,-138 86.5,-120 36.5,-120"/>
<polygon fill="none" stroke="black" points="36.5,-120 36.5,-138 86.5,-138 86.5,-120 36.5,-120"/>
<text text-anchor="start" x="47.5" y="-126.2" font-family="Helvetica,sans-Serif" font-size="11.00">3 rows</text>
<polygon fill="#ffffff" stroke="none" points="86.5,-120 86.5,-138 117.5,-138 117.5,-120 86.5,-120"/>
<polygon fill="none" stroke="black" points="86.5,-120 86.5,-138 117.5,-138 117.5,-120 86.5,-120"/>
<text text-anchor="start" x="97.5" y="-126.2" font-family="Helvetica,sans-Serif" font-size="11.00">1 &gt;</text>
</a>
</g>
</g>
<!-- users&#45;&gt;user_types -->
<g id="edge13" class="edge"><title>users:user_type_id:w&#45;&gt;user_types:id:e</title>
<path fill="none" stroke="black" d="M168.343,-171C150.714,-171 141.568,-171 118.5,-171"/>
<polygon fill="black" stroke="black" points="175,-171 183,-174.6 179,-171 183,-171 183,-171 183,-171 179,-171 183,-167.4 175,-171 175,-171"/>
<ellipse fill="none" stroke="black" cx="171.8" cy="-171" rx="3.2" ry="3.2"/>
</g>
</g>
</svg>
