<?xml version="1.0" encoding="UTF-8" standalone="no"?>
<!DOCTYPE svg PUBLIC "-//W3C//DTD SVG 1.1//EN"
 "http://www.w3.org/Graphics/SVG/1.1/DTD/svg11.dtd">
<!-- Generated by graphviz version 2.38.0 (20140413.2041)
 -->
<!-- Title: oneDegreeRelationshipsDiagram Pages: 1 -->
<svg width="591pt" height="363pt"
 viewBox="0.00 0.00 591.00 363.25" xmlns="http://www.w3.org/2000/svg" xmlns:xlink="http://www.w3.org/1999/xlink">
<g id="graph0" class="graph" transform="scale(1 1) rotate(0) translate(4 359.247)">
<title>oneDegreeRelationshipsDiagram</title>
<polygon fill="#ffffff" stroke="none" points="-4,4 -4,-359.247 587,-359.247 587,4 -4,4"/>
<text text-anchor="middle" x="74.5" y="-7.2" font-family="Helvetica,sans-Serif" font-size="11.00">Generated by SchemaSpy</text>
<!-- deliveries -->
<g id="node1" class="node"><title>deliveries</title>
<g id="a_node1"><a xlink:href="../../tables/deliveries.html" xlink:title="deliveries" target="_top">
<polygon fill="#ffffff" stroke="none" points="184,-89.2469 184,-331.247 408,-331.247 408,-89.2469 184,-89.2469"/>
<polygon fill="#f5f5f5" stroke="none" points="186,-307.247 186,-329.247 406,-329.247 406,-307.247 186,-307.247"/>
<polygon fill="none" stroke="black" points="186,-307.247 186,-329.247 406,-329.247 406,-307.247 186,-307.247"/>
<text text-anchor="start" x="191" y="-316.447" font-family="Helvetica,sans-Serif" font-weight="bold" font-size="11.00">deliveries</text>
<text text-anchor="start" x="367" y="-315.447" font-family="Helvetica,sans-Serif" font-size="11.00">[table]</text>
<polygon fill="none" stroke="black" points="186,-285.247 186,-307.247 304,-307.247 304,-285.247 186,-285.247"/>
<image xlink:href="../../images/primaryKeys.png" width="11px" height="12px" preserveAspectRatio="xMinYMin meet" x="191" y="-302.247"/>
<text text-anchor="start" x="206" y="-293.447" font-family="Helvetica,sans-Serif" font-size="11.00">id</text>
<polygon fill="none" stroke="black" points="304,-285.247 304,-307.247 406,-307.247 406,-285.247 304,-285.247"/>
<text text-anchor="start" x="307" y="-293.447" font-family="Helvetica,sans-Serif" font-size="11.00">int8[19]</text>
<polygon fill="#ffffff" stroke="none" points="186,-263.247 186,-285.247 304,-285.247 304,-263.247 186,-263.247"/>
<polygon fill="none" stroke="black" points="186,-263.247 186,-285.247 304,-285.247 304,-263.247 186,-263.247"/>
<text text-anchor="start" x="206" y="-271.447" font-family="Helvetica,sans-Serif" font-size="11.00">withdrawal_id</text>
<polygon fill="none" stroke="black" points="304,-263.247 304,-285.247 406,-285.247 406,-263.247 304,-263.247"/>
<text text-anchor="start" x="307" y="-271.447" font-family="Helvetica,sans-Serif" font-size="11.00">int8[19]</text>
<polygon fill="#ffffff" stroke="none" points="186,-241.247 186,-263.247 304,-263.247 304,-241.247 186,-241.247"/>
<polygon fill="none" stroke="black" points="186,-241.247 186,-263.247 304,-263.247 304,-241.247 186,-241.247"/>
<image xlink:href="../../images/foreignKeys.png" width="11px" height="12px" preserveAspectRatio="xMinYMin meet" x="191" y="-258.247"/>
<text text-anchor="start" x="206" y="-249.447" font-family="Helvetica,sans-Serif" font-size="11.00">planting_site_id</text>
<polygon fill="none" stroke="black" points="304,-241.247 304,-263.247 406,-263.247 406,-241.247 304,-241.247"/>
<text text-anchor="start" x="307" y="-249.447" font-family="Helvetica,sans-Serif" font-size="11.00">int8[19]</text>
<polygon fill="none" stroke="black" points="186,-219.247 186,-241.247 304,-241.247 304,-219.247 186,-219.247"/>
<text text-anchor="start" x="206" y="-227.447" font-family="Helvetica,sans-Serif" font-size="11.00">created_by</text>
<polygon fill="none" stroke="black" points="304,-219.247 304,-241.247 406,-241.247 406,-219.247 304,-219.247"/>
<text text-anchor="start" x="307" y="-227.447" font-family="Helvetica,sans-Serif" font-size="11.00">int8[19]</text>
<polygon fill="none" stroke="black" points="186,-197.247 186,-219.247 304,-219.247 304,-197.247 186,-197.247"/>
<text text-anchor="start" x="206" y="-205.447" font-family="Helvetica,sans-Serif" font-size="11.00">created_time</text>
<polygon fill="none" stroke="black" points="304,-197.247 304,-219.247 406,-219.247 406,-197.247 304,-197.247"/>
<text text-anchor="start" x="307" y="-205.447" font-family="Helvetica,sans-Serif" font-size="11.00">timestamptz[35,6]</text>
<polygon fill="none" stroke="black" points="186,-175.247 186,-197.247 304,-197.247 304,-175.247 186,-175.247"/>
<text text-anchor="start" x="206" y="-183.447" font-family="Helvetica,sans-Serif" font-size="11.00">modified_by</text>
<polygon fill="none" stroke="black" points="304,-175.247 304,-197.247 406,-197.247 406,-175.247 304,-175.247"/>
<text text-anchor="start" x="307" y="-183.447" font-family="Helvetica,sans-Serif" font-size="11.00">int8[19]</text>
<polygon fill="none" stroke="black" points="186,-153.247 186,-175.247 304,-175.247 304,-153.247 186,-153.247"/>
<text text-anchor="start" x="206" y="-161.447" font-family="Helvetica,sans-Serif" font-size="11.00">modified_time</text>
<polygon fill="none" stroke="black" points="304,-153.247 304,-175.247 406,-175.247 406,-153.247 304,-153.247"/>
<text text-anchor="start" x="307" y="-161.447" font-family="Helvetica,sans-Serif" font-size="11.00">timestamptz[35,6]</text>
<polygon fill="none" stroke="black" points="186,-131.247 186,-153.247 304,-153.247 304,-131.247 186,-131.247"/>
<text text-anchor="start" x="206" y="-139.447" font-family="Helvetica,sans-Serif" font-size="11.00">reassigned_by</text>
<polygon fill="none" stroke="black" points="304,-131.247 304,-153.247 406,-153.247 406,-131.247 304,-131.247"/>
<text text-anchor="start" x="307" y="-139.447" font-family="Helvetica,sans-Serif" font-size="11.00">int8[19]</text>
<polygon fill="none" stroke="black" points="186,-109.247 186,-131.247 304,-131.247 304,-109.247 186,-109.247"/>
<text text-anchor="start" x="206" y="-117.447" font-family="Helvetica,sans-Serif" font-size="11.00">reassigned_time</text>
<polygon fill="none" stroke="black" points="304,-109.247 304,-131.247 406,-131.247 406,-109.247 304,-109.247"/>
<text text-anchor="start" x="307" y="-117.447" font-family="Helvetica,sans-Serif" font-size="11.00">timestamptz[35,6]</text>
<polygon fill="#ffffff" stroke="none" points="186,-91.2469 186,-109.247 235,-109.247 235,-91.2469 186,-91.2469"/>
<polygon fill="none" stroke="black" points="186,-91.2469 186,-109.247 235,-109.247 235,-91.2469 186,-91.2469"/>
<text text-anchor="start" x="189" y="-97.4469" font-family="Helvetica,sans-Serif" font-size="11.00">&lt; 1</text>
<polygon fill="#ffffff" stroke="none" points="235,-91.2469 235,-109.247 304,-109.247 304,-91.2469 235,-91.2469"/>
<polygon fill="none" stroke="black" points="235,-91.2469 235,-109.247 304,-109.247 304,-91.2469 235,-91.2469"/>
<text text-anchor="start" x="265" y="-97.4469" font-family="Helvetica,sans-Serif" font-size="11.00">0 rows</text>
<polygon fill="#ffffff" stroke="none" points="304,-91.2469 304,-109.247 406,-109.247 406,-91.2469 304,-91.2469"/>
<polygon fill="none" stroke="black" points="304,-91.2469 304,-109.247 406,-109.247 406,-91.2469 304,-91.2469"/>
<text text-anchor="start" x="386" y="-97.4469" font-family="Helvetica,sans-Serif" font-size="11.00">2 &gt;</text>
<polygon fill="none" stroke="black" stroke-width="2" points="185,-90.2469 185,-330.247 407,-330.247 407,-90.2469 185,-90.2469"/>
</a>
</g>
</g>
<!-- planting_sites -->
<g id="node2" class="node"><title>planting_sites</title>
<g id="a_node2"><a xlink:href="../../tables/planting_sites.html" xlink:title="planting_sites" target="_top">
<polygon fill="#ffffff" stroke="none" points="8,-67.2469 8,-191.247 135,-191.247 135,-67.2469 8,-67.2469"/>
<polygon fill="#f5f5f5" stroke="none" points="8.5,-169.247 8.5,-191.247 135.5,-191.247 135.5,-169.247 8.5,-169.247"/>
<polygon fill="none" stroke="black" points="8.5,-169.247 8.5,-191.247 135.5,-191.247 135.5,-169.247 8.5,-169.247"/>
<text text-anchor="start" x="13.5" y="-178.447" font-family="Helvetica,sans-Serif" font-weight="bold" font-size="11.00">planting_sites</text>
<text text-anchor="start" x="96.5" y="-177.447" font-family="Helvetica,sans-Serif" font-size="11.00">[table]</text>
<polygon fill="none" stroke="black" points="8.5,-147.247 8.5,-169.247 135.5,-169.247 135.5,-147.247 8.5,-147.247"/>
<image xlink:href="../../images/primaryKeys.png" width="11px" height="12px" preserveAspectRatio="xMinYMin meet" x="13.5" y="-164.247"/>
<text text-anchor="start" x="36.5" y="-155.447" font-family="Helvetica,sans-Serif" font-size="11.00">id</text>
<polygon fill="#ffffff" stroke="none" points="8.5,-125.247 8.5,-147.247 135.5,-147.247 135.5,-125.247 8.5,-125.247"/>
<polygon fill="none" stroke="black" points="8.5,-125.247 8.5,-147.247 135.5,-147.247 135.5,-125.247 8.5,-125.247"/>
<text text-anchor="start" x="36.5" y="-133.447" font-family="Helvetica,sans-Serif" font-size="11.00">organization_id</text>
<polygon fill="#ffffff" stroke="none" points="8.5,-103.247 8.5,-125.247 135.5,-125.247 135.5,-103.247 8.5,-103.247"/>
<polygon fill="none" stroke="black" points="8.5,-103.247 8.5,-125.247 135.5,-125.247 135.5,-103.247 8.5,-103.247"/>
<text text-anchor="start" x="36.5" y="-111.447" font-family="Helvetica,sans-Serif" font-size="11.00">name</text>
<polygon fill="none" stroke="black" points="8.5,-85.2469 8.5,-103.247 135.5,-103.247 135.5,-85.2469 8.5,-85.2469"/>
<text text-anchor="start" x="11.5" y="-91.4469" font-family="Helvetica,sans-Serif" font-size="11.00">...</text>
<polygon fill="#ffffff" stroke="none" points="8.5,-67.2469 8.5,-85.2469 45.5,-85.2469 45.5,-67.2469 8.5,-67.2469"/>
<polygon fill="none" stroke="black" points="8.5,-67.2469 8.5,-85.2469 45.5,-85.2469 45.5,-67.2469 8.5,-67.2469"/>
<text text-anchor="start" x="11.5" y="-73.4469" font-family="Helvetica,sans-Serif" font-size="11.00"> &#160;</text>
<polygon fill="#ffffff" stroke="none" points="45.5,-67.2469 45.5,-85.2469 99.5,-85.2469 99.5,-67.2469 45.5,-67.2469"/>
<polygon fill="none" stroke="black" points="45.5,-67.2469 45.5,-85.2469 99.5,-85.2469 99.5,-67.2469 45.5,-67.2469"/>
<text text-anchor="start" x="60.5" y="-73.4469" font-family="Helvetica,sans-Serif" font-size="11.00">0 rows</text>
<polygon fill="#ffffff" stroke="none" points="99.5,-67.2469 99.5,-85.2469 135.5,-85.2469 135.5,-67.2469 99.5,-67.2469"/>
<polygon fill="none" stroke="black" points="99.5,-67.2469 99.5,-85.2469 135.5,-85.2469 135.5,-67.2469 99.5,-67.2469"/>
<text text-anchor="start" x="115.5" y="-73.4469" font-family="Helvetica,sans-Serif" font-size="11.00">4 &gt;</text>
</a>
</g>
</g>
<!-- deliveries&#45;&gt;planting_sites -->
<g id="edge1" class="edge"><title>deliveries:planting_site_id:w&#45;&gt;planting_sites:id:e</title>
<path fill="none" stroke="black" d="M171.036,-247.964C148.188,-229.574 177.451,-158.247 136.5,-158.247"/>
<polygon fill="black" stroke="black" points="177.352,-249.901 183.944,-255.689 181.176,-251.074 185,-252.247 185,-252.247 185,-252.247 181.176,-251.074 186.056,-248.805 177.352,-249.901 177.352,-249.901"/>
<ellipse fill="none" stroke="black" cx="174.292" cy="-248.962" rx="3.20001" ry="3.20001"/>
</g>
<!-- plantings -->
<g id="node3" class="node"><title>plantings</title>
<g id="a_node3"><a xlink:href="../../tables/plantings.html" xlink:title="plantings" target="_top">
<polygon fill="#ffffff" stroke="none" points="457,-161.247 457,-351.247 575,-351.247 575,-161.247 457,-161.247"/>
<polygon fill="#f5f5f5" stroke="none" points="457,-329.247 457,-351.247 575,-351.247 575,-329.247 457,-329.247"/>
<polygon fill="none" stroke="black" points="457,-329.247 457,-351.247 575,-351.247 575,-329.247 457,-329.247"/>
<text text-anchor="start" x="462" y="-338.447" font-family="Helvetica,sans-Serif" font-weight="bold" font-size="11.00">plantings</text>
<text text-anchor="start" x="536" y="-337.447" font-family="Helvetica,sans-Serif" font-size="11.00">[table]</text>
<polygon fill="none" stroke="black" points="457,-307.247 457,-329.247 575,-329.247 575,-307.247 457,-307.247"/>
<image xlink:href="../../images/primaryKeys.png" width="11px" height="12px" preserveAspectRatio="xMinYMin meet" x="462" y="-324.247"/>
<text text-anchor="start" x="477" y="-315.447" font-family="Helvetica,sans-Serif" font-size="11.00">id</text>
<polygon fill="#ffffff" stroke="none" points="457,-285.247 457,-307.247 575,-307.247 575,-285.247 457,-285.247"/>
<polygon fill="none" stroke="black" points="457,-285.247 457,-307.247 575,-307.247 575,-285.247 457,-285.247"/>
<image xlink:href="../../images/foreignKeys.png" width="11px" height="12px" preserveAspectRatio="xMinYMin meet" x="462" y="-302.247"/>
<text text-anchor="start" x="477" y="-293.447" font-family="Helvetica,sans-Serif" font-size="11.00">delivery_id</text>
<polygon fill="none" stroke="black" points="457,-263.247 457,-285.247 575,-285.247 575,-263.247 457,-263.247"/>
<image xlink:href="../../images/foreignKeys.png" width="11px" height="12px" preserveAspectRatio="xMinYMin meet" x="462" y="-280.247"/>
<text text-anchor="start" x="477" y="-271.447" font-family="Helvetica,sans-Serif" font-size="11.00">planting_type_id</text>
<polygon fill="none" stroke="black" points="457,-241.247 457,-263.247 575,-263.247 575,-241.247 457,-241.247"/>
<image xlink:href="../../images/foreignKeys.png" width="11px" height="12px" preserveAspectRatio="xMinYMin meet" x="462" y="-258.247"/>
<text text-anchor="start" x="477" y="-249.447" font-family="Helvetica,sans-Serif" font-size="11.00">planting_site_id</text>
<polygon fill="#ffffff" stroke="none" points="457,-219.247 457,-241.247 575,-241.247 575,-219.247 457,-219.247"/>
<polygon fill="none" stroke="black" points="457,-219.247 457,-241.247 575,-241.247 575,-219.247 457,-219.247"/>
<image xlink:href="../../images/foreignKeys.png" width="11px" height="12px" preserveAspectRatio="xMinYMin meet" x="462" y="-236.247"/>
<text text-anchor="start" x="477" y="-227.447" font-family="Helvetica,sans-Serif" font-size="11.00">plot_id</text>
<polygon fill="#ffffff" stroke="none" points="457,-197.247 457,-219.247 575,-219.247 575,-197.247 457,-197.247"/>
<polygon fill="none" stroke="black" points="457,-197.247 457,-219.247 575,-219.247 575,-197.247 457,-197.247"/>
<text text-anchor="start" x="477" y="-205.447" font-family="Helvetica,sans-Serif" font-size="11.00">species_id</text>
<polygon fill="none" stroke="black" points="457,-179.247 457,-197.247 575,-197.247 575,-179.247 457,-179.247"/>
<text text-anchor="start" x="460" y="-185.447" font-family="Helvetica,sans-Serif" font-size="11.00">...</text>
<polygon fill="#ffffff" stroke="none" points="457,-161.247 457,-179.247 500,-179.247 500,-161.247 457,-161.247"/>
<polygon fill="none" stroke="black" points="457,-161.247 457,-179.247 500,-179.247 500,-161.247 457,-161.247"/>
<text text-anchor="start" x="460" y="-167.447" font-family="Helvetica,sans-Serif" font-size="11.00">&lt; 6</text>
<polygon fill="#ffffff" stroke="none" points="500,-161.247 500,-179.247 552,-179.247 552,-161.247 500,-161.247"/>
<polygon fill="none" stroke="black" points="500,-161.247 500,-179.247 552,-179.247 552,-161.247 500,-161.247"/>
<text text-anchor="start" x="513" y="-167.447" font-family="Helvetica,sans-Serif" font-size="11.00">0 rows</text>
<polygon fill="#ffffff" stroke="none" points="552,-161.247 552,-179.247 575,-179.247 575,-161.247 552,-161.247"/>
<polygon fill="none" stroke="black" points="552,-161.247 552,-179.247 575,-179.247 575,-161.247 552,-161.247"/>
<text text-anchor="start" x="565" y="-167.447" font-family="Helvetica,sans-Serif" font-size="11.00"> &#160;</text>
</a>
</g>
</g>
<!-- plantings&#45;&gt;deliveries -->
<g id="edge2" class="edge"><title>plantings:delivery_id:w&#45;&gt;deliveries:id.type:e</title>
<path fill="none" stroke="black" d="M441.491,-296.247C430.177,-296.247 422.993,-296.247 407,-296.247"/>
<polygon fill="black" stroke="black" points="448,-296.247 456,-299.847 452,-296.247 456,-296.247 456,-296.247 456,-296.247 452,-296.247 456,-292.647 448,-296.247 448,-296.247"/>
<ellipse fill="none" stroke="black" cx="444.8" cy="-296.247" rx="3.2" ry="3.2"/>
</g>
<!-- plantings&#45;&gt;deliveries -->
<g id="edge3" class="edge"><title>plantings:planting_site_id:w&#45;&gt;deliveries:planting_site_id.type:e</title>
<path fill="none" stroke="black" d="M441.491,-252.247C430.177,-252.247 422.993,-252.247 407,-252.247"/>
<polygon fill="black" stroke="black" points="448,-252.247 456,-255.847 452,-252.247 456,-252.247 456,-252.247 456,-252.247 452,-252.247 456,-248.647 448,-252.247 448,-252.247"/>
<ellipse fill="none" stroke="black" cx="444.8" cy="-252.247" rx="3.2" ry="3.2"/>
</g>
<!-- plantings&#45;&gt;planting_sites -->
<g id="edge4" class="edge"><title>plantings:planting_site_id:w&#45;&gt;planting_sites:id:e</title>
<path fill="none" stroke="black" d="M441.576,-250.381C390.787,-234.732 473.306,-124.814 416,-79.2469 332.511,-12.859 266.736,-23.1689 176,-79.2469 142.607,-99.8847 175.755,-158.247 136.5,-158.247"/>
<polygon fill="black" stroke="black" points="448.066,-251.221 455.538,-255.817 452.033,-251.734 456,-252.247 456,-252.247 456,-252.247 452.033,-251.734 456.462,-248.677 448.066,-251.221 448.066,-251.221"/>
<ellipse fill="none" stroke="black" cx="444.893" cy="-250.81" rx="3.2" ry="3.2"/>
</g>
</g>
</svg>
