<?xml version="1.0" encoding="UTF-8" standalone="no"?>
<!DOCTYPE svg PUBLIC "-//W3C//DTD SVG 1.1//EN"
 "http://www.w3.org/Graphics/SVG/1.1/DTD/svg11.dtd">
<!-- Generated by graphviz version 2.47.1 (20210515.0534)
 -->
<!-- Title: oneDegreeRelationshipsDiagram Pages: 1 -->
<svg width="1202pt" height="460pt"
 viewBox="0.00 0.00 1202.00 459.73" xmlns="http://www.w3.org/2000/svg" xmlns:xlink="http://www.w3.org/1999/xlink">
<g id="graph0" class="graph" transform="scale(1 1) rotate(0) translate(4 455.73)">
<title>oneDegreeRelationshipsDiagram</title>
<polygon fill="#ffffff" stroke="transparent" points="-4,4 -4,-455.73 1198,-455.73 1198,4 -4,4"/>
<text text-anchor="middle" x="73.5" y="-7.2" font-family="Helvetica,sans-Serif" font-size="11.00">Generated by SchemaSpy</text>
<!-- monitoring_plot_histories -->
<g id="node1" class="node">
<title>monitoring_plot_histories</title>
<g id="a_node1"><a xlink:href="../../tables/monitoring_plot_histories.html" xlink:title="monitoring_plot_histories" target="_top">
<polygon fill="#ffffff" stroke="transparent" points="664,-111.73 664,-331.73 957,-331.73 957,-111.73 664,-111.73"/>
<polygon fill="#f5f5f5" stroke="transparent" points="666.5,-307.73 666.5,-329.73 955.5,-329.73 955.5,-307.73 666.5,-307.73"/>
<polygon fill="none" stroke="black" points="666.5,-307.73 666.5,-329.73 955.5,-329.73 955.5,-307.73 666.5,-307.73"/>
<text text-anchor="start" x="671.5" y="-316.93" font-family="Helvetica,sans-Serif" font-weight="bold" font-size="11.00">monitoring_plot_histories</text>
<text text-anchor="start" x="916.5" y="-315.93" font-family="Helvetica,sans-Serif" font-size="11.00">[table]</text>
<polygon fill="none" stroke="black" points="666.5,-285.73 666.5,-307.73 855.5,-307.73 855.5,-285.73 666.5,-285.73"/>
<image xlink:href="../../images/primaryKeys.png" width="11px" height="12px" preserveAspectRatio="xMinYMin meet" x="671.5" y="-302.729"/>
<text text-anchor="start" x="686.5" y="-293.93" font-family="Helvetica,sans-Serif" font-size="11.00">id</text>
<polygon fill="none" stroke="black" points="855.5,-285.73 855.5,-307.73 955.5,-307.73 955.5,-285.73 855.5,-285.73"/>
<text text-anchor="start" x="858.5" y="-293.93" font-family="Helvetica,sans-Serif" font-size="11.00">int8[19]</text>
<polygon fill="#ffffff" stroke="transparent" points="666.5,-263.73 666.5,-285.73 855.5,-285.73 855.5,-263.73 666.5,-263.73"/>
<polygon fill="none" stroke="black" points="666.5,-263.73 666.5,-285.73 855.5,-285.73 855.5,-263.73 666.5,-263.73"/>
<image xlink:href="../../images/foreignKeys.png" width="11px" height="12px" preserveAspectRatio="xMinYMin meet" x="671.5" y="-280.729"/>
<text text-anchor="start" x="686.5" y="-271.93" font-family="Helvetica,sans-Serif" font-size="11.00">monitoring_plot_id</text>
<polygon fill="none" stroke="black" points="855.5,-263.73 855.5,-285.73 955.5,-285.73 955.5,-263.73 855.5,-263.73"/>
<text text-anchor="start" x="858.5" y="-271.93" font-family="Helvetica,sans-Serif" font-size="11.00">int8[19]</text>
<polygon fill="#ffffff" stroke="transparent" points="666.5,-241.73 666.5,-263.73 855.5,-263.73 855.5,-241.73 666.5,-241.73"/>
<polygon fill="none" stroke="black" points="666.5,-241.73 666.5,-263.73 855.5,-263.73 855.5,-241.73 666.5,-241.73"/>
<image xlink:href="../../images/foreignKeys.png" width="11px" height="12px" preserveAspectRatio="xMinYMin meet" x="671.5" y="-258.729"/>
<text text-anchor="start" x="686.5" y="-249.93" font-family="Helvetica,sans-Serif" font-size="11.00">planting_subzone_id</text>
<polygon fill="none" stroke="black" points="855.5,-241.73 855.5,-263.73 955.5,-263.73 955.5,-241.73 855.5,-241.73"/>
<text text-anchor="start" x="858.5" y="-249.93" font-family="Helvetica,sans-Serif" font-size="11.00">int8[19]</text>
<polygon fill="#ffffff" stroke="transparent" points="666.5,-219.73 666.5,-241.73 855.5,-241.73 855.5,-219.73 666.5,-219.73"/>
<polygon fill="none" stroke="black" points="666.5,-219.73 666.5,-241.73 855.5,-241.73 855.5,-219.73 666.5,-219.73"/>
<image xlink:href="../../images/foreignKeys.png" width="11px" height="12px" preserveAspectRatio="xMinYMin meet" x="671.5" y="-236.729"/>
<text text-anchor="start" x="686.5" y="-227.93" font-family="Helvetica,sans-Serif" font-size="11.00">planting_site_id</text>
<polygon fill="none" stroke="black" points="855.5,-219.73 855.5,-241.73 955.5,-241.73 955.5,-219.73 855.5,-219.73"/>
<text text-anchor="start" x="858.5" y="-227.93" font-family="Helvetica,sans-Serif" font-size="11.00">int8[19]</text>
<polygon fill="#ffffff" stroke="transparent" points="666.5,-197.73 666.5,-219.73 855.5,-219.73 855.5,-197.73 666.5,-197.73"/>
<polygon fill="none" stroke="black" points="666.5,-197.73 666.5,-219.73 855.5,-219.73 855.5,-197.73 666.5,-197.73"/>
<image xlink:href="../../images/foreignKeys.png" width="11px" height="12px" preserveAspectRatio="xMinYMin meet" x="671.5" y="-214.729"/>
<text text-anchor="start" x="686.5" y="-205.93" font-family="Helvetica,sans-Serif" font-size="11.00">planting_subzone_history_id</text>
<polygon fill="none" stroke="black" points="855.5,-197.73 855.5,-219.73 955.5,-219.73 955.5,-197.73 855.5,-197.73"/>
<text text-anchor="start" x="858.5" y="-205.93" font-family="Helvetica,sans-Serif" font-size="11.00">int8[19]</text>
<polygon fill="#ffffff" stroke="transparent" points="666.5,-175.73 666.5,-197.73 855.5,-197.73 855.5,-175.73 666.5,-175.73"/>
<polygon fill="none" stroke="black" points="666.5,-175.73 666.5,-197.73 855.5,-197.73 855.5,-175.73 666.5,-175.73"/>
<image xlink:href="../../images/foreignKeys.png" width="11px" height="12px" preserveAspectRatio="xMinYMin meet" x="671.5" y="-192.729"/>
<text text-anchor="start" x="686.5" y="-183.93" font-family="Helvetica,sans-Serif" font-size="11.00">planting_site_history_id</text>
<polygon fill="none" stroke="black" points="855.5,-175.73 855.5,-197.73 955.5,-197.73 955.5,-175.73 855.5,-175.73"/>
<text text-anchor="start" x="858.5" y="-183.93" font-family="Helvetica,sans-Serif" font-size="11.00">int8[19]</text>
<polygon fill="#ffffff" stroke="transparent" points="666.5,-153.73 666.5,-175.73 855.5,-175.73 855.5,-153.73 666.5,-153.73"/>
<polygon fill="none" stroke="black" points="666.5,-153.73 666.5,-175.73 855.5,-175.73 855.5,-153.73 666.5,-153.73"/>
<text text-anchor="start" x="686.5" y="-161.93" font-family="Helvetica,sans-Serif" font-size="11.00">created_by</text>
<polygon fill="none" stroke="black" points="855.5,-153.73 855.5,-175.73 955.5,-175.73 955.5,-153.73 855.5,-153.73"/>
<text text-anchor="start" x="858.5" y="-161.93" font-family="Helvetica,sans-Serif" font-size="11.00">int8[19]</text>
<polygon fill="none" stroke="black" points="666.5,-131.73 666.5,-153.73 855.5,-153.73 855.5,-131.73 666.5,-131.73"/>
<text text-anchor="start" x="686.5" y="-139.93" font-family="Helvetica,sans-Serif" font-size="11.00">created_time</text>
<polygon fill="none" stroke="black" points="855.5,-131.73 855.5,-153.73 955.5,-153.73 955.5,-131.73 855.5,-131.73"/>
<text text-anchor="start" x="858.5" y="-139.93" font-family="Helvetica,sans-Serif" font-size="11.00">timestamptz[35,6]</text>
<polygon fill="#ffffff" stroke="transparent" points="666.5,-113.73 666.5,-131.73 765.5,-131.73 765.5,-113.73 666.5,-113.73"/>
<polygon fill="none" stroke="black" points="666.5,-113.73 666.5,-131.73 765.5,-131.73 765.5,-113.73 666.5,-113.73"/>
<text text-anchor="start" x="669.5" y="-119.93" font-family="Helvetica,sans-Serif" font-size="11.00">&lt; 5</text>
<polygon fill="#ffffff" stroke="transparent" points="765.5,-113.73 765.5,-131.73 855.5,-131.73 855.5,-113.73 765.5,-113.73"/>
<polygon fill="none" stroke="black" points="765.5,-113.73 765.5,-131.73 855.5,-131.73 855.5,-113.73 765.5,-113.73"/>
<text text-anchor="start" x="845.5" y="-119.93" font-family="Helvetica,sans-Serif" font-size="11.00"> &#160;</text>
<polygon fill="#ffffff" stroke="transparent" points="855.5,-113.73 855.5,-131.73 955.5,-131.73 955.5,-113.73 855.5,-113.73"/>
<polygon fill="none" stroke="black" points="855.5,-113.73 855.5,-131.73 955.5,-131.73 955.5,-113.73 855.5,-113.73"/>
<text text-anchor="start" x="936.5" y="-119.93" font-family="Helvetica,sans-Serif" font-size="11.00">1 &gt;</text>
<polygon fill="none" stroke="black" stroke-width="2" points="665,-112.73 665,-330.73 956,-330.73 956,-112.73 665,-112.73"/>
</a>
</g>
</g>
<!-- monitoring_plots -->
<g id="node2" class="node">
<title>monitoring_plots</title>
<g id="a_node2"><a xlink:href="../../tables/monitoring_plots.html" xlink:title="monitoring_plots" target="_top">
<polygon fill="#ffffff" stroke="transparent" points="420.5,-279.73 420.5,-447.73 604.5,-447.73 604.5,-279.73 420.5,-279.73"/>
<polygon fill="#f5f5f5" stroke="transparent" points="420.5,-425.73 420.5,-447.73 604.5,-447.73 604.5,-425.73 420.5,-425.73"/>
<polygon fill="none" stroke="black" points="420.5,-425.73 420.5,-447.73 604.5,-447.73 604.5,-425.73 420.5,-425.73"/>
<text text-anchor="start" x="425.5" y="-434.93" font-family="Helvetica,sans-Serif" font-weight="bold" font-size="11.00">monitoring_plots</text>
<text text-anchor="start" x="565.5" y="-433.93" font-family="Helvetica,sans-Serif" font-size="11.00">[table]</text>
<polygon fill="none" stroke="black" points="420.5,-403.73 420.5,-425.73 604.5,-425.73 604.5,-403.73 420.5,-403.73"/>
<image xlink:href="../../images/primaryKeys.png" width="11px" height="12px" preserveAspectRatio="xMinYMin meet" x="425.5" y="-420.729"/>
<text text-anchor="start" x="440.5" y="-411.93" font-family="Helvetica,sans-Serif" font-size="11.00">id</text>
<polygon fill="none" stroke="black" points="420.5,-381.73 420.5,-403.73 604.5,-403.73 604.5,-381.73 420.5,-381.73"/>
<image xlink:href="../../images/foreignKeys.png" width="11px" height="12px" preserveAspectRatio="xMinYMin meet" x="425.5" y="-398.729"/>
<text text-anchor="start" x="440.5" y="-389.93" font-family="Helvetica,sans-Serif" font-size="11.00">planting_subzone_id</text>
<polygon fill="#ffffff" stroke="transparent" points="420.5,-359.73 420.5,-381.73 604.5,-381.73 604.5,-359.73 420.5,-359.73"/>
<polygon fill="none" stroke="black" points="420.5,-359.73 420.5,-381.73 604.5,-381.73 604.5,-359.73 420.5,-359.73"/>
<image xlink:href="../../images/foreignKeys.png" width="11px" height="12px" preserveAspectRatio="xMinYMin meet" x="425.5" y="-376.729"/>
<text text-anchor="start" x="440.5" y="-367.93" font-family="Helvetica,sans-Serif" font-size="11.00">planting_site_id</text>
<polygon fill="#ffffff" stroke="transparent" points="420.5,-337.73 420.5,-359.73 604.5,-359.73 604.5,-337.73 420.5,-337.73"/>
<polygon fill="none" stroke="black" points="420.5,-337.73 420.5,-359.73 604.5,-359.73 604.5,-337.73 420.5,-337.73"/>
<text text-anchor="start" x="440.5" y="-345.93" font-family="Helvetica,sans-Serif" font-size="11.00">organization_id</text>
<polygon fill="#ffffff" stroke="transparent" points="420.5,-315.73 420.5,-337.73 604.5,-337.73 604.5,-315.73 420.5,-315.73"/>
<polygon fill="none" stroke="black" points="420.5,-315.73 420.5,-337.73 604.5,-337.73 604.5,-315.73 420.5,-315.73"/>
<text text-anchor="start" x="440.5" y="-323.93" font-family="Helvetica,sans-Serif" font-size="11.00">plot_number</text>
<polygon fill="none" stroke="black" points="420.5,-297.73 420.5,-315.73 604.5,-315.73 604.5,-297.73 420.5,-297.73"/>
<text text-anchor="start" x="423.5" y="-303.93" font-family="Helvetica,sans-Serif" font-size="11.00">...</text>
<polygon fill="#ffffff" stroke="transparent" points="420.5,-279.73 420.5,-297.73 502.5,-297.73 502.5,-279.73 420.5,-279.73"/>
<polygon fill="none" stroke="black" points="420.5,-279.73 420.5,-297.73 502.5,-297.73 502.5,-279.73 420.5,-279.73"/>
<text text-anchor="start" x="423.5" y="-285.93" font-family="Helvetica,sans-Serif" font-size="11.00">&lt; 2</text>
<polygon fill="#ffffff" stroke="transparent" points="502.5,-279.73 502.5,-297.73 545.5,-297.73 545.5,-279.73 502.5,-279.73"/>
<polygon fill="none" stroke="black" points="502.5,-279.73 502.5,-297.73 545.5,-297.73 545.5,-279.73 502.5,-279.73"/>
<text text-anchor="start" x="535.5" y="-285.93" font-family="Helvetica,sans-Serif" font-size="11.00"> &#160;</text>
<polygon fill="#ffffff" stroke="transparent" points="545.5,-279.73 545.5,-297.73 604.5,-297.73 604.5,-279.73 545.5,-279.73"/>
<polygon fill="none" stroke="black" points="545.5,-279.73 545.5,-297.73 604.5,-297.73 604.5,-279.73 545.5,-279.73"/>
<text text-anchor="start" x="579.5" y="-285.93" font-family="Helvetica,sans-Serif" font-size="11.00">14 &gt;</text>
</a>
</g>
</g>
<!-- monitoring_plot_histories&#45;&gt;monitoring_plots -->
<g id="edge1" class="edge">
<title>monitoring_plot_histories:w&#45;&gt;monitoring_plots:e</title>
<path fill="none" stroke="black" d="M651.3,-277.53C609.46,-297.26 667.51,-414.73 605.5,-414.73"/>
<polygon fill="black" stroke="black" points="657.65,-276.28 666.2,-278.26 661.58,-275.5 665.5,-274.73 665.5,-274.73 665.5,-274.73 661.58,-275.5 664.8,-271.2 657.65,-276.28 657.65,-276.28"/>
<ellipse fill="none" stroke="black" cx="654.51" cy="-276.89" rx="3.2" ry="3.2"/>
</g>
<!-- planting_site_histories -->
<g id="node3" class="node">
<title>planting_site_histories</title>
<g id="a_node3"><a xlink:href="../../tables/planting_site_histories.html" xlink:title="planting_site_histories" target="_top">
<polygon fill="#ffffff" stroke="transparent" points="183,-45.73 183,-147.73 361,-147.73 361,-45.73 183,-45.73"/>
<polygon fill="#f5f5f5" stroke="transparent" points="183,-125.73 183,-147.73 361,-147.73 361,-125.73 183,-125.73"/>
<polygon fill="none" stroke="black" points="183,-125.73 183,-147.73 361,-147.73 361,-125.73 183,-125.73"/>
<text text-anchor="start" x="188" y="-134.93" font-family="Helvetica,sans-Serif" font-weight="bold" font-size="11.00">planting_site_histories</text>
<text text-anchor="start" x="322" y="-133.93" font-family="Helvetica,sans-Serif" font-size="11.00">[table]</text>
<polygon fill="none" stroke="black" points="183,-103.73 183,-125.73 361,-125.73 361,-103.73 183,-103.73"/>
<image xlink:href="../../images/primaryKeys.png" width="11px" height="12px" preserveAspectRatio="xMinYMin meet" x="188" y="-120.729"/>
<text text-anchor="start" x="215" y="-111.93" font-family="Helvetica,sans-Serif" font-size="11.00">id</text>
<polygon fill="#ffffff" stroke="transparent" points="183,-81.73 183,-103.73 361,-103.73 361,-81.73 183,-81.73"/>
<polygon fill="none" stroke="black" points="183,-81.73 183,-103.73 361,-103.73 361,-81.73 183,-81.73"/>
<image xlink:href="../../images/foreignKeys.png" width="11px" height="12px" preserveAspectRatio="xMinYMin meet" x="188" y="-98.7293"/>
<text text-anchor="start" x="215" y="-89.93" font-family="Helvetica,sans-Serif" font-size="11.00">planting_site_id</text>
<polygon fill="none" stroke="black" points="183,-63.73 183,-81.73 361,-81.73 361,-63.73 183,-63.73"/>
<text text-anchor="start" x="186" y="-69.93" font-family="Helvetica,sans-Serif" font-size="11.00">...</text>
<polygon fill="#ffffff" stroke="transparent" points="183,-45.73 183,-63.73 265,-63.73 265,-45.73 183,-45.73"/>
<polygon fill="none" stroke="black" points="183,-45.73 183,-63.73 265,-63.73 265,-45.73 183,-45.73"/>
<text text-anchor="start" x="186" y="-51.93" font-family="Helvetica,sans-Serif" font-size="11.00">&lt; 1</text>
<polygon fill="#ffffff" stroke="transparent" points="265,-45.73 265,-63.73 308,-63.73 308,-45.73 265,-45.73"/>
<polygon fill="none" stroke="black" points="265,-45.73 265,-63.73 308,-63.73 308,-45.73 265,-45.73"/>
<text text-anchor="start" x="298" y="-51.93" font-family="Helvetica,sans-Serif" font-size="11.00"> &#160;</text>
<polygon fill="#ffffff" stroke="transparent" points="308,-45.73 308,-63.73 361,-63.73 361,-45.73 308,-45.73"/>
<polygon fill="none" stroke="black" points="308,-45.73 308,-63.73 361,-63.73 361,-45.73 308,-45.73"/>
<text text-anchor="start" x="342" y="-51.93" font-family="Helvetica,sans-Serif" font-size="11.00">3 &gt;</text>
</a>
</g>
</g>
<!-- monitoring_plot_histories&#45;&gt;planting_site_histories -->
<g id="edge2" class="edge">
<title>monitoring_plot_histories:w&#45;&gt;planting_site_histories:e</title>
<path fill="none" stroke="black" d="M651.13,-183.85C621.65,-168.72 663.35,-98 623,-69.73 542.56,-13.37 491.6,-29.49 402,-69.73 377.59,-80.69 388.76,-114.73 362,-114.73"/>
<polygon fill="black" stroke="black" points="657.66,-185.16 664.79,-190.26 661.58,-185.94 665.5,-186.73 665.5,-186.73 665.5,-186.73 661.58,-185.94 666.21,-183.2 657.66,-185.16 657.66,-185.16"/>
<ellipse fill="none" stroke="black" cx="654.52" cy="-184.53" rx="3.2" ry="3.2"/>
</g>
<!-- planting_sites -->
<g id="node4" class="node">
<title>planting_sites</title>
<g id="a_node4"><a xlink:href="../../tables/planting_sites.html" xlink:title="planting_sites" target="_top">
<polygon fill="#ffffff" stroke="transparent" points="8,-150.73 8,-296.73 134,-296.73 134,-150.73 8,-150.73"/>
<polygon fill="#f5f5f5" stroke="transparent" points="8,-274.73 8,-296.73 134,-296.73 134,-274.73 8,-274.73"/>
<polygon fill="none" stroke="black" points="8,-274.73 8,-296.73 134,-296.73 134,-274.73 8,-274.73"/>
<text text-anchor="start" x="13" y="-283.93" font-family="Helvetica,sans-Serif" font-weight="bold" font-size="11.00">planting_sites</text>
<text text-anchor="start" x="95" y="-282.93" font-family="Helvetica,sans-Serif" font-size="11.00">[table]</text>
<polygon fill="none" stroke="black" points="8,-252.73 8,-274.73 134,-274.73 134,-252.73 8,-252.73"/>
<image xlink:href="../../images/primaryKeys.png" width="11px" height="12px" preserveAspectRatio="xMinYMin meet" x="13" y="-269.729"/>
<text text-anchor="start" x="35" y="-260.93" font-family="Helvetica,sans-Serif" font-size="11.00">id</text>
<polygon fill="#ffffff" stroke="transparent" points="8,-230.73 8,-252.73 134,-252.73 134,-230.73 8,-230.73"/>
<polygon fill="none" stroke="black" points="8,-230.73 8,-252.73 134,-252.73 134,-230.73 8,-230.73"/>
<text text-anchor="start" x="35" y="-238.93" font-family="Helvetica,sans-Serif" font-size="11.00">organization_id</text>
<polygon fill="#ffffff" stroke="transparent" points="8,-208.73 8,-230.73 134,-230.73 134,-208.73 8,-208.73"/>
<polygon fill="none" stroke="black" points="8,-208.73 8,-230.73 134,-230.73 134,-208.73 8,-208.73"/>
<text text-anchor="start" x="35" y="-216.93" font-family="Helvetica,sans-Serif" font-size="11.00">name</text>
<polygon fill="#ffffff" stroke="transparent" points="8,-186.73 8,-208.73 134,-208.73 134,-186.73 8,-186.73"/>
<polygon fill="none" stroke="black" points="8,-186.73 8,-208.73 134,-208.73 134,-186.73 8,-186.73"/>
<text text-anchor="start" x="35" y="-194.93" font-family="Helvetica,sans-Serif" font-size="11.00">project_id</text>
<polygon fill="none" stroke="black" points="8,-168.73 8,-186.73 134,-186.73 134,-168.73 8,-168.73"/>
<text text-anchor="start" x="11" y="-174.93" font-family="Helvetica,sans-Serif" font-size="11.00">...</text>
<polygon fill="#ffffff" stroke="transparent" points="8,-150.73 8,-168.73 57,-168.73 57,-150.73 8,-150.73"/>
<polygon fill="none" stroke="black" points="8,-150.73 8,-168.73 57,-168.73 57,-150.73 8,-150.73"/>
<text text-anchor="start" x="11" y="-156.93" font-family="Helvetica,sans-Serif" font-size="11.00"> &#160;</text>
<polygon fill="#ffffff" stroke="transparent" points="57,-150.73 57,-168.73 88,-168.73 88,-150.73 57,-150.73"/>
<polygon fill="none" stroke="black" points="57,-150.73 57,-168.73 88,-168.73 88,-150.73 57,-150.73"/>
<text text-anchor="start" x="78" y="-156.93" font-family="Helvetica,sans-Serif" font-size="11.00"> &#160;</text>
<polygon fill="#ffffff" stroke="transparent" points="88,-150.73 88,-168.73 134,-168.73 134,-150.73 88,-150.73"/>
<polygon fill="none" stroke="black" points="88,-150.73 88,-168.73 134,-168.73 134,-150.73 88,-150.73"/>
<text text-anchor="start" x="109" y="-156.93" font-family="Helvetica,sans-Serif" font-size="11.00">12 &gt;</text>
</a>
</g>
</g>
<!-- monitoring_plot_histories&#45;&gt;planting_sites -->
<g id="edge3" class="edge">
<title>monitoring_plot_histories:w&#45;&gt;planting_sites:e</title>
<path fill="none" stroke="black" d="M651.04,-230.67C444.6,-228.86 381.33,-189.17 175,-242.73 155.57,-247.77 155.08,-263.73 135,-263.73"/>
<polygon fill="black" stroke="black" points="657.5,-230.69 665.48,-234.33 661.5,-230.71 665.5,-230.73 665.5,-230.73 665.5,-230.73 661.5,-230.71 665.52,-227.13 657.5,-230.69 657.5,-230.69"/>
<ellipse fill="none" stroke="black" cx="654.3" cy="-230.68" rx="3.2" ry="3.2"/>
</g>
<!-- planting_subzone_histories -->
<g id="node5" class="node">
<title>planting_subzone_histories</title>
<g id="a_node5"><a xlink:href="../../tables/planting_subzone_histories.html" xlink:title="planting_subzone_histories" target="_top">
<polygon fill="#ffffff" stroke="transparent" points="410,-80.73 410,-204.73 615,-204.73 615,-80.73 410,-80.73"/>
<polygon fill="#f5f5f5" stroke="transparent" points="410.5,-182.73 410.5,-204.73 615.5,-204.73 615.5,-182.73 410.5,-182.73"/>
<polygon fill="none" stroke="black" points="410.5,-182.73 410.5,-204.73 615.5,-204.73 615.5,-182.73 410.5,-182.73"/>
<text text-anchor="start" x="415.5" y="-191.93" font-family="Helvetica,sans-Serif" font-weight="bold" font-size="11.00">planting_subzone_histories</text>
<text text-anchor="start" x="576.5" y="-190.93" font-family="Helvetica,sans-Serif" font-size="11.00">[table]</text>
<polygon fill="none" stroke="black" points="410.5,-160.73 410.5,-182.73 615.5,-182.73 615.5,-160.73 410.5,-160.73"/>
<image xlink:href="../../images/primaryKeys.png" width="11px" height="12px" preserveAspectRatio="xMinYMin meet" x="415.5" y="-177.729"/>
<text text-anchor="start" x="442.5" y="-168.93" font-family="Helvetica,sans-Serif" font-size="11.00">id</text>
<polygon fill="#ffffff" stroke="transparent" points="410.5,-138.73 410.5,-160.73 615.5,-160.73 615.5,-138.73 410.5,-138.73"/>
<polygon fill="none" stroke="black" points="410.5,-138.73 410.5,-160.73 615.5,-160.73 615.5,-138.73 410.5,-138.73"/>
<image xlink:href="../../images/foreignKeys.png" width="11px" height="12px" preserveAspectRatio="xMinYMin meet" x="415.5" y="-155.729"/>
<text text-anchor="start" x="442.5" y="-146.93" font-family="Helvetica,sans-Serif" font-size="11.00">planting_zone_history_id</text>
<polygon fill="#ffffff" stroke="transparent" points="410.5,-116.73 410.5,-138.73 615.5,-138.73 615.5,-116.73 410.5,-116.73"/>
<polygon fill="none" stroke="black" points="410.5,-116.73 410.5,-138.73 615.5,-138.73 615.5,-116.73 410.5,-116.73"/>
<image xlink:href="../../images/foreignKeys.png" width="11px" height="12px" preserveAspectRatio="xMinYMin meet" x="415.5" y="-133.729"/>
<text text-anchor="start" x="442.5" y="-124.93" font-family="Helvetica,sans-Serif" font-size="11.00">planting_subzone_id</text>
<polygon fill="none" stroke="black" points="410.5,-98.73 410.5,-116.73 615.5,-116.73 615.5,-98.73 410.5,-98.73"/>
<text text-anchor="start" x="413.5" y="-104.93" font-family="Helvetica,sans-Serif" font-size="11.00">...</text>
<polygon fill="#ffffff" stroke="transparent" points="410.5,-80.73 410.5,-98.73 506.5,-98.73 506.5,-80.73 410.5,-80.73"/>
<polygon fill="none" stroke="black" points="410.5,-80.73 410.5,-98.73 506.5,-98.73 506.5,-80.73 410.5,-80.73"/>
<text text-anchor="start" x="413.5" y="-86.93" font-family="Helvetica,sans-Serif" font-size="11.00">&lt; 2</text>
<polygon fill="#ffffff" stroke="transparent" points="506.5,-80.73 506.5,-98.73 556.5,-98.73 556.5,-80.73 506.5,-80.73"/>
<polygon fill="none" stroke="black" points="506.5,-80.73 506.5,-98.73 556.5,-98.73 556.5,-80.73 506.5,-80.73"/>
<text text-anchor="start" x="546.5" y="-86.93" font-family="Helvetica,sans-Serif" font-size="11.00"> &#160;</text>
<polygon fill="#ffffff" stroke="transparent" points="556.5,-80.73 556.5,-98.73 615.5,-98.73 615.5,-80.73 556.5,-80.73"/>
<polygon fill="none" stroke="black" points="556.5,-80.73 556.5,-98.73 615.5,-98.73 615.5,-80.73 556.5,-80.73"/>
<text text-anchor="start" x="596.5" y="-86.93" font-family="Helvetica,sans-Serif" font-size="11.00">1 &gt;</text>
</a>
</g>
</g>
<!-- monitoring_plot_histories&#45;&gt;planting_subzone_histories -->
<g id="edge4" class="edge">
<title>monitoring_plot_histories:w&#45;&gt;planting_subzone_histories:e</title>
<path fill="none" stroke="black" d="M651.62,-204.19C639.08,-194.31 637.82,-171.73 616.5,-171.73"/>
<polygon fill="black" stroke="black" points="657.9,-206.24 664.38,-212.15 661.7,-207.49 665.5,-208.73 665.5,-208.73 665.5,-208.73 661.7,-207.49 666.62,-205.31 657.9,-206.24 657.9,-206.24"/>
<ellipse fill="none" stroke="black" cx="654.85" cy="-205.25" rx="3.2" ry="3.2"/>
</g>
<!-- planting_subzones -->
<g id="node6" class="node">
<title>planting_subzones</title>
<g id="a_node6"><a xlink:href="../../tables/planting_subzones.html" xlink:title="planting_subzones" target="_top">
<polygon fill="#ffffff" stroke="transparent" points="186,-252.73 186,-398.73 358,-398.73 358,-252.73 186,-252.73"/>
<polygon fill="#f5f5f5" stroke="transparent" points="186,-376.73 186,-398.73 358,-398.73 358,-376.73 186,-376.73"/>
<polygon fill="none" stroke="black" points="186,-376.73 186,-398.73 358,-398.73 358,-376.73 186,-376.73"/>
<text text-anchor="start" x="191" y="-385.93" font-family="Helvetica,sans-Serif" font-weight="bold" font-size="11.00">planting_subzones</text>
<text text-anchor="start" x="319" y="-384.93" font-family="Helvetica,sans-Serif" font-size="11.00">[table]</text>
<polygon fill="none" stroke="black" points="186,-354.73 186,-376.73 358,-376.73 358,-354.73 186,-354.73"/>
<image xlink:href="../../images/primaryKeys.png" width="11px" height="12px" preserveAspectRatio="xMinYMin meet" x="191" y="-371.729"/>
<text text-anchor="start" x="206" y="-362.93" font-family="Helvetica,sans-Serif" font-size="11.00">id</text>
<polygon fill="#ffffff" stroke="transparent" points="186,-332.73 186,-354.73 358,-354.73 358,-332.73 186,-332.73"/>
<polygon fill="none" stroke="black" points="186,-332.73 186,-354.73 358,-354.73 358,-332.73 186,-332.73"/>
<image xlink:href="../../images/foreignKeys.png" width="11px" height="12px" preserveAspectRatio="xMinYMin meet" x="191" y="-349.729"/>
<text text-anchor="start" x="206" y="-340.93" font-family="Helvetica,sans-Serif" font-size="11.00">planting_zone_id</text>
<polygon fill="#ffffff" stroke="transparent" points="186,-310.73 186,-332.73 358,-332.73 358,-310.73 186,-310.73"/>
<polygon fill="none" stroke="black" points="186,-310.73 186,-332.73 358,-332.73 358,-310.73 186,-310.73"/>
<text text-anchor="start" x="206" y="-318.93" font-family="Helvetica,sans-Serif" font-size="11.00">name</text>
<polygon fill="#ffffff" stroke="transparent" points="186,-288.73 186,-310.73 358,-310.73 358,-288.73 186,-288.73"/>
<polygon fill="none" stroke="black" points="186,-288.73 186,-310.73 358,-310.73 358,-288.73 186,-288.73"/>
<image xlink:href="../../images/foreignKeys.png" width="11px" height="12px" preserveAspectRatio="xMinYMin meet" x="191" y="-305.729"/>
<text text-anchor="start" x="206" y="-296.93" font-family="Helvetica,sans-Serif" font-size="11.00">planting_site_id</text>
<polygon fill="none" stroke="black" points="186,-270.73 186,-288.73 358,-288.73 358,-270.73 186,-270.73"/>
<text text-anchor="start" x="189" y="-276.93" font-family="Helvetica,sans-Serif" font-size="11.00">...</text>
<polygon fill="#ffffff" stroke="transparent" points="186,-252.73 186,-270.73 265,-270.73 265,-252.73 186,-252.73"/>
<polygon fill="none" stroke="black" points="186,-252.73 186,-270.73 265,-270.73 265,-252.73 186,-252.73"/>
<text text-anchor="start" x="189" y="-258.93" font-family="Helvetica,sans-Serif" font-size="11.00">&lt; 3</text>
<polygon fill="#ffffff" stroke="transparent" points="265,-252.73 265,-270.73 307,-270.73 307,-252.73 265,-252.73"/>
<polygon fill="none" stroke="black" points="265,-252.73 265,-270.73 307,-270.73 307,-252.73 265,-252.73"/>
<text text-anchor="start" x="297" y="-258.93" font-family="Helvetica,sans-Serif" font-size="11.00"> &#160;</text>
<polygon fill="#ffffff" stroke="transparent" points="307,-252.73 307,-270.73 358,-270.73 358,-252.73 307,-252.73"/>
<polygon fill="none" stroke="black" points="307,-252.73 307,-270.73 358,-270.73 358,-252.73 307,-252.73"/>
<text text-anchor="start" x="339" y="-258.93" font-family="Helvetica,sans-Serif" font-size="11.00">8 &gt;</text>
</a>
</g>
</g>
<!-- monitoring_plot_histories&#45;&gt;planting_subzones -->
<g id="edge5" class="edge">
<title>monitoring_plot_histories:w&#45;&gt;planting_subzones:e</title>
<path fill="none" stroke="black" d="M650.9,-252.48C584.17,-250.56 446.62,-238.74 402,-269.73 363.6,-296.4 405.75,-365.73 359,-365.73"/>
<polygon fill="black" stroke="black" points="657.5,-252.59 665.44,-256.33 661.5,-252.66 665.5,-252.73 665.5,-252.73 665.5,-252.73 661.5,-252.66 665.56,-249.13 657.5,-252.59 657.5,-252.59"/>
<ellipse fill="none" stroke="black" cx="654.3" cy="-252.54" rx="3.2" ry="3.2"/>
</g>
<!-- monitoring_plots&#45;&gt;planting_sites -->
<g id="edge6" class="edge">
<title>monitoring_plots:w&#45;&gt;planting_sites:e</title>
<path fill="none" stroke="black" d="M405.36,-374.24C391.72,-382.4 390.18,-402.5 369,-409.73 287.4,-437.57 243.55,-462.03 175,-409.73 121.51,-368.92 202.28,-263.73 135,-263.73"/>
<polygon fill="black" stroke="black" points="411.74,-372.66 420.37,-374.22 415.62,-371.69 419.5,-370.73 419.5,-370.73 419.5,-370.73 415.62,-371.69 418.63,-367.24 411.74,-372.66 411.74,-372.66"/>
<ellipse fill="none" stroke="black" cx="408.63" cy="-373.43" rx="3.2" ry="3.2"/>
</g>
<!-- monitoring_plots&#45;&gt;planting_subzones -->
<g id="edge7" class="edge">
<title>monitoring_plots:w&#45;&gt;planting_subzones:e</title>
<path fill="none" stroke="black" d="M405.02,-390.04C388.36,-383.21 382.69,-365.73 359,-365.73"/>
<polygon fill="black" stroke="black" points="411.63,-391.27 418.84,-396.27 415.57,-392 419.5,-392.73 419.5,-392.73 419.5,-392.73 415.57,-392 420.16,-389.19 411.63,-391.27 411.63,-391.27"/>
<ellipse fill="none" stroke="black" cx="408.49" cy="-390.69" rx="3.2" ry="3.2"/>
</g>
<!-- planting_site_histories&#45;&gt;planting_sites -->
<g id="edge10" class="edge">
<title>planting_site_histories:w&#45;&gt;planting_sites:e</title>
<path fill="none" stroke="black" d="M167.74,-95.28C118.18,-116.55 208.12,-263.73 135,-263.73"/>
<polygon fill="black" stroke="black" points="174.12,-94.14 182.63,-96.27 178.06,-93.43 182,-92.73 182,-92.73 182,-92.73 178.06,-93.43 181.37,-89.19 174.12,-94.14 174.12,-94.14"/>
<ellipse fill="none" stroke="black" cx="170.97" cy="-94.7" rx="3.2" ry="3.2"/>
</g>
<!-- planting_subzone_histories&#45;&gt;planting_subzones -->
<g id="edge11" class="edge">
<title>planting_subzone_histories:w&#45;&gt;planting_subzones:e</title>
<path fill="none" stroke="black" d="M395.07,-129.51C317.5,-151.29 461.64,-365.73 359,-365.73"/>
<polygon fill="black" stroke="black" points="401.56,-128.71 409.94,-131.3 405.53,-128.22 409.5,-127.73 409.5,-127.73 409.5,-127.73 405.53,-128.22 409.06,-124.16 401.56,-128.71 401.56,-128.71"/>
<ellipse fill="none" stroke="black" cx="398.38" cy="-129.1" rx="3.2" ry="3.2"/>
</g>
<!-- planting_subzones&#45;&gt;planting_sites -->
<g id="edge12" class="edge">
<title>planting_subzones:w&#45;&gt;planting_sites:e</title>
<path fill="none" stroke="black" d="M170.97,-295.31C158.16,-285.7 156.39,-263.73 135,-263.73"/>
<polygon fill="black" stroke="black" points="177.37,-297.33 183.92,-303.16 181.18,-298.53 185,-299.73 185,-299.73 185,-299.73 181.18,-298.53 186.08,-296.3 177.37,-297.33 177.37,-297.33"/>
<ellipse fill="none" stroke="black" cx="174.32" cy="-296.37" rx="3.2" ry="3.2"/>
</g>
<!-- observation_plots -->
<g id="node7" class="node">
<title>observation_plots</title>
<g id="a_node7"><a xlink:href="../../tables/observation_plots.html" xlink:title="observation_plots" target="_top">
<polygon fill="#ffffff" stroke="transparent" points="1006,-256.73 1006,-402.73 1186,-402.73 1186,-256.73 1006,-256.73"/>
<polygon fill="#f5f5f5" stroke="transparent" points="1006,-380.73 1006,-402.73 1186,-402.73 1186,-380.73 1006,-380.73"/>
<polygon fill="none" stroke="black" points="1006,-380.73 1006,-402.73 1186,-402.73 1186,-380.73 1006,-380.73"/>
<text text-anchor="start" x="1011" y="-389.93" font-family="Helvetica,sans-Serif" font-weight="bold" font-size="11.00">observation_plots</text>
<text text-anchor="start" x="1147" y="-388.93" font-family="Helvetica,sans-Serif" font-size="11.00">[table]</text>
<polygon fill="none" stroke="black" points="1006,-358.73 1006,-380.73 1186,-380.73 1186,-358.73 1006,-358.73"/>
<image xlink:href="../../images/primaryKeys.png" width="11px" height="12px" preserveAspectRatio="xMinYMin meet" x="1011" y="-375.729"/>
<text text-anchor="start" x="1026" y="-366.93" font-family="Helvetica,sans-Serif" font-size="11.00">observation_id</text>
<polygon fill="none" stroke="black" points="1006,-336.73 1006,-358.73 1186,-358.73 1186,-336.73 1006,-336.73"/>
<image xlink:href="../../images/primaryKeys.png" width="11px" height="12px" preserveAspectRatio="xMinYMin meet" x="1011" y="-353.729"/>
<text text-anchor="start" x="1026" y="-344.93" font-family="Helvetica,sans-Serif" font-size="11.00">monitoring_plot_id</text>
<polygon fill="none" stroke="black" points="1006,-314.73 1006,-336.73 1186,-336.73 1186,-314.73 1006,-314.73"/>
<image xlink:href="../../images/foreignKeys.png" width="11px" height="12px" preserveAspectRatio="xMinYMin meet" x="1011" y="-331.729"/>
<text text-anchor="start" x="1026" y="-322.93" font-family="Helvetica,sans-Serif" font-size="11.00">status_id</text>
<polygon fill="#ffffff" stroke="transparent" points="1006,-292.73 1006,-314.73 1186,-314.73 1186,-292.73 1006,-292.73"/>
<polygon fill="none" stroke="black" points="1006,-292.73 1006,-314.73 1186,-314.73 1186,-292.73 1006,-292.73"/>
<image xlink:href="../../images/foreignKeys.png" width="11px" height="12px" preserveAspectRatio="xMinYMin meet" x="1011" y="-309.729"/>
<text text-anchor="start" x="1026" y="-300.93" font-family="Helvetica,sans-Serif" font-size="11.00">monitoring_plot_history_id</text>
<polygon fill="none" stroke="black" points="1006,-274.73 1006,-292.73 1186,-292.73 1186,-274.73 1006,-274.73"/>
<text text-anchor="start" x="1009" y="-280.93" font-family="Helvetica,sans-Serif" font-size="11.00">...</text>
<polygon fill="#ffffff" stroke="transparent" points="1006,-256.73 1006,-274.73 1089,-274.73 1089,-256.73 1006,-256.73"/>
<polygon fill="none" stroke="black" points="1006,-256.73 1006,-274.73 1089,-274.73 1089,-256.73 1006,-256.73"/>
<text text-anchor="start" x="1009" y="-262.93" font-family="Helvetica,sans-Serif" font-size="11.00">&lt; 4</text>
<polygon fill="#ffffff" stroke="transparent" points="1089,-256.73 1089,-274.73 1133,-274.73 1133,-256.73 1089,-256.73"/>
<polygon fill="none" stroke="black" points="1089,-256.73 1089,-274.73 1133,-274.73 1133,-256.73 1089,-256.73"/>
<text text-anchor="start" x="1123" y="-262.93" font-family="Helvetica,sans-Serif" font-size="11.00"> &#160;</text>
<polygon fill="#ffffff" stroke="transparent" points="1133,-256.73 1133,-274.73 1186,-274.73 1186,-256.73 1133,-256.73"/>
<polygon fill="none" stroke="black" points="1133,-256.73 1133,-274.73 1186,-274.73 1186,-256.73 1133,-256.73"/>
<text text-anchor="start" x="1167" y="-262.93" font-family="Helvetica,sans-Serif" font-size="11.00">8 &gt;</text>
</a>
</g>
</g>
<!-- observation_plots&#45;&gt;monitoring_plot_histories -->
<g id="edge8" class="edge">
<title>observation_plots:w&#45;&gt;monitoring_plot_histories:e</title>
<path fill="none" stroke="black" d="M990.58,-302.51C979.41,-300.5 972.49,-296.73 956.5,-296.73"/>
<polygon fill="black" stroke="black" points="997.03,-303.06 1004.7,-307.32 1001.01,-303.39 1005,-303.73 1005,-303.73 1005,-303.73 1001.01,-303.39 1005.3,-300.14 997.03,-303.06 997.03,-303.06"/>
<ellipse fill="none" stroke="black" cx="993.84" cy="-302.79" rx="3.2" ry="3.2"/>
</g>
<!-- observation_plots&#45;&gt;monitoring_plots -->
<g id="edge9" class="edge">
<title>observation_plots:w&#45;&gt;monitoring_plots:e</title>
<path fill="none" stroke="black" d="M990.54,-347.88C822.7,-351.34 780.61,-414.73 605.5,-414.73"/>
<polygon fill="black" stroke="black" points="997,-347.81 1005.04,-351.33 1001,-347.77 1005,-347.73 1005,-347.73 1005,-347.73 1001,-347.77 1004.96,-344.13 997,-347.81 997,-347.81"/>
<ellipse fill="none" stroke="black" cx="993.8" cy="-347.84" rx="3.2" ry="3.2"/>
</g>
</g>
</svg>
