<?xml version="1.0" encoding="UTF-8" standalone="no"?>
<!DOCTYPE svg PUBLIC "-//W3C//DTD SVG 1.1//EN"
 "http://www.w3.org/Graphics/SVG/1.1/DTD/svg11.dtd">
<!-- Generated by graphviz version 2.38.0 (20140413.2041)
 -->
<!-- Title: twoDegreesRelationshipsDiagram Pages: 1 -->
<svg width="1685pt" height="1017pt"
 viewBox="0.00 0.00 1685.00 1016.76" xmlns="http://www.w3.org/2000/svg" xmlns:xlink="http://www.w3.org/1999/xlink">
<g id="graph0" class="graph" transform="scale(1 1) rotate(0) translate(4 1012.76)">
<title>twoDegreesRelationshipsDiagram</title>
<polygon fill="#ffffff" stroke="none" points="-4,4 -4,-1012.76 1681,-1012.76 1681,4 -4,4"/>
<text text-anchor="middle" x="74.5" y="-7.2" font-family="Helvetica,sans-Serif" font-size="11.00">Generated by SchemaSpy</text>
<!-- deliveries -->
<g id="node1" class="node"><title>deliveries</title>
<g id="a_node1"><a xlink:href="../../tables/deliveries.html" xlink:title="deliveries" target="_top">
<polygon fill="#ffffff" stroke="none" points="467.5,-407.763 467.5,-465.763 572.5,-465.763 572.5,-407.763 467.5,-407.763"/>
<polygon fill="#f5f5f5" stroke="none" points="468,-443.763 468,-465.763 573,-465.763 573,-443.763 468,-443.763"/>
<polygon fill="none" stroke="black" points="468,-443.763 468,-465.763 573,-465.763 573,-443.763 468,-443.763"/>
<text text-anchor="start" x="473" y="-452.963" font-family="Helvetica,sans-Serif" font-weight="bold" font-size="11.00">deliveries</text>
<text text-anchor="start" x="534" y="-451.963" font-family="Helvetica,sans-Serif" font-size="11.00">[table]</text>
<polygon fill="none" stroke="black" points="468,-425.763 468,-443.763 573,-443.763 573,-425.763 468,-425.763"/>
<text text-anchor="start" x="471" y="-431.963" font-family="Helvetica,sans-Serif" font-size="11.00">...</text>
<polygon fill="#ffffff" stroke="none" points="468,-407.763 468,-425.763 499,-425.763 499,-407.763 468,-407.763"/>
<polygon fill="none" stroke="black" points="468,-407.763 468,-425.763 499,-425.763 499,-407.763 468,-407.763"/>
<text text-anchor="start" x="471" y="-413.963" font-family="Helvetica,sans-Serif" font-size="11.00">&lt; 1</text>
<polygon fill="#ffffff" stroke="none" points="499,-407.763 499,-425.763 545,-425.763 545,-407.763 499,-407.763"/>
<polygon fill="none" stroke="black" points="499,-407.763 499,-425.763 545,-425.763 545,-407.763 499,-407.763"/>
<text text-anchor="start" x="506" y="-413.963" font-family="Helvetica,sans-Serif" font-size="11.00">0 rows</text>
<polygon fill="#ffffff" stroke="none" points="545,-407.763 545,-425.763 573,-425.763 573,-407.763 545,-407.763"/>
<polygon fill="none" stroke="black" points="545,-407.763 545,-425.763 573,-425.763 573,-407.763 545,-407.763"/>
<text text-anchor="start" x="553" y="-413.963" font-family="Helvetica,sans-Serif" font-size="11.00">2 &gt;</text>
</a>
</g>
</g>
<!-- planting_sites -->
<g id="node2" class="node"><title>planting_sites</title>
<g id="a_node2"><a xlink:href="../../tables/planting_sites.html" xlink:title="planting_sites" target="_top">
<polygon fill="#ffffff" stroke="none" points="8,-401.763 8,-547.763 135,-547.763 135,-401.763 8,-401.763"/>
<polygon fill="#f5f5f5" stroke="none" points="8.5,-525.763 8.5,-547.763 135.5,-547.763 135.5,-525.763 8.5,-525.763"/>
<polygon fill="none" stroke="black" points="8.5,-525.763 8.5,-547.763 135.5,-547.763 135.5,-525.763 8.5,-525.763"/>
<text text-anchor="start" x="13.5" y="-534.963" font-family="Helvetica,sans-Serif" font-weight="bold" font-size="11.00">planting_sites</text>
<text text-anchor="start" x="96.5" y="-533.963" font-family="Helvetica,sans-Serif" font-size="11.00">[table]</text>
<polygon fill="none" stroke="black" points="8.5,-503.763 8.5,-525.763 135.5,-525.763 135.5,-503.763 8.5,-503.763"/>
<image xlink:href="../../images/primaryKeys.png" width="11px" height="12px" preserveAspectRatio="xMinYMin meet" x="13.5" y="-520.763"/>
<text text-anchor="start" x="36.5" y="-511.963" font-family="Helvetica,sans-Serif" font-size="11.00">id</text>
<polygon fill="#ffffff" stroke="none" points="8.5,-481.763 8.5,-503.763 135.5,-503.763 135.5,-481.763 8.5,-481.763"/>
<polygon fill="none" stroke="black" points="8.5,-481.763 8.5,-503.763 135.5,-503.763 135.5,-481.763 8.5,-481.763"/>
<text text-anchor="start" x="36.5" y="-489.963" font-family="Helvetica,sans-Serif" font-size="11.00">organization_id</text>
<polygon fill="#ffffff" stroke="none" points="8.5,-459.763 8.5,-481.763 135.5,-481.763 135.5,-459.763 8.5,-459.763"/>
<polygon fill="none" stroke="black" points="8.5,-459.763 8.5,-481.763 135.5,-481.763 135.5,-459.763 8.5,-459.763"/>
<text text-anchor="start" x="36.5" y="-467.963" font-family="Helvetica,sans-Serif" font-size="11.00">name</text>
<polygon fill="#ffffff" stroke="none" points="8.5,-437.763 8.5,-459.763 135.5,-459.763 135.5,-437.763 8.5,-437.763"/>
<polygon fill="none" stroke="black" points="8.5,-437.763 8.5,-459.763 135.5,-459.763 135.5,-437.763 8.5,-437.763"/>
<text text-anchor="start" x="36.5" y="-445.963" font-family="Helvetica,sans-Serif" font-size="11.00">project_id</text>
<polygon fill="none" stroke="black" points="8.5,-419.763 8.5,-437.763 135.5,-437.763 135.5,-419.763 8.5,-419.763"/>
<text text-anchor="start" x="11.5" y="-425.963" font-family="Helvetica,sans-Serif" font-size="11.00">...</text>
<polygon fill="#ffffff" stroke="none" points="8.5,-401.763 8.5,-419.763 42.5,-419.763 42.5,-401.763 8.5,-401.763"/>
<polygon fill="none" stroke="black" points="8.5,-401.763 8.5,-419.763 42.5,-419.763 42.5,-401.763 8.5,-401.763"/>
<text text-anchor="start" x="11.5" y="-407.963" font-family="Helvetica,sans-Serif" font-size="11.00"> &#160;</text>
<polygon fill="#ffffff" stroke="none" points="42.5,-401.763 42.5,-419.763 94.5,-419.763 94.5,-401.763 42.5,-401.763"/>
<polygon fill="none" stroke="black" points="42.5,-401.763 42.5,-419.763 94.5,-419.763 94.5,-401.763 42.5,-401.763"/>
<text text-anchor="start" x="55.5" y="-407.963" font-family="Helvetica,sans-Serif" font-size="11.00">0 rows</text>
<polygon fill="#ffffff" stroke="none" points="94.5,-401.763 94.5,-419.763 135.5,-419.763 135.5,-401.763 94.5,-401.763"/>
<polygon fill="none" stroke="black" points="94.5,-401.763 94.5,-419.763 135.5,-419.763 135.5,-401.763 94.5,-401.763"/>
<text text-anchor="start" x="108.5" y="-407.963" font-family="Helvetica,sans-Serif" font-size="11.00">12 &gt;</text>
</a>
</g>
</g>
<!-- deliveries&#45;&gt;planting_sites -->
<g id="edge1" class="edge"><title>deliveries:elipses:w&#45;&gt;planting_sites:id:e</title>
<path fill="none" stroke="black" d="M452.426,-434.72C332.843,-434.047 289.936,-426.228 176,-479.763 154.771,-489.737 159.956,-514.763 136.5,-514.763"/>
<polygon fill="black" stroke="black" points="459,-434.739 466.99,-438.362 463,-434.751 467,-434.763 467,-434.763 467,-434.763 463,-434.751 467.01,-431.163 459,-434.739 459,-434.739"/>
<ellipse fill="none" stroke="black" cx="455.8" cy="-434.73" rx="3.2" ry="3.2"/>
</g>
<!-- monitoring_plot_histories -->
<g id="node3" class="node"><title>monitoring_plot_histories</title>
<g id="a_node3"><a xlink:href="../../tables/monitoring_plot_histories.html" xlink:title="monitoring_plot_histories" target="_top">
<polygon fill="#ffffff" stroke="none" points="975,-946.763 975,-1004.76 1169,-1004.76 1169,-946.763 975,-946.763"/>
<polygon fill="#f5f5f5" stroke="none" points="975,-982.763 975,-1004.76 1169,-1004.76 1169,-982.763 975,-982.763"/>
<polygon fill="none" stroke="black" points="975,-982.763 975,-1004.76 1169,-1004.76 1169,-982.763 975,-982.763"/>
<text text-anchor="start" x="980" y="-991.963" font-family="Helvetica,sans-Serif" font-weight="bold" font-size="11.00">monitoring_plot_histories</text>
<text text-anchor="start" x="1130" y="-990.963" font-family="Helvetica,sans-Serif" font-size="11.00">[table]</text>
<polygon fill="none" stroke="black" points="975,-964.763 975,-982.763 1169,-982.763 1169,-964.763 975,-964.763"/>
<text text-anchor="start" x="978" y="-970.963" font-family="Helvetica,sans-Serif" font-size="11.00">...</text>
<polygon fill="#ffffff" stroke="none" points="975,-946.763 975,-964.763 1051,-964.763 1051,-946.763 975,-946.763"/>
<polygon fill="none" stroke="black" points="975,-946.763 975,-964.763 1051,-964.763 1051,-946.763 975,-946.763"/>
<text text-anchor="start" x="978" y="-952.963" font-family="Helvetica,sans-Serif" font-size="11.00">&lt; 5</text>
<polygon fill="#ffffff" stroke="none" points="1051,-946.763 1051,-964.763 1119,-964.763 1119,-946.763 1051,-946.763"/>
<polygon fill="none" stroke="black" points="1051,-946.763 1051,-964.763 1119,-964.763 1119,-946.763 1051,-946.763"/>
<text text-anchor="start" x="1080" y="-952.963" font-family="Helvetica,sans-Serif" font-size="11.00">0 rows</text>
<polygon fill="#ffffff" stroke="none" points="1119,-946.763 1119,-964.763 1169,-964.763 1169,-946.763 1119,-946.763"/>
<polygon fill="none" stroke="black" points="1119,-946.763 1119,-964.763 1169,-964.763 1169,-946.763 1119,-946.763"/>
<text text-anchor="start" x="1149" y="-952.963" font-family="Helvetica,sans-Serif" font-size="11.00">1 &gt;</text>
</a>
</g>
</g>
<!-- monitoring_plot_histories&#45;&gt;planting_sites -->
<g id="edge4" class="edge"><title>monitoring_plot_histories:elipses:w&#45;&gt;planting_sites:id:e</title>
<path fill="none" stroke="black" d="M959.331,-973.588C764.212,-969.139 289.341,-879.736 176,-739.763 144.054,-700.31 187.265,-514.763 136.5,-514.763"/>
<polygon fill="black" stroke="black" points="966.001,-973.667 973.957,-977.362 970,-973.715 974,-973.763 974,-973.763 974,-973.763 970,-973.715 974.043,-970.163 966.001,-973.667 966.001,-973.667"/>
<ellipse fill="none" stroke="black" cx="962.801" cy="-973.629" rx="3.2" ry="3.2"/>
</g>
<!-- monitoring_plots -->
<g id="node4" class="node"><title>monitoring_plots</title>
<g id="a_node4"><a xlink:href="../../tables/monitoring_plots.html" xlink:title="monitoring_plots" target="_top">
<polygon fill="#ffffff" stroke="none" points="693.5,-813.763 693.5,-871.763 838.5,-871.763 838.5,-813.763 693.5,-813.763"/>
<polygon fill="#f5f5f5" stroke="none" points="694,-849.763 694,-871.763 839,-871.763 839,-849.763 694,-849.763"/>
<polygon fill="none" stroke="black" points="694,-849.763 694,-871.763 839,-871.763 839,-849.763 694,-849.763"/>
<text text-anchor="start" x="699" y="-858.963" font-family="Helvetica,sans-Serif" font-weight="bold" font-size="11.00">monitoring_plots</text>
<text text-anchor="start" x="800" y="-857.963" font-family="Helvetica,sans-Serif" font-size="11.00">[table]</text>
<polygon fill="none" stroke="black" points="694,-831.763 694,-849.763 839,-849.763 839,-831.763 694,-831.763"/>
<text text-anchor="start" x="697" y="-837.963" font-family="Helvetica,sans-Serif" font-size="11.00">...</text>
<polygon fill="#ffffff" stroke="none" points="694,-813.763 694,-831.763 745,-831.763 745,-813.763 694,-813.763"/>
<polygon fill="none" stroke="black" points="694,-813.763 694,-831.763 745,-831.763 745,-813.763 694,-813.763"/>
<text text-anchor="start" x="697" y="-819.963" font-family="Helvetica,sans-Serif" font-size="11.00">&lt; 2</text>
<polygon fill="#ffffff" stroke="none" points="745,-813.763 745,-831.763 801,-831.763 801,-813.763 745,-813.763"/>
<polygon fill="none" stroke="black" points="745,-813.763 745,-831.763 801,-831.763 801,-813.763 745,-813.763"/>
<text text-anchor="start" x="762" y="-819.963" font-family="Helvetica,sans-Serif" font-size="11.00">0 rows</text>
<polygon fill="#ffffff" stroke="none" points="801,-813.763 801,-831.763 839,-831.763 839,-813.763 801,-813.763"/>
<polygon fill="none" stroke="black" points="801,-813.763 801,-831.763 839,-831.763 839,-813.763 801,-813.763"/>
<text text-anchor="start" x="819" y="-819.963" font-family="Helvetica,sans-Serif" font-size="11.00">9 &gt;</text>
</a>
</g>
</g>
<!-- monitoring_plot_histories&#45;&gt;monitoring_plots -->
<g id="edge2" class="edge"><title>monitoring_plot_histories:elipses:w&#45;&gt;monitoring_plots:elipses:e</title>
<path fill="none" stroke="black" d="M959.608,-972.626C917.596,-965.425 915.354,-925.17 883,-885.763 865.447,-864.382 867.663,-840.763 840,-840.763"/>
<polygon fill="black" stroke="black" points="966.025,-973.133 973.717,-977.351 970.012,-973.448 974,-973.763 974,-973.763 974,-973.763 970.012,-973.448 974.283,-970.174 966.025,-973.133 966.025,-973.133"/>
<ellipse fill="none" stroke="black" cx="962.835" cy="-972.881" rx="3.2" ry="3.2"/>
</g>
<!-- planting_site_histories -->
<g id="node5" class="node"><title>planting_site_histories</title>
<g id="a_node5"><a xlink:href="../../tables/planting_site_histories.html" xlink:title="planting_site_histories" target="_top">
<polygon fill="#ffffff" stroke="none" points="432,-946.763 432,-1004.76 608,-1004.76 608,-946.763 432,-946.763"/>
<polygon fill="#f5f5f5" stroke="none" points="432,-982.763 432,-1004.76 608,-1004.76 608,-982.763 432,-982.763"/>
<polygon fill="none" stroke="black" points="432,-982.763 432,-1004.76 608,-1004.76 608,-982.763 432,-982.763"/>
<text text-anchor="start" x="437" y="-991.963" font-family="Helvetica,sans-Serif" font-weight="bold" font-size="11.00">planting_site_histories</text>
<text text-anchor="start" x="569" y="-990.963" font-family="Helvetica,sans-Serif" font-size="11.00">[table]</text>
<polygon fill="none" stroke="black" points="432,-964.763 432,-982.763 608,-982.763 608,-964.763 432,-964.763"/>
<text text-anchor="start" x="435" y="-970.963" font-family="Helvetica,sans-Serif" font-size="11.00">...</text>
<polygon fill="#ffffff" stroke="none" points="432,-946.763 432,-964.763 499,-964.763 499,-946.763 432,-946.763"/>
<polygon fill="none" stroke="black" points="432,-946.763 432,-964.763 499,-964.763 499,-946.763 432,-946.763"/>
<text text-anchor="start" x="435" y="-952.963" font-family="Helvetica,sans-Serif" font-size="11.00">&lt; 1</text>
<polygon fill="#ffffff" stroke="none" points="499,-946.763 499,-964.763 563,-964.763 563,-946.763 499,-946.763"/>
<polygon fill="none" stroke="black" points="499,-946.763 499,-964.763 563,-964.763 563,-946.763 499,-946.763"/>
<text text-anchor="start" x="524" y="-952.963" font-family="Helvetica,sans-Serif" font-size="11.00">0 rows</text>
<polygon fill="#ffffff" stroke="none" points="563,-946.763 563,-964.763 608,-964.763 608,-946.763 563,-946.763"/>
<polygon fill="none" stroke="black" points="563,-946.763 563,-964.763 608,-964.763 608,-946.763 563,-946.763"/>
<text text-anchor="start" x="588" y="-952.963" font-family="Helvetica,sans-Serif" font-size="11.00">2 &gt;</text>
</a>
</g>
</g>
<!-- monitoring_plot_histories&#45;&gt;planting_site_histories -->
<g id="edge3" class="edge"><title>monitoring_plot_histories:elipses:w&#45;&gt;planting_site_histories:elipses:e</title>
<path fill="none" stroke="black" d="M959.595,-973.763C809.211,-973.763 766.311,-973.763 609,-973.763"/>
<polygon fill="black" stroke="black" points="966,-973.763 974,-977.363 970,-973.763 974,-973.763 974,-973.763 974,-973.763 970,-973.763 974,-970.163 966,-973.763 966,-973.763"/>
<ellipse fill="none" stroke="black" cx="962.8" cy="-973.763" rx="3.2" ry="3.2"/>
</g>
<!-- planting_subzones -->
<g id="node6" class="node"><title>planting_subzones</title>
<g id="a_node6"><a xlink:href="../../tables/planting_subzones.html" xlink:title="planting_subzones" target="_top">
<polygon fill="#ffffff" stroke="none" points="443.5,-540.763 443.5,-598.763 596.5,-598.763 596.5,-540.763 443.5,-540.763"/>
<polygon fill="#f5f5f5" stroke="none" points="444,-576.763 444,-598.763 597,-598.763 597,-576.763 444,-576.763"/>
<polygon fill="none" stroke="black" points="444,-576.763 444,-598.763 597,-598.763 597,-576.763 444,-576.763"/>
<text text-anchor="start" x="449" y="-585.963" font-family="Helvetica,sans-Serif" font-weight="bold" font-size="11.00">planting_subzones</text>
<text text-anchor="start" x="558" y="-584.963" font-family="Helvetica,sans-Serif" font-size="11.00">[table]</text>
<polygon fill="none" stroke="black" points="444,-558.763 444,-576.763 597,-576.763 597,-558.763 444,-558.763"/>
<text text-anchor="start" x="447" y="-564.963" font-family="Helvetica,sans-Serif" font-size="11.00">...</text>
<polygon fill="#ffffff" stroke="none" points="444,-540.763 444,-558.763 499,-558.763 499,-540.763 444,-540.763"/>
<polygon fill="none" stroke="black" points="444,-540.763 444,-558.763 499,-558.763 499,-540.763 444,-540.763"/>
<text text-anchor="start" x="447" y="-546.963" font-family="Helvetica,sans-Serif" font-size="11.00">&lt; 3</text>
<polygon fill="#ffffff" stroke="none" points="499,-540.763 499,-558.763 557,-558.763 557,-540.763 499,-540.763"/>
<polygon fill="none" stroke="black" points="499,-540.763 499,-558.763 557,-558.763 557,-540.763 499,-540.763"/>
<text text-anchor="start" x="518" y="-546.963" font-family="Helvetica,sans-Serif" font-size="11.00">0 rows</text>
<polygon fill="#ffffff" stroke="none" points="557,-540.763 557,-558.763 597,-558.763 597,-540.763 557,-540.763"/>
<polygon fill="none" stroke="black" points="557,-540.763 557,-558.763 597,-558.763 597,-540.763 557,-540.763"/>
<text text-anchor="start" x="577" y="-546.963" font-family="Helvetica,sans-Serif" font-size="11.00">7 &gt;</text>
</a>
</g>
</g>
<!-- monitoring_plot_histories&#45;&gt;planting_subzones -->
<g id="edge5" class="edge"><title>monitoring_plot_histories:elipses:w&#45;&gt;planting_subzones:elipses:e</title>
<path fill="none" stroke="black" d="M959.307,-972.175C925.425,-964.162 923.422,-927.932 883,-912.763 833.917,-894.342 685.937,-919.966 649,-882.763 599.039,-832.44 668.912,-567.763 598,-567.763"/>
<polygon fill="black" stroke="black" points="966.046,-972.903 973.613,-977.342 970.023,-973.333 974,-973.763 974,-973.763 974,-973.763 970.023,-973.333 974.387,-970.183 966.046,-972.903 966.046,-972.903"/>
<ellipse fill="none" stroke="black" cx="962.865" cy="-972.56" rx="3.2" ry="3.2"/>
</g>
<!-- monitoring_plots&#45;&gt;planting_sites -->
<g id="edge6" class="edge"><title>monitoring_plots:elipses:w&#45;&gt;planting_sites:id:e</title>
<path fill="none" stroke="black" d="M678.49,-840.751C444.383,-840.363 339.275,-828.919 176,-653.763 132.208,-606.784 200.724,-514.763 136.5,-514.763"/>
<polygon fill="black" stroke="black" points="685,-840.756 692.997,-844.363 689,-840.759 693,-840.763 693,-840.763 693,-840.763 689,-840.759 693.003,-837.163 685,-840.756 685,-840.756"/>
<ellipse fill="none" stroke="black" cx="681.8" cy="-840.754" rx="3.2" ry="3.2"/>
</g>
<!-- monitoring_plots&#45;&gt;planting_subzones -->
<g id="edge7" class="edge"><title>monitoring_plots:elipses:w&#45;&gt;planting_subzones:elipses:e</title>
<path fill="none" stroke="black" d="M679.348,-835.791C633.499,-798.79 657.091,-567.763 598,-567.763"/>
<polygon fill="black" stroke="black" points="685.483,-838.025 691.768,-844.145 689.241,-839.394 693,-840.763 693,-840.763 693,-840.763 689.241,-839.394 694.232,-837.38 685.483,-838.025 685.483,-838.025"/>
<ellipse fill="none" stroke="black" cx="682.476" cy="-836.93" rx="3.20001" ry="3.20001"/>
</g>
<!-- planting_site_histories&#45;&gt;planting_sites -->
<g id="edge35" class="edge"><title>planting_site_histories:elipses:w&#45;&gt;planting_sites:id:e</title>
<path fill="none" stroke="black" d="M416.491,-973.986C310.875,-977.204 251.107,-1012.93 176,-932.763 112.211,-864.672 229.803,-514.763 136.5,-514.763"/>
<polygon fill="black" stroke="black" points="423.001,-973.886 431.055,-977.362 427,-973.824 431,-973.763 431,-973.763 431,-973.763 427,-973.824 430.945,-970.163 423.001,-973.886 423.001,-973.886"/>
<ellipse fill="none" stroke="black" cx="419.801" cy="-973.935" rx="3.2" ry="3.2"/>
</g>
<!-- planting_subzones&#45;&gt;planting_sites -->
<g id="edge38" class="edge"><title>planting_subzones:elipses:w&#45;&gt;planting_sites:id:e</title>
<path fill="none" stroke="black" d="M428.467,-569.527C415.791,-572.913 409.049,-580.211 391,-582.763 296.385,-596.136 258.817,-630.431 176,-582.763 145.708,-565.327 171.451,-514.763 136.5,-514.763"/>
<polygon fill="black" stroke="black" points="435.058,-568.727 443.434,-571.336 439.029,-568.245 443,-567.763 443,-567.763 443,-567.763 439.029,-568.245 442.566,-564.189 435.058,-568.727 435.058,-568.727"/>
<ellipse fill="none" stroke="black" cx="431.882" cy="-569.112" rx="3.2" ry="3.2"/>
</g>
<!-- planting_zones -->
<g id="node18" class="node"><title>planting_zones</title>
<g id="a_node18"><a xlink:href="../../tables/planting_zones.html" xlink:title="planting_zones" target="_top">
<polygon fill="#ffffff" stroke="none" points="217,-513.763 217,-571.763 350,-571.763 350,-513.763 217,-513.763"/>
<polygon fill="#f5f5f5" stroke="none" points="217.5,-549.763 217.5,-571.763 350.5,-571.763 350.5,-549.763 217.5,-549.763"/>
<polygon fill="none" stroke="black" points="217.5,-549.763 217.5,-571.763 350.5,-571.763 350.5,-549.763 217.5,-549.763"/>
<text text-anchor="start" x="222.5" y="-558.963" font-family="Helvetica,sans-Serif" font-weight="bold" font-size="11.00">planting_zones</text>
<text text-anchor="start" x="311.5" y="-557.963" font-family="Helvetica,sans-Serif" font-size="11.00">[table]</text>
<polygon fill="none" stroke="black" points="217.5,-531.763 217.5,-549.763 350.5,-549.763 350.5,-531.763 217.5,-531.763"/>
<text text-anchor="start" x="220.5" y="-537.963" font-family="Helvetica,sans-Serif" font-size="11.00">...</text>
<polygon fill="#ffffff" stroke="none" points="217.5,-513.763 217.5,-531.763 262.5,-531.763 262.5,-513.763 217.5,-513.763"/>
<polygon fill="none" stroke="black" points="217.5,-513.763 217.5,-531.763 262.5,-531.763 262.5,-513.763 217.5,-513.763"/>
<text text-anchor="start" x="220.5" y="-519.963" font-family="Helvetica,sans-Serif" font-size="11.00">&lt; 1</text>
<polygon fill="#ffffff" stroke="none" points="262.5,-513.763 262.5,-531.763 315.5,-531.763 315.5,-513.763 262.5,-513.763"/>
<polygon fill="none" stroke="black" points="262.5,-513.763 262.5,-531.763 315.5,-531.763 315.5,-513.763 262.5,-513.763"/>
<text text-anchor="start" x="276.5" y="-519.963" font-family="Helvetica,sans-Serif" font-size="11.00">0 rows</text>
<polygon fill="#ffffff" stroke="none" points="315.5,-513.763 315.5,-531.763 350.5,-531.763 350.5,-513.763 315.5,-513.763"/>
<polygon fill="none" stroke="black" points="315.5,-513.763 315.5,-531.763 350.5,-531.763 350.5,-513.763 315.5,-513.763"/>
<text text-anchor="start" x="330.5" y="-519.963" font-family="Helvetica,sans-Serif" font-size="11.00">5 &gt;</text>
</a>
</g>
</g>
<!-- planting_subzones&#45;&gt;planting_zones -->
<g id="edge39" class="edge"><title>planting_subzones:elipses:w&#45;&gt;planting_zones:elipses:e</title>
<path fill="none" stroke="black" d="M428.634,-564.634C398.367,-555.528 388.6,-535.513 351.5,-540.763"/>
<polygon fill="black" stroke="black" points="435.183,-566.06 442.234,-571.28 439.092,-566.911 443,-567.763 443,-567.763 443,-567.763 439.092,-566.911 443.766,-564.245 435.183,-566.06 435.183,-566.06"/>
<ellipse fill="none" stroke="black" cx="432.057" cy="-565.379" rx="3.2" ry="3.2"/>
</g>
<!-- planting_subzones&#45;&gt;planting_zones -->
<g id="edge40" class="edge"><title>planting_subzones:elipses:w&#45;&gt;planting_zones:elipses:e</title>
<path fill="none" stroke="black" d="M428.634,-568.899C398.367,-568.325 388.6,-546.888 351.5,-540.763"/>
<polygon fill="black" stroke="black" points="435.025,-568.394 443.284,-571.351 439.012,-568.078 443,-567.763 443,-567.763 443,-567.763 439.012,-568.078 442.716,-564.174 435.025,-568.394 435.025,-568.394"/>
<ellipse fill="none" stroke="black" cx="431.835" cy="-568.646" rx="3.2" ry="3.2"/>
</g>
<!-- observation_photos -->
<g id="node7" class="node"><title>observation_photos</title>
<g id="a_node7"><a xlink:href="../../tables/observation_photos.html" xlink:title="observation_photos" target="_top">
<polygon fill="#ffffff" stroke="none" points="1488.5,-868.763 1488.5,-926.763 1648.5,-926.763 1648.5,-868.763 1488.5,-868.763"/>
<polygon fill="#f5f5f5" stroke="none" points="1488.5,-904.763 1488.5,-926.763 1648.5,-926.763 1648.5,-904.763 1488.5,-904.763"/>
<polygon fill="none" stroke="black" points="1488.5,-904.763 1488.5,-926.763 1648.5,-926.763 1648.5,-904.763 1488.5,-904.763"/>
<text text-anchor="start" x="1493.5" y="-913.963" font-family="Helvetica,sans-Serif" font-weight="bold" font-size="11.00">observation_photos</text>
<text text-anchor="start" x="1609.5" y="-912.963" font-family="Helvetica,sans-Serif" font-size="11.00">[table]</text>
<polygon fill="none" stroke="black" points="1488.5,-886.763 1488.5,-904.763 1648.5,-904.763 1648.5,-886.763 1488.5,-886.763"/>
<text text-anchor="start" x="1491.5" y="-892.963" font-family="Helvetica,sans-Serif" font-size="11.00">...</text>
<polygon fill="#ffffff" stroke="none" points="1488.5,-868.763 1488.5,-886.763 1552.5,-886.763 1552.5,-868.763 1488.5,-868.763"/>
<polygon fill="none" stroke="black" points="1488.5,-868.763 1488.5,-886.763 1552.5,-886.763 1552.5,-868.763 1488.5,-868.763"/>
<text text-anchor="start" x="1491.5" y="-874.963" font-family="Helvetica,sans-Serif" font-size="11.00">&lt; 5</text>
<polygon fill="#ffffff" stroke="none" points="1552.5,-868.763 1552.5,-886.763 1614.5,-886.763 1614.5,-868.763 1552.5,-868.763"/>
<polygon fill="none" stroke="black" points="1552.5,-868.763 1552.5,-886.763 1614.5,-886.763 1614.5,-868.763 1552.5,-868.763"/>
<text text-anchor="start" x="1575.5" y="-874.963" font-family="Helvetica,sans-Serif" font-size="11.00">0 rows</text>
<polygon fill="#ffffff" stroke="none" points="1614.5,-868.763 1614.5,-886.763 1648.5,-886.763 1648.5,-868.763 1614.5,-868.763"/>
<polygon fill="none" stroke="black" points="1614.5,-868.763 1614.5,-886.763 1648.5,-886.763 1648.5,-868.763 1614.5,-868.763"/>
<text text-anchor="start" x="1638.5" y="-874.963" font-family="Helvetica,sans-Serif" font-size="11.00"> &#160;</text>
</a>
</g>
</g>
<!-- observation_photos&#45;&gt;monitoring_plots -->
<g id="edge8" class="edge"><title>observation_photos:elipses:w&#45;&gt;monitoring_plots:elipses:e</title>
<path fill="none" stroke="black" d="M1472.68,-896.675C1456.74,-898.794 1448.43,-904.003 1427,-905.763 1327.51,-913.929 954.144,-917.642 916,-903.763 874.77,-888.761 883.874,-840.763 840,-840.763"/>
<polygon fill="black" stroke="black" points="1479.52,-896.254 1487.72,-899.356 1483.51,-896.008 1487.5,-895.763 1487.5,-895.763 1487.5,-895.763 1483.51,-896.008 1487.28,-892.169 1479.52,-896.254 1479.52,-896.254"/>
<ellipse fill="none" stroke="black" cx="1476.32" cy="-896.451" rx="3.2" ry="3.2"/>
</g>
<!-- observation_plots -->
<g id="node8" class="node"><title>observation_plots</title>
<g id="a_node8"><a xlink:href="../../tables/observation_plots.html" xlink:title="observation_plots" target="_top">
<polygon fill="#ffffff" stroke="none" points="1269,-813.763 1269,-871.763 1419,-871.763 1419,-813.763 1269,-813.763"/>
<polygon fill="#f5f5f5" stroke="none" points="1269,-849.763 1269,-871.763 1419,-871.763 1419,-849.763 1269,-849.763"/>
<polygon fill="none" stroke="black" points="1269,-849.763 1269,-871.763 1419,-871.763 1419,-849.763 1269,-849.763"/>
<text text-anchor="start" x="1274" y="-858.963" font-family="Helvetica,sans-Serif" font-weight="bold" font-size="11.00">observation_plots</text>
<text text-anchor="start" x="1380" y="-857.963" font-family="Helvetica,sans-Serif" font-size="11.00">[table]</text>
<polygon fill="none" stroke="black" points="1269,-831.763 1269,-849.763 1419,-849.763 1419,-831.763 1269,-831.763"/>
<text text-anchor="start" x="1272" y="-837.963" font-family="Helvetica,sans-Serif" font-size="11.00">...</text>
<polygon fill="#ffffff" stroke="none" points="1269,-813.763 1269,-831.763 1323,-831.763 1323,-813.763 1269,-813.763"/>
<polygon fill="none" stroke="black" points="1269,-813.763 1269,-831.763 1323,-831.763 1323,-813.763 1269,-813.763"/>
<text text-anchor="start" x="1272" y="-819.963" font-family="Helvetica,sans-Serif" font-size="11.00">&lt; 4</text>
<polygon fill="#ffffff" stroke="none" points="1323,-813.763 1323,-831.763 1380,-831.763 1380,-813.763 1323,-813.763"/>
<polygon fill="none" stroke="black" points="1323,-813.763 1323,-831.763 1380,-831.763 1380,-813.763 1323,-813.763"/>
<text text-anchor="start" x="1341" y="-819.963" font-family="Helvetica,sans-Serif" font-size="11.00">0 rows</text>
<polygon fill="#ffffff" stroke="none" points="1380,-813.763 1380,-831.763 1419,-831.763 1419,-813.763 1380,-813.763"/>
<polygon fill="none" stroke="black" points="1380,-813.763 1380,-831.763 1419,-831.763 1419,-813.763 1380,-813.763"/>
<text text-anchor="start" x="1399" y="-819.963" font-family="Helvetica,sans-Serif" font-size="11.00">6 &gt;</text>
</a>
</g>
</g>
<!-- observation_photos&#45;&gt;observation_plots -->
<g id="edge9" class="edge"><title>observation_photos:elipses:w&#45;&gt;observation_plots:elipses:e</title>
<path fill="none" stroke="black" d="M1473.79,-890.63C1450.62,-875.5 1453.26,-835.606 1420,-840.763"/>
<polygon fill="black" stroke="black" points="1480.01,-892.958 1486.24,-899.134 1483.75,-894.36 1487.5,-895.763 1487.5,-895.763 1487.5,-895.763 1483.75,-894.36 1488.76,-892.391 1480.01,-892.958 1480.01,-892.958"/>
<ellipse fill="none" stroke="black" cx="1477.01" cy="-891.837" rx="3.20001" ry="3.20001"/>
</g>
<!-- observation_photos&#45;&gt;observation_plots -->
<g id="edge10" class="edge"><title>observation_photos:elipses:w&#45;&gt;observation_plots:elipses:e</title>
<path fill="none" stroke="black" d="M1472.85,-895.034C1450.69,-887.119 1452.8,-846.696 1420,-840.763"/>
<polygon fill="black" stroke="black" points="1479.51,-895.365 1487.32,-899.358 1483.5,-895.564 1487.5,-895.763 1487.5,-895.763 1487.5,-895.763 1483.5,-895.564 1487.68,-892.167 1479.51,-895.365 1479.51,-895.365"/>
<ellipse fill="none" stroke="black" cx="1476.31" cy="-895.206" rx="3.2" ry="3.2"/>
</g>
<!-- observations -->
<g id="node9" class="node"><title>observations</title>
<g id="a_node9"><a xlink:href="../../tables/observations.html" xlink:title="observations" target="_top">
<polygon fill="#ffffff" stroke="none" points="657,-590.763 657,-714.763 875,-714.763 875,-590.763 657,-590.763"/>
<polygon fill="#f5f5f5" stroke="none" points="657,-692.763 657,-714.763 875,-714.763 875,-692.763 657,-692.763"/>
<polygon fill="none" stroke="black" points="657,-692.763 657,-714.763 875,-714.763 875,-692.763 657,-692.763"/>
<text text-anchor="start" x="662" y="-701.963" font-family="Helvetica,sans-Serif" font-weight="bold" font-size="11.00">observations</text>
<text text-anchor="start" x="836" y="-700.963" font-family="Helvetica,sans-Serif" font-size="11.00">[table]</text>
<polygon fill="none" stroke="black" points="657,-670.763 657,-692.763 875,-692.763 875,-670.763 657,-670.763"/>
<image xlink:href="../../images/primaryKeys.png" width="11px" height="12px" preserveAspectRatio="xMinYMin meet" x="662" y="-687.763"/>
<text text-anchor="start" x="677" y="-678.963" font-family="Helvetica,sans-Serif" font-size="11.00">id</text>
<polygon fill="#ffffff" stroke="none" points="657,-648.763 657,-670.763 875,-670.763 875,-648.763 657,-648.763"/>
<polygon fill="none" stroke="black" points="657,-648.763 657,-670.763 875,-670.763 875,-648.763 657,-648.763"/>
<image xlink:href="../../images/foreignKeys.png" width="11px" height="12px" preserveAspectRatio="xMinYMin meet" x="662" y="-665.763"/>
<text text-anchor="start" x="677" y="-656.963" font-family="Helvetica,sans-Serif" font-size="11.00">planting_site_id</text>
<polygon fill="none" stroke="black" points="657,-626.763 657,-648.763 875,-648.763 875,-626.763 657,-626.763"/>
<image xlink:href="../../images/foreignKeys.png" width="11px" height="12px" preserveAspectRatio="xMinYMin meet" x="662" y="-643.763"/>
<text text-anchor="start" x="677" y="-634.963" font-family="Helvetica,sans-Serif" font-size="11.00">state_id</text>
<polygon fill="none" stroke="black" points="657,-608.763 657,-626.763 875,-626.763 875,-608.763 657,-608.763"/>
<text text-anchor="start" x="660" y="-614.963" font-family="Helvetica,sans-Serif" font-size="11.00">...</text>
<polygon fill="#ffffff" stroke="none" points="657,-590.763 657,-608.763 745,-608.763 745,-590.763 657,-590.763"/>
<polygon fill="none" stroke="black" points="657,-590.763 657,-608.763 745,-608.763 745,-590.763 657,-590.763"/>
<text text-anchor="start" x="660" y="-596.963" font-family="Helvetica,sans-Serif" font-size="11.00">&lt; 2</text>
<polygon fill="#ffffff" stroke="none" points="745,-590.763 745,-608.763 819,-608.763 819,-590.763 745,-590.763"/>
<polygon fill="none" stroke="black" points="745,-590.763 745,-608.763 819,-608.763 819,-590.763 745,-590.763"/>
<text text-anchor="start" x="780" y="-596.963" font-family="Helvetica,sans-Serif" font-size="11.00">0 rows</text>
<polygon fill="#ffffff" stroke="none" points="819,-590.763 819,-608.763 875,-608.763 875,-590.763 819,-590.763"/>
<polygon fill="none" stroke="black" points="819,-590.763 819,-608.763 875,-608.763 875,-590.763 819,-590.763"/>
<text text-anchor="start" x="855" y="-596.963" font-family="Helvetica,sans-Serif" font-size="11.00">9 &gt;</text>
</a>
</g>
</g>
<!-- observation_photos&#45;&gt;observations -->
<g id="edge11" class="edge"><title>observation_photos:elipses:w&#45;&gt;observations:id:e</title>
<path fill="none" stroke="black" d="M1473.07,-896.127C1414.72,-898.623 1296.55,-912.247 1261,-882.763 1214.12,-843.88 1274.06,-789.614 1228,-749.763 1175.31,-704.171 979.541,-747.348 916,-718.763 893.915,-708.827 900.217,-681.763 876,-681.763"/>
<polygon fill="black" stroke="black" points="1479.5,-895.964 1487.59,-899.361 1483.5,-895.863 1487.5,-895.763 1487.5,-895.763 1487.5,-895.763 1483.5,-895.863 1487.41,-892.164 1479.5,-895.964 1479.5,-895.964"/>
<ellipse fill="none" stroke="black" cx="1476.3" cy="-896.045" rx="3.2" ry="3.2"/>
</g>
<!-- observation_plots&#45;&gt;monitoring_plot_histories -->
<g id="edge14" class="edge"><title>observation_plots:elipses:w&#45;&gt;monitoring_plot_histories:elipses:e</title>
<path fill="none" stroke="black" d="M1253.87,-844.125C1237.97,-853.937 1244.37,-883.261 1228,-905.763 1204.63,-937.884 1209.72,-973.763 1170,-973.763"/>
<polygon fill="black" stroke="black" points="1260.22,-842.615 1268.83,-844.265 1264.11,-841.689 1268,-840.763 1268,-840.763 1268,-840.763 1264.11,-841.689 1267.17,-837.26 1260.22,-842.615 1260.22,-842.615"/>
<ellipse fill="none" stroke="black" cx="1257.1" cy="-843.355" rx="3.2" ry="3.2"/>
</g>
<!-- observation_plots&#45;&gt;monitoring_plots -->
<g id="edge15" class="edge"><title>observation_plots:elipses:w&#45;&gt;monitoring_plots:elipses:e</title>
<path fill="none" stroke="black" d="M1254.32,-845.692C1245.24,-854.351 1244.9,-872.014 1228,-878.763 1099.22,-930.182 1050.96,-910.622 916,-878.763 879.246,-870.086 877.765,-840.763 840,-840.763"/>
<polygon fill="black" stroke="black" points="1260.47,-843.474 1269.22,-844.149 1264.24,-842.118 1268,-840.763 1268,-840.763 1268,-840.763 1264.24,-842.118 1266.78,-837.376 1260.47,-843.474 1260.47,-843.474"/>
<ellipse fill="none" stroke="black" cx="1257.46" cy="-844.559" rx="3.20001" ry="3.20001"/>
</g>
<!-- observation_plots&#45;&gt;observations -->
<g id="edge16" class="edge"><title>observation_plots:elipses:w&#45;&gt;observations:id:e</title>
<path fill="none" stroke="black" d="M1253.56,-837.82C1225.41,-822.954 1265.54,-755.647 1228,-725.763 1173.43,-682.327 984.657,-704.026 916,-691.763 897.961,-688.54 894.325,-681.763 876,-681.763"/>
<polygon fill="black" stroke="black" points="1260.16,-839.165 1267.28,-844.29 1264.08,-839.964 1268,-840.763 1268,-840.763 1268,-840.763 1264.08,-839.964 1268.72,-837.235 1260.16,-839.165 1260.16,-839.165"/>
<ellipse fill="none" stroke="black" cx="1257.03" cy="-838.526" rx="3.2" ry="3.2"/>
</g>
<!-- observations&#45;&gt;planting_sites -->
<g id="edge19" class="edge"><title>observations:planting_site_id:w&#45;&gt;planting_sites:id:e</title>
<path fill="none" stroke="black" d="M642.279,-664.198C633.765,-671.042 631.013,-683.893 616,-688.763 534.83,-715.091 508.198,-702.635 424,-688.763 309.175,-669.844 261.789,-683.395 176,-604.763 143.798,-575.246 180.183,-514.763 136.5,-514.763"/>
<polygon fill="black" stroke="black" points="648.388,-662.223 657.107,-663.188 652.194,-660.993 656,-659.763 656,-659.763 656,-659.763 652.194,-660.993 654.893,-656.337 648.388,-662.223 648.388,-662.223"/>
<ellipse fill="none" stroke="black" cx="645.343" cy="-663.208" rx="3.20001" ry="3.20001"/>
</g>
<!-- observation_states -->
<g id="node12" class="node"><title>observation_states</title>
<g id="a_node12"><a xlink:href="../../tables/observation_states.html" xlink:title="observation_states" target="_top">
<polygon fill="#ffffff" stroke="none" points="442,-619.763 442,-677.763 598,-677.763 598,-619.763 442,-619.763"/>
<polygon fill="#f5f5f5" stroke="none" points="442,-655.763 442,-677.763 598,-677.763 598,-655.763 442,-655.763"/>
<polygon fill="none" stroke="black" points="442,-655.763 442,-677.763 598,-677.763 598,-655.763 442,-655.763"/>
<text text-anchor="start" x="447" y="-664.963" font-family="Helvetica,sans-Serif" font-weight="bold" font-size="11.00">observation_states</text>
<text text-anchor="start" x="559" y="-663.963" font-family="Helvetica,sans-Serif" font-size="11.00">[table]</text>
<polygon fill="none" stroke="black" points="442,-637.763 442,-655.763 598,-655.763 598,-637.763 442,-637.763"/>
<text text-anchor="start" x="445" y="-643.963" font-family="Helvetica,sans-Serif" font-size="11.00">...</text>
<polygon fill="#ffffff" stroke="none" points="442,-619.763 442,-637.763 494,-637.763 494,-619.763 442,-619.763"/>
<polygon fill="none" stroke="black" points="442,-619.763 442,-637.763 494,-637.763 494,-619.763 442,-619.763"/>
<text text-anchor="start" x="445" y="-625.963" font-family="Helvetica,sans-Serif" font-size="11.00"> &#160;</text>
<polygon fill="#ffffff" stroke="none" points="494,-619.763 494,-637.763 555,-637.763 555,-619.763 494,-619.763"/>
<polygon fill="none" stroke="black" points="494,-619.763 494,-637.763 555,-637.763 555,-619.763 494,-619.763"/>
<text text-anchor="start" x="516" y="-625.963" font-family="Helvetica,sans-Serif" font-size="11.00">5 rows</text>
<polygon fill="#ffffff" stroke="none" points="555,-619.763 555,-637.763 598,-637.763 598,-619.763 555,-619.763"/>
<polygon fill="none" stroke="black" points="555,-619.763 555,-637.763 598,-637.763 598,-619.763 555,-619.763"/>
<text text-anchor="start" x="578" y="-625.963" font-family="Helvetica,sans-Serif" font-size="11.00">1 &gt;</text>
</a>
</g>
</g>
<!-- observations&#45;&gt;observation_states -->
<g id="edge20" class="edge"><title>observations:state_id:w&#45;&gt;observation_states:elipses:e</title>
<path fill="none" stroke="black" d="M641.614,-638.866C626.902,-641.269 619.037,-646.763 599,-646.763"/>
<polygon fill="black" stroke="black" points="648.023,-638.374 656.275,-641.352 652.012,-638.068 656,-637.763 656,-637.763 656,-637.763 652.012,-638.068 655.725,-634.173 648.023,-638.374 648.023,-638.374"/>
<ellipse fill="none" stroke="black" cx="644.833" cy="-638.619" rx="3.2" ry="3.2"/>
</g>
<!-- observation_plot_conditions -->
<g id="node10" class="node"><title>observation_plot_conditions</title>
<g id="a_node10"><a xlink:href="../../tables/observation_plot_conditions.html" xlink:title="observation_plot_conditions" target="_top">
<polygon fill="#ffffff" stroke="none" points="967.5,-759.763 967.5,-817.763 1176.5,-817.763 1176.5,-759.763 967.5,-759.763"/>
<polygon fill="#f5f5f5" stroke="none" points="968,-795.763 968,-817.763 1177,-817.763 1177,-795.763 968,-795.763"/>
<polygon fill="none" stroke="black" points="968,-795.763 968,-817.763 1177,-817.763 1177,-795.763 968,-795.763"/>
<text text-anchor="start" x="973" y="-804.963" font-family="Helvetica,sans-Serif" font-weight="bold" font-size="11.00">observation_plot_conditions</text>
<text text-anchor="start" x="1138" y="-803.963" font-family="Helvetica,sans-Serif" font-size="11.00">[table]</text>
<polygon fill="none" stroke="black" points="968,-777.763 968,-795.763 1177,-795.763 1177,-777.763 968,-777.763"/>
<text text-anchor="start" x="971" y="-783.963" font-family="Helvetica,sans-Serif" font-size="11.00">...</text>
<polygon fill="#ffffff" stroke="none" points="968,-759.763 968,-777.763 1056,-777.763 1056,-759.763 968,-759.763"/>
<polygon fill="none" stroke="black" points="968,-759.763 968,-777.763 1056,-777.763 1056,-759.763 968,-759.763"/>
<text text-anchor="start" x="971" y="-765.963" font-family="Helvetica,sans-Serif" font-size="11.00">&lt; 3</text>
<polygon fill="#ffffff" stroke="none" points="1056,-759.763 1056,-777.763 1131,-777.763 1131,-759.763 1056,-759.763"/>
<polygon fill="none" stroke="black" points="1056,-759.763 1056,-777.763 1131,-777.763 1131,-759.763 1056,-759.763"/>
<text text-anchor="start" x="1092" y="-765.963" font-family="Helvetica,sans-Serif" font-size="11.00">0 rows</text>
<polygon fill="#ffffff" stroke="none" points="1131,-759.763 1131,-777.763 1177,-777.763 1177,-759.763 1131,-759.763"/>
<polygon fill="none" stroke="black" points="1131,-759.763 1131,-777.763 1177,-777.763 1177,-759.763 1131,-759.763"/>
<text text-anchor="start" x="1167" y="-765.963" font-family="Helvetica,sans-Serif" font-size="11.00"> &#160;</text>
</a>
</g>
</g>
<!-- observation_plot_conditions&#45;&gt;monitoring_plots -->
<g id="edge12" class="edge"><title>observation_plot_conditions:elipses:w&#45;&gt;monitoring_plots:elipses:e</title>
<path fill="none" stroke="black" d="M952.378,-787.89C904.5,-795.645 896.064,-840.763 840,-840.763"/>
<polygon fill="black" stroke="black" points="959.024,-787.378 967.277,-790.352 963.012,-787.07 967,-786.763 967,-786.763 967,-786.763 963.012,-787.07 966.723,-783.173 959.024,-787.378 959.024,-787.378"/>
<ellipse fill="none" stroke="black" cx="955.833" cy="-787.624" rx="3.2" ry="3.2"/>
</g>
<!-- observation_plot_conditions&#45;&gt;observations -->
<g id="edge13" class="edge"><title>observation_plot_conditions:elipses:w&#45;&gt;observations:id:e</title>
<path fill="none" stroke="black" d="M952.667,-784.684C936.262,-779.147 931.539,-763.262 916,-745.763 893.728,-720.681 909.543,-681.763 876,-681.763"/>
<polygon fill="black" stroke="black" points="959.083,-785.614 966.483,-790.325 963.041,-786.188 967,-786.763 967,-786.763 967,-786.763 963.041,-786.188 967.517,-783.2 959.083,-785.614 959.083,-785.614"/>
<ellipse fill="none" stroke="black" cx="955.916" cy="-785.155" rx="3.2" ry="3.2"/>
</g>
<!-- observation_requested_subzones -->
<g id="node11" class="node"><title>observation_requested_subzones</title>
<g id="a_node11"><a xlink:href="../../tables/observation_requested_subzones.html" xlink:title="observation_requested_subzones" target="_top">
<polygon fill="#ffffff" stroke="none" points="954,-493.763 954,-551.763 1190,-551.763 1190,-493.763 954,-493.763"/>
<polygon fill="#f5f5f5" stroke="none" points="954,-529.763 954,-551.763 1190,-551.763 1190,-529.763 954,-529.763"/>
<polygon fill="none" stroke="black" points="954,-529.763 954,-551.763 1190,-551.763 1190,-529.763 954,-529.763"/>
<text text-anchor="start" x="959" y="-538.963" font-family="Helvetica,sans-Serif" font-weight="bold" font-size="11.00">observation_requested_subzones</text>
<text text-anchor="start" x="1151" y="-537.963" font-family="Helvetica,sans-Serif" font-size="11.00">[table]</text>
<polygon fill="none" stroke="black" points="954,-511.763 954,-529.763 1190,-529.763 1190,-511.763 954,-511.763"/>
<text text-anchor="start" x="957" y="-517.963" font-family="Helvetica,sans-Serif" font-size="11.00">...</text>
<polygon fill="#ffffff" stroke="none" points="954,-493.763 954,-511.763 1056,-511.763 1056,-493.763 954,-493.763"/>
<polygon fill="none" stroke="black" points="954,-493.763 954,-511.763 1056,-511.763 1056,-493.763 954,-493.763"/>
<text text-anchor="start" x="957" y="-499.963" font-family="Helvetica,sans-Serif" font-size="11.00">&lt; 2</text>
<polygon fill="#ffffff" stroke="none" points="1056,-493.763 1056,-511.763 1137,-511.763 1137,-493.763 1056,-493.763"/>
<polygon fill="none" stroke="black" points="1056,-493.763 1056,-511.763 1137,-511.763 1137,-493.763 1056,-493.763"/>
<text text-anchor="start" x="1098" y="-499.963" font-family="Helvetica,sans-Serif" font-size="11.00">0 rows</text>
<polygon fill="#ffffff" stroke="none" points="1137,-493.763 1137,-511.763 1190,-511.763 1190,-493.763 1137,-493.763"/>
<polygon fill="none" stroke="black" points="1137,-493.763 1137,-511.763 1190,-511.763 1190,-493.763 1137,-493.763"/>
<text text-anchor="start" x="1180" y="-499.963" font-family="Helvetica,sans-Serif" font-size="11.00"> &#160;</text>
</a>
</g>
</g>
<!-- observation_requested_subzones&#45;&gt;planting_subzones -->
<g id="edge18" class="edge"><title>observation_requested_subzones:elipses:w&#45;&gt;planting_subzones:elipses:e</title>
<path fill="none" stroke="black" d="M938.401,-521.198C851.61,-525.936 673.07,-567.763 598,-567.763"/>
<polygon fill="black" stroke="black" points="945.004,-521.001 953.107,-524.361 949.002,-520.882 953,-520.763 953,-520.763 953,-520.763 949.002,-520.882 952.893,-517.164 945.004,-521.001 945.004,-521.001"/>
<ellipse fill="none" stroke="black" cx="941.805" cy="-521.096" rx="3.2" ry="3.2"/>
</g>
<!-- observation_requested_subzones&#45;&gt;observations -->
<g id="edge17" class="edge"><title>observation_requested_subzones:elipses:w&#45;&gt;observations:id:e</title>
<path fill="none" stroke="black" d="M938.544,-523.038C884.366,-542.607 949.741,-681.763 876,-681.763"/>
<polygon fill="black" stroke="black" points="945.097,-522.007 953.56,-524.319 949.049,-521.385 953,-520.763 953,-520.763 953,-520.763 949.049,-521.385 952.44,-517.206 945.097,-522.007 945.097,-522.007"/>
<ellipse fill="none" stroke="black" cx="941.936" cy="-522.504" rx="3.2" ry="3.2"/>
</g>
<!-- observed_plot_coordinates -->
<g id="node13" class="node"><title>observed_plot_coordinates</title>
<g id="a_node13"><a xlink:href="../../tables/observed_plot_coordinates.html" xlink:title="observed_plot_coordinates" target="_top">
<polygon fill="#ffffff" stroke="none" points="1468,-789.763 1468,-847.763 1669,-847.763 1669,-789.763 1468,-789.763"/>
<polygon fill="#f5f5f5" stroke="none" points="1468.5,-825.763 1468.5,-847.763 1669.5,-847.763 1669.5,-825.763 1468.5,-825.763"/>
<polygon fill="none" stroke="black" points="1468.5,-825.763 1468.5,-847.763 1669.5,-847.763 1669.5,-825.763 1468.5,-825.763"/>
<text text-anchor="start" x="1473.5" y="-834.963" font-family="Helvetica,sans-Serif" font-weight="bold" font-size="11.00">observed_plot_coordinates</text>
<text text-anchor="start" x="1630.5" y="-833.963" font-family="Helvetica,sans-Serif" font-size="11.00">[table]</text>
<polygon fill="none" stroke="black" points="1468.5,-807.763 1468.5,-825.763 1669.5,-825.763 1669.5,-807.763 1468.5,-807.763"/>
<text text-anchor="start" x="1471.5" y="-813.963" font-family="Helvetica,sans-Serif" font-size="11.00">...</text>
<polygon fill="#ffffff" stroke="none" points="1468.5,-789.763 1468.5,-807.763 1552.5,-807.763 1552.5,-789.763 1468.5,-789.763"/>
<polygon fill="none" stroke="black" points="1468.5,-789.763 1468.5,-807.763 1552.5,-807.763 1552.5,-789.763 1468.5,-789.763"/>
<text text-anchor="start" x="1471.5" y="-795.963" font-family="Helvetica,sans-Serif" font-size="11.00">&lt; 5</text>
<polygon fill="#ffffff" stroke="none" points="1552.5,-789.763 1552.5,-807.763 1625.5,-807.763 1625.5,-789.763 1552.5,-789.763"/>
<polygon fill="none" stroke="black" points="1552.5,-789.763 1552.5,-807.763 1625.5,-807.763 1625.5,-789.763 1552.5,-789.763"/>
<text text-anchor="start" x="1586.5" y="-795.963" font-family="Helvetica,sans-Serif" font-size="11.00">0 rows</text>
<polygon fill="#ffffff" stroke="none" points="1625.5,-789.763 1625.5,-807.763 1669.5,-807.763 1669.5,-789.763 1625.5,-789.763"/>
<polygon fill="none" stroke="black" points="1625.5,-789.763 1625.5,-807.763 1669.5,-807.763 1669.5,-789.763 1625.5,-789.763"/>
<text text-anchor="start" x="1659.5" y="-795.963" font-family="Helvetica,sans-Serif" font-size="11.00"> &#160;</text>
</a>
</g>
</g>
<!-- observed_plot_coordinates&#45;&gt;monitoring_plots -->
<g id="edge21" class="edge"><title>observed_plot_coordinates:elipses:w&#45;&gt;monitoring_plots:elipses:e</title>
<path fill="none" stroke="black" d="M1453.21,-814.227C1445.11,-811.041 1439.69,-805.75 1427,-803.763 1354.11,-792.351 1326.29,-769.415 1261,-803.763 1238.09,-815.815 1250.91,-839.71 1228,-851.763 1166.64,-884.041 985.154,-856.741 916,-851.763 881.958,-849.312 874.13,-840.763 840,-840.763"/>
<polygon fill="black" stroke="black" points="1459.62,-815.365 1466.87,-820.307 1463.56,-816.064 1467.5,-816.763 1467.5,-816.763 1467.5,-816.763 1463.56,-816.064 1468.13,-813.218 1459.62,-815.365 1459.62,-815.365"/>
<ellipse fill="none" stroke="black" cx="1456.47" cy="-814.806" rx="3.2" ry="3.2"/>
</g>
<!-- observed_plot_coordinates&#45;&gt;observation_plots -->
<g id="edge22" class="edge"><title>observed_plot_coordinates:elipses:w&#45;&gt;observation_plots:elipses:e</title>
<path fill="none" stroke="black" d="M1453.08,-817.281C1442.19,-821.941 1437.55,-836.309 1420,-840.763"/>
<polygon fill="black" stroke="black" points="1459.51,-817.05 1467.63,-820.36 1463.5,-816.906 1467.5,-816.763 1467.5,-816.763 1467.5,-816.763 1463.5,-816.906 1467.37,-813.165 1459.51,-817.05 1459.51,-817.05"/>
<ellipse fill="none" stroke="black" cx="1456.31" cy="-817.165" rx="3.2" ry="3.2"/>
</g>
<!-- observed_plot_coordinates&#45;&gt;observation_plots -->
<g id="edge23" class="edge"><title>observed_plot_coordinates:elipses:w&#45;&gt;observation_plots:elipses:e</title>
<path fill="none" stroke="black" d="M1454.49,-823.58C1442.55,-833.046 1438.29,-846.177 1420,-840.763"/>
<polygon fill="black" stroke="black" points="1460.41,-820.476 1469.17,-819.951 1463.96,-818.619 1467.5,-816.763 1467.5,-816.763 1467.5,-816.763 1463.96,-818.619 1465.83,-813.574 1460.41,-820.476 1460.41,-820.476"/>
<ellipse fill="none" stroke="black" cx="1457.58" cy="-821.961" rx="3.20001" ry="3.20001"/>
</g>
<!-- observed_plot_coordinates&#45;&gt;observations -->
<g id="edge24" class="edge"><title>observed_plot_coordinates:elipses:w&#45;&gt;observations:id:e</title>
<path fill="none" stroke="black" d="M1453.34,-812.651C1443.84,-805.62 1441.74,-791.141 1427,-781.763 1345.25,-729.756 1322.43,-714.463 1228,-692.763 1075.46,-657.705 1032.52,-681.763 876,-681.763"/>
<polygon fill="black" stroke="black" points="1459.82,-814.532 1466.5,-820.22 1463.66,-815.647 1467.5,-816.763 1467.5,-816.763 1467.5,-816.763 1463.66,-815.647 1468.5,-813.305 1459.82,-814.532 1459.82,-814.532"/>
<ellipse fill="none" stroke="black" cx="1456.74" cy="-813.639" rx="3.20001" ry="3.20001"/>
</g>
<!-- observed_plot_species_totals -->
<g id="node14" class="node"><title>observed_plot_species_totals</title>
<g id="a_node14"><a xlink:href="../../tables/observed_plot_species_totals.html" xlink:title="observed_plot_species_totals" target="_top">
<polygon fill="#ffffff" stroke="none" points="966,-572.763 966,-630.763 1178,-630.763 1178,-572.763 966,-572.763"/>
<polygon fill="#f5f5f5" stroke="none" points="966,-608.763 966,-630.763 1178,-630.763 1178,-608.763 966,-608.763"/>
<polygon fill="none" stroke="black" points="966,-608.763 966,-630.763 1178,-630.763 1178,-608.763 966,-608.763"/>
<text text-anchor="start" x="971" y="-617.963" font-family="Helvetica,sans-Serif" font-weight="bold" font-size="11.00">observed_plot_species_totals</text>
<text text-anchor="start" x="1139" y="-616.963" font-family="Helvetica,sans-Serif" font-size="11.00">[table]</text>
<polygon fill="none" stroke="black" points="966,-590.763 966,-608.763 1178,-608.763 1178,-590.763 966,-590.763"/>
<text text-anchor="start" x="969" y="-596.963" font-family="Helvetica,sans-Serif" font-size="11.00">...</text>
<polygon fill="#ffffff" stroke="none" points="966,-572.763 966,-590.763 1056,-590.763 1056,-572.763 966,-572.763"/>
<polygon fill="none" stroke="black" points="966,-572.763 966,-590.763 1056,-590.763 1056,-572.763 966,-572.763"/>
<text text-anchor="start" x="969" y="-578.963" font-family="Helvetica,sans-Serif" font-size="11.00">&lt; 3</text>
<polygon fill="#ffffff" stroke="none" points="1056,-572.763 1056,-590.763 1131,-590.763 1131,-572.763 1056,-572.763"/>
<polygon fill="none" stroke="black" points="1056,-572.763 1056,-590.763 1131,-590.763 1131,-572.763 1056,-572.763"/>
<text text-anchor="start" x="1092" y="-578.963" font-family="Helvetica,sans-Serif" font-size="11.00">0 rows</text>
<polygon fill="#ffffff" stroke="none" points="1131,-572.763 1131,-590.763 1178,-590.763 1178,-572.763 1131,-572.763"/>
<polygon fill="none" stroke="black" points="1131,-572.763 1131,-590.763 1178,-590.763 1178,-572.763 1131,-572.763"/>
<text text-anchor="start" x="1168" y="-578.963" font-family="Helvetica,sans-Serif" font-size="11.00"> &#160;</text>
</a>
</g>
</g>
<!-- observed_plot_species_totals&#45;&gt;monitoring_plots -->
<g id="edge26" class="edge"><title>observed_plot_species_totals:elipses:w&#45;&gt;monitoring_plots:elipses:e</title>
<path fill="none" stroke="black" d="M950.425,-601.118C854.104,-620.479 955.359,-840.763 840,-840.763"/>
<polygon fill="black" stroke="black" points="957.034,-600.503 965.333,-603.347 961.017,-600.133 965,-599.763 965,-599.763 965,-599.763 961.017,-600.133 964.667,-596.178 957.034,-600.503 957.034,-600.503"/>
<ellipse fill="none" stroke="black" cx="953.848" cy="-600.8" rx="3.2" ry="3.2"/>
</g>
<!-- observed_plot_species_totals&#45;&gt;observations -->
<g id="edge27" class="edge"><title>observed_plot_species_totals:elipses:w&#45;&gt;observations:id:e</title>
<path fill="none" stroke="black" d="M950.459,-602.602C935.378,-609.7 933.326,-628.794 916,-644.763 898.193,-661.175 900.217,-681.763 876,-681.763"/>
<polygon fill="black" stroke="black" points="957.148,-601.296 965.69,-603.296 961.074,-600.529 965,-599.763 965,-599.763 965,-599.763 961.074,-600.529 964.31,-596.229 957.148,-601.296 957.148,-601.296"/>
<ellipse fill="none" stroke="black" cx="954.008" cy="-601.909" rx="3.2" ry="3.2"/>
</g>
<!-- recorded_species_certainties -->
<g id="node15" class="node"><title>recorded_species_certainties</title>
<g id="a_node15"><a xlink:href="../../tables/recorded_species_certainties.html" xlink:title="recorded_species_certainties" target="_top">
<polygon fill="#ffffff" stroke="none" points="659.5,-381.763 659.5,-465.763 872.5,-465.763 872.5,-381.763 659.5,-381.763"/>
<polygon fill="#f5f5f5" stroke="none" points="660,-443.763 660,-465.763 873,-465.763 873,-443.763 660,-443.763"/>
<polygon fill="none" stroke="black" points="660,-443.763 660,-465.763 873,-465.763 873,-443.763 660,-443.763"/>
<text text-anchor="start" x="665" y="-452.963" font-family="Helvetica,sans-Serif" font-weight="bold" font-size="11.00">recorded_species_certainties</text>
<text text-anchor="start" x="834" y="-451.963" font-family="Helvetica,sans-Serif" font-size="11.00">[table]</text>
<polygon fill="none" stroke="black" points="660,-421.763 660,-443.763 873,-443.763 873,-421.763 660,-421.763"/>
<image xlink:href="../../images/primaryKeys.png" width="11px" height="12px" preserveAspectRatio="xMinYMin meet" x="665" y="-438.763"/>
<text text-anchor="start" x="691" y="-429.963" font-family="Helvetica,sans-Serif" font-size="11.00">id</text>
<polygon fill="#ffffff" stroke="none" points="660,-399.763 660,-421.763 873,-421.763 873,-399.763 660,-399.763"/>
<polygon fill="none" stroke="black" points="660,-399.763 660,-421.763 873,-421.763 873,-399.763 660,-399.763"/>
<text text-anchor="start" x="691" y="-407.963" font-family="Helvetica,sans-Serif" font-size="11.00">name</text>
<polygon fill="#ffffff" stroke="none" points="660,-381.763 660,-399.763 740,-399.763 740,-381.763 660,-381.763"/>
<polygon fill="none" stroke="black" points="660,-381.763 660,-399.763 740,-399.763 740,-381.763 660,-381.763"/>
<text text-anchor="start" x="663" y="-387.963" font-family="Helvetica,sans-Serif" font-size="11.00"> &#160;</text>
<polygon fill="#ffffff" stroke="none" points="740,-381.763 740,-399.763 816,-399.763 816,-381.763 740,-381.763"/>
<polygon fill="none" stroke="black" points="740,-381.763 740,-399.763 816,-399.763 816,-381.763 740,-381.763"/>
<text text-anchor="start" x="777" y="-387.963" font-family="Helvetica,sans-Serif" font-size="11.00">3 rows</text>
<polygon fill="#ffffff" stroke="none" points="816,-381.763 816,-399.763 873,-399.763 873,-381.763 816,-381.763"/>
<polygon fill="none" stroke="black" points="816,-381.763 816,-399.763 873,-399.763 873,-381.763 816,-381.763"/>
<text text-anchor="start" x="853" y="-387.963" font-family="Helvetica,sans-Serif" font-size="11.00">4 &gt;</text>
</a>
</g>
</g>
<!-- observed_plot_species_totals&#45;&gt;recorded_species_certainties -->
<g id="edge25" class="edge"><title>observed_plot_species_totals:elipses:w&#45;&gt;recorded_species_certainties:id:e</title>
<path fill="none" stroke="black" d="M950.293,-597.86C934.783,-593.202 928.481,-580.309 916,-562.763 880.806,-513.284 934.718,-432.763 874,-432.763"/>
<polygon fill="black" stroke="black" points="957.066,-598.736 964.538,-603.333 961.033,-599.249 965,-599.763 965,-599.763 965,-599.763 961.033,-599.249 965.462,-596.192 957.066,-598.736 957.066,-598.736"/>
<ellipse fill="none" stroke="black" cx="953.893" cy="-598.326" rx="3.2" ry="3.2"/>
</g>
<!-- observed_site_species_totals -->
<g id="node16" class="node"><title>observed_site_species_totals</title>
<g id="a_node16"><a xlink:href="../../tables/observed_site_species_totals.html" xlink:title="observed_site_species_totals" target="_top">
<polygon fill="#ffffff" stroke="none" points="924,-107.763 924,-393.763 1220,-393.763 1220,-107.763 924,-107.763"/>
<polygon fill="#f5f5f5" stroke="none" points="926,-369.763 926,-391.763 1218,-391.763 1218,-369.763 926,-369.763"/>
<polygon fill="none" stroke="black" points="926,-369.763 926,-391.763 1218,-391.763 1218,-369.763 926,-369.763"/>
<text text-anchor="start" x="931" y="-378.963" font-family="Helvetica,sans-Serif" font-weight="bold" font-size="11.00">observed_site_species_totals</text>
<text text-anchor="start" x="1179" y="-377.963" font-family="Helvetica,sans-Serif" font-size="11.00">[table]</text>
<polygon fill="#ffffff" stroke="none" points="926,-347.763 926,-369.763 1117,-369.763 1117,-347.763 926,-347.763"/>
<polygon fill="none" stroke="black" points="926,-347.763 926,-369.763 1117,-369.763 1117,-347.763 926,-347.763"/>
<image xlink:href="../../images/foreignKeys.png" width="11px" height="12px" preserveAspectRatio="xMinYMin meet" x="931" y="-364.763"/>
<text text-anchor="start" x="946" y="-355.963" font-family="Helvetica,sans-Serif" font-size="11.00">observation_id</text>
<polygon fill="none" stroke="black" points="1117,-347.763 1117,-369.763 1218,-369.763 1218,-347.763 1117,-347.763"/>
<text text-anchor="start" x="1120" y="-355.963" font-family="Helvetica,sans-Serif" font-size="11.00">int8[19]</text>
<polygon fill="#ffffff" stroke="none" points="926,-325.763 926,-347.763 1117,-347.763 1117,-325.763 926,-325.763"/>
<polygon fill="none" stroke="black" points="926,-325.763 926,-347.763 1117,-347.763 1117,-325.763 926,-325.763"/>
<image xlink:href="../../images/foreignKeys.png" width="11px" height="12px" preserveAspectRatio="xMinYMin meet" x="931" y="-342.763"/>
<text text-anchor="start" x="946" y="-333.963" font-family="Helvetica,sans-Serif" font-size="11.00">planting_site_id</text>
<polygon fill="none" stroke="black" points="1117,-325.763 1117,-347.763 1218,-347.763 1218,-325.763 1117,-325.763"/>
<text text-anchor="start" x="1120" y="-333.963" font-family="Helvetica,sans-Serif" font-size="11.00">int8[19]</text>
<polygon fill="#ffffff" stroke="none" points="926,-303.763 926,-325.763 1117,-325.763 1117,-303.763 926,-303.763"/>
<polygon fill="none" stroke="black" points="926,-303.763 926,-325.763 1117,-325.763 1117,-303.763 926,-303.763"/>
<text text-anchor="start" x="946" y="-311.963" font-family="Helvetica,sans-Serif" font-size="11.00">species_id</text>
<polygon fill="none" stroke="black" points="1117,-303.763 1117,-325.763 1218,-325.763 1218,-303.763 1117,-303.763"/>
<text text-anchor="start" x="1120" y="-311.963" font-family="Helvetica,sans-Serif" font-size="11.00">int8[19]</text>
<polygon fill="#ffffff" stroke="none" points="926,-281.763 926,-303.763 1117,-303.763 1117,-281.763 926,-281.763"/>
<polygon fill="none" stroke="black" points="926,-281.763 926,-303.763 1117,-303.763 1117,-281.763 926,-281.763"/>
<text text-anchor="start" x="946" y="-289.963" font-family="Helvetica,sans-Serif" font-size="11.00">species_name</text>
<polygon fill="none" stroke="black" points="1117,-281.763 1117,-303.763 1218,-303.763 1218,-281.763 1117,-281.763"/>
<text text-anchor="start" x="1120" y="-289.963" font-family="Helvetica,sans-Serif" font-size="11.00">text[2147483647]</text>
<polygon fill="none" stroke="black" points="926,-259.763 926,-281.763 1117,-281.763 1117,-259.763 926,-259.763"/>
<image xlink:href="../../images/foreignKeys.png" width="11px" height="12px" preserveAspectRatio="xMinYMin meet" x="931" y="-276.763"/>
<text text-anchor="start" x="946" y="-267.963" font-family="Helvetica,sans-Serif" font-size="11.00">certainty_id</text>
<polygon fill="none" stroke="black" points="1117,-259.763 1117,-281.763 1218,-281.763 1218,-259.763 1117,-259.763"/>
<text text-anchor="start" x="1120" y="-267.963" font-family="Helvetica,sans-Serif" font-size="11.00">int4[10]</text>
<polygon fill="none" stroke="black" points="926,-237.763 926,-259.763 1117,-259.763 1117,-237.763 926,-237.763"/>
<text text-anchor="start" x="946" y="-245.963" font-family="Helvetica,sans-Serif" font-size="11.00">total_live</text>
<polygon fill="none" stroke="black" points="1117,-237.763 1117,-259.763 1218,-259.763 1218,-237.763 1117,-237.763"/>
<text text-anchor="start" x="1120" y="-245.963" font-family="Helvetica,sans-Serif" font-size="11.00">int4[10]</text>
<polygon fill="none" stroke="black" points="926,-215.763 926,-237.763 1117,-237.763 1117,-215.763 926,-215.763"/>
<text text-anchor="start" x="946" y="-223.963" font-family="Helvetica,sans-Serif" font-size="11.00">total_dead</text>
<polygon fill="none" stroke="black" points="1117,-215.763 1117,-237.763 1218,-237.763 1218,-215.763 1117,-215.763"/>
<text text-anchor="start" x="1120" y="-223.963" font-family="Helvetica,sans-Serif" font-size="11.00">int4[10]</text>
<polygon fill="none" stroke="black" points="926,-193.763 926,-215.763 1117,-215.763 1117,-193.763 926,-193.763"/>
<text text-anchor="start" x="946" y="-201.963" font-family="Helvetica,sans-Serif" font-size="11.00">total_existing</text>
<polygon fill="none" stroke="black" points="1117,-193.763 1117,-215.763 1218,-215.763 1218,-193.763 1117,-193.763"/>
<text text-anchor="start" x="1120" y="-201.963" font-family="Helvetica,sans-Serif" font-size="11.00">int4[10]</text>
<polygon fill="none" stroke="black" points="926,-171.763 926,-193.763 1117,-193.763 1117,-171.763 926,-171.763"/>
<text text-anchor="start" x="946" y="-179.963" font-family="Helvetica,sans-Serif" font-size="11.00">mortality_rate</text>
<polygon fill="none" stroke="black" points="1117,-171.763 1117,-193.763 1218,-193.763 1218,-171.763 1117,-171.763"/>
<text text-anchor="start" x="1120" y="-179.963" font-family="Helvetica,sans-Serif" font-size="11.00">int4[10]</text>
<polygon fill="none" stroke="black" points="926,-149.763 926,-171.763 1117,-171.763 1117,-149.763 926,-149.763"/>
<text text-anchor="start" x="946" y="-157.963" font-family="Helvetica,sans-Serif" font-size="11.00">cumulative_dead</text>
<polygon fill="none" stroke="black" points="1117,-149.763 1117,-171.763 1218,-171.763 1218,-149.763 1117,-149.763"/>
<text text-anchor="start" x="1120" y="-157.963" font-family="Helvetica,sans-Serif" font-size="11.00">int4[10]</text>
<polygon fill="none" stroke="black" points="926,-127.763 926,-149.763 1117,-149.763 1117,-127.763 926,-127.763"/>
<text text-anchor="start" x="946" y="-135.963" font-family="Helvetica,sans-Serif" font-size="11.00">permanent_live</text>
<polygon fill="none" stroke="black" points="1117,-127.763 1117,-149.763 1218,-149.763 1218,-127.763 1117,-127.763"/>
<text text-anchor="start" x="1120" y="-135.963" font-family="Helvetica,sans-Serif" font-size="11.00">int4[10]</text>
<polygon fill="#ffffff" stroke="none" points="926,-109.763 926,-127.763 1012,-127.763 1012,-109.763 926,-109.763"/>
<polygon fill="none" stroke="black" points="926,-109.763 926,-127.763 1012,-127.763 1012,-109.763 926,-109.763"/>
<text text-anchor="start" x="929" y="-115.963" font-family="Helvetica,sans-Serif" font-size="11.00">&lt; 3</text>
<polygon fill="#ffffff" stroke="none" points="1012,-109.763 1012,-127.763 1117,-127.763 1117,-109.763 1012,-109.763"/>
<polygon fill="none" stroke="black" points="1012,-109.763 1012,-127.763 1117,-127.763 1117,-109.763 1012,-109.763"/>
<text text-anchor="start" x="1078" y="-115.963" font-family="Helvetica,sans-Serif" font-size="11.00">0 rows</text>
<polygon fill="#ffffff" stroke="none" points="1117,-109.763 1117,-127.763 1218,-127.763 1218,-109.763 1117,-109.763"/>
<polygon fill="none" stroke="black" points="1117,-109.763 1117,-127.763 1218,-127.763 1218,-109.763 1117,-109.763"/>
<text text-anchor="start" x="1198" y="-115.963" font-family="Helvetica,sans-Serif" font-size="11.00">0 &gt;</text>
<polygon fill="none" stroke="black" stroke-width="2" points="925,-108.763 925,-392.763 1219,-392.763 1219,-108.763 925,-108.763"/>
</a>
</g>
</g>
<!-- observed_site_species_totals&#45;&gt;planting_sites -->
<g id="edge30" class="edge"><title>observed_site_species_totals:planting_site_id:w&#45;&gt;planting_sites:id:e</title>
<path fill="none" stroke="black" d="M910.672,-339.073C872.38,-354.285 929.754,-440.57 883,-476.763 851.918,-500.823 214.836,-497.699 176,-503.763 157.995,-506.574 154.724,-514.763 136.5,-514.763"/>
<polygon fill="black" stroke="black" points="917.102,-338.036 925.573,-340.317 921.051,-337.399 925,-336.763 925,-336.763 925,-336.763 921.051,-337.399 924.427,-333.208 917.102,-338.036 917.102,-338.036"/>
<ellipse fill="none" stroke="black" cx="913.943" cy="-338.546" rx="3.2" ry="3.2"/>
</g>
<!-- observed_site_species_totals&#45;&gt;observations -->
<g id="edge29" class="edge"><title>observed_site_species_totals:observation_id:w&#45;&gt;observations:id:e</title>
<path fill="none" stroke="black" d="M911.487,-363.836C865.751,-404.929 943.211,-681.763 876,-681.763"/>
<polygon fill="black" stroke="black" points="917.51,-361.574 926.265,-362.133 921.255,-360.168 925,-358.763 925,-358.763 925,-358.763 921.255,-360.168 923.735,-355.392 917.51,-361.574 917.51,-361.574"/>
<ellipse fill="none" stroke="black" cx="914.515" cy="-362.699" rx="3.20001" ry="3.20001"/>
</g>
<!-- observed_site_species_totals&#45;&gt;recorded_species_certainties -->
<g id="edge28" class="edge"><title>observed_site_species_totals:certainty_id:w&#45;&gt;recorded_species_certainties:id:e</title>
<path fill="none" stroke="black" d="M910.65,-273.439C863.728,-294.502 943.734,-432.763 874,-432.763"/>
<polygon fill="black" stroke="black" points="917.136,-272.229 925.66,-274.301 921.068,-271.496 925,-270.763 925,-270.763 925,-270.763 921.068,-271.496 924.34,-267.224 917.136,-272.229 917.136,-272.229"/>
<ellipse fill="none" stroke="black" cx="913.99" cy="-272.816" rx="3.2" ry="3.2"/>
</g>
<!-- observed_zone_species_totals -->
<g id="node17" class="node"><title>observed_zone_species_totals</title>
<g id="a_node17"><a xlink:href="../../tables/observed_zone_species_totals.html" xlink:title="observed_zone_species_totals" target="_top">
<polygon fill="#ffffff" stroke="none" points="964.5,-414.763 964.5,-472.763 1179.5,-472.763 1179.5,-414.763 964.5,-414.763"/>
<polygon fill="#f5f5f5" stroke="none" points="965,-450.763 965,-472.763 1180,-472.763 1180,-450.763 965,-450.763"/>
<polygon fill="none" stroke="black" points="965,-450.763 965,-472.763 1180,-472.763 1180,-450.763 965,-450.763"/>
<text text-anchor="start" x="970" y="-459.963" font-family="Helvetica,sans-Serif" font-weight="bold" font-size="11.00">observed_zone_species_totals</text>
<text text-anchor="start" x="1141" y="-458.963" font-family="Helvetica,sans-Serif" font-size="11.00">[table]</text>
<polygon fill="none" stroke="black" points="965,-432.763 965,-450.763 1180,-450.763 1180,-432.763 965,-432.763"/>
<text text-anchor="start" x="968" y="-438.963" font-family="Helvetica,sans-Serif" font-size="11.00">...</text>
<polygon fill="#ffffff" stroke="none" points="965,-414.763 965,-432.763 1056,-432.763 1056,-414.763 965,-414.763"/>
<polygon fill="none" stroke="black" points="965,-414.763 965,-432.763 1056,-432.763 1056,-414.763 965,-414.763"/>
<text text-anchor="start" x="968" y="-420.963" font-family="Helvetica,sans-Serif" font-size="11.00">&lt; 3</text>
<polygon fill="#ffffff" stroke="none" points="1056,-414.763 1056,-432.763 1132,-432.763 1132,-414.763 1056,-414.763"/>
<polygon fill="none" stroke="black" points="1056,-414.763 1056,-432.763 1132,-432.763 1132,-414.763 1056,-414.763"/>
<text text-anchor="start" x="1093" y="-420.963" font-family="Helvetica,sans-Serif" font-size="11.00">0 rows</text>
<polygon fill="#ffffff" stroke="none" points="1132,-414.763 1132,-432.763 1180,-432.763 1180,-414.763 1132,-414.763"/>
<polygon fill="none" stroke="black" points="1132,-414.763 1132,-432.763 1180,-432.763 1180,-414.763 1132,-414.763"/>
<text text-anchor="start" x="1170" y="-420.963" font-family="Helvetica,sans-Serif" font-size="11.00"> &#160;</text>
</a>
</g>
</g>
<!-- observed_zone_species_totals&#45;&gt;observations -->
<g id="edge32" class="edge"><title>observed_zone_species_totals:elipses:w&#45;&gt;observations:id:e</title>
<path fill="none" stroke="black" d="M949.297,-443.839C933.085,-449.154 927.335,-464.223 916,-483.763 893.476,-522.591 920.889,-681.763 876,-681.763"/>
<polygon fill="black" stroke="black" points="956.079,-442.881 964.503,-445.327 960.039,-442.322 964,-441.763 964,-441.763 964,-441.763 960.039,-442.322 963.497,-438.198 956.079,-442.881 956.079,-442.881"/>
<ellipse fill="none" stroke="black" cx="952.91" cy="-443.329" rx="3.2" ry="3.2"/>
</g>
<!-- observed_zone_species_totals&#45;&gt;recorded_species_certainties -->
<g id="edge31" class="edge"><title>observed_zone_species_totals:elipses:w&#45;&gt;recorded_species_certainties:id:e</title>
<path fill="none" stroke="black" d="M949.459,-441.328C920.711,-439.531 908.861,-432.763 874,-432.763"/>
<polygon fill="black" stroke="black" points="956.004,-441.524 963.893,-445.361 960.002,-441.643 964,-441.763 964,-441.763 964,-441.763 960.002,-441.643 964.107,-438.164 956.004,-441.524 956.004,-441.524"/>
<ellipse fill="none" stroke="black" cx="952.805" cy="-441.428" rx="3.2" ry="3.2"/>
</g>
<!-- observed_zone_species_totals&#45;&gt;planting_zones -->
<g id="edge33" class="edge"><title>observed_zone_species_totals:elipses:w&#45;&gt;planting_zones:elipses:e</title>
<path fill="none" stroke="black" d="M949.516,-443.641C920.233,-452.086 919.467,-486.681 883,-499.763 786.772,-534.282 525.698,-520.327 424,-530.763 391.643,-534.083 384.027,-540.763 351.5,-540.763"/>
<polygon fill="black" stroke="black" points="956.066,-442.792 964.463,-445.333 960.033,-442.277 964,-441.763 964,-441.763 964,-441.763 960.033,-442.277 963.537,-438.192 956.066,-442.792 956.066,-442.792"/>
<ellipse fill="none" stroke="black" cx="952.893" cy="-443.203" rx="3.2" ry="3.2"/>
</g>
<!-- planting_zones&#45;&gt;planting_sites -->
<g id="edge41" class="edge"><title>planting_zones:elipses:w&#45;&gt;planting_sites:id:e</title>
<path fill="none" stroke="black" d="M202.111,-539.29C176.931,-533.79 168.483,-514.763 136.5,-514.763"/>
<polygon fill="black" stroke="black" points="208.542,-539.948 216.134,-544.344 212.521,-540.355 216.5,-540.763 216.5,-540.763 216.5,-540.763 212.521,-540.355 216.866,-537.181 208.542,-539.948 208.542,-539.948"/>
<ellipse fill="none" stroke="black" cx="205.358" cy="-539.622" rx="3.2" ry="3.2"/>
</g>
<!-- planting_seasons -->
<g id="node19" class="node"><title>planting_seasons</title>
<g id="a_node19"><a xlink:href="../../tables/planting_seasons.html" xlink:title="planting_seasons" target="_top">
<polygon fill="#ffffff" stroke="none" points="211,-314.763 211,-372.763 356,-372.763 356,-314.763 211,-314.763"/>
<polygon fill="#f5f5f5" stroke="none" points="211.5,-350.763 211.5,-372.763 356.5,-372.763 356.5,-350.763 211.5,-350.763"/>
<polygon fill="none" stroke="black" points="211.5,-350.763 211.5,-372.763 356.5,-372.763 356.5,-350.763 211.5,-350.763"/>
<text text-anchor="start" x="216.5" y="-359.963" font-family="Helvetica,sans-Serif" font-weight="bold" font-size="11.00">planting_seasons</text>
<text text-anchor="start" x="317.5" y="-358.963" font-family="Helvetica,sans-Serif" font-size="11.00">[table]</text>
<polygon fill="none" stroke="black" points="211.5,-332.763 211.5,-350.763 356.5,-350.763 356.5,-332.763 211.5,-332.763"/>
<text text-anchor="start" x="214.5" y="-338.963" font-family="Helvetica,sans-Serif" font-size="11.00">...</text>
<polygon fill="#ffffff" stroke="none" points="211.5,-314.763 211.5,-332.763 267.5,-332.763 267.5,-314.763 211.5,-314.763"/>
<polygon fill="none" stroke="black" points="211.5,-314.763 211.5,-332.763 267.5,-332.763 267.5,-314.763 211.5,-314.763"/>
<text text-anchor="start" x="214.5" y="-320.963" font-family="Helvetica,sans-Serif" font-size="11.00">&lt; 1</text>
<polygon fill="#ffffff" stroke="none" points="267.5,-314.763 267.5,-332.763 326.5,-332.763 326.5,-314.763 267.5,-314.763"/>
<polygon fill="none" stroke="black" points="267.5,-314.763 267.5,-332.763 326.5,-332.763 326.5,-314.763 267.5,-314.763"/>
<text text-anchor="start" x="287.5" y="-320.963" font-family="Helvetica,sans-Serif" font-size="11.00">0 rows</text>
<polygon fill="#ffffff" stroke="none" points="326.5,-314.763 326.5,-332.763 356.5,-332.763 356.5,-314.763 326.5,-314.763"/>
<polygon fill="none" stroke="black" points="326.5,-314.763 326.5,-332.763 356.5,-332.763 356.5,-314.763 326.5,-314.763"/>
<text text-anchor="start" x="346.5" y="-320.963" font-family="Helvetica,sans-Serif" font-size="11.00"> &#160;</text>
</a>
</g>
</g>
<!-- planting_seasons&#45;&gt;planting_sites -->
<g id="edge34" class="edge"><title>planting_seasons:elipses:w&#45;&gt;planting_sites:id:e</title>
<path fill="none" stroke="black" d="M196.076,-343.95C138.478,-363.976 214.574,-514.763 136.5,-514.763"/>
<polygon fill="black" stroke="black" points="202.59,-342.962 211.04,-345.322 206.545,-342.362 210.5,-341.763 210.5,-341.763 210.5,-341.763 206.545,-342.362 209.96,-338.203 202.59,-342.962 202.59,-342.962"/>
<ellipse fill="none" stroke="black" cx="199.427" cy="-343.442" rx="3.2" ry="3.2"/>
</g>
<!-- planting_site_notifications -->
<g id="node20" class="node"><title>planting_site_notifications</title>
<g id="a_node20"><a xlink:href="../../tables/planting_site_notifications.html" xlink:title="planting_site_notifications" target="_top">
<polygon fill="#ffffff" stroke="none" points="184,-235.763 184,-293.763 383,-293.763 383,-235.763 184,-235.763"/>
<polygon fill="#f5f5f5" stroke="none" points="184.5,-271.763 184.5,-293.763 383.5,-293.763 383.5,-271.763 184.5,-271.763"/>
<polygon fill="none" stroke="black" points="184.5,-271.763 184.5,-293.763 383.5,-293.763 383.5,-271.763 184.5,-271.763"/>
<text text-anchor="start" x="189.5" y="-280.963" font-family="Helvetica,sans-Serif" font-weight="bold" font-size="11.00">planting_site_notifications</text>
<text text-anchor="start" x="344.5" y="-279.963" font-family="Helvetica,sans-Serif" font-size="11.00">[table]</text>
<polygon fill="none" stroke="black" points="184.5,-253.763 184.5,-271.763 383.5,-271.763 383.5,-253.763 184.5,-253.763"/>
<text text-anchor="start" x="187.5" y="-259.963" font-family="Helvetica,sans-Serif" font-size="11.00">...</text>
<polygon fill="#ffffff" stroke="none" points="184.5,-235.763 184.5,-253.763 267.5,-253.763 267.5,-235.763 184.5,-235.763"/>
<polygon fill="none" stroke="black" points="184.5,-235.763 184.5,-253.763 267.5,-253.763 267.5,-235.763 184.5,-235.763"/>
<text text-anchor="start" x="187.5" y="-241.963" font-family="Helvetica,sans-Serif" font-size="11.00">&lt; 1</text>
<polygon fill="#ffffff" stroke="none" points="267.5,-235.763 267.5,-253.763 339.5,-253.763 339.5,-235.763 267.5,-235.763"/>
<polygon fill="none" stroke="black" points="267.5,-235.763 267.5,-253.763 339.5,-253.763 339.5,-235.763 267.5,-235.763"/>
<text text-anchor="start" x="300.5" y="-241.963" font-family="Helvetica,sans-Serif" font-size="11.00">0 rows</text>
<polygon fill="#ffffff" stroke="none" points="339.5,-235.763 339.5,-253.763 383.5,-253.763 383.5,-235.763 339.5,-235.763"/>
<polygon fill="none" stroke="black" points="339.5,-235.763 339.5,-253.763 383.5,-253.763 383.5,-235.763 339.5,-235.763"/>
<text text-anchor="start" x="373.5" y="-241.963" font-family="Helvetica,sans-Serif" font-size="11.00"> &#160;</text>
</a>
</g>
</g>
<!-- planting_site_notifications&#45;&gt;planting_sites -->
<g id="edge36" class="edge"><title>planting_site_notifications:elipses:w&#45;&gt;planting_sites:id:e</title>
<path fill="none" stroke="black" d="M169.105,-264.438C86.2028,-286.303 244.98,-514.763 136.5,-514.763"/>
<polygon fill="black" stroke="black" points="175.554,-263.688 183.916,-266.338 179.527,-263.225 183.5,-262.763 183.5,-262.763 183.5,-262.763 179.527,-263.225 183.084,-259.187 175.554,-263.688 175.554,-263.688"/>
<ellipse fill="none" stroke="black" cx="172.375" cy="-264.058" rx="3.2" ry="3.2"/>
</g>
<!-- planting_site_populations -->
<g id="node21" class="node"><title>planting_site_populations</title>
<g id="a_node21"><a xlink:href="../../tables/planting_site_populations.html" xlink:title="planting_site_populations" target="_top">
<polygon fill="#ffffff" stroke="none" points="186,-156.763 186,-214.763 381,-214.763 381,-156.763 186,-156.763"/>
<polygon fill="#f5f5f5" stroke="none" points="186.5,-192.763 186.5,-214.763 381.5,-214.763 381.5,-192.763 186.5,-192.763"/>
<polygon fill="none" stroke="black" points="186.5,-192.763 186.5,-214.763 381.5,-214.763 381.5,-192.763 186.5,-192.763"/>
<text text-anchor="start" x="191.5" y="-201.963" font-family="Helvetica,sans-Serif" font-weight="bold" font-size="11.00">planting_site_populations</text>
<text text-anchor="start" x="342.5" y="-200.963" font-family="Helvetica,sans-Serif" font-size="11.00">[table]</text>
<polygon fill="none" stroke="black" points="186.5,-174.763 186.5,-192.763 381.5,-192.763 381.5,-174.763 186.5,-174.763"/>
<text text-anchor="start" x="189.5" y="-180.963" font-family="Helvetica,sans-Serif" font-size="11.00">...</text>
<polygon fill="#ffffff" stroke="none" points="186.5,-156.763 186.5,-174.763 267.5,-174.763 267.5,-156.763 186.5,-156.763"/>
<polygon fill="none" stroke="black" points="186.5,-156.763 186.5,-174.763 267.5,-174.763 267.5,-156.763 186.5,-156.763"/>
<text text-anchor="start" x="189.5" y="-162.963" font-family="Helvetica,sans-Serif" font-size="11.00">&lt; 1</text>
<polygon fill="#ffffff" stroke="none" points="267.5,-156.763 267.5,-174.763 338.5,-174.763 338.5,-156.763 267.5,-156.763"/>
<polygon fill="none" stroke="black" points="267.5,-156.763 267.5,-174.763 338.5,-174.763 338.5,-156.763 267.5,-156.763"/>
<text text-anchor="start" x="299.5" y="-162.963" font-family="Helvetica,sans-Serif" font-size="11.00">0 rows</text>
<polygon fill="#ffffff" stroke="none" points="338.5,-156.763 338.5,-174.763 381.5,-174.763 381.5,-156.763 338.5,-156.763"/>
<polygon fill="none" stroke="black" points="338.5,-156.763 338.5,-174.763 381.5,-174.763 381.5,-156.763 338.5,-156.763"/>
<text text-anchor="start" x="371.5" y="-162.963" font-family="Helvetica,sans-Serif" font-size="11.00"> &#160;</text>
</a>
</g>
</g>
<!-- planting_site_populations&#45;&gt;planting_sites -->
<g id="edge37" class="edge"><title>planting_site_populations:elipses:w&#45;&gt;planting_sites:id:e</title>
<path fill="none" stroke="black" d="M171.678,-188.962C124.985,-231.072 205.338,-514.763 136.5,-514.763"/>
<polygon fill="black" stroke="black" points="178.012,-186.579 186.767,-187.132 181.756,-185.171 185.5,-183.763 185.5,-183.763 185.5,-183.763 181.756,-185.171 184.233,-180.393 178.012,-186.579 178.012,-186.579"/>
<ellipse fill="none" stroke="black" cx="175.017" cy="-187.706" rx="3.20001" ry="3.20001"/>
</g>
<!-- plantings -->
<g id="node22" class="node"><title>plantings</title>
<g id="a_node22"><a xlink:href="../../tables/plantings.html" xlink:title="plantings" target="_top">
<polygon fill="#ffffff" stroke="none" points="715,-302.763 715,-360.763 817,-360.763 817,-302.763 715,-302.763"/>
<polygon fill="#f5f5f5" stroke="none" points="715,-338.763 715,-360.763 817,-360.763 817,-338.763 715,-338.763"/>
<polygon fill="none" stroke="black" points="715,-338.763 715,-360.763 817,-360.763 817,-338.763 715,-338.763"/>
<text text-anchor="start" x="720" y="-347.963" font-family="Helvetica,sans-Serif" font-weight="bold" font-size="11.00">plantings</text>
<text text-anchor="start" x="778" y="-346.963" font-family="Helvetica,sans-Serif" font-size="11.00">[table]</text>
<polygon fill="none" stroke="black" points="715,-320.763 715,-338.763 817,-338.763 817,-320.763 715,-320.763"/>
<text text-anchor="start" x="718" y="-326.963" font-family="Helvetica,sans-Serif" font-size="11.00">...</text>
<polygon fill="#ffffff" stroke="none" points="715,-302.763 715,-320.763 750,-320.763 750,-302.763 715,-302.763"/>
<polygon fill="none" stroke="black" points="715,-302.763 715,-320.763 750,-320.763 750,-302.763 715,-302.763"/>
<text text-anchor="start" x="718" y="-308.963" font-family="Helvetica,sans-Serif" font-size="11.00">&lt; 6</text>
<polygon fill="#ffffff" stroke="none" points="750,-302.763 750,-320.763 798,-320.763 798,-302.763 750,-302.763"/>
<polygon fill="none" stroke="black" points="750,-302.763 750,-320.763 798,-320.763 798,-302.763 750,-302.763"/>
<text text-anchor="start" x="759" y="-308.963" font-family="Helvetica,sans-Serif" font-size="11.00">0 rows</text>
<polygon fill="#ffffff" stroke="none" points="798,-302.763 798,-320.763 817,-320.763 817,-302.763 798,-302.763"/>
<polygon fill="none" stroke="black" points="798,-302.763 798,-320.763 817,-320.763 817,-302.763 798,-302.763"/>
<text text-anchor="start" x="807" y="-308.963" font-family="Helvetica,sans-Serif" font-size="11.00"> &#160;</text>
</a>
</g>
</g>
<!-- plantings&#45;&gt;deliveries -->
<g id="edge42" class="edge"><title>plantings:elipses:w&#45;&gt;deliveries:elipses:e</title>
<path fill="none" stroke="black" d="M699.363,-328.909C677.975,-330.808 672.128,-348.681 649,-365.763 613.983,-391.626 617.533,-428.763 574,-434.763"/>
<polygon fill="black" stroke="black" points="706.014,-329.297 713.79,-333.356 710.007,-329.53 714,-329.763 714,-329.763 714,-329.763 710.007,-329.53 714.21,-326.169 706.014,-329.297 706.014,-329.297"/>
<ellipse fill="none" stroke="black" cx="702.819" cy="-329.11" rx="3.2" ry="3.2"/>
</g>
<!-- plantings&#45;&gt;deliveries -->
<g id="edge43" class="edge"><title>plantings:elipses:w&#45;&gt;deliveries:elipses:e</title>
<path fill="none" stroke="black" d="M699.967,-334.051C678.083,-343.474 672.344,-361.521 649,-378.763 613.983,-404.626 617.533,-441.763 574,-434.763"/>
<polygon fill="black" stroke="black" points="706.349,-332.1 715.052,-333.205 710.175,-330.931 714,-329.763 714,-329.763 714,-329.763 710.175,-330.931 712.948,-326.32 706.349,-332.1 706.349,-332.1"/>
<ellipse fill="none" stroke="black" cx="703.289" cy="-333.036" rx="3.20001" ry="3.20001"/>
</g>
<!-- plantings&#45;&gt;planting_sites -->
<g id="edge44" class="edge"><title>plantings:elipses:w&#45;&gt;planting_sites:id:e</title>
<path fill="none" stroke="black" d="M699.458,-331.726C613.776,-345.08 186.982,-422.268 176,-430.763 143.369,-456.005 177.755,-514.763 136.5,-514.763"/>
<polygon fill="black" stroke="black" points="706.072,-330.833 714.482,-333.33 710.036,-330.298 714,-329.763 714,-329.763 714,-329.763 710.036,-330.298 713.518,-326.195 706.072,-330.833 706.072,-330.833"/>
<ellipse fill="none" stroke="black" cx="702.901" cy="-331.261" rx="3.2" ry="3.2"/>
</g>
<!-- plantings&#45;&gt;planting_subzones -->
<g id="edge45" class="edge"><title>plantings:elipses:w&#45;&gt;planting_subzones:elipses:e</title>
<path fill="none" stroke="black" d="M699.502,-328.4C676.101,-328.512 666,-342.242 649,-365.763 596.273,-438.714 688.012,-561.763 598,-567.763"/>
<polygon fill="black" stroke="black" points="706.035,-329.014 713.663,-333.347 710.018,-329.388 714,-329.763 714,-329.763 714,-329.763 710.018,-329.388 714.337,-326.178 706.035,-329.014 706.035,-329.014"/>
<ellipse fill="none" stroke="black" cx="702.849" cy="-328.714" rx="3.2" ry="3.2"/>
</g>
<!-- plantings&#45;&gt;planting_subzones -->
<g id="edge46" class="edge"><title>plantings:elipses:w&#45;&gt;planting_subzones:elipses:e</title>
<path fill="none" stroke="black" d="M699.828,-333.481C676.194,-341.385 666.079,-355.133 649,-378.763 596.273,-451.714 688.012,-574.763 598,-567.763"/>
<polygon fill="black" stroke="black" points="706.262,-331.793 714.914,-333.245 710.131,-330.778 714,-329.763 714,-329.763 714,-329.763 710.131,-330.778 713.086,-326.28 706.262,-331.793 706.262,-331.793"/>
<ellipse fill="none" stroke="black" cx="703.167" cy="-332.605" rx="3.2" ry="3.2"/>
</g>
<!-- recorded_plants -->
<g id="node23" class="node"><title>recorded_plants</title>
<g id="a_node23"><a xlink:href="../../tables/recorded_plants.html" xlink:title="recorded_plants" target="_top">
<polygon fill="#ffffff" stroke="none" points="1498,-710.763 1498,-768.763 1639,-768.763 1639,-710.763 1498,-710.763"/>
<polygon fill="#f5f5f5" stroke="none" points="1498.5,-746.763 1498.5,-768.763 1639.5,-768.763 1639.5,-746.763 1498.5,-746.763"/>
<polygon fill="none" stroke="black" points="1498.5,-746.763 1498.5,-768.763 1639.5,-768.763 1639.5,-746.763 1498.5,-746.763"/>
<text text-anchor="start" x="1503.5" y="-755.963" font-family="Helvetica,sans-Serif" font-weight="bold" font-size="11.00">recorded_plants</text>
<text text-anchor="start" x="1600.5" y="-754.963" font-family="Helvetica,sans-Serif" font-size="11.00">[table]</text>
<polygon fill="none" stroke="black" points="1498.5,-728.763 1498.5,-746.763 1639.5,-746.763 1639.5,-728.763 1498.5,-728.763"/>
<text text-anchor="start" x="1501.5" y="-734.963" font-family="Helvetica,sans-Serif" font-size="11.00">...</text>
<polygon fill="#ffffff" stroke="none" points="1498.5,-710.763 1498.5,-728.763 1552.5,-728.763 1552.5,-710.763 1498.5,-710.763"/>
<polygon fill="none" stroke="black" points="1498.5,-710.763 1498.5,-728.763 1552.5,-728.763 1552.5,-710.763 1498.5,-710.763"/>
<text text-anchor="start" x="1501.5" y="-716.963" font-family="Helvetica,sans-Serif" font-size="11.00">&lt; 6</text>
<polygon fill="#ffffff" stroke="none" points="1552.5,-710.763 1552.5,-728.763 1610.5,-728.763 1610.5,-710.763 1552.5,-710.763"/>
<polygon fill="none" stroke="black" points="1552.5,-710.763 1552.5,-728.763 1610.5,-728.763 1610.5,-710.763 1552.5,-710.763"/>
<text text-anchor="start" x="1571.5" y="-716.963" font-family="Helvetica,sans-Serif" font-size="11.00">0 rows</text>
<polygon fill="#ffffff" stroke="none" points="1610.5,-710.763 1610.5,-728.763 1639.5,-728.763 1639.5,-710.763 1610.5,-710.763"/>
<polygon fill="none" stroke="black" points="1610.5,-710.763 1610.5,-728.763 1639.5,-728.763 1639.5,-710.763 1610.5,-710.763"/>
<text text-anchor="start" x="1629.5" y="-716.963" font-family="Helvetica,sans-Serif" font-size="11.00"> &#160;</text>
</a>
</g>
</g>
<!-- recorded_plants&#45;&gt;monitoring_plots -->
<g id="edge48" class="edge"><title>recorded_plants:elipses:w&#45;&gt;monitoring_plots:elipses:e</title>
<path fill="none" stroke="black" d="M1482.9,-737.68C1386.76,-736.625 1346.72,-726.661 1261,-781.763 1239.53,-795.564 1250.46,-816.643 1228,-828.763 1152.08,-869.724 926.263,-840.763 840,-840.763"/>
<polygon fill="black" stroke="black" points="1489.5,-737.717 1497.48,-741.362 1493.5,-737.74 1497.5,-737.763 1497.5,-737.763 1497.5,-737.763 1493.5,-737.74 1497.52,-734.163 1489.5,-737.717 1489.5,-737.717"/>
<ellipse fill="none" stroke="black" cx="1486.3" cy="-737.699" rx="3.2" ry="3.2"/>
</g>
<!-- recorded_plants&#45;&gt;observation_plots -->
<g id="edge49" class="edge"><title>recorded_plants:elipses:w&#45;&gt;observation_plots:elipses:e</title>
<path fill="none" stroke="black" d="M1482.9,-738.213C1472.7,-743.03 1471.31,-759.029 1460,-773.763 1440.26,-799.481 1452.42,-834.763 1420,-840.763"/>
<polygon fill="black" stroke="black" points="1489.5,-738.009 1497.61,-741.361 1493.5,-737.886 1497.5,-737.763 1497.5,-737.763 1497.5,-737.763 1493.5,-737.886 1497.39,-734.164 1489.5,-738.009 1489.5,-738.009"/>
<ellipse fill="none" stroke="black" cx="1486.31" cy="-738.108" rx="3.2" ry="3.2"/>
</g>
<!-- recorded_plants&#45;&gt;observation_plots -->
<g id="edge50" class="edge"><title>recorded_plants:elipses:w&#45;&gt;observation_plots:elipses:e</title>
<path fill="none" stroke="black" d="M1484.59,-744.348C1472.82,-754.343 1471.9,-771.254 1460,-786.763 1440.26,-812.481 1452.42,-847.763 1420,-840.763"/>
<polygon fill="black" stroke="black" points="1490.37,-741.397 1499.14,-740.969 1493.94,-739.58 1497.5,-737.763 1497.5,-737.763 1497.5,-737.763 1493.94,-739.58 1495.86,-734.556 1490.37,-741.397 1490.37,-741.397"/>
<ellipse fill="none" stroke="black" cx="1487.52" cy="-742.851" rx="3.20001" ry="3.20001"/>
</g>
<!-- recorded_plants&#45;&gt;observations -->
<g id="edge51" class="edge"><title>recorded_plants:elipses:w&#45;&gt;observations:id:e</title>
<path fill="none" stroke="black" d="M1483.07,-735.303C1456.93,-725.028 1461.62,-685.438 1427,-671.763 1321.39,-630.041 1028.7,-657.888 916,-671.763 897.812,-674.002 894.325,-681.763 876,-681.763"/>
<polygon fill="black" stroke="black" points="1489.61,-736.418 1496.9,-741.311 1493.56,-737.09 1497.5,-737.763 1497.5,-737.763 1497.5,-737.763 1493.56,-737.09 1498.1,-734.214 1489.61,-736.418 1489.61,-736.418"/>
<ellipse fill="none" stroke="black" cx="1486.46" cy="-735.88" rx="3.2" ry="3.2"/>
</g>
<!-- recorded_plants&#45;&gt;recorded_species_certainties -->
<g id="edge47" class="edge"><title>recorded_plants:elipses:w&#45;&gt;recorded_species_certainties:id:e</title>
<path fill="none" stroke="black" d="M1483.91,-732.214C1405.96,-671.775 1288.71,-137.094 1228,-96.7625 1112.5,-20.0293 1019.73,-4.73678 916,-96.7625 859.711,-146.7 949.248,-432.763 874,-432.763"/>
<polygon fill="black" stroke="black" points="1490.09,-734.74 1496.14,-741.096 1493.8,-736.251 1497.5,-737.763 1497.5,-737.763 1497.5,-737.763 1493.8,-736.251 1498.86,-734.429 1490.09,-734.74 1490.09,-734.74"/>
<ellipse fill="none" stroke="black" cx="1487.13" cy="-733.531" rx="3.20001" ry="3.20001"/>
</g>
</g>
</svg>
