<?xml version="1.0" encoding="UTF-8" standalone="no"?>
<!DOCTYPE svg PUBLIC "-//W3C//DTD SVG 1.1//EN"
 "http://www.w3.org/Graphics/SVG/1.1/DTD/svg11.dtd">
<!-- Generated by graphviz version 2.38.0 (20140413.2041)
 -->
<!-- Title: oneDegreeRelationshipsDiagram Pages: 1 -->
<svg width="1060pt" height="777pt"
 viewBox="0.00 0.00 1060.00 776.70" xmlns="http://www.w3.org/2000/svg" xmlns:xlink="http://www.w3.org/1999/xlink">
<g id="graph0" class="graph" transform="scale(1 1) rotate(0) translate(4 772.7)">
<title>oneDegreeRelationshipsDiagram</title>
<polygon fill="#ffffff" stroke="none" points="-4,4 -4,-772.7 1056,-772.7 1056,4 -4,4"/>
<text text-anchor="middle" x="74.5" y="-7.2" font-family="Helvetica,sans-Serif" font-size="11.00">Generated by SchemaSpy</text>
<!-- monitoring_plot_histories -->
<g id="node1" class="node"><title>monitoring_plot_histories</title>
<g id="a_node1"><a xlink:href="../../tables/monitoring_plot_histories.html" xlink:title="monitoring_plot_histories" target="_top">
<polygon fill="#ffffff" stroke="none" points="253,-162.7 253,-374.7 447,-374.7 447,-162.7 253,-162.7"/>
<polygon fill="#f5f5f5" stroke="none" points="253,-352.7 253,-374.7 447,-374.7 447,-352.7 253,-352.7"/>
<polygon fill="none" stroke="black" points="253,-352.7 253,-374.7 447,-374.7 447,-352.7 253,-352.7"/>
<text text-anchor="start" x="258" y="-361.9" font-family="Helvetica,sans-Serif" font-weight="bold" font-size="11.00">monitoring_plot_histories</text>
<text text-anchor="start" x="408" y="-360.9" font-family="Helvetica,sans-Serif" font-size="11.00">[table]</text>
<polygon fill="none" stroke="black" points="253,-330.7 253,-352.7 447,-352.7 447,-330.7 253,-330.7"/>
<image xlink:href="../../images/primaryKeys.png" width="11px" height="12px" preserveAspectRatio="xMinYMin meet" x="258" y="-347.7"/>
<text text-anchor="start" x="276" y="-338.9" font-family="Helvetica,sans-Serif" font-size="11.00">id</text>
<polygon fill="#ffffff" stroke="none" points="253,-308.7 253,-330.7 447,-330.7 447,-308.7 253,-308.7"/>
<polygon fill="none" stroke="black" points="253,-308.7 253,-330.7 447,-330.7 447,-308.7 253,-308.7"/>
<image xlink:href="../../images/foreignKeys.png" width="11px" height="12px" preserveAspectRatio="xMinYMin meet" x="258" y="-325.7"/>
<text text-anchor="start" x="276" y="-316.9" font-family="Helvetica,sans-Serif" font-size="11.00">monitoring_plot_id</text>
<polygon fill="#ffffff" stroke="none" points="253,-286.7 253,-308.7 447,-308.7 447,-286.7 253,-286.7"/>
<polygon fill="none" stroke="black" points="253,-286.7 253,-308.7 447,-308.7 447,-286.7 253,-286.7"/>
<image xlink:href="../../images/foreignKeys.png" width="11px" height="12px" preserveAspectRatio="xMinYMin meet" x="258" y="-303.7"/>
<text text-anchor="start" x="276" y="-294.9" font-family="Helvetica,sans-Serif" font-size="11.00">planting_subzone_id</text>
<polygon fill="#ffffff" stroke="none" points="253,-264.7 253,-286.7 447,-286.7 447,-264.7 253,-264.7"/>
<polygon fill="none" stroke="black" points="253,-264.7 253,-286.7 447,-286.7 447,-264.7 253,-264.7"/>
<image xlink:href="../../images/foreignKeys.png" width="11px" height="12px" preserveAspectRatio="xMinYMin meet" x="258" y="-281.7"/>
<text text-anchor="start" x="276" y="-272.9" font-family="Helvetica,sans-Serif" font-size="11.00">planting_site_id</text>
<polygon fill="#ffffff" stroke="none" points="253,-242.7 253,-264.7 447,-264.7 447,-242.7 253,-242.7"/>
<polygon fill="none" stroke="black" points="253,-242.7 253,-264.7 447,-264.7 447,-242.7 253,-242.7"/>
<image xlink:href="../../images/foreignKeys.png" width="11px" height="12px" preserveAspectRatio="xMinYMin meet" x="258" y="-259.7"/>
<text text-anchor="start" x="276" y="-250.9" font-family="Helvetica,sans-Serif" font-size="11.00">planting_subzone_history_id</text>
<polygon fill="#ffffff" stroke="none" points="253,-220.7 253,-242.7 447,-242.7 447,-220.7 253,-220.7"/>
<polygon fill="none" stroke="black" points="253,-220.7 253,-242.7 447,-242.7 447,-220.7 253,-220.7"/>
<image xlink:href="../../images/foreignKeys.png" width="11px" height="12px" preserveAspectRatio="xMinYMin meet" x="258" y="-237.7"/>
<text text-anchor="start" x="276" y="-228.9" font-family="Helvetica,sans-Serif" font-size="11.00">planting_site_history_id</text>
<polygon fill="#ffffff" stroke="none" points="253,-198.7 253,-220.7 447,-220.7 447,-198.7 253,-198.7"/>
<polygon fill="none" stroke="black" points="253,-198.7 253,-220.7 447,-220.7 447,-198.7 253,-198.7"/>
<text text-anchor="start" x="276" y="-206.9" font-family="Helvetica,sans-Serif" font-size="11.00">created_by</text>
<polygon fill="none" stroke="black" points="253,-180.7 253,-198.7 447,-198.7 447,-180.7 253,-180.7"/>
<text text-anchor="start" x="256" y="-186.9" font-family="Helvetica,sans-Serif" font-size="11.00">...</text>
<polygon fill="#ffffff" stroke="none" points="253,-162.7 253,-180.7 329,-180.7 329,-162.7 253,-162.7"/>
<polygon fill="none" stroke="black" points="253,-162.7 253,-180.7 329,-180.7 329,-162.7 253,-162.7"/>
<text text-anchor="start" x="256" y="-168.9" font-family="Helvetica,sans-Serif" font-size="11.00">&lt; 5</text>
<polygon fill="#ffffff" stroke="none" points="329,-162.7 329,-180.7 397,-180.7 397,-162.7 329,-162.7"/>
<polygon fill="none" stroke="black" points="329,-162.7 329,-180.7 397,-180.7 397,-162.7 329,-162.7"/>
<text text-anchor="start" x="358" y="-168.9" font-family="Helvetica,sans-Serif" font-size="11.00">0 rows</text>
<polygon fill="#ffffff" stroke="none" points="397,-162.7 397,-180.7 447,-180.7 447,-162.7 397,-162.7"/>
<polygon fill="none" stroke="black" points="397,-162.7 397,-180.7 447,-180.7 447,-162.7 397,-162.7"/>
<text text-anchor="start" x="427" y="-168.9" font-family="Helvetica,sans-Serif" font-size="11.00">1 &gt;</text>
</a>
</g>
</g>
<!-- monitoring_plots -->
<g id="node2" class="node"><title>monitoring_plots</title>
<g id="a_node2"><a xlink:href="../../tables/monitoring_plots.html" xlink:title="monitoring_plots" target="_top">
<polygon fill="#ffffff" stroke="none" points="8,-184.7 8,-352.7 192,-352.7 192,-184.7 8,-184.7"/>
<polygon fill="#f5f5f5" stroke="none" points="8,-330.7 8,-352.7 192,-352.7 192,-330.7 8,-330.7"/>
<polygon fill="none" stroke="black" points="8,-330.7 8,-352.7 192,-352.7 192,-330.7 8,-330.7"/>
<text text-anchor="start" x="13" y="-339.9" font-family="Helvetica,sans-Serif" font-weight="bold" font-size="11.00">monitoring_plots</text>
<text text-anchor="start" x="153" y="-338.9" font-family="Helvetica,sans-Serif" font-size="11.00">[table]</text>
<polygon fill="none" stroke="black" points="8,-308.7 8,-330.7 192,-330.7 192,-308.7 8,-308.7"/>
<image xlink:href="../../images/primaryKeys.png" width="11px" height="12px" preserveAspectRatio="xMinYMin meet" x="13" y="-325.7"/>
<text text-anchor="start" x="28" y="-316.9" font-family="Helvetica,sans-Serif" font-size="11.00">id</text>
<polygon fill="none" stroke="black" points="8,-286.7 8,-308.7 192,-308.7 192,-286.7 8,-286.7"/>
<image xlink:href="../../images/foreignKeys.png" width="11px" height="12px" preserveAspectRatio="xMinYMin meet" x="13" y="-303.7"/>
<text text-anchor="start" x="28" y="-294.9" font-family="Helvetica,sans-Serif" font-size="11.00">planting_subzone_id</text>
<polygon fill="#ffffff" stroke="none" points="8,-264.7 8,-286.7 192,-286.7 192,-264.7 8,-264.7"/>
<polygon fill="none" stroke="black" points="8,-264.7 8,-286.7 192,-286.7 192,-264.7 8,-264.7"/>
<image xlink:href="../../images/foreignKeys.png" width="11px" height="12px" preserveAspectRatio="xMinYMin meet" x="13" y="-281.7"/>
<text text-anchor="start" x="28" y="-272.9" font-family="Helvetica,sans-Serif" font-size="11.00">planting_site_id</text>
<polygon fill="#ffffff" stroke="none" points="8,-242.7 8,-264.7 192,-264.7 192,-242.7 8,-242.7"/>
<polygon fill="none" stroke="black" points="8,-242.7 8,-264.7 192,-264.7 192,-242.7 8,-242.7"/>
<text text-anchor="start" x="28" y="-250.9" font-family="Helvetica,sans-Serif" font-size="11.00">organization_id</text>
<polygon fill="#ffffff" stroke="none" points="8,-220.7 8,-242.7 192,-242.7 192,-220.7 8,-220.7"/>
<polygon fill="none" stroke="black" points="8,-220.7 8,-242.7 192,-242.7 192,-220.7 8,-220.7"/>
<text text-anchor="start" x="28" y="-228.9" font-family="Helvetica,sans-Serif" font-size="11.00">plot_number</text>
<polygon fill="none" stroke="black" points="8,-202.7 8,-220.7 192,-220.7 192,-202.7 8,-202.7"/>
<text text-anchor="start" x="11" y="-208.9" font-family="Helvetica,sans-Serif" font-size="11.00">...</text>
<polygon fill="#ffffff" stroke="none" points="8,-184.7 8,-202.7 79,-202.7 79,-184.7 8,-184.7"/>
<polygon fill="none" stroke="black" points="8,-184.7 8,-202.7 79,-202.7 79,-184.7 8,-184.7"/>
<text text-anchor="start" x="11" y="-190.9" font-family="Helvetica,sans-Serif" font-size="11.00">&lt; 2</text>
<polygon fill="#ffffff" stroke="none" points="79,-184.7 79,-202.7 145,-202.7 145,-184.7 79,-184.7"/>
<polygon fill="none" stroke="black" points="79,-184.7 79,-202.7 145,-202.7 145,-184.7 79,-184.7"/>
<text text-anchor="start" x="106" y="-190.9" font-family="Helvetica,sans-Serif" font-size="11.00">0 rows</text>
<polygon fill="#ffffff" stroke="none" points="145,-184.7 145,-202.7 192,-202.7 192,-184.7 145,-184.7"/>
<polygon fill="none" stroke="black" points="145,-184.7 145,-202.7 192,-202.7 192,-184.7 145,-184.7"/>
<text text-anchor="start" x="172" y="-190.9" font-family="Helvetica,sans-Serif" font-size="11.00">9 &gt;</text>
</a>
</g>
</g>
<!-- monitoring_plot_histories&#45;&gt;monitoring_plots -->
<g id="edge1" class="edge"><title>monitoring_plot_histories:monitoring_plot_id:w&#45;&gt;monitoring_plots:id:e</title>
<path fill="none" stroke="black" d="M237.203,-319.7C221.969,-319.7 213.486,-319.7 193,-319.7"/>
<polygon fill="black" stroke="black" points="244,-319.7 252,-323.3 248,-319.7 252,-319.7 252,-319.7 252,-319.7 248,-319.7 252,-316.1 244,-319.7 244,-319.7"/>
<ellipse fill="none" stroke="black" cx="240.8" cy="-319.7" rx="3.2" ry="3.2"/>
</g>
<!-- observation_photos -->
<g id="node3" class="node"><title>observation_photos</title>
<g id="a_node3"><a xlink:href="../../tables/observation_photos.html" xlink:title="observation_photos" target="_top">
<polygon fill="#ffffff" stroke="none" points="863.5,-596.7 863.5,-764.7 1023.5,-764.7 1023.5,-596.7 863.5,-596.7"/>
<polygon fill="#f5f5f5" stroke="none" points="863.5,-742.7 863.5,-764.7 1023.5,-764.7 1023.5,-742.7 863.5,-742.7"/>
<polygon fill="none" stroke="black" points="863.5,-742.7 863.5,-764.7 1023.5,-764.7 1023.5,-742.7 863.5,-742.7"/>
<text text-anchor="start" x="868.5" y="-751.9" font-family="Helvetica,sans-Serif" font-weight="bold" font-size="11.00">observation_photos</text>
<text text-anchor="start" x="984.5" y="-750.9" font-family="Helvetica,sans-Serif" font-size="11.00">[table]</text>
<polygon fill="none" stroke="black" points="863.5,-720.7 863.5,-742.7 1023.5,-742.7 1023.5,-720.7 863.5,-720.7"/>
<image xlink:href="../../images/primaryKeys.png" width="11px" height="12px" preserveAspectRatio="xMinYMin meet" x="868.5" y="-737.7"/>
<text text-anchor="start" x="894.5" y="-728.9" font-family="Helvetica,sans-Serif" font-size="11.00">file_id</text>
<polygon fill="none" stroke="black" points="863.5,-698.7 863.5,-720.7 1023.5,-720.7 1023.5,-698.7 863.5,-698.7"/>
<image xlink:href="../../images/foreignKeys.png" width="11px" height="12px" preserveAspectRatio="xMinYMin meet" x="868.5" y="-715.7"/>
<text text-anchor="start" x="894.5" y="-706.9" font-family="Helvetica,sans-Serif" font-size="11.00">observation_id</text>
<polygon fill="#ffffff" stroke="none" points="863.5,-676.7 863.5,-698.7 1023.5,-698.7 1023.5,-676.7 863.5,-676.7"/>
<polygon fill="none" stroke="black" points="863.5,-676.7 863.5,-698.7 1023.5,-698.7 1023.5,-676.7 863.5,-676.7"/>
<image xlink:href="../../images/foreignKeys.png" width="11px" height="12px" preserveAspectRatio="xMinYMin meet" x="868.5" y="-693.7"/>
<text text-anchor="start" x="894.5" y="-684.9" font-family="Helvetica,sans-Serif" font-size="11.00">monitoring_plot_id</text>
<polygon fill="none" stroke="black" points="863.5,-654.7 863.5,-676.7 1023.5,-676.7 1023.5,-654.7 863.5,-654.7"/>
<image xlink:href="../../images/foreignKeys.png" width="11px" height="12px" preserveAspectRatio="xMinYMin meet" x="868.5" y="-671.7"/>
<text text-anchor="start" x="894.5" y="-662.9" font-family="Helvetica,sans-Serif" font-size="11.00">position_id</text>
<polygon fill="none" stroke="black" points="863.5,-632.7 863.5,-654.7 1023.5,-654.7 1023.5,-632.7 863.5,-632.7"/>
<image xlink:href="../../images/foreignKeys.png" width="11px" height="12px" preserveAspectRatio="xMinYMin meet" x="868.5" y="-649.7"/>
<text text-anchor="start" x="894.5" y="-640.9" font-family="Helvetica,sans-Serif" font-size="11.00">type_id</text>
<polygon fill="none" stroke="black" points="863.5,-614.7 863.5,-632.7 1023.5,-632.7 1023.5,-614.7 863.5,-614.7"/>
<text text-anchor="start" x="866.5" y="-620.9" font-family="Helvetica,sans-Serif" font-size="11.00">...</text>
<polygon fill="#ffffff" stroke="none" points="863.5,-596.7 863.5,-614.7 927.5,-614.7 927.5,-596.7 863.5,-596.7"/>
<polygon fill="none" stroke="black" points="863.5,-596.7 863.5,-614.7 927.5,-614.7 927.5,-596.7 863.5,-596.7"/>
<text text-anchor="start" x="866.5" y="-602.9" font-family="Helvetica,sans-Serif" font-size="11.00">&lt; 6</text>
<polygon fill="#ffffff" stroke="none" points="927.5,-596.7 927.5,-614.7 989.5,-614.7 989.5,-596.7 927.5,-596.7"/>
<polygon fill="none" stroke="black" points="927.5,-596.7 927.5,-614.7 989.5,-614.7 989.5,-596.7 927.5,-596.7"/>
<text text-anchor="start" x="950.5" y="-602.9" font-family="Helvetica,sans-Serif" font-size="11.00">0 rows</text>
<polygon fill="#ffffff" stroke="none" points="989.5,-596.7 989.5,-614.7 1023.5,-614.7 1023.5,-596.7 989.5,-596.7"/>
<polygon fill="none" stroke="black" points="989.5,-596.7 989.5,-614.7 1023.5,-614.7 1023.5,-596.7 989.5,-596.7"/>
<text text-anchor="start" x="1013.5" y="-602.9" font-family="Helvetica,sans-Serif" font-size="11.00"> &#160;</text>
</a>
</g>
</g>
<!-- observation_photos&#45;&gt;monitoring_plots -->
<g id="edge2" class="edge"><title>observation_photos:monitoring_plot_id:w&#45;&gt;monitoring_plots:id:e</title>
<path fill="none" stroke="black" d="M847.738,-688.288C831.8,-689.662 823.298,-693.089 802,-694.7 653.44,-705.938 615.961,-704.033 467,-706.7 363.017,-708.562 310.227,-776.357 233,-706.7 168.799,-648.793 279.458,-319.7 193,-319.7"/>
<polygon fill="black" stroke="black" points="854.506,-688.019 862.643,-691.297 858.503,-687.86 862.5,-687.7 862.5,-687.7 862.5,-687.7 858.503,-687.86 862.357,-684.103 854.506,-688.019 854.506,-688.019"/>
<ellipse fill="none" stroke="black" cx="851.309" cy="-688.146" rx="3.2" ry="3.2"/>
</g>
<!-- observation_plots -->
<g id="node4" class="node"><title>observation_plots</title>
<g id="a_node4"><a xlink:href="../../tables/observation_plots.html" xlink:title="observation_plots" target="_top">
<polygon fill="#ffffff" stroke="none" points="508,-216.7 508,-590.7 794,-590.7 794,-216.7 508,-216.7"/>
<polygon fill="#f5f5f5" stroke="none" points="510,-566.7 510,-588.7 792,-588.7 792,-566.7 510,-566.7"/>
<polygon fill="none" stroke="black" points="510,-566.7 510,-588.7 792,-588.7 792,-566.7 510,-566.7"/>
<text text-anchor="start" x="515" y="-575.9" font-family="Helvetica,sans-Serif" font-weight="bold" font-size="11.00">observation_plots</text>
<text text-anchor="start" x="753" y="-574.9" font-family="Helvetica,sans-Serif" font-size="11.00">[table]</text>
<polygon fill="none" stroke="black" points="510,-544.7 510,-566.7 690,-566.7 690,-544.7 510,-544.7"/>
<image xlink:href="../../images/primaryKeys.png" width="11px" height="12px" preserveAspectRatio="xMinYMin meet" x="515" y="-561.7"/>
<text text-anchor="start" x="530" y="-552.9" font-family="Helvetica,sans-Serif" font-size="11.00">observation_id</text>
<polygon fill="none" stroke="black" points="690,-544.7 690,-566.7 792,-566.7 792,-544.7 690,-544.7"/>
<text text-anchor="start" x="693" y="-552.9" font-family="Helvetica,sans-Serif" font-size="11.00">int8[19]</text>
<polygon fill="none" stroke="black" points="510,-522.7 510,-544.7 690,-544.7 690,-522.7 510,-522.7"/>
<image xlink:href="../../images/primaryKeys.png" width="11px" height="12px" preserveAspectRatio="xMinYMin meet" x="515" y="-539.7"/>
<text text-anchor="start" x="530" y="-530.9" font-family="Helvetica,sans-Serif" font-size="11.00">monitoring_plot_id</text>
<polygon fill="none" stroke="black" points="690,-522.7 690,-544.7 792,-544.7 792,-522.7 690,-522.7"/>
<text text-anchor="start" x="693" y="-530.9" font-family="Helvetica,sans-Serif" font-size="11.00">int8[19]</text>
<polygon fill="none" stroke="black" points="510,-500.7 510,-522.7 690,-522.7 690,-500.7 510,-500.7"/>
<text text-anchor="start" x="530" y="-508.9" font-family="Helvetica,sans-Serif" font-size="11.00">claimed_by</text>
<polygon fill="none" stroke="black" points="690,-500.7 690,-522.7 792,-522.7 792,-500.7 690,-500.7"/>
<text text-anchor="start" x="693" y="-508.9" font-family="Helvetica,sans-Serif" font-size="11.00">int8[19]</text>
<polygon fill="none" stroke="black" points="510,-478.7 510,-500.7 690,-500.7 690,-478.7 510,-478.7"/>
<text text-anchor="start" x="530" y="-486.9" font-family="Helvetica,sans-Serif" font-size="11.00">claimed_time</text>
<polygon fill="none" stroke="black" points="690,-478.7 690,-500.7 792,-500.7 792,-478.7 690,-478.7"/>
<text text-anchor="start" x="693" y="-486.9" font-family="Helvetica,sans-Serif" font-size="11.00">timestamptz[35,6]</text>
<polygon fill="none" stroke="black" points="510,-456.7 510,-478.7 690,-478.7 690,-456.7 510,-456.7"/>
<text text-anchor="start" x="530" y="-464.9" font-family="Helvetica,sans-Serif" font-size="11.00">completed_by</text>
<polygon fill="none" stroke="black" points="690,-456.7 690,-478.7 792,-478.7 792,-456.7 690,-456.7"/>
<text text-anchor="start" x="693" y="-464.9" font-family="Helvetica,sans-Serif" font-size="11.00">int8[19]</text>
<polygon fill="none" stroke="black" points="510,-434.7 510,-456.7 690,-456.7 690,-434.7 510,-434.7"/>
<text text-anchor="start" x="530" y="-442.9" font-family="Helvetica,sans-Serif" font-size="11.00">completed_time</text>
<polygon fill="none" stroke="black" points="690,-434.7 690,-456.7 792,-456.7 792,-434.7 690,-434.7"/>
<text text-anchor="start" x="693" y="-442.9" font-family="Helvetica,sans-Serif" font-size="11.00">timestamptz[35,6]</text>
<polygon fill="none" stroke="black" points="510,-412.7 510,-434.7 690,-434.7 690,-412.7 510,-412.7"/>
<text text-anchor="start" x="530" y="-420.9" font-family="Helvetica,sans-Serif" font-size="11.00">created_by</text>
<polygon fill="none" stroke="black" points="690,-412.7 690,-434.7 792,-434.7 792,-412.7 690,-412.7"/>
<text text-anchor="start" x="693" y="-420.9" font-family="Helvetica,sans-Serif" font-size="11.00">int8[19]</text>
<polygon fill="none" stroke="black" points="510,-390.7 510,-412.7 690,-412.7 690,-390.7 510,-390.7"/>
<text text-anchor="start" x="530" y="-398.9" font-family="Helvetica,sans-Serif" font-size="11.00">created_time</text>
<polygon fill="none" stroke="black" points="690,-390.7 690,-412.7 792,-412.7 792,-390.7 690,-390.7"/>
<text text-anchor="start" x="693" y="-398.9" font-family="Helvetica,sans-Serif" font-size="11.00">timestamptz[35,6]</text>
<polygon fill="none" stroke="black" points="510,-368.7 510,-390.7 690,-390.7 690,-368.7 510,-368.7"/>
<text text-anchor="start" x="530" y="-376.9" font-family="Helvetica,sans-Serif" font-size="11.00">is_permanent</text>
<polygon fill="none" stroke="black" points="690,-368.7 690,-390.7 792,-390.7 792,-368.7 690,-368.7"/>
<text text-anchor="start" x="693" y="-376.9" font-family="Helvetica,sans-Serif" font-size="11.00">bool[1]</text>
<polygon fill="none" stroke="black" points="510,-346.7 510,-368.7 690,-368.7 690,-346.7 510,-346.7"/>
<text text-anchor="start" x="530" y="-354.9" font-family="Helvetica,sans-Serif" font-size="11.00">modified_by</text>
<polygon fill="none" stroke="black" points="690,-346.7 690,-368.7 792,-368.7 792,-346.7 690,-346.7"/>
<text text-anchor="start" x="693" y="-354.9" font-family="Helvetica,sans-Serif" font-size="11.00">int8[19]</text>
<polygon fill="none" stroke="black" points="510,-324.7 510,-346.7 690,-346.7 690,-324.7 510,-324.7"/>
<text text-anchor="start" x="530" y="-332.9" font-family="Helvetica,sans-Serif" font-size="11.00">modified_time</text>
<polygon fill="none" stroke="black" points="690,-324.7 690,-346.7 792,-346.7 792,-324.7 690,-324.7"/>
<text text-anchor="start" x="693" y="-332.9" font-family="Helvetica,sans-Serif" font-size="11.00">timestamptz[35,6]</text>
<polygon fill="none" stroke="black" points="510,-302.7 510,-324.7 690,-324.7 690,-302.7 510,-302.7"/>
<text text-anchor="start" x="530" y="-310.9" font-family="Helvetica,sans-Serif" font-size="11.00">observed_time</text>
<polygon fill="none" stroke="black" points="690,-302.7 690,-324.7 792,-324.7 792,-302.7 690,-302.7"/>
<text text-anchor="start" x="693" y="-310.9" font-family="Helvetica,sans-Serif" font-size="11.00">timestamptz[35,6]</text>
<polygon fill="none" stroke="black" points="510,-280.7 510,-302.7 690,-302.7 690,-280.7 510,-280.7"/>
<text text-anchor="start" x="530" y="-288.9" font-family="Helvetica,sans-Serif" font-size="11.00">notes</text>
<polygon fill="none" stroke="black" points="690,-280.7 690,-302.7 792,-302.7 792,-280.7 690,-280.7"/>
<text text-anchor="start" x="693" y="-288.9" font-family="Helvetica,sans-Serif" font-size="11.00">text[2147483647]</text>
<polygon fill="none" stroke="black" points="510,-258.7 510,-280.7 690,-280.7 690,-258.7 510,-258.7"/>
<image xlink:href="../../images/foreignKeys.png" width="11px" height="12px" preserveAspectRatio="xMinYMin meet" x="515" y="-275.7"/>
<text text-anchor="start" x="530" y="-266.9" font-family="Helvetica,sans-Serif" font-size="11.00">status_id</text>
<polygon fill="none" stroke="black" points="690,-258.7 690,-280.7 792,-280.7 792,-258.7 690,-258.7"/>
<text text-anchor="start" x="693" y="-266.9" font-family="Helvetica,sans-Serif" font-size="11.00">int4[10]</text>
<polygon fill="#ffffff" stroke="none" points="510,-236.7 510,-258.7 690,-258.7 690,-236.7 510,-236.7"/>
<polygon fill="none" stroke="black" points="510,-236.7 510,-258.7 690,-258.7 690,-236.7 510,-236.7"/>
<image xlink:href="../../images/foreignKeys.png" width="11px" height="12px" preserveAspectRatio="xMinYMin meet" x="515" y="-253.7"/>
<text text-anchor="start" x="530" y="-244.9" font-family="Helvetica,sans-Serif" font-size="11.00">monitoring_plot_history_id</text>
<polygon fill="none" stroke="black" points="690,-236.7 690,-258.7 792,-258.7 792,-236.7 690,-236.7"/>
<text text-anchor="start" x="693" y="-244.9" font-family="Helvetica,sans-Serif" font-size="11.00">int8[19]</text>
<polygon fill="#ffffff" stroke="none" points="510,-218.7 510,-236.7 590,-236.7 590,-218.7 510,-218.7"/>
<polygon fill="none" stroke="black" points="510,-218.7 510,-236.7 590,-236.7 590,-218.7 510,-218.7"/>
<text text-anchor="start" x="513" y="-224.9" font-family="Helvetica,sans-Serif" font-size="11.00">&lt; 4</text>
<polygon fill="#ffffff" stroke="none" points="590,-218.7 590,-236.7 690,-236.7 690,-218.7 590,-218.7"/>
<polygon fill="none" stroke="black" points="590,-218.7 590,-236.7 690,-236.7 690,-218.7 590,-218.7"/>
<text text-anchor="start" x="651" y="-224.9" font-family="Helvetica,sans-Serif" font-size="11.00">0 rows</text>
<polygon fill="#ffffff" stroke="none" points="690,-218.7 690,-236.7 792,-236.7 792,-218.7 690,-218.7"/>
<polygon fill="none" stroke="black" points="690,-218.7 690,-236.7 792,-236.7 792,-218.7 690,-218.7"/>
<text text-anchor="start" x="772" y="-224.9" font-family="Helvetica,sans-Serif" font-size="11.00">6 &gt;</text>
<polygon fill="none" stroke="black" stroke-width="2" points="509,-217.7 509,-589.7 793,-589.7 793,-217.7 509,-217.7"/>
</a>
</g>
</g>
<!-- observation_photos&#45;&gt;observation_plots -->
<g id="edge3" class="edge"><title>observation_photos:monitoring_plot_id:w&#45;&gt;observation_plots:monitoring_plot_id.type:e</title>
<path fill="none" stroke="black" d="M848.227,-685.281C798.527,-665.689 862.519,-533.7 793,-533.7"/>
<polygon fill="black" stroke="black" points="854.612,-686.364 861.898,-691.25 858.556,-687.032 862.5,-687.7 862.5,-687.7 862.5,-687.7 858.556,-687.032 863.102,-684.151 854.612,-686.364 854.612,-686.364"/>
<ellipse fill="none" stroke="black" cx="851.457" cy="-685.829" rx="3.2" ry="3.2"/>
</g>
<!-- observation_photos&#45;&gt;observation_plots -->
<g id="edge4" class="edge"><title>observation_photos:observation_id:w&#45;&gt;observation_plots:observation_id.type:e</title>
<path fill="none" stroke="black" d="M848.227,-707.281C798.527,-687.689 862.519,-555.7 793,-555.7"/>
<polygon fill="black" stroke="black" points="854.612,-708.364 861.898,-713.25 858.556,-709.032 862.5,-709.7 862.5,-709.7 862.5,-709.7 858.556,-709.032 863.102,-706.151 854.612,-708.364 854.612,-708.364"/>
<ellipse fill="none" stroke="black" cx="851.457" cy="-707.829" rx="3.2" ry="3.2"/>
</g>
<!-- observations -->
<g id="node5" class="node"><title>observations</title>
<g id="a_node5"><a xlink:href="../../tables/observations.html" xlink:title="observations" target="_top">
<polygon fill="#ffffff" stroke="none" points="241,-527.7 241,-695.7 459,-695.7 459,-527.7 241,-527.7"/>
<polygon fill="#f5f5f5" stroke="none" points="241,-673.7 241,-695.7 459,-695.7 459,-673.7 241,-673.7"/>
<polygon fill="none" stroke="black" points="241,-673.7 241,-695.7 459,-695.7 459,-673.7 241,-673.7"/>
<text text-anchor="start" x="246" y="-682.9" font-family="Helvetica,sans-Serif" font-weight="bold" font-size="11.00">observations</text>
<text text-anchor="start" x="420" y="-681.9" font-family="Helvetica,sans-Serif" font-size="11.00">[table]</text>
<polygon fill="none" stroke="black" points="241,-651.7 241,-673.7 459,-673.7 459,-651.7 241,-651.7"/>
<image xlink:href="../../images/primaryKeys.png" width="11px" height="12px" preserveAspectRatio="xMinYMin meet" x="246" y="-668.7"/>
<text text-anchor="start" x="261" y="-659.9" font-family="Helvetica,sans-Serif" font-size="11.00">id</text>
<polygon fill="#ffffff" stroke="none" points="241,-629.7 241,-651.7 459,-651.7 459,-629.7 241,-629.7"/>
<polygon fill="none" stroke="black" points="241,-629.7 241,-651.7 459,-651.7 459,-629.7 241,-629.7"/>
<image xlink:href="../../images/foreignKeys.png" width="11px" height="12px" preserveAspectRatio="xMinYMin meet" x="246" y="-646.7"/>
<text text-anchor="start" x="261" y="-637.9" font-family="Helvetica,sans-Serif" font-size="11.00">planting_site_id</text>
<polygon fill="none" stroke="black" points="241,-607.7 241,-629.7 459,-629.7 459,-607.7 241,-607.7"/>
<image xlink:href="../../images/foreignKeys.png" width="11px" height="12px" preserveAspectRatio="xMinYMin meet" x="246" y="-624.7"/>
<text text-anchor="start" x="261" y="-615.9" font-family="Helvetica,sans-Serif" font-size="11.00">state_id</text>
<polygon fill="#ffffff" stroke="none" points="241,-585.7 241,-607.7 459,-607.7 459,-585.7 241,-585.7"/>
<polygon fill="none" stroke="black" points="241,-585.7 241,-607.7 459,-607.7 459,-585.7 241,-585.7"/>
<image xlink:href="../../images/foreignKeys.png" width="11px" height="12px" preserveAspectRatio="xMinYMin meet" x="246" y="-602.7"/>
<text text-anchor="start" x="261" y="-593.9" font-family="Helvetica,sans-Serif" font-size="11.00">planting_site_history_id</text>
<polygon fill="none" stroke="black" points="241,-563.7 241,-585.7 459,-585.7 459,-563.7 241,-563.7"/>
<image xlink:href="../../images/foreignKeys.png" width="11px" height="12px" preserveAspectRatio="xMinYMin meet" x="246" y="-580.7"/>
<text text-anchor="start" x="261" y="-571.9" font-family="Helvetica,sans-Serif" font-size="11.00">observation_type_id</text>
<polygon fill="none" stroke="black" points="241,-545.7 241,-563.7 459,-563.7 459,-545.7 241,-545.7"/>
<text text-anchor="start" x="244" y="-551.9" font-family="Helvetica,sans-Serif" font-size="11.00">...</text>
<polygon fill="#ffffff" stroke="none" points="241,-527.7 241,-545.7 325,-545.7 325,-527.7 241,-527.7"/>
<polygon fill="none" stroke="black" points="241,-527.7 241,-545.7 325,-545.7 325,-527.7 241,-527.7"/>
<text text-anchor="start" x="244" y="-533.9" font-family="Helvetica,sans-Serif" font-size="11.00">&lt; 4</text>
<polygon fill="#ffffff" stroke="none" points="325,-527.7 325,-545.7 398,-545.7 398,-527.7 325,-527.7"/>
<polygon fill="none" stroke="black" points="325,-527.7 325,-545.7 398,-545.7 398,-527.7 325,-527.7"/>
<text text-anchor="start" x="359" y="-533.9" font-family="Helvetica,sans-Serif" font-size="11.00">0 rows</text>
<polygon fill="#ffffff" stroke="none" points="398,-527.7 398,-545.7 459,-545.7 459,-527.7 398,-527.7"/>
<polygon fill="none" stroke="black" points="398,-527.7 398,-545.7 459,-545.7 459,-527.7 398,-527.7"/>
<text text-anchor="start" x="432" y="-533.9" font-family="Helvetica,sans-Serif" font-size="11.00">10 &gt;</text>
</a>
</g>
</g>
<!-- observation_photos&#45;&gt;observations -->
<g id="edge5" class="edge"><title>observation_photos:observation_id:w&#45;&gt;observations:id:e</title>
<path fill="none" stroke="black" d="M848.029,-709.597C679.98,-707.165 635.18,-662.7 460,-662.7"/>
<polygon fill="black" stroke="black" points="854.5,-709.643 862.474,-713.3 858.5,-709.672 862.5,-709.7 862.5,-709.7 862.5,-709.7 858.5,-709.672 862.526,-706.1 854.5,-709.643 854.5,-709.643"/>
<ellipse fill="none" stroke="black" cx="851.3" cy="-709.62" rx="3.2" ry="3.2"/>
</g>
<!-- observation_plots&#45;&gt;monitoring_plot_histories -->
<g id="edge6" class="edge"><title>observation_plots:monitoring_plot_history_id:w&#45;&gt;monitoring_plot_histories:id:e</title>
<path fill="none" stroke="black" d="M494.849,-251.27C467.031,-268.441 491.967,-341.7 448,-341.7"/>
<polygon fill="black" stroke="black" points="501.243,-249.657 509.881,-251.191 505.122,-248.679 509,-247.7 509,-247.7 509,-247.7 505.122,-248.679 508.119,-244.21 501.243,-249.657 501.243,-249.657"/>
<ellipse fill="none" stroke="black" cx="498.14" cy="-250.44" rx="3.2" ry="3.2"/>
</g>
<!-- observation_plots&#45;&gt;monitoring_plots -->
<g id="edge7" class="edge"><title>observation_plots:monitoring_plot_id:w&#45;&gt;monitoring_plots:id:e</title>
<path fill="none" stroke="black" d="M494.609,-531.067C485.87,-527.443 480.493,-520.994 467,-517.7 416.148,-505.287 272.078,-525.527 233,-490.7 174.731,-438.77 271.052,-319.7 193,-319.7"/>
<polygon fill="black" stroke="black" points="501.131,-532.26 508.352,-537.242 505.065,-532.98 509,-533.7 509,-533.7 509,-533.7 505.065,-532.98 509.648,-530.159 501.131,-532.26 501.131,-532.26"/>
<ellipse fill="none" stroke="black" cx="497.983" cy="-531.684" rx="3.2" ry="3.2"/>
</g>
<!-- observation_plots&#45;&gt;observations -->
<g id="edge8" class="edge"><title>observation_plots:observation_id:w&#45;&gt;observations:id:e</title>
<path fill="none" stroke="black" d="M495.065,-559.509C467.909,-578.569 506.38,-662.7 460,-662.7"/>
<polygon fill="black" stroke="black" points="501.283,-557.809 509.949,-559.173 505.141,-556.755 509,-555.7 509,-555.7 509,-555.7 505.141,-556.755 508.051,-552.228 501.283,-557.809 501.283,-557.809"/>
<ellipse fill="none" stroke="black" cx="498.196" cy="-558.653" rx="3.20001" ry="3.20001"/>
</g>
<!-- observation_plot_statuses -->
<g id="node6" class="node"><title>observation_plot_statuses</title>
<g id="a_node6"><a xlink:href="../../tables/observation_plot_statuses.html" xlink:title="observation_plot_statuses" target="_top">
<polygon fill="#ffffff" stroke="none" points="252,-395.7 252,-479.7 448,-479.7 448,-395.7 252,-395.7"/>
<polygon fill="#f5f5f5" stroke="none" points="252,-457.7 252,-479.7 448,-479.7 448,-457.7 252,-457.7"/>
<polygon fill="none" stroke="black" points="252,-457.7 252,-479.7 448,-479.7 448,-457.7 252,-457.7"/>
<text text-anchor="start" x="257" y="-466.9" font-family="Helvetica,sans-Serif" font-weight="bold" font-size="11.00">observation_plot_statuses</text>
<text text-anchor="start" x="409" y="-465.9" font-family="Helvetica,sans-Serif" font-size="11.00">[table]</text>
<polygon fill="none" stroke="black" points="252,-435.7 252,-457.7 448,-457.7 448,-435.7 252,-435.7"/>
<image xlink:href="../../images/primaryKeys.png" width="11px" height="12px" preserveAspectRatio="xMinYMin meet" x="257" y="-452.7"/>
<text text-anchor="start" x="282" y="-443.9" font-family="Helvetica,sans-Serif" font-size="11.00">id</text>
<polygon fill="#ffffff" stroke="none" points="252,-413.7 252,-435.7 448,-435.7 448,-413.7 252,-413.7"/>
<polygon fill="none" stroke="black" points="252,-413.7 252,-435.7 448,-435.7 448,-413.7 252,-413.7"/>
<text text-anchor="start" x="282" y="-421.9" font-family="Helvetica,sans-Serif" font-size="11.00">name</text>
<polygon fill="#ffffff" stroke="none" points="252,-395.7 252,-413.7 324,-413.7 324,-395.7 252,-395.7"/>
<polygon fill="none" stroke="black" points="252,-395.7 252,-413.7 324,-413.7 324,-395.7 252,-395.7"/>
<text text-anchor="start" x="255" y="-401.9" font-family="Helvetica,sans-Serif" font-size="11.00"> &#160;</text>
<polygon fill="#ffffff" stroke="none" points="324,-395.7 324,-413.7 395,-413.7 395,-395.7 324,-395.7"/>
<polygon fill="none" stroke="black" points="324,-395.7 324,-413.7 395,-413.7 395,-395.7 324,-395.7"/>
<text text-anchor="start" x="356" y="-401.9" font-family="Helvetica,sans-Serif" font-size="11.00">4 rows</text>
<polygon fill="#ffffff" stroke="none" points="395,-395.7 395,-413.7 448,-413.7 448,-395.7 395,-395.7"/>
<polygon fill="none" stroke="black" points="395,-395.7 395,-413.7 448,-413.7 448,-395.7 395,-395.7"/>
<text text-anchor="start" x="428" y="-401.9" font-family="Helvetica,sans-Serif" font-size="11.00">1 &gt;</text>
</a>
</g>
</g>
<!-- observation_plots&#45;&gt;observation_plot_statuses -->
<g id="edge9" class="edge"><title>observation_plots:status_id:w&#45;&gt;observation_plot_statuses:id:e</title>
<path fill="none" stroke="black" d="M494.497,-272.069C439.562,-293.072 526.385,-446.7 449,-446.7"/>
<polygon fill="black" stroke="black" points="501.105,-270.99 509.58,-273.253 505.052,-270.345 509,-269.7 509,-269.7 509,-269.7 505.052,-270.345 508.42,-266.147 501.105,-270.99 501.105,-270.99"/>
<ellipse fill="none" stroke="black" cx="497.946" cy="-271.505" rx="3.2" ry="3.2"/>
</g>
<!-- observed_plot_coordinates -->
<g id="node7" class="node"><title>observed_plot_coordinates</title>
<g id="a_node7"><a xlink:href="../../tables/observed_plot_coordinates.html" xlink:title="observed_plot_coordinates" target="_top">
<polygon fill="#ffffff" stroke="none" points="843,-429.7 843,-575.7 1044,-575.7 1044,-429.7 843,-429.7"/>
<polygon fill="#f5f5f5" stroke="none" points="843.5,-553.7 843.5,-575.7 1044.5,-575.7 1044.5,-553.7 843.5,-553.7"/>
<polygon fill="none" stroke="black" points="843.5,-553.7 843.5,-575.7 1044.5,-575.7 1044.5,-553.7 843.5,-553.7"/>
<text text-anchor="start" x="848.5" y="-562.9" font-family="Helvetica,sans-Serif" font-weight="bold" font-size="11.00">observed_plot_coordinates</text>
<text text-anchor="start" x="1005.5" y="-561.9" font-family="Helvetica,sans-Serif" font-size="11.00">[table]</text>
<polygon fill="none" stroke="black" points="843.5,-531.7 843.5,-553.7 1044.5,-553.7 1044.5,-531.7 843.5,-531.7"/>
<image xlink:href="../../images/primaryKeys.png" width="11px" height="12px" preserveAspectRatio="xMinYMin meet" x="848.5" y="-548.7"/>
<text text-anchor="start" x="874.5" y="-539.9" font-family="Helvetica,sans-Serif" font-size="11.00">id</text>
<polygon fill="#ffffff" stroke="none" points="843.5,-509.7 843.5,-531.7 1044.5,-531.7 1044.5,-509.7 843.5,-509.7"/>
<polygon fill="none" stroke="black" points="843.5,-509.7 843.5,-531.7 1044.5,-531.7 1044.5,-509.7 843.5,-509.7"/>
<image xlink:href="../../images/foreignKeys.png" width="11px" height="12px" preserveAspectRatio="xMinYMin meet" x="848.5" y="-526.7"/>
<text text-anchor="start" x="874.5" y="-517.9" font-family="Helvetica,sans-Serif" font-size="11.00">observation_id</text>
<polygon fill="#ffffff" stroke="none" points="843.5,-487.7 843.5,-509.7 1044.5,-509.7 1044.5,-487.7 843.5,-487.7"/>
<polygon fill="none" stroke="black" points="843.5,-487.7 843.5,-509.7 1044.5,-509.7 1044.5,-487.7 843.5,-487.7"/>
<image xlink:href="../../images/foreignKeys.png" width="11px" height="12px" preserveAspectRatio="xMinYMin meet" x="848.5" y="-504.7"/>
<text text-anchor="start" x="874.5" y="-495.9" font-family="Helvetica,sans-Serif" font-size="11.00">monitoring_plot_id</text>
<polygon fill="#ffffff" stroke="none" points="843.5,-465.7 843.5,-487.7 1044.5,-487.7 1044.5,-465.7 843.5,-465.7"/>
<polygon fill="none" stroke="black" points="843.5,-465.7 843.5,-487.7 1044.5,-487.7 1044.5,-465.7 843.5,-465.7"/>
<image xlink:href="../../images/foreignKeys.png" width="11px" height="12px" preserveAspectRatio="xMinYMin meet" x="848.5" y="-482.7"/>
<text text-anchor="start" x="874.5" y="-473.9" font-family="Helvetica,sans-Serif" font-size="11.00">position_id</text>
<polygon fill="none" stroke="black" points="843.5,-447.7 843.5,-465.7 1044.5,-465.7 1044.5,-447.7 843.5,-447.7"/>
<text text-anchor="start" x="846.5" y="-453.9" font-family="Helvetica,sans-Serif" font-size="11.00">...</text>
<polygon fill="#ffffff" stroke="none" points="843.5,-429.7 843.5,-447.7 927.5,-447.7 927.5,-429.7 843.5,-429.7"/>
<polygon fill="none" stroke="black" points="843.5,-429.7 843.5,-447.7 927.5,-447.7 927.5,-429.7 843.5,-429.7"/>
<text text-anchor="start" x="846.5" y="-435.9" font-family="Helvetica,sans-Serif" font-size="11.00">&lt; 5</text>
<polygon fill="#ffffff" stroke="none" points="927.5,-429.7 927.5,-447.7 1000.5,-447.7 1000.5,-429.7 927.5,-429.7"/>
<polygon fill="none" stroke="black" points="927.5,-429.7 927.5,-447.7 1000.5,-447.7 1000.5,-429.7 927.5,-429.7"/>
<text text-anchor="start" x="961.5" y="-435.9" font-family="Helvetica,sans-Serif" font-size="11.00">0 rows</text>
<polygon fill="#ffffff" stroke="none" points="1000.5,-429.7 1000.5,-447.7 1044.5,-447.7 1044.5,-429.7 1000.5,-429.7"/>
<polygon fill="none" stroke="black" points="1000.5,-429.7 1000.5,-447.7 1044.5,-447.7 1044.5,-429.7 1000.5,-429.7"/>
<text text-anchor="start" x="1034.5" y="-435.9" font-family="Helvetica,sans-Serif" font-size="11.00"> &#160;</text>
</a>
</g>
</g>
<!-- observed_plot_coordinates&#45;&gt;monitoring_plots -->
<g id="edge10" class="edge"><title>observed_plot_coordinates:monitoring_plot_id:w&#45;&gt;monitoring_plots:id:e</title>
<path fill="none" stroke="black" d="M828.729,-493.775C788.063,-458.918 843.963,-249.597 802,-206.7 713.182,-115.906 332.724,-74.0413 233,-152.7 173.076,-199.966 269.322,-319.7 193,-319.7"/>
<polygon fill="black" stroke="black" points="834.967,-496.006 841.288,-502.09 838.734,-497.353 842.5,-498.7 842.5,-498.7 842.5,-498.7 838.734,-497.353 843.712,-495.311 834.967,-496.006 834.967,-496.006"/>
<ellipse fill="none" stroke="black" cx="831.954" cy="-494.929" rx="3.20001" ry="3.20001"/>
</g>
<!-- observed_plot_coordinates&#45;&gt;observation_plots -->
<g id="edge11" class="edge"><title>observed_plot_coordinates:monitoring_plot_id:w&#45;&gt;observation_plots:monitoring_plot_id.type:e</title>
<path fill="none" stroke="black" d="M828.66,-502.992C815.976,-512.338 814.05,-533.7 793,-533.7"/>
<polygon fill="black" stroke="black" points="834.859,-501.07 843.566,-502.139 838.679,-499.885 842.5,-498.7 842.5,-498.7 842.5,-498.7 838.679,-499.885 841.434,-495.262 834.859,-501.07 834.859,-501.07"/>
<ellipse fill="none" stroke="black" cx="831.803" cy="-502.018" rx="3.20001" ry="3.20001"/>
</g>
<!-- observed_plot_coordinates&#45;&gt;observation_plots -->
<g id="edge12" class="edge"><title>observed_plot_coordinates:observation_id:w&#45;&gt;observation_plots:observation_id.type:e</title>
<path fill="none" stroke="black" d="M828.66,-524.992C815.976,-534.338 814.05,-555.7 793,-555.7"/>
<polygon fill="black" stroke="black" points="834.859,-523.07 843.566,-524.139 838.679,-521.885 842.5,-520.7 842.5,-520.7 842.5,-520.7 838.679,-521.885 841.434,-517.262 834.859,-523.07 834.859,-523.07"/>
<ellipse fill="none" stroke="black" cx="831.803" cy="-524.018" rx="3.20001" ry="3.20001"/>
</g>
<!-- observed_plot_coordinates&#45;&gt;observations -->
<g id="edge13" class="edge"><title>observed_plot_coordinates:observation_id:w&#45;&gt;observations:id:e</title>
<path fill="none" stroke="black" d="M828.403,-524.526C810.679,-537.682 829.202,-581.37 802,-601.7 771.082,-624.808 498.6,-662.7 460,-662.7"/>
<polygon fill="black" stroke="black" points="834.779,-522.796 843.443,-524.175 838.64,-521.748 842.5,-520.7 842.5,-520.7 842.5,-520.7 838.64,-521.748 841.557,-517.226 834.779,-522.796 834.779,-522.796"/>
<ellipse fill="none" stroke="black" cx="831.691" cy="-523.634" rx="3.2" ry="3.2"/>
</g>
<!-- recorded_plants -->
<g id="node8" class="node"><title>recorded_plants</title>
<g id="a_node8"><a xlink:href="../../tables/recorded_plants.html" xlink:title="recorded_plants" target="_top">
<polygon fill="#ffffff" stroke="none" points="873,-127.7 873,-317.7 1014,-317.7 1014,-127.7 873,-127.7"/>
<polygon fill="#f5f5f5" stroke="none" points="873.5,-295.7 873.5,-317.7 1014.5,-317.7 1014.5,-295.7 873.5,-295.7"/>
<polygon fill="none" stroke="black" points="873.5,-295.7 873.5,-317.7 1014.5,-317.7 1014.5,-295.7 873.5,-295.7"/>
<text text-anchor="start" x="878.5" y="-304.9" font-family="Helvetica,sans-Serif" font-weight="bold" font-size="11.00">recorded_plants</text>
<text text-anchor="start" x="975.5" y="-303.9" font-family="Helvetica,sans-Serif" font-size="11.00">[table]</text>
<polygon fill="none" stroke="black" points="873.5,-273.7 873.5,-295.7 1014.5,-295.7 1014.5,-273.7 873.5,-273.7"/>
<image xlink:href="../../images/primaryKeys.png" width="11px" height="12px" preserveAspectRatio="xMinYMin meet" x="878.5" y="-290.7"/>
<text text-anchor="start" x="897.5" y="-281.9" font-family="Helvetica,sans-Serif" font-size="11.00">id</text>
<polygon fill="#ffffff" stroke="none" points="873.5,-251.7 873.5,-273.7 1014.5,-273.7 1014.5,-251.7 873.5,-251.7"/>
<polygon fill="none" stroke="black" points="873.5,-251.7 873.5,-273.7 1014.5,-273.7 1014.5,-251.7 873.5,-251.7"/>
<image xlink:href="../../images/foreignKeys.png" width="11px" height="12px" preserveAspectRatio="xMinYMin meet" x="878.5" y="-268.7"/>
<text text-anchor="start" x="897.5" y="-259.9" font-family="Helvetica,sans-Serif" font-size="11.00">observation_id</text>
<polygon fill="#ffffff" stroke="none" points="873.5,-229.7 873.5,-251.7 1014.5,-251.7 1014.5,-229.7 873.5,-229.7"/>
<polygon fill="none" stroke="black" points="873.5,-229.7 873.5,-251.7 1014.5,-251.7 1014.5,-229.7 873.5,-229.7"/>
<image xlink:href="../../images/foreignKeys.png" width="11px" height="12px" preserveAspectRatio="xMinYMin meet" x="878.5" y="-246.7"/>
<text text-anchor="start" x="897.5" y="-237.9" font-family="Helvetica,sans-Serif" font-size="11.00">monitoring_plot_id</text>
<polygon fill="none" stroke="black" points="873.5,-207.7 873.5,-229.7 1014.5,-229.7 1014.5,-207.7 873.5,-207.7"/>
<image xlink:href="../../images/foreignKeys.png" width="11px" height="12px" preserveAspectRatio="xMinYMin meet" x="878.5" y="-224.7"/>
<text text-anchor="start" x="897.5" y="-215.9" font-family="Helvetica,sans-Serif" font-size="11.00">certainty_id</text>
<polygon fill="#ffffff" stroke="none" points="873.5,-185.7 873.5,-207.7 1014.5,-207.7 1014.5,-185.7 873.5,-185.7"/>
<polygon fill="none" stroke="black" points="873.5,-185.7 873.5,-207.7 1014.5,-207.7 1014.5,-185.7 873.5,-185.7"/>
<text text-anchor="start" x="897.5" y="-193.9" font-family="Helvetica,sans-Serif" font-size="11.00">species_id</text>
<polygon fill="none" stroke="black" points="873.5,-163.7 873.5,-185.7 1014.5,-185.7 1014.5,-163.7 873.5,-163.7"/>
<image xlink:href="../../images/foreignKeys.png" width="11px" height="12px" preserveAspectRatio="xMinYMin meet" x="878.5" y="-180.7"/>
<text text-anchor="start" x="897.5" y="-171.9" font-family="Helvetica,sans-Serif" font-size="11.00">status_id</text>
<polygon fill="none" stroke="black" points="873.5,-145.7 873.5,-163.7 1014.5,-163.7 1014.5,-145.7 873.5,-145.7"/>
<text text-anchor="start" x="876.5" y="-151.9" font-family="Helvetica,sans-Serif" font-size="11.00">...</text>
<polygon fill="#ffffff" stroke="none" points="873.5,-127.7 873.5,-145.7 927.5,-145.7 927.5,-127.7 873.5,-127.7"/>
<polygon fill="none" stroke="black" points="873.5,-127.7 873.5,-145.7 927.5,-145.7 927.5,-127.7 873.5,-127.7"/>
<text text-anchor="start" x="876.5" y="-133.9" font-family="Helvetica,sans-Serif" font-size="11.00">&lt; 6</text>
<polygon fill="#ffffff" stroke="none" points="927.5,-127.7 927.5,-145.7 985.5,-145.7 985.5,-127.7 927.5,-127.7"/>
<polygon fill="none" stroke="black" points="927.5,-127.7 927.5,-145.7 985.5,-145.7 985.5,-127.7 927.5,-127.7"/>
<text text-anchor="start" x="946.5" y="-133.9" font-family="Helvetica,sans-Serif" font-size="11.00">0 rows</text>
<polygon fill="#ffffff" stroke="none" points="985.5,-127.7 985.5,-145.7 1014.5,-145.7 1014.5,-127.7 985.5,-127.7"/>
<polygon fill="none" stroke="black" points="985.5,-127.7 985.5,-145.7 1014.5,-145.7 1014.5,-127.7 985.5,-127.7"/>
<text text-anchor="start" x="1004.5" y="-133.9" font-family="Helvetica,sans-Serif" font-size="11.00"> &#160;</text>
</a>
</g>
</g>
<!-- recorded_plants&#45;&gt;monitoring_plots -->
<g id="edge14" class="edge"><title>recorded_plants:monitoring_plot_id:w&#45;&gt;monitoring_plots:id:e</title>
<path fill="none" stroke="black" d="M857.947,-238.307C826.507,-226.232 841.839,-171.743 802,-150.7 578.219,-32.5031 429.439,30.8614 233,-128.7 165.68,-183.383 279.73,-319.7 193,-319.7"/>
<polygon fill="black" stroke="black" points="864.606,-239.402 871.916,-244.253 868.553,-240.051 872.5,-240.7 872.5,-240.7 872.5,-240.7 868.553,-240.051 873.084,-237.148 864.606,-239.402 864.606,-239.402"/>
<ellipse fill="none" stroke="black" cx="861.448" cy="-238.883" rx="3.2" ry="3.2"/>
</g>
<!-- recorded_plants&#45;&gt;observation_plots -->
<g id="edge15" class="edge"><title>recorded_plants:monitoring_plot_id:w&#45;&gt;observation_plots:monitoring_plot_id.type:e</title>
<path fill="none" stroke="black" d="M858.821,-245.786C812.946,-284.693 855.195,-533.7 793,-533.7"/>
<polygon fill="black" stroke="black" points="865.001,-243.488 873.755,-244.075 868.751,-242.094 872.5,-240.7 872.5,-240.7 872.5,-240.7 868.751,-242.094 871.245,-237.326 865.001,-243.488 865.001,-243.488"/>
<ellipse fill="none" stroke="black" cx="862.002" cy="-244.603" rx="3.20001" ry="3.20001"/>
</g>
<!-- recorded_plants&#45;&gt;observation_plots -->
<g id="edge16" class="edge"><title>recorded_plants:observation_id:w&#45;&gt;observation_plots:observation_id.type:e</title>
<path fill="none" stroke="black" d="M858.821,-267.786C812.946,-306.693 855.195,-555.7 793,-555.7"/>
<polygon fill="black" stroke="black" points="865.001,-265.488 873.755,-266.075 868.751,-264.094 872.5,-262.7 872.5,-262.7 872.5,-262.7 868.751,-264.094 871.245,-259.326 865.001,-265.488 865.001,-265.488"/>
<ellipse fill="none" stroke="black" cx="862.002" cy="-266.603" rx="3.20001" ry="3.20001"/>
</g>
<!-- recorded_plants&#45;&gt;observations -->
<g id="edge17" class="edge"><title>recorded_plants:observation_id:w&#45;&gt;observations:id:e</title>
<path fill="none" stroke="black" d="M858.168,-260.362C833.646,-251.243 834.469,-218.027 802,-206.7 675.267,-162.492 598.969,-116.032 500,-206.7 424.994,-275.414 561.722,-662.7 460,-662.7"/>
<polygon fill="black" stroke="black" points="864.604,-261.412 871.92,-266.253 868.552,-262.056 872.5,-262.7 872.5,-262.7 872.5,-262.7 868.552,-262.056 873.08,-259.147 864.604,-261.412 864.604,-261.412"/>
<ellipse fill="none" stroke="black" cx="861.446" cy="-260.896" rx="3.2" ry="3.2"/>
</g>
</g>
</svg>
