<?xml version="1.0" encoding="UTF-8" standalone="no"?>
<!DOCTYPE svg PUBLIC "-//W3C//DTD SVG 1.1//EN"
 "http://www.w3.org/Graphics/SVG/1.1/DTD/svg11.dtd">
<!-- Generated by graphviz version 2.38.0 (20140413.2041)
 -->
<!-- Title: oneDegreeRelationshipsDiagram Pages: 1 -->
<svg width="1239pt" height="899pt"
 viewBox="0.00 0.00 1239.00 899.00" xmlns="http://www.w3.org/2000/svg" xmlns:xlink="http://www.w3.org/1999/xlink">
<g id="graph0" class="graph" transform="scale(1 1) rotate(0) translate(4 895)">
<title>oneDegreeRelationshipsDiagram</title>
<polygon fill="#ffffff" stroke="none" points="-4,4 -4,-895 1235,-895 1235,4 -4,4"/>
<text text-anchor="middle" x="74.5" y="-7.2" font-family="Helvetica,sans-Serif" font-size="11.00">Generated by SchemaSpy</text>
<!-- observation_photos -->
<g id="node1" class="node"><title>observation_photos</title>
<g id="a_node1"><a xlink:href="../../tables/observation_photos.html" xlink:title="observation_photos" target="_top">
<polygon fill="#ffffff" stroke="none" points="1063,-45 1063,-191 1223,-191 1223,-45 1063,-45"/>
<polygon fill="#f5f5f5" stroke="none" points="1063,-169 1063,-191 1223,-191 1223,-169 1063,-169"/>
<polygon fill="none" stroke="black" points="1063,-169 1063,-191 1223,-191 1223,-169 1063,-169"/>
<text text-anchor="start" x="1068" y="-178.2" font-family="Helvetica,sans-Serif" font-weight="bold" font-size="11.00">observation_photos</text>
<text text-anchor="start" x="1184" y="-177.2" font-family="Helvetica,sans-Serif" font-size="11.00">[table]</text>
<polygon fill="none" stroke="black" points="1063,-147 1063,-169 1223,-169 1223,-147 1063,-147"/>
<image xlink:href="../../images/primaryKeys.png" width="11px" height="12px" preserveAspectRatio="xMinYMin meet" x="1068" y="-164"/>
<text text-anchor="start" x="1094" y="-155.2" font-family="Helvetica,sans-Serif" font-size="11.00">file_id</text>
<polygon fill="none" stroke="black" points="1063,-125 1063,-147 1223,-147 1223,-125 1063,-125"/>
<image xlink:href="../../images/foreignKeys.png" width="11px" height="12px" preserveAspectRatio="xMinYMin meet" x="1068" y="-142"/>
<text text-anchor="start" x="1094" y="-133.2" font-family="Helvetica,sans-Serif" font-size="11.00">observation_id</text>
<polygon fill="#ffffff" stroke="none" points="1063,-103 1063,-125 1223,-125 1223,-103 1063,-103"/>
<polygon fill="none" stroke="black" points="1063,-103 1063,-125 1223,-125 1223,-103 1063,-103"/>
<image xlink:href="../../images/foreignKeys.png" width="11px" height="12px" preserveAspectRatio="xMinYMin meet" x="1068" y="-120"/>
<text text-anchor="start" x="1094" y="-111.2" font-family="Helvetica,sans-Serif" font-size="11.00">monitoring_plot_id</text>
<polygon fill="none" stroke="black" points="1063,-81 1063,-103 1223,-103 1223,-81 1063,-81"/>
<image xlink:href="../../images/foreignKeys.png" width="11px" height="12px" preserveAspectRatio="xMinYMin meet" x="1068" y="-98"/>
<text text-anchor="start" x="1094" y="-89.2" font-family="Helvetica,sans-Serif" font-size="11.00">position_id</text>
<polygon fill="none" stroke="black" points="1063,-63 1063,-81 1223,-81 1223,-63 1063,-63"/>
<text text-anchor="start" x="1066" y="-69.2" font-family="Helvetica,sans-Serif" font-size="11.00">...</text>
<polygon fill="#ffffff" stroke="none" points="1063,-45 1063,-63 1127,-63 1127,-45 1063,-45"/>
<polygon fill="none" stroke="black" points="1063,-45 1063,-63 1127,-63 1127,-45 1063,-45"/>
<text text-anchor="start" x="1066" y="-51.2" font-family="Helvetica,sans-Serif" font-size="11.00">&lt; 5</text>
<polygon fill="#ffffff" stroke="none" points="1127,-45 1127,-63 1189,-63 1189,-45 1127,-45"/>
<polygon fill="none" stroke="black" points="1127,-45 1127,-63 1189,-63 1189,-45 1127,-45"/>
<text text-anchor="start" x="1150" y="-51.2" font-family="Helvetica,sans-Serif" font-size="11.00">0 rows</text>
<polygon fill="#ffffff" stroke="none" points="1189,-45 1189,-63 1223,-63 1223,-45 1189,-45"/>
<polygon fill="none" stroke="black" points="1189,-45 1189,-63 1223,-63 1223,-45 1189,-45"/>
<text text-anchor="start" x="1213" y="-51.2" font-family="Helvetica,sans-Serif" font-size="11.00"> &#160;</text>
</a>
</g>
</g>
<!-- observation_plots -->
<g id="node2" class="node"><title>observation_plots</title>
<g id="a_node2"><a xlink:href="../../tables/observation_plots.html" xlink:title="observation_plots" target="_top">
<polygon fill="#ffffff" stroke="none" points="831.5,-191 831.5,-293 981.5,-293 981.5,-191 831.5,-191"/>
<polygon fill="#f5f5f5" stroke="none" points="831.5,-271 831.5,-293 981.5,-293 981.5,-271 831.5,-271"/>
<polygon fill="none" stroke="black" points="831.5,-271 831.5,-293 981.5,-293 981.5,-271 831.5,-271"/>
<text text-anchor="start" x="836.5" y="-280.2" font-family="Helvetica,sans-Serif" font-weight="bold" font-size="11.00">observation_plots</text>
<text text-anchor="start" x="942.5" y="-279.2" font-family="Helvetica,sans-Serif" font-size="11.00">[table]</text>
<polygon fill="none" stroke="black" points="831.5,-249 831.5,-271 981.5,-271 981.5,-249 831.5,-249"/>
<image xlink:href="../../images/primaryKeys.png" width="11px" height="12px" preserveAspectRatio="xMinYMin meet" x="836.5" y="-266"/>
<text text-anchor="start" x="860.5" y="-257.2" font-family="Helvetica,sans-Serif" font-size="11.00">observation_id</text>
<polygon fill="none" stroke="black" points="831.5,-227 831.5,-249 981.5,-249 981.5,-227 831.5,-227"/>
<image xlink:href="../../images/primaryKeys.png" width="11px" height="12px" preserveAspectRatio="xMinYMin meet" x="836.5" y="-244"/>
<text text-anchor="start" x="860.5" y="-235.2" font-family="Helvetica,sans-Serif" font-size="11.00">monitoring_plot_id</text>
<polygon fill="none" stroke="black" points="831.5,-209 831.5,-227 981.5,-227 981.5,-209 831.5,-209"/>
<text text-anchor="start" x="834.5" y="-215.2" font-family="Helvetica,sans-Serif" font-size="11.00">...</text>
<polygon fill="#ffffff" stroke="none" points="831.5,-191 831.5,-209 885.5,-209 885.5,-191 831.5,-191"/>
<polygon fill="none" stroke="black" points="831.5,-191 831.5,-209 885.5,-209 885.5,-191 831.5,-191"/>
<text text-anchor="start" x="834.5" y="-197.2" font-family="Helvetica,sans-Serif" font-size="11.00">&lt; 2</text>
<polygon fill="#ffffff" stroke="none" points="885.5,-191 885.5,-209 942.5,-209 942.5,-191 885.5,-191"/>
<polygon fill="none" stroke="black" points="885.5,-191 885.5,-209 942.5,-209 942.5,-191 885.5,-191"/>
<text text-anchor="start" x="903.5" y="-197.2" font-family="Helvetica,sans-Serif" font-size="11.00">0 rows</text>
<polygon fill="#ffffff" stroke="none" points="942.5,-191 942.5,-209 981.5,-209 981.5,-191 942.5,-191"/>
<polygon fill="none" stroke="black" points="942.5,-191 942.5,-209 981.5,-209 981.5,-191 942.5,-191"/>
<text text-anchor="start" x="961.5" y="-197.2" font-family="Helvetica,sans-Serif" font-size="11.00">4 &gt;</text>
</a>
</g>
</g>
<!-- observation_photos&#45;&gt;observation_plots -->
<g id="edge1" class="edge"><title>observation_photos:monitoring_plot_id:w&#45;&gt;observation_plots:monitoring_plot_id:e</title>
<path fill="none" stroke="black" d="M1047.56,-116.59C1004.51,-134.397 1042.34,-238 982.5,-238"/>
<polygon fill="black" stroke="black" points="1054.13,-115.413 1062.64,-117.543 1058.06,-114.706 1062,-114 1062,-114 1062,-114 1058.06,-114.706 1061.36,-110.457 1054.13,-115.413 1054.13,-115.413"/>
<ellipse fill="none" stroke="black" cx="1050.98" cy="-115.978" rx="3.2" ry="3.2"/>
</g>
<!-- observation_photos&#45;&gt;observation_plots -->
<g id="edge2" class="edge"><title>observation_photos:observation_id:w&#45;&gt;observation_plots:observation_id:e</title>
<path fill="none" stroke="black" d="M1047.56,-138.59C1004.51,-156.397 1042.34,-260 982.5,-260"/>
<polygon fill="black" stroke="black" points="1054.13,-137.413 1062.64,-139.543 1058.06,-136.706 1062,-136 1062,-136 1062,-136 1058.06,-136.706 1061.36,-132.457 1054.13,-137.413 1054.13,-137.413"/>
<ellipse fill="none" stroke="black" cx="1050.98" cy="-137.978" rx="3.2" ry="3.2"/>
</g>
<!-- observations -->
<g id="node3" class="node"><title>observations</title>
<g id="a_node3"><a xlink:href="../../tables/observations.html" xlink:title="observations" target="_top">
<polygon fill="#ffffff" stroke="none" points="426,-211 426,-431 750,-431 750,-211 426,-211"/>
<polygon fill="#f5f5f5" stroke="none" points="428,-407 428,-429 748,-429 748,-407 428,-407"/>
<polygon fill="none" stroke="black" points="428,-407 428,-429 748,-429 748,-407 428,-407"/>
<text text-anchor="start" x="433" y="-416.2" font-family="Helvetica,sans-Serif" font-weight="bold" font-size="11.00">observations</text>
<text text-anchor="start" x="709" y="-415.2" font-family="Helvetica,sans-Serif" font-size="11.00">[table]</text>
<polygon fill="none" stroke="black" points="428,-385 428,-407 646,-407 646,-385 428,-385"/>
<image xlink:href="../../images/primaryKeys.png" width="11px" height="12px" preserveAspectRatio="xMinYMin meet" x="433" y="-402"/>
<text text-anchor="start" x="448" y="-393.2" font-family="Helvetica,sans-Serif" font-size="11.00">id</text>
<polygon fill="none" stroke="black" points="646,-385 646,-407 748,-407 748,-385 646,-385"/>
<text text-anchor="start" x="649" y="-393.2" font-family="Helvetica,sans-Serif" font-size="11.00">int8[19]</text>
<polygon fill="#ffffff" stroke="none" points="428,-363 428,-385 646,-385 646,-363 428,-363"/>
<polygon fill="none" stroke="black" points="428,-363 428,-385 646,-385 646,-363 428,-363"/>
<image xlink:href="../../images/foreignKeys.png" width="11px" height="12px" preserveAspectRatio="xMinYMin meet" x="433" y="-380"/>
<text text-anchor="start" x="448" y="-371.2" font-family="Helvetica,sans-Serif" font-size="11.00">planting_site_id</text>
<polygon fill="none" stroke="black" points="646,-363 646,-385 748,-385 748,-363 646,-363"/>
<text text-anchor="start" x="649" y="-371.2" font-family="Helvetica,sans-Serif" font-size="11.00">int8[19]</text>
<polygon fill="none" stroke="black" points="428,-341 428,-363 646,-363 646,-341 428,-341"/>
<text text-anchor="start" x="448" y="-349.2" font-family="Helvetica,sans-Serif" font-size="11.00">created_time</text>
<polygon fill="none" stroke="black" points="646,-341 646,-363 748,-363 748,-341 646,-341"/>
<text text-anchor="start" x="649" y="-349.2" font-family="Helvetica,sans-Serif" font-size="11.00">timestamptz[35,6]</text>
<polygon fill="none" stroke="black" points="428,-319 428,-341 646,-341 646,-319 428,-319"/>
<text text-anchor="start" x="448" y="-327.2" font-family="Helvetica,sans-Serif" font-size="11.00">start_date</text>
<polygon fill="none" stroke="black" points="646,-319 646,-341 748,-341 748,-319 646,-319"/>
<text text-anchor="start" x="649" y="-327.2" font-family="Helvetica,sans-Serif" font-size="11.00">date[13]</text>
<polygon fill="none" stroke="black" points="428,-297 428,-319 646,-319 646,-297 428,-297"/>
<text text-anchor="start" x="448" y="-305.2" font-family="Helvetica,sans-Serif" font-size="11.00">end_date</text>
<polygon fill="none" stroke="black" points="646,-297 646,-319 748,-319 748,-297 646,-297"/>
<text text-anchor="start" x="649" y="-305.2" font-family="Helvetica,sans-Serif" font-size="11.00">date[13]</text>
<polygon fill="none" stroke="black" points="428,-275 428,-297 646,-297 646,-275 428,-275"/>
<text text-anchor="start" x="448" y="-283.2" font-family="Helvetica,sans-Serif" font-size="11.00">completed_time</text>
<polygon fill="none" stroke="black" points="646,-275 646,-297 748,-297 748,-275 646,-275"/>
<text text-anchor="start" x="649" y="-283.2" font-family="Helvetica,sans-Serif" font-size="11.00">timestamptz[35,6]</text>
<polygon fill="none" stroke="black" points="428,-253 428,-275 646,-275 646,-253 428,-253"/>
<image xlink:href="../../images/foreignKeys.png" width="11px" height="12px" preserveAspectRatio="xMinYMin meet" x="433" y="-270"/>
<text text-anchor="start" x="448" y="-261.2" font-family="Helvetica,sans-Serif" font-size="11.00">state_id</text>
<polygon fill="none" stroke="black" points="646,-253 646,-275 748,-275 748,-253 646,-253"/>
<text text-anchor="start" x="649" y="-261.2" font-family="Helvetica,sans-Serif" font-size="11.00">int4[10]</text>
<polygon fill="none" stroke="black" points="428,-231 428,-253 646,-253 646,-231 428,-231"/>
<text text-anchor="start" x="448" y="-239.2" font-family="Helvetica,sans-Serif" font-size="11.00">upcoming_notification_sent_time</text>
<polygon fill="none" stroke="black" points="646,-231 646,-253 748,-253 748,-231 646,-231"/>
<text text-anchor="start" x="649" y="-239.2" font-family="Helvetica,sans-Serif" font-size="11.00">timestamptz[35,6]</text>
<polygon fill="#ffffff" stroke="none" points="428,-213 428,-231 527,-231 527,-213 428,-213"/>
<polygon fill="none" stroke="black" points="428,-213 428,-231 527,-231 527,-213 428,-213"/>
<text text-anchor="start" x="431" y="-219.2" font-family="Helvetica,sans-Serif" font-size="11.00">&lt; 2</text>
<polygon fill="#ffffff" stroke="none" points="527,-213 527,-231 646,-231 646,-213 527,-213"/>
<polygon fill="none" stroke="black" points="527,-213 527,-231 646,-231 646,-213 527,-213"/>
<text text-anchor="start" x="607" y="-219.2" font-family="Helvetica,sans-Serif" font-size="11.00">0 rows</text>
<polygon fill="#ffffff" stroke="none" points="646,-213 646,-231 748,-231 748,-213 646,-213"/>
<polygon fill="none" stroke="black" points="646,-213 646,-231 748,-231 748,-213 646,-213"/>
<text text-anchor="start" x="728" y="-219.2" font-family="Helvetica,sans-Serif" font-size="11.00">7 &gt;</text>
<polygon fill="none" stroke="black" stroke-width="2" points="427,-212 427,-430 749,-430 749,-212 427,-212"/>
</a>
</g>
</g>
<!-- observation_photos&#45;&gt;observations -->
<g id="edge3" class="edge"><title>observation_photos:observation_id:w&#45;&gt;observations:id.type:e</title>
<path fill="none" stroke="black" d="M1047.87,-139.129C1039.77,-143.261 1034.92,-150.43 1022,-154 972.184,-167.766 828.917,-145.88 791,-181 719.57,-247.16 846.362,-396 749,-396"/>
<polygon fill="black" stroke="black" points="1054.19,-137.73 1062.78,-139.515 1058.09,-136.865 1062,-136 1062,-136 1062,-136 1058.09,-136.865 1061.22,-132.485 1054.19,-137.73 1054.19,-137.73"/>
<ellipse fill="none" stroke="black" cx="1051.06" cy="-138.421" rx="3.2" ry="3.2"/>
</g>
<!-- observation_plots&#45;&gt;observations -->
<g id="edge5" class="edge"><title>observation_plots:observation_id:w&#45;&gt;observations:id.type:e</title>
<path fill="none" stroke="black" d="M816.378,-263.187C803.487,-270.461 802.502,-289.052 791,-307 767.4,-343.826 792.739,-396 749,-396"/>
<polygon fill="black" stroke="black" points="822.696,-261.761 831.292,-263.512 826.598,-260.88 830.5,-260 830.5,-260 830.5,-260 826.598,-260.88 829.708,-256.488 822.696,-261.761 822.696,-261.761"/>
<ellipse fill="none" stroke="black" cx="819.575" cy="-262.465" rx="3.2" ry="3.2"/>
</g>
<!-- planting_sites -->
<g id="node5" class="node"><title>planting_sites</title>
<g id="a_node5"><a xlink:href="../../tables/planting_sites.html" xlink:title="planting_sites" target="_top">
<polygon fill="#ffffff" stroke="none" points="8,-444 8,-590 377,-590 377,-444 8,-444"/>
<polygon fill="#f5f5f5" stroke="none" points="8.5,-568 8.5,-590 377.5,-590 377.5,-568 8.5,-568"/>
<polygon fill="none" stroke="black" points="8.5,-568 8.5,-590 377.5,-590 377.5,-568 8.5,-568"/>
<text text-anchor="start" x="13.5" y="-577.2" font-family="Helvetica,sans-Serif" font-weight="bold" font-size="11.00">planting_sites</text>
<text text-anchor="start" x="338.5" y="-576.2" font-family="Helvetica,sans-Serif" font-size="11.00">[table]</text>
<polygon fill="none" stroke="black" points="8.5,-546 8.5,-568 377.5,-568 377.5,-546 8.5,-546"/>
<image xlink:href="../../images/primaryKeys.png" width="11px" height="12px" preserveAspectRatio="xMinYMin meet" x="13.5" y="-563"/>
<text text-anchor="start" x="28.5" y="-554.2" font-family="Helvetica,sans-Serif" font-size="11.00">id</text>
<polygon fill="#ffffff" stroke="none" points="8.5,-524 8.5,-546 377.5,-546 377.5,-524 8.5,-524"/>
<polygon fill="none" stroke="black" points="8.5,-524 8.5,-546 377.5,-546 377.5,-524 8.5,-524"/>
<text text-anchor="start" x="28.5" y="-532.2" font-family="Helvetica,sans-Serif" font-size="11.00">organization_id</text>
<polygon fill="#ffffff" stroke="none" points="8.5,-502 8.5,-524 377.5,-524 377.5,-502 8.5,-502"/>
<polygon fill="none" stroke="black" points="8.5,-502 8.5,-524 377.5,-524 377.5,-502 8.5,-502"/>
<text text-anchor="start" x="28.5" y="-510.2" font-family="Helvetica,sans-Serif" font-size="11.00">name</text>
<polygon fill="#ffffff" stroke="none" points="8.5,-480 8.5,-502 377.5,-502 377.5,-480 8.5,-480"/>
<polygon fill="none" stroke="black" points="8.5,-480 8.5,-502 377.5,-502 377.5,-480 8.5,-480"/>
<text text-anchor="start" x="28.5" y="-488.2" font-family="Helvetica,sans-Serif" font-size="11.00">project_id</text>
<polygon fill="none" stroke="black" points="8.5,-462 8.5,-480 377.5,-480 377.5,-462 8.5,-462"/>
<text text-anchor="start" x="11.5" y="-468.2" font-family="Helvetica,sans-Serif" font-size="11.00">...</text>
<polygon fill="#ffffff" stroke="none" points="8.5,-444 8.5,-462 166.5,-462 166.5,-444 8.5,-444"/>
<polygon fill="none" stroke="black" points="8.5,-444 8.5,-462 166.5,-462 166.5,-444 8.5,-444"/>
<text text-anchor="start" x="11.5" y="-450.2" font-family="Helvetica,sans-Serif" font-size="11.00"> &#160;</text>
<polygon fill="#ffffff" stroke="none" points="166.5,-444 166.5,-462 281.5,-462 281.5,-444 166.5,-444"/>
<polygon fill="none" stroke="black" points="166.5,-444 166.5,-462 281.5,-462 281.5,-444 166.5,-444"/>
<text text-anchor="start" x="242.5" y="-450.2" font-family="Helvetica,sans-Serif" font-size="11.00">0 rows</text>
<polygon fill="#ffffff" stroke="none" points="281.5,-444 281.5,-462 377.5,-462 377.5,-444 281.5,-444"/>
<polygon fill="none" stroke="black" points="281.5,-444 281.5,-462 377.5,-462 377.5,-444 281.5,-444"/>
<text text-anchor="start" x="357.5" y="-450.2" font-family="Helvetica,sans-Serif" font-size="11.00">7 &gt;</text>
</a>
</g>
</g>
<!-- observations&#45;&gt;planting_sites -->
<g id="edge6" class="edge"><title>observations:planting_site_id:w&#45;&gt;planting_sites:id:e</title>
<path fill="none" stroke="black" d="M412.473,-376.449C358.282,-398.164 456.889,-557 378.5,-557"/>
<polygon fill="black" stroke="black" points="419.111,-375.33 427.598,-377.55 423.056,-374.665 427,-374 427,-374 427,-374 423.056,-374.665 426.402,-370.45 419.111,-375.33 419.111,-375.33"/>
<ellipse fill="none" stroke="black" cx="415.956" cy="-375.862" rx="3.2" ry="3.2"/>
</g>
<!-- observation_states -->
<g id="node6" class="node"><title>observation_states</title>
<g id="a_node6"><a xlink:href="../../tables/observation_states.html" xlink:title="observation_states" target="_top">
<polygon fill="#ffffff" stroke="none" points="114.5,-213 114.5,-297 270.5,-297 270.5,-213 114.5,-213"/>
<polygon fill="#f5f5f5" stroke="none" points="114.5,-275 114.5,-297 270.5,-297 270.5,-275 114.5,-275"/>
<polygon fill="none" stroke="black" points="114.5,-275 114.5,-297 270.5,-297 270.5,-275 114.5,-275"/>
<text text-anchor="start" x="119.5" y="-284.2" font-family="Helvetica,sans-Serif" font-weight="bold" font-size="11.00">observation_states</text>
<text text-anchor="start" x="231.5" y="-283.2" font-family="Helvetica,sans-Serif" font-size="11.00">[table]</text>
<polygon fill="none" stroke="black" points="114.5,-253 114.5,-275 270.5,-275 270.5,-253 114.5,-253"/>
<image xlink:href="../../images/primaryKeys.png" width="11px" height="12px" preserveAspectRatio="xMinYMin meet" x="119.5" y="-270"/>
<text text-anchor="start" x="145.5" y="-261.2" font-family="Helvetica,sans-Serif" font-size="11.00">id</text>
<polygon fill="#ffffff" stroke="none" points="114.5,-231 114.5,-253 270.5,-253 270.5,-231 114.5,-231"/>
<polygon fill="none" stroke="black" points="114.5,-231 114.5,-253 270.5,-253 270.5,-231 114.5,-231"/>
<text text-anchor="start" x="145.5" y="-239.2" font-family="Helvetica,sans-Serif" font-size="11.00">name</text>
<polygon fill="#ffffff" stroke="none" points="114.5,-213 114.5,-231 166.5,-231 166.5,-213 114.5,-213"/>
<polygon fill="none" stroke="black" points="114.5,-213 114.5,-231 166.5,-231 166.5,-213 114.5,-213"/>
<text text-anchor="start" x="117.5" y="-219.2" font-family="Helvetica,sans-Serif" font-size="11.00"> &#160;</text>
<polygon fill="#ffffff" stroke="none" points="166.5,-213 166.5,-231 227.5,-231 227.5,-213 166.5,-213"/>
<polygon fill="none" stroke="black" points="166.5,-213 166.5,-231 227.5,-231 227.5,-213 166.5,-213"/>
<text text-anchor="start" x="188.5" y="-219.2" font-family="Helvetica,sans-Serif" font-size="11.00">4 rows</text>
<polygon fill="#ffffff" stroke="none" points="227.5,-213 227.5,-231 270.5,-231 270.5,-213 227.5,-213"/>
<polygon fill="none" stroke="black" points="227.5,-213 227.5,-231 270.5,-231 270.5,-213 227.5,-213"/>
<text text-anchor="start" x="250.5" y="-219.2" font-family="Helvetica,sans-Serif" font-size="11.00">1 &gt;</text>
</a>
</g>
</g>
<!-- observations&#45;&gt;observation_states -->
<g id="edge7" class="edge"><title>observations:state_id:w&#45;&gt;observation_states:id:e</title>
<path fill="none" stroke="black" d="M412.426,-264C355.039,-264 335.482,-264 271.5,-264"/>
<polygon fill="black" stroke="black" points="419,-264 427,-267.6 423,-264 427,-264 427,-264 427,-264 423,-264 427,-260.4 419,-264 419,-264"/>
<ellipse fill="none" stroke="black" cx="415.8" cy="-264" rx="3.2" ry="3.2"/>
</g>
<!-- observation_plot_conditions -->
<g id="node4" class="node"><title>observation_plot_conditions</title>
<g id="a_node4"><a xlink:href="../../tables/observation_plot_conditions.html" xlink:title="observation_plot_conditions" target="_top">
<polygon fill="#ffffff" stroke="none" points="802,-37 802,-143 1011,-143 1011,-37 802,-37"/>
<polygon fill="#f5f5f5" stroke="none" points="802.5,-121 802.5,-143 1011.5,-143 1011.5,-121 802.5,-121"/>
<polygon fill="none" stroke="black" points="802.5,-121 802.5,-143 1011.5,-143 1011.5,-121 802.5,-121"/>
<text text-anchor="start" x="807.5" y="-130.2" font-family="Helvetica,sans-Serif" font-weight="bold" font-size="11.00">observation_plot_conditions</text>
<text text-anchor="start" x="972.5" y="-129.2" font-family="Helvetica,sans-Serif" font-size="11.00">[table]</text>
<polygon fill="none" stroke="black" points="802.5,-99 802.5,-121 1011.5,-121 1011.5,-99 802.5,-99"/>
<image xlink:href="../../images/primaryKeys.png" width="11px" height="12px" preserveAspectRatio="xMinYMin meet" x="807.5" y="-116"/>
<text text-anchor="start" x="832.5" y="-107.2" font-family="Helvetica,sans-Serif" font-size="11.00">observation_id</text>
<polygon fill="none" stroke="black" points="802.5,-77 802.5,-99 1011.5,-99 1011.5,-77 802.5,-77"/>
<image xlink:href="../../images/primaryKeys.png" width="11px" height="12px" preserveAspectRatio="xMinYMin meet" x="807.5" y="-94"/>
<text text-anchor="start" x="832.5" y="-85.2" font-family="Helvetica,sans-Serif" font-size="11.00">monitoring_plot_id</text>
<polygon fill="none" stroke="black" points="802.5,-55 802.5,-77 1011.5,-77 1011.5,-55 802.5,-55"/>
<image xlink:href="../../images/primaryKeys.png" width="11px" height="12px" preserveAspectRatio="xMinYMin meet" x="807.5" y="-72"/>
<text text-anchor="start" x="832.5" y="-63.2" font-family="Helvetica,sans-Serif" font-size="11.00">condition_id</text>
<polygon fill="#ffffff" stroke="none" points="802.5,-37 802.5,-55 890.5,-55 890.5,-37 802.5,-37"/>
<polygon fill="none" stroke="black" points="802.5,-37 802.5,-55 890.5,-55 890.5,-37 802.5,-37"/>
<text text-anchor="start" x="805.5" y="-43.2" font-family="Helvetica,sans-Serif" font-size="11.00">&lt; 3</text>
<polygon fill="#ffffff" stroke="none" points="890.5,-37 890.5,-55 965.5,-55 965.5,-37 890.5,-37"/>
<polygon fill="none" stroke="black" points="890.5,-37 890.5,-55 965.5,-55 965.5,-37 890.5,-37"/>
<text text-anchor="start" x="926.5" y="-43.2" font-family="Helvetica,sans-Serif" font-size="11.00">0 rows</text>
<polygon fill="#ffffff" stroke="none" points="965.5,-37 965.5,-55 1011.5,-55 1011.5,-37 965.5,-37"/>
<polygon fill="none" stroke="black" points="965.5,-37 965.5,-55 1011.5,-55 1011.5,-37 965.5,-37"/>
<text text-anchor="start" x="1001.5" y="-43.2" font-family="Helvetica,sans-Serif" font-size="11.00"> &#160;</text>
</a>
</g>
</g>
<!-- observation_plot_conditions&#45;&gt;observations -->
<g id="edge4" class="edge"><title>observation_plot_conditions:observation_id:w&#45;&gt;observations:id.type:e</title>
<path fill="none" stroke="black" d="M788.043,-115.713C748.775,-156.022 808.191,-396 749,-396"/>
<polygon fill="black" stroke="black" points="794.136,-113.126 802.907,-113.314 797.818,-111.563 801.5,-110 801.5,-110 801.5,-110 797.818,-111.563 800.093,-106.686 794.136,-113.126 794.136,-113.126"/>
<ellipse fill="none" stroke="black" cx="791.191" cy="-114.377" rx="3.20001" ry="3.20001"/>
</g>
<!-- observed_plot_species_totals -->
<g id="node7" class="node"><title>observed_plot_species_totals</title>
<g id="a_node7"><a xlink:href="../../tables/observed_plot_species_totals.html" xlink:title="observed_plot_species_totals" target="_top">
<polygon fill="#ffffff" stroke="none" points="800.5,-530 800.5,-698 1012.5,-698 1012.5,-530 800.5,-530"/>
<polygon fill="#f5f5f5" stroke="none" points="800.5,-676 800.5,-698 1012.5,-698 1012.5,-676 800.5,-676"/>
<polygon fill="none" stroke="black" points="800.5,-676 800.5,-698 1012.5,-698 1012.5,-676 800.5,-676"/>
<text text-anchor="start" x="805.5" y="-685.2" font-family="Helvetica,sans-Serif" font-weight="bold" font-size="11.00">observed_plot_species_totals</text>
<text text-anchor="start" x="973.5" y="-684.2" font-family="Helvetica,sans-Serif" font-size="11.00">[table]</text>
<polygon fill="#ffffff" stroke="none" points="800.5,-654 800.5,-676 1012.5,-676 1012.5,-654 800.5,-654"/>
<polygon fill="none" stroke="black" points="800.5,-654 800.5,-676 1012.5,-676 1012.5,-654 800.5,-654"/>
<image xlink:href="../../images/foreignKeys.png" width="11px" height="12px" preserveAspectRatio="xMinYMin meet" x="805.5" y="-671"/>
<text text-anchor="start" x="830.5" y="-662.2" font-family="Helvetica,sans-Serif" font-size="11.00">observation_id</text>
<polygon fill="#ffffff" stroke="none" points="800.5,-632 800.5,-654 1012.5,-654 1012.5,-632 800.5,-632"/>
<polygon fill="none" stroke="black" points="800.5,-632 800.5,-654 1012.5,-654 1012.5,-632 800.5,-632"/>
<image xlink:href="../../images/foreignKeys.png" width="11px" height="12px" preserveAspectRatio="xMinYMin meet" x="805.5" y="-649"/>
<text text-anchor="start" x="830.5" y="-640.2" font-family="Helvetica,sans-Serif" font-size="11.00">monitoring_plot_id</text>
<polygon fill="#ffffff" stroke="none" points="800.5,-610 800.5,-632 1012.5,-632 1012.5,-610 800.5,-610"/>
<polygon fill="none" stroke="black" points="800.5,-610 800.5,-632 1012.5,-632 1012.5,-610 800.5,-610"/>
<text text-anchor="start" x="830.5" y="-618.2" font-family="Helvetica,sans-Serif" font-size="11.00">species_id</text>
<polygon fill="#ffffff" stroke="none" points="800.5,-588 800.5,-610 1012.5,-610 1012.5,-588 800.5,-588"/>
<polygon fill="none" stroke="black" points="800.5,-588 800.5,-610 1012.5,-610 1012.5,-588 800.5,-588"/>
<text text-anchor="start" x="830.5" y="-596.2" font-family="Helvetica,sans-Serif" font-size="11.00">species_name</text>
<polygon fill="none" stroke="black" points="800.5,-566 800.5,-588 1012.5,-588 1012.5,-566 800.5,-566"/>
<image xlink:href="../../images/foreignKeys.png" width="11px" height="12px" preserveAspectRatio="xMinYMin meet" x="805.5" y="-583"/>
<text text-anchor="start" x="830.5" y="-574.2" font-family="Helvetica,sans-Serif" font-size="11.00">certainty_id</text>
<polygon fill="none" stroke="black" points="800.5,-548 800.5,-566 1012.5,-566 1012.5,-548 800.5,-548"/>
<text text-anchor="start" x="803.5" y="-554.2" font-family="Helvetica,sans-Serif" font-size="11.00">...</text>
<polygon fill="#ffffff" stroke="none" points="800.5,-530 800.5,-548 890.5,-548 890.5,-530 800.5,-530"/>
<polygon fill="none" stroke="black" points="800.5,-530 800.5,-548 890.5,-548 890.5,-530 800.5,-530"/>
<text text-anchor="start" x="803.5" y="-536.2" font-family="Helvetica,sans-Serif" font-size="11.00">&lt; 3</text>
<polygon fill="#ffffff" stroke="none" points="890.5,-530 890.5,-548 965.5,-548 965.5,-530 890.5,-530"/>
<polygon fill="none" stroke="black" points="890.5,-530 890.5,-548 965.5,-548 965.5,-530 890.5,-530"/>
<text text-anchor="start" x="926.5" y="-536.2" font-family="Helvetica,sans-Serif" font-size="11.00">0 rows</text>
<polygon fill="#ffffff" stroke="none" points="965.5,-530 965.5,-548 1012.5,-548 1012.5,-530 965.5,-530"/>
<polygon fill="none" stroke="black" points="965.5,-530 965.5,-548 1012.5,-548 1012.5,-530 965.5,-530"/>
<text text-anchor="start" x="1002.5" y="-536.2" font-family="Helvetica,sans-Serif" font-size="11.00"> &#160;</text>
</a>
</g>
</g>
<!-- observed_plot_species_totals&#45;&gt;observations -->
<g id="edge8" class="edge"><title>observed_plot_species_totals:observation_id:w&#45;&gt;observations:id.type:e</title>
<path fill="none" stroke="black" d="M786.342,-659.131C750.164,-619.793 804.476,-396 749,-396"/>
<polygon fill="black" stroke="black" points="792.194,-661.741 798.034,-668.288 795.847,-663.371 799.5,-665 799.5,-665 799.5,-665 795.847,-663.371 800.966,-661.712 792.194,-661.741 792.194,-661.741"/>
<ellipse fill="none" stroke="black" cx="789.271" cy="-660.438" rx="3.20001" ry="3.20001"/>
</g>
<!-- observed_site_species_totals -->
<g id="node8" class="node"><title>observed_site_species_totals</title>
<g id="a_node8"><a xlink:href="../../tables/observed_site_species_totals.html" xlink:title="observed_site_species_totals" target="_top">
<polygon fill="#ffffff" stroke="none" points="801.5,-719 801.5,-887 1011.5,-887 1011.5,-719 801.5,-719"/>
<polygon fill="#f5f5f5" stroke="none" points="801.5,-865 801.5,-887 1011.5,-887 1011.5,-865 801.5,-865"/>
<polygon fill="none" stroke="black" points="801.5,-865 801.5,-887 1011.5,-887 1011.5,-865 801.5,-865"/>
<text text-anchor="start" x="806.5" y="-874.2" font-family="Helvetica,sans-Serif" font-weight="bold" font-size="11.00">observed_site_species_totals</text>
<text text-anchor="start" x="972.5" y="-873.2" font-family="Helvetica,sans-Serif" font-size="11.00">[table]</text>
<polygon fill="#ffffff" stroke="none" points="801.5,-843 801.5,-865 1011.5,-865 1011.5,-843 801.5,-843"/>
<polygon fill="none" stroke="black" points="801.5,-843 801.5,-865 1011.5,-865 1011.5,-843 801.5,-843"/>
<image xlink:href="../../images/foreignKeys.png" width="11px" height="12px" preserveAspectRatio="xMinYMin meet" x="806.5" y="-860"/>
<text text-anchor="start" x="831.5" y="-851.2" font-family="Helvetica,sans-Serif" font-size="11.00">observation_id</text>
<polygon fill="#ffffff" stroke="none" points="801.5,-821 801.5,-843 1011.5,-843 1011.5,-821 801.5,-821"/>
<polygon fill="none" stroke="black" points="801.5,-821 801.5,-843 1011.5,-843 1011.5,-821 801.5,-821"/>
<image xlink:href="../../images/foreignKeys.png" width="11px" height="12px" preserveAspectRatio="xMinYMin meet" x="806.5" y="-838"/>
<text text-anchor="start" x="831.5" y="-829.2" font-family="Helvetica,sans-Serif" font-size="11.00">planting_site_id</text>
<polygon fill="#ffffff" stroke="none" points="801.5,-799 801.5,-821 1011.5,-821 1011.5,-799 801.5,-799"/>
<polygon fill="none" stroke="black" points="801.5,-799 801.5,-821 1011.5,-821 1011.5,-799 801.5,-799"/>
<text text-anchor="start" x="831.5" y="-807.2" font-family="Helvetica,sans-Serif" font-size="11.00">species_id</text>
<polygon fill="#ffffff" stroke="none" points="801.5,-777 801.5,-799 1011.5,-799 1011.5,-777 801.5,-777"/>
<polygon fill="none" stroke="black" points="801.5,-777 801.5,-799 1011.5,-799 1011.5,-777 801.5,-777"/>
<text text-anchor="start" x="831.5" y="-785.2" font-family="Helvetica,sans-Serif" font-size="11.00">species_name</text>
<polygon fill="none" stroke="black" points="801.5,-755 801.5,-777 1011.5,-777 1011.5,-755 801.5,-755"/>
<image xlink:href="../../images/foreignKeys.png" width="11px" height="12px" preserveAspectRatio="xMinYMin meet" x="806.5" y="-772"/>
<text text-anchor="start" x="831.5" y="-763.2" font-family="Helvetica,sans-Serif" font-size="11.00">certainty_id</text>
<polygon fill="none" stroke="black" points="801.5,-737 801.5,-755 1011.5,-755 1011.5,-737 801.5,-737"/>
<text text-anchor="start" x="804.5" y="-743.2" font-family="Helvetica,sans-Serif" font-size="11.00">...</text>
<polygon fill="#ffffff" stroke="none" points="801.5,-719 801.5,-737 890.5,-737 890.5,-719 801.5,-719"/>
<polygon fill="none" stroke="black" points="801.5,-719 801.5,-737 890.5,-737 890.5,-719 801.5,-719"/>
<text text-anchor="start" x="804.5" y="-725.2" font-family="Helvetica,sans-Serif" font-size="11.00">&lt; 3</text>
<polygon fill="#ffffff" stroke="none" points="890.5,-719 890.5,-737 965.5,-737 965.5,-719 890.5,-719"/>
<polygon fill="none" stroke="black" points="890.5,-719 890.5,-737 965.5,-737 965.5,-719 890.5,-719"/>
<text text-anchor="start" x="926.5" y="-725.2" font-family="Helvetica,sans-Serif" font-size="11.00">0 rows</text>
<polygon fill="#ffffff" stroke="none" points="965.5,-719 965.5,-737 1011.5,-737 1011.5,-719 965.5,-719"/>
<polygon fill="none" stroke="black" points="965.5,-719 965.5,-737 1011.5,-737 1011.5,-719 965.5,-719"/>
<text text-anchor="start" x="1001.5" y="-725.2" font-family="Helvetica,sans-Serif" font-size="11.00"> &#160;</text>
</a>
</g>
</g>
<!-- observed_site_species_totals&#45;&gt;observations -->
<g id="edge9" class="edge"><title>observed_site_species_totals:observation_id:w&#45;&gt;observations:id.type:e</title>
<path fill="none" stroke="black" d="M786.356,-850.313C713.542,-806.969 846.018,-396 749,-396"/>
<polygon fill="black" stroke="black" points="792.759,-851.982 799.592,-857.484 796.629,-852.991 800.5,-854 800.5,-854 800.5,-854 796.629,-852.991 801.408,-850.516 792.759,-851.982 792.759,-851.982"/>
<ellipse fill="none" stroke="black" cx="789.662" cy="-851.175" rx="3.2" ry="3.2"/>
</g>
<!-- observed_site_species_totals&#45;&gt;planting_sites -->
<g id="edge10" class="edge"><title>observed_site_species_totals:planting_site_id:w&#45;&gt;planting_sites:id:e</title>
<path fill="none" stroke="black" d="M786.1,-831.608C577.646,-820.048 597.446,-557 378.5,-557"/>
<polygon fill="black" stroke="black" points="792.503,-831.782 800.402,-835.599 796.501,-831.891 800.5,-832 800.5,-832 800.5,-832 796.501,-831.891 800.598,-828.401 792.503,-831.782 792.503,-831.782"/>
<ellipse fill="none" stroke="black" cx="789.304" cy="-831.695" rx="3.2" ry="3.2"/>
</g>
<!-- observed_zone_species_totals -->
<g id="node9" class="node"><title>observed_zone_species_totals</title>
<g id="a_node9"><a xlink:href="../../tables/observed_zone_species_totals.html" xlink:title="observed_zone_species_totals" target="_top">
<polygon fill="#ffffff" stroke="none" points="799,-341 799,-509 1014,-509 1014,-341 799,-341"/>
<polygon fill="#f5f5f5" stroke="none" points="799.5,-487 799.5,-509 1014.5,-509 1014.5,-487 799.5,-487"/>
<polygon fill="none" stroke="black" points="799.5,-487 799.5,-509 1014.5,-509 1014.5,-487 799.5,-487"/>
<text text-anchor="start" x="804.5" y="-496.2" font-family="Helvetica,sans-Serif" font-weight="bold" font-size="11.00">observed_zone_species_totals</text>
<text text-anchor="start" x="975.5" y="-495.2" font-family="Helvetica,sans-Serif" font-size="11.00">[table]</text>
<polygon fill="#ffffff" stroke="none" points="799.5,-465 799.5,-487 1014.5,-487 1014.5,-465 799.5,-465"/>
<polygon fill="none" stroke="black" points="799.5,-465 799.5,-487 1014.5,-487 1014.5,-465 799.5,-465"/>
<image xlink:href="../../images/foreignKeys.png" width="11px" height="12px" preserveAspectRatio="xMinYMin meet" x="804.5" y="-482"/>
<text text-anchor="start" x="828.5" y="-473.2" font-family="Helvetica,sans-Serif" font-size="11.00">observation_id</text>
<polygon fill="#ffffff" stroke="none" points="799.5,-443 799.5,-465 1014.5,-465 1014.5,-443 799.5,-443"/>
<polygon fill="none" stroke="black" points="799.5,-443 799.5,-465 1014.5,-465 1014.5,-443 799.5,-443"/>
<image xlink:href="../../images/foreignKeys.png" width="11px" height="12px" preserveAspectRatio="xMinYMin meet" x="804.5" y="-460"/>
<text text-anchor="start" x="828.5" y="-451.2" font-family="Helvetica,sans-Serif" font-size="11.00">planting_zone_id</text>
<polygon fill="#ffffff" stroke="none" points="799.5,-421 799.5,-443 1014.5,-443 1014.5,-421 799.5,-421"/>
<polygon fill="none" stroke="black" points="799.5,-421 799.5,-443 1014.5,-443 1014.5,-421 799.5,-421"/>
<text text-anchor="start" x="828.5" y="-429.2" font-family="Helvetica,sans-Serif" font-size="11.00">species_id</text>
<polygon fill="#ffffff" stroke="none" points="799.5,-399 799.5,-421 1014.5,-421 1014.5,-399 799.5,-399"/>
<polygon fill="none" stroke="black" points="799.5,-399 799.5,-421 1014.5,-421 1014.5,-399 799.5,-399"/>
<text text-anchor="start" x="828.5" y="-407.2" font-family="Helvetica,sans-Serif" font-size="11.00">species_name</text>
<polygon fill="none" stroke="black" points="799.5,-377 799.5,-399 1014.5,-399 1014.5,-377 799.5,-377"/>
<image xlink:href="../../images/foreignKeys.png" width="11px" height="12px" preserveAspectRatio="xMinYMin meet" x="804.5" y="-394"/>
<text text-anchor="start" x="828.5" y="-385.2" font-family="Helvetica,sans-Serif" font-size="11.00">certainty_id</text>
<polygon fill="none" stroke="black" points="799.5,-359 799.5,-377 1014.5,-377 1014.5,-359 799.5,-359"/>
<text text-anchor="start" x="802.5" y="-365.2" font-family="Helvetica,sans-Serif" font-size="11.00">...</text>
<polygon fill="#ffffff" stroke="none" points="799.5,-341 799.5,-359 890.5,-359 890.5,-341 799.5,-341"/>
<polygon fill="none" stroke="black" points="799.5,-341 799.5,-359 890.5,-359 890.5,-341 799.5,-341"/>
<text text-anchor="start" x="802.5" y="-347.2" font-family="Helvetica,sans-Serif" font-size="11.00">&lt; 3</text>
<polygon fill="#ffffff" stroke="none" points="890.5,-341 890.5,-359 966.5,-359 966.5,-341 890.5,-341"/>
<polygon fill="none" stroke="black" points="890.5,-341 890.5,-359 966.5,-359 966.5,-341 890.5,-341"/>
<text text-anchor="start" x="927.5" y="-347.2" font-family="Helvetica,sans-Serif" font-size="11.00">0 rows</text>
<polygon fill="#ffffff" stroke="none" points="966.5,-341 966.5,-359 1014.5,-359 1014.5,-341 966.5,-341"/>
<polygon fill="none" stroke="black" points="966.5,-341 966.5,-359 1014.5,-359 1014.5,-341 966.5,-341"/>
<text text-anchor="start" x="1004.5" y="-347.2" font-family="Helvetica,sans-Serif" font-size="11.00"> &#160;</text>
</a>
</g>
</g>
<!-- observed_zone_species_totals&#45;&gt;observations -->
<g id="edge11" class="edge"><title>observed_zone_species_totals:observation_id:w&#45;&gt;observations:id.type:e</title>
<path fill="none" stroke="black" d="M784.671,-471.47C764.966,-454.546 784.768,-396 749,-396"/>
<polygon fill="black" stroke="black" points="790.898,-473.509 797.379,-479.421 794.699,-474.755 798.5,-476 798.5,-476 798.5,-476 794.699,-474.755 799.621,-472.579 790.898,-473.509 790.898,-473.509"/>
<ellipse fill="none" stroke="black" cx="787.857" cy="-472.513" rx="3.20001" ry="3.20001"/>
</g>
<!-- recorded_plants -->
<g id="node10" class="node"><title>recorded_plants</title>
<g id="a_node10"><a xlink:href="../../tables/recorded_plants.html" xlink:title="recorded_plants" target="_top">
<polygon fill="#ffffff" stroke="none" points="1072.5,-212 1072.5,-402 1213.5,-402 1213.5,-212 1072.5,-212"/>
<polygon fill="#f5f5f5" stroke="none" points="1073,-380 1073,-402 1214,-402 1214,-380 1073,-380"/>
<polygon fill="none" stroke="black" points="1073,-380 1073,-402 1214,-402 1214,-380 1073,-380"/>
<text text-anchor="start" x="1078" y="-389.2" font-family="Helvetica,sans-Serif" font-weight="bold" font-size="11.00">recorded_plants</text>
<text text-anchor="start" x="1175" y="-388.2" font-family="Helvetica,sans-Serif" font-size="11.00">[table]</text>
<polygon fill="none" stroke="black" points="1073,-358 1073,-380 1214,-380 1214,-358 1073,-358"/>
<image xlink:href="../../images/primaryKeys.png" width="11px" height="12px" preserveAspectRatio="xMinYMin meet" x="1078" y="-375"/>
<text text-anchor="start" x="1097" y="-366.2" font-family="Helvetica,sans-Serif" font-size="11.00">id</text>
<polygon fill="#ffffff" stroke="none" points="1073,-336 1073,-358 1214,-358 1214,-336 1073,-336"/>
<polygon fill="none" stroke="black" points="1073,-336 1073,-358 1214,-358 1214,-336 1073,-336"/>
<image xlink:href="../../images/foreignKeys.png" width="11px" height="12px" preserveAspectRatio="xMinYMin meet" x="1078" y="-353"/>
<text text-anchor="start" x="1097" y="-344.2" font-family="Helvetica,sans-Serif" font-size="11.00">observation_id</text>
<polygon fill="#ffffff" stroke="none" points="1073,-314 1073,-336 1214,-336 1214,-314 1073,-314"/>
<polygon fill="none" stroke="black" points="1073,-314 1073,-336 1214,-336 1214,-314 1073,-314"/>
<image xlink:href="../../images/foreignKeys.png" width="11px" height="12px" preserveAspectRatio="xMinYMin meet" x="1078" y="-331"/>
<text text-anchor="start" x="1097" y="-322.2" font-family="Helvetica,sans-Serif" font-size="11.00">monitoring_plot_id</text>
<polygon fill="none" stroke="black" points="1073,-292 1073,-314 1214,-314 1214,-292 1073,-292"/>
<image xlink:href="../../images/foreignKeys.png" width="11px" height="12px" preserveAspectRatio="xMinYMin meet" x="1078" y="-309"/>
<text text-anchor="start" x="1097" y="-300.2" font-family="Helvetica,sans-Serif" font-size="11.00">certainty_id</text>
<polygon fill="#ffffff" stroke="none" points="1073,-270 1073,-292 1214,-292 1214,-270 1073,-270"/>
<polygon fill="none" stroke="black" points="1073,-270 1073,-292 1214,-292 1214,-270 1073,-270"/>
<text text-anchor="start" x="1097" y="-278.2" font-family="Helvetica,sans-Serif" font-size="11.00">species_id</text>
<polygon fill="none" stroke="black" points="1073,-248 1073,-270 1214,-270 1214,-248 1073,-248"/>
<image xlink:href="../../images/foreignKeys.png" width="11px" height="12px" preserveAspectRatio="xMinYMin meet" x="1078" y="-265"/>
<text text-anchor="start" x="1097" y="-256.2" font-family="Helvetica,sans-Serif" font-size="11.00">status_id</text>
<polygon fill="none" stroke="black" points="1073,-230 1073,-248 1214,-248 1214,-230 1073,-230"/>
<text text-anchor="start" x="1076" y="-236.2" font-family="Helvetica,sans-Serif" font-size="11.00">...</text>
<polygon fill="#ffffff" stroke="none" points="1073,-212 1073,-230 1127,-230 1127,-212 1073,-212"/>
<polygon fill="none" stroke="black" points="1073,-212 1073,-230 1127,-230 1127,-212 1073,-212"/>
<text text-anchor="start" x="1076" y="-218.2" font-family="Helvetica,sans-Serif" font-size="11.00">&lt; 6</text>
<polygon fill="#ffffff" stroke="none" points="1127,-212 1127,-230 1185,-230 1185,-212 1127,-212"/>
<polygon fill="none" stroke="black" points="1127,-212 1127,-230 1185,-230 1185,-212 1127,-212"/>
<text text-anchor="start" x="1146" y="-218.2" font-family="Helvetica,sans-Serif" font-size="11.00">0 rows</text>
<polygon fill="#ffffff" stroke="none" points="1185,-212 1185,-230 1214,-230 1214,-212 1185,-212"/>
<polygon fill="none" stroke="black" points="1185,-212 1185,-230 1214,-230 1214,-212 1185,-212"/>
<text text-anchor="start" x="1204" y="-218.2" font-family="Helvetica,sans-Serif" font-size="11.00"> &#160;</text>
</a>
</g>
</g>
<!-- recorded_plants&#45;&gt;observation_plots -->
<g id="edge12" class="edge"><title>recorded_plants:monitoring_plot_id:w&#45;&gt;observation_plots:monitoring_plot_id:e</title>
<path fill="none" stroke="black" d="M1057.32,-322.49C1020.09,-308.226 1032.34,-238 982.5,-238"/>
<polygon fill="black" stroke="black" points="1064.11,-323.652 1071.39,-328.549 1068.06,-324.326 1072,-325 1072,-325 1072,-325 1068.06,-324.326 1072.61,-321.451 1064.11,-323.652 1064.11,-323.652"/>
<ellipse fill="none" stroke="black" cx="1060.96" cy="-323.113" rx="3.2" ry="3.2"/>
</g>
<!-- recorded_plants&#45;&gt;observation_plots -->
<g id="edge13" class="edge"><title>recorded_plants:observation_id:w&#45;&gt;observation_plots:observation_id:e</title>
<path fill="none" stroke="black" d="M1057.32,-344.49C1020.09,-330.226 1032.34,-260 982.5,-260"/>
<polygon fill="black" stroke="black" points="1064.11,-345.652 1071.39,-350.549 1068.06,-346.326 1072,-347 1072,-347 1072,-347 1068.06,-346.326 1072.61,-343.451 1064.11,-345.652 1064.11,-345.652"/>
<ellipse fill="none" stroke="black" cx="1060.96" cy="-345.113" rx="3.2" ry="3.2"/>
</g>
<!-- recorded_plants&#45;&gt;observations -->
<g id="edge14" class="edge"><title>recorded_plants:observation_id:w&#45;&gt;observations:id.type:e</title>
<path fill="none" stroke="black" d="M1057.59,-345.006C1045.65,-341.349 1039.29,-333.699 1022,-331 920.562,-315.165 881.169,-281.908 791,-331 760.792,-347.446 783.395,-396 749,-396"/>
<polygon fill="black" stroke="black" points="1064.08,-345.904 1071.51,-350.566 1068.04,-346.452 1072,-347 1072,-347 1072,-347 1068.04,-346.452 1072.49,-343.434 1064.08,-345.904 1064.08,-345.904"/>
<ellipse fill="none" stroke="black" cx="1060.91" cy="-345.465" rx="3.2" ry="3.2"/>
</g>
</g>
</svg>
