<?xml version="1.0" encoding="UTF-8" standalone="no"?>
<!DOCTYPE svg PUBLIC "-//W3C//DTD SVG 1.1//EN"
 "http://www.w3.org/Graphics/SVG/1.1/DTD/svg11.dtd">
<!-- Generated by graphviz version 2.47.1 (20210515.0534)
 -->
<!-- Title: oneDegreeRelationshipsDiagram Pages: 1 -->
<svg width="941pt" height="556pt"
 viewBox="0.00 0.00 941.00 556.00" xmlns="http://www.w3.org/2000/svg" xmlns:xlink="http://www.w3.org/1999/xlink">
<g id="graph0" class="graph" transform="scale(1 1) rotate(0) translate(4 552)">
<title>oneDegreeRelationshipsDiagram</title>
<polygon fill="#ffffff" stroke="transparent" points="-4,4 -4,-552 937,-552 937,4 -4,4"/>
<text text-anchor="middle" x="73.5" y="-7.2" font-family="Helvetica,sans-Serif" font-size="11.00">Generated by SchemaSpy</text>
<!-- observation_biomass_quadrat_details -->
<g id="node1" class="node">
<title>observation_biomass_quadrat_details</title>
<g id="a_node1"><a xlink:href="../../tables/observation_biomass_quadrat_details.html" xlink:title="observation_biomass_quadrat_details" target="_top">
<polygon fill="#ffffff" stroke="transparent" points="336,-420 336,-544 604,-544 604,-420 336,-420"/>
<polygon fill="#f5f5f5" stroke="transparent" points="336,-522 336,-544 604,-544 604,-522 336,-522"/>
<polygon fill="none" stroke="black" points="336,-522 336,-544 604,-544 604,-522 336,-522"/>
<text text-anchor="start" x="341" y="-531.2" font-family="Helvetica,sans-Serif" font-weight="bold" font-size="11.00">observation_biomass_quadrat_details</text>
<text text-anchor="start" x="565" y="-530.2" font-family="Helvetica,sans-Serif" font-size="11.00">[table]</text>
<polygon fill="none" stroke="black" points="336,-500 336,-522 604,-522 604,-500 336,-500"/>
<image xlink:href="../../images/primaryKeys.png" width="11px" height="12px" preserveAspectRatio="xMinYMin meet" x="341" y="-517"/>
<text text-anchor="start" x="368" y="-508.2" font-family="Helvetica,sans-Serif" font-size="11.00">observation_id</text>
<polygon fill="none" stroke="black" points="336,-478 336,-500 604,-500 604,-478 336,-478"/>
<image xlink:href="../../images/primaryKeys.png" width="11px" height="12px" preserveAspectRatio="xMinYMin meet" x="341" y="-495"/>
<text text-anchor="start" x="368" y="-486.2" font-family="Helvetica,sans-Serif" font-size="11.00">monitoring_plot_id</text>
<polygon fill="none" stroke="black" points="336,-456 336,-478 604,-478 604,-456 336,-456"/>
<image xlink:href="../../images/primaryKeys.png" width="11px" height="12px" preserveAspectRatio="xMinYMin meet" x="341" y="-473"/>
<text text-anchor="start" x="368" y="-464.2" font-family="Helvetica,sans-Serif" font-size="11.00">position_id</text>
<polygon fill="none" stroke="black" points="336,-438 336,-456 604,-456 604,-438 336,-438"/>
<text text-anchor="start" x="339" y="-444.2" font-family="Helvetica,sans-Serif" font-size="11.00">...</text>
<polygon fill="#ffffff" stroke="transparent" points="336,-420 336,-438 463,-438 463,-420 336,-420"/>
<polygon fill="none" stroke="black" points="336,-420 336,-438 463,-438 463,-420 336,-420"/>
<text text-anchor="start" x="339" y="-426.2" font-family="Helvetica,sans-Serif" font-size="11.00">&lt; 5</text>
<polygon fill="#ffffff" stroke="transparent" points="463,-420 463,-438 529,-438 529,-420 463,-420"/>
<polygon fill="none" stroke="black" points="463,-420 463,-438 529,-438 529,-420 463,-420"/>
<text text-anchor="start" x="519" y="-426.2" font-family="Helvetica,sans-Serif" font-size="11.00"> &#160;</text>
<polygon fill="#ffffff" stroke="transparent" points="529,-420 529,-438 604,-438 604,-420 529,-420"/>
<polygon fill="none" stroke="black" points="529,-420 529,-438 604,-438 604,-420 529,-420"/>
<text text-anchor="start" x="585" y="-426.2" font-family="Helvetica,sans-Serif" font-size="11.00">3 &gt;</text>
</a>
</g>
</g>
<!-- observation_plot_positions -->
<g id="node2" class="node">
<title>observation_plot_positions</title>
<g id="a_node2"><a xlink:href="../../tables/observation_plot_positions.html" xlink:title="observation_plot_positions" target="_top">
<polygon fill="#ffffff" stroke="transparent" points="8,-281 8,-369 287,-369 287,-281 8,-281"/>
<polygon fill="#f5f5f5" stroke="transparent" points="10.5,-345 10.5,-367 285.5,-367 285.5,-345 10.5,-345"/>
<polygon fill="none" stroke="black" points="10.5,-345 10.5,-367 285.5,-367 285.5,-345 10.5,-345"/>
<text text-anchor="start" x="15.5" y="-354.2" font-family="Helvetica,sans-Serif" font-weight="bold" font-size="11.00">observation_plot_positions</text>
<text text-anchor="start" x="246.5" y="-353.2" font-family="Helvetica,sans-Serif" font-size="11.00">[table]</text>
<polygon fill="none" stroke="black" points="10.5,-323 10.5,-345 191.5,-345 191.5,-323 10.5,-323"/>
<image xlink:href="../../images/primaryKeys.png" width="11px" height="12px" preserveAspectRatio="xMinYMin meet" x="15.5" y="-340"/>
<text text-anchor="start" x="30.5" y="-331.2" font-family="Helvetica,sans-Serif" font-size="11.00">id</text>
<polygon fill="none" stroke="black" points="191.5,-323 191.5,-345 285.5,-345 285.5,-323 191.5,-323"/>
<text text-anchor="start" x="194.5" y="-331.2" font-family="Helvetica,sans-Serif" font-size="11.00">int4[10]</text>
<polygon fill="#ffffff" stroke="transparent" points="10.5,-301 10.5,-323 191.5,-323 191.5,-301 10.5,-301"/>
<polygon fill="none" stroke="black" points="10.5,-301 10.5,-323 191.5,-323 191.5,-301 10.5,-301"/>
<text text-anchor="start" x="30.5" y="-309.2" font-family="Helvetica,sans-Serif" font-size="11.00">name</text>
<polygon fill="none" stroke="black" points="191.5,-301 191.5,-323 285.5,-323 285.5,-301 191.5,-301"/>
<text text-anchor="start" x="194.5" y="-309.2" font-family="Helvetica,sans-Serif" font-size="11.00">text[2147483647]</text>
<polygon fill="#ffffff" stroke="transparent" points="10.5,-283 10.5,-301 105.5,-301 105.5,-283 10.5,-283"/>
<polygon fill="none" stroke="black" points="10.5,-283 10.5,-301 105.5,-301 105.5,-283 10.5,-283"/>
<text text-anchor="start" x="13.5" y="-289.2" font-family="Helvetica,sans-Serif" font-size="11.00">&lt; 0</text>
<polygon fill="#ffffff" stroke="transparent" points="105.5,-283 105.5,-301 191.5,-301 191.5,-283 105.5,-283"/>
<polygon fill="none" stroke="black" points="105.5,-283 105.5,-301 191.5,-301 191.5,-283 105.5,-283"/>
<text text-anchor="start" x="181.5" y="-289.2" font-family="Helvetica,sans-Serif" font-size="11.00"> &#160;</text>
<polygon fill="#ffffff" stroke="transparent" points="191.5,-283 191.5,-301 285.5,-301 285.5,-283 191.5,-283"/>
<polygon fill="none" stroke="black" points="191.5,-283 191.5,-301 285.5,-301 285.5,-283 191.5,-283"/>
<text text-anchor="start" x="266.5" y="-289.2" font-family="Helvetica,sans-Serif" font-size="11.00">4 &gt;</text>
<polygon fill="none" stroke="black" stroke-width="2" points="9,-282 9,-368 286,-368 286,-282 9,-282"/>
</a>
</g>
</g>
<!-- observation_biomass_quadrat_details&#45;&gt;observation_plot_positions -->
<g id="edge1" class="edge">
<title>observation_biomass_quadrat_details:w&#45;&gt;observation_plot_positions:e</title>
<path fill="none" stroke="black" d="M320.77,-463.71C285.35,-443.23 343.52,-334 286.5,-334"/>
<polygon fill="black" stroke="black" points="327.21,-465.2 334.19,-470.51 331.1,-466.1 335,-467 335,-467 335,-467 331.1,-466.1 335.81,-463.49 327.21,-465.2 327.21,-465.2"/>
<ellipse fill="none" stroke="black" cx="324.09" cy="-464.48" rx="3.2" ry="3.2"/>
</g>
<!-- observation_biomass_quadrat_species -->
<g id="node3" class="node">
<title>observation_biomass_quadrat_species</title>
<g id="a_node3"><a xlink:href="../../tables/observation_biomass_quadrat_species.html" xlink:title="observation_biomass_quadrat_species" target="_top">
<polygon fill="#ffffff" stroke="transparent" points="653,-398 653,-544 925,-544 925,-398 653,-398"/>
<polygon fill="#f5f5f5" stroke="transparent" points="653,-522 653,-544 925,-544 925,-522 653,-522"/>
<polygon fill="none" stroke="black" points="653,-522 653,-544 925,-544 925,-522 653,-522"/>
<text text-anchor="start" x="658" y="-531.2" font-family="Helvetica,sans-Serif" font-weight="bold" font-size="11.00">observation_biomass_quadrat_species</text>
<text text-anchor="start" x="886" y="-530.2" font-family="Helvetica,sans-Serif" font-size="11.00">[table]</text>
<polygon fill="none" stroke="black" points="653,-500 653,-522 925,-522 925,-500 653,-500"/>
<image xlink:href="../../images/primaryKeys.png" width="11px" height="12px" preserveAspectRatio="xMinYMin meet" x="658" y="-517"/>
<text text-anchor="start" x="685" y="-508.2" font-family="Helvetica,sans-Serif" font-size="11.00">observation_id</text>
<polygon fill="none" stroke="black" points="653,-478 653,-500 925,-500 925,-478 653,-478"/>
<image xlink:href="../../images/primaryKeys.png" width="11px" height="12px" preserveAspectRatio="xMinYMin meet" x="658" y="-495"/>
<text text-anchor="start" x="685" y="-486.2" font-family="Helvetica,sans-Serif" font-size="11.00">monitoring_plot_id</text>
<polygon fill="none" stroke="black" points="653,-456 653,-478 925,-478 925,-456 653,-456"/>
<image xlink:href="../../images/primaryKeys.png" width="11px" height="12px" preserveAspectRatio="xMinYMin meet" x="658" y="-473"/>
<text text-anchor="start" x="685" y="-464.2" font-family="Helvetica,sans-Serif" font-size="11.00">position_id</text>
<polygon fill="none" stroke="black" points="653,-434 653,-456 925,-456 925,-434 653,-434"/>
<image xlink:href="../../images/primaryKeys.png" width="11px" height="12px" preserveAspectRatio="xMinYMin meet" x="658" y="-451"/>
<text text-anchor="start" x="685" y="-442.2" font-family="Helvetica,sans-Serif" font-size="11.00">biomass_species_id</text>
<polygon fill="none" stroke="black" points="653,-416 653,-434 925,-434 925,-416 653,-416"/>
<text text-anchor="start" x="656" y="-422.2" font-family="Helvetica,sans-Serif" font-size="11.00">...</text>
<polygon fill="#ffffff" stroke="transparent" points="653,-398 653,-416 787,-416 787,-398 653,-398"/>
<polygon fill="none" stroke="black" points="653,-398 653,-416 787,-416 787,-398 653,-398"/>
<text text-anchor="start" x="656" y="-404.2" font-family="Helvetica,sans-Serif" font-size="11.00">&lt; 9</text>
<polygon fill="#ffffff" stroke="transparent" points="787,-398 787,-416 856,-416 856,-398 787,-398"/>
<polygon fill="none" stroke="black" points="787,-398 787,-416 856,-416 856,-398 787,-398"/>
<text text-anchor="start" x="846" y="-404.2" font-family="Helvetica,sans-Serif" font-size="11.00"> &#160;</text>
<polygon fill="#ffffff" stroke="transparent" points="856,-398 856,-416 925,-416 925,-398 856,-398"/>
<polygon fill="none" stroke="black" points="856,-398 856,-416 925,-416 925,-398 856,-398"/>
<text text-anchor="start" x="915" y="-404.2" font-family="Helvetica,sans-Serif" font-size="11.00"> &#160;</text>
</a>
</g>
</g>
<!-- observation_biomass_quadrat_species&#45;&gt;observation_biomass_quadrat_details -->
<g id="edge2" class="edge">
<title>observation_biomass_quadrat_species:w&#45;&gt;observation_biomass_quadrat_details:e</title>
<path fill="none" stroke="black" d="M637.4,-489C626.93,-489 620.01,-489 605,-489"/>
<polygon fill="black" stroke="black" points="644,-489 652,-492.6 648,-489 652,-489 652,-489 652,-489 648,-489 652,-485.4 644,-489 644,-489"/>
<ellipse fill="none" stroke="black" cx="640.8" cy="-489" rx="3.2" ry="3.2"/>
</g>
<!-- observation_biomass_quadrat_species&#45;&gt;observation_biomass_quadrat_details -->
<g id="edge3" class="edge">
<title>observation_biomass_quadrat_species:w&#45;&gt;observation_biomass_quadrat_details:e</title>
<path fill="none" stroke="black" d="M637.4,-511C626.93,-511 620.01,-511 605,-511"/>
<polygon fill="black" stroke="black" points="644,-511 652,-514.6 648,-511 652,-511 652,-511 652,-511 648,-511 652,-507.4 644,-511 644,-511"/>
<ellipse fill="none" stroke="black" cx="640.8" cy="-511" rx="3.2" ry="3.2"/>
</g>
<!-- observation_biomass_quadrat_species&#45;&gt;observation_biomass_quadrat_details -->
<g id="edge4" class="edge">
<title>observation_biomass_quadrat_species:w&#45;&gt;observation_biomass_quadrat_details:e</title>
<path fill="none" stroke="black" d="M637.4,-467C626.93,-467 620.01,-467 605,-467"/>
<polygon fill="black" stroke="black" points="644,-467 652,-470.6 648,-467 652,-467 652,-467 652,-467 648,-467 652,-463.4 644,-467 644,-467"/>
<ellipse fill="none" stroke="black" cx="640.8" cy="-467" rx="3.2" ry="3.2"/>
</g>
<!-- observation_biomass_quadrat_species&#45;&gt;observation_plot_positions -->
<g id="edge5" class="edge">
<title>observation_biomass_quadrat_species:w&#45;&gt;observation_plot_positions:e</title>
<path fill="none" stroke="black" d="M638.04,-462.1C626.54,-450.67 633.11,-422.28 612,-410 502.4,-346.25 440.38,-441.71 328,-383 302.71,-369.79 315.04,-334 286.5,-334"/>
<polygon fill="black" stroke="black" points="644.45,-464.35 650.81,-470.4 648.23,-465.68 652,-467 652,-467 652,-467 648.23,-465.68 653.19,-463.6 644.45,-464.35 644.45,-464.35"/>
<ellipse fill="none" stroke="black" cx="641.43" cy="-463.29" rx="3.2" ry="3.2"/>
</g>
<!-- observation_media_files -->
<g id="node4" class="node">
<title>observation_media_files</title>
<g id="a_node4"><a xlink:href="../../tables/observation_media_files.html" xlink:title="observation_media_files" target="_top">
<polygon fill="#ffffff" stroke="transparent" points="376,-204 376,-372 564,-372 564,-204 376,-204"/>
<polygon fill="#f5f5f5" stroke="transparent" points="376,-350 376,-372 564,-372 564,-350 376,-350"/>
<polygon fill="none" stroke="black" points="376,-350 376,-372 564,-372 564,-350 376,-350"/>
<text text-anchor="start" x="381" y="-359.2" font-family="Helvetica,sans-Serif" font-weight="bold" font-size="11.00">observation_media_files</text>
<text text-anchor="start" x="525" y="-358.2" font-family="Helvetica,sans-Serif" font-size="11.00">[table]</text>
<polygon fill="none" stroke="black" points="376,-328 376,-350 564,-350 564,-328 376,-328"/>
<image xlink:href="../../images/primaryKeys.png" width="11px" height="12px" preserveAspectRatio="xMinYMin meet" x="381" y="-345"/>
<text text-anchor="start" x="408" y="-336.2" font-family="Helvetica,sans-Serif" font-size="11.00">file_id</text>
<polygon fill="none" stroke="black" points="376,-306 376,-328 564,-328 564,-306 376,-306"/>
<image xlink:href="../../images/foreignKeys.png" width="11px" height="12px" preserveAspectRatio="xMinYMin meet" x="381" y="-323"/>
<text text-anchor="start" x="408" y="-314.2" font-family="Helvetica,sans-Serif" font-size="11.00">observation_id</text>
<polygon fill="#ffffff" stroke="transparent" points="376,-284 376,-306 564,-306 564,-284 376,-284"/>
<polygon fill="none" stroke="black" points="376,-284 376,-306 564,-306 564,-284 376,-284"/>
<image xlink:href="../../images/foreignKeys.png" width="11px" height="12px" preserveAspectRatio="xMinYMin meet" x="381" y="-301"/>
<text text-anchor="start" x="408" y="-292.2" font-family="Helvetica,sans-Serif" font-size="11.00">monitoring_plot_id</text>
<polygon fill="none" stroke="black" points="376,-262 376,-284 564,-284 564,-262 376,-262"/>
<image xlink:href="../../images/foreignKeys.png" width="11px" height="12px" preserveAspectRatio="xMinYMin meet" x="381" y="-279"/>
<text text-anchor="start" x="408" y="-270.2" font-family="Helvetica,sans-Serif" font-size="11.00">position_id</text>
<polygon fill="none" stroke="black" points="376,-240 376,-262 564,-262 564,-240 376,-240"/>
<image xlink:href="../../images/foreignKeys.png" width="11px" height="12px" preserveAspectRatio="xMinYMin meet" x="381" y="-257"/>
<text text-anchor="start" x="408" y="-248.2" font-family="Helvetica,sans-Serif" font-size="11.00">type_id</text>
<polygon fill="none" stroke="black" points="376,-222 376,-240 564,-240 564,-222 376,-222"/>
<text text-anchor="start" x="379" y="-228.2" font-family="Helvetica,sans-Serif" font-size="11.00">...</text>
<polygon fill="#ffffff" stroke="transparent" points="376,-204 376,-222 468,-222 468,-204 376,-204"/>
<polygon fill="none" stroke="black" points="376,-204 376,-222 468,-222 468,-204 376,-204"/>
<text text-anchor="start" x="379" y="-210.2" font-family="Helvetica,sans-Serif" font-size="11.00">&lt; 6</text>
<polygon fill="#ffffff" stroke="transparent" points="468,-204 468,-222 516,-222 516,-204 468,-204"/>
<polygon fill="none" stroke="black" points="468,-204 468,-222 516,-222 516,-204 468,-204"/>
<text text-anchor="start" x="506" y="-210.2" font-family="Helvetica,sans-Serif" font-size="11.00"> &#160;</text>
<polygon fill="#ffffff" stroke="transparent" points="516,-204 516,-222 564,-222 564,-204 516,-204"/>
<polygon fill="none" stroke="black" points="516,-204 516,-222 564,-222 564,-204 516,-204"/>
<text text-anchor="start" x="554" y="-210.2" font-family="Helvetica,sans-Serif" font-size="11.00"> &#160;</text>
</a>
</g>
</g>
<!-- observation_media_files&#45;&gt;observation_plot_positions -->
<g id="edge6" class="edge">
<title>observation_media_files:w&#45;&gt;observation_plot_positions:e</title>
<path fill="none" stroke="black" d="M360.72,-275.17C328.12,-286.04 328.86,-334 286.5,-334"/>
<polygon fill="black" stroke="black" points="367.09,-274.2 375.54,-276.56 371.05,-273.6 375,-273 375,-273 375,-273 371.05,-273.6 374.46,-269.44 367.09,-274.2 367.09,-274.2"/>
<ellipse fill="none" stroke="black" cx="363.93" cy="-274.68" rx="3.2" ry="3.2"/>
</g>
<!-- observed_plot_coordinates -->
<g id="node5" class="node">
<title>observed_plot_coordinates</title>
<g id="a_node5"><a xlink:href="../../tables/observed_plot_coordinates.html" xlink:title="observed_plot_coordinates" target="_top">
<polygon fill="#ffffff" stroke="transparent" points="368.5,-37 368.5,-183 571.5,-183 571.5,-37 368.5,-37"/>
<polygon fill="#f5f5f5" stroke="transparent" points="369,-161 369,-183 572,-183 572,-161 369,-161"/>
<polygon fill="none" stroke="black" points="369,-161 369,-183 572,-183 572,-161 369,-161"/>
<text text-anchor="start" x="374" y="-170.2" font-family="Helvetica,sans-Serif" font-weight="bold" font-size="11.00">observed_plot_coordinates</text>
<text text-anchor="start" x="533" y="-169.2" font-family="Helvetica,sans-Serif" font-size="11.00">[table]</text>
<polygon fill="none" stroke="black" points="369,-139 369,-161 572,-161 572,-139 369,-139"/>
<image xlink:href="../../images/primaryKeys.png" width="11px" height="12px" preserveAspectRatio="xMinYMin meet" x="374" y="-156"/>
<text text-anchor="start" x="401" y="-147.2" font-family="Helvetica,sans-Serif" font-size="11.00">id</text>
<polygon fill="#ffffff" stroke="transparent" points="369,-117 369,-139 572,-139 572,-117 369,-117"/>
<polygon fill="none" stroke="black" points="369,-117 369,-139 572,-139 572,-117 369,-117"/>
<image xlink:href="../../images/foreignKeys.png" width="11px" height="12px" preserveAspectRatio="xMinYMin meet" x="374" y="-134"/>
<text text-anchor="start" x="401" y="-125.2" font-family="Helvetica,sans-Serif" font-size="11.00">observation_id</text>
<polygon fill="#ffffff" stroke="transparent" points="369,-95 369,-117 572,-117 572,-95 369,-95"/>
<polygon fill="none" stroke="black" points="369,-95 369,-117 572,-117 572,-95 369,-95"/>
<image xlink:href="../../images/foreignKeys.png" width="11px" height="12px" preserveAspectRatio="xMinYMin meet" x="374" y="-112"/>
<text text-anchor="start" x="401" y="-103.2" font-family="Helvetica,sans-Serif" font-size="11.00">monitoring_plot_id</text>
<polygon fill="#ffffff" stroke="transparent" points="369,-73 369,-95 572,-95 572,-73 369,-73"/>
<polygon fill="none" stroke="black" points="369,-73 369,-95 572,-95 572,-73 369,-73"/>
<image xlink:href="../../images/foreignKeys.png" width="11px" height="12px" preserveAspectRatio="xMinYMin meet" x="374" y="-90"/>
<text text-anchor="start" x="401" y="-81.2" font-family="Helvetica,sans-Serif" font-size="11.00">position_id</text>
<polygon fill="none" stroke="black" points="369,-55 369,-73 572,-73 572,-55 369,-55"/>
<text text-anchor="start" x="372" y="-61.2" font-family="Helvetica,sans-Serif" font-size="11.00">...</text>
<polygon fill="#ffffff" stroke="transparent" points="369,-37 369,-55 468,-55 468,-37 369,-37"/>
<polygon fill="none" stroke="black" points="369,-37 369,-55 468,-55 468,-37 369,-37"/>
<text text-anchor="start" x="372" y="-43.2" font-family="Helvetica,sans-Serif" font-size="11.00">&lt; 5</text>
<polygon fill="#ffffff" stroke="transparent" points="468,-37 468,-55 520,-55 520,-37 468,-37"/>
<polygon fill="none" stroke="black" points="468,-37 468,-55 520,-55 520,-37 468,-37"/>
<text text-anchor="start" x="510" y="-43.2" font-family="Helvetica,sans-Serif" font-size="11.00"> &#160;</text>
<polygon fill="#ffffff" stroke="transparent" points="520,-37 520,-55 572,-55 572,-37 520,-37"/>
<polygon fill="none" stroke="black" points="520,-37 520,-55 572,-55 572,-37 520,-37"/>
<text text-anchor="start" x="562" y="-43.2" font-family="Helvetica,sans-Serif" font-size="11.00"> &#160;</text>
</a>
</g>
</g>
<!-- observed_plot_coordinates&#45;&gt;observation_plot_positions -->
<g id="edge7" class="edge">
<title>observed_plot_coordinates:w&#45;&gt;observation_plot_positions:e</title>
<path fill="none" stroke="black" d="M353.65,-86.08C321.64,-97.12 342.51,-150 328,-194 307.68,-255.63 351.4,-334 286.5,-334"/>
<polygon fill="black" stroke="black" points="360.08,-85.15 368.52,-87.56 364.04,-84.57 368,-84 368,-84 368,-84 364.04,-84.57 367.48,-80.44 360.08,-85.15 360.08,-85.15"/>
<ellipse fill="none" stroke="black" cx="356.92" cy="-85.61" rx="3.2" ry="3.2"/>
</g>
</g>
</svg>
