<?xml version="1.0" encoding="UTF-8" standalone="no"?>
<!DOCTYPE svg PUBLIC "-//W3C//DTD SVG 1.1//EN"
 "http://www.w3.org/Graphics/SVG/1.1/DTD/svg11.dtd">
<!-- Generated by graphviz version 2.47.1 (20210515.0534)
 -->
<!-- Title: oneDegreeRelationshipsDiagram Pages: 1 -->
<svg width="581pt" height="522pt"
 viewBox="0.00 0.00 581.00 522.00" xmlns="http://www.w3.org/2000/svg" xmlns:xlink="http://www.w3.org/1999/xlink">
<g id="graph0" class="graph" transform="scale(1 1) rotate(0) translate(4 518)">
<title>oneDegreeRelationshipsDiagram</title>
<polygon fill="#ffffff" stroke="transparent" points="-4,4 -4,-518 577,-518 577,4 -4,4"/>
<text text-anchor="middle" x="73.5" y="-7.2" font-family="Helvetica,sans-Serif" font-size="11.00">Generated by SchemaSpy</text>
<!-- observed_plot_species_totals -->
<g id="node1" class="node">
<title>observed_plot_species_totals</title>
<g id="a_node1"><a xlink:href="../../tables/observed_plot_species_totals.html" xlink:title="observed_plot_species_totals" target="_top">
<polygon fill="#ffffff" stroke="transparent" points="275,-37 275,-345 565,-345 565,-37 275,-37"/>
<polygon fill="#f5f5f5" stroke="transparent" points="277,-321 277,-343 563,-343 563,-321 277,-321"/>
<polygon fill="none" stroke="black" points="277,-321 277,-343 563,-343 563,-321 277,-321"/>
<text text-anchor="start" x="282" y="-330.2" font-family="Helvetica,sans-Serif" font-weight="bold" font-size="11.00">observed_plot_species_totals</text>
<text text-anchor="start" x="524" y="-329.2" font-family="Helvetica,sans-Serif" font-size="11.00">[table]</text>
<polygon fill="#ffffff" stroke="transparent" points="277,-299 277,-321 469,-321 469,-299 277,-299"/>
<polygon fill="none" stroke="black" points="277,-299 277,-321 469,-321 469,-299 277,-299"/>
<image xlink:href="../../images/foreignKeys.png" width="11px" height="12px" preserveAspectRatio="xMinYMin meet" x="282" y="-316"/>
<text text-anchor="start" x="297" y="-307.2" font-family="Helvetica,sans-Serif" font-size="11.00">observation_id</text>
<polygon fill="none" stroke="black" points="469,-299 469,-321 563,-321 563,-299 469,-299"/>
<text text-anchor="start" x="472" y="-307.2" font-family="Helvetica,sans-Serif" font-size="11.00">int8[19]</text>
<polygon fill="#ffffff" stroke="transparent" points="277,-277 277,-299 469,-299 469,-277 277,-277"/>
<polygon fill="none" stroke="black" points="277,-277 277,-299 469,-299 469,-277 277,-277"/>
<image xlink:href="../../images/foreignKeys.png" width="11px" height="12px" preserveAspectRatio="xMinYMin meet" x="282" y="-294"/>
<text text-anchor="start" x="297" y="-285.2" font-family="Helvetica,sans-Serif" font-size="11.00">monitoring_plot_id</text>
<polygon fill="none" stroke="black" points="469,-277 469,-299 563,-299 563,-277 469,-277"/>
<text text-anchor="start" x="472" y="-285.2" font-family="Helvetica,sans-Serif" font-size="11.00">int8[19]</text>
<polygon fill="#ffffff" stroke="transparent" points="277,-255 277,-277 469,-277 469,-255 277,-255"/>
<polygon fill="none" stroke="black" points="277,-255 277,-277 469,-277 469,-255 277,-255"/>
<text text-anchor="start" x="297" y="-263.2" font-family="Helvetica,sans-Serif" font-size="11.00">species_id</text>
<polygon fill="none" stroke="black" points="469,-255 469,-277 563,-277 563,-255 469,-255"/>
<text text-anchor="start" x="472" y="-263.2" font-family="Helvetica,sans-Serif" font-size="11.00">int8[19]</text>
<polygon fill="#ffffff" stroke="transparent" points="277,-233 277,-255 469,-255 469,-233 277,-233"/>
<polygon fill="none" stroke="black" points="277,-233 277,-255 469,-255 469,-233 277,-233"/>
<text text-anchor="start" x="297" y="-241.2" font-family="Helvetica,sans-Serif" font-size="11.00">species_name</text>
<polygon fill="none" stroke="black" points="469,-233 469,-255 563,-255 563,-233 469,-233"/>
<text text-anchor="start" x="472" y="-241.2" font-family="Helvetica,sans-Serif" font-size="11.00">text[2147483647]</text>
<polygon fill="none" stroke="black" points="277,-211 277,-233 469,-233 469,-211 277,-211"/>
<image xlink:href="../../images/foreignKeys.png" width="11px" height="12px" preserveAspectRatio="xMinYMin meet" x="282" y="-228"/>
<text text-anchor="start" x="297" y="-219.2" font-family="Helvetica,sans-Serif" font-size="11.00">certainty_id</text>
<polygon fill="none" stroke="black" points="469,-211 469,-233 563,-233 563,-211 469,-211"/>
<text text-anchor="start" x="472" y="-219.2" font-family="Helvetica,sans-Serif" font-size="11.00">int4[10]</text>
<polygon fill="none" stroke="black" points="277,-189 277,-211 469,-211 469,-189 277,-189"/>
<text text-anchor="start" x="297" y="-197.2" font-family="Helvetica,sans-Serif" font-size="11.00">total_live</text>
<polygon fill="none" stroke="black" points="469,-189 469,-211 563,-211 563,-189 469,-189"/>
<text text-anchor="start" x="472" y="-197.2" font-family="Helvetica,sans-Serif" font-size="11.00">int4[10]</text>
<polygon fill="none" stroke="black" points="277,-167 277,-189 469,-189 469,-167 277,-167"/>
<text text-anchor="start" x="297" y="-175.2" font-family="Helvetica,sans-Serif" font-size="11.00">total_dead</text>
<polygon fill="none" stroke="black" points="469,-167 469,-189 563,-189 563,-167 469,-167"/>
<text text-anchor="start" x="472" y="-175.2" font-family="Helvetica,sans-Serif" font-size="11.00">int4[10]</text>
<polygon fill="none" stroke="black" points="277,-145 277,-167 469,-167 469,-145 277,-145"/>
<text text-anchor="start" x="297" y="-153.2" font-family="Helvetica,sans-Serif" font-size="11.00">total_existing</text>
<polygon fill="none" stroke="black" points="469,-145 469,-167 563,-167 563,-145 469,-145"/>
<text text-anchor="start" x="472" y="-153.2" font-family="Helvetica,sans-Serif" font-size="11.00">int4[10]</text>
<polygon fill="none" stroke="black" points="277,-123 277,-145 469,-145 469,-123 277,-123"/>
<text text-anchor="start" x="297" y="-131.2" font-family="Helvetica,sans-Serif" font-size="11.00">mortality_rate</text>
<polygon fill="none" stroke="black" points="469,-123 469,-145 563,-145 563,-123 469,-123"/>
<text text-anchor="start" x="472" y="-131.2" font-family="Helvetica,sans-Serif" font-size="11.00">int4[10]</text>
<polygon fill="none" stroke="black" points="277,-101 277,-123 469,-123 469,-101 277,-101"/>
<text text-anchor="start" x="297" y="-109.2" font-family="Helvetica,sans-Serif" font-size="11.00">cumulative_dead</text>
<polygon fill="none" stroke="black" points="469,-101 469,-123 563,-123 563,-101 469,-101"/>
<text text-anchor="start" x="472" y="-109.2" font-family="Helvetica,sans-Serif" font-size="11.00">int4[10]</text>
<polygon fill="none" stroke="black" points="277,-79 277,-101 469,-101 469,-79 277,-79"/>
<text text-anchor="start" x="297" y="-87.2" font-family="Helvetica,sans-Serif" font-size="11.00">permanent_live</text>
<polygon fill="none" stroke="black" points="469,-79 469,-101 563,-101 563,-79 469,-79"/>
<text text-anchor="start" x="472" y="-87.2" font-family="Helvetica,sans-Serif" font-size="11.00">int4[10]</text>
<polygon fill="none" stroke="black" points="277,-57 277,-79 469,-79 469,-57 277,-57"/>
<text text-anchor="start" x="297" y="-65.2" font-family="Helvetica,sans-Serif" font-size="11.00">survival_rate</text>
<polygon fill="none" stroke="black" points="469,-57 469,-79 563,-79 563,-57 469,-57"/>
<text text-anchor="start" x="472" y="-65.2" font-family="Helvetica,sans-Serif" font-size="11.00">int4[10]</text>
<polygon fill="#ffffff" stroke="transparent" points="277,-39 277,-57 377,-57 377,-39 277,-39"/>
<polygon fill="none" stroke="black" points="277,-39 277,-57 377,-57 377,-39 277,-39"/>
<text text-anchor="start" x="280" y="-45.2" font-family="Helvetica,sans-Serif" font-size="11.00">&lt; 3</text>
<polygon fill="#ffffff" stroke="transparent" points="377,-39 377,-57 469,-57 469,-39 377,-39"/>
<polygon fill="none" stroke="black" points="377,-39 377,-57 469,-57 469,-39 377,-39"/>
<text text-anchor="start" x="459" y="-45.2" font-family="Helvetica,sans-Serif" font-size="11.00"> &#160;</text>
<polygon fill="#ffffff" stroke="transparent" points="469,-39 469,-57 563,-57 563,-39 469,-39"/>
<polygon fill="none" stroke="black" points="469,-39 469,-57 563,-57 563,-39 469,-39"/>
<text text-anchor="start" x="544" y="-45.2" font-family="Helvetica,sans-Serif" font-size="11.00">0 &gt;</text>
<polygon fill="none" stroke="black" stroke-width="2" points="276,-38 276,-344 564,-344 564,-38 276,-38"/>
</a>
</g>
</g>
<!-- recorded_species_certainties -->
<g id="node2" class="node">
<title>recorded_species_certainties</title>
<g id="a_node2"><a xlink:href="../../tables/recorded_species_certainties.html" xlink:title="recorded_species_certainties" target="_top">
<polygon fill="#ffffff" stroke="transparent" points="9.5,-48 9.5,-132 224.5,-132 224.5,-48 9.5,-48"/>
<polygon fill="#f5f5f5" stroke="transparent" points="10,-110 10,-132 225,-132 225,-110 10,-110"/>
<polygon fill="none" stroke="black" points="10,-110 10,-132 225,-132 225,-110 10,-110"/>
<text text-anchor="start" x="15" y="-119.2" font-family="Helvetica,sans-Serif" font-weight="bold" font-size="11.00">recorded_species_certainties</text>
<text text-anchor="start" x="186" y="-118.2" font-family="Helvetica,sans-Serif" font-size="11.00">[table]</text>
<polygon fill="none" stroke="black" points="10,-88 10,-110 225,-110 225,-88 10,-88"/>
<image xlink:href="../../images/primaryKeys.png" width="11px" height="12px" preserveAspectRatio="xMinYMin meet" x="15" y="-105"/>
<text text-anchor="start" x="42" y="-96.2" font-family="Helvetica,sans-Serif" font-size="11.00">id</text>
<polygon fill="#ffffff" stroke="transparent" points="10,-66 10,-88 225,-88 225,-66 10,-66"/>
<polygon fill="none" stroke="black" points="10,-66 10,-88 225,-88 225,-66 10,-66"/>
<text text-anchor="start" x="42" y="-74.2" font-family="Helvetica,sans-Serif" font-size="11.00">name</text>
<polygon fill="#ffffff" stroke="transparent" points="10,-48 10,-66 106,-66 106,-48 10,-48"/>
<polygon fill="none" stroke="black" points="10,-48 10,-66 106,-66 106,-48 10,-48"/>
<text text-anchor="start" x="13" y="-54.2" font-family="Helvetica,sans-Serif" font-size="11.00"> &#160;</text>
<polygon fill="#ffffff" stroke="transparent" points="106,-48 106,-66 161,-66 161,-48 106,-48"/>
<polygon fill="none" stroke="black" points="106,-48 106,-66 161,-66 161,-48 106,-48"/>
<text text-anchor="start" x="151" y="-54.2" font-family="Helvetica,sans-Serif" font-size="11.00"> &#160;</text>
<polygon fill="#ffffff" stroke="transparent" points="161,-48 161,-66 225,-66 225,-48 161,-48"/>
<polygon fill="none" stroke="black" points="161,-48 161,-66 225,-66 225,-48 161,-48"/>
<text text-anchor="start" x="206" y="-54.2" font-family="Helvetica,sans-Serif" font-size="11.00">5 &gt;</text>
</a>
</g>
</g>
<!-- observed_plot_species_totals&#45;&gt;recorded_species_certainties -->
<g id="edge1" class="edge">
<title>observed_plot_species_totals:w&#45;&gt;recorded_species_certainties:e</title>
<path fill="none" stroke="black" d="M261.68,-218.45C229.5,-198.28 279.02,-99 226,-99"/>
<polygon fill="black" stroke="black" points="268.24,-220.08 275.13,-225.49 272.12,-221.04 276,-222 276,-222 276,-222 272.12,-221.04 276.87,-218.51 268.24,-220.08 268.24,-220.08"/>
<ellipse fill="none" stroke="black" cx="265.13" cy="-219.31" rx="3.2" ry="3.2"/>
</g>
<!-- monitoring_plots -->
<g id="node3" class="node">
<title>monitoring_plots</title>
<g id="a_node3"><a xlink:href="../../tables/monitoring_plots.html" xlink:title="monitoring_plots" target="_top">
<polygon fill="#ffffff" stroke="transparent" points="44.5,-153 44.5,-321 189.5,-321 189.5,-153 44.5,-153"/>
<polygon fill="#f5f5f5" stroke="transparent" points="45,-299 45,-321 190,-321 190,-299 45,-299"/>
<polygon fill="none" stroke="black" points="45,-299 45,-321 190,-321 190,-299 45,-299"/>
<text text-anchor="start" x="50" y="-308.2" font-family="Helvetica,sans-Serif" font-weight="bold" font-size="11.00">monitoring_plots</text>
<text text-anchor="start" x="151" y="-307.2" font-family="Helvetica,sans-Serif" font-size="11.00">[table]</text>
<polygon fill="none" stroke="black" points="45,-277 45,-299 190,-299 190,-277 45,-277"/>
<image xlink:href="../../images/primaryKeys.png" width="11px" height="12px" preserveAspectRatio="xMinYMin meet" x="50" y="-294"/>
<text text-anchor="start" x="75" y="-285.2" font-family="Helvetica,sans-Serif" font-size="11.00">id</text>
<polygon fill="#ffffff" stroke="transparent" points="45,-255 45,-277 190,-277 190,-255 45,-255"/>
<polygon fill="none" stroke="black" points="45,-255 45,-277 190,-277 190,-255 45,-255"/>
<image xlink:href="../../images/foreignKeys.png" width="11px" height="12px" preserveAspectRatio="xMinYMin meet" x="50" y="-272"/>
<text text-anchor="start" x="75" y="-263.2" font-family="Helvetica,sans-Serif" font-size="11.00">substratum_id</text>
<polygon fill="#ffffff" stroke="transparent" points="45,-233 45,-255 190,-255 190,-233 45,-233"/>
<polygon fill="none" stroke="black" points="45,-233 45,-255 190,-255 190,-233 45,-233"/>
<image xlink:href="../../images/foreignKeys.png" width="11px" height="12px" preserveAspectRatio="xMinYMin meet" x="50" y="-250"/>
<text text-anchor="start" x="75" y="-241.2" font-family="Helvetica,sans-Serif" font-size="11.00">planting_site_id</text>
<polygon fill="#ffffff" stroke="transparent" points="45,-211 45,-233 190,-233 190,-211 45,-211"/>
<polygon fill="none" stroke="black" points="45,-211 45,-233 190,-233 190,-211 45,-211"/>
<text text-anchor="start" x="75" y="-219.2" font-family="Helvetica,sans-Serif" font-size="11.00">organization_id</text>
<polygon fill="#ffffff" stroke="transparent" points="45,-189 45,-211 190,-211 190,-189 45,-189"/>
<polygon fill="none" stroke="black" points="45,-189 45,-211 190,-211 190,-189 45,-189"/>
<text text-anchor="start" x="75" y="-197.2" font-family="Helvetica,sans-Serif" font-size="11.00">plot_number</text>
<polygon fill="none" stroke="black" points="45,-171 45,-189 190,-189 190,-171 45,-171"/>
<text text-anchor="start" x="48" y="-177.2" font-family="Helvetica,sans-Serif" font-size="11.00">...</text>
<polygon fill="#ffffff" stroke="transparent" points="45,-153 45,-171 108,-171 108,-153 45,-153"/>
<polygon fill="none" stroke="black" points="45,-153 45,-171 108,-171 108,-153 45,-153"/>
<text text-anchor="start" x="48" y="-159.2" font-family="Helvetica,sans-Serif" font-size="11.00">&lt; 2</text>
<polygon fill="#ffffff" stroke="transparent" points="108,-153 108,-171 141,-171 141,-153 108,-153"/>
<polygon fill="none" stroke="black" points="108,-153 108,-171 141,-171 141,-153 108,-153"/>
<text text-anchor="start" x="131" y="-159.2" font-family="Helvetica,sans-Serif" font-size="11.00"> &#160;</text>
<polygon fill="#ffffff" stroke="transparent" points="141,-153 141,-171 190,-171 190,-153 141,-153"/>
<polygon fill="none" stroke="black" points="141,-153 141,-171 190,-171 190,-153 141,-153"/>
<text text-anchor="start" x="165" y="-159.2" font-family="Helvetica,sans-Serif" font-size="11.00">16 &gt;</text>
</a>
</g>
</g>
<!-- observed_plot_species_totals&#45;&gt;monitoring_plots -->
<g id="edge2" class="edge">
<title>observed_plot_species_totals:w&#45;&gt;monitoring_plots:e</title>
<path fill="none" stroke="black" d="M261.59,-288C235.01,-288 223.47,-288 191,-288"/>
<polygon fill="black" stroke="black" points="268,-288 276,-291.6 272,-288 276,-288 276,-288 276,-288 272,-288 276,-284.4 268,-288 268,-288"/>
<ellipse fill="none" stroke="black" cx="264.8" cy="-288" rx="3.2" ry="3.2"/>
</g>
<!-- observations -->
<g id="node4" class="node">
<title>observations</title>
<g id="a_node4"><a xlink:href="../../tables/observations.html" xlink:title="observations" target="_top">
<polygon fill="#ffffff" stroke="transparent" points="8,-342 8,-510 226,-510 226,-342 8,-342"/>
<polygon fill="#f5f5f5" stroke="transparent" points="8,-488 8,-510 226,-510 226,-488 8,-488"/>
<polygon fill="none" stroke="black" points="8,-488 8,-510 226,-510 226,-488 8,-488"/>
<text text-anchor="start" x="13" y="-497.2" font-family="Helvetica,sans-Serif" font-weight="bold" font-size="11.00">observations</text>
<text text-anchor="start" x="187" y="-496.2" font-family="Helvetica,sans-Serif" font-size="11.00">[table]</text>
<polygon fill="none" stroke="black" points="8,-466 8,-488 226,-488 226,-466 8,-466"/>
<image xlink:href="../../images/primaryKeys.png" width="11px" height="12px" preserveAspectRatio="xMinYMin meet" x="13" y="-483"/>
<text text-anchor="start" x="28" y="-474.2" font-family="Helvetica,sans-Serif" font-size="11.00">id</text>
<polygon fill="#ffffff" stroke="transparent" points="8,-444 8,-466 226,-466 226,-444 8,-444"/>
<polygon fill="none" stroke="black" points="8,-444 8,-466 226,-466 226,-444 8,-444"/>
<image xlink:href="../../images/foreignKeys.png" width="11px" height="12px" preserveAspectRatio="xMinYMin meet" x="13" y="-461"/>
<text text-anchor="start" x="28" y="-452.2" font-family="Helvetica,sans-Serif" font-size="11.00">planting_site_id</text>
<polygon fill="none" stroke="black" points="8,-422 8,-444 226,-444 226,-422 8,-422"/>
<image xlink:href="../../images/foreignKeys.png" width="11px" height="12px" preserveAspectRatio="xMinYMin meet" x="13" y="-439"/>
<text text-anchor="start" x="28" y="-430.2" font-family="Helvetica,sans-Serif" font-size="11.00">state_id</text>
<polygon fill="#ffffff" stroke="transparent" points="8,-400 8,-422 226,-422 226,-400 8,-400"/>
<polygon fill="none" stroke="black" points="8,-400 8,-422 226,-422 226,-400 8,-400"/>
<image xlink:href="../../images/foreignKeys.png" width="11px" height="12px" preserveAspectRatio="xMinYMin meet" x="13" y="-417"/>
<text text-anchor="start" x="28" y="-408.2" font-family="Helvetica,sans-Serif" font-size="11.00">planting_site_history_id</text>
<polygon fill="none" stroke="black" points="8,-378 8,-400 226,-400 226,-378 8,-378"/>
<image xlink:href="../../images/foreignKeys.png" width="11px" height="12px" preserveAspectRatio="xMinYMin meet" x="13" y="-395"/>
<text text-anchor="start" x="28" y="-386.2" font-family="Helvetica,sans-Serif" font-size="11.00">observation_type_id</text>
<polygon fill="none" stroke="black" points="8,-360 8,-378 226,-378 226,-360 8,-360"/>
<text text-anchor="start" x="11" y="-366.2" font-family="Helvetica,sans-Serif" font-size="11.00">...</text>
<polygon fill="#ffffff" stroke="transparent" points="8,-342 8,-360 107,-360 107,-342 8,-342"/>
<polygon fill="none" stroke="black" points="8,-342 8,-360 107,-360 107,-342 8,-342"/>
<text text-anchor="start" x="11" y="-348.2" font-family="Helvetica,sans-Serif" font-size="11.00">&lt; 4</text>
<polygon fill="#ffffff" stroke="transparent" points="107,-342 107,-360 159,-360 159,-342 107,-342"/>
<polygon fill="none" stroke="black" points="107,-342 107,-360 159,-360 159,-342 107,-342"/>
<text text-anchor="start" x="149" y="-348.2" font-family="Helvetica,sans-Serif" font-size="11.00"> &#160;</text>
<polygon fill="#ffffff" stroke="transparent" points="159,-342 159,-360 226,-360 226,-342 159,-342"/>
<polygon fill="none" stroke="black" points="159,-342 159,-360 226,-360 226,-342 159,-342"/>
<text text-anchor="start" x="201" y="-348.2" font-family="Helvetica,sans-Serif" font-size="11.00">16 &gt;</text>
</a>
</g>
</g>
<!-- observed_plot_species_totals&#45;&gt;observations -->
<g id="edge3" class="edge">
<title>observed_plot_species_totals:w&#45;&gt;observations:e</title>
<path fill="none" stroke="black" d="M261.65,-312.62C213.33,-333.87 298.61,-477 227,-477"/>
<polygon fill="black" stroke="black" points="268.13,-311.44 276.65,-313.54 272.07,-310.72 276,-310 276,-310 276,-310 272.07,-310.72 275.35,-306.46 268.13,-311.44 268.13,-311.44"/>
<ellipse fill="none" stroke="black" cx="264.98" cy="-312.01" rx="3.2" ry="3.2"/>
</g>
</g>
</svg>
