<?xml version="1.0" encoding="UTF-8" standalone="no"?>
<!DOCTYPE svg PUBLIC "-//W3C//DTD SVG 1.1//EN"
 "http://www.w3.org/Graphics/SVG/1.1/DTD/svg11.dtd">
<!-- Generated by graphviz version 2.38.0 (20140413.2041)
 -->
<!-- Title: twoDegreesRelationshipsDiagram Pages: 1 -->
<svg width="1100pt" height="581pt"
 viewBox="0.00 0.00 1100.00 580.85" xmlns="http://www.w3.org/2000/svg" xmlns:xlink="http://www.w3.org/1999/xlink">
<g id="graph0" class="graph" transform="scale(1 1) rotate(0) translate(4 576.847)">
<title>twoDegreesRelationshipsDiagram</title>
<polygon fill="#ffffff" stroke="none" points="-4,4 -4,-576.847 1096,-576.847 1096,4 -4,4"/>
<text text-anchor="middle" x="74.5" y="-7.2" font-family="Helvetica,sans-Serif" font-size="11.00">Generated by SchemaSpy</text>
<!-- monitoring_plot_histories -->
<g id="node1" class="node"><title>monitoring_plot_histories</title>
<g id="a_node1"><a xlink:href="../../tables/monitoring_plot_histories.html" xlink:title="monitoring_plot_histories" target="_top">
<polygon fill="#ffffff" stroke="none" points="890,-428 890,-486 1084,-486 1084,-428 890,-428"/>
<polygon fill="#f5f5f5" stroke="none" points="890,-464 890,-486 1084,-486 1084,-464 890,-464"/>
<polygon fill="none" stroke="black" points="890,-464 890,-486 1084,-486 1084,-464 890,-464"/>
<text text-anchor="start" x="895" y="-473.2" font-family="Helvetica,sans-Serif" font-weight="bold" font-size="11.00">monitoring_plot_histories</text>
<text text-anchor="start" x="1045" y="-472.2" font-family="Helvetica,sans-Serif" font-size="11.00">[table]</text>
<polygon fill="none" stroke="black" points="890,-446 890,-464 1084,-464 1084,-446 890,-446"/>
<text text-anchor="start" x="893" y="-452.2" font-family="Helvetica,sans-Serif" font-size="11.00">...</text>
<polygon fill="#ffffff" stroke="none" points="890,-428 890,-446 971,-446 971,-428 890,-428"/>
<polygon fill="none" stroke="black" points="890,-428 890,-446 971,-446 971,-428 890,-428"/>
<text text-anchor="start" x="893" y="-434.2" font-family="Helvetica,sans-Serif" font-size="11.00">&lt; 5</text>
<polygon fill="#ffffff" stroke="none" points="971,-428 971,-446 1042,-446 1042,-428 971,-428"/>
<polygon fill="none" stroke="black" points="971,-428 971,-446 1042,-446 1042,-428 971,-428"/>
<text text-anchor="start" x="1003" y="-434.2" font-family="Helvetica,sans-Serif" font-size="11.00">0 rows</text>
<polygon fill="#ffffff" stroke="none" points="1042,-428 1042,-446 1084,-446 1084,-428 1042,-428"/>
<polygon fill="none" stroke="black" points="1042,-428 1042,-446 1084,-446 1084,-428 1042,-428"/>
<text text-anchor="start" x="1074" y="-434.2" font-family="Helvetica,sans-Serif" font-size="11.00"> &#160;</text>
</a>
</g>
</g>
<!-- monitoring_plots -->
<g id="node2" class="node"><title>monitoring_plots</title>
<g id="a_node2"><a xlink:href="../../tables/monitoring_plots.html" xlink:title="monitoring_plots" target="_top">
<polygon fill="#ffffff" stroke="none" points="641.5,-454 641.5,-512 786.5,-512 786.5,-454 641.5,-454"/>
<polygon fill="#f5f5f5" stroke="none" points="642,-490 642,-512 787,-512 787,-490 642,-490"/>
<polygon fill="none" stroke="black" points="642,-490 642,-512 787,-512 787,-490 642,-490"/>
<text text-anchor="start" x="647" y="-499.2" font-family="Helvetica,sans-Serif" font-weight="bold" font-size="11.00">monitoring_plots</text>
<text text-anchor="start" x="748" y="-498.2" font-family="Helvetica,sans-Serif" font-size="11.00">[table]</text>
<polygon fill="none" stroke="black" points="642,-472 642,-490 787,-490 787,-472 642,-472"/>
<text text-anchor="start" x="645" y="-478.2" font-family="Helvetica,sans-Serif" font-size="11.00">...</text>
<polygon fill="#ffffff" stroke="none" points="642,-454 642,-472 693,-472 693,-454 642,-454"/>
<polygon fill="none" stroke="black" points="642,-454 642,-472 693,-472 693,-454 642,-454"/>
<text text-anchor="start" x="645" y="-460.2" font-family="Helvetica,sans-Serif" font-size="11.00">&lt; 2</text>
<polygon fill="#ffffff" stroke="none" points="693,-454 693,-472 749,-472 749,-454 693,-454"/>
<polygon fill="none" stroke="black" points="693,-454 693,-472 749,-472 749,-454 693,-454"/>
<text text-anchor="start" x="710" y="-460.2" font-family="Helvetica,sans-Serif" font-size="11.00">0 rows</text>
<polygon fill="#ffffff" stroke="none" points="749,-454 749,-472 787,-472 787,-454 749,-454"/>
<polygon fill="none" stroke="black" points="749,-454 749,-472 787,-472 787,-454 749,-454"/>
<text text-anchor="start" x="767" y="-460.2" font-family="Helvetica,sans-Serif" font-size="11.00">9 &gt;</text>
</a>
</g>
</g>
<!-- monitoring_plot_histories&#45;&gt;monitoring_plots -->
<g id="edge1" class="edge"><title>monitoring_plot_histories:elipses:w&#45;&gt;monitoring_plots:elipses:e</title>
<path fill="none" stroke="black" d="M874.602,-455.925C840.28,-460.557 829.102,-481 788,-481"/>
<polygon fill="black" stroke="black" points="881.016,-455.513 889.231,-458.593 885.008,-455.257 889,-455 889,-455 889,-455 885.008,-455.257 888.769,-451.407 881.016,-455.513 881.016,-455.513"/>
<ellipse fill="none" stroke="black" cx="877.823" cy="-455.718" rx="3.2" ry="3.2"/>
</g>
<!-- planting_sites -->
<g id="node3" class="node"><title>planting_sites</title>
<g id="a_node3"><a xlink:href="../../tables/planting_sites.html" xlink:title="planting_sites" target="_top">
<polygon fill="#ffffff" stroke="none" points="8,-282 8,-340 135,-340 135,-282 8,-282"/>
<polygon fill="#f5f5f5" stroke="none" points="8.5,-318 8.5,-340 135.5,-340 135.5,-318 8.5,-318"/>
<polygon fill="none" stroke="black" points="8.5,-318 8.5,-340 135.5,-340 135.5,-318 8.5,-318"/>
<text text-anchor="start" x="13.5" y="-327.2" font-family="Helvetica,sans-Serif" font-weight="bold" font-size="11.00">planting_sites</text>
<text text-anchor="start" x="96.5" y="-326.2" font-family="Helvetica,sans-Serif" font-size="11.00">[table]</text>
<polygon fill="none" stroke="black" points="8.5,-300 8.5,-318 135.5,-318 135.5,-300 8.5,-300"/>
<text text-anchor="start" x="11.5" y="-306.2" font-family="Helvetica,sans-Serif" font-size="11.00">...</text>
<polygon fill="#ffffff" stroke="none" points="8.5,-282 8.5,-300 42.5,-300 42.5,-282 8.5,-282"/>
<polygon fill="none" stroke="black" points="8.5,-282 8.5,-300 42.5,-300 42.5,-282 8.5,-282"/>
<text text-anchor="start" x="11.5" y="-288.2" font-family="Helvetica,sans-Serif" font-size="11.00"> &#160;</text>
<polygon fill="#ffffff" stroke="none" points="42.5,-282 42.5,-300 94.5,-300 94.5,-282 42.5,-282"/>
<polygon fill="none" stroke="black" points="42.5,-282 42.5,-300 94.5,-300 94.5,-282 42.5,-282"/>
<text text-anchor="start" x="55.5" y="-288.2" font-family="Helvetica,sans-Serif" font-size="11.00">0 rows</text>
<polygon fill="#ffffff" stroke="none" points="94.5,-282 94.5,-300 135.5,-300 135.5,-282 94.5,-282"/>
<polygon fill="none" stroke="black" points="94.5,-282 94.5,-300 135.5,-300 135.5,-282 94.5,-282"/>
<text text-anchor="start" x="108.5" y="-288.2" font-family="Helvetica,sans-Serif" font-size="11.00">12 &gt;</text>
</a>
</g>
</g>
<!-- monitoring_plot_histories&#45;&gt;planting_sites -->
<g id="edge2" class="edge"><title>monitoring_plot_histories:elipses:w&#45;&gt;planting_sites:elipses:e</title>
<path fill="none" stroke="black" d="M875.289,-459.414C861.295,-472.11 873.968,-508.72 849,-523 658.553,-631.925 567.483,-537.204 358,-472 274.942,-446.147 238.511,-460.493 176,-400 144.316,-369.339 180.59,-309 136.5,-309"/>
<polygon fill="black" stroke="black" points="881.385,-457.452 890.103,-458.427 885.192,-456.226 889,-455 889,-455 889,-455 885.192,-456.226 887.897,-451.573 881.385,-457.452 881.385,-457.452"/>
<ellipse fill="none" stroke="black" cx="878.339" cy="-458.433" rx="3.20001" ry="3.20001"/>
</g>
<!-- planting_subzone_histories -->
<g id="node4" class="node"><title>planting_subzone_histories</title>
<g id="a_node4"><a xlink:href="../../tables/planting_subzone_histories.html" xlink:title="planting_subzone_histories" target="_top">
<polygon fill="#ffffff" stroke="none" points="613,-348 613,-406 815,-406 815,-348 613,-348"/>
<polygon fill="#f5f5f5" stroke="none" points="613,-384 613,-406 815,-406 815,-384 613,-384"/>
<polygon fill="none" stroke="black" points="613,-384 613,-406 815,-406 815,-384 613,-384"/>
<text text-anchor="start" x="618" y="-393.2" font-family="Helvetica,sans-Serif" font-weight="bold" font-size="11.00">planting_subzone_histories</text>
<text text-anchor="start" x="776" y="-392.2" font-family="Helvetica,sans-Serif" font-size="11.00">[table]</text>
<polygon fill="none" stroke="black" points="613,-366 613,-384 815,-384 815,-366 613,-366"/>
<text text-anchor="start" x="616" y="-372.2" font-family="Helvetica,sans-Serif" font-size="11.00">...</text>
<polygon fill="#ffffff" stroke="none" points="613,-348 613,-366 693,-366 693,-348 613,-348"/>
<polygon fill="none" stroke="black" points="613,-348 613,-366 693,-366 693,-348 613,-348"/>
<text text-anchor="start" x="616" y="-354.2" font-family="Helvetica,sans-Serif" font-size="11.00">&lt; 2</text>
<polygon fill="#ffffff" stroke="none" points="693,-348 693,-366 763,-366 763,-348 693,-348"/>
<polygon fill="none" stroke="black" points="693,-348 693,-366 763,-366 763,-348 693,-348"/>
<text text-anchor="start" x="724" y="-354.2" font-family="Helvetica,sans-Serif" font-size="11.00">0 rows</text>
<polygon fill="#ffffff" stroke="none" points="763,-348 763,-366 815,-366 815,-348 763,-348"/>
<polygon fill="none" stroke="black" points="763,-348 763,-366 815,-366 815,-348 763,-348"/>
<text text-anchor="start" x="795" y="-354.2" font-family="Helvetica,sans-Serif" font-size="11.00">1 &gt;</text>
</a>
</g>
</g>
<!-- monitoring_plot_histories&#45;&gt;planting_subzone_histories -->
<g id="edge3" class="edge"><title>monitoring_plot_histories:elipses:w&#45;&gt;planting_subzone_histories:elipses:e</title>
<path fill="none" stroke="black" d="M874.79,-451.962C845.339,-437.349 858.493,-375 816,-375"/>
<polygon fill="black" stroke="black" points="881.177,-453.327 888.247,-458.52 885.088,-454.164 889,-455 889,-455 889,-455 885.088,-454.164 889.753,-451.48 881.177,-453.327 881.177,-453.327"/>
<ellipse fill="none" stroke="black" cx="878.048" cy="-452.658" rx="3.2" ry="3.2"/>
</g>
<!-- planting_subzones -->
<g id="node5" class="node"><title>planting_subzones</title>
<g id="a_node5"><a xlink:href="../../tables/planting_subzones.html" xlink:title="planting_subzones" target="_top">
<polygon fill="#ffffff" stroke="none" points="366,-215 366,-361 538,-361 538,-215 366,-215"/>
<polygon fill="#f5f5f5" stroke="none" points="366,-339 366,-361 538,-361 538,-339 366,-339"/>
<polygon fill="none" stroke="black" points="366,-339 366,-361 538,-361 538,-339 366,-339"/>
<text text-anchor="start" x="371" y="-348.2" font-family="Helvetica,sans-Serif" font-weight="bold" font-size="11.00">planting_subzones</text>
<text text-anchor="start" x="499" y="-347.2" font-family="Helvetica,sans-Serif" font-size="11.00">[table]</text>
<polygon fill="none" stroke="black" points="366,-317 366,-339 538,-339 538,-317 366,-317"/>
<image xlink:href="../../images/primaryKeys.png" width="11px" height="12px" preserveAspectRatio="xMinYMin meet" x="371" y="-334"/>
<text text-anchor="start" x="386" y="-325.2" font-family="Helvetica,sans-Serif" font-size="11.00">id</text>
<polygon fill="#ffffff" stroke="none" points="366,-295 366,-317 538,-317 538,-295 366,-295"/>
<polygon fill="none" stroke="black" points="366,-295 366,-317 538,-317 538,-295 366,-295"/>
<image xlink:href="../../images/foreignKeys.png" width="11px" height="12px" preserveAspectRatio="xMinYMin meet" x="371" y="-312"/>
<text text-anchor="start" x="386" y="-303.2" font-family="Helvetica,sans-Serif" font-size="11.00">planting_zone_id</text>
<polygon fill="#ffffff" stroke="none" points="366,-273 366,-295 538,-295 538,-273 366,-273"/>
<polygon fill="none" stroke="black" points="366,-273 366,-295 538,-295 538,-273 366,-273"/>
<text text-anchor="start" x="386" y="-281.2" font-family="Helvetica,sans-Serif" font-size="11.00">name</text>
<polygon fill="#ffffff" stroke="none" points="366,-251 366,-273 538,-273 538,-251 366,-251"/>
<polygon fill="none" stroke="black" points="366,-251 366,-273 538,-273 538,-251 366,-251"/>
<image xlink:href="../../images/foreignKeys.png" width="11px" height="12px" preserveAspectRatio="xMinYMin meet" x="371" y="-268"/>
<text text-anchor="start" x="386" y="-259.2" font-family="Helvetica,sans-Serif" font-size="11.00">planting_site_id</text>
<polygon fill="none" stroke="black" points="366,-233 366,-251 538,-251 538,-233 366,-233"/>
<text text-anchor="start" x="369" y="-239.2" font-family="Helvetica,sans-Serif" font-size="11.00">...</text>
<polygon fill="#ffffff" stroke="none" points="366,-215 366,-233 431,-233 431,-215 366,-215"/>
<polygon fill="none" stroke="black" points="366,-215 366,-233 431,-233 431,-215 366,-215"/>
<text text-anchor="start" x="369" y="-221.2" font-family="Helvetica,sans-Serif" font-size="11.00">&lt; 3</text>
<polygon fill="#ffffff" stroke="none" points="431,-215 431,-233 494,-233 494,-215 431,-215"/>
<polygon fill="none" stroke="black" points="431,-215 431,-233 494,-233 494,-215 431,-215"/>
<text text-anchor="start" x="455" y="-221.2" font-family="Helvetica,sans-Serif" font-size="11.00">0 rows</text>
<polygon fill="#ffffff" stroke="none" points="494,-215 494,-233 538,-233 538,-215 494,-215"/>
<polygon fill="none" stroke="black" points="494,-215 494,-233 538,-233 538,-215 494,-215"/>
<text text-anchor="start" x="518" y="-221.2" font-family="Helvetica,sans-Serif" font-size="11.00">7 &gt;</text>
</a>
</g>
</g>
<!-- monitoring_plot_histories&#45;&gt;planting_subzones -->
<g id="edge4" class="edge"><title>monitoring_plot_histories:elipses:w&#45;&gt;planting_subzones:id:e</title>
<path fill="none" stroke="black" d="M874.61,-452.755C866.706,-450.007 861.233,-445.423 849,-443 789.85,-431.283 628.009,-451.13 579,-416 544.082,-390.971 581.962,-328 539,-328"/>
<polygon fill="black" stroke="black" points="881.096,-453.767 888.445,-458.557 885.048,-454.383 889,-455 889,-455 889,-455 885.048,-454.383 889.555,-451.443 881.096,-453.767 881.096,-453.767"/>
<ellipse fill="none" stroke="black" cx="877.934" cy="-453.273" rx="3.2" ry="3.2"/>
</g>
<!-- monitoring_plots&#45;&gt;planting_sites -->
<g id="edge5" class="edge"><title>monitoring_plots:elipses:w&#45;&gt;planting_sites:elipses:e</title>
<path fill="none" stroke="black" d="M626.449,-480.966C423.195,-480.001 356.007,-457.734 176,-350 154.288,-337.006 161.803,-309 136.5,-309"/>
<polygon fill="black" stroke="black" points="633,-480.981 640.992,-484.6 637,-480.991 641,-481 641,-481 641,-481 637,-480.991 641.008,-477.4 633,-480.981 633,-480.981"/>
<ellipse fill="none" stroke="black" cx="629.8" cy="-480.974" rx="3.2" ry="3.2"/>
</g>
<!-- monitoring_plots&#45;&gt;planting_subzones -->
<g id="edge6" class="edge"><title>monitoring_plots:elipses:w&#45;&gt;planting_subzones:id:e</title>
<path fill="none" stroke="black" d="M626.555,-479.806C604.83,-475.782 596.036,-461.735 579,-440 546.393,-398.398 591.857,-328 539,-328"/>
<polygon fill="black" stroke="black" points="633.027,-480.341 640.704,-484.588 637.014,-480.671 641,-481 641,-481 641,-481 637.014,-480.671 641.296,-477.412 633.027,-480.341 633.027,-480.341"/>
<ellipse fill="none" stroke="black" cx="629.838" cy="-480.078" rx="3.2" ry="3.2"/>
</g>
<!-- planting_subzone_histories&#45;&gt;planting_subzones -->
<g id="edge8" class="edge"><title>planting_subzone_histories:elipses:w&#45;&gt;planting_subzones:id:e</title>
<path fill="none" stroke="black" d="M597.69,-372.338C573.726,-362.396 572.01,-328 539,-328"/>
<polygon fill="black" stroke="black" points="604.135,-373.537 611.342,-378.539 608.067,-374.269 612,-375 612,-375 612,-375 608.067,-374.269 612.658,-371.461 604.135,-373.537 604.135,-373.537"/>
<ellipse fill="none" stroke="black" cx="600.989" cy="-372.952" rx="3.2" ry="3.2"/>
</g>
<!-- planting_subzones&#45;&gt;planting_sites -->
<g id="edge10" class="edge"><title>planting_subzones:planting_site_id:w&#45;&gt;planting_sites:elipses:e</title>
<path fill="none" stroke="black" d="M350.322,-261.751C277.372,-259.271 248.556,-239.739 176,-271 153.628,-280.639 160.86,-309 136.5,-309"/>
<polygon fill="black" stroke="black" points="357.001,-261.864 364.939,-265.599 361.001,-261.932 365,-262 365,-262 365,-262 361.001,-261.932 365.061,-258.401 357.001,-261.864 357.001,-261.864"/>
<ellipse fill="none" stroke="black" cx="353.802" cy="-261.81" rx="3.2" ry="3.2"/>
</g>
<!-- planting_zones -->
<g id="node8" class="node"><title>planting_zones</title>
<g id="a_node8"><a xlink:href="../../tables/planting_zones.html" xlink:title="planting_zones" target="_top">
<polygon fill="#ffffff" stroke="none" points="184,-282 184,-340 317,-340 317,-282 184,-282"/>
<polygon fill="#f5f5f5" stroke="none" points="184.5,-318 184.5,-340 317.5,-340 317.5,-318 184.5,-318"/>
<polygon fill="none" stroke="black" points="184.5,-318 184.5,-340 317.5,-340 317.5,-318 184.5,-318"/>
<text text-anchor="start" x="189.5" y="-327.2" font-family="Helvetica,sans-Serif" font-weight="bold" font-size="11.00">planting_zones</text>
<text text-anchor="start" x="278.5" y="-326.2" font-family="Helvetica,sans-Serif" font-size="11.00">[table]</text>
<polygon fill="none" stroke="black" points="184.5,-300 184.5,-318 317.5,-318 317.5,-300 184.5,-300"/>
<text text-anchor="start" x="187.5" y="-306.2" font-family="Helvetica,sans-Serif" font-size="11.00">...</text>
<polygon fill="#ffffff" stroke="none" points="184.5,-282 184.5,-300 229.5,-300 229.5,-282 184.5,-282"/>
<polygon fill="none" stroke="black" points="184.5,-282 184.5,-300 229.5,-300 229.5,-282 184.5,-282"/>
<text text-anchor="start" x="187.5" y="-288.2" font-family="Helvetica,sans-Serif" font-size="11.00">&lt; 1</text>
<polygon fill="#ffffff" stroke="none" points="229.5,-282 229.5,-300 282.5,-300 282.5,-282 229.5,-282"/>
<polygon fill="none" stroke="black" points="229.5,-282 229.5,-300 282.5,-300 282.5,-282 229.5,-282"/>
<text text-anchor="start" x="243.5" y="-288.2" font-family="Helvetica,sans-Serif" font-size="11.00">0 rows</text>
<polygon fill="#ffffff" stroke="none" points="282.5,-282 282.5,-300 317.5,-300 317.5,-282 282.5,-282"/>
<polygon fill="none" stroke="black" points="282.5,-282 282.5,-300 317.5,-300 317.5,-282 282.5,-282"/>
<text text-anchor="start" x="297.5" y="-288.2" font-family="Helvetica,sans-Serif" font-size="11.00">5 &gt;</text>
</a>
</g>
</g>
<!-- planting_subzones&#45;&gt;planting_zones -->
<g id="edge11" class="edge"><title>planting_subzones:planting_site_id:w&#45;&gt;planting_zones:elipses:e</title>
<path fill="none" stroke="black" d="M351.183,-267.391C338.938,-279.737 341.686,-309 318.5,-309"/>
<polygon fill="black" stroke="black" points="357.547,-264.908 366.309,-265.354 361.274,-263.454 365,-262 365,-262 365,-262 361.274,-263.454 363.691,-258.646 357.547,-264.908 357.547,-264.908"/>
<ellipse fill="none" stroke="black" cx="354.566" cy="-266.071" rx="3.20001" ry="3.20001"/>
</g>
<!-- planting_subzones&#45;&gt;planting_zones -->
<g id="edge12" class="edge"><title>planting_subzones:planting_zone_id:w&#45;&gt;planting_zones:elipses:e</title>
<path fill="none" stroke="black" d="M350.54,-306.578C340.196,-307.45 333.385,-309 318.5,-309"/>
<polygon fill="black" stroke="black" points="357.006,-306.32 365.144,-309.597 361.003,-306.16 365,-306 365,-306 365,-306 361.003,-306.16 364.856,-302.403 357.006,-306.32 357.006,-306.32"/>
<ellipse fill="none" stroke="black" cx="353.809" cy="-306.448" rx="3.2" ry="3.2"/>
</g>
<!-- observation_requested_subzones -->
<g id="node6" class="node"><title>observation_requested_subzones</title>
<g id="a_node6"><a xlink:href="../../tables/observation_requested_subzones.html" xlink:title="observation_requested_subzones" target="_top">
<polygon fill="#ffffff" stroke="none" points="596,-269 596,-327 832,-327 832,-269 596,-269"/>
<polygon fill="#f5f5f5" stroke="none" points="596,-305 596,-327 832,-327 832,-305 596,-305"/>
<polygon fill="none" stroke="black" points="596,-305 596,-327 832,-327 832,-305 596,-305"/>
<text text-anchor="start" x="601" y="-314.2" font-family="Helvetica,sans-Serif" font-weight="bold" font-size="11.00">observation_requested_subzones</text>
<text text-anchor="start" x="793" y="-313.2" font-family="Helvetica,sans-Serif" font-size="11.00">[table]</text>
<polygon fill="none" stroke="black" points="596,-287 596,-305 832,-305 832,-287 596,-287"/>
<text text-anchor="start" x="599" y="-293.2" font-family="Helvetica,sans-Serif" font-size="11.00">...</text>
<polygon fill="#ffffff" stroke="none" points="596,-269 596,-287 698,-287 698,-269 596,-269"/>
<polygon fill="none" stroke="black" points="596,-269 596,-287 698,-287 698,-269 596,-269"/>
<text text-anchor="start" x="599" y="-275.2" font-family="Helvetica,sans-Serif" font-size="11.00">&lt; 2</text>
<polygon fill="#ffffff" stroke="none" points="698,-269 698,-287 779,-287 779,-269 698,-269"/>
<polygon fill="none" stroke="black" points="698,-269 698,-287 779,-287 779,-269 698,-269"/>
<text text-anchor="start" x="740" y="-275.2" font-family="Helvetica,sans-Serif" font-size="11.00">0 rows</text>
<polygon fill="#ffffff" stroke="none" points="779,-269 779,-287 832,-287 832,-269 779,-269"/>
<polygon fill="none" stroke="black" points="779,-269 779,-287 832,-287 832,-269 779,-269"/>
<text text-anchor="start" x="822" y="-275.2" font-family="Helvetica,sans-Serif" font-size="11.00"> &#160;</text>
</a>
</g>
</g>
<!-- observation_requested_subzones&#45;&gt;planting_subzones -->
<g id="edge7" class="edge"><title>observation_requested_subzones:elipses:w&#45;&gt;planting_subzones:id:e</title>
<path fill="none" stroke="black" d="M580.742,-299.425C565.637,-307.68 561.843,-328 539,-328"/>
<polygon fill="black" stroke="black" points="587.221,-297.868 595.841,-299.5 591.111,-296.934 595,-296 595,-296 595,-296 591.111,-296.934 594.159,-292.5 587.221,-297.868 587.221,-297.868"/>
<ellipse fill="none" stroke="black" cx="584.11" cy="-298.616" rx="3.2" ry="3.2"/>
</g>
<!-- planting_subzone_populations -->
<g id="node7" class="node"><title>planting_subzone_populations</title>
<g id="a_node7"><a xlink:href="../../tables/planting_subzone_populations.html" xlink:title="planting_subzone_populations" target="_top">
<polygon fill="#ffffff" stroke="none" points="587,-116 587,-248 841,-248 841,-116 587,-116"/>
<polygon fill="#f5f5f5" stroke="none" points="589,-224 589,-246 839,-246 839,-224 589,-224"/>
<polygon fill="none" stroke="black" points="589,-224 589,-246 839,-246 839,-224 589,-224"/>
<text text-anchor="start" x="594" y="-233.2" font-family="Helvetica,sans-Serif" font-weight="bold" font-size="11.00">planting_subzone_populations</text>
<text text-anchor="start" x="800" y="-232.2" font-family="Helvetica,sans-Serif" font-size="11.00">[table]</text>
<polygon fill="none" stroke="black" points="589,-202 589,-224 791,-224 791,-202 589,-202"/>
<image xlink:href="../../images/primaryKeys.png" width="11px" height="12px" preserveAspectRatio="xMinYMin meet" x="594" y="-219"/>
<text text-anchor="start" x="609" y="-210.2" font-family="Helvetica,sans-Serif" font-size="11.00">planting_subzone_id</text>
<polygon fill="none" stroke="black" points="791,-202 791,-224 839,-224 839,-202 791,-202"/>
<text text-anchor="start" x="794" y="-210.2" font-family="Helvetica,sans-Serif" font-size="11.00">int8[19]</text>
<polygon fill="none" stroke="black" points="589,-180 589,-202 791,-202 791,-180 589,-180"/>
<image xlink:href="../../images/primaryKeys.png" width="11px" height="12px" preserveAspectRatio="xMinYMin meet" x="594" y="-197"/>
<text text-anchor="start" x="609" y="-188.2" font-family="Helvetica,sans-Serif" font-size="11.00">species_id</text>
<polygon fill="none" stroke="black" points="791,-180 791,-202 839,-202 839,-180 791,-180"/>
<text text-anchor="start" x="794" y="-188.2" font-family="Helvetica,sans-Serif" font-size="11.00">int8[19]</text>
<polygon fill="none" stroke="black" points="589,-158 589,-180 791,-180 791,-158 589,-158"/>
<text text-anchor="start" x="609" y="-166.2" font-family="Helvetica,sans-Serif" font-size="11.00">total_plants</text>
<polygon fill="none" stroke="black" points="791,-158 791,-180 839,-180 839,-158 791,-158"/>
<text text-anchor="start" x="794" y="-166.2" font-family="Helvetica,sans-Serif" font-size="11.00">int4[10]</text>
<polygon fill="none" stroke="black" points="589,-136 589,-158 791,-158 791,-136 589,-136"/>
<text text-anchor="start" x="609" y="-144.2" font-family="Helvetica,sans-Serif" font-size="11.00">plants_since_last_observation</text>
<polygon fill="none" stroke="black" points="791,-136 791,-158 839,-158 839,-136 791,-136"/>
<text text-anchor="start" x="794" y="-144.2" font-family="Helvetica,sans-Serif" font-size="11.00">int4[10]</text>
<polygon fill="#ffffff" stroke="none" points="589,-118 589,-136 680,-136 680,-118 589,-118"/>
<polygon fill="none" stroke="black" points="589,-118 589,-136 680,-136 680,-118 589,-118"/>
<text text-anchor="start" x="592" y="-124.2" font-family="Helvetica,sans-Serif" font-size="11.00">&lt; 1</text>
<polygon fill="#ffffff" stroke="none" points="680,-118 680,-136 791,-136 791,-118 680,-118"/>
<polygon fill="none" stroke="black" points="680,-118 680,-136 791,-136 791,-118 680,-118"/>
<text text-anchor="start" x="752" y="-124.2" font-family="Helvetica,sans-Serif" font-size="11.00">0 rows</text>
<polygon fill="#ffffff" stroke="none" points="791,-118 791,-136 839,-136 839,-118 791,-118"/>
<polygon fill="none" stroke="black" points="791,-118 791,-136 839,-136 839,-118 791,-118"/>
<text text-anchor="start" x="819" y="-124.2" font-family="Helvetica,sans-Serif" font-size="11.00">0 &gt;</text>
<polygon fill="none" stroke="black" stroke-width="2" points="588,-117 588,-247 840,-247 840,-117 588,-117"/>
</a>
</g>
</g>
<!-- planting_subzone_populations&#45;&gt;planting_subzones -->
<g id="edge9" class="edge"><title>planting_subzone_populations:planting_subzone_id:w&#45;&gt;planting_subzones:id:e</title>
<path fill="none" stroke="black" d="M573.685,-216.826C544.623,-236.781 588.481,-328 539,-328"/>
<polygon fill="black" stroke="black" points="580.271,-215.066 588.93,-216.478 584.136,-214.033 588,-213 588,-213 588,-213 584.136,-214.033 587.07,-209.522 580.271,-215.066 580.271,-215.066"/>
<ellipse fill="none" stroke="black" cx="577.18" cy="-215.892" rx="3.2" ry="3.2"/>
</g>
<!-- planting_zones&#45;&gt;planting_sites -->
<g id="edge13" class="edge"><title>planting_zones:elipses:w&#45;&gt;planting_sites:elipses:e</title>
<path fill="none" stroke="black" d="M168.896,-309C158.434,-309 151.514,-309 136.5,-309"/>
<polygon fill="black" stroke="black" points="175.5,-309 183.5,-312.6 179.5,-309 183.5,-309 183.5,-309 183.5,-309 179.5,-309 183.5,-305.4 175.5,-309 175.5,-309"/>
<ellipse fill="none" stroke="black" cx="172.3" cy="-309" rx="3.2" ry="3.2"/>
</g>
<!-- plantings -->
<g id="node9" class="node"><title>plantings</title>
<g id="a_node9"><a xlink:href="../../tables/plantings.html" xlink:title="plantings" target="_top">
<polygon fill="#ffffff" stroke="none" points="663,-37 663,-95 765,-95 765,-37 663,-37"/>
<polygon fill="#f5f5f5" stroke="none" points="663,-73 663,-95 765,-95 765,-73 663,-73"/>
<polygon fill="none" stroke="black" points="663,-73 663,-95 765,-95 765,-73 663,-73"/>
<text text-anchor="start" x="668" y="-82.2" font-family="Helvetica,sans-Serif" font-weight="bold" font-size="11.00">plantings</text>
<text text-anchor="start" x="726" y="-81.2" font-family="Helvetica,sans-Serif" font-size="11.00">[table]</text>
<polygon fill="none" stroke="black" points="663,-55 663,-73 765,-73 765,-55 663,-55"/>
<text text-anchor="start" x="666" y="-61.2" font-family="Helvetica,sans-Serif" font-size="11.00">...</text>
<polygon fill="#ffffff" stroke="none" points="663,-37 663,-55 698,-55 698,-37 663,-37"/>
<polygon fill="none" stroke="black" points="663,-37 663,-55 698,-55 698,-37 663,-37"/>
<text text-anchor="start" x="666" y="-43.2" font-family="Helvetica,sans-Serif" font-size="11.00">&lt; 6</text>
<polygon fill="#ffffff" stroke="none" points="698,-37 698,-55 746,-55 746,-37 698,-37"/>
<polygon fill="none" stroke="black" points="698,-37 698,-55 746,-55 746,-37 698,-37"/>
<text text-anchor="start" x="707" y="-43.2" font-family="Helvetica,sans-Serif" font-size="11.00">0 rows</text>
<polygon fill="#ffffff" stroke="none" points="746,-37 746,-55 765,-55 765,-37 746,-37"/>
<polygon fill="none" stroke="black" points="746,-37 746,-55 765,-55 765,-37 746,-37"/>
<text text-anchor="start" x="755" y="-43.2" font-family="Helvetica,sans-Serif" font-size="11.00"> &#160;</text>
</a>
</g>
</g>
<!-- plantings&#45;&gt;planting_sites -->
<g id="edge14" class="edge"><title>plantings:elipses:w&#45;&gt;planting_sites:elipses:e</title>
<path fill="none" stroke="black" d="M647.3,-64.0605C427.368,-65.9052 353.493,-110.348 176,-251 151.556,-270.37 167.688,-309 136.5,-309"/>
<polygon fill="black" stroke="black" points="654,-64.033 662.015,-67.6 658,-64.0165 662,-64 662,-64 662,-64 658,-64.0165 661.985,-60.4 654,-64.033 654,-64.033"/>
<ellipse fill="none" stroke="black" cx="650.8" cy="-64.0461" rx="3.2" ry="3.2"/>
</g>
<!-- plantings&#45;&gt;planting_subzones -->
<g id="edge15" class="edge"><title>plantings:elipses:w&#45;&gt;planting_subzones:planting_site_id:e</title>
<path fill="none" stroke="black" d="M647.269,-64.4798C616.576,-66.7084 601.556,-77.1478 579,-105 533.682,-160.958 611.007,-262 539,-262"/>
<polygon fill="black" stroke="black" points="654.004,-64.2605 662.117,-67.5981 658.002,-64.1302 662,-64 662,-64 662,-64 658.002,-64.1302 661.883,-60.4019 654.004,-64.2605 654.004,-64.2605"/>
<ellipse fill="none" stroke="black" cx="650.806" cy="-64.3647" rx="3.2" ry="3.2"/>
</g>
<!-- plantings&#45;&gt;planting_subzones -->
<g id="edge16" class="edge"><title>plantings:elipses:w&#45;&gt;planting_subzones:id:e</title>
<path fill="none" stroke="black" d="M647.218,-64.4402C616.314,-66.5038 600.54,-76.3542 579,-105 548.743,-145.24 589.346,-328 539,-328"/>
<polygon fill="black" stroke="black" points="654.004,-64.2382 662.107,-67.5984 658.002,-64.1191 662,-64 662,-64 662,-64 658.002,-64.1191 661.893,-60.4016 654.004,-64.2382 654.004,-64.2382"/>
<ellipse fill="none" stroke="black" cx="650.805" cy="-64.3335" rx="3.2" ry="3.2"/>
</g>
</g>
</svg>
