<?xml version="1.0" encoding="UTF-8" standalone="no"?>
<!DOCTYPE svg PUBLIC "-//W3C//DTD SVG 1.1//EN"
 "http://www.w3.org/Graphics/SVG/1.1/DTD/svg11.dtd">
<!-- Generated by graphviz version 2.38.0 (20140413.2041)
 -->
<!-- Title: oneDegreeRelationshipsDiagram Pages: 1 -->
<svg width="1051pt" height="648pt"
 viewBox="0.00 0.00 1051.00 648.00" xmlns="http://www.w3.org/2000/svg" xmlns:xlink="http://www.w3.org/1999/xlink">
<g id="graph0" class="graph" transform="scale(1 1) rotate(0) translate(4 644)">
<title>oneDegreeRelationshipsDiagram</title>
<polygon fill="#ffffff" stroke="none" points="-4,4 -4,-644 1047,-644 1047,4 -4,4"/>
<text text-anchor="middle" x="74.5" y="-7.2" font-family="Helvetica,sans-Serif" font-size="11.00">Generated by SchemaSpy</text>
<!-- deliveries -->
<g id="node1" class="node"><title>deliveries</title>
<g id="a_node1"><a xlink:href="../../tables/deliveries.html" xlink:title="deliveries" target="_top">
<polygon fill="#ffffff" stroke="none" points="681,-323 681,-447 799,-447 799,-323 681,-323"/>
<polygon fill="#f5f5f5" stroke="none" points="681,-425 681,-447 799,-447 799,-425 681,-425"/>
<polygon fill="none" stroke="black" points="681,-425 681,-447 799,-447 799,-425 681,-425"/>
<text text-anchor="start" x="686" y="-434.2" font-family="Helvetica,sans-Serif" font-weight="bold" font-size="11.00">deliveries</text>
<text text-anchor="start" x="760" y="-433.2" font-family="Helvetica,sans-Serif" font-size="11.00">[table]</text>
<polygon fill="none" stroke="black" points="681,-403 681,-425 799,-425 799,-403 681,-403"/>
<image xlink:href="../../images/primaryKeys.png" width="11px" height="12px" preserveAspectRatio="xMinYMin meet" x="686" y="-420"/>
<text text-anchor="start" x="701" y="-411.2" font-family="Helvetica,sans-Serif" font-size="11.00">id</text>
<polygon fill="#ffffff" stroke="none" points="681,-381 681,-403 799,-403 799,-381 681,-381"/>
<polygon fill="none" stroke="black" points="681,-381 681,-403 799,-403 799,-381 681,-381"/>
<text text-anchor="start" x="701" y="-389.2" font-family="Helvetica,sans-Serif" font-size="11.00">withdrawal_id</text>
<polygon fill="#ffffff" stroke="none" points="681,-359 681,-381 799,-381 799,-359 681,-359"/>
<polygon fill="none" stroke="black" points="681,-359 681,-381 799,-381 799,-359 681,-359"/>
<image xlink:href="../../images/foreignKeys.png" width="11px" height="12px" preserveAspectRatio="xMinYMin meet" x="686" y="-376"/>
<text text-anchor="start" x="701" y="-367.2" font-family="Helvetica,sans-Serif" font-size="11.00">planting_site_id</text>
<polygon fill="none" stroke="black" points="681,-341 681,-359 799,-359 799,-341 681,-341"/>
<text text-anchor="start" x="684" y="-347.2" font-family="Helvetica,sans-Serif" font-size="11.00">...</text>
<polygon fill="#ffffff" stroke="none" points="681,-323 681,-341 719,-341 719,-323 681,-323"/>
<polygon fill="none" stroke="black" points="681,-323 681,-341 719,-341 719,-323 681,-323"/>
<text text-anchor="start" x="684" y="-329.2" font-family="Helvetica,sans-Serif" font-size="11.00">&lt; 1</text>
<polygon fill="#ffffff" stroke="none" points="719,-323 719,-341 768,-341 768,-323 719,-323"/>
<polygon fill="none" stroke="black" points="719,-323 719,-341 768,-341 768,-323 719,-323"/>
<text text-anchor="start" x="729" y="-329.2" font-family="Helvetica,sans-Serif" font-size="11.00">0 rows</text>
<polygon fill="#ffffff" stroke="none" points="768,-323 768,-341 799,-341 799,-323 768,-323"/>
<polygon fill="none" stroke="black" points="768,-323 768,-341 799,-341 799,-323 768,-323"/>
<text text-anchor="start" x="779" y="-329.2" font-family="Helvetica,sans-Serif" font-size="11.00">2 &gt;</text>
</a>
</g>
</g>
<!-- planting_sites -->
<g id="node2" class="node"><title>planting_sites</title>
<g id="a_node2"><a xlink:href="../../tables/planting_sites.html" xlink:title="planting_sites" target="_top">
<polygon fill="#ffffff" stroke="none" points="8,-37 8,-367 339,-367 339,-37 8,-37"/>
<polygon fill="#f5f5f5" stroke="none" points="10.5,-343 10.5,-365 337.5,-365 337.5,-343 10.5,-343"/>
<polygon fill="none" stroke="black" points="10.5,-343 10.5,-365 337.5,-365 337.5,-343 10.5,-343"/>
<text text-anchor="start" x="15.5" y="-352.2" font-family="Helvetica,sans-Serif" font-weight="bold" font-size="11.00">planting_sites</text>
<text text-anchor="start" x="298.5" y="-351.2" font-family="Helvetica,sans-Serif" font-size="11.00">[table]</text>
<polygon fill="none" stroke="black" points="10.5,-321 10.5,-343 206.5,-343 206.5,-321 10.5,-321"/>
<image xlink:href="../../images/primaryKeys.png" width="11px" height="12px" preserveAspectRatio="xMinYMin meet" x="15.5" y="-338"/>
<text text-anchor="start" x="30.5" y="-329.2" font-family="Helvetica,sans-Serif" font-size="11.00">id</text>
<polygon fill="none" stroke="black" points="206.5,-321 206.5,-343 337.5,-343 337.5,-321 206.5,-321"/>
<text text-anchor="start" x="209.5" y="-329.2" font-family="Helvetica,sans-Serif" font-size="11.00">int8[19]</text>
<polygon fill="#ffffff" stroke="none" points="10.5,-299 10.5,-321 206.5,-321 206.5,-299 10.5,-299"/>
<polygon fill="none" stroke="black" points="10.5,-299 10.5,-321 206.5,-321 206.5,-299 10.5,-299"/>
<text text-anchor="start" x="30.5" y="-307.2" font-family="Helvetica,sans-Serif" font-size="11.00">organization_id</text>
<polygon fill="none" stroke="black" points="206.5,-299 206.5,-321 337.5,-321 337.5,-299 206.5,-299"/>
<text text-anchor="start" x="209.5" y="-307.2" font-family="Helvetica,sans-Serif" font-size="11.00">int8[19]</text>
<polygon fill="#ffffff" stroke="none" points="10.5,-277 10.5,-299 206.5,-299 206.5,-277 10.5,-277"/>
<polygon fill="none" stroke="black" points="10.5,-277 10.5,-299 206.5,-299 206.5,-277 10.5,-277"/>
<text text-anchor="start" x="30.5" y="-285.2" font-family="Helvetica,sans-Serif" font-size="11.00">name</text>
<polygon fill="none" stroke="black" points="206.5,-277 206.5,-299 337.5,-299 337.5,-277 206.5,-277"/>
<text text-anchor="start" x="209.5" y="-285.2" font-family="Helvetica,sans-Serif" font-size="11.00">text[2147483647]</text>
<polygon fill="none" stroke="black" points="10.5,-255 10.5,-277 206.5,-277 206.5,-255 10.5,-255"/>
<text text-anchor="start" x="30.5" y="-263.2" font-family="Helvetica,sans-Serif" font-size="11.00">description</text>
<polygon fill="none" stroke="black" points="206.5,-255 206.5,-277 337.5,-277 337.5,-255 206.5,-255"/>
<text text-anchor="start" x="209.5" y="-263.2" font-family="Helvetica,sans-Serif" font-size="11.00">text[2147483647]</text>
<polygon fill="none" stroke="black" points="10.5,-233 10.5,-255 206.5,-255 206.5,-233 10.5,-233"/>
<text text-anchor="start" x="30.5" y="-241.2" font-family="Helvetica,sans-Serif" font-size="11.00">boundary</text>
<polygon fill="none" stroke="black" points="206.5,-233 206.5,-255 337.5,-255 337.5,-233 206.5,-233"/>
<text text-anchor="start" x="209.5" y="-241.2" font-family="Helvetica,sans-Serif" font-size="11.00">geometry[2147483647]</text>
<polygon fill="none" stroke="black" points="10.5,-211 10.5,-233 206.5,-233 206.5,-211 10.5,-211"/>
<text text-anchor="start" x="30.5" y="-219.2" font-family="Helvetica,sans-Serif" font-size="11.00">created_by</text>
<polygon fill="none" stroke="black" points="206.5,-211 206.5,-233 337.5,-233 337.5,-211 206.5,-211"/>
<text text-anchor="start" x="209.5" y="-219.2" font-family="Helvetica,sans-Serif" font-size="11.00">int8[19]</text>
<polygon fill="none" stroke="black" points="10.5,-189 10.5,-211 206.5,-211 206.5,-189 10.5,-189"/>
<text text-anchor="start" x="30.5" y="-197.2" font-family="Helvetica,sans-Serif" font-size="11.00">created_time</text>
<polygon fill="none" stroke="black" points="206.5,-189 206.5,-211 337.5,-211 337.5,-189 206.5,-189"/>
<text text-anchor="start" x="209.5" y="-197.2" font-family="Helvetica,sans-Serif" font-size="11.00">timestamptz[35,6]</text>
<polygon fill="none" stroke="black" points="10.5,-167 10.5,-189 206.5,-189 206.5,-167 10.5,-167"/>
<text text-anchor="start" x="30.5" y="-175.2" font-family="Helvetica,sans-Serif" font-size="11.00">modified_by</text>
<polygon fill="none" stroke="black" points="206.5,-167 206.5,-189 337.5,-189 337.5,-167 206.5,-167"/>
<text text-anchor="start" x="209.5" y="-175.2" font-family="Helvetica,sans-Serif" font-size="11.00">int8[19]</text>
<polygon fill="none" stroke="black" points="10.5,-145 10.5,-167 206.5,-167 206.5,-145 10.5,-145"/>
<text text-anchor="start" x="30.5" y="-153.2" font-family="Helvetica,sans-Serif" font-size="11.00">modified_time</text>
<polygon fill="none" stroke="black" points="206.5,-145 206.5,-167 337.5,-167 337.5,-145 206.5,-145"/>
<text text-anchor="start" x="209.5" y="-153.2" font-family="Helvetica,sans-Serif" font-size="11.00">timestamptz[35,6]</text>
<polygon fill="none" stroke="black" points="10.5,-123 10.5,-145 206.5,-145 206.5,-123 10.5,-123"/>
<text text-anchor="start" x="30.5" y="-131.2" font-family="Helvetica,sans-Serif" font-size="11.00">time_zone</text>
<polygon fill="none" stroke="black" points="206.5,-123 206.5,-145 337.5,-145 337.5,-123 206.5,-123"/>
<text text-anchor="start" x="209.5" y="-131.2" font-family="Helvetica,sans-Serif" font-size="11.00">text[2147483647]</text>
<polygon fill="none" stroke="black" points="10.5,-101 10.5,-123 206.5,-123 206.5,-101 10.5,-101"/>
<text text-anchor="start" x="30.5" y="-109.2" font-family="Helvetica,sans-Serif" font-size="11.00">planting_season_start_month</text>
<polygon fill="none" stroke="black" points="206.5,-101 206.5,-123 337.5,-123 337.5,-101 206.5,-101"/>
<text text-anchor="start" x="209.5" y="-109.2" font-family="Helvetica,sans-Serif" font-size="11.00">int4[10]</text>
<polygon fill="none" stroke="black" points="10.5,-79 10.5,-101 206.5,-101 206.5,-79 10.5,-79"/>
<text text-anchor="start" x="30.5" y="-87.2" font-family="Helvetica,sans-Serif" font-size="11.00">planting_season_end_month</text>
<polygon fill="none" stroke="black" points="206.5,-79 206.5,-101 337.5,-101 337.5,-79 206.5,-79"/>
<text text-anchor="start" x="209.5" y="-87.2" font-family="Helvetica,sans-Serif" font-size="11.00">int4[10]</text>
<polygon fill="none" stroke="black" points="10.5,-57 10.5,-79 206.5,-79 206.5,-57 10.5,-57"/>
<text text-anchor="start" x="30.5" y="-65.2" font-family="Helvetica,sans-Serif" font-size="11.00">area_ha</text>
<polygon fill="none" stroke="black" points="206.5,-57 206.5,-79 337.5,-79 337.5,-57 206.5,-57"/>
<text text-anchor="start" x="209.5" y="-65.2" font-family="Helvetica,sans-Serif" font-size="11.00">numeric[131089]</text>
<polygon fill="#ffffff" stroke="none" points="10.5,-39 10.5,-57 98.5,-57 98.5,-39 10.5,-39"/>
<polygon fill="none" stroke="black" points="10.5,-39 10.5,-57 98.5,-57 98.5,-39 10.5,-39"/>
<text text-anchor="start" x="13.5" y="-45.2" font-family="Helvetica,sans-Serif" font-size="11.00">&lt; 0</text>
<polygon fill="#ffffff" stroke="none" points="98.5,-39 98.5,-57 206.5,-57 206.5,-39 98.5,-39"/>
<polygon fill="none" stroke="black" points="98.5,-39 98.5,-57 206.5,-57 206.5,-39 98.5,-39"/>
<text text-anchor="start" x="167.5" y="-45.2" font-family="Helvetica,sans-Serif" font-size="11.00">0 rows</text>
<polygon fill="#ffffff" stroke="none" points="206.5,-39 206.5,-57 337.5,-57 337.5,-39 206.5,-39"/>
<polygon fill="none" stroke="black" points="206.5,-39 206.5,-57 337.5,-57 337.5,-39 206.5,-39"/>
<text text-anchor="start" x="317.5" y="-45.2" font-family="Helvetica,sans-Serif" font-size="11.00">7 &gt;</text>
<polygon fill="none" stroke="black" stroke-width="2" points="9,-38 9,-366 338,-366 338,-38 9,-38"/>
</a>
</g>
</g>
<!-- deliveries&#45;&gt;planting_sites -->
<g id="edge1" class="edge"><title>deliveries:planting_site_id:w&#45;&gt;planting_sites:id.type:e</title>
<path fill="none" stroke="black" d="M665.383,-369.089C637.761,-365.41 627.801,-351.574 594,-346 481.79,-327.495 452.226,-332 338.5,-332"/>
<polygon fill="black" stroke="black" points="672.015,-369.503 679.776,-373.593 676.008,-369.751 680,-370 680,-370 680,-370 676.008,-369.751 680.224,-366.407 672.015,-369.503 672.015,-369.503"/>
<ellipse fill="none" stroke="black" cx="668.822" cy="-369.304" rx="3.2" ry="3.2"/>
</g>
<!-- observations -->
<g id="node3" class="node"><title>observations</title>
<g id="a_node3"><a xlink:href="../../tables/observations.html" xlink:title="observations" target="_top">
<polygon fill="#ffffff" stroke="none" points="426,-511 426,-635 548,-635 548,-511 426,-511"/>
<polygon fill="#f5f5f5" stroke="none" points="426,-613 426,-635 548,-635 548,-613 426,-613"/>
<polygon fill="none" stroke="black" points="426,-613 426,-635 548,-635 548,-613 426,-613"/>
<text text-anchor="start" x="431" y="-622.2" font-family="Helvetica,sans-Serif" font-weight="bold" font-size="11.00">observations</text>
<text text-anchor="start" x="509" y="-621.2" font-family="Helvetica,sans-Serif" font-size="11.00">[table]</text>
<polygon fill="none" stroke="black" points="426,-591 426,-613 548,-613 548,-591 426,-591"/>
<image xlink:href="../../images/primaryKeys.png" width="11px" height="12px" preserveAspectRatio="xMinYMin meet" x="431" y="-608"/>
<text text-anchor="start" x="449" y="-599.2" font-family="Helvetica,sans-Serif" font-size="11.00">id</text>
<polygon fill="#ffffff" stroke="none" points="426,-569 426,-591 548,-591 548,-569 426,-569"/>
<polygon fill="none" stroke="black" points="426,-569 426,-591 548,-591 548,-569 426,-569"/>
<image xlink:href="../../images/foreignKeys.png" width="11px" height="12px" preserveAspectRatio="xMinYMin meet" x="431" y="-586"/>
<text text-anchor="start" x="449" y="-577.2" font-family="Helvetica,sans-Serif" font-size="11.00">planting_site_id</text>
<polygon fill="none" stroke="black" points="426,-547 426,-569 548,-569 548,-547 426,-547"/>
<image xlink:href="../../images/foreignKeys.png" width="11px" height="12px" preserveAspectRatio="xMinYMin meet" x="431" y="-564"/>
<text text-anchor="start" x="449" y="-555.2" font-family="Helvetica,sans-Serif" font-size="11.00">state_id</text>
<polygon fill="none" stroke="black" points="426,-529 426,-547 548,-547 548,-529 426,-529"/>
<text text-anchor="start" x="429" y="-535.2" font-family="Helvetica,sans-Serif" font-size="11.00">...</text>
<polygon fill="#ffffff" stroke="none" points="426,-511 426,-529 466,-529 466,-511 426,-511"/>
<polygon fill="none" stroke="black" points="426,-511 426,-529 466,-529 466,-511 426,-511"/>
<text text-anchor="start" x="429" y="-517.2" font-family="Helvetica,sans-Serif" font-size="11.00">&lt; 2</text>
<polygon fill="#ffffff" stroke="none" points="466,-511 466,-529 516,-529 516,-511 466,-511"/>
<polygon fill="none" stroke="black" points="466,-511 466,-529 516,-529 516,-511 466,-511"/>
<text text-anchor="start" x="477" y="-517.2" font-family="Helvetica,sans-Serif" font-size="11.00">0 rows</text>
<polygon fill="#ffffff" stroke="none" points="516,-511 516,-529 548,-529 548,-511 516,-511"/>
<polygon fill="none" stroke="black" points="516,-511 516,-529 548,-529 548,-511 516,-511"/>
<text text-anchor="start" x="528" y="-517.2" font-family="Helvetica,sans-Serif" font-size="11.00">7 &gt;</text>
</a>
</g>
</g>
<!-- observations&#45;&gt;planting_sites -->
<g id="edge2" class="edge"><title>observations:planting_site_id:w&#45;&gt;planting_sites:id.type:e</title>
<path fill="none" stroke="black" d="M410.613,-577.7C384.96,-567.95 393.403,-528.926 380,-494 353.371,-424.609 412.825,-332 338.5,-332"/>
<polygon fill="black" stroke="black" points="417.1,-578.737 424.432,-583.555 421.05,-579.369 425,-580 425,-580 425,-580 421.05,-579.369 425.568,-576.445 417.1,-578.737 417.1,-578.737"/>
<ellipse fill="none" stroke="black" cx="413.94" cy="-578.232" rx="3.2" ry="3.2"/>
</g>
<!-- observed_site_species_totals -->
<g id="node4" class="node"><title>observed_site_species_totals</title>
<g id="a_node4"><a xlink:href="../../tables/observed_site_species_totals.html" xlink:title="observed_site_species_totals" target="_top">
<polygon fill="#ffffff" stroke="none" points="635,-468 635,-636 845,-636 845,-468 635,-468"/>
<polygon fill="#f5f5f5" stroke="none" points="635,-614 635,-636 845,-636 845,-614 635,-614"/>
<polygon fill="none" stroke="black" points="635,-614 635,-636 845,-636 845,-614 635,-614"/>
<text text-anchor="start" x="640" y="-623.2" font-family="Helvetica,sans-Serif" font-weight="bold" font-size="11.00">observed_site_species_totals</text>
<text text-anchor="start" x="806" y="-622.2" font-family="Helvetica,sans-Serif" font-size="11.00">[table]</text>
<polygon fill="#ffffff" stroke="none" points="635,-592 635,-614 845,-614 845,-592 635,-592"/>
<polygon fill="none" stroke="black" points="635,-592 635,-614 845,-614 845,-592 635,-592"/>
<image xlink:href="../../images/foreignKeys.png" width="11px" height="12px" preserveAspectRatio="xMinYMin meet" x="640" y="-609"/>
<text text-anchor="start" x="665" y="-600.2" font-family="Helvetica,sans-Serif" font-size="11.00">observation_id</text>
<polygon fill="#ffffff" stroke="none" points="635,-570 635,-592 845,-592 845,-570 635,-570"/>
<polygon fill="none" stroke="black" points="635,-570 635,-592 845,-592 845,-570 635,-570"/>
<image xlink:href="../../images/foreignKeys.png" width="11px" height="12px" preserveAspectRatio="xMinYMin meet" x="640" y="-587"/>
<text text-anchor="start" x="665" y="-578.2" font-family="Helvetica,sans-Serif" font-size="11.00">planting_site_id</text>
<polygon fill="#ffffff" stroke="none" points="635,-548 635,-570 845,-570 845,-548 635,-548"/>
<polygon fill="none" stroke="black" points="635,-548 635,-570 845,-570 845,-548 635,-548"/>
<text text-anchor="start" x="665" y="-556.2" font-family="Helvetica,sans-Serif" font-size="11.00">species_id</text>
<polygon fill="#ffffff" stroke="none" points="635,-526 635,-548 845,-548 845,-526 635,-526"/>
<polygon fill="none" stroke="black" points="635,-526 635,-548 845,-548 845,-526 635,-526"/>
<text text-anchor="start" x="665" y="-534.2" font-family="Helvetica,sans-Serif" font-size="11.00">species_name</text>
<polygon fill="none" stroke="black" points="635,-504 635,-526 845,-526 845,-504 635,-504"/>
<image xlink:href="../../images/foreignKeys.png" width="11px" height="12px" preserveAspectRatio="xMinYMin meet" x="640" y="-521"/>
<text text-anchor="start" x="665" y="-512.2" font-family="Helvetica,sans-Serif" font-size="11.00">certainty_id</text>
<polygon fill="none" stroke="black" points="635,-486 635,-504 845,-504 845,-486 635,-486"/>
<text text-anchor="start" x="638" y="-492.2" font-family="Helvetica,sans-Serif" font-size="11.00">...</text>
<polygon fill="#ffffff" stroke="none" points="635,-468 635,-486 724,-486 724,-468 635,-468"/>
<polygon fill="none" stroke="black" points="635,-468 635,-486 724,-486 724,-468 635,-468"/>
<text text-anchor="start" x="638" y="-474.2" font-family="Helvetica,sans-Serif" font-size="11.00">&lt; 3</text>
<polygon fill="#ffffff" stroke="none" points="724,-468 724,-486 799,-486 799,-468 724,-468"/>
<polygon fill="none" stroke="black" points="724,-468 724,-486 799,-486 799,-468 724,-468"/>
<text text-anchor="start" x="760" y="-474.2" font-family="Helvetica,sans-Serif" font-size="11.00">0 rows</text>
<polygon fill="#ffffff" stroke="none" points="799,-468 799,-486 845,-486 845,-468 799,-468"/>
<polygon fill="none" stroke="black" points="799,-468 799,-486 845,-486 845,-468 799,-468"/>
<text text-anchor="start" x="835" y="-474.2" font-family="Helvetica,sans-Serif" font-size="11.00"> &#160;</text>
</a>
</g>
</g>
<!-- observed_site_species_totals&#45;&gt;planting_sites -->
<g id="edge4" class="edge"><title>observed_site_species_totals:planting_site_id:w&#45;&gt;planting_sites:id.type:e</title>
<path fill="none" stroke="black" d="M620.098,-577.194C602.659,-564.11 621.146,-520.701 594,-501 516.168,-444.515 452.771,-531.872 380,-469 331.858,-427.407 402.121,-332 338.5,-332"/>
<polygon fill="black" stroke="black" points="626.284,-578.887 633.049,-584.472 630.142,-579.944 634,-581 634,-581 634,-581 630.142,-579.944 634.951,-577.528 626.284,-578.887 626.284,-578.887"/>
<ellipse fill="none" stroke="black" cx="623.198" cy="-578.042" rx="3.20001" ry="3.20001"/>
</g>
<!-- observed_site_species_totals&#45;&gt;observations -->
<g id="edge3" class="edge"><title>observed_site_species_totals:observation_id:w&#45;&gt;observations:id:e</title>
<path fill="none" stroke="black" d="M619.585,-602.946C593.004,-602.739 581.468,-602 549,-602"/>
<polygon fill="black" stroke="black" points="626,-602.97 633.987,-606.6 630,-602.985 634,-603 634,-603 634,-603 630,-602.985 634.013,-599.4 626,-602.97 626,-602.97"/>
<ellipse fill="none" stroke="black" cx="622.8" cy="-602.958" rx="3.2" ry="3.2"/>
</g>
<!-- planting_site_populations -->
<g id="node5" class="node"><title>planting_site_populations</title>
<g id="a_node5"><a xlink:href="../../tables/planting_site_populations.html" xlink:title="planting_site_populations" target="_top">
<polygon fill="#ffffff" stroke="none" points="388,-356 388,-458 586,-458 586,-356 388,-356"/>
<polygon fill="#f5f5f5" stroke="none" points="388,-436 388,-458 586,-458 586,-436 388,-436"/>
<polygon fill="none" stroke="black" points="388,-436 388,-458 586,-458 586,-436 388,-436"/>
<text text-anchor="start" x="393" y="-445.2" font-family="Helvetica,sans-Serif" font-weight="bold" font-size="11.00">planting_site_populations</text>
<text text-anchor="start" x="547" y="-444.2" font-family="Helvetica,sans-Serif" font-size="11.00">[table]</text>
<polygon fill="none" stroke="black" points="388,-414 388,-436 586,-436 586,-414 388,-414"/>
<image xlink:href="../../images/primaryKeys.png" width="11px" height="12px" preserveAspectRatio="xMinYMin meet" x="393" y="-431"/>
<text text-anchor="start" x="408" y="-422.2" font-family="Helvetica,sans-Serif" font-size="11.00">planting_site_id</text>
<polygon fill="none" stroke="black" points="388,-392 388,-414 586,-414 586,-392 388,-392"/>
<image xlink:href="../../images/primaryKeys.png" width="11px" height="12px" preserveAspectRatio="xMinYMin meet" x="393" y="-409"/>
<text text-anchor="start" x="408" y="-400.2" font-family="Helvetica,sans-Serif" font-size="11.00">species_id</text>
<polygon fill="none" stroke="black" points="388,-374 388,-392 586,-392 586,-374 388,-374"/>
<text text-anchor="start" x="391" y="-380.2" font-family="Helvetica,sans-Serif" font-size="11.00">...</text>
<polygon fill="#ffffff" stroke="none" points="388,-356 388,-374 471,-374 471,-356 388,-356"/>
<polygon fill="none" stroke="black" points="388,-356 388,-374 471,-374 471,-356 388,-356"/>
<text text-anchor="start" x="391" y="-362.2" font-family="Helvetica,sans-Serif" font-size="11.00">&lt; 1</text>
<polygon fill="#ffffff" stroke="none" points="471,-356 471,-374 543,-374 543,-356 471,-356"/>
<polygon fill="none" stroke="black" points="471,-356 471,-374 543,-374 543,-356 471,-356"/>
<text text-anchor="start" x="504" y="-362.2" font-family="Helvetica,sans-Serif" font-size="11.00">0 rows</text>
<polygon fill="#ffffff" stroke="none" points="543,-356 543,-374 586,-374 586,-356 543,-356"/>
<polygon fill="none" stroke="black" points="543,-356 543,-374 586,-374 586,-356 543,-356"/>
<text text-anchor="start" x="576" y="-362.2" font-family="Helvetica,sans-Serif" font-size="11.00"> &#160;</text>
</a>
</g>
</g>
<!-- planting_site_populations&#45;&gt;planting_sites -->
<g id="edge5" class="edge"><title>planting_site_populations:planting_site_id:w&#45;&gt;planting_sites:id.type:e</title>
<path fill="none" stroke="black" d="M373.135,-420.762C350.398,-402.569 379.107,-332 338.5,-332"/>
<polygon fill="black" stroke="black" points="379.349,-422.662 385.948,-428.443 383.175,-423.831 387,-425 387,-425 387,-425 383.175,-423.831 388.052,-421.557 379.349,-422.662 379.349,-422.662"/>
<ellipse fill="none" stroke="black" cx="376.289" cy="-421.726" rx="3.20001" ry="3.20001"/>
</g>
<!-- planting_subzones -->
<g id="node6" class="node"><title>planting_subzones</title>
<g id="a_node6"><a xlink:href="../../tables/planting_subzones.html" xlink:title="planting_subzones" target="_top">
<polygon fill="#ffffff" stroke="none" points="654,-129 654,-275 826,-275 826,-129 654,-129"/>
<polygon fill="#f5f5f5" stroke="none" points="654,-253 654,-275 826,-275 826,-253 654,-253"/>
<polygon fill="none" stroke="black" points="654,-253 654,-275 826,-275 826,-253 654,-253"/>
<text text-anchor="start" x="659" y="-262.2" font-family="Helvetica,sans-Serif" font-weight="bold" font-size="11.00">planting_subzones</text>
<text text-anchor="start" x="787" y="-261.2" font-family="Helvetica,sans-Serif" font-size="11.00">[table]</text>
<polygon fill="none" stroke="black" points="654,-231 654,-253 826,-253 826,-231 654,-231"/>
<image xlink:href="../../images/primaryKeys.png" width="11px" height="12px" preserveAspectRatio="xMinYMin meet" x="659" y="-248"/>
<text text-anchor="start" x="674" y="-239.2" font-family="Helvetica,sans-Serif" font-size="11.00">id</text>
<polygon fill="#ffffff" stroke="none" points="654,-209 654,-231 826,-231 826,-209 654,-209"/>
<polygon fill="none" stroke="black" points="654,-209 654,-231 826,-231 826,-209 654,-209"/>
<image xlink:href="../../images/foreignKeys.png" width="11px" height="12px" preserveAspectRatio="xMinYMin meet" x="659" y="-226"/>
<text text-anchor="start" x="674" y="-217.2" font-family="Helvetica,sans-Serif" font-size="11.00">planting_zone_id</text>
<polygon fill="#ffffff" stroke="none" points="654,-187 654,-209 826,-209 826,-187 654,-187"/>
<polygon fill="none" stroke="black" points="654,-187 654,-209 826,-209 826,-187 654,-187"/>
<text text-anchor="start" x="674" y="-195.2" font-family="Helvetica,sans-Serif" font-size="11.00">name</text>
<polygon fill="#ffffff" stroke="none" points="654,-165 654,-187 826,-187 826,-165 654,-165"/>
<polygon fill="none" stroke="black" points="654,-165 654,-187 826,-187 826,-165 654,-165"/>
<image xlink:href="../../images/foreignKeys.png" width="11px" height="12px" preserveAspectRatio="xMinYMin meet" x="659" y="-182"/>
<text text-anchor="start" x="674" y="-173.2" font-family="Helvetica,sans-Serif" font-size="11.00">planting_site_id</text>
<polygon fill="none" stroke="black" points="654,-147 654,-165 826,-165 826,-147 654,-147"/>
<text text-anchor="start" x="657" y="-153.2" font-family="Helvetica,sans-Serif" font-size="11.00">...</text>
<polygon fill="#ffffff" stroke="none" points="654,-129 654,-147 719,-147 719,-129 654,-129"/>
<polygon fill="none" stroke="black" points="654,-129 654,-147 719,-147 719,-129 654,-129"/>
<text text-anchor="start" x="657" y="-135.2" font-family="Helvetica,sans-Serif" font-size="11.00">&lt; 3</text>
<polygon fill="#ffffff" stroke="none" points="719,-129 719,-147 782,-147 782,-129 719,-129"/>
<polygon fill="none" stroke="black" points="719,-129 719,-147 782,-147 782,-129 719,-129"/>
<text text-anchor="start" x="743" y="-135.2" font-family="Helvetica,sans-Serif" font-size="11.00">0 rows</text>
<polygon fill="#ffffff" stroke="none" points="782,-129 782,-147 826,-147 826,-129 782,-129"/>
<polygon fill="none" stroke="black" points="782,-129 782,-147 826,-147 826,-129 782,-129"/>
<text text-anchor="start" x="806" y="-135.2" font-family="Helvetica,sans-Serif" font-size="11.00">4 &gt;</text>
</a>
</g>
</g>
<!-- planting_subzones&#45;&gt;planting_sites -->
<g id="edge6" class="edge"><title>planting_subzones:planting_site_id:w&#45;&gt;planting_sites:id.type:e</title>
<path fill="none" stroke="black" d="M638.683,-173.39C621.681,-166.298 618.028,-146.752 594,-140 502.435,-114.271 454.018,-80.2716 380,-140 312.058,-194.826 425.804,-332 338.5,-332"/>
<polygon fill="black" stroke="black" points="645.13,-174.565 652.354,-179.542 649.065,-175.283 653,-176 653,-176 653,-176 649.065,-175.283 653.646,-172.458 645.13,-174.565 645.13,-174.565"/>
<ellipse fill="none" stroke="black" cx="641.982" cy="-173.991" rx="3.2" ry="3.2"/>
</g>
<!-- planting_zones -->
<g id="node7" class="node"><title>planting_zones</title>
<g id="a_node7"><a xlink:href="../../tables/planting_zones.html" xlink:title="planting_zones" target="_top">
<polygon fill="#ffffff" stroke="none" points="400.5,-151 400.5,-275 573.5,-275 573.5,-151 400.5,-151"/>
<polygon fill="#f5f5f5" stroke="none" points="401,-253 401,-275 574,-275 574,-253 401,-253"/>
<polygon fill="none" stroke="black" points="401,-253 401,-275 574,-275 574,-253 401,-253"/>
<text text-anchor="start" x="406" y="-262.2" font-family="Helvetica,sans-Serif" font-weight="bold" font-size="11.00">planting_zones</text>
<text text-anchor="start" x="535" y="-261.2" font-family="Helvetica,sans-Serif" font-size="11.00">[table]</text>
<polygon fill="none" stroke="black" points="401,-231 401,-253 574,-253 574,-231 401,-231"/>
<image xlink:href="../../images/primaryKeys.png" width="11px" height="12px" preserveAspectRatio="xMinYMin meet" x="406" y="-248"/>
<text text-anchor="start" x="421" y="-239.2" font-family="Helvetica,sans-Serif" font-size="11.00">id</text>
<polygon fill="#ffffff" stroke="none" points="401,-209 401,-231 574,-231 574,-209 401,-209"/>
<polygon fill="none" stroke="black" points="401,-209 401,-231 574,-231 574,-209 401,-209"/>
<image xlink:href="../../images/foreignKeys.png" width="11px" height="12px" preserveAspectRatio="xMinYMin meet" x="406" y="-226"/>
<text text-anchor="start" x="421" y="-217.2" font-family="Helvetica,sans-Serif" font-size="11.00">planting_site_id</text>
<polygon fill="#ffffff" stroke="none" points="401,-187 401,-209 574,-209 574,-187 401,-187"/>
<polygon fill="none" stroke="black" points="401,-187 401,-209 574,-209 574,-187 401,-187"/>
<text text-anchor="start" x="421" y="-195.2" font-family="Helvetica,sans-Serif" font-size="11.00">name</text>
<polygon fill="none" stroke="black" points="401,-169 401,-187 574,-187 574,-169 401,-169"/>
<text text-anchor="start" x="404" y="-175.2" font-family="Helvetica,sans-Serif" font-size="11.00">...</text>
<polygon fill="#ffffff" stroke="none" points="401,-151 401,-169 466,-169 466,-151 401,-151"/>
<polygon fill="none" stroke="black" points="401,-151 401,-169 466,-169 466,-151 401,-151"/>
<text text-anchor="start" x="404" y="-157.2" font-family="Helvetica,sans-Serif" font-size="11.00">&lt; 1</text>
<polygon fill="#ffffff" stroke="none" points="466,-151 466,-169 529,-169 529,-151 466,-151"/>
<polygon fill="none" stroke="black" points="466,-151 466,-169 529,-169 529,-151 466,-151"/>
<text text-anchor="start" x="490" y="-157.2" font-family="Helvetica,sans-Serif" font-size="11.00">0 rows</text>
<polygon fill="#ffffff" stroke="none" points="529,-151 529,-169 574,-169 574,-151 529,-151"/>
<polygon fill="none" stroke="black" points="529,-151 529,-169 574,-169 574,-151 529,-151"/>
<text text-anchor="start" x="554" y="-157.2" font-family="Helvetica,sans-Serif" font-size="11.00">4 &gt;</text>
</a>
</g>
</g>
<!-- planting_subzones&#45;&gt;planting_zones -->
<g id="edge7" class="edge"><title>planting_subzones:planting_site_id:w&#45;&gt;planting_zones:planting_site_id:e</title>
<path fill="none" stroke="black" d="M638.435,-178.366C612.83,-187.505 609.205,-220 575,-220"/>
<polygon fill="black" stroke="black" points="645.103,-177.283 653.577,-179.553 649.052,-176.641 653,-176 653,-176 653,-176 649.052,-176.641 652.423,-172.447 645.103,-177.283 645.103,-177.283"/>
<ellipse fill="none" stroke="black" cx="641.945" cy="-177.796" rx="3.2" ry="3.2"/>
</g>
<!-- planting_subzones&#45;&gt;planting_zones -->
<g id="edge8" class="edge"><title>planting_subzones:planting_zone_id:w&#45;&gt;planting_zones:id:e</title>
<path fill="none" stroke="black" d="M638.418,-221.376C614.467,-226.193 605.532,-242 575,-242"/>
<polygon fill="black" stroke="black" points="645.035,-220.752 653.338,-223.584 649.018,-220.376 653,-220 653,-220 653,-220 649.018,-220.376 652.662,-216.416 645.035,-220.752 645.035,-220.752"/>
<ellipse fill="none" stroke="black" cx="641.85" cy="-221.052" rx="3.2" ry="3.2"/>
</g>
<!-- planting_zones&#45;&gt;planting_sites -->
<g id="edge9" class="edge"><title>planting_zones:planting_site_id:w&#45;&gt;planting_sites:id.type:e</title>
<path fill="none" stroke="black" d="M385.838,-223.231C352.667,-241.595 389.521,-332 338.5,-332"/>
<polygon fill="black" stroke="black" points="392.2,-221.78 400.801,-223.51 396.1,-220.89 400,-220 400,-220 400,-220 396.1,-220.89 399.199,-216.49 392.2,-221.78 392.2,-221.78"/>
<ellipse fill="none" stroke="black" cx="389.081" cy="-222.491" rx="3.2" ry="3.2"/>
</g>
<!-- plantings -->
<g id="node8" class="node"><title>plantings</title>
<g id="a_node8"><a xlink:href="../../tables/plantings.html" xlink:title="plantings" target="_top">
<polygon fill="#ffffff" stroke="none" points="894,-208 894,-398 1035,-398 1035,-208 894,-208"/>
<polygon fill="#f5f5f5" stroke="none" points="894.5,-376 894.5,-398 1035.5,-398 1035.5,-376 894.5,-376"/>
<polygon fill="none" stroke="black" points="894.5,-376 894.5,-398 1035.5,-398 1035.5,-376 894.5,-376"/>
<text text-anchor="start" x="899.5" y="-385.2" font-family="Helvetica,sans-Serif" font-weight="bold" font-size="11.00">plantings</text>
<text text-anchor="start" x="996.5" y="-384.2" font-family="Helvetica,sans-Serif" font-size="11.00">[table]</text>
<polygon fill="none" stroke="black" points="894.5,-354 894.5,-376 1035.5,-376 1035.5,-354 894.5,-354"/>
<image xlink:href="../../images/primaryKeys.png" width="11px" height="12px" preserveAspectRatio="xMinYMin meet" x="899.5" y="-371"/>
<text text-anchor="start" x="914.5" y="-362.2" font-family="Helvetica,sans-Serif" font-size="11.00">id</text>
<polygon fill="#ffffff" stroke="none" points="894.5,-332 894.5,-354 1035.5,-354 1035.5,-332 894.5,-332"/>
<polygon fill="none" stroke="black" points="894.5,-332 894.5,-354 1035.5,-354 1035.5,-332 894.5,-332"/>
<image xlink:href="../../images/foreignKeys.png" width="11px" height="12px" preserveAspectRatio="xMinYMin meet" x="899.5" y="-349"/>
<text text-anchor="start" x="914.5" y="-340.2" font-family="Helvetica,sans-Serif" font-size="11.00">delivery_id</text>
<polygon fill="#ffffff" stroke="none" points="894.5,-310 894.5,-332 1035.5,-332 1035.5,-310 894.5,-310"/>
<polygon fill="none" stroke="black" points="894.5,-310 894.5,-332 1035.5,-332 1035.5,-310 894.5,-310"/>
<image xlink:href="../../images/foreignKeys.png" width="11px" height="12px" preserveAspectRatio="xMinYMin meet" x="899.5" y="-327"/>
<text text-anchor="start" x="914.5" y="-318.2" font-family="Helvetica,sans-Serif" font-size="11.00">planting_type_id</text>
<polygon fill="none" stroke="black" points="894.5,-288 894.5,-310 1035.5,-310 1035.5,-288 894.5,-288"/>
<image xlink:href="../../images/foreignKeys.png" width="11px" height="12px" preserveAspectRatio="xMinYMin meet" x="899.5" y="-305"/>
<text text-anchor="start" x="914.5" y="-296.2" font-family="Helvetica,sans-Serif" font-size="11.00">planting_site_id</text>
<polygon fill="#ffffff" stroke="none" points="894.5,-266 894.5,-288 1035.5,-288 1035.5,-266 894.5,-266"/>
<polygon fill="none" stroke="black" points="894.5,-266 894.5,-288 1035.5,-288 1035.5,-266 894.5,-266"/>
<image xlink:href="../../images/foreignKeys.png" width="11px" height="12px" preserveAspectRatio="xMinYMin meet" x="899.5" y="-283"/>
<text text-anchor="start" x="914.5" y="-274.2" font-family="Helvetica,sans-Serif" font-size="11.00">planting_subzone_id</text>
<polygon fill="#ffffff" stroke="none" points="894.5,-244 894.5,-266 1035.5,-266 1035.5,-244 894.5,-244"/>
<polygon fill="none" stroke="black" points="894.5,-244 894.5,-266 1035.5,-266 1035.5,-244 894.5,-244"/>
<text text-anchor="start" x="914.5" y="-252.2" font-family="Helvetica,sans-Serif" font-size="11.00">species_id</text>
<polygon fill="none" stroke="black" points="894.5,-226 894.5,-244 1035.5,-244 1035.5,-226 894.5,-226"/>
<text text-anchor="start" x="897.5" y="-232.2" font-family="Helvetica,sans-Serif" font-size="11.00">...</text>
<polygon fill="#ffffff" stroke="none" points="894.5,-208 894.5,-226 948.5,-226 948.5,-208 894.5,-208"/>
<polygon fill="none" stroke="black" points="894.5,-208 894.5,-226 948.5,-226 948.5,-208 894.5,-208"/>
<text text-anchor="start" x="897.5" y="-214.2" font-family="Helvetica,sans-Serif" font-size="11.00">&lt; 6</text>
<polygon fill="#ffffff" stroke="none" points="948.5,-208 948.5,-226 1006.5,-226 1006.5,-208 948.5,-208"/>
<polygon fill="none" stroke="black" points="948.5,-208 948.5,-226 1006.5,-226 1006.5,-208 948.5,-208"/>
<text text-anchor="start" x="967.5" y="-214.2" font-family="Helvetica,sans-Serif" font-size="11.00">0 rows</text>
<polygon fill="#ffffff" stroke="none" points="1006.5,-208 1006.5,-226 1035.5,-226 1035.5,-208 1006.5,-208"/>
<polygon fill="none" stroke="black" points="1006.5,-208 1006.5,-226 1035.5,-226 1035.5,-208 1006.5,-208"/>
<text text-anchor="start" x="1025.5" y="-214.2" font-family="Helvetica,sans-Serif" font-size="11.00"> &#160;</text>
</a>
</g>
</g>
<!-- plantings&#45;&gt;deliveries -->
<g id="edge10" class="edge"><title>plantings:delivery_id:w&#45;&gt;deliveries:id:e</title>
<path fill="none" stroke="black" d="M878.946,-345.203C842.91,-357.187 846.675,-414 800,-414"/>
<polygon fill="black" stroke="black" points="885.59,-344.197 894.039,-346.559 889.545,-343.599 893.5,-343 893.5,-343 893.5,-343 889.545,-343.599 892.961,-339.441 885.59,-344.197 885.59,-344.197"/>
<ellipse fill="none" stroke="black" cx="882.426" cy="-344.676" rx="3.2" ry="3.2"/>
</g>
<!-- plantings&#45;&gt;deliveries -->
<g id="edge11" class="edge"><title>plantings:planting_site_id:w&#45;&gt;deliveries:planting_site_id:e</title>
<path fill="none" stroke="black" d="M878.946,-301.203C842.91,-313.187 846.675,-370 800,-370"/>
<polygon fill="black" stroke="black" points="885.59,-300.197 894.039,-302.559 889.545,-299.599 893.5,-299 893.5,-299 893.5,-299 889.545,-299.599 892.961,-295.441 885.59,-300.197 885.59,-300.197"/>
<ellipse fill="none" stroke="black" cx="882.426" cy="-300.676" rx="3.2" ry="3.2"/>
</g>
<!-- plantings&#45;&gt;planting_sites -->
<g id="edge12" class="edge"><title>plantings:planting_site_id:w&#45;&gt;planting_sites:id.type:e</title>
<path fill="none" stroke="black" d="M879.001,-299.015C662.385,-299.48 602.988,-310.488 380,-328 361.527,-329.451 357.03,-332 338.5,-332"/>
<polygon fill="black" stroke="black" points="885.5,-299.009 893.504,-302.6 889.5,-299.004 893.5,-299 893.5,-299 893.5,-299 889.5,-299.004 893.496,-295.4 885.5,-299.009 885.5,-299.009"/>
<ellipse fill="none" stroke="black" cx="882.3" cy="-299.012" rx="3.2" ry="3.2"/>
</g>
<!-- plantings&#45;&gt;planting_subzones -->
<g id="edge13" class="edge"><title>plantings:planting_site_id:w&#45;&gt;planting_subzones:planting_site_id:e</title>
<path fill="none" stroke="black" d="M879.232,-296.081C840.954,-277.454 883.44,-176 827,-176"/>
<polygon fill="black" stroke="black" points="885.662,-297.396 892.778,-302.527 889.581,-298.198 893.5,-299 893.5,-299 893.5,-299 889.581,-298.198 894.222,-295.473 885.662,-297.396 885.662,-297.396"/>
<ellipse fill="none" stroke="black" cx="882.527" cy="-296.755" rx="3.2" ry="3.2"/>
</g>
<!-- plantings&#45;&gt;planting_subzones -->
<g id="edge14" class="edge"><title>plantings:planting_subzone_id:w&#45;&gt;planting_subzones:id:e</title>
<path fill="none" stroke="black" d="M879.203,-274.369C859.25,-266.23 854.789,-242 827,-242"/>
<polygon fill="black" stroke="black" points="885.632,-275.552 892.849,-280.541 889.566,-276.276 893.5,-277 893.5,-277 893.5,-277 889.566,-276.276 894.151,-273.459 885.632,-275.552 885.632,-275.552"/>
<ellipse fill="none" stroke="black" cx="882.485" cy="-274.973" rx="3.2" ry="3.2"/>
</g>
</g>
</svg>
