<?xml version="1.0" encoding="UTF-8" standalone="no"?>
<!DOCTYPE svg PUBLIC "-//W3C//DTD SVG 1.1//EN"
 "http://www.w3.org/Graphics/SVG/1.1/DTD/svg11.dtd">
<!-- Generated by graphviz version 2.47.1 (20210515.0534)
 -->
<!-- Title: twoDegreesRelationshipsDiagram Pages: 1 -->
<svg width="665pt" height="418pt"
 viewBox="0.00 0.00 665.00 418.00" xmlns="http://www.w3.org/2000/svg" xmlns:xlink="http://www.w3.org/1999/xlink">
<g id="graph0" class="graph" transform="scale(1 1) rotate(0) translate(4 414)">
<title>twoDegreesRelationshipsDiagram</title>
<polygon fill="#ffffff" stroke="transparent" points="-4,4 -4,-414 661,-414 661,4 -4,4"/>
<text text-anchor="middle" x="73.5" y="-7.2" font-family="Helvetica,sans-Serif" font-size="11.00">Generated by SchemaSpy</text>
<!-- observed_zone_species_totals -->
<g id="node1" class="node">
<title>observed_zone_species_totals</title>
<g id="a_node1"><a xlink:href="../../tables/observed_zone_species_totals.html" xlink:title="observed_zone_species_totals" target="_top">
<polygon fill="#ffffff" stroke="transparent" points="415,-348 415,-406 635,-406 635,-348 415,-348"/>
<polygon fill="#f5f5f5" stroke="transparent" points="415,-384 415,-406 635,-406 635,-384 415,-384"/>
<polygon fill="none" stroke="black" points="415,-384 415,-406 635,-406 635,-384 415,-384"/>
<text text-anchor="start" x="420" y="-393.2" font-family="Helvetica,sans-Serif" font-weight="bold" font-size="11.00">observed_zone_species_totals</text>
<text text-anchor="start" x="596" y="-392.2" font-family="Helvetica,sans-Serif" font-size="11.00">[table]</text>
<polygon fill="none" stroke="black" points="415,-366 415,-384 635,-384 635,-366 415,-366"/>
<text text-anchor="start" x="418" y="-372.2" font-family="Helvetica,sans-Serif" font-size="11.00">...</text>
<polygon fill="#ffffff" stroke="transparent" points="415,-348 415,-366 523,-366 523,-348 415,-348"/>
<polygon fill="none" stroke="black" points="415,-348 415,-366 523,-366 523,-348 415,-348"/>
<text text-anchor="start" x="418" y="-354.2" font-family="Helvetica,sans-Serif" font-size="11.00">&lt; 3</text>
<polygon fill="#ffffff" stroke="transparent" points="523,-348 523,-366 579,-366 579,-348 523,-348"/>
<polygon fill="none" stroke="black" points="523,-348 523,-366 579,-366 579,-348 523,-348"/>
<text text-anchor="start" x="569" y="-354.2" font-family="Helvetica,sans-Serif" font-size="11.00"> &#160;</text>
<polygon fill="#ffffff" stroke="transparent" points="579,-348 579,-366 635,-366 635,-348 579,-348"/>
<polygon fill="none" stroke="black" points="579,-348 579,-366 635,-366 635,-348 579,-348"/>
<text text-anchor="start" x="625" y="-354.2" font-family="Helvetica,sans-Serif" font-size="11.00"> &#160;</text>
</a>
</g>
</g>
<!-- planting_zones -->
<g id="node2" class="node">
<title>planting_zones</title>
<g id="a_node2"><a xlink:href="../../tables/planting_zones.html" xlink:title="planting_zones" target="_top">
<polygon fill="#ffffff" stroke="transparent" points="183,-113 183,-237 352,-237 352,-113 183,-113"/>
<polygon fill="#f5f5f5" stroke="transparent" points="183.5,-215 183.5,-237 352.5,-237 352.5,-215 183.5,-215"/>
<polygon fill="none" stroke="black" points="183.5,-215 183.5,-237 352.5,-237 352.5,-215 183.5,-215"/>
<text text-anchor="start" x="188.5" y="-224.2" font-family="Helvetica,sans-Serif" font-weight="bold" font-size="11.00">planting_zones</text>
<text text-anchor="start" x="313.5" y="-223.2" font-family="Helvetica,sans-Serif" font-size="11.00">[table]</text>
<polygon fill="none" stroke="black" points="183.5,-193 183.5,-215 352.5,-215 352.5,-193 183.5,-193"/>
<image xlink:href="../../images/primaryKeys.png" width="11px" height="12px" preserveAspectRatio="xMinYMin meet" x="188.5" y="-210"/>
<text text-anchor="start" x="203.5" y="-201.2" font-family="Helvetica,sans-Serif" font-size="11.00">id</text>
<polygon fill="#ffffff" stroke="transparent" points="183.5,-171 183.5,-193 352.5,-193 352.5,-171 183.5,-171"/>
<polygon fill="none" stroke="black" points="183.5,-171 183.5,-193 352.5,-193 352.5,-171 183.5,-171"/>
<image xlink:href="../../images/foreignKeys.png" width="11px" height="12px" preserveAspectRatio="xMinYMin meet" x="188.5" y="-188"/>
<text text-anchor="start" x="203.5" y="-179.2" font-family="Helvetica,sans-Serif" font-size="11.00">planting_site_id</text>
<polygon fill="#ffffff" stroke="transparent" points="183.5,-149 183.5,-171 352.5,-171 352.5,-149 183.5,-149"/>
<polygon fill="none" stroke="black" points="183.5,-149 183.5,-171 352.5,-171 352.5,-149 183.5,-149"/>
<text text-anchor="start" x="203.5" y="-157.2" font-family="Helvetica,sans-Serif" font-size="11.00">name</text>
<polygon fill="none" stroke="black" points="183.5,-131 183.5,-149 352.5,-149 352.5,-131 183.5,-131"/>
<text text-anchor="start" x="186.5" y="-137.2" font-family="Helvetica,sans-Serif" font-size="11.00">...</text>
<polygon fill="#ffffff" stroke="transparent" points="183.5,-113 183.5,-131 261.5,-131 261.5,-113 183.5,-113"/>
<polygon fill="none" stroke="black" points="183.5,-113 183.5,-131 261.5,-131 261.5,-113 183.5,-113"/>
<text text-anchor="start" x="186.5" y="-119.2" font-family="Helvetica,sans-Serif" font-size="11.00">&lt; 1</text>
<polygon fill="#ffffff" stroke="transparent" points="261.5,-113 261.5,-131 302.5,-131 302.5,-113 261.5,-113"/>
<polygon fill="none" stroke="black" points="261.5,-113 261.5,-131 302.5,-131 302.5,-113 261.5,-113"/>
<text text-anchor="start" x="292.5" y="-119.2" font-family="Helvetica,sans-Serif" font-size="11.00"> &#160;</text>
<polygon fill="#ffffff" stroke="transparent" points="302.5,-113 302.5,-131 352.5,-131 352.5,-113 302.5,-113"/>
<polygon fill="none" stroke="black" points="302.5,-113 302.5,-131 352.5,-131 352.5,-113 302.5,-113"/>
<text text-anchor="start" x="333.5" y="-119.2" font-family="Helvetica,sans-Serif" font-size="11.00">5 &gt;</text>
</a>
</g>
</g>
<!-- observed_zone_species_totals&#45;&gt;planting_zones -->
<g id="edge1" class="edge">
<title>observed_zone_species_totals:w&#45;&gt;planting_zones:e</title>
<path fill="none" stroke="black" d="M399.56,-372.58C346.65,-351.8 428.45,-204 353.5,-204"/>
<polygon fill="black" stroke="black" points="406.11,-373.68 413.41,-378.55 410.05,-374.34 414,-375 414,-375 414,-375 410.05,-374.34 414.59,-371.45 406.11,-373.68 406.11,-373.68"/>
<ellipse fill="none" stroke="black" cx="402.95" cy="-373.15" rx="3.2" ry="3.2"/>
</g>
<!-- planting_sites -->
<g id="node4" class="node">
<title>planting_sites</title>
<g id="a_node4"><a xlink:href="../../tables/planting_sites.html" xlink:title="planting_sites" target="_top">
<polygon fill="#ffffff" stroke="transparent" points="8,-100 8,-158 134,-158 134,-100 8,-100"/>
<polygon fill="#f5f5f5" stroke="transparent" points="8,-136 8,-158 134,-158 134,-136 8,-136"/>
<polygon fill="none" stroke="black" points="8,-136 8,-158 134,-158 134,-136 8,-136"/>
<text text-anchor="start" x="13" y="-145.2" font-family="Helvetica,sans-Serif" font-weight="bold" font-size="11.00">planting_sites</text>
<text text-anchor="start" x="95" y="-144.2" font-family="Helvetica,sans-Serif" font-size="11.00">[table]</text>
<polygon fill="none" stroke="black" points="8,-118 8,-136 134,-136 134,-118 8,-118"/>
<text text-anchor="start" x="11" y="-124.2" font-family="Helvetica,sans-Serif" font-size="11.00">...</text>
<polygon fill="#ffffff" stroke="transparent" points="8,-100 8,-118 57,-118 57,-100 8,-100"/>
<polygon fill="none" stroke="black" points="8,-100 8,-118 57,-118 57,-100 8,-100"/>
<text text-anchor="start" x="11" y="-106.2" font-family="Helvetica,sans-Serif" font-size="11.00"> &#160;</text>
<polygon fill="#ffffff" stroke="transparent" points="57,-100 57,-118 88,-118 88,-100 57,-100"/>
<polygon fill="none" stroke="black" points="57,-100 57,-118 88,-118 88,-100 57,-100"/>
<text text-anchor="start" x="78" y="-106.2" font-family="Helvetica,sans-Serif" font-size="11.00"> &#160;</text>
<polygon fill="#ffffff" stroke="transparent" points="88,-100 88,-118 134,-118 134,-100 88,-100"/>
<polygon fill="none" stroke="black" points="88,-100 88,-118 134,-118 134,-100 88,-100"/>
<text text-anchor="start" x="109" y="-106.2" font-family="Helvetica,sans-Serif" font-size="11.00">12 &gt;</text>
</a>
</g>
</g>
<!-- planting_zones&#45;&gt;planting_sites -->
<g id="edge7" class="edge">
<title>planting_zones:w&#45;&gt;planting_sites:e</title>
<path fill="none" stroke="black" d="M168.89,-176.92C154.88,-163.31 161.24,-127 135,-127"/>
<polygon fill="black" stroke="black" points="175,-179.2 181.24,-185.37 178.75,-180.6 182.5,-182 182.5,-182 182.5,-182 178.75,-180.6 183.76,-178.63 175,-179.2 175,-179.2"/>
<ellipse fill="none" stroke="black" cx="172.01" cy="-178.09" rx="3.2" ry="3.2"/>
</g>
<!-- planting_subzones -->
<g id="node3" class="node">
<title>planting_subzones</title>
<g id="a_node3"><a xlink:href="../../tables/planting_subzones.html" xlink:title="planting_subzones" target="_top">
<polygon fill="#ffffff" stroke="transparent" points="448,-37 448,-95 602,-95 602,-37 448,-37"/>
<polygon fill="#f5f5f5" stroke="transparent" points="448,-73 448,-95 602,-95 602,-73 448,-73"/>
<polygon fill="none" stroke="black" points="448,-73 448,-95 602,-95 602,-73 448,-73"/>
<text text-anchor="start" x="453" y="-82.2" font-family="Helvetica,sans-Serif" font-weight="bold" font-size="11.00">planting_subzones</text>
<text text-anchor="start" x="563" y="-81.2" font-family="Helvetica,sans-Serif" font-size="11.00">[table]</text>
<polygon fill="none" stroke="black" points="448,-55 448,-73 602,-73 602,-55 448,-55"/>
<text text-anchor="start" x="451" y="-61.2" font-family="Helvetica,sans-Serif" font-size="11.00">...</text>
<polygon fill="#ffffff" stroke="transparent" points="448,-37 448,-55 518,-55 518,-37 448,-37"/>
<polygon fill="none" stroke="black" points="448,-37 448,-55 518,-55 518,-37 448,-37"/>
<text text-anchor="start" x="451" y="-43.2" font-family="Helvetica,sans-Serif" font-size="11.00">&lt; 3</text>
<polygon fill="#ffffff" stroke="transparent" points="518,-37 518,-55 555,-55 555,-37 518,-37"/>
<polygon fill="none" stroke="black" points="518,-37 518,-55 555,-55 555,-37 518,-37"/>
<text text-anchor="start" x="545" y="-43.2" font-family="Helvetica,sans-Serif" font-size="11.00"> &#160;</text>
<polygon fill="#ffffff" stroke="transparent" points="555,-37 555,-55 602,-55 602,-37 555,-37"/>
<polygon fill="none" stroke="black" points="555,-37 555,-55 602,-55 602,-37 555,-37"/>
<text text-anchor="start" x="583" y="-43.2" font-family="Helvetica,sans-Serif" font-size="11.00">8 &gt;</text>
</a>
</g>
</g>
<!-- planting_subzones&#45;&gt;planting_zones -->
<g id="edge3" class="edge">
<title>planting_subzones:w&#45;&gt;planting_zones:e</title>
<path fill="none" stroke="black" d="M432.65,-65.8C414.56,-71 408.89,-86.93 393,-106 368.64,-135.25 391.57,-182 353.5,-182"/>
<polygon fill="black" stroke="black" points="439.06,-65 447.45,-67.57 443.03,-64.5 447,-64 447,-64 447,-64 443.03,-64.5 446.55,-60.43 439.06,-65 439.06,-65"/>
<ellipse fill="none" stroke="black" cx="435.89" cy="-65.39" rx="3.2" ry="3.2"/>
</g>
<!-- planting_subzones&#45;&gt;planting_zones -->
<g id="edge4" class="edge">
<title>planting_subzones:w&#45;&gt;planting_zones:e</title>
<path fill="none" stroke="black" d="M432.56,-65.72C414.22,-70.73 407.95,-86.19 393,-106 364.71,-143.49 400.46,-204 353.5,-204"/>
<polygon fill="black" stroke="black" points="439.06,-64.95 447.43,-67.57 443.03,-64.47 447,-64 447,-64 447,-64 443.03,-64.47 446.57,-60.43 439.06,-64.95 439.06,-64.95"/>
<ellipse fill="none" stroke="black" cx="435.88" cy="-65.33" rx="3.2" ry="3.2"/>
</g>
<!-- planting_subzones&#45;&gt;planting_sites -->
<g id="edge2" class="edge">
<title>planting_subzones:w&#45;&gt;planting_sites:e</title>
<path fill="none" stroke="black" d="M432.4,-63.99C321.89,-63.92 285.36,-63.79 175,-103 155.46,-109.94 155.73,-127 135,-127"/>
<polygon fill="black" stroke="black" points="439,-64 447,-67.6 443,-64 447,-64 447,-64 447,-64 443,-64 447,-60.4 439,-64 439,-64"/>
<ellipse fill="none" stroke="black" cx="435.8" cy="-63.99" rx="3.2" ry="3.2"/>
</g>
<!-- planting_zone_histories -->
<g id="node5" class="node">
<title>planting_zone_histories</title>
<g id="a_node5"><a xlink:href="../../tables/planting_zone_histories.html" xlink:title="planting_zone_histories" target="_top">
<polygon fill="#ffffff" stroke="transparent" points="433,-269 433,-327 617,-327 617,-269 433,-269"/>
<polygon fill="#f5f5f5" stroke="transparent" points="433,-305 433,-327 617,-327 617,-305 433,-305"/>
<polygon fill="none" stroke="black" points="433,-305 433,-327 617,-327 617,-305 433,-305"/>
<text text-anchor="start" x="438" y="-314.2" font-family="Helvetica,sans-Serif" font-weight="bold" font-size="11.00">planting_zone_histories</text>
<text text-anchor="start" x="578" y="-313.2" font-family="Helvetica,sans-Serif" font-size="11.00">[table]</text>
<polygon fill="none" stroke="black" points="433,-287 433,-305 617,-305 617,-287 433,-287"/>
<text text-anchor="start" x="436" y="-293.2" font-family="Helvetica,sans-Serif" font-size="11.00">...</text>
<polygon fill="#ffffff" stroke="transparent" points="433,-269 433,-287 518,-287 518,-269 433,-269"/>
<polygon fill="none" stroke="black" points="433,-269 433,-287 518,-287 518,-269 433,-269"/>
<text text-anchor="start" x="436" y="-275.2" font-family="Helvetica,sans-Serif" font-size="11.00">&lt; 2</text>
<polygon fill="#ffffff" stroke="transparent" points="518,-269 518,-287 563,-287 563,-269 518,-269"/>
<polygon fill="none" stroke="black" points="518,-269 518,-287 563,-287 563,-269 518,-269"/>
<text text-anchor="start" x="553" y="-275.2" font-family="Helvetica,sans-Serif" font-size="11.00"> &#160;</text>
<polygon fill="#ffffff" stroke="transparent" points="563,-269 563,-287 617,-287 617,-269 563,-269"/>
<polygon fill="none" stroke="black" points="563,-269 563,-287 617,-287 617,-269 563,-269"/>
<text text-anchor="start" x="598" y="-275.2" font-family="Helvetica,sans-Serif" font-size="11.00">1 &gt;</text>
</a>
</g>
</g>
<!-- planting_zone_histories&#45;&gt;planting_zones -->
<g id="edge5" class="edge">
<title>planting_zone_histories:w&#45;&gt;planting_zones:e</title>
<path fill="none" stroke="black" d="M417.7,-292.55C407.33,-286.27 404.66,-272.36 393,-259 373.22,-236.32 383.6,-204 353.5,-204"/>
<polygon fill="black" stroke="black" points="424.22,-294.13 431.16,-299.5 428.11,-295.06 432,-296 432,-296 432,-296 428.11,-295.06 432.84,-292.5 424.22,-294.13 424.22,-294.13"/>
<ellipse fill="none" stroke="black" cx="421.11" cy="-293.38" rx="3.2" ry="3.2"/>
</g>
<!-- planting_zone_populations -->
<g id="node6" class="node">
<title>planting_zone_populations</title>
<g id="a_node6"><a xlink:href="../../tables/planting_zone_populations.html" xlink:title="planting_zone_populations" target="_top">
<polygon fill="#ffffff" stroke="transparent" points="401,-116 401,-248 649,-248 649,-116 401,-116"/>
<polygon fill="#f5f5f5" stroke="transparent" points="403,-224 403,-246 647,-246 647,-224 403,-224"/>
<polygon fill="none" stroke="black" points="403,-224 403,-246 647,-246 647,-224 403,-224"/>
<text text-anchor="start" x="408" y="-233.2" font-family="Helvetica,sans-Serif" font-weight="bold" font-size="11.00">planting_zone_populations</text>
<text text-anchor="start" x="608" y="-232.2" font-family="Helvetica,sans-Serif" font-size="11.00">[table]</text>
<polygon fill="none" stroke="black" points="403,-202 403,-224 601,-224 601,-202 403,-202"/>
<image xlink:href="../../images/primaryKeys.png" width="11px" height="12px" preserveAspectRatio="xMinYMin meet" x="408" y="-219"/>
<text text-anchor="start" x="423" y="-210.2" font-family="Helvetica,sans-Serif" font-size="11.00">planting_zone_id</text>
<polygon fill="none" stroke="black" points="601,-202 601,-224 647,-224 647,-202 601,-202"/>
<text text-anchor="start" x="604" y="-210.2" font-family="Helvetica,sans-Serif" font-size="11.00">int8[19]</text>
<polygon fill="none" stroke="black" points="403,-180 403,-202 601,-202 601,-180 403,-180"/>
<image xlink:href="../../images/primaryKeys.png" width="11px" height="12px" preserveAspectRatio="xMinYMin meet" x="408" y="-197"/>
<text text-anchor="start" x="423" y="-188.2" font-family="Helvetica,sans-Serif" font-size="11.00">species_id</text>
<polygon fill="none" stroke="black" points="601,-180 601,-202 647,-202 647,-180 601,-180"/>
<text text-anchor="start" x="604" y="-188.2" font-family="Helvetica,sans-Serif" font-size="11.00">int8[19]</text>
<polygon fill="none" stroke="black" points="403,-158 403,-180 601,-180 601,-158 403,-158"/>
<text text-anchor="start" x="423" y="-166.2" font-family="Helvetica,sans-Serif" font-size="11.00">total_plants</text>
<polygon fill="none" stroke="black" points="601,-158 601,-180 647,-180 647,-158 601,-158"/>
<text text-anchor="start" x="604" y="-166.2" font-family="Helvetica,sans-Serif" font-size="11.00">int4[10]</text>
<polygon fill="none" stroke="black" points="403,-136 403,-158 601,-158 601,-136 403,-136"/>
<text text-anchor="start" x="423" y="-144.2" font-family="Helvetica,sans-Serif" font-size="11.00">plants_since_last_observation</text>
<polygon fill="none" stroke="black" points="601,-136 601,-158 647,-158 647,-136 601,-136"/>
<text text-anchor="start" x="604" y="-144.2" font-family="Helvetica,sans-Serif" font-size="11.00">int4[10]</text>
<polygon fill="#ffffff" stroke="transparent" points="403,-118 403,-136 506,-136 506,-118 403,-118"/>
<polygon fill="none" stroke="black" points="403,-118 403,-136 506,-136 506,-118 403,-118"/>
<text text-anchor="start" x="406" y="-124.2" font-family="Helvetica,sans-Serif" font-size="11.00">&lt; 1</text>
<polygon fill="#ffffff" stroke="transparent" points="506,-118 506,-136 601,-136 601,-118 506,-118"/>
<polygon fill="none" stroke="black" points="506,-118 506,-136 601,-136 601,-118 506,-118"/>
<text text-anchor="start" x="591" y="-124.2" font-family="Helvetica,sans-Serif" font-size="11.00"> &#160;</text>
<polygon fill="#ffffff" stroke="transparent" points="601,-118 601,-136 647,-136 647,-118 601,-118"/>
<polygon fill="none" stroke="black" points="601,-118 601,-136 647,-136 647,-118 601,-118"/>
<text text-anchor="start" x="628" y="-124.2" font-family="Helvetica,sans-Serif" font-size="11.00">0 &gt;</text>
<polygon fill="none" stroke="black" stroke-width="2" points="402,-117 402,-247 648,-247 648,-117 402,-117"/>
</a>
</g>
</g>
<!-- planting_zone_populations&#45;&gt;planting_zones -->
<g id="edge6" class="edge">
<title>planting_zone_populations:w&#45;&gt;planting_zones:e</title>
<path fill="none" stroke="black" d="M387.54,-211.43C376.39,-208.85 369.6,-204 353.5,-204"/>
<polygon fill="black" stroke="black" points="394.05,-212.14 401.61,-216.58 398.02,-212.57 402,-213 402,-213 402,-213 398.02,-212.57 402.39,-209.42 394.05,-212.14 394.05,-212.14"/>
<ellipse fill="none" stroke="black" cx="390.87" cy="-211.79" rx="3.2" ry="3.2"/>
</g>
</g>
</svg>
