<?xml version="1.0" encoding="UTF-8" standalone="no"?>
<!DOCTYPE svg PUBLIC "-//W3C//DTD SVG 1.1//EN"
 "http://www.w3.org/Graphics/SVG/1.1/DTD/svg11.dtd">
<!-- Generated by graphviz version 2.47.1 (20210515.0534)
 -->
<!-- Title: oneDegreeRelationshipsDiagram Pages: 1 -->
<svg width="846pt" height="595pt"
 viewBox="0.00 0.00 846.00 595.00" xmlns="http://www.w3.org/2000/svg" xmlns:xlink="http://www.w3.org/1999/xlink">
<g id="graph0" class="graph" transform="scale(1 1) rotate(0) translate(4 591)">
<title>oneDegreeRelationshipsDiagram</title>
<polygon fill="#ffffff" stroke="transparent" points="-4,4 -4,-591 842,-591 842,4 -4,4"/>
<text text-anchor="middle" x="73.5" y="-7.2" font-family="Helvetica,sans-Serif" font-size="11.00">Generated by SchemaSpy</text>
<!-- monitoring_plot_histories -->
<g id="node1" class="node">
<title>monitoring_plot_histories</title>
<g id="a_node1"><a xlink:href="../../tables/monitoring_plot_histories.html" xlink:title="monitoring_plot_histories" target="_top">
<polygon fill="#ffffff" stroke="transparent" points="622.5,-371 622.5,-583 819.5,-583 819.5,-371 622.5,-371"/>
<polygon fill="#f5f5f5" stroke="transparent" points="623,-561 623,-583 820,-583 820,-561 623,-561"/>
<polygon fill="none" stroke="black" points="623,-561 623,-583 820,-583 820,-561 623,-561"/>
<text text-anchor="start" x="628" y="-570.2" font-family="Helvetica,sans-Serif" font-weight="bold" font-size="11.00">monitoring_plot_histories</text>
<text text-anchor="start" x="781" y="-569.2" font-family="Helvetica,sans-Serif" font-size="11.00">[table]</text>
<polygon fill="none" stroke="black" points="623,-539 623,-561 820,-561 820,-539 623,-539"/>
<image xlink:href="../../images/primaryKeys.png" width="11px" height="12px" preserveAspectRatio="xMinYMin meet" x="628" y="-556"/>
<text text-anchor="start" x="647" y="-547.2" font-family="Helvetica,sans-Serif" font-size="11.00">id</text>
<polygon fill="#ffffff" stroke="transparent" points="623,-517 623,-539 820,-539 820,-517 623,-517"/>
<polygon fill="none" stroke="black" points="623,-517 623,-539 820,-539 820,-517 623,-517"/>
<image xlink:href="../../images/foreignKeys.png" width="11px" height="12px" preserveAspectRatio="xMinYMin meet" x="628" y="-534"/>
<text text-anchor="start" x="647" y="-525.2" font-family="Helvetica,sans-Serif" font-size="11.00">monitoring_plot_id</text>
<polygon fill="#ffffff" stroke="transparent" points="623,-495 623,-517 820,-517 820,-495 623,-495"/>
<polygon fill="none" stroke="black" points="623,-495 623,-517 820,-517 820,-495 623,-495"/>
<image xlink:href="../../images/foreignKeys.png" width="11px" height="12px" preserveAspectRatio="xMinYMin meet" x="628" y="-512"/>
<text text-anchor="start" x="647" y="-503.2" font-family="Helvetica,sans-Serif" font-size="11.00">planting_subzone_id</text>
<polygon fill="#ffffff" stroke="transparent" points="623,-473 623,-495 820,-495 820,-473 623,-473"/>
<polygon fill="none" stroke="black" points="623,-473 623,-495 820,-495 820,-473 623,-473"/>
<image xlink:href="../../images/foreignKeys.png" width="11px" height="12px" preserveAspectRatio="xMinYMin meet" x="628" y="-490"/>
<text text-anchor="start" x="647" y="-481.2" font-family="Helvetica,sans-Serif" font-size="11.00">planting_site_id</text>
<polygon fill="#ffffff" stroke="transparent" points="623,-451 623,-473 820,-473 820,-451 623,-451"/>
<polygon fill="none" stroke="black" points="623,-451 623,-473 820,-473 820,-451 623,-451"/>
<image xlink:href="../../images/foreignKeys.png" width="11px" height="12px" preserveAspectRatio="xMinYMin meet" x="628" y="-468"/>
<text text-anchor="start" x="647" y="-459.2" font-family="Helvetica,sans-Serif" font-size="11.00">planting_subzone_history_id</text>
<polygon fill="#ffffff" stroke="transparent" points="623,-429 623,-451 820,-451 820,-429 623,-429"/>
<polygon fill="none" stroke="black" points="623,-429 623,-451 820,-451 820,-429 623,-429"/>
<image xlink:href="../../images/foreignKeys.png" width="11px" height="12px" preserveAspectRatio="xMinYMin meet" x="628" y="-446"/>
<text text-anchor="start" x="647" y="-437.2" font-family="Helvetica,sans-Serif" font-size="11.00">planting_site_history_id</text>
<polygon fill="#ffffff" stroke="transparent" points="623,-407 623,-429 820,-429 820,-407 623,-407"/>
<polygon fill="none" stroke="black" points="623,-407 623,-429 820,-429 820,-407 623,-407"/>
<text text-anchor="start" x="647" y="-415.2" font-family="Helvetica,sans-Serif" font-size="11.00">created_by</text>
<polygon fill="none" stroke="black" points="623,-389 623,-407 820,-407 820,-389 623,-389"/>
<text text-anchor="start" x="626" y="-395.2" font-family="Helvetica,sans-Serif" font-size="11.00">...</text>
<polygon fill="#ffffff" stroke="transparent" points="623,-371 623,-389 715,-389 715,-371 623,-371"/>
<polygon fill="none" stroke="black" points="623,-371 623,-389 715,-389 715,-371 623,-371"/>
<text text-anchor="start" x="626" y="-377.2" font-family="Helvetica,sans-Serif" font-size="11.00">&lt; 5</text>
<polygon fill="#ffffff" stroke="transparent" points="715,-371 715,-389 763,-389 763,-371 715,-371"/>
<polygon fill="none" stroke="black" points="715,-371 715,-389 763,-389 763,-371 715,-371"/>
<text text-anchor="start" x="753" y="-377.2" font-family="Helvetica,sans-Serif" font-size="11.00"> &#160;</text>
<polygon fill="#ffffff" stroke="transparent" points="763,-371 763,-389 820,-389 820,-371 763,-371"/>
<polygon fill="none" stroke="black" points="763,-371 763,-389 820,-389 820,-371 763,-371"/>
<text text-anchor="start" x="801" y="-377.2" font-family="Helvetica,sans-Serif" font-size="11.00">1 &gt;</text>
</a>
</g>
</g>
<!-- planting_site_histories -->
<g id="node2" class="node">
<title>planting_site_histories</title>
<g id="a_node2"><a xlink:href="../../tables/planting_site_histories.html" xlink:title="planting_site_histories" target="_top">
<polygon fill="#ffffff" stroke="transparent" points="281,-174 281,-394 563,-394 563,-174 281,-174"/>
<polygon fill="#f5f5f5" stroke="transparent" points="283,-370 283,-392 561,-392 561,-370 283,-370"/>
<polygon fill="none" stroke="black" points="283,-370 283,-392 561,-392 561,-370 283,-370"/>
<text text-anchor="start" x="288" y="-379.2" font-family="Helvetica,sans-Serif" font-weight="bold" font-size="11.00">planting_site_histories</text>
<text text-anchor="start" x="522" y="-378.2" font-family="Helvetica,sans-Serif" font-size="11.00">[table]</text>
<polygon fill="none" stroke="black" points="283,-348 283,-370 438,-370 438,-348 283,-348"/>
<image xlink:href="../../images/primaryKeys.png" width="11px" height="12px" preserveAspectRatio="xMinYMin meet" x="288" y="-365"/>
<text text-anchor="start" x="303" y="-356.2" font-family="Helvetica,sans-Serif" font-size="11.00">id</text>
<polygon fill="none" stroke="black" points="438,-348 438,-370 561,-370 561,-348 438,-348"/>
<text text-anchor="start" x="441" y="-356.2" font-family="Helvetica,sans-Serif" font-size="11.00">int8[19]</text>
<polygon fill="#ffffff" stroke="transparent" points="283,-326 283,-348 438,-348 438,-326 283,-326"/>
<polygon fill="none" stroke="black" points="283,-326 283,-348 438,-348 438,-326 283,-326"/>
<image xlink:href="../../images/foreignKeys.png" width="11px" height="12px" preserveAspectRatio="xMinYMin meet" x="288" y="-343"/>
<text text-anchor="start" x="303" y="-334.2" font-family="Helvetica,sans-Serif" font-size="11.00">planting_site_id</text>
<polygon fill="none" stroke="black" points="438,-326 438,-348 561,-348 561,-326 438,-326"/>
<text text-anchor="start" x="441" y="-334.2" font-family="Helvetica,sans-Serif" font-size="11.00">int8[19]</text>
<polygon fill="none" stroke="black" points="283,-304 283,-326 438,-326 438,-304 283,-304"/>
<text text-anchor="start" x="303" y="-312.2" font-family="Helvetica,sans-Serif" font-size="11.00">created_by</text>
<polygon fill="none" stroke="black" points="438,-304 438,-326 561,-326 561,-304 438,-304"/>
<text text-anchor="start" x="441" y="-312.2" font-family="Helvetica,sans-Serif" font-size="11.00">int8[19]</text>
<polygon fill="none" stroke="black" points="283,-282 283,-304 438,-304 438,-282 283,-282"/>
<text text-anchor="start" x="303" y="-290.2" font-family="Helvetica,sans-Serif" font-size="11.00">created_time</text>
<polygon fill="none" stroke="black" points="438,-282 438,-304 561,-304 561,-282 438,-282"/>
<text text-anchor="start" x="441" y="-290.2" font-family="Helvetica,sans-Serif" font-size="11.00">timestamptz[35,6]</text>
<polygon fill="none" stroke="black" points="283,-260 283,-282 438,-282 438,-260 283,-260"/>
<text text-anchor="start" x="303" y="-268.2" font-family="Helvetica,sans-Serif" font-size="11.00">boundary</text>
<polygon fill="none" stroke="black" points="438,-260 438,-282 561,-282 561,-260 438,-260"/>
<text text-anchor="start" x="441" y="-268.2" font-family="Helvetica,sans-Serif" font-size="11.00">geometry[2147483647]</text>
<polygon fill="none" stroke="black" points="283,-238 283,-260 438,-260 438,-238 283,-238"/>
<text text-anchor="start" x="303" y="-246.2" font-family="Helvetica,sans-Serif" font-size="11.00">grid_origin</text>
<polygon fill="none" stroke="black" points="438,-238 438,-260 561,-260 561,-238 438,-238"/>
<text text-anchor="start" x="441" y="-246.2" font-family="Helvetica,sans-Serif" font-size="11.00">geometry[2147483647]</text>
<polygon fill="none" stroke="black" points="283,-216 283,-238 438,-238 438,-216 283,-216"/>
<text text-anchor="start" x="303" y="-224.2" font-family="Helvetica,sans-Serif" font-size="11.00">exclusion</text>
<polygon fill="none" stroke="black" points="438,-216 438,-238 561,-238 561,-216 438,-216"/>
<text text-anchor="start" x="441" y="-224.2" font-family="Helvetica,sans-Serif" font-size="11.00">geometry[2147483647]</text>
<polygon fill="none" stroke="black" points="283,-194 283,-216 438,-216 438,-194 283,-194"/>
<text text-anchor="start" x="303" y="-202.2" font-family="Helvetica,sans-Serif" font-size="11.00">area_ha</text>
<polygon fill="none" stroke="black" points="438,-194 438,-216 561,-216 561,-194 438,-194"/>
<text text-anchor="start" x="441" y="-202.2" font-family="Helvetica,sans-Serif" font-size="11.00">numeric[0]</text>
<polygon fill="#ffffff" stroke="transparent" points="283,-176 283,-194 365,-194 365,-176 283,-176"/>
<polygon fill="none" stroke="black" points="283,-176 283,-194 365,-194 365,-176 283,-176"/>
<text text-anchor="start" x="286" y="-182.2" font-family="Helvetica,sans-Serif" font-size="11.00">&lt; 1</text>
<polygon fill="#ffffff" stroke="transparent" points="365,-176 365,-194 438,-194 438,-176 365,-176"/>
<polygon fill="none" stroke="black" points="365,-176 365,-194 438,-194 438,-176 365,-176"/>
<text text-anchor="start" x="428" y="-182.2" font-family="Helvetica,sans-Serif" font-size="11.00"> &#160;</text>
<polygon fill="#ffffff" stroke="transparent" points="438,-176 438,-194 561,-194 561,-176 438,-176"/>
<polygon fill="none" stroke="black" points="438,-176 438,-194 561,-194 561,-176 438,-176"/>
<text text-anchor="start" x="542" y="-182.2" font-family="Helvetica,sans-Serif" font-size="11.00">3 &gt;</text>
<polygon fill="none" stroke="black" stroke-width="2" points="282,-175 282,-393 562,-393 562,-175 282,-175"/>
</a>
</g>
</g>
<!-- monitoring_plot_histories&#45;&gt;planting_site_histories -->
<g id="edge1" class="edge">
<title>monitoring_plot_histories:w&#45;&gt;planting_site_histories:e</title>
<path fill="none" stroke="black" d="M608.06,-436.31C583.59,-420.46 601.03,-359 562,-359"/>
<polygon fill="black" stroke="black" points="614.27,-437.95 621.08,-443.48 618.13,-438.98 622,-440 622,-440 622,-440 618.13,-438.98 622.92,-436.52 614.27,-437.95 614.27,-437.95"/>
<ellipse fill="none" stroke="black" cx="611.17" cy="-437.13" rx="3.2" ry="3.2"/>
</g>
<!-- planting_sites -->
<g id="node3" class="node">
<title>planting_sites</title>
<g id="a_node3"><a xlink:href="../../tables/planting_sites.html" xlink:title="planting_sites" target="_top">
<polygon fill="#ffffff" stroke="transparent" points="8,-224 8,-370 232,-370 232,-224 8,-224"/>
<polygon fill="#f5f5f5" stroke="transparent" points="8,-348 8,-370 232,-370 232,-348 8,-348"/>
<polygon fill="none" stroke="black" points="8,-348 8,-370 232,-370 232,-348 8,-348"/>
<text text-anchor="start" x="13" y="-357.2" font-family="Helvetica,sans-Serif" font-weight="bold" font-size="11.00">planting_sites</text>
<text text-anchor="start" x="193" y="-356.2" font-family="Helvetica,sans-Serif" font-size="11.00">[table]</text>
<polygon fill="none" stroke="black" points="8,-326 8,-348 232,-348 232,-326 8,-326"/>
<image xlink:href="../../images/primaryKeys.png" width="11px" height="12px" preserveAspectRatio="xMinYMin meet" x="13" y="-343"/>
<text text-anchor="start" x="28" y="-334.2" font-family="Helvetica,sans-Serif" font-size="11.00">id</text>
<polygon fill="#ffffff" stroke="transparent" points="8,-304 8,-326 232,-326 232,-304 8,-304"/>
<polygon fill="none" stroke="black" points="8,-304 8,-326 232,-326 232,-304 8,-304"/>
<text text-anchor="start" x="28" y="-312.2" font-family="Helvetica,sans-Serif" font-size="11.00">organization_id</text>
<polygon fill="#ffffff" stroke="transparent" points="8,-282 8,-304 232,-304 232,-282 8,-282"/>
<polygon fill="none" stroke="black" points="8,-282 8,-304 232,-304 232,-282 8,-282"/>
<text text-anchor="start" x="28" y="-290.2" font-family="Helvetica,sans-Serif" font-size="11.00">name</text>
<polygon fill="#ffffff" stroke="transparent" points="8,-260 8,-282 232,-282 232,-260 8,-260"/>
<polygon fill="none" stroke="black" points="8,-260 8,-282 232,-282 232,-260 8,-260"/>
<text text-anchor="start" x="28" y="-268.2" font-family="Helvetica,sans-Serif" font-size="11.00">project_id</text>
<polygon fill="none" stroke="black" points="8,-242 8,-260 232,-260 232,-242 8,-242"/>
<text text-anchor="start" x="11" y="-248.2" font-family="Helvetica,sans-Serif" font-size="11.00">...</text>
<polygon fill="#ffffff" stroke="transparent" points="8,-224 8,-242 106,-242 106,-224 8,-224"/>
<polygon fill="none" stroke="black" points="8,-224 8,-242 106,-242 106,-224 8,-224"/>
<text text-anchor="start" x="11" y="-230.2" font-family="Helvetica,sans-Serif" font-size="11.00"> &#160;</text>
<polygon fill="#ffffff" stroke="transparent" points="106,-224 106,-242 161,-242 161,-224 106,-224"/>
<polygon fill="none" stroke="black" points="106,-224 106,-242 161,-242 161,-224 106,-224"/>
<text text-anchor="start" x="151" y="-230.2" font-family="Helvetica,sans-Serif" font-size="11.00"> &#160;</text>
<polygon fill="#ffffff" stroke="transparent" points="161,-224 161,-242 232,-242 232,-224 161,-224"/>
<polygon fill="none" stroke="black" points="161,-224 161,-242 232,-242 232,-224 161,-224"/>
<text text-anchor="start" x="207" y="-230.2" font-family="Helvetica,sans-Serif" font-size="11.00">12 &gt;</text>
</a>
</g>
</g>
<!-- monitoring_plot_histories&#45;&gt;planting_sites -->
<g id="edge2" class="edge">
<title>monitoring_plot_histories:w&#45;&gt;planting_sites:e</title>
<path fill="none" stroke="black" d="M607.37,-484.04C459.05,-484.82 397.41,-495.87 273,-405 244.69,-384.32 268.06,-337 233,-337"/>
<polygon fill="black" stroke="black" points="614,-484.02 622.01,-487.6 618,-484.01 622,-484 622,-484 622,-484 618,-484.01 621.99,-480.4 614,-484.02 614,-484.02"/>
<ellipse fill="none" stroke="black" cx="610.8" cy="-484.03" rx="3.2" ry="3.2"/>
</g>
<!-- planting_site_histories&#45;&gt;planting_sites -->
<g id="edge5" class="edge">
<title>planting_site_histories:w&#45;&gt;planting_sites:e</title>
<path fill="none" stroke="black" d="M267.49,-337C256.18,-337 248.99,-337 233,-337"/>
<polygon fill="black" stroke="black" points="274,-337 282,-340.6 278,-337 282,-337 282,-337 282,-337 278,-337 282,-333.4 274,-337 274,-337"/>
<ellipse fill="none" stroke="black" cx="270.8" cy="-337" rx="3.2" ry="3.2"/>
</g>
<!-- observations -->
<g id="node4" class="node">
<title>observations</title>
<g id="a_node4"><a xlink:href="../../tables/observations.html" xlink:title="observations" target="_top">
<polygon fill="#ffffff" stroke="transparent" points="612,-37 612,-205 830,-205 830,-37 612,-37"/>
<polygon fill="#f5f5f5" stroke="transparent" points="612,-183 612,-205 830,-205 830,-183 612,-183"/>
<polygon fill="none" stroke="black" points="612,-183 612,-205 830,-205 830,-183 612,-183"/>
<text text-anchor="start" x="617" y="-192.2" font-family="Helvetica,sans-Serif" font-weight="bold" font-size="11.00">observations</text>
<text text-anchor="start" x="791" y="-191.2" font-family="Helvetica,sans-Serif" font-size="11.00">[table]</text>
<polygon fill="none" stroke="black" points="612,-161 612,-183 830,-183 830,-161 612,-161"/>
<image xlink:href="../../images/primaryKeys.png" width="11px" height="12px" preserveAspectRatio="xMinYMin meet" x="617" y="-178"/>
<text text-anchor="start" x="632" y="-169.2" font-family="Helvetica,sans-Serif" font-size="11.00">id</text>
<polygon fill="#ffffff" stroke="transparent" points="612,-139 612,-161 830,-161 830,-139 612,-139"/>
<polygon fill="none" stroke="black" points="612,-139 612,-161 830,-161 830,-139 612,-139"/>
<image xlink:href="../../images/foreignKeys.png" width="11px" height="12px" preserveAspectRatio="xMinYMin meet" x="617" y="-156"/>
<text text-anchor="start" x="632" y="-147.2" font-family="Helvetica,sans-Serif" font-size="11.00">planting_site_id</text>
<polygon fill="none" stroke="black" points="612,-117 612,-139 830,-139 830,-117 612,-117"/>
<image xlink:href="../../images/foreignKeys.png" width="11px" height="12px" preserveAspectRatio="xMinYMin meet" x="617" y="-134"/>
<text text-anchor="start" x="632" y="-125.2" font-family="Helvetica,sans-Serif" font-size="11.00">state_id</text>
<polygon fill="#ffffff" stroke="transparent" points="612,-95 612,-117 830,-117 830,-95 612,-95"/>
<polygon fill="none" stroke="black" points="612,-95 612,-117 830,-117 830,-95 612,-95"/>
<image xlink:href="../../images/foreignKeys.png" width="11px" height="12px" preserveAspectRatio="xMinYMin meet" x="617" y="-112"/>
<text text-anchor="start" x="632" y="-103.2" font-family="Helvetica,sans-Serif" font-size="11.00">planting_site_history_id</text>
<polygon fill="none" stroke="black" points="612,-73 612,-95 830,-95 830,-73 612,-73"/>
<image xlink:href="../../images/foreignKeys.png" width="11px" height="12px" preserveAspectRatio="xMinYMin meet" x="617" y="-90"/>
<text text-anchor="start" x="632" y="-81.2" font-family="Helvetica,sans-Serif" font-size="11.00">observation_type_id</text>
<polygon fill="none" stroke="black" points="612,-55 612,-73 830,-73 830,-55 612,-55"/>
<text text-anchor="start" x="615" y="-61.2" font-family="Helvetica,sans-Serif" font-size="11.00">...</text>
<polygon fill="#ffffff" stroke="transparent" points="612,-37 612,-55 711,-55 711,-37 612,-37"/>
<polygon fill="none" stroke="black" points="612,-37 612,-55 711,-55 711,-37 612,-37"/>
<text text-anchor="start" x="615" y="-43.2" font-family="Helvetica,sans-Serif" font-size="11.00">&lt; 4</text>
<polygon fill="#ffffff" stroke="transparent" points="711,-37 711,-55 763,-55 763,-37 711,-37"/>
<polygon fill="none" stroke="black" points="711,-37 711,-55 763,-55 763,-37 711,-37"/>
<text text-anchor="start" x="753" y="-43.2" font-family="Helvetica,sans-Serif" font-size="11.00"> &#160;</text>
<polygon fill="#ffffff" stroke="transparent" points="763,-37 763,-55 830,-55 830,-37 763,-37"/>
<polygon fill="none" stroke="black" points="763,-37 763,-55 830,-55 830,-37 763,-37"/>
<text text-anchor="start" x="805" y="-43.2" font-family="Helvetica,sans-Serif" font-size="11.00">16 &gt;</text>
</a>
</g>
</g>
<!-- observations&#45;&gt;planting_site_histories -->
<g id="edge3" class="edge">
<title>observations:w&#45;&gt;planting_site_histories:e</title>
<path fill="none" stroke="black" d="M596.52,-107.68C513.02,-129.63 671.05,-359 562,-359"/>
<polygon fill="black" stroke="black" points="603.05,-106.92 611.42,-109.58 607.03,-106.46 611,-106 611,-106 611,-106 607.03,-106.46 610.58,-102.42 603.05,-106.92 603.05,-106.92"/>
<ellipse fill="none" stroke="black" cx="599.87" cy="-107.29" rx="3.2" ry="3.2"/>
</g>
<!-- observations&#45;&gt;planting_sites -->
<g id="edge4" class="edge">
<title>observations:w&#45;&gt;planting_sites:e</title>
<path fill="none" stroke="black" d="M596.28,-149.74C455.82,-144.75 384.88,-71.2 273,-164 212.26,-214.38 311.92,-337 233,-337"/>
<polygon fill="black" stroke="black" points="603,-149.86 610.94,-153.6 607,-149.93 611,-150 611,-150 611,-150 607,-149.93 611.06,-146.4 603,-149.86 603,-149.86"/>
<ellipse fill="none" stroke="black" cx="599.8" cy="-149.8" rx="3.2" ry="3.2"/>
</g>
<!-- planting_zone_histories -->
<g id="node5" class="node">
<title>planting_zone_histories</title>
<g id="a_node5"><a xlink:href="../../tables/planting_zone_histories.html" xlink:title="planting_zone_histories" target="_top">
<polygon fill="#ffffff" stroke="transparent" points="629,-226 629,-350 813,-350 813,-226 629,-226"/>
<polygon fill="#f5f5f5" stroke="transparent" points="629,-328 629,-350 813,-350 813,-328 629,-328"/>
<polygon fill="none" stroke="black" points="629,-328 629,-350 813,-350 813,-328 629,-328"/>
<text text-anchor="start" x="634" y="-337.2" font-family="Helvetica,sans-Serif" font-weight="bold" font-size="11.00">planting_zone_histories</text>
<text text-anchor="start" x="774" y="-336.2" font-family="Helvetica,sans-Serif" font-size="11.00">[table]</text>
<polygon fill="none" stroke="black" points="629,-306 629,-328 813,-328 813,-306 629,-306"/>
<image xlink:href="../../images/primaryKeys.png" width="11px" height="12px" preserveAspectRatio="xMinYMin meet" x="634" y="-323"/>
<text text-anchor="start" x="661" y="-314.2" font-family="Helvetica,sans-Serif" font-size="11.00">id</text>
<polygon fill="#ffffff" stroke="transparent" points="629,-284 629,-306 813,-306 813,-284 629,-284"/>
<polygon fill="none" stroke="black" points="629,-284 629,-306 813,-306 813,-284 629,-284"/>
<image xlink:href="../../images/foreignKeys.png" width="11px" height="12px" preserveAspectRatio="xMinYMin meet" x="634" y="-301"/>
<text text-anchor="start" x="661" y="-292.2" font-family="Helvetica,sans-Serif" font-size="11.00">planting_site_history_id</text>
<polygon fill="#ffffff" stroke="transparent" points="629,-262 629,-284 813,-284 813,-262 629,-262"/>
<polygon fill="none" stroke="black" points="629,-262 629,-284 813,-284 813,-262 629,-262"/>
<image xlink:href="../../images/foreignKeys.png" width="11px" height="12px" preserveAspectRatio="xMinYMin meet" x="634" y="-279"/>
<text text-anchor="start" x="661" y="-270.2" font-family="Helvetica,sans-Serif" font-size="11.00">planting_zone_id</text>
<polygon fill="none" stroke="black" points="629,-244 629,-262 813,-262 813,-244 629,-244"/>
<text text-anchor="start" x="632" y="-250.2" font-family="Helvetica,sans-Serif" font-size="11.00">...</text>
<polygon fill="#ffffff" stroke="transparent" points="629,-226 629,-244 714,-244 714,-226 629,-226"/>
<polygon fill="none" stroke="black" points="629,-226 629,-244 714,-244 714,-226 629,-226"/>
<text text-anchor="start" x="632" y="-232.2" font-family="Helvetica,sans-Serif" font-size="11.00">&lt; 2</text>
<polygon fill="#ffffff" stroke="transparent" points="714,-226 714,-244 759,-244 759,-226 714,-226"/>
<polygon fill="none" stroke="black" points="714,-226 714,-244 759,-244 759,-226 714,-226"/>
<text text-anchor="start" x="749" y="-232.2" font-family="Helvetica,sans-Serif" font-size="11.00"> &#160;</text>
<polygon fill="#ffffff" stroke="transparent" points="759,-226 759,-244 813,-244 813,-226 759,-226"/>
<polygon fill="none" stroke="black" points="759,-226 759,-244 813,-244 813,-226 759,-226"/>
<text text-anchor="start" x="794" y="-232.2" font-family="Helvetica,sans-Serif" font-size="11.00">1 &gt;</text>
</a>
</g>
</g>
<!-- planting_zone_histories&#45;&gt;planting_site_histories -->
<g id="edge6" class="edge">
<title>planting_zone_histories:w&#45;&gt;planting_site_histories:e</title>
<path fill="none" stroke="black" d="M613.8,-298.44C590.44,-311.73 597.11,-359 562,-359"/>
<polygon fill="black" stroke="black" points="620.23,-296.88 628.85,-298.5 624.11,-295.94 628,-295 628,-295 628,-295 624.11,-295.94 627.15,-291.5 620.23,-296.88 620.23,-296.88"/>
<ellipse fill="none" stroke="black" cx="617.12" cy="-297.64" rx="3.2" ry="3.2"/>
</g>
</g>
</svg>
