<?xml version="1.0" encoding="UTF-8" standalone="no"?>
<!DOCTYPE svg PUBLIC "-//W3C//DTD SVG 1.1//EN"
 "http://www.w3.org/Graphics/SVG/1.1/DTD/svg11.dtd">
<!-- Generated by graphviz version 2.38.0 (20140413.2041)
 -->
<!-- Title: oneDegreeRelationshipsDiagram Pages: 1 -->
<svg width="733pt" height="406pt"
 viewBox="0.00 0.00 733.00 406.00" xmlns="http://www.w3.org/2000/svg" xmlns:xlink="http://www.w3.org/1999/xlink">
<g id="graph0" class="graph" transform="scale(1 1) rotate(0) translate(4 402)">
<title>oneDegreeRelationshipsDiagram</title>
<polygon fill="#ffffff" stroke="none" points="-4,4 -4,-402 729,-402 729,4 -4,4"/>
<text text-anchor="middle" x="74.5" y="-7.2" font-family="Helvetica,sans-Serif" font-size="11.00">Generated by SchemaSpy</text>
<!-- monitoring_plot_histories -->
<g id="node1" class="node"><title>monitoring_plot_histories</title>
<g id="a_node1"><a xlink:href="../../tables/monitoring_plot_histories.html" xlink:title="monitoring_plot_histories" target="_top">
<polygon fill="#ffffff" stroke="none" points="523,-182 523,-394 717,-394 717,-182 523,-182"/>
<polygon fill="#f5f5f5" stroke="none" points="523,-372 523,-394 717,-394 717,-372 523,-372"/>
<polygon fill="none" stroke="black" points="523,-372 523,-394 717,-394 717,-372 523,-372"/>
<text text-anchor="start" x="528" y="-381.2" font-family="Helvetica,sans-Serif" font-weight="bold" font-size="11.00">monitoring_plot_histories</text>
<text text-anchor="start" x="678" y="-380.2" font-family="Helvetica,sans-Serif" font-size="11.00">[table]</text>
<polygon fill="none" stroke="black" points="523,-350 523,-372 717,-372 717,-350 523,-350"/>
<image xlink:href="../../images/primaryKeys.png" width="11px" height="12px" preserveAspectRatio="xMinYMin meet" x="528" y="-367"/>
<text text-anchor="start" x="546" y="-358.2" font-family="Helvetica,sans-Serif" font-size="11.00">id</text>
<polygon fill="#ffffff" stroke="none" points="523,-328 523,-350 717,-350 717,-328 523,-328"/>
<polygon fill="none" stroke="black" points="523,-328 523,-350 717,-350 717,-328 523,-328"/>
<image xlink:href="../../images/foreignKeys.png" width="11px" height="12px" preserveAspectRatio="xMinYMin meet" x="528" y="-345"/>
<text text-anchor="start" x="546" y="-336.2" font-family="Helvetica,sans-Serif" font-size="11.00">monitoring_plot_id</text>
<polygon fill="#ffffff" stroke="none" points="523,-306 523,-328 717,-328 717,-306 523,-306"/>
<polygon fill="none" stroke="black" points="523,-306 523,-328 717,-328 717,-306 523,-306"/>
<image xlink:href="../../images/foreignKeys.png" width="11px" height="12px" preserveAspectRatio="xMinYMin meet" x="528" y="-323"/>
<text text-anchor="start" x="546" y="-314.2" font-family="Helvetica,sans-Serif" font-size="11.00">planting_subzone_id</text>
<polygon fill="#ffffff" stroke="none" points="523,-284 523,-306 717,-306 717,-284 523,-284"/>
<polygon fill="none" stroke="black" points="523,-284 523,-306 717,-306 717,-284 523,-284"/>
<image xlink:href="../../images/foreignKeys.png" width="11px" height="12px" preserveAspectRatio="xMinYMin meet" x="528" y="-301"/>
<text text-anchor="start" x="546" y="-292.2" font-family="Helvetica,sans-Serif" font-size="11.00">planting_site_id</text>
<polygon fill="#ffffff" stroke="none" points="523,-262 523,-284 717,-284 717,-262 523,-262"/>
<polygon fill="none" stroke="black" points="523,-262 523,-284 717,-284 717,-262 523,-262"/>
<image xlink:href="../../images/foreignKeys.png" width="11px" height="12px" preserveAspectRatio="xMinYMin meet" x="528" y="-279"/>
<text text-anchor="start" x="546" y="-270.2" font-family="Helvetica,sans-Serif" font-size="11.00">planting_subzone_history_id</text>
<polygon fill="#ffffff" stroke="none" points="523,-240 523,-262 717,-262 717,-240 523,-240"/>
<polygon fill="none" stroke="black" points="523,-240 523,-262 717,-262 717,-240 523,-240"/>
<image xlink:href="../../images/foreignKeys.png" width="11px" height="12px" preserveAspectRatio="xMinYMin meet" x="528" y="-257"/>
<text text-anchor="start" x="546" y="-248.2" font-family="Helvetica,sans-Serif" font-size="11.00">planting_site_history_id</text>
<polygon fill="#ffffff" stroke="none" points="523,-218 523,-240 717,-240 717,-218 523,-218"/>
<polygon fill="none" stroke="black" points="523,-218 523,-240 717,-240 717,-218 523,-218"/>
<text text-anchor="start" x="546" y="-226.2" font-family="Helvetica,sans-Serif" font-size="11.00">created_by</text>
<polygon fill="none" stroke="black" points="523,-200 523,-218 717,-218 717,-200 523,-200"/>
<text text-anchor="start" x="526" y="-206.2" font-family="Helvetica,sans-Serif" font-size="11.00">...</text>
<polygon fill="#ffffff" stroke="none" points="523,-182 523,-200 599,-200 599,-182 523,-182"/>
<polygon fill="none" stroke="black" points="523,-182 523,-200 599,-200 599,-182 523,-182"/>
<text text-anchor="start" x="526" y="-188.2" font-family="Helvetica,sans-Serif" font-size="11.00">&lt; 5</text>
<polygon fill="#ffffff" stroke="none" points="599,-182 599,-200 667,-200 667,-182 599,-182"/>
<polygon fill="none" stroke="black" points="599,-182 599,-200 667,-200 667,-182 599,-182"/>
<text text-anchor="start" x="628" y="-188.2" font-family="Helvetica,sans-Serif" font-size="11.00">0 rows</text>
<polygon fill="#ffffff" stroke="none" points="667,-182 667,-200 717,-200 717,-182 667,-182"/>
<polygon fill="none" stroke="black" points="667,-182 667,-200 717,-200 717,-182 667,-182"/>
<text text-anchor="start" x="697" y="-188.2" font-family="Helvetica,sans-Serif" font-size="11.00">1 &gt;</text>
</a>
</g>
</g>
<!-- planting_site_histories -->
<g id="node2" class="node"><title>planting_site_histories</title>
<g id="a_node2"><a xlink:href="../../tables/planting_site_histories.html" xlink:title="planting_site_histories" target="_top">
<polygon fill="#ffffff" stroke="none" points="184,-73 184,-271 474,-271 474,-73 184,-73"/>
<polygon fill="#f5f5f5" stroke="none" points="186,-247 186,-269 472,-269 472,-247 186,-247"/>
<polygon fill="none" stroke="black" points="186,-247 186,-269 472,-269 472,-247 186,-247"/>
<text text-anchor="start" x="191" y="-256.2" font-family="Helvetica,sans-Serif" font-weight="bold" font-size="11.00">planting_site_histories</text>
<text text-anchor="start" x="433" y="-255.2" font-family="Helvetica,sans-Serif" font-size="11.00">[table]</text>
<polygon fill="none" stroke="black" points="186,-225 186,-247 341,-247 341,-225 186,-225"/>
<image xlink:href="../../images/primaryKeys.png" width="11px" height="12px" preserveAspectRatio="xMinYMin meet" x="191" y="-242"/>
<text text-anchor="start" x="206" y="-233.2" font-family="Helvetica,sans-Serif" font-size="11.00">id</text>
<polygon fill="none" stroke="black" points="341,-225 341,-247 472,-247 472,-225 341,-225"/>
<text text-anchor="start" x="344" y="-233.2" font-family="Helvetica,sans-Serif" font-size="11.00">int8[19]</text>
<polygon fill="#ffffff" stroke="none" points="186,-203 186,-225 341,-225 341,-203 186,-203"/>
<polygon fill="none" stroke="black" points="186,-203 186,-225 341,-225 341,-203 186,-203"/>
<image xlink:href="../../images/foreignKeys.png" width="11px" height="12px" preserveAspectRatio="xMinYMin meet" x="191" y="-220"/>
<text text-anchor="start" x="206" y="-211.2" font-family="Helvetica,sans-Serif" font-size="11.00">planting_site_id</text>
<polygon fill="none" stroke="black" points="341,-203 341,-225 472,-225 472,-203 341,-203"/>
<text text-anchor="start" x="344" y="-211.2" font-family="Helvetica,sans-Serif" font-size="11.00">int8[19]</text>
<polygon fill="none" stroke="black" points="186,-181 186,-203 341,-203 341,-181 186,-181"/>
<text text-anchor="start" x="206" y="-189.2" font-family="Helvetica,sans-Serif" font-size="11.00">created_by</text>
<polygon fill="none" stroke="black" points="341,-181 341,-203 472,-203 472,-181 341,-181"/>
<text text-anchor="start" x="344" y="-189.2" font-family="Helvetica,sans-Serif" font-size="11.00">int8[19]</text>
<polygon fill="none" stroke="black" points="186,-159 186,-181 341,-181 341,-159 186,-159"/>
<text text-anchor="start" x="206" y="-167.2" font-family="Helvetica,sans-Serif" font-size="11.00">created_time</text>
<polygon fill="none" stroke="black" points="341,-159 341,-181 472,-181 472,-159 341,-159"/>
<text text-anchor="start" x="344" y="-167.2" font-family="Helvetica,sans-Serif" font-size="11.00">timestamptz[35,6]</text>
<polygon fill="none" stroke="black" points="186,-137 186,-159 341,-159 341,-137 186,-137"/>
<text text-anchor="start" x="206" y="-145.2" font-family="Helvetica,sans-Serif" font-size="11.00">boundary</text>
<polygon fill="none" stroke="black" points="341,-137 341,-159 472,-159 472,-137 341,-137"/>
<text text-anchor="start" x="344" y="-145.2" font-family="Helvetica,sans-Serif" font-size="11.00">geometry[2147483647]</text>
<polygon fill="none" stroke="black" points="186,-115 186,-137 341,-137 341,-115 186,-115"/>
<text text-anchor="start" x="206" y="-123.2" font-family="Helvetica,sans-Serif" font-size="11.00">grid_origin</text>
<polygon fill="none" stroke="black" points="341,-115 341,-137 472,-137 472,-115 341,-115"/>
<text text-anchor="start" x="344" y="-123.2" font-family="Helvetica,sans-Serif" font-size="11.00">geometry[2147483647]</text>
<polygon fill="none" stroke="black" points="186,-93 186,-115 341,-115 341,-93 186,-93"/>
<text text-anchor="start" x="206" y="-101.2" font-family="Helvetica,sans-Serif" font-size="11.00">exclusion</text>
<polygon fill="none" stroke="black" points="341,-93 341,-115 472,-115 472,-93 341,-93"/>
<text text-anchor="start" x="344" y="-101.2" font-family="Helvetica,sans-Serif" font-size="11.00">geometry[2147483647]</text>
<polygon fill="#ffffff" stroke="none" points="186,-75 186,-93 254,-93 254,-75 186,-75"/>
<polygon fill="none" stroke="black" points="186,-75 186,-93 254,-93 254,-75 186,-75"/>
<text text-anchor="start" x="189" y="-81.2" font-family="Helvetica,sans-Serif" font-size="11.00">&lt; 1</text>
<polygon fill="#ffffff" stroke="none" points="254,-75 254,-93 341,-93 341,-75 254,-75"/>
<polygon fill="none" stroke="black" points="254,-75 254,-93 341,-93 341,-75 254,-75"/>
<text text-anchor="start" x="302" y="-81.2" font-family="Helvetica,sans-Serif" font-size="11.00">0 rows</text>
<polygon fill="#ffffff" stroke="none" points="341,-75 341,-93 472,-93 472,-75 341,-75"/>
<polygon fill="none" stroke="black" points="341,-75 341,-93 472,-93 472,-75 341,-75"/>
<text text-anchor="start" x="452" y="-81.2" font-family="Helvetica,sans-Serif" font-size="11.00">2 &gt;</text>
<polygon fill="none" stroke="black" stroke-width="2" points="185,-74 185,-270 473,-270 473,-74 185,-74"/>
</a>
</g>
</g>
<!-- monitoring_plot_histories&#45;&gt;planting_site_histories -->
<g id="edge1" class="edge"><title>monitoring_plot_histories:planting_site_history_id:w&#45;&gt;planting_site_histories:id.type:e</title>
<path fill="none" stroke="black" d="M507.576,-248.523C496.162,-244.263 489.904,-236 473,-236"/>
<polygon fill="black" stroke="black" points="514.115,-249.646 521.391,-254.548 518.058,-250.323 522,-251 522,-251 522,-251 518.058,-250.323 522.609,-247.452 514.115,-249.646 514.115,-249.646"/>
<ellipse fill="none" stroke="black" cx="510.962" cy="-249.104" rx="3.2" ry="3.2"/>
</g>
<!-- planting_sites -->
<g id="node3" class="node"><title>planting_sites</title>
<g id="a_node3"><a xlink:href="../../tables/planting_sites.html" xlink:title="planting_sites" target="_top">
<polygon fill="#ffffff" stroke="none" points="8,-141 8,-287 135,-287 135,-141 8,-141"/>
<polygon fill="#f5f5f5" stroke="none" points="8.5,-265 8.5,-287 135.5,-287 135.5,-265 8.5,-265"/>
<polygon fill="none" stroke="black" points="8.5,-265 8.5,-287 135.5,-287 135.5,-265 8.5,-265"/>
<text text-anchor="start" x="13.5" y="-274.2" font-family="Helvetica,sans-Serif" font-weight="bold" font-size="11.00">planting_sites</text>
<text text-anchor="start" x="96.5" y="-273.2" font-family="Helvetica,sans-Serif" font-size="11.00">[table]</text>
<polygon fill="none" stroke="black" points="8.5,-243 8.5,-265 135.5,-265 135.5,-243 8.5,-243"/>
<image xlink:href="../../images/primaryKeys.png" width="11px" height="12px" preserveAspectRatio="xMinYMin meet" x="13.5" y="-260"/>
<text text-anchor="start" x="36.5" y="-251.2" font-family="Helvetica,sans-Serif" font-size="11.00">id</text>
<polygon fill="#ffffff" stroke="none" points="8.5,-221 8.5,-243 135.5,-243 135.5,-221 8.5,-221"/>
<polygon fill="none" stroke="black" points="8.5,-221 8.5,-243 135.5,-243 135.5,-221 8.5,-221"/>
<text text-anchor="start" x="36.5" y="-229.2" font-family="Helvetica,sans-Serif" font-size="11.00">organization_id</text>
<polygon fill="#ffffff" stroke="none" points="8.5,-199 8.5,-221 135.5,-221 135.5,-199 8.5,-199"/>
<polygon fill="none" stroke="black" points="8.5,-199 8.5,-221 135.5,-221 135.5,-199 8.5,-199"/>
<text text-anchor="start" x="36.5" y="-207.2" font-family="Helvetica,sans-Serif" font-size="11.00">name</text>
<polygon fill="#ffffff" stroke="none" points="8.5,-177 8.5,-199 135.5,-199 135.5,-177 8.5,-177"/>
<polygon fill="none" stroke="black" points="8.5,-177 8.5,-199 135.5,-199 135.5,-177 8.5,-177"/>
<text text-anchor="start" x="36.5" y="-185.2" font-family="Helvetica,sans-Serif" font-size="11.00">project_id</text>
<polygon fill="none" stroke="black" points="8.5,-159 8.5,-177 135.5,-177 135.5,-159 8.5,-159"/>
<text text-anchor="start" x="11.5" y="-165.2" font-family="Helvetica,sans-Serif" font-size="11.00">...</text>
<polygon fill="#ffffff" stroke="none" points="8.5,-141 8.5,-159 42.5,-159 42.5,-141 8.5,-141"/>
<polygon fill="none" stroke="black" points="8.5,-141 8.5,-159 42.5,-159 42.5,-141 8.5,-141"/>
<text text-anchor="start" x="11.5" y="-147.2" font-family="Helvetica,sans-Serif" font-size="11.00"> &#160;</text>
<polygon fill="#ffffff" stroke="none" points="42.5,-141 42.5,-159 94.5,-159 94.5,-141 42.5,-141"/>
<polygon fill="none" stroke="black" points="42.5,-141 42.5,-159 94.5,-159 94.5,-141 42.5,-141"/>
<text text-anchor="start" x="55.5" y="-147.2" font-family="Helvetica,sans-Serif" font-size="11.00">0 rows</text>
<polygon fill="#ffffff" stroke="none" points="94.5,-141 94.5,-159 135.5,-159 135.5,-141 94.5,-141"/>
<polygon fill="none" stroke="black" points="94.5,-141 94.5,-159 135.5,-159 135.5,-141 94.5,-141"/>
<text text-anchor="start" x="108.5" y="-147.2" font-family="Helvetica,sans-Serif" font-size="11.00">12 &gt;</text>
</a>
</g>
</g>
<!-- monitoring_plot_histories&#45;&gt;planting_sites -->
<g id="edge2" class="edge"><title>monitoring_plot_histories:planting_site_id:w&#45;&gt;planting_sites:id:e</title>
<path fill="none" stroke="black" d="M507.45,-295.109C365.021,-297.26 317.031,-329.85 176,-282 155.622,-275.086 158.019,-254 136.5,-254"/>
<polygon fill="black" stroke="black" points="514,-295.06 522.027,-298.6 518,-295.03 522,-295 522,-295 522,-295 518,-295.03 521.973,-291.4 514,-295.06 514,-295.06"/>
<ellipse fill="none" stroke="black" cx="510.8" cy="-295.084" rx="3.2" ry="3.2"/>
</g>
<!-- planting_site_histories&#45;&gt;planting_sites -->
<g id="edge3" class="edge"><title>planting_site_histories:planting_site_id:w&#45;&gt;planting_sites:id:e</title>
<path fill="none" stroke="black" d="M170.995,-218.905C158.598,-229.586 158.329,-254 136.5,-254"/>
<polygon fill="black" stroke="black" points="177.45,-216.644 186.19,-217.398 181.225,-215.322 185,-214 185,-214 185,-214 181.225,-215.322 183.81,-210.602 177.45,-216.644 177.45,-216.644"/>
<ellipse fill="none" stroke="black" cx="174.43" cy="-217.702" rx="3.20001" ry="3.20001"/>
</g>
<!-- planting_zone_histories -->
<g id="node4" class="node"><title>planting_zone_histories</title>
<g id="a_node4"><a xlink:href="../../tables/planting_zone_histories.html" xlink:title="planting_zone_histories" target="_top">
<polygon fill="#ffffff" stroke="none" points="529.5,-37 529.5,-161 710.5,-161 710.5,-37 529.5,-37"/>
<polygon fill="#f5f5f5" stroke="none" points="530,-139 530,-161 711,-161 711,-139 530,-139"/>
<polygon fill="none" stroke="black" points="530,-139 530,-161 711,-161 711,-139 530,-139"/>
<text text-anchor="start" x="535" y="-148.2" font-family="Helvetica,sans-Serif" font-weight="bold" font-size="11.00">planting_zone_histories</text>
<text text-anchor="start" x="672" y="-147.2" font-family="Helvetica,sans-Serif" font-size="11.00">[table]</text>
<polygon fill="none" stroke="black" points="530,-117 530,-139 711,-139 711,-117 530,-117"/>
<image xlink:href="../../images/primaryKeys.png" width="11px" height="12px" preserveAspectRatio="xMinYMin meet" x="535" y="-134"/>
<text text-anchor="start" x="560" y="-125.2" font-family="Helvetica,sans-Serif" font-size="11.00">id</text>
<polygon fill="#ffffff" stroke="none" points="530,-95 530,-117 711,-117 711,-95 530,-95"/>
<polygon fill="none" stroke="black" points="530,-95 530,-117 711,-117 711,-95 530,-95"/>
<image xlink:href="../../images/foreignKeys.png" width="11px" height="12px" preserveAspectRatio="xMinYMin meet" x="535" y="-112"/>
<text text-anchor="start" x="560" y="-103.2" font-family="Helvetica,sans-Serif" font-size="11.00">planting_site_history_id</text>
<polygon fill="#ffffff" stroke="none" points="530,-73 530,-95 711,-95 711,-73 530,-73"/>
<polygon fill="none" stroke="black" points="530,-73 530,-95 711,-95 711,-73 530,-73"/>
<image xlink:href="../../images/foreignKeys.png" width="11px" height="12px" preserveAspectRatio="xMinYMin meet" x="535" y="-90"/>
<text text-anchor="start" x="560" y="-81.2" font-family="Helvetica,sans-Serif" font-size="11.00">planting_zone_id</text>
<polygon fill="none" stroke="black" points="530,-55 530,-73 711,-73 711,-55 530,-55"/>
<text text-anchor="start" x="533" y="-61.2" font-family="Helvetica,sans-Serif" font-size="11.00">...</text>
<polygon fill="#ffffff" stroke="none" points="530,-37 530,-55 599,-55 599,-37 530,-37"/>
<polygon fill="none" stroke="black" points="530,-37 530,-55 599,-55 599,-37 530,-37"/>
<text text-anchor="start" x="533" y="-43.2" font-family="Helvetica,sans-Serif" font-size="11.00">&lt; 2</text>
<polygon fill="#ffffff" stroke="none" points="599,-37 599,-55 664,-55 664,-37 599,-37"/>
<polygon fill="none" stroke="black" points="599,-37 599,-55 664,-55 664,-37 599,-37"/>
<text text-anchor="start" x="625" y="-43.2" font-family="Helvetica,sans-Serif" font-size="11.00">0 rows</text>
<polygon fill="#ffffff" stroke="none" points="664,-37 664,-55 711,-55 711,-37 664,-37"/>
<polygon fill="none" stroke="black" points="664,-37 664,-55 711,-55 711,-37 664,-37"/>
<text text-anchor="start" x="691" y="-43.2" font-family="Helvetica,sans-Serif" font-size="11.00">1 &gt;</text>
</a>
</g>
</g>
<!-- planting_zone_histories&#45;&gt;planting_site_histories -->
<g id="edge4" class="edge"><title>planting_zone_histories:planting_site_history_id:w&#45;&gt;planting_site_histories:id.type:e</title>
<path fill="none" stroke="black" d="M514.587,-109.214C478.014,-129.232 530.013,-236 473,-236"/>
<polygon fill="black" stroke="black" points="521.192,-107.741 529.783,-109.514 525.096,-106.871 529,-106 529,-106 529,-106 525.096,-106.871 528.217,-102.486 521.192,-107.741 521.192,-107.741"/>
<ellipse fill="none" stroke="black" cx="518.068" cy="-108.437" rx="3.2" ry="3.2"/>
</g>
</g>
</svg>
