<?xml version="1.0" encoding="UTF-8" standalone="no"?>
<!DOCTYPE svg PUBLIC "-//W3C//DTD SVG 1.1//EN"
 "http://www.w3.org/Graphics/SVG/1.1/DTD/svg11.dtd">
<!-- Generated by graphviz version 2.47.1 (20210515.0534)
 -->
<!-- Title: twoDegreesRelationshipsDiagram Pages: 1 -->
<svg width="1159pt" height="753pt"
 viewBox="0.00 0.00 1159.00 753.20" xmlns="http://www.w3.org/2000/svg" xmlns:xlink="http://www.w3.org/1999/xlink">
<g id="graph0" class="graph" transform="scale(1 1) rotate(0) translate(4 749.2)">
<title>twoDegreesRelationshipsDiagram</title>
<polygon fill="#ffffff" stroke="transparent" points="-4,4 -4,-749.2 1155,-749.2 1155,4 -4,4"/>
<text text-anchor="middle" x="73.5" y="-7.2" font-family="Helvetica,sans-Serif" font-size="11.00">Generated by SchemaSpy</text>
<!-- deliveries -->
<g id="node1" class="node">
<title>deliveries</title>
<g id="a_node1"><a xlink:href="../../tables/deliveries.html" xlink:title="deliveries" target="_top">
<polygon fill="#ffffff" stroke="transparent" points="506,-469 506,-527 608,-527 608,-469 506,-469"/>
<polygon fill="#f5f5f5" stroke="transparent" points="506,-505 506,-527 608,-527 608,-505 506,-505"/>
<polygon fill="none" stroke="black" points="506,-505 506,-527 608,-527 608,-505 506,-505"/>
<text text-anchor="start" x="511" y="-514.2" font-family="Helvetica,sans-Serif" font-weight="bold" font-size="11.00">deliveries</text>
<text text-anchor="start" x="569" y="-513.2" font-family="Helvetica,sans-Serif" font-size="11.00">[table]</text>
<polygon fill="none" stroke="black" points="506,-487 506,-505 608,-505 608,-487 506,-487"/>
<text text-anchor="start" x="509" y="-493.2" font-family="Helvetica,sans-Serif" font-size="11.00">...</text>
<polygon fill="#ffffff" stroke="transparent" points="506,-469 506,-487 550,-487 550,-469 506,-469"/>
<polygon fill="none" stroke="black" points="506,-469 506,-487 550,-487 550,-469 506,-469"/>
<text text-anchor="start" x="509" y="-475.2" font-family="Helvetica,sans-Serif" font-size="11.00">&lt; 1</text>
<polygon fill="#ffffff" stroke="transparent" points="550,-469 550,-487 574,-487 574,-469 550,-469"/>
<polygon fill="none" stroke="black" points="550,-469 550,-487 574,-487 574,-469 550,-469"/>
<text text-anchor="start" x="564" y="-475.2" font-family="Helvetica,sans-Serif" font-size="11.00"> &#160;</text>
<polygon fill="#ffffff" stroke="transparent" points="574,-469 574,-487 608,-487 608,-469 574,-469"/>
<polygon fill="none" stroke="black" points="574,-469 574,-487 608,-487 608,-469 574,-469"/>
<text text-anchor="start" x="589" y="-475.2" font-family="Helvetica,sans-Serif" font-size="11.00">2 &gt;</text>
</a>
</g>
</g>
<!-- planting_sites -->
<g id="node2" class="node">
<title>planting_sites</title>
<g id="a_node2"><a xlink:href="../../tables/planting_sites.html" xlink:title="planting_sites" target="_top">
<polygon fill="#ffffff" stroke="transparent" points="8,-355 8,-501 134,-501 134,-355 8,-355"/>
<polygon fill="#f5f5f5" stroke="transparent" points="8,-479 8,-501 134,-501 134,-479 8,-479"/>
<polygon fill="none" stroke="black" points="8,-479 8,-501 134,-501 134,-479 8,-479"/>
<text text-anchor="start" x="13" y="-488.2" font-family="Helvetica,sans-Serif" font-weight="bold" font-size="11.00">planting_sites</text>
<text text-anchor="start" x="95" y="-487.2" font-family="Helvetica,sans-Serif" font-size="11.00">[table]</text>
<polygon fill="none" stroke="black" points="8,-457 8,-479 134,-479 134,-457 8,-457"/>
<image xlink:href="../../images/primaryKeys.png" width="11px" height="12px" preserveAspectRatio="xMinYMin meet" x="13" y="-474"/>
<text text-anchor="start" x="35" y="-465.2" font-family="Helvetica,sans-Serif" font-size="11.00">id</text>
<polygon fill="#ffffff" stroke="transparent" points="8,-435 8,-457 134,-457 134,-435 8,-435"/>
<polygon fill="none" stroke="black" points="8,-435 8,-457 134,-457 134,-435 8,-435"/>
<text text-anchor="start" x="35" y="-443.2" font-family="Helvetica,sans-Serif" font-size="11.00">organization_id</text>
<polygon fill="#ffffff" stroke="transparent" points="8,-413 8,-435 134,-435 134,-413 8,-413"/>
<polygon fill="none" stroke="black" points="8,-413 8,-435 134,-435 134,-413 8,-413"/>
<text text-anchor="start" x="35" y="-421.2" font-family="Helvetica,sans-Serif" font-size="11.00">name</text>
<polygon fill="#ffffff" stroke="transparent" points="8,-391 8,-413 134,-413 134,-391 8,-391"/>
<polygon fill="none" stroke="black" points="8,-391 8,-413 134,-413 134,-391 8,-391"/>
<text text-anchor="start" x="35" y="-399.2" font-family="Helvetica,sans-Serif" font-size="11.00">project_id</text>
<polygon fill="none" stroke="black" points="8,-373 8,-391 134,-391 134,-373 8,-373"/>
<text text-anchor="start" x="11" y="-379.2" font-family="Helvetica,sans-Serif" font-size="11.00">...</text>
<polygon fill="#ffffff" stroke="transparent" points="8,-355 8,-373 57,-373 57,-355 8,-355"/>
<polygon fill="none" stroke="black" points="8,-355 8,-373 57,-373 57,-355 8,-355"/>
<text text-anchor="start" x="11" y="-361.2" font-family="Helvetica,sans-Serif" font-size="11.00"> &#160;</text>
<polygon fill="#ffffff" stroke="transparent" points="57,-355 57,-373 88,-373 88,-355 57,-355"/>
<polygon fill="none" stroke="black" points="57,-355 57,-373 88,-373 88,-355 57,-355"/>
<text text-anchor="start" x="78" y="-361.2" font-family="Helvetica,sans-Serif" font-size="11.00"> &#160;</text>
<polygon fill="#ffffff" stroke="transparent" points="88,-355 88,-373 134,-373 134,-355 88,-355"/>
<polygon fill="none" stroke="black" points="88,-355 88,-373 134,-373 134,-355 88,-355"/>
<text text-anchor="start" x="109" y="-361.2" font-family="Helvetica,sans-Serif" font-size="11.00">12 &gt;</text>
</a>
</g>
</g>
<!-- deliveries&#45;&gt;planting_sites -->
<g id="edge1" class="edge">
<title>deliveries:w&#45;&gt;planting_sites:e</title>
<path fill="none" stroke="black" d="M490.32,-496.05C355.41,-497.04 313.96,-511.04 175,-483 156.39,-479.25 153.99,-468 135,-468"/>
<polygon fill="black" stroke="black" points="497,-496.03 505.01,-499.6 501,-496.01 505,-496 505,-496 505,-496 501,-496.01 504.99,-492.4 497,-496.03 497,-496.03"/>
<ellipse fill="none" stroke="black" cx="493.8" cy="-496.04" rx="3.2" ry="3.2"/>
</g>
<!-- monitoring_plot_histories -->
<g id="node3" class="node">
<title>monitoring_plot_histories</title>
<g id="a_node3"><a xlink:href="../../tables/monitoring_plot_histories.html" xlink:title="monitoring_plot_histories" target="_top">
<polygon fill="#ffffff" stroke="transparent" points="946,-588 946,-646 1143,-646 1143,-588 946,-588"/>
<polygon fill="#f5f5f5" stroke="transparent" points="946.5,-624 946.5,-646 1143.5,-646 1143.5,-624 946.5,-624"/>
<polygon fill="none" stroke="black" points="946.5,-624 946.5,-646 1143.5,-646 1143.5,-624 946.5,-624"/>
<text text-anchor="start" x="951.5" y="-633.2" font-family="Helvetica,sans-Serif" font-weight="bold" font-size="11.00">monitoring_plot_histories</text>
<text text-anchor="start" x="1104.5" y="-632.2" font-family="Helvetica,sans-Serif" font-size="11.00">[table]</text>
<polygon fill="none" stroke="black" points="946.5,-606 946.5,-624 1143.5,-624 1143.5,-606 946.5,-606"/>
<text text-anchor="start" x="949.5" y="-612.2" font-family="Helvetica,sans-Serif" font-size="11.00">...</text>
<polygon fill="#ffffff" stroke="transparent" points="946.5,-588 946.5,-606 1038.5,-606 1038.5,-588 946.5,-588"/>
<polygon fill="none" stroke="black" points="946.5,-588 946.5,-606 1038.5,-606 1038.5,-588 946.5,-588"/>
<text text-anchor="start" x="949.5" y="-594.2" font-family="Helvetica,sans-Serif" font-size="11.00">&lt; 5</text>
<polygon fill="#ffffff" stroke="transparent" points="1038.5,-588 1038.5,-606 1086.5,-606 1086.5,-588 1038.5,-588"/>
<polygon fill="none" stroke="black" points="1038.5,-588 1038.5,-606 1086.5,-606 1086.5,-588 1038.5,-588"/>
<text text-anchor="start" x="1076.5" y="-594.2" font-family="Helvetica,sans-Serif" font-size="11.00"> &#160;</text>
<polygon fill="#ffffff" stroke="transparent" points="1086.5,-588 1086.5,-606 1143.5,-606 1143.5,-588 1086.5,-588"/>
<polygon fill="none" stroke="black" points="1086.5,-588 1086.5,-606 1143.5,-606 1143.5,-588 1086.5,-588"/>
<text text-anchor="start" x="1124.5" y="-594.2" font-family="Helvetica,sans-Serif" font-size="11.00">1 &gt;</text>
</a>
</g>
</g>
<!-- monitoring_plot_histories&#45;&gt;planting_sites -->
<g id="edge4" class="edge">
<title>monitoring_plot_histories:w&#45;&gt;planting_sites:e</title>
<path fill="none" stroke="black" d="M931.72,-619.42C917.6,-632.12 930.09,-668.74 905,-683 793.69,-746.26 314.41,-787.58 175,-670 105.04,-611 226.52,-468 135,-468"/>
<polygon fill="black" stroke="black" points="937.88,-617.44 946.6,-618.43 941.69,-616.22 945.5,-615 945.5,-615 945.5,-615 941.69,-616.22 944.4,-611.57 937.88,-617.44 937.88,-617.44"/>
<ellipse fill="none" stroke="black" cx="934.83" cy="-618.42" rx="3.2" ry="3.2"/>
</g>
<!-- monitoring_plots -->
<g id="node4" class="node">
<title>monitoring_plots</title>
<g id="a_node4"><a xlink:href="../../tables/monitoring_plots.html" xlink:title="monitoring_plots" target="_top">
<polygon fill="#ffffff" stroke="transparent" points="717.5,-614 717.5,-672 862.5,-672 862.5,-614 717.5,-614"/>
<polygon fill="#f5f5f5" stroke="transparent" points="718,-650 718,-672 863,-672 863,-650 718,-650"/>
<polygon fill="none" stroke="black" points="718,-650 718,-672 863,-672 863,-650 718,-650"/>
<text text-anchor="start" x="723" y="-659.2" font-family="Helvetica,sans-Serif" font-weight="bold" font-size="11.00">monitoring_plots</text>
<text text-anchor="start" x="824" y="-658.2" font-family="Helvetica,sans-Serif" font-size="11.00">[table]</text>
<polygon fill="none" stroke="black" points="718,-632 718,-650 863,-650 863,-632 718,-632"/>
<text text-anchor="start" x="721" y="-638.2" font-family="Helvetica,sans-Serif" font-size="11.00">...</text>
<polygon fill="#ffffff" stroke="transparent" points="718,-614 718,-632 781,-632 781,-614 718,-614"/>
<polygon fill="none" stroke="black" points="718,-614 718,-632 781,-632 781,-614 718,-614"/>
<text text-anchor="start" x="721" y="-620.2" font-family="Helvetica,sans-Serif" font-size="11.00">&lt; 2</text>
<polygon fill="#ffffff" stroke="transparent" points="781,-614 781,-632 814,-632 814,-614 781,-614"/>
<polygon fill="none" stroke="black" points="781,-614 781,-632 814,-632 814,-614 781,-614"/>
<text text-anchor="start" x="804" y="-620.2" font-family="Helvetica,sans-Serif" font-size="11.00"> &#160;</text>
<polygon fill="#ffffff" stroke="transparent" points="814,-614 814,-632 863,-632 863,-614 814,-614"/>
<polygon fill="none" stroke="black" points="814,-614 814,-632 863,-632 863,-614 814,-614"/>
<text text-anchor="start" x="838" y="-620.2" font-family="Helvetica,sans-Serif" font-size="11.00">15 &gt;</text>
</a>
</g>
</g>
<!-- monitoring_plot_histories&#45;&gt;monitoring_plots -->
<g id="edge2" class="edge">
<title>monitoring_plot_histories:w&#45;&gt;monitoring_plots:e</title>
<path fill="none" stroke="black" d="M930.86,-616.47C905.22,-621.97 896.53,-641 864,-641"/>
<polygon fill="black" stroke="black" points="937.54,-615.8 945.86,-618.58 941.52,-615.4 945.5,-615 945.5,-615 945.5,-615 941.52,-615.4 945.14,-611.42 937.54,-615.8 937.54,-615.8"/>
<ellipse fill="none" stroke="black" cx="934.36" cy="-616.12" rx="3.2" ry="3.2"/>
</g>
<!-- planting_site_histories -->
<g id="node5" class="node">
<title>planting_site_histories</title>
<g id="a_node5"><a xlink:href="../../tables/planting_site_histories.html" xlink:title="planting_site_histories" target="_top">
<polygon fill="#ffffff" stroke="transparent" points="218,-414 218,-472 396,-472 396,-414 218,-414"/>
<polygon fill="#f5f5f5" stroke="transparent" points="218,-450 218,-472 396,-472 396,-450 218,-450"/>
<polygon fill="none" stroke="black" points="218,-450 218,-472 396,-472 396,-450 218,-450"/>
<text text-anchor="start" x="223" y="-459.2" font-family="Helvetica,sans-Serif" font-weight="bold" font-size="11.00">planting_site_histories</text>
<text text-anchor="start" x="357" y="-458.2" font-family="Helvetica,sans-Serif" font-size="11.00">[table]</text>
<polygon fill="none" stroke="black" points="218,-432 218,-450 396,-450 396,-432 218,-432"/>
<text text-anchor="start" x="221" y="-438.2" font-family="Helvetica,sans-Serif" font-size="11.00">...</text>
<polygon fill="#ffffff" stroke="transparent" points="218,-414 218,-432 300,-432 300,-414 218,-414"/>
<polygon fill="none" stroke="black" points="218,-414 218,-432 300,-432 300,-414 218,-414"/>
<text text-anchor="start" x="221" y="-420.2" font-family="Helvetica,sans-Serif" font-size="11.00">&lt; 1</text>
<polygon fill="#ffffff" stroke="transparent" points="300,-414 300,-432 343,-432 343,-414 300,-414"/>
<polygon fill="none" stroke="black" points="300,-414 300,-432 343,-432 343,-414 300,-414"/>
<text text-anchor="start" x="333" y="-420.2" font-family="Helvetica,sans-Serif" font-size="11.00"> &#160;</text>
<polygon fill="#ffffff" stroke="transparent" points="343,-414 343,-432 396,-432 396,-414 343,-414"/>
<polygon fill="none" stroke="black" points="343,-414 343,-432 396,-432 396,-414 343,-414"/>
<text text-anchor="start" x="377" y="-420.2" font-family="Helvetica,sans-Serif" font-size="11.00">3 &gt;</text>
</a>
</g>
</g>
<!-- monitoring_plot_histories&#45;&gt;planting_site_histories -->
<g id="edge3" class="edge">
<title>monitoring_plot_histories:w&#45;&gt;planting_site_histories:e</title>
<path fill="none" stroke="black" d="M931.18,-612.23C901.73,-597.65 942.72,-529.29 905,-498 817.56,-425.48 510.6,-441 397,-441"/>
<polygon fill="black" stroke="black" points="937.65,-613.48 944.82,-618.53 941.57,-614.24 945.5,-615 945.5,-615 945.5,-615 941.57,-614.24 946.18,-611.47 937.65,-613.48 937.65,-613.48"/>
<ellipse fill="none" stroke="black" cx="934.5" cy="-612.87" rx="3.2" ry="3.2"/>
</g>
<!-- planting_subzones -->
<g id="node6" class="node">
<title>planting_subzones</title>
<g id="a_node6"><a xlink:href="../../tables/planting_subzones.html" xlink:title="planting_subzones" target="_top">
<polygon fill="#ffffff" stroke="transparent" points="480,-575 480,-633 634,-633 634,-575 480,-575"/>
<polygon fill="#f5f5f5" stroke="transparent" points="480,-611 480,-633 634,-633 634,-611 480,-611"/>
<polygon fill="none" stroke="black" points="480,-611 480,-633 634,-633 634,-611 480,-611"/>
<text text-anchor="start" x="485" y="-620.2" font-family="Helvetica,sans-Serif" font-weight="bold" font-size="11.00">planting_subzones</text>
<text text-anchor="start" x="595" y="-619.2" font-family="Helvetica,sans-Serif" font-size="11.00">[table]</text>
<polygon fill="none" stroke="black" points="480,-593 480,-611 634,-611 634,-593 480,-593"/>
<text text-anchor="start" x="483" y="-599.2" font-family="Helvetica,sans-Serif" font-size="11.00">...</text>
<polygon fill="#ffffff" stroke="transparent" points="480,-575 480,-593 550,-593 550,-575 480,-575"/>
<polygon fill="none" stroke="black" points="480,-575 480,-593 550,-593 550,-575 480,-575"/>
<text text-anchor="start" x="483" y="-581.2" font-family="Helvetica,sans-Serif" font-size="11.00">&lt; 3</text>
<polygon fill="#ffffff" stroke="transparent" points="550,-575 550,-593 587,-593 587,-575 550,-575"/>
<polygon fill="none" stroke="black" points="550,-575 550,-593 587,-593 587,-575 550,-575"/>
<text text-anchor="start" x="577" y="-581.2" font-family="Helvetica,sans-Serif" font-size="11.00"> &#160;</text>
<polygon fill="#ffffff" stroke="transparent" points="587,-575 587,-593 634,-593 634,-575 587,-575"/>
<polygon fill="none" stroke="black" points="587,-575 587,-593 634,-593 634,-575 587,-575"/>
<text text-anchor="start" x="615" y="-581.2" font-family="Helvetica,sans-Serif" font-size="11.00">8 &gt;</text>
</a>
</g>
</g>
<!-- monitoring_plot_histories&#45;&gt;planting_subzones -->
<g id="edge5" class="edge">
<title>monitoring_plot_histories:w&#45;&gt;planting_subzones:e</title>
<path fill="none" stroke="black" d="M931,-612.77C923.01,-610.08 917.42,-605.7 905,-604 786.11,-587.69 755,-602 635,-602"/>
<polygon fill="black" stroke="black" points="937.59,-613.79 944.95,-618.56 941.55,-614.39 945.5,-615 945.5,-615 945.5,-615 941.55,-614.39 946.05,-611.44 937.59,-613.79 937.59,-613.79"/>
<ellipse fill="none" stroke="black" cx="934.43" cy="-613.3" rx="3.2" ry="3.2"/>
</g>
<!-- monitoring_plots&#45;&gt;planting_sites -->
<g id="edge6" class="edge">
<title>monitoring_plots:w&#45;&gt;planting_sites:e</title>
<path fill="none" stroke="black" d="M702.36,-641.33C571.95,-646.73 265.55,-716.28 175,-644 112.31,-593.96 215.22,-468 135,-468"/>
<polygon fill="black" stroke="black" points="709,-641.18 717.08,-644.6 713,-641.09 717,-641 717,-641 717,-641 713,-641.09 716.92,-637.4 709,-641.18 709,-641.18"/>
<ellipse fill="none" stroke="black" cx="705.8" cy="-641.25" rx="3.2" ry="3.2"/>
</g>
<!-- monitoring_plots&#45;&gt;planting_subzones -->
<g id="edge7" class="edge">
<title>monitoring_plots:w&#45;&gt;planting_subzones:e</title>
<path fill="none" stroke="black" d="M702.44,-639.01C675.56,-631.06 669.84,-602 635,-602"/>
<polygon fill="black" stroke="black" points="709.07,-639.92 716.51,-644.57 713.04,-640.46 717,-641 717,-641 717,-641 713.04,-640.46 717.49,-637.43 709.07,-639.92 709.07,-639.92"/>
<ellipse fill="none" stroke="black" cx="705.9" cy="-639.49" rx="3.2" ry="3.2"/>
</g>
<!-- planting_site_histories&#45;&gt;planting_sites -->
<g id="edge13" class="edge">
<title>planting_site_histories:w&#45;&gt;planting_sites:e</title>
<path fill="none" stroke="black" d="M202.59,-442.45C176.5,-448.06 167.97,-468 135,-468"/>
<polygon fill="black" stroke="black" points="209.04,-441.8 217.36,-444.58 213.02,-441.4 217,-441 217,-441 217,-441 213.02,-441.4 216.64,-437.42 209.04,-441.8 209.04,-441.8"/>
<ellipse fill="none" stroke="black" cx="205.86" cy="-442.12" rx="3.2" ry="3.2"/>
</g>
<!-- planting_subzones&#45;&gt;planting_sites -->
<g id="edge16" class="edge">
<title>planting_subzones:w&#45;&gt;planting_sites:e</title>
<path fill="none" stroke="black" d="M465.33,-597.39C456.11,-589.26 455.32,-572.52 439,-565 331.7,-515.57 274.37,-597.89 175,-534 146.15,-515.45 169.3,-468 135,-468"/>
<polygon fill="black" stroke="black" points="471.42,-599.44 477.85,-605.41 475.21,-600.72 479,-602 479,-602 479,-602 475.21,-600.72 480.15,-598.59 471.42,-599.44 471.42,-599.44"/>
<ellipse fill="none" stroke="black" cx="468.39" cy="-598.42" rx="3.2" ry="3.2"/>
</g>
<!-- planting_zones -->
<g id="node12" class="node">
<title>planting_zones</title>
<g id="a_node12"><a xlink:href="../../tables/planting_zones.html" xlink:title="planting_zones" target="_top">
<polygon fill="#ffffff" stroke="transparent" points="240.5,-575 240.5,-633 373.5,-633 373.5,-575 240.5,-575"/>
<polygon fill="#f5f5f5" stroke="transparent" points="241,-611 241,-633 374,-633 374,-611 241,-611"/>
<polygon fill="none" stroke="black" points="241,-611 241,-633 374,-633 374,-611 241,-611"/>
<text text-anchor="start" x="246" y="-620.2" font-family="Helvetica,sans-Serif" font-weight="bold" font-size="11.00">planting_zones</text>
<text text-anchor="start" x="335" y="-619.2" font-family="Helvetica,sans-Serif" font-size="11.00">[table]</text>
<polygon fill="none" stroke="black" points="241,-593 241,-611 374,-611 374,-593 241,-593"/>
<text text-anchor="start" x="244" y="-599.2" font-family="Helvetica,sans-Serif" font-size="11.00">...</text>
<polygon fill="#ffffff" stroke="transparent" points="241,-575 241,-593 301,-593 301,-575 241,-575"/>
<polygon fill="none" stroke="black" points="241,-575 241,-593 301,-593 301,-575 241,-575"/>
<text text-anchor="start" x="244" y="-581.2" font-family="Helvetica,sans-Serif" font-size="11.00">&lt; 1</text>
<polygon fill="#ffffff" stroke="transparent" points="301,-575 301,-593 333,-593 333,-575 301,-575"/>
<polygon fill="none" stroke="black" points="301,-575 301,-593 333,-593 333,-575 301,-575"/>
<text text-anchor="start" x="323" y="-581.2" font-family="Helvetica,sans-Serif" font-size="11.00"> &#160;</text>
<polygon fill="#ffffff" stroke="transparent" points="333,-575 333,-593 374,-593 374,-575 333,-575"/>
<polygon fill="none" stroke="black" points="333,-575 333,-593 374,-593 374,-575 333,-575"/>
<text text-anchor="start" x="355" y="-581.2" font-family="Helvetica,sans-Serif" font-size="11.00">5 &gt;</text>
</a>
</g>
</g>
<!-- planting_subzones&#45;&gt;planting_zones -->
<g id="edge17" class="edge">
<title>planting_subzones:w&#45;&gt;planting_zones:e</title>
<path fill="none" stroke="black" d="M464.53,-600.19C429.71,-596.08 415.99,-596.68 375,-602"/>
<polygon fill="black" stroke="black" points="471.06,-601.01 478.55,-605.57 475.03,-601.5 479,-602 479,-602 479,-602 475.03,-601.5 479.45,-598.43 471.06,-601.01 471.06,-601.01"/>
<ellipse fill="none" stroke="black" cx="467.89" cy="-600.61" rx="3.2" ry="3.2"/>
</g>
<!-- planting_subzones&#45;&gt;planting_zones -->
<g id="edge18" class="edge">
<title>planting_subzones:w&#45;&gt;planting_zones:e</title>
<path fill="none" stroke="black" d="M464.53,-604.11C429.71,-608.91 415.99,-608.21 375,-602"/>
<polygon fill="black" stroke="black" points="471.08,-603.15 479.52,-605.56 475.04,-602.58 479,-602 479,-602 479,-602 475.04,-602.58 478.48,-598.44 471.08,-603.15 471.08,-603.15"/>
<ellipse fill="none" stroke="black" cx="467.92" cy="-603.62" rx="3.2" ry="3.2"/>
</g>
<!-- observations -->
<g id="node7" class="node">
<title>observations</title>
<g id="a_node7"><a xlink:href="../../tables/observations.html" xlink:title="observations" target="_top">
<polygon fill="#ffffff" stroke="transparent" points="496.5,-363 496.5,-421 617.5,-421 617.5,-363 496.5,-363"/>
<polygon fill="#f5f5f5" stroke="transparent" points="497,-399 497,-421 618,-421 618,-399 497,-399"/>
<polygon fill="none" stroke="black" points="497,-399 497,-421 618,-421 618,-399 497,-399"/>
<text text-anchor="start" x="502" y="-408.2" font-family="Helvetica,sans-Serif" font-weight="bold" font-size="11.00">observations</text>
<text text-anchor="start" x="579" y="-407.2" font-family="Helvetica,sans-Serif" font-size="11.00">[table]</text>
<polygon fill="none" stroke="black" points="497,-381 497,-399 618,-399 618,-381 497,-381"/>
<text text-anchor="start" x="500" y="-387.2" font-family="Helvetica,sans-Serif" font-size="11.00">...</text>
<polygon fill="#ffffff" stroke="transparent" points="497,-363 497,-381 548,-381 548,-363 497,-363"/>
<polygon fill="none" stroke="black" points="497,-363 497,-381 548,-381 548,-363 497,-363"/>
<text text-anchor="start" x="500" y="-369.2" font-family="Helvetica,sans-Serif" font-size="11.00">&lt; 4</text>
<polygon fill="#ffffff" stroke="transparent" points="548,-363 548,-381 575,-381 575,-363 548,-363"/>
<polygon fill="none" stroke="black" points="548,-363 548,-381 575,-381 575,-363 548,-363"/>
<text text-anchor="start" x="565" y="-369.2" font-family="Helvetica,sans-Serif" font-size="11.00"> &#160;</text>
<polygon fill="#ffffff" stroke="transparent" points="575,-363 575,-381 618,-381 618,-363 575,-363"/>
<polygon fill="none" stroke="black" points="575,-363 575,-381 618,-381 618,-363 575,-363"/>
<text text-anchor="start" x="593" y="-369.2" font-family="Helvetica,sans-Serif" font-size="11.00">16 &gt;</text>
</a>
</g>
</g>
<!-- observations&#45;&gt;planting_sites -->
<g id="edge9" class="edge">
<title>observations:w&#45;&gt;planting_sites:e</title>
<path fill="none" stroke="black" d="M481.26,-389.79C349.26,-386.09 294.03,-334.6 175,-404 146.02,-420.9 168.54,-468 135,-468"/>
<polygon fill="black" stroke="black" points="488,-389.89 495.95,-393.6 492,-389.94 496,-390 496,-390 496,-390 492,-389.94 496.05,-386.4 488,-389.89 488,-389.89"/>
<ellipse fill="none" stroke="black" cx="484.8" cy="-389.84" rx="3.2" ry="3.2"/>
</g>
<!-- observations&#45;&gt;planting_site_histories -->
<g id="edge8" class="edge">
<title>observations:w&#45;&gt;planting_site_histories:e</title>
<path fill="none" stroke="black" d="M481.41,-391.7C445.91,-400.55 441.08,-441 397,-441"/>
<polygon fill="black" stroke="black" points="488.05,-390.92 496.42,-393.58 492.03,-390.46 496,-390 496,-390 496,-390 492.03,-390.46 495.58,-386.42 488.05,-390.92 488.05,-390.92"/>
<ellipse fill="none" stroke="black" cx="484.87" cy="-391.29" rx="3.2" ry="3.2"/>
</g>
<!-- observed_site_species_totals -->
<g id="node8" class="node">
<title>observed_site_species_totals</title>
<g id="a_node8"><a xlink:href="../../tables/observed_site_species_totals.html" xlink:title="observed_site_species_totals" target="_top">
<polygon fill="#ffffff" stroke="transparent" points="683,-338 683,-396 897,-396 897,-338 683,-338"/>
<polygon fill="#f5f5f5" stroke="transparent" points="683,-374 683,-396 897,-396 897,-374 683,-374"/>
<polygon fill="none" stroke="black" points="683,-374 683,-396 897,-396 897,-374 683,-374"/>
<text text-anchor="start" x="688" y="-383.2" font-family="Helvetica,sans-Serif" font-weight="bold" font-size="11.00">observed_site_species_totals</text>
<text text-anchor="start" x="858" y="-382.2" font-family="Helvetica,sans-Serif" font-size="11.00">[table]</text>
<polygon fill="none" stroke="black" points="683,-356 683,-374 897,-374 897,-356 683,-356"/>
<text text-anchor="start" x="686" y="-362.2" font-family="Helvetica,sans-Serif" font-size="11.00">...</text>
<polygon fill="#ffffff" stroke="transparent" points="683,-338 683,-356 788,-356 788,-338 683,-338"/>
<polygon fill="none" stroke="black" points="683,-338 683,-356 788,-356 788,-338 683,-338"/>
<text text-anchor="start" x="686" y="-344.2" font-family="Helvetica,sans-Serif" font-size="11.00">&lt; 3</text>
<polygon fill="#ffffff" stroke="transparent" points="788,-338 788,-356 842,-356 842,-338 788,-338"/>
<polygon fill="none" stroke="black" points="788,-338 788,-356 842,-356 842,-338 788,-338"/>
<text text-anchor="start" x="832" y="-344.2" font-family="Helvetica,sans-Serif" font-size="11.00"> &#160;</text>
<polygon fill="#ffffff" stroke="transparent" points="842,-338 842,-356 897,-356 897,-338 842,-338"/>
<polygon fill="none" stroke="black" points="842,-338 842,-356 897,-356 897,-338 842,-338"/>
<text text-anchor="start" x="887" y="-344.2" font-family="Helvetica,sans-Serif" font-size="11.00"> &#160;</text>
</a>
</g>
</g>
<!-- observed_site_species_totals&#45;&gt;planting_sites -->
<g id="edge11" class="edge">
<title>observed_site_species_totals:w&#45;&gt;planting_sites:e</title>
<path fill="none" stroke="black" d="M667.64,-362.56C659.78,-359.61 654.34,-354.81 642,-353 556.52,-340.45 181.26,-359.53 175,-364 134.7,-392.79 184.52,-468 135,-468"/>
<polygon fill="black" stroke="black" points="674.11,-363.66 681.4,-368.55 678.06,-364.33 682,-365 682,-365 682,-365 678.06,-364.33 682.6,-361.45 674.11,-363.66 674.11,-363.66"/>
<ellipse fill="none" stroke="black" cx="670.96" cy="-363.12" rx="3.2" ry="3.2"/>
</g>
<!-- observed_site_species_totals&#45;&gt;observations -->
<g id="edge10" class="edge">
<title>observed_site_species_totals:w&#45;&gt;observations:e</title>
<path fill="none" stroke="black" d="M667.58,-367.31C649.88,-373.5 643.48,-390 619,-390"/>
<polygon fill="black" stroke="black" points="674.1,-366.26 682.57,-368.55 678.05,-365.63 682,-365 682,-365 682,-365 678.05,-365.63 681.43,-361.45 674.1,-366.26 674.1,-366.26"/>
<ellipse fill="none" stroke="black" cx="670.94" cy="-366.77" rx="3.2" ry="3.2"/>
</g>
<!-- planting_seasons -->
<g id="node9" class="node">
<title>planting_seasons</title>
<g id="a_node9"><a xlink:href="../../tables/planting_seasons.html" xlink:title="planting_seasons" target="_top">
<polygon fill="#ffffff" stroke="transparent" points="234,-269 234,-327 380,-327 380,-269 234,-269"/>
<polygon fill="#f5f5f5" stroke="transparent" points="234,-305 234,-327 380,-327 380,-305 234,-305"/>
<polygon fill="none" stroke="black" points="234,-305 234,-327 380,-327 380,-305 234,-305"/>
<text text-anchor="start" x="239" y="-314.2" font-family="Helvetica,sans-Serif" font-weight="bold" font-size="11.00">planting_seasons</text>
<text text-anchor="start" x="341" y="-313.2" font-family="Helvetica,sans-Serif" font-size="11.00">[table]</text>
<polygon fill="none" stroke="black" points="234,-287 234,-305 380,-305 380,-287 234,-287"/>
<text text-anchor="start" x="237" y="-293.2" font-family="Helvetica,sans-Serif" font-size="11.00">...</text>
<polygon fill="#ffffff" stroke="transparent" points="234,-269 234,-287 305,-287 305,-269 234,-269"/>
<polygon fill="none" stroke="black" points="234,-269 234,-287 305,-287 305,-269 234,-269"/>
<text text-anchor="start" x="237" y="-275.2" font-family="Helvetica,sans-Serif" font-size="11.00">&lt; 1</text>
<polygon fill="#ffffff" stroke="transparent" points="305,-269 305,-287 342,-287 342,-269 305,-269"/>
<polygon fill="none" stroke="black" points="305,-269 305,-287 342,-287 342,-269 305,-269"/>
<text text-anchor="start" x="332" y="-275.2" font-family="Helvetica,sans-Serif" font-size="11.00"> &#160;</text>
<polygon fill="#ffffff" stroke="transparent" points="342,-269 342,-287 380,-287 380,-269 342,-269"/>
<polygon fill="none" stroke="black" points="342,-269 342,-287 380,-287 380,-269 342,-269"/>
<text text-anchor="start" x="370" y="-275.2" font-family="Helvetica,sans-Serif" font-size="11.00"> &#160;</text>
</a>
</g>
</g>
<!-- planting_seasons&#45;&gt;planting_sites -->
<g id="edge12" class="edge">
<title>planting_seasons:w&#45;&gt;planting_sites:e</title>
<path fill="none" stroke="black" d="M218.57,-297.5C197.77,-302.36 190.51,-318.72 175,-341 141.19,-389.57 194.18,-468 135,-468"/>
<polygon fill="black" stroke="black" points="225.04,-296.83 233.37,-299.58 229.02,-296.41 233,-296 233,-296 233,-296 229.02,-296.41 232.63,-292.42 225.04,-296.83 225.04,-296.83"/>
<ellipse fill="none" stroke="black" cx="221.86" cy="-297.16" rx="3.2" ry="3.2"/>
</g>
<!-- planting_site_notifications -->
<g id="node10" class="node">
<title>planting_site_notifications</title>
<g id="a_node10"><a xlink:href="../../tables/planting_site_notifications.html" xlink:title="planting_site_notifications" target="_top">
<polygon fill="#ffffff" stroke="transparent" points="206.5,-190 206.5,-248 407.5,-248 407.5,-190 206.5,-190"/>
<polygon fill="#f5f5f5" stroke="transparent" points="207,-226 207,-248 408,-248 408,-226 207,-226"/>
<polygon fill="none" stroke="black" points="207,-226 207,-248 408,-248 408,-226 207,-226"/>
<text text-anchor="start" x="212" y="-235.2" font-family="Helvetica,sans-Serif" font-weight="bold" font-size="11.00">planting_site_notifications</text>
<text text-anchor="start" x="369" y="-234.2" font-family="Helvetica,sans-Serif" font-size="11.00">[table]</text>
<polygon fill="none" stroke="black" points="207,-208 207,-226 408,-226 408,-208 207,-208"/>
<text text-anchor="start" x="210" y="-214.2" font-family="Helvetica,sans-Serif" font-size="11.00">...</text>
<polygon fill="#ffffff" stroke="transparent" points="207,-190 207,-208 305,-208 305,-190 207,-190"/>
<polygon fill="none" stroke="black" points="207,-190 207,-208 305,-208 305,-190 207,-190"/>
<text text-anchor="start" x="210" y="-196.2" font-family="Helvetica,sans-Serif" font-size="11.00">&lt; 1</text>
<polygon fill="#ffffff" stroke="transparent" points="305,-190 305,-208 356,-208 356,-190 305,-190"/>
<polygon fill="none" stroke="black" points="305,-190 305,-208 356,-208 356,-190 305,-190"/>
<text text-anchor="start" x="346" y="-196.2" font-family="Helvetica,sans-Serif" font-size="11.00"> &#160;</text>
<polygon fill="#ffffff" stroke="transparent" points="356,-190 356,-208 408,-208 408,-190 356,-190"/>
<polygon fill="none" stroke="black" points="356,-190 356,-208 408,-208 408,-190 356,-190"/>
<text text-anchor="start" x="398" y="-196.2" font-family="Helvetica,sans-Serif" font-size="11.00"> &#160;</text>
</a>
</g>
</g>
<!-- planting_site_notifications&#45;&gt;planting_sites -->
<g id="edge14" class="edge">
<title>planting_site_notifications:w&#45;&gt;planting_sites:e</title>
<path fill="none" stroke="black" d="M191.93,-221.12C182.99,-228.06 181.73,-242.83 175,-258 155.72,-301.42 182.51,-468 135,-468"/>
<polygon fill="black" stroke="black" points="198.32,-219.25 207.01,-220.46 202.16,-218.12 206,-217 206,-217 206,-217 202.16,-218.12 204.99,-213.54 198.32,-219.25 198.32,-219.25"/>
<ellipse fill="none" stroke="black" cx="195.25" cy="-220.15" rx="3.2" ry="3.2"/>
</g>
<!-- planting_site_populations -->
<g id="node11" class="node">
<title>planting_site_populations</title>
<g id="a_node11"><a xlink:href="../../tables/planting_site_populations.html" xlink:title="planting_site_populations" target="_top">
<polygon fill="#ffffff" stroke="transparent" points="183,-37 183,-169 431,-169 431,-37 183,-37"/>
<polygon fill="#f5f5f5" stroke="transparent" points="185,-145 185,-167 429,-167 429,-145 185,-145"/>
<polygon fill="none" stroke="black" points="185,-145 185,-167 429,-167 429,-145 185,-145"/>
<text text-anchor="start" x="190" y="-154.2" font-family="Helvetica,sans-Serif" font-weight="bold" font-size="11.00">planting_site_populations</text>
<text text-anchor="start" x="390" y="-153.2" font-family="Helvetica,sans-Serif" font-size="11.00">[table]</text>
<polygon fill="none" stroke="black" points="185,-123 185,-145 383,-145 383,-123 185,-123"/>
<image xlink:href="../../images/primaryKeys.png" width="11px" height="12px" preserveAspectRatio="xMinYMin meet" x="190" y="-140"/>
<text text-anchor="start" x="205" y="-131.2" font-family="Helvetica,sans-Serif" font-size="11.00">planting_site_id</text>
<polygon fill="none" stroke="black" points="383,-123 383,-145 429,-145 429,-123 383,-123"/>
<text text-anchor="start" x="386" y="-131.2" font-family="Helvetica,sans-Serif" font-size="11.00">int8[19]</text>
<polygon fill="none" stroke="black" points="185,-101 185,-123 383,-123 383,-101 185,-101"/>
<image xlink:href="../../images/primaryKeys.png" width="11px" height="12px" preserveAspectRatio="xMinYMin meet" x="190" y="-118"/>
<text text-anchor="start" x="205" y="-109.2" font-family="Helvetica,sans-Serif" font-size="11.00">species_id</text>
<polygon fill="none" stroke="black" points="383,-101 383,-123 429,-123 429,-101 383,-101"/>
<text text-anchor="start" x="386" y="-109.2" font-family="Helvetica,sans-Serif" font-size="11.00">int8[19]</text>
<polygon fill="none" stroke="black" points="185,-79 185,-101 383,-101 383,-79 185,-79"/>
<text text-anchor="start" x="205" y="-87.2" font-family="Helvetica,sans-Serif" font-size="11.00">total_plants</text>
<polygon fill="none" stroke="black" points="383,-79 383,-101 429,-101 429,-79 383,-79"/>
<text text-anchor="start" x="386" y="-87.2" font-family="Helvetica,sans-Serif" font-size="11.00">int4[10]</text>
<polygon fill="none" stroke="black" points="185,-57 185,-79 383,-79 383,-57 185,-57"/>
<text text-anchor="start" x="205" y="-65.2" font-family="Helvetica,sans-Serif" font-size="11.00">plants_since_last_observation</text>
<polygon fill="none" stroke="black" points="383,-57 383,-79 429,-79 429,-57 383,-57"/>
<text text-anchor="start" x="386" y="-65.2" font-family="Helvetica,sans-Serif" font-size="11.00">int4[10]</text>
<polygon fill="#ffffff" stroke="transparent" points="185,-39 185,-57 288,-57 288,-39 185,-39"/>
<polygon fill="none" stroke="black" points="185,-39 185,-57 288,-57 288,-39 185,-39"/>
<text text-anchor="start" x="188" y="-45.2" font-family="Helvetica,sans-Serif" font-size="11.00">&lt; 1</text>
<polygon fill="#ffffff" stroke="transparent" points="288,-39 288,-57 383,-57 383,-39 288,-39"/>
<polygon fill="none" stroke="black" points="288,-39 288,-57 383,-57 383,-39 288,-39"/>
<text text-anchor="start" x="373" y="-45.2" font-family="Helvetica,sans-Serif" font-size="11.00"> &#160;</text>
<polygon fill="#ffffff" stroke="transparent" points="383,-39 383,-57 429,-57 429,-39 383,-39"/>
<polygon fill="none" stroke="black" points="383,-39 383,-57 429,-57 429,-39 383,-39"/>
<text text-anchor="start" x="410" y="-45.2" font-family="Helvetica,sans-Serif" font-size="11.00">0 &gt;</text>
<polygon fill="none" stroke="black" stroke-width="2" points="184,-38 184,-168 430,-168 430,-38 184,-38"/>
</a>
</g>
</g>
<!-- planting_site_populations&#45;&gt;planting_sites -->
<g id="edge15" class="edge">
<title>planting_site_populations:w&#45;&gt;planting_sites:e</title>
<path fill="none" stroke="black" d="M170.36,-138.98C122.67,-180.53 204.6,-468 135,-468"/>
<polygon fill="black" stroke="black" points="176.49,-136.74 185.23,-137.38 180.24,-135.37 184,-134 184,-134 184,-134 180.24,-135.37 182.77,-130.62 176.49,-136.74 176.49,-136.74"/>
<ellipse fill="none" stroke="black" cx="173.48" cy="-137.84" rx="3.2" ry="3.2"/>
</g>
<!-- planting_zones&#45;&gt;planting_sites -->
<g id="edge19" class="edge">
<title>planting_zones:w&#45;&gt;planting_sites:e</title>
<path fill="none" stroke="black" d="M225.39,-600.86C202.72,-596.9 193.64,-582.81 175,-561 145.77,-526.79 179.99,-468 135,-468"/>
<polygon fill="black" stroke="black" points="232.02,-601.38 239.72,-605.59 236.01,-601.69 240,-602 240,-602 240,-602 236.01,-601.69 240.28,-598.41 232.02,-601.38 232.02,-601.38"/>
<ellipse fill="none" stroke="black" cx="228.83" cy="-601.13" rx="3.2" ry="3.2"/>
</g>
<!-- plantings -->
<g id="node13" class="node">
<title>plantings</title>
<g id="a_node13"><a xlink:href="../../tables/plantings.html" xlink:title="plantings" target="_top">
<polygon fill="#ffffff" stroke="transparent" points="740.5,-508 740.5,-566 839.5,-566 839.5,-508 740.5,-508"/>
<polygon fill="#f5f5f5" stroke="transparent" points="741,-544 741,-566 840,-566 840,-544 741,-544"/>
<polygon fill="none" stroke="black" points="741,-544 741,-566 840,-566 840,-544 741,-544"/>
<text text-anchor="start" x="746" y="-553.2" font-family="Helvetica,sans-Serif" font-weight="bold" font-size="11.00">plantings</text>
<text text-anchor="start" x="801" y="-552.2" font-family="Helvetica,sans-Serif" font-size="11.00">[table]</text>
<polygon fill="none" stroke="black" points="741,-526 741,-544 840,-544 840,-526 741,-526"/>
<text text-anchor="start" x="744" y="-532.2" font-family="Helvetica,sans-Serif" font-size="11.00">...</text>
<polygon fill="#ffffff" stroke="transparent" points="741,-508 741,-526 788,-526 788,-508 741,-508"/>
<polygon fill="none" stroke="black" points="741,-508 741,-526 788,-526 788,-508 741,-508"/>
<text text-anchor="start" x="744" y="-514.2" font-family="Helvetica,sans-Serif" font-size="11.00">&lt; 6</text>
<polygon fill="#ffffff" stroke="transparent" points="788,-508 788,-526 814,-526 814,-508 788,-508"/>
<polygon fill="none" stroke="black" points="788,-508 788,-526 814,-526 814,-508 788,-508"/>
<text text-anchor="start" x="804" y="-514.2" font-family="Helvetica,sans-Serif" font-size="11.00"> &#160;</text>
<polygon fill="#ffffff" stroke="transparent" points="814,-508 814,-526 840,-526 840,-508 814,-508"/>
<polygon fill="none" stroke="black" points="814,-508 814,-526 840,-526 840,-508 814,-508"/>
<text text-anchor="start" x="830" y="-514.2" font-family="Helvetica,sans-Serif" font-size="11.00"> &#160;</text>
</a>
</g>
</g>
<!-- plantings&#45;&gt;deliveries -->
<g id="edge20" class="edge">
<title>plantings:w&#45;&gt;deliveries:e</title>
<path fill="none" stroke="black" d="M725.72,-532.84C677.29,-522.77 664.65,-490.5 609,-496"/>
<polygon fill="black" stroke="black" points="732.09,-533.8 739.46,-538.56 736.05,-534.4 740,-535 740,-535 740,-535 736.05,-534.4 740.54,-531.44 732.09,-533.8 732.09,-533.8"/>
<ellipse fill="none" stroke="black" cx="728.93" cy="-533.32" rx="3.2" ry="3.2"/>
</g>
<!-- plantings&#45;&gt;deliveries -->
<g id="edge21" class="edge">
<title>plantings:w&#45;&gt;deliveries:e</title>
<path fill="none" stroke="black" d="M725.41,-535.84C677.24,-535.53 664.53,-502.4 609,-496"/>
<polygon fill="black" stroke="black" points="732.01,-535.46 740.21,-538.59 736.01,-535.23 740,-535 740,-535 740,-535 736.01,-535.23 739.79,-531.41 732.01,-535.46 732.01,-535.46"/>
<ellipse fill="none" stroke="black" cx="728.82" cy="-535.64" rx="3.2" ry="3.2"/>
</g>
<!-- plantings&#45;&gt;planting_sites -->
<g id="edge22" class="edge">
<title>plantings:w&#45;&gt;planting_sites:e</title>
<path fill="none" stroke="black" d="M725.49,-535.1C693.32,-535.54 680.29,-537.41 642,-538 566.45,-539.16 547.41,-542.68 472,-538 455.4,-536.97 190.27,-507.58 175,-501 153.83,-491.88 158.05,-468 135,-468"/>
<polygon fill="black" stroke="black" points="732,-535.05 740.02,-538.6 736,-535.03 740,-535 740,-535 740,-535 736,-535.03 739.98,-531.4 732,-535.05 732,-535.05"/>
<ellipse fill="none" stroke="black" cx="728.8" cy="-535.07" rx="3.2" ry="3.2"/>
</g>
<!-- plantings&#45;&gt;planting_subzones -->
<g id="edge23" class="edge">
<title>plantings:w&#45;&gt;planting_subzones:e</title>
<path fill="none" stroke="black" d="M725.58,-537.02C697.34,-548.45 658.35,-596.94 635,-602"/>
<polygon fill="black" stroke="black" points="732.08,-536.11 740.5,-538.57 736.04,-535.56 740,-535 740,-535 740,-535 736.04,-535.56 739.5,-531.43 732.08,-536.11 732.08,-536.11"/>
<ellipse fill="none" stroke="black" cx="728.91" cy="-536.56" rx="3.2" ry="3.2"/>
</g>
<!-- plantings&#45;&gt;planting_subzones -->
<g id="edge24" class="edge">
<title>plantings:w&#45;&gt;planting_subzones:e</title>
<path fill="none" stroke="black" d="M726.75,-541.39C698.43,-559.82 658.68,-607.99 635,-602"/>
<polygon fill="black" stroke="black" points="732.79,-538.48 741.56,-538.24 736.4,-536.74 740,-535 740,-535 740,-535 736.4,-536.74 738.44,-531.76 732.79,-538.48 732.79,-538.48"/>
<ellipse fill="none" stroke="black" cx="729.91" cy="-539.87" rx="3.2" ry="3.2"/>
</g>
</g>
</svg>
