<?xml version="1.0" encoding="UTF-8" standalone="no"?>
<!DOCTYPE svg PUBLIC "-//W3C//DTD SVG 1.1//EN"
 "http://www.w3.org/Graphics/SVG/1.1/DTD/svg11.dtd">
<!-- Generated by graphviz version 2.47.1 (20210515.0534)
 -->
<!-- Title: oneDegreeRelationshipsDiagram Pages: 1 -->
<svg width="510pt" height="340pt"
 viewBox="0.00 0.00 510.00 340.00" xmlns="http://www.w3.org/2000/svg" xmlns:xlink="http://www.w3.org/1999/xlink">
<g id="graph0" class="graph" transform="scale(1 1) rotate(0) translate(4 336)">
<title>oneDegreeRelationshipsDiagram</title>
<polygon fill="#ffffff" stroke="transparent" points="-4,4 -4,-336 506,-336 506,4 -4,4"/>
<text text-anchor="middle" x="73.5" y="-7.2" font-family="Helvetica,sans-Serif" font-size="11.00">Generated by SchemaSpy</text>
<!-- planting_date_request_species -->
<g id="node1" class="node">
<title>planting_date_request_species</title>
<g id="a_node1"><a xlink:href="../../tables/planting_date_request_species.html" xlink:title="planting_date_request_species" target="_top">
<polygon fill="#ffffff" stroke="transparent" points="242,-147 242,-279 494,-279 494,-147 242,-147"/>
<polygon fill="#f5f5f5" stroke="transparent" points="244,-255 244,-277 492,-277 492,-255 244,-255"/>
<polygon fill="none" stroke="black" points="244,-255 244,-277 492,-277 492,-255 244,-255"/>
<text text-anchor="start" x="249" y="-264.2" font-family="Helvetica,sans-Serif" font-weight="bold" font-size="11.00">planting_date_request_species</text>
<text text-anchor="start" x="453" y="-263.2" font-family="Helvetica,sans-Serif" font-size="11.00">[table]</text>
<polygon fill="none" stroke="black" points="244,-233 244,-255 446,-255 446,-233 244,-233"/>
<image xlink:href="../../images/primaryKeys.png" width="11px" height="12px" preserveAspectRatio="xMinYMin meet" x="249" y="-250"/>
<text text-anchor="start" x="264" y="-241.2" font-family="Helvetica,sans-Serif" font-size="11.00">scheduled_planting_date_id</text>
<polygon fill="none" stroke="black" points="446,-233 446,-255 492,-255 492,-233 446,-233"/>
<text text-anchor="start" x="449" y="-241.2" font-family="Helvetica,sans-Serif" font-size="11.00">int8[19]</text>
<polygon fill="none" stroke="black" points="244,-211 244,-233 446,-233 446,-211 244,-211"/>
<image xlink:href="../../images/primaryKeys.png" width="11px" height="12px" preserveAspectRatio="xMinYMin meet" x="249" y="-228"/>
<text text-anchor="start" x="264" y="-219.2" font-family="Helvetica,sans-Serif" font-size="11.00">substratum_id</text>
<polygon fill="none" stroke="black" points="446,-211 446,-233 492,-233 492,-211 446,-211"/>
<text text-anchor="start" x="449" y="-219.2" font-family="Helvetica,sans-Serif" font-size="11.00">int8[19]</text>
<polygon fill="none" stroke="black" points="244,-189 244,-211 446,-211 446,-189 244,-189"/>
<image xlink:href="../../images/primaryKeys.png" width="11px" height="12px" preserveAspectRatio="xMinYMin meet" x="249" y="-206"/>
<text text-anchor="start" x="264" y="-197.2" font-family="Helvetica,sans-Serif" font-size="11.00">species_id</text>
<polygon fill="none" stroke="black" points="446,-189 446,-211 492,-211 492,-189 446,-189"/>
<text text-anchor="start" x="449" y="-197.2" font-family="Helvetica,sans-Serif" font-size="11.00">int8[19]</text>
<polygon fill="none" stroke="black" points="244,-167 244,-189 446,-189 446,-167 244,-167"/>
<text text-anchor="start" x="264" y="-175.2" font-family="Helvetica,sans-Serif" font-size="11.00">quantity</text>
<polygon fill="none" stroke="black" points="446,-167 446,-189 492,-189 492,-167 446,-167"/>
<text text-anchor="start" x="449" y="-175.2" font-family="Helvetica,sans-Serif" font-size="11.00">int4[10]</text>
<polygon fill="#ffffff" stroke="transparent" points="244,-149 244,-167 349,-167 349,-149 244,-149"/>
<polygon fill="none" stroke="black" points="244,-149 244,-167 349,-167 349,-149 244,-149"/>
<text text-anchor="start" x="247" y="-155.2" font-family="Helvetica,sans-Serif" font-size="11.00">&lt; 2</text>
<polygon fill="#ffffff" stroke="transparent" points="349,-149 349,-167 446,-167 446,-149 349,-149"/>
<polygon fill="none" stroke="black" points="349,-149 349,-167 446,-167 446,-149 349,-149"/>
<text text-anchor="start" x="436" y="-155.2" font-family="Helvetica,sans-Serif" font-size="11.00"> &#160;</text>
<polygon fill="#ffffff" stroke="transparent" points="446,-149 446,-167 492,-167 492,-149 446,-149"/>
<polygon fill="none" stroke="black" points="446,-149 446,-167 492,-167 492,-149 446,-149"/>
<text text-anchor="start" x="473" y="-155.2" font-family="Helvetica,sans-Serif" font-size="11.00">0 &gt;</text>
<polygon fill="none" stroke="black" stroke-width="2" points="243,-148 243,-278 493,-278 493,-148 243,-148"/>
</a>
</g>
</g>
<!-- planting_date_requests -->
<g id="node2" class="node">
<title>planting_date_requests</title>
<g id="a_node2"><a xlink:href="../../tables/planting_date_requests.html" xlink:title="planting_date_requests" target="_top">
<polygon fill="#ffffff" stroke="transparent" points="8,-226 8,-328 193,-328 193,-226 8,-226"/>
<polygon fill="#f5f5f5" stroke="transparent" points="8.5,-306 8.5,-328 193.5,-328 193.5,-306 8.5,-306"/>
<polygon fill="none" stroke="black" points="8.5,-306 8.5,-328 193.5,-328 193.5,-306 8.5,-306"/>
<text text-anchor="start" x="13.5" y="-315.2" font-family="Helvetica,sans-Serif" font-weight="bold" font-size="11.00">planting_date_requests</text>
<text text-anchor="start" x="154.5" y="-314.2" font-family="Helvetica,sans-Serif" font-size="11.00">[table]</text>
<polygon fill="none" stroke="black" points="8.5,-284 8.5,-306 193.5,-306 193.5,-284 8.5,-284"/>
<image xlink:href="../../images/primaryKeys.png" width="11px" height="12px" preserveAspectRatio="xMinYMin meet" x="13.5" y="-301"/>
<text text-anchor="start" x="28.5" y="-292.2" font-family="Helvetica,sans-Serif" font-size="11.00">scheduled_planting_date_id</text>
<polygon fill="none" stroke="black" points="8.5,-262 8.5,-284 193.5,-284 193.5,-262 8.5,-262"/>
<image xlink:href="../../images/foreignKeys.png" width="11px" height="12px" preserveAspectRatio="xMinYMin meet" x="13.5" y="-279"/>
<text text-anchor="start" x="28.5" y="-270.2" font-family="Helvetica,sans-Serif" font-size="11.00">status_id</text>
<polygon fill="none" stroke="black" points="8.5,-244 8.5,-262 193.5,-262 193.5,-244 8.5,-244"/>
<text text-anchor="start" x="11.5" y="-250.2" font-family="Helvetica,sans-Serif" font-size="11.00">...</text>
<polygon fill="#ffffff" stroke="transparent" points="8.5,-226 8.5,-244 94.5,-244 94.5,-226 8.5,-226"/>
<polygon fill="none" stroke="black" points="8.5,-226 8.5,-244 94.5,-244 94.5,-226 8.5,-226"/>
<text text-anchor="start" x="11.5" y="-232.2" font-family="Helvetica,sans-Serif" font-size="11.00">&lt; 2</text>
<polygon fill="#ffffff" stroke="transparent" points="94.5,-226 94.5,-244 139.5,-244 139.5,-226 94.5,-226"/>
<polygon fill="none" stroke="black" points="94.5,-226 94.5,-244 139.5,-244 139.5,-226 94.5,-226"/>
<text text-anchor="start" x="129.5" y="-232.2" font-family="Helvetica,sans-Serif" font-size="11.00"> &#160;</text>
<polygon fill="#ffffff" stroke="transparent" points="139.5,-226 139.5,-244 193.5,-244 193.5,-226 139.5,-226"/>
<polygon fill="none" stroke="black" points="139.5,-226 139.5,-244 193.5,-244 193.5,-226 139.5,-226"/>
<text text-anchor="start" x="174.5" y="-232.2" font-family="Helvetica,sans-Serif" font-size="11.00">2 &gt;</text>
</a>
</g>
</g>
<!-- planting_date_request_species&#45;&gt;planting_date_requests -->
<g id="edge1" class="edge">
<title>planting_date_request_species:w&#45;&gt;planting_date_requests:e</title>
<path fill="none" stroke="black" d="M229.19,-249.08C215.48,-261.98 219.67,-295 194.5,-295"/>
<polygon fill="black" stroke="black" points="235.49,-246.76 244.24,-247.38 239.25,-245.38 243,-244 243,-244 243,-244 239.25,-245.38 241.76,-240.62 235.49,-246.76 235.49,-246.76"/>
<ellipse fill="none" stroke="black" cx="232.49" cy="-247.86" rx="3.2" ry="3.2"/>
</g>
<!-- substrata -->
<g id="node3" class="node">
<title>substrata</title>
<g id="a_node3"><a xlink:href="../../tables/substrata.html" xlink:title="substrata" target="_top">
<polygon fill="#ffffff" stroke="transparent" points="14.5,-37 14.5,-205 186.5,-205 186.5,-37 14.5,-37"/>
<polygon fill="#f5f5f5" stroke="transparent" points="14.5,-183 14.5,-205 186.5,-205 186.5,-183 14.5,-183"/>
<polygon fill="none" stroke="black" points="14.5,-183 14.5,-205 186.5,-205 186.5,-183 14.5,-183"/>
<text text-anchor="start" x="19.5" y="-192.2" font-family="Helvetica,sans-Serif" font-weight="bold" font-size="11.00">substrata</text>
<text text-anchor="start" x="147.5" y="-191.2" font-family="Helvetica,sans-Serif" font-size="11.00">[table]</text>
<polygon fill="none" stroke="black" points="14.5,-161 14.5,-183 186.5,-183 186.5,-161 14.5,-161"/>
<image xlink:href="../../images/primaryKeys.png" width="11px" height="12px" preserveAspectRatio="xMinYMin meet" x="19.5" y="-178"/>
<text text-anchor="start" x="34.5" y="-169.2" font-family="Helvetica,sans-Serif" font-size="11.00">id</text>
<polygon fill="#ffffff" stroke="transparent" points="14.5,-139 14.5,-161 186.5,-161 186.5,-139 14.5,-139"/>
<polygon fill="none" stroke="black" points="14.5,-139 14.5,-161 186.5,-161 186.5,-139 14.5,-139"/>
<image xlink:href="../../images/foreignKeys.png" width="11px" height="12px" preserveAspectRatio="xMinYMin meet" x="19.5" y="-156"/>
<text text-anchor="start" x="34.5" y="-147.2" font-family="Helvetica,sans-Serif" font-size="11.00">stratum_id</text>
<polygon fill="#ffffff" stroke="transparent" points="14.5,-117 14.5,-139 186.5,-139 186.5,-117 14.5,-117"/>
<polygon fill="none" stroke="black" points="14.5,-117 14.5,-139 186.5,-139 186.5,-117 14.5,-117"/>
<text text-anchor="start" x="34.5" y="-125.2" font-family="Helvetica,sans-Serif" font-size="11.00">name</text>
<polygon fill="#ffffff" stroke="transparent" points="14.5,-95 14.5,-117 186.5,-117 186.5,-95 14.5,-95"/>
<polygon fill="none" stroke="black" points="14.5,-95 14.5,-117 186.5,-117 186.5,-95 14.5,-95"/>
<image xlink:href="../../images/foreignKeys.png" width="11px" height="12px" preserveAspectRatio="xMinYMin meet" x="19.5" y="-112"/>
<text text-anchor="start" x="34.5" y="-103.2" font-family="Helvetica,sans-Serif" font-size="11.00">planting_site_id</text>
<polygon fill="#ffffff" stroke="transparent" points="14.5,-73 14.5,-95 186.5,-95 186.5,-73 14.5,-73"/>
<polygon fill="none" stroke="black" points="14.5,-73 14.5,-95 186.5,-95 186.5,-73 14.5,-73"/>
<text text-anchor="start" x="34.5" y="-81.2" font-family="Helvetica,sans-Serif" font-size="11.00">stable_id</text>
<polygon fill="none" stroke="black" points="14.5,-55 14.5,-73 186.5,-73 186.5,-55 14.5,-55"/>
<text text-anchor="start" x="17.5" y="-61.2" font-family="Helvetica,sans-Serif" font-size="11.00">...</text>
<polygon fill="#ffffff" stroke="transparent" points="14.5,-37 14.5,-55 90.5,-55 90.5,-37 14.5,-37"/>
<polygon fill="none" stroke="black" points="14.5,-37 14.5,-55 90.5,-55 90.5,-37 14.5,-37"/>
<text text-anchor="start" x="17.5" y="-43.2" font-family="Helvetica,sans-Serif" font-size="11.00">&lt; 3</text>
<polygon fill="#ffffff" stroke="transparent" points="90.5,-37 90.5,-55 130.5,-55 130.5,-37 90.5,-37"/>
<polygon fill="none" stroke="black" points="90.5,-37 90.5,-55 130.5,-55 130.5,-37 90.5,-37"/>
<text text-anchor="start" x="120.5" y="-43.2" font-family="Helvetica,sans-Serif" font-size="11.00"> &#160;</text>
<polygon fill="#ffffff" stroke="transparent" points="130.5,-37 130.5,-55 186.5,-55 186.5,-37 130.5,-37"/>
<polygon fill="none" stroke="black" points="130.5,-37 130.5,-55 186.5,-55 186.5,-37 130.5,-37"/>
<text text-anchor="start" x="161.5" y="-43.2" font-family="Helvetica,sans-Serif" font-size="11.00">13 &gt;</text>
</a>
</g>
</g>
<!-- planting_date_request_species&#45;&gt;substrata -->
<g id="edge2" class="edge">
<title>planting_date_request_species:w&#45;&gt;substrata:e</title>
<path fill="none" stroke="black" d="M228.86,-217.74C212.29,-205.65 214.73,-172 187.5,-172"/>
<polygon fill="black" stroke="black" points="235.34,-219.69 241.96,-225.45 239.17,-220.85 243,-222 243,-222 243,-222 239.17,-220.85 244.04,-218.55 235.34,-219.69 235.34,-219.69"/>
<ellipse fill="none" stroke="black" cx="232.28" cy="-218.77" rx="3.2" ry="3.2"/>
</g>
</g>
</svg>
