<?xml version="1.0" encoding="UTF-8" standalone="no"?>
<!DOCTYPE svg PUBLIC "-//W3C//DTD SVG 1.1//EN"
 "http://www.w3.org/Graphics/SVG/1.1/DTD/svg11.dtd">
<!-- Generated by graphviz version 2.38.0 (20140413.2041)
 -->
<!-- Title: twoDegreesRelationshipsDiagram Pages: 1 -->
<svg width="603pt" height="328pt"
 viewBox="0.00 0.00 603.00 328.00" xmlns="http://www.w3.org/2000/svg" xmlns:xlink="http://www.w3.org/1999/xlink">
<g id="graph0" class="graph" transform="scale(1 1) rotate(0) translate(4 324)">
<title>twoDegreesRelationshipsDiagram</title>
<polygon fill="#ffffff" stroke="none" points="-4,4 -4,-324 599,-324 599,4 -4,4"/>
<text text-anchor="middle" x="74.5" y="-7.2" font-family="Helvetica,sans-Serif" font-size="11.00">Generated by SchemaSpy</text>
<!-- deliveries -->
<g id="node1" class="node"><title>deliveries</title>
<g id="a_node1"><a xlink:href="../../tables/deliveries.html" xlink:title="deliveries" target="_top">
<polygon fill="#ffffff" stroke="none" points="238,-149 238,-207 343,-207 343,-149 238,-149"/>
<polygon fill="#f5f5f5" stroke="none" points="238.5,-185 238.5,-207 343.5,-207 343.5,-185 238.5,-185"/>
<polygon fill="none" stroke="black" points="238.5,-185 238.5,-207 343.5,-207 343.5,-185 238.5,-185"/>
<text text-anchor="start" x="243.5" y="-194.2" font-family="Helvetica,sans-Serif" font-weight="bold" font-size="11.00">deliveries</text>
<text text-anchor="start" x="304.5" y="-193.2" font-family="Helvetica,sans-Serif" font-size="11.00">[table]</text>
<polygon fill="none" stroke="black" points="238.5,-167 238.5,-185 343.5,-185 343.5,-167 238.5,-167"/>
<text text-anchor="start" x="241.5" y="-173.2" font-family="Helvetica,sans-Serif" font-size="11.00">...</text>
<polygon fill="#ffffff" stroke="none" points="238.5,-149 238.5,-167 269.5,-167 269.5,-149 238.5,-149"/>
<polygon fill="none" stroke="black" points="238.5,-149 238.5,-167 269.5,-167 269.5,-149 238.5,-149"/>
<text text-anchor="start" x="241.5" y="-155.2" font-family="Helvetica,sans-Serif" font-size="11.00">&lt; 1</text>
<polygon fill="#ffffff" stroke="none" points="269.5,-149 269.5,-167 315.5,-167 315.5,-149 269.5,-149"/>
<polygon fill="none" stroke="black" points="269.5,-149 269.5,-167 315.5,-167 315.5,-149 269.5,-149"/>
<text text-anchor="start" x="276.5" y="-155.2" font-family="Helvetica,sans-Serif" font-size="11.00">0 rows</text>
<polygon fill="#ffffff" stroke="none" points="315.5,-149 315.5,-167 343.5,-167 343.5,-149 315.5,-149"/>
<polygon fill="none" stroke="black" points="315.5,-149 315.5,-167 343.5,-167 343.5,-149 315.5,-149"/>
<text text-anchor="start" x="323.5" y="-155.2" font-family="Helvetica,sans-Serif" font-size="11.00">2 &gt;</text>
</a>
</g>
</g>
<!-- planting_sites -->
<g id="node2" class="node"><title>planting_sites</title>
<g id="a_node2"><a xlink:href="../../tables/planting_sites.html" xlink:title="planting_sites" target="_top">
<polygon fill="#ffffff" stroke="none" points="8,-98 8,-156 135,-156 135,-98 8,-98"/>
<polygon fill="#f5f5f5" stroke="none" points="8.5,-134 8.5,-156 135.5,-156 135.5,-134 8.5,-134"/>
<polygon fill="none" stroke="black" points="8.5,-134 8.5,-156 135.5,-156 135.5,-134 8.5,-134"/>
<text text-anchor="start" x="13.5" y="-143.2" font-family="Helvetica,sans-Serif" font-weight="bold" font-size="11.00">planting_sites</text>
<text text-anchor="start" x="96.5" y="-142.2" font-family="Helvetica,sans-Serif" font-size="11.00">[table]</text>
<polygon fill="none" stroke="black" points="8.5,-116 8.5,-134 135.5,-134 135.5,-116 8.5,-116"/>
<text text-anchor="start" x="11.5" y="-122.2" font-family="Helvetica,sans-Serif" font-size="11.00">...</text>
<polygon fill="#ffffff" stroke="none" points="8.5,-98 8.5,-116 45.5,-116 45.5,-98 8.5,-98"/>
<polygon fill="none" stroke="black" points="8.5,-98 8.5,-116 45.5,-116 45.5,-98 8.5,-98"/>
<text text-anchor="start" x="11.5" y="-104.2" font-family="Helvetica,sans-Serif" font-size="11.00"> &#160;</text>
<polygon fill="#ffffff" stroke="none" points="45.5,-98 45.5,-116 99.5,-116 99.5,-98 45.5,-98"/>
<polygon fill="none" stroke="black" points="45.5,-98 45.5,-116 99.5,-116 99.5,-98 45.5,-98"/>
<text text-anchor="start" x="60.5" y="-104.2" font-family="Helvetica,sans-Serif" font-size="11.00">0 rows</text>
<polygon fill="#ffffff" stroke="none" points="99.5,-98 99.5,-116 135.5,-116 135.5,-98 99.5,-98"/>
<polygon fill="none" stroke="black" points="99.5,-98 99.5,-116 135.5,-116 135.5,-98 99.5,-98"/>
<text text-anchor="start" x="115.5" y="-104.2" font-family="Helvetica,sans-Serif" font-size="11.00">4 &gt;</text>
</a>
</g>
</g>
<!-- deliveries&#45;&gt;planting_sites -->
<g id="edge1" class="edge"><title>deliveries:elipses:w&#45;&gt;planting_sites:elipses:e</title>
<path fill="none" stroke="black" d="M223.136,-174.418C186.568,-165.809 181.483,-125 136.5,-125"/>
<polygon fill="black" stroke="black" points="229.548,-175.124 237.106,-179.578 233.524,-175.562 237.5,-176 237.5,-176 237.5,-176 233.524,-175.562 237.894,-172.422 229.548,-175.124 229.548,-175.124"/>
<ellipse fill="none" stroke="black" cx="226.367" cy="-174.774" rx="3.2" ry="3.2"/>
</g>
<!-- planting_subzones -->
<g id="node3" class="node"><title>planting_subzones</title>
<g id="a_node3"><a xlink:href="../../tables/planting_subzones.html" xlink:title="planting_subzones" target="_top">
<polygon fill="#ffffff" stroke="none" points="214,-43 214,-101 367,-101 367,-43 214,-43"/>
<polygon fill="#f5f5f5" stroke="none" points="214.5,-79 214.5,-101 367.5,-101 367.5,-79 214.5,-79"/>
<polygon fill="none" stroke="black" points="214.5,-79 214.5,-101 367.5,-101 367.5,-79 214.5,-79"/>
<text text-anchor="start" x="219.5" y="-88.2" font-family="Helvetica,sans-Serif" font-weight="bold" font-size="11.00">planting_subzones</text>
<text text-anchor="start" x="328.5" y="-87.2" font-family="Helvetica,sans-Serif" font-size="11.00">[table]</text>
<polygon fill="none" stroke="black" points="214.5,-61 214.5,-79 367.5,-79 367.5,-61 214.5,-61"/>
<text text-anchor="start" x="217.5" y="-67.2" font-family="Helvetica,sans-Serif" font-size="11.00">...</text>
<polygon fill="#ffffff" stroke="none" points="214.5,-43 214.5,-61 269.5,-61 269.5,-43 214.5,-43"/>
<polygon fill="none" stroke="black" points="214.5,-43 214.5,-61 269.5,-61 269.5,-43 214.5,-43"/>
<text text-anchor="start" x="217.5" y="-49.2" font-family="Helvetica,sans-Serif" font-size="11.00">&lt; 3</text>
<polygon fill="#ffffff" stroke="none" points="269.5,-43 269.5,-61 327.5,-61 327.5,-43 269.5,-43"/>
<polygon fill="none" stroke="black" points="269.5,-43 269.5,-61 327.5,-61 327.5,-43 269.5,-43"/>
<text text-anchor="start" x="288.5" y="-49.2" font-family="Helvetica,sans-Serif" font-size="11.00">0 rows</text>
<polygon fill="#ffffff" stroke="none" points="327.5,-43 327.5,-61 367.5,-61 367.5,-43 327.5,-43"/>
<polygon fill="none" stroke="black" points="327.5,-43 327.5,-61 367.5,-61 367.5,-43 327.5,-43"/>
<text text-anchor="start" x="347.5" y="-49.2" font-family="Helvetica,sans-Serif" font-size="11.00">3 &gt;</text>
</a>
</g>
</g>
<!-- planting_subzones&#45;&gt;planting_sites -->
<g id="edge2" class="edge"><title>planting_subzones:elipses:w&#45;&gt;planting_sites:elipses:e</title>
<path fill="none" stroke="black" d="M199.115,-72.6528C172.466,-83.6392 172.97,-125 136.5,-125"/>
<polygon fill="black" stroke="black" points="205.633,-71.4509 214.153,-73.5403 209.566,-70.7254 213.5,-70 213.5,-70 213.5,-70 209.566,-70.7254 212.847,-66.4597 205.633,-71.4509 205.633,-71.4509"/>
<ellipse fill="none" stroke="black" cx="202.486" cy="-72.0312" rx="3.2" ry="3.2"/>
</g>
<!-- plantings -->
<g id="node4" class="node"><title>plantings</title>
<g id="a_node4"><a xlink:href="../../tables/plantings.html" xlink:title="plantings" target="_top">
<polygon fill="#ffffff" stroke="none" points="446,-37 446,-227 587,-227 587,-37 446,-37"/>
<polygon fill="#f5f5f5" stroke="none" points="446.5,-205 446.5,-227 587.5,-227 587.5,-205 446.5,-205"/>
<polygon fill="none" stroke="black" points="446.5,-205 446.5,-227 587.5,-227 587.5,-205 446.5,-205"/>
<text text-anchor="start" x="451.5" y="-214.2" font-family="Helvetica,sans-Serif" font-weight="bold" font-size="11.00">plantings</text>
<text text-anchor="start" x="548.5" y="-213.2" font-family="Helvetica,sans-Serif" font-size="11.00">[table]</text>
<polygon fill="none" stroke="black" points="446.5,-183 446.5,-205 587.5,-205 587.5,-183 446.5,-183"/>
<image xlink:href="../../images/primaryKeys.png" width="11px" height="12px" preserveAspectRatio="xMinYMin meet" x="451.5" y="-200"/>
<text text-anchor="start" x="466.5" y="-191.2" font-family="Helvetica,sans-Serif" font-size="11.00">id</text>
<polygon fill="#ffffff" stroke="none" points="446.5,-161 446.5,-183 587.5,-183 587.5,-161 446.5,-161"/>
<polygon fill="none" stroke="black" points="446.5,-161 446.5,-183 587.5,-183 587.5,-161 446.5,-161"/>
<image xlink:href="../../images/foreignKeys.png" width="11px" height="12px" preserveAspectRatio="xMinYMin meet" x="451.5" y="-178"/>
<text text-anchor="start" x="466.5" y="-169.2" font-family="Helvetica,sans-Serif" font-size="11.00">delivery_id</text>
<polygon fill="#ffffff" stroke="none" points="446.5,-139 446.5,-161 587.5,-161 587.5,-139 446.5,-139"/>
<polygon fill="none" stroke="black" points="446.5,-139 446.5,-161 587.5,-161 587.5,-139 446.5,-139"/>
<image xlink:href="../../images/foreignKeys.png" width="11px" height="12px" preserveAspectRatio="xMinYMin meet" x="451.5" y="-156"/>
<text text-anchor="start" x="466.5" y="-147.2" font-family="Helvetica,sans-Serif" font-size="11.00">planting_type_id</text>
<polygon fill="none" stroke="black" points="446.5,-117 446.5,-139 587.5,-139 587.5,-117 446.5,-117"/>
<image xlink:href="../../images/foreignKeys.png" width="11px" height="12px" preserveAspectRatio="xMinYMin meet" x="451.5" y="-134"/>
<text text-anchor="start" x="466.5" y="-125.2" font-family="Helvetica,sans-Serif" font-size="11.00">planting_site_id</text>
<polygon fill="#ffffff" stroke="none" points="446.5,-95 446.5,-117 587.5,-117 587.5,-95 446.5,-95"/>
<polygon fill="none" stroke="black" points="446.5,-95 446.5,-117 587.5,-117 587.5,-95 446.5,-95"/>
<image xlink:href="../../images/foreignKeys.png" width="11px" height="12px" preserveAspectRatio="xMinYMin meet" x="451.5" y="-112"/>
<text text-anchor="start" x="466.5" y="-103.2" font-family="Helvetica,sans-Serif" font-size="11.00">planting_subzone_id</text>
<polygon fill="#ffffff" stroke="none" points="446.5,-73 446.5,-95 587.5,-95 587.5,-73 446.5,-73"/>
<polygon fill="none" stroke="black" points="446.5,-73 446.5,-95 587.5,-95 587.5,-73 446.5,-73"/>
<text text-anchor="start" x="466.5" y="-81.2" font-family="Helvetica,sans-Serif" font-size="11.00">species_id</text>
<polygon fill="none" stroke="black" points="446.5,-55 446.5,-73 587.5,-73 587.5,-55 446.5,-55"/>
<text text-anchor="start" x="449.5" y="-61.2" font-family="Helvetica,sans-Serif" font-size="11.00">...</text>
<polygon fill="#ffffff" stroke="none" points="446.5,-37 446.5,-55 500.5,-55 500.5,-37 446.5,-37"/>
<polygon fill="none" stroke="black" points="446.5,-37 446.5,-55 500.5,-55 500.5,-37 446.5,-37"/>
<text text-anchor="start" x="449.5" y="-43.2" font-family="Helvetica,sans-Serif" font-size="11.00">&lt; 6</text>
<polygon fill="#ffffff" stroke="none" points="500.5,-37 500.5,-55 558.5,-55 558.5,-37 500.5,-37"/>
<polygon fill="none" stroke="black" points="500.5,-37 500.5,-55 558.5,-55 558.5,-37 500.5,-37"/>
<text text-anchor="start" x="519.5" y="-43.2" font-family="Helvetica,sans-Serif" font-size="11.00">0 rows</text>
<polygon fill="#ffffff" stroke="none" points="558.5,-37 558.5,-55 587.5,-55 587.5,-37 558.5,-37"/>
<polygon fill="none" stroke="black" points="558.5,-37 558.5,-55 587.5,-55 587.5,-37 558.5,-37"/>
<text text-anchor="start" x="577.5" y="-43.2" font-family="Helvetica,sans-Serif" font-size="11.00"> &#160;</text>
</a>
</g>
</g>
<!-- plantings&#45;&gt;deliveries -->
<g id="edge3" class="edge"><title>plantings:delivery_id:w&#45;&gt;deliveries:elipses:e</title>
<path fill="none" stroke="black" d="M430.989,-172.152C397.498,-172.883 384.16,-176 344.5,-176"/>
<polygon fill="black" stroke="black" points="437.5,-172.084 445.538,-175.6 441.5,-172.042 445.5,-172 445.5,-172 445.5,-172 441.5,-172.042 445.462,-168.4 437.5,-172.084 437.5,-172.084"/>
<ellipse fill="none" stroke="black" cx="434.301" cy="-172.117" rx="3.2" ry="3.2"/>
</g>
<!-- plantings&#45;&gt;deliveries -->
<g id="edge4" class="edge"><title>plantings:planting_site_id:w&#45;&gt;deliveries:elipses:e</title>
<path fill="none" stroke="black" d="M430.792,-129.597C394.874,-137.926 388.764,-176 344.5,-176"/>
<polygon fill="black" stroke="black" points="437.547,-128.864 445.889,-131.579 441.523,-128.432 445.5,-128 445.5,-128 445.5,-128 441.523,-128.432 445.111,-124.421 437.547,-128.864 437.547,-128.864"/>
<ellipse fill="none" stroke="black" cx="434.365" cy="-129.209" rx="3.2" ry="3.2"/>
</g>
<!-- plantings&#45;&gt;planting_sites -->
<g id="edge5" class="edge"><title>plantings:planting_site_id:w&#45;&gt;planting_sites:elipses:e</title>
<path fill="none" stroke="black" d="M431.006,-127.989C305.546,-127.787 268.877,-125 136.5,-125"/>
<polygon fill="black" stroke="black" points="437.5,-127.994 445.497,-131.6 441.5,-127.997 445.5,-128 445.5,-128 445.5,-128 441.5,-127.997 445.503,-124.4 437.5,-127.994 437.5,-127.994"/>
<ellipse fill="none" stroke="black" cx="434.3" cy="-127.991" rx="3.2" ry="3.2"/>
</g>
<!-- plantings&#45;&gt;planting_subzones -->
<g id="edge6" class="edge"><title>plantings:planting_site_id:w&#45;&gt;planting_subzones:elipses:e</title>
<path fill="none" stroke="black" d="M431.279,-125.357C404.039,-114.011 405.822,-70 368.5,-70"/>
<polygon fill="black" stroke="black" points="437.635,-126.538 444.842,-131.539 441.567,-127.269 445.5,-128 445.5,-128 445.5,-128 441.567,-127.269 446.158,-124.461 437.635,-126.538 437.635,-126.538"/>
<ellipse fill="none" stroke="black" cx="434.489" cy="-125.953" rx="3.2" ry="3.2"/>
</g>
<!-- plantings&#45;&gt;planting_subzones -->
<g id="edge7" class="edge"><title>plantings:planting_subzone_id:w&#45;&gt;planting_subzones:elipses:e</title>
<path fill="none" stroke="black" d="M431.177,-103.961C406.546,-96.3458 400.818,-70 368.5,-70"/>
<polygon fill="black" stroke="black" points="437.58,-104.873 444.993,-109.564 441.54,-105.436 445.5,-106 445.5,-106 445.5,-106 441.54,-105.436 446.007,-102.436 437.58,-104.873 437.58,-104.873"/>
<ellipse fill="none" stroke="black" cx="434.412" cy="-104.422" rx="3.2" ry="3.2"/>
</g>
<!-- planting_types -->
<g id="node5" class="node"><title>planting_types</title>
<g id="a_node5"><a xlink:href="../../tables/planting_types.html" xlink:title="planting_types" target="_top">
<polygon fill="#ffffff" stroke="none" points="184,-228 184,-316 397,-316 397,-228 184,-228"/>
<polygon fill="#f5f5f5" stroke="none" points="186.5,-292 186.5,-314 395.5,-314 395.5,-292 186.5,-292"/>
<polygon fill="none" stroke="black" points="186.5,-292 186.5,-314 395.5,-314 395.5,-292 186.5,-292"/>
<text text-anchor="start" x="191.5" y="-301.2" font-family="Helvetica,sans-Serif" font-weight="bold" font-size="11.00">planting_types</text>
<text text-anchor="start" x="356.5" y="-300.2" font-family="Helvetica,sans-Serif" font-size="11.00">[table]</text>
<polygon fill="none" stroke="black" points="186.5,-270 186.5,-292 294.5,-292 294.5,-270 186.5,-270"/>
<image xlink:href="../../images/primaryKeys.png" width="11px" height="12px" preserveAspectRatio="xMinYMin meet" x="191.5" y="-287"/>
<text text-anchor="start" x="206.5" y="-278.2" font-family="Helvetica,sans-Serif" font-size="11.00">id</text>
<polygon fill="none" stroke="black" points="294.5,-270 294.5,-292 395.5,-292 395.5,-270 294.5,-270"/>
<text text-anchor="start" x="297.5" y="-278.2" font-family="Helvetica,sans-Serif" font-size="11.00">int4[10]</text>
<polygon fill="none" stroke="black" points="186.5,-248 186.5,-270 294.5,-270 294.5,-248 186.5,-248"/>
<text text-anchor="start" x="206.5" y="-256.2" font-family="Helvetica,sans-Serif" font-size="11.00">name</text>
<polygon fill="none" stroke="black" points="294.5,-248 294.5,-270 395.5,-270 395.5,-248 294.5,-248"/>
<text text-anchor="start" x="297.5" y="-256.2" font-family="Helvetica,sans-Serif" font-size="11.00">text[2147483647]</text>
<polygon fill="#ffffff" stroke="none" points="186.5,-230 186.5,-248 230.5,-248 230.5,-230 186.5,-230"/>
<polygon fill="none" stroke="black" points="186.5,-230 186.5,-248 230.5,-248 230.5,-230 186.5,-230"/>
<text text-anchor="start" x="189.5" y="-236.2" font-family="Helvetica,sans-Serif" font-size="11.00">&lt; 0</text>
<polygon fill="#ffffff" stroke="none" points="230.5,-230 230.5,-248 294.5,-248 294.5,-230 230.5,-230"/>
<polygon fill="none" stroke="black" points="230.5,-230 230.5,-248 294.5,-248 294.5,-230 230.5,-230"/>
<text text-anchor="start" x="255.5" y="-236.2" font-family="Helvetica,sans-Serif" font-size="11.00">3 rows</text>
<polygon fill="#ffffff" stroke="none" points="294.5,-230 294.5,-248 395.5,-248 395.5,-230 294.5,-230"/>
<polygon fill="none" stroke="black" points="294.5,-230 294.5,-248 395.5,-248 395.5,-230 294.5,-230"/>
<text text-anchor="start" x="375.5" y="-236.2" font-family="Helvetica,sans-Serif" font-size="11.00">1 &gt;</text>
<polygon fill="none" stroke="black" stroke-width="2" points="185,-229 185,-315 396,-315 396,-229 185,-229"/>
</a>
</g>
</g>
<!-- plantings&#45;&gt;planting_types -->
<g id="edge8" class="edge"><title>plantings:planting_type_id:w&#45;&gt;planting_types:id.type:e</title>
<path fill="none" stroke="black" d="M431.416,-153.238C396.253,-173.411 452.834,-281 396.5,-281"/>
<polygon fill="black" stroke="black" points="437.703,-151.793 446.307,-153.508 441.602,-150.896 445.5,-150 445.5,-150 445.5,-150 441.602,-150.896 444.693,-146.492 437.703,-151.793 437.703,-151.793"/>
<ellipse fill="none" stroke="black" cx="434.585" cy="-152.51" rx="3.2" ry="3.2"/>
</g>
</g>
</svg>
