<?xml version="1.0" encoding="UTF-8" standalone="no"?>
<!DOCTYPE svg PUBLIC "-//W3C//DTD SVG 1.1//EN"
 "http://www.w3.org/Graphics/SVG/1.1/DTD/svg11.dtd">
<!-- Generated by graphviz version 2.47.1 (20210515.0534)
 -->
<!-- Title: twoDegreesRelationshipsDiagram Pages: 1 -->
<svg width="1203pt" height="868pt"
 viewBox="0.00 0.00 1203.00 868.28" xmlns="http://www.w3.org/2000/svg" xmlns:xlink="http://www.w3.org/1999/xlink">
<g id="graph0" class="graph" transform="scale(1 1) rotate(0) translate(4 864.28)">
<title>twoDegreesRelationshipsDiagram</title>
<polygon fill="#ffffff" stroke="transparent" points="-4,4 -4,-864.28 1199,-864.28 1199,4 -4,4"/>
<text text-anchor="middle" x="73.5" y="-7.2" font-family="Helvetica,sans-Serif" font-size="11.00">Generated by SchemaSpy</text>
<!-- deliveries -->
<g id="node1" class="node">
<title>deliveries</title>
<g id="a_node1"><a xlink:href="../../tables/deliveries.html" xlink:title="deliveries" target="_top">
<polygon fill="#ffffff" stroke="transparent" points="566.5,-602 566.5,-660 668.5,-660 668.5,-602 566.5,-602"/>
<polygon fill="#f5f5f5" stroke="transparent" points="566.5,-638 566.5,-660 668.5,-660 668.5,-638 566.5,-638"/>
<polygon fill="none" stroke="black" points="566.5,-638 566.5,-660 668.5,-660 668.5,-638 566.5,-638"/>
<text text-anchor="start" x="571.5" y="-647.2" font-family="Helvetica,sans-Serif" font-weight="bold" font-size="11.00">deliveries</text>
<text text-anchor="start" x="629.5" y="-646.2" font-family="Helvetica,sans-Serif" font-size="11.00">[table]</text>
<polygon fill="none" stroke="black" points="566.5,-620 566.5,-638 668.5,-638 668.5,-620 566.5,-620"/>
<text text-anchor="start" x="569.5" y="-626.2" font-family="Helvetica,sans-Serif" font-size="11.00">...</text>
<polygon fill="#ffffff" stroke="transparent" points="566.5,-602 566.5,-620 610.5,-620 610.5,-602 566.5,-602"/>
<polygon fill="none" stroke="black" points="566.5,-602 566.5,-620 610.5,-620 610.5,-602 566.5,-602"/>
<text text-anchor="start" x="569.5" y="-608.2" font-family="Helvetica,sans-Serif" font-size="11.00">&lt; 1</text>
<polygon fill="#ffffff" stroke="transparent" points="610.5,-602 610.5,-620 634.5,-620 634.5,-602 610.5,-602"/>
<polygon fill="none" stroke="black" points="610.5,-602 610.5,-620 634.5,-620 634.5,-602 610.5,-602"/>
<text text-anchor="start" x="624.5" y="-608.2" font-family="Helvetica,sans-Serif" font-size="11.00"> &#160;</text>
<polygon fill="#ffffff" stroke="transparent" points="634.5,-602 634.5,-620 668.5,-620 668.5,-602 634.5,-602"/>
<polygon fill="none" stroke="black" points="634.5,-602 634.5,-620 668.5,-620 668.5,-602 634.5,-602"/>
<text text-anchor="start" x="649.5" y="-608.2" font-family="Helvetica,sans-Serif" font-size="11.00">2 &gt;</text>
</a>
</g>
</g>
<!-- planting_sites -->
<g id="node2" class="node">
<title>planting_sites</title>
<g id="a_node2"><a xlink:href="../../tables/planting_sites.html" xlink:title="planting_sites" target="_top">
<polygon fill="#ffffff" stroke="transparent" points="8,-461 8,-607 232,-607 232,-461 8,-461"/>
<polygon fill="#f5f5f5" stroke="transparent" points="8,-585 8,-607 232,-607 232,-585 8,-585"/>
<polygon fill="none" stroke="black" points="8,-585 8,-607 232,-607 232,-585 8,-585"/>
<text text-anchor="start" x="13" y="-594.2" font-family="Helvetica,sans-Serif" font-weight="bold" font-size="11.00">planting_sites</text>
<text text-anchor="start" x="193" y="-593.2" font-family="Helvetica,sans-Serif" font-size="11.00">[table]</text>
<polygon fill="none" stroke="black" points="8,-563 8,-585 232,-585 232,-563 8,-563"/>
<image xlink:href="../../images/primaryKeys.png" width="11px" height="12px" preserveAspectRatio="xMinYMin meet" x="13" y="-580"/>
<text text-anchor="start" x="28" y="-571.2" font-family="Helvetica,sans-Serif" font-size="11.00">id</text>
<polygon fill="#ffffff" stroke="transparent" points="8,-541 8,-563 232,-563 232,-541 8,-541"/>
<polygon fill="none" stroke="black" points="8,-541 8,-563 232,-563 232,-541 8,-541"/>
<text text-anchor="start" x="28" y="-549.2" font-family="Helvetica,sans-Serif" font-size="11.00">organization_id</text>
<polygon fill="#ffffff" stroke="transparent" points="8,-519 8,-541 232,-541 232,-519 8,-519"/>
<polygon fill="none" stroke="black" points="8,-519 8,-541 232,-541 232,-519 8,-519"/>
<text text-anchor="start" x="28" y="-527.2" font-family="Helvetica,sans-Serif" font-size="11.00">name</text>
<polygon fill="#ffffff" stroke="transparent" points="8,-497 8,-519 232,-519 232,-497 8,-497"/>
<polygon fill="none" stroke="black" points="8,-497 8,-519 232,-519 232,-497 8,-497"/>
<text text-anchor="start" x="28" y="-505.2" font-family="Helvetica,sans-Serif" font-size="11.00">project_id</text>
<polygon fill="none" stroke="black" points="8,-479 8,-497 232,-497 232,-479 8,-479"/>
<text text-anchor="start" x="11" y="-485.2" font-family="Helvetica,sans-Serif" font-size="11.00">...</text>
<polygon fill="#ffffff" stroke="transparent" points="8,-461 8,-479 106,-479 106,-461 8,-461"/>
<polygon fill="none" stroke="black" points="8,-461 8,-479 106,-479 106,-461 8,-461"/>
<text text-anchor="start" x="11" y="-467.2" font-family="Helvetica,sans-Serif" font-size="11.00"> &#160;</text>
<polygon fill="#ffffff" stroke="transparent" points="106,-461 106,-479 161,-479 161,-461 106,-461"/>
<polygon fill="none" stroke="black" points="106,-461 106,-479 161,-479 161,-461 106,-461"/>
<text text-anchor="start" x="151" y="-467.2" font-family="Helvetica,sans-Serif" font-size="11.00"> &#160;</text>
<polygon fill="#ffffff" stroke="transparent" points="161,-461 161,-479 232,-479 232,-461 161,-461"/>
<polygon fill="none" stroke="black" points="161,-461 161,-479 232,-479 232,-461 161,-461"/>
<text text-anchor="start" x="207" y="-467.2" font-family="Helvetica,sans-Serif" font-size="11.00">13 &gt;</text>
</a>
</g>
</g>
<!-- deliveries&#45;&gt;planting_sites -->
<g id="edge1" class="edge">
<title>deliveries:w&#45;&gt;planting_sites:e</title>
<path fill="none" stroke="black" d="M551,-629.17C431.92,-631.98 386.93,-667.85 273,-616 249.54,-605.32 258.78,-574 233,-574"/>
<polygon fill="black" stroke="black" points="557.5,-629.09 565.54,-632.6 561.5,-629.05 565.5,-629 565.5,-629 565.5,-629 561.5,-629.05 565.46,-625.4 557.5,-629.09 557.5,-629.09"/>
<ellipse fill="none" stroke="black" cx="554.3" cy="-629.13" rx="3.2" ry="3.2"/>
</g>
<!-- monitoring_plot_histories -->
<g id="node3" class="node">
<title>monitoring_plot_histories</title>
<g id="a_node3"><a xlink:href="../../tables/monitoring_plot_histories.html" xlink:title="monitoring_plot_histories" target="_top">
<polygon fill="#ffffff" stroke="transparent" points="990,-721 990,-779 1187,-779 1187,-721 990,-721"/>
<polygon fill="#f5f5f5" stroke="transparent" points="990.5,-757 990.5,-779 1187.5,-779 1187.5,-757 990.5,-757"/>
<polygon fill="none" stroke="black" points="990.5,-757 990.5,-779 1187.5,-779 1187.5,-757 990.5,-757"/>
<text text-anchor="start" x="995.5" y="-766.2" font-family="Helvetica,sans-Serif" font-weight="bold" font-size="11.00">monitoring_plot_histories</text>
<text text-anchor="start" x="1148.5" y="-765.2" font-family="Helvetica,sans-Serif" font-size="11.00">[table]</text>
<polygon fill="none" stroke="black" points="990.5,-739 990.5,-757 1187.5,-757 1187.5,-739 990.5,-739"/>
<text text-anchor="start" x="993.5" y="-745.2" font-family="Helvetica,sans-Serif" font-size="11.00">...</text>
<polygon fill="#ffffff" stroke="transparent" points="990.5,-721 990.5,-739 1082.5,-739 1082.5,-721 990.5,-721"/>
<polygon fill="none" stroke="black" points="990.5,-721 990.5,-739 1082.5,-739 1082.5,-721 990.5,-721"/>
<text text-anchor="start" x="993.5" y="-727.2" font-family="Helvetica,sans-Serif" font-size="11.00">&lt; 5</text>
<polygon fill="#ffffff" stroke="transparent" points="1082.5,-721 1082.5,-739 1130.5,-739 1130.5,-721 1082.5,-721"/>
<polygon fill="none" stroke="black" points="1082.5,-721 1082.5,-739 1130.5,-739 1130.5,-721 1082.5,-721"/>
<text text-anchor="start" x="1120.5" y="-727.2" font-family="Helvetica,sans-Serif" font-size="11.00"> &#160;</text>
<polygon fill="#ffffff" stroke="transparent" points="1130.5,-721 1130.5,-739 1187.5,-739 1187.5,-721 1130.5,-721"/>
<polygon fill="none" stroke="black" points="1130.5,-721 1130.5,-739 1187.5,-739 1187.5,-721 1130.5,-721"/>
<text text-anchor="start" x="1168.5" y="-727.2" font-family="Helvetica,sans-Serif" font-size="11.00">1 &gt;</text>
</a>
</g>
</g>
<!-- monitoring_plot_histories&#45;&gt;planting_sites -->
<g id="edge4" class="edge">
<title>monitoring_plot_histories:w&#45;&gt;planting_sites:e</title>
<path fill="none" stroke="black" d="M975.72,-752.42C961.6,-765.12 974.09,-801.74 949,-816 852.44,-870.88 368.64,-884.04 273,-801 195.65,-733.84 335.44,-574 233,-574"/>
<polygon fill="black" stroke="black" points="981.88,-750.44 990.6,-751.43 985.69,-749.22 989.5,-748 989.5,-748 989.5,-748 985.69,-749.22 988.4,-744.57 981.88,-750.44 981.88,-750.44"/>
<ellipse fill="none" stroke="black" cx="978.83" cy="-751.42" rx="3.2" ry="3.2"/>
</g>
<!-- monitoring_plots -->
<g id="node4" class="node">
<title>monitoring_plots</title>
<g id="a_node4"><a xlink:href="../../tables/monitoring_plots.html" xlink:title="monitoring_plots" target="_top">
<polygon fill="#ffffff" stroke="transparent" points="761.5,-747 761.5,-805 906.5,-805 906.5,-747 761.5,-747"/>
<polygon fill="#f5f5f5" stroke="transparent" points="762,-783 762,-805 907,-805 907,-783 762,-783"/>
<polygon fill="none" stroke="black" points="762,-783 762,-805 907,-805 907,-783 762,-783"/>
<text text-anchor="start" x="767" y="-792.2" font-family="Helvetica,sans-Serif" font-weight="bold" font-size="11.00">monitoring_plots</text>
<text text-anchor="start" x="868" y="-791.2" font-family="Helvetica,sans-Serif" font-size="11.00">[table]</text>
<polygon fill="none" stroke="black" points="762,-765 762,-783 907,-783 907,-765 762,-765"/>
<text text-anchor="start" x="765" y="-771.2" font-family="Helvetica,sans-Serif" font-size="11.00">...</text>
<polygon fill="#ffffff" stroke="transparent" points="762,-747 762,-765 825,-765 825,-747 762,-747"/>
<polygon fill="none" stroke="black" points="762,-747 762,-765 825,-765 825,-747 762,-747"/>
<text text-anchor="start" x="765" y="-753.2" font-family="Helvetica,sans-Serif" font-size="11.00">&lt; 2</text>
<polygon fill="#ffffff" stroke="transparent" points="825,-747 825,-765 858,-765 858,-747 825,-747"/>
<polygon fill="none" stroke="black" points="825,-747 825,-765 858,-765 858,-747 825,-747"/>
<text text-anchor="start" x="848" y="-753.2" font-family="Helvetica,sans-Serif" font-size="11.00"> &#160;</text>
<polygon fill="#ffffff" stroke="transparent" points="858,-747 858,-765 907,-765 907,-747 858,-747"/>
<polygon fill="none" stroke="black" points="858,-747 858,-765 907,-765 907,-747 858,-747"/>
<text text-anchor="start" x="882" y="-753.2" font-family="Helvetica,sans-Serif" font-size="11.00">16 &gt;</text>
</a>
</g>
</g>
<!-- monitoring_plot_histories&#45;&gt;monitoring_plots -->
<g id="edge2" class="edge">
<title>monitoring_plot_histories:w&#45;&gt;monitoring_plots:e</title>
<path fill="none" stroke="black" d="M974.86,-749.47C949.22,-754.97 940.53,-774 908,-774"/>
<polygon fill="black" stroke="black" points="981.54,-748.8 989.86,-751.58 985.52,-748.4 989.5,-748 989.5,-748 989.5,-748 985.52,-748.4 989.14,-744.42 981.54,-748.8 981.54,-748.8"/>
<ellipse fill="none" stroke="black" cx="978.36" cy="-749.12" rx="3.2" ry="3.2"/>
</g>
<!-- planting_site_histories -->
<g id="node5" class="node">
<title>planting_site_histories</title>
<g id="a_node5"><a xlink:href="../../tables/planting_site_histories.html" xlink:title="planting_site_histories" target="_top">
<polygon fill="#ffffff" stroke="transparent" points="305.5,-547 305.5,-605 483.5,-605 483.5,-547 305.5,-547"/>
<polygon fill="#f5f5f5" stroke="transparent" points="305.5,-583 305.5,-605 483.5,-605 483.5,-583 305.5,-583"/>
<polygon fill="none" stroke="black" points="305.5,-583 305.5,-605 483.5,-605 483.5,-583 305.5,-583"/>
<text text-anchor="start" x="310.5" y="-592.2" font-family="Helvetica,sans-Serif" font-weight="bold" font-size="11.00">planting_site_histories</text>
<text text-anchor="start" x="444.5" y="-591.2" font-family="Helvetica,sans-Serif" font-size="11.00">[table]</text>
<polygon fill="none" stroke="black" points="305.5,-565 305.5,-583 483.5,-583 483.5,-565 305.5,-565"/>
<text text-anchor="start" x="308.5" y="-571.2" font-family="Helvetica,sans-Serif" font-size="11.00">...</text>
<polygon fill="#ffffff" stroke="transparent" points="305.5,-547 305.5,-565 387.5,-565 387.5,-547 305.5,-547"/>
<polygon fill="none" stroke="black" points="305.5,-547 305.5,-565 387.5,-565 387.5,-547 305.5,-547"/>
<text text-anchor="start" x="308.5" y="-553.2" font-family="Helvetica,sans-Serif" font-size="11.00">&lt; 1</text>
<polygon fill="#ffffff" stroke="transparent" points="387.5,-547 387.5,-565 430.5,-565 430.5,-547 387.5,-547"/>
<polygon fill="none" stroke="black" points="387.5,-547 387.5,-565 430.5,-565 430.5,-547 387.5,-547"/>
<text text-anchor="start" x="420.5" y="-553.2" font-family="Helvetica,sans-Serif" font-size="11.00"> &#160;</text>
<polygon fill="#ffffff" stroke="transparent" points="430.5,-547 430.5,-565 483.5,-565 483.5,-547 430.5,-547"/>
<polygon fill="none" stroke="black" points="430.5,-547 430.5,-565 483.5,-565 483.5,-547 430.5,-547"/>
<text text-anchor="start" x="464.5" y="-553.2" font-family="Helvetica,sans-Serif" font-size="11.00">4 &gt;</text>
</a>
</g>
</g>
<!-- monitoring_plot_histories&#45;&gt;planting_site_histories -->
<g id="edge3" class="edge">
<title>monitoring_plot_histories:w&#45;&gt;planting_site_histories:e</title>
<path fill="none" stroke="black" d="M975.18,-745.23C945.73,-730.65 986.72,-662.29 949,-631 868.95,-564.61 588.5,-574 484.5,-574"/>
<polygon fill="black" stroke="black" points="981.65,-746.48 988.82,-751.53 985.57,-747.24 989.5,-748 989.5,-748 989.5,-748 985.57,-747.24 990.18,-744.47 981.65,-746.48 981.65,-746.48"/>
<ellipse fill="none" stroke="black" cx="978.5" cy="-745.87" rx="3.2" ry="3.2"/>
</g>
<!-- substrata -->
<g id="node6" class="node">
<title>substrata</title>
<g id="a_node6"><a xlink:href="../../tables/substrata.html" xlink:title="substrata" target="_top">
<polygon fill="#ffffff" stroke="transparent" points="567,-708 567,-766 668,-766 668,-708 567,-708"/>
<polygon fill="#f5f5f5" stroke="transparent" points="567.5,-744 567.5,-766 668.5,-766 668.5,-744 567.5,-744"/>
<polygon fill="none" stroke="black" points="567.5,-744 567.5,-766 668.5,-766 668.5,-744 567.5,-744"/>
<text text-anchor="start" x="572.5" y="-753.2" font-family="Helvetica,sans-Serif" font-weight="bold" font-size="11.00">substrata</text>
<text text-anchor="start" x="629.5" y="-752.2" font-family="Helvetica,sans-Serif" font-size="11.00">[table]</text>
<polygon fill="none" stroke="black" points="567.5,-726 567.5,-744 668.5,-744 668.5,-726 567.5,-726"/>
<text text-anchor="start" x="570.5" y="-732.2" font-family="Helvetica,sans-Serif" font-size="11.00">...</text>
<polygon fill="#ffffff" stroke="transparent" points="567.5,-708 567.5,-726 611.5,-726 611.5,-708 567.5,-708"/>
<polygon fill="none" stroke="black" points="567.5,-708 567.5,-726 611.5,-726 611.5,-708 567.5,-708"/>
<text text-anchor="start" x="570.5" y="-714.2" font-family="Helvetica,sans-Serif" font-size="11.00">&lt; 3</text>
<polygon fill="#ffffff" stroke="transparent" points="611.5,-708 611.5,-726 635.5,-726 635.5,-708 611.5,-708"/>
<polygon fill="none" stroke="black" points="611.5,-708 611.5,-726 635.5,-726 635.5,-708 611.5,-708"/>
<text text-anchor="start" x="625.5" y="-714.2" font-family="Helvetica,sans-Serif" font-size="11.00"> &#160;</text>
<polygon fill="#ffffff" stroke="transparent" points="635.5,-708 635.5,-726 668.5,-726 668.5,-708 635.5,-708"/>
<polygon fill="none" stroke="black" points="635.5,-708 635.5,-726 668.5,-726 668.5,-708 635.5,-708"/>
<text text-anchor="start" x="649.5" y="-714.2" font-family="Helvetica,sans-Serif" font-size="11.00">9 &gt;</text>
</a>
</g>
</g>
<!-- monitoring_plot_histories&#45;&gt;substrata -->
<g id="edge5" class="edge">
<title>monitoring_plot_histories:w&#45;&gt;substrata:e</title>
<path fill="none" stroke="black" d="M975,-745.77C967.01,-743.08 961.42,-738.7 949,-737 825.92,-720.14 793.73,-735 669.5,-735"/>
<polygon fill="black" stroke="black" points="981.59,-746.79 988.95,-751.56 985.55,-747.39 989.5,-748 989.5,-748 989.5,-748 985.55,-747.39 990.05,-744.44 981.59,-746.79 981.59,-746.79"/>
<ellipse fill="none" stroke="black" cx="978.43" cy="-746.3" rx="3.2" ry="3.2"/>
</g>
<!-- monitoring_plots&#45;&gt;planting_sites -->
<g id="edge6" class="edge">
<title>monitoring_plots:w&#45;&gt;planting_sites:e</title>
<path fill="none" stroke="black" d="M746.38,-774.36C628.09,-779.79 353.25,-842.98 273,-777 201.97,-718.6 324.96,-574 233,-574"/>
<polygon fill="black" stroke="black" points="753,-774.2 761.09,-777.6 757,-774.1 761,-774 761,-774 761,-774 757,-774.1 760.91,-770.4 753,-774.2 753,-774.2"/>
<ellipse fill="none" stroke="black" cx="749.8" cy="-774.28" rx="3.2" ry="3.2"/>
</g>
<!-- monitoring_plots&#45;&gt;substrata -->
<g id="edge7" class="edge">
<title>monitoring_plots:w&#45;&gt;substrata:e</title>
<path fill="none" stroke="black" d="M746.6,-772.42C715.44,-765.13 708.35,-735 669.5,-735"/>
<polygon fill="black" stroke="black" points="753.05,-773.13 760.61,-777.58 757.02,-773.56 761,-774 761,-774 761,-774 757.02,-773.56 761.39,-770.42 753.05,-773.13 753.05,-773.13"/>
<ellipse fill="none" stroke="black" cx="749.87" cy="-772.78" rx="3.2" ry="3.2"/>
</g>
<!-- planting_site_histories&#45;&gt;planting_sites -->
<g id="edge13" class="edge">
<title>planting_site_histories:w&#45;&gt;planting_sites:e</title>
<path fill="none" stroke="black" d="M289.98,-574C269.29,-574 259.32,-574 233,-574"/>
<polygon fill="black" stroke="black" points="296.5,-574 304.5,-577.6 300.5,-574 304.5,-574 304.5,-574 304.5,-574 300.5,-574 304.5,-570.4 296.5,-574 296.5,-574"/>
<ellipse fill="none" stroke="black" cx="293.3" cy="-574" rx="3.2" ry="3.2"/>
</g>
<!-- substrata&#45;&gt;planting_sites -->
<g id="edge23" class="edge">
<title>substrata:w&#45;&gt;planting_sites:e</title>
<path fill="none" stroke="black" d="M552.06,-731.62C538.67,-724.11 536.19,-706.05 516,-698 414.88,-657.66 359.95,-732.52 273,-667 237.07,-639.92 277.99,-574 233,-574"/>
<polygon fill="black" stroke="black" points="558.71,-733.18 565.68,-738.51 562.61,-734.09 566.5,-735 566.5,-735 566.5,-735 562.61,-734.09 567.32,-731.49 558.71,-733.18 558.71,-733.18"/>
<ellipse fill="none" stroke="black" cx="555.59" cy="-732.45" rx="3.2" ry="3.2"/>
</g>
<!-- strata -->
<g id="node14" class="node">
<title>strata</title>
<g id="a_node14"><a xlink:href="../../tables/strata.html" xlink:title="strata" target="_top">
<polygon fill="#ffffff" stroke="transparent" points="354.5,-708 354.5,-766 434.5,-766 434.5,-708 354.5,-708"/>
<polygon fill="#f5f5f5" stroke="transparent" points="354.5,-744 354.5,-766 434.5,-766 434.5,-744 354.5,-744"/>
<polygon fill="none" stroke="black" points="354.5,-744 354.5,-766 434.5,-766 434.5,-744 354.5,-744"/>
<text text-anchor="start" x="358.5" y="-753.2" font-family="Helvetica,sans-Serif" font-weight="bold" font-size="11.00">strata</text>
<text text-anchor="start" x="395.5" y="-752.2" font-family="Helvetica,sans-Serif" font-size="11.00">[table]</text>
<polygon fill="none" stroke="black" points="354.5,-726 354.5,-744 434.5,-744 434.5,-726 354.5,-726"/>
<text text-anchor="start" x="357.5" y="-732.2" font-family="Helvetica,sans-Serif" font-size="11.00">...</text>
<polygon fill="#ffffff" stroke="transparent" points="354.5,-708 354.5,-726 387.5,-726 387.5,-708 354.5,-708"/>
<polygon fill="none" stroke="black" points="354.5,-708 354.5,-726 387.5,-726 387.5,-708 354.5,-708"/>
<text text-anchor="start" x="357.5" y="-714.2" font-family="Helvetica,sans-Serif" font-size="11.00">&lt; 1</text>
<polygon fill="#ffffff" stroke="transparent" points="387.5,-708 387.5,-726 406.5,-726 406.5,-708 387.5,-708"/>
<polygon fill="none" stroke="black" points="387.5,-708 387.5,-726 406.5,-726 406.5,-708 387.5,-708"/>
<text text-anchor="start" x="396.5" y="-714.2" font-family="Helvetica,sans-Serif" font-size="11.00"> &#160;</text>
<polygon fill="#ffffff" stroke="transparent" points="406.5,-708 406.5,-726 434.5,-726 434.5,-708 406.5,-708"/>
<polygon fill="none" stroke="black" points="406.5,-708 406.5,-726 434.5,-726 434.5,-708 406.5,-708"/>
<text text-anchor="start" x="415.5" y="-714.2" font-family="Helvetica,sans-Serif" font-size="11.00">7 &gt;</text>
</a>
</g>
</g>
<!-- substrata&#45;&gt;strata -->
<g id="edge24" class="edge">
<title>substrata:w&#45;&gt;strata:e</title>
<path fill="none" stroke="black" d="M552.1,-733.56C505.38,-729.05 488.61,-729.53 435.5,-735"/>
<polygon fill="black" stroke="black" points="558.54,-734.2 566.14,-738.58 562.52,-734.6 566.5,-735 566.5,-735 566.5,-735 562.52,-734.6 566.86,-731.42 558.54,-734.2 558.54,-734.2"/>
<ellipse fill="none" stroke="black" cx="555.36" cy="-733.88" rx="3.2" ry="3.2"/>
</g>
<!-- substrata&#45;&gt;strata -->
<g id="edge25" class="edge">
<title>substrata:w&#45;&gt;strata:e</title>
<path fill="none" stroke="black" d="M552.1,-736.68C505.38,-741.95 488.61,-741.38 435.5,-735"/>
<polygon fill="black" stroke="black" points="558.55,-735.93 566.92,-738.58 562.53,-735.46 566.5,-735 566.5,-735 566.5,-735 562.53,-735.46 566.08,-731.42 558.55,-735.93 558.55,-735.93"/>
<ellipse fill="none" stroke="black" cx="555.38" cy="-736.3" rx="3.2" ry="3.2"/>
</g>
<!-- observations -->
<g id="node7" class="node">
<title>observations</title>
<g id="a_node7"><a xlink:href="../../tables/observations.html" xlink:title="observations" target="_top">
<polygon fill="#ffffff" stroke="transparent" points="557,-496 557,-554 678,-554 678,-496 557,-496"/>
<polygon fill="#f5f5f5" stroke="transparent" points="557.5,-532 557.5,-554 678.5,-554 678.5,-532 557.5,-532"/>
<polygon fill="none" stroke="black" points="557.5,-532 557.5,-554 678.5,-554 678.5,-532 557.5,-532"/>
<text text-anchor="start" x="562.5" y="-541.2" font-family="Helvetica,sans-Serif" font-weight="bold" font-size="11.00">observations</text>
<text text-anchor="start" x="639.5" y="-540.2" font-family="Helvetica,sans-Serif" font-size="11.00">[table]</text>
<polygon fill="none" stroke="black" points="557.5,-514 557.5,-532 678.5,-532 678.5,-514 557.5,-514"/>
<text text-anchor="start" x="560.5" y="-520.2" font-family="Helvetica,sans-Serif" font-size="11.00">...</text>
<polygon fill="#ffffff" stroke="transparent" points="557.5,-496 557.5,-514 608.5,-514 608.5,-496 557.5,-496"/>
<polygon fill="none" stroke="black" points="557.5,-496 557.5,-514 608.5,-514 608.5,-496 557.5,-496"/>
<text text-anchor="start" x="560.5" y="-502.2" font-family="Helvetica,sans-Serif" font-size="11.00">&lt; 4</text>
<polygon fill="#ffffff" stroke="transparent" points="608.5,-496 608.5,-514 635.5,-514 635.5,-496 608.5,-496"/>
<polygon fill="none" stroke="black" points="608.5,-496 608.5,-514 635.5,-514 635.5,-496 608.5,-496"/>
<text text-anchor="start" x="625.5" y="-502.2" font-family="Helvetica,sans-Serif" font-size="11.00"> &#160;</text>
<polygon fill="#ffffff" stroke="transparent" points="635.5,-496 635.5,-514 678.5,-514 678.5,-496 635.5,-496"/>
<polygon fill="none" stroke="black" points="635.5,-496 635.5,-514 678.5,-514 678.5,-496 635.5,-496"/>
<text text-anchor="start" x="653.5" y="-502.2" font-family="Helvetica,sans-Serif" font-size="11.00">16 &gt;</text>
</a>
</g>
</g>
<!-- observations&#45;&gt;planting_sites -->
<g id="edge9" class="edge">
<title>observations:w&#45;&gt;planting_sites:e</title>
<path fill="none" stroke="black" d="M542.1,-522.85C427.02,-520.4 384.76,-490.03 273,-537 250.67,-546.38 257.22,-574 233,-574"/>
<polygon fill="black" stroke="black" points="548.5,-522.92 556.46,-526.6 552.5,-522.96 556.5,-523 556.5,-523 556.5,-523 552.5,-522.96 556.54,-519.4 548.5,-522.92 548.5,-522.92"/>
<ellipse fill="none" stroke="black" cx="545.3" cy="-522.88" rx="3.2" ry="3.2"/>
</g>
<!-- observations&#45;&gt;planting_site_histories -->
<g id="edge8" class="edge">
<title>observations:w&#45;&gt;planting_site_histories:e</title>
<path fill="none" stroke="black" d="M542.08,-525.89C518.19,-536.68 518.05,-574 484.5,-574"/>
<polygon fill="black" stroke="black" points="548.66,-524.57 557.21,-526.53 552.58,-523.79 556.5,-523 556.5,-523 556.5,-523 552.58,-523.79 555.79,-519.47 548.66,-524.57 548.66,-524.57"/>
<ellipse fill="none" stroke="black" cx="545.52" cy="-525.2" rx="3.2" ry="3.2"/>
</g>
<!-- observed_site_species_totals -->
<g id="node8" class="node">
<title>observed_site_species_totals</title>
<g id="a_node8"><a xlink:href="../../tables/observed_site_species_totals.html" xlink:title="observed_site_species_totals" target="_top">
<polygon fill="#ffffff" stroke="transparent" points="727,-471 727,-529 941,-529 941,-471 727,-471"/>
<polygon fill="#f5f5f5" stroke="transparent" points="727,-507 727,-529 941,-529 941,-507 727,-507"/>
<polygon fill="none" stroke="black" points="727,-507 727,-529 941,-529 941,-507 727,-507"/>
<text text-anchor="start" x="732" y="-516.2" font-family="Helvetica,sans-Serif" font-weight="bold" font-size="11.00">observed_site_species_totals</text>
<text text-anchor="start" x="902" y="-515.2" font-family="Helvetica,sans-Serif" font-size="11.00">[table]</text>
<polygon fill="none" stroke="black" points="727,-489 727,-507 941,-507 941,-489 727,-489"/>
<text text-anchor="start" x="730" y="-495.2" font-family="Helvetica,sans-Serif" font-size="11.00">...</text>
<polygon fill="#ffffff" stroke="transparent" points="727,-471 727,-489 832,-489 832,-471 727,-471"/>
<polygon fill="none" stroke="black" points="727,-471 727,-489 832,-489 832,-471 727,-471"/>
<text text-anchor="start" x="730" y="-477.2" font-family="Helvetica,sans-Serif" font-size="11.00">&lt; 3</text>
<polygon fill="#ffffff" stroke="transparent" points="832,-471 832,-489 886,-489 886,-471 832,-471"/>
<polygon fill="none" stroke="black" points="832,-471 832,-489 886,-489 886,-471 832,-471"/>
<text text-anchor="start" x="876" y="-477.2" font-family="Helvetica,sans-Serif" font-size="11.00"> &#160;</text>
<polygon fill="#ffffff" stroke="transparent" points="886,-471 886,-489 941,-489 941,-471 886,-471"/>
<polygon fill="none" stroke="black" points="886,-471 886,-489 941,-489 941,-471 886,-471"/>
<text text-anchor="start" x="931" y="-477.2" font-family="Helvetica,sans-Serif" font-size="11.00"> &#160;</text>
</a>
</g>
</g>
<!-- observed_site_species_totals&#45;&gt;planting_sites -->
<g id="edge11" class="edge">
<title>observed_site_species_totals:w&#45;&gt;planting_sites:e</title>
<path fill="none" stroke="black" d="M711.64,-495.56C703.78,-492.61 698.34,-487.81 686,-486 640.54,-479.33 312.07,-482.82 273,-507 243.51,-525.25 267.68,-574 233,-574"/>
<polygon fill="black" stroke="black" points="718.11,-496.66 725.4,-501.55 722.06,-497.33 726,-498 726,-498 726,-498 722.06,-497.33 726.6,-494.45 718.11,-496.66 718.11,-496.66"/>
<ellipse fill="none" stroke="black" cx="714.96" cy="-496.12" rx="3.2" ry="3.2"/>
</g>
<!-- observed_site_species_totals&#45;&gt;observations -->
<g id="edge10" class="edge">
<title>observed_site_species_totals:w&#45;&gt;observations:e</title>
<path fill="none" stroke="black" d="M712.14,-501.91C701.26,-508.94 697.1,-523 679.5,-523"/>
<polygon fill="black" stroke="black" points="718.3,-500.17 726.98,-501.47 722.15,-499.08 726,-498 726,-498 726,-498 722.15,-499.08 725.02,-494.53 718.3,-500.17 718.3,-500.17"/>
<ellipse fill="none" stroke="black" cx="715.22" cy="-501.04" rx="3.2" ry="3.2"/>
</g>
<!-- planting_seasons -->
<g id="node9" class="node">
<title>planting_seasons</title>
<g id="a_node9"><a xlink:href="../../tables/planting_seasons.html" xlink:title="planting_seasons" target="_top">
<polygon fill="#ffffff" stroke="transparent" points="281,-274 281,-472 508,-472 508,-274 281,-274"/>
<polygon fill="#f5f5f5" stroke="transparent" points="283.5,-448 283.5,-470 506.5,-470 506.5,-448 283.5,-448"/>
<polygon fill="none" stroke="black" points="283.5,-448 283.5,-470 506.5,-470 506.5,-448 283.5,-448"/>
<text text-anchor="start" x="288.5" y="-457.2" font-family="Helvetica,sans-Serif" font-weight="bold" font-size="11.00">planting_seasons</text>
<text text-anchor="start" x="467.5" y="-456.2" font-family="Helvetica,sans-Serif" font-size="11.00">[table]</text>
<polygon fill="none" stroke="black" points="283.5,-426 283.5,-448 406.5,-448 406.5,-426 283.5,-426"/>
<image xlink:href="../../images/primaryKeys.png" width="11px" height="12px" preserveAspectRatio="xMinYMin meet" x="288.5" y="-443"/>
<text text-anchor="start" x="303.5" y="-434.2" font-family="Helvetica,sans-Serif" font-size="11.00">id</text>
<polygon fill="none" stroke="black" points="406.5,-426 406.5,-448 506.5,-448 506.5,-426 406.5,-426"/>
<text text-anchor="start" x="409.5" y="-434.2" font-family="Helvetica,sans-Serif" font-size="11.00">int8[19]</text>
<polygon fill="#ffffff" stroke="transparent" points="283.5,-404 283.5,-426 406.5,-426 406.5,-404 283.5,-404"/>
<polygon fill="none" stroke="black" points="283.5,-404 283.5,-426 406.5,-426 406.5,-404 283.5,-404"/>
<image xlink:href="../../images/foreignKeys.png" width="11px" height="12px" preserveAspectRatio="xMinYMin meet" x="288.5" y="-421"/>
<text text-anchor="start" x="303.5" y="-412.2" font-family="Helvetica,sans-Serif" font-size="11.00">planting_site_id</text>
<polygon fill="none" stroke="black" points="406.5,-404 406.5,-426 506.5,-426 506.5,-404 406.5,-404"/>
<text text-anchor="start" x="409.5" y="-412.2" font-family="Helvetica,sans-Serif" font-size="11.00">int8[19]</text>
<polygon fill="none" stroke="black" points="283.5,-382 283.5,-404 406.5,-404 406.5,-382 283.5,-382"/>
<text text-anchor="start" x="303.5" y="-390.2" font-family="Helvetica,sans-Serif" font-size="11.00">start_date</text>
<polygon fill="none" stroke="black" points="406.5,-382 406.5,-404 506.5,-404 506.5,-382 406.5,-382"/>
<text text-anchor="start" x="409.5" y="-390.2" font-family="Helvetica,sans-Serif" font-size="11.00">date[13]</text>
<polygon fill="#ffffff" stroke="transparent" points="283.5,-360 283.5,-382 406.5,-382 406.5,-360 283.5,-360"/>
<polygon fill="none" stroke="black" points="283.5,-360 283.5,-382 406.5,-382 406.5,-360 283.5,-360"/>
<text text-anchor="start" x="303.5" y="-368.2" font-family="Helvetica,sans-Serif" font-size="11.00">start_time</text>
<polygon fill="none" stroke="black" points="406.5,-360 406.5,-382 506.5,-382 506.5,-360 406.5,-360"/>
<text text-anchor="start" x="409.5" y="-368.2" font-family="Helvetica,sans-Serif" font-size="11.00">timestamptz[35,6]</text>
<polygon fill="none" stroke="black" points="283.5,-338 283.5,-360 406.5,-360 406.5,-338 283.5,-338"/>
<text text-anchor="start" x="303.5" y="-346.2" font-family="Helvetica,sans-Serif" font-size="11.00">end_date</text>
<polygon fill="none" stroke="black" points="406.5,-338 406.5,-360 506.5,-360 506.5,-338 406.5,-338"/>
<text text-anchor="start" x="409.5" y="-346.2" font-family="Helvetica,sans-Serif" font-size="11.00">date[13]</text>
<polygon fill="#ffffff" stroke="transparent" points="283.5,-316 283.5,-338 406.5,-338 406.5,-316 283.5,-316"/>
<polygon fill="none" stroke="black" points="283.5,-316 283.5,-338 406.5,-338 406.5,-316 283.5,-316"/>
<text text-anchor="start" x="303.5" y="-324.2" font-family="Helvetica,sans-Serif" font-size="11.00">end_time</text>
<polygon fill="none" stroke="black" points="406.5,-316 406.5,-338 506.5,-338 506.5,-316 406.5,-316"/>
<text text-anchor="start" x="409.5" y="-324.2" font-family="Helvetica,sans-Serif" font-size="11.00">timestamptz[35,6]</text>
<polygon fill="#ffffff" stroke="transparent" points="283.5,-294 283.5,-316 406.5,-316 406.5,-294 283.5,-294"/>
<polygon fill="none" stroke="black" points="283.5,-294 283.5,-316 406.5,-316 406.5,-294 283.5,-294"/>
<text text-anchor="start" x="303.5" y="-302.2" font-family="Helvetica,sans-Serif" font-size="11.00">is_active</text>
<polygon fill="none" stroke="black" points="406.5,-294 406.5,-316 506.5,-316 506.5,-294 406.5,-294"/>
<text text-anchor="start" x="409.5" y="-302.2" font-family="Helvetica,sans-Serif" font-size="11.00">bool[1]</text>
<polygon fill="#ffffff" stroke="transparent" points="283.5,-276 283.5,-294 349.5,-294 349.5,-276 283.5,-276"/>
<polygon fill="none" stroke="black" points="283.5,-276 283.5,-294 349.5,-294 349.5,-276 283.5,-276"/>
<text text-anchor="start" x="286.5" y="-282.2" font-family="Helvetica,sans-Serif" font-size="11.00">&lt; 1</text>
<polygon fill="#ffffff" stroke="transparent" points="349.5,-276 349.5,-294 406.5,-294 406.5,-276 349.5,-276"/>
<polygon fill="none" stroke="black" points="349.5,-276 349.5,-294 406.5,-294 406.5,-276 349.5,-276"/>
<text text-anchor="start" x="396.5" y="-282.2" font-family="Helvetica,sans-Serif" font-size="11.00"> &#160;</text>
<polygon fill="#ffffff" stroke="transparent" points="406.5,-276 406.5,-294 506.5,-294 506.5,-276 406.5,-276"/>
<polygon fill="none" stroke="black" points="406.5,-276 406.5,-294 506.5,-294 506.5,-276 406.5,-276"/>
<text text-anchor="start" x="487.5" y="-282.2" font-family="Helvetica,sans-Serif" font-size="11.00">0 &gt;</text>
<polygon fill="none" stroke="black" stroke-width="2" points="282,-275 282,-471 507,-471 507,-275 282,-275"/>
</a>
</g>
</g>
<!-- planting_seasons&#45;&gt;planting_sites -->
<g id="edge12" class="edge">
<title>planting_seasons:w&#45;&gt;planting_sites:e</title>
<path fill="none" stroke="black" d="M268.15,-417.76C222.83,-438.87 301.23,-574 233,-574"/>
<polygon fill="black" stroke="black" points="274.64,-416.51 283.18,-418.54 278.57,-415.76 282.5,-415 282.5,-415 282.5,-415 278.57,-415.76 281.82,-411.46 274.64,-416.51 274.64,-416.51"/>
<ellipse fill="none" stroke="black" cx="271.5" cy="-417.11" rx="3.2" ry="3.2"/>
</g>
<!-- planting_site_notifications -->
<g id="node10" class="node">
<title>planting_site_notifications</title>
<g id="a_node10"><a xlink:href="../../tables/planting_site_notifications.html" xlink:title="planting_site_notifications" target="_top">
<polygon fill="#ffffff" stroke="transparent" points="294,-195 294,-253 495,-253 495,-195 294,-195"/>
<polygon fill="#f5f5f5" stroke="transparent" points="294.5,-231 294.5,-253 495.5,-253 495.5,-231 294.5,-231"/>
<polygon fill="none" stroke="black" points="294.5,-231 294.5,-253 495.5,-253 495.5,-231 294.5,-231"/>
<text text-anchor="start" x="299.5" y="-240.2" font-family="Helvetica,sans-Serif" font-weight="bold" font-size="11.00">planting_site_notifications</text>
<text text-anchor="start" x="456.5" y="-239.2" font-family="Helvetica,sans-Serif" font-size="11.00">[table]</text>
<polygon fill="none" stroke="black" points="294.5,-213 294.5,-231 495.5,-231 495.5,-213 294.5,-213"/>
<text text-anchor="start" x="297.5" y="-219.2" font-family="Helvetica,sans-Serif" font-size="11.00">...</text>
<polygon fill="#ffffff" stroke="transparent" points="294.5,-195 294.5,-213 392.5,-213 392.5,-195 294.5,-195"/>
<polygon fill="none" stroke="black" points="294.5,-195 294.5,-213 392.5,-213 392.5,-195 294.5,-195"/>
<text text-anchor="start" x="297.5" y="-201.2" font-family="Helvetica,sans-Serif" font-size="11.00">&lt; 1</text>
<polygon fill="#ffffff" stroke="transparent" points="392.5,-195 392.5,-213 443.5,-213 443.5,-195 392.5,-195"/>
<polygon fill="none" stroke="black" points="392.5,-195 392.5,-213 443.5,-213 443.5,-195 392.5,-195"/>
<text text-anchor="start" x="433.5" y="-201.2" font-family="Helvetica,sans-Serif" font-size="11.00"> &#160;</text>
<polygon fill="#ffffff" stroke="transparent" points="443.5,-195 443.5,-213 495.5,-213 495.5,-195 443.5,-195"/>
<polygon fill="none" stroke="black" points="443.5,-195 443.5,-213 495.5,-213 495.5,-195 443.5,-195"/>
<text text-anchor="start" x="485.5" y="-201.2" font-family="Helvetica,sans-Serif" font-size="11.00"> &#160;</text>
</a>
</g>
</g>
<!-- planting_site_notifications&#45;&gt;planting_sites -->
<g id="edge14" class="edge">
<title>planting_site_notifications:w&#45;&gt;planting_sites:e</title>
<path fill="none" stroke="black" d="M279.6,-226.71C226.73,-268.48 306.94,-574 233,-574"/>
<polygon fill="black" stroke="black" points="285.92,-224.57 294.66,-225.41 289.71,-223.28 293.5,-222 293.5,-222 293.5,-222 289.71,-223.28 292.34,-218.59 285.92,-224.57 285.92,-224.57"/>
<ellipse fill="none" stroke="black" cx="282.89" cy="-225.59" rx="3.2" ry="3.2"/>
</g>
<!-- planting_site_populations -->
<g id="node11" class="node">
<title>planting_site_populations</title>
<g id="a_node11"><a xlink:href="../../tables/planting_site_populations.html" xlink:title="planting_site_populations" target="_top">
<polygon fill="#ffffff" stroke="transparent" points="296,-116 296,-174 493,-174 493,-116 296,-116"/>
<polygon fill="#f5f5f5" stroke="transparent" points="296.5,-152 296.5,-174 493.5,-174 493.5,-152 296.5,-152"/>
<polygon fill="none" stroke="black" points="296.5,-152 296.5,-174 493.5,-174 493.5,-152 296.5,-152"/>
<text text-anchor="start" x="301.5" y="-161.2" font-family="Helvetica,sans-Serif" font-weight="bold" font-size="11.00">planting_site_populations</text>
<text text-anchor="start" x="454.5" y="-160.2" font-family="Helvetica,sans-Serif" font-size="11.00">[table]</text>
<polygon fill="none" stroke="black" points="296.5,-134 296.5,-152 493.5,-152 493.5,-134 296.5,-134"/>
<text text-anchor="start" x="299.5" y="-140.2" font-family="Helvetica,sans-Serif" font-size="11.00">...</text>
<polygon fill="#ffffff" stroke="transparent" points="296.5,-116 296.5,-134 392.5,-134 392.5,-116 296.5,-116"/>
<polygon fill="none" stroke="black" points="296.5,-116 296.5,-134 392.5,-134 392.5,-116 296.5,-116"/>
<text text-anchor="start" x="299.5" y="-122.2" font-family="Helvetica,sans-Serif" font-size="11.00">&lt; 1</text>
<polygon fill="#ffffff" stroke="transparent" points="392.5,-116 392.5,-134 442.5,-134 442.5,-116 392.5,-116"/>
<polygon fill="none" stroke="black" points="392.5,-116 392.5,-134 442.5,-134 442.5,-116 392.5,-116"/>
<text text-anchor="start" x="432.5" y="-122.2" font-family="Helvetica,sans-Serif" font-size="11.00"> &#160;</text>
<polygon fill="#ffffff" stroke="transparent" points="442.5,-116 442.5,-134 493.5,-134 493.5,-116 442.5,-116"/>
<polygon fill="none" stroke="black" points="442.5,-116 442.5,-134 493.5,-134 493.5,-116 442.5,-116"/>
<text text-anchor="start" x="483.5" y="-122.2" font-family="Helvetica,sans-Serif" font-size="11.00"> &#160;</text>
</a>
</g>
</g>
<!-- planting_site_populations&#45;&gt;planting_sites -->
<g id="edge15" class="edge">
<title>planting_site_populations:w&#45;&gt;planting_sites:e</title>
<path fill="none" stroke="black" d="M281.17,-146.99C212.84,-190.44 324.3,-574 233,-574"/>
<polygon fill="black" stroke="black" points="287.79,-145.15 296.47,-146.47 291.65,-144.07 295.5,-143 295.5,-143 295.5,-143 291.65,-144.07 294.53,-139.53 287.79,-145.15 287.79,-145.15"/>
<ellipse fill="none" stroke="black" cx="284.71" cy="-146" rx="3.2" ry="3.2"/>
</g>
<!-- plantings -->
<g id="node12" class="node">
<title>plantings</title>
<g id="a_node12"><a xlink:href="../../tables/plantings.html" xlink:title="plantings" target="_top">
<polygon fill="#ffffff" stroke="transparent" points="784.5,-641 784.5,-699 883.5,-699 883.5,-641 784.5,-641"/>
<polygon fill="#f5f5f5" stroke="transparent" points="785,-677 785,-699 884,-699 884,-677 785,-677"/>
<polygon fill="none" stroke="black" points="785,-677 785,-699 884,-699 884,-677 785,-677"/>
<text text-anchor="start" x="790" y="-686.2" font-family="Helvetica,sans-Serif" font-weight="bold" font-size="11.00">plantings</text>
<text text-anchor="start" x="845" y="-685.2" font-family="Helvetica,sans-Serif" font-size="11.00">[table]</text>
<polygon fill="none" stroke="black" points="785,-659 785,-677 884,-677 884,-659 785,-659"/>
<text text-anchor="start" x="788" y="-665.2" font-family="Helvetica,sans-Serif" font-size="11.00">...</text>
<polygon fill="#ffffff" stroke="transparent" points="785,-641 785,-659 832,-659 832,-641 785,-641"/>
<polygon fill="none" stroke="black" points="785,-641 785,-659 832,-659 832,-641 785,-641"/>
<text text-anchor="start" x="788" y="-647.2" font-family="Helvetica,sans-Serif" font-size="11.00">&lt; 6</text>
<polygon fill="#ffffff" stroke="transparent" points="832,-641 832,-659 858,-659 858,-641 832,-641"/>
<polygon fill="none" stroke="black" points="832,-641 832,-659 858,-659 858,-641 832,-641"/>
<text text-anchor="start" x="848" y="-647.2" font-family="Helvetica,sans-Serif" font-size="11.00"> &#160;</text>
<polygon fill="#ffffff" stroke="transparent" points="858,-641 858,-659 884,-659 884,-641 858,-641"/>
<polygon fill="none" stroke="black" points="858,-641 858,-659 884,-659 884,-641 858,-641"/>
<text text-anchor="start" x="874" y="-647.2" font-family="Helvetica,sans-Serif" font-size="11.00"> &#160;</text>
</a>
</g>
</g>
<!-- plantings&#45;&gt;deliveries -->
<g id="edge16" class="edge">
<title>plantings:w&#45;&gt;deliveries:e</title>
<path fill="none" stroke="black" d="M769.77,-665.44C728.48,-654.95 718.11,-623.57 669.5,-629"/>
<polygon fill="black" stroke="black" points="776.13,-666.58 783.36,-671.54 780.06,-667.29 784,-668 784,-668 784,-668 780.06,-667.29 784.64,-664.46 776.13,-666.58 776.13,-666.58"/>
<ellipse fill="none" stroke="black" cx="772.98" cy="-666.02" rx="3.2" ry="3.2"/>
</g>
<!-- plantings&#45;&gt;deliveries -->
<g id="edge17" class="edge">
<title>plantings:w&#45;&gt;deliveries:e</title>
<path fill="none" stroke="black" d="M769.5,-668.81C728.43,-667.69 718.01,-635.32 669.5,-629"/>
<polygon fill="black" stroke="black" points="776.01,-668.44 784.2,-671.59 780.01,-668.22 784,-668 784,-668 784,-668 780.01,-668.22 783.8,-664.41 776.01,-668.44 776.01,-668.44"/>
<ellipse fill="none" stroke="black" cx="772.82" cy="-668.62" rx="3.2" ry="3.2"/>
</g>
<!-- plantings&#45;&gt;planting_sites -->
<g id="edge18" class="edge">
<title>plantings:w&#45;&gt;planting_sites:e</title>
<path fill="none" stroke="black" d="M769.49,-668.1C737.32,-668.54 724.29,-670.41 686,-671 625.12,-671.93 609.79,-674.51 549,-671 541.29,-670.55 279.51,-643.15 273,-639 244.39,-620.77 266.92,-574 233,-574"/>
<polygon fill="black" stroke="black" points="776,-668.05 784.02,-671.6 780,-668.03 784,-668 784,-668 784,-668 780,-668.03 783.98,-664.4 776,-668.05 776,-668.05"/>
<ellipse fill="none" stroke="black" cx="772.8" cy="-668.07" rx="3.2" ry="3.2"/>
</g>
<!-- plantings&#45;&gt;substrata -->
<g id="edge19" class="edge">
<title>plantings:w&#45;&gt;substrata:e</title>
<path fill="none" stroke="black" d="M769.53,-668.05C725.15,-673.55 723.16,-729.54 669.5,-735"/>
<polygon fill="black" stroke="black" points="776,-668.03 784.01,-671.6 780,-668.01 784,-668 784,-668 784,-668 780,-668.01 783.99,-664.4 776,-668.03 776,-668.03"/>
<ellipse fill="none" stroke="black" cx="772.8" cy="-668.04" rx="3.2" ry="3.2"/>
</g>
<!-- plantings&#45;&gt;substrata -->
<g id="edge20" class="edge">
<title>plantings:w&#45;&gt;substrata:e</title>
<path fill="none" stroke="black" d="M769.81,-671.15C725.16,-686.21 723.28,-741.38 669.5,-735"/>
<polygon fill="black" stroke="black" points="776.19,-669.73 784.78,-671.51 780.09,-668.87 784,-668 784,-668 784,-668 780.09,-668.87 783.22,-664.49 776.19,-669.73 776.19,-669.73"/>
<ellipse fill="none" stroke="black" cx="773.07" cy="-670.42" rx="3.2" ry="3.2"/>
</g>
<!-- simplified_planting_sites -->
<g id="node13" class="node">
<title>simplified_planting_sites</title>
<g id="a_node13"><a xlink:href="../../tables/simplified_planting_sites.html" xlink:title="simplified_planting_sites" target="_top">
<polygon fill="#ffffff" stroke="transparent" points="299,-37 299,-95 490,-95 490,-37 299,-37"/>
<polygon fill="#f5f5f5" stroke="transparent" points="299.5,-73 299.5,-95 490.5,-95 490.5,-73 299.5,-73"/>
<polygon fill="none" stroke="black" points="299.5,-73 299.5,-95 490.5,-95 490.5,-73 299.5,-73"/>
<text text-anchor="start" x="304.5" y="-82.2" font-family="Helvetica,sans-Serif" font-weight="bold" font-size="11.00">simplified_planting_sites</text>
<text text-anchor="start" x="451.5" y="-81.2" font-family="Helvetica,sans-Serif" font-size="11.00">[table]</text>
<polygon fill="none" stroke="black" points="299.5,-55 299.5,-73 490.5,-73 490.5,-55 299.5,-55"/>
<text text-anchor="start" x="302.5" y="-61.2" font-family="Helvetica,sans-Serif" font-size="11.00">...</text>
<polygon fill="#ffffff" stroke="transparent" points="299.5,-37 299.5,-55 392.5,-55 392.5,-37 299.5,-37"/>
<polygon fill="none" stroke="black" points="299.5,-37 299.5,-55 392.5,-55 392.5,-37 299.5,-37"/>
<text text-anchor="start" x="302.5" y="-43.2" font-family="Helvetica,sans-Serif" font-size="11.00">&lt; 1</text>
<polygon fill="#ffffff" stroke="transparent" points="392.5,-37 392.5,-55 441.5,-55 441.5,-37 392.5,-37"/>
<polygon fill="none" stroke="black" points="392.5,-37 392.5,-55 441.5,-55 441.5,-37 392.5,-37"/>
<text text-anchor="start" x="431.5" y="-43.2" font-family="Helvetica,sans-Serif" font-size="11.00"> &#160;</text>
<polygon fill="#ffffff" stroke="transparent" points="441.5,-37 441.5,-55 490.5,-55 490.5,-37 441.5,-37"/>
<polygon fill="none" stroke="black" points="441.5,-37 441.5,-55 490.5,-55 490.5,-37 441.5,-37"/>
<text text-anchor="start" x="480.5" y="-43.2" font-family="Helvetica,sans-Serif" font-size="11.00"> &#160;</text>
</a>
</g>
</g>
<!-- simplified_planting_sites&#45;&gt;planting_sites -->
<g id="edge21" class="edge">
<title>simplified_planting_sites:w&#45;&gt;planting_sites:e</title>
<path fill="none" stroke="black" d="M288.13,-66.38C277.76,-72.37 278.39,-88.77 273,-105 256.51,-154.63 285.3,-574 233,-574"/>
<polygon fill="black" stroke="black" points="296.83,-60.28 298.62,-68.08 297.06,-68.44 295.27,-60.64 296.83,-60.28"/>
<polyline fill="none" stroke="black" points="298.5,-64 294.6,-64.89 "/>
<ellipse fill="none" stroke="black" cx="291.48" cy="-65.61" rx="3.2" ry="3.2"/>
</g>
<!-- strata&#45;&gt;planting_sites -->
<g id="edge22" class="edge">
<title>strata:w&#45;&gt;planting_sites:e</title>
<path fill="none" stroke="black" d="M338.79,-734.42C309.38,-731.84 295.72,-720.39 273,-694 236.32,-651.39 289.22,-574 233,-574"/>
<polygon fill="black" stroke="black" points="345.51,-734.68 353.36,-738.6 349.5,-734.84 353.5,-735 353.5,-735 353.5,-735 349.5,-734.84 353.64,-731.4 345.51,-734.68 345.51,-734.68"/>
<ellipse fill="none" stroke="black" cx="342.31" cy="-734.56" rx="3.2" ry="3.2"/>
</g>
</g>
</svg>
