<?xml version="1.0" encoding="UTF-8" standalone="no"?>
<!DOCTYPE svg PUBLIC "-//W3C//DTD SVG 1.1//EN"
 "http://www.w3.org/Graphics/SVG/1.1/DTD/svg11.dtd">
<!-- Generated by graphviz version 2.38.0 (20140413.2041)
 -->
<!-- Title: twoDegreesRelationshipsDiagram Pages: 1 -->
<svg width="1211pt" height="775pt"
 viewBox="0.00 0.00 1211.00 774.54" xmlns="http://www.w3.org/2000/svg" xmlns:xlink="http://www.w3.org/1999/xlink">
<g id="graph0" class="graph" transform="scale(1 1) rotate(0) translate(4 770.543)">
<title>twoDegreesRelationshipsDiagram</title>
<polygon fill="#ffffff" stroke="none" points="-4,4 -4,-770.543 1207,-770.543 1207,4 -4,4"/>
<text text-anchor="middle" x="74.5" y="-7.2" font-family="Helvetica,sans-Serif" font-size="11.00">Generated by SchemaSpy</text>
<!-- deliveries -->
<g id="node1" class="node"><title>deliveries</title>
<g id="a_node1"><a xlink:href="../../tables/deliveries.html" xlink:title="deliveries" target="_top">
<polygon fill="#ffffff" stroke="none" points="569.5,-426 569.5,-484 674.5,-484 674.5,-426 569.5,-426"/>
<polygon fill="#f5f5f5" stroke="none" points="570,-462 570,-484 675,-484 675,-462 570,-462"/>
<polygon fill="none" stroke="black" points="570,-462 570,-484 675,-484 675,-462 570,-462"/>
<text text-anchor="start" x="575" y="-471.2" font-family="Helvetica,sans-Serif" font-weight="bold" font-size="11.00">deliveries</text>
<text text-anchor="start" x="636" y="-470.2" font-family="Helvetica,sans-Serif" font-size="11.00">[table]</text>
<polygon fill="none" stroke="black" points="570,-444 570,-462 675,-462 675,-444 570,-444"/>
<text text-anchor="start" x="573" y="-450.2" font-family="Helvetica,sans-Serif" font-size="11.00">...</text>
<polygon fill="#ffffff" stroke="none" points="570,-426 570,-444 601,-444 601,-426 570,-426"/>
<polygon fill="none" stroke="black" points="570,-426 570,-444 601,-444 601,-426 570,-426"/>
<text text-anchor="start" x="573" y="-432.2" font-family="Helvetica,sans-Serif" font-size="11.00">&lt; 1</text>
<polygon fill="#ffffff" stroke="none" points="601,-426 601,-444 647,-444 647,-426 601,-426"/>
<polygon fill="none" stroke="black" points="601,-426 601,-444 647,-444 647,-426 601,-426"/>
<text text-anchor="start" x="608" y="-432.2" font-family="Helvetica,sans-Serif" font-size="11.00">0 rows</text>
<polygon fill="#ffffff" stroke="none" points="647,-426 647,-444 675,-444 675,-426 647,-426"/>
<polygon fill="none" stroke="black" points="647,-426 647,-444 675,-444 675,-426 647,-426"/>
<text text-anchor="start" x="655" y="-432.2" font-family="Helvetica,sans-Serif" font-size="11.00">2 &gt;</text>
</a>
</g>
</g>
<!-- planting_sites -->
<g id="node2" class="node"><title>planting_sites</title>
<g id="a_node2"><a xlink:href="../../tables/planting_sites.html" xlink:title="planting_sites" target="_top">
<polygon fill="#ffffff" stroke="none" points="8,-379 8,-525 135,-525 135,-379 8,-379"/>
<polygon fill="#f5f5f5" stroke="none" points="8.5,-503 8.5,-525 135.5,-525 135.5,-503 8.5,-503"/>
<polygon fill="none" stroke="black" points="8.5,-503 8.5,-525 135.5,-525 135.5,-503 8.5,-503"/>
<text text-anchor="start" x="13.5" y="-512.2" font-family="Helvetica,sans-Serif" font-weight="bold" font-size="11.00">planting_sites</text>
<text text-anchor="start" x="96.5" y="-511.2" font-family="Helvetica,sans-Serif" font-size="11.00">[table]</text>
<polygon fill="none" stroke="black" points="8.5,-481 8.5,-503 135.5,-503 135.5,-481 8.5,-481"/>
<image xlink:href="../../images/primaryKeys.png" width="11px" height="12px" preserveAspectRatio="xMinYMin meet" x="13.5" y="-498"/>
<text text-anchor="start" x="36.5" y="-489.2" font-family="Helvetica,sans-Serif" font-size="11.00">id</text>
<polygon fill="#ffffff" stroke="none" points="8.5,-459 8.5,-481 135.5,-481 135.5,-459 8.5,-459"/>
<polygon fill="none" stroke="black" points="8.5,-459 8.5,-481 135.5,-481 135.5,-459 8.5,-459"/>
<text text-anchor="start" x="36.5" y="-467.2" font-family="Helvetica,sans-Serif" font-size="11.00">organization_id</text>
<polygon fill="#ffffff" stroke="none" points="8.5,-437 8.5,-459 135.5,-459 135.5,-437 8.5,-437"/>
<polygon fill="none" stroke="black" points="8.5,-437 8.5,-459 135.5,-459 135.5,-437 8.5,-437"/>
<text text-anchor="start" x="36.5" y="-445.2" font-family="Helvetica,sans-Serif" font-size="11.00">name</text>
<polygon fill="#ffffff" stroke="none" points="8.5,-415 8.5,-437 135.5,-437 135.5,-415 8.5,-415"/>
<polygon fill="none" stroke="black" points="8.5,-415 8.5,-437 135.5,-437 135.5,-415 8.5,-415"/>
<text text-anchor="start" x="36.5" y="-423.2" font-family="Helvetica,sans-Serif" font-size="11.00">project_id</text>
<polygon fill="none" stroke="black" points="8.5,-397 8.5,-415 135.5,-415 135.5,-397 8.5,-397"/>
<text text-anchor="start" x="11.5" y="-403.2" font-family="Helvetica,sans-Serif" font-size="11.00">...</text>
<polygon fill="#ffffff" stroke="none" points="8.5,-379 8.5,-397 42.5,-397 42.5,-379 8.5,-379"/>
<polygon fill="none" stroke="black" points="8.5,-379 8.5,-397 42.5,-397 42.5,-379 8.5,-379"/>
<text text-anchor="start" x="11.5" y="-385.2" font-family="Helvetica,sans-Serif" font-size="11.00"> &#160;</text>
<polygon fill="#ffffff" stroke="none" points="42.5,-379 42.5,-397 94.5,-397 94.5,-379 42.5,-379"/>
<polygon fill="none" stroke="black" points="42.5,-379 42.5,-397 94.5,-397 94.5,-379 42.5,-379"/>
<text text-anchor="start" x="55.5" y="-385.2" font-family="Helvetica,sans-Serif" font-size="11.00">0 rows</text>
<polygon fill="#ffffff" stroke="none" points="94.5,-379 94.5,-397 135.5,-397 135.5,-379 94.5,-379"/>
<polygon fill="none" stroke="black" points="94.5,-379 94.5,-397 135.5,-397 135.5,-379 94.5,-379"/>
<text text-anchor="start" x="108.5" y="-385.2" font-family="Helvetica,sans-Serif" font-size="11.00">12 &gt;</text>
</a>
</g>
</g>
<!-- deliveries&#45;&gt;planting_sites -->
<g id="edge1" class="edge"><title>deliveries:elipses:w&#45;&gt;planting_sites:id:e</title>
<path fill="none" stroke="black" d="M554.372,-453.244C524.345,-454.311 512.019,-458.666 476,-462 325.168,-475.962 287.977,-492 136.5,-492"/>
<polygon fill="black" stroke="black" points="561.001,-453.133 569.06,-456.599 565.001,-453.067 569,-453 569,-453 569,-453 565.001,-453.067 568.94,-449.401 561.001,-453.133 561.001,-453.133"/>
<ellipse fill="none" stroke="black" cx="557.802" cy="-453.187" rx="3.2" ry="3.2"/>
</g>
<!-- monitoring_plot_histories -->
<g id="node3" class="node"><title>monitoring_plot_histories</title>
<g id="a_node3"><a xlink:href="../../tables/monitoring_plot_histories.html" xlink:title="monitoring_plot_histories" target="_top">
<polygon fill="#ffffff" stroke="none" points="1001,-611 1001,-669 1195,-669 1195,-611 1001,-611"/>
<polygon fill="#f5f5f5" stroke="none" points="1001,-647 1001,-669 1195,-669 1195,-647 1001,-647"/>
<polygon fill="none" stroke="black" points="1001,-647 1001,-669 1195,-669 1195,-647 1001,-647"/>
<text text-anchor="start" x="1006" y="-656.2" font-family="Helvetica,sans-Serif" font-weight="bold" font-size="11.00">monitoring_plot_histories</text>
<text text-anchor="start" x="1156" y="-655.2" font-family="Helvetica,sans-Serif" font-size="11.00">[table]</text>
<polygon fill="none" stroke="black" points="1001,-629 1001,-647 1195,-647 1195,-629 1001,-629"/>
<text text-anchor="start" x="1004" y="-635.2" font-family="Helvetica,sans-Serif" font-size="11.00">...</text>
<polygon fill="#ffffff" stroke="none" points="1001,-611 1001,-629 1082,-629 1082,-611 1001,-611"/>
<polygon fill="none" stroke="black" points="1001,-611 1001,-629 1082,-629 1082,-611 1001,-611"/>
<text text-anchor="start" x="1004" y="-617.2" font-family="Helvetica,sans-Serif" font-size="11.00">&lt; 5</text>
<polygon fill="#ffffff" stroke="none" points="1082,-611 1082,-629 1153,-629 1153,-611 1082,-611"/>
<polygon fill="none" stroke="black" points="1082,-611 1082,-629 1153,-629 1153,-611 1082,-611"/>
<text text-anchor="start" x="1114" y="-617.2" font-family="Helvetica,sans-Serif" font-size="11.00">0 rows</text>
<polygon fill="#ffffff" stroke="none" points="1153,-611 1153,-629 1195,-629 1195,-611 1153,-611"/>
<polygon fill="none" stroke="black" points="1153,-611 1153,-629 1195,-629 1195,-611 1153,-611"/>
<text text-anchor="start" x="1185" y="-617.2" font-family="Helvetica,sans-Serif" font-size="11.00"> &#160;</text>
</a>
</g>
</g>
<!-- monitoring_plot_histories&#45;&gt;planting_sites -->
<g id="edge4" class="edge"><title>monitoring_plot_histories:elipses:w&#45;&gt;planting_sites:id:e</title>
<path fill="none" stroke="black" d="M985.797,-640.922C977.842,-644.595 972.698,-650.697 960,-653 876.036,-668.226 853.33,-653.721 768,-653 702.215,-652.444 227.732,-683.642 176,-643 121.451,-600.145 205.869,-492 136.5,-492"/>
<polygon fill="black" stroke="black" points="992.164,-639.612 1000.73,-641.526 996.082,-638.806 1000,-638 1000,-638 1000,-638 996.082,-638.806 999.274,-634.474 992.164,-639.612 992.164,-639.612"/>
<ellipse fill="none" stroke="black" cx="989.03" cy="-640.257" rx="3.2" ry="3.2"/>
</g>
<!-- monitoring_plots -->
<g id="node4" class="node"><title>monitoring_plots</title>
<g id="a_node4"><a xlink:href="../../tables/monitoring_plots.html" xlink:title="monitoring_plots" target="_top">
<polygon fill="#ffffff" stroke="none" points="791.5,-584 791.5,-642 936.5,-642 936.5,-584 791.5,-584"/>
<polygon fill="#f5f5f5" stroke="none" points="792,-620 792,-642 937,-642 937,-620 792,-620"/>
<polygon fill="none" stroke="black" points="792,-620 792,-642 937,-642 937,-620 792,-620"/>
<text text-anchor="start" x="797" y="-629.2" font-family="Helvetica,sans-Serif" font-weight="bold" font-size="11.00">monitoring_plots</text>
<text text-anchor="start" x="898" y="-628.2" font-family="Helvetica,sans-Serif" font-size="11.00">[table]</text>
<polygon fill="none" stroke="black" points="792,-602 792,-620 937,-620 937,-602 792,-602"/>
<text text-anchor="start" x="795" y="-608.2" font-family="Helvetica,sans-Serif" font-size="11.00">...</text>
<polygon fill="#ffffff" stroke="none" points="792,-584 792,-602 843,-602 843,-584 792,-584"/>
<polygon fill="none" stroke="black" points="792,-584 792,-602 843,-602 843,-584 792,-584"/>
<text text-anchor="start" x="795" y="-590.2" font-family="Helvetica,sans-Serif" font-size="11.00">&lt; 2</text>
<polygon fill="#ffffff" stroke="none" points="843,-584 843,-602 899,-602 899,-584 843,-584"/>
<polygon fill="none" stroke="black" points="843,-584 843,-602 899,-602 899,-584 843,-584"/>
<text text-anchor="start" x="860" y="-590.2" font-family="Helvetica,sans-Serif" font-size="11.00">0 rows</text>
<polygon fill="#ffffff" stroke="none" points="899,-584 899,-602 937,-602 937,-584 899,-584"/>
<polygon fill="none" stroke="black" points="899,-584 899,-602 937,-602 937,-584 899,-584"/>
<text text-anchor="start" x="917" y="-590.2" font-family="Helvetica,sans-Serif" font-size="11.00">9 &gt;</text>
</a>
</g>
</g>
<!-- monitoring_plot_histories&#45;&gt;monitoring_plots -->
<g id="edge2" class="edge"><title>monitoring_plot_histories:elipses:w&#45;&gt;monitoring_plots:elipses:e</title>
<path fill="none" stroke="black" d="M985.693,-635.508C968.246,-628.824 962.42,-611 938,-611"/>
<polygon fill="black" stroke="black" points="992.119,-636.627 999.382,-641.547 996.059,-637.314 1000,-638 1000,-638 1000,-638 996.059,-637.314 1000.62,-634.453 992.119,-636.627 992.119,-636.627"/>
<ellipse fill="none" stroke="black" cx="988.966" cy="-636.078" rx="3.2" ry="3.2"/>
</g>
<!-- planting_site_histories -->
<g id="node5" class="node"><title>planting_site_histories</title>
<g id="a_node5"><a xlink:href="../../tables/planting_site_histories.html" xlink:title="planting_site_histories" target="_top">
<polygon fill="#ffffff" stroke="none" points="776,-690 776,-748 952,-748 952,-690 776,-690"/>
<polygon fill="#f5f5f5" stroke="none" points="776,-726 776,-748 952,-748 952,-726 776,-726"/>
<polygon fill="none" stroke="black" points="776,-726 776,-748 952,-748 952,-726 776,-726"/>
<text text-anchor="start" x="781" y="-735.2" font-family="Helvetica,sans-Serif" font-weight="bold" font-size="11.00">planting_site_histories</text>
<text text-anchor="start" x="913" y="-734.2" font-family="Helvetica,sans-Serif" font-size="11.00">[table]</text>
<polygon fill="none" stroke="black" points="776,-708 776,-726 952,-726 952,-708 776,-708"/>
<text text-anchor="start" x="779" y="-714.2" font-family="Helvetica,sans-Serif" font-size="11.00">...</text>
<polygon fill="#ffffff" stroke="none" points="776,-690 776,-708 843,-708 843,-690 776,-690"/>
<polygon fill="none" stroke="black" points="776,-690 776,-708 843,-708 843,-690 776,-690"/>
<text text-anchor="start" x="779" y="-696.2" font-family="Helvetica,sans-Serif" font-size="11.00">&lt; 1</text>
<polygon fill="#ffffff" stroke="none" points="843,-690 843,-708 907,-708 907,-690 843,-690"/>
<polygon fill="none" stroke="black" points="843,-690 843,-708 907,-708 907,-690 843,-690"/>
<text text-anchor="start" x="868" y="-696.2" font-family="Helvetica,sans-Serif" font-size="11.00">0 rows</text>
<polygon fill="#ffffff" stroke="none" points="907,-690 907,-708 952,-708 952,-690 907,-690"/>
<polygon fill="none" stroke="black" points="907,-690 907,-708 952,-708 952,-690 907,-690"/>
<text text-anchor="start" x="932" y="-696.2" font-family="Helvetica,sans-Serif" font-size="11.00">2 &gt;</text>
</a>
</g>
</g>
<!-- monitoring_plot_histories&#45;&gt;planting_site_histories -->
<g id="edge3" class="edge"><title>monitoring_plot_histories:elipses:w&#45;&gt;planting_site_histories:elipses:e</title>
<path fill="none" stroke="black" d="M986.307,-642.705C967.785,-659.712 987.791,-717 953,-717"/>
<polygon fill="black" stroke="black" points="992.434,-640.6 1001.17,-641.405 996.217,-639.3 1000,-638 1000,-638 1000,-638 996.217,-639.3 998.83,-634.595 992.434,-640.6 992.434,-640.6"/>
<ellipse fill="none" stroke="black" cx="989.408" cy="-641.64" rx="3.20001" ry="3.20001"/>
</g>
<!-- planting_subzones -->
<g id="node6" class="node"><title>planting_subzones</title>
<g id="a_node6"><a xlink:href="../../tables/planting_subzones.html" xlink:title="planting_subzones" target="_top">
<polygon fill="#ffffff" stroke="none" points="545.5,-533 545.5,-591 698.5,-591 698.5,-533 545.5,-533"/>
<polygon fill="#f5f5f5" stroke="none" points="546,-569 546,-591 699,-591 699,-569 546,-569"/>
<polygon fill="none" stroke="black" points="546,-569 546,-591 699,-591 699,-569 546,-569"/>
<text text-anchor="start" x="551" y="-578.2" font-family="Helvetica,sans-Serif" font-weight="bold" font-size="11.00">planting_subzones</text>
<text text-anchor="start" x="660" y="-577.2" font-family="Helvetica,sans-Serif" font-size="11.00">[table]</text>
<polygon fill="none" stroke="black" points="546,-551 546,-569 699,-569 699,-551 546,-551"/>
<text text-anchor="start" x="549" y="-557.2" font-family="Helvetica,sans-Serif" font-size="11.00">...</text>
<polygon fill="#ffffff" stroke="none" points="546,-533 546,-551 601,-551 601,-533 546,-533"/>
<polygon fill="none" stroke="black" points="546,-533 546,-551 601,-551 601,-533 546,-533"/>
<text text-anchor="start" x="549" y="-539.2" font-family="Helvetica,sans-Serif" font-size="11.00">&lt; 3</text>
<polygon fill="#ffffff" stroke="none" points="601,-533 601,-551 659,-551 659,-533 601,-533"/>
<polygon fill="none" stroke="black" points="601,-533 601,-551 659,-551 659,-533 601,-533"/>
<text text-anchor="start" x="620" y="-539.2" font-family="Helvetica,sans-Serif" font-size="11.00">0 rows</text>
<polygon fill="#ffffff" stroke="none" points="659,-533 659,-551 699,-551 699,-533 659,-533"/>
<polygon fill="none" stroke="black" points="659,-533 659,-551 699,-551 699,-533 659,-533"/>
<text text-anchor="start" x="679" y="-539.2" font-family="Helvetica,sans-Serif" font-size="11.00">7 &gt;</text>
</a>
</g>
</g>
<!-- monitoring_plot_histories&#45;&gt;planting_subzones -->
<g id="edge5" class="edge"><title>monitoring_plot_histories:elipses:w&#45;&gt;planting_subzones:elipses:e</title>
<path fill="none" stroke="black" d="M985.952,-633.199C973.262,-620.799 983.248,-587.715 960,-574 910.165,-544.6 757.861,-560 700,-560"/>
<polygon fill="black" stroke="black" points="992.43,-635.413 998.836,-641.407 996.215,-636.706 1000,-638 1000,-638 1000,-638 996.215,-636.706 1001.16,-634.593 992.43,-635.413 992.43,-635.413"/>
<ellipse fill="none" stroke="black" cx="989.402" cy="-634.378" rx="3.20001" ry="3.20001"/>
</g>
<!-- monitoring_plots&#45;&gt;planting_sites -->
<g id="edge6" class="edge"><title>monitoring_plots:elipses:w&#45;&gt;planting_sites:id:e</title>
<path fill="none" stroke="black" d="M776.454,-611.46C671.066,-616.729 227.801,-664.735 176,-626 126.275,-588.818 198.589,-492 136.5,-492"/>
<polygon fill="black" stroke="black" points="783.004,-611.253 791.114,-614.598 787.002,-611.127 791,-611 791,-611 791,-611 787.002,-611.127 790.886,-607.402 783.004,-611.253 783.004,-611.253"/>
<ellipse fill="none" stroke="black" cx="779.806" cy="-611.354" rx="3.2" ry="3.2"/>
</g>
<!-- monitoring_plots&#45;&gt;planting_subzones -->
<g id="edge7" class="edge"><title>monitoring_plots:elipses:w&#45;&gt;planting_subzones:elipses:e</title>
<path fill="none" stroke="black" d="M776.527,-609.063C744.381,-599.747 740.93,-560 700,-560"/>
<polygon fill="black" stroke="black" points="783.071,-609.939 790.522,-614.568 787.035,-610.469 791,-611 791,-611 791,-611 787.035,-610.469 791.478,-607.432 783.071,-609.939 783.071,-609.939"/>
<ellipse fill="none" stroke="black" cx="779.899" cy="-609.514" rx="3.2" ry="3.2"/>
</g>
<!-- planting_site_histories&#45;&gt;planting_sites -->
<g id="edge12" class="edge"><title>planting_site_histories:elipses:w&#45;&gt;planting_sites:id:e</title>
<path fill="none" stroke="black" d="M760.286,-717.135C503.289,-721.856 373.954,-847.472 176,-676 112.78,-621.237 220.141,-492 136.5,-492"/>
<polygon fill="black" stroke="black" points="767,-717.074 775.033,-720.6 771,-717.037 775,-717 775,-717 775,-717 771,-717.037 774.967,-713.4 767,-717.074 767,-717.074"/>
<ellipse fill="none" stroke="black" cx="763.8" cy="-717.103" rx="3.2" ry="3.2"/>
</g>
<!-- planting_subzones&#45;&gt;planting_sites -->
<g id="edge15" class="edge"><title>planting_subzones:elipses:w&#45;&gt;planting_sites:id:e</title>
<path fill="none" stroke="black" d="M530.533,-559.28C510.623,-557.134 501.452,-550.706 476,-547 343.356,-527.685 303.049,-558.735 176,-516 156.53,-509.451 157.042,-492 136.5,-492"/>
<polygon fill="black" stroke="black" points="537.01,-559.602 544.821,-563.596 541.005,-559.801 545,-560 545,-560 545,-560 541.005,-559.801 545.179,-556.404 537.01,-559.602 537.01,-559.602"/>
<ellipse fill="none" stroke="black" cx="533.814" cy="-559.443" rx="3.2" ry="3.2"/>
</g>
<!-- planting_zones -->
<g id="node12" class="node"><title>planting_zones</title>
<g id="a_node12"><a xlink:href="../../tables/planting_zones.html" xlink:title="planting_zones" target="_top">
<polygon fill="#ffffff" stroke="none" points="259.5,-557 259.5,-615 392.5,-615 392.5,-557 259.5,-557"/>
<polygon fill="#f5f5f5" stroke="none" points="260,-593 260,-615 393,-615 393,-593 260,-593"/>
<polygon fill="none" stroke="black" points="260,-593 260,-615 393,-615 393,-593 260,-593"/>
<text text-anchor="start" x="265" y="-602.2" font-family="Helvetica,sans-Serif" font-weight="bold" font-size="11.00">planting_zones</text>
<text text-anchor="start" x="354" y="-601.2" font-family="Helvetica,sans-Serif" font-size="11.00">[table]</text>
<polygon fill="none" stroke="black" points="260,-575 260,-593 393,-593 393,-575 260,-575"/>
<text text-anchor="start" x="263" y="-581.2" font-family="Helvetica,sans-Serif" font-size="11.00">...</text>
<polygon fill="#ffffff" stroke="none" points="260,-557 260,-575 305,-575 305,-557 260,-557"/>
<polygon fill="none" stroke="black" points="260,-557 260,-575 305,-575 305,-557 260,-557"/>
<text text-anchor="start" x="263" y="-563.2" font-family="Helvetica,sans-Serif" font-size="11.00">&lt; 1</text>
<polygon fill="#ffffff" stroke="none" points="305,-557 305,-575 358,-575 358,-557 305,-557"/>
<polygon fill="none" stroke="black" points="305,-557 305,-575 358,-575 358,-557 305,-557"/>
<text text-anchor="start" x="319" y="-563.2" font-family="Helvetica,sans-Serif" font-size="11.00">0 rows</text>
<polygon fill="#ffffff" stroke="none" points="358,-557 358,-575 393,-575 393,-557 358,-557"/>
<polygon fill="none" stroke="black" points="358,-557 358,-575 393,-575 393,-557 358,-557"/>
<text text-anchor="start" x="373" y="-563.2" font-family="Helvetica,sans-Serif" font-size="11.00">5 &gt;</text>
</a>
</g>
</g>
<!-- planting_subzones&#45;&gt;planting_zones -->
<g id="edge16" class="edge"><title>planting_subzones:elipses:w&#45;&gt;planting_zones:elipses:e</title>
<path fill="none" stroke="black" d="M530.345,-559.13C474.44,-557.552 456.777,-578.457 394,-584"/>
<polygon fill="black" stroke="black" points="537.014,-559.526 544.787,-563.594 541.007,-559.763 545,-560 545,-560 545,-560 541.007,-559.763 545.213,-556.406 537.014,-559.526 537.014,-559.526"/>
<ellipse fill="none" stroke="black" cx="533.82" cy="-559.336" rx="3.2" ry="3.2"/>
</g>
<!-- planting_subzones&#45;&gt;planting_zones -->
<g id="edge17" class="edge"><title>planting_subzones:elipses:w&#45;&gt;planting_zones:elipses:e</title>
<path fill="none" stroke="black" d="M530.7,-561.82C474.515,-570.392 456.91,-590.48 394,-584"/>
<polygon fill="black" stroke="black" points="537.064,-561.01 545.455,-563.571 541.032,-560.505 545,-560 545,-560 545,-560 541.032,-560.505 544.545,-556.429 537.064,-561.01 537.064,-561.01"/>
<ellipse fill="none" stroke="black" cx="533.89" cy="-561.414" rx="3.2" ry="3.2"/>
</g>
<!-- observations -->
<g id="node7" class="node"><title>observations</title>
<g id="a_node7"><a xlink:href="../../tables/observations.html" xlink:title="observations" target="_top">
<polygon fill="#ffffff" stroke="none" points="265,-370 265,-428 387,-428 387,-370 265,-370"/>
<polygon fill="#f5f5f5" stroke="none" points="265,-406 265,-428 387,-428 387,-406 265,-406"/>
<polygon fill="none" stroke="black" points="265,-406 265,-428 387,-428 387,-406 265,-406"/>
<text text-anchor="start" x="270" y="-415.2" font-family="Helvetica,sans-Serif" font-weight="bold" font-size="11.00">observations</text>
<text text-anchor="start" x="348" y="-414.2" font-family="Helvetica,sans-Serif" font-size="11.00">[table]</text>
<polygon fill="none" stroke="black" points="265,-388 265,-406 387,-406 387,-388 265,-388"/>
<text text-anchor="start" x="268" y="-394.2" font-family="Helvetica,sans-Serif" font-size="11.00">...</text>
<polygon fill="#ffffff" stroke="none" points="265,-370 265,-388 305,-388 305,-370 265,-370"/>
<polygon fill="none" stroke="black" points="265,-370 265,-388 305,-388 305,-370 265,-370"/>
<text text-anchor="start" x="268" y="-376.2" font-family="Helvetica,sans-Serif" font-size="11.00">&lt; 2</text>
<polygon fill="#ffffff" stroke="none" points="305,-370 305,-388 355,-388 355,-370 305,-370"/>
<polygon fill="none" stroke="black" points="305,-370 305,-388 355,-388 355,-370 305,-370"/>
<text text-anchor="start" x="316" y="-376.2" font-family="Helvetica,sans-Serif" font-size="11.00">0 rows</text>
<polygon fill="#ffffff" stroke="none" points="355,-370 355,-388 387,-388 387,-370 355,-370"/>
<polygon fill="none" stroke="black" points="355,-370 355,-388 387,-388 387,-370 355,-370"/>
<text text-anchor="start" x="367" y="-376.2" font-family="Helvetica,sans-Serif" font-size="11.00">9 &gt;</text>
</a>
</g>
</g>
<!-- observations&#45;&gt;planting_sites -->
<g id="edge8" class="edge"><title>observations:elipses:w&#45;&gt;planting_sites:id:e</title>
<path fill="none" stroke="black" d="M249.427,-397.742C217.271,-401.305 205.84,-417.5 176,-442 154.112,-459.971 164.82,-492 136.5,-492"/>
<polygon fill="black" stroke="black" points="256.01,-397.407 264.183,-400.595 260.005,-397.203 264,-397 264,-397 264,-397 260.005,-397.203 263.817,-393.405 256.01,-397.407 256.01,-397.407"/>
<ellipse fill="none" stroke="black" cx="252.814" cy="-397.57" rx="3.2" ry="3.2"/>
</g>
<!-- observed_site_species_totals -->
<g id="node8" class="node"><title>observed_site_species_totals</title>
<g id="a_node8"><a xlink:href="../../tables/observed_site_species_totals.html" xlink:title="observed_site_species_totals" target="_top">
<polygon fill="#ffffff" stroke="none" points="517,-347 517,-405 727,-405 727,-347 517,-347"/>
<polygon fill="#f5f5f5" stroke="none" points="517,-383 517,-405 727,-405 727,-383 517,-383"/>
<polygon fill="none" stroke="black" points="517,-383 517,-405 727,-405 727,-383 517,-383"/>
<text text-anchor="start" x="522" y="-392.2" font-family="Helvetica,sans-Serif" font-weight="bold" font-size="11.00">observed_site_species_totals</text>
<text text-anchor="start" x="688" y="-391.2" font-family="Helvetica,sans-Serif" font-size="11.00">[table]</text>
<polygon fill="none" stroke="black" points="517,-365 517,-383 727,-383 727,-365 517,-365"/>
<text text-anchor="start" x="520" y="-371.2" font-family="Helvetica,sans-Serif" font-size="11.00">...</text>
<polygon fill="#ffffff" stroke="none" points="517,-347 517,-365 606,-365 606,-347 517,-347"/>
<polygon fill="none" stroke="black" points="517,-347 517,-365 606,-365 606,-347 517,-347"/>
<text text-anchor="start" x="520" y="-353.2" font-family="Helvetica,sans-Serif" font-size="11.00">&lt; 3</text>
<polygon fill="#ffffff" stroke="none" points="606,-347 606,-365 681,-365 681,-347 606,-347"/>
<polygon fill="none" stroke="black" points="606,-347 606,-365 681,-365 681,-347 606,-347"/>
<text text-anchor="start" x="642" y="-353.2" font-family="Helvetica,sans-Serif" font-size="11.00">0 rows</text>
<polygon fill="#ffffff" stroke="none" points="681,-347 681,-365 727,-365 727,-347 681,-347"/>
<polygon fill="none" stroke="black" points="681,-347 681,-365 727,-365 727,-347 681,-347"/>
<text text-anchor="start" x="717" y="-353.2" font-family="Helvetica,sans-Serif" font-size="11.00"> &#160;</text>
</a>
</g>
</g>
<!-- observed_site_species_totals&#45;&gt;planting_sites -->
<g id="edge10" class="edge"><title>observed_site_species_totals:elipses:w&#45;&gt;planting_sites:id:e</title>
<path fill="none" stroke="black" d="M501.929,-378.762C489.183,-391.069 499.044,-423.945 476,-438 418.887,-472.834 238.651,-439.545 176,-463 155.604,-470.636 158.279,-492 136.5,-492"/>
<polygon fill="black" stroke="black" points="508.422,-376.565 517.154,-377.41 512.211,-375.282 516,-374 516,-374 516,-374 512.211,-375.282 514.846,-370.59 508.422,-376.565 508.422,-376.565"/>
<ellipse fill="none" stroke="black" cx="505.391" cy="-377.591" rx="3.20001" ry="3.20001"/>
</g>
<!-- observed_site_species_totals&#45;&gt;observations -->
<g id="edge9" class="edge"><title>observed_site_species_totals:elipses:w&#45;&gt;observations:elipses:e</title>
<path fill="none" stroke="black" d="M501.455,-374.524C455.605,-377.947 440.607,-397 388,-397"/>
<polygon fill="black" stroke="black" points="508.005,-374.288 516.13,-377.598 512.003,-374.144 516,-374 516,-374 516,-374 512.003,-374.144 515.87,-370.402 508.005,-374.288 508.005,-374.288"/>
<ellipse fill="none" stroke="black" cx="504.807" cy="-374.403" rx="3.2" ry="3.2"/>
</g>
<!-- planting_seasons -->
<g id="node9" class="node"><title>planting_seasons</title>
<g id="a_node9"><a xlink:href="../../tables/planting_seasons.html" xlink:title="planting_seasons" target="_top">
<polygon fill="#ffffff" stroke="none" points="253.5,-291 253.5,-349 398.5,-349 398.5,-291 253.5,-291"/>
<polygon fill="#f5f5f5" stroke="none" points="254,-327 254,-349 399,-349 399,-327 254,-327"/>
<polygon fill="none" stroke="black" points="254,-327 254,-349 399,-349 399,-327 254,-327"/>
<text text-anchor="start" x="259" y="-336.2" font-family="Helvetica,sans-Serif" font-weight="bold" font-size="11.00">planting_seasons</text>
<text text-anchor="start" x="360" y="-335.2" font-family="Helvetica,sans-Serif" font-size="11.00">[table]</text>
<polygon fill="none" stroke="black" points="254,-309 254,-327 399,-327 399,-309 254,-309"/>
<text text-anchor="start" x="257" y="-315.2" font-family="Helvetica,sans-Serif" font-size="11.00">...</text>
<polygon fill="#ffffff" stroke="none" points="254,-291 254,-309 310,-309 310,-291 254,-291"/>
<polygon fill="none" stroke="black" points="254,-291 254,-309 310,-309 310,-291 254,-291"/>
<text text-anchor="start" x="257" y="-297.2" font-family="Helvetica,sans-Serif" font-size="11.00">&lt; 1</text>
<polygon fill="#ffffff" stroke="none" points="310,-291 310,-309 369,-309 369,-291 310,-291"/>
<polygon fill="none" stroke="black" points="310,-291 310,-309 369,-309 369,-291 310,-291"/>
<text text-anchor="start" x="330" y="-297.2" font-family="Helvetica,sans-Serif" font-size="11.00">0 rows</text>
<polygon fill="#ffffff" stroke="none" points="369,-291 369,-309 399,-309 399,-291 369,-291"/>
<polygon fill="none" stroke="black" points="369,-291 369,-309 399,-309 399,-291 369,-291"/>
<text text-anchor="start" x="389" y="-297.2" font-family="Helvetica,sans-Serif" font-size="11.00"> &#160;</text>
</a>
</g>
</g>
<!-- planting_seasons&#45;&gt;planting_sites -->
<g id="edge11" class="edge"><title>planting_seasons:elipses:w&#45;&gt;planting_sites:id:e</title>
<path fill="none" stroke="black" d="M238.412,-318.636C210.281,-321.358 197.179,-333.082 176,-359 136.983,-406.749 198.163,-492 136.5,-492"/>
<polygon fill="black" stroke="black" points="245.008,-318.349 253.157,-321.597 249.004,-318.174 253,-318 253,-318 253,-318 249.004,-318.174 252.843,-314.403 245.008,-318.349 245.008,-318.349"/>
<ellipse fill="none" stroke="black" cx="241.811" cy="-318.488" rx="3.2" ry="3.2"/>
</g>
<!-- planting_site_notifications -->
<g id="node10" class="node"><title>planting_site_notifications</title>
<g id="a_node10"><a xlink:href="../../tables/planting_site_notifications.html" xlink:title="planting_site_notifications" target="_top">
<polygon fill="#ffffff" stroke="none" points="184,-116 184,-270 468,-270 468,-116 184,-116"/>
<polygon fill="#f5f5f5" stroke="none" points="186,-246 186,-268 466,-268 466,-246 186,-246"/>
<polygon fill="none" stroke="black" points="186,-246 186,-268 466,-268 466,-246 186,-246"/>
<text text-anchor="start" x="191" y="-255.2" font-family="Helvetica,sans-Serif" font-weight="bold" font-size="11.00">planting_site_notifications</text>
<text text-anchor="start" x="427" y="-254.2" font-family="Helvetica,sans-Serif" font-size="11.00">[table]</text>
<polygon fill="none" stroke="black" points="186,-224 186,-246 364,-246 364,-224 186,-224"/>
<image xlink:href="../../images/primaryKeys.png" width="11px" height="12px" preserveAspectRatio="xMinYMin meet" x="191" y="-241"/>
<text text-anchor="start" x="206" y="-232.2" font-family="Helvetica,sans-Serif" font-size="11.00">id</text>
<polygon fill="none" stroke="black" points="364,-224 364,-246 466,-246 466,-224 364,-224"/>
<text text-anchor="start" x="367" y="-232.2" font-family="Helvetica,sans-Serif" font-size="11.00">int8[19]</text>
<polygon fill="#ffffff" stroke="none" points="186,-202 186,-224 364,-224 364,-202 186,-202"/>
<polygon fill="none" stroke="black" points="186,-202 186,-224 364,-224 364,-202 186,-202"/>
<image xlink:href="../../images/foreignKeys.png" width="11px" height="12px" preserveAspectRatio="xMinYMin meet" x="191" y="-219"/>
<text text-anchor="start" x="206" y="-210.2" font-family="Helvetica,sans-Serif" font-size="11.00">planting_site_id</text>
<polygon fill="none" stroke="black" points="364,-202 364,-224 466,-224 466,-202 364,-202"/>
<text text-anchor="start" x="367" y="-210.2" font-family="Helvetica,sans-Serif" font-size="11.00">int8[19]</text>
<polygon fill="#ffffff" stroke="none" points="186,-180 186,-202 364,-202 364,-180 186,-180"/>
<polygon fill="none" stroke="black" points="186,-180 186,-202 364,-202 364,-180 186,-180"/>
<text text-anchor="start" x="206" y="-188.2" font-family="Helvetica,sans-Serif" font-size="11.00">notification_type_id</text>
<polygon fill="none" stroke="black" points="364,-180 364,-202 466,-202 466,-180 364,-180"/>
<text text-anchor="start" x="367" y="-188.2" font-family="Helvetica,sans-Serif" font-size="11.00">int4[10]</text>
<polygon fill="#ffffff" stroke="none" points="186,-158 186,-180 364,-180 364,-158 186,-158"/>
<polygon fill="none" stroke="black" points="186,-158 186,-180 364,-180 364,-158 186,-158"/>
<text text-anchor="start" x="206" y="-166.2" font-family="Helvetica,sans-Serif" font-size="11.00">notification_number</text>
<polygon fill="none" stroke="black" points="364,-158 364,-180 466,-180 466,-158 364,-158"/>
<text text-anchor="start" x="367" y="-166.2" font-family="Helvetica,sans-Serif" font-size="11.00">int4[10]</text>
<polygon fill="none" stroke="black" points="186,-136 186,-158 364,-158 364,-136 186,-136"/>
<text text-anchor="start" x="206" y="-144.2" font-family="Helvetica,sans-Serif" font-size="11.00">sent_time</text>
<polygon fill="none" stroke="black" points="364,-136 364,-158 466,-158 466,-136 364,-136"/>
<text text-anchor="start" x="367" y="-144.2" font-family="Helvetica,sans-Serif" font-size="11.00">timestamptz[35,6]</text>
<polygon fill="#ffffff" stroke="none" points="186,-118 186,-136 265,-136 265,-118 186,-118"/>
<polygon fill="none" stroke="black" points="186,-118 186,-136 265,-136 265,-118 186,-118"/>
<text text-anchor="start" x="189" y="-124.2" font-family="Helvetica,sans-Serif" font-size="11.00">&lt; 1</text>
<polygon fill="#ffffff" stroke="none" points="265,-118 265,-136 364,-136 364,-118 265,-118"/>
<polygon fill="none" stroke="black" points="265,-118 265,-136 364,-136 364,-118 265,-118"/>
<text text-anchor="start" x="325" y="-124.2" font-family="Helvetica,sans-Serif" font-size="11.00">0 rows</text>
<polygon fill="#ffffff" stroke="none" points="364,-118 364,-136 466,-136 466,-118 364,-118"/>
<polygon fill="none" stroke="black" points="364,-118 364,-136 466,-136 466,-118 364,-118"/>
<text text-anchor="start" x="446" y="-124.2" font-family="Helvetica,sans-Serif" font-size="11.00">0 &gt;</text>
<polygon fill="none" stroke="black" stroke-width="2" points="185,-117 185,-269 467,-269 467,-117 185,-117"/>
</a>
</g>
</g>
<!-- planting_site_notifications&#45;&gt;planting_sites -->
<g id="edge13" class="edge"><title>planting_site_notifications:planting_site_id:w&#45;&gt;planting_sites:id:e</title>
<path fill="none" stroke="black" d="M171.706,-218.827C134.33,-258.893 194.022,-492 136.5,-492"/>
<polygon fill="black" stroke="black" points="177.673,-216.212 186.445,-216.297 181.337,-214.606 185,-213 185,-213 185,-213 181.337,-214.606 183.555,-209.703 177.673,-216.212 177.673,-216.212"/>
<ellipse fill="none" stroke="black" cx="174.742" cy="-217.496" rx="3.20001" ry="3.20001"/>
</g>
<!-- planting_site_populations -->
<g id="node11" class="node"><title>planting_site_populations</title>
<g id="a_node11"><a xlink:href="../../tables/planting_site_populations.html" xlink:title="planting_site_populations" target="_top">
<polygon fill="#ffffff" stroke="none" points="228.5,-37 228.5,-95 423.5,-95 423.5,-37 228.5,-37"/>
<polygon fill="#f5f5f5" stroke="none" points="229,-73 229,-95 424,-95 424,-73 229,-73"/>
<polygon fill="none" stroke="black" points="229,-73 229,-95 424,-95 424,-73 229,-73"/>
<text text-anchor="start" x="234" y="-82.2" font-family="Helvetica,sans-Serif" font-weight="bold" font-size="11.00">planting_site_populations</text>
<text text-anchor="start" x="385" y="-81.2" font-family="Helvetica,sans-Serif" font-size="11.00">[table]</text>
<polygon fill="none" stroke="black" points="229,-55 229,-73 424,-73 424,-55 229,-55"/>
<text text-anchor="start" x="232" y="-61.2" font-family="Helvetica,sans-Serif" font-size="11.00">...</text>
<polygon fill="#ffffff" stroke="none" points="229,-37 229,-55 310,-55 310,-37 229,-37"/>
<polygon fill="none" stroke="black" points="229,-37 229,-55 310,-55 310,-37 229,-37"/>
<text text-anchor="start" x="232" y="-43.2" font-family="Helvetica,sans-Serif" font-size="11.00">&lt; 1</text>
<polygon fill="#ffffff" stroke="none" points="310,-37 310,-55 381,-55 381,-37 310,-37"/>
<polygon fill="none" stroke="black" points="310,-37 310,-55 381,-55 381,-37 310,-37"/>
<text text-anchor="start" x="342" y="-43.2" font-family="Helvetica,sans-Serif" font-size="11.00">0 rows</text>
<polygon fill="#ffffff" stroke="none" points="381,-37 381,-55 424,-55 424,-37 381,-37"/>
<polygon fill="none" stroke="black" points="381,-37 381,-55 424,-55 424,-37 381,-37"/>
<text text-anchor="start" x="414" y="-43.2" font-family="Helvetica,sans-Serif" font-size="11.00"> &#160;</text>
</a>
</g>
</g>
<!-- planting_site_populations&#45;&gt;planting_sites -->
<g id="edge14" class="edge"><title>planting_site_populations:elipses:w&#45;&gt;planting_sites:id:e</title>
<path fill="none" stroke="black" d="M213.487,-65.5733C195.217,-70.0746 187.515,-84.0426 176,-105 155.186,-142.882 179.723,-492 136.5,-492"/>
<polygon fill="black" stroke="black" points="220.047,-64.8623 228.388,-67.579 224.023,-64.4311 228,-64 228,-64 228,-64 224.023,-64.4311 227.612,-60.421 220.047,-64.8623 220.047,-64.8623"/>
<ellipse fill="none" stroke="black" cx="216.865" cy="-65.2072" rx="3.2" ry="3.2"/>
</g>
<!-- planting_zones&#45;&gt;planting_sites -->
<g id="edge18" class="edge"><title>planting_zones:elipses:w&#45;&gt;planting_sites:id:e</title>
<path fill="none" stroke="black" d="M244.528,-583.263C214.914,-579.959 203.749,-565.684 176,-543 153.803,-524.854 165.17,-492 136.5,-492"/>
<polygon fill="black" stroke="black" points="251.01,-583.593 258.817,-587.595 255.005,-583.796 259,-584 259,-584 259,-584 255.005,-583.796 259.183,-580.405 251.01,-583.593 251.01,-583.593"/>
<ellipse fill="none" stroke="black" cx="247.815" cy="-583.43" rx="3.2" ry="3.2"/>
</g>
<!-- plantings -->
<g id="node13" class="node"><title>plantings</title>
<g id="a_node13"><a xlink:href="../../tables/plantings.html" xlink:title="plantings" target="_top">
<polygon fill="#ffffff" stroke="none" points="813,-478 813,-536 915,-536 915,-478 813,-478"/>
<polygon fill="#f5f5f5" stroke="none" points="813,-514 813,-536 915,-536 915,-514 813,-514"/>
<polygon fill="none" stroke="black" points="813,-514 813,-536 915,-536 915,-514 813,-514"/>
<text text-anchor="start" x="818" y="-523.2" font-family="Helvetica,sans-Serif" font-weight="bold" font-size="11.00">plantings</text>
<text text-anchor="start" x="876" y="-522.2" font-family="Helvetica,sans-Serif" font-size="11.00">[table]</text>
<polygon fill="none" stroke="black" points="813,-496 813,-514 915,-514 915,-496 813,-496"/>
<text text-anchor="start" x="816" y="-502.2" font-family="Helvetica,sans-Serif" font-size="11.00">...</text>
<polygon fill="#ffffff" stroke="none" points="813,-478 813,-496 848,-496 848,-478 813,-478"/>
<polygon fill="none" stroke="black" points="813,-478 813,-496 848,-496 848,-478 813,-478"/>
<text text-anchor="start" x="816" y="-484.2" font-family="Helvetica,sans-Serif" font-size="11.00">&lt; 6</text>
<polygon fill="#ffffff" stroke="none" points="848,-478 848,-496 896,-496 896,-478 848,-478"/>
<polygon fill="none" stroke="black" points="848,-478 848,-496 896,-496 896,-478 848,-478"/>
<text text-anchor="start" x="857" y="-484.2" font-family="Helvetica,sans-Serif" font-size="11.00">0 rows</text>
<polygon fill="#ffffff" stroke="none" points="896,-478 896,-496 915,-496 915,-478 896,-478"/>
<polygon fill="none" stroke="black" points="896,-478 896,-496 915,-496 915,-478 896,-478"/>
<text text-anchor="start" x="905" y="-484.2" font-family="Helvetica,sans-Serif" font-size="11.00"> &#160;</text>
</a>
</g>
</g>
<!-- plantings&#45;&gt;deliveries -->
<g id="edge19" class="edge"><title>plantings:elipses:w&#45;&gt;deliveries:elipses:e</title>
<path fill="none" stroke="black" d="M797.513,-502.727C745.862,-491.044 735.53,-447.48 676,-453"/>
<polygon fill="black" stroke="black" points="804.097,-503.76 811.442,-508.556 808.048,-504.38 812,-505 812,-505 812,-505 808.048,-504.38 812.558,-501.444 804.097,-503.76 804.097,-503.76"/>
<ellipse fill="none" stroke="black" cx="800.935" cy="-503.264" rx="3.2" ry="3.2"/>
</g>
<!-- plantings&#45;&gt;deliveries -->
<g id="edge20" class="edge"><title>plantings:elipses:w&#45;&gt;deliveries:elipses:e</title>
<path fill="none" stroke="black" d="M797.513,-505.6C745.862,-503.96 735.53,-459.439 676,-453"/>
<polygon fill="black" stroke="black" points="804.007,-505.331 812.149,-508.597 808.003,-505.166 812,-505 812,-505 812,-505 808.003,-505.166 811.851,-501.403 804.007,-505.331 804.007,-505.331"/>
<ellipse fill="none" stroke="black" cx="800.81" cy="-505.464" rx="3.2" ry="3.2"/>
</g>
<!-- plantings&#45;&gt;planting_sites -->
<g id="edge21" class="edge"><title>plantings:elipses:w&#45;&gt;planting_sites:id:e</title>
<path fill="none" stroke="black" d="M797.229,-504.989C509.172,-504.572 431.793,-492 136.5,-492"/>
<polygon fill="black" stroke="black" points="804,-504.994 811.997,-508.6 808,-504.997 812,-505 812,-505 812,-505 808,-504.997 812.003,-501.4 804,-504.994 804,-504.994"/>
<ellipse fill="none" stroke="black" cx="800.8" cy="-504.992" rx="3.2" ry="3.2"/>
</g>
<!-- plantings&#45;&gt;planting_subzones -->
<g id="edge22" class="edge"><title>plantings:elipses:w&#45;&gt;planting_subzones:elipses:e</title>
<path fill="none" stroke="black" d="M797.477,-504.857C755.838,-509.079 750.149,-554.574 700,-560"/>
<polygon fill="black" stroke="black" points="804,-504.921 811.965,-508.6 808,-504.961 812,-505 812,-505 812,-505 808,-504.961 812.035,-501.4 804,-504.921 804,-504.921"/>
<ellipse fill="none" stroke="black" cx="800.801" cy="-504.89" rx="3.2" ry="3.2"/>
</g>
<!-- plantings&#45;&gt;planting_subzones -->
<g id="edge23" class="edge"><title>plantings:elipses:w&#45;&gt;planting_subzones:elipses:e</title>
<path fill="none" stroke="black" d="M797.747,-508.144C755.862,-521.768 750.257,-566.344 700,-560"/>
<polygon fill="black" stroke="black" points="804.188,-506.723 812.775,-508.516 808.094,-505.862 812,-505 812,-505 812,-505 808.094,-505.862 811.225,-501.484 804.188,-506.723 804.188,-506.723"/>
<ellipse fill="none" stroke="black" cx="801.063" cy="-507.412" rx="3.2" ry="3.2"/>
</g>
</g>
</svg>
