<?xml version="1.0" encoding="UTF-8" standalone="no"?>
<!DOCTYPE svg PUBLIC "-//W3C//DTD SVG 1.1//EN"
 "http://www.w3.org/Graphics/SVG/1.1/DTD/svg11.dtd">
<!-- Generated by graphviz version 2.38.0 (20140413.2041)
 -->
<!-- Title: twoDegreesRelationshipsDiagram Pages: 1 -->
<svg width="637pt" height="291pt"
 viewBox="0.00 0.00 637.00 291.00" xmlns="http://www.w3.org/2000/svg" xmlns:xlink="http://www.w3.org/1999/xlink">
<g id="graph0" class="graph" transform="scale(1 1) rotate(0) translate(4 287)">
<title>twoDegreesRelationshipsDiagram</title>
<polygon fill="#ffffff" stroke="none" points="-4,4 -4,-287 633,-287 633,4 -4,4"/>
<text text-anchor="middle" x="74.5" y="-7.2" font-family="Helvetica,sans-Serif" font-size="11.00">Generated by SchemaSpy</text>
<!-- planting_zones -->
<g id="node1" class="node"><title>planting_zones</title>
<g id="a_node1"><a xlink:href="../../tables/planting_zones.html" xlink:title="planting_zones" target="_top">
<polygon fill="#ffffff" stroke="none" points="184,-131 184,-255 317,-255 317,-131 184,-131"/>
<polygon fill="#f5f5f5" stroke="none" points="184.5,-233 184.5,-255 317.5,-255 317.5,-233 184.5,-233"/>
<polygon fill="none" stroke="black" points="184.5,-233 184.5,-255 317.5,-255 317.5,-233 184.5,-233"/>
<text text-anchor="start" x="189.5" y="-242.2" font-family="Helvetica,sans-Serif" font-weight="bold" font-size="11.00">planting_zones</text>
<text text-anchor="start" x="278.5" y="-241.2" font-family="Helvetica,sans-Serif" font-size="11.00">[table]</text>
<polygon fill="none" stroke="black" points="184.5,-211 184.5,-233 317.5,-233 317.5,-211 184.5,-211"/>
<image xlink:href="../../images/primaryKeys.png" width="11px" height="12px" preserveAspectRatio="xMinYMin meet" x="189.5" y="-228"/>
<text text-anchor="start" x="214.5" y="-219.2" font-family="Helvetica,sans-Serif" font-size="11.00">id</text>
<polygon fill="#ffffff" stroke="none" points="184.5,-189 184.5,-211 317.5,-211 317.5,-189 184.5,-189"/>
<polygon fill="none" stroke="black" points="184.5,-189 184.5,-211 317.5,-211 317.5,-189 184.5,-189"/>
<image xlink:href="../../images/foreignKeys.png" width="11px" height="12px" preserveAspectRatio="xMinYMin meet" x="189.5" y="-206"/>
<text text-anchor="start" x="214.5" y="-197.2" font-family="Helvetica,sans-Serif" font-size="11.00">planting_site_id</text>
<polygon fill="#ffffff" stroke="none" points="184.5,-167 184.5,-189 317.5,-189 317.5,-167 184.5,-167"/>
<polygon fill="none" stroke="black" points="184.5,-167 184.5,-189 317.5,-189 317.5,-167 184.5,-167"/>
<text text-anchor="start" x="214.5" y="-175.2" font-family="Helvetica,sans-Serif" font-size="11.00">name</text>
<polygon fill="none" stroke="black" points="184.5,-149 184.5,-167 317.5,-167 317.5,-149 184.5,-149"/>
<text text-anchor="start" x="187.5" y="-155.2" font-family="Helvetica,sans-Serif" font-size="11.00">...</text>
<polygon fill="#ffffff" stroke="none" points="184.5,-131 184.5,-149 229.5,-149 229.5,-131 184.5,-131"/>
<polygon fill="none" stroke="black" points="184.5,-131 184.5,-149 229.5,-149 229.5,-131 184.5,-131"/>
<text text-anchor="start" x="187.5" y="-137.2" font-family="Helvetica,sans-Serif" font-size="11.00">&lt; 1</text>
<polygon fill="#ffffff" stroke="none" points="229.5,-131 229.5,-149 282.5,-149 282.5,-131 229.5,-131"/>
<polygon fill="none" stroke="black" points="229.5,-131 229.5,-149 282.5,-149 282.5,-131 229.5,-131"/>
<text text-anchor="start" x="243.5" y="-137.2" font-family="Helvetica,sans-Serif" font-size="11.00">0 rows</text>
<polygon fill="#ffffff" stroke="none" points="282.5,-131 282.5,-149 317.5,-149 317.5,-131 282.5,-131"/>
<polygon fill="none" stroke="black" points="282.5,-131 282.5,-149 317.5,-149 317.5,-131 282.5,-131"/>
<text text-anchor="start" x="297.5" y="-137.2" font-family="Helvetica,sans-Serif" font-size="11.00">1 &gt;</text>
</a>
</g>
</g>
<!-- planting_sites -->
<g id="node2" class="node"><title>planting_sites</title>
<g id="a_node2"><a xlink:href="../../tables/planting_sites.html" xlink:title="planting_sites" target="_top">
<polygon fill="#ffffff" stroke="none" points="8,-173 8,-231 135,-231 135,-173 8,-173"/>
<polygon fill="#f5f5f5" stroke="none" points="8.5,-209 8.5,-231 135.5,-231 135.5,-209 8.5,-209"/>
<polygon fill="none" stroke="black" points="8.5,-209 8.5,-231 135.5,-231 135.5,-209 8.5,-209"/>
<text text-anchor="start" x="13.5" y="-218.2" font-family="Helvetica,sans-Serif" font-weight="bold" font-size="11.00">planting_sites</text>
<text text-anchor="start" x="96.5" y="-217.2" font-family="Helvetica,sans-Serif" font-size="11.00">[table]</text>
<polygon fill="none" stroke="black" points="8.5,-191 8.5,-209 135.5,-209 135.5,-191 8.5,-191"/>
<text text-anchor="start" x="11.5" y="-197.2" font-family="Helvetica,sans-Serif" font-size="11.00">...</text>
<polygon fill="#ffffff" stroke="none" points="8.5,-173 8.5,-191 45.5,-191 45.5,-173 8.5,-173"/>
<polygon fill="none" stroke="black" points="8.5,-173 8.5,-191 45.5,-191 45.5,-173 8.5,-173"/>
<text text-anchor="start" x="11.5" y="-179.2" font-family="Helvetica,sans-Serif" font-size="11.00"> &#160;</text>
<polygon fill="#ffffff" stroke="none" points="45.5,-173 45.5,-191 99.5,-191 99.5,-173 45.5,-173"/>
<polygon fill="none" stroke="black" points="45.5,-173 45.5,-191 99.5,-191 99.5,-173 45.5,-173"/>
<text text-anchor="start" x="60.5" y="-179.2" font-family="Helvetica,sans-Serif" font-size="11.00">0 rows</text>
<polygon fill="#ffffff" stroke="none" points="99.5,-173 99.5,-191 135.5,-191 135.5,-173 99.5,-173"/>
<polygon fill="none" stroke="black" points="99.5,-173 99.5,-191 135.5,-191 135.5,-173 99.5,-173"/>
<text text-anchor="start" x="115.5" y="-179.2" font-family="Helvetica,sans-Serif" font-size="11.00">1 &gt;</text>
</a>
</g>
</g>
<!-- planting_zones&#45;&gt;planting_sites -->
<g id="edge1" class="edge"><title>planting_zones:planting_site_id:w&#45;&gt;planting_sites:elipses:e</title>
<path fill="none" stroke="black" d="M168.896,-200C158.434,-200 151.514,-200 136.5,-200"/>
<polygon fill="black" stroke="black" points="175.5,-200 183.5,-203.6 179.5,-200 183.5,-200 183.5,-200 183.5,-200 179.5,-200 183.5,-196.4 175.5,-200 175.5,-200"/>
<ellipse fill="none" stroke="black" cx="172.3" cy="-200" rx="3.2" ry="3.2"/>
</g>
<!-- plots -->
<g id="node3" class="node"><title>plots</title>
<g id="a_node3"><a xlink:href="../../tables/plots.html" xlink:title="plots" target="_top">
<polygon fill="#ffffff" stroke="none" points="366,-37 366,-279 621,-279 621,-37 366,-37"/>
<polygon fill="#f5f5f5" stroke="none" points="368.5,-255 368.5,-277 619.5,-277 619.5,-255 368.5,-255"/>
<polygon fill="none" stroke="black" points="368.5,-255 368.5,-277 619.5,-277 619.5,-255 368.5,-255"/>
<text text-anchor="start" x="373.5" y="-264.2" font-family="Helvetica,sans-Serif" font-weight="bold" font-size="11.00">plots</text>
<text text-anchor="start" x="580.5" y="-263.2" font-family="Helvetica,sans-Serif" font-size="11.00">[table]</text>
<polygon fill="none" stroke="black" points="368.5,-233 368.5,-255 488.5,-255 488.5,-233 368.5,-233"/>
<image xlink:href="../../images/primaryKeys.png" width="11px" height="12px" preserveAspectRatio="xMinYMin meet" x="373.5" y="-250"/>
<text text-anchor="start" x="388.5" y="-241.2" font-family="Helvetica,sans-Serif" font-size="11.00">id</text>
<polygon fill="none" stroke="black" points="488.5,-233 488.5,-255 619.5,-255 619.5,-233 488.5,-233"/>
<text text-anchor="start" x="491.5" y="-241.2" font-family="Helvetica,sans-Serif" font-size="11.00">int8[19]</text>
<polygon fill="#ffffff" stroke="none" points="368.5,-211 368.5,-233 488.5,-233 488.5,-211 368.5,-211"/>
<polygon fill="none" stroke="black" points="368.5,-211 368.5,-233 488.5,-233 488.5,-211 368.5,-211"/>
<image xlink:href="../../images/foreignKeys.png" width="11px" height="12px" preserveAspectRatio="xMinYMin meet" x="373.5" y="-228"/>
<text text-anchor="start" x="388.5" y="-219.2" font-family="Helvetica,sans-Serif" font-size="11.00">planting_zone_id</text>
<polygon fill="none" stroke="black" points="488.5,-211 488.5,-233 619.5,-233 619.5,-211 488.5,-211"/>
<text text-anchor="start" x="491.5" y="-219.2" font-family="Helvetica,sans-Serif" font-size="11.00">int8[19]</text>
<polygon fill="#ffffff" stroke="none" points="368.5,-189 368.5,-211 488.5,-211 488.5,-189 368.5,-189"/>
<polygon fill="none" stroke="black" points="368.5,-189 368.5,-211 488.5,-211 488.5,-189 368.5,-189"/>
<text text-anchor="start" x="388.5" y="-197.2" font-family="Helvetica,sans-Serif" font-size="11.00">name</text>
<polygon fill="none" stroke="black" points="488.5,-189 488.5,-211 619.5,-211 619.5,-189 488.5,-189"/>
<text text-anchor="start" x="491.5" y="-197.2" font-family="Helvetica,sans-Serif" font-size="11.00">text[2147483647]</text>
<polygon fill="none" stroke="black" points="368.5,-167 368.5,-189 488.5,-189 488.5,-167 368.5,-167"/>
<text text-anchor="start" x="388.5" y="-175.2" font-family="Helvetica,sans-Serif" font-size="11.00">full_name</text>
<polygon fill="none" stroke="black" points="488.5,-167 488.5,-189 619.5,-189 619.5,-167 488.5,-167"/>
<text text-anchor="start" x="491.5" y="-175.2" font-family="Helvetica,sans-Serif" font-size="11.00">text[2147483647]</text>
<polygon fill="none" stroke="black" points="368.5,-145 368.5,-167 488.5,-167 488.5,-145 368.5,-145"/>
<text text-anchor="start" x="388.5" y="-153.2" font-family="Helvetica,sans-Serif" font-size="11.00">boundary</text>
<polygon fill="none" stroke="black" points="488.5,-145 488.5,-167 619.5,-167 619.5,-145 488.5,-145"/>
<text text-anchor="start" x="491.5" y="-153.2" font-family="Helvetica,sans-Serif" font-size="11.00">geometry[2147483647]</text>
<polygon fill="none" stroke="black" points="368.5,-123 368.5,-145 488.5,-145 488.5,-123 368.5,-123"/>
<text text-anchor="start" x="388.5" y="-131.2" font-family="Helvetica,sans-Serif" font-size="11.00">created_by</text>
<polygon fill="none" stroke="black" points="488.5,-123 488.5,-145 619.5,-145 619.5,-123 488.5,-123"/>
<text text-anchor="start" x="491.5" y="-131.2" font-family="Helvetica,sans-Serif" font-size="11.00">int8[19]</text>
<polygon fill="none" stroke="black" points="368.5,-101 368.5,-123 488.5,-123 488.5,-101 368.5,-101"/>
<text text-anchor="start" x="388.5" y="-109.2" font-family="Helvetica,sans-Serif" font-size="11.00">created_time</text>
<polygon fill="none" stroke="black" points="488.5,-101 488.5,-123 619.5,-123 619.5,-101 488.5,-101"/>
<text text-anchor="start" x="491.5" y="-109.2" font-family="Helvetica,sans-Serif" font-size="11.00">timestamptz[35,6]</text>
<polygon fill="none" stroke="black" points="368.5,-79 368.5,-101 488.5,-101 488.5,-79 368.5,-79"/>
<text text-anchor="start" x="388.5" y="-87.2" font-family="Helvetica,sans-Serif" font-size="11.00">modified_by</text>
<polygon fill="none" stroke="black" points="488.5,-79 488.5,-101 619.5,-101 619.5,-79 488.5,-79"/>
<text text-anchor="start" x="491.5" y="-87.2" font-family="Helvetica,sans-Serif" font-size="11.00">int8[19]</text>
<polygon fill="none" stroke="black" points="368.5,-57 368.5,-79 488.5,-79 488.5,-57 368.5,-57"/>
<text text-anchor="start" x="388.5" y="-65.2" font-family="Helvetica,sans-Serif" font-size="11.00">modified_time</text>
<polygon fill="none" stroke="black" points="488.5,-57 488.5,-79 619.5,-79 619.5,-57 488.5,-57"/>
<text text-anchor="start" x="491.5" y="-65.2" font-family="Helvetica,sans-Serif" font-size="11.00">timestamptz[35,6]</text>
<polygon fill="#ffffff" stroke="none" points="368.5,-39 368.5,-57 418.5,-57 418.5,-39 368.5,-39"/>
<polygon fill="none" stroke="black" points="368.5,-39 368.5,-57 418.5,-57 418.5,-39 368.5,-39"/>
<text text-anchor="start" x="371.5" y="-45.2" font-family="Helvetica,sans-Serif" font-size="11.00">&lt; 1</text>
<polygon fill="#ffffff" stroke="none" points="418.5,-39 418.5,-57 488.5,-57 488.5,-39 418.5,-39"/>
<polygon fill="none" stroke="black" points="418.5,-39 418.5,-57 488.5,-57 488.5,-39 418.5,-39"/>
<text text-anchor="start" x="449.5" y="-45.2" font-family="Helvetica,sans-Serif" font-size="11.00">0 rows</text>
<polygon fill="#ffffff" stroke="none" points="488.5,-39 488.5,-57 619.5,-57 619.5,-39 488.5,-39"/>
<polygon fill="none" stroke="black" points="488.5,-39 488.5,-57 619.5,-57 619.5,-39 488.5,-39"/>
<text text-anchor="start" x="599.5" y="-45.2" font-family="Helvetica,sans-Serif" font-size="11.00">0 &gt;</text>
<polygon fill="none" stroke="black" stroke-width="2" points="367,-38 367,-278 620,-278 620,-38 367,-38"/>
</a>
</g>
</g>
<!-- plots&#45;&gt;planting_zones -->
<g id="edge2" class="edge"><title>plots:planting_zone_id:w&#45;&gt;planting_zones:id:e</title>
<path fill="none" stroke="black" d="M352.991,-222C341.677,-222 334.493,-222 318.5,-222"/>
<polygon fill="black" stroke="black" points="359.5,-222 367.5,-225.6 363.5,-222 367.5,-222 367.5,-222 367.5,-222 363.5,-222 367.5,-218.4 359.5,-222 359.5,-222"/>
<ellipse fill="none" stroke="black" cx="356.3" cy="-222" rx="3.2" ry="3.2"/>
</g>
</g>
</svg>
