<?xml version="1.0" encoding="UTF-8" standalone="no"?>
<!DOCTYPE svg PUBLIC "-//W3C//DTD SVG 1.1//EN"
 "http://www.w3.org/Graphics/SVG/1.1/DTD/svg11.dtd">
<!-- Generated by graphviz version 2.47.1 (20210515.0534)
 -->
<!-- Title: twoDegreesRelationshipsDiagram Pages: 1 -->
<svg width="1130pt" height="661pt"
 viewBox="0.00 0.00 1130.00 661.31" xmlns="http://www.w3.org/2000/svg" xmlns:xlink="http://www.w3.org/1999/xlink">
<g id="graph0" class="graph" transform="scale(1 1) rotate(0) translate(4 657.31)">
<title>twoDegreesRelationshipsDiagram</title>
<polygon fill="#ffffff" stroke="transparent" points="-4,4 -4,-657.31 1126,-657.31 1126,4 -4,4"/>
<text text-anchor="middle" x="73.5" y="-7.2" font-family="Helvetica,sans-Serif" font-size="11.00">Generated by SchemaSpy</text>
<!-- monitoring_plot_histories -->
<g id="node1" class="node">
<title>monitoring_plot_histories</title>
<g id="a_node1"><a xlink:href="../../tables/monitoring_plot_histories.html" xlink:title="monitoring_plot_histories" target="_top">
<polygon fill="#ffffff" stroke="transparent" points="884.5,-337 884.5,-395 1081.5,-395 1081.5,-337 884.5,-337"/>
<polygon fill="#f5f5f5" stroke="transparent" points="885,-373 885,-395 1082,-395 1082,-373 885,-373"/>
<polygon fill="none" stroke="black" points="885,-373 885,-395 1082,-395 1082,-373 885,-373"/>
<text text-anchor="start" x="890" y="-382.2" font-family="Helvetica,sans-Serif" font-weight="bold" font-size="11.00">monitoring_plot_histories</text>
<text text-anchor="start" x="1043" y="-381.2" font-family="Helvetica,sans-Serif" font-size="11.00">[table]</text>
<polygon fill="none" stroke="black" points="885,-355 885,-373 1082,-373 1082,-355 885,-355"/>
<text text-anchor="start" x="888" y="-361.2" font-family="Helvetica,sans-Serif" font-size="11.00">...</text>
<polygon fill="#ffffff" stroke="transparent" points="885,-337 885,-355 977,-355 977,-337 885,-337"/>
<polygon fill="none" stroke="black" points="885,-337 885,-355 977,-355 977,-337 885,-337"/>
<text text-anchor="start" x="888" y="-343.2" font-family="Helvetica,sans-Serif" font-size="11.00">&lt; 5</text>
<polygon fill="#ffffff" stroke="transparent" points="977,-337 977,-355 1025,-355 1025,-337 977,-337"/>
<polygon fill="none" stroke="black" points="977,-337 977,-355 1025,-355 1025,-337 977,-337"/>
<text text-anchor="start" x="1015" y="-343.2" font-family="Helvetica,sans-Serif" font-size="11.00"> &#160;</text>
<polygon fill="#ffffff" stroke="transparent" points="1025,-337 1025,-355 1082,-355 1082,-337 1025,-337"/>
<polygon fill="none" stroke="black" points="1025,-337 1025,-355 1082,-355 1082,-337 1025,-337"/>
<text text-anchor="start" x="1063" y="-343.2" font-family="Helvetica,sans-Serif" font-size="11.00">3 &gt;</text>
</a>
</g>
</g>
<!-- monitoring_plots -->
<g id="node2" class="node">
<title>monitoring_plots</title>
<g id="a_node2"><a xlink:href="../../tables/monitoring_plots.html" xlink:title="monitoring_plots" target="_top">
<polygon fill="#ffffff" stroke="transparent" points="595.5,-543 595.5,-601 740.5,-601 740.5,-543 595.5,-543"/>
<polygon fill="#f5f5f5" stroke="transparent" points="596,-579 596,-601 741,-601 741,-579 596,-579"/>
<polygon fill="none" stroke="black" points="596,-579 596,-601 741,-601 741,-579 596,-579"/>
<text text-anchor="start" x="601" y="-588.2" font-family="Helvetica,sans-Serif" font-weight="bold" font-size="11.00">monitoring_plots</text>
<text text-anchor="start" x="702" y="-587.2" font-family="Helvetica,sans-Serif" font-size="11.00">[table]</text>
<polygon fill="none" stroke="black" points="596,-561 596,-579 741,-579 741,-561 596,-561"/>
<text text-anchor="start" x="599" y="-567.2" font-family="Helvetica,sans-Serif" font-size="11.00">...</text>
<polygon fill="#ffffff" stroke="transparent" points="596,-543 596,-561 659,-561 659,-543 596,-543"/>
<polygon fill="none" stroke="black" points="596,-543 596,-561 659,-561 659,-543 596,-543"/>
<text text-anchor="start" x="599" y="-549.2" font-family="Helvetica,sans-Serif" font-size="11.00">&lt; 2</text>
<polygon fill="#ffffff" stroke="transparent" points="659,-543 659,-561 692,-561 692,-543 659,-543"/>
<polygon fill="none" stroke="black" points="659,-543 659,-561 692,-561 692,-543 659,-543"/>
<text text-anchor="start" x="682" y="-549.2" font-family="Helvetica,sans-Serif" font-size="11.00"> &#160;</text>
<polygon fill="#ffffff" stroke="transparent" points="692,-543 692,-561 741,-561 741,-543 692,-543"/>
<polygon fill="none" stroke="black" points="692,-543 692,-561 741,-561 741,-543 692,-543"/>
<text text-anchor="start" x="716" y="-549.2" font-family="Helvetica,sans-Serif" font-size="11.00">17 &gt;</text>
</a>
</g>
</g>
<!-- monitoring_plot_histories&#45;&gt;monitoring_plots -->
<g id="edge1" class="edge">
<title>monitoring_plot_histories:w&#45;&gt;monitoring_plots:e</title>
<path fill="none" stroke="black" d="M869.55,-365.39C810.18,-378.23 862.68,-476.75 811,-533 787.46,-558.62 776.8,-570 742,-570"/>
<polygon fill="black" stroke="black" points="876.04,-364.77 884.35,-367.58 880.02,-364.38 884,-364 884,-364 884,-364 880.02,-364.38 883.65,-360.42 876.04,-364.77 876.04,-364.77"/>
<ellipse fill="none" stroke="black" cx="872.85" cy="-365.07" rx="3.2" ry="3.2"/>
</g>
<!-- planting_sites -->
<g id="node3" class="node">
<title>planting_sites</title>
<g id="a_node3"><a xlink:href="../../tables/planting_sites.html" xlink:title="planting_sites" target="_top">
<polygon fill="#ffffff" stroke="transparent" points="8,-258 8,-316 134,-316 134,-258 8,-258"/>
<polygon fill="#f5f5f5" stroke="transparent" points="8,-294 8,-316 134,-316 134,-294 8,-294"/>
<polygon fill="none" stroke="black" points="8,-294 8,-316 134,-316 134,-294 8,-294"/>
<text text-anchor="start" x="13" y="-303.2" font-family="Helvetica,sans-Serif" font-weight="bold" font-size="11.00">planting_sites</text>
<text text-anchor="start" x="95" y="-302.2" font-family="Helvetica,sans-Serif" font-size="11.00">[table]</text>
<polygon fill="none" stroke="black" points="8,-276 8,-294 134,-294 134,-276 8,-276"/>
<text text-anchor="start" x="11" y="-282.2" font-family="Helvetica,sans-Serif" font-size="11.00">...</text>
<polygon fill="#ffffff" stroke="transparent" points="8,-258 8,-276 57,-276 57,-258 8,-258"/>
<polygon fill="none" stroke="black" points="8,-258 8,-276 57,-276 57,-258 8,-258"/>
<text text-anchor="start" x="11" y="-264.2" font-family="Helvetica,sans-Serif" font-size="11.00"> &#160;</text>
<polygon fill="#ffffff" stroke="transparent" points="57,-258 57,-276 88,-276 88,-258 57,-258"/>
<polygon fill="none" stroke="black" points="57,-258 57,-276 88,-276 88,-258 57,-258"/>
<text text-anchor="start" x="78" y="-264.2" font-family="Helvetica,sans-Serif" font-size="11.00"> &#160;</text>
<polygon fill="#ffffff" stroke="transparent" points="88,-258 88,-276 134,-276 134,-258 88,-258"/>
<polygon fill="none" stroke="black" points="88,-258 88,-276 134,-276 134,-258 88,-258"/>
<text text-anchor="start" x="109" y="-264.2" font-family="Helvetica,sans-Serif" font-size="11.00">14 &gt;</text>
</a>
</g>
</g>
<!-- monitoring_plot_histories&#45;&gt;planting_sites -->
<g id="edge2" class="edge">
<title>monitoring_plot_histories:w&#45;&gt;planting_sites:e</title>
<path fill="none" stroke="black" d="M869.43,-365.15C781.16,-380.56 898.69,-546.4 811,-612 709.22,-688.14 648.95,-640.19 525,-612 340.1,-569.95 282.13,-524.46 175,-368 151.87,-334.21 175.95,-285 135,-285"/>
<polygon fill="black" stroke="black" points="876.02,-364.63 884.28,-367.59 880.01,-364.32 884,-364 884,-364 884,-364 880.01,-364.32 883.72,-360.41 876.02,-364.63 876.02,-364.63"/>
<ellipse fill="none" stroke="black" cx="872.83" cy="-364.88" rx="3.2" ry="3.2"/>
</g>
<!-- substratum_histories -->
<g id="node4" class="node">
<title>substratum_histories</title>
<g id="a_node4"><a xlink:href="../../tables/substratum_histories.html" xlink:title="substratum_histories" target="_top">
<polygon fill="#ffffff" stroke="transparent" points="582.5,-143 582.5,-201 753.5,-201 753.5,-143 582.5,-143"/>
<polygon fill="#f5f5f5" stroke="transparent" points="583,-179 583,-201 754,-201 754,-179 583,-179"/>
<polygon fill="none" stroke="black" points="583,-179 583,-201 754,-201 754,-179 583,-179"/>
<text text-anchor="start" x="588" y="-188.2" font-family="Helvetica,sans-Serif" font-weight="bold" font-size="11.00">substratum_histories</text>
<text text-anchor="start" x="715" y="-187.2" font-family="Helvetica,sans-Serif" font-size="11.00">[table]</text>
<polygon fill="none" stroke="black" points="583,-161 583,-179 754,-179 754,-161 583,-161"/>
<text text-anchor="start" x="586" y="-167.2" font-family="Helvetica,sans-Serif" font-size="11.00">...</text>
<polygon fill="#ffffff" stroke="transparent" points="583,-143 583,-161 662,-161 662,-143 583,-143"/>
<polygon fill="none" stroke="black" points="583,-143 583,-161 662,-161 662,-143 583,-143"/>
<text text-anchor="start" x="586" y="-149.2" font-family="Helvetica,sans-Serif" font-size="11.00">&lt; 2</text>
<polygon fill="#ffffff" stroke="transparent" points="662,-143 662,-161 703,-161 703,-143 662,-143"/>
<polygon fill="none" stroke="black" points="662,-143 662,-161 703,-161 703,-143 662,-143"/>
<text text-anchor="start" x="693" y="-149.2" font-family="Helvetica,sans-Serif" font-size="11.00"> &#160;</text>
<polygon fill="#ffffff" stroke="transparent" points="703,-143 703,-161 754,-161 754,-143 703,-143"/>
<polygon fill="none" stroke="black" points="703,-143 703,-161 754,-161 754,-143 703,-143"/>
<text text-anchor="start" x="735" y="-149.2" font-family="Helvetica,sans-Serif" font-size="11.00">4 &gt;</text>
</a>
</g>
</g>
<!-- monitoring_plot_histories&#45;&gt;substratum_histories -->
<g id="edge3" class="edge">
<title>monitoring_plot_histories:w&#45;&gt;substratum_histories:e</title>
<path fill="none" stroke="black" d="M869.87,-359.26C834.03,-334.52 818.13,-220.86 811,-211 792.93,-186 785.85,-170 755,-170"/>
<polygon fill="black" stroke="black" points="876.41,-361.46 882.86,-367.41 880.21,-362.73 884,-364 884,-364 884,-364 880.21,-362.73 885.14,-360.59 876.41,-361.46 876.41,-361.46"/>
<ellipse fill="none" stroke="black" cx="873.38" cy="-360.44" rx="3.2" ry="3.2"/>
</g>
<!-- substrata -->
<g id="node5" class="node">
<title>substrata</title>
<g id="a_node5"><a xlink:href="../../tables/substrata.html" xlink:title="substrata" target="_top">
<polygon fill="#ffffff" stroke="transparent" points="312,-169 312,-337 484,-337 484,-169 312,-169"/>
<polygon fill="#f5f5f5" stroke="transparent" points="312,-315 312,-337 484,-337 484,-315 312,-315"/>
<polygon fill="none" stroke="black" points="312,-315 312,-337 484,-337 484,-315 312,-315"/>
<text text-anchor="start" x="317" y="-324.2" font-family="Helvetica,sans-Serif" font-weight="bold" font-size="11.00">substrata</text>
<text text-anchor="start" x="445" y="-323.2" font-family="Helvetica,sans-Serif" font-size="11.00">[table]</text>
<polygon fill="none" stroke="black" points="312,-293 312,-315 484,-315 484,-293 312,-293"/>
<image xlink:href="../../images/primaryKeys.png" width="11px" height="12px" preserveAspectRatio="xMinYMin meet" x="317" y="-310"/>
<text text-anchor="start" x="332" y="-301.2" font-family="Helvetica,sans-Serif" font-size="11.00">id</text>
<polygon fill="#ffffff" stroke="transparent" points="312,-271 312,-293 484,-293 484,-271 312,-271"/>
<polygon fill="none" stroke="black" points="312,-271 312,-293 484,-293 484,-271 312,-271"/>
<image xlink:href="../../images/foreignKeys.png" width="11px" height="12px" preserveAspectRatio="xMinYMin meet" x="317" y="-288"/>
<text text-anchor="start" x="332" y="-279.2" font-family="Helvetica,sans-Serif" font-size="11.00">stratum_id</text>
<polygon fill="#ffffff" stroke="transparent" points="312,-249 312,-271 484,-271 484,-249 312,-249"/>
<polygon fill="none" stroke="black" points="312,-249 312,-271 484,-271 484,-249 312,-249"/>
<text text-anchor="start" x="332" y="-257.2" font-family="Helvetica,sans-Serif" font-size="11.00">name</text>
<polygon fill="#ffffff" stroke="transparent" points="312,-227 312,-249 484,-249 484,-227 312,-227"/>
<polygon fill="none" stroke="black" points="312,-227 312,-249 484,-249 484,-227 312,-227"/>
<image xlink:href="../../images/foreignKeys.png" width="11px" height="12px" preserveAspectRatio="xMinYMin meet" x="317" y="-244"/>
<text text-anchor="start" x="332" y="-235.2" font-family="Helvetica,sans-Serif" font-size="11.00">planting_site_id</text>
<polygon fill="#ffffff" stroke="transparent" points="312,-205 312,-227 484,-227 484,-205 312,-205"/>
<polygon fill="none" stroke="black" points="312,-205 312,-227 484,-227 484,-205 312,-205"/>
<text text-anchor="start" x="332" y="-213.2" font-family="Helvetica,sans-Serif" font-size="11.00">stable_id</text>
<polygon fill="none" stroke="black" points="312,-187 312,-205 484,-205 484,-187 312,-187"/>
<text text-anchor="start" x="315" y="-193.2" font-family="Helvetica,sans-Serif" font-size="11.00">...</text>
<polygon fill="#ffffff" stroke="transparent" points="312,-169 312,-187 388,-187 388,-169 312,-169"/>
<polygon fill="none" stroke="black" points="312,-169 312,-187 388,-187 388,-169 312,-169"/>
<text text-anchor="start" x="315" y="-175.2" font-family="Helvetica,sans-Serif" font-size="11.00">&lt; 3</text>
<polygon fill="#ffffff" stroke="transparent" points="388,-169 388,-187 428,-187 428,-169 388,-169"/>
<polygon fill="none" stroke="black" points="388,-169 388,-187 428,-187 428,-169 388,-169"/>
<text text-anchor="start" x="418" y="-175.2" font-family="Helvetica,sans-Serif" font-size="11.00"> &#160;</text>
<polygon fill="#ffffff" stroke="transparent" points="428,-169 428,-187 484,-187 484,-169 428,-169"/>
<polygon fill="none" stroke="black" points="428,-169 428,-187 484,-187 484,-169 428,-169"/>
<text text-anchor="start" x="459" y="-175.2" font-family="Helvetica,sans-Serif" font-size="11.00">10 &gt;</text>
</a>
</g>
</g>
<!-- monitoring_plot_histories&#45;&gt;substrata -->
<g id="edge4" class="edge">
<title>monitoring_plot_histories:w&#45;&gt;substrata:e</title>
<path fill="none" stroke="black" d="M869.44,-363.05C847.62,-359.98 838.54,-350.2 811,-345 685.21,-321.27 651.65,-329.6 525,-311 507.14,-308.38 503.05,-304 485,-304"/>
<polygon fill="black" stroke="black" points="876.02,-363.48 883.77,-367.59 880.01,-363.74 884,-364 884,-364 884,-364 880.01,-363.74 884.23,-360.41 876.02,-363.48 876.02,-363.48"/>
<ellipse fill="none" stroke="black" cx="872.82" cy="-363.27" rx="3.2" ry="3.2"/>
</g>
<!-- monitoring_plots&#45;&gt;planting_sites -->
<g id="edge5" class="edge">
<title>monitoring_plots:w&#45;&gt;planting_sites:e</title>
<path fill="none" stroke="black" d="M581.08,-574.77C558.02,-597.05 614.27,-675.64 175,-327 154.81,-310.97 160.78,-285 135,-285"/>
<polygon fill="black" stroke="black" points="587.43,-572.6 596.17,-573.41 591.22,-571.3 595,-570 595,-570 595,-570 591.22,-571.3 593.83,-566.59 587.43,-572.6 587.43,-572.6"/>
<ellipse fill="none" stroke="black" cx="584.41" cy="-573.63" rx="3.2" ry="3.2"/>
</g>
<!-- monitoring_plots&#45;&gt;substrata -->
<g id="edge6" class="edge">
<title>monitoring_plots:w&#45;&gt;substrata:e</title>
<path fill="none" stroke="black" d="M580.29,-569.37C555.36,-566.94 542.54,-557.12 525,-533 494.62,-491.22 536.66,-304 485,-304"/>
<polygon fill="black" stroke="black" points="587.01,-569.66 594.84,-573.6 591,-569.83 595,-570 595,-570 595,-570 591,-569.83 595.16,-566.4 587.01,-569.66 587.01,-569.66"/>
<ellipse fill="none" stroke="black" cx="583.81" cy="-569.52" rx="3.2" ry="3.2"/>
</g>
<!-- substratum_histories&#45;&gt;substrata -->
<g id="edge20" class="edge">
<title>substratum_histories:w&#45;&gt;substrata:e</title>
<path fill="none" stroke="black" d="M567.65,-171.5C548.19,-176.1 541.11,-190.95 525,-211 496.82,-246.08 529.99,-304 485,-304"/>
<polygon fill="black" stroke="black" points="574.04,-170.83 582.37,-173.58 578.02,-170.41 582,-170 582,-170 582,-170 578.02,-170.41 581.63,-166.42 574.04,-170.83 574.04,-170.83"/>
<ellipse fill="none" stroke="black" cx="570.86" cy="-171.16" rx="3.2" ry="3.2"/>
</g>
<!-- substrata&#45;&gt;planting_sites -->
<g id="edge17" class="edge">
<title>substrata:w&#45;&gt;planting_sites:e</title>
<path fill="none" stroke="black" d="M296.55,-237.71C246.82,-235.71 225.83,-224.73 175,-247 152.54,-256.84 159.52,-285 135,-285"/>
<polygon fill="black" stroke="black" points="303,-237.84 310.93,-241.6 307,-237.92 311,-238 311,-238 311,-238 307,-237.92 311.07,-234.4 303,-237.84 303,-237.84"/>
<ellipse fill="none" stroke="black" cx="299.8" cy="-237.77" rx="3.2" ry="3.2"/>
</g>
<!-- strata -->
<g id="node11" class="node">
<title>strata</title>
<g id="a_node11"><a xlink:href="../../tables/strata.html" xlink:title="strata" target="_top">
<polygon fill="#ffffff" stroke="transparent" points="183,-258 183,-316 263,-316 263,-258 183,-258"/>
<polygon fill="#f5f5f5" stroke="transparent" points="183,-294 183,-316 263,-316 263,-294 183,-294"/>
<polygon fill="none" stroke="black" points="183,-294 183,-316 263,-316 263,-294 183,-294"/>
<text text-anchor="start" x="187" y="-303.2" font-family="Helvetica,sans-Serif" font-weight="bold" font-size="11.00">strata</text>
<text text-anchor="start" x="224" y="-302.2" font-family="Helvetica,sans-Serif" font-size="11.00">[table]</text>
<polygon fill="none" stroke="black" points="183,-276 183,-294 263,-294 263,-276 183,-276"/>
<text text-anchor="start" x="186" y="-282.2" font-family="Helvetica,sans-Serif" font-size="11.00">...</text>
<polygon fill="#ffffff" stroke="transparent" points="183,-258 183,-276 216,-276 216,-258 183,-258"/>
<polygon fill="none" stroke="black" points="183,-258 183,-276 216,-276 216,-258 183,-258"/>
<text text-anchor="start" x="186" y="-264.2" font-family="Helvetica,sans-Serif" font-size="11.00">&lt; 1</text>
<polygon fill="#ffffff" stroke="transparent" points="216,-258 216,-276 235,-276 235,-258 216,-258"/>
<polygon fill="none" stroke="black" points="216,-258 216,-276 235,-276 235,-258 216,-258"/>
<text text-anchor="start" x="225" y="-264.2" font-family="Helvetica,sans-Serif" font-size="11.00"> &#160;</text>
<polygon fill="#ffffff" stroke="transparent" points="235,-258 235,-276 263,-276 263,-258 235,-258"/>
<polygon fill="none" stroke="black" points="235,-258 235,-276 263,-276 263,-258 235,-258"/>
<text text-anchor="start" x="244" y="-264.2" font-family="Helvetica,sans-Serif" font-size="11.00">8 &gt;</text>
</a>
</g>
</g>
<!-- substrata&#45;&gt;strata -->
<g id="edge18" class="edge">
<title>substrata:w&#45;&gt;strata:e</title>
<path fill="none" stroke="black" d="M297.45,-243.03C284.65,-255.15 287.54,-285 264,-285"/>
<polygon fill="black" stroke="black" points="303.5,-240.78 312.25,-241.37 307.25,-239.39 311,-238 311,-238 311,-238 307.25,-239.39 309.75,-234.63 303.5,-240.78 303.5,-240.78"/>
<ellipse fill="none" stroke="black" cx="300.5" cy="-241.9" rx="3.2" ry="3.2"/>
</g>
<!-- substrata&#45;&gt;strata -->
<g id="edge19" class="edge">
<title>substrata:w&#45;&gt;strata:e</title>
<path fill="none" stroke="black" d="M296.38,-282.58C285.93,-283.45 279.04,-285 264,-285"/>
<polygon fill="black" stroke="black" points="303.01,-282.32 311.14,-285.6 307,-282.16 311,-282 311,-282 311,-282 307,-282.16 310.86,-278.4 303.01,-282.32 303.01,-282.32"/>
<ellipse fill="none" stroke="black" cx="299.81" cy="-282.44" rx="3.2" ry="3.2"/>
</g>
<!-- observation_requested_substrata -->
<g id="node6" class="node">
<title>observation_requested_substrata</title>
<g id="a_node6"><a xlink:href="../../tables/observation_requested_substrata.html" xlink:title="observation_requested_substrata" target="_top">
<polygon fill="#ffffff" stroke="transparent" points="546,-222 546,-280 790,-280 790,-222 546,-222"/>
<polygon fill="#f5f5f5" stroke="transparent" points="546,-258 546,-280 790,-280 790,-258 546,-258"/>
<polygon fill="none" stroke="black" points="546,-258 546,-280 790,-280 790,-258 546,-258"/>
<text text-anchor="start" x="551" y="-267.2" font-family="Helvetica,sans-Serif" font-weight="bold" font-size="11.00">observation_requested_substrata</text>
<text text-anchor="start" x="751" y="-266.2" font-family="Helvetica,sans-Serif" font-size="11.00">[table]</text>
<polygon fill="none" stroke="black" points="546,-240 546,-258 790,-258 790,-240 546,-240"/>
<text text-anchor="start" x="549" y="-246.2" font-family="Helvetica,sans-Serif" font-size="11.00">...</text>
<polygon fill="#ffffff" stroke="transparent" points="546,-222 546,-240 666,-240 666,-222 546,-222"/>
<polygon fill="none" stroke="black" points="546,-222 546,-240 666,-240 666,-222 546,-222"/>
<text text-anchor="start" x="549" y="-228.2" font-family="Helvetica,sans-Serif" font-size="11.00">&lt; 2</text>
<polygon fill="#ffffff" stroke="transparent" points="666,-222 666,-240 728,-240 728,-222 666,-222"/>
<polygon fill="none" stroke="black" points="666,-222 666,-240 728,-240 728,-222 666,-222"/>
<text text-anchor="start" x="718" y="-228.2" font-family="Helvetica,sans-Serif" font-size="11.00"> &#160;</text>
<polygon fill="#ffffff" stroke="transparent" points="728,-222 728,-240 790,-240 790,-222 728,-222"/>
<polygon fill="none" stroke="black" points="728,-222 728,-240 790,-240 790,-222 728,-222"/>
<text text-anchor="start" x="780" y="-228.2" font-family="Helvetica,sans-Serif" font-size="11.00"> &#160;</text>
</a>
</g>
</g>
<!-- observation_requested_substrata&#45;&gt;substrata -->
<g id="edge7" class="edge">
<title>observation_requested_substrata:w&#45;&gt;substrata:e</title>
<path fill="none" stroke="black" d="M530.95,-252.78C511.54,-265.21 515.38,-304 485,-304"/>
<polygon fill="black" stroke="black" points="537.27,-251.08 545.94,-252.48 541.14,-250.04 545,-249 545,-249 545,-249 541.14,-250.04 544.06,-245.52 537.27,-251.08 537.27,-251.08"/>
<ellipse fill="none" stroke="black" cx="534.18" cy="-251.91" rx="3.2" ry="3.2"/>
</g>
<!-- observation_substratum_results -->
<g id="node7" class="node">
<title>observation_substratum_results</title>
<g id="a_node7"><a xlink:href="../../tables/observation_substratum_results.html" xlink:title="observation_substratum_results" target="_top">
<polygon fill="#ffffff" stroke="transparent" points="864.5,-118 864.5,-176 1101.5,-176 1101.5,-118 864.5,-118"/>
<polygon fill="#f5f5f5" stroke="transparent" points="865,-154 865,-176 1102,-176 1102,-154 865,-154"/>
<polygon fill="none" stroke="black" points="865,-154 865,-176 1102,-176 1102,-154 865,-154"/>
<text text-anchor="start" x="870" y="-163.2" font-family="Helvetica,sans-Serif" font-weight="bold" font-size="11.00">observation_substratum_results</text>
<text text-anchor="start" x="1063" y="-162.2" font-family="Helvetica,sans-Serif" font-size="11.00">[table]</text>
<polygon fill="none" stroke="black" points="865,-136 865,-154 1102,-154 1102,-136 865,-136"/>
<text text-anchor="start" x="868" y="-142.2" font-family="Helvetica,sans-Serif" font-size="11.00">...</text>
<polygon fill="#ffffff" stroke="transparent" points="865,-118 865,-136 981,-136 981,-118 865,-118"/>
<polygon fill="none" stroke="black" points="865,-118 865,-136 981,-136 981,-118 865,-118"/>
<text text-anchor="start" x="868" y="-124.2" font-family="Helvetica,sans-Serif" font-size="11.00">&lt; 3</text>
<polygon fill="#ffffff" stroke="transparent" points="981,-118 981,-136 1041,-136 1041,-118 981,-118"/>
<polygon fill="none" stroke="black" points="981,-118 981,-136 1041,-136 1041,-118 981,-118"/>
<text text-anchor="start" x="1031" y="-124.2" font-family="Helvetica,sans-Serif" font-size="11.00"> &#160;</text>
<polygon fill="#ffffff" stroke="transparent" points="1041,-118 1041,-136 1102,-136 1102,-118 1041,-118"/>
<polygon fill="none" stroke="black" points="1041,-118 1041,-136 1102,-136 1102,-118 1041,-118"/>
<text text-anchor="start" x="1092" y="-124.2" font-family="Helvetica,sans-Serif" font-size="11.00"> &#160;</text>
</a>
</g>
</g>
<!-- observation_substratum_results&#45;&gt;substratum_histories -->
<g id="edge8" class="edge">
<title>observation_substratum_results:w&#45;&gt;substratum_histories:e</title>
<path fill="none" stroke="black" d="M849.52,-145.78C811.83,-150 799.46,-170 755,-170"/>
<polygon fill="black" stroke="black" points="856.01,-145.43 864.19,-148.59 860.01,-145.21 864,-145 864,-145 864,-145 860.01,-145.21 863.81,-141.41 856.01,-145.43 856.01,-145.43"/>
<ellipse fill="none" stroke="black" cx="852.82" cy="-145.6" rx="3.2" ry="3.2"/>
</g>
<!-- observation_substratum_results&#45;&gt;substrata -->
<g id="edge9" class="edge">
<title>observation_substratum_results:w&#45;&gt;substrata:e</title>
<path fill="none" stroke="black" d="M849.67,-143.56C836.49,-140.66 829.44,-134.23 811,-132 747.9,-124.37 574.77,-92.48 525,-132 463.54,-180.81 563.48,-304 485,-304"/>
<polygon fill="black" stroke="black" points="856.04,-144.2 863.64,-148.58 860.02,-144.6 864,-145 864,-145 864,-145 860.02,-144.6 864.36,-141.42 856.04,-144.2 856.04,-144.2"/>
<ellipse fill="none" stroke="black" cx="852.86" cy="-143.88" rx="3.2" ry="3.2"/>
</g>
<!-- observed_substratum_species_totals -->
<g id="node8" class="node">
<title>observed_substratum_species_totals</title>
<g id="a_node8"><a xlink:href="../../tables/observed_substratum_species_totals.html" xlink:title="observed_substratum_species_totals" target="_top">
<polygon fill="#ffffff" stroke="transparent" points="852,-244 852,-302 1114,-302 1114,-244 852,-244"/>
<polygon fill="#f5f5f5" stroke="transparent" points="852,-280 852,-302 1114,-302 1114,-280 852,-280"/>
<polygon fill="none" stroke="black" points="852,-280 852,-302 1114,-302 1114,-280 852,-280"/>
<text text-anchor="start" x="857" y="-289.2" font-family="Helvetica,sans-Serif" font-weight="bold" font-size="11.00">observed_substratum_species_totals</text>
<text text-anchor="start" x="1075" y="-288.2" font-family="Helvetica,sans-Serif" font-size="11.00">[table]</text>
<polygon fill="none" stroke="black" points="852,-262 852,-280 1114,-280 1114,-262 852,-262"/>
<text text-anchor="start" x="855" y="-268.2" font-family="Helvetica,sans-Serif" font-size="11.00">...</text>
<polygon fill="#ffffff" stroke="transparent" points="852,-244 852,-262 981,-262 981,-244 852,-244"/>
<polygon fill="none" stroke="black" points="852,-244 852,-262 981,-262 981,-244 852,-244"/>
<text text-anchor="start" x="855" y="-250.2" font-family="Helvetica,sans-Serif" font-size="11.00">&lt; 4</text>
<polygon fill="#ffffff" stroke="transparent" points="981,-244 981,-262 1047,-262 1047,-244 981,-244"/>
<polygon fill="none" stroke="black" points="981,-244 981,-262 1047,-262 1047,-244 981,-244"/>
<text text-anchor="start" x="1037" y="-250.2" font-family="Helvetica,sans-Serif" font-size="11.00"> &#160;</text>
<polygon fill="#ffffff" stroke="transparent" points="1047,-244 1047,-262 1114,-262 1114,-244 1047,-244"/>
<polygon fill="none" stroke="black" points="1047,-244 1047,-262 1114,-262 1114,-244 1047,-244"/>
<text text-anchor="start" x="1104" y="-250.2" font-family="Helvetica,sans-Serif" font-size="11.00"> &#160;</text>
</a>
</g>
</g>
<!-- observed_substratum_species_totals&#45;&gt;substratum_histories -->
<g id="edge10" class="edge">
<title>observed_substratum_species_totals:w&#45;&gt;substratum_histories:e</title>
<path fill="none" stroke="black" d="M836.9,-267.16C823.11,-257.13 828.83,-229.63 811,-211 789.67,-188.71 785.85,-170 755,-170"/>
<polygon fill="black" stroke="black" points="843.28,-268.9 850.05,-274.47 847.14,-269.95 851,-271 851,-271 851,-271 847.14,-269.95 851.95,-267.53 843.28,-268.9 843.28,-268.9"/>
<ellipse fill="none" stroke="black" cx="840.19" cy="-268.06" rx="3.2" ry="3.2"/>
</g>
<!-- observed_substratum_species_totals&#45;&gt;substrata -->
<g id="edge11" class="edge">
<title>observed_substratum_species_totals:w&#45;&gt;substrata:e</title>
<path fill="none" stroke="black" d="M836.79,-274.64C828.78,-279.42 824.23,-287.6 811,-291 670.57,-327.12 630,-304 485,-304"/>
<polygon fill="black" stroke="black" points="843.25,-272.99 851.89,-274.49 847.13,-271.99 851,-271 851,-271 851,-271 847.13,-271.99 850.11,-267.51 843.25,-272.99 843.25,-272.99"/>
<ellipse fill="none" stroke="black" cx="840.15" cy="-273.78" rx="3.2" ry="3.2"/>
</g>
<!-- plantings -->
<g id="node9" class="node">
<title>plantings</title>
<g id="a_node9"><a xlink:href="../../tables/plantings.html" xlink:title="plantings" target="_top">
<polygon fill="#ffffff" stroke="transparent" points="618.5,-37 618.5,-95 717.5,-95 717.5,-37 618.5,-37"/>
<polygon fill="#f5f5f5" stroke="transparent" points="619,-73 619,-95 718,-95 718,-73 619,-73"/>
<polygon fill="none" stroke="black" points="619,-73 619,-95 718,-95 718,-73 619,-73"/>
<text text-anchor="start" x="624" y="-82.2" font-family="Helvetica,sans-Serif" font-weight="bold" font-size="11.00">plantings</text>
<text text-anchor="start" x="679" y="-81.2" font-family="Helvetica,sans-Serif" font-size="11.00">[table]</text>
<polygon fill="none" stroke="black" points="619,-55 619,-73 718,-73 718,-55 619,-55"/>
<text text-anchor="start" x="622" y="-61.2" font-family="Helvetica,sans-Serif" font-size="11.00">...</text>
<polygon fill="#ffffff" stroke="transparent" points="619,-37 619,-55 666,-55 666,-37 619,-37"/>
<polygon fill="none" stroke="black" points="619,-37 619,-55 666,-55 666,-37 619,-37"/>
<text text-anchor="start" x="622" y="-43.2" font-family="Helvetica,sans-Serif" font-size="11.00">&lt; 6</text>
<polygon fill="#ffffff" stroke="transparent" points="666,-37 666,-55 692,-55 692,-37 666,-37"/>
<polygon fill="none" stroke="black" points="666,-37 666,-55 692,-55 692,-37 666,-37"/>
<text text-anchor="start" x="682" y="-43.2" font-family="Helvetica,sans-Serif" font-size="11.00"> &#160;</text>
<polygon fill="#ffffff" stroke="transparent" points="692,-37 692,-55 718,-55 718,-37 692,-37"/>
<polygon fill="none" stroke="black" points="692,-37 692,-55 718,-55 718,-37 692,-37"/>
<text text-anchor="start" x="708" y="-43.2" font-family="Helvetica,sans-Serif" font-size="11.00"> &#160;</text>
</a>
</g>
</g>
<!-- plantings&#45;&gt;planting_sites -->
<g id="edge12" class="edge">
<title>plantings:w&#45;&gt;planting_sites:e</title>
<path fill="none" stroke="black" d="M603.43,-64.13C469.76,-66.62 433.62,-103.98 304,-159 243.56,-184.66 224.31,-187.65 175,-231 152.57,-250.72 164.87,-285 135,-285"/>
<polygon fill="black" stroke="black" points="610,-64.07 618.03,-67.6 614,-64.04 618,-64 618,-64 618,-64 614,-64.04 617.97,-60.4 610,-64.07 610,-64.07"/>
<ellipse fill="none" stroke="black" cx="606.8" cy="-64.1" rx="3.2" ry="3.2"/>
</g>
<!-- plantings&#45;&gt;substrata -->
<g id="edge13" class="edge">
<title>plantings:w&#45;&gt;substrata:e</title>
<path fill="none" stroke="black" d="M603.44,-64.41C568.04,-66.62 551.55,-78.13 525,-109 485.85,-154.51 545.03,-238 485,-238"/>
<polygon fill="black" stroke="black" points="610,-64.23 618.1,-67.6 614,-64.11 618,-64 618,-64 618,-64 614,-64.11 617.9,-60.4 610,-64.23 610,-64.23"/>
<ellipse fill="none" stroke="black" cx="606.8" cy="-64.32" rx="3.2" ry="3.2"/>
</g>
<!-- plantings&#45;&gt;substrata -->
<g id="edge14" class="edge">
<title>plantings:w&#45;&gt;substrata:e</title>
<path fill="none" stroke="black" d="M603.38,-64.36C567.68,-66.34 550,-76.87 525,-109 470.67,-178.82 573.47,-304 485,-304"/>
<polygon fill="black" stroke="black" points="610,-64.2 618.09,-67.6 614,-64.1 618,-64 618,-64 618,-64 614,-64.1 617.91,-60.4 610,-64.2 610,-64.2"/>
<ellipse fill="none" stroke="black" cx="606.8" cy="-64.28" rx="3.2" ry="3.2"/>
</g>
<!-- simplified_substrata -->
<g id="node10" class="node">
<title>simplified_substrata</title>
<g id="a_node10"><a xlink:href="../../tables/simplified_substrata.html" xlink:title="simplified_substrata" target="_top">
<polygon fill="#ffffff" stroke="transparent" points="533,-434 533,-522 803,-522 803,-434 533,-434"/>
<polygon fill="#f5f5f5" stroke="transparent" points="535,-498 535,-520 801,-520 801,-498 535,-498"/>
<polygon fill="none" stroke="black" points="535,-498 535,-520 801,-520 801,-498 535,-498"/>
<text text-anchor="start" x="540" y="-507.2" font-family="Helvetica,sans-Serif" font-weight="bold" font-size="11.00">simplified_substrata</text>
<text text-anchor="start" x="762" y="-506.2" font-family="Helvetica,sans-Serif" font-size="11.00">[table]</text>
<polygon fill="none" stroke="black" points="535,-476 535,-498 678,-498 678,-476 535,-476"/>
<image xlink:href="../../images/primaryKeys.png" width="11px" height="12px" preserveAspectRatio="xMinYMin meet" x="540" y="-493"/>
<text text-anchor="start" x="555" y="-484.2" font-family="Helvetica,sans-Serif" font-size="11.00">substratum_id</text>
<polygon fill="none" stroke="black" points="678,-476 678,-498 801,-498 801,-476 678,-476"/>
<text text-anchor="start" x="681" y="-484.2" font-family="Helvetica,sans-Serif" font-size="11.00">int8[19]</text>
<polygon fill="none" stroke="black" points="535,-454 535,-476 678,-476 678,-454 535,-454"/>
<text text-anchor="start" x="555" y="-462.2" font-family="Helvetica,sans-Serif" font-size="11.00">boundary</text>
<polygon fill="none" stroke="black" points="678,-454 678,-476 801,-476 801,-454 678,-454"/>
<text text-anchor="start" x="681" y="-462.2" font-family="Helvetica,sans-Serif" font-size="11.00">geometry[2147483647]</text>
<polygon fill="#ffffff" stroke="transparent" points="535,-436 535,-454 611,-454 611,-436 535,-436"/>
<polygon fill="none" stroke="black" points="535,-436 535,-454 611,-454 611,-436 535,-436"/>
<text text-anchor="start" x="538" y="-442.2" font-family="Helvetica,sans-Serif" font-size="11.00">&lt; 1</text>
<polygon fill="#ffffff" stroke="transparent" points="611,-436 611,-454 678,-454 678,-436 611,-436"/>
<polygon fill="none" stroke="black" points="611,-436 611,-454 678,-454 678,-436 611,-436"/>
<text text-anchor="start" x="668" y="-442.2" font-family="Helvetica,sans-Serif" font-size="11.00"> &#160;</text>
<polygon fill="#ffffff" stroke="transparent" points="678,-436 678,-454 801,-454 801,-436 678,-436"/>
<polygon fill="none" stroke="black" points="678,-436 678,-454 801,-454 801,-436 678,-436"/>
<text text-anchor="start" x="782" y="-442.2" font-family="Helvetica,sans-Serif" font-size="11.00">0 &gt;</text>
<polygon fill="none" stroke="black" stroke-width="2" points="534,-435 534,-521 802,-521 802,-435 534,-435"/>
</a>
</g>
</g>
<!-- simplified_substrata&#45;&gt;substrata -->
<g id="edge15" class="edge">
<title>simplified_substrata:w&#45;&gt;substrata:e</title>
<path fill="none" stroke="black" d="M523.46,-485.83C460.55,-470.25 565.25,-304 485,-304"/>
<polygon fill="black" stroke="black" points="533.65,-482.94 532.76,-490.89 531.17,-490.71 532.06,-482.76 533.65,-482.94"/>
<polyline fill="none" stroke="black" points="534,-487 530.02,-486.56 "/>
<ellipse fill="none" stroke="black" cx="526.84" cy="-486.21" rx="3.2" ry="3.2"/>
</g>
<!-- strata&#45;&gt;planting_sites -->
<g id="edge16" class="edge">
<title>strata:w&#45;&gt;planting_sites:e</title>
<path fill="none" stroke="black" d="M167.4,-285C156.93,-285 150.01,-285 135,-285"/>
<polygon fill="black" stroke="black" points="174,-285 182,-288.6 178,-285 182,-285 182,-285 182,-285 178,-285 182,-281.4 174,-285 174,-285"/>
<ellipse fill="none" stroke="black" cx="170.8" cy="-285" rx="3.2" ry="3.2"/>
</g>
<!-- substratum_populations -->
<g id="node12" class="node">
<title>substratum_populations</title>
<g id="a_node12"><a xlink:href="../../tables/substratum_populations.html" xlink:title="substratum_populations" target="_top">
<polygon fill="#ffffff" stroke="transparent" points="573,-355 573,-413 763,-413 763,-355 573,-355"/>
<polygon fill="#f5f5f5" stroke="transparent" points="573,-391 573,-413 763,-413 763,-391 573,-391"/>
<polygon fill="none" stroke="black" points="573,-391 573,-413 763,-413 763,-391 573,-391"/>
<text text-anchor="start" x="578" y="-400.2" font-family="Helvetica,sans-Serif" font-weight="bold" font-size="11.00">substratum_populations</text>
<text text-anchor="start" x="724" y="-399.2" font-family="Helvetica,sans-Serif" font-size="11.00">[table]</text>
<polygon fill="none" stroke="black" points="573,-373 573,-391 763,-391 763,-373 573,-373"/>
<text text-anchor="start" x="576" y="-379.2" font-family="Helvetica,sans-Serif" font-size="11.00">...</text>
<polygon fill="#ffffff" stroke="transparent" points="573,-355 573,-373 666,-373 666,-355 573,-355"/>
<polygon fill="none" stroke="black" points="573,-355 573,-373 666,-373 666,-355 573,-355"/>
<text text-anchor="start" x="576" y="-361.2" font-family="Helvetica,sans-Serif" font-size="11.00">&lt; 1</text>
<polygon fill="#ffffff" stroke="transparent" points="666,-355 666,-373 714,-373 714,-355 666,-355"/>
<polygon fill="none" stroke="black" points="666,-355 666,-373 714,-373 714,-355 666,-355"/>
<text text-anchor="start" x="704" y="-361.2" font-family="Helvetica,sans-Serif" font-size="11.00"> &#160;</text>
<polygon fill="#ffffff" stroke="transparent" points="714,-355 714,-373 763,-373 763,-355 714,-355"/>
<polygon fill="none" stroke="black" points="714,-355 714,-373 763,-373 763,-355 714,-355"/>
<text text-anchor="start" x="753" y="-361.2" font-family="Helvetica,sans-Serif" font-size="11.00"> &#160;</text>
</a>
</g>
</g>
<!-- substratum_populations&#45;&gt;substrata -->
<g id="edge21" class="edge">
<title>substratum_populations:w&#45;&gt;substrata:e</title>
<path fill="none" stroke="black" d="M557.86,-379.25C543.87,-372.69 541.27,-355.62 525,-341 506.98,-324.82 509.22,-304 485,-304"/>
<polygon fill="black" stroke="black" points="564.15,-380.47 571.31,-385.53 568.07,-381.24 572,-382 572,-382 572,-382 568.07,-381.24 572.69,-378.47 564.15,-380.47 564.15,-380.47"/>
<ellipse fill="none" stroke="black" cx="561.01" cy="-379.86" rx="3.2" ry="3.2"/>
</g>
</g>
</svg>
