<?xml version="1.0" encoding="UTF-8" standalone="no"?>
<!DOCTYPE svg PUBLIC "-//W3C//DTD SVG 1.1//EN"
 "http://www.w3.org/Graphics/SVG/1.1/DTD/svg11.dtd">
<!-- Generated by graphviz version 2.47.1 (20210515.0534)
 -->
<!-- Title: twoDegreesRelationshipsDiagram Pages: 1 -->
<svg width="703pt" height="642pt"
 viewBox="0.00 0.00 703.00 642.00" xmlns="http://www.w3.org/2000/svg" xmlns:xlink="http://www.w3.org/1999/xlink">
<g id="graph0" class="graph" transform="scale(1 1) rotate(0) translate(4 638)">
<title>twoDegreesRelationshipsDiagram</title>
<polygon fill="#ffffff" stroke="transparent" points="-4,4 -4,-638 699,-638 699,4 -4,4"/>
<text text-anchor="middle" x="73.5" y="-7.2" font-family="Helvetica,sans-Serif" font-size="11.00">Generated by SchemaSpy</text>
<!-- observed_stratum_species_totals -->
<g id="node1" class="node">
<title>observed_stratum_species_totals</title>
<g id="a_node1"><a xlink:href="../../tables/observed_stratum_species_totals.html" xlink:title="observed_stratum_species_totals" target="_top">
<polygon fill="#ffffff" stroke="transparent" points="424,-572 424,-630 664,-630 664,-572 424,-572"/>
<polygon fill="#f5f5f5" stroke="transparent" points="424,-608 424,-630 664,-630 664,-608 424,-608"/>
<polygon fill="none" stroke="black" points="424,-608 424,-630 664,-630 664,-608 424,-608"/>
<text text-anchor="start" x="429" y="-617.2" font-family="Helvetica,sans-Serif" font-weight="bold" font-size="11.00">observed_stratum_species_totals</text>
<text text-anchor="start" x="625" y="-616.2" font-family="Helvetica,sans-Serif" font-size="11.00">[table]</text>
<polygon fill="none" stroke="black" points="424,-590 424,-608 664,-608 664,-590 424,-590"/>
<text text-anchor="start" x="427" y="-596.2" font-family="Helvetica,sans-Serif" font-size="11.00">...</text>
<polygon fill="#ffffff" stroke="transparent" points="424,-572 424,-590 542,-590 542,-572 424,-572"/>
<polygon fill="none" stroke="black" points="424,-572 424,-590 542,-590 542,-572 424,-572"/>
<text text-anchor="start" x="427" y="-578.2" font-family="Helvetica,sans-Serif" font-size="11.00">&lt; 3</text>
<polygon fill="#ffffff" stroke="transparent" points="542,-572 542,-590 603,-590 603,-572 542,-572"/>
<polygon fill="none" stroke="black" points="542,-572 542,-590 603,-590 603,-572 542,-572"/>
<text text-anchor="start" x="593" y="-578.2" font-family="Helvetica,sans-Serif" font-size="11.00"> &#160;</text>
<polygon fill="#ffffff" stroke="transparent" points="603,-572 603,-590 664,-590 664,-572 603,-572"/>
<polygon fill="none" stroke="black" points="603,-572 603,-590 664,-590 664,-572 603,-572"/>
<text text-anchor="start" x="654" y="-578.2" font-family="Helvetica,sans-Serif" font-size="11.00"> &#160;</text>
</a>
</g>
</g>
<!-- strata -->
<g id="node2" class="node">
<title>strata</title>
<g id="a_node2"><a xlink:href="../../tables/strata.html" xlink:title="strata" target="_top">
<polygon fill="#ffffff" stroke="transparent" points="183,-207 183,-353 352,-353 352,-207 183,-207"/>
<polygon fill="#f5f5f5" stroke="transparent" points="183.5,-331 183.5,-353 352.5,-353 352.5,-331 183.5,-331"/>
<polygon fill="none" stroke="black" points="183.5,-331 183.5,-353 352.5,-353 352.5,-331 183.5,-331"/>
<text text-anchor="start" x="187.5" y="-340.2" font-family="Helvetica,sans-Serif" font-weight="bold" font-size="11.00">strata</text>
<text text-anchor="start" x="313.5" y="-339.2" font-family="Helvetica,sans-Serif" font-size="11.00">[table]</text>
<polygon fill="none" stroke="black" points="183.5,-309 183.5,-331 352.5,-331 352.5,-309 183.5,-309"/>
<image xlink:href="../../images/primaryKeys.png" width="11px" height="12px" preserveAspectRatio="xMinYMin meet" x="188.5" y="-326"/>
<text text-anchor="start" x="203.5" y="-317.2" font-family="Helvetica,sans-Serif" font-size="11.00">id</text>
<polygon fill="#ffffff" stroke="transparent" points="183.5,-287 183.5,-309 352.5,-309 352.5,-287 183.5,-287"/>
<polygon fill="none" stroke="black" points="183.5,-287 183.5,-309 352.5,-309 352.5,-287 183.5,-287"/>
<image xlink:href="../../images/foreignKeys.png" width="11px" height="12px" preserveAspectRatio="xMinYMin meet" x="188.5" y="-304"/>
<text text-anchor="start" x="203.5" y="-295.2" font-family="Helvetica,sans-Serif" font-size="11.00">planting_site_id</text>
<polygon fill="#ffffff" stroke="transparent" points="183.5,-265 183.5,-287 352.5,-287 352.5,-265 183.5,-265"/>
<polygon fill="none" stroke="black" points="183.5,-265 183.5,-287 352.5,-287 352.5,-265 183.5,-265"/>
<text text-anchor="start" x="203.5" y="-273.2" font-family="Helvetica,sans-Serif" font-size="11.00">name</text>
<polygon fill="#ffffff" stroke="transparent" points="183.5,-243 183.5,-265 352.5,-265 352.5,-243 183.5,-243"/>
<polygon fill="none" stroke="black" points="183.5,-243 183.5,-265 352.5,-265 352.5,-243 183.5,-243"/>
<text text-anchor="start" x="203.5" y="-251.2" font-family="Helvetica,sans-Serif" font-size="11.00">stable_id</text>
<polygon fill="none" stroke="black" points="183.5,-225 183.5,-243 352.5,-243 352.5,-225 183.5,-225"/>
<text text-anchor="start" x="186.5" y="-231.2" font-family="Helvetica,sans-Serif" font-size="11.00">...</text>
<polygon fill="#ffffff" stroke="transparent" points="183.5,-207 183.5,-225 261.5,-225 261.5,-207 183.5,-207"/>
<polygon fill="none" stroke="black" points="183.5,-207 183.5,-225 261.5,-225 261.5,-207 183.5,-207"/>
<text text-anchor="start" x="186.5" y="-213.2" font-family="Helvetica,sans-Serif" font-size="11.00">&lt; 1</text>
<polygon fill="#ffffff" stroke="transparent" points="261.5,-207 261.5,-225 302.5,-225 302.5,-207 261.5,-207"/>
<polygon fill="none" stroke="black" points="261.5,-207 261.5,-225 302.5,-225 302.5,-207 261.5,-207"/>
<text text-anchor="start" x="292.5" y="-213.2" font-family="Helvetica,sans-Serif" font-size="11.00"> &#160;</text>
<polygon fill="#ffffff" stroke="transparent" points="302.5,-207 302.5,-225 352.5,-225 352.5,-207 302.5,-207"/>
<polygon fill="none" stroke="black" points="302.5,-207 302.5,-225 352.5,-225 352.5,-207 302.5,-207"/>
<text text-anchor="start" x="333.5" y="-213.2" font-family="Helvetica,sans-Serif" font-size="11.00">7 &gt;</text>
</a>
</g>
</g>
<!-- observed_stratum_species_totals&#45;&gt;strata -->
<g id="edge1" class="edge">
<title>observed_stratum_species_totals:w&#45;&gt;strata:e</title>
<path fill="none" stroke="black" d="M408.93,-594.74C400.98,-588.36 399.09,-575.58 393,-562 370.7,-512.28 407.99,-320 353.5,-320"/>
<polygon fill="black" stroke="black" points="415.34,-596.68 421.96,-602.45 419.17,-597.84 423,-599 423,-599 423,-599 419.17,-597.84 424.04,-595.55 415.34,-596.68 415.34,-596.68"/>
<ellipse fill="none" stroke="black" cx="412.28" cy="-595.76" rx="3.2" ry="3.2"/>
</g>
<!-- planting_sites -->
<g id="node4" class="node">
<title>planting_sites</title>
<g id="a_node4"><a xlink:href="../../tables/planting_sites.html" xlink:title="planting_sites" target="_top">
<polygon fill="#ffffff" stroke="transparent" points="8,-212 8,-270 134,-270 134,-212 8,-212"/>
<polygon fill="#f5f5f5" stroke="transparent" points="8,-248 8,-270 134,-270 134,-248 8,-248"/>
<polygon fill="none" stroke="black" points="8,-248 8,-270 134,-270 134,-248 8,-248"/>
<text text-anchor="start" x="13" y="-257.2" font-family="Helvetica,sans-Serif" font-weight="bold" font-size="11.00">planting_sites</text>
<text text-anchor="start" x="95" y="-256.2" font-family="Helvetica,sans-Serif" font-size="11.00">[table]</text>
<polygon fill="none" stroke="black" points="8,-230 8,-248 134,-248 134,-230 8,-230"/>
<text text-anchor="start" x="11" y="-236.2" font-family="Helvetica,sans-Serif" font-size="11.00">...</text>
<polygon fill="#ffffff" stroke="transparent" points="8,-212 8,-230 57,-230 57,-212 8,-212"/>
<polygon fill="none" stroke="black" points="8,-212 8,-230 57,-230 57,-212 8,-212"/>
<text text-anchor="start" x="11" y="-218.2" font-family="Helvetica,sans-Serif" font-size="11.00"> &#160;</text>
<polygon fill="#ffffff" stroke="transparent" points="57,-212 57,-230 88,-230 88,-212 57,-212"/>
<polygon fill="none" stroke="black" points="57,-212 57,-230 88,-230 88,-212 57,-212"/>
<text text-anchor="start" x="78" y="-218.2" font-family="Helvetica,sans-Serif" font-size="11.00"> &#160;</text>
<polygon fill="#ffffff" stroke="transparent" points="88,-212 88,-230 134,-230 134,-212 88,-212"/>
<polygon fill="none" stroke="black" points="88,-212 88,-230 134,-230 134,-212 88,-212"/>
<text text-anchor="start" x="109" y="-218.2" font-family="Helvetica,sans-Serif" font-size="11.00">13 &gt;</text>
</a>
</g>
</g>
<!-- strata&#45;&gt;planting_sites -->
<g id="edge3" class="edge">
<title>strata:w&#45;&gt;planting_sites:e</title>
<path fill="none" stroke="black" d="M168.91,-292.97C154.23,-278.7 162.62,-239 135,-239"/>
<polygon fill="black" stroke="black" points="175,-295.22 181.25,-301.38 178.75,-296.61 182.5,-298 182.5,-298 182.5,-298 178.75,-296.61 183.75,-294.62 175,-295.22 175,-295.22"/>
<ellipse fill="none" stroke="black" cx="172" cy="-294.11" rx="3.2" ry="3.2"/>
</g>
<!-- simplified_strata -->
<g id="node3" class="node">
<title>simplified_strata</title>
<g id="a_node3"><a xlink:href="../../tables/simplified_strata.html" xlink:title="simplified_strata" target="_top">
<polygon fill="#ffffff" stroke="transparent" points="472,-493 472,-551 616,-551 616,-493 472,-493"/>
<polygon fill="#f5f5f5" stroke="transparent" points="472,-529 472,-551 616,-551 616,-529 472,-529"/>
<polygon fill="none" stroke="black" points="472,-529 472,-551 616,-551 616,-529 472,-529"/>
<text text-anchor="start" x="477" y="-538.2" font-family="Helvetica,sans-Serif" font-weight="bold" font-size="11.00">simplified_strata</text>
<text text-anchor="start" x="577" y="-537.2" font-family="Helvetica,sans-Serif" font-size="11.00">[table]</text>
<polygon fill="none" stroke="black" points="472,-511 472,-529 616,-529 616,-511 472,-511"/>
<text text-anchor="start" x="475" y="-517.2" font-family="Helvetica,sans-Serif" font-size="11.00">...</text>
<polygon fill="#ffffff" stroke="transparent" points="472,-493 472,-511 542,-511 542,-493 472,-493"/>
<polygon fill="none" stroke="black" points="472,-493 472,-511 542,-511 542,-493 472,-493"/>
<text text-anchor="start" x="475" y="-499.2" font-family="Helvetica,sans-Serif" font-size="11.00">&lt; 1</text>
<polygon fill="#ffffff" stroke="transparent" points="542,-493 542,-511 579,-511 579,-493 542,-493"/>
<polygon fill="none" stroke="black" points="542,-493 542,-511 579,-511 579,-493 542,-493"/>
<text text-anchor="start" x="569" y="-499.2" font-family="Helvetica,sans-Serif" font-size="11.00"> &#160;</text>
<polygon fill="#ffffff" stroke="transparent" points="579,-493 579,-511 616,-511 616,-493 579,-493"/>
<polygon fill="none" stroke="black" points="579,-493 579,-511 616,-511 616,-493 579,-493"/>
<text text-anchor="start" x="606" y="-499.2" font-family="Helvetica,sans-Serif" font-size="11.00"> &#160;</text>
</a>
</g>
</g>
<!-- simplified_strata&#45;&gt;strata -->
<g id="edge2" class="edge">
<title>simplified_strata:w&#45;&gt;strata:e</title>
<path fill="none" stroke="black" d="M460.39,-519.78C429.54,-518.37 414.85,-509.86 393,-483 345.97,-425.17 428.04,-320 353.5,-320"/>
<polygon fill="black" stroke="black" points="470.28,-515.98 470.12,-523.98 468.52,-523.95 468.68,-515.95 470.28,-515.98"/>
<polyline fill="none" stroke="black" points="471,-520 467,-519.92 "/>
<ellipse fill="none" stroke="black" cx="463.8" cy="-519.85" rx="3.2" ry="3.2"/>
</g>
<!-- stratum_histories -->
<g id="node5" class="node">
<title>stratum_histories</title>
<g id="a_node5"><a xlink:href="../../tables/stratum_histories.html" xlink:title="stratum_histories" target="_top">
<polygon fill="#ffffff" stroke="transparent" points="469,-414 469,-472 619,-472 619,-414 469,-414"/>
<polygon fill="#f5f5f5" stroke="transparent" points="469,-450 469,-472 619,-472 619,-450 469,-450"/>
<polygon fill="none" stroke="black" points="469,-450 469,-472 619,-472 619,-450 469,-450"/>
<text text-anchor="start" x="474" y="-459.2" font-family="Helvetica,sans-Serif" font-weight="bold" font-size="11.00">stratum_histories</text>
<text text-anchor="start" x="580" y="-458.2" font-family="Helvetica,sans-Serif" font-size="11.00">[table]</text>
<polygon fill="none" stroke="black" points="469,-432 469,-450 619,-450 619,-432 469,-432"/>
<text text-anchor="start" x="472" y="-438.2" font-family="Helvetica,sans-Serif" font-size="11.00">...</text>
<polygon fill="#ffffff" stroke="transparent" points="469,-414 469,-432 537,-432 537,-414 469,-414"/>
<polygon fill="none" stroke="black" points="469,-414 469,-432 537,-432 537,-414 469,-414"/>
<text text-anchor="start" x="472" y="-420.2" font-family="Helvetica,sans-Serif" font-size="11.00">&lt; 2</text>
<polygon fill="#ffffff" stroke="transparent" points="537,-414 537,-432 573,-432 573,-414 537,-414"/>
<polygon fill="none" stroke="black" points="537,-414 537,-432 573,-432 573,-414 537,-414"/>
<text text-anchor="start" x="563" y="-420.2" font-family="Helvetica,sans-Serif" font-size="11.00"> &#160;</text>
<polygon fill="#ffffff" stroke="transparent" points="573,-414 573,-432 619,-432 619,-414 573,-414"/>
<polygon fill="none" stroke="black" points="573,-414 573,-432 619,-432 619,-414 573,-414"/>
<text text-anchor="start" x="600" y="-420.2" font-family="Helvetica,sans-Serif" font-size="11.00">2 &gt;</text>
</a>
</g>
</g>
<!-- stratum_histories&#45;&gt;strata -->
<g id="edge4" class="edge">
<title>stratum_histories:w&#45;&gt;strata:e</title>
<path fill="none" stroke="black" d="M453.35,-440.33C427.12,-437.64 415.27,-426.69 393,-404 364.1,-374.56 394.76,-320 353.5,-320"/>
<polygon fill="black" stroke="black" points="460.01,-440.63 467.83,-444.6 464,-440.82 468,-441 468,-441 468,-441 464,-440.82 468.17,-437.4 460.01,-440.63 460.01,-440.63"/>
<ellipse fill="none" stroke="black" cx="456.81" cy="-440.49" rx="3.2" ry="3.2"/>
</g>
<!-- stratum_populations -->
<g id="node6" class="node">
<title>stratum_populations</title>
<g id="a_node6"><a xlink:href="../../tables/stratum_populations.html" xlink:title="stratum_populations" target="_top">
<polygon fill="#ffffff" stroke="transparent" points="459.5,-335 459.5,-393 628.5,-393 628.5,-335 459.5,-335"/>
<polygon fill="#f5f5f5" stroke="transparent" points="460,-371 460,-393 629,-393 629,-371 460,-371"/>
<polygon fill="none" stroke="black" points="460,-371 460,-393 629,-393 629,-371 460,-371"/>
<text text-anchor="start" x="465" y="-380.2" font-family="Helvetica,sans-Serif" font-weight="bold" font-size="11.00">stratum_populations</text>
<text text-anchor="start" x="590" y="-379.2" font-family="Helvetica,sans-Serif" font-size="11.00">[table]</text>
<polygon fill="none" stroke="black" points="460,-353 460,-371 629,-371 629,-353 460,-353"/>
<text text-anchor="start" x="463" y="-359.2" font-family="Helvetica,sans-Serif" font-size="11.00">...</text>
<polygon fill="#ffffff" stroke="transparent" points="460,-335 460,-353 542,-353 542,-335 460,-335"/>
<polygon fill="none" stroke="black" points="460,-335 460,-353 542,-353 542,-335 460,-335"/>
<text text-anchor="start" x="463" y="-341.2" font-family="Helvetica,sans-Serif" font-size="11.00">&lt; 1</text>
<polygon fill="#ffffff" stroke="transparent" points="542,-335 542,-353 585,-353 585,-335 542,-335"/>
<polygon fill="none" stroke="black" points="542,-335 542,-353 585,-353 585,-335 542,-335"/>
<text text-anchor="start" x="575" y="-341.2" font-family="Helvetica,sans-Serif" font-size="11.00"> &#160;</text>
<polygon fill="#ffffff" stroke="transparent" points="585,-335 585,-353 629,-353 629,-335 585,-335"/>
<polygon fill="none" stroke="black" points="585,-335 585,-353 629,-353 629,-335 585,-335"/>
<text text-anchor="start" x="619" y="-341.2" font-family="Helvetica,sans-Serif" font-size="11.00"> &#160;</text>
</a>
</g>
</g>
<!-- stratum_populations&#45;&gt;strata -->
<g id="edge5" class="edge">
<title>stratum_populations:w&#45;&gt;strata:e</title>
<path fill="none" stroke="black" d="M444.46,-360.7C407.06,-353.61 398.65,-320 353.5,-320"/>
<polygon fill="black" stroke="black" points="451.03,-361.29 458.68,-365.59 455.02,-361.64 459,-362 459,-362 459,-362 455.02,-361.64 459.32,-358.41 451.03,-361.29 451.03,-361.29"/>
<ellipse fill="none" stroke="black" cx="447.84" cy="-361" rx="3.2" ry="3.2"/>
</g>
<!-- stratum_t0_temp_densities -->
<g id="node7" class="node">
<title>stratum_t0_temp_densities</title>
<g id="a_node7"><a xlink:href="../../tables/stratum_t0_temp_densities.html" xlink:title="stratum_t0_temp_densities" target="_top">
<polygon fill="#ffffff" stroke="transparent" points="401,-116 401,-314 687,-314 687,-116 401,-116"/>
<polygon fill="#f5f5f5" stroke="transparent" points="403,-290 403,-312 685,-312 685,-290 403,-290"/>
<polygon fill="none" stroke="black" points="403,-290 403,-312 685,-312 685,-290 403,-290"/>
<text text-anchor="start" x="408" y="-299.2" font-family="Helvetica,sans-Serif" font-weight="bold" font-size="11.00">stratum_t0_temp_densities</text>
<text text-anchor="start" x="646" y="-298.2" font-family="Helvetica,sans-Serif" font-size="11.00">[table]</text>
<polygon fill="none" stroke="black" points="403,-268 403,-290 585,-290 585,-268 403,-268"/>
<image xlink:href="../../images/primaryKeys.png" width="11px" height="12px" preserveAspectRatio="xMinYMin meet" x="408" y="-285"/>
<text text-anchor="start" x="423" y="-276.2" font-family="Helvetica,sans-Serif" font-size="11.00">stratum_id</text>
<polygon fill="none" stroke="black" points="585,-268 585,-290 685,-290 685,-268 585,-268"/>
<text text-anchor="start" x="588" y="-276.2" font-family="Helvetica,sans-Serif" font-size="11.00">int8[19]</text>
<polygon fill="none" stroke="black" points="403,-246 403,-268 585,-268 585,-246 403,-246"/>
<image xlink:href="../../images/primaryKeys.png" width="11px" height="12px" preserveAspectRatio="xMinYMin meet" x="408" y="-263"/>
<text text-anchor="start" x="423" y="-254.2" font-family="Helvetica,sans-Serif" font-size="11.00">species_id</text>
<polygon fill="none" stroke="black" points="585,-246 585,-268 685,-268 685,-246 585,-246"/>
<text text-anchor="start" x="588" y="-254.2" font-family="Helvetica,sans-Serif" font-size="11.00">int8[19]</text>
<polygon fill="none" stroke="black" points="403,-224 403,-246 585,-246 585,-224 403,-224"/>
<text text-anchor="start" x="423" y="-232.2" font-family="Helvetica,sans-Serif" font-size="11.00">stratum_density</text>
<polygon fill="none" stroke="black" points="585,-224 585,-246 685,-246 685,-224 585,-224"/>
<text text-anchor="start" x="588" y="-232.2" font-family="Helvetica,sans-Serif" font-size="11.00">numeric[0]</text>
<polygon fill="none" stroke="black" points="403,-202 403,-224 585,-224 585,-202 403,-202"/>
<text text-anchor="start" x="423" y="-210.2" font-family="Helvetica,sans-Serif" font-size="11.00">created_time</text>
<polygon fill="none" stroke="black" points="585,-202 585,-224 685,-224 685,-202 585,-202"/>
<text text-anchor="start" x="588" y="-210.2" font-family="Helvetica,sans-Serif" font-size="11.00">timestamptz[35,6]</text>
<polygon fill="none" stroke="black" points="403,-180 403,-202 585,-202 585,-180 403,-180"/>
<text text-anchor="start" x="423" y="-188.2" font-family="Helvetica,sans-Serif" font-size="11.00">modified_time</text>
<polygon fill="none" stroke="black" points="585,-180 585,-202 685,-202 685,-180 585,-180"/>
<text text-anchor="start" x="588" y="-188.2" font-family="Helvetica,sans-Serif" font-size="11.00">timestamptz[35,6]</text>
<polygon fill="none" stroke="black" points="403,-158 403,-180 585,-180 585,-158 403,-158"/>
<text text-anchor="start" x="423" y="-166.2" font-family="Helvetica,sans-Serif" font-size="11.00">created_by</text>
<polygon fill="none" stroke="black" points="585,-158 585,-180 685,-180 685,-158 585,-158"/>
<text text-anchor="start" x="588" y="-166.2" font-family="Helvetica,sans-Serif" font-size="11.00">int8[19]</text>
<polygon fill="none" stroke="black" points="403,-136 403,-158 585,-158 585,-136 403,-136"/>
<text text-anchor="start" x="423" y="-144.2" font-family="Helvetica,sans-Serif" font-size="11.00">modified_by</text>
<polygon fill="none" stroke="black" points="585,-136 585,-158 685,-158 685,-136 585,-136"/>
<text text-anchor="start" x="588" y="-144.2" font-family="Helvetica,sans-Serif" font-size="11.00">int8[19]</text>
<polygon fill="#ffffff" stroke="transparent" points="403,-118 403,-136 498,-136 498,-118 403,-118"/>
<polygon fill="none" stroke="black" points="403,-118 403,-136 498,-136 498,-118 403,-118"/>
<text text-anchor="start" x="406" y="-124.2" font-family="Helvetica,sans-Serif" font-size="11.00">&lt; 1</text>
<polygon fill="#ffffff" stroke="transparent" points="498,-118 498,-136 585,-136 585,-118 498,-118"/>
<polygon fill="none" stroke="black" points="498,-118 498,-136 585,-136 585,-118 498,-118"/>
<text text-anchor="start" x="575" y="-124.2" font-family="Helvetica,sans-Serif" font-size="11.00"> &#160;</text>
<polygon fill="#ffffff" stroke="transparent" points="585,-118 585,-136 685,-136 685,-118 585,-118"/>
<polygon fill="none" stroke="black" points="585,-118 585,-136 685,-136 685,-118 585,-118"/>
<text text-anchor="start" x="666" y="-124.2" font-family="Helvetica,sans-Serif" font-size="11.00">0 &gt;</text>
<polygon fill="none" stroke="black" stroke-width="2" points="402,-117 402,-313 686,-313 686,-117 402,-117"/>
</a>
</g>
</g>
<!-- stratum_t0_temp_densities&#45;&gt;strata -->
<g id="edge6" class="edge">
<title>stratum_t0_temp_densities:w&#45;&gt;strata:e</title>
<path fill="none" stroke="black" d="M388.29,-283.7C375.52,-294.47 375.77,-320 353.5,-320"/>
<polygon fill="black" stroke="black" points="394.43,-281.6 403.17,-282.41 398.22,-280.3 402,-279 402,-279 402,-279 398.22,-280.3 400.83,-275.59 394.43,-281.6 394.43,-281.6"/>
<ellipse fill="none" stroke="black" cx="391.41" cy="-282.63" rx="3.2" ry="3.2"/>
</g>
<!-- substrata -->
<g id="node8" class="node">
<title>substrata</title>
<g id="a_node8"><a xlink:href="../../tables/substrata.html" xlink:title="substrata" target="_top">
<polygon fill="#ffffff" stroke="transparent" points="493.5,-37 493.5,-95 594.5,-95 594.5,-37 493.5,-37"/>
<polygon fill="#f5f5f5" stroke="transparent" points="494,-73 494,-95 595,-95 595,-73 494,-73"/>
<polygon fill="none" stroke="black" points="494,-73 494,-95 595,-95 595,-73 494,-73"/>
<text text-anchor="start" x="499" y="-82.2" font-family="Helvetica,sans-Serif" font-weight="bold" font-size="11.00">substrata</text>
<text text-anchor="start" x="556" y="-81.2" font-family="Helvetica,sans-Serif" font-size="11.00">[table]</text>
<polygon fill="none" stroke="black" points="494,-55 494,-73 595,-73 595,-55 494,-55"/>
<text text-anchor="start" x="497" y="-61.2" font-family="Helvetica,sans-Serif" font-size="11.00">...</text>
<polygon fill="#ffffff" stroke="transparent" points="494,-37 494,-55 538,-55 538,-37 494,-37"/>
<polygon fill="none" stroke="black" points="494,-37 494,-55 538,-55 538,-37 494,-37"/>
<text text-anchor="start" x="497" y="-43.2" font-family="Helvetica,sans-Serif" font-size="11.00">&lt; 3</text>
<polygon fill="#ffffff" stroke="transparent" points="538,-37 538,-55 562,-55 562,-37 538,-37"/>
<polygon fill="none" stroke="black" points="538,-37 538,-55 562,-55 562,-37 538,-37"/>
<text text-anchor="start" x="552" y="-43.2" font-family="Helvetica,sans-Serif" font-size="11.00"> &#160;</text>
<polygon fill="#ffffff" stroke="transparent" points="562,-37 562,-55 595,-55 595,-37 562,-37"/>
<polygon fill="none" stroke="black" points="562,-37 562,-55 595,-55 595,-37 562,-37"/>
<text text-anchor="start" x="576" y="-43.2" font-family="Helvetica,sans-Serif" font-size="11.00">9 &gt;</text>
</a>
</g>
</g>
<!-- substrata&#45;&gt;strata -->
<g id="edge8" class="edge">
<title>substrata:w&#45;&gt;strata:e</title>
<path fill="none" stroke="black" d="M478.4,-64.17C440.28,-65.24 420.35,-71.98 393,-105 337.15,-172.43 441.06,-298 353.5,-298"/>
<polygon fill="black" stroke="black" points="485,-64.1 493.04,-67.6 489,-64.05 493,-64 493,-64 493,-64 489,-64.05 492.96,-60.4 485,-64.1 485,-64.1"/>
<ellipse fill="none" stroke="black" cx="481.8" cy="-64.13" rx="3.2" ry="3.2"/>
</g>
<!-- substrata&#45;&gt;strata -->
<g id="edge9" class="edge">
<title>substrata:w&#45;&gt;strata:e</title>
<path fill="none" stroke="black" d="M478.39,-64.17C440.2,-65.18 420.02,-71.71 393,-105 362.39,-142.72 402.08,-320 353.5,-320"/>
<polygon fill="black" stroke="black" points="485,-64.09 493.04,-67.6 489,-64.05 493,-64 493,-64 493,-64 489,-64.05 492.96,-60.4 485,-64.09 485,-64.09"/>
<ellipse fill="none" stroke="black" cx="481.8" cy="-64.13" rx="3.2" ry="3.2"/>
</g>
<!-- substrata&#45;&gt;planting_sites -->
<g id="edge7" class="edge">
<title>substrata:w&#45;&gt;planting_sites:e</title>
<path fill="none" stroke="black" d="M478.42,-65.94C422.11,-77.4 260.6,-137.86 175,-197 153.79,-211.65 160.78,-239 135,-239"/>
<polygon fill="black" stroke="black" points="485.07,-65.05 493.47,-67.57 489.03,-64.53 493,-64 493,-64 493,-64 489.03,-64.53 492.53,-60.43 485.07,-65.05 485.07,-65.05"/>
<ellipse fill="none" stroke="black" cx="481.9" cy="-65.47" rx="3.2" ry="3.2"/>
</g>
</g>
</svg>
